<svg id="abacus_Layer_1" viewBox="0 0 24 24" fill="currentColor" width="32" height="32" data-name="Layer 1" xmlns="http://www.w3.org/2000/svg" xmlns:xlink="http://www.w3.org/1999/xlink">
    <title>abacus</title>
    <path d="M17.5 0h-11C4.019 0 2 2.019 2 4.5v15C2 21.981 4.019 24 6.5 24h11c2.481 0 4.5-2.019 4.5-4.5v-15C22 2.019 19.981 0 17.5 0zM13 19v-0.5c0-0.276-0.224-0.5-0.5-0.5S12 18.224 12 18.5V19h-2v-0.5c0-0.276-0.224-0.5-0.5-0.5S9 18.224 9 18.5V19H7v-0.5C7 18.224 6.776 18 6.5 18S6 18.224 6 18.5V19H3v-4h3v0.5C6 15.776 6.224 16 6.5 16S7 15.776 7 15.5V15h2v0.5C9 15.776 9.224 16 9.5 16s0.5-0.224 0.5-0.5V15h2v0.5c0 0.276 0.224 0.5 0.5 0.5s0.5-0.224 0.5-0.5V15h4v0.5c0 0.276 0.224 0.5 0.5 0.5s0.5-0.224 0.5-0.5V15h3v4zM6 5v0.5C6 5.776 6.224 6 6.5 6S7 5.776 7 5.5V5h2v0.5C9 5.776 9.224 6 9.5 6S10 5.776 10 5.5V5h2v0.5C12 5.776 12.224 6 12.5 6S13 5.776 13 5.5V5h4v0.5C17 5.776 17.224 6 17.5 6S18 5.776 18 5.5V5h3v4h-3V8.5C18 8.224 17.776 8 17.5 8S17 8.224 17 8.5V9h-4V8.5C13 8.224 12.776 8 12.5 8S12 8.224 12 8.5V9h-2V8.5C10 8.224 9.776 8 9.5 8S9 8.224 9 8.5V9H7V8.5C7 8.224 6.776 8 6.5 8S6 8.224 6 8.5V9H3V5zM17.5 13c-0.276 0-0.5 0.224-0.5 0.5V14h-4v-0.5c0-0.276-0.224-0.5-0.5-0.5S12 13.224 12 13.5V14h-2v-0.5c0-0.276-0.224-0.5-0.5-0.5S9 13.224 9 13.5V14H7v-0.5C7 13.224 6.776 13 6.5 13S6 13.224 6 13.5V14H3v-4h3v0.5C6 10.776 6.224 11 6.5 11S7 10.776 7 10.5V10h2v0.5C9 10.776 9.224 11 9.5 11s0.5-0.224 0.5-0.5V10h2v0.5c0 0.276 0.224 0.5 0.5 0.5s0.5-0.224 0.5-0.5V10h4v0.5c0 0.276 0.224 0.5 0.5 0.5s0.5-0.224 0.5-0.5V10h3v4h-3v-0.5c0-0.276-0.224-0.5-0.5-0.5zM6.5 1h11c1.758 0 3.204 1.308 3.449 3H18V3.5C18 3.224 17.776 3 17.5 3S17 3.224 17 3.5V4h-4V3.5C13 3.224 12.776 3 12.5 3S12 3.224 12 3.5V4h-2V3.5C10 3.224 9.776 3 9.5 3S9 3.224 9 3.5V4H7V3.5C7 3.224 6.776 3 6.5 3S6 3.224 6 3.5V4H3.051C3.296 2.308 4.742 1 6.5 1zM17.5 23h-11c-1.758 0-3.204-1.308-3.449-3H6v0.5C6 20.776 6.224 21 6.5 21S7 20.776 7 20.5V20h2v0.5C9 20.776 9.224 21 9.5 21s0.5-0.224 0.5-0.5V20h2v0.5c0 0.276 0.224 0.5 0.5 0.5s0.5-0.224 0.5-0.5V20h7.949c-0.245 1.692-1.691 3-3.449 3z" />
</svg>