<svg id="access_control_Layer_1" viewBox="0 0 24 24" fill="currentColor" width="32" height="32" data-name="Layer 1" xmlns="http://www.w3.org/2000/svg" xmlns:xlink="http://www.w3.org/1999/xlink">
    <title>access-control</title>
    <path d="M18 12c-3.309 0-6 2.691-6 6s2.691 6 6 6 6-2.691 6-6-2.691-6-6-6zM16 22.576V22c0-1.103 0.897-2 2-2s2 0.897 2 2v0.576C19.386 22.845 18.712 23 18 23s-1.386-0.154-2-0.424zM20.998 21.976C20.985 20.333 19.647 19 18 19s-2.985 1.333-2.998 2.976C13.794 21.062 13 19.628 13 18c0-2.757 2.243-5 5-5s5 2.243 5 5c0 1.628-0.794 3.063-2.002 3.976zM18 14c-1.103 0-2 0.897-2 2s0.897 2 2 2 2-0.897 2-2-0.897-2-2-2zM18 17c-0.552 0-1-0.449-1-1s0.448-1 1-1 1 0.449 1 1-0.448 1-1 1zM11.5 23h-7C2.57 23 1 21.43 1 19.5v-7C1 10.57 2.57 9 4.5 9h10c0.895 0 1.745 0.337 2.396 0.949 0.201 0.188 0.518 0.18 0.707-0.021s0.18-0.518-0.021-0.707c-0.459-0.432-1-0.745-1.581-0.951V6.501c0-3.584-2.916-6.5-6.5-6.5S3 2.916 3 6.5v1.776C1.258 8.897 0 10.547 0 12.5v7C0 21.981 2.019 24 4.5 24h7c0.276 0 0.5-0.224 0.5-0.5S11.776 23 11.5 23zM4 6.5C4 3.467 6.468 1 9.5 1S15 3.467 15 6.5v1.547C14.834 8.028 14.669 8 14.5 8h-10C4.329 8 4.166 8.032 4 8.051zM9.5 15c0.276 0 0.5 0.224 0.5 0.5v2c0 0.276-0.224 0.5-0.5 0.5S9 17.776 9 17.5v-2C9 15.224 9.224 15 9.5 15z" />
</svg>