<svg id="accordion_Layer_1" viewBox="0 0 24 24" fill="currentColor" width="32" height="32" data-name="Layer 1" xmlns="http://www.w3.org/2000/svg" xmlns:xlink="http://www.w3.org/1999/xlink">
    <title>accordion</title>
    <path d="M20.5 3h-1.68l-0.68-0.657c-0.474-0.457-1.217-0.46-1.692-3e-3l-0.923 0.886c-9e-3 0-0.905-0.861-0.905-0.861-0.47-0.469-1.237-0.472-1.712-8e-3l-0.889 0.867c-7e-3 0-0.928-0.868-0.928-0.868-0.474-0.462-1.243-0.46-1.711 9e-3 0 0-0.875 0.855-0.88 0.855-9e-3 0-0.943-0.876-0.943-0.876-0.479-0.461-1.227-0.458-1.701 0.01L5.199 3H3.5C1.57 3 0 4.57 0 6.5v11C0 19.43 1.57 21 3.5 21h1.699l0.657 0.646c0.473 0.466 1.22 0.471 1.7 0.01l0.918-0.881c9e-3 0 0.905 0.861 0.905 0.861 0.469 0.468 1.237 0.472 1.712 8e-3 0 0 0.921-0.867 0.927-0.867l0.89 0.868c0.473 0.462 1.241 0.459 1.711-9e-3 0 0 0.875-0.855 0.88-0.855 9e-3 0 0.948 0.882 0.948 0.882 0.237 0.227 0.541 0.34 0.844 0.34 0.306 0 0.611-0.114 0.849-0.344l0.679-0.657h1.68c1.93 0 3.5-1.57 3.5-3.5V6.5c0-1.93-1.57-3.5-3.499-3.5zM1 17.5V17h1.5C2.776 17 3 16.776 3 16.5S2.776 16 2.5 16H1v-2h1.5C2.776 14 3 13.776 3 13.5S2.776 13 2.5 13H1v-2h1.5C2.776 11 3 10.776 3 10.5S2.776 10 2.5 10H1V8h1.5C2.776 8 3 7.776 3 7.5S2.776 7 2.5 7H1V6.5C1 5.121 2.122 4 3.5 4H5v16H3.5C2.122 20 1 18.879 1 17.5zM6.864 20.935c-0.086 0.082-0.221 0.08-0.306-2e-3L6 20.385V3.615l0.558-0.548c0.086-0.084 0.221-0.084 0.307-2e-3l1.136 1.09v15.69zM10.394 20.927c-0.087 0.085-0.225 0.082-0.31 0L9 19.851V4.15l1.085-1.076c0.084-0.082 0.223-0.085 0.309-2e-3l1.106 1.08v15.695zM13.915 20.927c-0.084 0.084-0.222 0.086-0.309 2e-3l-1.106-1.08V4.153l1.106-1.079c0.087-0.086 0.224-0.082 0.31 0L15 4.15v15.7zM17.14 20.941 16 19.846V4.155l1.14-1.094c0.086-0.083 0.221-0.082 0.306 0l0.555 0.536v16.805l-0.554 0.536c-0.086 0.082-0.221 0.081-0.307 3e-3zM23 17.502c0 1.379-1.122 2.5-2.5 2.5H19V4h1.5C21.878 4 23 5.121 23 6.5zM22 8.002c0 0.552-0.448 1-1 1s-1-0.448-1-1 0.448-1 1-1 1 0.448 1 1zM22 12.002c0 0.552-0.448 1-1 1s-1-0.448-1-1 0.448-1 1-1 1 0.448 1 1zM22 16.002c0 0.552-0.448 1-1 1s-1-0.448-1-1 0.448-1 1-1 1 0.448 1 1z" />
</svg>