<svg id="ad_forbidden_Layer_1" viewBox="0 0 24 24" fill="currentColor" width="32" height="32" data-name="Layer 1" xmlns="http://www.w3.org/2000/svg" xmlns:xlink="http://www.w3.org/1999/xlink">
    <title>ad-forbidden</title>
    <path d="M12 0C5.383 0 0 5.383 0 12s5.383 12 12 12 12-5.383 12-12S18.617 0 12 0zM1 12c0-2.853 1.101-5.447 2.889-7.404l2.758 2.758c0.195 0.195 0.512 0.195 0.707 0s0.195-0.512 0-0.707L4.596 3.889C6.553 2.101 9.147 1 12 1c6.065 0 11 4.935 11 11 0 2.853-1.101 5.447-2.889 7.404l-2.282-2.282c-0.195-0.195-0.512-0.195-0.707 0s-0.195 0.512 0 0.707l2.282 2.282C17.447 21.899 14.853 23 12 23 5.935 23 1 18.065 1 12zM17.5 10.5C17.5 9.122 16.378 8 15 8h-1c-0.551 0-1 0.449-1 1v6c0 0.551 0.449 1 1 1h1c1.378 0 2.5-1.122 2.5-2.5zM16.5 13.5c0 0.827-0.673 1.5-1.5 1.5h-1V9h1c0.827 0 1.5 0.673 1.5 1.5zM10.591 9.193c-0.12-0.668-0.589-1.192-1.346-1.192v0c-0.757 0-1.281 0.586-1.385 1.166l-1.253 6.242C6.546 15.715 6.779 16 7.091 16c0.235 0 0.437-0.166 0.484-0.396L7.9 14h2.66l0.331 1.606C10.938 15.836 11.14 16 11.375 16h7e-3c0.313 0 0.547-0.287 0.484-0.593 0.01-0.078-1.275-6.214-1.275-6.214zM8.103 13 8.844 9.344C8.864 9.232 8.988 9 9.245 9v0C9.341 9 9.54 9 9.611 9.394L10.354 13z" />
</svg>