<svg id="ad_slash_Layer_1" viewBox="0 0 24 24" fill="currentColor" width="32" height="32" data-name="Layer 1" xmlns="http://www.w3.org/2000/svg" xmlns:xlink="http://www.w3.org/1999/xlink">
    <title>ad-slash</title>
    <path d="M24 16.5v-9C24 5.019 21.981 3 19.5 3h-15C4.256 3 4.013 3.027 3.773 3.066l-2.919-2.92c-0.196-0.195-0.512-0.195-0.708 0s-0.195 0.512 0 0.708l23 23c0.195 0.195 0.512 0.195 0.707 0s0.195-0.512 0-0.707l-2.531-2.531C22.929 19.906 24 18.307 24 16.5zM14 13.293V8.5C14 8.224 14.225 8 14.5 8h2c1.379 0 2.5 1.122 2.5 2.5v3c0 1.314-1.022 2.383-2.312 2.481zM20.539 19.832l-3.006-3.006C18.956 16.382 20 15.067 20 13.5v-3C20 8.57 18.43 7 16.5 7h-2C13.673 7 13 7.673 13 8.5v3.793L9.438 8.731 9.143 7.85C9.035 7.523 8.804 7.267 8.496 7.13 8.268 7.028 8.019 7.026 7.778 7.071L4.707 4H19.5C21.43 4 23 5.57 23 7.5v9c0 1.541-1.005 2.879-2.461 3.332zM17 20.5c0 0.276-0.224 0.5-0.5 0.5h-12C2.019 21 0 18.981 0 16.5v-9c0-1.058 0.374-2.086 1.054-2.894 0.178-0.212 0.492-0.238 0.704-0.061C1.97 4.723 1.997 5.038 1.82 5.25 1.292 5.878 1.001 6.678 1.001 7.5v9c0 1.93 1.57 3.5 3.5 3.5h12c0.276 0 0.5 0.224 0.499 0.5zM6.975 10.658 5.861 14h4.279c-0.143-0.289-0.056-0.662 0.272-0.767 0.262-0.087 0.545 0.054 0.633 0.316l0.931 2.792c0.087 0.262-0.055 0.545-0.316 0.632-0.255 0.087-0.545-0.052-0.633-0.316l-0.553-1.658H5.527l-0.553 1.658c-0.088 0.264-0.378 0.403-0.633 0.316-0.262-0.087-0.403-0.37-0.316-0.632l2-6c0.089-0.262 0.373-0.401 0.633-0.316 0.262 0.087 0.403 0.37 0.317 0.633z" />
</svg>