<svg id="add_folder_Layer_1" viewBox="0 0 24 24" fill="currentColor" width="32" height="32" data-name="Layer 1" xmlns="http://www.w3.org/2000/svg" xmlns:xlink="http://www.w3.org/1999/xlink">
    <title>add-folder</title>
    <path d="M16 15c0 0.276-0.224 0.5-0.5 0.5h-3v3c0 0.276-0.224 0.5-0.5 0.5s-0.5-0.224-0.5-0.5v-3h-3C8.224 15.5 8 15.276 8 15s0.224-0.5 0.5-0.5h3v-3c0-0.276 0.224-0.5 0.5-0.5s0.5 0.224 0.5 0.5v3h3c0.276 0 0.5 0.224 0.5 0.5zM24 7.5v11c0 2.481-2.019 4.5-4.5 4.5h-15C2.019 23 0 20.981 0 18.5v-14C0 2.57 1.57 1 3.5 1h3.556c0.387 0 0.773 0.091 1.118 0.264l3.155 1.578C11.536 2.946 11.767 3 12 3h7.5C21.981 3 24 5.019 24 7.5zM1 4.5V7h21.949c-0.245-1.692-1.691-3-3.449-3H12c-0.387 0-0.773-0.091-1.118-0.264L7.727 2.158C7.52 2.054 7.289 2 7.056 2H3.5C2.121 2 1 3.122 1 4.5zM23 18.5V8H1v10.5C1 20.43 2.57 22 4.5 22h15c1.93 0 3.5-1.57 3.5-3.5z" />
</svg>