<svg id="add_image_Layer_1" viewBox="0 0 24 24" fill="currentColor" width="32" height="32" data-name="Layer 1" xmlns="http://www.w3.org/2000/svg" xmlns:xlink="http://www.w3.org/1999/xlink">
    <title>add-image</title>
    <path d="M13 20.5c0 0.276-0.224 0.5-0.5 0.5h-8C2.019 21 0 18.981 0 16.5v-12C0 2.019 2.019 0 4.5 0h12C18.981 0 21 2.019 21 4.5v8c0 0.276-0.224 0.5-0.5 0.5S20 12.776 20 12.5v-8C20 2.57 18.43 1 16.5 1h-12C2.57 1 1 2.57 1 4.5v8.336l3.811-3.811c1.322-1.322 3.628-1.322 4.95 0l7.094 7.122c0.195 0.195 0.194 0.512 0 0.707C16.757 16.951 16.629 17 16.502 17c-0.128 0-0.256-0.049-0.354-0.147L9.054 9.732c-0.943-0.943-2.591-0.944-3.535 0L1 14.25v2.25C1 18.43 2.57 20 4.5 20h8c0.276 0 0.5 0.224 0.5 0.5zM17 5.5C17 6.879 15.878 8 14.5 8S12 6.879 12 5.5 13.122 3 14.5 3 17 4.121 17 5.5zM16 5.5C16 4.673 15.327 4 14.5 4S13 4.673 13 5.5 13.673 7 14.5 7 16 6.327 16 5.5zM23.5 19H20v-3.5c0-0.276-0.224-0.5-0.5-0.5S19 15.224 19 15.5V19h-3.5c-0.276 0-0.5 0.224-0.5 0.5s0.224 0.5 0.5 0.5H19v3.5c0 0.276 0.224 0.5 0.5 0.5s0.5-0.224 0.5-0.5V20h3.5c0.276 0 0.5-0.224 0.5-0.5S23.776 19 23.5 19z" />
</svg>