<svg id="add_document_Layer_1" viewBox="0 0 24 24" fill="currentColor" width="32" height="32" data-name="Layer 1" xmlns="http://www.w3.org/2000/svg" xmlns:xlink="http://www.w3.org/1999/xlink">
    <title>add-document</title>
    <path d="M16 15c0 0.276-0.224 0.5-0.5 0.5h-3v3c0 0.276-0.224 0.5-0.5 0.5s-0.5-0.224-0.5-0.5v-3h-3C8.224 15.5 8 15.276 8 15s0.224-0.5 0.5-0.5h3v-3c0-0.276 0.224-0.5 0.5-0.5s0.5 0.224 0.5 0.5v3h3c0.276 0 0.5 0.224 0.5 0.5zM22 9.985V19.5c0 2.481-2.019 4.5-4.5 4.5h-11C4.019 24 2 21.981 2 19.5v-15C2 2.019 4.019 0 6.5 0h5.515c1.735 0 3.368 0.676 4.597 1.904l3.484 3.485C21.324 6.616 22 8.248 22 9.985zM15.904 2.61c-0.551-0.55-1.2-0.959-1.904-1.231v5.12c0 0.827 0.673 1.5 1.5 1.5h5.121c-0.273-0.704-0.682-1.354-1.232-1.904zM21 9.985C21 9.65 20.962 9.322 20.904 9H15.5C14.121 9 13 7.878 13 6.5V1.096C12.677 1.038 12.349 1 12.015 1H6.5C4.57 1 3 2.57 3 4.5v15C3 21.43 4.57 23 6.5 23h11c1.93 0 3.5-1.57 3.5-3.5z" />
</svg>