<svg id="add_Layer_1" viewBox="0 0 24 24" fill="currentColor" width="32" height="32" data-name="Layer 1" xmlns="http://www.w3.org/2000/svg" xmlns:xlink="http://www.w3.org/1999/xlink">
    <title>add</title>
    <path d="M12 0C5.383 0 0 5.383 0 12s5.383 12 12 12 12-5.383 12-12S18.617 0 12 0zM12 23C5.935 23 1 18.065 1 12S5.935 1 12 1 23 5.935 23 12 18.065 23 12 23zM17 12c0 0.276-0.224 0.5-0.5 0.5h-4v4c0 0.276-0.224 0.5-0.5 0.5s-0.5-0.224-0.5-0.5v-4h-4C7.224 12.5 7 12.276 7 12s0.224-0.5 0.5-0.5h4v-4C11.5 7.224 11.724 7 12 7s0.5 0.224 0.5 0.5v4h4c0.276 0 0.5 0.224 0.5 0.5z" />
</svg>