<svg id="address_book_Layer_1" viewBox="0 0 24 24" fill="currentColor" width="32" height="32" data-name="Layer 1" xmlns="http://www.w3.org/2000/svg" xmlns:xlink="http://www.w3.org/1999/xlink">
    <title>address-book</title>
    <path d="M18.5 0h-11C5.544 0 3.876 1.254 3.257 3H1.5C1.224 3 1 3.224 1 3.5S1.224 4 1.5 4h1.528C3.01 4.164 3 4.331 3 4.5V7H1.5C1.224 7 1 7.224 1 7.5S1.224 8 1.5 8H3v3.5H1.5C1.224 11.5 1 11.724 1 12s0.224 0.5 0.5 0.5H3V16H1.5C1.224 16 1 16.224 1 16.5S1.224 17 1.5 17H3v2.5c0 0.169 0.01 0.336 0.028 0.5H1.5C1.224 20 1 20.224 1 20.5S1.224 21 1.5 21h1.757c0.619 1.746 2.287 3 4.243 3h11c2.481 0 4.5-2.019 4.5-4.5v-15C23 2.019 20.981 0 18.5 0zM22 19.5c0 1.93-1.57 3.5-3.5 3.5h-11C5.57 23 4 21.43 4 19.5v-15C4 2.57 5.57 1 7.5 1h11C20.43 1 22 2.57 22 4.5zM13 12c1.654 0 3-1.346 3-3s-1.346-3-3-3-3 1.346-3 3 1.346 3 3 3zM13 7c1.103 0 2 0.897 2 2s-0.897 2-2 2-2-0.897-2-2 0.897-2 2-2zM18 18v0.5c0 0.276-0.224 0.5-0.5 0.5S17 18.776 17 18.5V18c0-2.206-1.794-4-4-4s-4 1.794-4 4v0.5C9 18.776 8.776 19 8.5 19S8 18.776 8 18.5V18c0-2.757 2.243-5 5-5s5 2.243 5 5z" />
</svg>