<svg id="address_card_Layer_1" viewBox="0 0 24 24" fill="currentColor" width="32" height="32" data-name="Layer 1" xmlns="http://www.w3.org/2000/svg" xmlns:xlink="http://www.w3.org/1999/xlink">
    <title>address-card</title>
    <path d="M24 3.5v17c0 1.93-1.57 3.5-3.5 3.5h-4c-0.276 0-0.5-0.224-0.5-0.5s0.224-0.5 0.5-0.5h4c1.378 0 2.5-1.122 2.5-2.5v-17C23 2.122 21.878 1 20.5 1h-4C16.224 1 16 0.776 16 0.5S16.224 0 16.5 0h4C22.43 0 24 1.57 24 3.5zM18.075 14.39l-6.152 5.899c-0.43 0.463-1.007 0.712-1.606 0.712-0.271 0-0.545-0.05-0.812-0.155-0.91-0.356-1.501-1.249-1.504-2.275v-2.57H2.5c-1.378 0-2.5-1.122-2.5-2.5v-3c0-1.378 1.122-2.5 2.5-2.5H8v-2.57c5e-3-1.028 0.596-1.92 1.506-2.276 0.86-0.333 1.793-0.114 2.437 0.577l6.112 5.857c1.246 1.338 1.246 3.483 0.02 4.801zM17.343 10.289 11.231 4.432c-0.384-0.411-0.884-0.534-1.361-0.347C9.452 4.249 9.003 4.688 9 5.432V8.5C9 8.776 8.776 9 8.5 9h-6C1.673 9 1 9.673 1 10.5v3C1 14.327 1.673 15 2.5 15h6C8.776 15 9 15.224 9 15.5v3.069c2e-3 0.742 0.451 1.182 0.869 1.346 0.476 0.186 0.978 0.063 1.341-0.327l6.152-5.899c0.857-0.923 0.858-2.458-0.019-3.4z" />
</svg>