<svg id="admin_Layer_1" viewBox="0 0 24 24" fill="currentColor" width="32" height="32" data-name="Layer 1" xmlns="http://www.w3.org/2000/svg" xmlns:xlink="http://www.w3.org/1999/xlink">
    <title>admin</title>
    <path d="M17 11c0-2.757-2.243-5-5-5s-5 2.243-5 5 2.243 5 5 5 5-2.243 5-5zM8 11c0-2.206 1.794-4 4-4s4 1.794 4 4-1.794 4-4 4-4-1.794-4-4zM21.538 15.397c0.121 0.52 0.03 1.055-0.256 1.505-0.298 0.469-0.736 0.776-1.249 0.891-0.144 0.032-0.288 0.047-0.432 0.047-0.37 0-0.732-0.104-1.053-0.308l-0.99-0.629c-0.232-0.148-0.302-0.457-0.153-0.69 0.147-0.232 0.455-0.301 0.69-0.154l0.99 0.629c0.219 0.139 0.478 0.185 0.729 0.128 0.253-0.056 0.469-0.208 0.607-0.426 0.156-0.247 0.201-0.51 0.142-0.766-0.061-0.256-0.217-0.472-0.441-0.608l-0.554-0.335c-0.212-0.128-0.298-0.393-0.202-0.622 0.42-0.999 0.633-2.029 0.633-3.061s-0.211-2.055-0.627-3.051c-0.095-0.227-0.01-0.49 0.2-0.619l0.56-0.343c0.224-0.137 0.378-0.352 0.438-0.607 0.059-0.255 0.014-0.517-0.127-0.737-0.308-0.485-0.906-0.619-1.357-0.332L18.518 5.67c-0.204 0.129-0.472 0.095-0.636-0.083-1.193-1.294-2.739-2.141-4.47-2.45C13.174 3.095 13 2.887 13 2.645V1.966c0-0.534-0.435-0.969-0.969-0.969C11.434 0.997 11 1.432 11 1.966v0.679c0 0.242-0.174 0.45-0.412 0.492-1.73 0.309-3.276 1.156-4.47 2.45C5.954 5.765 5.687 5.799 5.482 5.67L4.93 5.319c-0.222-0.141-0.484-0.187-0.744-0.13C3.928 5.246 3.708 5.4 3.567 5.623 3.423 5.849 3.378 6.116 3.438 6.376s0.219 0.48 0.446 0.62l0.542 0.333c0.21 0.129 0.295 0.392 0.199 0.619-0.415 0.996-0.626 2.023-0.626 3.051s0.213 2.062 0.633 3.061c0.096 0.229 0.01 0.493-0.202 0.622l-0.554 0.335c-0.225 0.136-0.381 0.352-0.441 0.608s-0.015 0.519 0.126 0.74c0.141 0.222 0.36 0.374 0.617 0.428 0.255 0.054 0.518 5e-3 0.735-0.141l0.945-0.628c0.227-0.153 0.54-0.091 0.692 0.14 0.153 0.23 0.091 0.541-0.14 0.693l-0.944 0.627c-0.443 0.296-0.975 0.396-1.497 0.287-0.521-0.111-0.967-0.419-1.253-0.87-0.286-0.45-0.377-0.985-0.256-1.505 0.122-0.52 0.44-0.959 0.897-1.235l0.192-0.117c-0.366-0.996-0.552-2.019-0.552-3.045s0.184-2.043 0.547-3.036L3.358 7.849C2.9 7.568 2.582 7.125 2.461 6.601 2.34 6.078 2.433 5.54 2.721 5.087 3.005 4.639 3.448 4.329 3.966 4.213 4.485 4.098 5.015 4.191 5.465 4.476l0.208 0.132c1.188-1.172 2.698-2 4.324-2.371v-0.27c0-1.085 0.883-1.969 1.969-1.969 1.148 0 2.031 0.883 2.031 1.969v0.27c1.626 0.371 3.136 1.199 4.325 2.371l0.224-0.143c0.444-0.282 0.971-0.374 1.484-0.261 0.513 0.114 0.951 0.422 1.233 0.865 0.306 0.482 0.397 1.015 0.277 1.533-0.119 0.518-0.435 0.957-0.888 1.234l-0.203 0.125c0.363 0.993 0.547 2.013 0.547 3.036s-0.186 2.049-0.552 3.045l0.192 0.117c0.457 0.276 0.775 0.715 0.902 1.238zM18.985 23.381c0.065 0.268-0.099 0.539-0.367 0.604-0.04 0.01-0.079 0.014-0.118 0.014-0.226 0-0.431-0.153-0.485-0.382-0.662-2.719-3.136-4.618-6.015-4.618s-5.353 1.899-6.015 4.618c-0.063 0.268-0.331 0.434-0.604 0.368-0.269-0.065-0.433-0.336-0.367-0.604 0.771-3.169 3.644-5.382 6.985-5.382s6.215 2.213 6.986 5.382z" />
</svg>