<svg id="admin_alt_Layer_1" viewBox="0 0 24 24" fill="currentColor" width="32" height="32" data-name="Layer 1" xmlns="http://www.w3.org/2000/svg" xmlns:xlink="http://www.w3.org/1999/xlink">
    <title>admin-alt</title>
    <path d="M8 12c3.309 0 6-2.691 6-6s-2.691-6-6-6-6 2.691-6 6 2.691 6 6 6zM8 1c2.757 0 5 2.243 5 5s-2.243 5-5 5-5-2.243-5-5 2.243-5 5-5zM9 14.5C9 14.776 8.776 15 8.5 15 4.364 15 1 18.364 1 22.5v1C1 23.776 0.776 24 0.5 24S0 23.776 0 23.5v-1C0 17.813 3.813 14 8.5 14 8.776 14 9 14.224 9 14.5zM17 15c-1.103 0-2 0.897-2 2s0.897 2 2 2 2-0.897 2-2-0.897-2-2-2zM17 18c-0.551 0-1-0.449-1-1s0.449-1 1-1 1 0.449 1 1-0.449 1-1 1zM22.506 18.478 21.86 18.101c0.094-0.385 0.14-0.747 0.14-1.1s-0.046-0.715-0.14-1.101l0.646-0.377c0.346-0.202 0.593-0.527 0.695-0.915s0.046-0.792-0.156-1.137c-0.202-0.346-0.526-0.593-0.914-0.695-0.389-0.102-0.792-0.047-1.138 0.155l-0.641 0.374c-0.537-0.488-1.167-0.852-1.853-1.068v-0.738c0-0.827-0.673-1.5-1.5-1.5s-1.5 0.673-1.5 1.5v0.738c-0.687 0.216-1.316 0.58-1.853 1.068l-0.641-0.374c-0.346-0.202-0.75-0.257-1.138-0.155-0.387 0.102-0.712 0.349-0.914 0.694-0.202 0.346-0.257 0.75-0.156 1.137s0.349 0.713 0.695 0.915l0.646 0.377c-0.094 0.385-0.14 0.748-0.14 1.101s0.046 0.715 0.14 1.1l-0.646 0.377c-0.346 0.202-0.593 0.527-0.695 0.915s-0.046 0.792 0.156 1.137c0.202 0.346 0.526 0.593 0.914 0.695s0.792 0.047 1.137-0.156l0.641-0.374c0.537 0.489 1.167 0.852 1.853 1.068V22.5c0 0.827 0.673 1.5 1.5 1.5s1.5-0.673 1.5-1.5v-0.738c0.687-0.217 1.316-0.58 1.853-1.068l0.64 0.374c0.346 0.203 0.75 0.257 1.138 0.156 0.388-0.102 0.712-0.349 0.914-0.694 0.202-0.346 0.257-0.75 0.156-1.137s-0.349-0.713-0.693-0.915zM22.182 20.025c-0.067 0.115-0.176 0.198-0.305 0.231-0.129 0.034-0.264 0.015-0.379-0.052l-0.971-0.567c-0.201-0.118-0.457-0.081-0.617 0.09-0.549 0.586-1.249 0.989-2.021 1.165-0.228 0.052-0.389 0.254-0.389 0.487v1.12c0 0.276-0.224 0.5-0.5 0.5s-0.5-0.224-0.5-0.5v-1.12c0-0.233-0.161-0.436-0.389-0.487-0.773-0.176-1.472-0.579-2.021-1.165-0.097-0.104-0.23-0.158-0.365-0.158-0.086 0-0.173 0.022-0.252 0.068l-0.971 0.567c-0.115 0.067-0.25 0.086-0.379 0.052s-0.237-0.116-0.305-0.232c-0.067-0.115-0.086-0.25-0.052-0.378 0.034-0.129 0.116-0.238 0.231-0.305l0.979-0.572c0.202-0.118 0.295-0.359 0.225-0.582-0.138-0.439-0.202-0.817-0.202-1.188s0.064-0.748 0.202-1.188c0.07-0.223-0.023-0.464-0.225-0.581l-0.979-0.571c-0.115-0.067-0.198-0.176-0.231-0.305-0.034-0.129-0.016-0.263 0.052-0.379 0.067-0.115 0.176-0.198 0.305-0.231 0.128-0.035 0.263-0.017 0.379 0.051l0.971 0.567c0.201 0.117 0.458 0.081 0.617-0.089 0.549-0.586 1.249-0.989 2.021-1.165 0.228-0.052 0.389-0.254 0.389-0.487v-1.12c0-0.276 0.224-0.5 0.5-0.5s0.5 0.224 0.5 0.5v1.12c0 0.233 0.161 0.436 0.389 0.487 0.773 0.176 1.472 0.579 2.021 1.165 0.16 0.17 0.416 0.207 0.617 0.089l0.971-0.567c0.115-0.068 0.25-0.086 0.379-0.051 0.129 0.034 0.237 0.116 0.305 0.232 0.067 0.115 0.086 0.25 0.052 0.378-0.034 0.129-0.116 0.238-0.231 0.305l-0.979 0.571c-0.202 0.117-0.295 0.358-0.225 0.581 0.138 0.44 0.202 0.818 0.202 1.188s-0.064 0.748-0.202 1.188c-0.07 0.223 0.023 0.464 0.225 0.582l0.979 0.572c0.115 0.067 0.198 0.176 0.231 0.305 0.034 0.129 0.016 0.263-0.052 0.379z" />
</svg>