<svg id="age_alt_Layer_1" viewBox="0 0 24 24" fill="currentColor" width="32" height="32" data-name="Layer 1" xmlns="http://www.w3.org/2000/svg" xmlns:xlink="http://www.w3.org/1999/xlink">
    <title>age-alt</title>
    <path d="M4.5 6C3.122 6 2 7.122 2 8.5S3.122 11 4.5 11 7 9.878 7 8.5 5.878 6 4.5 6zM4.5 10C3.673 10 3 9.327 3 8.5S3.673 7 4.5 7 6 7.673 6 8.5 5.327 10 4.5 10zM6 19.5C6 19.776 5.776 20 5.5 20h-2c-0.171 0-0.335-0.027-0.5-0.051V23.5C3 23.776 2.776 24 2.5 24S2 23.776 2 23.5v-3.851c-1.178-0.564-2-1.758-2-3.149v-1C0 13.57 1.57 12 3.5 12h1C4.776 12 5 12.224 5 12.5S4.776 13 4.5 13h-1C2.122 13 1 14.122 1 15.5v1C1 17.878 2.122 19 3.5 19h2C5.776 19 6 19.224 6 19.5zM11.5 3C10.122 3 9 4.122 9 5.5S10.122 8 11.5 8 14 6.878 14 5.5 12.878 3 11.5 3zM11.5 7C10.673 7 10 6.327 10 5.5S10.673 4 11.5 4 13 4.673 13 5.5 12.327 7 11.5 7zM13 18.5c0 0.276-0.224 0.5-0.5 0.5h-2c-0.171 0-0.335-0.027-0.5-0.051V23.5c0 0.276-0.224 0.5-0.5 0.5S9 23.776 9 23.5v-4.851c-1.178-0.564-2-1.758-2-3.149v-3C7 10.57 8.57 9 10.5 9h1C11.776 9 12 9.224 12 9.5S11.776 10 11.5 10h-1C9.122 10 8 11.122 8 12.5v3c0 1.378 1.122 2.5 2.5 2.5h2c0.276 0 0.5 0.224 0.5 0.5zM18.5 5C19.878 5 21 3.878 21 2.5S19.878 0 18.5 0 16 1.122 16 2.5 17.122 5 18.5 5zM18.5 1C19.327 1 20 1.673 20 2.5S19.327 4 18.5 4 17 3.327 17 2.5 17.673 1 18.5 1zM19.5 6h-2C15.57 6 14 7.57 14 9.5v5c0 1.391 0.822 2.585 2 3.149V23.5c0 0.276 0.224 0.5 0.5 0.5s0.5-0.224 0.5-0.5v-5.551C17.165 17.973 17.329 18 17.5 18h2c0.171 0 0.335-0.027 0.5-0.051V23.5c0 0.276 0.224 0.5 0.5 0.5s0.5-0.224 0.5-0.5v-5.851c1.178-0.564 2-1.758 2-3.149v-5C23 7.57 21.43 6 19.5 6zM22 14.5c0 1.378-1.122 2.5-2.5 2.5h-2c-1.378 0-2.5-1.122-2.5-2.5v-5C15 8.122 16.122 7 17.5 7h2C20.878 7 22 8.122 22 9.5z" />
</svg>