<svg id="age_restriction_zero_Layer_1" viewBox="0 0 24 24" fill="currentColor" width="32" height="32" data-name="Layer 1" xmlns="http://www.w3.org/2000/svg" xmlns:xlink="http://www.w3.org/1999/xlink">
    <title>age-restriction-zero</title>
    <path d="M20 12c0 0.276-0.224 0.5-0.5 0.5h-2v2c0 0.276-0.224 0.5-0.5 0.5s-0.5-0.224-0.5-0.5v-2h-2c-0.276 0-0.5-0.224-0.5-0.5s0.224-0.5 0.5-0.5h2v-2C16.5 9.224 16.724 9 17 9s0.5 0.224 0.5 0.5v2h2c0.276 0 0.5 0.224 0.5 0.5zM24 12c0 6.617-5.383 12-12 12S0 18.617 0 12 5.383 0 12 0 24 5.383 24 12zM23 12c0-6.065-4.935-11-11-11S1 5.935 1 12 5.935 23 12 23s11-4.935 11-11zM12 10.5v3c0 1.93-1.57 3.5-3.5 3.5S5 15.43 5 13.5v-3C5 8.57 6.57 7 8.5 7S12 8.57 12 10.5zM11 10.5C11 9.122 9.879 8 8.5 8S6 9.122 6 10.5v3C6 14.878 7.121 16 8.5 16s2.5-1.122 2.5-2.5z" />
</svg>