<svg id="age_restriction_three_Layer_1" viewBox="0 0 24 24" fill="currentColor" width="32" height="32" data-name="Layer 1" xmlns="http://www.w3.org/2000/svg" xmlns:xlink="http://www.w3.org/1999/xlink">
    <title>age-restriction-three</title>
    <path d="M12 0C5.383 0 0 5.383 0 12s5.383 12 12 12 12-5.383 12-12S18.617 0 12 0zM12 23C5.935 23 1 18.065 1 12S5.935 1 12 1 23 5.935 23 12 18.065 23 12 23zM19 12c0 0.276-0.224 0.5-0.5 0.5h-2v2c0 0.276-0.224 0.5-0.5 0.5s-0.5-0.224-0.5-0.5v-2h-2c-0.276 0-0.5-0.224-0.5-0.5s0.224-0.5 0.5-0.5h2v-2C15.5 9.224 15.724 9 16 9s0.5 0.224 0.5 0.5v2h2c0.276 0 0.5 0.224 0.5 0.5zM12 14c0 1.654-1.346 3-3 3H6.5C6.224 17 6 16.776 6 16.5S6.224 16 6.5 16H9c1.103 0 2-0.897 2-2s-0.897-2-2-2H7.5C7.224 12 7 11.776 7 11.5S7.224 11 7.5 11H9c0.827 0 1.5-0.673 1.5-1.5S9.827 8 9 8H6.5C6.224 8 6 7.776 6 7.5S6.224 7 6.5 7H9c1.379 0 2.5 1.122 2.5 2.5 0 0.79-0.375 1.487-0.949 1.945C11.416 11.972 12 12.915 12 14z" />
</svg>