<svg id="age_restriction_seven_Layer_1" viewBox="0 0 24 24" fill="currentColor" width="32" height="32" data-name="Layer 1" xmlns="http://www.w3.org/2000/svg" xmlns:xlink="http://www.w3.org/1999/xlink">
    <title>age-restriction-seven</title>
    <path d="M19 12c0 0.276-0.224 0.5-0.5 0.5h-2v2c0 0.276-0.224 0.5-0.5 0.5s-0.5-0.224-0.5-0.5v-2h-2c-0.276 0-0.5-0.224-0.5-0.5s0.224-0.5 0.5-0.5h2v-2C15.5 9.224 15.724 9 16 9s0.5 0.224 0.5 0.5v2h2c0.276 0 0.5 0.224 0.5 0.5zM10.5 7h-5C5.224 7 5 7.224 5 7.5S5.224 8 5.5 8h5c0.235 0 0.357 0.155 0.398 0.223 0.041 0.066 0.126 0.244 0.047 0.409l-4.866 7.599c-0.149 0.232-0.081 0.542 0.151 0.69C6.313 16.975 6.407 17 6.499 17c0.165 0 0.326-0.081 0.421-0.23l4.893-7.645c0.229-0.458 0.205-0.992-0.064-1.429C11.479 7.26 11.013 7 10.5 7zM24 12c0 6.617-5.383 12-12 12S0 18.617 0 12 5.383 0 12 0 24 5.383 24 12zM23 12c0-6.065-4.935-11-11-11S1 5.935 1 12 5.935 23 12 23s11-4.935 11-11z" />
</svg>