<svg id="age_restriction_eighteen_Layer_1" viewBox="0 0 24 24" fill="currentColor" width="32" height="32" data-name="Layer 1" xmlns="http://www.w3.org/2000/svg" xmlns:xlink="http://www.w3.org/1999/xlink">
    <title>age-restriction-eighteen</title>
    <path d="M21 12c0 0.276-0.224 0.5-0.5 0.5h-2v2c0 0.276-0.224 0.5-0.5 0.5s-0.5-0.224-0.5-0.5v-2h-2c-0.276 0-0.5-0.224-0.5-0.5s0.224-0.5 0.5-0.5h2v-2C17.5 9.224 17.724 9 18 9s0.5 0.224 0.5 0.5v2h2c0.276 0 0.5 0.224 0.5 0.5zM14 14c0 1.654-1.346 3-3 3s-3-1.346-3-3c0-1.085 0.584-2.028 1.449-2.555C8.875 10.987 8.5 10.29 8.5 9.5 8.5 8.121 9.622 7 11 7s2.5 1.121 2.5 2.5c0 0.79-0.375 1.487-0.949 1.945C13.416 11.972 14 12.915 14 14zM11 11c0.827 0 1.5-0.673 1.5-1.5S11.827 8 11 8 9.5 8.673 9.5 9.5 10.173 11 11 11zM13 14c0-1.103-0.897-2-2-2s-2 0.897-2 2 0.897 2 2 2 2-0.897 2-2zM24 12c0 6.617-5.383 12-12 12S0 18.617 0 12 5.383 0 12 0 24 5.383 24 12zM23 12c0-6.065-4.935-11-11-11S1 5.935 1 12 5.935 23 12 23s11-4.935 11-11zM5.487 7.056C5.175 6.936 4.828 7.014 4.6 7.262L2.868 9.163C2.682 9.367 2.697 9.684 2.901 9.87c0.205 0.186 0.521 0.172 0.707-0.033l1.393-1.529V16.5c0 0.276 0.224 0.5 0.5 0.5s0.5-0.224 0.5-0.5V7.807c0-0.334-0.201-0.629-0.514-0.751z" />
</svg>