<svg id="ai_algorithm_Layer_1" viewBox="0 0 24 24" fill="currentColor" width="32" height="32" data-name="Layer 1" xmlns="http://www.w3.org/2000/svg" xmlns:xlink="http://www.w3.org/1999/xlink">
    <title>ai-algorithm</title>
    <path d="M21.5 18H21v-0.5c0-1.93-1.57-3.5-3.5-3.5h-5v-2h3c1.378 0 2.5-1.122 2.5-2.5v-7C18 1.122 16.878 0 15.5 0h-7C7.122 0 6 1.122 6 2.5v7C6 10.878 7.122 12 8.5 12h3v2h-5C4.57 14 3 15.57 3 17.5V18H2.5C1.122 18 0 19.122 0 20.5v1C0 22.878 1.122 24 2.5 24h2C5.878 24 7 22.878 7 21.5v-1C7 19.122 5.878 18 4.5 18H4v-0.5C4 16.122 5.122 15 6.5 15h5v3H11c-1.378 0-2.5 1.122-2.5 2.5v1c0 1.378 1.122 2.5 2.5 2.5h2c1.378 0 2.5-1.122 2.5-2.5v-1c0-1.378-1.122-2.5-2.5-2.5h-0.5v-3h5c1.378 0 2.5 1.122 2.5 2.5V18h-0.5c-1.378 0-2.5 1.122-2.5 2.5v1c0 1.378 1.122 2.5 2.5 2.5h2c1.378 0 2.5-1.122 2.5-2.5v-1c0-1.378-1.122-2.5-2.5-2.5zM7 9.5v-7C7 1.673 7.673 1 8.5 1h7C16.327 1 17 1.673 17 2.5v7c0 0.827-0.673 1.5-1.5 1.5h-7C7.673 11 7 10.327 7 9.5zM6 20.5v1C6 22.327 5.327 23 4.5 23h-2C1.673 23 1 22.327 1 21.5v-1C1 19.673 1.673 19 2.5 19h2C5.327 19 6 19.673 6 20.5zM14.5 20.5v1c0 0.827-0.673 1.5-1.5 1.5h-2c-0.827 0-1.5-0.673-1.5-1.5v-1c0-0.827 0.673-1.5 1.5-1.5h2c0.827 0 1.5 0.673 1.5 1.5zM23 21.5c0 0.827-0.673 1.5-1.5 1.5h-2c-0.827 0-1.5-0.673-1.5-1.5v-1c0-0.827 0.673-1.5 1.5-1.5h2c0.827 0 1.5 0.673 1.5 1.5zM14 8.5v-5C14 3.224 14.224 3 14.5 3S15 3.224 15 3.5v5C15 8.776 14.776 9 14.5 9S14 8.776 14 8.5zM12.323 9c0.336 0 0.577-0.325 0.478-0.647l-1.518-4.932C11.206 3.171 10.975 3 10.713 3c-0.26 0-0.491 0.169-0.569 0.417L8.592 8.349c-0.101 0.322 0.139 0.65 0.477 0.65 0.218 0 0.411-0.142 0.477-0.35l0.205-0.65h1.896l0.199 0.647c0.065 0.21 0.258 0.353 0.477 0.354zM10.065 7l0.644-2.045L11.339 7z" />
</svg>