<svg id="ai_technology_Layer_1" viewBox="0 0 24 24" fill="currentColor" width="32" height="32" data-name="Layer 1" xmlns="http://www.w3.org/2000/svg" xmlns:xlink="http://www.w3.org/1999/xlink">
    <title>ai-technology</title>
    <path d="M10.708 10.955 11.338 13h-1.274zM22.597 18.61c-0.596 0.902-1.746 1.369-3.353 1.369-0.293 0-0.602-0.016-0.924-0.047-0.275-0.026-0.477-0.271-0.45-0.545 0.027-0.276 0.275-0.475 0.546-0.45 1.684 0.163 2.866-0.15 3.347-0.878 0.257-0.39 0.318-0.904 0.182-1.529-0.392-1.795-2.301-4.138-5.002-6.266 0.576 4.531-0.944 13.737-4.944 13.737-1.101 0-2.128-0.779-2.971-2.251-0.138-0.24-0.055-0.545 0.186-0.683 0.236-0.138 0.544-0.055 0.682 0.186 0.457 0.798 1.192 1.749 2.104 1.749 1.491 0 3.113-2.815 3.734-7.18-3.01 2.159-7.911 4.236-10.974 4.179-1.311 0.025-2.821-0.387-3.42-1.489-0.638-1.108-0.383-2.635 0.735-4.417 0.149-0.234 0.46-0.301 0.689-0.157 0.234 0.147 0.305 0.456 0.158 0.689-0.897 1.427-1.151 2.629-0.716 3.385 0.232 0.405 0.665 0.69 1.284 0.848 1.69 0.433 4.441-0.144 7.382-1.455-0.609-0.331-1.291-0.713-1.763-1.006-4.307-2.682-7.461-6.102-8.032-8.715-0.196-0.898-0.087-1.67 0.325-2.293 0.722-1.09 2.246-1.542 4.405-1.309 0.274 0.03 0.473 0.276 0.443 0.551-0.029 0.275-0.277 0.475-0.551 0.443-1.739-0.189-2.97 0.12-3.464 0.867-0.257 0.389-0.318 0.903-0.182 1.528 0.392 1.795 2.3 4.138 5.002 6.266C6.481 9.204 8.417-0.336 12 0c1.1 0 2.127 0.778 2.969 2.25 0 0 0 0 1e-3 1e-3 0.366 0.638 0.688 1.401 0.967 2.261 2.684-0.628 5.249-1.086 6.722 0.977 0.651 1.133 0.373 2.698-0.806 4.525-0.15 0.234-0.463 0.297-0.69 0.149-0.232-0.15-0.3-0.459-0.149-0.691 0.948-1.471 1.225-2.708 0.778-3.485-0.232-0.404-0.665-0.689-1.284-0.848-1.689-0.429-4.434 0.143-7.37 1.45 0.59 0.324 1.256 0.704 1.751 1.011 4.31 2.681 7.463 6.102 8.034 8.714 0.196 0.898 0.087 1.67-0.326 2.296zM8.266 8.18c0.366-0.246 0.721-0.502 1.099-0.733 1.903-1.165 3.824-2.047 5.61-2.635-0.256-0.784-0.544-1.489-0.872-2.062 0 0 0 0 0-1e-3-0.645-1.127-1.391-1.747-2.102-1.747-1.491 0-3.113 2.815-3.735 7.178zM12.801 14.353 11.283 9.421C11.206 9.171 10.975 9 10.713 9c-0.26 0-0.491 0.169-0.569 0.417L8.592 14.35C8.491 14.672 8.731 15 9.069 15c0.218 0 0.411-0.142 0.477-0.35L9.751 14h1.896l0.199 0.647C11.911 14.857 12.104 15 12.324 15c0.336 0 0.577-0.325 0.477-0.647zM15 9.5C15 9.224 14.776 9 14.5 9S14 9.224 14 9.5v5c0 0.276 0.224 0.5 0.5 0.5s0.5-0.224 0.5-0.5z" />
</svg>