<svg id="air_conditioner_Layer_1" viewBox="0 0 24 24" fill="currentColor" width="32" height="32" data-name="Layer 1" xmlns="http://www.w3.org/2000/svg" xmlns:xlink="http://www.w3.org/1999/xlink">
    <title>air-conditioner</title>
    <path d="M19.5 0h-15C2.019 0 0 2.019 0 4.5v2C0 8.981 2.019 11 4.5 11h15c2.481 0 4.5-2.019 4.5-4.5v-2C24 2.019 21.981 0 19.5 0zM23 6.5c0 1.93-1.57 3.5-3.5 3.5h-15C2.57 10 1 8.43 1 6.5v-2C1 2.57 2.57 1 4.5 1h15C21.43 1 23 2.57 23 4.5zM20 6.5C20 6.776 19.776 7 19.5 7h-15C4.224 7 4 6.776 4 6.5S4.224 6 4.5 6h15C19.776 6 20 6.224 20 6.5zM12.5 13.5v10c0 0.276-0.224 0.5-0.5 0.5s-0.5-0.224-0.5-0.5v-10c0-0.276 0.224-0.5 0.5-0.5s0.5 0.224 0.5 0.5zM7 13.497l1 7e-3c0 0-0.038 5.341-0.038 6.997 0 1.93-1.57 3.5-3.5 3.5s-3.5-1.57-3.5-3.5c0-1.534 0.981-2.994 2.334-3.472 0.257-0.091 0.546 0.044 0.638 0.305 0.092 0.26-0.045 0.546-0.306 0.638-0.949 0.335-1.666 1.422-1.666 2.528 0 1.378 1.121 2.5 2.5 2.5s2.5-1.122 2.5-2.5C6.962 18.842 7 13.497 7 13.497zM23 20.5c0 1.93-1.57 3.5-3.5 3.5S16 22.43 16 20.5v-7c0-0.276 0.224-0.5 0.5-0.5s0.5 0.224 0.5 0.5v7c0 1.378 1.121 2.5 2.5 2.5s2.5-1.122 2.5-2.5c0-1.106-0.717-2.193-1.667-2.528-0.26-0.092-0.396-0.378-0.305-0.638 0.093-0.26 0.378-0.394 0.639-0.305C22.019 17.507 23 18.967 23 20.5z" />
</svg>