<svg id="air_freshener_Layer_1" viewBox="0 0 24 24" fill="currentColor" width="32" height="32" data-name="Layer 1" xmlns="http://www.w3.org/2000/svg" xmlns:xlink="http://www.w3.org/1999/xlink">
    <title>air-freshener</title>
    <path d="M11 7.173V5h2.5C13.776 5 14 4.776 14 4.5S13.776 4 13.5 4H11V3.5C11 1.57 9.43 0 7.5 0S4 1.57 4 3.5v3.673C1.629 8.285 0 10.838 0 13.5v6C0 21.981 2.019 24 4.5 24h6c2.481 0 4.5-2.019 4.5-4.5v-6c0-2.662-1.629-5.215-4-6.327zM5 3.5C5 2.122 6.122 1 7.5 1S10 2.122 10 3.5V7H5zM14 19.5c0 1.93-1.57 3.5-3.5 3.5h-6C2.57 23 1 21.43 1 19.5v-6C1 11.189 2.508 8.892 4.6 8h5.801c2.091 0.892 3.6 3.189 3.6 5.5zM9.5 14h-4C4.122 14 3 15.122 3 16.5S4.122 19 5.5 19h4c1.378 0 2.5-1.122 2.5-2.5S10.878 14 9.5 14zM9.5 18h-4C4.673 18 4 17.327 4 16.5S4.673 15 5.5 15h4c0.827 0 1.5 0.673 1.5 1.5S10.327 18 9.5 18zM18 5c0 0.552-0.448 1-1 1s-1-0.448-1-1 0.448-1 1-1 1 0.448 1 1zM24 5c0 0.552-0.448 1-1 1s-1-0.448-1-1 0.448-1 1-1 1 0.448 1 1zM22 1c0-0.552 0.448-1 1-1s1 0.448 1 1-0.448 1-1 1-1-0.448-1-1zM24 9c0 0.552-0.448 1-1 1s-1-0.448-1-1 0.448-1 1-1 1 0.448 1 1zM21 3c0 0.552-0.448 1-1 1s-1-0.448-1-1 0.448-1 1-1 1 0.448 1 1zM21 7c0 0.552-0.448 1-1 1s-1-0.448-1-1 0.448-1 1-1 1 0.448 1 1z" />
</svg>