<svg id="airplane_window_open_Layer_1" viewBox="0 0 24 24" fill="currentColor" width="32" height="32" data-name="Layer 1" xmlns="http://www.w3.org/2000/svg" xmlns:xlink="http://www.w3.org/1999/xlink">
    <title>airplane-window-open</title>
    <path d="M11.383 0.021C6.605 0.341 3 4.526 3 9.315v5.046c0 5.611 4.029 9.64 9 9.64v0c4.971 0 9-4.029 9-9v-6c0-5.168-4.377-9.332-9.617-8.98zM12 1c3.35 0 6.221 2.072 7.411 5H4.589C5.779 3.072 8.65 1 12 1zM19.904 16.173C19.593 17.229 18.553 18 17.341 18h-5.759c-0.759 0-1.41-0.496-1.549-1.18-0.166-0.812 0.3-1.425 0.836-1.672 0.514-0.238 0.798-0.779 0.69-1.317-0.138-0.687-0.035-1.344 0.313-2.007 0.53-1.009 1.5-1.701 2.533-1.807C14.518 10.005 14.63 10 14.741 10c1.435 0 2.716 0.945 3.119 2.35 0.115 0.4 0.402 0.744 0.787 0.942 0.823 0.425 1.313 1.263 1.33 2.171-0.014 0.239-0.038 0.475-0.073 0.71zM20 13.072c-0.258-0.263-0.555-0.492-0.895-0.667-0.139-0.072-0.246-0.195-0.284-0.329-0.568-1.979-2.472-3.271-4.518-3.052-1.361 0.139-2.632 1.034-3.316 2.336-0.454 0.862-0.591 1.76-0.409 2.668 0.021 0.104-0.054 0.178-0.129 0.213-1.056 0.487-1.63 1.63-1.396 2.779C9.286 18.167 10.35 19 11.582 19h5.759c0.667 0 1.291-0.181 1.834-0.484C17.87 21.167 15.149 23 12 23c-4.411 0-8-3.589-8-8V9c0-0.692 0.097-1.359 0.263-2h15.473c0.166 0.641 0.263 1.308 0.263 2z" />
</svg>