<svg id="airplane_mode_off_Layer_1" viewBox="0 0 24 24" fill="currentColor" width="32" height="32" data-name="Layer 1" xmlns="http://www.w3.org/2000/svg" xmlns:xlink="http://www.w3.org/1999/xlink">
    <title>airplane-mode-off</title>
    <path d="M20.354 4.354 18.708 6l1.646 1.646c0.195 0.195 0.195 0.512 0 0.707s-0.512 0.195-0.707 0l-1.646-1.646-1.646 1.646c-0.195 0.195-0.512 0.195-0.707 0s-0.195-0.512 0-0.707L17.294 6 15.648 4.354c-0.195-0.195-0.195-0.512 0-0.707s0.512-0.195 0.707 0l1.646 1.646 1.646-1.646c0.195-0.195 0.512-0.195 0.707 0s0.195 0.512 0 0.707zM16 14v5.5c0 2.481-2.019 4.5-4.5 4.5h-7C2.019 24 0 21.981 0 19.5v-15C0 2.019 2.019 0 4.5 0h7C11.776 0 12 0.224 12 0.5S11.776 1 11.5 1h-7C2.57 1 1 2.57 1 4.5V17h14v-3c0-0.276 0.224-0.5 0.5-0.5S16 13.724 16 14zM15 19.5V18H1v1.5C1 21.43 2.57 23 4.5 23h7c1.93 0 3.5-1.57 3.5-3.5zM9.5 20h-3C6.224 20 6 20.224 6 20.5S6.224 21 6.5 21h3c0.276 0 0.5-0.224 0.5-0.5S9.776 20 9.5 20zM24 6c0 3.309-2.691 6-6 6s-6-2.691-6-6 2.691-6 6-6 6 2.691 6 6zM23 6c0-2.757-2.243-5-5-5s-5 2.243-5 5 2.243 5 5 5 5-2.243 5-5zM4.822 12.579 5.436 11h-0.59c-0.59 0-1.147-0.259-1.528-0.711l-1.097-1.3C1.94 8.513 1.942 8.036 2.173 7.637 2.574 6.945 3.624 6.809 4.186 7.375l0.911 0.624h0.352L4.828 6.425c-0.127-0.321-0.087-0.684 0.107-0.97 0.194-0.285 0.517-0.456 0.862-0.456h0.298c0.591 0 1.133 0.322 1.415 0.84l1.729 2.16h1.26c0.827 0 1.5 0.673 1.5 1.5s-0.673 1.5-1.5 1.5H9.241l-1.761 2.23c-0.236 0.448-0.778 0.77-1.368 0.77H5.793c-0.345 0-0.667-0.17-0.861-0.454-0.194-0.285-0.235-0.646-0.11-0.966zM6.167 10c0.165 0 0.319 0.081 0.413 0.218 0.093 0.136 0.112 0.31 0.053 0.464l-0.879 2.261 0.359 0.058c0.224 0 0.43-0.122 0.537-0.319l1.957-2.49c0.095-0.12 0.239-0.19 0.393-0.19h1.5c0.275 0 0.5-0.225 0.5-0.5s-0.225-0.5-0.5-0.5H9c-0.152 0-0.296-0.069-0.391-0.188L6.68 6.393C6.525 6.124 6.32 6.002 6.095 6.002H5.797l0.851 2.316C6.709 8.472 6.69 8.646 6.596 8.783 6.503 8.92 6.348 9.002 6.183 9.002H4.942c-0.102 0-0.201-0.031-0.285-0.09l-1.11-0.771c-0.183-0.208-0.431-0.149-0.508 0-0.024 0.042-0.073 0.153 0 0.279l1.044 1.226c0.191 0.226 0.47 0.355 0.765 0.355z" />
</svg>