<svg id="airplane_journey_Layer_1" viewBox="0 0 24 24" fill="currentColor" width="32" height="32" data-name="Layer 1" xmlns="http://www.w3.org/2000/svg" xmlns:xlink="http://www.w3.org/1999/xlink">
    <title>airplane-journey</title>
    <path d="M17.286 10.317c0.473 0.462 1.093 0.693 1.714 0.693s1.242-0.231 1.714-0.693l1.821-1.781C23.48 7.592 24 6.336 24 5s-0.52-2.591-1.465-3.536C21.591 0.52 20.335 0 19 0s-2.591 0.52-3.536 1.464c-1.95 1.95-1.95 5.122 4e-3 7.075zM16.172 2.171C16.928 1.416 17.932 1 19.001 1s2.073 0.416 2.828 1.171c0.756 0.755 1.172 1.76 1.172 2.829s-0.416 2.073-1.168 2.825l-1.817 1.777c-0.56 0.547-1.471 0.547-2.03 0l-1.813-1.773c-1.56-1.56-1.56-4.098-1e-3-5.658zM24.001 17.5c0 1.93-1.57 3.5-3.5 3.5h-8c-0.276 0-0.5-0.224-0.5-0.5s0.224-0.5 0.5-0.5h8c1.378 0 2.5-1.122 2.5-2.5s-1.122-2.5-2.5-2.5h-12c-1.93 0-3.5-1.57-3.5-3.5S6.571 8 8.501 8h4c0.276 0 0.5 0.224 0.5 0.5S12.777 9 12.501 9h-4c-1.378 0-2.5 1.122-2.5 2.5s1.122 2.5 2.5 2.5h12c1.93 0 3.5 1.57 3.5 3.5zM8.501 18h-1.26l-1.73-2.16C5.229 15.322 4.687 15 4.097 15H3.799c-0.346 0-0.668 0.17-0.862 0.456s-0.234 0.648-0.108 0.97L3.45 18H3.098l-0.911-0.625c-0.567-0.57-1.609-0.434-2.012 0.262-0.231 0.399-0.233 0.877 0.048 1.351l1.096 1.3c0.381 0.452 0.938 0.711 1.529 0.711h0.589l-0.614 1.579c-0.125 0.321-0.083 0.683 0.112 0.967 0.194 0.284 0.516 0.454 0.86 0.454h0.32c0.59 0 1.132-0.322 1.368-0.769l1.761-2.231h1.258c0.827 0 1.5-0.673 1.5-1.5S9.329 17.999 8.501 18zM8.501 20h-1.5c-0.153 0-0.297 0.07-0.393 0.19L4.65 22.682C4.543 22.878 4.338 23 4.114 23l-0.36-0.059 0.879-2.26c0.06-0.154 0.04-0.327-0.053-0.463S4.332 20 4.167 20h-1.32c-0.295 0-0.574-0.13-0.764-0.355l-1.044-1.227c-0.072-0.126-0.023-0.237 0-0.278C1.063 18.098 1.136 18 1.281 18c0.075 0 0.145 0.029 0.266 0.139l1.11 0.771c0.083 0.058 0.183 0.089 0.285 0.089h1.241c0.166 0 0.32-0.082 0.414-0.219 0.093-0.137 0.112-0.311 0.052-0.465l-0.851-2.316h0.298c0.224 0 0.429 0.122 0.584 0.391l1.929 2.421C6.704 18.93 6.848 18.999 7 18.999h1.5c0.276 0 0.5 0.224 0.5 0.5S8.776 19.999 8.501 20zM20.002 4.787c0 0.552-0.448 1-1 1s-1-0.448-1-1 0.448-1 1-1 1 0.448 1 1z" />
</svg>