<svg id="alarm_exclamation_Layer_1" viewBox="0 0 24 24" fill="currentColor" width="32" height="32" data-name="Layer 1" xmlns="http://www.w3.org/2000/svg" xmlns:xlink="http://www.w3.org/1999/xlink">
    <title>alarm-exclamation</title>
    <path d="M12.5 2.012V0.5C12.5 0.224 12.276 0 12 0s-0.5 0.224-0.5 0.5v1.512C5.666 2.274 1 7.102 1 13c0 2.896 1.126 5.534 2.962 7.5C2.91 20.95 2 21.9 2 23.5 2 23.776 2.224 24 2.5 24S3 23.776 3 23.5c0-1.534 1.105-2.049 1.765-2.221C6.7 22.972 9.232 24 12 24s5.299-1.028 7.235-2.721C19.895 21.451 21 21.967 21 23.5c0 0.276 0.224 0.5 0.5 0.5s0.5-0.224 0.5-0.5c0-1.599-0.91-2.55-1.962-3C21.874 18.534 23 15.896 23 13 23 7.102 18.334 2.274 12.5 2.012zM2 13C2 7.486 6.486 3 12 3s10 4.486 10 10-4.486 10-10 10S2 18.514 2 13zM24 4.5C24 4.776 23.776 5 23.5 5S23 4.776 23 4.5c0-1.679-1.227-3.463-3.5-3.463-0.276 0-0.5-0.224-0.5-0.5s0.224-0.5 0.5-0.5c2.523 0 4.5 1.96 4.5 4.463zM1 4.5C1 4.776 0.776 5 0.5 5S0 4.776 0 4.5c0-2.503 1.977-4.463 4.5-4.463 0.276 0 0.5 0.224 0.5 0.5s-0.224 0.5-0.5 0.5C2.227 1.037 1 2.821 1 4.5zM11.5 15V8c0-0.276 0.224-0.5 0.5-0.5s0.5 0.224 0.5 0.5v7c0 0.276-0.224 0.5-0.5 0.5s-0.5-0.224-0.5-0.5zM13 18c0 0.552-0.448 1-1 1s-1-0.448-1-1 0.448-1 1-1 1 0.448 1 1z" />
</svg>