<svg id="alarm_snooze_Layer_1" viewBox="0 0 24 24" fill="currentColor" width="32" height="32" data-name="Layer 1" xmlns="http://www.w3.org/2000/svg" xmlns:xlink="http://www.w3.org/1999/xlink">
    <title>alarm-snooze</title>
    <path d="M16 16.5c0 0.276-0.224 0.5-0.5 0.5h-7c-0.202 0-0.385-0.122-0.462-0.309-0.078-0.187-0.035-0.402 0.108-0.545L14.292 10H8.499c-0.276 0-0.5-0.224-0.5-0.5S8.223 9 8.499 9h7c0.202 0 0.385 0.122 0.462 0.309s0.034 0.402-0.108 0.545L9.707 16H15.5c0.276 0 0.5 0.224 0.5 0.5zM23 13c0 2.896-1.125 5.533-2.961 7.5 1.051 0.449 1.961 1.399 1.961 3 0 0.276-0.224 0.5-0.5 0.5S21 23.776 21 23.5c0-1.537-1.106-2.051-1.765-2.221C17.3 22.972 14.768 24 12 24s-5.299-1.028-7.235-2.721C4.105 21.449 3 21.963 3 23.5 3 23.776 2.776 24 2.5 24S2 23.776 2 23.5c0-1.601 0.91-2.552 1.961-3C2.125 18.534 1 15.896 1 13 1 7.102 5.666 2.274 11.5 2.012V0.5C11.5 0.224 11.724 0 12 0s0.5 0.224 0.5 0.5v1.512C18.334 2.274 23 7.102 23 13zM12 23c5.514 0 10-4.486 10-10S17.514 3 12 3 2 7.486 2 13 6.486 23 12 23zM19.5 0.038c-0.276 0-0.5 0.224-0.5 0.5s0.224 0.5 0.5 0.5c2.273 0 3.5 1.784 3.5 3.462 0 0.276 0.224 0.5 0.5 0.5S24 4.776 24 4.5c0-2.502-1.977-4.462-4.5-4.462zM4.5 1.038c0.276 0 0.5-0.224 0.5-0.5s-0.224-0.5-0.5-0.5C1.977 0.038 0 1.998 0 4.5 0 4.776 0.224 5 0.5 5S1 4.776 1 4.5c0-1.679 1.227-3.462 3.5-3.462z" />
</svg>