<svg id="alarm_clock_Layer_1" viewBox="0 0 24 24" fill="currentColor" width="32" height="32" data-name="Layer 1" xmlns="http://www.w3.org/2000/svg" xmlns:xlink="http://www.w3.org/1999/xlink">
    <title>alarm-clock</title>
    <path d="M12.5 2.025V0.5C12.5 0.224 12.276 0 12 0s-0.5 0.224-0.5 0.5v1.525C5.667 2.289 1 7.103 1 13c0 2.901 1.137 5.535 2.978 7.502C2.921 20.948 2 21.892 2 23.5 2 23.776 2.224 24 2.5 24S3 23.776 3 23.5c0-1.55 1.121-2.057 1.779-2.223C6.714 22.967 9.236 24 12 24s5.287-1.033 7.221-2.723C19.879 21.442 21 21.949 21 23.5c0 0.276 0.224 0.5 0.5 0.5s0.5-0.224 0.5-0.5c0-1.608-0.92-2.552-1.978-2.998C21.863 18.535 23 15.901 23 13 23 7.103 18.333 2.289 12.5 2.025zM12 23C6.486 23 2 18.514 2 13S6.486 3 12 3 22 7.486 22 13 17.514 23 12 23zM16.3 15.1c0.221 0.166 0.266 0.479 0.1 0.7-0.098 0.131-0.248 0.2-0.4 0.2-0.104 0-0.209-0.033-0.299-0.1l-4-3c-0.126-0.094-0.2-0.243-0.2-0.4v-6c0-0.276 0.224-0.5 0.5-0.5s0.5 0.224 0.5 0.5v5.75zM1 4.5C1 4.776 0.776 5 0.5 5S0 4.776 0 4.5c0-2.502 1.977-4.462 4.5-4.462 0.276 0 0.5 0.224 0.5 0.5s-0.224 0.5-0.5 0.5C2.227 1.038 1 2.822 1 4.5zM24 4.5C24 4.776 23.776 5 23.5 5S23 4.776 23 4.5c0-1.679-1.227-3.462-3.5-3.462-0.276 0-0.5-0.224-0.5-0.5s0.224-0.5 0.5-0.5c2.523 0 4.5 1.96 4.5 4.462z" />
</svg>