<svg id="album_collection_Layer_1" viewBox="0 0 24 24" fill="currentColor" width="32" height="32" data-name="Layer 1" xmlns="http://www.w3.org/2000/svg" xmlns:xlink="http://www.w3.org/1999/xlink">
    <title>album-collection</title>
    <path d="M19.5 6h-15C2.02 6 0 8.02 0 10.5v9C0 21.98 2.02 24 4.5 24h15c2.48 0 4.5-2.02 4.5-4.5v-9C24 8.02 21.98 6 19.5 6zM23 19.5c0 1.93-1.57 3.5-3.5 3.5h-15C2.57 23 1 21.43 1 19.5v-9C1 8.57 2.57 7 4.5 7h15c1.93 0 3.5 1.57 3.5 3.5zM0.62 4.52C1.47 3.55 2.7 3 4 3h16c1.29 0 2.52 0.56 3.38 1.52 0.18 0.21 0.16 0.52-0.04 0.71-0.1 0.08-0.21 0.12-0.33 0.12-0.14 0-0.28-0.06-0.38-0.17-0.66-0.75-1.62-1.19-2.62-1.19H4c-1 0-1.96 0.43-2.62 1.19-0.18 0.21-0.5 0.23-0.71 0.04-0.21-0.18-0.23-0.5-0.05-0.7zM0.62 1.52C1.48 0.56 2.71 0 4 0h16c1.29 0 2.52 0.56 3.38 1.52 0.18 0.21 0.16 0.52-0.04 0.71-0.1 0.08-0.21 0.12-0.33 0.12-0.14 0-0.28-0.06-0.38-0.17-0.66-0.75-1.62-1.19-2.62-1.19H4c-1 0-1.96 0.43-2.62 1.19-0.18 0.21-0.5 0.23-0.71 0.04-0.21-0.18-0.23-0.5-0.05-0.7zM12 10c-4.49 0-8 2.2-8 5s3.51 5 8 5 8-2.2 8-5-3.51-5-8-5zM12 19c-3.79 0-7-1.83-7-4s3.21-4 7-4 7 1.83 7 4-3.21 4-7 4zM13.5 15c0 0.55-0.67 1-1.5 1s-1.5-0.45-1.5-1 0.67-1 1.5-1 1.5 0.45 1.5 1z" />
</svg>