<svg id="album_circle_plus_Layer_1" viewBox="0 0 24 24" fill="currentColor" width="32" height="32" data-name="Layer 1" xmlns="http://www.w3.org/2000/svg" xmlns:xlink="http://www.w3.org/1999/xlink">
    <title>album-circle-plus</title>
    <path d="M24 4.5v12c0 0.28-0.22 0.5-0.5 0.5S23 16.78 23 16.5v-12C23 2.57 21.43 1 19.5 1h-15C2.57 1 1 2.57 1 4.5v15C1 21.43 2.57 23 4.5 23h12c0.28 0 0.5 0.22 0.5 0.5S16.78 24 16.5 24h-12C2.02 24 0 21.98 0 19.5v-15C0 2.02 2.02 0 4.5 0h15C21.98 0 24 2.02 24 4.5zM19 12c0 0.16 0 0.31-0.02 0.47-0.02 0.28 0.19 0.51 0.47 0.53 0.25 0.02 0.51-0.19 0.53-0.47C19.99 12.35 20 12.18 20 12c0-4.41-3.59-8-8-8s-8 3.59-8 8 3.59 8 8 8c0.18 0 0.36 0 0.53-0.02 0.28-0.02 0.48-0.26 0.46-0.53s-0.24-0.47-0.53-0.46c-0.15 0.01-0.31 0.02-0.47 0.02-3.86 0-7-3.14-7-7s3.14-7 7-7 7 3.14 7.01 6.99zM11 12c0 0.55 0.45 1 1 1s1-0.45 1-1-0.45-1-1-1-1 0.45-1 1zM23.5 19H20v-3.5c0-0.28-0.22-0.5-0.5-0.5S19 15.22 19 15.5V19h-3.5c-0.28 0-0.5 0.22-0.5 0.5s0.22 0.5 0.5 0.5H19v3.5c0 0.28 0.22 0.5 0.5 0.5s0.5-0.22 0.5-0.5V20h3.5c0.28 0 0.5-0.22 0.5-0.5S23.78 19 23.5 19z" />
</svg>