<svg id="algorithm_Layer_1" viewBox="0 0 24 24" fill="currentColor" width="32" height="32" data-name="Layer 1" xmlns="http://www.w3.org/2000/svg" xmlns:xlink="http://www.w3.org/1999/xlink">
    <title>algorithm</title>
    <path d="M21 6c1.654 0 3-1.346 3-3s-1.346-3-3-3c-1.304 0-2.415 0.836-2.828 2H5.828C5.415 0.836 4.304 0 3 0 1.346 0 0 1.346 0 3 0 4.304 0.836 5.415 2 5.828v10.344C0.836 16.585 0 17.696 0 19c0 1.654 1.346 3 3 3 1.304 0 2.415-0.836 2.828-2h16.038c-0.043 0.075-0.096 0.144-0.159 0.207l-2.939 2.939c-0.195 0.195-0.195 0.512 0 0.707 0.098 0.098 0.226 0.146 0.354 0.146s0.256-0.049 0.354-0.146l2.939-2.939c0.378-0.377 0.586-0.88 0.586-1.414s-0.208-1.037-0.586-1.414l-2.939-2.939c-0.195-0.195-0.512-0.195-0.707 0s-0.195 0.512 0 0.707l2.939 2.939c0.063 0.063 0.116 0.132 0.159 0.207H6c0-1.654-1.346-3-3-3V6c1.654 0 3-1.346 3-3h12c0 1.654 1.346 3 3 3zM5 19c0 1.103-0.897 2-2 2s-2-0.897-2-2 0.897-2 2-2 2 0.897 2 2zM3 5C1.897 5 1 4.103 1 3s0.897-2 2-2 2 0.897 2 2-0.897 2-2 2zM21 1c1.103 0 2 0.897 2 2s-0.897 2-2 2-2-0.897-2-2 0.897-2 2-2zM9 11c0 1.654 1.346 3 3 3s3-1.346 3-3-1.346-3-3-3-3 1.346-3 3zM14 11c0 1.103-0.897 2-2 2s-2-0.897-2-2 0.897-2 2-2 2 0.897 2 2z" />
</svg>