<svg id="alicorn_Layer_1" viewBox="0 0 24 24" fill="currentColor" width="32" height="32" data-name="Layer 1" xmlns="http://www.w3.org/2000/svg" xmlns:xlink="http://www.w3.org/1999/xlink">
    <title>alicorn</title>
    <path d="M23.019 5.779c-1.041-0.467-2.067-1.042-2.856-1.995l3.684-3.037c0.161-0.133 0.201-0.363 0.094-0.542-0.103-0.171-0.311-0.247-0.5-0.182l-4.41 1.525c-0.01-0.037-0.02-0.075-0.03-0.113V0.491c0-0.314-0.3-0.565-0.6-0.471-0.52 0.163-0.948 0.562-1.188 1.063-1.535 0.207-2.762 0.8-3.658 1.774-1.761 1.914-1.562 4.573-1.554 4.644 0 0.042 0 0.094 0 0.151-2.25-0.431-4.658-2.511-6.108-4.262-0.286-0.345-0.744-0.474-1.167-0.331-0.418 0.142-0.7 0.52-0.716 0.961-0.052 1.412 0.123 3.576 1.265 5.775-0.26 0.214-0.485 0.461-0.671 0.734-3.01 0.997-4.602 3.753-4.602 7.971 0 0.276 0.224 0.5 0.5 0.5s0.5-0.224 0.5-0.5c0-2.542 0.59-4.44 1.758-5.676-0.512 1.345-0.758 3.216-0.758 5.676 0 0.276 0.224 0.5 0.5 0.5s0.5-0.224 0.5-0.5c0-2.809 0.327-4.786 0.995-5.977 8e-3 1.671 0.714 3.883 1.231 5.501 0.119 0.372 0.229 0.715 0.319 1.019l-0.27 2.191c-0.086 0.701 0.132 1.406 0.6 1.934C6.345 23.697 7.018 24 7.724 24c1.272 0 2.327-0.955 2.453-2.22L10.455 19h2.547v2.5c0 1.378 1.121 2.5 2.5 2.5s2.5-1.122 2.5-2.5v-2.947l0.403-1.896c0.404-1.415 0.597-2.338 0.597-3.758V9.5c0-0.276 0.225-0.5 0.5-0.5h2.811c0.932 0 1.689-0.758 1.689-1.689 0-0.663-0.385-1.264-0.983-1.532zM22.311 8H19.5C18.673 8 18 8.673 18 9.5v3.399c0 1.31-0.172 2.133-0.566 3.517l-0.423 1.98C17.004 18.43 17 21.5 17 21.5c0 0.827-0.673 1.5-1.5 1.5S14 22.327 14 21.5v-3c0-0.276-0.224-0.5-0.5-0.5H10c-0.257 0-0.472 0.195-0.498 0.45l-0.323 3.23c-0.075 0.752-0.702 1.319-1.458 1.319-0.419 0-0.82-0.18-1.098-0.495-0.278-0.314-0.408-0.733-0.357-1.149 0 0 0.285-2.431 0.266-2.497-0.098-0.333-0.221-0.719-0.355-1.14-0.5-1.564-1.184-3.707-1.184-5.225 1e-3-0.696 0.291-1.351 0.79-1.819 0.74 1.149 1.773 2.282 3.204 3.296 0.226 0.159 0.537 0.106 0.697-0.119 0.16-0.226 0.106-0.538-0.119-0.697-4.148-2.937-4.637-6.962-4.559-9.1L5.12 4.025c0.61 0.737 3.831 4.426 7.313 4.69 0.266 0.03 0.504-0.174 0.534-0.441 0.027-0.236 0.032-0.589 0.03-0.816-2e-3-0.023-0.167-2.347 1.297-3.932 0.871-0.943 2.157-1.454 3.825-1.52 0.816 2.711 2.718 3.89 4.488 4.684 0.237 0.106 0.391 0.35 0.391 0.62 0 0.38-0.31 0.689-0.687 0.69z" />
</svg>