<svg id="allergy_Layer_1" viewBox="0 0 24 24" fill="currentColor" width="32" height="32" data-name="Layer 1" xmlns="http://www.w3.org/2000/svg" xmlns:xlink="http://www.w3.org/1999/xlink">
    <title>allergy</title>
    <path d="M10.999 15c0 0.552-0.448 1-1 1s-1-0.448-1-1 0.448-1 1-1 1 0.448 1 1zM12.999 9c-0.552 0-1 0.448-1 1s0.448 1 1 1 1-0.448 1-1-0.448-1-1-1zM16.999 18c-0.552 0-1 0.448-1 1s0.448 1 1 1 1-0.448 1-1-0.448-1-1-1zM14.999 16c0.552 0 1-0.448 1-1s-0.448-1-1-1-1 0.448-1 1 0.448 1 1 1zM21.999 20c-0.552 0-1 0.448-1 1s0.448 1 1 1 1-0.448 1-1-0.448-1-1-1zM23.846 16.5l-0.397-0.354c-1.03-1.03-1.569-2.354-1.45-3.656V5.5c0-0.734-0.32-1.442-0.88-1.919-0.56-0.476-1.305-0.681-2.035-0.561C17.895 3.213 17 4.32 17 5.593v2.145L9.928 0.654C9.463 0.19 8.827-0.046 8.167 8e-3 7.513 0.061 6.915 0.4 6.527 0.939 6.339 1.2 6.228 1.497 6.173 1.805L5.817 1.449c-0.464-0.464-1.112-0.701-1.76-0.647-0.655 0.053-1.253 0.393-1.641 0.932-0.42 0.582-0.493 1.337-0.261 2.016C1.456 3.728 0.807 4.084 0.41 4.633-0.219 5.505-0.087 6.77 0.717 7.572l1.067 1.067c-0.553 0.11-1.051 0.415-1.388 0.883C0.139 9.877 9e-3 10.3 0 10.73c-0.013 0.62 0.226 1.253 0.697 1.723l5.725 5.936c1.3 1.338 2.959 2.201 4.797 2.497 0.825 0.134 1.537 0.484 2.059 1.016l1.916 1.949c0.194 0.197 0.51 0.199 0.707 6e-3s0.199-0.51 6e-3-0.707l-1.916-1.949c-0.672-0.684-1.576-1.134-2.613-1.301-1.625-0.262-3.091-1.025-4.238-2.206l-5.729-5.941c-0.461-0.461-0.548-1.169-0.202-1.648 0.421-0.62 1.368-0.701 1.881-0.162l2.791 2.803c0.193 0.195 0.511 0.195 0.708 2e-3 0.195-0.195 0.196-0.512 1e-3-0.707L1.425 6.863C0.964 6.402 0.877 5.694 1.222 5.215c0.43-0.629 1.442-0.611 1.95-0.081l5.161 5.16c0.195 0.195 0.512 0.195 0.707 0s0.195-0.512 0-0.707L3.431 3.966C2.97 3.505 2.883 2.796 3.228 2.317c0.42-0.621 1.367-0.699 1.881-0.161l5.676 5.687c0.195 0.195 0.512 0.196 0.707 0 0.196-0.194 0.196-0.512 0-0.707L7.547 3.183c0 0-4e-3-7e-3-7e-3-0.01-0.461-0.461-0.548-1.17-0.203-1.649 0.419-0.623 1.365-0.691 1.882-0.161l7.44 7.452c0.225 0.224 0.559 0.294 0.856 0.17 0.294-0.121 0.484-0.406 0.484-0.725V5.595c0-0.789 0.535-1.471 1.244-1.587 0.897-0.169 1.774 0.574 1.755 1.482 0.016 2.635 0 6.896 0 6.896-0.146 1.6 0.503 3.229 1.751 4.477l0.405 0.361c0.199 0.191 0.516 0.184 0.707-0.016 0.19-0.199 0.184-0.516-0.015-0.708z" />
</svg>