<svg id="american_football_Layer_1" viewBox="0 0 24 24" fill="currentColor" width="32" height="32" data-name="Layer 1" xmlns="http://www.w3.org/2000/svg" xmlns:xlink="http://www.w3.org/1999/xlink">
    <title>american-football</title>
    <path d="M23.122 13.878c-0.752-0.754-2.178-1.045-3.815-0.782-1.626 0.262-3.149 1.003-4.179 2.032-2.16 2.16-2.825 6.419-1.25 7.994 0.571 0.571 1.528 0.877 2.671 0.877 0.365 0 0.749-0.031 1.145-0.095 1.626-0.262 3.149-1.003 4.179-2.032 2.159-2.16 2.825-6.419 1.249-7.994zM21.165 21.165c-0.871 0.871-2.229 1.526-3.631 1.752-1.299 0.208-2.43 0.017-2.949-0.502-1.101-1.101-0.64-4.689 1.25-6.58 0.871-0.871 2.229-1.526 3.631-1.752C19.814 14.027 20.149 14 20.464 14c0.863 0 1.571 0.205 1.951 0.585 1.1 1.101 0.64 4.689-1.25 6.58zM21.353 15.646c0.195 0.195 0.195 0.512 0 0.707l-1.146 1.146 0.646 0.646c0.195 0.195 0.195 0.512 0 0.707s-0.512 0.195-0.707 0L19.5 18.206l-1.293 1.293 0.646 0.646c0.195 0.195 0.195 0.512 0 0.707s-0.512 0.195-0.707 0L17.5 20.206l-1.146 1.146c-0.195 0.195-0.512 0.195-0.707 0s-0.195-0.512 0-0.707l1.146-1.146-0.646-0.646c-0.195-0.195-0.195-0.512 0-0.707s0.512-0.195 0.707 0l0.646 0.646 1.293-1.293-0.646-0.646c-0.195-0.195-0.195-0.512 0-0.707s0.512-0.195 0.707 0l0.646 0.646 1.146-1.146c0.195-0.195 0.512-0.195 0.707 0zM11.999 15c-0.034 7e-3-10.505-0.013-10.534 7e-3-0.075-0.552-0.178-1.037-0.207-1.514-0.154-1.58 0.126-2.74 0.858-3.547C3.353 8.582 6.01 8 10.998 8c6.05 0 9.146 0.837 10.037 2.715 0.103 0.215 0.342 0.326 0.573 0.271 0.231-0.059 0.389-0.271 0.378-0.509C21.712 4.602 16.886 0 11 0 4.935 0 0 4.935 0 11c0 1.45 0.677 5.549 1.246 8.732 0.312 1.749 1.619 3.149 3.33 3.567 1.321 0.323 3.927 0.7 6.925 0.7 0.276 0 0.5-0.224 0.5-0.5s-0.224-0.5-0.5-0.5c-0.907 0-1.767-0.038-2.571-0.096l-0.488-3.904h2.059c0.276 0 0.5-0.224 0.5-0.5s-0.224-0.5-0.5-0.5H8.317l-0.25-2h3.934c0.276 0 0.5-0.224 0.5-0.5s-0.224-0.5-0.502-0.499zM9.004 7.036l6e-3-0.53C9.001 6.235 9.239 5.994 9.51 6h3c0.272 0 0.497 0.222 0.5 0.482l-6e-3 0.553c-0.667-0.022-1.338-0.036-2.005-0.036-0.71 0-1.372 0.012-1.995 0.037zM10.999 1c4.786 0 8.801 3.347 9.775 7.874-1.538-1.187-4.061-1.637-6.77-1.795l7e-3-0.597C14.002 5.665 13.328 5 12.511 5h-3c-0.806-0.02-1.526 0.706-1.5 1.506l-7e-3 0.582C4.542 7.314 2.54 7.992 1.376 9.274 1.275 9.384 1.181 9.5 1.094 9.62 1.769 4.757 5.954 1 10.999 1zM7.91 22.817c-1.314-0.133-2.4-0.317-3.098-0.488-1.326-0.325-2.34-1.413-2.583-2.772C2.194 19.363 2.165 19.189 2.132 19h5.302zM7.308 18c-0.072 8e-3-5.286-0.016-5.35 8e-3C1.834 17.291 1.723 16.623 1.622 16h5.437z" />
</svg>