<svg id="analyse_alt_Layer_1" viewBox="0 0 24 24" fill="currentColor" width="32" height="32" data-name="Layer 1" xmlns="http://www.w3.org/2000/svg" xmlns:xlink="http://www.w3.org/1999/xlink">
    <title>analyse-alt</title>
    <path d="M23.854 23.146l-6.443-6.443c1.607-1.775 2.596-4.12 2.596-6.697-1e-3-5.514-4.487-10-10.001-10s-10 4.486-10 10 4.486 10 10 10c2.577 0 4.922-0.989 6.697-2.596l6.443 6.443c0.098 0.098 0.226 0.146 0.354 0.146s0.256-0.049 0.354-0.146c0.195-0.195 0.195-0.512 0-0.707zM10.006 19.005c-4.962 0-9-4.037-9-9s4.037-8.999 9-8.999 9 4.037 9 9-4.038 9-9 8.999zM14.5 6.999c-0.827 0-1.5 0.673-1.5 1.5v4.5h-1.5v-6.5c0-0.827-0.673-1.5-1.5-1.5s-1.5 0.673-1.5 1.5v6.5H7v-3.5c0-0.827-0.673-1.5-1.5-1.5S4 8.672 4 9.499v3c0 0.827 0.673 1.5 1.5 1.5h9c0.827 0 1.5-0.673 1.5-1.5v-4c0-0.827-0.673-1.5-1.5-1.5zM6 12.999H5.5c-0.276 0-0.5-0.225-0.5-0.5v-3c0-0.275 0.224-0.5 0.5-0.5S6 9.224 6 9.499zM9.5 6.499c0-0.275 0.224-0.5 0.5-0.5s0.5 0.225 0.5 0.5v6.5h-1zM15 12.499c0 0.275-0.224 0.5-0.5 0.5H14v-4.5c0-0.275 0.224-0.5 0.5-0.5s0.5 0.225 0.5 0.5z" />
</svg>