<svg id="analytics_magnifying_glass_Layer_1" viewBox="0 0 24 24" fill="currentColor" width="32" height="32" data-name="Layer 1" xmlns="http://www.w3.org/2000/svg" xmlns:xlink="http://www.w3.org/1999/xlink">
    <title>analytics-magnifying-glass</title>
    <path d="M3.5 14C3.776 14 4 14.224 4 14.5v4C4 18.776 3.776 19 3.5 19S3 18.776 3 18.5v-4C3 14.224 3.224 14 3.5 14zM6 10.5v8C6 18.776 6.224 19 6.5 19S7 18.776 7 18.5v-8C7 10.224 6.776 10 6.5 10S6 10.224 6 10.5zM23.854 23.146c0.195 0.195 0.195 0.512 0 0.707s-0.512 0.195-0.707 0L19.294 20c-0.77 0.616-1.733 1-2.793 1-2.481 0-4.5-2.019-4.5-4.5s2.019-4.5 4.5-4.5 4.5 2.019 4.5 4.5c0 1.06-0.384 2.023-1 2.793zM20 16.5c0-1.93-1.57-3.5-3.5-3.5S13 14.57 13 16.5 14.57 20 16.5 20 20 18.43 20 16.5zM24 4.5v13c0 0.247-0.028 0.905-0.294 1.665-0.09 0.261-0.375 0.4-0.637 0.308-0.261-0.091-0.398-0.376-0.307-0.637 0.22-0.633 0.237-1.182 0.237-1.335V8H1v9.5C1 19.43 2.57 21 4.5 21h7c0.276 0 0.5 0.224 0.5 0.5S11.776 22 11.5 22h-7C2.019 22 0 19.981 0 17.5v-13C0 2.019 2.019 0 4.5 0h15C21.981 0 24 2.019 24 4.5zM23 7V4.5C23 2.57 21.43 1 19.5 1h-15C2.57 1 1 2.57 1 4.5V7zM4 3C3.448 3 3 3.448 3 4s0.448 1 1 1 1-0.448 1-1-0.448-1-1-1zM7 3C6.448 3 6 3.448 6 4s0.448 1 1 1 1-0.448 1-1-0.448-1-1-1zM10 3C9.448 3 9 3.448 9 4s0.448 1 1 1 1-0.448 1-1-0.448-1-1-1zM9 12.5v6C9 18.776 9.224 19 9.5 19s0.5-0.224 0.5-0.5v-6c0-0.276-0.224-0.5-0.5-0.5S9 12.224 9 12.5z" />
</svg>