<svg id="analyse_Layer_1" viewBox="0 0 24 24" fill="currentColor" width="32" height="32" data-name="Layer 1" xmlns="http://www.w3.org/2000/svg" xmlns:xlink="http://www.w3.org/1999/xlink">
    <title>analyse</title>
    <path d="M23.854 23.854C23.756 23.952 23.628 24 23.5 24s-0.256-0.049-0.354-0.146l-6.449-6.449c-1.775 1.607-4.12 2.596-6.697 2.596C4.486 20 0 15.514 0 10S4.486 0 10 0c2.247 0 4.369 0.728 6.139 2.105 0.218 0.169 0.257 0.484 0.087 0.702s-0.484 0.257-0.702 0.087C13.933 1.655 12.023 1 10.001 1 5.037 1 1 5.038 1 10c0 1.654 0.456 3.201 1.239 4.534l4.716-5.585c0.259-0.306 0.637-0.491 1.036-0.508C8.39 8.423 8.783 8.576 9.067 8.86l2.07 2.07c0.087 0.086 0.206 0.126 0.324 0.127 0.122-4e-3 0.233-0.058 0.312-0.149l9.35-10.736c0.181-0.208 0.496-0.23 0.705-0.049 0.208 0.181 0.23 0.497 0.049 0.705l-9.348 10.737c-0.259 0.299-0.636 0.479-1.032 0.492-0.395 0.016-0.785-0.139-1.066-0.419l-2.07-2.071C8.273 9.479 8.163 9.435 8.034 9.44 7.911 9.445 7.8 9.5 7.72 9.594l-4.892 5.815c1.644 2.175 4.242 3.59 7.173 3.59 4.963 0 9-4.038 9-9 0-0.805-0.105-1.602-0.314-2.369-0.072-0.267 0.085-0.541 0.352-0.614 0.271-0.073 0.541 0.085 0.613 0.351 0.232 0.852 0.35 1.737 0.35 2.631 0 2.577-0.989 4.922-2.596 6.697l6.449 6.449c0.195 0.195 0.195 0.512-1e-3 0.71z" />
</svg>