<svg id="anatomical_heart_Layer_1" viewBox="0 0 24 24" fill="currentColor" width="32" height="32" data-name="Layer 1" xmlns="http://www.w3.org/2000/svg" xmlns:xlink="http://www.w3.org/1999/xlink">
    <title>anatomical-heart</title>
    <path d="M23 4h-1c-1.417 0-2.656 0.149-3.751 0.39l1.018-1.527c0.148-0.222 0.201-0.489 0.148-0.75-0.052-0.262-0.203-0.488-0.426-0.636l-0.832-0.554c-0.222-0.148-0.486-0.202-0.751-0.149-0.262 0.053-0.487 0.204-0.636 0.426l-0.897 1.383C15.609 2.429 15.323 2.304 15 2.21V1.002c0-0.551-0.448-1-1-1h-1c-0.552 0-1 0.449-1 1l-0.013 1.192c-0.314 0.078-0.629 0.183-0.942 0.32L10.19 1.157C9.895 0.691 9.277 0.552 8.811 0.845L7.965 1.378C7.739 1.521 7.582 1.743 7.523 2.003 7.464 2.264 7.51 2.532 7.653 2.757l0.928 1.489c-0.779 0.81-1.316 1.66-1.647 2.263-0.441-3.63-3.232-6.149-5.84-6.472C0.825 3e-3 0.55 0.089 0.343 0.272 0.125 0.464 0 0.742 0 1.032v1.039c0 0.481 0.36 0.882 0.856 0.955 1.534 0.22 3.074 1.947 3.133 5.287C2.76 9.395 2 11.062 2 13c0 4.764 4.619 9.418 10.744 10.826 0.508 0.117 0.98 0.175 1.423 0.175 0.548 0 1.049-0.089 1.514-0.269 2.807-1.087 4.32-5.568 4.319-9.231 0-1.898-0.442-2.875-0.911-3.91-0.086-0.192-0.175-0.387-0.263-0.594-0.268-0.631-0.272-1.136-0.015-1.545 0.75-1.191 3.436-1.403 4.241-1.439 0.531-0.024 0.947-0.463 0.947-0.998V5.002c0-0.551-0.448-1-0.999-1.002zM9.436 3.709 8.498 2.223 9.344 1.69l0.854 1.356c0.261 0.414 0.784 0.575 1.244 0.379 0.257-0.108 0.521-0.196 0.785-0.262 0.455-0.113 0.772-0.51 0.772-0.966V1h1v1.208c0 0.442 0.294 0.828 0.731 0.96 0.227 0.069 0.44 0.162 0.638 0.276 0.447 0.261 1.024 0.122 1.316-0.316l0.917-1.376 0.832 0.555-1.651 2.478c0 0 0 3e-3-2e-3 4e-3-3.19 1.073-4.778 2.97-5.404 3.925-0.994-0.825-2.403-1.58-3.586-1.692 0.297-0.545 0.793-1.341 1.508-2.084 0.325-0.336 0.381-0.842 0.138-1.229zM1 2.071 0.971 1.029C3.326 1.32 5.855 3.756 5.988 7.218 5.622 7.324 5.274 7.467 4.947 7.646 4.68 4.15 2.843 2.303 1 2.071zM23 6.012c-1.479 0.068-4.091 0.406-5.035 1.905-0.438 0.697-0.458 1.527-0.059 2.469 0.09 0.213 0.182 0.417 0.271 0.615 0.441 0.975 0.821 1.816 0.822 3.498 0 3.378-1.376 7.406-3.681 8.299-0.644 0.25-1.413 0.268-2.351 0.052-5.59-1.285-9.969-5.612-9.969-9.851 0-2.897 1.893-5 4.5-5 1.056 0 2.597 0.875 3.511 1.73 0.027 0.863-0.124 4.642-4.682 6.3-0.26 0.094-0.394 0.381-0.299 0.641 0.073 0.203 0.266 0.329 0.47 0.329 0.057 0 0.114-0.01 0.171-0.03 5.256-1.911 5.364-6.479 5.334-7.359 0.369-0.691 2.779-4.611 9.995-4.611h1z" />
</svg>