<svg id="anchor_Layer_1" viewBox="0 0 24 24" fill="currentColor" width="32" height="32" data-name="Layer 1" xmlns="http://www.w3.org/2000/svg" xmlns:xlink="http://www.w3.org/1999/xlink">
    <title>anchor</title>
    <path d="M23.508 13.816C23.085 13.297 22.46 13 21.793 13H19.5c-0.276 0-0.5 0.224-0.5 0.5s0.224 0.5 0.5 0.5h2.293c0.365 0 0.707 0.164 0.939 0.448 0.226 0.276 0.314 0.631 0.244 0.974-0.943 4.574-5.968 7.365-10.477 7.559V14h3c0.276 0 0.5-0.224 0.5-0.5s-0.224-0.5-0.5-0.5h-3V7.949c1.968-0.249 3.5-1.915 3.5-3.949 0-2.206-1.794-4-4-4s-4 1.794-4 4c0 2.034 1.532 3.7 3.5 3.949V13h-3c-0.276 0-0.5 0.224-0.5 0.5s0.224 0.5 0.5 0.5h3v8.981c-4.508-0.194-9.535-2.985-10.476-7.559-0.07-0.343 0.018-0.698 0.243-0.975 0.232-0.285 0.575-0.448 0.939-0.448h2.293c0.276 0 0.5-0.224 0.5-0.5s-0.224-0.5-0.5-0.5H2.205c-0.667 0-1.292 0.297-1.714 0.816-0.416 0.51-0.579 1.169-0.448 1.808 1.079 5.243 6.926 8.376 11.956 8.376s10.876-3.133 11.956-8.376c0.131-0.638-0.032-1.297-0.447-1.807zM9 4c0-1.654 1.346-3 3-3s3 1.346 3 3-1.346 3-3 3-3-1.346-3-3z" />
</svg>