<svg id="angle_square_down_Layer_1" viewBox="0 0 24 24" fill="currentColor" width="32" height="32" data-name="Layer 1" xmlns="http://www.w3.org/2000/svg" xmlns:xlink="http://www.w3.org/1999/xlink">
    <title>angle-square-down</title>
    <path d="M19.5 0h-15C2.019 0 0 2.019 0 4.5v15C0 21.981 2.019 24 4.5 24h15c2.481 0 4.5-2.019 4.5-4.5v-15C24 2.019 21.981 0 19.5 0zM23 19.5c0 1.93-1.57 3.5-3.5 3.5h-15C2.57 23 1 21.43 1 19.5v-15C1 2.57 2.57 1 4.5 1h15C21.43 1 23 2.57 23 4.5z" />
    <path d="M16.649 11.119 13.767 13.95c-0.188 0.188-0.475 0.448-0.774 0.715-0.566 0.502-1.42 0.502-1.986 0-0.3-0.267-0.587-0.527-0.777-0.718l-2.879-2.828c-0.197-0.193-0.514-0.191-0.707 6e-3s-0.191 0.514 6e-3 0.707l2.876 2.825c0.197 0.197 0.5 0.474 0.817 0.756 0.473 0.419 1.064 0.628 1.657 0.628s1.185-0.209 1.657-0.628c0.317-0.282 0.62-0.559 0.814-0.753l2.879-2.828c0.197-0.193 0.199-0.51 6e-3-0.707-0.192-0.196-0.509-0.199-0.707-6e-3z" />
</svg>