<svg id="angle_square_left_arrow-circle-down" viewBox="0 0 24 24" fill="currentColor" width="32" height="32" xmlns="http://www.w3.org/2000/svg" xmlns:xlink="http://www.w3.org/1999/xlink">
    <title>angle-square-left</title>
    <path d="M19.5 0h-15C2.019 0 0 2.019 0 4.5v15C0 21.981 2.019 24 4.5 24h15c2.481 0 4.5-2.019 4.5-4.5v-15C24 2.019 21.981 0 19.5 0zM23 19.5c0 1.93-1.57 3.5-3.5 3.5h-15C2.57 23 1 21.43 1 19.5v-15C1 2.57 2.57 1 4.5 1h15C21.43 1 23 2.57 23 4.5z" />
    <path d="M10.052 10.229 12.881 7.35c0.194-0.197 0.191-0.514-6e-3-0.707-0.198-0.194-0.514-0.191-0.707 6e-3L9.342 9.525c-0.198 0.197-0.474 0.5-0.756 0.818-0.836 0.944-0.836 2.368 0 3.313 0.282 0.317 0.558 0.62 0.752 0.814l2.829 2.879c0.098 0.1 0.227 0.149 0.356 0.149 0.126 0 0.253-0.048 0.351-0.144 0.197-0.193 0.2-0.51 6e-3-0.707l-2.832-2.882C9.861 13.577 9.6 13.29 9.334 12.992c-0.502-0.567-0.502-1.421 0-1.987 0.266-0.3 0.527-0.587 0.718-0.776z" />
</svg>