<svg id="angle_double_right_Layer_1" viewBox="0 0 24 24" fill="currentColor" width="32" height="32" data-name="Layer 1" xmlns="http://www.w3.org/2000/svg" xmlns:xlink="http://www.w3.org/1999/xlink">
    <title>angle-double-right</title>
    <path d="M23 12c0 0.935-0.364 1.814-1.025 2.475l-9.291 9.377C12.586 23.951 12.458 24 12.329 24c-0.127 0-0.254-0.048-0.352-0.145-0.196-0.194-0.197-0.511-3e-3-0.707l9.292-9.379C21.74 13.295 22 12.668 22 12s-0.26-1.295-0.732-1.768l-9.294-9.38c-0.194-0.196-0.193-0.513 3e-3-0.707 0.197-0.195 0.514-0.192 0.707 3e-3l9.292 9.379C22.636 10.186 23 11.065 23 12zM13 12c0-0.668-0.26-1.296-0.729-1.765L2.356 0.149c-0.194-0.198-0.51-0.2-0.707-6e-3-0.197 0.193-0.2 0.51-6e-3 0.707l9.917 10.089c0.284 0.283 0.439 0.659 0.439 1.06s-0.156 0.777-0.442 1.063L1.644 23.149c-0.194 0.197-0.191 0.514 6e-3 0.707C1.748 23.952 1.874 24 2.001 24c0.129 0 0.259-0.05 0.356-0.149l9.911-10.083C12.74 13.296 13 12.668 13 12z" />
</svg>