<svg id="angle_90_Layer_1" viewBox="0 0 24 24" fill="currentColor" width="32" height="32" data-name="Layer 1" xmlns="http://www.w3.org/2000/svg" xmlns:xlink="http://www.w3.org/1999/xlink">
    <title>angle-90</title>
    <path d="M24 23.5c0 0.276-0.224 0.5-0.5 0.5h-19C2.019 24 0 21.981 0 19.5v-19C0 0.224 0.224 0 0.5 0S1 0.224 1 0.5v19C1 21.43 2.57 23 4.5 23h19c0.276 0 0.5 0.224 0.5 0.5zM21 20.5c0 0.276 0.224 0.5 0.5 0.5s0.5-0.224 0.5-0.5c0-1.661-0.22-3.309-0.655-4.896-0.073-0.268-0.351-0.421-0.614-0.351-0.267 0.073-0.423 0.348-0.351 0.614 0.411 1.501 0.62 3.06 0.62 4.633zM19.324 13.019c0.085 0.181 0.265 0.286 0.453 0.286 0.071 0 0.145-0.016 0.213-0.048 0.25-0.118 0.356-0.416 0.238-0.666-0.67-1.416-1.522-2.746-2.533-3.954-0.175-0.211-0.491-0.239-0.704-0.062-0.212 0.178-0.24 0.493-0.062 0.705 0.956 1.142 1.761 2.399 2.395 3.739zM10.983 4.677c1.352 0.64 2.623 1.456 3.775 2.426 0.094 0.079 0.208 0.117 0.321 0.117 0.143 0 0.284-0.061 0.383-0.178 0.178-0.212 0.15-0.527-0.061-0.705-1.218-1.025-2.562-1.888-3.991-2.564-0.251-0.116-0.548-0.011-0.666 0.238-0.118 0.25-0.011 0.548 0.239 0.666zM3.5 3c1.575 0 3.137 0.209 4.641 0.622C8.185 3.634 8.23 3.64 8.274 3.64c0.219 0 0.421-0.146 0.482-0.368 0.073-0.266-0.084-0.541-0.35-0.614-1.59-0.436-3.241-0.657-4.905-0.657-0.276 0-0.5 0.224-0.5 0.5S3.225 3.001 3.5 3z" />
</svg>