<svg id="angle_square_right_arrow-circle-down" viewBox="0 0 24 24" fill="currentColor" width="32" height="32" xmlns="http://www.w3.org/2000/svg" xmlns:xlink="http://www.w3.org/1999/xlink">
    <title>angle-square-right</title>
    <path d="M19.5 0h-15C2.019 0 0 2.019 0 4.5v15C0 21.981 2.019 24 4.5 24h15c2.481 0 4.5-2.019 4.5-4.5v-15C24 2.019 21.981 0 19.5 0zM23 19.5c0 1.93-1.57 3.5-3.5 3.5h-15C2.57 23 1 21.43 1 19.5v-15C1 2.57 2.57 1 4.5 1h15C21.43 1 23 2.57 23 4.5z" />
    <path d="M14.66 9.528 11.832 6.649c-0.193-0.197-0.51-0.2-0.707-6e-3-0.197 0.193-0.2 0.51-6e-3 0.707l2.831 2.882c0.188 0.188 0.448 0.475 0.715 0.774 0.502 0.566 0.502 1.42 0 1.986-0.267 0.3-0.527 0.587-0.718 0.777l-2.828 2.879c-0.194 0.197-0.191 0.514 6e-3 0.707 0.098 0.096 0.224 0.144 0.351 0.144 0.129 0 0.259-0.05 0.356-0.149l2.825-2.876c0.197-0.197 0.474-0.5 0.756-0.817 0.837-0.945 0.837-2.369 0-3.314-0.282-0.317-0.559-0.62-0.753-0.815z" />
</svg>