<svg id="angle_double_small_left_Layer_1" viewBox="0 0 24 24" fill="currentColor" width="32" height="32" data-name="Layer 1" xmlns="http://www.w3.org/2000/svg" xmlns:xlink="http://www.w3.org/1999/xlink">
    <title>angle-double-small-left</title>
    <path d="M11.865 18.159c0.188 0.202 0.178 0.518-0.024 0.707-0.096 0.09-0.219 0.135-0.341 0.135-0.133 0-0.267-0.053-0.365-0.159l-4.142-4.429C6.357 13.778 6 12.916 6 12.001s0.357-1.777 1.004-2.424l4.13-4.417c0.189-0.203 0.505-0.213 0.707-0.024 0.202 0.188 0.212 0.505 0.024 0.707l-4.142 4.429C7.252 10.743 7 11.353 7 12.001s0.252 1.258 0.711 1.717zM12.18 12l5.687-6.161c0.188-0.203 0.175-0.52-0.028-0.707-0.202-0.188-0.52-0.174-0.707 0.028l-6 6.5c-0.177 0.192-0.177 0.487 0 0.679l6 6.5C17.23 18.945 17.364 19 17.499 19c0.122 0 0.243-0.044 0.339-0.133 0.203-0.187 0.215-0.503 0.028-0.707z" />
</svg>