<svg id="angle_circle_up_arrow-circle-down" viewBox="0 0 24 24" fill="currentColor" width="32" height="32" xmlns="http://www.w3.org/2000/svg" xmlns:xlink="http://www.w3.org/1999/xlink">
    <title>angle-circle-up</title>
    <path d="M12 0C5.383 0 0 5.383 0 12s5.383 12 12 12 12-5.383 12-12S18.617 0 12 0zM12 23C5.935 23 1 18.065 1 12S5.935 1 12 1 23 5.935 23 12 18.065 23 12 23z" />
    <path d="M14.475 9.343c-0.197-0.197-0.5-0.474-0.817-0.756-0.944-0.838-2.368-0.839-3.314 0-0.317 0.282-0.62 0.559-0.814 0.753l-2.879 2.828c-0.197 0.193-0.199 0.51-6e-3 0.707 0.194 0.197 0.51 0.2 0.707 6e-3l2.882-2.831c0.188-0.188 0.475-0.448 0.774-0.715 0.566-0.502 1.42-0.502 1.986 0 0.3 0.267 0.587 0.527 0.777 0.718l2.879 2.828c0.098 0.096 0.224 0.144 0.351 0.144 0.13 0 0.259-0.05 0.356-0.149 0.193-0.197 0.191-0.514-6e-3-0.707z" />
</svg>