<svg id="angle_left_Layer_1" viewBox="0 0 24 24" fill="currentColor" width="32" height="32" data-name="Layer 1" xmlns="http://www.w3.org/2000/svg" xmlns:xlink="http://www.w3.org/1999/xlink">
    <title>angle-left</title>
    <path d="M8.732 13.768C8.26 13.295 8 12.667 8 12s0.26-1.295 0.734-1.77l9.292-9.378c0.194-0.196 0.193-0.513-3e-3-0.707-0.197-0.194-0.513-0.192-0.707 4e-3L8.025 9.526C7.364 10.187 7 11.066 7 12.001s0.364 1.813 1.024 2.473l9.292 9.379c0.098 0.099 0.226 0.148 0.355 0.148 0.127 0 0.254-0.048 0.352-0.145 0.196-0.194 0.197-0.511 3e-3-0.707z" />
</svg>