<svg id="angle_double_small_right_Layer_1" viewBox="0 0 24 24" fill="currentColor" width="32" height="32" data-name="Layer 1" xmlns="http://www.w3.org/2000/svg" xmlns:xlink="http://www.w3.org/1999/xlink">
    <title>angle-double-small-right</title>
    <path d="M18 12c0 0.916-0.356 1.776-1.004 2.424l-4.131 4.417C12.766 18.946 12.633 19 12.5 19c-0.123 0-0.245-0.044-0.341-0.135-0.202-0.188-0.212-0.505-0.024-0.707l4.143-4.429c0.47-0.471 0.723-1.081 0.723-1.729s-0.253-1.258-0.711-1.717l-4.154-4.441c-0.188-0.202-0.178-0.518 0.024-0.707 0.202-0.188 0.518-0.178 0.707 0.024l4.143 4.429C17.646 10.224 18.002 11.085 18 12zM12.867 11.661l-6-6.5C6.68 4.959 6.364 4.946 6.16 5.133 5.957 5.32 5.945 5.636 6.132 5.84l5.687 6.161-5.687 6.161c-0.188 0.203-0.175 0.52 0.028 0.707 0.096 0.089 0.218 0.133 0.339 0.133 0.135 0 0.269-0.054 0.367-0.161l6-6.5c0.177-0.192 0.177-0.487 1e-3-0.68z" />
</svg>