<svg id="angle_circle_right_arrow-circle-down" viewBox="0 0 24 24" fill="currentColor" width="32" height="32" xmlns="http://www.w3.org/2000/svg" xmlns:xlink="http://www.w3.org/1999/xlink">
    <title>angle-circle-right</title>
    <path d="M12 0C5.383 0 0 5.383 0 12s5.383 12 12 12 12-5.383 12-12S18.617 0 12 0zM12 23C5.935 23 1 18.065 1 12S5.935 1 12 1 23 5.935 23 12 18.065 23 12 23z" />
    <path d="M14.661 9.528 11.832 6.649c-0.194-0.197-0.51-0.2-0.707-6e-3-0.197 0.193-0.2 0.51-6e-3 0.707l2.832 2.882c0.187 0.188 0.448 0.475 0.714 0.773 0.502 0.567 0.502 1.421 0 1.987-0.266 0.3-0.527 0.587-0.717 0.777l-2.829 2.879c-0.194 0.197-0.191 0.514 6e-3 0.707 0.098 0.096 0.224 0.144 0.351 0.144 0.129 0 0.259-0.05 0.356-0.149l2.826-2.876c0.198-0.197 0.474-0.5 0.756-0.818 0.836-0.944 0.836-2.368 0-3.313-0.282-0.317-0.558-0.62-0.753-0.815z" />
</svg>