<svg id="angle_double_left_Layer_1" viewBox="0 0 24 24" fill="currentColor" width="32" height="32" data-name="Layer 1" xmlns="http://www.w3.org/2000/svg" xmlns:xlink="http://www.w3.org/1999/xlink">
    <title>angle-double-left</title>
    <path d="M12.027 23.148c0.194 0.196 0.192 0.513-4e-3 0.707C11.926 23.952 11.798 24 11.671 24c-0.129 0-0.258-0.049-0.355-0.148l-9.293-9.379C1.364 13.814 1 12.935 1 12s0.364-1.814 1.025-2.475l9.291-9.377c0.194-0.196 0.513-0.198 0.707-3e-3 0.196 0.194 0.198 0.511 4e-3 0.707l-9.293 9.379C2.259 10.705 2 11.332 2 12s0.26 1.295 0.732 1.768zM12.439 13.06C12.156 12.777 12 12.401 12 12s0.156-0.777 0.442-1.063l9.914-10.086c0.193-0.197 0.191-0.514-6e-3-0.707-0.196-0.193-0.513-0.192-0.707 6e-3l-9.911 10.083C11.259 10.705 11 11.333 11 12.001s0.26 1.296 0.729 1.765l9.914 10.086c0.098 0.1 0.228 0.149 0.356 0.149 0.127 0 0.253-0.048 0.351-0.144 0.197-0.193 0.199-0.51 6e-3-0.707z" />
</svg>