<svg id="angles_up_down_Layer_1" viewBox="0 0 24 24" fill="currentColor" width="32" height="32" data-name="Layer 1" xmlns="http://www.w3.org/2000/svg" xmlns:xlink="http://www.w3.org/1999/xlink">
    <title>angles-up-down</title>
    <path d="M2.145 9.352c-0.194-0.196-0.192-0.513 4e-3-0.707l7.956-7.866C10.608 0.277 11.28 0 11.996 0h5e-3c0.714 1e-3 1.386 0.279 1.891 0.781l7.96 7.863c0.196 0.194 0.198 0.51 4e-3 0.707-0.098 0.099-0.227 0.148-0.355 0.148-0.127 0-0.254-0.048-0.352-0.145l-7.961-7.863C12.87 1.175 12.449 1.001 12 1h-3e-3c-0.449 0-0.87 0.173-1.186 0.488L2.852 9.355c-0.196 0.194-0.513 0.193-0.707-3e-3zM21.149 14.645 13.187 22.51c-0.317 0.315-0.738 0.489-1.188 0.49h-3e-3c-0.449 0-0.87-0.174-1.188-0.49l-7.957-7.865c-0.196-0.195-0.513-0.191-0.707 4e-3-0.194 0.196-0.192 0.513 4e-3 0.707l7.955 7.863C10.608 23.723 11.28 24 11.996 24h5e-3c0.714 0 1.386-0.278 1.89-0.78l7.961-7.864c0.196-0.193 0.198-0.511 4e-3-0.707-0.193-0.195-0.51-0.199-0.707-4e-3z" />
</svg>