<svg id="angry_Layer_1" viewBox="0 0 24 24" fill="currentColor" width="32" height="32" data-name="Layer 1" xmlns="http://www.w3.org/2000/svg" xmlns:xlink="http://www.w3.org/1999/xlink">
    <title>angry</title>
    <path d="M18.5 7c-2.742 0-3.813 1.129-4.232 2.001-0.169 0.292-0.267 0.63-0.268 0.99v8e-3c0 1.103 0.897 2 2 2s2-0.897 2-2c0-0.797-0.468-1.486-1.144-1.807 0.437-0.119 0.977-0.193 1.644-0.193 0.276 0 0.5-0.224 0.5-0.5S18.776 6.999 18.5 7zM16 11c-0.55 0-0.998-0.447-1-0.997 0-0.031 0.011-0.208 0.104-0.446C15.268 9.227 15.608 9 16 9c0.551 0 1 0.449 1 1s-0.449 1-1 1zM6 10c0 1.103 0.897 2 2 2s2-0.897 2-2v-8e-3c-2e-3-0.361-0.099-0.699-0.268-0.99C9.314 8.129 8.243 7.001 5.5 7.001c-0.276 0-0.5 0.224-0.5 0.5s0.224 0.5 0.5 0.5c0.667 0 1.207 0.074 1.644 0.193C6.468 8.515 6 9.204 6 10zM8 9c0.395 0 0.737 0.23 0.9 0.564C8.992 9.803 9 9.978 9 10c0 0.551-0.449 1-1 1s-1-0.449-1-1 0.449-1 1-1zM12 0C5.383 0 0 5.383 0 12s5.383 12 12 12 12-5.383 12-12S18.617 0 12 0zM12 23C5.935 23 1 18.065 1 12S5.935 1 12 1 23 5.935 23 12 18.065 23 12 23zM17.888 17.814c-0.099 0.122-0.243 0.185-0.389 0.185-0.11 0-0.222-0.036-0.314-0.111-0.023-0.019-2.369-1.889-5.185-1.889s-5.162 1.87-5.185 1.889c-0.214 0.174-0.53 0.141-0.703-0.074-0.174-0.214-0.141-0.529 0.073-0.703 0.106-0.086 2.637-2.112 5.815-2.112s5.709 2.026 5.815 2.112c0.214 0.174 0.247 0.488 0.073 0.703z" />
</svg>