<svg id="animated_icon_Layer_1" viewBox="0 0 24 24" fill="currentColor" width="32" height="32" data-name="Layer 1" xmlns="http://www.w3.org/2000/svg" xmlns:xlink="http://www.w3.org/1999/xlink">
    <title>animated-icon</title>
    <path d="M16.26 15.66l-0.98-2.98 2.37-1.93c0.32-0.27 0.43-0.71 0.29-1.1S17.42 8.99 17 8.99h-3l-1.06-2.85C12.8 5.76 12.43 5.52 12 5.52s-0.8 0.24-0.94 0.62L10 8.99H7c-0.42 0-0.79 0.26-0.94 0.65-0.14 0.39-0.03 0.84 0.3 1.11l2.37 1.93-0.94 3.01c-0.13 0.4 0.01 0.85 0.35 1.1 0.18 0.13 0.39 0.2 0.6 0.2 0.19 0 0.39-0.06 0.56-0.17l2.71-1.81 2.76 1.79c0.35 0.23 0.82 0.21 1.15-0.05 0.34-0.26 0.47-0.7 0.34-1.09zM12.28 14c-0.17-0.11-0.38-0.11-0.55 0l-2.98 1.99 1.04-3.34c0.06-0.2 0-0.41-0.16-0.54L7.01 9.98h3.35c0.21 0 0.4-0.13 0.47-0.33l1.18-3.18 1.18 3.18c0.07 0.2 0.26 0.33 0.47 0.33h3.36c0 0-2.63 2.13-2.63 2.13-0.16 0.13-0.22 0.35-0.16 0.54l1.09 3.31zM17.75 6.8c0.24 0.14 0.5 0.21 0.76 0.21s0.5-0.06 0.71-0.19l4.02-2.01C23.71 4.54 24 4.05 24 3.51s-0.28-1.03-0.78-1.32L19.25 0.2c-0.47-0.27-1.03-0.27-1.5 0S17 0.96 17 1.5v3.99c0 0.54 0.28 1.03 0.75 1.31zM18 1.51c0-0.26 0.18-0.39 0.25-0.43 0.04-0.03 0.13-0.07 0.25-0.07 0.08 0 0.18 0.02 0.28 0.08l3.97 1.98C22.98 3.2 23 3.42 23 3.51s-0.02 0.31-0.23 0.42l-4.02 2.01c-0.23 0.13-0.43 0.04-0.5 0C18.17 5.9 18 5.77 18 5.51zM0 7.5v-3C0 2.02 2.02 0 4.5 0h3C7.78 0 8 0.22 8 0.5S7.78 1 7.5 1h-3C2.57 1 1 2.57 1 4.5v3C1 7.78 0.78 8 0.5 8S0 7.78 0 7.5zM8 23.5C8 23.78 7.78 24 7.5 24h-3C2.02 24 0 21.98 0 19.5v-3C0 16.22 0.22 16 0.5 16S1 16.22 1 16.5v3C1 21.43 2.57 23 4.5 23h3C7.78 23 8 23.22 8 23.5zM24 16.5v3c0 2.48-2.02 4.5-4.5 4.5h-3c-0.28 0-0.5-0.22-0.5-0.5s0.22-0.5 0.5-0.5h3c1.93 0 3.5-1.57 3.5-3.5v-3c0-0.28 0.22-0.5 0.5-0.5s0.5 0.22 0.5 0.5z" />
</svg>