<svg id="anise_Layer_1" viewBox="0 0 24 24" fill="currentColor" width="32" height="32" data-name="Layer 1" xmlns="http://www.w3.org/2000/svg" xmlns:xlink="http://www.w3.org/1999/xlink">
    <title>anise</title>
    <path d="M23.189 10.581c-1.026-0.602-2.601-1.208-4.212-1.46 1.018-1.42 1.66-3.029 1.917-4.078 0.141-0.571-0.028-1.158-0.451-1.569-0.423-0.412-1.014-0.564-1.582-0.408-1.033 0.285-2.599 0.96-3.977 1.995-0.248-1.624-0.859-3.216-1.467-4.25C13.119 0.303 12.589 0 11.999 0s-1.12 0.303-1.419 0.811c-0.605 1.03-1.213 2.614-1.463 4.231-1.4-1.027-2.988-1.687-4.028-1.958-0.572-0.148-1.158 0.013-1.576 0.431-0.417 0.418-0.578 1.007-0.43 1.576 0.272 1.043 0.931 2.63 1.957 4.028-1.617 0.25-3.201 0.858-4.231 1.464-0.508 0.298-0.811 0.828-0.811 1.418s0.303 1.12 0.811 1.419c1.026 0.602 2.601 1.208 4.212 1.46-1.018 1.42-1.66 3.029-1.917 4.078-0.141 0.571 0.028 1.158 0.451 1.569 0.313 0.306 0.72 0.468 1.141 0.468 0.146 0 0.295-0.02 0.441-0.06 1.033-0.285 2.599-0.96 3.977-1.995 0.248 1.624 0.859 3.216 1.467 4.25 0.298 0.508 0.828 0.811 1.418 0.811s1.12-0.303 1.419-0.811c0.602-1.026 1.208-2.601 1.46-4.212 1.42 1.018 3.029 1.66 4.078 1.917 0.132 0.033 0.266 0.049 0.397 0.049 0.437 0 0.855-0.175 1.172-0.5 0.412-0.423 0.564-1.015 0.408-1.582-0.285-1.033-0.96-2.599-1.995-3.977 1.624-0.248 3.216-0.859 4.25-1.467 0.508-0.298 0.811-0.828 0.811-1.418s-0.303-1.12-0.81-1.419zM19.127 4.03c0.317-0.091 0.539 0.082 0.619 0.16 0.08 0.077 0.257 0.293 0.178 0.614-0.285 1.161-1.044 2.885-2.116 4.202-1.216-0.055-2.455 0.213-3.392 0.578 0.359-0.924 0.625-2.127 0.581-3.332 1.282-1.101 2.979-1.905 4.13-2.222zM11 12c0-0.552 0.448-1 1-1s1 0.448 1 1-0.448 1-1 1-1-0.448-1-1zM11.443 1.316C11.611 1.031 11.888 1 12 1s0.389 0.031 0.556 0.316C13.252 2.502 14 4.628 14 6.5c0 1.527-0.49 2.826-0.99 3.755-6e-3 3e-3-0.011 7e-3-0.017 0.01C12.7 10.097 12.361 10 12 10s-0.7 0.097-0.993 0.265c-6e-3-3e-3-0.011-7e-3-0.017-0.01C10.49 9.326 10 8.027 10 6.5c0-1.871 0.748-3.998 1.443-5.184zM4.052 4.838C3.968 4.518 4.143 4.3 4.221 4.221 4.3 4.143 4.516 3.973 4.838 4.051c1.155 0.301 2.865 1.084 4.166 2.17-0.05 1.211 0.217 2.432 0.579 3.363-0.93-0.362-2.152-0.629-3.362-0.579-1.086-1.299-1.868-3.009-2.169-4.167zM1 12c0-0.111 0.031-0.389 0.316-0.556C2.502 10.748 4.628 10 6.5 10c1.527 0 2.826 0.49 3.755 0.99 3e-3 6e-3 7e-3 0.011 0.01 0.017C10.097 11.3 10 11.639 10 12s0.097 0.7 0.265 0.993c-3e-3 6e-3-7e-3 0.011-0.01 0.017C9.326 13.51 8.027 14 6.5 14c-1.871 0-3.998-0.748-5.184-1.443C1.031 12.389 1 12.112 1 12zM4.873 19.97c-0.318 0.089-0.539-0.082-0.619-0.16-0.08-0.077-0.257-0.293-0.178-0.614 0.285-1.161 1.044-2.885 2.116-4.202 1.216 0.055 2.455-0.213 3.392-0.578-0.359 0.924-0.625 2.127-0.581 3.332-1.282 1.101-2.979 1.905-4.13 2.222zM12.557 22.684C12.389 22.969 12.112 23 12 23s-0.389-0.031-0.556-0.316C10.748 21.498 10 19.372 10 17.5c0-1.527 0.49-2.826 0.99-3.755 6e-3-3e-3 0.011-7e-3 0.017-0.01C11.3 13.903 11.639 14 12 14s0.7-0.097 0.993-0.265c6e-3 3e-3 0.011 7e-3 0.017 0.01 0.5 0.929 0.99 2.228 0.99 3.755 0 1.871-0.748 3.998-1.443 5.184zM19.97 19.127c0.089 0.319-0.083 0.539-0.16 0.619-0.077 0.079-0.29 0.257-0.614 0.178-1.161-0.285-2.885-1.044-4.202-2.116 0.055-1.216-0.213-2.455-0.578-3.392 0.924 0.359 2.127 0.625 3.332 0.581 1.101 1.282 1.905 2.979 2.222 4.13zM22.684 12.556C21.498 13.252 19.372 14 17.5 14c-1.527 0-2.826-0.49-3.755-0.99-3e-3-6e-3-7e-3-0.011-0.01-0.017C13.903 12.7 14 12.361 14 12s-0.097-0.7-0.265-0.993c3e-3-6e-3 7e-3-0.011 0.01-0.017 0.929-0.5 2.228-0.99 3.755-0.99 1.871 0 3.998 0.748 5.184 1.443C22.969 11.611 23 11.888 23 12s-0.031 0.389-0.316 0.556z" />
</svg>