<svg id="answer_alt_Layer_1" viewBox="0 0 24 24" fill="currentColor" width="32" height="32" data-name="Layer 1" xmlns="http://www.w3.org/2000/svg" xmlns:xlink="http://www.w3.org/1999/xlink">
    <title>answer-alt</title>
    <path d="M9.149 5.274C8.976 4.512 8.334 4 7.551 4s-1.424 0.513-1.59 1.246L3.02 15.36c-0.076 0.263 0.105 0.638 0.469 0.639-4e-3 0-3e-3 0 0.011 0 0.019 0 0.016 0 9e-3 0 0.213-4e-3 0.409-0.144 0.471-0.36l1.056-3.632h4.965l1.018 3.627c0.075 0.267 0.352 0.422 0.617 0.347 0.266-0.074 0.421-0.351 0.346-0.616zM5.326 11.007 6.928 5.496C7.011 5.13 7.304 4.999 7.551 4.999S8.091 5.13 8.18 5.52l1.54 5.487zM18.5 14.499c0 0.276-0.224 0.5-0.5 0.5h-3.5c-0.276 0-0.5-0.224-0.5-0.5s0.224-0.5 0.5-0.5H18c0.276 0 0.5 0.224 0.5 0.5zM20.5 5.499c0 0.276-0.224 0.5-0.5 0.5h-5.5c-0.276 0-0.5-0.224-0.5-0.5s0.224-0.5 0.5-0.5H20c0.276 0 0.5 0.224 0.5 0.5zM20.5-1e-3h-17C1.57 0 0 1.57 0 3.5v13C0 18.43 1.57 20 3.5 20h3.606l3.897 3.283c0.286 0.254 0.645 0.38 1.001 0.38 0.353 0 0.703-0.123 0.979-0.368L16.968 20H20.5c1.93 0 3.5-1.57 3.5-3.5v-13c0-1.93-1.57-3.5-3.5-3.501zM23 16.499c0 1.379-1.121 2.5-2.5 2.5h-3.712c-0.116 0-0.229 0.041-0.318 0.114l-4.137 3.421c-0.19 0.17-0.476 0.169-0.675-9e-3l-4.047-3.409c-0.09-0.075-0.205-0.117-0.322-0.117H3.5c-1.378 0-2.5-1.121-2.5-2.5V3.5C1 2.121 2.122 1 3.5 1h17C21.879 1 23 2.121 23 3.5zM20.5 11.499c0 0.276-0.224 0.5-0.5 0.5h-5.5c-0.276 0-0.5-0.224-0.5-0.5s0.224-0.5 0.5-0.5H20c0.276 0 0.5 0.224 0.5 0.5zM20.5 8.499c0 0.276-0.224 0.5-0.5 0.5h-5.5c-0.276 0-0.5-0.224-0.5-0.5s0.224-0.5 0.5-0.5H20c0.276 0 0.5 0.224 0.5 0.5z" />
</svg>