<svg id="anxiety_Layer_1" viewBox="0 0 24 24" fill="currentColor" width="32" height="32" data-name="Layer 1" xmlns="http://www.w3.org/2000/svg" xmlns:xlink="http://www.w3.org/1999/xlink">
    <title>anxiety</title>
    <path d="M9 14c0.552 0 1 0.448 1 1s-0.448 1-1 1-1-0.448-1-1 0.448-1 1-1zM15 16c0.552 0 1-0.448 1-1s-0.448-1-1-1-1 0.448-1 1 0.448 1 1 1zM12 9c0.552 0 1-0.448 1-1 0-0.553-0.448-1-1-1s-1 0.448-1 1c0 0.553 0.448 1 1 1zM12 5c0.276 0 0.5-0.224 0.5-0.5v-4C12.5 0.224 12.276 0 12 0s-0.5 0.224-0.5 0.5v4C11.5 4.776 11.724 5 12 5zM6.466 8.873l3e-3 0.011c0.159 0.529 0.717 0.828 1.246 0.669s0.828-0.717 0.669-1.245l-3e-3-0.011C8.222 7.768 7.664 7.469 7.135 7.628S6.307 8.345 6.466 8.873zM6.021 5.644C6.1 5.911 6.386 6.058 6.644 5.978 6.908 5.898 7.058 5.62 6.978 5.355l-1.205-4C5.693 1.091 5.417 0.939 5.15 1.021 4.886 1.101 4.736 1.379 4.816 1.644zM16.284 9.557c0.529 0.159 1.086-0.14 1.246-0.669l4e-3-0.015c0.159-0.528-0.14-1.086-0.669-1.245s-1.086 0.14-1.246 0.669l-4e-3 0.015c-0.159 0.529 0.14 1.086 0.669 1.245zM17.355 5.979c0.257 0.08 0.545-0.068 0.623-0.334l1.205-4c0.08-0.264-0.07-0.543-0.334-0.623-0.268-0.081-0.544 0.07-0.623 0.334l-1.205 4c-0.08 0.264 0.07 0.543 0.334 0.623zM22 12.171V10.5C22 9.122 20.879 8 19.5 8 19.224 8 19 8.224 19 8.5S19.224 9 19.5 9c0.827 0 1.5 0.673 1.5 1.5v2.05c0 0.238 0.167 0.442 0.4 0.49 0.927 0.188 1.6 1.013 1.6 1.96 0 1.1-0.893 1.996-2.021 1.996-0.245-0.051-0.517 0.058-0.611 0.304-1.367 3.463-4.651 5.701-8.367 5.701s-7-2.238-8.367-5.701c-0.095-0.254-0.379-0.359-0.633-0.299-1.103 0-2-0.897-2-2 0-0.947 0.673-1.771 1.6-1.96 0.233-0.047 0.4-0.252 0.4-0.49v-2.05c0-0.827 0.673-1.5 1.5-1.5 0.276 0 0.5-0.224 0.5-0.5s-0.224-0.5-0.5-0.5c-1.379 0-2.5 1.122-2.5 2.5v1.671c-1.18 0.418-2 1.548-2 2.829 0 1.601 1.26 2.912 2.84 2.996 1.593 3.66 5.15 6.004 9.16 6.004s7.567-2.345 9.16-6.004c1.58-0.083 2.84-1.395 2.84-2.996 0-1.28-0.82-2.411-2.001-2.83z" />
</svg>