<svg id="apartment_Layer_1" viewBox="0 0 24 24" fill="currentColor" width="32" height="32" data-name="Layer 1" xmlns="http://www.w3.org/2000/svg" xmlns:xlink="http://www.w3.org/1999/xlink">
    <title>apartment</title>
    <path d="M10.5 15h-1C9.224 15 9 14.776 9 14.5S9.224 14 9.5 14h1c0.276 0 0.5 0.224 0.5 0.5S10.776 15 10.5 15zM15 14.5c0-0.276-0.224-0.5-0.5-0.5h-1c-0.276 0-0.5 0.224-0.5 0.5s0.224 0.5 0.5 0.5h1c0.276 0 0.5-0.224 0.5-0.5zM11 18.5c0-0.276-0.224-0.5-0.5-0.5h-1C9.224 18 9 18.224 9 18.5S9.224 19 9.5 19h1c0.276 0 0.5-0.224 0.5-0.5zM15 18.5c0-0.276-0.224-0.5-0.5-0.5h-1c-0.276 0-0.5 0.224-0.5 0.5s0.224 0.5 0.5 0.5h1c0.276 0 0.5-0.224 0.5-0.5zM11 6.5C11 6.224 10.776 6 10.5 6h-1C9.224 6 9 6.224 9 6.5S9.224 7 9.5 7h1C10.776 7 11 6.776 11 6.5zM15 6.5C15 6.224 14.776 6 14.5 6h-1C13.224 6 13 6.224 13 6.5S13.224 7 13.5 7h1C14.776 7 15 6.776 15 6.5zM11 10.5c0-0.276-0.224-0.5-0.5-0.5h-1C9.224 10 9 10.224 9 10.5S9.224 11 9.5 11h1c0.276 0 0.5-0.224 0.5-0.5zM15 10.5c0-0.276-0.224-0.5-0.5-0.5h-1c-0.276 0-0.5 0.224-0.5 0.5s0.224 0.5 0.5 0.5h1c0.276 0 0.5-0.224 0.5-0.5zM24 19.442V9.5C24 7.019 21.981 5 19.5 5H19V4.558C19 2.045 16.956 0 14.442 0H9.5C7.019 0 5 2.019 5 4.5V9H4.5C2.019 9 0 11.019 0 13.5v6C0 21.981 2.019 24 4.5 24h14.942C21.955 24 24 21.955 24 19.442zM5.5 10C5.776 10 6 9.776 6 9.5v-5C6 2.57 7.57 1 9.5 1h4.942C16.404 1 18 2.596 18 4.558V5.5C18 5.776 18.224 6 18.5 6h1C21.43 6 23 7.57 23 9.5v9.942C23 21.404 21.404 23 19.442 23H4.5C2.57 23 1 21.43 1 19.5v-6C1 11.57 2.57 10 4.5 10zM20 14.5c0-0.276-0.224-0.5-0.5-0.5h-1c-0.276 0-0.5 0.224-0.5 0.5s0.224 0.5 0.5 0.5h1c0.276 0 0.5-0.224 0.5-0.5zM20 18.5c0-0.276-0.224-0.5-0.5-0.5h-1c-0.276 0-0.5 0.224-0.5 0.5s0.224 0.5 0.5 0.5h1c0.276 0 0.5-0.224 0.5-0.5zM6 14.5C6 14.224 5.776 14 5.5 14h-1C4.224 14 4 14.224 4 14.5S4.224 15 4.5 15h1C5.776 15 6 14.776 6 14.5zM6 18.5C6 18.224 5.776 18 5.5 18h-1C4.224 18 4 18.224 4 18.5S4.224 19 4.5 19h1C5.776 19 6 18.776 6 18.5zM20 10.5c0-0.276-0.224-0.5-0.5-0.5h-1c-0.276 0-0.5 0.224-0.5 0.5s0.224 0.5 0.5 0.5h1c0.276 0 0.5-0.224 0.5-0.5z" />
</svg>