<svg id="app_notification_Layer_1" viewBox="0 0 24 24" fill="currentColor" width="32" height="32" data-name="Layer 1" xmlns="http://www.w3.org/2000/svg" xmlns:xlink="http://www.w3.org/1999/xlink">
    <title>app-notification</title>
    <path d="M22 10.5v9c0 2.481-2.019 4.5-4.5 4.5h-13C2.019 24 0 21.981 0 19.5v-13C0 4.019 2.019 2 4.5 2h9C13.776 2 14 2.224 14 2.5S13.776 3 13.5 3h-9C2.57 3 1 4.57 1 6.5v13C1 21.43 2.57 23 4.5 23h13c1.93 0 3.5-1.57 3.5-3.5v-9c0-0.276 0.224-0.5 0.5-0.5s0.5 0.224 0.5 0.5zM24 4c0 2.206-1.794 4-4 4s-4-1.794-4-4 1.794-4 4-4 4 1.794 4 4zM23 4c0-1.654-1.346-3-3-3s-3 1.346-3 3 1.346 3 3 3 3-1.346 3-3zM11.25 13c1.24 0 2.25 1.009 2.25 2.25s-1.01 2.25-2.25 2.25H10v2c0 0.276-0.224 0.5-0.5 0.5S9 19.776 9 19.5V14c0-0.551 0.448-1 1-1zM11.25 14H10v2.5h1.25c0.689 0 1.25-0.561 1.25-1.25S11.939 14 11.25 14zM14.5 19.5V14c0-0.551 0.448-1 1-1h1.25c1.24 0 2.25 1.009 2.25 2.25s-1.01 2.25-2.25 2.25H15.5v2c0 0.276-0.224 0.5-0.5 0.5s-0.5-0.224-0.5-0.5zM15.5 16.5h1.25c0.689 0 1.25-0.561 1.25-1.25S17.439 14 16.75 14H15.5zM7.154 14.529l0.935 4.876c0.052 0.271-0.126 0.533-0.397 0.585-0.266 0.047-0.533-0.126-0.585-0.397l-0.21-1.094H4.046l-0.228 1.102c-0.125 0.64-1.12 0.428-0.979-0.203l1.016-4.907c0.12-0.616 0.711-1.492 1.646-1.492 0.891 0 1.506 0.77 1.653 1.53zM6.705 17.5 6.172 14.719C6.128 14.494 5.899 14 5.5 14c-0.378 0-0.626 0.486-0.665 0.689L4.253 17.5z" />
</svg>