<svg id="appendicitis_Layer_1" viewBox="0 0 24 24" fill="currentColor" width="32" height="32" data-name="Layer 1" xmlns="http://www.w3.org/2000/svg" xmlns:xlink="http://www.w3.org/1999/xlink">
    <title>appendicitis</title>
    <path d="M24 4.735v6.38c0 1.711-0.774 3.294-2.126 4.344-0.488 0.407-1.943 0.857-2.628 1.209-0.166 0.086-0.229 0.138-0.229 0.332v0.5c0 1.078-0.579 2.064-1.5 2.596V22.5c0 0.827-0.673 1.5-1.5 1.5s-1.5-0.673-1.5-1.5v-2.404c-0.921-0.532-1.5-1.518-1.5-2.596L13 16.39c0-1.445 0.54-2.669 1.651-3.749 0.642-0.581 1.771-1.146 2.681-1.6 0.248-0.124 0.479-0.239 0.675-0.342L18 7.138c8e-3-0.293-0.267-0.536-0.556-0.497C16.068 6.804 14.006 6.999 12 6.999c-2.38 0-4.602-0.239-5.446-0.341C6.269 6.612 5.992 6.866 6 7.155V10.5C6 10.776 5.776 11 5.5 11S5 10.776 5 10.5V7.155C5 6.724 5.185 6.314 5.506 6.03 5.824 5.747 6.243 5.617 6.675 5.666 7.501 5.767 9.675 6 12 6c1.957 0 3.977-0.191 5.327-0.351 0.418-0.049 0.85 0.083 1.169 0.366C18.816 6.299 19 6.709 19 7.139v3.564c0 0.373-0.202 0.71-0.526 0.881-0.203 0.106-0.44 0.225-0.695 0.353-0.854 0.426-1.916 0.957-2.442 1.434-0.907 0.881-1.336 1.842-1.336 3.012l0.017 1.11c0 0.8 0.472 1.519 1.2 1.838 0.183 0.08 0.3 0.259 0.3 0.458V22.5c0 0.276 0.225 0.5 0.5 0.5s0.5-0.224 0.5-0.5v-2.711c0-0.199 0.117-0.378 0.3-0.458 0.729-0.319 1.2-1.038 1.2-1.831V17c0-0.82 0.579-1.121 0.771-1.219 0.583-0.316 2.006-0.768 2.465-1.104 1.114-0.866 1.748-2.162 1.748-3.562v-6.38c0-1.178-0.539-2.258-1.479-2.963-0.955-0.718-2.168-0.938-3.328-0.601-1.573 0.458-4.352 0.83-6.193 0.83s-4.62-0.372-6.193-0.83C4.65 0.836 3.437 1.054 2.481 1.772 1.542 2.478 1.002 3.558 1.002 4.735V12.5c0 0.276-0.224 0.5-0.5 0.5s-0.5-0.224-0.5-0.5V4.735C0 3.24 0.685 1.868 1.878 0.972 3.088 0.064 4.619-0.216 6.086 0.21 7.559 0.638 10.267 1 12 1s4.441-0.362 5.914-0.79c1.466-0.426 2.998-0.148 4.208 0.761C23.315 1.867 24 3.239 24 4.735zM11 18.5c0 3.033-2.468 5.5-5.5 5.5S0 21.533 0 18.5 2.468 13 5.5 13 11 15.467 11 18.5zM5.5 14c-0.171 0-0.334 0.032-0.5 0.051v1.526c0 0.473-0.135 0.935-0.39 1.336C4.211 17.542 4 18.091 4 18.5 4 19.327 4.673 20 5.5 20S7 19.327 7 18.5c0-0.409-0.211-0.958-0.61-1.588C6.135 16.512 6 16.05 6 15.577v-1.526C5.834 14.032 5.671 14 5.5 14zM10 18.5c0-1.953-1.258-3.602-3-4.224v1.3c0 0.283 0.081 0.559 0.233 0.799C7.742 17.177 8 17.892 8 18.5 8 19.878 6.879 21 5.5 21S3 19.878 3 18.5c0-0.608 0.258-1.322 0.767-2.124C3.919 16.136 4 15.859 4 15.577v-1.3c-1.742 0.621-3 2.271-3 4.224 0 2.481 2.019 4.5 4.5 4.5S10 20.982 10 18.5z" />
</svg>