<svg id="apple_juice_Layer_1" viewBox="0 0 24 24" fill="currentColor" width="32" height="32" data-name="Layer 1" xmlns="http://www.w3.org/2000/svg" xmlns:xlink="http://www.w3.org/1999/xlink">
    <title>apple-juice</title>
    <path d="M21 5h-4.56l0.336-2.687C16.87 1.564 17.51 1 18.265 1H21.5C21.776 1 22 0.776 22 0.5S21.776 0 21.5 0h-3.235c-1.258 0-2.325 0.941-2.481 2.189L15.432 5H9.5C7.57 5 6 6.57 6 8.5v2C6 10.776 6.224 11 6.5 11S7 10.776 7 10.5v-2C7 7.122 8.122 6 9.5 6h9.28C18.3 6.532 18 7.229 18 8v13c0 0.771 0.301 1.468 0.78 2H13c-0.276 0-0.5 0.224-0.5 0.5S12.724 24 13 24h8c1.654 0 3-1.346 3-3V8c0-1.654-1.346-3-3-3zM23 21c0 1.103-0.897 2-2 2s-2-0.897-2-2V8c0-1.103 0.897-2 2-2s2 0.897 2 2zM8.945 15.203c0.065-0.053 0.134-0.1 0.195-0.16 0.614-0.614 0.797-1.452 0.848-1.783 0.053-0.348-0.06-0.689-0.309-0.938-0.249-0.25-0.59-0.363-0.938-0.309-0.333 0.05-1.172 0.233-1.785 0.846-0.374 0.374-0.596 0.848-0.732 1.294-0.459-1.159-1.337-1.977-1.387-2.023-0.203-0.186-0.519-0.171-0.706 0.032-0.186 0.204-0.172 0.52 0.031 0.706 0.012 0.011 1.032 0.962 1.282 2.131H4.249c-2.343 0-4.249 2.019-4.249 4.5s1.907 4.5 4.25 4.5c0.528 0 1.045-0.103 1.536-0.304 0.139-0.059 0.287-0.058 0.428 0 0.49 0.202 1.007 0.304 1.536 0.304 2.343 0 4.25-2.019 4.25-4.5 0-2.039-1.296-3.746-3.055-4.296zM7.663 13.565c0.414-0.414 1.044-0.537 1.309-0.537C8.988 13.044 9.006 13.07 9 13.109c-0.028 0.183-0.15 0.811-0.566 1.227-0.376 0.376-0.949 0.539-1.37 0.61 0.066-0.425 0.223-1.004 0.599-1.381zM7.75 22.999c-0.397 0-0.786-0.077-1.154-0.229C6.404 22.691 6.202 22.651 6 22.651s-0.403 0.04-0.595 0.119c-0.369 0.152-0.757 0.229-1.155 0.229-1.792 0-3.25-1.57-3.25-3.5s1.458-3.5 3.249-3.5h3.502c1.792 0 3.249 1.57 3.249 3.5s-1.458 3.5-3.25 3.5z" />
</svg>