<svg id="apple_books_Layer_1" viewBox="0 0 24 24" fill="currentColor" width="32" height="32" data-name="Layer 1" xmlns="http://www.w3.org/2000/svg" xmlns:xlink="http://www.w3.org/1999/xlink">
    <title>apple-books</title>
    <path d="M23 21c0-1.213 0.856-2.149 0.865-2.158 0.135-0.146 0.172-0.358 0.092-0.541C23.878 18.118 23.698 18 23.499 18H17.93c1.835-1.224 3.069-3.451 3.069-5.998 0-3.395-2.186-6.233-5.075-6.867 0.254-0.158 0.502-0.335 0.724-0.558 0.962-0.962 1.263-2.292 1.346-3.237 0.032-0.365-0.097-0.723-0.354-0.98-0.258-0.258-0.615-0.381-0.981-0.354-0.947 0.082-2.277 0.382-3.241 1.345-0.602 0.6-0.944 1.35-1.143 2.05-0.276-1.81-1.337-3.139-1.337-3.139-0.133-0.243-0.437-0.333-0.678-0.199-0.243 0.132-0.332 0.436-0.2 0.678l0.125 0.225c0.442 0.79 1.244 2.238 1.303 4.036H9.294C5.823 5.002 3 8.145 3 12.004c0 2.547 1.235 4.774 3.069 5.998H3c-1.654 0-3 1.346-3 3s1.346 3 3 3h20.5c0.199 0 0.378-0.118 0.458-0.301s0.043-0.396-0.092-0.541c-9e-3-9e-3-0.865-0.945-0.866-2.16zM14.125 2.057c0.75-0.75 1.839-0.988 2.621-1.056 8e-3 0 0.016 0 0.023 0 0.083 0 0.138 0.041 0.164 0.066 0.028 0.028 0.074 0.09 0.065 0.186-0.068 0.781-0.307 1.869-1.056 2.618-0.864 0.862-2.211 1.062-2.925 1.105 0.043-0.713 0.244-2.057 1.108-2.919zM4 12.002C4 8.693 6.375 6.001 9.294 6h5.411c2.919 0 5.294 2.693 5.294 6.002S17.624 18 14.704 18c-0.589 0-1.168-0.108-1.721-0.321-0.317-0.122-0.65-0.183-0.984-0.183s-0.667 0.061-0.984 0.183C10.462 17.892 9.884 18 9.294 18 6.374 18 3.999 15.31 4 12.002zM22.545 23H3c-1.103 0-2-0.897-2-2s0.897-2 2-2h19.545C22.269 19.502 22 20.196 22 21s0.269 1.498 0.545 2z" />
</svg>