<svg id="apple_pie_Layer_1" viewBox="0 0 24 24" fill="currentColor" width="32" height="32" data-name="Layer 1" xmlns="http://www.w3.org/2000/svg" xmlns:xlink="http://www.w3.org/1999/xlink">
    <title>apple-pie</title>
    <path d="M3.048 13.001c-0.039-6e-3 0.041-3e-3 0 0zM16.47 7.913C16.812 8.254 17 8.708 17 9.192s-0.188 0.937-0.53 1.278C16.129 10.812 15.675 11 15.192 11s-0.938-0.188-1.279-0.53c-0.117-0.117-0.472-0.472-0.884-2.205-0.084-0.35 0.018-0.71 0.272-0.965 0.254-0.253 0.617-0.356 0.965-0.272 1.731 0.412 2.087 0.767 2.204 0.885zM16 9.192c0-0.216-0.084-0.419-0.237-0.572-0.028-0.028-0.312-0.281-1.729-0.619 0.305 1.449 0.558 1.734 0.586 1.762 0.305 0.305 0.836 0.306 1.143 0C15.916 9.61 16 9.408 16 9.192zM24 11c0 0.986-0.566 2.806-2.657 2.985l-0.539 3.251c-0.362 2.181-2.229 3.763-4.439 3.763H7.636c-2.21 0-4.077-1.583-4.439-3.763l-0.54-3.252C0.589 13.808 0.01 12.026 0 11.061 0 7.331 5.242 3 12 3c6.463 0 12 4.399 12 8zM20.298 14.177C19.682 14.647 18.781 15 18 15s-1.52-0.248-2.136-0.718c-0.492-0.374-1.235-0.375-1.728 0-1.232 0.939-3.039 0.94-4.272 0-0.492-0.374-1.235-0.375-1.728 0C7.52 14.752 6.76 14.987 6 14.987s-1.681-0.34-2.298-0.81l0.481 2.896C4.465 18.769 5.916 20 7.636 20h8.729c1.719 0 3.171-1.231 3.453-2.927zM23 11c0-2.753-4.724-7-11-7C5.907 4 1 7.86 1 11.056c4e-3 0.192 0.142 1.945 2.048 1.945 0.476 0.032 1.053 0.205 1.422 0.485 0.882 0.672 2.179 0.671 3.06 0 0.853-0.648 2.088-0.648 2.94 0 0.882 0.672 2.179 0.671 3.06 0C13.956 13.162 14.478 13 15 13s1.044 0.162 1.47 0.486c0.882 0.672 2.179 0.671 3.06 0 0.368-0.28 0.996-0.454 1.47-0.487 1.977 0 2-1.918 2-1.999zM10.699 7.3c0.254 0.254 0.356 0.615 0.272 0.965-0.412 1.732-0.768 2.087-0.884 2.204-0.341 0.342-0.795 0.53-1.279 0.53s-0.937-0.188-1.278-0.53C7.188 10.128 7 9.674 7 9.191s0.188-0.938 0.53-1.279C7.647 7.795 8.003 7.44 9.735 7.028c0.35-0.083 0.71 0.018 0.964 0.272zM9.998 8.033C8.549 8.338 8.264 8.591 8.236 8.619 8.083 8.772 7.999 8.974 7.999 9.191s0.084 0.418 0.237 0.571c0.305 0.306 0.837 0.305 1.143 0C9.407 9.734 9.66 9.45 9.998 8.033z" />
</svg>