<svg id="apple_dumbbell_Layer_1" viewBox="0 0 24 24" fill="currentColor" width="32" height="32" data-name="Layer 1" xmlns="http://www.w3.org/2000/svg" xmlns:xlink="http://www.w3.org/1999/xlink">
    <title>apple-dumbbell</title>
    <path d="M5.977 5h5.111C13.797 5 16 7.467 16 10.5c0 1.666-0.669 3.227-1.836 4.284-0.204 0.186-0.22 0.501-0.035 0.706 0.188 0.207 0.504 0.221 0.707 0.035C16.211 14.279 17 12.449 17 10.502c0-3.215-2.135-5.885-4.926-6.404 0.103-0.08 0.207-0.159 0.302-0.254 0.813-0.813 1.053-1.939 1.11-2.741 0.059-0.598-0.496-1.148-1.089-1.088-0.801 0.057-1.927 0.295-2.742 1.11-0.421 0.421-0.682 0.933-0.853 1.431-0.237-1.129-0.632-1.87-0.863-2.294-0.132-0.243-0.436-0.332-0.679-0.2-0.242 0.132-0.332 0.436-0.2 0.678 0.3 0.55 0.83 1.541 0.921 3.261H5.976C2.681 4 0 6.916 0 10.5c0 2.886 1.789 5.458 4.352 6.255 0.257 0.081 0.545-0.063 0.626-0.329 0.082-0.264-0.065-0.544-0.329-0.626-2.148-0.668-3.648-2.847-3.648-5.298C1.001 7.468 3.233 5 5.977 5zM10.362 1.832c0.628-0.628 1.589-0.783 2.12-0.814 7e-3 6e-3 7e-3 0.011 6e-3 0.014-0.037 0.517-0.192 1.479-0.819 2.105-0.623 0.623-1.578 0.799-2.154 0.848 0.049-0.575 0.226-1.531 0.847-2.153zM23.5 18H23v-1.5c0-0.827-0.673-1.5-1.5-1.5-0.176 0-0.343 0.036-0.5 0.092V14.5c0-0.827-0.673-1.5-1.5-1.5S18 13.673 18 14.5V18h-6v-3.5c0-0.827-0.673-1.5-1.5-1.5S9 13.673 9 14.5v0.592C8.843 15.036 8.676 15 8.5 15 7.673 15 7 15.673 7 16.5V18H6.5C6.224 18 6 18.224 6 18.5S6.224 19 6.5 19H7v1.5C7 21.327 7.673 22 8.5 22c0.176 0 0.343-0.036 0.5-0.092V22.5c0 0.827 0.673 1.5 1.5 1.5s1.5-0.673 1.5-1.5V19h6v3.5c0 0.827 0.673 1.5 1.5 1.5s1.5-0.673 1.5-1.5v-0.592C21.157 21.964 21.324 22 21.5 22c0.827 0 1.5-0.673 1.5-1.5V19h0.5c0.276 0 0.5-0.224 0.5-0.5S23.776 18 23.5 18zM8.5 21C8.225 21 8 20.776 8 20.5v-4C8 16.224 8.225 16 8.5 16S9 16.224 9 16.5v4C9 20.776 8.775 21 8.5 21zM11 22.5c0 0.276-0.225 0.5-0.5 0.5S10 22.776 10 22.5v-8c0-0.276 0.225-0.5 0.5-0.5s0.5 0.224 0.5 0.5zM20 22.5c0 0.276-0.225 0.5-0.5 0.5S19 22.776 19 22.5v-8c0-0.276 0.225-0.5 0.5-0.5s0.5 0.224 0.5 0.5zM22 20.5c0 0.276-0.225 0.5-0.5 0.5S21 20.776 21 20.5v-4c0-0.276 0.225-0.5 0.5-0.5s0.5 0.224 0.5 0.5z" />
</svg>