<svg id="apple_core_Layer_1" viewBox="0 0 24 24" fill="currentColor" width="32" height="32" data-name="Layer 1" xmlns="http://www.w3.org/2000/svg" xmlns:xlink="http://www.w3.org/1999/xlink">
    <title>apple-core</title>
    <path d="M17.134 16.418c-0.082-0.465-0.133-0.935-0.133-1.41 2e-3-2.219 0.943-4.399 2.582-5.981 0.316-0.306 0.467-0.746 0.404-1.178-0.016-0.109-0.046-0.213-0.086-0.312C19.788 7.242 19.574 7 19.285 6.854c-0.846-0.43-1.817-0.703-2.8-0.805 0.327-0.196 0.646-0.418 0.93-0.703 1.101-1.101 1.466-2.619 1.578-3.7 0.046-0.443-0.109-0.879-0.426-1.196s-0.751-0.477-1.196-0.426c-1.079 0.111-2.599 0.476-3.7 1.577-0.736 0.736-1.147 1.665-1.379 2.52-0.355-2.008-1.067-3.323-1.352-3.845-0.132-0.243-0.437-0.333-0.678-0.199-0.243 0.132-0.332 0.436-0.2 0.678 0.335 0.615 1.305 2.428 1.417 5.246H8.342c-1.235 0-2.469 0.295-3.567 0.853C4.486 7.001 4.273 7.243 4.16 7.537 4.12 7.636 4.089 7.74 4.074 7.849 4.011 8.282 4.162 8.722 4.479 9.028 6.081 10.575 7 12.754 7.002 15.009c0 0.464-0.047 0.922-0.12 1.373-0.287 1.762-1.113 3.398-2.379 4.619-0.317 0.306-0.468 0.746-0.405 1.179 0.061 0.419 0.31 0.771 0.684 0.964 1.122 0.579 2.319 0.873 3.561 0.873 0.272 0 0.518-0.029 0.75-0.071 1.004-0.096 1.995-0.376 2.909-0.858 0.928 0.49 1.939 0.779 2.968 0.872 0.215 0.035 0.443 0.058 0.691 0.058 1.26 0 2.554-0.311 3.644-0.873 0.373-0.194 0.622-0.546 0.683-0.965 0.063-0.433-0.088-0.873-0.405-1.179-1.291-1.245-2.14-2.864-2.449-4.583zM14.377 2.308c0.895-0.895 2.178-1.195 3.097-1.29 0.016 0 0.032-2e-3 0.048-2e-3 0.126 0 0.246 0.05 0.338 0.141 0.103 0.103 0.153 0.243 0.139 0.386-0.096 0.92-0.397 2.203-1.291 3.097-1.072 1.072-2.73 1.311-3.599 1.361-0.134-1.026 0.16-2.584 1.268-3.693zM18.832 22.256C17.888 22.735 16.761 23 15.659 23c-0.19 0-0.376-0.021-0.562-0.037-0.467-0.082-0.859-0.256-1.265-0.44-0.222-0.101-0.438-0.198-0.661-0.279-0.41-0.148-0.717-0.229-1.171-0.229s-0.761 0.081-1.171 0.229c-0.223 0.081-0.44 0.179-0.662 0.279-0.397 0.18-0.782 0.349-1.236 0.433-1.252 0.11-2.525-0.115-3.682-0.702-0.108-0.055-0.144-0.148-0.154-0.217-0.018-0.116 0.024-0.235 0.111-0.319 1.424-1.369 2.349-3.217 2.665-5.217C7.949 16.011 8 15.516 8 15.014c0-2e-3 0-5e-3 0-7e-3 0-3e-3 0-5e-3 0-7e-3 0-2.549-1.027-4.998-2.817-6.719-0.087-0.084-0.128-0.203-0.111-0.318 4e-3-0.026 0.089-0.163 0.143-0.19 0.965-0.5 2.045-0.764 3.125-0.764h7.318c1.103 0 2.232 0.271 3.183 0.764 0.055 0.028 0.14 0.172 0.144 0.192 0.017 0.116-0.025 0.233-0.111 0.317-1.827 1.757-2.875 4.205-2.875 6.719 0 2e-3 0 5e-3 0 7e-3s0 5e-3 0 7e-3c0 0.526 0.057 1.047 0.148 1.562 0.34 1.938 1.286 3.756 2.728 5.142 0.087 0.084 0.129 0.202 0.111 0.318-0.011 0.069-0.046 0.163-0.154 0.219z" />
</svg>