<svg id="april_calendar_Layer_1" viewBox="0 0 24 24" fill="currentColor" width="32" height="32" data-name="Layer 1" xmlns="http://www.w3.org/2000/svg" xmlns:xlink="http://www.w3.org/1999/xlink">
    <title>april-calendar</title>
    <path d="M15.5 16H14c-0.552 0-1 0.449-1 1v6.5c0 0.276 0.224 0.5 0.5 0.5s0.5-0.224 0.5-0.5V21h1.5c1.379 0 2.5-1.122 2.5-2.5S16.879 16 15.5 16zM15.5 20H14v-3h1.5c0.827 0 1.5 0.673 1.5 1.5S16.327 20 15.5 20zM24 18.5c0-1.378-1.121-2.5-2.5-2.5H20c-0.552 0-1 0.449-1 1v6.5c0 0.276 0.224 0.5 0.5 0.5s0.5-0.224 0.5-0.5V21h1.5c0.212 0 0.414-0.035 0.611-0.084l0.914 2.743c0.088 0.264 0.378 0.403 0.633 0.316 0.262-0.087 0.403-0.37 0.316-0.632l-0.956-2.869C23.611 20.016 24 19.307 24 18.5zM20 20v-3h1.5c0.827 0 1.5 0.673 1.5 1.5S22.327 20 21.5 20zM19.5 2H18V0.5C18 0.224 17.776 0 17.5 0S17 0.224 17 0.5V2H7V0.5C7 0.224 6.776 0 6.5 0S6 0.224 6 0.5V2H4.5C2.019 2 0 4.019 0 6.5v13C0 21.981 2.019 24 4.5 24 4.776 24 5 23.776 5 23.5S4.776 23 4.5 23C2.57 23 1 21.43 1 19.5V9h22v4.5c0 0.276 0.224 0.5 0.5 0.5s0.5-0.224 0.5-0.5v-7C24 4.019 21.981 2 19.5 2zM1 8V6.5C1 4.57 2.57 3 4.5 3h15C21.43 3 23 4.57 23 6.5V8zM10.73 17.116c-0.132-0.645-0.603-1.113-1.221-1.116-0.603-2e-3-1.097 0.489-1.213 1.085L7.01 23.402c-0.061 0.301 0.171 0.582 0.483 0.583h0.018c0.237 1e-3 0.441-0.163 0.487-0.391L8.324 22h2.388l0.335 1.611c0.047 0.226 0.248 0.388 0.482 0.389 0.314 2e-3 0.549-0.281 0.487-0.584zM8.528 21l0.76-3.719c0.035-0.147 0.135-0.334 0.283-0.267 0.038 0.018 0.128 0.115 0.166 0.299L10.504 21z" />
</svg>