<svg id="archway_Layer_1" viewBox="0 0 24 24" fill="currentColor" width="32" height="32" data-name="Layer 1" xmlns="http://www.w3.org/2000/svg" xmlns:xlink="http://www.w3.org/1999/xlink">
    <title>archway</title>
    <path d="M23.5 22H22V5.707l1.445-1.445c0.557-0.557 0.716-1.355 0.414-2.083s-0.979-1.18-1.766-1.18H1.906C1.119 1 0.442 1.452 0.141 2.18S-2e-3 3.705 0.555 4.262L2 5.707V22H0.5C0.224 22 0 22.224 0 22.5S0.224 23 0.5 23h4C5.879 23 7 21.878 7 20.5V16c0-2.757 2.243-5 5-5s5 2.243 5 5v4.5c0 1.378 1.121 2.5 2.5 2.5h4c0.276 0 0.5-0.224 0.5-0.5S23.776 22 23.5 22zM1.064 2.562C1.21 2.21 1.525 2 1.906 2h20.188c0.381 0 0.695 0.21 0.842 0.562 0.146 0.352 0.072 0.723-0.197 0.993L21.294 5H2.707L1.262 3.555c-0.27-0.27-0.343-0.641-0.198-0.993zM18 20.5V16c0-3.309-2.691-6-6-6s-6 2.691-6 6v4.5C6 21.327 5.327 22 4.5 22H3V6h18v16h-1.5c-0.827 0-1.5-0.673-1.5-1.5z" />
</svg>