<svg id="architect_plan_Layer_1" viewBox="0 0 24 24" fill="currentColor" width="32" height="32" data-name="Layer 1" xmlns="http://www.w3.org/2000/svg" xmlns:xlink="http://www.w3.org/1999/xlink">
    <title>architect-plan</title>
    <path d="M23 18.501V23.5c0 0.276-0.224 0.5-0.5 0.5S22 23.776 22 23.5v-4.999c0.038-1.53-1.497-2.794-2.992-2.451l-4.5 0.904c-1.163 0.234-2.008 1.266-2.008 2.451V23.5c0 0.276-0.224 0.5-0.5 0.5s-0.5-0.224-0.5-0.5v-4.095c0-1.186-0.844-2.217-2.008-2.451l-4.5-0.904C3.496 15.71 1.962 16.969 2 18.501V23.5C2 23.776 1.776 24 1.5 24S1 23.776 1 23.5v-4.999c-0.055-2.146 2.098-3.906 4.189-3.432l4.5 0.904c0.993 0.2 1.816 0.818 2.311 1.645 0.494-0.826 1.317-1.444 2.311-1.645l4.5-0.904c2.093-0.474 4.243 1.286 4.189 3.432zM4.5 6.5C4.5 6.224 4.724 6 5 6h1.009V5.51c-3e-3-1.471 0.568-2.854 1.607-3.896S10.037 0 11.509 0h1c3.028 0 5.496 2.463 5.5 5.49V6H19c0.276 0 0.5 0.224 0.5 0.5S19.276 7 19 7h-0.99l2e-3 1.999c0 3.31-2.691 6.001-6 6.001s-6-2.691-6-6L6.01 7H5C4.724 7 4.5 6.776 4.5 6.5zM17.01 7h-10l2e-3 1.999c0 2.758 2.243 5.001 5 5.001s5-2.243 5-5zM7.009 6h10V5.492c-4e-3-1.951-1.266-3.6-3.009-4.218V4c0 0.276-0.224 0.5-0.5 0.5S13 4.276 13 4V1.05C12.836 1.032 12.677 1 12.508 1h-1c-0.173 0-0.34 0.031-0.509 0.05V4c0 0.276-0.224 0.5-0.5 0.5s-0.5-0.224-0.5-0.5V1.275C9.378 1.496 8.803 1.839 8.323 2.32 7.472 3.173 7.006 4.304 7.008 5.508z" />
</svg>