<svg id="arrows_from_line_Layer_1" viewBox="0 0 24 24" fill="currentColor" width="32" height="32" data-name="Layer 1" xmlns="http://www.w3.org/2000/svg" xmlns:xlink="http://www.w3.org/1999/xlink">
    <title>arrows-from-line</title>
    <path d="M24 12c0 0.276-0.224 0.5-0.5 0.5h-23C0.224 12.5 0 12.276 0 12s0.224-0.5 0.5-0.5h23c0.276 0 0.5 0.224 0.5 0.5zM7.85 4.857 11.5 1.289v7.21c0 0.276 0.224 0.5 0.5 0.5s0.5-0.224 0.5-0.5V1.29l3.65 3.568c0.097 0.096 0.224 0.143 0.35 0.143 0.13 0 0.26-0.051 0.357-0.15 0.193-0.197 0.189-0.515-8e-3-0.707l-3.788-3.705c-0.585-0.585-1.536-0.585-2.117-4e-3L7.151 4.142c-0.197 0.192-0.201 0.51-8e-3 0.707 0.193 0.199 0.511 0.201 0.707 8e-3zM16.151 19.142l-3.65 3.568V15.5c0-0.276-0.224-0.5-0.5-0.5s-0.5 0.224-0.5 0.5v7.21l-3.65-3.568c-0.196-0.194-0.514-0.188-0.707 8e-3-0.193 0.197-0.189 0.515 8e-3 0.707l3.789 3.703c0.293 0.293 0.678 0.439 1.062 0.439s0.765-0.146 1.055-0.436l3.793-3.707c0.197-0.192 0.201-0.51 8e-3-0.707-0.191-0.198-0.509-0.2-0.708-7e-3z" />
</svg>