<svg id="arrow_alt_up_Layer_1" viewBox="0 0 24 24" fill="currentColor" width="32" height="32" data-name="Layer 1" xmlns="http://www.w3.org/2000/svg" xmlns:xlink="http://www.w3.org/1999/xlink">
    <title>arrow-alt-up</title>
    <path d="M17.269 4.799 12.907 0.38c-0.484-0.491-1.33-0.491-1.814 0L6.73 4.799C6.363 5.172 6.256 5.726 6.459 6.211c0.204 0.487 0.656 0.79 1.181 0.79h3.86V23.5c0 0.276 0.224 0.5 0.5 0.5s0.5-0.224 0.5-0.5V7h3.86c0.524 0 0.977-0.303 1.181-0.79 0.202-0.485 0.096-1.039-0.272-1.411zM16.619 5.825C16.597 5.878 16.527 6 16.361 6H7.64C7.474 6 7.405 5.877 7.382 5.825 7.36 5.77 7.319 5.627 7.443 5.501l4.361-4.418C11.857 1.03 11.927 1 12 1s0.144 0.029 0.196 0.083l4.36 4.418c0.125 0.126 0.084 0.269 0.063 0.324z" />
</svg>