<svg id="arrow_square_up_arrow-circle-down" viewBox="0 0 24 24" fill="currentColor" width="32" height="32" xmlns="http://www.w3.org/2000/svg" xmlns:xlink="http://www.w3.org/1999/xlink">
    <title>arrow-square-up</title>
    <path d="M19.5 0h-15C2.019 0 0 2.019 0 4.5v15C0 21.981 2.019 24 4.5 24h15c2.481 0 4.5-2.019 4.5-4.5v-15C24 2.019 21.981 0 19.5 0zM23 19.5c0 1.93-1.57 3.5-3.5 3.5h-15C2.57 23 1 21.43 1 19.5v-15C1 2.57 2.57 1 4.5 1h15C21.43 1 23 2.57 23 4.5z" />
    <path d="M14.475 7.39c-0.198-0.198-0.5-0.475-0.818-0.756-0.944-0.837-2.368-0.835-3.312 0-0.318 0.282-0.621 0.559-0.815 0.753l-2.879 2.828c-0.197 0.193-0.2 0.51-6e-3 0.707s0.51 0.199 0.708 6e-3l2.882-2.831c0.187-0.187 0.473-0.448 0.774-0.715 0.148-0.131 0.316-0.224 0.493-0.286V17.5c0 0.276 0.224 0.5 0.5 0.5s0.5-0.224 0.5-0.5V7.096c0.177 0.063 0.345 0.155 0.493 0.286 0.301 0.266 0.587 0.527 0.777 0.717l2.879 2.828c0.098 0.096 0.224 0.144 0.351 0.144 0.129 0 0.259-0.05 0.357-0.149 0.193-0.197 0.19-0.514-6e-3-0.707z" />
</svg>