<svg id="arrows_split_right_and_left_Layer_1" viewBox="0 0 24 24" fill="currentColor" width="32" height="32" data-name="Layer 1" xmlns="http://www.w3.org/2000/svg" xmlns:xlink="http://www.w3.org/1999/xlink">
    <title>arrows-split-right-and-left</title>
    <path d="M23.561 6.561 19.357 10.85C19.259 10.951 19.129 11 19 11c-0.126 0-0.252-0.048-0.35-0.143-0.197-0.193-0.2-0.51-7e-3-0.707L22.71 6H18c-3.033 0-5.5 2.468-5.5 5.5v12c0 0.276-0.224 0.5-0.5 0.5s-0.5-0.224-0.5-0.5v-12C11.5 8.468 9.033 6 6 6H1.29l4.067 4.15c0.193 0.197 0.19 0.514-7e-3 0.707C5.252 10.952 5.126 11 5 11c-0.129 0-0.259-0.05-0.357-0.15L0.436 6.557C0.157 6.278 0 5.915 0 5.5s0.155-0.776 0.439-1.061L4.643 0.15c0.193-0.2 0.509-0.2 0.707-8e-3 0.197 0.193 0.2 0.51 7e-3 0.707L1.29 5H6c2.699 0 5.019 1.653 6 4 0.981-2.347 3.301-4 6-4h4.71l-4.067-4.15c-0.193-0.197-0.19-0.514 7e-3-0.707 0.198-0.192 0.513-0.192 0.707 8e-3l4.207 4.293C23.843 4.723 24 5.076 24 5.501s-0.155 0.776-0.439 1.06z" />
</svg>