<svg id="arrow_alt_circle_left_Layer_1" viewBox="0 0 24 24" fill="currentColor" width="32" height="32" data-name="Layer 1" xmlns="http://www.w3.org/2000/svg" xmlns:xlink="http://www.w3.org/1999/xlink">
    <title>arrow-alt-circle-left</title>
    <path d="M12 0C5.383 0 0 5.383 0 12s5.383 12 12 12 12-5.383 12-12S18.617 0 12 0zM12 23C5.935 23 1 18.065 1 12S5.935 1 12 1 23 5.935 23 12 18.065 23 12 23zM18.5 11.5H12V7.639c0-0.524-0.302-0.976-0.79-1.18-0.484-0.203-1.039-0.096-1.412 0.272l-4.419 4.361c-0.245 0.242-0.38 0.564-0.38 0.908s0.135 0.666 0.38 0.908l4.418 4.36c0.247 0.244 0.575 0.374 0.909 0.374 0.169 0 0.34-0.033 0.503-0.102 0.487-0.204 0.79-0.655 0.79-1.18v-3.861h6.5c0.276 0 0.5-0.224 0.5-0.5s-0.224-0.5-0.499-0.499zM11 16.361c0 0.166-0.123 0.235-0.175 0.257-0.056 0.023-0.198 0.063-0.324-0.062l-4.418-4.36C6.029 12.143 6 12.073 6 11.999s0.029-0.144 0.083-0.196l4.418-4.36c0.068-0.067 0.141-0.086 0.202-0.086 0.053 0 0.097 0.014 0.123 0.025 0.052 0.022 0.175 0.091 0.175 0.257z" />
</svg>