<svg id="arrow_progress_alt_Layer_1" viewBox="0 0 24 24" fill="currentColor" width="32" height="32" data-name="Layer 1" xmlns="http://www.w3.org/2000/svg" xmlns:xlink="http://www.w3.org/1999/xlink">
    <title>arrow-progress-alt</title>
    <path d="M3 17H2c-1.103 0-2 0.897-2 2v1c0 1.103 0.897 2 2 2h1c1.103 0 2-0.897 2-2v-1c0-1.103-0.897-2-2-2zM4 20c0 0.551-0.449 1-1 1H2c-0.551 0-1-0.449-1-1v-1c0-0.551 0.449-1 1-1h1c0.551 0 1 0.449 1 1zM22 17h-1c-1.103 0-2 0.897-2 2v1c0 1.103 0.897 2 2 2h1c1.103 0 2-0.897 2-2v-1c0-1.103-0.897-2-2-2zM23 20c0 0.551-0.449 1-1 1h-1c-0.551 0-1-0.449-1-1v-1c0-0.551 0.449-1 1-1h1c0.551 0 1 0.449 1 1zM18.036 12H4c-2.206 0-4-1.794-4-4s1.794-4 4-4h18.678l-2.501-2.119c-0.21-0.178-0.237-0.494-0.058-0.705 0.177-0.21 0.493-0.237 0.705-0.058l2.671 2.263c0.325 0.292 0.506 0.696 0.506 1.119s-0.181 0.827-0.495 1.109l-2.682 2.272C20.73 7.961 20.615 8 20.501 8c-0.142 0-0.283-0.06-0.382-0.177-0.179-0.211-0.152-0.526 0.058-0.705l2.501-2.119H4c-1.654 0-3 1.346-3 3s1.346 3 3 3h14.036c1.978 0 3.68 1.474 3.959 3.429 0.039 0.273-0.151 0.527-0.424 0.566-0.024 3e-3-0.048 5e-3-0.071 5e-3-0.245 0-0.459-0.18-0.495-0.429-0.209-1.466-1.486-2.571-2.969-2.57zM16.494 18.381C16.819 18.673 17 19.077 17 19.5s-0.181 0.827-0.495 1.109l-2.682 2.272C13.729 22.961 13.614 23 13.5 23c-0.142 0-0.283-0.06-0.382-0.177-0.179-0.211-0.152-0.526 0.058-0.705l2.501-2.119H7.5c-0.276 0-0.5-0.224-0.5-0.5s0.224-0.5 0.5-0.5h8.178l-2.501-2.119c-0.21-0.178-0.237-0.494-0.058-0.705 0.178-0.21 0.492-0.237 0.705-0.058z" />
</svg>