<svg id="arrow_from_top_arrow-circle-down" viewBox="0 0 24 24" fill="currentColor" width="32" height="32" xmlns="http://www.w3.org/2000/svg" xmlns:xlink="http://www.w3.org/1999/xlink">
    <title>arrow-from-top</title>
    <path d="M10.939 22.561 5.853 17.475c-0.195-0.195-0.512-0.195-0.707 0s-0.195 0.512 0 0.707l5.085 5.086c0.472 0.473 1.1 0.732 1.768 0.732s1.295-0.26 1.768-0.732l5.086-5.086c0.195-0.195 0.195-0.512 0-0.707s-0.512-0.195-0.707 0l-5.086 5.086c-0.159 0.159-0.354 0.262-0.561 0.332V1h6c0.276 0 0.5-0.224 0.5-0.5S18.775 0 18.499 0H5.5C5.224 0 5 0.224 5 0.5S5.224 1 5.5 1h6v21.892c-0.207-0.07-0.402-0.173-0.561-0.331z" />
</svg>