<svg id="arrows_h_Layer_1" viewBox="0 0 24 24" fill="currentColor" width="32" height="32" data-name="Layer 1" xmlns="http://www.w3.org/2000/svg" xmlns:xlink="http://www.w3.org/1999/xlink">
    <title>arrows-h</title>
    <path d="M23.997 11.987c0-0.01 3e-3-0.019 3e-3-0.029-3e-3-0.812-0.323-1.572-0.902-2.142l-3.732-3.672c-0.197-0.192-0.514-0.192-0.707 6e-3-0.193 0.197-0.191 0.513 6e-3 0.707l3.732 3.672c0.274 0.27 0.457 0.606 0.543 0.971H1.06c0.087-0.365 0.269-0.701 0.544-0.971l3.732-3.672c0.197-0.194 0.2-0.51 6e-3-0.707-0.194-0.198-0.511-0.2-0.707-6e-3L0.902 9.816C0.324 10.385 3e-3 11.146 0 11.958c0 0.01 3e-3 0.019 3e-3 0.029L0 12c0 0.013 6e-3 0.024 7e-3 0.037 0.017 0.782 0.322 1.514 0.877 2.07l3.747 3.747C4.729 17.952 4.857 18 4.985 18s0.256-0.049 0.354-0.146c0.195-0.195 0.195-0.512 0-0.707L1.592 13.4c-0.253-0.253-0.422-0.564-0.513-0.899h21.842c-0.091 0.336-0.26 0.647-0.513 0.899l-3.747 3.747c-0.195 0.195-0.195 0.512 0 0.707C18.759 17.952 18.887 18 19.015 18s0.256-0.049 0.354-0.146l3.747-3.747c0.555-0.554 0.86-1.288 0.877-2.07 0-0.013 7e-3-0.024 7e-3-0.037z" />
</svg>