<svg id="arrows_repeat_1_Layer_1" viewBox="0 0 24 24" fill="currentColor" width="32" height="32" data-name="Layer 1" xmlns="http://www.w3.org/2000/svg" xmlns:xlink="http://www.w3.org/1999/xlink">
    <title>arrows-repeat-1</title>
    <path d="M12 15.5V9.707l-2.146 2.146c-0.195 0.195-0.512 0.195-0.707 0s-0.195-0.512 0-0.707l3-3c0.143-0.144 0.357-0.185 0.545-0.108 0.187 0.077 0.309 0.26 0.309 0.462v7c0 0.276-0.224 0.5-0.5 0.5s-0.5-0.224-0.501-0.5zM23.5 12c-0.276 0-0.5 0.224-0.5 0.5 0 3.584-2.916 6.5-6.5 6.5H1.293l3.146-3.146c0.195-0.195 0.195-0.512 0-0.707s-0.512-0.195-0.707 0l-3.293 3.292c-0.585 0.585-0.585 1.536 0 2.121l3.293 3.293c0.098 0.098 0.226 0.146 0.354 0.146s0.256-0.049 0.354-0.146c0.195-0.195 0.195-0.512 0-0.707L1.294 20h15.207c4.136 0 7.5-3.364 7.5-7.5 0-0.276-0.224-0.5-0.501-0.5zM0.5 12C0.776 12 1 11.776 1 11.5 1 7.916 3.916 5 7.5 5h15.207l-3.146 3.146c-0.195 0.195-0.195 0.512 0 0.707 0.098 0.098 0.226 0.146 0.354 0.146s0.256-0.049 0.354-0.146l3.293-3.293c0.585-0.585 0.585-1.536 0-2.121l-3.294-3.293c-0.195-0.195-0.512-0.195-0.707 0s-0.195 0.512 0 0.707l3.146 3.146H7.5C3.364 4 0 7.364 0 11.5 0 11.776 0.224 12 0.5 12z" />
</svg>