<svg id="arrow_circle_right_arrow-circle-down" viewBox="0 0 24 24" fill="currentColor" width="32" height="32" xmlns="http://www.w3.org/2000/svg" xmlns:xlink="http://www.w3.org/1999/xlink">
    <title>arrow-circle-right</title>
    <path d="M12 0C5.383 0 0 5.383 0 12s5.383 12 12 12 12-5.383 12-12S18.617 0 12 0zM12 23C5.935 23 1 18.065 1 12S5.935 1 12 1 23 5.935 23 12 18.065 23 12 23z" />
    <path d="M16.613 9.528 13.785 6.649c-0.194-0.197-0.51-0.2-0.707-6e-3s-0.2 0.51-6e-3 0.708l2.831 2.882c0.187 0.187 0.448 0.473 0.715 0.774 0.131 0.148 0.224 0.316 0.286 0.493H6.5C6.224 11.5 6 11.724 6 12s0.224 0.5 0.5 0.5h10.404c-0.063 0.177-0.155 0.345-0.287 0.493-0.266 0.301-0.527 0.587-0.717 0.777l-2.828 2.879c-0.194 0.197-0.191 0.514 6e-3 0.708 0.098 0.095 0.224 0.143 0.351 0.143 0.129 0 0.259-0.05 0.356-0.149l2.825-2.876c0.198-0.198 0.475-0.5 0.756-0.818 0.837-0.944 0.837-2.368 0-3.312-0.282-0.318-0.559-0.621-0.753-0.817z" />
</svg>