<svg id="arrow_alt_circle_down_Layer_1" viewBox="0 0 24 24" fill="currentColor" width="32" height="32" data-name="Layer 1" xmlns="http://www.w3.org/2000/svg" xmlns:xlink="http://www.w3.org/1999/xlink">
    <title>arrow-alt-circle-down</title>
    <path d="M12 0C5.383 0 0 5.383 0 12s5.383 12 12 12 12-5.383 12-12S18.617 0 12 0zM12 23C5.935 23 1 18.065 1 12S5.935 1 12 1 23 5.935 23 12 18.065 23 12 23zM16.361 12H12.5V5.5C12.5 5.224 12.276 5 12 5s-0.5 0.224-0.5 0.5V12H7.639c-0.524 0-0.976 0.302-1.18 0.79-0.203 0.485-0.096 1.039 0.272 1.412l4.361 4.419c0.242 0.245 0.564 0.38 0.908 0.38s0.666-0.135 0.908-0.38l4.36-4.418c0.368-0.373 0.475-0.927 0.272-1.412-0.204-0.487-0.655-0.79-1.179-0.791zM16.557 13.499l-4.36 4.418c-0.106 0.107-0.288 0.107-0.393 0l-4.36-4.418c-0.125-0.126-0.084-0.269-0.062-0.324C7.404 13.123 7.473 13 7.639 13h8.722c0.166 0 0.235 0.123 0.257 0.175 0.023 0.056 0.063 0.198-0.061 0.324z" />
</svg>