<svg id="arrows_to_line_Layer_1" viewBox="0 0 24 24" fill="currentColor" width="32" height="32" data-name="Layer 1" xmlns="http://www.w3.org/2000/svg" xmlns:xlink="http://www.w3.org/1999/xlink">
    <title>arrows-to-line</title>
    <path d="M24 12c0 0.276-0.224 0.5-0.5 0.5h-23C0.224 12.5 0 12.276 0 12s0.224-0.5 0.5-0.5h23c0.276 0 0.5 0.224 0.5 0.5zM10.939 8.561C11.232 8.854 11.617 9 12.001 9s0.765-0.146 1.055-0.436l3.793-3.707c0.197-0.192 0.201-0.51 8e-3-0.707-0.191-0.197-0.509-0.2-0.707-8e-3L12.5 7.71V0.5C12.5 0.224 12.276 0 12 0s-0.5 0.224-0.5 0.5v7.21L7.85 4.142C7.653 3.948 7.336 3.954 7.143 4.15 6.95 4.347 6.954 4.665 7.151 4.857zM13.06 15.44c-0.585-0.585-1.536-0.585-2.117-4e-3L7.15 19.143c-0.197 0.192-0.201 0.51-8e-3 0.707 0.193 0.198 0.51 0.2 0.707 8e-3l3.65-3.568v7.21c0 0.276 0.224 0.5 0.5 0.5s0.5-0.224 0.5-0.5v-7.21l3.65 3.568c0.097 0.096 0.224 0.143 0.35 0.143 0.13 0 0.26-0.051 0.357-0.15 0.193-0.197 0.189-0.515-8e-3-0.707z" />
</svg>