<svg id="arrow_left_Layer_1" viewBox="0 0 24 24" fill="currentColor" width="32" height="32" data-name="Layer 1" xmlns="http://www.w3.org/2000/svg" xmlns:xlink="http://www.w3.org/1999/xlink">
    <title>arrow-left</title>
    <path d="M0 12c0 0 0-6e-3 0 0zM23.5 11.5H1.089c0.075-0.209 0.198-0.401 0.364-0.565l3.948-4.043c0.193-0.197 0.189-0.514-9e-3-0.707-0.197-0.192-0.513-0.189-0.707 9e-3L0.744 10.23C0.27 10.697 6e-3 11.335 0 12c2e-3 0.658 0.258 1.296 0.716 1.761l3.923 4.086C4.737 17.949 4.868 18 5 18c0.125 0 0.25-0.046 0.346-0.14 0.199-0.19 0.206-0.508 0.015-0.707l-3.928-4.091C1.273 12.9 1.154 12.708 1.082 12.5H23.5c0.276 0 0.5-0.224 0.5-0.5s-0.224-0.5-0.5-0.5z" />
</svg>