<svg id="arrow_down_left_Layer_1" viewBox="0 0 24 24" fill="currentColor" width="32" height="32" data-name="Layer 1" xmlns="http://www.w3.org/2000/svg" xmlns:xlink="http://www.w3.org/1999/xlink">
    <title>arrow-down-left</title>
    <path d="M23.85 0.15c-0.2-0.2-0.51-0.2-0.71 0L1.42 21.88C1.16 21.48 1 21.01 1 20.5v-10C1 10.22 0.78 10 0.5 10S0 10.22 0 10.5v10C0 22.43 1.57 24 3.5 24h10c0.28 0 0.5-0.22 0.5-0.5S13.78 23 13.5 23h-10c-0.51 0-0.98-0.15-1.38-0.42L23.85 0.85c0.2-0.2 0.2-0.51 0-0.7z" />
</svg>