<svg id="arrow_up_from_square_Layer_1" viewBox="0 0 24 24" fill="currentColor" width="32" height="32" data-name="Layer 1" xmlns="http://www.w3.org/2000/svg" xmlns:xlink="http://www.w3.org/1999/xlink">
    <title>arrow-up-from-square</title>
    <path d="M5.64 5.847C5.449 5.648 5.454 5.331 5.654 5.14l4.585-4.414c0.93-0.931 2.585-0.938 3.528 7e-3l4.579 4.407c0.199 0.191 0.205 0.508 0.014 0.707C18.262 5.949 18.131 6 18 6c-0.125 0-0.25-0.046-0.347-0.14l-4.586-4.414c-0.163-0.163-0.359-0.28-0.567-0.351V15.5c0 0.276-0.224 0.5-0.5 0.5s-0.5-0.224-0.5-0.5V1.094c-0.208 0.07-0.401 0.185-0.561 0.345L6.347 5.86C6.149 6.051 5.831 6.046 5.64 5.847zM21.437 6.32c-0.134-0.241-0.438-0.329-0.68-0.194-0.242 0.134-0.329 0.438-0.194 0.68C20.849 7.321 21 7.907 21 8.501v11c0 1.93-1.57 3.5-3.5 3.5h-11c-1.93 0-3.5-1.57-3.5-3.5V8.5c0-0.615 0.162-1.22 0.468-1.75 0.139-0.239 0.057-0.545-0.182-0.683C3.045 5.927 2.74 6.01 2.603 6.249 2.209 6.931 2 7.708 2 8.499v11c0 2.481 2.019 4.5 4.5 4.5h11c2.481 0 4.5-2.019 4.5-4.5V8.5c0-0.764-0.195-1.518-0.563-2.18z" />
</svg>