<svg id="arrow_up_square_triangle_Layer_1" viewBox="0 0 24 24" fill="currentColor" width="32" height="32" data-name="Layer 1" xmlns="http://www.w3.org/2000/svg" xmlns:xlink="http://www.w3.org/1999/xlink">
    <title>arrow-up-square-triangle</title>
    <path d="M16.5 10h4c1.378 0 2.5-1.122 2.5-2.5v-4C23 2.122 21.878 1 20.5 1h-4C15.122 1 14 2.122 14 3.5v4c0 1.378 1.122 2.5 2.5 2.5zM15 3.5C15 2.673 15.673 2 16.5 2h4C21.327 2 22 2.673 22 3.5v4C22 8.327 21.327 9 20.5 9h-4C15.673 9 15 8.327 15 7.5zM23.73 19.87l-3.38-5.519c-0.374-0.689-1.065-1.102-1.85-1.102s-1.476 0.412-1.836 1.079l-3.407 5.564c-0.357 0.658-0.341 1.436 0.042 2.079 0.383 0.644 1.059 1.028 1.808 1.028h6.787c0.749 0 1.425-0.384 1.808-1.028S24.1 20.55 23.73 19.87zM22.842 21.46C22.641 21.798 22.286 22 21.893 22h-6.787c-0.393 0-0.748-0.202-0.949-0.54-0.201-0.337-0.209-0.745-0.035-1.068l3.407-5.564c0.196-0.362 0.559-0.578 0.971-0.578s0.774 0.216 0.984 0.601l3.38 5.519c0.187 0.346 0.179 0.753-0.022 1.09zM10.854 4.318c0.195 0.195 0.195 0.512 0 0.707-0.098 0.098-0.226 0.146-0.354 0.146s-0.256-0.049-0.354-0.146L6.561 1.439C6.401 1.279 6.208 1.165 6 1.095V23.5C6 23.776 5.776 24 5.5 24S5 23.776 5 23.5V1.096C4.792 1.166 4.599 1.28 4.439 1.44L0.854 5.025c-0.195 0.195-0.512 0.195-0.707 0s-0.195-0.512 0-0.707l3.585-3.586c0.943-0.944 2.592-0.944 3.535 0z" />
</svg>