<svg id="arrow_alt_to_left_Layer_1" viewBox="0 0 24 24" fill="currentColor" width="32" height="32" data-name="Layer 1" xmlns="http://www.w3.org/2000/svg" xmlns:xlink="http://www.w3.org/1999/xlink">
    <title>arrow-alt-to-left</title>
    <path d="M23.5 11.5H8V7.639c0-0.524-0.302-0.976-0.79-1.18-0.485-0.203-1.039-0.095-1.412 0.272L1.38 11.092C1.135 11.334 1 11.656 1 12s0.135 0.666 0.38 0.908l4.418 4.36c0.247 0.244 0.575 0.374 0.909 0.374 0.169 0 0.34-0.033 0.503-0.102C7.697 17.336 8 16.885 8 16.36v-3.861h15.5c0.276 0 0.5-0.224 0.5-0.5s-0.224-0.5-0.5-0.499zM7 16.361c0 0.166-0.123 0.235-0.175 0.257-0.055 0.023-0.198 0.063-0.324-0.062l-4.418-4.359C2.029 12.144 2 12.074 2 12s0.029-0.144 0.083-0.196l4.418-4.361c0.068-0.067 0.141-0.086 0.202-0.086 0.053 0 0.097 0.014 0.123 0.025 0.052 0.022 0.175 0.091 0.175 0.257zM1 3.5V21c0 0.276-0.224 0.5-0.5 0.5S0 21.276 0 21V3.5C0 3.224 0.224 3 0.5 3S1 3.224 1 3.5z" />
</svg>