<svg id="arrow_down_from_arc_Layer_1" viewBox="0 0 24 24" fill="currentColor" width="32" height="32" data-name="Layer 1" xmlns="http://www.w3.org/2000/svg" xmlns:xlink="http://www.w3.org/1999/xlink">
    <title>arrow-down-from-arc</title>
    <path d="M18.854 17.147c0.195 0.196 0.193 0.513-2e-3 0.707l-5.721 5.677c-0.312 0.312-0.722 0.468-1.131 0.468s-0.821-0.156-1.134-0.469l-5.72-5.676c-0.195-0.194-0.197-0.511-2e-3-0.707 0.193-0.196 0.51-0.198 0.707-2e-3l5.647 5.604V7.5c0-0.276 0.224-0.5 0.5-0.5s0.5 0.224 0.5 0.5v15.25l5.647-5.604c0.196-0.196 0.513-0.194 0.709 1e-3zM12 0C5.553 0 0.286 5.042 0.011 11.479-1e-3 11.755 0.214 11.988 0.49 12 0.795 12.017 1 11.797 1.011 11.522 1.263 5.622 6.09 1 12 1s10.737 4.622 10.989 10.521C23.001 11.79 23.222 12 23.489 12c7e-3 0 0.014 0 0.021 0 0.275-0.012 0.49-0.245 0.479-0.521C23.714 5.042 18.447 0 12 0z" />
</svg>