<svg id="arrow_trend_up_Layer_1" viewBox="0 0 24 24" fill="currentColor" width="32" height="32" data-name="Layer 1" xmlns="http://www.w3.org/2000/svg" xmlns:xlink="http://www.w3.org/1999/xlink">
    <title>arrow-trend-up</title>
    <path d="M21.5 6h-6C15.224 6 15 6.224 15 6.5S15.224 7 15.5 7h6c0.231 0 0.451 0.053 0.646 0.147l-8.705 8.705c-0.244 0.244-0.639 0.244-0.883 0l-4.359-4.359c-0.662-0.662-1.736-0.662-2.398 0l-5.655 5.653c-0.195 0.195-0.195 0.512 0 0.707 0.098 0.098 0.226 0.146 0.354 0.146s0.256-0.049 0.354-0.146l5.654-5.654c0.264-0.262 0.721-0.262 0.984 0l4.359 4.359c0.613 0.613 1.684 0.613 2.297 0l8.705-8.704C22.947 8.05 23 8.269 23 8.5v6c0 0.276 0.224 0.5 0.5 0.5s0.5-0.224 0.5-0.5v-6C24 7.121 22.879 6 21.5 6z" />
</svg>