<svg id="arrow_alt_to_right_Layer_1" viewBox="0 0 24 24" fill="currentColor" width="32" height="32" data-name="Layer 1" xmlns="http://www.w3.org/2000/svg" xmlns:xlink="http://www.w3.org/1999/xlink">
    <title>arrow-alt-to-right</title>
    <path d="M18.201 6.731c-0.373-0.368-0.927-0.476-1.412-0.272C16.302 6.663 16 7.115 16 7.639V11.5H0.5C0.224 11.5 0 11.724 0 12s0.224 0.5 0.5 0.5H16v3.861c0 0.524 0.302 0.976 0.789 1.18 0.163 0.068 0.334 0.102 0.503 0.102 0.334 0 0.662-0.129 0.91-0.374l4.418-4.361C22.865 12.666 23 12.344 23 12s-0.135-0.666-0.38-0.908zM21.917 12.196 17.5 16.556c-0.129 0.125-0.271 0.084-0.325 0.062C17.122 16.596 17 16.527 17 16.361V7.639c0-0.166 0.122-0.235 0.175-0.257 0.025-0.011 0.07-0.025 0.123-0.025 0.061 0 0.134 0.02 0.201 0.086l4.418 4.36C21.971 11.856 22 11.926 22 12s-0.029 0.144-0.083 0.196zM24 3.5v17c0 0.276-0.224 0.5-0.5 0.5S23 20.776 23 20.5v-17C23 3.224 23.224 3 23.5 3S24 3.224 24 3.5z" />
</svg>