<svg id="arrow_from_bottom_Layer_1" viewBox="0 0 24 24" fill="currentColor" width="32" height="32" data-name="Layer 1" xmlns="http://www.w3.org/2000/svg" xmlns:xlink="http://www.w3.org/1999/xlink">
    <title>arrow-from-bottom</title>
    <path d="M19 23.5c0 0.276-0.224 0.5-0.5 0.5h-13C5.224 24 5 23.776 5 23.5S5.224 23 5.5 23h6V1.098c-0.204 0.072-0.398 0.179-0.561 0.342L6.342 6.036c-0.195 0.195-0.512 0.195-0.707 0s-0.195-0.512 0-0.707l4.597-4.597c0.485-0.485 1.121-0.728 1.758-0.73 4e-3 0 7e-3-2e-3 0.01-2e-3 4e-3 0 7e-3 2e-3 0.01 2e-3 0.637 3e-3 1.273 0.246 1.757 0.73l4.597 4.596c0.195 0.195 0.195 0.512 0 0.707-0.098 0.098-0.226 0.146-0.354 0.146s-0.256-0.049-0.354-0.146l-4.595-4.596C12.898 1.276 12.705 1.17 12.5 1.097v21.902h6c0.276 0 0.5 0.224 0.5 0.501z" />
</svg>