<svg id="arrow_alt_from_right_Layer_1" viewBox="0 0 24 24" fill="currentColor" width="32" height="32" data-name="Layer 1" xmlns="http://www.w3.org/2000/svg" xmlns:xlink="http://www.w3.org/1999/xlink">
    <title>arrow-alt-from-right</title>
    <path d="M23.5 3C23.224 3 23 3.224 23 3.5v8H7V7.639c0-0.524-0.302-0.976-0.79-1.18-0.485-0.203-1.039-0.096-1.412 0.272L0.38 11.092C0.135 11.334 0 11.656 0 12s0.135 0.666 0.38 0.908l4.418 4.36c0.247 0.244 0.575 0.374 0.909 0.374 0.169 0 0.34-0.033 0.503-0.102C6.697 17.336 7 16.885 7 16.36v-3.861h16v8c0 0.276 0.224 0.5 0.5 0.5s0.5-0.224 0.5-0.5V3.5C24 3.224 23.776 3 23.5 3zM6 16.361c0 0.166-0.123 0.235-0.175 0.257-0.056 0.023-0.197 0.063-0.324-0.062l-4.418-4.359C1.029 12.144 1 12.074 1 12s0.029-0.144 0.083-0.196l4.418-4.361c0.068-0.067 0.141-0.086 0.202-0.086 0.053 0 0.097 0.014 0.123 0.025 0.052 0.022 0.175 0.091 0.175 0.257z" />
</svg>