<svg id="arrows_retweet_Layer_1" viewBox="0 0 24 24" fill="currentColor" width="32" height="32" data-name="Layer 1" xmlns="http://www.w3.org/2000/svg" xmlns:xlink="http://www.w3.org/1999/xlink">
    <title>arrows-retweet</title>
    <path d="M23.84 16.87l-2.59 2.41C20.79 19.74 20.16 20 19.49 20s-1.3-0.26-1.77-0.73l-2.57-2.4c-0.2-0.19-0.21-0.5-0.02-0.71 0.19-0.2 0.5-0.21 0.71-0.02l2.59 2.41c0.17 0.17 0.36 0.28 0.57 0.36V8.5C19 6.57 17.43 5 15.5 5h-6C9.22 5 9 4.78 9 4.5S9.22 4 9.5 4h6C17.98 4 20 6.02 20 8.5v10.41c0.21-0.07 0.4-0.19 0.56-0.35l2.6-2.43c0.2-0.19 0.52-0.18 0.71 0.02s0.18 0.52-0.03 0.72zM14.5 19h-6C6.57 19 5 17.43 5 15.5V5.1c0.21 0.07 0.41 0.19 0.57 0.36l2.59 2.41C8.26 7.96 8.38 8 8.5 8 8.63 8 8.77 7.95 8.87 7.84c0.19-0.2 0.18-0.52-0.02-0.71l-2.57-2.4C5.34 3.78 3.68 3.8 2.76 4.72l-2.6 2.41c-0.2 0.19-0.21 0.5-0.02 0.71 0.19 0.2 0.5 0.21 0.71 0.02l2.6-2.43C3.61 5.27 3.8 5.15 4.01 5.08V15.5c0 2.48 2.02 4.5 4.5 4.5h6c0.28 0 0.5-0.22 0.5-0.5S14.79 19 14.5 19z" />
</svg>