<svg id="arrow_up_right_and_arrow_down_left_from_center_Layer_1" viewBox="0 0 24 24" fill="currentColor" width="32" height="32" data-name="Layer 1" xmlns="http://www.w3.org/2000/svg" xmlns:xlink="http://www.w3.org/1999/xlink">
    <title>arrow-up-right-and-arrow-down-left-from-center</title>
    <path d="M9.854 14.146c0.195 0.195 0.195 0.512 0 0.707l-8 8C2.05 22.947 2.269 23 2.5 23h5C7.776 23 8 23.224 8 23.5S7.776 24 7.5 24h-5C1.121 24 0 22.878 0 21.5v-5C0 16.224 0.224 16 0.5 16S1 16.224 1 16.5v5c0 0.231 0.053 0.451 0.147 0.646l8-8c0.195-0.195 0.512-0.195 0.707 0zM21.5 0h-5C16.224 0 16 0.224 16 0.5S16.224 1 16.5 1h5c0.231 0 0.451 0.053 0.646 0.147l-8 8c-0.195 0.195-0.195 0.512 0 0.707C14.244 9.952 14.372 10 14.5 10s0.256-0.049 0.354-0.146l7.999-8C22.947 2.05 23 2.269 23 2.5v5C23 7.776 23.224 8 23.5 8S24 7.776 24 7.5v-5C24 1.122 22.879 0 21.5 0z" />
</svg>