<svg id="arrow_upward_growth_crypto_Layer_1" viewBox="0 0 24 24" fill="currentColor" width="32" height="32" data-name="Layer 1" xmlns="http://www.w3.org/2000/svg" xmlns:xlink="http://www.w3.org/1999/xlink">
    <title>arrow-upward-growth-crypto</title>
    <path d="M12.499 10.025 12.476 1.29l3.675 3.568C16.249 4.953 16.374 5 16.5 5c0.131 0 0.261-0.051 0.358-0.151 0.192-0.198 0.188-0.515-0.01-0.707l-3.813-3.703c-0.586-0.585-1.538-0.586-2.118-3e-3L7.149 4.143C6.952 4.336 6.95 4.654 7.143 4.85c0.193 0.197 0.51 0.199 0.707 6e-3l3.625-3.567 0.023 8.736C7.873 10.284 4.999 13.309 4.999 17c0 3.859 3.141 7 7 7s7-3.141 7-7c0-3.691-2.875-6.717-6.5-6.975zM12 23c-3.309 0-6-2.691-6-6s2.691-6 6-6 6 2.691 6 6-2.691 6-6 6zM14.377 16.803C14.763 16.399 15 15.852 15 15.25 15 14.01 13.99 13 12.75 13H12.5v-0.5c0-0.276-0.224-0.5-0.5-0.5s-0.5 0.224-0.5 0.5V13H11c-0.827 0-1.5 0.673-1.5 1.5v5c0 0.827 0.673 1.5 1.5 1.5h0.5v0.5c0 0.276 0.224 0.5 0.5 0.5s0.5-0.224 0.5-0.5V21h0.75c1.24 0 2.25-1.01 2.25-2.25 0-0.83-0.452-1.558-1.123-1.947zM10.5 14.5c0-0.275 0.225-0.5 0.5-0.5h1.75c0.689 0 1.25 0.561 1.25 1.25s-0.561 1.25-1.25 1.25H10.5zM13.25 20H11c-0.275 0-0.5-0.225-0.5-0.5v-2h2.75c0.689 0 1.25 0.561 1.25 1.25S13.939 20 13.25 20z" />
</svg>