<svg id="arrows_to_dotted_line_Layer_1" viewBox="0 0 24 24" fill="currentColor" width="32" height="32" data-name="Layer 1" xmlns="http://www.w3.org/2000/svg" xmlns:xlink="http://www.w3.org/1999/xlink">
    <title>arrows-to-dotted-line</title>
    <path d="M7 12c0 0.552-0.448 1-1 1s-1-0.448-1-1 0.448-1 1-1 1 0.448 1 1zM13 12c0 0.552 0.448 1 1 1s1-0.448 1-1-0.448-1-1-1-1 0.448-1 1zM2 11c-0.552 0-1 0.448-1 1s0.448 1 1 1 1-0.448 1-1-0.448-1-1-1zM18 11c-0.552 0-1 0.448-1 1s0.448 1 1 1 1-0.448 1-1-0.448-1-1-1zM22 11c-0.552 0-1 0.448-1 1s0.448 1 1 1 1-0.448 1-1-0.448-1-1-1zM10 11c-0.552 0-1 0.448-1 1s0.448 1 1 1 1-0.448 1-1-0.448-1-1-1zM10.939 8.561C11.232 8.854 11.617 9 12.001 9s0.765-0.146 1.055-0.436l3.793-3.707c0.197-0.192 0.201-0.51 8e-3-0.707-0.191-0.197-0.509-0.2-0.707-8e-3L12.5 7.71V0.5C12.5 0.224 12.276 0 12 0s-0.5 0.224-0.5 0.5v7.21L7.85 4.142C7.654 3.948 7.336 3.954 7.143 4.15 6.95 4.347 6.954 4.665 7.151 4.857zM13.06 15.44c-0.585-0.584-1.536-0.584-2.121 0l-3.75 3.75c-0.195 0.195-0.195 0.512 0 0.707 0.098 0.098 0.226 0.146 0.354 0.146s0.256-0.049 0.354-0.146l3.604-3.604V23.5c0 0.276 0.224 0.5 0.5 0.5s0.5-0.224 0.5-0.5v-7.21l3.65 3.568c0.198 0.194 0.516 0.189 0.707-8e-3 0.193-0.197 0.189-0.515-8e-3-0.707z" />
</svg>