<svg id="arrow_down_small_big_Layer_1" viewBox="0 0 24 24" fill="currentColor" width="32" height="32" data-name="Layer 1" xmlns="http://www.w3.org/2000/svg" xmlns:xlink="http://www.w3.org/1999/xlink">
    <title>arrow-down-small-big</title>
    <path d="M21.5 13h-5c-1.38 0-2.5 1.12-2.5 2.5v5c0 1.38 1.12 2.5 2.5 2.5h5c1.38 0 2.5-1.12 2.5-2.5v-5c0-1.38-1.12-2.5-2.5-2.5zM23 20.5c0 0.83-0.67 1.5-1.5 1.5h-5c-0.83 0-1.5-0.67-1.5-1.5v-5c0-0.83 0.67-1.5 1.5-1.5h5c0.83 0 1.5 0.67 1.5 1.5zM21.5 1h-3C17.12 1 16 2.12 16 3.5v3C16 7.88 17.12 9 18.5 9h3C22.88 9 24 7.88 24 6.5v-3C24 2.12 22.88 1 21.5 1zM23 6.5C23 7.33 22.33 8 21.5 8h-3C17.67 8 17 7.33 17 6.5v-3C17 2.67 17.67 2 18.5 2h3C22.33 2 23 2.67 23 3.5zM10.86 19.16c0.19 0.2 0.18 0.52-0.02 0.71l-3.59 3.41C6.79 23.74 6.16 24 5.49 24s-1.3-0.26-1.77-0.73l-3.56-3.41c-0.2-0.19-0.21-0.51-0.02-0.71s0.51-0.21 0.71-0.02l3.59 3.41c0.16 0.16 0.36 0.28 0.57 0.35V0.5c0-0.28 0.22-0.5 0.5-0.5s0.5 0.22 0.5 0.5v22.41c0.21-0.07 0.4-0.19 0.56-0.35l3.59-3.42c0.2-0.19 0.52-0.18 0.7 0.02z" />
</svg>