<svg id="arrow_right_Layer_1" viewBox="0 0 24 24" fill="currentColor" width="32" height="32" data-name="Layer 1" xmlns="http://www.w3.org/2000/svg" xmlns:xlink="http://www.w3.org/1999/xlink">
    <title>arrow-right</title>
    <path d="M23.263 10.237C23.73 10.698 23.994 11.335 24 12c-2e-3 0.658-0.258 1.296-0.721 1.766l-3.918 4.081C19.263 17.949 19.132 18 19 18c-0.125 0-0.25-0.046-0.346-0.14-0.199-0.19-0.206-0.508-0.015-0.707l3.923-4.086c0.163-0.165 0.283-0.358 0.355-0.567H0.5C0.224 12.5 0 12.276 0 12s0.224-0.5 0.5-0.5h22.411c-0.075-0.208-0.196-0.398-0.358-0.558l-3.955-4.05c-0.193-0.197-0.189-0.514 9e-3-0.707 0.198-0.192 0.514-0.189 0.707 9e-3zM24 12c0 0 0-6e-3 0 0z" />
</svg>