<svg id="arrow_alt_from_left_Layer_1" viewBox="0 0 24 24" fill="currentColor" width="32" height="32" data-name="Layer 1" xmlns="http://www.w3.org/2000/svg" xmlns:xlink="http://www.w3.org/1999/xlink">
    <title>arrow-alt-from-left</title>
    <path d="M23.62 11.092l-4.418-4.36c-0.373-0.368-0.927-0.476-1.412-0.272C17.303 6.664 17 7.115 17 7.64v3.861H1V3.5C1 3.224 0.776 3 0.5 3S0 3.224 0 3.5v17C0 20.776 0.224 21 0.5 21S1 20.776 1 20.5v-8h16v3.861c0 0.524 0.302 0.976 0.79 1.18 0.163 0.068 0.334 0.102 0.503 0.102 0.334 0 0.662-0.129 0.909-0.374l4.419-4.361c0.245-0.242 0.38-0.564 0.38-0.908s-0.135-0.666-0.381-0.908zM22.918 12.196 18.5 16.556c-0.126 0.125-0.268 0.085-0.324 0.062-0.052-0.022-0.175-0.091-0.175-0.257V7.639c0-0.166 0.123-0.235 0.175-0.257 0.026-0.011 0.07-0.025 0.123-0.025 0.061 0 0.134 0.02 0.202 0.086l4.418 4.36c0.054 0.053 0.083 0.123 0.083 0.197s-0.029 0.144-0.084 0.196z" />
</svg>