<svg id="arrow_up_from_dotted_line_Layer_1" viewBox="0 0 24 24" fill="currentColor" width="32" height="32" data-name="Layer 1" xmlns="http://www.w3.org/2000/svg" xmlns:xlink="http://www.w3.org/1999/xlink">
    <title>arrow-up-from-dotted-line</title>
    <path d="M12.5 1.1v18.4c0 0.28-0.22 0.5-0.5 0.5s-0.5-0.22-0.5-0.5V1.09c-0.21 0.07-0.4 0.19-0.56 0.35L6.35 5.86c-0.2 0.19-0.52 0.18-0.71-0.01-0.19-0.2-0.19-0.52 0.01-0.71l4.59-4.41c0.93-0.93 2.58-0.94 3.53 0l4.58 4.41c0.2 0.19 0.21 0.51 0.01 0.71C18.26 5.95 18.13 6 18 6s-0.25-0.05-0.35-0.14l-4.58-4.41c-0.16-0.16-0.36-0.28-0.57-0.35zM6 22c-0.55 0-1 0.45-1 1s0.45 1 1 1 1-0.45 1-1-0.45-1-1-1zM10 22c-0.55 0-1 0.45-1 1s0.45 1 1 1 1-0.45 1-1-0.45-1-1-1zM2 22c-0.55 0-1 0.45-1 1s0.45 1 1 1 1-0.45 1-1-0.45-1-1-1zM18 22c-0.55 0-1 0.45-1 1s0.45 1 1 1 1-0.45 1-1-0.45-1-1-1zM14 22c-0.55 0-1 0.45-1 1s0.45 1 1 1 1-0.45 1-1-0.45-1-1-1zM22 22c-0.55 0-1 0.45-1 1s0.45 1 1 1 1-0.45 1-1-0.45-1-1-1z" />
</svg>