<svg id="arrow_square_down_Layer_1" viewBox="0 0 24 24" fill="currentColor" width="32" height="32" data-name="Layer 1" xmlns="http://www.w3.org/2000/svg" xmlns:xlink="http://www.w3.org/1999/xlink">
    <title>arrow-square-down</title>
    <path d="M19.5 0h-15C2.019 0 0 2.019 0 4.5v15C0 21.981 2.019 24 4.5 24h15c2.481 0 4.5-2.019 4.5-4.5v-15C24 2.019 21.981 0 19.5 0zM23 19.5c0 1.93-1.57 3.5-3.5 3.5h-15C2.57 23 1 21.43 1 19.5v-15C1 2.57 2.57 1 4.5 1h15C21.43 1 23 2.57 23 4.5z" />
    <path d="M16.649 13.072l-2.882 2.831c-0.187 0.187-0.473 0.448-0.774 0.715-0.148 0.131-0.316 0.224-0.493 0.286V6.5C12.5 6.224 12.276 6 12 6s-0.5 0.224-0.5 0.5v10.404c-0.177-0.063-0.345-0.155-0.493-0.286-0.301-0.266-0.587-0.527-0.777-0.717l-2.879-2.828c-0.198-0.194-0.514-0.191-0.708 6e-3-0.193 0.197-0.19 0.514 6e-3 0.707l2.876 2.825c0.198 0.198 0.5 0.475 0.818 0.756 0.472 0.418 1.064 0.628 1.656 0.628s1.184-0.209 1.656-0.627c0.318-0.282 0.621-0.559 0.815-0.753l2.879-2.828c0.197-0.193 0.2-0.51 6e-3-0.707s-0.51-0.2-0.706-8e-3z" />
</svg>