<svg id="arrows_to_circle_Layer_1" viewBox="0 0 24 24" fill="currentColor" width="32" height="32" data-name="Layer 1" xmlns="http://www.w3.org/2000/svg" xmlns:xlink="http://www.w3.org/1999/xlink">
    <title>arrows-to-circle</title>
    <path d="M12 10c-1.103 0-2 0.897-2 2s0.897 2 2 2 2-0.897 2-2-0.897-2-2-2zM12 13c-0.551 0-1-0.449-1-1s0.449-1 1-1 1 0.449 1 1-0.449 1-1 1zM0.146 0.854c-0.195-0.196-0.195-0.512 0-0.708s0.512-0.195 0.708 0l8.135 8.136L9 3.499C9 3.223 9.225 3 9.5 3v0C9.776 3 10 3.225 9.999 3.501L9.987 8.513C9.987 9.333 9.32 10 8.499 10H3.5C3.224 10 3 9.776 3 9.5S3.224 9 3.5 9h4.793zM14.011 8.512 13.999 3.501c0-0.276 0.223-0.5 0.499-0.501v0c0.275 0 0.5 0.223 0.5 0.499l0.011 4.783 8.137-8.136c0.195-0.195 0.512-0.195 0.707 0s0.195 0.512 0 0.707L15.707 9H20.5C20.776 9 21 9.224 21 9.5S20.776 10 20.5 10h-5c-0.821 0-1.488-0.667-1.489-1.488zM9.999 15.5v5c0 0.276-0.224 0.5-0.5 0.5s-0.5-0.224-0.5-0.5v-4.793l-8.145 8.147C0.756 23.952 0.628 24 0.5 24s-0.256-0.049-0.354-0.146c-0.195-0.195-0.195-0.512 0-0.707l8.136-8.136L3.499 15c-0.276 0-0.5-0.225-0.499-0.501S3.225 14 3.5 14v0l5.012 0.012c0.82 0 1.487 0.668 1.487 1.488zM23.853 23.146c0.195 0.195 0.195 0.512 0 0.707-0.098 0.098-0.226 0.146-0.354 0.146s-0.256-0.049-0.354-0.146l-8.134-8.135L15 20.501C15 20.777 14.775 21 14.5 21v0c-0.276 0-0.5-0.225-0.499-0.501l0.012-5.012c0-0.819 0.667-1.487 1.488-1.487h5c0.276 0 0.5 0.224 0.5 0.5s-0.224 0.5-0.5 0.5h-4.793z" />
</svg>