<svg id="arrow_up_Layer_1" viewBox="0 0 24 24" fill="currentColor" width="32" height="32" data-name="Layer 1" xmlns="http://www.w3.org/2000/svg" xmlns:xlink="http://www.w3.org/1999/xlink">
    <title>arrow-up</title>
    <path d="M17.814 5.392c-0.098 0.101-0.228 0.151-0.357 0.151-0.126 0-0.252-0.047-0.35-0.142l-4.043-3.948c-0.165-0.167-0.358-0.288-0.564-0.362V23.5c0 0.276-0.224 0.5-0.5 0.5s-0.5-0.224-0.5-0.5V1.083c-0.205 0.071-0.398 0.187-0.563 0.35L6.846 5.361c-0.199 0.19-0.517 0.187-0.707-0.015C5.948 5.147 5.953 4.83 6.153 4.639l4.086-3.923C10.712 0.25 11.362 0 12 0c0.624 0.016 1.297 0.265 1.77 0.744l4.037 3.941c0.197 0.193 0.201 0.51 7e-3 0.707z" />
</svg>