<svg id="arrow_down_Layer_1" viewBox="0 0 24 24" fill="currentColor" width="32" height="32" data-name="Layer 1" xmlns="http://www.w3.org/2000/svg" xmlns:xlink="http://www.w3.org/1999/xlink">
    <title>arrow-down</title>
    <path d="M17.807 19.315l-4.043 3.948C13.292 23.74 12.627 23.988 12 24c-0.676 0-1.284-0.247-1.766-0.721l-4.081-3.918c-0.199-0.191-0.205-0.508-0.014-0.707 0.191-0.2 0.508-0.204 0.707-0.015l4.086 3.923c0.166 0.164 0.361 0.282 0.567 0.353V0.5c0-0.276 0.224-0.5 0.5-0.5s0.5 0.224 0.5 0.5v22.409c0.204-0.073 0.396-0.192 0.559-0.356l4.049-3.954c0.199-0.192 0.516-0.188 0.707 9e-3 0.193 0.197 0.189 0.514-7e-3 0.707z" />
</svg>