<svg id="arrow_alt_to_top_Layer_1" viewBox="0 0 24 24" fill="currentColor" width="32" height="32" data-name="Layer 1" xmlns="http://www.w3.org/2000/svg" xmlns:xlink="http://www.w3.org/1999/xlink">
    <title>arrow-alt-to-top</title>
    <path d="M12.908 1.38c-0.484-0.49-1.331-0.491-1.816 0L6.731 5.799C6.363 6.172 6.256 6.726 6.459 7.211c0.204 0.487 0.655 0.79 1.18 0.79H11.5v15.5c0 0.276 0.224 0.5 0.5 0.5s0.5-0.224 0.5-0.5V8h3.86c0.524 0 0.977-0.303 1.181-0.79 0.202-0.485 0.096-1.039-0.272-1.412zM16.618 6.825C16.596 6.878 16.526 7 16.36 7H7.639C7.473 7 7.404 6.877 7.382 6.825 7.359 6.769 7.319 6.627 7.444 6.501l4.359-4.418C11.856 2.029 11.926 2 12 2s0.144 0.029 0.196 0.083l4.36 4.418c0.125 0.126 0.084 0.269 0.062 0.324zM21 0.5C21 0.776 20.776 1 20.5 1h-17C3.224 1 3 0.776 3 0.5S3.224 0 3.5 0h17C20.776 0 21 0.224 21 0.5z" />
</svg>