<svg id="arrow_down_to_dotted_line_Layer_1" viewBox="0 0 24 24" fill="currentColor" width="32" height="32" data-name="Layer 1" xmlns="http://www.w3.org/2000/svg" xmlns:xlink="http://www.w3.org/1999/xlink">
    <title>arrow-down-to-dotted-line</title>
    <path d="M13.76 19.27C13.3 19.74 12.67 20 12 20s-1.3-0.26-1.77-0.73l-4.58-4.41c-0.2-0.19-0.21-0.51-0.01-0.71 0.19-0.2 0.51-0.21 0.71-0.01l4.59 4.41c0.16 0.16 0.36 0.28 0.57 0.35V0.5c0-0.28 0.22-0.5 0.5-0.5s0.5 0.22 0.5 0.5v18.41c0.21-0.07 0.4-0.19 0.56-0.35l4.59-4.42c0.2-0.19 0.51-0.19 0.71 0.01 0.19 0.2 0.19 0.52-0.01 0.71zM6 22c-0.55 0-1 0.45-1 1s0.45 1 1 1 1-0.45 1-1-0.45-1-1-1zM10 22c-0.55 0-1 0.45-1 1s0.45 1 1 1 1-0.45 1-1-0.45-1-1-1zM2 22c-0.55 0-1 0.45-1 1s0.45 1 1 1 1-0.45 1-1-0.45-1-1-1zM22 22c-0.55 0-1 0.45-1 1s0.45 1 1 1 1-0.45 1-1-0.45-1-1-1zM14 22c-0.55 0-1 0.45-1 1s0.45 1 1 1 1-0.45 1-1-0.45-1-1-1zM18 22c-0.55 0-1 0.45-1 1s0.45 1 1 1 1-0.45 1-1-0.45-1-1-1z" />
</svg>