<svg id="arrow_turn_down_right_Layer_1" viewBox="0 0 24 24" fill="currentColor" width="32" height="32" data-name="Layer 1" xmlns="http://www.w3.org/2000/svg" xmlns:xlink="http://www.w3.org/1999/xlink">
    <title>arrow-turn-down-right</title>
    <path d="M23.27 13.74 17.86 8.15c-0.19-0.2-0.51-0.2-0.71-0.01s-0.2 0.51-0.01 0.71l5.42 5.59c0.16 0.16 0.28 0.36 0.35 0.56H4.5C2.57 15 1 13.43 1 11.5v-8C1 3.22 0.78 3 0.5 3S0 3.22 0 3.5v8C0 13.98 2.02 16 4.5 16h18.41c-0.07 0.21-0.19 0.4-0.36 0.57l-5.41 5.59c-0.19 0.2-0.19 0.51 0.01 0.71 0.1 0.09 0.22 0.14 0.35 0.14s0.26-0.05 0.36-0.15l5.41-5.58c0.97-0.97 0.97-2.56 0-3.54z" />
</svg>