<svg id="arrow_turn_down_left_Layer_1" viewBox="0 0 24 24" fill="currentColor" width="32" height="32" data-name="Layer 1" xmlns="http://www.w3.org/2000/svg" xmlns:xlink="http://www.w3.org/1999/xlink">
    <title>arrow-turn-down-left</title>
    <path d="M23.5 3C23.22 3 23 3.22 23 3.5v8c0 1.93-1.57 3.5-3.5 3.5H1.09c0.07-0.21 0.19-0.4 0.36-0.57l5.41-5.59c0.19-0.2 0.19-0.51-0.01-0.71-0.2-0.19-0.51-0.19-0.71 0.01l-5.41 5.59c-0.97 0.97-0.97 2.56 0 3.53l5.41 5.59C6.24 22.95 6.37 23 6.5 23s0.25-0.05 0.35-0.14c0.2-0.19 0.2-0.51 0.01-0.71l-5.42-5.59C1.28 16.4 1.16 16.2 1.09 16H19.5c2.48 0 4.5-2.02 4.5-4.5v-8C24 3.22 23.78 3 23.5 3z" />
</svg>