<svg id="arrow_to_left_arrow-circle-down" viewBox="0 0 24 24" fill="currentColor" width="32" height="32" xmlns="http://www.w3.org/2000/svg" xmlns:xlink="http://www.w3.org/1999/xlink">
    <title>arrow-to-left</title>
    <path d="M0.5 19C0.776 19 1 18.776 1 18.5v-5.599c0.124 0.321 0.31 0.617 0.561 0.867l5.086 5.086C6.745 18.952 6.873 19 7.001 19s0.256-0.049 0.354-0.146c0.195-0.195 0.195-0.512 0-0.707l-5.087-5.086c-0.16-0.16-0.275-0.353-0.348-0.561H23.5c0.276 0 0.5-0.224 0.5-0.5s-0.224-0.5-0.5-0.5H1.919c0.074-0.208 0.188-0.4 0.348-0.561l5.087-5.085c0.195-0.195 0.195-0.512 0-0.707s-0.512-0.195-0.707 0l-5.086 5.085C1.31 10.482 1.124 10.778 1 11.099V5.5C1 5.224 0.776 5 0.5 5S0 5.224 0 5.5v13C0 18.776 0.224 19 0.5 19z" />
</svg>