<svg id="arrow_right_to_bracket_Layer_1" viewBox="0 0 24 24" fill="currentColor" width="32" height="32" data-name="Layer 1" xmlns="http://www.w3.org/2000/svg" xmlns:xlink="http://www.w3.org/1999/xlink">
    <title>arrow-right-to-bracket</title>
    <path d="M24 4.5v15c0 2.48-2.02 4.5-4.5 4.5h-3c-0.28 0-0.5-0.22-0.5-0.5s0.22-0.5 0.5-0.5h3c1.93 0 3.5-1.57 3.5-3.5v-15C23 2.57 21.43 1 19.5 1h-3C16.22 1 16 0.78 16 0.5S16.22 0 16.5 0h3C21.98 0 24 2.02 24 4.5zM18 12c0-0.67-0.26-1.3-0.73-1.76l-4.41-4.59c-0.19-0.2-0.51-0.2-0.71-0.01s-0.21 0.51-0.01 0.71l4.42 4.59c0.16 0.16 0.28 0.35 0.35 0.56 0 0 0 0 0 0H0.5C0.22 11.5 0 11.72 0 12s0.22 0.5 0.5 0.5h16.41c-0.07 0.21-0.2 0.4-0.36 0.57l-4.41 4.59c-0.19 0.2-0.19 0.52 0.01 0.71 0.1 0.09 0.22 0.14 0.35 0.14s0.26-0.05 0.36-0.15l4.41-4.58C17.74 13.31 18 12.68 18 12z" />
</svg>