<svg id="arrow_alt_down_Layer_1" viewBox="0 0 24 24" fill="currentColor" width="32" height="32" data-name="Layer 1" xmlns="http://www.w3.org/2000/svg" xmlns:xlink="http://www.w3.org/1999/xlink">
    <title>arrow-alt-down</title>
    <path d="M17.541 17.79C17.337 17.303 16.885 17 16.36 17H12.5V0.5C12.5 0.224 12.276 0 12 0s-0.5 0.224-0.5 0.5V17H7.64c-0.524 0-0.977 0.303-1.181 0.79-0.202 0.485-0.096 1.039 0.272 1.412l4.361 4.418c0.242 0.246 0.564 0.38 0.907 0.38s0.665-0.135 0.907-0.38l4.362-4.418c0.367-0.373 0.474-0.927 0.273-1.412zM16.558 18.499l-4.361 4.418c-0.105 0.106-0.287 0.106-0.393 0l-4.36-4.418c-0.125-0.126-0.084-0.269-0.062-0.324C7.404 18.122 7.474 18 7.64 18h8.721c0.166 0 0.235 0.123 0.258 0.175 0.022 0.055 0.063 0.198-0.061 0.324z" />
</svg>