<svg id="arrow_to_top_arrow-circle-down" viewBox="0 0 24 24" fill="currentColor" width="32" height="32" xmlns="http://www.w3.org/2000/svg" xmlns:xlink="http://www.w3.org/1999/xlink">
    <title>arrow-to-top</title>
    <path d="M5.146 6.646c-0.195 0.195-0.195 0.512 0 0.707s0.512 0.195 0.707 0l5.086-5.085c0.163-0.163 0.356-0.269 0.561-0.341V23.5c0 0.276 0.224 0.5 0.5 0.5s0.5-0.224 0.5-0.5V1.927c0.204 0.072 0.398 0.178 0.561 0.341l5.086 5.086C18.245 7.452 18.373 7.5 18.501 7.5s0.256-0.049 0.354-0.146c0.195-0.195 0.195-0.512 0-0.707l-5.087-5.086C13.513 1.307 13.216 1.122 12.9 1h5.601c0.276 0 0.5-0.224 0.5-0.5S18.777 0 18.501 0H5.5C5.224 0 5 0.224 5 0.5S5.224 1 5.5 1h5.599c-0.316 0.122-0.612 0.306-0.866 0.561z" />
</svg>