<svg id="arrow_right_to_city_Layer_1" viewBox="0 0 24 24" fill="currentColor" width="32" height="32" data-name="Layer 1" xmlns="http://www.w3.org/2000/svg" xmlns:xlink="http://www.w3.org/1999/xlink">
    <title>arrow-right-to-city</title>
    <path d="M9 14.5C9 14.224 9.224 14 9.5 14h1c0.276 0 0.5 0.224 0.5 0.5S10.776 15 10.5 15h-1C9.224 15 9 14.776 9 14.5zM13.5 15h1c0.276 0 0.5-0.224 0.5-0.5S14.776 14 14.5 14h-1c-0.276 0-0.5 0.224-0.5 0.5s0.224 0.5 0.5 0.5zM9.5 19h1c0.276 0 0.5-0.224 0.5-0.5S10.776 18 10.5 18h-1C9.224 18 9 18.224 9 18.5S9.224 19 9.5 19zM13.5 19h1c0.276 0 0.5-0.224 0.5-0.5S14.776 18 14.5 18h-1c-0.276 0-0.5 0.224-0.5 0.5s0.224 0.5 0.5 0.5zM9.5 7h1C10.776 7 11 6.776 11 6.5S10.776 6 10.5 6h-1C9.224 6 9 6.224 9 6.5S9.224 7 9.5 7zM13.5 7h1C14.776 7 15 6.776 15 6.5S14.776 6 14.5 6h-1C13.224 6 13 6.224 13 6.5S13.224 7 13.5 7zM9.5 11h1c0.276 0 0.5-0.224 0.5-0.5S10.776 10 10.5 10h-1C9.224 10 9 10.224 9 10.5S9.224 11 9.5 11zM13.5 11h1c0.276 0 0.5-0.224 0.5-0.5S14.776 10 14.5 10h-1c-0.276 0-0.5 0.224-0.5 0.5s0.224 0.5 0.5 0.5zM19.5 5H19V4.5C19 2.019 16.981 0 14.5 0h-5C7.019 0 5 2.019 5 4.5v2C5 6.776 5.224 7 5.5 7S6 6.776 6 6.5v-2C6 2.57 7.57 1 9.5 1h5C16.43 1 18 2.57 18 4.5v1C18 5.776 18.224 6 18.5 6h1C21.43 6 23 7.57 23 9.5v10c0 1.93-1.57 3.5-3.5 3.5h-10C7.57 23 6 21.43 6 19.5v-1C6 18.224 5.776 18 5.5 18S5 18.224 5 18.5v1C5 21.981 7.019 24 9.5 24h10c2.481 0 4.5-2.019 4.5-4.5v-10C24 7.019 21.981 5 19.5 5zM18.5 15h1c0.276 0 0.5-0.224 0.5-0.5S19.776 14 19.5 14h-1c-0.276 0-0.5 0.224-0.5 0.5s0.224 0.5 0.5 0.5zM18.5 19h1c0.276 0 0.5-0.224 0.5-0.5S19.776 18 19.5 18h-1c-0.276 0-0.5 0.224-0.5 0.5s0.224 0.5 0.5 0.5zM18.5 11h1c0.276 0 0.5-0.224 0.5-0.5S19.776 10 19.5 10h-1c-0.276 0-0.5 0.224-0.5 0.5s0.224 0.5 0.5 0.5zM8 12.5c0-0.372-0.145-0.72-0.399-0.974L4.862 8.654c-0.19-0.2-0.507-0.207-0.706-0.017-0.2 0.19-0.208 0.507-0.017 0.707l2.532 2.655H0.5c-0.276 0-0.5 0.224-0.5 0.5s0.224 0.5 0.5 0.5h6.171l-2.532 2.655c-0.191 0.2-0.184 0.517 0.017 0.707 0.199 0.19 0.516 0.183 0.706-0.017l2.731-2.863C7.856 13.219 8 12.87 8 12.5z" />
</svg>