<svg id="arrow_up_small_big_Layer_1" viewBox="0 0 24 24" fill="currentColor" width="32" height="32" data-name="Layer 1" xmlns="http://www.w3.org/2000/svg" xmlns:xlink="http://www.w3.org/1999/xlink">
    <title>arrow-up-small-big</title>
    <path d="M21.5 1h-3C17.12 1 16 2.12 16 3.5v3C16 7.88 17.12 9 18.5 9h3C22.88 9 24 7.88 24 6.5v-3C24 2.12 22.88 1 21.5 1zM23 6.5C23 7.33 22.33 8 21.5 8h-3C17.67 8 17 7.33 17 6.5v-3C17 2.67 17.67 2 18.5 2h3C22.33 2 23 2.67 23 3.5zM21.5 13h-5c-1.38 0-2.5 1.12-2.5 2.5v5c0 1.38 1.12 2.5 2.5 2.5h5c1.38 0 2.5-1.12 2.5-2.5v-5c0-1.38-1.12-2.5-2.5-2.5zM23 20.5c0 0.83-0.67 1.5-1.5 1.5h-5c-0.83 0-1.5-0.67-1.5-1.5v-5c0-0.83 0.67-1.5 1.5-1.5h5c0.83 0 1.5 0.67 1.5 1.5zM10.84 4.14c0.2 0.19 0.21 0.51 0.02 0.71-0.1 0.1-0.23 0.16-0.36 0.16-0.12 0-0.25-0.05-0.34-0.14L6.57 1.45C6.4 1.28 6.21 1.16 6 1.09V23.5C6 23.78 5.78 24 5.5 24S5 23.78 5 23.5V1.09C4.79 1.16 4.6 1.28 4.44 1.44l-3.6 3.42c-0.2 0.19-0.51 0.18-0.71-0.02-0.19-0.2-0.18-0.52 0.02-0.71l3.59-3.41c0.97-0.96 2.55-0.97 3.53 0z" />
</svg>