<svg id="arrow_alt_circle_up_Layer_1" viewBox="0 0 24 24" fill="currentColor" width="32" height="32" data-name="Layer 1" xmlns="http://www.w3.org/2000/svg" xmlns:xlink="http://www.w3.org/1999/xlink">
    <title>arrow-alt-circle-up</title>
    <path d="M12 0C5.383 0 0 5.383 0 12s5.383 12 12 12 12-5.383 12-12S18.617 0 12 0zM12 23C5.935 23 1 18.065 1 12S5.935 1 12 1 23 5.935 23 12 18.065 23 12 23zM12.908 5.38c-0.484-0.49-1.331-0.491-1.816 0l-4.36 4.418c-0.368 0.373-0.475 0.927-0.272 1.412C6.664 11.697 7.115 12 7.64 12h3.861v6.5c0 0.276 0.224 0.5 0.5 0.5s0.5-0.224 0.5-0.5V12h3.86c0.524 0 0.977-0.303 1.181-0.79 0.202-0.485 0.096-1.039-0.272-1.412zM16.618 10.825C16.596 10.878 16.526 11 16.36 11H7.639c-0.166 0-0.235-0.123-0.257-0.175-0.023-0.056-0.063-0.198 0.062-0.324l4.36-4.418C11.857 6.029 11.927 6 12.001 6s0.144 0.029 0.196 0.083l4.36 4.418c0.125 0.126 0.084 0.269 0.061 0.324z" />
</svg>