<svg id="arrow_alt_square_up_Layer_1" viewBox="0 0 24 24" fill="currentColor" width="32" height="32" data-name="Layer 1" xmlns="http://www.w3.org/2000/svg" xmlns:xlink="http://www.w3.org/1999/xlink">
    <title>arrow-alt-square-up</title>
    <path d="M19.5 0h-15C2.019 0 0 2.019 0 4.5v15C0 21.981 2.019 24 4.5 24h15c2.481 0 4.5-2.019 4.5-4.5v-15C24 2.019 21.981 0 19.5 0zM23 19.5c0 1.93-1.57 3.5-3.5 3.5h-15C2.57 23 1 21.43 1 19.5v-15C1 2.57 2.57 1 4.5 1h15C21.43 1 23 2.57 23 4.5zM12.907 5.38c-0.484-0.491-1.33-0.491-1.814 0L6.731 9.798c-0.367 0.373-0.474 0.927-0.271 1.412C6.664 11.697 7.116 12 7.641 12h3.86v6.5c0 0.276 0.224 0.5 0.5 0.5s0.5-0.224 0.5-0.5V12h3.86c0.524 0 0.977-0.303 1.181-0.79 0.202-0.485 0.096-1.039-0.272-1.412zM16.618 10.824c-0.022 0.053-0.092 0.175-0.258 0.175H7.64c-0.166 0-0.235-0.123-0.258-0.175-0.022-0.055-0.063-0.198 0.061-0.324l4.361-4.418C11.857 6.029 11.927 5.999 12 5.999s0.144 0.029 0.196 0.083l4.36 4.418c0.125 0.126 0.084 0.269 0.062 0.324z" />
</svg>