<svg id="arrow_up_left_from_circle_Layer_1" viewBox="0 0 24 24" fill="currentColor" width="32" height="32" data-name="Layer 1" xmlns="http://www.w3.org/2000/svg" xmlns:xlink="http://www.w3.org/1999/xlink">
    <title>arrow-up-left-from-circle</title>
    <path d="M1.147 1.854C1.053 2.05 1 2.269 1 2.5v7C1 9.776 0.776 10 0.5 10S0 9.776 0 9.5v-7C0 1.122 1.122 0 2.5 0h7C9.776 0 10 0.224 10 0.5S9.776 1 9.5 1h-7C2.269 1 2.049 1.053 1.854 1.147l13.5 13.499c0.195 0.195 0.195 0.512 0 0.707-0.098 0.098-0.226 0.146-0.354 0.146s-0.256-0.049-0.354-0.146zM14 4c-1.653 0-3.291 0.412-4.737 1.191C9.02 5.322 8.929 5.625 9.06 5.868 9.191 6.11 9.493 6.203 9.737 6.071 11.038 5.37 12.512 5 14 5c4.963 0 9 4.038 9 9s-4.037 9-9 9-9-4.038-9-9c0-1.488 0.371-2.962 1.071-4.263 0.131-0.243 0.041-0.546-0.203-0.677-0.245-0.132-0.546-0.041-0.677 0.203C4.412 10.709 4 12.347 4 14c0 5.514 4.486 10 10 10s10-4.486 10-10S19.514 4 14 4z" />
</svg>