<svg id="arrow_alt_square_right_Layer_1" viewBox="0 0 24 24" fill="currentColor" width="32" height="32" data-name="Layer 1" xmlns="http://www.w3.org/2000/svg" xmlns:xlink="http://www.w3.org/1999/xlink">
    <title>arrow-alt-square-right</title>
    <path d="M19.5 0h-15C2.019 0 0 2.019 0 4.5v15C0 21.981 2.019 24 4.5 24h15c2.481 0 4.5-2.019 4.5-4.5v-15C24 2.019 21.981 0 19.5 0zM23 19.5c0 1.93-1.57 3.5-3.5 3.5h-15C2.57 23 1 21.43 1 19.5v-15C1 2.57 2.57 1 4.5 1h15C21.43 1 23 2.57 23 4.5zM14.201 6.731c-0.372-0.368-0.927-0.476-1.412-0.272C12.302 6.663 12 7.115 12 7.639V11.5H5.5C5.224 11.5 5 11.724 5 12s0.224 0.5 0.5 0.5H12v3.861c0 0.524 0.302 0.976 0.789 1.18 0.163 0.068 0.334 0.102 0.503 0.102 0.334 0 0.662-0.129 0.91-0.374l4.418-4.361C18.865 12.666 19 12.344 19 12s-0.135-0.666-0.38-0.908zM17.917 12.196 13.5 16.556c-0.128 0.125-0.271 0.084-0.325 0.062C13.122 16.596 13 16.527 13 16.361V7.639c0-0.166 0.122-0.235 0.175-0.257 0.025-0.011 0.07-0.025 0.123-0.025 0.061 0 0.134 0.02 0.201 0.086l4.418 4.36C17.971 11.856 18 11.926 18 12s-0.029 0.144-0.083 0.196z" />
</svg>