<svg id="arrow_up_from_ground_water_Layer_1" viewBox="0 0 24 24" fill="currentColor" width="32" height="32" data-name="Layer 1" xmlns="http://www.w3.org/2000/svg" xmlns:xlink="http://www.w3.org/1999/xlink">
    <title>arrow-up-from-ground-water</title>
    <path d="M0 19.5v-6C0 11.019 2.019 9 4.5 9h4C8.776 9 9 9.224 9 9.5S8.776 10 8.5 10h-4C2.57 10 1 11.57 1 13.5v6C1 19.776 0.776 20 0.5 20S0 19.776 0 19.5zM19.5 9h-4C15.224 9 15 9.224 15 9.5s0.224 0.5 0.5 0.5h4c1.93 0 3.5 1.57 3.5 3.5v6c0 0.276 0.224 0.5 0.5 0.5s0.5-0.224 0.5-0.5v-6c0-2.481-2.019-4.5-4.5-4.5zM7.5 5c0.131 0 0.263-0.051 0.36-0.154l3.353-3.493c0.085-0.084 0.186-0.138 0.287-0.19V18.5c0 0.276 0.224 0.5 0.5 0.5s0.5-0.224 0.5-0.5V1.139c0.109 0.051 0.215 0.109 0.305 0.197l3.333 3.508c0.188 0.201 0.508 0.208 0.707 0.018 0.2-0.19 0.208-0.506 0.018-0.707l-3.344-3.52C13.149 0.271 12.5-1e-3 12-1e-3s-1.138 0.29-1.501 0.654l-3.359 3.5C6.949 4.352 6.954 4.669 7.154 4.86 7.252 4.953 7.376 4.999 7.5 5zM23.174 22.354C22.69 22.771 22.063 23 21.409 23c-1.168 0-2.315-0.719-2.668-1.673-0.145-0.393-0.793-0.393-0.938 0C17.45 22.281 16.304 23 15.136 23s-2.315-0.719-2.668-1.673c-0.145-0.393-0.793-0.393-0.938 0C11.177 22.281 10.03 23 8.862 23s-2.314-0.719-2.667-1.673c-0.145-0.393-0.793-0.393-0.938 0C4.904 22.281 3.757 23 2.589 23c-0.653 0-1.28-0.229-1.765-0.646-0.209-0.18-0.524-0.155-0.705 0.054s-0.156 0.525 0.053 0.705C0.838 23.685 1.696 24 2.589 24c1.239 0 2.434-0.594 3.137-1.494C6.429 23.406 7.622 24 8.862 24s2.434-0.594 3.137-1.494c0.703 0.9 1.897 1.494 3.137 1.494s2.433-0.594 3.136-1.494c0.703 0.9 1.897 1.494 3.137 1.494 0.893 0 1.751-0.315 2.417-0.887 0.209-0.18 0.233-0.496 0.053-0.705-0.179-0.209-0.494-0.234-0.705-0.054z" />
</svg>