<svg id="arrow_small_down_Layer_1" viewBox="0 0 24 24" fill="currentColor" width="32" height="32" data-name="Layer 1" xmlns="http://www.w3.org/2000/svg" xmlns:xlink="http://www.w3.org/1999/xlink">
    <title>arrow-small-down</title>
    <path d="M17.847 14.36l-4.086 3.923C13.282 18.756 12.629 18.996 12 19c-0.634 0-1.295-0.264-1.77-0.743l-4.037-3.942c-0.197-0.192-0.201-0.509-8e-3-0.707 0.193-0.195 0.509-0.201 0.707-8e-3l4.043 3.948c0.165 0.166 0.358 0.287 0.564 0.361V5.5c0-0.276 0.224-0.5 0.5-0.5s0.5 0.224 0.5 0.5v12.416c0.205-0.07 0.398-0.187 0.562-0.349l4.091-3.928c0.2-0.191 0.517-0.185 0.707 0.014 0.191 0.199 0.186 0.517-0.012 0.707zM12 19c-9e-3 0 0.016 1e-3 0 0z" />
</svg>