<svg id="arrows_from_dotted_line_Layer_1" viewBox="0 0 24 24" fill="currentColor" width="32" height="32" data-name="Layer 1" xmlns="http://www.w3.org/2000/svg" xmlns:xlink="http://www.w3.org/1999/xlink">
    <title>arrows-from-dotted-line</title>
    <path d="M3 12c0 0.552-0.448 1-1 1s-1-0.448-1-1 0.448-1 1-1 1 0.448 1 1zM9 12c0 0.552 0.448 1 1 1s1-0.448 1-1-0.448-1-1-1-1 0.448-1 1zM13 12c0 0.552 0.448 1 1 1s1-0.448 1-1-0.448-1-1-1-1 0.448-1 1zM6 11c-0.552 0-1 0.448-1 1s0.448 1 1 1 1-0.448 1-1-0.448-1-1-1zM18 11c-0.552 0-1 0.448-1 1s0.448 1 1 1 1-0.448 1-1-0.448-1-1-1zM22 11c-0.552 0-1 0.448-1 1s0.448 1 1 1 1-0.448 1-1-0.448-1-1-1zM7.85 4.857 11.5 1.289v7.21c0 0.276 0.224 0.5 0.5 0.5s0.5-0.224 0.5-0.5V1.29l3.65 3.568c0.098 0.095 0.224 0.143 0.35 0.143 0.13 0 0.26-0.05 0.357-0.15 0.193-0.198 0.189-0.514-8e-3-0.707l-3.788-3.705c-0.585-0.584-1.536-0.585-2.117-4e-3L7.151 4.142C6.954 4.335 6.95 4.651 7.143 4.849 7.335 5.046 7.652 5.051 7.85 4.857zM16.151 19.142l-3.65 3.568V15.5c0-0.276-0.224-0.5-0.5-0.5s-0.5 0.224-0.5 0.5v7.21l-3.65-3.568c-0.198-0.193-0.515-0.189-0.707 8e-3-0.193 0.198-0.189 0.514 8e-3 0.707l3.789 3.703c0.293 0.293 0.678 0.439 1.062 0.439 0.383 0 0.765-0.145 1.055-0.435l3.793-3.707c0.197-0.193 0.201-0.509 8e-3-0.707-0.191-0.197-0.508-0.201-0.708-8e-3z" />
</svg>