<svg id="arrow_left_from_line_Layer_1" viewBox="0 0 24 24" fill="currentColor" width="32" height="32" data-name="Layer 1" xmlns="http://www.w3.org/2000/svg" xmlns:xlink="http://www.w3.org/1999/xlink">
    <title>arrow-left-from-line</title>
    <path d="M24 0.5v23c0 0.28-0.22 0.5-0.5 0.5S23 23.78 23 23.5v-23C23 0.22 23.22 0 23.5 0S24 0.22 24 0.5zM20.5 11.5H1.09c0.07-0.21 0.2-0.4 0.36-0.57l4.41-4.58c0.19-0.2 0.19-0.52-0.01-0.71S5.34 5.45 5.14 5.65l-4.41 4.58C0.26 10.7 0 11.33 0 12s0.26 1.3 0.73 1.76l4.41 4.59c0.1 0.1 0.23 0.15 0.36 0.15s0.25-0.05 0.35-0.14c0.2-0.19 0.21-0.51 0.01-0.71l-4.42-4.59c-0.16-0.16-0.28-0.35-0.35-0.56 0 0 0 0 0 0H20.5c0.28 0 0.5-0.22 0.5-0.5s-0.22-0.5-0.5-0.5z" />
</svg>