<svg id="arrows_cross_Layer_1" viewBox="0 0 24 24" fill="currentColor" width="32" height="32" data-name="Layer 1" xmlns="http://www.w3.org/2000/svg" xmlns:xlink="http://www.w3.org/1999/xlink">
    <title>arrows-cross</title>
    <path d="M0.146 0.854c-0.195-0.196-0.195-0.512 0-0.708s0.512-0.195 0.708 0l9.5 9.5c0.195 0.195 0.195 0.512 0 0.707-0.098 0.098-0.226 0.146-0.354 0.146s-0.256-0.049-0.354-0.146zM21.5 0h-5C16.224 0 16 0.224 16 0.5S16.224 1 16.5 1h5c0.231 0 0.451 0.053 0.646 0.147l-22 21.999c-0.195 0.195-0.195 0.512 0 0.707 0.098 0.098 0.226 0.146 0.354 0.146s0.256-0.049 0.354-0.146L22.853 1.854C22.947 2.05 23 2.269 23 2.5v5C23 7.776 23.224 8 23.5 8S24 7.776 24 7.5v-5C24 1.122 22.879 0 21.5 0zM23.5 16c-0.276 0-0.5 0.224-0.5 0.5v5c0 0.231-0.053 0.451-0.147 0.646l-8.499-8.5c-0.195-0.195-0.512-0.195-0.707 0s-0.195 0.512 0 0.707l8.5 8.5C21.951 22.947 21.732 23 21.501 23h-5c-0.276 0-0.5 0.224-0.5 0.5s0.224 0.5 0.5 0.5h5c1.379 0 2.5-1.122 2.5-2.5v-5c0-0.276-0.224-0.5-0.501-0.5z" />
</svg>