<svg id="arrows_Layer_1" viewBox="0 0 24 24" fill="currentColor" width="32" height="32" data-name="Layer 1" xmlns="http://www.w3.org/2000/svg" xmlns:xlink="http://www.w3.org/1999/xlink">
    <title>arrows</title>
    <path d="M24 12v0c0-0.494-0.175-0.989-0.524-1.383-0.225-0.253-0.445-0.495-0.601-0.651L20.63 7.682c-0.194-0.198-0.51-0.2-0.707-6e-3-0.197 0.193-0.2 0.51-6e-3 0.707l2.247 2.287c0.147 0.147 0.353 0.374 0.563 0.61 0.059 0.066 0.092 0.144 0.132 0.22H12.5V1.186c0.048 0.03 0.101 0.048 0.144 0.087 0.237 0.21 0.463 0.416 0.613 0.565l2.284 2.244c0.098 0.096 0.224 0.144 0.351 0.144 0.129 0 0.259-0.05 0.356-0.149 0.194-0.197 0.191-0.514-6e-3-0.707l-2.281-2.242c-0.158-0.158-0.4-0.379-0.654-0.603-0.788-0.7-1.977-0.699-2.765 0-0.254 0.225-0.496 0.446-0.651 0.601L7.607 3.37c-0.197 0.193-0.2 0.51-6e-3 0.707 0.193 0.197 0.509 0.199 0.707 6e-3l2.287-2.247c0.147-0.147 0.373-0.353 0.61-0.562 0.089-0.079 0.191-0.133 0.295-0.177V11.5H1.14c0.04-0.075 0.073-0.154 0.132-0.22 0.21-0.236 0.416-0.462 0.566-0.613l2.244-2.284c0.194-0.197 0.191-0.514-6e-3-0.707-0.198-0.194-0.514-0.192-0.707 6e-3L1.128 9.963c-0.158 0.158-0.379 0.4-0.604 0.654-0.699 0.789-0.699 1.978 0 2.765 0.225 0.255 0.446 0.496 0.602 0.652l2.244 2.283c0.098 0.1 0.227 0.149 0.356 0.149 0.126 0 0.253-0.048 0.351-0.144 0.197-0.193 0.2-0.51 6e-3-0.707L1.836 13.33c-0.147-0.148-0.353-0.374-0.563-0.612-0.059-0.066-0.092-0.144-0.132-0.219H11.5v10.359c-0.075-0.04-0.153-0.073-0.219-0.132-0.237-0.21-0.463-0.416-0.613-0.565l-2.284-2.244c-0.198-0.194-0.514-0.191-0.707 6e-3-0.194 0.197-0.191 0.514 6e-3 0.707l2.282 2.242c0.158 0.157 0.399 0.377 0.653 0.603 0.394 0.35 0.888 0.524 1.383 0.524s0.989-0.175 1.383-0.524c0.253-0.226 0.495-0.445 0.65-0.601l2.284-2.244c0.197-0.193 0.2-0.51 6e-3-0.707-0.193-0.197-0.51-0.2-0.707-6e-3l-2.287 2.246c-0.147 0.147-0.374 0.354-0.61 0.563-0.066 0.059-0.144 0.092-0.22 0.132V12.5h10.359c-0.04 0.075-0.073 0.153-0.132 0.22-0.209 0.238-0.416 0.463-0.564 0.613l-2.245 2.283c-0.194 0.197-0.191 0.514 6e-3 0.707 0.098 0.096 0.224 0.144 0.351 0.144 0.129 0 0.259-0.05 0.356-0.149l2.243-2.281c0.158-0.158 0.378-0.4 0.603-0.653 0.349-0.394 0.524-0.888 0.524-1.383z" />
</svg>