<svg id="arrow_up_to_dotted_line_Layer_1" viewBox="0 0 24 24" fill="currentColor" width="32" height="32" data-name="Layer 1" xmlns="http://www.w3.org/2000/svg" xmlns:xlink="http://www.w3.org/1999/xlink">
    <title>arrow-up-to-dotted-line</title>
    <path d="M3 1c0 0.552-0.448 1-1 1S1 1.552 1 1 1.448 0 2 0 3 0.448 3 1zM10 2c0.552 0 1-0.448 1-1s-0.448-1-1-1-1 0.448-1 1 0.448 1 1 1zM14 2c0.552 0 1-0.448 1-1s-0.448-1-1-1-1 0.448-1 1 0.448 1 1 1zM18.848 9.641c0.198 0.192 0.204 0.508 0.012 0.707-0.098 0.101-0.229 0.152-0.359 0.152-0.125 0-0.25-0.047-0.348-0.141l-5.086-4.914c-0.163-0.163-0.358-0.278-0.566-0.349v18.481c0 0.276-0.224 0.5-0.5 0.5s-0.5-0.224-0.5-0.5V5.095c-0.208 0.07-0.401 0.184-0.561 0.344l-5.092 4.92c-0.198 0.193-0.515 0.187-0.707-0.012S4.954 9.832 5.153 9.64l5.086-4.914c0.932-0.933 2.586-0.938 3.529 6e-3zM6 2c0.552 0 1-0.448 1-1S6.552 0 6 0 5 0.448 5 1 5.448 2 6 2zM18 0c-0.552 0-1 0.448-1 1s0.448 1 1 1 1-0.448 1-1-0.448-1-1-1zM22 0c-0.552 0-1 0.448-1 1s0.448 1 1 1 1-0.448 1-1-0.448-1-1-1z" />
</svg>