<svg id="arrow_circle_up_arrow-circle-down" viewBox="0 0 24 24" fill="currentColor" width="32" height="32" xmlns="http://www.w3.org/2000/svg" xmlns:xlink="http://www.w3.org/1999/xlink">
    <title>arrow-circle-up</title>
    <path d="M12 0C5.383 0 0 5.383 0 12s5.383 12 12 12 12-5.383 12-12S18.617 0 12 0zM12 23C5.935 23 1 18.065 1 12S5.935 1 12 1 23 5.935 23 12 18.065 23 12 23z" />
    <path d="M14.475 7.39c-0.198-0.198-0.5-0.475-0.818-0.756-0.944-0.837-2.368-0.835-3.312 0-0.318 0.282-0.621 0.559-0.815 0.753l-2.879 2.828c-0.197 0.193-0.2 0.51-6e-3 0.707 0.193 0.197 0.51 0.199 0.708 6e-3l2.882-2.831c0.187-0.187 0.473-0.448 0.774-0.715 0.148-0.131 0.316-0.224 0.493-0.286V17.5c0 0.276 0.224 0.5 0.5 0.5s0.5-0.224 0.5-0.5V7.096c0.177 0.063 0.345 0.155 0.493 0.286 0.301 0.266 0.587 0.527 0.777 0.717l2.879 2.828c0.098 0.096 0.224 0.144 0.351 0.144 0.129 0 0.259-0.05 0.357-0.149 0.193-0.197 0.19-0.514-6e-3-0.707z" />
</svg>