<svg id="arrow_up_to_arc_Layer_1" viewBox="0 0 24 24" fill="currentColor" width="32" height="32" data-name="Layer 1" xmlns="http://www.w3.org/2000/svg" xmlns:xlink="http://www.w3.org/1999/xlink">
    <title>arrow-up-to-arc</title>
    <path d="M18.853 13.146c0.196 0.194 0.196 0.512 2e-3 0.707C18.757 13.952 18.628 14 18.501 14s-0.255-0.049-0.353-0.146l-5.634-5.605-0.013 15.25c0 0.276-0.224 0.5-0.5 0.5v0c-0.276 0-0.5-0.225-0.5-0.5L11.514 8.25 5.852 13.855c-0.196 0.195-0.513 0.192-0.707-4e-3s-0.192-0.513 4e-3-0.707l5.734-5.677c0.601-0.602 1.658-0.604 2.265 2e-3zM12 0C5.553 0 0.287 5.042 0.011 11.479-1e-3 11.755 0.213 11.988 0.489 12c0.286 2e-3 0.51-0.202 0.521-0.479C1.263 5.621 6.09 1 12 1s10.737 4.621 10.989 10.521C23.001 11.79 23.222 12 23.489 12h0.021c0.275-0.013 0.49-0.245 0.479-0.521C23.714 5.042 18.447 0 12 0z" />
</svg>