<svg id="arrow_down_triangle_square_Layer_1" viewBox="0 0 24 24" fill="currentColor" width="32" height="32" data-name="Layer 1" xmlns="http://www.w3.org/2000/svg" xmlns:xlink="http://www.w3.org/1999/xlink">
    <title>arrow-down-triangle-square</title>
    <path d="M10.86 19.16c0.19 0.2 0.18 0.52-0.02 0.71l-3.59 3.41C6.77 23.76 6.13 24 5.49 24s-1.28-0.24-1.77-0.73l-3.56-3.41c-0.2-0.19-0.21-0.51-0.02-0.71s0.51-0.21 0.71-0.02l3.59 3.41c0.17 0.17 0.36 0.29 0.57 0.36V0.5c0-0.28 0.22-0.5 0.5-0.5s0.5 0.22 0.5 0.5v22.41c0.21-0.07 0.4-0.19 0.56-0.35l3.59-3.42c0.2-0.19 0.52-0.18 0.7 0.02zM23 16.5v4c0 1.38-1.12 2.5-2.5 2.5h-4c-1.38 0-2.5-1.12-2.5-2.5v-4c0-1.38 1.12-2.5 2.5-2.5h4c1.38 0 2.5 1.12 2.5 2.5zM22 16.5c0-0.83-0.67-1.5-1.5-1.5h-4c-0.83 0-1.5 0.67-1.5 1.5v4c0 0.83 0.67 1.5 1.5 1.5h4c0.83 0 1.5-0.67 1.5-1.5zM23.29 9.04C22.93 9.64 22.3 10 21.6 10h-6.21c-0.7 0-1.33-0.36-1.69-0.96s-0.37-1.33-0.04-1.94l3.12-5.09C17.12 1.39 17.76 1 18.5 1s1.38 0.38 1.73 1.03l3.09 5.04c0.35 0.64 0.33 1.36-0.03 1.97zM22.45 7.57 19.36 2.53C19.18 2.19 18.86 2 18.5 2s-0.68 0.19-0.85 0.51L14.53 7.6c-0.15 0.28-0.14 0.64 0.03 0.93C14.74 8.83 15.05 9 15.39 9h6.21c0.34 0 0.65-0.18 0.83-0.47 0.18-0.3 0.18-0.65 0.02-0.96z" />
</svg>