<svg id="arrow_from_right_arrow-circle-down" viewBox="0 0 24 24" fill="currentColor" width="32" height="32" xmlns="http://www.w3.org/2000/svg" xmlns:xlink="http://www.w3.org/1999/xlink">
    <title>arrow-from-right</title>
    <path d="M23.5 5C23.224 5 23 5.224 23 5.5v6H1.091c0.074-0.208 0.188-0.4 0.349-0.561l5.085-5.085c0.195-0.195 0.195-0.512 0-0.707s-0.512-0.195-0.707 0l-5.086 5.085C0.26 10.704 0 11.332 0 12s0.26 1.295 0.732 1.768l5.085 5.086C5.915 18.952 6.043 19 6.171 19s0.256-0.049 0.354-0.146c0.195-0.195 0.195-0.512 0-0.707l-5.086-5.086c-0.16-0.16-0.275-0.353-0.348-0.561H23v6c0 0.276 0.224 0.5 0.5 0.5s0.5-0.224 0.5-0.5v-13C24 5.224 23.776 5 23.5 5z" />
</svg>