<svg id="arrow_square_left_arrow-circle-down" viewBox="0 0 24 24" fill="currentColor" width="32" height="32" xmlns="http://www.w3.org/2000/svg" xmlns:xlink="http://www.w3.org/1999/xlink">
    <title>arrow-square-left</title>
    <path d="M19.5 0h-15C2.019 0 0 2.019 0 4.5v15C0 21.981 2.019 24 4.5 24h15c2.481 0 4.5-2.019 4.5-4.5v-15C24 2.019 21.981 0 19.5 0zM23 19.5c0 1.93-1.57 3.5-3.5 3.5h-15C2.57 23 1 21.43 1 19.5v-15C1 2.57 2.57 1 4.5 1h15C21.43 1 23 2.57 23 4.5z" />
    <path d="M17.5 11.5H7.096c0.063-0.177 0.155-0.345 0.287-0.493C7.649 10.706 7.91 10.42 8.1 10.23l2.828-2.879c0.194-0.197 0.191-0.514-6e-3-0.708-0.198-0.193-0.515-0.191-0.707 6e-3L7.39 9.525c-0.198 0.198-0.475 0.5-0.756 0.818-0.837 0.944-0.837 2.368 0 3.312 0.282 0.318 0.559 0.621 0.753 0.815l2.828 2.879c0.098 0.1 0.227 0.149 0.356 0.149 0.126 0 0.253-0.048 0.351-0.143 0.197-0.194 0.2-0.51 6e-3-0.708l-2.831-2.882c-0.187-0.187-0.448-0.473-0.715-0.774-0.131-0.148-0.224-0.316-0.286-0.493H17.5c0.276 0 0.5-0.224 0.5-0.5s-0.224-0.5-0.5-0.498z" />
</svg>