<svg id="arrow_alt_square_left_Layer_1" viewBox="0 0 24 24" fill="currentColor" width="32" height="32" data-name="Layer 1" xmlns="http://www.w3.org/2000/svg" xmlns:xlink="http://www.w3.org/1999/xlink">
    <title>arrow-alt-square-left</title>
    <path d="M19.5 0h-15C2.019 0 0 2.019 0 4.5v15C0 21.981 2.019 24 4.5 24h15c2.481 0 4.5-2.019 4.5-4.5v-15C24 2.019 21.981 0 19.5 0zM23 19.5c0 1.93-1.57 3.5-3.5 3.5h-15C2.57 23 1 21.43 1 19.5v-15C1 2.57 2.57 1 4.5 1h15C21.43 1 23 2.57 23 4.5zM18.5 11.5H12V7.639c0-0.524-0.302-0.976-0.79-1.18-0.484-0.203-1.039-0.096-1.412 0.272l-4.419 4.361c-0.245 0.242-0.38 0.564-0.38 0.908s0.135 0.666 0.38 0.908l4.418 4.36c0.247 0.244 0.575 0.374 0.909 0.374 0.169 0 0.34-0.033 0.503-0.102 0.487-0.204 0.79-0.655 0.79-1.18v-3.861h6.5c0.276 0 0.5-0.224 0.5-0.5s-0.224-0.5-0.499-0.499zM11 16.361c0 0.166-0.123 0.235-0.175 0.257-0.056 0.023-0.197 0.063-0.324-0.062l-4.418-4.36C6.029 12.143 6 12.073 6 11.999s0.029-0.144 0.083-0.196l4.418-4.36c0.068-0.067 0.141-0.086 0.202-0.086 0.053 0 0.097 0.014 0.123 0.025 0.052 0.022 0.175 0.091 0.175 0.257z" />
</svg>