<svg id="arrows_h_copy_arrow-circle-down" viewBox="0 0 24 24" fill="currentColor" width="32" height="32" xmlns="http://www.w3.org/2000/svg" xmlns:xlink="http://www.w3.org/1999/xlink">
    <title>arrows-h-copy</title>
    <path d="M10.601 22.408 6.854 18.661c-0.195-0.195-0.512-0.195-0.707 0s-0.195 0.512 0 0.707l3.747 3.747c0.558 0.558 1.294 0.865 2.079 0.879 0.01 0 0.018 6e-3 0.027 6e-3l0.01-2e-3 0.02 2e-3h0.013c0.812-3e-3 1.572-0.323 2.142-0.902l3.673-3.732c0.193-0.196 0.191-0.514-6e-3-0.707-0.197-0.192-0.514-0.191-0.707 6e-3l-3.673 3.732c-0.27 0.274-0.606 0.456-0.971 0.543V1.075c0.365 0.087 0.701 0.269 0.971 0.544l3.673 3.732c0.193 0.197 0.51 0.199 0.707 6e-3 0.197-0.194 0.199-0.51 6e-3-0.707l-3.674-3.733c-0.555-0.564-1.292-0.877-2.08-0.896C12.069 0.013 12.037 0 12 0c-0.06 0-0.115 0.015-0.169 0.034-0.731 0.048-1.414 0.342-1.938 0.865L6.146 4.646c-0.195 0.195-0.195 0.512 0 0.707C6.244 5.451 6.372 5.499 6.5 5.499S6.756 5.45 6.854 5.353l3.747-3.747c0.253-0.253 0.564-0.422 0.899-0.513v21.828c-0.336-0.091-0.646-0.26-0.899-0.513z" />
</svg>