<svg id="arrow_down_to_square_Layer_1" viewBox="0 0 24 24" fill="currentColor" width="32" height="32" data-name="Layer 1" xmlns="http://www.w3.org/2000/svg" xmlns:xlink="http://www.w3.org/1999/xlink">
    <title>arrow-down-to-square</title>
    <path d="M22 19.5c0 2.48-2.02 4.5-4.5 4.5h-11c-1.2 0-2.33-0.47-3.18-1.32S2 20.7 2 19.5v-10C2 7.02 4.01 5 6.5 5H8c0.28 0 0.5 0.23 0.5 0.51S8.28 6.01 8 6.01H6.5C4.57 6.01 3 7.58 3 9.51v10c0 0.94 0.37 1.81 1.03 2.48 0.66 0.66 1.54 1.02 2.47 1.02h11c1.93 0 3.5-1.57 3.5-3.5v-10c0-0.94-0.37-1.82-1.03-2.48s-1.54-1.02-2.47-1.02H16c-0.28 0-0.5-0.22-0.5-0.5s0.22-0.5 0.5-0.5h1.49c0 0 0.01 0 0.01 0 1.2 0 2.33 0.47 3.18 1.31C21.53 7.17 22 8.3 22 9.51zM7.35 13.14c-0.2-0.19-0.52-0.18-0.71 0.02s-0.18 0.52 0.02 0.71l3.58 3.41c0.47 0.47 1.1 0.73 1.77 0.73s1.29-0.26 1.76-0.72l3.59-3.41c0.2-0.19 0.21-0.51 0.02-0.71s-0.51-0.21-0.71-0.02l-3.59 3.42c-0.16 0.16-0.35 0.28-0.56 0.35V0.5c0-0.28-0.23-0.5-0.5-0.5s-0.5 0.22-0.5 0.5v16.41c-0.21-0.07-0.4-0.19-0.57-0.35z" />
</svg>