<svg id="arrows_down_curve_Layer_1" viewBox="0 0 24 24" fill="currentColor" width="32" height="32" data-name="Layer 1" xmlns="http://www.w3.org/2000/svg" xmlns:xlink="http://www.w3.org/1999/xlink">
    <title>arrows-down-curve</title>
    <path d="M24 23.5c0 0.276-0.224 0.5-0.5 0.5h-23C0.224 24 0 23.776 0 23.5S0.224 23 0.5 23h23c0.276 0 0.5 0.224 0.5 0.5zM23.123 15.172C23.081 15.22 18.828 19.999 12.002 20 5.177 20 0.919 15.22 0.877 15.171c-0.183-0.207-0.499-0.229-0.706-0.048-0.208 0.182-0.229 0.497-0.048 0.705 0.184 0.211 4.584 5.17 11.876 5.172v0c0 0 2e-3 0 4e-3 0v0c7.292-2e-3 11.688-4.961 11.872-5.172 0.181-0.208 0.159-0.523-0.049-0.705-0.206-0.18-0.522-0.159-0.703 0.049zM8.356 12.558c-0.195-0.195-0.512-0.195-0.707 0s-0.195 0.512 0 0.707l3.301 3.301c0.58 0.58 1.525 0.58 2.105 0l3.301-3.301c0.195-0.195 0.195-0.512 0-0.707s-0.512-0.195-0.707 0l-3.147 3.147-2e-3-8.204c0-0.276-0.224-0.5-0.5-0.5s-0.5 0.224-0.5 0.5l2e-3 8.204zM15.854 4.442 19 1.296V9.5c0 0.276 0.224 0.5 0.5 0.5S20 9.776 20 9.5V1.296l3.146 3.146c0.195 0.195 0.512 0.195 0.707 0s0.195-0.512 0-0.707l-3.3-3.3c-0.58-0.581-1.525-0.58-2.105 0l-3.301 3.3c-0.195 0.195-0.195 0.512 0 0.707s0.512 0.195 0.707 0zM0.854 4.442 4 1.296V9.5C4 9.776 4.224 10 4.5 10S5 9.776 5 9.5V1.296l3.146 3.146c0.195 0.195 0.512 0.195 0.707 0s0.195-0.512 0-0.707l-3.3-3.3c-0.58-0.581-1.526-0.58-2.106 0l-3.301 3.3c-0.195 0.195-0.195 0.512 0 0.707s0.512 0.195 0.708 0z" />
</svg>