<svg id="arrow_to_bottom_Layer_1" viewBox="0 0 24 24" fill="currentColor" width="32" height="32" data-name="Layer 1" xmlns="http://www.w3.org/2000/svg" xmlns:xlink="http://www.w3.org/1999/xlink">
    <title>arrow-to-bottom</title>
    <path d="M18.5 23h-5.602c0.317-0.121 0.614-0.306 0.869-0.561l5.086-5.086c0.195-0.195 0.195-0.512 0-0.707s-0.512-0.195-0.707 0l-5.086 5.086c-0.163 0.163-0.356 0.269-0.561 0.341V0.5c0-0.276-0.224-0.5-0.5-0.5s-0.5 0.224-0.5 0.5v21.573c-0.204-0.072-0.398-0.178-0.561-0.341l-5.086-5.086c-0.195-0.195-0.512-0.195-0.707 0s-0.195 0.512 0 0.707l5.086 5.086c0.255 0.255 0.552 0.439 0.869 0.561H5.5C5.224 23 5 23.224 5 23.5S5.224 24 5.5 24h13c0.276 0 0.5-0.224 0.5-0.5S18.776 23 18.5 23z" />
</svg>