<svg id="arrow_up_right_Layer_1" viewBox="0 0 24 24" fill="currentColor" width="32" height="32" data-name="Layer 1" xmlns="http://www.w3.org/2000/svg" xmlns:xlink="http://www.w3.org/1999/xlink">
    <title>arrow-up-right</title>
    <path d="M20.5 0h-10C10.224 0 10 0.224 10 0.5S10.224 1 10.5 1h10c0.509 0 0.982 0.153 1.378 0.415L0.146 23.146c-0.195 0.195-0.195 0.512 0 0.707 0.098 0.098 0.226 0.146 0.354 0.146s0.256-0.049 0.354-0.146L22.585 2.122C22.847 2.517 23 2.991 23 3.5v10c0 0.276 0.224 0.5 0.5 0.5s0.5-0.224 0.5-0.5v-10C24 1.57 22.43 0 20.5 0z" />
</svg>