<svg id="assessment_alt_Layer_1" viewBox="0 0 24 24" fill="currentColor" width="32" height="32" data-name="Layer 1" xmlns="http://www.w3.org/2000/svg" xmlns:xlink="http://www.w3.org/1999/xlink">
    <title>assessment-alt</title>
    <path d="M23.268 8.732c-0.943-0.945-2.592-0.945-3.535 0l-6.707 6.707c-0.661 0.66-1.025 1.539-1.025 2.475V19.5c0 0.276 0.224 0.5 0.5 0.5h1.171c1.202 0 2.332-0.468 3.182-1.318l6.414-6.414c0.975-0.975 0.975-2.561 0-3.536zM22.561 11.56l-6.414 6.414c-0.661 0.661-1.541 1.025-2.475 1.025h-0.671v-1.086c0-0.668 0.26-1.296 0.732-1.768l6.707-6.707c0.566-0.566 1.555-0.566 2.121 0 0.585 0.585 0.585 1.536 0 2.122zM13 6.499c0-3.584-2.916-6.5-6.5-6.5S0 2.916 0 6.5 2.916 13 6.5 13 13 10.084 13 6.499zM1 6.499C1 3.468 3.467 1 6.5 1S12 3.468 12 6.5 9.533 12 6.5 12 1 9.532 1 6.499zM7.135 8.463C6.775 8.818 6.3 8.996 5.824 8.996S4.875 8.819 4.512 8.465L3.148 7.118c-0.197-0.193-0.199-0.51-5e-3-0.707 0.194-0.196 0.511-0.198 0.707-4e-3l1.363 1.345c0.337 0.329 0.886 0.327 1.223-4e-3L9.142 5.13c0.2-0.191 0.516-0.187 0.707 0.012 0.192 0.198 0.187 0.515-0.012 0.707zM15 6.499c0-0.276 0.224-0.5 0.5-0.5h1c0.792 0 1.57 0.208 2.25 0.603 0.239 0.139 0.321 0.444 0.182 0.684-0.093 0.16-0.261 0.249-0.433 0.249-0.085 0-0.171-0.021-0.25-0.067C17.721 7.162 17.116 7 16.499 7h-1c-0.276 0-0.5-0.224-0.499-0.501zM21 17.999v1.5c0 2.481-2.019 4.5-4.5 4.5h-9c-2.481 0-4.5-2.019-4.5-4.5v-4.5c0-0.276 0.224-0.5 0.5-0.5s0.5 0.224 0.5 0.5v4.5c0 1.93 1.57 3.5 3.5 3.5h9c1.93 0 3.5-1.57 3.5-3.5v-1.5c0-0.276 0.224-0.5 0.5-0.5s0.5 0.224 0.5 0.5z" />
</svg>