<svg id="assessment_Layer_1" viewBox="0 0 24 24" fill="currentColor" width="32" height="32" data-name="Layer 1" xmlns="http://www.w3.org/2000/svg" xmlns:xlink="http://www.w3.org/1999/xlink">
    <title>assessment</title>
    <path d="M11 23.5c0 0.276-0.224 0.5-0.5 0.5h-6C2.019 24 0 21.981 0 19.5V4.501C0 2.02 2.018 0 4.5 0h11C17.981 0 20 2.018 20 4.499v3c0 0.276-0.223 0.5-0.5 0.5S19 7.775 19 7.499v-3c0-1.93-1.571-3.5-3.5-3.5h-11C2.57 0.999 1 2.57 1 4.5v14.999c0 1.93 1.571 3.5 3.5 3.5h6c0.276 0 0.5 0.224 0.5 0.501zM23.854 23.854C23.756 23.952 23.628 24 23.5 24s-0.256-0.049-0.354-0.146l-3.423-3.423C18.586 21.407 17.112 22 15.499 22c-3.584 0-6.5-2.916-6.5-6.5s2.916-6.5 6.5-6.5 6.5 2.916 6.5 6.5c0 1.612-0.594 3.086-1.569 4.224l3.423 3.423c0.195 0.195 0.195 0.512 1e-3 0.707zM21 15.5c0-3.032-2.467-5.5-5.5-5.5S10 12.468 10 15.5 12.467 21 15.5 21 21 18.532 21 15.5zM6.5 5h-2C4.224 5 4 5.224 4 5.5S4.224 6 4.5 6h2C6.776 6 7 5.776 7 5.5S6.776 5 6.5 5zM6.5 15h-2C4.224 15 4 15.224 4 15.5S4.224 16 4.5 16h2C6.776 16 7 15.776 7 15.5S6.776 15 6.5 15zM9.5 5C9.224 5 9 5.224 9 5.5S9.224 6 9.5 6h6C15.776 6 16 5.776 16 5.5S15.776 5 15.5 5zM6.5 10h-2C4.224 10 4 10.224 4 10.5S4.224 11 4.5 11h2C6.776 11 7 10.776 7 10.5S6.776 10 6.5 10zM18.143 14.131l-2.706 2.618c-0.337 0.33-0.886 0.334-1.223 4e-3l-1.363-1.345c-0.196-0.194-0.513-0.192-0.707 4e-3-0.194 0.197-0.192 0.514 5e-3 0.707l1.364 1.347c0.362 0.354 0.837 0.531 1.312 0.531s0.951-0.178 1.311-0.533l2.703-2.614c0.198-0.192 0.204-0.509 0.012-0.707-0.191-0.198-0.508-0.202-0.708-0.012z" />
</svg>