<svg id="assistive_listening_systems_Layer_1" viewBox="0 0 24 24" fill="currentColor" width="32" height="32" data-name="Layer 1" xmlns="http://www.w3.org/2000/svg" xmlns:xlink="http://www.w3.org/1999/xlink">
    <title>assistive-listening-systems</title>
    <path d="M8 17c0 0.552-0.448 1-1 1s-1-0.448-1-1 0.448-1 1-1 1 0.448 1 1zM1 22c-0.552 0-1 0.448-1 1s0.448 1 1 1 1-0.448 1-1-0.448-1-1-1zM1.854 17.146c-0.195-0.195-0.512-0.195-0.707 0s-0.195 0.512 0 0.707l5 5c0.098 0.098 0.226 0.146 0.354 0.146s0.256-0.049 0.354-0.146c0.195-0.195 0.195-0.512 0-0.707zM10 13c-0.552 0-1 0.448-1 1s0.448 1 1 1 1-0.448 1-1-0.448-1-1-1zM23.944 6.287c-1.232-2.804-3.458-5.022-6.267-6.245-0.255-0.112-0.548 5e-3-0.658 0.259-0.11 0.253 6e-3 0.548 0.259 0.657 2.578 1.123 4.62 3.158 5.75 5.731 0.083 0.188 0.266 0.299 0.458 0.299 0.067 0 0.135-0.014 0.201-0.042 0.253-0.111 0.368-0.406 0.257-0.659zM15.167 13.872C15.262 13.958 15.381 14 15.5 14c0.137 0 0.274-0.057 0.373-0.166C16.6 13.022 17 12.051 17 11.1 17 8.839 15.161 7 12.9 7 11.332 7 9.924 7.873 9.227 9.277 9.104 9.524 9.205 9.825 9.452 9.948 9.701 10.069 10 9.969 10.122 9.722 10.65 8.66 11.714 7.999 12.9 7.999c1.709 0 3.1 1.391 3.1 3.1 0 0.705-0.31 1.438-0.873 2.066-0.184 0.206-0.167 0.522 0.04 0.707zM13.015 3.001C9.248 3.056 5.732 5.866 5.011 9.4 4.956 9.671 5.13 9.934 5.401 9.99s0.535-0.119 0.59-0.391C6.622 6.508 9.715 4.048 13.031 4c1.861-0.05 3.603 0.674 4.923 1.975 1.321 1.302 2.048 3.039 2.048 4.893 0 1.375-0.407 2.702-1.178 3.837C18 15.92 18.001 17.401 18.002 18.5c0 2.523-2.139 4.5-4.869 4.5-0.276 0-0.5 0.224-0.5 0.5s0.224 0.5 0.5 0.5c3.291 0 5.869-2.416 5.869-5.5 0-1.012-2e-3-2.272 0.649-3.232 0.884-1.302 1.351-2.823 1.351-4.399 0-2.123-0.833-4.114-2.346-5.604-1.512-1.49-3.501-2.304-5.641-2.264z" />
</svg>