<svg id="asthma_Layer_1" viewBox="0 0 24 24" fill="currentColor" width="32" height="32" data-name="Layer 1" xmlns="http://www.w3.org/2000/svg" xmlns:xlink="http://www.w3.org/1999/xlink">
    <title>asthma</title>
    <path d="M23.629 9.591c-0.286-0.354-0.711-0.558-1.166-0.558h-1.298c-1.075 0-1.912 0.604-2.133 1.54L17.514 17h-0.515c-1.103 0-2 0.897-2 2v1c0 1.103 0.897 2 2 2h1.703c1.64 0 3.078-1.161 3.421-2.761 0.524-2.443 1.331-6.2 1.804-8.39 0.096-0.445-0.012-0.904-0.298-1.258zM20.006 10.804c0.114-0.482 0.547-0.771 1.159-0.771h1.298c0.151 0 0.292 0.067 0.388 0.186s0.131 0.271 0.099 0.42c-0.144 0.666-0.32 1.486-0.509 2.361h-2.954zM21.146 19.031c-0.245 1.142-1.272 1.97-2.443 1.97H17c-0.551 0-1-0.448-1-1v-1c0-0.552 0.449-1 1-1h0.91c0.232 0 0.433-0.159 0.487-0.385l0.854-3.615h2.975c-0.375 1.744-0.775 3.607-1.08 5.03zM15 13.547c0 0.585-0.412 1.454-1.545 1.454h-0.549l-0.516 2.434c-0.438 2.066-2.29 3.566-4.402 3.566H7.001v0.5c0 1.379-1.122 2.5-2.5 2.5H0.5c-0.276 0-0.5-0.224-0.5-0.5s0.224-0.5 0.5-0.5h4c0.827 0 1.5-0.673 1.5-1.5v-1c0-0.276 0.224-0.5 0.5-0.5h1.487c1.643 0 3.083-1.167 3.424-2.773l0.6-2.83c0.049-0.231 0.251-0.396 0.487-0.396h0.957c0.492 0 0.545-0.317 0.545-0.454 0-0.866-2.607-6.791-4.014-8.53-2.227-2.975-5.741-4.43-9.416-3.916C0.289 1.134 0.043 0.949 5e-3 0.676S0.157 0.149 0.43 0.111c4.042-0.566 7.907 1.035 10.345 4.29C12.149 6.099 15 12.262 15 13.547z" />
</svg>