<svg id="at_Layer_1" viewBox="0 0 24 24" fill="currentColor" width="32" height="32" data-name="Layer 1" xmlns="http://www.w3.org/2000/svg" xmlns:xlink="http://www.w3.org/1999/xlink">
    <title>at</title>
    <path d="M12 0C5.383 0 0 5.383 0 12s5.383 12 12 12c2.447 0 4.793-0.722 6.783-2.088 0.228-0.156 0.286-0.467 0.129-0.695-0.156-0.229-0.466-0.286-0.695-0.129C16.394 22.339 14.244 23 12 23 5.935 23 1 18.065 1 12S5.935 1 12 1 23 5.935 23 12v2.5c0 1.378-1.122 2.5-2.5 2.5S18 15.878 18 14.5V12c0-3.309-2.691-6-6-6s-6 2.691-6 6 2.691 6 6 6c2.131 0 4.006-1.117 5.071-2.796C17.398 16.798 18.811 18 20.5 18c1.93 0 3.5-1.57 3.5-3.5V12c0-6.617-5.383-12-12-12zM12 17c-2.757 0-5-2.243-5-5s2.243-5 5-5 5 2.243 5 5-2.243 5-5 5z" />
</svg>