<svg id="attention_detail_Layer_1" viewBox="0 0 24 24" fill="currentColor" width="32" height="32" data-name="Layer 1" xmlns="http://www.w3.org/2000/svg" xmlns:xlink="http://www.w3.org/1999/xlink">
    <title>attention-detail</title>
    <path d="M19.655 14.945C19.007 14.057 17.847 13 16 13s-3.006 1.058-3.655 1.945c-0.461 0.631-0.461 1.479 0 2.109 0.648 0.888 1.809 1.945 3.655 1.945s3.007-1.058 3.654-1.945c0.462-0.631 0.462-1.479 1e-3-2.109zM18.847 16.465C18.335 17.165 17.426 18 15.999 18s-2.336-0.835-2.848-1.535c-0.203-0.278-0.203-0.651 0-0.93 0.512-0.7 1.421-1.535 2.848-1.535s2.336 0.835 2.848 1.535c0.203 0.278 0.203 0.651 0 0.93zM16.999 16c0 0.552-0.448 1-1 1s-1-0.447-1-1 0.448-1 1-1 1 0.448 1 1zM23.853 23.146 20.577 19.87C21.463 18.824 22 17.474 22 16c0-3.309-2.691-6-6-6s-6 2.691-6 6 2.691 6 6 6c1.475 0 2.825-0.537 3.87-1.423l3.276 3.276c0.098 0.098 0.226 0.146 0.354 0.146s0.256-0.049 0.354-0.146c0.195-0.195 0.195-0.512-1e-3-0.707zM10.999 16c0-2.757 2.243-5 5-5s5 2.243 5 5-2.243 5-5 5-5-2.243-5-5zM13.499 23H4.5C2.57 23 1 21.43 1 19.5v-15C1 2.57 2.57 1 4.5 1h5.515C10.349 1 10.679 1.029 11 1.088V6.5C11 7.879 12.122 9 13.5 9h5.813c0.154 0 0.3-0.071 0.395-0.193s0.128-0.281 0.09-0.431c-0.289-1.13-0.877-2.163-1.702-2.987l-3.484-3.484c-1.228-1.228-2.86-1.904-4.597-1.904H4.5C2.019 0 0 2.019 0 4.5v15C0 21.981 2.019 24 4.5 24h9c0.276 0 0.5-0.224 0.5-0.5S13.776 23 13.499 23zM12 1.368c0.706 0.272 1.354 0.692 1.904 1.243l3.484 3.484c0.543 0.543 0.965 1.192 1.24 1.904h-5.129c-0.827 0-1.5-0.673-1.5-1.5z" />
</svg>