<svg id="attribution_pencil_Layer_1" viewBox="0 0 24 24" fill="currentColor" width="32" height="32" data-name="Layer 1" xmlns="http://www.w3.org/2000/svg" xmlns:xlink="http://www.w3.org/1999/xlink">
    <title>attribution-pencil</title>
    <path d="M24 23.5c0 0.28-0.22 0.5-0.5 0.5-1.27 0-1.9-0.96-2.42-1.72C20.55 21.49 20.19 21 19.5 21c-0.77 0-1.29 0.61-1.89 1.32-0.67 0.79-1.42 1.68-2.65 1.68s-1.97-0.89-2.62-1.68C11.76 21.61 11.26 21 10.5 21c-0.71 0-1.33 0.53-2.04 1.15C7.51 22.97 6.33 24 4.5 24 2.02 24 0 21.98 0 19.5S2.02 15 4.5 15h1C5.78 15 6 15.22 6 15.5S5.78 16 5.5 16h-1C2.57 16 1 17.57 1 19.5S2.57 23 4.5 23c1.46 0 2.4-0.82 3.31-1.6C8.6 20.71 9.42 20 10.5 20c1.24 0 1.97 0.89 2.62 1.68C13.7 22.39 14.2 23 14.96 23s1.29-0.61 1.89-1.32C17.52 20.89 18.27 20 19.5 20s1.9 0.96 2.42 1.72C22.45 22.51 22.81 23 23.5 23c0.28 0 0.5 0.22 0.5 0.5z" />
    <path d="M23.23 0.77c-1.03-1.03-2.71-1.03-3.74 0L9.03 11.24C8.37 11.9 8 12.78 8 13.72v1.79c0 0.28 0.22 0.5 0.5 0.5h1.79c0.94 0 1.81-0.36 2.48-1.03L23.23 4.51c1.03-1.03 1.03-2.71 0-3.74zM12.06 14.27c-0.47 0.47-1.1 0.73-1.77 0.73H9v-1.29c0-0.67 0.26-1.3 0.73-1.77l8.25-8.25 2.32 2.32zM22.52 3.8l-1.5 1.5-2.32-2.32 1.5-1.5c0.64-0.64 1.68-0.64 2.32 0s0.64 1.68 0 2.32z" />
</svg>