<svg id="attribution_pen_Layer_1" viewBox="0 0 24 24" fill="currentColor" width="32" height="32" data-name="Layer 1" xmlns="http://www.w3.org/2000/svg" xmlns:xlink="http://www.w3.org/1999/xlink">
    <title>attribution-pen</title>
    <path d="M24 15.5c0 0.28-0.22 0.5-0.5 0.5h-7c-0.83 0-1.5 0.67-1.5 1.5s0.67 1.5 1.5 1.5h3c1.38 0 2.5 1.12 2.5 2.5S20.88 24 19.5 24h-19C0.22 24 0 23.78 0 23.5S0.22 23 0.5 23h19c0.83 0 1.5-0.67 1.5-1.5S20.33 20 19.5 20h-3c-1.38 0-2.5-1.12-2.5-2.5s1.12-2.5 2.5-2.5h7c0.28 0 0.5 0.22 0.5 0.5zM0.15 19.85c-0.12-0.12-0.17-0.3-0.13-0.47l1.72-7.34c0.3-1.29 1.28-2.34 2.55-2.74l3.94-1.24c0 0 0 0 0 0l7.29-7.29c1.02-1.02 2.69-1.02 3.71 0s1.02 2.69 0 3.71l-7.29 7.29c0 0 0 0 0 0l-1.24 3.94c-0.4 1.27-1.45 2.24-2.74 2.55l-7.34 1.72c0 0-0.08 0.01-0.11 0.01-0.13 0-0.26-0.05-0.36-0.14zM9.14 8.56l2.3 2.3 7.09-7.09c0.63-0.63 0.63-1.67 0-2.3s-1.67-0.63-2.3 0zM1.39 17.91l3.76-3.76c0.2-0.2 0.51-0.2 0.71 0s0.2 0.51 0 0.71L2.1 18.62 7.74 17.3c0.95-0.22 1.72-0.94 2.02-1.87l1.16-3.68L8.27 9.1 4.59 10.26c-0.93 0.29-1.65 1.07-1.87 2.02z" />
</svg>