<svg id="auction_Layer_1" viewBox="0 0 24 24" fill="currentColor" width="32" height="32" data-name="Layer 1" xmlns="http://www.w3.org/2000/svg" xmlns:xlink="http://www.w3.org/1999/xlink">
    <title>auction</title>
    <path d="M14.85 15.452l-0.875 0.874c-0.195 0.195-0.195 0.512 0 0.707 0.098 0.098 0.226 0.146 0.354 0.146s0.256-0.049 0.354-0.146l7.676-7.675c0.195-0.195 0.195-0.512 0-0.707s-0.512-0.195-0.707 0l-0.944 0.944-7.79-7.788 0.944-0.944c0.195-0.195 0.195-0.512 0-0.707s-0.512-0.195-0.707 0L5.479 7.832c-0.195 0.195-0.195 0.512 0 0.707 0.098 0.098 0.226 0.146 0.354 0.146s0.256-0.049 0.354-0.146l0.875-0.875 3.534 3.534-10.45 10.448c-0.195 0.195-0.195 0.512 0 0.707 0.098 0.098 0.226 0.146 0.354 0.146s0.256-0.049 0.354-0.146l10.449-10.449zM17.959 8.262l-4.442 4.442-3.708-3.708 4.443-4.442zM15.557 14.745l-1.333-1.333 4.442-4.442 1.333 1.333zM12.211 2.514l1.333 1.333-4.443 4.442-1.333-1.333zM23.5 23H23c0-1.654-1.346-3-3-3h-7c-1.654 0-3 1.346-3 3H9.5C9.224 23 9 23.224 9 23.5S9.224 24 9.5 24h14c0.276 0 0.5-0.224 0.5-0.5S23.776 23 23.5 23zM13 21h7c1.103 0 2 0.897 2 2H11c0-1.103 0.897-2 2-2z" />
</svg>