<svg id="audit_alt_Layer_1" viewBox="0 0 24 24" fill="currentColor" width="32" height="32" data-name="Layer 1" xmlns="http://www.w3.org/2000/svg" xmlns:xlink="http://www.w3.org/1999/xlink">
    <title>audit-alt</title>
    <path d="M14 5.5C14 5.776 13.776 6 13.5 6h-9C4.224 6 4 5.776 4 5.5S4.224 5 4.5 5h9C13.776 5 14 5.224 14 5.5zM11.5 9h-5C6.224 9 6 9.224 6 9.5S6.224 10 6.5 10h5c0.276 0 0.5-0.224 0.5-0.5S11.776 9 11.5 9zM23 16.708V19.5c0 2.481-2.019 4.5-4.5 4.5h-13C3.019 24 1 21.981 1 19.5v-15C1 2.019 3.019 0 5.5 0h11C18.981 0 21 2.019 21 4.5v6.792c0 0.386 0.091 0.772 0.264 1.118l1.367 2.733C22.872 15.627 23 16.168 23 16.708zM5.5 23H16V1H5.5C3.57 1 2 2.57 2 4.5v15C2 21.43 3.57 23 5.5 23zM22 16.708c0-0.386-0.091-0.772-0.264-1.118l-1.367-2.733C20.128 12.373 20 11.832 20 11.292V4.5c0-1.76-1.306-3.221-3-3.464V23h1.5c1.93 0 3.5-1.57 3.5-3.5z" />
</svg>