<svg id="australia_Layer_1" viewBox="0 0 24 24" fill="currentColor" width="32" height="32" data-name="Layer 1" xmlns="http://www.w3.org/2000/svg" xmlns:xlink="http://www.w3.org/1999/xlink">
    <title>australia</title>
    <path d="M22 8.012c-0.231-2.769-2.85-4.857-3-5-0.297-1.401-0.497-2.075-1-2-0.664 0.175-1 1.5-1 3-0.011 1.06-0.451 1-1 1-0.927 0-2-1.5-2-1.5l0.073-0.578c0.193-0.578-0.135-1.2-0.721-1.367l-1.566-0.488c-0.603-0.174-1.265-6e-3-1.714 0.444L9 3.012c-1.083 0-2.136 0.382-2.965 1.08C5.468 4.552 4.97 5.045 4.628 5.69L4.03 6.782C3.095 7.098 2.165 7.488 1.336 8.008 0.497 8.535 0 9.468 0 10.459c0 0.184 0.017 0.364 0.052 0.545 0.083 0.436 0.255 1.269 0.41 1.649C0.985 13.755 2 15.01 2 16.51c0 1 0.7 1.502 1.419 1.502 0.433 0 0.873-0.182 1.17-0.548 2.845 0.071 2.933-1.954 5.911-1.952 0.786 0 1.389 0.122 1.841 0.28 0.465 0.163 0.944 0.221 1.43 0.221 0.268 0 0.537-0.017 0.807-0.044 0.31-0.04 0.406 0.227 0.448 0.523 0.096 0.703 0.453 1.34 1.057 1.712 0.16 0.098 0.558 0.303 0.728 0.403 0.584 0.345 1.269 0.484 1.937 0.39 0.346-0.049 0.733-0.107 1.097-0.163 0.837-0.129 1.544-0.656 1.958-1.395 1.045-1.862 2.196-3.428 2.196-5.939 0-1.028-1.181-2.867-1.999-3.488zM21.382 16.165c-0.387 0.697-0.821 1.591-1.689 1.68-0.46 0.061-0.911 0.161-1.359 0.18-0.628 0.024-1.194-0.388-1.727-0.673-0.431-0.266-0.555-0.738-0.591-0.996-0.062-0.455-0.228-0.809-0.493-1.053-0.439-0.47-1.204-0.296-1.754-0.29-0.424 0-0.784-0.054-1.099-0.164-0.637-0.223-1.367-0.337-2.172-0.337-1.805 0-2.772 0.646-3.548 1.165-0.685 0.472-1.28 0.82-2.364 0.787-0.301 0-0.586 0.135-0.776 0.369-0.131 0.161-0.319 0.179-0.394 0.179-0.278 0-0.419-0.169-0.419-0.502 0-1.376-0.659-2.532-1.189-3.462-0.161-0.283-0.314-0.551-0.432-0.796-0.04-0.103-0.353-1.174-0.378-1.794 0-0.653 0.333-1.267 0.868-1.604 0.664-0.417 1.476-0.786 2.483-1.126 0.237-0.08 0.436-0.247 0.557-0.467l0.598-1.092C5.791 5.627 6.208 5.24 6.678 4.855 7.324 4.31 8.148 4.01 8.998 4.01c0.322 0 0.624-0.155 0.812-0.416l1.015-1.409c0.172-0.152 0.446-0.212 0.662-0.153l1.589 0.494c0.11 0.125-0.09 0.673-0.069 0.858-0.032 0.25 0.032 0.502 0.179 0.707 0.324 0.486 1.639 2.056 3.002 1.919 1.168 0 1.811-0.711 1.811-2.001 0-0.277 0.012-0.526 0.032-0.747 0.062 0.232 0.183 0.4 0.373 0.557 1.535 1.331 2.482 2.888 2.598 4.274 0.024 0.283 0.166 0.543 0.393 0.714 0.659 0.499 1.604 2.083 1.604 2.69 0 1.888-0.75 3.176-1.617 4.668zM20.997 20.855c0 0 0 6e-3 0 9e-3-0.075 0.712-0.296 2.135-1.209 2.135-1.021 0-1.494-0.909-1.737-1.747-0.134-0.46 0.167-0.934 0.64-1.013l1.376-0.229c0.51-0.085 0.971 0.329 0.93 0.845z" />
</svg>