<svg id="australia_flag_Layer_1" viewBox="0 0 24 24" fill="currentColor" width="32" height="32" data-name="Layer 1" xmlns="http://www.w3.org/2000/svg" xmlns:xlink="http://www.w3.org/1999/xlink">
    <title>australia-flag</title>
    <path d="M19.5 2h-15C2.019 2 0 4.019 0 6.5v11C0 19.981 2.019 22 4.5 22h15c2.481 0 4.5-2.019 4.5-4.5v-11C24 4.019 21.981 2 19.5 2zM6 3v3.355L2.597 3.57C3.146 3.212 3.798 3 4.5 3zM1.845 4.246 5.211 7H1V6.5c0-0.862 0.326-1.643 0.845-2.254zM23 17.5c0 1.93-1.57 3.5-3.5 3.5h-15C2.57 21 1 19.43 1 17.5V8h4.074l-3.887 3.109c-0.216 0.173-0.25 0.487-0.078 0.703C1.208 11.935 1.353 12 1.5 12c0.109 0 0.22-0.036 0.312-0.109L6 8.541V11.5C6 11.776 6.224 12 6.5 12S7 11.776 7 11.5V8.464l4.184 3.423C11.277 11.963 11.389 12 11.5 12c0.145 0 0.288-0.062 0.387-0.184 0.175-0.214 0.144-0.528-0.07-0.703L8.012 8h3.489c0.276 0 0.5-0.224 0.5-0.5S11.777 7 11.501 7H7.927l3.887-3.109c0.216-0.173 0.25-0.487 0.078-0.703-0.171-0.214-0.485-0.249-0.703-0.078L7.001 6.46V3h12.5c1.93 0 3.5 1.57 3.5 3.5zM15 11c-0.552 0-1-0.448-1-1s0.448-1 1-1 1 0.448 1 1-0.448 1-1 1zM18.5 13c0 0.552-0.448 1-1 1s-1-0.448-1-1 0.448-1 1-1 1 0.448 1 1zM8 18c0 0.552-0.448 1-1 1s-1-0.448-1-1 0.448-1 1-1 1 0.448 1 1zM16.5 17c0 0.552-0.448 1-1 1s-1-0.448-1-1 0.448-1 1-1 1 0.448 1 1zM21 10c0 0.552-0.448 1-1 1s-1-0.448-1-1 0.448-1 1-1 1 0.448 1 1zM18.5 7c0 0.552-0.448 1-1 1s-1-0.448-1-1 0.448-1 1-1 1 0.448 1 1z" />
</svg>