<svg id="australia_country_code_Layer_1" viewBox="0 0 24 24" fill="currentColor" width="32" height="32" data-name="Layer 1" xmlns="http://www.w3.org/2000/svg" xmlns:xlink="http://www.w3.org/1999/xlink">
    <title>australia-country-code</title>
    <path d="M19.5 3h-15C2.019 3 0 5.019 0 7.5v9C0 18.981 2.019 21 4.5 21h15c2.481 0 4.5-2.019 4.5-4.5v-9C24 5.019 21.981 3 19.5 3zM23 16.5c0 1.93-1.57 3.5-3.5 3.5h-15C2.57 20 1 18.43 1 16.5v-9C1 5.57 2.57 4 4.5 4h15C21.43 4 23 5.57 23 7.5zM18 8.5v5c0 1.379-1.121 2.5-2.5 2.5S13 14.879 13 13.5v-5C13 8.224 13.224 8 13.5 8S14 8.224 14 8.5v5c0 0.827 0.673 1.5 1.5 1.5s1.5-0.673 1.5-1.5v-5C17 8.224 17.224 8 17.5 8S18 8.224 18 8.5zM8.5 8C7.808 7.978 7.18 8.51 7.045 9.196l-1.407 6.193C5.567 15.702 5.805 16 6.126 16c0.234 0 0.436-0.162 0.488-0.389L6.98 14h3.039l0.365 1.61c0.052 0.228 0.254 0.39 0.488 0.39h1e-3c0.321 0 0.559-0.298 0.488-0.611L9.943 9.147C9.787 8.475 9.189 8 8.5 8zM7.207 13 8.019 9.422C8.084 9.142 8.256 8.998 8.5 9 8.725 9 8.918 9.153 8.97 9.376L9.792 13z" />
</svg>