<svg id="austral_sign_Layer_1" viewBox="0 0 24 24" fill="currentColor" width="32" height="32" data-name="Layer 1" xmlns="http://www.w3.org/2000/svg" xmlns:xlink="http://www.w3.org/1999/xlink">
    <title>austral-sign</title>
    <path d="M23.97 23.32 21.09 16h2.41c0.28 0 0.5-0.22 0.5-0.5S23.78 15 23.5 15h-2.81l-1.18-3h3.98c0.28 0 0.5-0.22 0.5-0.5s-0.22-0.5-0.5-0.5h-4.38l-3.28-8.39C15.19 1 13.73 0 12 0S8.81 1 8.17 2.61L4.87 11H0.5C0.22 11 0 11.22 0 11.5S0.22 12 0.5 12h3.98L3.3 15H0.5C0.22 15 0 15.22 0 15.5S0.22 16 0.5 16h2.41l-2.88 7.32c-0.1 0.26 0.03 0.55 0.28 0.65 0.26 0.1 0.55-0.03 0.65-0.28L3.98 16h16.03l3.02 7.69c0.08 0.2 0.27 0.32 0.47 0.32 0.06 0 0.12-0.01 0.18-0.03 0.26-0.1 0.38-0.39 0.29-0.66zM9.11 2.98C9.68 1.53 10.98 1.01 12 1.01s2.32 0.52 2.89 1.97L18.04 11H5.95zM4.38 15l1.18-3h12.88l1.18 3z" />
</svg>