<svg id="auto_pilot_Layer_1" viewBox="0 0 24 24" fill="currentColor" width="32" height="32" data-name="Layer 1" xmlns="http://www.w3.org/2000/svg" xmlns:xlink="http://www.w3.org/1999/xlink">
    <title>auto-pilot</title>
    <path d="M8.144 3.851c-0.193-0.197-0.191-0.514 5e-3-0.708l2.67-2.629c0.609-0.655 1.776-0.646 2.384 0.023l2.648 2.606c0.196 0.194 0.199 0.511 5e-3 0.708-0.194 0.196-0.51 0.199-0.708 5e-3l-2.633-2.593-0.016 7.238c0 0.276-0.225 0.499-0.5 0.499v0c-0.276 0-0.5-0.225-0.499-0.501l0.016-7.269-2.665 2.626c-0.199 0.193-0.514 0.19-0.707-5e-3zM22 14c0 5.514-4.486 10-10 10S2 19.514 2 14c0-3.23 1.574-6.279 4.21-8.154 0.226-0.16 0.538-0.107 0.697 0.117 0.16 0.225 0.107 0.538-0.117 0.697-1.408 1.002-2.468 2.379-3.107 3.937l6.636 1.241c1.077 0.215 2.171 0.214 3.238 1e-3l6.72-1.33c-0.643-1.522-1.687-2.867-3.068-3.85-0.225-0.16-0.277-0.472-0.117-0.697 0.159-0.225 0.471-0.279 0.697-0.117C20.425 7.72 21.999 10.769 22 14zM10 22.768V18.92c0-0.459-0.116-0.916-0.334-1.32l-0.51-0.943c-0.394-0.727-1.084-1.237-1.895-1.399l-4.24-0.857c0.181 4.095 3.104 7.484 6.979 8.367zM12 23c0.338 0 0.671-0.022 1-0.059V18.92c0-0.625 0.157-1.246 0.455-1.796l0.511-0.944c0.536-0.989 1.476-1.683 2.578-1.903l4.422-0.852c-0.043-0.671-0.16-1.327-0.348-1.962l-6.864 1.359c-1.188 0.238-2.432 0.238-3.623 0l-6.776-1.267c-0.169 0.594-0.274 1.205-0.317 1.829l4.42 0.894c1.102 0.221 2.041 0.915 2.577 1.903l0.511 0.943c0.297 0.55 0.455 1.171 0.455 1.796v4.021C11.33 22.978 11.663 23 12 23zM20.978 14.441l-4.241 0.817c-0.807 0.161-1.498 0.671-1.892 1.398l-0.511 0.943C14.116 18.003 14 18.459 14 18.919v3.848c3.862-0.881 6.778-4.25 6.978-8.326z" />
</svg>