<svg id="auto_reply_Layer_1" viewBox="0 0 24 24" fill="currentColor" width="32" height="32" data-name="Layer 1" xmlns="http://www.w3.org/2000/svg" xmlns:xlink="http://www.w3.org/1999/xlink">
    <title>auto-reply</title>
    <path d="M9 18.5C9 18.776 8.776 19 8.5 19H6.651l-4.09 2.721c-0.507 0.338-1.155 0.368-1.691 0.082C0.333 21.515 0 20.958 0 20.349V4.5C0 2.019 2.019 0 4.5 0h13C19.981 0 22 2.019 22 4.5v5c0 0.276-0.224 0.5-0.5 0.5S21 9.776 21 9.5v-5C21 2.57 19.43 1 17.5 1h-13C2.57 1 1 2.57 1 4.5v15.849c-0.019 0.501 0.601 0.835 1.007 0.54l4.216-2.805C6.305 18.029 6.401 18 6.5 18h2C8.776 18 9 18.224 9 18.5zM24 17.5c0 3.584-2.916 6.5-6.5 6.5S11 21.084 11 17.5 13.916 11 17.5 11 24 13.916 24 17.5zM23 17.5c0-3.033-2.467-5.5-5.5-5.5S12 14.467 12 17.5 14.467 23 17.5 23 23 20.533 23 17.5zM21 17.5c0 0.276-0.224 0.5-0.5 0.5h-3v1.558c0.031 0.88-1.103 1.406-1.755 0.808l-1.831-1.854c-0.549-0.525-0.549-1.476-2e-3-2.002l1.8-1.836c0.674-0.639 1.809-0.124 1.788 0.776v1.551h3c0.276 0 0.5 0.224 0.5 0.499zM16.5 15.449l-0.076-0.075-1.801 1.838c-0.165 0.158-0.163 0.44 0 0.594l1.802 1.828 0.074-0.077z" />
</svg>