<svg id="avi_file_Layer_1" viewBox="0 0 24 24" fill="currentColor" width="32" height="32" data-name="Layer 1" xmlns="http://www.w3.org/2000/svg" xmlns:xlink="http://www.w3.org/1999/xlink">
    <title>avi-file</title>
    <path d="M20.096 5.389 16.612 1.904C15.383 0.676 13.751 0 12.015 0H6.5C4.019 0 2 2.019 2 4.5v15C2 21.981 4.019 24 6.5 24h11c0.792 0 1.57-0.208 2.251-0.603 0.238-0.139 0.32-0.444 0.182-0.684-0.14-0.241-0.446-0.32-0.684-0.182-0.527 0.306-1.133 0.468-1.749 0.468h-11c-1.93 0-3.5-1.57-3.5-3.5V4.5C3 2.57 4.57 1 6.5 1h5.515C12.35 1 12.678 1.038 13 1.096V6.5C13 7.878 14.121 9 15.5 9h5.404C20.962 9.323 21 9.651 21 9.985V10.5c0 0.276 0.224 0.5 0.5 0.5s0.5-0.224 0.5-0.5V9.985c0-1.737-0.677-3.369-1.904-4.596zM15.5 8C14.673 8 14 7.327 14 6.5V1.38c0.704 0.273 1.354 0.682 1.904 1.231l3.484 3.485c0.55 0.55 0.959 1.199 1.232 1.904zM10.75 13.017c-0.774 0-1.396 0.511-1.544 1.271L8.01 20.404c-0.054 0.271 0.123 0.533 0.395 0.586 0.265 0.054 0.533-0.122 0.586-0.395l0.312-1.596h2.895l0.312 1.596c0.051 0.273 0.323 0.449 0.586 0.395 0.271-0.053 0.448-0.315 0.395-0.586l-1.196-6.116c-0.148-0.761-0.77-1.271-1.545-1.271zM9.498 18l0.689-3.521c0.067-0.341 0.335-0.463 0.563-0.463s0.496 0.122 0.563 0.463L12.002 18zM19.096 13.01c0.271 0.053 0.448 0.315 0.395 0.586l-1.196 6.116c-0.148 0.761-0.77 1.271-1.544 1.271s-1.396-0.511-1.544-1.271l-1.196-6.116c-0.054-0.271 0.123-0.533 0.395-0.586 0.266-0.058 0.533 0.122 0.586 0.395l1.196 6.116c0.067 0.341 0.335 0.463 0.563 0.463s0.496-0.122 0.563-0.463l1.196-6.116c0.052-0.272 0.321-0.454 0.586-0.395zM22 13.5v7c0 0.276-0.224 0.5-0.5 0.5S21 20.776 21 20.5v-7c0-0.276 0.224-0.5 0.5-0.5s0.5 0.224 0.5 0.5z" />
</svg>