<svg id="baby_cradle_Layer_1" viewBox="0 0 24 24" fill="currentColor" width="32" height="32" data-name="Layer 1" xmlns="http://www.w3.org/2000/svg" xmlns:xlink="http://www.w3.org/1999/xlink">
    <title>baby-cradle</title>
    <path d="M23.5 6C23.224 6 23 6.224 23 6.5V10H1V5c0-2.206 1.794-4 4-4 1.887 0 3.474 1.311 3.883 3.107C8.083 4.369 7.5 5.114 7.5 6c0 1.103 0.897 2 2 2s2-0.897 2-2c0-0.97-0.695-1.78-1.614-1.961C9.431 1.714 7.412 0 5 0 2.243 0 0 2.243 0 5v18.5C0 23.776 0.224 24 0.5 24S1 23.776 1 23.5V22h22v1.5c0 0.276 0.224 0.5 0.5 0.5s0.5-0.224 0.5-0.5v-17C24 6.224 23.776 6 23.5 6zM10.5 6c0 0.552-0.449 1-1 1s-1-0.448-1-1 0.449-1 1-1 1 0.448 1 1zM8 11h2v10H8zM7 21H5V11h2zM11 11h2v10h-2zM14 11h2v10h-2zM17 11h2v10h-2zM1 11h3v10H1zM20 21V11h3v10z" />
</svg>