<svg id="baby_Layer_1" viewBox="0 0 24 24" fill="currentColor" width="32" height="32" data-name="Layer 1" xmlns="http://www.w3.org/2000/svg" xmlns:xlink="http://www.w3.org/1999/xlink">
    <title>baby</title>
    <path d="M22.264 3.728c-0.847-0.854-2.269-0.938-3.289-0.211l-3.358 2.191C15.862 5.19 16 4.611 16 4.001c0-2.206-1.794-4-4-4s-4 1.794-4 4c0 0.61 0.138 1.189 0.383 1.707L5.042 3.529C4.008 2.79 2.583 2.874 1.736 3.728 1.212 4.255 0.947 4.978 1.008 5.709 1.07 6.441 1.448 7.107 2.062 7.546L7 10.799v3.665l-2.268 2.268c-0.674 0.674-0.905 1.654-0.603 2.562l1.026 2.996C5.496 23.312 6.449 24 7.527 24c0.413 0 0.825-0.105 1.195-0.305 1.049-0.568 1.537-1.906 1.133-3.119L9.363 19.17 11.533 17h0.932l2.174 2.174-0.47 1.409c-0.402 1.205 0.086 2.544 1.137 3.113C15.68 23.897 16.081 24 16.5 24c1.077 0 2.03-0.688 2.371-1.71l1-3c0.301-0.904 0.069-1.885-0.604-2.559l-2.268-2.268v-3.665l4.953-3.264c0.598-0.428 0.977-1.094 1.038-1.826 0.062-0.731-0.203-1.454-0.726-1.98zM12 1c1.654 0 3 1.346 3 3s-1.346 3-3 3-3-1.346-3-3 1.346-3 3-3zM16 14.356 12.559 16h-1.118L8 14.356V13h8zM8.435 18.686c-0.136 0.136-0.182 0.338-0.118 0.519L8.911 20.9c0.251 0.752-0.034 1.576-0.662 1.916-0.809 0.44-1.858 0.013-2.145-0.846l-1.026-2.996c-0.181-0.543-0.042-1.131 0.362-1.535l2.164-2.164 2.87 1.372zM18.561 17.439c0.404 0.404 0.543 0.992 0.362 1.535l-1 3c-0.283 0.853-1.334 1.279-2.141 0.843-0.629-0.341-0.914-1.165-0.663-1.917l0.567-1.702c0.06-0.18 0.013-0.378-0.121-0.512l-2.039-2.039 2.87-1.372zM21.996 5.626c-0.037 0.44-0.265 0.84-0.608 1.085l-5.162 3.401c-0.14 0.093-0.225 0.25-0.225 0.418v1.471H8V10.53c0-0.168-0.085-0.325-0.225-0.418L2.629 6.721C2.27 6.465 2.042 6.066 2.005 5.625 1.968 5.18 2.124 4.756 2.445 4.433c0.507-0.511 1.373-0.55 2.033-0.078l4.59 2.994C9.666 7.775 10.369 8 11.103 8h1.793c0.734 0 1.438-0.226 2.018-0.64l4.624-3.018c0.645-0.461 1.51-0.421 2.017 0.09 0.321 0.323 0.478 0.747 0.441 1.194z" />
</svg>