<svg id="baby_carriage_Layer_1" viewBox="0 0 24 24" fill="currentColor" width="32" height="32" data-name="Layer 1" xmlns="http://www.w3.org/2000/svg" xmlns:xlink="http://www.w3.org/1999/xlink">
    <title>baby-carriage</title>
    <path d="M15.5 0C14.897 0 14 0.399 14 1.5V9H4.735l-1.39-1.668C2.639 6.485 1.602 6 0.5 6 0.224 6 0 6.224 0 6.5S0.224 7 0.5 7c0.805 0 1.562 0.354 2.076 0.973L4 9.682v0.819c0 2.481 2.019 4.5 4.5 4.5h4.432l-3.488 4.186c-0.292-0.119-0.61-0.186-0.944-0.186-1.378 0-2.5 1.122-2.5 2.5s1.122 2.5 2.5 2.5 2.5-1.122 2.5-2.5c0-0.683-0.275-1.302-0.721-1.754L14 15.282l3.721 4.465C17.276 20.199 17 20.818 17 21.501c0 1.378 1.122 2.5 2.5 2.5s2.5-1.122 2.5-2.5-1.122-2.5-2.5-2.5c-0.334 0-0.653 0.066-0.944 0.186l-3.488-4.186H19.5c2.481 0 4.5-2.019 4.5-4.5v-1C24 0.108 15.585 0 15.5 0zM8.5 23C7.673 23 7 22.327 7 21.5S7.673 20 8.5 20 10 20.673 10 21.5 9.327 23 8.5 23zM21 21.5c0 0.827-0.673 1.5-1.5 1.5S18 22.327 18 21.5 18.673 20 19.5 20 21 20.673 21 21.5zM15 1.5c0-0.403 0.275-0.494 0.499-0.5 0.3 0 7.211 0.118 7.492 8H15zM23 10.5c0 1.93-1.57 3.5-3.5 3.5h-11C6.57 14 5 12.43 5 10.5V10h18z" />
</svg>