<svg id="back_up_Layer_1" viewBox="0 0 24 24" fill="currentColor" width="32" height="32" data-name="Layer 1" xmlns="http://www.w3.org/2000/svg" xmlns:xlink="http://www.w3.org/1999/xlink">
    <title>back-up</title>
    <path d="M24 0.5V3c0 0.551-0.448 1-1 1h-2.5C20.224 4 20 3.776 20 3.5S20.224 3 20.5 3h1.492C21.057 1.753 19.596 1 18 1c-2.605 0-4.746 1.954-4.979 4.545C12.998 5.805 12.779 6 12.523 6c-0.015 0-0.03 0-0.045-2e-3C12.203 5.973 12 5.73 12.025 5.455 12.305 2.345 14.874 0 18.001 0c2.04 0 3.895 1.022 5 2.698V0.5c0-0.276 0.224-0.5 0.5-0.5s0.5 0.224 0.499 0.5zM17 14.5v5.571C17 22.274 13.267 24 8.5 24S0 22.274 0 20.071V4.5C0 1.977 3.733 0 8.5 0c1.072 0 2.114 0.101 3.099 0.3 0.271 0.055 0.446 0.319 0.391 0.589-0.048 0.237-0.257 0.401-0.49 0.401-0.033 0-0.066-3e-3-0.1-0.01-0.92-0.187-1.896-0.281-2.901-0.281C4.435 1 1 2.603 1 4.5S4.435 8 8.5 8c0.329 0 0.652-0.01 0.97-0.03 0.279-0.012 0.513 0.193 0.529 0.469 0.017 0.275-0.193 0.513-0.469 0.529C9.193 8.989 8.849 9 8.5 9 5.213 9 2.419 8.06 1 6.649v3.117c0 1.562 3.014 3.233 7.5 3.233 0.655 0 1.308-0.038 1.941-0.114 0.273-0.036 0.523 0.164 0.556 0.437 0.033 0.274-0.163 0.523-0.438 0.556-0.672 0.08-1.365 0.121-2.059 0.121-3.287 0-6.081-0.884-7.5-2.211v2.978c0 1.562 3.014 3.233 7.5 3.233s7.5-1.672 7.5-3.233v-0.267c0-0.276 0.224-0.5 0.5-0.5S17 14.223 17 14.5zM16 16.789C14.581 18.116 11.787 19 8.5 19S2.419 18.116 1 16.789v3.283c0 1.385 3.08 2.929 7.5 2.929s7.5-1.544 7.5-2.929zM23.522 6.002c-0.277-0.03-0.519 0.177-0.543 0.453C22.746 9.046 20.605 11 18 11c-1.596 0-3.057-0.753-3.992-2H15.5C15.776 9 16 8.776 16 8.5S15.776 8 15.5 8H13c-0.551 0-1 0.449-1 1v2.5c0 0.276 0.224 0.5 0.5 0.5s0.5-0.224 0.5-0.5V9.302C14.105 10.977 15.96 12 18 12c3.126 0 5.695-2.345 5.976-5.455C24 6.27 23.798 6.027 23.522 6.002z" />
</svg>