<svg id="backpack_Layer_1" viewBox="0 0 24 24" fill="currentColor" width="32" height="32" data-name="Layer 1" xmlns="http://www.w3.org/2000/svg" xmlns:xlink="http://www.w3.org/1999/xlink">
    <title>backpack</title>
    <path d="M20 14.122V12c0-2.953-1.613-5.531-4-6.917V4c0-2.206-1.794-4-4-4S8 1.794 8 4v1.083C5.613 6.469 4 9.047 4 12v2.122c-2.305 0.47-4 2.48-4 4.878 0 2.5 1.851 4.559 4.251 4.924C4.325 23.968 4.886 24 5 24h14c0.114 0 0.674-0.032 0.749-0.076C22.149 23.559 24 21.5 24 19c0-2.398-1.695-4.408-4-4.878zM4 22.858C2.279 22.411 1 20.859 1 19c0-1.849 1.258-3.413 3-3.861zM9 4c0-1.654 1.346-3 3-3s3 1.346 3 3v0.589C14.073 4.212 13.061 4 12 4S9.927 4.212 9 4.589zM19 23H5v-1c0-3.859 3.141-7 7-7s7 3.141 7 7zM19 18.136C17.635 15.673 15.01 14 12 14s-5.635 1.673-7 4.136V12c0-3.859 3.141-7 7-7s7 3.141 7 7zM20 22.858v-7.719c1.742 0.448 3 2.012 3 3.861 0 1.859-1.279 3.411-3 3.858zM15 10.5c0 0.276-0.224 0.5-0.5 0.5h-5C9.224 11 9 10.776 9 10.5S9.224 10 9.5 10h5c0.276 0 0.5 0.224 0.5 0.5z" />
</svg>