<svg id="bacon_egg_Layer_1" viewBox="0 0 24 24" fill="currentColor" width="32" height="32" data-name="Layer 1" xmlns="http://www.w3.org/2000/svg" xmlns:xlink="http://www.w3.org/1999/xlink">
    <title>bacon-egg</title>
    <path d="M9 18c-0.552 0-1-0.448-1-1s0.448-1 1-1 1 0.448 1 1-0.448 1-1 1zM12.409 22.894C12.026 22.964 11.637 23 11.25 23c-2.896 0-5.459-2.047-6.097-4.867-0.027-0.121-0.099-0.228-0.2-0.299C2.477 16.102 1 13.267 1 10.25 1 5.149 5.149 1 10.25 1c0.721 0 1.439 0.083 2.135 0.248 0.278 0.063 0.539-0.104 0.602-0.372 0.063-0.269-0.103-0.538-0.371-0.602C11.845 0.092 11.049 0 10.251 0 4.598 0 0 4.598 0 10.25c0 3.278 1.575 6.363 4.224 8.291C5.04 21.766 7.903 24 11.25 24c0.448 0 0.899-0.042 1.341-0.124 0.271-0.05 0.451-0.311 0.4-0.582-0.05-0.272-0.313-0.452-0.582-0.4zM12 18c-0.552 0-1 0.448-1 1s0.448 1 1 1 1-0.448 1-1-0.448-1-1-1zM23.3 14.353c-0.398 0.593-0.398 1.488 0 2.082 0.458 0.68 0.7 1.493 0.7 2.352 0 0.79-0.499 1.727-0.809 2.303-0.144 0.277-0.206 0.639-0.188 1.074 0.02 0.479-0.153 0.934-0.486 1.281-0.338 0.353-0.812 0.555-1.301 0.556h-4.09c-0.82 0-1.555-0.458-1.919-1.192-0.364-0.736-0.28-1.599 0.218-2.252 0.376-0.486 0.574-1.094 0.574-1.76 0-0.655-0.188-1.296-0.53-1.804-0.623-0.927-0.623-2.271 0-3.198 0.347-0.516 0.53-1.136 0.53-1.794s-0.184-1.279-0.53-1.794c-0.624-0.927-0.624-2.271 0-3.198C15.817 6.494 16 5.873 16 5.215c0-0.672-0.198-1.283-0.572-1.768-0.499-0.656-0.582-1.518-0.218-2.253C15.574 0.458 16.31 0 17.13 0h4.086c0.491 0 0.968 0.204 1.306 0.558 0.333 0.349 0.505 0.804 0.481 1.281-0.02 0.437 0.1 0.891 0.247 1.157C23.602 3.627 24 4.343 24 5.213c0 0.858-0.242 1.671-0.7 2.353-0.393 0.583-0.393 1.498 0 2.081C23.758 10.329 24 11.142 24 12s-0.242 1.672-0.7 2.353zM19.47 7.009C19.817 6.493 20 5.873 20 5.215c0-0.61-0.303-1.155-0.624-1.73-0.427-0.771-0.399-1.844-0.269-2.483H17.13c-0.443 0-0.826 0.238-1.023 0.636s-0.154 0.847 0.114 1.201C16.73 3.497 17 4.319 17 5.215c0 0.858-0.242 1.672-0.701 2.353-0.393 0.583-0.393 1.497 0 2.08 0.459 0.68 0.701 1.494 0.701 2.353s-0.242 1.672-0.7 2.353c-0.399 0.593-0.399 1.488 0 2.081 0.451 0.671 0.7 1.511 0.7 2.362 0 0.89-0.271 1.709-0.781 2.369-0.268 0.352-0.312 0.801-0.114 1.199C16.302 22.762 16.684 23 17.127 23h1.974c-0.123-0.628-0.202-1.587 0.201-2.369 0.277-0.519 0.697-1.305 0.697-1.844 0-0.658-0.184-1.278-0.53-1.794-0.622-0.927-0.622-2.271 0-3.197 0.347-0.517 0.53-1.137 0.53-1.795s-0.184-1.279-0.53-1.794c-0.623-0.927-0.623-2.271 1e-3-3.198zM22.47 7.009C22.817 6.493 23 5.873 23 5.215c0-0.61-0.303-1.155-0.624-1.73-0.238-0.43-0.4-1.065-0.371-1.69 9e-3-0.202-0.064-0.395-0.207-0.544-0.15-0.158-0.362-0.249-0.582-0.249h-1.085c-0.128 0.516-0.184 1.45 0.12 1.996 0.352 0.631 0.75 1.347 0.75 2.217 0 0.858-0.242 1.671-0.7 2.353-0.399 0.593-0.399 1.488 0 2.082 0.458 0.681 0.7 1.494 0.7 2.352s-0.242 1.672-0.7 2.353c-0.398 0.593-0.398 1.488 0 2.082 0.458 0.68 0.7 1.493 0.7 2.352 0 0.79-0.499 1.727-0.809 2.303-0.293 0.568-0.19 1.399-0.068 1.911h1.092c0.218 0 0.43-0.09 0.579-0.247 0.144-0.149 0.218-0.344 0.209-0.548-0.025-0.61 0.075-1.141 0.299-1.575C22.58 20.114 23 19.328 23 18.789c0-0.658-0.184-1.278-0.53-1.794-0.622-0.927-0.622-2.271 0-3.197 0.347-0.517 0.53-1.137 0.53-1.795s-0.184-1.279-0.53-1.795c-0.623-0.926-0.623-2.271 0-3.199zM13 9.501c0 2.481-2.019 4.5-4.5 4.5S4 11.982 4 9.501s2.019-4.5 4.5-4.5 4.5 2.019 4.5 4.5zM12 9.501c0-1.93-1.57-3.5-3.5-3.5S5 7.571 5 9.501s1.57 3.5 3.5 3.5 3.5-1.57 3.5-3.5z" />
</svg>