<svg id="badminton_Layer_1" viewBox="0 0 24 24" fill="currentColor" width="32" height="32" data-name="Layer 1" xmlns="http://www.w3.org/2000/svg" xmlns:xlink="http://www.w3.org/1999/xlink">
    <title>badminton</title>
    <path d="M22 20.334V19c0-1.103-0.897-2-2-2s-2 0.897-2 2v1.335l-1.366 1.845c-0.196 0.393-0.176 0.851 0.055 1.224 0.23 0.374 0.631 0.597 1.07 0.597h4.482c0.439 0 0.839-0.223 1.07-0.597 0.231-0.373 0.251-0.831 9e-3-1.299zM19 19c0-0.551 0.449-1 1-1s1 0.449 1 1v1h-2zM22.46 22.878C22.438 22.915 22.371 23 22.241 23h-4.482c-0.13 0-0.197-0.085-0.219-0.122-0.023-0.037-0.069-0.135-0.058-0.176L18.751 21h2.499l1.221 1.627c0.058 0.116 0.012 0.214-0.011 0.251zM22.078 1.921c-1.399-1.399-3.351-2.072-5.497-1.893-2.114 0.176-4.167 1.162-5.779 2.774S8.204 6.467 8.028 8.581c-0.164 1.964 0.386 3.766 1.554 5.13l-3.607 3.607c-0.818-0.482-1.943-0.379-2.632 0.308l-2.716 2.716c-0.835 0.835-0.835 2.195 0 3.031C1.045 23.791 1.594 24 2.142 24s1.098-0.209 1.516-0.627l2.716-2.716c0.714-0.714 0.817-1.81 0.311-2.635l3.604-3.604C11.496 15.451 13.044 16 14.745 16c0.222 0 0.447-9e-3 0.674-0.028 2.114-0.176 4.166-1.162 5.779-2.774s2.598-3.665 2.774-5.779c0.179-2.146-0.494-4.098-1.894-5.498zM5.667 19.95 2.951 22.666c-0.445 0.445-1.169 0.446-1.617 0-0.445-0.446-0.445-1.171 0-1.617l2.716-2.716c0.215-0.215 0.502-0.334 0.808-0.334s0.593 0.119 0.809 0.334c0.445 0.446 0.445 1.171 0 1.617zM22.976 7.335c-0.157 1.879-1.039 3.709-2.485 5.155s-3.276 2.328-5.155 2.485c-1.846 0.156-3.52-0.416-4.707-1.604-1.188-1.188-1.758-2.86-1.604-4.707 0.156-1.879 1.039-3.709 2.484-5.155s3.277-2.328 5.155-2.485c0.198-0.017 0.395-0.025 0.588-0.025 1.613 0 3.059 0.568 4.12 1.629 1.188 1.188 1.758 2.86 1.604 4.707z" />
</svg>