<svg id="bag_map_pin_Layer_1" viewBox="0 0 24 24" fill="currentColor" width="32" height="32" data-name="Layer 1" xmlns="http://www.w3.org/2000/svg" xmlns:xlink="http://www.w3.org/1999/xlink">
    <title>bag-map-pin</title>
    <path d="M15.535 14.471c-0.944-0.944-2.2-1.465-3.535-1.465s-2.592 0.521-3.535 1.465C7.521 15.415 7 16.67 7 18.006s0.521 2.592 1.469 3.54l1.778 1.739c0.483 0.473 1.118 0.709 1.753 0.709s1.27-0.236 1.753-0.709l1.782-1.743c0.944-0.944 1.465-2.2 1.465-3.536s-0.521-2.591-1.465-3.535zM14.832 20.831 13.054 22.57c-0.58 0.568-1.527 0.568-2.107 0l-1.774-1.735c-0.756-0.756-1.172-1.761-1.172-2.829s0.416-2.072 1.172-2.828c0.755-0.756 1.76-1.172 2.828-1.172s2.072 0.416 2.828 1.172 1.172 1.76 1.172 2.828-0.416 2.073-1.169 2.825zM13 18.006c0 0.552-0.448 1-1 1s-1-0.448-1-1 0.448-1 1-1 1 0.448 1 1zM21.5 6H18c0-3.309-2.691-6-6-6S6 2.691 6 6H2.5C1.121 6 0 7.122 0 8.5v11C0 21.981 2.019 24 4.5 24h3C7.776 24 8 23.776 8 23.5S7.776 23 7.5 23h-3C2.57 23 1 21.43 1 19.5v-11C1 7.673 1.673 7 2.5 7H6v3.5C6 10.776 6.224 11 6.5 11S7 10.776 7 10.5V7h10v3.5c0 0.276 0.224 0.5 0.5 0.5s0.5-0.224 0.5-0.5V7h3.5C22.327 7 23 7.673 23 8.5v11c0 1.93-1.57 3.5-3.5 3.5h-3c-0.276 0-0.5 0.224-0.5 0.5s0.224 0.5 0.5 0.5h3c2.481 0 4.5-2.019 4.5-4.5v-11C24 7.122 22.879 6 21.5 6zM7 6c0-2.757 2.243-5 5-5s5 2.243 5 5z" />
</svg>