<svg id="bags_shopping_Layer_1" viewBox="0 0 24 24" fill="currentColor" width="32" height="32" data-name="Layer 1" xmlns="http://www.w3.org/2000/svg" xmlns:xlink="http://www.w3.org/1999/xlink">
    <title>bags-shopping</title>
    <path d="M20.5 11H18V7.5C18 5.57 16.43 4 14.5 4H13c0-2.206-1.794-4-4-4S5 1.794 5 4H3.5C1.57 4 0 5.57 0 7.5v6C0 15.981 2.019 18 4.5 18H7v1.5c0 2.481 2.019 4.5 4.5 4.5h8c2.481 0 4.5-2.019 4.5-4.5v-5c0-1.93-1.57-3.5-3.5-3.5zM9 1c1.654 0 3 1.346 3 3H6c0-1.654 1.346-3 3-3zM4.5 17C2.57 17 1 15.43 1 13.5v-6C1 6.121 2.122 5 3.5 5H5v2.5C5 7.776 5.224 8 5.5 8S6 7.776 6 7.5V5h6v2.5C12 7.776 12.224 8 12.5 8S13 7.776 13 7.5V5h1.5C15.878 5 17 6.121 17 7.5V11h-6.5C8.57 11 7 12.57 7 14.5V17zM23 19.5c0 1.93-1.57 3.5-3.5 3.5h-8C9.57 23 8 21.43 8 19.5v-5c0-1.379 1.122-2.5 2.5-2.5h10c1.378 0 2.5 1.121 2.5 2.5zM19 14.5v2c0 1.93-1.57 3.5-3.5 3.5S12 18.43 12 16.5v-2c0-0.276 0.224-0.5 0.5-0.5s0.5 0.224 0.5 0.5v2c0 1.379 1.122 2.5 2.5 2.5s2.5-1.121 2.5-2.5v-2c0-0.276 0.224-0.5 0.5-0.5s0.5 0.224 0.5 0.5z" />
</svg>