<svg id="baguette_Layer_1" viewBox="0 0 24 24" fill="currentColor" width="32" height="32" data-name="Layer 1" xmlns="http://www.w3.org/2000/svg" xmlns:xlink="http://www.w3.org/1999/xlink">
    <title>baguette</title>
    <path d="M23.152 0.848c-2.193-2.191-8.462 0.077-13.151 4.766l-4.388 4.388c-4.688 4.687-6.96 10.956-4.765 13.15 0.574 0.573 1.425 0.842 2.455 0.842 2.909 0 7.234-2.145 10.697-5.607l4.388-4.388c4.688-4.688 6.96-10.957 4.764-13.151zM17.679 13.292 13.291 17.68c-4.443 4.443-10.167 6.335-11.737 4.766-1.242-1.243-0.308-5.09 2.338-8.845l2.753 2.753C6.743 16.452 6.871 16.5 6.999 16.5s0.256-0.049 0.354-0.146c0.195-0.195 0.195-0.512 0-0.707l-2.858-2.858c0.551-0.71 1.155-1.41 1.825-2.08l1.84-1.84 2.986 2.986c0.098 0.098 0.226 0.146 0.354 0.146s0.256-0.049 0.354-0.146c0.195-0.195 0.195-0.512 0-0.707L8.868 8.162l1.841-1.841c0.672-0.672 1.375-1.267 2.087-1.819l2.852 2.852C15.746 7.452 15.874 7.5 16.002 7.5s0.256-0.049 0.354-0.146c0.195-0.195 0.195-0.512 0-0.707l-2.751-2.751c2.645-1.864 5.336-2.885 7.129-2.885 0.752 0 1.347 0.178 1.714 0.545 1.569 1.569-0.322 7.293-4.769 11.736z" />
</svg>