<svg id="balance_scale_right_Layer_1" viewBox="0 0 24 24" fill="currentColor" width="32" height="32" data-name="Layer 1" xmlns="http://www.w3.org/2000/svg" xmlns:xlink="http://www.w3.org/1999/xlink">
    <title>balance-scale-right</title>
    <path d="M23.961 14.307 20.55 6.167c-0.416-0.994-1.286-1.752-2.327-2.029L12.5 2.614V0.5C12.5 0.224 12.276 0 12 0s-0.5 0.224-0.5 0.5v1.847l-5.441-1.45C5.563 0.765 5.054 0.823 4.608 1.02c-0.031 6e-3-0.062 6e-3-0.091 0.018C4.449 1.067 4.393 1.11 4.346 1.16 3.965 1.394 3.648 1.735 3.465 2.17L0.04 10.305v0 2e-3c-0.027 0.064-0.039 1.194-0.039 1.194 0 1.258 0.538 2.466 1.466 3.317 0.84 0.771 1.905 1.183 3.034 1.183 0.135 0 0.271-6e-3 0.407-0.018 2.298-0.2 4.093-2.259 4.093-4.689 0 0-0.013-0.925-0.039-0.986L5.393 1.832c0.135-0.012 0.273-5e-3 0.409 0.032L11.5 3.382V23h-7C4.224 23 4 23.224 4 23.5S4.224 24 4.5 24h15c0.276 0 0.5-0.224 0.5-0.5S19.776 23 19.5 23h-7V3.648l5.466 1.456c0.349 0.093 0.671 0.262 0.946 0.488l-3.869 8.705C15.015 14.361 15 15.5 15 15.5c0 1.258 0.538 2.466 1.466 3.317C17.306 19.588 18.371 20 19.5 20c0.135 0 0.271-6e-3 0.407-0.018 2.298-0.2 4.093-2.259 4.093-4.689 0 0-0.013-0.924-0.039-0.986zM4.386 2.559c0.034-0.08 0.09-0.142 0.139-0.211L7.747 10H1.253zM8 11.293c0 1.916-1.399 3.539-3.186 3.694-0.998 0.089-1.947-0.235-2.679-0.906-0.722-0.662-1.136-1.602-1.136-2.581V11h7zM19.604 6.498l0.024 0.056 3.12 7.447h-6.479zM23 15.293c0 1.916-1.399 3.539-3.186 3.694-0.999 0.086-1.947-0.235-2.679-0.906-0.722-0.662-1.136-1.602-1.136-2.581V15h7z" />
</svg>