<svg id="balcony_Layer_1" viewBox="0 0 24 24" fill="currentColor" width="32" height="32" data-name="Layer 1" xmlns="http://www.w3.org/2000/svg" xmlns:xlink="http://www.w3.org/1999/xlink">
    <title>balcony</title>
    <path d="M23.5 9c0-0.552-0.448-1-1-1s-1 0.448-1 1c0 0.366 0.206 0.673 0.5 0.847V11h-3V4c0-2.206-1.794-4-4-4H9C6.794 0 5 1.794 5 4v7H2V9.847C2.294 9.673 2.5 9.366 2.5 9c0-0.552-0.448-1-1-1s-1 0.448-1 1c0 0.366 0.206 0.673 0.5 0.847V20c0 2.206 1.794 4 4 4h14c2.206 0 4-1.794 4-4V9.847C23.294 9.673 23.5 9.366 23.5 9zM6 4c0-1.654 1.346-3 3-3h6c1.654 0 3 1.346 3 3v7H6zM10 12v11H8V12zM11 12h2v11h-2zM14 12h2v11h-2zM2 20v-8h2v10.816C2.839 22.402 2 21.302 2 20zM5 12h2v11H5zM17 23V12h2v11zM20 22.816V12h2v8c0 1.302-0.839 2.402-2 2.816z" />
</svg>