<svg id="ballot_Layer_1" viewBox="0 0 24 24" fill="currentColor" width="32" height="32" data-name="Layer 1" xmlns="http://www.w3.org/2000/svg" xmlns:xlink="http://www.w3.org/1999/xlink">
    <title>ballot</title>
    <path d="M17.5 24h-11C4.019 24 2 21.981 2 19.5v-15C2 2.019 4.019 0 6.5 0h11C19.981 0 22 2.019 22 4.5v15c0 2.481-2.019 4.5-4.5 4.5zM6.5 1C4.57 1 3 2.57 3 4.5v15C3 21.43 4.57 23 6.5 23h11c1.93 0 3.5-1.57 3.5-3.5v-15C21 2.57 19.43 1 17.5 1zM18 5.5C18 5.224 17.776 5 17.5 5h-6C11.224 5 11 5.224 11 5.5S11.224 6 11.5 6h6C17.776 6 18 5.776 18 5.5zM18 11.5c0-0.276-0.224-0.5-0.5-0.5h-6c-0.276 0-0.5 0.224-0.5 0.5s0.224 0.5 0.5 0.5h6c0.276 0 0.5-0.224 0.5-0.5zM18 17.5c0-0.276-0.224-0.5-0.5-0.5h-6c-0.276 0-0.5 0.224-0.5 0.5s0.224 0.5 0.5 0.5h6c0.276 0 0.5-0.224 0.5-0.5zM8.5 7h-2C6.224 7 6 6.776 6 6.5v-2C6 4.224 6.224 4 6.5 4h2C8.776 4 9 4.224 9 4.5v2C9 6.776 8.776 7 8.5 7zM7 6h1V5H7zM8.5 13h-2C6.224 13 6 12.776 6 12.5v-2C6 10.224 6.224 10 6.5 10h2C8.776 10 9 10.224 9 10.5v2C9 12.776 8.776 13 8.5 13zM7 12h1v-1H7zM8.5 19h-2C6.224 19 6 18.776 6 18.5v-2C6 16.224 6.224 16 6.5 16h2C8.776 16 9 16.224 9 16.5v2C9 18.776 8.776 19 8.5 19zM7 18h1v-1H7z" />
</svg>