<svg id="balloons_Layer_1" viewBox="0 0 24 24" fill="currentColor" width="32" height="32" data-name="Layer 1" xmlns="http://www.w3.org/2000/svg" xmlns:xlink="http://www.w3.org/1999/xlink">
    <title>balloons</title>
    <path d="M19.076 11.234C19.536 10.5 20 9.37 20 8.5 20 8.224 20.224 8 20.5 8S21 8.224 21 8.5c0 1.142-0.58 2.473-1.076 3.266C19.829 11.917 19.666 12 19.5 12c-0.091 0-0.183-0.024-0.266-0.076-0.233-0.146-0.305-0.455-0.158-0.69zM9.5 8C9.224 8 9 8.224 9 8.5c0 0.87-0.464 2-0.924 2.734-0.146 0.234-0.075 0.543 0.158 0.689 0.083 0.052 0.175 0.076 0.266 0.076 0.166 0 0.329-0.083 0.424-0.234C9.42 10.972 10 9.641 10 8.499 10 8.223 9.776 7.999 9.5 8zM22 22c0 1.294-1.225 1.921-1.276 1.947C20.652 23.983 20.576 24 20.5 24c-0.183 0-0.359-0.101-0.447-0.276-0.123-0.247-0.023-0.547 0.224-0.671 5e-3-2e-3 0.724-0.382 0.724-1.053 0-0.746-0.646-1.16-1.712-1.752-0.908-0.505-1.938-1.078-2.217-2.158-0.164-0.636-0.044-1.358 0.367-2.194-2.009-0.515-3.65-2.887-4.436-5.597C12 13.823 9.59 16.994 6.76 17.001c-0.402 0.584-0.742 1.195-0.759 1.378 0 0.566 0.678 0.926 1.712 1.409 1.072 0.501 2.288 1.07 2.288 2.323 0 1.186-1.225 1.812-1.276 1.838-0.072 0.036-0.148 0.053-0.224 0.053-0.183 0-0.359-0.101-0.447-0.276-0.123-0.247-0.023-0.547 0.224-0.671 5e-3-2e-3 0.724-0.387 0.724-0.943 0-0.574-0.678-0.934-1.712-1.417-1.072-0.501-2.288-1.07-2.288-2.323 0-0.391 0.339-1.018 0.662-1.527C2.444 15.914 0 11.021 0 6.9 0 3.095 3.028 0 6.75 0c2.833 0 5.263 1.793 6.263 4.327C13.892 2.306 15.83 1 18.25 1 21.582 1 24 3.475 24 6.885c0 4.096-2.372 8.838-5.477 9.103-0.441 0.764-0.604 1.386-0.484 1.852 0.172 0.665 0.932 1.087 1.735 1.534C20.817 19.954 22 20.612 22 22zM12.5 6.9C12.5 3.647 9.921 1 6.75 1S1 3.646 1 6.9C1 10.996 3.653 16 6.75 16s5.75-5.004 5.75-9.1zM18.25 15C20.881 15 23 10.561 23 6.885 23 4.009 21.047 2 18.25 2S13.5 4.009 13.5 6.885c0 3.676 2.119 8.115 4.75 8.115z" />
</svg>