<svg id="ballet_dance_Layer_1" viewBox="0 0 24 24" fill="currentColor" width="32" height="32" data-name="Layer 1" xmlns="http://www.w3.org/2000/svg" xmlns:xlink="http://www.w3.org/1999/xlink">
    <title>ballet-dance</title>
    <path d="M23.989 10.895c-0.058-0.27-0.321-0.444-0.594-0.383l-5.406 1.164c0.893-1.152 1.236-2.26 0.856-3.156-0.495-1.167-2.055-1.688-4.416-1.468-1.501 0.215-2.469 0.539-3.405 0.852l-0.687 0.229c-0.166-0.604-0.26-1.123-0.304-1.417C12.061 5.215 13 2.489 13 0.5 13 0.224 12.776 0 12.5 0S12 0.224 12 0.5c0 1.835-0.92 4.282-2.67 5.5H3.728C2.041 4.029 1 1.936 1 0.5 1 0.224 0.776 0 0.5 0S0 0.224 0 0.5c0 1.717 1.143 4.051 3.061 6.257 0.433 1.208 1.087 2.648 1.887 3.958-2.986 2.041-4.446 4.222-3.793 5.761 0.227 0.535 0.677 0.938 1.339 1.197 0.562 0.22 1.266 0.326 2.071 0.326 1.277 0 2.811-0.273 4.436-0.784V23.5c0 0.276 0.224 0.5 0.5 0.5s0.5-0.224 0.5-0.5v-6.628c0.527-0.194 1.059-0.405 1.593-0.646 2.127-0.959 3.906-2.105 5.19-3.269l6.822-1.469c0.27-0.058 0.442-0.324 0.383-0.593zM4.221 7h4.842c0.146 0.922 0.6 3.054 1.82 4.604 0.096 0.122 0.136 0.278 0.108 0.428-0.014 0.076-0.059 0.216-0.206 0.305-0.362 0.219-0.719 0.396-1.06 0.525-0.783 0.297-1.643 0.116-2.245-0.471C7.003 11.925 5.256 10.181 4.221 7zM11.182 15.315c-3.326 1.5-6.673 2.074-8.324 1.426-0.402-0.157-0.665-0.377-0.783-0.656-0.369-0.869 0.711-2.675 3.419-4.534 0.403 0.576 0.833 1.11 1.288 1.554 0.602 0.587 1.38 0.897 2.18 0.897 0.374 0 0.751-0.068 1.118-0.207 0.397-0.151 0.809-0.354 1.223-0.605 0.353-0.213 0.598-0.571 0.672-0.981 0.079-0.432-0.034-0.878-0.307-1.226-0.45-0.571-0.774-1.248-1.019-1.902l0.692-0.23c0.894-0.299 1.818-0.609 3.206-0.808 1.813-0.174 3.076 0.153 3.377 0.865 0.566 1.335-2.064 4.294-6.742 6.407zM6.5 5C7.878 5 9 3.878 9 2.5S7.878 0 6.5 0 4 1.122 4 2.5 5.122 5 6.5 5zM6.5 1C7.327 1 8 1.673 8 2.5S7.327 4 6.5 4 5 3.327 5 2.5 5.673 1 6.5 1z" />
</svg>