<svg id="ball_pile_Layer_1" viewBox="0 0 24 24" fill="currentColor" width="32" height="32" data-name="Layer 1" xmlns="http://www.w3.org/2000/svg" xmlns:xlink="http://www.w3.org/1999/xlink">
    <title>ball-pile</title>
    <path d="M19.528 14.265c0.411-0.672 0.638-1.447 0.638-2.265 0-2.461-2.056-4.468-4.471-4.367 0.411-0.672 0.638-1.447 0.638-2.264C16.333 2.96 14.389 1 12 1S7.667 2.96 7.667 5.369c0 0.821 0.23 1.599 0.652 2.279-0.051-2e-3-0.101-0.017-0.152-0.017-2.389 0-4.333 1.96-4.333 4.369 0 0.821 0.229 1.6 0.652 2.279-0.051-2e-3-0.101-0.017-0.152-0.017-2.39 0-4.333 1.96-4.333 4.369s1.944 4.368 4.333 4.368c1.673 0 3.111-0.972 3.833-2.375 0.722 1.403 2.16 2.375 3.833 2.375s3.112-0.972 3.833-2.375c0.722 1.403 2.16 2.375 3.833 2.375 2.39 0 4.333-1.96 4.333-4.368 0-2.461-2.055-4.468-4.471-4.366zM12 2c1.858 0 3.365 1.506 3.365 3.365S13.859 8.73 12 8.73 8.635 7.224 8.635 5.365 10.141 2 12 2zM4.333 21.992c-1.858 0-3.365-1.506-3.365-3.365s1.506-3.365 3.365-3.365 3.365 1.506 3.365 3.365-1.506 3.365-3.365 3.365zM4.801 11.996c0-1.858 1.506-3.365 3.365-3.365s3.365 1.506 3.365 3.365-1.506 3.365-3.365 3.365-3.365-1.506-3.365-3.365zM11.999 21.992c-1.858 0-3.365-1.506-3.365-3.365s1.506-3.365 3.365-3.365 3.365 1.506 3.365 3.365-1.506 3.365-3.365 3.365zM12.468 11.996c0-1.858 1.506-3.365 3.365-3.365s3.365 1.506 3.365 3.365-1.506 3.365-3.365 3.365-3.365-1.506-3.365-3.365zM19.666 21.992c-1.858 0-3.365-1.506-3.365-3.365s1.506-3.365 3.365-3.365 3.365 1.506 3.365 3.365-1.506 3.365-3.365 3.365z" />
</svg>