<svg id="bandage_wound_Layer_1" viewBox="0 0 24 24" fill="currentColor" width="32" height="32" data-name="Layer 1" xmlns="http://www.w3.org/2000/svg" xmlns:xlink="http://www.w3.org/1999/xlink">
    <title>bandage-wound</title>
    <path d="M10.464 17.535c0.195 0.195 0.195 0.512 0 0.707-0.098 0.098-0.226 0.146-0.354 0.146s-0.256-0.049-0.354-0.146l-4-4c-0.195-0.195-0.195-0.512 0-0.707s0.512-0.195 0.707 0zM24 18c0 1.603-0.624 3.109-1.758 4.242C21.109 23.376 19.602 24 18 24s-3.109-0.624-4.242-1.758l-1.807-1.806-1.71 1.697C9.073 23.302 7.536 23.887 6 23.887s-3.073-0.585-4.243-1.755C0.624 20.998 0 19.491 0 17.889s0.624-3.109 1.757-4.242l1.708-1.695-1.708-1.709C0.624 9.11 0 7.603 0 6.001s0.624-3.11 1.757-4.243C2.891 0.624 4.397 0 6 0s3.109 0.624 4.243 1.758l1.74 1.74 1.754-1.741C14.869 0.624 16.376 0 17.978 0s3.109 0.624 4.243 1.758c2.339 2.339 2.339 6.146 0 8.484l-1.754 1.741 1.774 1.775C23.375 14.891 23.999 16.398 24 18zM4.175 11.247l7.098-7.044-1.738-1.737c-0.944-0.944-2.2-1.465-3.536-1.465S3.408 1.522 2.463 2.466 0.999 4.665 0.999 6.001s0.52 2.591 1.464 3.535zM21.515 9.535c1.948-1.948 1.948-5.12 0-7.069-0.944-0.944-2.2-1.465-3.536-1.465s-2.591 0.521-3.535 1.465L2.463 14.354C1.52 15.297 1 16.553 1 17.888s0.52 2.592 1.464 3.536c1.95 1.95 5.122 1.948 7.071 0zM22.999 18.001c0-1.335-0.521-2.591-1.465-3.535l-1.777-1.778-7.098 7.045 1.804 1.803c0.944 0.944 2.2 1.465 3.535 1.465s2.591-0.521 3.535-1.465 1.465-2.2 1.466-3.535zM14.242 5.758c-0.195-0.195-0.512-0.195-0.707 0s-0.195 0.512 0 0.707l4 4c0.098 0.098 0.226 0.146 0.354 0.146s0.256-0.049 0.354-0.146c0.195-0.195 0.195-0.512 0-0.707zM9 13c0.552 0 1-0.448 1-1s-0.448-1-1-1-1 0.448-1 1 0.448 1 1 1zM12 8c-0.552 0-1 0.448-1 1s0.448 1 1 1 1-0.448 1-1-0.448-1-1-1zM12 14c-0.552 0-1 0.448-1 1s0.448 1 1 1 1-0.448 1-1-0.448-1-1-1zM15 11c-0.552 0-1 0.448-1 1s0.448 1 1 1 1-0.448 1-1-0.448-1-1-1z" />
</svg>