<svg id="band_aid_alt_Layer_1" viewBox="0 0 24 24" fill="currentColor" width="32" height="32" data-name="Layer 1" xmlns="http://www.w3.org/2000/svg" xmlns:xlink="http://www.w3.org/1999/xlink">
    <title>band-aid-alt</title>
    <path d="M24 7.003c-6e-3-1.204-0.481-2.333-1.339-3.18l-2.559-2.526c-1.761-1.737-4.61-1.724-6.355 0.032L1.307 13.804c-1.743 1.684-1.729 4.706 0.032 6.372l2.559 2.526c1.761 1.739 4.612 1.724 6.355-0.031l12.44-12.475C23.542 9.342 24.005 8.207 24 7.003zM12.028 19.474 4.49 12.029l7.482-7.503 7.539 7.446zM9.544 21.965c-1.356 1.366-3.574 1.378-4.943 0.026l-2.559-2.526v0c-1.369-1.294-1.383-3.648-0.026-4.955l1.767-1.772 7.539 7.445zM20.217 11.263 12.678 3.817l1.778-1.783c1.356-1.366 3.574-1.377 4.943-0.025l2.559 2.526c1.369 1.296 1.383 3.646 0.026 4.956zM22.67 13.747c1.756 1.743 1.771 4.594 0.032 6.355l-2.526 2.559c-1.666 1.761-4.688 1.776-6.372 0.032-0.195-0.194-0.197-0.511-2e-3-0.707 0.193-0.196 0.51-0.196 0.707-2e-3 0.664 0.659 1.56 1.017 2.482 1.016 0.938-5e-3 1.815-0.375 2.473-1.042l2.527-2.559c1.352-1.369 1.34-3.587-0.026-4.943-0.195-0.194-0.197-0.511-2e-3-0.707 0.194-0.195 0.511-0.199 0.707-2e-3zM1.33 10.253C-0.427 8.51-0.441 5.659 1.298 3.898l2.526-2.559c1.67-1.76 4.67-1.775 6.372-0.033 0.195 0.195 0.197 0.511 2e-3 0.708-0.193 0.195-0.51 0.197-0.707 2e-3C8.186 0.658 5.83 0.673 4.535 2.041l-2.526 2.56c-1.352 1.37-1.341 3.587 0.026 4.943 0.195 0.194 0.197 0.511 2e-3 0.707-0.194 0.196-0.511 0.197-0.707 2e-3zM13 9c0 0.552-0.448 1-1 1s-1-0.448-1-1 0.448-1 1-1 1 0.448 1 1zM10 12c0 0.552-0.448 1-1 1s-1-0.448-1-1 0.448-1 1-1 1 0.448 1 1zM13 15c0 0.552-0.448 1-1 1s-1-0.448-1-1 0.448-1 1-1 1 0.448 1 1zM16 12c0 0.552-0.448 1-1 1s-1-0.448-1-1 0.448-1 1-1 1 0.448 1 1z" />
</svg>