<svg id="band_aid_Layer_1" viewBox="0 0 24 24" fill="currentColor" width="32" height="32" data-name="Layer 1" xmlns="http://www.w3.org/2000/svg" xmlns:xlink="http://www.w3.org/1999/xlink">
    <title>band-aid</title>
    <path d="M13 10c0-0.552 0.448-1 1-1s1 0.448 1 1-0.448 1-1 1-1-0.448-1-1zM14 15c0.552 0 1-0.448 1-1s-0.448-1-1-1-1 0.448-1 1 0.448 1 1 1zM24 9v6c0 2.206-1.794 4-4 4H4c-2.206 0-4-1.794-4-4V9c0-2.206 1.794-4 4-4h16c2.206 0 4 1.794 4 4zM5 6H4C2.346 6 1 7.346 1 9v6c0 1.654 1.346 3 3 3h1zM18 6H6v12h12zM23 9c0-1.654-1.346-3-3-3h-1v12h1c1.654 0 3-1.346 3-3zM10 15c0.552 0 1-0.448 1-1s-0.448-1-1-1-1 0.448-1 1 0.448 1 1 1zM10 11c0.552 0 1-0.448 1-1s-0.448-1-1-1-1 0.448-1 1 0.448 1 1 1z" />
</svg>