<svg id="bank_Layer_1" viewBox="0 0 24 24" fill="currentColor" width="32" height="32" data-name="Layer 1" xmlns="http://www.w3.org/2000/svg" xmlns:xlink="http://www.w3.org/1999/xlink">
    <title>bank</title>
    <path d="M24 23.5c0 0.276-0.224 0.5-0.5 0.5h-23C0.224 24 0 23.776 0 23.5S0.224 23 0.5 23h23c0.276 0 0.5 0.224 0.5 0.5zM0.241 7.779c-0.362-0.692-0.315-1.484 0.126-2.118 0.41-0.591 1.945-1.389 1.947-1.39l7.451-3.729c1.396-0.728 3.072-0.729 4.478 4e-3l7.651 3.879 5e-3 2e-3c0 0 1.355 0.686 1.735 1.232 0.44 0.634 0.487 1.426 0.125 2.118-0.395 0.753-1.178 1.221-2.045 1.221H21v10h1.5c0.276 0 0.5 0.224 0.5 0.5s-0.224 0.5-0.5 0.5h-21c-0.276 0-0.5-0.224-0.5-0.5s0.224-0.5 0.5-0.5H3v-10H2.286c-0.867 0-1.65-0.468-2.045-1.219zM4 19h4.002L8.037 9H4zM9.037 9 9.002 19H15V9zM20 9h-4v10h4zM1.128 7.315C1.349 7.737 1.792 8 2.286 8h19.428c0.494 0 0.938-0.262 1.158-0.685 0.189-0.362 0.167-0.757-0.06-1.084-0.235-0.338-0.693-0.569-1.136-0.793l-7.891-4.002c-0.56-0.292-1.174-0.438-1.786-0.438s-1.223 0.145-1.78 0.435L2.762 5.165C2.197 5.459 1.457 5.843 1.189 6.231 0.961 6.559 0.939 6.954 1.128 7.315z" />
</svg>