<svg id="banner_5_Layer_1" viewBox="0 0 24 24" fill="currentColor" width="32" height="32" data-name="Layer 1" xmlns="http://www.w3.org/2000/svg" xmlns:xlink="http://www.w3.org/1999/xlink">
    <title>banner-5</title>
    <path d="M23.899 17.584c-1.036-1.891-2.881-3.583-2.892-3.602 0.279-0.179 1.722-1.115 2.681-2.002 0.237-0.218 0.348-0.539 0.296-0.857-0.053-0.327-0.264-0.604-0.565-0.742-0.762-0.347-2.878-1.043-4.419-1.377V8.218c0-1.342-0.958-2.506-2.278-2.77-2.982-0.595-6.461-0.595-9.443 0-1.32 0.264-2.278 1.428-2.278 2.77v0.786c-1.541 0.334-3.657 1.03-4.42 1.377-0.301 0.138-0.512 0.415-0.563 0.74-0.053 0.32 0.058 0.641 0.293 0.858 0.961 0.888 2.403 1.824 2.688 2.01-0.016 0.012-1.86 1.703-2.896 3.594-0.162 0.295-0.126 0.642 0.096 0.908 0.164 0.194 0.388 0.298 0.62 0.298 0.091 0 0.184-0.016 0.275-0.049 1.326-0.463 4.683-1.247 6.685-1.613 0.709-0.13 1.224-0.75 1.224-1.474v-1.389c0.898-0.131 1.924-0.229 3-0.229s2.101 0.098 3 0.229v1.389c0 0.724 0.515 1.344 1.224 1.474 2.002 0.366 5.358 1.15 6.679 1.611 0.094 0.034 0.188 0.051 0.281 0.051 0.234 0 0.458-0.104 0.623-0.3 0.219-0.264 0.255-0.611 0.089-0.905zM3.554 14.819C3.76 14.696 4 14.408 4 14c0-0.389-0.238-0.697-0.47-0.86-0.163-0.104-1.624-1.046-2.535-1.849C1.612 11.01 3.513 10.368 5 10.026v3.939c0 0.502 0.25 0.969 0.668 1.248l1.516 1.01c-1.719 0.332-4.411 0.945-5.96 1.423 0.935-1.497 2.345-2.827 2.33-2.827zM6 13.862V8.218c0-0.866 0.62-1.619 1.474-1.79 2.854-0.569 6.199-0.569 9.053 0 0.854 0.17 1.474 0.923 1.474 1.79v5.644c-0.955-0.263-3.311-0.826-6-0.826S6.956 13.599 6 13.862zM16.817 16.223l1.515-1.01C18.75 14.934 19 14.467 19 13.965v-3.939c1.487 0.342 3.388 0.978 4.011 1.219-0.917 0.849-2.378 1.79-2.567 1.912-0.205 0.146-0.443 0.454-0.443 0.843 0 0.409 0.241 0.697 0.371 0.764 0.016 0.014 1.457 1.365 2.405 2.882-1.544-0.477-4.239-1.091-5.96-1.423z" />
</svg>