<svg id="banner_Layer_1" viewBox="0 0 24 24" fill="currentColor" width="32" height="32" data-name="Layer 1" xmlns="http://www.w3.org/2000/svg" xmlns:xlink="http://www.w3.org/1999/xlink">
    <title>banner</title>
    <path d="M22.257 17.577c0.052 7e-3-0.052 0 0 0zM23.688 8.948c-0.025 0.03-3.823 2.904-3.823 2.904l3.336 3.555c0.355 0.527 0.361 1.125 0.068 1.592-0.23 0.366-0.607 0.578-1.012 0.578C19.903 17.259 15.312 17 12 17s-7.748 0.249-10.102 0.566c-0.457 0.061-0.907-0.155-1.167-0.567-0.293-0.466-0.287-1.064 0.015-1.524l3.39-3.622c0 0-3.798-2.875-3.824-2.905C-6e-3 8.56-0.089 8.022 0.096 7.542 0.264 7.107 0.623 6.809 1.058 6.746 3.458 6.393 8.542 6 11.999 6S20.54 6.393 22.94 6.746c0.435 0.063 0.794 0.361 0.962 0.796 0.186 0.479 0.103 1.018-0.214 1.406zM22.971 7.903c-0.021-0.057-0.073-0.153-0.174-0.168C20.43 7.387 15.414 7 12 7S3.57 7.387 1.203 7.735C1.102 7.75 1.051 7.846 1.029 7.903 0.992 8 0.98 8.15 1.058 8.275l4.124 3.115c0.113 0.085 0.185 0.215 0.196 0.356 0.013 0.141-0.036 0.281-0.134 0.385l-3.717 3.961c-0.046 0.084-0.021 0.264 0.05 0.375 0.052 0.083 0.116 0.116 0.188 0.108C4.155 16.253 8.65 16 11.999 16s7.845 0.253 10.234 0.575c0.069 7e-3 0.136-0.026 0.188-0.108 0.07-0.111 0.096-0.291-4e-3-0.442l-3.663-3.894c-0.098-0.104-0.146-0.244-0.134-0.385 0.012-0.142 0.083-0.271 0.196-0.356l4.124-3.115C23.018 8.15 23.006 8 22.971 7.903z" />
</svg>