<svg id="banner_3_Layer_1" viewBox="0 0 24 24" fill="currentColor" width="32" height="32" data-name="Layer 1" xmlns="http://www.w3.org/2000/svg" xmlns:xlink="http://www.w3.org/1999/xlink">
    <title>banner-3</title>
    <path d="M22.947 0.919C22.275 0.281 21.398-0.05 20.478 0L4.155 0.688C2.209 0.786 0.637 2.271 0.417 4.221L0.018 7.815c-0.14 1.438 0.559 2.854 1.777 3.607l3.17 2-2.138 3.445C2.45 17.474 2 18.424 2 19.499v0.5c0 1.202 0.915 2.196 2.434 2.656l4.01 1.329c0.108 0.027 0.215 0.041 0.32 0.041 0.472 0 0.896-0.264 1.11-0.715 0.263-0.552 0.111-1.169-0.413-1.56l-3.43-2.144 2.792-1.141c1.322-0.54 2.176-1.812 2.176-3.24v-3.746l8.863 0.517c1.085 0.051 2.116-0.34 2.904-1.093 0.795-0.761 1.233-1.788 1.233-2.893V3.378c0-0.94-0.374-1.813-1.052-2.459zM8.897 22.573c0.142 0.106 0.108 0.238 0.075 0.307s-0.115 0.176-0.25 0.145l-3.986-1.322C3.649 21.373 3 20.737 3 20v-0.5c0-0.196 0.021-0.389 0.056-0.574zM8.446 17.539 4.987 18.953 3.379 17.948c0.104-0.223 0.211-0.412 0.298-0.553l2.134-3.438 3.886 2.453c-0.269 0.499-0.701 0.905-1.251 1.129zM10 15.225c0 0.062-9e-3 0.123-0.014 0.184l-6.967-4.397L10 11.42zM23 8.011c0 0.829-0.329 1.6-0.925 2.17-0.588 0.562-1.365 0.852-2.161 0.817L1.604 9.929c-0.439-0.561-0.662-1.283-0.591-2.01l0.398-3.587c0.165-1.46 1.34-2.573 2.79-2.646l16.323-0.687c0.639-0.042 1.262 0.195 1.734 0.644C22.737 2.098 23 2.713 23 3.377z" />
</svg>