<svg id="banner_4_Layer_1" viewBox="0 0 24 24" fill="currentColor" width="32" height="32" data-name="Layer 1" xmlns="http://www.w3.org/2000/svg" xmlns:xlink="http://www.w3.org/1999/xlink">
    <title>banner-4</title>
    <path d="M21.055 10.143C20.998 10.094 20.99 10.032 20.99 10c0-0.033 9e-3-0.095 0.065-0.144l2.753-2.395c0.033-0.029 0.062-0.062 0.086-0.098 0.188-0.277 0.128-0.626 0.014-0.854C23.753 6.19 23.448 6 23.094 6h-6.093c-1.103 0-2 0.897-2 2v1h-6V8c0-1.103-0.897-2-2-2H0.907C0.553 6 0.248 6.19 0.094 6.509-0.06 6.827-0.024 7.183 0.261 7.532l2.685 2.326c0.057 0.049 0.065 0.111 0.065 0.144s-8e-3 0.094-0.065 0.144l-2.754 2.393c-0.033 0.029-0.062 0.062-0.087 0.099-0.23 0.342-0.067 0.74-0.012 0.854 0.155 0.319 0.459 0.509 0.813 0.509h4.093v1.5c0 1.378 1.122 2.5 2.5 2.5h9c1.379 0 2.5-1.122 2.5-2.5v-1.5h4.093c0.354 0 0.659-0.19 0.811-0.502 0.124-0.246 0.163-0.626-0.163-1.029zM1.187 13l2.416-2.101c0.26-0.227 0.409-0.555 0.408-0.899 0-0.345-0.15-0.672-0.411-0.898L1.174 7h5.827c0.086 0 0.164 0.029 0.244 0.049L5.734 8.56c-0.472 0.472-0.732 1.1-0.732 1.768v2.671zM18 15.5c0 0.827-0.673 1.5-1.5 1.5h-9C6.673 17 6 16.327 6 15.5v-5.171C6 10.217 6.015 10.107 6.039 10h11.922C17.985 10.107 18 10.216 18 10.329zM19 13v-2.671c0-0.668-0.26-1.296-0.732-1.768L16.757 7.05c0.08-0.021 0.157-0.049 0.244-0.049h5.813l-2.415 2.101c-0.261 0.227-0.409 0.555-0.409 0.9s0.15 0.672 0.411 0.897l2.439 2.102z" />
</svg>