<svg id="barber_shop_Layer_1" viewBox="0 0 24 24" fill="currentColor" width="32" height="32" data-name="Layer 1" xmlns="http://www.w3.org/2000/svg" xmlns:xlink="http://www.w3.org/1999/xlink">
    <title>barber-shop</title>
    <path d="M9.85 17.035 7.041 10.189 8.778 5.955C9.532 4.193 10 2.667 10 0.5 10 0.224 9.776 0 9.5 0S9 0.224 9 0.5c0 1.996-0.437 3.416-1.145 5.068L6.5 8.871 5.141 5.56C4.436 3.915 3.999 2.496 3.999 0.499c0-0.276-0.224-0.5-0.5-0.5s-0.5 0.224-0.5 0.5c0 2.167 0.468 3.693 1.219 5.447l1.741 4.242-2.809 6.846C1.386 17.213 0 18.689 0 20.499c0 1.93 1.57 3.5 3.5 3.5 1.28 0 2.39-0.698 3-1.726 0.61 1.028 1.72 1.726 3 1.726 1.93 0 3.5-1.57 3.5-3.5 0-1.81-1.386-3.286-3.15-3.464zM8.785 17.074c-0.975 0.203-1.791 0.82-2.285 1.651-0.494-0.831-1.31-1.448-2.285-1.651L6.5 11.506zM3.5 22.999c-1.379 0-2.5-1.121-2.5-2.5s1.121-2.5 2.5-2.5 2.5 1.121 2.5 2.5-1.121 2.5-2.5 2.5zM9.5 22.999c-1.379 0-2.5-1.121-2.5-2.5s1.121-2.5 2.5-2.5 2.5 1.121 2.5 2.5-1.121 2.5-2.5 2.5zM17 4.999v3h6.5c0.276 0 0.5 0.224 0.5 0.5s-0.224 0.5-0.5 0.5H17v3h6.5c0.276 0 0.5 0.224 0.5 0.5s-0.224 0.5-0.5 0.5H17v3h6.5c0.276 0 0.5 0.224 0.5 0.5s-0.224 0.5-0.5 0.5H17v6.5c0 0.276-0.224 0.5-0.5 0.5s-0.5-0.224-0.5-0.5V3.5C16 1.57 17.57 0 19.5 0h4C23.776 0 24 0.224 24 0.5S23.776 1 23.5 1h-4C18.121 1 17 2.121 17 3.5V4h6.5C23.776 4 24 4.224 24 4.5S23.776 5 23.5 5z" />
</svg>