<svg id="barcode_read_Layer_1" viewBox="0 0 24 24" fill="currentColor" width="32" height="32" data-name="Layer 1" xmlns="http://www.w3.org/2000/svg" xmlns:xlink="http://www.w3.org/1999/xlink">
    <title>barcode-read</title>
    <path d="M6.5 22h-3C1.57 22 0 20.43 0 18.5v-3C0 15.224 0.224 15 0.5 15S1 15.224 1 15.5v3C1 19.878 2.121 21 3.5 21h3C6.776 21 7 21.224 7 21.5S6.776 22 6.5 22zM24 18.5v-3c0-0.276-0.224-0.5-0.5-0.5S23 15.224 23 15.5v3c0 1.378-1.121 2.5-2.5 2.5h-3c-0.276 0-0.5 0.224-0.5 0.5s0.224 0.5 0.5 0.5h3c1.93 0 3.5-1.57 3.5-3.5zM24 8.5v-3C24 3.57 22.43 2 20.5 2h-3C17.224 2 17 2.224 17 2.5S17.224 3 17.5 3h3C21.879 3 23 4.122 23 5.5v3C23 8.776 23.224 9 23.5 9S24 8.776 24 8.5zM1 8.5v-3C1 4.122 2.121 3 3.5 3h3C6.776 3 7 2.776 7 2.5S6.776 2 6.5 2h-3C1.57 2 0 3.57 0 5.5v3C0 8.776 0.224 9 0.5 9S1 8.776 1 8.5zM5 17.5v-11C5 6.224 4.776 6 4.5 6S4 6.224 4 6.5v11C4 17.776 4.224 18 4.5 18S5 17.776 5 17.5zM15 17.5v-11C15 6.224 14.776 6 14.5 6S14 6.224 14 6.5v11c0 0.276 0.224 0.5 0.5 0.5s0.5-0.224 0.5-0.5zM9 17V7c0-0.552-0.447-1-1-1S7 6.448 7 7v10c0 0.552 0.447 1 1 1s1-0.448 1-1zM12 17V7c0-0.552-0.447-1-1-1s-1 0.448-1 1v10c0 0.552 0.447 1 1 1s1-0.448 1-1zM20 17V7c0-0.552-0.447-1-1-1s-1 0.448-1 1v10c0 0.552 0.447 1 1 1s1-0.448 1-1zM17 17.5v-11C17 6.224 16.776 6 16.5 6S16 6.224 16 6.5v11c0 0.276 0.224 0.5 0.5 0.5s0.5-0.224 0.5-0.5z" />
</svg>