<svg id="barcode_scan_Layer_1" viewBox="0 0 24 24" fill="currentColor" width="32" height="32" data-name="Layer 1" xmlns="http://www.w3.org/2000/svg" xmlns:xlink="http://www.w3.org/1999/xlink">
    <title>barcode-scan</title>
    <path d="M3 14.5v8C3 22.776 2.776 23 2.5 23S2 22.776 2 22.5v-8C2 14.224 2.224 14 2.5 14S3 14.224 3 14.5zM21.5 14c-0.276 0-0.5 0.224-0.5 0.5v8c0 0.276 0.224 0.5 0.5 0.5s0.5-0.224 0.5-0.5v-8c0-0.276-0.224-0.5-0.5-0.5zM12.5 14c-0.276 0-0.5 0.224-0.5 0.5v8c0 0.276 0.224 0.5 0.5 0.5s0.5-0.224 0.5-0.5v-8c0-0.276-0.224-0.5-0.5-0.5zM6 14c-0.552 0-1 0.448-1 1v7c0 0.552 0.448 1 1 1s1-0.448 1-1v-7c0-0.552-0.448-1-1-1zM9 14c-0.552 0-1 0.448-1 1v7c0 0.552 0.448 1 1 1s1-0.448 1-1v-7c0-0.552-0.448-1-1-1zM18 14c-0.552 0-1 0.448-1 1v7c0 0.552 0.448 1 1 1s1-0.448 1-1v-7c0-0.552-0.448-1-1-1zM15.5 14c-0.276 0-0.5 0.224-0.5 0.5v8c0 0.276 0.224 0.5 0.5 0.5s0.5-0.224 0.5-0.5v-8c0-0.276-0.224-0.5-0.5-0.5zM23.5 11H22V1.5C22 1.224 21.776 1 21.5 1S21 1.224 21 1.5V11h-2V2c0-0.552-0.448-1-1-1s-1 0.448-1 1v9h-1V1.5C16 1.224 15.776 1 15.5 1S15 1.224 15 1.5V11h-2V1.5C13 1.224 12.776 1 12.5 1S12 1.224 12 1.5V11h-2V2c0-0.552-0.448-1-1-1S8 1.448 8 2v9H7V2c0-0.552-0.448-1-1-1S5 1.448 5 2v9H3V1.5C3 1.224 2.776 1 2.5 1S2 1.224 2 1.5V11H0.5C0.224 11 0 11.224 0 11.5S0.224 12 0.5 12h23c0.276 0 0.5-0.224 0.5-0.5S23.776 11 23.5 11z" />
</svg>