<svg id="barefoot_Layer_1" viewBox="0 0 24 24" fill="currentColor" width="32" height="32" data-name="Layer 1" xmlns="http://www.w3.org/2000/svg" xmlns:xlink="http://www.w3.org/1999/xlink">
    <title>barefoot</title>
    <path d="M24 22c0 1.103-0.897 2-2 2h-6.455c-1.366 0-2.661-0.599-3.554-1.642-3.502-4.092-6.676-6.806-8.492-7.26C1.275 14.542 0 13.111 0 11.17c0-1.6 0.884-2.332 1.74-3.04 0.53-0.438 1.079-0.893 1.436-1.587l2.949-6.255C6.242 0.037 6.54-0.068 6.791 0.049 7.041 0.166 7.147 0.465 7.03 0.714L4.073 6.985C3.615 7.878 2.957 8.422 2.378 8.901c-0.8 0.662-1.377 1.141-1.377 2.27 0 1.977 1.718 2.701 2.742 2.957 2.792 0.699 6.843 5.049 9.009 7.58C13.455 22.529 14.473 23 15.546 23h6.455c0.551 0 1-0.448 1-1s-0.449-1-1-1h-1.493c-0.8 0-1.554-0.378-2.017-1.012-1.21-1.658-2.235-3.335-3.226-4.958-0.876-1.434-1.704-2.788-2.565-3.968-0.764-1.047-0.909-2.412-0.377-3.563l3.326-7.196c0.116-0.251 0.413-0.359 0.664-0.244 0.25 0.116 0.36 0.413 0.244 0.664L13.23 7.919c-0.379 0.821-0.273 1.8 0.277 2.554 0.886 1.213 1.724 2.584 2.611 4.037 0.98 1.604 1.995 3.265 3.18 4.889 0.275 0.377 0.728 0.602 1.209 0.602H22c1.103 0 2 0.897 2 1.999z" />
</svg>