<svg id="bars_filter_Layer_1" viewBox="0 0 24 24" fill="currentColor" width="32" height="32" data-name="Layer 1" xmlns="http://www.w3.org/2000/svg" xmlns:xlink="http://www.w3.org/1999/xlink">
    <title>bars-filter</title>
    <path d="M24 3.5C24 3.78 23.78 4 23.5 4h-23C0.22 4 0 3.78 0 3.5S0.22 3 0.5 3h23C23.78 3 24 3.22 24 3.5zM15.5 21h-7C8.22 21 8 21.22 8 21.5S8.22 22 8.5 22h7c0.28 0 0.5-0.22 0.5-0.5S15.78 21 15.5 21zM19.5 12h-15C4.22 12 4 12.22 4 12.5S4.22 13 4.5 13h15c0.28 0 0.5-0.22 0.5-0.5S19.78 12 19.5 12z" />
</svg>