<svg id="baseball_player_Layer_1" viewBox="0 0 24 24" fill="currentColor" width="32" height="32" data-name="Layer 1" xmlns="http://www.w3.org/2000/svg" xmlns:xlink="http://www.w3.org/1999/xlink">
    <title>baseball-player</title>
    <path d="M22.938 9.257l-5-9c-0.136-0.242-0.441-0.324-0.681-0.194-0.241 0.135-0.328 0.438-0.194 0.681l4.588 8.257h-4.058l-4.677-1.799c-0.588-0.227-1.227-0.208-1.8 0.053-0.573 0.26-1.009 0.729-1.225 1.317L4.397 23.326c-0.096 0.259 0.036 0.547 0.294 0.644 0.252 0.095 0.547-0.033 0.643-0.294l3.136-8.422 4.91 3.554c0.389 0.281 0.62 0.735 0.62 1.215v3.479c0 0.276 0.224 0.5 0.5 0.5s0.5-0.224 0.5-0.5v-3.479c0-0.8-0.387-1.557-1.034-2.025l-1.632-1.181 2.856-7.668 2.13 0.819c0.058 0.021 0.118 0.033 0.18 0.033h5c0.177 0 0.341-0.094 0.431-0.246 0.09-0.153 0.093-0.342 7e-3-0.498zM11.494 16.207 8.833 14.281l1.996-5.359c0 0 0 0 0-1e-3 0.124-0.339 0.373-0.606 0.7-0.755 0.328-0.149 0.693-0.159 1.028-0.03l1.7 0.654zM13.001 6.001c1.379 0 2.5-1.121 2.5-2.5s-1.121-2.5-2.5-2.5-2.5 1.121-2.5 2.5 1.122 2.5 2.5 2.5zM13.001 2.001c0.827 0 1.5 0.673 1.5 1.5s-0.673 1.5-1.5 1.5-1.5-0.673-1.5-1.5 0.673-1.5 1.5-1.5zM5 7c0-1.103-0.897-2-2-2S1 5.897 1 7 1.897 9 3 9 5 8.103 5 7zM3 8C2.449 8 2 7.552 2 7s0.449-1 1-1 1 0.448 1 1-0.449 1-1 1z" />
</svg>