<svg id="basket_shopping_simple_Layer_1" viewBox="0 0 24 24" fill="currentColor" width="32" height="32" data-name="Layer 1" xmlns="http://www.w3.org/2000/svg" xmlns:xlink="http://www.w3.org/1999/xlink">
    <title>basket-shopping-simple</title>
    <path d="M23.38 8.85C22.91 8.31 22.22 8 21.5 8h-0.56C20.44 3.48 16.6 0 12 0S3.56 3.48 3.06 8H2.5C1.78 8 1.09 8.31 0.62 8.85s-0.69 1.26-0.6 1.98l1.12 8.4C1.5 21.95 3.85 24 6.59 24H17.4c2.75 0 5.09-2.05 5.45-4.77l1.12-8.4c0.09-0.71-0.12-1.44-0.59-1.98zM12 1c4.05 0 7.44 3.03 7.94 7H4.06C4.55 4.03 7.94 1 12 1zM22.99 10.7l-1.12 8.4c-0.3 2.23-2.21 3.91-4.46 3.91H6.59c-2.25 0-4.16-1.68-4.46-3.91l-1.12-8.4c-0.06-0.43 0.07-0.86 0.36-1.19S2.07 9 2.5 9h19c0.43 0 0.84 0.19 1.13 0.51s0.42 0.76 0.36 1.19z" />
</svg>