<svg id="basket_shopping_minus_Layer_1" viewBox="0 0 24 24" fill="currentColor" width="32" height="32" data-name="Layer 1" xmlns="http://www.w3.org/2000/svg" xmlns:xlink="http://www.w3.org/1999/xlink">
    <title>basket-shopping-minus</title>
    <path d="M23.552 9.862C23.077 9.314 22.388 9 21.663 9H21c0-4.962-4.038-9-9-9S3 4.038 3 9H2.5C1.774 9 1.086 9.314 0.611 9.862s-0.688 1.274-0.586 1.992l1.183 8.283C1.523 22.34 3.438 24 5.663 24h12.836c2.225 0 4.14-1.661 4.455-3.863l1.183-8.283c0.103-0.718-0.111-1.444-0.585-1.992zM12 1c4.411 0 8 3.589 8 8H4c0-4.411 3.589-8 8-8zM23.148 11.712l-1.183 8.283C21.72 21.708 20.231 23 18.5 23H5.664c-1.73 0-3.22-1.292-3.465-3.005l-1.183-8.283c-0.062-0.431 0.066-0.866 0.352-1.194C1.653 10.189 2.066 10 2.501 10h19.162c0.435 0 0.848 0.188 1.133 0.517s0.414 0.764 0.352 1.195zM16 16c0 0.276-0.224 0.5-0.5 0.5h-7C8.224 16.5 8 16.276 8 16s0.224-0.5 0.5-0.5h7c0.276 0 0.5 0.224 0.5 0.5z" />
</svg>