<svg id="basketball_ticket_Layer_1" viewBox="0 0 24 24" fill="currentColor" width="32" height="32" data-name="Layer 1" xmlns="http://www.w3.org/2000/svg" xmlns:xlink="http://www.w3.org/1999/xlink">
    <title>basketball-ticket</title>
    <path d="M24 4.504v1.5c0 0.276-0.224 0.5-0.5 0.5-1.057 0-2.003 0.668-2.356 1.663-0.093 0.26-0.381 0.396-0.638 0.305-0.26-0.093-0.396-0.379-0.304-0.639 0.438-1.234 1.528-2.109 2.799-2.293V4.504c0-1.93-1.57-3.504-3.5-3.504H4.5C2.57 1 1 2.57 1 4.5v1.037c1.752 0.236 3.082 1.718 3.082 3.504 0 1.797-1.345 3.286-3.082 3.512V13.5C1 15.43 2.57 17 4.5 17h3C7.776 17 8 17.225 8 17.501S7.776 18 7.5 18h-3C2.019 18 0 15.981 0 13.5v-1.423c0-0.139 0.058-0.271 0.159-0.366 0.101-0.094 0.237-0.146 0.376-0.133h7e-3c1.403 0 2.539-1.138 2.539-2.537S1.941 6.5 0.54 6.5C0.264 6.5-1e-3 6.28-1e-3 6.004V4.5C0 2.019 2.019 0 4.5 0l15 4e-3c2.481 0 4.5 2.019 4.5 4.5zM21.876 11.988C23.184 13.261 24 15.036 24 17c-2e-3 3.86-3.149 6.995-7 7-3.851-5e-3-6.998-3.14-7-7 2e-3-3.86 3.149-6.995 7-7 1.897-2e-3 3.611 0.765 4.876 1.988zM13.221 12.345c1.037 1.159 1.646 2.602 1.754 4.155h4.05c0.108-1.552 0.718-2.996 1.754-4.155C19.746 11.505 18.432 11 17 11s-2.747 0.505-3.779 1.345zM11.025 16.5h2.95c-0.105-1.29-0.615-2.489-1.472-3.459-0.829 0.94-1.368 2.138-1.478 3.459zM12.504 20.959c0.856-0.97 1.366-2.169 1.472-3.459h-2.95c0.11 1.321 0.649 2.519 1.478 3.459zM20.779 21.655c-1.037-1.159-1.646-2.602-1.754-4.155h-4.05c-0.108 1.552-0.718 2.996-1.754 4.155C14.254 22.495 15.568 23 17 23s2.747-0.505 3.779-1.345zM22.975 17.5h-2.95c0.105 1.29 0.615 2.489 1.472 3.459 0.829-0.94 1.368-2.138 1.478-3.459zM22.975 16.5c-0.11-1.321-0.649-2.519-1.478-3.459-0.856 0.97-1.366 2.169-1.472 3.459z" />
</svg>