<svg id="bat_Layer_1" viewBox="0 0 24 24" fill="currentColor" width="32" height="32" data-name="Layer 1" xmlns="http://www.w3.org/2000/svg" xmlns:xlink="http://www.w3.org/1999/xlink">
    <title>bat</title>
    <path d="M21.33 1.533c-0.321-0.454-0.878-0.642-1.415-0.48-0.552 0.167-0.92 0.643-0.938 1.214-0.131 4.101-1.05 6.862-4.859 7.559 0.242-0.385 0.383-0.84 0.383-1.327V5.348c0-0.31-0.375-0.466-0.595-0.246l-1.049 1.049C12.59 6.053 12.301 6 12 6s-0.589 0.053-0.857 0.151l-1.049-1.049C9.875 4.883 9.499 5.038 9.499 5.348v3.151c0 0.487 0.141 0.942 0.383 1.327-3.809-0.697-4.728-3.458-4.859-7.559-0.019-0.571-0.387-1.048-0.938-1.214C3.549 0.89 2.991 1.079 2.67 1.533 0.864 4.071-0.052 8.825 2e-3 12.008c0.013 0.747 0.219 2.857 0.341 4.048 0.043 0.421 0.334 0.773 0.741 0.897 0.401 0.122 0.823 0 1.093-0.324 0.283-0.339 0.815-0.63 1.054-0.63 1.283 0 1.796 2.099 2.042 3.107l0.043 0.175c0.082 0.331 0.337 0.593 0.665 0.684 0.328 0.089 0.681-4e-3 0.922-0.247 0.438-0.443 1.157-0.719 1.348-0.719h2e-3c0.688 9e-3 1.19 0.36 1.578 1.102 0.292 1.254 0.623 2.363 0.93 3.08 0.217 0.505 0.692 0.818 1.24 0.818s1.023-0.313 1.24-0.819c0.298-0.696 0.62-1.763 0.905-2.974 0.395-0.814 0.912-1.198 1.626-1.207 0.205 0.012 0.91 0.299 1.327 0.719 0.24 0.242 0.593 0.337 0.92 0.247 0.328-0.09 0.583-0.351 0.667-0.684l0.041-0.167c0.246-1.011 0.759-3.115 2.094-3.115 0.221 0 0.707 0.275 1.003 0.63 0.27 0.324 0.69 0.444 1.093 0.324 0.407-0.125 0.698-0.477 0.741-0.897 0.098-0.951 0.327-3.25 0.341-4.048 0.054-3.184-0.862-7.937-2.669-10.475zM9.456 18.289C9.101 18.103 8.703 18.006 8.265 18c-0.585-8e-3-1.53 0.467-1.979 1.041L6.244 18.87C5.961 17.712 5.299 15 3.23 15c-0.624 0-1.416 0.504-1.894 0.955-0.204-2-0.326-3.444-0.335-3.963-0.044-2.591 0.697-7.368 2.482-9.879 0.101-0.14 0.238-0.125 0.312-0.102C3.847 2.027 4.016 2.094 4.023 2.3c0.127 3.983 0.971 7.704 5.803 8.53-0.457 0.742-0.827 1.774-0.827 3.17 0 1.227 0.183 2.777 0.457 4.289zM12 7c0.827 0 1.5 0.673 1.5 1.5 0 0.793-0.619 1.444-1.4 1.496-0.067 3e-3-0.134 3e-3-0.201 0-0.781-0.052-1.4-0.703-1.4-1.496 0-0.827 0.673-1.5 1.501-1.5zM12.32 22.787C12.238 22.979 12.069 23 12 23s-0.238-0.021-0.32-0.212C11.003 21.21 10 16.825 10 14c0-1.456 0.465-2.423 0.952-3.036C11.285 10.988 11.634 11 12 11s0.715-0.012 1.048-0.036C13.534 11.577 14 12.544 14 14c0 2.824-1.003 7.209-1.68 8.787zM22.998 11.992c-9e-3 0.527-0.134 2.008-0.407 3.999C22.182 15.499 21.442 15 20.82 15c-2.046 0-2.816 2.678-3.122 3.91C17.142 18.405 16.294 18 15.77 18h-0.013c-0.449 6e-3-0.855 0.108-1.217 0.305 0.275-1.518 0.459-3.075 0.459-4.305 0-1.396-0.37-2.428-0.827-3.17 4.832-0.826 5.676-4.547 5.803-8.53 7e-3-0.207 0.176-0.273 0.228-0.289 0.073-0.022 0.212-0.039 0.312 0.102 1.785 2.511 2.526 7.289 2.483 9.879z" />
</svg>