<svg id="bath_Layer_1" viewBox="0 0 24 24" fill="currentColor" width="32" height="32" data-name="Layer 1" xmlns="http://www.w3.org/2000/svg" xmlns:xlink="http://www.w3.org/1999/xlink">
    <title>bath</title>
    <path d="M23.302 12.863C22.807 12.306 22.135 12 21.409 12H1V4.039c0-0.842 0.299-1.68 0.91-2.258 1.134-1.073 2.724-0.969 3.742-0.12L5.027 5.25C4.949 5.691 5.04 6.143 5.282 6.521v0c0.268 0.417 0.7 0.706 1.187 0.794 0.104 0.02 0.21 0.028 0.315 0.028 0.384 0 0.763-0.124 1.074-0.356l3.427-2.57c0.744-0.559 0.935-1.61 0.42-2.414-0.313-0.487-0.847-0.794-1.425-0.819L6.426 1.011C5.012-0.285 2.667-0.454 1.083 1.208 0.356 1.972 0 3.02 0 4.074v8.11c0 0.214 0.012 0.425 0.037 0.637 0.092 0.791 0.326 2.792 0.326 2.792 0.278 2.36 1.466 4.395 3.163 5.728-4e-3 0.013-0.512 2.061-0.512 2.061-0.066 0.269 0.098 0.539 0.365 0.605 0.04 0.01 0.081 0.015 0.12 0.015 0.225 0 0.429-0.152 0.485-0.38l0.421-1.701c1.148 0.676 2.465 1.058 3.856 1.058h7.754c1.296 0 2.527-0.332 3.617-0.924l0.382 1.544c0.057 0.228 0.261 0.38 0.485 0.38 0.039 0 0.08-5e-3 0.12-0.015 0.268-0.066 0.432-0.337 0.365-0.605l-0.462-1.867c1.818-1.326 3.101-3.435 3.391-5.9l0.064-0.557c0.095-0.803-0.152-1.603-0.675-2.192zM10.876 2.562c0.221 0.346 0.137 0.809-0.19 1.054l-3.427 2.57C7.081 6.318 6.863 6.367 6.647 6.332 6.43 6.292 6.245 6.168 6.125 5.982 6.019 5.816 5.979 5.617 6.013 5.422L6.606 2.02l3.631 0.161c0.255 0.012 0.49 0.147 0.639 0.381zM22.986 14.94l-0.064 0.557c-0.437 3.708-3.405 6.504-6.906 6.504H8.262c-3.501 0-6.47-2.796-6.906-6.504l-0.293-2.496H21.41c0.436 0 0.843 0.188 1.146 0.527 0.336 0.378 0.493 0.893 0.43 1.412z" />
</svg>