<svg id="battery_100_Layer_1" viewBox="0 0 24 24" fill="currentColor" width="32" height="32" data-name="Layer 1" xmlns="http://www.w3.org/2000/svg" xmlns:xlink="http://www.w3.org/1999/xlink">
    <title>battery-100</title>
    <path d="M24 5.5v5c0 0.827-0.673 1.5-1.5 1.5H22v1.5c0 0.276-0.224 0.5-0.5 0.5S21 13.776 21 13.5v-2c0-0.276 0.224-0.5 0.5-0.5h1c0.276 0 0.5-0.224 0.5-0.5v-5C23 5.224 22.776 5 22.5 5h-1C21.224 5 21 4.776 21 4.5 21 2.57 19.43 1 17.5 1h-13C2.57 1 1 2.57 1 4.5v9C1 13.776 0.776 14 0.5 14S0 13.776 0 13.5v-9C0 2.019 2.019 0 4.5 0h13c2.312 0 4.223 1.753 4.472 4H22.5C23.327 4 24 4.673 24 5.5zM17.5 13h-13C3.673 13 3 12.327 3 11.5v-7C3 3.673 3.673 3 4.5 3h13C18.327 3 19 3.673 19 4.5v7c0 0.827-0.673 1.5-1.5 1.5zM4.5 12h13c0.276 0 0.5-0.224 0.5-0.5v-7C18 4.224 17.776 4 17.5 4h-13C4.224 4 4 4.224 4 4.5v7C4 11.776 4.224 12 4.5 12zM10 18.5v3c0 1.378-1.122 2.5-2.5 2.5S5 22.878 5 21.5v-3C5 17.122 6.122 16 7.5 16s2.5 1.122 2.5 2.5zM9 18.5C9 17.673 8.327 17 7.5 17S6 17.673 6 18.5v3C6 22.327 6.673 23 7.5 23S9 22.327 9 21.5zM16 18.5v3c0 1.378-1.122 2.5-2.5 2.5S11 22.878 11 21.5v-3c0-1.378 1.122-2.5 2.5-2.5s2.5 1.122 2.5 2.5zM15 18.5c0-0.827-0.673-1.5-1.5-1.5S12 17.673 12 18.5v3c0 0.827 0.673 1.5 1.5 1.5s1.5-0.673 1.5-1.5zM22.01 22c-0.547 0-0.99 0.443-0.99 0.99s0.443 0.99 0.99 0.99S23 23.537 23 22.99 22.557 22 22.01 22zM18.02 15.981c-0.552 0-1 0.452-1 1.01s0.448 1.01 1 1.01 1-0.452 1-1.01-0.448-1.01-1-1.01zM3.465 16.067c-0.323-0.136-0.695-0.061-0.996 0.248l-1.373 1.892c-0.162 0.224-0.112 0.536 0.111 0.699 0.223 0.162 0.536 0.111 0.699-0.111l1.095-1.518v6.224c0 0.276 0.224 0.5 0.5 0.5s0.5-0.224 0.5-0.5v-6.632c0-0.352-0.21-0.667-0.536-0.802zM22.791 16.093c-0.224-0.16-0.536-0.108-0.697 0.116l-5 7c-0.384 0.522 0.443 1.115 0.813 0.581l5-7c0.161-0.225 0.108-0.537-0.116-0.697z" />
</svg>