<svg id="battery_half_Layer_1" viewBox="0 0 24 24" fill="currentColor" width="32" height="32" data-name="Layer 1" xmlns="http://www.w3.org/2000/svg" xmlns:xlink="http://www.w3.org/1999/xlink">
    <title>battery-half</title>
    <path d="M17.5 20h-13C2.019 20 0 17.981 0 15.5v-7C0 6.019 2.019 4 4.5 4h13c2.312 0 4.223 1.753 4.472 4H22.5C23.327 8 24 8.673 24 9.5v5c0 0.827-0.673 1.5-1.5 1.5h-0.528c-0.25 2.247-2.16 4-4.472 4zM4.5 5C2.57 5 1 6.57 1 8.5v7C1 17.43 2.57 19 4.5 19h13c1.93 0 3.5-1.57 3.5-3.5 0-0.276 0.224-0.5 0.5-0.5h1c0.276 0 0.5-0.224 0.5-0.5v-5C23 9.224 22.776 9 22.5 9h-1C21.224 9 21 8.776 21 8.5 21 6.57 19.43 5 17.5 5zM10.5 17h-6C3.673 17 3 16.327 3 15.5v-7C3 7.673 3.673 7 4.5 7h6C11.327 7 12 7.673 12 8.5v7c0 0.827-0.673 1.5-1.5 1.5zM4.5 8C4.224 8 4 8.224 4 8.5v7C4 15.776 4.224 16 4.5 16h6c0.276 0 0.5-0.224 0.5-0.5v-7C11 8.224 10.776 8 10.5 8z" />
</svg>