<svg id="bay_leaf_Layer_1" viewBox="0 0 24 24" fill="currentColor" width="32" height="32" data-name="Layer 1" xmlns="http://www.w3.org/2000/svg" xmlns:xlink="http://www.w3.org/1999/xlink">
    <title>bay-leaf</title>
    <path d="M20.81 0h-0.012c-3.503 0-9.979 0.614-14.081 4.717C1.3 10.134 1.938 19.519 2.1 21.193l-1.954 1.954c-0.195 0.195-0.195 0.512 0 0.707C0.244 23.952 0.372 24 0.5 24s0.256-0.049 0.354-0.146L2.808 21.9c0.412 0.04 1.294 0.109 2.47 0.109 3.591 0 9.925-0.645 14.005-4.726C23.39 13.176 24.001 6.69 24 3.19 24 1.432 22.568 1e-3 20.81 0zM21.852 11h-8.145l4-4h5.044c-0.172 1.276-0.452 2.646-0.899 4zM19.104 16.011C19.07 16.004 8.707 16 8.707 16l4-4h8.784c-0.567 1.43-1.34 2.812-2.387 4.011zM7.989 4.896C9.188 3.849 10.57 3.077 12 2.509v8.784l-4 4c0 0-4e-3-10.363-0.011-10.397zM13 10.293V2.148c1.354-0.446 2.724-0.727 4-0.898v5.043zM18.707 6l3.958-3.958C22.876 2.376 22.999 2.769 23 3.19 23 3.988 22.968 4.949 22.866 6zM21.957 1.336 18 5.293V1.134C19.046 1.033 20.002 1 20.798 1c0.42 0 0.819 0.123 1.159 0.336zM7 5.872v10.421l-3.96 3.96C2.906 17.557 2.975 10.362 7 5.872zM3.748 20.96l3.959-3.959h10.421c-4.49 4.025-11.686 4.09-14.38 3.959z" />
</svg>