<svg id="beacon_Layer_1" viewBox="0 0 24 24" fill="currentColor" width="32" height="32" data-name="Layer 1" xmlns="http://www.w3.org/2000/svg" xmlns:xlink="http://www.w3.org/1999/xlink">
    <title>beacon</title>
    <path d="M12.85 0.03C9.37-0.21 5.97 1.06 3.51 3.51 1.06 5.97-0.21 9.38 0.03 12.85 0.46 19.1 5.88 24 12.35 24h6.15c3.39 0 5.5-2.07 5.5-5.4v-6.25c0-6.47-4.9-11.89-11.15-12.32zM23 18.6c0 2.75-1.68 4.4-4.5 4.4h-6.15C6.4 23 1.42 18.51 1.02 12.79 0.8 9.6 1.96 6.48 4.21 4.23 6.28 2.16 9.09 1.01 12 1.01c0.25 0 0.51 0 0.77 0.03 5.73 0.4 10.21 5.37 10.21 11.33v6.25z" />
</svg>