<svg id="bear_market_Layer_1" viewBox="0 0 24 24" fill="currentColor" width="32" height="32" data-name="Layer 1" xmlns="http://www.w3.org/2000/svg" xmlns:xlink="http://www.w3.org/1999/xlink">
    <title>bear-market</title>
    <path d="M7 8c0.552 0 1 0.448 1 1s-0.448 1-1 1-1-0.448-1-1 0.448-1 1-1zM14 8c-0.552 0-1 0.448-1 1s0.448 1 1 1 1-0.448 1-1-0.448-1-1-1zM8.5 12.95c0 0.389 0.393 1.052 1.121 1.369 0.339-0.84 0.807-1.612 1.381-2.294-0.157-0.016-0.323-0.026-0.502-0.026-1.289 0-2 0.425-2 0.951zM24 17.5c0 3.584-2.916 6.5-6.5 6.5S11 21.084 11 17.5 13.916 11 17.5 11 24 13.916 24 17.5zM23 17.5c0-3.032-2.467-5.5-5.5-5.5S12 14.468 12 17.5 14.467 23 17.5 23 23 20.532 23 17.5zM20.518 18.121c0.175 0.383 0.113 0.818-0.162 1.137l-1.868 1.834c-0.264 0.263-0.619 0.409-0.997 0.409h-5e-3c-0.377-2e-3-0.731-0.148-0.997-0.415l-1.826-1.8c-0.302-0.35-0.363-0.785-0.187-1.167s0.546-0.619 0.966-0.619H17v-3c0-0.276 0.224-0.5 0.5-0.5s0.5 0.224 0.5 0.5v3h1.551c0.421 0 0.792 0.238 0.967 0.621zM19.56 18.5h-4.119c-0.054 0-0.081 0.066-0.043 0.104l1.795 1.771c0 0 2e-3 3e-3 4e-3 4e-3 0.077 0.078 0.181 0.121 0.292 0.122 0.112 0 0.216-0.043 0.294-0.121l1.818-1.776c0.039-0.038 0.012-0.104-0.041-0.104zM9.73 20.802c-4.411-2.282-6.696-4.521-7.836-5.997C1.317 14.058 1 13.101 1 12.111v-1.238c0-0.811 0.219-1.606 0.634-2.302l0.725-1.217c0.118-0.198 0.084-0.451-0.08-0.612C2.266 6.729 1 5.465 1 4.001c0-1.683 1.245-3 2.833-3 1.16 0 2.026 0.787 2.451 1.523 0.127 0.219 0.397 0.311 0.63 0.21 2.275-0.973 4.896-0.973 7.171 0 0.233 0.101 0.503 9e-3 0.63-0.21 0.425-0.736 1.292-1.523 2.451-1.523 1.589 0 2.833 1.317 2.833 3 0 1.464-1.266 2.729-1.279 2.741-0.164 0.161-0.197 0.414-0.08 0.612l0.725 1.218c0.118 0.197 0.22 0.403 0.306 0.615 0.103 0.257 0.396 0.379 0.651 0.277 0.256-0.104 0.38-0.395 0.277-0.65-0.105-0.261-0.23-0.514-0.375-0.755l-0.535-0.898c0.452-0.535 1.31-1.738 1.31-3.16 0-2.243-1.684-4-3.833-4-1.191 0-2.337 0.625-3.08 1.655-2.294-0.869-4.88-0.869-7.174 0-0.743-1.03-1.889-1.655-3.08-1.655C1.684 0 0 1.757 0 4 0 5.422 0.858 6.625 1.31 7.16L0.775 8.058C0.269 8.909 1e-3 9.881 1e-3 10.871v1.238c0 1.21 0.392 2.385 1.103 3.306 1.202 1.556 3.595 3.907 8.167 6.274 0.241 0.125 0.546 0.033 0.674-0.215 0.127-0.245 0.031-0.547-0.215-0.672z" />
</svg>