<svg id="beauty_mask_Layer_1" viewBox="0 0 24 24" fill="currentColor" width="32" height="32" data-name="Layer 1" xmlns="http://www.w3.org/2000/svg" xmlns:xlink="http://www.w3.org/1999/xlink">
    <title>beauty-mask</title>
    <path d="M11 9c0-1.103-1.122-2-2.5-2S6 7.897 6 9s1.122 2 2.5 2 2.5-0.897 2.5-2zM7 9c0-0.542 0.687-1 1.5-1S10 8.458 10 9s-0.687 1-1.5 1S7 9.542 7 9zM15.5 7C14.122 7 13 7.897 13 9s1.122 2 2.5 2 2.5-0.897 2.5-2-1.122-2-2.5-2zM15.5 10C14.687 10 14 9.542 14 9s0.687-1 1.5-1S17 8.458 17 9s-0.687 1-1.5 1zM22.348 12.548l-1.176-0.551 1.718-0.816c0.79-0.395 1.226-1.245 1.085-2.115-0.418-2.608-1.901-4.965-4.176-6.637-0.846-0.622-2.05-0.557-2.865 0.153L16 3.398V2.185c0-0.994-0.708-1.827-1.685-1.981-1.512-0.241-3.13-0.241-4.633 2e-3C8.707 0.362 8 1.195 8 2.187v1.21L7.082 2.594c-0.82-0.715-2.033-0.775-2.886-0.141-2.238 1.66-3.715 3.98-4.157 6.535-0.156 0.904 0.349 1.82 1.201 2.179l1.965 0.829-1.428 0.593c-0.988 0.411-1.49 1.542-1.12 2.522 0.939 2.488 2.661 4.423 3.939 5.608 0.403 0.374 0.928 0.56 1.472 0.523 0.548-0.037 1.065-0.304 1.419-0.732l0.511-0.619v1.793c0 0.88 0.561 1.648 1.396 1.914 0.891 0.282 1.768 0.425 2.604 0.425s1.719-0.145 2.609-0.43c0.832-0.266 1.391-1.034 1.391-1.912v-1.79L16.5 20.5c0.352 0.427 0.87 0.692 1.421 0.729 0.545 0.036 1.063-0.146 1.46-0.515 1.825-1.695 3.233-3.717 3.966-5.691 0.353-0.949-0.074-2.012-0.999-2.475zM22.413 14.676c-0.68 1.831-1.997 3.716-3.709 5.307-0.192 0.179-0.44 0.273-0.713 0.249-0.278-0.019-0.539-0.152-0.716-0.368l-1.388-1.683c-0.134-0.162-0.357-0.223-0.555-0.152-0.199 0.071-0.331 0.26-0.331 0.471v3.182c0 0.435-0.286 0.829-0.695 0.959-1.581 0.507-3.017 0.508-4.607 5e-3-0.411-0.131-0.698-0.525-0.698-0.961V18.5c0-0.211-0.132-0.399-0.331-0.471C8.615 18.009 8.558 18 8.501 18c-0.146 0-0.289 0.064-0.386 0.182l-1.396 1.692c-0.183 0.221-0.437 0.353-0.715 0.371-0.27 0.01-0.527-0.074-0.726-0.26-1.696-1.571-3.004-3.428-3.684-5.228-0.182-0.48 0.073-1.04 0.568-1.245l2.531-1.051c0.186-0.078 0.308-0.259 0.308-0.46s-0.12-0.384-0.306-0.462L1.63 10.245c-0.428-0.18-0.682-0.638-0.604-1.087 0.511-2.949 2.33-4.835 3.767-5.899 0.479-0.356 1.166-0.318 1.632 0.09l1.748 1.527c0.148 0.129 0.358 0.161 0.536 0.079C8.888 4.874 9.002 4.696 9.002 4.5V2.188c0-0.498 0.353-0.916 0.84-0.994 1.401-0.226 2.91-0.225 4.318-2e-3 0.479 0.076 0.841 0.503 0.841 0.994V4.5c0 0.196 0.115 0.374 0.293 0.455s0.388 0.05 0.536-0.079l1.763-1.541c0.464-0.405 1.143-0.447 1.615-0.101 1.458 1.072 3.298 2.981 3.78 5.99 0.069 0.43-0.155 0.867-0.536 1.058l-2.666 1.266c-0.175 0.083-0.286 0.259-0.286 0.453 0 0.193 0.113 0.369 0.288 0.451l2.124 0.996c0.46 0.23 0.676 0.759 0.501 1.228zM15.227 13H8.762c-0.488 0-0.924 0.26-1.139 0.68-0.201 0.393-0.167 0.842 0.092 1.2 0.739 1.024 2.252 2.119 4.285 2.119s3.536-1.095 4.273-2.118c0.259-0.359 0.293-0.808 0.093-1.2C16.151 13.261 15.715 13 15.227 13zM15.462 14.296c-0.566 0.785-1.812 1.703-3.462 1.703-1.658 0-2.907-0.918-3.474-1.704-0.024-0.033-0.051-0.085-0.013-0.16 0.034-0.065 0.116-0.136 0.249-0.136h6.465c0.132 0 0.215 0.071 0.249 0.137 0.038 0.074 0.011 0.127-0.014 0.16z" />
</svg>