<svg id="bed_pulse_Layer_1" viewBox="0 0 24 24" fill="currentColor" width="32" height="32" data-name="Layer 1" xmlns="http://www.w3.org/2000/svg" xmlns:xlink="http://www.w3.org/1999/xlink">
    <title>bed-pulse</title>
    <path d="M21.75 8.603c-0.241-0.14-0.545-0.057-0.683 0.183-0.139 0.239-0.057 0.545 0.182 0.683 1.08 0.624 1.75 1.786 1.75 3.032v2.5H9v-2.5c0-1.93 1.57-3.5 3.5-3.5H14c0.276 0 0.5-0.224 0.5-0.5s-0.224-0.5-0.5-0.5h-1.5c-1.971 0-3.632 1.282-4.239 3.05-0.551-0.637-1.354-1.05-2.261-1.05-1.654 0-3 1.346-3 3 0 0.771 0.301 1.468 0.78 2H1V5.5C1 5.224 0.776 5 0.5 5S0 5.224 0 5.5v18C0 23.776 0.224 24 0.5 24S1 23.776 1 23.5V20h22v3.5c0 0.276 0.224 0.5 0.5 0.5s0.5-0.224 0.5-0.5v-11c0-1.602-0.862-3.096-2.25-3.897zM4 13c0-1.103 0.897-2 2-2s2 0.897 2 2-0.897 2-2 2-2-0.897-2-2zM1 19v-3h22v3zM8 4.5C8 4.224 8.224 4 8.5 4h3.3c0.209 0 0.398-0.132 0.469-0.329l1.044-2.87c0.338-1.064 1.98-1.001 2.245 0.079l1.872 6.991c0.075 0.176 0.261 0.176 0.354 0.01l1.01-2.878C19.004 4.403 19.573 4 20.209 4h3.292c0.276 0 0.5 0.224 0.5 0.5S23.777 5 23.501 5h-3.292c-0.212 0-0.401 0.135-0.472 0.335l-1.018 2.897c-0.375 1.062-1.983 0.981-2.253-0.095l-1.872-6.991c-0.064-0.163-0.261-0.178-0.341-4e-3l-1.043 2.87c-0.214 0.591-0.781 0.987-1.409 0.987h-3.3C8.225 4.999 8.001 4.775 8 4.5z" />
</svg>