<svg id="beer_Layer_1" viewBox="0 0 24 24" fill="currentColor" width="32" height="32" data-name="Layer 1" xmlns="http://www.w3.org/2000/svg" xmlns:xlink="http://www.w3.org/1999/xlink">
    <title>beer</title>
    <path d="M5.546 2.001c0 0 0 0 0 0-8e-3 0-4e-3 0 0 0zM23 12.5v4c0 1.379-1.122 2.5-2.5 2.5H19v0.5c0 2.481-2.019 4.5-4.5 4.5h-9C3.019 24 1 21.981 1 19.5v-11c0-0.816 0.393-1.542 1-1.999 0 0 0 0 0-1e-3v-1c0-1.93 1.579-3.496 3.545-3.499 7e-3 0 4e-3 0 0 0C6.256 0.775 7.575 0 8.999 0c1.551 0 2.932 0.892 3.589 2.27C13.045 2.091 13.518 2 13.999 2c2.206 0 4 1.794 4 4v0.5c0 0 0 0 0 1e-3 0.607 0.456 1 1.182 1 1.999V10h1.5c1.378 0 2.5 1.121 2.501 2.5zM3 6.05C3.162 6.017 3.329 6 3.5 6h3C6.776 6 7 6.224 7 6.5v6.893c0 0.789 0.535 1.471 1.245 1.587 0.449 0.07 0.886-0.046 1.226-0.336C9.807 14.358 10 13.941 10 13.5v-7C10 6.224 10.224 6 10.5 6h6c0.171 0 0.338 0.017 0.5 0.05C17 4.349 15.654 3 14 3c-0.491 0-0.975 0.13-1.438 0.385-0.13 0.074-0.287 0.082-0.427 0.027-0.139-0.056-0.246-0.171-0.292-0.313C11.445 1.844 10.302 1 8.999 1 7.841 1 6.776 1.685 6.284 2.744 6.194 2.937 5.988 3.053 5.778 3.03c0 0-0.224-0.03-0.279-0.03-1.378 0-2.5 1.121-2.5 2.5zM18 8.5C18 7.673 17.327 7 16.5 7H11v6.5c0 0.734-0.321 1.429-0.881 1.905-0.559 0.476-1.299 0.682-2.035 0.561-1.188-0.193-2.083-1.3-2.083-2.573V7h-2.5c-0.827 0-1.5 0.673-1.5 1.5v11c0 1.93 1.57 3.5 3.5 3.5h9c1.93 0 3.5-1.57 3.5-3.5zM22 12.5c0-0.827-0.673-1.5-1.5-1.5H19v7h1.5c0.827 0 1.5-0.673 1.5-1.5z" />
</svg>