<svg id="bells_Layer_1" viewBox="0 0 24 24" fill="currentColor" width="32" height="32" data-name="Layer 1" xmlns="http://www.w3.org/2000/svg" xmlns:xlink="http://www.w3.org/1999/xlink">
    <title>bells</title>
    <path d="M23.84 14.57l-1.8-6.45c-0.86-3.1-3.43-5.39-6.51-5.97 0 0-0.01-0.02-0.02-0.02C13.97 0.76 11.99 0 9.95 0 6 0 2.64 2.69 1.79 6.53l-1.72 6.26c-0.28 1.28 0.02 2.59 0.84 3.61S2.94 18 4.25 18h0.44c0.08 0.13 0.15 0.27 0.25 0.4 0.82 1.02 2.03 1.6 3.34 1.6h1.61c0.05 2.21 1.86 4 4.08 4s4.03-1.79 4.08-4h1.67c1.35 0 2.59-0.62 3.41-1.69 0.81-1.07 1.08-2.44 0.71-3.74zM1.69 15.77c-0.62-0.78-0.86-1.79-0.65-2.74l1.72-6.26C3.52 3.37 6.47 1 9.95 1c1.31 0 2.59 0.36 3.71 1.01C9.85 2.15 6.65 4.8 5.82 8.52L4.1 14.78c-0.17 0.75-0.11 1.5 0.12 2.21-0.99 0-1.91-0.45-2.53-1.22zM13.97 23c-1.67 0-3.03-1.34-3.08-3h6.16c-0.05 1.66-1.41 3-3.08 3zM22.33 17.71C21.71 18.53 20.75 19 19.72 19H8.28c-1 0-1.93-0.45-2.56-1.23-0.62-0.78-0.86-1.79-0.65-2.74l1.72-6.26C7.55 5.37 10.5 3 13.98 3c3.3 0 6.21 2.22 7.1 5.39l1.8 6.45c0.28 1 0.08 2.04-0.55 2.87z" />
</svg>