<svg id="bell_school_Layer_1" viewBox="0 0 24 24" fill="currentColor" width="32" height="32" data-name="Layer 1" xmlns="http://www.w3.org/2000/svg" xmlns:xlink="http://www.w3.org/1999/xlink">
    <title>bell-school</title>
    <path d="M11.235 24c0.058 0-0.058 5e-3 0 0zM9 10c0 0.552 0.448 1 1 1s1-0.448 1-1-0.448-1-1-1-1 0.448-1 1zM11.235 24c-0.425 0-0.84-0.158-1.159-0.447C9.71 23.222 9.5 22.751 9.5 22.26v-2.286C4.219 19.712 0 15.345 0 10 0 4.486 4.486 0 10 0c4.128 0 7.778 2.479 9.299 6.316 0.102 0.256-0.024 0.547-0.281 0.649-0.254 0.102-0.547-0.024-0.649-0.281C17 3.231 13.715 1 9.999 1 5.038 1 1 5.038 1 10s4.038 9 9 9c3.431 0 6.517-1.907 8.053-4.977 0.124-0.247 0.424-0.346 0.671-0.224 0.247 0.124 0.347 0.424 0.224 0.671-1.632 3.26-4.84 5.317-8.448 5.495v2.295c0 0.209 0.089 0.41 0.246 0.551 0.156 0.14 0.356 0.212 0.561 0.185 5.809-0.595 10.495-4.973 11.49-10.369C22.418 12.859 21.976 13 21.5 13c-1.378 0-2.5-1.122-2.5-2.5S20.122 8 21.5 8 24 9.122 24 10.5c0 6.842-5.385 12.833-12.765 13.5zM23 10.5C23 9.673 22.327 9 21.5 9S20 9.673 20 10.5 20.673 12 21.5 12 23 11.327 23 10.5z" />
</svg>