<svg id="bell_school_slash_Layer_1" viewBox="0 0 24 24" fill="currentColor" width="32" height="32" data-name="Layer 1" xmlns="http://www.w3.org/2000/svg" xmlns:xlink="http://www.w3.org/1999/xlink">
    <title>bell-school-slash</title>
    <path d="M20.266 19.559C22.67 17.046 24 13.849 24 10.5 24 9.122 22.879 8 21.5 8S19 9.122 19 10.5 20.121 13 21.5 13c0.444 0 0.856-0.126 1.218-0.33-0.49 2.333-1.605 4.46-3.167 6.173l-2.147-2.147c0.542-0.599 1.024-1.249 1.406-1.959 0.131-0.243 0.04-0.546-0.203-0.677-0.245-0.13-0.546-0.04-0.678 0.204-0.336 0.624-0.759 1.196-1.233 1.725l-5.439-5.439c0.341-0.516 0.309-1.206-0.145-1.66s-1.144-0.487-1.66-0.145L4.005 3.298C5.657 1.818 7.775 1 10 1c3.715 0 7 2.231 8.369 5.684C18.447 6.88 18.635 7 18.834 7c0.062 0 0.124-0.011 0.185-0.035 0.257-0.102 0.382-0.393 0.28-0.649C17.777 2.479 14.128 0 10 0 7.508 0 5.138 0.922 3.296 2.589L0.854 0.146c-0.196-0.195-0.512-0.195-0.708 0s-0.195 0.512 0 0.708l18.699 18.699c-1.956 1.845-4.468 3.1-7.253 3.44-0.274 0.032-0.537-0.052-0.748-0.238-0.219-0.194-0.345-0.472-0.345-0.763v-2.021c1.39-0.068 2.726-0.401 3.971-1.024 0.247-0.124 0.347-0.424 0.224-0.671-0.124-0.247-0.427-0.346-0.671-0.223C12.768 18.681 11.415 19 10 19c-4.963 0-9-4.038-9-9 0-1.488 0.37-2.962 1.071-4.263 0.131-0.243 0.04-0.546-0.203-0.677C1.626 4.928 1.322 5.019 1.19 5.263 0.412 6.709 0 8.347 0 10c0 5.345 4.219 9.712 9.5 9.975v2.018c0 0.577 0.248 1.128 0.682 1.512 0.362 0.321 0.826 0.496 1.3 0.496 0.077 0 0.155-4e-3 0.232-0.014 3.012-0.368 5.727-1.729 7.837-3.728l3.596 3.596c0.098 0.098 0.226 0.146 0.354 0.146s0.256-0.049 0.354-0.146c0.195-0.195 0.195-0.512 0-0.707zM21.5 12c-0.827 0-1.5-0.673-1.5-1.5S20.673 9 21.5 9c0.813 0 1.474 0.652 1.496 1.46 0 8e-3-4e-3 0.014-5e-3 0.022-4e-3 0.115-0.021 0.227-0.028 0.341-0.148 0.672-0.747 1.178-1.463 1.177z" />
</svg>