<svg id="bell_concierge_Layer_1" viewBox="0 0 24 24" fill="currentColor" width="32" height="32" data-name="Layer 1" xmlns="http://www.w3.org/2000/svg" xmlns:xlink="http://www.w3.org/1999/xlink">
    <title>bell-concierge</title>
    <path d="M21.5 19c1.378 0 2.5-1.122 2.5-2.5V15c0-3.247-1.276-6.288-3.593-8.562-2.144-2.106-4.918-3.316-7.907-3.428V0.5C12.5 0.224 12.276 0 12 0s-0.5 0.224-0.5 0.5v2.511C5.134 3.279 0 8.771 0 15.385v0.978C0 17.842 1.098 19 2.5 19h9v2h-11C0.224 21 0 21.224 0 21.5S0.224 22 0.5 22h23c0.276 0 0.5-0.224 0.5-0.5S23.776 21 23.5 21h-11v-2zM1 16.363v-0.978C1 9.217 6 4 12.016 4c2.896 4e-3 5.62 1.117 7.69 3.15C21.83 9.235 23 12.023 23 14.999v1.5c0 0.827-0.673 1.5-1.5 1.5h-19c-0.855 0-1.5-0.704-1.5-1.636z" />
</svg>