<svg id="bell_slash_Layer_1" viewBox="0 0 24 24" fill="currentColor" width="32" height="32" data-name="Layer 1" xmlns="http://www.w3.org/2000/svg" xmlns:xlink="http://www.w3.org/1999/xlink">
    <title>bell-slash</title>
    <path d="M23.854 23.146 20.29 19.582c0.69-0.314 1.291-0.795 1.763-1.416 0.884-1.165 1.167-2.641 0.776-4.048l-2.048-7.444C19.689 2.744 16.077 0 11.999 0 9.001 0 6.247 1.429 4.551 3.843L0.854 0.146c-0.196-0.195-0.512-0.195-0.708 0s-0.195 0.512 0 0.708l23 23C23.244 23.952 23.372 24 23.5 24s0.256-0.049 0.354-0.146c0.195-0.195 0.195-0.512 0-0.708zM11.999 1c3.631 0 6.846 2.443 7.818 5.941l2.048 7.444c0.307 1.105 0.084 2.263-0.609 3.177-0.449 0.591-1.047 1.021-1.735 1.251L5.27 4.563C6.769 2.329 9.27 1 11.999 1zM16 19H5.642c-1.11 0-2.145-0.497-2.84-1.363-0.694-0.865-0.955-1.983-0.721-3.043l1.99-7.215c0.073-0.266-0.083-0.542-0.349-0.615C3.459 6.693 3.18 6.847 3.107 7.113l-1.996 7.24c-0.306 1.382 0.026 2.807 0.911 3.909C2.907 19.366 4.226 20 5.642 20h1.931c0.217 2.242 2.111 4 4.409 4 2.449 0 4.519-2.061 4.519-4.5 0-0.276-0.224-0.5-0.501-0.5zM11.981 23c-1.746 0-3.191-1.311-3.403-3h6.884c-0.252 1.67-1.744 3-3.481 3z" />
</svg>