<svg id="bench_tree_Layer_1" viewBox="0 0 24 24" fill="currentColor" width="32" height="32" data-name="Layer 1" xmlns="http://www.w3.org/2000/svg" xmlns:xlink="http://www.w3.org/1999/xlink">
    <title>bench-tree</title>
    <path d="M15 14c0-1.654-1.346-3-3-3H3c-1.654 0-3 1.346-3 3 0 1.304 0.836 2.415 2 2.828V20H0.5C0.224 20 0 20.224 0 20.5S0.224 21 0.5 21H2v2.5C2 23.776 2.224 24 2.5 24S3 23.776 3 23.5V21h9v2.5c0 0.276 0.224 0.5 0.5 0.5s0.5-0.224 0.5-0.5V21h1.5c0.276 0 0.5-0.224 0.5-0.5S14.776 20 14.5 20H13v-3.172c1.164-0.413 2-1.524 2-2.828zM12 20H3v-3h9zM12 16H3c-1.103 0-2-0.897-2-2s0.897-2 2-2h9c1.103 0 2 0.897 2 2s-0.897 2-2 2zM23.869 13.028c-0.372 1.461-1.576 2.596-3.067 2.892-0.555 0.11-1.063 0.119-1.578 0.119-0.735 0-1.224 0.202-1.224 1.191v6.27c0 0.276-0.224 0.5-0.5 0.5S17 23.776 17 23.5v-6.27c0-0.818 0.289-2.191 2.224-2.191 0.463 0 0.917-8e-3 1.383-0.1 1.098-0.218 2.02-1.085 2.293-2.157 0.189-0.742 0.109-1.483-0.23-2.144-0.206-0.398-0.204-0.879 3e-3-1.285C22.89 8.929 23 8.474 23 7.999c0-0.972-0.439-1.858-1.174-2.371-0.503-0.352-0.815-0.938-0.857-1.608-0.066-1.045-0.653-1.965-1.612-2.522-1.07-0.626-2.398-0.662-3.549-0.102-0.981 0.477-1.649 1.525-1.787 2.805-0.062 0.573-0.37 1.094-0.847 1.427C12.439 6.142 12 7.028 12 8c0 0.146 0.01 0.288 0.031 0.428 0.04 0.272-0.149 0.527-0.422 0.567-0.277 0.032-0.527-0.149-0.567-0.423C11.015 8.385 11 8.194 11 8c0-1.298 0.599-2.491 1.602-3.191 0.239-0.167 0.395-0.428 0.425-0.715 0.174-1.624 1.05-2.969 2.343-3.597 1.453-0.707 3.131-0.656 4.491 0.137 1.251 0.729 2.019 1.94 2.106 3.324 0.023 0.365 0.181 0.675 0.432 0.851C23.401 5.509 24 6.703 24 8c0 0.634-0.147 1.242-0.436 1.809-0.061 0.118-0.062 0.261-5e-3 0.373 0.454 0.88 0.561 1.864 0.31 2.846z" />
</svg>