<svg id="benefit_diamond_alt_Layer_1" viewBox="0 0 24 24" fill="currentColor" width="32" height="32" data-name="Layer 1" xmlns="http://www.w3.org/2000/svg" xmlns:xlink="http://www.w3.org/1999/xlink">
    <title>benefit-diamond-alt</title>
    <path d="M24 5.5v10.101c0 2.003-0.78 3.887-2.196 5.303l-2.95 2.95C18.756 23.952 18.628 24 18.5 24s-0.256-0.049-0.354-0.146c-0.195-0.195-0.195-0.512 0-0.707l2.95-2.95c1.228-1.228 1.903-2.859 1.903-4.596V5.5c0-0.827-0.673-1.5-1.5-1.5s-1.5 0.673-1.5 1.5c0 0-9e-3 8.036-0.011 8.054-0.012 0.552-0.198 1.1-0.573 1.546l-2.639 2.746c-0.098 0.102-0.229 0.153-0.36 0.153-0.125 0-0.25-0.046-0.347-0.14-0.199-0.191-0.205-0.508-0.014-0.707l2.616-2.721c0.225-0.269 0.334-0.613 0.327-0.959v-9e-3c-9e-3-0.346-0.136-0.693-0.382-0.968-0.267-0.297-0.634-0.474-1.032-0.496-0.395-0.017-0.782 0.113-1.08 0.38l-2.729 2.512c-0.521 0.479-0.925 1.053-1.229 1.691 0.291 0.745 0.452 1.542 0.452 2.356v4.56c0 0.276-0.224 0.5-0.5 0.5s-0.5-0.224-0.5-0.5v-4.56c0-1.533-0.647-3.009-1.776-4.047l-2.734-2.516C7.196 12.113 6.813 11.982 6.413 12c-0.398 0.022-0.766 0.198-1.032 0.496-0.494 0.551-0.508 1.394-0.032 1.96l2.594 2.695c0.191 0.199 0.186 0.516-0.014 0.707-0.197 0.192-0.517 0.186-0.707-0.014l-2.616-2.721c-0.38-0.452-0.571-0.999-0.59-1.547C4.012 13.549 4 5.497 4 5.497c0-0.827-0.673-1.5-1.5-1.5S1 4.67 1 5.497v10.101c0 1.736 0.676 3.368 1.903 4.596l2.95 2.95c0.195 0.195 0.195 0.512 0 0.707-0.098 0.098-0.226 0.146-0.354 0.146s-0.256-0.049-0.354-0.146l-2.95-2.95c-1.416-1.416-2.196-3.3-2.196-5.303V5.5c0-1.378 1.121-2.5 2.5-2.5s2.5 1.122 2.5 2.5v5.997c0.391-0.294 0.86-0.466 1.359-0.494 0.673-0.045 1.306 0.188 1.803 0.633l2.739 2.521c0.43 0.395 0.793 0.848 1.098 1.336 0.306-0.489 0.669-0.939 1.099-1.336l2.734-2.516c0.502-0.449 1.142-0.678 1.808-0.637 0.5 0.027 0.969 0.199 1.359 0.494V5.501c0-1.378 1.121-2.5 2.5-2.5S23.998 4.123 24 5.5zM6.489 4.9C6.153 4.508 5.989 3.985 6 3.5c0.035-0.469 0.241-1 0.594-1.353l1.415-1.415C8.482 0.26 9.109 0 9.777 0h4.447c0.668 0 1.295 0.26 1.768 0.732l1.415 1.415c0.354 0.354 0.559 0.882 0.594 1.353 0.012 0.485-0.152 1.006-0.487 1.398l-5.135 5.929C12.284 10.937 12.147 11 12.001 11s-0.283-0.063-0.378-0.173zM16.894 4h-2.061l-1.979 4.749 3.9-4.503c0.063-0.074 0.101-0.16 0.14-0.246zM13.809 1l1 2h1.988c-0.034-0.048-0.055-0.102-0.098-0.145l-1.415-1.416C15.005 1.16 14.618 1 14.223 1zM13.75 4h-3.022l1.329 4.064zM10.724 3h2.967l-1-2h-1.326zM7.203 3h2.47l0.641-2H9.776C9.381 1 8.995 1.16 8.715 1.439L7.3 2.854v0C7.257 2.897 7.235 2.951 7.203 3zM7.107 4c0.039 0.086 0.077 0.173 0.141 0.248l4.031 4.656-1.603-4.903z" />
</svg>