<svg id="benefit_Layer_1" viewBox="0 0 24 24" fill="currentColor" width="32" height="32" data-name="Layer 1" xmlns="http://www.w3.org/2000/svg" xmlns:xlink="http://www.w3.org/1999/xlink">
    <title>benefit</title>
    <path d="M23.181 9.655c-0.496-0.452-1.141-0.675-1.809-0.652-0.67 0.032-1.288 0.322-1.739 0.818l-3.732 4.102C15.587 12.815 14.566 12 13.358 12H3.5C1.57 12 0 13.57 0 15.5v5C0 22.43 1.57 24 3.5 24h5.965c2.706 0 5.291-1.159 7.093-3.18l6.806-7.64c0.911-1.022 0.829-2.604-0.183-3.525zM22.618 12.516l-6.806 7.639c-1.612 1.809-3.925 2.846-6.347 2.846H3.5c-1.378 0-2.5-1.121-2.5-2.5v-5c0-1.379 1.122-2.5 2.5-2.5h9.857c0.905 0 1.643 0.737 1.643 1.643 0 0.812-0.605 1.511-1.398 1.624l-6.161 0.737c-0.274 0.032-0.47 0.281-0.437 0.556 0.033 0.273 0.274 0.479 0.556 0.437l6.172-0.738c1.022-0.146 1.846-0.879 2.146-1.824l4.496-4.94c0.271-0.298 0.643-0.473 1.046-0.492 0.403-0.02 0.79 0.12 1.088 0.393 0.609 0.555 0.658 1.506 0.11 2.119zM4.7 9.999l6.606 0.016c0.719 0 1.396-0.28 1.906-0.789 0.512-0.509 0.793-1.188 0.793-1.912V2.501c0-0.64-0.39-1.194-0.996-1.414-0.606-0.216-1.269-0.022-1.703 0.516l-0.887 1.22-1.068-1.258C8.593 0.814 7.387 0.841 6.576 1.657L5.584 2.832l-1-1.342C4.518 1.402 4.439 1.324 4.352 1.263 3.949 0.975 3.371 0.934 2.876 1.159 2.339 1.407 2.006 1.928 2.006 2.52v4.779c0 1.486 1.209 2.697 2.694 2.7zM3.006 2.52c0-0.2 0.108-0.369 0.285-0.451 0.08-0.036 0.163-0.052 0.239-0.052 0.101 0 0.191 0.027 0.251 0.072l1.377 1.847c0.091 0.123 0.233 0.196 0.386 0.201 0.161 3e-3 0.299-0.061 0.397-0.177l1.371-1.626c0.388-0.39 0.975-0.416 1.306-0.09l1.45 1.712c0.099 0.117 0.238 0.189 0.4 0.176 0.153-5e-3 0.295-0.082 0.386-0.206l1.245-1.714c0.152-0.188 0.368-0.256 0.573-0.183 0.206 0.074 0.333 0.255 0.333 0.472v4.813c0 0.456-0.177 0.883-0.499 1.204s-0.748 0.497-1.201 0.497L4.701 8.999c-0.936-1e-3-1.696-0.764-1.696-1.7z" />
</svg>