<svg id="bible_Layer_1" viewBox="0 0 24 24" fill="currentColor" width="32" height="32" data-name="Layer 1" xmlns="http://www.w3.org/2000/svg" xmlns:xlink="http://www.w3.org/1999/xlink">
    <title>bible</title>
    <path d="M17.5 0h-11C4.019 0 2 2.019 2 4.5v16C2 22.43 3.57 24 5.5 24h12c2.481 0 4.5-2.019 4.5-4.5v-15C22 2.019 19.981 0 17.5 0zM3 4.5C3 2.57 4.57 1 6.5 1h11C19.43 1 21 2.57 21 4.5V17H5.5c-0.98 0-1.864 0.407-2.5 1.058zM17.5 23h-12C4.122 23 3 21.878 3 20.5S4.122 18 5.5 18H21v1.5c0 1.93-1.57 3.5-3.5 3.5zM9 7.5C9 7.224 9.224 7 9.5 7H12V4.5C12 4.224 12.224 4 12.5 4S13 4.224 13 4.5V7h2.5C15.776 7 16 7.224 16 7.5S15.776 8 15.5 8H13v5.5c0 0.276-0.224 0.5-0.5 0.5S12 13.776 12 13.5V8H9.5C9.224 8 9 7.776 9 7.5z" />
</svg>