<svg id="big_data_Layer_1" viewBox="0 0 24 24" fill="currentColor" width="32" height="32" data-name="Layer 1" xmlns="http://www.w3.org/2000/svg" xmlns:xlink="http://www.w3.org/1999/xlink">
    <title>big-data</title>
    <path d="M24 16.5c0-0.072 0.027 0.062 0 0zM24 16.5v6c0 1.036-1.758 1.5-3.5 1.5S17 23.536 17 22.5v-6c0-1 1.453-1.377 3-1.483V14.5c0-0.827-0.673-1.5-1.5-1.5h-6v2.017c1.547 0.106 3 0.483 3 1.483v6c0 1.036-1.758 1.5-3.5 1.5s-3.5-0.464-3.5-1.5v-6c0-1 1.453-1.377 3-1.483V13h-6C4.673 13 4 13.673 4 14.5v0.517C5.547 15.123 7 15.5 7 16.5v6C7 23.536 5.242 24 3.5 24S0 23.536 0 22.5v-6c0-1 1.453-1.377 3-1.483V14.5C3 13.122 4.122 12 5.5 12h6v-2H8.864C7.41 10 6.187 8.964 6.021 7.591 5.864 6.299 6.61 5.094 7.834 4.663 7.896 4.641 8.001 4.604 8 4.181 7.997 2.865 8.59 1.225 9.925 0.53c1.249-0.65 2.58-0.707 3.751-0.16 1.117 0.521 1.943 1.553 2.211 2.761 0.024 0.112 0.108 0.216 0.217 0.272 1.254 0.647 1.994 1.973 1.885 3.375-0.115 1.47-0.9 3.221-3.989 3.221h-1.5v2h6c1.378 0 2.5 1.122 2.5 2.5v0.517c1.442 0.075 3 0.483 3 1.484zM6.009 20.589C5.341 20.865 4.422 21 3.5 21S1.667 20.867 1 20.594V22.5C1.087 22.605 1.953 23 3.5 23s2.413-0.395 2.513-0.56zM6.002 17.592C5.335 17.866 4.419 18 3.5 18S1.667 17.867 1 17.594v1.863C1.145 19.63 2.003 20 3.5 20c1.53 0 2.39-0.385 2.507-0.554zM3.5 16c-1.382 0-2.22 0.315-2.455 0.5C1.28 16.685 2.118 17 3.5 17s2.22-0.315 2.455-0.5C5.72 16.315 4.882 16 3.5 16zM14.509 20.589C13.841 20.865 12.922 21 12 21s-1.833-0.133-2.5-0.406V22.5C9.587 22.605 10.453 23 12 23s2.413-0.395 2.513-0.56zM14.502 17.592C13.835 17.866 12.919 18 12 18s-1.833-0.133-2.5-0.406v1.863C9.645 19.63 10.503 20 12 20c1.53 0 2.39-0.385 2.507-0.554zM12 16c-1.382 0-2.22 0.315-2.455 0.5C9.78 16.685 10.618 17 12 17s2.22-0.315 2.455-0.5C14.22 16.315 13.382 16 12 16zM14 9c2.521 0 2.915-1.312 2.992-2.299 0.078-1.001-0.45-1.947-1.346-2.409C15.275 4.101 15 3.748 14.911 3.349q0 0 0 0c-0.201-0.907-0.82-1.681-1.657-2.071-0.396-0.185-0.818-0.276-1.251-0.276-0.534 0-1.083 0.14-1.616 0.417C9.43 1.918 8.997 3.2 9 4.18c2e-3 0.752-0.279 1.233-0.834 1.428-0.778 0.274-1.252 1.041-1.152 1.865 0.104 0.857 0.917 1.529 1.85 1.529zM18.045 16.5C18.28 16.685 19.118 17 20.5 17s2.22-0.315 2.455-0.5C22.72 16.315 21.882 16 20.5 16s-2.22 0.315-2.455 0.5zM18 19.457C18.145 19.63 19.003 20 20.5 20c1.53 0 2.39-0.385 2.507-0.554l-4e-3-1.854C22.336 17.866 21.42 18 20.501 18s-1.833-0.133-2.5-0.406zM23.013 22.44l-4e-3-1.851C22.341 20.865 21.422 21 20.5 21s-1.833-0.133-2.5-0.406V22.5c0.087 0.105 0.953 0.5 2.5 0.5s2.413-0.395 2.513-0.56z" />
</svg>