<svg id="big_data_ai_Layer_1" viewBox="0 0 24 24" fill="currentColor" width="32" height="32" data-name="Layer 1" xmlns="http://www.w3.org/2000/svg" xmlns:xlink="http://www.w3.org/1999/xlink">
    <title>big-data-ai</title>
    <path d="M24 16.5c0-0.072 0.027 0.062 0 0zM24 16.5v6c0 1.036-1.758 1.5-3.5 1.5S17 23.536 17 22.5v-6c0-1 1.776-1.471 3.5-1.5 1.621 0 3.5 0.5 3.5 1.5zM18.045 16.5C18.28 16.685 19.118 17 20.5 17s2.22-0.315 2.455-0.5C22.72 16.315 21.882 16 20.5 16s-2.22 0.315-2.455 0.5zM18 19.457C18.145 19.63 19.002 20 20.5 20c1.531 0 2.391-0.386 2.506-0.554l-4e-3-1.854c-0.667 0.274-1.583 0.407-2.502 0.407s-1.833-0.133-2.5-0.406zM23.013 22.44l-4e-3-1.85C22.341 20.866 21.423 21 20.5 21s-1.833-0.133-2.5-0.406V22.5c0.087 0.105 0.952 0.5 2.5 0.5s2.413-0.395 2.513-0.56zM2.486 13h0.026c0.265 0 0.485-0.207 0.499-0.474 0.132-2.528 1.336-4.899 3.305-6.504 0.214-0.175 0.245-0.49 0.071-0.704S5.896 5.072 5.683 5.246c-2.187 1.784-3.524 4.418-3.67 7.228C1.998 12.75 2.21 12.985 2.486 13zM20.988 12.526C21.002 12.793 21.222 13 21.487 13h0.026c0.275-0.015 0.487-0.25 0.473-0.525-0.146-2.809-1.483-5.443-3.67-7.228-0.214-0.174-0.529-0.143-0.704 0.072-0.174 0.214-0.143 0.529 0.071 0.704 1.969 1.605 3.173 3.976 3.305 6.503zM8.86 15.98c-0.266-0.077-0.418-0.355-0.341-0.62l1.367-4.688c0.114-0.387 0.461-0.646 0.863-0.646s0.749 0.259 0.862 0.646l1.368 4.689c0.077 0.265-0.075 0.543-0.341 0.62-0.258 0.077-0.543-0.073-0.62-0.34l-0.187-0.64H9.665l-0.187 0.64C9.4 15.905 9.125 16.058 8.86 15.98zM9.958 14h1.583l-0.791-2.715zM14.499 10c-0.276 0-0.5 0.224-0.5 0.5v5c0 0.276 0.224 0.5 0.5 0.5s0.5-0.224 0.5-0.5v-5c0-0.276-0.224-0.5-0.5-0.5zM14.368 21.685c-1.537 0.418-3.201 0.418-4.738 0-0.268-0.073-0.54 0.086-0.613 0.351-0.072 0.267 0.085 0.542 0.352 0.614C10.223 22.882 11.107 23 12 23s1.777-0.118 2.631-0.35c0.267-0.072 0.424-0.347 0.352-0.614-0.072-0.266-0.343-0.425-0.615-0.351zM6.999 16.5v6c0 1.036-1.758 1.5-3.5 1.5s-3.5-0.464-3.5-1.5v-6c0-1 1.776-1.471 3.5-1.5 1.724 0.028 3.5 0.5 3.5 1.5zM1.044 16.5C1.279 16.685 2.117 17 3.499 17s2.22-0.315 2.455-0.5C5.719 16.315 4.881 16 3.499 16s-2.22 0.315-2.455 0.5zM0.999 19.457C1.144 19.63 2.001 20 3.499 20c1.531 0 2.391-0.386 2.506-0.554l-4e-3-1.854c-0.667 0.274-1.583 0.407-2.502 0.407s-1.833-0.133-2.5-0.406zM6.012 22.44l-4e-3-1.85C5.34 20.866 4.422 21 3.499 21s-1.833-0.133-2.5-0.406V22.5c0.087 0.105 0.952 0.5 2.5 0.5s2.413-0.395 2.513-0.56zM15.5 1.5v6C15.5 8.536 13.742 9 12 9S8.5 8.536 8.5 7.5v-6c0-1 1.776-1.471 3.5-1.5 1.724 0.028 3.5 0.5 3.5 1.5zM9.545 1.5C9.78 1.685 10.618 2 12 2s2.22-0.315 2.455-0.5C14.22 1.315 13.382 1 12 1S9.78 1.315 9.545 1.5zM9.5 4.457C9.645 4.63 10.502 5 12 5c1.531 0 2.391-0.386 2.506-0.554l-4e-3-1.854C13.835 2.866 12.919 2.999 12 2.999s-1.833-0.133-2.5-0.406zM14.513 7.44l-4e-3-1.85C13.841 5.866 12.923 6 12 6s-1.833-0.133-2.5-0.406V7.5C9.587 7.605 10.452 8 12 8s2.413-0.395 2.513-0.56z" />
</svg>