<svg id="bike_path_Layer_1" viewBox="0 0 24 24" fill="currentColor" width="32" height="32" data-name="Layer 1" xmlns="http://www.w3.org/2000/svg" xmlns:xlink="http://www.w3.org/1999/xlink">
    <title>bike-path</title>
    <path d="M24 19.5c0 2.481-2.019 4.5-4.5 4.5h-7c-0.276 0-0.5-0.224-0.5-0.5s0.224-0.5 0.5-0.5h7c1.93 0 3.5-1.57 3.5-3.5S21.43 16 19.5 16H4c-2.206 0-4-1.794-4-4s1.794-4 4-4h6.5C10.776 8 11 8.224 11 8.5S10.776 9 10.5 9H4c-1.654 0-3 1.346-3 3s1.346 3 3 3h15.5c2.481 0 4.5 2.019 4.5 4.5zM9.5 23h-3C6.224 23 6 23.224 6 23.5S6.224 24 6.5 24h3c0.276 0 0.5-0.224 0.5-0.5S9.776 23 9.5 23zM3.5 23h-3C0.224 23 0 23.224 0 23.5S0.224 24 0.5 24h3C3.776 24 4 23.776 4 23.5S3.776 23 3.5 23zM13 6.5C13 5.121 14.122 4 15.5 4c0.2 0 0.392 0.03 0.579 0.074 6e-3-4e-3 9e-3-0.01 0.015-0.013l0.271-0.148-1.003-1.671C15.272 2.093 15.108 2 14.933 2h-0.434c-0.276 0-0.5-0.224-0.5-0.5s0.224-0.5 0.5-0.5h0.434c0.523 0 1.016 0.278 1.286 0.728l1.024 1.707 1.786-0.974-0.353-0.627c-0.475-0.78 0.161-1.864 1.072-1.833H21.5c0.276 0 0.5 0.224 0.5 0.5s-0.224 0.5-0.5 0.5h-1.752c-0.203 0.029-0.275 0.152-0.2 0.343l1.519 2.701c0.141-0.025 0.285-0.044 0.433-0.044 1.378 0 2.5 1.121 2.5 2.5s-1.122 2.5-2.5 2.5S19 7.88 19 6.501c0-0.872 0.45-1.639 1.128-2.086l-0.609-1.083-2.378 1.298C17.663 5.088 18 5.753 18 6.501c0 1.379-1.122 2.5-2.5 2.5S13 7.88 13 6.5zM21.5 5C20.673 5 20 5.673 20 6.5S20.673 8 21.5 8 23 7.327 23 6.5 22.327 5 21.5 5zM14 6.5C14 7.327 14.673 8 15.5 8S17 7.327 17 6.5 16.327 5 15.5 5 14 5.673 14 6.5z" />
</svg>