<svg id="biking_mountain_Layer_1" viewBox="0 0 24 24" fill="currentColor" width="32" height="32" data-name="Layer 1" xmlns="http://www.w3.org/2000/svg" xmlns:xlink="http://www.w3.org/1999/xlink">
    <title>biking-mountain</title>
    <path d="M12.483 6.19l3.663 3.664C16.244 9.952 16.372 10 16.5 10s0.256-0.049 0.354-0.146c0.195-0.195 0.195-0.512 0-0.707 0 0-4.029-4.029-4.056-4.048C12.652 4.987 11.311 4 9.423 4 8.205 4 5 5.076 5 7.5 5 8.878 6.121 10 7.5 10c0.181 0 0.353-0.026 0.518-0.073-2e-3 0.043-2e-3 0.086-2e-3 0.129 0.011 0.715 0.328 1.393 0.87 1.859l2.113 1.814V17.5c0 0.276 0.224 0.5 0.5 0.5s0.5-0.224 0.5-0.5v-4c0-0.146-0.063-0.284-0.174-0.379l-2.287-1.964c-0.326-0.28-0.517-0.686-0.522-1.116-6e-3-0.36 0.12-0.707 0.346-0.981 0.201-0.187 3.12-2.87 3.121-2.87zM7.5 9C6.673 9 6 8.327 6 7.5 6 5.859 8.543 5 9.423 5c0.969 0 1.774 0.324 2.253 0.573 0 0-2.98 2.731-3.042 2.801C8.208 8.765 7.861 9 7.5 9zM16.5 5C17.879 5 19 3.878 19 2.5S17.879 0 16.5 0 14 1.122 14 2.5 15.121 5 16.5 5zM16.5 1C17.327 1 18 1.673 18 2.5S17.327 4 16.5 4 15 3.327 15 2.5 15.673 1 16.5 1zM8.362 16.96c-0.012 0-0.022 7e-3-0.033 8e-3-0.043-0.316-0.113-0.621-0.226-0.91 0.013-4e-3 0.027-3e-3 0.039-8e-3 0.25-0.13 0.34-0.43 0.22-0.68-0.13-0.24-0.43-0.34-0.67-0.21-0.02 9e-3-0.032 0.026-0.049 0.038-0.182-0.256-0.397-0.483-0.633-0.689 0.016-0.018 0.038-0.027 0.052-0.048 0.15-0.23 0.08-0.54-0.149-0.69-0.23-0.15-0.54-0.09-0.69 0.14-0.01 0.016-0.011 0.033-0.019 0.049-0.276-0.143-0.566-0.258-0.875-0.334l5e-3-0.015c0.029-0.28-0.17-0.52-0.45-0.55-0.271-0.03-0.521 0.17-0.55 0.44v5e-3c-0.321 4e-3-0.629 0.054-0.928 0.13l-2e-3-0.016c-0.09-0.26-0.38-0.4-0.64-0.3-0.26 0.09-0.4 0.38-0.3 0.64 5e-3 0.016 0.022 0.023 0.029 0.037-0.278 0.151-0.536 0.328-0.769 0.538-0.015-0.018-0.023-0.039-0.04-0.055-0.21-0.18-0.53-0.16-0.71 0.05-0.18 0.2-0.16 0.52 0.05 0.7 0.014 0.013 0.034 0.018 0.049 0.029-0.175 0.258-0.31 0.542-0.422 0.838-0.013-4e-3-0.024-0.014-0.038-0.017-0.27-0.06-0.54 0.1-0.6 0.37-0.061 0.27 0.11 0.54 0.38 0.6 0.01 3e-3 0.024 2e-3 0.035 3e-3-0.017 0.149-0.045 0.294-0.045 0.447 0 0.167 0.029 0.326 0.049 0.488-0.013 2e-3-0.026-2e-3-0.04 2e-3-0.27 0.06-0.44 0.33-0.37 0.6 0.05 0.23 0.26 0.38 0.48 0.38 0.04 0 0.08 0 0.12-0.01 0.015-3e-3 0.025-0.013 0.039-0.018 0.114 0.294 0.256 0.572 0.433 0.828-0.017 0.011-0.037 0.016-0.053 0.03-0.21 0.19-0.221 0.5-0.04 0.71 0.1 0.11 0.239 0.16 0.37 0.16 0.119 0 0.239-0.04 0.34-0.12 0.018-0.017 0.027-0.039 0.042-0.058 0.233 0.205 0.488 0.379 0.764 0.526-8e-3 0.015-0.02 0.026-0.026 0.043-0.09 0.26 0.051 0.55 0.311 0.64 0.06 0.02 0.11 0.03 0.17 0.03 0.2 0 0.4-0.13 0.47-0.34l2e-3-0.013c0.3 0.073 0.609 0.122 0.932 0.122 0.034 0.255 0.25 0.441 0.497 0.441 0.02 0 0.04-0.01 0.06-0.01 0.27-0.03 0.47-0.28 0.44-0.55 0-6e-3-5e-3-0.011-5e-3-0.017 0.306-0.078 0.594-0.194 0.867-0.339 8e-3 0.015 9e-3 0.031 0.018 0.046 0.1 0.14 0.26 0.22 0.42 0.22 0.09 0 0.189-0.03 0.279-0.08 0.23-0.16 0.29-0.47 0.141-0.7-0.013-0.019-0.033-0.03-0.048-0.046 0.231-0.208 0.444-0.433 0.621-0.689 0.017 0.011 0.028 0.027 0.047 0.036 0.069 0.03 0.149 0.05 0.22 0.05 0.19 0 0.36-0.1 0.45-0.27 0.13-0.25 0.02-0.55-0.22-0.68-0.015-7e-3-0.031-6e-3-0.046-0.012 0.108-0.287 0.177-0.591 0.216-0.905 0.01 1e-3 0.019 7e-3 0.029 7e-3h0.021c0.27 0 0.49-0.21 0.5-0.48v-0.08c-0.01-0.28-0.25-0.49-0.521-0.482zM4.383 20.5c-1.654 0-3-1.346-3-3s1.346-3 3-3 3 1.346 3 3-1.346 3-3 3zM23.48 16.96c-0.012 0-0.022 7e-3-0.033 8e-3-0.043-0.316-0.113-0.621-0.225-0.909 0.013-5e-3 0.027-4e-3 0.039-9e-3 0.25-0.13 0.34-0.43 0.22-0.68-0.13-0.24-0.43-0.34-0.67-0.21-0.02 9e-3-0.032 0.026-0.049 0.038-0.182-0.258-0.4-0.485-0.637-0.693 0.014-0.017 0.035-0.025 0.047-0.045 0.16-0.23 0.09-0.54-0.14-0.69s-0.54-0.09-0.69 0.14c-0.01 0.015-0.011 0.033-0.02 0.049-0.276-0.143-0.566-0.258-0.875-0.333l5e-3-0.015c0.029-0.28-0.17-0.52-0.45-0.55-0.269-0.03-0.516 0.168-0.548 0.445-0.322 4e-3-0.63 0.054-0.93 0.13l-2e-3-0.016c-0.09-0.26-0.38-0.4-0.64-0.31-0.26 0.1-0.4 0.39-0.3 0.65 5e-3 0.016 0.022 0.023 0.028 0.037-0.277 0.15-0.534 0.328-0.767 0.536-0.015-0.017-0.024-0.038-0.042-0.054-0.21-0.18-0.53-0.16-0.71 0.05-0.18 0.2-0.16 0.52 0.05 0.7 0.014 0.013 0.034 0.018 0.049 0.029-0.175 0.258-0.31 0.542-0.422 0.838-0.013-4e-3-0.024-0.014-0.038-0.017-0.27-0.06-0.54 0.1-0.6 0.38v-0.01c-0.061 0.27 0.11 0.54 0.37 0.6 0.015 4e-3 0.03 2e-3 0.045 4e-3-0.017 0.148-0.045 0.294-0.045 0.446 0 0.167 0.029 0.326 0.049 0.488-0.013 2e-3-0.026-2e-3-0.04 2e-3-0.27 0.06-0.44 0.33-0.37 0.6 0.05 0.23 0.26 0.39 0.49 0.39 0.03 0 0.07-0.01 0.11-0.02 0.015-3e-3 0.025-0.013 0.039-0.018 0.114 0.294 0.256 0.572 0.433 0.828-0.017 0.011-0.037 0.016-0.053 0.03-0.21 0.19-0.221 0.5-0.04 0.71 0.1 0.11 0.239 0.16 0.37 0.16 0.119 0 0.239-0.04 0.34-0.12 0.018-0.017 0.027-0.039 0.042-0.058 0.233 0.205 0.488 0.379 0.764 0.526-8e-3 0.015-0.02 0.026-0.026 0.043-0.09 0.26 0.051 0.55 0.311 0.64 0.06 0.02 0.11 0.03 0.17 0.03 0.2 0 0.4-0.13 0.47-0.34l2e-3-0.013c0.3 0.073 0.609 0.122 0.932 0.122 0.034 0.255 0.25 0.441 0.497 0.441 0.02 0 0.04-0.01 0.06-0.01 0.27-0.03 0.47-0.28 0.44-0.55 0-6e-3-5e-3-0.011-6e-3-0.017 0.306-0.078 0.594-0.194 0.868-0.339 8e-3 0.015 9e-3 0.031 0.018 0.046 0.1 0.14 0.26 0.22 0.42 0.22 0.1 0 0.189-0.03 0.279-0.08 0.23-0.16 0.29-0.47 0.141-0.7-0.013-0.019-0.033-0.03-0.048-0.046 0.231-0.208 0.444-0.433 0.621-0.689 0.017 0.011 0.028 0.027 0.047 0.036 0.069 0.03 0.149 0.05 0.22 0.05 0.19 0 0.36-0.1 0.45-0.27v-0.01c0.13-0.24 0.02-0.54-0.22-0.67-0.015-7e-3-0.031-6e-3-0.046-0.012 0.108-0.287 0.177-0.591 0.216-0.905 0.01 1e-3 0.019 7e-3 0.029 7e-3H23.5c0.27 0 0.49-0.21 0.5-0.48v-0.08c-0.01-0.28-0.25-0.49-0.52-0.481zM19.501 20.5c-1.654 0-3-1.346-3-3s1.346-3 3-3 3 1.346 3 3-1.346 3-3 3z" />
</svg>