<svg id="biking_Layer_1" viewBox="0 0 24 24" fill="currentColor" width="32" height="32" data-name="Layer 1" xmlns="http://www.w3.org/2000/svg" xmlns:xlink="http://www.w3.org/1999/xlink">
    <title>biking</title>
    <path d="M4.5 13C2.019 13 0 15.019 0 17.5S2.019 22 4.5 22 9 19.981 9 17.5 6.981 13 4.5 13zM4.5 21C2.57 21 1 19.43 1 17.5S2.57 14 4.5 14 8 15.57 8 17.5 6.43 21 4.5 21zM19.5 13c-2.481 0-4.5 2.019-4.5 4.5s2.019 4.5 4.5 4.5 4.5-2.019 4.5-4.5-2.019-4.5-4.5-4.5zM19.5 21c-1.93 0-3.5-1.57-3.5-3.5s1.57-3.5 3.5-3.5 3.5 1.57 3.5 3.5-1.57 3.5-3.5 3.5zM16.108 9.867 13.511 7.462c-0.584-0.591-1.498-0.614-2.095-0.07L9.478 8.933C9.187 9.2 9.009 9.612 9.016 10.04c6e-3 0.429 0.197 0.836 0.522 1.116l2.287 1.964c0.111 0.095 0.174 0.233 0.174 0.379v4c0 0.276-0.224 0.5-0.5 0.5s-0.5-0.224-0.5-0.5v-3.771l-2.112-1.814c-0.543-0.466-0.86-1.144-0.871-1.859S8.302 8.654 8.83 8.172l1.938-1.541c0.969-0.886 2.49-0.847 3.438 0.113L16.644 9h2.855c0.276 0 0.5 0.224 0.5 0.5s-0.224 0.5-0.5 0.5h-3.052c-0.126 0-0.247-0.047-0.339-0.133zM16.5 6C17.879 6 19 4.878 19 3.5S17.879 1 16.5 1 14 2.122 14 3.5 15.121 6 16.5 6zM16.5 2C17.327 2 18 2.673 18 3.5S17.327 5 16.5 5 15 4.327 15 3.5 15.673 2 16.5 2z" />
</svg>