<svg id="bill_arrow_Layer_1" viewBox="0 0 24 24" fill="currentColor" width="32" height="32" data-name="Layer 1" xmlns="http://www.w3.org/2000/svg" xmlns:xlink="http://www.w3.org/1999/xlink">
    <title>bill-arrow</title>
    <path d="M21 12c0 0.552-0.448 1-1 1s-1-0.448-1-1 0.448-1 1-1 1 0.448 1 1zM20 19c-0.552 0-1 0.448-1 1s0.448 1 1 1 1-0.448 1-1-0.448-1-1-1zM4 19c-0.552 0-1 0.448-1 1s0.448 1 1 1 1-0.448 1-1-0.448-1-1-1zM4 11c-0.552 0-1 0.448-1 1s0.448 1 1 1 1-0.448 1-1-0.448-1-1-1zM21.75 8.603c-0.241-0.14-0.546-0.057-0.683 0.182-0.139 0.239-0.057 0.545 0.182 0.683 1.08 0.625 1.75 1.786 1.75 3.032v7c0 1.93-1.57 3.5-3.5 3.5H4.5C2.57 23 1 21.43 1 19.5v-7C1 10.57 2.57 9 4.5 9h11C15.776 9 16 8.776 16 8.5S15.776 8 15.5 8h-11C2.019 8 0 10.019 0 12.5v7C0 21.981 2.019 24 4.5 24h15c2.481 0 4.5-2.019 4.5-4.5v-7c0-1.602-0.862-3.095-2.25-3.897zM16 16c0 2.206-1.794 4-4 4s-4-1.794-4-4 1.794-4 4-4 4 1.794 4 4zM15 16c0-1.654-1.346-3-3-3s-3 1.346-3 3 1.346 3 3 3 3-1.346 3-3zM15 4c0.126 0 0.251-0.047 0.349-0.142L18 1.276V8.5C18 8.776 18.224 9 18.5 9S19 8.776 19 8.5V1.311l2.654 2.549c0.199 0.191 0.515 0.186 0.707-0.014 0.191-0.199 0.185-0.516-0.014-0.707l-2.805-2.694C19.31 0.212 19 0 18.5 0s-0.831 0.196-1.075 0.44l-2.773 2.701c-0.198 0.193-0.202 0.509-0.01 0.707C14.74 3.949 14.87 3.999 15 4z" />
</svg>