<svg id="billboard_Layer_1" viewBox="0 0 24 24" fill="currentColor" width="32" height="32" data-name="Layer 1" xmlns="http://www.w3.org/2000/svg" xmlns:xlink="http://www.w3.org/1999/xlink">
    <title>billboard</title>
    <path d="M20 4.051V3c0.827 0 1.5-0.673 1.5-1.5S20.827 0 20 0h-1c-0.827 0-1.5 0.673-1.5 1.5S18.173 3 19 3v1h-6.5V3C13.327 3 14 2.327 14 1.5S13.327 0 12.5 0h-1C10.673 0 10 0.673 10 1.5S10.673 3 11.5 3v1H5V3c0.827 0 1.5-0.673 1.5-1.5S5.827 0 5 0H4C3.173 0 2.5 0.673 2.5 1.5S3.173 3 4 3v1.051C1.756 4.303 0 6.19 0 8.5v7C0 17.981 2.019 20 4.5 20h6v3.5c0 0.276 0.224 0.5 0.5 0.5s0.5-0.224 0.5-0.5V20h1v3.5c0 0.276 0.224 0.5 0.5 0.5s0.5-0.224 0.5-0.5V20h6c2.481 0 4.5-2.019 4.5-4.5v-7c0-2.31-1.756-4.197-4-4.449zM18.5 1.5C18.5 1.225 18.725 1 19 1h1c0.275 0 0.5 0.225 0.5 0.5S20.275 2 20 2h-1c-0.275 0-0.5-0.225-0.5-0.5zM11 1.5C11 1.225 11.225 1 11.5 1h1C12.775 1 13 1.225 13 1.5S12.775 2 12.5 2h-1C11.225 2 11 1.775 11 1.5zM3.5 1.5C3.5 1.225 3.725 1 4 1h1c0.275 0 0.5 0.225 0.5 0.5S5.275 2 5 2H4C3.725 2 3.5 1.775 3.5 1.5zM23 15.5c0 1.93-1.57 3.5-3.5 3.5h-15C2.57 19 1 17.43 1 15.5v-7C1 6.57 2.57 5 4.5 5h15C21.43 5 23 6.57 23 8.5z" />
</svg>