<svg id="billiard_Layer_1" viewBox="0 0 24 24" fill="currentColor" width="32" height="32" data-name="Layer 1" xmlns="http://www.w3.org/2000/svg" xmlns:xlink="http://www.w3.org/1999/xlink">
    <title>billiard</title>
    <path d="M12 0C5.383 0 0 5.383 0 12s5.383 12 12 12 12-5.383 12-12S18.617 0 12 0zM12 23C5.935 23 1 18.065 1 12S5.935 1 12 1 23 5.935 23 12 18.065 23 12 23zM12 4c-4.411 0-8 3.589-8 8s3.589 8 8 8 8-3.589 8-8-3.589-8-8-8zM12 19c-3.859 0-7-3.141-7-7s3.141-7 7-7 7 3.141 7 7-3.141 7-7 7zM14.798 9.692c0.259 0.434 0.271 0.957 0.031 1.402l-2.894 5.15c-0.092 0.163-0.261 0.255-0.436 0.255-0.083 0-0.167-0.021-0.245-0.064-0.24-0.135-0.326-0.439-0.19-0.681l2.889-5.143c0.098-0.182 0.022-0.346-0.015-0.407-0.036-0.062-0.146-0.205-0.36-0.205H10c-0.276 0-0.5-0.224-0.5-0.5s0.224-0.5 0.5-0.5h3.578c0.505 0 0.96 0.259 1.22 0.693z" />
</svg>