<svg id="bin_bottles_Layer_1" viewBox="0 0 24 24" fill="currentColor" width="32" height="32" data-name="Layer 1" xmlns="http://www.w3.org/2000/svg" xmlns:xlink="http://www.w3.org/1999/xlink">
    <title>bin-bottles</title>
    <path d="M23.381 9.854c-0.363-0.415-0.85-0.691-1.381-0.8V8.5c0-1.953-1.258-3.602-3-4.224V1.5C19 0.673 18.327 0 17.5 0h-3C13.673 0 13 0.673 13 1.5v1C13 2.776 13.224 3 13.5 3S14 2.776 14 2.5v-1C14 1.224 14.224 1 14.5 1h3C17.776 1 18 1.224 18 1.5v2.551C17.834 4.032 17.671 4 17.5 4h-2C15.224 4 15 4.224 15 4.5S15.224 5 15.5 5h2C19.43 5 21 6.57 21 8.5V9h-7V8.5c0-1.953-1.258-3.602-3-4.224V1.5C11 0.673 10.327 0 9.5 0h-3C5.673 0 5 0.673 5 1.5v2.776C3.258 4.897 2 6.547 2 8.5v0.554c-0.531 0.109-1.018 0.385-1.381 0.8-0.475 0.542-0.692 1.263-0.595 1.985l1.118 7.389C1.505 21.949 3.849 24 6.594 24h10.812c2.745 0 5.089-2.052 5.451-4.764l1.121-7.406c0.095-0.714-0.122-1.435-0.597-1.976zM6 1.5C6 1.224 6.224 1 6.5 1h3C9.776 1 10 1.224 10 1.5v2.551C9.834 4.032 9.671 4 9.5 4h-3C6.329 4 6.166 4.032 6 4.051zM6.5 5h3C11.43 5 13 6.57 13 8.5V9H3V8.5C3 6.57 4.57 5 6.5 5zM22.988 11.689l-1.121 7.405c-0.297 2.227-2.215 3.905-4.461 3.905H6.594c-2.246 0-4.164-1.679-4.462-3.914l-1.118-7.388c-0.057-0.428 0.073-0.86 0.358-1.186s0.696-0.512 1.129-0.512H21.5c0.433 0 0.844 0.187 1.129 0.512s0.415 0.757 0.359 1.178zM12.5 12.5v7c0 0.276-0.224 0.5-0.5 0.5s-0.5-0.224-0.5-0.5v-7c0-0.276 0.224-0.5 0.5-0.5s0.5 0.224 0.5 0.5zM18 12.5v7c0 0.276-0.224 0.5-0.5 0.5S17 19.776 17 19.5v-7c0-0.276 0.224-0.5 0.5-0.5s0.5 0.224 0.5 0.5zM7 12.5v7C7 19.776 6.776 20 6.5 20S6 19.776 6 19.5v-7C6 12.224 6.224 12 6.5 12S7 12.224 7 12.5z" />
</svg>