<svg id="binary_circle_check_Layer_1" viewBox="0 0 24 24" fill="currentColor" width="32" height="32" data-name="Layer 1" xmlns="http://www.w3.org/2000/svg" xmlns:xlink="http://www.w3.org/1999/xlink">
    <title>binary-circle-check</title>
    <path d="M8 7V4c0-2.21-1.79-4-4-4S0 1.79 0 4v3c0 2.21 1.79 4 4 4s4-1.79 4-4zM4 10c-1.65 0-3-1.35-3-3V4c0-1.65 1.35-3 3-3s3 1.35 3 3v3c0 1.65-1.35 3-3 3zM10.2 3.8c-0.2-0.2-0.2-0.51 0-0.71l2.95-2.94c0.14-0.14 0.36-0.19 0.54-0.11C13.88 0.12 14 0.3 14 0.5v9c0 0.28-0.22 0.5-0.5 0.5S13 9.78 13 9.5V1.71L10.91 3.8C10.71 4 10.4 4 10.2 3.8zM4 13.5v10C4 23.78 3.78 24 3.5 24S3 23.78 3 23.5v-8.79L0.91 16.8C0.71 17 0.4 17 0.2 16.8s-0.2-0.51 0-0.71l2.94-2.94c0.14-0.14 0.36-0.19 0.54-0.11C3.87 13.12 3.99 13.3 4 13.5zM17.5 11c-3.58 0-6.5 2.92-6.5 6.5s2.92 6.5 6.5 6.5 6.5-2.92 6.5-6.5-2.92-6.5-6.5-6.5zM17.5 23c-3.03 0-5.5-2.47-5.5-5.5s2.47-5.5 5.5-5.5 5.5 2.47 5.5 5.5-2.47 5.5-5.5 5.5zM21.35 16.35l-3.21 3.21C17.85 19.85 17.46 20 17.08 20s-0.77-0.15-1.06-0.44l-1.86-1.69c-0.21-0.19-0.22-0.5-0.03-0.71 0.19-0.2 0.5-0.22 0.71-0.03l1.88 1.71c0.21 0.21 0.53 0.21 0.72 0.02l3.21-3.21c0.2-0.2 0.51-0.2 0.71 0s0.2 0.51-0.01 0.7zM7 17v3c0 1.65 1.35 3 3 3 0.15 0 0.29-0.01 0.43-0.03 0.27-0.04 0.53 0.15 0.57 0.42s-0.15 0.53-0.42 0.57C10.39 23.99 10.2 24 10.01 24c-2.21 0-4-1.79-4-4v-3c0-2.21 1.79-4 4-4 0.19 0 0.38 0.01 0.57 0.04 0.27 0.04 0.46 0.29 0.42 0.57-0.04 0.27-0.3 0.46-0.57 0.42C10.29 14.01 10.15 14 10 14c-1.65 0-3 1.35-3 3z" />
</svg>