<svg id="binary_cloud_Layer_1" viewBox="0 0 24 24" fill="currentColor" width="32" height="32" data-name="Layer 1" xmlns="http://www.w3.org/2000/svg" xmlns:xlink="http://www.w3.org/1999/xlink">
    <title>binary-cloud</title>
    <path d="M6 15c-1.654 0-3 1.346-3 3v3c0 1.654 1.346 3 3 3s3-1.346 3-3v-3c0-1.654-1.346-3-3-3zM8 21c0 1.103-0.897 2-2 2s-2-0.897-2-2v-3c0-1.103 0.897-2 2-2s2 0.897 2 2zM18 15c-1.654 0-3 1.346-3 3v3c0 1.654 1.346 3 3 3s3-1.346 3-3v-3c0-1.654-1.346-3-3-3zM20 21c0 1.103-0.897 2-2 2s-2-0.897-2-2v-3c0-1.103 0.897-2 2-2s2 0.897 2 2zM13 15.5v8c0 0.276-0.224 0.5-0.5 0.5S12 23.776 12 23.5v-6.793l-1.146 1.146c-0.195 0.195-0.512 0.195-0.707 0s-0.195-0.512 0-0.707l2-2c0.144-0.143 0.357-0.187 0.545-0.108 0.187 0.077 0.309 0.26 0.308 0.462zM24 12.784c-0.038 1.026-0.292 2.016-0.758 2.94-0.124 0.247-0.423 0.346-0.671 0.222-0.247-0.124-0.346-0.425-0.222-0.671 0.4-0.796 0.62-1.646 0.652-2.528 0.116-3.131-2.015-5.9-5.066-6.584-0.735-0.165-1.346-0.636-1.676-1.295-1.414-2.819-4.471-4.325-7.598-3.743-2.739 0.508-4.953 2.691-5.509 5.434-0.167 0.819-0.191 1.644-0.074 2.452 0.13 0.892-0.119 1.714-0.685 2.254-1.127 1.078-1.609 2.646-1.288 4.196 0.092 0.449 0.258 0.883 0.493 1.289 0.139 0.239 0.057 0.545-0.182 0.683-0.235 0.137-0.545 0.059-0.683-0.182-0.289-0.499-0.493-1.033-0.607-1.587-0.391-1.89 0.198-3.804 1.577-5.122 0.329-0.314 0.469-0.819 0.387-1.387-0.135-0.923-0.107-1.863 0.083-2.796 0.636-3.137 3.17-5.635 6.305-6.217 3.571-0.664 7.061 1.057 8.675 4.279 0.195 0.389 0.559 0.668 1 0.767 3.521 0.79 5.98 3.984 5.847 7.596z" />
</svg>