<svg id="binary_slash_Layer_1" viewBox="0 0 24 24" fill="currentColor" width="32" height="32" data-name="Layer 1" xmlns="http://www.w3.org/2000/svg" xmlns:xlink="http://www.w3.org/1999/xlink">
    <title>binary-slash</title>
    <path d="M4 7c0-0.28 0.22-0.5 0.5-0.5S5 6.72 5 7c0 1.48 1.11 2.76 2.57 2.97 0.27 0.04 0.46 0.29 0.42 0.57-0.04 0.25-0.25 0.43-0.49 0.43-0.02 0-0.05 0-0.07 0C5.47 10.69 4 8.99 4 7zM18.14 22.1C17.57 22.68 16.81 23 16 23c-1.65 0-3-1.35-3-3v-3c0-0.15 0.01-0.29 0.03-0.43 0.04-0.27-0.15-0.53-0.42-0.57-0.27-0.03-0.53 0.15-0.57 0.42C12.01 16.61 12 16.8 12 16.99v3c0 2.21 1.79 4 4 4 1.08 0 2.1-0.43 2.86-1.2 0.19-0.2 0.19-0.51 0-0.71-0.2-0.19-0.51-0.19-0.72 0.02zM15.91 3.8 18 1.71v8.79c0 0.28 0.22 0.5 0.5 0.5s0.5-0.22 0.5-0.5v-10c0-0.2-0.12-0.38-0.31-0.46S18.29 0 18.15 0.15l-2.94 2.94c-0.2 0.2-0.2 0.51 0 0.71s0.51 0.2 0.7 0zM7.69 13.04C7.5 12.96 7.29 13 7.15 13.15l-2.94 2.94c-0.2 0.2-0.2 0.51 0 0.71s0.51 0.2 0.71 0l2.09-2.09v8.79c0 0.28 0.22 0.5 0.5 0.5s0.5-0.22 0.5-0.5v-10c0-0.2-0.12-0.38-0.32-0.46zM23.85 23.86c-0.1 0.1-0.23 0.15-0.35 0.15s-0.26-0.05-0.35-0.15l-23-23.01c-0.2-0.19-0.2-0.51 0-0.7s0.51-0.2 0.7 0l3.21 3.21C4.37 1.46 6.01 0 8 0c2.21 0 4 1.79 4 4v3c0 1.14-0.49 2.22-1.32 2.97l3.49 3.49c0.57-0.29 1.19-0.46 1.84-0.46 2.21 0 4 1.79 4 4v2.29l3.85 3.85c0.2 0.2 0.2 0.51-0.01 0.72zM14.93 14.22 19 18.29V17c0-1.65-1.35-3-3-3-0.37 0-0.73 0.09-1.07 0.22zM5 4.29 9.95 9.24C10.6 8.67 11 7.86 11 6.99v-3c0-1.65-1.35-3-3-3s-3 1.35-3 3z" />
</svg>