<svg id="binoculars_Layer_1" viewBox="0 0 24 24" fill="currentColor" width="32" height="32" data-name="Layer 1" xmlns="http://www.w3.org/2000/svg" xmlns:xlink="http://www.w3.org/1999/xlink">
    <title>binoculars</title>
    <path d="M20 5.051V2.5C20 1.122 18.878 0 17.5 0S15 1.122 15 2.5V5H9V2.5C9 1.122 7.878 0 6.5 0S4 1.122 4 2.5v2.551C1.756 5.303 0 7.19 0 9.5V19c0 2.757 2.243 5 5 5s5-2.243 5-5v-5c0-1.103 0.897-2 2-2s2 0.897 2 2v5c0 2.757 2.243 5 5 5s5-2.243 5-5V9.5c0-2.31-1.756-4.197-4-4.449zM16 2.5C16 1.673 16.673 1 17.5 1S19 1.673 19 2.5V5h-3zM6.5 1C7.327 1 8 1.673 8 2.5V5H5V2.5C5 1.673 5.673 1 6.5 1zM5 23c-2.206 0-4-1.794-4-4s1.794-4 4-4 4 1.794 4 4-1.794 4-4 4zM19 23c-2.206 0-4-1.794-4-4s1.794-4 4-4 4 1.794 4 4-1.794 4-4 4zM19 14c-1.641 0-3.088 0.806-4 2.031V14c0-1.654-1.346-3-3-3s-3 1.346-3 3v2.031C8.088 14.806 6.641 14 5 14s-3.088 0.806-4 2.031V9.5C1 7.57 2.57 6 4.5 6h15C21.43 6 23 7.57 23 9.5v6.531C22.088 14.806 20.641 14 19 14z" />
</svg>