<svg id="bio_leaves_Layer_1" viewBox="0 0 24 24" fill="currentColor" width="32" height="32" data-name="Layer 1" xmlns="http://www.w3.org/2000/svg" xmlns:xlink="http://www.w3.org/1999/xlink">
    <title>bio-leaves</title>
    <path d="M5.976 5.779c0.83 0.336 1.557 0.971 2.326 1.643C9.471 8.443 10.681 9.5 12.341 9.5c2.104 0 3.866-1.439 4.443-3.395 0.766 0.56 1.521 1.396 2.29 2.655C19.168 8.915 19.333 9 19.501 9c0.089 0 0.179-0.023 0.261-0.073 0.235-0.144 0.31-0.452 0.166-0.687-0.954-1.564-1.915-2.572-2.954-3.211 5e-3-0.094 0.028-0.183 0.028-0.279 0-2.619-2.09-4.75-4.659-4.75-2.755 0-5.038 1.11-6.98 3.394-0.316 0.372-0.432 0.854-0.317 1.321 0.117 0.477 0.466 0.875 0.93 1.064zM6.122 4.041C7.862 1.995 9.896 1 12.341 1c1.946 0 3.528 1.57 3.638 3.536C14.932 4.127 13.794 4 12.5 4 12.224 4 12 4.224 12 4.5S12.224 5 12.5 5c1.214 0 2.327 0.07 3.404 0.577-0.369 1.67-1.823 2.923-3.563 2.923-1.285 0-2.304-0.89-3.382-1.832-0.797-0.697-1.622-1.417-2.608-1.816-0.172-0.07-0.295-0.207-0.336-0.375-0.022-0.09-0.037-0.266 0.107-0.436zM22.96 12.9v0c-0.195-0.454-0.583-0.771-1.064-0.869-0.484-0.099-0.986 0.047-1.347 0.39-0.679 0.646-1.526 1.116-2.424 1.613-1.347 0.746-2.74 1.518-3.551 2.95-0.619 1.095-0.771 2.364-0.43 3.572 0.2 0.708 0.571 1.333 1.053 1.864C14.382 22.773 13.483 23 12.5 23c-0.276 0-0.5 0.224-0.5 0.5s0.224 0.5 0.5 0.5c1.302 0 2.493-0.328 3.532-0.858 0.126 0.086 0.241 0.184 0.376 0.259 0.733 0.405 1.528 0.597 2.313 0.597 1.67 0 3.294-0.869 4.166-2.41 1.433-2.532 1.457-5.456 0.073-8.688zM22.017 21.096c-0.996 1.758-3.228 2.398-5.024 1.473 1.488-1.037 2.545-2.497 2.973-3.911 0.08-0.264-0.069-0.543-0.334-0.623-0.262-0.08-0.543 0.07-0.623 0.334-0.398 1.316-1.438 2.668-2.889 3.572-0.474-0.453-0.831-1.013-1.013-1.656-0.269-0.95-0.148-1.947 0.339-2.808 0.671-1.186 1.882-1.857 3.164-2.567 0.913-0.506 1.857-1.029 2.629-1.764 0.1-0.094 0.225-0.145 0.354-0.145 0.033 0 0.067 3e-3 0.102 0.01 0.092 0.019 0.259 0.081 0.346 0.284 1.256 2.931 1.248 5.556-0.024 7.801zM9.081 14.799c-0.536-1.179-1.494-2.074-2.699-2.519-0.778-0.287-1.597-0.342-2.394-0.21-4e-3-1.272 0.241-2.489 0.891-3.245C5.06 8.616 5.035 8.3 4.826 8.12 4.617 7.941 4.301 7.964 4.121 8.174c-0.878 1.021-1.186 2.593-1.14 4.177-0.075 0.031-0.154 0.046-0.228 0.081-2.384 1.113-3.432 3.985-2.335 6.401 1.201 2.646 3.479 4.372 6.77 5.128 0.11 0.025 0.221 0.038 0.331 0.038 0.376 0 0.741-0.145 1.02-0.413 0.368-0.354 0.53-0.867 0.435-1.37-0.04-0.216-0.048-0.797-0.052-1.107-0.011-0.795 0.145-1.54 0.294-2.261 0.263-1.267 0.535-2.577-0.134-4.05zM8.235 18.645c-0.16 0.773-0.326 1.573-0.313 2.54 6e-3 0.443 0.017 0.938 0.068 1.217 0.033 0.174-0.021 0.343-0.146 0.464-0.117 0.113-0.272 0.156-0.433 0.121-2.971-0.683-5.018-2.22-6.084-4.567-0.853-1.88-0.068-4.097 1.74-5.017 0.161 1.283 0.523 2.497 0.995 3.341C4.154 16.908 4.324 17 4.499 17c0.083 0 0.167-0.021 0.244-0.063 0.241-0.135 0.327-0.439 0.192-0.681-0.442-0.789-0.768-1.971-0.895-3.192 0.234-0.046 0.47-0.078 0.707-0.078 0.434 0 0.868 0.077 1.288 0.232 0.952 0.352 1.71 1.06 2.135 1.995 0.533 1.176 0.316 2.222 0.065 3.432z" />
</svg>