<svg id="bio_Layer_1" viewBox="0 0 24 24" fill="currentColor" width="32" height="32" data-name="Layer 1" xmlns="http://www.w3.org/2000/svg" xmlns:xlink="http://www.w3.org/1999/xlink">
    <title>bio</title>
    <path d="M17.5 8C16.121 8 15 9.122 15 10.5v3c0 1.378 1.121 2.5 2.5 2.5s2.5-1.122 2.5-2.5v-3C20 9.122 18.879 8 17.5 8zM19 13.5c0 0.827-0.673 1.5-1.5 1.5S16 14.327 16 13.5v-3C16 9.673 16.673 9 17.5 9S19 9.673 19 10.5zM12 0C5.383 0 0 5.383 0 12s5.383 12 12 12 12-5.383 12-12S18.617 0 12 0zM12 23C5.935 23 1 18.065 1 12S5.935 1 12 1 23 5.935 23 12 18.065 23 12 23zM13 8.5v7c0 0.276-0.224 0.5-0.5 0.5S12 15.776 12 15.5v-7C12 8.224 12.224 8 12.5 8S13 8.224 13 8.5zM8.897 11.427C9.268 11.064 9.5 10.559 9.5 10c0-1.103-0.897-2-2-2h-1C5.673 8 5 8.673 5 9.5v5C5 15.327 5.673 16 6.5 16h1c1.379 0 2.5-1.122 2.5-2.5 0-0.862-0.438-1.623-1.103-2.073zM6 9.5C6 9.224 6.225 9 6.5 9h1c0.552 0 1 0.449 1 1s-0.448 1-1 1H6zM7.5 15h-1C6.225 15 6 14.776 6 14.5V12h1.5C8.327 12 9 12.673 9 13.5S8.327 15 7.5 15z" />
</svg>