<svg id="bird_Layer_1" viewBox="0 0 24 24" fill="currentColor" width="32" height="32" data-name="Layer 1" xmlns="http://www.w3.org/2000/svg" xmlns:xlink="http://www.w3.org/1999/xlink">
    <title>bird</title>
    <path d="M19 5c0 0.552-0.448 1-1 1s-1-0.448-1-1 0.448-1 1-1 1 0.448 1 1zM24 8 22 8.857V11c0 4.653-2.909 8.631-7 10.236V23.5c0 0.276-0.224 0.5-0.5 0.5S14 23.776 14 23.5v-1.926C13.045 21.845 12.041 22 11 22v1.5c0 0.276-0.224 0.5-0.5 0.5S10 23.776 10 23.5v-1.551C4.402 21.442 0 16.728 0 11V6.5C0 6.224 0.224 6 0.5 6S1 6.224 1 6.5C1 8.981 3.019 11 5.5 11S10 8.981 10 6.5V6c0-3.309 2.691-6 6-6s6 2.691 6 6v0.143L24 7zM1 11c0 2.252 0.758 4.326 2.019 6H5c2.757 0 5-2.243 5-5V9.652C9.004 11.069 7.36 12 5.5 12S1.996 11.07 1 9.652zM21 6c0-2.757-2.243-5-5-5s-5 2.243-5 5v6c0 3.309-2.691 6-6 6H3.871C5.687 19.849 8.21 21 11 21c5.514 0 10-4.486 10-10z" />
</svg>