<svg id="bitcoin_card_Layer_1" viewBox="0 0 24 24" fill="currentColor" width="32" height="32" data-name="Layer 1" xmlns="http://www.w3.org/2000/svg" xmlns:xlink="http://www.w3.org/1999/xlink">
    <title>bitcoin-card</title>
    <path d="M19.5 10.5H20V11c0 0.276 0.224 0.5 0.5 0.5S21 11.276 21 11v-0.5h0.75c1.24 0 2.25-1.01 2.25-2.25 0-0.83-0.452-1.558-1.123-1.947C23.263 5.899 23.5 5.352 23.5 4.75c0-1.24-1.01-2.25-2.25-2.25H21V2c0-0.276-0.224-0.5-0.5-0.5S20 1.724 20 2v0.5h-0.5C18.673 2.5 18 3.173 18 4v5c0 0.827 0.673 1.5 1.5 1.5zM19 4c0-0.275 0.225-0.5 0.5-0.5h1.75c0.689 0 1.25 0.561 1.25 1.25S21.939 6 21.25 6H19zM19 7h2.75C22.439 7 23 7.561 23 8.25S22.439 9.5 21.75 9.5H19.5C19.225 9.5 19 9.275 19 9zM3 17.5c0 1.103 0.897 2 2 2s2-0.897 2-2-0.897-2-2-2-2 0.897-2 2zM6 17.5c0 0.552-0.449 1-1 1s-1-0.448-1-1 0.449-1 1-1 1 0.448 1 1zM24 13v5c0 2.481-2.019 4.5-4.5 4.5h-15C2.019 22.5 0 20.481 0 18V9c0-2.481 2.019-4.5 4.5-4.5h11C15.776 4.5 16 4.724 16 5s-0.224 0.5-0.5 0.5h-11c-1.758 0-3.204 1.308-3.449 3H15.5C15.776 8.5 16 8.724 16 9s-0.224 0.5-0.5 0.5H1v2h16.5c0.276 0 0.5 0.224 0.5 0.5s-0.224 0.5-0.5 0.5H1V18c0 1.93 1.57 3.5 3.5 3.5h15c1.93 0 3.5-1.57 3.5-3.5v-5c0-0.276 0.224-0.5 0.5-0.5S24 12.724 24 13z" />
</svg>