<svg id="bitcoin_sign_Layer_1" viewBox="0 0 24 24" fill="currentColor" width="32" height="32" data-name="Layer 1" xmlns="http://www.w3.org/2000/svg" xmlns:xlink="http://www.w3.org/1999/xlink">
    <title>bitcoin-sign</title>
    <path d="M16.78 11.15C18.11 10.25 19 8.73 19 7c0-2.76-2.24-5-5-5h-1V0.5C13 0.22 12.78 0 12.5 0S12 0.22 12 0.5V2H9V0.5C9 0.22 8.78 0 8.5 0S8 0.22 8 0.5V2H7.5C5.57 2 4 3.57 4 5.5v13C4 20.43 5.57 22 7.5 22H8v1.5C8 23.78 8.22 24 8.5 24S9 23.78 9 23.5V22h3v1.5c0 0.28 0.22 0.5 0.5 0.5s0.5-0.22 0.5-0.5V22h2.5c3.03 0 5.5-2.47 5.5-5.5 0-2.59-1.8-4.77-4.22-5.35zM5 5.5C5 4.12 6.12 3 7.5 3H14c2.21 0 4 1.79 4 4s-1.79 4-4 4H5zM15.5 21h-8C6.12 21 5 19.88 5 18.5V12h10.5c2.48 0 4.5 2.02 4.5 4.5S17.98 21 15.5 21z" />
</svg>