<svg id="blanket_Layer_1" viewBox="0 0 24 24" fill="currentColor" width="32" height="32" data-name="Layer 1" xmlns="http://www.w3.org/2000/svg" xmlns:xlink="http://www.w3.org/1999/xlink">
    <title>blanket</title>
    <path d="M4.5 16H20c2.206 0 4-1.794 4-4V4c0-2.206-1.794-4-4-4H5.5C2.467 0 0 2.468 0 5.5v14C0 21.981 2.019 24 4.5 24h17c1.378 0 2.5-1.121 2.5-2.5S22.878 19 21.5 19h-17C4.224 19 4 19.224 4 19.5S4.224 20 4.5 20h17c0.827 0 1.5 0.673 1.5 1.5S22.327 23 21.5 23h-17C2.57 23 1 21.43 1 19.5S2.57 16 4.5 16zM1 16.675V5.5C1 3.019 3.019 1 5.5 1H20c1.654 0 3 1.346 3 3v8c0 1.654-1.346 3-3 3H4.5c-1.412 0-2.674 0.653-3.5 1.675z" />
</svg>