<svg id="blinds_raised_Layer_1" viewBox="0 0 24 24" fill="currentColor" width="32" height="32" data-name="Layer 1" xmlns="http://www.w3.org/2000/svg" xmlns:xlink="http://www.w3.org/1999/xlink">
    <title>blinds-raised</title>
    <path d="M22 19.05V4.5C22 2.019 19.981 0 17.5 0h-13C2.019 0 0 2.019 0 4.5v15C0 21.981 2.019 24 4.5 24h12c0.276 0 0.5-0.224 0.5-0.5S16.776 23 16.5 23h-12C2.57 23 1 21.43 1 19.5V9h17.5C18.776 9 19 8.776 19 8.5V1.338c1.181 0.563 2 1.769 2 3.162v14.55c-1.14 0.232-2 1.242-2 2.45 0 1.379 1.122 2.5 2.5 2.5s2.5-1.121 2.5-2.5c0-1.208-0.86-2.217-2-2.45zM1 8V5h17v3zM18 4H1.036C1.279 2.306 2.74 1 4.5 1h13c0.17 0 0.337 0.012 0.5 0.036zM21.5 23c-0.827 0-1.5-0.673-1.5-1.5s0.673-1.5 1.5-1.5 1.5 0.673 1.5 1.5-0.673 1.5-1.5 1.5z" />
</svg>