<svg id="block_user_Layer_1" viewBox="0 0 24 24" fill="currentColor" width="32" height="32" data-name="Layer 1" xmlns="http://www.w3.org/2000/svg" xmlns:xlink="http://www.w3.org/1999/xlink">
    <title>block-user</title>
    <path d="M18 12c3.309 0 6-2.691 6-6s-2.691-6-6-6-6 2.691-6 6 2.691 6 6 6zM23 6c0 1.198-0.441 2.284-1.146 3.146l-7-7C15.716 1.441 16.802 1 18 1c2.757 0 5 2.243 5 5zM14.146 2.854l7 7C20.284 10.559 19.198 11 18 11c-2.757 0-5-2.243-5-5 0-1.198 0.441-2.284 1.146-3.146zM23.511 12c-0.318-0.011-0.51 0.203-0.521 0.479-0.159 3.712-2.129 6.915-5.04 8.782C17.584 18.301 15.058 16 12 16s-5.571 2.29-5.946 5.24C3.019 19.28 1 15.874 1 12 1 6.09 5.621 1.263 11.521 1.011 11.796 0.998 12.011 0.766 12 0.49c-0.013-0.275-0.215-0.493-0.521-0.479C5.042 0.286 0 5.553 0 12c0 6.617 5.383 12 12 12 6.447 0 11.714-5.042 11.989-11.479 0.012-0.276-0.203-0.509-0.478-0.521zM7.021 21.796C7.131 19.136 9.313 17 12 17s4.879 2.144 4.981 4.811C15.484 22.569 13.794 23 12 23s-3.482-0.44-4.979-1.204zM9 10c0 1.654 1.346 3 3 3 0.617 0 1.21-0.186 1.714-0.537 0.228-0.157 0.539-0.103 0.696 0.124 0.158 0.227 0.103 0.539-0.124 0.696C13.612 13.752 12.822 14 12 14c-2.206 0-4-1.794-4-4 0-1.308 0.641-2.534 1.714-3.283 0.224-0.156 0.536-0.104 0.696 0.124 0.158 0.227 0.103 0.538-0.124 0.696C9.48 8.099 9 9.019 9 10z" />
</svg>