<svg id="block_question_Layer_1" viewBox="0 0 24 24" fill="currentColor" width="32" height="32" data-name="Layer 1" xmlns="http://www.w3.org/2000/svg" xmlns:xlink="http://www.w3.org/1999/xlink">
    <title>block-question</title>
    <path d="M15.527 7.041c1.152 2.342 0.036 4.563-1.6 5.464-0.961 0.53-1.428 1.346-1.428 2.495 0 0.276-0.224 0.5-0.5 0.5s-0.5-0.224-0.5-0.5c0-1.504 0.673-2.669 1.945-3.37 1.261-0.695 2.072-2.343 1.185-4.147-0.236-0.48-0.631-0.876-1.112-1.113-1.055-0.52-2.186-0.488-3.101 0.082-0.887 0.553-1.417 1.505-1.417 2.549 0 0.276-0.224 0.5-0.5 0.5s-0.5-0.224-0.5-0.5c0-1.392 0.706-2.662 1.889-3.398 1.215-0.756 2.697-0.804 4.07-0.129 0.679 0.335 1.235 0.892 1.569 1.567zM12 17c-0.552 0-1 0.448-1 1s0.448 1 1 1 1-0.448 1-1-0.448-1-1-1zM24 4.5v15c0 2.481-2.019 4.5-4.5 4.5h-15C2.019 24 0 21.981 0 19.5v-15C0 2.019 2.019 0 4.5 0h15C21.981 0 24 2.019 24 4.5zM23 4.5C23 2.57 21.43 1 19.5 1h-15C2.57 1 1 2.57 1 4.5v15C1 21.43 2.57 23 4.5 23h15c1.93 0 3.5-1.57 3.5-3.5zM4 19c-0.552 0-1 0.448-1 1s0.448 1 1 1 1-0.448 1-1-0.448-1-1-1zM4 3C3.448 3 3 3.448 3 4s0.448 1 1 1 1-0.448 1-1-0.448-1-1-1zM20 3c-0.552 0-1 0.448-1 1s0.448 1 1 1 1-0.448 1-1-0.448-1-1-1zM20 19c-0.552 0-1 0.448-1 1s0.448 1 1 1 1-0.448 1-1-0.448-1-1-1z" />
</svg>