<svg id="block_microphone_Layer_1" viewBox="0 0 24 24" fill="currentColor" width="32" height="32" data-name="Layer 1" xmlns="http://www.w3.org/2000/svg" xmlns:xlink="http://www.w3.org/1999/xlink">
    <title>block-microphone</title>
    <path d="M17.5 11c-3.59 0-6.5 2.91-6.5 6.5s2.91 6.5 6.5 6.5 6.5-2.91 6.5-6.5-2.91-6.5-6.5-6.5zM17.5 23c-3.032 0-5.5-2.467-5.5-5.5 0-1.337 0.48-2.563 1.276-3.517l7.74 7.741C20.062 22.52 18.836 23 17.5 23zM21.724 21.017l-7.74-7.741C14.938 12.48 16.164 12 17.501 12c3.032 0 5.5 2.467 5.5 5.5 0 1.337-0.48 2.563-1.277 3.517zM4 12V8c0-4.411 3.589-8 8-8s8 3.589 8 8v0.5C20 8.776 19.776 9 19.5 9S19 8.776 19 8.5V8c0-0.34-0.033-0.672-0.08-1H14.5C14.224 7 14 6.776 14 6.5S14.224 6 14.5 6h4.205C17.842 3.112 15.164 1 12 1S6.158 3.112 5.295 6H9.5C9.776 6 10 6.224 10 6.5S9.776 7 9.5 7H5.08C5.033 7.328 5 7.66 5 8v1.5h4.5C9.776 9.5 10 9.724 10 10s-0.224 0.5-0.5 0.5H5V12c0 0.338 0.027 0.672 0.074 1H9.5c0.276 0 0.5 0.224 0.5 0.5S9.776 14 9.5 14H5.297c0.528 1.776 1.744 3.298 3.436 4.193 0.244 0.129 0.337 0.432 0.208 0.676-0.089 0.169-0.263 0.266-0.442 0.266-0.079 0-0.159-0.019-0.233-0.058C5.635 17.686 4 14.974 4 12zM11 23.512c-0.013 0.268-0.234 0.477-0.499 0.477-8e-3 0-0.016 0-0.024 0C4.771 23.721 0.268 19.222 0 13.523-0.013 13.247 0.2 13.013 0.476 13c0.282-9e-3 0.51 0.201 0.523 0.476 0.243 5.18 4.337 9.27 9.524 9.512 0.276 0.013 0.489 0.247 0.477 0.524z" />
</svg>