<svg id="block_quote_Layer_1" viewBox="0 0 24 24" fill="currentColor" width="32" height="32" data-name="Layer 1" xmlns="http://www.w3.org/2000/svg" xmlns:xlink="http://www.w3.org/1999/xlink">
    <title>block-quote</title>
    <path d="M0 3.5C0 3.224 0.224 3 0.5 3h23C23.776 3 24 3.224 24 3.5S23.776 4 23.5 4h-23C0.224 4 0 3.776 0 3.5zM23.5 20h-17C6.224 20 6 20.224 6 20.5S6.224 21 6.5 21h17c0.276 0 0.5-0.224 0.5-0.5S23.776 20 23.5 20zM23.5 11h-17C6.224 11 6 11.224 6 11.5S6.224 12 6.5 12h17c0.276 0 0.5-0.224 0.5-0.5S23.776 11 23.5 11zM0.5 11C0.224 11 0 11.224 0 11.5v9C0 20.776 0.224 21 0.5 21S1 20.776 1 20.5v-9C1 11.224 0.776 11 0.5 11z" />
</svg>