<svg id="block_brick_fire_Layer_1" viewBox="0 0 24 24" fill="currentColor" width="32" height="32" data-name="Layer 1" xmlns="http://www.w3.org/2000/svg" xmlns:xlink="http://www.w3.org/1999/xlink">
    <title>block-brick-fire</title>
    <path d="M19.5 0h-15C2.019 0 0 2.019 0 4.5v15C0 21.981 2.019 24 4.5 24h7c0.276 0 0.5-0.224 0.5-0.5S11.776 23 11.5 23h-7C2.57 23 1 21.43 1 19.5V19h8.5c0.276 0 0.5-0.224 0.5-0.5S9.776 18 9.5 18H7v-5h4.5c0.276 0 0.5-0.224 0.5-0.5V7h11v4.5c0 0.276 0.224 0.5 0.5 0.5s0.5-0.224 0.5-0.5v-7C24 2.019 21.981 0 19.5 0zM7 6V1h10v5zM4.5 1H6v5H1V4.5C1 2.57 2.57 1 4.5 1zM6 18H1v-5h5zM11 12H1V7h10zM18 6V1h1.5C21.43 1 23 2.57 23 4.5V6zM19.767 11.767c-0.53-0.443-1.03-0.863-1.413-1.246-0.098-0.098-0.231-0.164-0.372-0.146-0.139 5e-3-0.269 0.067-0.36 0.172-0.851 0.983-1.134 2.09-1.361 2.98-0.274 1.076-0.397 1.347-0.8 1.347-0.247 0-0.46-0.825-0.461-1.5 0-0.204-0.124-0.387-0.313-0.463-0.187-0.076-0.404-0.031-0.546 0.115C13.164 14.034 12 15.715 12 17.999c0 3.309 2.691 6 6 6s6-2.691 6-6c0-2.688-2.347-4.653-4.233-6.232zM16.586 22.414c-0.78-0.781-0.78-2.05 0-2.83l1.415-1.415 1.414 1.415c0.78 0.781 0.78 2.05 0 2.83-0.29 0.29-0.656 0.581-1.369 0.581s-1.17-0.291-1.46-0.581zM20.762 22.162c0.457-1.091 0.245-2.398-0.64-3.285l-1.768-1.768c-0.094-0.094-0.221-0.146-0.354-0.146s-0.26 0.053-0.354 0.146l-1.768 1.768c-0.886 0.886-1.098 2.193-0.64 3.285C13.891 21.265 13 19.736 13 18c0-1.415 0.533-2.567 1.149-3.428 0.197 0.724 0.605 1.303 1.312 1.303 1.233 0 1.505-1.067 1.769-2.1 0.176-0.688 0.371-1.453 0.832-2.153 0.324 0.293 0.687 0.597 1.063 0.912C20.852 13.98 23 15.78 23 18c0 1.736-0.891 3.266-2.238 4.162z" />
</svg>