<svg id="block_brick_Layer_1" viewBox="0 0 24 24" fill="currentColor" width="32" height="32" data-name="Layer 1" xmlns="http://www.w3.org/2000/svg" xmlns:xlink="http://www.w3.org/1999/xlink">
    <title>block-brick</title>
    <path d="M19.5 0h-15C2.019 0 0 2.019 0 4.5v15C0 21.981 2.019 24 4.5 24h15c2.481 0 4.5-2.019 4.5-4.5v-15C24 2.019 21.981 0 19.5 0zM7 18v-5h10v5zM1 18v-5h5v5zM1 7h10v5H1zM12 12V7h11v5zM7 6V1h10v5zM18 13h5v5h-5zM23 4.5V6h-5V1h1.5C21.43 1 23 2.57 23 4.5zM1 4.5C1 2.57 2.57 1 4.5 1H6v5H1zM1 19.5V19h10v4H4.5C2.57 23 1 21.43 1 19.5zM19.5 23H12v-4h11v0.5c0 1.93-1.57 3.5-3.5 3.5z" />
</svg>