<svg id="blog_text_Layer_1" viewBox="0 0 24 24" fill="currentColor" width="32" height="32" data-name="Layer 1" xmlns="http://www.w3.org/2000/svg" xmlns:xlink="http://www.w3.org/1999/xlink">
    <title>blog-text</title>
    <path d="M19.5 2h-15C2.02 2 0 4.02 0 6.5v11C0 19.98 2.02 22 4.5 22h15c2.48 0 4.5-2.02 4.5-4.5v-11C24 4.02 21.98 2 19.5 2zM4.5 3h15C21.43 3 23 4.57 23 6.5V7H1V6.5C1 4.57 2.57 3 4.5 3zM19.5 21h-15C2.57 21 1 19.43 1 17.5V8h22v9.5c0 1.93-1.57 3.5-3.5 3.5zM11 11.5c0 0.28-0.22 0.5-0.5 0.5H8v5.5C8 17.78 7.78 18 7.5 18S7 17.78 7 17.5V12H4.5C4.22 12 4 11.78 4 11.5S4.22 11 4.5 11h6c0.28 0 0.5 0.22 0.5 0.5zM20 11.5c0 0.28-0.22 0.5-0.5 0.5h-6c-0.28 0-0.5-0.22-0.5-0.5s0.22-0.5 0.5-0.5h6c0.28 0 0.5 0.22 0.5 0.5zM20 15.5c0 0.28-0.22 0.5-0.5 0.5h-6c-0.28 0-0.5-0.22-0.5-0.5s0.22-0.5 0.5-0.5h6c0.28 0 0.5 0.22 0.5 0.5z" />
</svg>