<svg id="blog_pencil_Layer_1" viewBox="0 0 24 24" fill="currentColor" width="32" height="32" data-name="Layer 1" xmlns="http://www.w3.org/2000/svg" xmlns:xlink="http://www.w3.org/1999/xlink">
    <title>blog-pencil</title>
    <path d="M19.5 2h-15C2.02 2 0 4.02 0 6.5v11C0 19.98 2.02 22 4.5 22h10c0.28 0 0.5-0.22 0.5-0.5S14.78 21 14.5 21h-10C2.57 21 1 19.43 1 17.5V8h22v8.5c0 0.28 0.22 0.5 0.5 0.5s0.5-0.22 0.5-0.5v-10C24 4.02 21.98 2 19.5 2zM1 7V6.5C1 4.57 2.57 3 4.5 3h15C21.43 3 23 4.57 23 6.5V7zM15.56 12.03C14.9 11.37 14.02 11 13.09 11H11.5c-0.28 0-0.5 0.22-0.5 0.5v1.59c0 0.94 0.36 1.81 1.03 2.47l7.71 7.71c0.47 0.47 1.1 0.73 1.77 0.73s1.3-0.26 1.77-0.73 0.73-1.1 0.73-1.77-0.26-1.3-0.73-1.77zM22.56 22.57c-0.57 0.57-1.55 0.57-2.12 0l-7.71-7.71c-0.47-0.47-0.73-1.1-0.73-1.77V12h1.09c0.67 0 1.3 0.26 1.77 0.73l7.71 7.71c0.28 0.28 0.44 0.66 0.44 1.06s-0.16 0.78-0.45 1.07z" />
</svg>