<svg id="blood_dropper_Layer_1" viewBox="0 0 24 24" fill="currentColor" width="32" height="32" data-name="Layer 1" xmlns="http://www.w3.org/2000/svg" xmlns:xlink="http://www.w3.org/1999/xlink">
    <title>blood-dropper</title>
    <path d="M23 9v7.5c0 3.032-2.468 5.5-5.5 5.5H16v1.5c0 0.276-0.224 0.5-0.5 0.5S15 23.776 15 23.5V22c0-0.552 0.448-1 1-1h1.5c2.31 0 4.197-1.756 4.449-4H18.5c-0.276 0-0.5-0.224-0.5-0.5s0.224-0.5 0.5-0.5H22v-3h-3.5c-0.276 0-0.5-0.224-0.5-0.5s0.224-0.5 0.5-0.5H22V9h-3.5C18.224 9 18 8.776 18 8.5S18.224 8 18.5 8h3.379c-0.457-2-2.242-3.5-4.379-3.5h-1.118c-0.695 0-1.296-0.488-1.461-1.188C14.602 1.95 13.4 1 12 1S9.398 1.951 9.079 3.312C8.915 4.011 8.315 4.5 7.619 4.5H6.5C4.363 4.5 2.578 6 2.121 8H15.5C15.776 8 16 8.224 16 8.5S15.776 9 15.5 9H2v7.5C2 18.981 4.019 21 6.5 21H8c0.551 0 1 0.448 1 1v1.5C9 23.776 8.776 24 8.5 24S8 23.776 8 23.5V22H6.5C3.467 22 1 19.532 1 16.5V9c0-3.033 2.467-5.5 5.5-5.5h1.119c0.233 0 0.429-0.167 0.487-0.416C8.532 1.268 10.133 0 12.001 0s3.469 1.268 3.894 3.083C15.955 3.332 16.15 3.5 16.383 3.5h1.118c3.032 0 5.5 2.467 5.499 5.5zM13 21h-2c-0.551 0-1 0.448-1 1v1.5c0 0.276 0.224 0.5 0.5 0.5s0.5-0.224 0.5-0.5V22h2v1.5c0 0.276 0.224 0.5 0.5 0.5s0.5-0.224 0.5-0.5V22c0-0.552-0.448-1-1-1zM12 2c1.103 0 2 0.897 2 2s-0.897 2-2 2-2-0.897-2-2 0.897-2 2-2zM12 3c-0.551 0-1 0.449-1 1s0.449 1 1 1 1-0.449 1-1-0.449-1-1-1z" />
</svg>