<svg id="bluetooth_usb_Layer_1" viewBox="0 0 24 24" fill="currentColor" width="32" height="32" data-name="Layer 1" xmlns="http://www.w3.org/2000/svg" xmlns:xlink="http://www.w3.org/1999/xlink">
    <title>bluetooth-usb</title>
    <path d="M7 4.5v1C7 5.776 6.776 6 6.5 6S6 5.776 6 5.5v-1C6 4.224 6.224 4 6.5 4S7 4.224 7 4.5zM11.5 4C11.224 4 11 4.224 11 4.5v1C11 5.776 11.224 6 11.5 6S12 5.776 12 5.5v-1C12 4.224 11.776 4 11.5 4zM23.491 20.979c0 0.389-0.281 0.639-0.374 0.722L20.36 23.82c-0.223 0.203-0.593 0.233-0.875 0.104-0.3-0.135-0.485-0.413-0.485-0.727v-3.42l-1.189 1.115c-0.216 0.172-0.531 0.137-0.702-0.081-0.172-0.216-0.136-0.53 0.081-0.702l1.811-1.608-1.807-1.605c-0.218-0.169-0.258-0.483-0.088-0.701 0.17-0.219 0.484-0.258 0.701-0.088L19 17.236v-3.431c0-0.313 0.186-0.592 0.485-0.727 0.305-0.137 0.661-0.09 0.902 0.127l2.668 1.922c0.14 0.12 0.445 0.392 0.444 0.803 0 0.276-0.133 0.526-0.404 0.767l-2.241 1.779 2.174 1.69c0.213 0.187 0.463 0.45 0.463 0.813zM20 17.811c0 0 2.439-1.897 2.431-1.905L20 14.154zM22.391 20.934 20 19.154v3.684c0 0 2.405-1.89 2.391-1.904zM17 11.5c0-1.379-1.121-2.5-2.5-2.5h-11C2.121 9 1 10.121 1 11.5V15c0 4.411 3.589 8 8 8 1.896 0 3.734-0.675 5.176-1.9 0.213-0.179 0.527-0.152 0.705 0.057 0.179 0.211 0.153 0.526-0.057 0.705-1.623 1.379-3.691 2.139-5.824 2.139C4.037 24 0 19.963 0 15v-3.5c0-1.391 0.822-2.585 2-3.149V2.5C2 1.121 3.121 0 4.5 0h9C14.879 0 16 1.121 16 2.5v5.851c1.178 0.564 2 1.758 2 3.149 0 0.276-0.224 0.5-0.5 0.5S17 11.776 17 11.5zM15 2.5C15 1.673 14.327 1 13.5 1h-9C3.673 1 3 1.673 3 2.5v5.551C3.165 8.027 3.329 8 3.5 8h11c0.171 0 0.335 0.027 0.5 0.051z" />
</svg>