<svg id="bluetooth_mouse_Layer_1" viewBox="0 0 24 24" fill="currentColor" width="32" height="32" data-name="Layer 1" xmlns="http://www.w3.org/2000/svg" xmlns:xlink="http://www.w3.org/1999/xlink">
    <title>bluetooth-mouse</title>
    <path d="M16.5 11h-7V4h1c1.355 0 2.658 0.497 3.667 1.4 0.205 0.186 0.523 0.168 0.706-0.039 0.184-0.205 0.167-0.521-0.039-0.705C13.641 3.588 12.102 3 10.5 3h-1V0.5C9.5 0.224 9.276 0 9 0S8.5 0.224 8.5 0.5V3h-1C3.916 3 1 5.916 1 9.5V16c-0.098 4.392 3.864 8.228 8.246 7.996C13.522 23.868 17 20.14 17 15.685v-4.186c0-0.276-0.224-0.5-0.5-0.499zM2 9.5C2 6.468 4.467 4 7.5 4h1v7H2zM16 15.686c0 3.919-3.043 7.198-6.785 7.311C5.371 23.184 1.917 19.851 2 16.001v-4h14zM23.029 7.165l-2.174-1.69 2.24-1.779c0.272-0.239 0.405-0.49 0.406-0.766 0-0.412-0.306-0.684-0.445-0.804l-2.668-1.922c-0.242-0.216-0.596-0.266-0.903-0.127C19.186 0.212 19 0.49 19 0.804v3.431l-1.193-1.129c-0.217-0.17-0.532-0.129-0.701 0.088-0.17 0.218-0.13 0.532 0.087 0.701L19 5.5 17.189 7.108c-0.216 0.172-0.252 0.486-0.081 0.702 0.171 0.217 0.485 0.253 0.703 0.081L19 6.776v3.42c0 0.313 0.186 0.592 0.485 0.727 0.282 0.129 0.652 0.1 0.875-0.104L23.118 8.7c0.092-0.083 0.375-0.334 0.374-0.723 0-0.363-0.25-0.626-0.463-0.812zM20 1.153c0 0 2.454 1.775 2.453 1.775L20 4.81zM20 9.837V6.153c0 0 2.418 1.806 2.429 1.816z" />
</svg>