<svg id="bluetooth_keyboard_Layer_1" viewBox="0 0 24 24" fill="currentColor" width="32" height="32" data-name="Layer 1" xmlns="http://www.w3.org/2000/svg" xmlns:xlink="http://www.w3.org/1999/xlink">
    <title>bluetooth-keyboard</title>
    <path d="M24 13.5v6c0 2.481-2.019 4.5-4.5 4.5h-15C2.019 24 0 21.981 0 19.5v-6C0 11.019 2.019 9 4.5 9h7V0.5C11.5 0.224 11.724 0 12 0s0.5 0.224 0.5 0.5V9h3C15.776 9 16 9.224 16 9.5S15.776 10 15.5 10h-11C2.57 10 1 11.57 1 13.5v6C1 21.43 2.57 23 4.5 23h15c1.93 0 3.5-1.57 3.5-3.5v-6c0-0.296-0.037-0.591-0.11-0.876-0.069-0.267 0.092-0.54 0.36-0.608 0.27-0.066 0.541 0.092 0.609 0.36 0.094 0.365 0.142 0.744 0.141 1.124zM6.5 13h-2C4.224 13 4 13.224 4 13.5S4.224 14 4.5 14h2C6.776 14 7 13.776 7 13.5S6.776 13 6.5 13zM9.5 14h2c0.276 0 0.5-0.224 0.5-0.5S11.776 13 11.5 13h-2C9.224 13 9 13.224 9 13.5S9.224 14 9.5 14zM19.5 13h-5c-0.276 0-0.5 0.224-0.5 0.5s0.224 0.5 0.5 0.5h5c0.276 0 0.5-0.224 0.5-0.5S19.776 13 19.5 13zM19.5 16h-5c-0.276 0-0.5 0.224-0.5 0.5s0.224 0.5 0.5 0.5h5c0.276 0 0.5-0.224 0.5-0.5S19.776 16 19.5 16zM9.5 17h2c0.276 0 0.5-0.224 0.5-0.5S11.776 16 11.5 16h-2C9.224 16 9 16.224 9 16.5S9.224 17 9.5 17zM7 16.5C7 16.224 6.776 16 6.5 16h-2C4.224 16 4 16.224 4 16.5S4.224 17 4.5 17h2C6.776 17 7 16.776 7 16.5zM4.5 19C4.224 19 4 19.224 4 19.5S4.224 20 4.5 20h1C5.776 20 6 19.776 6 19.5S5.776 19 5.5 19zM8 19.5C8 19.776 8.224 20 8.5 20H16c0.276 0 0.5-0.224 0.5-0.5S16.276 19 16 19H8.5C8.224 19 8 19.224 8 19.5zM19.5 19h-1c-0.276 0-0.5 0.224-0.5 0.5s0.224 0.5 0.5 0.5h1c0.276 0 0.5-0.224 0.5-0.5S19.776 19 19.5 19zM19 5.5 17.193 3.895c-0.218-0.169-0.257-0.483-0.087-0.701 0.169-0.217 0.484-0.258 0.701-0.088L19 4.235V0.804c0-0.313 0.186-0.592 0.485-0.727 0.307-0.139 0.662-0.089 0.903 0.127l2.667 1.922c0.14 0.12 0.446 0.392 0.445 0.804 0 0.275-0.133 0.526-0.406 0.766l-2.24 1.779 2.174 1.69c0.212 0.187 0.462 0.449 0.463 0.812 0 0.389-0.281 0.64-0.374 0.723l-2.758 2.119c-0.224 0.203-0.593 0.233-0.875 0.104-0.299-0.135-0.485-0.413-0.485-0.727v-3.42L17.81 7.891c-0.218 0.172-0.532 0.136-0.703-0.081-0.172-0.216-0.136-0.53 0.081-0.702zM20 4.811c0 0 2.454-1.883 2.455-1.883C22.448 2.921 20 1.154 20 1.154zM20 9.837 22.429 7.97C22.418 7.959 20 6.154 20 6.154z" />
</svg>