<svg id="blueberries_Layer_1" viewBox="0 0 24 24" fill="currentColor" width="32" height="32" data-name="Layer 1" xmlns="http://www.w3.org/2000/svg" xmlns:xlink="http://www.w3.org/1999/xlink">
    <title>blueberries</title>
    <path d="M17 6v1.5C17 7.776 16.776 8 16.5 8S16 7.776 16 7.5V6h-1.5C14.224 6 14 5.776 14 5.5S14.224 5 14.5 5H16V3.5C16 3.224 16.224 3 16.5 3S17 3.224 17 3.5V5h1.5C18.776 5 19 5.224 19 5.5S18.776 6 18.5 6zM16 16c0 4.411-3.589 8-8 8s-8-3.589-8-8 3.589-8 8-8 8 3.589 8 8zM15 16c0-3.86-3.14-7-7-7s-7 3.14-7 7 3.14 7 7 7 7-3.14 7-7zM15.5 0c-3.481 0-6.576 2.085-7.882 5.312-0.104 0.256 0.02 0.547 0.276 0.651 0.255 0.104 0.547-0.02 0.651-0.276 1.153-2.848 3.883-4.688 6.955-4.688 4.136 0 7.5 3.364 7.5 7.5 0 3.072-1.84 5.802-4.688 6.955-0.256 0.104-0.379 0.395-0.276 0.651 0.079 0.195 0.266 0.312 0.463 0.312 0.062 0 0.126-0.012 0.188-0.037 3.227-1.306 5.312-4.4 5.312-7.882C24 3.813 20.187 0 15.5 0zM10.5 13H9v-1.5C9 11.224 8.776 11 8.5 11S8 11.224 8 11.5V13H6.5C6.224 13 6 13.224 6 13.5S6.224 14 6.5 14H8v1.5C8 15.776 8.224 16 8.5 16S9 15.776 9 15.5V14h1.5c0.276 0 0.5-0.224 0.5-0.5S10.776 13 10.5 13z" />
</svg>