<svg id="bluetooth_alt_Layer_1" viewBox="0 0 24 24" fill="currentColor" width="32" height="32" data-name="Layer 1" xmlns="http://www.w3.org/2000/svg" xmlns:xlink="http://www.w3.org/1999/xlink">
    <title>bluetooth-alt</title>
    <path d="M19.317 16.542l-7.364-4.537 7.416-4.558c0.833-0.66 0.844-1.968-0.015-2.649l-6.561-4.394C11.757-0.541 9.949 0.298 10 1.699v9.102L4.762 7.574C4.215 7.225 3.68 8.094 4.238 8.426L10 11.974v0.06l-5.762 3.54c-0.558 0.331-0.024 1.199 0.523 0.852l5.238-3.22v9.095c-0.059 1.37 1.723 2.235 2.748 1.33l6.651-4.436c0.82-0.683 0.8-1.988-0.081-2.653zM11 1.699c-6e-3-0.602 0.724-0.929 1.192-0.498l6.562 4.394c0.318 0.233 0.312 0.811 0.04 1.037l-7.792 4.787H11zM18.799 18.397l-6.651 4.436c-0.426 0.39-1.171 0.045-1.147-0.532v-9.71 0c0 0 7.74 4.766 7.74 4.766 0.325 0.229 0.333 0.805 0.058 1.04z" />
</svg>