<svg id="bluetooth_speaker_Layer_1" viewBox="0 0 24 24" fill="currentColor" width="32" height="32" data-name="Layer 1" xmlns="http://www.w3.org/2000/svg" xmlns:xlink="http://www.w3.org/1999/xlink">
    <title>bluetooth-speaker</title>
    <path d="M19.565 8.462c-0.137-0.24-0.053-0.545 0.187-0.683l2.5-1.428c0.236-0.135 0.544-0.055 0.683 0.187 0.137 0.24 0.053 0.545-0.187 0.683l-2.5 1.428c-0.236 0.135-0.544 0.055-0.683-0.187zM18 3v18c0 1.948-4.637 3-9 3s-9-1.052-9-3V3c0-1.948 4.637-3 9-3s9 1.052 9 3zM17 4.424C15.405 5.453 12.137 6 9 6S2.595 5.454 1 4.424V21c0 0.705 3.037 2 8 2s8-1.295 8-2zM17 3c0-0.705-3.037-2-8-2S1 2.295 1 3 4.037 5 9 5s8-1.295 8-2zM9.388 9.204l2.667 1.922c0.14 0.12 0.446 0.392 0.445 0.804 0 0.275-0.133 0.526-0.406 0.766l-2.24 1.779 2.174 1.69c0.212 0.187 0.462 0.449 0.463 0.812 0 0.389-0.281 0.64-0.374 0.723l-2.758 2.119c-0.224 0.203-0.593 0.233-0.875 0.104-0.299-0.135-0.485-0.413-0.485-0.727v-3.42L6.81 16.891c-0.218 0.172-0.532 0.136-0.703-0.081-0.172-0.216-0.136-0.53 0.081-0.702L7.999 14.5 6.192 12.895c-0.218-0.169-0.257-0.483-0.087-0.701 0.169-0.218 0.484-0.258 0.701-0.088l1.193 1.129V9.804c0-0.313 0.186-0.592 0.485-0.727 0.307-0.138 0.663-0.09 0.904 0.127zM9 13.81l2.453-1.882c0 0 0 0 1e-3 0-7e-3-7e-3-2.455-1.774-2.455-1.774zM9 18.836c0 0 2.405-1.89 2.391-1.902l-2.342-1.82zM23.5 11.999h-3c-0.276 0-0.5 0.224-0.5 0.5s0.224 0.5 0.5 0.5h3c0.276 0 0.5-0.224 0.5-0.5s-0.224-0.5-0.5-0.5zM22.748 17.778l-2.5-1.428c-0.237-0.135-0.544-0.055-0.683 0.187-0.137 0.24-0.053 0.545 0.187 0.683l2.5 1.428c0.236 0.135 0.544 0.055 0.683-0.187 0.137-0.24 0.053-0.545-0.187-0.683z" />
</svg>