<svg id="bluetooth_circle_Layer_1" viewBox="0 0 24 24" fill="currentColor" width="32" height="32" data-name="Layer 1" xmlns="http://www.w3.org/2000/svg" xmlns:xlink="http://www.w3.org/1999/xlink">
    <title>bluetooth-circle</title>
    <path d="M12 0C5.383 0 0 5.383 0 12s5.383 12 12 12 12-5.383 12-12S18.617 0 12 0zM12 23C5.935 23 1 18.065 1 12S5.935 1 12 1 23 5.935 23 12 18.065 23 12 23zM12.718 11.998l3.753-2.597c0.705-0.609 0.703-1.738-0.031-2.355l-3.851-2.804c-0.577-0.553-1.619-0.087-1.588 0.713v5.855L7.785 8.588C7.256 8.209 6.678 9.05 7.217 9.41l3.747 2.587-3.747 2.59c-0.539 0.361 0.04 1.199 0.568 0.822l3.216-2.225v5.858c-0.037 0.773 0.984 1.262 1.55 0.743l3.929-2.867c0.701-0.618 0.696-1.738-0.05-2.358zM11.962 5.02l3.851 2.804c0.235 0.177 0.234 0.616 0.044 0.791l-3.878 2.681zM15.853 16.144 12 19.045l-0.018-6.342 3.832 2.646c0.235 0.181 0.237 0.616 0.039 0.795z" />
</svg>