<svg id="blush_Layer_1" viewBox="0 0 24 24" fill="currentColor" width="32" height="32" data-name="Layer 1" xmlns="http://www.w3.org/2000/svg" xmlns:xlink="http://www.w3.org/1999/xlink">
    <title>blush</title>
    <path d="M22.916 1.193C21.815 0.446 20.538 0 19.499 0c-1.03 0-2.308 0.449-3.415 1.202-0.946 0.642-1.327 1.83-0.928 2.889l1.353 3.583 0.897 14.36C17.475 23.137 18.394 24 19.499 24s2.023-0.863 2.093-1.966l0.897-14.36 1.354-3.592c0.399-1.059 0.019-2.247-0.927-2.889zM21.217 12h-3.436l-0.25-4h3.936zM20.594 21.972C20.558 22.549 20.077 23 19.499 23s-1.059-0.452-1.095-1.028L17.843 13h3.311zM22.907 3.729 21.675 7h-4.352l-1.231-3.262c-0.235-0.625-9e-3-1.328 0.554-1.709C17.581 1.394 18.674 1 19.5 1c0.847 0 1.914 0.381 2.855 1.021 0.562 0.381 0.788 1.083 0.552 1.708zM0.306 3.885 2.257 4.707 3.036 6.656C3.112 6.846 3.296 6.97 3.5 6.97s0.388-0.125 0.464-0.314l0.777-1.944 1.944-0.777c0.19-0.076 0.314-0.26 0.314-0.464S6.874 3.083 6.685 3.007L4.741 2.23 3.964 0.286c-0.152-0.38-0.776-0.38-0.929 0L2.26 2.225 0.323 2.958C0.132 3.03 4e-3 3.211 0 3.415s0.117 0.391 0.306 0.47zM2.82 3.081c0.131-0.05 0.235-0.152 0.288-0.282l0.393-0.982 0.393 0.982c0.051 0.127 0.152 0.228 0.279 0.279l0.982 0.393-0.982 0.393C4.046 3.915 3.945 4.016 3.894 4.143L3.501 5.125 3.108 4.143c-0.05-0.124-0.147-0.223-0.27-0.275L1.847 3.451zM10.599 13.401 9.964 11.815c-0.152-0.38-0.776-0.38-0.929 0l-0.633 1.582-1.58 0.598c-0.191 0.073-0.319 0.254-0.323 0.458s0.117 0.391 0.306 0.47l1.593 0.671 0.637 1.591c0.076 0.19 0.26 0.314 0.464 0.314s0.388-0.125 0.464-0.314l0.635-1.586 1.586-0.635c0.19-0.076 0.314-0.26 0.314-0.464s-0.125-0.388-0.314-0.464zM10.029 14.75c-0.127 0.051-0.228 0.151-0.279 0.279L9.5 15.654 9.25 15.029c-0.05-0.125-0.147-0.223-0.27-0.275l-0.634-0.267 0.617-0.233c0.131-0.05 0.235-0.152 0.287-0.282l0.25-0.625 0.25 0.625c0.051 0.127 0.151 0.228 0.279 0.279l0.625 0.25zM15.396 19.587c0.229 0.155 0.287 0.467 0.132 0.695C13.941 22.61 11.313 24 8.5 24 3.813 24 0 20.187 0 15.5S3.813 7 8.5 7c2.438 0 4.761 1.049 6.375 2.878 0.183 0.208 0.163 0.523-0.044 0.706-0.208 0.183-0.523 0.163-0.706-0.044C12.701 8.926 10.65 8 8.5 8 4.364 8 1 11.364 1 15.5S4.364 23 8.5 23c2.482 0 4.801-1.227 6.202-3.282 0.156-0.229 0.469-0.285 0.694-0.131z" />
</svg>