<svg id="bolt_auto_Layer_1" viewBox="0 0 24 24" fill="currentColor" width="32" height="32" data-name="Layer 1" xmlns="http://www.w3.org/2000/svg" xmlns:xlink="http://www.w3.org/1999/xlink">
    <title>bolt-auto</title>
    <path d="M23.973 23.337l-2.776-8.063c-0.271-0.773-0.936-1.273-1.696-1.273s-1.426 0.5-1.697 1.275l-2.776 8.062c-0.09 0.262 0.049 0.546 0.31 0.636 0.259 0.09 0.546-0.048 0.635-0.31l0.917-2.663h5.221l0.917 2.663c0.071 0.207 0.265 0.337 0.473 0.337 0.054 0 0.109-9e-3 0.163-0.027 0.261-0.09 0.4-0.374 0.309-0.637zM17.234 20l1.514-4.396c0.264-0.756 1.241-0.754 1.503-2e-3L21.766 20zM15.706 9.331C15.266 8.5 14.441 8.004 13.5 8.004L8.636 8l1.413-5.796c0.294-1.029-0.218-1.796-0.817-2.073C8.68-0.126 7.881-0.026 7.339 0.785L0.435 12.103c-0.528 0.778-0.581 1.739-0.14 2.57S1.56 16 2.501 16h4.864l-1.414 5.799c-0.294 1.03 0.218 1.797 0.818 2.074 0.173 0.08 0.369 0.125 0.574 0.125 0.452 0 0.945-0.221 1.317-0.78l6.906-11.316c0.528-0.778 0.581-1.739 0.14-2.571zM14.725 11.359 7.816 22.679c-0.187 0.28-0.417 0.384-0.629 0.286-0.226-0.104-0.408-0.428-0.271-0.911l1.569-6.437c0.036-0.148 2e-3-0.307-0.093-0.427-0.095-0.121-0.24-0.191-0.393-0.191H2.5c-0.564 0-1.058-0.297-1.322-0.795-0.264-0.499-0.233-1.075 0.097-1.562L8.182 1.323c0.14-0.211 0.305-0.321 0.469-0.321 0.054 0 0.108 0.012 0.161 0.036 0.226 0.104 0.408 0.428 0.271 0.91L7.515 8.382C7.479 8.53 7.513 8.689 7.608 8.809 7.702 8.93 7.847 9 8.001 9l5.5 4e-3v0c0.564 0 1.058 0.298 1.322 0.796s0.232 1.073-0.098 1.559z" />
</svg>