<svg id="bolt_slash_Layer_1" viewBox="0 0 24 24" fill="currentColor" width="32" height="32" data-name="Layer 1" xmlns="http://www.w3.org/2000/svg" xmlns:xlink="http://www.w3.org/1999/xlink">
    <title>bolt-slash</title>
    <path d="M23.854 23.146l-6.925-6.925 2.636-4.321c0.528-0.778 0.581-1.739 0.141-2.57S18.441 8.003 17.5 8.003l-4.864-4e-3 1.413-5.796c0.294-1.029-0.218-1.796-0.817-2.073-0.555-0.257-1.351-0.157-1.892 0.654L7.608 6.899 0.854 0.146c-0.196-0.195-0.512-0.195-0.708 0s-0.195 0.512 0 0.708l23 23C23.244 23.952 23.372 24 23.5 24s0.256-0.049 0.354-0.146c0.195-0.195 0.195-0.512 0-0.708zM12.182 1.323c0.186-0.28 0.416-0.384 0.629-0.285 0.226 0.104 0.408 0.428 0.271 0.91l-1.568 6.434c-0.036 0.148-2e-3 0.307 0.093 0.427C11.701 8.93 11.846 9 12 9l5.5 4e-3c0.564 0 1.058 0.298 1.322 0.796s0.232 1.073-0.097 1.56l-2.523 4.135-7.866-7.866zM15.335 18.835 12.66 23.218c-0.372 0.56-0.866 0.78-1.317 0.78-0.205 0-0.401-0.045-0.574-0.125-0.6-0.277-1.112-1.044-0.818-2.074L11.365 16H6.501c-0.94 0-1.765-0.496-2.205-1.326-0.441-0.831-0.389-1.793 0.139-2.571l1.233-2.022c0.144-0.235 0.452-0.31 0.687-0.166 0.236 0.144 0.311 0.451 0.167 0.688l-1.246 2.042c-0.33 0.487-0.361 1.063-0.097 1.562s0.758 0.795 1.322 0.795h5.5c0.153 0 0.298 0.07 0.393 0.191 0.095 0.12 0.129 0.278 0.093 0.427l-1.569 6.437c-0.138 0.483 0.045 0.807 0.271 0.911 0.211 0.098 0.442-6e-3 0.629-0.286l2.665-4.366c0.144-0.235 0.451-0.311 0.688-0.166 0.235 0.144 0.31 0.451 0.164 0.685z" />
</svg>