<svg id="bone_break_Layer_1" viewBox="0 0 24 24" fill="currentColor" width="32" height="32" data-name="Layer 1" xmlns="http://www.w3.org/2000/svg" xmlns:xlink="http://www.w3.org/1999/xlink">
    <title>bone-break</title>
    <path d="M22.703 15.576c-0.042 0.037-0.055 0.098-0.03 0.151C22.89 16.211 23 16.723 23 17.249c0 1.156-0.521 2.23-1.43 2.946s-2.09 0.97-3.242 0.693c-1.047-0.251-1.961-1.006-2.446-2.017-0.341-0.713-0.455-1.445-0.338-2.183L12 15.67 8.456 16.688c0.03 0.188 0.044 0.375 0.044 0.561 0 1.104-0.483 2.146-1.326 2.861-0.682 0.579-1.543 0.888-2.432 0.888-0.209 0-0.419-0.017-0.629-0.052-1.503-0.249-2.755-1.472-3.044-2.975-0.148-0.769-0.057-1.549 0.262-2.254 0.021-0.047 7e-3-0.105-0.034-0.141-1.034-0.894-1.491-2.236-1.221-3.59 0.286-1.433 1.435-2.598 2.859-2.9 1.027-0.216 2.059-0.021 2.908 0.555 0.686 0.465 1.198 1.15 1.458 1.93l3.08-0.931c0.263-0.081 0.543 0.069 0.623 0.334 0.08 0.264-0.069 0.543-0.334 0.623L7.09 12.68c-0.136 0.043-0.285 0.023-0.408-0.053-0.122-0.075-0.206-0.2-0.229-0.341-0.126-0.735-0.553-1.397-1.17-1.816-0.621-0.421-1.379-0.565-2.14-0.404-1.039 0.22-1.877 1.071-2.085 2.117-0.198 0.996 0.136 1.982 0.895 2.639 0.375 0.324 0.495 0.862 0.291 1.31-0.233 0.516-0.299 1.088-0.19 1.653 0.211 1.101 1.126 1.996 2.225 2.178 0.827 0.135 1.625-0.081 2.251-0.613 0.618-0.524 0.972-1.289 0.972-2.098 0-0.252-0.039-0.511-0.115-0.771-0.037-0.127-0.022-0.265 0.042-0.381 0.064-0.117 0.172-0.203 0.3-0.24l4.135-1.188c0.091-0.026 0.186-0.026 0.276 0l4.135 1.188c0.128 0.037 0.236 0.123 0.3 0.24s0.079 0.254 0.041 0.382c-0.197 0.669-0.142 1.31 0.169 1.96 0.356 0.743 1.021 1.295 1.778 1.477 0.851 0.205 1.722 0.02 2.389-0.506s1.049-1.313 1.049-2.161c0-0.384-0.081-0.758-0.239-1.113-0.207-0.46-0.091-0.99 0.289-1.317 0.758-0.655 1.092-1.641 0.894-2.636-0.209-1.052-1.052-1.904-2.098-2.121-0.763-0.159-1.525-9e-3-2.146 0.421-0.618 0.428-1.039 1.101-1.154 1.844-0.022 0.144-0.106 0.271-0.23 0.348-0.123 0.077-0.274 0.096-0.414 0.052l-3.55-1.116c-0.264-0.083-0.41-0.363-0.327-0.627 0.083-0.263 0.361-0.412 0.627-0.327l3.039 0.955c0.251-0.786 0.757-1.479 1.441-1.952 0.848-0.588 1.886-0.794 2.919-0.578 1.434 0.298 2.589 1.465 2.875 2.905 0.27 1.353-0.187 2.694-1.224 3.586zM12 7c0.276 0 0.5-0.224 0.5-0.5v-4C12.5 2.224 12.276 2 12 2s-0.5 0.224-0.5 0.5v4C11.5 6.776 11.724 7 12 7zM15.89 7.188c0.08 0.047 0.167 0.069 0.252 0.069 0.172 0 0.339-0.088 0.432-0.247l1.759-3c0.14-0.238 0.06-0.544-0.178-0.684-0.24-0.141-0.545-0.06-0.684 0.178l-1.759 3c-0.14 0.238-0.06 0.544 0.178 0.684zM7.455 7.05c0.092 0.163 0.261 0.254 0.436 0.254 0.083 0 0.168-0.021 0.246-0.065 0.241-0.136 0.325-0.441 0.189-0.681l-1.698-3C6.492 3.317 6.186 3.233 5.947 3.369 5.706 3.505 5.622 3.81 5.758 4.05z" />
</svg>