<svg id="bone_Layer_1" viewBox="0 0 24 24" fill="currentColor" width="32" height="32" data-name="Layer 1" xmlns="http://www.w3.org/2000/svg" xmlns:xlink="http://www.w3.org/1999/xlink">
    <title>bone</title>
    <path d="M7.51 24c-1.98 0-3.74-1.29-4.31-3.19-2.08-0.63-3.42-2.66-3.17-4.85 0.23-1.97 1.82-3.62 3.77-3.91 1.12-0.17 2.25 0.08 3.18 0.69 0.22 0.14 0.48 0.13 0.65-0.04l5.07-5.07c0.17-0.17 0.18-0.44 0.04-0.65-0.62-0.93-0.86-2.06-0.69-3.18 0.29-1.96 1.94-3.54 3.91-3.77 2.18-0.26 4.22 1.09 4.84 3.16 2.07 0.63 3.42 2.65 3.16 4.84-0.23 1.97-1.82 3.62-3.77 3.91-1.12 0.17-2.25-0.08-3.18-0.69-0.22-0.14-0.48-0.13-0.65 0.04l-5.07 5.07c-0.17 0.17-0.18 0.44-0.04 0.65 0.61 0.93 0.86 2.06 0.69 3.17-0.29 1.96-1.94 3.55-3.91 3.77-0.18 0.02-0.36 0.03-0.52 0.05zM4.5 13c-0.18 0-0.36 0.01-0.54 0.04-1.52 0.23-2.75 1.5-2.93 3.04-0.21 1.79 0.95 3.43 2.69 3.83 0.19 0.04 0.33 0.19 0.38 0.38 0.4 1.74 2.05 2.9 3.83 2.69 1.53-0.18 2.81-1.41 3.04-2.93 0.13-0.87-0.06-1.75-0.54-2.47-0.41-0.62-0.34-1.4 0.17-1.91l5.07-5.07c0.51-0.51 1.29-0.58 1.91-0.17 0.72 0.48 1.59 0.67 2.47 0.54 1.52-0.23 2.75-1.51 2.93-3.04 0.21-1.79-0.95-3.43-2.69-3.83-0.19-0.04-0.33-0.19-0.38-0.38-0.4-1.74-2.04-2.9-3.83-2.69-1.53 0.18-2.81 1.41-3.04 2.93-0.13 0.87 0.06 1.75 0.54 2.47 0.41 0.62 0.34 1.4-0.17 1.91l-5.07 5.07c-0.51 0.51-1.29 0.58-1.91 0.17C5.86 13.2 5.18 13 4.5 13z" />
</svg>