<svg id="bong_Layer_1" viewBox="0 0 24 24" fill="currentColor" width="32" height="32" data-name="Layer 1" xmlns="http://www.w3.org/2000/svg" xmlns:xlink="http://www.w3.org/1999/xlink">
    <title>bong</title>
    <path d="M19.217 9.969 21.07 7.703l1.141 0.934c0.093 0.076 0.205 0.113 0.316 0.113 0.145 0 0.288-0.062 0.387-0.183 0.175-0.214 0.144-0.529-0.07-0.704l-1.526-1.249c0 0 0-1e-3-1e-3-1e-3s-1e-3 0-2e-3 0l-1.526-1.249c-0.213-0.175-0.528-0.144-0.703 0.07s-0.144 0.529 0.07 0.704l1.141 0.934-1.862 2.276C17.692 8.81 16.879 8.356 16 8.012V1h0.5C16.776 1 17 0.776 17 0.5S16.776 0 16.5 0h-9C7.224 0 7 0.224 7 0.5S7.224 1 7.5 1H8v7.011C3.798 9.652 1 13.722 1 18.25 1.06 21.302 3.642 24 6.754 24h10.492c3.112 0 5.694-2.695 5.754-5.75 0-3.236-1.434-6.233-3.783-8.281zM17.246 23H6.754C4.183 23 2.049 20.759 2 18.25 2 17.122 2.196 16.028 2.552 15H18.5c0.276 0 0.5-0.224 0.5-0.5S18.776 14 18.5 14H2.96c1.116-2.363 3.137-4.262 5.707-5.171C8.866 8.759 9 8.57 9 8.358V1h6v7.358c0 0.212 0.134 0.401 0.333 0.471C19.321 10.24 22 14.026 22 18.25 21.951 20.762 19.817 23 17.246 23z" />
</svg>