<svg id="bonus_star_Layer_1" viewBox="0 0 24 24" fill="currentColor" width="32" height="32" data-name="Layer 1" xmlns="http://www.w3.org/2000/svg" xmlns:xlink="http://www.w3.org/1999/xlink">
    <title>bonus-star</title>
    <path d="M12.5 10h-2.2C9.583 10 9 10.583 9 11.3v6.4c0 0.717 0.583 1.3 1.3 1.3H13c1.378 0 2.5-1.121 2.5-2.5 0-0.938-0.519-1.756-1.284-2.184C14.698 13.86 15 13.214 15 12.5c0-1.378-1.122-2.5-2.5-2.5zM10 11.3c0-0.166 0.134-0.3 0.3-0.3h2.2c0.827 0 1.5 0.673 1.5 1.5S13.327 14 12.5 14H10zM14.5 16.5c0 0.827-0.673 1.5-1.5 1.5h-2.7c-0.166 0-0.3-0.135-0.3-0.3V15h3c0.827 0 1.5 0.673 1.5 1.5zM2.83 11.193l1.019-0.712 1.023 0.712c0.394 0.273 0.926 0.277 1.332 3e-3 0.43-0.292 0.617-0.84 0.455-1.334l-0.36-1.094 0.915-0.64C7.61 7.852 7.797 7.352 7.675 6.87 7.547 6.357 7.08 5.999 6.54 5.999H5.342L5.068 4.937C4.923 4.385 4.424 3.999 3.853 3.999s-1.07 0.386-1.215 0.939L2.363 5.999H1.155c-0.542 0-1.009 0.36-1.141 0.895-0.115 0.467 0.073 0.965 0.467 1.24l0.916 0.638-0.353 1.104C0.886 10.37 1.066 10.9 1.493 11.194c0.199 0.138 0.433 0.207 0.666 0.207 0.235 0 0.47-0.07 0.671-0.208zM1.997 10.182 2.576 8.374 1.054 7.314C0.995 7.273 0.969 7.202 0.991 7.113 1.012 7.029 1.093 6.999 1.156 6.999h1.982L3.606 5.19C3.665 4.965 4.042 4.967 4.1 5.189L4.568 7h1.973c0.063 0 0.144 0.03 0.168 0.129 0.017 0.067-0.01 0.14-0.068 0.18L5.116 8.375l0.592 1.8c0.024 0.072-3e-3 0.152-0.071 0.198-0.058 0.04-0.137 0.039-0.194 0L3.848 9.262 2.257 10.374c-0.059 0.041-0.136 0.041-0.195 0C2 10.332 1.974 10.255 1.997 10.182zM23.961 6.871C23.833 6.358 23.366 6 22.826 6h-1.198l-0.274-1.062C21.209 4.386 20.71 4 20.139 4s-1.07 0.386-1.215 0.939L18.65 6h-1.208c-0.542 0-1.009 0.36-1.141 0.895-0.115 0.467 0.073 0.966 0.468 1.24l0.916 0.638-0.353 1.104c-0.158 0.494 0.022 1.023 0.448 1.318 0.199 0.138 0.433 0.207 0.666 0.207 0.235 0 0.47-0.07 0.67-0.21l1.02-0.712 1.023 0.712c0.395 0.273 0.926 0.276 1.331 4e-3 0.43-0.292 0.618-0.84 0.456-1.334l-0.36-1.094 0.916-0.64c0.395-0.276 0.582-0.775 0.459-1.257zM22.927 7.309 21.402 8.375l0.593 1.8c0.024 0.073-3e-3 0.151-0.072 0.198-0.058 0.039-0.136 0.038-0.193 0l-1.595-1.111-1.591 1.112c-0.059 0.04-0.136 0.041-0.195 0-0.061-0.042-0.087-0.121-0.065-0.191l0.578-1.808-1.522-1.06c-0.059-0.041-0.085-0.112-0.063-0.201C17.298 7.03 17.379 7 17.442 7h1.982l0.468-1.809c0.059-0.225 0.436-0.223 0.494-1e-3l0.468 1.811h1.973c0.063 0 0.144 0.03 0.169 0.128 0.017 0.068-0.01 0.141-0.069 0.18zM8.629 4.15 9.545 4.788 9.191 5.893c-0.157 0.494 0.024 1.023 0.45 1.318 0.199 0.138 0.433 0.207 0.666 0.207 0.235 0 0.47-0.07 0.67-0.21l1.019-0.712 1.023 0.712c0.395 0.276 0.927 0.279 1.332 4e-3 0.43-0.292 0.617-0.84 0.455-1.334l-0.36-1.094 0.915-0.64c0.396-0.276 0.583-0.776 0.461-1.258C15.692 2.365 15.225 2 14.687 2h-1.199l-0.273-1.047C13.07 0.401 12.571 0.015 12 0.015s-1.07 0.386-1.215 0.938L10.511 2H9.303c-0.54 0-1.007 0.366-1.141 0.91-0.115 0.467 0.073 0.966 0.467 1.24zM9.303 3h1.98l0.469-1.794c0.059-0.225 0.436-0.224 0.494 0L12.715 3h1.972c0.078 0 0.146 0.053 0.168 0.144 0.017 0.067-0.01 0.14-0.068 0.18L13.262 4.39l0.592 1.8v0c0.023 0.072-4e-3 0.152-0.072 0.198-0.059 0.04-0.134 0.039-0.193-1e-3l-1.595-1.111-1.591 1.113c-0.059 0.041-0.136 0.041-0.194 0-0.062-0.043-0.088-0.121-0.066-0.192l0.579-1.807L9.2 3.329c-0.058-0.04-0.084-0.112-0.063-0.2C9.156 3.053 9.224 3 9.303 3zM21.987 13.475C21.996 13.65 22 13.824 22 14c0 5.514-4.486 10-10 10S2 19.514 2 14c0-0.177 4e-3-0.351 0.013-0.525 0.014-0.275 0.245-0.511 0.524-0.474 0.276 0.014 0.488 0.248 0.475 0.524C3.004 13.682 3 13.84 3 14c0 4.963 4.038 9 9 9s9-4.037 9-9c0-0.159-4e-3-0.317-0.012-0.475-0.014-0.276 0.199-0.511 0.475-0.524 0.269-0.04 0.51 0.198 0.524 0.474z" />
</svg>