<svg id="bonus_Layer_1" viewBox="0 0 24 24" fill="currentColor" width="32" height="32" data-name="Layer 1" xmlns="http://www.w3.org/2000/svg" xmlns:xlink="http://www.w3.org/1999/xlink">
    <title>bonus</title>
    <path d="M23.481 18.248l-3.525-3.574c0.972-1.49 1.543-3.265 1.543-5.174C21.5 4.262 17.238 0 12 0S2.5 4.262 2.5 9.5c0 1.908 0.571 3.683 1.543 5.174l-3.524 3.574c-0.467 0.472-0.598 1.146-0.341 1.759 0.256 0.613 0.828 0.994 1.492 0.994h1.329v1.435c0 0.646 0.37 1.201 0.966 1.45 0.201 0.084 0.41 0.125 0.615 0.125 0.401 0 0.791-0.157 1.096-0.457l4.755-4.695C10.943 18.945 11.464 19 12 19s1.057-0.055 1.569-0.141l4.755 4.695c0.305 0.3 0.694 0.457 1.096 0.457 0.205 0 0.414-0.041 0.615-0.125 0.596-0.249 0.966-0.805 0.966-1.45v-1.435h1.329c0.664 0 1.236-0.381 1.492-0.994 0.257-0.612 0.126-1.287-0.341-1.759zM4.973 22.842c-0.252 0.25-0.54 0.155-0.622 0.121-0.083-0.035-0.352-0.174-0.352-0.528V20H1.671c-0.382 0-0.533-0.291-0.57-0.379s-0.137-0.4 0.131-0.671l3.407-3.455c1.186 1.454 2.793 2.549 4.634 3.102zM3.499 9.5C3.5 4.813 7.313 1 12 1s8.5 3.813 8.5 8.5S16.687 18 12 18 3.5 14.187 3.499 9.5zM22.898 19.621C22.861 19.71 22.71 20 22.328 20h-2.329v2.435c0 0.354-0.269 0.493-0.352 0.528-0.082 0.034-0.371 0.129-0.622-0.121l-4.299-4.245c1.841-0.553 3.448-1.648 4.634-3.102l3.408 3.455c0.267 0.271 0.167 0.582 0.13 0.671zM14.214 9.317c0.482-0.456 0.784-1.102 0.784-1.816 0-1.378-1.121-2.5-2.5-2.5h-2.2c-0.717 0-1.3 0.583-1.3 1.3v6.4c0 0.717 0.583 1.3 1.3 1.3h2.7c1.379 0 2.5-1.122 2.5-2.5 0-0.938-0.519-1.756-1.284-2.184zM9.998 6.3c0-0.166 0.135-0.3 0.3-0.3h2.2c0.827 0 1.5 0.673 1.5 1.5S13.325 9 12.498 9h-2.5zM12.998 13h-2.7c-0.165 0-0.3-0.134-0.3-0.3V10h3c0.827 0 1.5 0.673 1.5 1.5s-0.673 1.5-1.5 1.5z" />
</svg>