<svg id="book_copy_Layer_1" viewBox="0 0 24 24" fill="currentColor" width="32" height="32" data-name="Layer 1" xmlns="http://www.w3.org/2000/svg" xmlns:xlink="http://www.w3.org/1999/xlink">
    <title>book-copy</title>
    <path d="M20 0h-8C9.794 0 8 1.794 8 4v12c0 1.654 1.346 3 3 3h9c2.206 0 4-1.794 4-4V4c0-2.206-1.794-4-4-4zM12 1h8c1.654 0 3 1.346 3 3v9H11c-0.768 0-1.469 0.29-2 0.766V4c0-1.654 1.346-3 3-3zM20 18h-9c-1.103 0-2-0.897-2-2s0.897-2 2-2h12v1c0 1.654-1.346 3-3 3zM15.615 21.715C14.956 23.103 13.537 24 12 24H3c-1.654 0-3-1.346-3-3V9c0-2.206 1.794-4 4-4h1.5C5.776 5 6 5.224 6 5.5S5.776 6 5.5 6H4C2.346 6 1 7.346 1 9v9.766C1.531 18.29 2.232 18 3 18h3.5C6.776 18 7 18.224 7 18.5S6.776 19 6.5 19H3c-1.103 0-2 0.897-2 2s0.897 2 2 2h9c1.153 0 2.217-0.673 2.711-1.715 0.118-0.248 0.416-0.354 0.666-0.237 0.25 0.119 0.356 0.417 0.238 0.667z" />
</svg>