<svg id="book_open_cover_Layer_1" viewBox="0 0 24 24" fill="currentColor" width="32" height="32" data-name="Layer 1" xmlns="http://www.w3.org/2000/svg" xmlns:xlink="http://www.w3.org/1999/xlink">
    <title>book-open-cover</title>
    <path d="M24 3.5v13.961c0 2.013-1.354 3.796-3.294 4.335l-7.12 1.981c-1.038 0.288-2.135 0.289-3.173 0l-7.12-1.981C1.354 21.256 0 19.474 0 17.461V4.5c-0.01-0.649 1.01-0.649 1 0v12.961c0 1.565 1.053 2.952 2.562 3.372l7.121 1.981c0.862 0.24 1.773 0.24 2.636 0l7.12-1.982c1.509-0.419 2.562-1.806 2.562-3.372V3.5c-0.01-0.649 1.01-0.649 0.999 0zM3 15.911V3.5c0-1.108 0.507-2.127 1.392-2.794S6.396-0.17 7.461 0.134l3.225 0.922c0.538 0.153 0.993 0.48 1.313 0.908 0.32-0.428 0.776-0.755 1.313-0.908l3.225-0.922c1.066-0.304 2.185-0.096 3.069 0.572 0.885 0.667 1.392 1.686 1.392 2.794v12.411c0 1.554-1.044 2.938-2.538 3.366l-5.609 1.603c-0.558 0.159-1.148 0.159-1.706 0l-5.608-1.603C4.042 18.85 2.998 17.465 3 15.911zM12.5 3.46v16.478c0.026-6e-3 5.687-1.623 5.687-1.623C19.254 18.01 20 17.022 20 15.911V3.5c0-0.792-0.362-1.519-0.995-1.996-0.634-0.479-1.44-0.625-2.192-0.408l-3.225 0.922C12.947 2.201 12.5 2.794 12.5 3.46zM4 15.911c0 1.11 0.746 2.099 1.813 2.404 0 0 5.661 1.617 5.687 1.623V3.46c0-0.666-0.447-1.259-1.088-1.442L7.187 1.096C5.658 0.607 3.951 1.889 4 3.5z" />
</svg>