<svg id="book_arrow_right_Layer_1" viewBox="0 0 24 24" fill="currentColor" width="32" height="32" data-name="Layer 1" xmlns="http://www.w3.org/2000/svg" xmlns:xlink="http://www.w3.org/1999/xlink">
    <title>book-arrow-right</title>
    <path d="M24 10.5c6e-3 0.512-0.188 1.059-0.577 1.448l-2.581 2.417c-0.202 0.188-0.518 0.178-0.707-0.023-0.188-0.202-0.178-0.518 0.023-0.707l2.569-2.405c0.069-0.069 0.125-0.146 0.167-0.229H11.5c-0.649 0.01-0.649-1.01 0-1h11.325c-0.032-0.046-0.068-0.09-0.11-0.131L20.15 7.359c-0.197-0.193-0.201-0.51-8e-3-0.707s0.51-0.2 0.707-8e-3l2.569 2.515C23.772 9.512 23.969 10.04 24 10.5zM20 16.5v3c0 2.481-2.019 4.5-4.5 4.5h-12C1.57 24 0 22.43 0 20.5v-16C0 2.019 2.019 0 4.5 0h11C17.981 0 20 2.019 20 4.5 20 4.776 19.776 5 19.5 5S19 4.776 19 4.5C19 2.57 17.43 1 15.5 1H5v16h14v-0.5c-0.01-0.649 1.01-0.649 1 0zM1 18.053C1.636 17.403 2.522 17 3.5 17H4V1.036C2.306 1.279 1 2.74 1 4.5zM19 18H3.5c-3.286 0.059-3.284 4.942 0 5h12c1.93 0 3.5-1.57 3.5-3.5z" />
</svg>