<svg id="books_Layer_1" viewBox="0 0 24 24" fill="currentColor" width="32" height="32" data-name="Layer 1" xmlns="http://www.w3.org/2000/svg" xmlns:xlink="http://www.w3.org/1999/xlink">
    <title>books</title>
    <path d="M23.808 20.197 15.741 1.557c-0.52-1.276-1.979-1.895-3.259-1.371l-0.926 0.378c-0.358 0.146-0.671 0.368-0.921 0.649C10.197 0.487 9.401 1e-3 8.493 1e-3H2.5C1.122 0 0 1.121 0 2.5v19C0 22.879 1.122 24 2.5 24h5.993c1.378 0 2.5-1.121 2.5-2.5V5.689l7.265 16.79c0.522 1.286 2.014 1.885 3.259 1.367l0.925-0.378c1.261-0.486 1.906-2.026 1.366-3.271zM12.505 6.666l3.704-1.51 5.37 12.411-3.704 1.511zM1 6h3.993v12H1zM5.993 6h4v12h-4zM9.993 2.5V5h-4V1h2.5c0.827 0 1.5 0.673 1.5 1.5zM2.5 1h2.493v4H1V2.5C1 1.673 1.673 1 2.5 1zM1 21.5V19h3.993v4H2.5C1.673 23 1 22.327 1 21.5zM8.493 23h-2.5v-4h4v2.5c0 0.827-0.673 1.5-1.5 1.5zM11.934 1.489 12.86 1.111c0.751-0.31 1.642 0.051 1.959 0.832l0.993 2.294-3.704 1.51-0.997-2.304c-0.312-0.766 0.057-1.643 0.823-1.954zM22.881 21.734c-0.155 0.369-0.445 0.656-0.816 0.808v0L21.14 22.92c-0.765 0.312-1.643-0.056-1.959-0.829l-0.907-2.096 3.704-1.511 0.909 2.101c0.152 0.371 0.15 0.779-6e-3 1.149z" />
</svg>