<svg id="book_atlas_Layer_1" viewBox="0 0 24 24" fill="currentColor" width="32" height="32" data-name="Layer 1" xmlns="http://www.w3.org/2000/svg" xmlns:xlink="http://www.w3.org/1999/xlink">
    <title>book-atlas</title>
    <path d="M17.5 0.013h-11c-2.481 0-4.5 2.018-4.5 4.5v16c0 1.93 1.57 3.5 3.5 3.5h12c2.481 0 4.5-2.019 4.5-4.5v-15c0-2.482-2.019-4.5-4.5-4.5zM3 4.513c0-1.93 1.57-3.5 3.5-3.5h11c1.93 0 3.5 1.57 3.5 3.5v12.5H5.5c-0.978 0-1.864 0.404-2.5 1.053zM17.5 23.013h-12c-1.379 0-2.5-1.121-2.5-2.5s1.121-2.5 2.5-2.5H21v1.5c0 1.93-1.57 3.5-3.5 3.5zM12 15c3.309 0 6-2.691 6-6s-2.691-6-6-6-6 2.691-6 6 2.691 6 6 6zM7.025 9.5h1.984c0.063 1.671 0.439 3.108 1.018 4.094C8.394 12.89 7.208 11.34 7.025 9.5zM12 4c0.888 0 1.875 1.893 1.989 4.5h-3.978C10.125 5.893 11.112 4 12 4zM13.989 9.5C13.875 12.107 12.888 14 12 14s-1.875-1.893-1.989-4.5zM13.972 13.594c0.58-0.986 0.956-2.424 1.018-4.094h1.984c-0.184 1.841-1.37 3.39-3.002 4.094zM16.975 8.5h-1.984c-0.063-1.671-0.439-3.108-1.018-4.094 1.633 0.704 2.819 2.254 3.002 4.094zM10.028 4.406C9.448 5.392 9.072 6.83 9.01 8.5H7.026c0.184-1.841 1.37-3.39 3.002-4.094z" />
</svg>