<svg id="books_medical_Layer_1" viewBox="0 0 24 24" fill="currentColor" width="32" height="32" data-name="Layer 1" xmlns="http://www.w3.org/2000/svg" xmlns:xlink="http://www.w3.org/1999/xlink">
    <title>books-medical</title>
    <path d="M23.949 20.792 19.858 2.014c-0.268-1.353-1.585-2.234-2.937-1.968L15.94 0.24c-1.029 0.204-1.783 1.017-1.968 1.992-0.136-1.251-1.186-2.231-2.473-2.231h-6c-1.379 0-2.5 1.122-2.5 2.5v3c0 0.276 0.224 0.5 0.5 0.5h4.5v3.5c0 0.276 0.224 0.5 0.5 0.5s0.5-0.224 0.5-0.5v-3.5h4v12h-4v-3.5c0-0.276-0.224-0.5-0.5-0.5s-0.5 0.224-0.5 0.5v3.5H3.5c-0.276 0-0.5 0.224-0.5 0.5v3c0 1.378 1.121 2.5 2.5 2.5h6c1.379 0 2.5-1.122 2.5-2.5V3.309l3.906 18.658c0.228 1.195 1.28 2.032 2.456 2.032 0.15 0 0.302-0.013 0.454-0.042l1.138-0.21c0.663-0.123 1.236-0.497 1.614-1.055 0.379-0.558 0.515-1.23 0.381-1.9zM4 21.5V19h4v4H5.5C4.673 23 4 22.327 4 21.5zM13 21.5c0 0.827-0.673 1.5-1.5 1.5H9v-4h4zM4 5V2.5C4 1.673 4.673 1 5.5 1H8v4zM13 5H9V1h2.5C12.327 1 13 1.673 13 2.5zM15.707 6.586l3.954-0.782 2.615 12.003-4.051 0.801zM16.134 1.221c0 0 1.177-0.223 1.272-0.223 0.701 0 1.33 0.497 1.474 1.219l0.568 2.609-3.946 0.78-0.549-2.623c-0.16-0.812 0.37-1.603 1.181-1.762zM22.741 22.131c-0.228 0.334-0.571 0.56-0.969 0.633l-1.138 0.21c-0.811 0.153-1.592-0.386-1.748-1.204l-0.457-2.184 4.059-0.802 0.482 2.212c0.079 0.397-3e-3 0.8-0.229 1.135zM3 12.5H0.5C0.224 12.5 0 12.276 0 12s0.224-0.5 0.5-0.5H3V9c0-0.276 0.224-0.5 0.5-0.5S4 8.724 4 9v2.5h2.5C6.776 11.5 7 11.724 7 12s-0.224 0.5-0.5 0.5H4V15c0 0.276-0.224 0.5-0.5 0.5S3 15.276 3 15z" />
</svg>