<svg id="book_spells_Layer_1" viewBox="0 0 24 24" fill="currentColor" width="32" height="32" data-name="Layer 1" xmlns="http://www.w3.org/2000/svg" xmlns:xlink="http://www.w3.org/1999/xlink">
    <title>book-spells</title>
    <path d="M11.306 11.407l2.308 0.972 0.922 2.306c0.076 0.19 0.26 0.314 0.464 0.314s0.388-0.125 0.464-0.314l0.92-2.301 2.301-0.92c0.19-0.076 0.314-0.26 0.314-0.464s-0.125-0.388-0.314-0.464l-2.301-0.92-0.92-2.301c-0.152-0.38-0.776-0.38-0.929 0l-0.918 2.296-2.294 0.868c-0.191 0.073-0.319 0.254-0.323 0.458s0.117 0.391 0.306 0.47zM14.177 10.468c0.131-0.05 0.235-0.152 0.288-0.282l0.536-1.339 0.536 1.339c0.051 0.127 0.151 0.228 0.279 0.279l1.339 0.536-1.339 0.536c-0.127 0.051-0.228 0.151-0.279 0.279l-0.536 1.339-0.536-1.339c-0.05-0.124-0.147-0.223-0.27-0.275l-1.348-0.568zM5.37 6.445 7.086 6.906 7.515 8.621C7.571 8.844 7.77 9 8 9s0.429-0.156 0.485-0.379l0.427-1.709 1.709-0.427C10.844 6.429 11 6.23 11 6s-0.156-0.429-0.379-0.485L8.912 5.088 8.485 3.379c-0.111-0.445-0.858-0.445-0.97 0L7.089 5.082 5.387 5.475C5.164 5.527 5.004 5.724 5 5.954 4.996 6.183 5.148 6.386 5.37 6.445zM17.5 0h-11C4.019 0 2 2.019 2 4.5v16C2 22.43 3.57 24 5.5 24h12c2.481 0 4.5-2.019 4.5-4.5v-15C22 2.019 19.981 0 17.5 0zM3 4.5C3 2.57 4.57 1 6.5 1h11C19.43 1 21 2.57 21 4.5V17H5.5c-0.978 0-1.864 0.404-2.5 1.053zM17.5 23h-12C4.122 23 3 21.878 3 20.5S4.122 18 5.5 18H21v1.5c0 1.93-1.57 3.5-3.5 3.5z" />
</svg>