<svg id="Booking_Layer_1" viewBox="0 0 24 24" fill="currentColor" width="32" height="32" data-name="Layer 1" xmlns="http://www.w3.org/2000/svg" xmlns:xlink="http://www.w3.org/1999/xlink">
    <title>Booking</title>
    <path d="M2.805 18.562C1.691 17.945 1 16.771 1 15.5V8h19v8.5c0 0.276 0.224 0.5 0.5 0.5s0.5-0.224 0.5-0.5v-10C21 4.019 18.981 2 16.5 2H16V0.5C16 0.224 15.776 0 15.5 0S15 0.224 15 0.5V2H6V0.5C6 0.224 5.776 0 5.5 0S5 0.224 5 0.5V2H4.5C2.019 2 0 4.019 0 6.5v9c0 1.635 0.889 3.144 2.32 3.938C2.397 19.48 2.48 19.5 2.562 19.5c0.176 0 0.346-0.093 0.438-0.257 0.134-0.242 0.046-0.546-0.195-0.681zM4.5 3h12C18.43 3 20 4.57 20 6.5V7H1V6.5C1 4.57 2.57 3 4.5 3zM24 23.5c0 0.276-0.224 0.5-0.5 0.5S23 23.776 23 23.5c0-1.637-0.994-3.026-2.596-3.627l-5.08-1.905C15.129 17.895 15 17.708 15 17.5v-4.893c0-0.789-0.535-1.471-1.244-1.586-0.451-0.074-0.886 0.045-1.227 0.336C12.193 11.643 12 12.06 12 12.5v7.424c0 0.42-0.235 0.795-0.614 0.978-0.378 0.182-0.818 0.133-1.147-0.128 0 0-1.715-1.368-1.719-1.372-0.606-0.562-1.553-0.529-2.115 0.073-0.565 0.604-0.534 1.557 0.064 2.118l1.633 1.551C8.427 23.453 8.209 24 7.76 24c-0.127 0-0.249-0.048-0.341-0.135l-1.64-1.548c-1-0.937-1.048-2.518-0.106-3.524 0.928-0.994 2.481-1.054 3.489-0.15 3e-3 3e-3 1.698 1.349 1.698 1.349l0.138-0.067v-7.424c0-0.734 0.321-1.429 0.881-1.905s1.306-0.678 2.035-0.562c1.188 0.194 2.084 1.3 2.084 2.573v4.546l4.756 1.783c2.001 0.751 3.244 2.5 3.246 4.564z" />
</svg>