<svg id="book_alt_Layer_1" viewBox="0 0 24 24" fill="currentColor" width="32" height="32" data-name="Layer 1" xmlns="http://www.w3.org/2000/svg" xmlns:xlink="http://www.w3.org/1999/xlink">
    <title>book-alt</title>
    <path d="M22.317 2.088c-1.068-0.892-2.466-1.262-3.837-1.012l-3.995 0.727C13.412 1.998 12.521 2.652 12 3.539c-0.521-0.888-1.412-1.541-2.486-1.736L5.519 1.076c-1.37-0.248-2.768 0.12-3.837 1.012C0.613 2.981 0 4.29 0 5.683v11.374c0 2.263 1.617 4.2 3.844 4.606l6.57 1.194c0.526 0.096 1.056 0.144 1.585 0.144s1.06-0.048 1.586-0.144l6.57-1.194c2.228-0.406 3.844-2.344 3.844-4.606V5.683c0-1.392-0.613-2.702-1.682-3.595zM11.5 21.984c-0.303-0.02-0.605-0.057-0.907-0.111l-6.57-1.194C2.271 20.36 1 18.836 1 17.057V5.683c0-1.095 0.482-2.125 1.323-2.827 0.668-0.558 1.501-0.855 2.355-0.855 0.22 0 0.441 0.021 0.662 0.061l3.995 0.727C10.589 3.018 11.5 4.108 11.5 5.383zM23 17.056c0 1.779-1.271 3.303-3.023 3.622l-6.569 1.194c-0.302 0.055-0.604 0.092-0.907 0.111V5.381c0-1.274 0.91-2.365 2.165-2.594l3.995-0.727c1.074-0.195 2.177 0.094 3.017 0.796 0.841 0.701 1.323 1.731 1.323 2.826z" />
</svg>