<svg id="book_user_Layer_1" viewBox="0 0 24 24" fill="currentColor" width="32" height="32" data-name="Layer 1" xmlns="http://www.w3.org/2000/svg" xmlns:xlink="http://www.w3.org/1999/xlink">
    <title>book-user</title>
    <path d="M17.5 0h-11C4.019 0 2 2.019 2 4.5v16C2 22.43 3.57 24 5.5 24h12c2.481 0 4.5-2.019 4.5-4.5v-15C22 2.019 19.981 0 17.5 0zM21 4.5V17H7V1h10.5C19.43 1 21 2.57 21 4.5zM3 4.5c0-1.758 1.308-3.204 3-3.449V17H5.5c-0.98 0-1.864 0.407-2.5 1.058zM17.5 23h-12C4.121 23 3 21.878 3 20.5S4.121 18 5.5 18H21v1.5c0 1.93-1.57 3.5-3.5 3.5zM14 10c1.654 0 3-1.346 3-3s-1.346-3-3-3-3 1.346-3 3 1.346 3 3 3zM14 5c1.103 0 2 0.897 2 2s-0.897 2-2 2-2-0.897-2-2 0.897-2 2-2zM9.025 14.342C9.037 14.309 10.183 11 14 11s4.963 3.309 4.975 3.342c0.087 0.261-0.054 0.543-0.315 0.631-0.053 0.018-0.106 0.026-0.159 0.026-0.208 0-0.402-0.131-0.474-0.339C17.99 14.552 17.083 12 14.001 12s-3.989 2.551-4.026 2.66c-0.09 0.261-0.371 0.402-0.633 0.313-0.262-0.088-0.402-0.37-0.317-0.631z" />
</svg>