<svg id="book_Layer_1" viewBox="0 0 24 24" fill="currentColor" width="32" height="32" data-name="Layer 1" xmlns="http://www.w3.org/2000/svg" xmlns:xlink="http://www.w3.org/1999/xlink">
    <title>book</title>
    <path d="M17.5 0h-11C4.019 0 2 2.019 2 4.5v16C2 22.43 3.57 24 5.5 24h12c2.481 0 4.5-2.019 4.5-4.5v-15C22 2.019 19.981 0 17.5 0zM21 4.5V17H7V1h10.5C19.43 1 21 2.57 21 4.5zM3 4.5c0-1.758 1.308-3.204 3-3.449V17H5.5c-0.98 0-1.864 0.407-2.5 1.058zM17.5 23h-12C4.122 23 3 21.879 3 20.5S4.122 18 5.5 18H21v1.5c0 1.93-1.57 3.5-3.5 3.5z" />
</svg>