<svg id="book_circle_arrow_right_Layer_1" viewBox="0 0 24 24" fill="currentColor" width="32" height="32" data-name="Layer 1" xmlns="http://www.w3.org/2000/svg" xmlns:xlink="http://www.w3.org/1999/xlink">
    <title>book-circle-arrow-right</title>
    <path d="M11.5 23h-8C2.122 23 1 21.879 1 20.5S2.122 18 3.5 18h5C8.776 18 9 17.776 9 17.5S8.776 17 8.5 17H5V1h10.5C17.43 1 19 2.57 19 4.5v4C19 8.776 19.224 9 19.5 9S20 8.776 20 8.5v-4C20 2.019 17.981 0 15.5 0h-11C2.019 0 0 2.019 0 4.5v16C0 22.43 1.57 24 3.5 24h8c0.276 0 0.5-0.224 0.5-0.5S11.776 23 11.5 23zM1 4.5c0-1.76 1.306-3.221 3-3.464V17H3.5c-0.978 0-1.864 0.404-2.5 1.053zM17.5 11c-3.584 0-6.5 2.916-6.5 6.5s2.916 6.5 6.5 6.5 6.5-2.916 6.5-6.5-2.916-6.5-6.5-6.5zM17.5 23c-3.033 0-5.5-2.468-5.5-5.5s2.467-5.5 5.5-5.5 5.5 2.468 5.5 5.5-2.467 5.5-5.5 5.5zM21.086 16.489l-1.832-1.854c-0.319-0.274-0.755-0.333-1.137-0.158-0.381 0.176-0.618 0.546-0.618 0.966v1.558h-3c-0.276 0-0.5 0.224-0.5 0.5s0.224 0.5 0.5 0.5h3v1.552c0 0.421 0.238 0.791 0.621 0.967 0.141 0.064 0.289 0.097 0.437 0.097 0.254 0 0.51-0.096 0.73-0.288l1.8-1.836c0.551-0.553 0.55-1.45-1e-3-2.004zM20.377 17.788l-1.802 1.838-0.075-0.074v-4.109l0.074-0.076 1.802 1.827 3e-3 3e-3c0.163 0.162 0.163 0.426-2e-3 0.591z" />
</svg>