<svg id="bookmark_Layer_1" viewBox="0 0 24 24" fill="currentColor" width="32" height="32" data-name="Layer 1" xmlns="http://www.w3.org/2000/svg" xmlns:xlink="http://www.w3.org/1999/xlink">
    <title>bookmark</title>
    <path d="M18.57 0H5.577c-2.481 0-4.5 2.019-4.5 4.5v16.485c0 1.203 0.859 2.482 1.915 2.851 0.309 0.108 0.627 0.161 0.94 0.161 0.734 0 1.448-0.288 1.99-0.831l6.151-6.119 6.08 6.048c0.807 0.804 1.982 1.098 2.997 0.743 1.167-0.406 1.92-1.461 1.92-2.688V4.5c0-2.481-2.019-4.5-4.5-4.5zM22.07 21.15c0 0.807-0.479 1.476-1.249 1.743-0.655 0.229-1.424 0.027-1.963-0.508l-6.433-6.398c-0.195-0.193-0.51-0.193-0.705 0l-6.504 6.471c-0.508 0.508-1.215 0.67-1.895 0.435-0.651-0.228-1.244-1.137-1.244-1.907V4.5c0-1.93 1.57-3.5 3.5-3.5H18.57c1.93 0 3.5 1.57 3.5 3.5z" />
</svg>