<svg id="book_plus_Layer_1" viewBox="0 0 24 24" fill="currentColor" width="32" height="32" data-name="Layer 1" xmlns="http://www.w3.org/2000/svg" xmlns:xlink="http://www.w3.org/1999/xlink">
    <title>book-plus</title>
    <path d="M17.5 11c-3.584 0-6.5 2.916-6.5 6.5s2.916 6.5 6.5 6.5 6.5-2.916 6.5-6.5-2.916-6.5-6.5-6.5zM17.5 23c-3.032 0-5.5-2.468-5.5-5.5s2.468-5.5 5.5-5.5 5.5 2.468 5.5 5.5-2.468 5.5-5.5 5.5zM21 17.5c0 0.276-0.224 0.5-0.5 0.5H18v2.5c0 0.276-0.224 0.5-0.5 0.5S17 20.776 17 20.5V18h-2.5c-0.276 0-0.5-0.224-0.5-0.5s0.224-0.5 0.5-0.5H17v-2.5c0-0.276 0.224-0.5 0.5-0.5s0.5 0.224 0.5 0.5V17h2.5c0.276 0 0.5 0.224 0.5 0.5zM10.5 23h-7C2.121 23 1 21.879 1 20.5S2.121 18 3.5 18h5C8.776 18 9 17.776 9 17.5S8.776 17 8.5 17H5V1h10.5C17.43 1 19 2.57 19 4.5v4C19 8.776 19.224 9 19.5 9S20 8.776 20 8.5v-4C20 2.019 17.981 0 15.5 0h-11C2.019 0 0 2.019 0 4.5v16C0 22.43 1.57 24 3.5 24h7c0.276 0 0.5-0.224 0.5-0.5S10.776 23 10.5 23zM1 4.5c0-1.758 1.308-3.204 3-3.449V17H3.5c-0.98 0-1.864 0.407-2.5 1.058z" />
</svg>