<svg id="book_circle_arrow_up_Layer_1" viewBox="0 0 24 24" fill="currentColor" width="32" height="32" data-name="Layer 1" xmlns="http://www.w3.org/2000/svg" xmlns:xlink="http://www.w3.org/1999/xlink">
    <title>book-circle-arrow-up</title>
    <path d="M11.5 23h-8C2.122 23 1 21.879 1 20.5S2.122 18 3.5 18h5C8.776 18 9 17.776 9 17.5S8.776 17 8.5 17H5V1h10.5C17.43 1 19 2.57 19 4.5v4C19 8.776 19.224 9 19.5 9S20 8.776 20 8.5v-4C20 2.019 17.981 0 15.5 0h-11C2.019 0 0 2.019 0 4.5v16C0 22.43 1.57 24 3.5 24h8c0.276 0 0.5-0.224 0.5-0.5S11.776 23 11.5 23zM1 4.5c0-1.76 1.306-3.221 3-3.464V17H3.5c-0.978 0-1.864 0.404-2.5 1.053zM17.5 11c-3.584 0-6.5 2.916-6.5 6.5s2.916 6.5 6.5 6.5 6.5-2.916 6.5-6.5-2.916-6.5-6.5-6.5zM17.5 23c-3.033 0-5.5-2.468-5.5-5.5s2.467-5.5 5.5-5.5 5.5 2.468 5.5 5.5-2.467 5.5-5.5 5.5zM18.491 13.911c-0.267-0.266-0.622-0.412-1-0.412h-5e-3c-0.377 2e-3-0.731 0.148-0.997 0.415l-1.854 1.831c-0.273 0.318-0.334 0.754-0.158 1.136s0.546 0.619 0.966 0.619h1.558v3c0 0.276 0.224 0.5 0.5 0.5s0.5-0.224 0.5-0.5v-3h1.551c0.421 0 0.792-0.238 0.967-0.621s0.113-0.818-0.19-1.167zM19.552 16.5h-4.109l-0.077-0.073 1.828-1.802c0 0 2e-3-3e-3 4e-3-4e-3 0.077-0.078 0.181-0.121 0.292-0.122v0c0.112 0 0.216 0.043 0.297 0.124l1.838 1.802z" />
</svg>