<svg id="book_bookmark_Layer_1" viewBox="0 0 24 24" fill="currentColor" width="32" height="32" data-name="Layer 1" xmlns="http://www.w3.org/2000/svg" xmlns:xlink="http://www.w3.org/1999/xlink">
    <title>book-bookmark</title>
    <path d="M17.5 0h-11C4.019 0 2 2.019 2 4.5v16C2 22.43 3.57 24 5.5 24h12c2.481 0 4.5-2.019 4.5-4.5v-15C22 2.019 19.981 0 17.5 0zM21 4.5V17H7V1h5v8.848c0 0.502 0.307 0.93 0.782 1.091 0.476 0.16 0.979 7e-3 1.284-0.392L15 9.324l0.934 1.223c0.306 0.402 0.82 0.551 1.284 0.392C17.693 10.778 18 10.35 18 9.848V1.036c1.694 0.243 3 1.704 3 3.464zM13 1h4v8.848c0 0.09-0.056 0.127-0.103 0.144-0.046 0.015-0.114 0.02-0.168-0.051l-1.331-1.743c-0.189-0.248-0.605-0.248-0.795 0l-1.331 1.743c-0.056 0.072-0.123 0.067-0.168 0.052-0.047-0.016-0.103-0.054-0.103-0.144zM3 4.5c0-1.76 1.306-3.221 3-3.464V17H5.5c-0.978 0-1.864 0.404-2.5 1.053zM17.5 23h-12c-3.286-0.059-3.284-4.942 0-5H21v1.5c0 1.93-1.57 3.5-3.5 3.5z" />
</svg>