<svg id="bookmark_slash_Layer_1" viewBox="0 0 24 24" fill="currentColor" width="32" height="32" data-name="Layer 1" xmlns="http://www.w3.org/2000/svg" xmlns:xlink="http://www.w3.org/1999/xlink">
    <title>bookmark-slash</title>
    <path d="M23.854 23.146 21 20.292V5.5C21 3.019 18.981 1 16.5 1h-9C5.978 1 4.566 1.771 3.738 3.031L0.854 0.146c-0.196-0.195-0.512-0.195-0.708 0s-0.195 0.512 0 0.708l23 23C23.244 23.952 23.372 24 23.5 24s0.256-0.049 0.354-0.146c0.195-0.195 0.195-0.512 0-0.708zM20 19.292 4.465 3.758C5.089 2.672 6.247 2 7.5 2h9C18.43 2 20 3.57 20 5.5zM11.838 16.631c0.204 0.187 0.217 0.503 0.031 0.706l-4.825 5.264c-0.461 0.488-1.063 0.745-1.688 0.745-0.292 0-0.59-0.057-0.881-0.172C3.565 22.813 3 21.98 3 21.001V7.5C3 7.224 3.224 7 3.5 7S4 7.224 4 7.5v13.502c0 0.67 0.436 1.081 0.844 1.243 0.407 0.162 1.008 0.163 1.467-0.324l4.82-5.259c0.187-0.204 0.502-0.219 0.707-0.031z" />
</svg>