<svg id="book_arrow_up_Layer_1" viewBox="0 0 24 24" fill="currentColor" width="32" height="32" data-name="Layer 1" xmlns="http://www.w3.org/2000/svg" xmlns:xlink="http://www.w3.org/1999/xlink">
    <title>book-arrow-up</title>
    <path d="M23.346 14.861c-0.199 0.191-0.516 0.184-0.707-0.016l-2.46-2.569c-0.052-0.052-0.118-0.08-0.179-0.118v11.341c0.01 0.649-1.01 0.649-1 0V12.16c-0.064 0.039-0.131 0.069-0.187 0.124l-2.452 2.562c-0.191 0.199-0.507 0.207-0.707 0.016-0.199-0.191-0.206-0.508-0.016-0.707l2.46-2.569c0.386-0.387 0.891-0.58 1.395-0.583 5e-3-2e-3 9e-3 0 0.014 0 0.503 1e-3 1.004 0.192 1.386 0.575l2.468 2.577c0.19 0.199 0.184 0.516-0.015 0.706zM3 20.5C3 21.878 4.121 23 5.5 23h11c0.649-0.01 0.649 1.01 0 1h-11C3.57 24 2 22.43 2 20.5v-16C2 2.019 4.019 0 6.5 0h11C19.981 0 22 2.019 22 4.5v5.039c0.01 0.649-1.01 0.649-1 0V4.5C21 2.57 19.43 1 17.5 1H7v16h9.5c0.649-0.01 0.649 1.01 0 1h-11C4.121 18 3 19.122 3 20.5zM5.5 17H6V1.051C4.308 1.296 3 2.742 3 4.5v13.558C3.636 17.407 4.52 17 5.5 17z" />
</svg>