<svg id="boot_Layer_1" viewBox="0 0 24 24" fill="currentColor" width="32" height="32" data-name="Layer 1" xmlns="http://www.w3.org/2000/svg" xmlns:xlink="http://www.w3.org/1999/xlink">
    <title>boot</title>
    <path d="M19.413 12.342 16.1 11.424C15.453 11.245 15 10.65 15 9.978V4.949c1.14-0.232 2-1.242 2-2.45 0-1.378-1.121-2.5-2.5-2.5h-12C1.121 0 0 1.122 0 2.5 0 3.707 0.86 4.717 2 4.95V23.5C2 23.776 2.224 24 2.5 24S3 23.776 3 23.5V22h3v1.5C6 23.776 6.224 24 6.5 24S7 23.776 7 23.5V22h3v1.5c0 0.276 0.224 0.5 0.5 0.5s0.5-0.224 0.5-0.5V22h4v1.5c0 0.276 0.224 0.5 0.5 0.5s0.5-0.224 0.5-0.5V22h3v1.5c0 0.276 0.224 0.5 0.5 0.5s0.5-0.224 0.5-0.5V22h3v1.5c0 0.276 0.224 0.5 0.5 0.5s0.5-0.224 0.5-0.5v-5.528c0-2.731-1.944-5.103-4.587-5.63zM1 2.5C1 1.673 1.673 1 2.5 1h12C15.327 1 16 1.673 16 2.5S15.327 4 14.5 4h-12C1.673 4 1 3.327 1 2.5zM3 21V5h11v3H9.5C9.224 8 9 8.224 9 8.5S9.224 9 9.5 9H14v0.979c0 0.36 0.078 0.707 0.22 1.021H9.5C9.224 11 9 11.224 9 11.5S9.224 12 9.5 12H15c0.01 0 0.019 0 0.029-1e-3 0.238 0.174 0.508 0.308 0.803 0.39l3.35 0.926C21.394 13.757 23 15.716 23 17.973v3.028z" />
</svg>