<svg id="border_style_alt_Layer_1" viewBox="0 0 24 24" fill="currentColor" width="32" height="32" data-name="Layer 1" xmlns="http://www.w3.org/2000/svg" xmlns:xlink="http://www.w3.org/1999/xlink">
    <title>border-style-alt</title>
    <path d="M6 0c0.55 0 1 0.45 1 1S6.55 2 6 2 5 1.55 5 1 5.45 0 6 0zM17 1c0 0.55 0.45 1 1 1s1-0.45 1-1-0.45-1-1-1-1 0.45-1 1zM0 1c0 0.55 0.45 1 1 1s1-0.45 1-1-0.45-1-1-1-1 0.45-1 1zM0 6c0 0.55 0.45 1 1 1s1-0.45 1-1-0.45-1-1-1-1 0.45-1 1zM0 12c0 0.55 0.45 1 1 1s1-0.45 1-1-0.45-1-1-1-1 0.45-1 1zM0 18c0 0.55 0.45 1 1 1s1-0.45 1-1-0.45-1-1-1-1 0.45-1 1zM11 1c0 0.55 0.45 1 1 1s1-0.45 1-1-0.45-1-1-1-1 0.45-1 1zM24 19.5v-19C24 0.22 23.78 0 23.5 0S23 0.22 23 0.5v19c0 1.93-1.57 3.5-3.5 3.5h-19C0.22 23 0 23.22 0 23.5S0.22 24 0.5 24h19c2.48 0 4.5-2.02 4.5-4.5z" />
</svg>