<svg id="border_left_Layer_1" viewBox="0 0 24 24" fill="currentColor" width="32" height="32" data-name="Layer 1" xmlns="http://www.w3.org/2000/svg" xmlns:xlink="http://www.w3.org/1999/xlink">
    <title>border-left</title>
    <path d="M0.5 24C0.22 24 0 23.78 0 23.5v-23C0 0.22 0.22 0 0.5 0S1 0.22 1 0.5v23C1 23.78 0.78 24 0.5 24zM24 1c0-0.55-0.45-1-1-1s-1 0.45-1 1 0.45 1 1 1 1-0.45 1-1zM19 1c0-0.55-0.45-1-1-1s-1 0.45-1 1 0.45 1 1 1 1-0.45 1-1zM19 23c0-0.55-0.45-1-1-1s-1 0.45-1 1 0.45 1 1 1 1-0.45 1-1zM7 1c0-0.55-0.45-1-1-1S5 0.45 5 1 5.45 2 6 2 7 1.55 7 1zM7 23c0-0.55-0.45-1-1-1s-1 0.45-1 1 0.45 1 1 1 1-0.45 1-1zM24 23c0-0.55-0.45-1-1-1s-1 0.45-1 1 0.45 1 1 1 1-0.45 1-1zM24 18c0-0.55-0.45-1-1-1s-1 0.45-1 1 0.45 1 1 1 1-0.45 1-1zM24 12c0-0.55-0.45-1-1-1s-1 0.45-1 1 0.45 1 1 1 1-0.45 1-1zM24 6c0-0.55-0.45-1-1-1s-1 0.45-1 1 0.45 1 1 1 1-0.45 1-1zM13 1c0-0.55-0.45-1-1-1s-1 0.45-1 1 0.45 1 1 1 1-0.45 1-1zM13 23c0-0.55-0.45-1-1-1s-1 0.45-1 1 0.45 1 1 1 1-0.45 1-1zM13 18c0-0.55-0.45-1-1-1s-1 0.45-1 1 0.45 1 1 1 1-0.45 1-1zM13 12c0-0.55-0.45-1-1-1s-1 0.45-1 1 0.45 1 1 1 1-0.45 1-1zM13 6c0-0.55-0.45-1-1-1s-1 0.45-1 1 0.45 1 1 1 1-0.45 1-1zM6 13c0.55 0 1-0.45 1-1s-0.45-1-1-1-1 0.45-1 1 0.45 1 1 1zM18 13c0.55 0 1-0.45 1-1s-0.45-1-1-1-1 0.45-1 1 0.45 1 1 1z" />
</svg>