<svg id="border_none_Layer_1" viewBox="0 0 24 24" fill="currentColor" width="32" height="32" data-name="Layer 1" xmlns="http://www.w3.org/2000/svg" xmlns:xlink="http://www.w3.org/1999/xlink">
    <title>border-none</title>
    <path d="M2 1c0 0.55-0.45 1-1 1S0 1.55 0 1 0.45 0 1 0 2 0.45 2 1zM1 5C0.45 5 0 5.45 0 6s0.45 1 1 1 1-0.45 1-1-0.45-1-1-1zM23 5c-0.55 0-1 0.45-1 1s0.45 1 1 1 1-0.45 1-1-0.45-1-1-1zM1 17c-0.55 0-1 0.45-1 1s0.45 1 1 1 1-0.45 1-1-0.45-1-1-1zM23 17c-0.55 0-1 0.45-1 1s0.45 1 1 1 1-0.45 1-1-0.45-1-1-1zM23 0c-0.55 0-1 0.45-1 1s0.45 1 1 1 1-0.45 1-1-0.45-1-1-1zM18 0c-0.55 0-1 0.45-1 1s0.45 1 1 1 1-0.45 1-1-0.45-1-1-1zM12 0c-0.55 0-1 0.45-1 1s0.45 1 1 1 1-0.45 1-1-0.45-1-1-1zM6 0C5.45 0 5 0.45 5 1s0.45 1 1 1 1-0.45 1-1-0.45-1-1-1zM1 11c-0.55 0-1 0.45-1 1s0.45 1 1 1 1-0.45 1-1-0.45-1-1-1zM23 11c-0.55 0-1 0.45-1 1s0.45 1 1 1 1-0.45 1-1-0.45-1-1-1zM18 11c-0.55 0-1 0.45-1 1s0.45 1 1 1 1-0.45 1-1-0.45-1-1-1zM12 11c-0.55 0-1 0.45-1 1s0.45 1 1 1 1-0.45 1-1-0.45-1-1-1zM6 11c-0.55 0-1 0.45-1 1s0.45 1 1 1 1-0.45 1-1-0.45-1-1-1zM1 22c-0.55 0-1 0.45-1 1s0.45 1 1 1 1-0.45 1-1-0.45-1-1-1zM23 22c-0.55 0-1 0.45-1 1s0.45 1 1 1 1-0.45 1-1-0.45-1-1-1zM18 22c-0.55 0-1 0.45-1 1s0.45 1 1 1 1-0.45 1-1-0.45-1-1-1zM12 22c-0.55 0-1 0.45-1 1s0.45 1 1 1 1-0.45 1-1-0.45-1-1-1zM6 22c-0.55 0-1 0.45-1 1s0.45 1 1 1 1-0.45 1-1-0.45-1-1-1zM13 18c0-0.55-0.45-1-1-1s-1 0.45-1 1 0.45 1 1 1 1-0.45 1-1zM13 6c0-0.55-0.45-1-1-1s-1 0.45-1 1 0.45 1 1 1 1-0.45 1-1z" />
</svg>