<svg id="boss_Layer_1" viewBox="0 0 24 24" fill="currentColor" width="32" height="32" data-name="Layer 1" xmlns="http://www.w3.org/2000/svg" xmlns:xlink="http://www.w3.org/1999/xlink">
    <title>boss</title>
    <path d="M12 10c2.757 0 5-2.243 5-5s-2.243-5-5-5-5 2.243-5 5 2.243 5 5 5zM12 1c2.206 0 4 1.794 4 4s-1.794 4-4 4-4-1.794-4-4 1.794-4 4-4zM23.5 20H20v-1c0-4.411-3.589-8-8-8s-8 3.589-8 8v1H0.5C0.224 20 0 20.224 0 20.5S0.224 21 0.5 21H2v2.5C2 23.776 2.224 24 2.5 24S3 23.776 3 23.5V21h18v2.5c0 0.276 0.224 0.5 0.5 0.5s0.5-0.224 0.5-0.5V21h1.5c0.276 0 0.5-0.224 0.5-0.5S23.776 20 23.5 20zM19 19v1h-4.61l-1.352-5.407 1.425-2.137C17.109 13.456 19 16.008 19 19zM13.462 12.156l-1.378 2.067c-0.078 0.117-0.103 0.262-0.069 0.398L13.36 20h-2.72l1.345-5.379c0.034-0.137 9e-3-0.281-0.069-0.398l-1.378-2.067C11.01 12.055 11.498 12 12 12s0.99 0.055 1.462 0.156zM5 19c0-2.992 1.89-5.544 4.537-6.544l1.425 2.137L9.61 20H5z" />
</svg>