<svg id="bottle_droplet_Layer_1" viewBox="0 0 24 24" fill="currentColor" width="32" height="32" data-name="Layer 1" xmlns="http://www.w3.org/2000/svg" xmlns:xlink="http://www.w3.org/1999/xlink">
    <title>bottle-droplet</title>
    <path d="M18.312 8.908 15 6.26V1h0.5C15.776 1 16 0.776 16 0.5S15.776 0 15.5 0h-7C8.224 0 8 0.224 8 0.5S8.224 1 8.5 1H9v5.26L5.688 8.908C4.615 9.768 4 11.049 4 12.423V19.5C4 21.981 6.019 24 8.5 24h7c2.481 0 4.5-2.019 4.5-4.5v-7.077c0-1.374-0.615-2.654-1.688-3.515zM19 19.5c0 1.93-1.57 3.5-3.5 3.5h-7C6.57 23 5 21.43 5 19.5v-7.077c0-1.068 0.479-2.064 1.313-2.733l3.499-2.799C9.93 6.796 10 6.653 10 6.5V1h4v5.5c0 0.152 0.069 0.296 0.187 0.391l3.499 2.799c0.835 0.669 1.313 1.665 1.313 2.733zM11.001 12.44C10.194 13.325 9 15.226 9 16.5c0 1.654 1.346 3 3 3s3-1.346 3-3c0-1.273-1.194-3.175-2.001-4.06-0.512-0.561-1.486-0.561-1.998 0zM12 18.5c-1.103 0-2-0.897-2-2 0-0.916 1.013-2.59 1.739-3.386C11.83 13.014 11.941 13 12 13s0.17 0.015 0.261 0.114C12.988 13.91 14 15.584 14 16.5c0 1.103-0.897 2-2 2z" />
</svg>