<svg id="bottle_Layer_1" viewBox="0 0 24 24" fill="currentColor" width="32" height="32" data-name="Layer 1" xmlns="http://www.w3.org/2000/svg" xmlns:xlink="http://www.w3.org/1999/xlink">
    <title>bottle</title>
    <path d="M17.171 8.03 15 7.162V1h0.5C15.776 1 16 0.776 16 0.5S15.776 0 15.5 0h-7C8.224 0 8 0.224 8 0.5S8.224 1 8.5 1H9v6.162L6.829 8.03C5.11 8.718 4 10.357 4 12.208V19.5C4 21.981 6.019 24 8.5 24h7c2.481 0 4.5-2.019 4.5-4.5v-7.292c0-1.851-1.11-3.491-2.829-4.178zM19 19.5c0 1.93-1.57 3.5-3.5 3.5h-7C6.57 23 5 21.43 5 19.5v-7.292c0-1.439 0.864-2.715 2.2-3.25l2.485-0.994c0.19-0.076 0.314-0.26 0.314-0.464V1h4v6.5c0 0.205 0.124 0.388 0.314 0.464l2.485 0.994c1.337 0.535 2.2 1.81 2.2 3.25zM15.5 14h-7C8.224 14 8 14.224 8 14.5v4C8 18.776 8.224 19 8.5 19h7c0.276 0 0.5-0.224 0.5-0.5v-4c0-0.276-0.224-0.5-0.5-0.5zM15 18H9v-3h6z" />
</svg>