<svg id="bottle_baby_Layer_1" viewBox="0 0 24 24" fill="currentColor" width="32" height="32" data-name="Layer 1" xmlns="http://www.w3.org/2000/svg" xmlns:xlink="http://www.w3.org/1999/xlink">
    <title>bottle-baby</title>
    <path d="M17.649 8.567 17 7.887V6.5C17 5.122 15.878 4 14.5 4h-0.766C13.893 3.178 14 2.393 14 2c0-1.103-0.897-2-2-2s-2 0.897-2 2c0 0.393 0.107 1.178 0.266 2H9.5C8.122 4 7 5.122 7 6.5v1.335L6.301 8.581C4.817 10.163 4 12.228 4 14.396V19.5C4 21.981 6.019 24 8.5 24h7c2.481 0 4.5-2.019 4.5-4.5v-5.064c0-2.196-0.835-4.28-2.351-5.869zM11 2c0-0.551 0.449-1 1-1s1 0.449 1 1c0 0.316-0.105 1.113-0.285 2h-1.431C11.104 3.113 10.999 2.316 11 2zM9.5 5h5C15.327 5 16 5.673 16 6.5V7H8V6.5C8 5.673 8.673 5 9.5 5zM19 19.5c0 1.93-1.57 3.5-3.5 3.5h-7c-1.391 0-2.585-0.822-3.149-2H8.5C8.776 21 9 20.776 9 20.5S8.776 20 8.5 20H5.051C5.027 19.835 5 19.671 5 19.5V18h3.5C8.776 18 9 17.776 9 17.5S8.776 17 8.5 17H5v-2h3.5C8.776 15 9 14.776 9 14.5S8.776 14 8.5 14H5.019c0.093-1.767 0.793-3.436 2.012-4.735L8.218 8h7.509l1.2 1.257c1.337 1.402 2.074 3.241 2.074 5.178z" />
</svg>