<svg id="bowl_soft_serve_Layer_1" viewBox="0 0 24 24" fill="currentColor" width="32" height="32" data-name="Layer 1" xmlns="http://www.w3.org/2000/svg" xmlns:xlink="http://www.w3.org/1999/xlink">
    <title>bowl-soft-serve</title>
    <path d="M23.984 10.692C23.833 9.182 22.459 8 20.857 8h-0.623C20.71 7.469 21 6.768 21 6c0-1.654-1.346-3-3-3h-2.247c-0.176 0-0.338-0.09-0.42-0.235-0.664-1.16-1.704-2.198-2.649-2.643-0.384-0.182-0.822-0.167-1.2 0.041-0.383 0.21-0.645 0.593-0.7 1.023 0 0-0.137 1.058-0.234 1.447C10.496 2.849 10.303 3 10.081 3h-3.94C4.54 3 3.167 4.183 3.016 5.692 2.932 6.534 3.204 7.374 3.765 8H3.143c-1.602 0-2.976 1.183-3.127 2.692-0.085 0.847 0.192 1.693 0.759 2.32 0.493 0.545 1.171 0.871 1.893 0.953l1.46 3.053c1.833 3.059 3.766 3.033 6.696 2.991 0.213-3e-3 0.448-3e-3 0.676-4e-3v2.996h-4c-0.276 0-0.5 0.224-0.5 0.5s0.224 0.5 0.5 0.5h9c0.276 0 0.5-0.224 0.5-0.5s-0.224-0.5-0.5-0.5h-4v-2.995c0.243 2e-3 1.373 0.015 1.683 0.015 2.383 0 4.076-0.291 5.712-3.024l1.438-3.031c0.722-0.082 1.4-0.408 1.892-0.953 0.567-0.627 0.844-1.473 0.759-2.321zM19.014 16.524c-1.53 2.551-2.954 2.527-5.781 2.486-0.383-5e-3-2.054-7e-3-2.423-1e-3-2.855 0.041-4.287 0.061-5.803-2.463l-1.215-2.545h16.417zM22.483 12.341C22.104 12.759 21.564 13 21 13H3c-0.564 0-1.104-0.24-1.483-0.659-0.384-0.424-0.563-0.975-0.506-1.549C1.112 9.787 2.048 9 3.143 9H12.5C12.776 9 13 8.776 13 8.5S12.776 8 12.5 8H6C5.436 8 4.896 7.76 4.517 7.341 4.133 6.917 3.954 6.366 4.011 5.792 4.112 4.787 5.047 4 6.141 4h3.94c0.683 0 1.275-0.463 1.44-1.126 0.11-0.445 0.255-1.56 0.255-1.56 0.015-0.117 0.084-0.217 0.189-0.275 0.055-0.03 0.166-0.074 0.293-0.013 0.749 0.353 1.656 1.272 2.208 2.236C14.727 3.717 15.22 4 15.755 4h2.247c1.103 0 2 0.897 2 2s-0.897 2-2 2h-0.5c-0.276 0-0.5 0.224-0.5 0.5s0.224 0.5 0.5 0.5h3.357c1.095 0 2.031 0.787 2.132 1.792 0.058 0.575-0.122 1.125-0.508 1.549z" />
</svg>