<svg id="bowl_rice_Layer_1" viewBox="0 0 24 24" fill="currentColor" width="32" height="32" data-name="Layer 1" xmlns="http://www.w3.org/2000/svg" xmlns:xlink="http://www.w3.org/1999/xlink">
    <title>bowl-rice</title>
    <path d="M9.007 6.007c0-0.552 0.448-1 1-1s1 0.448 1 1-0.448 1-1 1-1-0.448-1-1zM15.004 9.993c0.55 0 0.996-0.446 0.996-0.996s-0.446-0.996-0.996-0.996-0.996 0.446-0.996 0.996 0.446 0.996 0.996 0.996zM23.864 15.518c-0.683 2.34-1.92 4.45-3.579 6.103-1.524 1.518-3.681 2.388-5.915 2.388H9.646c-2.235 0-4.391-0.87-5.914-2.388-1.659-1.652-2.897-3.763-3.58-6.104-0.316-1.079-0.111-2.213 0.562-3.11 0.408-0.545 0.949-0.947 1.562-1.177-0.178-0.429-0.267-0.885-0.267-1.363 0-1.292 0.641-2.508 1.714-3.252 0.18-0.12 0.285-0.191 0.285-0.607 0-2.206 1.794-4 4-4 0.613 0 0.768-0.213 0.903-0.4 0.733-1.021 1.86-1.602 3.097-1.602s2.363 0.581 3.093 1.594c0.141 0.194 0.293 0.407 0.907 0.407 2.206 0 4 1.794 4 4 0 0.416 0.105 0.487 0.239 0.577 1.119 0.774 1.761 1.99 1.761 3.282 0 0.478-0.09 0.934-0.268 1.363 0.613 0.23 1.154 0.632 1.562 1.177 0.673 0.897 0.878 2.031 0.562 3.112zM3.276 11.016c0.077-5e-3 0.155-8e-3 0.233-8e-3h16.997c0.078 0 0.156 3e-3 0.233 8e-3 0.18-0.358 0.269-0.735 0.269-1.149 0-0.964-0.48-1.872-1.285-2.43-0.254-0.171-0.715-0.48-0.715-1.43 0-1.654-1.346-3-3-3-1.127 0-1.523-0.552-1.714-0.817-0.544-0.754-1.376-1.184-2.286-1.184s-1.743 0.43-2.281 1.178C9.53 2.456 9.131 3.007 8.007 3.007c-1.654 0-3 1.346-3 3 0 0.949-0.461 1.259-0.683 1.407-0.837 0.579-1.316 1.487-1.316 2.452 0 0.415 0.089 0.792 0.268 1.15zM22.502 13.006c-0.476-0.634-1.203-0.998-1.996-0.998H3.509c-0.793 0-1.521 0.364-1.996 0.998-0.481 0.643-0.628 1.456-0.402 2.23 0.627 2.148 1.809 4.163 3.326 5.675 1.338 1.333 3.236 2.097 5.209 2.097h4.724c1.973 0 3.871-0.765 5.21-2.097 1.517-1.512 2.698-3.527 3.325-5.674 0.226-0.775 0.079-1.589-0.403-2.231z" />
</svg>