<svg id="bowling_Layer_1" viewBox="0 0 24 24" fill="currentColor" width="32" height="32" data-name="Layer 1" xmlns="http://www.w3.org/2000/svg" xmlns:xlink="http://www.w3.org/1999/xlink">
    <title>bowling</title>
    <path d="M17 16c0 0.552-0.448 1-1 1s-1-0.448-1-1 0.448-1 1-1 1 0.448 1 1zM20 15c-0.552 0-1 0.448-1 1s0.448 1 1 1 1-0.448 1-1-0.448-1-1-1zM18 12c-0.552 0-1 0.448-1 1s0.448 1 1 1 1-0.448 1-1-0.448-1-1-1zM24 16c0 4.411-3.589 8-8 8-1.888 0-3.69-0.666-5.129-1.871C10.043 23.282 8.698 24 7.217 24H4.783c-1.946 0-3.663-1.235-4.272-3.074C0.172 19.902 0 18.749 0 17.5c0-2.19 0.896-3.819 1.686-5.257C2.362 11.014 3 9.852 3 8.5 3 8.069 2.796 7.421 2.581 6.734 2.309 5.867 2 4.884 2 4 2 1.794 3.794 0 6 0s4 1.794 4 4c0 0.885-0.309 1.867-0.581 2.734C9.204 7.421 9 8.069 9 8.5c0 0.922 0.3 1.755 0.703 2.582C11.214 9.144 13.509 8 16 8c4.411 0 8 3.589 8 8zM3 4c0 0.731 0.272 1.597 0.535 2.435C3.71 6.992 3.875 7.525 3.953 8h4.094C8.125 7.525 8.29 6.992 8.465 6.435 8.728 5.597 9 4.731 9 4 9 2.346 7.654 1 6 1S3 2.346 3 4zM10.54 20.612C10.846 19.69 11 18.643 11 17.5c0-1.933-0.794-3.378-1.562-4.775C8.777 11.522 8.153 10.378 8.027 9H3.973c-0.126 1.378-0.75 2.522-1.411 3.725C1.794 14.122 1 15.567 1 17.5c0 1.143 0.155 2.189 0.46 3.112C1.934 22.04 3.269 23 4.783 23h2.434c1.514 0 2.849-0.96 3.323-2.388zM23 16c0-3.86-3.14-7-7-7-2.335 0-4.472 1.148-5.78 3.07 0.031 0.057 0.062 0.115 0.094 0.172C11.105 13.68 12 15.309 12 17.499c0 1.25-0.172 2.402-0.511 3.426-0.035 0.107-0.087 0.204-0.13 0.307 1.282 1.138 2.922 1.767 4.641 1.767 3.86 0 7-3.14 7-6.999z" />
</svg>