<svg id="bowl_spoon_Layer_1" viewBox="0 0 24 24" fill="currentColor" width="32" height="32" data-name="Layer 1" xmlns="http://www.w3.org/2000/svg" xmlns:xlink="http://www.w3.org/1999/xlink">
    <title>bowl-spoon</title>
    <path d="M7.167 9c2.481 0 4.508-1.756 4.779-4H23.5C23.776 5 24 4.776 24 4.5S23.776 4 23.5 4H11.946c-0.271-2.244-2.298-4-4.779-4C4.649 0 0 1.855 0 4.5S4.649 9 7.167 9zM7.167 1C9.281 1 11 2.57 11 4.5S9.28 8 7.167 8C4.902 8 1 6.271 1 4.5S4.902 1 7.167 1zM23.375 12.468C22.685 11.535 21.606 11 20.417 11H3.693c-1.189 0-2.268 0.535-2.958 1.468-0.657 0.888-0.85 1.998-0.529 3.048 0.715 2.341 2.009 4.452 3.743 6.104 1.589 1.513 3.834 2.38 6.16 2.38H14c2.326 0 4.571-0.867 6.16-2.38 1.734-1.652 3.028-3.763 3.743-6.104 0.321-1.05 0.128-2.161-0.528-3.048zM22.948 15.223c-0.656 2.147-1.89 4.162-3.477 5.673C18.067 22.234 16.073 23 14.001 23H10.11c-2.072 0-4.065-0.767-5.47-2.104-1.586-1.512-2.821-3.526-3.477-5.673-0.227-0.742-0.089-1.53 0.377-2.16 0.5-0.675 1.285-1.062 2.154-1.062h16.722c0.87 0 1.655 0.388 2.154 1.062 0.466 0.63 0.604 1.417 0.378 2.16z" />
</svg>