<svg id="box_alt_Layer_1" viewBox="0 0 24 24" fill="currentColor" width="32" height="32" data-name="Layer 1" xmlns="http://www.w3.org/2000/svg" xmlns:xlink="http://www.w3.org/1999/xlink">
    <title>box-alt</title>
    <path d="M19.5 0h-15C2.019 0 0 2.019 0 4.5v15C0 21.981 2.019 24 4.5 24h15c2.481 0 4.5-2.019 4.5-4.5v-15C24 2.019 21.981 0 19.5 0zM23 4.5V5h-8V1h4.5C21.43 1 23 2.57 23 4.5zM10 1h4v6.5C14 8.327 13.327 9 12.5 9h-1C10.673 9 10 8.327 10 7.5zM4.5 1H9v4H1V4.5C1 2.57 2.57 1 4.5 1zM19.5 23h-15C2.57 23 1 21.43 1 19.5V6h8v1.5c0 1.379 1.121 2.5 2.5 2.5h1c1.379 0 2.5-1.121 2.5-2.5V6h8v13.5c0 1.93-1.57 3.5-3.5 3.5zM20 19.5c0 0.276-0.224 0.5-0.5 0.5h-4c-0.276 0-0.5-0.224-0.5-0.5s0.224-0.5 0.5-0.5h4c0.276 0 0.5 0.224 0.5 0.5z" />
</svg>