<svg id="box_open_full_Layer_1" viewBox="0 0 24 24" fill="currentColor" width="32" height="32" data-name="Layer 1" xmlns="http://www.w3.org/2000/svg" xmlns:xlink="http://www.w3.org/1999/xlink">
    <title>box-open-full</title>
    <path d="M23.636 10.281 22.439 8.045c-0.439-0.821-1.4-1.209-2.291-0.92l-8.147 2.657-8.148-2.657c-0.893-0.29-1.852 0.099-2.291 0.92L0.376 10.26c-0.412 0.685-0.49 1.508-0.213 2.258 0.276 0.75 0.871 1.325 1.629 1.578l0.21 0.07-6e-3 3.621c0 1.941 1.235 3.658 3.077 4.272l4.862 1.621c0.663 0.221 1.359 0.331 2.056 0.331s1.393-0.11 2.056-0.331l4.866-1.622c1.843-0.614 3.082-2.329 3.083-4.267v-3.625l0.212-0.071c0.758-0.253 1.353-0.828 1.629-1.578 0.277-0.75 0.199-1.573-0.201-2.236zM1.101 12.172c-0.171-0.464-0.123-0.973 0.145-1.418l1.197-2.236c0.164-0.307 0.48-0.487 0.813-0.487 0.095 0 0.191 0.015 0.286 0.046l7.719 2.517-1.972 3.635c-0.387 0.645-1.156 0.931-1.867 0.69l-5.313-1.771c-0.469-0.156-0.836-0.512-1.008-0.976zM11.485 22.988c-0.419-0.038-0.833-0.124-1.233-0.258L5.39 21.109c-1.433-0.478-2.395-1.812-2.394-3.322l5e-3-3.288 4.104 1.368c0.274 0.091 0.553 0.135 0.827 0.135 0.89 0 1.735-0.463 2.225-1.279l1.334-2.457zM20.996 17.791c0 1.507-0.965 2.84-2.399 3.317l-4.866 1.622c-0.404 0.135-0.823 0.221-1.246 0.259l6e-3-10.758 1.362 2.51c0.48 0.802 1.323 1.261 2.212 1.261 0.275 0 0.555-0.044 0.829-0.135l4.102-1.367zM22.899 12.172c-0.172 0.463-0.539 0.818-1.008 0.975l-5.313 1.771c-0.715 0.239-1.481-0.047-1.856-0.672l-1.982-3.653 7.719-2.517c0.428-0.141 0.889 0.048 1.1 0.441l1.209 2.258c0.256 0.424 0.304 0.933 0.131 1.397zM4.759 5.851c-0.193-0.196-0.191-0.514 6e-3-0.707l4.782-4.707c0.58-0.582 1.532-0.583 2.118 3e-3l1.885 1.885c0.568-0.508 1.515-0.493 2.063 0.055l2.754 2.753c0.195 0.195 0.195 0.512 0 0.707s-0.512 0.195-0.707 0l-2.754-2.753c-0.195-0.195-0.512-0.195-0.707 0L9.85 7.357C9.752 7.453 9.625 7.501 9.499 7.501c-0.13 0-0.259-0.05-0.356-0.149-0.193-0.197-0.19-0.514 6e-3-0.707l3.686-3.619-1.878-1.878c-0.195-0.195-0.512-0.195-0.707 0L5.466 5.856C5.368 5.952 5.242 6 5.115 6 4.986 6 4.856 5.95 4.759 5.851z" />
</svg>