<svg id="box_fragile_Layer_1" viewBox="0 0 24 24" fill="currentColor" width="32" height="32" data-name="Layer 1" xmlns="http://www.w3.org/2000/svg" xmlns:xlink="http://www.w3.org/1999/xlink">
    <title>box-fragile</title>
    <path d="M19.5 0h-15C2.019 0 0 2.019 0 4.5v15C0 21.981 2.019 24 4.5 24h15c2.481 0 4.5-2.019 4.5-4.5v-15C24 2.019 21.981 0 19.5 0zM23 19.5c0 1.93-1.57 3.5-3.5 3.5h-15C2.57 23 1 21.43 1 19.5v-15C1 2.57 2.57 1 4.5 1h15C21.43 1 23 2.57 23 4.5zM15 4H9C7.897 4 7 4.897 7 6v4.799c0 2.656 1.977 4.929 4.5 5.176V19h-2C9.224 19 9 19.224 9 19.5S9.224 20 9.5 20h5c0.276 0 0.5-0.224 0.5-0.5S14.776 19 14.5 19h-2v-3.024c1.059-0.103 2.048-0.54 2.856-1.273C16.4 13.755 17 12.406 17 11V6c0-1.103-0.897-2-2-2zM16 11c0 2.209-1.791 4-4 4s-4-1.791-4-4V6c0-0.552 0.448-1 1-1h2.105c0 0-1.544 2.521-1.557 2.562-0.104 0.341-0.041 0.701 0.171 0.987C9.931 8.836 10.258 9 10.615 9h2.78c0.041 0 0.072 0.019 0.091 0.055s0.018 0.072-0.013 0.119l-1.898 3.063c-0.146 0.234-0.073 0.542 0.162 0.688C11.819 12.976 11.91 13 12 13c0.167 0 0.331-0.084 0.425-0.237l1.89-3.05c0.225-0.339 0.246-0.772 0.053-1.131S13.803 8 13.395 8h-2.78c-0.048 0-0.077-0.025-0.092-0.046-0.011-0.015-0.021-0.035-0.023-0.062L12.279 5H15c0.552 0 1 0.448 1 1z" />
</svg>