<svg id="box_ballot_Layer_1" viewBox="0 0 24 24" fill="currentColor" width="32" height="32" data-name="Layer 1" xmlns="http://www.w3.org/2000/svg" xmlns:xlink="http://www.w3.org/1999/xlink">
    <title>box-ballot</title>
    <path d="M19.5 8H19V3.5C19 1.57 17.43 0 15.5 0h-7C6.57 0 5 1.57 5 3.5V8H4.5C2.019 8 0 10.019 0 12.5v7C0 21.981 2.019 24 4.5 24h15c2.481 0 4.5-2.019 4.5-4.5v-7c0-2.481-2.019-4.5-4.5-4.5zM6 3.5C6 2.122 7.122 1 8.5 1h7C16.879 1 18 2.122 18 3.5V13H6zM4.5 9H5v4.5C5 13.776 5.224 14 5.5 14h13c0.276 0 0.5-0.224 0.5-0.5V9h0.5c1.93 0 3.5 1.57 3.5 3.5V18H1v-5.5C1 10.57 2.57 9 4.5 9zM19.5 23h-15C2.57 23 1 21.43 1 19.5V19h22v0.5c0 1.93-1.57 3.5-3.5 3.5z" />
</svg>