<svg id="box_tissue_Layer_1" viewBox="0 0 24 24" fill="currentColor" width="32" height="32" data-name="Layer 1" xmlns="http://www.w3.org/2000/svg" xmlns:xlink="http://www.w3.org/1999/xlink">
    <title>box-tissue</title>
    <path d="M19.5 8h-0.099L20 1.128c0-0.535-0.378-1.097-1.01-1.111-0.52 0-1.138 0.376-1.839 1.147C16.807 1.542 16.284 1.995 15.755 2c-0.497-5e-3-1.033-0.454-1.507-0.852C13.674 0.668 12.876 0 12.022 0 11.16 0 10.326 0.668 9.751 1.148 9.277 1.545 8.741 1.995 8.254 2 7.715 1.995 7.192 1.542 6.848 1.164 6.137 0.38 5.521 0.017 5.01 0.017 4.378 0.032 4 0.593 4 1.128 4 1.143 4.599 8 4.599 8H4.5C2.019 8 0 10.019 0 12.5v7C0 21.981 2.019 24 4.5 24h15c2.481 0 4.5-2.019 4.5-4.5v-7c0-2.481-2.019-4.5-4.5-4.5zM5.033 1.017c0.023 0 0.345 0.016 1.075 0.819C6.803 2.602 7.522 2.993 8.254 3c0.854-9e-3 1.567-0.605 2.14-1.085C10.867 1.519 11.487 1 11.997 1h8e-3c0.511-0.052 1.125 0.517 1.601 0.915 0.572 0.479 1.285 1.076 2.149 1.085 0.723-7e-3 1.441-0.398 2.137-1.164 0.743-0.817 1.062-0.819 1.069-0.823 0.013 0.011 0.039 0.061 0.041 0.071l-0.907 10.389C18.024 12.329 17.305 13 16.457 13h-1.905l0.445-4.45c0.028-0.274-0.173-0.52-0.447-0.547-0.273-0.029-0.52 0.173-0.547 0.447L13.548 13h-3.082L9.999 6.465C9.978 6.189 9.714 5.984 9.465 6.001 9.189 6.021 8.982 6.26 9.001 6.535L9.463 13h-1.92c-0.848 0-1.566-0.671-1.638-1.53L5.001 1.113c4e-3-0.049 0.025-0.091 0.032-0.096zM23 19.5c0 1.93-1.57 3.5-3.5 3.5h-15C2.57 23 1 21.43 1 19.5V19h22zM23 18H1v-5.5C1 10.57 2.57 9 4.5 9h0.186l0.223 2.555C5.022 12.926 6.18 14 7.543 14h8.914c1.363 0 2.521-1.074 2.634-2.442L19.314 9H19.5c1.93 0 3.5 1.57 3.5 3.5z" />
</svg>