<svg id="box_heart_Layer_1" viewBox="0 0 24 24" fill="currentColor" width="32" height="32" data-name="Layer 1" xmlns="http://www.w3.org/2000/svg" xmlns:xlink="http://www.w3.org/1999/xlink">
    <title>box-heart</title>
    <path d="M19.5 0h-15C2.019 0 0 2.019 0 4.5v1c0 0.815 0.397 1.532 1.002 1.989C1.002 7.493 1 7.496 1 7.5v12C1 21.981 3.019 24 5.5 24h13c2.481 0 4.5-2.019 4.5-4.5v-12c0 0-2e-3-7e-3-2e-3-0.011C23.603 7.032 24 6.314 24 5.5v-1C24 2.019 21.981 0 19.5 0zM22 19.5c0 1.93-1.57 3.5-3.5 3.5h-13C3.57 23 2 21.43 2 19.5V7.949C2.162 7.982 2.329 8 2.5 8h19c0.171 0 0.338-0.018 0.5-0.051zM23 5.5C23 6.327 22.327 7 21.5 7h-19C1.673 7 1 6.327 1 5.5v-1C1 2.57 2.57 1 4.5 1h15C21.43 1 23 2.57 23 4.5zM14.135 10.9c-0.962 0-1.765 0.415-2.25 1.09-0.485-0.675-1.288-1.09-2.25-1.09-1.517 0-2.75 1.314-2.75 2.93 0 2.115 2.549 4.708 3.897 5.783 0.325 0.259 0.713 0.388 1.103 0.388s0.778-0.129 1.103-0.388c1.348-1.075 3.897-3.667 3.897-5.783 0-1.616-1.233-2.93-2.75-2.93zM12.364 18.831c-0.283 0.225-0.677 0.225-0.959 0-1.462-1.166-3.521-3.488-3.521-5 0-1.064 0.785-1.93 1.75-1.93 1.03 0 1.75 0.703 1.75 1.709 0 0.276 0.224 0.5 0.5 0.5s0.5-0.224 0.5-0.5c0-1.006 0.72-1.709 1.75-1.709 0.965 0 1.75 0.866 1.75 1.93 0 1.513-2.059 3.835-3.52 5z" />
</svg>