<svg id="box_check_Layer_1" viewBox="0 0 24 24" fill="currentColor" width="32" height="32" data-name="Layer 1" xmlns="http://www.w3.org/2000/svg" xmlns:xlink="http://www.w3.org/1999/xlink">
    <title>box-check</title>
    <path d="M19.5 0h-15C2.019 0 0 2.019 0 4.5v1c0 0.816 0.393 1.542 1 1.999v0V19.5C1 21.981 3.019 24 5.5 24h13c2.481 0 4.5-2.019 4.5-4.5v-12 0c0.607-0.458 1-1.184 1-2v-1C24 2.019 21.981 0 19.5 0zM22 19.5c0 1.93-1.57 3.5-3.5 3.5h-13C3.57 23 2 21.43 2 19.5V7.95C2.162 7.983 2.329 8 2.5 8h19c0.171 0 0.338-0.017 0.5-0.05zM23 5.5C23 6.327 22.327 7 21.5 7h-19C1.673 7 1 6.327 1 5.5v-1C1 2.57 2.57 1 4.5 1h15C21.43 1 23 2.57 23 4.5zM17.366 12.159c0.188 0.202 0.177 0.519-0.025 0.707l-4.74 4.414C12.142 17.74 11.514 18 10.846 18s-1.296-0.26-1.768-0.732l-2.431-2.413c-0.196-0.194-0.197-0.511-3e-3-0.707 0.195-0.196 0.513-0.197 0.707-2e-3l2.432 2.414c0.569 0.568 1.556 0.567 2.123 0l4.752-4.427c0.202-0.188 0.519-0.177 0.708 0.026z" />
</svg>