<svg id="box_up_Layer_1" viewBox="0 0 24 24" fill="currentColor" width="32" height="32" data-name="Layer 1" xmlns="http://www.w3.org/2000/svg" xmlns:xlink="http://www.w3.org/1999/xlink">
    <title>box-up</title>
    <path d="M11.5 8c-0.017-2e-3 0.017-2e-3 0 0zM24 4.5v15c0 2.481-2.019 4.5-4.5 4.5h-15C2.019 24 0 21.981 0 19.5v-15C0 2.019 2.019 0 4.5 0h15C21.981 0 24 2.019 24 4.5zM23 4.5C23 2.57 21.43 1 19.5 1h-15C2.57 1 1 2.57 1 4.5v15C1 21.43 2.57 23 4.5 23h15c1.93 0 3.5-1.57 3.5-3.5zM19.5 19h-10C9.224 19 9 19.224 9 19.5S9.224 20 9.5 20h10c0.276 0 0.5-0.224 0.5-0.5S19.776 19 19.5 19zM17.5 8c0.017-2e-3-0.017-2e-3 0 0zM19.24 8.721C18.774 8.255 18.113 8.013 17.5 8c-0.613 0.013-1.273 0.254-1.74 0.721l-1.26 1.26-1.26-1.26C12.774 8.255 12.113 8.013 11.5 8c-0.613 0.013-1.273 0.254-1.74 0.721l-1.614 1.614c-0.195 0.195-0.195 0.512 0 0.707s0.512 0.195 0.707 0l1.614-1.614C10.623 9.272 10.805 9.16 11 9.089V15.5c0 0.276 0.224 0.5 0.5 0.5s0.5-0.224 0.5-0.5V9.089c0.195 0.071 0.377 0.183 0.533 0.339l1.614 1.614c0.098 0.098 0.226 0.146 0.354 0.146s0.256-0.049 0.354-0.146l1.614-1.614c0.156-0.156 0.338-0.268 0.533-0.339V15.5c0 0.276 0.224 0.5 0.5 0.5s0.5-0.224 0.5-0.5V9.089c0.195 0.071 0.377 0.183 0.533 0.339l1.614 1.614c0.098 0.098 0.226 0.146 0.354 0.146s0.256-0.049 0.354-0.146c0.195-0.195 0.195-0.512 0-0.707z" />
</svg>