<svg id="boxes_Layer_1" viewBox="0 0 24 24" fill="currentColor" width="32" height="32" data-name="Layer 1" xmlns="http://www.w3.org/2000/svg" xmlns:xlink="http://www.w3.org/1999/xlink">
    <title>boxes</title>
    <path d="M20 15.5c0 0.276-0.224 0.5-0.5 0.5h-3c-0.276 0-0.5-0.224-0.5-0.5s0.224-0.5 0.5-0.5h3c0.276 0 0.5 0.224 0.5 0.5zM24 14.5v6c0 1.93-1.57 3.5-3.5 3.5h-17C1.57 24 0 22.43 0 20.5v-6C0 12.57 1.57 11 3.5 11H5V3.5C5 1.57 6.57 0 8.5 0h7C17.43 0 19 1.57 19 3.5V11h1.5c1.93 0 3.5 1.57 3.5 3.5zM6 11h12V3.5C18 2.121 16.879 1 15.5 1h-7C7.121 1 6 2.121 6 3.5zM3.5 23h8V12h-8C2.121 12 1 13.121 1 14.5v6C1 21.879 2.121 23 3.5 23zM23 14.5c0-1.379-1.121-2.5-2.5-2.5h-8v11h8c1.379 0 2.5-1.121 2.5-2.5zM7.5 15h-3C4.224 15 4 15.224 4 15.5S4.224 16 4.5 16h3C7.776 16 8 15.776 8 15.5S7.776 15 7.5 15zM14 4.5C14 4.224 13.776 4 13.5 4h-3C10.224 4 10 4.224 10 4.5S10.224 5 10.5 5h3C13.776 5 14 4.776 14 4.5z" />
</svg>