<svg id="boxing_glove_Layer_1" viewBox="0 0 24 24" fill="currentColor" width="32" height="32" data-name="Layer 1" xmlns="http://www.w3.org/2000/svg" xmlns:xlink="http://www.w3.org/1999/xlink">
    <title>boxing-glove</title>
    <path d="M20 7.036V6.5C20 2.916 17.084 0 13.5 0h-6C3.916 0 1 2.916 1 6.5v7.784c0 1.4 0.391 2.77 1.13 3.959L3 19.642v0.869c0 1.922 1.564 3.481 3.489 3.488h10.015C18.432 23.997 20 22.43 20 20.502v-0.806l0.986-1.058C22.285 17.245 23 15.429 23 13.524v-3.025c0-1.76-1.306-3.221-3-3.463zM16.503 23.003 6.49 23.012C5.117 23.007 4 21.885 4 20.512V20h15v0.503c0 1.377-1.12 2.499-2.497 2.5zM22 13.525c0 1.651-0.62 3.225-1.746 4.433L19.282 19H3.778l-0.799-1.285C2.338 16.684 2 15.498 2 14.284V9.021C2.621 9.636 3.492 10 4.5 10h9c0.276 0 0.5-0.224 0.5-0.5S13.776 9 13.5 9h-9C3.028 9 2 7.972 2 6.5 2 3.467 4.467 1 7.5 1h6C16.532 1 19 3.467 19 6.5v0.536c-1.694 0.243-3 1.704-3 3.464v3c0 0.276 0.224 0.5 0.5 0.5s0.5-0.224 0.5-0.5v-3C17 9.122 18.121 8 19.5 8S22 9.122 22 10.5z" />
</svg>