<svg id="bracket_curly_Layer_1" viewBox="0 0 24 24" fill="currentColor" width="32" height="32" data-name="Layer 1" xmlns="http://www.w3.org/2000/svg" xmlns:xlink="http://www.w3.org/1999/xlink">
    <title>bracket-curly</title>
    <path d="M14.5 24h-1C11.02 24 9 21.98 9 19.5v-2.84c0-0.93-0.36-1.81-1.02-2.47l-1.83-1.83c-0.2-0.2-0.2-0.51 0-0.71l1.83-1.83C8.64 9.16 9 8.28 9 7.35V4.51c0-2.48 2.02-4.5 4.5-4.5h1c0.28 0 0.5 0.22 0.5 0.5s-0.22 0.5-0.5 0.5h-1c-1.93 0-3.5 1.57-3.5 3.5v2.84c0 1.2-0.47 2.33-1.32 3.18L7.2 12.01l1.48 1.48C9.53 14.34 10 15.47 10 16.67v2.84c0 1.93 1.57 3.5 3.5 3.5h1c0.28 0 0.5 0.22 0.5 0.5s-0.22 0.5-0.5 0.49z" />
</svg>