<svg id="brackets_square_Layer_1" viewBox="0 0 24 24" fill="currentColor" width="32" height="32" data-name="Layer 1" xmlns="http://www.w3.org/2000/svg" xmlns:xlink="http://www.w3.org/1999/xlink">
    <title>brackets-square</title>
    <path d="M1 4.5v15C1 21.43 2.57 23 4.5 23h2C6.78 23 7 23.22 7 23.5S6.78 24 6.5 24h-2C2.02 24 0 21.98 0 19.5v-15C0 2.02 2.02 0 4.5 0h2C6.78 0 7 0.22 7 0.5S6.78 1 6.5 1h-2C2.57 1 1 2.57 1 4.5zM19.5 0h-2C17.22 0 17 0.22 17 0.5S17.22 1 17.5 1h2C21.43 1 23 2.57 23 4.5v15c0 1.93-1.57 3.5-3.5 3.5h-2c-0.28 0-0.5 0.22-0.5 0.5s0.22 0.5 0.5 0.5h2c2.48 0 4.5-2.02 4.5-4.5v-15C24 2.02 21.98 0 19.5 0z" />
</svg>