<svg id="brackets_round_Layer_1" viewBox="0 0 24 24" fill="currentColor" width="32" height="32" data-name="Layer 1" xmlns="http://www.w3.org/2000/svg" xmlns:xlink="http://www.w3.org/1999/xlink">
    <title>brackets-round</title>
    <path d="M1 12c0 6.98 4.77 11.08 4.82 11.12 0.21 0.18 0.24 0.49 0.06 0.7C5.78 23.94 5.64 24 5.5 24c-0.11 0-0.23-0.04-0.32-0.12C4.97 23.7 0 19.46 0 12S4.97 0.29 5.18 0.12c0.21-0.18 0.53-0.15 0.7 0.06 0.18 0.21 0.15 0.53-0.06 0.7C5.77 0.92 1 5.01 1 12zM18.82 0.12c-0.21-0.18-0.53-0.15-0.7 0.06-0.18 0.21-0.15 0.53 0.06 0.7C18.23 0.92 23 5.01 23 12s-4.77 11.08-4.82 11.12c-0.21 0.18-0.24 0.49-0.06 0.7 0.1 0.12 0.24 0.18 0.38 0.18 0.11 0 0.23-0.04 0.32-0.12C19.03 23.7 24 19.46 24 12S19.03 0.29 18.82 0.12z" />
</svg>