<svg id="brackets_curly_Layer_1" viewBox="0 0 24 24" fill="currentColor" width="32" height="32" data-name="Layer 1" xmlns="http://www.w3.org/2000/svg" xmlns:xlink="http://www.w3.org/1999/xlink">
    <title>brackets-curly</title>
    <path d="M23 12c0 0.13-0.05 0.26-0.15 0.35l-1.83 1.83C20.36 14.84 20 15.72 20 16.66v2.84c0 2.48-2.02 4.5-4.5 4.5h-1c-0.28 0-0.5-0.22-0.5-0.5s0.22-0.5 0.5-0.5h1c1.93 0 3.5-1.57 3.5-3.5v-2.84c0-1.2 0.47-2.33 1.32-3.18l1.48-1.47-1.48-1.47C19.47 9.69 19 8.56 19 7.36V4.52c0-1.93-1.57-3.5-3.5-3.5h-1c-0.28 0-0.5-0.22-0.5-0.5s0.22-0.5 0.5-0.5h1c2.48 0 4.5 2.02 4.5 4.5v2.84c0 0.94 0.36 1.81 1.02 2.48l1.83 1.83C22.94 11.76 23 11.89 23 12zM5 7.34V4.5C5 2.57 6.57 1 8.5 1h1C9.78 1 10 0.78 10 0.5S9.78 0 9.5 0h-1C6.02 0 4 2.02 4 4.5v2.84c0 0.94-0.36 1.81-1.02 2.48l-1.83 1.83C1.06 11.74 1 11.87 1 12s0.05 0.26 0.15 0.35l1.83 1.83C3.64 14.84 4 15.72 4 16.66v2.84C4 21.98 6.02 24 8.5 24h1c0.28 0 0.5-0.22 0.5-0.5S9.78 23 9.5 23h-1C6.57 23 5 21.43 5 19.5v-2.84c0-1.2-0.47-2.33-1.32-3.18L2.2 12.01l1.48-1.47C4.53 9.69 5 8.56 5 7.34z" />
</svg>