<svg id="brain_doubt_Layer_1" viewBox="0 0 24 24" fill="currentColor" width="32" height="32" data-name="Layer 1" xmlns="http://www.w3.org/2000/svg" xmlns:xlink="http://www.w3.org/1999/xlink">
    <title>brain-doubt</title>
    <path d="M18.482 9.239v0c0.216-0.509 0.802-0.746 1.311-0.531v0c0.509 0.216 0.746 0.803 0.531 1.311v0c-0.216 0.509-0.802 0.746-1.311 0.531v0c-0.509-0.216-0.746-0.803-0.531-1.311zM4.276 8.682v0C3.768 8.898 3.53 9.484 3.746 9.993v0c0.216 0.509 0.802 0.746 1.311 0.531v0c0.509-0.216 0.746-0.803 0.531-1.311v0C5.372 8.704 4.785 8.467 4.276 8.682zM10.995 8.009c0 0.552 0.448 1 1 1s1-0.448 1-1-0.448-1-1-1-1 0.448-1 1zM9.995 3.027c0.276 0 0.5-0.224 0.5-0.5 0-0.471 0.224-0.925 0.6-1.214 0.376-0.29 0.843-0.382 1.314-0.26 0.519 0.136 0.941 0.585 1.052 1.118 0.141 0.674-0.168 1.34-0.768 1.656-0.558 0.294-1.198 0.75-1.198 1.673 0 0.276 0.224 0.5 0.5 0.5s0.5-0.224 0.5-0.5c0-0.285 0.106-0.495 0.664-0.789 0.999-0.526 1.513-1.628 1.281-2.745-0.189-0.909-0.887-1.647-1.777-1.881-0.767-0.198-1.56-0.042-2.179 0.435-0.619 0.478-0.989 1.228-0.989 2.006 0 0.276 0.224 0.5 0.5 0.501zM3.717 3.639C4.106 4.207 4.078 4.94 3.646 5.463 3.245 5.949 2.83 6.616 3.186 7.468 3.292 7.725 3.592 7.843 3.84 7.737 4.095 7.631 4.215 7.338 4.109 7.083 3.999 6.82 4.016 6.585 4.418 6.099 5.136 5.228 5.186 4.013 4.542 3.074 4.018 2.307 3.089 1.893 2.177 2.022 1.393 2.132 0.721 2.584 0.334 3.263c-0.387 0.68-0.439 1.514-0.139 2.233 0.107 0.256 0.401 0.375 0.654 0.269 0.254-0.106 0.375-0.399 0.269-0.654-0.181-0.434-0.149-0.939 0.085-1.352 0.235-0.413 0.631-0.678 1.113-0.746 0.531-0.076 1.093 0.178 1.401 0.626zM23.03 2.515c-0.631-0.477-1.427-0.631-2.18-0.426-0.754 0.207-1.382 0.76-1.677 1.48-0.105 0.255 0.017 0.547 0.272 0.652 0.255 0.106 0.547-0.017 0.652-0.272 0.179-0.436 0.559-0.771 1.017-0.896s0.925-0.034 1.313 0.26c0.428 0.322 0.648 0.898 0.548 1.433-0.126 0.677-0.665 1.176-1.339 1.24-0.627 0.06-1.393 0.237-1.744 1.092-0.105 0.255 0.017 0.547 0.272 0.652 0.249 0.104 0.548-0.014 0.652-0.272 0.108-0.263 0.286-0.417 0.914-0.477 1.123-0.107 2.018-0.932 2.228-2.052 0.17-0.913-0.194-1.861-0.928-2.414zM20.966 17.757c-0.244 1.849-1.901 3.242-3.855 3.242h-6.122L11 23.497c0 0.276-0.222 0.501-0.498 0.502H10.5c-0.275 0-0.499-0.223-0.5-0.498l-8e-3-1.86c-0.055 0.062-0.105 0.127-0.164 0.186-0.756 0.756-1.76 1.172-2.829 1.172-1.681 0-3.18-1.013-3.731-2.519-0.653-1.786-0.073-3.697 1.445-4.756 0.194-0.147 0.286-0.038 0.286-0.468 4e-3-1.136 0.574-2.185 1.486-2.739 0.578-0.351 1.203-0.511 1.799-0.519h7e-3c0.155 0 0.285-0.059 0.348-0.157 0.74-1.154 1.996-1.843 3.36-1.843 1.084 0 2.099 0.428 2.858 1.206 0.131 0.134 0.349 0.294 0.642 0.294 1.274 0 2.41 0.811 2.828 2.018 0.034 0.098 0.109 0.179 0.195 0.21 1.672 0.603 2.677 2.26 2.444 4.031zM18.183 14.667c-0.369-0.134-0.667-0.441-0.8-0.823-0.278-0.805-1.035-1.345-1.883-1.345-0.674 0-1.14-0.373-1.357-0.595-0.57-0.583-1.331-0.905-2.143-0.905-1.022 0-1.963 0.517-2.519 1.383-0.251 0.392-0.705 0.621-1.208 0.617H8.25c-0.418 0-0.837 0.125-1.245 0.373C6.388 13.747 6.003 14.471 6 15.261c-3e-3 0.808-0.34 1.091-0.67 1.261-1.202 0.831-1.625 2.24-1.122 3.615 0.407 1.114 1.529 1.862 2.792 1.862 0.801 0 1.555-0.312 2.122-0.879C9.688 20.554 10 19.801 10 18.999s-0.312-1.555-0.878-2.121c-0.195-0.195-0.195-0.512 0-0.707s0.512-0.195 0.707 0C10.584 16.926 11 17.931 11 18.999c0 0.342-0.042 0.678-0.125 1h6.236c1.454 0 2.685-1.021 2.864-2.373 0.171-1.3-0.565-2.517-1.792-2.959zM15.5 16.999c-0.827 0-1.5-0.673-1.5-1.5 0-0.276-0.224-0.5-0.5-0.5s-0.5 0.224-0.5 0.5c0 1.379 1.122 2.5 2.5 2.5 0.276 0 0.5-0.224 0.5-0.5s-0.224-0.5-0.5-0.5z" />
</svg>