<svg id="brain_stress_Layer_1" viewBox="0 0 24 24" fill="currentColor" width="32" height="32" data-name="Layer 1" xmlns="http://www.w3.org/2000/svg" xmlns:xlink="http://www.w3.org/1999/xlink">
    <title>brain-stress</title>
    <path d="M17 15.5c0 0.276-0.224 0.5-0.5 0.5-1.378 0-2.5-1.121-2.5-2.5 0-0.276 0.224-0.5 0.5-0.5s0.5 0.224 0.5 0.5c0 0.827 0.673 1.5 1.5 1.5 0.276 0 0.5 0.224 0.5 0.5zM23 16.25c0 2.619-2.131 4.75-4.75 4.75H12v2.5c0 0.276-0.224 0.5-0.5 0.5S11 23.776 11 23.5V21h-1v2.5c0 0.276-0.224 0.5-0.5 0.5S9 23.776 9 23.5v-1.523C5.912 24.508 0.874 22.018 1 18c0-1.591 0.759-3.073 2.042-4.015 0.245-2.632 2.312-4.698 4.943-4.942C8.926 7.759 10.409 7 11.999 7c1.83 0 3.528 1.03 4.395 2.645 1.13 0.282 2.125 0.983 2.785 1.964 2.228 0.439 3.82 2.356 3.821 4.641zM22 16.25c0-1.863-1.344-3.416-3.197-3.692-0.147-0.021-0.277-0.108-0.354-0.235-0.552-0.914-1.459-1.552-2.488-1.75-0.156-0.03-0.289-0.133-0.357-0.277C14.932 8.881 13.551 8.001 12 8.001c-1.337 0-2.58 0.673-3.323 1.8-0.088 0.133-0.234 0.217-0.394 0.224-2.316 0.112-4.147 1.943-4.259 4.26-8e-3 0.159-0.091 0.305-0.224 0.393C2.673 15.423 2 16.665 2 18.002c0 2.206 1.794 4 4 4 3.082 0.075 5.137-3.703 3.326-6.223-0.154-0.229-0.092-0.54 0.138-0.693 0.23-0.154 0.54-0.092 0.693 0.139 0.742 1.11 1.007 2.443 0.747 3.753-0.071 0.358-0.186 0.698-0.328 1.024h7.674c2.068 0 3.75-1.683 3.75-3.752zM2.655 2.484C2.433 2.036 2.521 1.499 2.873 1.147l0.839-0.839c0.479-0.511 1.404-0.355 1.69 0.285l0.545 1.264 0.703-0.703c0.536-0.571 1.578-0.257 1.709 0.515l0.629 4.234C9.084 6.461 8.606 7.014 8.042 7 7.681 7 7.344 6.794 7.184 6.469L6.521 5.123 5.847 5.834c-0.469 0.497-1.329 0.369-1.633-0.23zM3.551 2.039 5.103 5.143 6.291 3.914c0.113-0.119 0.278-0.175 0.438-0.15 0.162 0.024 0.301 0.127 0.374 0.273l0.979 1.988-0.702-4.16c0 0 0-3e-3 0-3e-3L6.136 3.085C5.903 3.333 5.449 3.248 5.324 2.93L4.496 1.01 3.582 1.855C3.534 1.904 3.521 1.978 3.551 2.039zM15.217 6.655c-0.173-0.208-0.25-0.481-0.212-0.75l0.625-4.21c0.109-0.787 1.174-1.12 1.713-0.541l0.703 0.703 0.537-1.244c0.297-0.662 1.204-0.82 1.699-0.305l0.839 0.839c0.353 0.353 0.44 0.889 0.219 1.336L19.786 5.59c-0.304 0.61-1.161 0.738-1.63 0.254l-0.684-0.722-0.662 1.344C16.649 6.793 16.312 7 15.951 6.999c-0.283 0-0.551-0.125-0.734-0.344zM15.995 6.05l0.898-2.013c0.14-0.307 0.59-0.374 0.812-0.123l1.168 1.232 1.573-3.109c0.03-0.061 0.018-0.134-0.031-0.183l-0.839-0.839-0.902 1.914c-0.126 0.319-0.579 0.404-0.812 0.155l-1.243-1.227z" />
</svg>