<svg id="brain_lightning_Layer_1" viewBox="0 0 24 24" fill="currentColor" width="32" height="32" data-name="Layer 1" xmlns="http://www.w3.org/2000/svg" xmlns:xlink="http://www.w3.org/1999/xlink">
    <title>brain-lightning</title>
    <path d="M24 10.959c0-1.428-0.673-2.599-2-3.483V6.999c0-1.922-1.742-3.265-3.522-3.472C18.303 1.705 17.117-1e-3 15-1e-3c-1.309 0-2.357 0.499-3 1.399-0.643-0.9-1.691-1.399-3-1.399-2.119 0-3.341 1.741-3.524 3.528C3.719 3.736 2 5.078 2 6.999v0.477C0.673 8.36 0 9.531 0 10.959c0 0.985 0.313 1.926 0.949 2.778-0.581 0.753-0.896 1.668-0.896 2.623 0 1.703 1.031 3.26 2.589 3.943 1.039 2.419 2.832 3.696 5.196 3.696 1.505 0 3.305-0.884 4.162-2.285 0.856 1.399 2.657 2.285 4.162 2.285 2.364 0 4.157-1.277 5.196-3.696 1.558-0.683 2.589-2.241 2.589-3.943 0-0.953-0.314-1.866-0.893-2.618 0.619-0.821 0.945-1.78 0.946-2.783zM22.021 14.071c0.598 0.623 0.927 1.436 0.927 2.289 0 1.384-0.843 2.598-2.147 3.091-0.131 0.05-0.235 0.151-0.287 0.281-0.873 2.167-2.337 3.267-4.351 3.267-1.427 0-3.258-1.033-3.605-2.514-0.061-0.264-0.29-0.448-0.557-0.448-0.232 0-0.503 0.22-0.556 0.446-0.349 1.482-2.18 2.516-3.606 2.516-2.014 0-3.478-1.099-4.351-3.267-0.052-0.13-0.156-0.231-0.287-0.281-1.305-0.494-2.147-1.707-2.147-3.091 0-0.853 0.329-1.666 0.927-2.289 0.201-0.242 0.11-0.657-0.153-0.825-0.54-0.669-0.826-1.46-0.826-2.287 0-1.154 0.575-2.064 1.759-2.781C2.91 8.087 3.002 7.925 3.002 7.75V6.999c0-1.473 1.556-2.5 2.951-2.5 0.276 0 0.5-0.224 0.5-0.5 0-1.491 0.876-3 2.549-3 0.9 0 2.068 0.288 2.525 1.658 0.137 0.408 0.812 0.408 0.949 0 0.457-1.371 1.625-1.658 2.525-1.658 1.718 0 2.5 1.555 2.5 3 0 0.276 0.224 0.5 0.5 0.5 1.419 0 3 1.027 3 2.5V7.75c0 0.175 0.092 0.337 0.241 0.428 1.184 0.717 1.759 1.626 1.759 2.781 0 0.827-0.286 1.618-0.777 2.235-0.289 0.191-0.488 0.591-0.203 0.877zM15.594 8.999h-2.388l0.693-1.974c0.393-0.943-0.381-2.055-1.4-2.026h-1.895c-0.642 0-1.212 0.401-1.417 0.998l-2.126 6.155c-0.294 0.877 0.435 1.873 1.361 1.847h2.383l-0.749 2.247c-0.466 1.44 1.624 2.436 2.45 1.153l4.258-6.231c0.629-0.887-0.085-2.205-1.17-2.169zM15.935 10.61l-4.252 6.224c-0.313 0.339-0.715 0.148-0.671-0.292l0.963-2.884c0.113-0.31-0.144-0.667-0.475-0.658H8.423c-0.265 0.014-0.489-0.3-0.41-0.539l2.12-6.137C10.2 6.127 10.386 6 10.605 6H12.5c0.346-7e-3 0.601 0.351 0.462 0.681l-0.933 2.653c-0.12 0.313 0.137 0.675 0.472 0.666h3.094c0.38 0.064 0.491 0.265 0.34 0.61z" />
</svg>