<svg id="brain_circuit_Layer_1" viewBox="0 0 24 24" fill="currentColor" width="32" height="32" data-name="Layer 1" xmlns="http://www.w3.org/2000/svg" xmlns:xlink="http://www.w3.org/1999/xlink">
    <title>brain-circuit</title>
    <path d="M24 10.98c0-1.562-0.799-3.022-2.105-3.887 9e-3-0.097 0.015-0.195 0.015-0.294 0-1.953-1.275-3.515-2.995-3.744-0.341-1.73-1.874-3.029-3.665-3.029-1.387 0-2.601 0.758-3.25 1.881-0.649-1.124-1.863-1.881-3.25-1.881-1.79 0-3.322 1.298-3.663 3.026-1.71 0.219-2.996 1.786-2.996 3.746 0 0.1 6e-3 0.198 0.015 0.294C0.799 7.957 1e-3 9.417 1e-3 10.979c0 0.936 0.281 1.832 0.818 2.614-0.537 0.782-0.818 1.678-0.818 2.614 0 1.642 0.871 3.155 2.288 4.002 0.622 2.258 2.65 3.816 5.008 3.816 2.074 0 3.869-1.22 4.704-2.98 0.836 1.76 2.63 2.98 4.704 2.98 2.357 0 4.386-1.558 5.008-3.816 1.417-0.847 2.288-2.36 2.288-4.002 0-0.936-0.281-1.832-0.818-2.614 0.537-0.782 0.818-1.678 0.817-2.613zM7.296 23.026c-1.964 0-3.646-1.34-4.088-3.258-0.032-0.141-0.124-0.26-0.251-0.329C1.75 18.793 1 17.554 1 16.208c0-0.832 0.287-1.627 0.83-2.299 0.148-0.184 0.148-0.445 0-0.629C1.287 12.608 1 11.813 1 10.981 1 9.665 1.725 8.44 2.892 7.785 3.078 7.681 3.177 7.47 3.139 7.261 3.112 7.111 3.091 6.958 3.091 6.8c0-1.363 0.901-2.772 2.435-2.772 0.261 0 0.479-0.201 0.498-0.461 0.11-1.423 1.309-2.539 2.727-2.539 1.517 0 2.75 1.233 2.75 2.75v4.724H8.938c-0.223-0.862-1.007-1.5-1.937-1.5-1.103 0-2 0.897-2 2s0.897 2 2 2c0.93 0 1.714-0.638 1.937-1.5h2.563v6H8.938c-0.223-0.862-1.007-1.5-1.937-1.5-1.103 0-2 0.897-2 2s0.897 2 2 2c0.93 0 1.714-0.638 1.937-1.5h2.563v2.321c0 2.318-1.886 4.205-4.205 4.203zM8 9c0 0.551-0.448 1-1 1S6 9.551 6 9 6.448 8 7 8 8 8.449 8 9zM8 16c0 0.551-0.448 1-1 1s-1-0.449-1-1 0.448-1 1-1 1 0.449 1 1zM22.17 13.908C22.713 14.58 23 15.375 23 16.207c0 1.347-0.75 2.585-1.957 3.231-0.127 0.068-0.219 0.188-0.251 0.329-0.442 1.918-2.124 3.258-4.088 3.258-2.318 0-4.204-1.886-4.204-4.205v-4.821H15c1.379 0 2.5-1.122 2.5-2.5v-0.563C18.362 10.713 19 9.93 19 8.999c0-1.103-0.897-2-2-2s-2 0.897-2 2c0 0.93 0.638 1.714 1.5 1.937v0.563c0 0.827-0.673 1.5-1.5 1.5h-2.5V3.776c0-1.517 1.233-2.75 2.75-2.75 1.418 0 2.616 1.115 2.727 2.539 0.02 0.26 0.263 0.461 0.523 0.461 1.508 0 2.409 1.41 2.409 2.772 0 0.158-0.021 0.311-0.048 0.461-0.038 0.209 0.062 0.42 0.247 0.524C22.275 8.438 23 9.663 23 10.979c0 0.832-0.287 1.627-0.83 2.299-0.148 0.184-0.148 0.445 0 0.63zM17 10c-0.552 0-1-0.449-1-1s0.448-1 1-1 1 0.449 1 1-0.448 1-1 1z" />
</svg>