<svg id="brain_bulb_Layer_1" viewBox="0 0 24 24" fill="currentColor" width="32" height="32" data-name="Layer 1" xmlns="http://www.w3.org/2000/svg" xmlns:xlink="http://www.w3.org/1999/xlink">
    <title>brain-bulb</title>
    <path d="M23.108 13.743C23.686 14.495 24 15.408 24 16.36c0 1.703-1.031 3.262-2.589 3.944-0.936 2.146-2.699 3.48-4.867 3.672-0.271 0.025-0.518-0.178-0.542-0.454-0.024-0.275 0.179-0.518 0.454-0.542 1.846-0.163 3.344-1.347 4.11-3.247 0.053-0.13 0.156-0.231 0.287-0.281 1.304-0.493 2.146-1.707 2.146-3.092 0-0.853-0.329-1.666-0.927-2.289-0.192-0.192-0.182-0.533 0.022-0.713 0.644-0.595 0.943-1.504 0.958-2.399 0-1.213-0.63-2.156-1.926-2.884-0.157-0.088-0.255-0.255-0.255-0.436V6.548c0-1.528-1.437-2.225-2.771-2.225-0.276 0-0.5-0.224-0.5-0.5 0-1.52-1.169-2.812-2.553-2.824-1.169 0.039-2.454 0.659-2.55 2V7.5c0 0.276-0.224 0.5-0.5 0.5s-0.5-0.224-0.5-0.5V3c0-1.179-1.289-2-2.446-2-1.382 0-2.549 1.293-2.549 2.824 0 0.276-0.224 0.5-0.5 0.5-1.334 0-2.771 0.696-2.771 2.225V7.64c0 0.181-0.098 0.348-0.255 0.436-1.295 0.729-1.925 1.671-1.925 2.884 0.012 0.861 0.303 1.774 0.957 2.397 0.205 0.18 0.216 0.523 0.023 0.715-0.598 0.624-0.927 1.437-0.927 2.289 0 1.385 0.843 2.599 2.147 3.092 0.131 0.05 0.235 0.151 0.287 0.281 0.451 1.12 1.57 3.03 4.003 3.247 0.275 0.024 0.478 0.268 0.454 0.542-0.023 0.277-0.271 0.479-0.542 0.454-2.133-0.189-3.816-1.491-4.76-3.673-1.557-0.683-2.589-2.24-2.589-3.943 0-0.954 0.315-1.869 0.896-2.622-0.632-0.85-0.946-1.793-0.946-2.78 0-1.498 0.733-2.71 2.18-3.604V6.549c0-1.731 1.361-3.022 3.299-3.203C5.76 1.49 7.28 0 9.054 0c1.133 0 2.306 0.567 2.949 1.489 0.665-0.947 1.931-1.454 3.055-1.489 1.771 0.015 3.288 1.503 3.516 3.346 1.938 0.18 3.3 1.472 3.3 3.203v0.806c1.447 0.895 2.181 2.105 2.181 3.604 0 1.005-0.326 1.964-0.947 2.784zM17.5 15.5c0 1.964-1.069 3.788-2.792 4.763C14.271 20.509 14 21.013 14 21.577V22.3c0 0.938-0.763 1.7-1.7 1.7h-0.6c-0.969 0-1.7-0.774-1.7-1.802v-0.601c0-0.575-0.276-1.09-0.721-1.343-2.074-1.179-3.125-3.465-2.678-5.823 0.403-2.13 2.093-3.859 4.205-4.306 1.664-0.351 3.359 0.05 4.655 1.1 1.295 1.051 2.038 2.608 2.039 4.275zM13 21.577c0-0.198 0.031-0.39 0.073-0.577h-2.148C10.969 21.194 11 21.392 11 21.598v0.601c0 0.465 0.294 0.802 0.7 0.802h0.6c0.386 0 0.7-0.314 0.7-0.7zM16.5 15.5c0.051-2.424-2.09-4.552-4.511-4.498-2.1-0.037-4.028 1.539-4.405 3.615-0.366 1.933 0.493 3.805 2.19 4.769 0.272 0.155 0.49 0.377 0.679 0.624 0.016-2e-3 0.03-9e-3 0.047-9e-3h1V16.43c-0.86-0.224-1.5-1-1.5-1.929 0-0.276 0.224-0.5 0.5-0.5s0.5 0.224 0.5 0.5c0 0.552 0.449 1 1 1s1-0.448 1-1c0-0.276 0.224-0.5 0.5-0.5s0.5 0.224 0.5 0.5c0 0.929-0.64 1.705-1.5 1.929v3.571h1c0.014 0 0.027 7e-3 0.041 8e-3 0.188-0.245 0.405-0.464 0.675-0.617 1.409-0.797 2.284-2.288 2.284-3.892z" />
</svg>