<svg id="braille_n_Layer_1" viewBox="0 0 24 24" fill="currentColor" width="32" height="32" data-name="Layer 1" xmlns="http://www.w3.org/2000/svg" xmlns:xlink="http://www.w3.org/1999/xlink">
    <title>braille-n</title>
    <path d="M7.5 8C5.57 8 4 9.57 4 11.5S5.57 15 7.5 15 11 13.43 11 11.5 9.43 8 7.5 8zM7.5 14C6.122 14 5 12.878 5 11.5S6.122 9 7.5 9 10 10.122 10 11.5 8.878 14 7.5 14zM16.5 16c-1.93 0-3.5 1.57-3.5 3.5s1.57 3.5 3.5 3.5 3.5-1.57 3.5-3.5-1.57-3.5-3.5-3.5zM16.5 22c-1.379 0-2.5-1.122-2.5-2.5s1.121-2.5 2.5-2.5 2.5 1.122 2.5 2.5-1.121 2.5-2.5 2.5zM7.5 0C5.57 0 4 1.57 4 3.5S5.57 7 7.5 7 11 5.43 11 3.5 9.43 0 7.5 0zM7.5 1c0.094 0 0.186 6e-3 0.277 0.016L5.016 3.777C5.006 3.686 5 3.594 5 3.5 5 2.122 6.122 1 7.5 1zM5.382 4.825 8.826 1.381c0.32 0.201 0.592 0.473 0.793 0.793L6.175 5.618c-0.32-0.201-0.592-0.473-0.793-0.793zM7.5 6c-0.094 0-0.186-6e-3-0.277-0.016l2.761-2.761C9.994 3.314 10 3.406 10 3.5 10 4.878 8.878 6 7.5 6zM16.5 8C14.57 8 13 9.57 13 11.5s1.57 3.5 3.5 3.5 3.5-1.57 3.5-3.5S18.43 8 16.5 8zM16.5 9c0.094 0 0.186 6e-3 0.277 0.016l-2.761 2.761C14.006 11.686 14 11.594 14 11.5 14 10.122 15.121 9 16.5 9zM14.382 12.825l3.444-3.444c0.32 0.201 0.592 0.473 0.793 0.793l-3.444 3.444c-0.32-0.201-0.592-0.473-0.793-0.793zM16.5 14c-0.094 0-0.186-6e-3-0.277-0.016l2.761-2.761C18.994 11.314 19 11.406 19 11.5c0 1.378-1.121 2.5-2.5 2.5zM16.5 7C18.43 7 20 5.43 20 3.5S18.43 0 16.5 0 13 1.57 13 3.5 14.57 7 16.5 7zM16.5 6c-0.094 0-0.186-6e-3-0.277-0.016l2.761-2.761C18.994 3.314 19 3.406 19 3.5 19 4.878 17.879 6 16.5 6zM18.618 2.175 15.174 5.619c-0.32-0.201-0.592-0.473-0.793-0.793l3.444-3.444c0.32 0.201 0.592 0.473 0.793 0.793zM16.5 1c0.094 0 0.186 6e-3 0.277 0.016l-2.761 2.761C14.006 3.686 14 3.594 14 3.5 14 2.122 15.121 1 16.5 1zM7.5 16C5.57 16 4 17.57 4 19.5S5.57 23 7.5 23 11 21.43 11 19.5 9.43 16 7.5 16zM7.5 17c0.094 0 0.186 6e-3 0.277 0.016l-2.761 2.761C5.006 19.686 5 19.594 5 19.5 5 18.122 6.122 17 7.5 17zM5.382 20.825l3.444-3.444c0.32 0.201 0.592 0.473 0.793 0.793l-3.444 3.444c-0.32-0.201-0.592-0.473-0.793-0.793zM7.5 22c-0.094 0-0.186-6e-3-0.277-0.016l2.761-2.761C9.994 19.314 10 19.406 10 19.5 10 20.878 8.878 22 7.5 22z" />
</svg>