<svg id="branding_Layer_1" viewBox="0 0 24 24" fill="currentColor" width="32" height="32" data-name="Layer 1" xmlns="http://www.w3.org/2000/svg" xmlns:xlink="http://www.w3.org/1999/xlink">
    <title>branding</title>
    <path d="M22.682 4.227 19.798 1.343c-0.838-0.838-1.997-1.318-3.182-1.318H11.5C9.019 0.024 7 2.043 7 4.524V12.5C7 12.776 7.224 13 7.5 13S8 12.776 8 12.5V4.524c0-1.93 1.57-3.5 3.5-3.5h5.116c0.129 0 0.256 0.024 0.384 0.039V4.5C17 5.879 18.121 7 19.5 7h3.459C22.975 7.136 23 7.271 23 7.408V16.5c0 0.854-0.311 1.675-0.875 2.314-0.183 0.207-0.163 0.523 0.044 0.706 0.096 0.084 0.213 0.125 0.331 0.125 0.139 0 0.276-0.058 0.375-0.169 0.726-0.822 1.125-1.88 1.125-2.977V7.408c0-1.185-0.48-2.344-1.318-3.181zM19.5 6C18.673 6 18 5.327 18 4.5V1.317c0.404 0.174 0.777 0.419 1.091 0.733l2.884 2.884c0.307 0.307 0.546 0.672 0.72 1.066zM2.5 0C1.121 0 0 1.121 0 2.5v9.758c0 0.921 0.374 1.823 1.025 2.475l1.121 1.121C2.244 15.952 2.372 16 2.5 16s0.256-0.049 0.354-0.146l1.121-1.121C4.626 14.082 5 13.179 5 12.258V2.5C5 1.121 3.879 0 2.5 0zM4 12.258c0 0.658-0.267 1.302-0.732 1.768L2.5 14.794 1.732 14.026C1.266 13.56 1 12.917 1 12.258V2.5C1 1.673 1.673 1 2.5 1S4 1.673 4 2.5zM16.5 14h-6C8.57 14 7 15.57 7 17.5v3c0 1.93 1.57 3.5 3.5 3.5h6c1.93 0 3.5-1.57 3.5-3.5v-3c0-1.93-1.57-3.5-3.5-3.5zM10.5 15h6c0.759 0 1.432 0.347 1.891 0.883l-3.571 3.57c-0.705 0.705-1.934 0.705-2.639 0l-3.571-3.57C9.069 15.347 9.741 15 10.5 15zM19 20.5c0 1.379-1.121 2.5-2.5 2.5h-6C9.121 23 8 21.879 8 20.5v-3c0-0.245 0.046-0.477 0.112-0.7l3.362 3.361c0.542 0.542 1.261 0.84 2.026 0.84s1.484-0.298 2.026-0.84l3.361-3.361c0.066 0.224 0.112 0.456 0.112 0.7z" />
</svg>