<svg id="branching_Layer_1" viewBox="0 0 24 24" fill="currentColor" width="32" height="32" data-name="Layer 1" xmlns="http://www.w3.org/2000/svg" xmlns:xlink="http://www.w3.org/1999/xlink">
    <title>branching</title>
    <path d="M17.051 12.5c0.245 1.692 1.691 3 3.449 3 1.93 0 3.5-1.57 3.5-3.5s-1.57-3.5-3.5-3.5c-1.758 0-3.204 1.308-3.449 3H12v-5C12 5.122 13.121 4 14.5 4h2.551c0.245 1.692 1.691 3 3.449 3 1.93 0 3.5-1.57 3.5-3.5S22.43 0 20.5 0c-1.758 0-3.204 1.308-3.449 3H14.5C12.57 3 11 4.57 11 6.5v5H6.949c-0.245-1.692-1.691-3-3.449-3C1.57 8.5 0 10.07 0 12s1.57 3.5 3.5 3.5c1.758 0 3.204-1.308 3.449-3H11v5c0 1.93 1.57 3.5 3.5 3.5h2.551c0.245 1.692 1.691 3 3.449 3 1.93 0 3.5-1.57 3.5-3.5S22.43 17 20.5 17c-1.758 0-3.204 1.308-3.449 3H14.5c-1.379 0-2.5-1.121-2.5-2.5v-5zM20.5 9.5c1.379 0 2.5 1.122 2.5 2.5s-1.121 2.5-2.5 2.5S18 13.379 18 12s1.121-2.5 2.5-2.5zM20.5 1C21.879 1 23 2.122 23 3.5S21.879 6 20.5 6 18 4.878 18 3.5 19.121 1 20.5 1zM3.5 14.5C2.121 14.5 1 13.379 1 12s1.121-2.5 2.5-2.5S6 10.622 6 12s-1.121 2.5-2.5 2.5zM20.5 18c1.379 0 2.5 1.121 2.5 2.5S21.879 23 20.5 23 18 21.879 18 20.5 19.121 18 20.5 18z" />
</svg>