<svg id="brand_Layer_1" viewBox="0 0 24 24" fill="currentColor" width="32" height="32" data-name="Layer 1" xmlns="http://www.w3.org/2000/svg" xmlns:xlink="http://www.w3.org/1999/xlink">
    <title>brand</title>
    <path d="M22.671 12.925 13.592 3.932c-0.762-0.755-1.856-1.119-2.913-0.984L4.314 3.607 0.854 0.146c-0.196-0.195-0.512-0.195-0.708 0s-0.195 0.512 0 0.708l3.458 3.458-0.724 6.645c-0.084 1.03 0.291 2.039 1.027 2.768l9.065 8.969c0.85 0.843 1.975 1.307 3.171 1.307h0.018c1.202-5e-3 2.331-0.478 3.178-1.33l3.355-3.383c1.745-1.761 1.735-4.614-0.023-6.363zM21.984 18.582l-3.355 3.383c-0.658 0.664-1.535 1.031-2.471 1.035h-0.014c-0.931 0-1.806-0.36-2.467-1.017l-9.066-8.969c-0.526-0.521-0.794-1.24-0.735-1.963l0.636-5.832 1.772 1.772C6.108 7.288 6 7.631 6 8c0 1.103 0.897 2 2 2s2-0.897 2-2-0.897-2-2-2C7.63 6 7.288 6.108 6.991 6.284L5.225 4.518l5.564-0.576c0 0 9e-3 0 0.014 0 0.761-0.104 1.541 0.161 2.087 0.702l9.078 8.992c1.368 1.359 1.376 3.579 0.016 4.946zM8 7c0.552 0 1 0.448 1 1S8.552 9 8 9 7 8.552 7 8 7.448 7 8 7zM19.032 13.285c-0.332-0.332-0.771-0.514-1.24-0.514h-0.01c-0.474 2e-3-0.916 0.19-1.247 0.528l-3.209 3.285c-0.671 0.686-0.663 1.794 0.017 2.472l1.44 1.435c0.332 0.33 0.771 0.512 1.239 0.512h0.01c0.471-3e-3 0.911-0.189 1.241-0.524l3.22-3.271c0.674-0.685 0.669-1.794-0.011-2.474zM19.78 16.506l-3.22 3.271c-0.142 0.145-0.332 0.224-0.534 0.226h-4e-3c-0.201 0-0.391-0.078-0.534-0.221l-1.44-1.435c-0.292-0.291-0.296-0.769-7e-3-1.063l3.209-3.285c0.143-0.146 0.333-0.227 0.537-0.228 0.207 0.023 0.395 0.077 0.538 0.221l1.45 1.448c0.293 0.293 0.295 0.771 5e-3 1.066z" />
</svg>