<svg id="brazil_Layer_1" viewBox="0 0 24 24" fill="currentColor" width="32" height="32" data-name="Layer 1" xmlns="http://www.w3.org/2000/svg" xmlns:xlink="http://www.w3.org/1999/xlink">
    <title>brazil</title>
    <path d="M21 6v0c-1.326-0.994-2.794-1.783-4.355-2.338l-2.153-0.766 4e-3-0.616c3e-3-0.487-0.239-0.942-0.644-1.212-0.51-0.34-1.179-0.322-1.67 0.046L11.001 2h-1l-0.92-1.329C8.784 0.241 8.3 0 7.8 0 7.492-0.016 7.119 0.151 6.832 0.26c-0.597 0.228-0.999 0.799-1 1.438 0 0.468 0.177 1.266-0.024 1.34-0.27 0.067-0.499-0.234-0.749-0.57C4.836 2.15 4.482 1.976 4.122 1.976c-0.213 0-0.428 0.061-0.62 0.188C3.188 2.373 3 2.725 3 3.102v2.396L1.716 6.461C1.266 6.799 1 7.329 1 7.892c0 0.678 0.383 1.297 0.989 1.6 0.417 0.204 0.952 0.534 1.433 0.506H6v1c0 0.552 0.448 1 1 1h1v1c0 0.5 0.5 1 1 1v1.257c0 0.796 0.316 1.559 0.879 2.121L11 18.497v1c0 0-0.961 0.586-1.5 1-0.586 0.45-0.673 1.315-0.175 1.86 0.354 0.388 1.093 0.94 1.502 1.271 0.628 0.509 1.55 0.498 2.14-0.07 0.777-0.749 1.878-2.416 2.322-4.16 0.366-1.315 0.856-2.232 2.212-2.401 0.383-0.048 2.5-1.383 2.5-4.5v-0.5c0.341-0.341 1.489-1.12 2.269-1.758 0.465-0.38 0.732-0.947 0.732-1.548V7.997c0-1.105-0.896-2-2.002-1.997zM22 8.694c0 0.302-0.133 0.584-0.365 0.774-0.334 0.273-2.115 1.597-2.342 1.825C18.96 11.584 18.992 12.1 19 12.5c0 2.437-1.499 3.393-1.724 3.521-1.914 0.284-2.567 1.729-2.958 3.133-0.375 1.475-1.334 3-2.046 3.686-0.375 0.355-0.819 0.05-1.137-0.242-0.359-0.283-0.851-0.671-1.072-0.914-0.101-0.147-0.09-0.257 0.046-0.392 0.49-0.376 1.403-0.934 1.412-0.939C11.819 20.171 12 19.848 12 19.499v-1c0-0.265-0.105-0.52-0.293-0.707l-1.121-1.121C10.208 16.293 10 15.791 10 15.257V14c0.01-0.521-0.436-0.986-0.956-0.999-0.015-0.01-0.033-0.028-0.044-0.043V12c0-0.552-0.448-1-1-1H7v-1c0-0.552-0.448-1-1-1H3.422C3.163 9.023 2.665 8.697 2.436 8.6 2.167 8.466 2 8.195 2 7.894 2 7.647 2.118 7.411 2.316 7.263L3.6 6.3C3.852 6.111 4 5.815 4 5.5V3.104c6e-3-0.123 0.15-0.182 0.239-0.062 0.303 0.433 0.787 1.01 1.493 1.01 0.143 0 0.284-0.025 0.417-0.073 0.866-0.315 0.775-1.245 0.714-1.86-0.055-0.364-0.075-0.773 0.326-0.924 0.33-0.147 0.823-0.347 1.069 0.046l0.92 1.329C9.365 2.84 9.672 3.001 10 3.001h1c0.216 0 0.427-0.07 0.6-0.2l1.181-0.886c0.304-0.228 0.718 6e-3 0.714 0.36l-4e-3 0.616c-3e-3 0.425 0.264 0.806 0.665 0.948l2.153 0.766c1.468 0.522 2.844 1.261 4.091 2.196 0.173 0.13 0.384 0.2 0.6 0.2 0.551 0 1 0.449 1 1z" />
</svg>