<svg id="brazil_flag_circle_Layer_1" viewBox="0 0 24 24" fill="currentColor" width="32" height="32" data-name="Layer 1" xmlns="http://www.w3.org/2000/svg" xmlns:xlink="http://www.w3.org/1999/xlink">
    <title>brazil-flag-circle</title>
    <path d="M21.037 10.177 13.966 4.685c-1.153-0.896-2.773-0.903-3.935-0.019L2.919 10.08c-1.256 0.901-1.255 2.934 0 3.836l7.133 5.432c1.149 0.875 2.754 0.876 3.905 4e-3l7.059-5.349c1.251-0.895 1.263-2.915 0.021-3.826zM20.411 13.205l-7.059 5.349c-0.794 0.604-1.902 0.601-2.696-3e-3L3.524 13.12c-0.734-0.527-0.733-1.718 0-2.244l7.112-5.413c0.803-0.611 1.919-0.606 2.716 0.013l7.071 5.492c0.725 0.531 0.718 1.715-0.012 2.237zM12 8c-2.206 0-4 1.794-4 4s1.794 4 4 4 4-1.794 4-4-1.794-4-4-4zM12 15c-1.654 0-3-1.346-3-3 0-0.219 0.026-0.431 0.071-0.636 0.863 0.077 3.377 0.463 5.4 2.331C13.93 14.482 13.025 15 12 15zM14.899 12.732c-1.985-1.697-4.308-2.188-5.429-2.329C10.002 9.563 10.934 9 12 9c1.654 0 3 1.346 3 3 0 0.254-0.041 0.497-0.101 0.732zM12 0C5.383 0 0 5.383 0 12s5.383 12 12 12 12-5.383 12-12S18.617 0 12 0zM12 23C5.935 23 1 18.065 1 12S5.935 1 12 1 23 5.935 23 12 18.065 23 12 23z" />
</svg>