<svg id="brazil_flag_Layer_1" viewBox="0 0 24 24" fill="currentColor" width="32" height="32" data-name="Layer 1" xmlns="http://www.w3.org/2000/svg" xmlns:xlink="http://www.w3.org/1999/xlink">
    <title>brazil-flag</title>
    <path d="M19.5 2h-15C2.019 2 0 4.019 0 6.5v11C0 19.981 2.019 22 4.5 22h15c2.481 0 4.5-2.019 4.5-4.5v-11C24 4.019 21.981 2 19.5 2zM23 17.5c0 1.93-1.57 3.5-3.5 3.5h-15C2.57 21 1 19.43 1 17.5v-11C1 4.57 2.57 3 4.5 3h15C21.43 3 23 4.57 23 6.5zM21.037 10.177 13.966 4.685c-1.154-0.896-2.773-0.903-3.935-0.019L2.919 10.08c-1.256 0.901-1.255 2.934 0 3.836l7.133 5.432c1.148 0.874 2.755 0.876 3.905 4e-3l7.059-5.349c1.251-0.895 1.262-2.916 0.021-3.826zM20.411 13.205l-7.058 5.349c-0.794 0.603-1.902 0.601-2.696-3e-3L3.524 13.12c-0.734-0.527-0.733-1.718 0-2.244l7.112-5.413c0.803-0.611 1.919-0.606 2.716 0.013l7.071 5.492c0.726 0.532 0.719 1.715-0.012 2.237zM12 8c-2.206 0-4 1.794-4 4s1.794 4 4 4 4-1.794 4-4-1.794-4-4-4zM12 15c-1.654 0-3-1.346-3-3 0-0.219 0.026-0.431 0.071-0.636 0.863 0.077 3.377 0.463 5.4 2.331C13.93 14.482 13.025 15 12 15zM14.899 12.733c-1.985-1.697-4.308-2.188-5.429-2.33C10.002 9.563 10.934 9 12 9c1.654 0 3 1.346 3 3 0 0.254-0.041 0.497-0.101 0.733z" />
</svg>