<svg id="bread_Layer_1" viewBox="0 0 24 24" fill="currentColor" width="32" height="32" data-name="Layer 1" xmlns="http://www.w3.org/2000/svg" xmlns:xlink="http://www.w3.org/1999/xlink">
    <title>bread</title>
    <path d="M5.758 24.003c-1.73 0-3.174-0.524-4.205-1.556-1.606-1.606-1.984-4.214-1.063-7.344 0.89-3.025 2.896-6.208 5.651-8.962s5.937-4.762 8.962-5.651c3.131-0.921 5.739-0.542 7.344 1.063v0c1.606 1.606 1.984 4.214 1.063 7.344-0.89 3.025-2.896 6.208-5.651 8.962s-5.938 4.761-8.962 5.651c-1.121 0.33-2.175 0.493-3.139 0.493zM18.241 0.996c-0.867 0-1.826 0.15-2.855 0.453-2.868 0.843-5.899 2.76-8.538 5.398s-4.556 5.671-5.399 8.538c-0.813 2.763-0.525 5.02 0.811 6.355 1.335 1.335 3.591 1.624 6.355 0.811 2.868-0.843 5.899-2.76 8.538-5.398s4.555-5.67 5.398-8.538c0.813-2.763 0.525-5.02-0.811-6.355v0c-0.838-0.838-2.039-1.264-3.499-1.264zM15 14.5C15 11.21 12.79 9 9.5 9 9.224 9 9 9.224 9 9.5S9.224 10 9.5 10c2.733 0 4.5 1.767 4.5 4.5 0 0.276 0.224 0.5 0.5 0.5s0.5-0.224 0.5-0.5zM19 10.5C19 7.21 16.79 5 13.5 5 13.224 5 13 5.224 13 5.5S13.224 6 13.5 6c2.733 0 4.5 1.767 4.5 4.5 0 0.276 0.224 0.5 0.5 0.5s0.5-0.224 0.5-0.5zM11 18.5c0-3.29-2.21-5.5-5.5-5.5C5.224 13 5 13.224 5 13.5S5.224 14 5.5 14c2.733 0 4.5 1.767 4.5 4.5 0 0.276 0.224 0.5 0.5 0.5s0.5-0.224 0.5-0.5z" />
</svg>