<svg id="break_time_Layer_1" viewBox="0 0 24 24" fill="currentColor" width="32" height="32" data-name="Layer 1" xmlns="http://www.w3.org/2000/svg" xmlns:xlink="http://www.w3.org/1999/xlink">
    <title>break-time</title>
    <path d="M12.5 2.025V0.5C12.5 0.224 12.276 0 12 0s-0.5 0.224-0.5 0.5v1.525C5.667 2.289 1 7.103 1 13c0 2.901 1.137 5.535 2.978 7.502C2.921 20.948 2 21.892 2 23.5 2 23.776 2.224 24 2.5 24S3 23.776 3 23.5c0-1.55 1.121-2.057 1.779-2.223C6.714 22.967 9.236 24 12 24s5.287-1.033 7.221-2.723C19.879 21.442 21 21.949 21 23.5c0 0.276 0.224 0.5 0.5 0.5s0.5-0.224 0.5-0.5c0-1.608-0.92-2.552-1.978-2.998C21.863 18.535 23 15.901 23 13 23 7.103 18.333 2.289 12.5 2.025zM2 13C2 7.486 6.486 3 12 3s10 4.486 10 10-4.486 10-10 10S2 18.514 2 13zM24 4.5C24 4.776 23.776 5 23.5 5S23 4.776 23 4.5c0-1.679-1.227-3.462-3.5-3.462-0.276 0-0.5-0.224-0.5-0.5s0.224-0.5 0.5-0.5c2.523 0 4.5 1.96 4.5 4.462zM1 4.5C1 4.776 0.776 5 0.5 5S0 4.776 0 4.5c0-2.502 1.977-4.462 4.5-4.462 0.276 0 0.5 0.224 0.5 0.5s-0.224 0.5-0.5 0.5C2.227 1.038 1 2.822 1 4.5zM15.838 6.232c-0.357-0.261-0.812-0.306-1.186-0.117-0.415 0.209-0.653 0.662-0.653 1.242V19.5c0 0.276 0.224 0.5 0.5 0.5s0.5-0.224 0.5-0.5v-3.244c2.037-1.404 3-3.079 3-5.256 0-2.069-1.277-4.131-2.161-4.768zM15 15.024V7.357c0.012-0.277 0.061-0.438 0.253-0.314C15.863 7.481 17 9.226 17 11c0 1.662-0.607 2.905-2 4.024zM9 6c-1.448 0-3 2.935-3 5 0 1.565 1.027 2.735 2.5 2.954V19.5C8.5 19.776 8.724 20 9 20s0.5-0.224 0.5-0.5v-5.546C10.973 13.735 12 12.565 12 11c0-2.065-1.552-5-3-5zM9 13c-1.196 0-2-0.804-2-2 0-1.759 1.356-4 2-4s2 2.241 2 4c0 1.196-0.804 2-2 2z" />
</svg>