<svg id="bread_slice_Layer_1" viewBox="0 0 24 24" fill="currentColor" width="32" height="32" data-name="Layer 1" xmlns="http://www.w3.org/2000/svg" xmlns:xlink="http://www.w3.org/1999/xlink">
    <title>bread-slice</title>
    <path d="M9 14c0 0.552-0.448 1-1 1s-1-0.448-1-1 0.448-1 1-1 1 0.448 1 1zM12 17c-0.552 0-1 0.448-1 1s0.448 1 1 1 1-0.448 1-1-0.448-1-1-1zM8 17c-0.552 0-1 0.448-1 1s0.448 1 1 1 1-0.448 1-1-0.448-1-1-1zM22 8.492v11.009C22 21.982 19.981 24 17.5 24h-11C4.019 24 2 21.982 2 19.501V8.492C0.516 7.45-0.238 5.666 0.069 3.866 0.447 1.662 2.494 0 4.83 0h14.34c2.336 0 4.383 1.662 4.761 3.866C24.239 5.665 23.485 7.45 22 8.492zM22.944 4.035C22.648 2.305 21.025 1 19.17 1H4.83C2.975 1 1.351 2.305 1.056 4.035 0.797 5.546 1.452 6.988 2.763 7.797 2.91 7.888 3 8.049 3 8.223v11.278C3 21.43 4.57 23 6.5 23h11c1.93 0 3.5-1.57 3.5-3.499V8.223c0-0.173 0.09-0.334 0.237-0.426 1.312-0.809 1.966-2.25 1.707-3.762z" />
</svg>