<svg id="bread_slice_butter_Layer_1" viewBox="0 0 24 24" fill="currentColor" width="32" height="32" data-name="Layer 1" xmlns="http://www.w3.org/2000/svg" xmlns:xlink="http://www.w3.org/1999/xlink">
    <title>bread-slice-butter</title>
    <path d="M13.414 8.563c-0.755-0.756-2.073-0.756-2.828 0l-3.022 3.022c-0.78 0.779-0.78 2.049 0 2.828l3.022 3.022c0.377 0.378 0.88 0.586 1.414 0.586s1.037-0.208 1.414-0.586l3.022-3.022c0.78-0.779 0.78-2.049 0-2.828zM15.729 13.707l-3.022 3.022c-0.378 0.377-1.036 0.377-1.414 0l-3.022-3.022C8.082 13.518 7.978 13.267 7.978 13s0.104-0.518 0.293-0.707l3.022-3.022c0.189-0.188 0.44-0.293 0.707-0.293s0.518 0.104 0.707 0.293l3.022 3.022c0.189 0.189 0.293 0.44 0.293 0.707s-0.104 0.518-0.293 0.707zM23.93 3.866C23.553 1.662 21.507 0 19.17 0H4.83C2.494 0 0.447 1.662 0.07 3.866-0.238 5.666 0.515 7.451 2 8.492v11.009C2 21.981 4.019 24 6.5 24h11c2.481 0 4.5-2.019 4.5-4.499V8.492c1.484-1.041 2.238-2.826 1.93-4.626zM21.238 7.797C21.09 7.888 21 8.049 21 8.223v11.278C21 21.431 19.43 23 17.5 23h-11C4.57 23 3 21.431 3 19.501V8.223c0-0.174-0.09-0.335-0.238-0.426-1.312-0.809-1.965-2.25-1.707-3.763C1.351 2.305 2.974 1 4.829 1h14.34c1.855 0 3.478 1.305 3.774 3.034 0.259 1.513-0.395 2.954-1.705 3.763z" />
</svg>