<svg id="bridge_suspension_Layer_1" viewBox="0 0 24 24" fill="currentColor" width="32" height="32" data-name="Layer 1" xmlns="http://www.w3.org/2000/svg" xmlns:xlink="http://www.w3.org/1999/xlink">
    <title>bridge-suspension</title>
    <path d="M21 11h-1V2.04c0.679 0.761 1.747 1.683 3.318 2.297 0.06 0.023 0.122 0.034 0.182 0.034 0.2 0 0.388-0.12 0.466-0.317 0.101-0.258-0.026-0.548-0.284-0.648-2.648-1.036-3.725-3.11-3.735-3.131-9e-3-0.018-0.118-0.269-0.443-0.269s-0.442 0.252-0.451 0.269C18.976 0.426 17.105 4 12 4S5.024 0.427 4.947 0.275C4.861 0.107 4.688 0 4.5 0h-1e-3C4.31 0 4.137 0.106 4.053 0.275c-0.01 0.021-1.068 2.086-3.735 3.13-0.257 0.101-0.384 0.391-0.284 0.648 0.101 0.257 0.392 0.383 0.648 0.283C2.25 3.722 3.321 2.801 4 2.041V11H2.5C1.122 11 0 12.121 0 13.5v1.929c0 0.887 0.521 1.718 1.361 2.168C2.988 18.471 4 20.158 4 22v1c0 0.552 0.449 1 1 1h1c0.551 0 1-0.448 1-1v-0.764c0-2.682 1.98-4.972 4.507-5.213 1.432-0.145 2.8 0.317 3.855 1.275C16.403 19.244 17 20.594 17 21.999v1c0 0.552 0.449 1 1 1h1c0.551 0 1-0.448 1-1v-1c0-1.843 1.011-3.529 2.639-4.403 0.84-0.45 1.361-1.281 1.361-2.168v-1.429c0-1.654-1.346-3-3-2.999zM19 2.048V11h-6.5V4.978c3.387-0.147 5.434-1.731 6.5-2.93zM5 2.043c1.064 1.198 3.114 2.772 6.5 2.922v6.034H5zM23 15.429c0 0.525-0.312 1.007-0.834 1.287C20.213 17.764 19 19.788 19 22v1h-1v-1c0-1.687-0.716-3.306-1.965-4.44-1.119-1.018-2.53-1.561-4.027-1.561-0.197 0-0.396 0.01-0.596 0.028-3.035 0.29-5.413 3.018-5.413 6.209V23h-1v-1c0-2.212-1.213-4.236-3.166-5.284-0.522-0.28-0.834-0.762-0.834-1.287V13.5c0-0.827 0.673-1.5 1.5-1.5H21c1.103 0 2 0.897 2 2z" />
</svg>