<svg id="bridge_water_Layer_1" viewBox="0 0 24 24" fill="currentColor" width="32" height="32" data-name="Layer 1" xmlns="http://www.w3.org/2000/svg" xmlns:xlink="http://www.w3.org/1999/xlink">
    <title>bridge-water</title>
    <path d="M20.869 1.514C18.676 0.824 15.356 0 12 0S5.324 0.823 3.13 1.514C1.258 2.104 0 3.827 0 5.802v11.471c0 0.952 0.775 1.728 1.728 1.728h2.545c0.953 0 1.728-0.775 1.728-1.728 0-3.361 2.608-6.174 5.815-6.27 3.4-0.177 6.398 2.877 6.185 6.27 0 0.952 0.775 1.728 1.728 1.728h2.545c0.953 0 1.728-0.775 1.728-1.728V5.802c0-1.975-1.258-3.698-3.133-4.288zM23 5.802V7.7c-0.651-0.303-1.695-0.757-3-1.208V2.295c0.193 0.057 0.39 0.115 0.569 0.171C22.023 2.925 23 4.265 23 5.802zM15 5.239V1.213c1.446 0.19 2.813 0.484 4 0.8v4.152c-1.204-0.372-2.565-0.711-4-0.926zM14 1.101v4.01C13.341 5.042 12.672 5 12 5s-1.341 0.042-2 0.111V1.102C10.66 1.041 11.329 1 12 1s1.34 0.041 2 0.101zM5 6.165V2.014c1.187-0.316 2.554-0.61 4-0.8v4.025C7.565 5.455 6.204 5.793 5 6.165zM3.431 2.466C3.61 2.41 3.807 2.352 4 2.294v4.198C2.695 6.943 1.651 7.397 1 7.7V5.802c0-1.536 0.977-2.876 2.431-3.336zM22.273 17.999h-2.545c-0.401 0-0.728-0.326-0.728-0.728 0.228-3.94-3.272-7.48-7.215-7.27C8.044 10.113 5 13.374 5 17.271c0 0.401-0.326 0.728-0.728 0.728H1.728C1.327 17.999 1 17.673 1 17.271V8.809C2.18 8.235 7.092 6 12 6s9.82 2.235 11 2.809v8.463c0 0.401-0.326 0.728-0.727 0.727zM23.88 22.406c0.18 0.21 0.156 0.525-0.054 0.705-0.666 0.572-1.524 0.888-2.417 0.888-1.24 0-2.434-0.594-3.137-1.494-0.703 0.9-1.896 1.494-3.136 1.494S12.702 23.405 12 22.505c-0.703 0.9-1.897 1.494-3.136 1.494s-2.434-0.594-3.136-1.494c-0.703 0.9-1.897 1.494-3.137 1.494-0.893 0-1.75-0.315-2.417-0.888-0.209-0.18-0.233-0.495-0.054-0.705 0.181-0.21 0.497-0.232 0.705-0.053 0.485 0.416 1.112 0.646 1.765 0.646 1.168 0 2.315-0.72 2.668-1.674 0.072-0.196 0.259-0.326 0.469-0.326s0.396 0.131 0.469 0.327c0.352 0.953 1.499 1.673 2.667 1.673s2.314-0.72 2.667-1.674c0.145-0.393 0.793-0.393 0.938 0 0.353 0.954 1.5 1.674 2.667 1.674s2.315-0.72 2.667-1.673c0.146-0.392 0.794-0.394 0.938 0C19.093 22.28 20.24 23 21.408 23c0.653 0 1.28-0.229 1.765-0.646 0.209-0.18 0.525-0.157 0.707 0.052z" />
</svg>