<svg id="bridge_Layer_1" viewBox="0 0 24 24" fill="currentColor" width="32" height="32" data-name="Layer 1" xmlns="http://www.w3.org/2000/svg" xmlns:xlink="http://www.w3.org/1999/xlink">
    <title>bridge</title>
    <path d="M20 0H4C1.794 0 0 1.794 0 4v5.802C0 11 0.627 12.115 1.679 12.783 3.133 13.705 4 15.282 4 17v6c0 0.552 0.449 1 1 1h1c0.551 0 1-0.448 1-1v-5.764c0-2.683 1.98-4.972 4.507-5.213 1.433-0.137 2.8 0.316 3.855 1.275C16.403 14.244 17 15.594 17 16.999v6c0 0.552 0.449 1 1 1h1c0.551 0 1-0.448 1-1v-6c0-1.718 0.868-3.295 2.321-4.217C23.372 12.114 24 10.999 24 9.801V4c0-2.206-1.794-4-4-4zM23 4h-3V1c1.654 0 3 1.346 3 3zM15 4V1h4v3zM10 4V1h4v3zM5 4V1h4v3zM4 1v3H1c0-1.654 1.346-3 3-3zM21.785 11.938C20.041 13.045 19 14.937 19 17v6h-1v-6c0-1.687-0.716-3.306-1.965-4.441-1.119-1.017-2.53-1.56-4.026-1.56-0.197 0-0.396 0.01-0.596 0.029C8.378 11.317 6 14.044 6 17.236V23H5v-6c0-2.062-1.041-3.954-2.785-5.061C1.454 11.455 1 10.656 1 9.802V5h22v4.802c0 0.854-0.454 1.653-1.215 2.136z" />
</svg>