<svg id="bridge_collapse_Layer_1" viewBox="0 0 24 24" fill="currentColor" width="32" height="32" data-name="Layer 1" xmlns="http://www.w3.org/2000/svg" xmlns:xlink="http://www.w3.org/1999/xlink">
    <title>bridge-collapse</title>
    <path d="M2.029 19.029H3.97c1.119 0 2.029-0.91 2.029-2.029V8.668l5.196-6.867c0.266-0.351 0.231-0.851-0.081-1.163-0.338-0.335-0.876-0.345-1.226-0.024L1.823 8.011C0.813 8.094-0.017 9.016 0 10.03v6.971c0 1.119 0.91 2.029 2.029 2.028zM1 10.029C0.99 9.477 1.475 8.988 2.029 9 2.154 9 2.275 8.953 2.367 8.868l7.276-6.672-4.542 6.002C5.036 8.285 5 8.39 5 8.5V17c0 0.567-0.462 1.029-1.029 1.029H2.03c-0.567 0-1.029-0.462-1.029-1.029zM22.177 8.01 14.11 0.613c-0.349-0.321-0.887-0.312-1.226 0.025C12.572 0.95 12.538 1.45 12.803 1.8l5.196 6.867v8.332c0 1.119 0.91 2.029 2.029 2.029h1.941c1.119 0 2.029-0.91 2.029-2.029v-6.971c0-1.05-0.801-1.915-1.821-2.018zM23 16.999c0 0.567-0.462 1.029-1.029 1.029H20.03c-0.567 0-1.029-0.462-1.029-1.029V8.5c0-0.109-0.035-0.215-0.102-0.302l-4.541-6.001 7.274 6.671C21.724 8.953 21.845 9 21.97 9c0.567 0 1.029 0.462 1.029 1.029zM23.879 22.406c0.181 0.21 0.156 0.525-0.053 0.705-0.666 0.572-1.524 0.888-2.417 0.888-1.239 0-2.434-0.594-3.137-1.494-0.703 0.9-1.896 1.494-3.136 1.494s-2.434-0.594-3.137-1.494c-0.703 0.9-1.897 1.494-3.136 1.494s-2.434-0.594-3.136-1.494c-0.703 0.9-1.897 1.494-3.137 1.494-0.893 0-1.75-0.315-2.417-0.888-0.209-0.18-0.233-0.495-0.054-0.705 0.181-0.21 0.498-0.232 0.705-0.053 0.485 0.416 1.112 0.646 1.765 0.646 1.168 0 2.315-0.72 2.668-1.674 0.072-0.196 0.259-0.326 0.469-0.326s0.396 0.131 0.469 0.327c0.352 0.953 1.499 1.673 2.667 1.673s2.314-0.72 2.667-1.674c0.145-0.393 0.793-0.393 0.938 0 0.353 0.954 1.5 1.674 2.668 1.674s2.314-0.72 2.667-1.674c0.145-0.393 0.793-0.393 0.938 0 0.353 0.954 1.5 1.674 2.668 1.674 0.653 0 1.28-0.229 1.765-0.646 0.211-0.18 0.526-0.156 0.706 0.053z" />
</svg>