<svg id="briefcase_arrow_right_Layer_1" viewBox="0 0 24 24" fill="currentColor" width="32" height="32" data-name="Layer 1" xmlns="http://www.w3.org/2000/svg" xmlns:xlink="http://www.w3.org/1999/xlink">
    <title>briefcase-arrow-right</title>
    <path d="M19.5 4h-2.03C17.22 1.75 15.31 0 13 0h-2.5C8.19 0 6.28 1.75 6.03 4H4.5C2.02 4 0 6.02 0 8.5v11C0 21.98 2.02 24 4.5 24h15c2.48 0 4.5-2.02 4.5-4.5v-11C24 6.02 21.98 4 19.5 4zM10.5 1H13c1.76 0 3.22 1.31 3.46 3H7.04c0.24-1.69 1.7-3 3.46-3zM23 19.5c0 1.93-1.57 3.5-3.5 3.5h-15C2.57 23 1 21.43 1 19.5v-11C1 6.57 2.57 5 4.5 5h15C21.43 5 23 6.57 23 8.5zM17.28 12.74C17.74 13.2 18 13.83 18 14.5s-0.26 1.3-0.73 1.77l-2.4 2.57C14.77 18.95 14.64 19 14.5 19c-0.12 0-0.24-0.04-0.34-0.13-0.2-0.19-0.21-0.5-0.02-0.71l2.41-2.59c0.17-0.17 0.29-0.36 0.37-0.57H6.5C6.22 15 6 14.78 6 14.5S6.22 14 6.5 14h10.41c0 0 0 0 0 0-0.07-0.21-0.19-0.4-0.35-0.56l-2.43-2.6c-0.19-0.2-0.18-0.52 0.02-0.71s0.52-0.18 0.71 0.02z" />
</svg>