<svg id="briefcase_dollar_Layer_1" viewBox="0 0 24 24" fill="currentColor" width="32" height="32" data-name="Layer 1" xmlns="http://www.w3.org/2000/svg" xmlns:xlink="http://www.w3.org/1999/xlink">
    <title>briefcase-dollar</title>
    <path d="M19.5 4h-1.551C17.697 1.756 15.81 0 13.5 0h-3C8.19 0 6.303 1.756 6.051 4H4.5C2.019 4 0 6.019 0 8.5v11C0 21.981 2.019 24 4.5 24h15c2.481 0 4.5-2.019 4.5-4.5v-11C24 6.019 21.981 4 19.5 4zM10.5 1h3c1.76 0 3.221 1.306 3.464 3H7.036C7.279 2.306 8.74 1 10.5 1zM23 19.5c0 1.93-1.57 3.5-3.5 3.5h-15C2.57 23 1 21.43 1 19.5v-11C1 6.57 2.57 5 4.5 5h15C21.43 5 23 6.57 23 8.5zM16 16.374C16 17.822 14.822 19 13.374 19H12.5v1.5c0 0.276-0.224 0.5-0.5 0.5s-0.5-0.224-0.5-0.5V19h-0.926c-0.979 0-1.891-0.526-2.381-1.375-0.139-0.238-0.057-0.545 0.182-0.683 0.239-0.141 0.545-0.057 0.683 0.183C9.37 17.665 9.952 18 10.574 18h2.8C14.27 18 15 17.271 15 16.374c0-0.803-0.575-1.479-1.368-1.604l-3.423-0.552C8.929 14.014 8 12.923 8 11.626 8 10.178 9.178 9 10.626 9H11.5V7.5C11.5 7.224 11.724 7 12 7s0.5 0.224 0.5 0.5V9h0.926c0.979 0 1.891 0.526 2.381 1.375 0.139 0.238 0.057 0.545-0.182 0.683-0.241 0.14-0.546 0.056-0.683-0.183C14.63 10.335 14.048 10 13.426 10h-2.8C9.73 10 9 10.729 9 11.626c0 0.803 0.575 1.479 1.368 1.604l3.423 0.552C15.071 13.986 16 15.077 16 16.374z" />
</svg>