<svg id="briefcase_Outline" viewBox="0 0 24 24" fill="currentColor" width="32" height="32" xmlns="http://www.w3.org/2000/svg" xmlns:xlink="http://www.w3.org/1999/xlink">
    <title>briefcase</title>
    <path d="M19.5 4h-1.551C17.697 1.756 15.81 0 13.5 0h-3C8.19 0 6.303 1.756 6.051 4H4.5C2.019 4 0 6.019 0 8.5v11C0 21.981 2.019 24 4.5 24h15c2.481 0 4.5-2.019 4.5-4.5v-11C24 6.019 21.981 4 19.5 4zM10.5 1h3c1.758 0 3.204 1.308 3.449 3H7.051C7.296 2.308 8.742 1 10.5 1zM4.5 5h15C21.43 5 23 6.57 23 8.5V12H1V8.5C1 6.57 2.57 5 4.5 5zM19.5 23h-15C2.57 23 1 21.43 1 19.5V13h10.5v1.5c0 0.276 0.224 0.5 0.5 0.5s0.5-0.224 0.5-0.5V13H23v6.5c0 1.93-1.57 3.5-3.5 3.5z" />
</svg>