<svg id="brightness_low_Layer_1" viewBox="0 0 24 24" fill="currentColor" width="32" height="32" data-name="Layer 1" xmlns="http://www.w3.org/2000/svg" xmlns:xlink="http://www.w3.org/1999/xlink">
    <title>brightness-low</title>
    <path d="M12 17c-2.76 0-5-2.24-5-5s2.24-5 5-5 5 2.24 5 5-2.24 5-5 5zM12 8c-2.21 0-4 1.79-4 4s1.79 4 4 4 4-1.79 4-4-1.79-4-4-4zM12 3c0.55 0 1-0.45 1-1s-0.45-1-1-1-1 0.45-1 1 0.45 1 1 1zM12 23c0.55 0 1-0.45 1-1s-0.45-1-1-1-1 0.45-1 1 0.45 1 1 1zM3 12c0-0.55-0.45-1-1-1s-1 0.45-1 1 0.45 1 1 1 1-0.45 1-1zM23 12c0-0.55-0.45-1-1-1s-1 0.45-1 1 0.45 1 1 1 1-0.45 1-1zM19 6c0.55 0 1-0.45 1-1s-0.45-1-1-1-1 0.45-1 1 0.45 1 1 1zM5 20c0.55 0 1-0.45 1-1s-0.45-1-1-1-1 0.45-1 1 0.45 1 1 1zM5 6c0.55 0 1-0.45 1-1S5.55 4 5 4 4 4.45 4 5 4.45 6 5 6zM20 19c0-0.55-0.45-1-1-1s-1 0.45-1 1 0.45 1 1 1 1-0.45 1-1z" />
</svg>