<svg id="bring_forward_Layer_1" viewBox="0 0 24 24" fill="currentColor" width="32" height="32" data-name="Layer 1" xmlns="http://www.w3.org/2000/svg" xmlns:xlink="http://www.w3.org/1999/xlink">
    <title>bring-forward</title>
    <path d="M11.5 16h-7C2.02 16 0 13.98 0 11.5v-7C0 2.02 2.02 0 4.5 0h7C13.98 0 16 2.02 16 4.5v7c0 2.48-2.02 4.5-4.5 4.5zM4.5 1C2.57 1 1 2.57 1 4.5v7C1 13.43 2.57 15 4.5 15h7c1.93 0 3.5-1.57 3.5-3.5v-7C15 2.57 13.43 1 11.5 1zM24 19.5v-7c0-2.48-2.02-4.5-4.5-4.5h-1C18.22 8 18 8.22 18 8.5S18.22 9 18.5 9h1c1.93 0 3.5 1.57 3.5 3.5v7c0 1.93-1.57 3.5-3.5 3.5h-7C10.57 23 9 21.43 9 19.5v-1C9 18.22 8.78 18 8.5 18S8 18.22 8 18.5v1c0 2.48 2.02 4.5 4.5 4.5h7c2.48 0 4.5-2.02 4.5-4.5z" />
</svg>