<svg id="broadcast_tower_Layer_1" viewBox="0 0 24 24" fill="currentColor" width="32" height="32" data-name="Layer 1" xmlns="http://www.w3.org/2000/svg" xmlns:xlink="http://www.w3.org/1999/xlink">
    <title>broadcast-tower</title>
    <path d="M12 6c-1.654 0-3 1.346-3 3 0 1.484 1.083 2.719 2.5 2.958V23.5c0 0.276 0.224 0.5 0.5 0.5s0.5-0.224 0.5-0.5V11.958C13.917 11.719 15 10.484 15 9c0-1.654-1.346-3-3-3zM12 11c-1.103 0-2-0.897-2-2s0.897-2 2-2 2 0.897 2 2-0.897 2-2 2zM7.05 4.125C5.728 5.447 5 7.205 5 9.075s0.728 3.628 2.05 4.95c0.195 0.195 0.195 0.512 0 0.707-0.098 0.098-0.226 0.146-0.354 0.146s-0.256-0.049-0.354-0.146c-3.119-3.119-3.119-8.195 0-11.314 0.195-0.195 0.512-0.195 0.707 0S7.244 3.93 7.05 4.125zM17.656 14.732c-0.098 0.098-0.226 0.146-0.354 0.146s-0.256-0.049-0.354-0.146c-0.195-0.195-0.195-0.512 0-0.707 1.322-1.322 2.05-3.08 2.05-4.95s-0.728-3.627-2.05-4.95c-0.195-0.195-0.195-0.512 0-0.707s0.512-0.195 0.707 0c3.119 3.119 3.119 8.195 1e-3 11.314zM4.221 16.853c0.195 0.195 0.195 0.512 0 0.707-0.098 0.098-0.226 0.146-0.354 0.146s-0.256-0.049-0.354-0.146c-4.677-4.678-4.677-12.291 2e-3-16.97 0.195-0.195 0.512-0.195 0.707 0s0.195 0.512 0 0.707c-4.289 4.289-4.289 11.267-1e-3 15.556zM20.485 17.56c-0.098 0.098-0.226 0.146-0.354 0.146s-0.256-0.049-0.354-0.146c-0.195-0.195-0.195-0.512 0-0.707 4.289-4.289 4.289-11.267 0-15.556-0.195-0.195-0.195-0.512 0-0.707s0.512-0.195 0.707 0c4.679 4.679 4.679 12.292 1e-3 16.97z" />
</svg>