<svg id="broccoli_Layer_1" viewBox="0 0 24 24" fill="currentColor" width="32" height="32" data-name="Layer 1" xmlns="http://www.w3.org/2000/svg" xmlns:xlink="http://www.w3.org/1999/xlink">
    <title>broccoli</title>
    <path d="M20.802 6.199C20.232 4.301 18.505 3 16.5 3c-0.1 0-0.197 6e-3-0.3 0.017C15.13 1.147 13.169 0 11 0 8.028 0 5.56 2.12 5.083 5.001 5.056 5.001 5.028 5 5 5 2.243 5 0 7.243 0 10c0 3.264 2.62 5.928 5.868 5.998 0.281 0.827 0.759 2.49 0.996 4.814C7.049 22.629 8.547 24 10.348 24h3.307c1.794 0 3.292-1.367 3.484-3.179 0.302-2.861 1.018-4.868 1.474-5.909C18.9 14.969 19.196 15 19.499 15c2.481 0 4.5-2.019 4.5-4.5 0-2.004-1.301-3.731-3.197-4.301zM16.146 20.716C16.007 22.018 14.937 23 13.656 23h-3.307c-1.287 0-2.357-0.984-2.49-2.289-0.224-2.199-0.659-3.843-0.959-4.78 1.198-0.183 2.319-0.728 3.209-1.566 0.411 0.419 0.881 0.765 1.392 1.029v4.947c0 0.276 0.224 0.5 0.5 0.5s0.5-0.224 0.5-0.5v-4.55c0.482 0.137 0.985 0.209 1.5 0.209 1.361 0 2.646-0.493 3.655-1.396h2e-3c-0.483 1.127-1.205 3.206-1.512 6.112zM19.5 14c-1.001 0-1.719-0.454-1.734-0.46C16.712 12.936 16 11.8 16 10.5c0-0.276-0.224-0.5-0.5-0.5S15 10.224 15 10.5c0 1.446 0.685 2.734 1.748 3.558C15.963 14.669 15.008 15 14 15c-1.36 0-2.631-0.613-3.485-1.682-0.093-0.116-0.231-0.185-0.379-0.188-0.151-4e-3-0.289 0.059-0.387 0.169C8.797 14.38 7.431 15 6 15c-2.757 0-5-2.243-5-5 0-2.206 1.794-4 4-4s4 1.794 4 4c0 0.276 0.224 0.5 0.5 0.5S10 10.276 10 10c0-2.387-1.682-4.388-3.922-4.883C6.495 2.742 8.54 1 11 1c1.907 0 3.622 1.065 4.476 2.781 0.096 0.194 0.352 0.3 0.563 0.266 0.152-0.022 0.304-0.046 0.461-0.046 1.639 0 3.038 1.118 3.405 2.72 0.043 0.187 0.188 0.333 0.376 0.375C21.882 7.463 23 8.863 23 10.501c0 1.93-1.57 3.5-3.5 3.499z" />
</svg>