<svg id="broken_nail_Layer_1" viewBox="0 0 24 24" fill="currentColor" width="32" height="32" data-name="Layer 1" xmlns="http://www.w3.org/2000/svg" xmlns:xlink="http://www.w3.org/1999/xlink">
    <title>broken-nail</title>
    <path d="M12 17.5c0 0.276-0.224 0.5-0.5 0.5h-3C6.019 18 4 15.981 4 13.5V7.259C2.108 8.77 1 11.039 1 13.5v10C1 23.776 0.776 24 0.5 24S0 23.776 0 23.5v-10c0-3.026 1.496-5.791 4-7.468V6c0-3.309 2.691-6 6-6s6 2.691 6 6v0.025c1.719 1.152 2.997 2.852 3.604 4.828 0.081 0.264-0.067 0.544-0.331 0.625-0.257 0.081-0.544-0.065-0.625-0.331C18.176 9.611 17.246 8.263 16 7.263V11.5c0 0.276-0.224 0.5-0.5 0.5S15 11.776 15 11.5V6c0-2.757-2.243-5-5-5S5 3.243 5 6v7.5c0 0.938 0.376 1.786 0.978 2.415C6.969 14.713 8.442 14 10 14c0.981 0 1.938 0.276 2.767 0.798 0.233 0.147 0.304 0.456 0.156 0.689-0.146 0.234-0.455 0.304-0.689 0.156-0.668-0.421-1.441-0.644-2.233-0.644-1.247 0-2.428 0.567-3.23 1.524 0.512 0.294 1.098 0.476 1.73 0.476h3c0.276 0 0.5 0.224 0.499 0.501zM23.918 21.525l-4.497-7.708c-0.298-0.511-0.83-0.816-1.421-0.816s-1.123 0.305-1.422 0.816l-4.497 7.708c-0.656 1.043 0.19 2.517 1.422 2.475H15.5c0.276 0 0.5-0.224 0.5-0.5S15.776 23 15.5 23h-1.997c-0.595-0.106-0.765-0.404-0.558-0.971l4.496-7.708c0.238-0.407 0.878-0.407 1.116 0l4.497 7.708c0.207 0.567 0.037 0.865-0.558 0.971h-1.997c-0.276 0-0.5 0.224-0.5 0.5s0.224 0.5 0.5 0.5h1.997c1.232 0.042 2.078-1.432 1.422-2.475zM18.5 20.5v-3c0-0.276-0.224-0.5-0.5-0.5s-0.5 0.224-0.5 0.5v3c0 0.276 0.224 0.5 0.5 0.5s0.5-0.224 0.5-0.5zM18 22c-0.552 0-1 0.448-1 1s0.448 1 1 1 1-0.448 1-1-0.448-1-1-1z" />
</svg>