<svg id="broken_arm_Layer_1" viewBox="0 0 24 24" fill="currentColor" width="32" height="32" data-name="Layer 1" xmlns="http://www.w3.org/2000/svg" xmlns:xlink="http://www.w3.org/1999/xlink">
    <title>broken-arm</title>
    <path d="M24 18.5c0-0.691-0.473-1.269-1.11-1.442 0.07-0.173 0.11-0.36 0.11-0.558 0-0.827-0.673-1.5-1.5-1.5H18v-0.482l0.459-0.468c0.665-0.644 0.722-1.705 0.127-2.415s-1.649-0.842-2.415-0.287L12.784 14H11V8.5c0-0.955-0.387-1.821-1.009-2.453C9.993 6.031 10 6.017 10 6V0.5C10 0.224 9.776 0 9.5 0S9 0.224 9 0.5v4.851C8.544 5.132 8.039 5 7.5 5h-4C2.961 5 2.456 5.133 2 5.351V0.5C2 0.224 1.776 0 1.5 0S1 0.224 1 0.5V6c0 0.017 8e-3 0.031 9e-3 0.047C0.386 6.679 0 7.545 0 8.5v9C0 21.084 2.916 24 6.5 24h14c0.827 0 1.5-0.673 1.5-1.5 0-0.176-0.036-0.343-0.092-0.5H22c0.827 0 1.5-0.673 1.5-1.5 0-0.269-0.077-0.517-0.201-0.735C23.719 19.499 24 19.033 24 18.5zM22.5 19H18v-1h4.5c0.275 0 0.5 0.225 0.5 0.5S22.775 19 22.5 19zM13.663 23l-5.39-5.041 2.45-2.314L17 21.523V23zM17 15v5.153L11.497 15zM21.5 16c0.275 0 0.5 0.225 0.5 0.5S21.775 17 21.5 17H18v-1zM16.772 12.147c0.327-0.239 0.788-0.179 1.047 0.13 0.26 0.31 0.235 0.773-0.065 1.064L17.108 14h-2.701zM10 9.381 1.006 17.61c0-0.037-6e-3-0.073-6e-3-0.11v-4.06l7.75-7.092C9.494 6.782 10 7.579 10 8.5zM3.5 6h4c0.046 0 0.089 0.011 0.134 0.014L1 12.083V8.5C1 7.122 2.121 6 3.5 6zM1.167 18.819 10 10.738v4.214l-7.094 6.702c-0.845-0.732-1.462-1.716-1.739-2.835zM3.735 22.246l3.809-3.599 4.654 4.352H6.5c-1.009 0-1.952-0.278-2.765-0.753zM21 22.5c0 0.275-0.225 0.5-0.5 0.5H18v-1h2.5c0.275 0 0.5 0.225 0.5 0.5zM22 21h-4v-1h4c0.275 0 0.5 0.225 0.5 0.5S22.275 21 22 21z" />
</svg>