<svg id="broom_ball_Layer_1" viewBox="0 0 24 24" fill="currentColor" width="32" height="32" data-name="Layer 1" xmlns="http://www.w3.org/2000/svg" xmlns:xlink="http://www.w3.org/1999/xlink">
    <title>broom-ball</title>
    <path d="M21 18c-1.654 0-3 1.346-3 3s1.346 3 3 3 3-1.346 3-3-1.346-3-3-3zM21 23c-1.103 0-2-0.897-2-2s0.897-2 2-2 2 0.897 2 2-0.897 2-2 2zM14.313 10.394l9.541-9.54c0.195-0.195 0.195-0.512 0-0.707s-0.512-0.195-0.707 0l-9.541 9.541-1.212-1.212c-0.374-0.373-0.89-0.539-1.406-0.454-0.521 0.084-0.955 0.404-1.191 0.876l-1.122 2.245c-1.813-0.396-3.737 0.145-5.062 1.469-1.515 1.515-2.981 6.632-3.541 8.762-0.191 0.728 0.013 1.48 0.546 2.013 0.4 0.401 0.925 0.615 1.471 0.615 0.179 0 0.36-0.023 0.54-0.071 2.131-0.561 7.249-2.028 8.762-3.541 1.325-1.325 1.866-3.248 1.47-5.063l2.245-1.122c0.472-0.236 0.791-0.67 0.875-1.191 0.085-0.521-0.081-1.034-0.454-1.407zM10.682 19.682c-1.095 1.095-5.01 2.413-8.309 3.281-0.378 0.098-0.771-6e-3-1.051-0.285-0.278-0.278-0.385-0.671-0.285-1.052 0.867-3.298 2.186-7.212 3.281-8.309 0.85-0.85 2.001-1.305 3.175-1.305 0.483 0 0.971 0.077 1.442 0.236l2.815 2.815c0.544 1.617 0.13 3.418-1.068 4.619zM14.993 12.853c-0.033 0.2-0.155 0.366-0.336 0.457l-2.164 1.082-1.442-1.442-1.442-1.442 1.082-2.164c0.091-0.181 0.257-0.304 0.457-0.336 0.204-0.034 0.396 0.032 0.539 0.174l3.131 3.131c0.144 0.143 0.207 0.34 0.175 0.54z" />
</svg>