<svg id="browsers_Layer_1" viewBox="0 0 24 24" fill="currentColor" width="32" height="32" data-name="Layer 1" xmlns="http://www.w3.org/2000/svg" xmlns:xlink="http://www.w3.org/1999/xlink">
    <title>browsers</title>
    <path d="M19.5 2h-10C7.02 2 5 4.02 5 6.5v7C5 15.98 7.02 18 9.5 18h10c2.48 0 4.5-2.02 4.5-4.5v-7C24 4.02 21.98 2 19.5 2zM9.5 3h10c1.76 0 3.2 1.31 3.45 3H6.05C6.3 4.31 7.74 3 9.5 3zM19.5 17h-10C7.57 17 6 15.43 6 13.5V7h17v6.5c0 1.93-1.57 3.5-3.5 3.5zM17.88 20.17c0.18 0.21 0.16 0.52-0.04 0.71-0.82 0.73-1.88 1.12-2.98 1.12H4.5C2.02 22 0 19.98 0 17.5V9.96c0-1.6 0.86-3.1 2.25-3.9C2.49 5.92 2.79 6 2.93 6.24s0.06 0.54-0.18 0.68C1.67 7.54 1 8.71 1 9.95v7.54c0 1.93 1.57 3.5 3.5 3.5h10.35c0.85 0 1.67-0.31 2.31-0.88 0.21-0.18 0.52-0.16 0.72 0.06z" />
</svg>