<svg id="browser_lock_alert_Layer_1" viewBox="0 0 24 24" fill="currentColor" width="32" height="32" data-name="Layer 1" xmlns="http://www.w3.org/2000/svg" xmlns:xlink="http://www.w3.org/1999/xlink">
    <title>browser-lock-alert</title>
    <path d="M19.5 0h-15C2.019 0 0 2.019 0 4.5v13c0 1.602 0.862 3.096 2.25 3.897 0.235 0.137 0.545 0.059 0.683-0.183 0.139-0.239 0.057-0.545-0.182-0.683-1.08-0.624-1.75-1.786-1.75-3.032V8H23v9.5c0 0.276 0.224 0.5 0.5 0.5s0.5-0.224 0.5-0.5v-13C24 2.019 21.981 0 19.5 0zM1 7V4.5C1 2.57 2.57 1 4.5 1h15C21.43 1 23 2.57 23 4.5V7zM5 4c0 0.552-0.448 1-1 1S3 4.552 3 4 3.448 3 4 3 5 3.448 5 4zM8 4c0 0.552-0.448 1-1 1S6 4.552 6 4 6.448 3 7 3 8 3.448 8 4zM11 4c0 0.552-0.448 1-1 1S9 4.552 9 4s0.448-1 1-1 1 0.448 1 1zM23.418 21.525c0.3 0.516 0.302 1.132 5e-3 1.648-0.297 0.518-0.831 0.826-1.427 0.826h-1.997c-0.276 0-0.5-0.224-0.5-0.5s0.224-0.5 0.5-0.5h1.997c0.594-0.106 0.765-0.404 0.558-0.971l-4.497-7.709c-0.237-0.406-0.877-0.406-1.116 0l-4.496 7.709c-0.207 0.566-0.037 0.865 0.558 0.971H15c0.276 0 0.5 0.224 0.5 0.5s-0.224 0.5-0.5 0.5h-1.997c-0.597 0-1.13-0.309-1.427-0.826s-0.295-1.133 5e-3-1.648l4.497-7.709C16.377 13.304 16.908 13 17.5 13s1.123 0.305 1.421 0.816zM17.5 21c-0.276 0-0.5-0.224-0.5-0.5v-3c0-0.276 0.224-0.5 0.5-0.5s0.5 0.224 0.5 0.5v3c0 0.276-0.224 0.5-0.5 0.5zM18.5 23c0 0.552-0.448 1-1 1s-1-0.448-1-1 0.448-1 1-1 1 0.448 1 1zM12.6 15.8c0.166 0.221 0.48 0.268 0.7 0.1 0.221-0.165 0.265-0.479 0.1-0.699-0.362-0.482-0.853-0.816-1.4-1.01v-1.19c0-1.654-1.346-3-3-3s-3 1.346-3 3v1.184c-1.161 0.414-2 1.514-2 2.816v2c0 1.654 1.346 3 3 3h2.5c0.276 0 0.5-0.224 0.5-0.5s-0.224-0.5-0.5-0.5H7c-1.103 0-2-0.897-2-2v-2c0-1.103 0.897-2 2-2h4c0.635 0 1.218 0.292 1.6 0.799zM7 14v-1c0-1.103 0.897-2 2-2s2 0.897 2 2v1zM9 17c0.552 0 1 0.448 1 1s-0.448 1-1 1-1-0.448-1-1 0.448-1 1-1z" />
</svg>