<svg id="bubble_discussion_Layer_1" viewBox="0 0 24 24" fill="currentColor" width="32" height="32" data-name="Layer 1" xmlns="http://www.w3.org/2000/svg" xmlns:xlink="http://www.w3.org/1999/xlink">
    <title>bubble-discussion</title>
    <path d="M17.977 9.674c0.185-2.62-0.771-5.185-2.622-7.036s-4.407-2.793-7.007-2.616C3.823 0.343 0 4.597 0 9.312V14.5C0 16.79 1.21 18 3.5 18h5.185c4.718 0 8.974-3.812 9.292-8.326zM8.685 17H3.5C1.771 17 1 16.229 1 14.5V9.312C1 4.9 4.719 0.96 8.984 1c4.522-0.099 8.415 4.092 7.995 8.604C16.696 13.614 12.897 17 8.685 17zM24 16.275v4.726C24 22.851 22.851 24 21 24h-4.722c-2.698 0-5.354-1.424-6.932-3.717-0.156-0.228-0.099-0.539 0.129-0.695s0.539-0.1 0.695 0.129C11.563 21.742 13.903 23 16.277 23h4.722c0.913 0 2-0.347 2-1.999v-4.726c0-2.374-1.258-4.713-3.283-6.105-0.228-0.156-0.285-0.468-0.129-0.695 0.158-0.227 0.468-0.285 0.695-0.129 2.292 1.576 3.717 4.231 3.718 6.929zM10 9c0 0.552-0.448 1-1 1S8 9.552 8 9 8.448 8 9 8s1 0.448 1 1zM6 9c0 0.552-0.448 1-1 1S4 9.552 4 9 4.448 8 5 8 6 8.448 6 9zM14 9c0 0.552-0.448 1-1 1s-1-0.448-1-1 0.448-1 1-1 1 0.448 1 1z" />
</svg>