<svg id="budget_Layer_1" viewBox="0 0 24 24" fill="currentColor" width="32" height="32" data-name="Layer 1" xmlns="http://www.w3.org/2000/svg" xmlns:xlink="http://www.w3.org/1999/xlink">
    <title>budget</title>
    <path d="M9 9.495c0 0.664 0.446 1.255 1.085 1.438l4.105 1.173c1.065 0.305 1.81 1.291 1.81 2.399C16 15.881 14.881 17 13.505 17H12.5v1.5c0 0.276-0.224 0.5-0.5 0.5s-0.5-0.224-0.5-0.5V17h-1.005C9.119 17 8 15.881 8 14.505c0-0.276 0.224-0.5 0.5-0.5s0.5 0.224 0.5 0.5C9 15.329 9.671 16 10.495 16h3.01C14.329 16 15 15.329 15 14.505c0-0.664-0.446-1.255-1.085-1.438L9.81 11.894C8.745 11.589 8 10.603 8 9.495 8 8.119 9.119 7 10.495 7H11.5V5.5C11.5 5.224 11.724 5 12 5s0.5 0.224 0.5 0.5V7h1.005C14.881 7 16 8.119 16 9.495c0 0.276-0.224 0.5-0.5 0.5S15 9.771 15 9.495C15 8.671 14.329 8 13.505 8h-3.01C9.671 8 9 8.671 9 9.495zM6.854 17.146c0.195 0.195 0.195 0.512 0 0.707l-1.41 1.41C5.794 19.754 6 20.353 6 21c0 1.654-1.346 3-3 3s-3-1.346-3-3 1.346-3 3-3c0.647 0 1.246 0.207 1.737 0.556l1.41-1.41c0.195-0.195 0.512-0.195 0.707 0zM5 21c0-1.103-0.897-2-2-2s-2 0.897-2 2 0.897 2 2 2 2-0.897 2-2zM6.146 6.854l-1.41-1.41C4.245 5.794 3.646 6 2.999 6c-1.654 0-3-1.346-3-3S1.346 0 3 0 6 1.346 6 3c0 0.647-0.207 1.246-0.556 1.737l1.41 1.41c0.195 0.195 0.195 0.512 0 0.707s-0.512 0.195-0.708 0zM3 1C1.897 1 1 1.897 1 3s0.897 2 2 2 2-0.897 2-2-0.897-2-2-2zM17.854 17.146l1.41 1.41c0.491-0.35 1.09-0.556 1.737-0.556 1.654 0 3 1.346 3 3s-1.346 3-3 3-3-1.346-3-3c0-0.647 0.207-1.246 0.556-1.737l-1.41-1.41c-0.195-0.195-0.195-0.512 0-0.707s0.512-0.195 0.707 0zM21 23c1.103 0 2-0.897 2-2s-0.897-2-2-2-2 0.897-2 2 0.897 2 2 2zM17.146 6.854c-0.195-0.195-0.195-0.512 0-0.707l1.41-1.41C18.206 4.246 18 3.647 18 3c0-1.654 1.346-3 3-3s3 1.346 3 3-1.346 3-3 3c-0.647 0-1.246-0.207-1.737-0.556l-1.41 1.41c-0.195 0.195-0.512 0.195-0.707 0zM19 3c0 1.103 0.897 2 2 2s2-0.897 2-2-0.897-2-2-2-2 0.897-2 2z" />
</svg>