<svg id="bug_report_Layer_1" viewBox="0 0 24 24" fill="currentColor" width="32" height="32" data-name="Layer 1" xmlns="http://www.w3.org/2000/svg" xmlns:xlink="http://www.w3.org/1999/xlink">
    <title>bug-report</title>
    <path d="M10 23.5c0 0.276-0.224 0.5-0.5 0.5h-5C2.019 24 0 21.981 0 19.5v-15C0 2.019 2.019 0 4.5 0h11C17.981 0 20 2.019 20 4.5v6c0 0.276-0.224 0.5-0.5 0.5S19 10.776 19 10.5v-6C19 2.57 17.43 1 15.5 1h-11C2.57 1 1 2.57 1 4.5v15C1 21.43 2.57 23 4.5 23h5c0.276 0 0.5 0.224 0.5 0.5zM8.925 4.146c-0.195-0.195-0.512-0.195-0.707 0L6.572 5.792 4.926 4.146c-0.195-0.195-0.512-0.195-0.707 0s-0.195 0.512 0 0.707l1.646 1.646-1.646 1.646c-0.195 0.195-0.195 0.512 0 0.707s0.512 0.195 0.707 0l1.646-1.646 1.646 1.646c0.195 0.195 0.512 0.195 0.707 0s0.195-0.512 0-0.707L7.279 6.499 8.925 4.853c0.195-0.195 0.195-0.512 0-0.707zM16 6.5C16 6.224 15.776 6 15.5 6h-4C11.224 6 11 6.224 11 6.5S11.224 7 11.5 7h4C15.776 7 16 6.776 16 6.5zM9.146 10.927 6.699 13.374c-0.134 0.135-0.354 0.135-0.49 0l-1.356-1.356c-0.195-0.195-0.512-0.195-0.707 0s-0.195 0.512 0 0.707l1.356 1.356c0.263 0.263 0.607 0.394 0.952 0.394s0.689-0.132 0.952-0.394l2.447-2.447c0.195-0.195 0.195-0.512 0-0.707s-0.512-0.195-0.707 0zM9.146 16.451 6.698 18.898c-0.131 0.132-0.357 0.131-0.489 0l-1.356-1.355c-0.195-0.195-0.512-0.195-0.707 0s-0.195 0.512 0 0.707l1.355 1.355C5.755 19.86 6.094 20 6.454 20s0.698-0.14 0.952-0.395l2.447-2.447c0.195-0.195 0.195-0.512 0-0.707s-0.512-0.195-0.707 0zM21.237 16l0.505 2h1.759c0.276 0 0.5 0.224 0.5 0.5s-0.224 0.5-0.5 0.5h-1.506c0.086 0.293 0.135 0.605 0.131 0.914 0 0.38-0.067 0.739-0.161 1.086h0.036c1.103 0 2 0.897 2 2v0.5c0 0.276-0.224 0.5-0.5 0.5s-0.5-0.224-0.5-0.5V23c0-0.552-0.449-1-1-1h-0.456c-0.711 1.2-2.01 1.999-3.543 2-1.535-1e-3-2.835-0.801-3.546-2h-0.455c-0.551 0-1 0.448-1 1v0.5c0 0.276-0.224 0.5-0.5 0.5s-0.5-0.224-0.5-0.5V23c0-1.103 0.897-2 2-2h0.035c-0.093-0.345-0.159-0.701-0.16-1.078-4e-3-0.316 0.046-0.626 0.132-0.922h-1.507c-0.276 0-0.5-0.224-0.5-0.5s0.224-0.5 0.5-0.5h1.758l0.503-2h-0.761c-1.103 0-2-0.897-2-2v-0.5c0-0.276 0.224-0.5 0.5-0.5s0.5 0.224 0.5 0.5V14c0 0.552 0.449 1 1 1h1.047c0.52-1.216 1.675-1.999 2.953-2 1.295 0 2.464 0.802 2.96 2h1.04c0.551 0 1-0.448 1-1v-0.5c0-0.276 0.224-0.5 0.5-0.5s0.5 0.224 0.5 0.5V14c0 1.103-0.897 2-2 2zM21.125 19.92c-2e-3-0.133-6e-3-0.267-0.031-0.4l-1.033-4.105c-0.305-0.825-1.14-1.413-2.061-1.414-0.92 0-1.755 0.589-2.076 1.464l-1.021 4.068c-0.022 0.113-0.026 0.252-0.028 0.396 2e-3 1.718 1.375 3.07 3.126 3.072 1.75-2e-3 3.122-1.354 3.124-3.081z" />
</svg>