<svg id="bug_folder_Layer_1" viewBox="0 0 24 24" fill="currentColor" width="32" height="32" data-name="Layer 1" xmlns="http://www.w3.org/2000/svg" xmlns:xlink="http://www.w3.org/1999/xlink">
    <title>bug-folder</title>
    <path d="M17.5 8C17.224 8 17 8.224 17 8.5V9c0 0.552-0.449 1-1 1h-1.04C14.464 8.802 13.295 8.001 12 8c-1.278 0-2.433 0.784-2.953 2H8c-0.551 0-1-0.448-1-1V8.5C7 8.224 6.776 8 6.5 8S6 8.224 6 8.5V9c0 1.103 0.897 2 2 2h0.761l-0.503 2H6.5C6.224 13 6 13.224 6 13.5S6.224 14 6.5 14h1.507c-0.086 0.296-0.136 0.605-0.132 0.922 0 0.377 0.066 0.734 0.16 1.078H8c-1.103 0-2 0.897-2 2v0.5C6 18.776 6.224 19 6.5 19S7 18.776 7 18.5V18c0-0.552 0.449-1 1-1h0.455c0.711 1.199 2.011 1.999 3.546 2 1.532-1e-3 2.831-0.8 3.543-2H16c0.551 0 1 0.448 1 1v0.5c0 0.276 0.224 0.5 0.5 0.5s0.5-0.224 0.5-0.5V18c0-1.103-0.897-2-2-2h-0.036c0.094-0.347 0.161-0.706 0.161-1.086 4e-3-0.308-0.046-0.622-0.131-0.914H17.5c0.276 0 0.5-0.224 0.5-0.5S17.776 13 17.5 13h-1.759l-0.505-2h0.763c1.103 0 2-0.897 2-2V8.5c0-0.276-0.224-0.5-0.499-0.5zM12.001 18c-1.751-2e-3-3.124-1.354-3.126-3.072 2e-3-0.144 6e-3-0.282 0.028-0.396l1.021-4.068C10.245 9.589 11.079 9.001 12 9c0.921 0 1.756 0.589 2.061 1.414l1.033 4.105c0.025 0.134 0.029 0.268 0.031 0.4-2e-3 1.726-1.375 3.078-3.124 3.081zM19.5 3h-7.028c-0.231 0-0.464-0.055-0.671-0.158L8.645 1.264C8.3 1.091 7.913 1 7.527 1H4.499C2.019 1 0 3.019 0 5.5v13C0 20.981 2.019 23 4.5 23h15c2.481 0 4.5-2.019 4.5-4.5v-11C24 5.019 21.981 3 19.5 3zM23 18.5c0 1.93-1.57 3.5-3.5 3.5h-15C2.57 22 1 20.43 1 18.5v-13C1 3.57 2.57 2 4.5 2h3.028c0.231 0 0.464 0.055 0.671 0.158l3.156 1.578C11.7 3.909 12.087 4 12.473 4h7.028c1.93 0 3.5 1.57 3.5 3.5z" />
</svg>