<svg id="building_ngo_Layer_1" viewBox="0 0 24 24" fill="currentColor" width="32" height="32" data-name="Layer 1" xmlns="http://www.w3.org/2000/svg" xmlns:xlink="http://www.w3.org/1999/xlink">
    <title>building-ngo</title>
    <path d="M16 10.5v9c0 2.481-2.019 4.5-4.5 4.5h-7C2.019 24 0 21.981 0 19.5v-15C0 2.019 2.019 0 4.5 0 4.776 0 5 0.224 5 0.5S4.776 1 4.5 1C2.57 1 1 2.57 1 4.5v15C1 21.43 2.57 23 4.5 23h7c1.93 0 3.5-1.57 3.5-3.5v-9c0-0.276 0.224-0.5 0.5-0.5s0.5 0.224 0.5 0.5zM4.5 10h-1C3.224 10 3 10.224 3 10.5S3.224 11 3.5 11h1C4.776 11 5 10.776 5 10.5S4.776 10 4.5 10zM4.5 14h-1C3.224 14 3 14.224 3 14.5S3.224 15 3.5 15h1C4.776 15 5 14.776 5 14.5S4.776 14 4.5 14zM4.5 6h-1C3.224 6 3 6.224 3 6.5S3.224 7 3.5 7h1C4.776 7 5 6.776 5 6.5S4.776 6 4.5 6zM7.5 15h1C8.776 15 9 14.776 9 14.5S8.776 14 8.5 14h-1C7.224 14 7 14.224 7 14.5S7.224 15 7.5 15zM4.5 18h-1C3.224 18 3 18.224 3 18.5S3.224 19 3.5 19h1C4.776 19 5 18.776 5 18.5S4.776 18 4.5 18zM7.5 19h1C8.776 19 9 18.776 9 18.5S8.776 18 8.5 18h-1C7.224 18 7 18.224 7 18.5S7.224 19 7.5 19zM12.5 14h-1c-0.276 0-0.5 0.224-0.5 0.5s0.224 0.5 0.5 0.5h1c0.276 0 0.5-0.224 0.5-0.5S12.776 14 12.5 14zM7.5 11h1C8.776 11 9 10.776 9 10.5S8.776 10 8.5 10h-1C7.224 10 7 10.224 7 10.5S7.224 11 7.5 11zM11 10.5c0 0.276 0.224 0.5 0.5 0.5h1c0.276 0 0.5-0.224 0.5-0.5S12.776 10 12.5 10h-1c-0.276 0-0.5 0.224-0.5 0.5zM12.5 18h-1c-0.276 0-0.5 0.224-0.5 0.5s0.224 0.5 0.5 0.5h1c0.276 0 0.5-0.224 0.5-0.5S12.776 18 12.5 18zM24 2.5v3C24 6.879 22.878 8 21.5 8S19 6.879 19 5.5v-3C19 1.121 20.122 0 21.5 0S24 1.121 24 2.5zM23 2.5C23 1.673 22.327 1 21.5 1S20 1.673 20 2.5v3C20 6.327 20.673 7 21.5 7S23 6.327 23 5.5zM15.5 1C16.327 1 17 1.673 17 2.5 17 2.776 17.224 3 17.5 3S18 2.776 18 2.5C18 1.121 16.878 0 15.5 0S13 1.121 13 2.5v3C13 6.879 14.122 8 15.5 8S18 6.879 18 5.5C18 4.673 17.327 4 16.5 4H16c-0.276 0-0.5 0.224-0.5 0.5S15.724 5 16 5h0.5C16.776 5 17 5.225 17 5.5 17 6.327 16.327 7 15.5 7S14 6.327 14 5.5v-3C14 1.673 14.673 1 15.5 1zM7.5 8C7.776 8 8 7.776 8 7.5V1.802l2.488 5.729c0.153 0.345 0.521 0.527 0.886 0.452C11.743 7.905 12 7.587 12 7.211V0.5C12 0.224 11.776 0 11.5 0S11 0.224 11 0.5v5.698L8.512 0.47c-0.153-0.345-0.52-0.53-0.886-0.452C7.257 0.096 7 0.414 7 0.79V7.5C7 7.776 7.224 8 7.5 8z" />
</svg>