<svg id="building_foundation_Layer_1" viewBox="0 0 24 24" fill="currentColor" width="32" height="32" data-name="Layer 1" xmlns="http://www.w3.org/2000/svg" xmlns:xlink="http://www.w3.org/1999/xlink">
    <title>building-foundation</title>
    <path d="M20.5 0C20.224 0 20 0.224 20 0.5v3.853l-7.515-3.928C12.448 0.186 12.25 0 12 0s-0.448 0.186-0.485 0.425L4 4.353V0.5C4 0.224 3.776 0 3.5 0S3 0.224 3 0.5v16.638c0 1.682 0.926 3.21 2.416 3.988l4.519 2.362C10.588 23.829 11.304 24 12.02 24s1.438-0.172 2.094-0.517l4.48-2.356C20.078 20.347 21 18.821 21 17.145V0.5C21 0.224 20.776 0 20.5 0zM4 6.682l6.651 3.476L4 13.634zM4 14.763l7.5-3.919v8.098c-0.38-0.054-0.754-0.148-1.099-0.327L4 14.852zM12.5 10.844 20 14.763v0.089l-6.379 3.75c-0.355 0.185-0.736 0.282-1.121 0.338zM13.349 10.159 20 6.683v6.952zM20 5.555 12.5 9.474V1.562L20 5.481zM11.5 1.562v7.911L4 5.554V5.482zM18.129 20.242l-4.48 2.356c-1.017 0.534-2.233 0.535-3.251 3e-3l-4.519-2.362c-1.159-0.605-1.878-1.794-1.878-3.102V16.01l5.916 3.477c0.649 0.339 1.362 0.51 2.077 0.51 0.722 0 1.446-0.174 2.112-0.522l5.895-3.465v1.134c0 1.304-0.717 2.491-1.872 3.098z" />
</svg>