<svg id="build_Layer_1" viewBox="0 0 24 24" fill="currentColor" width="32" height="32" data-name="Layer 1" xmlns="http://www.w3.org/2000/svg" xmlns:xlink="http://www.w3.org/1999/xlink">
    <title>build</title>
    <path d="M22.5 11h-8c-0.827 0-1.5 0.673-1.5 1.5V17H1.5C0.673 17 0 17.673 0 18.5V20c0 2.206 1.794 4 4 4h16c2.206 0 4-1.794 4-4v-7.5c0-0.827-0.673-1.5-1.5-1.5zM14 12.5c0-0.276 0.225-0.5 0.5-0.5h8c0.275 0 0.5 0.224 0.5 0.5V17h-9zM16 18v5H8v-5zM1 20v-1.5C1 18.224 1.224 18 1.5 18H7v5H4c-1.654 0-3-1.346-3-3zM23 20c0 1.654-1.346 3-3 3h-3v-5h6zM1.073 7.789 7.11 11.06c0.355 0.153 0.73 0.229 1.104 0.229 0.536 0 1.068-0.155 1.531-0.46C10.531 10.312 11 9.442 11 8.501v-2h2.063c0.223 0.862 1.007 1.5 1.937 1.5h5c1.103 0 2-0.897 2-2s-0.897-2-2-2h-5c-0.93 0-1.714 0.638-1.937 1.5H11v-2c0-0.941-0.469-1.811-1.255-2.328s-1.77-0.604-2.676-0.212L1.08 4.208C0.391 4.556-0.037 5.243-0.037 6s0.425 1.439 1.11 1.789zM15 5h5c0.552 0 1 0.449 1 1s-0.448 1-1 1h-5c-0.552 0-1-0.449-1-1s0.448-1 1-1zM1.544 5.093 7.505 1.858c0.232-0.1 0.473-0.149 0.712-0.149 0.341 0 0.677 0.101 0.978 0.298C9.706 2.344 10 2.888 10 3.5v5c0 0.612-0.293 1.156-0.805 1.493-0.512 0.336-1.128 0.389-1.649 0.168L1.544 6.907c0 0-8e-3-4e-3-0.012-7e-3C1.176 6.72 0.963 6.383 0.963 6s0.213-0.72 0.581-0.907z" />
</svg>