<svg id="building_shield_Layer_1" viewBox="0 0 24 24" fill="currentColor" width="32" height="32" data-name="Layer 1" xmlns="http://www.w3.org/2000/svg" xmlns:xlink="http://www.w3.org/1999/xlink">
    <title>building-shield</title>
    <path d="M14 23.5c0 0.276-0.224 0.5-0.5 0.5h-9C2.019 24 0 21.981 0 19.5v-15C0 2.019 2.019 0 4.5 0h7C13.981 0 16 2.019 16 4.5v4C16 8.776 15.776 9 15.5 9S15 8.776 15 8.5v-4C15 2.57 13.43 1 11.5 1h-7C2.57 1 1 2.57 1 4.5v15C1 21.43 2.57 23 4.5 23h9c0.276 0 0.5 0.224 0.5 0.5zM6.5 13h-2C4.224 13 4 13.224 4 13.5S4.224 14 4.5 14h2C6.776 14 7 13.776 7 13.5S6.776 13 6.5 13zM11.5 13h-2C9.224 13 9 13.224 9 13.5S9.224 14 9.5 14h2c0.276 0 0.5-0.224 0.5-0.5S11.776 13 11.5 13zM6.5 17h-2C4.224 17 4 17.224 4 17.5S4.224 18 4.5 18h2C6.776 18 7 17.776 7 17.5S6.776 17 6.5 17zM11.5 17h-2C9.224 17 9 17.224 9 17.5S9.224 18 9.5 18h2c0.276 0 0.5-0.224 0.5-0.5S11.776 17 11.5 17zM6.5 5h-2C4.224 5 4 5.224 4 5.5S4.224 6 4.5 6h2C6.776 6 7 5.776 7 5.5S6.776 5 6.5 5zM11.5 5h-2C9.224 5 9 5.224 9 5.5S9.224 6 9.5 6h2C11.776 6 12 5.776 12 5.5S11.776 5 11.5 5zM6.5 9h-2C4.224 9 4 9.224 4 9.5S4.224 10 4.5 10h2C6.776 10 7 9.776 7 9.5S6.776 9 6.5 9zM11.5 9h-2C9.224 9 9 9.224 9 9.5S9.224 10 9.5 10h2c0.276 0 0.5-0.224 0.5-0.5S11.776 9 11.5 9zM23.999 14v3.413c0 4.098-3.889 5.979-5.08 6.457-0.113 0.042-0.265 0.13-0.418 0.13s-0.324-0.106-0.448-0.165C16.868 23.243 13 21.031 13 17.413V14c0-1.079 0.688-2.033 1.713-2.373l3-0.995c0.508-0.169 1.066-0.167 1.573 0l3 0.995c1.025 0.34 1.713 1.294 1.713 2.373zM22.999 14c0-0.647-0.413-1.22-1.028-1.424l-3-0.995c-0.305-0.1-0.64-0.1-0.945 0l-3 0.995c-0.615 0.204-1.028 0.776-1.028 1.424v3.413c0 3.044 3.445 5 4.501 5.527l0.023 0.012 0.022-0.01c1.046-0.42 4.454-2.059 4.454-5.529z" />
</svg>