<svg id="building_Layer_1" viewBox="0 0 24 24" fill="currentColor" width="32" height="32" data-name="Layer 1" xmlns="http://www.w3.org/2000/svg" xmlns:xlink="http://www.w3.org/1999/xlink">
    <title>building</title>
    <path d="M19.5 5H16V4.5C16 2.019 13.981 0 11.5 0h-7C2.019 0 0 2.019 0 4.5v15C0 21.981 2.019 24 4.5 24h15c2.481 0 4.5-2.019 4.5-4.5v-10C24 7.019 21.981 5 19.5 5zM1 19.5v-15C1 2.57 2.57 1 4.5 1h7C13.43 1 15 2.57 15 4.5V23H4.5C2.57 23 1 21.43 1 19.5zM23 19.5c0 1.93-1.57 3.5-3.5 3.5H16V6h3.5C21.43 6 23 7.57 23 9.5zM7 13.5C7 13.776 6.776 14 6.5 14h-2C4.224 14 4 13.776 4 13.5S4.224 13 4.5 13h2C6.776 13 7 13.224 7 13.5zM7 17.5C7 17.776 6.776 18 6.5 18h-2C4.224 18 4 17.776 4 17.5S4.224 17 4.5 17h2C6.776 17 7 17.224 7 17.5zM12 17.5c0 0.276-0.224 0.5-0.5 0.5h-2C9.224 18 9 17.776 9 17.5S9.224 17 9.5 17h2c0.276 0 0.5 0.224 0.5 0.5zM7 5.5C7 5.776 6.776 6 6.5 6h-2C4.224 6 4 5.776 4 5.5S4.224 5 4.5 5h2C6.776 5 7 5.224 7 5.5zM7 9.5C7 9.776 6.776 10 6.5 10h-2C4.224 10 4 9.776 4 9.5S4.224 9 4.5 9h2C6.776 9 7 9.224 7 9.5zM12 13.5c0 0.276-0.224 0.5-0.5 0.5h-2C9.224 14 9 13.776 9 13.5S9.224 13 9.5 13h2c0.276 0 0.5 0.224 0.5 0.5zM12 5.5C12 5.776 11.776 6 11.5 6h-2C9.224 6 9 5.776 9 5.5S9.224 5 9.5 5h2C11.776 5 12 5.224 12 5.5zM12 9.5c0 0.276-0.224 0.5-0.5 0.5h-2C9.224 10 9 9.776 9 9.5S9.224 9 9.5 9h2C11.776 9 12 9.224 12 9.5zM20 17.5c0 0.276-0.224 0.5-0.5 0.5h-1c-0.276 0-0.5-0.224-0.5-0.5s0.224-0.5 0.5-0.5h1c0.276 0 0.5 0.224 0.5 0.5zM20 9.5c0 0.276-0.224 0.5-0.5 0.5h-1C18.224 10 18 9.776 18 9.5S18.224 9 18.5 9h1C19.776 9 20 9.224 20 9.5zM20 13.5c0 0.276-0.224 0.5-0.5 0.5h-1c-0.276 0-0.5-0.224-0.5-0.5s0.224-0.5 0.5-0.5h1c0.276 0 0.5 0.224 0.5 0.5z" />
</svg>