<svg id="building_xmark_Layer_1" viewBox="0 0 24 24" fill="currentColor" width="32" height="32" data-name="Layer 1" xmlns="http://www.w3.org/2000/svg" xmlns:xlink="http://www.w3.org/1999/xlink">
    <title>building-xmark</title>
    <path d="M23.869 23.162c0.195 0.195 0.195 0.512 0 0.707s-0.512 0.195-0.707 0l-4.146-4.146-4.146 4.146c-0.195 0.195-0.512 0.195-0.707 0s-0.195-0.512 0-0.707l4.146-4.146-4.146-4.146c-0.195-0.195-0.195-0.512 0-0.707s0.512-0.195 0.707 0l4.146 4.146 4.146-4.146c0.195-0.195 0.512-0.195 0.707 0s0.195 0.512 0 0.707l-4.146 4.146zM15 11.5c0 0.276 0.224 0.5 0.5 0.5s0.5-0.224 0.5-0.5v-7C16 2.019 13.981 0 11.5 0h-7C2.019 0 0 2.019 0 4.5v15C0 21.981 2.019 24 4.5 24h7c0.276 0 0.5-0.224 0.5-0.5S11.776 23 11.5 23h-7C2.57 23 1 21.43 1 19.5v-15C1 2.57 2.57 1 4.5 1h7C13.43 1 15 2.57 15 4.5zM6.5 13h-2C4.224 13 4 13.224 4 13.5S4.224 14 4.5 14h2C6.776 14 7 13.776 7 13.5S6.776 13 6.5 13zM11.5 13h-2C9.224 13 9 13.224 9 13.5S9.224 14 9.5 14h2c0.276 0 0.5-0.224 0.5-0.5S11.776 13 11.5 13zM6.5 17h-2C4.224 17 4 17.224 4 17.5S4.224 18 4.5 18h2C6.776 18 7 17.776 7 17.5S6.776 17 6.5 17zM11.5 17h-2C9.224 17 9 17.224 9 17.5S9.224 18 9.5 18h2c0.276 0 0.5-0.224 0.5-0.5S11.776 17 11.5 17zM6.5 5h-2C4.224 5 4 5.224 4 5.5S4.224 6 4.5 6h2C6.776 6 7 5.776 7 5.5S6.776 5 6.5 5zM11.5 5h-2C9.224 5 9 5.224 9 5.5S9.224 6 9.5 6h2C11.776 6 12 5.776 12 5.5S11.776 5 11.5 5zM6.5 9h-2C4.224 9 4 9.224 4 9.5S4.224 10 4.5 10h2C6.776 10 7 9.776 7 9.5S6.776 9 6.5 9zM11.5 9h-2C9.224 9 9 9.224 9 9.5S9.224 10 9.5 10h2c0.276 0 0.5-0.224 0.5-0.5S11.776 9 11.5 9z" />
</svg>