<svg id="building_flag_Layer_1" viewBox="0 0 24 24" fill="currentColor" width="32" height="32" data-name="Layer 1" xmlns="http://www.w3.org/2000/svg" xmlns:xlink="http://www.w3.org/1999/xlink">
    <title>building-flag</title>
    <path d="M11.5 1h-7C2.57 1 1 2.57 1 4.5v15C1 21.43 2.57 23 4.5 23h8c0.276 0 0.5 0.224 0.5 0.5S12.776 24 12.5 24h-8C2.019 24 0 21.981 0 19.5v-15C0 2.019 2.019 0 4.5 0h7C13.981 0 16 2.019 16 4.5v2C16 6.776 15.776 7 15.5 7S15 6.776 15 6.5v-2C15 2.57 13.43 1 11.5 1zM6.5 13h-2C4.224 13 4 13.224 4 13.5S4.224 14 4.5 14h2C6.776 14 7 13.776 7 13.5S6.776 13 6.5 13zM11.5 13h-2C9.224 13 9 13.224 9 13.5S9.224 14 9.5 14h2c0.276 0 0.5-0.224 0.5-0.5S11.776 13 11.5 13zM6.5 17h-2C4.224 17 4 17.224 4 17.5S4.224 18 4.5 18h2C6.776 18 7 17.776 7 17.5S6.776 17 6.5 17zM11.5 17h-2C9.224 17 9 17.224 9 17.5S9.224 18 9.5 18h2c0.276 0 0.5-0.224 0.5-0.5S11.776 17 11.5 17zM6.5 5h-2C4.224 5 4 5.224 4 5.5S4.224 6 4.5 6h2C6.776 6 7 5.776 7 5.5S6.776 5 6.5 5zM11.5 5h-2C9.224 5 9 5.224 9 5.5S9.224 6 9.5 6h2C11.776 6 12 5.776 12 5.5S11.776 5 11.5 5zM6.5 9h-2C4.224 9 4 9.224 4 9.5S4.224 10 4.5 10h2C6.776 10 7 9.776 7 9.5S6.776 9 6.5 9zM11.5 9h-2C9.224 9 9 9.224 9 9.5S9.224 10 9.5 10h2c0.276 0 0.5-0.224 0.5-0.5S11.776 9 11.5 9zM24 13.305c-7e-3 0.734-0.431 1.369-1.106 1.656L16 17.624V23.5c0 0.276-0.224 0.5-0.5 0.5S15 23.776 15 23.5V11.004c0-0.638 0.293-1.223 0.805-1.604 0.514-0.383 1.163-0.497 1.776-0.315 0.313 0.093 0.622 0.208 0.925 0.343l4.437 2.213c0.651 0.29 1.064 0.932 1.057 1.664zM23 13.296c3e-3-0.335-0.178-0.616-0.484-0.752l-4.437-2.213c-0.329-0.13-0.703-0.315-1.075-0.331-0.534-0.01-1.018 0.465-1.004 1.004v5.548l6.519-2.518c0.293-0.125 0.479-0.403 0.481-0.738z" />
</svg>