<svg id="bulb_speech_bubble_Layer_1" viewBox="0 0 24 24" fill="currentColor" width="32" height="32" data-name="Layer 1" xmlns="http://www.w3.org/2000/svg" xmlns:xlink="http://www.w3.org/1999/xlink">
    <title>bulb-speech-bubble</title>
    <path d="M9.279 10.255C9.724 10.508 10 11.023 10 11.598v0.601c0 1.027 0.731 1.802 1.7 1.802h0.6c0.938 0 1.7-0.763 1.7-1.7v-0.723c0-0.564 0.271-1.068 0.708-1.314C16.43 9.289 17.5 7.465 17.5 5.501c0-1.666-0.743-3.224-2.038-4.274-1.295-1.051-2.991-1.451-4.655-1.101-2.112 0.446-3.802 2.176-4.205 4.306-0.447 2.358 0.604 4.645 2.677 5.823zM13 11.577V12.3c0 0.386-0.314 0.7-0.7 0.7h-0.6c-0.406 0-0.7-0.337-0.7-0.802v-0.601c0-0.205-0.031-0.404-0.075-0.598h2.148C13.032 11.186 13 11.378 13 11.577zM7.584 4.617c0.377-2.076 2.305-3.652 4.405-3.615C14.41 0.948 16.551 3.076 16.5 5.5c0 1.604-0.875 3.095-2.284 3.892-0.267 0.151-0.481 0.367-0.668 0.608h-1.049V6.429c0.86-0.224 1.5-1 1.5-1.929 0-0.276-0.224-0.5-0.5-0.5s-0.5 0.224-0.5 0.5c0 0.552-0.449 1-1 1s-1-0.448-1-1c0-0.276-0.224-0.5-0.5-0.5s-0.5 0.224-0.5 0.5c0 0.929 0.64 1.705 1.5 1.929V10h-1.055c-0.187-0.243-0.403-0.462-0.671-0.614C8.076 8.422 7.217 6.55 7.584 4.617zM23 6.5v10c0 2.481-2.019 4.5-4.5 4.5H7.651l-4.09 2.722c-0.276 0.184-0.594 0.276-0.913 0.276-0.267 0-0.534-0.064-0.779-0.195-0.537-0.288-0.87-0.845-0.87-1.453V6.5c0-2.054 1.388-3.847 3.375-4.358 0.267-0.067 0.54 0.092 0.609 0.359s-0.092 0.54-0.36 0.609C3.078 3.507 1.998 4.902 1.998 6.5v15.85c0 0.243 0.128 0.456 0.342 0.571 0.215 0.116 0.464 0.104 0.666-0.031l4.215-2.806C7.303 20.029 7.399 20 7.498 20h11c1.93 0 3.5-1.57 3.5-3.5v-10c0-1.598-1.079-2.992-2.625-3.39-0.268-0.069-0.429-0.342-0.36-0.609 0.069-0.268 0.345-0.428 0.609-0.359C21.609 2.654 22.997 4.447 23 6.5z" />
</svg>