<svg id="bullhorn_Layer_1" viewBox="0 0 24 24" fill="currentColor" width="32" height="32" data-name="Layer 1" xmlns="http://www.w3.org/2000/svg" xmlns:xlink="http://www.w3.org/1999/xlink">
    <title>bullhorn</title>
    <path d="M23.949 9.603c0-1.637-1.318-2.971-2.949-2.999V0.5c0-0.262-0.202-0.479-0.463-0.499-0.258-0.018-0.492 0.166-0.532 0.425C19.523 3.652 15.259 4 13.448 4H5.499C2.467 4 0 6.467 0 9.5c0 1.651 0.738 3.134 1.904 4.143l3.247 8.713c0.229 0.627 0.688 1.128 1.293 1.41 0.336 0.156 0.694 0.235 1.054 0.235 0.289 0 0.579-0.051 0.858-0.153 1.295-0.472 1.964-1.91 1.493-3.204L7.803 15h5.698c2.207 0 5.987 0.465 6.507 3.582 0.041 0.243 0.25 0.418 0.493 0.418 0.014 0 0.028 0 0.042-1e-3 0.259-0.021 0.459-0.238 0.459-0.499v-5.899c1.631-0.028 2.949-1.362 2.947-2.998zM1 9.5C1 7.019 3.019 5 5.5 5H8v9H5.551C3.041 14 1 11.981 1 9.5zM8.909 20.986c0.137 0.376 0.12 0.784-0.049 1.146-0.169 0.363-0.47 0.639-0.846 0.776-0.779 0.284-1.64-0.119-1.924-0.899l-2.788-7.482C3.99 14.83 4.751 15 5.552 15h1.187zM20 16.249C18.771 14.798 16.522 14 13.5 14H9V5h4.449C16.506 5 18.77 4.212 20 2.777zM21 11.601V7.604c1.079 0.027 1.949 0.913 1.949 1.999S22.08 11.574 21 11.601z" />
</svg>