<svg id="bullseye_pointer_Layer_1" viewBox="0 0 24 24" fill="currentColor" width="32" height="32" data-name="Layer 1" xmlns="http://www.w3.org/2000/svg" xmlns:xlink="http://www.w3.org/1999/xlink">
    <title>bullseye-pointer</title>
    <path d="M9.915 12.089 0.33 15.561c-0.161 0.058-0.281 0.195-0.318 0.362s0.014 0.341 0.135 0.462l3.381 3.381-3.369 3.368c-0.195 0.195-0.195 0.512 0 0.707 0.098 0.098 0.226 0.146 0.354 0.146s0.256-0.049 0.354-0.146l3.368-3.368 3.381 3.381C7.711 23.949 7.839 24 7.97 24c0.036 0 0.072-4e-3 0.108-0.012 0.167-0.038 0.304-0.157 0.361-0.318l3.472-9.586 3e-3-9e-3c0.195-0.57 0.052-1.189-0.374-1.615-0.428-0.427-1.046-0.57-1.625-0.371zM10.969 13.749 7.767 22.591 1.409 16.233l8.838-3.201c0.21-0.071 0.428-0.021 0.585 0.136 0.155 0.155 0.206 0.372 0.137 0.581zM24 10c0 5.514-4.486 10-10 10-0.527 0-1.058-0.042-1.578-0.124-0.272-0.043-0.459-0.299-0.416-0.572s0.306-0.463 0.572-0.416c0.469 0.074 0.947 0.111 1.422 0.111 4.963 0 9-4.038 9-9S18.963 1 14 1 5 5.038 5 10c0 0.477 0.037 0.955 0.111 1.422 0.043 0.273-0.144 0.529-0.416 0.572-0.268 0.043-0.529-0.143-0.572-0.416C4.041 11.059 4 10.529 4 10 4 4.486 8.486 0 14 0s10 4.486 10 10zM19 10c0-2.757-2.243-5-5-5-2.605 0-4.747 1.954-4.979 4.545-0.025 0.275-0.276 0.477-0.543 0.453C8.204 9.973 8 9.73 8.025 9.455 8.304 6.345 10.874 4 14.001 4c3.309 0 6 2.691 6 6 0 3.126-2.345 5.695-5.455 5.976-0.016 1e-3-0.03 2e-3-0.046 2e-3-0.256 0-0.474-0.195-0.497-0.455-0.024-0.275 0.178-0.518 0.453-0.543 2.591-0.234 4.545-2.375 4.544-4.98z" />
</svg>