<svg id="bull_market_Layer_1" viewBox="0 0 24 24" fill="currentColor" width="32" height="32" data-name="Layer 1" xmlns="http://www.w3.org/2000/svg" xmlns:xlink="http://www.w3.org/1999/xlink">
    <title>bull-market</title>
    <path d="M18.491 13.911c-0.267-0.266-0.622-0.412-1-0.412h-5e-3c-0.377 2e-3-0.731 0.148-0.997 0.415l-1.854 1.831c-0.598 0.647-0.073 1.787 0.808 1.755h1.558v3c0 0.276 0.224 0.5 0.5 0.5s0.5-0.224 0.5-0.5v-3h1.551c0.901 0.02 1.415-1.114 0.776-1.788zM15.541 16.5c-0.078 0-0.117-0.094-0.062-0.149l1.715-1.726c0 0 2e-3-3e-3 4e-3-4e-3 0.077-0.078 0.181-0.121 0.292-0.122 0.112 0 0.216 0.043 0.297 0.124l1.762 1.727c0.056 0.055 0.017 0.15-0.061 0.15zM9.5 21h-2C6.673 21 6 20.327 6 19.5S6.673 18 7.5 18h1C8.776 18 9 17.776 9 17.5v-6C9 9.019 6.981 7 4.5 7H3.087c9e-3-0.068 8e-3-0.139 0.02-0.206C3.274 5.849 3.727 4.682 5.706 4h9.624c1.979 0.682 2.431 1.849 2.598 2.794 0.012 0.067 0.01 0.138 0.019 0.206h-1.446c-2.055 0-3.847 1.388-4.358 3.375-0.069 0.268 0.092 0.54 0.36 0.609 0.26 0.069 0.541-0.09 0.609-0.359C13.509 9.079 14.904 8 16.502 8h1.471c-0.01 0.143-9e-3 0.283-0.03 0.428-0.04 0.273 0.149 0.527 0.423 0.567 0.268 0.04 0.528-0.149 0.566-0.423 0.095-0.658 0.082-1.304-0.019-1.952-0.196-1.112-0.677-1.971-1.474-2.62 1.951 0.034 3.564-1.548 3.562-3.5 0-0.276-0.224-0.5-0.5-0.5s-0.5 0.224-0.5 0.5c0 1.379-1.122 2.5-2.5 2.5H3.5C2.122 3 1 1.879 1 0.5 1 0.224 0.776 0 0.5 0S0 0.224 0 0.5C-3e-3 2.465 1.634 4.053 3.597 4 2.8 4.649 2.319 5.509 2.123 6.62 2.118 6.977 1.944 7.366 2.049 7.709c0.01 0.795 0.159 1.621 0.468 2.442l2.964 7.888c-0.299 0.412-0.48 0.914-0.48 1.461 0 1.379 1.122 2.5 2.5 2.5h2c0.276 0 0.5-0.224 0.5-0.5S9.777 21 9.5 21zM3.453 9.8C3.224 9.192 3.101 8.587 3.06 8h1.439C5.454 8 6.32 8.387 6.952 9.009 6.423 9.035 5.999 9.464 5.999 10c0 0.552 0.448 1 1 1 0.362 0 0.664-0.202 0.84-0.49 0.094 0.316 0.16 0.644 0.16 0.99V17h-0.5c-0.444 0-0.856 0.126-1.217 0.33zM17.5 11c-3.584 0-6.5 2.916-6.5 6.5s2.916 6.5 6.5 6.5 6.5-2.916 6.5-6.5-2.916-6.5-6.5-6.5zM17.5 23c-3.033 0-5.5-2.468-5.5-5.5s2.467-5.5 5.5-5.5 5.5 2.468 5.5 5.5-2.467 5.5-5.5 5.5z" />
</svg>