<svg id="buoy_Layer_1" viewBox="0 0 24 24" fill="currentColor" width="32" height="32" data-name="Layer 1" xmlns="http://www.w3.org/2000/svg" xmlns:xlink="http://www.w3.org/1999/xlink">
    <title>buoy</title>
    <path d="M23.826 23.113C23.16 23.685 22.302 24 21.409 24c-1.239 0-2.434-0.594-3.137-1.494-0.703 0.9-1.896 1.494-3.136 1.494s-2.434-0.594-3.137-1.494C11.296 23.406 10.102 24 8.862 24s-2.433-0.594-3.136-1.494C5.023 23.406 3.829 24 2.589 24c-0.893 0-1.751-0.315-2.417-0.887-0.209-0.18-0.233-0.496-0.053-0.705s0.495-0.234 0.705-0.054C1.308 22.771 1.935 23 2.589 23c1.168 0 2.315-0.719 2.668-1.673 0.145-0.393 0.793-0.393 0.938 0C6.548 22.281 7.694 23 8.862 23s2.315-0.719 2.668-1.673c0.145-0.393 0.793-0.393 0.938 0 0.353 0.954 1.5 1.673 2.668 1.673s2.314-0.719 2.667-1.673c0.145-0.393 0.793-0.393 0.938 0 0.353 0.954 1.5 1.673 2.668 1.673 0.653 0 1.28-0.229 1.765-0.646 0.211-0.18 0.526-0.155 0.705 0.054 0.181 0.209 0.156 0.525-0.053 0.705zM2.097 17.269C1.601 15.671 2.946 13.919 4.618 14l2.398-8.789C7.37 3.909 8.56 3 9.91 3h0.091V2c0-1.103 0.897-2 2-2s2 0.897 2 2v1h0.091c1.35 0 2.539 0.909 2.894 2.211L19.383 14c1.673-0.081 3.018 1.67 2.521 3.269-0.243 0.873-0.603 1.71-1.065 2.487-0.143 0.238-0.451 0.313-0.686 0.174-0.237-0.142-0.315-0.448-0.174-0.686 0.418-0.702 0.742-1.457 0.962-2.244 0.298-0.962-0.493-2.027-1.503-2H4.562c-1.01-0.027-1.801 1.038-1.503 2 0.221 0.788 0.544 1.543 0.962 2.244 0.142 0.237 0.063 0.544-0.174 0.686-0.233 0.14-0.543 0.066-0.686-0.173-0.463-0.777-0.821-1.614-1.064-2.488zM17.293 14 12 8.707 6.707 14zM16.02 5.474c-0.053-0.196-0.139-0.377-0.244-0.542l-3.069 3.069 5.503 5.503zM11 3h2V2c0-0.551-0.448-1-1-1s-1 0.449-1 1zM9.909 4C9.566 4 9.24 4.089 8.953 4.246L12 7.293l3.047-3.047C14.76 4.089 14.433 4 14.091 4zM5.79 13.503 11.293 8 8.224 4.931C8.119 5.096 8.034 5.277 7.98 5.473z" />
</svg>