<svg id="burger_alt_Layer_1" viewBox="0 0 24 24" fill="currentColor" width="32" height="32" data-name="Layer 1" xmlns="http://www.w3.org/2000/svg" xmlns:xlink="http://www.w3.org/1999/xlink">
    <title>burger-alt</title>
    <path d="M21 13H3c-1.1 0-2-0.9-2-2C1 4.93 5.93 0 12 0s10.99 4.83 11 11c0 1.1-0.9 2-2 2zM12 1C6.49 1 2 5.49 2 11c0 0.55 0.45 1 1 1h18c0.55 0 1-0.45 1-1-0.01-5.61-4.41-10-10-10zM23 15.5c0-0.28-0.22-0.5-0.5-0.5h-21C1.22 15 1 15.22 1 15.5S1.22 16 1.5 16h21c0.28 0 0.5-0.22 0.5-0.5zM18.5 24h-13C3.02 24 1 21.98 1 19.5 1 18.67 1.67 18 2.5 18h19c0.83 0 1.5 0.67 1.5 1.5 0 2.48-2.02 4.5-4.5 4.5zM2.5 19C2.22 19 2 19.22 2 19.5 2 21.43 3.57 23 5.5 23h13c1.93 0 3.5-1.57 3.5-3.5 0-0.28-0.22-0.5-0.5-0.5z" />
</svg>