<svg id="burger_glass_Layer_1" viewBox="0 0 24 24" fill="currentColor" width="32" height="32" data-name="Layer 1" xmlns="http://www.w3.org/2000/svg" xmlns:xlink="http://www.w3.org/1999/xlink">
    <title>burger-glass</title>
    <path d="M19.5 13h-3.49l0.98-10.23c0.08-0.71-0.15-1.41-0.62-1.94S15.22 0 14.51 0H2.5C1.79 0 1.11 0.3 0.64 0.83s-0.7 1.23-0.63 1.93l1.65 17.17C1.88 22.25 3.81 24 6.14 24H19.5c2.48 0 4.5-2.02 4.5-4.5v-2c0-2.48-2.02-4.5-4.5-4.5zM23 17.5V18H10v-0.5c0-1.93 1.57-3.5 3.5-3.5h6c1.93 0 3.5 1.57 3.5 3.5zM18.85 19 17.5 19.9 16.15 19zM1.39 1.5C1.68 1.18 2.07 1 2.51 1H14.5c0.43 0 0.83 0.18 1.12 0.5s0.42 0.73 0.37 1.17l-0.32 3.34H1.33c0 0-0.32-3.35-0.32-3.35C0.96 2.23 1.1 1.82 1.39 1.5zM6.14 23c-1.81 0-3.31-1.36-3.48-3.17L1.42 7h14.16c0 0-0.57 6-0.57 6h-1.5c-2.48 0-4.5 2.02-4.5 4.5v2c0 1.42 0.67 2.67 1.71 3.5zM19.5 23h-6.01C11.56 23 10 21.43 10 19.5V19h4.35l2.87 1.92C17.3 20.98 17.4 21 17.5 21s0.19-0.03 0.28-0.08L20.65 19H23v0.5c0 1.93-1.57 3.5-3.5 3.5z" />
</svg>