<svg id="burnout_Layer_1" viewBox="0 0 24 24" fill="currentColor" width="32" height="32" data-name="Layer 1" xmlns="http://www.w3.org/2000/svg" xmlns:xlink="http://www.w3.org/1999/xlink">
    <title>burnout</title>
    <path d="M9 12c3.309 0 6-2.691 6-6s-2.691-6-6-6-6 2.691-6 6 2.691 6 6 6zM9 1c2.757 0 5 2.243 5 5s-2.243 5-5 5-5-2.243-5-5 2.243-5 5-5zM23.2 19h-0.251c-0.232-1.14-1.242-2-2.449-2h-6c-1.378 0-2.5 1.121-2.5 2.5v2c0 1.379 1.122 2.5 2.5 2.5h6c1.207 0 2.217-0.86 2.449-2H23.2c0.441 0 0.8-0.358 0.8-0.8v-1.4c0-0.441-0.359-0.8-0.8-0.8zM13 21.5v-2c0-0.827 0.673-1.5 1.5-1.5H15v5h-0.5c-0.827 0-1.5-0.673-1.5-1.5zM20.5 23H16v-5h4.5c0.827 0 1.5 0.673 1.5 1.5v2c0 0.827-0.673 1.5-1.5 1.5zM9.999 14.544c-0.016 0.275-0.26 0.498-0.528 0.47C9.315 15.005 9.159 15 9 15c-4.411 0-8 3.589-8 8v0.5C1 23.776 0.776 24 0.5 24S0 23.776 0 23.5V23c0-4.963 4.038-9 9-9 0.178 0 0.354 5e-3 0.529 0.016 0.276 0.017 0.486 0.253 0.47 0.528zM15.5 13c0.295 0 0.431-0.907 0.55-1.707 0.2-1.336 0.448-2.999 1.596-4.147 0.106-0.105 0.254-0.157 0.403-0.144 0.149 0.015 0.284 0.096 0.367 0.22 0.244 0.367 0.78 0.849 1.4 1.407C21.582 10.218 24 12.394 24 15.5c0 0.276-0.224 0.5-0.5 0.5S23 15.776 23 15.5c0-2.661-2.227-4.664-3.853-6.127-0.439-0.395-0.838-0.754-1.15-1.088-0.622 0.908-0.806 2.139-0.958 3.156C16.851 12.699 16.657 14 15.499 14c-0.762 0-1.281-0.549-1.595-1.051-0.296 0.461-0.673 1.188-0.92 2.172-0.067 0.268-0.34 0.426-0.606 0.364-0.268-0.067-0.431-0.339-0.364-0.606 0.527-2.11 1.586-3.188 1.631-3.232 0.123-0.122 0.301-0.171 0.467-0.133 0.168 0.04 0.305 0.164 0.36 0.327C14.574 12.142 14.981 13 15.5 13z" />
</svg>