<svg id="burrito_Layer_1" viewBox="0 0 24 24" fill="currentColor" width="32" height="32" data-name="Layer 1" xmlns="http://www.w3.org/2000/svg" xmlns:xlink="http://www.w3.org/1999/xlink">
    <title>burrito</title>
    <path d="M11 16c0 0.552-0.448 1-1 1s-1-0.448-1-1 0.448-1 1-1 1 0.448 1 1zM8 18c-0.552 0-1 0.448-1 1s0.448 1 1 1 1-0.448 1-1-0.448-1-1-1zM20 5.871V18.5c0 3.033-2.467 5.5-5.5 5.5h-5C6.467 24 4 21.533 4 18.5V5.871C3.175 5.193 2.819 4.112 3.089 3.042c0.235-0.931 0.99-1.693 1.923-1.944 0.544-0.146 1.104-0.129 1.62 0.049 0.331 0.113 0.692-0.072 0.919-0.283 1.131-1.049 2.953-1.13 4.171-0.194 0.164 0.126 0.393 0.126 0.557 0 1.218-0.936 3.041-0.854 4.17 0.194 0.229 0.212 0.588 0.396 0.92 0.284 0.514-0.178 1.075-0.195 1.619-0.049 0.933 0.25 1.688 1.013 1.923 1.943 0.27 1.07-0.087 2.152-0.911 2.829zM18.843 19.68C17.618 13.195 9.373 6.521 5 6.029V18.5C5 20.981 7.019 23 9.5 23h5c2.072 0 3.821-1.407 4.342-3.316 2e-3 6e-3 4e-3 0.01 1e-3-4e-3zM19 6.023c-2.107 0.192-4.707 1.54-5.993 3.139 2.49 2.1 4.759 4.809 5.993 7.676zM19.941 3.286c-0.147-0.584-0.624-1.064-1.212-1.222-0.355-0.095-0.703-0.085-1.035 0.028-0.636 0.22-1.356 0.034-1.926-0.496-0.781-0.724-2.04-0.78-2.881-0.134-0.522 0.401-1.253 0.401-1.775 0-0.84-0.646-2.099-0.59-2.881 0.134-0.569 0.529-1.289 0.715-1.925 0.496-0.332-0.113-0.679-0.124-1.035-0.028-0.588 0.158-1.064 0.638-1.212 1.223C3.898 3.924 4.081 4.566 4.526 5c1.282 7e-3 2.919 0.557 4.646 1.503 0.719-0.921 1.815-1.787 3.099-2.448 0.244-0.128 0.547-0.031 0.673 0.215s0.03 0.547-0.215 0.673c-1.107 0.57-2.05 1.298-2.682 2.068 0.727 0.446 1.461 0.956 2.184 1.52C13.808 6.575 16.998 5.01 19.475 5c0.445-0.435 0.628-1.076 0.466-1.714zM12 17.999c-0.552 0-1 0.448-1 1s0.448 1 1 1 1-0.448 1-1-0.448-1-1-1zM18.842 19.683v-3e-3c-5e-3-0.016-2e-3-4e-3 0 3e-3z" />
</svg>