<svg id="bus_ticket_Layer_1" viewBox="0 0 24 24" fill="currentColor" width="32" height="32" data-name="Layer 1" xmlns="http://www.w3.org/2000/svg" xmlns:xlink="http://www.w3.org/1999/xlink">
    <title>bus-ticket</title>
    <path d="M16.5 9.382C16.073 8.529 15.217 8 14.264 8H9.5C8.121 8 7 9.122 7 10.5v2c0 1.211 0.865 2.222 2.01 2.451C9.01 14.968 9 14.983 9 15c0 0.552 0.448 1 1 1s1-0.448 1-1h3c0 0.552 0.448 1 1 1s1-0.448 1-1c0-4e-3-2e-3-8e-3-2e-3-0.012C17.111 14.926 18 14.01 18 12.882c0-0.327-0.077-0.655-0.224-0.947zM15.605 9.829 16.19 11h-2.191V9h0.264c0.572 0 1.086 0.318 1.342 0.829zM11 11V9h2v2zM9.5 9H10v2H8v-0.5C8 9.673 8.673 9 9.5 9zM15.882 14H9.5C8.673 14 8 13.327 8 12.5V12h8.691l0.191 0.382C16.959 12.536 17 12.71 17 12.882 17 13.498 16.498 14 15.882 14zM23.5 9.5C23.776 9.5 24 9.276 24 9V7.5C24 5.019 21.981 3 19.5 3h-15C2.019 3 0 5.019 0 7.5v9C0 18.981 2.019 21 4.5 21h15c2.481 0 4.5-2.019 4.5-4.5V15c0-0.276-0.224-0.5-0.5-0.5-1.379 0-2.5-1.121-2.5-2.5s1.121-2.5 2.5-2.5zM23 15.465V16.5c0 1.93-1.57 3.5-3.5 3.5h-15C2.57 20 1 18.43 1 16.5v-9C1 5.57 2.57 4 4.5 4h15C21.43 4 23 5.57 23 7.5v1.036C21.306 8.779 20 10.24 20 12s1.306 3.221 3 3.465zM5 5.5v1C5 6.776 4.776 7 4.5 7S4 6.776 4 6.5v-1C4 5.224 4.224 5 4.5 5S5 5.224 5 5.5zM5 9.5v1C5 10.776 4.776 11 4.5 11S4 10.776 4 10.5v-1C4 9.224 4.224 9 4.5 9S5 9.224 5 9.5zM5 13.5v1C5 14.776 4.776 15 4.5 15S4 14.776 4 14.5v-1C4 13.224 4.224 13 4.5 13S5 13.224 5 13.5zM5 17.5v1C5 18.776 4.776 19 4.5 19S4 18.776 4 18.5v-1C4 17.224 4.224 17 4.5 17S5 17.224 5 17.5z" />
</svg>