<svg id="bus_alt_Layer_1" viewBox="0 0 24 24" fill="currentColor" width="32" height="32" data-name="Layer 1" xmlns="http://www.w3.org/2000/svg" xmlns:xlink="http://www.w3.org/1999/xlink">
    <title>bus-alt</title>
    <path d="M22 8V5.229c0-1.998-1.331-3.775-3.236-4.321C16.659 0.305 14.383 0 12 0S7.341 0.306 5.236 0.908C3.33 1.454 2 3.231 2 5.229V8c-1.103 0-2 0.897-2 2v2c0 1.103 0.897 2 2 2v2.5c0 1.557 0.795 2.932 2 3.74v1.26C4 22.878 5.122 24 6.5 24S9 22.878 9 21.5V21h6v0.5c0 1.378 1.121 2.5 2.5 2.5s2.5-1.122 2.5-2.5v-1.26c1.205-0.808 2-2.183 2-3.74V14c1.103 0 2-0.897 2-2v-2c0-1.103-0.897-2-2-2zM12.5 13V6H21v7zM3 13V6h8.5v7zM15 5H9V4.5C9 4.224 9.224 4 9.5 4h5C14.775 4 15 4.224 15 4.5zM5.512 1.869C7.527 1.292 9.71 1 12 1s4.473 0.292 6.488 0.869C19.893 2.272 20.896 3.541 20.991 5h-4.992V4.5c0-0.827-0.673-1.5-1.5-1.5h-5c-0.827 0-1.5 0.673-1.5 1.5V5H3.008c0.096-1.459 1.098-2.728 2.504-3.131zM1 12v-2c0-0.551 0.449-1 1-1v4c-0.551 0-1-0.449-1-1zM8 21.5C8 22.327 7.327 23 6.5 23S5 22.327 5 21.5v-0.757C5.469 20.909 5.974 21 6.5 21H8zM19 21.5c0 0.827-0.673 1.5-1.5 1.5S16 22.327 16 21.5V21h1.5c0.526 0 1.031-0.091 1.5-0.257zM21 16.5c0 1.93-1.57 3.5-3.5 3.5h-11C4.57 20 3 18.43 3 16.5V14h3v1.5C6 15.776 6.224 16 6.5 16S7 15.776 7 15.5V14h10v1.5c0 0.276 0.224 0.5 0.5 0.5s0.5-0.224 0.5-0.5V14h3zM23 12c0 0.551-0.448 1-1 1V9c0.552 0 1 0.449 1 1z" />
</svg>