<svg id="business_meeting_Layer_1" viewBox="0 0 24 24" fill="currentColor" width="32" height="32" data-name="Layer 1" xmlns="http://www.w3.org/2000/svg" xmlns:xlink="http://www.w3.org/1999/xlink">
    <title>business-meeting</title>
    <path d="M21.5 9C22.878 9 24 7.878 24 6.5S22.878 4 21.5 4 19 5.122 19 6.5 20.122 9 21.5 9zM21.5 5C22.327 5 23 5.673 23 6.5S22.327 8 21.5 8 20 7.327 20 6.5 20.673 5 21.5 5zM21.5 10c-1.378 0-2.5 1.122-2.5 2.5V18h-1c-1.103 0-2 0.897-2 2v3.5c0 0.276 0.224 0.5 0.5 0.5s0.5-0.224 0.5-0.5V20c0-0.552 0.449-1 1-1h3.5c1.378 0 2.5-1.121 2.5-2.5v-4c0-1.378-1.122-2.5-2.5-2.5zM23 16.5c0 0.827-0.673 1.5-1.5 1.5H20v-5.5c0-0.827 0.673-1.5 1.5-1.5s1.5 0.673 1.5 1.5zM7 13.5C7 13.224 7.224 13 7.5 13h9c0.276 0 0.5 0.224 0.5 0.5S16.776 14 16.5 14h-9C7.224 14 7 13.776 7 13.5zM24 21.5c0 0.276-0.224 0.5-0.5 0.5h-3c-0.276 0-0.5 0.225-0.5 0.5v1c0 0.276-0.224 0.5-0.5 0.5S19 23.776 19 23.5v-1c0-0.827 0.673-1.5 1.5-1.5h3c0.276 0 0.5 0.224 0.5 0.5zM2.5 9C3.878 9 5 7.878 5 6.5S3.878 4 2.5 4 0 5.122 0 6.5 1.122 9 2.5 9zM2.5 5C3.327 5 4 5.673 4 6.5S3.327 8 2.5 8 1 7.327 1 6.5 1.673 5 2.5 5zM6 18H5v-5.5C5 11.122 3.878 10 2.5 10S0 11.122 0 12.5v4C0 17.879 1.122 19 2.5 19H6c0.551 0 1 0.448 1 1v3.5C7 23.776 7.224 24 7.5 24S8 23.776 8 23.5V20c0-1.103-0.897-2-2-2zM2.5 18C1.673 18 1 17.327 1 16.5v-4C1 11.673 1.673 11 2.5 11S4 11.673 4 12.5V18zM5 22.5v1C5 23.776 4.776 24 4.5 24S4 23.776 4 23.5v-1C4 22.225 3.776 22 3.5 22h-3C0.224 22 0 21.776 0 21.5S0.224 21 0.5 21h3C4.327 21 5 21.673 5 22.5zM9.5 10h5c1.378 0 2.5-1.122 2.5-2.5v-3c0-1.223-0.884-2.239-2.046-2.454C14.739 0.884 13.723 0 12.5 0h-1c-1.223 0-2.239 0.884-2.454 2.046C7.884 2.261 7 3.277 7 4.5v3C7 8.878 8.122 10 9.5 10zM14.5 9h-5C8.673 9 8 8.327 8 7.5V6h3.5v0.5C11.5 6.776 11.724 7 12 7s0.5-0.224 0.5-0.5V6H16v1.5C16 8.327 15.327 9 14.5 9zM11.5 1h1c0.651 0 1.201 0.419 1.408 1h-3.816c0.207-0.581 0.757-1 1.408-1zM9.5 3h5C15.327 3 16 3.673 16 4.5V5H8V4.5C8 3.673 8.673 3 9.5 3z" />
</svg>