<svg id="business_podcast_Layer_1" viewBox="0 0 24 24" fill="currentColor" width="32" height="32" data-name="Layer 1" xmlns="http://www.w3.org/2000/svg" xmlns:xlink="http://www.w3.org/1999/xlink">
    <title>business-podcast</title>
    <path d="M7 16.497l0.038 7C7.04 23.773 6.817 23.998 6.541 24h-3e-3c-0.275 0-0.498-0.222-0.5-0.497l-0.038-7C5.998 16.227 6.221 16.002 6.497 16H6.5c0.275 0 0.498 0.222 0.5 0.497zM1.5 19C1.224 19 1 19.224 1 19.5v4C1 23.776 1.224 24 1.5 24S2 23.776 2 23.5v-4C2 19.224 1.776 19 1.5 19zM11.5 13h-2e-3c-0.276 0-0.499 0.226-0.498 0.502l0.038 10c0 0.275 0.225 0.498 0.5 0.498 0.302-0.021 0.501-0.225 0.5-0.502l-0.038-10C12 13.223 11.775 13 11.5 13zM16.5 15c-0.276 0-0.5 0.224-0.5 0.5v8c0 0.276 0.224 0.5 0.5 0.5s0.5-0.224 0.5-0.5v-8c0-0.276-0.224-0.5-0.5-0.5zM20 6c0 1.103-0.897 2-2 2s-2-0.897-2-2 0.897-2 2-2 2 0.897 2 2zM19 6c0-0.551-0.448-1-1-1s-1 0.449-1 1 0.448 1 1 1 1-0.449 1-1zM18 9c-0.276 0-0.5 0.224-0.5 0.5v3c0 0.276 0.224 0.5 0.5 0.5s0.5-0.224 0.5-0.5v-3C18.5 9.224 18.276 9 18 9zM18 0c-3.309 0-6 2.691-6 6 0 2.036 1.02 3.916 2.727 5.029 0.233 0.151 0.542 0.086 0.692-0.146 0.15-0.231 0.086-0.541-0.146-0.692C13.849 9.263 13 7.696 13 6c0-2.757 2.243-5 5-5s5 2.243 5 5c0 1.696-0.85 3.263-2.273 4.191-0.231 0.151-0.296 0.461-0.146 0.692 0.152 0.234 0.463 0.295 0.692 0.146C22.98 9.915 24 8.035 24 6c0-3.309-2.691-6-6-6zM2.495 3h3.01C6.329 3 7 3.671 7 4.495c0 0.276 0.224 0.5 0.5 0.5S8 4.771 8 4.495C8 3.119 6.881 2 5.505 2H4.5V0.5C4.5 0.224 4.276 0 4 0S3.5 0.224 3.5 0.5V2H2.495C1.119 2 0 3.119 0 4.495 0 5.603 0.744 6.59 1.81 6.894l4.105 1.173C6.554 8.249 7 8.84 7 9.505 7 10.329 6.329 11 5.505 11h-3.01C1.671 11 1 10.329 1 9.505c0-0.276-0.224-0.5-0.5-0.5S0 9.229 0 9.505C0 10.881 1.119 12 2.495 12H3.5v1.5C3.5 13.776 3.724 14 4 14s0.5-0.224 0.5-0.5V12h1.005C6.881 12 8 10.881 8 9.505 8 8.397 7.256 7.41 6.19 7.106L2.085 5.933C1.446 5.751 1 5.16 1 4.495 1 3.671 1.671 3 2.495 3zM21.5 13c-0.276 0-0.5 0.224-0.5 0.5v10c0 0.276 0.224 0.5 0.5 0.5s0.5-0.224 0.5-0.5v-10c0-0.276-0.224-0.5-0.5-0.5z" />
</svg>