<svg id="business_deal_Layer_1" viewBox="0 0 24 24" fill="currentColor" width="32" height="32" data-name="Layer 1" xmlns="http://www.w3.org/2000/svg" xmlns:xlink="http://www.w3.org/1999/xlink">
    <title>business-deal</title>
    <path d="M23.5 19h-5.697l-4.008-3.6c-0.601-0.537-1.51-0.506-2.071 0.064l-1.259 1.278c-0.194 0.194-0.512 0.196-0.708 0-0.194-0.195-0.194-0.513 0-0.708l3.535-3.496c0.369-0.348 0.854-0.54 1.362-0.54 0.433 0 1.431 0.287 2.67 0.768 0.395 0.159 0.83 0.21 1.254 0.232H23.5c0.276 0 0.5-0.224 0.5-0.5s-0.224-0.5-0.5-0.5H19V5.5C19 3.57 17.43 2 15.5 2h-0.551c-0.232-1.14-1.242-2-2.449-2h-1c-1.208 0-2.217 0.86-2.449 2H8.5C6.57 2 5 3.57 5 5.5V12H0.5C0.224 12 0 12.224 0 12.5S0.224 13 0.5 13h4.836c0.481-0.027 0.971-0.107 1.426-0.304C7.755 12.254 8.562 12 9 12c0.496 0 0.972 0.184 1.338 0.518l0.809 0.737-2.097 2.073c-0.584 0.584-0.584 1.536 0 2.121 0.567 0.567 1.554 0.568 2.125-2e-3l1.262-1.282c0.188-0.19 0.49-0.2 0.69-0.021l3.945 3.543-3.592 2.803c-0.842 0.656-2.119 0.656-2.961 0l-4.065-3.173c-0.263-0.205-0.59-0.318-0.923-0.318H0.5c-0.276 0-0.5 0.224-0.5 0.5s0.224 0.5 0.5 0.5h5.031c0.11 0 0.22 0.038 0.308 0.106l4.065 3.173c0.596 0.465 1.34 0.721 2.096 0.721s1.5-0.256 2.096-0.721l4.201-3.279H23.5c0.276 0 0.5-0.224 0.5-0.5s-0.224-0.5-0.5-0.499zM11.5 1h1c0.651 0 1.201 0.419 1.408 1h-3.816c0.207-0.581 0.757-1 1.408-1zM6 5.5C6 4.122 7.121 3 8.5 3h7C16.879 3 18 4.122 18 5.5V6H6zM11.012 11.779C10.46 11.277 9.745 11 8.977 11c-0.716 0-1.82 0.426-2.621 0.782-0.116 0.051-0.236 0.083-0.355 0.116V7h5.5v1.5c0 0.276 0.224 0.5 0.5 0.5s0.5-0.224 0.5-0.5V7h5.5v4.925c-0.106-0.025-0.213-0.05-0.314-0.089-0.981-0.381-2.305-0.835-3.031-0.835-0.765 0-1.492 0.289-2.038 0.803l-0.758 0.75c0 0-0.846-0.774-0.848-0.775z" />
</svg>