<svg id="business_value_Layer_1" viewBox="0 0 24 24" fill="currentColor" width="32" height="32" data-name="Layer 1" xmlns="http://www.w3.org/2000/svg" xmlns:xlink="http://www.w3.org/1999/xlink">
    <title>business-value</title>
    <path d="M19.5 4h-1.551C17.697 1.756 15.81 0 13.5 0h-3C8.19 0 6.303 1.756 6.051 4H4.5C2.019 4 0 6.019 0 8.5v11C0 21.981 2.019 24 4.5 24h8c0.276 0 0.5-0.224 0.5-0.5S12.776 23 12.5 23h-8C2.57 23 1 21.43 1 19.5V14h8.5c0.276 0 0.5-0.224 0.5-0.5S9.776 13 9.5 13H1V8.5C1 6.57 2.57 5 4.5 5h15C21.43 5 23 6.57 23 8.5v3c0 0.276 0.224 0.5 0.5 0.5s0.5-0.224 0.5-0.5v-3C24 6.019 21.981 4 19.5 4zM10.5 1h3c1.758 0 3.204 1.308 3.449 3H7.051C7.296 2.308 8.742 1 10.5 1zM23.986 16.431c-0.035-0.47-0.226-0.929-0.58-1.283l-1.415-1.415c-0.473-0.473-1.1-0.732-1.768-0.732h-5.447c-0.668 0-1.295 0.26-1.768 0.732l-1.415 1.415c-0.38 0.381-0.576 0.892-0.584 1.399-6e-3 0.484 0.154 0.973 0.495 1.371l5.633 5.927C17.232 23.944 17.363 24 17.499 24s0.268-0.057 0.362-0.155l5.65-5.946c0.354-0.418 0.522-0.954 0.475-1.468zM21.284 14.44l1.415 1.415c0.043 0.043 0.065 0.097 0.099 0.146h-2.489l-1-2h0.915c0.395 0 0.781 0.16 1.06 0.439zM15.784 17.001h3.466l-1.746 4.191zM15.838 16.001l0.974-2h1.379l1 2zM13.716 14.44c0.279-0.279 0.666-0.439 1.061-0.439h0.924l-0.975 2h-2.524c0.034-0.048 0.055-0.103 0.098-0.146zM12.106 17.001h2.597l2.044 4.982-4.5-4.734c-0.064-0.075-0.102-0.162-0.141-0.248zM18.262 21.974l2.072-4.973h2.564c-0.036 0.079-0.069 0.161-0.127 0.229z" />
</svg>