<svg id="business_time_Layer_1" viewBox="0 0 24 24" fill="currentColor" width="32" height="32" data-name="Layer 1" xmlns="http://www.w3.org/2000/svg" xmlns:xlink="http://www.w3.org/1999/xlink">
    <title>business-time</title>
    <path d="M17.5 11c-3.584 0-6.5 2.916-6.5 6.5s2.916 6.5 6.5 6.5 6.5-2.916 6.5-6.5-2.916-6.5-6.5-6.5zM17.5 23c-3.032 0-5.5-2.467-5.5-5.5s2.468-5.5 5.5-5.5 5.5 2.467 5.5 5.5-2.468 5.5-5.5 5.5zM18.854 18.146c0.195 0.195 0.195 0.512 0 0.707-0.098 0.098-0.226 0.146-0.354 0.146s-0.256-0.049-0.354-0.146l-1-1C17.052 17.759 17 17.632 17 17.499v-2c0-0.276 0.224-0.5 0.5-0.5s0.5 0.224 0.5 0.5v1.793zM19.5 4h-2.028c-0.25-2.247-2.16-4-4.472-4h-2.5C8.188 0 6.277 1.753 6.028 4H4.5C2.019 4 0 6.019 0 8.5v11C0 21.981 2.019 24 4.5 24h6c0.276 0 0.5-0.224 0.5-0.5S10.776 23 10.5 23h-6C2.57 23 1 21.43 1 19.5V13h8.5c0.276 0 0.5-0.224 0.5-0.5S9.776 12 9.5 12H1V8.5C1 6.57 2.57 5 4.5 5h15C21.43 5 23 6.57 23 8.5v2c0 0.276 0.224 0.5 0.5 0.5s0.5-0.224 0.5-0.5v-2C24 6.019 21.981 4 19.5 4zM10.5 1H13c1.76 0 3.221 1.306 3.464 3H7.036C7.279 2.306 8.74 1 10.5 1z" />
</svg>