<svg id="Butter_Layer_1" viewBox="0 0 24 24" fill="currentColor" width="32" height="32" data-name="Layer 1" xmlns="http://www.w3.org/2000/svg" xmlns:xlink="http://www.w3.org/1999/xlink">
    <title>Butter</title>
    <path d="M23.5 16H23V6.5C23 4.019 20.981 2 18.5 2h-13C3.019 2 1 4.019 1 6.5V16H0.5C0.224 16 0 16.224 0 16.5S0.224 17 0.5 17H1v0.5C1 19.43 2.57 21 4.5 21h15c1.93 0 3.5-1.57 3.5-3.5V17h0.5c0.276 0 0.5-0.224 0.5-0.5S23.776 16 23.5 16zM18.5 3C20.43 3 22 4.57 22 6.5V16h-3V6.5c0-1.421-0.675-2.675-1.706-3.5zM5.5 3h9C16.43 3 18 4.57 18 6.5V16H2V6.5C2 4.57 3.57 3 5.5 3zM19.5 20h-15C3.121 20 2 18.879 2 17.5V17h20v0.5c0 1.379-1.121 2.5-2.5 2.5z" />
</svg>