<svg id="cactus_Layer_1" viewBox="0 0 24 24" fill="currentColor" width="32" height="32" data-name="Layer 1" xmlns="http://www.w3.org/2000/svg" xmlns:xlink="http://www.w3.org/1999/xlink">
    <title>cactus</title>
    <path d="M14 12c0 0.552-0.448 1-1 1s-1-0.448-1-1 0.448-1 1-1 1 0.448 1 1zM11 18c-0.552 0-1 0.448-1 1s0.448 1 1 1 1-0.448 1-1-0.448-1-1-1zM11.25 4c-0.552 0-1 0.448-1 1s0.448 1 1 1 1-0.448 1-1-0.448-1-1-1zM17 20.5V20h2.5c2.481 0 4.5-2.019 4.5-4.5v-3c0-0.735-0.321-1.429-0.881-1.905s-1.305-0.679-2.035-0.561C19.896 10.228 19 11.334 19 12.608v1.893c0 0.276-0.225 0.5-0.5 0.5h-1c-0.275 0-0.5-0.224-0.5-0.5V5.193c0-2.657-1.981-4.928-4.51-5.17-1.436-0.138-2.799 0.317-3.853 1.276C7.596 2.245 6.999 3.594 6.999 5v4.5c0 0.276-0.225 0.5-0.5 0.5h-1c-0.275 0-0.5-0.224-0.5-0.5V7.607c0-1.274-0.896-2.38-2.084-2.574C2.186 4.914 1.44 5.119 0.88 5.594 0.32 6.07-1e-3 6.764-1e-3 7.499v3c0 2.481 2.019 4.5 4.5 4.5h2.5v5.5c0 1.93 1.57 3.5 3.5 3.5h3c1.93 0 3.5-1.57 3.501-3.499zM2.756 6.021C3.465 6.136 4 6.818 4 7.607V9.5C4 10.327 4.673 11 5.5 11h1C7.327 11 8 10.327 8 9.5V5c0-1.125 0.478-2.204 1.31-2.96 0.844-0.768 1.945-1.13 3.085-1.021C14.416 1.212 16 3.046 16 5.194v9.307c0 0.827 0.673 1.5 1.5 1.5h1c0.827 0 1.5-0.673 1.5-1.5v-1.893c0-0.789 0.535-1.471 1.244-1.586v0c0.451-0.073 0.885 0.046 1.227 0.335C22.808 11.643 23 12.06 23 12.501v3c0 1.93-1.57 3.5-3.5 3.5h-3c-0.276 0-0.5 0.224-0.5 0.5v1c0 1.378-1.121 2.5-2.5 2.5h-3c-1.379 0-2.5-1.122-2.5-2.5v-6c0-0.276-0.224-0.5-0.5-0.5h-3c-1.93 0-3.5-1.57-3.5-3.5v-3C1 7.06 1.192 6.643 1.529 6.357 1.804 6.123 2.141 6 2.498 6c0.085 0 0.171 7e-3 0.258 0.021zM21.164 10.527h0.01z" />
</svg>