<svg id="cage_empty_Layer_1" viewBox="0 0 24 24" fill="currentColor" width="32" height="32" data-name="Layer 1" xmlns="http://www.w3.org/2000/svg" xmlns:xlink="http://www.w3.org/1999/xlink">
    <title>cage-empty</title>
    <path d="M21.5 23H20V10c0-4.411-3.589-8-8-8s-8 3.589-8 8v13H2.5C2.224 23 2 23.224 2 23.5S2.224 24 2.5 24h19c0.276 0 0.5-0.224 0.5-0.5S21.776 23 21.5 23zM15.963 10h-1.976c-0.037-1.736-0.196-4.845-0.817-6.635 1.463 0.93 2.589 3.539 2.793 6.635zM12.983 10h-1.967c0.082-3.98 0.625-6.322 0.983-6.904 0.359 0.582 0.902 2.924 0.984 6.904zM10.829 3.365C10.208 5.155 10.05 8.264 10.012 10H8.036c0.204-3.097 1.33-5.705 2.793-6.635zM10 11v12H8V11zM11 11h2v12h-2zM14 11h2v12h-2zM17 11h2v12h-2zM19 10h-2.031c-0.156-2.653-0.929-4.923-2.063-6.36C17.318 4.746 19 7.178 19 10zM9.094 3.64C7.96 5.078 7.187 7.347 7.031 10H5c0-2.822 1.682-5.254 4.094-6.36zM5 11h2v12H5zM12 2c-0.552 0-1-0.448-1-1s0.448-1 1-1 1 0.448 1 1-0.448 1-1 1z" />
</svg>