<svg id="cake_slice_Layer_1" viewBox="0 0 24 24" fill="currentColor" width="32" height="32" data-name="Layer 1" xmlns="http://www.w3.org/2000/svg" xmlns:xlink="http://www.w3.org/1999/xlink">
    <title>cake-slice</title>
    <path d="M23.325 9.426c-1.028-1.889-3.349-5.504-7.347-8.493C15.145 0.31 14.142-0.013 13.09 0c-0.954 0.011-1.879 0.298-2.677 0.83-0.031 0.021-8.904 9.38-8.904 9.38-0.972 1.025-1.508 2.369-1.508 3.783V19.5c0 2.481 2.019 4.5 4.5 4.5h15c2.481 0 4.5-2.019 4.5-4.5v-7.375c0-0.954-0.233-1.887-0.676-2.699zM1 19v-2h22v2zM1 13.993C1 13.654 1.048 13.324 1.122 13H23v3H1zM2.233 10.898l8.78-9.266C11.638 1.227 12.36 1.009 13.101 1c0.784-0.022 1.622 0.245 2.278 0.734 3.846 2.875 6.079 6.353 7.067 8.169 0.343 0.631 0.527 1.354 0.546 2.097H1.486c0.197-0.396 0.436-0.774 0.747-1.102zM19.5 23.001h-15c-1.758 0-3.204-1.308-3.449-3H22.95c-0.245 1.692-1.691 3-3.45 3z" />
</svg>