<svg id="cake_wedding_Layer_1" viewBox="0 0 24 24" fill="currentColor" width="32" height="32" data-name="Layer 1" xmlns="http://www.w3.org/2000/svg" xmlns:xlink="http://www.w3.org/1999/xlink">
    <title>cake-wedding</title>
    <path d="M23.5 23H22v-5.5c0-1.956-1.254-3.624-3-4.243V11.5c0-1.127-0.536-2.131-1.366-2.772L16.51 4.031C16.391 3.433 15.862 3 15.253 3h-0.486c-0.608 0-1.138 0.434-1.254 1.018L12.602 8h-2.257L11 4.25C11 3.561 10.439 3 9.75 3h-1.5C7.561 3 7 3.561 7.008 4.341l0.696 3.751C6.156 8.453 5 9.845 5 11.501v1.757c-1.746 0.619-3 2.287-3 4.243v1.768c0 0 0 2e-3 0 3e-3v3.729H0.5c-0.276 0-0.5 0.224-0.5 0.5s0.224 0.5 0.5 0.5h23c0.276 0 0.5-0.224 0.5-0.5s-0.224-0.5-0.5-0.501zM14.49 4.227C14.516 4.096 14.633 4 14.766 4h0.486c0.134 0 0.25 0.096 0.28 0.245l0.931 3.89C16.157 8.047 15.833 8 15.499 8h-1.873zM8.25 4h1.5C9.888 4 10 4.112 10.008 4.163L9.331 8H8.704L8.001 4.25C8.001 4.112 8.113 4 8.25 4zM6 11.5C6 10.121 7.122 9 8.5 9h7c1.379 0 2.5 1.121 2.5 2.5v1.528C17.836 13.01 17.669 13 17.5 13h-11c-0.169 0-0.336 0.01-0.5 0.028zM6.5 14h11c1.93 0 3.5 1.57 3.5 3.5v1.403C20.759 18.967 20.508 19 20.25 19 18.982 19 18 18.193 18 17.5c0-0.276-0.224-0.5-0.5-0.5S17 17.224 17 17.5c0 0.693-0.982 1.5-2.25 1.5s-2.25-0.807-2.25-1.5c0-0.276-0.224-0.5-0.5-0.5s-0.5 0.224-0.5 0.5c0 0.693-0.983 1.5-2.25 1.5S7 18.193 7 17.5C7 17.224 6.776 17 6.5 17S6 17.224 6 17.5C6 18.193 5.017 19 3.75 19 3.496 19 3.242 18.966 3 18.901V17.5C3 15.57 4.57 14 6.5 14zM3 19.928C3.244 19.976 3.495 20 3.75 20c1.127 0 2.163-0.495 2.75-1.208C7.087 19.505 8.123 20 9.25 20s2.164-0.495 2.75-1.207C12.586 19.505 13.623 20 14.75 20s2.163-0.495 2.75-1.208C18.087 19.505 19.123 20 20.25 20c0.255 0 0.505-0.024 0.75-0.071V23H3zM8 1c0-0.552 0.448-1 1-1s1 0.448 1 1-0.448 1-1 1-1-0.448-1-1zM14 1c0-0.552 0.448-1 1-1s1 0.448 1 1-0.448 1-1 1-1-0.448-1-1z" />
</svg>