<svg id="calculator_Layer_1" viewBox="0 0 24 24" fill="currentColor" width="32" height="32" data-name="Layer 1" xmlns="http://www.w3.org/2000/svg" xmlns:xlink="http://www.w3.org/1999/xlink">
    <title>calculator</title>
    <path d="M18.5 24h-13C3.019 24 1 21.981 1 19.5v-15C1 2.019 3.019 0 5.5 0h13C20.981 0 23 2.019 23 4.5v15c0 2.481-2.019 4.5-4.5 4.5zM5.5 1C3.57 1 2 2.57 2 4.5v15C2 21.43 3.57 23 5.5 23h13c1.93 0 3.5-1.57 3.5-3.5v-15C22 2.57 20.43 1 18.5 1zM17 8H7C5.897 8 5 7.103 5 6s0.897-2 2-2h10c1.103 0 2 0.897 2 2s-0.897 2-2 2zM7 5C6.449 5 6 5.448 6 6s0.449 1 1 1h10c0.551 0 1-0.448 1-1s-0.449-1-1-1zM19 19.5c0-0.276-0.224-0.5-0.5-0.5h-5c-0.276 0-0.5 0.224-0.5 0.5s0.224 0.5 0.5 0.5h5c0.276 0 0.5-0.224 0.5-0.5zM7 15.5C7 15.224 6.776 15 6.5 15h-1C5.224 15 5 15.224 5 15.5S5.224 16 5.5 16h1C6.776 16 7 15.776 7 15.5zM11 15.5c0-0.276-0.224-0.5-0.5-0.5h-1C9.224 15 9 15.224 9 15.5S9.224 16 9.5 16h1c0.276 0 0.5-0.224 0.5-0.5zM7 19.5C7 19.224 6.776 19 6.5 19h-1C5.224 19 5 19.224 5 19.5S5.224 20 5.5 20h1C6.776 20 7 19.776 7 19.5zM11 19.5c0-0.276-0.224-0.5-0.5-0.5h-1C9.224 19 9 19.224 9 19.5S9.224 20 9.5 20h1c0.276 0 0.5-0.224 0.5-0.5zM15 15.5c0-0.276-0.224-0.5-0.5-0.5h-1c-0.276 0-0.5 0.224-0.5 0.5s0.224 0.5 0.5 0.5h1c0.276 0 0.5-0.224 0.5-0.5zM19 15.5c0-0.276-0.224-0.5-0.5-0.5h-1c-0.276 0-0.5 0.224-0.5 0.5s0.224 0.5 0.5 0.5h1c0.276 0 0.5-0.224 0.5-0.5zM7 11.5C7 11.224 6.776 11 6.5 11h-1C5.224 11 5 11.224 5 11.5S5.224 12 5.5 12h1C6.776 12 7 11.776 7 11.5zM11 11.5c0-0.276-0.224-0.5-0.5-0.5h-1C9.224 11 9 11.224 9 11.5S9.224 12 9.5 12h1c0.276 0 0.5-0.224 0.5-0.5zM15 11.5c0-0.276-0.224-0.5-0.5-0.5h-1c-0.276 0-0.5 0.224-0.5 0.5s0.224 0.5 0.5 0.5h1c0.276 0 0.5-0.224 0.5-0.5zM19 11.5c0-0.276-0.224-0.5-0.5-0.5h-1c-0.276 0-0.5 0.224-0.5 0.5s0.224 0.5 0.5 0.5h1c0.276 0 0.5-0.224 0.5-0.5z" />
</svg>