<svg id="calculator_math_tax_Layer_1" viewBox="0 0 24 24" fill="currentColor" width="32" height="32" data-name="Layer 1" xmlns="http://www.w3.org/2000/svg" xmlns:xlink="http://www.w3.org/1999/xlink">
    <title>calculator-math-tax</title>
    <path d="M4.5 12C4.224 12 4 11.776 4 11.5S4.224 11 4.5 11h1C5.776 11 6 11.224 6 11.5S5.776 12 5.5 12zM9.5 12c0.276 0 0.5-0.224 0.5-0.5S9.776 11 9.5 11h-1C8.224 11 8 11.224 8 11.5S8.224 12 8.5 12zM12.5 16.5c0-0.276-0.224-0.5-0.5-0.5H7c-0.276 0-0.5 0.224-0.5 0.5S6.724 17 7 17h2v6.5C9 23.776 9.224 24 9.5 24s0.5-0.224 0.5-0.5V17h2c0.276 0 0.5-0.224 0.5-0.5zM6.5 23h-2C2.57 23 1 21.43 1 19.5v-15C1 2.57 2.57 1 4.5 1h13C19.43 1 21 2.57 21 4.5v9c0 0.276 0.224 0.5 0.5 0.5s0.5-0.224 0.5-0.5v-9C22 2.019 19.981 0 17.5 0h-13C2.019 0 0 2.019 0 4.5v15C0 21.981 2.019 24 4.5 24h2C6.776 24 7 23.776 7 23.5S6.776 23 6.5 23zM17.5 11h-1c-0.276 0-0.5 0.224-0.5 0.5s0.224 0.5 0.5 0.5h1c0.276 0 0.5-0.224 0.5-0.5S17.776 11 17.5 11zM18 5.5v1C18 7.327 17.327 8 16.5 8h-11C4.673 8 4 7.327 4 6.5v-1C4 4.673 4.673 4 5.5 4h11C17.327 4 18 4.673 18 5.5zM17 5.5C17 5.224 16.775 5 16.5 5h-11C5.225 5 5 5.224 5 5.5v1C5 6.776 5.225 7 5.5 7h11C16.775 7 17 6.776 17 6.5zM22.076 20l1.858-3.252c0.137-0.24 0.054-0.545-0.187-0.682-0.237-0.138-0.544-0.056-0.683 0.186l-1.565 2.74-1.565-2.74c-0.139-0.242-0.446-0.324-0.683-0.186-0.24 0.137-0.323 0.442-0.187 0.682L20.922 20l-1.858 3.252c-0.137 0.24-0.054 0.545 0.187 0.682C19.329 23.979 19.414 24 19.499 24c0.173 0 0.342-0.09 0.435-0.252l1.565-2.74 1.565 2.74C23.157 23.91 23.326 24 23.499 24c0.085 0 0.17-0.021 0.248-0.066 0.24-0.137 0.323-0.442 0.187-0.682zM16.316 17.038l1.667 6.334c0.07 0.267-0.112 0.627-0.483 0.627-0.222 0-0.425-0.148-0.483-0.373l-0.428-1.627h-3.177l-0.428 1.627c-0.07 0.267-0.346 0.426-0.61 0.356-0.268-0.07-0.427-0.344-0.356-0.611l1.667-6.334c0.16-0.607 0.688-1.015 1.316-1.015s1.156 0.408 1.315 1.016zM16.325 21l-0.976-3.707c-0.066-0.25-0.284-0.27-0.35-0.27s-0.283 0.019-0.35 0.27L13.673 21zM13.5 12c0.276 0 0.5-0.224 0.5-0.5S13.776 11 13.5 11h-1c-0.276 0-0.5 0.224-0.5 0.5s0.224 0.5 0.5 0.5z" />
</svg>