<svg id="calculator_bill_Layer_1" viewBox="0 0 24 24" fill="currentColor" width="32" height="32" data-name="Layer 1" xmlns="http://www.w3.org/2000/svg" xmlns:xlink="http://www.w3.org/1999/xlink">
    <title>calculator-bill</title>
    <path d="M8.5 11h-6C1.122 11 0 12.122 0 13.5v8C0 22.878 1.122 24 2.5 24h6c1.378 0 2.5-1.122 2.5-2.5v-8c0-1.378-1.122-2.5-2.5-2.5zM10 21.5c0 0.827-0.673 1.5-1.5 1.5h-6C1.673 23 1 22.327 1 21.5v-8C1 12.673 1.673 12 2.5 12h6c0.827 0 1.5 0.673 1.5 1.5zM8 14.5C8 14.776 7.776 15 7.5 15h-4C3.224 15 3 14.776 3 14.5S3.224 14 3.5 14h4C7.776 14 8 14.224 8 14.5zM8 17.5C8 17.776 7.776 18 7.5 18h-1C6.224 18 6 17.776 6 17.5S6.224 17 6.5 17h1C7.776 17 8 17.224 8 17.5zM5 17.5C5 17.776 4.776 18 4.5 18h-1C3.224 18 3 17.776 3 17.5S3.224 17 3.5 17h1C4.776 17 5 17.224 5 17.5zM8 20.5C8 20.776 7.776 21 7.5 21h-1C6.224 21 6 20.776 6 20.5S6.224 20 6.5 20h1C7.776 20 8 20.224 8 20.5zM5 20.5C5 20.776 4.776 21 4.5 21h-1C3.224 21 3 20.776 3 20.5S3.224 20 3.5 20h1C4.776 20 5 20.224 5 20.5zM21 0H6C4.346 0 3 1.346 3 3v5.5C3 8.776 3.224 9 3.5 9S4 8.776 4 8.5V3c0-1.103 0.897-2 2-2s2 0.897 2 2 0.897 2 2 2h10v14.5c0 1.93-1.57 3.5-3.5 3.5h-3c-0.276 0-0.5 0.224-0.5 0.5s0.224 0.5 0.5 0.5h3c2.481 0 4.5-2.019 4.5-4.5V5h1c1.103 0 2-0.897 2-2 0-1.654-1.346-3-3-3zM22 4H10C9.449 4 9 3.551 9 3 9 2.232 8.71 1.531 8.234 1H21c1.103 0 2 0.897 2 2 0 0.551-0.449 1-1 1z" />
</svg>