<svg id="calendar_update_Layer_1" viewBox="0 0 24 24" fill="currentColor" width="32" height="32" data-name="Layer 1" xmlns="http://www.w3.org/2000/svg" xmlns:xlink="http://www.w3.org/1999/xlink">
    <title>calendar-update</title>
    <path d="M19.5 2H18V0.5C18 0.224 17.776 0 17.5 0S17 0.224 17 0.5V2H7V0.5C7 0.224 6.776 0 6.5 0S6 0.224 6 0.5V2H4.5C2.019 2 0 4.019 0 6.5v13C0 21.981 2.019 24 4.5 24h15c2.481 0 4.5-2.019 4.5-4.5v-13C24 4.019 21.981 2 19.5 2zM4.5 3h15C21.43 3 23 4.57 23 6.5V8H1V6.5C1 4.57 2.57 3 4.5 3zM19.5 23h-15C2.57 23 1 21.43 1 19.5V9h22v10.5c0 1.93-1.57 3.5-3.5 3.5zM17 11.5V14c0 0.552-0.448 1-1 1h-2.5c-0.276 0-0.5-0.224-0.5-0.5s0.224-0.5 0.5-0.5h1.957c-0.706-1.217-2.015-2-3.457-2-1.692 0-3.209 1.072-3.772 2.667-0.093 0.262-0.375 0.398-0.639 0.305-0.26-0.092-0.396-0.377-0.305-0.638 0.705-1.994 2.601-3.333 4.716-3.333 1.6 0 3.072 0.768 4 2.004v-1.504c0-0.276 0.224-0.5 0.5-0.5S17 11.225 17 11.5zM16.716 17.667C16.011 19.661 14.115 21 12 21c-1.6 0-3.072-0.768-4-2.004V20.5C8 20.776 7.776 21 7.5 21S7 20.776 7 20.5V18c0-0.552 0.448-1 1-1h2.5c0.276 0 0.5 0.224 0.5 0.5S10.776 18 10.5 18H8.543c0.706 1.217 2.015 2 3.457 2 1.692 0 3.209-1.072 3.772-2.667 0.093-0.261 0.377-0.396 0.639-0.305 0.26 0.092 0.396 0.377 0.305 0.639z" />
</svg>