<svg id="calendar_lines_Layer_1" viewBox="0 0 24 24" fill="currentColor" width="32" height="32" data-name="Layer 1" xmlns="http://www.w3.org/2000/svg" xmlns:xlink="http://www.w3.org/1999/xlink">
    <title>calendar-lines</title>
    <path d="M19.5 2H18V0.5C18 0.224 17.776 0 17.5 0S17 0.224 17 0.5V2H7V0.5C7 0.224 6.776 0 6.5 0S6 0.224 6 0.5V2H4.5C2.019 2 0 4.019 0 6.5v13C0 21.981 2.019 24 4.5 24h15c2.481 0 4.5-2.019 4.5-4.5v-13C24 4.019 21.981 2 19.5 2zM4.5 3h15C21.43 3 23 4.57 23 6.5V8H1V6.5C1 4.57 2.57 3 4.5 3zM19.5 23h-15C2.57 23 1 21.43 1 19.5V9h22v10.5c0 1.93-1.57 3.5-3.5 3.5zM19 13.5c0 0.276-0.224 0.5-0.5 0.5h-13C5.224 14 5 13.776 5 13.5S5.224 13 5.5 13h13c0.276 0 0.5 0.224 0.5 0.5zM12 18.5c0 0.276-0.224 0.5-0.5 0.5h-6C5.224 19 5 18.776 5 18.5S5.224 18 5.5 18h6c0.276 0 0.5 0.224 0.5 0.5z" />
</svg>