<svg id="calendar_days_Layer_1" viewBox="0 0 24 24" fill="currentColor" width="32" height="32" data-name="Layer 1" xmlns="http://www.w3.org/2000/svg" xmlns:xlink="http://www.w3.org/1999/xlink">
    <title>calendar-days</title>
    <path d="M19.5 2H18V0.5C18 0.22 17.78 0 17.5 0S17 0.22 17 0.5V2H7V0.5C7 0.22 6.78 0 6.5 0S6 0.22 6 0.5V2H4.5C2.02 2 0 4.02 0 6.5v13C0 21.98 2.02 24 4.5 24h15c2.48 0 4.5-2.02 4.5-4.5v-13C24 4.02 21.98 2 19.5 2zM11.5 9v4H7V9zM17 9v4h-4.5V9zM23 9v4h-5V9zM6 13H1V9h5zM1 14h5v4H1zM7 14h4.5v4H7zM11.5 19v4H7v-4zM12.5 19H17v4h-4.5zM12.5 18v-4H17v4zM18 14h5v4h-5zM4.5 3h15C21.43 3 23 4.57 23 6.5V8H1V6.5C1 4.57 2.57 3 4.5 3zM1 19.5V19h5v4H4.5C2.57 23 1 21.43 1 19.5zM19.5 23H18v-4h5v0.5c0 1.93-1.57 3.5-3.5 3.5z" />
</svg>