<svg id="calendar_lines_pen_Layer_1" viewBox="0 0 24 24" fill="currentColor" width="32" height="32" data-name="Layer 1" xmlns="http://www.w3.org/2000/svg" xmlns:xlink="http://www.w3.org/1999/xlink">
    <title>calendar-lines-pen</title>
    <path d="M19.5 2H18V0.5C18 0.224 17.776 0 17.5 0S17 0.224 17 0.5V2H7V0.5C7 0.224 6.776 0 6.5 0S6 0.224 6 0.5V2H4.5C2.019 2 0 4.019 0 6.5v13C0 21.981 2.019 24 4.5 24h4C8.776 24 9 23.776 9 23.5S8.776 23 8.5 23h-4C2.57 23 1 21.43 1 19.5V9h22.5C23.776 9 24 8.776 24 8.5v-2C24 4.019 21.981 2 19.5 2zM23 8H1V6.5C1 4.57 2.57 3 4.5 3h15C21.43 3 23 4.57 23 6.5zM19.732 11.732l-7.707 7.707C11.364 20.1 11 20.979 11 21.914V23.5c0 0.276 0.224 0.5 0.5 0.5h1.586c0.935 0 1.814-0.364 2.475-1.025l7.707-7.707C23.74 14.796 24 14.168 24 13.5s-0.26-1.296-0.732-1.768c-0.943-0.944-2.592-0.944-3.536 0zM22.56 14.56l-7.707 7.707c-0.472 0.472-1.1 0.732-1.768 0.732h-1.086v-1.086c0-0.668 0.26-1.295 0.732-1.768l7.707-7.707c0.566-0.566 1.555-0.566 2.121 0 0.283 0.283 0.439 0.66 0.439 1.061s-0.156 0.777-0.438 1.061zM4.999 13.499c0-0.276 0.224-0.5 0.5-0.5H14.5c0.276 0 0.5 0.224 0.5 0.5s-0.224 0.5-0.5 0.5h-9c-0.276 0-0.5-0.224-0.501-0.5zM9.999 18.499c0 0.276-0.224 0.5-0.5 0.5H5.5c-0.276 0-0.5-0.224-0.5-0.5s0.224-0.5 0.5-0.5h4c0.276 0 0.5 0.224 0.499 0.5z" />
</svg>