<svg id="calendar_heart_Layer_1" viewBox="0 0 24 24" fill="currentColor" width="32" height="32" data-name="Layer 1" xmlns="http://www.w3.org/2000/svg" xmlns:xlink="http://www.w3.org/1999/xlink">
    <title>calendar-heart</title>
    <path d="M14.25 12c-0.962 0-1.765 0.415-2.25 1.09C11.515 12.415 10.712 12 9.75 12 8.233 12 7 13.314 7 14.93c0 2.115 2.549 4.708 3.897 5.783 0.325 0.259 0.714 0.388 1.103 0.388s0.778-0.129 1.104-0.388C14.452 19.638 17 17.046 17 14.93 17 13.314 15.767 12 14.25 12zM12.48 19.931c-0.282 0.226-0.677 0.226-0.959 0-1.462-1.166-3.521-3.488-3.521-5 0-1.064 0.785-1.93 1.75-1.93 1.03 0 1.75 0.703 1.75 1.709 0 0.276 0.224 0.5 0.5 0.5s0.5-0.224 0.5-0.5c0-1.006 0.72-1.709 1.75-1.709 0.965 0 1.75 0.866 1.75 1.93 0 1.512-2.059 3.835-3.52 5zM19.5 2H18V0.5C18 0.224 17.776 0 17.5 0S17 0.224 17 0.5V2H7V0.5C7 0.224 6.776 0 6.5 0S6 0.224 6 0.5V2H4.5C2.019 2 0 4.019 0 6.5v13C0 21.981 2.019 24 4.5 24h15c2.481 0 4.5-2.019 4.5-4.5v-13C24 4.019 21.981 2 19.5 2zM4.5 3h15C21.43 3 23 4.57 23 6.5V8H1V6.5C1 4.57 2.57 3 4.5 3zM19.5 23h-15C2.57 23 1 21.43 1 19.5V9h22v10.5c0 1.93-1.57 3.5-3.5 3.5z" />
</svg>