<svg id="calendar_payment_loan_Layer_1" viewBox="0 0 24 24" fill="currentColor" width="32" height="32" data-name="Layer 1" xmlns="http://www.w3.org/2000/svg" xmlns:xlink="http://www.w3.org/1999/xlink">
    <title>calendar-payment-loan</title>
    <path d="M19.5 2H18V0.5C18 0.224 17.776 0 17.5 0S17 0.224 17 0.5V2H7V0.5C7 0.224 6.776 0 6.5 0S6 0.224 6 0.5V2H4.5C2.019 2 0 4.019 0 6.5v13C0 21.981 2.019 24 4.5 24h6c0.276 0 0.5-0.224 0.5-0.5S10.776 23 10.5 23h-6C2.57 23 1 21.43 1 19.5V9h22v5.5c0 0.276 0.224 0.5 0.5 0.5s0.5-0.224 0.5-0.5v-8C24 4.019 21.981 2 19.5 2zM23 8H1V6.5C1 4.57 2.57 3 4.5 3h15C21.43 3 23 4.57 23 6.5zM19.686 15.171c0.399-0.359 0.843-0.825 1.152-1.351 0.217-0.371 0.218-0.818 0-1.196-0.221-0.384-0.632-0.623-1.072-0.623h-2.533c-0.44 0-0.852 0.239-1.072 0.623-0.217 0.378-0.216 0.825 0 1.197 0.309 0.526 0.753 0.992 1.152 1.351-2.316 0.682-4.314 3.232-4.314 5.829 0 1.648 1.346 2.988 3 2.988h5c1.654 0 3-1.34 3-2.988 0-2.598-1.998-5.147-4.313-5.83zM17.026 13.315c-0.045-0.077-0.022-0.148 4e-3-0.194C17.046 13.093 17.109 13 17.234 13h2.533c0.125 0 0.188 0.092 0.204 0.121 0.026 0.046 0.049 0.117 4e-3 0.193-0.39 0.665-1.089 1.251-1.475 1.544-0.386-0.292-1.084-0.877-1.474-1.543zM21.001 22.989h-5c-1.103 0-2-0.892-2-1.988 0-2.439 2.309-4.915 4.5-5 2.191 0.085 4.5 2.561 4.5 5 0 1.096-0.897 1.988-2 1.988z" />
</svg>