<svg id="calendar_day_Layer_1" viewBox="0 0 24 24" fill="currentColor" width="32" height="32" data-name="Layer 1" xmlns="http://www.w3.org/2000/svg" xmlns:xlink="http://www.w3.org/1999/xlink">
    <title>calendar-day</title>
    <path d="M7.5 12h-2C4.673 12 4 12.673 4 13.5v2C4 16.327 4.673 17 5.5 17h2C8.327 17 9 16.327 9 15.5v-2C9 12.673 8.327 12 7.5 12zM8 15.5C8 15.776 7.775 16 7.5 16h-2C5.225 16 5 15.776 5 15.5v-2C5 13.224 5.225 13 5.5 13h2C7.775 13 8 13.224 8 13.5zM19.5 2H18V0.5C18 0.224 17.776 0 17.5 0S17 0.224 17 0.5V2H7V0.5C7 0.224 6.776 0 6.5 0S6 0.224 6 0.5V2H4.5C2.019 2 0 4.019 0 6.5v13C0 21.981 2.019 24 4.5 24h15c2.481 0 4.5-2.019 4.5-4.5v-13C24 4.019 21.981 2 19.5 2zM4.5 3h15C21.43 3 23 4.57 23 6.5V8H1V6.5C1 4.57 2.57 3 4.5 3zM19.5 23h-15C2.57 23 1 21.43 1 19.5V9h22v10.5c0 1.93-1.57 3.5-3.5 3.5z" />
</svg>