<svg id="calendar_shift_swap_Layer_1" viewBox="0 0 24 24" fill="currentColor" width="32" height="32" data-name="Layer 1" xmlns="http://www.w3.org/2000/svg" xmlns:xlink="http://www.w3.org/1999/xlink">
    <title>calendar-shift-swap</title>
    <path d="M20.5 0h-6C12.57 0 11 1.57 11 3.5v5c0 1.93 1.57 3.5 3.5 3.5h6c1.93 0 3.5-1.57 3.5-3.5v-5C24 1.57 22.43 0 20.5 0zM14.5 1h6c1.208 0 2.217 0.86 2.449 2H12.051c0.232-1.14 1.242-2 2.449-2zM20.5 11h-6C13.121 11 12 9.878 12 8.5V4h11v4.5c0 1.378-1.121 2.5-2.5 2.5zM12.5 15H1.05c0.232-1.14 1.243-2 2.45-2h6c0.276 0 0.5-0.224 0.5-0.5S9.776 12 9.5 12h-6C1.57 12 0 13.57 0 15.5v5C0 22.43 1.57 24 3.5 24h6c1.93 0 3.5-1.57 3.5-3.5v-5c0-0.276-0.224-0.5-0.5-0.5zM12 20.5c0 1.379-1.121 2.5-2.5 2.5h-6C2.121 23 1 21.879 1 20.5V16h11zM23.847 17.64c0.199 0.191 0.205 0.508 0.014 0.707-0.098 0.102-0.229 0.153-0.36 0.153-0.125 0-0.25-0.046-0.347-0.14l-2.153-2.07v4.21c0 1.93-1.57 3.5-3.5 3.5h-2c-0.276 0-0.5-0.224-0.5-0.5s0.224-0.5 0.5-0.5h2c1.379 0 2.5-1.121 2.5-2.5v-4.21l-2.153 2.07c-0.197 0.192-0.516 0.186-0.707-0.014s-0.186-0.516 0.014-0.707l2.301-2.212c0.573-0.57 1.518-0.572 2.099 6e-3zM0.153 6.36c-0.199-0.191-0.205-0.508-0.014-0.707s0.51-0.204 0.707-0.014l2.153 2.07V3.5c0-1.93 1.57-3.5 3.5-3.5h2c0.276 0 0.5 0.224 0.5 0.5S8.775 1 8.499 1h-2c-1.379 0-2.5 1.122-2.5 2.5v4.21l2.153-2.07C6.35 5.45 6.669 5.454 6.859 5.654 7.05 5.853 7.045 6.17 6.845 6.361L4.544 8.573C4.258 8.859 3.88 9.002 3.5 9.002S2.736 8.857 2.445 8.567z" />
</svg>