<svg id="calendar_image_Layer_1" viewBox="0 0 24 24" fill="currentColor" width="32" height="32" data-name="Layer 1" xmlns="http://www.w3.org/2000/svg" xmlns:xlink="http://www.w3.org/1999/xlink">
    <title>calendar-image</title>
    <path d="M19.5 2H18V0.5C18 0.224 17.776 0 17.5 0S17 0.224 17 0.5V2H7V0.5C7 0.224 6.776 0 6.5 0S6 0.224 6 0.5V2H4.5C2.019 2 0 4.019 0 6.5v13C0 21.981 2.019 24 4.5 24h15c2.481 0 4.5-2.019 4.5-4.5v-13C24 4.019 21.981 2 19.5 2zM4.5 3h15C21.43 3 23 4.57 23 6.5V8H1V6.5C1 4.57 2.57 3 4.5 3zM1 19.5V9h22v0.129l-7.334 7.334c-0.71 0.711-1.948 0.711-2.658 0l-0.635-0.635c-1.088-1.088-2.984-1.088-4.072 0l-6.208 6.208C1.421 21.398 1.001 20.496 1 19.5zM19.5 23h-15c-0.568 0-1.105-0.136-1.579-0.377l6.087-6.087c0.71-0.711 1.948-0.711 2.658 0l0.635 0.635c1.088 1.088 2.984 1.088 4.072 0L23 10.544v8.957c0 1.93-1.57 3.5-3.5 3.499zM4 13c0-0.552 0.448-1 1-1s1 0.448 1 1-0.448 1-1 1-1-0.448-1-1z" />
</svg>