<svg id="calendar_arrow_down_Layer_1" viewBox="0 0 24 24" fill="currentColor" width="32" height="32" data-name="Layer 1" xmlns="http://www.w3.org/2000/svg" xmlns:xlink="http://www.w3.org/1999/xlink">
    <title>calendar-arrow-down</title>
    <path d="M19.5 2H18V0.5C18 0.224 17.776 0 17.5 0S17 0.224 17 0.5V2H7V0.5C7 0.224 6.776 0 6.5 0S6 0.224 6 0.5V2H4.5C2.019 2 0 4.019 0 6.5v13C0 21.981 2.019 24 4.5 24h15c2.481 0 4.5-2.019 4.5-4.5v-13C24 4.019 21.981 2 19.5 2zM4.5 3h15C21.43 3 23 4.57 23 6.5V8H1V6.5C1 4.57 2.57 3 4.5 3zM19.5 23h-15C2.57 23 1 21.43 1 19.5V9h22v10.5c0 1.93-1.57 3.5-3.5 3.5zM15.879 17.143c0.197 0.193 0.201 0.51 8e-3 0.707l-2.515 2.57C12.986 20.806 12.48 21 11.975 21c0 0 0 0 0 0v0c-0.505 0-1.009-0.192-1.393-0.576l-2.52-2.574c-0.193-0.197-0.189-0.514 8e-3-0.707 0.196-0.192 0.515-0.189 0.707 8e-3l2.516 2.57c0.056 0.056 0.118 0.104 0.184 0.144l0.024-8.366c0-0.275 0.225-0.499 0.5-0.499v0c0.276 0 0.5 0.225 0.499 0.501l-0.024 8.36c0.066-0.04 0.128-0.088 0.185-0.144l2.511-2.566c0.192-0.197 0.509-0.2 0.707-8e-3z" />
</svg>