<svg id="call_missed_Layer_1" viewBox="0 0 24 24" fill="currentColor" width="32" height="32" data-name="Layer 1" xmlns="http://www.w3.org/2000/svg" xmlns:xlink="http://www.w3.org/1999/xlink">
    <title>call-missed</title>
    <path d="M22.532 16.966C20.562 14.997 16.906 14 11.998 14c-3.467 0.016-8.107 0.543-10.53 2.966C0.521 17.914 0 19.152 0 20.485L0.085 21.7c0 1.266 1.027 2.296 2.356 2.296h9e-3l2.496-0.332c1.256 0 2.28-1.013 2.3-2.264l0.21-1.554c1.388-0.578 2.882-0.84 4.54-0.847 1.643 9e-3 3.133 0.288 4.547 0.853l0.209 1.512c0 1.266 1.027 2.296 2.228 2.296h7e-3L21.614 24c1.269 0 2.3-1.031 2.299-2.265L24 20.451c0-1.299-0.521-2.537-1.468-3.485zM22.914 21.701c0 0.716-0.583 1.299-1.234 1.303l-2.627-0.34c-0.717 0-1.3-0.583-1.305-1.367l-0.253-1.864c-0.023-0.174-0.137-0.323-0.299-0.393-1.616-0.689-3.314-1.03-5.193-1.04-1.88 0-3.638 0.342-5.207 1.044-0.158 0.07-0.269 0.218-0.291 0.389l-0.253 1.864c-3e-3 0.022-5e-3 0.045-5e-3 0.067 0 0.717-0.583 1.3-1.365 1.304L2.386 23c-0.717 0-1.3-0.583-1.301-1.334L1 20.451c0-1.032 0.416-2.019 1.175-2.778 2.182-2.182 6.549-2.658 9.827-2.673 4.752 0.018 8.026 0.877 9.823 2.673 0.759 0.76 1.176 1.746 1.176 2.744zM20.853 2.146c-0.195-0.195-0.512-0.195-0.707 0l-6.312 6.312c-0.355 0.355-0.827 0.551-1.33 0.551v0c-0.504 0-0.977-0.197-1.332-0.554L4.736 2H9.5C9.776 2 10 1.776 10 1.5S9.776 1 9.5 1h-5C3.673 1 3 1.673 3 2.5v5C3 7.776 3.224 8 3.5 8S4 7.776 4 7.5V2.679l6.462 6.483c0.545 0.546 1.269 0.847 2.04 0.848h2e-3c0.77 0 1.493-0.3 2.037-0.844l6.312-6.312c0.195-0.195 0.195-0.512 0-0.708z" />
</svg>