<svg id="call_incoming_Layer_1" viewBox="0 0 24 24" fill="currentColor" width="32" height="32" data-name="Layer 1" xmlns="http://www.w3.org/2000/svg" xmlns:xlink="http://www.w3.org/1999/xlink">
    <title>call-incoming</title>
    <path d="M15 7V2.5C15 2.224 15.224 2 15.5 2S16 2.224 16 2.5V7c0 0.097 0.014 0.191 0.04 0.28l7.106-7.133c0.195-0.196 0.512-0.196 0.707-1e-3 0.196 0.195 0.196 0.512 2e-3 0.708l-7.091 7.119C16.84 7.991 16.919 8.001 17 8.001h4.5c0.276 0 0.5 0.224 0.5 0.5s-0.224 0.5-0.5 0.5H17c-1.103 0-2-0.897-2-2.001zM23.163 17.298C23.72 17.849 24 18.525 24 19.243s-0.28 1.395-0.788 1.902l-0.978 1.125c-1.121 1.124-2.608 1.729-4.211 1.729C10.275 24 0 13.725 0 5.976c0-1.603 0.605-3.09 1.705-4.187l1.174-1.024c0.967-0.97 2.763-0.993 3.78 0.023l1.959 2.543c1.006 1 1.006 2.707-0.043 3.756L7.087 8.612c1.617 3.803 4.614 6.804 8.295 8.303l1.532-1.494c1.047-1.047 2.753-1.046 3.802 3e-3zM22.505 18.048l-2.446-1.873c-0.736-0.725-1.801-0.682-2.439-0.043 0 2e-3-1.771 1.727-1.771 1.727-0.139 0.136-0.344 0.18-0.527 0.108-4.172-1.593-7.557-4.975-9.285-9.28-0.074-0.184-0.032-0.394 0.106-0.536l1.722-1.766c0.664-0.664 0.664-1.736 4e-3-2.396L5.91 1.446C5.608 1.147 5.196 0.994 4.777 0.994c-0.436 0-0.879 0.165-1.215 0.5L2.387 2.519C1.501 3.404 1 4.64 1 5.975c0 7.16 9.864 17.024 17.023 17.024 1.335 0 2.571-0.501 3.48-1.411l0.978-1.125c0.683-0.685 0.683-1.757 0.024-2.415z" />
</svg>