<svg id="call_duration_Layer_1" viewBox="0 0 24 24" fill="currentColor" width="32" height="32" data-name="Layer 1" xmlns="http://www.w3.org/2000/svg" xmlns:xlink="http://www.w3.org/1999/xlink">
    <title>call-duration</title>
    <path d="M17.5 13c3.584 0 6.5-2.916 6.5-6.5S21.084 0 17.5 0 11 2.916 11 6.5 13.916 13 17.5 13zM17.5 1C20.533 1 23 3.467 23 6.5S20.533 12 17.5 12 12 9.533 12 6.5 14.467 1 17.5 1zM17.146 6.854C17.052 6.76 16.999 6.632 17 6.499l0.013-2.961c0-0.275 0.225-0.498 0.5-0.498h2e-3c0.276 0 0.499 0.226 0.498 0.502l-0.012 2.753 1.853 1.853c0.195 0.195 0.195 0.512 0 0.707-0.098 0.098-0.226 0.146-0.354 0.146s-0.256-0.049-0.354-0.146zM20.693 15.425c-1.048-1.048-2.753-1.05-3.802-2e-3l-1.532 1.493c-3.681-1.499-6.679-4.5-8.295-8.303l1.488-1.525c1.049-1.049 1.049-2.756 0.043-3.756L6.636 0.789c-1.017-1.017-2.814-0.994-3.78-0.023L1.682 1.79c-1.1 1.097-1.706 2.584-1.706 4.186C-0.024 13.725 10.251 24 18 24c1.602 0 3.089-0.605 4.211-1.729l0.977-1.125c0.508-0.508 0.788-1.184 0.788-1.902s-0.28-1.395-0.837-1.945zM22.457 20.464l-0.978 1.125C20.57 22.499 19.334 23 17.999 23 10.84 23 0.976 13.136 0.976 5.976c0-1.335 0.501-2.571 1.387-3.456l1.175-1.025c0.336-0.336 0.779-0.5 1.215-0.5 0.419 0 0.831 0.152 1.133 0.452L7.845 3.99c0.659 0.659 0.659 1.732-4e-3 2.396L6.119 8.152c-0.138 0.142-0.18 0.352-0.106 0.536 1.729 4.305 5.113 7.688 9.286 9.28 0.18 0.07 0.387 0.027 0.527-0.108l1.766-1.722c0 0 3e-3-3e-3 4e-3-5e-3 0.639-0.639 1.703-0.682 2.439 0.043l2.446 1.873c0.659 0.659 0.659 1.731-0.024 2.415z" />
</svg>