<svg id="call_outgoing_Layer_1" viewBox="0 0 24 24" fill="currentColor" width="32" height="32" data-name="Layer 1" xmlns="http://www.w3.org/2000/svg" xmlns:xlink="http://www.w3.org/1999/xlink">
    <title>call-outgoing</title>
    <path d="M24 2v4.5C24 6.776 23.776 7 23.5 7S23 6.776 23 6.5V2c0-0.089-0.012-0.176-0.034-0.259l-7.112 7.112c-0.098 0.098-0.226 0.146-0.354 0.146s-0.256-0.049-0.354-0.146c-0.195-0.195-0.195-0.512 0-0.707l7.112-7.112C22.175 1.012 22.089 1 21.999 1h-4.5c-0.276 0-0.5-0.224-0.5-0.5s0.224-0.5 0.5-0.5h4.5c1.103 0 2 0.897 2.001 2zM23.163 17.298c1.098 1.092 1.098 2.799 0.049 3.848l-0.978 1.125C21.113 23.395 19.626 24 18.023 24 10.275 24 0 13.725 0 5.976 0 4.373 0.605 2.887 1.704 1.789L2.88 0.765c0.965-0.97 2.764-0.993 3.779 0.023l1.959 2.543c1.006 1 1.006 2.707-0.043 3.756L7.088 8.612c1.617 3.803 4.614 6.804 8.295 8.303l1.532-1.494c1.017-1.014 2.787-1.013 3.802 3e-3zM22.505 18.048l-2.446-1.873c-0.736-0.725-1.801-0.682-2.439-0.043 0 2e-3-1.771 1.727-1.771 1.727-0.139 0.136-0.343 0.18-0.527 0.108-4.172-1.593-7.556-4.975-9.285-9.28-0.074-0.184-0.032-0.394 0.105-0.536l1.722-1.766c0.664-0.664 0.664-1.736 5e-3-2.396L5.91 1.446C5.608 1.147 5.196 0.994 4.777 0.994c-0.436 0-0.879 0.165-1.215 0.5L2.386 2.519C1.501 3.404 1 4.64 1 5.975c0 7.16 9.864 17.024 17.023 17.024 1.335 0 2.571-0.501 3.48-1.411l0.978-1.125c0.683-0.685 0.683-1.757 0.024-2.415z" />
</svg>