<svg id="camcorder_Layer_1" viewBox="0 0 24 24" fill="currentColor" width="32" height="32" data-name="Layer 1" xmlns="http://www.w3.org/2000/svg" xmlns:xlink="http://www.w3.org/1999/xlink">
    <title>camcorder</title>
    <path d="M13.5 10h-8C4.673 10 4 10.673 4 11.5v7C4 19.327 4.673 20 5.5 20h8c0.827 0 1.5-0.673 1.5-1.5v-7c0-0.827-0.673-1.5-1.5-1.5zM14 18.5c0 0.276-0.225 0.5-0.5 0.5h-8C5.225 19 5 18.776 5 18.5v-7C5 11.224 5.225 11 5.5 11h8c0.275 0 0.5 0.224 0.5 0.5zM23.155 9.164c-0.522-0.261-1.136-0.206-1.601 0.144l-2.555 1.917v-0.724c0-2.481-2.019-4.5-4.5-4.5h-0.28L9.952 1.732C9.479 1.26 8.852 1 8.184 1H0.5C0.224 1 0 1.224 0 1.5S0.224 2 0.5 2h7.685C8.58 2 8.966 2.16 9.246 2.439L12.807 6H4.5C2.019 6 0 8.019 0 10.5v9C0 21.981 2.019 24 4.5 24h10c2.481 0 4.5-2.019 4.5-4.5v-0.724l2.555 1.916c0.271 0.204 0.592 0.308 0.915 0.307 0.233 0 0.467-0.053 0.686-0.163 0.521-0.26 0.845-0.784 0.845-1.367V10.53c0-0.583-0.324-1.106-0.846-1.366zM18 19.5c0 1.93-1.57 3.5-3.5 3.5h-10C2.57 23 1 21.43 1 19.5v-9C1 8.57 2.57 7 4.5 7h10c1.93 0 3.5 1.57 3.5 3.5zM23 19.47c0 0.205-0.109 0.381-0.292 0.472-0.185 0.091-0.392 0.072-0.554-0.05L19 17.526v-5.053l3.154-2.366c0.162-0.121 0.369-0.141 0.554-0.05C22.891 10.149 23 10.325 23 10.53z" />
</svg>