<svg id="camera_rotate_Layer_1" viewBox="0 0 24 24" fill="currentColor" width="32" height="32" data-name="Layer 1" xmlns="http://www.w3.org/2000/svg" xmlns:xlink="http://www.w3.org/1999/xlink">
    <title>camera-rotate</title>
    <path d="M19.5 4h-1.25L16 0.999C15.53 0.374 14.782 0 14 0h-4C9.218 0 8.47 0.374 8 1L5.75 4H4.5C2.019 4 0 6.019 0 8.5v11C0 21.981 2.019 24 4.5 24h15c2.481 0 4.5-2.019 4.5-4.5v-11C24 6.019 21.981 4 19.5 4zM8.8 1.601C9.082 1.225 9.531 1 10 1h4c0.469 0 0.918 0.225 1.2 0.6L17 4H7zM23 19.5c0 1.93-1.57 3.5-3.5 3.5h-15C2.57 23 1 21.43 1 19.5v-11C1 6.57 2.57 5 4.5 5h15C21.43 5 23 6.57 23 8.5zM18 8.5V11c0 1.105-0.895 2-2 2h-2.5c-0.276 0-0.5-0.224-0.5-0.5s0.224-0.5 0.5-0.5H16c0.189 0 0.367-0.053 0.518-0.145-1.241-2.626-4.546-3.813-7.557-1.947-0.965 0.598-1.453 1.645-1.774 2.734C7.123 12.859 6.924 13 6.708 13c-0.045 0-0.091-6e-3-0.137-0.019-0.266-0.075-0.42-0.352-0.345-0.617C6.953 9.795 9.327 8 12 8c2.053 0 3.906 1.019 5 2.676V8.5C17 8.224 17.224 8 17.5 8S18 8.224 18 8.5zM17.774 15.636C17.047 18.205 14.673 20 12 20c-2.053 0-3.905-1.019-5-2.677V19.5C7 19.776 6.776 20 6.5 20S6 19.776 6 19.5V17c0-1.105 0.895-2 2-2h2.5c0.276 0 0.5 0.224 0.5 0.5S10.776 16 10.5 16H8c-0.189 0-0.367 0.053-0.518 0.145 1.361 2.879 5.203 4.028 8.416 1.321 0.592-0.499 0.796-1.263 0.899-2.03 0.042-0.311 0.342-0.499 0.632-0.417 0.266 0.075 0.42 0.352 0.345 0.617z" />
</svg>