<svg id="camera_Layer_1" viewBox="0 0 24 24" fill="currentColor" width="32" height="32" data-name="Layer 1" xmlns="http://www.w3.org/2000/svg" xmlns:xlink="http://www.w3.org/1999/xlink">
    <title>camera</title>
    <path d="M12 8c-3.309 0-6 2.691-6 6s2.691 6 6 6 6-2.691 6-6-2.691-6-6-6zM12 19c-2.757 0-5-2.243-5-5s2.243-5 5-5 5 2.243 5 5-2.243 5-5 5zM19.5 4h-1.25L16 1c-0.47-0.626-1.218-1-2-1h-4C9.218 0 8.47 0.374 8 1L5.75 4H4.5C2.019 4 0 6.019 0 8.5v11C0 21.981 2.019 24 4.5 24h15c2.481 0 4.5-2.019 4.5-4.5v-11C24 6.019 21.981 4 19.5 4zM8.8 1.6C9.082 1.224 9.53 1 10 1h4c0.47 0 0.918 0.224 1.2 0.6L17 4H7zM23 19.5c0 1.93-1.57 3.5-3.5 3.5h-15C2.57 23 1 21.43 1 19.5v-11C1 6.57 2.57 5 4.5 5h15C21.43 5 23 6.57 23 8.5z" />
</svg>