<svg id="camera_security_Layer_1" viewBox="0 0 24 24" fill="currentColor" width="32" height="32" data-name="Layer 1" xmlns="http://www.w3.org/2000/svg" xmlns:xlink="http://www.w3.org/1999/xlink">
    <title>camera-security</title>
    <path d="M17.5 0h-11C4.019 0 2 2.019 2 4.5v11C2 17.981 4.019 20 6.5 20h1.644C7.36 20.431 6.7 20.977 6.269 21.592c-0.319 0.456-0.356 1.021-0.101 1.511C6.456 23.656 7.049 24 7.716 24h8.568c0.667 0 1.26-0.344 1.548-0.897 0.255-0.49 0.218-1.055-0.101-1.511C17.3 20.976 16.64 20.43 15.856 20H17.5c2.481 0 4.5-2.019 4.5-4.5v-11C22 2.019 19.981 0 17.5 0zM16.912 22.166c0.133 0.19 0.092 0.364 0.034 0.476-0.09 0.173-0.312 0.359-0.661 0.359H7.716c-0.35 0-0.571-0.186-0.661-0.359-0.058-0.112-0.1-0.285 0.034-0.476C7.953 20.932 10.065 20 12.001 20s4.047 0.931 4.911 2.166zM21 15.5c0 1.93-1.57 3.5-3.5 3.5h-11C4.57 19 3 17.43 3 15.5v-11C3 2.57 4.57 1 6.5 1h11C19.43 1 21 2.57 21 4.5zM12 5c-2.757 0-5 2.243-5 5s2.243 5 5 5 5-2.243 5-5-2.243-5-5-5zM12 14c-2.206 0-4-1.794-4-4s1.794-4 4-4 4 1.794 4 4-1.794 4-4 4z" />
</svg>