<svg id="camera_cctv_Layer_1" viewBox="0 0 24 24" fill="currentColor" width="32" height="32" data-name="Layer 1" xmlns="http://www.w3.org/2000/svg" xmlns:xlink="http://www.w3.org/1999/xlink">
    <title>camera-cctv</title>
    <path d="M22.952 12.667c-0.105-0.425-0.37-0.782-0.744-1.008l-1.383-0.833c0.054-0.05 1.482-1.163 1.482-1.163 0.131-0.102 0.203-0.261 0.192-0.427-0.01-0.165-0.102-0.314-0.245-0.399L8.053 0.446C7.231-0.013 6.28-0.123 5.373 0.138 4.468 0.4 3.721 1 3.27 1.828L2.426 3.38C1.522 5.043 2.124 7.158 3.759 8.088l6.4 3.855-1.221 3.664C8.46 17.039 7.126 18 5.618 18H1v-4.5C1 13.224 0.776 13 0.5 13S0 13.224 0 13.5v10C0 23.776 0.224 24 0.5 24S1 23.776 1 23.5V19h4.617c1.94 0 3.655-1.236 4.269-3.077l1.151-3.452 3.909 2.354c0.465 0.28 0.984 0.424 1.513 0.424 0.249 0 0.5-0.032 0.749-0.097 0.315-0.082 0.607-0.213 0.871-0.385l1.657 0.998c0.264 0.159 0.554 0.234 0.842 0.234 0.555 0 1.098-0.282 1.404-0.792l0.784-1.302c0.226-0.375 0.292-0.814 0.186-1.238zM16.954 14.185c-0.51 0.132-1.041 0.057-1.493-0.216L4.264 7.226c-1.175-0.669-1.606-2.18-0.96-3.368l0.845-1.552c0.322-0.591 0.855-1.02 1.501-1.207 0.231-0.067 0.467-0.1 0.701-0.1 0.419 0 0.833 0.106 1.204 0.314l13.558 8.012-0.731 0.567c-0.384 0.297-0.696 0.664-0.923 1.081l-1.307 2.294c-0.261 0.459-0.687 0.785-1.198 0.918zM21.909 13.39l-0.784 1.302c-0.182 0.301-0.574 0.397-0.874 0.217l-1.42-0.855c0.068-0.093 0.132-0.19 0.19-0.292l1.21-2.125 1.461 0.88c0.301 0.181 0.398 0.573 0.217 0.873z" />
</svg>