<svg id="camera_viewfinder_Layer_1" viewBox="0 0 24 24" fill="currentColor" width="32" height="32" data-name="Layer 1" xmlns="http://www.w3.org/2000/svg" xmlns:xlink="http://www.w3.org/1999/xlink">
    <title>camera-viewfinder</title>
    <path d="M12 9c-1.654 0-3 1.346-3 3s1.346 3 3 3 3-1.346 3-3-1.346-3-3-3zM12 14c-1.103 0-2-0.897-2-2s0.897-2 2-2 2 0.897 2 2-0.897 2-2 2zM7.5 6C6.121 6 5 7.121 5 8.5v7C5 16.879 6.121 18 7.5 18h9c1.379 0 2.5-1.121 2.5-2.5v-7C19 7.121 17.879 6 16.5 6h-1.227L14.43 4.689C14.153 4.257 13.682 4 13.168 4H10.83c-0.514 0-0.984 0.258-1.262 0.688L8.725 6zM18 8.5v7c0 0.827-0.673 1.5-1.5 1.5h-9C6.673 17 6 16.327 6 15.5v-7C6 7.673 6.673 7 7.5 7h9C17.327 7 18 7.673 18 8.5zM10.411 5.229C10.503 5.086 10.66 5 10.831 5h2.338c0.171 0 0.328 0.086 0.42 0.229L14.084 6H9.916zM8 23.5C8 23.776 7.776 24 7.5 24h-3C2.019 24 0 21.981 0 19.5v-3C0 16.224 0.224 16 0.5 16S1 16.224 1 16.5v3C1 21.43 2.57 23 4.5 23h3C7.776 23 8 23.224 8 23.5zM24 16.5v3c0 2.481-2.019 4.5-4.5 4.5h-3c-0.276 0-0.5-0.224-0.5-0.5s0.224-0.5 0.5-0.5h3c1.93 0 3.5-1.57 3.5-3.5v-3c0-0.276 0.224-0.5 0.5-0.5s0.5 0.224 0.5 0.5zM24 4.5v3C24 7.776 23.776 8 23.5 8S23 7.776 23 7.5v-3C23 2.57 21.43 1 19.5 1h-3C16.224 1 16 0.776 16 0.5S16.224 0 16.5 0h3C21.981 0 24 2.019 24 4.5zM0 7.5v-3C0 2.019 2.019 0 4.5 0h3C7.776 0 8 0.224 8 0.5S7.776 1 7.5 1h-3C2.57 1 1 2.57 1 4.5v3C1 7.776 0.776 8 0.5 8S0 7.776 0 7.5z" />
</svg>