<svg id="can_food_Layer_1" viewBox="0 0 24 24" fill="currentColor" width="32" height="32" data-name="Layer 1" xmlns="http://www.w3.org/2000/svg" xmlns:xlink="http://www.w3.org/1999/xlink">
    <title>can-food</title>
    <path d="M12 0C8.134 0 2 0.814 2 3 2 3.012 2 3.023 2 3.035 2 3.04 2 3.045 2 3.05V21c0 2.069 5.848 3 10 3s10-0.946 10-3.05V3c0-2.186-6.134-3-10-3zM21 16.95c0 0.72-3.712 2.05-9 2.05s-9-1.298-9-2V8.355C4.849 9.481 8.898 10 12 10s7.151-0.528 9-1.673zM21 6.95C21 7.67 17.288 9 12 9S3 7.702 3 7V4.379C4.898 5.539 9.091 6 12 6s7.102-0.461 9-1.621zM12 1c5.495 0 9 1.313 9 2s-3.505 2-9 2-9-1.313-9-2 3.505-2 9-2zM12 23c-5.289 0-9-1.298-9-2v-2.645C4.849 19.481 8.898 20 12 20s7.151-0.528 9-1.673v2.623c0 0.72-3.712 2.05-9 2.05z" />
</svg>