<svg id="candle_lotus_yoga_Layer_1" viewBox="0 0 24 24" fill="currentColor" width="32" height="32" data-name="Layer 1" xmlns="http://www.w3.org/2000/svg" xmlns:xlink="http://www.w3.org/1999/xlink">
    <title>candle-lotus-yoga</title>
    <path d="M23.588 15.405c-0.306-0.299-0.717-0.444-1.145-0.396-1.297 0.147-2.465 0.547-3.476 1.144-0.153-2.037-0.879-3.757-2.349-5.612-0.545-0.688-1.693-0.688-2.238 0-1.482 1.87-2.188 3.551-2.325 5.608-1.012-0.602-2.181-1.005-3.481-1.152-0.42-0.051-0.838 0.096-1.144 0.396-0.31 0.303-0.465 0.724-0.425 1.153C7.427 21.144 10.682 24 15.499 24s8.093-2.852 8.514-7.442c0.039-0.43-0.116-0.85-0.425-1.153zM15.164 11.162c0.164-0.206 0.508-0.206 0.672 0 1.496 1.889 2.125 3.546 2.158 5.668-1.137 0.926-1.994 2.154-2.492 3.599-0.494-1.441-1.341-2.665-2.465-3.591 0.019-2.134 0.64-3.797 2.127-5.676zM8.002 16.454c-0.012-0.128 0.035-0.255 0.129-0.347 0.047-0.047 0.145-0.12 0.285-0.12 0.015 0 0.031 0 0.047 2e-3 3.744 0.424 6.311 3.208 6.522 6.998-4.026-0.188-6.623-2.601-6.983-6.533zM16.015 22.988c0.213-3.781 2.787-6.561 6.542-6.986 0.016-1e-3 0.031-2e-3 0.047-2e-3 0.14 0 0.237 0.073 0.285 0.12 0.094 0.092 0.141 0.218 0.129 0.347-0.36 3.927-2.964 6.335-7.003 6.521zM7.995 23.393c0.039 0.273-0.151 0.527-0.424 0.566C7.384 23.985 7.194 24 7 24H4c-2.206 0-4-1.794-4-4v-8c0-2.206 1.794-4 4-4h3c2.206 0 4 1.794 4 4v0.5c0 0.276-0.224 0.5-0.5 0.5S10 12.776 10 12.5V12c0-1.654-1.346-3-3-3H4c-1.654 0-3 1.346-3 3v8c0 1.654 1.346 3 3 3h3c0.146 0 0.289-0.01 0.429-0.031 0.275-0.042 0.527 0.151 0.566 0.424zM5.5 7c1.539 0 2.791-1.252 2.791-2.791 0-0.253 0-1.025-1.484-3.473C6.527 0.275 6.039 0 5.5 0S4.473 0.275 4.193 0.736c-1.484 2.448-1.484 3.22-1.484 3.473C2.709 5.748 3.961 7 5.5 7zM5.048 1.254C5.187 1.025 5.41 1 5.5 1s0.312 0.025 0.452 0.254c1.209 1.993 1.339 2.73 1.339 2.955C7.291 5.197 6.488 6 5.5 6S3.709 5.197 3.709 4.209c0-0.224 0.13-0.961 1.339-2.955z" />
</svg>