<svg id="candy_Layer_1" viewBox="0 0 24 24" fill="currentColor" width="32" height="32" data-name="Layer 1" xmlns="http://www.w3.org/2000/svg" xmlns:xlink="http://www.w3.org/1999/xlink">
    <title>candy</title>
    <path d="M14.181 14.968c0.175 0.214 0.144 0.529-0.069 0.704-1.044 0.855-2.326 1.326-3.611 1.326-0.781 0-1.579-0.238-2.372-0.709-0.237-0.141-0.316-0.447-0.175-0.685s0.448-0.316 0.685-0.175c0.637 0.377 1.264 0.568 1.862 0.568 1.055 0 2.112-0.391 2.977-1.1 0.215-0.175 0.529-0.143 0.703 0.071zM23.599 5.834C23.133 6.564 22.34 7 21.479 7h-1.226C20.796 8.174 21 9.552 21 10.5c0 2.676-1.146 5.356-3.146 7.354-1.997 1.998-4.678 3.144-7.354 3.144-1.148 0-2.322-0.292-3.5-0.868v1.349c0 0.861-0.436 1.654-1.166 2.12-0.407 0.261-0.868 0.393-1.33 0.393-0.349 0-0.698-0.075-1.024-0.228-1.274-0.591-2.676-1.985-3.259-3.243-0.354-0.76-0.292-1.64 0.164-2.354 0.466-0.73 1.259-1.166 2.12-1.166H3.87c-0.577-1.178-0.868-2.352-0.868-3.5 0-2.677 1.146-5.357 3.144-7.354 1.998-1.999 4.679-3.146 7.354-3.146 0.948 0 2.326 0.204 3.5 0.747V2.506c0-0.861 0.436-1.654 1.166-2.12 0.716-0.457 1.597-0.518 2.355-0.164 1.257 0.583 2.651 1.984 3.242 3.259 0.354 0.76 0.291 1.641-0.164 2.353zM22.858 3.899c-0.495-1.066-1.706-2.284-2.757-2.772-0.457-0.212-0.966-0.175-1.396 0.101-0.44 0.281-0.704 0.759-0.704 1.277v2.094c0 0.186-0.103 0.355-0.266 0.441-0.165 0.088-0.361 0.075-0.516-0.027C16.189 4.314 14.609 4 13.5 4 11.088 4 8.665 5.04 6.853 6.853 5.041 8.664 4.002 11.086 4.002 13.5c0 1.211 0.382 2.472 1.137 3.745 0.091 0.154 0.093 0.347 4e-3 0.503C5.054 17.903 4.888 18 4.708 18H2.505c-0.519 0-0.996 0.264-1.277 0.704-0.275 0.432-0.312 0.94-0.101 1.396 0.488 1.052 1.706 2.263 2.772 2.758 0.459 0.212 0.967 0.173 1.396-0.102 0.441-0.281 0.704-0.759 0.704-1.277v-2.188c0-0.18 0.097-0.346 0.253-0.435 0.155-0.09 0.349-0.087 0.502 5e-3 1.273 0.754 2.533 1.137 3.745 1.137 2.414 0 4.837-1.039 6.647-2.851 1.812-1.812 2.853-4.235 2.853-6.647 0-1.108-0.313-2.688-1.013-3.719-0.104-0.153-0.114-0.352-0.027-0.516 0.086-0.163 0.256-0.266 0.441-0.266h2.077c0.519 0 0.996-0.263 1.277-0.704 0.275-0.432 0.312-0.94 0.104-1.396z" />
</svg>