<svg id="candy_alt_Layer_1" viewBox="0 0 24 24" fill="currentColor" width="32" height="32" data-name="Layer 1" xmlns="http://www.w3.org/2000/svg" xmlns:xlink="http://www.w3.org/1999/xlink">
    <title>candy-alt</title>
    <path d="M14.736 4e-3C10.051 4e-3 6 3.923 6 9c0 2.302 0.869 4.404 2.296 5.997l-8.15 8.149c-0.195 0.195-0.195 0.512 0 0.707 0.098 0.098 0.226 0.146 0.354 0.146s0.256-0.049 0.354-0.146l8.149-8.149C10.596 17.131 12.698 18 15 18c4.963 0 9-4.037 9-9 0-5.513-4.58-8.996-9.264-8.996zM15 17c-4.282 0-8-3.701-8-8 0-4.323 3.447-7.856 7.737-7.995C18.156 1.13 21 3.939 21 7.25 21 10.636 18.532 13 15 13c-2.206 0-4-1.794-4-4s1.794-4 4-4c0.944 0 2 0.855 2 2 0 1.103-0.897 2-2 2-0.276 0-0.5 0.224-0.5 0.5S14.724 10 15 10c1.654 0 3-1.346 3-3 0-1.598-1.402-3-3-3-2.757 0-5 2.243-5 5s2.243 5 5 5c4.056 0 7-2.839 7-6.75 0-1.255-0.351-2.448-0.96-3.49C22.261 5.165 23 6.998 23 9c0 4.411-3.589 8-8 8z" />
</svg>