<svg id="candy_cane_Layer_1" viewBox="0 0 24 24" fill="currentColor" width="32" height="32" data-name="Layer 1" xmlns="http://www.w3.org/2000/svg" xmlns:xlink="http://www.w3.org/1999/xlink">
    <title>candy-cane</title>
    <path d="M24 6.92v0c-0.06-1.89-0.87-3.66-2.3-4.99C20.25 0.58 18.5 0 16.5 0s-3.71 0.88-5.05 2.31C10.81 3 9.3 4.62 4.99 12.51 4.2 13.96 0.7 19.66 0.31 20.36c-0.32 0.58-0.4 1.26-0.2 1.9 0.19 0.64 0.62 1.16 1.22 1.47 0.37 0.19 0.75 0.28 1.14 0.28 0.86 0 1.68-0.45 2.13-1.26 0.37-0.67 9.28-15.82 10.38-16.99 0.89-0.95 2.38-1.01 3.32-0.13 0.7 0.65 0.9 1.65 0.5 2.55-0.16 0.34-0.22 0.63-0.22 0.99 0 0.87 0.51 2.34 2.43 2.34 1.11 0 2.07-0.65 2.45-1.66 0.39-1.05 0.58-2.03 0.54-2.93zM9.95 6c0 0 0 0 0 0s0 0 0 0zM6.42 12c0 0 0 0 0 0zM3.72 22.26c-0.38 0.69-1.23 0.94-1.93 0.58-0.35-0.18-0.61-0.49-0.72-0.87S1 21.19 1.19 20.85C1.56 20.18 2.18 19.17 2.9 18h3.4c-0.27 0.45-2.19 3.57-2.58 4.26zM6.89 17.02c0 0 0 0 0 0s0 0 0 0zM8.42 14.37c-0.43 0.8-0.97 1.7-1.52 2.63H3.51c0.84-1.37 1.71-2.81 2.36-4.01 0.19-0.34 0.37-0.67 0.54-0.99h3.32c-0.46 0.81-0.9 1.62-1.31 2.37zM10.31 11H6.97C8.23 8.76 9.2 7.16 9.94 6h3.52c-0.91 1.22-2.05 3.08-3.15 5zM16 4.08C15.38 4.21 14.8 4.52 14.31 5h-3.7c0.84-1.23 1.31-1.72 1.57-2 1.04-1.12 2.41-1.78 3.82-1.95zM19.09 5c0 0-0.07-0.07-0.11-0.11-0.56-0.52-1.26-0.81-1.98-0.87V1c1.45 0.05 2.88 0.6 4.02 1.66 0.72 0.67 1.26 1.47 1.59 2.34zM22.51 9.49C22.28 10.1 21.69 10.5 21 10.5c-1.32 0-1.43-1.03-1.43-1.34 0-0.21 0.04-0.36 0.14-0.58 0.38-0.85 0.38-1.77 0.04-2.57h3.14c0.06 0.31 0.09 0.63 0.1 0.95 0.02 0.75-0.15 1.63-0.48 2.53z" />
</svg>