<svg id="candy_corn_Layer_1" viewBox="0 0 24 24" fill="currentColor" width="32" height="32" data-name="Layer 1" xmlns="http://www.w3.org/2000/svg" xmlns:xlink="http://www.w3.org/1999/xlink">
    <title>candy-corn</title>
    <path d="M11.09 7.82c-0.86-0.86-2.24-1.05-3.91-0.55C5.7 7.72 4.15 8.68 2.91 9.91c-1.23 1.23-2.2 2.79-2.64 4.27-0.5 1.67-0.31 3.05 0.55 3.91 3.77 3.77 9.79 5.3 13.04 5.87 0.16 0.03 0.32 0.04 0.48 0.04 0.7 0 1.37-0.27 1.87-0.78 0.62-0.62 0.89-1.48 0.74-2.35-0.57-3.25-2.1-9.27-5.86-13.05zM4.59 19.71C5.08 18.38 6.28 16.72 8 15s3.38-2.92 4.71-3.41c0.71 1.2 1.28 2.48 1.74 3.73-1.32 0.73-2.58 1.86-3.42 2.71-0.84 0.84-1.98 2.11-2.71 3.42-1.25-0.46-2.53-1.03-3.73-1.74zM1.23 14.47c0.4-1.33 1.27-2.73 2.39-3.85s2.52-1.99 3.85-2.39C7.84 8.12 8.36 8 8.88 8s1.1 0.13 1.5 0.53c0.67 0.67 1.26 1.41 1.79 2.2-1.79 0.72-3.62 2.3-4.88 3.56s-2.85 3.08-3.56 4.88c-0.79-0.53-1.53-1.12-2.2-1.79-0.79-0.79-0.53-2.16-0.3-2.91zM15.51 22.51c-0.39 0.39-0.92 0.56-1.47 0.46-1.26-0.22-2.95-0.59-4.76-1.19 0.54-0.93 1.38-1.98 2.45-3.05s2.12-1.91 3.05-2.45c0.59 1.8 0.96 3.49 1.19 4.76 0.1 0.55-0.07 1.08-0.46 1.47zM24 4.44c0 5.15-2.77 10.24-5.09 13.6-0.1 0.14-0.25 0.22-0.41 0.22-0.1 0-0.2-0.03-0.28-0.09-0.23-0.16-0.28-0.47-0.13-0.7 0.7-1.02 1.59-2.42 2.41-4.04-1.08-0.28-2.45-0.43-4-0.43-0.28 0-0.5-0.22-0.5-0.5s0.22-0.5 0.5-0.5c1.22 0 2.96 0.09 4.45 0.51 0.65-1.4 1.23-2.93 1.61-4.51-1.33-0.65-3.46-1.01-6.06-1.01-1.05 0-2.04 0.06-2.94 0.18-0.27 0.04-0.52-0.16-0.56-0.43s0.16-0.52 0.43-0.56C14.37 6.06 15.4 6 16.49 6c1.88 0 4.42 0.18 6.26 1 0.15-0.85 0.24-1.71 0.24-2.56 0-1.8-3.1-3.44-6.5-3.44s-6.5 1.64-6.5 3.44c0 0.28-0.22 0.53-0.5 0.53s-0.5-0.19-0.5-0.47V4.44c0-2.65 3.88-4.44 7.5-4.44s7.5 1.78 7.51 4.44z" />
</svg>