<svg id="candy_sweet_Layer_1" viewBox="0 0 24 24" fill="currentColor" width="32" height="32" data-name="Layer 1" xmlns="http://www.w3.org/2000/svg" xmlns:xlink="http://www.w3.org/1999/xlink">
    <title>candy-sweet</title>
    <path d="M23.832 9.694c-0.068-0.451-0.366-0.813-0.797-0.969-0.43-0.153-0.91-0.062-1.25 0.241l-1.044 0.927C19.789 5.944 16.237 2.999 12 2.999S4.21 5.945 3.259 9.894L2.215 8.966C1.874 8.661 1.394 8.57 0.963 8.727 0.533 8.882 0.235 9.245 0.168 9.694 0.057 10.421 0 11.197 0 12s0.057 1.579 0.168 2.304c0.067 0.451 0.365 0.813 0.795 0.969 0.139 0.051 0.282 0.075 0.425 0.075 0.301 0 0.596-0.109 0.827-0.314l1.044-0.928c0.952 3.949 4.504 6.895 8.741 6.895s7.789-2.946 8.741-6.894l1.044 0.927c0.231 0.206 0.526 0.314 0.827 0.314 0.142 0 0.285-0.024 0.423-0.074 0.431-0.155 0.729-0.518 0.797-0.968C23.943 13.578 24 12.803 24 12s-0.057-1.578-0.168-2.306zM1.551 14.285c-0.1 0.088-0.205 0.062-0.247 0.047-0.048-0.017-0.13-0.062-0.147-0.179-0.104-0.676-0.156-1.4-0.156-2.153s0.053-1.478 0.156-2.155c0.018-0.114 0.1-0.16 0.147-0.177 0.042-0.016 0.147-0.042 0.247 0.047l1.501 1.334C3.019 11.362 3 11.679 3 12s0.018 0.638 0.052 0.951zM12 4c1.25 0 2.429 0.296 3.484 0.81L4.809 15.484C4.296 14.429 4 13.25 4 12c0-4.411 3.589-8 8-8zM5.319 16.388 16.389 5.319c0.911 0.601 1.692 1.382 2.293 2.293L7.613 18.681c-0.912-0.601-1.693-1.382-2.294-2.293zM12 20c-1.249 0-2.428-0.296-3.483-0.809L19.191 8.517C19.704 9.572 20 10.75 20 12c0 4.411-3.589 8-8 8zM22.844 14.155c-0.018 0.114-0.101 0.16-0.147 0.177-0.041 0.016-0.148 0.041-0.247-0.047l-1.501-1.333c0.033-0.313 0.052-0.63 0.052-0.952s-0.019-0.639-0.052-0.952l1.501-1.334c0.1-0.087 0.206-0.062 0.246-0.047 0.048 0.017 0.131 0.062 0.148 0.178C22.948 10.524 23 11.248 23 12s-0.053 1.477-0.156 2.155z" />
</svg>