<svg id="candy_bar_Layer_1" viewBox="0 0 24 24" fill="currentColor" width="32" height="32" data-name="Layer 1" xmlns="http://www.w3.org/2000/svg" xmlns:xlink="http://www.w3.org/1999/xlink">
    <title>candy-bar</title>
    <path d="M21.605 4.361c0.192-0.196 0.191-0.51-3e-3-0.704L19.35 1.405c-1.873-1.873-4.909-1.873-6.782 0L2.539 11.433c-0.788 0.788-1.361 1.795-1.5 2.901-0.19 1.509 0.314 2.964 1.365 4.015l4.111 4.111c0.788 0.788 1.794 1.36 2.899 1.499 1.509 0.19 2.964-0.313 4.016-1.365l7.825-7.825c0.272-0.272 0.274-0.713 3e-3-0.987l-0.585-0.593c-0.434-0.461-0.675-1.06-0.675-1.691 0-0.711 0.314-1.394 0.863-1.874 0.108-0.095 0.171-0.232 0.171-0.376s-0.062-0.281-0.171-0.376c-0.549-0.479-0.863-1.163-0.863-1.874 0-0.706 0.304-1.382 0.856-1.877zM13.275 2.111c0.74-0.74 1.712-1.109 2.685-1.109s1.943 0.37 2.684 1.109l1.733 1.733-4.524 4.524-4.417-4.417zM6.57 8.816l4.158-4.158 4.417 4.417-4.158 4.158zM12.725 21.888c-1.434 1.434-3.934 1.434-5.368 0l-4.245-4.245C2.395 16.926 2 15.973 2 14.959s0.395-1.967 1.111-2.684l2.752-2.752 9.613 9.613zM16.184 18.43l-4.489-4.489 4.158-4.158 4.488 4.491zM16.56 9.075l2.484-2.484C19.028 6.727 19 6.861 19 7c0 0.825 0.299 1.621 0.834 2.25C19.299 9.879 19 10.675 19 11.5c0 6e-3 2e-3 0.011 2e-3 0.017z" />
</svg>