<svg id="Cannabis_Layer_1" viewBox="0 0 24 24" fill="currentColor" width="32" height="32" data-name="Layer 1" xmlns="http://www.w3.org/2000/svg" xmlns:xlink="http://www.w3.org/1999/xlink">
    <title>Cannabis</title>
    <path d="M23.791 9.25c0.271-0.409 0.279-0.921 0.022-1.338-0.261-0.421-0.733-0.646-1.22-0.583-1.623 0.198-4.592 0.693-7.077 1.838-0.548-2.953-1.725-6.677-2.405-8.41-0.181-0.459-0.615-0.756-1.108-0.756-0.496 0-0.934 0.298-1.115 0.76-0.687 1.75-1.845 5.499-2.401 8.416-2.389-1.073-5.27-1.666-7.115-1.852-0.496-0.048-0.938 0.179-1.188 0.592-0.252 0.415-0.242 0.924 0.023 1.328 0.887 1.355 2.495 3.338 4.266 5-0.813 0.229-1.518 0.488-2.158 0.723l-0.564 0.206c-0.439 0.158-0.729 0.562-0.735 1.029-7e-3 0.466 0.269 0.877 0.702 1.047 0.262 0.102 0.543 0.221 0.842 0.348 1.15 0.488 2.547 1.08 4.172 1.32-0.292 0.594-0.56 1.192-0.688 1.655-0.111 0.402 6e-3 0.83 0.306 1.118C6.561 21.893 6.837 22 7.12 22c0.114 0 0.229-0.018 0.342-0.054 0.995-0.321 2.749-1.168 4.041-2.325v3.88c0 0.276 0.224 0.5 0.5 0.5s0.5-0.224 0.5-0.5v-3.858c1.293 1.137 3.07 1.979 4.088 2.304 0.393 0.126 0.816 0.025 1.112-0.258 0.298-0.287 0.414-0.713 0.304-1.112-0.123-0.446-0.425-1.056-0.732-1.661 1.82-0.267 3.418-0.941 4.622-1.449l0.424-0.178c0.433-0.18 0.7-0.598 0.682-1.067-0.019-0.47-0.32-0.867-0.767-1.011-0.347-0.112-0.693-0.245-1.057-0.382-0.498-0.189-1.041-0.396-1.655-0.579 1.76-1.659 3.373-3.644 4.267-5zM18.171 14.124c-0.142 0.124-0.202 0.318-0.155 0.5 0.047 0.183 0.192 0.324 0.377 0.365 0.937 0.207 1.694 0.495 2.428 0.774 0.379 0.144 0.742 0.282 1.104 0.399 0.049 0.016 0.074 0.049 0.076 0.101 3e-3 0.074-0.049 0.096-0.065 0.103l-0.43 0.18c-1.3 0.548-3.082 1.3-5.045 1.457-0.165 0.013-0.313 0.108-0.396 0.252-0.081 0.145-0.086 0.321-0.012 0.469l0.243 0.48c0.298 0.585 0.637 1.249 0.744 1.639 0.018 0.063-0.014 0.105-0.033 0.125-0.033 0.031-0.073 0.04-0.114 0.026-1.049-0.334-3.259-1.497-4.393-2.784v-3.709c0-0.276-0.224-0.5-0.5-0.5s-0.5 0.224-0.5 0.5v3.676c-1.146 1.301-3.333 2.49-4.348 2.817-0.045 0.014-0.081 5e-3-0.112-0.026-0.021-0.02-0.053-0.063-0.035-0.128 0.152-0.546 0.561-1.374 0.939-2.11 0.077-0.149 0.074-0.327-8e-3-0.473s-0.232-0.242-0.399-0.254C5.76 17.87 4.2 17.209 2.947 16.678 2.639 16.547 2.35 16.425 2.081 16.32c-0.018-7e-3-0.068-0.027-0.067-0.101 0-0.051 0.025-0.085 0.072-0.103l0.572-0.208c0.883-0.324 1.796-0.659 2.951-0.919 0.185-0.042 0.329-0.183 0.376-0.366 0.046-0.183-0.016-0.376-0.158-0.5-1.955-1.693-3.851-3.999-4.785-5.425-0.076-0.116-0.028-0.221-5e-3-0.261 0.024-0.04 0.086-0.129 0.233-0.116 1.545 0.155 4.836 0.759 7.368 2.036 0.142 0.071 0.31 0.071 0.451 0 0.142-0.072 0.241-0.208 0.267-0.364 0.476-2.879 1.758-7.069 2.463-8.865 0.082-0.21 0.276-0.222 0.36-4e-3 0.718 1.825 1.996 5.905 2.463 8.865 0.025 0.159 0.126 0.297 0.27 0.369 0.143 0.073 0.312 0.07 0.457-4e-3 2.452-1.286 5.654-1.825 7.346-2.032 0.15-0.013 0.223 0.076 0.248 0.117 0.029 0.048 0.069 0.147-6e-3 0.26-0.978 1.476-2.836 3.726-4.786 5.425z" />
</svg>