<svg id="canned_food_Layer_1" viewBox="0 0 24 24" fill="currentColor" width="32" height="32" data-name="Layer 1" xmlns="http://www.w3.org/2000/svg" xmlns:xlink="http://www.w3.org/1999/xlink">
    <title>canned-food</title>
    <path d="M23.5 23H23V7h0.5C23.776 7 24 6.776 24 6.5S23.776 6 23.5 6h-5.553C18.597 5.364 19 4.478 19 3.5 19 1.57 17.43 0 15.5 0 15.224 0 15 0.224 15 0.5S15.224 1 15.5 1C16.878 1 18 2.121 18 3.5S16.878 6 15.5 6h-15C0.224 6 0 6.224 0 6.5S0.224 7 0.5 7H1v16H0.5C0.224 23 0 23.224 0 23.5S0.224 24 0.5 24h23c0.276 0 0.5-0.224 0.5-0.5S23.776 23 23.5 23zM2 20h17.5c0.276 0 0.5-0.224 0.5-0.5S19.776 19 19.5 19H2v-8h17.5c0.276 0 0.5-0.224 0.5-0.5S19.776 10 19.5 10H2V7h20v16H2z" />
</svg>