<svg id="car_oil_Layer_1" viewBox="0 0 24 24" fill="currentColor" width="32" height="32" data-name="Layer 1" xmlns="http://www.w3.org/2000/svg" xmlns:xlink="http://www.w3.org/1999/xlink">
    <title>car-oil</title>
    <path d="M13.109 10.462c-0.611-0.608-1.606-0.608-2.218 0l-1.72 1.71c-1.56 1.559-1.56 4.097 0 5.657 1.489 1.551 4.168 1.552 5.657 0 1.552-1.49 1.553-4.168 0-5.658zM14.121 17.122c-1.133 1.133-3.109 1.133-4.243 0-1.169-1.17-1.169-3.073 0-4.242l1.719-1.709c0.223-0.221 0.585-0.221 0.808 0l1.717 1.708c1.164 1.117 1.164 3.126-1e-3 4.243zM20.695 5.376 21.56 4.511c0.585-0.585 0.585-1.537 0-2.122L20.111 0.94c-0.585-0.585-1.537-0.584-2.122 0l-0.864 0.864-0.486-0.486C15.788 0.468 14.659 0 13.457 0H6.5C4.019 0 2 2.019 2 4.5v15C2 21.981 4.019 24 6.5 24h11c2.481 0 4.5-2.019 4.5-4.5V8.542c0-1.195-0.464-2.317-1.305-3.166zM18.697 1.647c0.195-0.195 0.512-0.196 0.708 0l1.449 1.449c0.195 0.195 0.195 0.512 0 0.708L19.99 4.668 17.833 2.511zM21 19.501c0 1.93-1.57 3.5-3.5 3.5h-11c-1.93 0-3.5-1.57-3.5-3.5V4.5C3 2.57 4.57 1 6.5 1h6.958c0.935 0 1.814 0.364 2.475 1.025l4.042 4.042C20.636 6.728 21 7.608 21 8.542zM15 3.5V3c0-0.551-0.449-1-1-1H6.5C5.122 2 4 3.122 4 4.5V5c0 0.551 0.449 1 1 1h7.5C13.878 6 15 4.878 15 3.5zM5 4.5C5 3.673 5.673 3 6.5 3H14v0.501c0 0.827-0.673 1.5-1.5 1.5H5z" />
</svg>