<svg id="car_rear_Layer_1" viewBox="0 0 24 24" fill="currentColor" width="32" height="32" data-name="Layer 1" xmlns="http://www.w3.org/2000/svg" xmlns:xlink="http://www.w3.org/1999/xlink">
    <title>car-rear</title>
    <path d="M23.669 12.001l-2.88-7.919C20.118 2.239 18.35 1 16.389 1H7.611c-1.961 0-3.729 1.239-4.4 3.082l-2.88 7.919C0.111 12.604 0 13.236 0 13.88v1.619c0 1.391 0.822 2.585 2 3.149v1.851c0 1.378 1.121 2.5 2.5 2.5s2.5-1.122 2.5-2.5v-1.5h10v1.5c0 1.378 1.121 2.5 2.5 2.5s2.5-1.122 2.5-2.5v-1.851c1.178-0.564 2-1.758 2-3.149V13.88c0-0.644-0.111-1.276-0.331-1.879zM4.15 4.424C4.677 2.974 6.069 2 7.611 2h8.777c1.542 0 2.934 0.974 3.461 2.424L21.513 9H2.486zM6 20.5C6 21.327 5.327 22 4.5 22S3 21.327 3 20.5v-1.551C3.165 18.973 3.329 19 3.5 19H6zM15 18H9v-1c0-0.551 0.448-1 1-1h4c0.552 0 1 0.449 1 1zM21 20.5c0 0.827-0.673 1.5-1.5 1.5S18 21.327 18 20.5V19h2.5c0.171 0 0.335-0.027 0.5-0.051zM23 15.5c0 1.378-1.121 2.5-2.5 2.5H16v-1c0-1.103-0.897-2-2-2h-4c-1.103 0-2 0.897-2 2v1H3.5C2.121 18 1 16.878 1 15.5v-1.619C1 13.583 1.037 13.29 1.095 13H3.5C3.776 13 4 12.776 4 12.5S3.776 12 3.5 12H1.395l0.727-2h19.755l0.727 2h-2.105c-0.276 0-0.5 0.224-0.5 0.5s0.224 0.5 0.5 0.5h2.405c0.058 0.289 0.095 0.583 0.095 0.881z" />
</svg>