<svg id="car_side_bolt_Layer_1" viewBox="0 0 24 24" fill="currentColor" width="32" height="32" data-name="Layer 1" xmlns="http://www.w3.org/2000/svg" xmlns:xlink="http://www.w3.org/1999/xlink">
    <title>car-side-bolt</title>
    <path d="M20.92 10.23l-0.01-0.016-4.383-6.288C15.686 2.72 14.306 2 12.836 2H8.001C6.143 2 4.452 3.167 3.793 4.905l-2.13 5.617C0.666 11.139 0 12.243 0 13.5V16c0 1.103 0.897 2 2 2v1c0 1.654 1.346 3 3 3s3-1.346 3-3v-1h8v1c0 1.654 1.346 3 3 3s3-1.346 3-3v-1c1.103 0 2-0.897 2-2v-1.5c0-1.985-1.292-3.674-3.08-4.27zM7 19c0 1.103-0.897 2-2 2s-2-0.897-2-2v-1h4zM21 19c0 1.103-0.897 2-2 2s-2-0.897-2-2v-1h4zM23 16c0 0.551-0.449 1-1 1H2c-0.551 0-1-0.449-1-1v-2.5C1 12.122 2.122 11 3.5 11h2C5.776 11 6 10.776 6 10.5S5.776 10 5.5 10h-2c-0.2 0-0.397 0.017-0.588 0.05l1.815-4.79C5.24 3.908 6.555 3.001 8 3.001h4.835c1.144 0 2.217 0.56 2.871 1.499l3.836 5.502H16.5c-0.276 0-0.5 0.223-0.5 0.499s0.224 0.5 0.5 0.5h3c1.93 0 3.5 1.57 3.5 3.5zM13.85 10.661c0.219 0.408 0.196 0.901-0.06 1.287l-2.89 3.853c-0.098 0.131-0.249 0.2-0.4 0.2-0.104 0-0.209-0.033-0.3-0.1-0.221-0.166-0.265-0.479-0.1-0.7l2.873-3.829c0.059-0.091 0.017-0.197-5e-3-0.237-0.021-0.04-0.086-0.134-0.224-0.134H9.269c-0.406 0-0.777-0.187-1.019-0.513S7.937 9.753 8.055 9.364c0.017-0.055 3.043-4.161 3.043-4.161 0.165-0.222 0.477-0.27 0.699-0.104 0.222 0.164 0.269 0.478 0.104 0.699L9 9.718c-4e-3 0.081 0.029 0.141 0.053 0.174C9.083 9.933 9.151 10 9.269 10h3.475c0.463 0 0.886 0.253 1.106 0.661z" />
</svg>