<svg id="car_mechanic_Layer_1" viewBox="0 0 24 24" fill="currentColor" width="32" height="32" data-name="Layer 1" xmlns="http://www.w3.org/2000/svg" xmlns:xlink="http://www.w3.org/1999/xlink">
    <title>car-mechanic</title>
    <path d="M23 4h-1.5C21.225 4 21 3.775 21 3.5S21.225 3 21.5 3H23c0.59 0 0.855-0.261 0.974-0.48 0.186-0.343 0.082-0.723-0.062-0.943-0.781-1.189-2.194-1.782-3.606-1.509-1.388 0.27-2.491 1.387-2.745 2.778-9e-3 0.052-0.017 0.103-0.023 0.154H6.537c-6e-3-0.051-0.013-0.102-0.023-0.154-0.253-1.392-1.357-2.509-2.745-2.779-1.412-0.272-2.824 0.319-3.606 1.509-0.145 0.22-0.249 0.6-0.063 0.943 0.097 0.18 0.352 0.48 0.974 0.48H2.5c0.276 0 0.5 0.225 0.5 0.5s-0.224 0.5-0.5 0.5H1.074c-0.622 0-0.877 0.301-0.974 0.48-0.186 0.344-0.082 0.724 0.063 0.943 0.656 0.997 1.755 1.574 2.923 1.574 0.226 0 0.455-0.021 0.683-0.065 1.389-0.27 2.492-1.387 2.746-2.78 9e-3-0.051 0.016-0.102 0.023-0.152h11c6e-3 0.051 0.013 0.103 0.023 0.154 0.254 1.392 1.357 2.509 2.745 2.778 0.229 0.044 0.458 0.065 0.684 0.065 1.168 0 2.268-0.577 2.923-1.574 0.145-0.221 0.248-0.601 0.062-0.943C23.857 4.259 23.591 3.999 23 4zM5.561 3.501c0 0.156-1e-3 0.312-0.03 0.473-0.178 0.976-0.98 1.788-1.953 1.977-0.972 0.188-1.914-0.174-2.491-0.95H2.5c0.827 0 1.5-0.673 1.5-1.5s-0.673-1.5-1.5-1.5H1.086c0.578-0.777 1.52-1.14 2.492-0.95C4.55 1.239 5.353 2.052 5.53 3.026 5.559 3.187 5.561 3.344 5.561 3.501zM20.496 5.95c-0.972-0.188-1.774-1.001-1.952-1.976-0.03-0.162-0.031-0.318-0.031-0.475s0-0.312 0.031-0.475c0.178-0.975 0.98-1.787 1.952-1.976 0.171-0.033 0.34-0.05 0.507-0.05 0.785 0 1.509 0.359 1.984 1H21.5c-0.827 0-1.5 0.673-1.5 1.5s0.673 1.5 1.5 1.5h1.488c-0.577 0.777-1.521 1.141-2.492 0.952zM20.086 9.267c-0.8-1.398-2.297-2.268-3.907-2.268H7.821c-1.61 0-3.107 0.869-3.907 2.268l-2.058 3.601C1.295 13.849 1 14.965 1 16.094V17.5c0 1.393 0.819 2.599 2 3.162V21.5C3 22.879 4.122 24 5.5 24S8 22.879 8 21.5V21h8v0.5c0 1.379 1.121 2.5 2.5 2.5s2.5-1.121 2.5-2.5v-0.838c1.181-0.563 2-1.769 2-3.162v-1.406c0-1.13-0.296-2.245-0.856-3.226zM4.782 9.763c0.622-1.088 1.787-1.764 3.039-1.764h8.357c1.253 0 2.417 0.676 3.038 1.764l2.058 3.601c0.117 0.205 0.221 0.418 0.311 0.636H2.414c0.09-0.218 0.193-0.43 0.31-0.636zM7 21.499c0 0.827-0.673 1.5-1.5 1.5S4 22.326 4 21.499v-0.536c0.163 0.023 0.33 0.036 0.5 0.036H7zM20 21.499c0 0.827-0.673 1.5-1.5 1.5s-1.5-0.673-1.5-1.5v-0.5h2.5c0.17 0 0.337-0.012 0.5-0.036zM22 17.499c0 1.379-1.121 2.5-2.5 2.5h-15c-1.378 0-2.5-1.121-2.5-2.5v-1.406c0-0.368 0.038-0.735 0.111-1.094H5v1.5c0 0.276 0.224 0.5 0.5 0.5s0.5-0.224 0.5-0.5v-1.5h12v1.5c0 0.276 0.224 0.5 0.5 0.5s0.5-0.224 0.5-0.5v-1.5h2.889C21.962 15.358 22 15.724 22 16.093z" />
</svg>