<svg id="car_alt_Layer_1" viewBox="0 0 24 24" fill="currentColor" width="32" height="32" data-name="Layer 1" xmlns="http://www.w3.org/2000/svg" xmlns:xlink="http://www.w3.org/1999/xlink">
    <title>car-alt</title>
    <path d="M18 15c0-0.552 0.448-1 1-1s1 0.448 1 1-0.448 1-1 1-1-0.448-1-1zM5 14c-0.552 0-1 0.448-1 1s0.448 1 1 1 1-0.448 1-1-0.448-1-1-1zM24 8v7.5c0 1.393-0.819 2.599-2 3.162V20.5c0 1.378-1.121 2.5-2.5 2.5S17 21.878 17 20.5V19H7v1.5C7 21.878 5.879 23 4.5 23S2 21.878 2 20.5v-1.838c-1.181-0.563-2-1.769-2-3.162V8c0-0.551 0.448-1 1-1h1.074c0.67-1.337 1.377-2.539 2.116-3.594 0.649-0.926 1.605-1.578 2.69-1.834 1.099-0.261 2.88-0.571 5.119-0.571s4.021 0.311 5.119 0.571c1.085 0.257 2.041 0.908 2.69 1.834 0.74 1.056 1.447 2.257 2.116 3.594h1.074c0.552 0 1 0.449 1.002 1zM21.928 7.005zM2.071 7.005zM1.063 11.913C2.833 11.664 7.933 11 11.999 11s9.166 0.664 10.936 0.913c-1.164-3.191-2.491-5.859-3.945-7.933-0.509-0.725-1.256-1.235-2.103-1.436C15.839 2.296 14.141 2 11.998 2S8.157 2.296 7.109 2.544C6.262 2.745 5.515 3.255 5.006 3.98 3.552 6.054 2.225 8.722 1.063 11.913zM5.999 19H3.5c-0.17 0-0.337-0.012-0.5-0.036V20.5C3 21.327 3.673 22 4.5 22S6 21.327 6 20.5zM20.999 18.964c-0.163 0.023-0.33 0.036-0.5 0.036h-2.5v1.5c0 0.827 0.673 1.5 1.5 1.5s1.5-0.673 1.5-1.5zM22.999 12.932c-1.52-0.218-6.823-0.932-11-0.932s-9.48 0.714-11 0.932V15.5c0 1.378 1.121 2.5 2.5 2.5H20.5c1.379 0 2.5-1.122 2.5-2.5z" />
</svg>