<svg id="car_journey_Layer_1" viewBox="0 0 24 24" fill="currentColor" width="32" height="32" data-name="Layer 1" xmlns="http://www.w3.org/2000/svg" xmlns:xlink="http://www.w3.org/1999/xlink">
    <title>car-journey</title>
    <path d="M18.5 10c0.276 0 0.5-0.224 0.5-0.5V6.309l4.348-2.175C23.756 3.854 24 3.377 24 2.858s-0.243-0.996-0.652-1.277c-0.025-0.017-3.276-1.46-3.474-1.52-0.438-0.133-0.9-0.049-1.271 0.227-0.378 0.281-0.604 0.728-0.604 1.197v8.016c0 0.276 0.224 0.5 0.501 0.499zM19 1.484c0-0.154 0.074-0.301 0.199-0.394 0.052-0.038 0.144-0.091 0.264-0.091 0.038 0 0.433 0.124 0.584 0.191l2.764 1.237C22.93 2.524 23 2.682 23 2.857c0 0.188-0.082 0.357-0.159 0.417L19 5.191zM24 18.5c0 1.93-1.57 3.5-3.5 3.5h-6c-0.276 0-0.5-0.224-0.5-0.5s0.224-0.5 0.5-0.5h6c1.379 0 2.5-1.122 2.5-2.5S21.879 16 20.5 16h-8C10.57 16 9 14.43 9 12.5S10.57 9 12.5 9h3C15.776 9 16 9.224 16 9.5S15.776 10 15.5 10h-3c-1.378 0-2.5 1.122-2.5 2.5s1.122 2.5 2.5 2.5h8c1.93 0 3.5 1.57 3.5 3.5zM10 18H9.07l-1.258-1.887C7.347 15.416 6.57 15 5.732 15H2.5C1.122 15 0 16.122 0 17.5V20c0 0.771 0.443 1.434 1.084 1.768C1.034 21.925 1 22.085 1 22.25 1 23.215 1.785 24 2.75 24s1.75-0.785 1.75-1.75c0-0.086-0.03-0.166-0.044-0.25h2.088C6.531 22.084 6.5 22.164 6.5 22.25 6.5 23.215 7.285 24 8.25 24S10 23.215 10 22.25c0-0.086-0.03-0.166-0.044-0.25H10c1.103 0 2-0.897 2-2s-0.897-2-2-2zM2.5 16h3.232c0.502 0 0.969 0.25 1.248 0.668L7.868 18H1v-0.5C1 16.673 1.673 16 2.5 16zM3.5 22.25C3.5 22.664 3.164 23 2.75 23S2 22.664 2 22.25c0-0.084 0.018-0.167 0.054-0.25h1.392C3.482 22.083 3.5 22.166 3.5 22.25zM9 22.25C9 22.664 8.664 23 8.25 23S7.5 22.664 7.5 22.25c0-0.084 0.018-0.167 0.054-0.25h1.392C8.982 22.083 9 22.166 9 22.25zM10 21H2c-0.551 0-1-0.449-1-1v-1h9c0.551 0 1 0.449 1 1s-0.449 1-1 1z" />
</svg>