<svg id="carbon_footprint_Layer_1" viewBox="0 0 24 24" fill="currentColor" width="32" height="32" data-name="Layer 1" xmlns="http://www.w3.org/2000/svg" xmlns:xlink="http://www.w3.org/1999/xlink">
    <title>carbon-footprint</title>
    <path d="M8.5 9C7.121 9 6 10.121 6 11.5v3C6 15.879 7.121 17 8.5 17s2.5-1.121 2.5-2.5v-3C11 10.121 9.879 9 8.5 9zM10 14.5c0 0.827-0.673 1.5-1.5 1.5S7 15.327 7 14.5v-3C7 10.673 7.673 10 8.5 10s1.5 0.673 1.5 1.5zM1 11.5v3C1 15.327 1.673 16 2.5 16c0.684 0 1.281-0.463 1.452-1.125 0.069-0.267 0.339-0.428 0.609-0.359 0.268 0.069 0.428 0.342 0.359 0.609C4.634 16.229 3.639 17 2.499 17c-1.379 0-2.5-1.121-2.5-2.5v-3c0-1.379 1.121-2.5 2.5-2.5 1.14 0 2.135 0.771 2.421 1.875 0.068 0.268-0.092 0.54-0.359 0.609-0.271 0.069-0.54-0.093-0.609-0.359C3.781 10.463 3.183 10 2.5 10 1.673 10 1 10.673 1 11.5zM15.5 20H13c-0.649 0-1-0.516-1-1 0-0.788 0.761-1.17 1.497-1.539C14.405 17.006 15 16.658 15 16c-4e-3-0.231-0.087-1-1-1-0.499 0-0.796 0.207-0.937 0.65-0.083 0.263-0.363 0.41-0.627 0.326-0.264-0.083-0.409-0.363-0.326-0.627 0.271-0.857 0.959-1.35 1.89-1.35 1.468 0 2 1.196 2 2 0 1.325-1.188 1.92-2.055 2.355C13.591 18.531 13 18.828 13 18.999h2.5c0.276 0 0.5 0.224 0.5 0.5s-0.224 0.5-0.5 0.501zM13.479 2.546c9e-3-1.479-0.71-2.502-1.788-2.546-1.047-6e-3-1.703 0.935-1.679 2.297 0.03 1.305 0.702 2.652 1.964 2.703 0.978-0.028 1.496-1.256 1.503-2.454zM11.982 4c-0.575-0.023-0.951-0.913-0.97-1.725-0.01-0.601 0.172-1.267 0.651-1.275 0.65 0.039 0.818 0.984 0.815 1.54-6e-3 0.896-0.348 1.455-0.496 1.46zM17.5 2.319c-4e-3-1.023 0.489-1.661 1.099-1.678 0.611-0.017 1.108 0.594 1.112 1.617s-0.488 1.866-1.099 1.883-1.109-0.798-1.112-1.822zM14.5 1.678C14.496 0.655 14.989 0.017 15.599 0c0.611-0.017 1.108 0.594 1.112 1.617S16.223 3.483 15.612 3.5 14.503 2.702 14.5 1.678zM20.5 3.938c-3e-3-0.877 0.421-1.424 0.946-1.438s0.954 0.509 0.958 1.386-0.42 1.599-0.946 1.614-0.955-0.684-0.958-1.562zM24 5.923c2e-3 0.584-0.279 1.066-0.628 1.076s-0.634-0.456-0.636-1.041 0.279-0.949 0.628-0.959S23.997 5.338 24 5.923zM23 9.398c0 1.499-0.465 2.827-0.956 4.232C21.53 15.097 21 16.613 21 18.412v2.228c0 1.853-1.57 3.359-3.5 3.359-1.163 0-2.254-0.598-2.917-1.6-0.152-0.23-0.089-0.541 0.141-0.693 0.23-0.154 0.54-0.089 0.693 0.141 0.478 0.722 1.256 1.152 2.083 1.152 1.379 0 2.5-1.059 2.5-2.359v-2.228c0-1.969 0.559-3.566 1.1-5.112 0.463-1.323 0.9-2.573 0.9-3.902C22 7.381 20.77 7 18.5 7c-0.748 0-1.428-0.284-2.085-0.559C15.87 6.214 15.356 6 14.902 6 14.024 6 13 6.452 13 7.728c0 0.854 0.681 1.584 1.469 2.428 0.455 0.488 0.927 0.993 1.304 1.571 0.15 0.231 0.086 0.541-0.146 0.692-0.232 0.149-0.541 0.086-0.692-0.146-0.329-0.506-0.771-0.979-1.197-1.436-0.854-0.915-1.737-1.862-1.737-3.11 0-1.874 1.505-2.728 2.902-2.728 0.654 0 1.286 0.264 1.897 0.519 0.593 0.248 1.152 0.481 1.7 0.481 1.461 0 4.5 0 4.5 3.399z" />
</svg>