<svg id="carbon_cloud_Layer_1" viewBox="0 0 24 24" fill="currentColor" width="32" height="32" data-name="Layer 1" xmlns="http://www.w3.org/2000/svg" xmlns:xlink="http://www.w3.org/1999/xlink">
    <title>carbon-cloud</title>
    <path d="M23.995 12.784c-0.045 1.227-0.415 2.436-1.068 3.497-0.146 0.234-0.454 0.306-0.688 0.163-0.235-0.146-0.308-0.453-0.164-0.688 0.571-0.927 0.881-1.939 0.921-3.009 0.116-3.131-2.015-5.899-5.066-6.583-0.736-0.166-1.347-0.638-1.676-1.296-1.413-2.82-4.467-4.325-7.598-3.743-2.739 0.508-4.953 2.691-5.509 5.434C2.98 7.378 2.956 8.204 3.073 9.011c0.13 0.893-0.119 1.714-0.685 2.255-1.128 1.078-1.609 2.646-1.289 4.196 0.286 1.381 1.282 2.596 2.6 3.17 0.253 0.11 0.369 0.404 0.259 0.658-0.11 0.255-0.411 0.368-0.658 0.258-1.635-0.712-2.824-2.164-3.18-3.883-0.391-1.89 0.199-3.805 1.577-5.122 0.329-0.314 0.469-0.82 0.387-1.388-0.135-0.923-0.107-1.863 0.083-2.796 0.637-3.137 3.171-5.635 6.306-6.216 3.576-0.673 7.061 1.056 8.675 4.278 0.194 0.389 0.559 0.668 1 0.767 3.521 0.789 5.98 3.984 5.847 7.596zM17 15.5v3c0 1.379-1.122 2.5-2.5 2.5S12 19.879 12 18.5v-3c0-1.379 1.122-2.5 2.5-2.5s2.5 1.121 2.5 2.5zM16 15.5c0-0.827-0.673-1.5-1.5-1.5S13 14.673 13 15.5v3c0 0.827 0.673 1.5 1.5 1.5s1.5-0.673 1.5-1.5zM8.5 14c0.684 0 1.282 0.463 1.452 1.125 0.069 0.269 0.344 0.431 0.609 0.359 0.267-0.069 0.428-0.342 0.359-0.609C10.635 13.771 9.64 13 8.499 13c-1.378 0-2.5 1.121-2.5 2.5v3c0 1.379 1.122 2.5 2.5 2.5 1.141 0 2.136-0.771 2.421-1.875 0.069-0.268-0.092-0.54-0.359-0.609-0.267-0.067-0.54 0.092-0.609 0.359C9.782 19.537 9.184 20 8.5 20 7.673 20 7 19.327 7 18.5v-3C7 14.673 7.673 14 8.5 14zM19.945 22.355C20.812 21.919 22 21.325 22 20c0-0.804-0.533-2-2-2-0.931 0-1.619 0.492-1.89 1.35-0.083 0.264 0.063 0.544 0.327 0.627s0.544-0.063 0.627-0.326c0.14-0.443 0.437-0.65 0.936-0.65 0.913 0 0.996 0.769 1 1 0 0.658-0.595 1.006-1.503 1.461C18.761 21.831 18 22.213 18 23.001c0 0.484 0.351 1 1 1h2.5c0.276 0 0.5-0.224 0.5-0.5s-0.224-0.5-0.5-0.5H19c0-0.171 0.592-0.468 0.945-0.646z" />
</svg>