<svg id="card_spade_Layer_1" viewBox="0 0 24 24" fill="currentColor" width="32" height="32" data-name="Layer 1" xmlns="http://www.w3.org/2000/svg" xmlns:xlink="http://www.w3.org/1999/xlink">
    <title>card-spade</title>
    <path d="M16.5 0h-9C5.019 0 3 2.019 3 4.5v15C3 21.981 5.019 24 7.5 24h9c2.481 0 4.5-2.019 4.5-4.5v-15C21 2.019 18.981 0 16.5 0zM20 19.5c0 1.93-1.57 3.5-3.5 3.5h-9C5.57 23 4 21.43 4 19.5v-15C4 2.57 5.57 1 7.5 1h9C18.43 1 20 2.57 20 4.5zM13.155 8.459c-0.67-0.554-1.641-0.554-2.311 0-1.298 1.072-2.845 2.663-2.845 4.15 0 1.318 1.01 2.39 2.25 2.39 0.39 0 0.751-0.089 1.064-0.248-0.177 0.522-0.4 1.013-0.681 1.453-0.221 0.345 3e-3 0.795 0.413 0.795h1.907c0.41 0 0.633-0.45 0.413-0.795-0.281-0.439-0.504-0.93-0.681-1.453 0.314 0.159 0.674 0.248 1.064 0.248 1.24 0 2.25-1.072 2.25-2.39 0-1.487-1.547-3.078-2.843-4.15zM13.75 14c-0.668 0-1.153-0.412-1.237-1.024 0-0.01 2e-3-0.021 2e-3-0.031v-0.212c0-0.276-0.224-0.5-0.5-0.5-0.236 0-0.434 0.164-0.486 0.384-0.018 0.052-0.029 0.107-0.029 0.166 0 0.717-0.514 1.218-1.25 1.218-0.689 0-1.25-0.624-1.25-1.39 0-0.845 0.904-2.076 2.481-3.38 0.301-0.248 0.736-0.248 1.037 0 1.577 1.304 2.481 2.535 2.481 3.38 0 0.767-0.561 1.39-1.249 1.389z" />
</svg>