<svg id="cardinal_compass_Layer_1" viewBox="0 0 24 24" fill="currentColor" width="32" height="32" data-name="Layer 1" xmlns="http://www.w3.org/2000/svg" xmlns:xlink="http://www.w3.org/1999/xlink">
    <title>cardinal-compass</title>
    <path d="M22.791 10.3 18.19 9.229l1.658-3.386c0.061-0.142 0.091-0.295 0.091-0.457 0-0.345-0.142-0.685-0.39-0.934-0.38-0.379-0.944-0.486-1.46-0.266l-3.32 1.625-1.092-4.676C13.402 0.445 12.743-1e-3 12-1e-3s-1.402 0.446-1.7 1.208L9.229 5.809 5.841 4.15C5.394 3.963 4.816 4.088 4.453 4.451 4.074 4.83 3.965 5.394 4.186 5.911L5.811 9.23 1.135 10.321c-0.69 0.276-1.136 0.934-1.136 1.678s0.446 1.401 1.208 1.7l4.602 1.071-1.66 3.388C4.09 18.3 4.061 18.453 4.061 18.612c0 0.345 0.142 0.685 0.39 0.934 0.248 0.248 0.575 0.38 0.916 0.38 0.181 0 0.365-0.037 0.544-0.113l3.319-1.625 1.091 4.675C10.596 23.553 11.255 24 11.999 24s1.401-0.446 1.7-1.209l1.071-4.602 3.386 1.659c0.141 0.059 0.294 0.089 0.456 0.089 0.344 0 0.683-0.141 0.934-0.389 0.379-0.379 0.487-0.942 0.267-1.46l-1.625-3.32 4.675-1.091C23.553 13.401 24 12.743 24 11.999s-0.446-1.402-1.209-1.699zM18.505 5.096c0.116-0.05 0.247-0.025 0.336 0.064 0.062 0.061 0.098 0.146 0.098 0.268L17.19 8.997 15.416 8.584 15.002 6.811zM5.096 5.496C5.046 5.378 5.071 5.249 5.16 5.16 5.221 5.099 5.306 5.063 5.428 5.062l3.568 1.749-0.413 1.774L6.81 8.999zM5.496 18.905c-0.117 0.051-0.247 0.025-0.336-0.063-0.061-0.062-0.098-0.146-0.098-0.27l1.749-3.568 1.774 0.413 0.414 1.773zM18.905 18.506c0.05 0.117 0.025 0.247-0.062 0.335-0.062 0.062-0.147 0.098-0.271 0.099l-3.568-1.749 0.413-1.774 1.773-0.414zM22.565 12.727l-7.678 1.787c-0.186 0.044-0.33 0.188-0.374 0.374l-1.764 7.605c-0.123 0.309-0.417 0.508-0.749 0.508s-0.626-0.199-0.727-0.436l-1.787-7.678c-0.043-0.186-0.188-0.33-0.374-0.374l-7.606-1.764C1.198 12.626 0.999 12.332 0.999 12s0.199-0.626 0.435-0.727l7.679-1.787c0.186-0.043 0.331-0.188 0.374-0.374l1.764-7.606C11.374 1.198 11.668 0.999 12 0.999s0.625 0.199 0.726 0.435l1.787 7.679c0.044 0.186 0.188 0.331 0.374 0.374l7.605 1.764C22.801 11.374 23 11.668 23 12s-0.199 0.625-0.435 0.727zM13.001 12.001c0 0.552-0.448 1-1 1s-1-0.448-1-1 0.448-1 1-1 1 0.448 1 1z" />
</svg>