<svg id="card_heart_Layer_1" viewBox="0 0 24 24" fill="currentColor" width="32" height="32" data-name="Layer 1" xmlns="http://www.w3.org/2000/svg" xmlns:xlink="http://www.w3.org/1999/xlink">
    <title>card-heart</title>
    <path d="M16.5 0h-9C5.019 0 3 2.019 3 4.5v15C3 21.981 5.019 24 7.5 24h9c2.481 0 4.5-2.019 4.5-4.5v-15C21 2.019 18.981 0 16.5 0zM20 19.5c0 1.93-1.57 3.5-3.5 3.5h-9C5.57 23 4 21.43 4 19.5v-15C4 2.57 5.57 1 7.5 1h9C18.43 1 20 2.57 20 4.5zM13.855 9C13.085 9 12.424 9.328 12 9.858 11.576 9.328 10.914 9 10.144 9c-1.299 0-2.355 1.124-2.355 2.504 0 1.797 2.164 3.739 3.455 4.737 0.223 0.172 0.49 0.258 0.757 0.258s0.534-0.086 0.757-0.258c1.291-0.998 3.455-2.94 3.455-4.737 0-1.381-1.057-2.504-2.358-2.504zM12.146 15.45c-0.087 0.067-0.206 0.066-0.292 0-1.919-1.484-3.065-2.959-3.065-3.946 0-0.83 0.608-1.504 1.355-1.504 0.798 0 1.356 0.544 1.356 1.322 0 0.044 0.017 0.197 0.017 0.197 0 0.276 0.224 0.5 0.5 0.5s0.5-0.224 0.5-0.5c0 0-4e-3-0.311-0.01-0.344C12.573 10.476 13.109 10 13.856 10s1.356 0.675 1.356 1.504c0 0.986-1.146 2.461-3.066 3.946z" />
</svg>