<svg id="career_growth_Layer_1" viewBox="0 0 24 24" fill="currentColor" width="32" height="32" data-name="Layer 1" xmlns="http://www.w3.org/2000/svg" xmlns:xlink="http://www.w3.org/1999/xlink">
    <title>career-growth</title>
    <path d="M23.682 5.966C23.622 5.989 23.561 6 23.5 6c-0.2 0-0.389-0.121-0.466-0.318L21.48 1.699c-3.539 8.348-10.55 13.832-20.864 16.287C0.577 17.996 0.538 18 0.5 18c-0.226 0-0.431-0.154-0.486-0.384-0.064-0.269 0.102-0.539 0.371-0.603 10.052-2.393 16.857-7.732 20.244-15.862l-4.193 1.636c-0.255 0.101-0.547-0.027-0.647-0.284s0.027-0.547 0.284-0.647l4.399-1.717c0.341-0.133 0.713-0.127 1.049 0.021s0.595 0.417 0.728 0.759l1.717 4.4c0.101 0.257-0.027 0.547-0.284 0.647zM21.5 8C21.224 8 21 8.224 21 8.5v15c0 0.276 0.224 0.5 0.5 0.5s0.5-0.224 0.5-0.5v-15C22 8.224 21.776 8 21.5 8zM16.5 13c-0.276 0-0.5 0.224-0.5 0.5v10c0 0.276 0.224 0.5 0.5 0.5s0.5-0.224 0.5-0.5v-10c0-0.276-0.224-0.5-0.5-0.5zM6.5 18C6.224 18 6 18.224 6 18.5v5C6 23.776 6.224 24 6.5 24S7 23.776 7 23.5v-5C7 18.224 6.776 18 6.5 18zM1.5 20C1.224 20 1 20.224 1 20.5v3C1 23.776 1.224 24 1.5 24S2 23.776 2 23.5v-3C2 20.224 1.776 20 1.5 20zM11.5 16c-0.276 0-0.5 0.224-0.5 0.5v7c0 0.276 0.224 0.5 0.5 0.5s0.5-0.224 0.5-0.5v-7c0-0.276-0.224-0.5-0.5-0.5zM0 6c0-3.309 2.691-6 6-6s6 2.691 6 6-2.691 6-6 6-6-2.691-6-6zM6 11c0.717 0 1.396-0.158 2.014-0.431C8.011 10.546 8 10.525 8 10.5V10c0-1.103-0.897-2-2-2s-2 0.897-2 2v0.5c0 0.024-0.01 0.045-0.014 0.069C4.603 10.842 5.282 11 6 11zM1 6c0 1.628 0.794 3.063 2.002 3.976C3.015 8.333 4.353 7 6 7s2.985 1.333 2.998 2.976C10.206 9.062 11 7.628 11 6c0-2.757-2.243-5-5-5S1 3.243 1 6zM4 4c0-1.103 0.897-2 2-2s2 0.897 2 2-0.897 2-2 2-2-0.897-2-2zM5 4c0 0.552 0.449 1 1 1s1-0.448 1-1-0.449-1-1-1-1 0.448-1 1z" />
</svg>