<svg id="caret_circle_down_Layer_1" viewBox="0 0 24 24" fill="currentColor" width="32" height="32" data-name="Layer 1" xmlns="http://www.w3.org/2000/svg" xmlns:xlink="http://www.w3.org/1999/xlink">
    <title>caret-circle-down</title>
    <path d="M12 0C5.383 0 0 5.383 0 12s5.383 12 12 12 12-5.383 12-12S18.617 0 12 0zM12 23C5.935 23 1 18.065 1 12S5.935 1 12 1 23 5.935 23 12 18.065 23 12 23z" />
    <path d="M17.087 9H6.913c-0.578 0-1.076 0.333-1.3 0.87-0.224 0.535-0.106 1.146 0.3 1.556L11 16.58c0.267 0.271 0.622 0.419 1 0.419s0.733-0.149 1-0.419l5.087-5.154c0.406-0.411 0.523-1.022 0.3-1.557-0.225-0.536-0.723-0.87-1.3-0.869zM17.376 10.724l-5.088 5.154c-0.155 0.157-0.421 0.157-0.576 0l-5.087-5.154c-0.186-0.188-0.115-0.406-0.089-0.469C6.568 10.178 6.669 10 6.913 10h10.174c0.244 0 0.346 0.179 0.377 0.255 0.026 0.062 0.097 0.281-0.088 0.469z" />
</svg>