<svg id="caret_circle_right_arrow-circle-down" viewBox="0 0 24 24" fill="currentColor" width="32" height="32" xmlns="http://www.w3.org/2000/svg" xmlns:xlink="http://www.w3.org/1999/xlink">
    <title>caret-circle-right</title>
    <path d="M12 0C5.383 0 0 5.383 0 12s5.383 12 12 12 12-5.383 12-12S18.617 0 12 0zM12 23C5.935 23 1 18.065 1 12S5.935 1 12 1 23 5.935 23 12 18.065 23 12 23z" />
    <path d="M11.426 5.913c-0.411-0.406-1.022-0.523-1.556-0.3C9.333 5.837 9 6.335 9 6.913v10.175c0 0.578 0.333 1.076 0.87 1.3 0.18 0.075 0.368 0.112 0.555 0.112 0.368 0 0.729-0.143 1.001-0.412l5.155-5.087c0.27-0.267 0.419-0.622 0.419-1s-0.149-0.733-0.419-1zM15.878 12.288l-5.154 5.087c-0.189 0.187-0.406 0.115-0.469 0.089C10.178 17.432 10 17.331 10 17.087V6.913c0-0.244 0.179-0.345 0.255-0.377 0.03-0.012 0.095-0.035 0.176-0.035 0.088 0 0.194 0.027 0.293 0.124l5.154 5.087C15.957 11.789 16 11.892 16 12s-0.043 0.211-0.122 0.288z" />
</svg>