<svg id="caret_up_Layer_1" viewBox="0 0 24 24" fill="currentColor" width="32" height="32" data-name="Layer 1" xmlns="http://www.w3.org/2000/svg" xmlns:xlink="http://www.w3.org/1999/xlink">
    <title>caret-up</title>
    <path d="M17.757 16H6.243c-0.508 0-0.947-0.291-1.144-0.759-0.198-0.469-0.1-0.985 0.254-1.349L10.4 8.704c0.794-0.885 2.392-0.899 3.213 0.015l5.034 5.173c0.354 0.363 0.452 0.88 0.254 1.349C18.704 15.709 18.265 16 17.757 16zM12 9c-0.336 0-0.645 0.138-0.869 0.388L6.07 14.59c-0.101 0.104-0.068 0.218-0.05 0.263C6.039 14.897 6.098 15 6.243 15h11.514c0.145 0 0.204-0.104 0.223-0.147 0.019-0.045 0.051-0.159-0.05-0.263l-5.047-5.188C12.645 9.137 12.336 9 12 9z" />
</svg>