<svg id="caret_square_down_Layer_1" viewBox="0 0 24 24" fill="currentColor" width="32" height="32" data-name="Layer 1" xmlns="http://www.w3.org/2000/svg" xmlns:xlink="http://www.w3.org/1999/xlink">
    <title>caret-square-down</title>
    <path d="M19.5 0h-15C2.019 0 0 2.019 0 4.5v15C0 21.981 2.019 24 4.5 24h15c2.481 0 4.5-2.019 4.5-4.5v-15C24 2.019 21.981 0 19.5 0zM23 19.5c0 1.93-1.57 3.5-3.5 3.5h-15C2.57 23 1 21.43 1 19.5v-15C1 2.57 2.57 1 4.5 1h15C21.43 1 23 2.57 23 4.5z" />
    <path d="M17.087 9H6.913c-0.577 0-1.075 0.333-1.3 0.87-0.224 0.535-0.106 1.146 0.3 1.557L11 16.581C11.267 16.852 11.622 17 12 17s0.733-0.149 0.999-0.419l5.088-5.154c0.406-0.411 0.523-1.022 0.3-1.557C18.162 9.334 17.664 9 17.087 9zM17.376 10.724l-5.089 5.154c-0.154 0.157-0.419 0.157-0.575 0l-5.088-5.154c-0.185-0.188-0.114-0.406-0.088-0.469C6.567 10.178 6.669 10 6.913 10h10.174c0.244 0 0.346 0.179 0.377 0.255 0.026 0.062 0.097 0.281-0.088 0.469z" />
</svg>