<svg id="caret_circle_up_arrow-circle-down" viewBox="0 0 24 24" fill="currentColor" width="32" height="32" xmlns="http://www.w3.org/2000/svg" xmlns:xlink="http://www.w3.org/1999/xlink">
    <title>caret-circle-up</title>
    <path d="M12 0C5.383 0 0 5.383 0 12s5.383 12 12 12 12-5.383 12-12S18.617 0 12 0zM12 23C5.935 23 1 18.065 1 12S5.935 1 12 1 23 5.935 23 12 18.065 23 12 23z" />
    <path d="M13 7.419c-0.533-0.541-1.467-0.541-2 0l-5.087 5.154c-0.406 0.411-0.523 1.021-0.3 1.556 0.224 0.537 0.722 0.87 1.3 0.87h10.174c0.577 0 1.075-0.333 1.3-0.87 0.224-0.535 0.106-1.146-0.3-1.557zM17.464 13.744c-0.031 0.077-0.133 0.255-0.377 0.255H6.913c-0.244 0-0.345-0.179-0.377-0.255-0.026-0.062-0.097-0.28 0.089-0.469l5.087-5.154C11.79 8.042 11.892 7.999 12 7.999s0.21 0.043 0.288 0.122l5.088 5.154c0.185 0.188 0.114 0.406 0.088 0.469z" />
</svg>