<svg id="caret_square_left_arrow-circle-down" viewBox="0 0 24 24" fill="currentColor" width="32" height="32" xmlns="http://www.w3.org/2000/svg" xmlns:xlink="http://www.w3.org/1999/xlink">
    <title>caret-square-left</title>
    <path d="M12 0C5.383 0 0 5.383 0 12s5.383 12 12 12 12-5.383 12-12S18.617 0 12 0zM12 23C5.935 23 1 18.065 1 12S5.935 1 12 1 23 5.935 23 12 18.065 23 12 23z" />
    <path d="M14.13 5.613c-0.534-0.223-1.146-0.105-1.556 0.3L7.42 11c-0.271 0.267-0.419 0.622-0.419 1s0.149 0.733 0.419 1l5.154 5.087c0.272 0.269 0.633 0.412 1.001 0.412 0.187 0 0.375-0.037 0.555-0.112 0.537-0.224 0.87-0.722 0.87-1.3V6.913c0-0.578-0.333-1.076-0.87-1.3zM14 17.088c0 0.244-0.179 0.345-0.256 0.377-0.062 0.025-0.283 0.095-0.468-0.089l-5.155-5.087c-0.079-0.078-0.122-0.18-0.122-0.288s0.043-0.21 0.122-0.288l5.155-5.087c0.098-0.097 0.204-0.124 0.293-0.124 0.08 0 0.146 0.022 0.175 0.035C13.821 6.569 14 6.67 14 6.914z" />
</svg>