<svg id="career_path_Layer_1" viewBox="0 0 24 24" fill="currentColor" width="32" height="32" data-name="Layer 1" xmlns="http://www.w3.org/2000/svg" xmlns:xlink="http://www.w3.org/1999/xlink">
    <title>career-path</title>
    <path d="M9 14c0-1.103-0.897-2-2-2H5c-1.103 0-2 0.897-2 2-1.654 0-3 1.346-3 3v4c0 1.654 1.346 3 3 3h6c1.654 0 3-1.346 3-3v-4c0-1.654-1.346-3-3-3zM5 13h2c0.551 0 1 0.448 1 1H4c0-0.552 0.449-1 1-1zM3 15h6c1.103 0 2 0.897 2 2v1H1v-1c0-1.103 0.897-2 2-2zM9 23H3c-1.103 0-2-0.897-2-2v-2h4.5v1.5C5.5 20.776 5.724 21 6 21s0.5-0.224 0.5-0.5V19H11v2c0 1.103-0.897 2-2 2zM18.5 10c0.276 0 0.5-0.224 0.5-0.5V6.309l4.348-2.175C23.757 3.853 24 3.376 24 2.858s-0.244-0.995-0.652-1.276c-0.025-0.017-2.893-1.303-2.893-1.303-0.19-0.086-0.385-0.158-0.581-0.217-0.438-0.132-0.9-0.049-1.271 0.227-0.378 0.28-0.604 0.728-0.604 1.196v8.016c0 0.276 0.224 0.5 0.501 0.499zM19 1.484c0-0.153 0.075-0.301 0.2-0.394 0.051-0.038 0.143-0.091 0.263-0.091 0.039 0 0.081 6e-3 0.125 0.02 0.156 0.046 3.224 1.408 3.224 1.408 0.119 0.097 0.189 0.255 0.189 0.43 0 0.189-0.082 0.358-0.159 0.417l-3.841 1.917zM24 18.5c0 1.93-1.57 3.5-3.5 3.5h-6c-0.276 0-0.5-0.224-0.5-0.5s0.224-0.5 0.5-0.5h6c1.378 0 2.5-1.121 2.5-2.5S21.878 16 20.5 16h-5c-1.93 0-3.5-1.57-3.5-3.5S13.57 9 15.5 9C15.776 9 16 9.224 16 9.5S15.776 10 15.5 10c-1.378 0-2.5 1.121-2.5 2.5s1.122 2.5 2.5 2.5h5c1.93 0 3.5 1.57 3.5 3.5z" />
</svg>