<svg id="caret_square_left_1_arrow-circle-down" viewBox="0 0 24 24" fill="currentColor" width="32" height="32" xmlns="http://www.w3.org/2000/svg" xmlns:xlink="http://www.w3.org/1999/xlink">
    <title>caret-square-left_1</title>
    <path d="M19.5 0h-15C2.019 0 0 2.019 0 4.5v15C0 21.981 2.019 24 4.5 24h15c2.481 0 4.5-2.019 4.5-4.5v-15C24 2.019 21.981 0 19.5 0zM23 19.5c0 1.93-1.57 3.5-3.5 3.5h-15C2.57 23 1 21.43 1 19.5v-15C1 2.57 2.57 1 4.5 1h15C21.43 1 23 2.57 23 4.5z" />
    <path d="M14.13 5.613c-0.534-0.223-1.145-0.105-1.557 0.3L7.419 11C7.149 11.267 7 11.622 7 12s0.149 0.733 0.419 1l5.154 5.087c0.273 0.269 0.634 0.412 1.002 0.412 0.187 0 0.375-0.037 0.555-0.112 0.537-0.224 0.87-0.722 0.87-1.3V6.913c0-0.578-0.333-1.076-0.87-1.3zM14 17.088c0 0.244-0.179 0.345-0.256 0.377-0.062 0.025-0.283 0.095-0.468-0.089l-5.154-5.087C8.043 12.212 8 12.109 8 12.001s0.043-0.211 0.122-0.288l5.154-5.087c0.098-0.097 0.204-0.124 0.293-0.124 0.08 0 0.146 0.022 0.175 0.035C13.821 6.569 14 6.67 14 6.914z" />
</svg>