<svg id="cars_crash_Layer_1" viewBox="0 0 24 24" fill="currentColor" width="32" height="32" data-name="Layer 1" xmlns="http://www.w3.org/2000/svg" xmlns:xlink="http://www.w3.org/1999/xlink">
    <title>cars-crash</title>
    <path d="M6.888 6.637 1.067 7.973c0.017-0.404 0.05-0.808 0.119-1.211l0.309-1.807c0.239-1.397 1.286-2.504 2.667-2.822L8.711 1.09c0.547-0.125 1.123-0.117 1.664 0.024 0.267 0.07 0.54-0.09 0.61-0.358 0.069-0.267-0.091-0.541-0.358-0.61C9.93-0.035 9.191-0.045 8.488 0.115l-4.55 1.043C2.162 1.566 0.815 2.99 0.509 4.786L0.2 6.593C-0.035 7.967 4e-3 9.352 0.316 10.71s1.379 2.35 2.656 2.635l0.299 1.305c0.213 0.925 1.039 1.552 1.949 1.552 0.148 0 0.298-0.017 0.448-0.051 1.075-0.247 1.749-1.322 1.502-2.396l-0.335-1.463c-0.03-0.129-0.109-0.241-0.222-0.312-0.112-0.07-0.247-0.093-0.377-0.063l-1.949 0.447c-1.342 0.307-2.688-0.533-2.996-1.877-0.113-0.494-0.176-0.992-0.209-1.491L3.88 8.354 4.216 9.816c0.053 0.231 0.259 0.388 0.487 0.388 0.037 0 0.075-4e-3 0.112-0.013 0.269-0.062 0.438-0.33 0.375-0.599L4.854 8.13 7.112 7.612C7.381 7.55 7.55 7.282 7.487 7.013 7.425 6.743 7.155 6.574 6.888 6.637zM4.51 13.339l1.462-0.336 0.224 0.975c0.123 0.537-0.214 1.075-0.751 1.198-0.539 0.129-1.075-0.213-1.199-0.751l-0.231-1.009c0.165-0.014 0.33-0.04 0.495-0.077zM24 17.5c0-1.395-0.271-2.753-0.808-4.038l-0.705-1.693C21.786 10.087 20.155 9 18.333 9h-4.667c-1.822 0-3.453 1.087-4.154 2.769l-0.705 1.693c-0.536 1.285-0.808 2.644-0.808 4.038s0.822 2.585 2 3.149V22c0 1.103 0.897 2 2 2s2-0.897 2-2v-1h4v1c0 1.103 0.897 2 2 2s2-0.897 2-2v-1.351c1.178-0.564 2-1.758 2.001-3.149zM9.73 13.847l0.705-1.693C10.98 10.845 12.248 10 13.666 10h4.667c1.417 0 2.686 0.845 3.231 2.154l0.705 1.693c0.157 0.377 0.28 0.763 0.387 1.153H9.344c0.107-0.39 0.229-0.776 0.386-1.153zM13 22c0 0.552-0.449 1-1 1s-1-0.448-1-1v-1.051C11.165 20.973 11.329 21 11.5 21H13zM21 22c0 0.552-0.449 1-1 1s-1-0.448-1-1v-1h1.5c0.171 0 0.335-0.027 0.5-0.051zM20.5 20h-9C10.122 20 9 18.879 9 17.5c0-0.507 0.05-1.006 0.129-1.5H12v1.5c0 0.276 0.224 0.5 0.5 0.5s0.5-0.224 0.5-0.5V16h6v1.5c0 0.276 0.224 0.5 0.5 0.5s0.5-0.224 0.5-0.5V16h2.871C22.95 16.494 23 16.993 23 17.5c0 1.379-1.122 2.5-2.5 2.5zM8.455 4.502 11.08 4.263c0.629-0.057 1.126-0.555 1.184-1.184l0.239-2.625c0.018-0.193 0.146-0.359 0.328-0.425 0.183-0.065 0.387-0.021 0.524 0.117l1.722 1.722c0.494 0.493 1.354 0.493 1.849 0l1.722-1.722c0.137-0.137 0.341-0.182 0.524-0.117 0.182 0.066 0.31 0.232 0.328 0.425l0.239 2.625c0.057 0.629 0.555 1.126 1.184 1.184l2.625 0.239c0.193 0.018 0.359 0.146 0.425 0.328 0.066 0.183 0.021 0.387-0.117 0.524l-1.722 1.722c-0.157 0.157-0.271 0.351-0.332 0.562C21.74 7.857 21.539 8 21.322 8c-0.045 0-0.092-6e-3-0.138-0.02-0.266-0.076-0.419-0.353-0.343-0.618 0.107-0.374 0.31-0.717 0.586-0.994l0.967-0.967-1.562-0.142c-1.109-0.101-1.988-0.979-2.089-2.089l-0.142-1.562-0.967 0.967c-0.899 0.899-2.363 0.899-3.263 0l-0.967-0.967-0.142 1.562c-0.101 1.109-0.979 1.988-2.089 2.089L9.611 5.401l0.967 0.967c0.276 0.276 0.479 0.62 0.586 0.994 0.076 0.266-0.077 0.542-0.343 0.618-0.267 0.076-0.542-0.078-0.618-0.343-0.061-0.211-0.175-0.405-0.332-0.562L8.149 5.353C8.012 5.216 7.966 5.012 8.032 4.829c0.066-0.182 0.232-0.31 0.423-0.327z" />
</svg>