<svg id="cart_shopping_fast_Layer_1" viewBox="0 0 24 24" fill="currentColor" width="32" height="32" data-name="Layer 1" xmlns="http://www.w3.org/2000/svg" xmlns:xlink="http://www.w3.org/1999/xlink">
    <title>cart-shopping-fast</title>
    <path d="M23.43 4.92C22.95 4.34 22.25 4 21.5 4H6.49L6.23 2.16C6.06 0.93 5 0 3.75 0H2.49c-0.28 0-0.5 0.22-0.5 0.5S2.21 1 2.49 1h1.26C4.5 1 5.13 1.56 5.24 2.29l1.78 12.83C7.33 17.33 9.24 19 11.48 19h8.02c0.28 0 0.5-0.22 0.5-0.5S19.78 18 19.5 18h-8.02c-1.73 0-3.22-1.29-3.46-3h10.64c2.14 0 3.99-1.52 4.41-3.62l0.88-4.39c0.15-0.74-0.04-1.49-0.52-2.07zM22.97 6.8l-0.88 4.39C21.76 12.82 20.32 14 18.66 14H7.88L6.63 5H21.5c0.45 0 0.87 0.2 1.16 0.55s0.4 0.8 0.31 1.25zM9 20.01c-1.1 0-2 0.9-2 2s0.9 2 2 2 2-0.9 2-2-0.9-2-2-2zM9 23.01c-0.55 0-1-0.45-1-1s0.45-1 1-1 1 0.45 1 1-0.45 1-1 1zM18 20.01c-1.1 0-2 0.9-2 2s0.9 2 2 2 2-0.9 2-2-0.9-2-2-2zM18 23.01c-0.55 0-1-0.45-1-1s0.45-1 1-1 1 0.45 1 1-0.45 1-1 1zM0 5.5C0 5.22 0.22 5 0.5 5h2.54c0.28 0 0.5 0.22 0.5 0.5S3.32 6 3.04 6H0.5C0.22 6 0 5.78 0 5.5zM0 9.5C0 9.22 0.22 9 0.5 9h3C3.78 9 4 9.22 4 9.5S3.78 10 3.5 10h-3C0.22 10 0 9.78 0 9.5zM5 13.5C5 13.78 4.78 14 4.5 14h-4C0.22 14 0 13.78 0 13.5S0.22 13 0.5 13h4C4.78 13 5 13.22 5 13.5z" />
</svg>