<svg id="cart_arrow_down_Layer_1" viewBox="0 0 24 24" fill="currentColor" width="32" height="32" data-name="Layer 1" xmlns="http://www.w3.org/2000/svg" xmlns:xlink="http://www.w3.org/1999/xlink">
    <title>cart-arrow-down</title>
    <path d="M23.95 6.99l-0.88 4.39C22.65 13.48 20.8 15 18.66 15H6.02c0.25 1.71 1.73 3 3.46 3H19.5c0.28 0 0.5 0.22 0.5 0.5S19.78 19 19.5 19H9.48c-2.23 0-4.15-1.67-4.46-3.88L3.24 2.29C3.14 1.55 2.5 1 1.75 1H0.5C0.22 1 0 0.78 0 0.5S0.22 0 0.5 0h1.26C3 0 4.07 0.93 4.24 2.16L4.5 4h6.01c0.28 0 0.5 0.22 0.5 0.5S10.79 5 10.51 5H4.63l1.25 9h12.78c1.66 0 3.11-1.18 3.43-2.81l0.88-4.39c0.09-0.44-0.03-0.9-0.31-1.25C22.37 5.2 21.95 5 21.5 5h-5C16.22 5 16 4.78 16 4.5S16.22 4 16.5 4h5c0.75 0 1.46 0.33 1.93 0.92 0.48 0.58 0.67 1.34 0.52 2.07zM9 22c0 1.1-0.9 2-2 2s-2-0.9-2-2 0.9-2 2-2 2 0.9 2 2zM8 22c0-0.55-0.45-1-1-1s-1 0.45-1 1 0.45 1 1 1 1-0.45 1-1zM19 22c0 1.1-0.9 2-2 2s-2-0.9-2-2 0.9-2 2-2 2 0.9 2 2zM18 22c0-0.55-0.45-1-1-1s-1 0.45-1 1 0.45 1 1 1 1-0.45 1-1zM10.34 7.63c-0.2-0.19-0.52-0.17-0.71 0.03S9.46 8.18 9.66 8.37l2.07 1.9C12.22 10.76 12.86 11 13.5 11s1.27-0.24 1.75-0.72l2.09-1.91c0.2-0.19 0.22-0.5 0.03-0.71-0.19-0.2-0.5-0.22-0.71-0.03l-2.1 1.93C14.4 9.72 14.2 9.84 14 9.91V0.5C14 0.22 13.78 0 13.5 0S13 0.22 13 0.5v9.41c-0.21-0.07-0.41-0.2-0.58-0.36z" />
</svg>