<svg id="cart_minus_Layer_1" viewBox="0 0 24 24" fill="currentColor" width="32" height="32" data-name="Layer 1" xmlns="http://www.w3.org/2000/svg" xmlns:xlink="http://www.w3.org/1999/xlink">
    <title>cart-minus</title>
    <path d="M16 4.5C16 4.22 16.22 4 16.5 4h6C22.78 4 23 4.22 23 4.5S22.78 5 22.5 5h-6C16.22 5 16 4.78 16 4.5zM23.56 6.4c-0.26-0.05-0.53 0.12-0.59 0.39l-0.88 4.39c-0.33 1.63-1.77 2.81-3.43 2.81H5.88l-1.25-9h8.87c0.28 0 0.5-0.22 0.5-0.5s-0.22-0.5-0.5-0.5H4.49L4.23 2.15C4.06 0.93 3 0 1.76 0H0.5C0.22 0 0 0.22 0 0.5S0.22 1 0.5 1h1.26c0.75 0 1.38 0.56 1.49 1.29l1.78 12.83C5.34 17.33 7.25 19 9.49 19h10.02c0.28 0 0.5-0.22 0.5-0.5s-0.22-0.5-0.5-0.5H9.48c-1.73 0-3.22-1.29-3.46-3h12.64c2.14 0 3.99-1.52 4.41-3.62l0.88-4.39C24 6.72 23.83 6.46 23.56 6.4zM9 22c0 1.1-0.9 2-2 2s-2-0.9-2-2 0.9-2 2-2 2 0.9 2 2zM8 22c0-0.55-0.45-1-1-1s-1 0.45-1 1 0.45 1 1 1 1-0.45 1-1zM19 22c0 1.1-0.9 2-2 2s-2-0.9-2-2 0.9-2 2-2 2 0.9 2 2zM18 22c0-0.55-0.45-1-1-1s-1 0.45-1 1 0.45 1 1 1 1-0.45 1-1z" />
</svg>