<svg id="cash_register_Layer_1" viewBox="0 0 24 24" fill="currentColor" width="32" height="32" data-name="Layer 1" xmlns="http://www.w3.org/2000/svg" xmlns:xlink="http://www.w3.org/1999/xlink">
    <title>cash-register</title>
    <path d="M19.5 10H7V6h3c1.654 0 3-1.346 3-3s-1.346-3-3-3H3C1.346 0 0 1.346 0 3s1.346 3 3 3h3v4H4.5C2.019 10 0 12.019 0 14.5v5C0 21.981 2.019 24 4.5 24h15c2.481 0 4.5-2.019 4.5-4.5v-5c0-2.481-2.019-4.5-4.5-4.5zM1 3c0-1.103 0.897-2 2-2h7c1.103 0 2 0.897 2 2s-0.897 2-2 2H3C1.897 5 1 4.103 1 3zM4.5 11h15c1.93 0 3.5 1.57 3.5 3.5V19H1v-4.5C1 12.57 2.57 11 4.5 11zM19.5 23h-15c-1.758 0-3.204-1.308-3.449-3h21.898c-0.245 1.692-1.691 3-3.449 3zM9 15c0-0.552 0.448-1 1-1s1 0.448 1 1-0.448 1-1 1-1-0.448-1-1zM5 15c0-0.552 0.448-1 1-1s1 0.448 1 1-0.448 1-1 1-1-0.448-1-1zM13 15c0-0.552 0.448-1 1-1s1 0.448 1 1-0.448 1-1 1-1-0.448-1-1zM17 15c0-0.552 0.448-1 1-1s1 0.448 1 1-0.448 1-1 1-1-0.448-1-1z" />
</svg>