<svg id="castle_Layer_1" viewBox="0 0 24 24" fill="currentColor" width="32" height="32" data-name="Layer 1" xmlns="http://www.w3.org/2000/svg" xmlns:xlink="http://www.w3.org/1999/xlink">
    <title>castle</title>
    <path d="M23.5 8C23.224 8 23 8.224 23 8.5V10h-4V0.5C19 0.224 18.776 0 18.5 0S18 0.224 18 0.5V2h-3V0.5C15 0.224 14.776 0 14.5 0S14 0.224 14 0.5V2h-4V0.5C10 0.224 9.776 0 9.5 0S9 0.224 9 0.5V2H6V0.5C6 0.224 5.776 0 5.5 0S5 0.224 5 0.5V10H1V8.5C1 8.224 0.776 8 0.5 8S0 8.224 0 8.5V20c0 2.206 1.794 4 4 4h4.5C8.776 24 9 23.776 9 23.5V18c0-1.654 1.346-3 3-3s3 1.346 3 3v5.5c0 0.276 0.224 0.5 0.5 0.5H20c2.206 0 4-1.794 4-4V8.5C24 8.224 23.776 8 23.5 8zM6 3h12v7h-4V7c0-1.103-0.897-2-2-2s-2 0.897-2 2v3H6zM13 10h-2V7c0-0.552 0.449-1 1-1s1 0.448 1 1zM20 23h-4v-5c0-2.206-1.794-4-4-4s-4 1.794-4 4v5H4c-1.654 0-3-1.346-3-3v-9h22v9c0 1.654-1.346 3-3 3z" />
</svg>