<svg id="cat_dog_Layer_1" viewBox="0 0 24 24" fill="currentColor" width="32" height="32" data-name="Layer 1" xmlns="http://www.w3.org/2000/svg" xmlns:xlink="http://www.w3.org/1999/xlink">
    <title>cat-dog</title>
    <path d="M9 9.792C9 10.229 8.466 11 7.5 11S6 10.229 6 9.792 6.534 9 7.5 9 9 9.354 9 9.792zM16.5 20c0.966 0 1.5-0.771 1.5-1.208S17.466 18 16.5 18 15 18.354 15 18.792 15.534 20 16.5 20zM7.851 15H7.15c-3.456 0-7.149-1.289-7.149-4.907 0-0.72 0.467-1.617 1.183-2.358C0.416 7.375 1e-3 6.657 1e-3 5.634 0 4.043 2.454 0 4 0 4.938 0 5.411 0.462 5.827 0.871 5.93 0.973 6.049 1.074 6.168 1.175 6.573 1.066 7.014 1 7.5 1 7.984 1 8.422 1.065 8.826 1.173 8.927 1.082 9.03 0.989 9.12 0.901 9.546 0.479 10.028 0 11 0c1.546 0 4 4.043 4 5.633 0 1-0.399 1.706-1.134 2.074C14.685 8.538 15 9.468 15 10.093 15 13.711 11.307 15 7.851 15zM9.845 1.59c2.215 1.236 2.903 4.084 3.08 5.121 0.014 0.085 0.057 0.153 0.1 0.218 0.656-0.14 0.974-0.538 0.974-1.296 0-1.324-2.291-4.633-3-4.633-0.549 0-0.784 0.223-1.154 0.59zM1 5.633C1 6.4 1.325 6.799 1.997 6.934c0.028-0.05 0.061-0.097 0.071-0.158 0.174-1.049 0.853-3.928 3.074-5.179-5e-3-4e-3-0.01-9e-3-0.015-0.013C4.755 1.219 4.53 0.999 4 0.999c-0.709 0-3 3.309-3 4.634zM14 10.092c0-0.553-0.42-1.451-1.343-2.117-8e-3-6e-3-0.013-0.012-0.021-0.018-0.135-0.045-0.244-0.145-0.3-0.277-0.207-0.234-0.346-0.503-0.397-0.8C11.688 5.413 10.752 2 7.499 2 4.226 2 3.3 5.455 3.053 6.94 2.997 7.281 2.821 7.587 2.552 7.842 2.544 7.85 2.535 7.858 2.526 7.865c-0.044 0.04-0.084 0.083-0.133 0.12-0.961 0.732-1.394 1.673-1.394 2.107 0 3.625 4.707 3.907 6.149 3.907h0.701c1.442 0 6.149-0.282 6.151-3.907zM23.176 9.142c-0.073-0.467-0.375-0.858-0.809-1.046-0.438-0.189-0.932-0.141-1.324 0.128-0.033 0.022-0.063 0.049-0.089 0.078l-1.666 1.852c-0.525-0.224-1.076-0.384-1.643-0.476-0.28-0.044-0.53 0.141-0.574 0.414s0.141 0.529 0.414 0.574c0.595 0.096 1.17 0.279 1.707 0.544 0.199 0.099 0.443 0.053 0.593-0.114l1.864-2.072c0.139-0.073 0.269-0.033 0.321-0.011 0.056 0.024 0.189 0.101 0.218 0.282C22.442 10.939 23 15.252 23 17.357 23 20.468 20.469 23 17.357 23H15.5c-3.033 0-5.5-2.468-5.5-5.5 0-0.276-0.224-0.5-0.5-0.5S9 17.224 9 17.5c0 3.584 2.916 6.5 6.5 6.5h1.857C21.02 24 24 21.021 24 17.357c0-2.162-0.566-6.546-0.824-8.215zM6.5 7c0-0.552-0.448-1-1-1s-1 0.448-1 1 0.448 1 1 1 1-0.448 1-1zM9.5 6c-0.552 0-1 0.448-1 1s0.448 1 1 1 1-0.448 1-1-0.448-1-1-1zM14 15c-0.552 0-1 0.448-1 1s0.448 1 1 1 1-0.448 1-1-0.448-1-1-1zM20 16c0-0.552-0.448-1-1-1s-1 0.448-1 1 0.448 1 1 1 1-0.448 1-1z" />
</svg>