<svg id="cat_space_Layer_1" viewBox="0 0 24 24" fill="currentColor" width="32" height="32" data-name="Layer 1" xmlns="http://www.w3.org/2000/svg" xmlns:xlink="http://www.w3.org/1999/xlink">
    <title>cat-space</title>
    <path d="M16.903 10.999c0.032 0 0.065 0 0.098 0 1.05 0 2.038-0.402 2.792-1.139C20.571 9.1 21 8.084 21 6.999V3.87c0-0.363-0.219-0.682-0.558-0.812-0.337-0.129-0.714-0.041-0.968 0.24l-0.879 1.035c-1.004-0.434-2.188-0.434-3.191 0l-0.89-1.048c-0.242-0.269-0.62-0.358-0.957-0.228-0.339 0.131-0.558 0.449-0.558 0.812v3.063c0 2.189 1.751 4.013 3.904 4.067zM14 4.225 14.896 5.28c0.155 0.184 0.422 0.23 0.629 0.11 0.896-0.512 2.055-0.512 2.951 0 0.206 0.12 0.473 0.073 0.629-0.11l0.896-1.055V7c0 0.813-0.321 1.575-0.905 2.146S17.742 10.032 16.928 10c-1.613-0.039-2.927-1.413-2.927-3.064zM23.5 23H22V11.893C23.236 10.63 24 8.902 24 7c0-3.859-3.141-7-7-7s-7 3.141-7 7c0 1.391 0.408 2.688 1.11 3.778-6.432 3.971-6.109 11.534-6.105 11.585v0.453C3.012 22.36 1 21.06 1 18.999c0-1.708 0.79-2.981 1.554-4.213C3.265 13.64 4 12.453 4 10.999c0-2.43-1.374-4-3.5-4-0.276 0-0.5 0.224-0.5 0.5s0.224 0.5 0.5 0.5c2.257 0 2.5 2.098 2.5 3 0 1.17-0.601 2.139-1.296 3.26C0.905 15.547 0 17.007 0 18.999c0 3.411 3.913 5 6.558 5H23.5c0.276 0 0.5-0.224 0.5-0.5s-0.224-0.5-0.5-0.499zM17 1c3.309 0 6 2.691 6 6 0 3.601-3 6-6 6s-6-2.487-6-6c0-3.309 2.691-6 6-6zM6.005 22.975v-0.638c-5e-3-0.072-0.29-7.113 5.708-10.755C12.997 13.062 14.892 14 17 14c1.486 0 2.865-0.466 4-1.259V23h-3v-1.5c0-2.775-2.725-5.5-5.5-5.5-0.276 0-0.5 0.224-0.5 0.5s0.224 0.5 0.5 0.5c2.229 0 4.5 2.271 4.5 4.5V23H6.558c-0.18 0-0.365-8e-3-0.553-0.025zM2 2.908c4e-3-0.229 0.164-0.427 0.388-0.479L4.09 2.035 4.515 0.333c0.111-0.445 0.859-0.445 0.971 0l0.427 1.709 1.709 0.427c0.223 0.056 0.379 0.256 0.379 0.485s-0.156 0.43-0.379 0.485L5.913 3.866 5.486 5.575C5.43 5.798 5.23 5.954 5.001 5.954s-0.43-0.156-0.485-0.379L4.087 3.86 2.371 3.398C2.149 3.338 1.997 3.136 2 2.908z" />
</svg>