<svg id="cat_Layer_1" viewBox="0 0 24 24" fill="currentColor" width="32" height="32" data-name="Layer 1" xmlns="http://www.w3.org/2000/svg" xmlns:xlink="http://www.w3.org/1999/xlink">
    <title>cat</title>
    <path d="M22.199 10.542C23.344 9.501 24 8.018 24 6.472V1.285c0-0.516-0.294-0.965-0.767-1.172s-1.002-0.118-1.382 0.234l-1.163 1.078c-1.373-0.595-3.003-0.595-4.376 0l-1.163-1.078c-0.38-0.352-0.91-0.441-1.382-0.234C13.294 0.32 13 0.769 13 1.285v4.972c0 1.169 0.349 2.27 0.944 3.188C4.601 12.695 5 22.293 5.005 22.364v0.453C3.012 22.361 1 21.061 1 19c0-1.708 0.79-2.981 1.554-4.213C3.265 13.641 4 12.454 4 11 4 8.57 2.626 7 0.5 7 0.224 7 0 7.224 0 7.5S0.224 8 0.5 8C2.756 8 3 10.098 3 11c0 1.169-0.601 2.139-1.296 3.26C0.906 15.548 0 17.008 0 19c0 3.411 3.913 5 6.558 5H23.5c0.276 0 0.5-0.224 0.5-0.5S23.776 23 23.5 23H22V10.714c0.067-0.056 0.134-0.113 0.199-0.172zM14 1.285c0-0.165 0.117-0.234 0.167-0.256 0.024-0.011 0.066-0.025 0.117-0.025 0.056 0 0.121 0.017 0.185 0.076l1.411 1.308c0.154 0.144 0.381 0.173 0.568 0.078 1.276-0.656 2.827-0.656 4.104 0 0.187 0.095 0.414 0.065 0.568-0.078l1.411-1.308c0.12-0.113 0.251-0.074 0.302-0.051C22.883 1.051 23 1.12 23 1.285v5.187c0 1.265-0.537 2.479-1.474 3.331-0.949 0.864-2.182 1.271-3.47 1.148C15.782 10.734 14 8.672 14 6.257zM21 23h-3v-1.5c0-2.775-2.724-5.5-5.5-5.5-0.276 0-0.5 0.224-0.5 0.5s0.224 0.5 0.5 0.5c2.229 0 4.5 2.271 4.5 4.5V23H6.558c-0.18 0-0.365-8e-3-0.553-0.025v-0.638C6 22.245 5.623 13.174 14.602 10.279c0.878 0.924 2.052 1.542 3.36 1.667 0.183 0.018 0.365 0.026 0.546 0.026 0.88 0 1.727-0.205 2.493-0.598zM19.5 5.971c0-0.552 0.448-1 1-1s1 0.448 1 1-0.448 1-1 1-1-0.448-1-1zM15.5 5.971c0-0.552 0.448-1 1-1s1 0.448 1 1-0.448 1-1 1-1-0.448-1-1z" />
</svg>