<svg id="catalog_Layer_1" viewBox="0 0 24 24" fill="currentColor" width="32" height="32" data-name="Layer 1" xmlns="http://www.w3.org/2000/svg" xmlns:xlink="http://www.w3.org/1999/xlink">
    <title>catalog</title>
    <path d="M19.5 6H19V2.5C19 1.121 17.879 0 16.5 0h-12C2.019 0 0 2.019 0 4.5v9C0 15.981 2.019 18 4.5 18H5v1.5C5 21.981 7.019 24 9.5 24h10c2.481 0 4.5-2.019 4.5-4.5v-9C24 8.019 21.981 6 19.5 6zM18 6H7.776l9.814-4.529C17.844 1.74 18 2.102 18 2.5zM4.5 17C2.57 17 1 15.43 1 13.5v-9C1 2.57 2.57 1 4.5 1h11.723l-9.19 4.241C5.798 5.811 5 7.058 5 8.42V17zM23 19.5c0 1.93-1.57 3.5-3.5 3.5h-10C7.57 23 6 21.43 6 19.5V8.42c0-0.518 0.161-1.012 0.445-1.423C6.464 6.999 6.481 7 6.5 7h13c1.93 0 3.5 1.57 3.5 3.5zM20 12c0 0.276-0.224 0.5-0.5 0.5h-4c-0.276 0-0.5-0.224-0.5-0.5s0.224-0.5 0.5-0.5h4c0.276 0 0.5 0.224 0.5 0.5zM11.5 10h-1C9.673 10 9 10.673 9 11.5v1c0 0.827 0.673 1.5 1.5 1.5h1c0.827 0 1.5-0.673 1.5-1.5v-1c0-0.827-0.673-1.5-1.5-1.5zM12 12.5c0 0.275-0.225 0.5-0.5 0.5h-1c-0.275 0-0.5-0.225-0.5-0.5v-1c0-0.275 0.225-0.5 0.5-0.5h1c0.275 0 0.5 0.225 0.5 0.5zM20 18c0 0.276-0.224 0.5-0.5 0.5h-4c-0.276 0-0.5-0.224-0.5-0.5s0.224-0.5 0.5-0.5h4c0.276 0 0.5 0.224 0.5 0.5zM11.5 16h-1C9.673 16 9 16.673 9 17.5v1c0 0.827 0.673 1.5 1.5 1.5h1c0.827 0 1.5-0.673 1.5-1.5v-1c0-0.827-0.673-1.5-1.5-1.5zM12 18.5c0 0.275-0.225 0.5-0.5 0.5h-1c-0.275 0-0.5-0.225-0.5-0.5v-1c0-0.275 0.225-0.5 0.5-0.5h1c0.275 0 0.5 0.225 0.5 0.5z" />
</svg>