<svg id="catalog_magazine_Layer_1" viewBox="0 0 24 24" fill="currentColor" width="32" height="32" data-name="Layer 1" xmlns="http://www.w3.org/2000/svg" xmlns:xlink="http://www.w3.org/1999/xlink">
    <title>catalog-magazine</title>
    <path d="M8.5 8.842c0.018 2e-3-0.018 0 0 0zM8.553 10.845c-1.667-0.179-3.322-0.492-4.92-0.933-0.266-0.072-0.542 0.084-0.615 0.35-0.073 0.267 0.083 0.542 0.349 0.615 1.65 0.454 3.413 0.78 5.133 0.965 0.252 0 0.469-0.19 0.497-0.446 0.029-0.275-0.169-0.521-0.444-0.551zM8.553 7.845c-1.667-0.179-3.322-0.492-4.92-0.933-0.266-0.069-0.542 0.083-0.615 0.35s0.083 0.542 0.349 0.615C5.017 8.331 6.78 8.657 8.5 8.842c0.252 0 0.469-0.19 0.497-0.446 0.029-0.275-0.169-0.521-0.444-0.551zM3.018 4.262C2.945 4.529 3.101 4.804 3.367 4.877 5.017 5.331 6.78 5.657 8.5 5.842c0.252 0 0.469-0.19 0.497-0.446 0.029-0.275-0.169-0.521-0.444-0.551-1.667-0.179-3.322-0.492-4.92-0.933-0.266-0.07-0.542 0.083-0.615 0.35zM8.5 5.842c-0.018 0 0.018 2e-3 0 0zM8.5 11.842c-0.018 0 0.018 2e-3 0 0zM8.553 13.845c-1.667-0.179-3.322-0.492-4.92-0.933-0.266-0.072-0.542 0.083-0.615 0.35s0.083 0.542 0.349 0.615c1.65 0.454 3.413 0.78 5.133 0.965 0.252 0 0.469-0.19 0.497-0.446 0.029-0.275-0.169-0.521-0.444-0.551zM6.5 17.556c-0.028 0 0.028 5e-3 0 0zM6.583 16.563c-1.015-0.173-2.008-0.392-2.952-0.65-0.265-0.069-0.541 0.084-0.614 0.351s0.084 0.541 0.351 0.614c0.975 0.267 2.085 0.5 3.132 0.679 0.239 0 0.451-0.172 0.492-0.416 0.047-0.272-0.136-0.53-0.409-0.578zM8.5 14.842c-0.018 0 0.018 2e-3 0 0zM20.367 6.882c-1.599 0.44-3.254 0.754-4.921 0.933-0.274 0.029-0.473 0.275-0.443 0.551 0.027 0.256 0.244 0.446 0.496 0.446 1.72-0.185 3.483-0.511 5.134-0.965 0.266-0.073 0.423-0.349 0.35-0.615-0.074-0.266-0.344-0.42-0.616-0.35zM15.499 5.812c-0.019 2e-3 0.019 0 0 0zM15.499 8.812c-0.019 2e-3 0.019 0 0 0zM20.367 3.882c-1.599 0.44-3.254 0.754-4.921 0.933-0.274 0.029-0.473 0.275-0.443 0.551 0.027 0.256 0.244 0.446 0.496 0.446 1.72-0.185 3.483-0.511 5.134-0.965 0.266-0.073 0.423-0.349 0.35-0.615-0.074-0.266-0.344-0.42-0.616-0.35zM20.609 20.264c-2.061 0.557-4.222 0.909-6.446 1.051 1.562 0.566 3.862 1.297 6.173 1.657 0.659 0.105 1.333-0.088 1.845-0.526 0.52-0.445 0.818-1.093 0.818-1.777v-0.168c0-0.276 0.224-0.5 0.5-0.5s0.5 0.224 0.5 0.5v0.168c0 0.977-0.426 1.901-1.169 2.537C22.226 23.723 21.467 24 20.688 24c-0.169 0-0.338-0.013-0.507-0.039-3.719-0.58-7.297-2.038-8.183-2.415-0.885 0.377-4.463 1.835-8.183 2.415C3.646 23.987 3.477 24 3.308 24c-0.779 0-1.539-0.277-2.142-0.794-0.743-0.636-1.168-1.561-1.168-2.537v-0.168c0-0.276 0.224-0.5 0.5-0.5s0.5 0.224 0.5 0.5v0.168c0 0.685 0.298 1.332 0.819 1.777 0.512 0.438 1.187 0.631 1.844 0.526 2.315-0.361 4.614-1.091 6.175-1.657-2.226-0.142-4.386-0.494-6.448-1.051-1.996-0.538-3.39-2.334-3.39-4.365V4C0 2.759 0.562 1.61 1.541 0.85 2.53 0.082 3.796-0.179 5.014 0.132c2.805 0.716 4.96 1.038 6.988 1.044 2.025-6e-3 4.18-0.328 6.985-1.044 1.218-0.312 2.482-0.051 3.473 0.718 0.979 0.761 1.541 1.909 1.541 3.15v11.898c0 2.031-1.395 3.826-3.392 4.366zM11.5 2.168c-2.526-0.07-4.909-0.601-6.734-1.067-0.253-0.064-0.51-0.097-0.764-0.097-0.664 0-1.311 0.219-1.848 0.636C1.421 2.209 1 3.07 1 4v11.898c0 1.581 1.09 2.979 2.651 3.4 2.488 0.672 5.126 1.036 7.849 1.083zM20.349 19.299c1.562-0.422 2.651-1.82 2.651-3.4V4c0-0.931-0.421-1.791-1.154-2.36-0.744-0.576-1.695-0.771-2.611-0.539-1.825 0.466-4.209 0.997-6.734 1.068v18.213c2.722-0.047 5.361-0.411 7.848-1.083zM20.368 9.882c-1.599 0.44-3.254 0.754-4.921 0.933-0.274 0.029-0.473 0.275-0.443 0.551 0.027 0.256 0.244 0.446 0.496 0.446 1.72-0.185 3.483-0.511 5.134-0.965 0.266-0.073 0.423-0.349 0.35-0.615-0.074-0.266-0.344-0.42-0.616-0.35zM15.5 11.812c-0.019 2e-3 0.019 0 0 0zM15.5 14.812c-0.019 2e-3 0.019 0 0 0zM15.5 17.812c-0.019 2e-3 0.019 0 0 0zM18.399 16.347c-0.989 0.205-1.982 0.362-2.952 0.468-0.274 0.03-0.474 0.276-0.443 0.551 0.027 0.257 0.244 0.446 0.496 0.446 1.002-0.108 2.082-0.274 3.103-0.486 0.271-0.056 0.444-0.32 0.388-0.591s-0.324-0.448-0.592-0.388zM20.368 12.882c-1.599 0.44-3.254 0.754-4.921 0.933-0.274 0.029-0.473 0.275-0.443 0.551 0.027 0.256 0.244 0.446 0.496 0.446 1.72-0.185 3.483-0.511 5.134-0.965 0.266-0.073 0.423-0.349 0.35-0.615-0.074-0.266-0.344-0.42-0.616-0.35z" />
</svg>