<svg id="catalog_alt_Layer_1" viewBox="0 0 24 24" fill="currentColor" width="32" height="32" data-name="Layer 1" xmlns="http://www.w3.org/2000/svg" xmlns:xlink="http://www.w3.org/1999/xlink">
    <title>catalog-alt</title>
    <path d="M22.466 0.91c-0.996-0.795-2.279-1.089-3.515-0.806l-8.24 1.802L7.83 0.483c-1.869-0.923-3.52-0.306-4.145 0L2.057 1.287C0.807 1.904 0.03 3.153 0.03 4.547L0 21.8c0 0.942 0.331 1.648 0.932 1.988C1.182 23.93 1.463 24 1.767 24c0.455 0 0.959-0.158 1.482-0.472l2.322-1.458 3.152 1.527c1.122 0.405 2.336 0.507 3.506 0.294l7.957-1.317c2.227-0.405 3.844-2.342 3.844-4.606V4.16c0-1.272-0.57-2.457-1.564-3.25zM2.727 22.676c-0.536 0.319-1.009 0.406-1.303 0.242C1.151 22.763 1 22.366 1 21.801L1.03 4.548c0-1.011 0.563-1.917 1.47-2.364L4.127 1.38C4.353 1.269 4.665 1.144 5.04 1.067v20.156zM6.04 21.187V1.003C6.457 1.035 6.912 1.146 7.387 1.38l2.633 1.3-0.057 20.225c-0.292-0.054-0.578-0.13-0.852-0.228zM23.03 17.968c0 1.78-1.271 3.304-3.016 3.621l-7.957 1.317c-0.363 0.067-0.73 0.097-1.095 0.094l0.056-20.139 8.15-1.782c0.943-0.215 1.917 9e-3 2.673 0.611 0.755 0.603 1.188 1.503 1.188 2.469zM20.991 4.562c0.052 0.271-0.126 0.534-0.396 0.586 0 0-7.064 1.353-7.096 1.353-0.234 0-0.444-0.166-0.49-0.405-0.052-0.271 0.126-0.534 0.396-0.586l7-1.344c0.272-0.052 0.533 0.125 0.586 0.396zM20.991 12.612c0.052 0.271-0.126 0.533-0.397 0.585 0 0-7.063 1.352-7.095 1.352-0.234 0-0.444-0.166-0.49-0.406-0.052-0.271 0.126-0.533 0.397-0.585l7-1.343c0.263-0.049 0.532 0.125 0.585 0.397zM20.991 8.612c0.052 0.271-0.126 0.533-0.397 0.585 0 0-7.063 1.352-7.095 1.352-0.234 0-0.444-0.166-0.49-0.406-0.052-0.271 0.126-0.533 0.397-0.585l7-1.343c0.263-0.05 0.532 0.125 0.585 0.397zM18.991 16.994c0.052 0.271-0.126 0.534-0.396 0.586 0 0-5.064 0.969-5.096 0.969-0.234 0-0.444-0.166-0.49-0.405-0.052-0.271 0.126-0.533 0.396-0.586l5-0.96c0.271-0.049 0.533 0.125 0.586 0.396z" />
</svg>