<svg id="category_alt_Layer_1" viewBox="0 0 24 24" fill="currentColor" width="32" height="32" data-name="Layer 1" xmlns="http://www.w3.org/2000/svg" xmlns:xlink="http://www.w3.org/1999/xlink">
    <title>category-alt</title>
    <path d="M19.5 0h-15C2.019 0 0 2.019 0 4.5v15C0 21.981 2.019 24 4.5 24h15c2.481 0 4.5-2.019 4.5-4.5v-15C24 2.019 21.981 0 19.5 0zM23 19.5c0 1.93-1.57 3.5-3.5 3.5h-15C2.57 23 1 21.43 1 19.5v-15C1 2.57 2.57 1 4.5 1h15C21.43 1 23 2.57 23 4.5zM9.5 3h-5C3.673 3 3 3.673 3 4.5v5C3 10.327 3.673 11 4.5 11h5c0.827 0 1.5-0.673 1.5-1.5v-5C11 3.673 10.327 3 9.5 3zM10 9.5C10 9.776 9.775 10 9.5 10h-5C4.225 10 4 9.776 4 9.5v-5C4 4.224 4.225 4 4.5 4h5C9.775 4 10 4.224 10 4.5zM19.5 3h-5C13.673 3 13 3.673 13 4.5v5c0 0.827 0.673 1.5 1.5 1.5h5c0.827 0 1.5-0.673 1.5-1.5v-5C21 3.673 20.327 3 19.5 3zM20 9.5c0 0.276-0.225 0.5-0.5 0.5h-5C14.225 10 14 9.776 14 9.5v-5C14 4.224 14.225 4 14.5 4h5C19.775 4 20 4.224 20 4.5zM9.5 13h-5C3.673 13 3 13.673 3 14.5v5C3 20.327 3.673 21 4.5 21h5c0.827 0 1.5-0.673 1.5-1.5v-5c0-0.827-0.673-1.5-1.5-1.5zM10 19.5c0 0.276-0.225 0.5-0.5 0.5h-5C4.225 20 4 19.776 4 19.5v-5C4 14.224 4.225 14 4.5 14h5c0.275 0 0.5 0.224 0.5 0.5zM19.5 13h-5c-0.827 0-1.5 0.673-1.5 1.5v5c0 0.827 0.673 1.5 1.5 1.5h5c0.827 0 1.5-0.673 1.5-1.5v-5c0-0.827-0.673-1.5-1.5-1.5zM20 19.5c0 0.276-0.225 0.5-0.5 0.5h-5c-0.275 0-0.5-0.224-0.5-0.5v-5c0-0.276 0.225-0.5 0.5-0.5h5c0.275 0 0.5 0.224 0.5 0.5z" />
</svg>