<svg id="cedi_sign_Layer_1" viewBox="0 0 24 24" fill="currentColor" width="32" height="32" data-name="Layer 1" xmlns="http://www.w3.org/2000/svg" xmlns:xlink="http://www.w3.org/1999/xlink">
    <title>cedi-sign</title>
    <path d="M20.75 16.85c-0.24-0.13-0.55-0.03-0.67 0.21-1.26 2.43-3.73 3.94-6.46 3.94h-0.61V3h0.61c2.78 0 5.28 1.55 6.52 4.04 0.12 0.25 0.42 0.35 0.67 0.23s0.35-0.42 0.23-0.67C19.63 3.77 16.79 2 13.63 2h-0.61V0.5c0-0.28-0.22-0.5-0.5-0.5s-0.5 0.22-0.5 0.5V2h-0.5C6.81 2 3 5.81 3 10.5v3c0 4.69 3.81 8.5 8.5 8.5H12v1.5c0 0.28 0.22 0.5 0.5 0.5s0.5-0.22 0.5-0.5V22h0.61c3.11 0 5.93-1.72 7.35-4.48 0.13-0.25 0.03-0.55-0.21-0.67zM11.5 21C7.36 21 4 17.64 4 13.5v-3C4 6.36 7.36 3 11.5 3H12v18z" />
</svg>