<svg id="cent_sign_Layer_1" viewBox="0 0 24 24" fill="currentColor" width="32" height="32" data-name="Layer 1" xmlns="http://www.w3.org/2000/svg" xmlns:xlink="http://www.w3.org/1999/xlink">
    <title>cent-sign</title>
    <path d="M20.97 17.52C19.54 20.28 16.72 22 13.62 22h-0.61v1.5c0 0.28-0.22 0.5-0.5 0.5s-0.5-0.22-0.5-0.5V22h-0.5c-4.69 0-8.5-3.81-8.5-8.5v-3C3 5.81 6.81 2 11.5 2H12V0.5C12 0.22 12.22 0 12.5 0S13 0.22 13 0.5V2h0.61c3.16 0 6 1.76 7.41 4.6 0.12 0.25 0.02 0.55-0.23 0.67s-0.55 0.02-0.67-0.23C18.88 4.55 16.38 3 13.6 3h-2.11c-4.14 0-7.5 3.36-7.5 7.5v3c0 4.14 3.36 7.5 7.5 7.5h2.11c2.73 0 5.21-1.51 6.46-3.94 0.13-0.25 0.43-0.34 0.67-0.21s0.34 0.43 0.21 0.67z" />
</svg>