<svg id="certificate_Layer_1" viewBox="0 0 24 24" fill="currentColor" width="32" height="32" data-name="Layer 1" xmlns="http://www.w3.org/2000/svg" xmlns:xlink="http://www.w3.org/1999/xlink">
    <title>certificate</title>
    <path d="M17.5 7C13.916 7 11 9.916 11 13.5c0 2.295 1.199 4.311 3 5.467v3.671c-0.018 0.739 0.632 1.371 1.363 1.362 0.316 0 0.628-0.113 0.881-0.33l1.256-1.076 1.256 1.076c0.407 0.349 0.964 0.428 1.452 0.203S21 23.175 21 22.638v-3.671c1.801-1.157 3-3.173 3-5.467 0-3.584-2.916-6.5-6.5-6.5zM20 22.638c0 0.208-0.146 0.298-0.209 0.327-0.062 0.027-0.227 0.082-0.385-0.055l-1.581-1.354c-0.187-0.16-0.463-0.16-0.65 0l-1.581 1.354c-0.16 0.137-0.32 0.082-0.385 0.055C15.147 22.936 15 22.846 15 22.638v-3.14C15.77 19.82 16.614 20 17.5 20s1.73-0.179 2.5-0.502zM17.5 18.999c-3.032 0-5.5-2.468-5.5-5.5s2.468-5.5 5.5-5.5 5.5 2.468 5.5 5.5-2.468 5.5-5.5 5.5zM20.538 15.169c0 1.009-0.8 1.83-1.782 1.83H18v0.5c0 0.276-0.224 0.5-0.5 0.5s-0.5-0.224-0.5-0.5v-0.5h-0.757c-0.817 0-1.528-0.567-1.728-1.381-0.066-0.268 0.098-0.539 0.366-0.604 0.27-0.065 0.539 0.099 0.604 0.366 0.09 0.364 0.401 0.619 0.758 0.619h2.513c0.432 0 0.782-0.372 0.782-0.83 0-0.371-0.235-0.7-0.571-0.8l-3.095-0.775c-0.778-0.23-1.308-0.954-1.308-1.765 0-1.009 0.8-1.83 1.782-1.83h0.653v-0.5c0-0.276 0.224-0.5 0.5-0.5s0.5 0.224 0.5 0.5v0.5h0.757c0.817 0 1.528 0.567 1.728 1.381 0.066 0.268-0.098 0.539-0.366 0.604-0.27 0.066-0.539-0.098-0.604-0.366-0.09-0.364-0.401-0.619-0.758-0.619h-2.41c-0.432 0-0.782 0.372-0.782 0.83 0 0.371 0.235 0.7 0.571 0.8l3.095 0.775c0.778 0.23 1.308 0.954 1.308 1.765zM10 9H6.5C6.224 9 6 8.776 6 8.5S6.224 8 6.5 8H10c0.276 0 0.5 0.224 0.5 0.5S10.276 9 10 9zM23.999 4.5v2c0 0.276-0.224 0.5-0.5 0.5s-0.5-0.224-0.5-0.5v-2c0-1.93-1.57-3.5-3.5-3.5H4.5C2.57 1 1 2.57 1 4.5v11C1 17.43 2.57 19 4.5 19h7c0.276 0 0.5 0.224 0.5 0.5S11.776 20 11.5 20h-7C2.019 19.999 0 17.981 0 15.499V4.5C0 2.018 2.019 0 4.5 0h14.999c2.481 0 4.5 2.018 4.5 4.5zM18.124 3H5.876C5.691 3 5.524 3.094 5.451 3.239 4.973 4.188 4.188 4.973 3.238 5.451 3.093 5.524 3 5.691 3 5.876v8.248c0 0.185 0.094 0.352 0.239 0.425 0.949 0.478 1.734 1.263 2.212 2.213C5.524 16.907 5.691 17 5.876 17H9.5c0.276 0 0.5 0.224 0.5 0.5S9.776 18 9.5 18H5.876c-0.559 0-1.076-0.31-1.317-0.788-0.382-0.76-1.011-1.389-1.769-1.77-0.479-0.241-0.789-0.759-0.789-1.317V5.876c0-0.559 0.31-1.076 0.788-1.317 0.76-0.382 1.389-1.011 1.77-1.769C4.8 2.311 5.318 2.001 5.876 2.001h12.247c0.56 0 1.076 0.311 1.317 0.79 0.384 0.763 1.014 1.393 1.772 1.777 0.305 0.155 0.545 0.42 0.676 0.746 0.103 0.257-0.021 0.548-0.277 0.65s-0.548-0.021-0.65-0.277c-0.041-0.102-0.111-0.183-0.2-0.227-0.947-0.479-1.733-1.268-2.213-2.221C18.475 3.093 18.308 3 18.124 3zM8.5 11C8.776 11 9 11.224 9 11.5S8.776 12 8.5 12h-2C6.224 12 6 11.776 6 11.5S6.224 11 6.5 11z" />
</svg>