<svg id="chair_director_Layer_1" viewBox="0 0 24 24" fill="currentColor" width="32" height="32" data-name="Layer 1" xmlns="http://www.w3.org/2000/svg" xmlns:xlink="http://www.w3.org/1999/xlink">
    <title>chair-director</title>
    <path d="M23.5 0C23.224 0 23 0.224 23 0.5V1H1V0.5C1 0.224 0.776 0 0.5 0S0 0.224 0 0.5v10.646c0 1.335 0.741 2.535 1.935 3.131l8.947 4.474-8.606 4.302c-0.247 0.124-0.347 0.424-0.224 0.671 0.125 0.249 0.429 0.346 0.671 0.224l9.276-4.638 9.276 4.638c0.242 0.122 0.546 0.026 0.671-0.224 0.123-0.247 0.023-0.547-0.224-0.671l-8.605-4.303 8.947-4.474c1.193-0.596 1.935-1.796 1.935-3.131V0.5c0-0.276-0.224-0.5-0.499-0.5zM12 18.191 4.096 14.239C5.973 14.623 8.663 15 12 15s6.027-0.377 7.904-0.761zM23 11.146c0 0.49-0.144 0.951-0.395 1.345-0.041 0.016-4.133 1.51-10.605 1.51S1.436 12.506 1.395 12.49C1.144 12.097 1 11.635 1 11.145V8.999h22zM23 8H1V2h22z" />
</svg>