<svg id="chair_Layer_1" viewBox="0 0 24 24" fill="currentColor" width="32" height="32" data-name="Layer 1" xmlns="http://www.w3.org/2000/svg" xmlns:xlink="http://www.w3.org/1999/xlink">
    <title>chair</title>
    <path d="M19 13.127V4.5C19 2.019 16.981 0 14.5 0h-5C7.019 0 5 2.019 5 4.5v8.627C3.277 13.572 2 15.14 2 17v6.5C2 23.776 2.224 24 2.5 24S3 23.776 3 23.5V18h18v5.5c0 0.276 0.224 0.5 0.5 0.5s0.5-0.224 0.5-0.5V17c0-1.861-1.277-3.428-3-3.873zM18 4.5V13h-3V1.036c1.694 0.243 3 1.704 3 3.464zM10 13V1h4v12zM6 4.5c0-1.76 1.306-3.221 3-3.464V13H6zM3 17c0-1.654 1.346-3 3-3h12c1.654 0 3 1.346 3 3z" />
</svg>