<svg id="chair_office_Layer_1" viewBox="0 0 24 24" fill="currentColor" width="32" height="32" data-name="Layer 1" xmlns="http://www.w3.org/2000/svg" xmlns:xlink="http://www.w3.org/1999/xlink">
    <title>chair-office</title>
    <path d="M19.5 8H19V4.5C19 2.019 16.981 0 14.5 0h-5C7.019 0 5 2.019 5 4.5V8H4.5C2.57 8 1 9.57 1 11.5v5C1 17.879 2.122 19 3.5 19h8v4h-5C6.224 23 6 23.224 6 23.5S6.224 24 6.5 24h11c0.276 0 0.5-0.224 0.5-0.5S17.776 23 17.5 23h-5v-4h8c1.378 0 2.5-1.121 2.5-2.5v-5C23 9.57 21.43 8 19.5 8zM19.5 9c1.378 0 2.5 1.121 2.5 2.5v3.001C21.582 14.186 21.062 14 20.5 14H19V9zM6 4.5C6 2.57 7.57 1 9.5 1h5C16.43 1 18 2.57 18 4.5V14H6zM4.5 9H5v5H3.5c-0.562 0-1.082 0.187-1.5 0.501V11.5C2 10.121 3.122 9 4.5 9zM20.5 18h-17C2.673 18 2 17.327 2 16.5S2.673 15 3.5 15h17c0.827 0 1.5 0.673 1.5 1.5S21.327 18 20.5 18z" />
</svg>