<svg id="challenge_alt_Layer_1" viewBox="0 0 24 24" fill="currentColor" width="32" height="32" data-name="Layer 1" xmlns="http://www.w3.org/2000/svg" xmlns:xlink="http://www.w3.org/1999/xlink">
    <title>challenge-alt</title>
    <path d="M3.5 7C4.878 7 6 5.879 6 4.5S4.878 2 3.5 2 1 3.121 1 4.5 2.122 7 3.5 7zM3.5 3C4.327 3 5 3.673 5 4.5S4.327 6 3.5 6 2 5.327 2 4.5 2.673 3 3.5 3zM8.5 17C8.776 17 9 17.225 9 17.5v2C9 19.776 9.224 20 9.5 20s0.5-0.224 0.5-0.5v-2c0-0.827-0.673-1.5-1.5-1.5H6V9h1.671c0.668 0 1.296-0.26 1.768-0.732l1.914-1.914c0.195-0.195 0.195-0.512 0-0.707s-0.512-0.195-0.707 0L8.732 7.561C8.448 7.844 8.072 8 7.671 8H3.5C2.122 8 1 9.121 1 10.5v9.676c0 0.161-0.026 0.32-0.077 0.474l-0.897 2.692c-0.087 0.262 0.054 0.545 0.316 0.633C0.395 23.993 0.448 24 0.5 24c0.209 0 0.404-0.133 0.474-0.342l0.898-2.692C1.957 20.71 2 20.445 2 20.176V17zM2 10.5C2 9.673 2.673 9 3.5 9H5v7H2zM18 8c1.103 0 2-0.897 2-2s-0.897-2-2-2-2 0.897-2 2 0.897 2 2 2zM18 5c0.551 0 1 0.448 1 1s-0.449 1-1 1-1-0.448-1-1 0.449-1 1-1zM12.668 7.903c-0.101 0.389-0.044 0.792 0.159 1.137 0.203 0.346 0.528 0.592 0.917 0.692 0.388 0.104 0.792 0.045 1.137-0.159l0.223-0.131c0.408 0.34 0.881 0.606 1.396 0.786v0.271c0 0.827 0.673 1.5 1.5 1.5s1.5-0.673 1.5-1.5v-0.271c0.515-0.18 0.988-0.446 1.396-0.786l0.223 0.131c0.346 0.204 0.751 0.263 1.137 0.159 0.388-0.101 0.713-0.347 0.916-0.691 0.204-0.346 0.26-0.749 0.16-1.138-0.101-0.388-0.346-0.713-0.692-0.917l-0.233-0.137c0.064-0.299 0.094-0.575 0.094-0.85s-0.03-0.551-0.094-0.851l0.233-0.137c0.346-0.203 0.591-0.528 0.692-0.917 0.101-0.388 0.044-0.791-0.159-1.136-0.203-0.346-0.528-0.592-0.917-0.692-0.386-0.102-0.792-0.044-1.137 0.159l-0.223 0.131C20.488 2.216 20.015 1.95 19.5 1.77V1.499c0-0.827-0.673-1.5-1.5-1.5s-1.5 0.673-1.5 1.5V1.77c-0.515 0.18-0.988 0.446-1.396 0.786l-0.223-0.131c-0.346-0.203-0.749-0.261-1.137-0.159-0.388 0.101-0.713 0.347-0.916 0.691-0.204 0.346-0.26 0.749-0.16 1.137 0.101 0.389 0.347 0.714 0.692 0.916l0.234 0.138C13.53 5.448 13.5 5.724 13.5 5.999s0.03 0.551 0.094 0.85L13.36 6.987c-0.345 0.203-0.591 0.528-0.692 0.916zM14.65 6.955C14.547 6.594 14.499 6.29 14.499 6s0.048-0.594 0.151-0.955c0.062-0.219-0.031-0.452-0.228-0.567L13.865 4.15c-0.115-0.067-0.197-0.176-0.23-0.305-0.034-0.129-0.015-0.264 0.053-0.379s0.176-0.197 0.305-0.23c0.13-0.032 0.264-0.015 0.379 0.053l0.541 0.318c0.195 0.116 0.447 0.084 0.607-0.077 0.43-0.432 0.984-0.743 1.603-0.903 0.221-0.058 0.375-0.257 0.375-0.484V1.501c0-0.275 0.224-0.5 0.5-0.5s0.5 0.225 0.5 0.5v0.642c0 0.228 0.154 0.427 0.375 0.484 0.619 0.16 1.173 0.472 1.603 0.903 0.161 0.161 0.412 0.193 0.607 0.077l0.541-0.318c0.115-0.068 0.249-0.086 0.379-0.053 0.129 0.033 0.237 0.115 0.306 0.231 0.067 0.114 0.086 0.249 0.053 0.378s-0.115 0.237-0.23 0.306l-0.556 0.327c-0.196 0.115-0.29 0.349-0.228 0.567C21.451 5.406 21.499 5.71 21.499 6s-0.048 0.594-0.151 0.955c-0.062 0.219 0.031 0.453 0.228 0.568l0.556 0.325c0.115 0.068 0.197 0.177 0.23 0.307 0.034 0.129 0.015 0.264-0.053 0.379s-0.176 0.197-0.305 0.23c-0.129 0.034-0.264 0.016-0.379-0.053l-0.541-0.318c-0.195-0.117-0.447-0.085-0.607 0.077-0.43 0.432-0.984 0.743-1.603 0.903-0.221 0.058-0.375 0.257-0.375 0.484v0.642c0 0.275-0.224 0.5-0.5 0.5s-0.5-0.225-0.5-0.5V9.857c0-0.228-0.154-0.427-0.375-0.484-0.619-0.16-1.173-0.472-1.603-0.903-0.096-0.097-0.225-0.146-0.354-0.146-0.087 0-0.175 0.022-0.253 0.069l-0.541 0.318c-0.115 0.067-0.25 0.086-0.379 0.053s-0.237-0.115-0.306-0.231c-0.067-0.114-0.086-0.249-0.053-0.378 0.034-0.13 0.115-0.238 0.23-0.306l0.556-0.326c0.197-0.115 0.291-0.35 0.229-0.568zM23.786 13.409l-15 10.5C8.699 23.971 8.599 24 8.5 24c-0.158 0-0.313-0.074-0.41-0.213-0.158-0.227-0.104-0.538 0.123-0.696l15-10.5c0.225-0.159 0.539-0.104 0.696 0.122 0.158 0.227 0.104 0.538-0.123 0.696z" />
</svg>