<svg id="challenge_Layer_1" viewBox="0 0 24 24" fill="currentColor" width="32" height="32" data-name="Layer 1" xmlns="http://www.w3.org/2000/svg" xmlns:xlink="http://www.w3.org/1999/xlink">
    <title>challenge</title>
    <path d="M18.261 9.077c-0.448-0.185-0.961-0.085-1.305 0.26l-1.517 1.517C15.16 11.133 15 11.52 15 11.915v2.379l-3.354 3.354c-0.195 0.195-0.195 0.512 0 0.707 0.098 0.098 0.226 0.146 0.354 0.146s0.256-0.049 0.354-0.146l3.354-3.354h2.379c0.4 0 0.777-0.156 1.061-0.439l1.517-1.517c0.344-0.344 0.446-0.855 0.26-1.305s-0.621-0.739-1.106-0.739h-0.816v-0.816c0-0.486-0.29-0.92-0.742-1.108zM19.817 12c0.115 0 0.164 0.076 0.183 0.122 0.019 0.045 0.038 0.134-0.043 0.215l-1.517 1.517C18.347 13.947 18.218 14 18.086 14H16v-2.086c0-0.132 0.053-0.261 0.146-0.354l1.517-1.517c0.081-0.082 0.17-0.061 0.215-0.043C17.924 10.02 18 10.067 18 10.183v1.316c0 0.276 0.224 0.5 0.5 0.5zM24.001 6.5v13c0 2.481-2.019 4.5-4.5 4.5h-1c-0.276 0-0.5-0.224-0.5-0.5s0.224-0.5 0.5-0.5h1c1.93 0 3.5-1.57 3.5-3.5V9h-2c-0.276 0-0.5-0.224-0.5-0.5s0.224-0.5 0.5-0.5h2V6.5c0-1.93-1.57-3.5-3.5-3.5H4.5C2.57 3 1 4.57 1 6.5V8h14c0.276 0 0.5 0.224 0.5 0.5S15.276 9 15 9H1v10.5C1 21.43 2.57 23 4.5 23h1C5.776 23 6 23.224 6 23.5S5.776 24 5.5 24h-1C2.019 24 0 21.981 0 19.5v-13C0 4.019 2.019 2 4.5 2H6V0.5C6 0.224 6.224 0 6.5 0S7 0.224 7 0.5V2h10V0.5C17 0.224 17.224 0 17.5 0S18 0.224 18 0.5V2h1.5c2.481 0 4.5 2.019 4.501 4.5zM10.001 18c0 1.103 0.897 2 2 2s2-0.897 2-2c0-0.276 0.224-0.5 0.5-0.5s0.5 0.224 0.5 0.5c0 1.654-1.346 3-3 3s-3-1.346-3-3 1.346-3 3-3c0.276 0 0.5 0.224 0.5 0.5s-0.224 0.5-0.5 0.5c-1.103 0-2 0.897-2 2zM18.001 18c0 3.309-2.691 6-6 6s-6-2.691-6-6 2.691-6 6-6c0.184 0 0.365 9e-3 0.544 0.024 0.275 0.024 0.478 0.268 0.454 0.542-0.024 0.276-0.259 0.475-0.542 0.454-0.15-0.014-0.302-0.021-0.456-0.021-2.757 0-5 2.243-5 5s2.243 5 5 5 5-2.243 5-5c0-0.154-7e-3-0.306-0.021-0.456-0.024-0.274 0.179-0.518 0.454-0.542 0.284-0.013 0.518 0.179 0.542 0.454 0.016 0.18 0.024 0.36 0.025 0.545z" />
</svg>