<svg id="chalkboard_user_Layer_1" viewBox="0 0 24 24" fill="currentColor" width="32" height="32" data-name="Layer 1" xmlns="http://www.w3.org/2000/svg" xmlns:xlink="http://www.w3.org/1999/xlink">
    <title>chalkboard-user</title>
    <path d="M7 14c2.206 0 4-1.794 4-4S9.206 6 7 6 3 7.794 3 10s1.794 4 4 4zM7 7c1.654 0 3 1.346 3 3s-1.346 3-3 3-3-1.346-3-3 1.346-3 3-3zM14 23v0.5c0 0.276-0.224 0.5-0.5 0.5S13 23.776 13 23.5V23c0-3.309-2.691-6-6-6s-6 2.691-6 6v0.5C1 23.776 0.776 24 0.5 24S0 23.776 0 23.5V23c0-3.859 3.14-7 7-7s7 3.141 7 7zM19.535 0H9.5C7.445 0 5.653 1.388 5.142 3.375c-0.069 0.268 0.092 0.54 0.36 0.609 0.263 0.069 0.54-0.092 0.609-0.359C6.508 2.079 7.903 1 9.501 1h10.035c1.93 0 3.5 1.57 3.5 3.498L23.001 13.5c0 1.93-1.57 3.5-3.5 3.5h-0.5v-1.5c0-0.827-0.673-1.5-1.5-1.5h-2c-0.827 0-1.5 0.673-1.5 1.5v1c0 0.827 0.673 1.5 1.5 1.5h4c2.481 0 4.5-2.019 4.5-4.498L24.036 4.5c0-2.481-2.019-4.5-4.501-4.5zM18 17h-2.5c-0.276 0-0.5-0.225-0.5-0.5v-1c0-0.275 0.224-0.5 0.5-0.5h2c0.276 0 0.5 0.225 0.5 0.5z" />
</svg>