<svg id="channel_Layer_1" viewBox="0 0 24 24" fill="currentColor" width="32" height="32" data-name="Layer 1" xmlns="http://www.w3.org/2000/svg" xmlns:xlink="http://www.w3.org/1999/xlink">
    <title>channel</title>
    <path d="M21.5 9.5c-1.208 0-2.217 0.86-2.449 2H15.95c-0.133-1.054-0.671-1.973-1.46-2.607l1.629-2.66c0.271 0.099 0.551 0.166 0.839 0.166 0.195 0 0.393-0.023 0.589-0.07 0.648-0.156 1.198-0.556 1.548-1.126 0.719-1.175 0.349-2.717-0.827-3.438-1.177-0.719-2.718-0.348-3.438 0.827-0.349 0.569-0.454 1.241-0.298 1.89 0.116 0.484 0.369 0.912 0.725 1.243l-1.614 2.636c-0.502-0.228-1.055-0.362-1.642-0.362s-1.14 0.134-1.642 0.362L8.745 5.725c0.356-0.331 0.609-0.759 0.726-1.243 0.156-0.648 0.051-1.32-0.299-1.891-0.719-1.174-2.259-1.547-3.438-0.825-1.175 0.72-1.545 2.262-0.826 3.437 0.35 0.57 0.899 0.97 1.548 1.126 0.196 0.047 0.394 0.07 0.589 0.07 0.289 0 0.568-0.068 0.839-0.167l1.629 2.661c-0.79 0.634-1.327 1.553-1.461 2.607H4.951c-0.232-1.14-1.242-2-2.449-2-1.379 0-2.5 1.121-2.5 2.5s1.121 2.5 2.5 2.5c1.208 0 2.217-0.86 2.449-2h3.101c0.133 1.054 0.671 1.973 1.461 2.607l-1.62 2.645c-0.456-0.167-0.951-0.198-1.437-0.081-0.648 0.156-1.198 0.556-1.548 1.126-0.719 1.175-0.349 2.717 0.827 3.438 0.406 0.248 0.856 0.367 1.301 0.367 0.843 0 1.666-0.425 2.137-1.193v0c0.349-0.57 0.454-1.242 0.298-1.891-0.116-0.484-0.369-0.912-0.725-1.243l1.614-2.636C10.862 15.867 11.415 16 12.002 16s1.14-0.134 1.642-0.362l1.614 2.636c-0.356 0.331-0.609 0.759-0.726 1.243-0.156 0.648-0.051 1.32 0.298 1.89v0c0.471 0.77 1.294 1.194 2.137 1.194 0.444 0 0.895-0.119 1.302-0.368 1.175-0.72 1.545-2.262 0.826-3.437-0.35-0.57-0.899-0.97-1.548-1.126-0.487-0.116-0.981-0.085-1.437 0.082l-1.62-2.646c0.79-0.634 1.327-1.553 1.461-2.607h3.101c0.232 1.14 1.242 2 2.449 2 1.379 0 2.5-1.121 2.5-2.5S22.88 9.499 21.5 9.5zM15.681 3.115c0.283-0.462 0.777-0.717 1.283-0.717 0.267 0 0.537 0.071 0.78 0.22 0.705 0.433 0.928 1.358 0.496 2.063-0.209 0.342-0.539 0.581-0.929 0.675-0.389 0.096-0.791 0.03-1.134-0.18-0.705-0.431-0.928-1.356-0.496-2.061zM6.689 5.356c-0.39-0.094-0.72-0.333-0.929-0.675C5.328 3.976 5.551 3.05 6.255 2.619 6.964 2.187 7.888 2.411 8.318 3.114 8.749 3.82 8.527 4.744 7.823 5.176c0 0 0 0 0 0s0 0-1e-3 1e-3C7.481 5.385 7.08 5.45 6.689 5.356zM8.319 20.885c-0.434 0.704-1.358 0.925-2.062 0.496-0.705-0.433-0.928-1.358-0.496-2.063 0.209-0.342 0.539-0.581 0.929-0.675 0.117-0.028 0.235-0.042 0.353-0.042 0.273 0 0.542 0.075 0.781 0.222 0.705 0.431 0.928 1.356 0.495 2.062zM17.312 18.643c0.39 0.094 0.72 0.333 0.929 0.675 0.432 0.705 0.209 1.631-0.495 2.062-0.706 0.433-1.63 0.209-2.063-0.495-0.431-0.706-0.209-1.63 0.496-2.062 0 0 0 0 0 0s0 0 1e-3-1e-3c0.34-0.208 0.743-0.273 1.132-0.179zM2.5 13.5C1.673 13.5 1 12.827 1 12s0.673-1.5 1.5-1.5S4 11.173 4 12s-0.673 1.5-1.5 1.5zM12 15c-1.654 0-3-1.346-3-3s1.346-3 3-3 3 1.346 3 3-1.346 3-3 3zM21.5 13.5c-0.827 0-1.5-0.673-1.5-1.5s0.673-1.5 1.5-1.5S23 11.173 23 12s-0.673 1.5-1.5 1.5z" />
</svg>