<svg id="chart_pie_alt_Layer_1" viewBox="0 0 24 24" fill="currentColor" width="32" height="32" data-name="Layer 1" xmlns="http://www.w3.org/2000/svg" xmlns:xlink="http://www.w3.org/1999/xlink">
    <title>chart-pie-alt</title>
    <path d="M23.94 7.747c-0.865-3.805-3.882-6.823-7.688-7.688-0.553-0.125-1.125 4e-3-1.568 0.356-0.435 0.347-0.685 0.866-0.685 1.422v5.662c0 1.378 1.121 2.5 2.5 2.5h5.662c0 0 1e-3 0 1e-3 0 0.556 0 1.074-0.25 1.421-0.684 0.353-0.442 0.483-1.014 0.357-1.568zM22.802 8.691c-0.156 0.196-0.39 0.308-0.64 0.308h-5.663c-0.827 0-1.5-0.674-1.5-1.5V1.837c0-0.25 0.112-0.483 0.309-0.64 0.204-0.162 0.468-0.221 0.723-0.163 3.432 0.781 6.154 3.503 6.934 6.936 0.058 0.256-1e-3 0.519-0.163 0.721zM19.583 12H13.5c-0.827 0-1.5-0.673-1.5-1.5V4.417c0-0.856-0.246-1.504-0.731-1.925C10.622 1.93 9.767 1.979 9.43 2.028 3.746 2.841-0.383 8.013 0.029 13.802c0.385 5.412 4.757 9.785 10.169 10.169 0.267 0.019 0.532 0.028 0.796 0.028 5.46 0 10.203-4.007 10.978-9.429 0.048-0.337 0.099-1.191-0.464-1.839C21.087 12.246 20.44 12 19.583 12zM20.981 14.429c-0.739 5.167-5.448 8.918-10.712 8.545C5.43 22.63 1.37 18.569 1.025 13.73 0.651 8.462 4.404 3.757 9.571 3.018 9.622 3.011 9.714 3 9.826 3c0.232 0 0.554 0.043 0.788 0.247 0.257 0.223 0.387 0.616 0.387 1.169v6.083c0 1.378 1.122 2.5 2.5 2.5h6.083c0.554 0 0.947 0.13 1.169 0.387 0.301 0.347 0.251 0.886 0.228 1.043z" />
</svg>