<svg id="chart_gantt_Layer_1" viewBox="0 0 24 24" fill="currentColor" width="32" height="32" data-name="Layer 1" xmlns="http://www.w3.org/2000/svg" xmlns:xlink="http://www.w3.org/1999/xlink">
    <title>chart-gantt</title>
    <path d="M23.5 24h-19C2.02 24 0 21.98 0 19.5v-19C0 0.22 0.22 0 0.5 0S1 0.22 1 0.5v19C1 21.43 2.57 23 4.5 23h19c0.28 0 0.5 0.22 0.5 0.5S23.78 24 23.5 24zM24 17.5c0-0.28-0.22-0.5-0.5-0.5h-6c-0.28 0-0.5 0.22-0.5 0.5s0.22 0.5 0.5 0.5h6c0.28 0 0.5-0.22 0.5-0.5zM19 11.5c0-0.28-0.22-0.5-0.5-0.5h-9C9.22 11 9 11.22 9 11.5S9.22 12 9.5 12h9c0.28 0 0.5-0.22 0.5-0.5zM12 5.5C12 5.22 11.78 5 11.5 5h-6C5.22 5 5 5.22 5 5.5S5.22 6 5.5 6h6C11.78 6 12 5.78 12 5.5z" />
</svg>