<svg id="chart_pie_simple_circle_currency_Layer_1" viewBox="0 0 24 24" fill="currentColor" width="32" height="32" data-name="Layer 1" xmlns="http://www.w3.org/2000/svg" xmlns:xlink="http://www.w3.org/1999/xlink">
    <title>chart-pie-simple-circle-currency</title>
    <path d="M18 12c-3.309 0-6 2.691-6 6s2.691 6 6 6 6-2.691 6-6-2.691-6-6-6zM18 23c-2.757 0-5-2.243-5-5s2.243-5 5-5 5 2.243 5 5-2.243 5-5 5zM21.104 14.896c-0.195-0.195-0.512-0.195-0.707 0l-0.663 0.663c-0.49-0.349-1.086-0.56-1.733-0.56s-1.243 0.21-1.733 0.56l-0.663-0.663c-0.195-0.195-0.512-0.195-0.707 0s-0.195 0.512 0 0.707l0.663 0.663c-0.349 0.49-0.56 1.086-0.56 1.733s0.21 1.243 0.56 1.733l-0.663 0.663c-0.195 0.195-0.195 0.512 0 0.707 0.098 0.098 0.226 0.146 0.354 0.146s0.256-0.049 0.354-0.146l0.663-0.663c0.49 0.349 1.086 0.56 1.733 0.56s1.243-0.21 1.733-0.56l0.663 0.663c0.098 0.098 0.226 0.146 0.354 0.146s0.256-0.049 0.354-0.146c0.195-0.195 0.195-0.512 0-0.707l-0.663-0.663c0.349-0.49 0.56-1.086 0.56-1.733s-0.21-1.243-0.56-1.733l0.663-0.663c0.195-0.195 0.195-0.512-2e-3-0.707zM18 20c-1.103 0-2-0.897-2-2s0.897-2 2-2 2 0.897 2 2-0.897 2-2 2zM15.517 10h6.451c0.611 0 1.185-0.272 1.573-0.748 0.387-0.474 0.539-1.088 0.418-1.686-0.772-3.798-3.727-6.752-7.525-7.525-0.597-0.124-1.212 0.031-1.687 0.418C14.272 0.847 14 1.42 14 2.032v6.451C14 9.319 14.681 10 15.517 10zM15 2.032c0-0.311 0.139-0.602 0.38-0.799 0.187-0.152 0.416-0.242 0.65-0.233 2.008 0.077 6.008 2.538 6.948 6.766 0.067 0.301-0.016 0.613-0.212 0.854C22.569 8.861 22.278 9 21.967 9h-6.451c-0.285 0-0.517-0.232-0.517-0.517zM11.999 23.466c0.013 0.275-0.2 0.51-0.477 0.521C11.349 23.996 11.174 24 10.999 24c-0.098 0-0.195-2e-3-0.293-4e-3-5.528-0.144-10.214-4.565-10.667-10.064C-0.425 8.307 3.387 3.264 8.905 2.2c0.242-0.047 1.497-0.245 2.367 0.472 0.503 0.416 0.759 1.031 0.759 1.829 0 1.491-0.018 6.208-0.026 8.002 0 0.275-0.225 0.498-0.5 0.498h-3e-3c-0.275-1e-3-0.498-0.226-0.497-0.502 9e-3-1.794 0.026-6.507 0.026-7.998 0-0.492-0.13-0.837-0.396-1.057C10.2 3.086 9.461 3.111 9.094 3.182 4.078 4.148 0.613 8.735 1.035 13.85c0.412 4.998 4.672 9.016 9.696 9.146 0.251 8e-3 0.5 4e-3 0.746-7e-3 8e-3 0 0.016 0 0.022 0 0.266 0 0.487 0.209 0.5 0.477z" />
</svg>