<svg id="chart_line_up_Layer_1" viewBox="0 0 24 24" fill="currentColor" width="32" height="32" data-name="Layer 1" xmlns="http://www.w3.org/2000/svg" xmlns:xlink="http://www.w3.org/1999/xlink">
    <title>chart-line-up</title>
    <path d="M24 23.5c0 0.276-0.224 0.5-0.5 0.5h-21C1.122 24 0 22.878 0 21.5v-21C0 0.224 0.224 0 0.5 0S1 0.224 1 0.5v21C1 22.327 1.673 23 2.5 23h21c0.276 0 0.5 0.224 0.5 0.5zM21.5 5h-4C17.224 5 17 5.224 17 5.5S17.224 6 17.5 6h4c0.231 0 0.45 0.053 0.646 0.146l-5.771 5.414c-0.584 0.585-1.536 0.586-2.153-0.029l-0.954-0.799c-0.943-0.944-2.597-0.939-3.53-5e-3l-5.586 5.414c-0.198 0.192-0.203 0.509-0.011 0.707C4.239 16.949 4.37 17 4.5 17c0.125 0 0.251-0.047 0.348-0.141l5.591-5.419c0.566-0.566 1.523-0.596 2.153 0.029l0.954 0.799c0.974 0.975 2.561 0.975 3.524 0.011l5.771-5.414 0.011-0.011c0.094 0.196 0.147 0.415 0.147 0.647v4c0 0.276 0.224 0.5 0.5 0.5s0.5-0.224 0.5-0.5V7.5c0-1.378-1.122-2.5-2.499-2.5z" />
</svg>