<svg id="chart_pie_Layer_1" viewBox="0 0 24 24" fill="currentColor" width="32" height="32" data-name="Layer 1" xmlns="http://www.w3.org/2000/svg" xmlns:xlink="http://www.w3.org/1999/xlink">
    <title>chart-pie</title>
    <path d="M24 12c0-6.617-5.383-12-12-12S0 5.383 0 12 5.383 24 12 24c6.077 0 12-4.769 12-12zM13.207 12.5h9.768c-0.12 2.655-1.181 5.063-2.863 6.904zM22.975 11.5H12.539c-0.024-0.107-0.039-0.216-0.039-0.329V1.025C18.166 1.282 22.718 5.834 22.975 11.5zM1 12C1 6.103 5.667 1.289 11.5 1.025v10.146c0 0.668 0.26 1.296 0.732 1.768l7.172 7.172C17.447 21.899 14.853 23 12 23 5.935 23 1 18.065 1 12z" />
</svg>