<svg id="chart_simple_Layer_1" viewBox="0 0 24 24" fill="currentColor" width="32" height="32" data-name="Layer 1" xmlns="http://www.w3.org/2000/svg" xmlns:xlink="http://www.w3.org/1999/xlink">
    <title>chart-simple</title>
    <path d="M12 0c-1.65 0-3 1.35-3 3v18c0 1.65 1.35 3 3 3s3-1.35 3-3V3c0-1.65-1.35-3-3-3zM14 21c0 1.1-0.9 2-2 2s-2-0.9-2-2V3c0-1.1 0.9-2 2-2s2 0.9 2 2zM21 6c-1.65 0-3 1.35-3 3v12c0 1.65 1.35 3 3 3s3-1.35 3-3V9c0-1.65-1.35-3-3-3zM23 21c0 1.1-0.9 2-2 2s-2-0.9-2-2V9c0-1.1 0.9-2 2-2s2 0.9 2 2zM3 12c-1.65 0-3 1.35-3 3v6c0 1.65 1.35 3 3 3s3-1.35 3-3v-6c0-1.65-1.35-3-3-3zM5 21c0 1.1-0.9 2-2 2s-2-0.9-2-2v-6c0-1.1 0.9-2 2-2s2 0.9 2 2z" />
</svg>