<svg id="chart_scatter_bubble_Layer_1" viewBox="0 0 24 24" fill="currentColor" width="32" height="32" data-name="Layer 1" xmlns="http://www.w3.org/2000/svg" xmlns:xlink="http://www.w3.org/1999/xlink">
    <title>chart-scatter-bubble</title>
    <path d="M23.5 24h-19C2.02 24 0 21.98 0 19.5v-19C0 0.22 0.22 0 0.5 0S1 0.22 1 0.5v19C1 21.43 2.57 23 4.5 23h19c0.28 0 0.5 0.22 0.5 0.5S23.78 24 23.5 24zM21 4c0-1.65-1.35-3-3-3s-3 1.35-3 3 1.35 3 3 3 3-1.35 3-3zM20 4c0 1.1-0.9 2-2 2s-2-0.9-2-2 0.9-2 2-2 2 0.9 2 2zM20 14c0-1.65-1.35-3-3-3s-3 1.35-3 3 1.35 3 3 3 3-1.35 3-3zM19 14c0 1.1-0.9 2-2 2s-2-0.9-2-2 0.9-2 2-2 2 0.9 2 2zM11 7.5C11 6.12 9.88 5 8.5 5S6 6.12 6 7.5 7.12 10 8.5 10 11 8.88 11 7.5zM10 7.5C10 8.33 9.33 9 8.5 9S7 8.33 7 7.5 7.67 6 8.5 6 10 6.67 10 7.5zM10 16.5c0-1.38-1.12-2.5-2.5-2.5S5 15.12 5 16.5 6.12 19 7.5 19 10 17.88 10 16.5zM9 16.5C9 17.33 8.33 18 7.5 18S6 17.33 6 16.5 6.67 15 7.5 15 9 15.67 9 16.5z" />
</svg>