<svg id="chart_waterfall_Layer_1" viewBox="0 0 24 24" fill="currentColor" width="32" height="32" data-name="Layer 1" xmlns="http://www.w3.org/2000/svg" xmlns:xlink="http://www.w3.org/1999/xlink">
    <title>chart-waterfall</title>
    <path d="M23.5 24h-19C2.02 24 0 21.98 0 19.5v-19C0 0.22 0.22 0 0.5 0S1 0.22 1 0.5v19C1 21.43 2.57 23 4.5 23h19c0.28 0 0.5 0.22 0.5 0.5S23.78 24 23.5 24zM22 16.5v-16C22 0.22 21.78 0 21.5 0S21 0.22 21 0.5v16c0 0.28 0.22 0.5 0.5 0.5s0.5-0.22 0.5-0.5zM17 9.5v-5C17 4.22 16.78 4 16.5 4S16 4.22 16 4.5v5c0 0.28 0.22 0.5 0.5 0.5S17 9.78 17 9.5zM12 13.5v-5C12 8.22 11.78 8 11.5 8S11 8.22 11 8.5v5c0 0.28 0.22 0.5 0.5 0.5s0.5-0.22 0.5-0.5zM7 17.5v-5C7 12.22 6.78 12 6.5 12S6 12.22 6 12.5v5C6 17.78 6.22 18 6.5 18S7 17.78 7 17.5z" />
</svg>