<svg id="chart_pyramid_Layer_1" viewBox="0 0 24 24" fill="currentColor" width="32" height="32" data-name="Layer 1" xmlns="http://www.w3.org/2000/svg" xmlns:xlink="http://www.w3.org/1999/xlink">
    <title>chart-pyramid</title>
    <path d="M23.705 20.122 14.213 1.399C13.785 0.556 12.938 0.033 12 0.033s-1.785 0.524-2.212 1.366L0.295 20.122c-0.429 0.846-0.389 1.833 0.107 2.64 0.489 0.796 1.335 1.272 2.264 1.272h18.667c0.929 0 1.774-0.476 2.264-1.272 0.496-0.808 0.536-1.795 0.108-2.64zM6.548 10h10.904l3.042 6H3.506zM10.679 1.852c0.26-0.512 0.753-0.818 1.32-0.818S13.06 1.34 13.32 1.852L16.944 9H7.055zM22.745 22.239c-0.306 0.498-0.833 0.795-1.411 0.795H2.667c-0.578 0-1.106-0.297-1.412-0.795-0.312-0.509-0.338-1.132-0.067-1.665L3 17c0 0 0 0 0 0h18c0 0 0 0 0 0l1.812 3.574c0.271 0.533 0.245 1.156-0.067 1.665z" />
</svg>