<svg id="chart_line_up_down_Layer_1" viewBox="0 0 24 24" fill="currentColor" width="32" height="32" data-name="Layer 1" xmlns="http://www.w3.org/2000/svg" xmlns:xlink="http://www.w3.org/1999/xlink">
    <title>chart-line-up-down</title>
    <path d="M24 23.5c0 0.276-0.224 0.5-0.5 0.5h-21C1.121 24 0 22.879 0 21.5v-21C0 0.224 0.224 0 0.5 0S1 0.224 1 0.5v21C1 22.327 1.673 23 2.5 23h21c0.276 0 0.5 0.224 0.5 0.5zM22.5 2h-5C17.224 2 17 2.224 17 2.5S17.224 3 17.5 3h4.77l-6.981 6.561c-0.584 0.586-1.535 0.586-2.153-0.029l-0.954-0.799C11.24 7.789 9.59 7.791 8.65 8.73l-5.5 5.414c-0.197 0.193-0.199 0.511-6e-3 0.707C3.242 14.951 3.372 15 3.5 15c0.127 0 0.253-0.048 0.351-0.144l5.503-5.417c0.567-0.567 1.523-0.595 2.153 0.029l0.954 0.799c0.974 0.974 2.561 0.975 3.524 0.011L23 3.686V8.5C23 8.776 23.224 9 23.5 9S24 8.776 24 8.5v-5C24 2.673 23.327 2 22.5 2zM23.5 13c-0.276 0-0.5 0.224-0.5 0.5v4.793l-6.146-6.146c-0.195-0.195-0.512-0.195-0.707 0s-0.195 0.512 0 0.707L22.293 19H17.5c-0.276 0-0.5 0.224-0.5 0.5s0.224 0.5 0.5 0.5h5c0.827 0 1.5-0.673 1.5-1.5v-5c0-0.276-0.224-0.5-0.5-0.5z" />
</svg>