<svg id="chart_tree_map_Layer_1" viewBox="0 0 24 24" fill="currentColor" width="32" height="32" data-name="Layer 1" xmlns="http://www.w3.org/2000/svg" xmlns:xlink="http://www.w3.org/1999/xlink">
    <title>chart-tree-map</title>
    <path d="M21 9h-5c-1.65 0-3 1.35-3 3s1.35 3 3 3h5c1.65 0 3-1.35 3-3s-1.35-3-3-3zM21 14h-5c-1.1 0-2-0.9-2-2s0.9-2 2-2h5c1.1 0 2 0.9 2 2s-0.9 2-2 2zM16 6h5c1.65 0 3-1.35 3-3s-1.35-3-3-3h-5c-1.65 0-3 1.35-3 3s1.35 3 3 3zM16 1h5c1.1 0 2 0.9 2 2s-0.9 2-2 2h-5c-1.1 0-2-0.9-2-2s0.9-2 2-2zM21 18h-5c-1.65 0-3 1.35-3 3s1.35 3 3 3h5c1.65 0 3-1.35 3-3s-1.35-3-3-3zM21 23h-5c-1.1 0-2-0.9-2-2s0.9-2 2-2h5c1.1 0 2 0.9 2 2s-0.9 2-2 2zM7.5 13h-4C1.57 13 0 14.57 0 16.5v4C0 22.43 1.57 24 3.5 24h4c1.93 0 3.5-1.57 3.5-3.5v-4c0-1.93-1.57-3.5-3.5-3.5zM10 20.5c0 1.38-1.12 2.5-2.5 2.5h-4C2.12 23 1 21.88 1 20.5v-4C1 15.12 2.12 14 3.5 14h4c1.38 0 2.5 1.12 2.5 2.5zM7.5 0h-4C1.57 0 0 1.57 0 3.5v4C0 9.43 1.57 11 3.5 11h4C9.43 11 11 9.43 11 7.5v-4C11 1.57 9.43 0 7.5 0zM10 7.5C10 8.88 8.88 10 7.5 10h-4C2.12 10 1 8.88 1 7.5v-4C1 2.12 2.12 1 3.5 1h4C8.88 1 10 2.12 10 3.5z" />
</svg>