<svg id="chart_set_theory_Layer_1" viewBox="0 0 24 24" fill="currentColor" width="32" height="32" data-name="Layer 1" xmlns="http://www.w3.org/2000/svg" xmlns:xlink="http://www.w3.org/1999/xlink">
    <title>chart-set-theory</title>
    <path d="M19.721 9.33c0.014-0.192 0.029-0.384 0.029-0.58C19.75 4.477 16.273 1 12 1S4.25 4.477 4.25 8.75c0 0.196 0.015 0.388 0.029 0.58C1.746 10.606 0 13.225 0 16.25 0 20.523 3.477 24 7.75 24c1.569 0 3.028-0.472 4.25-1.277C13.222 23.528 14.681 24 16.25 24 20.523 24 24 20.523 24 16.25c0-3.025-1.746-5.644-4.279-6.92zM5.25 8.75C5.25 5.028 8.278 2 12 2s6.75 3.028 6.75 6.75c0 0.057-7e-3 0.112-9e-3 0.168C17.958 8.651 17.122 8.5 16.25 8.5c-1.569 0-3.028 0.472-4.25 1.277C10.778 8.972 9.319 8.5 7.75 8.5c-0.872 0-1.708 0.152-2.491 0.418-1e-3-0.057-9e-3-0.112-9e-3-0.168zM14.5 16.25c0 2.112-0.977 3.999-2.5 5.237-1.523-1.239-2.5-3.125-2.5-5.237 0-0.057 7e-3-0.112 9e-3-0.168C10.292 16.349 11.128 16.5 12 16.5s1.708-0.152 2.491-0.418c1e-3 0.057 9e-3 0.112 9e-3 0.168zM12 15.5c-0.841 0-1.644-0.162-2.388-0.444 0.291-1.621 1.159-3.044 2.388-4.043 1.229 0.999 2.097 2.422 2.388 4.043C13.644 15.339 12.842 15.5 12 15.5zM8.676 14.618c-1.711-0.973-2.954-2.67-3.314-4.674C6.106 9.661 6.908 9.5 7.75 9.5c1.241 0 2.4 0.342 3.4 0.929-1.229 1.078-2.118 2.534-2.474 4.189zM12.849 10.429c1-0.587 2.16-0.929 3.4-0.929 0.841 0 1.644 0.162 2.388 0.444-0.36 2.003-1.603 3.7-3.314 4.674-0.356-1.655-1.245-3.111-2.474-4.189zM7.749 23c-3.722 0-6.75-3.028-6.75-6.75 0-2.513 1.384-4.706 3.426-5.868 0.499 2.318 2.039 4.248 4.103 5.287-0.014 0.192-0.029 0.384-0.029 0.58 0 2.32 1.03 4.4 2.65 5.821-1 0.587-2.16 0.929-3.4 0.93zM16.249 23c-1.241 0-2.4-0.342-3.4-0.929 1.621-1.422 2.65-3.501 2.65-5.821 0-0.196-0.015-0.388-0.029-0.58 2.064-1.04 3.604-2.97 4.103-5.287 2.043 1.162 3.426 3.354 3.426 5.868 0 3.722-3.028 6.75-6.75 6.749z" />
</svg>