<svg id="chart_candlestick_Layer_1" viewBox="0 0 24 24" fill="currentColor" width="32" height="32" data-name="Layer 1" xmlns="http://www.w3.org/2000/svg" xmlns:xlink="http://www.w3.org/1999/xlink">
    <title>chart-candlestick</title>
    <path d="M24 23.5c0 0.28-0.22 0.5-0.5 0.5h-19C2.02 24 0 21.98 0 19.5v-19C0 0.22 0.22 0 0.5 0S1 0.22 1 0.5v19C1 21.43 2.57 23 4.5 23h19c0.28 0 0.5 0.22 0.5 0.5zM15 11.5v-7C15 3.67 15.67 3 16.5 3H17V0.5C17 0.22 17.22 0 17.5 0S18 0.22 18 0.5V3h0.5C19.33 3 20 3.67 20 4.5v7c0 0.83-0.67 1.5-1.5 1.5H18v2.5c0 0.28-0.22 0.5-0.5 0.5S17 15.78 17 15.5V13h-0.5c-0.83 0-1.5-0.67-1.5-1.5zM16 11.5c0 0.28 0.22 0.5 0.5 0.5h2c0.28 0 0.5-0.22 0.5-0.5v-7C19 4.22 18.78 4 18.5 4h-2C16.22 4 16 4.22 16 4.5zM6 14.5v-10C6 3.67 6.67 3 7.5 3H8V0.5C8 0.22 8.22 0 8.5 0S9 0.22 9 0.5V3h0.5C10.33 3 11 3.67 11 4.5v10c0 0.83-0.67 1.5-1.5 1.5H9v2.5C9 18.78 8.78 19 8.5 19S8 18.78 8 18.5V16H7.5C6.67 16 6 15.33 6 14.5zM7 14.5C7 14.78 7.22 15 7.5 15h2c0.28 0 0.5-0.22 0.5-0.5v-10C10 4.22 9.78 4 9.5 4h-2C7.22 4 7 4.22 7 4.5z" />
</svg>