<svg id="chart_area_Layer_1" viewBox="0 0 24 24" fill="currentColor" width="32" height="32" data-name="Layer 1" xmlns="http://www.w3.org/2000/svg" xmlns:xlink="http://www.w3.org/1999/xlink">
    <title>chart-area</title>
    <path d="M23.5 24h-21C1.122 24 0 22.878 0 21.5v-21C0 0.224 0.224 0 0.5 0S1 0.224 1 0.5v21C1 22.327 1.673 23 2.5 23h21c0.276 0 0.5 0.224 0.5 0.5S23.776 24 23.5 24zM24 18.506V12.27c0-0.621-0.229-1.216-0.645-1.677l-2.587-2.861c-0.943-0.944-2.592-0.944-3.535 0l-2.232 2.232-4.232-4.232c-0.944-0.944-2.596-0.94-3.531-4e-3L3.753 9.14c-0.478 0.467-0.751 1.119-0.751 1.787V18.5c0 1.378 1.122 2.5 2.5 2.5H21.5c1.374 0 2.496-1.118 2.5-2.494zM10.061 6.439v0l4.586 4.585c0.195 0.195 0.512 0.195 0.707 0l2.586-2.585c0.566-0.566 1.572-0.548 2.104-0.018l2.57 2.842c0.25 0.277 0.387 0.634 0.387 1.006v6.234c-2e-3 0.825-0.675 1.496-1.5 1.496H5.5c-0.827 0-1.5-0.673-1.5-1.5v-7.573c0-0.401 0.164-0.792 0.451-1.072L7.94 6.438C8.223 6.155 8.6 5.999 9.001 5.999s0.777 0.156 1.06 0.44z" />
</svg>