<svg id="chart_histogram_Layer_1" viewBox="0 0 24 24" fill="currentColor" width="32" height="32" data-name="Layer 1" xmlns="http://www.w3.org/2000/svg" xmlns:xlink="http://www.w3.org/1999/xlink">
    <title>chart-histogram</title>
    <path d="M24 23.524c0 0.276-0.225 0.5-0.5 0.5v0L3.5 24C1.571 24 0 22.43 0 20.5v-20C0 0.224 0.224 0 0.5 0S1 0.224 1 0.5v20C1 21.878 2.122 23 3.5 23l20.001 0.024c0.275 0 0.499 0.225 0.499 0.5zM5 12.524V19.5C5 19.776 5.224 20 5.5 20S6 19.776 6 19.5v-6.976c0-0.276-0.224-0.5-0.5-0.5S5 12.248 5 12.524zM10 10.524V19.5c0 0.276 0.224 0.5 0.5 0.5s0.5-0.224 0.5-0.5v-8.976c0-0.276-0.224-0.5-0.5-0.5s-0.5 0.224-0.5 0.5zM15 13.524V19.5c0 0.276 0.224 0.5 0.5 0.5s0.5-0.224 0.5-0.5v-5.976c0-0.276-0.224-0.5-0.5-0.5s-0.5 0.224-0.5 0.5zM20 9.5v10c0 0.276 0.224 0.5 0.5 0.5s0.5-0.224 0.5-0.5v-10C21 9.224 20.776 9 20.5 9S20 9.224 20 9.5zM4.5 9c0.128 0 0.256-0.049 0.354-0.146L9.328 4.38c0.371-0.371 0.974-0.371 1.345 0l2.948 2.949c0.762 0.759 1.998 0.759 2.76 0l6.473-6.475c0.195-0.195 0.195-0.512 0-0.707s-0.512-0.195-0.707 0l-6.474 6.474c-0.371 0.371-0.975 0.371-1.346 0l-2.948-2.948c-0.761-0.761-1.998-0.761-2.759 0L4.146 8.147c-0.195 0.195-0.195 0.512 0 0.707C4.244 8.952 4.372 9 4.5 9z" />
</svg>