<svg id="chart_user_Layer_1" viewBox="0 0 24 24" fill="currentColor" width="32" height="32" data-name="Layer 1" xmlns="http://www.w3.org/2000/svg" xmlns:xlink="http://www.w3.org/1999/xlink">
    <title>chart-user</title>
    <path d="M6.96 14c2.21 0 4-1.79 4-4s-1.79-4-4-4-4 1.79-4 4 1.79 4 4 4zM6.96 7c1.65 0 3 1.35 3 3s-1.35 3-3 3-3-1.35-3-3 1.35-3 3-3zM13.96 23v0.5c0 0.28-0.22 0.5-0.5 0.5s-0.5-0.22-0.5-0.5V23c0-3.31-2.69-6-6-6s-6 2.69-6 6v0.5c0 0.28-0.22 0.5-0.5 0.5s-0.5-0.22-0.5-0.5V23c0-3.86 3.14-7 7-7s7 3.14 7 7zM24 4.5l-0.04 9c0 2.48-2.02 4.5-4.5 4.5h-5c-0.28 0-0.5-0.22-0.5-0.5s0.22-0.5 0.5-0.5h5c1.93 0 3.5-1.57 3.5-3.5l0.04-9C23 2.57 21.43 1 19.5 1H9.46c-1.6 0-2.99 1.08-3.39 2.62C6 3.89 5.73 4.05 5.46 3.98S5.03 3.64 5.1 3.37c0.51-1.99 2.3-3.38 4.36-3.38H19.5c2.48 0 4.5 2.02 4.5 4.51zM14.36 10.9 19.26 6h-3.79c-0.28 0-0.5-0.22-0.5-0.5S15.19 5 15.47 5h4c0.83 0 1.5 0.67 1.5 1.5v4c0 0.28-0.22 0.5-0.5 0.5s-0.5-0.22-0.5-0.5V6.71l-4.9 4.9c-0.29 0.29-0.68 0.44-1.06 0.44s-0.77-0.15-1.06-0.44l-0.29-0.29c-0.2-0.2-0.2-0.51 0-0.71s0.51-0.2 0.71 0l0.29 0.29c0.2 0.19 0.51 0.19 0.7 0z" />
</svg>