<svg id="chart_kanban_Layer_1" viewBox="0 0 24 24" fill="currentColor" width="32" height="32" data-name="Layer 1" xmlns="http://www.w3.org/2000/svg" xmlns:xlink="http://www.w3.org/1999/xlink">
    <title>chart-kanban</title>
    <path d="M21 0c-1.654 0-3 1.346-3 3v18c0 1.654 1.346 3 3 3s3-1.346 3-3V3c0-1.654-1.346-3-3-3zM23 21c0 1.103-0.897 2-2 2s-2-0.897-2-2V3c0-1.103 0.897-2 2-2s2 0.897 2 2zM3 0C1.346 0 0 1.346 0 3v12c0 1.654 1.346 3 3 3s3-1.346 3-3V3c0-1.654-1.346-3-3-3zM5 15c0 1.103-0.897 2-2 2s-2-0.897-2-2V3c0-1.103 0.897-2 2-2s2 0.897 2 2zM12 0c-1.654 0-3 1.346-3 3v6c0 1.654 1.346 3 3 3s3-1.346 3-3V3c0-1.654-1.346-3-3-3zM14 9c0 1.103-0.897 2-2 2s-2-0.897-2-2V3c0-1.103 0.897-2 2-2s2 0.897 2 2z" />
</svg>