<svg id="chart_network_Layer_1" viewBox="0 0 24 24" fill="currentColor" width="32" height="32" data-name="Layer 1" xmlns="http://www.w3.org/2000/svg" xmlns:xlink="http://www.w3.org/1999/xlink">
    <title>chart-network</title>
    <path d="M20.5 13c-1.204 0-2.268 0.612-2.898 1.54l-1.014-0.563c0.263-0.607 0.411-1.275 0.411-1.977 0-2.757-2.243-5-5-5-0.822 0-1.586 0.218-2.27 0.571L8.792 6.123C9.526 5.481 9.999 4.549 9.999 3.5c0-1.93-1.57-3.5-3.5-3.5s-3.5 1.57-3.5 3.5 1.57 3.5 3.5 3.5C7.02 7 7.511 6.878 7.956 6.672L8.89 8.115c-1.143 0.917-1.891 2.308-1.891 3.884 0 1.198 0.441 2.285 1.147 3.147l-2.56 2.56c-0.584-0.438-1.302-0.707-2.086-0.707-1.93 0-3.5 1.57-3.5 3.5s1.57 3.5 3.5 3.5 3.5-1.57 3.5-3.5c0-0.785-0.269-1.502-0.707-2.086l2.56-2.56c0.862 0.705 1.948 1.146 3.146 1.146 1.697 0 3.195-0.854 4.099-2.151l1.08 0.6c-0.106 0.334-0.179 0.682-0.179 1.051 0 1.93 1.57 3.5 3.5 3.5s3.5-1.57 3.5-3.5-1.57-3.5-3.499-3.499zM4 3.5C4 2.122 5.121 1 6.5 1S9 2.122 9 3.5 7.879 6 6.5 6 4 4.878 4 3.5zM3.5 23C2.121 23 1 21.878 1 20.5S2.121 18 3.5 18 6 19.122 6 20.5 4.879 23 3.5 23zM12 16c-2.206 0-4-1.794-4-4s1.794-4 4-4 4 1.794 4 4-1.794 4-4 4zM20.5 19c-1.379 0-2.5-1.122-2.5-2.5s1.121-2.5 2.5-2.5 2.5 1.122 2.5 2.5-1.121 2.5-2.5 2.5z" />
</svg>