<svg id="chart_connected_Layer_1" viewBox="0 0 24 24" fill="currentColor" width="32" height="32" data-name="Layer 1" xmlns="http://www.w3.org/2000/svg" xmlns:xlink="http://www.w3.org/1999/xlink">
    <title>chart-connected</title>
    <path d="M24 12c0-2.135-1.685-3.869-3.792-3.979-0.897-1.848-2.38-3.331-4.229-4.229C15.869 1.685 14.135 0 12 0S8.135 1.682 8.022 3.787c-1.845 0.894-3.337 2.39-4.233 4.234C1.683 8.133 0 9.866 0 12s1.684 3.868 3.792 3.979c0.897 1.848 2.382 3.332 4.229 4.229C8.131 22.315 9.865 24 12 24s3.869-1.685 3.979-3.792c1.849-0.897 3.332-2.381 4.229-4.229C22.316 15.869 24 14.135 24 12zM12 1c1.654 0 3 1.346 3 3s-1.346 3-3 3-3-1.346-3-3 1.346-3 3-3zM1 12c0-1.654 1.346-3 3-3s3 1.346 3 3-1.346 3-3 3-3-1.346-3-3zM12 23c-1.654 0-3-1.346-3-3s1.346-3 3-3 3 1.346 3 3-1.346 3-3 3zM15.898 19.13C15.499 17.342 13.906 16 12 16s-3.5 1.343-3.899 3.13c-1.366-0.747-2.484-1.866-3.232-3.232 1.788-0.399 3.13-1.992 3.13-3.899 0-1.897-1.33-3.482-3.104-3.89 0.746-1.357 1.856-2.47 3.213-3.216 0.408 1.775 1.993 3.106 3.891 3.106s3.5-1.343 3.898-3.13c1.366 0.747 2.486 1.866 3.232 3.232C17.341 8.5 15.998 10.093 15.998 12s1.342 3.5 3.131 3.899c-0.747 1.366-1.866 2.485-3.231 3.231zM20 15c-1.654 0-3-1.346-3-3s1.346-3 3-3 3 1.346 3 3-1.346 3-3 3z" />
</svg>