<svg id="chart_bullet_Layer_1" viewBox="0 0 24 24" fill="currentColor" width="32" height="32" data-name="Layer 1" xmlns="http://www.w3.org/2000/svg" xmlns:xlink="http://www.w3.org/1999/xlink">
    <title>chart-bullet</title>
    <path d="M21 2h-5V0.5C16 0.22 15.78 0 15.5 0S15 0.22 15 0.5V2H3C1.35 2 0 3.35 0 5v2c0 1.65 1.35 3 3 3h12v1.5c0 0.28 0.22 0.5 0.5 0.5s0.5-0.22 0.5-0.5V10h5c1.65 0 3-1.35 3-3V5c0-1.65-1.35-3-3-3zM1 7V5c0-1.1 0.9-2 2-2h7v6H3C1.9 9 1 8.1 1 7zM11 9V3h4v6zM23 7c0 1.1-0.9 2-2 2h-5V3h5c1.1 0 2 0.9 2 2zM21 14H11v-1.5c0-0.28-0.22-0.5-0.5-0.5S10 12.22 10 12.5V14H3c-1.65 0-3 1.35-3 3v2c0 1.65 1.35 3 3 3h7v1.5c0 0.28 0.22 0.5 0.5 0.5s0.5-0.22 0.5-0.5V22h10c1.65 0 3-1.35 3-3v-2c0-1.65-1.35-3-3-3zM1 19v-2c0-1.1 0.9-2 2-2h2v6H3c-1.1 0-2-0.9-2-2zM6 21v-6h4v6zM23 19c0 1.1-0.9 2-2 2H11v-6h10c1.1 0 2 0.9 2 2z" />
</svg>