<svg id="chart_mixed_Layer_1" viewBox="0 0 24 24" fill="currentColor" width="32" height="32" data-name="Layer 1" xmlns="http://www.w3.org/2000/svg" xmlns:xlink="http://www.w3.org/1999/xlink">
    <title>chart-mixed</title>
    <path d="M5 7.99c-0.75 0-1.5-0.29-2.07-0.86L0.15 4.35c-0.2-0.2-0.2-0.51 0-0.71s0.51-0.2 0.71 0l2.78 2.78c0.73 0.73 2 0.73 2.73 0l3.56-3.56c1.14-1.14 3-1.14 4.14 0l1.56 1.56c0.75 0.75 1.98 0.75 2.73 0l4.29-4.27c0.2-0.2 0.51-0.2 0.71 0s0.2 0.51 0 0.71l-4.28 4.28c-1.14 1.14-3 1.14-4.14 0l-1.56-1.56c-0.73-0.73-2-0.73-2.73 0L7.09 7.14C6.52 7.71 5.77 8 5 7.99zM7 23.5v-11C7 12.22 6.78 12 6.5 12S6 12.22 6 12.5v11C6 23.78 6.22 24 6.5 24S7 23.78 7 23.5zM2 23.5v-13C2 10.22 1.78 10 1.5 10S1 10.22 1 10.5v13C1 23.78 1.22 24 1.5 24S2 23.78 2 23.5zM12 23.5v-15C12 8.22 11.78 8 11.5 8S11 8.22 11 8.5v15c0 0.28 0.22 0.5 0.5 0.5s0.5-0.22 0.5-0.5zM17 23.5v-12c0-0.28-0.22-0.5-0.5-0.5S16 11.22 16 11.5v12c0 0.28 0.22 0.5 0.5 0.5s0.5-0.22 0.5-0.5zM22 23.5v-16C22 7.22 21.78 7 21.5 7S21 7.22 21 7.5v16c0 0.28 0.22 0.5 0.5 0.5s0.5-0.22 0.5-0.5z" />
</svg>