<svg id="chart_pie_simple_circle_dollar_Layer_1" viewBox="0 0 24 24" fill="currentColor" width="32" height="32" data-name="Layer 1" xmlns="http://www.w3.org/2000/svg" xmlns:xlink="http://www.w3.org/1999/xlink">
    <title>chart-pie-simple-circle-dollar</title>
    <path d="M22.19 17.105l-4.106-1.173C17.446 15.75 17 15.159 17 14.494c0-0.824 0.671-1.495 1.495-1.495h3.01c0.824 0 1.495 0.671 1.495 1.495 0 0.276 0.224 0.5 0.5 0.5s0.5-0.224 0.5-0.5c0-1.376-1.119-2.495-2.495-2.495H20.5v-2h1.468c0.612 0 1.186-0.272 1.574-0.748 0.387-0.474 0.539-1.088 0.417-1.686-0.772-3.797-3.727-6.752-7.526-7.524-0.6-0.125-1.213 0.03-1.686 0.417-0.475 0.388-0.748 0.962-0.748 1.574v6.451c0 0.836 0.681 1.517 1.517 1.517h3.983v2h-1.005c-1.376 0-2.495 1.119-2.495 2.495 0 1.108 0.744 2.095 1.81 2.399l4.106 1.173c0.638 0.182 1.084 0.773 1.084 1.438 0 0.824-0.671 1.495-1.495 1.495h-3.01c-0.824 0-1.495-0.671-1.495-1.495 0-0.276-0.224-0.5-0.5-0.5s-0.5 0.224-0.5 0.5c0 1.376 1.119 2.495 2.495 2.495h1.005v1.5c0 0.276 0.224 0.5 0.5 0.5s0.5-0.224 0.5-0.5V22h1.005c1.376 0 2.495-1.119 2.495-2.495 0-1.108-0.744-2.095-1.809-2.4zM15.517 9C15.232 9 15 8.768 15 8.483V2.032c0-0.311 0.139-0.602 0.38-0.799C15.566 1.081 15.795 1 16.029 1c0.068 0 0.136 7e-3 0.204 0.021 3.405 0.693 6.053 3.341 6.746 6.746 0.061 0.302-0.016 0.613-0.212 0.854-0.198 0.242-0.489 0.38-0.799 0.38zM14.971 22.736c0.092 0.26-0.044 0.546-0.305 0.638C13.49 23.79 12.259 24 11.004 24c-0.1 0-0.199-1e-3-0.299-4e-3-5.528-0.144-10.213-4.565-10.667-10.064C-0.425 8.307 3.387 3.263 8.905 2.2c0.242-0.048 1.498-0.245 2.366 0.472 0.504 0.416 0.759 1.031 0.759 1.829 0 1.491-0.017 5.205-0.026 7 0 0.133 0.051 0.259 0.145 0.354s0.22 0.147 0.355 0.147h0.995c0.276 0 0.5 0.224 0.5 0.5s-0.224 0.5-0.5 0.5h-0.995c-0.402 0-0.78-0.157-1.064-0.441-0.283-0.285-0.438-0.662-0.436-1.064 9e-3-1.794 0.026-5.504 0.026-6.995 0-0.492-0.129-0.837-0.396-1.058-0.434-0.357-1.171-0.331-1.54-0.261C4.078 4.148 0.613 8.735 1.035 13.85c0.412 4.998 4.671 9.016 9.697 9.146 1.233 0.034 2.447-0.158 3.602-0.565 0.261-0.092 0.546 0.044 0.637 0.305z" />
</svg>