<svg id="chatbot_speech_bubble_Layer_1" viewBox="0 0 24 24" fill="currentColor" width="32" height="32" data-name="Layer 1" xmlns="http://www.w3.org/2000/svg" xmlns:xlink="http://www.w3.org/1999/xlink">
    <title>chatbot-speech-bubble</title>
    <path d="M8 11c1.103 0 2-0.897 2-2S9.103 7 8 7 6 7.897 6 9s0.897 2 2 2zM8 8c0.552 0 1 0.449 1 1s-0.448 1-1 1-1-0.449-1-1 0.448-1 1-1zM16 7c-1.103 0-2 0.897-2 2s0.897 2 2 2 2-0.897 2-2-0.897-2-2-2zM16 10c-0.552 0-1-0.449-1-1s0.448-1 1-1 1 0.449 1 1-0.448 1-1 1zM17.373 14.167c0.184 0.206 0.166 0.521-0.04 0.706C17.236 14.959 14.919 17 12 17s-5.236-2.041-5.333-2.127c-0.206-0.184-0.224-0.5-0.04-0.706 0.183-0.207 0.498-0.226 0.706-0.041 0.021 0.019 2.137 1.873 4.667 1.873s4.646-1.854 4.667-1.873c0.207-0.185 0.522-0.167 0.706 0.041zM22.5 9H22V7.5C22 5.019 19.981 3 17.5 3h-5V0.5C12.5 0.224 12.276 0 12 0s-0.5 0.224-0.5 0.5V3h-5C4.019 3 2 5.019 2 7.5V9H1.5C0.673 9 0 9.673 0 10.5v4C0 15.327 0.673 16 1.5 16H2v0.5C2 18.981 4.019 21 6.5 21h8.849l4.089 2.726c0.276 0.184 0.595 0.277 0.914 0.277 0.267 0 0.534-0.065 0.778-0.195 0.537-0.288 0.87-0.844 0.87-1.453V16h0.5c0.827 0 1.5-0.673 1.5-1.5v-4C24 9.673 23.327 9 22.5 9zM1.5 15C1.225 15 1 14.776 1 14.5v-4C1 10.224 1.225 10 1.5 10H2v5zM21 22.355c0 0.243-0.128 0.457-0.342 0.571-0.217 0.115-0.465 0.101-0.666-0.032l-4.215-2.81C15.695 20.029 15.598 20 15.5 20h-9C4.57 20 3 18.43 3 16.5v-9C3 5.57 4.57 4 6.5 4h11C19.43 4 21 5.57 21 7.5zM23 14.5c0 0.276-0.225 0.5-0.5 0.5H22v-5h0.5c0.275 0 0.5 0.224 0.5 0.5z" />
</svg>