<svg id="cheap_stack_Layer_1" viewBox="0 0 24 24" fill="currentColor" width="32" height="32" data-name="Layer 1" xmlns="http://www.w3.org/2000/svg" xmlns:xlink="http://www.w3.org/1999/xlink">
    <title>cheap-stack</title>
    <path d="M23.002 20.337l-3.104 3.082c-0.373 0.37-0.868 0.577-1.395 0.581h-8e-3c-0.547-4e-3-1.046-0.205-1.407-0.563l-3.104-3.082c-0.195-0.195-0.197-0.511-2e-3-0.708 0.194-0.195 0.51-0.197 0.707-2e-3l3.104 3.082c0.065 0.064 0.135 0.112 0.206 0.15V0.5c0-0.276 0.224-0.5 0.5-0.5s0.5 0.224 0.5 0.5v22.339c0.066-0.04 0.137-0.073 0.193-0.13l3.104-3.082c0.197-0.195 0.514-0.192 0.707 2e-3 0.195 0.196 0.193 0.513-1e-3 0.708zM12 5v16c0 1.71-2.579 3-6 3s-6-1.29-6-3V5c0-1.71 2.579-3 6-3s6 1.29 6 3zM11 14.703C9.943 15.497 8.136 16 6 16s-3.943-0.503-5-1.297V17c0 0.944 2.139 2 5 2s5-1.056 5-2zM11 10.703C9.943 11.497 8.136 12 6 12s-3.943-0.503-5-1.297V13c0 0.944 2.139 2 5 2s5-1.056 5-2zM11 6.703C9.943 7.497 8.136 8 6 8S2.057 7.497 1 6.703V9c0 0.944 2.139 2 5 2s5-1.056 5-2zM1 5c0 0.944 2.139 2 5 2s5-1.056 5-2-2.139-2-5-2-5 1.056-5 2zM11 21v-2.297C9.943 19.497 8.136 20 6 20s-3.943-0.503-5-1.297V21c0 0.944 2.139 2 5 2s5-1.056 5-2z" />
</svg>