<svg id="cheap_Layer_1" viewBox="0 0 24 24" fill="currentColor" width="32" height="32" data-name="Layer 1" xmlns="http://www.w3.org/2000/svg" xmlns:xlink="http://www.w3.org/1999/xlink">
    <title>cheap</title>
    <path d="M11 20.5c0 0.276-0.224 0.5-0.5 0.5C4.71 21 0 16.29 0 10.5S4.71 0 10.5 0c1.846 0 3.662 0.486 5.25 1.405 0.239 0.138 0.321 0.444 0.182 0.683-0.139 0.238-0.444 0.321-0.683 0.182-1.437-0.831-3.079-1.271-4.75-1.271C5.262 1 1 5.262 1 10.5S5.262 20 10.5 20c0.276 0 0.5 0.224 0.5 0.5zM10.5 4C10.776 4 11 3.776 11 3.5S10.776 3 10.5 3C6.364 3 3 6.364 3 10.5S6.364 18 10.5 18c0.276 0 0.5-0.224 0.5-0.5S10.776 17 10.5 17C6.916 17 4 14.084 4 10.5S6.916 4 10.5 4zM23.92 18.713c-0.195-0.196-0.512-0.197-0.707-2e-3l-4.02 3.998c-0.057 0.056-0.127 0.089-0.194 0.13V0.5c0-0.276-0.224-0.5-0.5-0.5s-0.5 0.224-0.5 0.5v22.377c-0.071-0.038-0.141-0.085-0.206-0.149l-4.022-4.001c-0.195-0.194-0.512-0.193-0.707 2e-3-0.195 0.196-0.194 0.512 2e-3 0.707l4.022 4.001c0.361 0.359 0.861 0.559 1.415 0.563 0.525-4e-3 1.021-0.21 1.395-0.581l4.02-3.999c0.196-0.195 0.197-0.511 2e-3-0.707z" />
</svg>