<svg id="cheap_bill_Layer_1" viewBox="0 0 24 24" fill="currentColor" width="32" height="32" data-name="Layer 1" xmlns="http://www.w3.org/2000/svg" xmlns:xlink="http://www.w3.org/1999/xlink">
    <title>cheap-bill</title>
    <path d="M12 3.5c-1.654 0-3 1.346-3 3s1.346 3 3 3 3-1.346 3-3-1.346-3-3-3zM12 8.5c-1.103 0-2-0.897-2-2s0.897-2 2-2 2 0.897 2 2-0.897 2-2 2zM18 0H6C3.794 0 2 1.794 2 4v5c0 2.206 1.794 4 4 4h5.499l-0.015 9.847c-0.057-0.037-0.119-0.062-0.168-0.111L7.86 19.153c-0.191-0.198-0.508-0.204-0.707-0.013-0.199 0.192-0.205 0.508-0.013 0.707l3.462 3.589c0.388 0.388 0.899 0.583 1.411 0.583s1.028-0.195 1.422-0.588l3.426-3.586c0.191-0.2 0.184-0.516-0.016-0.707-0.199-0.191-0.515-0.184-0.707 0.016l-3.417 3.577c-0.07 0.069-0.154 0.112-0.237 0.156l0.015-9.888H18c2.206 0 4-1.794 4-4v-5c0-2.206-1.794-4-4-3.999zM21 9c0 1.654-1.346 3-3 3H6c-1.654 0-3-1.346-3-3V4c0-1.654 1.346-3 3-3h12c1.654 0 3 1.346 3 3zM7 9c0 0.552-0.448 1-1 1S5 9.552 5 9 5.448 8 6 8 7 8.448 7 9zM7 4c0 0.552-0.448 1-1 1S5 4.552 5 4 5.448 3 6 3 7 3.448 7 4zM19 9c0 0.552-0.448 1-1 1s-1-0.448-1-1 0.448-1 1-1 1 0.448 1 1zM19 4c0 0.552-0.448 1-1 1s-1-0.448-1-1 0.448-1 1-1 1 0.448 1 1z" />
</svg>