<svg id="cheap_dollar_Layer_1" viewBox="0 0 24 24" fill="currentColor" width="32" height="32" data-name="Layer 1" xmlns="http://www.w3.org/2000/svg" xmlns:xlink="http://www.w3.org/1999/xlink">
    <title>cheap-dollar</title>
    <path d="M23.918 19.42l-4.02 3.999C19.525 23.79 19.03 23.996 18.503 24c-0.555-4e-3-1.054-0.205-1.415-0.563l-4.022-4.001c-0.196-0.195-0.197-0.511-2e-3-0.707s0.512-0.196 0.707-2e-3l4.022 4.001c0.065 0.064 0.135 0.111 0.206 0.149V0.5c0-0.276 0.224-0.5 0.5-0.5s0.5 0.224 0.5 0.5v22.339c0.066-0.041 0.137-0.074 0.193-0.13l4.02-3.998c0.195-0.194 0.512-0.194 0.707 2e-3 0.194 0.196 0.194 0.512-1e-3 0.707zM10.5 20C5.262 20 1 15.738 1 10.5S5.262 1 10.5 1c1.671 0 3.313 0.439 4.75 1.271 0.078 0.046 0.164 0.067 0.25 0.067 0.172 0 0.34-0.089 0.433-0.25 0.139-0.239 0.057-0.545-0.183-0.683C14.162 0.486 12.346 0 10.5 0 4.71 0 0 4.71 0 10.5S4.71 21 10.5 21c0.276 0 0.5-0.224 0.5-0.5S10.776 20 10.5 20zM14 12.605c0-1.176-0.842-2.169-2.001-2.362L9.166 9.77C8.491 9.658 8 9.079 8 8.395 8 7.626 8.626 7 9.395 7H11.5C12.327 7 13 7.673 13 8.5 13 8.776 13.224 9 13.5 9S14 8.776 14 8.5C14 7.122 12.878 6 11.5 6H11V5.5C11 5.224 10.776 5 10.5 5S10 5.224 10 5.5V6H9.395C8.074 6 7 7.074 7 8.395c0 1.176 0.842 2.169 2.001 2.362l2.833 0.473C12.509 11.342 13 11.921 13 12.605 13 13.374 12.374 14 11.605 14H9.5C8.673 14 8 13.327 8 12.5 8 12.224 7.776 12 7.5 12S7 12.224 7 12.5C7 13.878 8.122 15 9.5 15H10v0.5c0 0.276 0.224 0.5 0.5 0.5s0.5-0.224 0.5-0.5V15h0.605C12.926 15 14 13.926 14 12.605z" />
</svg>