<svg id="check_in_calendar_Layer_1" viewBox="0 0 24 24" fill="currentColor" width="32" height="32" data-name="Layer 1" xmlns="http://www.w3.org/2000/svg" xmlns:xlink="http://www.w3.org/1999/xlink">
    <title>check-in-calendar</title>
    <path d="M0.5 15h9.179l-2.646-2.646c-0.195-0.195-0.195-0.512 0-0.707s0.512-0.195 0.707 0l2.84 2.84c0.271 0.271 0.42 0.63 0.42 1.014s-0.149 0.743-0.42 1.014l-2.84 2.839C7.642 19.452 7.514 19.5 7.386 19.5s-0.256-0.049-0.354-0.146c-0.195-0.195-0.195-0.512 0-0.707l2.646-2.646H0.5c-0.276 0-0.5-0.224-0.5-0.5s0.224-0.5 0.5-0.501zM24 6.5v13c0 2.481-2.019 4.5-4.5 4.5h-15C2.019 24 0 21.981 0 19.5v-1C0 18.224 0.224 18 0.5 18S1 18.224 1 18.5v1C1 21.43 2.57 23 4.5 23h15c1.93 0 3.5-1.57 3.5-3.5V9H1v3.5C1 12.776 0.776 13 0.5 13S0 12.776 0 12.5v-6C0 4.019 2.019 2 4.5 2H6V0.5C6 0.224 6.224 0 6.5 0S7 0.224 7 0.5V2h10V0.5C17 0.224 17.224 0 17.5 0S18 0.224 18 0.5V2h1.5C21.981 2 24 4.019 24 6.5zM23 8V6.5C23 4.57 21.43 3 19.5 3h-15C2.57 3 1 4.57 1 6.5V8z" />
</svg>