<svg id="check_double_Layer_1" viewBox="0 0 24 24" fill="currentColor" width="32" height="32" data-name="Layer 1" xmlns="http://www.w3.org/2000/svg" xmlns:xlink="http://www.w3.org/1999/xlink">
    <title>check-double</title>
    <path d="M23.854 8.353 10.266 21.975C9.604 22.636 8.726 23 7.791 23h-7e-3c-0.938-2e-3-1.818-0.37-2.479-1.035l-5.157-5.11c-0.196-0.194-0.197-0.511-3e-3-0.707 0.194-0.195 0.511-0.198 0.707-4e-3l5.16 5.112c0.475 0.479 1.104 0.741 1.773 0.743h5e-3c0.668 0 1.295-0.26 1.768-0.732L23.146 7.646c0.195-0.196 0.512-0.195 0.707 0 0.196 0.195 0.196 0.512 1e-3 0.707zM5.734 12.063C6.332 12.666 7.128 12.999 7.976 13h7e-3c0.846 0 1.641-0.33 2.24-0.929L20.355 1.852c0.194-0.196 0.193-0.513-3e-3-0.707s-0.513-0.193-0.707 3e-3L9.515 11.365C9.106 11.775 8.562 12 7.983 12h-4e-3c-0.581 0-1.126-0.229-1.532-0.638L1.858 6.651c-0.193-0.198-0.509-0.202-0.707-9e-3-0.198 0.192-0.202 0.509-9e-3 0.707z" />
</svg>