<svg id="check_out_calendar_Layer_1" viewBox="0 0 24 24" fill="currentColor" width="32" height="32" data-name="Layer 1" xmlns="http://www.w3.org/2000/svg" xmlns:xlink="http://www.w3.org/1999/xlink">
    <title>check-out-calendar</title>
    <path d="M3.967 12.354 1.321 15h9.18c0.276 0 0.5 0.224 0.5 0.5s-0.224 0.5-0.5 0.5H1.32l2.646 2.646c0.195 0.195 0.195 0.512 0 0.707-0.098 0.098-0.226 0.146-0.354 0.146s-0.256-0.049-0.354-0.146L0.465 16.56c-0.228-0.228-0.467-0.561-0.467-1.061s0.239-0.833 0.467-1.061l2.793-2.793c0.195-0.195 0.512-0.195 0.707 0s0.195 0.512 2e-3 0.709zM24 6.5v13c0 2.481-2.019 4.5-4.5 4.5h-15C2.019 24 0 21.981 0 19.5 0 19.224 0.224 19 0.5 19S1 19.224 1 19.5C1 21.43 2.57 23 4.5 23h15c1.93 0 3.5-1.57 3.5-3.5V9H1v2.5C1 11.776 0.776 12 0.5 12S0 11.776 0 11.5v-5C0 4.019 2.019 2 4.5 2H6V0.5C6 0.224 6.224 0 6.5 0S7 0.224 7 0.5V2h10V0.5C17 0.224 17.224 0 17.5 0S18 0.224 18 0.5V2h1.5C21.981 2 24 4.019 24 6.5zM23 8V6.5C23 4.57 21.43 3 19.5 3h-15C2.57 3 1 4.57 1 6.5V8z" />
</svg>