<svg id="cheeseburger_Layer_1" viewBox="0 0 24 24" fill="currentColor" width="32" height="32" data-name="Layer 1" xmlns="http://www.w3.org/2000/svg" xmlns:xlink="http://www.w3.org/1999/xlink">
    <title>cheeseburger</title>
    <path d="M3 13h18c1.103 0 2-0.897 2-2.001C22.985 4.831 18.153 0 12 0 5.935 0 1 4.935 1 11c0 1.103 0.897 2 2 2zM12 1c5.594 0 9.987 4.393 10 10 0 0.551-0.449 1-1 1H3c-0.551 0-1-0.449-1-1C2 5.486 6.486 1 12 1zM22.5 15h-21C1.224 15 1 15.224 1 15.5S1.224 16 1.5 16h9.332l3.249 3.395c0.425 0.425 0.982 0.637 1.54 0.637s1.116-0.212 1.54-0.637L20.556 16H22.5c0.276 0 0.5-0.224 0.5-0.5S22.776 15 22.5 15zM16.454 18.688c-0.459 0.46-1.207 0.459-1.658 8e-3L12.216 16h6.925zM23 19.5c0 2.481-2.019 4.5-4.5 4.5h-13C3.019 24 1 21.981 1 19.5 1 18.673 1.673 18 2.5 18h8.003c0.276 0 0.5 0.225 0.5 0.501s-0.224 0.5-0.5 0.5H2.5c-0.276 0-0.5 0.223-0.5 0.499 0 1.93 1.57 3.5 3.5 3.5h13c1.93 0 3.5-1.57 3.5-3.5 0-0.276-0.224-0.5-0.5-0.5h-0.996c0 0 0 0 0 0-0.276 0-0.5-0.224-0.5-0.5s0.223-0.5 0.5-0.5h0.997c0.828 0 1.5 0.672 1.499 1.5z" />
</svg>