<svg id="cheese_Layer_1" viewBox="0 0 24 24" fill="currentColor" width="32" height="32" data-name="Layer 1" xmlns="http://www.w3.org/2000/svg" xmlns:xlink="http://www.w3.org/1999/xlink">
    <title>cheese</title>
    <path d="M17.5 14c-1.378 0-2.5 1.122-2.5 2.5s1.122 2.5 2.5 2.5 2.5-1.122 2.5-2.5-1.122-2.5-2.5-2.5zM17.5 18c-0.827 0-1.5-0.673-1.5-1.5s0.673-1.5 1.5-1.5 1.5 0.673 1.5 1.5-0.673 1.5-1.5 1.5z" />
    <path d="M7.5 11C5.57 11 4 12.57 4 14.5S5.57 18 7.5 18 11 16.43 11 14.5 9.43 11 7.5 11zM7.5 17C6.122 17 5 15.878 5 14.5S6.122 12 7.5 12 10 13.122 10 14.5 8.878 17 7.5 17z" />
    <path d="M22.103 6.896 13.512 0.804c-1.663-1.108-3.83-1.068-5.393 0.1-5.452 4.076-7.069 9.63-7.135 9.864-2e-3 7e-3-4e-3 0.015-5e-3 0.022C0.494 12.086 0 13.917 0 15.999c0 2.372 0.641 4.42 1.179 5.719 0.573 1.386 1.918 2.281 3.428 2.281H10c0.649 0 1-0.515 1-1 0-0.564 0.24-1.105 0.659-1.483 0.424-0.384 0.98-0.566 1.549-0.506C14.247 21.114 15 21.95 15 22.999c0 0.485 0.351 1 1 1h4c2.206 0 4-1.794 4-4v-9.433c0-1.456-0.709-2.828-1.897-3.67zM8.718 1.705c0.63-0.471 1.388-0.707 2.151-0.707 0.72 0 1.446 0.21 2.076 0.63l8.579 6.084C21.649 7.801 21.767 7.897 21.878 8H4.607C4.083 8 3.578 8.108 3.119 8.307 4.13 6.398 5.885 3.823 8.718 1.705zM23 20c0 1.654-1.346 3-3 3h-4c0-1.574-1.132-2.829-2.692-2.984-0.101-0.01-0.201-0.015-0.301-0.015-0.744 0-1.466 0.274-2.019 0.774C10.36 21.343 10 22.154 10 23H4.607c-1.104 0-2.086-0.653-2.504-1.663C1.6 20.121 1 18.208 1 16s0.6-4.121 1.103-5.337C2.521 9.653 3.504 9 4.607 9h18.021c0.241 0.48 0.371 1.016 0.371 1.567z" />
</svg>