<svg id="cherry_Layer_1" viewBox="0 0 24 24" fill="currentColor" width="32" height="32" data-name="Layer 1" xmlns="http://www.w3.org/2000/svg" xmlns:xlink="http://www.w3.org/1999/xlink">
    <title>cherry</title>
    <path d="M20.814 13c-1.172 0-1.785 0.357-2.277 0.645-0.198 0.115-0.365 0.212-0.549 0.276-0.164-4.186-2.085-8.913-5.584-13.714-0.189-0.26-0.619-0.26-0.809 0-3.499 4.801-5.42 9.529-5.584 13.714-0.183-0.064-0.351-0.161-0.549-0.276C4.97 13.358 4.357 13 3.185 13 1.863 13-1e-3 14.361-1e-3 17.389-1e-3 21.035 2.803 24 6.249 24c2.578 0 4.796-1.659 5.75-4.021 0.954 2.362 3.172 4.021 5.75 4.021 3.446 0 6.25-2.966 6.25-6.611 0-3.027-1.863-4.389-3.185-4.389zM12 1.359c3.107 4.418 4.82 8.726 4.986 12.534-0.115-0.056-0.222-0.132-0.352-0.225-0.418-0.298-0.938-0.669-2.135-0.669-0.963 0-1.933 0.629-2.5 1.851-0.567-1.222-1.537-1.851-2.5-1.851-1.197 0-1.717 0.371-2.135 0.669-0.13 0.093-0.237 0.169-0.352 0.225C7.178 10.085 8.891 5.777 12 1.359zM6.25 23C3.355 23 1 20.482 1 17.389 1 15.052 2.278 14 3.186 14c0.901 0 1.325 0.247 1.774 0.508C5.356 14.738 5.804 15 6.5 15c0.722 0 1.106-0.274 1.446-0.517C8.294 14.234 8.623 14 9.5 14c0.97 0 2 1.188 2 3.389C11.5 20.483 9.145 23 6.25 23zM17.75 23c-2.895 0-5.25-2.518-5.25-5.611 0-2.201 1.03-3.389 2-3.389 0.877 0 1.206 0.234 1.554 0.483C16.394 14.725 16.779 15 17.5 15c0.696 0 1.145-0.262 1.54-0.492C19.489 14.247 19.913 14 20.814 14 21.721 14 23 15.052 23 17.389 23 20.483 20.645 23 17.75 23z" />
</svg>