<svg id="chess_queen_alt_Layer_1" viewBox="0 0 24 24" fill="currentColor" width="32" height="32" data-name="Layer 1" xmlns="http://www.w3.org/2000/svg" xmlns:xlink="http://www.w3.org/1999/xlink">
    <title>chess-queen-alt</title>
    <path d="M19.5 19h-0.665c-0.542-1.333-2.662-6.795-2.825-11h1.49C17.776 8 18 7.776 18 7.5S17.776 7 17.5 7h-1.241l1.599-3.716c0.293-0.65 0.116-1.387-0.439-1.833-0.558-0.445-1.316-0.457-1.82-0.07L14.34 2.058 13.146 0.483c-0.607-0.621-1.643-0.669-2.332 0.048L9.659 2.058 8.466 1.421c-0.57-0.426-1.327-0.414-1.884 0.03C6.026 1.897 5.85 2.634 6.14 3.275L7.742 7H6.501c-0.276 0-0.5 0.224-0.5 0.5S6.225 8 6.501 8h1.49c-0.163 4.205-2.283 9.667-2.825 11H4.501c-1.379 0-2.5 1.121-2.5 2.5s1.121 2.5 2.5 2.5h15c1.379 0 2.5-1.121 2.5-2.5S20.88 19 19.5 19zM7.054 2.872C6.895 2.519 7.131 2.293 7.207 2.231 7.282 2.17 7.556 1.99 7.929 2.261L9.564 3.14c0.214 0.115 0.486 0.059 0.635-0.139l1.371-1.82c0.229-0.234 0.674-0.187 0.82-0.048l1.412 1.868c0.148 0.197 0.422 0.254 0.635 0.139l1.698-0.919c0.308-0.233 0.582-0.052 0.658 0.01s0.312 0.288 0.15 0.649l-1.772 4.119H8.829zM8.991 8h6.018c0.146 4.095 2.015 9.163 2.745 11H6.245c0.73-1.837 2.599-6.905 2.746-11zM19.5 23h-15C3.673 23 3 22.327 3 21.5S3.673 20 4.5 20h15c0.827 0 1.5 0.673 1.5 1.5S20.327 23 19.5 23z" />
</svg>