<svg id="chess_board_Layer_1" viewBox="0 0 24 24" fill="currentColor" width="32" height="32" data-name="Layer 1" xmlns="http://www.w3.org/2000/svg" xmlns:xlink="http://www.w3.org/1999/xlink">
    <title>chess-board</title>
    <path d="M19.5 0h-15C2.019 0 0 2.019 0 4.5v15C0 21.981 2.019 24 4.5 24h15c2.481 0 4.5-2.019 4.5-4.5v-15C24 2.019 21.981 0 19.5 0zM23 15h-2v-2h2zM23 7h-2V5h2zM17 1h2v2h-2zM9 1h2v2H9zM3 1.338V3H1.338C1.684 2.274 2.273 1.684 3 1.338zM1 17h2v2H1zM1 9h2v2H1zM7 23H5v-2h2zM15 23h-2v-2h2zM16 23v-2.5c0-0.276-0.224-0.5-0.5-0.5h-3c-0.276 0-0.5 0.224-0.5 0.5V23H8v-2.5C8 20.224 7.776 20 7.5 20h-3C4.224 20 4 20.224 4 20.5v2.464C2.47 22.744 1.256 21.53 1.036 20H3.5C3.776 20 4 19.776 4 19.5v-3C4 16.224 3.776 16 3.5 16H1v-4h2.5C3.776 12 4 11.776 4 11.5v-3C4 8.224 3.776 8 3.5 8H1V4.5C1 4.33 1.012 4.163 1.036 4H3.5C3.776 4 4 3.776 4 3.5V1.036C4.163 1.013 4.33 1 4.5 1H8v2.5C8 3.776 8.224 4 8.5 4h3C11.776 4 12 3.776 12 3.5V1h4v2.5C16 3.776 16.224 4 16.5 4h3C19.776 4 20 3.776 20 3.5V1.036C21.53 1.256 22.744 2.47 22.964 4H20.5C20.224 4 20 4.224 20 4.5v3C20 7.776 20.224 8 20.5 8H23v4h-2.5c-0.276 0-0.5 0.224-0.5 0.5v3c0 0.276 0.224 0.5 0.5 0.5H23v3.5c0 0.17-0.012 0.337-0.036 0.5H20.5c-0.276 0-0.5 0.224-0.5 0.5v2.464C19.837 22.987 19.67 23 19.5 23zM21 22.662V21h1.662c-0.346 0.726-0.935 1.316-1.662 1.662zM4.5 8h3C7.776 8 8 7.776 8 7.5v-3C8 4.224 7.776 4 7.5 4h-3C4.224 4 4 4.224 4 4.5v3C4 7.776 4.224 8 4.5 8zM5 5h2v2H5zM12.5 8h3C15.776 8 16 7.776 16 7.5v-3C16 4.224 15.776 4 15.5 4h-3C12.224 4 12 4.224 12 4.5v3C12 7.776 12.224 8 12.5 8zM13 5h2v2h-2zM8 11.5C8 11.776 8.224 12 8.5 12h3c0.276 0 0.5-0.224 0.5-0.5v-3C12 8.224 11.776 8 11.5 8h-3C8.224 8 8 8.224 8 8.5zM9 9h2v2H9zM8 12.5C8 12.224 7.776 12 7.5 12h-3C4.224 12 4 12.224 4 12.5v3C4 15.776 4.224 16 4.5 16h3C7.776 16 8 15.776 8 15.5zM7 15H5v-2h2zM16 12.5c0-0.276-0.224-0.5-0.5-0.5h-3c-0.276 0-0.5 0.224-0.5 0.5v3c0 0.276 0.224 0.5 0.5 0.5h3c0.276 0 0.5-0.224 0.5-0.5zM15 15h-2v-2h2zM16 11.5c0 0.276 0.224 0.5 0.5 0.5h3c0.276 0 0.5-0.224 0.5-0.5v-3C20 8.224 19.776 8 19.5 8h-3C16.224 8 16 8.224 16 8.5zM17 9h2v2h-2zM11.5 16h-3C8.224 16 8 16.224 8 16.5v3C8 19.776 8.224 20 8.5 20h3c0.276 0 0.5-0.224 0.5-0.5v-3c0-0.276-0.224-0.5-0.5-0.5zM11 19H9v-2h2zM20 19.5v-3c0-0.276-0.224-0.5-0.5-0.5h-3c-0.276 0-0.5 0.224-0.5 0.5v3c0 0.276 0.224 0.5 0.5 0.5h3c0.276 0 0.5-0.224 0.5-0.5zM19 19h-2v-2h2z" />
</svg>