<svg id="chess_Layer_1" viewBox="0 0 24 24" fill="currentColor" width="32" height="32" data-name="Layer 1" xmlns="http://www.w3.org/2000/svg" xmlns:xlink="http://www.w3.org/1999/xlink">
    <title>chess</title>
    <path d="M24 21.5c0 1.379-1.122 2.5-2.5 2.5h-5c-0.276 0-0.5-0.224-0.5-0.5s0.224-0.5 0.5-0.5h5c0.827 0 1.5-0.673 1.5-1.5 0-0.864-0.621-1.481-1.511-1.5H16.5c-0.276 0-0.5-0.224-0.5-0.5s0.224-0.5 0.5-0.5H21v-8h-5v6.5c0 0.276-0.224 0.5-0.5 0.5S15 17.776 15 17.5v-6.586c-0.582-0.206-1-0.762-1-1.414v-1C14 8.224 14.224 8 14.5 8S15 8.224 15 8.5v1c0 0.276 0.224 0.5 0.5 0.5H18V8.5C18 8.224 18.224 8 18.5 8S19 8.224 19 8.5V10h2.5c0.276 0 0.5-0.224 0.5-0.5v-1C22 8.224 22.224 8 22.5 8S23 8.224 23 8.5v1c0 0.652-0.418 1.208-1 1.414v8.14c1.187 0.233 2 1.197 2 2.446zM15.1 21.5c0 1.379-1.122 2.5-2.5 2.5H3c-1.387 0-3-1.092-3-2.5 0-1.252 0.924-2.291 2.126-2.472C2.511 17.789 3.886 13.106 3.994 9H3.501c-0.276 0-0.5-0.224-0.5-0.5S3.225 8 3.501 8h0.194L2.208 5.003C1.896 4.339 1.943 3.585 2.331 2.974 2.718 2.364 3.381 2 4.103 2H7V0.5C7 0.224 7.224 0 7.5 0S8 0.224 8 0.5V2h3c0.723 0 1.386 0.364 1.773 0.975s0.435 1.365 0.126 2.019L11.421 8H11.6c0.276 0 0.5 0.224 0.5 0.5S11.876 9 11.6 9h-0.492c0.111 4.1 1.482 8.787 1.867 10.028 1.201 0.181 2.125 1.22 2.125 2.472zM3.108 4.568 4.81 8h5.497l1.691-3.44c0.16-0.34 0.136-0.725-0.07-1.049C11.722 3.186 11.384 3 10.999 3H4.103C3.719 3 3.381 3.186 3.175 3.51s-0.23 0.71-0.067 1.058zM4.994 9c-0.097 3.982-1.314 8.362-1.812 10h8.737c-0.496-1.638-1.711-6.026-1.812-10zM14.1 21.5c0-0.827-0.673-1.5-1.5-1.5H2.5C1.673 20 1 20.673 1 21.5 1 22.272 2.127 23 3 23h9.6c0.827 0 1.5-0.673 1.5-1.5z" />
</svg>