<svg id="chess_piece_Layer_1" viewBox="0 0 24 24" fill="currentColor" width="32" height="32" data-name="Layer 1" xmlns="http://www.w3.org/2000/svg" xmlns:xlink="http://www.w3.org/1999/xlink">
    <title>chess-piece</title>
    <path d="M20.5 23H19v-2.174c0-0.916-0.372-1.812-1.02-2.458-1.973-1.964-2.89-4.569-2.966-8.368h1.485c0.276 0 0.5-0.224 0.5-0.5S16.775 9 16.499 9h-1.84c0.816-0.708 1.34-1.724 1.34-2.864 0-1.339-1.234-3.81-2.111-5.136-0.414-0.626-1.12-1-1.889-1s-1.476 0.374-1.889 1C9.233 2.326 7.999 4.797 7.999 6.136c0 1.141 0.524 2.156 1.34 2.864h-1.84c-0.276 0-0.5 0.224-0.5 0.5s0.224 0.5 0.5 0.5h1.485c-0.075 3.799-0.992 6.404-2.966 8.368-0.647 0.646-1.019 1.542-1.019 2.458V23h-1.5c-0.276 0-0.5 0.224-0.5 0.5s0.224 0.5 0.5 0.5h17c0.276 0 0.5-0.224 0.5-0.5S20.775 23 20.5 23zM9 6.136c0-0.967 1.025-3.192 1.946-4.585C11.174 1.206 11.568 1 12 1s0.827 0.206 1.055 0.551C13.975 2.944 15 5.169 15 6.136 15 7.715 13.654 9 12 9S9 7.715 9 6.136zM14.015 10c0.077 4.041 1.067 6.845 3.19 9H6.794c2.124-2.155 3.114-4.959 3.191-9zM6 23v-2.174C6 20.542 6.058 20.264 6.153 20h11.694C17.941 20.265 18 20.543 18 20.826V23z" />
</svg>