<svg id="chess_clock_alt_Layer_1" viewBox="0 0 24 24" fill="currentColor" width="32" height="32" data-name="Layer 1" xmlns="http://www.w3.org/2000/svg" xmlns:xlink="http://www.w3.org/1999/xlink">
    <title>chess-clock-alt</title>
    <path d="M19.5 5H19V2h2.5C21.776 2 22 1.776 22 1.5S21.776 1 21.5 1h-6C15.224 1 15 1.224 15 1.5S15.224 2 15.5 2H18v3H4.5C2.019 5 0 7.019 0 9.5v7c0 1.956 1.254 3.624 3 4.243V22.5C3 22.776 3.224 23 3.5 23S4 22.776 4 22.5v-1.528C4.164 20.99 4.331 21 4.5 21h15c0.169 0 0.336-0.01 0.5-0.028V22.5c0 0.276 0.224 0.5 0.5 0.5s0.5-0.224 0.5-0.5v-1.757c1.746-0.619 3-2.287 3-4.243v-7C24 7.019 21.981 5 19.5 5zM23 16.5c0 1.93-1.57 3.5-3.5 3.5h-15C2.57 20 1 18.43 1 16.5v-7C1 7.57 2.57 6 4.5 6h15C21.43 6 23 7.57 23 9.5zM2 3.5C2 3.224 2.224 3 2.5 3h6C8.776 3 9 3.224 9 3.5S8.776 4 8.5 4h-6C2.224 4 2 3.776 2 3.5zM17 9c-2.206 0-4 1.794-4 4s1.794 4 4 4 4-1.794 4-4-1.794-4-4-4zM17 16c-1.484 0-2.719-1.083-2.958-2.5H16.5c0.276 0 0.5-0.224 0.5-0.5s-0.224-0.5-0.5-0.5h-2.458C14.281 11.083 15.516 10 17 10c1.654 0 3 1.346 3 3s-1.346 3-3 3zM7 9c-2.206 0-4 1.794-4 4 0 2.5 2 4 4 4 2.206 0 4-1.794 4-4S9.206 9 7 9zM7 16c-0.647 0-1.246-0.207-1.737-0.556L7 13.707C7.195 13.512 7.195 13.195 7 13s-0.512-0.195-0.707 0l-1.737 1.737C4.206 14.247 4 13.647 4 13c0-1.654 1.346-3 3-3s3 1.346 3 3-1.346 3-3 3z" />
</svg>