<svg id="chess_bishop_Layer_1" viewBox="0 0 24 24" fill="currentColor" width="32" height="32" data-name="Layer 1" xmlns="http://www.w3.org/2000/svg" xmlns:xlink="http://www.w3.org/1999/xlink">
    <title>chess-bishop</title>
    <path d="M19.5 23h-3.38c2.896-1.497 4.88-4.521 4.88-8 0-4.583-5.789-9.608-7.932-11.31C13.627 3.335 14 2.711 14 2c0-1.103-0.897-2-2-2s-2 0.897-2 2c0 0.682 0.343 1.284 0.865 1.645C8.639 5.18 3 9.602 3 15c0 3.479 1.984 6.503 4.88 8H4.5C4.224 23 4 23.224 4 23.5S4.224 24 4.5 24h15c0.276 0 0.5-0.224 0.5-0.5S19.776 23 19.5 23zM12 1c0.551 0 1 0.449 1 1s-0.449 1-1 1-1-0.449-1-1 0.449-1 1-1zM4 15c0-5.375 6.526-9.943 7.976-10.892 0.692 0.532 2.596 2.053 4.375 3.989l-4.235 5.082c-0.177 0.212-0.148 0.527 0.064 0.704 0.094 0.078 0.207 0.116 0.32 0.116 0.144 0 0.286-0.062 0.385-0.18l4.137-4.965c1.619 1.906 2.979 4.112 2.979 6.145 0 4.411-3.589 8-8 8S4.001 19.41 4 15z" />
</svg>