<svg id="chess_queen_Layer_1" viewBox="0 0 24 24" fill="currentColor" width="32" height="32" data-name="Layer 1" xmlns="http://www.w3.org/2000/svg" xmlns:xlink="http://www.w3.org/1999/xlink">
    <title>chess-queen</title>
    <path d="M19.9 10.831h-2e-3c0 0-8e-3-0.011 2e-3 0zM23.951 11.925 20.669 22.999h0.83c0.276 0 0.5 0.224 0.5 0.5s-0.224 0.5-0.5 0.5H2.5c-0.276 0-0.5-0.224-0.5-0.5s0.224-0.5 0.5-0.5h0.83L0.053 11.945c-0.136-0.536 5e-3-1.073 0.372-1.458 0.374-0.393 0.915-0.563 1.453-0.455 0.478 0.096 0.931 0.229 1.354 0.394 0.01-0.064 0.031-0.126 0.067-0.185 1.006-1.663 3.11-4.283 6.672-5.034C9.375 4.658 9 3.872 9 3c0-1.654 1.346-3 3-3s3 1.346 3 3c0 0.872-0.375 1.659-0.971 2.207 3.562 0.75 5.666 3.371 6.672 5.034 0.035 0.058 0.057 0.121 0.067 0.185 0.423-0.165 0.876-0.297 1.354-0.394 0.531-0.108 1.078 0.062 1.453 0.455 0.366 0.385 0.507 0.923 0.376 1.438zM10 3c0 1.103 0.897 2 2 2s2-0.897 2-2-0.897-2-2-2-2 0.897-2 2zM4.1 10.831c1.089 0.602 1.917 1.451 2.404 2.463C7.433 11.356 9.547 10 12 10s4.567 1.356 5.496 3.294c0.487-1.011 1.314-1.859 2.402-2.462 5e-3 6e-3 0.01 0.013 2e-3-1e-3C18.825 9.054 16.321 6 12 6s-6.824 3.054-7.9 4.831zM22.85 11.176c-0.136-0.143-0.332-0.203-0.531-0.164C19.655 11.549 18 13.268 18 15.499c0 0.276-0.224 0.5-0.5 0.5s-0.5-0.224-0.5-0.5c0-2.481-2.243-4.5-5-4.5s-5 2.019-5 4.5c0 0.276-0.224 0.5-0.5 0.5S6 15.775 6 15.499c0-2.231-1.655-3.95-4.319-4.487-0.197-0.037-0.395 0.021-0.531 0.164-0.13 0.137-0.178 0.32-0.132 0.504l3.356 11.319h15.253l3.361-11.339c0.041-0.164-7e-3-0.348-0.138-0.484z" />
</svg>