<svg id="chess_rook_alt_Layer_1" viewBox="0 0 24 24" fill="currentColor" width="32" height="32" data-name="Layer 1" xmlns="http://www.w3.org/2000/svg" xmlns:xlink="http://www.w3.org/1999/xlink">
    <title>chess-rook-alt</title>
    <path d="M19.5 19H19V8.95c1.14-0.232 2-1.243 2-2.45v-4C21 1.121 19.878 0 18.5 0h-1c-0.817 0-1.543 0.394-2 1.002C15.043 0.394 14.317 0 13.5 0h-3c-0.817 0-1.543 0.394-2 1.002C8.043 0.394 7.317 0 6.5 0h-1C4.122 0 3 1.121 3 2.5v4c0 1.207 0.86 2.218 2 2.45V19H4.5C3.122 19 2 20.121 2 21.5S3.122 24 4.5 24h15c1.378 0 2.5-1.121 2.5-2.5S20.878 19 19.5 19zM5.5 8C4.673 8 4 7.327 4 6.5v-4C4 1.673 4.673 1 5.5 1h1C7.327 1 8 1.673 8 2.5v2C8 4.776 8.224 5 8.5 5S9 4.776 9 4.5v-2C9 1.673 9.673 1 10.5 1h3C14.327 1 15 1.673 15 2.5v2C15 4.776 15.224 5 15.5 5S16 4.776 16 4.5v-2C16 1.673 16.673 1 17.5 1h1C19.327 1 20 1.673 20 2.5v4C20 7.327 19.327 8 18.5 8 18.224 8 18 8.224 18 8.5V19H6V8.5C6 8.224 5.776 8 5.5 8zM19.5 23h-15C3.673 23 3 22.327 3 21.5S3.673 20 4.5 20h15c0.827 0 1.5 0.673 1.5 1.5S20.327 23 19.5 23zM11 13h2c0.551 0 1-0.448 1-1v-2c0-1.103-0.897-2-2-2s-2 0.897-2 2v2c0 0.552 0.449 1 1 1zM11 10c0-0.552 0.449-1 1-1s1 0.448 1 1v2h-2z" />
</svg>