<svg id="chess_rook_Layer_1" viewBox="0 0 24 24" fill="currentColor" width="32" height="32" data-name="Layer 1" xmlns="http://www.w3.org/2000/svg" xmlns:xlink="http://www.w3.org/1999/xlink">
    <title>chess-rook</title>
    <path d="M24 7.5v-6C24 0.673 23.327 0 22.5 0h-3C18.673 0 18 0.673 18 1.5V4h-3V1.5C15 0.673 14.327 0 13.5 0h-3C9.673 0 9 0.673 9 1.5V4H6V1.5C6 0.673 5.327 0 4.5 0h-3C0.673 0 0 0.673 0 1.5v6c0 1.76 1.306 3.221 3 3.465V23H1.5C1.224 23 1 23.224 1 23.5S1.224 24 1.5 24h21c0.276 0 0.5-0.224 0.5-0.5S22.776 23 22.5 23H21V10.965c1.694-0.244 3-1.705 3-3.465zM4 23V10.5C4 10.224 3.776 10 3.5 10 2.121 10 1 8.879 1 7.5v-6C1 1.225 1.225 1 1.5 1h3C4.775 1 5 1.225 5 1.5v3C5 4.776 5.224 5 5.5 5h4C9.776 5 10 4.776 10 4.5v-3C10 1.225 10.225 1 10.5 1h3C13.775 1 14 1.225 14 1.5v3C14 4.776 14.224 5 14.5 5h4C18.776 5 19 4.776 19 4.5v-3C19 1.225 19.225 1 19.5 1h3C22.775 1 23 1.225 23 1.5v6c0 1.379-1.121 2.5-2.5 2.5-0.276 0-0.5 0.224-0.5 0.5V23zM12 10c-1.654 0-3 1.346-3 3v3.5C9 16.776 9.224 17 9.5 17h5c0.276 0 0.5-0.224 0.5-0.5V13c0-1.654-1.346-3-3-3zM14 16h-4v-3c0-1.103 0.897-2 2-2s2 0.897 2 2z" />
</svg>