<svg id="chess_king_alt_Layer_1" viewBox="0 0 24 24" fill="currentColor" width="32" height="32" data-name="Layer 1" xmlns="http://www.w3.org/2000/svg" xmlns:xlink="http://www.w3.org/1999/xlink">
    <title>chess-king-alt</title>
    <path d="M19.5 19h-0.678c-0.533-1.199-2.53-5.929-2.793-10H17.5C17.776 9 18 8.776 18 8.5S17.776 8 17.5 8h-1.313l1.575-2.436c0.366-0.778 0.31-1.678-0.151-2.404S16.361 2 15.501 2h-3V0.5c0-0.276-0.224-0.5-0.5-0.5s-0.5 0.224-0.5 0.5V2H8.503c-0.86 0-1.649 0.434-2.11 1.16-0.461 0.727-0.518 1.626-0.119 2.464L7.816 8H6.501c-0.276 0-0.5 0.224-0.5 0.5S6.225 9 6.501 9h1.471c-0.263 4.071-2.26 8.801-2.793 10H4.501c-1.378 0-2.5 1.121-2.5 2.5s1.122 2.5 2.5 2.5h15c1.379 0 2.5-1.121 2.5-2.5S20.88 19 19.5 19zM7.146 5.139C6.926 4.672 6.96 4.133 7.237 3.697c0.276-0.436 0.75-0.696 1.266-0.696h6.998c0.517 0 0.989 0.261 1.267 0.696 0.276 0.437 0.311 0.976 0.123 1.383 0 0-1.856 2.875-1.869 2.921H8.983C8.97 7.955 7.147 5.14 7.146 5.139zM8.974 9h6.053c0.235 3.923 1.972 8.307 2.703 10H6.271c0.731-1.693 2.468-6.077 2.703-10zM19.5 23h-15C3.673 23 3 22.327 3 21.5S3.673 20 4.5 20h15c0.827 0 1.5 0.673 1.5 1.5S20.327 23 19.5 23z" />
</svg>