<svg id="chevron_double_dots_down_Layer_1" viewBox="0 0 24 24" fill="currentColor" width="32" height="32" data-name="Layer 1" xmlns="http://www.w3.org/2000/svg" xmlns:xlink="http://www.w3.org/1999/xlink">
    <title>chevron-double-dots-down</title>
    <path d="M11 9c0-0.552 0.448-1 1-1s1 0.448 1 1-0.448 1-1 1-1-0.448-1-1zM12 14c0.552 0 1-0.448 1-1s-0.448-1-1-1-1 0.448-1 1 0.448 1 1 1zM12 6c0.552 0 1-0.448 1-1s-0.448-1-1-1-1 0.448-1 1 0.448 1 1 1zM12 2c0.552 0 1-0.448 1-1s-0.448-1-1-1-1 0.448-1 1 0.448 1 1 1zM22.854 13.889c-0.195-0.195-0.512-0.195-0.707 0l-8.379 8.379c-0.944 0.945-2.591 0.945-3.535 0l-8.379-8.379c-0.195-0.195-0.512-0.195-0.707 0s-0.195 0.512 0 0.707l8.379 8.379c1.302 1.358 3.647 1.358 4.949 0l8.379-8.379c0.195-0.195 0.195-0.512 0-0.707zM10.372 18.322c0.898 0.897 2.36 0.897 3.258 0l6.596-6.597c0.195-0.195 0.195-0.512 0-0.707s-0.512-0.195-0.707 0l-6.596 6.597c-0.508 0.508-1.336 0.508-1.844 0l-6.596-6.597c-0.195-0.195-0.512-0.195-0.707 0s-0.195 0.512 0 0.707z" />
</svg>