<svg id="chevron_double_dots_up_Layer_1" viewBox="0 0 24 24" fill="currentColor" width="32" height="32" data-name="Layer 1" xmlns="http://www.w3.org/2000/svg" xmlns:xlink="http://www.w3.org/1999/xlink">
    <title>chevron-double-dots-up</title>
    <path d="M13 15c0 0.552-0.448 1-1 1s-1-0.448-1-1 0.448-1 1-1 1 0.448 1 1zM12 10c-0.552 0-1 0.448-1 1s0.448 1 1 1 1-0.448 1-1-0.448-1-1-1zM12 18c-0.552 0-1 0.448-1 1s0.448 1 1 1 1-0.448 1-1-0.448-1-1-1zM12 22c-0.552 0-1 0.448-1 1s0.448 1 1 1 1-0.448 1-1-0.448-1-1-1zM22.854 9.404 14.475 1.025c-1.322-1.323-3.629-1.322-4.949 0l-8.38 8.379c-0.195 0.195-0.195 0.512 0 0.707s0.512 0.195 0.707 0l8.379-8.379c0.944-0.944 2.59-0.945 3.535 0l8.379 8.378c0.195 0.195 0.512 0.195 0.707 0s0.195-0.512 1e-3-0.706zM13.629 5.679c-0.898-0.898-2.359-0.898-3.258 0l-6.596 6.596c-0.195 0.195-0.195 0.512 0 0.707s0.512 0.195 0.707 0l6.596-6.596c0.509-0.508 1.335-0.508 1.844 0l6.596 6.596c0.195 0.195 0.512 0.195 0.707 0s0.195-0.512 0-0.707z" />
</svg>