<svg id="chevron_double_up_arrow-circle-down" viewBox="0 0 24 24" fill="currentColor" width="32" height="32" xmlns="http://www.w3.org/2000/svg" xmlns:xlink="http://www.w3.org/1999/xlink">
    <title>chevron-double-up</title>
    <path d="M14.475 2.025c-1.322-1.322-3.629-1.32-4.947-2e-3l-9.38 9.293c-0.196 0.194-0.198 0.512-4e-3 0.707 0.193 0.196 0.512 0.198 0.707 4e-3l9.381-9.295c0.945-0.945 2.588-0.947 3.537 2e-3l9.379 9.293c0.097 0.097 0.225 0.145 0.352 0.145 0.129 0 0.258-0.05 0.355-0.148 0.194-0.195 0.192-0.513-4e-3-0.707z" />
    <path d="M13.768 11.732c-0.945-0.945-2.593-0.942-3.532-3e-3L0.149 21.644c-0.197 0.193-0.199 0.51-6e-3 0.707 0.193 0.198 0.51 0.198 0.707 6e-3l10.089-9.918c0.566-0.566 1.552-0.569 2.124 3e-3l10.086 9.914c0.098 0.096 0.224 0.144 0.351 0.144 0.129 0 0.259-0.05 0.356-0.149 0.193-0.197 0.191-0.514-6e-3-0.707z" />
</svg>