<svg id="chevron_double_dots_left_Layer_1" viewBox="0 0 24 24" fill="currentColor" width="32" height="32" data-name="Layer 1" xmlns="http://www.w3.org/2000/svg" xmlns:xlink="http://www.w3.org/1999/xlink">
    <title>chevron-double-dots-left</title>
    <path d="M16 12c0 0.552-0.448 1-1 1s-1-0.448-1-1 0.448-1 1-1 1 0.448 1 1zM10 12c0 0.552 0.448 1 1 1s1-0.448 1-1-0.448-1-1-1-1 0.448-1 1zM19 11c-0.552 0-1 0.448-1 1s0.448 1 1 1 1-0.448 1-1-0.448-1-1-1zM23 11c-0.552 0-1 0.448-1 1s0.448 1 1 1 1-0.448 1-1-0.448-1-1-1zM1.732 13.768C1.26 13.295 1 12.668 1 12s0.26-1.295 0.732-1.768l8.379-8.378c0.195-0.195 0.195-0.512 0-0.707s-0.512-0.195-0.707 0L1.025 9.525C0.364 10.186 0 11.065 0 12s0.364 1.813 1.025 2.475l8.378 8.379c0.195 0.195 0.512 0.195 0.707 0s0.195-0.512 0-0.707zM12.982 3.775c-0.195-0.195-0.512-0.195-0.707 0l-6.596 6.596c-0.898 0.898-0.898 2.36 0 3.258l6.596 6.596c0.195 0.195 0.512 0.195 0.707 0s0.195-0.512 0-0.707l-6.596-6.596c-0.508-0.508-0.508-1.335 0-1.844l6.596-6.596c0.195-0.195 0.195-0.512 0-0.707z" />
</svg>