<svg id="chicken_bucket_Layer_1" viewBox="0 0 24 24" fill="currentColor" width="32" height="32" data-name="Layer 1" xmlns="http://www.w3.org/2000/svg" xmlns:xlink="http://www.w3.org/1999/xlink">
    <title>chicken-bucket</title>
    <path d="M13.5 15h0.793l1.175 1.175C15.193 16.353 15 16.648 15 17c0 0.552 0.448 1 1 1s1-0.448 1-1c0.552 0 1-0.448 1-1s-0.448-1-1-1c-0.352 0-0.647 0.193-0.825 0.468L15 14.293c-0.056-1.267 0.078-4.851-1.745-7.048-1.657-1.657-4.354-1.657-6.011 0s-1.657 4.354 0 6.011c1.56 1.56 5.766 1.73 6.256 1.744zM7.952 7.952c1.268-1.267 3.329-1.267 4.597 0 1.202 1.343 1.447 4.598 1.452 6.048-1.45-5e-3-4.719-0.254-6.048-1.452-1.267-1.267-1.267-3.33-1e-3-4.596zM23.5 2h-23C0.224 2 0 2.224 0 2.5S0.224 3 0.5 3h0.562l1.985 15.087C3.34 20.317 5.258 22 7.508 22h8.983c2.25 0 4.168-1.682 4.461-3.913L22.937 3h0.562c0.276 0 0.5-0.224 0.5-0.5S23.775 2 23.5 2zM19.962 17.957C19.733 19.692 18.242 21 16.492 21H7.508c-1.75 0-3.242-1.308-3.47-3.043L2.07 3h19.86z" />
</svg>