<svg id="child_head_Layer_1" viewBox="0 0 24 24" fill="currentColor" width="32" height="32" data-name="Layer 1" xmlns="http://www.w3.org/2000/svg" xmlns:xlink="http://www.w3.org/1999/xlink">
    <title>child-head</title>
    <path d="M10 11c0 0.552-0.448 1-1 1s-1-0.448-1-1 0.448-1 1-1 1 0.448 1 1zM15 10c-0.552 0-1 0.448-1 1s0.448 1 1 1 1-0.448 1-1-0.448-1-1-1zM24 11c0 1.654-1.346 3-3 3h-0.6c-0.477 1.146-1.29 2.308-2.325 3.3 1.619 1.681 2.627 3.799 2.921 6.138 0.034 0.274-0.16 0.524-0.434 0.559-0.021 3e-3-0.042 4e-3-0.063 4e-3-0.248 0-0.464-0.185-0.495-0.438-0.268-2.138-1.195-4.072-2.682-5.603-1.516 1.212-3.382 2.041-5.32 2.041H12c-1.939 0-3.805-0.83-5.322-2.041-1.487 1.531-2.414 3.465-2.682 5.603-0.031 0.253-0.247 0.438-0.495 0.438-0.021 0-0.042 0-0.063-4e-3-0.273-0.034-0.468-0.284-0.434-0.559 0.294-2.339 1.302-4.456 2.921-6.138C4.89 16.308 4.077 15.146 3.6 14H3c-1.654 0-3-1.346-3-3 0-1.524 1.144-2.787 2.617-2.976C3.333 3.421 7.293 0 12 0s8.674 3.426 9.385 8.035C22.88 8.239 24 9.491 24 11zM23 11c0-1.103-0.897-2-2-2-0.255 0-0.526-0.186-0.555-0.439C19.971 4.25 16.341 1 12 1 10.346 1 9 2.346 9 4s1.346 3 3 3c1.458 0 2.7-1.04 2.954-2.474 0.048-0.272 0.312-0.457 0.579-0.405 0.272 0.048 0.453 0.308 0.405 0.579C15.6 6.612 13.944 8 12 8 9.794 8 8 6.206 8 4 8 3.113 8.29 2.294 8.78 1.63 5.974 2.776 3.905 5.379 3.555 8.561 3.524 8.84 3.222 9.043 2.953 8.998 1.897 9.001 1 9.898 1 11.001s0.897 2 2 2h0.941c0.211 0 0.399 0.132 0.471 0.33 0.982 2.728 4.162 5.671 7.588 5.671h2e-3c3.425 0 6.604-2.943 7.586-5.671 0.071-0.198 0.26-0.33 0.471-0.33H21c1.103 0 2-0.897 2-2.001z" />
</svg>