<svg id="child_Layer_1" viewBox="0 0 24 24" fill="currentColor" width="32" height="32" data-name="Layer 1" xmlns="http://www.w3.org/2000/svg" xmlns:xlink="http://www.w3.org/1999/xlink">
    <title>child</title>
    <path d="M12 10c1.378 0 2.5-1.121 2.5-2.5S13.378 5 12 5 9.5 6.121 9.5 7.5 10.622 10 12 10zM12 6c0.827 0 1.5 0.673 1.5 1.5S12.827 9 12 9s-1.5-0.673-1.5-1.5S11.173 6 12 6zM13 11h-2c-1.654 0-3 1.346-3 3v3c0 1.304 0.836 2.415 2 2.828V23.5c0 0.276 0.224 0.5 0.5 0.5s0.5-0.224 0.5-0.5V20h2v3.5c0 0.276 0.224 0.5 0.5 0.5s0.5-0.224 0.5-0.5v-3.672c1.164-0.413 2-1.524 2-2.828v-3c0-1.654-1.346-3-3-3zM15 17c0 1.103-0.897 2-2 2h-2c-1.103 0-2-0.897-2-2v-3c0-1.103 0.897-2 2-2h2c1.103 0 2 0.897 2 2z" />
</svg>