<svg id="chimney_smoke_Layer_1" viewBox="0 0 24 24" fill="currentColor" width="32" height="32" data-name="Layer 1" xmlns="http://www.w3.org/2000/svg" xmlns:xlink="http://www.w3.org/1999/xlink">
    <title>chimney-smoke</title>
    <path d="M17.5 7h-15C1.122 7 0 8.121 0 9.5v1c0 1.208 0.86 2.217 2 2.449V23.5C2 23.776 2.224 24 2.5 24S3 23.776 3 23.5V19h9v4.5c0 0.276 0.224 0.5 0.5 0.5s0.5-0.224 0.5-0.5V19h4v4.5c0 0.276 0.224 0.5 0.5 0.5s0.5-0.224 0.5-0.5V12.949c1.14-0.232 2-1.242 2-2.449v-1C20 8.121 18.879 7 17.5 7zM3 13h4v5H3zM8 18v-5h9v5zM19 10.5c0 0.827-0.673 1.5-1.5 1.5h-15C1.673 12 1 11.327 1 10.5v-1C1 8.673 1.673 8 2.5 8h15C18.327 8 19 8.673 19 9.5zM24 4c0 1.537-0.897 2.955-2.285 3.615-0.244 0.116-0.547 0.015-0.667-0.237-0.118-0.25-0.012-0.548 0.237-0.667C22.327 6.217 23 5.152 23 4c0-1.654-1.346-3-3-3-0.545 0-1.067 0.15-1.554 0.446-0.165 0.103-0.378 0.097-0.541-0.014-0.92-0.626-2.222-0.549-3.07 0.217-0.191 0.172-0.479 0.172-0.67 0-0.794-0.717-1.958-0.858-2.914-0.302-0.155 0.092-0.348 0.092-0.503 0-0.397-0.23-0.817-0.348-1.249-0.348-1.378 0-2.5 1.121-2.5 2.5v1c0 0.276-0.224 0.5-0.5 0.5s-0.5-0.224-0.5-0.5v-1c0-1.93 1.57-3.5 3.5-3.5 0.519 0 1.022 0.117 1.5 0.35 1.137-0.553 2.485-0.426 3.5 0.29 1.08-0.763 2.562-0.833 3.699-0.199C18.762 0.151 19.38 0 19.999 0c2.206 0 4 1.794 4.001 4z" />
</svg>