<svg id="chimney_Layer_1" viewBox="0 0 24 24" fill="currentColor" width="32" height="32" data-name="Layer 1" xmlns="http://www.w3.org/2000/svg" xmlns:xlink="http://www.w3.org/1999/xlink">
    <title>chimney</title>
    <path d="M20 0H4C1.794 0 0 1.794 0 4v2.5C0 7.878 1.122 9 2.5 9H3v11.5C3 22.43 4.57 24 6.5 24h11c1.93 0 3.5-1.57 3.5-3.5V9h0.5C22.878 9 24 7.878 24 6.5V4c0-2.206-1.794-4-4-4zM9 9v4H4V9zM20 14v4h-5v-4zM14 18H4v-4h10zM4 20.5V19h5v4H6.5C5.122 23 4 21.878 4 20.5zM20 20.5c0 1.378-1.122 2.5-2.5 2.5H10v-4h10zM20 13H10V9h10zM23 6.5C23 7.327 22.327 8 21.5 8h-19C1.673 8 1 7.327 1 6.5V4c0-1.654 1.346-3 3-3h16c1.654 0 3 1.346 3 3z" />
</svg>