<svg id="chip_Layer_1" viewBox="0 0 24 24" fill="currentColor" width="32" height="32" data-name="Layer 1" xmlns="http://www.w3.org/2000/svg" xmlns:xlink="http://www.w3.org/1999/xlink">
    <title>chip</title>
    <path d="M12 0C5.383 0 0 5.383 0 12s5.383 12 12 12 12-5.383 12-12S18.617 0 12 0zM22.389 15.583l-3.561-2.057c0.11-0.492 0.173-1.001 0.173-1.526 0-0.601-0.084-1.181-0.227-1.737l3.541-2.052c0.436 1.183 0.687 2.456 0.687 3.789 0 1.256-0.222 2.458-0.613 3.583zM21.031 18.263l-3.483-2.012c0.406-0.528 0.737-1.114 0.98-1.744l3.488 2.015c-0.277 0.612-0.605 1.195-0.985 1.741zM12 17.999c-3.309 0-6-2.691-6-6s2.691-6 6-6 6 2.691 6 6-2.691 6-6 6zM1.984 16.522 5.481 14.53c0.245 0.63 0.579 1.214 0.986 1.74l-3.498 1.992c-0.38-0.546-0.708-1.129-0.985-1.74zM3.098 5.565l3.454 2.05C6.134 8.133 5.788 8.711 5.53 9.334L2.077 7.285c0.289-0.606 0.63-1.181 1.021-1.72zM21.922 7.282 18.454 9.291c-0.262-0.622-0.612-1.197-1.033-1.713l3.48-2.016c0.391 0.539 0.732 1.114 1.021 1.72zM20.271 4.772 16.709 6.836C15.941 6.135 15.021 5.6 14 5.295V1.191c2.483 0.459 4.671 1.753 6.271 3.581zM13 1.051V5.08C12.672 5.033 12.34 5 12 5s-0.672 0.033-1 0.08V1.051C11.33 1.021 11.662 1 12 1s0.67 0.021 1 0.051zM10 1.191v4.104c-1.037 0.31-1.97 0.857-2.745 1.574L3.726 4.775C5.326 2.946 7.515 1.65 10 1.191zM1.685 8.215l3.53 2.095C5.08 10.853 5 11.417 5 12.001c0 0.534 0.066 1.053 0.18 1.553l-3.568 2.032C1.222 14.46 1 13.258 1 12.001c0-1.332 0.25-2.603 0.685-3.786zM3.581 19.066l3.567-2.032C7.943 17.8 8.915 18.381 10 18.705v4.104c-2.558-0.472-4.808-1.827-6.419-3.743zM11 22.949V18.92c0.328 0.047 0.66 0.08 1 0.08s0.672-0.033 1-0.08v4.029C12.67 22.979 12.338 23 12 23s-0.67-0.021-1-0.051zM14 22.809v-4.104c1.093-0.327 2.074-0.914 2.872-1.69l3.547 2.049c-1.611 1.916-3.861 3.272-6.419 3.745z" />
</svg>