<svg id="choir_singing_Layer_1" viewBox="0 0 24 24" fill="currentColor" width="32" height="32" data-name="Layer 1" xmlns="http://www.w3.org/2000/svg" xmlns:xlink="http://www.w3.org/1999/xlink">
    <title>choir-singing</title>
    <path d="M23.96 20.363c-0.613-3.909-1.411-8.831-1.728-10.08-0.643-2.536-2.299-4.049-4.662-4.259-0.28-0.013-0.518 0.179-0.542 0.454-0.024 0.274 0.179 0.518 0.454 0.542 1.935 0.172 3.243 1.386 3.781 3.509 0.087 0.342 0.222 1.028 0.399 2.018l-1.94 1.293c-0.23 0.153-0.292 0.464-0.139 0.693 0.096 0.145 0.255 0.223 0.417 0.223 0.095 0 0.191-0.027 0.277-0.084l1.574-1.049c0.294 1.712 0.673 4.037 1.121 6.894 0.096 0.613-0.082 1.238-0.488 1.713-0.418 0.489-1.032 0.77-1.683 0.77h-2.684c0.04-0.042 0.089-0.075 0.127-0.119 0.597-0.697 0.858-1.615 0.717-2.518-0.613-3.909-1.411-8.831-1.728-10.08C16.543 7.561 14.635 6 11.999 6s-4.544 1.562-5.234 4.283c-0.317 1.249-1.115 6.171-1.728 10.08-0.141 0.902 0.12 1.82 0.717 2.518C5.792 22.926 5.84 22.958 5.881 23H3.198c-0.651 0-1.265-0.28-1.683-0.77-0.406-0.475-0.584-1.1-0.488-1.713 0.448-2.857 0.826-5.182 1.121-6.894l1.574 1.049c0.085 0.057 0.182 0.084 0.277 0.084 0.162 0 0.32-0.078 0.417-0.223 0.153-0.229 0.091-0.54-0.139-0.693l-1.94-1.293c0.177-0.991 0.313-1.678 0.399-2.018 0.538-2.123 1.846-3.337 3.781-3.509 0.275-0.024 0.478-0.268 0.454-0.542-0.024-0.275-0.254-0.466-0.542-0.454-2.363 0.21-4.019 1.723-4.661 4.259-0.316 1.245-1.114 6.169-1.728 10.08-0.142 0.902 0.12 1.819 0.716 2.518C1.365 23.592 2.255 24 3.199 24h17.604c0.944 0 1.834-0.408 2.442-1.119 0.597-0.697 0.858-1.615 0.715-2.518zM11.999 7c2.205 0 3.68 1.221 4.265 3.529 0.087 0.342 0.222 1.028 0.399 2.018L15 13.656v-2.645c0-0.416-0.228-0.797-0.595-0.993-0.366-0.195-0.809-0.175-1.155 0.057L12 10.908l-1.25-0.833c-0.345-0.23-0.788-0.252-1.155-0.057C9.228 10.214 9 10.595 9 11.011v2.647l-1.666-1.111c0.177-0.99 0.313-1.677 0.4-2.018C8.319 8.22 9.794 7 11.999 7zM14 14.323l-1.1 0.734c-0.548 0.365-1.255 0.365-1.803 0L10 14.326v-3.314c0-0.062 0.036-0.095 0.066-0.111 0.031-0.015 0.078-0.028 0.129 7e-3l1.527 1.018c0.168 0.111 0.387 0.111 0.555 0l1.527-1.018c0.051-0.036 0.098-0.022 0.129-7e-3 0.03 0.017 0.066 0.049 0.066 0.111zM8.195 23c-0.651 0-1.264-0.28-1.683-0.77-0.407-0.475-0.584-1.1-0.488-1.713 0.448-2.857 0.826-5.182 1.121-6.894l3.397 2.265c0.442 0.295 0.949 0.442 1.456 0.442s1.014-0.147 1.457-0.442l3.397-2.265c0.294 1.712 0.673 4.037 1.121 6.894 0.096 0.613-0.082 1.238-0.488 1.713-0.418 0.489-1.032 0.77-1.683 0.77zM12 5c1.378 0 2.5-1.121 2.5-2.5S13.378 0 12 0 9.5 1.121 9.5 2.5 10.622 5 12 5zM12 1c0.827 0 1.5 0.673 1.5 1.5 0 0.47-0.222 0.885-0.561 1.16C12.81 3.258 12.445 2.962 12 2.962s-0.81 0.296-0.939 0.698C10.722 3.385 10.5 2.97 10.5 2.5 10.5 1.673 11.173 1 12 1zM18 5c1.378 0 2.5-1.121 2.5-2.5S19.378 0 18 0s-2.5 1.121-2.5 2.5S16.622 5 18 5zM18 1c0.827 0 1.5 0.673 1.5 1.5 0 0.47-0.222 0.885-0.561 1.16C18.81 3.258 18.445 2.962 18 2.962s-0.81 0.296-0.939 0.698C16.722 3.385 16.5 2.97 16.5 2.5 16.5 1.673 17.173 1 18 1zM6 5c1.378 0 2.5-1.121 2.5-2.5S7.378 0 6 0 3.5 1.121 3.5 2.5 4.622 5 6 5zM6 1c0.827 0 1.5 0.673 1.5 1.5 0 0.47-0.222 0.885-0.561 1.16C6.81 3.258 6.445 2.962 6 2.962S5.19 3.258 5.061 3.66C4.722 3.385 4.5 2.97 4.5 2.5 4.5 1.673 5.173 1 6 1z" />
</svg>