<svg id="choose_alt_Layer_1" viewBox="0 0 24 24" fill="currentColor" width="32" height="32" data-name="Layer 1" xmlns="http://www.w3.org/2000/svg" xmlns:xlink="http://www.w3.org/1999/xlink">
    <title>choose-alt</title>
    <path d="M11.5 4.949V6.5C11.5 6.776 11.724 7 12 7s0.5-0.224 0.5-0.5V4.949c1.14-0.232 2-1.242 2-2.449 0-1.379-1.121-2.5-2.5-2.5S9.5 1.121 9.5 2.5c0 1.208 0.86 2.217 2 2.449zM12 1c0.827 0 1.5 0.673 1.5 1.5S12.827 4 12 4s-1.5-0.673-1.5-1.5S11.173 1 12 1zM23 23.5c0 0.276-0.224 0.5-0.5 0.5S22 23.776 22 23.5c0-1.637-0.994-3.026-2.596-3.627l-5.565-1.899c-0.203-0.069-0.339-0.26-0.339-0.474v-5.893c0-0.789-0.535-1.471-1.244-1.587-0.451-0.07-0.886 0.046-1.227 0.336-0.337 0.286-0.529 0.703-0.529 1.144v8.424c0 0.421-0.235 0.796-0.615 0.979-0.379 0.18-0.819 0.132-1.146-0.13 0 0-1.716-1.367-1.719-1.371-0.606-0.562-1.553-0.529-2.115 0.073-0.565 0.604-0.534 1.557 0.064 2.118l1.633 1.551C6.927 23.453 6.709 24 6.26 24c-0.127 0-0.249-0.048-0.341-0.135l-1.64-1.548c-1-0.937-1.048-2.518-0.106-3.524 0.928-0.994 2.482-1.054 3.49-0.149 3e-3 2e-3 1.698 1.347 1.698 1.347l0.138-0.066v-8.424c0-0.734 0.321-1.429 0.881-1.905 0.561-0.476 1.307-0.68 2.035-0.561 1.188 0.193 2.084 1.3 2.084 2.573v5.535l5.241 1.789c2.016 0.756 3.259 2.504 3.26 4.568zM16.077 9.295c0.097 0 0.193-0.027 0.278-0.085l1.39-0.933C18.197 8.723 18.816 9 19.5 9 20.879 9 22 7.879 22 6.5S20.879 4 19.5 4 17 5.121 17 6.5c0 0.336 0.069 0.655 0.189 0.947l-1.39 0.933c-0.229 0.153-0.291 0.464-0.137 0.693 0.097 0.145 0.255 0.222 0.415 0.222zM19.5 5C20.327 5 21 5.673 21 6.5S20.327 8 19.5 8C18.606 8 18 7.394 18 6.5 18 5.673 18.673 5 19.5 5zM6.255 8.277 7.645 9.21C7.73 9.268 7.827 9.295 7.923 9.295c0.16 0 0.318-0.077 0.415-0.222 0.154-0.229 0.093-0.54-0.137-0.693l-1.39-0.933C6.931 7.154 7 6.835 7 6.5 7 5.121 5.879 4 4.5 4S2 5.121 2 6.5 3.121 9 4.5 9c0.684 0 1.303-0.277 1.755-0.723zM3 6.5C3 5.673 3.673 5 4.5 5S6 5.673 6 6.5C6 7.24 5.615 8 4.5 8 3.673 8 3 7.327 3 6.5z" />
</svg>