<svg id="church_Layer_1" viewBox="0 0 24 24" fill="currentColor" width="32" height="32" data-name="Layer 1" xmlns="http://www.w3.org/2000/svg" xmlns:xlink="http://www.w3.org/1999/xlink">
    <title>church</title>
    <path d="M12 13.5c-0.827 0-1.5-0.673-1.5-1.5s0.673-1.5 1.5-1.5 1.5 0.673 1.5 1.5-0.673 1.5-1.5 1.5zM22.146 11.897 12.5 4.881V2.999H14c0.276 0 0.5-0.224 0.5-0.5s-0.224-0.5-0.5-0.5h-1.5V0.5C12.5 0.224 12.276 0 12 0s-0.5 0.224-0.5 0.5V2H10C9.724 2 9.5 2.224 9.5 2.5S9.724 3 10 3h1.5v1.882l-9.646 7.015C0.693 12.741 0 14.102 0 15.537V22c0 1.103 0.897 2 2 2h0.5C2.776 24 3 23.776 3 23.5v-3C3 20.224 3.224 20 3.5 20S4 20.224 4 20.5v3C4 23.776 4.224 24 4.5 24h15c0.276 0 0.5-0.224 0.5-0.5v-3c0-0.276 0.224-0.5 0.5-0.5s0.5 0.224 0.5 0.5v3c0 0.276 0.224 0.5 0.5 0.5H22c1.103 0 2-0.897 2-2v-6.463c0-1.435-0.693-2.795-1.854-3.64zM14 23h-4v-4c0-1.103 0.897-2 2-2s2 0.897 2 2zM12 16c-1.654 0-3 1.346-3 3v4H7V9.391l5-3.636 5 3.636V23h-2v-4c0-1.654-1.346-3-3-3zM3.5 19C2.673 19 2 19.673 2 20.5V23c-0.551 0-1-0.449-1-1v-6.463c0-1.116 0.539-2.174 1.441-2.831L6 10.118V23H5v-2.5C5 19.673 4.327 19 3.5 19zM23 22c0 0.551-0.449 1-1 1v-2.5c0-0.827-0.673-1.5-1.5-1.5S19 19.673 19 20.5V23h-1V10.118l3.559 2.588C22.461 13.363 23 14.421 23 15.537zM4.25 17.5h-1.5v-2.25c0-0.414 0.336-0.75 0.75-0.75s0.75 0.336 0.75 0.75zM21.25 17.5h-1.5v-2.25c0-0.414 0.336-0.75 0.75-0.75s0.75 0.336 0.75 0.75z" />
</svg>