<svg id="circle_trash_Layer_1" viewBox="0 0 24 24" fill="currentColor" width="32" height="32" data-name="Layer 1" xmlns="http://www.w3.org/2000/svg" xmlns:xlink="http://www.w3.org/1999/xlink">
    <title>circle-trash</title>
    <path d="M12 0C5.383 0 0 5.383 0 12s5.383 12 12 12 12-5.383 12-12S18.617 0 12 0zM12 23C5.935 23 1 18.065 1 12S5.935 1 12 1 23 5.935 23 12 18.065 23 12 23zM17.5 8H15V7c0-1.103-0.897-2-2-2h-2C9.897 5 9 5.897 9 7v1H6.5C6.224 8 6 8.224 6 8.5S6.224 9 6.5 9H7v7c0 1.654 1.346 3 3 3h4c1.654 0 3-1.346 3-3V9h0.5C17.776 9 18 8.776 18 8.5S17.776 8 17.5 8zM10 7c0-0.551 0.448-1 1-1h2c0.552 0 1 0.449 1 1v1h-4zM16 16c0 1.103-0.897 2-2 2h-4c-1.103 0-2-0.897-2-2V9h8z" />
</svg>