<svg id="circle_calendar_Layer_1" viewBox="0 0 24 24" fill="currentColor" width="32" height="32" data-name="Layer 1" xmlns="http://www.w3.org/2000/svg" xmlns:xlink="http://www.w3.org/1999/xlink">
    <title>circle-calendar</title>
    <path d="M12 0C5.383 0 0 5.383 0 12s5.383 12 12 12 12-5.383 12-12S18.617 0 12 0zM12 23C5.935 23 1 18.065 1 12S5.935 1 12 1 23 5.935 23 12 18.065 23 12 23zM16 7.05V5.5C16 5.224 15.776 5 15.5 5S15 5.224 15 5.5V7H9V5.5C9 5.224 8.776 5 8.5 5S8 5.224 8 5.5v1.55C6.86 7.282 6 8.292 6 9.5v5C6 15.879 7.121 17 8.5 17h7c1.379 0 2.5-1.121 2.5-2.5v-5c0-1.208-0.86-2.218-2-2.45zM8.5 8h7C16.327 8 17 8.673 17 9.5V10H7V9.5C7 8.673 7.673 8 8.5 8zM15.5 16h-7C7.673 16 7 15.327 7 14.5V11h10v3.5c0 0.827-0.673 1.5-1.5 1.5z" />
</svg>