<svg id="circle_phone_flip_Layer_1" viewBox="0 0 24 24" fill="currentColor" width="32" height="32" data-name="Layer 1" xmlns="http://www.w3.org/2000/svg" xmlns:xlink="http://www.w3.org/1999/xlink">
    <title>circle-phone-flip</title>
    <path d="M12 24C5.383 24 0 18.617 0 12S5.383 0 12 0 24 5.383 24 12 18.617 24 12 24zM12 1C5.935 1 1 5.935 1 12s4.935 11 11 11 11-4.935 11-11S18.065 1 12 1zM8.595 19c-0.964 0-1.859-0.365-2.521-1.028l-0.589-0.675c-0.305-0.303-0.486-0.739-0.486-1.204s0.181-0.9 0.509-1.229l1.459-1.126c0.622-0.627 1.708-0.635 2.387 0.021l0.911 0.725c1.955-0.816 3.337-2.202 4.215-4.224l-0.737-0.927c-0.64-0.635-0.64-1.737 0.038-2.415l1.04-1.361c0.743-0.756 1.844-0.706 2.501-0.049l0.625 0.542C18.635 6.734 19 7.629 19 8.593 19 13.066 13.068 18.998 8.595 19zM8.148 14.273c-0.188 0-0.377 0.072-0.521 0.216l-1.459 1.126c-0.091 0.097-0.167 0.282-0.167 0.479s0.077 0.382 0.216 0.522l0.589 0.675C7.255 17.739 7.899 18 8.596 18c3.574 0 9.405-5.254 9.405-9.405 0-0.697-0.261-1.34-0.734-1.812L16.642 6.24c-0.33-0.327-0.79-0.303-1.069-0.023l-1.04 1.361c-0.331 0.336-0.331 0.805-0.043 1.092l1.14 1.428-0.108 0.27c-1.002 2.497-2.739 4.232-5.161 5.156l-0.267 0.102-1.423-1.137c-0.144-0.144-0.333-0.216-0.523-0.216z" />
</svg>