<svg id="circle_8_Layer_1" viewBox="0 0 24 24" fill="currentColor" width="32" height="32" data-name="Layer 1" xmlns="http://www.w3.org/2000/svg" xmlns:xlink="http://www.w3.org/1999/xlink">
    <title>circle-8</title>
    <path d="M13.776 10.416C14.518 9.869 15 8.99 15 8c0-1.654-1.346-3-3-3S9 6.346 9 8c0 0.99 0.483 1.87 1.224 2.416C8.907 11.071 8 12.431 8 14c0 2.206 1.794 4 4 4s4-1.794 4-4c0-1.569-0.907-2.929-2.224-3.584zM10 8c0-1.103 0.897-2 2-2s2 0.897 2 2-0.897 2-2 2-2-0.897-2-2zM12 17c-1.654 0-3-1.346-3-3s1.346-3 3-3 3 1.346 3 3-1.346 3-3 3zM12 0C5.383 0 0 5.383 0 12s5.383 12 12 12 12-5.383 12-12S18.617 0 12 0zM12 23C5.935 23 1 18.065 1 12S5.935 1 12 1 23 5.935 23 12 18.065 23 12 23z" />
</svg>