<svg id="circle_w_Layer_1" viewBox="0 0 24 24" fill="currentColor" width="32" height="32" data-name="Layer 1" xmlns="http://www.w3.org/2000/svg" xmlns:xlink="http://www.w3.org/1999/xlink">
    <title>circle-w</title>
    <path d="M12 0C5.383 0 0 5.383 0 12s5.383 12 12 12 12-5.383 12-12S18.617 0 12 0zM12 23C5.935 23 1 18.065 1 12S5.935 1 12 1 23 5.935 23 12 18.065 23 12 23zM18.621 6.81l-1.144 9.522c-0.174 0.946-0.846 1.656-1.726 1.661-0.983 5e-3-1.711-0.511-2.021-1.351l-1.736-5.137-1.776 5.123c-0.335 0.907-1.123 1.438-1.998 1.362-0.86-0.074-1.525-0.713-1.694-1.628L5.378 6.808C5.345 6.534 5.541 6.285 5.815 6.252 6.094 6.214 6.338 6.415 6.371 6.689l1.143 9.522c0.098 0.526 0.474 0.755 0.792 0.781 0.336 0.037 0.762-0.141 0.971-0.703l2.25-6.493C11.597 9.595 11.787 9.46 12 9.46h2e-3c0.214 0 0.403 0.138 0.472 0.34l2.199 6.507c0.203 0.549 0.649 0.726 0.994 0.688 0.33-0.028 0.72-0.257 0.823-0.814l1.139-9.491c0.033-0.274 0.29-0.472 0.556-0.437 0.274 0.032 0.47 0.281 0.436 0.557z" />
</svg>