<svg id="circle_bookmark_Layer_1" viewBox="0 0 24 24" fill="currentColor" width="32" height="32" data-name="Layer 1" xmlns="http://www.w3.org/2000/svg" xmlns:xlink="http://www.w3.org/1999/xlink">
    <title>circle-bookmark</title>
    <path d="M12 0C5.383 0 0 5.383 0 12s5.383 12 12 12 12-5.383 12-12S18.617 0 12 0zM12 23C5.935 23 1 18.065 1 12S5.935 1 12 1 23 5.935 23 12 18.065 23 12 23zM14.5 6h-5C8.121 6 7 7.122 7 8.5v8.181c0 0.535 0.319 1.013 0.813 1.218 0.5 0.206 1.051 0.099 1.437-0.286l2.75-2.75 2.75 2.75c0.256 0.256 0.584 0.39 0.924 0.39 0.171 0 0.345-0.034 0.513-0.104C16.681 17.694 17 17.216 17 16.681V8.5C17 7.122 15.879 6 14.5 6zM16 16.681c0 0.191-0.138 0.27-0.196 0.294-0.058 0.023-0.211 0.066-0.347-0.069L12 13.449 8.543 16.906c-0.136 0.135-0.289 0.093-0.347 0.069C8.137 16.951 8 16.872 8 16.681V8.5C8 7.673 8.673 7 9.5 7h5C15.327 7 16 7.673 16 8.5z" />
</svg>