<svg id="circle_p_Layer_1" viewBox="0 0 24 24" fill="currentColor" width="32" height="32" data-name="Layer 1" xmlns="http://www.w3.org/2000/svg" xmlns:xlink="http://www.w3.org/1999/xlink">
    <title>circle-p</title>
    <path d="M13.5 6h-3c-1.654 0-3 1.346-3 3v8.5C7.5 17.776 7.724 18 8 18s0.5-0.224 0.5-0.5V14h5c2.206 0 4-1.794 4-4s-1.794-4-4-4zM13.5 13h-5V9c0-1.103 0.897-2 2-2h3c1.654 0 3 1.346 3 3s-1.346 3-3 3zM12 0C5.383 0 0 5.383 0 12s5.383 12 12 12 12-5.383 12-12S18.617 0 12 0zM12 23C5.935 23 1 18.065 1 12S5.935 1 12 1 23 5.935 23 12 18.065 23 12 23z" />
</svg>