<svg id="circle_star_Layer_1" viewBox="0 0 24 24" fill="currentColor" width="32" height="32" data-name="Layer 1" xmlns="http://www.w3.org/2000/svg" xmlns:xlink="http://www.w3.org/1999/xlink">
    <title>circle-star</title>
    <path d="M12 24C5.38 24 0 18.62 0 12S5.38 0 12 0 24 5.38 24 12 18.62 24 12 24zM12 1C5.93 1 1 5.93 1 12s4.93 11 11 11 11-4.93 11-11S18.07 1 12 1zM8.74 17c-0.21 0-0.42-0.07-0.6-0.2-0.34-0.25-0.48-0.7-0.35-1.1l0.94-3.01-2.37-1.93c-0.33-0.28-0.44-0.72-0.3-1.11S6.58 9 7 9h3l1.06-2.85C11.2 5.77 11.57 5.53 12 5.53s0.8 0.24 0.94 0.62L14 9h3c0.42 0 0.8 0.26 0.94 0.66v0c0.14 0.39 0.03 0.84-0.29 1.1l-2.37 1.93 0.98 2.98c0.13 0.4 0 0.85-0.34 1.1-0.34 0.26-0.8 0.28-1.15 0.05l-2.75-1.79-2.71 1.81C9.14 16.95 8.94 17.01 8.74 17zM7 9.99l2.62 2.13c0.16 0.13 0.22 0.34 0.16 0.54L8.74 16l2.98-1.99c0.17-0.11 0.38-0.11 0.55 0l3.03 1.97-1.09-3.31c-0.07-0.2 0-0.41 0.16-0.54L16.99 10h-3.35c-0.21 0-0.4-0.13-0.47-0.33l-1.18-3.18-1.18 3.18C10.74 9.87 10.55 10 10.34 10zM17 9.99zM17 9.99v0c0 0 0 0 0 0z" />
</svg>