<svg id="circle_overlap_Layer_1" viewBox="0 0 24 24" fill="currentColor" width="32" height="32" data-name="Layer 1" xmlns="http://www.w3.org/2000/svg" xmlns:xlink="http://www.w3.org/1999/xlink">
    <title>circle-overlap</title>
    <path d="M16.878 7.122C16.216 3.09 12.717 0 8.5 0 3.813 0 0 3.813 0 8.5c0 4.217 3.09 7.716 7.122 8.378C7.784 20.91 11.283 24 15.5 24c4.687 0 8.5-3.813 8.5-8.5 0-4.217-3.09-7.716-7.122-8.378zM1 8.5C1 4.364 4.364 1 8.5 1c3.628 0 6.662 2.59 7.352 6.018C15.735 7.013 15.619 7 15.5 7 10.813 7 7 10.813 7 15.5c0 0.119 0.013 0.234 0.018 0.352C3.59 15.162 1 12.129 1 8.5zM8 15.5c0-0.255 0.013-0.506 0.038-0.755l1.216 1.216c-0.248 0.025-0.5 0.038-0.755 0.038-0.161 0-0.318-0.014-0.476-0.024C8.013 15.817 7.999 15.66 8 15.5zM10.443 15.736 8.264 13.557c0.108-0.403 0.248-0.793 0.419-1.167l2.926 2.926c-0.374 0.171-0.763 0.311-1.166 0.42zM12.525 14.818 9.182 11.475c0.204-0.319 0.432-0.621 0.68-0.906l3.568 3.568c-0.284 0.249-0.586 0.476-0.905 0.681zM14.138 13.431 10.57 9.863c0.284-0.249 0.586-0.476 0.906-0.68l3.343 3.343c-0.204 0.319-0.432 0.621-0.681 0.905zM15.317 11.61 12.391 8.684c0.374-0.171 0.763-0.311 1.167-0.419l2.179 2.179c-0.108 0.403-0.248 0.793-0.42 1.166zM16 8.5c0 0.255-0.013 0.506-0.038 0.755l-1.216-1.216c0.248-0.025 0.5-0.038 0.755-0.038 0.161 0 0.318 0.014 0.476 0.024C15.987 8.183 16.001 8.34 16 8.5zM15.5 23c-3.628 0-6.662-2.59-7.352-6.018C8.265 16.987 8.381 17 8.5 17c4.687 0 8.5-3.813 8.5-8.5 0-0.119-0.013-0.234-0.018-0.352C20.41 8.838 23 11.871 23 15.5c0 4.136-3.364 7.5-7.5 7.5z" />
</svg>