<svg id="circle_dashed_Layer_1" viewBox="0 0 24 24" fill="currentColor" width="32" height="32" data-name="Layer 1" xmlns="http://www.w3.org/2000/svg" xmlns:xlink="http://www.w3.org/1999/xlink">
    <title>circle-dashed</title>
    <path d="M1.16 10.09C1.05 10.71 1 11.35 1 12s0.06 1.28 0.16 1.91c0.05 0.27-0.13 0.53-0.41 0.58-0.03 0-0.06 0-0.09 0-0.24 0-0.45-0.17-0.49-0.41C0.05 13.4-0.01 12.7-0.01 12s0.06-1.4 0.18-2.08c0.05-0.27 0.31-0.46 0.58-0.41s0.45 0.31 0.41 0.58zM2.29 5.81C2.38 5.87 2.48 5.9 2.58 5.9c0.16 0 0.31-0.07 0.41-0.21 0.74-1.06 1.65-1.97 2.7-2.71 0.23-0.16 0.28-0.47 0.12-0.7S5.34 2 5.11 2.16c-1.15 0.81-2.14 1.8-2.95 2.95C2 5.34 2.06 5.65 2.29 5.81zM5.69 21.01c-1.06-0.74-1.97-1.65-2.71-2.7-0.16-0.23-0.47-0.28-0.7-0.12S2 18.66 2.16 18.89c0.81 1.15 1.8 2.14 2.95 2.95 0.09 0.06 0.19 0.09 0.29 0.09 0.16 0 0.31-0.07 0.41-0.21 0.16-0.23 0.1-0.54-0.12-0.71zM21.71 18.18c-0.22-0.16-0.54-0.1-0.7 0.12-0.74 1.06-1.65 1.97-2.7 2.71-0.23 0.16-0.28 0.47-0.12 0.7 0.1 0.14 0.25 0.21 0.41 0.21 0.1 0 0.2-0.03 0.29-0.09 1.15-0.81 2.14-1.8 2.95-2.95 0.16-0.23 0.1-0.54-0.13-0.7zM13.91 22.83c-0.62 0.11-1.26 0.16-1.91 0.16s-1.28-0.06-1.91-0.16c-0.27-0.06-0.53 0.13-0.58 0.41-0.05 0.27 0.13 0.53 0.41 0.58C10.6 23.94 11.3 24 12 24s1.4-0.06 2.08-0.18c0.27-0.05 0.45-0.31 0.41-0.58-0.05-0.27-0.31-0.46-0.58-0.41zM14.08 0.18C13.4 0.06 12.7 0 12 0s-1.4 0.06-2.08 0.18C9.65 0.23 9.47 0.49 9.51 0.76 9.55 1 9.76 1.17 10 1.17c0.03 0 0.06 0 0.09 0 0.62-0.11 1.26-0.16 1.91-0.16s1.28 0.06 1.91 0.16c0.03 0 0.06 0 0.09 0 0.24 0 0.45-0.17 0.49-0.41 0.05-0.27-0.13-0.53-0.41-0.58zM18.31 2.99c1.06 0.74 1.97 1.65 2.71 2.7 0.1 0.14 0.25 0.21 0.41 0.21 0.1 0 0.2-0.03 0.29-0.09 0.23-0.16 0.28-0.47 0.12-0.7-0.81-1.15-1.8-2.14-2.95-2.95-0.22-0.16-0.54-0.1-0.7 0.12-0.16 0.23-0.1 0.54 0.12 0.71zM23.82 9.93c-0.05-0.27-0.31-0.46-0.58-0.41s-0.45 0.31-0.41 0.58c0.11 0.62 0.16 1.26 0.16 1.91s-0.06 1.28-0.16 1.91c-0.05 0.27 0.13 0.53 0.41 0.58 0.03 0 0.06 0 0.09 0 0.24 0 0.45-0.17 0.49-0.41 0.12-0.68 0.18-1.38 0.18-2.08s-0.06-1.4-0.18-2.08z" />
</svg>