<svg id="circle_book_open_Layer_1" viewBox="0 0 24 24" fill="currentColor" width="32" height="32" data-name="Layer 1" xmlns="http://www.w3.org/2000/svg" xmlns:xlink="http://www.w3.org/1999/xlink">
    <title>circle-book-open</title>
    <path d="M17.043 6.482c-0.608-0.457-1.376-0.599-2.107-0.387l-1.448 0.419c-0.616 0.179-1.135 0.564-1.487 1.068-0.353-0.503-0.871-0.889-1.487-1.068L9.066 6.095c-0.732-0.211-1.499-0.07-2.107 0.387S6.002 7.638 6.002 8.399v6.06c0 1.197 0.805 2.265 1.956 2.595l2.584 0.741c0.478 0.137 0.984 0.222 1.46 0.205h9e-3c0.488 0 0.977-0.069 1.451-0.205l2.584-0.741c1.151-0.33 1.956-1.397 1.956-2.595v-6.06c0-0.761-0.349-1.46-0.959-1.917zM11.5 16.97c-0.23-0.027-0.459-0.072-0.685-0.137l-2.584-0.741C7.506 15.884 7 15.212 7 14.458v-6.06C7 7.954 7.203 7.547 7.559 7.28 7.805 7.095 8.096 6.999 8.394 6.999c0.131 0 0.264 0.019 0.394 0.056l1.448 0.419c0.744 0.215 1.265 0.908 1.265 1.683zM17 14.458c0 0.754-0.507 1.426-1.231 1.634l-2.584 0.741c-0.225 0.064-0.454 0.109-0.685 0.137V9.158c0-0.775 0.521-1.468 1.265-1.683l1.448-0.419c0.43-0.126 0.874-0.042 1.229 0.225s0.559 0.674 0.559 1.118zM12 0C5.383 0 0 5.383 0 12s5.383 12 12 12 12-5.383 12-12S18.617 0 12 0zM12 23C5.935 23 1 18.065 1 12S5.935 1 12 1 23 5.935 23 12 18.065 23 12 23z" />
</svg>