<svg id="circle_video_Layer_1" viewBox="0 0 24 24" fill="currentColor" width="32" height="32" data-name="Layer 1" xmlns="http://www.w3.org/2000/svg" xmlns:xlink="http://www.w3.org/1999/xlink">
    <title>circle-video</title>
    <path d="M12 0C5.383 0 0 5.383 0 12s5.383 12 12 12 12-5.383 12-12S18.617 0 12 0zM12 23C5.935 23 1 18.065 1 12S5.935 1 12 1 23 5.935 23 12 18.065 23 12 23zM19.105 8.19c-0.544-0.285-1.192-0.245-1.699 0.097l-2.407 1.357V9.5c0-1.378-1.122-2.5-2.5-2.5h-5c-1.378 0-2.5 1.122-2.5 2.5v5c0 1.378 1.122 2.5 2.5 2.5h5c1.378 0 2.5-1.122 2.5-2.5v-0.145l2.385 1.343c0.285 0.2 0.618 0.301 0.952 0.301 0.262 0 0.525-0.062 0.768-0.189 0.552-0.287 0.895-0.852 0.895-1.474V9.664c0-0.622-0.343-1.187-0.894-1.474zM14 14.5c0 0.827-0.673 1.5-1.5 1.5h-5C6.673 16 6 15.327 6 14.5v-5C6 8.673 6.673 8 7.5 8h5C13.327 8 14 8.673 14 9.5zM19 14.336c0 0.251-0.133 0.471-0.356 0.587-0.222 0.116-0.478 0.1-0.726-0.071l-2.917-1.645v-2.416l2.917-1.645 0.041-0.026c0.206-0.144 0.462-0.162 0.685-0.045C18.867 9.191 19 9.411 19 9.662z" />
</svg>