<svg id="circle_f_Layer_1" viewBox="0 0 24 24" fill="currentColor" width="32" height="32" data-name="Layer 1" xmlns="http://www.w3.org/2000/svg" xmlns:xlink="http://www.w3.org/1999/xlink">
    <title>circle-f</title>
    <path d="M17 6.5C17 6.776 16.776 7 16.5 7H9.9C8.852 7 8 7.852 8 8.9V12h6.5c0.276 0 0.5 0.224 0.5 0.5S14.776 13 14.5 13H8v4.5C8 17.776 7.776 18 7.5 18S7 17.776 7 17.5V8.9C7 7.301 8.301 6 9.9 6h6.6C16.776 6 17 6.224 17 6.5zM24 12c0 6.617-5.383 12-12 12S0 18.617 0 12 5.383 0 12 0 24 5.383 24 12zM23 12c0-6.065-4.935-11-11-11S1 5.935 1 12 5.935 23 12 23s11-4.935 11-11z" />
</svg>