<svg id="circle_phone_Layer_1" viewBox="0 0 24 24" fill="currentColor" width="32" height="32" data-name="Layer 1" xmlns="http://www.w3.org/2000/svg" xmlns:xlink="http://www.w3.org/1999/xlink">
    <title>circle-phone</title>
    <path d="M12 24C5.383 24 0 18.617 0 12S5.383 0 12 0 24 5.383 24 12 18.617 24 12 24zM12 1C5.935 1 1 5.935 1 12s4.935 11 11 11 11-4.935 11-11S18.065 1 12 1zM15.404 19C10.931 19 5 13.068 5 8.595 5 7.631 5.365 6.736 6.027 6.074l0.675-0.589c0.606-0.611 1.777-0.633 2.433 0.023l1.126 1.459c0.286 0.279 0.467 0.715 0.467 1.18s-0.181 0.901-0.51 1.229l-0.699 0.883c0.877 2.022 2.26 3.409 4.216 4.225l0.91-0.725c0.678-0.655 1.765-0.65 2.437 0.021l1.361 1.04c0.727 0.721 0.727 1.824 0.049 2.501l-0.543 0.625c-0.685 0.688-1.58 1.052-2.545 1.054zM7.905 6C7.709 6 7.523 6.077 7.384 6.216L6.709 6.805C6.261 7.254 6 7.898 6 8.595 6 12.746 11.831 18 15.404 18c0.696 0 1.341-0.261 1.813-0.734l0.543-0.625c0.312-0.312 0.311-0.781 0.023-1.069l-1.361-1.04c-0.337-0.331-0.806-0.331-1.093-0.043l-1.424 1.137-0.267-0.102c-2.422-0.925-4.158-2.66-5.16-5.157l-0.108-0.27 1.102-1.386C9.65 8.529 9.727 8.344 9.727 8.147S9.65 7.765 9.51 7.626L8.384 6.167C8.287 6.076 8.102 6 7.905 6z" />
</svg>