<svg id="circle_nodes_Layer_1" viewBox="0 0 24 24" fill="currentColor" width="32" height="32" data-name="Layer 1" xmlns="http://www.w3.org/2000/svg" xmlns:xlink="http://www.w3.org/1999/xlink">
    <title>circle-nodes</title>
    <path d="M20 0c-2.206 0-4 1.794-4 4 0 0.241 0.03 0.475 0.071 0.704L7.63 7.342C6.998 5.964 5.613 5 4 5 1.794 5 0 6.794 0 9s1.794 4 4 4c0.985 0 1.876-0.371 2.573-0.963l6.17 5.656C12.279 18.346 12 19.139 12 20c0 2.206 1.794 4 4 4s4-1.794 4-4c0-1.695-1.063-3.138-2.555-3.719l2.082-8.328c0.157 0.019 0.311 0.048 0.472 0.048 2.206 0 4-1.794 4-4S22.206 0 20 0zM4 12c-1.654 0-3-1.346-3-3s1.346-3 3-3 3 1.346 3 3-1.346 3-3 3zM19 20c0 1.654-1.346 3-3 3s-3-1.346-3-3 1.346-3 3-3 3 1.346 3 3zM16.472 16.048C16.315 16.029 16.161 16 16 16c-0.985 0-1.876 0.371-2.573 0.963l-6.17-5.657C7.721 10.653 8 9.86 8 8.999 8 8.758 7.97 8.524 7.929 8.295l8.442-2.638c0.432 0.941 1.215 1.683 2.184 2.061zM20 7c-1.654 0-3-1.346-3-3s1.346-3 3-3 3 1.346 3 3-1.346 3-3 3z" />
</svg>