<svg id="circle_user_Layer_1" viewBox="0 0 24 24" fill="currentColor" width="32" height="32" data-name="Layer 1" xmlns="http://www.w3.org/2000/svg" xmlns:xlink="http://www.w3.org/1999/xlink">
    <title>circle-user</title>
    <path d="M12 0C5.383 0 0 5.383 0 12s5.383 12 12 12 12-5.383 12-12S18.617 0 12 0zM7 21.797V21c0-2.757 2.243-5 5-5s5 2.243 5 5v0.797C15.499 22.566 13.799 23 12 23s-3.499-0.434-5-1.203zM18 21.215V21c0-3.309-2.691-6-6-6s-6 2.691-6 6v0.215C2.992 19.25 1 15.853 1 12 1 5.935 5.935 1 12 1s11 4.935 11 11c0 3.853-1.992 7.25-5 9.215zM12 5C9.794 5 8 6.794 8 9s1.794 4 4 4 4-1.794 4-4-1.794-4-4-4zM12 12c-1.654 0-3-1.346-3-3s1.346-3 3-3 3 1.346 3 3-1.346 3-3 3z" />
</svg>