<svg id="circle_i_Layer_1" viewBox="0 0 24 24" fill="currentColor" width="32" height="32" data-name="Layer 1" xmlns="http://www.w3.org/2000/svg" xmlns:xlink="http://www.w3.org/1999/xlink">
    <title>circle-i</title>
    <path d="M12.5 7v10h3c0.276 0 0.5 0.224 0.5 0.5S15.776 18 15.5 18h-7C8.224 18 8 17.776 8 17.5S8.224 17 8.5 17h3V7h-3C8.224 7 8 6.776 8 6.5S8.224 6 8.5 6h7C15.776 6 16 6.224 16 6.5S15.776 7 15.5 7zM24 12c0 6.617-5.383 12-12 12S0 18.617 0 12 5.383 0 12 0 24 5.383 24 12zM23 12c0-6.065-4.935-11-11-11S1 5.935 1 12 5.935 23 12 23s11-4.935 11-11z" />
</svg>