<svg id="circle_z_Layer_1" viewBox="0 0 24 24" fill="currentColor" width="32" height="32" data-name="Layer 1" xmlns="http://www.w3.org/2000/svg" xmlns:xlink="http://www.w3.org/1999/xlink">
    <title>circle-z</title>
    <path d="M12 0C5.383 0 0 5.383 0 12s5.383 12 12 12 12-5.383 12-12S18.617 0 12 0zM12 23C5.935 23 1 18.065 1 12S5.935 1 12 1 23 5.935 23 12 18.065 23 12 23zM8.036 16.318C8.141 16.647 8.449 17 9 17h7.5c0.276 0 0.5 0.224 0.5 0.5S16.776 18 16.5 18H9c-0.897 0-1.649-0.541-1.916-1.378-0.26-0.814 0.029-1.664 0.736-2.165l7.768-5.725c0.534-0.379 0.418-0.899 0.37-1.051-0.105-0.329-0.413-0.682-0.964-0.682H7.5c-0.276 0-0.5-0.224-0.5-0.5s0.224-0.5 0.5-0.5h7.494c0.897 0 1.649 0.541 1.916 1.378 0.26 0.814-0.029 1.664-0.736 2.165l-7.768 5.725c-0.534 0.379-0.418 0.899-0.37 1.051z" />
</svg>