<svg id="circle_ellipsis_vertical_Layer_1" viewBox="0 0 24 24" fill="currentColor" width="32" height="32" data-name="Layer 1" xmlns="http://www.w3.org/2000/svg" xmlns:xlink="http://www.w3.org/1999/xlink">
    <title>circle-ellipsis-vertical</title>
    <path d="M12 0C5.383 0 0 5.383 0 12s5.383 12 12 12 12-5.383 12-12S18.617 0 12 0zM12 23C5.935 23 1 18.065 1 12S5.935 1 12 1 23 5.935 23 12 18.065 23 12 23zM13 6c0 0.552-0.448 1-1 1s-1-0.448-1-1 0.448-1 1-1 1 0.448 1 1zM13 18c0 0.552-0.448 1-1 1s-1-0.448-1-1 0.448-1 1-1 1 0.448 1 1zM13 12c0 0.552-0.448 1-1 1s-1-0.448-1-1 0.448-1 1-1 1 0.448 1 1z" />
</svg>