<svg id="circle_x_Layer_1" viewBox="0 0 24 24" fill="currentColor" width="32" height="32" data-name="Layer 1" xmlns="http://www.w3.org/2000/svg" xmlns:xlink="http://www.w3.org/1999/xlink">
    <title>circle-x</title>
    <path d="M12 0C5.383 0 0 5.383 0 12s5.383 12 12 12 12-5.383 12-12S18.617 0 12 0zM12 23C5.935 23 1 18.065 1 12S5.935 1 12 1 23 5.935 23 12 18.065 23 12 23zM16.646 6.806 12.632 12l4.014 5.194c0.169 0.219 0.129 0.532-0.09 0.701-0.091 0.07-0.198 0.104-0.306 0.104-0.149 0-0.297-0.066-0.396-0.194L12 12.817 8.146 17.805C8.047 17.933 7.9 17.999 7.75 17.999c-0.107 0-0.215-0.034-0.306-0.104-0.219-0.169-0.259-0.482-0.09-0.701L11.368 12 7.354 6.806c-0.169-0.219-0.129-0.532 0.09-0.701 0.217-0.168 0.531-0.13 0.701 0.09l3.854 4.988 3.854-4.988c0.17-0.22 0.484-0.257 0.701-0.09 0.219 0.169 0.259 0.482 0.092 0.701z" />
</svg>