<svg id="circle_n_Layer_1" viewBox="0 0 24 24" fill="currentColor" width="32" height="32" data-name="Layer 1" xmlns="http://www.w3.org/2000/svg" xmlns:xlink="http://www.w3.org/1999/xlink">
    <title>circle-n</title>
    <path d="M17 6.5v9.824c0 0.822-0.482 1.482-1.201 1.642C15.695 17.989 15.591 18 15.488 18c-0.595 0-1.15-0.375-1.442-1.002l-4.99-9.554C8.902 7.114 8.66 6.957 8.416 7.01 8.224 7.052 7.999 7.252 7.999 7.675v9.824c0 0.276-0.224 0.5-0.5 0.5s-0.5-0.224-0.5-0.5V7.676c0-0.822 0.482-1.482 1.201-1.642 0.709-0.159 1.41 0.233 1.752 0.968l4.99 9.554c0.154 0.329 0.393 0.485 0.64 0.434 0.192-0.042 0.417-0.242 0.417-0.665V6.5c0-0.276 0.224-0.5 0.5-0.5s0.5 0.224 0.501 0.5zM24 12c0 6.617-5.383 12-12 12S0 18.617 0 12 5.383 0 12 0 24 5.383 24 12zM23 12c0-6.065-4.935-11-11-11S1 5.935 1 12 5.935 23 12 23s11-4.935 11-11z" />
</svg>