<svg id="circle_microphone_Layer_1" viewBox="0 0 24 24" fill="currentColor" width="32" height="32" data-name="Layer 1" xmlns="http://www.w3.org/2000/svg" xmlns:xlink="http://www.w3.org/1999/xlink">
    <title>circle-microphone</title>
    <path d="M12 0C5.383 0 0 5.383 0 12s5.383 12 12 12 12-5.383 12-12S18.617 0 12 0zM12 23C5.935 23 1 18.065 1 12S5.935 1 12 1 23 5.935 23 12 18.065 23 12 23zM18 12c0 3.14-2.425 5.724-5.5 5.979V19.5c0 0.276-0.224 0.5-0.5 0.5s-0.5-0.224-0.5-0.5v-1.521C8.425 17.724 6 15.14 6 12c0-0.276 0.224-0.5 0.5-0.5S7 11.724 7 12c0 2.757 2.243 5 5 5s5-2.243 5-5c0-0.276 0.224-0.5 0.5-0.5S18 11.724 18 12zM12.005 14.984c1.654 0 3-1.346 3-3v-5c0-1.654-1.346-3-3-3s-3 1.346-3 3v5c0 1.654 1.346 3 3 3zM10.005 6.984c0-1.103 0.897-2 2-2s2 0.897 2 2v5c0 1.103-0.897 2-2 2s-2-0.897-2-2z" />
</svg>