<svg id="circle_xmark_Layer_1" viewBox="0 0 24 24" fill="currentColor" width="32" height="32" data-name="Layer 1" xmlns="http://www.w3.org/2000/svg" xmlns:xlink="http://www.w3.org/1999/xlink">
    <title>circle-xmark</title>
    <path d="M15.854 8.854 12.708 12l3.146 3.146c0.195 0.195 0.195 0.512 0 0.707-0.098 0.098-0.226 0.146-0.354 0.146s-0.256-0.049-0.354-0.146L12 12.707 8.854 15.853c-0.098 0.098-0.226 0.146-0.354 0.146s-0.256-0.049-0.354-0.146c-0.195-0.195-0.195-0.512 0-0.707L11.292 12 8.146 8.854c-0.195-0.195-0.195-0.512 0-0.707s0.512-0.195 0.707 0l3.146 3.146 3.146-3.146c0.195-0.195 0.512-0.195 0.707 0s0.195 0.512 2e-3 0.707zM24 12c0 6.617-5.383 12-12 12S0 18.617 0 12 5.383 0 12 0 24 5.383 24 12zM23 12c0-6.065-4.935-11-11-11S1 5.935 1 12 5.935 23 12 23s11-4.935 11-11z" />
</svg>