<svg id="circle_t_Layer_1" viewBox="0 0 24 24" fill="currentColor" width="32" height="32" data-name="Layer 1" xmlns="http://www.w3.org/2000/svg" xmlns:xlink="http://www.w3.org/1999/xlink">
    <title>circle-t</title>
    <path d="M17.75 7c0 0.276-0.224 0.5-0.5 0.5H12.5V18c0 0.276-0.224 0.5-0.5 0.5s-0.5-0.224-0.5-0.5V7.5H6.75c-0.276 0-0.5-0.224-0.5-0.5s0.224-0.5 0.5-0.5h10.5c0.276 0 0.5 0.224 0.5 0.5zM24 12c0 6.617-5.383 12-12 12S0 18.617 0 12 5.383 0 12 0 24 5.383 24 12zM23 12c0-6.065-4.935-11-11-11S1 5.935 1 12 5.935 23 12 23s11-4.935 11-11z" />
</svg>