<svg id="circle_quarters_alt_Layer_1" viewBox="0 0 24 24" fill="currentColor" width="32" height="32" data-name="Layer 1" xmlns="http://www.w3.org/2000/svg" xmlns:xlink="http://www.w3.org/1999/xlink">
    <title>circle-quarters-alt</title>
    <path d="M12 0C5.373 0 0 5.373 0 12s5.373 12 12 12 12-5.373 12-12S18.627 0 12 0zM12 1c2.853 0 5.456 1.092 7.413 2.88L12 11.293 4.587 3.88C6.544 2.092 9.147 1 12 1zM1 12c0-2.853 1.092-5.456 2.88-7.413L11.293 12 3.88 19.413C2.092 17.456 1 14.853 1 12zM12 23c-2.853 0-5.456-1.092-7.413-2.88L12 12.707l7.413 7.413C17.456 21.908 14.853 23 12 23zM20.12 19.413 12.707 12 20.12 4.587C21.908 6.544 23 9.147 23 12s-1.092 5.456-2.88 7.413z" />
</svg>