<svg id="circle_6_Layer_1" viewBox="0 0 24 24" fill="currentColor" width="32" height="32" data-name="Layer 1" xmlns="http://www.w3.org/2000/svg" xmlns:xlink="http://www.w3.org/1999/xlink">
    <title>circle-6</title>
    <path d="M12 0C5.383 0 0 5.383 0 12s5.383 12 12 12 12-5.383 12-12S18.617 0 12 0zM12 23C5.935 23 1 18.065 1 12S5.935 1 12 1 23 5.935 23 12 18.065 23 12 23zM12 10c-1.184 0-2.25 0.518-2.983 1.338C9.201 8.344 10.914 7 14.5 7 14.776 7 15 6.776 15 6.5S14.776 6 14.5 6C10.126 6 8 7.93 8 11.9V14c0 2.206 1.794 4 4 4s4-1.794 4-4-1.794-4-4-4zM12 17c-1.654 0-3-1.346-3-3s1.346-3 3-3 3 1.346 3 3-1.346 3-3 3z" />
</svg>