<svg id="circle_envelope_Layer_1" viewBox="0 0 24 24" fill="currentColor" width="32" height="32" data-name="Layer 1" xmlns="http://www.w3.org/2000/svg" xmlns:xlink="http://www.w3.org/1999/xlink">
    <title>circle-envelope</title>
    <path d="M15.5 6h-3e-3l-7 5e-3C6.568 6.005 5 7.576 5 9.505v3.998c0 0.935 0.364 1.814 1.025 2.474 0.66 0.659 1.538 1.022 2.473 1.022h7.004c1.929 0 3.498-1.571 3.498-3.5v-4c0-0.936-0.364-1.815-1.026-2.476C17.313 6.363 16.435 5.999 15.5 6zM15.497 7h3e-3c0.62 0 1.206 0.225 1.664 0.635L13.35 11.45c-0.717 0.717-1.966 0.717-2.683 0L6.848 7.631c0.44-0.388 1.017-0.625 1.649-0.625zM18 13.5c0 1.378-1.121 2.499-2.498 2.5H8.498c-0.667 0-1.295-0.259-1.767-0.73S6 14.171 6 13.503V9.505c0-0.382 0.086-0.744 0.24-1.068l3.72 3.72c0.548 0.547 1.275 0.849 2.049 0.849s1.501-0.301 2.048-0.849l3.711-3.711C17.92 8.772 18 9.13 18 9.501zM12 0C5.383 0 0 5.383 0 12s5.383 12 12 12 12-5.383 12-12S18.617 0 12 0zM12 23C5.935 23 1 18.065 1 12S5.935 1 12 1 23 5.935 23 12 18.065 23 12 23z" />
</svg>