<svg id="circle_wifi_circle_wifi_Layer_1" viewBox="0 0 24 24" fill="currentColor" width="32" height="32" data-name="Layer 1" xmlns="http://www.w3.org/2000/svg" xmlns:xlink="http://www.w3.org/1999/xlink">
    <title>circle-wifi-circle-wifi</title>
    <path d="M11.096 14c0 0.552-0.448 1-1 1s-1-0.448-1-1 0.448-1 1-1 1 0.448 1 1zM16.813 7.783c0.128 0 0.256-0.049 0.354-0.146 0.195-0.195 0.195-0.512 0-0.707-1.889-1.889-4.4-2.929-7.071-2.929S4.914 5.041 3.025 6.93c-0.195 0.195-0.195 0.512 0 0.707s0.512 0.195 0.707 0c1.7-1.7 3.96-2.636 6.364-2.636s4.664 0.936 6.364 2.636c0.098 0.098 0.226 0.146 0.353 0.146zM7.267 11.172c-0.195 0.195-0.195 0.512 0 0.707s0.512 0.195 0.707 0c1.169-1.17 3.073-1.17 4.243 0 0.098 0.098 0.226 0.146 0.354 0.146s0.256-0.049 0.354-0.146c0.195-0.195 0.195-0.512 0-0.707-1.56-1.56-4.097-1.56-5.658 0zM14.692 9.904c0.128 0 0.256-0.049 0.354-0.146 0.195-0.195 0.195-0.512 0-0.707-1.322-1.322-3.08-2.05-4.95-2.05s-3.627 0.728-4.95 2.05c-0.195 0.195-0.195 0.512 0 0.707s0.512 0.195 0.707 0c2.34-2.339 6.146-2.339 8.485 0 0.098 0.098 0.226 0.146 0.354 0.146zM17.5 19c-0.552 0-1 0.448-1 1s0.448 1 1 1 1-0.448 1-1-0.448-1-1-1zM13.964 16.464c-0.195 0.195-0.195 0.512 0 0.707s0.512 0.195 0.707 0c1.56-1.56 4.098-1.56 5.657 0 0.098 0.098 0.226 0.146 0.354 0.146s0.256-0.049 0.354-0.146c0.195-0.195 0.195-0.512 0-0.707-1.949-1.949-5.122-1.949-7.072 0zM15.379 17.879c-0.195 0.195-0.195 0.512 0 0.707s0.512 0.195 0.707 0c0.756-0.756 2.072-0.756 2.828 0 0.098 0.098 0.226 0.146 0.354 0.146s0.256-0.049 0.354-0.146c0.195-0.195 0.195-0.512 0-0.707-1.133-1.134-3.109-1.134-4.243 0zM24 17.5c0 3.584-2.916 6.5-6.5 6.5S11 21.084 11 17.5 13.916 11 17.5 11 24 13.916 24 17.5zM23 17.5c0-3.033-2.467-5.5-5.5-5.5S12 14.467 12 17.5 14.467 23 17.5 23 23 20.533 23 17.5zM8.578 18.889C4.187 18.192 1 14.454 1 10c0-4.962 4.038-9 9-9 4.454 0 8.192 3.187 8.889 7.578 0.043 0.273 0.301 0.461 0.572 0.416 0.273-0.043 0.459-0.299 0.416-0.572C19.102 3.542 14.949 0 10 0 4.486 0 0 4.486 0 10c0 4.949 3.542 9.102 8.422 9.876 0.026 4e-3 0.053 6e-3 0.079 6e-3 0.242 0 0.454-0.175 0.493-0.422 0.043-0.272-0.143-0.529-0.416-0.571z" />
</svg>