<svg id="circle_h_Layer_1" viewBox="0 0 24 24" fill="currentColor" width="32" height="32" data-name="Layer 1" xmlns="http://www.w3.org/2000/svg" xmlns:xlink="http://www.w3.org/1999/xlink">
    <title>circle-h</title>
    <path d="M12 0C5.383 0 0 5.383 0 12s5.383 12 12 12 12-5.383 12-12S18.617 0 12 0zM12 23C5.935 23 1 18.065 1 12S5.935 1 12 1 23 5.935 23 12 18.065 23 12 23zM17 6.5v11c0 0.276-0.224 0.5-0.5 0.5S16 17.776 16 17.5v-5H8v5C8 17.776 7.776 18 7.5 18S7 17.776 7 17.5v-11C7 6.224 7.224 6 7.5 6S8 6.224 8 6.5v5h8v-5C16 6.224 16.224 6 16.5 6S17 6.224 17 6.5z" />
</svg>