<svg id="circle_heart_Layer_1" viewBox="0 0 24 24" fill="currentColor" width="32" height="32" data-name="Layer 1" xmlns="http://www.w3.org/2000/svg" xmlns:xlink="http://www.w3.org/1999/xlink">
    <title>circle-heart</title>
    <path d="M12 24C5.38 24 0 18.62 0 12S5.38 0 12 0 24 5.38 24 12 18.62 24 12 24zM12 1C5.93 1 1 5.93 1 12s4.93 11 11 11 11-4.93 11-11S18.07 1 12 1zM12 18c-0.42 0-0.83-0.14-1.17-0.42C9.03 16.09 6 13.21 6 10.61 6 8.62 7.46 7 9.25 7 10.41 7 11.42 7.67 12 8.69 12.58 7.68 13.59 7 14.75 7 16.54 7 18 8.62 18 10.61c0 2.6-3.03 5.48-4.83 6.97C12.83 17.86 12.41 18 12 18zM9.25 8C8.01 8 7 9.17 7 10.61c0 2.27 3.12 5.09 4.47 6.2 0.31 0.26 0.75 0.26 1.07 0 1.34-1.11 4.46-3.93 4.46-6.2C17 9.17 15.99 8 14.75 8s-2.25 1.17-2.25 2.61c0 0.28-0.22 0.5-0.5 0.5s-0.5-0.22-0.5-0.5C11.5 9.17 10.49 8 9.25 8z" />
</svg>