<svg id="circle_phone_hangup_Layer_1" viewBox="0 0 24 24" fill="currentColor" width="32" height="32" data-name="Layer 1" xmlns="http://www.w3.org/2000/svg" xmlns:xlink="http://www.w3.org/1999/xlink">
    <title>circle-phone-hangup</title>
    <path d="M12 24C5.383 24 0 18.617 0 12S5.383 0 12 0 24 5.383 24 12 18.617 24 12 24zM12 1C5.935 1 1 5.935 1 12s4.935 11 11 11 11-4.935 11-11S18.065 1 12 1zM18.27 15l-1.736-0.224h-7e-3c-0.846 0-1.585-0.733-1.601-1.64l-0.125-1.185c-1.839-0.752-3.677-0.75-5.602 5e-3l-0.127 1.203c3e-3 0.87-0.748 1.621-1.67 1.621l-1.606 0.215h-8e-3c-0.984 0-1.73-0.749-1.73-1.669l-0.056-1.159c-1e-3-0.917 0.356-1.769 1.008-2.42 3.006-3.006 10.978-3.006 13.983 0 0.651 0.651 1.009 1.502 1.008 2.396l-0.057 1.207c0 0.899-0.75 1.649-1.674 1.65zM12.039 10.395c1.16 0 2.307 0.252 3.433 0.756l0.263 0.118 0.192 1.839c0 0.371 0.302 0.673 0.673 0.673l1.736 0.224c0.307-4e-3 0.609-0.307 0.609-0.678l0.057-1.207c0-0.604-0.254-1.203-0.716-1.665-2.387-2.387-9.795-2.773-12.569 0-0.462 0.462-0.716 1.062-0.715 1.688l0.056 1.16C5.058 13.698 5.361 14 5.732 14l1.606-0.215c0.436-4e-3 0.738-0.307 0.738-0.678l0.192-1.845 0.27-0.115c1.175-0.501 2.345-0.752 3.501-0.752z" />
</svg>