<svg id="circle_u_Layer_1" viewBox="0 0 24 24" fill="currentColor" width="32" height="32" data-name="Layer 1" xmlns="http://www.w3.org/2000/svg" xmlns:xlink="http://www.w3.org/1999/xlink">
    <title>circle-u</title>
    <path d="M12 0C5.383 0 0 5.383 0 12s5.383 12 12 12 12-5.383 12-12S18.617 0 12 0zM12 23C5.935 23 1 18.065 1 12S5.935 1 12 1 23 5.935 23 12 18.065 23 12 23zM17 7v6.5c0 2.757-2.243 5-5 5s-5-2.243-5-5V7c0-0.276 0.224-0.5 0.5-0.5S8 6.724 8 7v6.5c0 2.206 1.794 4 4 4s4-1.794 4-4V7c0-0.276 0.224-0.5 0.5-0.5S17 6.724 17 7z" />
</svg>