<svg id="circle_bolt_Layer_1" viewBox="0 0 24 24" fill="currentColor" width="32" height="32" data-name="Layer 1" xmlns="http://www.w3.org/2000/svg" xmlns:xlink="http://www.w3.org/1999/xlink">
    <title>circle-bolt</title>
    <path d="M12 24C5.38 24 0 18.62 0 12S5.38 0 12 0 24 5.38 24 12 18.62 24 12 24zM12 1C5.93 1 1 5.93 1 12s4.93 11 11 11 11-4.93 11-11S18.07 1 12 1zM12.43 18.76l3.39-5.55c0.23-0.34 0.25-0.77 0.05-1.13-0.19-0.36-0.57-0.58-0.97-0.58H9.12c0 0-0.08-0.03-0.09-0.05-0.01-0.01-0.02-0.04-0.02-0.06l3.43-5.63c0.14-0.24 0.07-0.54-0.17-0.69-0.24-0.14-0.54-0.07-0.69 0.17 0 0-3.51 5.78-3.52 5.82-0.1 0.34-0.04 0.7 0.17 0.99s0.54 0.45 0.9 0.45h5.78c0 0 0.07 0.02 0.09 0.05s0.02 0.07-0.02 0.12l-3.4 5.56c-0.14 0.24-0.07 0.54 0.17 0.69 0.08 0.05 0.17 0.07 0.26 0.07 0.17 0 0.33-0.08 0.42-0.23z" />
</svg>