<svg id="circle_4_Layer_1" viewBox="0 0 24 24" fill="currentColor" width="32" height="32" data-name="Layer 1" xmlns="http://www.w3.org/2000/svg" xmlns:xlink="http://www.w3.org/1999/xlink">
    <title>circle-4</title>
    <path d="M12 0C5.383 0 0 5.383 0 12s5.383 12 12 12 12-5.383 12-12S18.617 0 12 0zM12 23C5.935 23 1 18.065 1 12S5.935 1 12 1 23 5.935 23 12 18.065 23 12 23zM16 6.5v11c0 0.276-0.224 0.5-0.5 0.5S15 17.776 15 17.5V14h-4.5C9.121 14 8 12.879 8 11.5v-5C8 6.224 8.224 6 8.5 6S9 6.224 9 6.5v5c0 0.827 0.673 1.5 1.5 1.5H15V6.5C15 6.224 15.224 6 15.5 6S16 6.224 16 6.5z" />
</svg>