<svg id="circle_waveform_lines_Layer_1" viewBox="0 0 24 24" fill="currentColor" width="32" height="32" data-name="Layer 1" xmlns="http://www.w3.org/2000/svg" xmlns:xlink="http://www.w3.org/1999/xlink">
    <title>circle-waveform-lines</title>
    <path d="M12 0C5.383 0 0 5.383 0 12s5.383 12 12 12 12-5.383 12-12S18.617 0 12 0zM12 23C5.935 23 1 18.065 1 12S5.935 1 12 1 23 5.935 23 12 18.065 23 12 23zM11 5.5v13c0 0.276-0.224 0.5-0.5 0.5S10 18.776 10 18.5v-13C10 5.224 10.224 5 10.5 5S11 5.224 11 5.5zM7 8.5v7C7 15.776 6.776 16 6.5 16S6 15.776 6 15.5v-7C6 8.224 6.224 8 6.5 8S7 8.224 7 8.5zM15 7.5v9c0 0.276-0.224 0.5-0.5 0.5S14 16.776 14 16.5v-9C14 7.224 14.224 7 14.5 7S15 7.224 15 7.5zM19 10.5v4c0 0.276-0.224 0.5-0.5 0.5S18 14.776 18 14.5v-4c0-0.276 0.224-0.5 0.5-0.5s0.5 0.224 0.5 0.5z" />
</svg>