<svg id="circle_q_Layer_1" viewBox="0 0 24 24" fill="currentColor" width="32" height="32" data-name="Layer 1" xmlns="http://www.w3.org/2000/svg" xmlns:xlink="http://www.w3.org/1999/xlink">
    <title>circle-q</title>
    <path d="M12 0C5.383 0 0 5.383 0 12s5.383 12 12 12 12-5.383 12-12S18.617 0 12 0zM12 23C5.935 23 1 18.065 1 12S5.935 1 12 1 23 5.935 23 12 18.065 23 12 23zM15.98 16.273c0.64-0.84 1.02-1.888 1.02-3.023v-2.5c0-2.757-2.243-5-5-5s-5 2.243-5 5v2.5c0 2.757 2.243 5 5 5 1.262 0 2.417-0.471 3.298-1.245l1.349 1.349c0.098 0.098 0.226 0.146 0.354 0.146s0.256-0.049 0.354-0.146c0.195-0.195 0.195-0.512 0-0.707zM12 17.25c-2.206 0-4-1.794-4-4v-2.5c0-2.206 1.794-4 4-4s4 1.794 4 4v2.5c0 0.859-0.272 1.656-0.735 2.308l-1.662-1.662c-0.195-0.195-0.512-0.195-0.707 0s-0.195 0.512 0 0.707l1.693 1.693C13.891 16.89 12.986 17.25 12 17.25z" />
</svg>