<svg id="circle_k_Layer_1" viewBox="0 0 24 24" fill="currentColor" width="32" height="32" data-name="Layer 1" xmlns="http://www.w3.org/2000/svg" xmlns:xlink="http://www.w3.org/1999/xlink">
    <title>circle-k</title>
    <path d="M12 0C5.383 0 0 5.383 0 12s5.383 12 12 12 12-5.383 12-12S18.617 0 12 0zM12 23C5.935 23 1 18.065 1 12S5.935 1 12 1 23 5.935 23 12 18.065 23 12 23zM16.668 17.225c0.151 0.231 0.088 0.541-0.143 0.693C16.44 17.974 16.344 18 16.25 18c-0.162 0-0.321-0.079-0.418-0.225L12.03 12H8.128l0.122 5.238c6e-3 0.276-0.212 0.505-0.488 0.512H7.75c-0.271 0-0.493-0.216-0.5-0.488L7 6.512C6.994 6.236 7.212 6.007 7.488 6 7.787 6.017 7.993 6.212 8 6.488L8.105 11h3.952l3.8-4.81c0.172-0.216 0.486-0.253 0.702-0.082 0.217 0.171 0.254 0.485 0.083 0.702l-3.727 4.717z" />
</svg>