<svg id="circle_water_plug_Layer_1" viewBox="0 0 24 24" fill="currentColor" width="32" height="32" data-name="Layer 1" xmlns="http://www.w3.org/2000/svg" xmlns:xlink="http://www.w3.org/1999/xlink">
    <title>circle-water-plug</title>
    <path d="M15.465 10.536C16.408 11.48 17.664 12 19 12s2.592-0.52 3.535-1.464c1.924-1.923 1.956-5.048 0.077-7.269-4e-3-4e-3-7e-3-8e-3-0.011-0.012l-2.547-2.824c-0.228-0.222-0.503-0.432-1.055-0.432-0.498 0-0.828 0.21-1.076 0.455l-2.536 2.812c-1.879 2.221-1.847 5.346 0.078 7.27zM16.141 3.924l2.463-2.715c0.152-0.167 0.297-0.217 0.42-0.217s0.238 0.07 0.384 0.21l2.446 2.717c1.536 1.82 1.525 4.36-0.025 5.91-1.51 1.511-4.146 1.511-5.656 0-1.553-1.552-1.562-4.095-0.032-5.905zM12.5 17.953v3.215c0 0.883-0.401 1.7-1.102 2.241C10.896 23.797 10.296 24 9.682 24c-0.237 0-0.475-0.03-0.711-0.091C3.689 22.535 0 17.692 0 12c0-0.451 0.025-0.91 0.075-1.364 0.609-5.511 5.05-9.952 10.561-10.561C11.092 0.025 11.551 0 12 0c1.1 0 1.838 0.114 2.608 0.284 0.27 0.06 0.439 0.327 0.38 0.596s-0.314 0.439-0.597 0.38c-0.727-0.161-1.38-0.261-2.392-0.261-0.413 0-0.835 0.023-1.255 0.069-5.048 0.559-9.117 4.628-9.675 9.677C1.023 11.163 1 11.585 1 12c0 5.183 3.382 9.682 8.224 10.941 0.546 0.143 1.115 0.024 1.563-0.323 0.454-0.351 0.713-0.879 0.713-1.45v-3.219C8.98 17.694 7 15.585 7 13v-2H6.5C6.224 11 6 10.776 6 10.5S6.224 10 6.5 10H9V6.5C9 6.224 9.224 6 9.5 6S10 6.224 10 6.5V10h2.5c0.276 0 0.5 0.224 0.5 0.5S12.776 11 12.5 11H8v2c0 2.206 1.794 4 4 4 2.042 0 3.751-1.528 3.976-3.555 0.03-0.274 0.277-0.474 0.552-0.442 0.274 0.03 0.473 0.278 0.442 0.552-0.262 2.364-2.146 4.165-4.47 4.398zM23.899 13.564c-0.599 4.587-3.836 8.461-8.247 9.87-0.257 0.083-0.545-0.059-0.629-0.325-0.084-0.263 0.062-0.544 0.324-0.628 4.044-1.291 7.012-4.841 7.56-9.045 0.036-0.274 0.291-0.468 0.561-0.431 0.274 0.036 0.467 0.287 0.431 0.559z" />
</svg>