<svg id="circle_1_Layer_1" viewBox="0 0 24 24" fill="currentColor" width="32" height="32" data-name="Layer 1" xmlns="http://www.w3.org/2000/svg" xmlns:xlink="http://www.w3.org/1999/xlink">
    <title>circle-1</title>
    <path d="M12 24C5.383 24 0 18.617 0 12S5.383 0 12 0 24 5.383 24 12 18.617 24 12 24zM12 1C5.935 1 1 5.935 1 12s4.935 11 11 11 11-4.935 11-11S18.065 1 12 1zM13 17.5V7.077c0-0.437-0.261-0.827-0.664-0.994-0.405-0.165-0.864-0.075-1.226 0.297L9.092 9.21c-0.16 0.225-0.108 0.537 0.117 0.697s0.537 0.108 0.697-0.117L11.9 6.993l0.099 0.084V17.5c0 0.276 0.224 0.5 0.5 0.5s0.5-0.224 0.501-0.5z" />
</svg>