<svg id="circle_3_Layer_1" viewBox="0 0 24 24" fill="currentColor" width="32" height="32" data-name="Layer 1" xmlns="http://www.w3.org/2000/svg" xmlns:xlink="http://www.w3.org/1999/xlink">
    <title>circle-3</title>
    <path d="M12 0C5.383 0 0 5.383 0 12s5.383 12 12 12 12-5.383 12-12S18.617 0 12 0zM12 23C5.935 23 1 18.065 1 12S5.935 1 12 1 23 5.935 23 12 18.065 23 12 23zM17 14.5c0 1.93-1.57 3.5-3.5 3.5h-5C8.224 18 8 17.776 8 17.5S8.224 17 8.5 17h5c1.379 0 2.5-1.121 2.5-2.5S14.879 12 13.5 12h-4C9.224 12 9 11.776 9 11.5S9.224 11 9.5 11H13c1.103 0 2-0.897 2-2s-0.897-2-2-2H8.5C8.224 7 8 6.776 8 6.5S8.224 6 8.5 6H13c1.654 0 3 1.346 3 3 0 0.924-0.42 1.751-1.079 2.302C16.145 11.848 17 13.076 17 14.5z" />
</svg>