<svg id="circle_5_Layer_1" viewBox="0 0 24 24" fill="currentColor" width="32" height="32" data-name="Layer 1" xmlns="http://www.w3.org/2000/svg" xmlns:xlink="http://www.w3.org/1999/xlink">
    <title>circle-5</title>
    <path d="M12 24C5.383 24 0 18.617 0 12S5.383 0 12 0 24 5.383 24 12 18.617 24 12 24zM12 1C5.935 1 1 5.935 1 12s4.935 11 11 11 11-4.935 11-11S18.065 1 12 1zM15.038 16.909c0.668-0.703 1.008-1.625 0.957-2.597C15.899 12.486 14.256 11 12.33 11H9V7.5C9 7.225 9.225 7 9.5 7h5C14.776 7 15 6.776 15 6.5S14.776 6 14.5 6h-5C8.673 6 8 6.673 8 7.5v4C8 11.776 8.224 12 8.5 12h3.83c1.402 0 2.599 1.061 2.667 2.365 0.036 0.694-0.207 1.354-0.684 1.855-0.478 0.503-1.121 0.779-1.813 0.779h-4c-0.276 0-0.5 0.224-0.5 0.5s0.224 0.5 0.5 0.5h4c0.969 0 1.871-0.388 2.538-1.09z" />
</svg>