<svg id="circle_a_Layer_1" viewBox="0 0 24 24" fill="currentColor" width="32" height="32" data-name="Layer 1" xmlns="http://www.w3.org/2000/svg" xmlns:xlink="http://www.w3.org/1999/xlink">
    <title>circle-a</title>
    <path d="M14.068 6.838C13.723 6.012 12.931 5.5 12 5.5s-1.724 0.513-2.071 1.345l-3.893 9.719c-0.103 0.256 0.022 0.547 0.278 0.65 0.256 0.102 0.547-0.022 0.65-0.278L8.14 14h7.545l1.096 2.925c0.075 0.201 0.266 0.325 0.468 0.325 0.059 0 0.118-0.01 0.175-0.032 0.259-0.097 0.39-0.385 0.293-0.644zM8.54 13l2.314-5.777C11.077 6.69 11.592 6.5 12 6.5s0.923 0.19 1.139 0.706L15.311 13zM12 0C5.383 0 0 5.383 0 12s5.383 12 12 12 12-5.383 12-12S18.617 0 12 0zM12 23C5.935 23 1 18.065 1 12S5.935 1 12 1 23 5.935 23 12 18.065 23 12 23z" />
</svg>