<svg id="circle_c_Layer_1" viewBox="0 0 24 24" fill="currentColor" width="32" height="32" data-name="Layer 1" xmlns="http://www.w3.org/2000/svg" xmlns:xlink="http://www.w3.org/1999/xlink">
    <title>circle-c</title>
    <path d="M12 0C5.383 0 0 5.383 0 12s5.383 12 12 12 12-5.383 12-12S18.617 0 12 0zM12 23C5.935 23 1 18.065 1 12S5.935 1 12 1 23 5.935 23 12 18.065 23 12 23zM7.5 11.115v1.77c0 2.407 2.007 4.365 4.473 4.365 1.691 0 3.22-0.914 3.988-2.385 0.13-0.245 0.431-0.339 0.675-0.212 0.245 0.128 0.34 0.43 0.212 0.675-0.942 1.803-2.811 2.922-4.875 2.922-3.018 0-5.473-2.407-5.473-5.365v-1.77c0-2.958 2.455-5.365 5.473-5.365 2.064 0 3.933 1.12 4.875 2.922 0.128 0.245 0.033 0.547-0.212 0.675-0.245 0.126-0.546 0.033-0.675-0.212-0.769-1.471-2.297-2.385-3.988-2.385-2.466 0-4.473 1.958-4.473 4.365z" />
</svg>