<svg id="city_Layer_1" viewBox="0 0 24 24" fill="currentColor" width="32" height="32" data-name="Layer 1" xmlns="http://www.w3.org/2000/svg" xmlns:xlink="http://www.w3.org/1999/xlink">
    <title>city</title>
    <path d="M16 13.5c0 0.276-0.224 0.5-0.5 0.5h-1c-0.276 0-0.5-0.224-0.5-0.5s0.224-0.5 0.5-0.5h1c0.276 0 0.5 0.224 0.5 0.5zM19.5 13h-1c-0.276 0-0.5 0.224-0.5 0.5s0.224 0.5 0.5 0.5h1c0.276 0 0.5-0.224 0.5-0.5S19.776 13 19.5 13zM15.5 17h-1c-0.276 0-0.5 0.224-0.5 0.5s0.224 0.5 0.5 0.5h1c0.276 0 0.5-0.224 0.5-0.5S15.776 17 15.5 17zM19.5 17h-1c-0.276 0-0.5 0.224-0.5 0.5s0.224 0.5 0.5 0.5h1c0.276 0 0.5-0.224 0.5-0.5S19.776 17 19.5 17zM15.5 5h-1C14.224 5 14 5.224 14 5.5S14.224 6 14.5 6h1C15.776 6 16 5.776 16 5.5S15.776 5 15.5 5zM19.5 5h-1C18.224 5 18 5.224 18 5.5S18.224 6 18.5 6h1C19.776 6 20 5.776 20 5.5S19.776 5 19.5 5zM15.5 9h-1C14.224 9 14 9.224 14 9.5s0.224 0.5 0.5 0.5h1c0.276 0 0.5-0.224 0.5-0.5S15.776 9 15.5 9zM19.5 9h-1C18.224 9 18 9.224 18 9.5s0.224 0.5 0.5 0.5h1c0.276 0 0.5-0.224 0.5-0.5S19.776 9 19.5 9zM24 4.5v15c0 2.481-2.019 4.5-4.5 4.5h-15C2.019 24 0 21.981 0 19.5V8.852c0-1.216 0.502-2.397 1.378-3.241L3.072 3.98c1.361-1.312 3.494-1.312 4.855 0l1.694 1.631c0.135 0.13 0.262 0.269 0.378 0.414V4.501c0-2.481 2.019-4.5 4.5-4.5h5c2.481 0 4.5 2.019 4.501 4.499zM10 8.852c0-0.946-0.391-1.865-1.072-2.521L7.234 4.7C6.748 4.231 6.124 3.997 5.5 3.997S4.252 4.231 3.766 4.7L2.072 6.332C1.391 6.988 1 7.907 1 8.853v10.648c0 1.93 1.57 3.5 3.5 3.5H10zM23 4.5C23 2.57 21.43 1 19.5 1h-5C12.57 1 11 2.57 11 4.5V23h8.5c1.93 0 3.5-1.57 3.5-3.5zM6.5 13h-2C4.224 13 4 13.224 4 13.5S4.224 14 4.5 14h2C6.776 14 7 13.776 7 13.5S6.776 13 6.5 13zM6.5 9h-2C4.224 9 4 9.224 4 9.5S4.224 10 4.5 10h2C6.776 10 7 9.776 7 9.5S6.776 9 6.5 9zM6.5 17h-2C4.224 17 4 17.224 4 17.5S4.224 18 4.5 18h2C6.776 18 7 17.776 7 17.5S6.776 17 6.5 17z" />
</svg>