<svg id="civil_law_Layer_1" viewBox="0 0 24 24" fill="currentColor" width="32" height="32" data-name="Layer 1" xmlns="http://www.w3.org/2000/svg" xmlns:xlink="http://www.w3.org/1999/xlink">
    <title>civil-law</title>
    <path d="M20.253 5H23.5C23.776 5 24 4.776 24 4.5S23.776 4 23.5 4H16V1.5C16 0.673 15.327 0 14.5 0c-0.384 0-0.734 0.145-1 0.383-0.531-0.476-1.469-0.476-2 0C11.234 0.145 10.884 0 10.5 0 9.673 0 9 0.673 9 1.5v1.129C8.473 2.442 7.859 2.561 7.439 2.983 7.158 3.264 7.019 3.632 7.008 4.001H0.5c-0.276 0-0.5 0.224-0.5 0.5s0.224 0.5 0.5 0.5h3.247l-3.708 8.805C0.014 13.867 0 13.933 0 14v0.5C0 16.981 2.019 19 4.5 19S9 16.981 9 14.5V14c0-0.066-0.014-0.133-0.039-0.194L5.253 5h2.116c0.025 0.112 1.693 1.74 1.759 1.834C9.163 6.874 9.452 7.185 10 7.477V23.5c0 0.276 0.224 0.5 0.5 0.5s0.5-0.224 0.5-0.5V7.164c0-0.199-0.118-0.378-0.3-0.458-0.545-0.238-0.828-0.54-0.842-0.555L8.146 4.397c-0.195-0.195-0.195-0.512 0-0.707s0.512-0.195 0.707 0l0.293 0.293C9.29 4.127 9.503 4.171 9.691 4.092 9.878 4.015 10 3.832 10 3.63V1.5C10 1.224 10.225 1 10.5 1S11 1.224 11 1.5V2c0 0.276 0.224 0.5 0.5 0.5S12 2.276 12 2V1.5C12 1.224 12.225 1 12.5 1S13 1.224 13 1.5V2c0 0.276 0.224 0.5 0.5 0.5S14 2.276 14 2V1.5C14 1.224 14.225 1 14.5 1S15 1.224 15 1.5v2.667c0 1.124-0.668 2.142-1.7 2.594C13.117 6.841 13 7.02 13 7.219V23.5c0 0.276 0.224 0.5 0.5 0.5s0.5-0.224 0.5-0.5V7.53c0.977-0.533 1.66-1.462 1.9-2.53h2.847l-3.708 8.806C15.014 13.867 15 13.933 15 14v0.5c0 2.481 2.019 4.5 4.5 4.5s4.5-2.019 4.5-4.5V14c0-0.066-0.014-0.133-0.039-0.194zM4.5 5.789 7.957 14H1.043zM4.5 18c-1.76 0-3.221-1.306-3.465-3h6.93C7.721 16.694 6.26 18 4.5 18zM19.5 5.789 22.957 14h-6.914zM19.5 18c-1.76 0-3.221-1.306-3.465-3h6.93c-0.244 1.694-1.705 3-3.465 3z" />
</svg>