<svg id="clapper_open_Layer_1" viewBox="0 0 24 24" fill="currentColor" width="32" height="32" data-name="Layer 1" xmlns="http://www.w3.org/2000/svg" xmlns:xlink="http://www.w3.org/1999/xlink">
    <title>clapper-open</title>
    <path d="M21.5 10H5.709l16.032-4.028c1.055-0.241 1.746-1.407 1.446-2.448l-0.198-0.752c-0.2-0.938-0.759-1.734-1.572-2.241s-1.776-0.655-2.706-0.424L2.685 4.142C0.854 4.603-0.292 6.474 0.131 8.328l0.86 3.292c1e-3 5e-3 7e-3 8e-3 9e-3 0.013V19.5C1 21.981 3.019 24 5.5 24h14c2.481 0 4.5-2.019 4.5-4.5v-7c0-1.379-1.121-2.5-2.5-2.5zM8.013 3.832l4.512-1.136-3.512 5.443-4.509 1.133 3.5-5.418c4e-3-7e-3 5e-3-0.015 9e-3-0.022zM18.567 1.175 15.143 6.599 10.434 7.782l3.512-5.444zM22.017 3.003l0.204 0.775c0.149 0.521-0.196 1.103-0.724 1.224l-4.95 1.244 3.289-5.208c0.368 0.04 0.728 0.14 1.052 0.342 0.581 0.362 0.98 0.931 1.129 1.623zM2.929 5.111 6.598 4.188 3.093 9.613c0 0-3e-3 0.01-6e-3 0.014L1.604 10H1.6L1.101 8.091c-0.299-1.313 0.521-2.65 1.828-2.98zM23 19.5c0 1.93-1.57 3.5-3.5 3.5h-14C3.57 23 2 21.43 2 19.5V11h19.5c0.827 0 1.5 0.673 1.5 1.5z" />
</svg>