<svg id="clapperboard_Layer_1" viewBox="0 0 24 24" fill="currentColor" width="32" height="32" data-name="Layer 1" xmlns="http://www.w3.org/2000/svg" xmlns:xlink="http://www.w3.org/1999/xlink">
    <title>clapperboard</title>
    <path d="M19.5 1h-15C2.019 1 0 3.019 0 5.5v13C0 20.981 2.019 23 4.5 23h15c2.481 0 4.5-2.019 4.5-4.5v-13C24 3.019 21.981 1 19.5 1zM19.5 2c0.283 0 0.557 0.034 0.821 0.097L15.418 7h-4.836l5-5zM14.168 2l-5 5H4.225l5.106-5zM1 5.5C1 3.57 2.57 2 4.5 2h3.402L2.796 7H1zM23 18.5c0 1.93-1.57 3.5-3.5 3.5h-15C2.57 22 1 20.43 1 18.5V8h22zM23 7h-6.168l4.488-4.488C22.327 3.127 23 4.236 23 5.5z" />
</svg>