<svg id="clarinet_Layer_1" viewBox="0 0 24 24" fill="currentColor" width="32" height="32" data-name="Layer 1" xmlns="http://www.w3.org/2000/svg" xmlns:xlink="http://www.w3.org/1999/xlink">
    <title>clarinet</title>
    <path d="M23.269 7.197c-0.41-0.259-0.927-0.264-1.458-8e-3-0.172 0.082-0.381 0.194-0.621 0.323-1.03 0.557-2.754 1.487-4.689 1.487h-0.5v-0.5c0-0.276-0.224-0.5-0.5-0.5s-0.5 0.224-0.5 0.5v0.5h-4v-0.5c0-0.276-0.224-0.5-0.5-0.5s-0.5 0.224-0.5 0.5v0.5h-3.5c-0.163 0-0.331 8e-3-0.5 0.023V8.499c0-0.276-0.224-0.5-0.5-0.5s-0.5 0.224-0.5 0.5v0.677c-1.252 0.268-2.54 0.796-3.522 1.261-0.897 0.425-1.478 1.345-1.478 2.343v0.504c0 0.979 0.536 1.862 1.398 2.304C2.66 16.233 4.568 17 6.501 17h10c1.637 0 3.732 1.042 4.858 1.602l0.427 0.209c0.263 0.126 0.522 0.188 0.767 0.188 0.25 0 0.484-0.065 0.691-0.196 0.48-0.303 0.757-0.929 0.757-1.716l0.025-8.172c0-0.788-0.276-1.414-0.757-1.718zM23 17.083v2e-3c0 0.419-0.114 0.761-0.291 0.872-0.137 0.087-0.345 0.021-0.494-0.049l-0.411-0.202C20.605 17.109 18.371 16 16.5 16h-10c-1.733 0-3.483-0.708-4.646-1.303C1.328 14.427 1 13.886 1 13.284V12.78c0-0.613 0.355-1.179 0.905-1.438C2.964 10.841 4.968 10 6.5 10h10c2.188 0 4.052-1.006 5.165-1.607 0.223-0.12 0.415-0.225 0.575-0.301 0.149-0.071 0.357-0.138 0.494-0.049 0.177 0.111 0.291 0.453 0.291 0.87zM12 13c0 0.552-0.448 1-1 1s-1-0.448-1-1 0.448-1 1-1 1 0.448 1 1zM7 13c0 0.552-0.448 1-1 1s-1-0.448-1-1 0.448-1 1-1 1 0.448 1 1zM17 13c0 0.552-0.448 1-1 1s-1-0.448-1-1 0.448-1 1-1 1 0.448 1 1z" />
</svg>