<svg id="claw_marks_Layer_1" viewBox="0 0 24 24" fill="currentColor" width="32" height="32" data-name="Layer 1" xmlns="http://www.w3.org/2000/svg" xmlns:xlink="http://www.w3.org/1999/xlink">
    <title>claw-marks</title>
    <path d="M23.341 23.888C17.999 18.853 4.928 5.776 0.11 0.668-0.213 0.325 0.252-0.216 0.62 0.08 5.5 4 17.5 15 23.929 23.373c0.288 0.375-0.244 0.839-0.588 0.515zM23.227 12.707c0.299 0.258 0.73-0.104 0.516-0.435C21.56 8.894 16 3.5 11.519 0.054c-0.312-0.24-0.682 0.22-0.425 0.517 2.063 2.391 9.744 10.072 12.133 12.136zM0.493 9.009c-0.32-0.19-0.657 0.227-0.404 0.5 2.507 2.71 11.632 11.829 14.364 14.365 0.276 0.256 0.693-0.093 0.497-0.414C12.346 19.201 2.827 10.396 0.493 9.009z" />
</svg>