<svg id="clear_alt_Layer_1" viewBox="0 0 24 24" fill="currentColor" width="32" height="32" data-name="Layer 1" xmlns="http://www.w3.org/2000/svg" xmlns:xlink="http://www.w3.org/1999/xlink">
    <title>clear-alt</title>
    <path d="M17.5 0C13.916 0 11 2.916 11 6.5s2.916 6.5 6.5 6.5 6.5-2.916 6.5-6.5S21.084 0 17.5 0zM17.5 12C14.467 12 12 9.533 12 6.5S14.467 1 17.5 1 23 3.467 23 6.5 20.533 12 17.5 12zM20.354 4.354 18.208 6.5l2.146 2.146c0.195 0.195 0.195 0.512 0 0.707C20.256 9.451 20.128 9.499 20 9.499s-0.256-0.049-0.354-0.146L17.5 7.207 15.354 9.353C15.256 9.451 15.128 9.499 15 9.499s-0.256-0.049-0.354-0.146c-0.195-0.195-0.195-0.512 0-0.707L16.792 6.5 14.646 4.354c-0.195-0.195-0.195-0.512 0-0.707s0.512-0.195 0.707 0l2.146 2.146 2.146-2.146c0.195-0.195 0.512-0.195 0.707 0s0.195 0.512 2e-3 0.707zM14 14.5v9c0 0.183-0.1 0.351-0.259 0.438C13.666 23.979 13.583 24 13.5 24c-0.093 0-0.187-0.026-0.269-0.078l-5-3.183C8.087 20.647 8 20.488 8 20.317v-6.136L0.852 5.834C0.303 5.191 0 4.366 0 3.51 0 1.575 1.524 0 3.398 0H11.5C11.776 0 12 0.224 12 0.5S11.776 1 11.5 1H3.398C2.076 1 1 2.126 1 3.51 1 4.128 1.217 4.723 1.612 5.184l7.268 8.488C8.958 13.763 9 13.878 9 13.997v6.046l4 2.546V14.5c0-0.276 0.224-0.5 0.5-0.5s0.5 0.224 0.5 0.5z" />
</svg>