<svg id="clipboard_prescription_Layer_1" viewBox="0 0 24 24" fill="currentColor" width="32" height="32" data-name="Layer 1" xmlns="http://www.w3.org/2000/svg" xmlns:xlink="http://www.w3.org/1999/xlink">
    <title>clipboard-prescription</title>
    <path d="M16.5 2h-0.55c-0.232-1.14-1.242-2-2.45-2h-3C9.292 0 8.283 0.86 8.05 2H7.5C5.019 2 3 4.019 3 6.5v13C3 21.981 5.019 24 7.5 24h9c2.481 0 4.5-2.019 4.5-4.5v-13C21 4.019 18.981 2 16.5 2zM20 19.5c0 1.93-1.57 3.5-3.5 3.5h-9C5.57 23 4 21.43 4 19.5v-13C4 4.57 5.57 3 7.5 3h1C8.776 3 9 2.776 9 2.5 9 1.673 9.673 1 10.5 1h3C14.327 1 15 1.673 15 2.5 15 2.776 15.224 3 15.5 3h1C18.43 3 20 4.57 20 6.5zM15.038 16.594l1.878-2.816c0.153-0.23 0.091-0.54-0.139-0.693-0.231-0.154-0.542-0.091-0.693 0.139l-1.667 2.501-2.152-3.013C13.287 12.233 14 11.202 14 10.001c0-1.654-1.346-3-3-3H9.5c-1.378 0-2.5 1.122-2.5 2.5v6c0 0.276 0.224 0.5 0.5 0.5s0.5-0.224 0.5-0.5v-2.5h3c0.078 0 0.15-0.017 0.227-0.023l2.597 3.636-1.74 2.61c-0.153 0.23-0.091 0.54 0.139 0.693 0.085 0.057 0.182 0.084 0.277 0.084 0.162 0 0.32-0.078 0.417-0.223l1.529-2.294 1.648 2.307C16.192 19.928 16.345 20 16.501 20c0.101 0 0.202-0.03 0.29-0.093 0.225-0.16 0.277-0.473 0.116-0.697zM8 12V9.5C8 8.673 8.673 8 9.5 8H11c1.103 0 2 0.897 2 2s-0.897 2-2 2z" />
</svg>