<svg id="clipboard_list_check_Layer_1" viewBox="0 0 24 24" fill="currentColor" width="32" height="32" data-name="Layer 1" xmlns="http://www.w3.org/2000/svg" xmlns:xlink="http://www.w3.org/1999/xlink">
    <title>clipboard-list-check</title>
    <path d="M16.5 12h-3c-0.276 0-0.5-0.224-0.5-0.5s0.224-0.5 0.5-0.5h3c0.276 0 0.5 0.224 0.5 0.5S16.776 12 16.5 12zM17 16.5c0-0.276-0.224-0.5-0.5-0.5h-5c-0.276 0-0.5 0.224-0.5 0.5s0.224 0.5 0.5 0.5h5c0.276 0 0.5-0.224 0.5-0.5zM21 19.5v-13C21 4.019 18.981 2 16.5 2h-0.55c-0.232-1.14-1.242-2-2.45-2h-3C9.292 0 8.283 0.86 8.05 2H7.5C5.019 2 3 4.019 3 6.5v13C3 21.981 5.019 24 7.5 24h9c2.481 0 4.5-2.019 4.5-4.5zM8.5 3C8.776 3 9 2.776 9 2.5 9 1.673 9.673 1 10.5 1h3C14.327 1 15 1.673 15 2.5 15 2.776 15.224 3 15.5 3h1C18.43 3 20 4.57 20 6.5v13c0 1.93-1.57 3.5-3.5 3.5h-9C5.57 23 4 21.43 4 19.5v-13C4 4.57 5.57 3 7.5 3zM8 15.5c-0.552 0-1 0.448-1 1s0.448 1 1 1 1-0.448 1-1-0.448-1-1-1zM9.488 11.662 12.35 8.857c0.197-0.193 0.2-0.51 7e-3-0.707s-0.51-0.201-0.707-7e-3l-2.865 2.808c-0.056 0.056-0.18 0.055-0.242-6e-3L6.764 9.224C6.566 9.032 6.249 9.037 6.057 9.236 5.865 9.434 5.87 9.751 6.069 9.943l1.773 1.715C8.062 11.878 8.355 12 8.667 12s0.605-0.122 0.821-0.338z" />
</svg>