<svg id="clipboard_list_Layer_1" viewBox="0 0 24 24" fill="currentColor" width="32" height="32" data-name="Layer 1" xmlns="http://www.w3.org/2000/svg" xmlns:xlink="http://www.w3.org/1999/xlink">
    <title>clipboard-list</title>
    <path d="M17 16.5c0 0.276-0.224 0.5-0.5 0.5h-5c-0.276 0-0.5-0.224-0.5-0.5s0.224-0.5 0.5-0.5h5c0.276 0 0.5 0.224 0.5 0.5zM21 6.5v13c0 2.481-2.019 4.5-4.5 4.5h-9C5.019 24 3 21.981 3 19.5v-13C3 4.019 5.019 2 7.5 2h0.55c0.232-1.14 1.242-2 2.45-2h3c1.208 0 2.217 0.86 2.45 2h0.55C18.981 2 21 4.019 21 6.5zM20 6.5C20 4.57 18.43 3 16.5 3h-1C15.224 3 15 2.776 15 2.5 15 1.673 14.327 1 13.5 1h-3C9.673 1 9 1.673 9 2.5 9 2.776 8.776 3 8.5 3h-1C5.57 3 4 4.57 4 6.5v13C4 21.43 5.57 23 7.5 23h9c1.93 0 3.5-1.57 3.5-3.5zM8 15.5c-0.552 0-1 0.448-1 1s0.448 1 1 1 1-0.448 1-1-0.448-1-1-1zM16.5 12h-5c-0.276 0-0.5 0.224-0.5 0.5s0.224 0.5 0.5 0.5h5c0.276 0 0.5-0.224 0.5-0.5S16.776 12 16.5 12zM8 11.5c-0.552 0-1 0.448-1 1s0.448 1 1 1 1-0.448 1-1-0.448-1-1-1zM16.5 8h-5C11.224 8 11 8.224 11 8.5S11.224 9 11.5 9h5C16.776 9 17 8.776 17 8.5S16.776 8 16.5 8zM8 7.5c-0.552 0-1 0.448-1 1s0.448 1 1 1 1-0.448 1-1-0.448-1-1-1z" />
</svg>