<svg id="clipboard_user_Layer_1" viewBox="0 0 24 24" fill="currentColor" width="32" height="32" data-name="Layer 1" xmlns="http://www.w3.org/2000/svg" xmlns:xlink="http://www.w3.org/1999/xlink">
    <title>clipboard-user</title>
    <path d="M16.5 2h-0.55c-0.232-1.14-1.242-2-2.45-2h-3C9.292 0 8.283 0.86 8.05 2H7.5C5.019 2 3 4.019 3 6.5v13C3 21.981 5.019 24 7.5 24h9c2.481 0 4.5-2.019 4.5-4.5v-13C21 4.019 18.981 2 16.5 2zM20 19.5c0 1.93-1.57 3.5-3.5 3.5h-9C5.57 23 4 21.43 4 19.5v-13C4 4.57 5.57 3 7.5 3h1C8.776 3 9 2.776 9 2.5 9 1.673 9.673 1 10.5 1h3C14.327 1 15 1.673 15 2.5 15 2.776 15.224 3 15.5 3h1C18.43 3 20 4.57 20 6.5zM12 13c1.654 0 3-1.346 3-3s-1.346-3-3-3-3 1.346-3 3 1.346 3 3 3zM12 8c1.103 0 2 0.897 2 2s-0.897 2-2 2-2-0.897-2-2 0.897-2 2-2zM16.985 17.879c0.066 0.268-0.097 0.54-0.365 0.606-0.041 0.01-0.081 0.015-0.121 0.015-0.224 0-0.428-0.152-0.485-0.379C15.565 16.313 13.877 15 11.999 15s-3.566 1.312-4.015 3.121c-0.067 0.268-0.339 0.427-0.606 0.365-0.268-0.066-0.431-0.338-0.365-0.606 0.558-2.248 2.655-3.879 4.985-3.879s4.427 1.631 4.987 3.878z" />
</svg>