<svg id="clip_file_Layer_1" viewBox="0 0 24 24" fill="currentColor" width="32" height="32" data-name="Layer 1" xmlns="http://www.w3.org/2000/svg" xmlns:xlink="http://www.w3.org/1999/xlink">
    <title>clip-file</title>
    <path d="M22 4.5v15c0 2.481-2.019 4.5-4.5 4.5h-11C4.019 24 2 21.981 2 19.5v-15C2 2.019 4.019 0 6.5 0h3C9.776 0 10 0.224 10 0.5S9.776 1 9.5 1h-3C4.57 1 3 2.57 3 4.5v15C3 21.43 4.57 23 6.5 23h11c1.93 0 3.5-1.57 3.5-3.5v-15c0-1.246-0.671-2.408-1.75-3.032-0.239-0.138-0.321-0.444-0.182-0.683 0.137-0.239 0.443-0.323 0.683-0.182C21.139 1.405 22.001 2.898 22 4.5zM17.5 19h-11C6.224 19 6 19.224 6 19.5S6.224 20 6.5 20h11c0.276 0 0.5-0.224 0.5-0.5S17.776 19 17.5 19zM17.5 16h-11C6.224 16 6 16.224 6 16.5S6.224 17 6.5 17h11c0.276 0 0.5-0.224 0.5-0.5S17.776 16 17.5 16zM11.5 11c0.276 0 0.5-0.224 0.5-0.5v-7C12 2.122 13.122 1 14.5 1S17 2.122 17 3.5V12c0 0.551-0.449 1-1 1s-1-0.449-1-1V3.5C15 3.224 14.776 3 14.5 3S14 3.224 14 3.5V12c0 1.103 0.897 2 2 2s2-0.897 2-2V3.5C18 1.57 16.43 0 14.5 0S11 1.57 11 3.5v7c0 0.276 0.224 0.5 0.5 0.5zM6.5 14h5c0.276 0 0.5-0.224 0.5-0.5S11.776 13 11.5 13h-5C6.224 13 6 13.224 6 13.5S6.224 14 6.5 14z" />
</svg>