<svg id="clock_ten_Layer_1" viewBox="0 0 24 24" fill="currentColor" width="32" height="32" data-name="Layer 1" xmlns="http://www.w3.org/2000/svg" xmlns:xlink="http://www.w3.org/1999/xlink">
    <title>clock-ten</title>
    <path d="M12 24C5.383 24 0 18.617 0 12S5.383 0 12 0 24 5.383 24 12 18.617 24 12 24zM12 1C5.935 1 1 5.935 1 12s4.935 11 11 11 11-4.935 11-11S18.065 1 12 1zM12.742 12.938C12.901 12.85 13 12.682 13 12.5v-7C13 5.224 12.776 5 12.5 5S12 5.224 12 5.5v6.098L8.765 9.577C8.531 9.43 8.223 9.501 8.076 9.736 7.93 9.969 8.001 10.278 8.235 10.424l4 2.5C12.316 12.975 12.408 13 12.5 13c0.083 0 0.167-0.021 0.242-0.062z" />
</svg>