<svg id="clock_seven_Layer_1" viewBox="0 0 24 24" fill="currentColor" width="32" height="32" data-name="Layer 1" xmlns="http://www.w3.org/2000/svg" xmlns:xlink="http://www.w3.org/1999/xlink">
    <title>clock-seven</title>
    <path d="M12 24C5.383 24 0 18.617 0 12S5.383 0 12 0 24 5.383 24 12 18.617 24 12 24zM12 1C5.935 1 1 5.935 1 12s4.935 11 11 11 11-4.935 11-11S18.065 1 12 1zM9.9 16.8l3-4c0.065-0.086 0.1-0.191 0.1-0.3v-7C13 5.224 12.776 5 12.5 5S12 5.224 12 5.5v6.833L9.1 16.2c-0.166 0.221-0.121 0.534 0.1 0.7 0.09 0.067 0.195 0.1 0.299 0.1 0.152 0 0.302-0.069 0.401-0.2z" />
</svg>