<svg id="clock_two_thirty_Layer_1" viewBox="0 0 24 24" fill="currentColor" width="32" height="32" data-name="Layer 1" xmlns="http://www.w3.org/2000/svg" xmlns:xlink="http://www.w3.org/1999/xlink">
    <title>clock-two-thirty</title>
    <path d="M12 24C5.383 24 0 18.617 0 12S5.383 0 12 0 24 5.383 24 12 18.617 24 12 24zM12 1C5.935 1 1 5.935 1 12s4.935 11 11 11 11-4.935 11-11S18.065 1 12 1zM12 18.5v-6.706l4.243-2.356C16.484 9.303 16.571 9 16.437 8.757c-0.136-0.242-0.44-0.324-0.681-0.194l-4.5 2.5c-0.159 0.089-0.257 0.256-0.257 0.438v7c0 0.276 0.224 0.5 0.5 0.5s0.5-0.224 0.501-0.501z" />
</svg>