<svg id="clock_ten_thirty_Layer_1" viewBox="0 0 24 24" fill="currentColor" width="32" height="32" data-name="Layer 1" xmlns="http://www.w3.org/2000/svg" xmlns:xlink="http://www.w3.org/1999/xlink">
    <title>clock-ten-thirty</title>
    <path d="M12 24C5.383 24 0 18.617 0 12S5.383 0 12 0 24 5.383 24 12 18.617 24 12 24zM12 1C5.935 1 1 5.935 1 12s4.935 11 11 11 11-4.935 11-11S18.065 1 12 1zM13 18.5v-7c0-0.182-0.099-0.349-0.257-0.438l-4.5-2.5C8.002 8.43 7.698 8.515 7.563 8.756 7.429 8.998 7.516 9.302 7.757 9.437L12 11.793v6.706c0 0.276 0.224 0.5 0.5 0.5S13 18.775 13 18.5z" />
</svg>