<svg id="clock_eleven_thirty_Layer_1" viewBox="0 0 24 24" fill="currentColor" width="32" height="32" data-name="Layer 1" xmlns="http://www.w3.org/2000/svg" xmlns:xlink="http://www.w3.org/1999/xlink">
    <title>clock-eleven-thirty</title>
    <path d="M12 24C5.383 24 0 18.617 0 12S5.383 0 12 0 24 5.383 24 12 18.617 24 12 24zM12 1C5.935 1 1 5.935 1 12s4.935 11 11 11 11-4.935 11-11S18.065 1 12 1zM13 18.5v-7c0-0.108-0.035-0.213-0.1-0.3l-3-4C9.733 6.978 9.42 6.934 9.2 7.1 8.979 7.266 8.934 7.579 9.099 7.8l2.9 3.867V18.5c0 0.276 0.224 0.5 0.5 0.5s0.5-0.224 0.501-0.5z" />
</svg>