<svg id="clock_Layer_1" viewBox="0 0 24 24" fill="currentColor" width="32" height="32" data-name="Layer 1" xmlns="http://www.w3.org/2000/svg" xmlns:xlink="http://www.w3.org/1999/xlink">
    <title>clock</title>
    <path d="M12 24C5.383 24 0 18.617 0 12S5.383 0 12 0 24 5.383 24 12 18.617 24 12 24zM12 1C5.935 1 1 5.935 1 12s4.935 11 11 11 11-4.935 11-11S18.065 1 12 1z" />
    <path d="M8 15.5c-0.161 0-0.319-0.078-0.416-0.223-0.153-0.229-0.091-0.54 0.139-0.693L12 11.732V5.5C12 5.224 12.224 5 12.5 5S13 5.224 13 5.5V12c0 0.167-0.084 0.323-0.223 0.416l-4.5 3C8.192 15.473 8.095 15.5 8 15.5z" />
</svg>