<svg id="clock_desk_Layer_1" viewBox="0 0 24 24" fill="currentColor" width="32" height="32" data-name="Layer 1" xmlns="http://www.w3.org/2000/svg" xmlns:xlink="http://www.w3.org/1999/xlink">
    <title>clock-desk</title>
    <path d="M7.571 12.657c-0.143-0.237-0.065-0.544 0.172-0.686L11.5 9.717V4.5C11.5 4.224 11.724 4 12 4s0.5 0.224 0.5 0.5V10c0 0.176-0.092 0.338-0.243 0.429l-4 2.4C8.177 12.877 8.088 12.9 8 12.9c-0.169 0-0.335-0.086-0.429-0.243zM22 10.5v9c0 2.481-2.019 4.5-4.5 4.5h-11C4.019 24 2 21.981 2 19.5v-9c0-0.053 8e-3-1.132 0.024-1.18C2.374 4.122 6.715 0 12 0s9.626 4.122 9.976 9.32C21.991 9.368 22 10.447 22 10.5zM3 10c0 4.962 4.037 9 9 9s9-4.038 9-9-4.037-9-9-9-9 4.038-9 9zM21 14.356C19.378 17.694 15.953 20 12 20s-7.378-2.306-9-5.644V19.5C3 21.43 4.57 23 6.5 23h11c1.93 0 3.5-1.57 3.5-3.5z" />
</svg>