<svg id="clock_four_thirty_Layer_1" viewBox="0 0 24 24" fill="currentColor" width="32" height="32" data-name="Layer 1" xmlns="http://www.w3.org/2000/svg" xmlns:xlink="http://www.w3.org/1999/xlink">
    <title>clock-four-thirty</title>
    <path d="M12 24C5.383 24 0 18.617 0 12S5.383 0 12 0 24 5.383 24 12 18.617 24 12 24zM12 1C5.935 1 1 5.935 1 12s4.935 11 11 11 11-4.935 11-11S18.065 1 12 1zM12 18.5v-6.098l3.235 2.021c0.234 0.147 0.542 0.076 0.689-0.159s0.075-0.543-0.159-0.689l-4-2.5c-0.155-0.097-0.35-0.102-0.507-0.014C11.099 11.149 11 11.317 11 11.499v7c0 0.276 0.224 0.5 0.5 0.5S12 18.775 12 18.5z" />
</svg>