<svg id="clock_eight_thirty_Layer_1" viewBox="0 0 24 24" fill="currentColor" width="32" height="32" data-name="Layer 1" xmlns="http://www.w3.org/2000/svg" xmlns:xlink="http://www.w3.org/1999/xlink">
    <title>clock-eight-thirty</title>
    <path d="M12 0C5.383 0 0 5.383 0 12s5.383 12 12 12 12-5.383 12-12S18.617 0 12 0zM12 23C5.935 23 1 18.065 1 12S5.935 1 12 1 23 5.935 23 12 18.065 23 12 23zM13 11.5v7c0 0.276-0.224 0.5-0.5 0.5S12 18.776 12 18.5v-6.098l-3.235 2.021c-0.235 0.147-0.543 0.076-0.689-0.159-0.146-0.234-0.075-0.543 0.159-0.689l4-2.5c0.154-0.097 0.349-0.101 0.507-0.014C12.901 11.149 13 11.317 13 11.5z" />
</svg>