<svg id="clock_nine_thirty_Layer_1" viewBox="0 0 24 24" fill="currentColor" width="32" height="32" data-name="Layer 1" xmlns="http://www.w3.org/2000/svg" xmlns:xlink="http://www.w3.org/1999/xlink">
    <title>clock-nine-thirty</title>
    <path d="M12 24C5.383 24 0 18.617 0 12S5.383 0 12 0 24 5.383 24 12 18.617 24 12 24zM12 1C5.935 1 1 5.935 1 12s4.935 11 11 11 11-4.935 11-11S18.065 1 12 1zM13 18.5v-7c0-0.276-0.224-0.5-0.5-0.5h-5C7.224 11 7 11.224 7 11.5S7.224 12 7.5 12H12v6.5c0 0.276 0.224 0.5 0.5 0.5s0.5-0.224 0.5-0.5z" />
</svg>