<svg id="clock_one_Layer_1" viewBox="0 0 24 24" fill="currentColor" width="32" height="32" data-name="Layer 1" xmlns="http://www.w3.org/2000/svg" xmlns:xlink="http://www.w3.org/1999/xlink">
    <title>clock-one</title>
    <path d="M12 24C5.383 24 0 18.617 0 12S5.383 0 12 0 24 5.383 24 12 18.617 24 12 24zM12 1C5.935 1 1 5.935 1 12s4.935 11 11 11 11-4.935 11-11S18.065 1 12 1zM11.9 12.8l3-4c0.165-0.221 0.12-0.534-0.101-0.7-0.22-0.165-0.533-0.121-0.7 0.1l-2.1 2.8V5.5c0-0.276-0.224-0.5-0.5-0.5s-0.5 0.224-0.5 0.5v7c0 0.215 0.138 0.406 0.342 0.474C11.393 12.992 11.446 13 11.499 13c0.154 0 0.304-0.072 0.401-0.2z" />
</svg>