<svg id="clock_two_Layer_1" viewBox="0 0 24 24" fill="currentColor" width="32" height="32" data-name="Layer 1" xmlns="http://www.w3.org/2000/svg" xmlns:xlink="http://www.w3.org/1999/xlink">
    <title>clock-two</title>
    <path d="M12 24C5.383 24 0 18.617 0 12S5.383 0 12 0 24 5.383 24 12 18.617 24 12 24zM12 1C5.935 1 1 5.935 1 12s4.935 11 11 11 11-4.935 11-11S18.065 1 12 1zM11.765 12.924l4-2.5c0.234-0.146 0.305-0.455 0.159-0.688-0.146-0.235-0.455-0.307-0.689-0.159L12 11.598V5.5C12 5.224 11.776 5 11.5 5S11 5.224 11 5.5v7c0 0.182 0.099 0.35 0.258 0.438C11.333 12.98 11.417 13 11.5 13c0.092 0 0.184-0.025 0.265-0.076z" />
</svg>