<svg id="closed_Layer_1" viewBox="0 0 24 24" fill="currentColor" width="32" height="32" data-name="Layer 1" xmlns="http://www.w3.org/2000/svg" xmlns:xlink="http://www.w3.org/1999/xlink">
    <title>closed</title>
    <path d="M17 15v2h0.5c0.276 0 0.5 0.224 0.5 0.5S17.776 18 17.5 18H17v2h0.5c0.276 0 0.5 0.224 0.5 0.5S17.776 21 17.5 21h-1c-0.276 0-0.5-0.224-0.5-0.5v-6c0-0.276 0.224-0.5 0.5-0.5h1c0.276 0 0.5 0.224 0.5 0.5S17.776 15 17.5 15zM11.5 15.5v4c0 0.827-0.673 1.5-1.5 1.5s-1.5-0.673-1.5-1.5v-4c0-0.827 0.673-1.5 1.5-1.5s1.5 0.673 1.5 1.5zM10.5 15.5c0-0.276-0.225-0.5-0.5-0.5s-0.5 0.224-0.5 0.5v4c0 0.276 0.225 0.5 0.5 0.5s0.5-0.224 0.5-0.5zM3.5 15C3.775 15 4 15.224 4 15.5S4.224 16 4.5 16 5 15.776 5 15.5C5 14.673 4.327 14 3.5 14S2 14.673 2 15.5v4C2 20.327 2.673 21 3.5 21S5 20.327 5 19.5C5 19.224 4.776 19 4.5 19S4 19.224 4 19.5 3.775 20 3.5 20 3 19.776 3 19.5v-4C3 15.224 3.225 15 3.5 15zM22 15.5v4c0 0.827-0.673 1.5-1.5 1.5h-1c-0.276 0-0.5-0.224-0.5-0.5v-6c0-0.276 0.224-0.5 0.5-0.5h1c0.827 0 1.5 0.673 1.5 1.5zM21 15.5c0-0.276-0.225-0.5-0.5-0.5H20v5h0.5c0.275 0 0.5-0.224 0.5-0.5zM7.5 20H7v-5.5C7 14.224 6.776 14 6.5 14S6 14.224 6 14.5v6C6 20.776 6.224 21 6.5 21h1C7.776 21 8 20.776 8 20.5S7.776 20 7.5 20zM13.854 15c0.214 0.022 0.506 0.176 0.763 0.484 0.177 0.213 0.492 0.24 0.704 0.064 0.212-0.177 0.24-0.492 0.063-0.704-0.454-0.546-0.993-0.845-1.513-0.845-0.825-2e-3-1.521 0.688-1.521 1.521 0 1.053 0.626 1.642 1.129 2.114 0.485 0.456 0.869 0.816 0.869 1.535 0 0.401-0.266 0.831-0.661 0.831-0.301 0-0.58-0.151-0.787-0.426-0.167-0.221-0.481-0.264-0.7-0.098-0.221 0.167-0.265 0.48-0.099 0.701C12.496 20.7 13.074 21 13.687 21c1.026 0 1.661-0.95 1.661-1.831 0-1.151-0.656-1.768-1.185-2.264-0.504-0.474-0.813-0.795-0.813-1.386 0-0.322 0.287-0.52 0.504-0.519zM10 2c0-1.103 0.897-2 2-2s2 0.897 2 2-0.897 2-2 2-2-0.897-2-2zM11 2c0 0.551 0.448 1 1 1s1-0.449 1-1-0.448-1-1-1-1 0.449-1 1zM24 15v5c0 2.206-1.794 4-4 4H4c-2.206 0-4-1.794-4-4v-5c0-2.118 1.66-3.84 3.745-3.974L8.67 5.178c0.179-0.211 0.493-0.238 0.705-0.06 0.211 0.178 0.238 0.493 0.061 0.705l-4.36 5.178h13.849l-4.36-5.178c-0.178-0.211-0.15-0.527 0.061-0.705 0.211-0.177 0.525-0.15 0.705 0.06l4.925 5.848C22.341 11.16 24.001 12.882 24 15zM23 15c0-1.654-1.346-3-3-3H4c-1.654 0-3 1.346-3 3v5c0 1.654 1.346 3 3 3h16c1.654 0 3-1.346 3-3z" />
</svg>