<svg id="clothing_rack_Layer_1" viewBox="0 0 24 24" fill="currentColor" width="32" height="32" data-name="Layer 1" xmlns="http://www.w3.org/2000/svg" xmlns:xlink="http://www.w3.org/1999/xlink">
    <title>clothing-rack</title>
    <path d="M23.5 0C23.224 0 23 0.224 23 0.5V2h-7.5C14.673 2 14 2.673 14 3.5V7h-4V3.5C10 3.224 10.224 3 10.5 3h1C11.776 3 12 2.776 12 2.5S11.776 2 11.5 2h-1C9.673 2 9 2.673 9 3.5V7H7.245C4.666 7 3 8.492 3 10.8v0.7C3 12.327 3.673 13 4.5 13H5v4.5C5 18.878 6.122 20 7.5 20h9c1.378 0 2.5-1.122 2.5-2.5V13h0.5c0.827 0 1.5-0.673 1.5-1.5v-0.7C21 8.492 19.333 7 16.755 7H15V3.5C15 3.224 15.224 3 15.5 3H23v20.5c0 0.276 0.224 0.5 0.5 0.5s0.5-0.224 0.5-0.5v-23C24 0.224 23.776 0 23.5 0zM8.477 8.916C7.969 8.776 7.535 8.45 7.275 8h1.928C8.904 8.259 8.669 8.571 8.477 8.916zM16.221 8c-0.349 0.606-0.993 1-1.721 1s-1.372-0.394-1.721-1zM6 17.5v-5C6 12.224 5.776 12 5.5 12h-1C4.224 12 4 11.776 4 11.5v-0.7c0-1.827 1.227-2.467 2.221-2.687 0.334 0.835 1.032 1.477 1.891 1.746C8.045 10.156 8 10.467 8 10.8v0.7C8 12.327 8.673 13 9.5 13H10v4.5c0 0.565 0.195 1.081 0.513 1.5H7.5C6.673 19 6 18.327 6 17.5zM20 10.8v0.7c0 0.276-0.224 0.5-0.5 0.5h-1c-0.276 0-0.5 0.224-0.5 0.5v5c0 0.827-0.673 1.5-1.5 1.5h-4c-0.827 0-1.5-0.673-1.5-1.5v-5c0-0.276-0.224-0.5-0.5-0.5h-1C9.224 12 9 11.776 9 11.5v-0.7c0-2.137 1.679-2.652 2.699-2.768C12.127 9.204 13.228 10 14.5 10s2.373-0.796 2.801-1.968C18.321 8.148 20 8.663 20 10.8zM0.996 3v20.5c0 0.276-0.224 0.5-0.5 0.5s-0.5-0.224-0.5-0.5v-23c0-0.276 0.224-0.5 0.5-0.5s0.5 0.224 0.5 0.5V2H6.5C6.776 2 7 2.224 7 2.5S6.776 3 6.5 3z" />
</svg>