<svg id="clothes_hanger_Layer_1" viewBox="0 0 24 24" fill="currentColor" width="32" height="32" data-name="Layer 1" xmlns="http://www.w3.org/2000/svg" xmlns:xlink="http://www.w3.org/1999/xlink">
    <title>clothes-hanger</title>
    <path d="M22.924 18.134 12.882 11c1.303-0.911 4.084-3.106 4.118-5.262 0.02-1.234-0.438-2.389-1.287-3.251C14.783 1.542 13.429 1 12 1 9.243 1 7 3.243 7 6 7 6.276 7.224 6.5 7.5 6.5S8 6.276 8 6c0-2.206 1.794-4 4-4 1.164 0 2.257 0.433 3.001 1.189 0.669 0.68 1.015 1.556 0.999 2.534-0.028 1.793-3.089 4.102-4.266 4.84-4e-3 2e-3-7e-3 5e-3-0.011 8e-3s-9e-3 5e-3-0.013 8e-3L1.062 18.144C0.397 18.651 0 19.454 0 20.29c0 1.487 1.21 2.697 2.697 2.697h18.605c1.487 0 2.697-1.21 2.697-2.697 0-0.836-0.397-1.639-1.075-2.156zM21.303 21.987H2.697C1.761 21.987 1 21.226 1 20.29c0-0.526 0.25-1.031 0.655-1.34L12 11.601 22.331 18.94C22.75 19.259 23 19.764 23 20.29c0 0.936-0.761 1.697-1.697 1.697z" />
</svg>