<svg id="clouds_sun_Layer_1" viewBox="0 0 24 24" fill="currentColor" width="32" height="32" data-name="Layer 1" xmlns="http://www.w3.org/2000/svg" xmlns:xlink="http://www.w3.org/1999/xlink">
    <title>clouds-sun</title>
    <path d="M2.21 15.143c-0.788 0.338-1.432 1.265-1.138 2.383 0.109 0.417 0.367 0.793 0.727 1.06 0.222 0.165 0.268 0.478 0.103 0.699-0.099 0.132-0.249 0.202-0.401 0.202-0.104 0-0.209-0.032-0.299-0.099-0.54-0.402-0.929-0.973-1.096-1.608-0.387-1.47 0.333-2.965 1.71-3.556 0.239-0.103 0.362-0.348 0.306-0.611-0.175-0.81-0.161-1.638 0.04-2.461 0.521-2.145 2.336-3.799 4.515-4.116 1.479-0.215 2.945 0.155 4.125 1.041 0.221 0.166 0.265 0.479 0.099 0.7-0.165 0.221-0.481 0.264-0.7 0.099C9.237 8.15 8.033 7.85 6.822 8.025 5.043 8.284 3.56 9.636 3.134 11.388c-0.164 0.676-0.176 1.354-0.033 2.015 0.157 0.733-0.208 1.449-0.891 1.74zM19.878 20.535c-0.376 1.641-1.683 2.944-3.328 3.32-0.318 0.073-0.643 0.113-0.963 0.119-0.866 0.016-3.082 0.025-5.199 0.025-1.953 0-3.822-8e-3-4.473-0.025-0.242-7e-3-0.484-0.042-0.721-0.105-1.004-0.264-1.824-1.084-2.089-2.088-0.387-1.47 0.333-2.966 1.71-3.557 0.239-0.103 0.362-0.349 0.306-0.611-0.175-0.81-0.161-1.638 0.04-2.461 0.521-2.145 2.336-3.799 4.515-4.116 2.515-0.368 4.938 1.006 5.905 3.334 0.235 0.565 0.764 0.686 1.094 0.76 2.347 0.634 3.754 3.008 3.203 5.405zM16.415 16.096c-0.393-0.088-1.322-0.298-1.758-1.342-0.705-1.701-2.364-2.777-4.175-2.777-0.219 0-0.44 0.016-0.662 0.048-1.779 0.259-3.262 1.611-3.688 3.363-0.164 0.676-0.176 1.354-0.033 2.015 0.157 0.732-0.208 1.448-0.889 1.741-0.788 0.338-1.432 1.265-1.138 2.383 0.175 0.662 0.715 1.202 1.376 1.376 0.164 0.043 0.33 0.067 0.495 0.072 1.346 0.038 7.966 0.032 9.624 0 0.252-5e-3 0.508-0.036 0.76-0.094 1.255-0.287 2.29-1.319 2.576-2.569 0.43-1.871-0.663-3.723-2.488-4.216zM23.5 9h-3.522c-0.016-0.179-0.04-0.357-0.072-0.535-0.08-0.434-0.211-0.851-0.389-1.243l3.054-1.737c0.24-0.137 0.324-0.442 0.188-0.682-0.136-0.241-0.443-0.325-0.682-0.188l-3.053 1.736c-0.366-0.527-0.822-0.986-1.347-1.355l1.756-3.042c0.139-0.239 0.057-0.545-0.183-0.683-0.239-0.137-0.546-0.055-0.683 0.183L16.81 4.496c-0.401-0.185-0.829-0.321-1.275-0.403C15.357 4.06 15.179 4.036 15 4.021V0.5C15 0.224 14.776 0 14.5 0S14 0.224 14 0.5v3.524c-0.47 0.042-0.932 0.144-1.372 0.303-0.253 0.09-0.519-1e-3-0.636-0.217l-1.467-2.692c-0.133-0.243-0.436-0.332-0.679-0.2-0.242 0.132-0.332 0.436-0.2 0.678l1.468 2.692c0.356 0.654 1.139 0.939 1.854 0.679 0.752-0.272 1.58-0.346 2.388-0.189 2.76 0.537 3.48 3.1 3.565 3.566 0.15 0.818 0.083 1.651-0.196 2.408-0.257 0.699 0.013 1.471 0.642 1.836l2.672 1.551c0.079 0.046 0.165 0.067 0.251 0.067 0.172 0 0.34-0.089 0.433-0.249 0.139-0.239 0.058-0.545-0.182-0.684l-2.672-1.551c-0.211-0.123-0.295-0.38-0.205-0.626 0.166-0.449 0.271-0.919 0.313-1.398H23.5c0.276 0 0.5-0.224 0.5-0.5S23.776 8.998 23.5 9z" />
</svg>