<svg id="cloud_Layer_1" viewBox="0 0 24 24" fill="currentColor" width="32" height="32" data-name="Layer 1" xmlns="http://www.w3.org/2000/svg" xmlns:xlink="http://www.w3.org/1999/xlink">
    <title>cloud</title>
    <path d="M15.748 23H5.726c-2.969 0-5.476-2.213-5.707-5.038-0.145-1.773 0.578-3.517 1.935-4.662 0.51-0.43 0.708-1.072 0.507-1.636C1.95 10.232 1.864 8.67 2.213 7.146 2.928 4.028 5.538 1.6 8.708 1.102c3.898-0.607 7.625 1.638 8.871 5.348 0.156 0.462 0.513 0.817 0.979 0.974 3.543 1.195 5.766 4.638 5.404 8.373-0.392 4.04-3.999 7.204-8.214 7.203zM9.979 2.002c-0.369 0-0.742 0.029-1.117 0.088-2.77 0.435-5.051 2.557-5.675 5.28-0.306 1.337-0.232 2.706 0.215 3.958 0.343 0.961 0.028 2.036-0.804 2.736-1.126 0.951-1.703 2.343-1.583 3.816C1.204 20.191 3.273 22 5.725 22h10.023c3.705 0 6.876-2.768 7.218-6.3 0.316-3.27-1.627-6.284-4.728-7.329-0.766-0.257-1.352-0.842-1.607-1.603-0.972-2.89-3.667-4.766-6.652-4.766z" />
</svg>