<svg id="cloud_meatball_Layer_1" viewBox="0 0 24 24" fill="currentColor" width="32" height="32" data-name="Layer 1" xmlns="http://www.w3.org/2000/svg" xmlns:xlink="http://www.w3.org/1999/xlink">
    <title>cloud-meatball</title>
    <path d="M6 23c0 0.552-0.448 1-1 1s-1-0.448-1-1 0.448-1 1-1 1 0.448 1 1zM18.153 5.188c-0.441-0.099-0.806-0.378-1-0.767-1.615-3.223-5.104-4.943-8.675-4.279-3.135 0.582-5.669 3.08-6.306 6.217-0.19 0.933-0.218 1.873-0.083 2.796 0.083 0.568-0.058 1.073-0.387 1.387-1.378 1.318-1.968 3.232-1.577 5.123 0.356 1.719 1.545 3.171 3.18 3.884 0.255 0.112 0.548-5e-3 0.658-0.259 0.11-0.253-6e-3-0.548-0.259-0.658-1.318-0.574-2.314-1.789-2.6-3.17-0.321-1.55 0.161-3.119 1.288-4.196 0.566-0.541 0.815-1.362 0.685-2.254C2.959 8.204 2.984 7.379 3.151 6.56c0.557-2.742 2.77-4.926 5.508-5.434 3.127-0.581 6.185 0.924 7.598 3.743 0.33 0.658 0.94 1.13 1.676 1.295 3.052 0.684 5.182 3.453 5.066 6.584-0.112 3.01-2.459 5.594-5.583 6.145-0.272 0.048-0.454 0.307-0.405 0.579 0.042 0.243 0.253 0.413 0.492 0.413 3.62-0.536 6.366-3.622 6.495-7.1 0.134-3.612-2.325-6.807-5.845-7.597zM18 22c-0.552 0-1 0.448-1 1s0.448 1 1 1 1-0.448 1-1-0.448-1-1-1zM16.077 19.5c0 0.664-0.431 1.239-1.072 1.431 0.311 0.589 0.212 1.293-0.247 1.751-0.499 0.499-1.105 0.583-1.75 0.246C12.816 23.569 12.241 24 11.576 24s-1.239-0.431-1.431-1.072c-0.645 0.34-1.25 0.255-1.751-0.247-0.458-0.457-0.557-1.161-0.245-1.75-0.642-0.191-1.073-0.767-1.073-1.431s0.431-1.239 1.073-1.431c-0.311-0.59-0.212-1.293 0.246-1.751 0.457-0.459 1.161-0.558 1.751-0.245 0.191-0.642 0.766-1.073 1.43-1.073s1.239 0.431 1.431 1.072c0.588-0.312 1.292-0.212 1.751 0.247 0.458 0.458 0.557 1.161 0.245 1.75 0.642 0.191 1.073 0.767 1.074 1.431zM15.077 19.5c0-0.222-0.141-0.407-0.358-0.473-0.288-0.086-0.521-0.294-0.637-0.572-0.116-0.276-0.102-0.587 0.038-0.853 0.106-0.2 0.079-0.431-0.067-0.577-0.149-0.149-0.375-0.177-0.577-0.07-0.267 0.141-0.578 0.154-0.855 0.038-0.276-0.116-0.484-0.348-0.57-0.635-0.13-0.434-0.816-0.433-0.946 0-0.086 0.289-0.295 0.521-0.572 0.636-0.277 0.116-0.586 0.103-0.853-0.038-0.199-0.106-0.431-0.079-0.577 0.068-0.146 0.146-0.174 0.378-0.069 0.578 0.14 0.266 0.154 0.577 0.038 0.854s-0.348 0.485-0.635 0.571c-0.215 0.064-0.36 0.254-0.36 0.473s0.144 0.408 0.359 0.473c0.288 0.086 0.52 0.294 0.636 0.572 0.116 0.276 0.102 0.587-0.038 0.853-0.105 0.2-0.078 0.432 0.067 0.577 0.167 0.167 0.296 0.218 0.579 0.069 0 0 0 0 0 0 0.146-0.077 0.305-0.115 0.465-0.115 0.131 0 0.263 0.026 0.387 0.078 0.277 0.116 0.485 0.348 0.571 0.635 0.13 0.433 0.817 0.432 0.946 0 0.085-0.287 0.293-0.519 0.569-0.635 0.277-0.116 0.587-0.103 0.853 0.036 0.286 0.15 0.414 0.098 0.579-0.067 0.146-0.146 0.174-0.378 0.069-0.577-0.141-0.265-0.154-0.576-0.039-0.853 0.116-0.277 0.348-0.485 0.635-0.572 0.219-0.065 0.36-0.25 0.362-0.474z" />
</svg>