<svg id="cloud_share_Layer_1" viewBox="0 0 24 24" fill="currentColor" width="32" height="32" data-name="Layer 1" xmlns="http://www.w3.org/2000/svg" xmlns:xlink="http://www.w3.org/1999/xlink">
    <title>cloud-share</title>
    <path d="M21.5 18c-0.796 0-1.498 0.381-1.956 0.963l-3.638-1.819c0.055-0.207 0.095-0.42 0.095-0.644s-0.039-0.437-0.095-0.644l3.638-1.819C20.002 14.619 20.704 15 21.5 15c1.378 0 2.5-1.122 2.5-2.5S22.878 10 21.5 10 19 11.122 19 12.5c0 0.224 0.039 0.437 0.095 0.644l-3.638 1.819C14.999 14.381 14.297 14 13.501 14c-1.378 0-2.5 1.122-2.5 2.5s1.122 2.5 2.5 2.5c0.796 0 1.498-0.381 1.956-0.963l3.638 1.819C19.04 20.063 19 20.276 19 20.5c0 1.378 1.122 2.5 2.5 2.5s2.5-1.122 2.5-2.5-1.122-2.5-2.5-2.5zM21.5 11c0.827 0 1.5 0.673 1.5 1.5S22.327 14 21.5 14 20 13.327 20 12.5 20.673 11 21.5 11zM13.5 18c-0.827 0-1.5-0.673-1.5-1.5s0.673-1.5 1.5-1.5 1.5 0.673 1.5 1.5-0.673 1.5-1.5 1.5zM21.5 22c-0.827 0-1.5-0.673-1.5-1.5s0.673-1.5 1.5-1.5 1.5 0.673 1.5 1.5-0.673 1.5-1.5 1.5zM17 21.5c0 0.276-0.224 0.5-0.5 0.5h-11C2.467 22 0 19.533 0 16.5c0-1.506 0.603-2.912 1.698-3.958 0.328-0.314 0.469-0.819 0.386-1.387-0.135-0.923-0.107-1.863 0.083-2.796 0.637-3.137 3.171-5.636 6.306-6.218 3.573-0.665 7.06 1.056 8.675 4.279 0.195 0.389 0.559 0.668 1 0.767 0.541 0.122 1.068 0.303 1.566 0.54 0.25 0.119 0.356 0.417 0.237 0.666-0.118 0.249-0.418 0.356-0.666 0.237-0.432-0.205-0.888-0.362-1.356-0.468-0.735-0.165-1.346-0.636-1.676-1.295-1.413-2.82-4.47-4.326-7.598-3.743-2.738 0.508-4.952 2.691-5.508 5.434-0.167 0.819-0.191 1.644-0.074 2.452 0.13 0.892-0.119 1.714-0.685 2.254C1.493 14.12 1 15.268 1 16.499c0 2.481 2.019 4.5 4.5 4.5h11c0.276 0 0.5 0.224 0.5 0.501z" />
</svg>