<svg id="cloud_back_up_alt_Layer_1" viewBox="0 0 24 24" fill="currentColor" width="32" height="32" data-name="Layer 1" xmlns="http://www.w3.org/2000/svg" xmlns:xlink="http://www.w3.org/1999/xlink">
    <title>cloud-back-up-alt</title>
    <path d="M23.995 12.789c-0.085 2.283-1.254 4.382-3.207 5.758-0.226 0.158-0.537 0.104-0.697-0.121-0.158-0.226-0.104-0.538 0.121-0.697 1.696-1.194 2.711-3.008 2.783-4.977 0.116-3.131-2.015-5.899-5.065-6.584-0.736-0.165-1.347-0.637-1.677-1.294-1.414-2.821-4.468-4.326-7.598-3.744-2.737 0.508-4.951 2.691-5.509 5.433-0.167 0.82-0.191 1.646-0.073 2.452 0.13 0.894-0.119 1.715-0.686 2.255C1.493 12.124 1 13.271 0.999 14.5c0 1.909 1.006 3.461 2.689 4.15 0.256 0.104 0.378 0.396 0.273 0.652-0.079 0.193-0.267 0.311-0.463 0.311-0.063 0-0.128-0.012-0.189-0.037C1.267 18.739-2e-3 16.794-2e-3 14.5c0-1.504 0.604-2.908 1.697-3.953 0.329-0.313 0.469-0.819 0.386-1.387-0.134-0.921-0.106-1.862 0.083-2.796 0.641-3.137 3.175-5.636 6.31-6.218 3.572-0.665 7.06 1.057 8.674 4.279 0.194 0.388 0.56 0.668 1.001 0.767 3.521 0.79 5.98 3.984 5.846 7.597zM12 12h-1.751l2.646-2.646c0.195-0.195 0.195-0.512 0-0.707s-0.512-0.195-0.707 0l-2.75 2.75C9.141 11.693 8.982 12.104 9 12.523c0.017 0.377 0.172 0.73 0.438 0.995l2.75 2.75c0.098 0.098 0.226 0.146 0.354 0.146s0.256-0.049 0.354-0.146c0.195-0.195 0.195-0.512 0-0.707L10.336 13h1.665c1.703 0 3.272 0.854 4.2 2.285 0.952 1.47 1.058 3.296 0.29 5.011-0.432 0.963-1.231 1.763-2.194 2.194-1.716 0.769-3.542 0.661-5.011-0.29-1.431-0.928-2.285-2.497-2.285-4.2 0-1.037 0.314-2.031 0.909-2.875 0.158-0.226 0.104-0.538-0.121-0.697-0.226-0.158-0.537-0.104-0.697 0.121C6.378 15.563 6.001 16.756 6.001 18c0 2.043 1.025 3.927 2.742 5.039 0.986 0.639 2.102 0.962 3.25 0.962 0.9 0 1.82-0.199 2.712-0.599 1.202-0.538 2.16-1.496 2.698-2.698 0.909-2.029 0.777-4.202-0.363-5.962C15.928 13.025 14.044 12 12 12z" />
</svg>