<svg id="clouds_Layer_1" viewBox="0 0 24 24" fill="currentColor" width="32" height="32" data-name="Layer 1" xmlns="http://www.w3.org/2000/svg" xmlns:xlink="http://www.w3.org/1999/xlink">
    <title>clouds</title>
    <path d="M3.147 6.559C2.98 7.378 2.956 8.204 3.073 9.011c0.13 0.893-0.119 1.714-0.685 2.255-1.128 1.078-1.609 2.646-1.289 4.196 0.356 1.724 1.761 3.109 3.496 3.45 0.271 0.053 0.448 0.315 0.395 0.587-0.047 0.238-0.256 0.403-0.49 0.403-2.321-0.287-3.943-2.125-4.38-4.237-0.391-1.89 0.199-3.805 1.577-5.122 0.329-0.314 0.469-0.82 0.387-1.388-0.135-0.923-0.107-1.863 0.083-2.796 0.637-3.137 3.171-5.635 6.306-6.216 3.574-0.669 7.061 1.056 8.675 4.278 0.194 0.388 0.56 0.668 1.001 0.767 3.521 0.79 5.98 3.984 5.847 7.597-0.017 0.447-0.076 0.895-0.176 1.328-0.062 0.27-0.325 0.441-0.6 0.375-0.269-0.062-0.437-0.33-0.375-0.6 0.086-0.372 0.137-0.756 0.15-1.141 0.116-3.131-2.014-5.899-5.065-6.583-0.736-0.166-1.347-0.638-1.677-1.296-1.412-2.819-4.465-4.324-7.598-3.743-2.738 0.508-4.952 2.691-5.508 5.434zM23.878 20.536c-0.376 1.642-1.683 2.944-3.328 3.319-0.316 0.073-0.641 0.113-0.962 0.12C18.725 23.992 16.545 24 14.449 24c-1.979 0-3.882-8e-3-4.534-0.026-0.235-6e-3-0.478-0.041-0.72-0.104-1.006-0.264-1.826-1.084-2.089-2.089-0.387-1.47 0.332-2.966 1.709-3.557 0.24-0.103 0.362-0.348 0.306-0.61-0.174-0.812-0.161-1.64 0.04-2.462 0.523-2.145 2.337-3.799 4.515-4.116 2.514-0.362 4.938 1.005 5.905 3.335 0.235 0.563 0.765 0.687 1.094 0.761 2.347 0.633 3.754 3.007 3.203 5.404zM20.415 16.097h-2e-3c-0.392-0.089-1.321-0.301-1.756-1.342-0.705-1.701-2.364-2.777-4.174-2.777-0.22 0-0.44 0.016-0.663 0.049-1.779 0.259-3.261 1.61-3.688 3.362-0.165 0.675-0.176 1.353-0.034 2.016 0.157 0.731-0.208 1.447-0.889 1.739-0.788 0.338-1.431 1.266-1.137 2.384 0.174 0.662 0.714 1.202 1.375 1.376 0.167 0.043 0.333 0.067 0.493 0.071 1.336 0.039 7.957 0.034 9.626 0 0.253-5e-3 0.509-0.037 0.759-0.095 1.255-0.286 2.29-1.318 2.577-2.568 0.43-1.872-0.663-3.723-2.487-4.215z" />
</svg>