<svg id="cloud_sleet_Layer_1" viewBox="0 0 24 24" fill="currentColor" width="32" height="32" data-name="Layer 1" xmlns="http://www.w3.org/2000/svg" xmlns:xlink="http://www.w3.org/1999/xlink">
    <title>cloud-sleet</title>
    <path d="M13.5 24c-0.062 0-0.125-0.011-0.186-0.036-0.257-0.103-0.381-0.394-0.278-0.65l2-5c0.103-0.257 0.395-0.381 0.649-0.279 0.257 0.103 0.381 0.394 0.278 0.65l-2 5C13.885 23.881 13.697 23.999 13.5 24zM9.5 24c-0.062 0-0.125-0.011-0.186-0.036-0.256-0.103-0.381-0.394-0.279-0.65l2-5c0.102-0.257 0.396-0.381 0.65-0.279 0.256 0.103 0.381 0.394 0.279 0.65l-2 5C9.886 23.881 9.698 23.999 9.5 24zM5.5 24c-0.062 0-0.125-0.011-0.186-0.036-0.256-0.103-0.381-0.394-0.279-0.65l2-5c0.102-0.257 0.396-0.381 0.65-0.279 0.256 0.103 0.381 0.394 0.279 0.65l-2 5C5.886 23.881 5.698 23.999 5.5 24zM18.5 19.635c-0.211 0-0.407-0.134-0.476-0.346-0.085-0.262 0.059-0.544 0.321-0.63 2.683-0.872 4.551-3.248 4.649-5.912 0.116-3.131-2.015-5.899-5.065-6.584-0.735-0.165-1.347-0.636-1.677-1.294-1.413-2.819-4.464-4.325-7.598-3.744-2.737 0.508-4.95 2.691-5.507 5.434C2.98 7.378 2.956 8.203 3.073 9.011c0.13 0.892-0.119 1.714-0.685 2.254-1.127 1.078-1.609 2.646-1.288 4.196 0.286 1.381 1.282 2.596 2.6 3.17 0.253 0.11 0.369 0.405 0.259 0.658-0.111 0.252-0.405 0.369-0.658 0.259-1.635-0.712-2.824-2.165-3.18-3.884-0.391-1.89 0.198-3.805 1.577-5.122 0.329-0.314 0.469-0.819 0.387-1.387C1.95 8.232 1.978 7.292 2.168 6.359c0.636-3.137 3.17-5.635 6.305-6.217 3.576-0.665 7.061 1.057 8.675 4.279 0.194 0.389 0.56 0.668 1.001 0.767 3.521 0.79 5.98 3.984 5.847 7.597-0.114 3.082-2.261 5.825-5.341 6.826-0.051 0.017-0.104 0.024-0.155 0.024zM13.741 15.036c-0.173 0-0.342-0.09-0.434-0.251l-1.308-2.279-1.307 2.279c-0.137 0.239-0.445 0.322-0.682 0.185-0.24-0.137-0.323-0.443-0.185-0.682L11.137 12H8.5C8.224 12 8 11.776 8 11.5S8.224 11 8.5 11h2.637L9.825 8.712C9.687 8.473 9.77 8.167 10.01 8.03c0.238-0.137 0.545-0.055 0.682 0.185l1.307 2.279 1.308-2.279c0.137-0.24 0.441-0.323 0.683-0.185 0.239 0.137 0.322 0.443 0.185 0.682L12.863 11H15.5c0.276 0 0.5 0.224 0.5 0.5S15.776 12 15.5 12h-2.637l1.312 2.288c0.138 0.239 0.055 0.545-0.185 0.682-0.079 0.045-0.164 0.066-0.249 0.066z" />
</svg>