<svg id="cloud_hail_Layer_1" viewBox="0 0 24 24" fill="currentColor" width="32" height="32" data-name="Layer 1" xmlns="http://www.w3.org/2000/svg" xmlns:xlink="http://www.w3.org/1999/xlink">
    <title>cloud-hail</title>
    <path d="M8 14c0.552 0 1 0.448 1 1s-0.448 1-1 1-1-0.448-1-1 0.448-1 1-1zM11 15c0 0.552 0.448 1 1 1s1-0.448 1-1-0.448-1-1-1-1 0.448-1 1zM15 15c0 0.552 0.448 1 1 1s1-0.448 1-1-0.448-1-1-1-1 0.448-1 1zM6 19c0 0.552 0.448 1 1 1s1-0.448 1-1-0.448-1-1-1-1 0.448-1 1zM10 19c0 0.552 0.448 1 1 1s1-0.448 1-1-0.448-1-1-1-1 0.448-1 1zM14 19c0 0.552 0.448 1 1 1s1-0.448 1-1-0.448-1-1-1-1 0.448-1 1zM5 23c0 0.552 0.448 1 1 1s1-0.448 1-1-0.448-1-1-1-1 0.448-1 1zM9 23c0 0.552 0.448 1 1 1s1-0.448 1-1-0.448-1-1-1-1 0.448-1 1zM13 23c0 0.552 0.448 1 1 1s1-0.448 1-1-0.448-1-1-1-1 0.448-1 1zM18.654 19.61c3.08-1.001 5.227-3.744 5.34-6.826 0.134-3.612-2.325-6.807-5.847-7.597-0.441-0.099-0.806-0.378-1-0.767-1.614-3.222-5.102-4.942-8.674-4.278-3.135 0.582-5.669 3.08-6.306 6.217-0.19 0.933-0.218 1.873-0.083 2.796 0.083 0.568-0.058 1.073-0.387 1.387-1.378 1.318-1.968 3.232-1.576 5.123 0.356 1.719 1.545 3.171 3.18 3.884 0.253 0.11 0.548-6e-3 0.658-0.259s-6e-3-0.548-0.259-0.658c-1.318-0.574-2.314-1.789-2.6-3.17-0.321-1.55 0.161-3.119 1.288-4.196 0.566-0.541 0.815-1.362 0.685-2.254C2.955 8.204 2.98 7.379 3.147 6.56c0.557-2.744 2.77-4.927 5.508-5.435 3.128-0.581 6.185 0.924 7.598 3.743 0.33 0.658 0.94 1.13 1.676 1.295 3.052 0.684 5.182 3.453 5.066 6.584-0.099 2.665-1.967 5.041-4.65 5.912-0.263 0.085-0.407 0.368-0.321 0.63 0.069 0.211 0.265 0.346 0.476 0.346 0.051 0 0.103-8e-3 0.154-0.025z" />
</svg>