<svg id="cloud_showers_water_Layer_1" viewBox="0 0 24 24" fill="currentColor" width="32" height="32" data-name="Layer 1" xmlns="http://www.w3.org/2000/svg" xmlns:xlink="http://www.w3.org/1999/xlink">
    <title>cloud-showers-water</title>
    <path d="M17.407 11.05c0.255 0.107 0.375 0.399 0.269 0.654l-2.928 7c-0.081 0.191-0.266 0.307-0.461 0.307-0.064 0-0.13-0.013-0.193-0.039-0.255-0.106-0.375-0.399-0.269-0.654l2.928-6.999c0.107-0.255 0.4-0.375 0.654-0.269zM12.791 11.319 9.863 18.318c-0.106 0.255 0.014 0.548 0.269 0.654 0.063 0.026 0.128 0.039 0.193 0.039 0.195 0 0.381-0.115 0.461-0.307l2.928-7c0.106-0.255-0.014-0.547-0.269-0.654-0.254-0.107-0.547 0.013-0.654 0.269zM9.407 11.05c-0.253-0.107-0.547 0.013-0.654 0.269l-2.928 6.999c-0.106 0.255 0.014 0.548 0.269 0.654 0.063 0.026 0.128 0.039 0.193 0.039 0.195 0 0.381-0.115 0.461-0.307l2.928-7c0.106-0.255-0.014-0.547-0.269-0.654zM23.88 22.407c-0.18-0.21-0.496-0.232-0.705-0.053C22.69 22.77 22.063 23 21.41 23c-1.168 0-2.315-0.72-2.668-1.674-0.144-0.393-0.792-0.39-0.938 0-0.352 0.953-1.499 1.673-2.667 1.673s-2.314-0.72-2.667-1.674c-0.145-0.393-0.793-0.393-0.938 0-0.353 0.954-1.5 1.674-2.667 1.674s-2.315-0.72-2.667-1.673c-0.073-0.196-0.26-0.327-0.469-0.327s-0.396 0.13-0.469 0.326c-0.353 0.954-1.5 1.674-2.668 1.674-0.653 0-1.28-0.229-1.765-0.646-0.208-0.18-0.524-0.157-0.705 0.053-0.18 0.21-0.156 0.525 0.054 0.705 0.666 0.572 1.524 0.888 2.417 0.888 1.24 0 2.434-0.594 3.137-1.494 0.703 0.9 1.896 1.494 3.136 1.494s2.434-0.594 3.136-1.494c0.703 0.9 1.897 1.494 3.136 1.494s2.434-0.594 3.136-1.494c0.703 0.9 1.897 1.494 3.137 1.494 0.893 0 1.75-0.315 2.417-0.888 0.209-0.18 0.233-0.495 0.052-0.704zM4.249 16.147c0.239 0.138 0.545 0.057 0.683-0.183 0.139-0.238 0.057-0.545-0.182-0.683C3.67 14.656 3 13.495 3 12.249 3 11.151 3.487 10.113 4.336 9.4 4.919 8.91 5.204 8.144 5.077 7.402 4.936 6.573 4.99 5.733 5.239 4.905c0.599-1.996 2.3-3.5 4.334-3.831 2.367-0.384 4.692 0.771 5.795 2.874 0.319 0.61 0.884 1.061 1.548 1.237C19.321 5.823 21 8.008 21 10.498c0 2.075-1.149 3.951-2.999 4.897-0.246 0.126-0.343 0.427-0.218 0.673 0.089 0.173 0.264 0.272 0.446 0.272 0.077 0 0.154-0.018 0.227-0.055 2.186-1.118 3.543-3.336 3.543-5.788 0-2.943-1.985-5.525-4.828-6.28-0.4-0.106-0.727-0.367-0.919-0.735C14.95 1 12.208-0.367 9.412 0.088 7.004 0.481 4.99 2.259 4.281 4.618 3.988 5.595 3.924 6.588 4.092 7.571c0.066 0.388-0.09 0.806-0.399 1.064-1.076 0.903-1.692 2.221-1.692 3.614 0 1.602 0.862 3.095 2.248 3.898z" />
</svg>