<svg id="cloud_download_alt_Layer_1" viewBox="0 0 24 24" fill="currentColor" width="32" height="32" data-name="Layer 1" xmlns="http://www.w3.org/2000/svg" xmlns:xlink="http://www.w3.org/1999/xlink">
    <title>cloud-download-alt</title>
    <path d="M18.147 7.191c-0.44-0.098-0.805-0.377-1-0.766-1.615-3.224-5.103-4.943-8.675-4.279-3.135 0.582-5.669 3.081-6.306 6.218-0.19 0.933-0.218 1.873-0.083 2.796 0.083 0.567-0.058 1.073-0.387 1.387C0.604 13.592 1e-3 14.996 0 16.5 0 19.636 2.364 22 5.5 22h10.736c4.13 0 7.611-3.234 7.758-7.211 0.134-3.612-2.325-6.808-5.847-7.598zM16.236 21H5.5C2.893 21 1 19.107 1 16.501c1e-3-1.229 0.495-2.376 1.388-3.231 0.566-0.54 0.815-1.361 0.685-2.254-0.118-0.808-0.093-1.633 0.074-2.452 0.556-2.742 2.77-4.926 5.508-5.435C9.103 3.046 9.55 3.006 9.99 3.006c2.637 0 5.052 1.45 6.263 3.867 0.33 0.659 0.941 1.131 1.676 1.295 3.051 0.685 5.182 3.453 5.066 6.584C22.867 18.197 19.835 21 16.236 21zM15.267 14.146c0.195 0.195 0.195 0.512 0 0.707L12.56 17.56c-0.258 0.257-0.588 0.381-0.925 0.412-0.044 0.013-0.087 0.027-0.135 0.027s-0.091-0.015-0.135-0.027c-0.337-0.031-0.668-0.155-0.925-0.412l-2.707-2.707c-0.195-0.195-0.195-0.512 0-0.707s0.512-0.195 0.707 0l2.561 2.561V9.5c0-0.276 0.224-0.5 0.5-0.5s0.5 0.224 0.5 0.5v7.207l2.561-2.561c0.195-0.195 0.512-0.195 0.705 0z" />
</svg>