<svg id="cloud_gear_automation_Layer_1" viewBox="0 0 24 24" fill="currentColor" width="32" height="32" data-name="Layer 1" xmlns="http://www.w3.org/2000/svg" xmlns:xlink="http://www.w3.org/1999/xlink">
    <title>cloud-gear-automation</title>
    <path d="M17.332 16.096c0.101-0.388 0.044-0.791-0.159-1.136-0.203-0.346-0.528-0.592-0.917-0.692-0.387-0.102-0.792-0.044-1.137 0.159l-0.223 0.131c-0.408-0.34-0.881-0.606-1.396-0.786v-0.271c0-0.827-0.673-1.5-1.5-1.5s-1.5 0.673-1.5 1.5v0.271c-0.515 0.18-0.988 0.446-1.396 0.786l-0.223-0.131c-0.346-0.203-0.75-0.261-1.137-0.159-0.388 0.101-0.713 0.347-0.916 0.691-0.204 0.346-0.26 0.749-0.16 1.137 0.101 0.389 0.347 0.714 0.692 0.916l0.234 0.138C7.53 17.45 7.5 17.726 7.5 18.001s0.03 0.551 0.094 0.85L7.36 18.989c-0.345 0.203-0.591 0.528-0.691 0.916-0.101 0.389-0.044 0.792 0.159 1.137 0.203 0.346 0.528 0.592 0.917 0.692 0.388 0.104 0.792 0.045 1.137-0.159l0.223-0.131c0.408 0.34 0.881 0.606 1.396 0.786v0.271c0 0.827 0.673 1.5 1.5 1.5s1.5-0.673 1.5-1.5V22.23c0.515-0.18 0.988-0.446 1.396-0.786l0.223 0.131c0.347 0.204 0.75 0.263 1.137 0.159 0.388-0.101 0.713-0.347 0.916-0.691 0.204-0.346 0.26-0.749 0.16-1.138-0.101-0.388-0.346-0.713-0.692-0.917l-0.233-0.137c0.064-0.299 0.094-0.575 0.094-0.85s-0.03-0.551-0.094-0.851l0.233-0.137c0.346-0.203 0.591-0.528 0.691-0.917zM15.35 17.045c0.103 0.361 0.151 0.665 0.151 0.955s-0.048 0.594-0.151 0.955c-0.062 0.219 0.031 0.453 0.228 0.568l0.556 0.325c0.115 0.068 0.197 0.177 0.23 0.307 0.034 0.129 0.015 0.264-0.053 0.379s-0.176 0.197-0.305 0.23c-0.13 0.034-0.263 0.016-0.379-0.053l-0.541-0.318c-0.196-0.117-0.447-0.085-0.607 0.077-0.43 0.432-0.984 0.743-1.603 0.903-0.221 0.058-0.375 0.257-0.375 0.484v0.642c0 0.275-0.224 0.5-0.5 0.5s-0.5-0.225-0.5-0.5v-0.642c0-0.228-0.154-0.427-0.375-0.484-0.619-0.16-1.173-0.472-1.603-0.903-0.096-0.097-0.225-0.146-0.354-0.146-0.087 0-0.175 0.022-0.253 0.069l-0.541 0.318c-0.116 0.067-0.249 0.087-0.379 0.053-0.129-0.033-0.237-0.115-0.306-0.231-0.067-0.114-0.086-0.249-0.053-0.378 0.034-0.13 0.115-0.238 0.23-0.306l0.556-0.326c0.197-0.115 0.291-0.35 0.228-0.568C8.548 18.594 8.5 18.29 8.5 18s0.048-0.594 0.151-0.955c0.062-0.219-0.031-0.452-0.228-0.567L7.866 16.15c-0.115-0.067-0.197-0.176-0.23-0.305-0.034-0.129-0.015-0.264 0.053-0.379s0.176-0.197 0.305-0.23c0.131-0.033 0.264-0.015 0.379 0.053l0.541 0.318c0.195 0.116 0.447 0.085 0.607-0.077 0.43-0.432 0.984-0.743 1.603-0.903 0.221-0.058 0.375-0.257 0.375-0.484v-0.642c0-0.275 0.224-0.5 0.5-0.5s0.5 0.225 0.5 0.5v0.642c0 0.228 0.154 0.427 0.375 0.484 0.619 0.16 1.173 0.472 1.603 0.903 0.161 0.162 0.411 0.193 0.607 0.077l0.541-0.318c0.115-0.067 0.249-0.087 0.379-0.053 0.129 0.033 0.237 0.115 0.306 0.231 0.067 0.114 0.086 0.249 0.053 0.378s-0.115 0.237-0.23 0.306l-0.556 0.327c-0.196 0.115-0.29 0.349-0.227 0.567zM12.001 16c-1.103 0-2 0.897-2 2s0.897 2 2 2 2-0.897 2-2-0.897-2-2-2zM12.001 19c-0.551 0-1-0.448-1-1s0.449-1 1-1 1 0.448 1 1-0.449 1-1 1zM24.001 12.5c0 2.964-1.568 5.318-4.303 6.461-0.254 0.107-0.548-0.013-0.654-0.269-0.106-0.255 0.014-0.547 0.269-0.653 2.379-0.994 3.689-2.961 3.689-5.539 0-2.916-2.228-5.699-5.071-6.336-0.736-0.166-1.347-0.638-1.676-1.296-1.413-2.82-4.468-4.325-7.598-3.743-2.738 0.508-4.952 2.691-5.508 5.434-0.167 0.819-0.191 1.645-0.074 2.452 0.13 0.893-0.119 1.714-0.685 2.255-0.895 0.854-1.387 2.001-1.389 3.23 0 2.136 1.514 3.99 3.6 4.414 0.271 0.056 0.445 0.319 0.39 0.59-0.048 0.237-0.256 0.4-0.489 0.4-2.55-0.519-4.5-2.795-4.5-5.4 1e-3-1.51 0.604-2.913 1.698-3.957 0.328-0.314 0.469-0.82 0.386-1.388-0.135-0.923-0.107-1.863 0.083-2.796 0.635-3.137 3.169-5.635 6.304-6.216 3.576-0.673 7.061 1.056 8.675 4.278 0.194 0.389 0.559 0.668 1 0.767C21.43 5.923 24 9.135 24.001 12.5z" />
</svg>