<svg id="cloud_disabled_Layer_1" viewBox="0 0 24 24" fill="currentColor" width="32" height="32" data-name="Layer 1" xmlns="http://www.w3.org/2000/svg" xmlns:xlink="http://www.w3.org/1999/xlink">
    <title>cloud-disabled</title>
    <path d="M21.108 20.401C22.921 18.983 24 16.813 24 14.5c0-3.533-2.406-6.54-5.852-7.312-0.441-0.099-0.807-0.378-1.001-0.767-1.614-3.222-5.103-4.943-8.675-4.279C7.08 2.4 5.788 3.049 4.71 4.004L0.854 0.146c-0.196-0.195-0.512-0.195-0.708 0s-0.195 0.512 0 0.708l23 23C23.244 23.952 23.372 24 23.5 24s0.256-0.049 0.354-0.146c0.195-0.195 0.195-0.512 0-0.707zM8.655 3.125c3.133-0.58 6.185 0.924 7.598 3.744 0.33 0.658 0.941 1.13 1.677 1.294C20.868 8.822 23 11.487 23 14.5c0 2.045-0.974 3.964-2.603 5.19L5.42 4.713c0.933-0.812 2.042-1.366 3.235-1.588zM17.995 21.359c0.039 0.273-0.151 0.526-0.425 0.565C17.216 21.974 16.856 22 16.5 22h-11C2.467 22 0 19.533 0 16.5c0-1.506 0.603-2.912 1.698-3.958 0.328-0.314 0.469-0.819 0.386-1.387-0.135-0.923-0.107-1.863 0.083-2.796C2.274 7.827 2.44 7.302 2.659 6.8c0.11-0.252 0.405-0.369 0.658-0.259s0.369 0.405 0.259 0.658C3.385 7.637 3.241 8.094 3.147 8.557 2.98 9.376 2.956 10.202 3.073 11.01c0.13 0.892-0.119 1.714-0.685 2.254C1.493 14.12 1 15.268 1 16.499c0 2.481 2.019 4.5 4.5 4.5h11c0.31 0 0.622-0.022 0.93-0.066 0.269-0.038 0.527 0.151 0.565 0.426z" />
</svg>