<svg id="cloud_showers_Layer_1" viewBox="0 0 24 24" fill="currentColor" width="32" height="32" data-name="Layer 1" xmlns="http://www.w3.org/2000/svg" xmlns:xlink="http://www.w3.org/1999/xlink">
    <title>cloud-showers</title>
    <path d="M14.5 24c-0.276 0-0.5-0.224-0.5-0.5v-5c0-0.276 0.224-0.5 0.5-0.5s0.5 0.224 0.5 0.5v5c0 0.276-0.224 0.5-0.5 0.5zM6.5 24C6.224 24 6 23.776 6 23.5v-5C6 18.224 6.224 18 6.5 18S7 18.224 7 18.5v5C7 23.776 6.776 24 6.5 24zM18.5 22c-0.276 0-0.5-0.224-0.5-0.5v-5c0-0.276 0.224-0.5 0.5-0.5s0.5 0.224 0.5 0.5v5c0 0.276-0.224 0.5-0.5 0.5zM10.5 22c-0.276 0-0.5-0.224-0.5-0.5v-5c0-0.276 0.224-0.5 0.5-0.5s0.5 0.224 0.5 0.5v5c0 0.276-0.224 0.5-0.5 0.5zM3.528 19.602c-0.064 0-0.338-0.103-0.338-0.103-1.576-0.729-2.724-2.162-3.069-3.834-0.391-1.89 0.199-3.805 1.577-5.122 0.329-0.314 0.469-0.82 0.387-1.388C1.95 8.232 1.978 7.292 2.168 6.359c0.636-3.137 3.17-5.635 6.305-6.216 3.574-0.671 7.061 1.056 8.675 4.278 0.194 0.389 0.56 0.668 1.001 0.767 3.521 0.79 5.98 3.984 5.847 7.597-0.068 1.839-0.854 3.589-2.212 4.928-0.195 0.192-0.512 0.191-0.707-6e-3-0.193-0.196-0.191-0.513 6e-3-0.707 1.175-1.158 1.854-2.668 1.913-4.252 0.116-3.131-2.014-5.899-5.065-6.583C17.196 6 16.584 5.527 16.254 4.869 14.842 2.05 11.789 0.544 8.656 1.126 5.917 1.633 3.703 3.816 3.147 6.559 2.98 7.378 2.956 8.204 3.073 9.011c0.13 0.893-0.119 1.714-0.685 2.255-1.128 1.078-1.609 2.646-1.289 4.196 0.282 1.363 1.22 2.533 2.511 3.13l0.108 0.048c0.255 0.105 0.376 0.397 0.271 0.653-0.08 0.192-0.266 0.309-0.461 0.309z" />
</svg>