<svg id="cloud_check_Layer_1" viewBox="0 0 24 24" fill="currentColor" width="32" height="32" data-name="Layer 1" xmlns="http://www.w3.org/2000/svg" xmlns:xlink="http://www.w3.org/1999/xlink">
    <title>cloud-check</title>
    <path d="M18.518 15.614l-5.654 5.654C12.392 21.74 11.764 22 11.096 22S9.8 21.74 9.328 21.268l-3.385-3.384c-0.195-0.195-0.195-0.512 0-0.707s0.512-0.195 0.707 0l3.385 3.384c0.566 0.566 1.555 0.566 2.121 0l5.654-5.654c0.195-0.195 0.512-0.195 0.707 0s0.195 0.512 1e-3 0.707zM18.148 7.188c-0.441-0.099-0.806-0.378-1-0.767-1.615-3.223-5.101-4.944-8.675-4.279C5.338 2.724 2.804 5.223 2.167 8.36c-0.19 0.933-0.218 1.873-0.083 2.796 0.083 0.568-0.058 1.073-0.386 1.387C0.603 13.589 0 14.995 0 16.501c0 3.033 2.467 5.5 5.5 5.5h1c0.276 0 0.5-0.224 0.5-0.5s-0.224-0.5-0.5-0.5h-1c-2.481 0-4.5-2.019-4.5-4.5 0-1.23 0.493-2.379 1.388-3.235 0.566-0.541 0.815-1.362 0.685-2.254C2.955 10.204 2.98 9.379 3.147 8.56c0.557-2.742 2.77-4.926 5.508-5.434 3.128-0.583 6.185 0.923 7.598 3.743 0.33 0.659 0.94 1.13 1.676 1.295C20.867 8.823 23 11.488 23 14.501c0 3.584-2.916 6.5-6.5 6.5h-1c-0.276 0-0.5 0.224-0.5 0.5s0.224 0.5 0.5 0.5h1c4.136 0 7.5-3.364 7.5-7.5 0-3.533-2.406-6.54-5.852-7.313z" />
</svg>