<svg id="cloud_windy_Layer_1" viewBox="0 0 24 24" fill="currentColor" width="32" height="32" data-name="Layer 1" xmlns="http://www.w3.org/2000/svg" xmlns:xlink="http://www.w3.org/1999/xlink">
    <title>cloud-windy</title>
    <path d="M18.695 23.59c-0.12 0.249-0.419 0.353-0.667 0.237-0.47-0.224-1.749-0.683-2.714-0.784-1.487-0.157-2.654 0.149-3.508 0.433C11.095 23.711 10.123 24 8.908 24c-1.485 0-3.343-0.503-3.507-0.591-0.264-0.08-0.413-0.359-0.333-0.624 0.08-0.264 0.357-0.413 0.624-0.333 0.11 0.067 2.406 0.646 3.202 0.548 1.079-0.015 1.955-0.261 2.598-0.474 0.946-0.314 2.244-0.654 3.926-0.478 1.049 0.109 2.434 0.587 3.04 0.874 0.249 0.119 0.355 0.417 0.237 0.668zM18.514 18.724c-0.078-0.023-1.936-0.565-3.007-0.676-1.698-0.176-3.016 0.162-3.976 0.477-0.653 0.214-1.543 0.461-2.637 0.476-0.805 0.111-3.122-0.51-3.226-0.59-0.262-0.085-0.545 0.054-0.633 0.316-0.087 0.262 0.054 0.545 0.316 0.633 0.171 0.104 2.146 0.641 3.555 0.641 1.23 0 2.214-0.289 2.935-0.524 0.92-0.301 2.061-0.589 3.562-0.434 0.98 0.102 2.811 0.636 2.829 0.641 0.269 0.077 0.543-0.075 0.62-0.339 0.078-0.265-0.074-0.543-0.338-0.621zM18.62 14.669c-0.083-0.021-2.053-0.512-3.113-0.621-1.698-0.176-3.016 0.162-3.976 0.477-0.653 0.214-1.543 0.461-2.637 0.476-0.816 0.138-3.099-0.575-3.208-0.681-0.255-0.103-0.548 0.02-0.651 0.276-0.104 0.256 0.021 0.548 0.276 0.651C5.481 15.38 7.46 16 8.907 16c1.23 0 2.214-0.289 2.935-0.524 0.92-0.301 2.061-0.589 3.562-0.434 0.991 0.103 2.955 0.593 2.975 0.598 0.264 0.064 0.538-0.096 0.606-0.364 0.066-0.268-0.096-0.539-0.365-0.607zM18.147 5.188c-0.441-0.099-0.807-0.378-1.001-0.767-1.612-3.222-5.099-4.943-8.672-4.279-3.135 0.581-5.669 3.08-6.308 6.217-0.189 0.934-0.217 1.875-0.083 2.796 0.083 0.568-0.058 1.074-0.386 1.387-1.378 1.318-1.968 3.233-1.576 5.123 0.266 1.284 1.004 2.436 2.079 3.242 0.219 0.164 0.533 0.122 0.7-0.101 0.165-0.221 0.12-0.534-0.101-0.7-0.88-0.659-1.483-1.599-1.7-2.645-0.32-1.55 0.161-3.119 1.289-4.196 0.565-0.54 0.814-1.362 0.685-2.255-0.118-0.807-0.094-1.632 0.073-2.452 0.558-2.742 2.772-4.925 5.509-5.433 3.132-0.581 6.185 0.923 7.598 3.744 0.33 0.658 0.941 1.13 1.677 1.294 3.051 0.685 5.182 3.453 5.065 6.584-0.06 1.632-0.775 3.275-1.913 4.396-0.197 0.194-0.199 0.511-6e-3 0.707 0.195 0.198 0.512 0.198 0.707 6e-3 1.315-1.296 2.142-3.192 2.212-5.072 0.134-3.612-2.325-6.807-5.848-7.596z" />
</svg>