<svg id="cloud_download_Layer_1" viewBox="0 0 24 24" fill="currentColor" width="32" height="32" data-name="Layer 1" xmlns="http://www.w3.org/2000/svg" xmlns:xlink="http://www.w3.org/1999/xlink">
    <title>cloud-download</title>
    <path d="M19.847 19.64c0.199 0.191 0.205 0.508 0.014 0.707l-2.96 3.076c-0.389 0.389-0.896 0.583-1.403 0.583-0.504 0-1.007-0.192-1.391-0.576l-2.967-3.083c-0.191-0.199-0.186-0.516 0.014-0.707 0.198-0.19 0.515-0.185 0.707 0.014l2.96 3.076c0.053 0.053 0.119 0.081 0.18 0.119v-9.348c0-0.276 0.224-0.5 0.5-0.5s0.5 0.224 0.5 0.5v9.346c0.064-0.039 0.132-0.069 0.187-0.124l2.953-3.069c0.193-0.199 0.51-0.204 0.706-0.014zM18.149 7.188c-0.441-0.099-0.807-0.378-1.001-0.767-1.614-3.221-5.101-4.942-8.674-4.279C5.339 2.724 2.805 5.223 2.166 8.36c-0.189 0.934-0.217 1.875-0.083 2.796 0.083 0.568-0.058 1.074-0.386 1.387C0.602 13.588 0 14.994 0 16.501c0 3.033 2.468 5.5 5.5 5.5h4c0.276 0 0.5-0.224 0.5-0.5s-0.224-0.5-0.5-0.5h-4c-2.481 0-4.5-2.019-4.5-4.5 0-1.23 0.493-2.379 1.389-3.234 0.565-0.54 0.814-1.362 0.685-2.255C2.956 10.205 2.98 9.38 3.147 8.56 3.705 5.818 5.918 3.634 8.656 3.126c3.132-0.58 6.185 0.924 7.598 3.744 0.33 0.658 0.941 1.13 1.677 1.294 2.938 0.659 5.07 3.324 5.07 6.337 0 1.475-0.481 2.866-1.393 4.021-0.171 0.217-0.134 0.531 0.083 0.702 0.218 0.171 0.532 0.134 0.702-0.083 1.052-1.333 1.607-2.938 1.607-4.64 0-3.533-2.406-6.54-5.851-7.313z" />
</svg>