<svg id="cloud_upload_alt_Layer_1" viewBox="0 0 24 24" fill="currentColor" width="32" height="32" data-name="Layer 1" xmlns="http://www.w3.org/2000/svg" xmlns:xlink="http://www.w3.org/1999/xlink">
    <title>cloud-upload-alt</title>
    <path d="M18.148 7.188c-0.441-0.099-0.807-0.379-1.001-0.767-1.614-3.223-5.101-4.948-8.675-4.278C5.337 2.724 2.803 5.222 2.166 8.36c-0.19 0.933-0.218 1.873-0.083 2.796 0.083 0.567-0.058 1.073-0.386 1.388C0.604 13.587 1e-3 14.99 0 16.495c0 3.136 2.364 5.5 5.5 5.5h10.736c4.131 0 7.611-3.234 7.759-7.211 0.134-3.612-2.325-6.807-5.847-7.596zM16.236 20.996H5.5c-2.607 0-4.5-1.893-4.5-4.499 1e-3-1.229 0.494-2.376 1.389-3.23 0.565-0.541 0.815-1.362 0.685-2.255-0.118-0.808-0.093-1.633 0.074-2.452 0.556-2.742 2.77-4.926 5.508-5.434 0.448-0.083 0.895-0.123 1.335-0.123 2.637 0 5.053 1.45 6.263 3.866 0.33 0.658 0.94 1.13 1.677 1.296 3.052 0.684 5.182 3.452 5.065 6.583-0.127 3.445-3.159 6.248-6.76 6.248zM15.267 12.147c0.195 0.195 0.195 0.512 0 0.707C15.169 12.952 15.041 13 14.913 13s-0.256-0.049-0.354-0.146l-2.561-2.561V17.5c0 0.276-0.224 0.5-0.5 0.5s-0.5-0.224-0.5-0.5v-7.207l-2.561 2.561c-0.195 0.195-0.512 0.195-0.707 0s-0.195-0.512 0-0.707l2.707-2.707c0.243-0.242 0.552-0.359 0.868-0.401C11.364 9.014 11.429 9 11.497 9s0.133 0.014 0.192 0.039c0.317 0.041 0.626 0.158 0.869 0.401z" />
</svg>