<svg id="cloud_rainbow_Layer_1" viewBox="0 0 24 24" fill="currentColor" width="32" height="32" data-name="Layer 1" xmlns="http://www.w3.org/2000/svg" xmlns:xlink="http://www.w3.org/1999/xlink">
    <title>cloud-rainbow</title>
    <path d="M24 4.5C24 4.776 23.776 5 23.5 5c-3.873 0-7.465 1.752-9.854 4.808C13.547 9.934 13.401 10 13.252 10c-0.108 0-0.217-0.035-0.308-0.106-0.217-0.17-0.256-0.484-0.086-0.702C15.439 5.893 19.317 4 23.5 4 23.776 4 24 4.224 24 4.5zM9.457 7.904C9.546 7.968 9.649 8 9.751 8c0.154 0 0.307-0.071 0.405-0.206C13.255 3.54 18.243 1 23.5 1 23.776 1 24 0.776 24 0.5S23.776 0 23.5 0C17.925 0 12.634 2.694 9.347 7.206 9.184 7.429 9.234 7.742 9.457 7.904zM23.5 12c-1.747 0-3.351 0.802-4.4 2.2-0.166 0.221-0.122 0.534 0.1 0.7 0.09 0.067 0.195 0.1 0.3 0.1 0.151 0 0.302-0.069 0.399-0.2 0.859-1.145 2.172-1.801 3.602-1.801 0.276 0 0.5-0.224 0.5-0.5S23.777 11.999 23.5 12zM17.863 20.405c-0.401 1.692-1.752 3.047-3.44 3.454-0.415 0.1-0.836 0.151-1.251 0.141-0.739-0.013-2.66-6e-3-4.641 2e-3-1.245 4e-3-5.02 6e-3-5.364-2e-3-0.285-7e-3-0.574-0.052-0.859-0.132-1.045-0.297-1.878-1.131-2.175-2.175-0.449-1.578 0.289-3.214 1.753-3.891 0.193-0.09 0.294-0.315 0.244-0.549-0.106-0.502-0.148-1.02-0.124-1.538 0.143-3.051 2.644-5.558 5.694-5.706 2.633-0.126 5.013 1.442 5.926 3.907 0.136 0.365 0.448 0.638 0.858 0.748 2.498 0.671 3.981 3.193 3.379 5.741zM14.225 15.629c-0.727-0.195-1.287-0.693-1.536-1.366-0.732-1.976-2.305-3.256-4.94-3.256-2.499 0.122-4.627 2.254-4.744 4.754-0.021 0.433 0.014 0.865 0.104 1.283 0.147 0.693-0.183 1.377-0.803 1.664-0.871 0.403-1.566 1.463-1.211 2.71 0.2 0.703 0.783 1.287 1.486 1.487 0.203 0.058 0.409 0.089 0.61 0.094 0.752 0.019 3.083 0.01 5.336 2e-3 1.99-7e-3 3.919-0.015 4.66-2e-3 0.349 5e-3 0.669-0.033 1.001-0.113 1.326-0.319 2.387-1.384 2.702-2.712 0.478-2.019-0.692-4.016-2.665-4.545zM23.499 8.001c-3.189 0-6.148 1.588-7.916 4.247-0.153 0.23-0.091 0.541 0.14 0.693 0.085 0.057 0.181 0.083 0.276 0.083 0.161 0 0.32-0.078 0.416-0.223C17.997 10.421 20.645 9 23.499 9c0.276 0 0.5-0.224 0.5-0.5s-0.224-0.5-0.5-0.499z" />
</svg>