<svg id="cloud_moon_rain_Layer_1" viewBox="0 0 24 24" fill="currentColor" width="32" height="32" data-name="Layer 1" xmlns="http://www.w3.org/2000/svg" xmlns:xlink="http://www.w3.org/1999/xlink">
    <title>cloud-moon-rain</title>
    <path d="M15 6c0-0.552 0.448-1 1-1s1 0.448 1 1-0.448 1-1 1-1-0.448-1-1zM4.781 16.355c-2.626-1.787-4.057-4.83-3.735-7.942 0.378-3.657 3.291-6.73 6.926-7.308 1.131-0.179 2.441-0.126 3.503 0.141 0.249 0.062 0.436 0.251 0.501 0.505 0.064 0.248-6e-3 0.497-0.187 0.667-1.27 1.191-3.19 2.992-3.78 5.985C7.956 8.674 8.132 8.937 8.403 8.99 8.671 9.042 8.937 8.867 8.99 8.596c0.487-2.472 1.926-3.988 3.483-5.449 0.452-0.424 0.628-1.04 0.471-1.646-0.156-0.604-0.626-1.073-1.226-1.224-1.204-0.303-2.626-0.361-3.903-0.159C3.741 0.765 0.476 4.21 0.051 8.311c-0.36 3.478 1.237 6.878 4.167 8.872 0.086 0.059 0.184 0.086 0.281 0.086 0.16 0 0.317-0.077 0.414-0.219 0.155-0.228 0.096-0.539-0.132-0.695zM20 4c0.552 0 1-0.448 1-1s-0.448-1-1-1-1 0.448-1 1 0.448 1 1 1zM22 10c0.552 0 1-0.448 1-1s-0.448-1-1-1-1 0.448-1 1 0.448 1 1 1zM20.491 13.414c-0.358-0.08-0.927-0.21-1.184-0.826-1.021-2.462-3.589-3.915-6.241-3.524-2.302 0.335-4.22 2.083-4.771 4.35-0.212 0.87-0.226 1.745-0.042 2.601 0.063 0.294-0.075 0.57-0.343 0.685-1.08 0.462-1.864 1.675-1.909 2.967 0 1.576 0.88 2.782 2.354 3.225 0.048 0.014 0.097 0.021 0.144 0.021 0.215 0 0.414-0.14 0.479-0.356 0.079-0.265-0.071-0.543-0.335-0.623C8.149 21.786 7 21.268 7 19.685c0.031-0.886 0.579-1.755 1.303-2.065 0.709-0.304 1.09-1.05 0.926-1.814-0.152-0.708-0.14-1.432 0.036-2.155 0.457-1.874 2.042-3.32 3.944-3.597 2.191-0.319 4.327 0.879 5.173 2.918 0.456 1.094 1.434 1.315 1.846 1.408 1.956 0.527 3.127 2.511 2.667 4.516-0.128 0.556-0.397 1.087-0.778 1.536-0.179 0.211-0.153 0.526 0.058 0.705 0.21 0.178 0.526 0.153 0.705-0.058 0.484-0.571 0.826-1.248 0.99-1.959 0.581-2.531-0.904-5.037-3.379-5.706zM19.5 19c-0.276 0-0.5 0.224-0.5 0.5v4c0 0.276 0.224 0.5 0.5 0.5s0.5-0.224 0.5-0.5v-4c0-0.276-0.224-0.5-0.5-0.5zM11.5 19c-0.276 0-0.5 0.224-0.5 0.5v4c0 0.276 0.224 0.5 0.5 0.5s0.5-0.224 0.5-0.5v-4c0-0.276-0.224-0.5-0.5-0.5zM15.5 19c-0.276 0-0.5 0.224-0.5 0.5v4c0 0.276 0.224 0.5 0.5 0.5s0.5-0.224 0.5-0.5v-4c0-0.276-0.224-0.5-0.5-0.5z" />
</svg>