<svg id="cloud_drizzle_Layer_1" viewBox="0 0 24 24" fill="currentColor" width="32" height="32" data-name="Layer 1" xmlns="http://www.w3.org/2000/svg" xmlns:xlink="http://www.w3.org/1999/xlink">
    <title>cloud-drizzle</title>
    <path d="M18.5 24c-0.276 0-0.5-0.224-0.5-0.5v-2c0-0.276 0.224-0.5 0.5-0.5s0.5 0.224 0.5 0.5v2c0 0.276-0.224 0.5-0.5 0.5zM12.5 24c-0.276 0-0.5-0.224-0.5-0.5v-2c0-0.276 0.224-0.5 0.5-0.5s0.5 0.224 0.5 0.5v2c0 0.276-0.224 0.5-0.5 0.5zM6.5 24C6.224 24 6 23.776 6 23.5v-2C6 21.224 6.224 21 6.5 21S7 21.224 7 21.5v2C7 23.776 6.776 24 6.5 24zM4.5 19.903c-0.032 0-0.064-3e-3-0.097-9e-3-2.125-0.417-3.846-2.117-4.283-4.229-0.391-1.89 0.198-3.804 1.577-5.122 0.329-0.314 0.469-0.819 0.387-1.387C1.949 8.233 1.977 7.293 2.167 6.36 2.804 3.222 5.338 0.724 8.473 0.142c3.573-0.666 7.06 1.057 8.675 4.279 0.195 0.389 0.559 0.668 1 0.767 3.521 0.79 5.98 3.984 5.847 7.597-0.1 2.691-1.737 5.14-4.273 6.392-0.248 0.124-0.548 0.021-0.669-0.227-0.123-0.248-0.021-0.547 0.227-0.669 2.206-1.089 3.63-3.208 3.717-5.532 0.116-3.131-2.015-5.9-5.066-6.584C17.196 6 16.585 5.529 16.255 4.87c-1.413-2.819-4.47-4.325-7.598-3.743-2.74 0.506-4.953 2.689-5.51 5.432C2.98 7.378 2.956 8.203 3.073 9.011c0.13 0.892-0.119 1.714-0.685 2.254-1.127 1.078-1.609 2.646-1.288 4.196 0.356 1.724 1.761 3.11 3.496 3.451 0.271 0.053 0.448 0.316 0.395 0.587-0.047 0.239-0.256 0.404-0.491 0.404zM15.5 18c-0.276 0-0.5-0.224-0.5-0.5v-2c0-0.276 0.224-0.5 0.5-0.5s0.5 0.224 0.5 0.5v2c0 0.276-0.224 0.5-0.5 0.5zM9.5 18C9.224 18 9 17.776 9 17.5v-2C9 15.224 9.224 15 9.5 15s0.5 0.224 0.5 0.5v2c0 0.276-0.224 0.5-0.5 0.5z" />
</svg>