<svg id="clouds_moon_Layer_1" viewBox="0 0 24 24" fill="currentColor" width="32" height="32" data-name="Layer 1" xmlns="http://www.w3.org/2000/svg" xmlns:xlink="http://www.w3.org/1999/xlink">
    <title>clouds-moon</title>
    <path d="M23.628 13.054c-0.631 0.727-1.651 1.469-2.382 1.882C21.168 14.98 21.084 15 21 15c-0.174 0-0.344-0.091-0.436-0.254-0.136-0.24-0.051-0.546 0.189-0.682 0.776-0.438 1.647-1.124 2.119-1.666 0.126-0.146 0.161-0.343 0.093-0.526-0.032-0.088-0.138-0.297-0.412-0.338-2.528-0.374-4.694-1.761-5.793-3.707-0.609-1.08-0.726-2.229-0.761-3.311-0.031-0.948 0.103-1.905 0.397-2.846 0.08-0.256-0.061-0.438-0.124-0.505-0.137-0.143-0.332-0.198-0.518-0.146-1.002 0.274-2.098 0.808-2.791 1.357-0.857 0.681-1.553 1.577-2.009 2.593-0.113 0.252-0.41 0.366-0.661 0.251-0.252-0.113-0.364-0.409-0.251-0.661 0.521-1.16 1.316-2.186 2.3-2.966 0.959-0.762 2.255-1.294 3.148-1.539 0.539-0.147 1.111 0.014 1.501 0.417 0.391 0.405 0.525 0.966 0.359 1.498-0.258 0.821-0.38 1.69-0.353 2.514 0.03 0.954 0.129 1.96 0.632 2.852 0.948 1.681 2.843 2.881 5.068 3.211 0.557 0.082 1.007 0.448 1.203 0.979 0.194 0.523 0.089 1.109-0.272 1.529zM3.099 13.427c-0.143-0.66-0.131-1.338 0.033-2.014C3.559 9.661 5.041 8.309 6.82 8.05c1.211-0.179 2.414 0.125 3.379 0.851 0.219 0.167 0.533 0.124 0.7-0.099 0.166-0.221 0.122-0.534-0.099-0.7C9.619 7.213 8.15 6.843 6.675 7.06 4.496 7.378 2.682 9.033 2.16 11.177 1.959 12 1.945 12.828 2.119 13.638c0.058 0.263-0.065 0.509-0.305 0.611-1.377 0.591-2.097 2.087-1.71 3.557 0.167 0.634 0.556 1.205 1.096 1.607 0.09 0.067 0.194 0.1 0.299 0.1 0.152 0 0.303-0.069 0.4-0.201 0.165-0.221 0.12-0.534-0.102-0.699-0.359-0.269-0.617-0.646-0.727-1.061-0.294-1.119 0.35-2.046 1.138-2.384 0.681-0.293 1.046-1.009 0.891-1.741zM19.878 20.561c-0.376 1.641-1.683 2.943-3.328 3.319-0.324 0.073-0.648 0.113-0.964 0.119H5.915c-0.241-7e-3-0.482-0.042-0.72-0.104-1.005-0.265-1.825-1.084-2.09-2.088-0.387-1.471 0.333-2.967 1.71-3.558 0.239-0.103 0.362-0.349 0.305-0.611-0.174-0.81-0.16-1.638 0.041-2.461 0.521-2.145 2.336-3.799 4.515-4.117 2.514-0.362 4.939 1.006 5.905 3.335 0.235 0.565 0.764 0.687 1.094 0.761 2.347 0.633 3.754 3.007 3.203 5.405zM16.415 16.121c-0.393-0.088-1.322-0.298-1.758-1.342-0.705-1.7-2.364-2.776-4.176-2.776-0.219 0-0.439 0.016-0.661 0.048-1.779 0.26-3.262 1.611-3.688 3.363-0.164 0.676-0.176 1.354-0.033 2.014 0.157 0.732-0.208 1.448-0.889 1.741-0.788 0.338-1.432 1.265-1.138 2.384 0.175 0.661 0.715 1.201 1.377 1.376 0.163 0.042 0.329 0.066 0.494 0.071 1.346 0.036 7.966 0.031 9.624 0 0.248-4e-3 0.504-0.036 0.761-0.094 1.253-0.287 2.289-1.319 2.575-2.568 0.43-1.872-0.663-3.724-2.488-4.217z" />
</svg>