<svg id="cloud_back_up_Layer_1" viewBox="0 0 24 24" fill="currentColor" width="32" height="32" data-name="Layer 1" xmlns="http://www.w3.org/2000/svg" xmlns:xlink="http://www.w3.org/1999/xlink">
    <title>cloud-back-up</title>
    <path d="M23.995 12.789c-0.085 2.283-1.254 4.382-3.207 5.758-0.226 0.158-0.537 0.104-0.697-0.121-0.158-0.226-0.104-0.538 0.121-0.697 1.696-1.194 2.711-3.008 2.783-4.977 0.116-3.131-2.015-5.899-5.065-6.584-0.736-0.165-1.347-0.637-1.677-1.294-1.413-2.821-4.466-4.326-7.598-3.744-2.737 0.508-4.951 2.691-5.509 5.433-0.167 0.82-0.191 1.646-0.073 2.452 0.13 0.894-0.119 1.715-0.686 2.255C1.493 12.124 1 13.271 0.999 14.5c0 2.607 1.893 4.5 4.5 4.5h1c0.276 0 0.5 0.224 0.5 0.5S6.775 20 6.499 20h-1c-3.136 0-5.5-2.364-5.5-5.5 0-1.504 0.604-2.908 1.697-3.953 0.329-0.313 0.469-0.819 0.386-1.387-0.134-0.921-0.106-1.862 0.083-2.796 0.64-3.137 3.174-5.636 6.309-6.218 3.572-0.665 7.06 1.057 8.674 4.279 0.194 0.388 0.56 0.668 1.001 0.767 3.521 0.79 5.98 3.984 5.846 7.597zM18.652 20.141 16 22.712V11.5c0-0.276-0.224-0.5-0.5-0.5S15 11.224 15 11.5v11.211l-2.652-2.571c-0.197-0.191-0.514-0.187-0.707 0.012-0.191 0.198-0.187 0.515 0.012 0.707l2.787 2.701c0.279 0.279 0.643 0.415 1.008 0.429 0.018 2e-3 0.034 0.011 0.053 0.011 0 0 0 0 0 0s0 0 0 0c0.383 0 0.764-0.145 1.053-0.434l2.793-2.707c0.198-0.192 0.203-0.509 0.012-0.707-0.192-0.198-0.509-0.203-0.707-0.011zM12.652 14.86c0.097 0.094 0.223 0.141 0.348 0.141 0.131 0 0.261-0.051 0.359-0.152 0.191-0.198 0.187-0.515-0.012-0.707l-2.787-2.701c-0.281-0.281-0.648-0.419-1.016-0.431-0.015-1e-3-0.029-9e-3-0.044-9e-3-0.021 0-0.04 0.01-0.06 0.012-0.362 0.014-0.721 0.148-0.994 0.422l-2.793 2.707c-0.198 0.192-0.203 0.509-0.012 0.707 0.193 0.199 0.51 0.204 0.707 0.012L9 12.29v11.212c0 0.276 0.224 0.5 0.5 0.5s0.5-0.224 0.5-0.5V12.29z" />
</svg>