<svg id="cloud_showers_heavy_Layer_1" viewBox="0 0 24 24" fill="currentColor" width="32" height="32" data-name="Layer 1" xmlns="http://www.w3.org/2000/svg" xmlns:xlink="http://www.w3.org/1999/xlink">
    <title>cloud-showers-heavy</title>
    <path d="M13.5 24c-0.059 0-0.118-0.01-0.176-0.032-0.259-0.097-0.389-0.385-0.292-0.644l3-8c0.097-0.259 0.388-0.393 0.644-0.292 0.259 0.097 0.39 0.385 0.292 0.644l-3 8C13.893 23.876 13.702 24 13.5 24zM9.5 24c-0.059 0-0.118-0.01-0.176-0.032-0.258-0.097-0.389-0.385-0.292-0.644l3-8c0.097-0.259 0.385-0.393 0.644-0.292 0.258 0.097 0.39 0.385 0.292 0.644l-3 8C9.893 23.876 9.702 24 9.5 24zM5.5 24c-0.059 0-0.118-0.01-0.176-0.032-0.258-0.097-0.389-0.385-0.292-0.644l3-8c0.097-0.259 0.385-0.393 0.644-0.292 0.258 0.097 0.389 0.385 0.292 0.644l-3 8C5.893 23.876 5.702 24 5.5 24zM18.5 19.747c-0.21 0-0.405-0.133-0.475-0.343-0.087-0.262 0.055-0.545 0.317-0.632 2.641-0.877 4.554-3.354 4.652-6.025 0.116-3.131-2.014-5.899-5.065-6.583-0.735-0.165-1.347-0.638-1.677-1.296-1.412-2.819-4.465-4.324-7.598-3.743-2.737 0.508-4.951 2.691-5.507 5.434C2.98 7.378 2.956 8.204 3.073 9.011c0.13 0.893-0.119 1.714-0.685 2.255-1.128 1.078-1.609 2.646-1.289 4.196 0.3 1.452 1.296 2.707 2.6 3.276 0.253 0.11 0.369 0.405 0.258 0.658-0.11 0.253-0.402 0.369-0.659 0.258-1.596-0.696-2.814-2.225-3.179-3.989-0.391-1.89 0.199-3.805 1.577-5.122 0.329-0.314 0.469-0.82 0.387-1.388-0.135-0.923-0.107-1.863 0.083-2.796 0.638-3.137 3.172-5.635 6.307-6.216 3.574-0.669 7.061 1.055 8.675 4.278 0.194 0.389 0.56 0.668 1.001 0.767 3.521 0.79 5.98 3.984 5.847 7.597-0.116 3.128-2.261 5.916-5.338 6.938-0.052 0.018-0.105 0.025-0.158 0.024z" />
</svg>