<svg id="cloud_code_Layer_1" viewBox="0 0 24 24" fill="currentColor" width="32" height="32" data-name="Layer 1" xmlns="http://www.w3.org/2000/svg" xmlns:xlink="http://www.w3.org/1999/xlink">
    <title>cloud-code</title>
    <path d="M9.849 17.142c0.198 0.192 0.202 0.509 0.01 0.707C9.761 17.95 9.631 18 9.501 18c-0.125 0-0.251-0.047-0.349-0.142l-2.561-2.489C6.208 14.987 6 14.485 6 13.95s0.208-1.036 0.586-1.414l2.573-2.401c0.203-0.188 0.518-0.178 0.707 0.024 0.188 0.201 0.177 0.518-0.024 0.706l-2.561 2.39C7.104 13.433 7 13.684 7 13.95s0.104 0.519 0.292 0.707zM24 14.5c0 4.136-3.364 7.5-7.5 7.5h-11C2.467 22 0 19.532 0 16.5c0-1.803 0.87-3.451 2.345-4.483C2.116 11.274 2 10.513 2 9.75 2 5.477 5.477 2 9.75 2c3.249 0 6.12 2.004 7.252 5.022C20.892 7.284 24 10.567 24 14.5zM23 14.5c0-3.509-2.857-6.422-6.368-6.493-0.213-5e-3-0.399-0.143-0.465-0.346C15.26 4.873 12.682 3 9.75 3 6.028 3 3 6.028 3 9.75c0 0.776 0.139 1.552 0.412 2.304 0.082 0.225-7e-3 0.477-0.212 0.6C1.823 13.48 1 14.919 1 16.501c0 2.481 2.019 4.5 4.5 4.5h11c3.584 0 6.5-2.916 6.5-6.501zM14.841 10.135c-0.203-0.188-0.518-0.177-0.707 0.024-0.188 0.201-0.177 0.518 0.024 0.706l2.548 2.378c0.39 0.391 0.39 1.024 5e-3 1.41l-2.561 2.488c-0.198 0.192-0.203 0.509-0.01 0.707 0.098 0.101 0.228 0.151 0.358 0.151 0.125 0 0.251-0.047 0.349-0.142l2.565-2.493c0.78-0.78 0.78-2.049-0.012-2.841z" />
</svg>