<svg id="cloud_rain_Layer_1" viewBox="0 0 24 24" fill="currentColor" width="32" height="32" data-name="Layer 1" xmlns="http://www.w3.org/2000/svg" xmlns:xlink="http://www.w3.org/1999/xlink">
    <title>cloud-rain</title>
    <path d="M15.5 24c-0.668 0-1.295-0.26-1.768-0.732S13 22.168 13 21.5c0-1.235 1.566-2.985 1.745-3.18 0.425-0.417 1.085-0.416 1.489-0.021C16.431 18.51 18 20.237 18 21.5c0 0.668-0.26 1.296-0.732 1.768C16.795 23.74 16.168 24 15.5 24zM15.519 18.997C14.911 19.622 14 20.859 14 21.5c0 0.401 0.156 0.777 0.439 1.06 0.566 0.567 1.555 0.567 2.121 0 0.283-0.283 0.439-0.66 0.439-1.061 0-0.658-0.908-1.885-1.48-2.502zM7.5 24c-0.668 0-1.296-0.26-1.768-0.732S5 22.168 5 21.5c0-1.235 1.566-2.985 1.745-3.18 0.425-0.416 1.084-0.417 1.49-0.02C8.431 18.51 10 20.238 10 21.5c0 0.668-0.26 1.296-0.732 1.768v0C8.795 23.74 8.168 24 7.5 24zM7.519 18.997C6.91 19.622 6 20.859 6 21.5c0 0.401 0.156 0.777 0.439 1.061 0.566 0.566 1.554 0.566 2.122 0v0C8.845 22.278 9 21.901 9 21.5c0-0.658-0.908-1.885-1.481-2.503zM3.499 19.59c-0.066 0-0.134-0.013-0.199-0.042-1.635-0.712-2.824-2.165-3.18-3.884-0.391-1.89 0.198-3.805 1.577-5.122 0.329-0.314 0.469-0.819 0.387-1.387-0.135-0.923-0.107-1.863 0.083-2.796 0.637-3.137 3.171-5.635 6.306-6.217 3.576-0.665 7.061 1.057 8.675 4.279 0.194 0.389 0.56 0.668 1.001 0.767 3.521 0.79 5.98 3.984 5.847 7.597-0.101 2.691-1.737 5.14-4.273 6.392-0.247 0.124-0.547 0.021-0.67-0.227-0.122-0.248-0.021-0.547 0.227-0.669 2.207-1.089 3.631-3.209 3.717-5.533 0.116-3.131-2.015-5.899-5.065-6.584-0.735-0.165-1.347-0.636-1.677-1.294-1.413-2.819-4.464-4.323-7.598-3.744-2.74 0.507-4.953 2.69-5.51 5.433C2.98 7.378 2.956 8.203 3.073 9.011c0.13 0.892-0.119 1.714-0.685 2.254-1.127 1.078-1.609 2.646-1.288 4.196 0.286 1.381 1.282 2.596 2.6 3.17 0.253 0.11 0.369 0.405 0.259 0.658-0.082 0.188-0.266 0.3-0.46 0.301zM11.499 17c-0.668 0-1.296-0.26-1.768-0.732s-0.732-1.1-0.732-1.768c0-1.235 1.566-2.985 1.745-3.18 0.425-0.417 1.084-0.417 1.49-0.02 0.196 0.21 1.765 1.938 1.765 3.2 0 0.668-0.26 1.296-0.732 1.768S12.167 17 11.499 17zM11.518 11.997c-0.609 0.625-1.519 1.862-1.519 2.503 0 0.401 0.156 0.777 0.439 1.06 0.565 0.568 1.553 0.567 2.121 0 0.284-0.283 0.439-0.66 0.439-1.061 0-0.658-0.908-1.885-1.48-2.502z" />
</svg>