<svg id="cloud_snow_Layer_1" viewBox="0 0 24 24" fill="currentColor" width="32" height="32" data-name="Layer 1" xmlns="http://www.w3.org/2000/svg" xmlns:xlink="http://www.w3.org/1999/xlink">
    <title>cloud-snow</title>
    <path d="M10.992 22.603c-0.173 0-0.342-0.09-0.434-0.251l-1.059-1.846-1.059 1.846c-0.138 0.24-0.442 0.32-0.683 0.185-0.239-0.137-0.322-0.443-0.185-0.682l1.062-1.854H6.497c-0.276 0-0.5-0.224-0.5-0.5s0.224-0.5 0.5-0.5h2.137l-1.062-1.854c-0.138-0.239-0.055-0.545 0.185-0.682S8.302 16.41 8.44 16.65l1.059 1.846 1.059-1.846c0.137-0.24 0.442-0.322 0.683-0.185 0.239 0.137 0.322 0.443 0.185 0.682l-1.062 1.854h2.137c0.276 0 0.5 0.224 0.5 0.5s-0.224 0.5-0.5 0.5h-2.137l1.062 1.854c0.138 0.239 0.055 0.545-0.185 0.682-0.079 0.045-0.164 0.066-0.249 0.066zM15.5 19.996c-0.276 0-0.5-0.224-0.5-0.5s0.224-0.5 0.5-0.5h0.736c3.6 0 6.632-2.803 6.759-6.249 0.116-3.131-2.015-5.899-5.065-6.584-0.735-0.165-1.347-0.636-1.677-1.294-1.413-2.82-4.466-4.324-7.598-3.744-2.737 0.508-4.951 2.691-5.509 5.434-0.167 0.82-0.191 1.646-0.073 2.452 0.13 0.893-0.119 1.715-0.685 2.255-1.128 1.078-1.609 2.646-1.289 4.196 0.286 1.381 1.282 2.596 2.601 3.17 0.253 0.11 0.368 0.405 0.258 0.658-0.11 0.254-0.405 0.368-0.658 0.259-1.635-0.712-2.823-2.165-3.179-3.884-0.392-1.89 0.198-3.804 1.576-5.122 0.328-0.313 0.469-0.819 0.386-1.387C1.949 8.235 1.977 7.294 2.166 6.36 2.805 3.222 5.339 0.723 8.474 0.142c3.573-0.665 7.06 1.058 8.674 4.279 0.194 0.389 0.56 0.668 1.001 0.767 3.521 0.79 5.98 3.984 5.847 7.597-0.147 3.976-3.628 7.211-7.759 7.211zM15.992 14.603c-0.173 0-0.342-0.09-0.434-0.251l-1.059-1.846-1.059 1.846c-0.137 0.24-0.443 0.321-0.683 0.185-0.239-0.137-0.322-0.443-0.185-0.682l1.062-1.854h-2.137c-0.276 0-0.5-0.224-0.5-0.5s0.224-0.5 0.5-0.5h2.137l-1.062-1.854c-0.138-0.239-0.055-0.545 0.185-0.682 0.239-0.137 0.546-0.056 0.683 0.185l1.059 1.846 1.059-1.846c0.137-0.241 0.441-0.322 0.683-0.185 0.239 0.137 0.322 0.443 0.185 0.682l-1.062 1.854h2.137c0.276 0 0.5 0.224 0.5 0.5s-0.224 0.5-0.5 0.5h-2.137l1.062 1.854c0.138 0.239 0.055 0.545-0.185 0.682-0.079 0.045-0.164 0.066-0.249 0.066z" />
</svg>