<svg id="cloud_question_Layer_1" viewBox="0 0 24 24" fill="currentColor" width="32" height="32" data-name="Layer 1" xmlns="http://www.w3.org/2000/svg" xmlns:xlink="http://www.w3.org/1999/xlink">
    <title>cloud-question</title>
    <path d="M12.5 22c0 0.552-0.448 1-1 1s-1-0.448-1-1 0.448-1 1-1 1 0.448 1 1zM15.364 10.943c-0.35-1.354-1.451-2.456-2.806-2.807-1.242-0.321-2.518-0.066-3.505 0.698S7.5 10.752 7.5 11.999c0 0.276 0.224 0.5 0.5 0.5s0.5-0.224 0.5-0.5c0-0.936 0.425-1.801 1.166-2.374 0.741-0.574 1.706-0.763 2.643-0.521 1.008 0.261 1.828 1.08 2.087 2.088 0.376 1.458-0.297 2.91-1.637 3.53C11.913 15.114 11 16.324 11 17.598v0.9c0 0.276 0.224 0.5 0.5 0.5s0.5-0.224 0.5-0.5v-0.9c0-0.839 0.621-1.71 1.179-1.968 1.786-0.827 2.684-2.755 2.185-4.687zM18.147 7.191c-0.44-0.098-0.805-0.377-1-0.766-1.615-3.224-5.102-4.944-8.675-4.279-3.135 0.582-5.669 3.081-6.306 6.218-0.19 0.933-0.218 1.873-0.083 2.796 0.083 0.567-0.058 1.073-0.387 1.387C0.604 13.592 1e-3 14.996 0 16.5 0 19.532 2.467 22 5.5 22h2C7.776 22 8 21.776 8 21.5S7.776 21 7.5 21h-2C3.019 21 1 18.981 1 16.501c1e-3-1.229 0.495-2.376 1.388-3.231 0.566-0.54 0.815-1.361 0.685-2.254-0.118-0.808-0.093-1.633 0.074-2.452 0.556-2.742 2.77-4.926 5.508-5.435 3.132-0.582 6.185 0.923 7.598 3.744 0.33 0.659 0.941 1.131 1.676 1.295 3.051 0.685 5.182 3.453 5.066 6.584C22.867 18.197 19.835 21 16.236 21H15.5c-0.276 0-0.5 0.224-0.5 0.5s0.224 0.5 0.5 0.5h0.736c4.13 0 7.611-3.234 7.758-7.211 0.134-3.612-2.325-6.808-5.847-7.598z" />
</svg>