<svg id="clover_alt_Layer_1" viewBox="0 0 24 24" fill="currentColor" width="32" height="32" data-name="Layer 1" xmlns="http://www.w3.org/2000/svg" xmlns:xlink="http://www.w3.org/1999/xlink">
    <title>clover-alt</title>
    <path d="M15.121 24c-1.092 0-2.115-0.53-2.808-1.453-0.149-0.198-0.478-0.198-0.627 0v0C10.994 23.47 9.97 24 8.878 24c-2.139 0-3.879-1.682-3.879-3.75 0-0.562 0.23-1.194 0.571-1.821C4.943 18.769 4.311 19 3.749 19c-2.068 0-3.75-1.74-3.75-3.879 0-1.092 0.53-2.115 1.453-2.808 0.099-0.075 0.156-0.189 0.156-0.313s-0.057-0.239-0.157-0.313C0.528 10.995-2e-3 9.971-2e-3 8.879-2e-3 6.74 1.68 5 3.748 5 4.31 5 4.942 5.23 5.569 5.571 5.229 4.944 4.998 4.312 4.998 3.75 4.998 1.682 6.738 0 8.877 0c1.092 0 2.115 0.53 2.808 1.453 0.149 0.198 0.478 0.199 0.627 0C13.004 0.53 14.028 0 15.12 0c2.139 0 3.879 1.682 3.879 3.75 0 0.562-0.23 1.194-0.571 1.821C19.055 5.231 19.687 5 20.249 5c2.068 0 3.75 1.74 3.75 3.879 0 1.092-0.53 2.115-1.453 2.808-0.099 0.075-0.156 0.189-0.156 0.313s0.057 0.239 0.157 0.313C23.47 13.005 24 14.029 24 15.121 24 17.26 22.318 19 20.25 19c-0.562 0-1.194-0.23-1.821-0.571C18.769 19.056 19 19.688 19 20.25 19 22.318 17.26 24 15.121 24zM12 21.391c0.442 0 0.848 0.203 1.113 0.556C13.615 22.616 14.346 23 15.121 23 16.511 23 18 21.895 18 20.25c0-0.923-1.147-2.689-2.854-4.396C15.048 15.756 15 15.628 15 15.5s0.049-0.256 0.146-0.354c0.195-0.195 0.512-0.195 0.707 0C17.56 16.853 19.327 18 20.249 18c1.645 0 2.75-1.489 2.75-2.879 0-0.774-0.384-1.506-1.053-2.008-0.354-0.266-0.557-0.671-0.557-1.113s0.203-0.848 0.556-1.113c0.669-0.502 1.053-1.233 1.053-2.008 0-1.39-1.105-2.879-2.75-2.879-0.923 0-2.689 1.147-4.396 2.854-0.195 0.195-0.512 0.195-0.707 0-0.098-0.098-0.146-0.226-0.146-0.354s0.049-0.256 0.146-0.354c1.707-1.707 2.854-3.474 2.854-4.396 0-1.645-1.489-2.75-2.879-2.75-0.774 0-1.506 0.384-2.008 1.053-0.531 0.708-1.695 0.708-2.227 0C10.383 1.384 9.652 1 8.877 1 7.487 1 5.998 2.105 5.998 3.75c0 0.923 1.147 2.689 2.854 4.396C8.95 8.244 8.998 8.372 8.998 8.5S8.949 8.756 8.852 8.854c-0.195 0.195-0.512 0.195-0.707 0C6.438 7.147 4.671 6 3.749 6c-1.645 0-2.75 1.489-2.75 2.879 0 0.774 0.384 1.506 1.053 2.008 0.354 0.266 0.557 0.671 0.557 1.113s-0.203 0.848-0.556 1.113C1.384 13.615 1 14.346 1 15.121 1 16.511 2.105 18 3.75 18c0.923 0 2.689-1.147 4.396-2.854 0.195-0.195 0.512-0.195 0.707 0 0.098 0.098 0.146 0.226 0.146 0.354s-0.049 0.256-0.146 0.354c-1.707 1.707-2.854 3.474-2.854 4.396 0 1.645 1.489 2.75 2.879 2.75 0.774 0 1.506-0.384 2.008-1.053v0c0.266-0.354 0.671-0.557 1.114-0.556z" />
</svg>