<svg id="club_Layer_1" viewBox="0 0 24 24" fill="currentColor" width="32" height="32" data-name="Layer 1" xmlns="http://www.w3.org/2000/svg" xmlns:xlink="http://www.w3.org/1999/xlink">
    <title>club</title>
    <path d="M18.5 20c3.238 0 5.5-2.468 5.5-6s-2.262-6-5.5-6c-0.471 0-0.927 0.073-1.365 0.2C17.633 7.36 18 6.372 18 5.298 18 2.377 15.308 0 12 0 10.412 0 8.915 0.543 7.784 1.53 6.634 2.534 6 3.872 6 5.298 6 6.351 6.381 7.35 6.904 8.212 6.453 8.077 5.984 8 5.5 8 2.262 8 0 10.468 0 14s2.262 6 5.5 6c2.631 0 4.809-2.314 5.988-3.892C11.402 18.309 10.775 23 7 23H5.5C5.224 23 5 23.224 5 23.5S5.224 24 5.5 24h13c0.276 0 0.5-0.224 0.5-0.5S18.776 23 18.5 23H17c-3.775 0-4.402-4.692-4.488-6.892C13.691 17.686 15.869 20 18.5 20zM7 5.298C7 2.928 9.243 1 12 1s5 1.928 5 4.298c0 1.601-1.102 3.118-2.025 4.014-1.375 1.016-2.423 2.383-2.975 3.194-0.423-0.621-1.136-1.568-2.065-2.434-0.032-0.046-0.508-0.448-0.669-0.576C8.343 8.653 7 7.048 7 5.298zM5.5 19C2.392 19 1 16.489 1 14s1.392-5 4.5-5c1.136 0 2.201 0.542 3.112 1.257 0.16 0.145 0.314 0.273 0.456 0.383 1.5 1.34 2.483 3.018 2.5 3.046 0.179 0.309 0.688 0.309 0.866 0 0.016-0.027 0.947-1.617 2.379-2.937 0.21-0.145 0.49-0.369 0.798-0.66C16.471 9.459 17.456 9 18.501 9c3.108 0 4.5 2.511 4.5 5s-1.392 5-4.5 5c-3.321 0-6.037-4.761-6.064-4.81-0.089-0.157-0.255-0.255-0.436-0.255s-0.347 0.098-0.436 0.255C11.538 14.239 8.822 19 5.5 19zM14.096 23H9.905c1.011-0.828 1.687-2.102 2.096-3.558 0.408 1.456 1.085 2.73 2.095 3.558z" />
</svg>