<svg id="coconut_Layer_1" viewBox="0 0 24 24" fill="currentColor" width="32" height="32" data-name="Layer 1" xmlns="http://www.w3.org/2000/svg" xmlns:xlink="http://www.w3.org/1999/xlink">
    <title>coconut</title>
    <path d="M20.36 2.784c0 0-1.444-1.423-1.504-1.448-1.554-1.261-3.77-1.648-6.308-1.088-2.7 0.596-5.464 2.2-7.781 4.518-2.319 2.318-3.923 5.081-4.519 7.781-0.556 2.516-0.181 4.714 1.054 6.267 0.024 0.065 1.482 1.546 1.482 1.546 2.423 2.423 5.605 3.634 8.788 3.634s6.365-1.211 8.788-3.634c4.845-4.846 4.845-12.73 0-17.576zM1.225 12.763c0.555-2.516 2.064-5.105 4.249-7.29s4.773-3.693 7.289-4.248c0.688-0.152 1.345-0.227 1.964-0.227 1.576 0 2.905 0.485 3.848 1.428 1.312 1.312 1.739 3.376 1.201 5.812-0.555 2.516-2.064 5.105-4.249 7.29s-4.773 3.693-7.289 4.249c-2.439 0.538-4.501 0.111-5.812-1.201-1.312-1.312-1.739-3.376-1.201-5.813zM19.654 19.653c-3.992 3.993-10.229 4.407-14.688 1.244 0.417 0.07 0.852 0.105 1.304 0.105 0.693 0 1.424-0.083 2.184-0.25 2.7-0.596 5.464-2.2 7.781-4.518 2.318-2.318 3.923-5.081 4.519-7.781 0.277-1.256 0.322-2.432 0.145-3.488 3.163 4.459 2.749 10.696-1.245 14.688zM6.296 17.998c0.47 0 0.978-0.058 1.511-0.175 2.117-0.467 4.416-1.819 6.307-3.71 1.891-1.89 3.242-4.189 3.71-6.307 0.38-1.72 0.139-3.166-0.663-3.966-0.796-0.797-2.247-1.041-3.965-0.663-2.117 0.467-4.416 1.819-6.307 3.71-1.891 1.89-3.242 4.189-3.71 6.307-0.38 1.72-0.139 3.166 0.662 3.965 0.551 0.553 1.41 0.839 2.455 0.839zM4.155 13.41c0.428-1.937 1.682-4.056 3.44-5.815 1.76-1.759 3.879-3.013 5.814-3.44 0.464-0.102 0.903-0.154 1.306-0.154 0.779 0 1.38 0.189 1.738 0.547 0.547 0.546 0.693 1.684 0.393 3.043-0.428 1.937-1.682 4.056-3.44 5.815-1.76 1.759-3.879 3.013-5.814 3.44-1.363 0.299-2.5 0.151-3.044-0.394-0.547-0.546-0.693-1.684-0.393-3.042z" />
</svg>