<svg id="code_compare_Layer_1" viewBox="0 0 24 24" fill="currentColor" width="32" height="32" data-name="Layer 1" xmlns="http://www.w3.org/2000/svg" xmlns:xlink="http://www.w3.org/1999/xlink">
    <title>code-compare</title>
    <path d="M24 4.5C24 2.57 22.43 1 20.5 1S17 2.57 17 4.5c0 1.76 1.306 3.221 3 3.464V15.5c0 1.93-1.57 3.5-3.5 3.5h-4.897c0.073-0.188 0.185-0.364 0.336-0.516l2.541-2.541c0.195-0.195 0.195-0.512 0-0.707s-0.512-0.195-0.707 0l-2.541 2.541C10.772 18.237 10.5 19 10.5 19.5s0.242 1.323 0.732 1.813l2.541 2.541C13.871 23.952 13.999 24 14.127 24s0.256-0.049 0.354-0.146c0.195-0.195 0.195-0.512 0-0.707l-2.541-2.541c-0.176-0.176-0.298-0.384-0.368-0.606h4.929c2.481 0 4.5-2.019 4.5-4.5V7.964c1.694-0.243 3-1.704 2.999-3.464zM20.5 7C19.122 7 18 5.878 18 4.5S19.122 2 20.5 2 23 3.122 23 4.5 21.878 7 20.5 7zM13.583 4.5c0-0.668-0.26-1.296-0.732-1.768l-2.541-2.54c-0.196-0.195-0.512-0.195-0.707 0s-0.195 0.512 0 0.707l2.541 2.541c0.161 0.161 0.281 0.352 0.354 0.561H7.5c-2.481 0-4.5 2.019-4.5 4.5v7.536c-1.694 0.243-3 1.704-3 3.464 0 1.93 1.57 3.5 3.5 3.5s3.5-1.57 3.5-3.5c0-1.76-1.306-3.221-3-3.464V8.501c0-1.93 1.57-3.5 3.5-3.5h4.997c-0.074 0.208-0.193 0.4-0.354 0.561L9.602 8.103c-0.195 0.195-0.195 0.512 0 0.707C9.7 8.908 9.828 8.956 9.956 8.956s0.256-0.049 0.354-0.146l2.541-2.541c0.472-0.472 0.732-1.1 0.732-1.769zM6 19.5C6 20.878 4.878 22 3.5 22S1 20.878 1 19.5 2.122 17 3.5 17 6 18.122 6 19.5z" />
</svg>