<svg id="code_merge_Layer_1" viewBox="0 0 24 24" fill="currentColor" width="32" height="32" data-name="Layer 1" xmlns="http://www.w3.org/2000/svg" xmlns:xlink="http://www.w3.org/1999/xlink">
    <title>code-merge</title>
    <path d="M20.5 8c-1.76 0-3.221 1.306-3.464 3H7.5C5.57 11 4 9.43 4 7.5V6.964C5.694 6.721 7 5.26 7 3.5 7 1.57 5.43 0 3.5 0S0 1.57 0 3.5c0 1.76 1.306 3.221 3 3.464v10.072C1.306 17.279 0 18.74 0 20.5 0 22.43 1.57 24 3.5 24S7 22.43 7 20.5c0-1.76-1.306-3.221-3-3.464v-6.71C4.825 11.347 6.088 12 7.5 12h9.536c0.243 1.694 1.704 3 3.464 3 1.93 0 3.5-1.57 3.5-3.5S22.43 8 20.5 8zM1 3.5C1 2.122 2.121 1 3.5 1S6 2.122 6 3.5 4.879 6 3.5 6 1 4.878 1 3.5zM6 20.5C6 21.878 4.879 23 3.5 23S1 21.878 1 20.5 2.121 18 3.5 18 6 19.122 6 20.5zM20.5 14c-1.379 0-2.5-1.122-2.5-2.5S19.121 9 20.5 9 23 10.122 23 11.5 21.879 14 20.5 14z" />
</svg>