<svg id="code_branch_Layer_1" viewBox="0 0 24 24" fill="currentColor" width="32" height="32" data-name="Layer 1" xmlns="http://www.w3.org/2000/svg" xmlns:xlink="http://www.w3.org/1999/xlink">
    <title>code-branch</title>
    <path d="M24 3.5C24 1.57 22.43 0 20.5 0S17 1.57 17 3.5c0 1.76 1.306 3.221 3 3.464V7.5c0 1.93-1.57 3.5-3.5 3.5h-9c-1.412 0-2.674 0.654-3.5 1.674v-5.71C5.694 6.721 7 5.26 7 3.5 7 1.57 5.43 0 3.5 0S0 1.57 0 3.5c0 1.76 1.306 3.221 3 3.464v10.072C1.306 17.279 0 18.74 0 20.5 0 22.43 1.57 24 3.5 24S7 22.43 7 20.5c0-1.76-1.306-3.221-3-3.464V15.5C4 13.57 5.57 12 7.5 12h9c2.481 0 4.5-2.019 4.5-4.5V6.964c1.694-0.243 3-1.704 3-3.464zM1 3.5C1 2.122 2.122 1 3.5 1S6 2.122 6 3.5 4.878 6 3.5 6 1 4.878 1 3.5zM6 20.5C6 21.878 4.878 23 3.5 23S1 21.878 1 20.5 2.122 18 3.5 18 6 19.122 6 20.5zM20.5 6C19.122 6 18 4.878 18 3.5S19.122 1 20.5 1 23 2.122 23 3.5 21.878 6 20.5 6z" />
</svg>