<svg id="code_window_Layer_1" viewBox="0 0 24 24" fill="currentColor" width="32" height="32" data-name="Layer 1" xmlns="http://www.w3.org/2000/svg" xmlns:xlink="http://www.w3.org/1999/xlink">
    <title>code-window</title>
    <path d="M7.339 14.699c-0.215 0.216-0.34 0.52-0.339 0.842 0 0.321 0.128 0.624 0.357 0.851l2.478 2.237c0.205 0.186 0.221 0.501 0.036 0.706-0.185 0.206-0.502 0.22-0.706 0.036l-2.494-2.253C6.234 16.687 6.002 16.134 6 15.544s0.227-1.146 0.645-1.563l2.515-2.346c0.201-0.188 0.519-0.177 0.706 0.024 0.188 0.202 0.178 0.519-0.024 0.706zM24 5.5v13c0 2.481-2.019 4.5-4.5 4.5h-15C2.019 23 0 20.981 0 18.5v-13C0 3.019 2.019 1 4.5 1h15C21.981 1 24 3.019 24 5.5zM1 5.5V8h22V5.5C23 3.57 21.43 2 19.5 2h-15C2.57 2 1 3.57 1 5.5zM23 18.5V9H1v9.5C1 20.43 2.57 22 4.5 22h15c1.93 0 3.5-1.57 3.5-3.5zM4 6c0.552 0 1-0.448 1-1S4.552 4 4 4 3 4.448 3 5 3.448 6 4 6zM7 6c0.552 0 1-0.448 1-1S7.552 4 7 4 6 4.448 6 5 6.448 6 7 6zM10 6c0.552 0 1-0.448 1-1s-0.448-1-1-1-1 0.448-1 1 0.448 1 1 1zM14.841 11.635c-0.2-0.188-0.519-0.177-0.706 0.024-0.188 0.202-0.178 0.519 0.024 0.706l2.489 2.322c0.228 0.228 0.353 0.531 0.352 0.854 0 0.321-0.128 0.624-0.341 0.835l-2.494 2.253c-0.205 0.186-0.221 0.501-0.036 0.706 0.185 0.206 0.501 0.22 0.706 0.036l2.511-2.269c0.42-0.415 0.652-0.969 0.654-1.559s-0.227-1.146-0.657-1.575z" />
</svg>