<svg id="code_pull_request_draft_Layer_1" viewBox="0 0 24 24" fill="currentColor" width="32" height="32" data-name="Layer 1" xmlns="http://www.w3.org/2000/svg" xmlns:xlink="http://www.w3.org/1999/xlink">
    <title>code-pull-request-draft</title>
    <path d="M7 3.5C7 1.57 5.43 0 3.5 0S0 1.57 0 3.5c0 1.76 1.306 3.221 3 3.464v10.072C1.306 17.279 0 18.74 0 20.5 0 22.43 1.57 24 3.5 24S7 22.43 7 20.5c0-1.76-1.306-3.221-3-3.464V6.964C5.694 6.721 7 5.26 7 3.5zM1 3.5C1 2.122 2.121 1 3.5 1S6 2.122 6 3.5 4.879 6 3.5 6 1 4.878 1 3.5zM6 20.5C6 21.878 4.879 23 3.5 23S1 21.878 1 20.5 2.121 18 3.5 18 6 19.122 6 20.5zM20.5 17c-1.93 0-3.5 1.57-3.5 3.5s1.57 3.5 3.5 3.5 3.5-1.57 3.5-3.5-1.57-3.5-3.5-3.5zM20.5 23c-1.379 0-2.5-1.122-2.5-2.5s1.121-2.5 2.5-2.5 2.5 1.122 2.5 2.5-1.121 2.5-2.5 2.5zM20.5 6.5c1.103 0 2-0.897 2-2s-0.897-2-2-2-2 0.897-2 2 0.897 2 2 2zM20.5 3.5c0.551 0 1 0.448 1 1s-0.449 1-1 1-1-0.448-1-1 0.449-1 1-1zM20.5 13.5c1.103 0 2-0.897 2-2s-0.897-2-2-2-2 0.897-2 2 0.897 2 2 2zM20.5 10.5c0.551 0 1 0.448 1 1s-0.449 1-1 1-1-0.448-1-1 0.449-1 1-1z" />
</svg>