<svg id="code_fork_Layer_1" viewBox="0 0 24 24" fill="currentColor" width="32" height="32" data-name="Layer 1" xmlns="http://www.w3.org/2000/svg" xmlns:xlink="http://www.w3.org/1999/xlink">
    <title>code-fork</title>
    <path d="M24 3.5C24 1.57 22.43 0 20.5 0S17 1.57 17 3.5c0 1.76 1.306 3.221 3 3.464V7.5c0 1.93-1.57 3.5-3.5 3.5H15c-1.271 0-2.387 0.682-3 1.699C11.387 11.682 10.271 11 9 11H7.5C5.57 11 4 9.43 4 7.5V6.964C5.694 6.721 7 5.26 7 3.5 7 1.57 5.43 0 3.5 0S0 1.57 0 3.5c0 1.76 1.306 3.221 3 3.464V7.5C3 9.981 5.019 12 7.5 12H9c1.378 0 2.5 1.122 2.5 2.5v2.536c-1.694 0.243-3 1.704-3 3.464 0 1.93 1.57 3.5 3.5 3.5s3.5-1.57 3.5-3.5c0-1.76-1.306-3.221-3-3.464V14.5c0-1.378 1.122-2.5 2.5-2.5h1.5c2.481 0 4.5-2.019 4.5-4.5V6.964c1.694-0.243 3-1.704 3-3.464zM1 3.5C1 2.122 2.122 1 3.5 1S6 2.122 6 3.5 4.878 6 3.5 6 1 4.878 1 3.5zM14.5 20.5c0 1.378-1.122 2.5-2.5 2.5s-2.5-1.122-2.5-2.5S10.622 18 12 18s2.5 1.122 2.5 2.5zM20.5 6C19.122 6 18 4.878 18 3.5S19.122 1 20.5 1 23 2.122 23 3.5 21.878 6 20.5 6z" />
</svg>