<svg id="code_pull_request_Layer_1" viewBox="0 0 24 24" fill="currentColor" width="32" height="32" data-name="Layer 1" xmlns="http://www.w3.org/2000/svg" xmlns:xlink="http://www.w3.org/1999/xlink">
    <title>code-pull-request</title>
    <path d="M7 4.5C7 2.57 5.43 1 3.5 1S0 2.57 0 4.5c0 1.76 1.306 3.221 3 3.464v9.072C1.306 17.279 0 18.74 0 20.5 0 22.43 1.57 24 3.5 24S7 22.43 7 20.5c0-1.76-1.306-3.221-3-3.464V7.964C5.694 7.721 7 6.26 7 4.5zM1 4.5C1 3.122 2.122 2 3.5 2S6 3.122 6 4.5 4.878 7 3.5 7 1 5.878 1 4.5zM6 20.5C6 21.878 4.878 23 3.5 23S1 21.878 1 20.5 2.122 18 3.5 18 6 19.122 6 20.5zM21 17.036V8.5C21 6.019 18.981 4 16.5 4h-4.427c0.071-0.224 0.196-0.436 0.375-0.615l2.414-2.541c0.19-0.2 0.183-0.517-0.018-0.707-0.199-0.19-0.518-0.182-0.707 0.018l-2.405 2.531c-0.975 0.975-0.975 2.561-0.015 3.52l2.414 2.631c0.099 0.107 0.233 0.162 0.368 0.162 0.121 0 0.242-0.043 0.338-0.131 0.204-0.187 0.217-0.503 0.03-0.707l-2.429-2.646c-0.151-0.151-0.263-0.328-0.336-0.516h4.397c1.93 0 3.5 1.57 3.5 3.5v8.536c-1.694 0.243-3 1.704-3 3.464 0 1.93 1.57 3.5 3.5 3.5s3.5-1.57 3.5-3.5c0-1.76-1.306-3.221-2.999-3.463zM20.5 23c-1.379 0-2.5-1.122-2.5-2.5s1.121-2.5 2.5-2.5 2.5 1.122 2.5 2.5-1.121 2.5-2.5 2.5z" />
</svg>