<svg id="code_commit_Layer_1" viewBox="0 0 24 24" fill="currentColor" width="32" height="32" data-name="Layer 1" xmlns="http://www.w3.org/2000/svg" xmlns:xlink="http://www.w3.org/1999/xlink">
    <title>code-commit</title>
    <path d="M23.5 11.5h-4.518C18.725 7.873 15.691 5 12 5s-6.725 2.873-6.982 6.5H0.5C0.224 11.5 0 11.724 0 12s0.224 0.5 0.5 0.5h4.518C5.275 16.127 8.308 19 12 19s6.725-2.873 6.982-6.5H23.5c0.276 0 0.5-0.224 0.5-0.5s-0.224-0.5-0.5-0.5zM12 18c-3.309 0-6-2.691-6-6s2.691-6 6-6 6 2.691 6 6-2.691 6-6 6z" />
</svg>