<svg id="coffee_heart_Layer_1" viewBox="0 0 24 24" fill="currentColor" width="32" height="32" data-name="Layer 1" xmlns="http://www.w3.org/2000/svg" xmlns:xlink="http://www.w3.org/1999/xlink">
    <title>coffee-heart</title>
    <path d="M8.8 6.803c0.353 0.28 0.776 0.42 1.2 0.42s0.847-0.14 1.2-0.42C12.283 5.944 14 3.995 14 2.425 14 1.088 12.991 0 11.75 0 11.061 0 10.42 0.317 10 0.796 9.58 0.317 8.939 0 8.25 0 7.009 0 6 1.088 6 2.425c0 1.57 1.717 3.519 2.8 4.378zM8.25 1C8.954 1 9.5 1.567 9.5 2.056c0 0.276 0.224 0.5 0.5 0.5s0.5-0.224 0.5-0.5C10.5 1.568 11.046 1 11.75 1 12.439 1 13 1.64 13 2.425c0 1.141-1.445 2.819-2.421 3.595-0.341 0.27-0.817 0.27-1.157 0C8.445 5.245 7 3.566 7 2.425 7 1.64 7.561 1 8.25 1zM19.9 13h-0.557c0.055-0.418 0.103-0.828 0.143-1.222 0.071-0.715-0.162-1.429-0.641-1.958-0.47-0.52-1.142-0.817-1.842-0.817L2.497 9c-0.7 0-1.372 0.298-1.843 0.818-0.479 0.529-0.713 1.243-0.641 1.957 0.331 3.322 1.255 7.733 2.315 9.363 1.165 1.792 3.179 2.861 5.388 2.861h4.068c2.209 0 4.223-1.069 5.388-2.861v0c0.192-0.295 0.379-0.684 0.559-1.139H19.9c2.222 0 4.1-1.799 4.1-3.929 0-1.923-1.533-3.071-4.1-3.07zM11.783 23H7.716c-1.869 0-3.57-0.899-4.55-2.406-0.827-1.271-1.794-5.271-2.158-8.918-0.043-0.434 0.098-0.866 0.388-1.187C1.681 10.174 2.072 10 2.497 10l14.506 3e-3c0.424 0 0.815 0.174 1.101 0.489 0.29 0.319 0.431 0.752 0.387 1.187-0.363 3.645-1.331 7.644-2.157 8.915C15.354 22.101 13.653 23 11.783 23zM19.9 19h-1.817c0.454-1.436 0.842-3.248 1.115-5H19.9c1.158 0 3.1 0.27 3.1 2.071C23 17.632 21.552 19 19.9 19z" />
</svg>