<svg id="coffee_bean_Layer_1" viewBox="0 0 24 24" fill="currentColor" width="32" height="32" data-name="Layer 1" xmlns="http://www.w3.org/2000/svg" xmlns:xlink="http://www.w3.org/1999/xlink">
    <title>coffee-bean</title>
    <path d="M21.292 2.708C17.105-1.478 9.533-0.713 4.411 4.411-0.713 9.535-1.477 17.107 2.708 21.292c1.816 1.816 4.271 2.7 6.886 2.7 3.411 0 7.096-1.503 9.995-4.403 5.124-5.124 5.888-12.696 1.703-16.881zM5.118 5.118c2.708-2.708 6.136-4.116 9.285-4.116 2.254 0 4.366 0.723 5.967 2.207-0.141 0.908-1.25 6.041-8.52 8.313-6.698 2.093-8.552 6.431-9.055 8.364-3.071-3.901-2.133-10.312 2.323-14.768zM18.882 18.882C14.235 23.528 7.466 24.35 3.63 20.791c0.14-0.907 1.25-6.041 8.52-8.313 6.698-2.093 8.552-6.431 9.055-8.364 3.072 3.902 2.134 10.312-2.323 14.768z" />
</svg>