<svg id="coffee_pot_Layer_1" viewBox="0 0 24 24" fill="currentColor" width="32" height="32" data-name="Layer 1" xmlns="http://www.w3.org/2000/svg" xmlns:xlink="http://www.w3.org/1999/xlink">
    <title>coffee-pot</title>
    <path d="M22.148 2.84C21.469 1.114 19.827 0 17.963 0H2.5C2.334 0 2.179 0.083 2.086 0.22s-0.112 0.312-0.05 0.466l1.91 4.775c-0.611 1.093-3.201 6.1-3.925 13.59-0.123 1.266 0.298 2.532 1.153 3.474C2.025 23.463 3.238 24 4.503 24H16.5c1.264 0 2.478-0.538 3.329-1.475 0.855-0.942 1.275-2.208 1.153-3.474-0.747-7.737-3.49-12.826-3.981-13.686V1h0.963c1.449 0 2.727 0.866 3.254 2.207 0.813 2.069 1.783 5.361 1.783 9.293 0 0.276 0.224 0.5 0.5 0.5s0.5-0.224 0.5-0.5c0-4.089-1.007-7.51-1.853-9.66zM19.088 21.852c-0.672 0.74-1.591 1.147-2.588 1.147H4.503c-0.997 0-1.917-0.408-2.588-1.147-0.666-0.733-0.993-1.72-0.898-2.706C1.239 16.85 1.647 14.784 2.12 13H15.5c0.276 0 0.5-0.224 0.5-0.5S15.776 12 15.5 12H2.398c0.937-3.187 2.019-5.311 2.394-6h11.416c0.611 1.12 3.092 6.036 3.778 13.147 0.095 0.986-0.232 1.972-0.898 2.705zM16 4.999H4.839L3.238 1H16z" />
</svg>