<svg id="coffee_maker_Layer_1" viewBox="0 0 24 24" fill="currentColor" width="32" height="32" data-name="Layer 1" xmlns="http://www.w3.org/2000/svg" xmlns:xlink="http://www.w3.org/1999/xlink">
    <title>coffee-maker</title>
    <path d="M23.5 9H19V7c1.654 0 3-1.346 3-3V3c0-1.654-1.346-3-3-3H4.5C2.019 0 0 2.019 0 4.5v15C0 21.981 2.019 24 4.5 24h16c0.827 0 1.5-0.673 1.5-1.5S21.327 21 20.5 21h-0.558c0.459-0.449 0.788-1.024 0.947-1.667 0.948-0.666 2.194-1.517 2.111-2.833 0-0.827-0.673-1.5-1.5-1.5h-8c-0.827 0-1.5 0.673-1.5 1.5v2c0 0.98 0.407 1.864 1.058 2.5H10V7h4v2.5c0 0.827 0.673 1.5 1.5 1.5h2c0.651 0 1.201-0.419 1.408-1H23.5c0.276 0 0.5-0.224 0.5-0.5S23.776 9 23.5 9zM22 16.5c0.027 0.668-0.478 1.165-1 1.5v-1.5c0-0.176-0.036-0.343-0.092-0.5H21.5c0.276 0 0.5 0.224 0.5 0.5zM13 18.5v-2c0-0.276 0.224-0.5 0.5-0.5h6c0.276 0 0.5 0.224 0.5 0.5v2c0 1.378-1.122 2.5-2.5 2.5h-2c-1.378 0-2.5-1.122-2.5-2.5zM9.5 6C9.224 6 9 6.224 9 6.5v15C9 21.776 9.224 22 9.5 22h11c0.276 0 0.5 0.224 0.5 0.5S20.776 23 20.5 23h-16C2.57 23 1 21.43 1 19.5v-15C1 2.57 2.57 1 4.5 1H19c1.103 0 2 0.897 2 2v1c0 1.103-0.897 2-2 2zM17.5 10h-2C15.224 10 15 9.776 15 9.5V7h3v2.5c0 0.276-0.224 0.5-0.5 0.5zM5 4C3.897 4 3 4.897 3 6s0.897 2 2 2 2-0.897 2-2-0.897-2-2-2zM5 7C4.449 7 4 6.551 4 6s0.449-1 1-1 1 0.449 1 1-0.449 1-1 1zM7 20.5C7 20.776 6.776 21 6.5 21h-3C3.224 21 3 20.776 3 20.5S3.224 20 3.5 20h3C6.776 20 7 20.224 7 20.5zM7 18.5C7 18.776 6.776 19 6.5 19h-3C3.224 19 3 18.776 3 18.5S3.224 18 3.5 18h3C6.776 18 7 18.224 7 18.5zM7 16.5C7 16.776 6.776 17 6.5 17h-3C3.224 17 3 16.776 3 16.5S3.224 16 3.5 16h3C6.776 16 7 16.224 7 16.5z" />
</svg>