<svg id="coffee_time_Layer_1" viewBox="0 0 24 24" fill="currentColor" width="32" height="32" data-name="Layer 1" xmlns="http://www.w3.org/2000/svg" xmlns:xlink="http://www.w3.org/1999/xlink">
    <title>coffee-time</title>
    <path d="M10 10.5H6.5C6.224 10.5 6 10.276 6 10s0.224-0.5 0.5-0.5h3v-5C9.5 4.224 9.724 4 10 4s0.5 0.224 0.5 0.5V10c0 0.276-0.224 0.5-0.5 0.5zM24 20.214C24 21.724 22.672 23 21.1 23h-1.965c-0.702 0.637-1.636 1-2.635 1h-3.876c-1.335 0-2.553-0.647-3.259-1.732-0.625-0.96-1.165-3.522-1.356-5.446-0.046-0.469 0.107-0.937 0.421-1.283 0.309-0.342 0.751-0.538 1.211-0.538l9.841 2e-3c0.46 0 0.902 0.196 1.211 0.537 0.314 0.348 0.468 0.815 0.421 1.284-0.037 0.373-0.091 0.772-0.152 1.177 1.81-0.056 3.064 0.781 3.038 2.213zM18.92 21.723c0.457-0.702 0.995-2.944 1.199-4.999 0.019-0.188-0.042-0.375-0.167-0.513-0.122-0.135-0.289-0.209-0.47-0.209L9.641 16c-0.181 0-0.348 0.074-0.47 0.209-0.125 0.138-0.186 0.325-0.167 0.513 0.205 2.055 0.743 4.298 1.2 5.001 0.52 0.8 1.425 1.277 2.42 1.277H16.5c0.996 0 1.9-0.478 2.42-1.277zM23 20.214c-2e-3-1.133-1.294-1.239-2.209-1.214-0.23 1.192-0.543 2.32-0.889 3H21.1c1.012 0 1.9-0.835 1.9-1.786zM5.737 17.928C2.815 16.355 1 13.317 1 10c0-4.963 4.038-9 9-9s9 4.037 9 9c0 0.804-0.106 1.601-0.315 2.369-0.073 0.266 0.084 0.541 0.351 0.613s0.542-0.084 0.614-0.352C19.882 11.776 20 10.892 20 9.999 20 4.486 15.514 0 10 0S0 4.486 0 10c0 3.685 2.017 7.06 5.263 8.809 0.239 0.129 0.546 0.043 0.678-0.203 0.131-0.243 0.04-0.547-0.204-0.678z" />
</svg>