<svg id="coffin_Layer_1" viewBox="0 0 24 24" fill="currentColor" width="32" height="32" data-name="Layer 1" xmlns="http://www.w3.org/2000/svg" xmlns:xlink="http://www.w3.org/1999/xlink">
    <title>coffin</title>
    <path d="M20.613 6.693l-1.52-3.752C18.368 1.154 16.643 0 14.697 0H9.358C7.411 0 5.686 1.155 4.962 2.941L3.441 6.693c-0.424 1.046-0.525 2.184-0.294 3.29l2.155 10.285C5.754 22.431 7.704 24 9.939 24h4.176c2.233 0 4.184-1.569 4.637-3.732l2.154-10.285c0.232-1.104 0.13-2.242-0.293-3.29zM19.928 9.778 17.774 20.063C17.417 21.765 15.878 23 14.116 23H9.94c-1.764 0-3.302-1.235-3.658-2.937L4.127 9.778C3.937 8.867 4.021 7.93 4.37 7.069l1.521-3.752C6.46 1.91 7.822 1.001 9.359 1.001h5.339c1.537 0 2.898 0.909 3.469 2.316l1.52 3.752c0.351 0.863 0.434 1.8 0.241 2.709z" />
</svg>