<svg id="coin_Layer_1" viewBox="0 0 24 24" fill="currentColor" width="32" height="32" data-name="Layer 1" xmlns="http://www.w3.org/2000/svg" xmlns:xlink="http://www.w3.org/1999/xlink">
    <title>coin</title>
    <path d="M12 2C5.271 2 0 4.855 0 8.5v7C0 19.145 5.271 22 12 22s12-2.855 12-6.5v-7C24 4.855 18.729 2 12 2zM3 18.611c-1.253-0.892-2-1.967-2-3.111v-4.365c0.5 0.627 1.18 1.196 2 1.697zM3.027 12.848l3e-3 2e-3zM4 19.222v-5.849c0.889 0.427 1.896 0.782 3 1.049v5.949c-1.124-0.296-2.136-0.687-3-1.149zM7.014 14.426zM11.5 20.986c-1.224-0.029-2.402-0.161-3.5-0.383v-5.968c1.098 0.204 2.272 0.325 3.5 0.351zM16 20.603c-1.098 0.222-2.276 0.354-3.5 0.383v-6c1.228-0.026 2.402-0.147 3.5-0.351zM20 19.222c-0.864 0.462-1.876 0.853-3 1.149v-5.949c1.104-0.268 2.111-0.623 3-1.049zM20.97 12.849l3e-3-2e-3zM23 15.499c0 1.145-0.747 2.219-2 3.111v-5.78c0.82-0.501 1.5-1.07 2-1.697zM12 13.999c-5.962 0-11-2.519-11-5.5S6.038 3 12 3 23 5.519 23 8.5 17.962 14 12 13.999z" />
</svg>