<svg id="coins_Layer_1" viewBox="0 0 24 24" fill="currentColor" width="32" height="32" data-name="Layer 1" xmlns="http://www.w3.org/2000/svg" xmlns:xlink="http://www.w3.org/1999/xlink">
    <title>coins</title>
    <path d="M17 0c-3.925 0-7 1.757-7 4v4.378C9.094 8.138 8.081 8 7 8 3.075 8 0 9.757 0 12v8c0 2.243 3.075 4 7 4s7-1.757 7-4v-0.385C14.933 19.863 15.955 20 17 20c3.925 0 7-1.757 7-4V4c0-2.243-3.075-4-7-4zM23 12c0 1.626-2.748 3-6 3-1.061 0-2.086-0.151-3-0.424V12c0-0.131-0.013-0.26-0.033-0.387C14.905 11.866 15.935 12 17 12c2.581 0 4.787-0.762 6-1.92zM1 14.08C2.213 15.238 4.419 16 7 16s4.787-0.762 6-1.92V16c0 1.626-2.748 3-6 3s-6-1.374-6-3zM17 1c3.252 0 6 1.374 6 3s-2.748 3-6 3-6-1.374-6-3 2.748-3 6-3zM11 6.08C12.213 7.238 14.419 8 17 8s4.787-0.762 6-1.92V8c0 1.626-2.748 3-6 3-1.297 0-2.531-0.213-3.576-0.613-0.518-0.688-1.36-1.27-2.424-1.688zM7 9c3.252 0 6 1.374 6 3s-2.748 3-6 3-6-1.374-6-3 2.748-3 6-3zM7 23c-3.252 0-6-1.374-6-3v-1.92C2.213 19.238 4.419 20 7 20s4.787-0.762 6-1.92V20c0 1.626-2.748 3-6 3zM17 19c-1.057 0-2.086-0.149-3-0.422v-2.962c0.932 0.248 1.953 0.383 3 0.383 2.581 0 4.787-0.762 6-1.92v1.92c0 1.626-2.748 3-6 3.001z" />
</svg>