<svg id="colon_sign_Layer_1" viewBox="0 0 24 24" fill="currentColor" width="32" height="32" data-name="Layer 1" xmlns="http://www.w3.org/2000/svg" xmlns:xlink="http://www.w3.org/1999/xlink">
    <title>colon-sign</title>
    <path d="M20.33 16.85c-0.25-0.13-0.55-0.03-0.67 0.21C18.4 19.49 15.93 21 13.2 21h-1.85l5.54-17c1.19 0.7 2.18 1.74 2.82 3.04 0.12 0.25 0.42 0.35 0.67 0.23s0.35-0.42 0.23-0.67c-0.77-1.55-1.96-2.77-3.4-3.57l0.77-2.37c0.09-0.26-0.06-0.54-0.32-0.63-0.26-0.08-0.54 0.06-0.63 0.32L16.3 2.6c-0.96-0.39-2.01-0.59-3.1-0.59h-0.15l0.44-1.34c0.09-0.26-0.06-0.54-0.32-0.63-0.26-0.08-0.54 0.06-0.63 0.32L12 2.02h-0.71C6.71 2 3 5.71 3 10.27v3.46c0 2.59 1.2 4.91 3.07 6.42l-1.04 3.19c-0.09 0.26 0.06 0.54 0.32 0.63 0.05 0.02 0.1 0.02 0.15 0.02 0.21 0 0.41-0.13 0.48-0.34l0.94-2.9c0.92 0.57 1.96 0.97 3.08 1.14l-0.47 1.44c-0.09 0.26 0.06 0.54 0.32 0.63 0.05 0.02 0.1 0.02 0.15 0.02 0.21 0 0.41-0.13 0.48-0.34l0.54-1.66c0.09 0 0.17 0 0.26 0h1.92c3.11 0 5.93-1.72 7.35-4.48 0.13-0.25 0.03-0.55-0.22-0.65zM4 13.73v-3.46C4 6.26 7.26 3 11.27 3h0.39L6.4 19.12C4.93 17.79 4 15.86 4 13.73zM7.24 19.78 12.71 3h0.48c0.98 0 1.92 0.19 2.79 0.55l-5.67 17.39c-1.12-0.15-2.17-0.56-3.07-1.16z" />
</svg>