<svg id="columns_3_Layer_1" viewBox="0 0 24 24" fill="currentColor" width="32" height="32" data-name="Layer 1" xmlns="http://www.w3.org/2000/svg" xmlns:xlink="http://www.w3.org/1999/xlink">
    <title>columns-3</title>
    <path d="M19.5 2h-15C2.019 2 0 4.019 0 6.5v11C0 19.981 2.019 22 4.5 22h15c2.481 0 4.5-2.019 4.5-4.5v-11C24 4.019 21.981 2 19.5 2zM16 3v18H8V3zM1 17.5v-11C1 4.57 2.57 3 4.5 3H7v18H4.5C2.57 21 1 19.43 1 17.5zM23 17.5c0 1.93-1.57 3.5-3.5 3.5H17V3h2.5C21.43 3 23 4.57 23 6.5z" />
</svg>