<svg id="comb_hair_Layer_1" viewBox="0 0 24 24" fill="currentColor" width="32" height="32" data-name="Layer 1" xmlns="http://www.w3.org/2000/svg" xmlns:xlink="http://www.w3.org/1999/xlink">
    <title>comb-hair</title>
    <path d="M14.999 15.534c-0.052 0.744-0.085 1.493-0.283 2.243C14.018 20.421 12.442 22 10.5 22c-2.561 0.043-3.575-1.951-6-2-1.677 0-3.269 1.627-3.476 3.554C0.997 23.81 0.78 24 0.527 24c-0.295 2e-3-0.531-0.26-0.498-0.554C0.293 20.995 2.299 19 4.499 19c2.561-0.043 3.575 1.951 6 2 2.163 0 3.034-2.662 3.25-3.479 0.171-0.643 0.204-1.353 0.251-2.056 0.02-0.275 0.26-0.485 0.534-0.465 0.275 0.02 0.483 0.258 0.465 0.534zM23.5 20c-0.276 0-0.5 0.224-0.5 0.5 0 1.379-1.122 2.5-2.5 2.5S18 21.879 18 20.5c0-1.984 1.496-3.694 2.138-4.338 1.15-1.15 1.15-3.093 0-4.243-1.197-1.224-3.08-1.208-4.242 0-0.195 0.195-0.195 0.512 0 0.707s0.512 0.195 0.707 0c0.79-0.822 2.008-0.838 2.828 0 0.753 0.754 0.753 2.075 0 2.829C18.7 16.186 17 18.142 17 20.5c0 1.93 1.57 3.5 3.5 3.5s3.5-1.57 3.5-3.5c0-0.276-0.224-0.5-0.5-0.5zM16.325 9.6c0.197-0.193 0.2-0.51 6e-3-0.707l-3.975-4.041 2.117-2.082 5.843 5.911c0.194 0.196 0.511 0.198 0.707 4e-3s0.198-0.511 4e-3-0.707l-5.842-5.91 0.341-0.336c0.945-0.945 2.593-0.943 3.534-2e-3l4.084 4.121c0.194 0.195 0.511 0.198 0.707 4e-3s0.197-0.512 3e-3-0.707L19.77 1.025c-1.322-1.322-3.631-1.319-4.947-3e-3L0.149 15.451c-0.197 0.193-0.2 0.51-6e-3 0.707 0.193 0.197 0.51 0.199 0.707 6e-3l5.094-5.009 5.164 5.231c0.195 0.196 0.511 0.199 0.707 4e-3 0.197-0.193 0.199-0.51 5e-3-0.707l-5.163-5.23 2.125-2.089 3.909 3.976c0.193 0.197 0.51 0.199 0.707 6e-3s0.2-0.51 6e-3-0.707L9.495 7.663l2.147-2.111 3.975 4.042c0.193 0.197 0.51 0.199 0.708 6e-3z" />
</svg>