<svg id="comedy_podcast_Layer_1" viewBox="0 0 24 24" fill="currentColor" width="32" height="32" data-name="Layer 1" xmlns="http://www.w3.org/2000/svg" xmlns:xlink="http://www.w3.org/1999/xlink">
    <title>comedy-podcast</title>
    <path d="M7.892 9C8.29 9 8.647 8.805 8.847 8.479 9.032 8.177 9.046 7.808 8.885 7.492 8.401 6.545 7.531 6 6.498 5.999h-3e-3c-1.033 0-1.903 0.544-2.386 1.494-0.161 0.315-0.146 0.684 0.039 0.986 0.199 0.326 0.556 0.52 0.954 0.52zM4.999 7.947C5.31 7.336 5.841 7 6.494 7h2e-3c0.654 0 1.186 0.337 1.5 0.951C7.995 7.959 7.969 8 7.892 8H5.1C5.023 8 4.997 7.959 4.999 7.947zM19.935 15.579c-0.523 3.257-4.223 5.987-7.233 7.705C11.882 23.752 10.949 24 10.004 24h-9e-3c-0.945 0-1.878-0.247-2.699-0.716C3.968 21.385 2e-3 18.373 0 14.807V5.071c0-2.137 1.537-3.993 3.654-4.413C5.849 0.223 7.983 1e-3 9.998 0c0.519 0 1.029 0.016 1.529 0.042 0.276 0.015 0.487 0.25 0.473 0.526-0.015 0.276-0.259 0.492-0.526 0.473-2.363-0.129-4.948 0.066-7.625 0.597C2.199 1.966 1 3.409 1 5.071v9.736c2e-3 3.248 4.256 6.161 6.792 7.608C8.462 22.798 9.224 23 9.995 23h9e-3c0.771 0 1.533-0.202 2.203-0.585 2.31-1.317 6.256-3.978 6.742-6.994 0.044-0.273 0.3-0.455 0.573-0.415 0.272 0.044 0.458 0.301 0.413 0.573zM18 4c-1.103 0-2 0.897-2 2s0.897 2 2 2 2-0.897 2-2-0.897-2-2-2zM18 7c-0.551 0-1-0.449-1-1s0.449-1 1-1 1 0.449 1 1-0.449 1-1 1zM18 13c-0.276 0-0.5-0.224-0.5-0.5v-3C17.5 9.224 17.724 9 18 9s0.5 0.224 0.5 0.5v3c0 0.276-0.224 0.5-0.5 0.5zM24 6c0 2.036-1.02 3.916-2.727 5.029-0.228 0.149-0.54 0.087-0.692-0.146-0.151-0.231-0.085-0.541 0.146-0.692C22.15 9.263 23 7.696 23 6c0-2.757-2.243-5-5-5s-5 2.243-5 5c0 1.697 0.85 3.264 2.273 4.191 0.231 0.151 0.297 0.461 0.146 0.692-0.152 0.231-0.462 0.296-0.692 0.146C13.019 9.916 12 8.035 12 6c0-3.309 2.691-6 6-6s6 2.691 6 6zM10 17c2.151 0 4.095-1.172 5.332-3.215 0.25-0.413 0.218-0.929-0.082-1.315-0.308-0.397-0.816-0.561-1.294-0.419l-0.62 0.19c-1.089 0.338-2.445 0.758-3.333 0.758h-6e-3c-0.888 0-2.244-0.42-3.333-0.758l-0.62-0.19c-0.48-0.142-0.987 0.021-1.294 0.419-0.299 0.386-0.332 0.902-0.082 1.315C5.905 15.828 7.849 17 10 17zM5.54 13.083c0.091-0.209 0.681 0.098 0.828 0.114C7.582 13.573 8.957 14 9.997 14h6e-3c1.04 0 2.416-0.427 3.629-0.803 0.19-0.044 0.996-0.419 0.844 0.07-0.498 0.821-1.93 2.732-4.477 2.732s-3.979-1.911-4.477-2.732c-0.037-0.061-0.031-0.123 0.018-0.184z" />
</svg>