<svg id="comment_Layer_1" viewBox="0 0 24 24" fill="currentColor" width="32" height="32" data-name="Layer 1" xmlns="http://www.w3.org/2000/svg" xmlns:xlink="http://www.w3.org/1999/xlink">
    <title>comment</title>
    <path d="M23.999 11.277C23.605 4.954 18.343 0 12.018 0 5.391 0 0 5.383 0 12s5.391 12 12.018 12H19.5c2.481 0 4.5-2.019 4.5-4.5zM22.999 19.5c0 1.93-1.57 3.5-3.5 3.5h-7.482C5.942 23 0.999 18.065 0.999 12S5.942 1 12.018 1C17.816 1 22.641 5.542 23 11.309zM6 8.5C6 8.224 6.224 8 6.5 8h7C13.776 8 14 8.224 14 8.5S13.776 9 13.5 9h-7C6.224 9 6 8.776 6 8.5zM18 12.5c0 0.276-0.224 0.5-0.5 0.5h-11C6.224 13 6 12.776 6 12.5S6.224 12 6.5 12h11c0.276 0 0.5 0.224 0.5 0.5zM18 16.5c0 0.276-0.224 0.5-0.5 0.5h-11C6.224 17 6 16.776 6 16.5S6.224 16 6.5 16h11c0.276 0 0.5 0.224 0.5 0.5z" />
</svg>