<svg id="comment_code_Layer_1" viewBox="0 0 24 24" fill="currentColor" width="32" height="32" data-name="Layer 1" xmlns="http://www.w3.org/2000/svg" xmlns:xlink="http://www.w3.org/1999/xlink">
    <title>comment-code</title>
    <path d="M14.881 17c-0.128 0-0.256-0.049-0.354-0.146-0.195-0.195-0.195-0.512 0-0.707l3.035-3.036c0.585-0.585 0.585-1.536 0-2.121l-3.136-3.136c-0.195-0.195-0.195-0.512 0-0.707s0.512-0.195 0.707 0l3.136 3.136c0.975 0.975 0.975 2.561 0 3.535l-3.035 3.036C15.136 16.952 15.008 17 14.881 17zM24 19.318v-6.963c0-6.487-4.903-11.901-11.163-12.327C9.358-0.208 5.96 1.065 3.508 3.521s-3.719 5.857-3.479 9.334C0.47 19.209 6.103 24 13.133 24h6.186c2.582 0 4.682-2.1 4.681-4.682zM12.77 1.026C18.507 1.416 23 6.392 23 12.355v6.963C23 21.348 21.349 23 19.318 23h-6.186C6.528 23 1.437 18.704 1.027 12.786 0.806 9.598 1.968 6.479 4.215 4.228c2.071-2.073 4.878-3.227 7.8-3.227 0.25 0 0.502 9e-3 0.755 0.025zM9.473 16.853c0.195-0.195 0.195-0.512 0-0.707L6.437 13.11c-0.585-0.585-0.585-1.536 0-2.121l3.136-3.136c0.195-0.195 0.195-0.512 0-0.707s-0.512-0.195-0.707 0L5.73 10.282c-0.975 0.975-0.975 2.561 0 3.535l3.036 3.036c0.098 0.098 0.226 0.146 0.354 0.146s0.256-0.049 0.353-0.146z" />
</svg>