<svg id="comment_text_Layer_1" viewBox="0 0 24 24" fill="currentColor" width="32" height="32" data-name="Layer 1" xmlns="http://www.w3.org/2000/svg" xmlns:xlink="http://www.w3.org/1999/xlink">
    <title>comment-text</title>
    <path d="M20.181 3.322c-2.323-2.247-5.358-3.404-8.552-3.314C5.309 0.224 0.094 5.542 2e-3 11.862c-0.044 3.103 1.133 6.031 3.315 8.245C5.792 22.617 9.277 24 13.132 24h6.367c2.481 0 4.5-2.019 4.5-4.5v-7.145c0-3.396-1.392-6.688-3.818-9.033zM23 19.5c0 1.93-1.57 3.5-3.5 3.5h-6.367c-3.585 0-6.818-1.276-9.103-3.595-1.993-2.021-3.069-4.696-3.028-7.529C1.086 6.081 5.868 1.205 11.663 1.008c0.124-5e-3 0.247-7e-3 0.37-7e-3 2.782 0 5.417 1.071 7.453 3.04C21.719 6.199 23 9.229 23 12.355z" />
    <path d="M15 7H9C7.622 7 6.5 8.121 6.5 9.5 6.5 9.776 6.724 10 7 10s0.5-0.224 0.5-0.5C7.5 8.673 8.173 8 9 8h2.5v9H10c-0.276 0-0.5 0.224-0.5 0.5S9.724 18 10 18h4c0.276 0 0.5-0.224 0.5-0.5S14.276 17 14 17h-1.5V8H15c0.827 0 1.5 0.673 1.5 1.5 0 0.276 0.224 0.5 0.5 0.5s0.5-0.224 0.5-0.5C17.5 8.121 16.378 7 15 7z" />
</svg>