<svg id="comment_alt_medical_Layer_1" viewBox="0 0 24 24" fill="currentColor" width="32" height="32" data-name="Layer 1" xmlns="http://www.w3.org/2000/svg" xmlns:xlink="http://www.w3.org/1999/xlink">
    <title>comment-alt-medical</title>
    <path d="M17 10c0 0.276-0.224 0.5-0.5 0.5h-4v4c0 0.276-0.224 0.5-0.5 0.5s-0.5-0.224-0.5-0.5v-4h-4C7.224 10.5 7 10.276 7 10s0.224-0.5 0.5-0.5h4v-4C11.5 5.224 11.724 5 12 5s0.5 0.224 0.5 0.5v4h4c0.276 0 0.5 0.224 0.5 0.5zM24 3.5v13c0 1.93-1.57 3.5-3.5 3.5h-3.532l-3.985 3.295c-0.275 0.245-0.626 0.368-0.979 0.368-0.356 0-0.715-0.126-1.001-0.379L7.106 20H3.5C1.57 20 0 18.43 0 16.5v-13C0 1.57 1.57 0 3.5 0h17C22.43 0 24 1.57 24 3.5zM23 3.5C23 2.122 21.878 1 20.5 1h-17C2.122 1 1 2.122 1 3.5v13C1 17.878 2.122 19 3.5 19h3.789c0.118 0 0.232 0.042 0.322 0.118l4.047 3.41c0.198 0.176 0.485 0.178 0.675 8e-3l4.137-3.421C16.56 19.041 16.673 19 16.789 19H20.5c1.378 0 2.5-1.122 2.5-2.5z" />
</svg>