<svg id="comments_dollar_Layer_1" viewBox="0 0 24 24" fill="currentColor" width="32" height="32" data-name="Layer 1" xmlns="http://www.w3.org/2000/svg" xmlns:xlink="http://www.w3.org/1999/xlink">
    <title>comments-dollar</title>
    <path d="M17.977 9.673c0.185-2.62-0.771-5.185-2.622-7.037s-4.4-2.8-7.007-2.614C3.823 0.342 0 4.596 0 9.312V14.5C0 16.79 1.21 18 3.5 18h5.185c4.718 0 8.974-3.812 9.292-8.327zM8.685 16.999H3.5c-1.729 0-2.5-0.771-2.5-2.5V9.311c0-4.21 3.397-8.007 7.418-8.291C8.607 1.007 8.796 1 8.984 1c2.118 0 4.156 0.837 5.663 2.344 1.647 1.647 2.497 3.928 2.333 6.259-0.283 4.009-4.082 7.396-8.295 7.396zM24 16.274V21c0 1.85-1.149 2.999-3 2.999h-4.722c-2.698 0-5.354-1.424-6.931-3.716-0.157-0.228-0.099-0.538 0.128-0.695 0.229-0.156 0.539-0.1 0.696 0.129 1.394 2.024 3.734 3.282 6.107 3.282H21c0.913 0 2-0.347 2-1.999v-4.726c0-2.373-1.258-4.713-3.283-6.105-0.228-0.157-0.285-0.468-0.129-0.695 0.158-0.228 0.468-0.285 0.695-0.129C22.575 10.921 24 13.576 24 16.274zM13 11.374C13 12.822 11.822 14 10.374 14H9.5v1.5C9.5 15.776 9.276 16 9 16s-0.5-0.224-0.5-0.5V14H7.574c-0.979 0-1.891-0.526-2.381-1.374-0.139-0.239-0.057-0.545 0.182-0.683 0.24-0.139 0.544-0.057 0.683 0.182C6.37 12.665 6.952 13 7.574 13h2.8C11.27 13 12 12.271 12 11.374c0-0.803-0.575-1.478-1.368-1.605L7.21 9.219C5.93 9.013 5.001 7.923 5.001 6.626 5.001 5.178 6.179 4 7.627 4h0.874V2.5c0-0.276 0.224-0.5 0.5-0.5s0.5 0.224 0.5 0.5V4h0.926c0.978 0 1.891 0.527 2.381 1.375 0.139 0.239 0.057 0.545-0.182 0.683-0.241 0.139-0.545 0.057-0.683-0.182-0.312-0.54-0.894-0.875-1.516-0.875h-2.8c-0.896 0-1.626 0.729-1.626 1.626 0 0.803 0.575 1.478 1.368 1.605l3.422 0.55C12.071 8.988 13 10.078 13 11.374z" />
</svg>