<svg id="comments_question_check_Layer_1" viewBox="0 0 24 24" fill="currentColor" width="32" height="32" data-name="Layer 1" xmlns="http://www.w3.org/2000/svg" xmlns:xlink="http://www.w3.org/1999/xlink">
    <title>comments-question-check</title>
    <path d="M24 16.275v4.726C24 22.851 22.851 24 21 24h-4.722c-2.698 0-5.354-1.424-6.932-3.717-0.156-0.228-0.099-0.539 0.129-0.695 0.226-0.155 0.539-0.1 0.695 0.129C11.564 21.742 13.903 23 16.277 23h4.722c0.912 0 2-0.347 2-1.999v-4.726c0-2.374-1.258-4.713-3.283-6.105-0.228-0.156-0.285-0.468-0.129-0.695 0.157-0.227 0.468-0.284 0.695-0.129 2.293 1.576 3.717 4.231 3.718 6.929zM9.539 4.048C7.915 3.766 6.331 4.819 6.01 6.401 5.955 6.672 6.13 6.936 6.401 6.991 6.672 7.048 6.936 6.871 6.991 6.6 7.205 5.543 8.27 4.84 9.368 5.033c0.801 0.141 1.459 0.799 1.601 1.602 0.152 0.867-0.242 1.699-1.004 2.119-0.76 0.418-1.464 0.949-1.464 1.997 0 0.276 0.224 0.5 0.5 0.5s0.5-0.224 0.5-0.5c0-0.454 0.229-0.727 0.946-1.121 1.125-0.62 1.73-1.894 1.506-3.169-0.212-1.209-1.205-2.201-2.414-2.413zM9 13c-0.552 0-1 0.448-1 1s0.448 1 1 1 1-0.448 1-1-0.448-1-1-1zM12.478 17.165C11.302 17.699 10.011 18 8.685 18H3.5C1.21 18 0 16.79 0 14.5V9.312c0-4.715 3.822-8.969 8.348-9.29 2.608-0.178 5.16 0.77 7.007 2.614 1.852 1.853 2.808 4.417 2.623 7.037-0.205 2.899-2.034 5.508-4.566 7.004l2.23 2.17c0.2 0.2 0.518 0.2 0.712 5e-3l3.797-3.711c0.199-0.191 0.516-0.189 0.707 8e-3 0.193 0.197 0.189 0.515-8e-3 0.707l-3.793 3.707c-0.29 0.29-0.672 0.436-1.055 0.436-0.385 0-0.77-0.146-1.062-0.439zM8.685 17c4.213 0 8.012-3.388 8.295-7.396 0.165-2.331-0.686-4.612-2.332-6.26C13.141 1.838 11.103 1 8.985 1 8.797 1 8.608 1.007 8.419 1.021 4.397 1.305 1 5.102 1 9.312V14.5C1 16.229 1.771 17 3.5 17z" />
</svg>