<svg id="comment_arrow_up_right_Layer_1" viewBox="0 0 24 24" fill="currentColor" width="32" height="32" data-name="Layer 1" xmlns="http://www.w3.org/2000/svg" xmlns:xlink="http://www.w3.org/1999/xlink">
    <title>comment-arrow-up-right</title>
    <path d="M17 9.5v5c0 0.276-0.224 0.5-0.5 0.5S16 14.776 16 14.5v-5c0-0.224-0.05-0.436-0.138-0.627l-8.01 7.981C7.754 16.952 7.627 17 7.499 17s-0.257-0.049-0.354-0.147c-0.194-0.196-0.194-0.512 2e-3-0.707l8.015-7.985 4e-3-4e-3C14.965 8.057 14.739 8 14.499 8h-5c-0.276 0-0.5-0.224-0.5-0.5S9.223 7 9.499 7h5c1.379 0 2.5 1.122 2.501 2.5zM24 12.355V19.5c0 2.481-2.019 4.5-4.5 4.5h-6.367c-3.855 0-7.341-1.382-9.815-3.893-2.182-2.214-3.36-5.142-3.315-8.245C0.094 5.542 5.309 0.225 11.629 9e-3c3.197-0.125 6.229 1.067 8.552 3.312C22.608 5.667 24 8.96 24 12.355zM23 12.355c0-3.126-1.281-6.157-3.515-8.315-2.036-1.968-4.67-3.039-7.451-3.039-0.124 0-0.247 2e-3-0.372 6e-3C5.868 1.206 1.086 6.082 1.003 11.877 0.962 14.71 2.037 17.383 4.03 19.405 6.314 21.723 9.548 23 13.133 23H19.5c1.93 0 3.5-1.57 3.5-3.5z" />
</svg>