<svg id="comment_minus_Layer_1" viewBox="0 0 24 24" fill="currentColor" width="32" height="32" data-name="Layer 1" xmlns="http://www.w3.org/2000/svg" xmlns:xlink="http://www.w3.org/1999/xlink">
    <title>comment-minus</title>
    <path d="M17 12c0 0.276-0.224 0.5-0.5 0.5h-9C7.224 12.5 7 12.276 7 12s0.224-0.5 0.5-0.5h9c0.276 0 0.5 0.224 0.5 0.5zM24 12.355v6.963C24 21.9 21.899 24 19.318 24h-6.186C6.104 24 0.47 19.208 0.029 12.855-0.212 9.378 1.056 5.977 3.508 3.521s5.854-3.725 9.329-3.493C19.097 0.453 24 5.868 24 12.355zM23 12.355c0-5.963-4.494-10.939-10.23-11.329C12.519 1.009 12.267 1 12.017 1c-2.922 0-5.729 1.154-7.8 3.227-2.249 2.252-3.411 5.371-3.19 8.559C1.437 18.704 6.528 23 13.132 23h6.186C21.348 23 23 21.349 23 19.318z" />
</svg>