<svg id="comment_pen_Layer_1" viewBox="0 0 24 24" fill="currentColor" width="32" height="32" data-name="Layer 1" xmlns="http://www.w3.org/2000/svg" xmlns:xlink="http://www.w3.org/1999/xlink">
    <title>comment-pen</title>
    <path d="M8.244 18H6.5C6.224 18 6 17.776 6 17.5v-1.744c0-1.016 0.396-1.97 1.113-2.687l6.277-6.278c1.02-1.021 2.799-1.021 3.818 0 0.51 0.51 0.791 1.188 0.791 1.909s-0.281 1.399-0.791 1.909l-6.277 6.278C10.213 17.605 9.258 18 8.244 18zM7 17h1.244c0.737 0 1.459-0.299 1.98-0.82l6.277-6.278c0.321-0.321 0.498-0.748 0.498-1.202s-0.177-0.881-0.498-1.202c-0.662-0.663-1.742-0.663-2.404 0L7.82 13.776C7.291 14.305 7 15.008 7 15.756zM19.5 24h-6.367c-3.855 0-7.341-1.382-9.815-3.893-2.182-2.214-3.36-5.142-3.315-8.245C0.094 5.542 5.309 0.225 11.629 9e-3c3.197-0.124 6.229 1.067 8.552 3.312C22.608 5.667 24 8.96 24 12.355V19.5c0 2.481-2.019 4.5-4.5 4.5zM12.034 1.001c-0.124 0-0.247 2e-3-0.372 6e-3C5.868 1.206 1.086 6.082 1.003 11.877 0.962 14.71 2.037 17.383 4.03 19.405 6.314 21.723 9.548 23 13.133 23H19.5c1.93 0 3.5-1.57 3.5-3.5v-7.145c0-3.126-1.281-6.157-3.515-8.315-2.036-1.968-4.67-3.039-7.451-3.039z" />
</svg>