<svg id="comment_lock_Layer_1" viewBox="0 0 24 24" fill="currentColor" width="32" height="32" data-name="Layer 1" xmlns="http://www.w3.org/2000/svg" xmlns:xlink="http://www.w3.org/1999/xlink">
    <title>comment-lock</title>
    <path d="M24 4.5v17.85c0.019 0.888-0.766 1.666-1.649 1.648-0.319 0-0.637-0.093-0.913-0.276L16.337 20H4.5C2.019 20 0 17.981 0 15.5v-1C0 14.224 0.224 14 0.5 14S1 14.224 1 14.5v1C1 17.43 2.57 19 4.5 19h12c0.106 0 0.209 0.033 0.295 0.096l5.215 3.806c0.185 0.123 0.434 0.135 0.647 0.02 0.214-0.114 0.342-0.328 0.342-0.571V4.5c0-1.93-1.57-3.5-3.5-3.5H9.5C9.224 1 9 0.776 9 0.5S9.224 0 9.5 0h10C21.981 0 24 2.019 24 4.5zM0 9.5v-2c0-1.391 0.822-2.585 2-3.149V3c0-1.654 1.346-3 3-3s3 1.346 3 3v1.351c1.178 0.564 2 1.758 2 3.149v2c0 1.93-1.57 3.5-3.5 3.5h-3C1.57 13 0 11.43 0 9.5zM3 4.051C3.165 4.027 3.329 4 3.5 4h3C6.671 4 6.835 4.027 7 4.051V3c0-1.103-0.897-2-2-2S3 1.897 3 3zM1 9.5C1 10.879 2.122 12 3.5 12h3C7.878 12 9 10.879 9 9.5v-2C9 6.121 7.878 5 6.5 5h-3C2.122 5 1 6.121 1 7.5zM5 9.5c0.552 0 1-0.448 1-1s-0.448-1-1-1-1 0.448-1 1 0.448 1 1 1z" />
</svg>