<svg id="comment_alt_edit_Layer_1" viewBox="0 0 24 24" fill="currentColor" width="32" height="32" data-name="Layer 1" xmlns="http://www.w3.org/2000/svg" xmlns:xlink="http://www.w3.org/1999/xlink">
    <title>comment-alt-edit</title>
    <path d="M20.5 0h-17C1.57 0 0 1.57 0 3.5v13C0 18.43 1.57 20 3.5 20h3.605l3.898 3.284c0.285 0.253 0.645 0.379 1.001 0.379 0.352 0 0.702-0.123 0.978-0.368L16.967 20h3.532c1.93 0 3.5-1.57 3.5-3.5v-13c0-1.93-1.57-3.5-3.499-3.5zM23 16.5c0 1.378-1.121 2.5-2.5 2.5h-3.712c-0.116 0-0.229 0.041-0.318 0.115l-4.138 3.421c-0.189 0.168-0.474 0.169-0.674-8e-3l-4.048-3.41C7.52 19.042 7.406 19 7.288 19H3.5C2.121 19 1 17.878 1 16.5v-13C1 2.122 2.121 1 3.5 1h17C21.879 1 23 2.122 23 3.5zM13.732 4.732 7.025 11.439C6.374 12.09 6 12.993 6 13.914V15.5C6 15.776 6.224 16 6.5 16h1.586c0.936 0 1.814-0.364 2.475-1.025l6.707-6.707C17.741 7.796 18 7.168 18 6.5s-0.26-1.296-0.732-1.768c-0.975-0.975-2.561-0.975-3.536 0zM16.56 7.56 9.853 14.267c-0.472 0.472-1.1 0.732-1.768 0.732H6.999v-1.086c0-0.658 0.267-1.302 0.732-1.768l6.707-6.707c0.584-0.585 1.537-0.585 2.121 0 0.283 0.283 0.439 0.66 0.439 1.061S16.842 7.276 16.56 7.56z" />
</svg>