<svg id="comment_clock_Layer_1" viewBox="0 0 24 24" fill="currentColor" width="32" height="32" data-name="Layer 1" xmlns="http://www.w3.org/2000/svg" xmlns:xlink="http://www.w3.org/1999/xlink">
    <title>comment-clock</title>
    <path d="M24 11.5v5c0 1.93-1.57 3.5-3.5 3.5h-3.532l-3.985 3.295c-0.275 0.245-0.626 0.368-0.979 0.368-0.356 0-0.715-0.126-1.001-0.379L7.106 20H3.5C1.57 20 0 18.43 0 16.5v-13C0 1.57 1.57 0 3.5 0h9C12.776 0 13 0.224 13 0.5S12.776 1 12.5 1h-9C2.122 1 1 2.122 1 3.5v13C1 17.878 2.122 19 3.5 19h3.789c0.118 0 0.232 0.042 0.322 0.118l4.047 3.41c0.198 0.175 0.485 0.178 0.675 8e-3l4.137-3.421C16.56 19.041 16.673 19 16.789 19H20.5c1.378 0 2.5-1.122 2.5-2.5v-5c0-0.276 0.224-0.5 0.5-0.5s0.5 0.224 0.5 0.5zM13 5.5C13 2.467 15.467 0 18.5 0S24 2.467 24 5.5 21.533 11 18.5 11 13 8.533 13 5.5zM14 5.5c0 2.481 2.019 4.5 4.5 4.5S23 7.981 23 5.5 20.981 1 18.5 1 14 3.019 14 5.5zM19.646 7.354c0.195 0.195 0.512 0.195 0.707 0s0.195-0.512 0-0.707l-1.354-1.354V3.5c0-0.276-0.224-0.5-0.5-0.5s-0.5 0.224-0.5 0.5v2c0 0.133 0.053 0.26 0.146 0.354zM12 10c-0.552 0-1 0.448-1 1s0.448 1 1 1 1-0.448 1-1-0.448-1-1-1zM7 11c0 0.552 0.448 1 1 1s1-0.448 1-1-0.448-1-1-1-1 0.448-1 1z" />
</svg>