<svg id="comment_image_Layer_1" viewBox="0 0 24 24" fill="currentColor" width="32" height="32" data-name="Layer 1" xmlns="http://www.w3.org/2000/svg" xmlns:xlink="http://www.w3.org/1999/xlink">
    <title>comment-image</title>
    <path d="M8 9c0 0.552-0.448 1-1 1S6 9.552 6 9 6.448 8 7 8 8 8.448 8 9zM24 19.5v-7.145c0-3.396-1.392-6.688-3.82-9.034-2.323-2.245-5.355-3.436-8.551-3.312C5.309 0.225 0.094 5.542 2e-3 11.862c-0.044 3.103 1.133 6.031 3.315 8.245C5.791 22.617 9.277 24 13.132 24h6.367c2.481 0 4.5-2.019 4.501-4.5zM19.485 4.04C21.718 6.199 23 9.229 23 12.355V19.5c0 1.93-1.57 3.5-3.5 3.5h-6.367c-3.585 0-6.818-1.276-9.103-3.595-1.993-2.022-3.069-4.696-3.028-7.528C1.086 6.082 5.868 1.206 11.663 1.008c0.125-4e-3 0.248-6e-3 0.372-6e-3 2.781 0 5.415 1.071 7.45 3.038zM5.354 16.854l5.293-5.293c0.195-0.195 0.512-0.195 0.707 0l2.586 2.586c0.585 0.585 1.536 0.585 2.121 0l4.293-4.293c0.195-0.195 0.195-0.512 0-0.707s-0.512-0.195-0.707 0l-4.293 4.293c-0.195 0.195-0.512 0.195-0.707 0l-2.586-2.586c-0.585-0.585-1.536-0.585-2.121 0l-5.293 5.293c-0.195 0.195-0.195 0.512 0 0.707C4.745 16.952 4.873 17 5.001 17s0.256-0.049 0.353-0.146z" />
</svg>