<svg id="comment_alt_middle_top_Layer_1" viewBox="0 0 24 24" fill="currentColor" width="32" height="32" data-name="Layer 1" xmlns="http://www.w3.org/2000/svg" xmlns:xlink="http://www.w3.org/1999/xlink">
    <title>comment-alt-middle-top</title>
    <path d="M20.5 24h-17C1.57 24 0 22.43 0 20.5v-13C0 5.57 1.57 4 3.5 4h3.606l3.907-3.292c0.559-0.497 1.416-0.497 1.983 9e-3L16.968 4h3.531c1.93 0 3.5 1.57 3.5 3.5v13c0 1.93-1.57 3.5-3.499 3.5zM3.5 5C2.121 5 1 6.122 1 7.5v13C1 21.878 2.121 23 3.5 23h17c1.379 0 2.5-1.122 2.5-2.5v-13C23 6.122 21.879 5 20.5 5h-3.711c-0.116 0-0.229-0.041-0.318-0.115l-4.125-3.409c-0.203-0.18-0.488-0.18-0.679-0.012L7.61 4.882C7.52 4.958 7.406 5 7.288 5z" />
</svg>