<svg id="comment_xmark_Layer_1" viewBox="0 0 24 24" fill="currentColor" width="32" height="32" data-name="Layer 1" xmlns="http://www.w3.org/2000/svg" xmlns:xlink="http://www.w3.org/1999/xlink">
    <title>comment-xmark</title>
    <path d="M16.854 7.854 12.708 12l4.146 4.146c0.195 0.195 0.195 0.512 0 0.707-0.098 0.098-0.226 0.146-0.354 0.146s-0.256-0.049-0.354-0.146L12 12.707 7.854 16.853c-0.098 0.098-0.226 0.146-0.354 0.146s-0.256-0.049-0.354-0.146c-0.195-0.195-0.195-0.512 0-0.707L11.292 12 7.146 7.854c-0.195-0.195-0.195-0.512 0-0.707s0.512-0.195 0.707 0l4.146 4.146 4.146-4.146c0.195-0.195 0.512-0.195 0.707 0s0.195 0.512 2e-3 0.707zM24 12.356v7.145c0 2.481-2.019 4.5-4.5 4.5h-6.367c-3.855 0-7.341-1.383-9.814-3.893-2.183-2.214-3.361-5.143-3.316-8.246C0.094 5.542 5.309 0.224 11.629 8e-3c3.182-0.09 6.229 1.068 8.552 3.314C22.609 5.668 24 8.96 24 12.356zM23 12.356c0-3.126-1.281-6.156-3.514-8.314-2.037-1.969-4.671-3.04-7.453-3.04-0.124 0-0.247 2e-3-0.371 7e-3C5.868 1.205 1.086 6.081 1.003 11.876c-0.041 2.833 1.034 5.508 3.027 7.529C6.314 21.723 9.548 23 13.133 23H19.5c1.93 0 3.5-1.57 3.5-3.5z" />
</svg>