<svg id="comment_exclamation_Layer_1" viewBox="0 0 24 24" fill="currentColor" width="32" height="32" data-name="Layer 1" xmlns="http://www.w3.org/2000/svg" xmlns:xlink="http://www.w3.org/1999/xlink">
    <title>comment-exclamation</title>
    <path d="M12 15c-0.276 0-0.5-0.224-0.5-0.5v-9C11.5 5.224 11.724 5 12 5s0.5 0.224 0.5 0.5v9c0 0.276-0.224 0.5-0.5 0.5zM12 17c-0.552 0-1 0.448-1 1s0.448 1 1 1 1-0.448 1-1-0.448-1-1-1zM24 19.5v-7.145c0-3.396-1.392-6.688-3.819-9.033-2.323-2.247-5.357-3.405-8.552-3.314C5.309 0.224 0.094 5.542 2e-3 11.862c-0.044 3.103 1.133 6.031 3.315 8.245C5.792 22.617 9.277 24 13.132 24h6.367c2.481 0 4.5-2.019 4.501-4.5zM19.486 4.041C21.719 6.199 23 9.229 23 12.355V19.5c0 1.93-1.57 3.5-3.5 3.5h-6.367c-3.585 0-6.818-1.276-9.103-3.595-1.993-2.021-3.069-4.696-3.028-7.529C1.086 6.081 5.868 1.205 11.663 1.008c0.124-5e-3 0.247-7e-3 0.37-7e-3 2.782 0 5.417 1.071 7.453 3.04z" />
</svg>