<svg id="comment_check_Layer_1" viewBox="0 0 24 24" fill="currentColor" width="32" height="32" data-name="Layer 1" xmlns="http://www.w3.org/2000/svg" xmlns:xlink="http://www.w3.org/1999/xlink">
    <title>comment-check</title>
    <path d="M10.501 16.499c-0.385 0-0.769-0.146-1.062-0.438L5.15 11.858c-0.197-0.193-0.201-0.51-8e-3-0.707 0.194-0.198 0.511-0.2 0.707-8e-3l4.293 4.207c0.199 0.199 0.517 0.197 0.711 4e-3l7.295-7.209c0.197-0.195 0.513-0.191 0.707 4e-3 0.194 0.196 0.192 0.513-4e-3 0.707l-7.293 7.207c-0.291 0.291-0.675 0.437-1.057 0.436zM24 19.5v-7.145c0-6.486-4.903-11.901-11.162-12.327C9.365-0.208 5.961 1.064 3.509 3.52s-3.72 5.858-3.48 9.334C0.47 19.208 6.103 24 13.133 24H19.5c2.481 0 4.5-2.019 4.5-4.5zM12.77 1.026C18.507 1.416 23 6.392 23 12.355V19.5c0 1.93-1.57 3.5-3.5 3.5h-6.367C6.529 23 1.438 18.704 1.028 12.786 0.807 9.598 1.969 6.478 4.217 4.227 6.287 2.154 9.095 1 12.017 1c0.25 0 0.502 8e-3 0.753 0.026z" />
</svg>