<svg id="comments_Layer_1" viewBox="0 0 24 24" fill="currentColor" width="32" height="32" data-name="Layer 1" xmlns="http://www.w3.org/2000/svg" xmlns:xlink="http://www.w3.org/1999/xlink">
    <title>comments</title>
    <path d="M8.685 18H3.5C1.21 18 0 16.79 0 14.5V9.312c0-4.715 3.823-8.969 8.348-9.29 2.601-0.181 5.161 0.769 7.007 2.615 1.852 1.852 2.807 4.416 2.622 7.036-0.318 4.514-4.574 8.326-9.292 8.327zM8.985 1c-0.188 0-0.377 7e-3-0.566 0.021C4.397 1.305 1 5.102 1 9.312V14.5C1 16.229 1.771 17 3.5 17h5.185c4.213 0 8.012-3.387 8.295-7.396 0.165-2.331-0.686-4.612-2.333-6.259C13.141 1.838 11.103 1 8.985 1zM24.001 21.001v-4.726c0-2.698-1.424-5.354-3.717-6.93-0.227-0.156-0.538-0.098-0.695 0.129-0.156 0.228-0.099 0.539 0.129 0.695 2.025 1.393 3.283 3.731 3.283 6.105V21c0 1.652-1.087 1.999-2 1.999h-4.722c-2.374 0-4.714-1.258-6.107-3.283-0.157-0.229-0.468-0.285-0.695-0.129s-0.285 0.468-0.129 0.695c1.578 2.293 4.233 3.717 6.932 3.717h4.722c1.851 0 3-1.149 2.999-2.998z" />
</svg>