<svg id="comment_question_Layer_1" viewBox="0 0 24 24" fill="currentColor" width="32" height="32" data-name="Layer 1" xmlns="http://www.w3.org/2000/svg" xmlns:xlink="http://www.w3.org/1999/xlink">
    <title>comment-question</title>
    <path d="M12 18c0.552 0 1 0.448 1 1s-0.448 1-1 1-1-0.448-1-1 0.448-1 1-1zM24 19.5v-7.145c0-3.396-1.392-6.688-3.819-9.033-2.323-2.247-5.358-3.404-8.552-3.314C5.309 0.224 0.094 5.542 2e-3 11.862c-0.044 3.103 1.133 6.031 3.315 8.245C5.792 22.617 9.277 24 13.132 24h6.367c2.481 0 4.5-2.019 4.501-4.5zM19.486 4.041C21.719 6.199 23 9.229 23 12.355V19.5c0 1.93-1.57 3.5-3.5 3.5h-6.367c-3.585 0-6.818-1.276-9.103-3.595-1.993-2.021-3.069-4.696-3.028-7.529C1.086 6.081 5.868 1.205 11.663 1.008c0.124-5e-3 0.247-7e-3 0.37-7e-3 2.782 0 5.417 1.071 7.453 3.04zM12.5 15.5V15c0-0.937 0.674-2.1 1.473-2.54 1.5-0.826 2.307-2.524 2.009-4.225-0.283-1.611-1.605-2.935-3.216-3.217-1.104-0.195-2.201 0.06-3.088 0.713-0.876 0.645-1.459 1.63-1.599 2.704C8.043 8.708 8.236 8.959 8.51 8.996 8.782 9.031 9.034 8.838 9.07 8.564c0.105-0.805 0.542-1.544 1.2-2.027 0.666-0.49 1.489-0.677 2.323-0.534 1.204 0.212 2.193 1.2 2.404 2.405 0.229 1.3-0.363 2.546-1.506 3.177-1.116 0.615-1.99 2.115-1.99 3.415v0.5c0 0.276 0.224 0.5 0.5 0.5s0.5-0.224 0.499-0.5z" />
</svg>