<svg id="comment_arrow_down_Layer_1" viewBox="0 0 24 24" fill="currentColor" width="32" height="32" data-name="Layer 1" xmlns="http://www.w3.org/2000/svg" xmlns:xlink="http://www.w3.org/1999/xlink">
    <title>comment-arrow-down</title>
    <path d="M16.854 13.527c0.195 0.195 0.195 0.512 0 0.707l-3.035 3.036c-0.487 0.487-1.128 0.731-1.768 0.731h-0.059c-0.62-0.016-1.236-0.259-1.709-0.731l-3.136-3.136c-0.195-0.195-0.195-0.512 0-0.707s0.512-0.195 0.707 0l3.136 3.136c0.15 0.15 0.324 0.261 0.51 0.334V6.5C11.5 6.224 11.724 6 12 6s0.5 0.224 0.5 0.5v10.433c0.224-0.07 0.434-0.193 0.611-0.37l3.035-3.036c0.195-0.195 0.512-0.195 0.708 0zM24 12.355V19.5c0 2.481-2.019 4.5-4.5 4.5h-6.367c-3.855 0-7.341-1.382-9.815-3.893-2.183-2.214-3.36-5.142-3.316-8.245C0.094 5.542 5.309 0.225 11.629 9e-3c3.203-0.107 6.229 1.067 8.551 3.312C22.608 5.667 24 8.96 24 12.355zM23 12.355c0-3.126-1.281-6.157-3.515-8.315-2.036-1.967-4.67-3.039-7.451-3.039-0.124 0-0.247 2e-3-0.372 6e-3-5.794 0.199-10.576 5.075-10.66 10.87-0.041 2.833 1.035 5.506 3.028 7.528C6.315 21.723 9.548 23 13.133 23H19.5c1.93 0 3.5-1.57 3.5-3.5z" />
</svg>