<svg id="comments_question_Layer_1" viewBox="0 0 24 24" fill="currentColor" width="32" height="32" data-name="Layer 1" xmlns="http://www.w3.org/2000/svg" xmlns:xlink="http://www.w3.org/1999/xlink">
    <title>comments-question</title>
    <path d="M8.685 18H3.5C1.21 18 0 16.79 0 14.5V9.312c0-4.715 3.823-8.969 8.348-9.29 2.602-0.178 5.161 0.77 7.007 2.614 1.852 1.853 2.808 4.417 2.623 7.037-0.319 4.514-4.575 8.326-9.293 8.327zM8.985 1c-0.188 0-0.377 7e-3-0.566 0.021C4.397 1.305 1 5.102 1 9.312V14.5C1 16.229 1.771 17 3.5 17h5.185c4.213 0 8.012-3.388 8.295-7.396 0.165-2.331-0.686-4.612-2.332-6.26C13.141 1.838 11.103 1 8.985 1zM24.001 21.001v-4.726c0-2.698-1.424-5.354-3.717-6.93-0.228-0.155-0.538-0.098-0.695 0.129-0.156 0.228-0.099 0.539 0.129 0.695 2.025 1.393 3.283 3.731 3.283 6.105V21c0 1.652-1.088 1.999-2 1.999h-4.722c-2.374 0-4.714-1.258-6.107-3.283-0.157-0.229-0.467-0.285-0.695-0.129s-0.285 0.468-0.129 0.695c1.578 2.293 4.233 3.717 6.932 3.717h4.722c1.851 0 3-1.149 2.999-2.998zM9.5 10.75c0-0.454 0.23-0.727 0.947-1.121 1.125-0.621 1.729-1.895 1.506-3.168-0.212-1.21-1.205-2.202-2.413-2.413-1.627-0.287-3.208 0.771-3.53 2.353-0.055 0.271 0.12 0.534 0.391 0.59 0.272 0.054 0.535-0.119 0.59-0.391 0.214-1.057 1.276-1.758 2.377-1.567 0.802 0.141 1.459 0.799 1.6 1.602 0.152 0.867-0.242 1.699-1.003 2.119-0.511 0.282-1.464 0.806-1.464 1.997 0 0.276 0.224 0.5 0.5 0.5s0.5-0.224 0.499-0.501zM9 13c-0.552 0-1 0.448-1 1s0.448 1 1 1 1-0.448 1-1-0.448-1-1-1z" />
</svg>