<svg id="comment_alt_minus_Layer_1" viewBox="0 0 24 24" fill="currentColor" width="32" height="32" data-name="Layer 1" xmlns="http://www.w3.org/2000/svg" xmlns:xlink="http://www.w3.org/1999/xlink">
    <title>comment-alt-minus</title>
    <path d="M17 10c0 0.276-0.224 0.5-0.5 0.5h-9C7.224 10.5 7 10.276 7 10s0.224-0.5 0.5-0.5h9c0.276 0 0.5 0.224 0.5 0.5zM24 3.5v13c0 1.93-1.57 3.5-3.5 3.5h-3.532l-3.985 3.295c-0.275 0.245-0.626 0.368-0.978 0.368-0.356 0-0.716-0.126-1.001-0.379L7.106 20H3.501c-1.93 0-3.5-1.57-3.5-3.5v-13C0 1.57 1.57 0 3.5 0h17C22.43 0 24 1.57 24 3.5zM23 3.5C23 2.122 21.879 1 20.5 1h-17C2.121 1 1 2.122 1 3.5v13C1 17.878 2.121 19 3.5 19h3.788c0.118 0 0.232 0.042 0.322 0.118l4.048 3.41c0.2 0.178 0.485 0.176 0.674 8e-3l4.138-3.421C16.56 19.041 16.672 19 16.788 19H20.5c1.379 0 2.5-1.122 2.5-2.5z" />
</svg>