<svg id="comment_dollar_Layer_1" viewBox="0 0 24 24" fill="currentColor" width="32" height="32" data-name="Layer 1" xmlns="http://www.w3.org/2000/svg" xmlns:xlink="http://www.w3.org/1999/xlink">
    <title>comment-dollar</title>
    <path d="M12.838 0.028C9.369-0.208 5.962 1.065 3.509 3.521c-2.452 2.455-3.72 5.857-3.48 9.334C0.469 19.209 6.103 24 13.133 24H19.5c2.481 0 4.5-2.019 4.5-4.5v-7.145c0-6.487-4.903-11.901-11.162-12.327zM23 19.5c0 1.93-1.57 3.5-3.5 3.5h-6.367C6.529 23 1.438 18.704 1.028 12.786 0.807 9.598 1.969 6.478 4.217 4.228c2.07-2.074 4.878-3.227 7.8-3.227 0.25 0 0.502 9e-3 0.753 0.026C18.507 1.417 23 6.393 23 12.356zM16 14.374C16 15.822 14.822 17 13.374 17H12.5v1.5c0 0.276-0.224 0.5-0.5 0.5s-0.5-0.224-0.5-0.5V17h-0.926c-0.979 0-1.892-0.526-2.382-1.375-0.139-0.239-0.057-0.545 0.183-0.683 0.235-0.138 0.544-0.058 0.683 0.183C9.37 15.665 9.952 16 10.575 16h2.8c0.896 0 1.626-0.729 1.626-1.626 0-0.803-0.575-1.478-1.368-1.605l-3.422-0.55c-1.28-0.206-2.21-1.296-2.21-2.593C8.001 8.178 9.179 7 10.627 7h0.874V5.5c0-0.276 0.224-0.5 0.5-0.5s0.5 0.224 0.5 0.5V7h0.926c0.979 0 1.892 0.527 2.382 1.375 0.139 0.239 0.057 0.545-0.183 0.683-0.236 0.136-0.545 0.057-0.683-0.183C14.631 8.335 14.049 8 13.426 8h-2.8C9.73 8 9 8.729 9 9.626c0 0.803 0.575 1.478 1.368 1.605l3.422 0.55c1.28 0.206 2.21 1.296 2.21 2.593z" />
</svg>