<svg id="comment_alt_middle_Layer_1" viewBox="0 0 24 24" fill="currentColor" width="32" height="32" data-name="Layer 1" xmlns="http://www.w3.org/2000/svg" xmlns:xlink="http://www.w3.org/1999/xlink">
    <title>comment-alt-middle</title>
    <path d="M12.004 23.663c-0.356 0-0.715-0.126-1.001-0.38L7.106 20H3.5C1.57 20 0 18.43 0 16.5v-13C0 1.57 1.57 0 3.5 0h17C22.43 0 24 1.57 24 3.5v13c0 1.93-1.57 3.5-3.5 3.5h-3.531l-3.985 3.294c-0.275 0.246-0.626 0.369-0.98 0.369zM3.5 1C2.122 1 1 2.122 1 3.5v13C1 17.878 2.122 19 3.5 19h3.789c0.118 0 0.232 0.042 0.322 0.118l4.047 3.409c0.199 0.177 0.484 0.178 0.675 9e-3l4.138-3.421C16.561 19.041 16.673 19 16.789 19H20.5c1.379 0 2.5-1.122 2.5-2.5v-13C23 2.122 21.879 1 20.5 1z" />
</svg>