<svg id="comment_smile_Layer_1" viewBox="0 0 24 24" fill="currentColor" width="32" height="32" data-name="Layer 1" xmlns="http://www.w3.org/2000/svg" xmlns:xlink="http://www.w3.org/1999/xlink">
    <title>comment-smile</title>
    <path d="M8 11.5c1.103 0 2-0.897 2-2s-0.897-2-2-2-2 0.897-2 2 0.897 2 2 2zM8 8.5c0.552 0 1 0.449 1 1s-0.448 1-1 1-1-0.449-1-1 0.448-1 1-1zM16 7.5c-1.103 0-2 0.897-2 2s0.897 2 2 2 2-0.897 2-2-0.897-2-2-2zM16 10.5c-0.552 0-1-0.449-1-1s0.448-1 1-1 1 0.449 1 1-0.448 1-1 1zM17.889 14.686c0.173 0.214 0.141 0.529-0.073 0.703-0.106 0.086-2.638 2.112-5.815 2.112s-5.709-2.025-5.815-2.112c-0.214-0.174-0.246-0.488-0.073-0.703 0.175-0.214 0.488-0.248 0.703-0.074 0.023 0.019 2.37 1.889 5.186 1.889s5.162-1.87 5.186-1.889c0.214-0.173 0.529-0.14 0.701 0.074zM12.838 0.028C9.369-0.207 5.962 1.065 3.509 3.521c-2.452 2.455-3.72 5.857-3.48 9.334C0.469 19.209 6.103 24 13.133 24h6.186c2.581 0 4.682-2.1 4.682-4.682v-6.963C24 5.868 19.097 0.454 12.838 0.028zM23 19.318C23 21.348 21.349 23 19.318 23h-6.186C6.528 23 1.437 18.704 1.027 12.786 0.806 9.598 1.968 6.478 4.216 4.228 6.464 1.976 9.583 0.81 12.77 1.026 18.507 1.416 23 6.392 23 12.355z" />
</svg>