<svg id="computer_speaker_Layer_1" viewBox="0 0 24 24" fill="currentColor" width="32" height="32" data-name="Layer 1" xmlns="http://www.w3.org/2000/svg" xmlns:xlink="http://www.w3.org/1999/xlink">
    <title>computer-speaker</title>
    <path d="M20 6h-4c-2.206 0-4 1.794-4 4v10c0 2.206 1.794 4 4 4h4c2.206 0 4-1.794 4-4V10c0-2.206-1.794-4-4-4zM23 20c0 1.654-1.346 3-3 3h-4c-1.654 0-3-1.346-3-3V10c0-1.654 1.346-3 3-3h4c1.654 0 3 1.346 3 3zM18 15c-1.654 0-3 1.346-3 3s1.346 3 3 3 3-1.346 3-3-1.346-3-3-3zM18 20c-1.103 0-2-0.897-2-2s0.897-2 2-2 2 0.897 2 2-0.897 2-2 2zM16.5 11.5c0-0.828 0.672-1.5 1.5-1.5s1.5 0.672 1.5 1.5S18.828 13 18 13s-1.5-0.672-1.5-1.5zM10 16.5v4c0 0.276-0.224 0.5-0.5 0.5h-3C6.224 21 6 20.776 6 20.5S6.224 20 6.5 20H9v-3H4.5C2.019 17 0 14.981 0 12.5v-8C0 2.019 2.019 0 4.5 0h12c2.054 0 3.847 1.388 4.358 3.375 0.068 0.267-0.092 0.54-0.359 0.609-0.271 0.07-0.54-0.093-0.609-0.36-0.397-1.545-1.792-2.625-3.39-2.625h-12c-1.93 0-3.5 1.57-3.5 3.5v8c0 1.93 1.57 3.5 3.5 3.5h5c0.276 0 0.5 0.224 0.5 0.501z" />
</svg>