<svg id="compass_north_Layer_1" viewBox="0 0 24 24" fill="currentColor" width="32" height="32" data-name="Layer 1" xmlns="http://www.w3.org/2000/svg" xmlns:xlink="http://www.w3.org/1999/xlink">
    <title>compass-north</title>
    <path d="M12 0C5.383 0 0 5.383 0 12s5.383 12 12 12 12-5.383 12-12S18.617 0 12 0zM12 23C5.935 23 1 18.065 1 12S5.935 1 12 1 23 5.935 23 12 18.065 23 12 23zM14.055 6.694c-0.393-0.773-1.174-1.252-2.039-1.252h-8e-3c-0.869 3e-3-1.65 0.488-2.033 1.255 0 0-3.729 7.02-3.762 7.08-4e-3 9e-3-9e-3 0.019-0.014 0.028-0.387 0.848-0.207 1.837 0.463 2.523 0.632 0.636 1.58 0.849 2.393 0.51 0.155-0.079 2.243-1.147 2.944-1.506 0.854 0.439 2.513 1.296 2.775 1.449 0.305 0.146 0.635 0.22 0.967 0.22 0.31 0 0.621-0.064 0.913-0.193 0.553-0.244 0.977-0.689 1.194-1.254 0.217-0.564 0.201-1.182-0.043-1.734-0.685-1.584-3.634-6.914-3.75-7.126zM16.915 15.194c-0.121 0.314-0.357 0.562-0.665 0.698-0.335 0.149-0.717 0.144-1.006 7e-3-0.321-0.19-2.741-1.433-3.016-1.574-0.072-0.037-0.15-0.055-0.229-0.055s-0.156 0.018-0.228 0.055c0 0-2.984 1.527-3.136 1.605-0.393 0.162-0.926 0.034-1.263-0.304-0.372-0.382-0.478-0.928-0.27-1.395 0.078-0.146 0.566-1.066 3.759-7.077 0.223-0.445 0.651-0.711 1.147-0.713 0.473 0 0.927 0.262 1.161 0.721 0.03 0.055 3.051 5.513 3.718 7.056 0.138 0.312 0.147 0.659 0.028 0.976z" />
</svg>