<svg id="computer_Layer_1" viewBox="0 0 24 24" fill="currentColor" width="32" height="32" data-name="Layer 1" xmlns="http://www.w3.org/2000/svg" xmlns:xlink="http://www.w3.org/1999/xlink">
    <title>computer</title>
    <path d="M19.5 1h-15C2.019 1 0 3.019 0 5.5v9C0 16.981 2.019 19 4.5 19h7v3h-5C6.224 22 6 22.224 6 22.5S6.224 23 6.5 23h11c0.276 0 0.5-0.224 0.5-0.5S17.776 22 17.5 22h-5v-3h7c2.481 0 4.5-2.019 4.5-4.5v-9C24 3.019 21.981 1 19.5 1zM4.5 2h15C21.43 2 23 3.57 23 5.5V14H1V5.5C1 3.57 2.57 2 4.5 2zM19.5 18h-15c-1.758 0-3.204-1.308-3.449-3h21.898c-0.245 1.692-1.691 3-3.449 3z" />
</svg>