<svg id="compass_alt_Layer_1" viewBox="0 0 24 24" fill="currentColor" width="32" height="32" data-name="Layer 1" xmlns="http://www.w3.org/2000/svg" xmlns:xlink="http://www.w3.org/1999/xlink">
    <title>compass-alt</title>
    <path d="M12.5 2.025V0.5C12.5 0.224 12.276 0 12 0s-0.5 0.224-0.5 0.5v1.525C5.667 2.289 1 7.103 1 13c0 6.065 4.935 11 11 11s11-4.935 11-11c0-5.897-4.667-10.711-10.5-10.975zM12.5 22.974v-1.475c0-0.276-0.224-0.5-0.5-0.5s-0.5 0.224-0.5 0.5v1.475c-5.114-0.255-9.22-4.361-9.475-9.475H3.5c0.276 0 0.5-0.224 0.5-0.5s-0.224-0.5-0.5-0.5H2.025C2.28 7.385 6.386 3.28 11.5 3.025V4.5C11.5 4.776 11.724 5 12 5s0.5-0.224 0.5-0.5V3.025c5.114 0.255 9.22 4.36 9.475 9.475H20.5c-0.276 0-0.5 0.224-0.5 0.5s0.224 0.5 0.5 0.5h1.475c-0.255 5.114-4.361 9.22-9.475 9.474zM13 12.999c0 0.552-0.448 1-1 1s-1-0.448-1-1 0.448-1 1-1 1 0.448 1 1zM15.191 11.733c-0.339-0.884-1.041-1.585-1.882-1.906L7.79 7.086C7.304 6.901 6.754 7.018 6.386 7.385c-0.368 0.368-0.485 0.92-0.28 1.448l2.702 5.432c0.34 0.884 1.041 1.586 1.882 1.907l5.517 2.738c0.151 0.06 0.312 0.089 0.475 0.089 0.353 0 0.683-0.137 0.932-0.386 0.368-0.368 0.485-0.921 0.279-1.449zM16.906 17.906c-0.08 0.08-0.255 0.09-0.293 0.089-3e-3 0-5e-3 0-3e-3 0l-5.518-2.739c-0.62-0.238-1.112-0.73-1.369-1.395L7.021 8.429c-0.045-0.117-0.017-0.25 0.072-0.338C7.181 8.003 7.316 7.976 7.389 8l5.518 2.741c0.621 0.238 1.113 0.73 1.37 1.394l2.701 5.431c0.045 0.117 0.017 0.251-0.072 0.34z" />
</svg>