<svg id="completed_Layer_1" viewBox="0 0 24 24" fill="currentColor" width="32" height="32" data-name="Layer 1" xmlns="http://www.w3.org/2000/svg" xmlns:xlink="http://www.w3.org/1999/xlink">
    <title>completed</title>
    <path d="M18 17.5c0 0.276-0.224 0.5-0.5 0.5h-4c-0.276 0-0.5-0.224-0.5-0.5s0.224-0.5 0.5-0.5h4c0.276 0 0.5 0.224 0.5 0.5zM7.264 11.428c0.386 0.379 0.892 0.568 1.397 0.568s1.015-0.191 1.4-0.572l2.79-2.755c0.196-0.194 0.198-0.511 4e-3-0.707-0.194-0.197-0.511-0.199-0.707-5e-3l-2.79 2.755c-0.384 0.38-1.01 0.38-1.394 1e-3L6.767 9.539C6.569 9.345 6.253 9.35 6.059 9.546 5.866 9.743 5.87 10.06 6.066 10.253zM12.856 13.962c-0.194-0.196-0.511-0.199-0.707-4e-3L9.36 16.713c-0.384 0.379-1.01 0.38-1.394 2e-3L6.768 15.54c-0.198-0.194-0.514-0.189-0.708 7e-3-0.193 0.197-0.189 0.514 7e-3 0.707l1.198 1.175c0.386 0.379 0.891 0.568 1.396 0.568s1.016-0.191 1.401-0.572l2.789-2.755c0.196-0.194 0.198-0.51 5e-3-0.708zM17.501 11h-4c-0.276 0-0.5 0.224-0.5 0.5s0.224 0.5 0.5 0.5h4c0.276 0 0.5-0.224 0.5-0.5s-0.224-0.5-0.5-0.5zM21.001 6.5v13c0 2.481-2.019 4.5-4.5 4.5H7.5C5.019 24 3 21.981 3 19.5v-13C3 4.019 5.019 2 7.5 2h0.55c0.232-1.14 1.243-2 2.45-2h3c1.207 0 2.218 0.86 2.45 2h0.55c2.481 0 4.5 2.019 4.501 4.5zM20.001 6.5c0-1.93-1.57-3.5-3.5-3.5h-1c-0.276 0-0.5-0.224-0.5-0.5 0-0.827-0.673-1.5-1.5-1.5h-3c-0.827 0-1.5 0.673-1.5 1.5 0 0.276-0.224 0.5-0.5 0.5h-1c-1.93 0-3.5 1.57-3.5 3.5v13c0 1.93 1.57 3.5 3.5 3.5h9c1.93 0 3.5-1.57 3.5-3.5z" />
</svg>