<svg id="compass_slash_Layer_1" viewBox="0 0 24 24" fill="currentColor" width="32" height="32" data-name="Layer 1" xmlns="http://www.w3.org/2000/svg" xmlns:xlink="http://www.w3.org/1999/xlink">
    <title>compass-slash</title>
    <path d="M6.089 16.964c-0.186 0.322-0.061 0.641 0.123 0.824 0.185 0.184 0.502 0.309 0.845 0.111l4.354-2.819c0.229-0.148 0.541-0.084 0.691 0.148 0.149 0.231 0.084 0.541-0.148 0.691l-4.375 2.832c-0.282 0.164-0.586 0.244-0.884 0.244-0.438 0-0.862-0.171-1.19-0.5-0.553-0.552-0.66-1.377-0.269-2.053l2.726-4.213c0.151-0.233 0.463-0.297 0.691-0.148 0.232 0.15 0.298 0.46 0.148 0.691zM23.854 23.147c0.195 0.195 0.195 0.512 0 0.707C23.756 23.952 23.628 24 23.5 24s-0.256-0.049-0.354-0.146l-23-23c-0.195-0.196-0.195-0.512 0-0.708s0.512-0.195 0.708 0l3.03 3.03C6.103 1.131 8.97 0 12 0c6.617 0 12 5.383 12 12 0 3.029-1.132 5.896-3.176 8.117zM4.591 3.884l5.477 5.477 6.353-4.112c0.697-0.403 1.523-0.296 2.074 0.256 0.553 0.552 0.66 1.377 0.269 2.053l-4.124 6.374 5.477 5.477c1.857-2.032 2.884-4.646 2.884-7.409 0-6.065-4.935-11-11-11-2.764 0-5.378 1.027-7.41 2.884zM13.916 13.209l3.995-6.173c0.186-0.322 0.061-0.641-0.123-0.824-0.185-0.184-0.501-0.311-0.845-0.111l-6.153 3.983zM17.261 21.663C15.657 22.538 13.838 23 12 23 5.935 23 1 18.065 1 12c0-1.838 0.463-3.657 1.337-5.26C2.47 6.497 2.38 6.194 2.138 6.061S1.593 6.019 1.46 6.26C0.505 8.01 0 9.994 0 12c0 6.617 5.383 12 12 12 2.005 0 3.989-0.504 5.739-1.459 0.242-0.132 0.332-0.436 0.199-0.678-0.131-0.243-0.436-0.332-0.677-0.2z" />
</svg>