<svg id="compress_alt_Layer_1" viewBox="0 0 24 24" fill="currentColor" width="32" height="32" data-name="Layer 1" xmlns="http://www.w3.org/2000/svg" xmlns:xlink="http://www.w3.org/1999/xlink">
    <title>compress-alt</title>
    <path d="M23.854 0.146c-0.195-0.195-0.512-0.195-0.707 0l-5.051 5.051-2.817-2.817c-0.378-0.378-0.922-0.485-1.416-0.281-0.495 0.203-0.816 0.679-0.82 1.211l-0.042 6.382c-2e-3 0.351 0.133 0.68 0.379 0.927 0.245 0.245 0.571 0.379 0.918 0.379h9e-3l6.383-0.042c0.533-3e-3 1.009-0.325 1.212-0.819 0.204-0.497 0.096-1.04-0.281-1.417l-2.817-2.817 5.05-5.049c0.195-0.195 0.195-0.512 0-0.708zM20.976 9.758c-0.02 0.046-0.097 0.198-0.293 0.199L14.3 9.999h-2e-3c-0.081 0-0.155-0.031-0.211-0.086C14.03 9.857 13.999 9.781 14 9.7l0.042-6.382c0-0.196 0.153-0.274 0.199-0.293C14.267 3.014 14.313 3 14.366 3c0.062 0 0.137 0.02 0.205 0.088l6.341 6.341c0.127 0.127 0.086 0.273 0.064 0.329zM9.695 12.999 3.312 13.041c-0.533 3e-3-1.009 0.325-1.212 0.819-0.204 0.497-0.096 1.04 0.281 1.417l2.817 2.817-5.052 5.052c-0.195 0.195-0.195 0.512 0 0.707 0.098 0.098 0.226 0.146 0.354 0.146s0.256-0.049 0.354-0.146l5.051-5.051 2.817 2.817c0.251 0.251 0.575 0.382 0.91 0.382 0.169 0 0.34-0.033 0.506-0.102 0.495-0.203 0.816-0.679 0.82-1.211L11 14.306c2e-3-0.351-0.133-0.68-0.379-0.927-0.247-0.247-0.605-0.406-0.926-0.38zM9.959 20.681c0 0.196-0.153 0.274-0.199 0.293-0.058 0.023-0.204 0.063-0.33-0.062l-6.342-6.341c-0.127-0.127-0.086-0.273-0.063-0.33 0.02-0.046 0.097-0.198 0.293-0.199L9.701 14h2e-3c0.081 0 0.155 0.031 0.211 0.086 0.057 0.056 0.088 0.132 0.087 0.213z" />
</svg>