<svg id="compass_south_Layer_1" viewBox="0 0 24 24" fill="currentColor" width="32" height="32" data-name="Layer 1" xmlns="http://www.w3.org/2000/svg" xmlns:xlink="http://www.w3.org/1999/xlink">
    <title>compass-south</title>
    <path d="M12 0C5.383 0 0 5.383 0 12s5.383 12 12 12 12-5.383 12-12S18.617 0 12 0zM12 23C5.935 23 1 18.065 1 12S5.935 1 12 1 23 5.935 23 12 18.065 23 12 23zM16.654 7.193c-0.604-0.267-1.289-0.256-1.918 0.047-0.229 0.135-1.884 0.99-2.737 1.429-0.702-0.359-2.795-1.43-2.979-1.522-0.777-0.321-1.725-0.11-2.36 0.53-0.667 0.683-0.847 1.671-0.46 2.52 5e-3 9e-3 0.01 0.019 0.014 0.028 0.032 0.06 3.756 7.07 3.756 7.069 0.389 0.778 1.17 1.263 2.039 1.266h8e-3c0.865 0 1.646-0.479 2.031-1.237 0.125-0.226 3.074-5.556 3.757-7.136 0.246-0.556 0.262-1.174 0.045-1.738-0.218-0.565-0.642-1.01-1.196-1.256zM16.887 9.785c-0.665 1.54-3.686 6.997-3.724 7.068-0.226 0.442-0.654 0.706-1.148 0.706h-5e-3c-0.496-1e-3-0.925-0.268-1.153-0.724-3.188-6-3.675-6.919-3.753-7.066-0.208-0.467-0.103-1.013 0.267-1.391 0.34-0.341 0.871-0.471 1.23-0.324 0.187 0.095 3.171 1.622 3.171 1.622 0.143 0.073 0.312 0.073 0.456 0 0.274-0.141 2.694-1.384 2.978-1.554 0.328-0.157 0.708-0.161 1.044-0.013 0.308 0.136 0.544 0.384 0.665 0.698 0.122 0.316 0.112 0.663-0.028 0.978z" />
</svg>