<svg id="computer_mouse_Layer_1" viewBox="0 0 24 24" fill="currentColor" width="32" height="32" data-name="Layer 1" xmlns="http://www.w3.org/2000/svg" xmlns:xlink="http://www.w3.org/1999/xlink">
    <title>computer-mouse</title>
    <path d="M13.5 3h-1V0.5C12.5 0.224 12.276 0 12 0s-0.5 0.224-0.5 0.5V3h-1C6.916 3 4 5.916 4 9.5v6.186c0 4.455 3.479 8.183 7.754 8.311 0.083 2e-3 0.166 3e-3 0.249 3e-3 2.093 0 4.062-0.796 5.567-2.258C19.137 20.221 20 18.182 20 16V9.5C20 5.916 17.084 3 13.5 3zM13.5 4C16.532 4 19 6.467 19 9.5V11h-6.5V4zM10.5 4h1v7H5V9.5C5 6.467 7.467 4 10.5 4zM16.874 21.024c-1.369 1.33-3.186 2.047-5.089 1.973C8.044 22.885 5 19.605 5 15.686V12h14v4c0 1.91-0.755 3.694-2.126 5.024z" />
</svg>