<svg id="confidential_discussion_Layer_1" viewBox="0 0 24 24" fill="currentColor" width="32" height="32" data-name="Layer 1" xmlns="http://www.w3.org/2000/svg" xmlns:xlink="http://www.w3.org/1999/xlink">
    <title>confidential-discussion</title>
    <path d="M19.5 4h-0.537c-0.18-1.634-1.224-3.044-2.775-3.672-0.256-0.104-0.547 0.02-0.651 0.276s0.02 0.547 0.276 0.651c1.329 0.538 2.188 1.812 2.188 3.246V12.5c0 1.93-1.57 3.5-3.5 3.5H6.5c-0.105-4e-3-0.189 0.05-0.277 0.084l-4.215 2.81c-0.408 0.295-1.025-0.037-1.007-0.539V4.5c0-1.93 1.57-3.5 3.5-3.5h2c0.276 0 0.5-0.224 0.5-0.5S6.777 0 6.501 0h-2C2.019 0 0 2.019 0 4.5v13.855c-0.041 1.276 1.522 2.113 2.562 1.371l3.526-2.351C6.497 19.438 8.318 21 10.5 21h6.849l4.089 2.726c1.039 0.742 2.603-0.096 2.562-1.371V8.5C24 6.019 21.981 4 19.5 4zM23 22.355c0 0.243-0.128 0.457-0.342 0.571-0.215 0.114-0.463 0.102-0.665-0.032l-4.215-2.81C17.696 20.029 17.599 20 17.501 20h-7c-1.758 0-3.204-1.308-3.449-3h7.449c2.481 0 4.5-2.019 4.5-4.5V5h0.5c1.93 0 3.5 1.57 3.5 3.5zM7 6.5v3C7 10.878 8.122 12 9.5 12h4c1.378 0 2.5-1.122 2.5-2.5v-3c0-1.207-0.86-2.217-2-2.449V2.5C14 1.122 12.878 0 11.5 0S9 1.122 9 2.5v1.551C7.86 4.283 7 5.293 7 6.5zM11.5 1C12.327 1 13 1.673 13 2.5V4h-3V2.5C10 1.673 10.673 1 11.5 1zM8 6.5C8 5.673 8.673 5 9.5 5h4C14.327 5 15 5.673 15 6.5v3c0 0.827-0.673 1.5-1.5 1.5h-4C8.673 11 8 10.327 8 9.5zM10.5 8c0-0.552 0.448-1 1-1s1 0.448 1 1-0.448 1-1 1-1-0.448-1-1z" />
</svg>