<svg id="confidential_folder_Layer_1" viewBox="0 0 24 24" fill="currentColor" width="32" height="32" data-name="Layer 1" xmlns="http://www.w3.org/2000/svg" xmlns:xlink="http://www.w3.org/1999/xlink">
    <title>confidential-folder</title>
    <path d="M11.5 23h-7C2.57 23 1 21.43 1 19.5v-9C1 8.57 2.57 7 4.5 7h1.556c0.541 0 1.082 0.128 1.565 0.37l2.311 1.155C10.554 8.836 11.25 9 11.945 9h3.556c0.276 0 0.5-0.224 0.5-0.5S15.777 8 15.501 8h-3.556c-0.541 0-1.082-0.128-1.565-0.37L8.069 6.475C7.447 6.164 6.751 6 6.056 6H5V3.5C5 2.122 6.122 1 7.5 1h5.353c0.05 0 0.098 0.012 0.147 0.015V3.5C13 4.327 13.673 5 14.5 5h2.48C16.986 5.07 17 5.139 17 5.21V7.5C17 7.776 17.224 8 17.5 8S18 7.776 18 7.5V5.21c0-0.911-0.348-1.773-0.979-2.428l-1.647-1.71C14.718 0.391 13.799 0 12.853 0H7.5C5.57 0 4 1.57 4 3.5v2.551C1.756 6.303 0 8.19 0 10.5v9C0 21.981 2.019 24 4.5 24h7c0.276 0 0.5-0.224 0.5-0.5S11.776 23 11.5 23zM16.301 3.475C16.453 3.633 16.573 3.813 16.677 4H14.5C14.224 4 14 3.776 14 3.5V1.293c0.239 0.124 0.464 0.276 0.653 0.472zM22 15.351V13.5c0-1.93-1.57-3.5-3.5-3.5S15 11.57 15 13.5v1.851c-1.178 0.564-2 1.758-2 3.149v2c0 1.93 1.57 3.5 3.5 3.5h4c1.93 0 3.5-1.57 3.5-3.5v-2c0-1.391-0.822-2.585-2-3.149zM16 13.5c0-1.378 1.122-2.5 2.5-2.5s2.5 1.122 2.5 2.5v1.551C20.835 15.027 20.671 15 20.5 15h-4c-0.171 0-0.335 0.027-0.5 0.051zM23 20.5c0 1.378-1.122 2.5-2.5 2.5h-4c-1.378 0-2.5-1.122-2.5-2.5v-2c0-1.378 1.122-2.5 2.5-2.5h4c1.378 0 2.5 1.122 2.5 2.5zM19.5 19.5c0 0.552-0.448 1-1 1s-1-0.448-1-1 0.448-1 1-1 1 0.448 1 1z" />
</svg>