<svg id="construction_location_Layer_1" viewBox="0 0 24 24" fill="currentColor" width="32" height="32" data-name="Layer 1" xmlns="http://www.w3.org/2000/svg" xmlns:xlink="http://www.w3.org/1999/xlink">
    <title>construction-location</title>
    <path d="M13.5 23h-9C2.57 23 1 21.43 1 19.5V4h4v2.5C5 7.327 5.673 8 6.5 8H15v2c0 0.276 0.224 0.5 0.5 0.5S16 10.276 16 10V0.5C16 0.224 15.776 0 15.5 0S15 0.224 15 0.5V3h-4V0.5C11 0.224 10.776 0 10.5 0S10 0.224 10 0.5V3H6V0.5C6 0.224 5.776 0 5.5 0S5 0.224 5 0.5V3H1V0.5C1 0.224 0.776 0 0.5 0S0 0.224 0 0.5v19C0 21.981 2.019 24 4.5 24h9c0.276 0 0.5-0.224 0.5-0.5S13.776 23 13.5 23zM15 4v3h-4V4zM10 4v3H6.5C6.225 7 6 6.776 6 6.5V4zM7 15.5C7 15.776 6.776 16 6.5 16h-2C4.224 16 4 15.776 4 15.5S4.224 15 4.5 15h2C6.776 15 7 15.224 7 15.5zM12 15.5c0 0.276-0.224 0.5-0.5 0.5h-2C9.224 16 9 15.776 9 15.5S9.224 15 9.5 15h2c0.276 0 0.5 0.224 0.5 0.5zM7 19.5C7 19.776 6.776 20 6.5 20h-2C4.224 20 4 19.776 4 19.5S4.224 19 4.5 19h2C6.776 19 7 19.224 7 19.5zM12 19.5c0 0.276-0.224 0.5-0.5 0.5h-2C9.224 20 9 19.776 9 19.5S9.224 19 9.5 19h2c0.276 0 0.5 0.224 0.5 0.5zM7 11.5C7 11.776 6.776 12 6.5 12h-2C4.224 12 4 11.776 4 11.5S4.224 11 4.5 11h2C6.776 11 7 11.224 7 11.5zM12 11.5c0 0.276-0.224 0.5-0.5 0.5h-2C9.224 12 9 11.776 9 11.5S9.224 11 9.5 11h2c0.276 0 0.5 0.224 0.5 0.5zM18.5 15.5c-1.103 0-2 0.897-2 2s0.897 2 2 2 2-0.897 2-2-0.897-2-2-2zM18.5 18.5c-0.552 0-1-0.449-1-1s0.448-1 1-1 1 0.449 1 1-0.448 1-1 1zM22.388 13.604C21.35 12.57 19.97 12 18.5 12s-2.85 0.569-3.889 1.604S13 16.015 13 17.479s0.572 2.839 1.625 3.888l1.973 1.813c0.511 0.498 1.187 0.772 1.902 0.772s1.392-0.274 1.893-0.762l1.995-1.837C23.428 20.318 24 18.942 24 17.478s-0.572-2.84-1.612-3.874zM21.697 20.631l-1.991 1.833c-0.646 0.631-1.754 0.641-2.42-0.01l-1.969-1.81c-0.849-0.846-1.316-1.97-1.316-3.166s0.468-2.32 1.316-3.166C16.168 13.466 17.297 13 18.501 13s2.333 0.466 3.183 1.312 1.317 1.971 1.317 3.167-0.468 2.32-1.304 3.152z" />
</svg>