<svg id="consultant_Layer_1" viewBox="0 0 24 24" fill="currentColor" width="32" height="32" data-name="Layer 1" xmlns="http://www.w3.org/2000/svg" xmlns:xlink="http://www.w3.org/1999/xlink">
    <title>consultant</title>
    <path d="M12.617 13c1.912 0 3.628 1.064 4.48 2.777 0.123 0.247 0.022 0.548-0.225 0.67-0.242 0.123-0.547 0.025-0.67-0.225-0.681-1.371-2.055-2.223-3.584-2.223s-2.903 0.852-3.584 2.223c-0.123 0.247-0.421 0.351-0.67 0.225-0.247-0.122-0.348-0.423-0.225-0.67C8.991 14.064 10.707 13 12.617 13zM3.617 8c-1.657 0-3-1.343-3-3V3.001C0.617 1.344 1.96 0 3.617 0h3c1.657 1e-3 3 1.345 2.999 3.002l-2e-3 5.771c0 0.638-0.524 1.088-1.089 1.088-0.196 0-0.397-0.054-0.583-0.173l-2.454-1.69zM3.617 7h1.872c0.203 0 0.4 0.061 0.567 0.176L8.47 8.838c0.071 0.048 0.145 0.019 0.145-0.064l2e-3-5.771c0-0.534-0.208-1.036-0.585-1.414-0.378-0.378-0.88-0.586-1.414-0.586h-3c-1.103 0-2.001 0.896-2.001 1.999v1.999c0 1.103 0.897 2 2 1.999zM22.116 14.506l-0.748-0.424c0.166-0.692 0.25-1.391 0.25-2.082s-0.084-1.39-0.25-2.082l0.748-0.423c1.183-0.638 1.63-2.252 0.944-3.407-0.637-1.183-2.252-1.633-3.407-0.944l-0.751 0.425c-1.063-1.04-2.358-1.795-3.784-2.207V2.501c0-1.379-1.122-2.5-2.5-2.5-0.61 0-1.197 0.222-1.653 0.625-0.207 0.184-0.227 0.499-0.043 0.706 0.184 0.208 0.5 0.228 0.706 0.044 0.273-0.242 0.625-0.375 0.991-0.375 0.827 0 1.5 0.673 1.5 1.5v1.246c0 0.23 0.158 0.432 0.382 0.486 1.514 0.366 2.879 1.162 3.949 2.303 0.158 0.168 0.411 0.206 0.611 0.093l1.085-0.614c0.692-0.413 1.662-0.143 2.044 0.566 0.412 0.694 0.144 1.661-0.566 2.045l-1.083 0.613c-0.201 0.113-0.297 0.35-0.234 0.571 0.207 0.728 0.312 1.464 0.312 2.19s-0.105 1.463-0.312 2.19c-0.063 0.222 0.034 0.458 0.234 0.571l1.083 0.614c0.71 0.383 0.978 1.35 0.566 2.044-0.383 0.71-1.35 0.977-2.044 0.565l-1.085-0.614c-0.199-0.11-0.452-0.074-0.611 0.094-1.07 1.141-2.435 1.937-3.949 2.303-0.224 0.055-0.382 0.256-0.382 0.486v1.246c0 0.827-0.673 1.5-1.5 1.5s-1.5-0.673-1.5-1.5v-1.246c0-0.23-0.158-0.432-0.382-0.486-1.514-0.366-2.879-1.162-3.949-2.303-0.158-0.169-0.412-0.206-0.611-0.094l-1.086 0.615c-0.695 0.41-1.661 0.144-2.044-0.566-0.412-0.694-0.144-1.661 0.566-2.045l1.083-0.613c0.201-0.113 0.297-0.35 0.234-0.571-0.207-0.728-0.312-1.464-0.312-2.19 0-0.484 0.045-0.929 0.142-1.399 0.056-0.271-0.119-0.535-0.389-0.591-0.272-0.057-0.535 0.12-0.59 0.39-0.111 0.539-0.162 1.047-0.162 1.601 0 0.691 0.084 1.39 0.25 2.082l-0.748 0.423c-1.183 0.638-1.63 2.252-0.944 3.407 0.636 1.185 2.253 1.63 3.407 0.944l0.751-0.426c1.064 1.041 2.359 1.796 3.784 2.208V21.5c0 1.379 1.122 2.5 2.5 2.5s2.5-1.121 2.5-2.5v-0.861c1.425-0.412 2.72-1.167 3.784-2.208l0.75 0.425c1.155 0.688 2.77 0.241 3.407-0.943 0.686-1.155 0.239-2.77-0.944-3.407zM12.617 12c1.654 0 3-1.346 3-3s-1.346-3-3-3c-0.205 0-0.405 0.021-0.598 0.06-0.271 0.054-0.447 0.317-0.393 0.588s0.32 0.448 0.588 0.393c0.13-0.025 0.265-0.04 0.402-0.04 1.103 0 2 0.897 2 2s-0.897 2-2 2c-0.437 0-0.852-0.138-1.199-0.399-0.222-0.167-0.535-0.122-0.7 0.099-0.166 0.221-0.122 0.534 0.099 0.7 0.522 0.393 1.145 0.601 1.801 0.599z" />
</svg>