<svg id="console_controller_Layer_1" viewBox="0 0 24 24" fill="currentColor" width="32" height="32" data-name="Layer 1" xmlns="http://www.w3.org/2000/svg" xmlns:xlink="http://www.w3.org/1999/xlink">
    <title>console-controller</title>
    <path d="M21.893 6.817C21.32 4.972 19.829 3.632 18 3.18V3c0-0.551-0.449-1-1-1s-1 0.449-1 1H8c0-0.551-0.449-1-1-1S6 2.449 6 3v0.18C4.171 3.632 2.68 4.972 2.107 6.817 0.357 12.451 0 18.057 0 19.25 0 20.767 1.233 22 2.75 22c2.467 0 5.013-5.077 5.786-7.033C8.768 14.38 9.318 14 9.937 14h4.126c0.619 0 1.169 0.38 1.401 0.967C16.237 16.923 18.783 22 21.25 22 22.767 22 24 20.767 24 19.25c0-1.193-0.357-6.799-2.107-12.433zM21.25 21c-1.392 0-3.635-3.31-4.856-6.4-0.384-0.972-1.298-1.6-2.331-1.6H9.937c-1.032 0-1.947 0.628-2.331 1.6C6.384 17.691 4.142 21 2.75 21 1.785 21 1 20.215 1 19.25c0-1.161 0.35-6.623 2.062-12.136C3.631 5.281 5.393 4 7.347 4h9.307c1.954 0 3.715 1.28 4.285 3.114 1.712 5.513 2.062 10.975 2.062 12.136 0 0.965-0.785 1.75-1.751 1.75zM7 7C5.897 7 5 7.897 5 9s0.897 2 2 2 2-0.897 2-2-0.897-2-2-2zM7 10c-0.551 0-1-0.449-1-1s0.449-1 1-1 1 0.449 1 1-0.449 1-1 1zM17 7c-1.103 0-2 0.897-2 2s0.897 2 2 2 2-0.897 2-2-0.897-2-2-2zM17 10c-0.551 0-1-0.449-1-1s0.449-1 1-1 1 0.449 1 1-0.449 1-1 1z" />
</svg>