<svg id="constellation_Layer_1" viewBox="0 0 24 24" fill="currentColor" width="32" height="32" data-name="Layer 1" xmlns="http://www.w3.org/2000/svg" xmlns:xlink="http://www.w3.org/1999/xlink">
    <title>constellation</title>
    <path d="M21.5 19c-0.578 0-1.111 0.198-1.535 0.529l-6.317-5.751C13.872 13.404 14 12.967 14 12.5c0-1.035-0.632-1.924-1.53-2.304L13.509 5c1.203-5e-3 2.209-0.863 2.44-2h3.1c0.232 1.14 1.242 2 2.45 2 1.379 0 2.5-1.121 2.5-2.5S22.878 0 21.499 0c-1.208 0-2.218 0.86-2.45 2h-3.1c-0.232-1.14-1.242-2-2.45-2-1.378 0-2.5 1.121-2.5 2.5 0 1.035 0.631 1.924 1.529 2.304L11.489 10c-1.203 5e-3-2.208 0.863-2.44 2H4.948c-0.232-1.14-1.242-2-2.45-2-1.378 0-2.5 1.121-2.5 2.5S1.12 15 2.498 15c1.207 0 2.217-0.86 2.45-2h4.101c0.232 1.14 1.242 2 2.45 2 0.551 0 1.06-0.179 1.474-0.482l6.34 5.771c-0.199 0.359-0.314 0.772-0.314 1.211 0 1.379 1.121 2.5 2.5 2.5s2.5-1.121 2.5-2.5S22.878 19 21.5 19zM21.5 1C22.327 1 23 1.673 23 2.5S22.327 4 21.5 4 20 3.327 20 2.5 20.673 1 21.5 1zM12 2.5C12 1.673 12.673 1 13.5 1S15 1.673 15 2.5 14.327 4 13.5 4 12 3.327 12 2.5zM2.5 14C1.673 14 1 13.327 1 12.5S1.673 11 2.5 11 4 11.673 4 12.5 3.327 14 2.5 14zM10 12.5c0-0.827 0.673-1.5 1.5-1.5s1.5 0.673 1.5 1.5-0.673 1.5-1.5 1.5-1.5-0.673-1.5-1.5zM21.5 23c-0.827 0-1.5-0.673-1.5-1.5 0-0.307 0.093-0.593 0.252-0.83 0.043-0.025 0.083-0.057 0.119-0.095 0.044-0.049 0.077-0.104 0.098-0.162C20.738 20.158 21.101 20 21.501 20c0.827 0 1.5 0.673 1.5 1.5S22.328 23 21.5 23zM5 21c0 0.552-0.448 1-1 1s-1-0.448-1-1 0.448-1 1-1 1 0.448 1 1zM24 12c0 0.552-0.448 1-1 1s-1-0.448-1-1 0.448-1 1-1 1 0.448 1 1zM12 23c0 0.552-0.448 1-1 1s-1-0.448-1-1 0.448-1 1-1 1 0.448 1 1zM0 1c0-0.552 0.448-1 1-1s1 0.448 1 1-0.448 1-1 1-1-0.448-1-1zM4 5c0-0.552 0.448-1 1-1s1 0.448 1 1-0.448 1-1 1-1-0.448-1-1z" />
</svg>