<svg id="contrast_Layer_1" viewBox="0 0 24 24" fill="currentColor" width="32" height="32" data-name="Layer 1" xmlns="http://www.w3.org/2000/svg" xmlns:xlink="http://www.w3.org/1999/xlink">
    <title>contrast</title>
    <path d="M12.5 21.5v2c0 0.276-0.224 0.5-0.5 0.5s-0.5-0.224-0.5-0.5v-2c0-0.276 0.224-0.5 0.5-0.5s0.5 0.224 0.5 0.5zM12 3c0.276 0 0.5-0.224 0.5-0.5v-2C12.5 0.224 12.276 0 12 0s-0.5 0.224-0.5 0.5v2C11.5 2.776 11.724 3 12 3zM23.5 11.5h-2c-0.276 0-0.5 0.224-0.5 0.5s0.224 0.5 0.5 0.5h2c0.276 0 0.5-0.224 0.5-0.5s-0.224-0.5-0.5-0.5zM2.5 11.5h-2C0.224 11.5 0 11.724 0 12s0.224 0.5 0.5 0.5h2C2.776 12.5 3 12.276 3 12s-0.224-0.5-0.5-0.5zM4.929 18.364 3.514 19.778c-0.195 0.195-0.195 0.512 0 0.707s0.512 0.195 0.707 0l1.415-1.414c0.195-0.195 0.195-0.512 0-0.707s-0.512-0.195-0.707 0zM19.778 3.515 18.364 4.93c-0.195 0.195-0.195 0.512 0 0.707s0.512 0.195 0.707 0l1.414-1.415c0.195-0.195 0.195-0.512 0-0.707s-0.512-0.195-0.707 0zM19.071 18.365c-0.195-0.195-0.512-0.195-0.707 0s-0.195 0.512 0 0.707l1.414 1.414c0.195 0.195 0.512 0.195 0.707 0s0.195-0.512 0-0.707zM4.929 5.636c0.195 0.195 0.512 0.195 0.707 0s0.195-0.512 0-0.707L4.221 3.514c-0.195-0.195-0.512-0.195-0.707 0s-0.195 0.512 0 0.707zM19 12c0 3.859-3.141 7-7 7s-7-3.141-7-7 3.14-7 7-7 7 3.14 7 7zM18 12c0-3.309-2.691-6-6-6v12c3.309 0 6-2.691 6-6z" />
</svg>