<svg id="contract_Layer_1" viewBox="0 0 24 24" fill="currentColor" width="32" height="32" data-name="Layer 1" xmlns="http://www.w3.org/2000/svg" xmlns:xlink="http://www.w3.org/1999/xlink">
    <title>contract</title>
    <path d="M2.501 3.984c0.266 0.069 0.54-0.092 0.609-0.36 0.397-1.545 1.792-2.625 3.39-2.625h5.515c0.335 0 0.663 0.038 0.985 0.096v5.404c0 1.378 1.121 2.5 2.5 2.5h5.465C20.983 9.163 21 9.328 21 9.499c0 0.276 0.224 0.5 0.5 0.5s0.5-0.224 0.5-0.5c0-1.093-0.308-2.104-0.891-2.925-0.28-0.396-0.622-0.795-1.014-1.186l-3.484-3.485C15.382 0.675 13.75-1e-3 12.014-1e-3H6.499c-2.055 0-3.847 1.388-4.358 3.375-0.069 0.268 0.092 0.54 0.36 0.61zM14 1.38c0.704 0.273 1.354 0.682 1.904 1.231l3.484 3.486c0.353 0.352 0.657 0.708 0.906 1.058 0.182 0.257 0.32 0.544 0.433 0.846H15.5c-0.827 0-1.5-0.673-1.5-1.5zM16.5 12c0.276 0 0.5 0.224 0.5 0.5S16.776 13 16.5 13h-5c-0.276 0-0.5-0.224-0.5-0.5s0.224-0.5 0.5-0.5zM23.268 12.732c-0.975-0.975-2.561-0.975-3.535 0l-6.707 6.707c-0.661 0.661-1.025 1.54-1.025 2.475V23.5c0 0.276 0.224 0.5 0.5 0.5h1.586c0.936 0 1.814-0.364 2.475-1.025l6.707-6.707c0.97-0.929 0.97-2.606-1e-3-3.536zM22.561 15.561l-6.707 6.707C15.382 22.74 14.754 23 14.086 23H13v-1.086c0-0.668 0.26-1.295 0.732-1.768l6.707-6.707c0.584-0.585 1.537-0.585 2.121 0 0.582 0.558 0.582 1.563 1e-3 2.122zM4.691 16.932C7.503 15.774 8.952 13.984 9 11.6V8.466C9 7.867 8.618 7.339 8.049 7.15L4.657 6.025c-0.102-0.034-0.213-0.034-0.314 0L0.951 7.15C0.382 7.338 0 7.867 0 8.466v3.145c0.046 2.096 1.484 3.88 4.274 5.304 0.13 0.067 0.283 0.072 0.417 0.017zM1 11.6V8.466c0-0.167 0.107-0.314 0.266-0.367L4.5 7.027 7.734 8.099C7.893 8.152 8 8.299 8 8.466v3.124c-0.038 1.908-1.176 3.326-3.477 4.327C2.221 14.695 1.036 13.24 1 11.6zM13.5 16h-3c-0.276 0-0.5-0.224-0.5-0.5s0.224-0.5 0.5-0.5h3c0.276 0 0.5 0.224 0.5 0.5S13.776 16 13.5 16zM10 23.5c0 0.276-0.224 0.5-0.5 0.5h-3C4.019 24 2 21.981 2 19.5v-1C2 18.224 2.224 18 2.5 18S3 18.224 3 18.5v1C3 21.43 4.57 23 6.5 23h3c0.276 0 0.5 0.224 0.5 0.5z" />
</svg>