<svg id="container_storage_Layer_1" viewBox="0 0 24 24" fill="currentColor" width="32" height="32" data-name="Layer 1" xmlns="http://www.w3.org/2000/svg" xmlns:xlink="http://www.w3.org/1999/xlink">
    <title>container-storage</title>
    <path d="M23.5 20H23V4h0.5C23.776 4 24 3.776 24 3.5S23.776 3 23.5 3H0c-0.276 0-0.5 0.224-0.5 0.5S-0.276 4 0 4h1v16H0c-0.276 0-0.5 0.224-0.5 0.5S-0.276 21 0 21h23.5c0.276 0 0.5-0.224 0.5-0.5S23.776 20 23.5 20zM2 4h20v16H2zM14 6.5v11c0 0.276-0.224 0.5-0.5 0.5S13 17.776 13 17.5v-11C13 6.224 13.224 6 13.5 6S14 6.224 14 6.5zM17 6.5v11c0 0.276-0.224 0.5-0.5 0.5S16 17.776 16 17.5v-11C16 6.224 16.224 6 16.5 6S17 6.224 17 6.5zM20 6.5v11c0 0.276-0.224 0.5-0.5 0.5S19 17.776 19 17.5v-11C19 6.224 19.224 6 19.5 6S20 6.224 20 6.5zM11 6.5v11c0 0.276-0.224 0.5-0.5 0.5S10 17.776 10 17.5v-11C10 6.224 10.224 6 10.5 6S11 6.224 11 6.5zM8 6.5v11C8 17.776 7.776 18 7.5 18S7 17.776 7 17.5v-11C7 6.224 7.224 6 7.5 6S8 6.224 8 6.5zM5 6.5v11C5 17.776 4.776 18 4.5 18S4 17.776 4 17.5v-11C4 6.224 4.224 6 4.5 6S5 6.224 5 6.5z" />
</svg>