<svg id="conveyor_belt_Layer_1" viewBox="0 0 24 24" fill="currentColor" width="32" height="32" data-name="Layer 1" xmlns="http://www.w3.org/2000/svg" xmlns:xlink="http://www.w3.org/1999/xlink">
    <title>conveyor-belt</title>
    <path d="M20 16H4c-2.206 0-4 1.794-4 4s1.794 4 4 4h16c2.206 0 4-1.794 4-4s-1.794-4-4-4zM20 23H4c-1.654 0-3-1.346-3-3s1.346-3 3-3h16c1.654 0 3 1.346 3 3s-1.346 3-3 3zM7.5 14h9c1.93 0 3.5-1.57 3.5-3.5v-7C20 1.57 18.43 0 16.5 0h-9C5.57 0 4 1.57 4 3.5v7C4 12.43 5.57 14 7.5 14zM11 1h2v3.5C13 4.776 12.775 5 12.5 5h-1C11.225 5 11 4.776 11 4.5zM5 3.5C5 2.122 6.121 1 7.5 1H10v3.5C10 5.327 10.673 6 11.5 6h1C13.327 6 14 5.327 14 4.5V1h2.5C17.879 1 19 2.122 19 3.5v7c0 1.378-1.121 2.5-2.5 2.5h-9C6.121 13 5 11.878 5 10.5zM5 20c0 0.552-0.448 1-1 1s-1-0.448-1-1 0.448-1 1-1 1 0.448 1 1zM21 20c0 0.552-0.448 1-1 1s-1-0.448-1-1 0.448-1 1-1 1 0.448 1 1zM10 20c0 0.552-0.448 1-1 1s-1-0.448-1-1 0.448-1 1-1 1 0.448 1 1zM16 20c0 0.552-0.448 1-1 1s-1-0.448-1-1 0.448-1 1-1 1 0.448 1 1z" />
</svg>