<svg id="conveyor_belt_alt_Layer_1" viewBox="0 0 24 24" fill="currentColor" width="32" height="32" data-name="Layer 1" xmlns="http://www.w3.org/2000/svg" xmlns:xlink="http://www.w3.org/1999/xlink">
    <title>conveyor-belt-alt</title>
    <path d="M4 14h6c1.654 0 3-1.346 3-3V5c0-1.654-1.346-3-3-3H4C2.346 2 1 3.346 1 5v6c0 1.654 1.346 3 3 3zM2 5c0-1.103 0.897-2 2-2h6c1.103 0 2 0.897 2 2v6c0 1.103-0.897 2-2 2H4c-1.103 0-2-0.897-2-2zM17.5 14h3c1.379 0 2.5-1.122 2.5-2.5v-3C23 7.122 21.879 6 20.5 6h-3C16.121 6 15 7.122 15 8.5v3c0 1.378 1.121 2.5 2.5 2.5zM16 8.5C16 7.673 16.673 7 17.5 7h3C21.327 7 22 7.673 22 8.5v3c0 0.827-0.673 1.5-1.5 1.5h-3c-0.827 0-1.5-0.673-1.5-1.5zM20 16H4c-2.206 0-4 1.794-4 4s1.794 4 4 4h16c2.206 0 4-1.794 4-4s-1.794-4-4-4zM20 23H4c-1.654 0-3-1.346-3-3s1.346-3 3-3h16c1.654 0 3 1.346 3 3s-1.346 3-3 3zM5 20c0 0.552-0.448 1-1 1s-1-0.448-1-1 0.448-1 1-1 1 0.448 1 1zM21 20c0 0.552-0.448 1-1 1s-1-0.448-1-1 0.448-1 1-1 1 0.448 1 1zM10 20c0 0.552-0.448 1-1 1s-1-0.448-1-1 0.448-1 1-1 1 0.448 1 1zM16 20c0 0.552-0.448 1-1 1s-1-0.448-1-1 0.448-1 1-1 1 0.448 1 1z" />
</svg>