<svg id="cookie_lock_Layer_1" viewBox="0 0 24 24" fill="currentColor" width="32" height="32" data-name="Layer 1" xmlns="http://www.w3.org/2000/svg" xmlns:xlink="http://www.w3.org/1999/xlink">
    <title>cookie-lock</title>
    <path d="M10 10c0 0.552-0.448 1-1 1s-1-0.448-1-1 0.448-1 1-1 1 0.448 1 1zM18 2c0.552 0 1-0.448 1-1s-0.448-1-1-1-1 0.448-1 1 0.448 1 1 1zM21 7c0.552 0 1-0.448 1-1s-0.448-1-1-1-1 0.448-1 1 0.448 1 1 1zM9 13c-0.552 0-1 0.448-1 1s0.448 1 1 1 1-0.448 1-1-0.448-1-1-1zM24 18.5v2c0 1.93-1.57 3.5-3.5 3.5h-4c-1.93 0-3.5-1.57-3.5-3.5v-2c0-1.391 0.822-2.585 2-3.149V13.5c0-1.93 1.57-3.5 3.5-3.5s3.5 1.57 3.5 3.5v1.851c1.178 0.564 2 1.758 2 3.149zM16 15.051C16.165 15.027 16.329 15 16.5 15h4c0.171 0 0.335 0.027 0.5 0.051V13.5c0-1.378-1.122-2.5-2.5-2.5S16 12.122 16 13.5zM23 18.5c0-1.379-1.122-2.5-2.5-2.5h-4c-1.378 0-2.5 1.121-2.5 2.5v2c0 1.379 1.122 2.5 2.5 2.5h4c1.378 0 2.5-1.121 2.5-2.5zM18.5 18.5c-0.552 0-1 0.448-1 1s0.448 1 1 1 1-0.448 1-1-0.448-1-1-1zM13.212 2.38c0.641 2.353 1.97 4.433 3.844 6.015 0.212 0.179 0.527 0.15 0.705-0.059 0.178-0.211 0.152-0.527-0.059-0.705-1.719-1.451-2.938-3.358-3.525-5.514-0.361-1.324-1.545-2.187-2.881-2.112-3.29 0.197-6.285 1.689-8.434 4.203-3.68 4.305-3.782 10.871-0.238 15.272 2.177 2.703 5.4 4.346 8.843 4.506h0.024c0.265 0 0.486-0.209 0.499-0.477 0.013-0.276-0.2-0.51-0.476-0.522-3.157-0.147-6.113-1.654-8.111-4.135C0.155 14.82 0.25 8.804 3.622 4.858c1.971-2.305 4.717-3.674 7.734-3.854 0.85-0.046 1.621 0.515 1.856 1.376z" />
</svg>