<svg id="copy_alt_Layer_1" viewBox="0 0 24 24" fill="currentColor" width="32" height="32" data-name="Layer 1" xmlns="http://www.w3.org/2000/svg" xmlns:xlink="http://www.w3.org/1999/xlink">
    <title>copy-alt</title>
    <path d="M14.5 21c2.481 0 4.5-2.019 4.5-4.5V7.157c0-1.202-0.468-2.332-1.318-3.182l-2.657-2.657C14.175 0.468 13.046 0 11.843 0H6.5C4.019 0 2 2.019 2 4.5v12C2 18.981 4.019 21 6.5 21zM16.975 4.682C17.352 5.059 17.62 5.511 17.791 6H14c-0.551 0-1-0.449-1-1V1.209c0.489 0.171 0.941 0.439 1.318 0.816zM3 16.5v-12C3 2.57 4.57 1 6.5 1h5.343C11.896 1 11.947 1.013 12 1.015V5c0 1.103 0.897 2 2 2h3.985C17.987 7.053 18 7.104 18 7.157V16.5c0 1.93-1.57 3.5-3.5 3.5h-8C4.57 20 3 18.43 3 16.5zM22 8.5v11c0 2.481-2.019 4.5-4.5 4.5h-12C5.224 24 5 23.776 5 23.5S5.224 23 5.5 23h12c1.93 0 3.5-1.57 3.5-3.5v-11C21 8.224 21.224 8 21.5 8S22 8.224 22 8.5z" />
</svg>