<svg id="copy_Layer_1" viewBox="0 0 24 24" fill="currentColor" width="32" height="32" data-name="Layer 1" xmlns="http://www.w3.org/2000/svg" xmlns:xlink="http://www.w3.org/1999/xlink">
    <title>copy</title>
    <path d="M16.5 21c2.481 0 4.5-2.019 4.5-4.5v-12C21 2.019 18.981 0 16.5 0h-12C2.019 0 0 2.019 0 4.5v12C0 18.981 2.019 21 4.5 21zM1 16.5v-12C1 2.57 2.57 1 4.5 1h12C18.43 1 20 2.57 20 4.5v12c0 1.93-1.57 3.5-3.5 3.5h-12C2.57 20 1 18.43 1 16.5zM24 4.5v15c0 2.481-2.019 4.5-4.5 4.5h-15C4.224 24 4 23.776 4 23.5S4.224 23 4.5 23h15c1.93 0 3.5-1.57 3.5-3.5v-15C23 4.224 23.224 4 23.5 4S24 4.224 24 4.5z" />
</svg>