<svg id="coriander_Layer_1" viewBox="0 0 24 24" fill="currentColor" width="32" height="32" data-name="Layer 1" xmlns="http://www.w3.org/2000/svg" xmlns:xlink="http://www.w3.org/1999/xlink">
    <title>coriander</title>
    <path d="M23.942 13.799c-0.081-0.924-0.81-1.653-1.733-1.734-0.678-0.06-1.381-0.073-2.095-0.044-0.196 9e-3-0.37 0.131-0.443 0.313-0.413 1.025-0.737 1.743-0.898 2.101l-0.605-1.785c-0.081-0.238-0.324-0.382-0.571-0.33-0.312 0.062-0.626 0.132-0.938 0.212-1.101 0.281-1.803 1.358-1.632 2.507 0.115 0.779 0.251 1.894 0.241 2.783-0.012 1.064-0.179 1.993-0.482 2.687 0 0-2.261 2.257-2.285 2.276v-9.161c0.432-1.044 1.239-1.998 1.848-2.62 0.605-0.618 1.524-1.388 2.656-2.224 1.007-0.744 1.302-2.104 0.686-3.162-0.284-0.49-0.604-0.985-0.948-1.473-0.139-0.194-0.393-0.266-0.61-0.168l-2.05 0.908c0.132-0.424 0.407-1.145 0.972-2.363 0.087-0.186 0.051-0.406-0.091-0.555-0.501-0.526-1.02-1.016-1.54-1.452C13.01 0.169 12.505 0 12 0s-1.01 0.169-1.422 0.516c-0.526 0.44-1.044 0.93-1.541 1.452-0.142 0.149-0.178 0.369-0.091 0.555 0.566 1.221 0.841 1.94 0.973 2.363l-2.05-0.908C7.652 3.88 7.396 3.952 7.258 4.146 6.93 4.61 6.628 5.078 6.358 5.537 5.71 6.64 5.984 8.034 6.996 8.781c1.131 0.836 2.049 1.604 2.655 2.224 0.61 0.624 1.418 1.578 1.849 2.624v9.157c-0.024-0.019-2.286-2.277-2.286-2.277-0.303-0.694-0.469-1.622-0.481-2.685-0.01-0.89 0.126-2.004 0.242-2.783 0.17-1.148-0.531-2.226-1.632-2.507-0.313-0.08-0.626-0.149-0.939-0.212-0.24-0.048-0.49 0.093-0.571 0.329l-0.587 1.731c-0.225-0.406-0.533-1.093-0.917-2.046-0.073-0.183-0.247-0.305-0.443-0.313-0.715-0.029-1.418-0.015-2.095 0.044-0.924 0.081-1.652 0.811-1.733 1.735-0.061 0.703-0.074 1.438-0.038 2.184 0.01 0.195 0.132 0.366 0.313 0.439 0 0 1.746 0.699 2.129 0.867L0.665 17.87c-0.243 0.077-0.388 0.325-0.337 0.575 0.059 0.291 0.126 0.582 0.202 0.872 0.283 1.093 1.359 1.787 2.498 1.621 1.133-0.167 2.115-0.239 2.82-0.243 0.999 0.011 1.879 0.156 2.56 0.42l2.317 2.317c0.342 0.356 0.809 0.569 1.276 0.569s0.934-0.214 1.276-0.569l2.317-2.317c0.681-0.264 1.561-0.409 2.56-0.42 0.882 0 2.029 0.127 2.819 0.242 1.137 0.174 2.215-0.527 2.499-1.619 0.075-0.291 0.142-0.582 0.201-0.873 0.051-0.249-0.095-0.498-0.337-0.575l-1.74-0.56c0.434-0.229 2.071-0.886 2.071-0.886 0.182-0.073 0.304-0.245 0.312-0.44 0.036-0.752 0.023-1.487-0.037-2.185zM7.985 14.892c-0.121 0.814-0.263 1.985-0.252 2.941 6e-3 0.581 0.06 1.345 0.244 2.104-0.764-0.184-1.533-0.236-2.119-0.243-0.787 0-1.777 0.077-2.977 0.254-0.638 0.085-1.229-0.286-1.384-0.883-0.033-0.128-0.064-0.256-0.094-0.384l1.538-0.494c0.329-0.125 0.554-0.421 0.587-0.771 0.033-0.348-0.131-0.679-0.429-0.862-0.462-0.284-1.325-0.631-2.092-0.938-0.017-0.591 0-1.171 0.047-1.729 0.039-0.44 0.385-0.788 0.824-0.826 0.533-0.045 1.085-0.064 1.647-0.051 0.409 0.998 0.726 1.673 0.967 2.061 0.184 0.295 0.506 0.459 0.859 0.426 0.348-0.033 0.643-0.256 0.777-0.603l0.51-1.503c0.152 0.034 0.305 0.07 0.458 0.109 0.592 0.151 0.983 0.763 0.889 1.392zM11.999 12.397c-0.492-0.841-1.126-1.573-1.634-2.092-0.652-0.666-1.586-1.45-2.776-2.329-0.599-0.442-0.758-1.272-0.37-1.933C7.41 5.719 7.618 5.389 7.841 5.06l1.956 0.866c0.297 0.132 0.639 0.086 0.89-0.12 0.249-0.205 0.359-0.526 0.289-0.841-0.12-0.532-0.441-1.368-0.979-2.551 0.398-0.404 0.809-0.784 1.225-1.133 0.451-0.38 1.105-0.379 1.557 0 0.412 0.346 0.823 0.726 1.225 1.133-0.538 1.18-0.858 2.017-0.979 2.552-0.07 0.313 0.041 0.636 0.289 0.84 0.254 0.206 0.595 0.253 0.89 0.12l1.955-0.866c0.239 0.353 0.463 0.708 0.667 1.062 0.359 0.617 0.182 1.414-0.414 1.854-1.191 0.88-2.126 1.663-2.777 2.329-0.508 0.519-1.141 1.251-1.636 2.092zM22.993 15.616c-0.767 0.308-1.63 0.654-2.092 0.938-0.297 0.184-0.462 0.514-0.429 0.861 0.033 0.351 0.258 0.646 0.611 0.779l1.514 0.486c-0.029 0.128-0.062 0.256-0.095 0.385-0.154 0.596-0.744 0.977-1.385 0.881-1.146-0.168-2.111-0.254-2.871-0.254-0.035 0-0.07 0-0.105 0-0.586 7e-3-1.355 0.06-2.118 0.243 0.184-0.759 0.236-1.522 0.243-2.104 0.011-0.956-0.132-2.127-0.253-2.941-0.093-0.629 0.299-1.24 0.893-1.392 0.151-0.039 0.304-0.075 0.456-0.109l0.518 1.522c0.127 0.327 0.422 0.551 0.771 0.583 0.356 0.035 0.676-0.132 0.858-0.426 0.241-0.39 0.559-1.064 0.967-2.061 0.564-0.013 1.113 6e-3 1.646 0.051 0.439 0.038 0.786 0.386 0.824 0.826 0.048 0.553 0.064 1.133 0.047 1.732z" />
</svg>