<svg id="corn_Layer_1" viewBox="0 0 24 24" fill="currentColor" width="32" height="32" data-name="Layer 1" xmlns="http://www.w3.org/2000/svg" xmlns:xlink="http://www.w3.org/1999/xlink">
    <title>corn</title>
    <path d="M22.341 10.309c-0.423-0.313-0.965-0.39-1.451-0.203-0.694 0.268-1.338 0.588-1.936 0.948C18.511 4.759 14.977-1e-3 12-1e-3S5.49 4.76 5.046 11.055c-0.598-0.36-1.242-0.68-1.936-0.948-0.487-0.188-1.028-0.111-1.451 0.203-0.452 0.335-0.697 0.875-0.655 1.445C1.626 20.169 7.14 24.001 12 24.001s10.374-3.832 10.996-12.246c0.042-0.57-0.203-1.11-0.655-1.446zM2.002 11.681c-0.017-0.226 0.077-0.438 0.252-0.568 0.063-0.046 0.173-0.109 0.313-0.109 0.056 0 0.117 0.01 0.182 0.035 0.858 0.332 1.635 0.753 2.339 1.238 0.067 0.1 0.17 0.175 0.29 0.207 4.664 3.426 5.956 9.652 6.111 10.497-3.277-0.241-8.86-2.807-9.487-11.3zM8.443 14H10.5c0.276 0 0.5-0.224 0.5-0.5S10.776 13 10.5 13H7.528c-0.463-0.46-0.966-0.897-1.515-1.3 0.022-0.579 0.072-1.147 0.147-1.7H8.5C8.776 10 9 9.776 9 9.5S8.776 9 8.5 9H6.325c0.21-1.077 0.512-2.086 0.88-3H10.5C10.776 6 11 5.776 11 5.5S10.776 5 10.5 5H7.65C8.856 2.554 10.53 1 12 1s3.144 1.554 4.35 4H13.5C13.224 5 13 5.224 13 5.5S13.224 6 13.5 6h3.295c0.368 0.914 0.67 1.923 0.88 3H15.5C15.224 9 15 9.224 15 9.5s0.224 0.5 0.5 0.5h2.34c0.075 0.553 0.125 1.121 0.147 1.7-0.548 0.403-1.052 0.84-1.515 1.3H13.5c-0.276 0-0.5 0.224-0.5 0.5s0.224 0.5 0.5 0.5h2.057c-1.955 2.343-3.016 5.04-3.557 6.856-0.54-1.816-1.602-4.513-3.557-6.856zM21.998 11.681c-0.627 8.493-6.21 11.059-9.487 11.3 0.156-0.845 1.447-7.071 6.111-10.497 0.12-0.031 0.223-0.106 0.29-0.207 0.704-0.485 1.481-0.906 2.339-1.238 0.064-0.025 0.126-0.035 0.182-0.035 0.141 0 0.25 0.062 0.313 0.109 0.175 0.129 0.269 0.342 0.252 0.568zM13 9.5c0 0.276-0.224 0.5-0.5 0.5h-1C11.224 10 11 9.776 11 9.5S11.224 9 11.5 9h1C12.776 9 13 9.224 13 9.5z" />
</svg>