<svg id="corporate_alt_Layer_1" viewBox="0 0 24 24" fill="currentColor" width="32" height="32" data-name="Layer 1" xmlns="http://www.w3.org/2000/svg" xmlns:xlink="http://www.w3.org/1999/xlink">
    <title>corporate-alt</title>
    <path d="M21 14c0-1.103-0.897-2-2-2h-2c-1.103 0-2 0.897-2 2-1.654 0-3 1.346-3 3v4c0 1.654 1.346 3 3 3h6c1.654 0 3-1.346 3-3v-4c0-1.654-1.346-3-3-3zM17 13h2c0.552 0 1 0.448 1 1h-4c0-0.552 0.448-1 1-1zM15 15h6c1.103 0 2 0.897 2 2v1H13v-1c0-1.103 0.897-2 2-2zM21 23h-6c-1.103 0-2-0.897-2-2v-2h4.5v1.5c0 0.276 0.224 0.5 0.5 0.5s0.5-0.224 0.5-0.5V19H23v2c0 1.103-0.897 2-2 2zM10 23.5c0 0.276-0.224 0.5-0.5 0.5h-5C2.019 24 0 21.981 0 19.5v-15C0 2.019 2.019 0 4.5 0h7C13.981 0 16 2.019 16 4.5v5c0 0.276-0.224 0.5-0.5 0.5S15 9.776 15 9.5v-5C15 2.57 13.43 1 11.5 1h-7C2.57 1 1 2.57 1 4.5v15C1 21.43 2.57 23 4.5 23h5c0.276 0 0.5 0.224 0.5 0.5zM7 13.5C7 13.776 6.776 14 6.5 14h-2C4.224 14 4 13.776 4 13.5S4.224 13 4.5 13h2C6.776 13 7 13.224 7 13.5zM12 13.5c0 0.276-0.224 0.5-0.5 0.5h-2C9.224 14 9 13.776 9 13.5S9.224 13 9.5 13h2c0.276 0 0.5 0.224 0.5 0.5zM7 17.5C7 17.776 6.776 18 6.5 18h-2C4.224 18 4 17.776 4 17.5S4.224 17 4.5 17h2C6.776 17 7 17.224 7 17.5zM7 5.5C7 5.776 6.776 6 6.5 6h-2C4.224 6 4 5.776 4 5.5S4.224 5 4.5 5h2C6.776 5 7 5.224 7 5.5zM12 5.5C12 5.776 11.776 6 11.5 6h-2C9.224 6 9 5.776 9 5.5S9.224 5 9.5 5h2C11.776 5 12 5.224 12 5.5zM7 9.5C7 9.776 6.776 10 6.5 10h-2C4.224 10 4 9.776 4 9.5S4.224 9 4.5 9h2C6.776 9 7 9.224 7 9.5zM12 9.5c0 0.276-0.224 0.5-0.5 0.5h-2C9.224 10 9 9.776 9 9.5S9.224 9 9.5 9h2C11.776 9 12 9.224 12 9.5z" />
</svg>