<svg id="corruption_Layer_1" viewBox="0 0 24 24" fill="currentColor" width="32" height="32" data-name="Layer 1" xmlns="http://www.w3.org/2000/svg" xmlns:xlink="http://www.w3.org/1999/xlink">
    <title>corruption</title>
    <path d="M10 22.5c0 0.276-0.224 0.5-0.5 0.5h-5C4.224 23 4 22.776 4 22.5S4.224 22 4.5 22h5c0.276 0 0.5 0.224 0.5 0.5zM9.5 20h-5C4.224 20 4 20.224 4 20.5S4.224 21 4.5 21h5c0.276 0 0.5-0.224 0.5-0.5S9.776 20 9.5 20zM6.414 8.002c0.398-0.014 0.783 0.113 1.075 0.375l3.38 3.11c0.719 0.661 1.131 1.6 1.131 2.575v0.437c0 0.276 0.224 0.5 0.5 0.5s0.5-0.224 0.5-0.5v-0.437c0-1.161-0.469-2.267-1.268-3.101l3.039-2.58c0.613-0.549 1.562-0.499 2.112 0.115 0.069 0.078 0.131 0.163 0.184 0.253 0.113 0.196 0.346 0.292 0.562 0.232 0.218-0.059 0.37-0.257 0.37-0.483V2.5c0-0.827 0.673-1.5 1.5-1.5s1.5 0.673 1.5 1.5V9c0 0.276 0.224 0.5 0.5 0.5s0.5-0.224 0.5-0.5V2.5c0-1.378-1.121-2.5-2.5-2.5s-2.5 1.122-2.5 2.5v4.824c-0.906-0.511-2.075-0.421-2.886 0.304l-3.101 2.633-2.851-2.624c-0.844-0.795-2.25-0.846-3.162-0.139V2.5c0-1.378-1.121-2.5-2.5-2.5S0 1.122 0 2.5v9c0 2.003 0.78 3.887 2.196 5.303l2.051 2.05c0.094 0.094 0.221 0.146 0.354 0.146H9.5c0.276 0 0.5-0.224 0.5-0.5s-0.224-0.5-0.5-0.5H4.808l-1.904-1.904c-1.228-1.228-1.903-2.86-1.903-4.596V2.5c0-0.827 0.673-1.5 1.5-1.5s1.5 0.673 1.5 1.5v7c0.043 0.576 0.195 1.151 0.607 1.627l3.075 3.179c0.191 0.199 0.51 0.204 0.707 0.012 0.198-0.192 0.204-0.508 0.012-0.707L5.35 10.458c-0.476-0.566-0.462-1.409 0.032-1.96 0.267-0.297 0.634-0.474 1.032-0.496zM24 20.763C24 22.548 22.542 24 20.75 24h-5.5C13.458 24 12 22.548 12 20.763c0-2.808 2.187-5.738 4.626-6.587-0.37-0.297-0.761-0.667-1.066-1.095-0.287-0.404-0.324-0.929-0.097-1.369 0.227-0.439 0.674-0.711 1.168-0.711h2.736c0.494 0 0.941 0.272 1.168 0.711 0.228 0.44 0.19 0.965-0.097 1.369-0.305 0.429-0.696 0.799-1.066 1.095 2.439 0.849 4.626 3.778 4.628 6.587zM18 13.922c0.384-0.235 1.154-0.758 1.625-1.42 0.132-0.277 0.044-0.448-0.257-0.501h-2.736c-0.301 0.053-0.389 0.224-0.257 0.501 0.474 0.666 1.241 1.186 1.625 1.42zM17.5 22h-0.432c-0.909 0-1.568-0.623-1.568-1.481 0-0.276 0.224-0.5 0.5-0.5s0.5 0.224 0.5 0.5c0 0.458 0.474 0.481 0.568 0.481h1.863c0.313 0 0.568-0.273 0.568-0.608 0-0.272-0.172-0.514-0.418-0.586l-2.436-0.647c-0.681-0.202-1.146-0.837-1.146-1.549 0-0.887 0.703-1.608 1.568-1.608h0.432v-0.957c-2.269 0.364-4.5 3.11-4.5 5.719 0 1.234 1.01 2.237 2.25 2.237h2.25zM23 20.763c0-2.609-2.231-5.355-4.5-5.719v0.957h0.432c0.895 0 1.568 0.645 1.568 1.5 0 0.276-0.224 0.5-0.5 0.5s-0.5-0.224-0.5-0.5c0-0.369-0.307-0.5-0.568-0.5h-1.863c-0.313 0-0.568 0.273-0.568 0.608 0 0.272 0.172 0.514 0.418 0.586l2.436 0.647c0.681 0.202 1.146 0.837 1.146 1.549 0 0.887-0.703 1.608-1.568 1.608h-0.432v1h2.25c1.24 0 2.25-1.003 2.249-2.236z" />
</svg>