<svg id="court_order_Layer_1" viewBox="0 0 24 24" fill="currentColor" width="32" height="32" data-name="Layer 1" xmlns="http://www.w3.org/2000/svg" xmlns:xlink="http://www.w3.org/1999/xlink">
    <title>court-order</title>
    <path d="M9 12H8.5C8.224 12 8 12.224 8 12.5S8.224 13 8.5 13h9c0.276 0 0.5-0.224 0.5-0.5S17.776 12 17.5 12H17V1h0.5C17.776 1 18 0.776 18 0.5S17.776 0 17.5 0h-9C8.224 0 8 0.224 8 0.5S8.224 1 8.5 1H9v5H0.5C0.224 6 0 6.224 0 6.5S0.224 7 0.5 7H9zM16 9h-6V4h6zM10 12v-2h6v2zM16 1v2h-6V1zM19.5 23H19v-0.5c0-1.378-1.121-2.5-2.5-2.5h-7C8.121 20 7 21.122 7 22.5V23H6.5C6.224 23 6 23.224 6 23.5S6.224 24 6.5 24h13c0.276 0 0.5-0.224 0.5-0.5S19.776 23 19.5 23zM8 22.5C8 21.673 8.673 21 9.5 21h7c0.827 0 1.5 0.673 1.5 1.5V23H8zM19.02 15.232c-0.078-0.265 0.073-0.543 0.338-0.621l4-1.182c0.262-0.081 0.543 0.073 0.621 0.338s-0.073 0.543-0.338 0.621l-4 1.182c-0.257 0.078-0.544-0.071-0.621-0.338zM23.979 19.732c-0.078 0.267-0.364 0.416-0.621 0.338l-4-1.182c-0.265-0.078-0.416-0.356-0.338-0.621s0.358-0.417 0.621-0.338l4 1.182c0.265 0.078 0.416 0.356 0.338 0.621zM6.642 14.611c0.265 0.078 0.416 0.356 0.338 0.621-0.078 0.267-0.364 0.416-0.621 0.338l-4-1.182c-0.265-0.078-0.416-0.356-0.338-0.621s0.36-0.418 0.621-0.338zM6.642 18.889l-4 1.182C2.385 20.149 2.098 20 2.021 19.733c-0.078-0.265 0.073-0.543 0.338-0.621l4-1.182c0.263-0.079 0.543 0.072 0.621 0.338 0.078 0.265-0.073 0.543-0.338 0.621z" />
</svg>