<svg id="court_sport_Layer_1" viewBox="0 0 24 24" fill="currentColor" width="32" height="32" data-name="Layer 1" xmlns="http://www.w3.org/2000/svg" xmlns:xlink="http://www.w3.org/1999/xlink">
    <title>court-sport</title>
    <path d="M19.5 3h-15C2.019 3 0 5.019 0 7.5v9C0 18.981 2.019 21 4.5 21H19c2.36 0 5-1.925 5-4.5v-9C24 5.019 21.981 3 19.5 3zM23 15h-2.5c-0.276 0-0.5-0.225-0.5-0.5v-5C20 9.225 20.224 9 20.5 9H23zM12 15c-1.654 0-3-1.346-3-3s1.346-3 3-3 3 1.346 3 3-1.346 3-3 3zM1 9h2.5C3.776 9 4 9.225 4 9.5v5C4 14.775 3.776 15 3.5 15H1zM1 16.5V16h2.5C4.327 16 5 15.327 5 14.5v-5C5 8.673 4.327 8 3.5 8H1V7.5C1 5.57 2.57 4 4.5 4h7v4.051C9.532 8.3 8 9.966 8 12s1.532 3.7 3.5 3.949V20h-7C2.57 20 1 18.43 1 16.5zM19 20h-6.5v-4.051C14.468 15.7 16 14.034 16 12s-1.532-3.7-3.5-3.949V4h7C21.43 4 23 5.57 23 7.5V8h-2.5C19.673 8 19 8.673 19 9.5v5c0 0.827 0.673 1.5 1.5 1.5H23v0.5c0 1.971-2.15 3.5-4 3.5z" />
</svg>