<svg id="cowbell_circle_plus_Layer_1" viewBox="0 0 24 24" fill="currentColor" width="32" height="32" data-name="Layer 1" xmlns="http://www.w3.org/2000/svg" xmlns:xlink="http://www.w3.org/1999/xlink">
    <title>cowbell-circle-plus</title>
    <path d="M10.571 22.97C9.106 22.76 8 21.484 8 20h0.5C8.776 20 9 19.776 9 19.5S8.776 19 8.5 19H3.501c-0.742 0-1.441-0.326-1.917-0.896-0.477-0.568-0.675-1.313-0.544-2.044L2.5 7.884c0.298-1.672 1.748-2.885 3.446-2.885h10.109c1.698 0 3.147 1.213 3.446 2.885l0.125 0.703c0.048 0.272 0.311 0.452 0.58 0.404 0.272-0.049 0.453-0.309 0.404-0.58l-0.125-0.703c-0.384-2.149-2.247-3.709-4.43-3.709h-0.556C15.814 3.581 16 3.061 16 2.499c0-1.379-1.122-2.5-2.5-2.5h-5C7.122-1e-3 6 1.12 6 2.499c0 0.562 0.187 1.082 0.501 1.5H5.945c-2.183 0-4.046 1.56-4.43 3.709l-1.46 8.177c-0.183 1.022 0.095 2.065 0.762 2.862C1.484 19.543 2.462 20 3.501 20H7c0 1.978 1.474 3.68 3.429 3.96 0.024 3e-3 0.048 5e-3 0.071 5e-3 0.245 0 0.458-0.18 0.495-0.429 0.039-0.273-0.151-0.527-0.424-0.566zM7 2.5C7 1.673 7.673 1 8.5 1h5C14.327 1 15 1.673 15 2.5S14.327 4 13.5 4h-5C7.673 4 7 3.327 7 2.5zM17.5 11c-3.584 0-6.5 2.916-6.5 6.5s2.916 6.5 6.5 6.5 6.5-2.916 6.5-6.5-2.916-6.5-6.5-6.5zM17.5 23c-3.033 0-5.5-2.468-5.5-5.5s2.467-5.5 5.5-5.5 5.5 2.468 5.5 5.5-2.467 5.5-5.5 5.5zM21 17.5c0 0.276-0.224 0.5-0.5 0.5H18v2.5c0 0.276-0.224 0.5-0.5 0.5S17 20.776 17 20.5V18h-2.5c-0.276 0-0.5-0.224-0.5-0.5s0.224-0.5 0.5-0.5H17v-2.5c0-0.276 0.224-0.5 0.5-0.5s0.5 0.224 0.5 0.5V17h2.5c0.276 0 0.5 0.224 0.5 0.5z" />
</svg>