<svg id="cpu_Layer_1" viewBox="0 0 24 24" fill="currentColor" width="32" height="32" data-name="Layer 1" xmlns="http://www.w3.org/2000/svg" xmlns:xlink="http://www.w3.org/1999/xlink">
    <title>cpu</title>
    <path d="M6 11v3c0 0.552 0.449 1 1 1 0.423 0 0.802-0.268 0.943-0.667 0.091-0.26 0.377-0.397 0.638-0.305 0.26 0.092 0.397 0.378 0.305 0.639C8.604 15.464 7.846 16 7 16c-1.103 0-2-0.897-2-2v-3c0-1.103 0.897-2 2-2 0.846 0 1.604 0.536 1.886 1.333 0.092 0.261-0.044 0.547-0.305 0.639-0.259 0.093-0.546-0.045-0.638-0.305C7.802 10.268 7.423 10 7 10c-0.551 0-1 0.448-1 1zM18.5 9C18.224 9 18 9.224 18 9.5V14c0 0.552-0.448 1-1 1s-1-0.448-1-1V9.5C16 9.224 15.776 9 15.5 9S15 9.224 15 9.5V14c0 1.103 0.897 2 2 2s2-0.897 2-2V9.5C19 9.224 18.776 9 18.5 9zM14 11c0 1.103-0.897 2-2 2h-1v2.5c0 0.276-0.224 0.5-0.5 0.5S10 15.776 10 15.5v-5C10 9.673 10.673 9 11.5 9H12c1.103 0 2 0.897 2 2zM13 11c0-0.552-0.449-1-1-1h-0.5c-0.276 0-0.5 0.225-0.5 0.5V12h1c0.551 0 1-0.448 1-1zM22 9v2.5h1.5c0.276 0 0.5 0.224 0.5 0.5s-0.224 0.5-0.5 0.5H22V15h1.5c0.276 0 0.5 0.224 0.5 0.5S23.776 16 23.5 16H22v1.5c0 0.171-0.032 0.334-0.051 0.5H23.5c0.276 0 0.5 0.224 0.5 0.5S23.776 19 23.5 19h-1.776c-0.453 1.271-1.453 2.27-2.724 2.724V23.5c0 0.276-0.224 0.5-0.5 0.5S18 23.776 18 23.5v-1.551C17.834 21.968 17.671 22 17.5 22H16v1.5c0 0.276-0.224 0.5-0.5 0.5S15 23.776 15 23.5V22h-2.5v1.5c0 0.276-0.224 0.5-0.5 0.5s-0.5-0.224-0.5-0.5V22H9v1.5C9 23.776 8.776 24 8.5 24S8 23.776 8 23.5V22H6.5c-0.171 0-0.334-0.032-0.5-0.051V23.5C6 23.776 5.776 24 5.5 24S5 23.776 5 23.5v-1.776C3.729 21.271 2.73 20.271 2.276 19H0.5C0.224 19 0 18.776 0 18.5S0.224 18 0.5 18h1.551C2.032 17.834 2 17.671 2 17.5V16H0.5C0.224 16 0 15.776 0 15.5S0.224 15 0.5 15H2v-2.5H0.5C0.224 12.5 0 12.276 0 12s0.224-0.5 0.5-0.5H2V9H0.5C0.224 9 0 8.776 0 8.5S0.224 8 0.5 8H2V6.5C2 6.329 2.032 6.166 2.051 6H0.5C0.224 6 0 5.776 0 5.5S0.224 5 0.5 5h1.776C2.729 3.729 3.729 2.73 5 2.276V0.5C5 0.224 5.224 0 5.5 0S6 0.224 6 0.5v1.551C6.166 2.032 6.329 2 6.5 2H8V0.5C8 0.224 8.224 0 8.5 0S9 0.224 9 0.5V2h2.5V0.5C11.5 0.224 11.724 0 12 0s0.5 0.224 0.5 0.5V2H15V0.5C15 0.224 15.224 0 15.5 0S16 0.224 16 0.5V2h1.5c0.171 0 0.334 0.032 0.5 0.051V0.5C18 0.224 18.224 0 18.5 0S19 0.224 19 0.5v1.776C20.271 2.729 21.27 3.729 21.724 5H23.5C23.776 5 24 5.224 24 5.5S23.776 6 23.5 6h-1.551C21.968 6.166 22 6.329 22 6.5V8h1.5C23.776 8 24 8.224 24 8.5S23.776 9 23.5 9zM21 17.5v-11C21 4.57 19.43 3 17.5 3h-11C4.57 3 3 4.57 3 6.5v11C3 19.43 4.57 21 6.5 21h11c1.93 0 3.5-1.57 3.5-3.5z" />
</svg>