<svg id="crane_building_Layer_1" viewBox="0 0 24 24" fill="currentColor" width="32" height="32" data-name="Layer 1" xmlns="http://www.w3.org/2000/svg" xmlns:xlink="http://www.w3.org/1999/xlink">
    <title>crane-building</title>
    <path d="M20 18h-1c-0.551 0-1 0.449-1 1v1c0 0.551 0.449 1 1 1h1c0.551 0 1-0.449 1-1v-1c0-0.551-0.449-1-1-1zM20 20h-1v-1h1zM15 18h-1c-0.551 0-1 0.449-1 1v1c0 0.551 0.449 1 1 1h1c0.551 0 1-0.449 1-1v-1c0-0.551-0.449-1-1-1zM15 20h-1v-1h1zM22.5 10h-0.763l-4.091-5H23.5C23.776 5 24 4.776 24 4.5S23.776 4 23.5 4H6.663c-0.11-0.192-0.236-0.375-0.396-0.536L5.535 2.732C5.118 2.316 4.578 2.076 3.999 2.023V0.5c0-0.276-0.224-0.5-0.5-0.5s-0.5 0.224-0.5 0.5v1.592c-0.581 0.207-1 0.757-1 1.408V4H0.5C0.224 4 0 4.224 0 4.5S0.224 5 0.5 5H2v0.5c0 0.651 0.419 1.201 1 1.408V23H1.5C1.224 23 1 23.224 1 23.5S1.224 24 1.5 24h6C7.776 24 8 23.776 8 23.5S7.776 23 7.5 23H6V6.908C6.581 6.701 7 6.151 7 5.5V5.232C7 5.153 6.984 5.077 6.977 5h9.377l-4.091 5H11.5c-0.827 0-1.5 0.673-1.5 1.5s0.673 1.5 1.5 1.5h11c0.827 0 1.5-0.673 1.5-1.5S23.327 10 22.5 10zM4 23V7h1v16zM6 5.5C6 5.776 5.776 6 5.5 6h-2C3.224 6 3 5.776 3 5.5v-2C3 3.224 3.224 3 3.5 3h0.268c0.4 0 0.777 0.156 1.061 0.439L5.56 4.171C5.844 4.455 6 4.832 6 5.232zM17 5.79 20.445 10h-6.89zM22.5 12h-11c-0.276 0-0.5-0.224-0.5-0.5s0.224-0.5 0.5-0.5h11c0.276 0 0.5 0.224 0.5 0.5S22.776 12 22.5 12zM21.5 15h-9c-1.378 0-2.5 1.122-2.5 2.5v4c0 1.378 1.122 2.5 2.5 2.5h9c1.378 0 2.5-1.122 2.5-2.5v-4c0-1.378-1.122-2.5-2.5-2.5zM23 21.5c0 0.827-0.673 1.5-1.5 1.5h-9c-0.827 0-1.5-0.673-1.5-1.5v-4c0-0.827 0.673-1.5 1.5-1.5h9c0.827 0 1.5 0.673 1.5 1.5z" />
</svg>