<svg id="crane_Layer_1" viewBox="0 0 24 24" fill="currentColor" width="32" height="32" data-name="Layer 1" xmlns="http://www.w3.org/2000/svg" xmlns:xlink="http://www.w3.org/1999/xlink">
    <title>crane</title>
    <path d="M22.683 17.294c-0.415-0.223-0.684-0.717-0.684-1.257v-8.04h0.621c0.665 0 1.207-0.437 1.347-1.088 0.141-0.65-0.173-1.272-0.801-1.555l-12.03-4.768c-3.144-1.07-5.828-0.666-7.98 1.216L0.782 3.999C0.06 4.631-0.189 5.62 0.149 6.518 0.486 7.416 1.324 7.997 2.284 7.997H5v15H0.5c-0.277 0-0.5 0.223-0.5 0.5s0.224 0.5 0.5 0.5h15c0.276 0 0.5-0.224 0.5-0.5s-0.224-0.5-0.5-0.5H11v-15h10v8.04c0 0.917 0.463 1.736 1.209 2.138C22.697 18.437 23 18.944 23 19.497c0 0.827-0.673 1.5-1.5 1.5s-1.5-0.673-1.5-1.5c0-0.276-0.224-0.5-0.5-0.5s-0.5 0.224-0.5 0.5c0 1.378 1.121 2.5 2.5 2.5s2.5-1.122 2.5-2.5c0-0.921-0.505-1.766-1.317-2.203zM2.284 6.997c-0.654 0-1.048-0.429-1.199-0.83-0.15-0.401-0.137-0.984 0.366-1.423l2.374-2.198c1.185-1.036 2.53-1.55 4.065-1.55 0.9 0 1.865 0.177 2.9 0.529l11.985 4.75c0.259 0.117 0.229 0.354 0.214 0.424s-0.086 0.298-0.369 0.298zM6 16.789V9.203l3.793 3.793zM10 14.204v7.586l-3.793-3.793zM6 19.204l3.793 3.793H6zM10 11.789 6.207 7.996H10z" />
</svg>