<svg id="crate_empty_Layer_1" viewBox="0 0 24 24" fill="currentColor" width="32" height="32" data-name="Layer 1" xmlns="http://www.w3.org/2000/svg" xmlns:xlink="http://www.w3.org/1999/xlink">
    <title>crate-empty</title>
    <path d="M21.5 11h-19C1.121 11 0 12.122 0 13.5v6C0 21.981 2.019 24 4.5 24h15c2.481 0 4.5-2.019 4.5-4.5v-6c0-1.378-1.121-2.5-2.5-2.5zM23 19.5c0 1.93-1.57 3.5-3.5 3.5h-15c-1.76 0-3.221-1.306-3.464-3H19.5c0.276 0 0.5-0.224 0.5-0.5S19.776 19 19.5 19H1v-3h18.5c0.276 0 0.5-0.224 0.5-0.5S19.776 15 19.5 15H1v-1.5C1 12.673 1.673 12 2.5 12h19c0.827 0 1.5 0.673 1.5 1.5z" />
</svg>