<svg id="credit_card_edit_Layer_1" viewBox="0 0 24 24" fill="currentColor" width="32" height="32" data-name="Layer 1" xmlns="http://www.w3.org/2000/svg" xmlns:xlink="http://www.w3.org/1999/xlink">
    <title>credit-card-edit</title>
    <path d="M23.013 7.687C23.65 8.481 24 9.48 24 10.5v9c0 2.481-2.019 4.5-4.5 4.5h-15C2.019 24 0 21.981 0 19.5v-9C0 8.019 2.019 6 4.5 6h6C10.776 6 11 6.224 11 6.5S10.776 7 10.5 7h-6c-1.758 0-3.204 1.308-3.449 3H8.5C8.776 10 9 10.224 9 10.5S8.776 11 8.5 11H1v2h7.5C8.776 13 9 13.224 9 13.5S8.776 14 8.5 14H1v5.5C1 21.43 2.57 23 4.5 23h15c1.93 0 3.5-1.57 3.5-3.5V14h-5.5c-0.276 0-0.5-0.224-0.5-0.5s0.224-0.5 0.5-0.5H23v-2h-2.5c-0.276 0-0.5-0.224-0.5-0.5s0.224-0.5 0.5-0.5h2.458c-0.087-0.616-0.33-1.193-0.726-1.687-0.173-0.216-0.138-0.53 0.077-0.703 0.217-0.171 0.532-0.137 0.704 0.077zM4.942 17c1.103 0 2 0.897 2 2s-0.897 2-2 2-2-0.897-2-2 0.897-2 2-2zM4.942 18c-0.551 0-1 0.449-1 1s0.449 1 1 1 1-0.449 1-1-0.449-1-1-1zM11 10.914c0-0.935 0.364-1.814 1.025-2.475l7.707-7.707c0.943-0.944 2.592-0.944 3.535 0 0.97 0.93 0.97 2.606 0 3.535l-7.707 7.707c-0.661 0.661-1.54 1.025-2.475 1.025h-1.586c-0.276 0-0.5-0.224-0.5-0.5zM12 12h1.086c0.668 0 1.295-0.26 1.768-0.732l7.707-7.707c0.582-0.558 0.582-1.563 0-2.121-0.566-0.566-1.555-0.566-2.121 0l-7.707 7.707c-0.472 0.472-0.732 1.1-0.732 1.768z" />
</svg>