<svg id="credit_card_buyer_Layer_1" viewBox="0 0 24 24" fill="currentColor" width="32" height="32" data-name="Layer 1" xmlns="http://www.w3.org/2000/svg" xmlns:xlink="http://www.w3.org/1999/xlink">
    <title>credit-card-buyer</title>
    <path d="M3 13c0 1.103 0.897 2 2 2s2-0.897 2-2-0.897-2-2-2-2 0.897-2 2zM6 13c0 0.551-0.448 1-1 1s-1-0.449-1-1 0.448-1 1-1 1 0.449 1 1zM19.5 0h-15C2.019 0 0 2.019 0 4.5v9C0 15.981 2.019 18 4.5 18h9c0.276 0 0.5-0.224 0.5-0.5S13.776 17 13.5 17h-9C2.57 17 1 15.43 1 13.5V6h22v5.5c0 0.276 0.224 0.5 0.5 0.5s0.5-0.224 0.5-0.5v-7C24 2.019 21.981 0 19.5 0zM1 5V4.5C1 2.57 2.57 1 4.5 1h15C21.43 1 23 2.57 23 4.5V5zM22 15c0-1.654-1.346-3-3-3s-3 1.346-3 3 1.346 3 3 3 3-1.346 3-3zM17 15c0-1.103 0.897-2 2-2s2 0.897 2 2-0.897 2-2 2-2-0.897-2-2zM23.997 23.444c0.031 0.274-0.166 0.522-0.44 0.553-0.02 2e-3-0.038 3e-3-0.058 3e-3-0.251 0-0.467-0.188-0.496-0.444C22.774 21.529 21.052 20 19 20s-3.773 1.529-4.003 3.556c-0.031 0.275-0.284 0.474-0.554 0.44-0.274-0.031-0.472-0.278-0.44-0.553 0.288-2.534 2.436-4.444 4.997-4.444s4.709 1.91 4.997 4.445z" />
</svg>