<svg id="credit_card_Outline" viewBox="0 0 24 24" fill="currentColor" width="32" height="32" xmlns="http://www.w3.org/2000/svg" xmlns:xlink="http://www.w3.org/1999/xlink">
    <title>credit-card</title>
    <path d="M19.5 3h-15C2.019 3 0 5.019 0 7.5v9C0 18.981 2.019 21 4.5 21h15c2.481 0 4.5-2.019 4.5-4.5v-9C24 5.019 21.981 3 19.5 3zM1 8h22v2H1zM4.5 4h15c1.758 0 3.204 1.308 3.449 3H1.051C1.296 5.308 2.742 4 4.5 4zM19.5 20h-15C2.57 20 1 18.43 1 16.5V11h22v5.5c0 1.93-1.57 3.5-3.5 3.5zM5 14c-1.103 0-2 0.897-2 2s0.897 2 2 2 2-0.897 2-2-0.897-2-2-2zM5 17c-0.551 0-1-0.448-1-1s0.449-1 1-1 1 0.448 1 1-0.449 1-1 1z" />
</svg>