<svg id="crm_alt_Layer_1" viewBox="0 0 24 24" fill="currentColor" width="32" height="32" data-name="Layer 1" xmlns="http://www.w3.org/2000/svg" xmlns:xlink="http://www.w3.org/1999/xlink">
    <title>crm-alt</title>
    <path d="M4 10.5v3C4 14.327 4.673 15 5.5 15c0.679 0 1.273-0.463 1.445-1.125 0.068-0.268 0.343-0.429 0.609-0.359 0.267 0.069 0.428 0.343 0.358 0.609C7.626 15.229 6.634 16 5.499 16c-1.378 0-2.5-1.121-2.5-2.5v-3c0-1.378 1.122-2.5 2.5-2.5 1.135 0 2.127 0.771 2.413 1.875 0.069 0.268-0.091 0.54-0.358 0.609-0.266 0.072-0.541-0.091-0.609-0.358C6.773 9.463 6.179 9.001 5.5 9.001 4.673 9.001 4 9.674 4 10.5zM21.09 18.214C19.051 21.138 15.528 22.96 12 23c-3.31 0-6.366-1.461-8.466-4H7.5C7.776 19 8 18.776 8 18.5S7.776 18 7.5 18H3.486C2.667 18 2 18.666 2 19.485V23.5C2 23.776 2.224 24 2.5 24S3 23.776 3 23.5v-3.59c2.253 2.568 5.518 4.062 8.959 4.097 3.891 0 7.705-2 9.951-5.221 0.158-0.227 0.103-0.538-0.124-0.696-0.224-0.156-0.536-0.104-0.696 0.124zM16.06 15.566l0.435-6.36 1.581 3.477c0.166 0.364 0.683 0.364 0.848 0l1.581-3.477 0.53 6.367C21.055 15.814 21.257 16 21.499 16c0.271 0 0.484-0.23 0.465-0.5L21.493 9c-0.043-0.705-0.472-1-0.988-1-0.342 0-0.66 0.242-0.841 0.64L18.5 11.2 17.336 8.64C17.155 8.242 16.837 8 16.495 8c-0.516 0-0.945 0.295-0.988 1l-0.471 6.5c-0.02 0.27 0.194 0.5 0.465 0.5 0.245 0 0.542-0.19 0.559-0.434zM21.5 0C21.224 0 21 0.224 21 0.5v3.591C18.719 1.491 15.49 0 12 0 8.099 0.027 4.348 1.977 2.09 5.214 1.932 5.441 1.987 5.752 2.214 5.91 2.301 5.971 2.401 6 2.5 6 2.658 6 2.813 5.925 2.911 5.786c2.087-2.993 5.485-4.779 9.091-4.779 3.273 0.023 6.369 1.469 8.452 3.979L16.498 5C16.222 5 15.999 5.226 16 5.502 16 5.777 16.225 6 16.5 6h2e-3l4.013-0.014C21.334 5.986 22 5.319 22 4.5v-4C22 0.224 21.776 0 21.5 0zM12.886 12.578l0.921 2.764c0.087 0.262-0.055 0.545-0.316 0.633C13.438 15.993 13.386 16 13.333 16c-0.209 0-0.405-0.133-0.474-0.342l-0.901-2.704C11.809 12.982 11.657 13 11.501 13h-1.5v2.5c0 0.276-0.224 0.5-0.5 0.5s-0.5-0.224-0.5-0.5v-6c0-0.827 0.673-1.5 1.5-1.5h1c1.378 0 2.5 1.122 2.5 2.5 0 0.866-0.443 1.629-1.115 2.078zM13 10.5C13 9.673 12.327 9 11.5 9h-1C10.224 9 10 9.224 10 9.5V12h1.5c0.827 0 1.5-0.673 1.5-1.5z" />
</svg>