<svg id="CRM_Layer_1" viewBox="0 0 24 24" fill="currentColor" width="32" height="32" data-name="Layer 1" xmlns="http://www.w3.org/2000/svg" xmlns:xlink="http://www.w3.org/1999/xlink">
    <title>CRM</title>
    <path d="M14.5 10.5C14.5 8.57 12.93 7 11 7h-1C8.897 7 8 7.897 8 9v8.5C8 17.776 8.224 18 8.5 18S9 17.776 9 17.5V14h2c0.216 0 0.425-0.026 0.629-0.064l1.402 3.739c0.075 0.2 0.266 0.324 0.468 0.324 0.059 0 0.118-0.01 0.176-0.032 0.258-0.097 0.389-0.385 0.292-0.644l-1.393-3.716c1.137-0.579 1.925-1.748 1.926-3.107zM11 13H9V9c0-0.551 0.449-1 1-1h1c1.378 0 2.5 1.122 2.5 2.5S12.378 13 11 13zM23.956 17.466C23.976 17.755 23.747 18 23.457 18c-0.263 0-0.481-0.204-0.499-0.466l-0.622-9.169C22.317 8.031 22.247 8.003 22.14 8c-0.031 0.023-0.097 0.091-0.156 0.229l-1.906 4.694c-0.169 0.417-0.759 0.416-0.927-2e-3l-1.897-4.717c-0.059-0.135-0.136-0.201-0.158-0.211-0.081 8e-3-0.162 8e-3-0.183 0.363l-0.636 9.179C16.259 17.797 16.041 18 15.778 18c-0.29 0-0.519-0.245-0.499-0.535l0.635-9.168C15.967 7.383 16.499 7 17.138 7c0.424 0 0.818 0.314 1.043 0.831l1.435 3.569 1.45-3.569C21.29 7.314 21.684 7 22.109 7c0.639 0 1.172 0.383 1.225 1.297zM1 10.5v4C1 15.879 2.122 17 3.5 17c1.048 0 1.99-0.67 2.345-1.668 0.092-0.26 0.379-0.399 0.639-0.303 0.26 0.092 0.396 0.378 0.304 0.639C6.291 17.063 4.97 18 3.5 18 1.57 18 0 16.43 0 14.5v-4C0 8.57 1.57 7 3.5 7 4.97 7 6.291 7.938 6.788 9.333 6.88 9.593 6.745 9.879 6.484 9.972c-0.259 0.09-0.546-0.043-0.639-0.304C5.491 8.67 4.548 8.001 3.5 8.001 2.122 8.001 1 9.123 1 10.5z" />
</svg>