<svg id="cross_religion_Layer_1" viewBox="0 0 24 24" fill="currentColor" width="32" height="32" data-name="Layer 1" xmlns="http://www.w3.org/2000/svg" xmlns:xlink="http://www.w3.org/1999/xlink">
    <title>cross-religion</title>
    <path d="M12 24c-1.654 0-3-1.346-3-3v-8H5c-1.654 0-3-1.346-3-3s1.346-3 3-3h4V3c0-1.654 1.346-3 3-3s3 1.346 3 3v4h4c1.654 0 3 1.346 3 3s-1.346 3-3 3h-4v8c0 1.654-1.346 3-3 3zM5 8c-1.103 0-2 0.897-2 2s0.897 2 2 2h4.5c0.276 0 0.5 0.224 0.5 0.5V21c0 1.103 0.897 2 2 2s2-0.897 2-2v-8.5c0-0.276 0.224-0.5 0.5-0.5H19c1.103 0 2-0.897 2-2s-0.897-2-2-2h-4.5C14.224 8 14 7.776 14 7.5V3c0-1.103-0.897-2-2-2s-2 0.897-2 2v4.5C10 7.776 9.776 8 9.5 8z" />
</svg>