<svg id="crown_Layer_1" viewBox="0 0 24 24" fill="currentColor" width="32" height="32" data-name="Layer 1" xmlns="http://www.w3.org/2000/svg" xmlns:xlink="http://www.w3.org/1999/xlink">
    <title>crown</title>
    <path d="M22.765 5.115c-0.748-0.312-1.603-0.142-2.188 0.441l-3.044 3.185-4.119-5.157c-0.779-0.78-2.048-0.779-2.865 0.042L6.465 8.743 3.414 5.586c-0.566-0.563-1.435-0.74-2.179-0.433C0.484 5.463 0 6.188 0 7.001V17c0 2.757 2.244 5 5 5h14c2.757 0 5-2.243 5-5V6.963c0-0.812-0.485-1.538-1.235-1.848zM23 17c0 2.206-1.794 4-4 4H5c-2.206 0-4-1.794-4-4V7.001C0.967 6.14 2.114 5.664 2.701 6.288l3.44 3.56c0.195 0.225 0.572 0.194 0.75-0.036l4.402-5.521c0.39-0.39 1.024-0.388 1.377-0.042l4.439 5.562c0.178 0.233 0.559 0.259 0.752 0.034l3.431-3.59C21.884 5.621 23.029 6.097 23 6.962z" />
</svg>