<svg id="crow_Layer_1" viewBox="0 0 24 24" fill="currentColor" width="32" height="32" data-name="Layer 1" xmlns="http://www.w3.org/2000/svg" xmlns:xlink="http://www.w3.org/1999/xlink">
    <title>crow</title>
    <path d="M14.035 5.097c-4e-3 8e-3 3e-3-8e-3 0 0zM23.769 6.634C23.577 6.867 23.295 7 22.996 7h-1.979v3.055c0 4.128-2.405 7.81-5.849 9.668l1.83 3.547c0.126 0.246 0.03 0.547-0.215 0.674C16.709 23.982 16.631 24 16.554 24c-0.181 0-0.356-0.099-0.445-0.271l-1.843-3.572c-1.099 0.468-2.284 0.757-3.516 0.826l1.194 2.285c0.127 0.244 0.033 0.547-0.212 0.675C11.658 23.981 11.579 24 11.501 24c-0.18 0-0.354-0.098-0.444-0.269L9.629 21H2.404l-1.52 1.82C0.785 22.938 0.643 23 0.5 23c-0.113 0-0.227-0.038-0.32-0.116-0.212-0.177-0.24-0.492-0.063-0.704l12.75-15.269c0.495-0.513 0.884-1.118 1.168-1.814 0.221-0.549 0.389-1.18 0.481-1.842 0.044-0.318 0.132-0.64 0.262-0.956 0.434-1.057 1.337-1.863 2.417-2.157 1.174-0.321 2.386-0.091 3.326 0.628 0.844 0.645 1.364 1.588 1.462 2.629 0.672 0.311 1.731 1.01 1.999 2.405 0.057 0.293-0.021 0.596-0.213 0.83zM6.668 15.893C7.042 15.964 7.424 16 7.808 16c3.414 0 6.191-2.808 6.191-6.259V7.135c-0.123 0.154-7.332 8.758-7.331 8.758zM2.41 20.992v0c0 0 3e-3 0 0 0zM21 3.76c0-0.867-0.396-1.667-1.086-2.194-0.692-0.528-1.586-0.696-2.457-0.458-0.771 0.209-1.443 0.812-1.755 1.572-0.097 0.238-0.164 0.478-0.196 0.714-0.1 0.719-0.27 1.382-0.506 1.988v4.36c0 4.002-3.226 7.259-7.191 7.259-0.631 0-1.257-0.083-1.86-0.245l-2.71 3.245h6.93c5.338 0 9.847-4.555 9.847-9.945V6.812c0-0.535 0.162-1.04 0.467-1.461C20.821 4.883 21 4.332 21 3.76zM22.995 6c-0.14-0.749-0.613-1.216-1.07-1.5-0.105 0.514-0.361 1.065-0.676 1.5z" />
</svg>