<svg id="crutches_Layer_1" viewBox="0 0 24 24" fill="currentColor" width="32" height="32" data-name="Layer 1" xmlns="http://www.w3.org/2000/svg" xmlns:xlink="http://www.w3.org/1999/xlink">
    <title>crutches</title>
    <path d="M23.854 23.854C23.756 23.952 23.628 24 23.5 24s-0.256-0.049-0.354-0.146l-6-6c-0.195-0.195-0.195-0.512 0-0.707s0.512-0.195 0.707 0l6 6c0.195 0.195 0.195 0.512 1e-3 0.707zM22.129 8.235l-6.897 6.898C13.383 16.982 10.925 18 8.31 18H6.707l-5.853 5.854C0.756 23.952 0.628 24 0.5 24s-0.256-0.049-0.354-0.146c-0.195-0.195-0.195-0.512 0-0.707L6 17.293v-1.602c0-0.996 0.149-1.968 0.434-2.893L1.871 8.235c-0.655 0.44-1.095 0.684-1.134 0.706-0.075 0.041-0.157 0.06-0.236 0.06-0.179 0-0.351-0.095-0.441-0.263-0.131-0.243-0.04-0.546 0.203-0.677 0.01-6e-3 2.426-1.456 4.307-3.337 2.178-2.179 3.483-4.449 3.495-4.472 0.138-0.24 0.442-0.323 0.682-0.187 0.24 0.137 0.324 0.442 0.188 0.682C8.912 0.787 8.66 1.22 8.224 1.859l3.777 3.777 3.777-3.777c-0.436-0.64-0.688-1.072-0.711-1.112-0.137-0.24-0.053-0.545 0.188-0.682 0.239-0.136 0.543-0.053 0.682 0.187 0.013 0.023 1.318 2.292 3.496 4.471 1.875 1.875 4.296 3.331 4.307 3.337 0.243 0.131 0.334 0.434 0.203 0.677C23.852 8.904 23.68 9 23.502 9c-0.079 0-0.161-0.019-0.236-0.06-0.039-0.021-0.479-0.266-1.137-0.705zM6.822 11.771c0.483-1.105 1.167-2.124 2.046-3.002l2.426-2.426-3.659-3.659c-0.6 0.809-1.386 1.775-2.357 2.746-0.924 0.924-1.821 1.658-2.577 2.219zM8.31 17c2.18 0 4.232-0.797 5.844-2.238L9.238 9.847C7.797 11.459 7 13.511 7 15.691V17zM21.301 7.649c-0.756-0.561-1.653-1.294-2.577-2.219-0.972-0.971-1.757-1.938-2.357-2.746L9.929 9.122l4.95 4.95z" />
</svg>