<svg id="cryptocurrency_Layer_1" viewBox="0 0 24 24" fill="currentColor" width="32" height="32" data-name="Layer 1" xmlns="http://www.w3.org/2000/svg" xmlns:xlink="http://www.w3.org/1999/xlink">
    <title>cryptocurrency</title>
    <path d="M12 0C5.383 0 0 5.383 0 12s5.383 12 12 12 12-5.383 12-12S18.617 0 12 0zM12 23C5.935 23 1 18.065 1 12S5.935 1 12 1 23 5.935 23 12 18.065 23 12 23zM8.464 8.464c-1.95 1.95-1.95 5.122 0 7.071s5.122 1.949 7.071 0c0.195-0.195 0.512-0.195 0.707 0s0.195 0.512 0 0.707c-1.042 1.042-2.378 1.593-3.743 1.707V19.5c0 0.276-0.224 0.5-0.5 0.5s-0.5-0.224-0.5-0.5v-1.551c-1.365-0.114-2.7-0.664-3.743-1.707-2.339-2.339-2.339-6.146 0-8.485 1.042-1.042 2.378-1.593 3.743-1.707V4.5c0-0.276 0.224-0.5 0.5-0.5s0.5 0.224 0.5 0.5v1.55c1.365 0.114 2.7 0.665 3.743 1.707 0.195 0.195 0.195 0.512 0 0.707s-0.512 0.195-0.707 0c-1.949-1.949-5.122-1.949-7.071 0z" />
</svg>