<svg id="crypto_calendar_Layer_1" viewBox="0 0 24 24" fill="currentColor" width="32" height="32" data-name="Layer 1" xmlns="http://www.w3.org/2000/svg" xmlns:xlink="http://www.w3.org/1999/xlink">
    <title>crypto-calendar</title>
    <path d="M19.5 2H18V0.5C18 0.224 17.776 0 17.5 0S17 0.224 17 0.5V2H7V0.5C7 0.224 6.776 0 6.5 0S6 0.224 6 0.5V2H4.5C2.019 2 0 4.019 0 6.5v13C0 21.981 2.019 24 4.5 24h6c0.276 0 0.5-0.224 0.5-0.5S10.776 23 10.5 23h-6C2.57 23 1 21.43 1 19.5V9h22v1.5c0 0.276 0.224 0.5 0.5 0.5s0.5-0.224 0.5-0.5v-4C24 4.019 21.981 2 19.5 2zM1 8V6.5C1 4.57 2.57 3 4.5 3h15C21.43 3 23 4.57 23 6.5V8zM17.5 11c-3.584 0-6.5 2.916-6.5 6.5s2.916 6.5 6.5 6.5 6.5-2.916 6.5-6.5-2.916-6.5-6.5-6.5zM17.5 23c-3.033 0-5.5-2.467-5.5-5.5s2.467-5.5 5.5-5.5 5.5 2.467 5.5 5.5-2.467 5.5-5.5 5.5zM19.662 17.112C19.875 16.794 20 16.411 20 16c0-1.103-0.897-2-2-2v-0.5c0-0.276-0.224-0.5-0.5-0.5S17 13.224 17 13.5V14h-0.5c-0.827 0-1.5 0.673-1.5 1.5v4c0 0.827 0.673 1.5 1.5 1.5H17v0.5c0 0.276 0.224 0.5 0.5 0.5s0.5-0.224 0.5-0.5V21h1c1.103 0 2-0.897 2-2 0-0.871-0.56-1.614-1.338-1.888zM16 15.5c0-0.276 0.224-0.5 0.5-0.5H18c0.551 0 1 0.449 1 1s-0.449 1-1 1h-2zM19 20h-2.5c-0.276 0-0.5-0.224-0.5-0.5V18h3c0.551 0 1 0.449 1 1s-0.449 1-1 1z" />
</svg>