<svg id="crystal_ball_Layer_1" viewBox="0 0 24 24" fill="currentColor" width="32" height="32" data-name="Layer 1" xmlns="http://www.w3.org/2000/svg" xmlns:xlink="http://www.w3.org/1999/xlink">
    <title>crystal-ball</title>
    <path d="M13.5 7c-0.229 0-0.43 0.156-0.485 0.379L12.49 9.482 10.388 9.967c-0.224 0.052-0.384 0.249-0.388 0.479s0.148 0.432 0.37 0.491l2.116 0.569 0.528 2.115C13.07 13.844 13.27 14 13.499 14s0.43-0.156 0.485-0.379l0.526-2.109 2.109-0.526c0.223-0.056 0.379-0.256 0.379-0.485s-0.156-0.43-0.379-0.485L14.51 9.49 13.984 7.381C13.928 7.158 13.728 7.002 13.5 7zM23.686 4.036 21.028 2.973 19.965 0.315c-0.15-0.381-0.777-0.381-0.928 0l-1.062 2.653-2.651 1.003c-0.191 0.072-0.319 0.254-0.323 0.459-4e-3 0.204 0.117 0.391 0.306 0.47l2.665 1.123 1.065 2.663C19.112 8.876 19.297 9 19.501 9s0.389-0.124 0.464-0.314l1.063-2.658 2.658-1.063C23.876 4.89 24 4.705 24 4.501s-0.124-0.389-0.314-0.465zM20.457 5.179C20.33 5.23 20.229 5.33 20.179 5.457L19.5 7.153 18.821 5.457c-0.049-0.124-0.146-0.224-0.27-0.275l-1.705-0.718 1.688-0.639c0.131-0.05 0.235-0.152 0.287-0.282L19.5 1.847l0.679 1.696c0.051 0.127 0.151 0.228 0.278 0.278L22.153 4.5zM20.929 18.811l-0.663-0.552c1.767-2.008 2.735-4.563 2.735-7.258 0-0.888-0.105-1.769-0.314-2.619-0.065-0.268-0.331-0.432-0.604-0.366-0.269 0.065-0.433 0.336-0.366 0.604 0.189 0.772 0.285 1.573 0.285 2.381 0 2.633-1.015 5.118-2.857 6.999H4.859C3.014 16.121 2 13.644 2 11.001 2 5.486 6.486 1 12 1c1.492 0 2.927 0.32 4.264 0.952 0.249 0.115 0.548 0.012 0.666-0.238s0.011-0.548-0.238-0.666C15.219 0.353 13.641 0 12.001 0 5.935 0 1 4.935 1 11c0 2.704 0.965 5.251 2.734 7.259l-0.663 0.552c-1.002 0.835-1.723 1.995-2.028 3.268-0.112 0.467-6e-3 0.952 0.293 1.33 0.296 0.376 0.74 0.592 1.219 0.592h18.89c0.479 0 0.923-0.216 1.219-0.592 0.299-0.378 0.405-0.863 0.293-1.331-0.306-1.271-1.026-2.432-2.028-3.267zM21.879 22.79c-0.105 0.134-0.264 0.211-0.434 0.211H2.555c-0.17 0-0.328-0.077-0.434-0.211-0.107-0.136-0.146-0.311-0.105-0.478 0.255-1.064 0.857-2.034 1.696-2.733l0.694-0.578h15.188l0.694 0.578c0.839 0.699 1.441 1.669 1.696 2.732 0.04 0.168 2e-3 0.343-0.105 0.479z" />
</svg>