<svg id="cubes_Layer_1" viewBox="0 0 24 24" fill="currentColor" width="32" height="32" data-name="Layer 1" xmlns="http://www.w3.org/2000/svg" xmlns:xlink="http://www.w3.org/1999/xlink">
    <title>cubes</title>
    <path d="M22.73 12.68 18.59 10.3c-0.11-0.06-0.22-0.1-0.34-0.14V4.6c0-0.88-0.49-1.7-1.27-2.15l-3.65-2.1c-0.82-0.47-1.83-0.47-2.65 0l-3.66 2.1C6.24 2.9 5.75 3.72 5.75 4.6v5.57c-0.12 0.04-0.23 0.08-0.34 0.14l-4.14 2.37C0.49 13.13 0 13.95 0 14.83v4.57c0 0.88 0.49 1.7 1.27 2.15l3.66 2.1C5.34 23.88 5.8 24 6.26 24s0.92-0.12 1.33-0.35l4.42-2.54 4.42 2.54C16.84 23.88 17.3 24 17.76 24s0.92-0.12 1.33-0.35l3.66-2.1c0.78-0.45 1.27-1.27 1.27-2.15v-4.57c0-0.88-0.49-1.7-1.29-2.15zM22.23 13.55c0.08 0.05 0.15 0.11 0.22 0.17l-4.71 2.7-4.75-2.72 4.4-2.53c0.21-0.12 0.47-0.12 0.69 0zM6.78 4.35 11.5 7.06v5.78l-4.41-2.53c-0.11-0.06-0.22-0.1-0.34-0.14V4.6c0-0.08 0.02-0.17 0.03-0.25zM17.21 4.35c0.02 0.08 0.03 0.16 0.03 0.25v5.57c-0.12 0.04-0.23 0.08-0.34 0.14l-4.41 2.53V7.06zM11.17 1.22c0.51-0.29 1.14-0.29 1.65 0l3.66 2.1c0.08 0.05 0.15 0.11 0.22 0.17l-4.71 2.7-4.7-2.7c0.07-0.06 0.14-0.12 0.22-0.17zM5.91 11.17c0.11-0.06 0.22-0.09 0.34-0.09s0.24 0.03 0.34 0.09l4.4 2.53-4.75 2.72-4.7-2.7c0.07-0.06 0.14-0.12 0.22-0.17zM1.76 20.68C1.29 20.41 1 19.92 1 19.4v-4.57c0-0.08 0.02-0.17 0.03-0.25l4.72 2.71v5.63c-0.11-0.04-0.22-0.07-0.33-0.13zM7.07 22.78c-0.1 0.06-0.22 0.1-0.33 0.13v-5.63l4.75-2.73v5.68zM12.49 20.24v-5.68l4.75 2.73v5.63c-0.11-0.04-0.22-0.07-0.33-0.13zM22.99 19.4c0 0.52-0.29 1.01-0.76 1.28l-3.66 2.1c-0.1 0.06-0.22 0.1-0.33 0.13v-5.63l4.72-2.71c0.02 0.08 0.03 0.16 0.03 0.25z" />
</svg>