<svg id="cube_Layer_1" viewBox="0 0 24 24" fill="currentColor" width="32" height="32" data-name="Layer 1" xmlns="http://www.w3.org/2000/svg" xmlns:xlink="http://www.w3.org/1999/xlink">
    <title>cube</title>
    <path d="M21.091 4.617 13.885 0.5c-1.162-0.662-2.607-0.662-3.77 0L2.909 4.618C1.728 5.293 0.995 6.556 0.995 7.916v8.168c0 1.359 0.733 2.623 1.914 3.298v0c0 0 7.206 4.118 7.206 4.118 0.575 0.327 1.219 0.492 1.863 0.496 7e-3 0 0.014 4e-3 0.021 4e-3s0.014-4e-3 0.021-4e-3c0.644-4e-3 1.289-0.168 1.863-0.496l7.206-4.118c1.181-0.675 1.914-1.938 1.914-3.298V7.916c0-1.359-0.733-2.623-1.912-3.299zM3.405 5.486l7.206-4.117c0.855-0.49 1.922-0.49 2.777 0l7.206 4.116c0.312 0.178 0.562 0.426 0.779 0.699l-9.396 5.24L2.745 6.03c0.192-0.209 0.407-0.399 0.66-0.544zM3.405 18.514c-0.87-0.498-1.41-1.43-1.41-2.431V7.916c0-0.363 0.093-0.708 0.225-1.035l9.28 5.422v10.631c-0.308-0.056-0.611-0.144-0.889-0.303zM22.005 16.083c0 1.001-0.54 1.933-1.41 2.43l-7.206 4.117c-0.278 0.159-0.581 0.248-0.889 0.303V12.276l9.355-5.218c0.089 0.275 0.15 0.56 0.15 0.856z" />
</svg>