<svg id="cucumber_Layer_1" viewBox="0 0 24 24" fill="currentColor" width="32" height="32" data-name="Layer 1" xmlns="http://www.w3.org/2000/svg" xmlns:xlink="http://www.w3.org/1999/xlink">
    <title>cucumber</title>
    <path d="M20.002 7.204c-0.699 1.922-1.74 3.763-3.043 5.446-5e-3 6e-3-0.01 0.013-0.014 0.019-2e-3 2e-3-3e-3 5e-3-5e-3 7e-3 0 0 0 0 0 0-0.183 0.232-0.467 0.382-0.786 0.382-0.552 0-1-0.448-1-1s0.448-1 1-1c0.223 0 0.43 0.073 0.596 0.197 0.743-1.058 1.377-2.173 1.883-3.324C18.262 7.785 18 7.423 18 7.001c0-0.552 0.448-1 1-1s1 0.448 1 1c0 0.067 2e-3 0.204 2e-3 0.203zM23.449 9.582c-0.287 0.868-0.625 1.708-1.009 2.52C22.772 12.265 23 12.606 23 13c0 0.552-0.448 1-1 1-0.181 0-0.351-0.048-0.497-0.132-2.234 3.778-5.56 6.783-9.621 8.66C11.957 22.669 12 22.829 12 23c0 0.552-0.448 1-1 1-0.454 0-0.837-0.303-0.959-0.717-0.151 0.054-0.302 0.107-0.454 0.159-1.118 0.377-2.365 0.566-3.578 0.566-2.68 0-5.2-0.925-5.844-2.808-0.724-2.13 1.047-4.606 3.482-6.178C3.554 14.87 3.5 14.691 3.5 14.5c0-0.552 0.448-1 1-1 0.408 0 0.758 0.244 0.914 0.594 0.121-0.05 0.242-0.097 0.363-0.142 2.271-0.834 3.838-1.784 5.081-3.082 1.178-1.128 2.064-2.507 2.837-4.418C13.292 6.323 13 5.945 13 5.499c0-0.552 0.448-1 1-1 0.169 0 0.327 0.042 0.466 0.115 1.489-2.905 4.333-5.264 6.741-4.449 2.713 0.927 3.433 5.822 2.242 9.417zM20.885 1.112c-0.229-0.078-0.466-0.115-0.707-0.115-1.989 0-4.313 2.487-5.281 5.123-0.879 2.388-1.937 4.121-3.331 5.457-1.32 1.379-3.055 2.437-5.444 3.314-2.956 1.085-5.727 3.876-5.009 5.986 0.662 1.937 4.779 2.752 8.156 1.616 6.332-2.132 11.155-6.952 13.231-13.227 1.121-3.384 0.306-7.5-1.615-8.154zM7.92 18.609c-0.159-0.373-0.539-0.63-0.975-0.607C6.434 18.029 6.016 18.458 6 18.969 5.983 19.536 6.437 20 7 20c0.072 0 0.141-8e-3 0.209-0.022 0 0 2.791-0.478 7.315-4.649 0.236-0.218 0.2-0.608-0.073-0.777-3e-3-2e-3-6e-3-4e-3-9e-3-6e-3-0.193-0.119-0.441-0.102-0.606 0.053-1.732 1.629-3.741 3.004-5.916 4.01z" />
</svg>