<svg id="cumin_Layer_1" viewBox="0 0 24 24" fill="currentColor" width="32" height="32" data-name="Layer 1" xmlns="http://www.w3.org/2000/svg" xmlns:xlink="http://www.w3.org/1999/xlink">
    <title>cumin</title>
    <path d="M20 6c-1.507 0-4 4.207-4 9 0 4.763 2.237 9 4 9s4-4.237 4-9c0-4.793-2.493-9-4-9zM17 15c0-3.506 1.368-6.236 2.295-7.395-0.345 1.437-0.962 4.433-0.962 7.455 0 3.15 0.671 6.214 1.004 7.544C18.341 21.584 17 18.688 17 15zM19.333 15.061c0-2.206 0.353-4.441 0.667-5.996 0.314 1.554 0.667 3.79 0.667 5.996s-0.353 4.41-0.667 5.936c-0.314-1.526-0.667-3.73-0.667-5.936zM20.663 22.605c0.333-1.33 1.004-4.394 1.004-7.544 0-3.022-0.617-6.018-0.962-7.455C21.632 8.765 23 11.495 23 15.001c0 3.688-1.341 6.585-2.337 7.604zM3.536 10.792c1.967 0 4.494-0.547 6.859-1.755 4.454-2.273 7.191-6.565 6.483-7.953-0.549-1.078-3.045-1.099-3.792-1.08-1.255 0.032-3.761 0.29-6.452 1.664C2.209 3.926-0.678 7.996 0.15 9.621c0.386 0.756 1.673 1.171 3.386 1.171zM9.94 8.146C6.563 9.869 3.283 10.03 1.812 9.62 3.303 9.282 6.238 8.485 9.33 6.907c2.898-1.479 5.159-3.249 6.377-4.296-0.688 1.433-2.564 3.9-5.767 5.535zM2.512 8.415C3.766 7.386 5.76 5.909 8.188 4.67c2.426-1.239 4.792-1.987 6.361-2.398-1.254 1.029-3.248 2.506-5.674 3.744-2.427 1.239-4.793 1.987-6.363 2.399zM7.089 2.558c2.329-1.188 4.603-1.551 6.271-1.551 0.627 0 1.167 0.051 1.594 0.129C13.392 1.507 10.631 2.3 7.733 3.78 4.641 5.357 2.274 7.266 1.126 8.276 1.657 6.844 3.711 4.282 7.089 2.558zM12.969 11.013c-1.954-0.15-5.516 0.977-8.297 3.372-3.66 3.151-5.461 7.672-4.313 9.025 0.282 0.333 0.749 0.527 1.39 0.577 0.106 8e-3 0.219 0.012 0.335 0.012 1.929 0 5.105-1.147 7.807-3.473 3.684-3.171 5.294-7.867 4.313-9.024-0.236-0.278-0.652-0.443-1.235-0.489zM5.324 15.143c2.586-2.226 5.444-3.014 6.995-3.125-1.397 0.717-3.78 2.087-6.138 4.118-2.52 2.169-4.304 4.483-5.172 5.715 0.204-1.489 1.561-4.337 4.315-6.708zM12.213 13.21c-0.951 1.259-2.479 3.083-4.456 4.785-1.973 1.698-3.997 2.933-5.379 3.683 0.951-1.258 2.479-3.083 4.455-4.784 1.973-1.698 3.998-2.933 5.38-3.684zM9.238 19.769C6.707 21.948 3.696 23.039 2.016 23c1.347-0.674 3.883-2.086 6.393-4.247 2.348-2.021 4.058-4.168 4.982-5.448-0.354 1.531-1.572 4.243-4.153 6.464z" />
</svg>