<svg id="cup_togo_Layer_1" viewBox="0 0 24 24" fill="currentColor" width="32" height="32" data-name="Layer 1" xmlns="http://www.w3.org/2000/svg" xmlns:xlink="http://www.w3.org/1999/xlink">
    <title>cup-togo</title>
    <path d="M22.5 5h-1.189l-0.465-2.218C20.509 1.17 19.068 0 17.42 0H6.58C4.933 0 3.492 1.17 3.154 2.782L2.689 5H1.5C1.224 5 1 5.224 1 5.5S1.224 6 1.5 6h1.147l1.538 13.992C4.436 22.277 6.359 24 8.658 24h6.683c2.299 0 4.222-1.723 4.473-4.008L21.352 6H22.5C22.776 6 23 5.776 23 5.5S22.776 5 22.5 5zM4.132 2.987C4.374 1.836 5.403 1 6.579 1H17.42c1.177 0 2.206 0.836 2.447 1.987L20.289 5H3.711zM18.82 19.882C18.625 21.659 17.129 23 15.341 23H8.658c-1.788 0-3.284-1.34-3.479-3.118L5.082 19h13.835zM19.026 18.005c-9e-3 0-0.017-5e-3-0.026-5e-3H5c-0.01 0-0.018 5e-3-0.028 6e-3L4.202 11h15.594zM19.906 10H4.092l-0.44-4h16.693z" />
</svg>