<svg id="cup_straw_Layer_1" viewBox="0 0 24 24" fill="currentColor" width="32" height="32" data-name="Layer 1" xmlns="http://www.w3.org/2000/svg" xmlns:xlink="http://www.w3.org/1999/xlink">
    <title>cup-straw</title>
    <path d="M22.5 5h-9.06l0.337-2.686C13.872 1.565 14.511 1 15.265 1H19.5C19.776 1 20 0.776 20 0.5S19.776 0 19.5 0h-4.235c-1.257 0-2.323 0.941-2.48 2.189L12.433 5H1.5C1.224 5 1 5.224 1 5.5S1.224 6 1.5 6h1.056l1.656 14.027C4.48 22.292 6.4 24 8.681 24h6.639c2.28 0 4.201-1.708 4.469-3.973L21.445 6h1.056c0.276 0 0.5-0.224 0.5-0.5S22.777 5 22.5 5zM18.796 19.91C18.587 21.671 17.093 23 15.319 23H8.68c-1.773 0-3.268-1.329-3.477-3.09L3.561 6h16.876z" />
</svg>