<svg id="cupcake_Layer_1" viewBox="0 0 24 24" fill="currentColor" width="32" height="32" data-name="Layer 1" xmlns="http://www.w3.org/2000/svg" xmlns:xlink="http://www.w3.org/1999/xlink">
    <title>cupcake</title>
    <path d="M2.547 15.002c0 0 3e-3 0 4e-3 0-2e-3 0-0.016 0-4e-3 0z" />
    <path d="M24 13c0-5.041-4.5-9.223-10.329-9.903C13.879 2.782 14 2.405 14 2c0-1.103-0.897-2-2-2s-2 0.897-2 2c0 0.405 0.121 0.782 0.329 1.097C4.501 3.777 0 7.957 0 12.981c-2e-3 0.06-0.043 1.466 0.801 2.342 0.342 0.355 0.771 0.571 1.278 0.646l0.817 4.36C3.295 22.456 5.155 24 7.319 24h9.361c2.164 0 4.023-1.544 4.422-3.671l0.818-4.36c0.507-0.075 0.936-0.291 1.278-0.646C24.043 14.447 24.002 13.041 24 13zM12 1c0.551 0 1 0.448 1 1s-0.449 1-1 1-1-0.448-1-1 0.449-1 1-1zM20.12 20.146C19.809 21.8 18.363 23 16.681 23H7.32c-1.683 0-3.13-1.2-3.44-2.854l-0.549-2.931C4.004 17.705 4.855 18 5.729 18c1.239 0 2.434-0.594 3.136-1.494 0.703 0.9 1.897 1.494 3.136 1.494s2.434-0.594 3.137-1.494C15.84 17.406 17.034 18 18.274 18c0.874 0 1.725-0.296 2.397-0.785zM22.475 14.632c-0.24 0.248-0.599 0.37-1.015 0.37-3e-3 0-7e-3 0-0.01 0-0.219-0.018-0.431 0.109-0.51 0.324C20.587 16.28 19.44 17 18.272 17s-2.314-0.72-2.667-1.673C15.533 15.131 15.346 15 15.136 15s-0.396 0.13-0.469 0.326C14.314 16.28 13.167 17 11.999 17s-2.314-0.72-2.667-1.674c-0.145-0.393-0.793-0.393-0.938 0C8.041 16.28 6.894 17 5.727 17s-2.315-0.72-2.668-1.674c-0.079-0.214-0.291-0.342-0.508-0.324 0 0 0 0-4e-3 0-0.417 0-0.783-0.122-1.022-0.37C0.975 14.066 1 13.028 1.001 13c0-4.963 4.935-9 11-9s11 4.037 11 9.017c0 0.011 0.025 1.049-0.526 1.615z" />
</svg>