<svg id="curling_Layer_1" viewBox="0 0 24 24" fill="currentColor" width="32" height="32" data-name="Layer 1" xmlns="http://www.w3.org/2000/svg" xmlns:xlink="http://www.w3.org/1999/xlink">
    <title>curling</title>
    <path d="M19.938 9.191l-0.385-1.54C19.162 6.09 17.766 5 16.157 5H6.012l0.28-1.259C6.651 2.127 8.056 1 9.709 1H17.5C17.776 1 18 0.776 18 0.5S17.776 0 17.5 0H9.709C7.584 0 5.777 1.449 5.315 3.524l-1.26 5.669C1.722 9.829 0 11.967 0 14.5v4C0 21.533 2.468 24 5.5 24h13c3.032 0 5.5-2.467 5.5-5.5v-4c0-2.535-1.725-4.675-4.062-5.309zM5.79 6h10.367c1.149 0 2.147 0.779 2.426 1.894l0.28 1.119c-0.12-8e-3-0.241-0.012-0.363-0.012h-13c-0.128 0-0.254 5e-3-0.38 0.013zM5.5 10h13c2.481 0 4.5 2.019 4.5 4.5V16H1v-1.5C1 12.019 3.019 10 5.5 10zM18.5 23h-13C3.019 23 1 20.981 1 18.5V17h22v1.5c0 2.481-2.019 4.5-4.5 4.5z" />
</svg>