<svg id="curling_iron_Layer_1" viewBox="0 0 24 24" fill="currentColor" width="32" height="32" data-name="Layer 1" xmlns="http://www.w3.org/2000/svg" xmlns:xlink="http://www.w3.org/1999/xlink">
    <title>curling-iron</title>
    <path d="M24 3c0-0.801-0.313-1.555-0.879-2.121-1.17-1.17-3.072-1.17-4.242 0L9 10.757V0.5C9 0.224 8.776 0 8.5 0S8 0.224 8 0.5v10.267c-0.02 5e-3-0.04 4e-3-0.06 0.012-1.785-0.644-3.792-0.224-5.161 1.146L1.954 12.75c-0.195 0.195-0.195 0.512 0 0.707s0.512 0.195 0.707 0l0.825-0.825c0.961-0.961 2.315-1.332 3.597-1.06l-5.977 5.977c-0.714 0.714-1.107 1.663-1.107 2.673s0.393 1.958 1.107 2.672 1.663 1.107 2.673 1.107 1.958-0.394 2.672-1.107l6.305-6.304 0.827 0.827c0.195 0.195 0.512 0.195 0.707 0s0.195-0.512 0-0.707l-1.379-1.379L23.12 5.122C23.686 4.556 23.999 3.802 24 3zM5.745 22.186c-1.051 1.051-2.882 1.051-3.931 0C1.289 21.662 1 20.963 1 20.221s0.289-1.441 0.814-1.966l6.304-6.304 3.932 3.931zM22.414 4.414 12.205 14.623 9.376 11.795 19.586 1.586c0.779-0.779 2.049-0.779 2.828 0C22.792 1.964 23 2.466 23 3s-0.208 1.036-0.586 1.414z" />
</svg>