<svg id="curve_arrow_Layer_1" viewBox="0 0 24 24" fill="currentColor" width="32" height="32" data-name="Layer 1" xmlns="http://www.w3.org/2000/svg" xmlns:xlink="http://www.w3.org/1999/xlink">
    <title>curve-arrow</title>
    <path d="M23.626 19.581l-2.244-2.42c-0.188-0.204-0.505-0.214-0.706-0.027-0.202 0.188-0.215 0.504-0.026 0.707l2.003 2.16h-2.152c-1.305 0-2.383-2.226-3.334-4.19-0.99-2.044-1.845-3.81-3.166-3.81s-2.176 1.766-3.166 3.81c-0.951 1.964-2.029 4.19-3.334 4.19h-0.5c-0.289 0-0.563-0.054-0.828-0.131 0.785-1.365 1.506-3.89 2.264-6.558 0.939-3.31 2.36-8.311 3.564-8.311 0.457 0 1.259 0.807 2.484 4.652 0.085 0.262 0.361 0.409 0.629 0.325 0.263-0.084 0.408-0.365 0.324-0.628-1.211-3.799-2.207-5.348-3.437-5.348-1.828 0-2.93 3.415-4.526 9.038-0.728 2.563-1.478 5.187-2.211 6.398-0.761-0.545-1.262-1.431-1.262-2.436V1.348l2.177 2.019C6.275 3.456 6.397 3.5 6.519 3.5c0.134 0 0.269-0.054 0.366-0.16 0.188-0.202 0.176-0.519-0.026-0.707L4.434 0.387C4.185 0.137 3.853 0 3.5 0v0C3.147 0 2.816 0.138 2.582 0.374L0.16 2.618c-0.202 0.188-0.215 0.504-0.026 0.707C0.321 3.528 0.64 3.539 0.84 3.352L3 1.349V17c0 2.206 1.794 4 4 4h15.652l-2.018 2.177c-0.188 0.202-0.176 0.519 0.026 0.707 0.096 0.089 0.218 0.133 0.34 0.133 0.134 0 0.269-0.054 0.366-0.16l2.247-2.423C23.862 21.184 24 20.853 24 20.5s-0.138-0.684-0.374-0.919zM11.733 16.247c0.701-1.446 1.572-3.246 2.267-3.246s1.565 1.8 2.267 3.246c0.682 1.407 1.38 2.834 2.247 3.754H9.487c0.867-0.92 1.566-2.346 2.246-3.754z" />
</svg>