<svg id="custard_Layer_1" viewBox="0 0 24 24" fill="currentColor" width="32" height="32" data-name="Layer 1" xmlns="http://www.w3.org/2000/svg" xmlns:xlink="http://www.w3.org/1999/xlink">
    <title>custard</title>
    <path d="M23.5 18h-1.581L19.648 5.131C19.225 2.737 17.155 1 14.724 1H9.275c-2.43 0-4.501 1.737-4.924 4.131L2.08 18H0.5C0.224 18 0 18.224 0 18.5S0.224 19 0.5 19H1v0.5C1 21.43 2.57 23 4.5 23h15c1.93 0 3.5-1.57 3.5-3.5V19h0.5c0.276 0 0.5-0.224 0.5-0.5S23.776 18 23.5 18zM9.275 2h5.449c1.837 0 3.403 1.248 3.857 3h-1.582c-1.103 0-2 0.897-2 2v3.5c0 0.275-0.225 0.5-0.5 0.5s-0.5-0.225-0.5-0.5V7c0-1.103-0.897-2-2-2s-2 0.897-2 2v6.5c0 0.275-0.224 0.5-0.5 0.5s-0.5-0.225-0.5-0.5V7c0-1.103-0.897-2-2-2H5.417c0.454-1.752 2.02-3 3.858-3zM5.213 6H7c0.551 0 1 0.448 1 1v6.5C8 14.327 8.673 15 9.5 15s1.5-0.673 1.5-1.5V7c0-0.552 0.449-1 1-1s1 0.448 1 1v3.5c0 0.827 0.673 1.5 1.5 1.5s1.5-0.673 1.5-1.5V7c0-0.552 0.448-1 1-1h1.787l2.117 12H3.096zM22 19.5c0 1.379-1.121 2.5-2.5 2.5h-15C3.122 22 2 20.879 2 19.5V19h20z" />
</svg>