<svg id="customize_Layer_1" viewBox="0 0 24 24" fill="currentColor" width="32" height="32" data-name="Layer 1" xmlns="http://www.w3.org/2000/svg" xmlns:xlink="http://www.w3.org/1999/xlink">
    <title>customize</title>
    <path d="M23.268 0.716c-0.975-0.975-2.561-0.976-3.535 0l-1.592 1.595c0 0-8e-3 4e-3-0.011 7e-3s-4e-3 8e-3-7e-3 0.011l-5.804 5.817c-0.838 0.838-1.318 1.997-1.318 3.182V12.5c0 0.276 0.224 0.5 0.5 0.5h1.172c1.185 0 2.344-0.48 3.182-1.318l7.414-7.431c0.473-0.473 0.732-1.101 0.732-1.768s-0.26-1.296-0.733-1.767zM15.147 10.975C14.496 11.626 13.593 12 12.672 12H12v-0.672c0-0.921 0.374-1.823 1.025-2.475l5.46-5.472 2.121 2.121zM22.561 3.544l-1.248 1.25-2.121-2.121 1.248-1.25c0.584-0.584 1.537-0.584 2.121 0C22.844 1.706 23 2.082 23 2.484s-0.156 0.777-0.439 1.06zM22.676 16.014c0.179 0.644 0.096 1.318-0.234 1.899-0.328 0.581-0.864 0.999-1.508 1.178-0.645 0.178-1.317 0.096-1.899-0.235l-0.751-0.425c-1.063 1.041-2.358 1.796-3.783 2.208V21.5c0 1.379-1.121 2.5-2.5 2.5s-2.5-1.121-2.5-2.5v-0.861c-1.425-0.412-2.72-1.167-3.783-2.208l-0.752 0.426c-0.582 0.33-1.258 0.409-1.898 0.234-0.644-0.179-1.18-0.597-1.509-1.179-0.329-0.58-0.412-1.255-0.233-1.898 0.178-0.644 0.597-1.18 1.178-1.509l0.748-0.423c-0.166-0.691-0.25-1.391-0.25-2.082s0.084-1.391 0.25-2.082L2.504 9.495c-0.581-0.33-1-0.865-1.178-1.509C1.147 7.342 1.23 6.668 1.56 6.087 1.888 5.506 2.424 5.088 3.068 4.909 3.713 4.733 4.385 4.813 4.967 5.144l0.751 0.425c1.063-1.041 2.358-1.796 3.783-2.208V2.5c0-1.379 1.121-2.5 2.5-2.5s2.5 1.121 2.5 2.5v1c0 0.276-0.224 0.5-0.5 0.5s-0.5-0.224-0.5-0.5v-1c0-0.827-0.673-1.5-1.5-1.5s-1.5 0.673-1.5 1.5v1.246c0 0.23-0.158 0.432-0.383 0.486C8.605 4.598 7.24 5.394 6.171 6.535 6.012 6.703 5.761 6.74 5.56 6.629L4.474 6.015C4.125 5.817 3.72 5.769 3.334 5.873 2.948 5.98 2.627 6.231 2.43 6.58 2.232 6.929 2.182 7.333 2.289 7.719 2.395 8.106 2.646 8.427 2.996 8.625l1.082 0.612c0.201 0.114 0.298 0.351 0.234 0.572C4.105 10.536 4 11.273 4 11.999s0.104 1.464 0.312 2.19c0.063 0.222-0.033 0.458-0.234 0.572l-1.083 0.613c-0.349 0.197-0.6 0.519-0.706 0.904-0.107 0.387-0.058 0.791 0.14 1.139 0.198 0.35 0.52 0.601 0.905 0.708 0.386 0.106 0.79 0.057 1.139-0.141l1.087-0.615c0.202-0.11 0.453-0.074 0.611 0.094 1.069 1.141 2.435 1.937 3.947 2.303 0.225 0.055 0.383 0.256 0.383 0.486v1.246c0 0.827 0.673 1.5 1.5 1.5s1.5-0.673 1.5-1.5v-1.246c0-0.23 0.158-0.432 0.383-0.486 1.513-0.366 2.878-1.162 3.947-2.303 0.158-0.169 0.409-0.206 0.611-0.094l1.086 0.614c0.35 0.198 0.755 0.248 1.14 0.142 0.386-0.107 0.707-0.358 0.904-0.707 0.198-0.349 0.248-0.753 0.141-1.14-0.106-0.386-0.357-0.707-0.706-0.904l-1.083-0.613c-0.201-0.114-0.298-0.351-0.234-0.572 0.207-0.727 0.312-1.464 0.312-2.19 0-0.471-0.044-0.944-0.129-1.409-0.051-0.271 0.129-0.532 0.4-0.582 0.267-0.054 0.532 0.128 0.582 0.4 0.098 0.524 0.146 1.06 0.146 1.591 0 0.691-0.084 1.391-0.25 2.082l0.748 0.423c0.581 0.329 1 0.865 1.177 1.51zM8.278 10.534c-0.444 1.128-0.349 2.402 0.269 3.59 0.294 0.564 0.767 1.037 1.331 1.331 1.187 0.617 2.461 0.712 3.59 0.269 1.079-0.426 1.92-1.297 2.306-2.39 0.094-0.26 0.379-0.396 0.639-0.305 0.26 0.093 0.396 0.378 0.305 0.639-0.483 1.366-1.534 2.454-2.883 2.985C13.248 16.885 12.631 17 12.006 17c-0.866 0-1.747-0.221-2.588-0.658-0.746-0.387-1.37-1.011-1.757-1.757-0.754-1.447-0.864-3.017-0.312-4.417 0.531-1.349 1.619-2.399 2.985-2.883 0.261-0.093 0.545 0.044 0.639 0.305 0.092 0.261-0.045 0.546-0.305 0.639-1.093 0.386-1.964 1.227-2.39 2.305z" />
</svg>