<svg id="CV_Layer_1" viewBox="0 0 24 24" fill="currentColor" width="32" height="32" data-name="Layer 1" xmlns="http://www.w3.org/2000/svg" xmlns:xlink="http://www.w3.org/1999/xlink">
    <title>CV</title>
    <path d="M6 5.5v3C6 9.327 6.673 10 7.5 10S9 9.327 9 8.5C9 8.224 9.224 8 9.5 8S10 8.224 10 8.5C10 9.879 8.878 11 7.5 11S5 9.879 5 8.5v-3C5 4.121 6.122 3 7.5 3S10 4.121 10 5.5C10 5.776 9.776 6 9.5 6S9 5.776 9 5.5C9 4.673 8.327 4 7.5 4S6 4.673 6 5.5zM13.02 10.846c0.369 0.19 0.805 0.205 1.191 0.041 0.404-0.168 0.709-0.537 0.814-0.985l1.493-6.025c0.078-0.315-0.16-0.62-0.485-0.62v0c-0.23 0-0.43 0.157-0.485 0.38l-1.495 6.031c-0.033 0.143-0.118 0.251-0.228 0.297-0.116 0.049-0.244 0.046-0.351-9e-3-0.105-0.054-0.181-0.149-0.206-0.261L11.67 3.629c-0.058-0.22-0.256-0.373-0.483-0.373-0.328 0-0.567 0.31-0.483 0.627l1.594 6.051c0.089 0.385 0.353 0.722 0.722 0.912zM22 4.5v9.515c0 1.735-0.676 3.368-1.904 4.597l-3.485 3.484C15.384 23.324 13.752 24 12.015 24H6.5C4.019 24 2 21.981 2 19.5v-15C2 2.019 4.019 0 6.5 0h11C19.981 0 22 2.019 22 4.5zM12.015 23c0.335 0 0.663-0.038 0.985-0.096V17.5c0-1.379 1.122-2.5 2.5-2.5h5.404C20.962 14.677 21 14.349 21 14.015V4.5C21 2.57 19.43 1 17.5 1h-11C4.57 1 3 2.57 3 4.5v15C3 21.43 4.57 23 6.5 23zM20.621 16h-5.12c-0.827 0-1.5 0.673-1.5 1.5v5.121c0.704-0.273 1.354-0.682 1.904-1.232l3.485-3.484c0.55-0.551 0.959-1.2 1.231-1.905z" />
</svg>