<svg id="dagger_Layer_1" viewBox="0 0 24 24" fill="currentColor" width="32" height="32" data-name="Layer 1" xmlns="http://www.w3.org/2000/svg" xmlns:xlink="http://www.w3.org/1999/xlink">
    <title>dagger</title>
    <path d="M19.207 5.5l4.647-4.646c0.195-0.195 0.195-0.512 0-0.707s-0.512-0.195-0.707 0L18.5 4.794 16.682 2.976C14.764 1.058 12.213 1e-3 9.5 1e-3 9.224 1e-3 9 0.225 9 0.501s0.224 0.5 0.5 0.5c2.181 0 4.244 0.758 5.892 2.147l-8.488 8.437c-2.428 2.428-4.439 5.211-5.98 8.274 0 0-0.932 1.861-0.94 1.901-0.136 0.617 0.05 1.252 0.496 1.699 0.351 0.35 0.816 0.54 1.299 0.54 0.133 0 0.267-0.015 0.399-0.044 0.041-9e-3 1.901-0.94 1.901-0.94 3.065-1.543 5.849-3.556 8.273-5.98l8.49-8.441C22.239 10.244 23 12.313 23 14.499c0 0.276 0.224 0.5 0.5 0.5s0.5-0.224 0.5-0.5c0-2.596-0.968-5.043-2.732-6.93-0.014-0.02-2.061-2.07-2.061-2.069zM11.646 16.328c-2.35 2.351-5.047 4.3-8.017 5.795L1.907 22.99c-0.271 0.042-0.527-0.043-0.722-0.237-0.193-0.194-0.278-0.454-0.237-0.721l0.867-1.723c1.493-2.967 3.443-5.665 5.794-8.016l8.514-8.463 1.67 1.67-9.646 9.646c-0.195 0.195-0.195 0.512 0 0.707 0.098 0.098 0.226 0.146 0.354 0.146s0.256-0.049 0.354-0.146l9.647-9.647 1.658 1.658z" />
</svg>