<svg id="daily_calendar_Layer_1" viewBox="0 0 24 24" fill="currentColor" width="32" height="32" data-name="Layer 1" xmlns="http://www.w3.org/2000/svg" xmlns:xlink="http://www.w3.org/1999/xlink">
    <title>daily-calendar</title>
    <path d="M11.272 13.575c-0.403 2.654-1.252 4.639-2.001 6.39l-0.309 0.729c-0.081 0.191-0.266 0.307-0.461 0.307-0.064 0-0.13-0.013-0.193-0.039-0.255-0.106-0.375-0.399-0.269-0.654l0.312-0.735c0.511-1.193 1.07-2.499 1.49-4.05-0.625 0.646-1.067 0.898-1.097 0.915-0.241 0.135-0.545 0.05-0.681-0.192-0.134-0.24-0.049-0.544 0.19-0.679 0.017-0.01 1.002-0.595 2.102-2.333 0.126-0.201 0.375-0.284 0.597-0.201s0.355 0.31 0.32 0.542zM18 9.992c0 4.623-1.291 8.679-2.373 11.269C14.931 22.925 13.305 24 11.484 24H2.548c-0.836 0-1.621-0.41-2.098-1.097-0.479-0.688-0.586-1.532-0.295-2.314 0.26-0.696 0.599-1.486 0.964-2.337 1.078-2.508 2.419-5.628 2.458-8.267 2e-3-0.146 0.068-0.284 0.18-0.377 0.353-0.293 0.975-0.611 1.507-0.616 0.537 0.014 1.017 0.173 1.41 0.5 0.789 0.655 1.937 0.655 2.726 0 0.806-0.667 1.974-0.668 2.78 0 0.789 0.655 1.937 0.655 2.726 0 0.388-0.322 0.881-0.5 1.39-0.5 0.547 0 1.173 0.313 1.523 0.604 0.109 0.09 0.175 0.255 0.181 0.396zM16.999 10.237c-0.232-0.142-0.519-0.245-0.703-0.245-0.276 0-0.542 0.096-0.751 0.269-1.152 0.956-2.851 0.956-4.003 0-0.436-0.362-1.067-0.361-1.502 0-1.152 0.956-2.851 0.956-4.003 0-0.212-0.176-0.483-0.246-0.763-0.269-0.179 1e-3-0.468 0.112-0.704 0.26-0.116 2.774-1.452 5.882-2.531 8.394-0.358 0.834-0.691 1.608-0.946 2.292-0.175 0.471-0.11 0.979 0.179 1.394C1.566 22.757 2.032 23 2.548 23h8.937c1.416 0 2.68-0.834 3.22-2.126 1.028-2.458 2.25-6.281 2.294-10.637zM24 4.5v13c0 2.481-2.019 4.5-4.5 4.5h-1c-0.276 0-0.5-0.224-0.5-0.5s0.224-0.5 0.5-0.5h1c1.93 0 3.5-1.57 3.5-3.5V7c-0.475 0-0.926-0.171-1.304-0.496C21.316 6.179 20.832 6 20.334 6s-0.983 0.179-1.362 0.504c-0.757 0.648-1.853 0.648-2.608 0-0.758-0.651-1.964-0.651-2.725 0-0.757 0.648-1.853 0.648-2.608 0-0.758-0.651-1.965-0.651-2.725 0C7.928 6.828 7.477 7 7.002 7h-0.5c-0.276 0-0.5-0.224-0.5-0.5v-2c0-2.481 2.019-4.5 4.5-4.5h9c2.481 0 4.5 2.019 4.498 4.5zM23 4.5C23 2.57 21.43 1 19.5 1h-9C8.57 1 7 2.57 7 4.5V6c0.233 0 0.458-0.088 0.654-0.255 1.121-0.961 2.905-0.961 4.026 0 0.391 0.334 0.92 0.333 1.307 0 1.122-0.961 2.905-0.96 4.026 0 0.388 0.333 0.917 0.334 1.308 0 1.121-0.961 2.905-0.961 4.026 0C22.542 5.912 22.768 6 23.001 6z" />
</svg>