<svg id="daisy_alt_Layer_1" viewBox="0 0 24 24" fill="currentColor" width="32" height="32" data-name="Layer 1" xmlns="http://www.w3.org/2000/svg" xmlns:xlink="http://www.w3.org/1999/xlink">
    <title>daisy-alt</title>
    <path d="M23.639 14.557c-0.331-0.395-0.826-0.605-1.334-0.555-5.583 0.521-8.47 4.368-9.805 6.969v-5.022c1.219-0.235 2.143-1.306 2.143-2.593 0-0.188-0.033-0.529-0.243-1.375 0.65 0.581 0.937 0.769 1.104 0.856 0.625 0.331 1.34 0.398 2.014 0.188 0.675-0.208 1.228-0.667 1.558-1.291 0.68-1.289 0.185-2.891-1.104-3.571-0.08-0.042-0.196-0.096-0.398-0.165 0.202-0.069 0.319-0.122 0.398-0.165 1.289-0.68 1.783-2.282 1.104-3.571-0.33-0.625-0.883-1.083-1.558-1.292-0.674-0.209-1.39-0.142-2.014 0.188-0.167 0.088-0.453 0.276-1.104 0.858 0.21-0.847 0.243-1.188 0.243-1.376 0-1.458-1.186-2.643-2.643-2.643S9.357 1.183 9.357 2.64c0 0.188 0.033 0.529 0.242 1.375-0.65-0.581-0.936-0.769-1.103-0.857-0.624-0.33-1.339-0.397-2.014-0.188-0.675 0.208-1.228 0.667-1.558 1.292-0.68 1.289-0.185 2.891 1.104 3.571 0.08 0.042 0.196 0.096 0.398 0.165C6.224 8.067 6.107 8.12 6.028 8.163c-1.289 0.68-1.783 2.282-1.103 3.571 0.33 0.625 0.882 1.083 1.557 1.291 0.674 0.21 1.39 0.143 2.014-0.188 0.167-0.088 0.453-0.276 1.103-0.855-0.209 0.845-0.242 1.186-0.242 1.374 0 1.286 0.924 2.358 2.143 2.593v5.022c-1.335-2.601-4.222-6.449-9.806-6.97-1.023-0.13-1.944 0.944-1.64 1.933 2.168 7.839 10.952 8.065 11.946 8.065s9.777-0.227 11.945-8.065c0.132-0.477 0.017-0.991-0.306-1.377zM18.19 11.269c-0.424 0.801-1.419 1.107-2.22 0.686-0.163-0.086-0.634-0.425-1.973-1.717 0.496-0.444 0.833-1.053 0.949-1.737 0.97-0.054 2.65 0.559 2.559 0.548 0.801 0.423 1.108 1.419 0.685 2.22zM15.97 4.046c0.388-0.206 0.833-0.247 1.252-0.117 0.419 0.129 0.763 0.415 0.968 0.803 0.423 0.801 0.115 1.797-0.686 2.22 0.074-6e-3-1.582 0.601-2.559 0.548-0.116-0.683-0.452-1.292-0.948-1.736 1.338-1.293 1.809-1.632 1.973-1.718zM12 1.001c0.906 0 1.643 0.737 1.643 1.643 0 0.184-0.08 0.758-0.599 2.544-0.651-0.243-1.439-0.243-2.091 0-0.517-1.786-0.597-2.36-0.597-2.545 0-0.906 0.737-1.643 1.644-1.642zM5.81 4.732c0.205-0.388 0.548-0.673 0.968-0.803 0.418-0.13 0.864-0.089 1.252 0.117 0.163 0.086 0.634 0.425 1.972 1.719C9.506 6.208 9.17 6.817 9.054 7.501 8.087 7.556 6.406 6.943 6.495 6.953 5.694 6.53 5.387 5.534 5.81 4.732zM8.03 11.955c-0.802 0.421-1.797 0.115-2.22-0.686s-0.115-1.797 0.686-2.22C6.42 9.056 8.074 8.45 9.055 8.501c0.116 0.684 0.452 1.293 0.949 1.737-1.338 1.292-1.81 1.631-1.974 1.717zM10 8c0-1.103 0.897-2 2-2s2 0.897 2 2-0.897 2-2 2-2-0.897-2-2zM10.357 13.357c0-0.184 0.08-0.758 0.597-2.545 0.651 0.243 1.438 0.243 2.09 0 0.519 1.786 0.599 2.36 0.599 2.544 0 0.906-0.737 1.643-1.643 1.643s-1.643-0.737-1.643-1.642zM1.018 15.668c-0.106-0.341 0.235-0.715 0.583-0.67 6.538 0.609 9.031 6.063 9.709 7.977-2.223-0.145-8.577-1.104-10.292-7.307zM22.981 15.668c-1.714 6.195-8.055 7.16-10.285 7.307 0.696-1.905 3.245-7.375 9.701-7.977 0.349-0.045 0.69 0.328 0.584 0.67z" />
</svg>