<svg id="daisy_Layer_1" viewBox="0 0 24 24" fill="currentColor" width="32" height="32" data-name="Layer 1" xmlns="http://www.w3.org/2000/svg" xmlns:xlink="http://www.w3.org/1999/xlink">
    <title>daisy</title>
    <path d="M24 12c0-1.717-1.397-3.114-3.114-3.114-0.148 0-0.512 0-2.249 0.364 1.486-0.971 1.743-1.228 1.848-1.333 1.214-1.214 1.214-3.189 0-4.403-1.215-1.214-3.189-1.214-4.403 0-0.104 0.104-0.359 0.359-1.334 1.855 0.366-1.743 0.366-2.108 0.366-2.256 0-1.717-1.397-3.114-3.114-3.114S8.886 1.396 8.886 3.113c0 0.148 0 0.512 0.364 2.249-0.971-1.486-1.228-1.743-1.333-1.848-1.214-1.214-3.19-1.214-4.403 0-1.214 1.214-1.214 3.189 0 4.403 0.104 0.104 0.361 0.361 1.848 1.333-1.737-0.364-2.101-0.364-2.249-0.364C1.397 8.886 0 10.283 0 12s1.397 3.114 3.114 3.114c0.148 0 0.512 0 2.249-0.364-1.486 0.971-1.743 1.228-1.848 1.333-1.214 1.214-1.214 3.189 0 4.403 1.215 1.214 3.189 1.214 4.403 0 0.104-0.104 0.361-0.361 1.333-1.848-0.364 1.737-0.364 2.101-0.364 2.249 0 1.717 1.397 3.114 3.114 3.114s3.114-1.397 3.114-3.114c0-0.147 0-0.509-0.369-2.255 0.975 1.492 1.232 1.75 1.337 1.854 1.214 1.214 3.19 1.213 4.403 0 1.214-1.214 1.214-3.189 0-4.403-0.104-0.104-0.361-0.361-1.848-1.333 1.737 0.364 2.101 0.364 2.249 0.364 1.717 0 3.114-1.397 3.113-3.114zM16.789 4.222c0.824-0.824 2.165-0.825 2.989 0 0.824 0.824 0.824 2.166 0 2.989 0.331-0.213-3.079 2.398-5.237 3.195-0.241-0.382-0.566-0.707-0.948-0.948 0 0 1.715-3.458 3.196-5.236zM14 12c0 1.103-0.897 2-2 2s-2-0.897-2-2 0.897-2 2-2 2 0.897 2 2zM12 1c1.166 0 2.114 0.948 2.114 2.114 0.086-0.409-0.478 3.828-1.443 5.962-0.432-0.1-0.911-0.098-1.342 0-1.048-2.54-1.437-5.805-1.442-5.962C9.887 1.948 10.835 1 12 1zM4.222 7.211c-0.869-0.776-0.824-2.165 0-2.989 0.824-0.825 2.165-0.824 2.989 0-0.213-0.331 2.398 3.079 3.195 5.237-0.382 0.241-0.707 0.565-0.947 0.948 0 0-3.19-1.369-5.237-3.196zM3.114 14.114C1.948 14.114 1 13.166 1 12s0.948-2.114 2.114-2.114c-0.376-0.081 3.85 0.476 5.961 1.444-0.1 0.428-0.1 0.913 0 1.341-2.54 1.048-5.804 1.437-5.961 1.443zM7.211 19.779c-0.824 0.824-2.165 0.824-2.989 0s-0.824-2.166 0-2.989c-0.331 0.213 3.079-2.398 5.237-3.195 0.241 0.382 0.565 0.707 0.948 0.947 0 0-1.099 2.497-3.196 5.237zM12 23.001c-1.166 0-2.114-0.948-2.114-2.114-0.081 0.376 0.476-3.85 1.443-5.962 0.432 0.1 0.91 0.1 1.341 0 1.053 2.569 1.433 5.77 1.443 5.962 0 1.166-0.948 2.114-2.113 2.114zM19.778 16.79c0.845 0.802 0.824 2.165 0 2.989-0.825 0.824-2.166 0.824-2.989 0 0.221 0.339-2.368-3.044-3.195-5.237 0.382-0.241 0.707-0.566 0.948-0.948 0 0 3.92 1.946 5.236 3.196zM14.924 12.671c0.1-0.428 0.1-0.913 0-1.341 2.538-1.048 5.806-1.438 5.962-1.443 1.166 0 2.114 0.948 2.114 2.114s-0.948 2.114-2.114 2.114c-1.54 0-5.961-1.444-5.962-1.444z" />
</svg>