<svg id="damage_Layer_1" viewBox="0 0 24 24" fill="currentColor" width="32" height="32" data-name="Layer 1" xmlns="http://www.w3.org/2000/svg" xmlns:xlink="http://www.w3.org/1999/xlink">
    <title>damage</title>
    <path d="M19.5 0h-15C2.019 0 0 2.019 0 4.5v15C0 21.981 2.019 24 4.5 24h15c2.481 0 4.5-2.019 4.5-4.5v-15C24 2.019 21.981 0 19.5 0zM23 19.5c0 0.785-0.269 1.502-0.707 2.086l-5.44-5.44c-0.195-0.195-0.512-0.195-0.707 0s-0.195 0.512 0 0.707l5.44 5.44C21.002 22.731 20.284 23 19.5 23h-15c-1.268 0-2.371-0.685-2.985-1.698l9.709-4.854c0.247-0.124 0.347-0.424 0.224-0.671-0.124-0.247-0.424-0.346-0.671-0.224l-3.776 1.888V13.5c0-0.276-0.224-0.5-0.5-0.5s-0.5 0.224-0.5 0.5v4.441l-4.875 2.437c-0.074-0.282-0.125-0.573-0.125-0.878v-15c0-1.93 1.57-3.5 3.5-3.5h2.701l2.523 4.686C10.162 6.497 11.005 7 11.926 7h1.797l2.353 3.765C16.171 10.917 16.334 11 16.5 11c0.09 0 0.182-0.024 0.265-0.076 0.234-0.146 0.305-0.455 0.159-0.689L14.902 7H18.5C18.776 7 19 6.776 19 6.5S18.776 6 18.5 6h-6.574c-0.553 0-1.059-0.302-1.321-0.789L8.337 1H19.5C21.43 1 23 2.57 23 4.5z" />
</svg>