<svg id="dark_mode_Layer_1" viewBox="0 0 24 24" fill="currentColor" width="32" height="32" data-name="Layer 1" xmlns="http://www.w3.org/2000/svg" xmlns:xlink="http://www.w3.org/1999/xlink">
    <title>dark-mode</title>
    <path d="M5 4.5C5 4.224 5.224 4 5.5 4h2C7.776 4 8 4.224 8 4.5S7.776 5 7.5 5h-2C5.224 5 5 4.776 5 4.5zM0.5 5h2C2.776 5 3 4.776 3 4.5S2.776 4 2.5 4h-2C0.224 4 0 4.224 0 4.5S0.224 5 0.5 5zM10.5 5h12.204l-3.145 3.144c-0.195 0.195-0.195 0.512 0 0.707 0.098 0.098 0.226 0.146 0.354 0.146s0.256-0.049 0.354-0.146l3.299-3.298c0.58-0.581 0.58-1.525 0-2.105l-3.299-3.299c-0.195-0.195-0.512-0.195-0.707 0s-0.195 0.512 0 0.707L22.704 4H10.5C10.224 4 10 4.224 10 4.5S10.224 5 10.5 5zM24 15.5v4c0 2.481-2.019 4.5-4.5 4.5h-15C2.019 24 0 21.981 0 19.5v-4C0 13.019 2.019 11 4.5 11h15c2.481 0 4.5 2.019 4.5 4.5zM4.5 23h7V12h-7C2.57 12 1 13.57 1 15.5v4C1 21.43 2.57 23 4.5 23zM23 15.5c0-1.93-1.57-3.5-3.5-3.5h-7v11h7c1.93 0 3.5-1.57 3.5-3.5zM20.194 19.993c-7e-3 0.383-0.247 0.708-0.611 0.831-0.416 0.139-0.854 0.196-1.292 0.171-1.777-0.104-3.192-1.52-3.291-3.293-0.055-0.974 0.283-1.899 0.951-2.605 0.912-0.964 2.372-1.337 3.623-0.922 0.367 0.122 0.61 0.449 0.619 0.835 9e-3 0.387-0.221 0.727-0.585 0.865-0.3 0.114-0.554 0.304-0.754 0.564-0.474 0.616-0.474 1.509 0 2.124v0c0.2 0.261 0.454 0.451 0.754 0.565 0.364 0.138 0.594 0.478 0.586 0.865zM18.996 19.949c-0.363-0.184-0.683-0.449-0.936-0.777-0.757-0.984-0.757-2.359 0-3.343 0.253-0.328 0.573-0.593 0.936-0.776-0.164-0.034-0.332-0.052-0.501-0.052-0.694 0-1.34 0.278-1.817 0.783-0.477 0.504-0.718 1.166-0.679 1.862 0.07 1.246 1.103 2.278 2.351 2.351 0.218 0.012 0.436-3e-3 0.646-0.048zM9.428 19.561c-0.094 0.156-0.259 0.242-0.429 0.242-0.088 0-0.176-0.023-0.257-0.071l-0.857-0.515c-0.018-0.011-0.028-0.028-0.044-0.04-0.353 0.387-0.819 0.668-1.352 0.774 2e-3 0.017 0.01 0.032 0.01 0.05v1c0 0.276-0.224 0.5-0.5 0.5s-0.5-0.224-0.5-0.5v-1c0-0.018 8e-3-0.032 0.01-0.05-0.533-0.106-0.999-0.387-1.352-0.774-0.016 0.012-0.026 0.029-0.044 0.04l-0.857 0.515c-0.081 0.048-0.169 0.071-0.257 0.071-0.17 0-0.335-0.086-0.429-0.242-0.142-0.237-0.065-0.544 0.171-0.687l0.857-0.515c0.018-0.011 0.038-0.012 0.056-0.02-0.204-0.522-0.203-1.16 1e-3-1.682-0.019-8e-3-0.039-5e-3-0.057-0.016l-0.857-0.515c-0.236-0.143-0.313-0.45-0.171-0.687 0.142-0.236 0.448-0.313 0.687-0.171l0.857 0.515c0.018 0.011 0.028 0.028 0.044 0.04 0.353-0.387 0.819-0.668 1.352-0.774-2e-3-0.017-0.01-0.032-0.01-0.05v-1c0-0.276 0.224-0.5 0.5-0.5s0.5 0.224 0.5 0.5v1c0 0.018-8e-3 0.032-0.01 0.05 0.533 0.106 0.999 0.387 1.352 0.774 0.016-0.012 0.026-0.029 0.044-0.04l0.857-0.515c0.237-0.142 0.544-0.065 0.687 0.171 0.142 0.237 0.065 0.544-0.171 0.687l-0.857 0.515c-0.018 0.011-0.039 8e-3-0.057 0.016 0.204 0.522 0.205 1.16 1e-3 1.682 0.018 8e-3 0.038 9e-3 0.056 0.02l0.857 0.515c0.236 0.143 0.313 0.45 0.169 0.687zM7.499 17.5c0-0.827-0.673-1.5-1.5-1.5s-1.5 0.673-1.5 1.5 0.673 1.5 1.5 1.5 1.5-0.673 1.5-1.5z" />
</svg>