<svg id="dark_mode_alt_Layer_1" viewBox="0 0 24 24" fill="currentColor" width="32" height="32" data-name="Layer 1" xmlns="http://www.w3.org/2000/svg" xmlns:xlink="http://www.w3.org/1999/xlink">
    <title>dark-mode-alt</title>
    <path d="M12 12c3.309 0 6-2.691 6-6s-2.691-6-6-6-6 2.691-6 6 2.691 6 6 6zM12 1c2.757 0 5 2.243 5 5s-2.243 5-5 5-5-2.243-5-5 2.243-5 5-5zM11.84 9.494c0.438 0.025 0.875-0.032 1.292-0.171 0.363-0.122 0.603-0.448 0.61-0.831 8e-3-0.388-0.223-0.728-0.586-0.866-0.301-0.114-0.554-0.304-0.754-0.564v0c-0.474-0.615-0.474-1.508 0-2.124 0.2-0.261 0.454-0.451 0.754-0.564 0.364-0.138 0.594-0.478 0.586-0.865-9e-3-0.386-0.252-0.713-0.62-0.835-1.25-0.415-2.711-0.042-3.623 0.922C8.832 4.302 8.494 5.227 8.549 6.2c0.099 1.774 1.514 3.19 3.291 3.294zM10.226 4.283C10.704 3.778 11.349 3.5 12.043 3.5c0.169 0 0.337 0.018 0.501 0.052C12.181 3.735 11.861 4 11.608 4.328c-0.757 0.984-0.757 2.359 0 3.343 0.252 0.328 0.572 0.593 0.936 0.777-0.21 0.045-0.428 0.06-0.646 0.048-1.249-0.073-2.281-1.105-2.351-2.352-0.039-0.696 0.202-1.357 0.679-1.861zM16 12c2.206 0 4 1.794 4 4s-1.794 4-4 4-4-1.794-4-4 1.794-4 4-4zM24 16c0 4.411-3.589 8-8 8H8c-4.411 0-8-3.589-8-8 0-2.799 1.425-5.347 3.811-6.817 0.234-0.145 0.542-0.071 0.688 0.164 0.145 0.235 0.072 0.543-0.164 0.688C2.247 11.321 1 13.551 1 16c0 3.86 3.14 7 7 7h8c3.859 0 7-3.14 7-7 0-2.458-1.253-4.691-3.353-5.976-0.235-0.145-0.31-0.452-0.166-0.688 0.145-0.237 0.453-0.31 0.688-0.166C22.568 10.638 24 13.191 24 16z" />
</svg>