<svg id="dart_Layer_1" viewBox="0 0 24 24" fill="currentColor" width="32" height="32" data-name="Layer 1" xmlns="http://www.w3.org/2000/svg" xmlns:xlink="http://www.w3.org/1999/xlink">
    <title>dart</title>
    <path d="M20.5 0h-1.757c-0.935 0-1.813 0.364-2.475 1.025l-3.242 3.242c-0.651 0.651-1.025 1.553-1.025 2.475V10.5c0 0.037 0.013 0.069 0.021 0.104-3.387 2.539-8.725 6.565-9.289 7.128-0.854 0.854-0.959 2.176-0.318 3.146l-2.269 2.268c-0.195 0.195-0.195 0.512 0 0.707 0.098 0.098 0.226 0.146 0.354 0.146s0.256-0.049 0.354-0.146l2.268-2.268c0.405 0.269 0.881 0.414 1.379 0.414 0.668 0 1.296-0.26 1.768-0.732 0.564-0.564 4.589-5.902 7.128-9.289 0.035 8e-3 0.067 0.021 0.104 0.021h3.757c0.935 0 1.813-0.364 2.475-1.025l3.242-3.242C23.626 7.081 24 6.179 24 5.257V3.499c0-1.93-1.57-3.5-3.5-3.499zM5.561 20.561c-0.566 0.566-1.555 0.566-2.121 0-0.585-0.585-0.585-1.536 0-2.121 0.477-0.478 5.421-4.214 9.08-6.958-2.745 3.658-6.481 8.602-6.959 9.079zM23 5.258c0 0.658-0.267 1.303-0.732 1.768l-3.242 3.242C18.553 10.741 17.925 11 17.258 11H14.13c0.609-0.813 1.063-1.422 1.25-1.672l4.474-4.474c0.195-0.195 0.195-0.512 0-0.707s-0.512-0.195-0.707 0l-4.476 4.476c-0.251 0.187-0.859 0.641-1.67 1.248V6.742c0-0.658 0.267-1.303 0.732-1.768l3.242-3.242C17.448 1.259 18.076 1 18.743 1H20.5C21.878 1 23 2.121 23 3.5z" />
</svg>