<svg id="dashboard_panel_Layer_1" viewBox="0 0 24 24" fill="currentColor" width="32" height="32" data-name="Layer 1" xmlns="http://www.w3.org/2000/svg" xmlns:xlink="http://www.w3.org/1999/xlink">
    <title>dashboard-panel</title>
    <path d="M21 7.5C21 7.776 20.776 8 20.5 8h-3C17.224 8 17 7.776 17 7.5S17.224 7 17.5 7h3C20.776 7 21 7.224 21 7.5zM20.5 10h-3c-0.276 0-0.5 0.224-0.5 0.5s0.224 0.5 0.5 0.5h3c0.276 0 0.5-0.224 0.5-0.5S20.776 10 20.5 10zM20.5 13h-3c-0.276 0-0.5 0.224-0.5 0.5s0.224 0.5 0.5 0.5h3c0.276 0 0.5-0.224 0.5-0.5S20.776 13 20.5 13zM20.5 16h-3c-0.276 0-0.5 0.224-0.5 0.5s0.224 0.5 0.5 0.5h3c0.276 0 0.5-0.224 0.5-0.5S20.776 16 20.5 16zM24 7.5v9c0 2.481-2.019 4.5-4.5 4.5h-15C2.019 21 0 18.981 0 16.5v-9C0 5.019 2.019 3 4.5 3h15C21.981 3 24 5.019 24 7.5zM23 7.5C23 5.57 21.43 4 19.5 4h-15C2.57 4 1 5.57 1 7.5v9C1 18.43 2.57 20 4.5 20h15c1.93 0 3.5-1.57 3.5-3.5zM15 12c0 3.309-2.691 6-6 6s-6-2.691-6-6 2.691-6 6-6 6 2.691 6 6zM9 17c1.198 0 2.284-0.441 3.146-1.146l-3.207-3.207C8.656 12.364 8.5 11.987 8.5 11.586V7.051C5.98 7.306 4 9.415 4 12c0 2.757 2.243 5 5 5zM14 12c0-2.586-1.98-4.694-4.5-4.949v4.535c0 0.131 0.054 0.26 0.146 0.354l3.207 3.207C13.559 14.285 14 13.199 14 12z" />
</svg>