<svg id="dashboard_Layer_1" viewBox="0 0 24 24" fill="currentColor" width="32" height="32" data-name="Layer 1" xmlns="http://www.w3.org/2000/svg" xmlns:xlink="http://www.w3.org/1999/xlink">
    <title>dashboard</title>
    <path d="M23.235 8.817c-1.565-4.206-5.432-7.243-9.85-7.739-3.468-0.387-6.801 0.667-9.381 2.973C1.46 6.326 0 9.588 0 13c0 3.073 1.261 6.138 3.459 8.408C4.438 22.42 5.85 23 7.333 23h9.332c1.488 0 2.908-0.587 3.896-1.611 3.271-3.396 4.297-8.213 2.674-12.572zM19.841 20.694C19.04 21.524 17.882 22 16.664 22H7.333c-1.214 0-2.364-0.469-3.155-1.287C2.158 18.627 1 15.816 1 13 1 9.872 2.338 6.883 4.672 4.796 6.715 2.97 9.273 1.999 11.984 1.999c0.427 0 0.857 0.024 1.291 0.073 4.046 0.454 7.588 3.238 9.023 7.095 1.487 3.994 0.546 8.411-2.457 11.527zM17.853 7.146c-0.195-0.195-0.512-0.195-0.707 0l-4.137 4.137c-0.297-0.176-0.64-0.284-1.009-0.284-1.103 0-2 0.897-2 2s0.897 2 2 2 2-0.897 2-2c0-0.37-0.108-0.712-0.284-1.009l4.137-4.137c0.195-0.195 0.195-0.512 0-0.707zM11.999 14c-0.552 0-1-0.448-1-1s0.448-1 1-1 1 0.448 1 1-0.448 1-1 1zM19.333 9.8c0.442 1.012 0.666 2.088 0.666 3.2 0 1.972-0.724 3.866-2.038 5.334-0.099 0.109-0.235 0.166-0.372 0.166-0.119 0-0.238-0.042-0.334-0.128-0.205-0.184-0.223-0.5-0.038-0.706 1.149-1.283 1.782-2.94 1.782-4.666 0-0.974-0.196-1.915-0.582-2.8-0.11-0.253 5e-3-0.548 0.258-0.658 0.254-0.107 0.548 5e-3 0.658 0.258zM11.999 6c-3.859 0-7 3.141-7 7 0 1.726 0.633 3.383 1.782 4.666 0.185 0.206 0.167 0.522-0.038 0.706C6.647 18.458 6.528 18.5 6.409 18.5c-0.137 0-0.273-0.057-0.372-0.166C4.723 16.866 3.999 14.972 3.999 13c0-4.411 3.589-8 8-8 1.112 0 2.188 0.224 3.2 0.666 0.253 0.11 0.368 0.405 0.258 0.658s-0.404 0.368-0.658 0.258C13.914 6.196 12.973 6 11.999 6z" />
</svg>