<svg id="dashboard_monitor_Layer_1" viewBox="0 0 24 24" fill="currentColor" width="32" height="32" data-name="Layer 1" xmlns="http://www.w3.org/2000/svg" xmlns:xlink="http://www.w3.org/1999/xlink">
    <title>dashboard-monitor</title>
    <path d="M21 5.5C21 5.776 20.776 6 20.5 6h-3C17.224 6 17 5.776 17 5.5S17.224 5 17.5 5h3C20.776 5 21 5.224 21 5.5zM20.5 8h-3C17.224 8 17 8.224 17 8.5S17.224 9 17.5 9h3C20.776 9 21 8.776 21 8.5S20.776 8 20.5 8zM20.5 11h-3c-0.276 0-0.5 0.224-0.5 0.5s0.224 0.5 0.5 0.5h3c0.276 0 0.5-0.224 0.5-0.5S20.776 11 20.5 11zM20.5 14h-3c-0.276 0-0.5 0.224-0.5 0.5s0.224 0.5 0.5 0.5h3c0.276 0 0.5-0.224 0.5-0.5S20.776 14 20.5 14zM15 10c0 1.649-0.669 3.145-1.75 4.231-3e-3 3e-3-4e-3 8e-3-8e-3 0.011s-8e-3 4e-3-0.011 8e-3C12.145 15.331 10.65 16 9 16c-3.309 0-6-2.691-6-6s2.691-6 6-6 6 2.691 6 6zM9.5 5.051v4.535c0 0.131 0.054 0.26 0.146 0.354l3.207 3.207c0.705-0.862 1.146-1.948 1.146-3.146 0-2.586-1.98-4.694-4.499-4.95zM9 15c1.198 0 2.284-0.441 3.146-1.146l-3.207-3.207C8.656 10.364 8.5 9.987 8.5 9.586V5.051C5.98 5.306 4 7.415 4 10c0 2.757 2.243 5 5 5zM24 5.5v9c0 2.481-2.019 4.5-4.5 4.5h-7v3h5c0.276 0 0.5 0.224 0.5 0.5S17.776 23 17.5 23h-11C6.224 23 6 22.776 6 22.5S6.224 22 6.5 22h5v-3h-7C2.019 19 0 16.981 0 14.5v-9C0 3.019 2.019 1 4.5 1h15C21.981 1 24 3.019 24 5.5zM23 5.5C23 3.57 21.43 2 19.5 2h-15C2.57 2 1 3.57 1 5.5v9C1 16.43 2.57 18 4.5 18h15c1.93 0 3.5-1.57 3.5-3.5z" />
</svg>