<svg id="data_backup_Layer_1" viewBox="0 0 24 24" fill="currentColor" width="32" height="32" data-name="Layer 1" xmlns="http://www.w3.org/2000/svg" xmlns:xlink="http://www.w3.org/1999/xlink">
    <title>data-backup</title>
    <path d="M4.5 13C2.829 13 0 13.369 0 14.75v7.583C0 23.648 2.829 24 4.5 24S9 23.649 9 22.333V14.75C9 13.369 6.171 13 4.5 13zM8.008 19.782C7.875 19.996 6.694 20.5 4.5 20.5c-2.151 0-3.33-0.484-3.5-0.705v-1.349c0.976 0.419 2.461 0.555 3.5 0.555s2.53-0.137 3.506-0.557zM8.004 17.286C7.861 17.502 6.683 18 4.5 18 2.349 18 1.17 17.516 1 17.295v-1.377c0.976 0.44 2.461 0.582 3.5 0.582s2.526-0.143 3.502-0.583zM4.5 14c2.216 0 3.405 0.558 3.505 0.721C7.905 14.943 6.716 15.5 4.5 15.5c-2.123 0-3.304-0.512-3.486-0.75C1.197 14.512 2.377 14 4.5 14zM4.5 23c-2.205 0-3.389-0.509-3.5-0.667v-1.388C1.976 21.364 3.461 21.5 4.5 21.5s2.534-0.137 3.51-0.558l2e-3 1.337C7.889 22.491 6.705 23.001 4.5 23zM13 10c0-0.552 0.448-1 1-1s1 0.448 1 1-0.448 1-1 1-1-0.448-1-1zM23.5 7h-12C11.224 7 11 7.224 11 7.5v3c0 1.378 1.121 2.5 2.5 2.5h8c1.379 0 2.5-1.122 2.5-2.5v-3C24 7.224 23.776 7 23.5 7zM23 10.5c0 0.827-0.673 1.5-1.5 1.5h-8c-0.827 0-1.5-0.673-1.5-1.5V8h11zM17 10c0-0.276 0.224-0.5 0.5-0.5h3c0.276 0 0.5 0.224 0.5 0.5s-0.224 0.5-0.5 0.5h-3c-0.276 0-0.5-0.224-0.5-0.5zM15 3c0 0.552-0.448 1-1 1s-1-0.448-1-1 0.448-1 1-1 1 0.448 1 1zM21.5 0h-8C12.121 0 11 1.122 11 2.5v3C11 5.776 11.224 6 11.5 6h12C23.776 6 24 5.776 24 5.5v-3C24 1.122 22.879 0 21.5 0zM23 5H12V2.5C12 1.673 12.673 1 13.5 1h8C22.327 1 23 1.673 23 2.5zM21 3c0 0.276-0.224 0.5-0.5 0.5h-3C17.224 3.5 17 3.276 17 3s0.224-0.5 0.5-0.5h3C20.776 2.5 21 2.724 21 3zM9 2.5C9 2.776 8.776 3 8.5 3h-2C5.121 3 4 4.122 4 5.5v3.199l2.154-2.06C6.353 6.448 6.67 6.456 6.861 6.655c0.19 0.2 0.184 0.516-0.016 0.707L4.525 9.58C4.257 9.848 3.89 10 3.5 10S2.742 9.848 2.467 9.572L0.154 7.361C-0.045 7.17-0.052 6.854 0.138 6.654 0.327 6.455 0.646 6.447 0.845 6.638l2.154 2.06V5.5c0-1.93 1.57-3.5 3.5-3.5h2C8.775 2 8.999 2.224 9 2.5zM20 15.5v2c0 1.93-1.57 3.5-3.5 3.5h-3.199l2.061 2.154c0.19 0.2 0.184 0.516-0.016 0.707-0.199 0.191-0.516 0.184-0.707-0.016l-2.219-2.32c-0.562-0.562-0.562-1.49 8e-3-2.06l2.211-2.312c0.192-0.198 0.508-0.206 0.707-0.016 0.199 0.191 0.206 0.507 0.016 0.707l-2.06 2.154h3.199c1.379 0 2.5-1.122 2.5-2.5v-2c0-0.276 0.224-0.5 0.5-0.5s0.5 0.224 0.499 0.502z" />
</svg>