<svg id="data_cleaning_Layer_1" viewBox="0 0 24 24" fill="currentColor" width="32" height="32" data-name="Layer 1" xmlns="http://www.w3.org/2000/svg" xmlns:xlink="http://www.w3.org/1999/xlink">
    <title>data-cleaning</title>
    <path d="M23.724 6.553c-0.246-0.121-0.547-0.023-0.671 0.224l-3.635 7.269-1.436-0.773c-1.044-0.562-2.328-0.226-2.985 0.784-0.728 1.118-1.643 2.273-2.647 3.34-0.378 0.401-0.564 0.944-0.513 1.49 0.051 0.537 0.331 1.026 0.767 1.343 0.658 0.476 1.376 0.943 2.077 1.352 0.349 0.203 0.785 0.22 1.163 0.039 0.38-0.183 1.173-0.603 2-1.287-0.1 0.399-0.242 0.775-0.419 1.178-0.286 0.622 0.032 1.424 0.683 1.654l0.379 0.141c0.841 0.306 1.819 0.011 2.332-0.741 1.079-1.571 1.797-3.174 2.133-4.764 0.207-0.981-0.268-1.998-1.152-2.473l-1.501-0.808 3.648-7.296c0.123-0.247 0.023-0.547-0.223-0.672zM21.327 16.209c0.496 0.267 0.762 0.836 0.646 1.385-0.309 1.461-0.975 2.942-1.979 4.404-0.257 0.372-0.74 0.521-1.167 0.367l-0.365-0.135c-0.139-0.062-0.168-0.196-0.121-0.318 0.395-0.9 0.658-1.74 0.658-2.912 0-0.209-0.13-0.396-0.325-0.469-0.194-0.072-0.416-0.018-0.553 0.142-0.995 1.151-2.227 1.813-2.709 2.045-0.047 0.022-0.139 0.052-0.229 0-0.673-0.392-1.362-0.841-1.994-1.298-0.207-0.149-0.333-0.372-0.358-0.627-0.024-0.26 0.065-0.519 0.246-0.71 1.06-1.125 1.987-2.296 2.757-3.48 0.37-0.569 1.088-0.765 1.673-0.448zM13.5 23h-9C2.57 23 1 21.43 1 19.5v-9C1 8.57 2.57 7 4.5 7h1.556c0.541 0 1.082 0.128 1.565 0.37l2.311 1.155C10.554 8.836 11.25 9 11.945 9h7.556c0.276 0 0.5-0.224 0.5-0.5S19.777 8 19.501 8h-1.5V5.21c0-0.911-0.348-1.773-0.979-2.428l-1.647-1.71C14.719 0.391 13.8 0 12.854 0H7.501c-1.93 0-3.5 1.57-3.5 3.5v2.551c-2.244 0.252-4 2.139-4 4.449v9c0 2.481 2.019 4.5 4.5 4.5h9c0.276 0 0.5-0.224 0.5-0.5S13.777 23 13.5 23zM16.3 3.476C16.453 3.634 16.573 3.813 16.677 4H14.5C14.225 4 14 3.776 14 3.5V1.293c0.239 0.124 0.463 0.276 0.652 0.472zM7.5 1h5.353c0.05 0 0.098 0.012 0.147 0.015V3.5C13 4.327 13.673 5 14.5 5h2.48C16.986 5.07 17 5.139 17 5.21V8h-5.056c-0.541 0-1.082-0.128-1.565-0.37L8.068 6.475C7.446 6.164 6.75 6 6.055 6H4.999V3.5C4.999 2.122 6.121 1 7.5 1z" />
</svg>