<svg id="data_encryption_Layer_1" viewBox="0 0 24 24" fill="currentColor" width="32" height="32" data-name="Layer 1" xmlns="http://www.w3.org/2000/svg" xmlns:xlink="http://www.w3.org/1999/xlink">
    <title>data-encryption</title>
    <path d="M12 6.276V4.5C12 2.019 9.981 0 7.5 0S3 2.019 3 4.5v1.776C1.258 6.897 0 8.547 0 10.5v4C0 16.981 2.019 19 4.5 19h6c2.481 0 4.5-2.019 4.5-4.5v-4c0-1.953-1.258-3.602-3-4.224zM4 4.5C4 2.57 5.57 1 7.5 1S11 2.57 11 4.5v1.551C10.834 6.032 10.671 6 10.5 6h-6C4.329 6 4.166 6.032 4 6.051zM14 14.5c0 1.93-1.57 3.5-3.5 3.5h-6C2.57 18 1 16.43 1 14.5v-4C1 8.57 2.57 7 4.5 7h6c1.93 0 3.5 1.57 3.5 3.5zM8 11.5v2C8 13.776 7.776 14 7.5 14S7 13.776 7 13.5v-2C7 11.224 7.224 11 7.5 11S8 11.224 8 11.5zM17.5 8H20c1.378 0 2.5-1.122 2.5-2.5V3.929C23.36 3.705 24 2.929 24 2c0-1.103-0.897-2-2-2s-2 0.897-2 2c0 0.929 0.64 1.705 1.5 1.929V5.5C21.5 6.327 20.827 7 20 7h-2.5C17.224 7 17 7.224 17 7.5S17.224 8 17.5 8zM21 2c0-0.551 0.449-1 1-1s1 0.449 1 1-0.449 1-1 1-1-0.449-1-1zM22.5 20.071V18.5c0-1.378-1.122-2.5-2.5-2.5h-2.5c-0.276 0-0.5 0.224-0.5 0.5s0.224 0.5 0.5 0.5H20c0.827 0 1.5 0.673 1.5 1.5v1.571c-0.86 0.224-1.5 1-1.5 1.929 0 1.103 0.897 2 2 2s2-0.897 2-2c0-0.929-0.64-1.705-1.5-1.929zM22 23c-0.551 0-1-0.449-1-1s0.449-1 1-1 1 0.449 1 1-0.449 1-1 1zM22 10c-0.929 0-1.705 0.64-1.929 1.5H17.5c-0.276 0-0.5 0.224-0.5 0.5s0.224 0.5 0.5 0.5h2.571c0.224 0.86 1 1.5 1.929 1.5 1.103 0 2-0.897 2-2s-0.897-2-2-2zM22 13c-0.551 0-1-0.449-1-1s0.449-1 1-1 1 0.449 1 1-0.449 1-1 1z" />
</svg>