<svg id="database_management_Layer_1" viewBox="0 0 24 24" fill="currentColor" width="32" height="32" data-name="Layer 1" xmlns="http://www.w3.org/2000/svg" xmlns:xlink="http://www.w3.org/1999/xlink">
    <title>database-management</title>
    <path d="M17 15c-1.103 0-2 0.897-2 2s0.897 2 2 2 2-0.897 2-2-0.897-2-2-2zM17 18c-0.551 0-1-0.448-1-1s0.449-1 1-1 1 0.448 1 1-0.449 1-1 1zM22.506 18.478 21.86 18.101C21.954 17.715 22 17.353 22 17s-0.046-0.715-0.14-1.101l0.646-0.377c0.346-0.202 0.593-0.526 0.695-0.914s0.046-0.792-0.156-1.138c-0.417-0.714-1.337-0.957-2.052-0.539l-0.64 0.374c-0.537-0.488-1.167-0.851-1.853-1.068v-0.738c0-0.827-0.673-1.5-1.5-1.5s-1.5 0.673-1.5 1.5v0.738c-0.687 0.217-1.316 0.58-1.853 1.068l-0.641-0.374c-0.716-0.417-1.635-0.175-2.051 0.539-0.202 0.346-0.257 0.75-0.156 1.138 0.102 0.388 0.349 0.712 0.695 0.914l0.646 0.377C12.046 16.285 12 16.647 12 17s0.046 0.715 0.14 1.101l-0.646 0.377c-0.346 0.202-0.593 0.526-0.695 0.914s-0.046 0.792 0.156 1.138c0.416 0.715 1.336 0.957 2.052 0.539l0.64-0.374c0.537 0.488 1.167 0.852 1.853 1.067V22.5c0 0.827 0.673 1.5 1.5 1.5s1.5-0.673 1.5-1.5v-0.738c0.686-0.216 1.316-0.579 1.853-1.067l0.641 0.374c0.715 0.418 1.635 0.175 2.051-0.539 0.202-0.346 0.257-0.75 0.156-1.138-0.102-0.388-0.349-0.712-0.695-0.914zM22.182 20.026c-0.14 0.237-0.447 0.317-0.684 0.18l-0.971-0.567c-0.201-0.117-0.458-0.08-0.617 0.09-0.55 0.586-1.249 0.989-2.021 1.165-0.228 0.052-0.389 0.254-0.389 0.487v1.12c0 0.275-0.224 0.5-0.5 0.5s-0.5-0.225-0.5-0.5v-1.12c0-0.233-0.162-0.436-0.389-0.487-0.772-0.176-1.471-0.579-2.021-1.165-0.097-0.104-0.23-0.158-0.365-0.158-0.086 0-0.174 0.022-0.252 0.068l-0.97 0.567c-0.238 0.138-0.545 0.059-0.684-0.18-0.14-0.23-0.055-0.554 0.18-0.685l0.979-0.571c0.202-0.117 0.295-0.358 0.225-0.581-0.138-0.44-0.202-0.818-0.202-1.188s0.064-0.748 0.202-1.188c0.07-0.223-0.023-0.464-0.225-0.581l-0.979-0.571c-0.235-0.131-0.32-0.455-0.18-0.685 0.138-0.238 0.445-0.318 0.684-0.18l0.971 0.567c0.2 0.118 0.458 0.08 0.617-0.09 0.549-0.586 1.249-0.988 2.021-1.165 0.228-0.052 0.389-0.254 0.389-0.487v-1.12c0-0.276 0.224-0.5 0.5-0.5s0.5 0.224 0.5 0.5v1.12c0 0.233 0.161 0.436 0.389 0.487 0.773 0.177 1.472 0.579 2.021 1.165 0.16 0.17 0.417 0.208 0.617 0.09l0.97-0.567c0.237-0.138 0.545-0.06 0.684 0.18 0.14 0.23 0.055 0.554-0.18 0.685l-0.979 0.571c-0.202 0.117-0.295 0.358-0.225 0.581 0.138 0.44 0.202 0.818 0.202 1.188s-0.064 0.748-0.202 1.188c-0.07 0.223 0.023 0.464 0.225 0.581l0.979 0.571c0.235 0.131 0.32 0.455 0.18 0.685zM10.437 22.879c-0.63 0.081-1.282 0.122-1.937 0.122-4.065 0-7.5-1.603-7.5-3.5V16.65c1.419 1.411 4.213 2.351 7.5 2.351 0.276 0 0.5-0.224 0.5-0.5s-0.224-0.5-0.5-0.5c-4.065 0-7.5-1.603-7.5-3.5V11.65c1.419 1.411 4.213 2.351 7.5 2.351 0.276 0 0.5-0.224 0.5-0.5s-0.224-0.5-0.5-0.5c-4.065 0-7.5-1.603-7.5-3.5V6.65c1.419 1.411 4.213 2.351 7.5 2.351s6.081-0.94 7.5-2.351v0.851c0 0.276 0.224 0.5 0.5 0.5s0.5-0.224 0.5-0.5v-3C17 1.977 13.267 0 8.5 0S0 1.977 0 4.5v15C0 22.023 3.733 24 8.5 24c0.697 0 1.391-0.044 2.063-0.13 0.274-0.035 0.468-0.286 0.433-0.56s-0.284-0.467-0.559-0.431zM8.5 1C12.565 1 16 2.603 16 4.5S12.565 8 8.5 8 1 6.397 1 4.5 4.435 1 8.5 1z" />
</svg>