<svg id="data_processing_Layer_1" viewBox="0 0 24 24" fill="currentColor" width="32" height="32" data-name="Layer 1" xmlns="http://www.w3.org/2000/svg" xmlns:xlink="http://www.w3.org/1999/xlink">
    <title>data-processing</title>
    <path d="M4.758 22.519C2.475 21.886 1 20.702 1 19.5v-7.851C2.419 13.06 5.213 14 8.5 14 8.776 14 9 13.776 9 13.5S8.776 13 8.5 13C4.435 13 1 11.397 1 9.5V6.649C2.419 8.06 5.213 9 8.5 9s6.081-0.94 7.5-2.351V7.5C16 7.776 16.224 8 16.5 8S17 7.776 17 7.5v-3C17 1.977 13.267 0 8.5 0S0 1.977 0 4.5v15c0 1.714 1.679 3.202 4.492 3.981 0.044 0.013 0.089 0.019 0.134 0.019 0.219 0 0.42-0.146 0.481-0.366 0.074-0.267-0.083-0.542-0.349-0.615zM8.5 1C12.565 1 16 2.603 16 4.5S12.565 8 8.5 8 1 6.397 1 4.5 4.435 1 8.5 1zM17 15c-1.103 0-2 0.897-2 2s0.897 2 2 2 2-0.897 2-2-0.897-2-2-2zM17 18c-0.552 0-1-0.448-1-1s0.448-1 1-1 1 0.448 1 1-0.448 1-1 1zM22.506 18.478 21.86 18.101C21.954 17.716 22 17.353 22 17s-0.046-0.716-0.14-1.101l0.646-0.377c0.714-0.416 0.956-1.337 0.539-2.052-0.416-0.714-1.334-0.957-2.051-0.539l-0.642 0.374c-0.537-0.488-1.167-0.852-1.853-1.067V11.5c0-0.827-0.673-1.5-1.5-1.5s-1.5 0.673-1.5 1.5v0.738c-0.686 0.216-1.315 0.579-1.853 1.067l-0.641-0.374c-0.716-0.417-1.635-0.176-2.052 0.539-0.202 0.346-0.257 0.75-0.156 1.138 0.102 0.388 0.349 0.712 0.695 0.914l0.646 0.377c-0.094 0.386-0.14 0.748-0.14 1.101s0.046 0.715 0.14 1.101l-0.646 0.377c-0.346 0.202-0.593 0.526-0.695 0.914s-0.046 0.792 0.156 1.138c0.417 0.715 1.337 0.958 2.052 0.539l0.641-0.374c0.537 0.488 1.167 0.852 1.853 1.067V22.5c0 0.827 0.673 1.5 1.5 1.5s1.5-0.673 1.5-1.5v-0.738c0.686-0.216 1.315-0.579 1.853-1.067l0.642 0.374c0.717 0.419 1.635 0.174 2.051-0.539 0.417-0.715 0.175-1.636-0.539-2.052zM22.182 20.026c-0.139 0.237-0.445 0.317-0.684 0.18l-0.972-0.567c-0.2-0.117-0.457-0.081-0.616 0.09-0.551 0.586-1.249 0.989-2.021 1.165-0.228 0.052-0.389 0.254-0.389 0.487v1.12c0 0.275-0.225 0.5-0.5 0.5s-0.5-0.225-0.5-0.5v-1.12c0-0.233-0.161-0.436-0.389-0.487-0.772-0.176-1.471-0.579-2.021-1.165-0.097-0.104-0.229-0.158-0.364-0.158-0.087 0-0.174 0.022-0.252 0.068l-0.971 0.567c-0.238 0.137-0.545 0.059-0.684-0.18-0.14-0.23-0.055-0.554 0.18-0.685l0.979-0.571c0.202-0.117 0.294-0.358 0.225-0.581-0.138-0.44-0.202-0.818-0.202-1.188s0.064-0.748 0.202-1.188c0.069-0.223-0.023-0.464-0.225-0.581l-0.979-0.571c-0.235-0.131-0.32-0.455-0.18-0.685 0.139-0.239 0.447-0.318 0.684-0.18l0.972 0.567c0.199 0.117 0.457 0.08 0.616-0.09 0.551-0.586 1.249-0.989 2.021-1.165 0.228-0.052 0.389-0.254 0.389-0.487v-1.12c0-0.275 0.225-0.5 0.5-0.5s0.5 0.225 0.5 0.5v1.12c0 0.233 0.161 0.436 0.389 0.487 0.772 0.176 1.471 0.579 2.021 1.165 0.159 0.17 0.416 0.207 0.616 0.09l0.972-0.567c0.239-0.138 0.545-0.058 0.684 0.18 0.14 0.23 0.055 0.553-0.18 0.685l-0.979 0.571c-0.201 0.117-0.295 0.358-0.225 0.581 0.138 0.44 0.202 0.817 0.202 1.188s-0.064 0.748-0.202 1.188c-0.07 0.223 0.023 0.464 0.225 0.581l0.979 0.571c0.235 0.131 0.32 0.455 0.179 0.685zM9.838 18.508c0.195 0.195 0.195 0.512 0 0.707s-0.512 0.195-0.707 0l-1.922-1.922c-0.059-0.059-0.133-0.092-0.203-0.132 0.027 2.443 0.659 4.473 1.887 6.03 0.171 0.217 0.134 0.531-0.083 0.702-0.215 0.17-0.531 0.135-0.702-0.083-1.371-1.737-2.075-3.977-2.102-6.653-0.073 0.041-0.15 0.076-0.211 0.137l-1.914 1.914c-0.195 0.195-0.512 0.195-0.707 0s-0.195-0.512 0-0.707l1.914-1.914c0.379-0.393 0.899-0.523 1.413-0.586 0.515 0.062 1.036 0.193 1.416 0.586z" />
</svg>