<svg id="deadline_Layer_1" viewBox="0 0 24 24" fill="currentColor" width="32" height="32" data-name="Layer 1" xmlns="http://www.w3.org/2000/svg" xmlns:xlink="http://www.w3.org/1999/xlink">
    <title>deadline</title>
    <path d="M14 13c0-0.929-0.64-1.705-1.5-1.929V6.5C12.5 6.224 12.276 6 12 6s-0.5 0.224-0.5 0.5v4.571c-0.86 0.224-1.5 1-1.5 1.929 0 1.103 0.897 2 2 2s2-0.897 2-2zM11 13c0-0.551 0.449-1 1-1s1 0.449 1 1-0.449 1-1 1-1-0.448-1-1zM23.5 3.5C23.5 3.776 23.276 4 23 4c-0.72 0-1.319-0.149-1.789-0.434l-1.489 1.612C21.743 7.174 23 9.942 23 13c0 0.887-0.105 1.768-0.313 2.619-0.066 0.268-0.339 0.432-0.604 0.366-0.269-0.065-0.433-0.336-0.367-0.604 0.189-0.773 0.285-1.574 0.285-2.381-7e-3-5.518-4.511-9.994-10-10-5.489 6e-3-9.993 4.482-10 10 0 4.067 2.43 7.698 6.19 9.249 0.255 0.104 0.377 0.397 0.272 0.652-0.105 0.258-0.404 0.377-0.653 0.271C3.673 21.467 1 17.473 1 12.999 1 9.941 2.257 7.172 4.278 5.177L2.789 3.565C2.32 3.85 1.721 3.999 1 3.999c-0.276 0-0.5-0.224-0.5-0.5s0.224-0.5 0.5-0.5c1.383 0 2-0.617 2-2 0-0.276 0.224-0.5 0.5-0.5S4 0.723 4 0.999c0 0.765-0.173 1.388-0.494 1.869l1.513 1.637C6.798 3.04 9.047 2.135 11.5 2.024V0.5C11.5 0.224 11.724 0 12 0s0.5 0.224 0.5 0.5v1.525c2.453 0.111 4.702 1.016 6.481 2.481l1.513-1.637C20.173 2.388 20 1.765 20 1c0-0.276 0.224-0.5 0.5-0.5S21 0.724 21 1c0 1.383 0.617 2 2 2 0.276 0 0.5 0.224 0.5 0.5zM22.918 21.525c0.3 0.516 0.302 1.132 5e-3 1.648-0.297 0.518-0.831 0.826-1.427 0.826h-1.997c-0.276 0-0.5-0.224-0.5-0.5s0.224-0.5 0.5-0.5h1.997c0.337 0 0.504-0.227 0.56-0.324 0.056-0.098 0.167-0.355-2e-3-0.646l-4.497-7.709c-0.237-0.406-0.877-0.406-1.116 0l-4.496 7.709c-0.17 0.291-0.058 0.549-2e-3 0.646 0.056 0.098 0.223 0.324 0.56 0.324H14.5c0.276 0 0.5 0.224 0.5 0.5s-0.224 0.5-0.5 0.5h-1.997c-0.597 0-1.13-0.309-1.427-0.826s-0.295-1.133 5e-3-1.648l4.497-7.709C15.877 13.304 16.408 13 17 13s1.123 0.305 1.421 0.816zM17 21c-0.276 0-0.5-0.224-0.5-0.5v-3c0-0.276 0.224-0.5 0.5-0.5s0.5 0.224 0.5 0.5v3c0 0.276-0.224 0.5-0.5 0.5zM18 23c0 0.552-0.448 1-1 1s-1-0.448-1-1 0.448-1 1-1 1 0.448 1 1z" />
</svg>