<svg id="debt_Layer_1" viewBox="0 0 24 24" fill="currentColor" width="32" height="32" data-name="Layer 1" xmlns="http://www.w3.org/2000/svg" xmlns:xlink="http://www.w3.org/1999/xlink">
    <title>debt</title>
    <path d="M23.944 18.798l-1.737-11C21.859 5.598 19.99 4 17.763 4h-3.775C14.305 3.581 14.5 3.065 14.5 2.5 14.5 1.121 13.379 0 12 0S9.5 1.121 9.5 2.5c0 0.565 0.195 1.081 0.513 1.5H6.238C4.01 4 2.14 5.598 1.793 7.798l-1.737 11C-0.15 20.1 0.223 21.421 1.08 22.423 1.936 23.426 3.183 24 4.501 24h14.998c1.318 0 2.565-0.575 3.422-1.577 0.855-1.002 1.229-2.323 1.023-3.625zM10.5 2.5C10.5 1.673 11.173 1 12 1s1.5 0.673 1.5 1.5S12.827 4 12 4s-1.5-0.673-1.5-1.5zM22.16 21.773C21.494 22.552 20.524 23 19.499 23H4.501c-1.025 0-1.995-0.447-2.661-1.227-0.666-0.779-0.957-1.807-0.797-2.819l1.737-11C3.051 6.242 4.505 5 6.238 5h11.525c1.732 0 3.187 1.242 3.456 2.954l1.737 11c0.16 1.013-0.13 2.04-0.796 2.819zM9.5 12.394c0 0.685 0.49 1.264 1.166 1.376l2.833 0.473c1.159 0.193 2.001 1.187 2.001 2.362 0 1.32-1.074 2.395-2.395 2.395H12.5v0.5c0 0.276-0.224 0.5-0.5 0.5s-0.5-0.224-0.5-0.5V19H11c-1.378 0-2.5-1.121-2.5-2.5 0-0.276 0.224-0.5 0.5-0.5s0.5 0.224 0.5 0.5c0 0.827 0.673 1.5 1.5 1.5h2.105c0.769 0 1.395-0.626 1.395-1.395 0-0.685-0.49-1.264-1.165-1.376l-2.833-0.473c-1.16-0.193-2.001-1.187-2.001-2.362 0-1.32 1.074-2.395 2.395-2.395h0.605v-0.5c0-0.276 0.224-0.5 0.5-0.5s0.5 0.224 0.5 0.5v0.5h0.5c1.379 0 2.5 1.121 2.5 2.5 0 0.276-0.224 0.5-0.5 0.5s-0.5-0.224-0.5-0.5c0-0.827-0.673-1.5-1.5-1.5h-2.105c-0.769 0-1.395 0.626-1.396 1.395z" />
</svg>