<svg id="decision_tree_Layer_1" viewBox="0 0 24 24" fill="currentColor" width="32" height="32" data-name="Layer 1" xmlns="http://www.w3.org/2000/svg" xmlns:xlink="http://www.w3.org/1999/xlink">
    <title>decision-tree</title>
    <path d="M8.5 20h-1C6.673 20 6 20.673 6 21.5v1C6 23.327 6.673 24 7.5 24h1c0.827 0 1.5-0.673 1.5-1.5v-1c0-0.827-0.673-1.5-1.5-1.5zM9 22.5C9 22.776 8.776 23 8.5 23h-1C7.224 23 7 22.776 7 22.5v-1C7 21.224 7.224 21 7.5 21h1C8.776 21 9 21.224 9 21.5zM16.5 20h-1c-0.827 0-1.5 0.673-1.5 1.5v1c0 0.827 0.673 1.5 1.5 1.5h1c0.827 0 1.5-0.673 1.5-1.5v-1c0-0.827-0.673-1.5-1.5-1.5zM17 22.5c0 0.276-0.224 0.5-0.5 0.5h-1c-0.276 0-0.5-0.224-0.5-0.5v-1c0-0.276 0.224-0.5 0.5-0.5h1c0.276 0 0.5 0.224 0.5 0.5zM22.5 20h-1c-0.827 0-1.5 0.673-1.5 1.5v1c0 0.827 0.673 1.5 1.5 1.5h1c0.827 0 1.5-0.673 1.5-1.5v-1c0-0.827-0.673-1.5-1.5-1.5zM23 22.5c0 0.276-0.224 0.5-0.5 0.5h-1c-0.276 0-0.5-0.224-0.5-0.5v-1c0-0.276 0.224-0.5 0.5-0.5h1c0.276 0 0.5 0.224 0.5 0.5zM2.5 20h-1C0.673 20 0 20.673 0 21.5v1C0 23.327 0.673 24 1.5 24h1C3.327 24 4 23.327 4 22.5v-1C4 20.673 3.327 20 2.5 20zM3 22.5C3 22.776 2.776 23 2.5 23h-1C1.224 23 1 22.776 1 22.5v-1C1 21.224 1.224 21 1.5 21h1C2.776 21 3 21.224 3 21.5zM12.418 5.163C12.194 5.387 11.897 5.5 11.6 5.5s-0.599-0.114-0.827-0.341L9.934 4.363c-0.2-0.19-0.208-0.507-0.019-0.707 0.191-0.2 0.507-0.208 0.707-0.019l0.848 0.805c0.075 0.074 0.181 0.074 0.245 9e-3l1.862-1.81c0.199-0.194 0.515-0.188 0.707 0.01 0.193 0.198 0.188 0.515-0.01 0.707zM7.285 12.651c0.193 0.198 0.188 0.515-0.01 0.707l-1.857 1.805C5.194 15.387 4.897 15.5 4.6 15.5s-0.599-0.114-0.827-0.341l-0.839-0.796c-0.2-0.19-0.208-0.507-0.019-0.707 0.191-0.201 0.507-0.208 0.707-0.019l0.848 0.805c0.075 0.073 0.181 0.074 0.245 9e-3l1.862-1.81c0.198-0.193 0.516-0.188 0.708 0.01zM15 15.5c0 1.378 1.122 2.5 2.5 2.5h3c1.378 0 2.5-1.122 2.5-2.5v-3c0-1.378-1.122-2.5-2.5-2.5h-3c-1.378 0-2.5 1.122-2.5 2.5v1h-2.5V8h1C14.878 8 16 6.878 16 5.5v-3C16 1.122 14.878 0 13.5 0h-3C9.122 0 8 1.122 8 2.5v3C8 6.878 9.122 8 10.5 8h1v5.5H9v-1C9 11.122 7.878 10 6.5 10h-3C2.122 10 1 11.122 1 12.5v3C1 16.878 2.122 18 3.5 18h3C7.878 18 9 16.878 9 15.5v-1h6zM9 5.5v-3C9 1.673 9.673 1 10.5 1h3C14.327 1 15 1.673 15 2.5v3C15 6.327 14.327 7 13.5 7h-3C9.673 7 9 6.327 9 5.5zM8 15.5C8 16.327 7.327 17 6.5 17h-3C2.673 17 2 16.327 2 15.5v-3C2 11.673 2.673 11 3.5 11h3C7.327 11 8 11.673 8 12.5zM16 12.5c0-0.827 0.673-1.5 1.5-1.5h3c0.827 0 1.5 0.673 1.5 1.5v3c0 0.827-0.673 1.5-1.5 1.5h-3c-0.827 0-1.5-0.673-1.5-1.5zM17.146 15.146 18.292 14l-1.146-1.146c-0.195-0.195-0.195-0.512 0-0.707s0.512-0.195 0.707 0l1.146 1.146 1.146-1.146c0.195-0.195 0.512-0.195 0.707 0s0.195 0.512 0 0.707L19.706 14l1.146 1.146c0.195 0.195 0.195 0.512 0 0.707s-0.512 0.195-0.707 0l-1.146-1.146-1.146 1.146c-0.195 0.195-0.512 0.195-0.707 0s-0.195-0.512 0-0.707z" />
</svg>