<svg id="decision_choice_Layer_1" viewBox="0 0 24 24" fill="currentColor" width="32" height="32" data-name="Layer 1" xmlns="http://www.w3.org/2000/svg" xmlns:xlink="http://www.w3.org/1999/xlink">
    <title>decision-choice</title>
    <path d="M17.672 11c1.202 0 2.333-0.468 3.183-1.318l1.413-1.413c0.97-0.931 0.97-2.605 0-3.535l-1.415-1.415c-0.838-0.838-1.997-1.318-3.182-1.318H12.5V0.5C12.5 0.224 12.276 0 12 0s-0.5 0.224-0.5 0.5V2h-6C3.57 2 2 3.57 2 5.5v2C2 9.43 3.57 11 5.5 11h6v2H6.329c-1.185 0-2.344 0.48-3.182 1.318l-1.415 1.415c-0.97 0.93-0.97 2.604 0 3.535l1.413 1.413c0.85 0.851 1.98 1.318 3.183 1.318H11.5v1.5c0 0.276 0.224 0.5 0.5 0.5s0.5-0.224 0.5-0.5v-1.5h6c1.93 0 3.5-1.57 3.5-3.5v-2c0-1.93-1.57-3.5-3.5-3.5h-6v-2zM21 16.5v2c0 1.379-1.121 2.5-2.5 2.5H6.328c-0.936 0-1.814-0.364-2.476-1.025l-1.413-1.413c-0.582-0.558-0.582-1.563 0-2.121l1.415-1.415c0.651-0.651 1.554-1.025 2.475-1.025H18.5c1.379 0 2.5 1.121 2.5 2.499zM3 7.5v-2C3 4.121 4.121 3 5.5 3h12.171c0.921 0 1.823 0.374 2.475 1.025l1.415 1.415c0.582 0.558 0.582 1.563 0 2.121l-1.413 1.413c-0.661 0.661-1.54 1.025-2.476 1.025H5.5C4.121 9.999 3 8.878 3 7.5zM12 7.207 10.354 8.853c-0.195 0.195-0.512 0.195-0.707 0s-0.195-0.512 0-0.707L11.293 6.5 9.647 4.854c-0.195-0.195-0.195-0.512 0-0.707s0.512-0.195 0.707 0L12 5.793l1.646-1.646c0.195-0.195 0.512-0.195 0.707 0s0.195 0.512 0 0.707L12.707 6.5l1.646 1.646c0.195 0.195 0.195 0.512 0 0.707s-0.512 0.195-0.707 0zM11.943 18.745l3.171-3.135c0.197-0.194 0.514-0.191 0.707 4e-3 0.194 0.196 0.192 0.513-4e-3 0.707l-3.171 3.135c-0.726 0.719-1.913 0.721-2.642 6e-3l-1.355-1.33c-0.196-0.193-0.199-0.51-6e-3-0.707 0.193-0.196 0.51-0.2 0.707-6e-3l1.354 1.329c0.34 0.334 0.896 0.335 1.239-3e-3z" />
</svg>