<svg id="deep_learning_Layer_1" viewBox="0 0 24 24" fill="currentColor" width="32" height="32" data-name="Layer 1" xmlns="http://www.w3.org/2000/svg" xmlns:xlink="http://www.w3.org/1999/xlink">
    <title>deep-learning</title>
    <path d="M14.742 12.5h3.308c0.24 1.416 1.466 2.5 2.949 2.5 1.654 0 3-1.346 3-3s-1.346-3-3-3c-1.483 0-2.71 1.084-2.949 2.5h-3.308c-1.185 0-2.344-0.48-3.182-1.318L9.128 7.75 11.06 5.818C11.898 4.981 13.057 4.5 14.242 4.5h3.808C18.29 5.916 19.516 7 20.999 7c1.654 0 3-1.346 3-3s-1.346-3-3-3c-1.483 0-2.71 1.084-2.949 2.5h-3.808c-1.447 0-2.865 0.587-3.889 1.611L8.421 7.043 5.687 4.308C5.881 3.911 6 3.471 6 3 6 1.346 4.654 0 3 0S0 1.346 0 3 1.346 6 3 6c0.818 0 1.559-0.331 2.101-0.864L7.714 7.75 5.33 10.134C4.78 9.448 3.945 9 3 9c-1.654 0-3 1.346-3 3s1.346 3 3 3c0.946 0 1.78-0.448 2.33-1.134l2.384 2.384-2.613 2.614C4.559 18.331 3.818 18 3 18c-1.654 0-3 1.346-3 3s1.346 3 3 3 3-1.346 3-3c0-0.471-0.119-0.911-0.313-1.308l2.734-2.735 1.932 1.932c1.023 1.024 2.441 1.611 3.889 1.611h3.808c0.24 1.416 1.466 2.5 2.949 2.5 1.654 0 3-1.346 3-3s-1.346-3-3-3c-1.483 0-2.71 1.084-2.949 2.5h-3.808c-1.185 0-2.344-0.48-3.182-1.318L9.128 16.25l2.432-2.432c0.838-0.837 1.997-1.318 3.182-1.318zM21 10c1.103 0 2 0.897 2 2s-0.897 2-2 2-2-0.897-2-2 0.897-2 2-2zM21 2c1.103 0 2 0.897 2 2s-0.897 2-2 2-2-0.897-2-2 0.897-2 2-2zM3 5C1.897 5 1 4.103 1 3s0.897-2 2-2 2 0.897 2 2-0.897 2-2 2zM3 23c-1.103 0-2-0.897-2-2s0.897-2 2-2 2 0.897 2 2-0.897 2-2 2zM21 18c1.103 0 2 0.897 2 2s-0.897 2-2 2-2-0.897-2-2 0.897-2 2-2zM3 14c-1.103 0-2-0.897-2-2s0.897-2 2-2 2 0.897 2 2-0.897 2-2 2zM8.422 15.543 5.831 12.952C5.933 12.651 6 12.335 6 12s-0.068-0.651-0.169-0.952l2.591-2.591 2.432 2.432c0.472 0.472 1.034 0.839 1.638 1.111-0.604 0.272-1.166 0.639-1.638 1.111z" />
</svg>