<svg id="deer_Layer_1" viewBox="0 0 24 24" fill="currentColor" width="32" height="32" data-name="Layer 1" xmlns="http://www.w3.org/2000/svg" xmlns:xlink="http://www.w3.org/1999/xlink">
    <title>deer</title>
    <path d="M23.52 7.296c-0.936-0.959-1.933-1.981-3.651-2.755 1.118-0.583 1.941-1.67 2.126-2.971 0.039-0.273-0.151-0.527-0.425-0.566-0.268-0.042-0.526 0.151-0.565 0.424C20.796 2.894 19.504 3.999 18 3.999c-1.654 0-3-1.346-3-3v-0.5c0-0.276-0.224-0.5-0.5-0.5S14 0.223 14 0.499v0.5c0 1.194 0.526 2.266 1.357 3H13c-1.654 0-3-1.346-3-3v-0.5c0-0.276-0.224-0.5-0.5-0.5S9 0.223 9 0.499v0.5c0 2.206 1.794 4 4 4h2.372C14.023 6.2 14 8.058 14 8.085v1.414c0 0.276-0.225 0.5-0.5 0.5H5.394c-0.967 0-1.92 0.398-2.613 1.093-0.071 0.071-2.66 3.082-2.66 3.082-0.18 0.209-0.155 0.525 0.055 0.705 0.094 0.08 0.21 0.12 0.325 0.12 0.141 0 0.28-0.06 0.38-0.175l0.849-0.989c0.042 1.255 0.409 2.103 0.765 2.926 0.177 0.408 0.359 0.831 0.506 1.312V21.5c0 1.379 1.121 2.5 2.5 2.5s2.5-1.121 2.5-2.5V19h5v2.5c0 1.379 1.121 2.5 2.5 2.5s2.5-1.121 2.5-2.5v-3.301c0.493-0.548 2-2.454 2-5.3v-2.016c0-0.251 0.188-0.465 0.438-0.496l2.1-0.263c0.833-0.104 1.462-0.816 1.462-1.657 0-0.438-0.171-0.854-0.481-1.171zM22.414 9.131l-2.1 0.263c-0.749 0.094-1.313 0.733-1.313 1.488v2.016c0 2.895-1.831 4.725-1.85 4.744-0.096 0.094-0.15 0.224-0.15 0.357v3.5c0 0.827-0.673 1.5-1.5 1.5s-1.5-0.673-1.5-1.5v-3c0-0.276-0.224-0.5-0.5-0.5h-6c-0.276 0-0.5 0.224-0.5 0.5v3c0 0.827-0.673 1.5-1.5 1.5s-1.5-0.673-1.5-1.5c0 0-7e-3-3.595-0.021-3.641-0.167-0.568-0.37-1.039-0.568-1.495-0.367-0.85-0.685-1.583-0.687-2.761 0-0.67 0.271-1.311 0.763-1.804 0.508-0.508 1.202-0.799 1.906-0.799H13.5c0.827 0 1.5-0.673 1.5-1.5V8.085c0-0.125 0.038-3.04 3.289-3.086 2.359 0.785 3.415 1.867 4.516 2.995C22.929 8.121 23 8.293 23 8.466c0 0.337-0.252 0.623-0.586 0.665z" />
</svg>