<svg id="delete_right_Layer_1" viewBox="0 0 24 24" fill="currentColor" width="32" height="32" data-name="Layer 1" xmlns="http://www.w3.org/2000/svg" xmlns:xlink="http://www.w3.org/1999/xlink">
    <title>delete-right</title>
    <path d="M23.897 11.696 18.133 4.159C17.099 2.807 15.465 2 13.764 2H4.5C2.019 2 0 4.019 0 6.5v11C0 19.981 2.019 22 4.5 22h9.265c1.701 0 3.335-0.807 4.369-2.159l5.764-7.537c0.137-0.179 0.137-0.428-1e-3-0.608zM17.338 19.233C16.492 20.339 15.156 21 13.764 21H4.5C2.57 21 1 19.43 1 17.5v-11C1 4.57 2.57 3 4.5 3h9.265c1.393 0 2.729 0.661 3.574 1.767L22.87 12zM13.853 8.853l-3.146 3.146 3.146 3.146c0.195 0.195 0.195 0.512 0 0.707-0.098 0.098-0.226 0.146-0.354 0.146s-0.256-0.049-0.354-0.146l-3.146-3.146-3.146 3.146c-0.098 0.098-0.226 0.146-0.354 0.146s-0.256-0.049-0.354-0.146c-0.195-0.195-0.195-0.512 0-0.707l3.146-3.146-3.146-3.146c-0.195-0.195-0.195-0.512 0-0.707s0.512-0.195 0.707 0l3.146 3.146 3.146-3.146c0.195-0.195 0.512-0.195 0.707 0s0.195 0.512 2e-3 0.707z" />
</svg>