<svg id="delete_user_Layer_1" viewBox="0 0 24 24" fill="currentColor" width="32" height="32" data-name="Layer 1" xmlns="http://www.w3.org/2000/svg" xmlns:xlink="http://www.w3.org/1999/xlink">
    <title>delete-user</title>
    <path d="M9 12c3.309 0 6-2.691 6-6s-2.691-6-6-6-6 2.691-6 6 2.691 6 6 6zM9 1c2.757 0 5 2.243 5 5s-2.243 5-5 5-5-2.243-5-5 2.243-5 5-5zM18 23v0.5c0 0.276-0.224 0.5-0.5 0.5S17 23.776 17 23.5V23c0-4.411-3.589-8-8-8s-8 3.589-8 8v0.5C1 23.776 0.776 24 0.5 24S0 23.776 0 23.5V23c0-4.963 4.037-9 9-9s9 4.037 9 9zM23.837 12.163c0.195 0.195 0.195 0.512 0 0.707-0.098 0.098-0.226 0.146-0.354 0.146s-0.256-0.049-0.354-0.146l-2.646-2.646-2.646 2.646c-0.098 0.098-0.226 0.146-0.354 0.146s-0.256-0.049-0.354-0.146c-0.195-0.195-0.195-0.512 0-0.707l2.646-2.646-2.646-2.646c-0.195-0.195-0.195-0.512 0-0.707s0.512-0.195 0.707 0l2.646 2.646 2.646-2.646c0.195-0.195 0.512-0.195 0.707 0s0.195 0.512 0 0.707l-2.646 2.646z" />
</svg>