<svg id="delivery_man_Layer_1" viewBox="0 0 24 24" fill="currentColor" width="32" height="32" data-name="Layer 1" xmlns="http://www.w3.org/2000/svg" xmlns:xlink="http://www.w3.org/1999/xlink">
    <title>delivery-man</title>
    <path d="M10.5 5C11.879 5 13 3.878 13 2.5S11.879 0 10.5 0 8 1.122 8 2.5 9.121 5 10.5 5zM10.5 1C11.327 1 12 1.673 12 2.5S11.327 4 10.5 4 9 3.327 9 2.5 9.673 1 10.5 1zM1.5 11h3C5.327 11 6 10.327 6 9.5v-2c0-0.386-0.15-0.734-0.39-1C5.85 6.234 6 5.886 6 5.5v-2C6 2.673 5.327 2 4.5 2h-3C0.673 2 0 2.673 0 3.5v2c0 0.386 0.15 0.734 0.39 1C0.15 6.766 0 7.114 0 7.5v2C0 10.327 0.673 11 1.5 11zM5 9.5C5 9.776 4.775 10 4.5 10h-3C1.225 10 1 9.776 1 9.5v-2C1 7.224 1.225 7 1.5 7h3C4.775 7 5 7.224 5 7.5zM1 3.5C1 3.224 1.225 3 1.5 3h3C4.775 3 5 3.224 5 3.5v2C5 5.776 4.775 6 4.5 6h-3C1.225 6 1 5.776 1 5.5zM21 17.051v-0.356c0-0.493-0.049-0.989-0.146-1.473l-1.041-5.201c-0.233-1.165-1.265-2.009-2.451-2.009h-1.273l-5.418-1.959C9.346 5.773 7.98 6.58 8.001 7.969v4.266c0 0.939 0.519 1.79 1.376 2.232l3.243 1.468c0.535 0.242 0.881 0.779 0.881 1.366V20h-2c-0.276 0-0.5 0.224-0.5 0.5s0.224 0.5 0.5 0.5h5.551c0.245 1.692 1.691 3 3.449 3 1.93 0 3.5-1.57 3.5-3.5 0-1.758-1.308-3.204-3.001-3.449zM9 12.234V7.968c0-0.285 0.097-0.514 0.286-0.68 0.255-0.223 0.669-0.325 1.097-0.277L11 7.234v6.87l-1.188-0.538C9.311 13.307 9 12.797 9 12.234zM13.031 15.024l-1.042-0.471c2e-3-0.018 0.01-6.956 0.01-6.956l3.83 1.385c0.055 0.02 0.112 0.03 0.17 0.03h1.361c0.712 0 1.33 0.507 1.471 1.206l1.041 5.201c0.084 0.42 0.127 0.85 0.127 1.277v0.356c-1.527 0.221-2.728 1.423-2.949 2.949h-2.551v-2.699c0-0.979-0.576-1.873-1.468-2.278zM20.5 23.001c-1.379 0-2.5-1.122-2.5-2.5s1.121-2.5 2.5-2.5 2.5 1.122 2.5 2.5-1.121 2.5-2.5 2.5zM8.234 16.992 6.499 14.186c-0.459-0.742-1.254-1.185-2.126-1.185H0.5c-0.276 0-0.5 0.224-0.5 0.5s0.224 0.5 0.5 0.5h3.873c0.523 0 1 0.266 1.275 0.711l0.349 0.565c-0.471-0.168-0.97-0.276-1.498-0.276-2.481 0-4.5 2.019-4.5 4.5s2.019 4.5 4.5 4.5 4.5-2.019 4.5-4.5c0-0.926-0.282-1.786-0.763-2.502-1e-3-2e-3-1e-3-5e-3-2e-3-7e-3zM4.5 23.001c-1.93 0-3.5-1.57-3.5-3.5s1.57-3.5 3.5-3.5 3.5 1.57 3.5 3.5-1.57 3.5-3.5 3.5z" />
</svg>