<svg id="democrat_Layer_1" viewBox="0 0 24 24" fill="currentColor" width="32" height="32" data-name="Layer 1" xmlns="http://www.w3.org/2000/svg" xmlns:xlink="http://www.w3.org/1999/xlink">
    <title>democrat</title>
    <path d="M23.83 10.124 20.923 7.576C20.097 6.612 18.871 6 17.506 6h-6.838L9.001 4.744V1.5c0-0.276-0.224-0.5-0.5-0.5-1.216 0-2.232 0.873-2.455 2.024-0.031-4e-3-0.062-7e-3-0.093-0.011C5.726 1.867 4.713 0.999 3.5 0.999c-0.276 0-0.5 0.224-0.5 0.5v3.029L0.829 7.171c-1.104 1.104-1.104 2.9 0 4.004 0.54 0.539 1.285 0.824 2.155 0.824 0.465 0 1.04-0.226 1.591-0.47 0.141-0.062 0.299-0.057 0.435 0.013 0.079 0.041 0.217 0.14 0.261 0.359L6 15.056v4.446c0 1.376 1.12 2.497 2.497 2.497 0.668 0 1.296-0.261 1.769-0.734 0.472-0.474 0.73-1.103 0.729-1.771 0-0.132 0.051-0.256 0.144-0.35 0.093-0.093 0.218-0.145 0.35-0.145h5.032c0.271 0 0.493 0.221 0.493 0.517 5e-3 1.369 1.123 2.483 2.492 2.483 1.376 0 2.496-1.12 2.497-2.495l5e-3-9.012c0-0.233-0.018-0.461-0.053-0.684l1.218 1.067c0.095 0.083 0.212 0.124 0.33 0.124 0.139 0 0.277-0.058 0.376-0.17 0.182-0.208 0.161-0.523-0.049-0.705zM5.47 10.655c-0.406-0.211-0.88-0.225-1.299-0.04-0.238 0.105-0.869 0.384-1.187 0.384-0.418 0-1.008-0.092-1.448-0.531-0.714-0.714-0.714-1.876 0.033-2.626l2.317-2.817C3.96 4.935 4 4.823 4 4.707V2.086c0.582 0.207 1 0.766 1 1.433 0 0.139 0.058 0.272 0.16 0.367 0.103 0.095 0.239 0.144 0.378 0.132 0.012 0 0.119-0.016 0.131-0.018 0.221 0 0.444 0.04 0.663 0.117 0.154 0.055 0.323 0.03 0.456-0.062 0.132-0.094 0.211-0.246 0.211-0.409V3.5c0-0.652 0.418-1.208 1-1.415v2.907c0 0.157 0.074 0.305 0.199 0.399l2 1.507c0.086 0.065 0.192 0.101 0.301 0.101h7.006c1.927 0 3.497 1.568 3.5 3.494l-2e-3 3.506H6.782L6.248 11.69c-0.089-0.448-0.373-0.826-0.778-1.035zM19.505 21c-0.82 0-1.489-0.667-1.492-1.511C18.011 18.668 17.341 18 16.52 18h-5.032c-0.4 0-0.776 0.156-1.058 0.439s-0.437 0.659-0.436 1.059c1e-3 0.401-0.154 0.778-0.437 1.062S8.898 21 8.497 21C7.672 21 7 20.329 7 19.503V15h14.003l-2e-3 4.504c0 0.825-0.672 1.496-1.496 1.496zM13.001 11c0-0.552 0.448-1 1-1s1 0.448 1 1-0.448 1-1 1-1-0.448-1-1zM17.001 11c0-0.552 0.448-1 1-1s1 0.448 1 1-0.448 1-1 1-1-0.448-1-1zM9.001 11c0-0.552 0.448-1 1-1s1 0.448 1 1-0.448 1-1 1-1-0.448-1-1z" />
</svg>