<svg id="demographic_Layer_1" viewBox="0 0 24 24" fill="currentColor" width="32" height="32" data-name="Layer 1" xmlns="http://www.w3.org/2000/svg" xmlns:xlink="http://www.w3.org/1999/xlink">
    <title>demographic</title>
    <path d="M23.854 23.146l-6.448-6.448c0.535-0.591 1.014-1.24 1.403-1.961 0.131-0.243 0.041-0.546-0.203-0.677-0.244-0.132-0.546-0.041-0.677 0.203C16.354 17.185 13.316 19 10 19c-2.298 0-4.392-0.874-5.984-2.297l6.344-6.344c0.094-0.094 0.146-0.221 0.146-0.354V1.031c1.314 0.074 2.604 0.419 3.757 1.04 0.244 0.132 0.546 0.04 0.677-0.203s0.041-0.546-0.203-0.677C13.294 0.413 11.659 2e-3 10.008 0c0 0-2e-3 0-3e-3 0 0 0 0 0-1e-3 0-2e-3 0-3e-3 0-4e-3 0C4.486 0 0 4.486 0 10s4.486 10 10 10c2.522 0 4.884-0.962 6.694-2.599l6.452 6.452c0.195 0.195 0.512 0.195 0.707 0s0.195-0.512 1e-3-0.707zM9.506 1.025v8.774l-6.198 6.198C1.878 14.403 1 12.305 1 10 1 5.204 4.774 1.284 9.506 1.025zM21 4c1.103 0 2-0.897 2-2s-0.897-2-2-2-2 0.897-2 2 0.897 2 2 2zM21 1c0.551 0 1 0.449 1 1s-0.449 1-1 1-1-0.449-1-1 0.449-1 1-1zM14 6c0 1.103 0.897 2 2 2s2-0.897 2-2-0.897-2-2-2-2 0.897-2 2zM16 5c0.551 0 1 0.449 1 1s-0.449 1-1 1-1-0.449-1-1 0.449-1 1-1zM16 9c1.444 0 2.702 1.009 2.99 2.398 0.056 0.271-0.118 0.535-0.388 0.591-0.264 0.056-0.536-0.116-0.591-0.388-0.192-0.928-1.038-1.602-2.01-1.602s-1.818 0.673-2.01 1.602c-0.056 0.27-0.322 0.442-0.591 0.388-0.27-0.056-0.444-0.321-0.388-0.591C13.3 10.008 14.557 9 16 9zM21 5c1.444 0 2.702 1.009 2.99 2.398 0.056 0.271-0.118 0.535-0.388 0.591-0.264 0.056-0.536-0.116-0.591-0.388-0.192-0.928-1.037-1.602-2.01-1.602-0.139 0-0.274 0.014-0.405 0.039-0.271 0.053-0.534-0.125-0.585-0.396-0.053-0.271 0.125-0.533 0.396-0.585C20.599 5.019 20.798 5 21 5z" />
</svg>