<svg id="department_structure_Layer_1" viewBox="0 0 24 24" fill="currentColor" width="32" height="32" data-name="Layer 1" xmlns="http://www.w3.org/2000/svg" xmlns:xlink="http://www.w3.org/1999/xlink">
    <title>department-structure</title>
    <path d="M21.8 17H21v-2.5c0-1.93-1.57-3.5-3.5-3.5h-5V7h0.8c1.213 0 2.2-0.987 2.2-2.2V3.2c0-1.213-0.987-2.2-2.2-2.2h-2.6C9.487 1 8.5 1.987 8.5 3.2v1.6C8.5 6.013 9.487 7 10.7 7h0.8v4h-5C4.57 11 3 12.57 3 14.5V17H2.2C0.987 17 0 17.987 0 19.2v1.6C0 22.013 0.987 23 2.2 23h2.6C6.013 23 7 22.013 7 20.8v-1.6C7 17.987 6.013 17 4.8 17H4v-2.5C4 13.121 5.122 12 6.5 12h5v5h-0.8c-1.213 0-2.2 0.987-2.2 2.2v1.6c0 1.213 0.987 2.2 2.2 2.2h2.6c1.213 0 2.2-0.987 2.2-2.2v-1.6c0-1.213-0.987-2.2-2.2-2.2h-0.8v-5h5c1.379 0 2.5 1.121 2.5 2.5V17h-0.8c-1.213 0-2.2 0.987-2.2 2.2v1.6c0 1.213 0.987 2.2 2.2 2.2h2.6c1.213 0 2.2-0.987 2.2-2.2v-1.6c0-1.213-0.987-2.2-2.2-2.2zM9.5 4.8V3.2c0-0.662 0.539-1.2 1.2-1.2h2.6c0.662 0 1.2 0.538 1.2 1.2v1.6c0 0.662-0.538 1.2-1.2 1.2h-2.6c-0.662 0-1.2-0.538-1.2-1.2zM6 19.2v1.6C6 21.462 5.461 22 4.8 22H2.2C1.538 22 1 21.462 1 20.8v-1.6C1 18.538 1.539 18 2.2 18h2.6C5.462 18 6 18.538 6 19.2zM14.5 19.2v1.6c0 0.662-0.538 1.2-1.2 1.2h-2.6c-0.662 0-1.2-0.538-1.2-1.2v-1.6c0-0.662 0.539-1.2 1.2-1.2h2.6c0.662 0 1.2 0.538 1.2 1.2zM23 20.8c0 0.662-0.538 1.2-1.2 1.2h-2.6c-0.662 0-1.2-0.538-1.2-1.2v-1.6c0-0.662 0.538-1.2 1.2-1.2h2.6c0.662 0 1.2 0.538 1.2 1.2z" />
</svg>