<svg id="department_Layer_1" viewBox="0 0 24 24" fill="currentColor" width="32" height="32" data-name="Layer 1" xmlns="http://www.w3.org/2000/svg" xmlns:xlink="http://www.w3.org/1999/xlink">
    <title>department</title>
    <path d="M3.5 14c-1.135 0-2.152 0.674-2.532 1.677-0.098 0.259-0.386 0.386-0.645 0.291-0.258-0.098-0.388-0.387-0.291-0.645C0.559 13.933 1.952 13 3.5 13s2.941 0.934 3.468 2.323c0.098 0.258-0.032 0.547-0.291 0.645C6.618 15.989 6.559 16 6.5 16c-0.202 0-0.392-0.123-0.468-0.323C5.652 14.674 4.635 14 3.5 14zM10 2c0-1.103 0.897-2 2-2s2 0.897 2 2-0.897 2-2 2-2-0.897-2-2zM11 2c0 0.552 0.449 1 1 1s1-0.448 1-1-0.449-1-1-1-1 0.448-1 1zM16.5 3h2C19.878 3 21 4.121 21 5.5 21 5.776 21.224 6 21.5 6S22 5.776 22 5.5C22 3.57 20.43 2 18.5 2h-2C16.224 2 16 2.224 16 2.5S16.224 3 16.5 3zM22.5 10c0 1.103-0.897 2-2 2s-2-0.897-2-2 0.897-2 2-2 2 0.897 2 2zM21.5 10c0-0.552-0.449-1-1-1s-1 0.448-1 1 0.449 1 1 1 1-0.448 1-1zM12 20c-1.103 0-2-0.897-2-2s0.897-2 2-2 2 0.897 2 2-0.897 2-2 2zM12 19c0.551 0 1-0.448 1-1s-0.449-1-1-1-1 0.448-1 1 0.449 1 1 1zM12 5c-1.547 0-2.941 0.934-3.468 2.323C8.434 7.581 8.564 7.87 8.823 7.968 9.081 8.064 9.369 7.936 9.468 7.677 9.848 6.674 10.865 6 12 6s2.152 0.674 2.532 1.677C14.608 7.877 14.798 8 15 8c0.059 0 0.119-0.011 0.177-0.032 0.258-0.098 0.388-0.387 0.291-0.645C14.941 5.933 13.548 5 12 5zM3.5 12c-1.103 0-2-0.897-2-2s0.897-2 2-2 2 0.897 2 2-0.897 2-2 2zM3.5 11c0.551 0 1-0.448 1-1s-0.449-1-1-1-1 0.448-1 1 0.449 1 1 1zM23.968 15.323C23.441 13.933 22.048 13 20.5 13s-2.941 0.934-3.468 2.323c-0.098 0.258 0.032 0.547 0.291 0.645 0.259 0.095 0.547-0.032 0.645-0.291C18.348 14.674 19.365 14 20.5 14s2.152 0.674 2.532 1.677C23.108 15.877 23.298 16 23.5 16c0.059 0 0.119-0.011 0.177-0.032 0.258-0.098 0.388-0.387 0.291-0.645zM21.5 17c-0.276 0-0.5 0.224-0.5 0.5v1c0 1.379-1.122 2.5-2.5 2.5h-2c-0.276 0-0.5 0.224-0.5 0.5s0.224 0.5 0.5 0.5h2c1.93 0 3.5-1.57 3.5-3.5v-1c0-0.276-0.224-0.5-0.5-0.5zM7.5 21h-2C4.122 21 3 19.879 3 18.5v-1C3 17.224 2.776 17 2.5 17S2 17.224 2 17.5v1C2 20.43 3.57 22 5.5 22h2C7.776 22 8 21.776 8 21.5S7.776 21 7.5 21zM7.5 2h-2C3.57 2 2 3.57 2 5.5 2 5.776 2.224 6 2.5 6S3 5.776 3 5.5C3 4.121 4.122 3 5.5 3h2C7.776 3 8 2.776 8 2.5S7.776 2 7.5 2zM12 21c-1.547 0-2.941 0.934-3.468 2.323-0.098 0.258 0.032 0.547 0.291 0.645 0.258 0.096 0.546-0.032 0.645-0.291C9.848 22.674 10.865 22 12 22s2.152 0.674 2.532 1.677C14.608 23.877 14.798 24 15 24c0.059 0 0.119-0.011 0.177-0.032 0.258-0.098 0.388-0.387 0.291-0.645C14.941 21.933 13.548 21 12 21z" />
</svg>