<svg id="deposit_Layer_1" viewBox="0 0 24 24" fill="currentColor" width="32" height="32" data-name="Layer 1" xmlns="http://www.w3.org/2000/svg" xmlns:xlink="http://www.w3.org/1999/xlink">
    <title>deposit</title>
    <path d="M23.5 18h-3.998c-1.255 0-2.462-0.53-3.312-1.453l-2.809-3.052c-0.551-0.615-0.499-1.562 0.116-2.113 0.551-0.494 1.394-0.507 1.934-0.055l3.179 3.074c0.199 0.192 0.516 0.188 0.707-0.012 0.192-0.199 0.187-0.515-0.012-0.707l-3.206-3.098c-0.596-0.501-1.375-0.676-2.101-0.531V8.499c0-0.526-0.091-1.031-0.257-1.5h3.127c1.575 0 3.095 0.571 4.281 1.608l2.021 1.768c0.095 0.083 0.212 0.124 0.329 0.124 0.139 0 0.277-0.058 0.376-0.171 0.182-0.208 0.161-0.523-0.047-0.706l-2.021-1.768c-1.368-1.196-3.122-1.855-4.939-1.855h-3.63c-0.808-1.205-2.183-2-3.74-2h-1.5v-0.5c0-1.93-1.57-3.5-3.5-3.5h-1C1.57 0 0 1.57 0 3.5v17C0 22.43 1.57 24 3.5 24h1C6.43 24 8 22.43 8 20.5V20h1.5c2.434 0 4.423-1.943 4.498-4.359l1.456 1.583C16.493 18.353 17.968 19 19.502 19H23.5c0.276 0 0.5-0.224 0.5-0.5S23.776 18 23.5 18zM3.5 1h1C5.878 1 7 2.122 7 3.5V4H1V3.5C1 2.122 2.122 1 3.5 1zM1 9.171C1.32 9.058 1.655 9 2 9c1.654 0 3 1.346 3 3s-1.346 3-3 3c-0.345 0-0.68-0.057-1-0.171zM7 20.5C7 21.878 5.878 23 4.5 23h-1C2.122 23 1 21.878 1 20.5V20h6zM13 15.5c0 1.93-1.57 3.5-3.5 3.5H1v-3.126C1.324 15.958 1.658 16 2 16c2.206 0 4-1.794 4-4S4.206 8 2 8C1.658 8 1.324 8.042 1 8.126V5h8.5C11.43 5 13 6.57 13 8.5v1.998c-0.058 0.043-0.115 0.089-0.169 0.138-1.025 0.918-1.112 2.5-0.189 3.53l0.359 0.39zM11 8c0 0.552-0.448 1-1 1S9 8.552 9 8s0.448-1 1-1 1 0.448 1 1zM11 16c0 0.552-0.448 1-1 1s-1-0.448-1-1 0.448-1 1-1 1 0.448 1 1z" />
</svg>