<svg id="deposit_alt_Layer_1" viewBox="0 0 24 24" fill="currentColor" width="32" height="32" data-name="Layer 1" xmlns="http://www.w3.org/2000/svg" xmlns:xlink="http://www.w3.org/1999/xlink">
    <title>deposit-alt</title>
    <path d="M22 20V9.998c1.111-0.048 2-0.966 2-2.089 0-1.101-0.6-2.11-1.563-2.634L18.492 3.13C18.25 3 17.945 3.087 17.813 3.331c-0.132 0.243-0.042 0.546 0.2 0.678l3.946 2.145C22.601 6.503 23 7.175 23 7.909 23 8.511 22.511 9 21.909 9H2.091C1.489 9 1 8.511 1 7.909 1 7.177 1.399 6.504 2.041 6.154l3.947-2.143c0.243-0.132 0.333-0.436 0.201-0.678-0.133-0.242-0.435-0.332-0.678-0.201L1.564 5.276C0.6 5.802 2e-3 6.811 2e-3 7.909c0 1.122 0.889 2.041 2 2.089V20c-1.103 0-2 0.897-2 2s0.897 2 2 2h6.5c0.276 0 0.5-0.224 0.5-0.5S8.778 23 8.502 23H2c-0.551 0-1-0.449-1-1s0.449-1 1-1h3.5C5.776 21 6 20.776 6 20.5V10h5.5v2h-1.005C9.119 12 8 13.119 8 14.495c0 1.108 0.744 2.095 1.81 2.399l4.105 1.173C14.554 18.249 15 18.84 15 19.505 15 20.329 14.329 21 13.505 21h-3.01C9.671 21 9 20.329 9 19.505c0-0.276-0.224-0.5-0.5-0.5S8 19.229 8 19.505C8 20.881 9.119 22 10.495 22H11.5v1.5c0 0.276 0.224 0.5 0.5 0.5s0.5-0.224 0.5-0.5V22h1.005C14.881 22 16 20.881 16 19.505c0-1.108-0.744-2.095-1.81-2.399l-4.106-1.173C9.446 15.751 9 15.16 9 14.495 9 13.671 9.671 13 10.495 13h3.01C14.329 13 15 13.671 15 14.495c0 0.276 0.224 0.5 0.5 0.5s0.5-0.224 0.5-0.5C16 13.119 14.881 12 13.505 12H12.5v-2H18v10.5c0 0.276 0.224 0.5 0.5 0.5H22c0.552 0 1 0.449 1 1s-0.448 1-1 1h-6.5c-0.276 0-0.5 0.224-0.5 0.5s0.224 0.5 0.5 0.5H22c1.103 0 2-0.897 2-2s-0.897-2-2-2zM5 20H3V10h2zM19 10h2v10h-2zM8.189 3.811c-0.195-0.195-0.195-0.512 0-0.707s0.512-0.195 0.707 0L11.5 5.708V0.5C11.5 0.224 11.724 0 12 0s0.5 0.224 0.5 0.5v5.212l2.652-2.57c0.199-0.193 0.514-0.187 0.707 0.011 0.191 0.198 0.187 0.515-0.012 0.707l-2.793 2.707c-0.289 0.289-0.67 0.434-1.053 0.434-0.384 0-0.77-0.146-1.062-0.439z" />
</svg>