<svg id="description_alt_Layer_1" viewBox="0 0 24 24" fill="currentColor" width="32" height="32" data-name="Layer 1" xmlns="http://www.w3.org/2000/svg" xmlns:xlink="http://www.w3.org/1999/xlink">
    <title>description-alt</title>
    <path d="M0 12.5C0 12.224 0.224 12 0.5 12h11c0.276 0 0.5 0.224 0.5 0.5S11.776 13 11.5 13h-11C0.224 13 0 12.776 0 12.5zM14.5 18h-14C0.224 18 0 18.224 0 18.5S0.224 19 0.5 19h14c0.276 0 0.5-0.224 0.5-0.5S14.776 18 14.5 18zM11.5 21h-11C0.224 21 0 21.224 0 21.5S0.224 22 0.5 22h11c0.276 0 0.5-0.224 0.5-0.5S11.776 21 11.5 21zM24 20.5c0 1.93-1.57 3.5-3.5 3.5S17 22.43 17 20.5 18.57 17 20.5 17 24 18.57 24 20.5zM23 20.5c0-1.378-1.121-2.5-2.5-2.5S18 19.122 18 20.5 19.121 23 20.5 23 23 21.878 23 20.5zM24 3.5v1C24 5.327 23.327 6 22.5 6h-21C0.673 6 0 5.327 0 4.5v-1C0 1.57 1.57 0 3.5 0h17C22.43 0 24 1.57 24 3.5zM23 3.5C23 2.122 21.879 1 20.5 1h-17C2.121 1 1 2.122 1 3.5v1C1 4.776 1.225 5 1.5 5h21C22.775 5 23 4.776 23 4.5zM24 11.5c0 1.93-1.57 3.5-3.5 3.5S17 13.43 17 11.5 18.57 8 20.5 8 24 9.57 24 11.5zM23 11.5c0-1.378-1.121-2.5-2.5-2.5S18 10.122 18 11.5 19.121 14 20.5 14 23 12.878 23 11.5zM14.5 9h-14C0.224 9 0 9.224 0 9.5S0.224 10 0.5 10h14c0.276 0 0.5-0.224 0.5-0.5S14.776 9 14.5 9z" />
</svg>