<svg id="desk_Layer_1" viewBox="0 0 24 24" fill="currentColor" width="32" height="32" data-name="Layer 1" xmlns="http://www.w3.org/2000/svg" xmlns:xlink="http://www.w3.org/1999/xlink">
    <title>desk</title>
    <path d="M21 12h-8.5v-2h3c1.93 0 3.5-1.57 3.5-3.5v-3C19 1.57 17.43 0 15.5 0h-7C6.57 0 5 1.57 5 3.5v3C5 8.43 6.57 10 8.5 10h3v2h-11C0.224 12 0 12.224 0 12.5S0.224 13 0.5 13H2v10.5C2 23.776 2.224 24 2.5 24S3 23.776 3 23.5V13h12v8c0 1.654 1.346 3 3 3h3c1.654 0 3-1.346 3-3v-6c0-1.654-1.346-3-3-3zM6 6.5v-3C6 2.122 7.121 1 8.5 1h7C16.879 1 18 2.122 18 3.5v3C18 7.878 16.879 9 15.5 9h-7C7.121 9 6 7.878 6 6.5zM21 13c1.103 0 2 0.897 2 2v3h-7v-5zM21 23h-3c-1.103 0-2-0.897-2-2v-2h7v2c0 1.103-0.897 2-2 2z" />
</svg>