<svg id="desktop_wallpaper_Layer_1" viewBox="0 0 24 24" fill="currentColor" width="32" height="32" data-name="Layer 1" xmlns="http://www.w3.org/2000/svg" xmlns:xlink="http://www.w3.org/1999/xlink">
    <title>desktop-wallpaper</title>
    <path d="M5 6c0-0.55 0.45-1 1-1s1 0.45 1 1-0.45 1-1 1-1-0.45-1-1zM24 5.5v9c0 2.48-2.02 4.5-4.5 4.5h-7v3H17c0.28 0 0.5 0.22 0.5 0.5S17.28 23 17 23H7c-0.28 0-0.5-0.22-0.5-0.5S6.72 22 7 22h4.5v-3h-7C2.02 19 0 16.98 0 14.5v-9C0 3.02 2.02 1 4.5 1h15C21.98 1 24 3.02 24 5.5zM1 14.5c0 0.74 0.23 1.43 0.63 2L8.3 9.83c1.09-1.09 2.98-1.09 4.07 0L13 10.46c0.71 0.71 1.95 0.71 2.66 0l6.81-6.81c-0.62-0.99-1.72-1.66-2.97-1.66h-15C2.57 1.99 1 3.56 1 5.49zM23 5.5c0-0.29-0.04-0.58-0.1-0.85l-6.52 6.52c-1.09 1.09-2.98 1.09-4.07 0l-0.63-0.63c-0.71-0.71-1.95-0.71-2.66 0l-6.69 6.69C2.93 17.71 3.69 18 4.52 18h15c1.93 0 3.5-1.57 3.5-3.5z" />
</svg>