<svg id="detergent_Layer_1" viewBox="0 0 24 24" fill="currentColor" width="32" height="32" data-name="Layer 1" xmlns="http://www.w3.org/2000/svg" xmlns:xlink="http://www.w3.org/1999/xlink">
    <title>detergent</title>
    <path d="M17 5h-3V2.5C14 1.121 12.878 0 11.5 0h-1C9.122 0 8 1.121 8 2.5v2.682C5.138 5.862 3 8.433 3 11.5v8C3 21.981 5.019 24 7.5 24h9c2.481 0 4.5-2.019 4.5-4.5V9c0-2.206-1.794-4-4-4zM9 5V2.5C9 1.673 9.673 1 10.5 1h1C12.327 1 13 1.673 13 2.5V5zM4 12h5.5c0.827 0 1.5 0.673 1.5 1.5v3c0 0.827-0.673 1.5-1.5 1.5H4zM20 19.5c0 1.93-1.57 3.5-3.5 3.5h-9C5.57 23 4 21.43 4 19.5V19h5.5c1.378 0 2.5-1.121 2.5-2.5v-3c0-1.379-1.122-2.5-2.5-2.5H4.025C4.279 8.201 6.636 6 9.5 6H17c1.654 0 3 1.346 3 3zM17 7h-1.5C15.224 7 15 7.224 15 7.5V15c0 1.103 0.897 2 2 2h1.5c0.276 0 0.5-0.224 0.5-0.5V9c0-1.103-0.897-2-2-2zM18 16h-1c-0.551 0-1-0.448-1-1V8h1c0.551 0 1 0.448 1 1z" />
</svg>