<svg id="devices_Layer_1" viewBox="0 0 24 24" fill="currentColor" width="32" height="32" data-name="Layer 1" xmlns="http://www.w3.org/2000/svg" xmlns:xlink="http://www.w3.org/1999/xlink">
    <title>devices</title>
    <path d="M12 17.5v4c0 0.28-0.22 0.5-0.5 0.5H7c-0.28 0-0.5-0.22-0.5-0.5S6.72 21 7 21h4v-3H4.5C2.02 18 0 15.98 0 13.5v-8C0 3.02 2.02 1 4.5 1h14C20.98 1 23 3.02 23 5.5v1C23 6.78 22.78 7 22.5 7S22 6.78 22 6.5v-1C22 3.57 20.43 2 18.5 2h-14C2.57 2 1 3.57 1 5.5v8C1 15.43 2.57 17 4.5 17h7c0.28 0 0.5 0.22 0.5 0.5zM24 12.5v8c0 1.93-1.57 3.5-3.5 3.5h-3c-1.93 0-3.5-1.57-3.5-3.5v-8c0-1.93 1.57-3.5 3.5-3.5h3c1.93 0 3.5 1.57 3.5 3.5zM23 12.5c0-1.38-1.12-2.5-2.5-2.5h-3c-1.38 0-2.5 1.12-2.5 2.5v8c0 1.38 1.12 2.5 2.5 2.5h3c1.38 0 2.5-1.12 2.5-2.5z" />
</svg>