<svg id="dewpoint_Layer_1" viewBox="0 0 24 24" fill="currentColor" width="32" height="32" data-name="Layer 1" xmlns="http://www.w3.org/2000/svg" xmlns:xlink="http://www.w3.org/1999/xlink">
    <title>dewpoint</title>
    <path d="M10 24c-2.671 0-5.183-1.04-7.071-2.929S0 16.67 0 14C0 8.581 6.715 1.654 7.001 1.362 7.74 0.505 8.843 0 10.006 0h2e-3c1.164 0 2.268 0.506 3.028 1.388C13.3 1.658 20 8.581 20 13.998c0 2.672-1.04 5.184-2.929 7.072-1.89 1.889-4.4 2.929-7.071 2.93zM10.006 1c-0.872 0-1.699 0.378-2.27 1.038C7.648 2.13 1 8.988 1 14c0 2.403 0.937 4.664 2.636 6.364C5.336 22.064 7.596 23 10 23s4.664-0.936 6.364-2.636S19 16.404 19 13.999c0-5.011-6.634-11.866-6.7-11.935C11.708 1.38 10.88 1.001 10.007 1zM21.5 5C20.121 5 19 3.878 19 2.5S20.121 0 21.5 0 24 1.122 24 2.5 22.879 5 21.5 5zM21.5 1C20.673 1 20 1.673 20 2.5S20.673 4 21.5 4 23 3.327 23 2.5 22.327 1 21.5 1z" />
</svg>