<svg id="dharmachakra_Layer_1" viewBox="0 0 24 24" fill="currentColor" width="32" height="32" data-name="Layer 1" xmlns="http://www.w3.org/2000/svg" xmlns:xlink="http://www.w3.org/1999/xlink">
    <title>dharmachakra</title>
    <path d="M23.5 11.493h-0.508c-0.12-2.657-1.188-5.072-2.872-6.914l0.363-0.363c0.195-0.196 0.195-0.512 0-0.708-0.195-0.194-0.512-0.195-0.707 0l-0.363 0.364c-1.843-1.682-4.258-2.747-6.916-2.864V0.497c0-0.277-0.224-0.5-0.5-0.5s-0.5 0.224-0.5 0.5v0.512C8.841 1.13 6.428 2.197 4.587 3.881L4.22 3.514c-0.195-0.195-0.512-0.195-0.707 0s-0.195 0.512 0 0.707L3.88 4.588C2.199 6.43 1.134 8.844 1.015 11.5H0.5C0.224 11.5 0 11.724 0 12s0.224 0.5 0.5 0.5h0.515c0.12 2.655 1.186 5.069 2.869 6.91l-0.367 0.367c-0.195 0.195-0.195 0.512 0 0.707 0.098 0.098 0.226 0.146 0.354 0.146s0.256-0.049 0.354-0.146l0.367-0.367c1.842 1.683 4.256 2.748 6.912 2.868v0.512c0 0.276 0.224 0.5 0.5 0.5s0.5-0.224 0.5-0.5v-0.512c2.657-0.119 5.071-1.185 6.913-2.868l0.364 0.363c0.098 0.097 0.226 0.146 0.354 0.146s0.256-0.049 0.354-0.147c0.195-0.195 0.195-0.512 0-0.707l-0.363-0.363c1.684-1.843 2.75-4.258 2.868-6.916h0.508c0.276 0 0.5-0.224 0.5-0.5s-0.224-0.5-0.502-0.5zM21.991 11.493l-6.019 3e-3c-0.091-0.729-0.38-1.398-0.811-1.952l4.251-4.257c1.504 1.659 2.46 3.825 2.579 6.206zM12.003 14.996c-1.654 0-3-1.346-3-3s1.346-3 3-3 3 1.346 3 3-1.346 3-3 3zM18.705 4.58l-4.25 4.257c-0.555-0.432-1.226-0.72-1.958-0.811V2.009c2.382 0.116 4.548 1.07 6.208 2.571zM11.497 2.009v6.019c-0.728 0.093-1.396 0.382-1.948 0.813L5.295 4.588c1.659-1.503 3.822-2.459 6.202-2.579zM4.588 5.295 8.843 9.549c-0.429 0.553-0.716 1.22-0.807 1.948L2.017 11.5c0.117-2.38 1.07-4.544 2.571-6.205zM2.017 12.499l6.019-3e-3c0.091 0.729 0.38 1.398 0.81 1.951l-4.254 4.254c-1.502-1.659-2.457-3.823-2.575-6.202zM5.299 19.409l4.254-4.254c0.553 0.43 1.222 0.719 1.951 0.81v6.019c-2.381-0.118-4.545-1.072-6.205-2.575zM12.504 21.984v-6.019c0.727-0.091 1.394-0.378 1.947-0.807l4.258 4.251c-1.66 1.502-3.824 2.457-6.205 2.575zM19.416 18.702l-4.257-4.25c0.432-0.554 0.722-1.225 0.814-1.956l6.019-3e-3c-0.117 2.382-1.072 4.548-2.576 6.209z" />
</svg>