<svg id="diagram_sankey_Layer_1" viewBox="0 0 24 24" fill="currentColor" width="32" height="32" data-name="Layer 1" xmlns="http://www.w3.org/2000/svg" xmlns:xlink="http://www.w3.org/1999/xlink">
    <title>diagram-sankey</title>
    <path d="M0 5.5C0 5.22 0.22 5 0.5 5h7.84c0.94 0 1.81-0.36 2.48-1.02l2.66-2.66C14.33 0.47 15.46 0 16.66 0h6.84C23.78 0 24 0.22 24 0.5S23.78 1 23.5 1h-6.84c-0.94 0-1.81 0.36-2.48 1.02l-2.66 2.66C10.67 5.53 9.54 6 8.34 6H0.5C0.22 6 0 5.78 0 5.5zM23.5 23h-9.84c-0.94 0-1.81-0.36-2.48-1.02l-4.66-4.66C5.67 16.47 4.54 16 3.34 16H0.5C0.22 16 0 16.22 0 16.5S0.22 17 0.5 17h2.84c0.94 0 1.81 0.36 2.48 1.02l4.66 4.66c0.85 0.85 1.98 1.32 3.18 1.32h9.84c0.28 0 0.5-0.22 0.5-0.5S23.78 23 23.5 23zM24 10.5c0-0.28-0.22-0.5-0.5-0.5h-23C0.22 10 0 10.22 0 10.5S0.22 11 0.5 11h9.29l4.68 4.68c0.85 0.85 1.98 1.32 3.18 1.32h5.84c0.28 0 0.5-0.22 0.5-0.5s-0.22-0.5-0.5-0.5h-5.84c-0.94 0-1.81-0.36-2.48-1.02L11.2 11h12.29c0.28 0 0.5-0.22 0.51-0.5z" />
</svg>