<svg id="diagram_subtask_Layer_1" viewBox="0 0 24 24" fill="currentColor" width="32" height="32" data-name="Layer 1" xmlns="http://www.w3.org/2000/svg" xmlns:xlink="http://www.w3.org/1999/xlink">
    <title>diagram-subtask</title>
    <path d="M20.5 9C22.43 9 24 7.43 24 5.5v-2C24 1.57 22.43 0 20.5 0h-17C1.57 0 0 1.57 0 3.5v2C0 7.43 1.57 9 3.5 9H4v6.5C4 17.98 6.02 20 8.5 20H11v0.5c0 1.93 1.57 3.5 3.5 3.5h6c1.93 0 3.5-1.57 3.5-3.5v-2c0-1.93-1.57-3.5-3.5-3.5h-6c-1.93 0-3.5 1.57-3.5 3.5V19H8.5C6.57 19 5 17.43 5 15.5V9zM12 18.5c0-1.38 1.12-2.5 2.5-2.5h6c1.38 0 2.5 1.12 2.5 2.5v2c0 1.38-1.12 2.5-2.5 2.5h-6c-1.38 0-2.5-1.12-2.5-2.5zM1 5.5v-2C1 2.12 2.12 1 3.5 1h17C21.88 1 23 2.12 23 3.5v2C23 6.88 21.88 8 20.5 8h-17C2.12 8 1 6.88 1 5.5z" />
</svg>