<svg id="diagram_venn_Layer_1" viewBox="0 0 24 24" fill="currentColor" width="32" height="32" data-name="Layer 1" xmlns="http://www.w3.org/2000/svg" xmlns:xlink="http://www.w3.org/1999/xlink">
    <title>diagram-venn</title>
    <path d="M16 4c-1.46 0-2.82 0.39-4 1.07C10.82 4.39 9.46 4 8 4 3.59 4 0 7.59 0 12s3.59 8 8 8c1.46 0 2.82-0.39 4-1.07 1.18 0.68 2.54 1.07 4 1.07 4.41 0 8-3.59 8-8s-3.59-8-8-8zM13.74 8h-3.48c0.47-0.68 1.06-1.27 1.74-1.74 0.68 0.47 1.27 1.06 1.74 1.74zM9.68 9h4.63c0.34 0.77 0.55 1.62 0.61 2.5H9.03C9.09 10.61 9.32 9.77 9.68 9zM14.92 12.5c-0.06 0.88-0.27 1.73-0.61 2.5H9.68c-0.37-0.77-0.6-1.61-0.66-2.5zM13.75 16c-0.47 0.68-1.06 1.27-1.74 1.74-0.68-0.47-1.27-1.06-1.74-1.74zM8.01 19c-3.86 0-7-3.14-7-7s3.14-7 7-7c1.1 0 2.14 0.25 3.06 0.71C9.21 7.18 8.01 9.45 8.01 12s1.2 4.83 3.06 6.29C10.14 18.74 9.1 19 8.01 19z" />
</svg>