<svg id="diagram_successor_Layer_1" viewBox="0 0 24 24" fill="currentColor" width="32" height="32" data-name="Layer 1" xmlns="http://www.w3.org/2000/svg" xmlns:xlink="http://www.w3.org/1999/xlink">
    <title>diagram-successor</title>
    <path d="M20.5 15h-17C1.57 15 0 16.57 0 18.5v2C0 22.43 1.57 24 3.5 24h17c1.93 0 3.5-1.57 3.5-3.5v-2c0-1.93-1.57-3.5-3.5-3.5zM22.95 18l-5 5h-3.59l6.89-6.89c0.86 0.27 1.52 0.99 1.7 1.89zM9.36 23l7-7h3.59l-7 7zM4.36 23l7-7h3.59l-7 7zM3.5 16h1.45L1 19.95V18.5C1 17.12 2.12 16 3.5 16zM1.11 21.25 6.36 16h3.59l-6.93 6.93c0 0-0.01 0.01-0.02 0.02-0.89-0.18-1.62-0.84-1.89-1.7zM20.5 23h-1.14L23 19.36v1.14c0 1.38-1.12 2.5-2.5 2.5zM3.5 9h7C12.43 9 14 7.43 14 5.5V5h3c1.38 0 2.5 1.12 2.5 2.5V9h-1.64c-0.48 0-0.91 0.29-1.09 0.73s-0.08 0.95 0.26 1.28l2.14 2.14c0.23 0.23 0.53 0.34 0.83 0.34s0.6-0.12 0.83-0.34l2.14-2.14c0.34-0.34 0.44-0.84 0.26-1.28S22.62 9 22.14 9H20.5V7.5C20.5 5.57 18.93 4 17 4h-3V3.5C14 1.57 12.43 0 10.5 0h-7C1.57 0 0 1.57 0 3.5v2C0 7.43 1.57 9 3.5 9zM22.31 10.11c0 0 0.03 0.12-0.04 0.19l-2.14 2.14c-0.07 0.07-0.18 0.07-0.25 0l-2.14-2.14c-0.07-0.07-0.06-0.15-0.04-0.19S17.76 10 17.86 10h4.29c0.1 0 0.15 0.07 0.16 0.11zM1 3.5C1 2.12 2.12 1 3.5 1h7C11.88 1 13 2.12 13 3.5v2C13 6.88 11.88 8 10.5 8h-7C2.12 8 1 6.88 1 5.5z" />
</svg>