<svg id="diagram_cells_Layer_1" viewBox="0 0 24 24" fill="currentColor" width="32" height="32" data-name="Layer 1" xmlns="http://www.w3.org/2000/svg" xmlns:xlink="http://www.w3.org/1999/xlink">
    <title>diagram-cells</title>
    <path d="M20.5 9h-17C1.57 9 0 7.43 0 5.5v-2C0 1.57 1.57 0 3.5 0h17C22.43 0 24 1.57 24 3.5v2C24 7.43 22.43 9 20.5 9zM3.5 1C2.12 1 1 2.12 1 3.5v2C1 6.88 2.12 8 3.5 8h17C21.88 8 23 6.88 23 5.5v-2C23 2.12 21.88 1 20.5 1zM20.5 24h-17C1.57 24 0 22.43 0 20.5v-2C0 16.57 1.57 15 3.5 15h17c1.93 0 3.5 1.57 3.5 3.5v2c0 1.93-1.57 3.5-3.5 3.5zM3.5 16C2.12 16 1 17.12 1 18.5v2C1 21.88 2.12 23 3.5 23h17c1.38 0 2.5-1.12 2.5-2.5v-2c0-1.38-1.12-2.5-2.5-2.5z" />
</svg>