<svg id="diagram_previous_Layer_1" viewBox="0 0 24 24" fill="currentColor" width="32" height="32" data-name="Layer 1" xmlns="http://www.w3.org/2000/svg" xmlns:xlink="http://www.w3.org/1999/xlink">
    <title>diagram-previous</title>
    <path d="M20.5 15h-8V9h1.64c0.48 0 0.91-0.29 1.09-0.73s0.08-0.95-0.25-1.28l-2.14-2.14c-0.46-0.46-1.21-0.46-1.67 0L9.03 6.99C8.69 7.33 8.59 7.83 8.78 8.27 8.96 8.71 9.39 9 9.87 9h1.64v6H3.5C1.57 15 0 16.57 0 18.5v2C0 22.43 1.57 24 3.5 24h17c1.93 0 3.5-1.57 3.5-3.5v-2c0-1.93-1.57-3.5-3.5-3.5zM9.69 7.89c0 0-0.04-0.12 0.04-0.19l2.14-2.14c0 0 0.08-0.05 0.13-0.05s0.09 0.02 0.13 0.05l2.14 2.14c0.07 0.07 0.06 0.15 0.04 0.19S14.25 8 14.15 8H9.86c-0.1 0-0.15-0.07-0.17-0.11zM23 20.5c0 1.38-1.12 2.5-2.5 2.5h-17C2.12 23 1 21.88 1 20.5v-2C1 17.12 2.12 16 3.5 16h17c1.38 0 2.5 1.12 2.5 2.5zM20.5 0h-17C1.57 0 0 1.57 0 3.5v2C0 7.43 1.57 9 3.5 9h3C6.78 9 7 8.78 7 8.5S6.78 8 6.5 8H4.36l7-7h3.59l-1.48 1.48c-0.2 0.2-0.2 0.51 0 0.71 0.1 0.1 0.23 0.15 0.35 0.15s0.26-0.05 0.35-0.15L16.36 1h3.59l-3.86 3.86c-0.2 0.2-0.2 0.51 0 0.71 0.1 0.1 0.23 0.15 0.35 0.15s0.26-0.05 0.35-0.15l4.46-4.46c0.86 0.27 1.52 0.99 1.7 1.88l-5 5H17.5c-0.28 0-0.5 0.22-0.5 0.5s0.22 0.5 0.5 0.5h3c1.93 0 3.5-1.57 3.5-3.5V3.5C24 1.57 22.43 0 20.5 0zM3.5 1h1.45L1 4.95V3.5C1 2.12 2.12 1 3.5 1zM3.02 7.93c0 0-0.01 0.01-0.02 0.02-0.89-0.18-1.62-0.84-1.89-1.7L6.36 1h3.59zM20.5 8h-1.14L23 4.36V5.5C23 6.88 21.88 8 20.5 8z" />
</svg>