<svg id="diagram_nested_Layer_1" viewBox="0 0 24 24" fill="currentColor" width="32" height="32" data-name="Layer 1" xmlns="http://www.w3.org/2000/svg" xmlns:xlink="http://www.w3.org/1999/xlink">
    <title>diagram-nested</title>
    <path d="M20.5 13h-4c-1.93 0-3.5 1.57-3.5 3.5V18H9.5C7.57 18 6 16.43 6 14.5V11h1.5C9.43 11 11 9.43 11 7.5v-4C11 1.57 9.43 0 7.5 0h-4C1.57 0 0 1.57 0 3.5v4C0 9.43 1.57 11 3.5 11H5v3.5C5 16.98 7.02 19 9.5 19H13v1.5c0 1.93 1.57 3.5 3.5 3.5h4c1.93 0 3.5-1.57 3.5-3.5v-4c0-1.93-1.57-3.5-3.5-3.5zM1 7.5v-4C1 2.12 2.12 1 3.5 1h4C8.88 1 10 2.12 10 3.5v4C10 8.88 8.88 10 7.5 10h-4C2.12 10 1 8.88 1 7.5zM23 20.5c0 1.38-1.12 2.5-2.5 2.5h-4c-1.38 0-2.5-1.12-2.5-2.5v-4c0-1.38 1.12-2.5 2.5-2.5h4c1.38 0 2.5 1.12 2.5 2.5z" />
</svg>