<svg id="dial_med_low_Layer_1" viewBox="0 0 24 24" fill="currentColor" width="32" height="32" data-name="Layer 1" xmlns="http://www.w3.org/2000/svg" xmlns:xlink="http://www.w3.org/1999/xlink">
    <title>dial-med-low</title>
    <path d="M11 2c0-0.552 0.448-1 1-1s1 0.448 1 1-0.448 1-1 1-1-0.448-1-1zM19 13c0 3.86-3.141 7-7 7s-7-3.14-7-7 3.141-7 7-7 7 3.14 7 7zM18 13c0-3.309-2.691-6-6-6-1.475 0-2.827 0.535-3.872 1.421l4.226 4.226c0.195 0.195 0.195 0.512 0 0.707C12.256 13.452 12.128 13.5 12 13.5s-0.256-0.049-0.354-0.146L7.42 9.128C6.534 10.174 5.999 11.526 5.999 13c0 3.309 2.691 6 6 6s6-2.691 6.001-6zM1 12c-0.552 0-1 0.448-1 1s0.448 1 1 1 1-0.448 1-1-0.448-1-1-1zM23 12c-0.552 0-1 0.448-1 1s0.448 1 1 1 1-0.448 1-1-0.448-1-1-1zM4 6c0.552 0 1-0.448 1-1S4.552 4 4 4 3 4.448 3 5 3.448 6 4 6zM20 20c-0.552 0-1 0.448-1 1s0.448 1 1 1 1-0.448 1-1-0.448-1-1-1zM4 20c-0.552 0-1 0.448-1 1s0.448 1 1 1 1-0.448 1-1-0.448-1-1-1zM20 4c-0.552 0-1 0.448-1 1s0.448 1 1 1 1-0.448 1-1-0.448-1-1-1z" />
</svg>