<svg id="dial_med_Layer_1" viewBox="0 0 24 24" fill="currentColor" width="32" height="32" data-name="Layer 1" xmlns="http://www.w3.org/2000/svg" xmlns:xlink="http://www.w3.org/1999/xlink">
    <title>dial-med</title>
    <path d="M11 2c0-0.552 0.448-1 1-1s1 0.448 1 1-0.448 1-1 1-1-0.448-1-1zM19 13c0 3.86-3.141 7-7 7s-7-3.14-7-7 3.141-7 7-7 7 3.14 7 7zM18 13c0-3.14-2.425-5.724-5.5-5.979V13c0 0.276-0.224 0.5-0.5 0.5s-0.5-0.224-0.5-0.5V7.021C8.425 7.276 6 9.86 6 13c0 3.309 2.691 6 6 6s6-2.691 6-6zM1 12c-0.552 0-1 0.448-1 1s0.448 1 1 1 1-0.448 1-1-0.448-1-1-1zM23 12c-0.552 0-1 0.448-1 1s0.448 1 1 1 1-0.448 1-1-0.448-1-1-1zM4 6c0.552 0 1-0.448 1-1S4.552 4 4 4 3 4.448 3 5 3.448 6 4 6zM20 20c-0.552 0-1 0.448-1 1s0.448 1 1 1 1-0.448 1-1-0.448-1-1-1zM4 20c-0.552 0-1 0.448-1 1s0.448 1 1 1 1-0.448 1-1-0.448-1-1-1zM20 4c-0.552 0-1 0.448-1 1s0.448 1 1 1 1-0.448 1-1-0.448-1-1-1z" />
</svg>