<svg id="diamond_turn_right_Layer_1" viewBox="0 0 24 24" fill="currentColor" width="32" height="32" data-name="Layer 1" xmlns="http://www.w3.org/2000/svg" xmlns:xlink="http://www.w3.org/1999/xlink">
    <title>diamond-turn-right</title>
    <path d="M22.688 8.834 15.166 1.312c-1.746-1.746-4.586-1.746-6.332 0L1.312 8.834c-1.746 1.746-1.746 4.586 0 6.332l7.522 7.522c0.873 0.873 2.02 1.31 3.166 1.31s2.293-0.437 3.166-1.31l7.522-7.522c1.746-1.746 1.746-4.586 0-6.332zM21.981 14.459l-7.522 7.522c-1.355 1.355-3.562 1.355-4.918 0l-7.522-7.522c-1.355-1.355-1.355-3.562 0-4.918l7.522-7.522C10.219 1.341 11.109 1.002 12 1.002s1.781 0.339 2.459 1.017l7.522 7.522c1.355 1.355 1.355 3.562 0 4.918zM17.274 8.732c0.975 0.975 0.975 2.561 0 3.535l-2.421 2.421c-0.098 0.098-0.226 0.146-0.354 0.146s-0.256-0.049-0.354-0.146c-0.195-0.195-0.195-0.512 0-0.707l2.421-2.421c0.164-0.164 0.281-0.356 0.353-0.561h-6.421c-0.827 0-1.5 0.673-1.5 1.5v4c0 0.276-0.224 0.5-0.5 0.5s-0.5-0.224-0.5-0.5v-4c0-1.379 1.121-2.5 2.5-2.5h6.421c-0.072-0.205-0.19-0.397-0.353-0.561l-2.421-2.421c-0.195-0.195-0.195-0.512 0-0.707s0.512-0.195 0.707 0z" />
</svg>