<svg id="diamond_exclamation_Layer_1" viewBox="0 0 24 24" fill="currentColor" width="32" height="32" data-name="Layer 1" xmlns="http://www.w3.org/2000/svg" xmlns:xlink="http://www.w3.org/1999/xlink">
    <title>diamond-exclamation</title>
    <path d="M22.69 8.831 15.165 1.306C14.32 0.46 13.196-5e-3 12.001-5e-3S9.682 0.46 8.836 1.306L1.311 8.831C0.466 9.676 0 10.8 0 11.995s0.465 2.318 1.31 3.163l7.525 7.525c0.845 0.846 1.969 1.312 3.165 1.312s2.319-0.466 3.164-1.312l7.525-7.525C23.534 14.313 24 13.189 24 11.995s-0.465-2.319-1.31-3.164zM21.983 14.451l-7.525 7.525c-1.313 1.312-3.603 1.312-4.915 0l-7.525-7.525c-1.354-1.354-1.354-3.559 0-4.913l7.525-7.525c0.656-0.656 1.529-1.018 2.458-1.018s1.801 0.361 2.457 1.018l7.525 7.525c1.354 1.354 1.354 3.559 0 4.913zM13 17c0 0.552-0.448 1-1 1s-1-0.448-1-1 0.448-1 1-1 1 0.448 1 1zM11.5 13.5v-7C11.5 6.224 11.724 6 12 6s0.5 0.224 0.5 0.5v7c0 0.276-0.224 0.5-0.5 0.5s-0.5-0.224-0.5-0.5z" />
</svg>