<svg id="diamond_Layer_1" viewBox="0 0 24 24" fill="currentColor" width="32" height="32" data-name="Layer 1" xmlns="http://www.w3.org/2000/svg" xmlns:xlink="http://www.w3.org/1999/xlink">
    <title>diamond</title>
    <path d="M23.294 5.783 20.14 1.522C19.459 0.569 18.352 0 17.181 0H9.926c0 0-8e-3 0-0.012 0H6.82C5.648 0 4.542 0.569 3.867 1.514l-3.2 4.27c-0.938 1.326-0.878 3.133 0.127 4.369L9.97 23.019c0.494 0.623 1.234 0.98 2.029 0.98H12c0.795 0 1.535-0.358 2.044-1l9.139-12.771c1.042-1.283 1.088-3.11 0.111-4.445zM19.332 2.111l3.157 4.266C22.632 6.572 22.744 6.782 22.827 7h-5.97l-2.065-6h2.389c0.85 0 1.652 0.413 2.151 1.111zM8.201 7l2.065-6h3.469L15.8 7zM15.84 8 12 21.653 8.16 8zM4.673 2.104C5.167 1.413 5.969 1 6.819 1h2.389L7.143 7H1.151c0.078-0.22 0.186-0.431 0.324-0.627zM10.769 22.418 1.589 9.548C1.223 9.098 1.027 8.552 1.002 8H7.12l4.167 14.816c-0.201-0.091-0.381-0.224-0.518-0.398zM13.247 22.397c-0.145 0.182-0.329 0.319-0.533 0.413L16.88 7.998h6.116C22.98 8.571 22.778 9.142 22.39 9.62z" />
</svg>