<svg id="diary_bookmarks_Layer_1" viewBox="0 0 24 24" fill="currentColor" width="32" height="32" data-name="Layer 1" xmlns="http://www.w3.org/2000/svg" xmlns:xlink="http://www.w3.org/1999/xlink">
    <title>diary-bookmarks</title>
    <path d="M22.5 7C23.327 7 24 6.327 24 5.5v-2C24 2.673 23.327 2 22.5 2h-1.261c-0.808-1.205-2.182-2-3.739-2h-11C4.019 0 2 2.019 2 4.5v16C2 22.43 3.57 24 5.5 24h12c2.481 0 4.5-2.019 4.5-4.5V19h0.5c0.827 0 1.5-0.673 1.5-1.5v-2c0-0.827-0.673-1.5-1.5-1.5H22v-1h0.5c0.827 0 1.5-0.673 1.5-1.5v-2C24 8.673 23.327 8 22.5 8H22V7zM22 3h0.5C22.775 3 23 3.225 23 3.5v2C23 5.775 22.775 6 22.5 6H22zM3 4.5c0-1.76 1.306-3.221 3-3.464V17H5.5c-0.978 0-1.864 0.404-2.5 1.053zM21 19.5c0 1.93-1.57 3.5-3.5 3.5h-12C4.121 23 3 21.879 3 20.5S4.121 18 5.5 18H21zM21 17H7V1h10.5C19.43 1 21 2.57 21 4.5zM22.5 15c0.275 0 0.5 0.225 0.5 0.5v2c0 0.275-0.225 0.5-0.5 0.5H22v-3zM22.5 9C22.775 9 23 9.225 23 9.5v2c0 0.275-0.225 0.5-0.5 0.5H22V9z" />
</svg>