<svg id="diary_bookmark_down_Layer_1" viewBox="0 0 24 24" fill="currentColor" width="32" height="32" data-name="Layer 1" xmlns="http://www.w3.org/2000/svg" xmlns:xlink="http://www.w3.org/1999/xlink">
    <title>diary-bookmark-down</title>
    <path d="M17.5 0h-11C4.019 0 2 2.019 2 4.5v16c0 1.107 0.507 2.126 1.392 2.794 0.221 0.167 0.534 0.124 0.7-0.097 0.167-0.221 0.123-0.534-0.097-0.7C3.362 22.018 3 21.291 3 20.5 3 19.121 4.121 18 5.5 18H6v4.848c0 0.502 0.308 0.93 0.783 1.091 0.125 0.042 0.252 0.062 0.377 0.062 0.35 0 0.682-0.16 0.906-0.454L9 22.324l0.934 1.223c0.305 0.399 0.809 0.552 1.283 0.392C11.693 23.778 12 23.35 12 22.848V18h9v1.5c0 1.93-1.57 3.5-3.5 3.5h-2.923c-0.276 0-0.5 0.224-0.5 0.5s0.224 0.5 0.5 0.5H17.5c2.481 0 4.5-2.019 4.5-4.5v-15C22 2.019 19.981 0 17.5 0zM3 18.053V4.5c0-1.76 1.306-3.221 3-3.464V17H5.5c-0.978 0-1.864 0.404-2.5 1.053zM11 22.847c0 0.09-0.056 0.128-0.104 0.144-0.045 0.016-0.114 0.021-0.168-0.052l-1.331-1.743c-0.189-0.248-0.605-0.248-0.795 0l-1.331 1.743c-0.055 0.073-0.123 0.069-0.168 0.052-0.048-0.016-0.104-0.054-0.104-0.144v-4.848h4zM7 16.999V1h10.5C19.43 1 21 2.57 21 4.5V17z" />
</svg>