<svg id="dice_d6_Layer_1" viewBox="0 0 24 24" fill="currentColor" width="32" height="32" data-name="Layer 1" xmlns="http://www.w3.org/2000/svg" xmlns:xlink="http://www.w3.org/1999/xlink">
    <title>dice-d6</title>
    <path d="M20.718 4.43 14.417 0.666c-1.49-0.889-3.344-0.889-4.834 0l-6.3 3.764C1.875 5.272 1 6.81 1 8.446v7.109c0 1.636 0.875 3.174 2.283 4.016l6.3 3.764c0.746 0.444 1.581 0.667 2.417 0.667s1.672-0.223 2.418-0.667l6.3-3.765C22.125 18.729 23 17.19 23 15.555V8.446c0-1.635-0.875-3.174-2.282-4.016zM3.795 5.289l6.301-3.764c1.175-0.703 2.635-0.701 3.809 0l6.3 3.763c0.412 0.247 0.767 0.569 1.049 0.943l-9.253 5.195-9.255-5.194c0.282-0.374 0.636-0.697 1.049-0.943zM3.795 18.711C2.688 18.05 2 16.84 2 15.555V8.446c0-0.465 0.09-0.919 0.258-1.342l9.242 5.189v10.675c-0.488-0.067-0.966-0.231-1.404-0.492zM22 15.555c0 1.285-0.688 2.495-1.796 3.156l-6.299 3.764c-0.439 0.262-0.917 0.427-1.405 0.493V12.292l9.242-5.189C21.909 7.526 22 7.98 22 8.445z" />
</svg>