<svg id="dice_alt_Layer_1" viewBox="0 0 24 24" fill="currentColor" width="32" height="32" data-name="Layer 1" xmlns="http://www.w3.org/2000/svg" xmlns:xlink="http://www.w3.org/1999/xlink">
    <title>dice-alt</title>
    <path d="M19.5 9h-6C11.019 9 9 11.019 9 13.5v6c0 2.481 2.019 4.5 4.5 4.5h6c2.481 0 4.5-2.019 4.5-4.5v-6c0-2.481-2.019-4.5-4.5-4.5zM23 19.5c0 1.93-1.57 3.5-3.5 3.5h-6c-1.93 0-3.5-1.57-3.5-3.5v-6c0-1.93 1.57-3.5 3.5-3.5h6c1.93 0 3.5 1.57 3.5 3.5zM15 14c0 0.552-0.448 1-1 1s-1-0.448-1-1 0.448-1 1-1 1 0.448 1 1zM20 19c0 0.552-0.448 1-1 1s-1-0.448-1-1 0.448-1 1-1 1 0.448 1 1zM9 6C8.448 6 8 5.552 8 5s0.448-1 1-1 1 0.448 1 1-0.448 1-1 1zM5 8c0.552 0 1 0.448 1 1s-0.448 1-1 1-1-0.448-1-1 0.448-1 1-1zM6.913 16.585C6.816 16.727 6.66 16.803 6.5 16.803c-0.097 0-0.196-0.028-0.282-0.087-0.229-0.157-0.445-0.337-0.643-0.534l-4.242-4.243c-1.755-1.754-1.755-4.609 0-6.364l4.242-4.242c0.85-0.851 1.981-1.318 3.182-1.318s2.333 0.468 3.182 1.318l4.242 4.242c0.197 0.197 0.377 0.414 0.534 0.643 0.155 0.228 0.098 0.539-0.131 0.695-0.225 0.154-0.537 0.098-0.695-0.131-0.121-0.178-0.261-0.346-0.415-0.5L11.232 2.04c-1.322-1.322-3.628-1.323-4.95 0L2.04 6.282c-1.365 1.365-1.365 3.585 0 4.95l4.242 4.242c0.154 0.154 0.322 0.294 0.5 0.415 0.228 0.156 0.286 0.468 0.131 0.696z" />
</svg>