<svg id="dice_d20_Layer_1" viewBox="0 0 24 24" fill="currentColor" width="32" height="32" data-name="Layer 1" xmlns="http://www.w3.org/2000/svg" xmlns:xlink="http://www.w3.org/1999/xlink">
    <title>dice-d20</title>
    <path d="M20.717 4.43l-6.3-3.764c-1.491-0.889-3.343-0.889-4.834 0l-6.3 3.764C1.875 5.272 1 6.81 1 8.446v7.109c0 1.636 0.875 3.174 2.283 4.016l6.3 3.764c0.746 0.444 1.581 0.667 2.417 0.667s1.671-0.223 2.417-0.667l6.3-3.764C22.125 18.729 23 17.191 23 15.555V8.446c0-1.636-0.875-3.174-2.283-4.016zM13.904 1.525l6.3 3.764c0.498 0.297 0.911 0.706 1.215 1.183l-4.325 2.17-4.181-7.528c0.343 0.087 0.678 0.224 0.991 0.411zM12 1.529l4.153 7.47H7.85zM3.795 5.289l6.301-3.764c0.314-0.188 0.648-0.325 0.992-0.412l-4.18 7.529L2.582 6.47c0.304-0.476 0.716-0.884 1.213-1.181zM2.019 15.927c-0.013-0.123-0.02-0.248-0.02-0.373V8.445c0-0.365 0.056-0.724 0.161-1.067l4.232 2.125zM6.967 10.432l4.115 6.996-8.437-0.645zM11.499 22.968c-0.488-0.067-0.966-0.231-1.404-0.493l-6.3-3.764c-0.402-0.24-0.749-0.553-1.027-0.915l8.732 0.662zM7.874 10h8.251L12 17.014zM20.204 18.711l-6.3 3.764c-0.438 0.263-0.916 0.427-1.404 0.494v-4.504l8.723-0.657c-0.277 0.357-0.62 0.666-1.019 0.903zM12.912 17.435l4.123-7.009 4.432 6.36zM21.999 15.555c0 0.078-3e-3 0.157-8e-3 0.234l-4.383-6.286 4.231-2.123c0.105 0.342 0.16 0.7 0.16 1.065z" />
</svg>