<svg id="dice_d4_Layer_1" viewBox="0 0 24 24" fill="currentColor" width="32" height="32" data-name="Layer 1" xmlns="http://www.w3.org/2000/svg" xmlns:xlink="http://www.w3.org/1999/xlink">
    <title>dice-d4</title>
    <path d="M23.355 13.327 14.854 1.384 14.837 1.362C14.143 0.497 13.109 1e-3 12 1e-3S9.857 0.497 9.146 1.385L0.64 13.334c-1.123 1.634-0.748 3.829 0.886 5.02l8.014 4.948c0.759 0.469 1.609 0.703 2.46 0.703s1.701-0.234 2.46-0.703l8.046-4.97c1.602-1.169 1.977-3.364 0.849-5.005zM2.083 17.523c-1.162-0.847-1.434-2.438-0.625-3.616L9.943 1.986C10.34 1.491 10.89 1.163 11.5 1.047v21.922c-0.498-0.069-0.987-0.242-1.435-0.519zM21.948 17.502 13.934 22.45c-0.448 0.277-0.936 0.45-1.435 0.519V1.047c0.605 0.116 1.152 0.44 1.548 0.928L22.535 13.9c0.814 1.185 0.542 2.776-0.587 3.602z" />
</svg>