<svg id="dictionary_open_Layer_1" viewBox="0 0 24 24" fill="currentColor" width="32" height="32" data-name="Layer 1" xmlns="http://www.w3.org/2000/svg" xmlns:xlink="http://www.w3.org/1999/xlink">
    <title>dictionary-open</title>
    <path d="M6.5 13h2.293l1.969 1.969c0.341 0.341 0.79 0.512 1.238 0.512s0.897-0.171 1.238-0.512L15.207 13H17.5c2.481 0 4.5-2.019 4.5-4.5v-4C22 2.019 19.981 0 17.5 0h-11C4.019 0 2 2.019 2 4.5v4C2 10.981 4.019 13 6.5 13zM3 4.5C3 2.57 4.57 1 6.5 1h11C19.43 1 21 2.57 21 4.5v4c0 1.93-1.57 3.5-3.5 3.5H15c-0.133 0-0.26 0.053-0.354 0.146l-2.115 2.115c-0.293 0.293-0.77 0.293-1.062 0l-2.115-2.115C9.26 12.052 9.133 12 9 12H6.5C4.57 12 3 10.43 3 8.5zM14 3.5C14 3.224 14.224 3 14.5 3h3.062c0.37 0 0.702 0.205 0.867 0.535s0.13 0.72-0.091 1.016l-3.292 4.388L18 9.001c0.276 0 0.5 0.224 0.5 0.5s-0.224 0.5-0.5 0.5h-2.923c-0.396 0-0.752-0.22-0.929-0.574s-0.139-0.771 0.098-1.087l3.291-4.388L14.5 4.001c-0.276 0-0.5-0.224-0.5-0.501zM11.5 6.5C11.5 6.224 11.724 6 12 6h1c0.276 0 0.5 0.224 0.5 0.5S13.276 7 13 7h-1c-0.276 0-0.5-0.224-0.5-0.5zM14.072 23H23.5c0.276 0 0.5 0.224 0.5 0.5S23.776 24 23.5 24h-23C0.224 24 0 23.776 0 23.5S0.224 23 0.5 23h9.428C9.243 22.337 8.264 22 7 22H0.5C0.224 22 0 21.776 0 21.5S0.224 21 0.5 21H7c1.937 0 3.11 0.699 3.819 1.484C10.495 21.449 9.584 20 7 20H0.5C0.224 20 0 19.776 0 19.5S0.224 19 0.5 19H7c3.944 0 4.775 2.831 4.951 4h0.098c0.176-1.169 1.007-4 4.951-4h6.5c0.276 0 0.5 0.224 0.5 0.5S23.776 20 23.5 20H17c-2.584 0-3.495 1.448-3.819 2.484C13.889 21.699 15.063 21 17 21h6.5c0.276 0 0.5 0.224 0.5 0.5S23.776 22 23.5 22H17c-1.263 0-2.242 0.337-2.928 1zM5.783 9.989C5.817 9.997 5.851 10 5.885 10c0.232 0 0.44-0.162 0.489-0.398L6.602 8.5h2.85l0.21 1.094c0.052 0.272 0.312 0.448 0.585 0.397 0.271-0.052 0.449-0.314 0.397-0.585L9.709 4.53C9.562 3.769 8.947 3 8.056 3 7.119 3 6.529 3.877 6.41 4.492L5.394 9.398C5.338 9.669 5.512 9.933 5.783 9.989zM7.392 4.688C7.431 4.485 7.677 4 8.057 4 8.455 4 8.685 4.494 8.728 4.719L9.261 7.5H6.81z" />
</svg>