<svg id="dictionary_alt_Layer_1" viewBox="0 0 24 24" fill="currentColor" width="32" height="32" data-name="Layer 1" xmlns="http://www.w3.org/2000/svg" xmlns:xlink="http://www.w3.org/1999/xlink">
    <title>dictionary-alt</title>
    <path d="M22.384 2.046c-1.027-0.856-2.372-1.211-3.689-0.973l-4.209 0.766c-1.073 0.195-1.964 0.849-2.485 1.736-0.521-0.888-1.412-1.541-2.485-1.736L5.307 1.073C2.63 0.522-0.065 2.774 0 5.501v11.652c0 2.175 1.554 4.037 3.694 4.428l6.72 1.222c1.053 0.191 2.119 0.191 3.172 0l6.72-1.222C22.447 21.19 24 19.328 24 17.153V5.501c0-1.338-0.589-2.598-1.616-3.455zM23 17.153c0 1.691-1.209 3.14-2.874 3.443l-6.719 1.222c-0.301 0.055-0.604 0.085-0.907 0.105V17.5c0-0.276-0.224-0.5-0.5-0.5s-0.5 0.224-0.5 0.5v4.423c-0.303-0.019-0.606-0.05-0.906-0.105l-6.72-1.222C2.209 20.292 1 18.844 1 17.153V5.501c-0.056-2.12 2.059-3.875 4.126-3.443l4.209 0.766C10.59 3.053 11.5 4.143 11.5 5.418v2.083c0 0.276 0.224 0.5 0.5 0.5s0.5-0.224 0.5-0.5V5.418c0-1.274 0.91-2.365 2.165-2.594l4.209-0.766c2.072-0.431 4.18 1.323 4.126 3.443zM18.336 9.55l-3.289 4.388L18 14c0.276 0 0.5 0.224 0.5 0.5S18.276 15 18 15h-2.923c-0.396 0-0.753-0.22-0.93-0.574s-0.139-0.771 0.1-1.088l3.289-4.387L14.5 9C14.224 9 14 8.776 14 8.5S14.224 8 14.5 8h3.062c0.369 0 0.702 0.205 0.867 0.536 0.165 0.33 0.13 0.72-0.093 1.014zM13 11.499c0 0.276-0.224 0.5-0.5 0.5h-1c-0.276 0-0.5-0.224-0.5-0.5s0.224-0.5 0.5-0.5h1c0.276 0 0.5 0.224 0.5 0.5zM7.557 7.999c-0.938 0-1.527 0.877-1.646 1.492l-1.016 4.906C4.753 15.028 5.748 15.24 5.874 14.6l0.228-1.102h2.851l0.21 1.094c0.052 0.272 0.316 0.447 0.585 0.397 0.271-0.052 0.449-0.314 0.397-0.585L9.21 9.527c-0.148-0.76-0.764-1.529-1.653-1.528zM6.31 12.499 6.892 9.687c0.039-0.203 0.285-0.688 0.665-0.688 0.398 0 0.628 0.495 0.672 0.719l0.533 2.781z" />
</svg>