<svg id="dictionary_Layer_1" viewBox="0 0 24 24" fill="currentColor" width="32" height="32" data-name="Layer 1" xmlns="http://www.w3.org/2000/svg" xmlns:xlink="http://www.w3.org/1999/xlink">
    <title>dictionary</title>
    <path d="M17.5 0h-11C4.019 0 2 2.019 2 4.5v16C2 22.43 3.57 24 5.5 24h12c2.481 0 4.5-2.019 4.5-4.5v-15C22 2.019 19.981 0 17.5 0zM3 4.5C3 2.57 4.57 1 6.5 1h11C19.43 1 21 2.57 21 4.5V17H5.5c-0.98 0-1.864 0.407-2.5 1.058zM17.5 23h-12C4.121 23 3 21.879 3 20.5S4.121 18 5.5 18H21v1.5c0 1.93-1.57 3.5-3.5 3.5zM14.5 6.5C14.5 6.224 14.724 6 15 6h3.062c0.774-0.027 1.262 0.948 0.774 1.551L15.547 12H18.5c0.276 0 0.5 0.224 0.5 0.5S18.776 13 18.5 13h-2.923c-0.831 0.029-1.352-1.016-0.83-1.662l3.289-4.387L15 7c-0.276 0-0.5-0.224-0.5-0.5zM11.5 9.5C11.5 9.224 11.724 9 12 9h1c0.276 0 0.5 0.224 0.5 0.5S13.276 10 13 10h-1c-0.276 0-0.5-0.224-0.5-0.5zM5.398 12.989C5.432 12.997 5.466 13 5.501 13c0.231 0 0.439-0.162 0.488-0.398L6.217 11.5h2.851l0.21 1.094c0.052 0.272 0.317 0.447 0.585 0.397 0.271-0.052 0.449-0.314 0.397-0.585L9.325 7.529C9.177 6.769 8.561 6 7.671 6 6.736 6 6.145 6.876 6.025 7.492l-1.016 4.906c-0.057 0.271 0.117 0.535 0.389 0.591zM7.006 7.689C7.045 7.486 7.292 7 7.671 7 8.069 7 8.299 7.495 8.343 7.719L8.876 10.5H6.424z" />
</svg>