<svg id="digital_wallet_Layer_1" viewBox="0 0 24 24" fill="currentColor" width="32" height="32" data-name="Layer 1" xmlns="http://www.w3.org/2000/svg" xmlns:xlink="http://www.w3.org/1999/xlink">
    <title>digital-wallet</title>
    <path d="M7 23.5C7 23.776 6.776 24 6.5 24S6 23.776 6 23.5C6 20.467 3.532 18 0.5 18 0.224 18 0 17.776 0 17.5S0.224 17 0.5 17C4.084 17 7 19.916 7 23.5zM0.5 12C0.224 12 0 12.224 0 12.5S0.224 13 0.5 13C6.29 13 11 17.71 11 23.5c0 0.276 0.224 0.5 0.5 0.5s0.5-0.224 0.5-0.5C12 17.159 6.841 12 0.5 12zM1 22c-0.552 0-1 0.448-1 1s0.448 1 1 1 1-0.448 1-1-0.448-1-1-1zM21 12c0-0.552-0.448-1-1-1s-1 0.448-1 1 0.448 1 1 1 1-0.448 1-1zM21.5 4h-17C3.355 4 2.286 3.429 1.636 2.5 2.269 1.596 3.315 1 4.5 1h19C23.776 1 24 0.776 24 0.5S23.776 0 23.5 0h-19C2.015 0 0 2.015 0 4.5v5C0 9.776 0.224 10 0.5 10S1 9.776 1 9.5v-5c0-0.349 0.067-0.679 0.162-0.997C2.007 4.438 3.215 5 4.5 5h17C22.328 5 23 5.672 23 6.5v11c0 0.828-0.672 1.5-1.5 1.5H14c-0.276 0-0.5 0.224-0.5 0.5S13.724 20 14 20h7.5c1.381 0 2.5-1.119 2.5-2.5v-11C24 5.119 22.881 4 21.5 4z" />
</svg>