<svg id="digital_tachograph_Layer_1" viewBox="0 0 24 24" fill="currentColor" width="32" height="32" data-name="Layer 1" xmlns="http://www.w3.org/2000/svg" xmlns:xlink="http://www.w3.org/1999/xlink">
    <title>digital-tachograph</title>
    <path d="M19.5 3h-15C2.019 3 0 5.019 0 7.5v9C0 18.981 2.019 21 4.5 21h15c2.481 0 4.5-2.019 4.5-4.5v-9C24 5.019 21.981 3 19.5 3zM23 16.5c0 1.93-1.57 3.5-3.5 3.5h-15C2.57 20 1 18.43 1 16.5v-9C1 5.57 2.57 4 4.5 4h15C21.43 4 23 5.57 23 7.5zM11 17.5c0 0.276-0.224 0.5-0.5 0.5h-7C3.224 18 3 17.776 3 17.5S3.224 17 3.5 17h7c0.276 0 0.5 0.224 0.5 0.5zM21 17.5c0 0.276-0.224 0.5-0.5 0.5h-7c-0.276 0-0.5-0.224-0.5-0.5s0.224-0.5 0.5-0.5h7c0.276 0 0.5 0.224 0.5 0.5zM4.5 11h7c0.827 0 1.5-0.673 1.5-1.5v-2C13 6.673 12.327 6 11.5 6h-7C3.673 6 3 6.673 3 7.5v2C3 10.327 3.673 11 4.5 11zM4 7.5C4 7.225 4.224 7 4.5 7h7C11.776 7 12 7.225 12 7.5v2c0 0.275-0.224 0.5-0.5 0.5h-7C4.224 10 4 9.775 4 9.5zM3 14c0-0.552 0.448-1 1-1s1 0.448 1 1-0.448 1-1 1-1-0.448-1-1zM8 13c0.552 0 1 0.448 1 1s-0.448 1-1 1-1-0.448-1-1 0.448-1 1-1zM13 14c0 0.552-0.448 1-1 1s-1-0.448-1-1 0.448-1 1-1 1 0.448 1 1z" />
</svg>