<svg id="digital_payment_Layer_1" viewBox="0 0 24 24" fill="currentColor" width="32" height="32" data-name="Layer 1" xmlns="http://www.w3.org/2000/svg" xmlns:xlink="http://www.w3.org/1999/xlink">
    <title>digital-payment</title>
    <path d="M12.989 6.15c0.193 0.198 0.189 0.514-8e-3 0.707l-4.713 4.604c-0.722 0.713-1.899 0.714-2.624 3e-3L3.147 8.986C2.952 8.791 2.95 8.475 3.145 8.279c0.193-0.196 0.511-0.198 0.707-3e-3l2.494 2.476c0.335 0.329 0.884 0.329 1.221-4e-3l4.715-4.606c0.199-0.192 0.516-0.189 0.707 8e-3zM24 6.5v6c0 1.93-1.57 3.5-3.5 3.5H16v3.5c0 2.481-2.019 4.5-4.5 4.5h-7C2.019 24 0 21.981 0 19.5v-15C0 2.019 2.019 0 4.5 0h7c1.953 0 3.602 1.258 4.224 3H20.5C22.43 3 24 4.57 24 6.5zM15 18H1v1.5C1 21.43 2.57 23 4.5 23h7c1.93 0 3.5-1.57 3.5-3.5zM15 4.5C15 2.57 13.43 1 11.5 1h-7C2.57 1 1 2.57 1 4.5V17h14zM23 8h-7v7h4.5c1.379 0 2.5-1.122 2.5-2.5zM23 6.5C23 5.122 21.879 4 20.5 4h-4.551C15.968 4.166 16 4.329 16 4.5V7h7zM6.5 21h3c0.276 0 0.5-0.224 0.5-0.5S9.776 20 9.5 20h-3C6.224 20 6 20.224 6 20.5S6.224 21 6.5 21z" />
</svg>