<svg id="digital_signature_Layer_1" viewBox="0 0 24 24" fill="currentColor" width="32" height="32" enable-background="new 0 0 24 24" xmlns="http://www.w3.org/2000/svg" xmlns:xlink="http://www.w3.org/1999/xlink">
    <title>digital-signature</title>
    <path d="M10.5 17H1V4.5C1 2.6 2.6 1 4.5 1h7C13.4 1 15 2.6 15 4.5V12c0 0.3 0.2 0.5 0.5 0.5S16 12.3 16 12V4.5C16 2 14 0 11.5 0h-7C2 0 0 2 0 4.5v15C0 22 2 24 4.5 24h4C8.8 24 9 23.8 9 23.5S8.8 23 8.5 23h-4C2.6 23 1 21.4 1 19.5V18h9.5c0.3 0 0.5-0.2 0.5-0.5S10.8 17 10.5 17zM3.5 14c0.5 0 1-0.3 1.4-0.7C3.7 11.9 3 9.8 3 8.5 3 7.6 3.5 6 5.5 6S8 7.6 8 8.5c0 1.6-0.7 3.5-1.7 4.8 0.6 0.4 1.3 0.7 2 0.7 0.6 0 1.4-0.3 2-0.9C9.9 12.6 9 11.3 9 10c0-0.8 0.5-2 2-2s2 1.2 2 2c0 2.7-2.6 5-4.7 5-1 0-1.9-0.4-2.7-1-0.7 0.6-1.4 1-2.2 1C3.2 15 3 14.8 3 14.5S3.2 14 3.5 14zM10 10c0 0.9 0.6 1.9 1.1 2.4 0.5-0.7 0.9-1.5 0.9-2.4 0-0.2-0.1-1-1-1s-1 0.8-1 1zM5.6 12.6C6.4 11.5 7 9.9 7 8.5 7 8.3 6.9 7 5.5 7S4 8.3 4 8.5c0 1.1 0.6 2.9 1.6 4.1zM23.3 15.3 15.6 23c-0.7 0.7-1.6 1-2.5 1h-1.6c-0.3 0-0.5-0.2-0.5-0.5v-1.6c0-0.9 0.4-1.8 1-2.5l7.7-7.7c0.9-0.9 2.6-0.9 3.5 0 1 1 1 2.6 0.1 3.6zM22.6 12.4c-0.6-0.6-1.6-0.6-2.1 0l-7.7 7.7c-0.5 0.5-0.7 1.1-0.7 1.8V23h1.1c0.7 0 1.3-0.3 1.8-0.7l7.7-7.7c0.4-0.6 0.4-1.6-0.1-2.2z" />
</svg>