<svg id="digital_key_Layer_1" viewBox="0 0 24 24" fill="currentColor" width="32" height="32" data-name="Layer 1" xmlns="http://www.w3.org/2000/svg" xmlns:xlink="http://www.w3.org/1999/xlink">
    <title>digital-key</title>
    <path d="M8 5c0 0.552-0.448 1-1 1S6 5.552 6 5 6.448 4 7 4 8 4.448 8 5zM13 6c0 2.157-1.142 4.119-3 5.191v9.157c0 0.935-0.364 1.813-1.025 2.476l-0.611 0.611C8 23.799 7.516 23.999 7.001 23.999s-0.999-0.2-1.363-0.564l-0.611-0.611c-0.661-0.662-1.025-1.541-1.025-2.476v-0.364c0-0.301 0.117-0.583 0.33-0.796l1.25-1.249c0.042-0.042 0.042-0.136 0-0.178l-0.99-0.99c-0.439-0.438-0.439-1.153 0-1.592l0.99-0.99c0.049-0.049 0.049-0.129 0-0.178l-1.25-1.249c-0.213-0.215-0.33-0.497-0.33-0.796v-0.783C1.793 9.908 0.635 7.405 1.108 4.857c0.433-2.338 2.282-4.236 4.6-4.721 1.811-0.383 3.661 0.059 5.072 1.205S13 4.185 13 6zM12 6c0-1.513-0.674-2.928-1.85-3.883-0.897-0.729-2.01-1.115-3.162-1.115-0.356 0-0.716 0.037-1.075 0.112-1.926 0.403-3.462 1.98-3.824 3.926-0.411 2.212 0.65 4.383 2.639 5.401C4.895 10.527 5 10.699 5 10.886v1.08l1.286 1.338c0.439 0.438 0.439 1.153 0 1.592l-0.99 0.99c-0.049 0.049-0.049 0.129 0 0.178l0.99 0.99c0.439 0.438 0.439 1.153 0 1.592l-1.25 1.249-0.037 0.453c0 0.668 0.26 1.296 0.732 1.769l0.611 0.611c0.351 0.35 0.962 0.35 1.312 0l0.611-0.611c0.472-0.473 0.732-1.101 0.732-1.769v-9.454c0-0.188 0.105-0.359 0.272-0.445C10.951 9.589 11.997 7.884 12 6zM15 7.5C15 7.224 15.224 7 15.5 7H19c0.827 0 1.5-0.673 1.5-1.5V3.929C19.64 3.705 19 2.929 19 2c0-1.103 0.897-2 2-2s2 0.897 2 2c0 0.929-0.64 1.705-1.5 1.929V5.5C21.5 6.879 20.378 8 19 8h-3.5C15.224 8 15 7.776 15 7.5zM21 3c0.551 0 1-0.448 1-1s-0.449-1-1-1-1 0.448-1 1 0.449 1 1 1zM23 22c0 1.103-0.897 2-2 2s-2-0.897-2-2c0-0.929 0.64-1.705 1.5-1.929V18.5c0-0.827-0.673-1.5-1.5-1.5h-6.5c-0.276 0-0.5-0.224-0.5-0.5s0.224-0.5 0.5-0.5H19c1.378 0 2.5 1.121 2.5 2.5v1.571c0.86 0.224 1.5 1 1.5 1.929zM22 22c0-0.552-0.449-1-1-1s-1 0.448-1 1 0.449 1 1 1 1-0.448 1-1zM23 12c0 1.103-0.897 2-2 2-0.929 0-1.705-0.64-1.929-1.5H12.5c-0.276 0-0.5-0.224-0.5-0.5s0.224-0.5 0.5-0.5h6.571c0.224-0.86 1-1.5 1.929-1.5 1.103 0 2 0.897 2 2zM22 12c0-0.552-0.449-1-1-1s-1 0.448-1 1 0.449 1 1 1 1-0.448 1-1z" />
</svg>