<svg id="digital_certificate_Layer_1" viewBox="0 0 24 24" fill="currentColor" width="32" height="32" data-name="Layer 1" xmlns="http://www.w3.org/2000/svg" xmlns:xlink="http://www.w3.org/1999/xlink">
    <title>digital-certificate</title>
    <path d="M5 4c0 0.552-0.448 1-1 1S3 4.552 3 4 3.448 3 4 3 5 3.448 5 4zM7 3C6.448 3 6 3.448 6 4s0.448 1 1 1 1-0.448 1-1-0.448-1-1-1zM24 16c0 1.255-0.593 2.363-1.5 3.097v4.009c0 0.362-0.216 0.687-0.551 0.825-0.332 0.138-0.716 0.064-0.974-0.194L20 22.762l-0.975 0.975c-0.256 0.257-0.639 0.332-0.974 0.194-0.335-0.139-0.551-0.463-0.551-0.825v-4.009C16.593 18.363 16 17.255 16 16c0-2.206 1.794-4 4-4s4 1.794 4 4zM21.5 19.702C21.036 19.891 20.531 20 20 20s-1.036-0.109-1.5-0.298v3.146l1.146-1.146c0.195-0.195 0.512-0.195 0.707 0l1.146 1.146zM23 16c0-1.657-1.343-3-3-3s-3 1.343-3 3 1.343 3 3 3 3-1.343 3-3zM7 15c-1.378 0-2.5-1.122-2.5-2.5S5.622 10 7 10s2.5 1.122 2.5 2.5S8.378 15 7 15zM7 14c0.827 0 1.5-0.673 1.5-1.5S7.827 11 7 11s-1.5 0.673-1.5 1.5S6.173 14 7 14zM3.058 18.268c-0.129 0.244-0.035 0.546 0.21 0.675 0.246 0.13 0.547 0.035 0.675-0.21 0.553-1.052 1.753-1.732 3.058-1.732s2.504 0.68 3.058 1.732c0.129 0.247 0.435 0.337 0.675 0.21 0.245-0.128 0.339-0.431 0.21-0.675C10.22 16.891 8.673 16 7.002 16s-3.219 0.89-3.944 2.268zM24 4.5v6c0 0.276-0.224 0.5-0.5 0.5S23 10.776 23 10.5V8H1v9.5C1 19.43 2.57 21 4.5 21H15c0.276 0 0.5 0.224 0.5 0.5S15.276 22 15 22H4.5C2.019 22 0 19.981 0 17.5v-13C0 2.019 2.019 0 4.5 0h15C21.981 0 24 2.019 24 4.5zM23 4.5C23 2.57 21.43 1 19.5 1h-15C2.57 1 1 2.57 1 4.5V7h22zM10.5 3c-0.552 0-1 0.448-1 1s0.448 1 1 1 1-0.448 1-1-0.448-1-1-1z" />
</svg>