<svg id="dinner_Layer_1" viewBox="0 0 24 24" fill="currentColor" width="32" height="32" data-name="Layer 1" xmlns="http://www.w3.org/2000/svg" xmlns:xlink="http://www.w3.org/1999/xlink">
    <title>dinner</title>
    <path d="M16.864 18.585c0.189 0.201 0.18 0.518-0.022 0.707C14.983 21.038 12.552 22 10 22 4.486 22 0 17.514 0 12S4.486 2 10 2c1.273 0 2.512 0.236 3.685 0.701 0.257 0.102 0.382 0.393 0.28 0.649-0.103 0.256-0.394 0.381-0.649 0.28C12.262 3.212 11.147 3 10.001 3 5.038 3 1 7.038 1 12s4.038 9 9 9c2.297 0 4.484-0.865 6.158-2.437 0.199-0.188 0.518-0.18 0.706 0.022zM9.5 6.5v5.293l-2.854 2.854c-0.195 0.195-0.195 0.512 0 0.707C6.744 15.452 6.872 15.5 7 15.5s0.256-0.049 0.354-0.146l3-3C10.448 12.26 10.5 12.133 10.5 12V6.5C10.5 6.224 10.276 6 10 6S9.5 6.224 9.5 6.5zM24 7.5c0 2.31-1.756 4.197-4 4.449V23.5c0 0.276-0.224 0.5-0.5 0.5S19 23.776 19 23.5V11.949c-2.244-0.252-4-2.139-4-4.449 0-2.226 1.716-7.5 4.422-7.5C22.176 0 24 5.337 24 7.5zM23 7.5C23 5.457 21.204 1 19.422 1 17.654 1 16 5.469 16 7.5c0 1.93 1.57 3.5 3.5 3.5S23 9.43 23 7.5z" />
</svg>