<svg id="diploma_alt_Layer_1" viewBox="0 0 24 24" fill="currentColor" width="32" height="32" data-name="Layer 1" xmlns="http://www.w3.org/2000/svg" xmlns:xlink="http://www.w3.org/1999/xlink">
    <title>diploma-alt</title>
    <path d="M23.124 7.569c-0.579-0.455-1.323-0.615-2.044-0.442-0.819 0.198-1.794 0.493-2.684 0.749 0.371-0.568 0.606-1.281 0.605-2.235C19.046 3.62 17.178 1.908 15.179 2c-1.392 0.049-2.535 0.841-3.172 2.097C11.374 2.849 10.224 2.049 8.824 2 6.813 1.909 4.962 3.619 5.002 5.641c0 0.954 0.234 1.667 0.605 2.235-0.89-0.255-1.864-0.55-2.684-0.749-1.409-0.383-2.957 0.762-2.92 2.231v6.363c-0.03 1.244 1.114 2.328 2.347 2.299 1.957-0.295 4.172-0.965 6.653-1.246v5.253c0 0.389 0.231 0.739 0.589 0.893 0.358 0.153 0.771 0.078 1.077-0.215l1.334-1.464 1.358 1.488c0.283 0.271 0.698 0.343 1.052 0.19 0.358-0.153 0.589-0.504 0.589-0.893v-5.253c2.177 0.288 4.477 0.79 6.079 1.177 1.409 0.386 2.956-0.761 2.921-2.23V9.357c0-0.698-0.319-1.351-0.878-1.788zM15.213 3C16.649 2.915 18.038 4.182 18 5.641c1e-3 1.579-0.634 2.405-2.374 2.945-1.006 0.212-2.052 0.36-3.126 0.398l-3e-3-3.141C12.696 4.167 13.762 3.052 15.213 3zM6 5.641C5.966 4.179 7.34 2.92 8.787 3c1.451 0.051 2.518 1.166 2.713 2.784v3.199c-1.073-0.038-2.12-0.186-3.125-0.398C6.634 8.045 5.999 7.22 6 5.641zM2.686 16.98C1.883 17.203 0.983 16.563 1 15.722V9.359C0.981 8.518 1.884 7.878 2.686 8.1 4.721 8.641 6.852 9.296 9 9.785v5.981c-2.26 0.291-4.656 0.813-6.314 1.214zM12.37 20.164c-0.189-0.207-0.55-0.207-0.739 0l-1.63 1.865V9.949c1.468 0.089 2.534 0.092 4.003 0l0.071 12.083zM23 15.723c0.018 0.84-0.883 1.483-1.686 1.258-1.658-0.401-4.055-0.922-6.314-1.213V9.787c2.148-0.489 4.28-1.145 6.314-1.685C22.118 7.88 23.018 8.52 23 9.361z" />
</svg>