<svg id="disc_drive_Layer_1" viewBox="0 0 24 24" fill="currentColor" width="32" height="32" data-name="Layer 1" xmlns="http://www.w3.org/2000/svg" xmlns:xlink="http://www.w3.org/1999/xlink">
    <title>disc-drive</title>
    <path d="M18.5 0h-13C3.019 0 1 2.019 1 4.5v15C1 21.981 3.019 24 5.5 24h13c2.481 0 4.5-2.019 4.5-4.5v-15C23 2.019 20.981 0 18.5 0zM22 19.5c0 1.93-1.57 3.5-3.5 3.5h-13C3.57 23 2 21.43 2 19.5v-15C2 2.57 3.57 1 5.5 1h13C20.43 1 22 2.57 22 4.5zM12 4c-4.411 0-8 3.589-8 8s3.589 8 8 8 8-3.589 8-8-3.589-8-8-8zM12 19c-3.86 0-7-3.14-7-7s3.14-7 7-7 7 3.14 7 7-3.14 7-7 7zM13 12c0 0.552-0.448 1-1 1s-1-0.448-1-1 0.448-1 1-1 1 0.448 1 1z" />
</svg>