<svg id="discount_Layer_1" viewBox="0 0 24 24" fill="currentColor" width="32" height="32" data-name="Layer 1" xmlns="http://www.w3.org/2000/svg" xmlns:xlink="http://www.w3.org/1999/xlink">
    <title>discount</title>
    <path d="M9 10.001c0-1.102-0.897-2-2-2s-2 0.897-2 2 0.897 2 2 2 2-0.897 2-2zM7 11.001c-0.551 0-1-0.448-1-1s0.449-1 1-1 1 0.448 1 1-0.449 1-1 1zM17.5 11.001c-3.584 0-6.5 2.916-6.5 6.5s2.916 6.5 6.5 6.5 6.5-2.916 6.5-6.5-2.916-6.5-6.5-6.5zM17.5 23c-3.033 0-5.5-2.468-5.5-5.5s2.467-5.5 5.5-5.5 5.5 2.468 5.5 5.5-2.467 5.5-5.5 5.5zM19.551 17.5H18v-3c0-0.276-0.224-0.5-0.5-0.5S17 14.224 17 14.5v3h-1.558c-0.42 0-0.79 0.237-0.966 0.619s-0.115 0.817 0.187 1.167l1.826 1.8c0.265 0.267 0.619 0.413 0.997 0.415h5e-3c0.377 0 0.732-0.146 0.997-0.409l1.868-1.834c0.275-0.318 0.337-0.754 0.162-1.137S19.973 17.5 19.551 17.5zM17.784 20.38c-0.078 0.078-0.182 0.121-0.294 0.121-0.111 0-0.215-0.044-0.292-0.122-1e-3 0-2e-3-2e-3-4e-3-4e-3l-1.75-1.733c-0.053-0.052-0.016-0.142 0.059-0.142h4c0.075 0 0.111 0.091 0.058 0.143zM11 23.5c0 0.276-0.224 0.5-0.5 0.5h-6C2.019 24 0 21.982 0 19.5V7.647c0-1.204 0.606-2.308 1.621-2.953l6.67-4.247c1.08-0.596 2.354-0.586 3.363-0.033l6.726 4.279C19.395 5.339 20 6.443 20 7.645V8.5C20 8.776 19.776 9 19.5 9S19 8.776 19 8.5V7.645c0-0.859-0.432-1.646-1.157-2.107l-6.698-4.264C10.488 0.916 9.531 0.904 8.8 1.307L2.158 5.538C1.433 5.999 1.001 6.787 1.001 7.647V19.5c0 1.93 1.57 3.5 3.5 3.5h6c0.276 0 0.5 0.224 0.499 0.5zM7.063 17.257l5-9c0.134-0.241 0.439-0.326 0.68-0.194 0.242 0.135 0.329 0.438 0.194 0.681l-5 9c-0.135 0.243-0.443 0.326-0.68 0.194-0.242-0.135-0.329-0.438-0.194-0.681z" />
</svg>