<svg id="disease_Layer_1" viewBox="0 0 24 24" fill="currentColor" width="32" height="32" data-name="Layer 1" xmlns="http://www.w3.org/2000/svg" xmlns:xlink="http://www.w3.org/1999/xlink">
    <title>disease</title>
    <path d="M18.999 13.5c0-0.691 0.973-1.874 1.914-3.017C22.359 8.724 24 6.73 24 4.681c0-0.714 0-2.61-2.591-2.61-1.176 0-2.289 0.481-3.365 0.946C16.926 3.5 15.77 4 14.499 4c-1.168 0-2.281-1.03-3.358-2.027C10.044 0.958 9.009 0 7.792 0 7.52-4e-3 7.143 0 6.787 0.13 5.883 0.463 5.569 1.344 5.366 2.247 5.18 3.068 4.999 5.218 4.999 6c0 1.001-1.1 1.626-2.264 2.288C1.453 9.016 0 9.842 0 11.389c0 1.35 1.144 1.985 2.153 2.544 1.158 0.643 1.86 1.102 1.846 2.059-7e-3 0.44-0.655 1.839-1.12 2.68-0.367 0.665-0.6 1.238-0.73 1.803-0.159 0.676-0.09 1.65 0.625 2.173 0.684 0.5 1.561 0.266 2.034 0.143 0.736-0.194 1.58-0.699 2.474-1.234 1.22-0.729 2.602-1.556 3.718-1.556 0.989 0 3.624 1.617 4.672 2.462 0.712 0.574 2.132 1.538 3.646 1.538 1.647 0 2.592-0.944 2.592-2.591 0-1.745-0.804-3.104-1.581-4.419-0.684-1.156-1.329-2.249-1.33-3.491zM19.317 23c-1.252 0-2.527-0.92-3.018-1.316-0.734-0.592-3.8-2.684-5.301-2.684-1.393 0-2.9 0.902-4.231 1.698-0.831 0.497-1.616 0.966-2.215 1.125-0.431 0.113-0.914 0.219-1.189 0.017-0.285-0.208-0.337-0.729-0.241-1.138 0.11-0.474 0.311-0.966 0.632-1.547 0.05-0.091 1.23-2.233 1.245-3.147 0.025-1.625-1.298-2.359-2.36-2.949C1.623 12.496 1 12.114 1 11.389c0-0.965 1.083-1.581 2.229-2.231C4.528 8.42 6 7.584 6 6.001 6 5.223 6.187 3.156 6.342 2.469 6.506 1.743 6.703 1.228 7.134 1.07c0.187-0.068 0.384-0.067 0.69-0.068 0.794 0 1.689 0.829 2.639 1.707 1.161 1.075 2.478 2.293 4.037 2.293 1.478 0 2.73-0.542 3.942-1.065 1.027-0.444 1.999-0.864 2.968-0.864 1.591 0 1.591 0.819 1.591 1.61 0 1.69-1.52 3.537-2.859 5.166C18.993 11.246 18 12.452 18 13.501c0 1.515 0.746 2.778 1.469 3.999 0.741 1.254 1.441 2.439 1.441 3.911 0 0.741-0.181 1.591-1.593 1.589zM8.998 10c-0.552 0-1-0.448-1-1s0.448-1 1-1 1 0.448 1 1-0.448 1-1 1zM15.998 10c0 0.552-0.448 1-1 1s-1-0.448-1-1 0.448-1 1-1 1 0.448 1 1zM10.998 15c0 0.552-0.448 1-1 1s-1-0.448-1-1 0.448-1 1-1 1 0.448 1 1z" />
</svg>