<svg id="disinfection_Layer_1" viewBox="0 0 24 24" fill="currentColor" width="32" height="32" data-name="Layer 1" xmlns="http://www.w3.org/2000/svg" xmlns:xlink="http://www.w3.org/1999/xlink">
    <title>disinfection</title>
    <path d="M20 11c0 0.552-0.448 1-1 1s-1-0.448-1-1 0.448-1 1-1 1 0.448 1 1zM22 10c0.552 0 1-0.448 1-1s-0.448-1-1-1-1 0.448-1 1 0.448 1 1 1zM22 12c-0.552 0-1 0.448-1 1s0.448 1 1 1 1-0.448 1-1-0.448-1-1-1zM16.5 11.5c0 0.276-0.224 0.5-0.5 0.5h-2.5c-0.465-0.057-0.925-0.178-1.312-0.465L11 10.686v6.505l0.618 0.309C12.471 17.927 13 18.783 13 19.736V23.5c0 0.276-0.224 0.5-0.5 0.5S12 23.776 12 23.5v-3.764c0-0.572-0.318-1.086-0.829-1.342l-4.236-2.118c-0.594-0.297-1.075-0.743-1.41-1.281-9e-3 0-0.016 5e-3-0.025 5e-3h-1C2.57 15 1 13.43 1 11.5v-2C1 7.57 2.57 6 4.5 6H5V3c0-1.654 1.346-3 3-3s3 1.346 3 3v3.362L13.783 11H16c0.276 0 0.5 0.224 0.5 0.5zM6 6h4V4H8.5C8.224 4 8 3.776 8 3.5S8.224 3 8.5 3H10c0-1.103-0.897-2-2-2S6 1.897 6 3zM5.11 14C5.041 13.724 5 13.439 5 13.146V7H4.5C3.122 7 2 8.122 2 9.5v2C2 12.878 3.122 14 4.5 14zM12.209 10.321 10.216 7H5.999v6.146c0 0.953 0.529 1.811 1.382 2.236l2.618 1.309v-6.225c0-0.333 0.184-0.636 0.481-0.789 0.296-0.153 0.649-0.127 0.921 0.067zM6.066 18.009c-0.271-0.049-0.533 0.125-0.586 0.396l-0.971 5c-0.053 0.271 0.125 0.534 0.396 0.587 0.265 0.052 0.535-0.123 0.586-0.396l0.971-5c0.053-0.271-0.125-0.534-0.396-0.587z" />
</svg>