<svg id="display_arrow_down_Layer_1" viewBox="0 0 24 24" fill="currentColor" width="32" height="32" data-name="Layer 1" xmlns="http://www.w3.org/2000/svg" xmlns:xlink="http://www.w3.org/1999/xlink">
    <title>display-arrow-down</title>
    <path d="M24 6.5v8c0 2.481-2.019 4.5-4.5 4.5h-7v2h4c0.276 0 0.5 0.224 0.5 0.5S16.776 22 16.5 22h-9C7.224 22 7 21.776 7 21.5S7.224 21 7.5 21h4v-2h-7C2.019 19 0 16.981 0 14.5v-8C0 4.019 2.019 2 4.5 2h4C8.776 2 9 2.224 9 2.5S8.776 3 8.5 3h-4C2.57 3 1 4.57 1 6.5v8C1 16.43 2.57 18 4.5 18h15c1.93 0 3.5-1.57 3.5-3.5v-8C23 4.57 21.43 3 19.5 3h-4C15.224 3 15 2.776 15 2.5S15.224 2 15.5 2h4C21.981 2 24 4.019 24 6.5zM8.096 7.143c-0.197 0.193-0.201 0.51-8e-3 0.707l2.52 2.574c0.372 0.373 0.867 0.578 1.394 0.578s1.021-0.205 1.396-0.582l2.516-2.57c0.193-0.197 0.189-0.514-8e-3-0.707-0.196-0.193-0.515-0.189-0.707 8e-3l-2.512 2.566C12.633 9.771 12.564 9.8 12.5 9.838V0.5C12.5 0.224 12.276 0 12 0s-0.5 0.224-0.5 0.5v9.337C11.438 9.8 11.37 9.772 11.318 9.72L8.802 7.15c-0.191-0.197-0.511-0.201-0.706-7e-3z" />
</svg>