<svg id="distribute_spacing_horizontal_Layer_1" viewBox="0 0 24 24" fill="currentColor" width="32" height="32" data-name="Layer 1" xmlns="http://www.w3.org/2000/svg" xmlns:xlink="http://www.w3.org/1999/xlink">
    <title>distribute-spacing-horizontal</title>
    <path d="M21.5 24c-0.28 0-0.5-0.22-0.5-0.5v-23C21 0.22 21.22 0 21.5 0S22 0.22 22 0.5v23c0 0.28-0.22 0.5-0.5 0.5zM3 23.5v-23C3 0.22 2.78 0 2.5 0S2 0.22 2 0.5v23C2 23.78 2.22 24 2.5 24S3 23.78 3 23.5zM17 16.5v-9C17 5.57 15.43 4 13.5 4H11C9.07 4 7.5 5.57 7.5 7.5v9c0 1.93 1.57 3.5 3.5 3.5h2.5c1.93 0 3.5-1.57 3.5-3.5zM13.5 5C14.88 5 16 6.12 16 7.5v9c0 1.38-1.12 2.5-2.5 2.5H11c-1.38 0-2.5-1.12-2.5-2.5v-9C8.5 6.12 9.62 5 11 5z" />
</svg>