<svg id="diving_googles_Layer_1" viewBox="0 0 24 24" fill="currentColor" width="32" height="32" data-name="Layer 1" xmlns="http://www.w3.org/2000/svg" xmlns:xlink="http://www.w3.org/1999/xlink">
    <title>diving-googles</title>
    <path d="M12 0C5.383 0 0 5.383 0 12v6.5c7e-3 1.836 0.823 3.383 2.127 4.09C3.153 23.251 4.317 24 6 24c1.785 0 3.346-0.84 4.231-2.11 0.363-0.445 0.961-0.897 1.774-0.89 0.862-0.01 1.446 0.508 1.828 0.979C14.728 23.198 16.257 24 18 24c1.683 0 2.846-0.75 3.873-1.41 1.307-0.715 2.122-2.264 2.127-4.09V12c0-6.617-5.383-12-12-12zM9.976 19.902C9.767 21.668 8.058 23 6 23c-1.389 0-2.376-0.636-3.331-1.251-1.079-0.553-1.71-1.883-1.669-3.4C1.479 17.842 3.43 16 6.301 16c1.093 0 2.125 0.44 2.831 1.234 0.66 0.744 0.96 1.691 0.844 2.668zM13.031 20.021c7e-3 0.061 0.03 0.116 0.04 0.176C12.711 20.07 12.336 20 12.005 20c-0.337 0-0.714 0.067-1.075 0.193 0.111-0.456 0.061-0.937-4e-3-1.387C11.289 18.932 11.667 19 12.005 19c0.333 0 0.708-0.07 1.07-0.198-0.064 0.398-0.093 0.804-0.044 1.219zM21.331 21.749C20.376 22.364 19.389 23 18 23c-2.057 0-3.766-1.332-3.976-3.098-0.116-0.977 0.184-1.924 0.844-2.668C15.574 16.44 16.605 16 17.699 16 20.57 16 22.52 17.842 23 18.349c-7e-3 1.494-0.626 2.843-1.669 3.4zM23 16.979C21.991 16.138 20.159 15 17.699 15c-1.379 0-2.683 0.562-3.578 1.57-0.18 0.22-0.325 0.445-0.497 0.665C13.438 17.621 12.637 18 12.005 18c-0.62 0-1.393-0.345-1.59-0.709-0.191-0.233-0.332-0.491-0.536-0.721C8.984 15.562 7.68 15 6.301 15 3.842 15 2.009 16.137 1 16.979V12C1 5.935 5.935 1 12 1s11 4.935 11 11z" />
</svg>