<svg id="divide_Layer_1" viewBox="0 0 24 24" fill="currentColor" width="32" height="32" data-name="Layer 1" xmlns="http://www.w3.org/2000/svg" xmlns:xlink="http://www.w3.org/1999/xlink">
    <title>divide</title>
    <path d="M24 12c0 0.276-0.224 0.5-0.5 0.5h-23C0.224 12.5 0 12.276 0 12s0.224-0.5 0.5-0.5h23c0.276 0 0.5 0.224 0.5 0.5zM10.5 5c0 0.827 0.673 1.5 1.5 1.5s1.5-0.673 1.5-1.5-0.673-1.5-1.5-1.5-1.5 0.673-1.5 1.5zM13.5 19c0-0.827-0.673-1.5-1.5-1.5s-1.5 0.673-1.5 1.5 0.673 1.5 1.5 1.5 1.5-0.673 1.5-1.5z" />
</svg>