<svg id="dizzy_Layer_1" viewBox="0 0 24 24" fill="currentColor" width="32" height="32" data-name="Layer 1" xmlns="http://www.w3.org/2000/svg" xmlns:xlink="http://www.w3.org/1999/xlink">
    <title>dizzy</title>
    <path d="M12 0C5.383 0 0 5.383 0 12s5.383 12 12 12 12-5.383 12-12S18.617 0 12 0zM12 23C5.935 23 1 18.065 1 12S5.935 1 12 1 23 5.935 23 12 18.065 23 12 23zM12 13c-2.206 0-4 1.794-4 4s1.794 4 4 4 4-1.794 4-4-1.794-4-4-4zM12 20c-1.654 0-3-1.346-3-3s1.346-3 3-3 3 1.346 3 3-1.346 3-3 3zM18.854 6.854 17.208 8.5l1.646 1.646c0.195 0.195 0.195 0.512 0 0.707-0.098 0.098-0.226 0.146-0.354 0.146s-0.256-0.049-0.354-0.146L16.5 9.207l-1.646 1.646c-0.098 0.098-0.226 0.146-0.354 0.146s-0.256-0.049-0.354-0.146c-0.195-0.195-0.195-0.512 0-0.707L15.792 8.5 14.146 6.854c-0.195-0.195-0.195-0.512 0-0.707s0.512-0.195 0.707 0l1.646 1.646 1.646-1.646c0.195-0.195 0.512-0.195 0.707 0s0.195 0.512 2e-3 0.707zM9.147 10.854 7.501 9.208 5.855 10.854C5.757 10.952 5.629 11 5.501 11s-0.256-0.049-0.354-0.146c-0.195-0.195-0.195-0.512 0-0.707l1.646-1.646-1.646-1.646c-0.195-0.195-0.195-0.512 0-0.707s0.512-0.195 0.707 0L7.5 7.794 9.146 6.148c0.195-0.195 0.512-0.195 0.707 0s0.195 0.512 0 0.707L8.207 8.501l1.646 1.646c0.195 0.195 0.195 0.512 0 0.707C9.755 10.952 9.627 11 9.499 11s-0.256-0.049-0.352-0.146z" />
</svg>