<svg id="dj_disc_Layer_1" viewBox="0 0 24 24" fill="currentColor" width="32" height="32" data-name="Layer 1" xmlns="http://www.w3.org/2000/svg" xmlns:xlink="http://www.w3.org/1999/xlink">
    <title>dj-disc</title>
    <path d="M6 10.5c0 2.481 2.019 4.5 4.5 4.5s4.5-2.019 4.5-4.5S12.981 6 10.5 6 6 8.019 6 10.5zM14 10.5c0 1.93-1.57 3.5-3.5 3.5S7 12.43 7 10.5 8.57 7 10.5 7 14 8.57 14 10.5zM10.5 9.5c0.552 0 1 0.448 1 1s-0.448 1-1 1-1-0.448-1-1 0.448-1 1-1zM22.5 13c-0.197 0-0.385 0.04-0.558 0.11C21.769 12.472 21.191 12 20.5 12c-0.197 0-0.385 0.04-0.558 0.11C19.769 11.472 19.191 11 18.5 11s-1.269 0.473-1.442 1.11C16.885 12.04 16.698 12 16.5 12c-0.827 0-1.5 0.673-1.5 1.5v4.782l-0.298-0.298c-0.113-0.113-0.529-0.483-1.139-0.484h-1e-3c-0.401 0-0.779 0.167-1.095 0.482-0.606 0.606-0.618 1.618-0.022 2.214l2.292 2.238c1.033 1.01 2.398 1.565 3.843 1.565h1.921c1.93 0 3.5-1.57 3.5-3.5v-6c0-0.827-0.673-1.5-1.501-1.499zM23 20.5c0 1.379-1.122 2.5-2.5 2.5h-1.921c-1.182 0-2.299-0.455-3.144-1.28l-2.288-2.234c-0.095-0.095-0.148-0.234-0.147-0.382 2e-3-0.157 0.063-0.304 0.173-0.414 0.127-0.127 0.254-0.189 0.388-0.189v0c0.167 0 0.341 0.099 0.433 0.19l1.152 1.152c0.144 0.144 0.358 0.187 0.545 0.108 0.187-0.077 0.309-0.26 0.309-0.462V13.5c0-0.275 0.224-0.5 0.5-0.5s0.5 0.225 0.5 0.5v4c0 0.276 0.224 0.5 0.5 0.5s0.5-0.224 0.5-0.5v-5c0-0.275 0.224-0.5 0.5-0.5s0.5 0.225 0.5 0.5v5c0 0.276 0.224 0.5 0.5 0.5s0.5-0.224 0.5-0.5v-4c0-0.275 0.224-0.5 0.5-0.5s0.5 0.225 0.5 0.5v4c0 0.276 0.224 0.5 0.5 0.5s0.5-0.224 0.5-0.5v-3c0-0.275 0.224-0.5 0.5-0.5s0.5 0.225 0.5 0.5zM11 20.5c0 0.276-0.224 0.5-0.5 0.5C4.71 21 0 16.29 0 10.5S4.71 0 10.5 0c5.421 0 9.913 4.062 10.448 9.45 0.027 0.275-0.173 0.521-0.448 0.547-0.266 0.032-0.52-0.173-0.547-0.447C19.469 4.676 15.405 1 10.5 1 5.262 1 1 5.262 1 10.5S5.262 20 10.5 20c0.276 0 0.5 0.224 0.5 0.5z" />
</svg>