<svg id="do_not_enter_Layer_1" viewBox="0 0 24 24" fill="currentColor" width="32" height="32" data-name="Layer 1" xmlns="http://www.w3.org/2000/svg" xmlns:xlink="http://www.w3.org/1999/xlink">
    <title>do-not-enter</title>
    <path d="M12 0C5.383 0 0 5.383 0 12s5.383 12 12 12 12-5.383 12-12S18.617 0 12 0zM12 23C5.935 23 1 18.065 1 12S5.935 1 12 1 23 5.935 23 12 18.065 23 12 23zM17.5 9h-11C5.673 9 5 9.673 5 10.5v3C5 14.327 5.673 15 6.5 15h11c0.827 0 1.5-0.673 1.5-1.5v-3C19 9.673 18.327 9 17.5 9zM18 13.5c0 0.276-0.225 0.5-0.5 0.5h-11C6.225 14 6 13.776 6 13.5v-3C6 10.224 6.225 10 6.5 10h11c0.275 0 0.5 0.224 0.5 0.5z" />
</svg>