<svg id="doctor_bag_Layer_1" viewBox="0 0 24 24" fill="currentColor" width="32" height="32" data-name="Layer 1" xmlns="http://www.w3.org/2000/svg" xmlns:xlink="http://www.w3.org/1999/xlink">
    <title>doctor-bag</title>
    <path d="M19.5 4h-1.551C17.697 1.756 15.81 0 13.5 0h-3C8.19 0 6.303 1.756 6.051 4H4.5C2.019 4 0 6.019 0 8.5v11C0 21.981 2.019 24 4.5 24h15c2.481 0 4.5-2.019 4.5-4.5v-11C24 6.019 21.981 4 19.5 4zM10.5 1h3c1.76 0 3.221 1.306 3.464 3H7.036C7.279 2.306 8.74 1 10.5 1zM4.5 5h15C21.43 5 23 6.57 23 8.5V17H1V8.5C1 6.57 2.57 5 4.5 5zM19.5 23h-15C2.57 23 1 21.43 1 19.5V18h5v1.5C6 19.776 6.224 20 6.5 20S7 19.776 7 19.5V18h10v1.5c0 0.276 0.224 0.5 0.5 0.5s0.5-0.224 0.5-0.5V18h5v1.5c0 1.93-1.57 3.5-3.5 3.5zM9 11c0-0.276 0.224-0.5 0.5-0.5h2v-2C11.5 8.224 11.724 8 12 8s0.5 0.224 0.5 0.5v2h2c0.276 0 0.5 0.224 0.5 0.5s-0.224 0.5-0.5 0.5h-2v2c0 0.276-0.224 0.5-0.5 0.5s-0.5-0.224-0.5-0.5v-2h-2C9.224 11.5 9 11.276 9 11z" />
</svg>