<svg id="document_fail_Layer_1" viewBox="0 0 24 24" fill="currentColor" width="32" height="32" data-name="Layer 1" xmlns="http://www.w3.org/2000/svg" xmlns:xlink="http://www.w3.org/1999/xlink">
    <title>document-fail</title>
    <path d="M2.5 2C1.121 2 0 3.121 0 4.5V22h17V6.793L12.207 2zM12 3.207 15.793 7H12zM2.5 3H11v5h5v5.79l-1.502-1.486-2.992 2.989-2.995-2.992-2.994 2.991-2.991-2.991-1.525 1.51V4.5C1.001 3.673 1.674 3 2.5 3zM1 21v-5.782l1.521-1.507 2.995 2.995 2.994-2.991 2.995 2.992 2.996-2.993 1.498 1.483V21zM21.5 3C20.121 3 19 4.121 19 5.5v12.707l2.5 2.5 2.5-2.5V5.5C24 4.121 22.879 3 21.5 3zM23 17.793l-1.5 1.5-1.5-1.5V5.5C20 4.673 20.673 4 21.5 4S23 4.673 23 5.5z" />
</svg>