<svg id="document_nft_Layer_1" viewBox="0 0 24 24" fill="currentColor" width="32" height="32" data-name="Layer 1" xmlns="http://www.w3.org/2000/svg" xmlns:xlink="http://www.w3.org/1999/xlink">
    <title>document-nft</title>
    <path d="M19.5 0h-15C2.019 0 0 2.019 0 4.5v15C0 21.981 2.019 24 4.5 24h9.515c1.735 0 3.368-0.676 4.597-1.904l3.484-3.485C23.324 17.384 24 15.752 24 14.015V4.5C24 2.019 21.981 0 19.5 0zM4.5 23C2.57 23 1 21.43 1 19.5v-15C1 2.57 2.57 1 4.5 1h15C21.43 1 23 2.57 23 4.5v9.515c0 0.335-0.038 0.663-0.096 0.985H17.5c-1.379 0-2.5 1.122-2.5 2.5v5.404C14.677 22.962 14.349 23 14.015 23zM21.389 17.904l-3.484 3.485c-0.551 0.55-1.2 0.959-1.904 1.231V17.5c0-0.827 0.673-1.5 1.5-1.5h5.121c-0.273 0.704-0.682 1.354-1.233 1.904zM14.5 4.5C14.5 4.224 14.724 4 15 4h3c0.276 0 0.5 0.224 0.5 0.5S18.276 5 18 5h-1v5.5c0 0.276-0.224 0.5-0.5 0.5S16 10.776 16 10.5V5h-1c-0.276 0-0.5-0.224-0.5-0.5zM11 5v2h2c0.276 0 0.5 0.224 0.5 0.5S13.276 8 13 8h-2v2.5c0 0.276-0.224 0.5-0.5 0.5S10 10.776 10 10.5V5c0-0.551 0.449-1 1-1h2c0.276 0 0.5 0.224 0.5 0.5S13.276 5 13 5zM8.5 4.5v5.729c0 0.367-0.25 0.675-0.609 0.75-0.357 0.076-0.712-0.107-0.858-0.443L5 5.89v4.61C5 10.776 4.776 11 4.5 11S4 10.776 4 10.5V4.8c0-0.369 0.252-0.68 0.614-0.755 0.363-0.077 0.718 0.108 0.865 0.446L7.5 9.111V4.5C7.5 4.224 7.724 4 8 4s0.5 0.224 0.5 0.5z" />
</svg>