<svg id="document_circle_arrow_up_Layer_1" viewBox="0 0 24 24" fill="currentColor" width="32" height="32" data-name="Layer 1" xmlns="http://www.w3.org/2000/svg" xmlns:xlink="http://www.w3.org/1999/xlink">
    <title>document-circle-arrow-up</title>
    <path d="M10.5 23h-6C2.57 23 1 21.43 1 19.5v-15C1 2.57 2.57 1 4.5 1h5.515C10.349 1 10.679 1.03 11 1.087V6.5C11 7.878 12.122 9 13.5 9h5.813c0.317 8e-3 0.571-0.319 0.484-0.624-0.289-1.13-0.877-2.163-1.702-2.987L14.61 1.904C13.382 0.676 11.75 0 10.014 0H4.5C2.019 0 0 2.019 0 4.5v15C0 21.981 2.019 24 4.5 24h6c0.276 0 0.5-0.224 0.5-0.5S10.776 23 10.5 23zM12 1.368c0.706 0.272 1.353 0.692 1.904 1.243l3.485 3.485c0.542 0.542 0.964 1.192 1.24 1.904H13.5C12.673 8 12 7.327 12 6.5zM17.5 11c-3.584 0-6.5 2.916-6.5 6.5s2.916 6.5 6.5 6.5 6.5-2.916 6.5-6.5-2.916-6.5-6.5-6.5zM17.5 23c-3.033 0-5.5-2.467-5.5-5.5s2.467-5.5 5.5-5.5 5.5 2.467 5.5 5.5-2.467 5.5-5.5 5.5zM18.491 13.912c-0.526-0.547-1.477-0.547-2.002 2e-3l-1.854 1.831c-0.273 0.319-0.334 0.754-0.158 1.136s0.546 0.619 0.966 0.619h1.558v3c0 0.276 0.224 0.5 0.5 0.5s0.5-0.224 0.5-0.5v-3h1.551c0.421 0 0.792-0.238 0.967-0.621s0.113-0.819-0.19-1.167zM19.551 16.5h-4.109l-0.077-0.074 1.828-1.802c0.155-0.164 0.437-0.166 0.594 0l1.838 1.801z" />
</svg>