<svg id="document_gavel_Layer_1" viewBox="0 0 24 24" fill="currentColor" width="32" height="32" data-name="Layer 1" xmlns="http://www.w3.org/2000/svg" xmlns:xlink="http://www.w3.org/1999/xlink">
    <title>document-gavel</title>
    <path d="M23.854 23.146l-5.255-5.255 2.293-2.293 0.435 0.435c0.098 0.098 0.226 0.146 0.354 0.146s0.256-0.049 0.354-0.146c0.195-0.195 0.195-0.512 0-0.707l-4.68-4.68c-0.195-0.195-0.512-0.195-0.707 0s-0.195 0.512 0 0.707l0.409 0.409-5.293 5.293-0.409-0.409c-0.195-0.195-0.512-0.195-0.707 0s-0.195 0.512 0 0.707l4.68 4.68c0.098 0.098 0.226 0.146 0.354 0.146s0.256-0.049 0.354-0.146c0.195-0.195 0.195-0.512 0-0.707l-0.435-0.435 2.293-2.293 5.255 5.255c0.098 0.098 0.226 0.146 0.354 0.146s0.256-0.049 0.354-0.146c0.195-0.195 0.195-0.512-3e-3-0.707zM14.892 20.184 12.47 17.762l5.293-5.293 2.421 2.421zM13.501 23H4.5C2.57 23 1 21.43 1 19.5v-15C1 2.57 2.57 1 4.5 1h5.515C10.35 1 10.678 1.038 11 1.096V6.5C11 7.878 12.122 9 13.5 9h5.39c0.033 0.18 0.078 0.357 0.093 0.541 0.022 0.275 0.25 0.478 0.539 0.458 0.274-0.022 0.479-0.264 0.457-0.539-0.125-1.536-0.794-2.982-1.883-4.07l-3.484-3.485c-1.229-1.228-2.861-1.904-4.597-1.904H4.5C2.019 0 0 2.019 0 4.5v15C0 21.981 2.019 24 4.5 24h9c0.276 0 0.5-0.224 0.5-0.5S13.776 23 13.501 23zM12 1.379c0.704 0.273 1.354 0.682 1.904 1.231l3.484 3.485c0.543 0.543 0.945 1.198 1.219 1.904h-5.108c-0.827 0-1.5-0.673-1.5-1.5z" />
</svg>