<svg id="document_link_Layer_1" viewBox="0 0 24 24" fill="currentColor" width="32" height="32" data-name="Layer 1" xmlns="http://www.w3.org/2000/svg" xmlns:xlink="http://www.w3.org/1999/xlink">
    <title>document-link</title>
    <path d="M18.208 21.762c0.195 0.195 0.195 0.512 0 0.707l-0.355 0.355c-0.783 0.783-1.811 1.174-2.839 1.174s-2.056-0.391-2.839-1.174c-1.565-1.565-1.565-4.112 0-5.678l1.42-1.42c0.758-0.758 1.766-1.176 2.839-1.176s2.08 0.418 2.838 1.176c0.275 0.274 0.509 0.587 0.693 0.928 0.132 0.243 0.042 0.546-0.201 0.678s-0.546 0.042-0.678-0.201c-0.139-0.256-0.314-0.491-0.521-0.697-1.139-1.141-3.125-1.139-4.264 0l-1.42 1.42c-1.175 1.175-1.175 3.088 0 4.264s3.088 1.176 4.264 0l0.355-0.355c0.195-0.195 0.512-0.195 0.708-1e-3zM22.824 12.176c-1.565-1.565-4.112-1.565-5.678 0l-0.355 0.355c-0.195 0.195-0.195 0.512 0 0.707s0.512 0.195 0.707 0l0.355-0.355c1.176-1.176 3.088-1.176 4.264 0s1.175 3.088 0 4.264l-1.42 1.42c-1.139 1.14-3.124 1.14-4.264 0-0.207-0.207-0.382-0.442-0.521-0.698-0.132-0.243-0.436-0.332-0.678-0.201-0.243 0.131-0.333 0.435-0.201 0.678 0.185 0.341 0.418 0.654 0.693 0.928 0.758 0.758 1.766 1.176 2.838 1.176s2.081-0.418 2.839-1.176l1.42-1.42c1.565-1.565 1.565-4.112 1e-3-5.678zM4.5 11C4.224 11 4 11.224 4 11.5S4.224 12 4.5 12h10c0.276 0 0.5-0.224 0.5-0.5S14.776 11 14.5 11zM10.5 15h-6C4.224 15 4 15.224 4 15.5S4.224 16 4.5 16h6c0.276 0 0.5-0.224 0.5-0.5S10.776 15 10.5 15zM10 23.5c0 0.276-0.224 0.5-0.5 0.5h-5C2.019 24 0 21.981 0 19.5v-15C0 2.019 2.019 0 4.5 0h5.515c1.736 0 3.369 0.676 4.596 1.904l3.485 3.485c0.824 0.824 1.413 1.857 1.702 2.987 0.038 0.15 5e-3 0.309-0.089 0.431S19.468 9 19.314 9h-5.813c-1.378 0-2.5-1.122-2.5-2.5V1.087C10.679 1.029 10.35 1 10.016 1H4.5C2.57 1 1 2.57 1 4.5v15C1 21.43 2.57 23 4.5 23h5c0.276 0 0.5 0.224 0.5 0.5zM12 6.5C12 7.327 12.673 8 13.5 8h5.129c-0.276-0.712-0.698-1.361-1.24-1.904l-3.485-3.485C13.353 2.06 12.706 1.64 12 1.368z" />
</svg>