<svg id="document_writer_Layer_1" viewBox="0 0 24 24" fill="currentColor" width="32" height="32" data-name="Layer 1" xmlns="http://www.w3.org/2000/svg" xmlns:xlink="http://www.w3.org/1999/xlink">
    <title>document-writer</title>
    <path d="M8.5 23H5.22C5.7 22.468 6 21.771 6 21V3c0-1.103 0.897-2 2-2s2 0.897 2 2c0 1.654 1.346 3 3 3h6v3.5c0 0.276 0.224 0.5 0.5 0.5S20 9.776 20 9.5V6h1c1.654 0 3-1.346 3-3s-1.346-3-3-3H8C6.346 0 5 1.346 5 3v15H3c-1.654 0-3 1.346-3 3s1.346 3 3 3h5.5C8.776 24 9 23.776 9 23.5S8.776 23 8.5 23zM21 1c1.103 0 2 0.897 2 2s-0.897 2-2 2h-8c-1.103 0-2-0.897-2-2 0-0.768-0.29-1.469-0.766-2zM1 21c0-1.103 0.897-2 2-2h2v2c0 1.103-0.897 2-2 2s-2-0.897-2-2zM16.5 10h-8C8.224 10 8 9.776 8 9.5S8.224 9 8.5 9h8C16.776 9 17 9.224 17 9.5S16.776 10 16.5 10zM23.684 11.52c-0.301-0.363-0.761-0.555-1.229-0.514-1.489 0.135-4.333 0.639-6.643 2.504C13.023 15.762 11 19.964 11 23.5c0 0.276 0.224 0.5 0.5 0.5s0.5-0.224 0.5-0.5c0-0.486 0.044-0.989 0.127-1.5 3.037-0.022 5.4-0.838 7.647-2.635 2.206-1.765 3.607-4.533 4.183-6.535 0.131-0.455 0.029-0.944-0.273-1.31zM22.996 12.553c-0.534 1.855-1.824 4.413-3.847 6.031-1.841 1.473-3.703 2.205-6.06 2.373 3.27-3.832 7.113-5.997 7.154-6.02 0.241-0.134 0.328-0.438 0.194-0.68-0.134-0.24-0.438-0.327-0.68-0.194-0.169 0.094-3.796 2.14-7.09 5.86 0.769-2.198 2.14-4.316 3.773-5.636 2.183-1.762 4.997-2.185 6.104-2.285 0.29-0.037 0.542 0.274 0.452 0.551zM13 12c0.276 0 0.5 0.224 0.5 0.5S13.276 13 13 13H8.5C8.224 13 8 12.776 8 12.5S8.224 12 8.5 12zM11 15.5c0 0.276-0.224 0.5-0.5 0.5h-2C8.224 16 8 15.776 8 15.5S8.224 15 8.5 15h2c0.276 0 0.5 0.224 0.5 0.5z" />
</svg>