<svg id="document_folder_gear_Layer_1" viewBox="0 0 24 24" fill="currentColor" width="32" height="32" data-name="Layer 1" xmlns="http://www.w3.org/2000/svg" xmlns:xlink="http://www.w3.org/1999/xlink">
    <title>document-folder-gear</title>
    <path d="M18.5 16c-1.103 0-2 0.897-2 2s0.897 2 2 2 2-0.897 2-2-0.897-2-2-2zM18.5 19c-0.551 0-1-0.448-1-1s0.449-1 1-1 1 0.448 1 1-0.449 1-1 1zM23.832 16.096c0.218-0.776-0.292-1.642-1.076-1.828-0.387-0.102-0.791-0.044-1.137 0.159l-0.223 0.131c-0.408-0.34-0.881-0.606-1.396-0.786v-0.271c0-0.827-0.673-1.5-1.5-1.5s-1.5 0.673-1.5 1.5v0.271c-0.515 0.18-0.988 0.446-1.396 0.786l-0.223-0.131c-0.345-0.203-0.748-0.261-1.137-0.159-0.785 0.187-1.294 1.053-1.076 1.828 0.101 0.389 0.347 0.714 0.692 0.916l0.234 0.138C14.03 17.45 14 17.726 14 18.001s0.03 0.551 0.094 0.85l-0.234 0.138c-0.345 0.203-0.591 0.528-0.691 0.916-0.218 0.777 0.291 1.642 1.076 1.829 0.389 0.103 0.792 0.044 1.137-0.159l0.223-0.131c0.408 0.34 0.881 0.606 1.396 0.786v0.271c0 0.827 0.673 1.5 1.5 1.5s1.5-0.673 1.5-1.5V22.23c0.515-0.18 0.988-0.446 1.396-0.786l0.223 0.131c0.347 0.203 0.75 0.262 1.137 0.159 0.785-0.187 1.294-1.052 1.076-1.829-0.101-0.388-0.346-0.713-0.692-0.917l-0.233-0.137c0.064-0.299 0.094-0.575 0.094-0.85s-0.03-0.551-0.094-0.851l0.233-0.137c0.346-0.203 0.591-0.528 0.691-0.917zM21.85 17.045c0.103 0.361 0.151 0.665 0.151 0.955s-0.048 0.594-0.151 0.955c-0.062 0.219 0.031 0.453 0.228 0.568l0.556 0.325c0.563 0.32 0.048 1.201-0.507 0.863l-0.541-0.318c-0.196-0.116-0.446-0.084-0.607 0.077-0.43 0.432-0.984 0.743-1.603 0.903-0.221 0.058-0.375 0.257-0.375 0.484v0.642c0 0.275-0.224 0.5-0.5 0.5s-0.5-0.225-0.5-0.5v-0.642c0-0.228-0.154-0.427-0.375-0.484-0.619-0.16-1.173-0.472-1.603-0.903-0.096-0.097-0.225-0.146-0.354-0.146-0.087 0-0.175 0.022-0.253 0.069l-0.541 0.318c-0.554 0.337-1.07-0.543-0.507-0.862l0.556-0.326c0.197-0.115 0.291-0.35 0.228-0.568-0.103-0.361-0.151-0.665-0.151-0.955s0.048-0.594 0.151-0.955c0.062-0.219-0.031-0.452-0.228-0.567l-0.557-0.328c-0.564-0.32-0.045-1.198 0.507-0.861l0.541 0.318c0.196 0.116 0.446 0.084 0.607-0.077 0.43-0.432 0.984-0.743 1.603-0.903C17.846 14.569 18 14.37 18 14.143v-0.642c0-0.275 0.224-0.5 0.5-0.5s0.5 0.225 0.5 0.5v0.642c0 0.228 0.154 0.427 0.375 0.484 0.619 0.16 1.173 0.472 1.603 0.903 0.161 0.161 0.412 0.193 0.607 0.077l0.541-0.318c0.553-0.337 1.071 0.542 0.507 0.862l-0.556 0.327c-0.196 0.115-0.29 0.349-0.227 0.567zM12.501 23H4.5C2.57 23 1 21.43 1 19.5V12h13.5c0.276 0 0.5-0.224 0.5-0.5S14.776 11 14.5 11H1V9.5C1 7.57 2.57 6 4.5 6h3.028c0.231 0 0.464 0.055 0.671 0.158l3.156 1.578C11.7 7.909 12.087 8 12.473 8h7.028c1.93 0 3.5 1.57 3.5 3.5 0 0.276 0.224 0.5 0.5 0.5s0.5-0.224 0.5-0.5c0-2.481-2.019-4.5-4.5-4.5h-0.5V5.242c0-0.922-0.374-1.823-1.025-2.475l-1.742-1.742C15.572 0.364 14.693 0 13.759 0H8.502c-1.93 0-3.5 1.57-3.5 3.5V5h-0.5C2.019 5 0 7.019 0 9.5v10C0 21.981 2.019 24 4.5 24h8c0.276 0 0.5-0.224 0.5-0.5S12.776 23 12.501 23zM17.268 3.475C17.424 3.63 17.548 3.811 17.656 4H15.5C15.224 4 15 3.775 15 3.5V1.342c0.188 0.109 0.368 0.233 0.525 0.391zM6 3.5C6 2.121 7.122 1 8.5 1h5.257C13.839 1 13.919 1.016 14 1.024V3.5C14 4.327 14.673 5 15.5 5h2.476C17.984 5.081 18 5.161 18 5.242V7h-5.528c-0.231 0-0.464-0.055-0.671-0.158L8.645 5.264C8.3 5.091 7.913 5 7.527 5H5.999z" />
</svg>