<svg id="document_signed_Layer_1" viewBox="0 0 24 24" fill="currentColor" width="32" height="32" data-name="Layer 1" xmlns="http://www.w3.org/2000/svg" xmlns:xlink="http://www.w3.org/1999/xlink">
    <title>document-signed</title>
    <path d="M18 11.5c0 0.276-0.224 0.5-0.5 0.5h-11C6.224 12 6 11.776 6 11.5S6.224 11 6.5 11h11c0.276 0 0.5 0.224 0.5 0.5zM17.5 15h-11C6.224 15 6 15.224 6 15.5S6.224 16 6.5 16h11c0.276 0 0.5-0.224 0.5-0.5S17.776 15 17.5 15zM17.085 18.221C17.05 18.273 16.193 19.5 14.5 19.5c-0.998 0-1.58-0.32-2.255-0.69-0.696-0.383-1.437-0.809-2.748-0.81-2.121 0.011-3.348 1.633-3.398 1.702-0.164 0.221-0.118 0.533 0.103 0.698 0.22 0.165 0.533 0.121 0.699-0.101 0.01-0.013 0.991-1.291 2.603-1.299 0.986-0.031 1.586 0.315 2.261 0.687 0.695 0.381 1.481 0.813 2.736 0.813 2.242 0 3.369-1.652 3.416-1.723 0.152-0.229 0.091-0.537-0.138-0.691-0.226-0.153-0.536-0.095-0.694 0.135zM22 9.986v9.515c0 2.481-2.019 4.5-4.5 4.5h-11c-2.481 0-4.5-2.019-4.5-4.5V4.5C2 2.019 4.019 0 6.5 0h5.515c1.735 0 3.368 0.676 4.597 1.904l3.484 3.485C21.324 6.616 22 8.248 22 9.986zM15.904 2.611c-0.551-0.55-1.2-0.959-1.904-1.231V6.5C14 7.327 14.673 8 15.5 8h5.121c-0.273-0.704-0.682-1.354-1.232-1.904zM21 9.986c0-0.335-0.038-0.663-0.096-0.985H15.5c-1.379 0-2.5-1.122-2.5-2.5V1.096C12.677 1.038 12.349 1 12.015 1H6.5C4.57 1 3 2.57 3 4.5v15C3 21.43 4.57 23 6.5 23h11c1.93 0 3.5-1.57 3.5-3.5z" />
</svg>