<svg id="dog_leashed_Layer_1" viewBox="0 0 24 24" fill="currentColor" width="32" height="32" data-name="Layer 1" xmlns="http://www.w3.org/2000/svg" xmlns:xlink="http://www.w3.org/1999/xlink">
    <title>dog-leashed</title>
    <path d="M22.12 4.996c-0.51 0-0.978-0.3-1.19-0.764-0.345-0.751-1.157-1.236-2.07-1.236h-0.858V0.937c0-0.3-0.144-0.588-0.386-0.77-0.236-0.177-0.531-0.232-0.81-0.153-1.046 0.302-1.805 1.346-1.805 2.481v1.756l-0.994 2.754c-0.126 0.35-0.384 0.619-0.697 0.791L0.762 0.074C0.525-0.072 0.218 2e-3 0.074 0.238-0.07 0.473 3e-3 0.781 0.238 0.926l11.491 7.071-4.232 2e-3c-1.707 0-3.234 0.783-4.243 2.008C2.91 9.808 0.999 8.566 0.999 5.496c0-0.276-0.224-0.5-0.5-0.5s-0.5 0.223-0.5 0.5c0 3.419 2.052 4.946 2.692 5.339-0.44 0.79-0.692 1.698-0.692 2.665l2e-3 8.002C2.001 22.879 3.123 24 4.5 24s2.499-1.121 2.499-2.499v-3.506l7.003-3e-3v3.505c0 1.378 1.121 2.499 2.505 2.499s2.499-1.121 2.499-2.499l-8e-3-3.411 1.23-6.681c0.044-0.237 0.25-0.41 0.492-0.41 1.81 0 3.283-1.473 3.283-3.283V6.995c0-1.467-1.125-2-1.883-1.999zM13 16.992l-6.502 4e-3c-0.276 0-0.5 0.224-0.5 0.5v4.006c0 0.826-0.672 1.499-1.499 1.499S3.001 22.329 3 21.503l-2e-3-8.002c0-2.48 2.017-4.5 4.498-4.501l5.102-2e-3c0.136 0 0.27-0.012 0.401-0.034zM18.005 17.996v3.501c0 0.826-0.672 1.499-1.505 1.499-0.826 0-1.499-0.672-1.499-1.499v-4.006c0-0.133-0.053-0.26-0.146-0.354s-0.221-0.146-0.354-0.146h-0.502c0 0 0-7.62 0-7.62l5.045 2.943zM23.002 7.713c0 1.259-1.024 2.283-2.283 2.283-0.724 0-1.344 0.517-1.475 1.229l-8e-3 0.043-4.983-2.907c0.306-0.271 0.551-0.615 0.695-1.015l1.053-3.006V2.497c0-0.689 0.465-1.342 1-1.559v2.559c0 0.276 0.224 0.5 0.5 0.5h1.358c0.515 0 0.981 0.262 1.161 0.652 0.375 0.819 1.199 1.348 2.099 1.348 0.147 0 0.882 0.048 0.882 1zM16.002 4.339c0.02-0.055 0 0.058 0 0z" />
</svg>