<svg id="dog_bowl_empty_Layer_1" viewBox="0 0 24 24" fill="currentColor" width="32" height="32" data-name="Layer 1" xmlns="http://www.w3.org/2000/svg" xmlns:xlink="http://www.w3.org/1999/xlink">
    <title>dog-bowl-empty</title>
    <path d="M15.75 9c-1.156 0-2.111 0.876-2.236 2h-3.027c-0.125-1.124-1.08-2-2.236-2-1.241 0-2.25 1.009-2.25 2.25 0 0.429 0.122 0.847 0.353 1.292-0.231 0.362-0.353 0.779-0.353 1.208 0 1.24 1.009 2.25 2.25 2.25 1.156 0 2.111-0.877 2.236-2h3.027c0.125 1.123 1.08 2 2.236 2 1.241 0 2.25-1.01 2.25-2.25 0-0.429-0.122-0.846-0.353-1.292C17.878 12.097 18 11.679 18 11.25 18 10.009 16.991 9 15.75 9zM16.804 13.081C16.932 13.281 17 13.513 17 13.75 17 14.439 16.439 15 15.75 15s-1.25-0.561-1.25-1.25c0.095-0.334-0.075-0.758-0.474-0.75H9.974c-0.386 4e-3-0.565 0.412-0.474 0.75 0 0.689-0.561 1.25-1.25 1.25S7 14.439 7 13.75c0-0.237 0.068-0.469 0.195-0.669 0.229-0.358 0.229-0.804 0-1.162-0.128-0.2-0.196-0.431-0.196-0.669 0-0.689 0.561-1.25 1.25-1.25s1.25 0.561 1.25 1.25C9.404 11.583 9.574 12.009 9.973 12h4.052c0.386-4e-3 0.565-0.413 0.474-0.75 0-0.689 0.561-1.25 1.25-1.25s1.25 0.561 1.25 1.25c0 0.238-0.068 0.469-0.195 0.669-0.229 0.358-0.229 0.804 0 1.162zM23.897 15.147 22.24 7.965C21.701 5.63 19.652 4 17.256 4H6.745C4.349 4 2.3 5.63 1.761 7.965l-1.658 7.182c-0.273 1.183 4e-3 2.406 0.76 3.357 0.756 0.95 1.886 1.495 3.1 1.495h16.074c1.214 0 2.344-0.545 3.1-1.495 0.756-0.951 1.033-2.175 0.76-3.357zM22.355 17.881c-0.565 0.711-1.41 1.118-2.318 1.118H3.963c-0.908 0-1.752-0.407-2.318-1.118-0.565-0.71-0.772-1.625-0.567-2.51l1.657-7.182c0.434-1.878 2.083-3.19 4.01-3.19h10.511c1.927 0 3.576 1.312 4.01 3.19l1.657 7.182c0.205 0.885-2e-3 1.8-0.568 2.51z" />
</svg>