<svg id="dolly_flatbed_empty_Layer_1" viewBox="0 0 24 24" fill="currentColor" width="32" height="32" data-name="Layer 1" xmlns="http://www.w3.org/2000/svg" xmlns:xlink="http://www.w3.org/1999/xlink">
    <title>dolly-flatbed-empty</title>
    <path d="M23.5 19h-16C5.57 19 4 17.43 4 15.5v-12C4 1.57 2.43 0 0.5 0 0.224 0 0 0.224 0 0.5S0.224 1 0.5 1C1.878 1 3 2.121 3 3.5v12c0 1.956 1.254 3.624 3 4.243V21c0 1.654 1.346 3 3 3s3-1.346 3-3v-1h4v1c0 1.654 1.346 3 3 3s3-1.346 3-3v-1h1.5c0.276 0 0.5-0.224 0.5-0.5S23.776 19 23.5 19zM11 21c0 1.103-0.897 2-2 2s-2-0.897-2-2v-1.028C7.164 19.99 7.331 20 7.5 20H11zM21 21c0 1.103-0.897 2-2 2s-2-0.897-2-2v-1h4z" />
</svg>