<svg id="dollar_Outline" viewBox="0 0 24 24" fill="currentColor" width="32" height="32" xmlns="http://www.w3.org/2000/svg" xmlns:xlink="http://www.w3.org/1999/xlink">
    <title>dollar</title>
    <path d="M15.158 12.216 12.5 11.602V3h1C15.981 3 18 5.019 18 7.5 18 7.776 18.224 8 18.5 8S19 7.776 19 7.5C19 4.468 16.532 2 13.5 2h-1V0.5C12.5 0.224 12.276 0 12 0s-0.5 0.224-0.5 0.5V2H9.955C7.223 2 5 4.223 5 6.955c0 2.321 1.58 4.307 3.842 4.829l2.658 0.614V21h-1C8.019 21 6 18.981 6 16.5 6 16.224 5.776 16 5.5 16S5 16.224 5 16.5c0 3.032 2.468 5.5 5.5 5.5h1v1.5c0 0.276 0.224 0.5 0.5 0.5s0.5-0.224 0.5-0.5V22h1.545C16.777 22 19 19.777 19 17.045c0-2.321-1.58-4.307-3.842-4.829zM9.066 10.81C7.26 10.393 6 8.808 6 6.956 6 4.775 7.774 3.001 9.955 3.001H11.5v8.371zM14.045 21H12.5v-8.371l2.434 0.562C16.74 13.608 18 15.193 18 17.045 18 19.226 16.226 21 14.045 21z" />
</svg>