<svg id="dolly_flatbed_alt_Layer_1" viewBox="0 0 24 24" fill="currentColor" width="32" height="32" data-name="Layer 1" xmlns="http://www.w3.org/2000/svg" xmlns:xlink="http://www.w3.org/1999/xlink">
    <title>dolly-flatbed-alt</title>
    <path d="M23.5 19h-16C5.57 19 4 17.43 4 15.5v-12C4 1.57 2.43 0 0.5 0 0.224 0 0 0.224 0 0.5S0.224 1 0.5 1C1.878 1 3 2.121 3 3.5v12c0 1.956 1.254 3.624 3 4.243V21c0 1.654 1.346 3 3 3s3-1.346 3-3v-1h4v1c0 1.654 1.346 3 3 3s3-1.346 3-3v-1h1.5c0.276 0 0.5-0.224 0.5-0.5S23.776 19 23.5 19zM11 21c0 1.103-0.897 2-2 2s-2-0.897-2-2v-1.028C7.164 19.99 7.331 20 7.5 20H11zM21 21c0 1.103-0.897 2-2 2s-2-0.897-2-2v-1h4zM21.5 10h-13C7.122 10 6 11.121 6 12.5v2C6 15.879 7.122 17 8.5 17h13c1.378 0 2.5-1.121 2.5-2.5v-2c0-1.379-1.122-2.5-2.5-2.5zM23 14.5c0 0.827-0.673 1.5-1.5 1.5h-13C7.673 16 7 15.327 7 14.5v-2C7 11.673 7.673 11 8.5 11h13c0.827 0 1.5 0.673 1.5 1.5zM8.5 8h3C12.878 8 14 6.879 14 5.5v-3C14 1.121 12.878 0 11.5 0h-3C7.122 0 6 1.121 6 2.5v3C6 6.879 7.122 8 8.5 8zM7 2.5C7 1.673 7.673 1 8.5 1h3C12.327 1 13 1.673 13 2.5v3C13 6.327 12.327 7 11.5 7h-3C7.673 7 7 6.327 7 5.5zM21.5 2h-3C17.122 2 16 3.121 16 4.5v1C16 6.879 17.122 8 18.5 8h3C22.878 8 24 6.879 24 5.5v-1C24 3.121 22.878 2 21.5 2zM23 5.5C23 6.327 22.327 7 21.5 7h-3C17.673 7 17 6.327 17 5.5v-1C17 3.673 17.673 3 18.5 3h3C22.327 3 23 3.673 23 4.5z" />
</svg>