<svg id="dolphin_Layer_1" viewBox="0 0 24 24" fill="currentColor" width="32" height="32" data-name="Layer 1" xmlns="http://www.w3.org/2000/svg" xmlns:xlink="http://www.w3.org/1999/xlink">
    <title>dolphin</title>
    <path d="M19 6c0 0.552-0.448 1-1 1s-1-0.448-1-1 0.448-1 1-1 1 0.448 1 1zM24 8.5c0 0.827-0.673 1.5-1.5 1.5h-5.899c-0.466 0-0.972 0.034-1.492 0.097-0.101 1.158-0.444 2.512-1.029 4.038C13.885 14.642 13.332 15 12.765 15c-0.491-0.038-0.96-0.351-1.059-0.81-0.217-1.013-0.499-1.834-0.84-2.44-0.53 0.416-1.026 0.913-1.455 1.534-0.785 1.138-1.582 3.344-2.026 5.108 1.709 0.661 3.05 2.13 3.478 3.852 0.116 0.465-9e-3 0.955-0.333 1.312-0.266 0.293-0.636 0.455-1.018 0.455-0.067 0-0.135-5e-3-0.202-0.016-2.083-0.317-3.316-1.418-3.913-2.127-0.59 0.712-1.817 1.812-3.922 2.127-0.454 0.071-0.908-0.098-1.219-0.439-0.324-0.356-0.448-0.847-0.333-1.312 0.467-1.88 1.943-3.396 3.83-3.98-0.382-1.656-0.752-3.909-0.752-5.764 0-2.193 0.343-4.04 0.921-5.596-0.793-1.732-1.957-3.225-3.478-4.429C0.019 2.141-0.112 1.603 0.1 1.071 0.328 0.501 1-0.064 1.77 6e-3 4.089 0.22 6.18 0.8 8.008 1.711 9.861 0.523 11.995 0 14 0c5.017 0 7.749 3.443 7.983 7H22.5C23.327 7 24 7.673 24 8.5zM4.433 5.721C5.129 4.334 6.041 3.236 7.08 2.386c-1.604-0.725-3.408-1.2-5.403-1.384-0.271-0.018-0.556 0.207-0.649 0.44-0.067 0.168 0 0.221 0.036 0.249 1.394 1.104 2.532 2.489 3.369 4.03zM14.081 10.273c-0.808 0.181-1.623 0.476-2.395 0.924 0.392 0.694 0.76 1.669 0.998 2.784 0.013 0.016 0.093 0.032 0.21-2e-3 0.12-0.038 0.219-0.117 0.252-0.203 0.508-1.324 0.814-2.493 0.935-3.503zM23 8.499c0-0.275-0.224-0.5-0.5-0.5h-1c-0.276 0-0.5-0.224-0.5-0.5 0-3.23-2.404-6.5-7-6.5C6.18 1 3.718 8.692 4 12.5c0.144 1.945 0.433 4.379 0.837 6.002 0.033 0.132 0.011 0.271-0.061 0.386s-0.187 0.196-0.319 0.225c-1.722 0.369-3.155 1.725-3.564 3.373-0.035 0.141 3e-3 0.288 0.102 0.397 0.052 0.057 0.165 0.148 0.332 0.124 2.603-0.39 3.584-2.16 3.625-2.235 0.087-0.161 0.256-0.264 0.44-0.264v0c0.183 0 0.352 0.1 0.44 0.26 0.041 0.073 1.052 1.847 3.627 2.239 0.164 0.023 0.278-0.066 0.331-0.124 0.099-0.108 0.137-0.257 0.102-0.396-0.381-1.533-1.653-2.823-3.241-3.288-0.253-0.074-0.406-0.333-0.347-0.591 0.422-1.855 1.317-4.49 2.283-5.892C10.264 10.285 13.035 9 16.6 9h5.899c0.276 0 0.5-0.225 0.501-0.501z" />
</svg>