<svg id="domino_effect_Layer_1" viewBox="0 0 24 24" fill="currentColor" width="32" height="32" data-name="Layer 1" xmlns="http://www.w3.org/2000/svg" xmlns:xlink="http://www.w3.org/1999/xlink">
    <title>domino-effect</title>
    <path d="M22.5 4C21.673 4 21 4.673 21 5.5v13c0 0.827 0.673 1.5 1.5 1.5s1.5-0.673 1.5-1.5v-13C24 4.673 23.327 4 22.5 4zM23 18.5c0 0.275-0.225 0.5-0.5 0.5S22 18.775 22 18.5v-13C22 5.225 22.225 5 22.5 5S23 5.225 23 5.5zM18.5 4C17.673 4 17 4.673 17 5.5v13c0 0.827 0.673 1.5 1.5 1.5s1.5-0.673 1.5-1.5v-13C20 4.673 19.327 4 18.5 4zM19 18.5c0 0.275-0.225 0.5-0.5 0.5S18 18.775 18 18.5v-13C18 5.225 18.225 5 18.5 5S19 5.225 19 5.5zM15.436 4.064c-0.385-0.117-0.789-0.076-1.143 0.113-0.354 0.188-0.611 0.503-0.729 0.886l-1.032 3.354C12.263 8.16 11.9 8 11.499 8H3.567l1.001-1.202c0.304-0.364 0.441-0.823 0.39-1.294-0.052-0.472-0.287-0.891-0.663-1.18-0.738-0.567-1.784-0.453-2.38 0.263l-1.799 2.16C-0.061 6.96-0.032 7.274 0.179 7.451S0.706 7.6 0.883 7.388l1.8-2.16c0.25-0.3 0.69-0.351 1.002-0.11 0.158 0.121 0.257 0.298 0.278 0.496C3.985 5.812 3.927 6.006 3.8 6.158L2.115 8.18C1.99 8.329 1.964 8.536 2.046 8.712 2.129 8.888 2.305 9 2.499 9h9c0.275 0 0.5 0.225 0.5 0.5s-0.225 0.5-0.5 0.5h-4c-0.2 0-0.381 0.119-0.46 0.303l-2.221 5.182c-0.394 0.921-1.296 1.516-2.298 1.516H0.5c-0.276 0-0.5 0.224-0.5 0.5s0.224 0.5 0.5 0.5h2.021c1.402 0 2.665-0.833 3.218-2.121l2.091-4.879h3.67c0.084 0 0.165-0.011 0.245-0.025l-2.181 7.088c-0.239 0.791 0.209 1.631 1 1.872 0.145 0.044 0.291 0.065 0.438 0.065 0.243 0 0.484-0.061 0.705-0.179 0.354-0.188 0.612-0.504 0.728-0.885l4.001-13.001c0.239-0.791-0.209-1.631-1-1.872zM15.48 5.643 11.479 18.644c-0.039 0.128-0.125 0.233-0.243 0.296-0.116 0.063-0.251 0.077-0.38 0.038-0.264-0.08-0.414-0.36-0.335-0.622l4-12.999c0 0 0-2e-3 0-2e-3 0.039-0.128 0.125-0.233 0.243-0.296 0.073-0.04 0.154-0.06 0.235-0.06 0.048 0 0.097 7e-3 0.145 0.021 0.264 0.08 0.414 0.36 0.336 0.623z" />
</svg>