<svg id="donate_Layer_1" viewBox="0 0 24 24" fill="currentColor" width="32" height="32" data-name="Layer 1" xmlns="http://www.w3.org/2000/svg" xmlns:xlink="http://www.w3.org/1999/xlink">
    <title>donate</title>
    <path d="M12 20c5.514 0 10-4.486 10-10S17.514 0 12 0 2 4.486 2 10 6.486 20 12 20zM12 1c4.962 0 9 4.037 9 9s-4.038 9-9 9-9-4.037-9-9 4.038-9 9-9zM8 7.626C8 6.178 9.178 5 10.626 5H11.5V3.5C11.5 3.224 11.724 3 12 3s0.5 0.224 0.5 0.5V5h0.926c0.979 0 1.891 0.526 2.381 1.375 0.139 0.238 0.057 0.545-0.182 0.683-0.241 0.138-0.546 0.057-0.683-0.183C14.63 6.335 14.048 6 13.426 6h-2.8C9.73 6 9 6.729 9 7.626 9 8.429 9.575 9.105 10.368 9.23l3.423 0.552C15.071 9.986 16 11.077 16 12.374 16 13.822 14.822 15 13.374 15H12.5v1.5c0 0.276-0.224 0.5-0.5 0.5s-0.5-0.224-0.5-0.5V15h-0.926c-0.979 0-1.891-0.526-2.381-1.375-0.139-0.238-0.057-0.545 0.182-0.683 0.239-0.14 0.545-0.057 0.683 0.183C9.37 13.665 9.952 14 10.574 14h2.8C14.27 14 15 13.271 15 12.374c0-0.803-0.575-1.479-1.368-1.604l-3.423-0.552C8.929 10.014 8 8.923 8 7.626zM24 21c0 1.654-1.346 3-3 3H3c-1.654 0-3-1.346-3-3s1.346-3 3-3h0.5C3.776 18 4 18.224 4 18.5S3.776 19 3.5 19H3c-1.103 0-2 0.897-2 2s0.897 2 2 2h18c1.103 0 2-0.897 2-2s-0.897-2-2-2h-0.5c-0.276 0-0.5-0.224-0.5-0.5s0.224-0.5 0.5-0.5H21c1.654 0 3 1.346 3 3z" />
</svg>