<svg id="dong_sign_Layer_1" viewBox="0 0 24 24" fill="currentColor" width="32" height="32" data-name="Layer 1" xmlns="http://www.w3.org/2000/svg" xmlns:xlink="http://www.w3.org/1999/xlink">
    <title>dong-sign</title>
    <path d="M22 23.5c0 0.28-0.22 0.5-0.5 0.5h-19C2.22 24 2 23.78 2 23.5S2.22 23 2.5 23h19c0.28 0 0.5 0.22 0.5 0.5zM5 14c0-3.31 2.69-6 6-6 2.08 0 3.92 1.07 5 2.69V4h-4.5C11.22 4 11 3.78 11 3.5S11.22 3 11.5 3H16V0.5C16 0.22 16.22 0 16.5 0S17 0.22 17 0.5V3h2.5C19.78 3 20 3.22 20 3.5S19.78 4 19.5 4H17v15.5c0 0.28-0.22 0.5-0.5 0.5S16 19.78 16 19.5v-2.19C14.92 18.93 13.08 20 11 20c-3.31 0-6-2.69-6-6zM6 14c0 2.76 2.24 5 5 5s5-2.24 5-5-2.24-5-5-5-5 2.24-5 5z" />
</svg>