<svg id="donut_Layer_1" viewBox="0 0 24 24" fill="currentColor" width="32" height="32" data-name="Layer 1" xmlns="http://www.w3.org/2000/svg" xmlns:xlink="http://www.w3.org/1999/xlink">
    <title>donut</title>
    <path d="M12 0C5.609 0 0.383 5.026 0.034 11.332 0.015 11.385 0 11.865 0 12c0 6.617 5.383 12 12 12 2.436 0 4.781-0.726 6.783-2.1 0.228-0.156 0.286-0.467 0.129-0.695-0.156-0.227-0.466-0.285-0.695-0.129C16.382 22.335 14.232 23 12 23 5.939 23 1.007 18.072 1.001 12.012c0.606 0.034 1.083 0.546 1.377 0.986C2.811 13.644 3.387 14 4.001 14s1.191-0.355 1.624-1.002c0.294-0.44 0.771-0.953 1.378-0.986C7.01 14.763 9.249 17 12.002 17c1.641 0 3.088-0.806 4-2.031V16.5c0 0.827 0.673 1.5 1.5 1.5s1.5-0.673 1.5-1.5V12c0-0.552 0.449-1 1-1s1 0.448 1 1v8.5c0 0.827 0.673 1.5 1.5 1.5s1.5-0.673 1.5-1.5V12C24 5.383 18.617 0 12 0zM12 16c-2.206 0-4-1.794-4-4s1.794-4 4-4 4 1.794 4 4-1.794 4-4 4zM23 20.5c0 0.275-0.224 0.5-0.5 0.5S22 20.775 22 20.5V12c0-1.103-0.897-2-2-2s-2 0.897-2 2v4.5c0 0.275-0.224 0.5-0.5 0.5S17 16.775 17 16.5V12c0-2.757-2.243-5-5-5-2.414 0-4.434 1.721-4.899 4H7.059c-0.853 0-1.637 0.499-2.267 1.441-0.481 0.72-1.101 0.722-1.584 0-0.603-0.902-1.349-1.384-2.159-1.425C1.55 5.411 6.267 1 12 1c6.065 0 11 4.935 11 11z" />
</svg>