<svg id="door_closed_Layer_1" viewBox="0 0 24 24" fill="currentColor" width="32" height="32" data-name="Layer 1" xmlns="http://www.w3.org/2000/svg" xmlns:xlink="http://www.w3.org/1999/xlink">
    <title>door-closed</title>
    <path d="M23.5 23H20V4.5C20 2.019 17.981 0 15.5 0h-7C6.019 0 4 2.019 4 4.5V23H0.5C0.224 23 0 23.224 0 23.5S0.224 24 0.5 24h23c0.276 0 0.5-0.224 0.5-0.5S23.776 23 23.5 23zM5 4.5C5 2.57 6.57 1 8.5 1h7C17.43 1 19 2.57 19 4.5V23H5zM17 12c0 0.552-0.448 1-1 1s-1-0.448-1-1 0.448-1 1-1 1 0.448 1 1z" />
</svg>