<svg id="door_open_Layer_1" viewBox="0 0 24 24" fill="currentColor" width="32" height="32" data-name="Layer 1" xmlns="http://www.w3.org/2000/svg" xmlns:xlink="http://www.w3.org/1999/xlink">
    <title>door-open</title>
    <path d="M23.5 23H20V5.5C20 3.57 18.43 2 16.5 2h-0.837c-0.218-0.46-0.538-0.872-0.944-1.205-0.814-0.667-1.873-0.93-2.906-0.726L7.617 0.908C5.521 1.327 4 3.183 4 5.321V23H0.5C0.224 23 0 23.224 0 23.5S0.224 24 0.5 24h23c0.276 0 0.5-0.224 0.5-0.5S23.776 23 23.5 23zM16.5 3C17.878 3 19 4.121 19 5.5V23h-3V3.501C16 3.332 15.988 3.165 15.964 3zM5 5.321c0-1.663 1.183-3.106 2.813-3.433l4.196-0.839c0.735-0.15 1.494 0.041 2.076 0.519C14.666 2.045 15 2.749 15 3.501V23H5zM13 12c0 0.552-0.448 1-1 1s-1-0.448-1-1 0.448-1 1-1 1 0.448 1 1z" />
</svg>