<svg id="dorm_room_Layer_1" viewBox="0 0 24 24" fill="currentColor" width="32" height="32" data-name="Layer 1" xmlns="http://www.w3.org/2000/svg" xmlns:xlink="http://www.w3.org/1999/xlink">
    <title>dorm-room</title>
    <path d="M17 10h-3c-1.654 0-3 1.346-3 3v1H9.722C9.894 13.705 10 13.366 10 13c0-1.103-0.897-2-2-2s-2 0.897-2 2c0 0.366 0.106 0.705 0.278 1H5v-3.5C5 10.224 4.776 10 4.5 10S4 10.224 4 10.5v13C4 23.776 4.224 24 4.5 24S5 23.776 5 23.5V22h14v1.5c0 0.276 0.224 0.5 0.5 0.5s0.5-0.224 0.5-0.5V13c0-1.654-1.346-3-3-3zM12 13c0-1.103 0.897-2 2-2h3c1.103 0 2 0.897 2 2v1h-7zM7 13c0-0.551 0.449-1 1-1s1 0.449 1 1-0.449 1-1 1-1-0.449-1-1zM5 15h14v2h-4.5c-1.654 0-3 1.346-3 3v1H9.722C9.894 20.705 10 20.366 10 20c0-1.103-0.897-2-2-2s-2 0.897-2 2c0 0.366 0.106 0.705 0.278 1H5zM7 20c0-0.551 0.449-1 1-1s1 0.449 1 1-0.449 1-1 1-1-0.449-1-1zM12.5 21v-1c0-1.103 0.897-2 2-2H19v3zM24 9.561V23.5c0 0.276-0.224 0.5-0.5 0.5S23 23.776 23 23.5V9.561c0-1.166-0.576-2.25-1.542-2.901l-7.5-5.061c-1.189-0.803-2.726-0.803-3.916 0l-7.5 5.061C1.576 7.312 1 8.396 1 9.561V23.5C1 23.776 0.776 24 0.5 24S0 23.776 0 23.5V9.561c0-1.498 0.741-2.893 1.983-3.73l7.5-5.061c1.53-1.031 3.505-1.03 5.034 0l7.5 5.061C23.259 6.668 24 8.063 24 9.561z" />
</svg>