<svg id="dove_Layer_1" viewBox="0 0 24 24" fill="currentColor" width="32" height="32" data-name="Layer 1" xmlns="http://www.w3.org/2000/svg" xmlns:xlink="http://www.w3.org/1999/xlink">
    <title>dove</title>
    <path d="M23.508 4.298 21.971 3.639c-0.101-1.542-0.762-2.689-1.889-3.254-1.793-0.899-3.981-0.169-4.872 1.607l-1.783 3.282C11.125 4.402 9.085 2.836 8.399 2.31 7.935 1.954 7.327 1.9 6.809 2.169 6.285 2.442 5.976 2.981 6.002 3.574c0.016 0.362 0.079 0.773 0.154 1.21-0.667-0.493-1.224-0.979-1.645-1.377-0.444-0.42-1.066-0.527-1.624-0.275-0.559 0.252-0.907 0.813-0.886 1.43 0.095 2.792 1.005 8.107 6.028 12.312l0.142 0.124H1.8c-0.556 0-1.074 0.25-1.419 0.688-0.336 0.425-0.458 0.968-0.333 1.489 0.355 1.496 1.549 3.602 3.743 4.612 0.307 0.142 0.638 0.212 0.972 0.212 0.355 0 0.715-0.081 1.054-0.242l5.054-2.583c0.324-0.166 0.695-0.183 1.019-0.046 0.842 0.356 2.149 0.78 3.598 0.78 3.591 0 6.512-2.921 6.512-6.511 0-1.712-8e-3-6.163-0.012-8.955l1.519-0.651c0.299-0.128 0.492-0.422 0.492-0.747s-0.194-0.619-0.491-0.746zM7.001 3.53c-0.014-0.302 0.203-0.439 0.27-0.474 0.083-0.042 0.297-0.123 0.519 0.047 1.864 1.431 3.555 2.435 5.156 3.058L12.485 7.01c-0.096 0.178-0.286 0.287-0.465 0.266-1.776-0.188-3.398-0.903-4.733-1.726 4e-3-0.044-0.267-1.628-0.286-2.02zM15.489 20.909c-1.281 0-2.452-0.381-3.209-0.701-0.597-0.253-1.276-0.224-1.863 0.076l-5.042 2.577c-0.371 0.176-0.807 0.183-1.165 0.018-1.748-0.805-2.861-2.556-3.188-3.935-0.072-0.303 0.06-0.529 0.146-0.637 0.154-0.195 0.386-0.308 0.634-0.308h7.7c0.208 0 0.395-0.129 0.468-0.324 0.074-0.195 0.019-0.415-0.138-0.552l-1.15-1.007C3.945 12.153 3.089 7.156 3 4.529 2.989 4.209 3.226 4.077 3.298 4.044c0.087-0.039 0.314-0.109 0.526 0.09 1.46 1.379 4.454 3.751 8.089 4.135 0.587 0.061 1.156-0.245 1.449-0.782l2.733-5.032c0.651-1.299 2.239-1.827 3.538-1.176 1.175 0.588 1.351 1.994 1.351 2.779l3e-3 1.763C20.991 8.523 21 13.551 21 15.397c0 3.039-2.473 5.511-5.511 5.512z" />
</svg>