<svg id="down_from_bracket_Layer_1" viewBox="0 0 24 24" fill="currentColor" width="32" height="32" data-name="Layer 1" xmlns="http://www.w3.org/2000/svg" xmlns:xlink="http://www.w3.org/1999/xlink">
    <title>down-from-bracket</title>
    <path d="M19.343 11.026H17V7.5c0-1.916-1.574-3.474-3.508-3.474H10.5c-1.935 0-3.509 1.559-3.509 3.475l8e-3 3.525H4.657c-1.096 3e-3-2.036 0.635-2.453 1.647S2.01 14.796 2.766 15.55l6.589 7.379c0.728 0.727 1.682 1.091 2.639 1.091 0.964 0 1.931-0.369 2.672-1.11l6.56-7.349c0.766-0.772 0.985-1.877 0.57-2.885-0.417-1.013-1.355-1.645-2.453-1.65zM20.508 14.865c-6e-3 7e-3-6.569 7.358-6.569 7.358-1.069 1.067-2.807 1.067-3.857 0.02l-6.589-7.379c-0.579-0.578-0.567-1.314-0.363-1.81s0.713-1.025 1.529-1.028H7.5c0.133 0 0.26-0.053 0.354-0.147S8 11.658 8 11.525L7.991 7.5c0-1.364 1.125-2.474 2.509-2.474h2.992C14.875 5.026 16 6.136 16 7.5v4.026c0 0.276 0.224 0.5 0.5 0.5h2.841c0.817 4e-3 1.326 0.535 1.53 1.031s0.215 1.231-0.363 1.808zM24 4.5v4C24 8.776 23.776 9 23.5 9S23 8.776 23 8.5v-4C23 2.57 21.43 1 19.5 1h-15C2.57 1 1 2.57 1 4.5v4C1 8.776 0.776 9 0.5 9S0 8.776 0 8.5v-4C0 2.019 2.019 0 4.5 0h15C21.981 0 24 2.019 24 4.5z" />
</svg>