<svg id="down_left_Layer_1" viewBox="0 0 24 24" fill="currentColor" width="32" height="32" data-name="Layer 1" xmlns="http://www.w3.org/2000/svg" xmlns:xlink="http://www.w3.org/1999/xlink">
    <title>down-left</title>
    <path d="M14.35 23H4.5C2.57 23 1 21.42 1 19.5V9.65c0-1.09 0.62-2.02 1.62-2.44s2.1-0.2 2.88 0.56l2.18 2.18 7.93-7.92c1.36-1.36 3.58-1.37 4.95 0l1.41 1.41C22.63 4.1 23 4.98 23 5.91s-0.36 1.81-1.03 2.47l-7.93 7.93 2.18 2.18c0.77 0.77 0.98 1.87 0.57 2.88-0.42 1-1.35 1.62-2.44 1.63zM3.66 8.01c-0.24 0-0.46 0.05-0.65 0.13C2.52 8.34 2 8.85 2 9.66v9.85c0 1.38 1.12 2.5 2.5 2.5h9.85c0.81 0 1.31-0.52 1.52-1s0.22-1.21-0.35-1.79l-2.53-2.53c-0.2-0.2-0.2-0.51 0-0.71l8.28-8.3v0C21.74 7.21 22 6.58 22 5.91s-0.26-1.29-0.73-1.77l-1.41-1.41c-0.98-0.98-2.56-0.97-3.54 0l-8.28 8.29c-0.19 0.19-0.52 0.19-0.71 0L4.79 8.48C4.44 8.13 4.03 8 3.66 8.01z" />
</svg>