<svg id="down_Layer_1" viewBox="0 0 24 24" fill="currentColor" width="32" height="32" data-name="Layer 1" xmlns="http://www.w3.org/2000/svg" xmlns:xlink="http://www.w3.org/1999/xlink">
    <title>down</title>
    <path d="M12 24c-0.96 0-1.91-0.36-2.64-1.09l-6.59-7.38c-0.76-0.75-0.98-1.87-0.56-2.88S3.57 11.01 4.66 11H7V3.47C7 1.55 8.57 0 10.5 0h2.99C15.42 0 17 1.56 17 3.47V11h2.34c1.1 0 2.04 0.64 2.45 1.65 0.42 1.01 0.2 2.11-0.57 2.89l-6.56 7.35C13.92 23.63 12.95 24 12 24zM4.66 12c-0.82 0-1.33 0.53-1.53 1.03s-0.22 1.23 0.36 1.81l6.59 7.38c1.05 1.05 2.79 1.05 3.86-0.02l6.55-7.34c0 0 0.01-0.01 0.02-0.02 0.58-0.58 0.57-1.31 0.36-1.81-0.2-0.5-0.71-1.03-1.53-1.03H16.5c-0.28 0-0.5-0.22-0.5-0.5V3.47C16 2.11 14.88 1 13.49 1H10.5C9.12 1 7.99 2.11 7.99 3.47v8.03c0 0.13-0.04 0.26-0.14 0.35S7.63 12 7.5 12z" />
</svg>