<svg id="drafting_compass_Layer_1" viewBox="0 0 24 24" fill="currentColor" width="32" height="32" data-name="Layer 1" xmlns="http://www.w3.org/2000/svg" xmlns:xlink="http://www.w3.org/1999/xlink">
    <title>drafting-compass</title>
    <path d="M23.925 23.236l-4.996-8.05c0.844-0.473 1.651-1.036 2.402-1.695 0.207-0.183 0.228-0.499 0.046-0.706-0.183-0.208-0.499-0.228-0.706-0.046-0.709 0.623-1.471 1.153-2.269 1.597l-3.476-5.6-8e-3-8e-3C15.587 8.013 16.001 7.055 16.001 6c0-2.036-1.53-3.718-3.5-3.965V0.5c0-0.276-0.224-0.5-0.5-0.5s-0.5 0.224-0.5 0.5v1.535c-1.97 0.247-3.5 1.929-3.5 3.965 0 1.055 0.413 2.013 1.083 2.728l-8e-3 8e-3-3.476 5.6c-0.798-0.444-1.56-0.974-2.269-1.597-0.206-0.182-0.523-0.162-0.706 0.046-0.182 0.208-0.161 0.523 0.046 0.706 0.751 0.659 1.558 1.222 2.402 1.695l-4.998 8.05c-0.146 0.234-0.073 0.543 0.161 0.688 0.082 0.051 0.173 0.075 0.264 0.075 0.167 0 0.33-0.084 0.425-0.236l5.037-8.115c1.906 0.896 3.972 1.345 6.038 1.345s4.132-0.449 6.038-1.345l5.037 8.116C23.17 23.916 23.333 24 23.5 24c0.091 0 0.182-0.024 0.264-0.075 0.234-0.146 0.307-0.454 0.161-0.689zM12 3c1.654 0 3 1.346 3 3s-1.346 3-3 3-3-1.346-3-3 1.346-3 3-3zM6.494 14.791 9.857 9.372C10.477 9.767 11.211 10 12 10s1.522-0.232 2.143-0.628l3.363 5.419c-3.483 1.601-7.529 1.601-11.012 0z" />
</svg>