<svg id="dragon_Layer_1" viewBox="0 0 24 24" fill="currentColor" width="32" height="32" data-name="Layer 1" xmlns="http://www.w3.org/2000/svg" xmlns:xlink="http://www.w3.org/1999/xlink">
    <title>dragon</title>
    <path d="M8.003 9.652v0c0-0.012 0-0.025 0 0zM24 4.59c0 0.012 0 0.01-1e-3 4e-3l-0.408 1.215c-0.098 0.292-0.484 0.355-0.669 0.108L22.234 5h-2.67c-0.727 0.194-1.563 0.7-1.563 2 0 0.338 0.113 0.897 0.821 1.07 0.419 0.048 0.812 0.121 1.179 0.222l1.297-0.739c0.215-0.122 0.48 0.042 0.467 0.289l-0.061 1.12 1.149-0.639c0.242-0.135 0.526 0.088 0.454 0.355l-0.193 0.709c-0.091 0.293-0.215 0.547-0.4 0.731-0.214 0.235-0.564 0.283-0.835 0.117-0.742-0.455-1.836-0.923-2.878-1.128-0.017 0-0.813-0.106-1-0.106h-2.035c-0.102 0-0.211 0.013-0.324 0.038 0.632 0.764 1.59 1.439 2.599 2.15 2.231 1.572 4.761 3.354 4.761 6.812 0 3.897-4.38 6-8.5 6h-2C5.46 24 0 18.087 0 13c0-2.034 0.485-3.952 1.034-5.473C1.29 6.661 1.65 5.873 2.138 4.994h-1.21c-0.374 0-0.707-0.224-0.848-0.569S0.019 3.691 0.285 3.431C1.6 2.137 3.284 0.811 4.476 0.13v0c0.316-0.183 0.694-0.181 1.011 3e-3C5.806 0.317 5.997 0.645 6 1.011c9e-3 1.723-0.358 3.704-0.679 5.237-0.086 0.41-0.424 0.708-0.842 0.741-0.025 2e-3-0.05 3e-3-0.075 3e-3-0.389 0-0.734-0.236-0.874-0.606L3.074 5.391c-0.293 0.556-0.725 1.45-1.119 2.554C1.625 9.123 1.5 10.472 1.5 12.501c0 4.217 5.818 8.5 10 8.5 1.052 0 3.5-0.195 3.5-2 0-0.559-0.167-1.058-0.448-1.519l-2.517 0.492c-0.38 0.074-0.669-0.337-0.469-0.67l1.062-1.764c-0.231-0.18-0.469-0.358-0.709-0.539H8.581c-0.398 0-0.598-0.482-0.316-0.764l1.254-1.254c-0.24-0.256-0.463-0.526-0.659-0.811l-2.594-0.324c-0.404-0.051-0.536-0.571-0.204-0.808l1.942-1.387c0 0.013 0 0.025 0 0 0-0.029 0-0.842 0.133-1.451 0.059-0.27 0.324-0.441 0.595-0.382 0.27 0.059 0.441 0.325 0.382 0.595-0.109 0.502-0.113 1.082-0.113 1.088 0 2.064 1.678 3.32 3.454 4.651 1.743 1.306 3.546 2.655 3.546 4.847 0 1.879-1.683 3-4.5 3-3.258 0-7.282-2.256-9.447-5.239 1.818 3.331 5.803 6.239 10.447 6.239h2c3.636 0 7.5-1.752 7.5-5 0-2.94-2.204-4.493-4.336-5.995-1.168-0.823-2.274-1.601-2.992-2.583-0.542 0.287-1.101 0.67-1.567 0.991-0.239 0.165-0.459 0.315-0.65 0.437-0.159 0.101-0.339 0.15-0.519 0.15-0.194 0-0.388-0.059-0.554-0.175-0.322-0.225-0.478-0.619-0.396-1.005 0.132-0.62 0.446-1.644 0.858-2.425C9.73 6.647 7.96 5.287 7.233 4.486c-0.26-0.287-0.307-0.691-0.119-1.03 0.188-0.341 0.56-0.515 0.94-0.446 0.261 0.047 0.601 0.113 0.988 0.188 0.753 0.146 1.704 0.332 2.594 0.473-0.483-0.817-1.023-1.868-1.157-2.572-0.074-0.389 0.099-0.769 0.439-0.969 0.338-0.198 0.75-0.164 1.05 0.087l0.387 0.33c0.436 0.376 1.063 0.916 1.644 1.341-0.023-0.289-0.034-0.607-0.034-1.021 0-0.478 0.388-0.865 0.865-0.865 0.492 0 0.691 0.399 0.787 0.591l0.104 0.217c0.114 0.251 0.281 0.62 0.799 1.192H17c1.307 0 2.457 0.82 2.878 2H23.5c0.276 0 0.5 0.313 0.5 0.588zM3.213 3.994c0.196 0 0.373 0.114 0.455 0.292l0.715 1.562c0.301-1.455 0.626-3.274 0.618-4.832L4.973 0.997C3.893 1.613 2.374 2.803 1.14 3.993zM18.871 4.18C18.546 3.485 17.807 3 17 3h-0.698c-0.137 0-0.268-0.056-0.361-0.154-0.52-0.544-0.793-0.963-0.96-1.274 0.024 0.456 0.075 0.781 0.156 1.219 0.035 0.185-0.037 0.373-0.187 0.487s-0.352 0.137-0.52 0.055c-0.83-0.395-1.972-1.379-2.728-2.029l-0.18-0.154c0.248 0.802 1.019 2.152 1.523 2.876 0.112 0.161 0.12 0.373 0.02 0.542-0.1 0.168-0.282 0.262-0.485 0.241-1.166-0.13-2.647-0.419-3.729-0.63-0.233-0.045-0.45-0.088-0.641-0.124 0.832 0.795 2.578 2.022 4.536 2.58 0.16 0.045 0.287 0.167 0.339 0.325s0.021 0.331-0.081 0.462c-0.459 0.59-0.884 1.88-1.039 2.607 0.138-0.14 0.347-0.283 0.574-0.439 1.029-0.708 2.312-1.589 3.426-1.589h1.263c-0.147-0.291-0.227-0.628-0.227-1 0-1.74 1.077-2.498 1.87-2.821zM23.998 4.59c-1e-3-7e-3-3e-3-0.014-6e-3 0z" />
</svg>