<svg id="dragon_fire_Layer_1" viewBox="0 0 24 24" fill="currentColor" width="32" height="32" data-name="Layer 1" xmlns="http://www.w3.org/2000/svg" xmlns:xlink="http://www.w3.org/1999/xlink">
    <title>dragon-fire</title>
    <path d="M23.95 18.754c-0.416-1.861-2.294-3.063-4.181-2.684-0.969 0.196-1.811 0.769-2.311 1.571-0.472 0.758-0.603 1.66-0.371 2.54 0.475 1.794 1.818 2.365 3.003 2.869 0.583 0.248 1.135 0.482 1.603 0.844 0.271 0.223 0.717 0.068 0.791-0.274 0.344-1.375-0.494-2.234-1.049-2.803-0.46-0.472-0.556-0.621-0.482-0.77 0.015-0.01 0.1-0.031 0.242 0 0.63 0.142 1.385 0.84 1.623 1.098 0.111 0.121 0.275 0.178 0.439 0.156 0.163-0.024 0.305-0.126 0.377-0.274 0.339-0.691 0.437-1.733 0.316-2.273zM22.943 19.9c-0.402-0.329-0.956-0.699-1.529-0.828-0.606-0.138-1.131 0.071-1.363 0.543-0.396 0.809 0.194 1.414 0.669 1.9 0.332 0.34 0.651 0.668 0.782 1.08-0.336-0.176-0.682-0.322-1.02-0.466-1.115-0.474-2.079-0.883-2.428-2.204-0.441-1.513 0.9-2.954 2.421-2.926 1.173 0 2.237 0.806 2.499 1.973 0.042 0.188 0.034 0.558-0.031 0.928zM17.706 15.676c0.263-0.087 0.292-0.447 0.046-0.574l-1.166-0.607 0.968-0.566c0.214-0.125 0.204-0.437-0.016-0.549l-1.331-0.675c-0.092-0.282-0.225-0.572-0.362-0.863-4e-3-9e-3-3e-3-0.019-8e-3-0.027-0.428-0.828 0.137-1.32 0.399-1.494 0.868-0.573 1.679-0.507 2.476 0.206l1.472 2.23-0.386 1.079c-0.104 0.29 0.161 0.578 0.459 0.499l1.23-0.353c0.3-0.07 0.398-0.477 0.23-0.719l-2-3.029c0.751-1.001 0.807-2.407 0.088-3.497l-0.264-0.4c0.264-0.938 0.481-1.137 0.772-1.636 0.107-0.186 0.33-0.572 0.059-0.982-0.264-0.399-0.802-0.508-1.199-0.245-0.324 0.214-0.552 0.366-0.745 0.506-0.022-0.9 0.04-1.926 0.096-2.426 0.043-0.389-0.155-0.752-0.507-0.924-0.354-0.174-0.768-0.109-1.051 0.168-0.538 0.522-1.138 1.714-1.53 2.58-0.48-0.897-1.173-2.128-1.476-2.835-0.155-0.359-0.505-0.571-0.893-0.54-0.386 0.03-0.697 0.292-0.792 0.667-0.114 0.446-0.188 0.889-0.237 1.33h-1.037c-0.043 0-2.339 0.038-4.46 1.282L3.65 2.501C3.175 2.467 2.849 2.97 3.074 3.39l1.233 1.937C4.056 5.692 3.838 6.102 3.649 6.551L1.511 6.499C1.019 6.578 0.828 7.184 1.186 7.53l1.873 1.566c-0.069 0.523-0.06 1.403-0.057 1.948l-2 0.405c-0.499 0.089-0.673 0.715-0.292 1.05l2.303 1.221c0.013 0.294 0.026 0.946-0.03 1.809l-2.067 0.47c-0.455 0.152-0.561 0.747-0.187 1.046l1.876 1.168c-0.382 1.721-1.101 3.576-2.457 4.932-0.195 0.195-0.195 0.512 0 0.707s0.512 0.195 0.707 0c3.621-3.621 3.166-10.117 3.146-10.354v-3.5c0-6.901 6.715-6.999 7-7h0.979c0 0.827 0.108 1.652 0.337 2.484-1.239 0.035-2.266 0.382-2.696 0.55-0.367 0.144-0.61 0.49-0.62 0.884-0.01 0.391 0.214 0.747 0.571 0.908 0.517 0.23 1.24 0.469 1.845 0.715-1.089 0.548-1.416 1.743-1.416 2.459 0 1.83 0.782 3.097 1.611 4.438 1.12 1.813 2.389 3.869 2.389 8.062 0 0.276 0.224 0.5 0.5 0.5s0.5-0.224 0.5-0.5c0-4.477-1.408-6.755-2.539-8.587-0.816-1.322-1.461-2.367-1.461-3.913-0.041-0.214 0.157-1.811 1.834-1.767 1.644 1.443 2.746 4.01 2.786 6.11 0.01 0.318 0.243 0.583 0.557 0.632 0.255 0.053 0.535 0.017 0.83-0.069zM14.947 10.266 14.228 9.177c-0.587-0.89-2.107-1.452-3.328-1.904-0.356-0.132-0.677-0.25-0.914-0.308 0.348-0.136 1.597-0.569 2.976-0.467 0.35 0.038 0.634-0.337 0.511-0.663-0.538-1.551-0.625-3.057-0.301-4.611 0.495 1.043 1.295 2.417 1.865 3.542 0.178 0.384 0.767 0.348 0.91-0.042 0.364-0.914 1.045-2.383 1.559-3.032-0.082 0.91-0.131 2.438 0 3.378 0.042 0.394 0.565 0.574 0.842 0.291 0.309-0.297 0.481-0.444 0.789-0.658-0.198 0.34-0.445 0.852-0.62 1.614-0.031 0.133-5e-3 0.273 0.07 0.387l0.385 0.583c0.444 0.672 0.441 1.55 0.043 2.205-1.047-0.735-2.212-0.742-3.327-5e-3-0.328 0.216-0.57 0.484-0.741 0.779z" />
</svg>