<svg id="drawer_alt_Layer_1" viewBox="0 0 24 24" fill="currentColor" width="32" height="32" data-name="Layer 1" xmlns="http://www.w3.org/2000/svg" xmlns:xlink="http://www.w3.org/1999/xlink">
    <title>drawer-alt</title>
    <path d="M23.502 20l-0.372-2e-3h-0.012c-1.038 0-2.075-0.126-3.082-0.375l-0.9-0.224c-1.086-0.269-2.204-0.404-3.323-0.404H15.8L11.14 19h-3e-3c-1.041 0-1.947-0.714-2.107-1.662-0.093-0.548 0.033-1.094 0.355-1.536 0.323-0.442 0.8-0.729 1.271-0.802h6.843c0.276 0 0.5-0.224 0.5-0.5s-0.224-0.5-0.5-0.5l-3.887 3e-3 6.639-7.446 3.039 1.397C23.358 7.985 23.429 8 23.498 8c0.189 0 0.371-0.108 0.455-0.291 0.116-0.251 6e-3-0.548-0.245-0.663l-2.761-1.269 0.212-0.238c0.502-0.502 0.779-1.169 0.779-1.88s-0.276-1.378-0.779-1.88c-1.004-1.005-2.733-1.029-3.782 0.023l-1.506 1.715-8.468 3.217c-1.011 0.409-1.909 1.072-2.601 1.92l-4.07 5.078c-0.975 0.975-0.975 2.561 0 3.534 0.18 0.182 0.388 0.334 0.616 0.453 0.074 0.038 0.153 0.057 0.231 0.057 0.18 0 0.354-0.098 0.444-0.269 0.127-0.245 0.033-0.547-0.212-0.675-0.138-0.072-0.263-0.163-0.372-0.272-0.585-0.585-0.585-1.536 0.037-2.161l4.106-5.116C6.165 8.568 6.925 8.007 7.77 7.664l6.693-2.543L3.218 17.929c-0.753 0.857-1.168 1.958-1.168 3.1v1.472c0 0.276 0.224 0.5 0.5 0.5h1.106c1.384 0 2.691-0.605 3.585-1.661l1.801-2.117c0.562 0.482 1.3 0.778 2.095 0.778h5e-3l4.66-5e-3h0.012c1.038 0 2.076 0.126 3.083 0.375l0.9 0.224c1.086 0.269 2.204 0.404 3.32 0.404h0.013l0.369 2e-3h2e-3c0.275 0 0.499-0.222 0.5-0.497 1e-3-0.276-0.221-0.501-0.499-0.504zM6.479 20.691C5.775 21.523 4.747 22 3.657 22H3.051v-0.972c0-0.898 0.326-1.765 0.919-2.439L18.107 2.486c0.627-0.628 1.719-0.627 2.346 0 0.313 0.313 0.486 0.73 0.486 1.173s-0.172 0.859-0.505 1.193l-8.161 9.152h-1.686c-0.812 0.117-1.525 0.546-2.008 1.209-0.483 0.662-0.673 1.477-0.534 2.292 0.057 0.337 0.179 0.652 0.346 0.94z" />
</svg>