<svg id="draw_square_Layer_1" viewBox="0 0 24 24" fill="currentColor" width="32" height="32" data-name="Layer 1" xmlns="http://www.w3.org/2000/svg" xmlns:xlink="http://www.w3.org/1999/xlink">
    <title>draw-square</title>
    <path d="M22 18.172V5.828C23.164 5.415 24 4.304 24 3c0-1.654-1.346-3-3-3-1.304 0-2.415 0.836-2.828 2H5.828C5.415 0.836 4.304 0 3 0 1.346 0 0 1.346 0 3 0 4.304 0.836 5.415 2 5.828v12.344C0.836 18.585 0 19.696 0 21c0 1.654 1.346 3 3 3 1.304 0 2.415-0.836 2.828-2h12.344c0.413 1.164 1.524 2 2.828 2 1.654 0 3-1.346 3-3 0-1.304-0.836-2.415-2-2.828zM21 1c1.103 0 2 0.897 2 2s-0.897 2-2 2-2-0.897-2-2 0.897-2 2-2zM1 3c0-1.103 0.897-2 2-2s2 0.897 2 2-0.897 2-2 2-2-0.897-2-2zM3 23c-1.103 0-2-0.897-2-2s0.897-2 2-2 2 0.897 2 2-0.897 2-2 2zM6 21c0-1.654-1.346-3-3-3V6c1.654 0 3-1.346 3-3h12c0 1.654 1.346 3 3 3v12c-1.654 0-3 1.346-3 3zM21 23c-1.103 0-2-0.897-2-2s0.897-2 2-2 2 0.897 2 2-0.897 2-2 2z" />
</svg>