<svg id="drawer_Layer_1" viewBox="0 0 24 24" fill="currentColor" width="32" height="32" data-name="Layer 1" xmlns="http://www.w3.org/2000/svg" xmlns:xlink="http://www.w3.org/1999/xlink">
    <title>drawer</title>
    <path d="M18 0H6C3.794 0 2 1.794 2 4v19.5C2 23.776 2.224 24 2.5 24S3 23.776 3 23.5V21h18v2.5c0 0.276 0.224 0.5 0.5 0.5s0.5-0.224 0.5-0.5V4c0-2.206-1.794-4-4-4zM3 15v-4h8.5v1.5c0 0.276 0.224 0.5 0.5 0.5s0.5-0.224 0.5-0.5V11H21v4zM12 8c0.276 0 0.5-0.224 0.5-0.5V6H21v4H3V6h8.5v1.5C11.5 7.776 11.724 8 12 8zM6 1h5.5v1.5C11.5 2.776 11.724 3 12 3s0.5-0.224 0.5-0.5V1H18c1.654 0 3 1.346 3 3v1H3V4c0-1.654 1.346-3 3-3zM3 20v-4h8.5v1.5c0 0.276 0.224 0.5 0.5 0.5s0.5-0.224 0.5-0.5V16H21v4z" />
</svg>