<svg id="dreidel_Layer_1" viewBox="0 0 24 24" fill="currentColor" width="32" height="32" data-name="Layer 1" xmlns="http://www.w3.org/2000/svg" xmlns:xlink="http://www.w3.org/1999/xlink">
    <title>dreidel</title>
    <path d="M23.851 0.146c-0.195-0.193-0.512-0.195-0.707 2e-3l-7.652 7.685-1.514-1.514c-0.85-0.851-1.979-1.318-3.182-1.318S8.464 5.469 7.617 6.316l-6.299 6.185C0.467 13.351 0 14.481 0 15.684V19.5C0 21.981 2.019 24 4.5 24h3.816c1.202 0 2.333-0.468 3.184-1.319l6.215-6.262c1.754-1.755 1.754-4.609 0-6.364l-1.516-1.516 7.654-7.686c0.194-0.195 0.194-0.512-2e-3-0.707zM4.5 23C2.57 23 1 21.43 1 19.5v-3.816c0-0.11 5e-3-0.218 0.015-0.326 1.117 1.001 2.619 1.643 3.927 1.643 0.997 0 1.812-0.175 2.464-0.415C7.168 17.23 7 18.028 7 19.001c0 1.308 0.657 2.857 1.65 3.984-0.11 0.01-0.222 0.016-0.334 0.016zM17.007 15.713l-6.215 6.262c-0.303 0.303-0.653 0.544-1.033 0.716C8.736 21.747 8 20.211 8 19c0-1.995 0.799-3.092 1.274-3.567l2.579-2.579c0.195-0.195 0.195-0.512 0-0.707s-0.512-0.195-0.707 0l-2.579 2.579C8.268 15.025 7.123 16 4.942 16c-1.208 0-2.688-0.719-3.634-1.757 0.172-0.38 0.412-0.729 0.714-1.032l6.299-6.186C8.982 6.364 9.861 6 10.796 6s1.813 0.364 2.475 1.025l3.737 3.736c1.364 1.364 1.364 3.586-1e-3 4.952z" />
</svg>