<svg id="dress_Layer_1" viewBox="0 0 24 24" fill="currentColor" width="32" height="32" data-name="Layer 1" xmlns="http://www.w3.org/2000/svg" xmlns:xlink="http://www.w3.org/1999/xlink">
    <title>dress</title>
    <path d="M22.048 15.228l-5.989-5.88 0.597-2.239c0.229-1.034 0.345-2.092 0.345-3.145V0.5c0-0.276-0.224-0.5-0.5-0.5s-0.5 0.224-0.5 0.5v2.536c-1.84 0.174-3.344 1.243-4 1.793-0.656-0.55-2.16-1.619-4-1.793V0.5c0-0.276-0.224-0.5-0.5-0.5s-0.5 0.224-0.5 0.5v3.463c0 1.058 0.116 2.116 0.35 3.166l0.592 2.218-5.964 5.856c-1.082 0.92-1.299 2.494-0.503 3.661C3.567 21.936 7.796 24 12 24s8.434-2.063 10.524-5.136c0.796-1.167 0.579-2.741-0.476-3.636zM12 6c0.128 0 0.256-0.048 0.354-0.146 0.017-0.017 1.621-1.566 3.642-1.806-6e-3 0.953-0.11 1.909-0.312 2.823l-0.568 2.128H8.885L8.322 6.891C8.115 5.96 8.011 5.004 8.005 4.047c2.021 0.239 3.625 1.789 3.642 1.806C11.745 5.95 11.873 5.999 12 6zM21.698 18.302C19.814 21.069 15.826 23 12 23s-7.814-1.932-9.698-4.698c-0.507-0.744-0.367-1.748 0.352-2.361l6.051-5.94h6.592l6.077 5.965c0.692 0.589 0.832 1.593 0.324 2.336z" />
</svg>