<svg id="driller_Layer_1" viewBox="0 0 24 24" fill="currentColor" width="32" height="32" data-name="Layer 1" xmlns="http://www.w3.org/2000/svg" xmlns:xlink="http://www.w3.org/1999/xlink">
    <title>driller</title>
    <path d="M11 4.5C11 4.776 10.776 5 10.5 5h-6C4.224 5 4 4.776 4 4.5S4.224 4 4.5 4h6C10.776 4 11 4.224 11 4.5zM10.5 7h-6C4.224 7 4 7.224 4 7.5S4.224 8 4.5 8h6C10.776 8 11 7.776 11 7.5S10.776 7 10.5 7zM24 6c0 0.276-0.224 0.5-0.5 0.5H20V7c0 1.103-0.897 2-2 2h-2.293l-1.389 1.389C13.279 11.428 11.898 12 10.428 12H9.323l-0.875 7h1.051c1.378 0 2.5 1.121 2.5 2.5s-1.122 2.5-2.5 2.5H2.5C1.122 24 0 22.879 0 21.5S1.122 19 2.5 19h0.559l0.882-7.057C1.726 11.664 0 9.789 0 7.5v-3C0 2.019 2.019 0 4.5 0h5.929c1.469 0 2.851 0.572 3.89 1.611L15.708 3h2.293c1.103 0 2 0.897 2 2v0.5h3.5c0.276 0 0.5 0.224 0.499 0.5zM9.5 20h-7C1.673 20 1 20.673 1 21.5S1.673 23 2.5 23h7c0.827 0 1.5-0.673 1.5-1.5S10.327 20 9.5 20zM8.316 12H4.941l-0.875 7h3.375zM15 8.293V3.707l-1.389-1.389C12.761 1.467 11.631 1 10.428 1H4.499c-1.93 0-3.5 1.57-3.5 3.5v3c0 1.93 1.57 3.5 3.5 3.5h5.929c1.202 0 2.333-0.468 3.183-1.318zM19 5c0-0.552-0.448-1-1-1h-2v4h2c0.552 0 1-0.448 1-1z" />
</svg>