<svg id="driver_man_Layer_1" viewBox="0 0 24 24" fill="currentColor" width="32" height="32" data-name="Layer 1" xmlns="http://www.w3.org/2000/svg" xmlns:xlink="http://www.w3.org/1999/xlink">
    <title>driver-man</title>
    <path d="M12 18c-3.125 0-5.692 2.345-5.973 5.455-0.025 0.275 0.178 0.518 0.453 0.543 0.273 0.023 0.518-0.178 0.543-0.453 0.093-1.034 0.5-1.958 1.109-2.706l2.166 2.166c-0.063 0.107-0.135 0.208-0.177 0.327-0.092 0.26 0.043 0.546 0.304 0.639 0.259 0.091 0.546-0.044 0.639-0.304C11.206 23.268 11.583 23 12.001 23s0.795 0.268 0.937 0.667C13.011 23.872 13.204 24 13.409 24c0.056 0 0.112-9e-3 0.167-0.029 0.26-0.093 0.396-0.378 0.304-0.639-0.043-0.12-0.115-0.22-0.177-0.328l2.166-2.166c0.609 0.747 1.015 1.672 1.109 2.706 0.023 0.26 0.201 0.453 0.543 0.453 0.275-0.025 0.478-0.268 0.453-0.543C17.693 20.344 15.126 17.999 12 18zM13 22.293C12.7 22.116 12.362 22 12 22s-0.7 0.116-1 0.293l-2.158-2.158C9.704 19.431 10.797 19 12 19s2.296 0.431 3.158 1.135zM12 12c3.309 0 6-2.691 6-6s-2.691-6-6-6-6 2.691-6 6 2.691 6 6 6zM12 1c2.757 0 5 2.243 5 5s-2.243 5-5 5-5-2.243-5-5 2.243-5 5-5zM21.974 23.46c0.015 0.276-0.139 0.506-0.5 0.527-0.264 0-0.484-0.207-0.499-0.473C20.72 18.74 16.777 15 12 15s-8.719 3.74-8.975 8.514c-0.015 0.276-0.259 0.481-0.526 0.473-0.275-0.015-0.487-0.25-0.473-0.526 0.284-5.305 4.665-9.46 9.974-9.46s9.689 4.156 9.974 9.459z" />
</svg>