<svg id="drone_Layer_1" viewBox="0 0 24 24" fill="currentColor" width="32" height="32" data-name="Layer 1" xmlns="http://www.w3.org/2000/svg" xmlns:xlink="http://www.w3.org/1999/xlink">
    <title>drone</title>
    <path d="M18.293 19l-1.146 1.146c-0.195 0.195-0.195 0.512 0 0.707 0.098 0.098 0.226 0.146 0.354 0.146s0.256-0.049 0.354-0.146l1.146-1.146 1.147 1.146c0.195 0.195 0.512 0.195 0.707 0s0.195-0.512 0-0.707L19.708 19l1.147-1.147c0.195-0.195 0.195-0.512 0-0.707s-0.512-0.195-0.707 0l-1.147 1.147-2.379-2.379c-1.045-1.045-1.621-2.436-1.621-3.915s0.576-2.869 1.621-3.914l2.379-2.379 1.146 1.146c0.098 0.098 0.226 0.146 0.354 0.146s0.256-0.049 0.354-0.146c0.195-0.195 0.195-0.512 0-0.707l-1.146-1.146 1.146-1.146c0.195-0.195 0.195-0.512 0-0.707s-0.512-0.195-0.707 0l-1.146 1.146-1.146-1.146c-0.195-0.195-0.512-0.195-0.707 0s-0.195 0.512 0 0.707l1.146 1.146-2.379 2.379c-1.045 1.045-2.436 1.621-3.914 1.621S9.133 8.423 8.087 7.378L5.709 4.999 6.911 3.797c0.195-0.195 0.195-0.512 0-0.707s-0.512-0.195-0.707 0L5.002 4.292 3.855 3.145c-0.195-0.195-0.512-0.195-0.707 0s-0.195 0.512 0 0.707l1.146 1.147-1.146 1.146c-0.195 0.195-0.195 0.512 0 0.707 0.098 0.098 0.226 0.146 0.354 0.146s0.256-0.049 0.354-0.146l1.146-1.146 2.378 2.379c1.046 1.045 1.622 2.436 1.622 3.914s-0.576 2.869-1.622 3.915l-2.378 2.378-1.146-1.146c-0.195-0.195-0.512-0.195-0.707 0s-0.195 0.512 0 0.707l1.146 1.146-1.146 1.146c-0.195 0.195-0.195 0.512 0 0.707 0.098 0.098 0.226 0.146 0.354 0.146s0.256-0.049 0.354-0.146l1.146-1.146 1.146 1.146c0.098 0.098 0.226 0.146 0.354 0.146s0.256-0.049 0.354-0.146c0.195-0.195 0.195-0.512 0-0.707l-1.146-1.146 2.378-2.378c1.046-1.045 2.437-1.622 3.915-1.622s2.868 0.576 3.914 1.622zM12 14c-0.868 0-1.71 0.169-2.49 0.49C9.831 13.711 10 12.868 10 12s-0.169-1.71-0.49-2.49C10.289 9.831 11.132 10 12 10s1.71-0.169 2.49-0.49C14.169 10.289 14 11.131 14 12s0.169 1.71 0.49 2.49C13.711 14.169 12.869 14 12 14zM14.03 5.555C14.01 5.372 14 5.188 14 5c0-2.757 2.243-5 5-5s5 2.243 5 5-2.243 5-5 5c-0.188 0-0.373-0.01-0.555-0.03-0.274-0.03-0.473-0.277-0.442-0.552 0.03-0.274 0.272-0.475 0.552-0.442C18.701 8.992 18.85 9 19 9c2.206 0 4-1.794 4-4s-1.794-4-4-4-4 1.794-4 4c0 0.151 8e-3 0.299 0.024 0.446 0.03 0.274-0.168 0.521-0.442 0.552-0.276 0.027-0.521-0.168-0.552-0.443zM24 19c0 2.757-2.243 5-5 5s-5-2.243-5-5c0-0.188 0.01-0.372 0.03-0.555 0.03-0.274 0.275-0.475 0.552-0.442 0.274 0.03 0.473 0.277 0.442 0.552C15.008 18.701 15 18.85 15 19c0 2.206 1.794 4 4 4s4-1.794 4-4-1.794-4-4-4c-0.15 0-0.299 9e-3-0.445 0.025-0.278 0.027-0.521-0.168-0.552-0.442-0.03-0.274 0.168-0.521 0.442-0.552C18.627 14.011 18.812 14 19 14c2.757 0 5 2.243 5 5zM0 5c0-2.757 2.243-5 5-5s5 2.243 5 5c0 0.188-0.01 0.373-0.03 0.555-0.031 0.274-0.277 0.468-0.552 0.442-0.274-0.03-0.473-0.277-0.442-0.552C8.992 5.299 9 5.15 9 4.999c0-2.206-1.794-4-4-4S1 2.794 1 5 2.794 9 5 9c0.15 0 0.299-8e-3 0.445-0.024 0.279-0.032 0.521 0.168 0.552 0.442S5.829 9.939 5.555 9.97C5.373 9.99 5.188 10 5 10 2.243 10 0 7.757 0 5zM9.97 18.445C9.99 18.628 10 18.812 10 19c0 2.757-2.243 5-5 5s-5-2.243-5-5 2.243-5 5-5c0.188 0 0.373 0.011 0.555 0.031 0.274 0.03 0.473 0.277 0.442 0.552-0.031 0.274-0.274 0.468-0.552 0.442C5.299 15.009 5.15 15 5 15c-2.206 0-4 1.794-4 4s1.794 4 4 4 4-1.794 4-4c0-0.15-8e-3-0.299-0.024-0.445-0.03-0.274 0.168-0.521 0.442-0.552 0.276-0.032 0.521 0.168 0.552 0.442z" />
</svg>