<svg id="dropdown_bar_Layer_1" viewBox="0 0 24 24" fill="currentColor" width="32" height="32" data-name="Layer 1" xmlns="http://www.w3.org/2000/svg" xmlns:xlink="http://www.w3.org/1999/xlink">
    <title>dropdown-bar</title>
    <path d="M4 21H3c-0.551 0-1 0.449-1 1v1c0 0.551 0.449 1 1 1h1c0.551 0 1-0.449 1-1v-1c0-0.551-0.449-1-1-1zM4 23H3v-1h1zM4 16H3c-0.551 0-1 0.449-1 1v1c0 0.551 0.449 1 1 1h1c0.551 0 1-0.449 1-1v-1c0-0.551-0.449-1-1-1zM4 18H3c0 0 0-1 0-1h1.001zM20.5 0h-17C1.57 0 0 1.57 0 3.5v2C0 7.43 1.57 9 3.5 9h17C22.43 9 24 7.43 24 5.5v-2C24 1.57 22.43 0 20.5 0zM23 5.5C23 6.878 21.879 8 20.5 8h-17C2.122 8 1 6.878 1 5.5v-2C1 2.122 2.122 1 3.5 1h17C21.879 1 23 2.122 23 3.5zM4 11H3c-0.551 0-1 0.449-1 1v1c0 0.551 0.449 1 1 1h1c0.551 0 1-0.449 1-1v-1c0-0.551-0.449-1-1-1zM4 13H3c0 0 0-1 0-1h1.001zM22 12.5c0 0.276-0.224 0.5-0.5 0.5h-14C7.224 13 7 12.776 7 12.5S7.224 12 7.5 12h14c0.276 0 0.5 0.224 0.5 0.5zM18.891 3H15.11c-0.963-0.034-1.487 1.247-0.774 1.896l1.796 1.75c0.473 0.47 1.274 0.472 1.746 1e-3l1.79-1.754c0.711-0.65 0.185-1.928-0.777-1.893zM18.968 4.18 17.175 5.937c-0.078 0.076-0.25 0.09-0.339 0-2e-3-1e-3-3e-3-3e-3-5e-3-4e-3l-1.798-1.752c-0.06-0.028-0.029-0.195 0.076-0.18h3.781c0.104-0.015 0.136 0.152 0.078 0.179zM22 17.5c0 0.276-0.224 0.5-0.5 0.5h-14C7.224 18 7 17.776 7 17.5S7.224 17 7.5 17h14c0.276 0 0.5 0.224 0.5 0.5zM22 22.5c0 0.276-0.224 0.5-0.5 0.5h-14C7.224 23 7 22.776 7 22.5S7.224 22 7.5 22h14c0.276 0 0.5 0.224 0.5 0.5z" />
</svg>