<svg id="dropdown_Layer_1" viewBox="0 0 24 24" fill="currentColor" width="32" height="32" data-name="Layer 1" xmlns="http://www.w3.org/2000/svg" xmlns:xlink="http://www.w3.org/1999/xlink">
    <title>dropdown</title>
    <path d="M19.5 4h-15C2.019 4 0 6.019 0 8.5v7C0 17.981 2.019 20 4.5 20h15c2.481 0 4.5-2.019 4.5-4.5v-7C24 6.019 21.981 4 19.5 4zM23 15.5c0 1.93-1.57 3.5-3.5 3.5h-15C2.57 19 1 17.43 1 15.5v-7C1 6.57 2.57 5 4.5 5h15C21.43 5 23 6.57 23 8.5zM19.062 9.974h-5.124c-0.545 0-1.031 0.326-1.237 0.83-0.207 0.505-0.089 1.078 0.3 1.46l2.214 2.178c0.354 0.354 0.82 0.531 1.286 0.531s0.93-0.176 1.284-0.529l2.216-2.18c0.389-0.382 0.506-0.955 0.3-1.46-0.207-0.504-0.692-0.83-1.239-0.83zM19.298 11.551l-2.217 2.181-3e-3 3e-3c-0.319 0.319-0.838 0.319-1.16-3e-3l-2.217-2.181c-0.146-0.144-0.102-0.305-0.076-0.368 0.026-0.062 0.108-0.209 0.312-0.209h5.124c0.204 0 0.286 0.146 0.312 0.209s0.07 0.225-0.075 0.368z" />
</svg>