<svg id="dropdown_select_Layer_1" viewBox="0 0 24 24" fill="currentColor" width="32" height="32" data-name="Layer 1" xmlns="http://www.w3.org/2000/svg" xmlns:xlink="http://www.w3.org/1999/xlink">
    <title>dropdown-select</title>
    <path d="M19.5 0h-15C2.019 0 0 2.019 0 4.5v15C0 21.981 2.019 24 4.5 24h15c2.481 0 4.5-2.019 4.5-4.5v-15C24 2.019 21.981 0 19.5 0zM23 19.5c0 1.93-1.57 3.5-3.5 3.5h-15C2.57 23 1 21.43 1 19.5v-15C1 2.57 2.57 1 4.5 1h15C21.43 1 23 2.57 23 4.5zM15.991 9H8.009C7.354 9 6.791 9.376 6.54 9.981s-0.118 1.269 0.345 1.731l3.701 3.701c0.39 0.39 0.902 0.585 1.414 0.585s1.024-0.195 1.414-0.585l3.701-3.701c0.463-0.463 0.596-1.126 0.345-1.731S16.647 9 15.991 9zM16.408 11.006l-3.701 3.701c-0.391 0.39-1.023 0.39-1.414 0l-3.701-3.701c-0.259-0.258-0.163-0.557-0.128-0.642S7.643 10 8.009 10h7.982c0.366 0 0.51 0.279 0.545 0.364s0.131 0.383-0.128 0.642z" />
</svg>