<svg id="drum_steelpan_Layer_1" viewBox="0 0 24 24" fill="currentColor" width="32" height="32" data-name="Layer 1" xmlns="http://www.w3.org/2000/svg" xmlns:xlink="http://www.w3.org/1999/xlink">
    <title>drum-steelpan</title>
    <path d="M24 8.059c0-4.423-5.383-8.022-12-8.022S0 3.651 0 8.095C0 8.1 0 8.106 0 8.111c0 2e-3 0 4e-3 0 6e-3v7.691c0 4.517 5.383 8.191 12 8.191s12-3.675 12-8.191V8.117c0-5e-3 0-0.011 0-0.016 0-0.014 0-0.028 0-0.042zM23 8.059c0 1.042-0.367 2.031-1.022 2.919-0.122 9e-3-1.027 0.02-1.027 0.02-1.395-0.036-3.593-0.35-4.527-1.867-0.841-1.788-0.326-3.311 1.408-7.023C20.933 3.351 23 5.553 23 8.059zM3.428 11.997c2.155-7e-3 5.412-0.022 6.348 0.449 1.241 0.625 1.59 1.855 1.687 2.545-3.537-0.107-6.64-1.268-8.53-2.992 0.022 0 0.495-3e-3 0.495-2e-3zM8.917 6.696C9.735 7.565 10.667 8 12.001 8s2.271-0.438 3.09-1.311c-0.138 1.015-8e-3 1.933 0.456 2.917 0.381 0.621 0.903 1.085 1.488 1.43-1.49 0.06-2.63 0.201-3.26 0.518-0.901 0.454-1.446 1.136-1.775 1.807-0.329-0.671-0.874-1.354-1.775-1.807-0.634-0.319-1.784-0.46-3.287-0.519 0.605-0.354 1.145-0.832 1.541-1.478 0.451-0.958 0.575-1.86 0.438-2.861zM14.225 12.446c0.936-0.473 4.189-0.458 6.348-0.449 0 0 0.438 3e-3 0.476 4e-3-1.891 1.723-4.985 2.883-8.509 2.991 0.1-0.69 0.453-1.924 1.685-2.546zM16.875 1.765C14.972 5.568 14.208 7 12.001 7S9.033 5.575 7.14 1.791c1.475-0.481 3.129-0.754 4.861-0.754 1.749 0 3.404 0.262 4.874 0.728zM6.184 2.141c1.72 3.688 2.23 5.204 1.417 6.94-1.001 1.63-3.398 1.903-4.773 1.917 0 0-0.674-0.012-0.823-0.023C1.36 10.097 1 9.121 1 8.093 1 5.626 3.096 3.406 6.184 2.141zM23.001 15.808c0 3.966-4.935 7.191-11 7.191S1 19.774 1 15.809v-4.556C1.1 11.404 3.529 16 12.014 16S22.908 11.37 23 11.231z" />
</svg>