<svg id="drum_Layer_1" viewBox="0 0 24 24" fill="currentColor" width="32" height="32" data-name="Layer 1" xmlns="http://www.w3.org/2000/svg" xmlns:xlink="http://www.w3.org/1999/xlink">
    <title>drum</title>
    <path d="M12.164 10.13l11-10c0.204-0.185 0.521-0.172 0.706 0.034 0.186 0.204 0.171 0.521-0.034 0.706l-11 10C12.74 10.957 12.62 11 12.5 11c-0.136 0-0.271-0.055-0.37-0.164-0.186-0.204-0.171-0.521 0.034-0.706zM24 17.75C24 20.923 19.346 24 12 24S0 20.885 0 17.75V9c0-3.364 5.271-6 12-6 1.222 0 2.425 0.089 3.575 0.266 0.273 0.042 0.461 0.297 0.419 0.569-0.042 0.274-0.303 0.461-0.569 0.419C14.323 4.086 13.171 4 12 4 6.037 4 1 6.29 1 9s5.037 5 11 5 11-2.29 11-5c0-1.19-0.972-2.121-1.787-2.69-0.226-0.159-0.281-0.471-0.123-0.697 0.159-0.227 0.471-0.279 0.697-0.123C23.234 6.504 24 7.718 24 9.001zM15 14.818v7.975c1.477-0.208 2.837-0.563 4-1.029v-7.86c-1.185 0.419-2.535 0.732-4 0.914zM5 13.904v7.86c1.163 0.466 2.523 0.821 4 1.029v-7.975c-1.465-0.182-2.815-0.495-4-0.914zM4 21.312v-7.804c-1.279-0.566-2.307-1.269-3-2.068v6.31c0 1.359 1.15 2.617 3 3.562zM12 23.001c0.681 0 1.349-0.032 2-0.091v-7.988c-0.649 0.052-1.317 0.08-2 0.08s-1.351-0.028-2-0.08v7.988c0.651 0.06 1.319 0.091 2 0.091zM23 11.441c-0.693 0.799-1.721 1.502-3 2.068v7.804c1.85-0.944 3-2.202 3-3.561z" />
</svg>