<svg id="dryer_Layer_1" viewBox="0 0 24 24" fill="currentColor" width="32" height="32" data-name="Layer 1" xmlns="http://www.w3.org/2000/svg" xmlns:xlink="http://www.w3.org/1999/xlink">
    <title>dryer</title>
    <path d="M17.5 0h-11C4.019 0 2 2.019 2 4.5v15C2 21.981 4.019 24 6.5 24h11c2.481 0 4.5-2.019 4.5-4.5v-15C22 2.019 19.981 0 17.5 0zM21 19.5c0 1.93-1.57 3.5-3.5 3.5h-11C4.57 23 3 21.43 3 19.5v-15C3 2.57 4.57 1 6.5 1h11C19.43 1 21 2.57 21 4.5zM6 5C5.448 5 5 4.552 5 4s0.448-1 1-1 1 0.448 1 1-0.448 1-1 1zM9 4c0-0.552 0.448-1 1-1s1 0.448 1 1-0.448 1-1 1-1-0.448-1-1zM12 8c-3.309 0-6 2.691-6 6s2.691 6 6 6 6-2.691 6-6-2.691-6-6-6zM12 19c-2.586 0-4.694-1.98-4.949-4.5H9.8c0.276 0 0.5-0.224 0.5-0.5s-0.224-0.5-0.5-0.5H7.051C7.306 10.98 9.415 9 12 9c2.757 0 5 2.243 5 5s-2.243 5-5 5z" />
</svg>