<svg id="dryer_alt_Layer_1" viewBox="0 0 24 24" fill="currentColor" width="32" height="32" data-name="Layer 1" xmlns="http://www.w3.org/2000/svg" xmlns:xlink="http://www.w3.org/1999/xlink">
    <title>dryer-alt</title>
    <path d="M17.5 0h-11C4.019 0 2 2.019 2 4.5v15C2 21.981 4.019 24 6.5 24h11c2.481 0 4.5-2.019 4.5-4.5v-15C22 2.019 19.981 0 17.5 0zM21 19.5c0 1.93-1.57 3.5-3.5 3.5h-11C4.57 23 3 21.43 3 19.5v-15C3 2.57 4.57 1 6.5 1h11C19.43 1 21 2.57 21 4.5zM6 5C5.448 5 5 4.552 5 4s0.448-1 1-1 1 0.448 1 1-0.448 1-1 1zM9 4c0-0.552 0.448-1 1-1s1 0.448 1 1-0.448 1-1 1-1-0.448-1-1zM12 8c-3.309 0-6 2.691-6 6s2.691 6 6 6 6-2.691 6-6-2.691-6-6-6zM12 19c-2.757 0-5-2.243-5-5s2.243-5 5-5 5 2.243 5 5-2.243 5-5 5zM12 12.364c0 1.025-1.063 1.924-1.184 2.023-0.315 0.26-0.816 0.83-0.816 1.25 0 0.433 0.583 0.84 0.739 0.925 0.242 0.132 0.332 0.436 0.199 0.678-0.09 0.167-0.262 0.261-0.438 0.261-0.081 0-0.163-0.02-0.239-0.061C10.132 17.37 9 16.721 9 15.637c0-1.026 1.062-1.924 1.184-2.023 0.315-0.26 0.816-0.83 0.816-1.249 0-0.433-0.583-0.84-0.739-0.925-0.242-0.132-0.332-0.436-0.199-0.678 0.132-0.243 0.436-0.331 0.678-0.2 0.129 0.07 1.261 0.719 1.26 1.802zM15 12.364c0 1.025-1.063 1.924-1.184 2.023-0.315 0.26-0.816 0.83-0.816 1.25 0 0.433 0.583 0.84 0.739 0.925 0.242 0.132 0.332 0.436 0.199 0.678-0.09 0.167-0.262 0.261-0.438 0.261-0.081 0-0.163-0.02-0.239-0.061C13.132 17.37 12 16.721 12 15.637c0-1.026 1.062-1.924 1.184-2.023 0.315-0.26 0.816-0.83 0.816-1.249 0-0.433-0.583-0.84-0.739-0.925-0.242-0.132-0.332-0.436-0.199-0.678 0.131-0.243 0.436-0.331 0.678-0.2 0.129 0.07 1.261 0.719 1.26 1.802z" />
</svg>