<svg id="duck_Layer_1" viewBox="0 0 24 24" fill="currentColor" width="32" height="32" data-name="Layer 1" xmlns="http://www.w3.org/2000/svg" xmlns:xlink="http://www.w3.org/1999/xlink">
    <title>duck</title>
    <path d="M14.312 21c0.056 2e-3-0.055 0 0 0zM17.148 15.216c0.666 0.77 0.962 1.795 0.813 2.812C17.71 19.746 16.156 21 14.312 21c-2.038-0.082-4.107-0.862-5.346-1.5-0.536-0.276-0.884-0.8-0.929-1.401-0.045-0.598 0.219-1.164 0.703-1.513 1.635-1.178 3.96-2.582 5.759-2.582 1.018 0 1.983 0.442 2.649 1.212zM16.392 15.87c-0.476-0.55-1.166-0.866-1.893-0.866-1.195 0-3.032 0.85-5.174 2.393-0.203 0.147-0.31 0.375-0.291 0.627 0.02 0.255 0.161 0.469 0.389 0.586v0c1.149 0.592 2.908 1.313 4.764 1.387 1.422 0.057 2.602-0.853 2.784-2.114 0.108-0.741-0.098-1.456-0.579-2.013zM23.999 6.26c0 0.331-0.211 0.624-0.524 0.731L20.677 7.94c-0.207 0.604-0.508 1.165-0.885 1.665 1.343 1.536 3.206 4.777 3.206 7.295 0 4.612-3.716 7.1-7.213 7.1H8.511c-5.012 0-8.513-3.29-8.513-8 0-1.36 0.141-3.65 0.343-4.76 0.114-0.624 0.592-1.1 1.218-1.214 0.63-0.114 1.251 0.164 1.58 0.711l0.174 0.298C3.792 11.865 4.447 13 5.499 13c1.844 0 3.07-1.562 4.256-3.072 0.12-0.153 0.239-0.304 0.357-0.452C9.412 8.494 9 7.294 9 5.999c0-3.309 2.691-6 6-6 2.875 0 5.284 2.032 5.866 4.736l2.587 0.785C23.778 5.619 24 5.918 23.999 6.26zM19.121 10.357C18.045 11.375 16.594 12 15 12c-1.648 0-3.142-0.668-4.228-1.746-0.076 0.096-0.153 0.194-0.23 0.292C9.334 12.085 7.83 14 5.5 14c-1.629 0-2.52-1.543-3.052-2.466l-0.165-0.282c-0.171-0.286-0.459-0.259-0.543-0.243-0.082 0.015-0.354 0.089-0.413 0.41C1.156 12.358 1 14.542 1 16c0 4.122 3.089 7 7.513 7h7.274C18.284 23 22 21.375 22 16.9c0-2.28-1.775-5.231-2.879-6.543zM20 6c0-2.757-2.243-5-5-5s-5 2.243-5 5 2.243 5 5 5 5-2.243 5-5z" />
</svg>