<svg id="dumbbell_weightlifting_Layer_1" viewBox="0 0 24 24" fill="currentColor" width="32" height="32" data-name="Layer 1" xmlns="http://www.w3.org/2000/svg" xmlns:xlink="http://www.w3.org/1999/xlink">
    <title>dumbbell-weightlifting</title>
    <path d="M23.5 3H23V0.5C23 0.224 22.776 0 22.5 0S22 0.224 22 0.5V3H2V0.5C2 0.224 1.776 0 1.5 0S1 0.224 1 0.5V3H0.5C0.224 3 0 3.224 0 3.5S0.224 4 0.5 4H1v2.5C1 6.776 1.224 7 1.5 7S2 6.776 2 6.5V4h2.223L9 11.643V16.5c0 0.815 0.397 1.533 1.002 1.989 0 4e-3-2e-3 7e-3-2e-3 0.011v5c0 0.276 0.224 0.5 0.5 0.5s0.5-0.224 0.5-0.5v-4.551C11.162 18.982 11.329 19 11.5 19h1c0.171 0 0.338-0.018 0.5-0.051V23.5c0 0.276 0.224 0.5 0.5 0.5s0.5-0.224 0.5-0.5v-5c0 0-2e-3-7e-3-2e-3-0.011C14.603 18.032 15 17.315 15 16.5v-4.857L19.777 4H22v2.5C22 6.776 22.224 7 22.5 7S23 6.776 23 6.5V4h0.5C23.776 4 24 3.776 24 3.5S23.776 3 23.5 3zM14 16.5c0 0.827-0.673 1.5-1.5 1.5h-1c-0.827 0-1.5-0.673-1.5-1.5V12h4zM14.223 11H9.778L5.403 4h13.195zM12 10c1.379 0 2.5-1.121 2.5-2.5S13.379 5 12 5 9.5 6.121 9.5 7.5 10.621 10 12 10zM12 6c0.827 0 1.5 0.673 1.5 1.5S12.827 9 12 9s-1.5-0.673-1.5-1.5S11.173 6 12 6z" />
</svg>