<svg id="dumbbell_horizontal_Layer_1" viewBox="0 0 24 24" fill="currentColor" width="32" height="32" data-name="Layer 1" xmlns="http://www.w3.org/2000/svg" xmlns:xlink="http://www.w3.org/1999/xlink">
    <title>dumbbell-horizontal</title>
    <path d="M23.5 11.5H22v-6C22 4.122 20.878 3 19.5 3S17 4.122 17 5.5v6H7v-6C7 4.122 5.878 3 4.5 3S2 4.122 2 5.5v6H0.5C0.224 11.5 0 11.724 0 12s0.224 0.5 0.5 0.5H2v6C2 19.879 3.122 21 4.5 21S7 19.879 7 18.5v-6h10v6c0 1.379 1.122 2.5 2.5 2.5s2.5-1.121 2.5-2.5v-6h1.5c0.276 0 0.5-0.224 0.5-0.5s-0.224-0.5-0.5-0.5zM6 18.5C6 19.327 5.327 20 4.5 20S3 19.327 3 18.5v-13C3 4.673 3.673 4 4.5 4S6 4.673 6 5.5zM21 18.5c0 0.827-0.673 1.5-1.5 1.5S18 19.327 18 18.5v-13C18 4.673 18.673 4 19.5 4S21 4.673 21 5.5z" />
</svg>