<svg id="dumbbell_alt_Layer_1" viewBox="0 0 24 24" fill="currentColor" width="32" height="32" data-name="Layer 1" xmlns="http://www.w3.org/2000/svg" xmlns:xlink="http://www.w3.org/1999/xlink">
    <title>dumbbell-alt</title>
    <path d="M22 5.25C22 1.864 18.449 0 12 0S2 1.864 2 5.25c0 1.286 0.781 3.561 2.385 6.951C3.478 13.637 3 15.29 3 17c0 1.895 0.583 3.708 1.687 5.242C5.479 23.343 6.813 24 8.258 24h7.484c1.445 0 2.779-0.657 3.57-1.758C20.416 20.708 21 18.894 21 17c0-1.71-0.478-3.363-1.385-4.799C21.219 8.81 22 6.535 22 5.25zM20 17c0 1.684-0.519 3.295-1.5 4.658C17.896 22.498 16.865 23 15.742 23H8.258c-1.124 0-2.155-0.502-2.759-1.342C4.519 20.295 4 18.683 4 17c0-1.606 0.474-3.155 1.372-4.48 0.1-0.147 0.114-0.335 0.037-0.496C3.418 7.856 3 6.04 3 5.25 3 1.552 8.639 1 12 1s9 0.552 9 4.25c0 0.79-0.418 2.606-2.409 6.774-0.077 0.16-0.062 0.349 0.037 0.496C19.525 13.845 20 15.394 20 17zM17.266 4.699C16.426 4.38 14.831 4 12.001 4S7.568 4.382 6.729 4.702C6.232 4.891 5.973 5.418 6.126 5.927 6.311 6.542 6.674 7.598 7.351 9.135 7.571 9.634 8.142 9.863 8.65 9.657c2.149-0.87 4.552-0.871 6.703 0 0.492 0.203 1.079-0.018 1.298-0.522 0.679-1.543 1.038-2.598 1.22-3.21 0.152-0.51-0.107-1.037-0.605-1.226zM15.726 8.729c-2.389-0.968-5.055-0.97-7.461 2e-3-0.656-1.49-1.005-2.504-1.18-3.095C7.846 5.345 9.316 5 12.001 5s4.148 0.345 4.91 0.639c-0.173 0.585-0.519 1.597-1.185 3.09zM12.933 13.106c-1.22-0.278-2.469 2e-3-3.426 0.766S8 15.776 8 17c0 0.752 0.211 1.485 0.611 2.121C8.952 19.663 9.589 20 10.272 20h3.46c0.687 0 1.301-0.321 1.643-0.859 0.554-0.868 0.748-1.914 0.545-2.945-0.297-1.509-1.498-2.751-2.987-3.09zM14.532 18.603c-0.155 0.245-0.462 0.396-0.8 0.396h-3.46c-0.343 0-0.655-0.158-0.815-0.412-0.299-0.476-0.458-1.024-0.458-1.588 0-0.918 0.412-1.773 1.13-2.347 0.536-0.427 1.194-0.651 1.876-0.651 0.233 0 0.47 0.026 0.705 0.079 1.111 0.253 2.006 1.18 2.228 2.308 0.153 0.777 8e-3 1.563-0.406 2.215z" />
</svg>