<svg id="dumpster_Layer_1" viewBox="0 0 24 24" fill="currentColor" width="32" height="32" data-name="Layer 1" xmlns="http://www.w3.org/2000/svg" xmlns:xlink="http://www.w3.org/1999/xlink">
    <title>dumpster</title>
    <path d="M20 0H4C1.794 0 0 1.794 0 4v2.772c0 0.013 0.712 9.08 0.712 9.08 0.121 1.537 1.022 2.853 2.292 3.569L3 20.267c0 2.191 1.183 3.565 2.692 3.717C5.793 23.995 5.893 24 5.993 24c0.744 0 1.467-0.274 2.02-0.775C8.64 22.658 9 21.846 9 21v-1h6v1c0 1.654 1.346 3 3 3s3-1.346 3-3.436l-5e-3-1.142c1.271-0.716 2.172-2.033 2.293-3.57L24 6.772V4c0-2.206-1.794-4-4-4zM15 1h4v6h-4zM10 1h4v6h-4zM5 1h4v6H5zM1 6.753V4c0-1.654 1.346-3 3-3v6H1.019zM3.005 19.422c0 0 1e-3 0 2e-3 0 0 6e-3-1e-3 7e-3-2e-3 0zM8 21c0 0.564-0.24 1.104-0.658 1.483-0.424 0.384-0.974 0.565-1.55 0.507C4.787 22.888 4 21.952 4 20.857v-1.022C4.383 19.942 4.785 20 5.198 20H8zM20 21c0 1.103-0.897 2-2 2s-2-0.897-2-2v-1h2.802c0.413 0 0.815-0.057 1.198-0.165zM20.994 19.423c0 0 1e-3 0 2e-3 0 0 9e-3 0 8e-3-2e-3 0zM22.292 15.774C22.149 17.583 20.616 19 18.802 19H5.198c-1.814 0-3.347-1.417-3.489-3.226L1.098 8h21.804zM22.981 7H20V1c1.654 0 3 1.346 3 3l2e-3 2.733z" />
</svg>