<svg id="dungeon_Layer_1" viewBox="0 0 24 24" fill="currentColor" width="32" height="32" data-name="Layer 1" xmlns="http://www.w3.org/2000/svg" xmlns:xlink="http://www.w3.org/1999/xlink">
    <title>dungeon</title>
    <path d="M11.775 2e-3C5.169 0.123 0 5.788 0 12.395v8.09c0 2.18 0.939 3.369 2.24 3.502C3.735 24.139 5 22.965 5 21.5V12c0-3.866 3.134-7 7-7s7 3.134 7 7v9.353c0 1.308 0.939 2.502 2.24 2.634C22.735 24.139 24 22.965 24 21.5V12C24 5.298 18.506-0.121 11.775 2e-3zM4 21.5C4 22.327 3.327 23 2.5 23S1 22.327 1 21.5V20h3zM4 19H1v-3h3zM4 12.314V15H1v-3h3.006C4.002 12.104 4 12.209 4 12.314zM4.103 11H1.045C1.178 9.506 1.61 8.076 2.311 6.779l2.606 1.7C4.522 9.258 4.242 10.107 4.103 11zM5.423 7.613 2.829 5.921C3.25 5.289 3.739 4.695 4.295 4.15c0.55-0.54 1.143-1.015 1.772-1.424L7.55 5.423c-0.832 0.586-1.554 1.331-2.127 2.19zM11.5 4.016c-1.106 0.071-2.155 0.381-3.098 0.883L6.93 2.221c1.396-0.733 2.941-1.152 4.57-1.213zM12.5 4.016V1.012c1.628 0.075 3.167 0.524 4.54 1.264l-1.421 2.585c-0.963-0.49-2.02-0.778-3.119-0.845zM18.658 7.561c-0.312-0.465-0.675-0.902-1.088-1.302-0.341-0.331-0.706-0.627-1.09-0.889l1.418-2.579c1.254 0.833 2.337 1.921 3.179 3.192zM19.162 8.427l2.431-1.585c0.686 1.261 1.147 2.668 1.325 4.159h-2.979c-0.112-0.904-0.375-1.771-0.777-2.574zM23 21.501c0 0.827-0.673 1.5-1.5 1.5s-1.5-0.673-1.5-1.5v-1.5h3zM23 19.001h-3v-3h3zM23 15.001h-3v-3h2.993c4e-3 0.127 7e-3 0.254 7e-3 0.381zM12 7c-2.757 0-5 2.243-5 5v9.5C7 22.878 8.121 24 9.5 24h5c1.379 0 2.5-1.122 2.5-2.5V12c0-2.757-2.243-5-5-5zM10 23H9.5C8.673 23 8 22.327 8 21.5V12c0-1.478 0.805-2.771 2-3.463zM13 23h-2V8.127C11.32 8.044 11.655 8 12 8s0.68 0.044 1 0.127zM16 21.5c0 0.827-0.673 1.5-1.5 1.5H14V8.537c1.195 0.693 2 1.986 2 3.463z" />
</svg>