<svg id="duration_alt_Layer_1" viewBox="0 0 24 24" fill="currentColor" width="32" height="32" data-name="Layer 1" xmlns="http://www.w3.org/2000/svg" xmlns:xlink="http://www.w3.org/1999/xlink">
    <title>duration-alt</title>
    <path d="M17.94 21.133C17.631 22.794 16.182 24 14.494 24H3.506c-1.009 0-1.97-0.437-2.635-1.197-0.668-0.763-0.974-1.776-0.839-2.781 0.489-3.656 3.258-6.08 5.669-8.021-2.411-1.943-5.18-4.366-5.669-8.022-0.135-1.007 0.171-2.022 0.839-2.785C1.534 0.435 2.493 0 3.5 0h11.001c1.688 0 3.134 1.206 3.44 2.867 0.051 0.271-0.129 0.532-0.4 0.583-0.267 0.051-0.532-0.129-0.582-0.401C16.739 1.862 15.706 1 14.501 1H3.5C2.781 1 2.098 1.311 1.623 1.852 1.145 2.398 0.927 3.125 1.022 3.846c0.47 3.508 3.42 5.868 5.79 7.764C6.93 11.705 7 11.849 7 12.001s-0.069 0.295-0.188 0.391c-2.37 1.896-5.32 4.256-5.79 7.764-0.096 0.719 0.123 1.444 0.601 1.99 0.476 0.543 1.162 0.855 1.883 0.855h10.988c1.206 0 2.242-0.861 2.464-2.049 0.05-0.273 0.315-0.449 0.583-0.4 0.271 0.051 0.45 0.312 0.399 0.581zM18 11.793V8.5C18 8.224 17.776 8 17.5 8S17 8.224 17 8.5V12c0 0.133 0.053 0.26 0.146 0.354l2 2c0.098 0.098 0.226 0.146 0.354 0.146s0.256-0.049 0.354-0.146c0.195-0.195 0.195-0.512 0-0.707zM9.031 14.449c0.124 0 0.24 0.051 0.331 0.134-3e-3-4e-3 1e-3-2e-3 0.027 0.018 1.938 1.549 4.399 3.546 5.013 5.766 0.042 0.15 0.011 0.312-0.084 0.436C14.224 20.928 14.077 21 13.921 21H4.139c-0.156 0-0.303-0.074-0.397-0.197-0.095-0.124-0.126-0.285-0.085-0.435 0.602-2.208 2.979-4.138 5.017-5.769 0.026-0.021 0.029-0.022 0.025-0.017 0.092-0.083 0.208-0.133 0.333-0.133zM9.031 15.624c0 0 0 0 0 0C7.333 16.982 5.585 18.38 4.851 20h8.354c-0.755-1.641-2.56-3.084-4.174-4.376zM24 12c0 3.584-2.916 6.5-6.5 6.5S11 15.584 11 12s2.916-6.5 6.5-6.5S24 8.416 24 12zM23 12c0-3.033-2.468-5.5-5.5-5.5S12 8.967 12 12s2.468 5.5 5.5 5.5S23 15.033 23 12z" />
</svg>