<svg id="eagle_Layer_1" viewBox="0 0 24 24" fill="currentColor" width="32" height="32" data-name="Layer 1" xmlns="http://www.w3.org/2000/svg" xmlns:xlink="http://www.w3.org/1999/xlink">
    <title>eagle</title>
    <path d="M12.5 5h-2C8.522 5 8 6.635 8 7.5 8 7.776 8.224 8 8.5 8h2C12.478 8 13 6.365 13 5.5 13 5.224 12.776 5 12.5 5zM10.5 7H9.077C9.208 6.555 9.56 6 10.5 6h1.423C11.792 6.445 11.44 7 10.5 7zM22.579 9.137C22.256 7.846 22 6.827 22 6c0-1.454 0.655-2.485 0.965-3.806 0.104-0.455-0.03-0.928-0.36-1.265-0.342-0.349-0.828-0.497-1.311-0.4-0.397 0.067-0.935 0.418-1.294 0.47-2.302-0.05-5.071-1.035-7.5-1C8.305 0 4.345 3.882 4.175 8.065 1.959 8.37 0.558 9.865 0.13 11.358c-0.209 0.73-0.186 1.496 0.065 2.153 0.174 0.499 0.856 0.677 1.236 0.298C1.997 13.273 2.862 13 3.999 13H5.19c0.411 0.86 0.809 2.227 0.809 3.5-0.022 1.733-1.119 3.489-1.826 4.96-0.71 1.352 0.769 2.997 2.181 2.44 2.914-1.01 4.798-3.692 5.619-4.861 0.043-0.081 0.088-0.076 0.126-0.028l2.524 3.376c0.838 1.033 2.644 0.684 3.037-0.591 0.33-0.943 0.349-2.839 0.339-4.699 3e-3-0.079 0.054-0.124 0.14-0.084 1.169 0.689 2.232 2.144 3.311 2.776 1.127 0.664 2.654-0.306 2.548-1.606-0.186-4.128-0.898-6.97-1.419-9.046zM5.737 12H4c-1.231 0-2.227 0.281-2.963 0.835-0.08-0.38-0.062-0.796 0.054-1.203C1.461 10.344 2.775 9.046 4.887 9l1.882 0.921c0.365 0.211 0.344 0.653 0.126 0.913zM22.654 18.889c-0.227 0.141-0.489 0.149-0.725 0.022-1.031-0.668-2.078-2.053-3.266-2.75-0.727-0.427-1.694 0.115-1.663 0.941 6e-3 1.225 0.018 3.504-0.283 4.364-0.159 0.55-0.959 0.711-1.316 0.292l-2.518-3.368c-0.464-0.553-1.34-0.51-1.744 0.098-0.749 1.066-2.503 3.562-5.111 4.467-0.617 0.246-1.262-0.481-0.949-1.067 0.77-1.592 1.898-3.399 1.922-5.388 0-1.274-0.343-2.602-0.75-3.577 0.039-0.023 1.407-1.444 1.407-1.444 0.628-0.694 0.519-1.848-0.301-2.37-0.031-0.02-2.166-1.063-2.18-1.069 0.183-3.66 3.65-7.041 7.323-7.041 2.403-0.023 5.181 0.974 7.5 1 0.483 0.011 1.047-0.374 1.497-0.491 0.276-0.042 0.541 0.129 0.493 0.461-0.34 1.368-0.991 2.409-0.99 4.029 0 0.951 0.269 2.023 0.609 3.381 0.51 2.034 1.209 4.819 1.391 8.847 0.012 0.271-0.118 0.518-0.346 0.663z" />
</svg>