<svg id="eagle_flying_Layer_1" viewBox="0 0 24 24" fill="currentColor" width="32" height="32" data-name="Layer 1" xmlns="http://www.w3.org/2000/svg" xmlns:xlink="http://www.w3.org/1999/xlink">
    <title>eagle-flying</title>
    <path d="M22.077 18.216 17.315 17.54c-0.332-0.582-1.282-2.166-2.365-3.315 1.5-0.59 2.423-1.2 3.027-1.662 0.751-0.537 0.605-1.79-0.246-2.143l-0.923-0.419h2.964c0.628 0 1.217-0.289 1.575-0.773 0.296-0.401 0.575-0.828 0.829-1.27 0.512-0.826-0.159-1.989-1.13-1.957h-1.379l2.618-0.727c0.739-0.206 1.286-0.798 1.429-1.545 0.114-0.598 0.221-1.269 0.273-1.717 0.173-1.206-1.043-2.286-2.219-1.955L13.2 2.229c-1.695 0.43-2.995 1.814-3.311 3.525-0.274 1.482-0.8 2.69-1.192 3.442-0.258 0.495-0.768 0.803-1.329 0.803H3c-1.038 0-3 0.627-3 3 0 0.484 0.351 1 1 1h2.58c0.427 0 0.833 0.181 1.112 0.495 1.038 1.166 3.001 3.165 4.963 4.051l-1.036 3.481C7.915 22.125 7 22.506 7 23.499c0 0.276 0.224 0.5 0.5 0.5s0.5-0.224 0.5-0.5c0-0.472 0.991-0.5 1.002-0.5 0.12 0 0.231-0.061 0.331-0.127l3.342-2.983c0.642-0.574 1.47-0.89 2.331-0.89h1.119l3.832 3.472c0.401 0.362 0.934 0.552 1.46 0.517 1.166-0.074 1.981-0.514 2.358-1.27 0.364-0.727 0.285-1.591-0.228-2.497-0.312-0.551-0.848-0.917-1.47-1.005zM15.006 18c-1.107 0-2.172 0.406-2.997 1.144l-2.026 1.809 0.761-2.555c0.075-0.254-0.061-0.522-0.31-0.612-1.966-0.713-4.147-3.003-4.993-3.954-0.47-0.528-1.148-0.831-1.86-0.831H1c0-1.926 1.797-1.998 2-2h4.368c0.936 0 1.784-0.514 2.216-1.34 0.424-0.813 0.992-2.119 1.288-3.723 0.246-1.329 1.256-2.403 2.574-2.737l8.57-2.176c0.523-0.148 1.058 0.337 0.979 0.871-0.049 0.429-0.151 1.07-0.262 1.644-0.07 0.372-0.345 0.667-0.714 0.77l-6.152 1.709c-0.55 0.137-0.432 0.997 0.134 0.982h5.047c0.278 0.05 0.358 0.192 0.263 0.459-0.234 0.408-0.492 0.803-0.767 1.173-0.17 0.23-0.458 0.368-0.771 0.368h-5.272c-0.523-0.016-0.689 0.753-0.207 0.955l3.024 1.375c0.198 0.132 0.209 0.273 0.053 0.439-0.804 0.615-2.199 1.518-5.033 2.247-0.268 0.069-0.428 0.342-0.359 0.609s0.341 0.428 0.609 0.359c0.482-0.124 0.912-0.254 1.32-0.387 1.094 1.024 2.153 2.769 2.518 3.402zM22.881 21.272c-0.265 0.529-0.977 0.683-1.529 0.718-0.26 0.018-0.521-0.078-0.723-0.26l-3.549-3.214 4.856 0.689c0.313 0.045 0.583 0.229 0.74 0.508 0.347 0.612 0.415 1.136 0.205 1.559z" />
</svg>