<svg id="ear_deaf_Layer_1" viewBox="0 0 24 24" fill="currentColor" width="32" height="32" data-name="Layer 1" xmlns="http://www.w3.org/2000/svg" xmlns:xlink="http://www.w3.org/1999/xlink">
    <title>ear-deaf</title>
    <path d="M11.85 12.85l-11 11C0.75 23.95 0.62 24 0.5 24s-0.26-0.05-0.35-0.15c-0.2-0.2-0.2-0.51 0-0.71l11-10.99c0.2-0.2 0.51-0.2 0.71 0s0.2 0.51-0.01 0.7zM23.85 0.15c-0.2-0.2-0.51-0.2-0.71 0l-4.17 4.17c-1.45-1.77-3.57-3-5.93-3.26-2.5-0.28-4.94 0.45-6.85 2.06C4.31 4.71 3.15 7.02 3 9.47 2.98 9.75 3.19 9.98 3.47 10 3.74 10.01 3.98 9.81 4 9.53 4.13 7.36 5.16 5.3 6.83 3.89c1.7-1.43 3.86-2.09 6.09-1.83 3.62 0.41 6.57 3.32 7.01 6.93 0.29 2.34-0.41 4.58-1.95 6.32-0.81 0.92-0.98 2.16-0.98 3.04 0 2.7-1.89 4.65-4.5 4.65-0.28 0-0.5 0.22-0.5 0.5s0.22 0.5 0.5 0.5c3.19 0 5.5-2.38 5.5-5.65 0-0.71 0.13-1.69 0.73-2.37 1.71-1.93 2.52-4.52 2.2-7.11-0.17-1.35-0.65-2.62-1.36-3.73l4.28-4.29c0.2-0.2 0.2-0.51 0-0.7zM15.04 13.35c0.1 0.08 0.21 0.12 0.33 0.12 0.14 0 0.28-0.06 0.38-0.17 0.81-0.91 1.25-2.09 1.25-3.31 0-2.76-2.24-5-5-5-2.57 0-4.72 1.91-5 4.45-0.03 0.27 0.17 0.52 0.44 0.55 0.28 0.03 0.52-0.17 0.55-0.44C8.21 7.52 9.93 6 11.99 6c2.21 0 4 1.79 4 4 0 0.98-0.35 1.92-1 2.65-0.18 0.21-0.16 0.52 0.05 0.7z" />
</svg>