<svg id="ear_muffs_Layer_1" viewBox="0 0 24 24" fill="currentColor" width="32" height="32" data-name="Layer 1" xmlns="http://www.w3.org/2000/svg" xmlns:xlink="http://www.w3.org/1999/xlink">
    <title>ear-muffs</title>
    <path d="M24 17c0-0.621-0.233-1.211-0.649-1.668 0.099-0.271 0.149-0.549 0.149-0.832 0-1.223-0.882-2.244-2.103-2.454-0.201-0.766-0.719-1.389-1.397-1.739V8c0-4.411-3.589-8-8-8S4 3.589 4 8v2.307c-0.674 0.348-1.19 0.965-1.394 1.724C1.414 12.22 0.5 13.256 0.5 14.5c0 0.283 0.05 0.562 0.149 0.832C0.233 15.789 0 16.379 0 17c0 0.654 0.26 1.278 0.712 1.742C0.572 19.057 0.5 19.399 0.5 19.75c0 1.248 0.919 2.285 2.178 2.466C3.074 23.283 4.084 24 5.25 24 6.767 24 8 22.767 8 21.25v-8.5C8 11.233 6.767 10 5.25 10 5.165 10 5.083 10.013 5 10.021V8c0-3.86 3.14-7 7-7s7 3.14 7 7v2.021C18.917 10.013 18.835 10 18.75 10 17.233 10 16 11.233 16 12.75v8.5c0 1.517 1.233 2.75 2.75 2.75 1.161 0 2.167-0.711 2.567-1.77 1.229-0.156 2.183-1.209 2.183-2.48 0-0.351-0.072-0.692-0.212-1.008C23.74 18.278 24 17.654 24 17zM7 12.75v8.5C7 22.215 6.215 23 5.25 23c-0.822 0-1.523-0.562-1.704-1.365-0.051-0.229-0.286-0.386-0.521-0.386C2.199 21.275 1.5 20.586 1.5 19.75c0-0.301 0.089-0.592 0.258-0.842 0.153-0.225 0.098-0.53-0.124-0.688C1.237 17.938 1 17.481 1 16.999c0-0.448 0.206-0.871 0.564-1.16 0.188-0.152 0.241-0.417 0.125-0.629C1.564 14.98 1.5 14.74 1.5 14.499c0-0.827 0.673-1.5 1.466-1.501 0.132 0.014 0.265-0.022 0.37-0.105 0.104-0.083 0.171-0.204 0.186-0.336 0.098-0.888 0.841-1.558 1.728-1.558 0.965 0 1.75 0.785 1.75 1.751zM22.366 18.221c-0.222 0.157-0.277 0.463-0.124 0.688 0.169 0.25 0.258 0.541 0.258 0.842 0 0.824-0.667 1.495-1.524 1.495h-0.01c-0.243-0.023-0.459 0.152-0.512 0.39-0.181 0.804-0.881 1.365-1.704 1.365-0.965 0-1.75-0.785-1.75-1.75v-8.5c0-0.965 0.785-1.75 1.75-1.75 0.887 0 1.63 0.669 1.728 1.558 0.015 0.132 0.065 0.254 0.169 0.337s0.218 0.12 0.353 0.105c0.827 0 1.5 0.673 1.5 1.5 0 0.241-0.064 0.48-0.189 0.711-0.116 0.212-0.063 0.477 0.125 0.629C22.795 16.13 23 16.553 23 17.001c0 0.481-0.237 0.938-0.634 1.22z" />
</svg>