<svg id="ear_Layer_1" viewBox="0 0 24 24" fill="currentColor" width="32" height="32" data-name="Layer 1" xmlns="http://www.w3.org/2000/svg" xmlns:xlink="http://www.w3.org/1999/xlink">
    <title>ear</title>
    <path d="M22 9.5c0 3.009-1.383 5.774-3.794 7.585-1.147 0.863-2.101 2.069-2.833 3.585-0.45 0.933-1.116 1.713-1.979 2.32-0.957 0.673-2.075 1.006-3.212 1.006-1.314 0-2.652-0.446-3.793-1.328-1.434-1.108-2.23-2.497-2.368-4.127C3.998 18.266 4.202 18.023 4.477 18c0.247-0.03 0.518 0.18 0.54 0.456 0.114 1.34 0.781 2.491 1.983 3.421 1.775 1.372 4.113 1.493 5.818 0.295 0.722-0.508 1.278-1.16 1.653-1.937 0.802-1.662 1.855-2.991 3.132-3.95 2.158-1.621 3.396-4.095 3.396-6.786 0-2.417-1.034-4.728-2.838-6.339-1.829-1.635-4.19-2.386-6.65-2.105C7.731 1.48 4.608 4.52 4.084 8.284 4.006 8.847 3.965 9.89 3.998 10.471c0.016 0.275-0.194 0.512-0.47 0.528C3.23 11.017 3.016 10.804 3 10.529 2.963 9.885 3.007 8.772 3.094 8.147 3.68 3.938 7.173 0.537 11.4 0.062c2.751-0.308 5.386 0.528 7.429 2.354C20.844 4.217 22 6.8 22 9.5zM12.5 5.001c2.481 0 4.5 2.019 4.5 4.5 0 0.276 0.224 0.5 0.5 0.5s0.5-0.224 0.5-0.5c0-3.033-2.468-5.5-5.5-5.5-2.824 0-5.188 2.102-5.5 4.943v0.198C7 10.166 7.834 11 8.858 11c1.094 0 2.03 0.788 2.132 1.792 0.104 1.042-0.595 2.016-1.59 2.218-0.271 0.055-0.445 0.319-0.391 0.59 0.049 0.237 0.257 0.4 0.489 0.4 0.033 0 0.067-3e-3 0.101-0.01 1.491-0.303 2.539-1.751 2.385-3.298-0.151-1.509-1.524-2.691-3.126-2.692C8.384 10 8 9.615 8 9.142l-3e-3-0.143C8.25 6.719 10.185 5 12.5 5.001z" />
</svg>