<svg id="earnings_Outline" viewBox="0 0 24 24" fill="currentColor" width="32" height="32" xmlns="http://www.w3.org/2000/svg" xmlns:xlink="http://www.w3.org/1999/xlink">
    <title>earnings</title>
    <path d="M24 2.5v8c0 0.276-0.224 0.5-0.5 0.5S23 10.776 23 10.5v-8c0-0.231-0.057-0.447-0.15-0.642L0.854 23.854C0.756 23.952 0.628 24 0.5 24s-0.256-0.049-0.354-0.146c-0.195-0.195-0.195-0.512 0-0.707L22.143 1.15C21.947 1.056 21.731 1 21.5 1h-8C13.224 1 13 0.776 13 0.5S13.224 0 13.5 0h8C22.878 0 24 1.121 24 2.5zM2 5.5C2 3.57 3.57 2 5.5 2S9 3.57 9 5.5 7.43 9 5.5 9 2 7.43 2 5.5zM3 5.5C3 6.879 4.122 8 5.5 8S8 6.879 8 5.5 6.878 3 5.5 3 3 4.121 3 5.5zM22 18.5c0 1.93-1.57 3.5-3.5 3.5S15 20.43 15 18.5 16.57 15 18.5 15 22 16.57 22 18.5zM21 18.5c0-1.379-1.122-2.5-2.5-2.5S16 17.121 16 18.5 17.122 21 18.5 21 21 19.879 21 18.5z" />
</svg>