<svg id="earth_asia_Layer_1" viewBox="0 0 24 24" fill="currentColor" width="32" height="32" data-name="Layer 1" xmlns="http://www.w3.org/2000/svg" xmlns:xlink="http://www.w3.org/1999/xlink">
    <title>earth-asia</title>
    <path d="M12 0C5.383 0 0 5.431 0 12.106S5.271 24 12 24s12-5.224 12-11.894S18.617 0 12 0zM12 1c0.955 0 1.882 0.124 2.766 0.356-0.258 0.509-0.623 1.201-0.928 1.778-0.245 0.463-0.451 0.854-0.514 1.005l-1.102 0.275C11.597 4.57 11.103 5.027 10.9 5.638l-0.205 0.613c-0.194 0.583-0.089 1.224 0.279 1.714l0.699 0.933c0.044 0.059 0.044 0.145 0 0.204l-0.623 0.83C11.018 9.974 10.967 10 10.914 10h-0.679c-0.479 0-0.93 0.209-1.24 0.575-0.309 0.366-0.441 0.846-0.362 1.316l0.257 1.545-0.616 0.308-1.082-1.353c-0.555-0.69-1.617-0.826-2.324-0.294l-1.154 0.866C3.683 12.986 3.643 13 3.604 13H1.035C1.012 12.706 1 12.408 1 12.106 1 5.982 5.935 1 12 1zM12 23c-5.515 0-9.96-3.825-10.841-9h2.447c0.254 0 0.505-0.083 0.709-0.236l1.155-0.866c0.29-0.217 0.718-0.161 0.943 0.12L7.599 14.5c0.153 0.193 0.385 0.298 0.621 0.298 0.12 0 0.24-0.027 0.352-0.083l0.905-0.452c0.312-0.156 0.484-0.493 0.427-0.838l-0.283-1.697c-0.03-0.181 0.021-0.365 0.139-0.505 0.119-0.14 0.292-0.221 0.477-0.221h0.679c0.365 0 0.715-0.175 0.935-0.468l0.624-0.831c0.309-0.413 0.309-0.99 0-1.403l-0.7-0.934c-0.171-0.228-0.22-0.526-0.13-0.798l0.205-0.613c0.094-0.284 0.325-0.497 0.615-0.57l1.103-0.275c0.275-0.069 0.505-0.254 0.632-0.508 0.082-0.166 0.284-0.547 0.523-1 0.338-0.639 0.748-1.418 1.01-1.941 4.234 1.547 7.268 5.646 7.268 10.448 0 0.813-0.086 1.602-0.249 2.36l-2.18-1.313c-0.325-0.198-0.767-0.145-1.04 0.127l-0.849 0.849c-0.12 0.12-0.27 0.2-0.435 0.232l-1.605 0.321c-0.408 0.082-0.749 0.342-0.935 0.714L15.3 16.214c-0.188 0.375-0.188 0.823 0 1.198l0.387 0.774c0.197 0.393 0.574 0.665 0.965 0.718l3.325 0.776C17.987 21.738 15.171 23.002 12 23zM20.718 18.825l-3.883-0.904c-0.11-0.016-0.205-0.084-0.255-0.184l-0.387-0.774c-0.048-0.094-0.048-0.208 0-0.302l0.408-0.815c0.048-0.096 0.132-0.16 0.237-0.181l1.604-0.321c0.36-0.071 0.687-0.246 0.947-0.506l0.766-0.766 2.329 1.402c-0.391 1.232-0.993 2.362-1.766 3.351zM9 17.5C9 17.776 8.776 18 8.5 18h-2C6.224 18 6 17.776 6 17.5S6.224 17 6.5 17h2C8.776 17 9 17.224 9 17.5zM13.854 13.146c0.195 0.195 0.195 0.512 0 0.707l-1.701 1.7c-0.098 0.098-0.226 0.146-0.354 0.146s-0.256-0.049-0.354-0.146c-0.195-0.195-0.195-0.512 0-0.707l1.701-1.7c0.195-0.195 0.512-0.195 0.708 0zM15.277 8.947c-0.247-0.124-0.347-0.424-0.224-0.671l1-2c0.125-0.247 0.424-0.347 0.671-0.224 0.247 0.124 0.347 0.424 0.224 0.671l-1 2C15.86 8.898 15.684 8.999 15.5 8.999c-0.075 0-0.151-0.017-0.223-0.052z" />
</svg>