<svg id="earth_africa_Layer_1" viewBox="0 0 24 24" fill="currentColor" width="32" height="32" data-name="Layer 1" xmlns="http://www.w3.org/2000/svg" xmlns:xlink="http://www.w3.org/1999/xlink">
    <title>earth-africa</title>
    <path d="M12 0C5.383 0 0 5.383 0 12s5.383 12 12 12 12-5.383 12-12S18.617 0 12 0zM21.359 6.226 19.172 8.414c-0.372 0.372-0.887 0.585-1.414 0.585h-2.956C14.929 8.75 15 8.469 15 8.172V7.341c0-0.488-0.19-0.947-0.535-1.292l-0.8-0.8c-0.591-0.594-1.508-0.709-2.232-0.276L9.885 5.901C9.78 5.965 9.657 5.999 9.533 5.999H9V5.366c0-0.521-0.225-1.017-0.605-1.351L6.649 2.391C8.234 1.505 10.059 0.999 12 0.999c3.949 0 7.419 2.092 9.359 5.227zM15.786 11.699C15.924 11.838 16 12.022 16 12.217v1.303c0 0.133-0.036 0.262-0.104 0.376L13.434 18h-0.653l-0.671-2.686C11.918 14.54 11.226 14 10.427 14H9c-0.552 0-1-0.449-1-1v-1.045c0-0.263 0.131-0.507 0.35-0.653l1.756-1.17c0.13-0.086 0.28-0.132 0.435-0.132h2.633c0.268 0 0.521-0.058 0.751-0.162zM12 23C5.935 23 1 18.065 1 12 1 8.246 2.891 4.926 5.769 2.94l1.956 1.818C7.9 4.912 8 5.133 8 5.366v0.826C8 6.637 8.362 7 8.808 7h0.726C9.84 7 10.139 6.917 10.4 6.76l1.546-0.927c0.329-0.197 0.743-0.146 1.012 0.125l0.801 0.801c0.156 0.156 0.242 0.363 0.242 0.584v0.831c0 0.456-0.371 0.827-0.827 0.827h-2.633c-0.353 0-0.694 0.104-0.989 0.3l-1.756 1.17c-0.498 0.332-0.795 0.887-0.795 1.485v1.045c0 1.103 0.897 2 2 2h1.427c0.338 0 0.631 0.229 0.712 0.556l0.693 2.774c0.1 0.395 0.452 0.67 0.859 0.67H13.5c0.309 0 0.6-0.165 0.759-0.43l2.494-4.158c0.162-0.269 0.248-0.577 0.248-0.892v-1.303c0-0.462-0.18-0.897-0.507-1.225L15.501 10h2.258c0.79 0 1.563-0.32 2.121-0.878l1.985-1.986c0.727 1.468 1.136 3.119 1.136 4.864 0 6.065-4.935 11-11.001 11z" />
</svg>