<svg id="earth_europa_Layer_1" viewBox="0 0 24 24" fill="currentColor" width="32" height="32" data-name="Layer 1" xmlns="http://www.w3.org/2000/svg" xmlns:xlink="http://www.w3.org/1999/xlink">
    <title>earth-europa</title>
    <path d="M24.034 12c0-6.872-5.521-11.994-11.602-11.994C5.487 6e-3 0.034 5.383 0.034 12S5.433 24 12.07 24c6.828 0 11.964-5.359 11.964-12zM23.034 12c0 0.975-0.128 1.921-0.367 2.823l-3.169-1.381c0.472-0.214 1.001-0.709 1.001-1.441 0-0.825-0.651-1.372-1.184-1.448l-1.654-0.552h0.491c1.018 0 1.846-0.828 1.846-1.846V7.847c0-1.018-0.828-1.846-1.846-1.846h-0.631c-0.703 0-1.336 0.391-1.651 1.021l-0.578 1.161-0.429 0.147c-0.265 0.062-0.91 0.272-1.168 0.874-0.068 0.158-0.099 0.314-0.106 0.461-0.277-0.274-0.657-0.433-1.051-0.433-0.603 0-1.082 0.393-1.23 0.691l-0.775 1.045c-0.129-0.079-0.338-0.228-0.457-0.335-0.099-0.148-0.116-0.333-0.046-0.497l0.935-2.181c0.054-0.125 0.148-0.221 0.261-0.27l2.596-1.07c0.576-0.165 1.196-0.726 1.196-1.567 0-0.4-0.153-0.766-0.43-1.029-0.458-0.434-1.062-0.417-1.282-0.399l-1.688 0.292 1.203-2.885C18.517 1.416 23.033 6.189 23.034 12zM1.034 12c0-5.958 4.777-10.825 10.715-10.995l-1.232 2.964c-0.101 0.169-0.249 0.498-0.113 0.792 0.094 0.205 0.31 0.321 0.54 0.283l2.491-0.433c0.03-2e-3 0.303-0.021 0.466 0.134 0.08 0.076 0.119 0.175 0.119 0.303 0 0.466-0.466 0.605-0.523 0.625l-2.655 1.091c-0.356 0.152-0.638 0.435-0.793 0.797L9.114 9.742C8.91 10.217 8.96 10.757 9.31 11.264c7e-3 7e-3 0.708 0.701 1.207 0.737 0.474 0 0.68-0.237 0.729-0.314l0.909-1.235c0.025-0.048 0.18-0.22 0.385-0.22 0.231 0 0.365 0.159 0.433 0.24l0.492 0.487c0.145 0.182 0.421 0.378 0.69 0.38 0.385 0 0.698-0.313 0.698-0.698 0-0.053-8e-3-0.105-0.025-0.156l-0.145-0.422c-0.034-0.066-0.139-0.295-0.066-0.465 0.06-0.14 0.29-0.25 0.524-0.308l0.472-0.16c0.251-0.083 0.454-0.26 0.572-0.496l0.583-1.166C16.913 7.179 17.203 7 17.525 7h0.631c0.467 0 0.846 0.379 0.846 0.846v0.308C19.002 8.621 18.623 9 18.156 9h-1.263c-0.491 0-0.891 0.4-0.891 0.891 0 0.364 0.232 0.686 0.577 0.801l2.503 0.828c0.131 0.021 0.419 0.17 0.419 0.48 0 0.353-0.414 0.531-0.459 0.551l-0.76 0.376c-0.2 0.116-0.319 0.316-0.319 0.534 0 0.28 0.188 0.519 0.468 0.593l3.937 1.728c-0.15 0.409-0.323 0.806-0.518 1.19l-2.468-0.429c-0.245-0.028-0.475-0.14-0.649-0.314l-0.909-0.909c-0.207-0.207-0.482-0.321-0.775-0.321h-0.714c-0.218 0-0.428-0.063-0.608-0.185l-2.243-1.495c-0.315-0.21-0.681-0.321-1.059-0.321h-1.252c-0.432 0-0.855 0.148-1.193 0.418l-1.26 1.008c-0.456 0.364-0.717 0.907-0.717 1.491v0.291c0 0.503 0.204 0.995 0.559 1.35l1.067 1.067c0.245 0.245 0.551 0.418 0.888 0.503l0.811 0.202c0.398 0.1 0.676 0.456 0.676 0.865v2.803C5.951 22.959 1.038 18.039 1.034 12zM13 22.96v-2.764c0-0.868-0.589-1.623-1.433-1.835l-0.811-0.202c-0.16-0.04-0.306-0.123-0.423-0.24l-1.067-1.067C9.097 16.683 9 16.449 9 16.209v-0.291c0-0.278 0.125-0.537 0.342-0.71l1.26-1.008c0.16-0.128 0.362-0.199 0.568-0.199h1.252c0.18 0 0.354 0.053 0.504 0.153l2.242 1.494c0.345 0.231 0.748 0.353 1.164 0.353l0.782 0.028 0.909 0.909c0.333 0.333 0.774 0.546 1.213 0.596l2.085 0.363C19.53 20.716 16.496 22.665 13 22.96zM7.947 6.724l-1 2C6.859 8.899 6.683 9 6.499 9 6.424 9 6.348 8.983 6.276 8.947 6.029 8.823 5.929 8.523 6.052 8.276l1-2c0.124-0.247 0.424-0.347 0.671-0.224C7.97 6.176 8.07 6.476 7.947 6.724z" />
</svg>