<svg id="earth_americas_Layer_1" viewBox="0 0 24 24" fill="currentColor" width="32" height="32" data-name="Layer 1" xmlns="http://www.w3.org/2000/svg" xmlns:xlink="http://www.w3.org/1999/xlink">
    <title>earth-americas</title>
    <path d="M24 12c0-6.5-5.103-12-12-12C5.383 0 0 5.383 0 12s5.383 12 12 12c7.179 0 12-5.667 12-12zM22.969 12.833l-3.183-1.287c-0.069-0.035-0.12-0.097-0.139-0.173L19.02 8.867c-0.028-0.113 0.024-0.237 0.14-0.304l2.606-1.623c0.789 1.516 1.235 3.237 1.235 5.06 0 0.28-0.011 0.558-0.032 0.833zM12 1c0.095 0 0.191 1e-3 0.285 4e-3-0.643 0.862-1.64 2.204-1.825 2.49-0.393 0.608-0.405 1.374-0.032 1.997l0.733 1.222-0.699-0.35C9.766 6.014 8.932 6.151 8.387 6.7L7.858 7.229C7.518 7.568 7.332 8.02 7.332 8.5c0 0.171 0.023 0.339 0.07 0.5h-1.8C5.493 9 5.386 8.955 5.308 8.872L2.683 6.16C4.63 3.063 8.079 1 12 1zM12 23C5.935 23 1 18.065 1 12c0-1.772 0.422-3.447 1.169-4.932l2.416 2.495C4.849 9.84 5.219 10 5.602 10H7.55c0.29 0 0.563 0.113 0.769 0.318l0.372 0.373c0.197 0.197 0.31 0.469 0.31 0.746V12.4c0 0.389 0.151 0.753 0.425 1.025l1.189 1.19c0.249 0.249 0.386 0.58 0.386 0.931v2.365c0 0.601 0.489 1.09 1.09 1.09h0.213c0.424 0 0.812-0.249 0.989-0.633l2.241-4.855c0.267-0.577 0.062-1.265-0.478-1.601l-2.562-1.603c-0.323-0.201-0.695-0.308-1.076-0.308H9.987c-0.31 0-0.612-0.125-0.83-0.344L8.565 9.065c-0.15-0.15-0.233-0.351-0.233-0.564s0.083-0.414 0.233-0.564l0.53-0.53c0.242-0.243 0.613-0.303 0.92-0.148l0.879 0.439c0.364 0.184 0.804 0.112 1.085-0.176 0.307-0.307 0.366-0.779 0.145-1.149l-0.838-1.396c-0.176-0.294-0.17-0.654 0.015-0.94 0.191-0.295 1.497-2.047 2.164-2.939 3.271 0.437 6.092 2.316 7.8 4.976l-2.619 1.631c-0.486 0.28-0.731 0.857-0.596 1.403l0.627 2.505c0.089 0.36 0.331 0.662 0.699 0.843l3.467 1.403C21.957 19.042 17.433 22.999 12 23zM11.321 13.907l-1.19-1.191C10.047 12.632 10 12.52 10 12.399v-0.963c0-0.147-0.017-0.294-0.048-0.437 0.012 0 0.022 0 0.034 0h1.431c0.193 0 0.383 0.054 0.548 0.156l2.562 1.603c0.112 0.07 0.154 0.213 0.099 0.333l-2.322 4.908h-0.213c-0.049 0-0.09-0.041-0.09-0.09v-2.365c0-0.618-0.241-1.2-0.68-1.637z" />
</svg>