<svg id="eclipse_Layer_1" viewBox="0 0 24 24" fill="currentColor" width="32" height="32" data-name="Layer 1" xmlns="http://www.w3.org/2000/svg" xmlns:xlink="http://www.w3.org/1999/xlink">
    <title>eclipse</title>
    <path d="M11.5 24c-0.276 0-0.5-0.224-0.5-0.5v-4.579c0-0.243-0.182-0.452-0.422-0.486-0.673-0.096-1.312-0.295-1.899-0.581l-2.557 4.299c-0.143 0.239-0.451 0.314-0.686 0.174-0.237-0.141-0.315-0.448-0.174-0.685l2.553-4.293c-0.651-0.452-1.216-1.02-1.664-1.67l-4.4 2.549c-0.238 0.137-0.545 0.058-0.684-0.182-0.139-0.239-0.057-0.545 0.182-0.683l4.398-2.547c-0.346-0.713-0.564-1.496-0.628-2.315H0.5c-0.276 0-0.5-0.224-0.5-0.5s0.224-0.5 0.5-0.5h4.52c0.063-0.818 0.282-1.6 0.627-2.313L1.251 6.665C1.012 6.528 0.929 6.222 1.066 5.982S1.507 5.66 1.749 5.797l4.4 2.525C6.599 7.669 7.166 7.1 7.82 6.647L5.311 2.301C5.172 2.062 5.254 1.756 5.494 1.618 5.733 1.48 6.04 1.561 6.177 1.801l2.508 4.342c0.587-0.284 1.223-0.482 1.895-0.578 0.24-0.034 0.422-0.243 0.422-0.486V0.5c0-0.276 0.224-0.5 0.5-0.5s0.5 0.224 0.5 0.5v4.579c0 0.738-0.551 1.373-1.281 1.477-2.69 0.382-4.719 2.723-4.719 5.445s2.028 5.062 4.719 5.445c0.73 0.104 1.281 0.738 1.281 1.477v4.579c0 0.276-0.224 0.5-0.502 0.498zM18 18c-3.309 0-6-2.691-6-6s2.691-6 6-6 6 2.691 6 6-2.691 6-6 6zM18 7c-2.757 0-5 2.243-5 5s2.243 5 5 5 5-2.243 5-5-2.243-5-5-5z" />
</svg>