<svg id="eco_electric_Layer_1" viewBox="0 0 24 24" fill="currentColor" width="32" height="32" data-name="Layer 1" xmlns="http://www.w3.org/2000/svg" xmlns:xlink="http://www.w3.org/1999/xlink">
    <title>eco-electric</title>
    <path d="M23.462 5.531c-0.38-0.378-0.906-0.569-1.435-0.525-1.312 0.103-5.729 0.579-7.556 2.405-1.794 1.808-2.03 4.809-0.233 6.724C13.45 15.109 13 16.299 13 17.571V19.5c0 1.93-1.57 3.5-3.5 3.5S6 21.43 6 19.5v-7.551c2.244-0.252 4-2.139 4-4.449V5h0.5C10.776 5 11 4.776 11 4.5S10.776 4 10.5 4H8V0.5C8 0.224 7.776 0 7.5 0S7 0.224 7 0.5V4H4V0.5C4 0.224 3.776 0 3.5 0S3 0.224 3 0.5V4H0.5C0.224 4 0 4.224 0 4.5S0.224 5 0.5 5H1v2.5c0 2.31 1.756 4.197 4 4.449V19.5C5 21.981 7.019 24 9.5 24s4.5-2.019 4.5-4.5v-1.929c0-1.009 0.346-1.956 0.955-2.74 1.894 1.734 4.849 1.463 6.636-0.303 1.85-1.849 2.308-6.256 2.405-7.578 0.037-0.527-0.157-1.044-0.534-1.419zM2 7.5V5h7v2.5C9 9.43 7.43 11 5.5 11S2 9.43 2 7.5zM20.885 13.819c-1.235 1.225-3.103 1.521-4.659 0.744-0.119-0.106-0.31-0.255-0.602-0.48l4.229-4.23c0.195-0.195 0.195-0.512 0-0.707s-0.512-0.195-0.707 0l-4.23 4.23c-0.22-0.287-0.369-0.475-0.475-0.594-0.783-1.56-0.489-3.429 0.737-4.666 1.26-1.259 4.519-1.926 6.927-2.114 0.292-0.032 1.024 0.372 0.891 0.888-0.063 0.868-0.466 5.283-2.111 6.929z" />
</svg>