<svg id="eco_battery_Layer_1" viewBox="0 0 24 24" fill="currentColor" width="32" height="32" data-name="Layer 1" xmlns="http://www.w3.org/2000/svg" xmlns:xlink="http://www.w3.org/1999/xlink">
    <title>eco-battery</title>
    <path d="M16 2.028V1.5C16 0.673 15.327 0 14.5 0h-5C8.673 0 8 0.673 8 1.5v0.528C5.753 2.278 4 4.188 4 6.5v13C4 21.981 6.019 24 8.5 24h7c2.481 0 4.5-2.019 4.5-4.5v-13c0-2.312-1.753-4.223-4-4.472zM19 19.5c0 1.93-1.57 3.5-3.5 3.5h-7C6.57 23 5 21.43 5 19.5v-13C5 4.57 6.57 3 8.5 3 8.776 3 9 2.776 9 2.5v-1C9 1.224 9.224 1 9.5 1h5C14.775 1 15 1.224 15 1.5v1C15 2.776 15.224 3 15.5 3 17.43 3 19 4.57 19 6.5zM10.54 8.117c-2.354 2.327-3.103 4.705-2.109 6.695 0.588 1.163 1.766 2.05 3.069 2.131V18.5c0 0.276 0.224 0.5 0.5 0.5s0.5-0.224 0.5-0.5v-1.543c0.723-0.091 1.412-0.365 1.992-0.828C15.45 15.365 16 14.224 16 13c0-1.958-1.376-3.731-2.531-4.874-0.809-0.802-2.124-0.808-2.929-9e-3zM13.869 15.347c-0.4 0.319-0.872 0.512-1.368 0.596V13.5c0-0.276-0.224-0.5-0.5-0.5s-0.5 0.224-0.5 0.5v2.443c-0.927-0.096-1.751-0.745-2.175-1.579-1.059-2.121 0.747-4.379 1.917-5.537 0.418-0.413 1.102-0.409 1.523 9e-3C13.6 9.662 15 11.301 15 12.999c0 0.918-0.412 1.774-1.131 2.348z" />
</svg>