<svg id="edamame_Layer_1" viewBox="0 0 24 24" fill="currentColor" width="32" height="32" data-name="Layer 1" xmlns="http://www.w3.org/2000/svg" xmlns:xlink="http://www.w3.org/1999/xlink">
    <title>edamame</title>
    <path d="M11.045 11.522c0-1.379-1.122-2.5-2.5-2.5s-2.5 1.121-2.5 2.5 1.122 2.5 2.5 2.5 2.5-1.121 2.5-2.5zM8.545 13.022c-0.827 0-1.5-0.673-1.5-1.5s0.673-1.5 1.5-1.5 1.5 0.673 1.5 1.5-0.673 1.5-1.5 1.5zM8.045 6.522c0-1.379-1.122-2.5-2.5-2.5s-2.5 1.121-2.5 2.5 1.122 2.5 2.5 2.5 2.5-1.121 2.5-2.5zM5.545 8.022c-0.827 0-1.5-0.673-1.5-1.5s0.673-1.5 1.5-1.5 1.5 0.673 1.5 1.5-0.673 1.5-1.5 1.5zM12.545 13.022c-1.378 0-2.5 1.121-2.5 2.5s1.122 2.5 2.5 2.5 2.5-1.121 2.5-2.5-1.122-2.5-2.5-2.5zM12.545 17.022c-0.827 0-1.5-0.673-1.5-1.5s0.673-1.5 1.5-1.5 1.5 0.673 1.5 1.5-0.673 1.5-1.5 1.5zM17.545 16.022c-1.378 0-2.5 1.121-2.5 2.5s1.122 2.5 2.5 2.5 2.5-1.121 2.5-2.5-1.122-2.5-2.5-2.5zM17.545 20.022c-0.827 0-1.5-0.673-1.5-1.5s0.673-1.5 1.5-1.5 1.5 0.673 1.5 1.5-0.673 1.5-1.5 1.5zM23.936 21.143c-0.089-0.318-0.239-0.612-0.383-0.896-0.25-0.493-0.509-1.002-0.509-1.727 0-1.469-0.572-2.85-1.611-3.889-0.937-0.938-2.192-1.497-3.534-1.578-0.271-0.017-0.521-0.17-0.669-0.41-0.675-1.096-1.721-1.924-2.946-2.332-0.249-0.083-0.447-0.28-0.53-0.53-0.408-1.224-1.236-2.27-2.332-2.945-0.24-0.148-0.394-0.398-0.41-0.669-0.081-1.341-0.642-2.596-1.579-3.533-1.039-1.039-2.419-1.611-3.888-1.611-0.546 0-0.929-0.252-1.334-0.519-0.226-0.148-0.459-0.303-0.715-0.397C2.649-0.2 1.727 0.169 1.353 0.974 0.835 2.091 0.068 4.481 0.068 6.068c0 1.827 0.535 3.288 1.59 4.343 0.325 0.325 0.705 0.611 1.195 0.899 0.13 0.077 0.189 0.327 0.195 0.398 0.075 2.252 1.495 4.205 3.619 4.975 0.334 0.122 0.595 0.383 0.716 0.717 0.785 2.162 2.748 3.615 4.886 3.615 0.366 0 0.471 0.177 0.573 0.348 0.229 0.384 0.504 0.735 0.815 1.047C14.712 23.465 16.173 24 18 24c1.5 0 3.691-0.444 4.767-0.759 0.896-0.262 1.421-1.202 1.169-2.098zM22.486 22.281C21.496 22.571 19.385 23 18 23c-1.552 0-2.775-0.437-3.636-1.297-0.253-0.253-0.477-0.54-0.664-0.853-0.136-0.229-0.498-0.835-1.431-0.835-1.719 0-3.304-1.188-3.946-2.957-0.223-0.612-0.702-1.092-1.315-1.314-1.737-0.63-2.899-2.227-2.961-4.069 0-8e-3-0.036-0.843-0.687-1.226-0.416-0.245-0.732-0.481-0.996-0.745-0.86-0.86-1.297-2.084-1.297-3.636 0-1.374 0.693-3.596 1.193-4.672C2.376 1.146 2.624 1 2.891 1 3.19 1.004 3.37 1.157 3.661 1.34 4.123 1.645 4.699 2.024 5.545 2.024c1.202 0 2.332 0.468 3.181 1.318 0.765 0.765 1.222 1.789 1.288 2.887 0.036 0.595 0.366 1.141 0.883 1.46 0.896 0.553 1.574 1.408 1.907 2.41 0.182 0.547 0.618 0.981 1.164 1.163 1.002 0.334 1.857 1.011 2.41 1.908 0.319 0.518 0.865 0.848 1.46 0.883 1.097 0.066 2.122 0.523 2.886 1.287 0.85 0.85 1.318 1.979 1.318 3.182 0 0.964 0.343 1.638 0.618 2.18 0.134 0.262 0.249 0.489 0.312 0.712 0.104 0.37-0.114 0.759-0.486 0.867z" />
</svg>