<svg id="effect_Layer_1" viewBox="0 0 24 24" fill="currentColor" width="32" height="32" data-name="Layer 1" xmlns="http://www.w3.org/2000/svg" xmlns:xlink="http://www.w3.org/1999/xlink">
    <title>effect</title>
    <path d="M20.5 17c-0.136 0-0.266 0.025-0.398 0.04L15.658 1H23.5C23.776 1 24 0.776 24 0.5S23.776 0 23.5 0h-23C0.224 0 0 0.224 0 0.5S0.224 1 0.5 1H3v16.051c-1.692 0.245-3 1.691-3 3.449 0 1.93 1.57 3.5 3.5 3.5 1.28 0 2.39-0.698 3-1.726C7.11 23.302 8.22 24 9.5 24c1.93 0 3.5-1.57 3.5-3.5 0-1.758-1.308-3.204-3-3.449V1h4.62l4.511 16.28C17.88 17.814 17 19.056 17 20.5c0 1.93 1.57 3.5 3.5 3.5s3.5-1.57 3.5-3.5-1.57-3.5-3.5-3.5zM3.5 23C2.122 23 1 21.879 1 20.5S2.122 18 3.5 18 6 19.121 6 20.5 4.878 23 3.5 23zM12 20.5c0 1.379-1.122 2.5-2.5 2.5S7 21.879 7 20.5 8.122 18 9.5 18 12 19.121 12 20.5zM9 17.051c-1.066 0.155-1.971 0.785-2.5 1.675-0.529-0.891-1.434-1.521-2.5-1.675V1h5zM20.5 23c-1.378 0-2.5-1.121-2.5-2.5s1.122-2.5 2.5-2.5 2.5 1.121 2.5 2.5-1.122 2.5-2.5 2.5z" />
</svg>