<svg id="egg_fried_Layer_1" viewBox="0 0 24 24" fill="currentColor" width="32" height="32" data-name="Layer 1" xmlns="http://www.w3.org/2000/svg" xmlns:xlink="http://www.w3.org/1999/xlink">
    <title>egg-fried</title>
    <path d="M9.5 16C6.468 16 4 13.533 4 10.5S6.468 5 9.5 5 15 7.467 15 10.5 12.532 16 9.5 16zM9.5 6C7.019 6 5 8.019 5 10.5S7.019 15 9.5 15 14 12.981 14 10.5 11.981 6 9.5 6zM13.046 24C5.853 24 0 18.148 0 10.955v-0.729C0 4.824 4.244 0.241 9.461 0.01c3.503-0.152 6.74 1.493 8.685 4.406 0.342 0.513 0.878 0.9 1.551 1.121v0c2.574 0.843 4.304 3.23 4.304 5.94 0 1.857-0.82 3.605-2.251 4.798-0.521 0.433-0.894 1.056-1.052 1.753C19.943 21.377 16.582 24 13.046 24zM9.91 1c-0.135 0-0.27 3e-3-0.404 9e-3C4.815 1.216 1 5.351 1 10.226v0.729C1 17.597 6.403 23 13.046 23c3.087 0 6.02-2.281 6.677-5.192 0.205-0.911 0.698-1.728 1.386-2.301 1.202-1.001 1.892-2.47 1.892-4.029 0-2.276-1.453-4.282-3.614-4.99v0c-0.888-0.291-1.604-0.814-2.072-1.516C15.642 2.466 12.897 1.001 9.91 1zM12 18c-0.552 0-1 0.448-1 1s0.448 1 1 1 1-0.448 1-1-0.448-1-1-1zM19 10c-0.552 0-1 0.448-1 1s0.448 1 1 1 1-0.448 1-1-0.448-1-1-1zM15 16c-0.552 0-1 0.448-1 1s0.448 1 1 1 1-0.448 1-1-0.448-1-1-1z" />
</svg>