<svg id="eject_Layer_1" viewBox="0 0 24 24" fill="currentColor" width="32" height="32" data-name="Layer 1" xmlns="http://www.w3.org/2000/svg" xmlns:xlink="http://www.w3.org/1999/xlink">
    <title>eject</title>
    <path d="M24 21.5c0 0.276-0.224 0.5-0.5 0.5h-23C0.224 22 0 21.776 0 21.5S0.224 21 0.5 21h23c0.276 0 0.5 0.224 0.5 0.5zM0.387 17.092C0.13 16.586 0 16.05 0 15.5c0-0.736 0.237-1.448 0.687-2.059L9.201 3.403C9.845 2.522 10.873 2 12 2c1.121 0 2.145 0.516 2.811 1.416l8.481 9.989c0.817 1.112 0.93 2.477 0.322 3.678C23.005 18.284 21.839 19 20.493 19l-16.984 9e-3c-1.346 0-2.513-0.717-3.122-1.917zM1 15.5c0 0.392 0.094 0.775 0.278 1.14 0.435 0.857 1.269 1.369 2.229 1.369L20.491 18c0.961 0 1.795-0.512 2.229-1.369 0.434-0.858 0.354-1.833-0.214-2.607L14.015 4.021C13.54 3.372 12.806 3 12 3s-1.54 0.372-2.015 1.021L1.471 14.06C1.171 14.471 1 14.978 1 15.5z" />
</svg>