<svg id="electric_scooter_Layer_1" viewBox="0 0 24 24" fill="currentColor" width="32" height="32" data-name="Layer 1" xmlns="http://www.w3.org/2000/svg" xmlns:xlink="http://www.w3.org/1999/xlink">
    <title>electric-scooter</title>
    <path d="M21 18c-0.073 0-0.141 0.016-0.212 0.021L17.229 3.434C16.737 1.412 14.939 0 12.858 0H11.5C11.224 0 11 0.224 11 0.5S11.224 1 11.5 1h1.358c1.619 0 3.017 1.098 3.4 2.671l2.234 9.159-2.88 3.519c-0.858 1.049-2.127 1.65-3.482 1.65H0.5c-0.276 0-0.5 0.224-0.5 0.5s0.224 0.5 0.5 0.5h1.28C1.3 19.531 1 20.228 1 20.999c0 1.654 1.346 3 3 3s3-1.346 3-3c0-0.771-0.301-1.468-0.78-2h5.911c1.656 0 3.208-0.735 4.256-2.017l2.403-2.937 1.025 4.2c-1.066 0.461-1.814 1.521-1.814 2.754 0 1.654 1.346 3 3 3s3-1.346 3-3-1.346-3-3.001-2.999zM6 21c0 1.103-0.897 2-2 2s-2-0.897-2-2 0.897-2 2-2 2 0.897 2 2zM21 23c-1.103 0-2-0.897-2-2s0.897-2 2-2 2 0.897 2 2-0.897 2-2 2zM6 15c3.309 0 6-2.691 6-6S9.309 3 6 3 0 5.691 0 9s2.691 6 6 6zM6 4c2.757 0 5 2.243 5 5s-2.243 5-5 5-5-2.243-5-5 2.243-5 5-5zM4.159 10.501h0.855c0 0-0.345 0.996-0.345 0.996-0.08 0.23-0.043 0.486 0.098 0.685 0.142 0.199 0.372 0.318 0.616 0.318 0.223 0 0.434-0.098 0.575-0.267l2.746-3.248c0.191-0.29 0.206-0.648 0.038-0.959-0.174-0.324-0.51-0.525-0.875-0.525H7.082l0.28-0.742c0.106-0.286 0.066-0.606-0.107-0.857-0.174-0.25-0.46-0.4-0.765-0.4H5.307c-0.489 0-0.922 0.312-1.078 0.775L3.233 9.256c-0.09 0.296-0.035 0.608 0.149 0.856s0.467 0.39 0.777 0.389zM5.179 6.592c0.02-0.055 0.071-0.093 0.13-0.093h1.083l-0.5 1.323C5.834 7.976 5.855 8.148 5.949 8.283 6.042 8.418 6.196 8.499 6.36 8.499h1.451l-1.767 2.085 0.146-0.422c0.053-0.153 0.028-0.322-0.065-0.454-0.094-0.131-0.246-0.209-0.407-0.209H4.189z" />
</svg>