<svg id="electric_car_Layer_1" viewBox="0 0 24 24" fill="currentColor" width="32" height="32" data-name="Layer 1" xmlns="http://www.w3.org/2000/svg" xmlns:xlink="http://www.w3.org/1999/xlink">
    <title>electric-car</title>
    <path d="M23.5 0C23.224 0 23 0.224 23 0.5V2h-3V0.5C20 0.224 19.776 0 19.5 0S19 0.224 19 0.5v3c0 1.207 0.86 2.217 2 2.449V15.5c0 1.93-1.57 3.5-3.5 3.5h-0.851C16.868 18.544 17 18.039 17 17.5c0-1.385-0.236-2.748-0.702-4.051l-0.879-2.462c-0.638-1.786-2.341-2.986-4.238-2.986H5.819c-1.896 0-3.6 1.2-4.238 2.987l-0.879 2.461C0.236 14.753 0 16.116 0 17.501s0.822 2.585 2 3.149v1.351c0 1.103 0.897 2 2 2s2-0.897 2-2v-1h5v1c0 1.103 0.897 2 2 2s2-0.897 2-2V20.65c0.348-0.167 0.669-0.382 0.942-0.649H17.5c2.481 0 4.5-2.019 4.5-4.5V5.949c1.14-0.232 2-1.242 2-2.449v-3C24 0.224 23.776 0 23.5 0zM1.644 13.785l0.879-2.461c0.497-1.39 1.821-2.323 3.296-2.323h5.362c1.475 0 2.8 0.934 3.296 2.323l0.879 2.462c0.142 0.399 0.253 0.805 0.348 1.215H1.296c0.095-0.41 0.206-0.816 0.348-1.216zM5 22c0 0.551-0.449 1-1 1s-1-0.449-1-1v-1.051C3.165 20.973 3.329 21 3.5 21H5zM14 22c0 0.551-0.449 1-1 1s-1-0.449-1-1v-1h1.5c0.171 0 0.335-0.027 0.5-0.051zM13.5 20h-10C2.122 20 1 18.878 1 17.5c0-0.504 0.044-1.004 0.112-1.5H4v1.5C4 17.776 4.224 18 4.5 18S5 17.776 5 17.5V16h7v1.5c0 0.276 0.224 0.5 0.5 0.5s0.5-0.224 0.5-0.5V16h2.888C15.956 16.496 16 16.996 16 17.5c0 1.378-1.122 2.5-2.5 2.5zM21.5 5C20.673 5 20 4.327 20 3.5V3h3v0.5C23 4.327 22.327 5 21.5 5z" />
</svg>