<svg id="electric_bike_Layer_1" viewBox="0 0 24 24" fill="currentColor" width="32" height="32" data-name="Layer 1" xmlns="http://www.w3.org/2000/svg" xmlns:xlink="http://www.w3.org/1999/xlink">
    <title>electric-bike</title>
    <path d="M6 12c3.309 0 6-2.691 6-6S9.309 0 6 0 0 2.691 0 6s2.691 6 6 6zM6 1c2.757 0 5 2.243 5 5s-2.243 5-5 5-5-2.243-5-5 2.243-5 5-5zM19.388 14.039C19.068 12.914 18 8.972 18 6.5 18 5.673 18.673 5 19.5 5S21 5.673 21 6.5C21 6.776 21.224 7 21.5 7S22 6.776 22 6.5C22 5.121 20.878 4 19.5 4S17 5.121 17 6.5c0 0.644 0.068 1.373 0.172 2.122l-6.04 4.698-0.805-0.697c-0.209-0.181-0.524-0.158-0.706 0.051-0.181 0.208-0.158 0.524 0.05 0.705l0.655 0.568-1.872 1.456c-0.899-0.863-2.113-1.401-3.455-1.401-2.757 0-5 2.243-5 5s2.243 5 5 5 5-2.243 5-5c0-1.055-0.333-2.031-0.893-2.839l8.243-6.412c0.315 1.754 0.763 3.454 1.004 4.316-2.45 0.32-4.355 2.399-4.355 4.935 0 2.757 2.243 5 5 5s5-2.243 5-5c0-2.624-2.039-4.759-4.61-4.963zM5 23c-2.206 0-4-1.794-4-4s1.794-4 4-4 4 1.794 4 4-1.794 4-4 4zM19 23c-2.206 0-4-1.794-4-4s1.794-4 4-4 4 1.794 4 4-1.794 4-4 4zM4.16 7.502h0.854c0 0-0.345 0.997-0.345 0.997-0.08 0.23-0.042 0.486 0.099 0.685C4.909 9.382 5.139 9.5 5.382 9.5c0.221 0 0.431-0.097 0.576-0.267l2.746-3.247c0.191-0.29 0.206-0.648 0.039-0.96C8.568 4.702 8.233 4.5 7.867 4.5H7.081l0.28-0.741C7.469 3.474 7.43 3.154 7.257 2.902 7.083 2.651 6.797 2.501 6.491 2.501H5.308c-0.49 0-0.923 0.312-1.077 0.775l-0.998 2.98C3.144 6.552 3.198 6.863 3.382 7.111 3.567 7.359 3.849 7.502 4.16 7.502zM5.18 3.593C5.198 3.537 5.25 3.5 5.308 3.5H6.39l-0.5 1.323C5.832 4.976 5.853 5.149 5.947 5.284S6.194 5.5 6.358 5.5H7.81L6.042 7.587 6.188 7.163C6.241 7.011 6.216 6.842 6.123 6.71 6.029 6.578 5.877 6.5 5.716 6.5h-1.53z" />
</svg>