<svg id="elephant_Layer_1" viewBox="0 0 24 24" fill="currentColor" width="32" height="32" data-name="Layer 1" xmlns="http://www.w3.org/2000/svg" xmlns:xlink="http://www.w3.org/1999/xlink">
    <title>elephant</title>
    <path d="M17 9c0 0.552-0.448 1-1 1s-1-0.448-1-1 0.448-1 1-1 1 0.448 1 1zM24 17.5v2.899c0 1.279-0.902 2.383-2.099 2.569-0.132 0.021-0.264 0.03-0.395 0.03-0.593 0-1.165-0.207-1.615-0.593-0.555-0.476-0.873-1.171-0.872-1.908v-2.499h-2.495c-0.275 0-0.5 0.224-0.5 0.5V20.5c0 1.377-1.121 2.498-2.498 2.498-0.668 0-1.296-0.26-1.768-0.733-0.473-0.473-0.731-1.102-0.73-1.77l4e-3-1.996c0-0.134-0.052-0.259-0.146-0.354s-0.22-0.147-0.354-0.147H5.508c-0.275 0-0.499 0.224-0.5 0.499l-4e-3 2.008c-2e-3 1.375-1.123 2.493-2.498 2.493C1.121 22.998 0 21.877 0 20.5V8.498C0 5.467 2.468 3 5.5 3h2.766c1.01-1.221 2.535-2 4.239-2 2.352 0 4.463 1.545 5.201 3.783 1.434 0.907 2.314 2.487 2.313 4.169v11.547c0 0.445 0.19 0.863 0.522 1.148 0.332 0.284 0.757 0.403 1.205 0.333 0.715-0.111 1.253-0.791 1.253-1.581V17.5c0-0.276 0.224-0.5 0.5-0.5s0.5 0.224 0.501 0.5zM19.02 17V9.002c0-1.464-0.741-2.738-1.985-3.458-0.111-0.064-0.193-0.169-0.229-0.293C16.25 3.336 14.482 2 12.506 2c-2.481 0-4.5 2.019-4.5 4.5s2.019 4.5 4.5 4.5c0.276 0 0.5 0.224 0.5 0.5s-0.224 0.5-0.5 0.5c-3.032 0-5.5-2.467-5.5-5.5 0-0.901 0.222-1.749 0.607-2.5H5.501c-2.481 0-4.5 2.019-4.5 4.5v12.002C1.001 21.328 1.673 22 2.499 22c0.832 0 1.505-0.671 1.506-1.495l4e-3-2.008c0-0.826 0.675-1.497 1.5-1.497h5.024c0.401 0 0.778 0.156 1.062 0.44 0.283 0.284 0.439 0.661 0.438 1.062l-4e-3 1.996c0 0.401 0.155 0.778 0.438 1.062 0.283 0.283 0.66 0.439 1.061 0.439 0.826 0 1.498-0.672 1.498-1.498v-2.002c0-0.827 0.673-1.5 1.5-1.5z" />
</svg>