<svg id="email_heart_Layer_1" viewBox="0 0 24 24" fill="currentColor" width="32" height="32" data-name="Layer 1" xmlns="http://www.w3.org/2000/svg" xmlns:xlink="http://www.w3.org/1999/xlink">
    <title>email-heart</title>
    <path d="M24 9.5v10c0 2.481-2.019 4.5-4.5 4.5h-15C2.019 24 0 21.981 0 19.5v-12C0 5.019 2.019 3 4.5 3h5C9.776 3 10 3.224 10 3.5S9.776 4 9.5 4h-5C2.889 4 1.542 5.101 1.137 6.586l8.388 8.389c1.365 1.366 3.585 1.364 4.95 0l2.382-2.353c0.197-0.195 0.513-0.191 0.708 4e-3 0.194 0.196 0.192 0.514-4e-3 0.707l-2.381 2.351c-0.875 0.876-2.027 1.314-3.179 1.314s-2.306-0.438-3.183-1.316L1 7.863V19.5C1 21.43 2.57 23 4.5 23h15c1.93 0 3.5-1.57 3.5-3.5v-10C23 9.224 23.224 9 23.5 9S24 9.224 24 9.5zM12 3.47C12 1.557 13.458 0 15.25 0c1.145 0 2.161 0.516 2.761 1.334C18.6 0.508 19.597 0 20.75 0 22.542 0 24 1.557 24 3.47c0 2.56-3.148 5.378-5.025 6.829-0.287 0.222-0.631 0.333-0.975 0.333s-0.688-0.111-0.975-0.333C15.148 8.848 12 6.029 12 3.47zM13 3.47c0 2.274 3.549 5.196 4.637 6.038 0.213 0.164 0.512 0.165 0.726 0C19.45 8.666 23 5.744 23 3.47 23 2.109 21.991 1 20.75 1c-1.116 0-2.019 0.656-2.246 1.632-0.105 0.453-0.868 0.453-0.974 0C17.306 1.671 16.368 1 15.25 1 14.009 1 13 2.108 13 3.47z" />
</svg>