<svg id="email_feedback_Layer_1" viewBox="0 0 24 24" fill="currentColor" width="32" height="32" data-name="Layer 1" xmlns="http://www.w3.org/2000/svg" xmlns:xlink="http://www.w3.org/1999/xlink">
    <title>email-feedback</title>
    <path d="M24 11.5v8c0 2.481-2.019 4.5-4.5 4.5h-15C2.019 24 0 21.981 0 19.5v-12C0 5.019 2.019 3 4.5 3h6C10.776 3 11 3.224 11 3.5S10.776 4 10.5 4h-6C2.889 4 1.542 5.101 1.137 6.586l8.388 8.389c1.365 1.366 3.585 1.364 4.95 0l2.867-2.83c0.196-0.194 0.513-0.192 0.707 4e-3s0.192 0.514-5e-3 0.707l-2.864 2.828c-0.875 0.876-2.027 1.314-3.179 1.314s-2.306-0.438-3.183-1.316L1 7.863V19.5C1 21.43 2.57 23 4.5 23h15c1.93 0 3.5-1.57 3.5-3.5v-8c0-0.276 0.224-0.5 0.5-0.5s0.5 0.224 0.5 0.5zM24 3.5v3c0 1.93-1.57 3.5-3.5 3.5h-3.372l-2.439 1.681c-0.34 0.218-0.778 0.231-1.13 0.039-0.348-0.189-0.556-0.543-0.556-0.945V3.501C13.002 1.57 14.572 0 16.502 0h4c1.93 0 3.5 1.571 3.498 3.5zM23 3.5c0-1.378-1.122-2.499-2.5-2.5h-3.999c-1.379 0-2.5 1.122-2.5 2.501v7.273c1e-3 0.076 0.047 0.125 0.121 0.082l2.568-1.769c0.083-0.057 0.183-0.088 0.284-0.088h3.527c1.378 0 2.5-1.121 2.5-2.5zM20.912 3.752h-1.448l-0.512-1.438C18.882 2.125 18.701 2 18.5 2s-0.382 0.125-0.452 0.314l-0.512 1.438h-1.448c-0.202 0-0.383 0.126-0.453 0.316s-0.014 0.403 0.141 0.534l1.147 0.933-0.454 1.364c-0.061 0.195 7e-3 0.408 0.171 0.531s0.388 0.129 0.558 0.015l1.306-0.874 1.329 0.865c0.172 0.111 0.395 0.103 0.558-0.022s0.228-0.339 0.164-0.534l-0.472-1.347 1.141-0.93c0.155-0.13 0.212-0.344 0.143-0.534-0.07-0.19-0.251-0.317-0.455-0.317z" />
</svg>