<svg id="email_star_Layer_1" viewBox="0 0 24 24" fill="currentColor" width="32" height="32" data-name="Layer 1" xmlns="http://www.w3.org/2000/svg" xmlns:xlink="http://www.w3.org/1999/xlink">
    <title>email-star</title>
    <path d="M24 13.5v6c0 2.481-2.019 4.5-4.5 4.5h-15C2.019 24 0 21.981 0 19.5v-12C0 5.019 2.019 3 4.5 3h5C9.776 3 10 3.224 10 3.5S9.776 4 9.5 4h-5C2.889 4 1.542 5.101 1.137 6.586l8.389 8.389c1.322 1.322 3.627 1.322 4.949 0l2.36-2.331c0.196-0.194 0.513-0.192 0.707 5e-3 0.194 0.196 0.192 0.513-4e-3 0.707l-2.358 2.329C14.332 16.533 13.202 17 12 17s-2.332-0.468-3.182-1.318L1 7.863V19.5C1 21.43 2.57 23 4.5 23h15c1.93 0 3.5-1.57 3.5-3.5v-6c0-0.276 0.224-0.5 0.5-0.5s0.5 0.224 0.5 0.5zM12.508 5.831c-0.459-0.389-0.625-1.02-0.42-1.575 0.202-0.555 0.737-0.928 1.329-0.928h2.398l0.854-2.399C16.877 0.371 17.41 0 17.999 0s1.122 0.371 1.328 0.922l0.856 2.406h2.398c0.593 0 1.128 0.375 1.331 0.931s0.035 1.187-0.418 1.569l-1.903 1.55 0.781 2.227c0.191 0.58 0 1.209-0.477 1.576-0.479 0.365-1.135 0.391-1.639 0.065l-2.248-1.464L15.8 11.26c-0.484 0.333-1.17 0.314-1.637-0.044-0.479-0.358-0.682-0.985-0.503-1.558l0.757-2.272zM13.146 5.062l2.172 1.767c0.161 0.131 0.225 0.348 0.159 0.545l-0.862 2.591c-0.051 0.161 9e-3 0.345 0.15 0.451 0.139 0.105 0.338 0.108 0.48 0.014l2.482-1.662c0.166-0.111 0.383-0.112 0.551-3e-3l2.524 1.644c0.148 0.096 0.342 0.088 0.484-0.02 0.139-0.107 0.195-0.292 0.14-0.46l-0.895-2.55c-0.07-0.199-8e-3-0.42 0.156-0.553l2.169-1.767c0.126-0.107 0.176-0.293 0.116-0.457s-0.217-0.274-0.392-0.274h-2.751c-0.212 0-0.4-0.133-0.471-0.332l-0.973-2.731c-0.117-0.312-0.658-0.318-0.779 7e-3l-0.971 2.725c-0.07 0.199-0.259 0.332-0.471 0.332h-2.751c-0.174 0-0.331 0.109-0.391 0.272-0.061 0.164-0.012 0.349 0.124 0.461z" />
</svg>