<svg id="email_refresh_Layer_1" viewBox="0 0 24 24" fill="currentColor" width="32" height="32" data-name="Layer 1" xmlns="http://www.w3.org/2000/svg" xmlns:xlink="http://www.w3.org/1999/xlink">
    <title>email-refresh</title>
    <path d="M24 11.5v8c0 2.481-2.019 4.5-4.5 4.5h-15C2.019 24 0 21.981 0 19.5v-12C0 5.019 2.019 3 4.5 3h6C10.776 3 11 3.224 11 3.5S10.776 4 10.5 4h-6C2.889 4 1.542 5.101 1.137 6.586l8.388 8.389c1.322 1.322 3.627 1.322 4.949 0l2.247-2.323c0.191-0.198 0.51-0.203 0.707-0.012 0.198 0.192 0.204 0.509 0.012 0.707l-2.253 2.329C14.332 16.532 13.202 17 12 17s-2.332-0.468-3.182-1.318L1 7.863V19.5C1 21.43 2.57 23 4.5 23h15c1.93 0 3.5-1.57 3.5-3.5v-8c0-0.276 0.224-0.5 0.5-0.5s0.5 0.224 0.5 0.5zM23.5 0C23.224 0 23 0.224 23 0.5v1.844C21.98 0.882 20.326 0 18.5 0 15.468 0 13 2.467 13 5.5s2.468 5.5 5.5 5.5c2.605 0 4.872-1.851 5.391-4.4 0.055-0.271-0.12-0.535-0.391-0.589-0.266-0.053-0.534 0.119-0.59 0.39-0.424 2.086-2.278 3.6-4.41 3.6-2.481 0-4.5-2.019-4.5-4.5s2.019-4.5 4.5-4.5c1.529 0 2.913 0.754 3.741 2H20.5c-0.276 0-0.5 0.224-0.5 0.5s0.224 0.5 0.5 0.5H23c0.552 0 1-0.449 1-1V0.5C24 0.224 23.776 0 23.5 0z" />
</svg>