<svg id="emergency_stop_Layer_1" viewBox="0 0 24 24" fill="currentColor" width="32" height="32" data-name="Layer 1" xmlns="http://www.w3.org/2000/svg" xmlns:xlink="http://www.w3.org/1999/xlink">
    <title>emergency-stop</title>
    <path d="M12 8c2.206 0 4-1.794 4-4s-1.794-4-4-4-4 1.794-4 4 1.794 4 4 4zM12 1c1.654 0 3 1.346 3 3s-1.346 3-3 3-3-1.346-3-3 1.346-3 3-3zM5.67 4.378 3.194 6.854c-0.195 0.195-0.512 0.195-0.707 0s-0.195-0.512 0-0.707l2.146-2.146H0.5c-0.276 0-0.5-0.224-0.5-0.5s0.224-0.5 0.5-0.5h4.134L2.488 0.854c-0.195-0.195-0.195-0.512 0-0.707s0.512-0.195 0.707 0l2.476 2.476c0.484 0.484 0.484 1.272-1e-3 1.755zM24 3.5C24 3.776 23.776 4 23.5 4h-4.133l2.146 2.146c0.195 0.195 0.195 0.512 0 0.707s-0.512 0.195-0.707 0L18.33 4.377c-0.234-0.234-0.364-0.546-0.364-0.878s0.13-0.644 0.364-0.878l2.476-2.475c0.195-0.195 0.512-0.195 0.707 0s0.195 0.512 0 0.707l-2.146 2.146h4.134c0.276 0 0.5 0.224 0.499 0.501zM23.024 23.5c0 0.276-0.224 0.5-0.5 0.5s-0.5-0.224-0.5-0.5c0-1.489-0.801-2.453-2.596-3.126l-5.565-1.9c-0.203-0.069-0.339-0.259-0.339-0.473v-5.394c0-0.789-0.535-1.471-1.245-1.586-0.449-0.072-0.885 0.046-1.227 0.336-0.336 0.286-0.529 0.703-0.529 1.143v7.424c0 0.42-0.235 0.795-0.614 0.978-0.378 0.183-0.818 0.132-1.146-0.128L7.075 19.43c-7e-3-6e-3-0.01-0.014-0.016-0.02-4e-3-4e-3-0.01-4e-3-0.015-8e-3-0.606-0.562-1.553-0.529-2.115 0.073-0.565 0.604-0.534 1.557 0.064 2.118l1.633 1.551C6.951 23.453 6.733 24 6.284 24c-0.127 0-0.249-0.048-0.341-0.135l-1.64-1.548c-1-0.937-1.048-2.518-0.106-3.524 0.928-0.994 2.482-1.054 3.49-0.15 3e-3 2e-3 7e-3 3e-3 0.01 5e-3l1.688 1.344 0.138-0.067v-7.424c0-0.734 0.321-1.429 0.881-1.905s1.305-0.677 2.035-0.562c1.188 0.194 2.084 1.3 2.084 2.573v5.037l5.241 1.789c2.197 0.824 3.259 2.152 3.26 4.067z" />
</svg>