<svg id="emergency_call_Layer_1" viewBox="0 0 24 24" fill="currentColor" width="32" height="32" data-name="Layer 1" xmlns="http://www.w3.org/2000/svg" xmlns:xlink="http://www.w3.org/1999/xlink">
    <title>emergency-call</title>
    <path d="M15.5 5.5C15.5 5.224 15.724 5 16 5h2V3c0-0.276 0.224-0.5 0.5-0.5S19 2.724 19 3v2h2c0.276 0 0.5 0.224 0.5 0.5S21.276 6 21 6h-2v2c0 0.276-0.224 0.5-0.5 0.5S18 8.276 18 8V6h-2c-0.276 0-0.5-0.224-0.5-0.5zM13 8.5v-3C13 2.467 15.467 0 18.5 0S24 2.467 24 5.5 21.533 11 18.5 11h-3c-0.865 0-2.5-0.522-2.5-2.5zM14 8.5c0 1.412 1.252 1.497 1.503 1.5H18.5c2.481 0 4.5-2.019 4.5-4.5S20.981 1 18.5 1 14 3.019 14 5.5zM23.139 17.298c0.557 0.551 0.837 1.227 0.837 1.945s-0.28 1.395-0.788 1.902l-0.977 1.125c-1.122 1.124-2.609 1.729-4.211 1.729C10.251 24-0.024 13.725-0.024 5.976c0-1.602 0.606-3.089 1.705-4.187l1.174-1.024c0.966-0.97 2.763-0.994 3.78 0.023l1.959 2.543c1.006 1 1.006 2.707-0.043 3.756L7.063 8.612c1.616 3.803 4.614 6.804 8.295 8.303l1.532-1.493c1.049-1.048 2.754-1.046 3.802 2e-3zM22.481 18.048l-2.446-1.873c-0.736-0.725-1.801-0.682-2.439-0.043-1e-3 2e-3-3e-3 3e-3-4e-3 5e-3l-1.766 1.722c-0.14 0.136-0.348 0.179-0.527 0.108-4.172-1.593-7.557-4.976-9.286-9.28-0.074-0.184-0.032-0.394 0.106-0.536l1.722-1.766c0.664-0.664 0.664-1.736 4e-3-2.396L5.886 1.446c-0.639-0.627-1.71-0.592-2.348 0.049L2.363 2.52C1.478 3.405 0.976 4.641 0.976 5.976 0.976 13.136 10.84 23 18 23c1.335 0 2.571-0.501 3.48-1.411l0.978-1.125c0.683-0.685 0.683-1.757 0.023-2.416z" />
</svg>