<svg id="employee_performance_Layer_1" viewBox="0 0 24 24" fill="currentColor" width="32" height="32" data-name="Layer 1" xmlns="http://www.w3.org/2000/svg" xmlns:xlink="http://www.w3.org/1999/xlink">
    <title>employee-performance</title>
    <path d="M8 13c2.757 0 5-2.243 5-5s-2.243-5-5-5-5 2.243-5 5 2.243 5 5 5zM8 4c2.206 0 4 1.794 4 4s-1.794 4-4 4-4-1.794-4-4 1.794-4 4-4zM23.757 16.071l-5.848-3.509c0.053-0.18 0.09-0.366 0.09-0.563 0-1.103-0.897-2-2-2s-2 0.897-2 2 0.897 2 2 2c0.546 0 1.04-0.221 1.401-0.576l5.841 3.505c0.233 0.141 0.543 0.067 0.686-0.171 0.142-0.237 0.065-0.544-0.17-0.686zM16 13c-0.551 0-1-0.449-1-1s0.449-1 1-1 1 0.449 1 1-0.449 1-1 1zM16 23v0.5c0 0.276-0.224 0.5-0.5 0.5S15 23.776 15 23.5V23c0-2.992-1.89-5.544-4.537-6.544l-1.417 2.125 1.433 4.775c0.079 0.264-0.071 0.543-0.335 0.623-0.258 0.079-0.544-0.068-0.623-0.335l-1.5-5c-0.042-0.143-0.02-0.297 0.063-0.421l1.378-2.067C8.99 16.055 8.502 16 8 16s-0.99 0.055-1.462 0.156l1.378 2.067c0.083 0.124 0.105 0.278 0.063 0.421l-1.5 5c-0.079 0.267-0.365 0.414-0.623 0.335-0.265-0.08-0.415-0.358-0.335-0.623l1.433-4.775-1.417-2.125C2.891 17.456 1 20.008 1 23v0.5C1 23.776 0.776 24 0.5 24S0 23.776 0 23.5V23c0-4.411 3.589-8 8-8s8 3.589 8 8zM22.356 19.359c-0.779 1.648-1.811 3.157-3.065 4.484-0.19 0.201-0.506 0.21-0.707 0.02-0.201-0.189-0.21-0.506-0.02-0.707 1.182-1.251 2.153-2.672 2.887-4.226 0.118-0.25 0.415-0.356 0.666-0.238 0.25 0.118 0.356 0.416 0.239 0.667zM22.461 7.835c-0.071-0.267 0.088-0.541 0.355-0.611 0.268-0.069 0.541 0.088 0.611 0.355 0.379 1.435 0.572 2.922 0.572 4.421 0 0.344-0.01 0.687-0.03 1.026-0.016 0.265-0.236 0.47-0.499 0.47-0.01 0-0.02 0-0.03 0-0.275-0.016-0.486-0.253-0.469-0.529 0.019-0.32 0.028-0.642 0.028-0.966 0-1.413-0.181-2.813-0.538-4.166zM18.565 0.843c-0.19-0.201-0.181-0.517 0.02-0.707 0.202-0.19 0.517-0.18 0.707 0.02 1.161 1.228 2.132 2.614 2.886 4.119 0.124 0.247 0.024 0.547-0.223 0.671-0.241 0.123-0.547 0.026-0.671-0.223-0.711-1.418-1.626-2.724-2.719-3.88z" />
</svg>