<svg id="employees_woman_man_Layer_1" viewBox="0 0 24 24" fill="currentColor" width="32" height="32" data-name="Layer 1" xmlns="http://www.w3.org/2000/svg" xmlns:xlink="http://www.w3.org/1999/xlink">
    <title>employees-woman-man</title>
    <path d="M9.803 15.484c0.215 0.173 0.25 0.487 0.078 0.703l-1.87 2.337c-0.485 0.606-1.498 0.605-1.982 0L4.146 16.17c-0.141-0.176-0.393-0.213-0.576-0.087C1.961 17.207 1.001 19.044 1.001 21v2.5c0 0.276-0.224 0.5-0.5 0.5S0 23.776 0 23.5V21c0-2.282 1.121-4.427 2.998-5.737 0.612-0.428 1.459-0.305 1.929 0.282l1.883 2.354c0.139 0.174 0.278 0.176 0.421 0L9.1 15.562c0.173-0.214 0.487-0.25 0.703-0.078zM21.034 15.284c-0.613-0.434-1.463-0.312-1.935 0.278l-1.869 2.337c-0.143 0.176-0.282 0.174-0.421 0l-1.883-2.354c-0.469-0.586-1.316-0.709-1.929-0.282C11.121 16.573 10 18.718 10 21v2.5c0 0.276 0.224 0.5 0.5 0.5s0.5-0.224 0.5-0.5V21c0-1.956 0.96-3.793 2.569-4.917 0.182-0.126 0.436-0.089 0.576 0.087l1.883 2.354c0.484 0.605 1.497 0.606 1.982 0l1.87-2.337c0.141-0.177 0.393-0.214 0.576-0.086 1.593 1.125 2.543 2.957 2.543 4.899v2.5c0 0.276 0.224 0.5 0.5 0.5s0.5-0.224 0.5-0.5V21c0-2.268-1.109-4.404-2.965-5.716zM0 14.5c0-0.039 0.014-0.113 0.014-0.113s1.995-8.588 2.061-8.865c0.732-3.063 2.803-5.068 5.502-5.443C7.879 0.032 8.185 0 8.5 0c1.661 0 3.143 0.594 4.313 1.71C13.895 0.654 15.372 0 17 0c3.309 0 6 2.691 6 6s-2.691 6-6 6-6-2.691-6-6c0-1.317 0.432-2.533 1.154-3.523-0.261-0.253-0.541-0.474-0.838-0.663-0.935 2.981-3.642 5.091-6.801 5.183H3.601C4.065 9.278 6.085 11 8.5 11c0.628 0 1.24-0.115 1.818-0.341 0.257-0.102 0.547 0.026 0.648 0.284s-0.027 0.547-0.284 0.648C9.986 11.862 9.252 12 8.499 12c-2.832 0-5.205-1.973-5.832-4.616-0.596 2.56-1.69 7.227-1.69 7.227C0.925 14.832 0.736 15 0.499 15 0.223 15-1e-3 14.776 0 14.5zM12 6c0 2.757 2.243 5 5 5s5-2.243 5-5-2.243-5-5-5-5 2.243-5 5zM3.5 5.999h0.999c2.773-0.083 5.157-1.978 5.916-4.64C9.819 1.131 9.18 1 8.5 1c-2.756 0-4.999 2.242-5 4.999z" />
</svg>