<svg id="employee_alt_Layer_1" viewBox="0 0 24 24" fill="currentColor" width="32" height="32" data-name="Layer 1" xmlns="http://www.w3.org/2000/svg" xmlns:xlink="http://www.w3.org/1999/xlink">
    <title>employee-alt</title>
    <path d="M21 14c0-1.103-0.897-2-2-2h-2c-1.103 0-2 0.897-2 2-1.654 0-3 1.346-3 3v4c0 1.654 1.346 3 3 3h6c1.654 0 3-1.346 3-3v-4c0-1.654-1.346-3-3-3zM17 13h2c0.551 0 1 0.449 1 1h-4c0-0.551 0.449-1 1-1zM15 15h6c1.103 0 2 0.897 2 2v1H13v-1c0-1.103 0.897-2 2-2zM21 23h-6c-1.103 0-2-0.897-2-2v-2h4.5v1.5c0 0.276 0.224 0.5 0.5 0.5s0.5-0.224 0.5-0.5V19H23v2c0 1.103-0.897 2-2 2zM0.995 15.001c0.036 8e-3 0.072 0.012 0.108 0.012 0.229 0 0.437-0.159 0.488-0.393 0.44-1.999 1.15-5.222 1.583-7.183C3.819 10.054 6.186 12 9 12c1.644 0 3.235-0.686 4.364-1.882 0.189-0.201 0.18-0.517-0.021-0.707-0.201-0.188-0.518-0.18-0.707 0.021C11.681 10.443 10.39 11 9 11 6.585 11 4.564 9.279 4.1 6.998h0.914c3.163-0.094 5.897-2.198 6.828-5.185 1.257 0.804 2.187 2.17 2.609 3.942 0.032 0.134 0.496 2.232 0.963 4.352 0.059 0.27 0.326 0.438 0.596 0.381 0.27-0.06 0.44-0.326 0.381-0.596-0.469-2.129-0.935-4.236-0.967-4.37C14.611 2.116 12.149 0 8.999 0S3.388 2.116 2.575 5.522C2.509 5.8 0.691 14.054 0.614 14.405c-0.06 0.27 0.111 0.536 0.381 0.596zM5 5.997H4C4 3.242 6.244 1 9 1c0.688 0 1.338 0.122 1.936 0.353C10.181 4.022 7.777 5.915 5 5.997zM10.996 14.66c-0.04 0.273-0.288 0.466-0.566 0.424C10.042 15.028 9.646 15 9.251 15c-4.549 0-8.25 3.701-8.25 8.25v0.25c0 0.276-0.224 0.5-0.5 0.5s-0.5-0.224-0.5-0.5v-0.25c0-5.101 4.149-9.25 9.25-9.25 0.442 0 0.887 0.032 1.321 0.094 0.273 0.04 0.463 0.293 0.424 0.566z" />
</svg>