<svg id="employee_man_Layer_1" viewBox="0 0 24 24" fill="currentColor" width="32" height="32" data-name="Layer 1" xmlns="http://www.w3.org/2000/svg" xmlns:xlink="http://www.w3.org/1999/xlink">
    <title>employee-man</title>
    <path d="M21 14c0-1.103-0.897-2-2-2h-2c-1.103 0-2 0.897-2 2-1.654 0-3 1.346-3 3v4c0 1.654 1.346 3 3 3h6c1.654 0 3-1.346 3-3v-4c0-1.654-1.346-3-3-3zM17 13h2c0.551 0 1 0.449 1 1h-4c0-0.551 0.449-1 1-1zM23 21c0 1.103-0.897 2-2 2h-6c-1.103 0-2-0.897-2-2v-2h4.5v1.5c0 0.276 0.224 0.5 0.5 0.5s0.5-0.224 0.5-0.5V19H23zM23 18H13v-1c0-1.103 0.897-2 2-2h6c1.103 0 2 0.897 2 2zM9 12c3.309 0 6-2.691 6-6s-2.691-6-6-6-6 2.691-6 6 2.691 6 6 6zM9 1c2.757 0 5 2.243 5 5s-2.243 5-5 5-5-2.243-5-5 2.243-5 5-5zM10.995 14.66c-0.039 0.273-0.287 0.466-0.566 0.424C10.041 15.028 9.645 15 9.25 15 4.701 15 1 18.701 1 23.25v0.25C1 23.776 0.776 24 0.5 24S0 23.776 0 23.5v-0.25C0 18.149 4.149 14 9.25 14c0.442 0 0.887 0.032 1.321 0.094 0.273 0.04 0.463 0.293 0.424 0.566z" />
</svg>