<svg id="empty_set_Layer_1" viewBox="0 0 24 24" fill="currentColor" width="32" height="32" data-name="Layer 1" xmlns="http://www.w3.org/2000/svg" xmlns:xlink="http://www.w3.org/1999/xlink">
    <title>empty-set</title>
    <path d="M23.854 0.146c-0.195-0.195-0.512-0.195-0.707 0l-3.742 3.742c-1.957-1.788-4.551-2.889-7.404-2.889C5.935 1 1 5.935 1 12c0 2.853 1.101 5.447 2.889 7.404l-3.743 3.742c-0.195 0.195-0.195 0.512 0 0.707 0.098 0.098 0.226 0.146 0.354 0.146s0.256-0.049 0.354-0.146l3.742-3.742C6.553 21.899 9.147 23 12 23c6.065 0 11-4.935 11-11 0-2.853-1.101-5.447-2.889-7.404l3.742-3.742c0.195-0.195 0.195-0.512 1e-3-0.708zM2 12C2 6.486 6.486 2 12 2c2.577 0 4.922 0.988 6.697 2.596L4.595 18.698C2.988 16.923 1.999 14.578 2 12zM22 12c0 5.514-4.486 10-10 10-2.577 0-4.922-0.989-6.697-2.596L19.405 5.302C21.012 7.077 22.001 9.422 22 12z" />
</svg>