<svg id="engine_Layer_1" viewBox="0 0 24 24" fill="currentColor" width="32" height="32" data-name="Layer 1" xmlns="http://www.w3.org/2000/svg" xmlns:xlink="http://www.w3.org/1999/xlink">
    <title>engine</title>
    <path d="M21.5 8H21V7.5C21 6.122 19.878 5 18.5 5H15V2h4.5C19.776 2 20 1.776 20 1.5S19.776 1 19.5 1h-10C9.224 1 9 1.224 9 1.5S9.224 2 9.5 2H14v3h-3.595C9.363 5 8.383 5.459 7.716 6.259L6.265 8H5.999c-1.103 0-2 0.897-2 2v3H1V8.5C1 8.224 0.776 8 0.5 8S0 8.224 0 8.5v10C0 18.776 0.224 19 0.5 19S1 18.776 1 18.5V14h3v3.257c0 0.935 0.364 1.814 1.025 2.475l1.242 1.242c0.661 0.661 1.54 1.025 2.475 1.025h10.257c1.103 0 2-0.897 2-2h0.5c1.378 0 2.5-1.122 2.5-2.5v-7c0-1.378-1.122-2.5-2.499-2.499zM23 17.5c0 0.827-0.673 1.5-1.5 1.5h-1c-0.276 0-0.5 0.224-0.5 0.5V20c0 0.551-0.449 1-1 1H8.743c-0.668 0-1.296-0.26-1.768-0.732l-1.242-1.242c-0.472-0.472-0.732-1.1-0.732-1.768v-7.257c0-0.551 0.449-1 1-1h0.5c0.148 0 0.289-0.066 0.384-0.18L8.486 6.9c0.476-0.571 1.176-0.899 1.92-0.899h8.095c0.827 0 1.5 0.673 1.5 1.5v1c0 0.276 0.224 0.5 0.5 0.5h1c0.827 0 1.5 0.673 1.5 1.5z" />
</svg>