<svg id="english_Layer_1" viewBox="0 0 24 24" fill="currentColor" width="32" height="32" data-name="Layer 1" xmlns="http://www.w3.org/2000/svg" xmlns:xlink="http://www.w3.org/1999/xlink">
    <title>english</title>
    <path d="M19.5 4h-0.551C18.697 1.756 16.81 0 14.5 0h-10C2.019 0 0 2.019 0 4.5v13.855c-0.041 1.276 1.522 2.113 2.562 1.371l3.526-2.351C6.497 19.438 8.318 21 10.5 21h6.849l4.089 2.726c1.04 0.742 2.604-0.095 2.562-1.371V8.5C24 6.019 21.981 4 19.5 4zM2.007 18.894C1.599 19.188 0.981 18.857 1 18.355V4.5C1 2.57 2.57 1 4.5 1h10C16.43 1 18 2.57 18 4.5v8c0 1.93-1.57 3.5-3.5 3.5h-8c-0.105-4e-3-0.189 0.05-0.277 0.084zM23 22.355c0.019 0.504-0.602 0.831-1.008 0.539l-4.215-2.81C17.695 20.029 17.598 20 17.5 20h-7c-1.758 0-3.204-1.308-3.449-3H14.5c2.481 0 4.5-2.019 4.5-4.5V5h0.5C21.43 5 23 6.57 23 8.5zM8 12H6c-0.551 0-1-0.449-1-1V6c0-0.551 0.449-1 1-1h2c0.276 0 0.5 0.224 0.5 0.5S8.276 6 8 6H6v2h2c0.276 0 0.5 0.224 0.5 0.5S8.276 9 8 9H6v2h2c0.276 0 0.5 0.224 0.5 0.5S8.276 12 8 12zM10 11.5V5.778c0-0.367 0.251-0.676 0.61-0.751 0.358-0.074 0.713 0.106 0.86 0.443l2.03 4.64V5.5C13.5 5.224 13.724 5 14 5s0.5 0.224 0.5 0.5v5.731c0 0.366-0.25 0.674-0.609 0.75-0.359 0.075-0.712-0.107-0.857-0.443l-2.033-4.647v4.61c0 0.276-0.224 0.5-0.5 0.5S10.001 11.777 10 11.5z" />
</svg>