<svg id="envelope_plus_Layer_1" viewBox="0 0 24 24" fill="currentColor" width="32" height="32" data-name="Layer 1" xmlns="http://www.w3.org/2000/svg" xmlns:xlink="http://www.w3.org/1999/xlink">
    <title>envelope-plus</title>
    <path d="M15 4.5C15 4.224 15.224 4 15.5 4H19V0.5C19 0.224 19.224 0 19.5 0S20 0.224 20 0.5V4h3.5C23.776 4 24 4.224 24 4.5S23.776 5 23.5 5H20v3.5C20 8.776 19.776 9 19.5 9S19 8.776 19 8.5V5h-3.5C15.224 5 15 4.776 15 4.5zM23.5 7C23.224 7 23 7.224 23 7.5v12c0 1.93-1.57 3.5-3.5 3.5h-15C2.57 23 1 21.43 1 19.5V7.863l7.818 7.819c0.877 0.877 2.03 1.316 3.183 1.316s2.303-0.438 3.179-1.313l3.877-3.829c0.196-0.194 0.198-0.511 4e-3-0.708-0.195-0.195-0.511-0.198-0.708-4e-3l-3.879 3.831c-1.365 1.364-3.586 1.364-4.95 0L1.125 6.574C1.532 5.092 2.891 4 4.5 4h8C12.776 4 13 3.776 13 3.5S12.776 3 12.5 3h-8C2.019 3 0 5.019 0 7.5v12C0 21.981 2.019 24 4.5 24h15c2.481 0 4.5-2.019 4.5-4.5v-12C24 7.224 23.776 7 23.5 7z" />
</svg>