<svg id="envelope_open_text_Layer_1" viewBox="0 0 24 24" fill="currentColor" width="32" height="32" data-name="Layer 1" xmlns="http://www.w3.org/2000/svg" xmlns:xlink="http://www.w3.org/1999/xlink">
    <title>envelope-open-text</title>
    <path d="M22.623 9.26 21 7.696V3.5C21 1.57 19.43 0 17.5 0h-11C4.57 0 3 1.57 3 3.5v4.196L1.376 9.261C0.501 10.105 0 11.285 0 12.501v7c0 2.481 2.019 4.5 4.5 4.5h15c2.481 0 4.5-2.019 4.5-4.5v-7c0-1.216-0.502-2.396-1.377-3.241zM21.93 9.98c0.092 0.089 0.179 0.182 0.26 0.28l-1.189 1.189V9.083zM4 3.5C4 2.122 5.122 1 6.5 1h11C18.879 1 20 2.122 20 3.5v8.95l-5.525 5.525c-1.321 1.322-3.627 1.323-4.95 0L4 12.45zM2.071 9.98 3 9.084v2.365L1.811 10.26c0.081-0.098 0.168-0.192 0.26-0.28zM23 19.5c0 1.93-1.57 3.5-3.5 3.5h-15C2.57 23 1 21.43 1 19.5v-7c0-0.469 0.096-0.932 0.277-1.36l7.541 7.542C9.668 19.532 10.798 20 12 20s2.332-0.468 3.182-1.318l7.542-7.542c0.18 0.427 0.277 0.89 0.277 1.36zM7 5.5C7 5.224 7.224 5 7.5 5h9C16.776 5 17 5.224 17 5.5S16.776 6 16.5 6h-9C7.224 6 7 5.776 7 5.5zM7 9.5C7 9.224 7.224 9 7.5 9h7C14.776 9 15 9.224 15 9.5S14.776 10 14.5 10h-7C7.224 10 7 9.776 7 9.5z" />
</svg>