<svg id="envelope_download_Layer_1" viewBox="0 0 24 24" fill="currentColor" width="32" height="32" data-name="Layer 1" xmlns="http://www.w3.org/2000/svg" xmlns:xlink="http://www.w3.org/1999/xlink">
    <title>envelope-download</title>
    <path d="M18.816 9.733C18.872 9.789 18.934 9.837 19 9.876V0.5C19 0.224 19.224 0 19.5 0S20 0.224 20 0.5v9.375c0.066-0.04 0.129-0.088 0.187-0.146l2.984-3.039c0.192-0.197 0.509-0.2 0.707-7e-3 0.196 0.194 0.199 0.51 6e-3 0.707l-2.987 3.042c-0.385 0.386-0.891 0.579-1.396 0.58 0 0 0 0 0 0v0c-0.505 0-1.009-0.192-1.393-0.576l-2.99-3.046c-0.193-0.197-0.19-0.513 6e-3-0.707 0.198-0.193 0.516-0.19 0.707 7e-3zM23.5 11c-0.276 0-0.5 0.224-0.5 0.5v8c0 1.93-1.57 3.5-3.5 3.5h-15C2.57 23 1 21.43 1 19.5V7.863l7.818 7.819C9.668 16.532 10.797 17 12 17s2.332-0.468 3.179-1.314l2.672-2.621c0.196-0.193 0.2-0.51 6e-3-0.707-0.191-0.196-0.508-0.2-0.707-7e-3l-2.675 2.625c-1.322 1.322-3.627 1.322-4.949 0L1.125 6.574C1.532 5.092 2.891 4 4.5 4h12C16.776 4 17 3.776 17 3.5S16.776 3 16.5 3h-12C2.019 3 0 5.019 0 7.5v12C0 21.981 2.019 24 4.5 24h15c2.481 0 4.5-2.019 4.5-4.5v-8c0-0.276-0.224-0.5-0.5-0.5z" />
</svg>