<svg id="envelope_bulk_Layer_1" viewBox="0 0 24 24" fill="currentColor" width="32" height="32" data-name="Layer 1" xmlns="http://www.w3.org/2000/svg" xmlns:xlink="http://www.w3.org/1999/xlink">
    <title>envelope-bulk</title>
    <path d="M20.5 6H19V3.5C19 1.57 17.43 0 15.5 0h-9C4.57 0 3 1.57 3 3.5v6c0 0.526 0.118 1.038 0.34 1.504C1.484 11.088 0 12.624 0 14.5v6C0 22.43 1.57 24 3.5 24h9c1.93 0 3.5-1.57 3.5-3.5V19h4.5c1.93 0 3.5-1.57 3.5-3.5v-6C24 7.57 22.43 6 20.5 6zM4 3.5C4 2.121 5.122 1 6.5 1h9C16.878 1 18 2.121 18 3.5V6h-6.5C9.57 6 8 7.57 8 9.5V11H4.501C4.177 10.569 4 10.044 4 9.5zM12.5 12c0.637 0 1.22 0.24 1.662 0.634l-0.015 0.013-4.797 4.797c-0.717 0.717-1.966 0.717-2.682 0l-4.807-4.805-0.014-0.013C2.288 12.237 2.866 12 3.499 12zM15 20.5c0 1.379-1.122 2.5-2.5 2.5h-9C2.122 23 1 21.879 1 20.5v-6c0-0.382 0.086-0.744 0.24-1.068l4.72 4.72c0.547 0.547 1.274 0.849 2.048 0.849s1.501-0.301 2.048-0.849l4.708-4.708c0.15 0.321 0.235 0.679 0.235 1.057zM23 15.5c0 1.379-1.122 2.5-2.5 2.5H16v-3.5c0-1.93-1.57-3.5-3.5-3.5H9V9.5C9 8.121 10.122 7 11.5 7h9C21.878 7 23 8.121 23 9.5zM21 10c0 0.552-0.448 1-1 1s-1-0.448-1-1 0.448-1 1-1 1 0.448 1 1z" />
</svg>