<svg id="envelope_open_Layer_1" viewBox="0 0 24 24" fill="currentColor" width="32" height="32" data-name="Layer 1" xmlns="http://www.w3.org/2000/svg" xmlns:xlink="http://www.w3.org/1999/xlink">
    <title>envelope-open</title>
    <path d="M22.613 8.367 15.311 1.372C14.427 0.488 13.251 0 12 0S9.573 0.487 8.697 1.364l-7.31 7.003C0.505 9.211 0 10.396 0 11.616V19.5C0 21.981 2.019 24 4.5 24h15c2.481 0 4.5-2.019 4.5-4.5v-7.884c0-1.22-0.505-2.405-1.387-3.249zM2.078 9.089l7.318-7.01C10.091 1.384 11.016 1 12 1s1.908 0.383 2.611 1.086l7.311 7.003c0.075 0.072 0.146 0.147 0.214 0.225l-7.661 7.661c-1.322 1.322-3.627 1.322-4.949 0L1.864 9.314c0.068-0.078 0.139-0.153 0.214-0.225zM23 19.5c0 1.93-1.57 3.5-3.5 3.5h-15C2.57 23 1 21.43 1 19.5v-7.884c0-0.499 0.109-0.991 0.312-1.441l7.507 7.507C9.669 18.532 10.798 19 12.001 19s2.332-0.468 3.182-1.318l7.507-7.507c0.203 0.45 0.312 0.941 0.312 1.441z" />
</svg>