<svg id="envelope_Layer_1" viewBox="0 0 24 24" fill="currentColor" width="32" height="32" data-name="Layer 1" xmlns="http://www.w3.org/2000/svg" xmlns:xlink="http://www.w3.org/1999/xlink">
    <title>envelope</title>
    <path d="M19.5 2h-15C2.019 2 0 4.019 0 6.5v11C0 19.981 2.019 22 4.5 22h15c2.481 0 4.5-2.019 4.5-4.5v-11C24 4.019 21.981 2 19.5 2zM4.5 3h15c1.084 0 2.043 0.506 2.686 1.283l-7.691 7.692C13.833 12.636 12.938 13 11.998 13c-0.914-0.017-1.826-0.36-2.492-1.025L1.814 4.283C2.457 3.506 3.415 3 4.5 3zM23 17.5c0 1.93-1.57 3.5-3.5 3.5h-15C2.57 21 1 19.43 1 17.5v-11c0-0.477 0.097-0.931 0.271-1.346l7.528 7.528C9.65 13.533 10.779 14 11.976 14s2.375-0.467 3.226-1.318l7.528-7.528c0.174 0.415 0.271 0.869 0.271 1.346z" />
</svg>