<svg id="envelope_open_dollar_Layer_1" viewBox="0 0 24 24" fill="currentColor" width="32" height="32" data-name="Layer 1" xmlns="http://www.w3.org/2000/svg" xmlns:xlink="http://www.w3.org/1999/xlink">
    <title>envelope-open-dollar</title>
    <path d="M22.624 9.26 21 7.695V3.5C21 1.57 19.43 0 17.5 0h-11C4.57 0 3 1.57 3 3.5v4.196L1.376 9.261C0.501 10.105 0 11.285 0 12.501v7c0 2.481 2.019 4.5 4.5 4.5h15c2.481 0 4.5-2.019 4.5-4.5v-7c0-1.215-0.502-2.396-1.376-3.241zM21.93 9.98c0.092 0.089 0.179 0.183 0.26 0.281l-1.189 1.189V9.085zM4 3.5C4 2.122 5.122 1 6.5 1h11C18.878 1 20 2.122 20 3.5v8.95l-5.525 5.525c-1.365 1.364-3.586 1.364-4.95 0L4 12.45zM2.071 9.98 3 9.084v2.365L1.811 10.26c0.081-0.098 0.168-0.192 0.26-0.28zM23 19.5c0 1.93-1.57 3.5-3.5 3.5h-15C2.57 23 1 21.43 1 19.5v-7c0-0.469 0.096-0.932 0.277-1.36l7.541 7.542c0.877 0.877 2.03 1.315 3.182 1.315s2.305-0.438 3.182-1.315l7.541-7.542C22.903 11.567 23 12.03 23 12.5zM8 6.626C8 5.178 9.178 4 10.626 4H11.5V2.5C11.5 2.224 11.724 2 12 2s0.5 0.224 0.5 0.5V4h0.926c0.978 0 1.891 0.527 2.381 1.375 0.139 0.239 0.057 0.545-0.182 0.683-0.241 0.139-0.545 0.057-0.683-0.182-0.312-0.54-0.894-0.875-1.516-0.875h-2.8C9.73 5.001 9 5.73 9 6.627 9 7.43 9.575 8.105 10.368 8.232l3.422 0.55c1.28 0.206 2.209 1.296 2.209 2.593 0 1.448-1.178 2.626-2.626 2.626h-0.874v1.5c0 0.276-0.224 0.5-0.5 0.5s-0.5-0.224-0.5-0.5v-1.5h-0.926c-0.979 0-1.891-0.526-2.381-1.374-0.139-0.239-0.057-0.545 0.182-0.683 0.239-0.14 0.544-0.057 0.683 0.182 0.312 0.54 0.894 0.875 1.516 0.875h2.8c0.896 0 1.626-0.729 1.626-1.626 0-0.803-0.575-1.478-1.368-1.605l-3.422-0.55C8.929 9.014 8 7.924 8 6.626z" />
</svg>