<svg id="envelopes_Layer_1" viewBox="0 0 24 24" fill="currentColor" width="32" height="32" data-name="Layer 1" xmlns="http://www.w3.org/2000/svg" xmlns:xlink="http://www.w3.org/1999/xlink">
    <title>envelopes</title>
    <path d="M19.5 2h-12C5.01 2 3 4.01 3 6.5v9C3 17.99 5.01 20 7.5 20h12c2.49 0 4.5-2.01 4.5-4.5v-9C24 4.01 21.99 2 19.5 2zM19.5 3c0.95 0 1.82 0.38 2.45 1l-5.97 5.97c-1.37 1.37-3.58 1.37-4.95 0L5.05 4c0.63-0.62 1.5-1 2.45-1zM23 15.5c0 1.93-1.57 3.5-3.5 3.5h-12C5.57 19 4 17.43 4 15.5v-9c0-0.62 0.16-1.19 0.44-1.7l5.88 5.88C11.2 11.56 12.35 12 13.5 12s2.3-0.44 3.18-1.32l5.88-5.88C22.84 5.3 23 5.88 23 6.5zM18 22.5c0 0.28-0.22 0.5-0.5 0.5h-13C2.02 23 0 20.98 0 18.5v-11C0 7.22 0.22 7 0.5 7S1 7.22 1 7.5v11C1 20.43 2.57 22 4.5 22h13c0.28 0 0.5 0.22 0.5 0.5z" />
</svg>