<svg id="envelope_ban_Layer_1" viewBox="0 0 24 24" fill="currentColor" width="32" height="32" data-name="Layer 1" xmlns="http://www.w3.org/2000/svg" xmlns:xlink="http://www.w3.org/1999/xlink">
    <title>envelope-ban</title>
    <path d="M19 9.998c1.28 0 2.561-0.488 3.536-1.462 1.95-1.95 1.95-5.122 0-7.071s-5.122-1.949-7.071 0-1.95 5.122 0 7.071C16.44 9.511 17.72 9.998 19 9.998zM21.829 7.829c-1.44 1.44-3.714 1.55-5.282 0.331l5.613-5.613c1.219 1.568 1.108 3.842-0.331 5.282zM16.172 2.172c0.78-0.78 1.804-1.17 2.829-1.17 0.867 0 1.734 0.28 2.453 0.838l-5.613 5.613c-1.219-1.568-1.108-3.842 0.331-5.281zM24.001 11.501v8c0 2.481-2.019 4.5-4.5 4.5H4.5c-2.481 0-4.5-2.019-4.5-4.5V7.5C0 5.019 2.019 3 4.5 3h7C11.776 3 12 3.224 12 3.5S11.776 4 11.5 4h-7C2.891 4 1.532 5.092 1.125 6.574l8.4 8.401c1.364 1.364 3.585 1.364 4.95 0l2.872-2.831c0.198-0.194 0.513-0.191 0.707 5e-3 0.194 0.197 0.192 0.513-5e-3 0.707l-2.87 2.829c-0.876 0.875-2.027 1.313-3.179 1.313s-2.306-0.438-3.183-1.316L1 7.863V19.5C1 21.43 2.57 23 4.5 23h15c1.93 0 3.5-1.57 3.5-3.5v-8c0-0.276 0.224-0.5 0.5-0.5s0.5 0.224 0.501 0.501z" />
</svg>