<svg id="envelope_marker_Layer_1" viewBox="0 0 24 24" fill="currentColor" width="32" height="32" data-name="Layer 1" xmlns="http://www.w3.org/2000/svg" xmlns:xlink="http://www.w3.org/1999/xlink">
    <title>envelope-marker</title>
    <path d="M22.5 0h-6C15.673 0 15 0.673 15 1.5v7.798c0 0.659 0.369 1.247 0.964 1.532 0.237 0.114 0.489 0.17 0.739 0.17 0.377 0 0.749-0.127 1.059-0.375L19.5 9.234l1.738 1.39c0.515 0.411 1.202 0.49 1.798 0.205C23.631 10.543 24 9.956 24 9.297V1.5C24 0.673 23.327 0 22.5 0zM23 9.298c0 0.275-0.148 0.511-0.396 0.631-0.25 0.12-0.525 0.087-0.74-0.084l-2.051-1.64c-0.184-0.146-0.441-0.146-0.625 0l-2.051 1.641c-0.216 0.172-0.492 0.203-0.74 0.084-0.248-0.12-0.396-0.355-0.396-0.631V1.5c0-0.276 0.225-0.5 0.5-0.5h6c0.275 0 0.5 0.224 0.5 0.5zM24 13.5v6c0 2.481-2.019 4.5-4.5 4.5h-15C2.019 24 0 21.981 0 19.5v-12C0 5.019 2.019 3 4.5 3h8C12.776 3 13 3.224 13 3.5S12.776 4 12.5 4h-8C2.891 4 1.532 5.092 1.125 6.574l8.4 8.401c1.323 1.323 3.628 1.322 4.95 0l2.175-2.134c0.199-0.193 0.514-0.189 0.708 7e-3 0.193 0.197 0.189 0.514-7e-3 0.707l-2.172 2.13c-0.847 0.847-1.977 1.314-3.179 1.314s-2.332-0.468-3.182-1.318L1 7.863V19.5C1 21.43 2.57 23 4.5 23h15c1.93 0 3.5-1.57 3.5-3.5v-6c0-0.276 0.224-0.5 0.5-0.5s0.5 0.224 0.5 0.5z" />
</svg>