<svg id="envelope_dot_Layer_1" viewBox="0 0 24 24" fill="currentColor" width="32" height="32" data-name="Layer 1" xmlns="http://www.w3.org/2000/svg" xmlns:xlink="http://www.w3.org/1999/xlink">
    <title>envelope-dot</title>
    <path d="M24 9.5v10c0 2.48-2.02 4.5-4.5 4.5h-15C2.02 24 0 21.98 0 19.5v-12C0 5.02 2.02 3 4.5 3h9C13.78 3 14 3.22 14 3.5S13.78 4 13.5 4h-9C2.89 4 1.53 5.09 1.12 6.57l8.4 8.4c1.36 1.37 3.58 1.36 4.95 0l4.67-4.82c0.19-0.2 0.51-0.2 0.71-0.01s0.2 0.51 0.01 0.71l-4.67 4.83C14.31 16.56 13.15 17 12 17s-2.3-0.44-3.18-1.32L1 7.86V19.5C1 21.43 2.57 23 4.5 23h15c1.93 0 3.5-1.57 3.5-3.5v-10C23 9.22 23.22 9 23.5 9S24 9.22 24 9.5zM16 4c0-2.21 1.79-4 4-4s4 1.79 4 4-1.79 4-4 4-4-1.79-4-4zM17 4c0 1.65 1.35 3 3 3s3-1.35 3-3-1.35-3-3-3-3 1.35-3 3z" />
</svg>