<svg id="envelope_heart_Layer_1" viewBox="0 0 24 24" fill="currentColor" width="32" height="32" data-name="Layer 1" xmlns="http://www.w3.org/2000/svg" xmlns:xlink="http://www.w3.org/1999/xlink">
    <title>envelope-heart</title>
    <path d="M24 8.5v11c0 2.481-2.019 4.5-4.5 4.5h-15C2.019 24 0 21.981 0 19.5v-12C0 5.019 2.019 3 4.5 3h7C11.776 3 12 3.224 12 3.5S11.776 4 11.5 4h-7C2.889 4 1.542 5.101 1.137 6.586l8.388 8.389c1.323 1.322 3.628 1.322 4.95 0l3.698-3.822c0.191-0.198 0.51-0.203 0.707-0.012 0.198 0.192 0.204 0.509 0.012 0.707l-3.704 3.828C14.333 16.532 13.203 17 12 17s-2.332-0.468-3.182-1.318L1 7.863V19.5C1 21.43 2.57 23 4.5 23h15c1.93 0 3.5-1.57 3.5-3.5v-11C23 8.224 23.224 8 23.5 8S24 8.224 24 8.5zM14 2.975C14 1.334 15.233 0 16.75 0 17.656 0 18.493 0.446 19 1.103 19.507 0.447 20.344 0 21.25 0 22.767 0 24 1.334 24 2.975c0 1.97-2.175 4.429-3.546 5.517-0.428 0.34-0.941 0.509-1.454 0.509s-1.026-0.169-1.454-0.509C16.175 7.404 14 4.945 14 2.975zM15 2.975c0 1.515 1.89 3.72 3.167 4.733 0.49 0.389 1.176 0.389 1.666 0C21.11 6.694 23 4.489 23 2.975 23 1.886 22.215 1 21.25 1 20.265 1 19.5 1.807 19.5 2.5 19.5 2.776 19.276 3 19 3s-0.5-0.224-0.5-0.5c0-0.693-0.765-1.5-1.75-1.5C15.785 1 15 1.886 15 2.975z" />
</svg>