<svg id="equality_Layer_1" viewBox="0 0 24 24" fill="currentColor" width="32" height="32" data-name="Layer 1" xmlns="http://www.w3.org/2000/svg" xmlns:xlink="http://www.w3.org/1999/xlink">
    <title>equality</title>
    <path d="M23.964 12.314l-3e-3-6e-3-2e-3-5e-3-3.493-8.732c-0.382-0.955-1.293-1.572-2.321-1.572h-5.646V0.5c0-0.276-0.224-0.5-0.5-0.5s-0.5 0.224-0.5 0.5V2H5.854C4.826 2 3.915 2.617 3.533 3.572l-3.492 8.731-2e-3 5e-3-3e-3 6e-3C0.012 12.373 0 13.415 0 13.415c0 2.197 1.457 4.041 3.543 4.484C3.857 17.966 4.177 18 4.493 18h8e-3C6.981 17.996 9 15.977 9 13.5c0 0-0.012-1.126-0.036-1.186l-3e-3-6e-3-2e-3-5e-3-3.676-9.191C5.46 3.039 5.653 3 5.854 3H11.5v20h-7C4.224 23 4 23.224 4 23.5S4.224 24 4.5 24h15c0.276 0 0.5-0.224 0.5-0.5S19.776 23 19.5 23h-7V3h5.646c0.201 0 0.395 0.039 0.571 0.112l-3.676 9.191-2e-3 5e-3-3e-3 6e-3C15.012 12.373 15 13.5 15 13.5c0 2.477 2.019 4.496 4.499 4.5h8e-3c0.316 0 0.636-0.034 0.949-0.101C22.543 17.455 24 15.611 24 13.415c0 0-0.012-1.042-0.036-1.101zM4.499 17c-0.283 0.016-0.5-0.026-0.748-0.079C2.132 16.577 1 15.135 1 13.415V13h7v0.5c0 1.926-1.57 3.497-3.501 3.5zM7.762 12H1.238c0 0 3.249-8.119 3.264-8.149zM19.498 3.851C19.513 3.881 22.761 12 22.761 12h-6.523zM20.248 16.921c-0.247 0.053-0.466 0.097-0.747 0.079C17.57 16.997 16 15.426 16 13.5V13h7v0.415c0 1.72-1.132 3.162-2.752 3.506z" />
</svg>