<svg id="eraser_Layer_1" viewBox="0 0 24 24" fill="currentColor" width="32" height="32" data-name="Layer 1" xmlns="http://www.w3.org/2000/svg" xmlns:xlink="http://www.w3.org/1999/xlink">
    <title>eraser</title>
    <path d="M23.5 22H13.158l3.523-3.552c5e-3-5e-3 0.011-9e-3 0.016-0.014 7e-3-7e-3 0.013-0.014 0.019-0.021l5.919-5.967c1.814-1.83 1.813-4.806-2e-3-6.635l-3.401-3.428C18.347 1.491 17.17 1 15.916 1v0c-1.254 0-2.432 0.492-3.314 1.382L1.365 13.623c-1.814 1.829-1.814 4.805 0 6.634l1.655 1.669C3.698 22.609 4.636 23 5.597 23h17.902c0.276 0 0.5-0.224 0.5-0.5S23.775 22 23.5 22zM13.309 3.087C14.005 2.386 14.93 2 15.915 2v0c0.985 0 1.911 0.386 2.607 1.087l3.401 3.428c1.43 1.44 1.43 3.785 0 5.227l-5.581 5.627-8.621-8.691zM11.75 22H5.598c-0.695 0-1.376-0.284-1.867-0.778l-1.656-1.669c-1.429-1.441-1.429-3.785 0-5.224l4.941-4.944 8.626 8.693z" />
</svg>