<svg id="error_bug_Layer_1" viewBox="0 0 24 24" fill="currentColor" width="32" height="32" data-name="Layer 1" xmlns="http://www.w3.org/2000/svg" xmlns:xlink="http://www.w3.org/1999/xlink">
    <title>error-bug</title>
    <path d="M20.5 7C22.43 7 24 5.43 24 3.5v-3C24 0.224 23.776 0 23.5 0S23 0.224 23 0.5v3C23 4.878 21.879 6 20.5 6h-2.539l-0.225-0.906c-0.884-2.445-3.189-4.09-5.738-4.093-2.548 3e-3-4.853 1.648-5.751 4.143L6.035 6H3.5C2.122 6 1 4.878 1 3.5v-3C1 0.224 0.776 0 0.5 0S0 0.224 0 0.5v3C0 5.43 1.57 7 3.5 7h2.288l-0.991 4H0.5C0.224 11 0 11.224 0 11.5S0.224 12 0.5 12h4.049l-0.45 1.814c-0.082 0.411-0.095 0.815-0.1 1.17 0 0.7 0.096 1.372 0.258 2.016H3.5C1.57 17 0 18.57 0 20.5v3C0 23.776 0.224 24 0.5 24S1 23.776 1 23.5v-3C1 19.122 2.122 18 3.5 18h1.075c1.17 2.954 4.015 4.996 7.426 5 3.408-4e-3 6.252-2.045 7.422-5H20.5c1.379 0 2.5 1.122 2.5 2.5v3c0 0.276 0.224 0.5 0.5 0.5s0.5-0.224 0.5-0.5v-3c0-1.93-1.57-3.5-3.5-3.5h-0.76c0.162-0.645 0.258-1.32 0.259-2.023-6e-3-0.428-0.024-0.79-0.1-1.164 0-7e-3-3e-3-0.015-5e-3-0.022l-0.445-1.792h4.05c0.276 0 0.5-0.224 0.5-0.5s-0.224-0.5-0.5-0.5h-4.298l-0.992-4zM12 22c-3.921-4e-3-6.997-3.086-7.001-7.008 6e-3-0.375 0.022-0.687 0.076-0.96l2.128-8.598c0.741-2.051 2.668-3.431 4.795-3.433 2.128 2e-3 4.056 1.382 4.782 3.383l2.141 8.637c0.058 0.295 0.073 0.602 0.078 0.963C18.994 18.914 15.92 21.996 12 22zM17.369 13.698c0.28 0.479 0.282 1.052 6e-3 1.534-0.276 0.481-0.773 0.769-1.328 0.769H14.5c-0.276 0-0.5-0.224-0.5-0.5s0.224-0.5 0.5-0.5h1.547c0.278 0 0.415-0.187 0.461-0.267s0.138-0.292-2e-3-0.532l-4.047-6.938C12.32 7.026 12.092 7 12.001 7s-0.32 0.026-0.459 0.264l-4.047 6.938c-0.14 0.24-0.048 0.452-2e-3 0.532s0.183 0.267 0.46 0.267H9.5c0.276 0 0.5 0.224 0.5 0.5s-0.224 0.5-0.5 0.5H7.953c-0.555 0-1.051-0.287-1.328-0.769-0.276-0.481-0.274-1.054 5e-3-1.534l4.047-6.938C10.955 6.284 11.449 6 12 6s1.045 0.284 1.322 0.76zM12 13c-0.276 0-0.5-0.224-0.5-0.5v-3C11.5 9.224 11.724 9 12 9s0.5 0.224 0.5 0.5v3c0 0.276-0.224 0.5-0.5 0.5zM13 15c0 0.552-0.448 1-1 1s-1-0.448-1-1 0.448-1 1-1 1 0.448 1 1z" />
</svg>