<svg id="escalator_Layer_1" viewBox="0 0 24 24" fill="currentColor" width="32" height="32" data-name="Layer 1" xmlns="http://www.w3.org/2000/svg" xmlns:xlink="http://www.w3.org/1999/xlink">
    <title>escalator</title>
    <path d="M8.5 5C9.879 5 11 3.878 11 2.5S9.879 0 8.5 0 6 1.122 6 2.5 7.121 5 8.5 5zM8.5 1C9.327 1 10 1.673 10 2.5S9.327 4 8.5 4 7 3.327 7 2.5 7.673 1 8.5 1zM20 4.999h-1.17c-1.3 0-2.562 0.462-3.553 1.301l-3.301 2.794C11.774 7.355 10.292 6.001 8.5 6.001c-1.93 0-3.5 1.57-3.5 3.5v5.497l-1.189 1.007C1.692 16.102 0 17.857 0 20.001 0 22.206 1.796 24 4 24h1.17c1.299 0 2.561-0.462 3.553-1.301l11.468-9.703c2.118-0.099 3.812-1.854 3.812-3.997 0-2.205-1.796-4-4.003-4zM6 9.5C6 8.122 7.121 7 8.5 7S11 8.122 11 9.5v0.419L6 14.15zM20 12c-0.118 0-0.232 0.042-0.323 0.118L8.075 21.935C7.263 22.622 6.231 23 5.169 23h-1.17c-1.653 0-2.999-1.346-3-3.001 0-1.654 1.346-3 3-3 0.118 0 0.232-0.042 0.323-0.118l11.602-9.818c0.811-0.687 1.843-1.064 2.906-1.064H20c1.654 0 3 1.346 3.001 3.001 0 1.654-1.347 3-3.001 3z" />
</svg>