<svg id="ethernet_Layer_1" viewBox="0 0 24 24" fill="currentColor" width="32" height="32" data-name="Layer 1" xmlns="http://www.w3.org/2000/svg" xmlns:xlink="http://www.w3.org/1999/xlink">
    <title>ethernet</title>
    <path d="M21.5 8H21V7.5C21 6.122 19.879 5 18.5 5H18V4.5C18 3.122 16.879 2 15.5 2h-7C7.122 2 6 3.122 6 4.5V5H5.5C4.122 5 3 6.122 3 7.5V8H2.5C1.122 8 0 9.122 0 10.5v7C0 19.981 2.019 22 4.5 22h15c2.481 0 4.5-2.019 4.5-4.5v-7C24 9.122 22.879 8 21.5 8zM23 17.5c0 1.758-1.308 3.204-3 3.449V17.5c0-0.276-0.224-0.5-0.5-0.5S19 17.224 19 17.5V21h-2v-3.5c0-0.276-0.224-0.5-0.5-0.5S16 17.224 16 17.5V21h-2v-3.5c0-0.276-0.224-0.5-0.5-0.5S13 17.224 13 17.5V21h-2v-3.5c0-0.276-0.224-0.5-0.5-0.5S10 17.224 10 17.5V21H8v-3.5C8 17.224 7.776 17 7.5 17S7 17.224 7 17.5V21H5v-3.5C5 17.224 4.776 17 4.5 17S4 17.224 4 17.5v3.449c-1.692-0.245-3-1.691-3-3.449v-7C1 9.673 1.673 9 2.5 9h1C3.776 9 4 8.776 4 8.5v-1C4 6.673 4.673 6 5.5 6h1C6.776 6 7 5.776 7 5.5v-1C7 3.673 7.673 3 8.5 3h7C16.327 3 17 3.673 17 4.5v1C17 5.776 17.224 6 17.5 6h1C19.327 6 20 6.673 20 7.5v1C20 8.776 20.224 9 20.5 9h1c0.827 0 1.5 0.673 1.5 1.5z" />
</svg>