<svg id="europe_flag_Layer_1" viewBox="0 0 24 24" fill="currentColor" width="32" height="32" data-name="Layer 1" xmlns="http://www.w3.org/2000/svg" xmlns:xlink="http://www.w3.org/1999/xlink">
    <title>europe-flag</title>
    <path d="M23.021 1.516c-0.614-0.473-1.396-0.631-2.141-0.433C19.705 1.401 18.142 1.995 16.999 2 13.986 1.973 10.046-0.011 7 0 5.032 0 2.896 0.795 1.45 1.461 0.569 1.868 0 2.758 0 3.731V23.5C0 23.776 0.224 24 0.5 24S1 23.776 1 23.5v-5.259C1.785 17.727 4.604 16 7.002 16c3.015 0.027 6.951 2.01 9.998 2 1.888 0 4.148-0.467 5.376-1.109C23.393 16.358 24 15.459 24 14.488V3.504c0-0.785-0.356-1.51-0.979-1.988zM23 14.487c0 0.593-0.407 1.16-1.089 1.517C20.828 16.572 18.717 17 17 17c-3.014-0.027-6.952-2.01-9.998-2C4.726 15 2.238 16.308 1 17.058V3.731c0-0.583 0.341-1.118 0.869-1.362 1.109-0.512 3.25-1.37 5.131-1.37 3.015 0.027 6.953 2.011 10 2 1.004 0 2.258-0.384 3.266-0.693 0.322-0.099 0.618-0.189 0.871-0.256 0.446-0.118 0.909-0.024 1.275 0.258C22.785 2.596 23 3.031 23 3.503zM13 5c0 0.552-0.448 1-1 1s-1-0.448-1-1 0.448-1 1-1 1 0.448 1 1zM13 13c0 0.552-0.448 1-1 1s-1-0.448-1-1 0.448-1 1-1 1 0.448 1 1zM8 10c-0.552 0-1-0.448-1-1s0.448-1 1-1 1 0.448 1 1-0.448 1-1 1zM17 9c0 0.552-0.448 1-1 1s-1-0.448-1-1 0.448-1 1-1 1 0.448 1 1zM9.879 5.464c0.391 0.391 0.391 1.024 0 1.414-0.391 0.391-1.024 0.391-1.414 0-0.391-0.391-0.391-1.024 0-1.414 0.391-0.391 1.024-0.391 1.414 0zM15.536 11.121c0.391 0.391 0.391 1.024 0 1.414-0.391 0.391-1.024 0.391-1.414 0-0.391-0.391-0.391-1.024 0-1.414s1.024-0.391 1.414 0zM14.122 6.878c-0.391-0.391-0.391-1.024 0-1.414 0.391-0.391 1.024-0.391 1.414 0 0.391 0.391 0.391 1.024 0 1.414-0.391 0.391-1.024 0.391-1.414 0zM9.879 11.121c0.391 0.391 0.391 1.024 0 1.414-0.391 0.391-1.024 0.391-1.414 0-0.391-0.391-0.391-1.024 0-1.414s1.024-0.391 1.414 0z" />
</svg>