<svg id="euro_Layer_1" viewBox="0 0 24 24" fill="currentColor" width="32" height="32" data-name="Layer 1" xmlns="http://www.w3.org/2000/svg" xmlns:xlink="http://www.w3.org/1999/xlink">
    <title>euro</title>
    <path d="M23.19 18.933c-0.214-0.176-0.529-0.145-0.704 0.067-2.1 2.542-5.193 4-8.486 4-5.026 0-9.275-3.388-10.584-8H14.5c0.276 0 0.5-0.224 0.5-0.5S14.776 14 14.5 14H3.183C3.063 13.351 3 12.683 3 12s0.063-1.351 0.183-2H14.5c0.276 0 0.5-0.224 0.5-0.5S14.776 9 14.5 9H3.416C4.725 4.388 8.974 1 14 1c3.293 0 6.386 1.458 8.486 4 0.176 0.213 0.49 0.243 0.704 0.067 0.213-0.176 0.243-0.491 0.067-0.704C20.967 1.59 17.593 0 14 0 8.419 0 3.715 3.83 2.38 9H0.5C0.224 9 0 9.224 0 9.5S0.224 10 0.5 10h1.668C2.058 10.651 2 11.319 2 12s0.058 1.349 0.168 2H0.5C0.224 14 0 14.224 0 14.5S0.224 15 0.5 15h1.88c1.336 5.17 6.039 9 11.62 9 3.593 0 6.967-1.59 9.257-4.363 0.176-0.213 0.146-0.528-0.067-0.704z" />
</svg>