<svg id="evidence_Layer_1" viewBox="0 0 24 24" fill="currentColor" width="32" height="32" data-name="Layer 1" xmlns="http://www.w3.org/2000/svg" xmlns:xlink="http://www.w3.org/1999/xlink">
    <title>evidence</title>
    <path d="M12 4.5c-0.913 0-2 0.521-2 3 0 0.854 0.277 1.573 0.544 2.269C10.778 10.377 11 10.952 11 11.555v1.121c0 1.006 0.785 1.824 1.75 1.824s1.75-0.818 1.75-1.824v-1.121c0-0.689 0.131-1.165 0.259-1.624C14.878 9.503 15 9.06 15 8.5c0-3.888-2.693-4-3-4zM13.5 12.676c0 0.455-0.336 0.824-0.75 0.824S12 13.13 12 12.676V11.5h1.5zM13.795 9.664c-0.07 0.253-0.144 0.524-0.201 0.836h-1.745c-0.1-0.377-0.235-0.738-0.371-1.091C11.232 8.771 11 8.168 11 7.5c0-2 0.727-2 1-2 0.469 0 2 0.216 2 3 0 0.424-0.095 0.767-0.205 1.164zM7 4.5c-0.307 0-3 0.112-3 4 0 0.56 0.123 1.003 0.241 1.431C4.368 10.39 4.5 10.866 4.5 11.555v1.121c0 1.006 0.785 1.824 1.75 1.824S8 13.682 8 12.676v-1.121c0-0.603 0.221-1.178 0.456-1.786C8.724 9.074 9 8.354 9 7.5c0-2.479-1.087-3-2-3zM7 12.676C7 13.131 6.664 13.5 6.25 13.5S5.5 13.13 5.5 12.676V11.5H7zM7.522 9.409C7.386 9.762 7.251 10.123 7.151 10.5H5.406c-0.057-0.312-0.131-0.583-0.201-0.836C5.095 9.267 5 8.924 5 8.5c0-2.784 1.531-3 2-3 0.273 0 1 0 1 2 0 0.668-0.232 1.271-0.478 1.909zM23.854 23.146l-7.302-7.302c1.517-1.684 2.449-3.904 2.449-6.344C19 4.262 14.738 0 9.5 0S0 4.262 0 9.5 4.262 19 9.5 19c2.44 0 4.66-0.932 6.344-2.449l7.302 7.302c0.195 0.195 0.512 0.195 0.707 0s0.195-0.512 1e-3-0.707zM9.5 18C4.813 18 1 14.187 1 9.5S4.813 1 9.5 1 18 4.813 18 9.5 14.187 18 9.5 18z" />
</svg>