<svg id="exam_xmark_Layer_1" viewBox="0 0 24 24" fill="currentColor" width="32" height="32" data-name="Layer 1" xmlns="http://www.w3.org/2000/svg" xmlns:xlink="http://www.w3.org/1999/xlink">
    <title>exam-xmark</title>
    <path d="M19.5 0h-15C3.121 0 2 1.122 2 2.5V24h20V2.5C22 1.122 20.879 0 19.5 0zM21 23H3V2.5C3 1.673 3.673 1 4.5 1h15C20.327 1 21 1.673 21 2.5zM18.354 14.854l-2.389 2.389 2.389 2.389-0.707 0.707-2.389-2.389-2.389 2.389-0.707-0.707 2.389-2.389-2.389-2.389 0.707-0.707 2.389 2.389 2.389-2.389zM18 10H6V9h12zM18 6H6V5h12zM6 13h5.384l-1 1H6z" />
</svg>