<svg id="exam_d_Layer_1" viewBox="0 0 24 24" fill="currentColor" width="32" height="32" data-name="Layer 1" xmlns="http://www.w3.org/2000/svg" xmlns:xlink="http://www.w3.org/1999/xlink">
    <title>exam-d</title>
    <path d="M8.5 12H6v8h2.5c1.378 0 2.5-1.122 2.5-2.5v-3c0-1.378-1.122-2.5-2.5-2.5zM10 17.5c0 0.827-0.673 1.5-1.5 1.5H7v-6h1.5c0.827 0 1.5 0.673 1.5 1.5zM14.707 0H4.5C3.122 0 2 1.122 2 2.5V24h20V7.293zM15 1.707 20.293 7H15zM3 23V2.5C3 1.673 3.673 1 4.5 1H14v7h7v15zM16 15h2v1h-2v2h-1v-2h-2v-1h2v-2h1z" />
</svg>