<svg id="exchange_Layer_1" viewBox="0 0 24 24" fill="currentColor" width="32" height="32" data-name="Layer 1" xmlns="http://www.w3.org/2000/svg" xmlns:xlink="http://www.w3.org/1999/xlink">
    <title>exchange</title>
    <path d="M0.5 8h22.359c-0.04 0.075-0.073 0.154-0.132 0.22-0.21 0.237-0.416 0.463-0.565 0.613l-2.244 2.283c-0.194 0.197-0.191 0.514 6e-3 0.707 0.098 0.096 0.224 0.144 0.351 0.144 0.129 0 0.259-0.05 0.356-0.149l2.242-2.281c0.158-0.158 0.378-0.399 0.604-0.653 0.699-0.788 0.699-1.978 0-2.765-0.226-0.255-0.446-0.496-0.602-0.652l-2.244-2.283c-0.194-0.197-0.51-0.199-0.707-6e-3s-0.2 0.51-6e-3 0.707l2.247 2.285c0.147 0.148 0.353 0.374 0.563 0.612 0.058 0.066 0.092 0.144 0.132 0.219H0.5c-0.276 0-0.5 0.224-0.5 0.5S0.224 8.001 0.5 8z" />
    <path d="M23.5 16H1.142c0.04-0.075 0.074-0.153 0.132-0.22 0.209-0.238 0.416-0.463 0.564-0.613l2.245-2.283c0.194-0.197 0.191-0.514-6e-3-0.707-0.199-0.194-0.514-0.192-0.707 6e-3l-2.243 2.281c-0.158 0.158-0.378 0.4-0.603 0.653-0.7 0.788-0.7 1.978 0 2.765 0.225 0.254 0.446 0.496 0.602 0.652l2.245 2.283c0.098 0.1 0.227 0.149 0.356 0.149 0.126 0 0.253-0.048 0.351-0.144 0.197-0.193 0.2-0.51 6e-3-0.707L1.837 17.83c-0.147-0.148-0.353-0.373-0.563-0.612-0.059-0.066-0.092-0.144-0.132-0.219H23.5c0.276 0 0.5-0.224 0.5-0.5s-0.224-0.5-0.5-0.499z" />
</svg>