<svg id="exchange_alt_Layer_1" viewBox="0 0 24 24" fill="currentColor" width="32" height="32" data-name="Layer 1" xmlns="http://www.w3.org/2000/svg" xmlns:xlink="http://www.w3.org/1999/xlink">
    <title>exchange-alt</title>
    <path d="M0.5 8H17v3.718c0 0.524 0.303 0.977 0.79 1.181C17.953 12.966 18.124 13 18.294 13c0.333 0 0.659-0.128 0.901-0.368l4.424-4.224c0.246-0.242 0.38-0.564 0.38-0.907s-0.135-0.665-0.386-0.913l-4.412-4.212c-0.373-0.37-0.929-0.475-1.412-0.273-0.487 0.204-0.79 0.656-0.79 1.181v3.718H0.5c-0.276 0-0.5 0.224-0.5 0.5S0.224 8.002 0.5 8zM18 3.282c0-0.166 0.123-0.235 0.175-0.258C18.2 3.014 18.243 3 18.295 3c0.062 0 0.138 0.021 0.21 0.092l4.413 4.212c0.053 0.053 0.083 0.123 0.083 0.196s-0.029 0.144-0.077 0.19l-4.425 4.224c-0.125 0.124-0.267 0.085-0.323 0.062-0.053-0.022-0.175-0.092-0.175-0.258z" />
    <path d="M23.5 16H7v-3.718c0-0.524-0.303-0.977-0.79-1.181-0.484-0.2-1.039-0.095-1.405 0.268L0.38 15.593C0.134 15.835 0 16.157 0 16.5s0.135 0.665 0.386 0.913l4.412 4.212c0.248 0.245 0.575 0.374 0.909 0.374 0.169 0 0.34-0.033 0.502-0.101 0.487-0.204 0.79-0.656 0.79-1.181v-3.718H23.5c0.276 0 0.5-0.224 0.5-0.5s-0.224-0.5-0.5-0.499zM6 20.718c0 0.166-0.123 0.235-0.175 0.258-0.055 0.021-0.198 0.062-0.33-0.067l-4.412-4.213C1.03 16.643 1 16.573 1 16.5s0.029-0.144 0.077-0.19l4.425-4.224C5.57 12.02 5.642 12 5.703 12c0.052 0 0.097 0.014 0.122 0.024C5.878 12.046 6 12.116 6 12.282z" />
</svg>