<svg id="exit_alt_Layer_1" viewBox="0 0 24 24" fill="currentColor" width="32" height="32" data-name="Layer 1" xmlns="http://www.w3.org/2000/svg" xmlns:xlink="http://www.w3.org/1999/xlink">
    <title>exit-alt</title>
    <path d="M17.235 14.291l-1.967-4.267h1.4c0.583 0 1.118 0.343 1.362 0.872l1.296 2.812c0.116 0.251 0.411 0.36 0.664 0.245 0.25-0.115 0.36-0.413 0.245-0.663l-1.296-2.812c-0.407-0.884-1.298-1.454-2.271-1.454H13.14c-0.872 0-1.692 0.464-2.142 1.211l-1.84 3.057c-0.27 0.448-0.763 0.727-1.286 0.727h-6e-3L5.504 14H5.5c-0.274 0-0.498 0.222-0.5 0.496-2e-3 0.276 0.22 0.502 0.496 0.504l2.364 0.019h0.01c0.874 0 1.695-0.463 2.145-1.211l1.502-2.494 2.778 6.028-2.027 1.149C11.486 18.933 11 19.767 11 20.666v2.835c0 0.276 0.224 0.5 0.5 0.5s0.5-0.224 0.5-0.5v-2.835c0-0.539 0.291-1.039 0.76-1.305l3.507-1.988c1.028-0.65 1.438-1.938 0.968-3.082zM15.753 16.515l-0.586 0.332-2.98-6.466c0.266-0.221 0.599-0.356 0.953-0.356h1.028l2.151 4.666c0.277 0.674 0.031 1.446-0.566 1.824zM5.5 1C3.57 1 2 2.57 2 4.5l-2e-3 19c0 0.276-0.224 0.5-0.5 0.5s-0.5-0.224-0.5-0.5L1 4.5C1 2.019 3.019 0 5.5 0h9C16.981 0 19 2.019 19 4.5v2C19 6.776 18.776 7 18.5 7S18 6.776 18 6.5v-2C18 2.57 16.43 1 14.5 1zM9 5.5C9 6.879 10.122 8 11.5 8S14 6.879 14 5.5 12.878 3 11.5 3 9 4.121 9 5.5zM13 5.5C13 6.327 12.327 7 11.5 7S10 6.327 10 5.5 10.673 4 11.5 4 13 4.673 13 5.5zM23 19.5c0 0.276-0.224 0.5-0.5 0.5h-3.264c-0.953 0-1.81-0.529-2.236-1.382-0.124-0.247-0.023-0.547 0.224-0.671 0.248-0.125 0.547-0.022 0.671 0.224 0.256 0.512 0.77 0.829 1.341 0.829H22.5c0.276 0 0.5 0.224 0.5 0.5z" />
</svg>