<svg id="expand_arrows_arrow-circle-down" viewBox="0 0 24 24" fill="currentColor" width="32" height="32" xmlns="http://www.w3.org/2000/svg" xmlns:xlink="http://www.w3.org/1999/xlink">
    <title>expand-arrows</title>
    <path d="M21.5 0h-6C15.224 0 15 0.224 15 0.5S15.224 1 15.5 1h6c0.231 0 0.447 0.057 0.643 0.15L12 11.293 1.857 1.15C2.053 1.056 2.269 1 2.5 1h6C8.776 1 9 0.776 9 0.5S8.776 0 8.5 0h-6C1.122 0 0 1.121 0 2.5v6C0 8.776 0.224 9 0.5 9S1 8.776 1 8.5v-6c0-0.231 0.057-0.447 0.15-0.643L11.293 12 1.15 22.143C1.056 21.947 1 21.731 1 21.5v-6C1 15.224 0.776 15 0.5 15S0 15.224 0 15.5v6C0 22.879 1.122 24 2.5 24h6C8.776 24 9 23.776 9 23.5S8.776 23 8.5 23h-6c-0.231 0-0.447-0.057-0.643-0.15L12 12.707 22.143 22.85C21.947 22.944 21.731 23 21.5 23h-6c-0.276 0-0.5 0.224-0.5 0.5s0.224 0.5 0.5 0.5h6c1.378 0 2.5-1.121 2.5-2.5v-6c0-0.276-0.224-0.5-0.5-0.5S23 15.224 23 15.5v6c0 0.231-0.057 0.447-0.15 0.643L12.707 12 22.85 1.857C22.944 2.053 23 2.269 23 2.5v6C23 8.776 23.224 9 23.5 9S24 8.776 24 8.5v-6C24 1.121 22.878 0 21.5 0z" />
</svg>