<svg id="expand_arrows_alt_arrow-circle-down" viewBox="0 0 24 24" fill="currentColor" width="32" height="32" xmlns="http://www.w3.org/2000/svg" xmlns:xlink="http://www.w3.org/1999/xlink">
    <title>expand-arrows-alt</title>
    <path d="M19.492 5.215l2.455 2.457c0.23 0.23 0.536 0.353 0.848 0.353 0.155 0 0.312-0.03 0.461-0.093 0.451-0.187 0.742-0.622 0.742-1.109L24 1.499c0-0.4-0.155-0.776-0.438-1.061-0.284-0.284-0.661-0.44-1.061-0.44h-5.32c-0.488 0-0.924 0.291-1.111 0.742s-0.084 0.966 0.261 1.311l2.455 2.457-6.785 6.785-6.786-6.785 2.456-2.455v0c0.345-0.344 0.447-0.857 0.261-1.308-0.184-0.45-0.62-0.742-1.109-0.743L1.5 0C0.673 0 0 0.673 0 1.5v5.32c0 0.488 0.291 0.924 0.742 1.111 0.149 0.062 0.306 0.092 0.461 0.092 0.312 0 0.618-0.122 0.849-0.353l2.456-2.455L11.293 12 4.508 18.785 2.052 16.33c-0.346-0.345-0.86-0.445-1.31-0.261C0.291 16.256 0 16.692 0 17.18v5.32C0 23.327 0.673 24 1.5 24l5.324-2e-3c0.488 0 0.923-0.293 1.109-0.744 0.186-0.45 0.083-0.964-0.261-1.308v0l-2.456-2.455 6.785-6.785 6.785 6.785-2.455 2.457c-0.345 0.345-0.447 0.859-0.261 1.311 0.187 0.451 0.623 0.742 1.111 0.742h5.32c0.4 0 0.777-0.156 1.061-0.439 0.283-0.284 0.439-0.66 0.438-1.061l-2e-3-5.324c0-0.487-0.291-0.923-0.742-1.109-0.452-0.189-0.965-0.085-1.309 0.26l-2.455 2.457L12.707 12zM16.994 1.123c0.02-0.047 0.07-0.125 0.188-0.125h5.32c0.133 0 0.258 0.052 0.353 0.146 0.094 0.095 0.146 0.22 0.146 0.354l-2e-3 5.324c0 0.117-0.078 0.167-0.125 0.186-0.045 0.02-0.136 0.04-0.219-0.043l-2.769-2.772c-0.012-0.015-0.017-0.033-0.031-0.047s-0.032-0.019-0.046-0.031L17.04 1.343c-0.083-0.083-0.063-0.174-0.046-0.22zM1.345 6.963C1.262 7.046 1.171 7.025 1.124 7.007 1.078 6.987 0.999 6.938 0.999 6.82V1.5c0-0.275 0.225-0.5 0.5-0.5l5.322 2e-3c0.118 0 0.168 0.078 0.187 0.125s0.039 0.137-0.043 0.22L4.197 4.113C4.181 4.126 4.161 4.132 4.146 4.147S4.125 4.181 4.112 4.198zM6.966 22.653c0.083 0.083 0.062 0.173 0.043 0.22s-0.069 0.125-0.186 0.125L1.5 23C1.224 23 1 22.775 1 22.5v-5.32c0-0.117 0.078-0.167 0.125-0.187 0.021-8e-3 0.049-0.017 0.083-0.017 0.042 0 0.091 0.014 0.138 0.061l2.768 2.766c0.013 0.016 0.018 0.035 0.033 0.05s0.034 0.021 0.05 0.033l2.769 2.766zM22.654 17.035c0.083-0.083 0.174-0.063 0.219-0.043 0.046 0.019 0.125 0.068 0.125 0.186L23 22.502c0 0.134-0.052 0.259-0.146 0.354-0.095 0.095-0.22 0.146-0.353 0.146h-5.32c-0.118 0-0.168-0.078-0.188-0.125-0.019-0.047-0.039-0.138 0.044-0.221l2.769-2.772c0.015-0.012 0.033-0.017 0.046-0.031s0.019-0.032 0.031-0.047z" />
</svg>