<svg id="expense_bill_Layer_1" viewBox="0 0 24 24" fill="currentColor" width="32" height="32" data-name="Layer 1" xmlns="http://www.w3.org/2000/svg" xmlns:xlink="http://www.w3.org/1999/xlink">
    <title>expense-bill</title>
    <path d="M5 20c0 0.552-0.448 1-1 1s-1-0.448-1-1 0.448-1 1-1 1 0.448 1 1zM20 11c-0.552 0-1 0.448-1 1s0.448 1 1 1 1-0.448 1-1-0.448-1-1-1zM4 11c-0.552 0-1 0.448-1 1s0.448 1 1 1 1-0.448 1-1-0.448-1-1-1zM20 19c-0.552 0-1 0.448-1 1s0.448 1 1 1 1-0.448 1-1-0.448-1-1-1zM24 12.5v7c0 2.481-2.019 4.5-4.5 4.5h-15C2.019 24 0 21.981 0 19.5v-7C0 10.019 2.019 8 4.5 8h7V1.276L8.849 3.858C8.752 3.953 8.626 4 8.5 4 8.37 4 8.24 3.949 8.142 3.849 7.95 3.652 7.954 3.335 8.152 3.142l2.773-2.702C11.169 0.196 11.606 0 12 0s0.809 0.213 1.041 0.445l2.806 2.694c0.199 0.191 0.205 0.508 0.014 0.707-0.19 0.198-0.506 0.206-0.707 0.014l-2.653-2.548V8h7c2.481 0 4.5 2.019 4.499 4.5zM23 12.5c0-1.93-1.57-3.5-3.5-3.5h-15C2.57 9 1 10.57 1 12.5v7C1 21.43 2.57 23 4.5 23h15c1.93 0 3.5-1.57 3.5-3.5zM16 16c0 2.206-1.794 4-4 4s-4-1.794-4-4 1.794-4 4-4 4 1.794 4 4zM15 16c0-1.654-1.346-3-3-3s-3 1.346-3 3 1.346 3 3 3 3-1.346 3-3z" />
</svg>