<svg id="explosion_Layer_1" viewBox="0 0 24 24" fill="currentColor" width="32" height="32" data-name="Layer 1" xmlns="http://www.w3.org/2000/svg" xmlns:xlink="http://www.w3.org/1999/xlink">
    <title>explosion</title>
    <path d="M24 23.5c0 0.276-0.224 0.5-0.5 0.5h-5.881c-0.184 0-0.353-0.101-0.44-0.263-0.087-0.161-0.079-0.358 0.022-0.512l4.797-7.226h-2.453c-0.504 0-0.977-0.246-1.266-0.659-0.289-0.412-0.359-0.941-0.187-1.414l4.623-12.357-7.538 8.496c-0.34 0.378-0.838 0.57-1.339 0.508-0.5-0.059-0.942-0.36-1.18-0.808L9 3.44v7.015c0 0.498-0.243 0.969-0.649 1.259-0.407 0.289-0.931 0.364-1.403 0.201l-4.611-1.714 3.417 5.375c0.324 0.45 0.37 1.066 0.104 1.584C5.593 17.678 5.066 18 4.483 18H2.144l4.484 5.173c0.128 0.147 0.158 0.356 0.077 0.535C6.624 23.886 6.446 24 6.25 24H0.5C0.224 24 0 23.776 0 23.5S0.224 23 0.5 23h4.655l-3.887-4.484c-0.242-0.288-0.289-0.655-0.132-0.987 0.15-0.328 0.462-0.528 0.832-0.528h2.517c0.206 0 0.391-0.113 0.484-0.296 0.094-0.184 0.078-0.4-0.042-0.567l-3.754-5.903c-0.16-0.259-0.169-0.552-0.027-0.809 0.166-0.291 0.563-0.506 0.951-0.381l5.188 1.928C7.44 11.026 7.626 11 7.77 10.899c0.143-0.103 0.229-0.269 0.229-0.444V2.848c0-0.868 1.033-1.068 1.474-0.566l4.058 6.999c0.093 0.173 0.249 0.279 0.425 0.301 0.175 0.016 0.354-0.048 0.474-0.181l8.139-9.161c0.552-0.457 1.005-0.248 1.278 0.129 0.152 0.211 0.195 0.469 0.118 0.71l-4.934 13.193c-0.059 0.163-0.035 0.35 0.067 0.495s0.269 0.232 0.447 0.232h2.491c0.359 0 0.674 0.189 0.842 0.508 0.167 0.318 0.149 0.681-0.05 0.971l-4.283 6.521H23.5c0.276 0 0.5 0.224 0.5 0.501zM16.039 19H15v-3c0-0.457-0.31-0.855-0.748-0.968-0.446-0.114-0.907 0.082-1.092 0.43l-1.465 1.966-0.935-1.078c-0.275-0.32-0.722-0.438-1.105-0.287-0.391 0.144-0.654 0.521-0.654 0.938v2H8.04c-0.38 0-0.723 0.211-0.895 0.553-0.17 0.341-0.134 0.742 0.095 1.047l2.4 3.2c0.166 0.22 0.479 0.266 0.7 0.101 0.221-0.166 0.266-0.479 0.1-0.7l-2.4-3.2h1.461c0.276 0 0.5-0.224 0.5-0.5l2e-3-2.497 1.345 1.55c0.099 0.114 0.248 0.18 0.396 0.172 0.151-6e-3 0.292-0.08 0.382-0.201l1.875-2.523v3.5c0 0.276 0.224 0.5 0.5 0.5h1.539l-2.438 3.251c-0.166 0.221-0.121 0.534 0.1 0.7 0.09 0.067 0.195 0.1 0.299 0.1 0.152 0 0.302-0.069 0.4-0.2l2.438-3.25c0.229-0.306 0.265-0.707 0.094-1.049-0.171-0.341-0.514-0.552-0.894-0.555z" />
</svg>