<svg id="external_hard_drive_Layer_1" viewBox="0 0 24 24" fill="currentColor" width="32" height="32" data-name="Layer 1" xmlns="http://www.w3.org/2000/svg" xmlns:xlink="http://www.w3.org/1999/xlink">
    <title>external-hard-drive</title>
    <path d="M11 20c0 0.553-0.447 1-1 1s-1-0.447-1-1 0.447-1 1-1 1 0.447 1 1zM13 19c-0.553 0-1 0.447-1 1s0.447 1 1 1 1-0.447 1-1-0.447-1-1-1zM24 12v3.5c0 0.827-0.673 1.5-1.5 1.5h-2c-0.827 0-1.5-0.673-1.5-1.5V12c0-1.103 0.897-2 2-2V3.5C21 2.121 19.879 1 18.5 1h-7C10.122 1 9 2.121 9 3.5V4h3.5C14.981 4 17 6.019 17 8.5v11c0 2.481-2.019 4.5-4.5 4.5h-8C2.019 24 0 21.981 0 19.5v-11C0 6.019 2.019 4 4.5 4H8V3.5C8 1.57 9.57 0 11.5 0h7C20.43 0 22 1.57 22 3.5V10c1.103 0 2 0.897 2 2zM16 19.5V17H1v2.5C1 21.43 2.57 23 4.5 23h8c1.93 0 3.5-1.57 3.5-3.5zM12.5 5h-8C2.57 5 1 6.57 1 8.5V16h15V8.5C16 6.57 14.43 5 12.5 5zM20 12v1h3v-1c0-0.552-0.448-1-1-1h-1c-0.552 0-1 0.448-1 1zM23 15.5V14h-3v1.5c0 0.275 0.225 0.5 0.5 0.5h2c0.275 0 0.5-0.225 0.5-0.5z" />
</svg>