<svg id="eye_drop_Layer_1" viewBox="0 0 24 24" fill="currentColor" width="32" height="32" data-name="Layer 1" xmlns="http://www.w3.org/2000/svg" xmlns:xlink="http://www.w3.org/1999/xlink">
    <title>eye-drop</title>
    <path d="M17.047 3.754 11.663 9.138c-0.76 0.76-0.861 1.93-0.311 2.803l-1.205 1.205c-0.195 0.195-0.195 0.512 0 0.707s0.512 0.195 0.707 0l1.205-1.205c0.883 0.559 2.048 0.443 2.803-0.311l5.384-5.384 0.9 0.9c0.195 0.195 0.512 0.195 0.707 0s0.195-0.512 0-0.707c-0.497-0.497-0.497-1.304 0-1.801l1.484-1.484c0.47-0.469 0.708-1.119 0.655-1.782-0.054-0.663-0.397-1.269-0.943-1.662-0.883-0.636-2.164-0.502-2.978 0.312l-1.417 1.417c-0.496 0.496-1.305 0.496-1.801 0-0.195-0.195-0.512-0.195-0.707 0s-0.195 0.512 0 0.707zM14.155 11.63c-0.492 0.492-1.293 0.492-1.785 0s-0.492-1.293 0-1.785l5.384-5.384 1.785 1.785zM19.361 2.854l1.417-1.417c0.47-0.472 1.195-0.561 1.687-0.207 0.312 0.225 0.5 0.555 0.53 0.931 0.03 0.37-0.103 0.732-0.365 0.994l-1.484 1.484c-0.333 0.333-0.541 0.746-0.624 1.177l-2.339-2.339c0.431-0.083 0.843-0.29 1.178-0.623zM9.019 12.333C8.362 13.067 8 14.014 8 15c0 2.206 1.794 4 4 4s4-1.794 4-4c0-0.3-0.033-0.6-0.099-0.89-0.061-0.27 0.108-0.537 0.377-0.598 0.27-0.063 0.537 0.107 0.598 0.377 0.082 0.362 0.124 0.736 0.124 1.11 0 2.757-2.243 5-5 5s-5-2.243-5-5c0-1.232 0.452-2.416 1.273-3.333 0.184-0.206 0.502-0.222 0.706-0.039 0.206 0.184 0.223 0.5 0.04 0.706zM23.317 17.336c-1.559 2.487-5.102 6.663-11.317 6.663s-9.759-4.176-11.32-6.666c-0.908-1.438-0.907-3.229 3e-3-4.67 1.496-2.387 4.89-6.427 10.798-6.653C11.747 6 11.989 6.214 12 6.49s-0.205 0.508-0.48 0.519c-5.449 0.208-8.598 3.966-9.99 6.187-0.704 1.114-0.704 2.494-3e-3 3.605C2.979 19.116 6.269 23 12.001 23s9.021-3.882 10.47-6.195c0.704-1.113 0.705-2.494 3e-3-3.605-0.671-1.071-1.451-2.034-2.319-2.867-0.199-0.191-0.206-0.507-0.015-0.707 0.191-0.199 0.507-0.206 0.707-0.015 0.928 0.89 1.759 1.917 2.472 3.053 0.911 1.441 0.91 3.231-2e-3 4.672z" />
</svg>