<svg id="eye_recognition_Layer_1" viewBox="0 0 24 24" fill="currentColor" width="32" height="32" data-name="Layer 1" xmlns="http://www.w3.org/2000/svg" xmlns:xlink="http://www.w3.org/1999/xlink">
    <title>eye-recognition</title>
    <path d="M19.339 15.862C17.782 17.294 15.246 19 12 19s-5.782-1.707-7.339-3.138c-0.203-0.187-0.216-0.503-0.029-0.707 0.188-0.203 0.504-0.216 0.707-0.03C6.764 16.437 9.076 18 12 18s5.236-1.563 6.661-2.875c0.205-0.186 0.52-0.173 0.707 0.03s0.174 0.52-0.029 0.707zM24 12.5c0 0.276-0.224 0.5-0.5 0.5h-23C0.224 13 0 12.776 0 12.5S0.224 12 0.5 12h1.507c0-0.28 0.059-0.56 0.189-0.816C2.81 9.958 6.489 5 12.001 5s9.19 4.958 9.806 6.185c0.129 0.256 0.188 0.535 0.188 0.815h1.507c0.276 0 0.5 0.224 0.498 0.5zM14 12c0-1.103-0.897-2-2-2s-2 0.897-2 2zM15 12h5.994c0-0.125-0.023-0.249-0.082-0.366C20.35 10.515 17.004 6 12 6s-8.351 4.515-8.911 5.633C3.03 11.75 3.006 11.875 3.006 12H9c0-1.654 1.346-3 3-3s3 1.346 3 3zM0.5 7C0.776 7 1 6.776 1 6.5v-2C1 2.57 2.57 1 4.5 1h2C6.776 1 7 0.776 7 0.5S6.776 0 6.5 0h-2C2.019 0 0 2.019 0 4.5v2C0 6.776 0.224 7 0.5 7zM6.5 23h-2C2.57 23 1 21.43 1 19.5v-2C1 17.224 0.776 17 0.5 17S0 17.224 0 17.5v2C0 21.981 2.019 24 4.5 24h2C6.776 24 7 23.776 7 23.5S6.776 23 6.5 23zM23.5 17c-0.276 0-0.5 0.224-0.5 0.5v2c0 1.93-1.57 3.5-3.5 3.5h-2c-0.276 0-0.5 0.224-0.5 0.5s0.224 0.5 0.5 0.5h2c2.481 0 4.5-2.019 4.5-4.5v-2c0-0.276-0.224-0.5-0.5-0.5zM19.5 0h-2C17.224 0 17 0.224 17 0.5S17.224 1 17.5 1h2C21.43 1 23 2.57 23 4.5v2C23 6.776 23.224 7 23.5 7S24 6.776 24 6.5v-2C24 2.019 21.981 0 19.5 0z" />
</svg>