<svg id="eye_alert_Layer_1" viewBox="0 0 24 24" fill="currentColor" width="32" height="32" data-name="Layer 1" xmlns="http://www.w3.org/2000/svg" xmlns:xlink="http://www.w3.org/1999/xlink">
    <title>eye-alert</title>
    <path d="M12 21c-6.193 0-9.72-4.081-11.271-6.515-0.978-1.532-0.978-3.437 0-4.97C2.28 7.082 5.809 3 12 3s9.72 4.081 11.271 6.513c0.978 1.535 0.978 3.44 0 4.972C21.719 16.919 18.193 21 12 21zM12 4C6.285 4 3.013 7.792 1.571 10.053c-0.766 1.201-0.766 2.694 0 3.896 1.44 2.26 4.712 6.052 10.428 6.052s8.987-3.792 10.428-6.052c0.767-1.201 0.767-2.694 0-3.897C20.987 7.792 17.715 4.001 12 4zM12 18c-3.309 0-6-2.691-6-6s2.691-6 6-6 6 2.691 6 6-2.691 6-6 6zM12 7c-2.757 0-5 2.243-5 5s2.243 5 5 5 5-2.243 5-5-2.243-5-5-5zM12.5 12.5v-4C12.5 8.224 12.276 8 12 8s-0.5 0.224-0.5 0.5v4c0 0.276 0.224 0.5 0.5 0.5s0.5-0.224 0.5-0.5zM13 15v0c0-0.552-0.448-1-1-1v0c-0.552 0-1 0.448-1 1v0c0 0.552 0.448 1 1 1v0c0.552 0 1-0.448 1-1z" />
</svg>