<svg id="eye_arrow_progress_Layer_1" viewBox="0 0 24 24" fill="currentColor" width="32" height="32" data-name="Layer 1" xmlns="http://www.w3.org/2000/svg" xmlns:xlink="http://www.w3.org/1999/xlink">
    <title>eye-arrow-progress</title>
    <path d="M12 6c-3.309 0-6 2.691-6 6s2.691 6 6 6 6-2.691 6-6-2.691-6-6-6zM12 17c-1.838 0-3.431-1.009-4.299-2.491l1.824-1.777 0.744 0.744c0.391 0.391 1.072 0.391 1.463 0l2.269-2.269V13c0 0.276 0.224 0.5 0.5 0.5s0.5-0.224 0.5-0.5v-2.5c0-0.551-0.448-1-1-1h-2.5c-0.276 0-0.5 0.224-0.5 0.5s0.224 0.5 0.5 0.5h1.786l-2.311 2.269-0.744-0.744c-0.402-0.403-1.061-0.403-1.463 0l-1.504 1.504C7.108 13.044 7.001 12.537 7.001 12c0-2.757 2.243-5 5-5s5 2.243 5 5-2.243 5-5.001 5zM23.271 9.513C21.719 7.081 18.192 3 12 3S2.279 7.082 0.729 9.515c-0.978 1.533-0.978 3.438 0 4.97C2.281 16.919 5.807 21 12 21s9.719-4.081 11.271-6.515c0.978-1.532 0.978-3.438 0-4.972zM22.427 13.949c-1.441 2.26-4.714 6.052-10.428 6.052s-8.986-3.793-10.427-6.053c-0.767-1.202-0.767-2.694 0-3.896C3.012 7.792 6.284 3.999 12 3.999s8.986 3.791 10.428 6.05c0.767 1.203 0.767 2.697-1e-3 3.9z" />
</svg>