<svg id="eye_dropper_half_Layer_1" viewBox="0 0 24 24" fill="currentColor" width="32" height="32" data-name="Layer 1" xmlns="http://www.w3.org/2000/svg" xmlns:xlink="http://www.w3.org/1999/xlink">
    <title>eye-dropper-half</title>
    <path d="M23.259 4.297C23.737 3.82 24 3.187 24.001 2.512c0-0.675-0.263-1.31-0.74-1.786-0.983-0.984-2.584-0.984-3.568 0l-3.176 3.176C15.45 4.966 14.016 4.3 12.081 3.236c-0.792-0.437-1.806-0.284-2.463 0.372-0.398 0.398-0.617 0.928-0.617 1.49S9.22 6.19 9.618 6.587l1.777 1.777-9.47 9.468c-1.049 1.049-1.157 2.689-0.323 3.86l-1.455 1.455c-0.195 0.195-0.195 0.512 0 0.707C0.245 23.952 0.373 24 0.501 24s0.256-0.049 0.354-0.146l1.455-1.455c0.504 0.36 1.106 0.555 1.738 0.555 0.801 0 1.555-0.312 2.121-0.879l9.469-9.469 1.763 1.763c0.411 0.41 0.95 0.615 1.49 0.615s1.079-0.205 1.49-0.615c0.656-0.657 0.81-1.67 0.373-2.464-1.065-1.934-1.732-3.369-0.666-4.436zM5.46 21.368c-0.756 0.756-2.072 0.756-2.828 0-0.78-0.78-0.78-2.049 0-2.829L6.171 15h5.657zM12.828 14H7.171l4.93-4.929 2.828 2.828zM19.875 12.388c0.224 0.406 0.14 0.931-0.204 1.274-0.432 0.432-1.134 0.432-1.565 0L10.324 5.88C10.115 5.671 10 5.394 10 5.098s0.115-0.574 0.324-0.783c0.345-0.343 0.87-0.427 1.361-0.155 1.72 0.947 3.861 2.129 5.538 0.449l3.176-3.176c0.594-0.594 1.56-0.594 2.154 0C22.841 1.721 23 2.104 23 2.511c0 0.408-0.159 0.791-0.448 1.078l-3.175 3.174c-1.678 1.678-0.45 3.905 0.498 5.625z" />
</svg>