<svg id="eye_scanner_Layer_1" viewBox="0 0 24 24" fill="currentColor" width="32" height="32" data-name="Layer 1" xmlns="http://www.w3.org/2000/svg" xmlns:xlink="http://www.w3.org/1999/xlink">
    <title>eye-scanner</title>
    <path d="M0 6.5v-2C0 2.019 2.019 0 4.5 0h2C6.776 0 7 0.224 7 0.5S6.776 1 6.5 1h-2C2.57 1 1 2.57 1 4.5v2C1 6.776 0.776 7 0.5 7S0 6.776 0 6.5zM19.5 0h-2C17.224 0 17 0.224 17 0.5S17.224 1 17.5 1h2C21.43 1 23 2.57 23 4.5v2C23 6.776 23.224 7 23.5 7S24 6.776 24 6.5v-2C24 2.019 21.981 0 19.5 0zM6.5 23h-2C2.57 23 1 21.43 1 19.5v-2C1 17.224 0.776 17 0.5 17S0 17.224 0 17.5v2C0 21.981 2.019 24 4.5 24h2C6.776 24 7 23.776 7 23.5S6.776 23 6.5 23zM23.5 17c-0.276 0-0.5 0.224-0.5 0.5v2c0 1.93-1.57 3.5-3.5 3.5h-2c-0.276 0-0.5 0.224-0.5 0.5s0.224 0.5 0.5 0.5h2c2.481 0 4.5-2.019 4.5-4.5v-2c0-0.276-0.224-0.5-0.5-0.5zM24 11.5c0 0.276-0.224 0.5-0.5 0.5h-23C0.224 12 0 11.776 0 11.5S0.224 11 0.5 11h0.833C2.337 9.037 5.546 4 12 4s9.662 5.037 10.667 7H23.5c0.276 0 0.5 0.224 0.5 0.5zM2.468 11h5.675C8.595 9.266 10.172 8 12 8s3.405 1.266 3.857 3h5.675C20.386 8.968 17.448 5 12 5s-8.386 3.968-9.532 6zM12 9c-1.283 0-2.408 0.828-2.825 2h5.65C14.408 9.828 13.283 9 12 9zM21.586 14.788c0.159-0.226 0.105-0.537-0.121-0.696-0.226-0.161-0.537-0.106-0.697 0.12C19.227 16.397 16.454 19 11.999 19s-7.227-2.604-8.769-4.788c-0.159-0.227-0.471-0.281-0.697-0.12-0.226 0.159-0.279 0.471-0.12 0.696C4.091 17.166 7.117 20 11.999 20s7.909-2.834 9.587-5.212zM14.857 14.799c0.193-0.197 0.19-0.514-7e-3-0.707-0.198-0.191-0.514-0.189-0.707 8e-3-1.121 1.144-3.096 1.166-4.243 0.043-0.197-0.192-0.512-0.19-0.707 8e-3-0.193 0.197-0.189 0.514 8e-3 0.707 0.752 0.736 1.747 1.143 2.799 1.143 1.084 0 2.099-0.427 2.857-1.202z" />
</svg>