<svg id="eye_lashes_Layer_1" viewBox="0 0 24 24" fill="currentColor" width="32" height="32" data-name="Layer 1" xmlns="http://www.w3.org/2000/svg" xmlns:xlink="http://www.w3.org/1999/xlink">
    <title>eye-lashes</title>
    <path d="M12 9c-2.757 0-5 2.243-5 5s2.243 5 5 5 5-2.243 5-5-2.243-5-5-5zM12 18c-2.206 0-4-1.794-4-4s1.794-4 4-4 4 1.794 4 4-1.794 4-4 4zM23.318 11.664c-0.626-1-1.58-2.27-2.891-3.434l2.205-2.743c0.173-0.215 0.139-0.53-0.076-0.703-0.216-0.172-0.529-0.14-0.703 0.076l-2.197 2.733c-0.86-0.659-1.852-1.251-2.984-1.705l1.142-3.339c0.09-0.261-0.05-0.545-0.311-0.635-0.262-0.088-0.546 0.05-0.635 0.312l-1.139 3.33c-0.98-0.302-2.055-0.492-3.229-0.536V1.5C12.5 1.224 12.276 1 12 1s-0.5 0.224-0.5 0.5v3.521c-1.173 0.044-2.248 0.234-3.228 0.536l-1.139-3.33c-0.09-0.262-0.376-0.4-0.635-0.312C6.236 2.004 6.097 2.289 6.186 2.55l1.143 3.339C6.188 6.347 5.189 6.944 4.325 7.61l-2.21-2.749c-0.173-0.214-0.489-0.25-0.703-0.076-0.215 0.173-0.249 0.488-0.076 0.703l2.219 2.76c-1.301 1.159-2.248 2.421-2.871 3.416-0.91 1.441-0.911 3.231-3e-3 4.67 1.561 2.49 5.107 6.667 11.32 6.667s9.759-4.175 11.317-6.663c0.909-1.441 0.91-3.231 0-4.674zM22.47 15.805C21.02 18.119 17.732 22 11.999 22s-9.02-3.883-10.473-6.2c-0.701-1.11-0.701-2.491 3e-3-3.604C2.979 9.882 6.268 6 12 6s9.021 3.881 10.474 6.199c0.701 1.111 0.7 2.492-4e-3 3.606z" />
</svg>