<svg id="eyeliner_Layer_1" viewBox="0 0 24 24" fill="currentColor" width="32" height="32" data-name="Layer 1" xmlns="http://www.w3.org/2000/svg" xmlns:xlink="http://www.w3.org/1999/xlink">
    <title>eyeliner</title>
    <path d="M23.5 1H17c-2.027 0-2.908 1.336-3.761 2.628-0.283 0.431-0.552 0.837-0.859 1.197C12.337 4.886 10.752 7 8 7 5.232 7 3.169 3.906 3.082 3.774c-0.151-0.23-0.087-0.54 0.144-0.692 0.228-0.152 0.539-0.089 0.692 0.143C3.936 3.253 5.774 6 8 6s3.585-1.779 3.598-1.797c0.289-0.34 0.541-0.721 0.807-1.125C13.309 1.707 14.434 0 17.001 0h6.5c0.276 0 0.5 0.224 0.5 0.5S23.777 1 23.5 1zM23.231 4.547C23.734 5.293 24 6.162 24 7.062V21.5c0 1.378-1.121 2.5-2.5 2.5S19 22.878 19 21.5V7.062c0-0.9 0.266-1.77 0.768-2.515s0.658-0.977 0.658-0.977c0.479-0.715 1.667-0.716 2.147 0zM23 7.062c0-0.7-0.206-1.376-0.598-1.956L21.745 4.13c-0.08-0.118-0.198-0.131-0.245-0.131s-0.165 0.013-0.244 0.13l-0.659 0.977C20.206 5.686 20 6.362 20 7.062V21.5c0 0.827 0.673 1.5 1.5 1.5s1.5-0.673 1.5-1.5zM13.971 7.563c0.641-0.625 1.123-1.269 1.458-1.794 0.148-0.232 0.08-0.542-0.153-0.69-0.229-0.147-0.54-0.082-0.69 0.153-0.896 1.407-2.945 3.769-6.585 3.769s-5.689-2.362-6.586-3.77c-0.148-0.234-0.46-0.3-0.69-0.153-0.233 0.148-0.302 0.458-0.153 0.69 0.335 0.525 0.817 1.169 1.458 1.794L0.175 9.159c-0.209 0.18-0.233 0.496-0.053 0.705 0.18 0.21 0.497 0.232 0.705 0.053l1.963-1.69c0.358 0.279 0.753 0.542 1.187 0.777l-1.4 2.229c-0.146 0.234-0.076 0.542 0.158 0.689 0.23 0.146 0.541 0.078 0.689-0.157l1.469-2.339c0.431 0.168 0.895 0.305 1.391 0.403l-0.547 2.566c-0.058 0.27 0.115 0.536 0.385 0.593 0.263 0.057 0.536-0.112 0.594-0.385L7.277 9.97C7.512 9.988 7.752 9.999 8 9.999c0.237 0 0.467-0.011 0.692-0.028l0.579 2.635c0.057 0.271 0.332 0.441 0.596 0.381 0.27-0.059 0.44-0.326 0.381-0.596L9.686 9.835c0.508-0.098 0.981-0.237 1.422-0.409l1.469 2.339c0.148 0.235 0.46 0.303 0.689 0.157 0.234-0.147 0.305-0.456 0.158-0.689l-1.4-2.229c0.434-0.235 0.829-0.498 1.187-0.777l1.963 1.69c0.208 0.18 0.525 0.157 0.705-0.053 0.181-0.209 0.156-0.525-0.053-0.705z" />
</svg>