<svg id="eyeshadow_Layer_1" viewBox="0 0 24 24" fill="currentColor" width="32" height="32" data-name="Layer 1" xmlns="http://www.w3.org/2000/svg" xmlns:xlink="http://www.w3.org/1999/xlink">
    <title>eyeshadow</title>
    <path d="M20.45 16.769l2.211 2.744c0.173 0.216 0.139 0.53-0.076 0.703-0.215 0.172-0.53 0.14-0.705-0.076l-2.203-2.734c-0.862 0.659-1.857 1.251-2.993 1.705l1.145 3.339c0.09 0.262-0.05 0.546-0.311 0.635-0.255 0.09-0.548-0.047-0.637-0.311l-1.142-3.332c-0.983 0.302-2.061 0.492-3.237 0.536v3.521c0 0.276-0.224 0.5-0.501 0.5s-0.501-0.224-0.501-0.5v-3.521c-1.177-0.044-2.254-0.234-3.237-0.536l-1.142 3.332c-0.088 0.263-0.382 0.4-0.637 0.311-0.261-0.089-0.401-0.373-0.311-0.635l1.145-3.34c-1.144-0.458-2.146-1.056-3.013-1.721l-2.216 2.75c-0.175 0.217-0.49 0.248-0.705 0.076-0.215-0.173-0.25-0.487-0.076-0.703l2.225-2.761c-1.305-1.159-2.254-2.421-2.88-3.416-0.345-0.544-0.562-1.141-0.646-1.771-0.036-0.273 0.157-0.524 0.432-0.562 0.265-0.037 0.525 0.155 0.563 0.431 0.065 0.485 0.233 0.946 0.5 1.369 1.456 2.315 4.754 6.197 10.5 6.197s9.045-3.882 10.499-6.196c0.27-0.426 0.438-0.886 0.501-1.369 0.036-0.275 0.305-0.468 0.562-0.432 0.275 0.036 0.468 0.287 0.433 0.561-0.083 0.629-0.3 1.225-0.645 1.771-0.629 1-1.585 2.27-2.902 3.435zM8.919 13.071C7.108 11.265 8.213 7.55 9.841 5.926c1.189-1.185 2.396-1.064 3.391-0.572l5.532-4.87c0.778-0.678 1.958-0.639 2.687 0.09 0.718 0.716 0.767 1.883 0.112 2.656l-4.806 5.764c0.401 0.947 0.429 2.059-0.673 3.158-1.033 1.03-2.912 1.851-4.609 1.851-0.977 0-1.894-0.272-2.556-0.932zM14.116 5.91c0.44 0.336 0.801 0.693 1.045 0.936 0.264 0.263 0.662 0.661 1.022 1.149l4.615-5.413c0.32-0.378 0.297-0.95-0.056-1.302-0.356-0.355-0.935-0.378-1.316-0.045zM9.628 12.364c1.243 1.239 4.29 0.531 5.746-0.92 1.071-1.069 0.813-2.16-0.922-3.891-1.052-1.049-1.867-1.557-2.585-1.557-0.468 0-0.893 0.215-1.316 0.637-1.456 1.452-2.165 4.492-0.923 5.731z" />
</svg>