<svg id="eyes_Layer_1" viewBox="0 0 24 24" fill="currentColor" width="32" height="32" data-name="Layer 1" xmlns="http://www.w3.org/2000/svg" xmlns:xlink="http://www.w3.org/1999/xlink">
    <title>eyes</title>
    <path d="M17.75 0C15.135 0 12.945 2.936 12 7.22 11.055 2.936 8.865 0 6.25 0 2.745 0 0 5.271 0 12s2.745 12 6.25 12c2.615 0 4.805-2.936 5.75-7.221C12.945 21.063 15.135 24 17.75 24 21.255 24 24 18.729 24 12S21.255 0 17.75 0zM6.25 23c-2.227 0-4.178-3.09-4.923-7.288C1.755 16.477 2.563 17 3.5 17 4.878 17 6 15.879 6 14.5S4.878 12 3.5 12c-1.164 0-2.137 0.804-2.414 1.883C1.033 13.268 1 12.641 1 12 1 6.037 3.404 1 6.25 1s5.25 5.037 5.25 11-2.404 11-5.25 11zM2 14.5C2 13.673 2.673 13 3.5 13S5 13.673 5 14.5 4.327 16 3.5 16 2 15.327 2 14.5zM17.75 23c-2.091 0-3.94-2.725-4.776-6.534C13.398 16.795 13.923 17 14.5 17c1.378 0 2.5-1.121 2.5-2.5S15.878 12 14.5 12c-0.807 0-1.518 0.39-1.975 0.985C12.51 12.659 12.5 12.332 12.5 12c0-5.963 2.404-11 5.25-11S23 6.037 23 12s-2.404 11-5.25 11zM13 14.5c0-0.827 0.673-1.5 1.5-1.5s1.5 0.673 1.5 1.5-0.673 1.5-1.5 1.5-1.5-0.673-1.5-1.5z" />
</svg>