<svg id="face_smile_hearts_Layer_1" viewBox="0 0 24 24" fill="currentColor" width="32" height="32" data-name="Layer 1" xmlns="http://www.w3.org/2000/svg" xmlns:xlink="http://www.w3.org/1999/xlink">
    <title>face-smile-hearts</title>
    <path d="M19.717 6.172c0.227 0.188 0.505 0.282 0.783 0.282s0.557-0.094 0.783-0.281C22.298 5.337 24 3.707 24 2.196 24 0.985 23.103 0 22 0c-0.682 0-1.179 0.34-1.5 0.669C20.179 0.34 19.682 0 19 0c-1.103 0-2 0.985-2 2.196 0 1.511 1.702 3.14 2.717 3.976zM19 1c0.671 0 1.051 0.719 1.053 0.724 0.084 0.168 0.257 0.273 0.444 0.275h4e-3c0.187 0 0.359-0.106 0.444-0.272C20.949 1.72 21.329 1 22 1c0.552 0 1 0.537 1 1.196 0 0.792-0.88 1.99-2.354 3.206-0.086 0.071-0.207 0.071-0.293 0-1.474-1.215-2.354-2.413-2.354-3.205 0-0.659 0.448-1.196 1.001-1.197zM23.435 8.348C23.81 9.526 24 10.755 24 12c0 6.617-5.383 12-12 12-1.247 0-2.477-0.19-3.652-0.566-0.263-0.084-0.408-0.365-0.324-0.628s0.365-0.411 0.629-0.324c1.077 0.344 2.204 0.519 3.348 0.519 6.065 0 11-4.935 11-11 0-1.142-0.175-2.269-0.519-3.348-0.084-0.263 0.062-0.544 0.325-0.628 0.261-0.085 0.544 0.062 0.628 0.323zM14 10.5C14 8.848 15.069 7 16.5 7S19 8.848 19 10.5c0 0.276-0.224 0.5-0.5 0.5S18 10.776 18 10.5C18 9.285 17.229 8 16.5 8S15 9.285 15 10.5c0 0.276-0.224 0.5-0.5 0.5S14 10.776 14 10.5zM6 10.5C6 10.776 5.776 11 5.5 11S5 10.776 5 10.5C5 8.848 6.069 7 7.5 7S10 8.848 10 10.5c0 0.276-0.224 0.5-0.5 0.5S9 10.776 9 10.5C9 9.285 8.229 8 7.5 8S6 9.285 6 10.5zM6.627 15.167c0.183-0.207 0.498-0.225 0.706-0.041 0.021 0.019 2.137 1.873 4.667 1.873s4.646-1.854 4.667-1.873c0.207-0.184 0.522-0.167 0.706 0.041 0.184 0.206 0.166 0.521-0.04 0.706C17.236 15.959 14.919 18 12 18s-5.236-2.041-5.333-2.127c-0.206-0.184-0.224-0.5-0.04-0.706zM0.284 14.608C0.096 13.758 0 12.881 0 12 0 5.383 5.383 0 12 0c0.879 0 1.757 0.096 2.608 0.284 0.27 0.06 0.439 0.327 0.38 0.596s-0.315 0.439-0.597 0.38c-0.78-0.173-1.585-0.261-2.392-0.261C5.935 1 1 5.935 1 12c0 0.809 0.088 1.613 0.261 2.392 0.06 0.27-0.11 0.537-0.38 0.597-0.036 8e-3-0.073 0.012-0.108 0.012-0.229 0-0.437-0.159-0.489-0.393zM5 17c-0.682 0-1.179 0.34-1.5 0.669C3.179 17.34 2.682 17 2 17c-1.103 0-2 0.985-2 2.196 0 1.511 1.702 3.14 2.717 3.976 0.227 0.188 0.505 0.282 0.783 0.282s0.557-0.094 0.783-0.281C5.298 22.337 7 20.707 7 19.196 7 17.985 6.103 17 5 17zM3.646 22.401c-0.086 0.071-0.207 0.071-0.293 0-1.474-1.215-2.354-2.413-2.354-3.205 0-0.659 0.448-1.196 1-1.196 0.671 0 1.051 0.719 1.053 0.724 0.084 0.168 0.257 0.273 0.444 0.275H3.5c0.187 0 0.359-0.106 0.444-0.272C3.948 18.72 4.328 18 4.999 18c0.552 0 1 0.537 1 1.196 0 0.792-0.88 1.99-2.353 3.205z" />
</svg>