<svg id="face_tongue_sweat_Layer_1" viewBox="0 0 24 24" fill="currentColor" width="32" height="32" data-name="Layer 1" xmlns="http://www.w3.org/2000/svg" xmlns:xlink="http://www.w3.org/1999/xlink">
    <title>face-tongue-sweat</title>
    <path d="M5 14.5c0-1.293-1.017-2.964-1.658-3.713C3.131 10.541 2.814 10.422 2.5 10.4c-0.324 0-0.63 0.144-0.84 0.392C1.018 11.552 0 13.231 0 14.5 0 15.878 1.122 17 2.5 17S5 15.878 5 14.5zM2.5 16C1.673 16 1 15.327 1 14.5c0-0.898 0.827-2.355 1.424-3.062h0.159C3.177 12.132 4 13.584 4 14.5 4 15.327 3.327 16 2.5 16zM24 12c0 6.617-5.383 12-12 12-3.497 0-6.813-1.521-9.097-4.174-0.18-0.209-0.157-0.525 0.053-0.705 0.208-0.18 0.524-0.158 0.705 0.053C5.755 21.606 8.794 23 12 23c6.065 0 11-4.935 11-11S18.065 1 12 1C7.191 1 2.979 4.075 1.519 8.652 1.435 8.916 1.152 9.061 0.891 8.977 0.628 8.893 0.483 8.611 0.566 8.349 2.16 3.355 6.754 0 12 0c6.617 0 12 5.383 12 12zM15 10c0-0.552 0.448-1 1-1s1 0.448 1 1-0.448 1-1 1-1-0.448-1-1zM15.093 5.791c-0.161-0.225-0.108-0.537 0.116-0.697 0.225-0.161 0.537-0.108 0.697 0.116 0.471 0.659 1.775 2.251 3.73 2.81 0.266 0.076 0.419 0.353 0.344 0.618-0.063 0.22-0.263 0.363-0.481 0.363-0.045 0-0.091-6e-3-0.137-0.019-2.258-0.646-3.738-2.446-4.269-3.191zM9 10c0 0.552-0.448 1-1 1s-1-0.448-1-1 0.448-1 1-1 1 0.448 1 1zM7.07 16.166c-0.146 0.419-0.081 0.871 0.179 1.238 0.266 0.374 0.696 0.597 1.153 0.597h0.639c0.2 1.523 1.288 3 2.958 3s2.758-1.476 2.958-3h0.626c0.455 0 0.885-0.222 1.151-0.593 0.261-0.364 0.329-0.812 0.186-1.23-0.646-1.9-2.624-3.176-4.921-3.176s-4.268 1.272-4.929 3.164zM14 17.5c0 1.202-0.765 2.5-2 2.5s-2-1.298-2-2.5v-3.067c1.196-0.538 2.791-0.543 4 9e-3zM8.791 5.093c0.225 0.16 0.277 0.473 0.116 0.697-0.531 0.744-2.011 2.545-4.27 3.19C4.591 8.993 4.545 8.999 4.5 8.999c-0.218 0-0.418-0.143-0.481-0.363-0.076-0.265 0.078-0.542 0.344-0.618 1.955-0.559 3.26-2.151 3.73-2.81 0.16-0.225 0.473-0.276 0.698-0.115z" />
</svg>