<svg id="face_sunglasses_alt_Layer_1" viewBox="0 0 24 24" fill="currentColor" width="32" height="32" data-name="Layer 1" xmlns="http://www.w3.org/2000/svg" xmlns:xlink="http://www.w3.org/1999/xlink">
    <title>face-sunglasses-alt</title>
    <path d="M12 0C5.383 0 0 5.383 0 12s5.383 12 12 12 12-5.383 12-12S18.617 0 12 0zM12 1c4.475 0 8.327 2.69 10.044 6.535C21.608 7.191 21.068 7 20.5 7h-4.185c-1.023 0-1.984 0.358-2.791 1h-3.023c-6e-3 0-0.01 3e-3-0.016 3e-3C9.69 7.364 8.721 7 7.687 7H3.5C2.932 7 2.392 7.191 1.956 7.535 3.673 3.69 7.525 1 12 1zM16.314 8h4.185c0.451 0 0.874 0.2 1.16 0.549s0.399 0.803 0.311 1.246l-0.239 1.195C21.498 12.154 20.467 13 19.279 13H17c-1.149 0-2.147-0.778-2.426-1.894l-0.561-2.243C14.651 8.304 15.459 8 16.314 8zM9.985 8.865l-0.56 2.241C9.146 12.221 8.149 13 6.999 13H4.72c-1.188 0-2.219-0.846-2.452-2.01L2.029 9.795C1.941 9.352 2.054 8.898 2.34 8.549S3.048 8 3.5 8h4.185c0.844 0 1.643 0.297 2.3 0.865zM11.999 23c-6.065 0-11-4.935-11-11 0-0.546 0.053-1.079 0.13-1.604l0.158 0.79C1.613 12.817 3.056 14 4.719 14h2.279c1.609 0 3.005-1.09 3.396-2.651L10.981 9h2.035l0.587 2.349C13.993 12.911 15.39 14 16.999 14h2.279c1.663 0 3.106-1.184 3.432-2.814l0.158-0.79c0.077 0.525 0.13 1.058 0.13 1.604 0 6.065-4.935 11-10.999 11z" />
    <path d="M17.084 15.973c-1.284 1.926-3.168 2.942-5.6 3.021-0.276 9e-3-0.493 0.24-0.483 0.517 9e-3 0.271 0.23 0.483 0.499 0.483h0.017c3.455-0.113 5.387-1.947 6.4-3.467 0.153-0.229 0.091-0.54-0.139-0.693-0.231-0.153-0.541-0.091-0.694 0.139z" />
</svg>