<svg id="face_disguise_Layer_1" viewBox="0 0 24 24" fill="currentColor" width="32" height="32" data-name="Layer 1" xmlns="http://www.w3.org/2000/svg" xmlns:xlink="http://www.w3.org/1999/xlink">
    <title>face-disguise</title>
    <path d="M12 0C5.383 0 0 5.383 0 12s5.383 12 12 12 12-5.383 12-12S18.617 0 12 0zM12 1c4.653 0 8.631 2.909 10.236 7h-2.378C19.411 6.279 17.859 5 16 5c-2.206 0-4 1.794-4 4 0 1.754 1.141 3.231 2.715 3.769C15.207 13.178 16 14.052 16 14.872 16 15.909 13.225 17 12 17c-0.825 0-2.577-0.505-3.463-1.239-9e-3-0.016-0.011-0.035-0.023-0.051-0.052-0.072-0.121-0.119-0.195-0.154C8.122 15.342 8 15.112 8 14.872c0-0.603 0.513-1.59 1.275-2.1C10.854 12.236 12 10.757 12 9c0-2.206-1.794-4-4-4-1.859 0-3.411 1.279-3.858 3H1.764C3.369 3.909 7.347 1 12 1zM19 9c0 1.654-1.346 3-3 3s-3-1.346-3-3 1.346-3 3-3 3 1.346 3 3zM5 9c0-1.654 1.346-3 3-3s3 1.346 3 3-1.346 3-3 3-3-1.346-3-3zM12 23C5.935 23 1 18.065 1 12c0-1.046 0.156-2.055 0.43-3.014C1.454 8.989 1.475 9 1.5 9H4c0 2.1 1.631 3.808 3.691 3.969C7.268 13.57 7 14.263 7 14.872c0 0.386 0.129 0.738 0.347 1.056L6.223 16.73c-0.225 0.16-0.277 0.473-0.117 0.697 0.098 0.137 0.251 0.21 0.407 0.21 0.101 0 0.202-0.03 0.29-0.093l1.258-0.897c0.532 0.404 1.199 0.721 1.862 0.946l-0.59 1.721c-0.09 0.262 0.05 0.546 0.311 0.635 0.054 0.019 0.108 0.027 0.162 0.027 0.208 0 0.402-0.131 0.473-0.338l0.609-1.778C11.314 17.951 11.702 18 12 18c0.271 0 0.663-0.055 1.106-0.158l0.616 1.797c0.07 0.207 0.265 0.338 0.473 0.338 0.054 0 0.108-9e-3 0.162-0.027 0.261-0.089 0.4-0.373 0.311-0.635l-0.6-1.751c0.648-0.227 1.31-0.541 1.843-0.937l1.287 0.917c0.088 0.062 0.189 0.093 0.29 0.093 0.155 0 0.31-0.073 0.407-0.21 0.16-0.225 0.107-0.537-0.117-0.697l-1.138-0.812c0.226-0.315 0.361-0.664 0.361-1.046 0-0.724-0.345-1.386-0.727-1.9 2.077-0.143 3.727-1.86 3.727-3.972h2.5c0.025 0 0.046-0.011 0.07-0.014 0.274 0.959 0.43 1.968 0.43 3.014 0 6.065-4.935 11-11.001 11zM9 9c0 0.552-0.448 1-1 1S7 9.552 7 9 7.448 8 8 8 9 8.448 9 9zM17 9c0 0.552-0.448 1-1 1s-1-0.448-1-1 0.448-1 1-1 1 0.448 1 1z" />
</svg>