<svg id="face_smile_halo_Layer_1" viewBox="0 0 24 24" fill="currentColor" width="32" height="32" data-name="Layer 1" xmlns="http://www.w3.org/2000/svg" xmlns:xlink="http://www.w3.org/1999/xlink">
    <title>face-smile-halo</title>
    <path d="M6 11.5C6 11.776 5.776 12 5.5 12S5 11.776 5 11.5C5 9.848 6.069 8 7.5 8S10 9.848 10 11.5c0 0.276-0.224 0.5-0.5 0.5S9 11.776 9 11.5C9 10.285 8.229 9 7.5 9S6 10.285 6 11.5zM18.5 12c0.276 0 0.5-0.224 0.5-0.5 0-1.652-1.069-3.5-2.5-3.5S14 9.848 14 11.5c0 0.276 0.224 0.5 0.5 0.5s0.5-0.224 0.5-0.5c0-1.215 0.771-2.5 1.5-2.5s1.5 1.285 1.5 2.5c0 0.276 0.224 0.5 0.5 0.5zM6.667 15.873C6.764 15.959 9.081 18 12 18s5.236-2.041 5.333-2.127c0.206-0.184 0.224-0.5 0.04-0.706-0.184-0.207-0.499-0.225-0.706-0.041-0.021 0.019-2.137 1.873-4.667 1.873s-4.646-1.854-4.667-1.873c-0.207-0.184-0.522-0.167-0.706 0.041-0.184 0.206-0.166 0.521 0.04 0.706zM1 2.5C1 0.028 11.551 0 12 0s11 0.028 11 2.5S12.449 5 12 5 1 4.972 1 2.5zM1.995 2.532C2.242 3.017 5.798 4 12 4c6.083 0 9.62-0.945 9.987-1.5C21.62 1.945 18.083 1 12 1 5.798 1 2.242 1.982 1.995 2.532zM22.239 5.739c-0.146-0.235-0.452-0.307-0.688-0.165-0.235 0.144-0.309 0.452-0.165 0.688C22.443 7.985 23 9.97 23 12.001c0 6.065-4.935 11-11 11S1 18.065 1 12c0-2.031 0.558-4.016 1.614-5.739 0.144-0.235 0.07-0.543-0.165-0.688-0.236-0.144-0.543-0.071-0.688 0.165C0.61 7.618 0 9.783 0 11.999c0 6.617 5.383 12 12 12s12-5.383 12-12c0-2.216-0.609-4.381-1.761-6.26z" />
</svg>