<svg id="face_grin_tongue_wink_Layer_1" viewBox="0 0 24 24" fill="currentColor" width="32" height="32" data-name="Layer 1" xmlns="http://www.w3.org/2000/svg" xmlns:xlink="http://www.w3.org/1999/xlink">
    <title>face-grin-tongue-wink</title>
    <path d="M12 0C5.383 0 0 5.383 0 12s5.383 12 12 12 12-5.383 12-12S18.617 0 12 0zM12 23C5.935 23 1 18.065 1 12S5.935 1 12 1 23 5.935 23 12 18.065 23 12 23zM17 6.5c-1.93 0-3.5 1.57-3.5 3.5s1.57 3.5 3.5 3.5 3.5-1.57 3.5-3.5-1.57-3.5-3.5-3.5zM17 12.5c-1.379 0-2.5-1.121-2.5-2.5s1.121-2.5 2.5-2.5 2.5 1.121 2.5 2.5-1.121 2.5-2.5 2.5zM18 10c0 0.552-0.448 1-1 1s-1-0.448-1-1 0.448-1 1-1 1 0.448 1 1zM7.5 10c-1.263 0-2.14 0.847-2.148 0.855-0.193 0.192-0.511 0.191-0.706-4e-3-0.193-0.196-0.193-0.511 0-0.705C4.693 10.099 5.812 9 7.5 9s2.807 1.1 2.854 1.146c0.195 0.195 0.195 0.512 0 0.707-0.098 0.098-0.226 0.146-0.354 0.146-0.127 0-0.255-0.048-0.352-0.145C9.639 10.845 8.762 9.999 7.5 10zM16.5 15h-9C7.224 15 7 15.224 7 15.5S7.224 16 7.5 16H9v0.5c0 1.684 1.147 3.5 3 3.5s3-1.816 3-3.5V16h1.5c0.276 0 0.5-0.224 0.5-0.5S16.776 15 16.5 15zM14 16.5c0 1.202-0.765 2.5-2 2.5s-2-1.298-2-2.5V16h4z" />
</svg>