<svg id="face_smiling_hands_Layer_1" viewBox="0 0 24 24" fill="currentColor" width="32" height="32" data-name="Layer 1" xmlns="http://www.w3.org/2000/svg" xmlns:xlink="http://www.w3.org/1999/xlink">
    <title>face-smiling-hands</title>
    <path d="M6.5 8C6.224 8 6 7.776 6 7.5 6 5.848 7.069 4 8.5 4S11 5.848 11 7.5C11 7.776 10.776 8 10.5 8S10 7.776 10 7.5C10 6.285 9.229 5 8.5 5S7 6.285 7 7.5C7 7.776 6.776 8 6.5 8zM14 7.5C14 6.285 14.771 5 15.5 5S17 6.285 17 7.5C17 7.776 17.224 8 17.5 8S18 7.776 18 7.5C18 5.848 16.931 4 15.5 4S13 5.848 13 7.5C13 7.776 13.224 8 13.5 8S14 7.776 14 7.5zM16.878 10.673c-0.181-0.209-0.496-0.232-0.705-0.052-0.016 0.014-1.627 1.378-4.173 1.378-2.527 0-4.158-1.366-4.174-1.379-0.208-0.178-0.524-0.154-0.705 0.054-0.18 0.209-0.156 0.524 0.052 0.704C7.25 11.444 9.086 13 12 13s4.75-1.555 4.827-1.622c0.209-0.18 0.232-0.496 0.051-0.705zM22.138 18.868 18.836 22.17c-1.104 1.104-2.902 1.104-4.007 0-0.535-0.535-0.83-1.247-0.83-2.003V19.38l5.708-5.707c0.195-0.195 0.195-0.512 0-0.707s-0.512-0.195-0.707 0l-5 5V15.5c0-0.276-0.224-0.5-0.5-0.5S13 15.224 13 15.5v4.667c0 1.024 0.399 1.987 1.123 2.71 0.747 0.748 1.729 1.121 2.71 1.121s1.963-0.374 2.71-1.121l3.302-3.302c0.195-0.195 0.195-0.512 0-0.707s-0.512-0.195-0.707 0zM21.258 13.745 17.013 17.99c-0.195 0.195-0.195 0.512 0 0.707 0.098 0.098 0.226 0.146 0.354 0.146s0.256-0.049 0.354-0.146l4.245-4.245c0.195-0.195 0.195-0.512 0-0.707s-0.512-0.195-0.708 0zM18.486 19.462c-0.195 0.195-0.195 0.512 0 0.707 0.098 0.098 0.226 0.146 0.354 0.146s0.256-0.049 0.354-0.146l3.479-3.479c0.195-0.195 0.195-0.512 0-0.707s-0.512-0.195-0.707 0zM10.5 15c-0.276 0-0.5 0.224-0.5 0.5v2.466L4.953 12.92c-0.195-0.195-0.512-0.195-0.707 0s-0.195 0.512 0 0.707L10 19.38v0.787c0 0.757-0.295 1.469-0.83 2.004-1.104 1.104-2.902 1.104-4.007 0l-3.348-3.349c-0.195-0.195-0.512-0.195-0.707 0s-0.195 0.512 0 0.707l3.348 3.349c0.748 0.747 1.729 1.121 2.71 1.121s1.963-0.374 2.71-1.121c0.724-0.724 1.123-1.686 1.123-2.71v-4.667c0-0.276-0.224-0.5-0.499-0.501zM6.633 18.843c0.128 0 0.256-0.049 0.354-0.146 0.195-0.195 0.195-0.512 0-0.707l-4.292-4.291c-0.195-0.195-0.512-0.195-0.707 0s-0.195 0.512 0 0.707l4.291 4.291c0.098 0.098 0.226 0.146 0.354 0.146zM1.282 15.938c-0.195 0.195-0.195 0.512 0 0.707l3.525 3.525c0.098 0.098 0.226 0.146 0.354 0.146s0.256-0.049 0.354-0.146c0.195-0.195 0.195-0.512 0-0.707L1.99 15.938c-0.195-0.195-0.512-0.195-0.708 0zM12 0C5.383 0 0 5.383 0 12c0 0.175 3e-3 0.349 0.011 0.522 0.012 0.276 0.252 0.494 0.521 0.478 0.276-0.012 0.49-0.246 0.478-0.521C1.003 12.32 1 12.161 1 12.001 1 5.935 5.935 1 12 1s11 4.935 11 11c0 0.16-3e-3 0.319-0.01 0.478-0.012 0.276 0.202 0.509 0.478 0.521 7e-3 0 0.015 0 0.022 0 0.266 0 0.487-0.209 0.499-0.478 8e-3-0.173 0.011-0.347 0.011-0.522C24 5.383 18.617 0 12 0z" />
</svg>