<svg id="face_scream_Layer_1" viewBox="0 0 24 24" fill="currentColor" width="32" height="32" data-name="Layer 1" xmlns="http://www.w3.org/2000/svg" xmlns:xlink="http://www.w3.org/1999/xlink">
    <title>face-scream</title>
    <path d="M23.49 13c-7e-3 0-0.015 0-0.022 0-0.276-0.012-0.49-0.245-0.478-0.521 7e-3-0.158 0.01-0.317 0.01-0.478 0-6.065-4.935-11-11-11S1 5.935 1 12c0 0.16 3e-3 0.319 0.01 0.478 0.012 0.276-0.202 0.51-0.478 0.521-0.27 0.051-0.509-0.201-0.521-0.477C3e-3 12.348 0 12.175 0 12 0 5.383 5.383 0 12 0s12 5.383 12 12c0 0.176-3e-3 0.349-0.011 0.522C23.977 12.79 23.756 13 23.49 13zM13.568 23.894c0.274-0.037 0.465-0.29 0.427-0.563s-0.29-0.465-0.563-0.427c-0.937 0.129-1.928 0.129-2.864 0-0.276-0.037-0.526 0.154-0.563 0.427-0.038 0.273 0.153 0.526 0.427 0.563C10.945 23.964 11.472 24 12 24s1.055-0.036 1.568-0.106zM9.14 11.14c1.4-1.4 1.777-3.218 0.857-4.137v0C9.077 6.084 7.26 6.461 5.86 7.86c-1.4 1.4-1.777 3.218-0.857 4.137 0.339 0.339 0.801 0.502 1.318 0.502 0.885 0 1.935-0.476 2.819-1.359zM9.29 7.71c0.441 0.441 0.197 1.668-0.857 2.723-1.055 1.055-2.281 1.297-2.723 0.857-0.441-0.441-0.197-1.668 0.857-2.723 0.725-0.725 1.531-1.066 2.107-1.066 0.263 0 0.478 0.071 0.616 0.209zM18.997 11.997c0.919-0.919 0.543-2.736-0.857-4.137-1.4-1.4-3.217-1.775-4.137-0.857v0c-0.919 0.919-0.543 2.736 0.857 4.137 0.883 0.884 1.933 1.359 2.818 1.359 0.518 0 0.979-0.163 1.319-0.502zM17.433 8.567c1.055 1.055 1.298 2.281 0.857 2.723-0.441 0.439-1.667 0.197-2.723-0.857-1.055-1.055-1.298-2.281-0.857-2.723 0.44-0.44 1.667-0.197 2.723 0.857zM15 17v-1c0-1.654-1.346-3-3-3s-3 1.346-3 3v1c0 1.654 1.346 3 3 3s3-1.346 3-3zM14 16v1c0 1.103-0.897 2-2 2s-2-0.897-2-2v-1c0-1.103 0.897-2 2-2s2 0.897 2 2zM7.551 23.997c0.275-0.027 0.475-0.273 0.447-0.548-0.363-3.543-2.502-6.302-3.437-7.357-0.839-1.126-2.317-1.414-3.439-0.674-1.145 0.756-1.465 2.307-0.71 3.461 0.054 0.082 1.334 2.045 1.591 4.67 0.027 0.274 0.27 0.471 0.546 0.449 0.275-0.027 0.476-0.271 0.449-0.547-0.276-2.82-1.602-4.896-1.752-5.123-0.452-0.691-0.26-1.622 0.427-2.076 0.673-0.446 1.57-0.256 2.087 0.438 8e-3 0.012 0.074 0.088 0.083 0.099 0.839 0.949 2.827 3.509 3.16 6.763 0.026 0.258 0.244 0.449 0.497 0.449 0.017 0 0.034 0 0.051-4e-3zM16.998 23.551c0.333-3.254 2.321-5.813 3.16-6.763 9e-3-0.011 0.075-0.088 0.083-0.099 0.517-0.693 1.416-0.882 2.087-0.438 0.687 0.454 0.878 1.385 0.427 2.075-0.15 0.228-1.477 2.304-1.752 5.124-0.027 0.275 0.174 0.52 0.449 0.547 0.28 0.02 0.52-0.175 0.546-0.449 0.257-2.625 1.537-4.588 1.594-4.674 0.752-1.15 0.432-2.701-0.713-3.457-1.122-0.743-2.601-0.451-3.471 0.708-0.903 1.021-3.042 3.78-3.405 7.323-0.028 0.274 0.172 0.521 0.447 0.548 0.017 2e-3 0.034 3e-3 0.051 3e-3 0.253 0 0.471-0.191 0.497-0.448z" />
</svg>