<svg id="face_weary_Layer_1" viewBox="0 0 24 24" fill="currentColor" width="32" height="32" data-name="Layer 1" xmlns="http://www.w3.org/2000/svg" xmlns:xlink="http://www.w3.org/1999/xlink">
    <title>face-weary</title>
    <path d="M12 0C5.383 0 0 5.383 0 12s5.383 12 12 12 12-5.383 12-12S18.617 0 12 0zM12 23C5.935 23 1 18.065 1 12S5.935 1 12 1 23 5.935 23 12 18.065 23 12 23zM6.587 10.001c-0.402 0-0.807-0.048-1.207-0.146C5.112 9.789 4.948 9.518 5.014 9.25s0.338-0.431 0.605-0.366C7.066 9.238 8.602 8.771 9.633 7.66c0.188-0.203 0.503-0.216 0.707-0.027 0.203 0.188 0.214 0.504 0.027 0.707-0.994 1.072-2.371 1.661-3.78 1.661zM18.985 9.25c0.066 0.268-0.098 0.539-0.366 0.605-0.399 0.099-0.804 0.146-1.207 0.146-1.409 0-2.786-0.589-3.78-1.661-0.188-0.203-0.176-0.519 0.027-0.707 0.202-0.189 0.519-0.176 0.707 0.027 1.031 1.111 2.569 1.582 4.014 1.224 0.268-0.066 0.539 0.098 0.605 0.366zM12 13c-3.083 0-5.058 2.581-5.764 3.69-0.331 0.521-0.316 1.16 0.039 1.668 0.353 0.505 0.944 0.739 1.543 0.606 0.389-0.085 0.722-0.218 1.074-0.358C9.605 18.322 10.414 18 11.996 18c1.584 0 2.396 0.323 3.111 0.607 0.353 0.14 0.686 0.272 1.074 0.357C16.291 18.988 16.402 19 16.51 19c0.479 0 0.926-0.23 1.214-0.643 0.355-0.508 0.37-1.147 0.039-1.668C17.057 15.58 15.082 12.999 12 13zM16.905 17.785c-0.044 0.064-0.212 0.269-0.509 0.203-0.309-0.068-0.591-0.18-0.919-0.31-0.76-0.302-1.705-0.677-3.48-0.678-1.774 0-2.717 0.376-3.474 0.677-0.327 0.13-0.61 0.243-0.918 0.311-0.293 0.062-0.465-0.139-0.509-0.203-0.045-0.065-0.181-0.297-0.015-0.558C7.848 16.022 9.507 14 12.001 14c2.587 0 4.303 2.257 4.92 3.227 0.166 0.261 0.031 0.493-0.016 0.558z" />
</svg>