<svg id="face_party_Layer_1" viewBox="0 0 24 24" fill="currentColor" width="32" height="32" data-name="Layer 1" xmlns="http://www.w3.org/2000/svg" xmlns:xlink="http://www.w3.org/1999/xlink">
    <title>face-party</title>
    <path d="M18.827 9.119c0.209 0.181 0.231 0.497 0.052 0.706-0.607 0.703-1.81 1.173-2.998 1.173-1.13-7e-3-2.128-0.425-2.763-1.178-0.179-0.211-0.151-0.526 0.06-0.704 0.211-0.176 0.526-0.152 0.704 0.06 0.599 0.709 1.497 0.819 1.979 0.822h0.021c0.899 0 1.818-0.339 2.239-0.827 0.182-0.21 0.497-0.23 0.706-0.052zM21.5 12c-0.686 0-1.325 0.271-1.801 0.766-0.191 0.198-0.186 0.515 0.014 0.707 0.198 0.19 0.515 0.188 0.707-0.014C20.705 13.163 21.089 13 21.5 13c0.827 0 1.5 0.673 1.5 1.5S22.327 16 21.5 16h-7.326c6e-3-7e-3 0.012-0.013 0.018-0.019 0.46-0.089 0.809-0.495 0.809-0.981 0-0.552-0.448-1-1-1h-3.5c-0.276 0-0.5 0.224-0.5 0.5s0.224 0.5 0.5 0.5h3.5c-0.086 0-0.17 0.022-0.245 0.064-0.28 0.157-0.755 0.638-0.755 1.436s0.475 1.278 0.755 1.436C13.831 17.978 13.915 18 14.001 18h-3.5c-0.276 0-0.5 0.224-0.5 0.5s0.224 0.5 0.5 0.5h3.5c0.552 0 1-0.448 1-1 0-0.485-0.348-0.891-0.807-0.981-6e-3-6e-3-0.012-0.012-0.018-0.019h7.325c1.379 0 2.5-1.121 2.5-2.5S22.88 12 21.5 12zM11.521 1.011C11.68 1.004 11.839 1 12 1c5.117 0 9.634 3.62 10.739 8.608C22.791 9.841 22.998 10 23.227 10c0.035 0 0.072-4e-3 0.108-0.012 0.27-0.06 0.439-0.327 0.38-0.597C22.509 3.95 17.582 0 12 0c-0.175 0-0.348 4e-3-0.521 0.011-0.276 0.012-0.49 0.245-0.479 0.521 0.012 0.275 0.238 0.48 0.521 0.479zM7.861 9.998c-0.481-3e-3-1.38-0.113-1.979-0.822-0.177-0.212-0.494-0.235-0.704-0.06C4.967 9.294 4.94 9.609 5.118 9.82c0.635 0.753 1.633 1.171 2.763 1.178 1.188 0 2.391-0.47 2.998-1.173 0.18-0.209 0.157-0.525-0.052-0.706-0.209-0.179-0.523-0.158-0.706 0.052C9.7 9.659 8.781 9.998 7.882 9.998zM4e-3 0.562c-0.02-0.153 0.033-0.306 0.142-0.416 0.111-0.109 0.257-0.162 0.416-0.142l8 1C8.812 1.035 9 1.248 9 1.5 9 4.794 4.794 9 1.5 9 1.248 9 1.035 8.812 1.004 8.562zM1.076 1.076 1.937 7.97c2.532-0.342 5.69-3.5 6.032-6.032zM21.044 19.121c-0.209-0.179-0.524-0.157-0.705 0.053C18.245 21.606 15.206 23 12 23 5.935 23 1 18.065 1 12c0-0.161 4e-3-0.32 0.011-0.479 0.011-0.275-0.203-0.509-0.479-0.521-0.288-7e-3-0.509 0.204-0.521 0.479C4e-3 11.652 0 11.825 0 12c0 6.617 5.383 12 12 12 3.498 0 6.813-1.521 9.097-4.174 0.181-0.209 0.156-0.525-0.053-0.705z" />
</svg>