<svg id="face_downcast_sweat_Layer_1" viewBox="0 0 24 24" fill="currentColor" width="32" height="32" data-name="Layer 1" xmlns="http://www.w3.org/2000/svg" xmlns:xlink="http://www.w3.org/1999/xlink">
    <title>face-downcast-sweat</title>
    <path d="M24 12c0 6.617-5.383 12-12 12S0 18.617 0 12c0-0.879 0.096-1.757 0.284-2.608 0.06-0.27 0.328-0.438 0.596-0.38 0.27 0.06 0.44 0.327 0.38 0.597-0.173 0.78-0.261 1.585-0.261 2.392 0 6.065 4.935 11 11 11s11-4.935 11-11S18.065 1 12 1c-1.675 0-3.285 0.367-4.782 1.091C6.969 2.213 6.671 2.108 6.55 1.859 6.43 1.61 6.534 1.311 6.782 1.191 8.417 0.401 10.173 1e-3 12 1e-3 18.617 1e-3 24 5.384 24 12zM8.702 17.099c-0.221 0.165-0.267 0.478-0.103 0.698 0.165 0.222 0.477 0.27 0.699 0.104C9.31 17.892 10.537 17 12 17s2.69 0.893 2.702 0.901c0.089 0.066 0.194 0.098 0.297 0.098 0.153 0 0.304-0.069 0.402-0.202 0.164-0.221 0.118-0.533-0.103-0.698C15.238 17.054 13.801 16 12 16s-3.238 1.054-3.298 1.099zM5.5 12h4c0.276 0 0.5-0.224 0.5-0.5S9.776 11 9.5 11h-4C5.224 11 5 11.224 5 11.5S5.224 12 5.5 12zM18.5 12c0.276 0 0.5-0.224 0.5-0.5S18.776 11 18.5 11h-4c-0.276 0-0.5 0.224-0.5 0.5s0.224 0.5 0.5 0.5zM0 4.5c0-1.271 1.018-2.948 1.66-3.708C1.87 0.544 2.177 0.401 2.501 0.4h2e-3c0.323 0 0.628 0.141 0.839 0.388C3.983 1.536 4.999 3.206 4.999 4.5c0 1.379-1.122 2.5-2.5 2.5S0 5.879 0 4.5zM1 4.5C1 5.327 1.673 6 2.5 6S4 5.327 4 4.5c0-0.917-0.823-2.368-1.417-3.062H2.424C1.827 2.145 1 3.601 1 4.5z" />
</svg>