<svg id="face_astonished_Layer_1" viewBox="0 0 24 24" fill="currentColor" width="32" height="32" data-name="Layer 1" xmlns="http://www.w3.org/2000/svg" xmlns:xlink="http://www.w3.org/1999/xlink">
    <title>face-astonished</title>
    <path d="M12 0C5.383 0 0 5.383 0 12s5.383 12 12 12 12-5.383 12-12S18.617 0 12 0zM12 23C5.935 23 1 18.065 1 12S5.935 1 12 1 23 5.935 23 12 18.065 23 12 23zM9 10c0 0.552-0.448 1-1 1s-1-0.448-1-1 0.448-1 1-1 1 0.448 1 1zM17 10c0 0.552-0.448 1-1 1s-1-0.448-1-1 0.448-1 1-1 1 0.448 1 1zM12 13c-1.654 0-3 1.346-3 3v1c0 1.654 1.346 3 3 3s3-1.346 3-3v-1c0-1.654-1.346-3-3-3zM14 17c0 1.103-0.897 2-2 2s-2-0.897-2-2v-1c0-1.103 0.897-2 2-2s2 0.897 2 2zM19.981 8.638C19.918 8.857 19.718 9 19.501 9c-0.046 0-0.092-6e-3-0.138-0.02-2.259-0.645-3.738-2.445-4.27-3.19-0.161-0.225-0.108-0.536 0.116-0.697 0.225-0.159 0.538-0.107 0.697 0.117 0.471 0.658 1.775 2.251 3.73 2.81 0.266 0.075 0.419 0.353 0.345 0.618zM4.637 8.981c-0.046 0.014-0.092 0.02-0.138 0.02-0.217 0-0.417-0.144-0.48-0.362-0.076-0.266 0.078-0.543 0.344-0.618 1.955-0.559 3.26-2.151 3.73-2.81 0.161-0.224 0.473-0.276 0.697-0.117 0.225 0.161 0.277 0.473 0.116 0.697-0.531 0.745-2.011 2.546-4.269 3.19z" />
</svg>