<svg id="face_zany_Layer_1" viewBox="0 0 24 24" fill="currentColor" width="32" height="32" data-name="Layer 1" xmlns="http://www.w3.org/2000/svg" xmlns:xlink="http://www.w3.org/1999/xlink">
    <title>face-zany</title>
    <path d="M18.674 11.031c-0.182-0.067-0.386-0.023-0.525 0.113-3.923 3.874-9.671 4.853-9.729 4.862-0.173 0.028-0.318 0.145-0.384 0.307-0.065 0.162-0.041 0.347 0.063 0.486 0.032 0.043 0.316 0.412 0.9 0.84v1.46c0 1.395 0.956 2.9 2.5 2.9s2.5-1.505 2.5-2.9v-0.194c5.446-1.285 5.004-7.385 4.998-7.448-0.016-0.193-0.143-0.36-0.323-0.426zM13 19.1c0 0.914-0.573 1.9-1.5 1.9S10 20.014 10 19.1v-2.425c0.785-0.209 1.836-0.537 3-1.026zM14 17.874v-2.676c1.308-0.628 2.697-1.459 3.981-2.547-0.143 1.577-0.848 4.358-3.981 5.223zM6.5 9.5c-1.103 0-2 0.897-2 2s0.897 2 2 2 2-0.897 2-2-0.897-2-2-2zM6.5 12.5c-0.552 0-1-0.449-1-1s0.448-1 1-1 1 0.449 1 1-0.448 1-1 1zM14 10.5c1.93 0 3.5-1.57 3.5-3.5S15.93 3.5 14 3.5 10.5 5.07 10.5 7s1.57 3.5 3.5 3.5zM14 4.5c1.379 0 2.5 1.122 2.5 2.5S15.379 9.5 14 9.5 11.5 8.378 11.5 7 12.621 4.5 14 4.5zM12 0C5.383 0 0 5.383 0 12s5.383 12 12 12 12-5.383 12-12S18.617 0 12 0zM12 23C5.935 23 1 18.065 1 12S5.935 1 12 1 23 5.935 23 12 18.065 23 12 23zM13 7c0-0.552 0.448-1 1-1s1 0.448 1 1-0.448 1-1 1-1-0.448-1-1z" />
</svg>