<svg id="face_explode_Layer_1" viewBox="0 0 24 24" fill="currentColor" width="32" height="32" data-name="Layer 1" xmlns="http://www.w3.org/2000/svg" xmlns:xlink="http://www.w3.org/1999/xlink">
    <title>face-explode</title>
    <path d="M8 15c-0.552 0-1-0.448-1-1s0.448-1 1-1 1 0.448 1 1-0.448 1-1 1zM16 13c-0.552 0-1 0.448-1 1s0.448 1 1 1 1-0.448 1-1-0.448-1-1-1zM15.438 18.563c0.113 0.33 0.059 0.685-0.146 0.971-0.208 0.291-0.545 0.465-0.902 0.465H9.601c-0.358 0-0.697-0.174-0.905-0.467-0.206-0.29-0.257-0.646-0.141-0.978 0.445-1.27 1.771-2.555 3.444-2.555s3.016 1.321 3.439 2.564zM14.479 18.952C14.176 17.959 13.158 17 12 17c-1.195 0-2.18 0.971-2.5 1.885C9.522 18.967 9.551 19 9.602 19h4.788c0.051 0 0.08-0.033 0.089-0.048zM24 10.032v1.586c0 6.707-5.282 12.261-11.775 12.38-0.076 0-0.152 2e-3-0.227 2e-3-3.165 0-6.142-1.215-8.404-3.437C1.276 18.288 0 15.247 0 12v-1.986C0 9.607 0.244 9.241 0.621 9.08 0.993 8.922 1.403 8.998 1.692 9.276 2.447 10.008 3.618 10.005 3.624 10H9c0.551 0 1-0.448 1-1V8.5c0-1.132-0.679-1.411-1.055-1.479C8.593 7.369 7.78 8 6.5 8 4.57 8 3 6.43 3 4.5S4.57 1 6.5 1c0.209 0 0.419 0.022 0.647 0.07C8.43-0.183 10.584-0.296 12 0.722c1.416-1.019 3.57-0.905 4.853 0.348C17.081 1.022 17.291 1 17.5 1 19.43 1 21 2.57 21 4.5S19.43 8 17.5 8c-1.281 0-2.094-0.631-2.446-0.979C14.681 7.088 14 7.367 14 8.5V9c0 0.552 0.449 1 1 1h5.364c0.011 0 1.15-0.013 1.916-0.727 0.299-0.28 0.72-0.352 1.099-0.188 0.377 0.164 0.622 0.535 0.621 0.947zM23 10.032c-1.102 0.964-2.612 0.979-2.638 0.968H15c-1.103 0-2-0.897-2-2V8.5C13 6.522 14.476 6 15.256 6c0.158 0 0.307 0.075 0.401 0.201C15.679 6.231 16.286 7 17.499 7c1.378 0 2.5-1.121 2.5-2.5S18.877 2 17.499 2c-0.203 0-0.417 0.034-0.674 0.106-0.187 0.052-0.386-7e-3-0.513-0.153C15.784 1.348 15.032 1 14.249 1c-0.698 0-1.413 0.274-1.911 0.734-0.191 0.176-0.486 0.176-0.678 0C11.161 1.274 10.447 1 9.749 1 8.966 1 8.213 1.348 7.686 1.953 7.559 2.099 7.358 2.159 7.173 2.106 6.916 2.034 6.702 2 6.499 2c-1.378 0-2.5 1.121-2.5 2.5S5.121 7 6.499 7c1.213 0 1.82-0.769 1.845-0.802C8.439 6.075 8.588 6 8.743 6c0.78 0 2.256 0.522 2.256 2.5V9c0 1.103-0.897 2-2 2H3.636c-0.047 2e-3-1.574 0.028-2.641-1.005L0.999 12c0 2.977 1.17 5.764 3.294 7.85 2.123 2.085 4.946 3.198 7.912 3.148 5.952-0.109 10.794-5.214 10.794-11.38z" />
</svg>