<svg id="face_anguished_Layer_1" viewBox="0 0 24 24" fill="currentColor" width="32" height="32" data-name="Layer 1" xmlns="http://www.w3.org/2000/svg" xmlns:xlink="http://www.w3.org/1999/xlink">
    <title>face-anguished</title>
    <path d="M12 0C5.383 0 0 5.383 0 12s5.383 12 12 12 12-5.383 12-12S18.617 0 12 0zM12 23C5.935 23 1 18.065 1 12S5.935 1 12 1 23 5.935 23 12 18.065 23 12 23zM8 12c-0.552 0-1-0.448-1-1s0.448-1 1-1 1 0.448 1 1-0.448 1-1 1zM17 11c0 0.552-0.448 1-1 1s-1-0.448-1-1 0.448-1 1-1 1 0.448 1 1zM12 14c-2.155 0-3.862 1.657-4.434 3.295-0.137 0.39-0.077 0.81 0.166 1.15C7.978 18.793 8.378 19 8.802 19h6.385c0.422 0 0.821-0.207 1.067-0.551 0.243-0.338 0.306-0.755 0.173-1.145C15.882 15.702 14.145 13.999 12 14zM15.441 17.867c-0.06 0.082-0.155 0.132-0.255 0.132H8.802c-0.101 0-0.195-0.049-0.254-0.132-0.031-0.043-0.076-0.132-0.038-0.242C8.955 16.353 10.329 15 12 15c1.681 0 3.047 1.354 3.48 2.627 0.037 0.109-9e-3 0.197-0.039 0.24zM19.79 8.907C19.702 8.969 19.601 9 19.5 9c-0.156 0-0.31-0.073-0.407-0.21-0.471-0.658-1.775-2.251-3.73-2.81-0.266-0.075-0.419-0.353-0.344-0.618 0.076-0.265 0.354-0.422 0.618-0.343 2.259 0.645 3.738 2.445 4.27 3.19 0.161 0.225 0.108 0.536-0.117 0.698zM8.637 5.98c-1.955 0.559-3.26 2.151-3.73 2.81C4.81 8.927 4.656 9 4.5 9 4.399 9 4.298 8.97 4.21 8.907 3.985 8.746 3.933 8.434 4.094 8.21c0.531-0.745 2.011-2.546 4.27-3.19 0.263-0.078 0.542 0.078 0.618 0.343 0.076 0.266-0.078 0.543-0.345 0.617z" />
</svg>