<svg id="face_thinking_Layer_1" viewBox="0 0 24 24" fill="currentColor" width="32" height="32" data-name="Layer 1" xmlns="http://www.w3.org/2000/svg" xmlns:xlink="http://www.w3.org/1999/xlink">
    <title>face-thinking</title>
    <path d="M16.642 15.479c0.265-0.078 0.416-0.356 0.338-0.621s-0.358-0.417-0.621-0.338l-8.271 2.442 1.387-2.189c0.147-0.233 0.078-0.542-0.155-0.69-0.232-0.146-0.541-0.08-0.69 0.155 0 0-2.106 3.325-2.117 3.345v0c-0.548 1.034-0.661 2.22-0.317 3.339 0.577 1.881 2.313 3.094 4.191 3.094 0.428 0 0.863-0.063 1.294-0.195l1.173-0.391c0.677-0.226 1.135-0.855 1.139-1.566 0.016-3.93 0.021-5.153-0.098-5.574zM12.992 16.58c6e-3 0.144 0.017 0.972 0 5.28-2e-3 0.282-0.185 0.532-0.455 0.622l-1.161 0.387c-1.784 0.547-3.679-0.457-4.225-2.239-0.248-0.808-0.188-1.661 0.151-2.393l5.689-1.679c0 7e-3 0 0.015 1e-3 0.022zM8.001 8c0.552 0 1 0.448 1 1s-0.448 1-1 1-1-0.448-1-1 0.448-1 1-1zM16.001 11c-0.552 0-1-0.448-1-1s0.448-1 1-1 1 0.448 1 1-0.448 1-1 1zM5.703 6.9c-0.221-0.164-0.27-0.473-0.106-0.695C5.632 6.156 6.494 5 8 5c2.007 0 2.926 2.218 2.964 2.313 0.103 0.255-0.021 0.545-0.275 0.649-0.062 0.025-0.126 0.037-0.188 0.037-0.197 0-0.384-0.118-0.463-0.311C10.031 7.671 9.33 6 8.001 6 7.013 6 6.428 6.765 6.403 6.797 6.237 7.018 5.927 7.063 5.703 6.9zM24 12c0 4.822-2.867 9.158-7.304 11.046-0.064 0.027-0.131 0.04-0.196 0.04-0.194 0-0.379-0.114-0.46-0.304-0.108-0.254 0.01-0.548 0.264-0.656C20.372 20.395 23 16.42 23 12 23 5.935 18.065 1 12 1S1 5.935 1 12c0 2.748 1.02 5.379 2.869 7.409 0.187 0.204 0.172 0.521-0.032 0.707-0.203 0.187-0.52 0.172-0.706-0.033C1.111 17.869 0 14.998 0 12 0 5.383 5.383 0 12 0s12 5.383 12 12z" />
</svg>