<svg id="face_pensive_Layer_1" viewBox="0 0 24 24" fill="currentColor" width="32" height="32" data-name="Layer 1" xmlns="http://www.w3.org/2000/svg" xmlns:xlink="http://www.w3.org/1999/xlink">
    <title>face-pensive</title>
    <path d="M15 17.5c0 0.276-0.224 0.5-0.5 0.5h-5C9.224 18 9 17.776 9 17.5S9.224 17 9.5 17h5c0.276 0 0.5 0.224 0.5 0.5zM18.161 12.137c-0.846 0.78-2.766 1.471-4.317 4e-3-0.201-0.191-0.517-0.18-0.707 0.02-0.189 0.201-0.181 0.518 0.02 0.707 0.849 0.802 1.835 1.137 2.788 1.137 1.097 0 2.149-0.444 2.895-1.133 0.203-0.188 0.216-0.504 0.028-0.706-0.188-0.203-0.503-0.216-0.707-0.029zM10.867 12.165c-0.187-0.203-0.504-0.216-0.706-0.028-0.846 0.78-2.766 1.471-4.317 4e-3-0.2-0.191-0.517-0.18-0.707 0.02-0.189 0.201-0.181 0.518 0.02 0.707 0.849 0.802 1.835 1.137 2.788 1.137 1.097 0 2.149-0.444 2.895-1.133 0.203-0.188 0.216-0.504 0.027-0.707zM24 12c0 6.617-5.383 12-12 12S0 18.617 0 12 5.383 0 12 0 24 5.383 24 12zM23 12c0-6.065-4.935-11-11-11S1 5.935 1 12 5.935 23 12 23s11-4.935 11-11zM19.638 8.02c-1.954-0.558-3.26-2.151-3.73-2.811-0.161-0.225-0.472-0.275-0.698-0.116-0.225 0.161-0.276 0.473-0.116 0.698 0.532 0.744 2.013 2.546 4.27 3.189C19.41 8.994 19.457 9 19.502 9c0.218 0 0.418-0.144 0.48-0.362 0.076-0.266-0.078-0.543-0.344-0.618zM8.908 5.791c0.16-0.226 0.108-0.537-0.116-0.698-0.227-0.159-0.537-0.108-0.698 0.116-0.471 0.659-1.776 2.253-3.73 2.811-0.265 0.075-0.419 0.353-0.343 0.618C4.083 8.857 4.284 9 4.501 9c0.045 0 0.092-6e-3 0.138-0.02 2.257-0.644 3.737-2.445 4.269-3.189z" />
</svg>