<svg id="face_mask_Layer_1" viewBox="0 0 24 24" fill="currentColor" width="32" height="32" data-name="Layer 1" xmlns="http://www.w3.org/2000/svg" xmlns:xlink="http://www.w3.org/1999/xlink">
    <title>face-mask</title>
    <path d="M9.99 6.402c0.054 0.271-0.122 0.534-0.392 0.588-1.244 0.249-2.515 0.912-3.776 1.973C5.728 9.042 5.614 9.08 5.501 9.08c-0.143 0-0.284-0.061-0.383-0.179C4.94 8.69 4.968 8.375 5.179 8.197c1.392-1.17 2.813-1.905 4.224-2.188C9.677 5.952 9.938 6.13 9.99 6.402zM24 12c0 1.774-0.378 3.483-1.125 5.079-0.085 0.182-0.265 0.288-0.454 0.288-0.071 0-0.143-0.015-0.211-0.047-0.25-0.117-0.358-0.415-0.241-0.665C22.653 15.193 23 13.627 23 12c0-0.891-0.107-1.758-0.308-2.588L20 12.68v5.657c0 1.555-0.79 2.981-2.113 3.817C16.554 22.996 14.45 24 12 24s-4.554-1.004-5.887-1.846C4.79 21.318 4 19.891 4 18.337v-5.658L1.311 9.401C1.108 10.235 1 11.105 1 12c0 1.584 0.33 3.112 0.979 4.543 0.114 0.252 3e-3 0.548-0.249 0.662-0.251 0.115-0.548 3e-3-0.662-0.248C0.359 15.395-1e-3 13.728-1e-3 12 0 5.373 5.373 0 12 0s12 5.373 12 12zM19 13H5v5.337c0 1.209 0.616 2.32 1.647 2.972C7.868 22.08 9.788 23 12 23s4.131-0.92 5.353-1.691C18.385 20.658 19 19.546 19 18.337zM22.345 8.26C20.811 4.03 16.753 1 12 1S3.196 4.025 1.659 8.248L4.737 12h14.527zM18.822 8.198c-1.392-1.17-2.813-1.905-4.224-2.188-0.275-0.058-0.535 0.121-0.588 0.393-0.054 0.271 0.122 0.534 0.392 0.588 1.244 0.249 2.515 0.912 3.776 1.973 0.094 0.079 0.208 0.117 0.321 0.117 0.143 0 0.284-0.061 0.383-0.179 0.178-0.211 0.15-0.526-0.06-0.704z" />
</svg>