<svg id="face_smile_tear_Layer_1" viewBox="0 0 24 24" fill="currentColor" width="32" height="32" data-name="Layer 1" xmlns="http://www.w3.org/2000/svg" xmlns:xlink="http://www.w3.org/1999/xlink">
    <title>face-smile-tear</title>
    <path d="M12 0C5.383 0 0 5.383 0 12s5.383 12 12 12 12-5.383 12-12S18.617 0 12 0zM12 23C5.935 23 1 18.065 1 12S5.935 1 12 1 23 5.935 23 12 18.065 23 12 23zM12.5 17.5c0 0.276-0.224 0.5-0.5 0.5-3.17 0-5.266-2.059-5.354-2.146-0.195-0.195-0.195-0.511 0-0.706s0.512-0.195 0.707-2e-3C7.372 15.165 9.255 17 12 17c0.276 0 0.5 0.224 0.5 0.5zM15 10c0-0.552 0.448-1 1-1s1 0.448 1 1-0.448 1-1 1-1-0.448-1-1zM7 10c0-0.552 0.448-1 1-1s1 0.448 1 1-0.448 1-1 1-1-0.448-1-1zM16.002 12.5H16c-0.147 0-0.287 0.065-0.382 0.177C15.452 12.873 14 14.633 14 16c0 1.103 0.897 2 2 2s2-0.897 2-2c0-1.334-1.45-3.12-1.615-3.319-0.095-0.114-0.235-0.18-0.383-0.181zM16 17c-0.551 0-1-0.449-1-1 0-0.635 0.556-1.56 0.998-2.178C16.48 14.505 17 15.425 17 16c0 0.551-0.449 1-1 1z" />
</svg>