<svg id="face_confused_Layer_1" viewBox="0 0 24 24" fill="currentColor" width="32" height="32" data-name="Layer 1" xmlns="http://www.w3.org/2000/svg" xmlns:xlink="http://www.w3.org/1999/xlink">
    <title>face-confused</title>
    <path d="M12 0C5.383 0 0 5.383 0 12s5.383 12 12 12 12-5.383 12-12S18.617 0 12 0zM12 23C5.935 23 1 18.065 1 12S5.935 1 12 1 23 5.935 23 12 18.065 23 12 23zM17 15.5c0 0.276-0.224 0.5-0.5 0.5h-4c-2.53 0-4.646 1.854-4.667 1.873C7.737 17.958 7.618 18 7.5 18c-0.138 0-0.274-0.057-0.373-0.168-0.184-0.206-0.166-0.521 0.04-0.705C7.264 17.04 9.581 15 12.5 15h4c0.276 0 0.5 0.224 0.5 0.5zM17 10c0 0.552-0.448 1-1 1s-1-0.448-1-1 0.448-1 1-1 1 0.448 1 1zM7 10c0-0.552 0.448-1 1-1s1 0.448 1 1-0.448 1-1 1-1-0.448-1-1z" />
</svg>