<svg id="face_expressionless_Layer_1" viewBox="0 0 24 24" fill="currentColor" width="32" height="32" data-name="Layer 1" xmlns="http://www.w3.org/2000/svg" xmlns:xlink="http://www.w3.org/1999/xlink">
    <title>face-expressionless</title>
    <path d="M12 0C5.383 0 0 5.383 0 12s5.383 12 12 12 12-5.383 12-12S18.617 0 12 0zM12 23C5.935 23 1 18.065 1 12S5.935 1 12 1 23 5.935 23 12 18.065 23 12 23zM9.5 10h-3C6.224 10 6 9.776 6 9.5S6.224 9 6.5 9h3C9.776 9 10 9.224 10 9.5S9.776 10 9.5 10zM18 9.5c0 0.276-0.224 0.5-0.5 0.5h-3C14.224 10 14 9.776 14 9.5S14.224 9 14.5 9h3C17.776 9 18 9.224 18 9.5zM17 15.5c0 0.276-0.224 0.5-0.5 0.5h-9C7.224 16 7 15.776 7 15.5S7.224 15 7.5 15h9c0.276 0 0.5 0.224 0.5 0.5z" />
</svg>