<svg id="face_sleeping_Layer_1" viewBox="0 0 24 24" fill="currentColor" width="32" height="32" data-name="Layer 1" xmlns="http://www.w3.org/2000/svg" xmlns:xlink="http://www.w3.org/1999/xlink">
    <title>face-sleeping</title>
    <path d="M19 0.5C19 0.224 19.224 0 19.5 0h4c0.202 0 0.385 0.122 0.462 0.309s0.034 0.402-0.108 0.545L20.708 4h2.793c0.276 0 0.5 0.224 0.5 0.5S23.777 5 23.501 5h-4c-0.202 0-0.385-0.122-0.462-0.309s-0.034-0.402 0.108-0.545L22.293 1H19.5C19.224 1 19 0.776 19 0.5zM16.962 4.309C16.885 4.122 16.702 4 16.5 4h-4C12.224 4 12 4.224 12 4.5S12.224 5 12.5 5h2.793l-3.146 3.146c-0.143 0.143-0.186 0.358-0.108 0.545S12.299 9 12.501 9h4c0.276 0 0.5-0.224 0.5-0.5S16.777 8 16.501 8h-2.793l3.146-3.146c0.143-0.143 0.186-0.358 0.108-0.545zM10 18c0-1.103 0.897-2 2-2s2 0.897 2 2-0.897 2-2 2-2-0.897-2-2zM11 18c0 0.551 0.448 1 1 1s1-0.449 1-1-0.448-1-1-1-1 0.449-1 1zM13.844 11.14c-0.201-0.189-0.518-0.181-0.707 0.02s-0.181 0.517 0.02 0.707c0.849 0.802 1.835 1.137 2.788 1.137 1.097 0 2.149-0.444 2.895-1.133 0.203-0.187 0.216-0.503 0.028-0.707-0.187-0.202-0.503-0.215-0.706-0.028-0.846 0.78-2.767 1.47-4.318 4e-3zM10.867 11.161c-0.187-0.202-0.503-0.215-0.706-0.028-0.846 0.78-2.767 1.47-4.317 4e-3-0.201-0.19-0.518-0.18-0.707 0.02-0.189 0.201-0.181 0.517 0.02 0.707 0.849 0.802 1.835 1.137 2.788 1.137 1.097 0 2.149-0.444 2.895-1.133 0.203-0.187 0.216-0.503 0.027-0.707zM22.389 7.04c-0.254 0.108-0.372 0.402-0.264 0.656 0.58 1.362 0.874 2.81 0.874 4.304 0 6.065-4.935 11-11 11S1 18.065 1 12 5.935 1 12 1c1.494 0 2.942 0.294 4.304 0.874 0.256 0.108 0.548-0.01 0.656-0.264s-0.01-0.548-0.264-0.656C15.209 0.321 13.629 0 12 0 5.383 0 0 5.383 0 12s5.383 12 12 12 12-5.383 12-12c0-1.63-0.321-3.21-0.954-4.696-0.108-0.255-0.399-0.373-0.657-0.264z" />
</svg>