<svg id="face_anxious_sweat_Layer_1" viewBox="0 0 24 24" fill="currentColor" width="32" height="32" data-name="Layer 1" xmlns="http://www.w3.org/2000/svg" xmlns:xlink="http://www.w3.org/1999/xlink">
    <title>face-anxious-sweat</title>
    <path d="M9 11c0 0.552-0.448 1-1 1s-1-0.448-1-1 0.448-1 1-1 1 0.448 1 1zM16 12c0.552 0 1-0.448 1-1s-0.448-1-1-1-1 0.448-1 1 0.448 1 1 1zM12 14c2.146 0 3.882 1.703 4.427 3.305 0.132 0.39 0.069 0.807-0.173 1.145-0.247 0.344-0.646 0.55-1.067 0.55H8.802c-0.424 0-0.824-0.206-1.07-0.554-0.242-0.341-0.302-0.761-0.166-1.15C8.138 15.658 9.845 14.001 12 14zM12 15c-1.671 0-3.045 1.353-3.49 2.625-0.039 0.11 7e-3 0.199 0.038 0.242C8.607 17.95 8.702 18 8.802 18h6.384c0.101 0 0.196-0.051 0.255-0.133 0.03-0.043 0.076-0.131 0.039-0.24C15.047 16.354 13.68 15 12 15zM2.5 17C1.122 17 0 15.879 0 14.5c0-1.271 1.018-2.948 1.66-3.708 0.21-0.248 0.517-0.391 0.841-0.392h2e-3c0.323 0 0.628 0.141 0.839 0.388 0.641 0.748 1.657 2.418 1.657 3.712 0 1.379-1.122 2.5-2.499 2.5zM4 14.5c0-0.917-0.823-2.368-1.417-3.062H2.424C1.827 12.145 1 13.601 1 14.5 1 15.327 1.673 16 2.5 16S4 15.327 4 14.5zM12 0C6.754 0 2.16 3.354 0.566 8.348 0.483 8.612 0.628 8.893 0.891 8.977 1.154 9.058 1.436 8.915 1.519 8.653 2.979 4.075 7.191 1 12 1c6.065 0 11 4.935 11 11s-4.935 11-11 11c-3.206 0-6.245-1.395-8.339-3.826-0.181-0.211-0.497-0.233-0.705-0.053-0.209 0.181-0.233 0.496-0.053 0.705C5.187 22.478 8.503 24 12 24c6.617 0 12-5.383 12-12S18.617 0 12 0zM19.363 8.98C19.409 8.994 19.455 9 19.501 9c0.217 0 0.417-0.144 0.48-0.362 0.076-0.266-0.078-0.543-0.344-0.618-1.955-0.559-3.26-2.151-3.73-2.81-0.159-0.225-0.473-0.276-0.697-0.117-0.225 0.161-0.277 0.473-0.116 0.697 0.531 0.745 2.011 2.546 4.269 3.19zM8.791 5.092C8.567 4.933 8.254 4.986 8.094 5.209 7.623 5.867 6.319 7.46 4.364 8.019 4.098 8.094 3.945 8.372 4.02 8.637 4.083 8.856 4.283 8.999 4.5 8.999c0.046 0 0.092-6e-3 0.138-0.02 2.259-0.645 3.738-2.445 4.27-3.19 0.161-0.225 0.108-0.536-0.117-0.697z" />
</svg>