<svg id="face_disappointed_Layer_1" viewBox="0 0 24 24" fill="currentColor" width="32" height="32" data-name="Layer 1" xmlns="http://www.w3.org/2000/svg" xmlns:xlink="http://www.w3.org/1999/xlink">
    <title>face-disappointed</title>
    <path d="M12 0C5.383 0 0 5.383 0 12s5.383 12 12 12 12-5.383 12-12S18.617 0 12 0zM12 23C5.935 23 1 18.065 1 12S5.935 1 12 1 23 5.935 23 12 18.065 23 12 23zM15.401 17.798c-0.099 0.132-0.249 0.201-0.402 0.201-0.104 0-0.207-0.031-0.297-0.098C14.69 17.892 13.463 17 12 17s-2.69 0.893-2.702 0.901c-0.223 0.164-0.534 0.117-0.699-0.104-0.164-0.222-0.118-0.534 0.103-0.699 0.061-0.045 1.497-1.099 3.299-1.099s3.238 1.054 3.299 1.099c0.221 0.165 0.267 0.478 0.101 0.7zM9.67 11.971l-4 1.442c-0.057 0.02-0.113 0.029-0.17 0.029-0.205 0-0.396-0.127-0.471-0.33-0.094-0.26 0.041-0.547 0.301-0.641l4-1.442c0.262-0.089 0.546 0.041 0.641 0.301 0.094 0.26-0.041 0.547-0.301 0.641zM18.971 13.113c-0.074 0.203-0.266 0.33-0.471 0.33-0.057 0-0.113-0.01-0.17-0.029l-4-1.442c-0.26-0.094-0.395-0.381-0.301-0.641 0.095-0.26 0.381-0.39 0.641-0.301l4 1.442c0.26 0.094 0.395 0.381 0.301 0.641z" />
</svg>