<svg id="face_smirking_Layer_1" viewBox="0 0 24 24" fill="currentColor" width="32" height="32" data-name="Layer 1" xmlns="http://www.w3.org/2000/svg" xmlns:xlink="http://www.w3.org/1999/xlink">
    <title>face-smirking</title>
    <path d="M12 0C5.383 0 0 5.383 0 12s5.383 12 12 12 12-5.383 12-12S18.617 0 12 0zM12 23C5.935 23 1 18.065 1 12S5.935 1 12 1 23 5.935 23 12 18.065 23 12 23zM17.925 14.763C17.868 14.854 16.505 17 13.5 17h-5C8.224 17 8 16.776 8 16.5S8.224 16 8.5 16h5c2.432 0 3.531-1.693 3.576-1.765 0.146-0.233 0.455-0.304 0.688-0.158s0.305 0.452 0.161 0.686zM18 10c0 0.552-0.448 1-1 1s-1-0.448-1-1h-2.5C13.224 10 13 9.776 13 9.5S13.224 9 13.5 9H17c0.552 0 1 0.448 1 1zM8 10H5.5C5.224 10 5 9.776 5 9.5S5.224 9 5.5 9H9c0.552 0 1 0.448 1 1s-0.448 1-1 1-1-0.448-1-1z" />
</svg>