<svg id="face_sunglasses_Layer_1" viewBox="0 0 24 24" fill="currentColor" width="32" height="32" data-name="Layer 1" xmlns="http://www.w3.org/2000/svg" xmlns:xlink="http://www.w3.org/1999/xlink">
    <title>face-sunglasses</title>
    <path d="M12 0C5.383 0 0 5.383 0 12s5.383 12 12 12 12-5.383 12-12S18.617 0 12 0zM12 1c4.48 0 8.343 2.692 10.056 6.544C21.618 7.194 21.072 7 20.499 7h-4.185c-1.032 0-2.01 0.345-2.823 1h-2.977C9.716 7.352 8.728 7 7.685 7H3.501C2.928 7 2.382 7.194 1.944 7.544 3.657 3.693 7.52 1 12 1zM16.314 8h4.185c0.451 0 0.874 0.2 1.16 0.549s0.399 0.803 0.312 1.245l-0.239 1.196C21.499 12.155 20.467 13 19.28 13h-2.279c-1.149 0-2.146-0.779-2.425-1.894l-0.562-2.244C14.652 8.304 15.459 8 16.314 8zM9.985 8.864 9.424 11.106C9.146 12.221 8.149 13 6.999 13H4.72c-1.188 0-2.219-0.845-2.452-2.01L2.029 9.794C1.941 9.352 2.054 8.898 2.341 8.549 2.627 8.2 3.05 8 3.501 8h4.185c0.847 0 1.646 0.298 2.299 0.864zM12 23C5.935 23 1 18.065 1 12c0-0.558 0.042-1.106 0.122-1.641l0.166 0.828C1.615 12.817 3.059 14 4.721 14H7c1.608 0 3.005-1.09 3.396-2.651L10.983 9h2.035l0.587 2.349C13.996 12.91 15.392 14 17.001 14h2.279c1.662 0 3.105-1.183 3.433-2.813l0.166-0.828c0.08 0.536 0.122 1.084 0.122 1.641 0 6.065-4.935 11-11.001 11zM17.373 16.167c0.184 0.206 0.166 0.521-0.04 0.706C17.236 16.959 14.919 19 12 19s-5.236-2.041-5.333-2.127c-0.206-0.184-0.224-0.5-0.04-0.706 0.183-0.207 0.498-0.225 0.706-0.041 0.021 0.019 2.137 1.873 4.667 1.873s4.646-1.854 4.667-1.873c0.207-0.185 0.522-0.166 0.706 0.041z" />
</svg>