<svg id="face_thermometer_Layer_1" viewBox="0 0 24 24" fill="currentColor" width="32" height="32" data-name="Layer 1" xmlns="http://www.w3.org/2000/svg" xmlns:xlink="http://www.w3.org/1999/xlink">
    <title>face-thermometer</title>
    <path d="M23.716 14.608c-1.206 5.44-6.131 9.389-11.711 9.392h-6e-3C5.38 23.998 0 18.615 0 12S5.38 2e-3 11.995 0h6e-3c3.968 1e-3 7.671 1.958 9.912 5.235 0.155 0.228 0.097 0.539-0.131 0.695-0.226 0.157-0.537 0.099-0.695-0.13-2.054-3.005-5.45-4.799-9.084-4.8C5.934 1 1 5.935 1 12s4.934 10.999 10.998 11c5.12 0 9.636-3.621 10.741-8.608 0.061-0.268 0.318-0.438 0.597-0.38 0.27 0.06 0.439 0.327 0.38 0.596zM9 10c0-0.552-0.448-1-1-1s-1 0.448-1 1 0.448 1 1 1 1-0.448 1-1zM17 10c0-0.552-0.448-1-1-1s-1 0.448-1 1 0.448 1 1 1 1-0.448 1-1zM23.331 8.705c0.835 0.899 0.783 2.309-0.114 3.145l-6.155 5.787c-0.19 0.179-0.483 0.183-0.678 7e-3C16.365 17.628 14.526 16 12 16s-4.646 1.854-4.667 1.873C7.237 17.958 7.118 17.999 7 17.999c-0.138 0-0.274-0.056-0.373-0.167-0.184-0.206-0.166-0.521 0.04-0.706 0.097-0.086 2.414-2.127 5.333-2.127 0.393 0 0.77 0.033 1.128 0.09l7.06-6.501c0.896-0.832 2.308-0.781 3.143 0.117zM20.866 9.324l-6.57 6.05c1.11 0.363 1.949 0.905 2.396 1.237l0.804-0.756-0.644-0.701c-0.187-0.204-0.174-0.52 0.03-0.707 0.203-0.187 0.52-0.174 0.706 0.03l0.636 0.693 1.316-1.238-0.562-0.603c-0.188-0.202-0.177-0.519 0.025-0.707 0.203-0.188 0.519-0.176 0.707 0.025l0.558 0.599 1.274-1.198-0.535-0.575c-0.188-0.202-0.177-0.519 0.025-0.707 0.203-0.188 0.519-0.177 0.707 0.025l0.531 0.571 0.26-0.244c0.497-0.462 0.525-1.238 0.065-1.733-0.462-0.495-1.237-0.522-1.729-0.061z" />
</svg>