<svg id="face_hand_yawn_Layer_1" viewBox="0 0 24 24" fill="currentColor" width="32" height="32" data-name="Layer 1" xmlns="http://www.w3.org/2000/svg" xmlns:xlink="http://www.w3.org/1999/xlink">
    <title>face-hand-yawn</title>
    <path d="M24 12c0 3.966-1.957 7.671-5.235 9.913C18.679 21.972 18.58 22 18.483 22c-0.159 0-0.315-0.076-0.413-0.218-0.155-0.228-0.097-0.539 0.131-0.695 3.006-2.055 4.8-5.452 4.8-9.087 0-6.065-4.935-11-11-11S1 5.935 1 12c0 3.635 1.794 7.032 4.8 9.087 0.228 0.156 0.286 0.468 0.131 0.695-0.156 0.229-0.468 0.286-0.695 0.131C1.957 19.671 0 15.966 0 12 0 5.383 5.383 0 12 0s12 5.383 12 12zM18.5 8.5c0.143 0 0.284-0.061 0.383-0.179 0.178-0.211 0.15-0.526-0.062-0.704-1.468-1.233-2.625-1.956-4.13-2.579-0.256-0.108-0.547 0.016-0.653 0.271-0.105 0.255 0.016 0.548 0.271 0.653 1.402 0.58 2.487 1.259 3.87 2.421C18.273 8.462 18.386 8.5 18.5 8.5zM9.309 5.038c-1.505 0.623-2.662 1.346-4.13 2.579C4.967 7.795 4.94 8.11 5.117 8.321 5.216 8.439 5.357 8.5 5.5 8.5c0.114 0 0.228-0.038 0.321-0.117 1.383-1.162 2.468-1.841 3.87-2.421 0.255-0.105 0.376-0.398 0.271-0.653-0.105-0.254-0.396-0.378-0.653-0.271zM17.854 18.868c-0.195-0.195-0.512-0.195-0.707 0l-3.302 3.302c-1.104 1.104-2.9 1.106-4.007 0-0.535-0.535-0.83-1.247-0.83-2.003v-0.786l5.707-5.708c0.195-0.195 0.195-0.512 0-0.707s-0.512-0.195-0.707 0l-5 5.001V15.5c0-0.276-0.224-0.5-0.5-0.5s-0.5 0.224-0.5 0.5v4.667c0 1.023 0.398 1.985 1.123 2.71 0.747 0.747 1.729 1.121 2.71 1.121s1.964-0.374 2.711-1.121l3.302-3.302c0.195-0.195 0.195-0.512 0-0.707zM16.973 13.745c-0.195-0.195-0.512-0.195-0.707 0l-4.244 4.245c-0.195 0.195-0.195 0.512 0 0.707 0.098 0.098 0.226 0.146 0.354 0.146s0.256-0.049 0.354-0.146l4.244-4.245c0.195-0.195 0.195-0.512-1e-3-0.707zM13.848 20.316c0.128 0 0.256-0.049 0.354-0.146l3.479-3.479c0.195-0.195 0.195-0.512 0-0.707s-0.512-0.195-0.707 0l-3.479 3.479c-0.195 0.195-0.195 0.512 0 0.707 0.098 0.098 0.226 0.146 0.353 0.146zM8.04 12.428c-0.039 0.273 0.15 0.527 0.424 0.566 0.024 3e-3 0.048 5e-3 0.072 5e-3 0.244 0 0.458-0.18 0.494-0.429 0.21-1.466 1.486-2.571 2.97-2.571 0.813 0 1.574 0.319 2.143 0.9 0.193 0.198 0.512 0.2 0.707 8e-3 0.197-0.193 0.201-0.51 8e-3-0.707-0.758-0.774-1.773-1.201-2.857-1.201-1.978 0-3.68 1.475-3.961 3.429z" />
</svg>