<svg id="face_fearful_Layer_1" viewBox="0 0 24 24" fill="currentColor" width="32" height="32" data-name="Layer 1" xmlns="http://www.w3.org/2000/svg" xmlns:xlink="http://www.w3.org/1999/xlink">
    <title>face-fearful</title>
    <path d="M7.5 14.5C5.57 14.5 4 12.93 4 11s1.57-3.5 3.5-3.5S11 9.07 11 11s-1.57 3.5-3.5 3.5zM7.5 8.5C6.121 8.5 5 9.621 5 11s1.121 2.5 2.5 2.5S10 12.379 10 11 8.879 8.5 7.5 8.5zM7.5 10c-0.552 0-1 0.448-1 1s0.448 1 1 1 1-0.448 1-1-0.448-1-1-1zM16.5 14.5c-1.93 0-3.5-1.57-3.5-3.5s1.57-3.5 3.5-3.5S20 9.07 20 11s-1.57 3.5-3.5 3.5zM16.5 8.5C15.121 8.5 14 9.621 14 11s1.121 2.5 2.5 2.5S19 12.379 19 11s-1.121-2.5-2.5-2.5zM16.5 10c-0.552 0-1 0.448-1 1s0.448 1 1 1 1-0.448 1-1-0.448-1-1-1zM12 24C5.383 24 0 18.617 0 12S5.383 0 12 0 24 5.383 24 12 18.617 24 12 24zM12 1C5.935 1 1 5.935 1 12s4.935 11 11 11 11-4.935 11-11S18.065 1 12 1zM9.602 19c-0.358 0-0.696-0.175-0.904-0.468-0.205-0.29-0.257-0.646-0.141-0.978 0.444-1.27 1.77-2.555 3.443-2.555s3.016 1.32 3.439 2.563c0.112 0.33 0.059 0.685-0.146 0.971-0.208 0.291-0.546 0.465-0.903 0.465zM12 16.001c-1.195 0-2.18 0.971-2.5 1.885 0.022 0.083 0.052 0.115 0.102 0.115h4.788c0.051 0 0.08-0.034 0.09-0.048-0.303-0.993-1.321-1.952-2.48-1.952zM20.791 8.408c0.225-0.161 0.276-0.473 0.116-0.698-0.532-0.744-2.013-2.546-4.27-3.189-0.27-0.081-0.543 0.078-0.618 0.343-0.076 0.266 0.078 0.543 0.343 0.618 1.954 0.558 3.26 2.151 3.73 2.811 0.098 0.136 0.252 0.209 0.407 0.209 0.101 0 0.202-0.03 0.292-0.094zM3.907 8.292c0.471-0.659 1.776-2.253 3.73-2.811 0.265-0.075 0.419-0.353 0.343-0.618C7.905 4.599 7.63 4.439 7.362 4.52 5.105 5.164 3.625 6.965 3.092 7.709 2.932 7.935 2.984 8.246 3.208 8.407 3.297 8.469 3.398 8.5 3.499 8.5c0.155 0 0.31-0.073 0.408-0.208z" />
</svg>