<svg id="face_woozy_Layer_1" viewBox="0 0 24 24" fill="currentColor" width="32" height="32" data-name="Layer 1" xmlns="http://www.w3.org/2000/svg" xmlns:xlink="http://www.w3.org/1999/xlink">
    <title>face-woozy</title>
    <path d="M12 24C5.383 24 0 18.617 0 12S5.383 0 12 0 24 5.383 24 12 18.617 24 12 24zM12 1C5.935 1 1 5.935 1 12s4.935 11 11 11 11-4.935 11-11S18.065 1 12 1zM16 13.5c-1.262 0-2.25-1.538-2.25-3.5S14.738 6.5 16 6.5s2.25 1.538 2.25 3.5-0.988 3.5-2.25 3.5zM16 7.5c-0.591 0-1.25 1.027-1.25 2.5s0.659 2.5 1.25 2.5 1.25-1.027 1.25-2.5S16.591 7.5 16 7.5zM6.724 11.947l4-2c0.247-0.124 0.347-0.424 0.224-0.671-0.124-0.247-0.423-0.346-0.671-0.224l-4 2c-0.247 0.124-0.347 0.424-0.224 0.671 0.088 0.175 0.265 0.276 0.447 0.276 0.075 0 0.151-0.017 0.224-0.052zM17.919 16.773c0.15-0.231 0.086-0.541-0.146-0.692-0.229-0.149-0.539-0.087-0.692 0.145-0.322 0.493-1.415 1.773-2.581 1.773-0.593 0-1.174-0.513-1.735-1.009-0.576-0.51-1.12-0.991-1.765-0.991-0.651 0-1.117 0.31-1.527 0.584-0.335 0.223-0.624 0.416-0.973 0.416-0.671 0-1.411-0.612-1.641-0.848-0.189-0.197-0.507-0.203-0.706-0.011-0.198 0.191-0.205 0.507-0.014 0.706 0.045 0.047 1.124 1.153 2.36 1.153 0.651 0 1.117-0.31 1.527-0.584 0.335-0.223 0.624-0.416 0.973-0.416 0.266 0 0.71 0.393 1.103 0.74 0.668 0.591 1.426 1.26 2.397 1.26 1.94 0 3.359-2.135 3.42-2.226zM4.638 8.981c2.257-0.645 3.737-2.446 4.27-3.19 0.16-0.225 0.108-0.537-0.116-0.697-0.227-0.16-0.537-0.109-0.698 0.116-0.471 0.659-1.776 2.251-3.73 2.81-0.266 0.076-0.419 0.353-0.343 0.618 0.062 0.22 0.263 0.363 0.48 0.363 0.045 0 0.092-6e-3 0.137-0.02z" />
</svg>