<svg id="face_eyes_xmarks_Layer_1" viewBox="0 0 24 24" fill="currentColor" width="32" height="32" data-name="Layer 1" xmlns="http://www.w3.org/2000/svg" xmlns:xlink="http://www.w3.org/1999/xlink">
    <title>face-eyes-xmarks</title>
    <path d="M12 0C5.383 0 0 5.383 0 12s5.383 12 12 12 12-5.383 12-12S18.617 0 12 0zM12 23C5.935 23 1 18.065 1 12S5.935 1 12 1 23 5.935 23 12 18.065 23 12 23zM12 15c-1.674 0-3 1.285-3.444 2.555-0.116 0.332-0.064 0.688 0.141 0.978 0.208 0.293 0.546 0.468 0.905 0.468h4.789c0.357 0 0.694-0.175 0.902-0.466 0.205-0.286 0.259-0.641 0.146-0.971C15.017 16.322 13.668 15.001 12 15zM14.39 17.999H9.602c-0.05 0-0.079-0.032-0.102-0.114C9.82 16.971 10.805 16 12 16c1.159 0 2.177 0.959 2.479 1.952-0.01 0.015-0.039 0.047-0.089 0.047zM18.854 7.853 17.208 9.499l1.646 1.646c0.195 0.195 0.195 0.512 0 0.707-0.098 0.098-0.226 0.146-0.354 0.146s-0.256-0.049-0.354-0.146L16.5 10.206l-1.646 1.646c-0.098 0.098-0.226 0.146-0.354 0.146s-0.256-0.049-0.354-0.146c-0.195-0.195-0.195-0.512 0-0.707l1.646-1.646-1.646-1.646c-0.195-0.195-0.195-0.512 0-0.707s0.512-0.195 0.707 0l1.646 1.646 1.646-1.646c0.195-0.195 0.512-0.195 0.707 0s0.195 0.512 2e-3 0.707zM7.5 10.207 5.854 11.853c-0.098 0.098-0.226 0.146-0.354 0.146s-0.256-0.049-0.354-0.146c-0.195-0.195-0.195-0.512 0-0.707L6.792 9.5 5.146 7.854c-0.195-0.195-0.195-0.512 0-0.707s0.512-0.195 0.707 0l1.646 1.646 1.646-1.646c0.195-0.195 0.512-0.195 0.707 0s0.195 0.512 0 0.707L8.206 9.5l1.646 1.646c0.195 0.195 0.195 0.512 0 0.707-0.098 0.098-0.226 0.146-0.354 0.146s-0.256-0.049-0.354-0.146z" />
</svg>