<svg id="face_beam_hand_over_mouth_Layer_1" viewBox="0 0 24 24" fill="currentColor" width="32" height="32" data-name="Layer 1" xmlns="http://www.w3.org/2000/svg" xmlns:xlink="http://www.w3.org/1999/xlink">
    <title>face-beam-hand-over-mouth</title>
    <path d="M7.5 8C6.771 8 6 9.285 6 10.5 6 10.776 5.776 11 5.5 11S5 10.776 5 10.5C5 8.848 6.069 7 7.5 7S10 8.848 10 10.5c0 0.276-0.224 0.5-0.5 0.5S9 10.776 9 10.5C9 9.285 8.229 8 7.5 8zM18.5 11c0.276 0 0.5-0.224 0.5-0.5 0-1.652-1.069-3.5-2.5-3.5S14 8.848 14 10.5c0 0.276 0.224 0.5 0.5 0.5s0.5-0.224 0.5-0.5C15 9.285 15.771 8 16.5 8S18 9.285 18 10.5c0 0.276 0.224 0.5 0.5 0.5zM12 0C5.383 0 0 5.383 0 12c0 3.966 1.957 7.671 5.235 9.913 0.229 0.155 0.54 0.097 0.695-0.131 0.156-0.228 0.098-0.539-0.13-0.695C2.794 19.032 1 15.635 1 12 1 5.935 5.935 1 12 1s11 4.935 11 11c0 3.635-1.794 7.032-4.8 9.087-0.228 0.156-0.286 0.468-0.13 0.695C18.167 21.924 18.323 22 18.483 22c0.097 0 0.195-0.028 0.282-0.087C22.043 19.671 24 15.966 24 12 24 5.383 18.617 0 12 0zM17.846 18.868c-0.195-0.195-0.512-0.195-0.707 0l-3.302 3.302c-1.104 1.105-2.902 1.104-4.007 0C9.295 21.635 9 20.923 9 20.166V19.38l5.708-5.708c0.195-0.195 0.195-0.512 0-0.707s-0.512-0.195-0.707 0l-5 5v-2.466c0-0.276-0.224-0.5-0.5-0.5s-0.5 0.224-0.5 0.5v4.666c0 1.024 0.399 1.987 1.123 2.711 0.747 0.747 1.729 1.121 2.71 1.121s1.963-0.374 2.71-1.121l3.302-3.302c0.195-0.195 0.195-0.512 0-0.706zM16.966 13.745c-0.195-0.195-0.512-0.195-0.707 0l-4.245 4.245c-0.195 0.195-0.195 0.512 0 0.707 0.098 0.098 0.226 0.146 0.354 0.146s0.256-0.049 0.354-0.146l4.245-4.245c0.195-0.195 0.195-0.512-1e-3-0.707zM13.841 20.316c0.128 0 0.256-0.049 0.354-0.146l3.479-3.479c0.195-0.195 0.195-0.512 0-0.707s-0.512-0.195-0.707 0l-3.479 3.479c-0.195 0.195-0.195 0.512 0 0.707 0.098 0.098 0.226 0.146 0.353 0.146z" />
</svg>