<svg id="face_lying_Layer_1" viewBox="0 0 24 24" fill="currentColor" width="32" height="32" data-name="Layer 1" xmlns="http://www.w3.org/2000/svg" xmlns:xlink="http://www.w3.org/1999/xlink">
    <title>face-lying</title>
    <path d="M21.913 18.765C19.672 22.043 15.967 24 12 24 5.383 24 0 18.617 0 12S5.383 0 12 0c5.246 0 9.84 3.354 11.434 8.348 0.083 0.264-0.062 0.545-0.325 0.629-0.264 0.08-0.545-0.062-0.628-0.324C21.021 4.076 16.809 1.001 12 1.001 5.935 1 1 5.935 1 12s4.935 11 11 11c3.636 0 7.033-1.794 9.087-4.8 0.155-0.228 0.466-0.286 0.695-0.131 0.228 0.156 0.287 0.467 0.131 0.696zM21.5 11h-7c-0.276 0-0.5 0.224-0.5 0.5s0.224 0.5 0.5 0.5h7c0.827 0 1.5 0.673 1.5 1.5S22.327 15 21.5 15h-7c-0.276 0-0.5 0.224-0.5 0.5s0.224 0.5 0.5 0.5h7c1.378 0 2.5-1.121 2.5-2.5S22.878 11 21.5 11zM7.5 18c0.12 0 0.24-0.043 0.335-0.13 0.017-0.015 1.686-1.507 3.752-1.878 0.272-0.049 0.453-0.309 0.404-0.58-0.048-0.271-0.309-0.446-0.581-0.404-2.356 0.423-4.172 2.053-4.248 2.122-0.204 0.186-0.219 0.501-0.034 0.706C7.227 17.944 7.362 18 7.5 18zM15 8c0 0.552 0.448 1 1 1s1-0.448 1-1-0.448-1-1-1-1 0.448-1 1zM8 9c0.552 0 1-0.448 1-1S8.552 7 8 7 7 7.448 7 8 7.448 9 8 9z" />
</svg>