<svg id="face_nose_steam_Layer_1" viewBox="0 0 24 24" fill="currentColor" width="32" height="32" data-name="Layer 1" xmlns="http://www.w3.org/2000/svg" xmlns:xlink="http://www.w3.org/1999/xlink">
    <title>face-nose-steam</title>
    <path d="M22.657 18.119C22.881 17.788 23 17.401 23 17c0-1.103-0.897-2-2-2-0.755 0-1.435 0.441-1.774 1.151-1.397-0.727-4.396-2.053-4.523-2.108-0.208-0.092-0.452-0.032-0.593 0.146-0.142 0.178-0.146 0.428-0.011 0.61 0.068 0.091 1.667 2.236 2.479 3.248-0.914 0.197-1.577 1.019-1.577 1.953 0 1.082 0.893 1.999 1.958 2.003l0.093-2e-3C17.288 23.16 18.317 24 19.501 24s2.217-0.844 2.435-1.947L21.954 22h0.048c1.103 0 2-0.897 2-2 0-0.843-0.539-1.599-1.345-1.881zM22 21h-0.409c-0.216 0-0.407 0.139-0.475 0.344l-0.146 0.454C20.83 22.494 20.212 23 19.5 23s-1.33-0.506-1.47-1.202l-0.081-0.401c-0.047-0.234-0.253-0.401-0.49-0.401h-8e-3l-0.499 8e-3C16.435 21.002 16 20.543 16 20.001c0-0.467 0.332-0.877 0.788-0.976l0.79-0.17c0.169-0.037 0.308-0.158 0.365-0.321 0.059-0.163 0.028-0.345-0.08-0.48l-0.506-0.631c-0.341-0.425-0.833-1.068-1.288-1.668 0.933 0.426 2.02 0.934 2.694 1.284l0.458 0.239c0.119 0.062 0.259 0.073 0.39 0.031 0.128-0.043 0.234-0.137 0.293-0.259l0.224-0.467C20.3 16.224 20.634 16 21 16c0.552 0 1 0.448 1 1 0 0.2-0.059 0.393-0.171 0.558l-0.364 0.538c-0.087 0.129-0.109 0.29-0.061 0.438s0.163 0.264 0.31 0.314l0.612 0.215C22.729 19.205 23 19.582 23 20.001c0 0.552-0.448 1-1 0.999zM9.99 8.761C9.175 7.427 7.614 6.194 6.437 5.952c-0.27-0.056-0.444-0.32-0.39-0.591 0.056-0.271 0.323-0.442 0.591-0.39 1.463 0.3 3.23 1.674 4.205 3.268 0.144 0.235 0.069 0.543-0.166 0.688C10.596 8.977 10.506 9 10.416 9 10.248 9 10.084 8.915 9.99 8.761zM13.927 8.761C13.832 8.915 13.668 9 13.5 9c-0.09 0-0.18-0.023-0.261-0.073-0.235-0.145-0.31-0.452-0.166-0.688 0.975-1.594 2.742-2.968 4.205-3.268 0.268-0.052 0.535 0.118 0.591 0.39 0.055 0.271-0.119 0.535-0.39 0.591-1.177 0.241-2.737 1.475-3.552 2.809zM10 10.5c0 0.276-0.224 0.5-0.5 0.5h-3C6.224 11 6 10.776 6 10.5S6.224 10 6.5 10h3c0.276 0 0.5 0.224 0.5 0.5zM14 10.5c0-0.276 0.224-0.5 0.5-0.5h3c0.276 0 0.5 0.224 0.5 0.5S17.776 11 17.5 11h-3c-0.276 0-0.5-0.224-0.5-0.5zM0.101 13.564C0.035 13.046 0 12.52 0 12 0 5.383 5.383 0 12 0s12 5.383 12 12c0 0.521-0.034 1.047-0.101 1.564C23.866 13.816 23.651 14 23.404 14c-0.021 0-0.043 0-0.065-4e-3-0.273-0.035-0.467-0.286-0.432-0.561C22.969 12.96 23 12.477 23 11.999c0-6.065-4.935-11-11-11S1 5.935 1 12c0 0.478 0.031 0.961 0.093 1.436 0.035 0.274-0.158 0.525-0.432 0.561-0.282 0.032-0.524-0.158-0.56-0.433zM14.989 23.119c0.06 0.27-0.11 0.537-0.38 0.597C13.759 23.904 12.881 24 12.001 24s-1.759-0.096-2.608-0.284c-0.27-0.06-0.439-0.327-0.38-0.597s0.324-0.437 0.597-0.38c1.557 0.346 3.227 0.346 4.783 0 0.274-0.057 0.537 0.11 0.596 0.38zM7.424 18.047c0.812-1.013 2.41-3.157 2.479-3.248 0.136-0.183 0.131-0.433-0.011-0.61-0.141-0.178-0.386-0.237-0.593-0.146-0.127 0.056-3.125 1.381-4.523 2.108C4.436 15.441 3.756 15 3.002 15c-1.103 0-2 0.897-2 2 0 0.401 0.119 0.789 0.343 1.118v0C0.542 18.401 3e-3 19.157 3e-3 20c0 1.103 0.897 2 2 2h0.051c0.235 1.159 1.265 2 2.449 2s2.214-0.841 2.449-1.999l0.103 2e-3c1.056-4e-3 1.948-0.921 1.948-2.003 0-0.934-0.663-1.756-1.579-1.953zM7.059 21.003 6.55 20.995c-0.248-0.014-0.451 0.164-0.498 0.401l-0.081 0.401c-0.14 0.696-0.758 1.202-1.47 1.202s-1.33-0.506-1.485-1.26l-0.131-0.396c-0.067-0.205-0.259-0.344-0.475-0.344H2.001c-0.552 0-1-0.448-1-1 0-0.419 0.271-0.796 0.673-0.938l0.613-0.215c0.146-0.051 0.261-0.167 0.31-0.314s0.026-0.309-0.061-0.438l-0.365-0.539c-0.111-0.164-0.17-0.356-0.17-0.557 0-0.552 0.448-1 1-1 0.366 0 0.7 0.224 0.872 0.583l0.224 0.467c0.059 0.122 0.165 0.216 0.293 0.259 0.131 0.043 0.271 0.03 0.39-0.031l0.457-0.239C5.912 16.686 7 16.179 7.932 15.753c-0.455 0.601-0.948 1.243-1.289 1.668l-0.505 0.631c-0.108 0.136-0.139 0.317-0.08 0.48 0.058 0.163 0.196 0.284 0.365 0.321l0.79 0.169c0.456 0.1 0.788 0.51 0.788 0.977 0 0.542-0.436 1.001-0.942 1.004z" />
</svg>