<svg id="face_pleading_Layer_1" viewBox="0 0 24 24" fill="currentColor" width="32" height="32" data-name="Layer 1" xmlns="http://www.w3.org/2000/svg" xmlns:xlink="http://www.w3.org/1999/xlink">
    <title>face-pleading</title>
    <path d="M12 0C5.383 0 0 5.383 0 12s5.383 12 12 12 12-5.383 12-12S18.617 0 12 0zM12 23C5.935 23 1 18.065 1 12S5.935 1 12 1 23 5.935 23 12 18.065 23 12 23zM11 12c0-2.206-1.794-4-4-4s-4 1.794-4 4 1.794 4 4 4 4-1.794 4-4zM7 15c-1.654 0-3-1.346-3-3s1.346-3 3-3 3 1.346 3 3-1.346 3-3 3zM17 8c-2.206 0-4 1.794-4 4s1.794 4 4 4 4-1.794 4-4-1.794-4-4-4zM17 15c-1.654 0-3-1.346-3-3s1.346-3 3-3 3 1.346 3 3-1.346 3-3 3zM15.299 18.099c0.221 0.165 0.267 0.478 0.103 0.699-0.099 0.132-0.249 0.201-0.402 0.201-0.104 0-0.207-0.031-0.297-0.098C14.691 18.892 13.464 18 12.001 18s-2.69 0.893-2.702 0.901c-0.224 0.164-0.534 0.117-0.699-0.104-0.164-0.222-0.118-0.534 0.103-0.699 0.061-0.045 1.497-1.099 3.299-1.099s3.238 1.054 3.297 1.1zM15.093 4.791c-0.16-0.226-0.108-0.537 0.116-0.698 0.227-0.158 0.537-0.107 0.698 0.116 0.471 0.659 1.776 2.253 3.73 2.811 0.265 0.075 0.419 0.353 0.343 0.618C19.918 7.857 19.717 8 19.5 8c-0.045 0-0.092-6e-3-0.138-0.02-2.257-0.644-3.737-2.445-4.269-3.189zM4.02 7.638C3.944 7.372 4.098 7.095 4.363 7.02c1.954-0.558 3.26-2.151 3.73-2.811 0.16-0.224 0.472-0.274 0.698-0.116 0.225 0.161 0.276 0.473 0.116 0.698-0.532 0.744-2.013 2.546-4.27 3.189C4.591 7.994 4.544 8 4.499 8 4.281 8 4.081 7.856 4.02 7.638zM7 10.001c-0.205 0-0.398 0.04-0.584 0.097C6.759 10.257 7 10.599 7 11.001c0 0.552-0.448 1-1 1-0.403 0-0.745-0.241-0.903-0.584C5.04 11.603 5 11.796 5 12.001c0 1.105 0.895 2 2 2s2-0.895 2-2-0.895-2-2-2zM7.5 13.501c-0.276 0-0.5-0.224-0.5-0.5s0.224-0.5 0.5-0.5 0.5 0.224 0.5 0.5-0.224 0.5-0.5 0.5zM17 10.001c-0.205 0-0.398 0.04-0.584 0.097C16.759 10.257 17 10.599 17 11.001c0 0.552-0.448 1-1 1-0.403 0-0.745-0.241-0.903-0.584C15.04 11.603 15 11.796 15 12.001c0 1.105 0.895 2 2 2s2-0.895 2-2-0.895-2-2-2zM17.5 13.501c-0.276 0-0.5-0.224-0.5-0.5s0.224-0.5 0.5-0.5 0.5 0.224 0.5 0.5-0.224 0.5-0.5 0.5z" />
</svg>