<svg id="face_nauseated_Layer_1" viewBox="0 0 24 24" fill="currentColor" width="32" height="32" data-name="Layer 1" xmlns="http://www.w3.org/2000/svg" xmlns:xlink="http://www.w3.org/1999/xlink">
    <title>face-nauseated</title>
    <path d="M12 0C5.383 0 0 5.383 0 12s5.383 12 12 12 12-5.383 12-12S18.617 0 12 0zM12 23C5.935 23 1 18.065 1 12S5.935 1 12 1 23 5.935 23 12 18.065 23 12 23zM7 11c0-0.552 0.448-1 1-1s1 0.448 1 1-0.448 1-1 1-1-0.448-1-1zM17 11c0 0.552-0.448 1-1 1s-1-0.448-1-1 0.448-1 1-1 1 0.448 1 1zM16 16.5c0 0.87 0.824 1.619 0.833 1.627 0.205 0.184 0.224 0.499 0.04 0.705C16.774 18.943 16.637 19 16.499 19c-0.118 0-0.235-0.041-0.331-0.126-0.041-0.036-0.894-0.803-1.116-1.874H8.947c-0.222 1.071-1.075 1.838-1.116 1.874C7.736 18.959 7.618 19 7.5 19c-0.138 0-0.275-0.057-0.374-0.168-0.184-0.206-0.165-0.521 0.04-0.705 8e-3-8e-3 0.833-0.757 0.833-1.627s-0.824-1.619-0.833-1.627c-0.205-0.184-0.224-0.499-0.04-0.705 0.183-0.205 0.499-0.226 0.704-0.042 0.041 0.036 0.894 0.803 1.116 1.874h6.105c0.222-1.071 1.075-1.838 1.116-1.874 0.206-0.185 0.521-0.164 0.704 0.042 0.184 0.206 0.165 0.521-0.04 0.705-8e-3 8e-3-0.833 0.757-0.831 1.627zM19.981 9.638C19.918 9.857 19.718 10 19.501 10c-0.046 0-0.092-6e-3-0.138-0.02-2.259-0.645-3.738-2.445-4.27-3.19-0.161-0.225-0.108-0.536 0.116-0.697 0.225-0.16 0.538-0.107 0.697 0.117 0.471 0.658 1.775 2.251 3.73 2.81 0.266 0.075 0.419 0.353 0.345 0.618zM4.637 9.981c-0.046 0.014-0.092 0.02-0.138 0.02-0.217 0-0.417-0.144-0.48-0.362-0.076-0.266 0.078-0.543 0.344-0.618 1.955-0.559 3.26-2.151 3.73-2.81 0.161-0.225 0.473-0.276 0.697-0.117 0.225 0.161 0.277 0.473 0.116 0.697-0.531 0.745-2.011 2.546-4.269 3.19z" />
</svg>