<svg id="face_tissue_Layer_1" viewBox="0 0 24 24" fill="currentColor" width="32" height="32" data-name="Layer 1" xmlns="http://www.w3.org/2000/svg" xmlns:xlink="http://www.w3.org/1999/xlink">
    <title>face-tissue</title>
    <path d="M10.407 13.008 1.168 14.695c-0.497 0.09-0.899 0.427-1.075 0.901-0.177 0.473-0.093 0.991 0.224 1.385l1.259 1.565-1.004 2.805c-0.184 0.59-0.027 1.23 0.407 1.67 0.435 0.44 1.077 0.604 1.664 0.426 0.01-3e-3 0.02-6e-3 0.029-0.01l2.75-1.008 1.582 1.259C7.262 23.894 7.572 24 7.888 24c0.169 0 0.34-0.03 0.505-0.092 0.473-0.177 0.81-0.58 0.901-1.077l1.695-9.241c0.029-0.162-0.022-0.328-0.139-0.444-0.116-0.117-0.281-0.168-0.443-0.138zM8.309 22.651c-0.039 0.213-0.2 0.296-0.269 0.321-0.066 0.026-0.242 0.071-0.414-0.065l-1.802-1.434c-0.09-0.072-0.2-0.109-0.312-0.109-0.058 0-0.116 0.01-0.172 0.031l-2.997 1.098c-0.24 0.065-0.482 1e-3-0.655-0.175-0.177-0.179-0.238-0.429-0.17-0.649L2.61 18.62c0.059-0.164 0.028-0.346-0.081-0.482l-1.435-1.784c-0.135-0.167-0.091-0.342-0.066-0.409s0.106-0.228 0.318-0.267l8.527-1.557zM14.633 14.295 16.356 16l1.784-1.842c0.192-0.198 0.51-0.203 0.707-0.012 0.198 0.192 0.204 0.509 0.012 0.707l-1.786 1.844c-0.188 0.193-0.439 0.3-0.707 0.303h-0.01c-0.265 0-0.515-0.103-0.703-0.29l-1.723-1.705-1.072 1.1c-0.194 0.199-0.511 0.202-0.707 0.01-0.198-0.193-0.202-0.509-0.01-0.707l1.078-1.107c0.396-0.39 1.026-0.391 1.414-6e-3zM17.777 6.916 15.401 8.5l2.376 1.584c0.229 0.153 0.292 0.463 0.139 0.693C17.819 10.922 17.661 11 17.5 11c-0.096 0-0.192-0.027-0.277-0.084l-3-2C14.084 8.823 14 8.667 14 8.5s0.084-0.323 0.223-0.416l3-2c0.228-0.153 0.538-0.091 0.693 0.139 0.153 0.23 0.091 0.54-0.139 0.693zM6.222 10.084 8.598 8.5 6.222 6.916C5.993 6.763 5.93 6.453 6.083 6.223s0.466-0.291 0.693-0.139l3 2C9.915 8.177 9.999 8.333 9.999 8.5S9.915 8.823 9.776 8.916l-3 2C6.691 10.973 6.594 11 6.499 11c-0.161 0-0.319-0.078-0.416-0.223-0.153-0.23-0.091-0.54 0.139-0.693zM23.999 12c0 6.617-5.383 12-12 12-0.176 0-0.349-3e-3-0.522-0.011-0.275-0.012-0.489-0.246-0.477-0.521s0.207-0.51 0.521-0.478c0.158 7e-3 0.317 0.01 0.478 0.01 6.065 0 11-4.935 11-11S18.065 1 12 1 1 5.935 1 12c0 0.161 4e-3 0.32 0.011 0.479 0.011 0.276-0.203 0.509-0.479 0.52-0.281 0.016-0.509-0.204-0.521-0.479C4e-3 12.347 0 12.174 0 11.999 0 5.383 5.383 0 12 0s12 5.383 11.999 12z" />
</svg>