<svg id="face_awesome_Layer_1" viewBox="0 0 24 24" fill="currentColor" width="32" height="32" data-name="Layer 1" xmlns="http://www.w3.org/2000/svg" xmlns:xlink="http://www.w3.org/1999/xlink">
    <title>face-awesome</title>
    <path d="M12 0C5.38 0 0 5.38 0 12s5.38 12 12 12 12-5.38 12-12S18.62 0 12 0zM12 23C5.93 23 1 18.07 1 12S5.93 1 12 1 23 5.93 23 12 18.07 23 12 23zM18 13.01H6c0 0 0 0 0 0-0.67 0-1.26 0.31-1.64 0.86s-0.46 1.26-0.21 1.9c1.1 2.83 4.04 4.91 7.17 5.18 0.05 0.02 0.1 0.05 0.16 0.05 0.02 0 0.04 0 0.06 0 0.05 0 0.1-0.01 0.14-0.03 0.11 0 0.22 0.03 0.33 0.03 3.38 0 6.61-2.14 7.85-5.2 0.26-0.63 0.18-1.35-0.2-1.91s-0.98-0.88-1.66-0.88zM12.14 19.99C12.59 18.25 14.15 17 16 17c0.58 0 1.16 0.13 1.68 0.38-1.38 1.55-3.44 2.57-5.54 2.61zM18.92 15.42c-0.16 0.4-0.38 0.78-0.62 1.14-0.71-0.37-1.5-0.57-2.3-0.57-2.37 0-4.37 1.66-4.86 3.93-2.66-0.33-5.13-2.12-6.06-4.53-0.13-0.33-0.09-0.68 0.11-0.97 0.19-0.27 0.48-0.43 0.82-0.43h12.01c0.33 0 0.63 0.17 0.82 0.44 0.19 0.29 0.23 0.65 0.08 0.99zM4.5 11C4.78 11 5 10.78 5 10.5v-1c0-1.3 1-2.35 2.26-2.48C7.09 7.31 7 7.65 7 8c0 1.1 0.9 2 2 2 0.36 0 0.7-0.1 1-0.28v0.78c0 0.28 0.22 0.5 0.5 0.5s0.5-0.22 0.5-0.5v-1C11 7.57 9.43 6 7.5 6S4 7.57 4 9.5v1C4 10.78 4.22 11 4.5 11zM9.81 8.56C9.62 8.83 9.33 9 9 9 8.45 9 8 8.55 8 8 8 7.67 8.17 7.37 8.44 7.19 9.07 7.44 9.57 7.94 9.81 8.56zM16.5 6C14.57 6 13 7.57 13 9.5v1c0 0.28 0.22 0.5 0.5 0.5s0.5-0.22 0.5-0.5v-1c0-1.3 1-2.35 2.26-2.48C16.09 7.31 16 7.65 16 8c0 1.1 0.9 2 2 2 0.36 0 0.7-0.1 1-0.28v0.78c0 0.28 0.22 0.5 0.5 0.5s0.5-0.22 0.5-0.5v-1C20 7.57 18.43 6 16.5 6zM18 9c-0.55 0-1-0.45-1-1 0-0.33 0.17-0.63 0.44-0.81 0.63 0.25 1.13 0.75 1.38 1.38C18.63 8.84 18.34 9.01 18 9z" />
</svg>