<svg id="facial_mask_Layer_1" viewBox="0 0 24 24" fill="currentColor" width="32" height="32" data-name="Layer 1" xmlns="http://www.w3.org/2000/svg" xmlns:xlink="http://www.w3.org/1999/xlink">
    <title>facial-mask</title>
    <path d="M11 21.5v2c0 0.276-0.224 0.5-0.5 0.5S10 23.776 10 23.5v-2c0-0.276 0.224-0.5 0.5-0.5s0.5 0.224 0.5 0.5zM15.677 0h-3.354c-1.881 0-3.655 0.612-5.132 1.77-0.217 0.171-0.255 0.484-0.085 0.702C7.277 2.69 7.59 2.727 7.808 2.557 9.107 1.538 10.668 1 12.323 1h3.354c0.584 0 1.15 0.076 1.695 0.206-0.339 0.777-1.238 2.651-2.763 4.557-0.172 0.216-0.138 0.53 0.078 0.703 0.215 0.171 0.529 0.138 0.703-0.078 1.685-2.107 2.62-4.123 2.942-4.882C21.06 2.572 23 5.223 23 8.323v1.631c0 0.307-0.133 0.6-0.365 0.802-0.219 0.19-0.493 0.272-0.769 0.235-2.134-0.296-4.168-1.239-6.046-2.804-0.211-0.176-0.526-0.148-0.704 0.063-0.177 0.212-0.148 0.527 0.063 0.704 0.491 0.41 0.994 0.778 1.506 1.108C16.289 10.195 16 10.558 16 10.999c0 0.552 0.448 1 1 1s1-0.448 1-1c0-0.076-0.027-0.143-0.043-0.215 1.296 0.639 2.637 1.095 4.036 1.215 0.472 0 0.934-0.173 1.299-0.49C23.742 11.116 24 10.55 24 9.953V8.322C24 3.733 20.267 0 15.677 0zM22.869 14.005c-0.252-0.113-0.549 2e-3-0.659 0.255C22.185 14.318 19.609 20 14 20c-0.81 0-1.601-0.118-2.352-0.352-0.27-0.084-0.545 0.066-0.626 0.329-0.082 0.264 0.065 0.544 0.329 0.626 0.848 0.263 1.738 0.396 2.648 0.396 1.11 0 2.105-0.198 3-0.515v3.015c0 0.276 0.224 0.5 0.5 0.5s0.5-0.224 0.5-0.5v-3.433c3.451-1.713 5.038-5.208 5.124-5.403 0.112-0.253-2e-3-0.548-0.254-0.658zM4.5 12C3.673 12 3 11.327 3 10.5S3.673 9 4.5 9 6 9.673 6 10.5 5.327 12 4.5 12zM4.5 11C4.775 11 5 10.775 5 10.5S4.775 10 4.5 10 4 10.225 4 10.5 4.225 11 4.5 11zM11 10.5c0 0.827-0.673 1.5-1.5 1.5S8 11.327 8 10.5 8.673 9 9.5 9 11 9.673 11 10.5zM10 10.5c0-0.275-0.225-0.5-0.5-0.5S9 10.225 9 10.5 9.225 11 9.5 11 10 10.775 10 10.5zM9.885 13.514c0.164 0.298 0.153 0.646-0.027 0.931C9.403 15.163 8.381 16 7.004 16s-2.4-0.836-2.857-1.552c-0.183-0.286-0.193-0.634-0.03-0.933 0.175-0.318 0.513-0.516 0.884-0.516h4.003c0.37 0 0.709 0.198 0.881 0.515zM9.014 13.908 7.001 14H4.999c0.311 0.411 1.031 0.999 2.004 0.999s1.691-0.587 2.011-1.091zM7 20c-3.271 0-7-4.794-7-9 0-4.121 2.879-7 7-7s7 2.879 7 7c0 4.206-3.729 9-7 9zM13 11c0-3.589-2.411-6-6-6s-6 2.411-6 6c0 3.663 3.252 8 6 8s6-4.337 6-8z" />
</svg>