<svg id="facial_massage_Layer_1" viewBox="0 0 24 24" fill="currentColor" width="32" height="32" data-name="Layer 1" xmlns="http://www.w3.org/2000/svg" xmlns:xlink="http://www.w3.org/1999/xlink">
    <title>facial-massage</title>
    <path d="M8.5 14c-0.86-0.016-1.716-0.375-2.333-0.986-0.196-0.194-0.198-0.511-4e-3-0.707 0.194-0.197 0.511-0.198 0.707-4e-3C7.3 12.729 7.912 12.989 8.509 13c0.61-9e-3 1.181-0.236 1.654-0.713 0.195-0.197 0.512-0.198 0.707-4e-3 0.196 0.194 0.198 0.511 4e-3 0.707C10.219 13.652 9.368 14 8.5 14zM15.798 16.475C15.781 16.49 14.056 18 12 18s-3.781-1.511-3.798-1.525c-0.207-0.185-0.522-0.167-0.706 0.041-0.184 0.206-0.166 0.521 0.04 0.705C7.617 17.293 9.556 19 11.999 19s4.382-1.707 4.463-1.779c0.206-0.184 0.224-0.499 0.04-0.705-0.184-0.208-0.5-0.226-0.704-0.041zM16.663 12.287C16.19 12.764 15.6 12.992 15.009 13c-0.596-0.011-1.208-0.271-1.639-0.697-0.196-0.194-0.512-0.193-0.707 4e-3-0.194 0.196-0.192 0.513 4e-3 0.707C13.284 13.625 14.14 13.985 15 14c0.868 0 1.719-0.349 2.374-1.01 0.194-0.196 0.192-0.513-4e-3-0.707s-0.513-0.193-0.707 4e-3zM24 7.4v8.1c0 1.379-1.122 2.5-2.5 2.5-0.111 0-0.218-0.019-0.325-0.033C19.589 21.639 16.024 24 12 24s-7.588-2.36-9.175-6.033C2.717 17.981 2.611 18 2.5 18 1.122 18 0 16.879 0 15.5V7.399c0-2.003 0.78-3.886 2.197-5.303l1.949-1.95c0.195-0.195 0.512-0.195 0.707 0s0.195 0.512 0 0.707l-1.95 1.95c-1.228 1.228-1.904 2.86-1.904 4.596V15.5c0 0.827 0.673 1.5 1.5 1.5s1.5-0.673 1.5-1.5c0 0 9e-3-8.037 0.011-8.057 0.013-0.551 0.199-1.099 0.573-1.544l2.638-2.746c0.191-0.198 0.507-0.205 0.707-0.014 0.199 0.191 0.205 0.508 0.014 0.707L5.326 6.567C5.1 6.837 4.99 7.182 4.998 7.529v4e-3c9e-3 0.347 0.135 0.694 0.382 0.97 0.55 0.614 1.499 0.667 2.113 0.116l2.729-2.512c1.128-1.039 1.776-2.514 1.776-4.047V0.5c0-0.276 0.224-0.5 0.5-0.5s0.5 0.224 0.5 0.5v1.559c0 0.814-0.162 1.61-0.452 2.356 0.303 0.638 0.707 1.212 1.228 1.692l2.734 2.516c0.61 0.547 1.558 0.495 2.108-0.12 0.494-0.551 0.507-1.394 0.032-1.96l-2.593-2.695c-0.191-0.199-0.185-0.516 0.014-0.707 0.2-0.191 0.516-0.185 0.707 0.014l2.616 2.721c0.38 0.451 0.586 0.997 0.607 1.544 5e-3 0.028 0 8.082 0 8.082 0 0.827 0.673 1.5 1.5 1.5s1.5-0.673 1.5-1.5V7.399c0-1.736-0.676-3.369-1.904-4.596l-1.95-1.95c-0.195-0.195-0.195-0.512 0-0.707s0.512-0.195 0.707 0l1.95 1.95C23.219 3.513 23.999 5.396 24 7.4zM20.215 17.634C19.49 17.196 19 16.408 19 15.501V9.497C18.56 9.828 18.033 10 17.502 10c-0.593 0-1.188-0.21-1.664-0.636l-2.739-2.521c-0.43-0.396-0.794-0.847-1.1-1.336-0.305 0.488-0.669 0.941-1.098 1.336L8.167 9.359c-0.479 0.429-1.076 0.64-1.671 0.64-0.53 0-1.056-0.172-1.496-0.502v6.004c0 0.907-0.49 1.695-1.215 2.133 1.443 3.265 4.619 5.367 8.215 5.367s6.772-2.102 8.215-5.367z" />
</svg>