<svg id="facial_treatment_Layer_1" viewBox="0 0 24 24" fill="currentColor" width="32" height="32" data-name="Layer 1" xmlns="http://www.w3.org/2000/svg" xmlns:xlink="http://www.w3.org/1999/xlink">
    <title>facial-treatment</title>
    <path d="M5.8 14H3.5C1.57 14 0 15.57 0 17.5v4C0 22.879 1.122 24 2.5 24S5 22.879 5 21.5V17h0.8C6.462 17 7 16.462 7 15.8v-0.6C7 14.538 6.461 14 5.8 14zM6 15.8C6 15.91 5.91 16 5.8 16H4.5C4.224 16 4 16.224 4 16.5v5C4 22.327 3.327 23 2.5 23S1 22.327 1 21.5v-4C1 16.121 2.122 15 3.5 15h2.3C5.91 15 6 15.09 6 15.2zM15.677 0h-3.353C7.734 0 4 3.733 4 8.323v1.624c0 0.599 0.259 1.168 0.711 1.562C5.076 11.827 5.539 12 6.01 12c1.454-0.124 2.833-0.606 4.025-1.175C10.024 10.884 10 10.938 10 11c0 0.552 0.448 1 1 1s1-0.448 1-1c0-0.418-0.257-0.774-0.621-0.924 1.001-0.637 1.893-1.373 2.668-2.153 0.849 0.84 1.731 1.551 2.642 2.139C16.291 10.194 16 10.557 16 10.999c0 0.552 0.448 1 1 1s1-0.448 1-1c0-0.076-0.027-0.144-0.043-0.215 1.213 0.611 2.472 1.017 3.773 1.197 0.561 0.081 1.13-0.095 1.562-0.472C23.742 11.116 24 10.55 24 9.953V8.322C24 3.733 20.267 0 15.677 0zM13.778 6.714c-1.882 2.021-4.338 3.815-7.64 4.277-0.274 0.037-0.551-0.046-0.77-0.236C5.134 10.552 5 10.257 5 9.947V8.323C5 4.285 8.286 1 12.324 1h3.353c0.584 0 1.153 0.068 1.698 0.198-0.399 0.908-1.567 3.307-3.597 5.516zM23 9.954c0 0.307-0.133 0.6-0.365 0.802-0.219 0.19-0.493 0.272-0.769 0.235-2.553-0.354-4.95-1.63-7.134-3.796 2.081-2.337 3.232-4.812 3.604-5.695 2.727 1.067 4.663 3.724 4.663 6.823zM23.124 14.664c-0.086 0.195-1.673 3.69-5.124 5.403V23.5c0 0.276-0.224 0.5-0.5 0.5S17 23.776 17 23.5v-3.015C16.105 20.802 15.11 21 14 21c-1.043 0-2.045-0.174-3-0.514V23.5c0 0.276-0.224 0.5-0.5 0.5S10 23.776 10 23.5v-3.448c-0.625-0.313-1.228-0.696-1.805-1.164-0.214-0.174-0.248-0.489-0.074-0.703s0.488-0.249 0.704-0.074C10.371 19.364 12.112 20 14 20c5.609 0 8.185-5.683 8.21-5.74 0.111-0.253 0.408-0.368 0.659-0.255 0.253 0.111 0.367 0.406 0.255 0.659z" />
</svg>