<svg id="fail_Layer_1" viewBox="0 0 24 24" fill="currentColor" width="32" height="32" data-name="Layer 1" xmlns="http://www.w3.org/2000/svg" xmlns:xlink="http://www.w3.org/1999/xlink">
    <title>fail</title>
    <path d="M11.604 9.104c-0.093-0.459-0.307-1.119-1.206-1.119S9.28 8.674 9.2 9.073l-1.27 6.342C7.869 15.717 8.099 15.998 8.407 16h0.018c0.233 1e-3 0.435-0.163 0.481-0.392L9.229 14h2.36l0.328 1.595c0.047 0.226 0.245 0.389 0.476 0.39 0.31 2e-3 0.543-0.282 0.481-0.585zM9.43 13l0.75-3.73c0.024-0.118 0.106-0.284 0.218-0.284s0.188 0.132 0.225 0.316L11.384 13zM19.5 3h-15C2.019 3 0 5.019 0 7.5v9C0 18.981 2.019 21 4.5 21h15c2.481 0 4.5-2.019 4.5-4.5v-9C24 5.019 21.981 3 19.5 3zM23 16.5c0 1.93-1.57 3.5-3.5 3.5h-15C2.57 20 1 18.43 1 16.5v-9C1 5.57 2.57 4 4.5 4h15C21.43 4 23 5.57 23 7.5zM5 9.5V12h1.5C6.776 12 7 12.224 7 12.5S6.776 13 6.5 13H5v2.5C5 15.776 4.776 16 4.5 16S4 15.776 4 15.5v-6C4 8.673 4.673 8 5.5 8h1C6.776 8 7 8.224 7 8.5S6.776 9 6.5 9h-1C5.224 9 5 9.225 5 9.5zM15 8.5v7c0 0.276-0.224 0.5-0.5 0.5S14 15.776 14 15.5v-7C14 8.224 14.224 8 14.5 8S15 8.224 15 8.5zM20 15.5c0 0.276-0.224 0.5-0.5 0.5h-1c-0.827 0-1.5-0.673-1.5-1.5v-6C17 8.224 17.224 8 17.5 8S18 8.224 18 8.5v6c0 0.275 0.225 0.5 0.5 0.5h1c0.276 0 0.5 0.224 0.5 0.5z" />
</svg>