<svg id="falafel_Layer_1" viewBox="0 0 24 24" fill="currentColor" width="32" height="32" data-name="Layer 1" xmlns="http://www.w3.org/2000/svg" xmlns:xlink="http://www.w3.org/1999/xlink">
    <title>falafel</title>
    <path d="M22.899 14.34c-0.112-0.076-0.165-0.211-0.139-0.352 0.152-0.811-0.098-1.64-0.67-2.218-0.574-0.578-1.396-0.83-2.206-0.678-0.135 0.022-0.265-0.027-0.34-0.139-0.466-0.696-1.24-1.112-2.068-1.112-0.061 0-0.118 0.018-0.178 0.022 0.019-0.081 0.055-0.156 0.126-0.204 0.689-0.47 1.101-1.247 1.101-2.081s-0.412-1.611-1.101-2.081c-0.112-0.076-0.165-0.211-0.138-0.352 0.151-0.812-0.1-1.641-0.671-2.217-0.573-0.58-1.399-0.832-2.206-0.679-0.135 0.022-0.266-0.027-0.34-0.138-0.465-0.697-1.239-1.113-2.068-1.113S10.398 1.414 9.933 2.11c-0.075 0.111-0.205 0.162-0.34 0.139-0.81-0.151-1.633 0.1-2.206 0.678-0.572 0.577-0.823 1.406-0.671 2.219 0.026 0.14-0.027 0.274-0.139 0.351-0.689 0.47-1.101 1.247-1.101 2.081s0.412 1.611 1.101 2.081c0.07 0.048 0.107 0.122 0.126 0.204-0.06-4e-3-0.117-0.022-0.178-0.022-0.829 0-1.602 0.416-2.068 1.112-0.075 0.111-0.204 0.162-0.34 0.139-0.808-0.152-1.632 0.099-2.207 0.679-0.572 0.577-0.823 1.406-0.671 2.217 0.026 0.141-0.026 0.275-0.138 0.352C0.412 14.81 0 15.587 0 16.421s0.412 1.611 1.101 2.081c0.112 0.076 0.165 0.211 0.139 0.352-0.152 0.811 0.098 1.64 0.67 2.217 0.575 0.581 1.387 0.871 2.213 0.695 0.134-0.034 0.267 0.024 0.346 0.14 0.467 0.686 1.235 1.095 2.056 1.095s1.589-0.409 2.056-1.095c0.078-0.115 0.209-0.175 0.345-0.14 0.828 0.175 1.638-0.114 2.212-0.694 0.572-0.577 0.823-1.406 0.671-2.219-0.026-0.14 0.079-0.32 0.191-0.396 0.112 0.076 0.219 0.257 0.192 0.397-0.151 0.812 0.1 1.641 0.671 2.217 0.574 0.581 1.386 0.871 2.212 0.695 0.134-0.033 0.268 0.024 0.346 0.14 0.467 0.686 1.235 1.095 2.056 1.095s1.589-0.409 2.056-1.094c0.078-0.116 0.212-0.175 0.345-0.141 0.83 0.175 1.639-0.114 2.213-0.695 0.572-0.577 0.823-1.406 0.671-2.217-0.026-0.141 0.026-0.275 0.138-0.352 0.689-0.47 1.101-1.247 1.101-2.081s-0.412-1.611-1.102-2.081zM11.383 17.676c-0.438 0.299-0.657 0.834-0.558 1.361 0.093 0.496-0.052 0.981-0.398 1.33-0.337 0.341-0.791 0.532-1.292 0.42-0.533-0.11-1.074 0.104-1.381 0.556-0.562 0.822-1.898 0.823-2.46 0-0.253-0.371-0.666-0.584-1.101-0.584-0.093 0-0.187 0.01-0.281 0.029-0.495 0.109-0.956-0.08-1.293-0.42-0.346-0.35-0.491-0.834-0.397-1.33 0.099-0.528-0.121-1.062-0.558-1.361C1.248 17.394 1 16.925 1 16.422s0.248-0.972 0.664-1.255c0.438-0.298 0.656-0.832 0.558-1.361-0.093-0.496 0.052-0.98 0.398-1.329 0.344-0.349 0.82-0.495 1.31-0.4 0.524 0.097 1.06-0.122 1.357-0.564 0.561-0.838 1.914-0.838 2.475 0 0.296 0.442 0.826 0.661 1.358 0.564 0.488-0.095 0.964 0.052 1.309 0.4 0.346 0.348 0.491 0.833 0.398 1.329-0.1 0.528 0.12 1.062 0.558 1.361 0.416 0.283 0.664 0.752 0.664 1.255s-0.248 0.972-0.666 1.254zM11.998 14.385c-0.112-0.076-0.216-0.256-0.189-0.397 0.151-0.812-0.1-1.641-0.671-2.217-0.573-0.579-1.397-0.832-2.206-0.679-0.135 0.023-0.266-0.027-0.34-0.139-0.232-0.346-0.54-0.622-0.892-0.813 0.075-0.51-0.137-1.019-0.56-1.307C6.724 8.55 6.476 8.081 6.476 7.578S6.724 6.606 7.14 6.323c0.438-0.299 0.657-0.834 0.558-1.361-0.093-0.496 0.052-0.981 0.398-1.33 0.343-0.348 0.819-0.494 1.309-0.399 0.525 0.098 1.06-0.121 1.357-0.565 0.56-0.836 1.915-0.837 2.475 0 0.297 0.443 0.833 0.662 1.357 0.564 0.491-0.092 0.965 0.053 1.309 0.4 0.346 0.348 0.491 0.833 0.398 1.328-0.1 0.528 0.119 1.063 0.558 1.362 0.416 0.283 0.664 0.752 0.664 1.255s-0.248 0.972-0.664 1.255c-0.423 0.289-0.635 0.798-0.56 1.307-0.352 0.191-0.66 0.467-0.892 0.813-0.074 0.111-0.202 0.164-0.339 0.139-0.807-0.15-1.632 0.099-2.206 0.678-0.572 0.577-0.823 1.406-0.671 2.218 0.026 0.141-0.08 0.319-0.193 0.398zM22.335 17.676c-0.438 0.299-0.657 0.833-0.558 1.361 0.093 0.496-0.052 0.98-0.398 1.33-0.336 0.34-0.789 0.529-1.293 0.42-0.531-0.111-1.074 0.104-1.381 0.556-0.562 0.822-1.898 0.822-2.46 0-0.307-0.451-0.847-0.666-1.381-0.556-0.501 0.111-0.955-0.079-1.292-0.421-0.346-0.348-0.491-0.833-0.398-1.328 0.095-0.504-0.106-1.009-0.505-1.314 0.237-0.389 0.38-0.833 0.38-1.303s-0.142-0.914-0.38-1.303c0.399-0.305 0.601-0.809 0.506-1.313-0.093-0.496 0.052-0.981 0.398-1.33 0.343-0.348 0.818-0.494 1.309-0.399 0.529 0.097 1.061-0.122 1.357-0.564 0.561-0.838 1.914-0.838 2.475 0 0.297 0.443 0.832 0.661 1.357 0.564 0.488-0.095 0.964 0.053 1.309 0.399 0.346 0.35 0.491 0.834 0.397 1.33-0.098 0.529 0.121 1.063 0.558 1.361 0.416 0.283 0.664 0.752 0.664 1.255s-0.248 0.972-0.664 1.255z" />
</svg>