<svg id="family_dress_Layer_1" viewBox="0 0 24 24" fill="currentColor" width="32" height="32" data-name="Layer 1" xmlns="http://www.w3.org/2000/svg" xmlns:xlink="http://www.w3.org/1999/xlink">
    <title>family-dress</title>
    <path d="M5.5 5C6.878 5 8 3.879 8 2.5S6.878 0 5.5 0 3 1.121 3 2.5 4.122 5 5.5 5zM5.5 1C6.327 1 7 1.673 7 2.5S6.327 4 5.5 4 4 3.327 4 2.5 4.673 1 5.5 1zM7.904 7.447C7.741 7.669 7.429 7.72 7.205 7.555 6.707 7.192 6.117 6.999 5.499 6.999c-1.366 0-2.559 0.971-2.835 2.31l-1.66 8.043c-0.047 0.388 0.085 0.817 0.37 1.14S2.068 19 2.499 19h3.5c0.276 0 0.5 0.224 0.5 0.5S6.275 20 5.999 20h-2v3.5c0 0.276-0.224 0.5-0.5 0.5s-0.5-0.224-0.5-0.5V20h-0.5c-0.717 0-1.4-0.309-1.874-0.846-0.475-0.537-0.695-1.253-0.606-1.965l1.666-8.082C2.057 7.306 3.661 6 5.499 6 6.331 6 7.124 6.259 7.794 6.749c0.223 0.162 0.271 0.476 0.11 0.698zM12 10c1.379 0 2.5-1.121 2.5-2.5S13.379 5 12 5 9.5 6.121 9.5 7.5 10.622 10 12 10zM12 6c0.827 0 1.5 0.673 1.5 1.5S12.827 9 12 9s-1.5-0.673-1.5-1.5S11.173 6 12 6zM13 11h-2c-1.654 0-3 1.346-3 3v3c0 1.304 0.836 2.415 2 2.828V23.5c0 0.276 0.224 0.5 0.5 0.5s0.5-0.224 0.5-0.5V20h2v3.5c0 0.276 0.224 0.5 0.5 0.5s0.5-0.224 0.5-0.5v-3.672c1.164-0.413 2-1.524 2-2.828v-3c0-1.654-1.346-3-3-3zM15 17c0 1.103-0.897 2-2 2h-2c-1.103 0-2-0.897-2-2v-3c0-1.103 0.897-2 2-2h2c1.103 0 2 0.897 2 2zM18.5 5C19.879 5 21 3.879 21 2.5S19.879 0 18.5 0 16 1.121 16 2.5 17.121 5 18.5 5zM18.5 1C19.327 1 20 1.673 20 2.5S19.327 4 18.5 4 17 3.327 17 2.5 17.673 1 18.5 1zM23.374 19.154C22.9 19.691 22.217 20 21.5 20H21v3.5c0 0.276-0.224 0.5-0.5 0.5S20 23.776 20 23.5V20h-2c-0.276 0-0.5-0.224-0.5-0.5S17.724 19 18 19h3.5c0.43 0 0.84-0.185 1.125-0.508 0.284-0.322 0.417-0.752 0.363-1.178l-1.653-8.006C21.059 7.97 19.866 6.999 18.5 6.999c-0.618 0-1.208 0.192-1.705 0.556-0.222 0.162-0.535 0.114-0.698-0.108s-0.115-0.535 0.108-0.698C16.874 6.259 17.668 6 18.5 6c1.839 0 3.442 1.307 3.813 3.107l1.66 8.044c0.096 0.75-0.125 1.466-0.599 2.003z" />
</svg>