<svg id="family_Layer_1" viewBox="0 0 24 24" fill="currentColor" width="32" height="32" data-name="Layer 1" xmlns="http://www.w3.org/2000/svg" xmlns:xlink="http://www.w3.org/1999/xlink">
    <title>family</title>
    <path d="M18.5 5C19.878 5 21 3.879 21 2.5S19.878 0 18.5 0 16 1.121 16 2.5 17.122 5 18.5 5zM18.5 1C19.327 1 20 1.673 20 2.5S19.327 4 18.5 4 17 3.327 17 2.5 17.673 1 18.5 1zM23.374 19.154C22.9 19.691 22.217 20 21.5 20H21v3.5c0 0.276-0.224 0.5-0.5 0.5S20 23.776 20 23.5V20h-2c-0.276 0-0.5-0.224-0.5-0.5S17.724 19 18 19h3.5c0.43 0 0.84-0.185 1.125-0.508 0.285-0.322 0.417-0.752 0.364-1.178l-1.653-8.006c-0.276-1.338-1.469-2.309-2.835-2.309-0.618 0-1.208 0.192-1.706 0.556-0.224 0.165-0.535 0.113-0.699-0.108-0.163-0.223-0.114-0.536 0.109-0.698C16.875 6.259 17.669 6 18.5 6c1.838 0 3.442 1.307 3.814 3.106l1.66 8.045c0.095 0.75-0.125 1.466-0.6 2.003zM12 10c1.378 0 2.5-1.121 2.5-2.5S13.378 5 12 5 9.5 6.121 9.5 7.5 10.622 10 12 10zM12 6c0.827 0 1.5 0.673 1.5 1.5S12.827 9 12 9s-1.5-0.673-1.5-1.5S11.173 6 12 6zM13 11h-2c-1.654 0-3 1.346-3 3v3c0 1.304 0.836 2.415 2 2.828V23.5c0 0.276 0.224 0.5 0.5 0.5s0.5-0.224 0.5-0.5V20h2v3.5c0 0.276 0.224 0.5 0.5 0.5s0.5-0.224 0.5-0.5v-3.672c1.164-0.413 2-1.524 2-2.828v-3c0-1.654-1.346-3-3-3zM15 17c0 1.103-0.897 2-2 2h-2c-1.103 0-2-0.897-2-2v-3c0-1.103 0.897-2 2-2h2c1.103 0 2 0.897 2 2zM4.5 5C5.878 5 7 3.879 7 2.5S5.878 0 4.5 0 2 1.121 2 2.5 3.122 5 4.5 5zM4.5 1C5.327 1 6 1.673 6 2.5S5.327 4 4.5 4 3 3.327 3 2.5 3.673 1 4.5 1zM7.433 7.151C7.294 7.389 6.988 7.472 6.75 7.334 6.371 7.115 5.939 7 5.5 7h-2C2.122 7 1 8.121 1 9.5v4C1 14.879 2.122 16 3.5 16h2C5.776 16 6 16.224 6 16.5S5.776 17 5.5 17h-2c-0.17 0-0.337-0.012-0.5-0.036V23.5C3 23.776 2.776 24 2.5 24S2 23.776 2 23.5v-6.838c-1.181-0.563-2-1.769-2-3.162v-4C0 7.57 1.57 6 3.5 6h2c0.614 0 1.219 0.162 1.75 0.469 0.239 0.138 0.321 0.443 0.183 0.682z" />
</svg>