<svg id="family_pants_Layer_1" viewBox="0 0 24 24" fill="currentColor" width="32" height="32" data-name="Layer 1" xmlns="http://www.w3.org/2000/svg" xmlns:xlink="http://www.w3.org/1999/xlink">
    <title>family-pants</title>
    <path d="M12 10c1.379 0 2.5-1.121 2.5-2.5S13.379 5 12 5 9.5 6.121 9.5 7.5 10.621 10 12 10zM12 6c0.827 0 1.5 0.673 1.5 1.5S12.827 9 12 9s-1.5-0.673-1.5-1.5S11.173 6 12 6zM13 11h-2c-1.654 0-3 1.346-3 3v3c0 1.304 0.836 2.415 2 2.828V23.5c0 0.276 0.224 0.5 0.5 0.5s0.5-0.224 0.5-0.5V20h2v3.5c0 0.276 0.224 0.5 0.5 0.5s0.5-0.224 0.5-0.5v-3.672c1.164-0.413 2-1.524 2-2.828v-3c0-1.654-1.346-3-3-3zM15 17c0 1.103-0.897 2-2 2h-2c-1.103 0-2-0.897-2-2v-3c0-1.103 0.897-2 2-2h2c1.103 0 2 0.897 2 2zM19.5 5C20.879 5 22 3.879 22 2.5S20.879 0 19.5 0 17 1.121 17 2.5 18.121 5 19.5 5zM19.5 1C20.327 1 21 1.673 21 2.5S20.327 4 19.5 4 18 3.327 18 2.5 18.673 1 19.5 1zM24 9.5v4c0 1.393-0.819 2.599-2 3.162V23.5c0 0.276-0.224 0.5-0.5 0.5S21 23.776 21 23.5v-6.536C20.837 16.987 20.67 17 20.5 17h-2c-0.276 0-0.5-0.224-0.5-0.5s0.224-0.5 0.5-0.5h2c1.379 0 2.5-1.121 2.5-2.5v-4C23 8.121 21.879 7 20.5 7h-2c-0.438 0-0.871 0.115-1.25 0.334-0.24 0.139-0.546 0.057-0.683-0.183-0.139-0.239-0.057-0.545 0.183-0.683 0.53-0.307 1.136-0.469 1.75-0.469h2c1.93 0 3.5 1.57 3.5 3.501zM4.5 5C5.879 5 7 3.879 7 2.5S5.879 0 4.5 0 2 1.121 2 2.5 3.121 5 4.5 5zM4.5 1C5.327 1 6 1.673 6 2.5S5.327 4 4.5 4 3 3.327 3 2.5 3.673 1 4.5 1zM7.433 7.151C7.296 7.391 6.991 7.473 6.75 7.334 6.371 7.115 5.938 7 5.5 7h-2C2.121 7 1 8.121 1 9.5v4C1 14.879 2.121 16 3.5 16h2C5.776 16 6 16.224 6 16.5S5.776 17 5.5 17h-2c-0.17 0-0.337-0.012-0.5-0.036V23.5C3 23.776 2.776 24 2.5 24S2 23.776 2 23.5v-6.838c-1.181-0.563-2-1.769-2-3.162v-4C0 7.57 1.57 6 3.5 6h2c0.614 0 1.22 0.162 1.75 0.469 0.239 0.138 0.321 0.443 0.183 0.682z" />
</svg>