<svg id="family_law_Layer_1" viewBox="0 0 24 24" fill="currentColor" width="32" height="32" data-name="Layer 1" xmlns="http://www.w3.org/2000/svg" xmlns:xlink="http://www.w3.org/1999/xlink">
    <title>family-law</title>
    <path d="M4.5 18c1.654 0 3-1.346 3-3s-1.346-3-3-3-3 1.346-3 3 1.346 3 3 3zM4.5 13c1.103 0 2 0.897 2 2s-0.897 2-2 2-2-0.897-2-2 0.897-2 2-2zM16.5 15c0 1.654 1.346 3 3 3s3-1.346 3-3-1.346-3-3-3-3 1.346-3 3zM19.5 13c1.103 0 2 0.897 2 2s-0.897 2-2 2-2-0.897-2-2 0.897-2 2-2zM24 23.5c0 0.276-0.224 0.5-0.5 0.5S23 23.776 23 23.5c0-1.93-1.57-3.5-3.5-3.5S16 21.57 16 23.5c0 0.262-0.203 0.48-0.465 0.499-0.012 0-0.023 1e-3-0.035 1e-3-0.247 0-0.46-0.182-0.495-0.429C14.796 22.105 13.504 21 12 21s-2.796 1.105-3.005 2.571c-0.036 0.26-0.264 0.449-0.53 0.428C8.203 23.98 8 23.763 8 23.5 8 21.57 6.43 20 4.5 20S1 21.57 1 23.5C1 23.776 0.776 24 0.5 24S0 23.776 0 23.5C0 21.018 2.019 19 4.5 19c1.867 0 3.473 1.144 4.153 2.767C9.385 20.697 10.626 20 12 20s2.614 0.697 3.347 1.767C16.028 20.143 17.633 19 19.5 19c2.481 0 4.5 2.019 4.5 4.5zM9.5 16.5c0 1.378 1.121 2.5 2.5 2.5s2.5-1.122 2.5-2.5S13.379 14 12 14s-2.5 1.122-2.5 2.5zM13.5 16.5c0 0.827-0.673 1.5-1.5 1.5s-1.5-0.673-1.5-1.5S11.173 15 12 15s1.5 0.673 1.5 1.5zM7.5 9c1.103 0 2-0.897 2-2 0-0.122 0-0.323-1.294-4H11.5v8H9c-0.276 0-0.5 0.224-0.5 0.5S8.724 12 9 12h6c0.276 0 0.5-0.224 0.5-0.5S15.276 11 15 11h-2.5V3h3.293 0.019c0 0-1.312 3.946-1.312 3.999 0 1.103 0.897 2 2 2s2-0.897 2-2c0-0.134 0-0.317-1.292-3.997-0.211-0.6-0.779-1.003-1.415-1.003H12.5V0.5C12.5 0.224 12.276 0 12 0s-0.5 0.224-0.5 0.5V2H8.221C7.575 2 7.002 2.412 6.798 3.025 6.798 3.025 5.5 6.946 5.5 7c0 1.103 0.897 2 2 2zM17.5 7h-1.973l0.987-2.951C17.402 6.598 17.493 6.989 17.5 7zM7.513 4.044C8.198 6.008 8.477 6.888 8.5 7H6.527z" />
</svg>