<svg id="fan_table_Layer_1" viewBox="0 0 24 24" fill="currentColor" width="32" height="32" data-name="Layer 1" xmlns="http://www.w3.org/2000/svg" xmlns:xlink="http://www.w3.org/1999/xlink">
    <title>fan-table</title>
    <path d="M21.5 9.5c0-4.184-2.723-7.738-6.487-9.002-5e-3-2e-3-0.011-4e-3-0.016-6e-3C14.054 0.177 13.048 0 12 0S9.946 0.177 9.003 0.492c-5e-3 2e-3-0.011 4e-3-0.016 6e-3C5.223 1.762 2.5 5.316 2.5 9.5c0 5.07 3.995 9.212 9 9.475V23h-5C6.224 23 6 23.224 6 23.5S6.224 24 6.5 24h11c0.276 0 0.5-0.224 0.5-0.5S17.776 23 17.5 23h-5v-4.025c5.005-0.263 9-4.405 9-9.475zM7.118 16.447c1.513-1.402 3.816-4.454 4.882-6.028 1.066 1.573 3.369 4.626 4.882 6.028C15.499 17.422 13.817 18 12 18s-3.499-0.578-4.882-1.553zM17.67 15.815c-1.293-1.153-3.523-4.044-4.676-5.713 2.025 0.311 5.688 1.281 7.125 1.917-0.461 1.481-1.322 2.783-2.449 3.796zM20.5 9.5c0 0.525-0.055 1.037-0.146 1.535-1.754-0.726-5.578-1.72-7.578-1.973 0.831-1.808 2.152-5.508 2.465-7.417C18.324 2.922 20.5 5.96 20.5 9.5zM14.284 1.321c-0.2 1.566-1.46 5.144-2.284 7.025-0.824-1.881-2.084-5.459-2.284-7.025C10.444 1.117 11.208 1 12 1s1.556 0.117 2.284 0.321zM8.76 1.646c0.313 1.908 1.634 5.608 2.465 7.417-2 0.254-5.824 1.247-7.578 1.973-0.092-0.499-0.146-1.01-0.146-1.535 0-3.54 2.176-6.578 5.259-7.855zM3.881 12.019c1.437-0.635 5.1-1.606 7.125-1.917-1.153 1.669-3.383 4.56-4.676 5.713-1.127-1.013-1.989-2.315-2.449-3.796z" />
</svg>