<svg id="fan_Layer_1" viewBox="0 0 24 24" fill="currentColor" width="32" height="32" data-name="Layer 1" xmlns="http://www.w3.org/2000/svg" xmlns:xlink="http://www.w3.org/1999/xlink">
    <title>fan</title>
    <path d="M22.98 10.346c-0.721-0.804-1.714-1.278-2.798-1.336-1.661-0.081-4.16 0.444-5.969 0.983-0.179-0.197-0.378-0.371-0.603-0.515 0.164-0.177 0.324-0.352 0.494-0.533 1.375-1.456 2.797-2.96 2.89-4.691 0.119-2.222-1.574-4.128-3.775-4.248-1.067-0.062-2.08 0.302-2.872 1.013C9.543 1.74 9.069 2.734 9.011 3.817 8.921 5.493 9.454 7.978 9.993 9.786c-0.197 0.179-0.371 0.378-0.515 0.603-0.178-0.164-0.354-0.325-0.534-0.495-1.455-1.374-2.96-2.795-4.69-2.888-2.2-0.114-4.127 1.575-4.248 3.775-0.059 1.06 0.302 2.08 1.014 2.873 0.721 0.804 1.714 1.278 2.798 1.336C3.943 14.996 4.073 15 4.207 15c1.655 0 3.907-0.494 5.58-0.993 0.178 0.197 0.378 0.371 0.603 0.515-0.164 0.177-0.324 0.352-0.494 0.533-1.375 1.456-2.796 2.96-2.889 4.691-0.119 2.222 1.574 4.127 3.775 4.247 0.074 4e-3 0.147 6e-3 0.221 6e-3 0.979 0 1.914-0.358 2.651-1.02 0.804-0.721 1.278-1.714 1.336-2.798 0.09-1.676-0.443-4.161-0.982-5.969 0.197-0.179 0.371-0.378 0.515-0.603 0.178 0.164 0.354 0.325 0.534 0.495 1.455 1.374 2.96 2.795 4.69 2.888 0.073 4e-3 0.146 6e-3 0.22 6e-3 2.125 0 3.91-1.654 4.027-3.781 0.059-1.06-0.302-2.08-1.014-2.871zM12 14c-1.103 0-2-0.897-2-2s0.897-2 2-2 2 0.897 2 2-0.897 2-2 2zM10.009 3.871c0.044-0.817 0.401-1.565 1.006-2.108 0.595-0.533 1.36-0.801 2.149-0.759 1.651 0.09 2.921 1.524 2.832 3.195-0.073 1.365-1.367 2.734-2.618 4.059-0.258 0.274-0.51 0.543-0.751 0.81C12.425 9.025 12.215 9 12 9c-0.4 0-0.78 0.082-1.129 0.224-0.468-1.64-0.941-3.886-0.862-5.353zM3.87 13.991c-0.816-0.043-1.564-0.4-2.106-1.005-0.533-0.594-0.803-1.358-0.76-2.15C1.095 9.185 2.558 7.912 4.2 8.005 5.564 8.078 6.932 9.37 8.257 10.621c0.274 0.259 0.544 0.511 0.811 0.753C9.025 11.577 9 11.786 9 12.001c0 0.4 0.082 0.78 0.224 1.129-1.64 0.469-3.883 0.943-5.354 0.861zM13.991 20.129c-0.044 0.816-0.401 1.565-1.006 2.107-0.593 0.533-1.359 0.801-2.149 0.759-1.651-0.09-2.921-1.524-2.832-3.195 0.073-1.365 1.367-2.734 2.618-4.058 0.258-0.275 0.51-0.544 0.751-0.81C11.575 14.975 11.785 15 12 15c0.4 0 0.78-0.082 1.129-0.224 0.468 1.64 0.941 3.886 0.862 5.353zM19.8 15.995c-1.364-0.073-2.732-1.365-4.057-2.616-0.274-0.259-0.544-0.511-0.811-0.753C14.975 12.424 15 12.214 15 11.999c0-0.4-0.082-0.78-0.224-1.129 1.64-0.469 3.886-0.938 5.354-0.862 0.816 0.043 1.564 0.4 2.106 1.005 0.533 0.594 0.803 1.358 0.76 2.15-0.091 1.651-1.53 2.932-3.196 2.832z" />
</svg>