<svg id="farfalle_Layer_1" viewBox="0 0 24 24" fill="currentColor" width="32" height="32" data-name="Layer 1" xmlns="http://www.w3.org/2000/svg" xmlns:xlink="http://www.w3.org/1999/xlink">
    <title>farfalle</title>
    <path d="M22.552 14.638c-0.149-0.161-0.149-0.413 0-0.573l1.016-1.098c0.503-0.542 0.503-1.392 0-1.933l-1.017-1.098c-0.149-0.161-0.149-0.413 0-0.573l1.018-1.099c0.501-0.542 0.501-1.391 0-1.933L22.502 5.18c-0.141-0.152-0.15-0.381-0.018-0.552l0.815-1.096c0.234-0.301 0.267-0.697 0.084-1.032-0.184-0.334-0.537-0.535-0.928-0.497-2.762 0.241-4.737 1.405-6.479 2.433-1.424 0.839-2.653 1.563-3.977 1.563S9.446 5.274 8.022 4.436C6.28 3.409 4.304 2.245 1.542 2.003 1.166 1.967 0.799 2.166 0.615 2.5 0.432 2.835 0.465 3.23 0.692 3.524L1.52 4.635C1.647 4.799 1.637 5.028 1.496 5.18L0.431 6.332c-0.501 0.542-0.501 1.391 0 1.933l1.018 1.099c0.149 0.161 0.149 0.413 0 0.573l-1.016 1.097c-0.503 0.542-0.503 1.392 0 1.933l1.018 1.098c0.148 0.16 0.148 0.412 0 0.573l-1.019 1.098c-0.501 0.542-0.501 1.392 0 1.934l1.065 1.15c0.142 0.152 0.151 0.382 0.019 0.553L0.7 20.472c-0.233 0.301-0.265 0.696-0.082 1.031 0.182 0.334 0.534 0.537 0.927 0.496 2.762-0.241 4.737-1.406 6.48-2.434 1.423-0.84 2.652-1.564 3.976-1.564s2.553 0.725 3.976 1.564c1.743 1.027 3.719 2.192 6.481 2.434 0.027 3e-3 0.056 4e-3 0.083 4e-3 0.35 0 0.674-0.19 0.843-0.5 0.183-0.335 0.151-0.73-0.076-1.024l-0.828-1.113c-0.127-0.163-0.117-0.393 0.023-0.545l1.067-1.15c0.501-0.542 0.501-1.392 0-1.934zM22.836 16.99l-1.067 1.15c-0.475 0.513-0.509 1.285-0.087 1.83l0.862 1.032c-2.537-0.222-4.408-1.325-6.06-2.299C14.999 17.827 13.595 17 12 17s-2.999 0.827-4.484 1.703c-1.651 0.974-3.522 2.077-6.02 2.372l0.816-1.098c0.428-0.553 0.394-1.325-0.082-1.838l-1.065-1.15c-0.149-0.161-0.149-0.413 0-0.574l1.019-1.098c0.502-0.543 0.502-1.392 0-1.933l-1.018-1.099c-0.148-0.16-0.148-0.412 0-0.573l1.017-1.098c0.501-0.542 0.501-1.391 0-1.933L1.165 7.582c-0.149-0.161-0.149-0.413 0-0.573L2.23 5.858c0.476-0.512 0.51-1.285 0.088-1.83L1.456 2.997c2.537 0.222 4.408 1.325 6.06 2.298C9.001 6.17 10.405 6.997 12 6.997s2.999-0.827 4.484-1.702c1.651-0.973 3.522-2.076 6.02-2.371L21.688 4.02c-0.428 0.552-0.394 1.325 0.081 1.837l1.066 1.151c0.149 0.161 0.149 0.413 0 0.573L21.817 8.68c-0.501 0.542-0.501 1.391 0 1.933l1.018 1.098c0.148 0.16 0.148 0.412 0 0.573l-1.016 1.098c-0.503 0.541-0.503 1.39 0 1.933l1.017 1.098c0.149 0.161 0.149 0.413 0 0.577zM16 12.001c0 0.276-0.224 0.5-0.5 0.5h-7c-0.276 0-0.5-0.224-0.5-0.5s0.224-0.5 0.5-0.5h7c0.276 0 0.5 0.224 0.5 0.5z" />
</svg>