<svg id="farm_Layer_1" viewBox="0 0 24 24" fill="currentColor" width="32" height="32" data-name="Layer 1" xmlns="http://www.w3.org/2000/svg" xmlns:xlink="http://www.w3.org/1999/xlink">
    <title>farm</title>
    <path d="M23.412 8.612 20.229 3.837c-0.377-0.566-0.908-1.007-1.534-1.275l-5.316-2.279c-0.877-0.376-1.881-0.376-2.757 0L5.304 2.562C4.679 2.831 4.148 3.271 3.771 3.837L0.588 8.612C0.203 9.189 0 9.86 0 10.553v8.946c0 2.481 2.019 4.5 4.5 4.5h15c2.481 0 4.5-2.019 4.5-4.5v-8.945c0-0.693-0.203-1.365-0.588-1.942zM11.223 18.04 6 22.427V14.5c0-0.253 0.063-0.491 0.174-0.701zM6.918 13.118C7.097 13.042 7.294 13 7.5 13h9c0.207 0 0.403 0.042 0.583 0.118L12 17.387zM6.873 23 12 18.693 17.127 23zM18 22.427 12.778 18.04l5.048-4.24C17.937 14.009 18 14.247 18 14.5zM23 19.5c0 1.93-1.57 3.5-3.5 3.5H19v-8.5c0-1.378-1.122-2.5-2.5-2.5h-9C6.122 12 5 13.122 5 14.5V23H4.5C2.57 23 1 21.43 1 19.5v-8.946c0-0.495 0.145-0.975 0.42-1.387l3.183-4.775c0.27-0.404 0.648-0.719 1.095-0.911l5.318-2.279C11.328 1.068 11.664 1.001 12 1.001s0.672 0.067 0.985 0.201l5.316 2.278c0.447 0.192 0.826 0.507 1.096 0.911l3.183 4.775C22.855 9.578 23 10.058 23 10.553zM12 5c-1.103 0-2 0.897-2 2s0.897 2 2 2 2-0.897 2-2-0.897-2-2-2zM12 8c-0.551 0-1-0.449-1-1s0.449-1 1-1 1 0.449 1 1-0.449 1-1 1z" />
</svg>