<svg id="faucet_Layer_1" viewBox="0 0 24 24" fill="currentColor" width="32" height="32" data-name="Layer 1" xmlns="http://www.w3.org/2000/svg" xmlns:xlink="http://www.w3.org/1999/xlink">
    <title>faucet</title>
    <path d="M15.5 5H11V1h5.5C16.776 1 17 0.776 17 0.5S16.776 0 16.5 0h-12C4.224 0 4 0.224 4 0.5S4.224 1 4.5 1H10v4H0.5C0.224 5 0 5.224 0 5.5S0.224 6 0.5 6H10v5H0.5C0.224 11 0 11.224 0 11.5S0.224 12 0.5 12h15c0.827 0 1.5 0.673 1.5 1.5v1c0 0.827 0.673 1.5 1.5 1.5h4c0.827 0 1.5-0.673 1.5-1.5v-1C24 8.813 20.187 5 15.5 5zM23 14.5c0 0.275-0.224 0.5-0.5 0.5h-4c-0.276 0-0.5-0.225-0.5-0.5v-1c0-1.379-1.122-2.5-2.5-2.5H11V6h4.5c4.136 0 7.5 3.364 7.5 7.5zM19.577 18.414C19.207 18.912 18 20.604 18 21.5c0 0.668 0.26 1.295 0.732 1.768S19.832 24 20.5 24s1.295-0.26 1.768-0.732S23 22.168 23 21.5c0-0.896-1.208-2.588-1.628-3.145-0.48-0.471-1.262-0.471-1.795 0.059zM21.56 22.56c-0.566 0.567-1.555 0.565-2.121 0C19.156 22.277 19 21.9 19 21.499c0-0.391 0.716-1.597 1.329-2.431 0.06-0.058 0.14-0.08 0.203-0.08 0.039 0 0.071 9e-3 0.088 0.022 0.664 0.892 1.38 2.098 1.38 2.488 0 0.4-0.156 0.777-0.44 1.062z" />
</svg>