<svg id="fax_Layer_1" viewBox="0 0 24 24" fill="currentColor" width="32" height="32" data-name="Layer 1" xmlns="http://www.w3.org/2000/svg" xmlns:xlink="http://www.w3.org/1999/xlink">
    <title>fax</title>
    <path d="M22.97 3.27 20.73 1.03C20.07 0.37 19.19 0 18.25 0h-5.76c-1.93 0-3.5 1.57-3.5 3.5V8h-2V7.5c0-1.93-1.57-3.5-3.5-3.5S0 5.57 0 7.5v13C0 22.43 1.57 24 3.5 24h16c2.48 0 4.5-2.02 4.5-4.5V5.74c0-0.92-0.37-1.82-1.03-2.47zM22.26 3.98c0.29 0.29 0.5 0.64 0.62 1.03h-2.39c-0.83 0-1.5-0.67-1.5-1.5v-2.4c0.38 0.12 0.73 0.33 1.03 0.62zM9.99 3.51c0-1.38 1.12-2.5 2.5-2.5h5.5V3.5c0 1.38 1.12 2.5 2.5 2.5h2.5v2H10zM3.5 23C2.12 23 1 21.88 1 20.5v-13C1 6.12 2.12 5 3.5 5S6 6.12 6 7.5v13C6 21.88 4.88 23 3.5 23zM23 19.5c0 1.93-1.57 3.5-3.5 3.5H5.95C6.6 22.36 7 21.48 7 20.5V9h16zM14 12c0-0.55 0.45-1 1-1s1 0.45 1 1-0.45 1-1 1-1-0.45-1-1zM10 12c0-0.55 0.45-1 1-1s1 0.45 1 1-0.45 1-1 1-1-0.45-1-1zM18 12c0-0.55 0.45-1 1-1s1 0.45 1 1-0.45 1-1 1-1-0.45-1-1zM14 16c0-0.55 0.45-1 1-1s1 0.45 1 1-0.45 1-1 1-1-0.45-1-1zM10 16c0-0.55 0.45-1 1-1s1 0.45 1 1-0.45 1-1 1-1-0.45-1-1zM18 16c0-0.55 0.45-1 1-1s1 0.45 1 1-0.45 1-1 1-1-0.45-1-1zM14 20c0-0.55 0.45-1 1-1s1 0.45 1 1-0.45 1-1 1-1-0.45-1-1zM10 20c0-0.55 0.45-1 1-1s1 0.45 1 1-0.45 1-1 1-1-0.45-1-1zM18 20c0-0.55 0.45-1 1-1s1 0.45 1 1-0.45 1-1 1-1-0.45-1-1z" />
</svg>