<svg id="fbx_file_Layer_1" viewBox="0 0 24 24" fill="currentColor" width="32" height="32" data-name="Layer 1" xmlns="http://www.w3.org/2000/svg" xmlns:xlink="http://www.w3.org/1999/xlink">
    <title>fbx-file</title>
    <path d="M7 14v2.5h2.5c0.276 0 0.5 0.224 0.5 0.5s-0.224 0.5-0.5 0.5H7v3C7 20.776 6.776 21 6.5 21S6 20.776 6 20.5V14c0-0.551 0.448-1 1-1h2.5c0.276 0 0.5 0.224 0.5 0.5S9.776 14 9.5 14zM15.5 15.25c0 0.602-0.237 1.149-0.623 1.553C15.548 17.193 16 17.92 16 18.75 16 19.991 14.99 21 13.75 21H12c-0.552 0-1-0.449-1-1v-6c0-0.551 0.448-1 1-1h1.25c1.24 0 2.25 1.009 2.25 2.25zM12 16.5h1.25c0.689 0 1.25-0.561 1.25-1.25S13.939 14 13.25 14H12zM13.75 17.5H12V20h1.75c0.689 0 1.25-0.561 1.25-1.25s-0.561-1.25-1.25-1.25zM21.748 13.066c-0.238-0.137-0.545-0.055-0.683 0.186l-1.565 2.74-1.565-2.74c-0.139-0.241-0.445-0.323-0.683-0.186-0.24 0.137-0.323 0.442-0.187 0.682L18.923 17l-1.858 3.252c-0.137 0.24-0.054 0.545 0.187 0.682 0.235 0.136 0.544 0.056 0.683-0.186l1.565-2.74 1.565 2.74c0.139 0.242 0.447 0.322 0.683 0.186 0.24-0.137 0.323-0.442 0.187-0.682L20.077 17l1.858-3.252c0.137-0.24 0.054-0.545-0.187-0.682zM22 9.985V10.5c0 0.276-0.224 0.5-0.5 0.5S21 10.776 21 10.5V9.985C21 9.65 20.962 9.322 20.904 9H15.5C14.121 9 13 7.878 13 6.5V1.096C12.677 1.038 12.349 1 12.015 1H6.5C4.57 1 3 2.57 3 4.5v15C3 21.43 4.57 23 6.5 23h11c0.616 0 1.221-0.162 1.749-0.468 0.237-0.138 0.544-0.059 0.684 0.182 0.139 0.239 0.057 0.545-0.182 0.683C19.069 23.791 18.291 24 17.5 24h-11C4.019 24 2 21.981 2 19.5v-15C2 2.019 4.019 0 6.5 0h5.515c1.735 0 3.368 0.676 4.597 1.904l3.484 3.485C21.324 6.616 22 8.248 22 9.985zM20.621 8c-0.273-0.704-0.682-1.354-1.232-1.904l-3.484-3.485c-0.551-0.55-1.2-0.959-1.904-1.231V6.5c0 0.827 0.673 1.5 1.5 1.5z" />
</svg>