<svg id="features_Layer_1" viewBox="0 0 24 24" fill="currentColor" width="32" height="32" data-name="Layer 1" xmlns="http://www.w3.org/2000/svg" xmlns:xlink="http://www.w3.org/1999/xlink">
    <title>features</title>
    <path d="M4 6.5C4 6.224 4.224 6 4.5 6h5C9.776 6 10 6.224 10 6.5S9.776 7 9.5 7h-5C4.224 7 4 6.776 4 6.5zM11.5 10h-7C4.224 10 4 10.224 4 10.5S4.224 11 4.5 11h7c0.276 0 0.5-0.224 0.5-0.5S11.776 10 11.5 10zM11.5 14h-7C4.224 14 4 14.224 4 14.5S4.224 15 4.5 15h7c0.276 0 0.5-0.224 0.5-0.5S11.776 14 11.5 14zM23.509 6.501l-1.903 1.55 0.781 2.228c0.192 0.579 0 1.209-0.478 1.575-0.477 0.367-1.135 0.393-1.637 0.064l-2.248-1.464-2.208 1.479c-0.233 0.156-0.506 0.239-0.788 0.239-0.309 0-0.603-0.098-0.85-0.284-0.479-0.357-0.681-0.983-0.501-1.558l0.756-2.271-1.911-1.556c-0.459-0.391-0.625-1.021-0.421-1.575C12.305 4.373 12.839 4 13.431 4h2.398l0.855-2.399c0.208-0.558 0.741-0.929 1.33-0.929s1.123 0.371 1.328 0.923L20.199 4h2.398c0.593 0 1.127 0.374 1.331 0.932 0.204 0.556 0.036 1.187-0.419 1.569zM22.988 5.274C22.928 5.11 22.771 5 22.597 5h-2.751c-0.211 0-0.4-0.133-0.471-0.332l-0.974-2.731c-0.115-0.311-0.658-0.316-0.778 6e-3l-0.971 2.726c-0.071 0.199-0.26 0.332-0.471 0.332h-2.75c-0.174 0-0.331 0.109-0.391 0.272-0.06 0.164-0.011 0.349 0.122 0.462l2.171 1.767c0.162 0.131 0.225 0.349 0.159 0.546l-0.862 2.591c-0.05 0.16 8e-3 0.345 0.149 0.45 0.142 0.104 0.337 0.109 0.482 0.014l2.483-1.662c0.166-0.11 0.383-0.111 0.551-3e-3l2.524 1.644c0.148 0.096 0.342 0.088 0.482-0.02 0.14-0.107 0.197-0.292 0.141-0.46l-0.894-2.551c-0.07-0.198-7e-3-0.42 0.156-0.553l2.168-1.767c0.127-0.107 0.177-0.293 0.116-0.457zM21.001 21c0 1.654-1.346 3-3 3H3c-1.654 0-3-1.346-3-3V4.5C0 2.019 2.019 0 4.5 0h10C14.776 0 15 0.224 15 0.5S14.776 1 14.5 1h-10C2.57 1 1 2.57 1 4.5V21c0 1.103 0.897 2 2 2s2-0.897 2-2c0-1.654 1.346-3 3-3h9v-4.5c0-0.276 0.224-0.5 0.5-0.5s0.5 0.224 0.5 0.5V18c1.654 0 3 1.346 3.001 3zM20.001 21c0-1.103-0.897-2-2-2h-10c-1.103 0-2 0.897-2 2 0 0.768-0.29 1.469-0.766 2h12.766c1.103 0 2-0.897 2-2z" />
</svg>