<svg id="feather_pointed_Layer_1" viewBox="0 0 24 24" fill="currentColor" width="32" height="32" data-name="Layer 1" xmlns="http://www.w3.org/2000/svg" xmlns:xlink="http://www.w3.org/1999/xlink">
    <title>feather-pointed</title>
    <path d="M23.424 0.574c-0.445-0.445-1.059-0.646-1.687-0.552-3.753 0.567-10.888 2.359-16.503 7.992-1.509 1.513-2.319 3.607-2.224 5.745 0.078 1.751 0.737 3.364 1.864 4.66l-4.728 4.727c-0.195 0.195-0.195 0.512 0 0.707 0.098 0.098 0.226 0.146 0.354 0.146s0.256-0.049 0.354-0.146l4.723-4.722c0.06 0.053 0.114 0.111 0.175 0.163 1.372 1.149 3.066 1.714 4.776 1.714 2.075 0 4.172-0.83 5.742-2.451 5.618-5.803 7.258-13.342 7.703-16.313 0.093-0.619-0.107-1.228-0.549-1.67zM15.551 17.861c-2.501 2.581-6.522 2.873-9.157 0.667-0.039-0.033-0.073-0.07-0.112-0.104l3.425-3.425h8.199c-0.693 0.981-1.469 1.945-2.355 2.862zM18.571 14.014C18.547 14.01 18.525 14 18.5 14h-7.793l3.975-3.975C15.334 9.374 16.236 9 17.157 9h3.963c-0.633 1.612-1.469 3.326-2.549 5.014zM21.493 8h-4.336c-1.184 0-2.344 0.48-3.182 1.318l-4.827 4.827-3e-3 3e-3-3.564 3.564c-0.951-1.118-1.506-2.5-1.573-3.996-0.083-1.859 0.622-3.681 1.933-4.995 5.414-5.43 12.314-7.161 15.945-7.71 0.05-7e-3 0.582 0.021 0.831 0.271 0.215 0.215 0.312 0.512 0.267 0.813C22.793 3.371 22.372 5.519 21.493 8z" />
</svg>