<svg id="features_alt_Layer_1" viewBox="0 0 24 24" fill="currentColor" width="32" height="32" data-name="Layer 1" xmlns="http://www.w3.org/2000/svg" xmlns:xlink="http://www.w3.org/1999/xlink">
    <title>features-alt</title>
    <path d="M5.383 17.722c0.182 0.182 0.422 0.277 0.668 0.277 0.122 0 0.246-0.023 0.364-0.072 0.355-0.147 0.584-0.491 0.584-0.875v-4.11c0.617-0.631 1-1.492 1-2.442 0-1.93-1.57-3.5-3.5-3.5s-3.5 1.57-3.5 3.5c0 0.95 0.383 1.81 1 2.442v4.11c0 0.384 0.229 0.728 0.584 0.875 0.356 0.146 0.761 0.067 1.05-0.224l0.865-0.957zM2 10.5C2 9.121 3.122 8 4.5 8S7 9.121 7 10.5 5.878 13 4.5 13 2 11.879 2 10.5zM3 16.914v-3.265C3.456 13.868 3.961 14 4.5 14s1.044-0.133 1.5-0.351v3.265l-1.129-1.249c-0.189-0.211-0.553-0.211-0.742 0zM9 19.5C9 19.224 9.224 19 9.5 19h9c0.276 0 0.5 0.224 0.5 0.5S18.776 20 18.5 20h-9C9.224 20 9 19.776 9 19.5zM10.5 12c-0.276 0-0.5-0.224-0.5-0.5s0.224-0.5 0.5-0.5h8c0.276 0 0.5 0.224 0.5 0.5S18.776 12 18.5 12zM9.5 15h9c0.276 0 0.5 0.224 0.5 0.5S18.776 16 18.5 16h-9C9.224 16 9 15.776 9 15.5S9.224 15 9.5 15zM22.096 5.389 18.611 1.905c-1.227-1.228-2.859-1.904-4.596-1.904H8.5C6.019 1e-3 4 2.02 4 4.501c0 0.276 0.224 0.5 0.5 0.5S5 4.777 5 4.501c0-1.93 1.57-3.5 3.5-3.5h5.515c0.335 0 0.663 0.038 0.985 0.096v5.404c0 1.379 1.122 2.5 2.5 2.5h5.404C22.962 9.324 23 9.652 23 9.986v9.515c0 1.93-1.57 3.5-3.5 3.5h-11c-1.598 0-2.992-1.079-3.39-2.625-0.068-0.268-0.343-0.425-0.609-0.359-0.268 0.069-0.429 0.342-0.36 0.609 0.512 1.987 2.304 3.375 4.358 3.375h11c2.481 0 4.5-2.019 4.5-4.5V9.986c0-1.735-0.676-3.368-1.903-4.597zM17.5 8C16.673 8 16 7.327 16 6.5V1.379c0.704 0.273 1.354 0.682 1.904 1.232l3.485 3.484c0.55 0.551 0.959 1.2 1.231 1.904z" />
</svg>