<svg id="fee_receipt_Layer_1" viewBox="0 0 24 24" fill="currentColor" width="32" height="32" data-name="Layer 1" xmlns="http://www.w3.org/2000/svg" xmlns:xlink="http://www.w3.org/1999/xlink">
    <title>fee-receipt</title>
    <path d="M16.5 0h-9C5.019 0 3 2.019 3 4.5v18.995c0 0.188 0.106 0.361 0.274 0.446s0.37 0.068 0.522-0.044l2.546-1.873 2.539 1.767c0.171 0.119 0.399 0.119 0.571 0L12 22.02l2.548 1.772c0.172 0.119 0.399 0.119 0.571 0l2.54-1.766 2.544 1.876C20.291 23.966 20.395 24 20.5 24c0.077 0 0.154-0.018 0.226-0.054C20.894 23.861 21 23.688 21 23.5v-19C21 2.019 18.981 0 16.5 0zM20 22.51l-2.036-1.501c-0.172-0.127-0.406-0.132-0.583-8e-3l-2.548 1.771L12.285 21c-0.086-0.06-0.186-0.09-0.286-0.09s-0.2 0.03-0.286 0.09l-2.548 1.771-2.547-1.772c-0.176-0.122-0.41-0.12-0.582 8e-3l-2.038 1.499V4.5c0-1.93 1.57-3.5 3.5-3.5h9c1.93 0 3.5 1.57 3.5 3.5zM7 6v2.5h2c0.276 0 0.5 0.224 0.5 0.5S9.276 9.5 9 9.5H7v3C7 12.776 6.776 13 6.5 13S6 12.776 6 12.5V6c0-0.551 0.449-1 1-1h2c0.276 0 0.5 0.224 0.5 0.5S9.276 6 9 6zM11.5 6v2.5h2C13.776 8.5 14 8.724 14 9s-0.224 0.5-0.5 0.5h-2V12h2c0.276 0 0.5 0.224 0.5 0.5S13.776 13 13.5 13h-2c-0.551 0-1-0.449-1-1V6c0-0.551 0.449-1 1-1h2C13.776 5 14 5.224 14 5.5S13.776 6 13.5 6zM16 6v2.5h2c0.276 0 0.5 0.224 0.5 0.5S18.276 9.5 18 9.5h-2V12h2c0.276 0 0.5 0.224 0.5 0.5S18.276 13 18 13h-2c-0.551 0-1-0.449-1-1V6c0-0.551 0.449-1 1-1h2c0.276 0 0.5 0.224 0.5 0.5S18.276 6 18 6z" />
</svg>