<svg id="feedback_hand_Layer_1" viewBox="0 0 24 24" fill="currentColor" width="32" height="32" data-name="Layer 1" xmlns="http://www.w3.org/2000/svg" xmlns:xlink="http://www.w3.org/1999/xlink">
    <title>feedback-hand</title>
    <path d="M20.822 5.883 19.639 6.847l0.489 1.49c0.067 0.202 0 0.424-0.169 0.553s-0.4 0.138-0.578 0.023l-1.377-0.897-1.354 0.906c-0.084 0.056-0.181 0.084-0.278 0.084-0.106 0-0.211-0.033-0.3-0.1-0.17-0.127-0.241-0.348-0.177-0.55l0.47-1.508-1.189-0.967c-0.16-0.136-0.218-0.357-0.146-0.553C15.102 5.131 15.29 5 15.499 5h1.5l0.531-1.49c0.073-0.196 0.26-0.325 0.469-0.325s0.396 0.13 0.469 0.325L18.999 5h1.5c0.21 0 0.398 0.131 0.47 0.329s0.013 0.419-0.147 0.554zM14.97 5.329C14.898 5.132 14.71 5 14.5 5H13l-0.531-1.49C12.396 3.314 12.209 3.185 12 3.185s-0.396 0.13-0.469 0.325L11 5H9.5C9.29 5 9.103 5.131 9.031 5.328 8.958 5.525 9.017 5.746 9.177 5.881l1.189 0.967-0.47 1.508c-0.063 0.202 7e-3 0.423 0.177 0.55 0.089 0.066 0.194 0.1 0.3 0.1 0.097 0 0.194-0.028 0.278-0.084l1.354-0.906 1.377 0.897c0.178 0.115 0.409 0.106 0.578-0.023 0.168-0.13 0.236-0.352 0.169-0.553l-0.489-1.49 1.183-0.964c0.161-0.135 0.22-0.357 0.147-0.554zM4.072 8.907c0.089 0.066 0.194 0.1 0.3 0.1 0.097 0 0.194-0.028 0.278-0.084l1.354-0.906 1.377 0.897C7.559 9.029 7.79 9.02 7.959 8.891c0.168-0.13 0.236-0.352 0.169-0.553l-0.489-1.49 1.183-0.964C8.983 5.749 9.042 5.527 8.97 5.33S8.71 5.001 8.5 5.001H7l-0.531-1.49C6.396 3.315 6.209 3.186 6 3.186s-0.396 0.13-0.469 0.325L5 5.001H3.5c-0.21 0-0.397 0.131-0.469 0.328-0.073 0.197-0.014 0.418 0.146 0.553l1.189 0.967-0.47 1.508c-0.063 0.202 7e-3 0.423 0.176 0.55zM17.756 18.937 13 17.154v-4.546c0-1.273-0.896-2.379-2.084-2.573-0.733-0.117-1.475 0.085-2.035 0.562C8.321 11.073 8 11.767 8 12.502v7.424l-0.138 0.067-1.676-1.335c-1.007-0.923-2.578-0.866-3.512 0.135C1.733 19.8 1.78 21.381 2.78 22.317l1.64 1.548C4.512 23.952 4.634 24 4.761 24c0.448 0 0.667-0.547 0.342-0.856L3.47 21.593c-0.599-0.562-0.629-1.514-0.064-2.118 0.559-0.6 1.5-0.634 2.106-0.08 0.013 0.012 1.727 1.379 1.727 1.379 0.328 0.261 0.769 0.311 1.147 0.128C8.765 20.719 9 20.345 9 19.924V12.5c0-0.44 0.193-0.857 0.529-1.143 0.341-0.29 0.777-0.409 1.227-0.336 0.709 0.115 1.245 0.797 1.245 1.586V17.5c0 0.208 0.129 0.395 0.324 0.468l5.08 1.905c1.601 0.6 2.596 1.99 2.596 3.627 0 0.276 0.224 0.5 0.5 0.5s0.5-0.224 0.5-0.5c0-2.064-1.243-3.813-3.245-4.563zM19.5 0h-15C2.019 0 0 2.019 0 4.5v3C0 9.981 2.019 12 4.5 12h1C5.776 12 6 11.776 6 11.5S5.776 11 5.5 11h-1C2.57 11 1 9.43 1 7.5v-3C1 2.57 2.57 1 4.5 1h15C21.43 1 23 2.57 23 4.5v3c0 1.93-1.57 3.5-3.5 3.5h-4c-0.276 0-0.5 0.224-0.5 0.5s0.224 0.5 0.5 0.5h4c2.481 0 4.5-2.019 4.5-4.5v-3C24 2.019 21.981 0 19.5 0z" />
</svg>