<svg id="feedback_review_Layer_1" viewBox="0 0 24 24" fill="currentColor" width="32" height="32" data-name="Layer 1" xmlns="http://www.w3.org/2000/svg" xmlns:xlink="http://www.w3.org/1999/xlink">
    <title>feedback-review</title>
    <path d="M8.391 4.034 9.51 4.945 9.068 6.274C8.93 6.712 9.085 7.191 9.453 7.467c0.189 0.141 0.414 0.215 0.649 0.215 0.215 0 0.423-0.063 0.603-0.183l1.305-0.874 1.33 0.867c0.385 0.25 0.888 0.229 1.252-0.05 0.364-0.281 0.512-0.763 0.364-1.207l-0.455-1.296 1.114-0.908c0.347-0.292 0.476-0.774 0.32-1.2s-0.564-0.712-1.018-0.712h-1.398l-0.503-1.412C12.86 0.284 12.452 0 12.001 0s-0.859 0.284-1.018 0.712l-0.501 1.406H9.084c-0.453 0-0.861 0.285-1.017 0.708C7.91 3.25 8.037 3.733 8.391 4.034zM9.084 3.118h1.75c0.211 0 0.4-0.133 0.471-0.332l0.62-1.738h0.15l0.62 1.738c0.071 0.199 0.26 0.332 0.471 0.332h1.75l0.06 0.142-1.38 1.125c-0.163 0.133-0.226 0.354-0.156 0.553l0.571 1.628-0.127 0.088-1.606-1.046c-0.168-0.11-0.384-0.107-0.551 3e-3l-1.579 1.057c-0.018 0.012-0.035 0.014-0.047 0.014l-0.082-0.101 0.549-1.649c0.065-0.197 2e-3-0.415-0.159-0.545L9.022 3.259zM23.935 5.722c-0.156-0.426-0.564-0.712-1.018-0.712h-1.398l-0.503-1.412c-0.156-0.423-0.564-0.707-1.015-0.707s-0.859 0.284-1.018 0.712l-0.501 1.406h-1.398c-0.453 0-0.862 0.286-1.016 0.708-0.157 0.425-0.031 0.907 0.323 1.207l1.119 0.911-0.442 1.329c-0.138 0.438 0.017 0.917 0.384 1.192 0.188 0.142 0.413 0.216 0.65 0.216 0.215 0 0.423-0.063 0.603-0.183l1.305-0.874 1.33 0.867c0.384 0.25 0.888 0.229 1.252-0.05 0.364-0.281 0.512-0.763 0.364-1.207l-0.455-1.296 1.114-0.908c0.347-0.292 0.476-0.774 0.32-1.199zM21.597 7.276c-0.163 0.133-0.226 0.354-0.156 0.553l0.571 1.628-0.127 0.088-1.606-1.046c-0.168-0.109-0.385-0.107-0.551 3e-3l-1.579 1.057c-0.018 0.012-0.035 0.014-0.047 0.014L18.02 9.472l0.549-1.649c0.065-0.197 2e-3-0.415-0.159-0.545L17.023 6.15l0.062-0.14h1.75c0.211 0 0.4-0.133 0.471-0.332l0.62-1.738h0.15l0.62 1.738c0.071 0.199 0.26 0.332 0.471 0.332h1.75l0.06 0.142zM5.339 10.383c0.385 0.25 0.888 0.229 1.252-0.05 0.364-0.281 0.512-0.763 0.364-1.207L6.5 7.83 7.614 6.922c0.347-0.292 0.476-0.774 0.32-1.2S7.37 5.01 6.916 5.01H5.518L5.015 3.598C4.859 3.175 4.451 2.891 4 2.891S3.141 3.175 2.982 3.603L2.481 5.009H1.083c-0.453 0-0.862 0.286-1.016 0.708C-0.09 6.142 0.036 6.624 0.39 6.924l1.119 0.911-0.442 1.329c-0.138 0.438 0.017 0.917 0.384 1.192 0.188 0.142 0.413 0.216 0.65 0.216 0.215 0 0.423-0.063 0.603-0.183l1.305-0.874zM3.727 8.502 2.148 9.559C2.13 9.571 2.113 9.573 2.101 9.573L2.019 9.472 2.568 7.823c0.065-0.197 2e-3-0.415-0.159-0.545L1.022 6.15 1.084 6.01h1.75c0.211 0 0.4-0.133 0.471-0.332l0.62-1.738h0.15l0.62 1.738C4.766 5.877 4.955 6.01 5.166 6.01h1.75l0.06 0.142-1.38 1.125C5.433 7.41 5.37 7.631 5.44 7.83l0.571 1.628-0.127 0.088L4.278 8.5c-0.167-0.109-0.384-0.107-0.551 2e-3zM17 14h-4.183l0.587-3.33q0.023-0.508 0-0.533c-0.121-0.444-0.402-0.794-0.791-0.985-0.394-0.192-0.848-0.2-1.281-0.02-0.254 0.105-0.502 0.367-0.679 0.712l-2.196 4.155H7.001c-1.654 0-3 1.346-3 3v4c0 1.654 1.346 3 3 3h8.379c1.9 0 3.55-1.353 3.923-3.216l0.639-3.196c0.177-0.885-0.05-1.792-0.622-2.49S17.903 13.999 17 14zM5.001 21v-4c0-1.103 0.897-2 2-2h1v8h-1c-1.103 0-2-0.897-2-2zM18.961 17.392l-0.639 3.196C18.042 21.985 16.805 23 15.38 23H9.001v-8.161c0.141-0.091 0.259-0.218 0.34-0.372l2.2-4.161c0.094-0.184 0.182-0.251 0.177-0.251 0.163-0.068 0.324-0.069 0.455-5e-3 0.1 0.049 0.179 0.135 0.247 0.291l-0.586 3.484c-0.052 0.292 0.027 0.589 0.218 0.818C12.243 14.87 12.522 15 12.818 15h4.183c0.602 0 1.165 0.267 1.546 0.732 0.382 0.465 0.533 1.07 0.414 1.66z" />
</svg>