<svg id="fighter_jet_Layer_1" viewBox="0 0 24 24" fill="currentColor" width="32" height="32" data-name="Layer 1" xmlns="http://www.w3.org/2000/svg" xmlns:xlink="http://www.w3.org/1999/xlink">
    <title>fighter-jet</title>
    <path d="M15.766 9.017 9.918 1H12.5C12.776 1 13 0.776 13 0.5S12.776 0 12.5 0h-3C8.122 0 7 1.122 7 2.5V9H4.769L3.523 7.12C3.059 6.419 2.28 6 1.439 6 0.646 6 1e-3 6.646 1e-3 7.438v9.123c0 0.793 0.646 1.438 1.452 1.438 0.845 0 1.626-0.422 2.09-1.128l1.229-1.872h2.23v6.5c0 1.378 1.122 2.5 2.5 2.5h3c0.276 0 0.5-0.224 0.5-0.5s-0.224-0.5-0.5-0.5H9.92l5.848-8.017c2.216-0.153 8.234-0.775 8.234-2.983s-6.018-2.83-8.236-2.982zM15.469 14.001c-0.148 9e-3-0.285 0.084-0.373 0.205 0 0-6.255 8.587-6.27 8.634C8.337 22.593 8 22.085 8 21.501v-7c0-0.276-0.224-0.5-0.5-0.5h-3c-0.168 0-0.326 0.085-0.418 0.226l-1.376 2.097c-0.278 0.424-0.747 0.677-1.267 0.677-0.242 0-0.438-0.197-0.438-0.438V7.438C1.001 7.196 1.198 7 1.439 7c0.505 0 0.972 0.251 1.25 0.671l1.394 2.104c0.093 0.14 0.25 0.224 0.417 0.224h3c0.276 0 0.5-0.224 0.5-0.5V2.5c0-0.585 0.336-1.092 0.826-1.339 0.016 0.047 6.27 8.634 6.27 8.634C15.183 9.916 15.32 9.99 15.469 10 19.031 10.223 23 11.1 23 12.001s-3.969 1.778-7.531 2z" />
</svg>