<svg id="file_signature_Layer_1" viewBox="0 0 24 24" fill="currentColor" width="32" height="32" data-name="Layer 1" xmlns="http://www.w3.org/2000/svg" xmlns:xlink="http://www.w3.org/1999/xlink">
    <title>file-signature</title>
    <path d="M14 13c0-1.1-0.9-2-2-2s-2 0.9-2 2c0 0.81 0.58 2.03 1.42 3.03C10.8 16.59 10 17 9 17c-0.8 0-1.58-0.39-2.28-0.99C8.11 14.41 9 12.25 9 11 9 9.35 7.65 8 6 8s-3 1.35-3 3c0 1.23 0.87 3.43 2.3 5.03-0.58 0.5-1.22 0.86-1.88 0.97-0.27 0.04-0.46 0.3-0.41 0.57 0.04 0.25 0.25 0.42 0.49 0.42 0.03 0 0.05 0 0.08 0 0.88-0.14 1.7-0.61 2.42-1.25C6.87 17.5 7.88 18 9 18c3.3 0 5-3.5 5-5zM4 11c0-1.1 0.9-2 2-2s2 0.9 2 2-0.8 2.93-1.98 4.31C4.82 13.95 4 12.09 4 11zM11 13c0-0.55 0.45-1 1-1s1 0.45 1 1c0 0.45-0.29 1.41-0.91 2.27C11.41 14.42 11 13.47 11 13zM23.27 11.73c-0.94-0.94-2.59-0.94-3.54 0l-7.71 7.71c-0.66 0.66-1.03 1.54-1.03 2.47v1.59c0 0.28 0.22 0.5 0.5 0.5h1.59c0.94 0 1.81-0.36 2.47-1.03l7.71-7.71c0.47-0.47 0.73-1.1 0.73-1.77s-0.26-1.3-0.72-1.76zM22.56 14.56l-7.71 7.71c-0.47 0.47-1.1 0.73-1.77 0.73h-1.09v-1.09c0-0.67 0.26-1.3 0.73-1.77l7.71-7.71c0.57-0.57 1.55-0.57 2.12 0 0.28 0.28 0.44 0.66 0.44 1.06s-0.16 0.78-0.43 1.07zM8.5 21h-4C2.57 21 1 19.43 1 17.5v-13C1 2.57 2.57 1 4.5 1H11v3.5C11 5.88 12.12 7 13.5 7H17v3.5c0 0.28 0.22 0.5 0.5 0.5s0.5-0.22 0.5-0.5V6.83c0.01-0.98-0.35-1.89-1.01-2.56l-3.24-3.24C13.09 0.37 12.21 0 11.28 0H4.5C2.02 0 0 2.02 0 4.5v13C0 19.98 2.02 22 4.5 22h4C8.78 22 9 21.78 9 21.5S8.78 21 8.5 21zM16.28 4.97c0.29 0.29 0.49 0.64 0.61 1.03H13.5C12.67 6 12 5.33 12 4.5V1.11c0.39 0.12 0.74 0.33 1.04 0.62z" />
</svg>