<svg id="file_excel_Layer_1" viewBox="0 0 24 24" fill="currentColor" width="32" height="32" data-name="Layer 1" xmlns="http://www.w3.org/2000/svg" xmlns:xlink="http://www.w3.org/1999/xlink">
    <title>file-excel</title>
    <path d="M15.38 12.83 12.66 16l2.72 3.17c0.18 0.21 0.16 0.52-0.05 0.7-0.09 0.08-0.21 0.12-0.33 0.12-0.14 0-0.28-0.06-0.38-0.17L12 16.76 9.38 19.82c-0.1 0.12-0.24 0.17-0.38 0.17-0.12 0-0.23-0.04-0.33-0.12-0.21-0.18-0.23-0.5-0.05-0.7L11.34 16 8.62 12.83c-0.18-0.21-0.16-0.52 0.05-0.7s0.52-0.16 0.71 0.05L12 15.24l2.62-3.06c0.18-0.21 0.5-0.23 0.71-0.05s0.23 0.5 0.05 0.7zM22 10v9.51c0 2.48-2.02 4.5-4.5 4.5h-11c-2.48 0-4.5-2.02-4.5-4.5v-15c0-2.48 2.02-4.5 4.5-4.5h5.51c1.74 0 3.37 0.68 4.6 1.9l3.48 3.49c1.23 1.23 1.9 2.86 1.91 4.6zM15.9 2.63c-0.55-0.55-1.2-0.97-1.9-1.24v5.12c0 0.83 0.67 1.5 1.5 1.5h5.13c-0.27-0.71-0.69-1.35-1.24-1.9zM21 10c0-0.33-0.03-0.66-0.09-0.99H15.5c-1.38 0-2.5-1.12-2.5-2.5V1.1c-0.32-0.06-0.65-0.09-0.99-0.09H6.5C4.57 1.01 3 2.58 3 4.51v15c0 1.93 1.57 3.5 3.5 3.5h11c1.93 0 3.5-1.57 3.5-3.5z" />
</svg>