<svg id="file_export_Layer_1" viewBox="0 0 24 24" fill="currentColor" width="32" height="32" data-name="Layer 1" xmlns="http://www.w3.org/2000/svg" xmlns:xlink="http://www.w3.org/1999/xlink">
    <title>file-export</title>
    <path d="M18.83 21.77c-0.21-0.18-0.52-0.16-0.71 0.04C17.46 22.56 16.5 23 15.5 23h-11C2.57 23 1 21.43 1 19.5v-15C1 2.57 2.57 1 4.5 1h5.51c0.33 0 0.66 0.03 0.99 0.09V6.5C11 7.88 12.12 9 13.5 9h5.41C18.97 9.32 19 9.65 19 9.99v0.51c0 0.28 0.22 0.5 0.5 0.5s0.5-0.22 0.5-0.5V9.99c0-1.74-0.68-3.37-1.9-4.6l-3.48-3.48c-1.23-1.23-2.86-1.9-4.6-1.9H4.5C2.02 0 0 2.02 0 4.5v15C0 21.98 2.02 24 4.5 24h11c1.29 0 2.52-0.56 3.38-1.52 0.18-0.21 0.16-0.52-0.05-0.71zM17.39 6.1c0.55 0.55 0.97 1.2 1.24 1.9H13.5C12.67 8 12 7.33 12 6.5V1.37c0.71 0.27 1.35 0.69 1.9 1.24zM24 16.51c0 0.5-0.19 1-0.58 1.38l-2.57 2.52c-0.1 0.09-0.22 0.14-0.35 0.14s-0.26-0.05-0.36-0.15c-0.19-0.2-0.19-0.51 0-0.71l2.57-2.51c0.06-0.06 0.1-0.12 0.14-0.18H13.5c-0.28 0-0.5-0.22-0.5-0.5s0.22-0.5 0.5-0.5h9.36c-0.04-0.07-0.09-0.13-0.15-0.19l-2.57-2.51c-0.2-0.19-0.2-0.51 0-0.71 0.19-0.2 0.51-0.2 0.71 0l2.57 2.51C23.8 15.48 24 15.99 24 16.49c0 0 0 0 0 0s0 0 0 0.02z" />
</svg>