<svg id="file_medical_alt_Layer_1" viewBox="0 0 24 24" fill="currentColor" width="32" height="32" data-name="Layer 1" xmlns="http://www.w3.org/2000/svg" xmlns:xlink="http://www.w3.org/1999/xlink">
    <title>file-medical-alt</title>
    <path d="M5.882 15H0.5C0.224 15 0 14.776 0 14.5S0.224 14 0.5 14h5.382c0.191 0 0.362-0.106 0.447-0.276l1.048-2.096c0.209-0.419 0.627-0.664 1.098-0.639 0.468 0.025 0.86 0.312 1.024 0.75l1.939 5.17c0.03 0.081 0.093 0.101 0.14 0.103 0.054 3e-3 0.112-0.01 0.15-0.087l1.048-2.096C13.032 14.318 13.546 14 14.118 14H18.5c0.276 0 0.5 0.224 0.5 0.5S18.776 15 18.5 15h-4.382c-0.191 0-0.362 0.106-0.447 0.276l-1.048 2.096c-0.2 0.399-0.592 0.641-1.033 0.641-0.021 0-0.043 0-0.064-2e-3-0.468-0.025-0.86-0.312-1.024-0.75l-1.939-5.17c-0.03-0.081-0.093-0.101-0.14-0.103-0.049 5e-3-0.112 0.011-0.15 0.087l-1.048 2.096C6.969 14.682 6.455 15 5.882 15zM22 9.985V19.5c0 2.481-2.019 4.5-4.5 4.5h-11C4.019 24 2 21.981 2 19.5v-2C2 17.224 2.224 17 2.5 17S3 17.224 3 17.5v2C3 21.43 4.57 23 6.5 23h11c1.93 0 3.5-1.57 3.5-3.5V9.985C21 9.65 20.962 9.322 20.904 9H15.5C14.122 9 13 7.878 13 6.5V1.096C12.677 1.038 12.349 1 12.015 1H6.5C4.57 1 3 2.57 3 4.5v7C3 11.776 2.776 12 2.5 12S2 11.776 2 11.5v-7C2 2.019 4.019 0 6.5 0h5.515c1.736 0 3.369 0.676 4.596 1.904l3.485 3.485C21.324 6.617 22 8.249 22 9.985zM20.621 8c-0.273-0.704-0.682-1.354-1.231-1.904l-3.485-3.485c-0.55-0.55-1.2-0.959-1.904-1.231v5.121c0 0.827 0.673 1.5 1.5 1.5z" />
</svg>