<svg id="file_zipper_Layer_1" viewBox="0 0 24 24" fill="currentColor" width="32" height="32" data-name="Layer 1" xmlns="http://www.w3.org/2000/svg" xmlns:xlink="http://www.w3.org/1999/xlink">
    <title>file-zipper</title>
    <path d="M7 3.5v-1C7 2.224 7.224 2 7.5 2S8 2.224 8 2.5v1C8 3.776 7.776 4 7.5 4S7 3.776 7 3.5zM7.5 7C7.776 7 8 6.776 8 6.5v-1C8 5.224 7.776 5 7.5 5S7 5.224 7 5.5v1C7 6.776 7.224 7 7.5 7zM7.5 10C7.776 10 8 9.776 8 9.5v-1C8 8.224 7.776 8 7.5 8S7 8.224 7 8.5v1C7 9.776 7.224 10 7.5 10zM22 9.985V19.5c0 2.481-2.019 4.5-4.5 4.5h-11C4.019 24 2 21.981 2 19.5v-15C2 2.019 4.019 0 6.5 0h5.515c1.735 0 3.368 0.676 4.597 1.904l3.484 3.485C21.324 6.616 22 8.248 22 9.985zM15.904 2.61C15.352 2.059 14.705 1.64 14 1.367v5.132c0 0.827 0.673 1.5 1.5 1.5h5.132c-0.273-0.706-0.693-1.353-1.244-1.904zM21 9.985C21 9.651 20.97 9.322 20.912 9H15.5C14.121 9 13 7.878 13 6.5V1.088C12.678 1.03 12.349 1 12.015 1H6.5C4.57 1 3 2.57 3 4.5v15C3 21.43 4.57 23 6.5 23h11c1.93 0 3.5-1.57 3.5-3.5zM9.551 15.162c0.122 0.435 0.038 0.891-0.231 1.254-0.276 0.371-0.699 0.583-1.162 0.583H6.844c-0.463 0-0.886-0.213-1.162-0.583-0.275-0.371-0.356-0.837-0.224-1.279l0.596-2.979c0.2-0.672 0.75-1.108 1.411-1.156 0.733 0.048 1.283 0.484 1.472 1.111zM8.586 15.425 8.574 15.38 7.967 12.355c-0.057-0.181-0.259-0.338-0.503-0.356-0.172 0.018-0.374 0.176-0.442 0.402L6.426 15.38c-0.053 0.182-0.027 0.326 0.058 0.44S6.701 16 6.843 16h1.314c0.143 0 0.274-0.066 0.359-0.18s0.11-0.258 0.07-0.395z" />
</svg>