<svg id="file_xls_Layer_1" viewBox="0 0 24 24" fill="currentColor" width="32" height="32" data-name="Layer 1" xmlns="http://www.w3.org/2000/svg" xmlns:xlink="http://www.w3.org/1999/xlink">
    <title>file-xls</title>
    <path d="M20.096 5.389 16.612 1.904C15.383 0.676 13.751 0 12.015 0H6.5C4.019 0 2 2.019 2 4.5v15C2 21.981 4.019 24 6.5 24h12c0.583 0 1.151-0.11 1.688-0.327 0.256-0.104 0.38-0.396 0.276-0.651-0.104-0.257-0.397-0.379-0.651-0.276-0.417 0.169-0.858 0.255-1.312 0.255H6.5c-1.93 0-3.5-1.57-3.5-3.5V4.5C3 2.57 4.57 1 6.5 1h5.515C12.35 1 12.678 1.038 13 1.096V6.5C13 7.878 14.121 9 15.5 9h5.404C20.962 9.323 21 9.651 21 9.985V10.5c0 0.276 0.224 0.5 0.5 0.5s0.5-0.224 0.5-0.5V9.985c0-1.737-0.677-3.369-1.904-4.596zM15.5 8C14.673 8 14 7.327 14 6.5V1.38c0.704 0.273 1.354 0.682 1.904 1.231l3.484 3.485c0.55 0.55 0.959 1.199 1.232 1.904zM12.435 13.748 10.577 17l1.858 3.252c0.137 0.239 0.054 0.545-0.187 0.683C12.17 20.979 12.085 21 12 21c-0.173 0-0.342-0.091-0.435-0.252L10 18.008l-1.565 2.74C8.342 20.909 8.173 21 8 21c-0.085 0-0.17-0.021-0.248-0.065-0.24-0.138-0.323-0.443-0.187-0.683L9.423 17 7.565 13.748c-0.137-0.239-0.054-0.545 0.187-0.683 0.236-0.134 0.544-0.055 0.683 0.187L10 15.992l1.565-2.74c0.138-0.241 0.444-0.321 0.683-0.187 0.24 0.138 0.323 0.443 0.187 0.683zM18 20.5c0 0.276-0.224 0.5-0.5 0.5H15c-0.552 0-1-0.448-1-1v-6.5c0-0.276 0.224-0.5 0.5-0.5s0.5 0.224 0.5 0.5V20h2.5c0.276 0 0.5 0.224 0.5 0.5zM23.974 19.053c-0.183 1.127-1.162 1.944-2.328 1.944-0.878 0-1.947-0.551-2.474-1.084-0.194-0.196-0.192-0.513 4e-3-0.707 0.197-0.195 0.513-0.192 0.707 4e-3 0.414 0.419 1.238 0.787 1.763 0.787 0.673 0 1.237-0.465 1.342-1.104 0.037-0.229 0.076-1.007-0.976-1.432-0.111-0.042-1.208-0.458-1.7-0.764-0.671-0.473-0.977-1.162-0.879-1.916 0.104-0.783 0.627-1.421 1.365-1.665 0.902-0.298 1.822-0.047 2.736 0.746 0.209 0.181 0.231 0.497 0.051 0.705-0.181 0.209-0.496 0.231-0.705 0.051-0.648-0.562-1.211-0.737-1.769-0.553-0.371 0.123-0.634 0.447-0.687 0.846-0.048 0.367 0.093 0.695 0.396 0.926 7e-3 4e-3 0.014 8e-3 0.02 0.011 0.346 0.216 1.225 0.565 1.534 0.682 1.395 0.563 1.731 1.711 1.6 2.523z" />
</svg>