<svg id="file_word_Layer_1" viewBox="0 0 24 24" fill="currentColor" width="32" height="32" data-name="Layer 1" xmlns="http://www.w3.org/2000/svg" xmlns:xlink="http://www.w3.org/1999/xlink">
    <title>file-word</title>
    <path d="M16.98 12.63l-1.79 6.6c-0.11 0.43-0.47 0.73-0.92 0.76-0.44 0.04-0.85-0.22-1.02-0.64L12 16.31l-1.27 3.05C10.57 19.75 10.21 20 9.79 20c-0.02 0-0.05 0-0.07 0-0.45-0.03-0.81-0.33-0.92-0.77l-1.77-6.59c-0.07-0.27 0.09-0.54 0.35-0.61 0.27-0.07 0.54 0.09 0.61 0.35l1.77 6.6 1.78-4.16c0.08-0.19 0.26-0.31 0.46-0.31v0c0.2 0 0.38 0.12 0.46 0.31l1.72 4.17 1.84-6.61c0.07-0.27 0.35-0.43 0.61-0.35 0.27 0.07 0.42 0.35 0.35 0.6zM22 9.98v9.51c0 2.48-2.02 4.5-4.5 4.5h-11c-2.48 0-4.5-2.02-4.5-4.5V4.5C2 2.02 4.02 0 6.5 0h5.51c1.74 0 3.37 0.68 4.6 1.9l3.48 3.49c1.23 1.23 1.9 2.86 1.91 4.59zM15.9 2.61c-0.55-0.55-1.2-0.97-1.9-1.24V6.5C14 7.33 14.67 8 15.5 8h5.13c-0.27-0.71-0.69-1.35-1.24-1.9zM21 9.98c0-0.33-0.03-0.66-0.09-0.99H15.5c-1.38 0-2.5-1.12-2.5-2.5v-5.4C12.68 1.03 12.35 1 12.01 1H6.5C4.57 1 3 2.57 3 4.5v15C3 21.43 4.57 23 6.5 23h11c1.93 0 3.5-1.57 3.5-3.5z" />
</svg>