<svg id="files_medical_Layer_1" viewBox="0 0 24 24" fill="currentColor" width="32" height="32" data-name="Layer 1" xmlns="http://www.w3.org/2000/svg" xmlns:xlink="http://www.w3.org/1999/xlink">
    <title>files-medical</title>
    <path d="M21.268 3.561 18.733 1.026c-0.661-0.661-1.54-1.025-2.475-1.025h-4.757c-2.31 0-4.197 1.756-4.449 4H6.501c-2.481 0-4.5 2.019-4.5 4.5v11c0 2.481 2.019 4.5 4.5 4.5h7c2.481 0 4.5-2.019 4.5-4.5V18.95c2.244-0.252 4-2.139 4-4.449V5.329c0-0.668-0.26-1.296-0.733-1.768zM20.561 4.268C20.765 4.472 20.9 4.726 20.961 5H18.5C17.673 5 17 4.327 17 3.5V1.124c0.381 0.119 0.735 0.318 1.025 0.608zM13.5 23h-7C4.57 23 3 21.43 3 19.5v-11C3 6.57 4.57 5 6.5 5H7v9.5c0 2.481 2.019 4.5 4.5 4.5H17v0.5c0 1.93-1.57 3.5-3.5 3.5zM17.5 18h-6C9.57 18 8 16.43 8 14.5v-10C8 2.57 9.57 1 11.5 1H16v2.5C16 4.878 17.122 6 18.5 6H21v8.5c0 1.93-1.57 3.5-3.5 3.5zM18 10.5c0 0.276-0.224 0.5-0.5 0.5H15v2.5c0 0.276-0.224 0.5-0.5 0.5S14 13.776 14 13.5V11h-2.5c-0.276 0-0.5-0.224-0.5-0.5s0.224-0.5 0.5-0.5H14V7.5C14 7.224 14.224 7 14.5 7S15 7.224 15 7.5V10h2.5c0.276 0 0.5 0.224 0.5 0.5z" />
</svg>