<svg id="file_image_Layer_1" viewBox="0 0 24 24" fill="currentColor" width="32" height="32" data-name="Layer 1" xmlns="http://www.w3.org/2000/svg" xmlns:xlink="http://www.w3.org/1999/xlink">
    <title>file-image</title>
    <path d="M6 10c0-0.552 0.448-1 1-1s1 0.448 1 1-0.448 1-1 1-1-0.448-1-1zM22 9.985V19.5c0 2.485-2.015 4.5-4.5 4.5h-11C4.015 24 2 21.985 2 19.5v-15C2 2.015 4.015 0 6.5 0h5.515c1.724 0 3.377 0.685 4.596 1.904l3.485 3.485C21.315 6.608 22 8.261 22 9.985zM15.904 2.61C15.353 2.059 14.706 1.64 14 1.367v5.132c0 0.827 0.673 1.5 1.5 1.5h5.132c-0.273-0.706-0.692-1.353-1.243-1.904zM3 19.5c0 0.524 0.116 1.022 0.324 1.469l6.092-6.092c1.149-1.149 3.02-1.149 4.169 0l0.615 0.615c0.717 0.717 1.884 0.717 2.601 0l4.2-4.2V9.984c0-0.334-0.03-0.663-0.088-0.985h-5.412c-1.378 0-2.5-1.122-2.5-2.5V1.088C12.679 1.03 12.35 1 12.016 1H6.501c-1.93 0-3.5 1.57-3.5 3.5zM21 19.5v-6.793L17.507 16.2c-1.106 1.107-2.908 1.107-4.015 0l-0.615-0.615c-0.76-0.76-1.995-0.76-2.755 0l-6.238 6.238C4.526 22.545 5.46 23 6.5 23h11c1.93 0 3.5-1.57 3.5-3.5z" />
</svg>