<svg id="file_binary_Layer_1" viewBox="0 0 24 24" fill="currentColor" width="32" height="32" data-name="Layer 1" xmlns="http://www.w3.org/2000/svg" xmlns:xlink="http://www.w3.org/1999/xlink">
    <title>file-binary</title>
    <path d="M20.1 5.39 16.61 1.91c-1.23-1.23-2.86-1.9-4.6-1.9H6.5C4.02 0 2 2.02 2 4.5v15C2 21.98 4.02 24 6.5 24h11c2.48 0 4.5-2.02 4.5-4.5V9.99c0-1.74-0.68-3.37-1.9-4.6zM19.39 6.1c0.55 0.55 0.96 1.2 1.23 1.9H15.5C14.67 8 14 7.33 14 6.5V1.38c0.7 0.27 1.35 0.68 1.9 1.23zM21 19.5c0 1.93-1.57 3.5-3.5 3.5h-11C4.57 23 3 21.43 3 19.5v-15C3 2.57 4.57 1 6.5 1h5.51c0.33 0 0.66 0.04 0.99 0.1v5.4C13 7.88 14.12 9 15.5 9h5.4C20.96 9.32 21 9.65 21 9.99zM9.5 11C7.57 11 6 12.57 6 14.5v3C6 19.43 7.57 21 9.5 21s3.5-1.57 3.5-3.5v-3c0-1.93-1.57-3.5-3.5-3.5zM12 17.5c0 1.38-1.12 2.5-2.5 2.5S7 18.88 7 17.5v-3C7 13.12 8.12 12 9.5 12s2.5 1.12 2.5 2.5zM18 11.5v9c0 0.28-0.22 0.5-0.5 0.5S17 20.78 17 20.5v-7.79l-1.15 1.15c-0.2 0.2-0.51 0.2-0.71 0s-0.2-0.51 0-0.71l2-2c0.14-0.14 0.36-0.19 0.54-0.11 0.19 0.08 0.31 0.26 0.32 0.46z" />
</svg>