<svg id="file_chart_line_Layer_1" viewBox="0 0 24 24" fill="currentColor" width="32" height="32" data-name="Layer 1" xmlns="http://www.w3.org/2000/svg" xmlns:xlink="http://www.w3.org/1999/xlink">
    <title>file-chart-line</title>
    <path d="M8 16.5v3C8 19.776 7.776 20 7.5 20S7 19.776 7 19.5v-3C7 16.224 7.224 16 7.5 16S8 16.224 8 16.5zM15.5 14c-0.276 0-0.5 0.224-0.5 0.5v5c0 0.276 0.224 0.5 0.5 0.5s0.5-0.224 0.5-0.5v-5c0-0.276-0.224-0.5-0.5-0.5zM11.5 11c-0.276 0-0.5 0.224-0.5 0.5v8c0 0.276 0.224 0.5 0.5 0.5s0.5-0.224 0.5-0.5v-8c0-0.276-0.224-0.5-0.5-0.5zM22 9.985V19.5c0 2.481-2.019 4.5-4.5 4.5h-11C4.019 24 2 21.981 2 19.5v-15C2 2.019 4.019 0 6.5 0h5.515c1.735 0 3.368 0.676 4.597 1.904l3.484 3.485C21.324 6.616 22 8.248 22 9.985zM15.904 2.611C15.352 2.06 14.705 1.641 14 1.368V6.5C14 7.327 14.673 8 15.5 8h5.132c-0.273-0.706-0.693-1.353-1.244-1.904zM21 9.986c0-0.334-0.03-0.663-0.088-0.985H15.5c-1.379 0-2.5-1.122-2.5-2.5V1.088C12.678 1.03 12.349 1 12.015 1H6.5C4.57 1 3 2.57 3 4.5v15C3 21.43 4.57 23 6.5 23h11c1.93 0 3.5-1.57 3.5-3.5z" />
</svg>