<svg id="file_chart_pie_Layer_1" viewBox="0 0 24 24" fill="currentColor" width="32" height="32" data-name="Layer 1" xmlns="http://www.w3.org/2000/svg" xmlns:xlink="http://www.w3.org/1999/xlink">
    <title>file-chart-pie</title>
    <path d="M12 11c-2.757 0-5 2.243-5 5s2.243 5 5 5 5-2.243 5-5-2.243-5-5-5zM15.455 13.986 12.951 15.06c-0.144 0.062-0.263 1e-3-0.306-0.028-0.044-0.028-0.146-0.112-0.146-0.269v-2.732c1.26 0.158 2.34 0.904 2.956 1.955zM12 20c-2.206 0-4-1.794-4-4 0-2.036 1.529-3.722 3.5-3.969v2.732c0 0.446 0.223 0.858 0.595 1.104 0.22 0.145 0.473 0.219 0.728 0.219 0.177 0 0.354-0.036 0.522-0.107l2.503-1.073C15.947 15.254 16 15.621 16 16.001c0 2.206-1.794 4-4 3.999zM20.096 5.389 16.612 1.904C15.383 0.676 13.751 0 12.015 0H6.5C4.019 0 2 2.019 2 4.5v15C2 21.981 4.019 24 6.5 24h11c2.481 0 4.5-2.019 4.5-4.5V9.985c0-1.737-0.677-3.369-1.904-4.596zM19.389 6.096C19.94 6.647 20.36 7.294 20.633 8h-5.132c-0.827 0-1.5-0.673-1.5-1.5V1.368c0.705 0.273 1.353 0.692 1.904 1.243zM21 19.5c0 1.93-1.57 3.5-3.5 3.5h-11C4.57 23 3 21.43 3 19.5v-15C3 2.57 4.57 1 6.5 1h5.515C12.349 1 12.678 1.03 13 1.088V6.5C13 7.878 14.121 9 15.5 9h5.412C20.97 9.322 21 9.651 21 9.985z" />
</svg>