<svg id="file_zip_save_Layer_1" viewBox="0 0 24 24" fill="currentColor" width="32" height="32" data-name="Layer 1" xmlns="http://www.w3.org/2000/svg" xmlns:xlink="http://www.w3.org/1999/xlink">
    <title>file-zip-save</title>
    <path d="M5 3.5v-1C5 2.224 5.224 2 5.5 2S6 2.224 6 2.5v1C6 3.776 5.776 4 5.5 4S5 3.776 5 3.5zM5 6.5C5 6.776 5.224 7 5.5 7S6 6.776 6 6.5v-1C6 5.224 5.776 5 5.5 5S5 5.224 5 5.5zM5 9.5C5 9.776 5.224 10 5.5 10S6 9.776 6 9.5v-1C6 8.224 5.776 8 5.5 8S5 8.224 5 8.5zM12 23.5c0 0.276-0.224 0.5-0.5 0.5h-7C2.019 24 0 21.981 0 19.5v-15C0 2.019 2.019 0 4.5 0h5.515c1.737 0 3.369 0.677 4.596 1.904l3.485 3.484C19.324 6.617 20 8.249 20 9.985V10.5c0 0.276-0.224 0.5-0.5 0.5S19 10.776 19 10.5V9.985C19 9.65 18.962 9.322 18.904 9H13.5C12.122 9 11 7.879 11 6.5V1.096C10.677 1.038 10.349 1 10.015 1H4.5C2.57 1 1 2.57 1 4.5v15C1 21.43 2.57 23 4.5 23h7c0.276 0 0.5 0.224 0.5 0.5zM13.904 2.611c-0.55-0.55-1.199-0.959-1.904-1.232V6.5C12 7.327 12.673 8 13.5 8h5.12c-0.273-0.704-0.682-1.354-1.231-1.904zM5.464 11.001c0.734 0.049 1.284 0.484 1.472 1.111l0.614 3.05c0.123 0.436 0.039 0.892-0.232 1.255C7.042 16.787 6.619 17 6.157 17H4.842c-0.462 0-0.885-0.213-1.161-0.583s-0.358-0.837-0.225-1.279l0.596-2.98c0.2-0.672 0.749-1.107 1.412-1.157zM5.022 12.399l-0.596 2.98c-0.052 0.182-0.027 0.326 0.058 0.44s0.216 0.18 0.358 0.18h1.315c0.143 0 0.273-0.065 0.358-0.18s0.11-0.259 0.069-0.396l-0.011-0.045-0.607-3.025c-0.057-0.181-0.258-0.338-0.503-0.355-0.172 0.018-0.374 0.175-0.441 0.401zM24 16.703V21c0 1.654-1.346 3-3 3h-5c-1.654 0-3-1.346-3-3v-5c0-1.654 1.346-3 3-3h4.5c0.068 0 0.132 0.014 0.191 0.039 0.517 0.082 0.996 0.316 1.373 0.694l1.203 1.203c0.472 0.473 0.732 1.1 0.733 1.767zM17 14v2h3v0c0 0 0 0 0 0v-2zM23 16.703c0-0.395-0.16-0.781-0.439-1.061l-1.203-1.203c-0.106-0.106-0.229-0.188-0.357-0.257v1.817c0 0.552-0.449 1-1 1h-3c-0.551 0-1-0.448-1-1v-2c-1.103 0-2 0.897-2 2v5c0 1.103 0.897 2 2 2h5c1.103 0 2-0.897 2-2zM20.5 20c0 1.103-0.897 2-2 2s-2-0.897-2-2 0.897-2 2-2 2 0.897 2 2zM19.5 20c0-0.552-0.449-1-1-1s-1 0.448-1 1 0.449 1 1 1 1-0.448 1-1z" />
</svg>