<svg id="file_css_Layer_1" viewBox="0 0 24 24" fill="currentColor" width="32" height="32" data-name="Layer 1" xmlns="http://www.w3.org/2000/svg" xmlns:xlink="http://www.w3.org/1999/xlink">
    <title>file-css</title>
    <path d="M20.096 5.389 16.612 1.904C15.383 0.676 13.751 0 12.015 0H6.5C4.019 0 2 2.019 2 4.5v15C2 21.981 4.019 24 6.5 24h11c2.481 0 4.5-2.019 4.5-4.5V9.985c0-1.737-0.677-3.369-1.904-4.596zM19.389 6.096c0.55 0.55 0.959 1.199 1.232 1.904H15.5C14.673 8 14 7.327 14 6.5V1.38c0.704 0.273 1.354 0.682 1.904 1.231zM21 19.5c0 1.93-1.57 3.5-3.5 3.5h-11C4.57 23 3 21.43 3 19.5v-15C3 2.57 4.57 1 6.5 1h5.515C12.35 1 12.678 1.038 13 1.096V6.5C13 7.878 14.121 9 15.5 9h5.404C20.962 9.323 21 9.651 21 9.985zM8.873 17.673C8.597 18.445 7.851 19 6.975 19c-1.086 0-1.967-0.881-1.967-1.967L5 14.967C5 13.881 5.881 13 6.967 13c0.879 0 1.628 0.559 1.901 1.336 0.112 0.319-0.13 0.653-0.468 0.658h-4e-3c-0.21 3e-3-0.405-0.123-0.475-0.322C7.784 14.277 7.408 14 6.966 14c-0.533 0-0.967 0.434-0.967 0.967l8e-3 2.063c0 0.537 0.434 0.97 0.967 0.97 0.443 0 0.821-0.279 0.957-0.666 0.069-0.195 0.26-0.319 0.466-0.319 0.341 0 0.59 0.337 0.476 0.658zM14 17.307C14 18.418 13.057 19 12.124 19c-0.965 0-1.862-0.772-1.961-0.86-0.206-0.183-0.225-0.498-0.042-0.705 0.182-0.206 0.498-0.228 0.705-0.044 0.192 0.169 0.801 0.608 1.298 0.608 0.036 0 0.876-8e-3 0.876-0.693 0-0.368-0.411-0.586-1.09-0.9-0.735-0.342-1.651-0.767-1.651-1.783 0-1.055 0.901-1.624 1.75-1.624 0.769 0 1.653 0.671 1.752 0.747 0.218 0.169 0.257 0.483 0.088 0.701-0.167 0.217-0.48 0.259-0.701 0.089-0.288-0.223-0.833-0.537-1.139-0.537-0.26 0-0.75 0.13-0.75 0.624 0 0.352 0.405 0.565 1.073 0.875C13.075 15.843 14 16.273 14 17.307zM19.005 17.307c0 1.111-0.943 1.693-1.876 1.693-0.965 0-1.862-0.772-1.961-0.86-0.206-0.183-0.225-0.498-0.042-0.705 0.183-0.206 0.499-0.228 0.705-0.044 0.192 0.169 0.801 0.608 1.298 0.608 0.036 0 0.876-8e-3 0.876-0.693 0-0.368-0.412-0.586-1.09-0.9-0.736-0.342-1.652-0.767-1.652-1.783 0-1.055 0.901-1.624 1.75-1.624 0.769 0 1.654 0.67 1.753 0.747 0.218 0.169 0.258 0.483 0.089 0.701s-0.482 0.259-0.701 0.09c-0.289-0.223-0.834-0.538-1.141-0.538-0.26 0-0.75 0.13-0.75 0.624 0 0.352 0.405 0.565 1.073 0.875 0.743 0.345 1.669 0.774 1.669 1.809z" />
</svg>