<svg id="file_conversion_Layer_1" viewBox="0 0 24 24" fill="currentColor" width="32" height="32" data-name="Layer 1" xmlns="http://www.w3.org/2000/svg" xmlns:xlink="http://www.w3.org/1999/xlink">
    <title>file-conversion</title>
    <path d="M12.976 5C12.984 5.081 13 5.16 13 5.243V8c0 0.276 0.224 0.5 0.5 0.5S14 8.276 14 8V5.243c0-0.935-0.364-1.813-1.025-2.475l-1.742-1.742C10.582 0.375 9.68 1e-3 8.758 1e-3H5.5c-1.93 0-3.5 1.57-3.5 3.5v7c0 1.93 1.57 3.5 3.5 3.5H8c0.276 0 0.5-0.224 0.5-0.5s-0.224-0.5-0.5-0.5H5.5c-1.379 0-2.5-1.122-2.5-2.5V3.5C3 2.122 4.121 1 5.5 1h3.258C8.84 1 8.919 1.016 9 1.024V3.5C9 4.327 9.673 5 10.5 5zM10 3.5V1.344c0.189 0.109 0.37 0.233 0.525 0.388l1.742 1.742c0.158 0.158 0.282 0.337 0.391 0.525H10.5c-0.275 0-0.5-0.224-0.5-0.499zM19.232 11.025C18.581 10.374 17.679 10 16.757 10h-3.258c-1.93 0-3.5 1.57-3.5 3.5v7c0 1.93 1.57 3.5 3.5 3.5h5c1.93 0 3.5-1.57 3.5-3.5v-5.258c0-0.921-0.374-1.823-1.025-2.475zM20.267 13.474c0.156 0.156 0.28 0.336 0.388 0.525h-2.156c-0.275 0-0.5-0.225-0.5-0.5v-2.156c0.189 0.109 0.37 0.233 0.525 0.388zM20.999 20.499c0 1.379-1.121 2.5-2.5 2.5h-5c-1.379 0-2.5-1.121-2.5-2.5v-7c0-1.378 1.121-2.5 2.5-2.5h3.258c0.082 0 0.161 0.016 0.242 0.024v2.476c0 0.827 0.673 1.5 1.5 1.5h2.476c8e-3 0.081 0.024 0.161 0.024 0.242zM23.999 6.499v2c0 0.276-0.224 0.5-0.5 0.5s-0.5-0.224-0.5-0.5v-2c0-1.378-1.121-2.5-2.5-2.5H17.3l2.061 2.154c0.19 0.2 0.184 0.516-0.016 0.707-0.199 0.191-0.516 0.184-0.707-0.016l-2.219-2.32c-0.562-0.562-0.562-1.49 8e-3-2.06l2.212-2.31c0.192-0.198 0.509-0.207 0.707-0.016 0.199 0.191 0.206 0.507 0.016 0.707l-2.06 2.154h3.199c1.93 0 3.5 1.57 3.498 3.5zM7.58 19.475c0.562 0.562 0.562 1.489-8e-3 2.059l-2.211 2.312c-0.191 0.2-0.508 0.206-0.707 0.016s-0.206-0.507-0.016-0.707l2.06-2.154H3.5c-1.93 0-3.5-1.57-3.5-3.5v-2c0-0.276 0.224-0.5 0.5-0.5s0.5 0.224 0.5 0.5v2c0 1.379 1.121 2.5 2.5 2.5h3.199l-2.06-2.154c-0.19-0.2-0.184-0.517 0.016-0.707 0.199-0.191 0.516-0.184 0.707 0.016z" />
</svg>