<svg id="file_user_Layer_1" viewBox="0 0 24 24" fill="currentColor" width="32" height="32" data-name="Layer 1" xmlns="http://www.w3.org/2000/svg" xmlns:xlink="http://www.w3.org/1999/xlink">
    <title>file-user</title>
    <path d="M12 10c-1.654 0-3 1.346-3 3s1.346 3 3 3 3-1.346 3-3-1.346-3-3-3zM12 15c-1.103 0-2-0.897-2-2s0.897-2 2-2 2 0.897 2 2-0.897 2-2 2zM20.096 5.389 16.612 1.904C15.383 0.676 13.751 0 12.015 0H6.5C4.019 0 2 2.019 2 4.5v15C2 21.981 4.019 24 6.5 24h11c2.481 0 4.5-2.019 4.5-4.5V9.985c0-1.737-0.677-3.369-1.904-4.596zM19.389 6.096c0.55 0.55 0.959 1.199 1.232 1.904H15.5C14.673 8 14 7.327 14 6.5V1.38c0.704 0.273 1.354 0.682 1.904 1.231zM8 23c0-2.206 1.794-4 4-4s4 1.794 4 4zM21 19.5c0 1.93-1.57 3.5-3.5 3.5H17c0-2.757-2.243-5-5-5s-5 2.243-5 5H6.5C4.57 23 3 21.43 3 19.5v-15C3 2.57 4.57 1 6.5 1h5.515C12.35 1 12.678 1.038 13 1.096V6.5C13 7.878 14.121 9 15.5 9h5.404C20.962 9.323 21 9.651 21 9.985z" />
</svg>