<svg id="file_code_Layer_1" viewBox="0 0 24 24" fill="currentColor" width="32" height="32" data-name="Layer 1" xmlns="http://www.w3.org/2000/svg" xmlns:xlink="http://www.w3.org/1999/xlink">
    <title>file-code</title>
    <path d="M20.096 5.404 16.611 1.919c-1.228-1.228-2.86-1.904-4.596-1.904H6.5c-2.481 0-4.5 2.018-4.5 4.5v15c0 2.481 2.019 4.5 4.5 4.5h11c2.481 0 4.5-2.019 4.5-4.5V10c0-1.736-0.676-3.368-1.904-4.596zM19.389 6.111c0.551 0.551 0.97 1.198 1.243 1.904H15.5c-0.827 0-1.5-0.673-1.5-1.5V1.382c0.706 0.273 1.353 0.692 1.904 1.243zM21 19.515c0 1.93-1.57 3.5-3.5 3.5h-11c-1.93 0-3.5-1.57-3.5-3.5v-15c0-1.93 1.57-3.5 3.5-3.5h5.515c0.334 0 0.663 0.03 0.985 0.088v5.412c0 1.378 1.122 2.5 2.5 2.5h5.412C20.97 9.337 21 9.666 21 10zM7.451 14.979C7.16 15.27 7 15.656 7 16.067s0.16 0.797 0.451 1.088l2.903 2.903c0.195 0.195 0.195 0.512 0 0.707-0.098 0.098-0.226 0.146-0.354 0.146s-0.256-0.049-0.354-0.146l-2.903-2.903c-0.479-0.479-0.744-1.117-0.744-1.795s0.264-1.316 0.744-1.795l2.903-2.903c0.195-0.195 0.512-0.195 0.707 0s0.195 0.512 0 0.707zM17.257 14.272c0.479 0.479 0.744 1.117 0.744 1.795s-0.264 1.316-0.744 1.795l-2.903 2.903c-0.098 0.098-0.226 0.146-0.354 0.146s-0.256-0.049-0.354-0.146c-0.195-0.195-0.195-0.512 0-0.707l2.903-2.903C16.84 16.864 17 16.478 17 16.067s-0.16-0.798-0.451-1.088l-2.903-2.903c-0.195-0.195-0.195-0.512 0-0.707s0.512-0.195 0.707 0z" />
</svg>