<svg id="file_zip_alt_Layer_1" viewBox="0 0 24 24" fill="currentColor" width="32" height="32" data-name="Layer 1" xmlns="http://www.w3.org/2000/svg" xmlns:xlink="http://www.w3.org/1999/xlink">
    <title>file-zip-alt</title>
    <path d="M17.5 0h-11C4.019 0 2 2.019 2 4.5v15C2 21.981 4.019 24 6.5 24h11c2.481 0 4.5-2.019 4.5-4.5v-15C22 2.019 19.981 0 17.5 0zM21 19.5c0 1.93-1.57 3.5-3.5 3.5h-11C4.57 23 3 21.43 3 19.5v-15C3 2.57 4.57 1 6.5 1h11C19.43 1 21 2.57 21 4.5zM17.304 4.197c0.195 0.196 0.195 0.512 0 0.708l-0.708 0.707c-0.098 0.097-0.226 0.146-0.354 0.146s-0.256-0.049-0.354-0.146c-0.195-0.196-0.195-0.512 0-0.708l0.708-0.707c0.195-0.194 0.512-0.195 0.708 0zM15.182 6.318c0.195 0.195 0.195 0.512 0 0.707l-0.707 0.708c-0.098 0.098-0.226 0.146-0.354 0.146s-0.256-0.049-0.354-0.146c-0.195-0.195-0.195-0.512 0-0.707l0.707-0.708c0.195-0.195 0.512-0.195 0.708 0zM19.425 2.075c0.195 0.195 0.195 0.512 0 0.707L18.718 3.49c-0.098 0.098-0.226 0.146-0.354 0.146S18.108 3.587 18.01 3.49c-0.195-0.195-0.195-0.512 0-0.707l0.707-0.708c0.195-0.195 0.512-0.195 0.708 0zM8.112 4.903c0.195 0.195 0.195 0.512 0 0.708-0.098 0.098-0.226 0.146-0.354 0.146S7.502 5.708 7.404 5.611L6.696 4.904c-0.195-0.195-0.195-0.512 0-0.708 0.195-0.195 0.512-0.195 0.707 0zM10.233 7.732c-0.098 0.098-0.226 0.146-0.354 0.146S9.623 7.829 9.525 7.732L8.818 7.024c-0.195-0.195-0.195-0.512 0-0.707s0.512-0.195 0.707 0l0.707 0.708c0.195 0.195 0.195 0.512 1e-3 0.707zM10.94 9.146c-0.195-0.195-0.195-0.512 0-0.707s0.512-0.195 0.707 0l0.354 0.354 0.354-0.354c0.195-0.195 0.512-0.195 0.707 0s0.195 0.512 0 0.707l-0.707 0.707c-0.098 0.098-0.226 0.146-0.354 0.146s-0.256-0.049-0.354-0.146zM5.989 2.783c0.195 0.195 0.195 0.512 0 0.707-0.098 0.098-0.226 0.146-0.354 0.146S5.379 3.587 5.281 3.49L4.574 2.782c-0.195-0.195-0.195-0.512 0-0.707s0.512-0.195 0.707 0zM13.435 12.113c-0.188-0.627-0.738-1.063-1.472-1.111-0.661 0.048-1.211 0.484-1.411 1.156l-0.596 2.98c-0.133 0.441-0.052 0.908 0.224 1.278C10.456 16.787 10.879 17 11.342 17h1.314c0.463 0 0.886-0.213 1.162-0.584 0.27-0.363 0.354-0.819 0.231-1.254zM13.016 15.82c-0.085 0.115-0.217 0.181-0.359 0.181h-1.314c-0.143 0-0.274-0.065-0.359-0.181-0.085-0.114-0.11-0.258-0.058-0.439l0.596-2.979c0.068-0.226 0.271-0.384 0.442-0.402 0.244 0.018 0.446 0.176 0.503 0.356l0.607 3.025 0.012 0.045c0.041 0.137 0.016 0.28-0.07 0.394z" />
</svg>