<svg id="file_download_Layer_1" viewBox="0 0 24 24" fill="currentColor" width="32" height="32" data-name="Layer 1" xmlns="http://www.w3.org/2000/svg" xmlns:xlink="http://www.w3.org/1999/xlink">
    <title>file-download</title>
    <path d="M15.904 16.143c0.197 0.193 0.201 0.51 8e-3 0.707l-2.515 2.57c-0.381 0.381-0.88 0.574-1.378 0.579-0.499-4e-3-1.034-0.196-1.413-0.575L8.087 16.85c-0.193-0.197-0.189-0.514 8e-3-0.707 0.199-0.193 0.516-0.188 0.707 8e-3l2.515 2.57c0.056 0.056 0.117 0.103 0.183 0.143v-7.363c0-0.276 0.224-0.5 0.5-0.5s0.5 0.224 0.5 0.5v7.363c0.066-0.04 0.129-0.088 0.187-0.146l2.511-2.566c0.193-0.196 0.51-0.201 0.706-9e-3zM22 9.986v9.515c0 2.481-2.019 4.5-4.5 4.5h-11c-2.481 0-4.5-2.019-4.5-4.5V4.5C2 2.019 4.019 0 6.5 0h5.515c1.735 0 3.368 0.676 4.597 1.904l3.484 3.485C21.324 6.616 22 8.248 22 9.986zM14 6.501c0 0.827 0.673 1.5 1.5 1.5h5.132c-0.273-0.706-0.693-1.353-1.244-1.904l-3.484-3.485C15.352 2.061 14.705 1.642 14 1.369zM21 9.986c0-0.334-0.03-0.663-0.088-0.985H15.5c-1.379 0-2.5-1.122-2.5-2.5V1.088C12.678 1.03 12.349 1 12.015 1H6.5C4.57 1 3 2.57 3 4.5v15C3 21.43 4.57 23 6.5 23h11c1.93 0 3.5-1.57 3.5-3.5zM12.019 20c-7e-3 0 6e-3 0 0 0z" />
</svg>