<svg id="file_upload_Layer_1" viewBox="0 0 24 24" fill="currentColor" width="32" height="32" data-name="Layer 1" xmlns="http://www.w3.org/2000/svg" xmlns:xlink="http://www.w3.org/1999/xlink">
    <title>file-upload</title>
    <path d="M20.096 5.389 16.611 1.904C15.383 0.676 13.751 0 12.015 0H6.5C4.019 0 2 2.019 2 4.5v15C2 21.981 4.019 24 6.5 24h11c2.481 0 4.5-2.019 4.5-4.5V9.985c0-1.736-0.676-3.369-1.904-4.596zM19.389 6.096C19.94 6.647 20.359 7.294 20.632 8H15.5C14.673 8 14 7.327 14 6.5V1.368c0.706 0.273 1.353 0.692 1.904 1.243zM21 19.5c0 1.93-1.57 3.5-3.5 3.5h-11C4.57 23 3 21.43 3 19.5v-15C3 2.57 4.57 1 6.5 1h5.515C12.349 1 12.678 1.03 13 1.088V6.5C13 7.878 14.122 9 15.5 9h5.412C20.97 9.322 21 9.651 21 9.985zM15.913 14.15c0.193 0.197 0.189 0.514-8e-3 0.707C15.808 14.952 15.681 15 15.555 15c-0.13 0-0.259-0.05-0.357-0.15l-2.515-2.57c-0.056-0.056-0.117-0.103-0.183-0.142v7.363c0 0.276-0.224 0.5-0.5 0.5s-0.5-0.224-0.5-0.5v-7.362c-0.066 0.04-0.129 0.088-0.187 0.146l-2.511 2.566c-0.193 0.198-0.509 0.202-0.707 8e-3-0.197-0.193-0.201-0.51-8e-3-0.707l2.515-2.57c0.384-0.384 0.886-0.577 1.388-0.58 3e-3 0 6e-3 0 9e-3 0s6e-3 0 9e-3 0c0.502 2e-3 1.003 0.194 1.384 0.576z" />
</svg>