<svg id="file_circle_info_Layer_1" viewBox="0 0 24 24" fill="currentColor" width="32" height="32" data-name="Layer 1" xmlns="http://www.w3.org/2000/svg" xmlns:xlink="http://www.w3.org/1999/xlink">
    <title>file-circle-info</title>
    <path d="M9.5 21h-5C2.57 21 1 19.43 1 17.5v-13C1 2.57 2.57 1 4.5 1H11v3.5C11 5.88 12.12 7 13.5 7H17v1.5C17 8.78 17.22 9 17.5 9S18 8.78 18 8.5c0 0 0.01-2.1 0-2.14-0.09-0.79-0.46-1.53-1.03-2.09l-3.24-3.24C13.08 0.38 12.18 0 11.26 0H4.5C2.02 0 0 2.02 0 4.5v13C0 19.98 2.02 22 4.5 22h5c0.28 0 0.5-0.22 0.5-0.5S9.78 21 9.5 21zM16.27 4.97c0.29 0.29 0.5 0.64 0.62 1.03H13.5C12.67 6 12 5.33 12 4.5V1.11c0.38 0.12 0.74 0.33 1.03 0.62zM17.5 11c-3.58 0-6.5 2.92-6.5 6.5s2.92 6.5 6.5 6.5 6.5-2.92 6.5-6.5-2.92-6.5-6.5-6.5zM17.5 23c-3.03 0-5.5-2.47-5.5-5.5s2.47-5.5 5.5-5.5 5.5 2.47 5.5 5.5-2.47 5.5-5.5 5.5zM18.5 15c0 0.55-0.45 1-1 1s-1-0.45-1-1 0.45-1 1-1 1 0.45 1 1zM18 17.5v3c0 0.28-0.22 0.5-0.5 0.5S17 20.78 17 20.5v-3c0-0.28 0.22-0.5 0.5-0.5s0.5 0.22 0.5 0.5z" />
</svg>