<svg id="file_csv_Layer_1" viewBox="0 0 24 24" fill="currentColor" width="32" height="32" data-name="Layer 1" xmlns="http://www.w3.org/2000/svg" xmlns:xlink="http://www.w3.org/1999/xlink">
    <title>file-csv</title>
    <path d="M8.873 17.673C8.597 18.445 7.851 19 6.975 19c-1.086 0-1.967-0.881-1.967-1.967L5 14.967C5 13.881 5.881 13 6.967 13c0.879 0 1.628 0.559 1.901 1.336 0.112 0.319-0.13 0.653-0.468 0.658h-4e-3c-0.21 3e-3-0.405-0.123-0.475-0.322C7.784 14.277 7.408 14 6.966 14c-0.533 0-0.967 0.434-0.967 0.967l8e-3 2.063c0 0.537 0.434 0.97 0.967 0.97 0.443 0 0.821-0.279 0.957-0.666 0.069-0.195 0.26-0.319 0.466-0.319 0.341 0 0.59 0.337 0.476 0.658zM12.8 15.553c-0.463-0.173-1.327-0.54-1.327-0.54-0.143-0.096-0.21-0.256-0.188-0.438 0.016-0.108 0.092-0.369 0.459-0.481 0.758-0.234 1.431 0.33 1.438 0.335 0.212 0.182 0.532 0.154 0.71-0.061l0.019-0.023c0.175-0.21 0.148-0.522-0.06-0.7l-0.016-0.014c-0.013-0.01-1.101-0.931-2.385-0.531-0.637 0.193-1.088 0.701-1.177 1.325-0.084 0.603 0.185 1.154 0.736 1.51 3e-3 0 0.687 0.309 1.435 0.59 0.185 0.069 0.786 0.329 0.706 0.788-0.057 0.315-0.41 0.648-0.953 0.648-0.514 0-1.008-0.212-1.323-0.565-0.189-0.211-0.513-0.227-0.722-0.035l-0.01 0.01c-0.204 0.188-0.219 0.504-0.034 0.71l0.01 0.012c0.514 0.575 1.272 0.906 2.079 0.906 0.982 0 1.806-0.632 1.959-1.502 0.115-0.651-0.182-1.504-1.356-1.944zM18.393 13.001c-0.239 0-0.445 0.168-0.493 0.401l-0.797 3.855-0.918-3.869c-0.054-0.227-0.257-0.387-0.49-0.387-0.328 0-0.618 0.308-0.537 0.626l1.204 4.78C16.45 18.756 16.764 19 17.123 19c0.372 0 0.693-0.261 0.768-0.625l0.995-4.769c0.065-0.313-0.173-0.606-0.493-0.605zM22 9.986v9.515c0 2.481-2.019 4.5-4.5 4.5h-11c-2.481 0-4.5-2.019-4.5-4.5V4.5C2 2.019 4.019 0 6.5 0h5.515c1.736 0 3.369 0.677 4.597 1.904l3.484 3.484C21.324 6.616 22 8.248 22 9.986zM14 6.501c0 0.827 0.673 1.5 1.5 1.5h5.132c-0.273-0.706-0.693-1.353-1.244-1.904l-3.484-3.484C15.353 2.062 14.705 1.642 14 1.369zM21 9.986c0-0.334-0.03-0.663-0.088-0.985H15.5c-1.379 0-2.5-1.121-2.5-2.5V1.088C12.678 1.03 12.349 1 12.015 1H6.5C4.57 1 3 2.57 3 4.5v15C3 21.43 4.57 23 6.5 23h11c1.93 0 3.5-1.57 3.5-3.5z" />
</svg>