<svg id="file_invoice_dollar_Layer_1" viewBox="0 0 24 24" fill="currentColor" width="32" height="32" data-name="Layer 1" xmlns="http://www.w3.org/2000/svg" xmlns:xlink="http://www.w3.org/1999/xlink">
    <title>file-invoice-dollar</title>
    <path d="M5 15c0-1.103 0.897-2 2-2h6.5c0.276 0 0.5 0.224 0.5 0.5S13.776 14 13.5 14H7c-0.551 0-1 0.449-1 1v2c0 0.551 0.449 1 1 1h7.5c0.276 0 0.5 0.224 0.5 0.5S14.776 19 14.5 19H7c-1.103 0-2-0.897-2-2zM5.5 10h4C9.776 10 10 9.776 10 9.5S9.776 9 9.5 9h-4C5.224 9 5 9.224 5 9.5S5.224 10 5.5 10zM5.5 6h4C9.776 6 10 5.776 10 5.5S9.776 5 9.5 5h-4C5.224 5 5 5.224 5 5.5S5.224 6 5.5 6zM17 23.5c0 0.276-0.224 0.5-0.5 0.5h-11C3.019 24 1 21.981 1 19.5v-15C1 2.019 3.019 0 5.5 0h5.515c1.735 0 3.368 0.676 4.597 1.904l3.484 3.485c0.824 0.824 1.413 1.857 1.702 2.987 0.038 0.15 5e-3 0.309-0.09 0.431S20.468 9 20.313 9H14.5C13.121 9 12 7.878 12 6.5V1.087C11.678 1.029 11.349 1 11.015 1H5.5C3.57 1 2 2.57 2 4.5v15C2 21.43 3.57 23 5.5 23h11c0.276 0 0.5 0.224 0.5 0.5zM13 6.5C13 7.327 13.673 8 14.5 8h5.129c-0.275-0.712-0.697-1.361-1.24-1.904l-3.484-3.485c-0.552-0.551-1.199-0.97-1.904-1.243zM21.79 16.781l-3.422-0.55C17.575 16.104 17 15.428 17 14.626 17 13.73 17.729 13 18.626 13h2.8c0.623 0 1.204 0.335 1.517 0.875 0.139 0.24 0.445 0.32 0.683 0.183 0.239-0.138 0.321-0.444 0.183-0.683C23.319 12.527 22.407 12 21.427 12h-0.926v-1.5c0-0.276-0.224-0.5-0.5-0.5s-0.5 0.224-0.5 0.5V12h-0.874c-1.448 0-2.626 1.178-2.626 2.626 0 1.296 0.93 2.387 2.21 2.593l3.422 0.55c0.793 0.127 1.368 0.803 1.368 1.605 0 0.896-0.729 1.626-1.626 1.626h-2.8c-0.623 0-1.204-0.335-1.517-0.875-0.139-0.24-0.448-0.321-0.683-0.183-0.239 0.138-0.321 0.444-0.183 0.683 0.49 0.848 1.402 1.375 2.382 1.375H19.5v1.5c0 0.276 0.224 0.5 0.5 0.5s0.5-0.224 0.5-0.5V22h0.874C22.822 22 24 20.822 24 19.374c0-1.296-0.93-2.387-2.21-2.593z" />
</svg>