<svg id="film_canister_Layer_1" viewBox="0 0 24 24" fill="currentColor" width="32" height="32" data-name="Layer 1" xmlns="http://www.w3.org/2000/svg" xmlns:xlink="http://www.w3.org/1999/xlink">
    <title>film-canister</title>
    <path d="M20.5 4H13V1h1.5C14.776 1 15 0.776 15 0.5S14.776 0 14.5 0h-14C0.224 0 0 0.224 0 0.5S0.224 1 0.5 1H2v22H0.5C0.224 23 0 23.224 0 23.5S0.224 24 0.5 24h14c0.276 0 0.5-0.224 0.5-0.5S14.776 23 14.5 23H13v-3h7.5c1.93 0 3.5-1.57 3.5-3.5v-9C24 5.57 22.43 4 20.5 4zM23 7.5V8h-3V5h0.5C21.878 5 23 6.122 23 7.5zM23 15H13V9h10zM19 16v3h-3v-3zM16 8V5h3v3zM15 5v3h-2V5zM3 23V1h9v22zM13 16h2v3h-2zM20.5 19H20v-3h3v0.5c0 1.378-1.122 2.5-2.5 2.5z" />
</svg>