<svg id="film_slash_Layer_1" viewBox="0 0 24 24" fill="currentColor" width="32" height="32" data-name="Layer 1" xmlns="http://www.w3.org/2000/svg" xmlns:xlink="http://www.w3.org/1999/xlink">
    <title>film-slash</title>
    <path d="M17.5 21H7v-8h1.5C8.776 13 9 12.776 9 12.5S8.776 12 8.5 12H7V9.5C7 9.224 6.776 9 6.5 9S6 9.224 6 9.5V12H3V9h1.5C4.776 9 5 8.776 5 8.5S4.776 8 4.5 8H3V6.5C3 6.224 2.776 6 2.5 6S2 6.224 2 6.5v11C2 19.981 4.019 22 6.5 22h11c0.276 0 0.5-0.224 0.5-0.5S17.776 21 17.5 21zM6 13v3H3v-3zM3 17.5V17h3v3.949c-1.692-0.245-3-1.691-3-3.449zM23.854 23.146l-2.848-2.848c0.635-0.795 0.995-1.775 0.995-2.798v-11c0-2.481-2.019-4.5-4.5-4.5H6.5C5.477 2 4.496 2.359 3.701 2.994L0.854 0.146c-0.196-0.195-0.512-0.195-0.708 0s-0.195 0.512 0 0.708l23 23C23.244 23.952 23.372 24 23.5 24s0.256-0.049 0.354-0.146c0.195-0.195 0.195-0.512 0-0.708zM18 17.292v-0.293h3v0.5c0 0.758-0.257 1.483-0.707 2.086zM7 3h10v9h-4.293L7 6.293zM18 13h3v3h-3zM21 12h-3V9h3zM17 13v3.293L13.707 13zM21 6.5V8h-3V3.051c1.692 0.245 3 1.691 3 3.449zM6 3.045v2.248L4.414 3.707C4.882 3.357 5.423 3.129 6 3.045z" />
</svg>