<svg id="films_Layer_1" viewBox="0 0 24 24" fill="currentColor" width="32" height="32" data-name="Layer 1" xmlns="http://www.w3.org/2000/svg" xmlns:xlink="http://www.w3.org/1999/xlink">
    <title>films</title>
    <path d="M20 1H9C6.794 1 5 2.794 5 5v9c0 2.206 1.794 4 4 4h11c2.206 0 4-1.794 4-4V5c0-2.206-1.794-4-4-4zM9 9H6V6h3zM6 10h3v3H6zM10 2h9v15h-9zM20 6h3v3h-3zM20 10h3v3h-3zM23 5h-3V2c1.654 0 3 1.346 3 3zM9 2v3H6c0-1.654 1.346-3 3-3zM6 14h3v3c-1.654 0-3-1.346-3-3zM20 17v-3h3c0 1.654-1.346 3-3 3zM17.744 20.229c0.188 0.203 0.176 0.52-0.027 0.707C16.975 21.623 16.01 22 15 22H4c-2.206 0-4-1.794-4-4v-8c0-1.563 0.865-2.845 2.313-3.429C2.57 6.47 2.86 6.592 2.964 6.848c0.103 0.256-0.021 0.547-0.277 0.65C1.615 7.93 1 8.842 1 9.999v8c0 1.654 1.346 3 3 3h11c0.758 0 1.481-0.283 2.038-0.799 0.202-0.188 0.52-0.177 0.706 0.029z" />
</svg>