<svg id="filter_Layer_1" viewBox="0 0 24 24" fill="currentColor" width="32" height="32" data-name="Layer 1" xmlns="http://www.w3.org/2000/svg" xmlns:xlink="http://www.w3.org/1999/xlink">
    <title>filter</title>
    <path d="M19.239 0H4.76C2.687 0 1 1.688 1 3.761c0 0.922 0.337 1.81 0.95 2.498L9 14.191v6.31c0 0.176 0.092 0.339 0.243 0.429l5 3c0.079 0.048 0.168 0.071 0.257 0.071 0.085 0 0.17-0.021 0.246-0.064C14.903 23.848 15 23.681 15 23.501v-9.31l7.051-7.932C22.663 5.571 23 4.683 23 3.761 23 1.688 21.312 0 19.239 0zM21.302 5.595l-7.177 8.073c-0.081 0.092-0.126 0.21-0.126 0.332v8.617l-4-2.4V14c0-0.122-0.045-0.24-0.126-0.332L2.697 5.595C2.247 5.089 2 4.438 2 3.761 2 2.239 3.238 1 4.76 1h14.479C20.761 1 22 2.238 22 3.761c0 0.677-0.247 1.328-0.698 1.834z" />
</svg>