<svg id="filter_list_Layer_1" viewBox="0 0 24 24" fill="currentColor" width="32" height="32" data-name="Layer 1" xmlns="http://www.w3.org/2000/svg" xmlns:xlink="http://www.w3.org/1999/xlink">
    <title>filter-list</title>
    <path d="M17 5.42C17 3.534 15.466 2 13.58 2H3.42C1.534 2 0 3.534 0 5.42 0 6.235 0.292 7.026 0.824 7.646L6 13.686v4.021c0 0.469 0.224 0.917 0.6 1.2l2.468 1.851c0.214 0.161 0.468 0.243 0.724 0.243 0.184 0 0.369-0.042 0.541-0.128 0.412-0.206 0.667-0.62 0.667-1.08v-6.106l5.177-6.04C16.708 7.027 17 6.237 17 5.42zM15.417 6.995l-5.297 6.18c-0.078 0.09-0.121 0.206-0.121 0.325v6.291c0 0.112-0.072 0.164-0.115 0.186-0.042 0.021-0.128 0.047-0.218-0.02l-2.467-1.851c-0.125-0.094-0.2-0.244-0.2-0.4v-4.207c0-0.119-0.042-0.235-0.121-0.325L1.583 6.995C1.207 6.557 1 5.997 1 5.42 1 4.086 2.085 3 3.42 3h10.16C14.914 3 16 4.085 16 5.42c0 0.577-0.207 1.137-0.583 1.575zM24 19.5c0 0.276-0.224 0.5-0.5 0.5h-10c-0.276 0-0.5-0.224-0.5-0.5s0.224-0.5 0.5-0.5h10c0.276 0 0.5 0.224 0.5 0.5zM24 16.5c0 0.276-0.224 0.5-0.5 0.5h-10c-0.276 0-0.5-0.224-0.5-0.5s0.224-0.5 0.5-0.5h10c0.276 0 0.5 0.224 0.5 0.5zM24 13.5c0 0.276-0.224 0.5-0.5 0.5h-9c-0.276 0-0.5-0.224-0.5-0.5s0.224-0.5 0.5-0.5h9c0.276 0 0.5 0.224 0.5 0.5zM17 10h6.5c0.276 0 0.5 0.224 0.5 0.5S23.776 11 23.5 11H17c-0.276 0-0.5-0.224-0.5-0.5S16.724 10 17 10z" />
</svg>