<svg id="financial_health_Layer_1" viewBox="0 0 24 24" fill="currentColor" width="32" height="32" data-name="Layer 1" xmlns="http://www.w3.org/2000/svg" xmlns:xlink="http://www.w3.org/1999/xlink">
    <title>financial-health</title>
    <path d="M21.5 8C20.121 8 19 9.122 19 10.5c0 1.207 0.86 2.217 2 2.449V17c0 2.757-2.243 5-5 5s-5-2.243-5-5v-3.025c3.351-0.257 6-3.059 6-6.475v-3C17 2.019 14.981 0 12.5 0 12.224 0 12 0.224 12 0.5S12.224 1 12.5 1C14.43 1 16 2.57 16 4.5v3c0 3.033-2.468 5.5-5.5 5.5S5 10.533 5 7.5v-3C5 2.57 6.57 1 8.5 1 8.776 1 9 0.776 9 0.5S8.776 0 8.5 0C6.019 0 4 2.019 4 4.5v3c0 3.415 2.649 6.218 6 6.475V17c0 3.309 2.691 6 6 6s6-2.691 6-6v-4.051c1.14-0.232 2-1.242 2-2.449 0-1.378-1.121-2.5-2.5-2.5zM21.5 12c-0.827 0-1.5-0.673-1.5-1.5S20.673 9 21.5 9 23 9.673 23 10.5 22.327 12 21.5 12zM7 20.757C7 21.994 5.994 23 4.756 23H4v0.5C4 23.776 3.776 24 3.5 24S3 23.776 3 23.5V23H2.449c-0.979 0-1.891-0.526-2.381-1.375-0.139-0.238-0.057-0.545 0.182-0.683 0.24-0.141 0.545-0.057 0.683 0.183C1.245 21.665 1.827 22 2.449 22h2.308c0.686 0 1.244-0.558 1.244-1.243 0-0.536-0.342-1.011-0.85-1.18l-3.616-1.205c-0.917-0.306-1.534-1.161-1.534-2.129C1e-3 15.006 1.007 14 2.245 14h0.756v-0.5c0-0.276 0.224-0.5 0.5-0.5s0.5 0.224 0.5 0.5V14h0.551c0.979 0 1.891 0.526 2.381 1.375 0.139 0.238 0.057 0.545-0.182 0.683-0.241 0.139-0.546 0.056-0.683-0.183C5.756 15.335 5.174 15 4.552 15H2.244C1.558 15 1 15.558 1 16.243c0 0.536 0.342 1.011 0.85 1.18l3.616 1.205C6.383 18.934 7 19.789 7 20.757z" />
</svg>