<svg id="fingerprint_verified_Layer_1" viewBox="0 0 24 24" fill="currentColor" width="32" height="32" data-name="Layer 1" xmlns="http://www.w3.org/2000/svg" xmlns:xlink="http://www.w3.org/1999/xlink">
    <title>fingerprint-verified</title>
    <path d="M17.5 11c-3.584 0-6.5 2.916-6.5 6.5s2.916 6.5 6.5 6.5 6.5-2.916 6.5-6.5-2.916-6.5-6.5-6.5zM17.5 23c-3.033 0-5.5-2.468-5.5-5.5s2.467-5.5 5.5-5.5 5.5 2.468 5.5 5.5-2.467 5.5-5.5 5.5zM20.85 16.143c0.192 0.198 0.187 0.515-0.012 0.707l-2.703 2.614c-0.36 0.355-0.835 0.533-1.311 0.533s-0.949-0.177-1.312-0.531l-1.364-1.347c-0.197-0.193-0.199-0.51-5e-3-0.707 0.193-0.195 0.511-0.198 0.707-4e-3l1.363 1.345c0.337 0.33 0.885 0.326 1.223-4e-3l2.706-2.618c0.199-0.191 0.516-0.187 0.708 0.012zM9 11l5e-3 0.639c0.037 2.95 0.097 7.889-5.237 11.283C3.685 22.975 3.592 23 3.5 23c-0.166 0-0.327-0.082-0.422-0.231-0.148-0.233-0.08-0.542 0.153-0.69 4.864-3.096 4.81-7.508 4.774-10.427L8 11.001c0-1.654 1.346-3 3-3 1.193 0 2.272 0.707 2.75 1.8 0.111 0.253-5e-3 0.548-0.258 0.658-0.253 0.114-0.548-5e-3-0.658-0.258-0.319-0.729-1.039-1.2-1.834-1.2-1.103 0-2 0.897-2 1.999zM17.686 8.851c0.083 0.263-0.064 0.544-0.328 0.626-0.05 0.016-0.1 0.023-0.149 0.023-0.213 0-0.41-0.137-0.477-0.351C15.954 6.667 13.685 5 11.086 5 9.41 5 7.804 5.719 6.681 6.972c-0.185 0.207-0.5 0.223-0.706 0.039-0.206-0.185-0.223-0.5-0.039-0.706C7.248 4.84 9.125 4 11.086 4c3.039 0 5.691 1.949 6.6 4.851zM5 11c0 6.695-3.029 8.504-4.332 8.971C0.612 19.991 0.556 20 0.5 20c-0.205 0-0.397-0.127-0.471-0.331-0.093-0.26 0.042-0.547 0.302-0.64C1.191 18.72 3.999 17.23 3.999 11c0-0.182 7e-3-0.363 0.022-0.542 0.023-0.274 0.262-0.488 0.54-0.457 0.275 0.022 0.479 0.264 0.457 0.54C5.005 10.692 4.999 10.845 5 11zM0 13.5V11C0 4.935 4.935 0 11 0c2.4 0 4.683 0.763 6.601 2.206 0.221 0.166 0.265 0.479 0.099 0.7-0.165 0.22-0.479 0.265-0.7 0.099C15.256 1.693 13.182 1 11 1 5.486 1 1 5.486 1 11v2.5C1 13.776 0.776 14 0.5 14S0 13.776 0 13.5zM20 6.645c-0.121-0.249-0.017-0.548 0.231-0.668 0.25-0.12 0.548-0.017 0.668 0.231 0.573 1.179 0.926 2.439 1.05 3.746 0.026 0.275-0.175 0.519-0.45 0.545-0.016 2e-3-0.032 2e-3-0.048 2e-3-0.255 0-0.473-0.194-0.497-0.453C20.841 8.86 20.52 7.715 20 6.645z" />
</svg>