<svg id="fingerprint_Layer_1" viewBox="0 0 24 24" fill="currentColor" width="32" height="32" data-name="Layer 1" xmlns="http://www.w3.org/2000/svg" xmlns:xlink="http://www.w3.org/1999/xlink">
    <title>fingerprint</title>
    <path d="M10 11c0 3.416-0.437 8.263-4.213 10.909C5.7 21.971 5.599 22 5.5 22c-0.158 0-0.312-0.074-0.41-0.213-0.158-0.227-0.104-0.538 0.123-0.696C8.608 18.712 9 14.193 9 11c0-1.654 1.346-3 3-3 1.422 0 2.658 1.01 2.94 2.4 0.055 0.271-0.12 0.535-0.391 0.59-0.272 0.057-0.535-0.12-0.59-0.391-0.188-0.927-1.012-1.6-1.96-1.6-1.103 0-2 0.897-1.999 2.001zM14.504 14.003c-0.258-0.03-0.52 0.171-0.548 0.446-0.249 2.416-0.914 5.946-3.8 8.688-0.2 0.19-0.208 0.507-0.018 0.707 0.098 0.104 0.23 0.155 0.362 0.155 0.124 0 0.248-0.046 0.344-0.138 3.127-2.971 3.841-6.736 4.106-9.312 0.028-0.274-0.171-0.52-0.446-0.546zM17.281 20.066c-0.26-0.089-0.546 0.042-0.641 0.301-0.368 1.022-0.818 1.992-1.337 2.881-0.14 0.238-0.059 0.545 0.18 0.684C15.562 23.979 15.649 24 15.735 24c0.172 0 0.339-0.089 0.432-0.248 0.549-0.941 1.025-1.966 1.415-3.045 0.094-0.26-0.041-0.547-0.301-0.641zM12.085 4c-1.96 0-3.837 0.84-5.15 2.304C6.751 6.51 6.768 6.826 6.974 7.01 7.18 7.195 7.495 7.178 7.68 6.972 8.803 5.719 10.408 5 12.085 5 15.346 5 18 7.653 18 10.915c0 1.395 0 3.729-0.505 6.318-0.053 0.271 0.125 0.534 0.396 0.587 0.032 6e-3 0.064 9e-3 0.097 9e-3 0.234 0 0.443-0.166 0.49-0.404C19 14.739 19 12.346 19 10.915 19 7.103 15.898 4 12.085 4zM6.019 10.541c0.022-0.275-0.182-0.517-0.457-0.539-0.286-0.018-0.517 0.182-0.54 0.457C5.007 10.638 5 10.818 5 11c0 6.664-3.191 7.794-4.564 7.97-0.273 0.035-0.467 0.286-0.432 0.56 0.033 0.253 0.248 0.437 0.496 0.437 0.021 0 0.042 0 0.064-4e-3C2.198 19.753 6 18.459 6 11.001c0-0.154 6e-3-0.308 0.019-0.46zM1.5 14C1.776 14 2 13.776 2 13.5V11C2 5.486 6.486 1 12 1c2.182 0 4.256 0.693 5.999 2.005 0.219 0.166 0.533 0.124 0.7-0.099 0.166-0.221 0.122-0.534-0.099-0.7C16.682 0.763 14.4 0 11.999 0 5.935 0 1 4.935 1 11v2.5C1 13.776 1.224 14 1.5 14zM21.899 6.207c-0.119-0.248-0.42-0.353-0.668-0.23-0.248 0.12-0.352 0.42-0.23 0.668C21.664 8.009 22 9.474 22 11c0 2.191 0 7.321-2.229 12.296-0.113 0.252 0 0.548 0.252 0.66 0.066 0.03 0.136 0.044 0.204 0.044 0.19 0 0.373-0.11 0.456-0.296C23 18.536 23 13.255 23 11c0-1.679-0.37-3.292-1.101-4.793z" />
</svg>