<svg id="fingerprint_identification_Layer_1" viewBox="0 0 24 24" fill="currentColor" width="32" height="32" data-name="Layer 1" xmlns="http://www.w3.org/2000/svg" xmlns:xlink="http://www.w3.org/1999/xlink">
    <title>fingerprint-identification</title>
    <path d="M23.5 12H20c0-1.277-0.246-2.405-0.751-3.446-0.12-0.249-0.42-0.352-0.669-0.231-0.248 0.121-0.352 0.42-0.231 0.668C18.793 9.906 19 10.862 19 12h-2c0-2.804-2.195-5-4.999-5-1.053 0-2.064 0.32-2.924 0.926-0.226 0.159-0.28 0.471-0.121 0.697s0.47 0.28 0.697 0.121c0.69-0.486 1.502-0.743 2.348-0.743 2.232 0 3.981 1.743 3.997 4H14c0-1.103-0.904-2-2.017-2S10 10.879 10 12.001H8c0-0.758 0.104-1.271 0.359-1.769 0.126-0.246 0.029-0.547-0.217-0.673C7.897 9.433 7.595 9.53 7.469 9.776c-0.329 0.643-0.47 1.308-0.47 2.225h-2c0-3.925 3.068-7 6.985-7 1.543 0 3.009 0.49 4.241 1.417 0.22 0.166 0.532 0.123 0.7-0.099 0.166-0.221 0.122-0.534-0.099-0.7C15.419 4.56 13.745 4 11.983 4 7.505 4 3.998 7.514 3.998 12H0.5C0.224 12 0 12.224 0 12.5S0.224 13 0.5 13h23c0.276 0 0.5-0.224 0.5-0.5S23.776 12 23.5 12zM11 12c0-0.57 0.423-1 0.983-1 0.57 0 1.017 0.439 1.017 1zM0 6.5v-2C0 2.019 2.019 0 4.5 0h2C6.776 0 7 0.224 7 0.5S6.776 1 6.5 1h-2C2.57 1 1 2.57 1 4.5v2C1 6.776 0.776 7 0.5 7S0 6.776 0 6.5zM7 23.5C7 23.776 6.776 24 6.5 24h-2C2.019 24 0 21.981 0 19.5v-2C0 17.224 0.224 17 0.5 17S1 17.224 1 17.5v2C1 21.43 2.57 23 4.5 23h2C6.776 23 7 23.224 7 23.5zM24 17.5v2c0 2.481-2.019 4.5-4.5 4.5h-2c-0.276 0-0.5-0.224-0.5-0.5s0.224-0.5 0.5-0.5h2c1.93 0 3.5-1.57 3.5-3.5v-2c0-0.276 0.224-0.5 0.5-0.5s0.5 0.224 0.5 0.5zM24 4.5v2C24 6.776 23.776 7 23.5 7S23 6.776 23 6.5v-2C23 2.57 21.43 1 19.5 1h-2C17.224 1 17 0.776 17 0.5S17.224 0 17.5 0h2C21.981 0 24 2.019 24 4.5zM4.022 18.647c-0.081-0.264 0.067-0.543 0.331-0.625 2.177-0.669 2.641-2.554 2.66-2.634 0.062-0.268 0.333-0.432 0.599-0.375 0.269 0.062 0.437 0.327 0.376 0.596-0.023 0.103-0.595 2.524-3.341 3.369-0.257 0.081-0.544-0.065-0.625-0.331zM10.961 15.481c0 0.24-0.676 2.906-3.107 4.888-0.213 0.174-0.528 0.143-0.704-0.072-0.174-0.214-0.142-0.529 0.072-0.704 2.156-1.758 2.74-4.156 2.744-4.179 0-0.276 0.222-0.466 0.498-0.466s0.498 0.257 0.497 0.533zM13.961 15.5c0 0.025-0.347 3.083-1.873 5.374-0.154 0.232-0.466 0.29-0.693 0.139-0.23-0.153-0.292-0.463-0.139-0.693 1.366-2.05 1.704-4.83 1.707-4.856 0.025-0.266 0.248-0.476 0.522-0.457 0.267 0.013 0.477 0.228 0.476 0.493zM16.807 15.5c0 0.131-0.417 3.434-1.251 5.424-0.107 0.258-0.405 0.374-0.654 0.269-0.255-0.107-0.374-0.4-0.268-0.654 0.727-1.737 1.151-4.793 1.174-5.067 0.021-0.268 0.292-0.491 0.519-0.465 0.269 0.011 0.48 0.226 0.48 0.493zM18.407 20.432c-0.26-0.094-0.395-0.38-0.301-0.64 0.639-1.765 0.893-4.278 0.895-4.301 0.021-0.269 0.242-0.456 0.517-0.467 0.27 0.01 0.482 0.227 0.482 0.496 0 0.129-0.278 2.748-0.952 4.612-0.094 0.262-0.388 0.394-0.641 0.3z" />
</svg>