<svg id="finger_droplet_Layer_1" viewBox="0 0 24 24" fill="currentColor" width="32" height="32" data-name="Layer 1" xmlns="http://www.w3.org/2000/svg" xmlns:xlink="http://www.w3.org/1999/xlink">
    <title>finger-droplet</title>
    <path d="M23.001 16.083l-1.395-1.632c-0.608-0.596-1.601-0.597-2.244 0.033l-1.345 1.578c-0.656 0.656-1.018 1.532-1.018 2.466 0 1.202 0.613 2.311 1.641 2.968 0.558 0.356 1.209 0.535 1.86 0.535 0.663 0 1.327-0.185 1.89-0.555 1.007-0.661 1.608-1.763 1.608-2.948 0-0.934-0.364-1.813-0.997-2.445zM21.842 20.641c-0.792 0.52-1.863 0.524-2.663 0.013-0.75-0.479-1.18-1.254-1.18-2.125 0-0.667 0.257-1.292 0.751-1.788l1.341-1.574c0.119-0.116 0.272-0.172 0.42-0.172 0.137 0 0.269 0.047 0.363 0.139l1.391 1.628c0.472 0.472 0.732 1.1 0.732 1.767 0 0.86-0.422 1.63-1.155 2.112zM23.966 9.916c0.119-0.734-0.085-1.476-0.562-2.035S22.234 7 21.498 7l-8.479 0.022-4.068-4.095C8.359 2.331 7.57 2.002 6.729 2h-5e-3c-0.839 0-1.627 0.326-2.22 0.919L2.196 5.227C0.779 6.643-1e-3 8.526-1e-3 10.53v6.969c0 2.481 2.019 4.5 4.5 4.5H9.22c2.138 0 3.993-1.521 4.413-3.617l1.276-6.383h6.483c1.273 0 2.379-0.896 2.574-2.083zM14.5 11c-0.238 0-0.443 0.168-0.49 0.402l-1.357 6.785C12.327 19.817 10.883 21 9.221 21H4.5C2.57 21 1 19.43 1 17.5v-6.969c0-1.737 0.676-3.369 1.904-4.596l2.308-2.308c0.404-0.404 0.941-0.626 1.513-0.626h3e-3c0.573 0 1.111 0.225 1.514 0.632l3.371 3.394L6.498 7.04c-0.276 0-0.499 0.225-0.499 0.501 0 0.275 0.225 0.499 0.5 0.499H6.5l14.999-0.039c0.44 0 0.857 0.193 1.143 0.529 0.29 0.341 0.409 0.776 0.336 1.227-0.115 0.709-0.797 1.245-1.586 1.245z" />
</svg>