<svg id="fire_extinguisher_Layer_1" viewBox="0 0 24 24" fill="currentColor" width="32" height="32" data-name="Layer 1" xmlns="http://www.w3.org/2000/svg" xmlns:xlink="http://www.w3.org/1999/xlink">
    <title>fire-extinguisher</title>
    <path d="M12.5 3H6V1.5C6 1.224 5.776 1 5.5 1S5 1.224 5 1.5v1.573C3.296 3.235 1.659 3.783 0.224 4.73-6e-3 4.882-0.07 5.192 0.082 5.423 0.178 5.569 0.337 5.648 0.5 5.648c0.095 0 0.19-0.027 0.275-0.083C2.046 4.726 3.493 4.231 5 4.073v1.953C2.201 6.28 0 8.637 0 11.501v8.5c0 2.206 1.794 4 4 4h3c2.206 0 4-1.794 4-4v-8.5c0-2.864-2.201-5.221-5-5.475V4.001h6.5c0.276 0 0.5-0.224 0.5-0.5S12.776 3.001 12.5 3zM10 11.5V20c0 1.654-1.346 3-3 3H4c-1.654 0-3-1.346-3-3h7c0.276 0 0.5-0.224 0.5-0.5S8.276 19 8 19H1v-7.5C1 9.019 3.019 7 5.5 7S10 9.019 10 11.5zM23.381 0.357c-0.393-0.307-0.896-0.415-1.375-0.294L16.58 1.361c-0.945 0.29-1.581 1.149-1.581 2.138s0.637 1.851 1.613 2.147l5.389 1.304c0.13 0.033 0.263 0.049 0.394 0.049 0.354 0 0.699-0.117 0.986-0.341C23.774 6.351 24 5.889 24 5.39V1.625c0-0.499-0.226-0.96-0.619-1.268zM23 5.391c0 0.188-0.085 0.363-0.234 0.479-0.148 0.116-0.338 0.156-0.525 0.11l-5.364-1.298c-0.524-0.159-0.876-0.634-0.876-1.183s0.351-1.022 0.843-1.174l5.401-1.292c0.049-0.012 0.099-0.018 0.149-0.018 0.134 0 0.264 0.044 0.373 0.129 0.148 0.116 0.234 0.291 0.234 0.479z" />
</svg>