<svg id="fire_flame_curved_Layer_1" viewBox="0 0 24 24" fill="currentColor" width="32" height="32" data-name="Layer 1" xmlns="http://www.w3.org/2000/svg" xmlns:xlink="http://www.w3.org/1999/xlink">
    <title>fire-flame-curved</title>
    <path d="M17.938 5.57c-1.175-1.511-2.389-3.073-3.26-4.786-0.228-0.447-0.615-0.722-1.063-0.753-0.515-0.032-1.017 0.24-1.364 0.736C11.456 1.905 11 3.448 11 4.999c0 2.201 0.648 3.516 1.219 4.677 0.5 1.015 0.895 1.816 0.783 3.023-0.12 1.305-1.315 2.315-2.698 2.3-2.856-0.032-3.174-2.772-3.305-6.485C6.974 7.81 6.515 7.238 5.83 7.055 5.14 6.867 4.45 7.143 4.075 7.746 3.072 9.356 2.001 11.869 2 14.089c0 5.461 4.53 9.905 10.002 9.905 5.512-0.034 9.997-4.477 9.997-9.896 0.056-3.234-1.944-5.807-4.061-8.528zM20.999 14.091c0 4.879-4.039 8.874-9.002 8.904C7.068 22.995 3 19 3 14.09 3 12.079 4.037 9.7 4.924 8.275 5.05 8.073 5.238 8.001 5.41 8.001c0.057 0 0.112 8e-3 0.163 0.021C5.67 8.048 5.986 8.163 6 8.55c0.108 3.078 0.305 7.404 4.336 7.45 1.891 0 3.495-1.401 3.662-3.208 0.138-1.488-0.357-2.493-0.882-3.558C12.567 8.12 12 6.967 12 5c0-1.352 0.39-2.686 1.071-3.66 0.17-0.242 0.354-0.31 0.475-0.312 0.093 7e-3 0.175 0.077 0.242 0.209 0.914 1.799 2.158 3.398 3.362 4.946 2.006 2.58 3.9 5.017 3.849 7.908z" />
</svg>