<svg id="first_aid_kit_Layer_1" viewBox="0 0 24 24" fill="currentColor" width="32" height="32" data-name="Layer 1" xmlns="http://www.w3.org/2000/svg" xmlns:xlink="http://www.w3.org/1999/xlink">
    <title>first-aid-kit</title>
    <path d="M19.5 5H16V3.5C16 2.122 14.878 1 13.5 1h-3C9.122 1 8 2.122 8 3.5V5H4.5C2.019 5 0 7.019 0 9.5v9C0 20.981 2.019 23 4.5 23h15c2.481 0 4.5-2.019 4.5-4.5v-9C24 7.019 21.981 5 19.5 5zM9 3.5C9 2.673 9.673 2 10.5 2h3C14.327 2 15 2.673 15 3.5V5H9zM23 18.5c0 1.93-1.57 3.5-3.5 3.5h-15C2.57 22 1 20.43 1 18.5v-9C1 7.57 2.57 6 4.5 6h15C21.43 6 23 7.57 23 9.5zM15 14c0 0.276-0.224 0.5-0.5 0.5h-2v2c0 0.276-0.224 0.5-0.5 0.5s-0.5-0.224-0.5-0.5v-2h-2C9.224 14.5 9 14.276 9 14s0.224-0.5 0.5-0.5h2v-2c0-0.276 0.224-0.5 0.5-0.5s0.5 0.224 0.5 0.5v2h2c0.276 0 0.5 0.224 0.5 0.5zM12 8c-3.309 0-6 2.691-6 6s2.691 6 6 6 6-2.691 6-6-2.691-6-6-6zM12 19c-2.757 0-5-2.243-5-5s2.243-5 5-5 5 2.243 5 5-2.243 5-5 5z" />
</svg>