<svg id="first_laurel_Layer_1" viewBox="0 0 24 24" fill="currentColor" width="32" height="32" data-name="Layer 1" xmlns="http://www.w3.org/2000/svg" xmlns:xlink="http://www.w3.org/1999/xlink">
    <title>first-laurel</title>
    <path d="M9.654 8.86C9.455 8.67 9.448 8.352 9.639 8.153l1.742-1.814c0.278-0.277 0.682-0.36 1.037-0.211 0.354 0.146 0.583 0.489 0.583 0.872v8.5c0 0.276-0.224 0.5-0.5 0.5s-0.5-0.224-0.5-0.5V7.139l-1.639 1.708C10.171 9.045 9.853 9.053 9.654 8.86zM3.397 12.501c5e-3 0 0.01 0 0.015 0-0.01-8e-3-0.044-0.024-0.015 0zM5.118 10.622v-9e-3c-0.014-0.021-5e-3 0 0 9e-3zM20.777 12.5c0 0 5e-3 0 8e-3 0 0.02-0.011 0-4e-3-8e-3 0zM23.983 13.562c0.191 0.394 0.194 0.846 6e-3 1.24-0.475 1-1.32 2.297-2.745 3.189 0.133 0.101 0.257 0.201 0.372 0.299 0.358 0.304 0.551 0.746 0.528 1.212-0.023 0.459-0.253 0.872-0.632 1.134-0.788 0.544-1.977 1.181-3.376 1.331 0.02 0.046 0.039 0.092 0.057 0.136 0.156 0.381 0.128 0.807-0.076 1.166s-0.555 0.602-0.962 0.664c-0.49 0.074-0.939 0.108-1.351 0.108-1.913 0-3.026-0.734-3.675-1.582-0.648 0.849-1.762 1.582-3.674 1.582-0.412 0-0.861-0.034-1.351-0.108-0.408-0.062-0.759-0.305-0.963-0.665-0.204-0.359-0.231-0.784-0.076-1.166 0.018-0.044 0.037-0.089 0.057-0.135-1.4-0.15-2.588-0.787-3.376-1.331-0.379-0.262-0.609-0.675-0.632-1.134-0.023-0.466 0.169-0.908 0.528-1.212 0.098-0.084 0.204-0.169 0.315-0.255-1.468-0.893-2.333-2.217-2.816-3.233-0.188-0.395-0.185-0.847 6e-3-1.24 0.204-0.419 0.589-0.72 1.057-0.825 0.126-0.029 0.259-0.056 0.397-0.082-0.455-0.348-0.851-0.795-1.06-1.334C-0.067 9.752 0.109 7.8 0.363 6.44c0.08-0.423 0.36-0.778 0.751-0.951 0.359-0.16 0.769-0.146 1.118 0.029-0.168-0.632-0.15-1.293 0.188-1.935 0.782-1.487 2.306-2.656 3.447-3.375 0.379-0.239 0.831-0.272 1.239-0.099 0.427 0.184 0.738 0.576 0.833 1.049 0.539 2.705-0.04 5.217-1.674 7.314-0.932 7.465 2.922 11.545 5.879 11.99 2.947-0.444 6.787-4.526 5.849-12.001-2.228-2.915-1.926-6.036-1.673-7.303 0.094-0.473 0.406-0.865 0.833-1.049 0.409-0.175 0.859-0.14 1.238 0.099 1.141 0.719 2.666 1.888 3.449 3.374 0.338 0.642 0.355 1.303 0.188 1.935 0.349-0.175 0.759-0.188 1.118-0.03 0.391 0.174 0.672 0.529 0.751 0.951 0.255 1.361 0.431 3.312-0.177 4.882-0.214 0.551-0.62 1.004-1.085 1.354 0.101 0.02 0.2 0.041 0.294 0.062 0.467 0.105 0.852 0.406 1.054 0.826zM5.299 8.076c1.606-1.925 2.164-4.185 1.658-6.723-0.03-0.15-0.123-0.271-0.247-0.325C6.674 1.012 6.629 1 6.578 1 6.524 1 6.463 1.014 6.399 1.054 5.55 1.589 4.019 2.69 3.303 4.049 2.547 5.486 4.473 7.363 5.299 8.076zM3.396 12.501c0.592 0.014 1.228 0.096 1.844 0.287-0.086-0.682-0.129-1.404-0.123-2.166 3e-3 6e-3 5e-3 7e-3 0-9e-3-0.759-2.181-2.246-3.534-3.311-4.189-0.128-0.079-0.245-0.042-0.289-0.021C1.463 6.426 1.37 6.487 1.344 6.625 1.155 7.634 0.92 9.539 1.471 10.96c0.279 0.719 1.282 1.319 1.925 1.541zM3.887 17.408c0.676-0.389 1.484-0.718 2.402-0.849-0.362-0.786-0.656-1.665-0.859-2.638 0 0 0 0 0 0-1.407-0.606-2.955-0.45-4.006-0.21-0.17 0.039-0.308 0.144-0.378 0.288-0.042 0.085-0.076 0.22-2e-3 0.373 0.465 0.979 1.332 2.284 2.843 3.036zM6.597 20.998c0.331-0.588 0.775-1.24 1.366-1.878-0.425-0.467-0.822-1.003-1.177-1.608-1.513 0.105-2.731 0.887-3.499 1.539-0.12 0.102-0.184 0.248-0.176 0.4 4e-3 0.086 0.036 0.247 0.202 0.361 0.759 0.524 1.935 1.146 3.284 1.186zM11.626 21.383c-0.978-0.22-2.006-0.741-2.949-1.563-0.887 0.965-1.404 1.962-1.689 2.661-0.054 0.132-0.011 0.241 0.02 0.295 0.052 0.092 0.141 0.154 0.244 0.17 2.203 0.336 3.672-0.192 4.374-1.563zM19.138 10.665c0 0 0 2e-3 0 0 4e-3 0.731-0.037 1.426-0.117 2.083 0.593-0.168 1.188-0.239 1.754-0.248-5e-3 2e-3-6e-3 4e-3 8e-3 0 0.743-0.224 1.72-0.817 2.001-1.541 0.551-1.421 0.316-3.326 0.127-4.336-0.026-0.137-0.12-0.197-0.173-0.221-0.044-0.02-0.16-0.057-0.29 0.021-1.096 0.675-2.567 1.975-3.31 4.242zM18.958 8.075c0.828-0.715 2.749-2.591 1.994-4.025-0.716-1.359-2.248-2.46-3.097-2.995-0.063-0.04-0.124-0.054-0.178-0.054-0.051 0-0.097 0.013-0.132 0.028-0.125 0.054-0.217 0.175-0.247 0.325-0.231 1.16-0.509 4.064 1.66 6.721zM17.265 22.481c-0.285-0.698-0.8-1.691-1.681-2.652-0.945 0.824-1.975 1.344-2.954 1.56 0.703 1.366 2.172 1.887 4.372 1.557 0.141-0.021 0.213-0.115 0.243-0.169 0.031-0.054 0.074-0.164 0.02-0.296zM21.143 19.453c8e-3-0.152-0.057-0.299-0.176-0.4-0.247-0.21-1.469-1.321-3.489-1.539-0.356 0.608-0.754 1.147-1.18 1.616 0.586 0.635 1.028 1.284 1.358 1.87 1.35-0.039 2.527-0.661 3.286-1.185 0.166-0.114 0.197-0.275 0.201-0.362zM23.081 14c-0.07-0.145-0.208-0.249-0.377-0.288-1.016-0.229-2.495-0.385-3.864 0.151-0.203 0.998-0.5 1.897-0.868 2.7 0.887 0.127 1.673 0.441 2.333 0.813 1.471-0.756 2.32-2.036 2.778-3.002 0.073-0.153 0.039-0.288-2e-3-0.374zM19.138 10.666v0c0 0 1e-3-4e-3 0 0z" />
</svg>