<svg id="first_Layer_1" viewBox="0 0 24 24" fill="currentColor" width="32" height="32" data-name="Layer 1" xmlns="http://www.w3.org/2000/svg" xmlns:xlink="http://www.w3.org/1999/xlink">
    <title>first</title>
    <path d="M13.5 10c0.276 0 0.5-0.224 0.5-0.5S13.776 9 13.5 9H11V6.5C11 6.224 10.776 6 10.5 6S10 6.224 10 6.5V9H6V6.5C6 6.224 5.776 6 5.5 6S5 6.224 5 6.5V9H2.5C2.224 9 2 9.224 2 9.5S2.224 10 2.5 10H5v4H2.5C2.224 14 2 14.224 2 14.5S2.224 15 2.5 15H5v2.5C5 17.776 5.224 18 5.5 18S6 17.776 6 17.5V15h4v2.5c0 0.276 0.224 0.5 0.5 0.5s0.5-0.224 0.5-0.5V15h2.5c0.276 0 0.5-0.224 0.5-0.5S13.776 14 13.5 14H11v-4zM10 14H6v-4h4zM21 3.266V21.5c0 0.276-0.224 0.5-0.5 0.5S20 21.776 20 21.5V3.266c0-0.159-0.114-0.224-0.163-0.244-0.05-0.02-0.175-0.056-0.288 0.058l-2.69 2.77c-0.191 0.199-0.508 0.203-0.707 0.01-0.198-0.192-0.202-0.509-0.01-0.707l2.695-2.774c0.368-0.368 0.907-0.474 1.383-0.279C20.694 2.296 21 2.755 21 3.266z" />
</svg>