<svg id="fishing_rod_Layer_1" viewBox="0 0 24 24" fill="currentColor" width="32" height="32" data-name="Layer 1" xmlns="http://www.w3.org/2000/svg" xmlns:xlink="http://www.w3.org/1999/xlink">
    <title>fishing-rod</title>
    <path d="M23.397 22.122c-0.149-1.189-0.851-2.106-1.375-2.642C22.995 18.429 24 16.929 24 15.211c0-2.134-1.587-3.94-2.533-4.827-0.543-0.51-1.392-0.51-1.934 0C18.587 11.271 17 13.077 17 15.211c0 1.718 1.005 3.218 1.978 4.268-0.525 0.535-1.226 1.452-1.375 2.643l-0.095 0.752c-0.043 0.339 0.094 0.684 0.36 0.901C18.051 23.922 18.273 24 18.499 24c0.105 0 0.212-0.017 0.316-0.051l1.685-0.562 1.684 0.562c0.324 0.109 0.688 0.041 0.95-0.175 0.264-0.216 0.401-0.561 0.358-0.898zM20.658 22.385c-0.103-0.033-0.214-0.033-0.316 0L18.5 23l0.095-0.753c0.153-1.216 1.125-2.119 1.419-2.366 0.108-0.091 0.172-0.223 0.178-0.363s-0.048-0.277-0.149-0.376C19.28 18.392 18 16.883 18 15.212c0-1.757 1.389-3.321 2.217-4.099C20.298 11.038 20.399 11 20.5 11s0.202 0.038 0.283 0.113C21.611 11.89 23 13.455 23 15.212c0 1.671-1.28 3.18-2.042 3.93-0.101 0.099-0.154 0.235-0.149 0.376s0.07 0.272 0.177 0.363c0.294 0.248 1.267 1.151 1.419 2.366l0.095 0.752zM4.5 11c-0.637 0-1.218 0.24-1.66 0.633C4.088 6.431 8.91 1.302 19.492 1c0.135 8e-3 0.257 0.046 0.354 0.14 0.1 0.098 0.155 0.227 0.155 0.364V7.5c0 0.276 0.224 0.5 0.5 0.5s0.5-0.224 0.5-0.5V1.504c0-0.404-0.167-0.798-0.458-1.081C20.251 0.14 19.864 2e-3 19.464 0 6.504 0.371 1.717 7.706 1.507 14.062 0.642 14.282 0 15.068 0 16v6c0 1.103 0.897 2 2 2s2-0.897 2-2v-6c0-0.017 0-0.034-1e-3-0.05C4.161 15.983 4.329 16 4.5 16 5.878 16 7 14.879 7 13.5S5.878 11 4.5 11zM3 22c0 0.552-0.449 1-1 1s-1-0.448-1-1v-6c0-0.552 0.449-1 1-1s1 0.448 1 1zM4.5 15C3.673 15 3 14.327 3 13.5S3.673 12 4.5 12 6 12.673 6 13.5 5.327 15 4.5 15z" />
</svg>