<svg id="fish_hook_Layer_1" viewBox="0 0 24 24" fill="currentColor" width="32" height="32" data-name="Layer 1" xmlns="http://www.w3.org/2000/svg" xmlns:xlink="http://www.w3.org/1999/xlink">
    <title>fish-hook</title>
    <path d="M6 19v2c0 1.654-1.346 3-3 3s-3-1.346-3-3V0.5C0 0.224 0.224 0 0.5 0S1 0.224 1 0.5V21c0 1.103 0.897 2 2 2s2-0.897 2-2v-0.5H4.5c-0.242 0-0.449-0.173-0.492-0.41-0.043-0.238 0.089-0.473 0.315-0.558 0.36-0.136 0.596-0.367 0.701-0.688 0.077-0.233 0.314-0.37 0.554-0.339C5.821 18.544 5.999 18.753 6 19zM16 2c0-1.103 0.897-2 2-2s2 0.897 2 2-0.897 2-2 2-2-0.897-2-2zM17 2c0 0.552 0.449 1 1 1s1-0.448 1-1-0.449-1-1-1-1 0.448-1 1zM9 5c0.552 0 1-0.448 1-1S9.552 3 9 3 8 3.448 8 4 8.448 5 9 5zM23.336 12.498c0.564 0.907 0.766 1.852 0.615 2.876-0.105 0.715-0.596 1.3-1.28 1.527-0.679 0.223-1.416 0.05-1.923-0.457l-1.888-1.888c-0.452 0.449-0.969 0.906-1.534 1.338l0.17 0.174c0.738 0.708 0.651 1.935-0.183 2.531-0.792 0.596-1.925 0.514-2.624-0.196-0.044-0.045-0.425-0.434-0.715-0.73-0.681 0.204-1.395 0.325-2.139 0.325-2.771 0-5.214-1.688-6.776-3.104C4.386 14.283 4 13.41 4 12.498c0-0.911 0.386-1.784 1.059-2.394 1.151-1.045 2.784-2.233 4.673-2.787 1.509-1.575 3.004-2.314 4.691-2.314h4e-3c0.936 0 1.906 0.327 2.731 0.92 1.069 0.726 1.031 2.305 0.132 3.158 0.577 0.439 1.105 0.904 1.566 1.362l1.89-1.89c0.506-0.507 1.244-0.681 1.923-0.457 0.685 0.227 1.175 0.812 1.28 1.527 0.151 1.024-0.05 1.969-0.613 2.875zM11.561 7.018c0.092-4e-3 0.181-0.02 0.274-0.02 1.728 0 3.299 0.645 4.641 1.511 0.506-0.515 0.75-1.311 0.103-1.772-0.66-0.475-1.423-0.734-2.151-0.734h-3e-3c-1.016 0-1.936 0.326-2.864 1.015zM5.73 14.153c0.693 0.628 1.573 1.312 2.572 1.853 0.23-0.49 0.697-1.704 0.697-3.508 0-1.864-0.496-3.06-0.714-3.498-0.992 0.54-1.867 1.219-2.555 1.844-0.464 0.421-0.731 1.024-0.731 1.654s0.266 1.233 0.731 1.655zM16.495 16.477c-0.472 0.305-0.97 0.583-1.496 0.814 0.188 0.193 0.319 0.33 0.4 0.425l8e-3-9e-3c0.349 0.35 0.91 0.389 1.304 0.092 0.354-0.255 0.386-0.725 0.073-1.027zM22.328 12.207c0.569-0.798 0.764-1.55 0.633-2.439-0.051-0.345-0.277-0.615-0.605-0.725-0.323-0.107-0.66-0.026-0.901 0.215l-2.247 2.247c-0.095 0.095-0.233 0.128-0.36 0.146-0.135-2e-3-0.263-0.058-0.356-0.155-1.241-1.307-3.755-3.499-6.656-3.499-0.926 0-1.818 0.221-2.648 0.566 0.278 0.562 0.813 1.903 0.813 3.934 0 1.994-0.515 3.35-0.796 3.943 0.825 0.34 1.711 0.557 2.63 0.557 2.903 0 5.417-2.19 6.658-3.497 0.093-0.098 0.221-0.153 0.356-0.155 0.126 2e-3 0.265 0.052 0.36 0.146l2.245 2.245c0.242 0.241 0.58 0.322 0.902 0.215 0.329-0.109 0.555-0.38 0.605-0.724 0.131-0.891-0.064-1.643-0.633-2.44-0.125-0.173-0.125-0.407 0-0.58z" />
</svg>