<svg id="fish_cooked_Layer_1" viewBox="0 0 24 24" fill="currentColor" width="32" height="32" data-name="Layer 1" xmlns="http://www.w3.org/2000/svg" xmlns:xlink="http://www.w3.org/1999/xlink">
    <title>fish-cooked</title>
    <path d="M7.362 19.65c0.195 0.195 0.195 0.512 0 0.707-0.098 0.098-0.226 0.146-0.354 0.146s-0.256-0.049-0.354-0.146l-3-3c-0.195-0.195-0.195-0.512 0-0.707s0.512-0.195 0.707 0zM13.363 13.65l-3-3c-0.195-0.195-0.512-0.195-0.707 0s-0.195 0.512 0 0.707l3 3c0.098 0.098 0.226 0.146 0.354 0.146s0.256-0.049 0.354-0.146c0.195-0.195 0.195-0.512-1e-3-0.707zM6.362 12.65c-0.195-0.195-0.512-0.195-0.707 0s-0.195 0.512 0 0.707l5.001 5c0.098 0.098 0.226 0.146 0.354 0.146s0.256-0.049 0.354-0.146c0.195-0.195 0.195-0.512 0-0.707zM23.793 6.904c-0.341 0.678-1.024 1.099-1.784 1.099h-5.002c-0.015 1.857-0.118 3.518-0.321 5h1.028c0.697 0 1.319 0.275 1.752 0.773 0.434 0.499 0.617 1.154 0.52 1.844-0.194 1.358-1.375 2.382-2.746 2.382h-1.729c-0.065 0-0.126-0.013-0.183-0.035-1.838 3.887-5.329 5.598-11.175 6.034-0.095 7e-3-0.189 0.011-0.284 0.011-1.015 0-1.994-0.405-2.724-1.135-0.798-0.797-1.207-1.894-1.124-3.008 0.238-3.183 0.852-5.669 1.989-7.57v-0.372c0-3.875 2.855-7.205 6.593-7.883 0.832-0.145 1.685 0.09 2.339 0.642 0.679 0.572 1.068 1.408 1.068 2.293v0.229c1.22-0.125 2.55-0.19 4.001-0.203V2.003c0-0.76 0.421-1.444 1.1-1.785 0.683-0.343 1.491-0.272 2.105 0.185 0.898 0.668 1.463 1.545 1.721 2.673 1.128 0.257 2.005 0.822 2.673 1.72 0.458 0.616 0.528 1.423 0.183 2.108zM3.092 10.836c1.737-1.906 4.292-3.01 7.918-3.509V6.98c0-0.591-0.26-1.148-0.713-1.529C9.861 5.085 9.318 4.937 8.771 5.03 5.867 5.557 3.537 7.932 3.092 10.836zM16.007 8.005C5.21 8.088 1.69 10.931 1.018 19.944c-0.062 0.823 0.241 1.635 0.833 2.227s1.403 0.897 2.227 0.834c9.006-0.672 11.846-4.195 11.929-15zM16.528 14.003c-0.198 1.106-0.461 2.104-0.795 3h1.506c0.877 0 1.632-0.655 1.756-1.523 0.057-0.399-0.044-0.771-0.284-1.048-0.24-0.276-0.594-0.429-0.997-0.429zM22.806 5.394c-0.58-0.78-1.336-1.224-2.378-1.398-0.211-0.035-0.376-0.2-0.411-0.411-0.174-1.042-0.618-1.798-1.398-2.378-0.314-0.235-0.711-0.271-1.061-0.094-0.343 0.172-0.548 0.505-0.548 0.891v4.999h4.999c0.385 0 0.719-0.205 0.891-0.548 0.176-0.349 0.141-0.746-0.094-1.061z" />
</svg>