<svg id="fitness_time_Layer_1" viewBox="0 0 24 24" fill="currentColor" width="32" height="32" data-name="Layer 1" xmlns="http://www.w3.org/2000/svg" xmlns:xlink="http://www.w3.org/1999/xlink">
    <title>fitness-time</title>
    <path d="M3.915 16.632c0.204 0.187 0.217 0.503 0.03 0.706-0.187 0.204-0.504 0.217-0.706 0.03C1.181 15.479 0 12.793 0 10 0 4.486 4.486 0 10 0s10 4.486 10 10c0 0.176-4e-3 0.352-0.014 0.526-0.014 0.275-0.242 0.503-0.525 0.473-0.275-0.015-0.487-0.25-0.473-0.525C18.996 10.317 19 10.159 19 10c0-4.963-4.037-9-9-9s-9 4.037-9 9c0 2.514 1.062 4.931 2.915 6.632zM10 5.5V10H6.5C6.224 10 6 10.224 6 10.5S6.224 11 6.5 11h4c0.276 0 0.5-0.224 0.5-0.5v-5C11 5.224 10.776 5 10.5 5S10 5.224 10 5.5zM24 18.5c0 0.276-0.224 0.5-0.5 0.5H23v1.5c0 0.827-0.673 1.5-1.5 1.5-0.176 0-0.343-0.036-0.5-0.092V22.5c0 0.827-0.673 1.5-1.5 1.5S18 23.327 18 22.5V19h-6v3.5c0 0.827-0.673 1.5-1.5 1.5S9 23.327 9 22.5v-0.592C8.843 21.964 8.676 22 8.5 22 7.673 22 7 21.327 7 20.5V19H6.5C6.224 19 6 18.776 6 18.5S6.224 18 6.5 18H7v-1.5C7 15.673 7.673 15 8.5 15c0.176 0 0.343 0.036 0.5 0.092V14.5c0-0.827 0.673-1.5 1.5-1.5s1.5 0.673 1.5 1.5V18h6v-3.5c0-0.827 0.673-1.5 1.5-1.5s1.5 0.673 1.5 1.5v0.592C21.157 15.036 21.324 15 21.5 15c0.827 0 1.5 0.673 1.5 1.5V18h0.5c0.276 0 0.5 0.224 0.5 0.5zM9 20.5v-4C9 16.225 8.775 16 8.5 16S8 16.225 8 16.5v4C8 20.775 8.225 21 8.5 21S9 20.775 9 20.5zM11 14.5c0-0.275-0.225-0.5-0.5-0.5S10 14.225 10 14.5v8c0 0.275 0.225 0.5 0.5 0.5s0.5-0.225 0.5-0.5zM20 14.5c0-0.275-0.225-0.5-0.5-0.5S19 14.225 19 14.5v8c0 0.275 0.225 0.5 0.5 0.5s0.5-0.225 0.5-0.5zM22 16.5c0-0.275-0.225-0.5-0.5-0.5S21 16.225 21 16.5v4c0 0.275 0.225 0.5 0.5 0.5s0.5-0.225 0.5-0.5z" />
</svg>