<svg id="fitness_watch_Layer_1" viewBox="0 0 24 24" fill="currentColor" width="32" height="32" data-name="Layer 1" xmlns="http://www.w3.org/2000/svg" xmlns:xlink="http://www.w3.org/1999/xlink">
    <title>fitness-watch</title>
    <path d="M18 3.774V0.5C18 0.224 17.776 0 17.5 0S17 0.224 17 0.5v2.776C16.529 3.108 16.029 3 15.5 3h-7C7.97 3 7.469 3.109 6.997 3.277L6.961 0.493c-4e-3-0.274-0.227-0.494-0.5-0.494h-7e-3c-0.275 3e-3-0.497 0.23-0.493 0.506l0.032 3.273C4.795 4.587 4 5.948 4 7.499v9c0 1.554 0.798 2.918 2 3.726v3.274c0 0.276 0.224 0.5 0.5 0.5s0.5-0.224 0.5-0.5v-2.776c0.471 0.168 0.971 0.276 1.5 0.276h7c0.529 0 1.029-0.108 1.5-0.276v2.776c0 0.276 0.224 0.5 0.5 0.5s0.5-0.224 0.5-0.5v-3.274c1.202-0.809 2-2.172 2-3.726V7.5c0-1.554-0.798-2.918-2-3.726zM19 16.5c0 1.93-1.57 3.5-3.5 3.5h-7C6.57 20 5 18.43 5 16.5v-9C5 5.57 6.57 4 8.5 4h7C17.43 4 19 5.57 19 7.5zM13.75 9c-0.784 0-1.382 0.333-1.771 0.769C11.618 9.334 11.046 9 10.25 9 9.01 9 8 10.088 8 11.425c0 1.514 1.548 3.083 2.846 4.133 0.335 0.271 0.744 0.406 1.154 0.406s0.82-0.136 1.154-0.406C14.452 14.508 16 12.939 16 11.425 16 10.088 14.99 9 13.75 9zM12.525 14.78c-0.305 0.246-0.746 0.246-1.051 0-1.572-1.271-2.475-2.495-2.475-3.355 0-0.786 0.561-1.425 1.25-1.425 0.992 0 1.207 0.802 1.207 1 0 0.276 0.224 0.5 0.5 0.5s0.5-0.224 0.5-0.5c0-0.221 0.31-1 1.293-1 0.689 0 1.25 0.639 1.25 1.425 0 0.861-0.902 2.084-2.474 3.355z" />
</svg>