<svg id="flag_Layer_1" viewBox="0 0 24 24" fill="currentColor" width="32" height="32" data-name="Layer 1" xmlns="http://www.w3.org/2000/svg" xmlns:xlink="http://www.w3.org/1999/xlink">
    <title>flag</title>
    <path d="M20.5 4H15V3.5C15 1.57 13.43 0 11.5 0h-8C1.439 0 0 1.698 0 4.128V23.5C0 23.776 0.224 24 0.5 24S1 23.776 1 23.5V13h10v0.5c0 1.93 1.57 3.5 3.5 3.5h6c1.93 0 3.5-1.57 3.5-3.5v-6C24 5.57 22.43 4 20.5 4zM1 4.128C1 2.257 2.005 1 3.5 1h8C12.878 1 14 2.122 14 3.5v6c0 1.378-1.122 2.5-2.5 2.5H1zM23 13.5c0 1.378-1.122 2.5-2.5 2.5h-6c-1.378 0-2.5-1.122-2.5-2.5v-0.536c1.694-0.243 3-1.704 3-3.464V5h5.5C21.878 5 23 6.122 23 7.5z" />
</svg>