<svg id="flag_usa_Layer_1" viewBox="0 0 24 24" fill="currentColor" width="32" height="32" data-name="Layer 1" xmlns="http://www.w3.org/2000/svg" xmlns:xlink="http://www.w3.org/1999/xlink">
    <title>flag-usa</title>
    <path d="M23.022 1.516c-0.615-0.473-1.396-0.631-2.142-0.433-0.264 0.07-0.574 0.165-0.91 0.268C19.027 1.64 17.853 2 16.999 2c-1.43 0-3.175-0.499-4.863-0.98C10.383 0.519 8.569 0 6.999 0 5.03 0 2.895 0.795 1.45 1.462 0.569 1.868 0 2.76 0 3.732V23.5C0 23.776 0.224 24 0.5 24S1 23.776 1 23.5v-8.259C1.785 14.727 4.604 13 7.002 13c1.43 0 3.174 0.499 4.861 0.98 1.753 0.501 3.566 1.02 5.136 1.02 1.887 0 4.148-0.467 5.375-1.11 1.017-0.532 1.625-1.431 1.625-2.402V3.504c0-0.785-0.356-1.51-0.977-1.988zM11 5.737c0.288 0.08 0.578 0.163 0.867 0.246 1.752 0.5 3.564 1.018 5.133 1.018 2.283 0 4.791-0.968 6-1.502v2.9c-0.864 0.404-3.626 1.602-6 1.602-1.43 0-3.175-0.499-4.863-0.98C11.76 8.913 11.38 8.805 11 8.701zM17 3c1.003 0 2.257-0.385 3.264-0.693 0.322-0.099 0.619-0.189 0.872-0.257 0.444-0.117 0.909-0.022 1.276 0.259C22.786 2.596 23 3.033 23 3.504v0.894C22.136 4.802 19.374 6 17 6c-1.429 0-3.172-0.498-4.858-0.979C11.761 4.912 11.379 4.803 11 4.7V1.736c0.288 0.08 0.576 0.162 0.863 0.244C13.616 2.481 15.43 3 17 3zM1.869 2.37C2.977 1.858 5.118 1 7 1c0.906 0 1.938 0.2 3.002 0.469L10 1.5v6.939C8.956 8.184 7.935 8 7 8 4.39 8 1.835 9.403 1 9.908V3.731C1 3.148 1.341 2.613 1.869 2.37zM21.912 13.004C20.828 13.572 18.717 14 17 14c-1.43 0-3.174-0.499-4.861-0.98C10.386 12.519 8.573 12 7.003 12c-2.276 0-4.764 1.308-6.002 2.058V11c0.094 0 3.191-2 6-2 1.43 0 3.175 0.499 4.863 0.98 1.753 0.501 3.567 1.02 5.137 1.02 2.283 0 4.791-0.968 6-1.502v1.989c0 0.593-0.407 1.16-1.089 1.517z" />
</svg>