<svg id="flag_alt_Layer_1" viewBox="0 0 24 24" fill="currentColor" width="32" height="32" data-name="Layer 1" xmlns="http://www.w3.org/2000/svg" xmlns:xlink="http://www.w3.org/1999/xlink">
    <title>flag-alt</title>
    <path d="M23.728 12.64 20.132 7.5 23.72 2.387c0.323-0.459 0.362-1.055 0.103-1.553-0.259-0.499-0.769-0.809-1.331-0.809H3.496c-1.93 0-3.5 1.571-3.5 3.501L0 23.5C0 23.776 0.224 24 0.5 24S1 23.776 1 23.5V15h21.498c0.562 0 1.071-0.31 1.331-0.807 0.259-0.498 0.221-1.093-0.101-1.553zM22.942 13.732c-0.088 0.168-0.254 0.269-0.444 0.269h-21.5L0.996 3.527c0-1.38 1.122-2.502 2.5-2.502h18.995c0.19 0 0.356 0.101 0.444 0.27 0.087 0.169 0.075 0.362-0.034 0.518l-3.789 5.4c-0.121 0.172-0.121 0.401 0 0.574l3.797 5.426c0.109 0.156 0.121 0.35 0.033 0.519z" />
</svg>