<svg id="flag_checkered_Layer_1" viewBox="0 0 24 24" fill="currentColor" width="32" height="32" data-name="Layer 1" xmlns="http://www.w3.org/2000/svg" xmlns:xlink="http://www.w3.org/1999/xlink">
    <title>flag-checkered</title>
    <path d="M23.021 1.516c-0.614-0.474-1.396-0.63-2.141-0.433-0.264 0.07-0.573 0.165-0.908 0.267-0.944 0.29-2.118 0.649-2.973 0.649-1.43 0-3.175-0.499-4.862-0.981C10.383 0.517 8.57-1e-3 6.999-1e-3 5.031 0 2.896 0.795 1.451 1.461 0.569 1.867 0 2.758 0 3.731v5.747C0 9.492 0 9.506 0 9.52V23.5C0 23.776 0.224 24 0.5 24S1 23.776 1 23.5v-6.26C1.784 16.727 4.599 15 7.002 15c1.43 0 3.175 0.499 4.861 0.981 1.754 0.501 3.466 1.012 5.551 1.012s3.866-0.529 4.961-1.102c1.017-0.533 1.624-1.431 1.624-2.403V3.504c0-0.785-0.356-1.51-0.978-1.988zM20.265 2.307c0.322-0.099 0.618-0.189 0.871-0.256 0.446-0.118 0.909-0.023 1.275 0.258 0.373 0.288 0.588 0.723 0.588 1.195v4.287c-0.789 0.278-2.92 0.974-5.002 1.162V2.902c0.765-0.134 1.574-0.382 2.268-0.595zM16.997 3v6c-1.402 0-3.224-0.478-4.998-0.951V2.02c1.71 0.488 3.469 0.979 4.998 0.98zM10.999 1.737v6.047C9.409 7.368 7.822 7 6.5 7 6.333 7 6.166 7.006 5.999 7.017V1.072C6.336 1.026 6.671 1 6.999 1c1.187 0 2.592 0.344 4 0.737zM1.87 2.37C2.593 2.036 3.756 1.555 5 1.261v5.881C3.351 7.441 1.863 8.147 1 8.621v-4.89C1 3.147 1.341 2.612 1.87 2.37zM1 9.777C1.575 9.43 3.19 8.53 5 8.161v6.125c-1.614 0.427-3.122 1.239-4 1.771zM6 14.078V8.02C6.167 8.007 6.334 8 6.501 8 7.772 8 9.388 8.392 11 8.818v5.881c-1.385-0.379-2.766-0.698-3.998-0.698-0.331 0-0.667 0.028-1.002 0.077zM12 14.979V9.083c1.754 0.466 3.538 0.916 4.998 0.916v6c-1.429 0-3.174-0.499-4.859-0.981zM21.911 15.004c-0.88 0.461-2.439 0.83-3.913 0.952v-6C19.989 9.791 21.986 9.192 23 8.849v4.637c0 0.593-0.407 1.16-1.089 1.518z" />
</svg>