<svg id="flashlight_Layer_1" viewBox="0 0 24 24" fill="currentColor" width="32" height="32" data-name="Layer 1" xmlns="http://www.w3.org/2000/svg" xmlns:xlink="http://www.w3.org/1999/xlink">
    <title>flashlight</title>
    <path d="M23.552 8.142 15.858 0.448C15.562 0.152 15.157-0.02 14.731 0c-0.418 0.012-0.801 0.189-1.076 0.499C11.992 2.364 11 4.845 11 7.133v1.079L0.992 18.221C0.352 18.861 0 19.71 0 20.616s0.352 1.754 0.992 2.394c0.66 0.66 1.527 0.989 2.394 0.989S5.12 23.67 5.78 23.01l10.008-10.009h1.08c2.288 0 4.767-0.992 6.633-2.655 0.31-0.275 0.488-0.658 0.5-1.076 0.012-0.42-0.151-0.83-0.449-1.128zM5.072 22.302c-0.93 0.93-2.443 0.93-3.373 0C1.248 21.852 1 21.252 1 20.615s0.248-1.237 0.699-1.688l9.797-9.797 3.374 3.373zM22.835 9.599C21.147 11.103 18.917 12 16.867 12h-1.088L12 8.222V7.134c0-2.05 0.898-4.281 2.402-5.969 0.091-0.102 0.219-0.161 0.359-0.165 0.133 0 0.288 0.053 0.391 0.155l7.693 7.693C22.948 8.951 23.004 9.093 23 9.239c-4e-3 0.141-0.062 0.268-0.165 0.36zM10.854 13.854l-1.5 1.5C9.256 15.452 9.128 15.5 9 15.5s-0.256-0.049-0.354-0.146c-0.195-0.195-0.195-0.512 0-0.707l1.5-1.5c0.195-0.195 0.512-0.195 0.707 0s0.195 0.512 1e-3 0.707z" />
</svg>