<svg id="flask_gear_Layer_1" viewBox="0 0 24 24" fill="currentColor" width="32" height="32" data-name="Layer 1" xmlns="http://www.w3.org/2000/svg" xmlns:xlink="http://www.w3.org/1999/xlink">
    <title>flask-gear</title>
    <path d="M14 23.5c0 0.276-0.224 0.5-0.5 0.5H3.837c-1.331 0-2.532-0.615-3.212-1.646C0.21 21.725 0 21.004 0 20.214c0-3.647 3.741-7.88 5.97-10.079C6.634 9.481 7 8.6 7 7.656V1H5.5C5.224 1 5 0.776 5 0.5S5.224 0 5.5 0h12C17.776 0 18 0.224 18 0.5S17.776 1 17.5 1H16v6.657c0 0.858 0.31 1.68 0.874 2.314 0.184 0.206 0.165 0.522-0.042 0.706s-0.523 0.165-0.706-0.042C15.399 9.818 15 8.76 15 7.657V1H8v6.657c0 1.214-0.472 2.347-1.328 3.19C5.8 11.707 4.339 13.246 3.118 15H9.5c0.276 0 0.5 0.224 0.5 0.5S9.776 16 9.5 16h-7c-0.01 0-0.019-5e-3-0.029-6e-3C1.62 17.395 1 18.872 1 20.214c0 0.592 0.155 1.126 0.46 1.589 0.494 0.749 1.383 1.196 2.377 1.196H13.5c0.276 0 0.5 0.224 0.5 0.501zM20 18c0 1.103-0.897 2-2 2s-2-0.897-2-2 0.897-2 2-2 2 0.897 2 2zM19 18c0-0.551-0.449-1-1-1s-1 0.449-1 1 0.449 1 1 1 1-0.449 1-1zM23.332 19.904c0.101 0.388 0.044 0.792-0.16 1.137-0.418 0.713-1.337 0.952-2.053 0.533l-0.223-0.131c-0.408 0.34-0.881 0.606-1.396 0.786V22.5c0 0.827-0.673 1.5-1.5 1.5s-1.5-0.673-1.5-1.5v-0.271c-0.515-0.18-0.988-0.446-1.396-0.786l-0.223 0.131c-0.715 0.418-1.634 0.18-2.053-0.533-0.203-0.345-0.26-0.749-0.159-1.137s0.347-0.713 0.692-0.917l0.234-0.137c-0.064-0.3-0.094-0.576-0.094-0.85s0.03-0.551 0.094-0.85l-0.234-0.137c-0.345-0.203-0.591-0.528-0.692-0.917-0.101-0.388-0.044-0.792 0.16-1.137 0.419-0.713 1.34-0.951 2.053-0.533l0.223 0.131c0.408-0.34 0.881-0.606 1.396-0.786V13.5c0-0.827 0.673-1.5 1.5-1.5s1.5 0.673 1.5 1.5v0.271c0.515 0.18 0.988 0.446 1.396 0.786l0.223-0.131c0.715-0.418 1.634-0.18 2.053 0.533 0.203 0.345 0.26 0.749 0.159 1.137s-0.347 0.713-0.692 0.917l-0.234 0.137C22.47 17.45 22.5 17.726 22.5 18s-0.03 0.551-0.094 0.85l0.234 0.137c0.345 0.203 0.591 0.528 0.692 0.917zM21.577 16.477l0.556-0.327c0.115-0.067 0.197-0.176 0.23-0.305 0.034-0.129 0.015-0.264-0.053-0.378-0.068-0.116-0.176-0.198-0.306-0.231-0.13-0.035-0.264-0.015-0.379 0.053l-0.541 0.318c-0.197 0.115-0.446 0.083-0.607-0.078-0.43-0.43-0.984-0.743-1.603-0.903-0.221-0.057-0.375-0.256-0.375-0.484V13.5c0-0.276-0.224-0.5-0.5-0.5s-0.5 0.224-0.5 0.5v0.642c0 0.228-0.154 0.427-0.375 0.484-0.619 0.16-1.173 0.473-1.603 0.903-0.161 0.162-0.41 0.193-0.607 0.078l-0.541-0.318c-0.114-0.067-0.248-0.086-0.379-0.053-0.129 0.033-0.238 0.115-0.305 0.23-0.068 0.115-0.087 0.25-0.053 0.379 0.033 0.129 0.115 0.238 0.23 0.305l0.556 0.327c0.196 0.115 0.29 0.349 0.228 0.568-0.103 0.361-0.151 0.664-0.151 0.955s0.048 0.594 0.151 0.955c0.062 0.219-0.031 0.453-0.228 0.568l-0.556 0.327c-0.115 0.067-0.197 0.176-0.23 0.305-0.034 0.129-0.015 0.264 0.053 0.378 0.068 0.116 0.176 0.198 0.306 0.231 0.13 0.034 0.265 0.015 0.379-0.053l0.541-0.318c0.079-0.046 0.167-0.069 0.253-0.069 0.129 0 0.258 0.05 0.354 0.147 0.429 0.43 0.983 0.742 1.603 0.903 0.221 0.057 0.375 0.256 0.375 0.484V22.5c0 0.276 0.224 0.5 0.5 0.5s0.5-0.224 0.5-0.5v-0.642c0-0.228 0.154-0.427 0.375-0.484 0.619-0.161 1.173-0.473 1.603-0.903 0.161-0.162 0.411-0.193 0.607-0.078l0.541 0.318c0.115 0.068 0.25 0.088 0.379 0.053 0.129-0.033 0.238-0.115 0.305-0.23 0.068-0.115 0.087-0.25 0.053-0.379-0.033-0.129-0.115-0.238-0.23-0.305l-0.556-0.327c-0.196-0.115-0.29-0.349-0.228-0.568C21.452 18.594 21.5 18.291 21.5 18s-0.048-0.594-0.151-0.955c-0.062-0.219 0.031-0.453 0.228-0.568z" />
</svg>