<svg id="flask_poison_Layer_1" viewBox="0 0 24 24" fill="currentColor" width="32" height="32" data-name="Layer 1" xmlns="http://www.w3.org/2000/svg" xmlns:xlink="http://www.w3.org/1999/xlink">
    <title>flask-poison</title>
    <path d="M17.786 6.964C17.302 6.705 17 6.202 17 5.652V1h1.5C18.776 1 19 0.776 19 0.5S18.776 0 18.5 0h-13C5.224 0 5 0.224 5 0.5S5.224 1 5.5 1H7v4.604c0 0.553-0.304 1.058-0.794 1.315C2.378 8.937 0 12.772 0 16.929c0 0.605 0.051 1.215 0.151 1.812C0.665 21.788 3.349 24 6.535 24h10.93c3.186 0 5.87-2.211 6.384-5.259C23.95 18.144 24 17.534 24 16.929c0-4.097-2.381-7.916-6.214-9.965zM22.862 18.575C22.437 21.097 20.117 23 17.465 23H6.535c-2.652 0-4.973-1.902-5.397-4.425C1.046 18.033 1 17.478 1 16.929c0-3.784 2.174-7.281 5.673-9.125C7.491 7.372 8 6.53 8 5.604V1h8v4.653c0 0.919 0.504 1.76 1.315 2.193C20.821 9.721 23 13.201 23 16.929c0 0.55-0.046 1.104-0.138 1.646zM11 14c0 0.552-0.448 1-1 1s-1-0.448-1-1 0.448-1 1-1 1 0.448 1 1zM15 14c0 0.552-0.448 1-1 1s-1-0.448-1-1 0.448-1 1-1 1 0.448 1 1zM15.357 10.297c-1.059-0.96-2.438-1.412-3.854-1.272C8.978 9.27 6.999 11.544 6.999 14.2V16c0 1.103 0.897 2 2 2 0 1.103 0.897 2 2 2h2c1.103 0 2-0.897 2-2 1.103 0 2-0.897 2-2v-2c0-1.406-0.599-2.756-1.642-3.703zM16 16c0 0.551-0.448 1-1 1h-0.5c-0.276 0-0.5 0.224-0.5 0.5V18c0 0.551-0.448 1-1 1h-2c-0.552 0-1-0.449-1-1v-0.5c0-0.276-0.224-0.5-0.5-0.5H9c-0.552 0-1-0.449-1-1v-1.8c0-2.148 1.581-3.984 3.6-4.18v0c0.136-0.013 0.271-0.02 0.404-0.02 0.995 0 1.935 0.361 2.681 1.038 0.835 0.758 1.314 1.838 1.314 2.962z" />
</svg>