<svg id="flask_potion_Layer_1" viewBox="0 0 24 24" fill="currentColor" width="32" height="32" data-name="Layer 1" xmlns="http://www.w3.org/2000/svg" xmlns:xlink="http://www.w3.org/1999/xlink">
    <title>flask-potion</title>
    <path d="M17.786 6.964C17.302 6.705 17 6.202 17 5.652V1h1.5C18.776 1 19 0.776 19 0.5S18.776 0 18.5 0h-13C5.224 0 5 0.224 5 0.5S5.224 1 5.5 1H7v4.604c0 0.553-0.304 1.058-0.794 1.315C2.378 8.937 0 12.772 0 16.929c0 0.022 0.056 1.246 0.151 1.812C0.665 21.788 3.349 24 6.535 24h10.93c3.186 0 5.87-2.211 6.384-5.259C23.95 18.144 24 17.534 24 16.929c0-4.097-2.381-7.916-6.214-9.965zM6.673 7.803C7.491 7.371 8 6.529 8 5.603V1h8v4.653c0 0.919 0.504 1.76 1.315 2.193 2.637 1.41 4.523 3.729 5.296 6.377-0.566 0.34-3.119 1.776-5.872 1.776-1.834 0-3.151-0.472-4.546-0.971-1.414-0.506-2.876-1.029-4.884-1.029-2.468 0-5.001 1.301-6.271 2.061 0.304-3.445 2.405-6.555 5.635-8.257zM22.862 18.574c-0.425 2.522-2.745 4.425-5.397 4.425H6.535c-2.652 0-4.973-1.902-5.397-4.425-0.073-0.433-0.117-0.873-0.132-1.313 0.798-0.521 3.663-2.262 6.303-2.262 1.834 0 3.151 0.472 4.546 0.971 1.414 0.506 2.876 1.029 4.884 1.029 2.701 0 5.153-1.216 6.111-1.757 0.099 0.553 0.15 1.116 0.15 1.686 0 0.55-0.046 1.104-0.138 1.646z" />
</svg>