<svg id="flatbread_Layer_1" viewBox="0 0 24 24" fill="currentColor" width="32" height="32" data-name="Layer 1" xmlns="http://www.w3.org/2000/svg" xmlns:xlink="http://www.w3.org/1999/xlink">
    <title>flatbread</title>
    <path d="M12 0C5.383 0 0 5.383 0 12s5.383 12 12 12 12-5.383 12-12S18.617 0 12 0zM12 23C5.935 23 1 18.065 1 12S5.935 1 12 1 23 5.935 23 12 18.065 23 12 23zM17.854 6.854l-11 11C6.756 17.952 6.628 18 6.5 18s-0.256-0.049-0.354-0.146c-0.195-0.195-0.195-0.512 0-0.707l11-11c0.195-0.195 0.512-0.195 0.707 0s0.195 0.512 1e-3 0.707zM18.854 12.147c0.195 0.195 0.195 0.512 0 0.707l-6 6C12.756 18.952 12.628 19 12.5 19s-0.256-0.049-0.354-0.146c-0.195-0.195-0.195-0.512 0-0.707l6-6c0.195-0.195 0.512-0.195 0.708 0zM11.854 5.854l-6 6C5.756 11.952 5.628 12 5.5 12s-0.256-0.049-0.354-0.146c-0.195-0.195-0.195-0.512 0-0.707l6-6c0.195-0.195 0.512-0.195 0.707 0s0.195 0.512 1e-3 0.707z" />
</svg>