<svg id="floor_layer_Layer_1" viewBox="0 0 24 24" fill="currentColor" width="32" height="32" data-name="Layer 1" xmlns="http://www.w3.org/2000/svg" xmlns:xlink="http://www.w3.org/1999/xlink">
    <title>floor-layer</title>
    <path d="M24 9.192V7.838c0-0.956-0.557-1.841-1.419-2.254l-8.636-4.142c-1.236-0.592-2.654-0.592-3.891 0L1.419 5.583C0.557 5.996 0 6.881 0 7.837v1.389c0 0.956 0.557 1.841 1.419 2.254l1.018 0.488-1.019 0.488C0.557 12.87 0 13.755 0 14.71v1.477c0 0.956 0.557 1.841 1.419 2.254l8.63 4.138c0.618 0.297 1.281 0.445 1.945 0.445s1.335-0.15 1.957-0.45l8.637-4.17C23.445 17.989 24 17.105 24 16.153v-1.442c0-0.956-0.557-1.841-1.419-2.254l-1.05-0.503 1.057-0.51C23.445 11.029 24 10.145 24 9.192zM10.486 2.344c0.963-0.461 2.064-0.46 3.027 0 0 0 8.743 4.214 8.798 4.25l-8.798 4.219c-0.963 0.461-2.064 0.461-3.027 0L1.688 6.594c0.055-0.036 8.798-4.249 8.798-4.25zM1 9.227V7.838c0-0.149 0.025-0.294 0.067-0.433l8.988 4.31c0.462 0.222 0.951 0.333 1.445 0.389v2.904c-0.348-0.05-0.693-0.134-1.02-0.29l-8.629-4.139C1.334 10.331 1 9.8 1 9.227zM1.851 17.541C1.334 17.293 1 16.762 1 16.188v-1.477c0-0.084 0.021-0.164 0.035-0.245l9.019 4.325c0.462 0.222 0.951 0.333 1.445 0.389v2.788c-0.348-0.05-0.693-0.134-1.02-0.29zM23 16.154c0 0.572-0.333 1.102-0.848 1.351l-8.637 4.17c-0.326 0.157-0.669 0.241-1.016 0.293v-2.786c0.494-0.056 0.983-0.167 1.445-0.389l9.019-4.325c0.014 0.081 0.035 0.161 0.035 0.245zM22.148 13.359c0.125 0.06 0.239 0.138 0.34 0.228l-8.975 4.304c-0.963 0.461-2.064 0.461-3.027 0l-8.975-4.305c0.101-0.09 0.215-0.168 0.34-0.228l1.743-0.835 6.456 3.096c0.618 0.297 1.281 0.445 1.945 0.445s1.335-0.15 1.957-0.45l6.428-3.103zM22.152 10.544l-8.637 4.17c-0.326 0.157-0.669 0.241-1.016 0.293v-2.902c0.494-0.056 0.983-0.167 1.445-0.389l8.988-4.31c0.042 0.139 0.067 0.284 0.067 0.433v1.354c0 0.572-0.333 1.102-0.847 1.351z" />
</svg>