<svg id="floor_Layer_1" viewBox="0 0 24 24" fill="currentColor" width="32" height="32" data-name="Layer 1" xmlns="http://www.w3.org/2000/svg" xmlns:xlink="http://www.w3.org/1999/xlink">
    <title>floor</title>
    <path d="M23.939 10.571c0.132 0.243 0.041 0.546-0.202 0.678l-9.705 5.244c-0.626 0.34-1.329 0.51-2.032 0.51s-1.406-0.17-2.034-0.511l-9.705-5.281c-0.243-0.132-0.333-0.436-0.2-0.678 0.131-0.243 0.436-0.333 0.678-0.2l9.705 5.28c0.945 0.513 2.168 0.513 3.113 0l9.706-5.244c0.24-0.13 0.546-0.042 0.676 0.202zM0 7c0-0.681 0.384-1.295 1.027-1.644l8.939-4.848c1.254-0.681 2.813-0.681 4.067 0l8.939 4.848C23.616 5.705 23.999 6.319 23.999 7s-0.384 1.295-1.027 1.644l-8.939 4.848c-0.627 0.34-1.33 0.511-2.033 0.511s-1.406-0.17-2.034-0.511L1.027 8.644C0.384 8.295 0 7.681 0 7zM7.839 11.201l5.437-2.949-3.291-1.854c-0.02-0.011-0.033-0.03-0.051-0.044L4.417 9.346zM20.118 9.055l-3.01-1.696c-0.013-8e-3-0.021-0.02-0.033-0.029l-8.187 4.44 1.555 0.843c0.946 0.513 2.168 0.514 3.114 0zM20.795 5.313l-2.691 1.46 3.052 1.72 1.34-0.727C22.816 7.592 23 7.313 23 7.001s-0.184-0.591-0.504-0.765zM16.325 2.889l-5.366 2.91 3.355 1.891 5.432-2.946zM3.679 5.055 6.893 6.866 15.276 2.32l-1.72-0.933c-0.473-0.256-1.015-0.385-1.557-0.385s-1.084 0.128-1.557 0.385zM1 7c0 0.312 0.184 0.592 0.503 0.765l1.866 1.012 2.486-1.348-3.214-1.811-1.138 0.617C1.183 6.408 1 6.688 1 7zM23.263 13.369l-9.706 5.244c-0.945 0.514-2.168 0.513-3.113 0l-9.705-5.28c-0.242-0.133-0.546-0.042-0.678 0.2s-0.042 0.546 0.2 0.678l9.705 5.281c0.627 0.34 1.331 0.511 2.034 0.511s1.406-0.17 2.032-0.51l9.705-5.244c0.243-0.131 0.334-0.435 0.202-0.678-0.131-0.244-0.437-0.333-0.676-0.202zM23.263 16.369l-9.706 5.244c-0.945 0.514-2.168 0.513-3.113 0l-9.705-5.28c-0.242-0.133-0.546-0.042-0.678 0.2s-0.042 0.546 0.2 0.678l9.705 5.281c0.627 0.34 1.331 0.511 2.034 0.511s1.406-0.17 2.032-0.51l9.705-5.244c0.243-0.131 0.334-0.435 0.202-0.678-0.131-0.244-0.437-0.333-0.676-0.202z" />
</svg>