<svg id="floppy_disk_pen_Layer_1" viewBox="0 0 24 24" fill="currentColor" width="32" height="32" data-name="Layer 1" xmlns="http://www.w3.org/2000/svg" xmlns:xlink="http://www.w3.org/1999/xlink">
    <title>floppy-disk-pen</title>
    <path d="M8.5 20h-4C2.57 20 1 18.43 1 16.5v-12C1 2.57 2.57 1 4.5 1H5v4.5C5 6.327 5.673 7 6.5 7h8C15.327 7 16 6.327 16 5.5V1.195c0.119 0.067 0.23 0.151 0.327 0.249l3.238 3.266C19.845 4.992 20 5.367 20 5.766V8.5C20 8.776 20.224 9 20.5 9S21 8.776 21 8.5V5.766c0-0.665-0.258-1.29-0.725-1.76l-3.237-3.265C16.674 0.373 16 1e-3 15.263 1e-3H4.5C2.019 0 0 2.019 0 4.5v12C0 18.981 2.019 21 4.5 21h4C8.776 21 9 20.776 9 20.5S8.776 20 8.5 20zM14.5 6h-8C6.225 6 6 5.776 6 5.5V1h9v4.5C15 5.776 14.775 6 14.5 6zM23.268 11.732c-0.975-0.975-2.561-0.975-3.535 0l-7.707 7.707c-0.651 0.651-1.025 1.554-1.025 2.475V23.5c0 0.276 0.224 0.5 0.5 0.5h1.586c0.936 0 1.814-0.364 2.475-1.025l7.707-7.707c0.473-0.472 0.732-1.1 0.732-1.768s-0.26-1.296-0.733-1.768zM22.561 14.56l-7.707 7.707c-0.472 0.472-1.1 0.732-1.768 0.732H12v-1.086c0-0.658 0.267-1.302 0.732-1.768l7.707-7.707c0.584-0.585 1.537-0.585 2.121 0 0.283 0.283 0.439 0.66 0.439 1.061s-0.156 0.777-0.438 1.061zM14 13.499c0-1.93-1.57-3.5-3.5-3.5s-3.5 1.57-3.5 3.5 1.57 3.5 3.5 3.5 3.5-1.57 3.5-3.5zM10.5 15.999c-1.379 0-2.5-1.122-2.5-2.5s1.121-2.5 2.5-2.5 2.5 1.122 2.5 2.5-1.121 2.5-2.5 2.5z" />
</svg>