<svg id="floppy_disk_circle_arrow_right_Layer_1" viewBox="0 0 24 24" fill="currentColor" width="32" height="32" data-name="Layer 1" xmlns="http://www.w3.org/2000/svg" xmlns:xlink="http://www.w3.org/1999/xlink">
    <title>floppy-disk-circle-arrow-right</title>
    <path d="M21 17.5c0 0 0 0 0 0.01 0 0.5-0.19 1-0.58 1.38l-2.05 1.99c-0.1 0.09-0.22 0.14-0.35 0.14s-0.26-0.05-0.36-0.15c-0.19-0.2-0.19-0.51 0-0.71l2.04-1.99c0.06-0.06 0.1-0.12 0.14-0.18h-5.36c-0.28 0-0.5-0.22-0.5-0.5s0.22-0.5 0.5-0.5h5.36c-0.04-0.07-0.09-0.13-0.15-0.19l-2.04-1.98c-0.2-0.19-0.2-0.51 0-0.71 0.19-0.2 0.51-0.2 0.71 0l2.04 1.99c0.38 0.38 0.58 0.88 0.58 1.38 0 0 0 0 0.02 0.02zM24 17.5c0 3.58-2.92 6.5-6.5 6.5S11 21.08 11 17.5 13.92 11 17.5 11 24 13.92 24 17.5zM23 17.5c0-3.03-2.47-5.5-5.5-5.5S12 14.47 12 17.5 14.47 23 17.5 23 23 20.53 23 17.5zM9 20.5C9 20.78 8.78 21 8.5 21h-4C2.02 21 0 18.98 0 16.5v-12C0 2.02 2.02 0 4.5 0c0 0 11.13-0.02 11.19 0 0.51 0.09 0.98 0.37 1.35 0.74l3.24 3.27C20.75 4.48 21 5.11 21 5.77V8.5C21 8.78 20.78 9 20.5 9S20 8.78 20 8.5V5.77c0-0.4-0.15-0.77-0.43-1.06l-3.24-3.27c-0.1-0.1-0.21-0.18-0.33-0.25V5.5C16 6.33 15.33 7 14.5 7h-8C5.67 7 5 6.33 5 5.5V1H4.5C2.57 1 1 2.57 1 4.5v12C1 18.43 2.57 20 4.5 20h4C8.78 20 9 20.22 9 20.5zM15 5.5V1H6v4.5C6 5.78 6.22 6 6.5 6h8C14.78 6 15 5.78 15 5.5zM11.97 10.84c0.09-0.26-0.04-0.55-0.3-0.64C11.3 10.07 10.9 10 10.5 10 8.57 10 7 11.57 7 13.5c0 0.99 0.42 1.95 1.17 2.61 0.09 0.09 0.21 0.13 0.33 0.13 0.14 0 0.27-0.06 0.37-0.17 0.18-0.21 0.17-0.52-0.04-0.71C8.3 14.89 8 14.21 8 13.5 8 12.12 9.12 11 10.5 11c0.29 0 0.57 0.05 0.83 0.14s0.55-0.04 0.64-0.3z" />
</svg>