<svg id="floppy_disks_Layer_1" viewBox="0 0 24 24" fill="currentColor" width="32" height="32" data-name="Layer 1" xmlns="http://www.w3.org/2000/svg" xmlns:xlink="http://www.w3.org/1999/xlink">
    <title>floppy-disks</title>
    <path d="M23.275 4.005 20.038 0.74C19.674 0.372 19 0 18.263 0H7.5C5.019 0 3 2.019 3 4.5v12C3 18.981 5.019 21 7.5 21h12c2.481 0 4.5-2.019 4.5-4.5V5.766c0-0.665-0.258-1.29-0.725-1.761zM9 1h9v4.5C18 5.776 17.775 6 17.5 6h-8C9.225 6 9 5.776 9 5.5zM23 16.5c0 1.93-1.57 3.5-3.5 3.5h-12C5.57 20 4 18.43 4 16.5v-12C4 2.57 5.57 1 7.5 1H8v4.5C8 6.327 8.673 7 9.5 7h8C18.327 7 19 6.327 19 5.5V1.195c0.119 0.067 0.23 0.151 0.327 0.249l3.237 3.266c0 0 0 0 0 0 0.28 0.282 0.435 0.657 0.435 1.056zM20 23.5c0 0.276-0.224 0.5-0.5 0.5h-12C3.364 24 0 20.636 0 16.5v-12C0 4.224 0.224 4 0.5 4S1 4.224 1 4.5v12C1 20.084 3.916 23 7.5 23h12c0.276 0 0.5 0.224 0.5 0.5zM13.5 10c-1.93 0-3.5 1.57-3.5 3.5s1.57 3.5 3.5 3.5 3.5-1.57 3.5-3.5-1.57-3.5-3.5-3.5zM13.5 16c-1.379 0-2.5-1.122-2.5-2.5s1.121-2.5 2.5-2.5 2.5 1.122 2.5 2.5-1.121 2.5-2.5 2.5z" />
</svg>