<svg id="florin_sign_Layer_1" viewBox="0 0 24 24" fill="currentColor" width="32" height="32" data-name="Layer 1" xmlns="http://www.w3.org/2000/svg" xmlns:xlink="http://www.w3.org/1999/xlink">
    <title>florin-sign</title>
    <path d="M24 0.5C24 0.78 23.78 1 23.5 1h-3.7c-1.37 0-2.62 0.81-3.19 2.05L13 11h5.5c0.28 0 0.5 0.22 0.5 0.5S18.78 12 18.5 12h-5.95l-4.26 9.36C7.56 22.96 5.95 24 4.19 24H0.5C0.22 24 0 23.78 0 23.5S0.22 23 0.5 23h3.7c1.37 0 2.62-0.81 3.19-2.05L11.46 12H6.5C6.22 12 6 11.78 6 11.5S6.22 11 6.5 11h5.41l3.8-8.36C16.44 1.04 18.05 0 19.81 0h3.7c0.28 0 0.5 0.22 0.49 0.5z" />
</svg>