<svg id="flower_Layer_1" viewBox="0 0 24 24" fill="currentColor" width="32" height="32" data-name="Layer 1" xmlns="http://www.w3.org/2000/svg" xmlns:xlink="http://www.w3.org/1999/xlink">
    <title>flower</title>
    <path d="M12 8c-2.206 0-4 1.794-4 4s1.794 4 4 4 4-1.794 4-4-1.794-4-4-4zM12 15c-1.654 0-3-1.346-3-3s1.346-3 3-3 3 1.346 3 3-1.346 3-3 3zM21.65 12.018c0-0.012 0-0.024 0-0.036-6e-3-0.181 0.029-0.447 0.233-0.686C22.603 10.457 23 9.388 23 8.287c0-2.582-2.108-4.682-4.7-4.682-0.264 0-0.529 0.023-0.789 0.068-0.471 0.088-0.938-0.163-1.085-0.572C15.759 1.246 13.98-1e-3 12-1e-3S8.242 1.246 7.575 3.101C7.428 3.51 6.962 3.762 6.489 3.673 6.23 3.628 5.965 3.605 5.7 3.605c-2.592 0-4.7 2.1-4.7 4.682 0 1.101 0.396 2.169 1.116 3.008 0.205 0.239 0.24 0.505 0.233 0.723 6e-3 0.181-0.029 0.447-0.233 0.686-0.72 0.839-1.117 1.908-1.117 3.009 0 2.582 2.108 4.682 4.7 4.682 0.264 0 0.529-0.023 0.789-0.068 0.471-0.085 0.938 0.163 1.085 0.572 0.667 1.855 2.446 3.102 4.426 3.102s3.758-1.247 4.425-3.102c0.147-0.409 0.617-0.655 1.086-0.572 0.259 0.045 0.524 0.068 0.789 0.068 2.592 0 4.7-2.1 4.7-4.682 0-1.101-0.396-2.169-1.116-3.008-0.205-0.239-0.24-0.505-0.233-0.687zM18.299 19.394c-0.21 0-0.416-0.019-0.616-0.054-0.96-0.167-1.884 0.344-2.2 1.218-0.525 1.46-1.925 2.441-3.484 2.441s-2.959-0.981-3.485-2.441c-0.274-0.763-1.013-1.25-1.835-1.25-0.12 0-0.77 0.085-0.98 0.085-2.041 0-3.7-1.651-3.7-3.682 0-0.862 0.311-1.7 0.876-2.358 0.323-0.378 0.491-0.866 0.473-1.337 0.019-0.507-0.149-0.995-0.473-1.374C2.311 9.984 2 9.147 2 8.285c0-2.03 1.66-3.682 3.7-3.682 0.21 0 0.416 0.019 0.616 0.054 0.963 0.172 1.885-0.344 2.2-1.218 0.525-1.46 1.925-2.441 3.484-2.441s2.959 0.981 3.485 2.441c0.314 0.875 1.238 1.389 2.199 1.218 0.2-0.035 0.405-0.054 0.616-0.054 2.041 0 3.7 1.651 3.7 3.682 0 0.862-0.311 1.7-0.876 2.358-0.319 0.374-0.487 0.854-0.473 1.355-0.014 0.501 0.154 0.981 0.474 1.355C21.689 14.011 22 14.848 22 15.71c0 2.03-1.66 3.682-3.701 3.684z" />
</svg>