<svg id="flower_tulip_Layer_1" viewBox="0 0 24 24" fill="currentColor" width="32" height="32" data-name="Layer 1" xmlns="http://www.w3.org/2000/svg" xmlns:xlink="http://www.w3.org/1999/xlink">
    <title>flower-tulip</title>
    <path d="M23.639 14.557c-0.329-0.394-0.819-0.602-1.334-0.555-5.583 0.521-8.469 4.368-9.805 6.969v-6.995C15.621 13.737 18 11.289 18 8.2c0-2.857-2.052-5.335-4.058-7.381-1.034-1.056-2.848-1.058-3.885 0C8.051 2.866 5.999 5.343 5.999 8.2c0 3.089 2.379 5.537 5.5 5.776v6.995c-1.335-2.601-4.222-6.449-9.806-6.97-0.508-0.048-1.004 0.161-1.334 0.555-0.323 0.386-0.438 0.901-0.306 1.377 2.168 7.839 10.952 8.065 11.946 8.065s9.776-0.227 11.946-8.066c0.131-0.476 0.017-0.991-0.306-1.375zM7 8.2c0-2.497 1.907-4.779 3.771-6.681C11.1 1.185 11.536 1 12 1c0.132 0 0.261 0.019 0.386 0.048C10.723 3.728 10 5.979 10 8.5 10 8.776 10.224 9 10.5 9S11 8.776 11 8.5c0-2.331 0.683-4.43 2.253-6.954C15.11 3.443 17 5.714 17 8.2c0 2.691-2.196 4.8-5 4.8s-5-2.108-5-4.8zM1.018 15.668c-0.045-0.162-5e-3-0.333 0.109-0.469 0.108-0.129 0.265-0.203 0.426-0.203 0.016 0 0.033 0 0.049 2e-3 6.538 0.609 9.031 6.063 9.709 7.977-2.223-0.145-8.577-1.104-10.293-7.307zM22.982 15.668c-1.715 6.195-8.056 7.16-10.286 7.307 0.697-1.905 3.246-7.375 9.701-7.977 0.017-2e-3 0.033-2e-3 0.049-2e-3 0.161 0 0.317 0.074 0.426 0.203 0.114 0.136 0.154 0.308 0.11 0.469z" />
</svg>