<svg id="flower_butterfly_Layer_1" viewBox="0 0 24 24" fill="currentColor" width="32" height="32" data-name="Layer 1" xmlns="http://www.w3.org/2000/svg" xmlns:xlink="http://www.w3.org/1999/xlink">
    <title>flower-butterfly</title>
    <path d="M14.687 17.048c-3.443 0.291-5.245 2.05-6.187 3.645v-3.738c1.968-0.249 3.5-1.915 3.5-3.949 0-2.009-1.575-4.344-2.635-5.424-0.727-0.742-2.003-0.742-2.731 0C5.575 8.662 4 10.998 4 13.006c0 2.034 1.532 3.7 3.5 3.949v3.72c-0.942-1.605-2.743-3.374-6.187-3.665-0.384-0.032-0.767 0.131-1.021 0.439-0.269 0.326-0.359 0.764-0.243 1.171 1.387 4.861 5.577 5.375 7.284 5.375 0.325 0 1.031 4e-3 1.382 4e-3 1.739 0 5.861-0.528 7.234-5.342 0.116-0.408 0.025-0.846-0.243-1.172-0.254-0.307-0.639-0.474-1.019-0.437zM5 13.006c0-1.697 1.44-3.798 2.348-4.724 0.14-0.142 0.321-0.217 0.512-0.248C7.417 9.151 7 10.993 7 12.506c0 0.276 0.224 0.5 0.5 0.5s0.5-0.224 0.5-0.5c0-1.349 0.379-3.064 0.78-4.082C9.689 9.406 11 11.385 11 13.006c0 1.654-1.346 3-3 3s-3-1.346-3-3zM1.011 18.347c-0.025-0.091-6e-3-0.189 0.055-0.262 0.024-0.03 0.076-0.079 0.149-0.079 5e-3 0 0.01 0 0.015 0 4.623 0.391 5.866 3.699 6.177 4.998-1.38 0.028-5.15-0.294-6.396-4.657zM14.99 18.384c-1.245 4.363-5.015 4.669-6.396 4.624 0.312-1.29 1.555-4.573 6.177-4.964 0.075-3e-3 0.139 0.046 0.164 0.078 0.061 0.073 0.08 0.171 0.055 0.262zM13.805 3.104c0-0.606 0.492-1.098 1.098-1.098s1.098 0.492 1.098 1.098-0.491 1.098-1.098 1.098-1.098-0.492-1.098-1.098zM21.858 4.597c0.095-0.307 0.143-0.614 0.143-0.917C22 1.985 21.488 6e-3 20.046 6e-3S17 2.195 17 3.679c0 0.562 0.033 1.035 0.102 1.428-0.394-0.068-0.867-0.102-1.429-0.102C14.19 5.005 12 6.609 12 8.05s1.979 1.955 3.673 1.955c0.3 0 0.609-0.049 0.918-0.144 0.277 1.752 1.026 2.144 1.64 2.144 1.174 0 1.77-0.841 1.77-2.5 0-0.414-0.064-1.089-0.192-1.692 0.603 0.128 1.278 0.192 1.692 0.192 1.659 0 2.5-0.595 2.5-1.769 0-0.613-0.392-1.362-2.143-1.639zM18.231 11.006c-0.345 0-0.634-0.762-0.72-1.897-0.014-0.168-0.11-0.319-0.258-0.4-0.075-0.042-0.158-0.062-0.241-0.062-0.08 0-0.161 0.02-0.234 0.058-0.259 0.138-0.661 0.301-1.104 0.301-1.285 0-2.673-0.365-2.673-0.955 0-0.741 1.545-2.045 2.673-2.045 1.481 0 1.875 0.262 1.957 0.337 8e-3 8e-3 0.016 0.016 0.023 0.024 0 0 0 0 1e-3 0l0.959 0.959c0.148 0.215 0.387 1.335 0.387 2.18 0 1.5-0.481 1.5-0.77 1.5zM21.501 7.006c-0.844 0-1.965-0.239-2.178-0.385l-0.962-0.962c-8e-3-8e-3-0.016-0.016-0.023-0.024-0.075-0.082-0.337-0.475-0.337-1.956 0-1.128 1.305-2.673 2.046-2.673 0.589 0 0.954 1.388 0.954 2.673 0 0.442-0.164 0.845-0.302 1.104-0.078 0.149-0.077 0.328 5e-3 0.475 0.081 0.148 0.231 0.245 0.399 0.257C22.238 5.601 23 5.891 23 6.236c0 0.288 0 0.769-1.499 0.77z" />
</svg>