<svg id="flower_bouquet_Layer_1" viewBox="0 0 24 24" fill="currentColor" width="32" height="32" data-name="Layer 1" xmlns="http://www.w3.org/2000/svg" xmlns:xlink="http://www.w3.org/1999/xlink">
    <title>flower-bouquet</title>
    <path d="M24 10.737C24 9.421 22.977 8 21.323 8h-1.461c0.139-0.14 0.267-0.293 0.384-0.459 0.558-0.791 0.808-2.468 0.744-4.986-0.013-0.504-0.249-0.962-0.646-1.256-0.378-0.28-0.854-0.368-1.301-0.243-1.164 0.325-3.075 1.158-4.037 2.06-0.506-0.902-1.188-1.824-1.722-2.496-0.624-0.788-1.943-0.788-2.567 0C10.185 1.29 9.506 2.208 9 3.106 8.04 2.21 6.158 1.395 4.952 1.056 4.506 0.933 4.033 1.019 3.656 1.297 3.258 1.591 3.022 2.05 3.01 2.555 2.946 5.072 3.195 6.749 3.751 7.54 3.868 7.706 3.996 7.86 4.134 8H2.677C1.024 8 0 9.42 0 10.737c0 4.412 7.495 7.807 10.179 8.882-0.738 0.368-1.526 0.929-1.954 1.755-0.294 0.568-0.272 1.23 0.058 1.773 0.325 0.535 0.894 0.854 1.521 0.854h4.392c0.627 0 1.195-0.319 1.521-0.854 0.33-0.542 0.352-1.205 0.058-1.773-0.301-0.58-0.779-1.03-1.293-1.374H16.5c1.378 0 2.5 1.122 2.5 2.5 0 0.276 0.224 0.5 0.5 0.5s0.5-0.224 0.5-0.5c0-1.93-1.57-3.5-3.5-3.5h-1.227C18.542 17.526 24 14.501 24 10.737zM19.312 2.019C19.36 2.006 19.405 2 19.447 2c0.139 0 0.245 0.06 0.303 0.103 0.148 0.11 0.236 0.284 0.241 0.478 0.057 2.201-0.135 3.808-0.561 4.384-0.819 1.106-1.985 1.036-1.985 1.036-0.501-9e-3-0.99-0.188-1.4-0.515-1.138-0.907-1.371-2.269-0.581-3.389 0.503-0.713 2.447-1.685 3.848-2.078zM11.5 1.241c0.243-0.306 0.758-0.306 1.001 0 0.594 0.749 1.38 1.818 1.85 2.775-0.447 0.903-0.464 1.892-0.081 2.779-0.512 0.757-1.355 1.206-2.27 1.206-0.92 0-1.767-0.454-2.278-1.218 0.389-0.89 0.378-1.881-0.066-2.78 0.471-0.953 1.252-2.016 1.844-2.762zM4.569 6.965C4.141 6.39 3.953 4.781 4.01 2.58c5e-3-0.194 0.092-0.369 0.241-0.478C4.308 2.06 4.413 2 4.549 2c0.042 0 0.086 5e-3 0.133 0.019C6.1 2.417 8.056 3.39 8.552 4.095v0c0.779 1.109 0.531 2.472-0.616 3.391C7.533 7.808 7.059 7.987 6.566 8c0 0-1.181 0.06-1.997-1.035zM14.863 22.627C14.718 22.864 14.476 23 14.196 23H9.804c-0.279 0-0.522-0.136-0.667-0.373-0.147-0.242-0.156-0.539-0.024-0.793 0.623-1.203 2.442-1.712 2.887-1.821 0.444 0.108 2.264 0.618 2.887 1.821 0.132 0.255 0.123 0.551-0.024 0.793zM13.208 18.783c0.979-1.295 2.51-3.533 2.786-5.201 0.045-0.272-0.139-0.53-0.412-0.575-0.277-0.048-0.53 0.139-0.575 0.412-0.28 1.69-2.173 4.234-3.001 5.281-0.802-1.042-2.623-3.549-3.018-5.309-0.061-0.269-0.326-0.438-0.597-0.378-0.27 0.06-0.439 0.328-0.378 0.597 0.382 1.705 1.869 3.912 2.81 5.185C8.582 17.913 1 14.639 1 10.737 1 9.883 1.627 9 2.677 9h18.646C22.373 9 23 9.883 23 10.737c0 3.885-7.514 7.147-9.792 8.046z" />
</svg>