<svg id="flute_Layer_1" viewBox="0 0 24 24" fill="currentColor" width="32" height="32" data-name="Layer 1" xmlns="http://www.w3.org/2000/svg" xmlns:xlink="http://www.w3.org/1999/xlink">
    <title>flute</title>
    <path d="M23.558 1.582l-1.14-1.139c-0.548-0.548-1.412-0.592-2.011-0.099-0.646 0.533-1.679 1.215-2.938 1.442-0.772 0.139-1.447 0.478-1.951 0.98L0.891 17.396c-0.576 0.575-0.893 1.341-0.892 2.156 0 0.814 0.318 1.58 0.895 2.155l1.4 1.401C2.889 23.702 3.67 24 4.451 24s1.562-0.297 2.156-0.892L21.231 8.483c0.504-0.503 0.844-1.179 0.983-1.954 0.228-1.259 0.91-2.292 1.442-2.937 0.493-0.597 0.45-1.461-0.098-2.01zM5.9 22.401c-0.798 0.799-2.1 0.8-2.899 0L1.601 21c-0.388-0.387-0.602-0.902-0.602-1.449s0.213-1.061 0.6-1.448L15.718 3.982l4.3 4.3zM22.885 2.956c-0.608 0.737-1.389 1.924-1.655 3.396-0.083 0.466-0.282 0.858-0.539 1.189l-4.232-4.232c0.331-0.257 0.723-0.455 1.19-0.539 1.472-0.266 2.659-1.047 3.396-1.655 0.092-0.076 0.202-0.113 0.313-0.113 0.128 0 0.256 0.049 0.354 0.147l1.14 1.139c0.183 0.183 0.197 0.469 0.033 0.668zM17 8c0 0.552-0.448 1-1 1s-1-0.448-1-1 0.448-1 1-1 1 0.448 1 1zM14.25 10.75c0 0.552-0.448 1-1 1s-1-0.448-1-1 0.448-1 1-1 1 0.448 1 1zM11.5 13.5c0 0.552-0.448 1-1 1s-1-0.448-1-1 0.448-1 1-1 1 0.448 1 1zM8.75 16.25c0 0.552-0.448 1-1 1s-1-0.448-1-1 0.448-1 1-1 1 0.448 1 1zM6 19c0 0.552-0.448 1-1 1s-1-0.448-1-1 0.448-1 1-1 1 0.448 1 1z" />
</svg>