<svg id="flux_capacitor_Layer_1" viewBox="0 0 24 24" fill="currentColor" width="32" height="32" data-name="Layer 1" xmlns="http://www.w3.org/2000/svg" xmlns:xlink="http://www.w3.org/1999/xlink">
    <title>flux-capacitor</title>
    <path d="M19.5 0h-15C2.019 0 0 2.019 0 4.5v15C0 21.981 2.019 24 4.5 24h15c2.481 0 4.5-2.019 4.5-4.5v-15C24 2.019 21.981 0 19.5 0zM23 19.5c0 1.93-1.57 3.5-3.5 3.5h-15C2.57 23 1 21.43 1 19.5v-15C1 2.57 2.57 1 4.5 1h15C21.43 1 23 2.57 23 4.5zM11.5 11.748 6.446 7.898c-0.22-0.167-0.263-0.481-0.095-0.701 0.166-0.22 0.483-0.261 0.7-0.095l4.948 3.769 4.948-3.769c0.217-0.166 0.533-0.125 0.7 0.095 0.168 0.22 0.125 0.534-0.095 0.701l-5.054 3.85V17c0 0.276-0.224 0.5-0.5 0.5s-0.5-0.224-0.5-0.5zM21 7.5c0 2.206-1.794 4-4 4-0.194 0-0.385-0.014-0.571-0.041-0.273-0.04-0.463-0.293-0.424-0.566 0.039-0.274 0.296-0.464 0.566-0.424C16.711 10.49 16.854 10.5 17 10.5c1.654 0 3-1.346 3-3s-1.346-3-3-3-3 1.346-3 3C14 7.776 13.776 8 13.5 8S13 7.776 13 7.5c0-2.206 1.794-4 4-4s4 1.794 4 4zM7.995 10.893c0.039 0.273-0.15 0.527-0.424 0.566C7.384 11.485 7.194 11.5 7 11.5c-2.206 0-4-1.794-4-4s1.794-4 4-4 4 1.794 4 4C11 7.776 10.776 8 10.5 8S10 7.776 10 7.5c0-1.654-1.346-3-3-3s-3 1.346-3 3 1.346 3 3 3c0.146 0 0.289-0.01 0.429-0.031 0.268-0.041 0.526 0.15 0.566 0.424zM14.857 14.201C15.593 14.952 16 15.947 16 17c0 2.206-1.794 4-4 4s-4-1.794-4-4c0-1.084 0.427-2.099 1.201-2.857 0.197-0.194 0.514-0.188 0.707 7e-3 0.193 0.197 0.189 0.514-8e-3 0.707C9.32 15.426 9 16.187 9 17c0 1.654 1.346 3 3 3s3-1.346 3-3c0-0.79-0.305-1.536-0.857-2.099-0.193-0.197-0.189-0.514 8e-3-0.707 0.196-0.194 0.514-0.189 0.706 7e-3z" />
</svg>