<svg id="fly_insect_Layer_1" viewBox="0 0 24 24" fill="currentColor" width="32" height="32" data-name="Layer 1" xmlns="http://www.w3.org/2000/svg" xmlns:xlink="http://www.w3.org/1999/xlink">
    <title>fly-insect</title>
    <path d="M22.937 12.524c-0.791-0.844-3.602-3.675-6.971-5.141 0.023-0.125 0.035-0.253 0.035-0.384 0-0.997-0.534-1.928-1.357-2.579 0.235-0.434 0.357-0.918 0.357-1.421 0-1.654-1.346-3-3-3s-3 1.346-3 3c0 0.503 0.123 0.987 0.357 1.421-0.823 0.651-1.357 1.582-1.357 2.579 0 0.129 0.012 0.256 0.034 0.381-3.554 1.527-6.439 4.443-7.179 5.358-0.647 0.8-0.943 1.802-0.835 2.824 0.109 1.022 0.611 1.94 1.413 2.586C2.145 18.721 3 18.999 3.85 18.999c1.125 0 2.242-0.489 3.002-1.429 0.198-0.244 0.486-0.688 0.864-1.327C8.228 18.821 9.561 24 12 24s3.765-5.154 4.28-7.738c0.456 0.757 0.805 1.266 1.046 1.522 0.756 0.807 1.78 1.214 2.807 1.214 0.943 0 1.888-0.344 2.629-1.038 1.547-1.45 1.625-3.889 0.175-5.436zM10 3c0-1.103 0.897-2 2-2s2 0.897 2 2c0 0.316-0.073 0.62-0.212 0.896C13.243 3.644 12.633 3.5 12 3.5s-1.243 0.144-1.788 0.396C10.073 3.62 10 3.315 10 3zM12 4.5c1.717 0 3 1.32 3 2.5 0 1.05-1.545 2.08-2.52 2.481-0.311 0.128-0.651 0.128-0.96 0C10.545 9.079 9 8.05 9 7c0-1.18 1.283-2.5 3-2.5zM11.139 10.406c0.278 0.114 0.569 0.171 0.861 0.171s0.584-0.057 0.862-0.171c0.066-0.027 0.134-0.057 0.204-0.089 0.505 0.989 0.971 1.883 1.395 2.682h-4.95c0.425-0.798 0.894-1.695 1.408-2.69 0.076 0.035 0.149 0.067 0.22 0.097zM6.075 16.941c-0.989 1.222-2.789 1.413-4.014 0.427-0.593-0.478-0.964-1.157-1.045-1.913-0.081-0.755 0.138-1.496 0.617-2.087 0.877-1.084 3.664-3.715 6.778-5.06 0.393 0.618 1.014 1.137 1.629 1.525-2.036 3.94-3.44 6.459-3.965 7.108zM14.555 19.003c-0.018-2e-3-0.036-3e-3-0.054-3e-3h-5c-0.018 0-0.037 1e-3-0.054 3e-3-0.2-0.632-0.383-1.308-0.545-2.003H15.1c-0.162 0.695-0.345 1.371-0.545 2.003zM12.001 23c-0.76 0-1.549-1.232-2.212-3h4.423c-0.663 1.768-1.452 3-2.211 3zM15.315 16H8.687c-0.071-0.359-0.135-0.719-0.193-1.079-2e-3-0.011-4e-3-0.021-7e-3-0.032 0.154-0.277 0.316-0.574 0.488-0.891 8e-3 0 0.017 1e-3 0.025 1e-3h5.998c0.178 0.328 0.347 0.635 0.508 0.923-0.057 0.359-0.122 0.719-0.191 1.078zM22.079 17.23c-0.555 0.52-1.295 0.792-2.038 0.768-0.76-0.024-1.464-0.344-1.984-0.898-0.568-0.605-2.024-3.177-4.109-7.258 0.619-0.389 1.246-0.911 1.642-1.532 3.183 1.392 5.864 4.092 6.619 4.898 1.073 1.145 1.015 2.949-0.13 4.022z" />
</svg>