<svg id="fm_radio_Layer_1" viewBox="0 0 24 24" fill="currentColor" width="32" height="32" data-name="Layer 1" xmlns="http://www.w3.org/2000/svg" xmlns:xlink="http://www.w3.org/1999/xlink">
    <title>fm-radio</title>
    <path d="M19.5 7H6.269l14.424-6.039c0.255-0.106 0.375-0.399 0.269-0.654-0.107-0.254-0.4-0.374-0.654-0.268L3.083 7.25C1.298 7.847 0 9.516 0 11.5v8C0 21.981 2.019 24 4.5 24h15c2.481 0 4.5-2.019 4.5-4.5v-8C24 9.019 21.981 7 19.5 7zM3.134 8.278C3.582 8.159 4.01 7.981 4.5 8h15c1.391 0 2.585 0.822 3.149 2H1.351c0.368-0.768 0.997-1.387 1.783-1.722zM23 19.5c0 1.93-1.57 3.5-3.5 3.5h-15C2.57 23 1 21.43 1 19.5v-8c0-0.171 0.027-0.335 0.051-0.5h21.898C22.973 11.165 23 11.329 23 11.5zM7 14.5v2h2.5c0.276 0 0.5 0.224 0.5 0.5s-0.224 0.5-0.5 0.5H7v3C7 20.776 6.776 21 6.5 21S6 20.776 6 20.5v-6C6 13.673 6.673 13 7.5 13h2c0.276 0 0.5 0.224 0.5 0.5S9.776 14 9.5 14h-2C7.224 14 7 14.225 7 14.5zM17.993 14l0.47 6.483C18.483 20.762 18.262 21 17.982 21c-0.278 0.029-0.539-0.165-0.556-0.451l-0.42-6.343-1.566 3.444c-0.171 0.377-0.707 0.377-0.878 0l-1.566-3.444-0.496 6.349C12.48 20.806 12.271 21 12.019 21c-0.28 0-0.501-0.238-0.481-0.517L12.008 14c0.043-0.705 0.472-1 0.988-1 0.342 0 0.66 0.242 0.841 0.64l1.164 2.56 1.164-2.56c0.181-0.398 0.499-0.64 0.841-0.64 0.516 0 0.945 0.295 0.987 1z" />
</svg>