<svg id="foam_hand_Layer_1" viewBox="0 0 24 24" fill="currentColor" width="32" height="32" data-name="Layer 1" xmlns="http://www.w3.org/2000/svg" xmlns:xlink="http://www.w3.org/1999/xlink">
    <title>foam-hand</title>
    <path d="M21.123 8.594c-0.56-0.476-1.304-0.68-2.035-0.561-0.642 0.104-1.192 0.48-1.568 1-0.455-0.624-1.186-1.034-2.016-1.034-0.821 0-1.544 0.403-2 1.015-0.456-0.612-1.179-1.015-2-1.015-0.565 0-1.081 0.195-1.5 0.512V2.607c-1e-3-1.274-0.896-2.38-2.085-2.573-0.73-0.12-1.475 0.085-2.035 0.561C5.324 1.072 5.003 1.766 5.003 2.5v9.929l-1.649 1.572c-1.858 2.002-1.802 5.083 0.13 7.015l2.839 2.838c0.195 0.195 0.512 0.195 0.707 0s0.195-0.512 0-0.707l-2.839-2.838c-1.55-1.55-1.595-4.022-0.126-5.606l2.379-2.266c0.584-0.582 1.535-0.582 2.119 2e-3 5e-3 5e-3 0.011 0.011 0.017 0.016 0.273 0.281 0.424 0.652 0.424 1.046 0 0.4-0.156 0.776-0.47 1.092l-2.278 2.71c-0.178 0.211-0.15 0.526 0.062 0.704 0.21 0.177 0.526 0.151 0.704-0.062l2.249-2.678c0.262-0.262 0.451-0.573 0.575-0.911 0.442 0.396 1.02 0.643 1.659 0.643 0.821 0 1.544-0.403 2-1.015 0.456 0.612 1.179 1.015 2 1.015s1.544-0.403 2-1.015c0.456 0.612 1.179 1.015 2 1.015 0.565 0 1.081-0.195 1.5-0.512V23.5c0 0.276 0.224 0.5 0.5 0.5s0.5-0.224 0.5-0.5v-13c0-0.734-0.321-1.429-0.882-1.906zM9.003 11.515c-0.888-0.672-2.117-0.672-3-3e-3V2.5c0-0.44 0.192-0.857 0.529-1.144 0.341-0.29 0.774-0.407 1.227-0.336 0.709 0.116 1.244 0.798 1.244 1.587zM13.003 12.5c0 0.827-0.673 1.5-1.5 1.5s-1.5-0.673-1.5-1.5v-2c0-0.827 0.673-1.5 1.5-1.5s1.5 0.673 1.5 1.5zM17.003 12.5c0 0.827-0.673 1.5-1.5 1.5s-1.5-0.673-1.5-1.5v-2c0-0.827 0.673-1.5 1.5-1.5s1.5 0.673 1.5 1.5zM21.004 12.5c0 0.827-0.673 1.5-1.5 1.5s-1.5-0.673-1.5-1.5v-1.893c0-0.789 0.535-1.471 1.244-1.587 0.451-0.07 0.886 0.046 1.227 0.336 0.337 0.286 0.529 0.703 0.529 1.144zM20.003 17.868V23.5c0 0.276-0.224 0.5-0.5 0.5s-0.5-0.224-0.5-0.5v-5.224l-1.096 1.518c-0.163 0.225-0.476 0.271-0.698 0.11-0.224-0.162-0.272-0.475-0.11-0.698l1.373-1.892c0.3-0.309 0.667-0.381 0.996-0.248 0.325 0.135 0.535 0.449 0.535 0.802zM15.503 19.5c0.276 0 0.5-0.224 0.5-0.5s-0.224-0.5-0.5-0.5h-1v-1c0-0.276-0.224-0.5-0.5-0.5s-0.5 0.224-0.5 0.5v1h-2v-1c0-0.276-0.224-0.5-0.5-0.5s-0.5 0.224-0.5 0.5v1h-1c-0.276 0-0.5 0.224-0.5 0.5s0.224 0.5 0.5 0.5h1v2h-1c-0.276 0-0.5 0.224-0.5 0.5s0.224 0.5 0.5 0.5h1v1c0 0.276 0.224 0.5 0.5 0.5s0.5-0.224 0.5-0.5v-1h2v1c0 0.276 0.224 0.5 0.5 0.5s0.5-0.224 0.5-0.5v-1h1c0.276 0 0.5-0.224 0.5-0.5s-0.224-0.5-0.5-0.5h-1v-2zM13.503 21.5h-2v-2h2z" />
</svg>