<svg id="fog_Layer_1" viewBox="0 0 24 24" fill="currentColor" width="32" height="32" data-name="Layer 1" xmlns="http://www.w3.org/2000/svg" xmlns:xlink="http://www.w3.org/1999/xlink">
    <title>fog</title>
    <path d="M17.5 24h-2c-0.276 0-0.5-0.224-0.5-0.5s0.224-0.5 0.5-0.5h2c0.276 0 0.5 0.224 0.5 0.5S17.776 24 17.5 24zM12.5 24h-6C6.224 24 6 23.776 6 23.5S6.224 23 6.5 23h6c0.276 0 0.5 0.224 0.5 0.5S12.776 24 12.5 24zM17.5 20h-6c-0.276 0-0.5-0.224-0.5-0.5s0.224-0.5 0.5-0.5h6c0.276 0 0.5 0.224 0.5 0.5S17.776 20 17.5 20zM8.5 20h-2C6.224 20 6 19.776 6 19.5S6.224 19 6.5 19h2C8.776 19 9 19.224 9 19.5S8.776 20 8.5 20zM3.5 19.59c-0.067 0-0.135-0.014-0.2-0.042-1.635-0.712-2.823-2.164-3.179-3.883-0.392-1.89 0.198-3.805 1.576-5.122 0.328-0.313 0.469-0.819 0.386-1.388-0.134-0.922-0.106-1.862 0.083-2.796 0.639-3.137 3.173-5.635 6.308-6.216 3.573-0.671 7.059 1.056 8.674 4.278 0.194 0.388 0.56 0.668 1.001 0.767 3.521 0.79 5.98 3.984 5.847 7.597-0.085 2.284-1.254 4.383-3.207 5.759-0.226 0.157-0.537 0.104-0.697-0.121-0.158-0.226-0.104-0.538 0.121-0.697 1.696-1.194 2.711-3.009 2.783-4.978 0.116-3.131-2.014-5.899-5.065-6.583-0.736-0.166-1.347-0.638-1.677-1.296-1.413-2.82-4.468-4.322-7.598-3.743-2.738 0.507-4.952 2.69-5.51 5.433-0.167 0.82-0.191 1.646-0.073 2.452 0.13 0.893-0.119 1.715-0.685 2.255-1.128 1.078-1.609 2.646-1.289 4.196 0.286 1.381 1.282 2.596 2.601 3.17 0.253 0.11 0.368 0.404 0.258 0.658-0.082 0.188-0.266 0.3-0.458 0.3zM17.5 16h-2c-0.276 0-0.5-0.224-0.5-0.5s0.224-0.5 0.5-0.5h2c0.276 0 0.5 0.224 0.5 0.5S17.776 16 17.5 16zM12.5 16h-6C6.224 16 6 15.776 6 15.5S6.224 15 6.5 15h6c0.276 0 0.5 0.224 0.5 0.5S12.776 16 12.5 16z" />
</svg>