<svg id="folder_xmark_circle_Layer_1" viewBox="0 0 24 24" fill="currentColor" width="32" height="32" data-name="Layer 1" xmlns="http://www.w3.org/2000/svg" xmlns:xlink="http://www.w3.org/1999/xlink">
    <title>folder-xmark-circle</title>
    <path d="M19.5 2h-7.028c-0.231 0-0.464-0.055-0.671-0.158L8.646 0.264C8.301 0.092 7.914 0 7.528 0H4.5C2.019 0 0 2.019 0 4.5v13C0 19.981 2.019 22 4.5 22h5c0.276 0 0.5-0.224 0.5-0.5S9.776 21 9.5 21h-5C2.57 21 1 19.43 1 17.5V7h22v3.5c0 0.276 0.224 0.5 0.5 0.5s0.5-0.224 0.5-0.5v-4C24 4.019 21.981 2 19.5 2zM1 4.5C1 2.57 2.57 1 4.5 1h3.028c0.231 0 0.464 0.055 0.671 0.158l3.156 1.578C11.7 2.908 12.087 3 12.473 3h7.028c1.758 0 3.204 1.308 3.449 3H1zM17.5 11c-3.584 0-6.5 2.916-6.5 6.5s2.916 6.5 6.5 6.5 6.5-2.916 6.5-6.5-2.916-6.5-6.5-6.5zM17.5 23c-3.032 0-5.5-2.467-5.5-5.5s2.468-5.5 5.5-5.5 5.5 2.467 5.5 5.5-2.468 5.5-5.5 5.5zM20.354 15.354 18.208 17.5l2.146 2.146c0.195 0.195 0.195 0.512 0 0.707-0.098 0.098-0.226 0.146-0.354 0.146s-0.256-0.049-0.354-0.146L17.5 18.207l-2.146 2.146c-0.098 0.098-0.226 0.146-0.354 0.146s-0.256-0.049-0.354-0.146c-0.195-0.195-0.195-0.512 0-0.707l2.146-2.146-2.146-2.146c-0.195-0.195-0.195-0.512 0-0.707s0.512-0.195 0.707 0l2.146 2.146 2.146-2.146c0.195-0.195 0.512-0.195 0.707 0s0.195 0.512 2e-3 0.707z" />
</svg>