<svg id="folders_Layer_1" viewBox="0 0 24 24" fill="currentColor" width="32" height="32" data-name="Layer 1" xmlns="http://www.w3.org/2000/svg" xmlns:xlink="http://www.w3.org/1999/xlink">
    <title>folders</title>
    <path d="M19.5 3H15c-0.232 0-0.464-0.055-0.671-0.158l-3.156-1.578C10.828 1.091 10.441 1 10.055 1H7.499C5.019 1 3 3.019 3 5.5v10C3 17.981 5.019 20 7.5 20h12c2.481 0 4.5-2.019 4.5-4.5v-8C24 5.019 21.981 3 19.5 3zM7.5 2h2.556c0.231 0 0.464 0.055 0.671 0.158l3.155 1.578C14.227 3.909 14.613 4 15 4h4.5c1.76 0 3.221 1.306 3.464 3H4V5.5C4 3.57 5.57 2 7.5 2zM19.5 19h-12C5.57 19 4 17.43 4 15.5V8h19v7.5c0 1.93-1.57 3.5-3.5 3.5zM20 22.5c0 0.276-0.224 0.5-0.5 0.5h-15C2.019 23 0 20.981 0 18.5v-11C0 7.224 0.224 7 0.5 7S1 7.224 1 7.5v11C1 20.43 2.57 22 4.5 22h15c0.276 0 0.5 0.224 0.5 0.5z" />
</svg>