<svg id="folder_link_Layer_1" viewBox="0 0 24 24" fill="currentColor" width="32" height="32" data-name="Layer 1" xmlns="http://www.w3.org/2000/svg" xmlns:xlink="http://www.w3.org/1999/xlink">
    <title>folder-link</title>
    <path d="M18.209 21.762c0.195 0.196 0.195 0.512 0 0.708l-0.355 0.355c-0.782 0.782-1.811 1.173-2.839 1.173s-2.056-0.391-2.839-1.174c-1.565-1.565-1.565-4.112 0-5.678l1.42-1.42c0.759-0.758 1.767-1.176 2.839-1.176s2.081 0.418 2.839 1.176c0.275 0.274 0.509 0.587 0.693 0.928 0.132 0.243 0.042 0.546-0.201 0.678-0.242 0.131-0.545 0.042-0.678-0.201-0.139-0.256-0.314-0.491-0.521-0.697-1.139-1.14-3.124-1.141-4.264 0l-1.42 1.42c-1.175 1.175-1.175 3.088 0 4.264 1.176 1.175 3.088 1.175 4.264 0l0.355-0.355c0.195-0.194 0.512-0.195 0.707-1e-3zM17.147 12.175 16.792 12.53c-0.195 0.195-0.195 0.512 0 0.708 0.195 0.195 0.512 0.195 0.707 0l0.355-0.355c1.176-1.175 3.088-1.175 4.264 0 1.175 1.175 1.175 3.088 0 4.264l-1.42 1.42c-1.14 1.14-3.126 1.14-4.264 0-0.207-0.207-0.383-0.441-0.521-0.697-0.133-0.244-0.435-0.332-0.678-0.201s-0.333 0.435-0.201 0.678c0.185 0.341 0.418 0.654 0.693 0.928 0.758 0.758 1.766 1.176 2.839 1.176s2.08-0.418 2.839-1.176l1.42-1.42c1.564-1.565 1.564-4.112 0-5.678-1.566-1.565-4.113-1.565-5.678-2e-3zM24.001 6.5v3c0 0.276-0.224 0.5-0.5 0.5s-0.5-0.224-0.5-0.5V7H1v10.5C1 19.43 2.57 21 4.5 21h4C8.776 21 9 21.224 9 21.5S8.776 22 8.5 22h-4C2.019 22 0 19.981 0 17.5v-13C0 2.019 2.019 0 4.5 0h3.028C7.914 0 8.3 0.091 8.646 0.264l3.156 1.578C12.009 1.946 12.241 2 12.473 2h7.028c2.481 0 4.5 2.019 4.5 4.5zM1 6h21.949c-0.245-1.692-1.691-3-3.449-3h-7.028c-0.386 0-0.772-0.091-1.118-0.264L8.198 1.158C7.991 1.054 7.759 1 7.527 1H4.499c-1.93 0-3.5 1.57-3.5 3.5z" />
</svg>