<svg id="folder_open_Layer_1" viewBox="0 0 24 24" fill="currentColor" width="32" height="32" data-name="Layer 1" xmlns="http://www.w3.org/2000/svg" xmlns:xlink="http://www.w3.org/1999/xlink">
    <title>folder-open</title>
    <path d="M23.596 11.827C23.205 11.302 22.603 11 21.944 11h-0.943V7.5c0-2.481-2.019-4.5-4.5-4.5h-6.056c-0.232 0-0.464-0.055-0.671-0.158L6.619 1.264C6.274 1.092 5.888 1 5.501 1h-2C1.57 1 0 2.57 0 4.5v14C0 20.981 2.019 23 4.5 23h13.558c2.003 0 3.735-1.289 4.317-3.229l1.537-6.138c0.188-0.626 0.072-1.285-0.316-1.806zM1 18.5v-14C1 3.122 2.121 2 3.5 2h2c0.232 0 0.464 0.055 0.671 0.158l3.155 1.578C9.671 3.908 10.057 4 10.444 4H16.5C18.43 4 20 5.57 20 7.5V11H8.115c-1.49 0-2.818 0.938-3.311 2.354l-2.433 7.924C1.537 20.638 0.999 19.631 1 18.5zM22.948 13.368l-1.537 6.138C20.963 20.998 19.615 22 18.057 22H4.5c-0.435 0-0.851-0.08-1.234-0.225l2.489-8.111c0.347-0.996 1.295-1.665 2.36-1.665h13.828c0.34 0 0.649 0.154 0.851 0.424 0.198 0.266 0.257 0.603 0.154 0.945z" />
</svg>