<svg id="folder_gear_Layer_1" viewBox="0 0 24 24" fill="currentColor" width="32" height="32" data-name="Layer 1" xmlns="http://www.w3.org/2000/svg" xmlns:xlink="http://www.w3.org/1999/xlink">
    <title>folder-gear</title>
    <path d="M18.5 16c-1.103 0-2 0.897-2 2s0.897 2 2 2 2-0.897 2-2-0.897-2-2-2zM18.5 19c-0.552 0-1-0.448-1-1s0.448-1 1-1 1 0.448 1 1-0.448 1-1 1zM23.831 16.097c0.37-1.243-1.12-2.368-2.213-1.67l-0.223 0.131c-0.407-0.34-0.881-0.606-1.396-0.786v-0.271c0-0.827-0.673-1.5-1.5-1.5s-1.5 0.673-1.5 1.5v0.271c-0.515 0.18-0.988 0.446-1.396 0.786l-0.223-0.131c-1.662-1.016-3.214 1.628-1.521 2.585l0.234 0.138c-0.064 0.3-0.095 0.576-0.095 0.851s0.03 0.551 0.094 0.85l-0.233 0.138c-0.345 0.203-0.591 0.528-0.691 0.916-0.218 0.777 0.29 1.642 1.074 1.829 0.388 0.103 0.791 0.045 1.139-0.159l0.223-0.131c0.407 0.34 0.881 0.606 1.396 0.786v0.271c0 0.827 0.673 1.5 1.5 1.5s1.5-0.673 1.5-1.5V22.23c0.515-0.18 0.988-0.446 1.396-0.786l0.223 0.131c0.347 0.204 0.75 0.262 1.139 0.159 0.785-0.187 1.292-1.053 1.074-1.829-0.101-0.388-0.347-0.713-0.692-0.917l-0.232-0.137c0.063-0.299 0.094-0.575 0.094-0.85s-0.03-0.551-0.095-0.851l0.233-0.137c0.346-0.203 0.592-0.528 0.691-0.916zM21.85 17.045C21.953 17.406 22 17.71 22 18s-0.048 0.594-0.15 0.955c-0.062 0.219 0.031 0.452 0.228 0.568l0.555 0.325c0.566 0.319 0.048 1.201-0.506 0.863l-0.54-0.318c-0.196-0.115-0.447-0.084-0.607 0.077-0.431 0.432-0.984 0.743-1.604 0.903-0.221 0.058-0.375 0.257-0.375 0.484v0.642c0 0.275-0.225 0.5-0.5 0.5s-0.5-0.225-0.5-0.5v-0.642c0-0.228-0.154-0.427-0.375-0.484-0.619-0.16-1.173-0.472-1.604-0.903-0.161-0.162-0.412-0.192-0.607-0.077l-0.54 0.318c-0.551 0.339-1.072-0.544-0.507-0.862l0.556-0.326c0.196-0.116 0.29-0.35 0.228-0.568-0.103-0.361-0.15-0.665-0.15-0.955s0.048-0.594 0.15-0.955c0.062-0.219-0.03-0.452-0.227-0.567l-0.557-0.328c-0.565-0.318-0.045-1.199 0.507-0.861l0.54 0.318c0.197 0.117 0.448 0.085 0.607-0.077 0.431-0.432 0.984-0.743 1.604-0.903 0.221-0.058 0.375-0.257 0.375-0.484v-0.642c0-0.275 0.225-0.5 0.5-0.5s0.5 0.225 0.5 0.5v0.642c0 0.228 0.154 0.427 0.375 0.484 0.619 0.16 1.173 0.472 1.604 0.903 0.159 0.161 0.41 0.193 0.607 0.077l0.54-0.318c0.553-0.337 1.072 0.543 0.506 0.862l-0.556 0.327c-0.196 0.115-0.289 0.349-0.227 0.567zM19.5 2h-7.028c-0.231 0-0.463-0.055-0.67-0.158L8.646 0.264C8.301 0.092 7.915 0 7.529 0H4.501C2.019 0 0 2.019 0 4.5v13C0 19.981 2.019 22 4.5 22h6c0.276 0 0.5-0.224 0.5-0.5S10.776 21 10.5 21h-6C2.57 21 1 19.43 1 17.5V7h22v4.5c0 0.276 0.224 0.5 0.5 0.5s0.5-0.224 0.5-0.5v-5C24 4.019 21.981 2 19.5 2zM1 4.5C1 2.57 2.57 1 4.5 1h3.028c0.231 0 0.463 0.055 0.67 0.158l3.156 1.578C11.699 2.908 12.085 3 12.471 3h7.028c1.758 0 3.204 1.308 3.449 3H1z" />
</svg>