<svg id="folder_check_Layer_1" viewBox="0 0 24 24" fill="currentColor" width="32" height="32" data-name="Layer 1" xmlns="http://www.w3.org/2000/svg" xmlns:xlink="http://www.w3.org/1999/xlink">
    <title>folder-check</title>
    <path d="M17.358 12.15c0.193 0.198 0.189 0.515-8e-3 0.707l-4.522 4.417c-1.038 1.038-2.731 1.034-3.769-4e-3l-2.413-2.417c-0.195-0.195-0.195-0.513 0-0.707 0.195-0.195 0.512-0.195 0.707 0l2.412 2.417c0.65 0.65 1.708 0.65 2.358 0l4.526-4.421c0.198-0.193 0.514-0.188 0.709 8e-3zM24 7.5v11c0 2.481-2.019 4.5-4.5 4.5h-15C2.019 23 0 20.981 0 18.5v-13C0 3.019 2.019 1 4.5 1h3.028C7.914 1 8.3 1.091 8.646 1.264l3.156 1.578C12.009 2.946 12.241 3 12.473 3h7.028c2.481 0 4.5 2.019 4.499 4.5zM1 5.5V7h21.949c-0.245-1.692-1.691-3-3.449-3h-7.028c-0.386 0-0.772-0.091-1.118-0.264L8.198 2.158C7.991 2.054 7.759 2 7.527 2H4.499C2.569 2 0.999 3.57 1 5.5zM23 18.5V8H1v10.5C1 20.43 2.57 22 4.5 22h15c1.93 0 3.5-1.57 3.5-3.5z" />
</svg>