<svg id="folder_heart_Layer_1" viewBox="0 0 24 24" fill="currentColor" width="32" height="32" data-name="Layer 1" xmlns="http://www.w3.org/2000/svg" xmlns:xlink="http://www.w3.org/1999/xlink">
    <title>folder-heart</title>
    <path d="M14.25 11c-0.906 0-1.743 0.447-2.25 1.103C11.493 11.447 10.656 11 9.75 11 8.233 11 7 12.314 7 13.93c0 1.916 2.065 3.984 3.797 5.383 0.354 0.286 0.778 0.429 1.203 0.429s0.849-0.143 1.203-0.429C14.934 17.915 17 15.846 17 13.93 17 12.314 15.767 11 14.25 11zM12.574 18.535c-0.338 0.273-0.811 0.273-1.148 0C9.248 16.778 8 15.1 8 13.931c0-1.064 0.785-1.93 1.75-1.93 0.985 0 1.75 0.806 1.75 1.5 0 0.276 0.224 0.5 0.5 0.5s0.5-0.224 0.5-0.5c0-0.694 0.765-1.5 1.75-1.5 0.965 0 1.75 0.866 1.75 1.93 0 1.169-1.248 2.848-3.426 4.604zM19.5 3h-7.028c-0.231 0-0.463-0.055-0.67-0.158L8.646 1.264C8.301 1.092 7.915 1 7.529 1H4.501C2.019 1 0 3.019 0 5.5v13C0 20.981 2.019 23 4.5 23h15c2.481 0 4.5-2.019 4.5-4.5v-11C24 5.019 21.981 3 19.5 3zM4.5 2h3.028c0.231 0 0.463 0.055 0.67 0.158l3.156 1.578C11.699 3.908 12.085 4 12.471 4h7.028c1.758 0 3.204 1.308 3.449 3H1V5.5C1 3.57 2.57 2 4.5 2zM19.5 22h-15C2.57 22 1 20.43 1 18.5V8h22v10.5c0 1.93-1.57 3.5-3.5 3.5z" />
</svg>