<svg id="folder_camera_Layer_1" viewBox="0 0 24 24" fill="currentColor" width="32" height="32" data-name="Layer 1" xmlns="http://www.w3.org/2000/svg" xmlns:xlink="http://www.w3.org/1999/xlink">
    <title>folder-camera</title>
    <path d="M17.5 16.5c-1.379 0-2.5 1.122-2.5 2.5s1.121 2.5 2.5 2.5S20 20.378 20 19s-1.121-2.5-2.5-2.5zM17.5 20.5c-0.827 0-1.5-0.673-1.5-1.5s0.673-1.5 1.5-1.5S19 18.173 19 19s-0.673 1.5-1.5 1.5zM20.787 14.029l-0.904-1.36C19.605 12.25 19.137 12 18.634 12h-2.268c-0.503 0-0.971 0.25-1.249 0.669l-0.904 1.36C12.419 14.178 11 15.669 11 17.5v3c0 1.93 1.57 3.5 3.5 3.5h6c1.93 0 3.5-1.57 3.5-3.5v-3c0-1.831-1.419-3.322-3.213-3.471zM16.366 13h2.268c0.168 0 0.323 0.083 0.417 0.223L19.568 14h-4.135l0.517-0.777C16.044 13.083 16.199 13 16.366 13zM23 20.5c0 1.378-1.121 2.5-2.5 2.5h-6c-1.379 0-2.5-1.122-2.5-2.5v-3c0-1.378 1.121-2.5 2.5-2.5h6c1.379 0 2.5 1.122 2.5 2.5zM19.5 2h-7.028c-0.231 0-0.464-0.055-0.671-0.158L8.646 0.264C8.301 0.092 7.914 0 7.528 0H4.5C2.019 0 0 2.019 0 4.5v13C0 19.981 2.019 22 4.5 22h4C8.776 22 9 21.776 9 21.5S8.776 21 8.5 21h-4C2.57 21 1 19.43 1 17.5V7h22v4.5c0 0.276 0.224 0.5 0.5 0.5s0.5-0.224 0.5-0.5v-5C24 4.019 21.981 2 19.5 2zM1 4.5C1 2.57 2.57 1 4.5 1h3.028c0.231 0 0.464 0.055 0.671 0.158l3.156 1.578C11.7 2.908 12.087 3 12.473 3h7.028c1.758 0 3.204 1.308 3.449 3H1z" />
</svg>