<svg id="folder_archive_Layer_1" viewBox="0 0 24 24" fill="currentColor" width="32" height="32" data-name="Layer 1" xmlns="http://www.w3.org/2000/svg" xmlns:xlink="http://www.w3.org/1999/xlink">
    <title>folder-archive</title>
    <path d="M6.5 10h-1C4.673 10 4 10.673 4 11.5v8C4 20.327 4.673 21 5.5 21h1C7.327 21 8 20.327 8 19.5v-8C8 10.673 7.327 10 6.5 10zM7 19.5C7 19.775 6.776 20 6.5 20h-1C5.224 20 5 19.775 5 19.5v-8C5 11.225 5.224 11 5.5 11h1C6.776 11 7 11.225 7 11.5zM6 3C4.622 3 3.5 4.121 3.5 5.5S4.622 8 6 8 8.5 6.879 8.5 5.5 7.378 3 6 3zM6 7C5.173 7 4.5 6.327 4.5 5.5S5.173 4 6 4 7.5 4.673 7.5 5.5 6.827 7 6 7zM19.5 0H16c-1.752 0-3.257 1.016-4 2.482C11.257 1.017 9.752 0 8 0H4.5C2.019 0 0 2.019 0 4.5v15C0 21.981 2.019 24 4.5 24H8c1.752 0 3.257-1.016 4-2.482C12.743 22.983 14.248 24 16 24h3.5c2.481 0 4.5-2.019 4.5-4.5v-15C24 2.019 21.981 0 19.5 0zM8 23H4.5C2.57 23 1 21.43 1 19.5v-15C1 2.57 2.57 1 4.5 1H8c1.93 0 3.5 1.57 3.5 3.5v15c0 1.93-1.57 3.5-3.5 3.5zM23 19.5c0 1.93-1.57 3.5-3.5 3.5H16c-1.93 0-3.5-1.57-3.5-3.5v-15C12.5 2.57 14.07 1 16 1h3.5C21.43 1 23 2.57 23 4.5zM18.5 10h-1c-0.827 0-1.5 0.673-1.5 1.5v8c0 0.827 0.673 1.5 1.5 1.5h1c0.827 0 1.5-0.673 1.5-1.5v-8c0-0.827-0.673-1.5-1.5-1.5zM19 19.5c0 0.275-0.225 0.5-0.5 0.5h-1c-0.275 0-0.5-0.225-0.5-0.5v-8c0-0.275 0.225-0.5 0.5-0.5h1c0.275 0 0.5 0.225 0.5 0.5zM18 3c-1.379 0-2.5 1.121-2.5 2.5S16.621 8 18 8s2.5-1.121 2.5-2.5S19.379 3 18 3zM18 7c-0.827 0-1.5-0.673-1.5-1.5S17.173 4 18 4s1.5 0.673 1.5 1.5S18.827 7 18 7z" />
</svg>