<svg id="folder_minus_Layer_1" viewBox="0 0 24 24" fill="currentColor" width="32" height="32" data-name="Layer 1" xmlns="http://www.w3.org/2000/svg" xmlns:xlink="http://www.w3.org/1999/xlink">
    <title>folder-minus</title>
    <path d="M16 14.5c0 0.276-0.224 0.5-0.5 0.5h-7C8.224 15 8 14.776 8 14.5S8.224 14 8.5 14h7c0.276 0 0.5 0.224 0.5 0.5zM24 7.5v11c0 2.481-2.019 4.5-4.5 4.5h-15C2.019 23 0 20.981 0 18.5v-13C0 3.019 2.019 1 4.5 1h3.028C7.914 1 8.3 1.091 8.645 1.264l3.156 1.578C12.008 2.946 12.239 3 12.471 3h7.028c2.481 0 4.5 2.019 4.501 4.5zM1 5.5V7h21.964C22.721 5.306 21.26 4 19.5 4h-7.028c-0.386 0-0.772-0.091-1.117-0.264L8.199 2.158C7.992 2.054 7.761 2 7.529 2H4.501C2.571 2 1.001 3.57 1 5.5zM23 18.5V8H1v10.5C1 20.43 2.57 22 4.5 22h15c1.93 0 3.5-1.57 3.5-3.5z" />
</svg>