<svg id="folder_upload_Layer_1" viewBox="0 0 24 24" fill="currentColor" width="32" height="32" data-name="Layer 1" xmlns="http://www.w3.org/2000/svg" xmlns:xlink="http://www.w3.org/1999/xlink">
    <title>folder-upload</title>
    <path d="M19.5 3h-7.028c-0.231 0-0.464-0.055-0.671-0.158L8.645 1.264C8.3 1.091 7.913 1 7.527 1H4.499C2.019 1 0 3.019 0 5.5v13C0 20.981 2.019 23 4.5 23h4C8.776 23 9 22.776 9 22.5S8.776 22 8.5 22h-4C2.57 22 1 20.43 1 18.5V8h22v10.5c0 1.93-1.57 3.5-3.5 3.5h-4c-0.276 0-0.5 0.224-0.5 0.5s0.224 0.5 0.5 0.5h4c2.481 0 4.5-2.019 4.5-4.5v-11C24 5.019 21.981 3 19.5 3zM1 5.5C1 3.57 2.57 2 4.5 2h3.028c0.231 0 0.464 0.055 0.671 0.158l3.156 1.578C11.7 3.909 12.087 4 12.473 4h7.028c1.76 0 3.221 1.306 3.464 3H1zM12.683 13.28c-0.056-0.056-0.117-0.103-0.183-0.142v9.363c0 0.276-0.224 0.5-0.5 0.5s-0.5-0.224-0.5-0.5v-9.362c-0.066 0.04-0.129 0.088-0.187 0.146l-2.511 2.566c-0.193 0.198-0.509 0.201-0.707 8e-3-0.197-0.193-0.201-0.51-8e-3-0.707l2.515-2.57c0.384-0.384 0.886-0.577 1.388-0.58h0.018c0.502 2e-3 1.003 0.194 1.384 0.576l2.519 2.574c0.193 0.197 0.189 0.514-8e-3 0.707-0.097 0.095-0.224 0.143-0.35 0.143-0.13 0-0.259-0.05-0.357-0.15z" />
</svg>