<svg id="folder_math_Layer_1" viewBox="0 0 24 24" fill="currentColor" width="32" height="32" data-name="Layer 1" xmlns="http://www.w3.org/2000/svg" xmlns:xlink="http://www.w3.org/1999/xlink">
    <title>folder-math</title>
    <path d="M14 16.5c0-0.276 0.224-0.5 0.5-0.5h4c0.276 0 0.5 0.224 0.5 0.5S18.776 17 18.5 17h-4c-0.276 0-0.5-0.224-0.5-0.5zM14.5 12h4c0.276 0 0.5-0.224 0.5-0.5S18.776 11 18.5 11h-4c-0.276 0-0.5 0.224-0.5 0.5s0.224 0.5 0.5 0.5zM24 7.5v11c0 2.481-2.019 4.5-4.5 4.5h-15C2.019 23 0 20.981 0 18.5v-13C0 3.019 2.019 1 4.5 1h3.028C7.914 1 8.3 1.091 8.645 1.264l3.156 1.578C12.008 2.946 12.239 3 12.471 3h7.028c2.481 0 4.5 2.019 4.501 4.5zM1 7h21.949c-0.245-1.692-1.691-3-3.449-3h-7.028c-0.386 0-0.772-0.091-1.117-0.264L8.199 2.158C7.992 2.054 7.761 2 7.529 2H4.501c-1.93 0-3.5 1.57-3.5 3.5zM23 8H1v10.5C1 20.43 2.57 22 4.5 22h15c1.93 0 3.5-1.57 3.5-3.5zM5.5 12H7v1.5C7 13.776 7.224 14 7.5 14S8 13.776 8 13.5V12h1.5c0.276 0 0.5-0.224 0.5-0.5S9.776 11 9.5 11H8V9.5C8 9.224 7.776 9 7.5 9S7 9.224 7 9.5V11H5.5C5.224 11 5 11.224 5 11.5S5.224 12 5.5 12zM14.5 20h4c0.276 0 0.5-0.224 0.5-0.5S18.776 19 18.5 19h-4c-0.276 0-0.5 0.224-0.5 0.5s0.224 0.5 0.5 0.5zM8.207 18l1.396-1.396c0.195-0.196 0.195-0.512 0-0.708-0.195-0.194-0.512-0.195-0.707 0L7.5 17.292 6.104 15.896c-0.195-0.195-0.512-0.195-0.707 0s-0.195 0.512 0 0.708L6.793 18 5.397 19.396c-0.195 0.196-0.195 0.512 0 0.708 0.195 0.194 0.512 0.195 0.707 0L7.5 18.708l1.396 1.396c0.195 0.195 0.512 0.195 0.707 0s0.195-0.512 0-0.708z" />
</svg>