<svg id="folder_xmark_Layer_1" viewBox="0 0 24 24" fill="currentColor" width="32" height="32" data-name="Layer 1" xmlns="http://www.w3.org/2000/svg" xmlns:xlink="http://www.w3.org/1999/xlink">
    <title>folder-xmark</title>
    <path d="M19.5 3h-7.03c-0.23 0-0.46-0.05-0.67-0.16L8.64 1.26C8.3 1.09 7.91 1 7.52 1H4.49C2.02 1 0 3.02 0 5.5v13C0 20.98 2.02 23 4.5 23h15c2.48 0 4.5-2.02 4.5-4.5v-11C24 5.02 21.98 3 19.5 3zM4.5 2h3.03C7.76 2 7.99 2.05 8.2 2.16l3.16 1.58C11.7 3.91 12.09 4 12.48 4h7.03c1.76 0 3.22 1.31 3.46 3H1V5.5C1 3.57 2.57 2 4.5 2zM19.5 22h-15C2.57 22 1 20.43 1 18.5V8h22v10.5c0 1.93-1.57 3.5-3.5 3.5zM15.85 11.85 12.7 15l3.15 3.15c0.2 0.2 0.2 0.51 0 0.71-0.1 0.1-0.23 0.15-0.35 0.15s-0.26-0.05-0.35-0.15L12 15.71 8.85 18.86c-0.1 0.1-0.23 0.15-0.35 0.15s-0.26-0.05-0.35-0.15c-0.2-0.2-0.2-0.51 0-0.71L11.3 15 8.15 11.85c-0.2-0.2-0.2-0.51 0-0.71s0.51-0.2 0.71 0l3.15 3.15 3.15-3.15c0.2-0.2 0.51-0.2 0.71 0s0.2 0.51-0.02 0.71z" />
</svg>