<svg id="followcollection_Layer_1" viewBox="0 0 24 24" fill="currentColor" width="32" height="32" data-name="Layer 1" xmlns="http://www.w3.org/2000/svg" xmlns:xlink="http://www.w3.org/1999/xlink">
    <title>followcollection</title>
    <path d="M7.5 0h-4C1.57 0 0 1.57 0 3.5v4C0 9.43 1.57 11 3.5 11h4C9.43 11 11 9.43 11 7.5v-4C11 1.57 9.43 0 7.5 0zM10 7.5C10 8.88 8.88 10 7.5 10h-4C2.12 10 1 8.88 1 7.5v-4C1 2.12 2.12 1 3.5 1h4C8.88 1 10 2.12 10 3.5zM20.5 13h-4c-1.93 0-3.5 1.57-3.5 3.5v4c0 1.93 1.57 3.5 3.5 3.5h4c1.93 0 3.5-1.57 3.5-3.5v-4c0-1.93-1.57-3.5-3.5-3.5zM23 20.5c0 1.38-1.12 2.5-2.5 2.5h-4c-1.38 0-2.5-1.12-2.5-2.5v-4c0-1.38 1.12-2.5 2.5-2.5h4c1.38 0 2.5 1.12 2.5 2.5zM7.5 13h-4C1.57 13 0 14.57 0 16.5v4C0 22.43 1.57 24 3.5 24h4c1.93 0 3.5-1.57 3.5-3.5v-4c0-1.93-1.57-3.5-3.5-3.5zM10 20.5c0 1.38-1.12 2.5-2.5 2.5h-4C2.12 23 1 21.88 1 20.5v-4C1 15.12 2.12 14 3.5 14h4c1.38 0 2.5 1.12 2.5 2.5zM17.41 9.62C17.73 9.87 18.11 10 18.5 10s0.77-0.13 1.09-0.38C20.33 9.03 24 5.94 24 3.25 24 1.46 22.65 0 21 0c-1.01 0-1.94 0.55-2.5 1.39C17.95 0.54 17.02 0 16 0c-1.65 0-3 1.46-3 3.25 0 2.69 3.67 5.78 4.41 6.37zM16 1c0.96 0 1.82 0.78 2 1.81 0.04 0.24 0.25 0.41 0.49 0.41s0.45-0.17 0.49-0.41C19.16 1.78 20.03 1 21 1c1.1 0 2 1.01 2 2.25 0 1.85-2.54 4.38-4.04 5.59-0.27 0.21-0.66 0.22-0.92 0C16.54 7.64 14 5.11 14 3.25 14 2.01 14.9 1 16 1z" />
</svg>