<svg id="follow_Layer_1" viewBox="0 0 24 24" fill="currentColor" width="32" height="32" data-name="Layer 1" xmlns="http://www.w3.org/2000/svg" xmlns:xlink="http://www.w3.org/1999/xlink">
    <title>follow</title>
    <path d="M19 4V0.5C19 0.224 19.224 0 19.5 0S20 0.224 20 0.5V4h3.5C23.776 4 24 4.224 24 4.5S23.776 5 23.5 5H20v3.5C20 8.776 19.776 9 19.5 9S19 8.776 19 8.5V5h-3.5C15.224 5 15 4.776 15 4.5S15.224 4 15.5 4zM16 10c0 2.206-1.794 4-4 4s-4-1.794-4-4 1.794-4 4-4 4 1.794 4 4zM15 10c0-1.654-1.346-3-3-3s-3 1.346-3 3 1.346 3 3 3 3-1.346 3-3zM23.479 8.491C23.825 9.625 24 10.805 24 12c0 6.617-5.383 12-12 12S0 18.617 0 12 5.383 0 12 0c1.247 0 2.477 0.19 3.652 0.566 0.263 0.084 0.408 0.365 0.324 0.628-0.085 0.263-0.367 0.409-0.629 0.324-1.077-0.344-2.204-0.519-3.348-0.519C5.935 1 1 5.935 1 12c0 3.874 2.018 7.28 5.054 9.24C6.429 18.29 8.95 16 12 16s5.571 2.29 5.946 5.24C20.981 19.28 23 15.874 23 12c0-1.096-0.16-2.178-0.478-3.217-0.08-0.264 0.068-0.544 0.333-0.624 0.264-0.083 0.543 0.069 0.624 0.332zM12 23c1.793 0 3.482-0.44 4.979-1.204C16.869 19.136 14.687 17 12 17s-4.87 2.135-4.979 4.796C8.518 22.56 10.207 23 12 23z" />
</svg>