<svg id="fondue_pot_Layer_1" viewBox="0 0 24 24" fill="currentColor" width="32" height="32" data-name="Layer 1" xmlns="http://www.w3.org/2000/svg" xmlns:xlink="http://www.w3.org/1999/xlink">
    <title>fondue-pot</title>
    <path d="M23.5 8h-5.138l3.573-6.252c0.137-0.24 0.054-0.545-0.187-0.682-0.238-0.136-0.545-0.056-0.683 0.186L17.209 8h-3.622l1.404-7.407c0.052-0.271-0.127-0.533-0.398-0.584-0.27-0.052-0.532 0.126-0.584 0.398L12.569 8H6.79L2.934 1.252C2.797 1.012 2.49 0.927 2.252 1.066 2.012 1.203 1.929 1.508 2.066 1.748L5.639 8H0.5C0.224 8 0 8.224 0 8.5S0.224 9 0.5 9H2v2.5c0 3.837 2.291 7.142 5.574 8.64C6.095 20.549 5 21.893 5 23.5 5 23.776 5.224 24 5.5 24S6 23.776 6 23.5C6 22.121 7.122 21 8.5 21h7c1.379 0 2.5 1.121 2.5 2.5 0 0.276 0.224 0.5 0.5 0.5s0.5-0.224 0.5-0.5c0-1.607-1.095-2.951-2.574-3.36C19.708 18.642 22 15.337 22 11.5V9h1.5C23.776 9 24 8.776 24 8.5S23.776 8 23.5 8zM21 11.5c0 4.687-3.813 8.5-8.5 8.5h-1c-4.518 0-8.214-3.547-8.475-8H18.5c0.276 0 0.5-0.224 0.5-0.5S18.776 11 18.5 11H3V9h18z" />
</svg>