<svg id="football_Layer_1" viewBox="0 0 24 24" fill="currentColor" width="32" height="32" data-name="Layer 1" xmlns="http://www.w3.org/2000/svg" xmlns:xlink="http://www.w3.org/1999/xlink">
    <title>football</title>
    <path d="M23.89 13.541c7e-3-0.026 9e-3-0.052 0.012-0.079 0.059-0.48 0.098-0.966 0.098-1.463 0-3.286-1.33-6.266-3.477-8.435-0.012-0.012-0.021-0.027-0.034-0.038C18.315 1.349 15.312 0 12 0S5.681 1.351 3.508 3.531c-6e-3 5e-3-0.01 0.013-0.016 0.018C1.335 5.719 0 8.706 0 12c0 0.496 0.04 0.982 0.098 1.463 3e-3 0.027 5e-3 0.052 0.012 0.078 0.669 5.182 4.648 9.332 9.747 10.256 8e-3 0 0.014 7e-3 0.022 7e-3 4e-3 0 8e-3-2e-3 0.012-2e-3 0.686 0.122 1.388 0.197 2.108 0.197s1.422-0.075 2.108-0.197c4e-3 0 8e-3 2e-3 0.012 2e-3 8e-3 0 0.014-7e-3 0.022-7e-3 5.099-0.924 9.078-5.074 9.749-10.256zM22.976 12.49l-3.102-2.187c-0.565-0.398-0.808-1.109-0.604-1.77l1.121-3.63C22.015 6.82 23 9.296 23 11.999c0 0.166-0.018 0.327-0.024 0.491zM15.731 1.665 12.936 3.696c-0.559 0.407-1.312 0.407-1.871 0L8.27 1.665C9.437 1.242 10.69 1 12.001 1s2.564 0.242 3.73 0.665zM3.609 4.904l1.122 3.63c0.204 0.66-0.038 1.372-0.604 1.77l-3.102 2.187C1.018 12.327 1 12.166 1 12.001 1 9.297 1.985 6.822 3.609 4.904zM2.793 18H6.5c0.691 2e-3 1.299 0.446 1.51 1.105l1.122 3.502C6.497 21.893 4.252 20.23 2.793 18zM10.26 22.849 8.962 18.8c-0.345-1.074-1.333-1.797-2.461-1.8H2.214c-0.532-1.037-0.9-2.169-1.079-3.364l3.568-2.515c0.92-0.648 1.315-1.807 0.982-2.882L4.396 4.07c0.821-0.788 1.765-1.445 2.798-1.949l3.282 2.385c0.456 0.331 0.989 0.496 1.523 0.496s1.067-0.166 1.523-0.497l3.282-2.384c1.033 0.505 1.976 1.161 2.797 1.949l-1.288 4.169c-0.333 1.076 0.062 2.234 0.982 2.883l3.568 2.515c-0.179 1.195-0.547 2.327-1.079 3.364h-4.287c-1.127 3e-3-2.115 0.726-2.461 1.8l-1.297 4.048C13.17 22.94 12.592 23 11.998 23s-1.172-0.06-1.738-0.151zM14.87 22.608l1.121-3.502c0.212-0.659 0.819-1.104 1.51-1.105h3.708c-1.458 2.23-3.703 3.894-6.339 4.607zM15.398 14.785l1.067-3.287c0.235-0.725-0.021-1.513-0.637-1.96l-2.797-2.032c-0.615-0.448-1.443-0.449-2.061 0L8.173 9.538c-0.616 0.448-0.872 1.235-0.637 1.96l1.067 3.288c0.235 0.725 0.906 1.211 1.668 1.211h3.457c0.762 0 1.433-0.487 1.67-1.212zM9.556 14.476 8.489 11.188c-0.102-0.311 9e-3-0.65 0.273-0.842l2.797-2.032c0.133-0.096 0.287-0.145 0.442-0.145s0.31 0.048 0.442 0.145l2.797 2.032c0.265 0.192 0.375 0.531 0.273 0.843l-1.067 3.287c-0.102 0.312-0.39 0.521-0.717 0.521h-3.457c-0.327 0-0.615-0.209-0.716-0.521z" />
</svg>