<svg id="footprint_Layer_1" viewBox="0 0 24 24" fill="currentColor" width="32" height="32" data-name="Layer 1" xmlns="http://www.w3.org/2000/svg" xmlns:xlink="http://www.w3.org/1999/xlink">
    <title>footprint</title>
    <path d="M8.479 2.548C8.489 1.068 7.77 0.044 6.691 0 6.636 0 6.572 2e-3 6.524 8e-3 5.59 0.089 4.983 1.011 5.013 2.3 5.043 3.604 5.716 4.949 6.975 5 7.952 4.973 8.471 3.746 8.479 2.548zM6.982 4c-0.574-0.023-0.95-0.912-0.969-1.723C5.999 1.69 6.18 1.041 6.61 1.003L6.665 1c0.65 0.04 0.818 0.985 0.814 1.542C7.474 3.438 7.132 3.995 6.982 4zM12.5 2.319c-4e-3-1.023 0.489-1.661 1.099-1.678 0.611-0.017 1.108 0.594 1.112 1.617s-0.488 1.866-1.099 1.883-1.109-0.798-1.112-1.822zM9.5 1.678C9.496 0.656 9.989 0.017 10.599 0c0.611-0.017 1.108 0.594 1.112 1.617S11.223 3.483 10.612 3.5 9.503 2.702 9.5 1.678zM15.5 3.938c-4e-3-0.877 0.421-1.424 0.946-1.438 0.526-0.015 0.954 0.509 0.958 1.386 3e-3 0.877-0.42 1.599-0.946 1.614S15.503 4.816 15.5 3.938zM19.264 5.923c2e-3 0.584-0.279 1.066-0.628 1.076S18.002 6.543 18 5.958s0.279-0.949 0.628-0.959 0.633 0.339 0.636 0.924zM13.5 5.999c-1.175-0.016-2.376-1.016-3.597-1C8.505 4.999 7 5.853 7 7.727c0.013 2.522 3.522 3.763 3.5 6.272-0.23 1.719-1.571 4.684-1.5 6.5 0 1.897 1.603 3.5 3.5 3.5 1.93 0 3.5-1.507 3.5-3.358v-2.229c-0.035-3.358 1.963-5.794 2-9.015 0-3.398-3.04-3.398-4.5-3.398zM16.1 13.3c-0.541 1.546-1.1 3.144-1.1 5.112v2.229c0 1.301-1.122 2.358-2.5 2.358-1.332 0-2.5-1.168-2.5-2.5 0-1.15 0.501-2.758 0.905-4.049 0.333-1.065 0.595-1.906 0.595-2.451 0-1.667-1.079-2.823-2.03-3.843C8.681 9.311 8 8.581 8 7.726 8 6.451 9.025 5.998 9.903 5.998c1.151 0.061 2.349 1.039 3.597 1 2.27 0 3.5 0.382 3.5 2.398 0 1.329-0.438 2.579-0.9 3.904z" />
</svg>