<svg id="foreign_language_audio_Layer_1" viewBox="0 0 24 24" fill="currentColor" width="32" height="32" data-name="Layer 1" xmlns="http://www.w3.org/2000/svg" xmlns:xlink="http://www.w3.org/1999/xlink">
    <title>foreign-language-audio</title>
    <path d="M11.379 1.015C9.345 1.523 5.904 3.437 4.674 6H3C1.346 6 0 7.346 0 9v6c0 1.654 1.346 3 3 3h1.674c1.23 2.563 4.671 4.477 6.705 4.985C11.419 22.995 11.46 23 11.5 23c0.11 0 0.219-0.037 0.308-0.106C11.929 22.799 12 22.654 12 22.5v-21c0-0.154-0.071-0.299-0.192-0.394s-0.279-0.13-0.429-0.091zM11 21.826c-1.96-0.691-4.722-2.476-5.536-4.511-0.075-0.19-0.26-0.314-0.464-0.314H3c-1.103 0-2-0.897-2-2v-6c0-1.103 0.897-2 2-2h2c0.204 0 0.389-0.125 0.464-0.314C6.278 4.652 9.04 2.867 11 2.176zM24 16.5c0 0.276-0.224 0.5-0.5 0.5-1.758 0-3.267-0.559-4.479-1.592C17.924 16.354 16.456 17 14.5 17c-0.276 0-0.5-0.224-0.5-0.5s0.224-0.5 0.5-0.5c1.652 0 2.876-0.531 3.796-1.302-0.711-0.814-1.291-1.824-1.703-3.037-0.089-0.261 0.052-0.545 0.312-0.634 0.262-0.089 0.545 0.051 0.635 0.313 0.302 0.887 0.763 1.843 1.456 2.659 1.443-1.701 1.853-4.002 1.962-4.998H14.5c-0.276 0-0.5-0.224-0.5-0.5s0.224-0.5 0.5-0.5h4v-1.5c0-0.276 0.224-0.5 0.5-0.5s0.5 0.224 0.5 0.5v1.5h4c0.276 0 0.5 0.224 0.5 0.5s-0.224 0.5-0.5 0.5h-1.521c-0.108 1.462-0.691 3.905-2.264 5.71 0.921 0.767 2.147 1.29 3.786 1.29 0.276 0 0.5 0.224 0.499 0.499z" />
</svg>