<svg id="fork_spaghetti_Layer_1" viewBox="0 0 24 24" fill="currentColor" width="32" height="32" data-name="Layer 1" xmlns="http://www.w3.org/2000/svg" xmlns:xlink="http://www.w3.org/1999/xlink">
    <title>fork-spaghetti</title>
    <path d="M18.302 12.303c0.272-0.154 0.326-0.559 0.102-0.777L9.055 1.89C7.956 0.75 6.177 0.691 4.957 1.801 4.338 2.365 3.993 3.171 4.009 3.987l-0.014 0.5c-7e-3 0.276 0.21 0.506 0.486 0.514 0.273-9e-3 0.506-0.21 0.514-0.486l0.014-0.523C4.998 3.44 5.225 2.911 5.677 2.499c0.769-0.7 1.936-0.663 2.659 0.088l3.22 3.319c-0.914 1.72-0.69 3.797 0.53 5.298L0.142 23.146c-0.195 0.195-0.195 0.512 0 0.707 0.098 0.098 0.226 0.146 0.354 0.146s0.256-0.049 0.354-0.146L12.8 11.902c0.871 0.705 1.93 1.09 3.013 1.09 0.854 0 1.713-0.226 2.489-0.689zM12.298 6.669l2.128 2.193-1.635 1.635c-0.844-1.097-1.035-2.558-0.493-3.828zM13.498 11.205 15.123 9.58l2.086 2.15c-1.242 0.486-2.651 0.287-3.711-0.525z" />
    <path d="M23.496 19.999c-0.276 0-0.5 0.224-0.5 0.5v0.474c0 1.113-0.905 2.021-2.019 2.022-2.248-6e-3-2.498-2.964-1.055-4.215l2.442-2.443c2.164-2.163 2.182-5.7 0.044-7.881l-0.017-0.018 1.457-1.457c0.195-0.195 0.195-0.512 0-0.707s-0.512-0.195-0.707 0l-1.444 1.444-2.312-2.402 1.463-1.463c0.195-0.195 0.195-0.512 0-0.707s-0.512-0.195-0.707 0l-1.449 1.45-2.302-2.392 1.333-1.353c0.193-0.197 0.191-0.514-6e-3-0.708-0.196-0.193-0.513-0.191-0.707 5e-3l-1.675 1.7c-0.19 0.193-0.192 0.502-4e-3 0.698l6.358 6.606c1.76 1.794 1.744 4.7-0.033 6.477l-2.442 2.443c-1.319 1.285-1.758 3.674-0.346 5.051 0.562 0.562 1.31 0.871 2.105 0.871h4e-3c1.663-4e-3 3.017-1.359 3.017-3.022v-0.474c0-0.276-0.224-0.5-0.498-0.499z" />
    <path d="M19.555 10.631c0.442 0.475 1.178-0.232 0.721-0.692L14.22 3.636c-0.443-0.475-1.177 0.232-0.721 0.692z" />
</svg>