<svg id="fork_Layer_1" viewBox="0 0 24 24" fill="currentColor" width="32" height="32" data-name="Layer 1" xmlns="http://www.w3.org/2000/svg" xmlns:xlink="http://www.w3.org/1999/xlink">
    <title>fork</title>
    <path d="M23.854 6.274c-0.195-0.195-0.512-0.195-0.707 0l-4.603 4.603c-1.328 1.327-3.564 1.438-5.042 0.328l7.352-7.352c0.195-0.195 0.195-0.512 0-0.707s-0.512-0.195-0.707 0L12.793 10.5c-0.513-0.666-0.792-1.479-0.792-2.334 0-1.024 0.399-1.987 1.123-2.711l4.602-4.601c0.195-0.195 0.195-0.512 0-0.707s-0.512-0.195-0.707 0L12.416 4.75C11.503 5.663 11 6.877 11 8.168c0 1.122 0.381 2.186 1.081 3.045L0.146 23.146c-0.195 0.195-0.195 0.512 0 0.707 0.098 0.098 0.226 0.146 0.354 0.146s0.256-0.049 0.354-0.146l11.934-11.934c0.859 0.7 1.923 1.081 3.045 1.081 1.291 0 2.505-0.503 3.418-1.416l4.603-4.603c0.195-0.195 0.195-0.512 0-0.707z" />
</svg>