<svg id="fort_Layer_1" viewBox="0 0 24 24" fill="currentColor" width="32" height="32" data-name="Layer 1" xmlns="http://www.w3.org/2000/svg" xmlns:xlink="http://www.w3.org/1999/xlink">
    <title>fort</title>
    <path d="M23.5 0C23.224 0 23 0.224 23 0.5V2h-3V0.5C20 0.224 19.776 0 19.5 0S19 0.224 19 0.5V2h-3V0.5C16 0.224 15.776 0 15.5 0S15 0.224 15 0.5v4c0 1.208 0.86 2.218 2 2.45V11H7V6.95C8.14 6.718 9 5.708 9 4.5v-4C9 0.224 8.776 0 8.5 0S8 0.224 8 0.5V2H5V0.5C5 0.224 4.776 0 4.5 0S4 0.224 4 0.5V2H1V0.5C1 0.224 0.776 0 0.5 0S0 0.224 0 0.5v4c0 1.208 0.86 2.218 2 2.45V20.5C2 22.43 3.57 24 5.5 24h13c1.93 0 3.5-1.57 3.5-3.5V6.95c1.14-0.232 2-1.242 2-2.45v-4C24 0.224 23.776 0 23.5 0zM17 12v11h-2v-5c0-1.654-1.346-3-3-3s-3 1.346-3 3v5H7V12zM14 23h-4v-5c0-1.103 0.897-2 2-2s2 0.897 2 2zM1 4.5V3h7v1.5C8 5.327 7.327 6 6.5 6h-4C1.673 6 1 5.327 1 4.5zM3 20.5V7h3v16H5.5C4.121 23 3 21.879 3 20.5zM18.5 23H18V7h3v13.5c0 1.379-1.121 2.5-2.5 2.5zM21.5 6h-4C16.673 6 16 5.327 16 4.5V3h7v1.5C23 5.327 22.327 6 21.5 6z" />
</svg>