<svg id="fox_Layer_1" viewBox="0 0 24 24" fill="currentColor" width="32" height="32" data-name="Layer 1" xmlns="http://www.w3.org/2000/svg" xmlns:xlink="http://www.w3.org/1999/xlink">
    <title>fox</title>
    <path d="M23.105 0.344c-0.545-0.365-1.228-0.438-1.825-0.193-1.273 0.519-2.108 1.944-2.758 3.27-0.229 0.468-0.71 0.706-1.184 0.571C16.115 3.642 13.871 3 11.999 3S7.884 3.642 6.66 3.992C6.194 4.126 5.706 3.89 5.477 3.421 4.829 2.095 3.994 0.67 2.72 0.151 2.12-0.094 1.437-0.021 0.892 0.344 0.333 0.719 0 1.344 0 2.014v7.938c0 2.803 1.092 5.439 3.075 7.422l5.002 5.001C9.125 23.423 10.518 24 12 24s2.876-0.577 3.923-1.625l5.002-5.001C22.908 15.391 24 12.753 24 9.949V2.018c0-0.671-0.334-1.297-0.895-1.674zM8.784 21.668 3.782 16.667C1.988 14.873 1 12.487 1 9.952v-0.82c0.659 0.177 1.786 0.551 3 1.269v0.6c0 0 0.47 2.763 3.613 2.979C8.44 15.4 9 17.201 9 19.501v1.5c0 0.351 0.072 0.683 0.183 0.996-0.134-0.107-0.275-0.204-0.399-0.329zM14 21c0 1.103-0.897 2-2 2s-2-0.897-2-2v-0.271C10.301 20.491 11.039 20 12 20s1.7 0.491 2 0.729zM23 9.949c0 2.538-0.988 4.923-2.782 6.718l-5.002 5.001c-0.123 0.123-0.264 0.221-0.399 0.328C14.928 21.683 15 21.351 15 21v-1.5c0-2.3 0.56-4.101 1.387-5.521C19.53 13.763 20 11 20 11v-0.6c1.214-0.719 2.341-1.092 3-1.269zM23 8.104c-1.809 0.466-9 2.893-9 11.431C13.506 19.262 12.822 19 12 19s-1.506 0.262-2 0.535C10 10.997 2.809 8.57 1 8.104v-6.09c0-0.336 0.168-0.65 0.45-0.84 0.166-0.111 0.351-0.167 0.537-0.167 0.12 0 0.24 0.023 0.355 0.07 0.962 0.393 1.671 1.627 2.237 2.784 0.439 0.896 1.431 1.355 2.355 1.093C8.107 4.618 10.267 4 11.999 4s3.893 0.618 5.065 0.954c0.927 0.263 1.916-0.197 2.355-1.093 0.566-1.156 1.274-2.392 2.236-2.784 0.296-0.12 0.62-0.084 0.891 0.098 0.283 0.19 0.452 0.506 0.452 0.844z" />
</svg>