<svg id="franc_sign_Layer_1" viewBox="0 0 24 24" fill="currentColor" width="32" height="32" data-name="Layer 1" xmlns="http://www.w3.org/2000/svg" xmlns:xlink="http://www.w3.org/1999/xlink">
    <title>franc-sign</title>
    <path d="M22 0.5C22 0.78 21.78 1 21.5 1h-12C7.57 1 6 2.57 6 4.5V11h11.5c0.28 0 0.5 0.22 0.5 0.5S17.78 12 17.5 12H6v5h6.5c0.28 0 0.5 0.22 0.5 0.5S12.78 18 12.5 18H6v5.5C6 23.78 5.78 24 5.5 24S5 23.78 5 23.5V18H0.5C0.22 18 0 17.78 0 17.5S0.22 17 0.5 17H5V4.5C5 2.02 7.02 0 9.5 0h12C21.78 0 22 0.22 22 0.5z" />
</svg>