<svg id="france_country_code_Layer_1" viewBox="0 0 24 24" fill="currentColor" width="32" height="32" data-name="Layer 1" xmlns="http://www.w3.org/2000/svg" xmlns:xlink="http://www.w3.org/1999/xlink">
    <title>france-country-code</title>
    <path d="M19.5 3h-15C2.019 3 0 5.019 0 7.5v9C0 18.981 2.019 21 4.5 21h15c2.481 0 4.5-2.019 4.5-4.5v-9C24 5.019 21.981 3 19.5 3zM23 16.5c0 1.93-1.57 3.5-3.5 3.5h-15C2.57 20 1 18.43 1 16.5v-9C1 5.57 2.57 4 4.5 4h15C21.43 4 23 5.57 23 7.5zM17 10.5C17 9.121 15.878 8 14.5 8H13c-0.551 0-1 0.448-1 1v6.5c0 0.276 0.224 0.5 0.5 0.5s0.5-0.224 0.5-0.5V13h1.5c0.212 0 0.415-0.035 0.612-0.085l0.914 2.743c0.087 0.264 0.377 0.403 0.632 0.316 0.262-0.088 0.403-0.371 0.316-0.633l-0.956-2.869C16.611 12.015 17 11.305 17 10.5zM13 12V9h1.5c0.827 0 1.5 0.673 1.5 1.5S15.327 12 14.5 12zM8 9v2.5h2.5c0.276 0 0.5 0.224 0.5 0.5s-0.224 0.5-0.5 0.5H8v3C8 15.776 7.776 16 7.5 16S7 15.776 7 15.5V9c0-0.552 0.449-1 1-1h2.5C10.776 8 11 8.224 11 8.5S10.776 9 10.5 9z" />
</svg>