<svg id="free_delivery_Layer_1" viewBox="0 0 24 24" fill="currentColor" width="32" height="32" data-name="Layer 1" xmlns="http://www.w3.org/2000/svg" xmlns:xlink="http://www.w3.org/1999/xlink">
    <title>free-delivery</title>
    <path d="M23.667 10.418 22.658 7.394C22.18 5.962 20.846 5 19.338 5H16.95c-0.252-2.244-2.139-4-4.449-4H4.5C2.445 1 0.653 2.388 0.142 4.375 0.074 4.643 0.234 4.915 0.501 4.984 0.772 5.052 1.041 4.891 1.11 4.625 1.507 3.079 2.902 2 4.5 2h8C14.43 2 16 3.57 16 5.5V18H3.5C2.121 18 1 16.879 1 15.5 1 15.224 0.776 15 0.5 15S0 15.224 0 15.5c0 1.391 0.822 2.585 2 3.149V20c0 1.654 1.346 3 3 3s3-1.346 3-3v-1h8v1c0 1.654 1.346 3 3 3s3-1.346 3-3v-1.351c1.178-0.564 2-1.758 2-3.149v-3.026c0-0.7-0.112-1.393-0.333-2.056zM21.709 7.71l1.009 3.024c0.029 0.087 0.041 0.178 0.065 0.266H17V6h2.338c1.078 0 2.03 0.688 2.371 1.71zM7 20c0 1.103-0.897 2-2 2s-2-0.897-2-2v-1.051C3.165 18.973 3.329 19 3.5 19H7zM21 20c0 1.103-0.897 2-2 2s-2-0.897-2-2v-1h3.5c0.171 0 0.335-0.027 0.5-0.051zM23 15.5c0 1.379-1.121 2.5-2.5 2.5H17v-6h5.962C22.976 12.158 23 12.314 23 12.474zM9 8v1.5h1c0.276 0 0.5 0.224 0.5 0.5s-0.224 0.5-0.5 0.5H9V12h1c0.276 0 0.5 0.224 0.5 0.5S10.276 13 10 13H9c-0.552 0-1-0.448-1-1V8c0-0.552 0.448-1 1-1h1c0.276 0 0.5 0.224 0.5 0.5S10.276 8 10 8zM12.5 8v1.5h1c0.276 0 0.5 0.224 0.5 0.5s-0.224 0.5-0.5 0.5h-1V12h1c0.276 0 0.5 0.224 0.5 0.5S13.776 13 13.5 13h-1c-0.552 0-1-0.448-1-1V8c0-0.552 0.448-1 1-1h1C13.776 7 14 7.224 14 7.5S13.776 8 13.5 8zM7 9c0-1.084-0.896-2-1.958-2H4.5c-0.552 0-1 0.448-1 1v4.5C3.5 12.776 3.724 13 4 13s0.5-0.224 0.5-0.5V11h0.542c0.113 0 0.223-0.015 0.331-0.035l0.66 1.715C6.109 12.878 6.299 13 6.5 13c0.06 0 0.12-0.011 0.18-0.033 0.258-0.1 0.386-0.389 0.287-0.646l-0.69-1.793C6.712 10.158 7 9.609 7 9zM4.5 10V8h0.542C5.562 8 6 8.458 6 9s-0.438 1-0.958 1zM0 12.5V8c0-0.552 0.448-1 1-1h1c0.276 0 0.5 0.224 0.5 0.5S2.276 8 2 8H1v1.5h1c0.276 0 0.5 0.224 0.5 0.5S2.276 10.5 2 10.5H1v2C1 12.776 0.776 13 0.5 13S0 12.776 0 12.5z" />
</svg>