<svg id="free_Layer_1" viewBox="0 0 24 24" fill="currentColor" width="32" height="32" data-name="Layer 1" xmlns="http://www.w3.org/2000/svg" xmlns:xlink="http://www.w3.org/1999/xlink">
    <title>free</title>
    <path d="M19.5 3h-15C2.019 3 0 5.019 0 7.5v9C0 18.981 2.019 21 4.5 21h15c2.481 0 4.5-2.019 4.5-4.5v-9C24 5.019 21.981 3 19.5 3zM23 16.5c0 1.93-1.57 3.5-3.5 3.5h-15C2.57 20 1 18.43 1 16.5v-9C1 5.57 2.57 4 4.5 4h15C21.43 4 23 5.57 23 7.5zM18 9v2.5h1.5c0.276 0 0.5 0.224 0.5 0.5s-0.224 0.5-0.5 0.5H18V15h1.5c0.276 0 0.5 0.224 0.5 0.5S19.776 16 19.5 16H18c-0.552 0-1-0.448-1-1V9c0-0.552 0.448-1 1-1h1.5C19.776 8 20 8.224 20 8.5S19.776 9 19.5 9zM14 9v2.5h1.5c0.276 0 0.5 0.224 0.5 0.5s-0.224 0.5-0.5 0.5H14V15h1.5c0.276 0 0.5 0.224 0.5 0.5S15.776 16 15.5 16H14c-0.552 0-1-0.448-1-1V9c0-0.552 0.448-1 1-1h1.5C15.776 8 16 8.224 16 8.5S15.776 9 15.5 9zM12.346 10.5c0-1.379-1.122-2.5-2.5-2.5H9C8.449 8 8 8.448 8 9v6.5C8 15.776 8.224 16 8.5 16S9 15.776 9 15.5V13h0.846c0.107 0 0.208-0.018 0.311-0.031l1.178 2.73c0.082 0.188 0.266 0.302 0.459 0.302 0.066 0 0.134-0.013 0.198-0.041 0.253-0.109 0.37-0.403 0.261-0.657l-1.146-2.656c0.737-0.435 1.239-1.229 1.239-2.147zM9.846 12H9V9h0.846c0.827 0 1.5 0.673 1.5 1.5s-0.673 1.5-1.5 1.5zM5 9v2.5h1.5C6.776 11.5 7 11.724 7 12s-0.224 0.5-0.5 0.5H5v3C5 15.776 4.776 16 4.5 16S4 15.776 4 15.5V9c0-0.552 0.449-1 1-1h1.5C6.776 8 7 8.224 7 8.5S6.776 9 6.5 9z" />
</svg>