<svg id="freemium_Layer_1" viewBox="0 0 24 24" fill="currentColor" width="32" height="32" data-name="Layer 1" xmlns="http://www.w3.org/2000/svg" xmlns:xlink="http://www.w3.org/1999/xlink">
    <title>freemium</title>
    <path d="M12.5 13H12V8.96c0.017-0.813-1.074-1.181-1.565-0.502L9.471 9.785 8.314 8.423C7.862 7.979 7.1 8.014 6.585 8.532L5.525 9.79C5.063 9.176 4.557 8.509 4.411 8.323 3.935 7.805 2.957 8.281 3 8.977v4.024H2.5c-1.379 0-2.5 1.122-2.5 2.5v5c0 1.93 1.57 3.5 3.5 3.5h8c1.93 0 3.5-1.57 3.5-3.5v-5c0-1.378-1.121-2.5-2.5-2.501zM4 9.429c0.223 0.293 1.104 1.463 1.104 1.463 0.186 0.256 0.563 0.258 0.782 0.022l1.437-1.708C7.439 9.09 7.578 9.099 7.582 9.102l1.538 1.814c0.199 0.256 0.605 0.227 0.786-0.029l1.095-1.507V13H4zM8 14v9H7v-9zM1 20.5v-5C1 14.673 1.673 14 2.5 14H6v9H3.5C2.121 23 1 21.878 1 20.5zM14 20.5c0 1.378-1.121 2.5-2.5 2.5H9v-9h3.5c0.827 0 1.5 0.673 1.5 1.5zM17.745 13.424c0.342 0.743 1.31 1.066 2.031 0.679l0.831-0.425c1.464-0.707 2.083-2.473 1.378-3.945l-0.462-0.941c0.233 0.112 0.479 0.19 0.741 0.19 0.523 0 1.022-0.234 1.35-0.641 0.604-0.742 0.493-1.839-0.25-2.444-0.639-0.521-1.435-0.666-2.144-0.672 0.467-0.628 0.866-1.424 0.791-2.309-0.057-0.961-0.981-1.74-1.936-1.637-0.781 0.065-1.397 0.628-1.58 1.348l-0.448-0.913c-0.706-1.469-2.476-2.09-3.955-1.38l-0.87 0.445c-0.722 0.369-1.021 1.263-0.665 1.992zM22.838 7.711c-0.245 0.313-0.733 0.363-1.037 0.106-0.259-0.21-0.833-0.917-1.319-1.548 0.652-0.096 1.608-0.117 2.25 0.405 0.315 0.257 0.363 0.722 0.106 1.037zM20.157 2.276C20.58 2.233 20.987 2.573 21.013 3c0.074 0.884-0.6 1.729-1.119 2.241-0.193-0.753-0.428-1.724-0.46-2.109-0.036-0.436 0.288-0.819 0.723-0.856zM13.676 1.671l0.859-0.439c0.952-0.463 2.141-0.064 2.61 0.921l3.939 8.019c0.467 0.972 0.055 2.143-0.917 2.609-3e-3 2e-3-7e-3 3e-3-0.011 5e-3l-0.836 0.427c-0.242 0.13-0.563 0.021-0.678-0.227L13.454 2.335c-0.118-0.243-0.019-0.542 0.222-0.664zM7 4.424c4e-3-0.215 0.146-0.404 0.351-0.468l1.256-0.393 0.419-1.257c0.136-0.408 0.812-0.408 0.948 0l0.421 1.263 1.263 0.421c0.447 0.132 0.447 0.816 0 0.948l-1.263 0.421-0.421 1.263c-0.132 0.447-0.816 0.447-0.948 0L8.603 5.353 7.333 4.904C7.13 4.832 6.996 4.639 7 4.424zM0 2.424C4e-3 2.209 0.146 2.02 0.351 1.956l1.256-0.393 0.419-1.257c0.136-0.408 0.812-0.408 0.948 0l0.421 1.263 1.263 0.421c0.447 0.132 0.447 0.816 0 0.948L3.395 3.359 2.974 4.622c-0.132 0.447-0.816 0.447-0.948 0L1.603 3.353 0.333 2.904C0.13 2.833-4e-3 2.64 0 2.424zM23.686 19.536l-1.943-0.777-0.778-1.944c-0.15-0.38-0.777-0.38-0.928 0l-0.776 1.939-1.937 0.733c-0.415 0.142-0.427 0.772-0.018 0.929l1.95 0.822 0.78 1.949c0.148 0.412 0.78 0.412 0.928 0l0.778-1.944 1.943-0.777c0.412-0.149 0.412-0.78 1e-3-0.93zM21.172 20.393c-0.127 0.051-0.228 0.151-0.278 0.279L20.5 21.654l-0.394-0.982c-0.049-0.125-0.146-0.223-0.27-0.275l-0.99-0.417 0.973-0.368c0.131-0.05 0.235-0.152 0.287-0.282l0.394-0.982 0.394 0.982c0.051 0.127 0.151 0.228 0.278 0.279l0.981 0.393z" />
</svg>