<svg id="french_fries_Layer_1" viewBox="0 0 24 24" fill="currentColor" width="32" height="32" data-name="Layer 1" xmlns="http://www.w3.org/2000/svg" xmlns:xlink="http://www.w3.org/1999/xlink">
    <title>french-fries</title>
    <path d="M23.439 11.923c-0.388-0.477-0.929-0.789-1.524-0.888l0.946-2.726c0.444-1.306-0.256-2.73-1.562-3.174-0.578-0.197-1.192-0.172-1.736 0.045l0.4-2.263c0.113-0.659-0.038-1.322-0.425-1.867-0.386-0.545-0.962-0.907-1.621-1.02-1.358-0.233-2.652 0.684-2.883 2.028l-0.195 0.979c-0.402-1.183-1.523-2.036-2.84-2.036S9.556 1.859 9.156 3.046L8.962 2.071c-0.233-1.358-1.53-2.277-2.885-2.042C4.717 0.261 3.8 1.556 4.032 2.916v0 3e-3l0.4 2.26C3.889 4.961 3.275 4.937 2.696 5.135 2.064 5.35 1.552 5.799 1.258 6.398c-0.295 0.6-0.339 1.278-0.123 1.914l0.945 2.724c-0.594 0.1-1.132 0.412-1.52 0.888-0.476 0.585-0.661 1.346-0.506 2.086l1.335 6.408C1.821 22.494 3.674 24 5.794 24h12.413c2.12 0 3.973-1.506 4.405-3.582l1.335-6.408c0.154-0.74-0.031-1.5-0.508-2.087zM19.321 6.551c0.404-0.451 1.086-0.664 1.656-0.47 0.38 0.129 0.687 0.398 0.863 0.758 0.177 0.36 0.204 0.768 0.076 1.144L20.869 11h-2.335zM15 7.356 16.018 2.24c0.141-0.814 0.921-1.361 1.733-1.225 0.816 0.14 1.367 0.917 1.228 1.73L17.518 11H15zM10 4c0-1.103 0.897-2 2-2s2 0.897 2 2v7h-4zM6.245 1.015C7.063 0.88 7.837 1.426 7.98 2.253L9 7.379v3.622H6.477l-1.46-8.254C4.878 1.931 5.429 1.154 6.245 1.015zM2.155 6.839C2.332 6.479 2.639 6.21 3.019 6.08 3.591 5.886 4.271 6.099 4.675 6.551l0.787 4.448H3.127L2.081 7.985C1.952 7.606 1.978 7.198 2.155 6.839zM22.968 13.805l-1.335 6.408c-0.336 1.614-1.777 2.786-3.426 2.786H5.793c-1.649 0-3.09-1.172-3.426-2.786l-1.335-6.408c-0.092-0.444 0.019-0.9 0.305-1.252s0.71-0.554 1.164-0.554H21.5c0.454 0 0.877 0.202 1.164 0.554 0.286 0.352 0.397 0.808 0.304 1.252z" />
</svg>