<svg id="french_Layer_1" viewBox="0 0 24 24" fill="currentColor" width="32" height="32" data-name="Layer 1" xmlns="http://www.w3.org/2000/svg" xmlns:xlink="http://www.w3.org/1999/xlink">
    <title>french</title>
    <path d="M10.5 12c0.276 0 0.5-0.224 0.5-0.5v-2h1.25c0.086 0 0.167-0.016 0.251-0.025l0.799 2.196C13.374 11.874 13.566 12 13.77 12c0.057 0 0.114-0.01 0.171-0.03 0.26-0.094 0.394-0.381 0.299-0.641l-0.794-2.181C14.077 8.749 14.5 8.05 14.5 7.25 14.5 6.009 13.49 5 12.25 5H11c-0.552 0-1 0.449-1 1v5.5c0 0.276 0.224 0.5 0.5 0.5zM11 6h1.25c0.689 0 1.25 0.561 1.25 1.25S12.939 8.5 12.25 8.5H11zM6 9v2.5C6 11.776 5.776 12 5.5 12S5 11.776 5 11.5V6c0-0.551 0.448-1 1-1h2c0.276 0 0.5 0.224 0.5 0.5S8.276 6 8 6H6v2h2c0.276 0 0.5 0.224 0.5 0.5S8.276 9 8 9zM19.5 4h-0.551C18.697 1.756 16.81 0 14.5 0h-10C2.019 0 0 2.019 0 4.5v13.855c-0.041 1.276 1.522 2.113 2.562 1.371l3.526-2.351C6.497 19.438 8.318 21 10.5 21h6.849l4.089 2.726c1.04 0.742 2.604-0.095 2.562-1.371V8.5C24 6.019 21.981 4 19.5 4zM2.008 18.894C1.601 19.187 0.982 18.858 1 18.355V4.5C1 2.57 2.57 1 4.5 1h10C16.43 1 18 2.57 18 4.5v8c0 1.93-1.57 3.5-3.5 3.5h-8c-0.105-4e-3-0.189 0.05-0.277 0.084zM23 22.355c0.019 0.504-0.601 0.831-1.008 0.539l-4.215-2.81C17.695 20.029 17.598 20 17.5 20h-7c-1.758 0-3.204-1.308-3.449-3H14.5c2.481 0 4.5-2.019 4.5-4.5V5h0.5C21.43 5 23 6.57 23 8.5z" />
</svg>