<svg id="friday_Layer_1" viewBox="0 0 24 24" fill="currentColor" width="32" height="32" data-name="Layer 1" xmlns="http://www.w3.org/2000/svg" xmlns:xlink="http://www.w3.org/1999/xlink">
    <title>friday</title>
    <path d="M24 16.5v7c0 0.276-0.224 0.5-0.5 0.5S23 23.776 23 23.5v-7c0-0.276 0.224-0.5 0.5-0.5s0.5 0.224 0.5 0.5zM14.5 17c0.276 0 0.5-0.224 0.5-0.5S14.776 16 14.5 16H12c-0.551 0-1 0.448-1 1v6.5c0 0.276 0.224 0.5 0.5 0.5s0.5-0.224 0.5-0.5V21h2.5c0.276 0 0.5-0.224 0.5-0.5S14.776 20 14.5 20H12v-3zM20.467 20.663l0.819 2.691c0.08 0.265-0.069 0.544-0.333 0.624-0.048 0.015-0.098 0.021-0.146 0.021-0.214 0-0.413-0.139-0.479-0.354l-0.813-2.674c-0.092 0.01-0.183 0.028-0.278 0.028h-1.5v2.5c0 0.276-0.224 0.5-0.5 0.5s-0.5-0.224-0.5-0.5v-6.5c0-0.552 0.449-1 1-1h1.5c1.378 0 2.5 1.121 2.5 2.5 0 0.93-0.516 1.733-1.27 2.164zM20.737 18.5c0-0.827-0.673-1.5-1.5-1.5h-1.5v3h1.5c0.827 0 1.5-0.673 1.5-1.5zM23.999 6.5v7c0 0.276-0.224 0.5-0.5 0.5s-0.5-0.224-0.5-0.5V9H1v10.5C1 21.43 2.57 23 4.5 23h4C8.776 23 9 23.224 9 23.5S8.776 24 8.5 24h-4C2.019 24 0 21.981 0 19.5v-13C0 4.019 2.019 2 4.5 2H6V0.5C6 0.224 6.224 0 6.5 0S7 0.224 7 0.5V2h10V0.5C17 0.224 17.224 0 17.5 0S18 0.224 18 0.5V2h1.5c2.481 0 4.5 2.019 4.499 4.5zM22.999 8V6.5c0-1.93-1.57-3.5-3.5-3.5H4.5C2.57 3 1 4.57 1 6.5V8z" />
</svg>