<svg id="ftp_Layer_1" viewBox="0 0 24 24" fill="currentColor" width="32" height="32" data-name="Layer 1" xmlns="http://www.w3.org/2000/svg" xmlns:xlink="http://www.w3.org/1999/xlink">
    <title>ftp</title>
    <path d="M23.5 21h-9.051c-0.199-0.978-0.971-1.75-1.949-1.949V15h5c1.93 0 3.5-1.57 3.5-3.5v-6C21 3.57 19.43 2 17.5 2h-4.879c-0.305 0-0.599-0.091-0.849-0.264v0c0 0-1.885-1.296-1.885-1.296C9.469 0.152 8.979 0 8.47 0H6.5C4.57 0 3 1.57 3 3.5v8C3 13.43 4.57 15 6.5 15h5v4.051C10.522 19.25 9.75 20.022 9.551 21H0.5C0.224 21 0 21.224 0 21.5S0.224 22 0.5 22h9.051c0.232 1.14 1.242 2 2.449 2s2.217-0.86 2.449-2H23.5c0.276 0 0.5-0.224 0.5-0.5S23.776 21 23.5 21zM6.5 1h1.97c0.305 0 0.599 0.091 0.85 0.264l1.885 1.296C11.623 2.848 12.113 3 12.621 3H17.5C18.878 3 20 4.122 20 5.5V6H4V3.5C4 2.122 5.122 1 6.5 1zM4 11.5V7h16v4.5c0 1.378-1.122 2.5-2.5 2.5h-11C5.122 14 4 12.878 4 11.5zM12 23c-0.827 0-1.5-0.673-1.5-1.5S11.173 20 12 20s1.5 0.673 1.5 1.5S12.827 23 12 23z" />
</svg>