<svg id="fuel_gauge_Layer_1" viewBox="0 0 24 24" fill="currentColor" width="32" height="32" data-name="Layer 1" xmlns="http://www.w3.org/2000/svg" xmlns:xlink="http://www.w3.org/1999/xlink">
    <title>fuel-gauge</title>
    <path d="M0.515 7.649c-0.446-0.599-0.613-1.35-0.466-2.07 0.142-0.695 0.568-1.298 1.173-1.652C4.478 2.012 8.204 1 12 1s7.518 1.011 10.772 2.924c0.604 0.354 1.032 0.958 1.173 1.655 0.146 0.722-0.022 1.473-0.463 2.062l-1.156 1.484c-0.099 0.126-0.246 0.192-0.395 0.192-0.107 0-0.216-0.034-0.308-0.105-0.218-0.17-0.257-0.484-0.087-0.702l1.15-1.476c0.264-0.354 0.367-0.815 0.278-1.258-0.086-0.425-0.335-0.777-0.699-0.992-2.958-1.738-6.325-2.684-9.767-2.769v3.483c0 0.276-0.224 0.5-0.5 0.5s-0.5-0.224-0.5-0.5V2.015C8.054 2.1 4.685 3.047 1.727 4.786 1.362 5.001 1.114 5.352 1.028 5.776 0.938 6.218 1.04 6.679 1.308 7.041l1.151 1.467c0.17 0.217 0.133 0.531-0.085 0.702-0.217 0.169-0.531 0.134-0.702-0.085zM19.814 11.11c0.215 0.173 0.249 0.487 0.076 0.703l-5.72 7.125c0.512 0.538 0.831 1.262 0.831 2.061 0 1.654-1.346 3-3 3s-3-1.346-3-3 1.346-3 3-3c0.494 0 0.953 0.131 1.365 0.344l5.746-7.157c0.174-0.213 0.487-0.249 0.702-0.076zM14.001 21c0-1.103-0.897-2-2-2s-2 0.897-2 2 0.897 2 2 2 2-0.897 2-2zM1.5 16h2C3.776 16 4 15.776 4 15.5S3.776 15 3.5 15h-2C0.673 15 0 15.673 0 16.5v5C0 22.327 0.673 23 1.5 23h2C3.776 23 4 22.776 4 22.5S3.776 22 3.5 22h-2C1.225 22 1 21.775 1 21.5v-2h2.5C3.776 19.5 4 19.276 4 19s-0.224-0.5-0.5-0.5H1v-2C1 16.225 1.225 16 1.5 16zM23.5 18.5H21v-2c0-0.275 0.225-0.5 0.5-0.5h2c0.276 0 0.5-0.224 0.5-0.5S23.776 15 23.5 15h-2c-0.827 0-1.5 0.673-1.5 1.5v6c0 0.276 0.224 0.5 0.5 0.5s0.5-0.224 0.5-0.5v-3h2.5c0.276 0 0.5-0.224 0.5-0.5s-0.224-0.5-0.5-0.5z" />
</svg>