<svg id="function_Layer_1" viewBox="0 0 24 24" fill="currentColor" width="32" height="32" data-name="Layer 1" xmlns="http://www.w3.org/2000/svg" xmlns:xlink="http://www.w3.org/1999/xlink">
    <title>function</title>
    <path d="M13 11.5c0 0.276-0.224 0.5-0.5 0.5h-2.492L8.57 20.271C8.194 22.431 6.329 24 4.136 24H3.5C3.224 24 3 23.776 3 23.5S3.224 23 3.5 23h0.636c1.706 0 3.156-1.22 3.448-2.9L8.992 12H6.5C6.224 12 6 11.776 6 11.5S6.224 11 6.5 11h2.666l1.264-7.271C10.806 1.569 12.671 0 14.864 0H15.5C15.776 0 16 0.224 16 0.5S15.776 1 15.5 1h-0.636c-1.706 0-3.156 1.22-3.448 2.9L10.182 11H12.5c0.276 0 0.5 0.224 0.5 0.5zM18.125 19.5 20.9 15.8c0.166-0.221 0.121-0.534-0.1-0.7-0.22-0.165-0.533-0.12-0.7 0.101l-2.6 3.467-2.6-3.467c-0.166-0.222-0.48-0.267-0.7-0.101-0.221 0.166-0.266 0.479-0.1 0.7l2.775 3.7-2.775 3.7c-0.166 0.221-0.121 0.534 0.1 0.7 0.09 0.067 0.195 0.1 0.299 0.1 0.152 0 0.302-0.069 0.4-0.2l2.6-3.467 2.6 3.467c0.098 0.131 0.248 0.2 0.4 0.2 0.104 0 0.209-0.032 0.299-0.1 0.221-0.166 0.266-0.479 0.1-0.7z" />
</svg>