<svg id="function_process_Layer_1" viewBox="0 0 24 24" fill="currentColor" width="32" height="32" data-name="Layer 1" xmlns="http://www.w3.org/2000/svg" xmlns:xlink="http://www.w3.org/1999/xlink">
    <title>function-process</title>
    <path d="M21 9c-0.086 0-0.168 0.018-0.252 0.026L18.77 5.41C19.512 4.863 20 3.991 20 3.001c0-1.654-1.346-3-3-3-1.483 0-2.71 1.084-2.949 2.5H9.95c-0.24-1.416-1.466-2.5-2.949-2.5-1.654 0-3 1.346-3 3 0 0.99 0.488 1.863 1.23 2.409L3.253 9.026C3.168 9.019 3.087 9 3.001 9c-1.654 0-3 1.346-3 3s1.346 3 3 3c0.084 0 0.163-0.018 0.245-0.025l1.984 3.616C4.488 19.138 4 20.01 4 21c0 1.654 1.346 3 3 3 1.483 0 2.71-1.084 2.949-2.5h4.101c0.24 1.416 1.466 2.5 2.949 2.5 1.654 0 3-1.346 3-3 0-0.998-0.495-1.878-1.247-2.424l2.001-3.601C20.836 14.982 20.915 15 20.999 15c1.654 0 3-1.346 3-3S22.653 9 21 9zM17 1c1.103 0 2 0.897 2 2s-0.897 2-2 2-2-0.897-2-2 0.897-2 2-2zM7 1c1.103 0 2 0.897 2 2S8.103 5 7 5 5 4.103 5 3 5.897 1 7 1zM1 12c0-1.103 0.897-2 2-2s2 0.897 2 2-0.897 2-2 2-2-0.897-2-2zM7 23c-1.103 0-2-0.897-2-2s0.897-2 2-2 2 0.897 2 2-0.897 2-2 2zM17 23c-1.103 0-2-0.897-2-2s0.897-2 2-2 2 0.897 2 2-0.897 2-2 2zM17.851 18.138C17.579 18.057 17.297 18 17 18c-1.483 0-2.71 1.084-2.949 2.5H9.95C9.71 19.084 8.484 18 7.001 18c-0.306 0-0.596 0.06-0.874 0.145L4.248 14.72c1.032-0.475 1.754-1.512 1.754-2.721s-0.72-2.242-1.749-2.718l1.874-3.427C6.406 5.94 6.695 5.999 7.001 5.999c1.483 0 2.71-1.084 2.949-2.5h4.101c0.24 1.416 1.466 2.5 2.949 2.5 0.306 0 0.596-0.06 0.874-0.145l1.874 3.427c-1.029 0.476-1.749 1.512-1.749 2.718s0.721 2.243 1.751 2.719zM21 14c-1.103 0-2-0.897-2-2s0.897-2 2-2 2 0.897 2 2-0.897 2-2 2zM12 10c-1.103 0-2 0.897-2 2s0.897 2 2 2 2-0.897 2-2-0.897-2-2-2zM12 13c-0.552 0-1-0.449-1-1s0.448-1 1-1 1 0.449 1 1-0.448 1-1 1zM16.896 10.333c0.099-0.388 0.041-0.792-0.163-1.135-0.422-0.711-1.344-0.948-2.056-0.526l-0.261 0.155c-0.279-0.212-0.585-0.385-0.916-0.518V8.001c0-0.827-0.673-1.5-1.5-1.5s-1.5 0.673-1.5 1.5v0.308c-0.331 0.133-0.637 0.306-0.916 0.518L9.323 8.672C8.611 8.25 7.689 8.487 7.268 9.198 7.063 9.542 7.005 9.946 7.104 10.334c0.1 0.389 0.344 0.715 0.689 0.92l0.258 0.152c-0.035 0.208-0.052 0.402-0.052 0.595s0.017 0.388 0.052 0.595l-0.258 0.152c-0.345 0.204-0.59 0.531-0.689 0.919-0.099 0.389-0.041 0.792 0.163 1.136 0.204 0.345 0.53 0.59 0.919 0.689 0.389 0.098 0.792 0.04 1.137-0.163l0.261-0.154c0.279 0.211 0.585 0.385 0.916 0.518v0.308c0 0.827 0.673 1.5 1.5 1.5s1.5-0.673 1.5-1.5v-0.308c0.331-0.133 0.637-0.307 0.916-0.518l0.261 0.153c0.345 0.205 0.749 0.262 1.137 0.164 0.389-0.1 0.715-0.345 0.918-0.688 0.205-0.345 0.263-0.748 0.164-1.137-0.1-0.389-0.345-0.715-0.689-0.919l-0.258-0.152c0.035-0.208 0.052-0.402 0.052-0.595s-0.017-0.388-0.052-0.595l0.258-0.152c0.346-0.205 0.59-0.531 0.689-0.921zM15 12c0 0.22-0.031 0.449-0.1 0.723-0.053 0.214 0.041 0.438 0.23 0.551l0.565 0.335c0.115 0.067 0.197 0.177 0.23 0.306 0.032 0.13 0.014 0.264-0.056 0.379-0.067 0.115-0.177 0.197-0.306 0.23-0.13 0.03-0.265 0.013-0.379-0.056l-0.564-0.334c-0.189-0.112-0.431-0.087-0.594 0.062-0.331 0.306-0.726 0.528-1.173 0.663-0.211 0.063-0.355 0.258-0.355 0.479V16c0 0.275-0.225 0.5-0.5 0.5s-0.5-0.225-0.5-0.5v-0.662c0-0.221-0.145-0.415-0.355-0.479-0.447-0.135-0.842-0.357-1.173-0.663-0.095-0.087-0.217-0.132-0.339-0.132-0.088 0-0.176 0.022-0.255 0.069l-0.564 0.335c-0.114 0.067-0.25 0.085-0.379 0.055-0.129-0.033-0.238-0.115-0.307-0.231-0.068-0.114-0.087-0.248-0.055-0.378 0.033-0.129 0.115-0.238 0.23-0.306l0.565-0.335c0.189-0.112 0.283-0.336 0.23-0.551-0.068-0.273-0.1-0.503-0.1-0.723s0.031-0.449 0.1-0.723c0.053-0.214-0.041-0.438-0.23-0.551l-0.565-0.334c-0.115-0.068-0.197-0.177-0.23-0.307-0.032-0.129-0.014-0.263 0.056-0.378 0.14-0.238 0.445-0.317 0.685-0.176l0.564 0.335C9.565 9.977 9.807 9.952 9.97 9.803c0.331-0.305 0.726-0.528 1.172-0.662 0.212-0.063 0.356-0.258 0.356-0.479V7.999c0-0.276 0.225-0.5 0.5-0.5s0.5 0.224 0.5 0.5v0.663c0 0.221 0.145 0.416 0.356 0.479 0.446 0.134 0.841 0.357 1.172 0.662 0.163 0.15 0.404 0.176 0.594 0.062l0.564-0.335c0.234-0.139 0.544-0.062 0.686 0.176 0.068 0.115 0.087 0.249 0.055 0.378-0.033 0.129-0.115 0.238-0.23 0.307l-0.565 0.334c-0.189 0.112-0.283 0.336-0.23 0.551C14.968 11.549 15 11.779 15 12z" />
</svg>