<svg id="fusilli_Layer_1" viewBox="0 0 24 24" fill="currentColor" width="32" height="32" data-name="Layer 1" xmlns="http://www.w3.org/2000/svg" xmlns:xlink="http://www.w3.org/1999/xlink">
    <title>fusilli</title>
    <path d="M21.5 3H20V1.5C20 0.399 19.103 0 18.5 0 17.121 0 16 1.122 16 2.5V3h-0.5C14.121 3 13 4.122 13 5.5V7h-0.5C11.121 7 10 8.122 10 9.5V10H9.5C8.121 10 7 11.122 7 12.5V13H6.5C5.121 13 4 14.121 4 15.5V17H3.5C2.121 17 1 18.121 1 19.5 1 20.103 1.399 21 2.5 21H4v1.5C4 23.601 4.897 24 5.5 24 6.879 24 8 22.879 8 21.5V21h0.5c1.379 0 2.5-1.121 2.5-2.5V18h0.5c1.379 0 2.5-1.121 2.5-2.5V14h0.5c1.379 0 2.5-1.122 2.5-2.5V11h0.5c1.379 0 2.5-1.122 2.5-2.5V7h0.5C21.879 7 23 5.878 23 4.5 23 3.897 22.601 3 21.5 3zM2.5 20c-0.402 0-0.494-0.275-0.5-0.5 0-0.827 0.673-1.5 1.5-1.5H4v2zM7 21.5C7 22.327 6.327 23 5.506 23 5.276 22.994 5 22.902 5 22.5v-7C5 14.673 5.673 14 6.5 14H7zM10 18.5c0 0.827-0.673 1.5-1.5 1.5H8v-7.5C8 11.673 8.673 11 9.5 11H10zM11.5 17H11V9.5C11 8.673 11.673 8 12.5 8H13v7.5c0 0.827-0.673 1.5-1.5 1.5zM16 11.5c0 0.827-0.673 1.5-1.5 1.5H14V5.5C14 4.673 14.673 4 15.5 4H16zM19 8.5c0 0.827-0.673 1.5-1.5 1.5H17V2.5C17 1.673 17.673 1 18.494 1 18.724 1.006 19 1.097 19 1.5zM20.5 6H20V4h1.5c0.402 0 0.494 0.275 0.5 0.5 0 0.827-0.673 1.5-1.5 1.5z" />
</svg>