<svg id="g_Layer_1" viewBox="0 0 24 24" fill="currentColor" width="32" height="32" data-name="Layer 1" xmlns="http://www.w3.org/2000/svg" xmlns:xlink="http://www.w3.org/1999/xlink">
    <title>g</title>
    <path d="M12.079 24c-2.742 0-5.255-1.041-7.146-2.932S2 16.663 2 13.989V10.34C2 4.83 6.163 0.294 11.476 0.014c3.959-0.215 7.653 1.946 9.415 5.49 0.123 0.248 0.022 0.547-0.225 0.67-0.248 0.125-0.548 0.021-0.67-0.225-1.584-3.185-4.9-5.127-8.467-4.936C6.746 1.265 3 5.362 3 10.34v3.649c0.062 10.079 14.12 12.343 17.82 3.377 0.306-0.739 0.22-1.553-0.235-2.233C20.111 14.424 19.322 14 18.474 14H12.5c-0.649 0.01-0.649-1.01 0-1h5.974c1.182 0 2.282 0.59 2.942 1.577 0.644 0.963 0.763 2.119 0.327 3.171-1.619 3.916-5.233 6.253-9.664 6.252z" />
</svg>