<svg id="galaxy_planet_Layer_1" viewBox="0 0 24 24" fill="currentColor" width="32" height="32" data-name="Layer 1" xmlns="http://www.w3.org/2000/svg" xmlns:xlink="http://www.w3.org/1999/xlink">
    <title>galaxy-planet</title>
    <path d="M3 2c0-0.552 0.448-1 1-1s1 0.448 1 1-0.448 1-1 1-1-0.448-1-1zM0 13.5C0 11.57 1.57 10 3.5 10S7 11.57 7 13.5 5.43 17 3.5 17 0 15.43 0 13.5zM1 13.5C1 14.879 2.122 16 3.5 16S6 14.879 6 13.5 4.878 11 3.5 11 1 12.121 1 13.5zM18 22c-0.552 0-1 0.448-1 1s0.448 1 1 1 1-0.448 1-1-0.448-1-1-1zM23 18c-0.552 0-1 0.448-1 1s0.448 1 1 1 1-0.448 1-1-0.448-1-1-1zM24 12.949c0 0.193-0.111 0.381-0.285 0.464-0.064 0.031-0.806 0.379-1.969 0.742C21.042 16.381 18.957 18 16.501 18s-4.541-1.619-5.245-3.845c-1.164-0.363-1.906-0.711-1.969-0.742-0.174-0.083-0.285-0.258-0.285-0.451 0-0.2 0.119-0.394 0.303-0.473 0.03-0.012 0.677-0.287 1.721-0.499C11.284 9.196 13.641 7 16.502 7s5.218 2.196 5.476 4.99c1.044 0.212 1.691 0.487 1.721 0.499 0.184 0.079 0.303 0.26 0.301 0.46zM12 12.5c0 0.291 0.028 0.576 0.081 0.851C13.286 13.689 14.845 14 16.5 14s3.214-0.311 4.419-0.649C20.972 13.075 21 12.791 21 12.5 21 10.019 18.981 8 16.5 8S12 10.019 12 12.5zM20.535 14.491C19.375 14.773 17.982 15 16.5 15s-2.875-0.227-4.035-0.509C13.201 15.977 14.733 17 16.5 17s3.299-1.024 4.035-2.509zM13.204 19.481c-4.682 3.438-9.303 4.488-11.238 2.553-0.763-0.763-1.083-1.967-0.927-3.482 0.028-0.274-0.172-0.52-0.446-0.548-0.278-0.031-0.52 0.171-0.549 0.446-0.188 1.825 0.232 3.309 1.215 4.291 0.841 0.842 2.036 1.251 3.463 1.251 2.523 0 5.771-1.279 9.073-3.704 0.223-0.164 0.271-0.477 0.107-0.699-0.164-0.224-0.477-0.271-0.698-0.108zM6 8.697c0.136 0 0.272-0.056 0.371-0.165C6.708 8.16 7.059 7.79 7.425 7.426c2.723-2.724 5.778-4.777 8.603-5.784 2.701-0.964 4.833-0.846 6.006 0.326 1.15 1.149 1.282 3.234 0.373 5.87-0.09 0.261 0.048 0.546 0.31 0.636s0.545-0.049 0.636-0.31c1.041-3.017 0.824-5.469-0.611-6.903C21.281-0.2 18.778-0.401 15.693 0.7 12.732 1.755 9.544 3.892 6.719 6.718 6.342 7.095 5.979 7.477 5.631 7.863 5.445 8.067 5.462 8.384 5.666 8.569 5.762 8.655 5.882 8.698 6 8.697z" />
</svg>