<svg id="game_console_crank_handheld_Layer_1" viewBox="0 0 24 24" fill="currentColor" width="32" height="32" data-name="Layer 1" xmlns="http://www.w3.org/2000/svg" xmlns:xlink="http://www.w3.org/1999/xlink">
    <title>game-console-crank-handheld</title>
    <path d="M23.5 6h-1C21.673 6 21 6.673 21 7.5v4c0 0.827-0.673 1.5-1.5 1.5H19V6.5C19 4.019 16.981 2 14.5 2h-10C2.019 2 0 4.019 0 6.5v11C0 19.981 2.019 22 4.5 22h10c2.481 0 4.5-2.019 4.5-4.5V14h0.5c1.378 0 2.5-1.122 2.5-2.5v-4C22 7.224 22.224 7 22.5 7h1C23.776 7 24 6.776 24 6.5S23.776 6 23.5 6zM18 17.5c0 1.93-1.57 3.5-3.5 3.5h-10C2.57 21 1 19.43 1 17.5v-11C1 4.57 2.57 3 4.5 3h10C16.43 3 18 4.57 18 6.5zM8 16.5C8 16.776 7.776 17 7.5 17H6v1.5C6 18.776 5.776 19 5.5 19S5 18.776 5 18.5V17H3.5C3.224 17 3 16.776 3 16.5S3.224 16 3.5 16H5v-1.5C5 14.224 5.224 14 5.5 14S6 14.224 6 14.5V16h1.5C7.776 16 8 16.224 8 16.5zM16 16c0 0.552-0.448 1-1 1s-1-0.448-1-1 0.448-1 1-1 1 0.448 1 1zM12 16c0 0.552-0.448 1-1 1s-1-0.448-1-1 0.448-1 1-1 1 0.448 1 1zM14.5 5h-10C3.673 5 3 5.673 3 6.5v3C3 10.327 3.673 11 4.5 11h10c0.827 0 1.5-0.673 1.5-1.5v-3C16 5.673 15.327 5 14.5 5zM15 9.5c0 0.276-0.224 0.5-0.5 0.5h-10C4.224 10 4 9.776 4 9.5v-3C4 6.224 4.224 6 4.5 6h10C14.776 6 15 6.224 15 6.5z" />
</svg>