<svg id="game_rules_Layer_1" viewBox="0 0 24 24" fill="currentColor" width="32" height="32" data-name="Layer 1" xmlns="http://www.w3.org/2000/svg" xmlns:xlink="http://www.w3.org/1999/xlink">
    <title>game-rules</title>
    <path d="M5 23.5C5 23.776 4.776 24 4.5 24 2.019 24 0 21.981 0 19.5v-15C0 2.019 2.019 0 4.5 0h11C17.981 0 20 2.019 20 4.5v4C20 8.776 19.776 9 19.5 9S19 8.776 19 8.5v-4C19 2.57 17.43 1 15.5 1h-11C2.57 1 1 2.57 1 4.5v15C1 21.43 2.57 23 4.5 23 4.776 23 5 23.224 5 23.5zM16 5.5C16 5.224 15.776 5 15.5 5h-11C4.224 5 4 5.224 4 5.5S4.224 6 4.5 6h11C15.776 6 16 5.776 16 5.5zM4.5 9C4.224 9 4 9.224 4 9.5S4.224 10 4.5 10h4C8.776 10 9 9.776 9 9.5S8.776 9 8.5 9zM24 22.085C24 23.141 23.141 24 22.085 24c-1.653 0-3.923-3.197-4.362-3.838C17.225 19.434 16.394 19 15.5 19s-1.725 0.435-2.223 1.162C12.839 20.803 10.568 24 8.915 24 7.859 24 7 23.141 7 22.085c0-0.83 0.352-4.278 1.429-7.46 0.405-1.353 1.303-2.199 2.571-2.497V11.5c0-0.276 0.224-0.5 0.5-0.5s0.5 0.224 0.5 0.5V12h7v-0.5c0-0.276 0.224-0.5 0.5-0.5s0.5 0.224 0.5 0.5v0.627c1.268 0.296 2.164 1.136 2.557 2.454C23.648 17.807 24 21.255 24 22.085zM23 22.085c0-0.678-0.33-4.048-1.376-7.139C21.229 13.628 20.331 13 18.929 13h-6.857c-1.401 0-2.299 0.628-2.67 1.866-1.072 3.171-1.401 6.541-1.401 7.219C8.001 22.59 8.412 23 8.916 23c0.678 0 2.231-1.494 3.537-3.402 0.685-1 1.824-1.598 3.048-1.598s2.364 0.598 3.048 1.598C19.854 21.506 21.407 23 22.086 23c0.504 0 0.915-0.41 0.914-0.915z" />
</svg>