<svg id="gamepad_Layer_1" viewBox="0 0 24 24" fill="currentColor" width="32" height="32" data-name="Layer 1" xmlns="http://www.w3.org/2000/svg" xmlns:xlink="http://www.w3.org/1999/xlink">
    <title>gamepad</title>
    <path d="M22.355 5.378C21.579 3.911 20.058 3 18.385 3H5.615c-1.673 0-3.194 0.911-3.97 2.377C0.895 6.795 0 9.092 0 11.978 0 17.504 2.019 22 4.5 22c1.628 0 2.603-2.146 3.133-3.946C7.816 17.434 8.404 17 9.065 17h5.87c0.661 0 1.25 0.434 1.432 1.054 0.53 1.8 1.504 3.946 3.133 3.946 2.481 0 4.5-4.496 4.5-10.022 0-2.886-0.895-5.183-1.645-6.6zM19.5 21c-0.766 0-1.578-1.207-2.174-3.229C17.019 16.729 16.036 16 14.935 16h-5.87c-1.101 0-2.084 0.729-2.391 1.771C6.078 19.793 5.266 21 4.5 21 2.848 21 1 17.142 1 11.978 1 9.297 1.832 7.164 2.529 5.845 3.132 4.707 4.314 4 5.615 4h12.77c1.301 0 2.484 0.707 3.086 1.845C22.168 7.163 23 9.297 23 11.978 23 17.142 21.152 21 19.5 21zM9 9.5C9 9.776 8.776 10 8.5 10H7v1.5C7 11.776 6.776 12 6.5 12S6 11.776 6 11.5V10H4.5C4.224 10 4 9.776 4 9.5S4.224 9 4.5 9H6V7.5C6 7.224 6.224 7 6.5 7S7 7.224 7 7.5V9h1.5C8.776 9 9 9.224 9 9.5zM16 8c0-0.552 0.448-1 1-1s1 0.448 1 1-0.448 1-1 1-1-0.448-1-1zM16 10c0 0.552-0.448 1-1 1s-1-0.448-1-1 0.448-1 1-1 1 0.448 1 1zM20 10c0 0.552-0.448 1-1 1s-1-0.448-1-1 0.448-1 1-1 1 0.448 1 1zM18 12c0 0.552-0.448 1-1 1s-1-0.448-1-1 0.448-1 1-1 1 0.448 1 1z" />
</svg>