<svg id="garage_open_Layer_1" viewBox="0 0 24 24" fill="currentColor" width="32" height="32" data-name="Layer 1" xmlns="http://www.w3.org/2000/svg" xmlns:xlink="http://www.w3.org/1999/xlink">
    <title>garage-open</title>
    <path d="M22.017 5.831l-7.5-5.06c-1.528-1.032-3.504-1.033-5.034 0l-7.5 5.06C0.741 6.668 0 8.062 0 9.56v9.939c0 2.481 2.019 4.5 4.5 4.5 0.276 0 0.5-0.224 0.5-0.5V14h14v9.5c0 0.276 0.224 0.5 0.5 0.5 2.481 0 4.5-2.019 4.5-4.5V9.561c0-1.498-0.741-2.893-1.983-3.73zM5 13v-0.5C5 11.121 6.122 10 7.5 10h9c1.378 0 2.5 1.121 2.5 2.5V13zM23 19.5c0 1.76-1.306 3.221-3 3.465V12.5c0-1.93-1.57-3.5-3.5-3.5h-9C5.57 9 4 10.57 4 12.5v10.465C2.306 22.721 1 21.26 1 19.5V9.561c0-1.165 0.577-2.25 1.542-2.901l7.5-5.061c1.189-0.803 2.726-0.803 3.915 0l7.5 5.061c0.966 0.651 1.542 1.736 1.542 2.901z" />
</svg>