<svg id="garage_Layer_1" viewBox="0 0 24 24" fill="currentColor" width="32" height="32" data-name="Layer 1" xmlns="http://www.w3.org/2000/svg" xmlns:xlink="http://www.w3.org/1999/xlink">
    <title>garage</title>
    <path d="M22.017 5.831l-7.499-5.06c-1.529-1.033-3.507-1.033-5.034 0l-7.501 5.06C0.741 6.669 0 8.063 0 9.56v9.939c0 2.481 2.019 4.5 4.5 4.5h15c2.481 0 4.5-2.019 4.5-4.5V9.561c0-1.497-0.741-2.892-1.983-3.73zM19 23H5V12.5C5 11.121 6.121 10 7.5 10h9c1.379 0 2.5 1.121 2.5 2.5zM23 19.5c0 1.76-1.306 3.221-3 3.464V12.5c0-1.93-1.57-3.5-3.5-3.5h-9C5.57 9 4 10.57 4 12.5v10.464C2.306 22.721 1 21.26 1 19.5V9.561C1 8.396 1.576 7.312 2.542 6.66l7.501-5.061C10.637 1.198 11.318 0.996 12 0.996s1.363 0.201 1.958 0.603l7.5 5.061C22.424 7.312 23 8.396 23 9.561zM14 19.5c0 0.276-0.224 0.5-0.5 0.5h-3c-0.276 0-0.5-0.224-0.5-0.5s0.224-0.5 0.5-0.5h3c0.276 0 0.5 0.224 0.5 0.5z" />
</svg>