<svg id="gas_pump_Layer_1" viewBox="0 0 24 24" fill="currentColor" width="32" height="32" data-name="Layer 1" xmlns="http://www.w3.org/2000/svg" xmlns:xlink="http://www.w3.org/1999/xlink">
    <title>gas-pump</title>
    <path d="M22.682 3.975 18.854 0.146c-0.195-0.195-0.512-0.195-0.707 0s-0.195 0.512 0 0.707l1.854 1.853v3.793c0 0.827 0.673 1.5 1.5 1.5h1.5v10.5c0 0.827-0.673 1.5-1.5 1.5s-1.5-0.673-1.5-1.5v-1c0-1.379-1.122-2.5-2.5-2.5h-1.5V4.5c0-2.481-2.019-4.5-4.5-4.5H4.5C2.019 0 0 2.019 0 4.5v15C0 21.981 2.019 24 4.5 24h7c2.481 0 4.5-2.019 4.5-4.5V16h1.5c0.827 0 1.5 0.673 1.5 1.5v1c0 1.379 1.122 2.5 2.5 2.5s2.5-1.121 2.5-2.5V7.157c0-1.202-0.468-2.333-1.318-3.182zM4.5 1h7C13.43 1 15 2.57 15 4.5V9H1V4.5C1 2.57 2.57 1 4.5 1zM15 19.5c0 1.93-1.57 3.5-3.5 3.5h-7C2.57 23 1 21.43 1 19.5V10h14zM21 6.5V3.707l0.975 0.975C22.599 5.306 22.958 6.124 22.996 7H21.5C21.224 7 21 6.775 21 6.5z" />
</svg>