<svg id="gas_mask_Layer_1" viewBox="0 0 24 24" fill="currentColor" width="32" height="32" data-name="Layer 1" xmlns="http://www.w3.org/2000/svg" xmlns:xlink="http://www.w3.org/1999/xlink">
    <title>gas-mask</title>
    <path d="M21.248 12.123 23.489 7.74C23.823 7.026 24 6.231 24 5.441c0-2.993-2.436-5.429-5.429-5.429H5.429C2.436 0.012 0 2.448 0 5.441 0 6.23 0.176 7.025 0.518 7.755l2.233 4.368C1.16 12.696-1e-3 15.066-1e-3 17.988c0 3.364 1.538 6 3.5 6h2c0.991 0 1.873-0.674 2.504-1.773 0.884 0.787 2.322 1.773 3.996 1.773s3.123-0.995 3.996-1.772c0.631 1.098 1.513 1.772 2.504 1.772h2c1.963 0 3.5-2.636 3.5-6 0-2.922-1.16-5.292-2.751-5.865zM3.5 22.988c-1.355 0-2.5-2.29-2.5-5s1.145-5 2.5-5 2.5 2.29 2.5 5-1.145 5-2.5 5zM5.459 22.988C6.395 21.922 7 20.099 7 17.988s-0.606-3.934-1.541-5c1.4-0.029 2.533 2.27 2.541 5 0 2.71-1.186 5-2.541 5zM15.554 21.262c-0.714 0.684-2.045 1.726-3.554 1.726s-2.826-1.028-3.554-1.727C8.796 20.325 9 19.205 9 17.988s-0.204-2.337-0.554-3.273c0.728-0.698 2.051-1.727 3.554-1.727s2.84 1.042 3.554 1.726C15.204 15.65 15 16.77 15 17.988s0.204 2.337 0.554 3.274zM12 11.988c-1.674 0-3.112 0.986-3.996 1.773-0.631-1.099-1.513-1.773-2.504-1.773H3.806L1.417 7.316C1.145 6.733 1 6.084 1 5.441 1 2.999 2.987 1.012 5.429 1.012h13.143c2.442 0 4.429 1.987 4.429 4.429 0 0.644-0.145 1.292-0.409 1.859l-2.397 4.688h-1.694c-0.991 0-1.873 0.673-2.504 1.772-0.873-0.776-2.319-1.772-3.997-1.772zM16 17.988c8e-3-2.73 1.141-5.028 2.541-5-0.936 1.066-1.541 2.889-1.541 5s0.605 3.934 1.541 5c-1.4 0.028-2.533-2.271-2.541-5zM20.5 22.988c-1.355 0-2.5-2.29-2.5-5s1.145-5 2.5-5 2.5 2.29 2.5 5-1.145 5-2.5 5z" />
</svg>