<svg id="gas_pump_slash_Layer_1" viewBox="0 0 24 24" fill="currentColor" width="32" height="32" data-name="Layer 1" xmlns="http://www.w3.org/2000/svg" xmlns:xlink="http://www.w3.org/1999/xlink">
    <title>gas-pump-slash</title>
    <path d="M15.97 19.555C15.69 22.089 13.553 24 11 24H4.5C2.019 24 0 21.981 0 19.5v-15C0 4.224 0.224 4 0.5 4S1 4.224 1 4.5V9h4.5C5.776 9 6 9.224 6 9.5S5.776 10 5.5 10H1v9.5C1 21.43 2.57 23 4.5 23H11c2.042 0 3.751-1.528 3.976-3.555 0.03-0.275 0.277-0.474 0.552-0.442 0.274 0.03 0.473 0.277 0.442 0.552zM24 7.157V17.5c0 1.379-1.121 2.5-2.5 2.5h-0.793l3.146 3.146c0.195 0.195 0.195 0.512 0 0.707-0.098 0.098-0.226 0.146-0.354 0.146s-0.256-0.049-0.354-0.146L0.146 0.854c-0.195-0.196-0.195-0.512 0-0.708s0.512-0.195 0.708 0l0.838 0.838C2.488 0.347 3.472 0 4.501 0h7c2.481 0 4.5 2.019 4.5 4.5v10.793L19.708 19h1.793c0.827 0 1.5-0.673 1.5-1.5V8h-1.5c-0.827 0-1.5-0.673-1.5-1.5V2.707l-1.854-1.854c-0.195-0.195-0.195-0.512 0-0.707s0.512-0.195 0.707 0l1.997 1.997 5e-3 5e-3 1.826 1.826C23.533 4.824 24 5.954 24 7.157zM15 10h-4.293L15 14.293zM2.404 1.697 9.707 9H15V4.5C15 2.57 13.43 1 11.5 1h-7C3.738 1 3.007 1.246 2.404 1.697zM21.5 7h1.496c-0.038-0.876-0.398-1.694-1.022-2.318l-0.975-0.975V6.5c0 0.275 0.225 0.5 0.501 0.5z" />
</svg>