<svg id="gauge_circle_minus_Layer_1" viewBox="0 0 24 24" fill="currentColor" width="32" height="32" data-name="Layer 1" xmlns="http://www.w3.org/2000/svg" xmlns:xlink="http://www.w3.org/1999/xlink">
    <title>gauge-circle-minus</title>
    <path d="M21 17.5c0 0.276-0.224 0.5-0.5 0.5h-6c-0.276 0-0.5-0.224-0.5-0.5s0.224-0.5 0.5-0.5h6c0.276 0 0.5 0.224 0.5 0.5zM6.854 17.303 6.312 17.772c-0.82 0.711-2.112 0.629-2.822-0.177-1.922-2.183-2.777-4.99-2.407-7.904 0.553-4.354 3.813-7.783 8.111-8.533 2.74-0.478 5.466 0.141 7.673 1.744 2.183 1.583 3.651 4.015 4.031 6.669 0.039 0.274 0.296 0.458 0.566 0.424 0.272-0.039 0.463-0.292 0.424-0.566-0.418-2.921-2.034-5.595-4.434-7.337-2.429-1.763-5.427-2.446-8.432-1.919-4.733 0.826-8.322 4.6-8.931 9.391-0.407 3.203 0.534 6.29 2.649 8.691 0.588 0.667 1.415 1.008 2.248 1.008 0.702 0 1.408-0.242 1.979-0.736l0.542-0.468c0.209-0.181 0.231-0.497 0.051-0.706-0.181-0.208-0.497-0.231-0.706-0.05zM11 13c-1.103 0-2-0.897-2-2 0-0.929 0.64-1.705 1.5-1.929V3.5C10.5 3.224 10.724 3 11 3s0.5 0.224 0.5 0.5v5.571c0.86 0.224 1.5 1 1.5 1.929 0 1.103-0.897 2-2 2zM11 12c0.551 0 1-0.449 1-1s-0.449-1-1-1-1 0.449-1 1 0.449 1 1 1zM24 17.5c0 3.584-2.916 6.5-6.5 6.5S11 21.084 11 17.5 13.916 11 17.5 11 24 13.916 24 17.5zM23 17.5c0-3.033-2.468-5.5-5.5-5.5S12 14.467 12 17.5 14.468 23 17.5 23 23 20.533 23 17.5z" />
</svg>