<svg id="gauze_bandage_Layer_1" viewBox="0 0 24 24" fill="currentColor" width="32" height="32" data-name="Layer 1" xmlns="http://www.w3.org/2000/svg" xmlns:xlink="http://www.w3.org/1999/xlink">
    <title>gauze-bandage</title>
    <path d="M6 3.5C6 3.224 6.672 3 7.5 3S9 3.224 9 3.5 8.328 4 7.5 4 6 3.776 6 3.5zM23.505 13.249c-0.33 0.41-0.505 0.9-0.505 1.418s0.175 1.008 0.505 1.418c0.289 0.363 0.341 0.835 0.145 1.242C23.45 17.742 23.04 18 22.581 18h-7.58v2.5c0 1.832-3.575 3.5-7.5 3.5s-7.5-1.668-7.5-3.5v-17C0 1.505 3.225 0 7.5 0h15.08c0.459 0 0.869 0.258 1.069 0.673 0.196 0.407 0.145 0.879-0.135 1.23-0.34 0.422-0.515 0.912-0.515 1.43s0.175 1.008 0.505 1.418c0.661 0.82 0.661 2.011 0 2.831-0.33 0.41-0.505 0.9-0.505 1.418s0.175 1.008 0.505 1.418c0.661 0.82 0.661 2.011 1e-3 2.831zM1 3.5C1 4.683 3.67 6 7.5 6S14 4.683 14 3.5 11.33 1 7.5 1 1 2.317 1 3.5zM14 5.291C12.728 6.328 10.351 7 7.5 7S2.272 6.329 1 5.291V20.5C1 21.358 3.531 23 7.5 23s6.5-1.642 6.5-2.5zM22 9c0-0.749 0.251-1.456 0.726-2.045 0.363-0.45 0.363-1.127 0-1.577C22.251 4.789 22 4.082 22 3.333s0.251-1.455 0.726-2.045c0.058-0.072 0.044-0.138 0.022-0.181C22.733 1.075 22.686 1 22.58 1h-9.731C14.192 1.626 15 2.501 15 3.5V17h7.58c0.105 0 0.153-0.075 0.168-0.107 0.021-0.043 0.035-0.108-0.017-0.175C22.251 16.122 22 15.415 22 14.667s0.251-1.456 0.726-2.045c0.363-0.45 0.363-1.127 0-1.577C22.251 10.456 22 9.749 22 9zM10.5 13H8v-2.5C8 10.224 7.776 10 7.5 10S7 10.224 7 10.5V13H4.5C4.224 13 4 13.224 4 13.5S4.224 14 4.5 14H7v2.5C7 16.776 7.224 17 7.5 17S8 16.776 8 16.5V14h2.5c0.276 0 0.5-0.224 0.5-0.5S10.776 13 10.5 13z" />
</svg>