<svg id="gavel_Layer_1" viewBox="0 0 24 24" fill="currentColor" width="32" height="32" data-name="Layer 1" xmlns="http://www.w3.org/2000/svg" xmlns:xlink="http://www.w3.org/1999/xlink">
    <title>gavel</title>
    <path d="M23.858 10.651c-0.195-0.195-0.512-0.195-0.707 0l-0.903 0.903-9.789-9.789 0.903-0.903c0.195-0.195 0.195-0.512 0-0.707s-0.512-0.195-0.707 0l-8 8c-0.195 0.195-0.195 0.512 0 0.707 0.098 0.098 0.226 0.146 0.354 0.146s0.256-0.049 0.354-0.146l0.934-0.934 4.54 4.54L0.146 23.146c-0.195 0.195-0.195 0.512 0 0.708C0.244 23.952 0.372 24 0.5 24s0.256-0.049 0.354-0.146l10.69-10.678 4.541 4.541-0.934 0.934c-0.195 0.195-0.195 0.512 0 0.707 0.098 0.098 0.226 0.146 0.354 0.146s0.256-0.049 0.354-0.146l8-8c0.195-0.195 0.195-0.512-1e-3-0.707zM14.124 14.342 11.9 12.118l-2e-3-3e-3-3e-3-2e-3-2.151-2.151 4.749-4.749 4.379 4.379c-0.837 0.837-3.738 3.738-4.748 4.75zM11.752 2.472l2.034 2.034-4.749 4.749-2.034-2.034zM14.83 15.049c1.013-1.013 3.913-3.913 4.749-4.749l1.961 1.961-4.749 4.749z" />
</svg>