<svg id="gay_couple_Layer_1" viewBox="0 0 24 24" fill="currentColor" width="32" height="32" data-name="Layer 1" xmlns="http://www.w3.org/2000/svg" xmlns:xlink="http://www.w3.org/1999/xlink">
    <title>gay-couple</title>
    <path d="M5.5 5C6.879 5 8 3.879 8 2.5S6.879 0 5.5 0 3 1.121 3 2.5 4.121 5 5.5 5zM5.5 1C6.327 1 7 1.673 7 2.5S6.327 4 5.5 4 4 3.327 4 2.5 4.673 1 5.5 1zM9.801 14.667C9.484 15.562 8.823 16.265 8 16.656V23.5C8 23.776 7.776 24 7.5 24S7 23.776 7 23.5v-6.539C6.836 16.985 6.669 17 6.5 17h-2c-0.171 0-0.335-0.027-0.5-0.051V23.5C4 23.776 3.776 24 3.5 24S3 23.776 3 23.5v-6.851c-1.178-0.564-2-1.758-2-3.149v-4C1 7.57 2.57 6 4.5 6h1C5.776 6 6 6.224 6 6.5S5.776 7 5.5 7h-1C3.121 7 2 8.121 2 9.5v4C2 14.879 3.121 16 4.5 16h2c1.058 0 2.005-0.67 2.357-1.667 0.093-0.26 0.379-0.395 0.639-0.305 0.26 0.093 0.396 0.378 0.305 0.639zM18.5 5C19.879 5 21 3.879 21 2.5S19.879 0 18.5 0 16 1.121 16 2.5 17.121 5 18.5 5zM18.5 1C19.327 1 20 1.673 20 2.5S19.327 4 18.5 4 17 3.327 17 2.5 17.673 1 18.5 1zM23 9.5v4c0 1.391-0.822 2.585-2 3.149V23.5c0 0.276-0.224 0.5-0.5 0.5S20 23.776 20 23.5v-6.551C19.835 16.973 19.671 17 19.5 17h-2c-0.169 0-0.336-0.016-0.5-0.039V23.5c0 0.276-0.224 0.5-0.5 0.5S16 23.776 16 23.5v-6.844c-0.823-0.392-1.484-1.094-1.801-1.989-0.092-0.261 0.045-0.546 0.305-0.639 0.261-0.093 0.545 0.044 0.639 0.305C15.496 15.33 16.443 16 17.5 16h2c1.379 0 2.5-1.121 2.5-2.5v-4C22 8.121 20.879 7 19.5 7h-1C18.224 7 18 6.776 18 6.5S18.224 6 18.5 6h1C21.43 6 23 7.57 23 9.5zM13.75 6C13.061 6 12.42 6.317 12 6.796 11.58 6.317 10.939 6 10.25 6 9.01 6 8 7.088 8 8.425c0 1.57 1.718 3.519 2.801 4.378 0.353 0.28 0.776 0.42 1.199 0.42s0.847-0.14 1.199-0.42C14.282 11.944 16 9.995 16 8.425 16 7.088 14.99 6 13.75 6zM12.578 12.02c-0.34 0.27-0.816 0.27-1.156 0C10.445 11.245 9 9.566 9 8.425 9 7.64 9.561 7 10.25 7c0.704 0 1.25 0.567 1.25 1.056 0 0.276 0.224 0.5 0.5 0.5s0.5-0.224 0.5-0.5C12.5 7.568 13.046 7 13.75 7 14.439 7 15 7.64 15 8.425c0 1.141-1.445 2.819-2.422 3.595z" />
</svg>