<svg id="gears_Layer_1" viewBox="0 0 24 24" fill="currentColor" width="32" height="32" data-name="Layer 1" xmlns="http://www.w3.org/2000/svg" xmlns:xlink="http://www.w3.org/1999/xlink">
    <title>gears</title>
    <path d="M12.36 9.86 11.03 9.08C11.32 8.44 11.5 7.74 11.5 7s-0.18-1.45-0.47-2.08l1.33-0.78C12.6 4 12.68 3.69 12.54 3.46c-0.14-0.24-0.45-0.32-0.68-0.18l-1.33 0.78c-0.82-1.11-2.08-1.86-3.52-2V0.5c0-0.28-0.22-0.5-0.5-0.5s-0.5 0.22-0.5 0.5v1.55c-1.44 0.15-2.7 0.89-3.52 2L1.16 3.27C0.92 3.13 0.62 3.21 0.48 3.45S0.42 3.99 0.66 4.13l1.33 0.78C1.7 5.55 1.52 6.25 1.52 6.99S1.7 8.44 1.99 9.07L0.66 9.85c-0.24 0.14-0.32 0.45-0.18 0.68 0.09 0.16 0.26 0.25 0.43 0.25 0.09 0 0.17-0.02 0.25-0.07l1.33-0.78c0.82 1.11 2.08 1.86 3.52 2v1.55c0 0.28 0.22 0.5 0.5 0.5s0.5-0.22 0.5-0.5v-1.55c1.44-0.15 2.7-0.89 3.52-2l1.33 0.78c0.08 0.05 0.17 0.07 0.25 0.07 0.17 0 0.34-0.09 0.43-0.25 0.14-0.24 0.06-0.54-0.18-0.67zM6.5 11c-2.21 0-4-1.79-4-4s1.79-4 4-4 4 1.79 4 4-1.79 4-4 4zM23.36 19.86l-1.33-0.78c0.29-0.64 0.47-1.34 0.47-2.08s-0.18-1.45-0.47-2.08l1.33-0.78c0.24-0.14 0.32-0.45 0.18-0.68-0.14-0.24-0.45-0.32-0.68-0.18l-1.33 0.78c-0.82-1.11-2.08-1.86-3.52-2v-1.55c0-0.28-0.22-0.5-0.5-0.5s-0.5 0.22-0.5 0.5v1.55c-1.44 0.15-2.7 0.89-3.52 2l-1.33-0.78c-0.24-0.14-0.54-0.06-0.68 0.18s-0.06 0.54 0.18 0.68l1.33 0.78c-0.29 0.64-0.47 1.34-0.47 2.08s0.18 1.45 0.47 2.08l-1.33 0.78c-0.24 0.14-0.32 0.45-0.18 0.68 0.09 0.16 0.26 0.25 0.43 0.25 0.09 0 0.17-0.02 0.25-0.07l1.33-0.78c0.82 1.11 2.08 1.86 3.52 2v1.55c0 0.28 0.22 0.5 0.5 0.5s0.5-0.22 0.5-0.5v-1.55c1.44-0.15 2.7-0.89 3.52-2l1.33 0.78c0.08 0.05 0.17 0.07 0.25 0.07 0.17 0 0.34-0.09 0.43-0.25 0.14-0.24 0.06-0.54-0.18-0.68zM17.5 21c-2.21 0-4-1.79-4-4s1.79-4 4-4 4 1.79 4 4-1.79 4-4 4z" />
</svg>