<svg id="gem_Layer_1" viewBox="0 0 24 24" fill="currentColor" width="32" height="32" data-name="Layer 1" xmlns="http://www.w3.org/2000/svg" xmlns:xlink="http://www.w3.org/1999/xlink">
    <title>gem</title>
    <path d="M23.199 9.659 21.889 8.04C20.84 6.743 19.282 6 17.614 6h-2.767c0 0-2e-3 0-3e-3 0h-8.47C4.715 6 3.161 6.737 2.111 8.023c0 0-1.277 1.566-1.28 1.571-1.28 1.68-1.046 4.094 0.518 5.483l8.337 8.043c0.658 0.585 1.482 0.878 2.308 0.878 0.834 0 1.669-0.299 2.338-0.896l8.312-7.993c1.568-1.4 1.813-3.735 0.555-5.45zM21.112 8.669l1.295 1.601c0.169 0.23 0.301 0.476 0.397 0.73h-5.852c-0.067-0.537-0.203-1.067-0.408-1.579L15.575 7h2.039c1.364 0 2.64 0.608 3.498 1.669zM11.99 21.867 8.347 14.094C8.092 13.418 7.977 12.707 8.002 12h7.997c-0.022 0.566-0.133 1.127-0.334 1.66zM8.134 11c0.062-0.271 0.145-0.539 0.25-0.801 0 0 1.264-3.168 1.27-3.199h4.845l1.117 2.792c0.157 0.393 0.266 0.798 0.327 1.208zM2.887 8.656C3.745 7.603 5.017 7 6.374 7h2.214L7.456 9.828C7.303 10.21 7.189 10.602 7.112 11H1.19c0.102-0.279 0.245-0.546 0.431-0.793zM2.028 14.344c-0.688-0.611-1.036-1.478-1.022-2.345h5.997c-0.024 0.832 0.116 1.673 0.423 2.482l3.955 8.443c-0.368-0.094-0.718-0.273-1.017-0.538zM21.965 14.375l-8.312 7.993c-0.307 0.274-0.665 0.458-1.04 0.554l3.977-8.883c0.25-0.661 0.386-1.35 0.409-2.041h6.002c0 0 1e-3 0 2e-3 0 0.022 0.872-0.331 1.745-1.038 2.377zM11.5 3.5v-3C11.5 0.224 11.724 0 12 0s0.5 0.224 0.5 0.5v3C12.5 3.776 12.276 4 12 4s-0.5-0.224-0.5-0.5zM16.071 3.243l1.5-2.5c0.144-0.236 0.453-0.313 0.686-0.172 0.237 0.142 0.314 0.449 0.172 0.686l-1.5 2.5C16.835 3.913 16.669 4 16.5 4c-0.088 0-0.177-0.022-0.257-0.071-0.237-0.142-0.314-0.449-0.172-0.686zM5.571 1.257C5.428 1.021 5.506 0.713 5.743 0.571 5.978 0.429 6.286 0.507 6.429 0.743l1.5 2.5c0.143 0.236 0.065 0.544-0.172 0.686C7.677 3.978 7.588 4 7.5 4 7.331 4 7.165 3.913 7.071 3.757z" />
</svg>