<svg id="general_Layer_1" viewBox="0 0 24 24" fill="currentColor" width="32" height="32" data-name="Layer 1" xmlns="http://www.w3.org/2000/svg" xmlns:xlink="http://www.w3.org/1999/xlink">
    <title>general</title>
    <path d="M6 6.319V9c0 3.309 2.691 6 6 6s6-2.691 6-6V6.314c0.968-0.486 1.962-1.219 1.962-2.533 0-2.438-2.841-3.781-8-3.781s-8 1.343-8 3.781c0 1.316 0.986 2.031 2.038 2.538zM12 14c-2.757 0-5-2.243-5-5V8.255C7.868 8.569 9.503 9 12 9s4.132-0.43 5-0.745V9c0 2.757-2.243 5-5 5zM11.962 1c4.383 0 7 1.04 7 2.781 0 0.705-0.484 1.216-1.672 1.765C17.113 5.628 17 5.805 17 6v1.183C16.407 7.435 14.767 8 12 8S7.592 7.435 7 7.184V6c0-0.197-0.116-0.376-0.296-0.457-1.254-0.56-1.742-1.054-1.742-1.762 0-1.742 2.617-2.781 7-2.781zM19 16h-2.395c-1.173 0-2.261 0.583-2.912 1.559L12 20.099 9.861 16.891C9.489 16.333 8.867 16 8.197 16H5c-1.103 0-2 0.897-2 2v2.5C3 22.43 4.57 24 6.5 24h11c1.93 0 3.5-1.57 3.5-3.5V18c0-1.103-0.897-2-2-2zM17.5 23h-11C5.121 23 4 21.878 4 20.5V19h2.5C6.776 19 7 18.776 7 18.5S6.776 18 6.5 18H4c0-0.551 0.448-1 1-1h3.197c0.335 0 0.646 0.167 0.832 0.445l2.555 3.832C11.677 21.416 11.833 21.5 12 21.5s0.323-0.083 0.416-0.223l2.109-3.164C14.99 17.416 15.767 17 16.605 17H19c0.552 0 1 0.449 1 1h-2.5c-0.276 0-0.5 0.224-0.5 0.5s0.224 0.5 0.5 0.5H20v1.5c0 1.378-1.121 2.5-2.5 2.5zM9.686 4.247C9.553 4.134 9.504 3.95 9.565 3.786c0.06-0.164 0.216-0.273 0.391-0.273h1.25l0.443-1.242C11.71 2.108 11.865 2 12.039 2s0.33 0.108 0.39 0.271l0.443 1.242h1.25c0.175 0 0.331 0.109 0.391 0.274 0.06 0.164 0.011 0.349-0.123 0.462l-0.986 0.803 0.408 1.242c0.056 0.168 0 0.353-0.141 0.461s-0.334 0.115-0.482 0.019l-1.147-0.747-1.128 0.755c-0.07 0.047-0.151 0.07-0.232 0.07-0.088 0-0.176-0.028-0.25-0.083-0.142-0.106-0.201-0.29-0.148-0.459l0.392-1.257z" />
</svg>