<svg id="german_Layer_1" viewBox="0 0 24 24" fill="currentColor" width="32" height="32" data-name="Layer 1" xmlns="http://www.w3.org/2000/svg" xmlns:xlink="http://www.w3.org/1999/xlink">
    <title>german</title>
    <path d="M19.5 4h-0.551C18.697 1.756 16.81 0 14.5 0h-10C2.019 0 0 2.019 0 4.5v13.855c-0.041 1.276 1.522 2.113 2.562 1.371l3.526-2.351C6.497 19.438 8.318 21 10.5 21h6.849l4.089 2.726c1.039 0.742 2.603-0.096 2.562-1.371V8.5C24 6.019 21.981 4 19.5 4zM2.007 18.894C1.6 19.189 0.981 18.857 1 18.355V4.5C1 2.57 2.57 1 4.5 1h10C16.43 1 18 2.57 18 4.5v8c0 1.93-1.57 3.5-3.5 3.5h-8c-0.105-4e-3-0.189 0.05-0.277 0.084zM23 22.355c0.018 0.502-0.599 0.832-1.007 0.539l-4.215-2.81C17.696 20.029 17.599 20 17.501 20h-7c-1.758 0-3.204-1.308-3.449-3h7.449c2.481 0 4.5-2.019 4.5-4.5V5h0.5c1.93 0 3.5 1.57 3.5 3.5zM9.5 9.5v-2C9.5 6.122 8.378 5 7 5H6C5.449 5 5 5.449 5 6v5c0 0.551 0.449 1 1 1h1c1.378 0 2.5-1.122 2.5-2.5zM6 6h1c0.827 0 1.5 0.673 1.5 1.5v2C8.5 10.327 7.827 11 7 11H6zM10.5 11V6c0-0.551 0.449-1 1-1h2C13.776 5 14 5.224 14 5.5S13.776 6 13.5 6h-2v2h2C13.776 8 14 8.224 14 8.5S13.776 9 13.5 9h-2v2h2c0.276 0 0.5 0.224 0.5 0.5S13.776 12 13.5 12h-2c-0.551 0-1-0.449-1-1z" />
</svg>