<svg id="germany_Layer_1" viewBox="0 0 24 24" fill="currentColor" width="32" height="32" data-name="Layer 1" xmlns="http://www.w3.org/2000/svg" xmlns:xlink="http://www.w3.org/1999/xlink">
    <title>germany</title>
    <path d="M20.796 7.767 19.928 6.465V4.694c0-0.315-0.143-0.614-0.389-0.812l-2.907-2.389c-0.188-0.152-0.419-0.232-0.654-0.232-0.104 0-0.209 0.016-0.311 0.048l-2.083 0.65c-0.027-0.554-0.566-0.96-1.128-0.96h-0.714l-1.075-0.811c-0.175-0.123-0.46-0.189-0.674-0.189-0.522 0-0.964 0.385-1.034 0.902L8.758 2.37 7.956 2.999H7.668c-1.293 0-2.411 0.965-2.599 2.245L4.692 8.216 4.017 8.374C3.583 8.475 3.261 8.842 3.216 9.286l-0.308 3.058c-0.021 0.207 0.021 0.416 0.119 0.599l0.301 0.558c-0.446 0.759-0.463 1.688-0.034 2.467 0.214 0.388 0.471 0.85 0.687 1.227 0.341 0.595 0.92 1.027 1.59 1.186l0.449 0.107-0.419 1.206c-0.169 0.486-0.181 1.003-0.037 1.494C5.867 22.229 6.837 23 7.923 23h1.331l2.195 0.913c0.19 0.091 0.42 0.091 0.631 0.087 0.273 0 0.534-0.107 0.729-0.297 0.087-0.085 0.186-0.21 0.297-0.375l0.626 0.1c0.143 0.023 0.291 0.016 0.431-0.021l2.014-0.406 0.766-0.027c0.572 0 1.008-0.504 1.014-1.076v-1.397l0.327-0.412c0.885-1.116 0.926-2.681-0.092-3.676l-0.775-0.758-1.331-1.154c1.049-0.139 1.783-0.622 2.424-1.477l0.376-0.501h0.802c0.342 0 0.662-0.167 0.857-0.448 0.195-0.28 0.24-0.638 0.122-0.959l-0.374-1.007 0.591-1.338c0.144-0.327 0.112-0.704-0.088-1.004zM19.687 11.52h-0.802c-0.315 0-0.611 0.148-0.8 0.4l-0.376 0.501c-0.504 0.673-1.013 0.987-1.755 1.086-0.39 0.052-0.714 0.327-0.826 0.704-0.113 0.377 6e-3 0.785 0.303 1.043l1.309 1.134 0.754 0.737c0.689 0.673 0.525 1.687 7e-3 2.34l-0.327 0.412c-0.14 0.177-0.216 0.396-0.216 0.621v1.386c0 0.052-0.036 0.094-0.101 0.094l-0.714 0.02c-0.107-6e-3-2.118 0.42-2.252 0.44-0.124-0.015-0.666-0.118-0.783-0.112-0.329 0-0.641 0.162-0.829 0.44-0.151 0.2-0.122 0.217-0.218 0.232-0.101 0.015-0.215-6e-3-0.226-0.01L9.64 22.075c-0.122-0.051-0.252-0.077-0.384-0.077H7.925c-0.626 0-1.214-0.459-1.399-1.094-0.085-0.291-0.078-0.596 0.022-0.884l0.419-1.206c0.093-0.267 0.068-0.561-0.068-0.809s-0.371-0.427-0.646-0.492l-0.449-0.106c-0.402-0.095-0.749-0.354-0.953-0.71-0.213-0.373-0.468-0.829-0.679-1.212-0.257-0.467-0.25-1.019 0.02-1.477 0.177-0.301 0.184-0.673 0.019-0.981l-0.305-0.583 0.308-3.057c2e-3-0.019 0.015-0.034 0.034-0.038l0.675-0.158C5.33 9.096 5.635 8.758 5.687 8.343l0.375-2.952C6.179 4.598 6.871 4 7.672 4H7.96c0.224 0 0.441-0.075 0.617-0.213l0.802-0.629c0.205-0.16 0.339-0.394 0.374-0.652l0.201-1.47c3e-3-0.021 0.047-0.11 0.159-0.016l1.03 0.777c0.174 0.131 0.385 0.202 0.602 0.202l0.846 2e-3c0.025 0.295 0.18 0.608 0.423 0.778 0.17 0.119 0.37 0.18 0.573 0.18 0.1 0 0.2-0.015 0.298-0.045l2.116-0.648 2.931 2.428v1.771c0 0.197 0.058 0.39 0.168 0.555l0.872 1.344-0.591 1.338c-0.105 0.238-0.113 0.508-0.023 0.752z" />
</svg>