<svg id="germany_country_code_Layer_1" viewBox="0 0 24 24" fill="currentColor" width="32" height="32" data-name="Layer 1" xmlns="http://www.w3.org/2000/svg" xmlns:xlink="http://www.w3.org/1999/xlink">
    <title>germany-country-code</title>
    <path d="M19.5 3h-15C2.019 3 0 5.019 0 7.5v9C0 18.981 2.019 21 4.5 21h15c2.481 0 4.5-2.019 4.5-4.5v-9C24 5.019 21.981 3 19.5 3zM23 16.5c0 1.93-1.57 3.5-3.5 3.5h-15C2.57 20 1 18.43 1 16.5v-9C1 5.57 2.57 4 4.5 4h15C21.43 4 23 5.57 23 7.5zM14 9v2.5h2.5c0.276 0 0.5 0.224 0.5 0.5s-0.224 0.5-0.5 0.5H14V15h2.5c0.276 0 0.5 0.224 0.5 0.5S16.776 16 16.5 16H14c-0.551 0-1-0.448-1-1V9c0-0.552 0.449-1 1-1h2.5C16.776 8 17 8.224 17 8.5S16.776 9 16.5 9zM9.5 8H8C7.449 8 7 8.448 7 9v6c0 0.552 0.449 1 1 1h1.5c1.378 0 2.5-1.121 2.5-2.5v-3C12 9.121 10.878 8 9.5 8zM11 13.5c0 0.827-0.673 1.5-1.5 1.5H8V9h1.5c0.827 0 1.5 0.673 1.5 1.5z" />
</svg>