<svg id="ghost_Layer_1" viewBox="0 0 24 24" fill="currentColor" width="32" height="32" data-name="Layer 1" xmlns="http://www.w3.org/2000/svg" xmlns:xlink="http://www.w3.org/1999/xlink">
    <title>ghost</title>
    <path d="M9 8c-1.103 0-2 0.897-2 2s0.897 2 2 2 2-0.897 2-2-0.897-2-2-2zM9 11c-0.551 0-1-0.449-1-1s0.449-1 1-1 1 0.449 1 1-0.449 1-1 1zM15 8c-1.103 0-2 0.897-2 2s0.897 2 2 2 2-0.897 2-2-0.897-2-2-2zM15 11c-0.551 0-1-0.449-1-1s0.449-1 1-1 1 0.449 1 1-0.449 1-1 1zM12 0C6.486 0 2 4.486 2 10v13.5C2 23.734 2.167 24 2.5 24c0.19 0 0.369-0.109 0.452-0.287C3.434 22.689 4.525 22 5.666 22c1.104 0 2.149 0.666 2.727 1.737C8.48 23.899 8.649 24 8.833 24v0c0.184 0 0.353-0.102 0.44-0.264C9.848 22.665 10.892 22 11.999 22c1.095 0 2.213 0.708 2.719 1.723 0.086 0.174 0.259 0.281 0.462 0.277 0.195-6e-3 0.369-0.125 0.445-0.304C16.038 22.729 17.202 22 18.332 22c1.256 0 2.273 0.87 2.723 1.731 0.107 0.204 0.338 0.308 0.562 0.254 0.224-0.055 0.381-0.255 0.381-0.485V10C22 4.486 17.514 0 12 0zM21 22.069C20.313 21.452 19.389 21 18.333 21c-1.227 0-2.451 0.623-3.182 1.557C14.385 21.602 13.202 21 11.999 21c-1.222 0-2.38 0.595-3.167 1.592C8.043 21.595 6.885 21 5.666 21c-0.984 0-1.939 0.385-2.667 1.027V10C3 5.038 7.038 1 12 1s9 4.038 9 9z" />
</svg>