<svg id="gif_square_Layer_1" viewBox="0 0 24 24" fill="currentColor" width="32" height="32" data-name="Layer 1" xmlns="http://www.w3.org/2000/svg" xmlns:xlink="http://www.w3.org/1999/xlink">
    <title>gif-square</title>
    <path d="M19.5 2h-15C2.019 2 0 4.019 0 6.5v11C0 19.981 2.019 22 4.5 22h15c2.481 0 4.5-2.019 4.5-4.5v-11C24 4.019 21.981 2 19.5 2zM23 17.5c0 1.93-1.57 3.5-3.5 3.5h-15C2.57 21 1 19.43 1 17.5v-11C1 4.57 2.57 3 4.5 3h15C21.43 3 23 4.57 23 6.5zM13 7.5v9c0 0.276-0.224 0.5-0.5 0.5S12 16.776 12 16.5v-9C12 7.224 12.224 7 12.5 7S13 7.224 13 7.5zM20 7.5C20 7.776 19.776 8 19.5 8H17c-0.552 0-1 0.449-1 1v2h2.5c0.276 0 0.5 0.224 0.5 0.5S18.776 12 18.5 12H16v4.5c0 0.276-0.224 0.5-0.5 0.5S15 16.776 15 16.5V9c0-1.103 0.897-2 2-2h2.5C19.776 7 20 7.224 20 7.5zM5 10v4c0 1.103 0.897 2 2 2s2-0.897 2-2v-0.5C9 13.224 8.775 13 8.5 13h-1C7.224 13 7 12.776 7 12.5S7.224 12 7.5 12h1c0.827 0 1.5 0.673 1.5 1.5V14c0 1.654-1.346 3-3 3s-3-1.346-3-3v-4c0-1.654 1.346-3 3-3s3 1.346 3 3c0 0.276-0.224 0.5-0.5 0.5S9 10.276 9 10c0-1.103-0.897-2-2-2s-2 0.897-2 2z" />
</svg>