<svg id="gifts_Layer_1" viewBox="0 0 24 24" fill="currentColor" width="32" height="32" data-name="Layer 1" xmlns="http://www.w3.org/2000/svg" xmlns:xlink="http://www.w3.org/1999/xlink">
    <title>gifts</title>
    <path d="M21.391 14.129c0.31-0.358 0.515-0.796 0.583-1.276 0.095-0.661-0.074-1.319-0.475-1.854s-0.986-0.881-1.646-0.975c-0.663-0.097-1.319 0.074-1.854 0.475-0.741 0.555-1.2 1.322-1.496 2.038-0.296-0.714-0.763-1.483-1.504-2.038-1.104-0.825-2.673-0.603-3.5 0.5-0.401 0.534-0.569 1.192-0.475 1.854 0.068 0.48 0.273 0.918 0.583 1.276-1.497 0.397-2.609 1.751-2.609 3.371v3c0 0.98 0.407 1.864 1.058 2.5H4.5C2.57 23 1 21.43 1 19.5V9c0-2.072 1.758-3 3.5-3H11c1.246 0 2.408 0.671 3.032 1.75 0.138 0.238 0.443 0.321 0.683 0.183 0.239-0.138 0.321-0.444 0.182-0.683C14.095 5.862 12.601 5 11 5H8.707l3.146-3.146c0.195-0.195 0.195-0.512 0-0.707s-0.512-0.195-0.707 0L8 4.293V0.5C8 0.224 7.776 0 7.5 0S7 0.224 7 0.5v3.793L3.854 1.146c-0.195-0.195-0.512-0.195-0.707 0s-0.195 0.512 0 0.707l3.146 3.146H4.5C1.851 5 0 6.645 0 9v10.5C0 21.981 2.019 24 4.5 24h16c1.93 0 3.5-1.57 3.5-3.5v-3c0-1.62-1.112-2.973-2.609-3.371zM18.6 11.3c0.32-0.241 0.716-0.34 1.112-0.286 0.397 0.057 0.748 0.265 0.988 0.585s0.341 0.716 0.285 1.112-0.265 0.747-0.586 0.988c-0.161 0.122-0.351 0.218-0.553 0.3H17.09c0.151-0.716 0.54-1.973 1.51-2.699zM12.3 11.599c0.241-0.32 0.591-0.528 0.988-0.585 0.398-0.053 0.792 0.045 1.112 0.286 0.969 0.726 1.358 1.984 1.509 2.699h-2.755c-0.202-0.082-0.392-0.178-0.554-0.301-0.32-0.24-0.528-0.591-0.585-0.987s0.044-0.792 0.285-1.112zM10 20.499v-3c0-1.379 1.122-2.5 2.5-2.5H16v8h-3.5c-1.378 0-2.5-1.121-2.5-2.5zM23 20.499c0 1.379-1.122 2.5-2.5 2.5H17l-2e-3-8H20.5c1.378 0 2.5 1.121 2.5 2.5z" />
</svg>