<svg id="gift_card_Layer_1" viewBox="0 0 24 24" fill="currentColor" width="32" height="32" data-name="Layer 1" xmlns="http://www.w3.org/2000/svg" xmlns:xlink="http://www.w3.org/1999/xlink">
    <title>gift-card</title>
    <path d="M19.5 6h-2.306c0.212-0.141 0.427-0.277 0.62-0.448 1.35-1.285 1.576-2.977 0.576-4.31-1.028-1.37-2.979-1.648-4.347-0.621-1.047 0.785-1.664 1.908-2.031 2.897-0.366-0.989-0.984-2.112-2.031-2.897-1.37-1.027-3.32-0.749-4.347 0.621-1 1.332-0.773 3.024 0.589 4.321C6.411 5.73 6.621 5.862 6.828 6H4.5C2.019 6 0 8.019 0 10.5v9C0 21.981 2.019 24 4.5 24h15c2.481 0 4.5-2.019 4.5-4.5v-9C24 8.019 21.981 6 19.5 6zM14.643 1.422c0.93-0.697 2.251-0.508 2.948 0.42 0.696 0.929 0.522 2.045-0.453 2.974-0.898 0.797-2.084 1.185-3.628 1.185h-1.009l0.017-0.41c0.086-0.628 0.506-2.953 2.125-4.169zM6.9 4.827C5.912 3.887 5.738 2.77 6.434 1.842 7.13 0.913 8.453 0.724 9.382 1.422c1.574 1.179 2.015 3.403 2.118 4.106V6h-1C8.967 6 7.786 5.612 6.9 4.827zM4.5 7h6.956c-0.444 2.95-4.763 3-4.956 3-0.276 0-0.5 0.225-0.499 0.501 0 0.275 0.224 0.499 0.5 0.499 1.626 0 4.381-0.584 5.5-2.548 1.119 1.964 3.874 2.548 5.5 2.548 0.276 0 0.5-0.224 0.5-0.499 0-0.276-0.223-0.5-0.499-0.501-0.194 0-4.512-0.05-4.956-3h6.956c1.93 0 3.5 1.57 3.5 3.5V18H1v-7.5C1 8.57 2.57 7 4.5 7zM19.5 23h-15C2.57 23 1 21.43 1 19.5V19h22v0.5c0 1.93-1.57 3.5-3.5 3.5z" />
</svg>