<svg id="gingerbread_man_Layer_1" viewBox="0 0 24 24" fill="currentColor" width="32" height="32" data-name="Layer 1" xmlns="http://www.w3.org/2000/svg" xmlns:xlink="http://www.w3.org/1999/xlink">
    <title>gingerbread-man</title>
    <path d="M13 12c0 0.552-0.448 1-1 1s-1-0.448-1-1 0.448-1 1-1 1 0.448 1 1zM12 14c-0.552 0-1 0.448-1 1s0.448 1 1 1 1-0.448 1-1-0.448-1-1-1zM21.788 9.594c-0.288 0.678-0.854 1.204-1.549 1.444L18.662 11.6C17.668 11.954 17 12.9 17 13.955v0.377c0 1.054 0.301 2.08 0.869 2.967l1.718 2.682c0.397 0.62 0.515 1.383 0.321 2.093-0.192 0.71-0.683 1.31-1.343 1.646-1.178 0.597-2.688 0.148-3.439-1.024l-2.01-3.073c-0.252-0.386-0.662-0.609-1.123-0.61h-5e-3c-0.46 0-0.868 0.219-1.122 0.603l-2.115 3.189c-0.394 0.613-1.038 1.039-1.766 1.16C6.843 23.988 6.701 24 6.559 24c-0.586 0-1.162-0.198-1.63-0.568-1.001-0.793-1.232-2.42-0.506-3.553l1.707-2.665c0.568-0.887 0.869-1.913 0.869-2.967v-0.282c0-1.05-0.663-1.995-1.65-2.352l-1.6-0.578C3.06 10.797 2.494 10.27 2.206 9.593 1.917 8.916 1.931 8.141 2.241 7.469 2.775 6.311 4.299 5.702 5.575 6.142l2.73 0.925C7.797 6.338 7.499 5.454 7.499 4.5 7.5 2.019 9.519 0 12 0s4.5 2.019 4.5 4.5c0 0.953-0.298 1.837-0.805 2.566l2.728-0.925c1.27-0.438 2.797 0.17 3.331 1.328 0.311 0.673 0.323 1.447 0.034 2.125zM8.5 4.5C8.5 6.43 10.07 8 12 8s3.5-1.57 3.5-3.5S13.93 1 12 1 8.5 2.57 8.5 4.5zM20.846 7.888c-0.317-0.688-1.315-1.069-2.1-0.801l-4.653 1.577c-1.349 0.457-2.837 0.458-4.186 0L5.253 7.087c-0.173-0.06-0.356-0.088-0.54-0.088-0.652 0-1.314 0.351-1.562 0.888C2.956 8.31 2.947 8.776 3.128 9.199c0.178 0.418 0.526 0.743 0.956 0.892l1.606 0.581c1.382 0.5 2.311 1.823 2.311 3.292v0.282c0 1.246-0.355 2.458-1.027 3.507l-1.707 2.665c-0.446 0.695-0.311 1.758 0.285 2.229 0.363 0.288 0.809 0.406 1.271 0.331 0.448-0.075 0.847-0.337 1.092-0.72l2.119-3.196c0.437-0.658 1.167-1.05 1.956-1.05h8e-3c0.792 2e-3 1.524 0.4 1.958 1.063l2.012 3.077c0.479 0.749 1.422 1.044 2.146 0.676 0.415-0.211 0.71-0.572 0.831-1.017 0.119-0.438 0.047-0.909-0.198-1.292l-1.718-2.682c-0.672-1.048-1.027-2.261-1.027-3.506v-0.377c0-1.477 0.935-2.802 2.326-3.298l1.582-0.563c0.434-0.149 0.782-0.474 0.96-0.892 0.181-0.424 0.173-0.89-0.024-1.313z" />
</svg>