<svg id="glass_citrus_Layer_1" viewBox="0 0 24 24" fill="currentColor" width="32" height="32" data-name="Layer 1" xmlns="http://www.w3.org/2000/svg" xmlns:xlink="http://www.w3.org/1999/xlink">
    <title>glass-citrus</title>
    <path d="M22.999 6.506c0 0 0-4e-3 0-6e-3-3e-3-0.02 0 0.011 0 6e-3z" />
    <path d="M17.502 2e-3c-3.073 0-5.654 2.145-6.326 5.016H2.672c-0.79 0-1.528 0.354-2.024 0.972-0.501 0.623-0.69 1.429-0.525 2.173L1.714 19.87c0.294 2.365 2.303 4.149 4.671 4.149h7.367c2.368 0 4.376-1.784 4.67-4.144l1.584-11.672c0.172-0.783-0.018-1.589-0.519-2.213-0.497-0.617-1.234-0.971-2.023-0.971h-5.255c0.648-2.314 2.776-4.016 5.294-4.016C20.534 1.003 23 3.469 23 6.5c0 4e-3 0 5e-3 0 6e-3-0.016 1.134-0.367 2.287-1.028 3.205-0.161 0.224-0.11 0.537 0.113 0.698 0.088 0.063 0.191 0.094 0.292 0.094 0.155 0 0.309-0.072 0.406-0.208 0.8-1.111 1.216-2.506 1.216-3.878-0.045-3.545-2.942-6.415-6.497-6.415zM17.43 19.745c-0.232 1.866-1.814 3.273-3.679 3.273H6.384c-1.865 0-3.446-1.407-3.679-3.278l-1.052-7.734h8.852c0.276 0 0.5-0.224 0.5-0.5s-0.224-0.5-0.5-0.5H1.517l-0.41-3.018c-0.106-0.485 0.01-0.985 0.321-1.371 0.306-0.38 0.76-0.599 1.245-0.599h8.351c-0.012 0.159-0.018 0.32-0.018 0.481 0 3.583 2.915 6.497 6.497 6.497h0.845zM17.463 6.018c0.485 0 0.938 0.218 1.245 0.598 0.311 0.386 0.428 0.886 0.314 1.412l-0.539 3.969h-0.98c-3.031 0-5.497-2.466-5.497-5.497 0-0.162 7e-3-0.323 0.021-0.481z" />
</svg>