<svg id="glass_empty_Layer_1" viewBox="0 0 24 24" fill="currentColor" width="32" height="32" data-name="Layer 1" xmlns="http://www.w3.org/2000/svg" xmlns:xlink="http://www.w3.org/1999/xlink">
    <title>glass-empty</title>
    <path d="M22.345 0.811C21.873 0.295 21.201 0 20.502 0H3.5C2.804 0 2.133 0.294 1.662 0.806 1.19 1.318 0.952 2.011 1.009 2.705l1.412 17.164C2.611 22.185 4.581 24 6.906 24h10.095c2.35 0 4.276-1.765 4.482-4.106l1.51-17.175c0.062-0.697-0.175-1.392-0.648-1.908zM20.487 19.806C20.327 21.627 18.828 23 17.001 23H6.905c-1.808 0-3.34-1.412-3.488-3.213L2.005 2.623C1.97 2.2 2.109 1.795 2.397 1.483S3.076 1 3.5 1h17.002c0.426 0 0.818 0.173 1.105 0.486 0.288 0.314 0.426 0.721 0.389 1.145z" />
</svg>