<svg id="glass_whiskey_Layer_1" viewBox="0 0 24 24" fill="currentColor" width="32" height="32" data-name="Layer 1" xmlns="http://www.w3.org/2000/svg" xmlns:xlink="http://www.w3.org/1999/xlink">
    <title>glass-whiskey</title>
    <path d="M23.334 1.851C22.845 1.31 22.146 1 21.417 1H2.599c-0.726 1e-3-1.422 0.31-1.911 0.846-0.493 0.54-0.736 1.268-0.668 1.997l1.384 14.894C1.63 21.167 3.633 23 6.065 23h11.788c2.416-1e-3 4.419-1.821 4.657-4.234l1.484-14.908c0.073-0.731-0.167-1.463-0.66-2.007zM17.853 21.998H6.064c-1.912 1e-3-3.488-1.441-3.665-3.354L2.06 15.001h19.82l-0.365 3.667c-0.188 1.899-1.764 3.331-3.662 3.33zM23 3.76 21.98 14.001H2.007c-0.013 0-0.026 0-0.039 2e-3L1.016 3.75C0.973 3.294 1.12 2.857 1.427 2.52 1.732 2.186 2.148 2.001 2.599 2.001h18.818C21.87 2 22.288 2.185 22.593 2.522 22.897 2.857 23.044 3.308 23 3.76z" />
</svg>