<svg id="glass_champagne_Layer_1" viewBox="0 0 24 24" fill="currentColor" width="32" height="32" data-name="Layer 1" xmlns="http://www.w3.org/2000/svg" xmlns:xlink="http://www.w3.org/1999/xlink">
    <title>glass-champagne</title>
    <path d="M16.505 23.001H12.5l4e-3-4.018c3.628-0.257 6.5-3.292 6.499-7.025L18.202 2.74C18.066 1.178 16.781 0 15.213 0H8.796C7.228 0 5.943 1.178 5.808 2.74l-0.803 9.261c0 3.692 2.872 6.724 6.5 6.982l-4e-3 4.019H7.505c-0.276 0-0.5 0.224-0.5 0.5s0.224 0.5 0.5 0.5h9c0.276 0 0.5-0.224 0.5-0.5s-0.224-0.5-0.5-0.501zM6.805 2.826C6.895 1.785 7.752 1 8.797 1h6.417c1.045 0 1.902 0.785 1.993 1.827L17.396 5H6.616zM6.004 12.044 6.529 6h10.954l0.523 6.001c0 3.309-2.691 6-6 6s-6-2.691-6.002-5.957z" />
</svg>