<svg id="glass_cheers_Layer_1" viewBox="0 0 24 24" fill="currentColor" width="32" height="32" data-name="Layer 1" xmlns="http://www.w3.org/2000/svg" xmlns:xlink="http://www.w3.org/1999/xlink">
    <title>glass-cheers</title>
    <path d="M11.5 3.5v-3C11.5 0.224 11.724 0 12 0s0.5 0.224 0.5 0.5v3C12.5 3.776 12.276 4 12 4s-0.5-0.224-0.5-0.5zM15.243 3.929C15.323 3.977 15.412 4 15.5 4c0.169 0 0.335-0.086 0.429-0.243l1.5-2.5c0.143-0.237 0.065-0.544-0.172-0.686-0.233-0.14-0.543-0.065-0.686 0.171l-1.5 2.5c-0.143 0.237-0.065 0.544 0.172 0.687zM8.071 3.758C8.165 3.914 8.331 4.001 8.5 4.001c0.088 0 0.177-0.023 0.257-0.071 0.237-0.142 0.314-0.449 0.172-0.686l-1.5-2.5C7.287 0.507 6.978 0.432 6.743 0.573 6.506 0.715 6.429 1.022 6.571 1.259zM23.658 22.475l-4.5 1.5c-0.053 0.018-0.105 0.026-0.158 0.026-0.209 0-0.404-0.132-0.475-0.342-0.087-0.262 0.055-0.545 0.316-0.632l1.721-0.574-1.243-3.586c-0.374 0.09-0.752 0.135-1.129 0.135-0.815 0-1.621-0.21-2.352-0.622-1.117-0.63-1.921-1.658-2.265-2.893l-1.575-4.751-1.582 4.774c-0.337 1.212-1.141 2.239-2.258 2.87-0.73 0.412-1.536 0.622-2.352 0.622-0.377 0-0.755-0.045-1.129-0.135l-1.243 3.586 1.721 0.574c0.262 0.087 0.403 0.37 0.316 0.632-0.07 0.209-0.266 0.342-0.475 0.342-0.053 0-0.105-8e-3-0.158-0.026l-4.5-1.5c-0.262-0.087-0.403-0.37-0.316-0.632 0.088-0.262 0.371-0.401 0.633-0.316l1.83 0.61 1.249-3.602c-0.888-0.42-1.623-1.103-2.115-1.976-0.631-1.117-0.788-2.412-0.443-3.647l1.998-6.04c0.41-1.356 1.868-2.156 3.244-1.773l4.141 1.153c0.589 0.164 1.09 0.516 1.439 1.005 0.35-0.488 0.85-0.841 1.438-1.005l4.143-1.153c1.38-0.385 2.834 0.417 3.247 1.786l1.987 6.004c0.352 1.258 0.194 2.553-0.437 3.67-0.492 0.873-1.228 1.555-2.115 1.976l1.249 3.602 1.83-0.61c0.263-0.086 0.545 0.054 0.633 0.316 0.087 0.262-0.055 0.545-0.315 0.632zM10.859 11.001H2.862l-0.729 2.202c-0.266 0.955-0.141 1.98 0.357 2.864 0.499 0.884 1.312 1.521 2.29 1.793 0.98 0.272 2.004 0.147 2.888-0.352s1.521-1.312 1.793-2.29zM11.5 8.775c-6e-3-0.26-0.074-0.527-0.205-0.764-0.216-0.393-0.572-0.675-1.004-0.795L6.15 6.063c-0.146-0.041-0.293-0.06-0.438-0.06-0.71 0-1.371 0.464-1.585 1.171l-0.935 2.827h7.997l0.242-0.731c0.044-0.144 0.066-0.345 0.069-0.495zM12.809 10.001h7.997l-0.932-2.814c-0.217-0.718-0.88-1.184-1.59-1.184-0.145 0-0.291 0.019-0.436 0.06l-4.143 1.153c-0.431 0.121-0.787 0.403-1.003 0.795-0.13 0.237-0.198 0.496-0.204 0.759 2e-3 0.153 0.025 0.362 0.071 0.513zM21.508 16.067c0.498-0.884 0.623-1.91 0.351-2.887l-0.721-2.179h-7.997l1.39 4.195c0.279 1.001 0.916 1.814 1.8 2.313s1.908 0.624 2.888 0.352c0.978-0.272 1.791-0.91 2.289-1.794z" />
</svg>