<svg id="glasses_Layer_1" viewBox="0 0 24 24" fill="currentColor" width="32" height="32" data-name="Layer 1" xmlns="http://www.w3.org/2000/svg" xmlns:xlink="http://www.w3.org/1999/xlink">
    <title>glasses</title>
    <path d="M20 0c-1.978 0-3.68 1.475-3.959 3.429-0.039 0.273 0.151 0.527 0.424 0.566 0.274 0.036 0.527-0.15 0.566-0.424C17.24 2.105 18.517 1 20 1c1.654 0 3 1.346 3 3v12.031C22.088 14.806 20.641 14 19 14c-2.414 0-4.434 1.721-4.899 4H9.899C9.434 15.721 7.415 14 5 14c-1.641 0-3.088 0.806-4 2.031V4c0-1.654 1.346-3 3-3 1.483 0 2.76 1.105 2.969 2.571 0.039 0.272 0.288 0.455 0.566 0.424 0.273-0.039 0.463-0.293 0.424-0.566C7.679 1.475 5.977 0 4 0 1.794 0 0 1.794 0 4v15c0 2.757 2.243 5 5 5s5-2.243 5-5h4c0 2.757 2.243 5 5 5s5-2.243 5-5V4c0-2.206-1.794-4-4-4zM5 23c-2.206 0-4-1.794-4-4s1.794-4 4-4 4 1.794 4 4-1.794 4-4 4zM19 23c-2.206 0-4-1.794-4-4s1.794-4 4-4 4 1.794 4 4-1.794 4-4 4z" />
</svg>