<svg id="glass_half_Layer_1" viewBox="0 0 24 24" fill="currentColor" width="32" height="32" data-name="Layer 1" xmlns="http://www.w3.org/2000/svg" xmlns:xlink="http://www.w3.org/1999/xlink">
    <title>glass-half</title>
    <path d="M22.346 0.812C21.873 0.296 21.201 0 20.502 0H3.501c-0.697 0-1.368 0.294-1.84 0.807S0.952 2.012 1.01 2.705l1.411 17.164C2.611 22.186 4.581 24 6.905 24h10.096c2.35 0 4.276-1.765 4.482-4.106l1.51-17.175c0.062-0.696-0.175-1.392-0.647-1.907zM17.001 23H6.905c-1.808 0-3.34-1.412-3.488-3.213L2.777 12h18.397l-0.686 7.806C20.328 21.627 18.829 23 17.001 23zM21.261 11H2.695L2.006 2.623C1.971 2.201 2.11 1.796 2.397 1.484 2.685 1.172 3.077 1 3.501 1h17.001c0.426 0 0.819 0.173 1.106 0.487 0.288 0.314 0.426 0.721 0.389 1.145z" />
</svg>