<svg id="glass_Layer_1" viewBox="0 0 24 24" fill="currentColor" width="32" height="32" data-name="Layer 1" xmlns="http://www.w3.org/2000/svg" xmlns:xlink="http://www.w3.org/1999/xlink">
    <title>glass</title>
    <path d="M21.36 0.831C20.886 0.303 20.209 0 19.5 0h-15C3.791 0 3.113 0.303 2.64 0.831s-0.702 1.235-0.625 1.94l1.872 17.216c0.249 2.288 2.172 4.014 4.474 4.014h7.28c2.302 0 4.225-1.726 4.474-4.014l1.872-17.216v0c0.077-0.705-0.151-1.412-0.627-1.94zM20.991 2.663 19.119 19.879c-0.193 1.78-1.689 3.122-3.479 3.122H8.36c-1.79 0-3.286-1.342-3.479-3.122L3.59 8.001h13.911c0.276 0 0.5-0.224 0.5-0.5s-0.224-0.5-0.5-0.5H3.48L3.008 2.663C2.962 2.234 3.094 1.821 3.383 1.499 3.671 1.178 4.068 1.001 4.499 1.001h15c0.432 0 0.828 0.177 1.116 0.498 0.289 0.322 0.421 0.735 0.376 1.164z" />
</svg>