<svg id="globe_shield_Layer_1" viewBox="0 0 24 24" fill="currentColor" width="32" height="32" data-name="Layer 1" xmlns="http://www.w3.org/2000/svg" xmlns:xlink="http://www.w3.org/1999/xlink">
    <title>globe-shield</title>
    <path d="M22.287 11.365l-3-0.995c-0.507-0.168-1.068-0.168-1.574 0l-3 0.995C13.688 11.705 13 12.658 13 13.738v3.675c0 3.614 3.869 5.83 5.054 6.422 0.267 0.189 0.584 0.202 0.866 0.035 1.192-0.48 5.08-2.363 5.08-6.458v-3.675c0-1.08-0.688-2.033-1.713-2.372zM23 17.413c0 3.467-3.409 5.109-4.453 5.53l-0.023 9e-3-0.022-0.011c-1.056-0.528-4.501-2.487-4.501-5.528v-3.675c0-0.647 0.413-1.22 1.028-1.424l3-0.995c0.304-0.102 0.639-0.102 0.944 0l3 0.995c0.615 0.204 1.028 0.776 1.028 1.424zM13.436 22.907c-0.41 0.053-0.827 0.073-1.243 0.08-0.563-0.566-2.716-2.86-4.07-5.988H10.5c0.276 0 0.5-0.224 0.5-0.5s-0.224-0.5-0.5-0.5H7.732C7.293 14.752 7 13.406 7 11.999s0.292-2.753 0.732-4h8.883c7e-3 0 0.012 6e-3 0.019 6e-3 0.011 0 0.021-5e-3 0.032-6e-3h5.576c0.144 0.368 0.275 0.742 0.38 1.13 0.072 0.267 0.349 0.425 0.613 0.353 0.267-0.072 0.425-0.346 0.353-0.613C22.18 3.647 17.415 0 12 0c-5e-3 0-9e-3 0-0.014 0-2e-3 0-3e-3 0-5e-3 0C5.373 0.011 0 5.39 0 12s5.383 12 12 12c0.522 0 1.049-0.034 1.564-0.102 0.274-0.036 0.467-0.287 0.431-0.56-0.036-0.274-0.286-0.47-0.559-0.431zM8.123 7c1.229-2.839 3.117-4.991 3.878-5.789C12.77 2.015 14.668 4.171 15.89 7zM21.792 7h-4.823c-1.07-2.668-2.711-4.777-3.726-5.921C16.92 1.498 20.128 3.746 21.792 7zM10.76 1.075C9.741 2.219 8.096 4.332 7.029 7H2.214c1.645-3.206 4.812-5.504 8.546-5.925zM1.764 8h4.905C6.265 9.248 6 10.589 6 12s0.265 2.752 0.669 4H1.764C1.277 14.758 1 13.412 1 12s0.277-2.758 0.764-4zM2.214 17h4.815c1.067 2.669 2.712 4.781 3.731 5.925C7.026 22.504 3.859 20.206 2.214 17z" />
</svg>