<svg id="globe_snow_Layer_1" viewBox="0 0 24 24" fill="currentColor" width="32" height="32" data-name="Layer 1" xmlns="http://www.w3.org/2000/svg" xmlns:xlink="http://www.w3.org/1999/xlink">
    <title>globe-snow</title>
    <path d="M23.5 23H22v-0.5c0-1.62-1.112-2.974-2.609-3.371C21.691 17.047 23 14.142 23 11 23 4.935 18.065 0 12 0S1 4.935 1 11c0 3.142 1.309 6.047 3.609 8.129C3.112 19.526 2 20.88 2 22.5V23H0.5C0.224 23 0 23.224 0 23.5S0.224 24 0.5 24h23c0.276 0 0.5-0.224 0.5-0.5S23.776 23 23.5 23zM2 11C2 5.486 6.486 1 12 1s10 4.486 10 10c0 3.172-1.458 6.087-4.001 7.997-1e-3 0-2e-3 2e-3-3e-3 3e-3H12.5v-2h2.19c0.512 0 0.972-0.284 1.2-0.742 0.229-0.458 0.181-0.996-0.126-1.406l-0.798-1.063c0.173-0.117 0.315-0.278 0.414-0.473 0.211-0.422 0.167-0.919-0.127-1.312l-0.902-1.122c0.259-0.119 0.475-0.324 0.607-0.591 0.219-0.437 0.172-0.95-0.12-1.341l-1.774-2.365c-0.508-0.677-1.62-0.677-2.13 0L9.161 8.95c-0.292 0.391-0.339 0.904-0.12 1.341 0.133 0.267 0.349 0.472 0.607 0.591l-0.913 1.136c-0.283 0.378-0.327 0.875-0.116 1.297 0.099 0.195 0.241 0.356 0.414 0.473l-0.798 1.063c-0.307 0.41-0.355 0.948-0.126 1.406s0.688 0.742 1.2 0.742h2.19v2H6.003c0 0-2e-3-2e-3-3e-3-3e-3-2.543-1.91-4.001-4.825-4-7.996zM10.322 13.276C10.237 13.107 10.064 13 9.875 13H9.727c-0.133 0-0.193-0.092-0.213-0.131-0.02-0.04-0.058-0.144 0.012-0.237l1.462-1.818c0.12-0.15 0.145-0.356 0.062-0.529-0.083-0.174-0.259-0.284-0.451-0.284h-0.411c-0.157 0-0.228-0.108-0.251-0.155C9.914 9.8 9.87 9.678 9.963 9.552l1.772-2.364c0.087-0.116 0.204-0.133 0.266-0.133s0.179 0.017 0.265 0.132l1.773 2.365c0.094 0.125 0.05 0.248 0.026 0.294-0.023 0.047-0.094 0.155-0.251 0.155h-0.411c-0.192 0-0.368 0.11-0.451 0.284-0.083 0.173-0.059 0.379 0.062 0.529l1.451 1.804c0.08 0.107 0.042 0.211 0.022 0.251S14.407 13 14.274 13h-0.148c-0.189 0-0.362 0.107-0.447 0.276s-0.066 0.372 0.047 0.523l1.239 1.652c0.115 0.153 0.061 0.302 0.032 0.359-0.028 0.057-0.115 0.189-0.306 0.189H9.31c-0.19 0-0.277-0.132-0.306-0.189-0.028-0.057-0.083-0.206 0.032-0.359l1.239-1.652c0.113-0.151 0.132-0.354 0.047-0.523zM3 22.5C3 21.122 4.121 20 5.5 20h13c1.379 0 2.5 1.122 2.5 2.5V23H3zM14 4c0-0.552 0.448-1 1-1s1 0.448 1 1-0.448 1-1 1-1-0.448-1-1zM18 12c0-0.552 0.448-1 1-1s1 0.448 1 1-0.448 1-1 1-1-0.448-1-1zM5 12c-0.552 0-1-0.448-1-1s0.448-1 1-1 1 0.448 1 1-0.448 1-1 1zM6 6c0-0.552 0.448-1 1-1s1 0.448 1 1-0.448 1-1 1-1-0.448-1-1z" />
</svg>