<svg id="globe_alt_Layer_1" viewBox="0 0 24 24" fill="currentColor" width="32" height="32" data-name="Layer 1" xmlns="http://www.w3.org/2000/svg" xmlns:xlink="http://www.w3.org/1999/xlink">
    <title>globe-alt</title>
    <path d="M12.5 16c4.411 0 8-3.589 8-8s-3.589-8-8-8-8 3.589-8 8 3.589 8 8 8zM12.5 1c3.86 0 7 3.14 7 7s-3.14 7-7 7-7-3.14-7-7 3.14-7 7-7zM22.044 15.306C19.742 18.289 16.263 20 12.5 20v3h5c0.276 0 0.5 0.224 0.5 0.5S17.776 24 17.5 24h-11C6.224 24 6 23.776 6 23.5S6.224 23 6.5 23h5v-3.051C5.351 19.438 0.5 14.279 0.5 8c0-2.868 1.025-5.647 2.887-7.825 0.18-0.21 0.495-0.235 0.705-0.055 0.21 0.179 0.235 0.495 0.055 0.705C2.44 2.822 1.5 5.37 1.5 8.001c0 6.065 4.935 11 11 11 3.451 0 6.641-1.569 8.752-4.306 0.169-0.218 0.481-0.259 0.702-0.09 0.218 0.169 0.259 0.483 0.09 0.701z" />
</svg>