<svg id="gltf_file_Layer_1" viewBox="0 0 24 24" fill="currentColor" width="32" height="32" data-name="Layer 1" xmlns="http://www.w3.org/2000/svg" xmlns:xlink="http://www.w3.org/1999/xlink">
    <title>gltf-file</title>
    <path d="M23 17c0 0.276-0.224 0.5-0.5 0.5H20v3c0 0.276-0.224 0.5-0.5 0.5S19 20.776 19 20.5V14c0-0.552 0.448-1 1-1h2.5c0.276 0 0.5 0.224 0.5 0.5S22.776 14 22.5 14H20v2.5h2.5c0.276 0 0.5 0.224 0.5 0.5zM18 13.5c0-0.276-0.224-0.5-0.5-0.5h-4c-0.276 0-0.5 0.224-0.5 0.5s0.224 0.5 0.5 0.5h1.501l0.016 6.501c0 0.276 0.225 0.499 0.5 0.499 0.276 0 0.5-0.226 0.499-0.501L16 14h1.499c0.276 0 0.5-0.224 0.501-0.5zM10.5 13c-0.276 0-0.5 0.224-0.5 0.5V20c0 0.552 0.449 1 1 1h2.5c0.276 0 0.5-0.224 0.5-0.5S13.776 20 13.5 20H11v-6.5c0-0.276-0.224-0.5-0.5-0.5zM6.5 14c0.685 0 1.282 0.463 1.453 1.125 0.069 0.269 0.347 0.431 0.609 0.359 0.268-0.069 0.429-0.342 0.36-0.609C8.637 13.771 7.642 13 6.501 13c-1.378 0-2.5 1.121-2.5 2.5v3c0 1.379 1.122 2.5 2.5 2.5s2.5-1.121 2.5-2.5v-1c0-0.276-0.224-0.5-0.5-0.5h-1.5c-0.276 0-0.5 0.224-0.5 0.5s0.224 0.5 0.5 0.5h1v0.5c0 0.827-0.673 1.5-1.5 1.5s-1.5-0.673-1.5-1.5v-3c0-0.827 0.673-1.5 1.499-1.5zM18.933 22.714c0.139 0.239 0.057 0.545-0.182 0.684-0.681 0.395-1.459 0.603-2.251 0.603h-11c-2.481 0-4.5-2.019-4.5-4.5V4.5C1 2.019 3.019 0 5.5 0h5.515c1.736 0 3.369 0.677 4.597 1.904l3.484 3.484C20.324 6.616 21 8.248 21 9.985V10.5c0 0.276-0.224 0.5-0.5 0.5S20 10.776 20 10.5V9.985C20 9.65 19.962 9.322 19.904 9H14.5C13.121 9 12 7.879 12 6.5V1.096C11.677 1.038 11.349 1 11.015 1H5.5C3.57 1 2 2.57 2 4.5v15C2 21.43 3.57 23 5.5 23h11c0.616 0 1.222-0.162 1.749-0.468 0.236-0.138 0.544-0.059 0.684 0.182zM14.904 2.611c-0.55-0.55-1.2-0.959-1.904-1.232V6.5C13 7.327 13.673 8 14.5 8h5.121c-0.273-0.704-0.682-1.354-1.232-1.904z" />
</svg>