<svg id="glucose_Layer_1" viewBox="0 0 24 24" fill="currentColor" width="32" height="32" data-name="Layer 1" xmlns="http://www.w3.org/2000/svg" xmlns:xlink="http://www.w3.org/1999/xlink">
    <title>glucose</title>
    <path d="M11.994 23.303c0.043 0.272-0.143 0.529-0.415 0.573C11.061 23.958 10.53 24 10 24 4.486 24 0 19.514 0 14 0 11.131 2.35 6.755 6.617 1.678 7.487 0.643 8.783 0 10 0s2.513 0.643 3.383 1.678c2.025 2.411 3.622 4.657 4.745 6.678 0.134 0.241 0.047 0.546-0.194 0.68-0.239 0.133-0.545 0.048-0.681-0.194-1.091-1.965-2.651-4.159-4.636-6.52C11.931 1.507 10.929 1 10 1S8.068 1.506 7.383 2.322C3.267 7.218 1 11.366 1 14c0 4.963 4.037 9 9 9 0.478 0 0.956-0.038 1.421-0.112 0.274-0.043 0.529 0.143 0.573 0.415zM24 16v3c0 1.223-0.651 2.372-1.699 3.001l-2.5 1.5c-1.109 0.667-2.492 0.667-3.602 0l-2.5-1.5C12.651 21.372 12 20.223 12 19v-3c0-1.223 0.651-2.372 1.699-3.001l2.5-1.5c1.109-0.667 2.492-0.667 3.602 0l2.5 1.5C23.349 13.628 24 14.777 24 16zM17.5 17.56c-0.452-0.065-0.894-0.212-1.301-0.456l-3.074-1.845C13.05 15.497 13 15.744 13 15.999v3c0 0.873 0.465 1.694 1.213 2.144l2.5 1.5c0.247 0.148 0.515 0.234 0.787 0.29zM19.287 16.247l3.1-1.862c-0.173-0.203-0.367-0.389-0.6-0.529l-2.5-1.5c-0.794-0.477-1.78-0.477-2.574 0l-2.5 1.5c-0.234 0.14-0.428 0.326-0.601 0.53l3.102 1.861c0.793 0.475 1.778 0.475 2.573 0zM23 16c0-0.255-0.05-0.502-0.125-0.74l-3.073 1.845c-0.406 0.244-0.85 0.391-1.302 0.456v5.373c0.272-0.056 0.54-0.142 0.787-0.29l2.5-1.5C22.535 20.695 23 19.873 23 19z" />
</svg>