<svg id="goal_net_Layer_1" viewBox="0 0 24 24" fill="currentColor" width="32" height="32" data-name="Layer 1" xmlns="http://www.w3.org/2000/svg" xmlns:xlink="http://www.w3.org/1999/xlink">
    <title>goal-net</title>
    <path d="M19.5 3h-15C2.019 3 0 5.019 0 7.5v13c0 0.201 0.12 0.383 0.306 0.461C0.368 20.987 0.435 21 0.5 21c0.128 0 0.254-0.049 0.35-0.143l3.341-3.262 2.984 2.984c0.283 0.283 0.66 0.439 1.061 0.439h4e-3c0.402 0 0.779-0.159 1.062-0.444l2.723-2.748 2.753 2.756c0.293 0.293 0.677 0.438 1.061 0.438s0.769-0.146 1.062-0.438l2.939-2.939 3.268 3.195 0.115 0.077c0.153 0.104 0.353 0.112 0.514 0.026 0.163-0.087 0.265-0.257 0.265-0.441v-13c0-2.481-2.019-4.5-4.502-4.5zM19.5 4c1.307 0 2.448 0.72 3.049 1.784l-2.964 2.991-3.143-3.143L18.114 4zM18.881 9.486l-2.934 2.96-3.239-3.169 3.017-2.946zM16.682 4 15.734 4.926 14.808 4zM13.394 4l1.624 1.624-3.025 2.954-2.978-2.913 1.665-1.664zM11.279 9.274 8.046 12.431l-2.897-2.9 3.16-3.16zM9.266 4 8.301 4.965 7.315 4zM4.499 4h1.386l1.71 1.672-3.152 3.152-3.008-3.011C2.032 4.734 3.182 4.001 4.499 4zM0.999 7.5c0-0.221 0.021-0.438 0.06-0.648l2.676 2.679-2.736 2.736zM0.999 19.312v-4.907l2.483 2.483zM1.344 13.335l3.098-3.098 2.889 2.892-3.134 3.06zM8.589 19.87c-0.094 0.095-0.219 0.147-0.353 0.147-0.127-0.01-0.26-0.051-0.355-0.146l-2.976-2.975 3.133-3.059 3.278 3.281zM12.02 16.407l-3.266-3.27 3.241-3.165 3.251 3.179zM16.191 19.873c-0.194 0.194-0.512 0.196-0.708 0l-2.756-2.759 3.234-3.264 3.161 3.091zM19.825 16.239l-3.164-3.095 2.926-2.953 3.143 3.143zM22.999 19.344 20.54 16.938l2.459-2.459zM22.999 12.188 20.291 9.481l2.641-2.665c0.044 0.221 0.067 0.448 0.067 0.681z" />
</svg>