<svg id="goals_Layer_1" viewBox="0 0 24 24" fill="currentColor" width="32" height="32" data-name="Layer 1" xmlns="http://www.w3.org/2000/svg" xmlns:xlink="http://www.w3.org/1999/xlink">
    <title>goals</title>
    <path d="M21.5 13.002h-4c-1.379 0-2.5 1.122-2.5 2.5v2.001c-0.418-0.314-0.938-0.501-1.5-0.501H11v-1.915c0-0.663-0.426-1.24-1.061-1.434l-2.157-0.661 1.541-5.99h1.269c0.693 0 1.365-0.203 1.941-0.588l2.245-1.496c0.229-0.153 0.292-0.463 0.139-0.693-0.154-0.231-0.466-0.292-0.693-0.139l-2.245 1.496c-0.412 0.275-0.892 0.42-1.387 0.42H6.466c-0.936 0-1.758 0.664-1.951 1.56l-0.732 2.849c-0.247 1.125 0.302 2.24 1.302 2.753L4.253 15.66c-0.068 0.205-0.259 0.342-0.475 0.342H0.499c-0.276 0-0.499 0.224-0.499 0.5s0.224 0.5 0.5 0.5h3.279c0.646 0 1.218-0.412 1.423-1.025L6.027 13.5l3.619 1.11C9.857 14.675 10 14.867 10 15.088v1.915H9.5c-1.378 0-2.5 1.122-2.5 2.5v1.013c-0.419-0.317-0.935-0.513-1.5-0.513H2.499C1.121 20.002 0 21.124 0 22.502v1c0 0.276 0.224 0.5 0.5 0.5s0.5-0.224 0.5-0.5v-1c0-0.827 0.673-1.5 1.5-1.5h3c0.827 0 1.5 0.673 1.5 1.5v1c0 0.276 0.224 0.5 0.5 0.5s0.5-0.224 0.5-0.5v-4c0-0.827 0.673-1.5 1.5-1.5h4c0.827 0 1.5 0.673 1.5 1.5v4c0 0.276 0.224 0.5 0.5 0.5s0.5-0.224 0.5-0.5v-8c0-0.827 0.673-1.5 1.5-1.5h4c0.827 0 1.5 0.673 1.5 1.5v8c0 0.276 0.224 0.5 0.5 0.5s0.5-0.224 0.5-0.5v-8c0-1.378-1.121-2.5-2.5-2.5zM4.755 10.642l0.733-2.85c0.099-0.458 0.51-0.79 0.978-0.79H8.29l-1.465 5.696-1.066-0.327c-0.735-0.241-1.165-0.992-1.004-1.729zM8.499 5.002c1.378 0 2.5-1.122 2.5-2.5s-1.121-2.5-2.5-2.5-2.5 1.122-2.5 2.5 1.122 2.5 2.5 2.5zM8.499 1.002c0.827 0 1.5 0.673 1.5 1.5s-0.673 1.5-1.5 1.5-1.5-0.673-1.5-1.5 0.673-1.5 1.5-1.5zM17.499 11.002c0.276 0 0.5-0.224 0.5-0.5v-4.51l4.438-2.046c0.347-0.188 0.562-0.55 0.562-0.944s-0.216-0.756-0.581-0.954l-4.073-1.995C18.277 0.02 18.076 2e-3 18 2e-3c-0.435 0-1 0.306-1 1.125v9.375c0 0.276 0.224 0.5 0.499 0.5zM17.999 1.099c0-0.048 0.049-0.082 0.102-0.056l3.878 1.903c0 0 0.102 0.063-8e-3 0.114l-3.972 1.844z" />
</svg>