<svg id="golfer_Layer_1" viewBox="0 0 24 24" fill="currentColor" width="32" height="32" data-name="Layer 1" xmlns="http://www.w3.org/2000/svg" xmlns:xlink="http://www.w3.org/1999/xlink">
    <title>golfer</title>
    <path d="M8.5 6C9.878 6 11 4.879 11 3.5S9.878 1 8.5 1 6 2.121 6 3.5 7.122 6 8.5 6zM8.5 2C9.327 2 10 2.673 10 3.5S9.327 5 8.5 5 7 4.327 7 3.5 7.673 2 8.5 2zM20.943 9.269l-4.42-8.465c-0.199-0.356-0.526-0.609-0.92-0.715-0.394-0.109-0.804-0.05-1.131 0.146l-1.204 0.63c-0.245 0.128-0.339 0.431-0.211 0.675 0.128 0.245 0.43 0.337 0.675 0.212l1.228-0.644c0.117-0.07 0.253-0.09 0.385-0.053 0.131 0.035 0.24 0.119 0.299 0.225l4.031 7.721h-4.586c-0.343 0-0.682-0.05-1.008-0.148L8.104 7.058c-0.671-0.127-1.312 0.051-1.711 0.48C6.032 7.927 5.91 8.462 6.059 9.014l1.89 6.663-4.198 7.582c-0.134 0.241-0.046 0.546 0.195 0.68 0.237 0.132 0.545 0.049 0.68-0.195l4.286-7.742h2.997c0.057 0.348 0.092 0.699 0.092 1.053v6.447c0 0.276 0.224 0.5 0.5 0.5s0.5-0.224 0.5-0.5v-6.447c0-0.748-0.112-1.49-0.332-2.206l-1.823-5.924 2.946 0.886c0.419 0.127 0.855 0.191 1.297 0.191h5.412c0.175 0 0.337-0.092 0.428-0.241 0.09-0.149 0.096-0.335 0.014-0.492zM11.669 15H8.796L7.022 8.746C6.965 8.534 7.001 8.351 7.126 8.218 7.29 8.041 7.584 7.979 7.866 8.027l1.826 0.549z" />
</svg>