<svg id="golf_ball_grass_Layer_1" viewBox="0 0 24 24" fill="currentColor" width="32" height="32" data-name="Layer 1" xmlns="http://www.w3.org/2000/svg" xmlns:xlink="http://www.w3.org/1999/xlink">
    <title>golf-ball-grass</title>
    <path d="M15 5c0 0.552-0.448 1-1 1s-1-0.448-1-1 0.448-1 1-1 1 0.448 1 1zM11 8c0 0.552 0.448 1 1 1s1-0.448 1-1-0.448-1-1-1-1 0.448-1 1zM16 9c0.552 0 1-0.448 1-1s-0.448-1-1-1-1 0.448-1 1 0.448 1 1 1zM24 23.5c0 0.276-0.224 0.5-0.5 0.5h-23C0.224 24 0 23.776 0 23.5S0.224 23 0.5 23h2.973c-0.14-3.695-1.755-6.307-3.29-8.464-0.281-0.396-0.236-0.909 0.109-1.251 0.345-0.341 0.86-0.381 1.25-0.097 1.628 1.183 4.198 4.498 4.685 7.209 0.127 0.705 0.227 1.752 0.258 2.603h1.454c-0.113-3.523-1.353-5.387-2.37-6.883-0.134-0.198-0.265-0.391-0.389-0.58-0.271-0.415-0.231-0.935 0.098-1.263 0.331-0.33 0.832-0.369 1.248-0.094 1.118 0.738 2.196 2.078 3.01 3.585 0.893-1.521 2.066-2.857 3.178-3.591 0.416-0.275 0.917-0.236 1.248 0.092 0.33 0.329 0.37 0.849 0.098 1.264-0.176 0.27-0.373 0.545-0.58 0.835-1.052 1.474-2.333 3.309-2.456 6.635h1.995c0.015-0.372 0.012-0.746 0.047-1.123 0.241-2.593 1.862-6.18 4.159-7.695 0.416-0.274 0.917-0.237 1.248 0.093 0.329 0.329 0.369 0.848 0.098 1.263l-0.214 0.324c-1.056 1.597-2.235 3.42-2.337 7.139h1.495c0.031-0.851 0.131-1.898 0.258-2.603 0.487-2.711 3.057-6.026 4.685-7.209 0.392-0.286 0.905-0.244 1.25 0.097 0.345 0.342 0.39 0.855 0.109 1.251-1.535 2.156-3.151 4.769-3.29 8.464H23.5c0.276 0 0.5 0.224 0.5 0.499zM18.515 23h1.011c0.134-3.798 1.735-6.596 3.476-9.044-1.414 1.101-3.809 4.189-4.245 6.619-0.116 0.643-0.211 1.629-0.242 2.425zM14.019 23h1.002c0.106-4.025 1.424-6.06 2.502-7.69l0.211-0.319c-1.76 1.215-3.426 4.334-3.671 6.979-0.033 0.347-0.029 0.69-0.044 1.03zM10.069 18.869c0.158 0.369 0.295 0.738 0.413 1.109 0.544-1.873 1.45-3.164 2.185-4.194 0.198-0.278 0.387-0.542 0.557-0.801-1.091 0.772-2.308 2.248-3.155 3.886zM8.94 23h1.003c-0.015-0.342-0.01-0.684-0.043-1.031-0.23-2.476-2.063-5.726-3.923-6.953 0.163 0.159 0.29 0.346 0.421 0.539 1.094 1.61 2.43 3.617 2.542 7.445zM4.474 23h1.011c-0.032-0.795-0.126-1.781-0.242-2.425-0.437-2.43-2.832-5.519-4.289-6.578 1.783 2.409 3.385 5.205 3.52 9.003zM4.221 12.468c0.258-0.098 0.389-0.386 0.291-0.645C4.172 10.923 4 9.972 4 9c0-4.411 3.589-8 8-8s8 3.589 8 8c0 0.973-0.172 1.923-0.512 2.823-0.098 0.259 0.033 0.547 0.291 0.645 0.252 0.096 0.547-0.03 0.645-0.291 0.383-1.014 0.577-2.083 0.577-3.177C21 4.037 16.962 0 12 0S3 4.037 3 9c0 1.094 0.194 2.163 0.577 3.177 0.098 0.258 0.385 0.388 0.644 0.291z" />
</svg>