<svg id="golf_Layer_1" viewBox="0 0 24 24" fill="currentColor" width="32" height="32" data-name="Layer 1" xmlns="http://www.w3.org/2000/svg" xmlns:xlink="http://www.w3.org/1999/xlink">
    <title>golf</title>
    <path d="M12 10c-1.797 0-3.484 0.225-5 0.621v-3.35l5.262-2.179c0.471-0.238 0.777-0.694 0.818-1.221 0.042-0.525-0.188-1.024-0.666-1.365L8.171 0.16c-0.469-0.234-1.013-0.208-1.46 0.065C6.266 0.5 6 0.977 6 1.501v9.414C2.391 12.109 0 14.359 0 17c0 3.925 5.271 7 12 7s12-3.075 12-7-5.271-7-12-7zM7 1.501c0-0.252 0.212-0.504 0.506-0.504 0.062 0 0.13 0.013 0.199 0.047l4.174 2.305c0.205 0.148 0.211 0.359 0.205 0.443-7e-3 0.084-0.047 0.293-0.239 0.392L7 6.189zM12 23c-6.065 0-11-2.691-11-6 0-2.101 1.994-3.95 5-5.022V16.5C6 16.776 6.224 17 6.5 17S7 16.776 7 16.5v-4.838C8.502 11.242 10.199 11 12 11c6.065 0 11 2.691 11 6s-4.935 6-11 6zM15 15c-1.103 0-2 0.897-2 2s0.897 2 2 2 2-0.897 2-2-0.897-2-2-2zM15 18c-0.552 0-1-0.449-1-1s0.448-1 1-1 1 0.449 1 1-0.448 1-1 1z" />
</svg>