<svg id="gopuram_Layer_1" viewBox="0 0 24 24" fill="currentColor" width="32" height="32" data-name="Layer 1" xmlns="http://www.w3.org/2000/svg" xmlns:xlink="http://www.w3.org/1999/xlink">
    <title>gopuram</title>
    <path d="M22 16.184V12c0-1.302-0.839-2.402-2-2.816V0.5C20 0.224 19.776 0 19.5 0S19 0.224 19 0.5V2h-2V0.5C17 0.224 16.776 0 16.5 0S16 0.224 16 0.5V2h-2V0.5C14 0.224 13.776 0 13.5 0S13 0.224 13 0.5V2h-2V0.5C11 0.224 10.776 0 10.5 0S10 0.224 10 0.5V2H8V0.5C8 0.224 7.776 0 7.5 0S7 0.224 7 0.5V2H5V0.5C5 0.224 4.776 0 4.5 0S4 0.224 4 0.5v8.851C2.822 9.915 2 11.109 2 12.5v3.684C0.839 16.598 0 17.698 0 19v2.5C0 22.878 1.122 24 2.5 24h8c0.276 0 0.5-0.224 0.5-0.5V21c0-0.551 0.449-1 1-1s1 0.449 1 1v2.5c0 0.276 0.224 0.5 0.5 0.5h8c1.379 0 2.5-1.122 2.5-2.5V19c0-1.302-0.839-2.402-2-2.816zM5 3h14v6h-2V5.5C17 5.224 16.776 5 16.5 5S16 5.224 16 5.5V9h-2V7c0-1.103-0.897-2-2-2s-2 0.897-2 2v2H8V5.5C8 5.224 7.776 5 7.5 5S7 5.224 7 5.5V9H5.5C5.329 9 5.165 9.027 5 9.051zM13 9h-2V7c0-0.551 0.449-1 1-1s1 0.449 1 1zM3 12.5C3 11.122 4.122 10 5.5 10H19c1.103 0 2 0.897 2 2v4h-3v-3.5c0-0.276-0.224-0.5-0.5-0.5S17 12.224 17 12.5V16h-3v-2c0-1.103-0.897-2-2-2s-2 0.897-2 2v2H7v-3.5C7 12.224 6.776 12 6.5 12S6 12.224 6 12.5V16H3zM13 16h-2v-2c0-0.551 0.449-1 1-1s1 0.449 1 1zM23 21.5c0 0.827-0.673 1.5-1.5 1.5H21v-3.5c0-0.276-0.224-0.5-0.5-0.5S20 19.224 20 19.5V23h-3v-3.5c0-0.276-0.224-0.5-0.5-0.5S16 19.224 16 19.5V23h-2v-2c0-1.103-0.897-2-2-2s-2 0.897-2 2v2H8v-3.5C8 19.224 7.776 19 7.5 19S7 19.224 7 19.5V23H4v-3.5C4 19.224 3.776 19 3.5 19S3 19.224 3 19.5V23H2.5C1.673 23 1 22.327 1 21.5V19c0-1.103 0.897-2 2-2h18c1.103 0 2 0.897 2 2z" />
</svg>