<svg id="gourmet_Layer_1" viewBox="0 0 24 24" fill="currentColor" width="32" height="32" data-name="Layer 1" xmlns="http://www.w3.org/2000/svg" xmlns:xlink="http://www.w3.org/1999/xlink">
    <title>gourmet</title>
    <path d="M23.5 15H23v-1c0-5.504-4.063-10.076-9.347-10.876C13.872 2.803 14 2.416 14 2c0-1.103-0.897-2-2-2s-2 0.897-2 2c0 0.417 0.128 0.804 0.347 1.124C5.063 3.924 1 8.496 1 14v1H0.5C0.224 15 0 15.224 0 15.5S0.224 16 0.5 16h5.279c-2.08 1.111-3.66 3.07-4.249 5.494l-0.477 1.888c-0.08 0.31 0.168 0.622 0.486 0.618 0.225 0 0.43-0.153 0.485-0.382l0.477-1.888C3.32 18.356 6.317 16 9.789 16h3.71c0.905 0 1.642 0.737 1.642 1.642 0 0.812-0.606 1.511-1.41 1.625L8.57 20.004c-0.273 0.039-0.463 0.292-0.424 0.566 0.039 0.273 0.291 0.461 0.566 0.424l5.161-0.737c0.49-0.07 0.934-0.275 1.297-0.574 0.03-0.017 3.815-3.307 3.815-3.307 0.305-0.265 0.692-0.394 1.097-0.368 0.403 0.028 0.771 0.211 1.035 0.516 0.541 0.622 0.479 1.573-0.146 2.128l-4.813 4.481c-0.202 0.188-0.213 0.504-0.025 0.707 0.099 0.105 0.232 0.159 0.366 0.159 0.122 0 0.244-0.044 0.341-0.134l4.804-4.473c0.982-0.872 1.116-2.361 0.333-3.394h1.522c0.276 0 0.5-0.224 0.5-0.5S23.775 14.998 23.5 15zM11 2c0-0.551 0.449-1 1-1s1 0.449 1 1-0.449 1-1 1-1-0.449-1-1zM2 15v-1C2 8.486 6.486 4 12 4s10 4.486 10 10v1zM16.139 17.53c-0.024-0.577-0.234-1.106-0.572-1.53h2.329z" />
</svg>