<svg id="government_flag_Layer_1" viewBox="0 0 24 24" fill="currentColor" width="32" height="32" data-name="Layer 1" xmlns="http://www.w3.org/2000/svg" xmlns:xlink="http://www.w3.org/1999/xlink">
    <title>government-flag</title>
    <path d="M20 21.051V13h0.543C21.347 13 22 12.347 22 11.543c0-0.533-0.291-1.023-0.76-1.279l-8.174-4.458C12.885 5.707 12.694 5.64 12.5 5.595V4.659l2.979-1.491C15.805 2.943 16 2.564 16 2.151s-0.195-0.793-0.521-1.018c-0.025-0.017-2.329-1.04-2.474-1.083-0.351-0.106-0.724-0.04-1.022 0.182C11.681 0.457 11.5 0.815 11.5 1.19v4.405c-0.195 0.045-0.386 0.112-0.566 0.211L2.76 10.264v0c-0.468 0.256-0.759 0.746-0.759 1.279 0 0.804 0.654 1.457 1.457 1.457h0.543v8.051c-1.14 0.232-2 1.242-2 2.449 0 0.276 0.224 0.5 0.5 0.5s0.5-0.224 0.5-0.5c0-0.827 0.673-1.5 1.5-1.5-0.237 0 15.201 0 15 0 0.827 0 1.5 0.673 1.5 1.5 0 0.276 0.224 0.5 0.5 0.5s0.5-0.224 0.5-0.5c0-1.208-0.86-2.217-2.001-2.449zM12.5 1.189c0-0.087 0.055-0.138 0.079-0.155 0.022-0.017 0.123-0.031 0.138-0.026 0.103 0.03 0.204 0.067 0.304 0.112l1.914 0.856c0.06 0.059 0.064 0.146 0.064 0.174 0 0.03-6e-3 0.137-0.028 0.157L12.499 3.54zM7 21H5v-8h2zM10 21H8v-8h2zM13 21h-2v-8h2zM16 21h-2v-8h2zM17 21v-8h2v8zM3.457 12C3.205 12 3 11.795 3 11.543c0-0.168 0.091-0.321 0.238-0.402l8.174-4.458c0.368-0.199 0.808-0.199 1.176 0l8.174 4.458C20.908 11.222 21 11.375 21 11.543 21 11.795 20.795 12 20.543 12z" />
</svg>