<svg id="government_user_Layer_1" viewBox="0 0 24 24" fill="currentColor" width="32" height="32" data-name="Layer 1" xmlns="http://www.w3.org/2000/svg" xmlns:xlink="http://www.w3.org/1999/xlink">
    <title>government-user</title>
    <path d="M10 10c2.757 0 5-2.243 5-5s-2.243-5-5-5-5 2.243-5 5 2.243 5 5 5zM10 1c2.206 0 4 1.794 4 4s-1.794 4-4 4-4-1.794-4-4 1.794-4 4-4zM19.5 20H18v-1c0-4.411-3.589-8-8-8s-8 3.589-8 8v1H0.5C0.224 20 0 20.224 0 20.5S0.224 21 0.5 21H1v2.5C1 23.776 1.224 24 1.5 24S2 23.776 2 23.5V21h16v2.5c0 0.276 0.224 0.5 0.5 0.5s0.5-0.224 0.5-0.5V21h0.5c0.276 0 0.5-0.224 0.5-0.5S19.776 20 19.5 20zM17 19v1h-4.61l-1.352-5.406 1.425-2.138C15.109 13.456 17 16.008 17 19zM11.462 12.156l-1.378 2.067c-0.078 0.117-0.103 0.262-0.069 0.398L11.36 20H8.64l1.345-5.379c0.034-0.137 9e-3-0.281-0.069-0.398l-1.378-2.067C9.01 12.055 9.498 12 10 12s0.99 0.055 1.462 0.156zM3 19c0-2.992 1.89-5.544 4.537-6.544l1.425 2.138L7.61 20H3zM23.5 0h-6C17.224 0 17 0.224 17 0.5S17.224 1 17.5 1H18v5.052c0 0.384 0.229 0.728 0.584 0.875 0.356 0.147 0.761 0.067 1.05-0.224l0.865-0.957 0.883 0.976c0.182 0.182 0.422 0.277 0.668 0.277 0.122 0 0.246-0.023 0.364-0.072 0.355-0.147 0.584-0.491 0.584-0.875V1h0.5c0.276 0 0.5-0.224 0.5-0.5S23.774 0 23.5 0zM22 5.914 20.871 4.665C20.776 4.56 20.642 4.5 20.5 4.5s-0.276 0.06-0.371 0.165L19 5.914V1h3z" />
</svg>