<svg id="graduation_diploma_Layer_1" viewBox="0 0 24 24" fill="currentColor" width="32" height="32" data-name="Layer 1" xmlns="http://www.w3.org/2000/svg" xmlns:xlink="http://www.w3.org/1999/xlink">
    <title>graduation-diploma</title>
    <path d="M23.122 13.511c-0.578-0.455-1.322-0.616-2.044-0.442-0.578 0.14-1.293 0.304-2.079 0.47V8.795l3.737-1.441c0.767-0.295 1.264-1.018 1.265-1.84 2e-3-0.822-0.492-1.546-1.258-1.845L14.56 0.475c-1.615-0.631-3.396-0.633-5.013-7e-3L1.266 3.672C0.498 3.969 1e-3 4.693 2e-3 5.516s0.497 1.547 1.265 1.843L5 8.799v4.739c-0.786-0.166-1.502-0.33-2.079-0.47-0.723-0.177-1.467-0.013-2.044 0.442C0.32 13.948 1e-3 14.6 1e-3 15.299V18.7c0 0.699 0.319 1.35 0.876 1.789 0.578 0.455 1.322 0.616 2.044 0.442 1.249-0.302 3.123-0.718 5.027-1.021-0.209-0.291-0.394-0.599-0.538-0.931-1.673 0.28-3.342 0.646-4.724 0.981-0.422 0.102-0.855 8e-3-1.191-0.256C1.181 19.456 1 19.091 1 18.701V15.3c0-0.39 0.181-0.756 0.495-1.003 0.336-0.264 0.769-0.358 1.19-0.256 1.382 0.335 3.051 0.701 4.725 0.981 0.144-0.333 0.329-0.641 0.538-0.931-0.662-0.105-1.319-0.225-1.949-0.348V9.186l3.502 1.351c0.803 0.31 1.647 0.465 2.491 0.465s1.687-0.155 2.491-0.465l3.516-1.356v4.562c-0.63 0.123-1.286 0.243-1.949 0.348 0.209 0.291 0.394 0.599 0.538 0.931 1.673-0.28 3.342-0.646 4.724-0.981 0.421-0.102 0.855-8e-3 1.191 0.256 0.314 0.248 0.495 0.613 0.495 1.003v3.401c0 0.39-0.181 0.756-0.495 1.003-0.335 0.264-0.768 0.358-1.19 0.256-1.382-0.335-3.051-0.701-4.725-0.981-0.144 0.333-0.329 0.641-0.538 0.931 1.904 0.303 3.779 0.719 5.028 1.021C21.268 20.977 21.46 21 21.65 21c0.53 0 1.046-0.176 1.472-0.511 0.557-0.438 0.876-1.09 0.876-1.789v-3.401c0-0.699-0.319-1.35-0.876-1.788zM14.123 9.605c-1.374 0.53-2.886 0.53-4.26 0L1.627 6.427C1.167 6.249 1.002 5.84 1.002 5.516s0.164-0.733 0.624-0.911L9.908 1.4c1.385-0.535 2.907-0.533 4.289 6e-3L22.379 4.6C22.838 4.779 23.001 5.188 23 5.512c0 0.323-0.165 0.731-0.625 0.909zM12 14.001c-1.654 0-3 1.346-3 3 0 0.883 0.391 1.67 1 2.22v3.888c0 0.362 0.216 0.685 0.55 0.824 0.336 0.14 0.715 0.062 0.971-0.193l0.478-0.478 0.478 0.478c0.171 0.171 0.398 0.262 0.629 0.262 0.48 7e-3 0.901-0.41 0.892-0.892v-3.888c0.609-0.549 1-1.336 1-2.22 0-1.654-1.346-3-2.998-3.001zM13 22.846 12.354 22.2c-0.195-0.195-0.512-0.195-0.707 0l-0.646 0.646v-3.03c0.314 0.112 0.648 0.184 1 0.184s0.686-0.072 1-0.184zM12 19.001c-1.103 0-2-0.897-2-2s0.897-2 2-2 2 0.897 2 2-0.897 2-2 2z" />
</svg>