<svg id="gramophone_Layer_1" viewBox="0 0 24 24" fill="currentColor" width="32" height="32" data-name="Layer 1" xmlns="http://www.w3.org/2000/svg" xmlns:xlink="http://www.w3.org/1999/xlink">
    <title>gramophone</title>
    <path d="M23.5 23H22v-1.5c0-1.93-1.57-3.5-3.5-3.5H15v-1.5c0-1.378 1.122-2.5 2.5-2.5h3c1.93 0 3.5-1.57 3.5-3.5S22.43 7 20.5 7h-3.338c-0.68-0.226-6.224-2.161-10.19-6.468-0.459-0.5-1.152-0.652-1.806-0.396-0.708 0.276-1.167 0.936-1.167 1.679v11.552c0 0.694 0.419 1.312 1.067 1.574 0.21 0.085 0.425 0.126 0.637 0.126 0.432 0 0.847-0.172 1.165-0.5 4.155-4.291 9.602-6.318 10.298-6.565h3.333c1.378 0 2.5 1.122 2.5 2.5s-1.122 2.5-2.5 2.5h-3c-1.93 0-3.5 1.57-3.5 3.5v1.5H5.5c-1.93 0-3.5 1.57-3.5 3.5v1.5H0.5c-0.276 0-0.5 0.224-0.5 0.5s0.224 0.5 0.5 0.5h23c0.276 0 0.5-0.224 0.5-0.5s-0.224-0.5-0.5-0.502zM6.15 13.87c-0.277 0.287-0.611 0.182-0.708 0.143C5.229 13.927 5 13.711 5 13.366V1.814c0-0.399 0.286-0.652 0.53-0.748 0.058-0.022 0.156-0.052 0.27-0.052 0.137 0 0.297 0.043 0.437 0.195 3.237 3.516 7.368 5.48 9.424 6.304-2.033 0.854-6.13 2.865-9.511 6.357zM3 21.5C3 20.122 4.122 19 5.5 19h13c1.378 0 2.5 1.122 2.5 2.5V23H3z" />
</svg>