<svg id="grape_Layer_1" viewBox="0 0 24 24" fill="currentColor" width="32" height="32" data-name="Layer 1" xmlns="http://www.w3.org/2000/svg" xmlns:xlink="http://www.w3.org/1999/xlink">
    <title>grape</title>
    <path d="M22 9.75C22 7.683 20.317 6 18.25 6c-1.277 0-2.441 0.64-3.127 1.677-0.584-0.876-1.526-1.494-2.615-1.643 0.13-3.959 1.919-5.035 2.992-5.035 0.827 0 1.5 0.673 1.5 1.5 0 0.275-0.225 0.5-0.5 0.5S16 3.223 16 3.499s0.224 0.5 0.5 0.5c0.827 0 1.5-0.673 1.5-1.5 0-1.379-1.121-2.5-2.5-2.5-1.125 0-2.841 0.786-3.607 3.398-0.622-1.452-1.704-2.613-3.169-3.346-0.247-0.123-0.547-0.022-0.671 0.224C7.93 0.522 8.03 0.822 8.277 0.946c1.951 0.975 3.078 2.771 3.21 5.088-1.087 0.15-2.027 0.767-2.61 1.642-0.686-1.037-1.85-1.677-3.127-1.677C3.683 5.999 2 7.682 2 9.749c0 1.963 1.517 3.579 3.44 3.737C5.153 14.023 5 14.626 5 15.249c0 1.86 1.363 3.409 3.142 3.7C8.048 19.289 8 19.64 8 19.999c0 2.206 1.794 4 4 4s4-1.794 4-4c0-0.359-0.048-0.71-0.142-1.05 1.779-0.291 3.142-1.84 3.142-3.7 0-0.627-0.152-1.228-0.438-1.763C20.484 13.327 22 11.711 22 9.75zM12 7c1.517 0 2.75 1.233 2.75 2.75S13.517 12.5 12 12.5 9.25 11.267 9.25 9.75 10.483 7 12 7zM3 9.75C3 8.233 4.233 7 5.75 7 6.863 7 7.86 7.664 8.289 8.692 8.309 8.74 8.335 8.783 8.367 8.82 8.291 9.117 8.25 9.429 8.25 9.75s0.041 0.632 0.117 0.93c-0.031 0.037-0.058 0.08-0.078 0.128C7.86 11.836 6.863 12.5 5.75 12.5 4.233 12.5 3 11.267 3 9.75zM6 15.25c0-0.704 0.266-1.372 0.748-1.885 0.87-0.239 1.627-0.784 2.128-1.543 0.423 0.635 1.034 1.135 1.753 1.418 8e-3 9e-3 0.016 0.018 0.024 0.026 0.545 0.522 0.846 1.228 0.846 1.983 0 1.517-1.233 2.75-2.75 2.75S5.999 16.766 6 15.25zM12 23c-1.654 0-3-1.346-3-3 0-0.355 0.063-0.698 0.185-1.025 1.203-0.14 2.235-0.852 2.815-1.856 0.58 1.004 1.611 1.716 2.815 1.856C14.938 19.302 15 19.646 15 20c0 1.654-1.346 3-3 3zM15.25 18c-1.517 0-2.75-1.233-2.75-2.75 0-0.713 0.272-1.389 0.766-1.903 0.028-0.029 0.05-0.06 0.07-0.093 0.734-0.281 1.358-0.786 1.788-1.431 0.502 0.759 1.259 1.304 2.129 1.543C17.736 13.877 18 14.541 18 15.25 18 16.767 16.767 18 15.25 18zM18.25 12.5c-0.191 0-0.379-0.02-0.561-0.058-0.049-0.02-0.1-0.032-0.153-0.036-0.811-0.217-1.491-0.797-1.825-1.599-0.02-0.048-0.046-0.09-0.078-0.128 0.076-0.297 0.117-0.609 0.117-0.93s-0.041-0.632-0.117-0.93c0.031-0.037 0.058-0.08 0.078-0.128 0.429-1.028 1.426-1.692 2.539-1.692 1.517 0 2.75 1.233 2.75 2.75s-1.233 2.75-2.75 2.751z" />
</svg>