<svg id="graphic_tablet_Layer_1" viewBox="0 0 24 24" fill="currentColor" width="32" height="32" data-name="Layer 1" xmlns="http://www.w3.org/2000/svg" xmlns:xlink="http://www.w3.org/1999/xlink">
    <title>graphic-tablet</title>
    <path d="M19.5 4h-13C4.019 4 2 6.019 2 8.5v3H0.5C0.224 11.5 0 11.724 0 12s0.224 0.5 0.5 0.5H2v3C2 17.981 4.019 20 6.5 20h13c2.481 0 4.5-2.019 4.5-4.5v-7C24 6.019 21.981 4 19.5 4zM3 15.5v-3h1.5C4.776 12.5 5 12.276 5 12s-0.224-0.5-0.5-0.5H3v-3C3 6.57 4.57 5 6.5 5H7v14H6.5C4.57 19 3 17.43 3 15.5zM23 15.5c0 1.93-1.57 3.5-3.5 3.5H8V5h11.5C21.43 5 23 6.57 23 8.5z" />
</svg>