<svg id="graph_curve_Layer_1" viewBox="0 0 24 24" fill="currentColor" width="32" height="32" data-name="Layer 1" xmlns="http://www.w3.org/2000/svg" xmlns:xlink="http://www.w3.org/1999/xlink">
    <title>graph-curve</title>
    <path d="M19.646 10.129 22.775 7H19.5C10.727 7 2.92 13.733 2.077 22.015 2.707 22.622 3.559 23 4.5 23h19c0.276 0 0.5 0.224 0.5 0.5S23.776 24 23.5 24h-19C2.019 24 0 21.981 0 19.5v-19C0 0.224 0.224 0 0.5 0S1 0.224 1 0.5v19c0 0.457 0.094 0.891 0.254 1.291C2.705 12.537 10.628 6 19.5 6h3.229l-3.044-3.126c-0.192-0.197-0.188-0.515 0.01-0.707 0.197-0.193 0.513-0.188 0.707 0.01l3.207 3.293c0.231 0.231 0.432 0.666 0.432 1.043 3e-3 0.388-0.141 0.777-0.437 1.073l-3.25 3.25c-0.098 0.098-0.226 0.146-0.354 0.146s-0.256-0.049-0.354-0.146c-0.195-0.195-0.195-0.512 0-0.707z" />
</svg>