<svg id="grate_droplet_Layer_1" viewBox="0 0 24 24" fill="currentColor" width="32" height="32" data-name="Layer 1" xmlns="http://www.w3.org/2000/svg" xmlns:xlink="http://www.w3.org/1999/xlink">
    <title>grate-droplet</title>
    <path d="M22.678 16.314l-1.801-1.762c-0.761-0.743-1.996-0.741-2.755 0l-1.804 1.766C15.467 17.168 15 18.297 15 19.5s0.468 2.332 1.318 3.182C17.167 23.532 18.297 24 19.5 24s2.331-0.468 3.182-1.318S24 20.703 24 19.5s-0.468-2.332-1.322-3.186zM21.975 21.974c-1.322 1.323-3.629 1.322-4.949 0-0.661-0.661-1.025-1.54-1.025-2.475s0.364-1.813 1.021-2.471l1.8-1.762c0.187-0.183 0.433-0.274 0.679-0.274s0.491 0.092 0.678 0.274l1.797 1.758c0.661 0.661 1.025 1.54 1.025 2.475s-0.364 1.813-1.026 2.475zM12.5 19.999H11v-9h4v2.5c0 0.276 0.224 0.5 0.5 0.5s0.5-0.224 0.5-0.5v-2.5h4v0.5c0 0.276 0.224 0.5 0.5 0.5s0.5-0.224 0.5-0.5v-7c0-2.481-2.019-4.5-4.5-4.5h-12C2.019 0 0 2.019 0 4.5v12C0 18.981 2.019 21 4.5 21h8c0.276 0 0.5-0.224 0.5-0.5s-0.224-0.5-0.5-0.501zM10 19.999H6v-9h4zM6 9.999V1h4v9zM11 9.999V1h4v9zM20 4.499v5.5h-4V1h0.5C18.43 1 20 2.57 20 4.499zM4.5 1H5v9H1V4.5C1 2.57 2.57 1 4.5 1zM1 16.5V11h4v9H4.5C2.57 20 1 18.43 1 16.5z" />
</svg>