<svg id="greater_than_equal_Layer_1" viewBox="0 0 24 24" fill="currentColor" width="32" height="32" data-name="Layer 1" xmlns="http://www.w3.org/2000/svg" xmlns:xlink="http://www.w3.org/1999/xlink">
    <title>greater-than-equal</title>
    <path d="M21 23.5c0 0.276-0.224 0.5-0.5 0.5h-17C3.224 24 3 23.776 3 23.5S3.224 23 3.5 23h17c0.276 0 0.5 0.224 0.5 0.5zM18.799 11.222l-15.5 6.82c-0.253 0.111-0.368 0.406-0.257 0.659C3.125 18.889 3.308 19 3.5 19c0.067 0 0.136-0.014 0.201-0.042l15.487-6.816c1.11-0.452 1.838-1.519 1.811-2.654-0.026-1.091-0.737-2.078-1.795-2.508l-15.5-6.937c-0.251-0.11-0.547 0-0.66 0.252s0 0.548 0.252 0.661l15.516 6.943C19.517 8.185 19.983 8.818 20 9.511c0.018 0.723-0.46 1.408-1.201 1.711z" />
</svg>