<svg id="greater_than_Layer_1" viewBox="0 0 24 24" fill="currentColor" width="32" height="32" data-name="Layer 1" xmlns="http://www.w3.org/2000/svg" xmlns:xlink="http://www.w3.org/1999/xlink">
    <title>greater-than</title>
    <path d="M0.5 24c-0.193 0-0.377-0.112-0.459-0.301-0.109-0.254 7e-3-0.548 0.26-0.658l21.501-9.321c0.738-0.301 1.216-0.985 1.198-1.708-0.017-0.693-0.482-1.326-1.188-1.613L0.299 0.958C0.046 0.847-0.068 0.552 0.042 0.299 0.153 0.047 0.45-0.066 0.701 0.042l21.501 9.437c1.061 0.432 1.771 1.419 1.798 2.509 0.027 1.135-0.7 2.202-1.811 2.654l-21.49 9.317C0.634 23.987 0.566 24 0.5 24z" />
</svg>