<svg id="greek_helmet_Layer_1" viewBox="0 0 24 24" fill="currentColor" width="32" height="32" data-name="Layer 1" xmlns="http://www.w3.org/2000/svg" xmlns:xlink="http://www.w3.org/1999/xlink">
    <title>greek-helmet</title>
    <path d="M23.935 15.252l-1.946-3.406c-0.031-1.413-0.465-2.754-1.268-3.883l1.682-1.522c0.913-1.051 0.69-2.467-0.597-3.789-2.246-2.308-5.737-2.829-8.039-2.577C7.629 0.75 3 6.074 3 12.457v4.25c0 1.521-0.333 2.027-0.692 2.647s-2.044 2.042-2.07 2.084c-0.314 0.531-0.319 1.169-0.014 1.705C0.53 23.68 1.081 24 1.699 24H3.86c1.751 0 3.378-0.944 4.248-2.465C8.691 20.514 9 19.351 9 18.175v-5.902c0-3.361 2.608-6.173 5.814-6.27 1.648-0.053 3.189 0.551 4.363 1.691 1.175 1.14 1.822 2.669 1.822 4.306h-3.591c-0.777 0-1.409 0.632-1.409 1.409 0 0.556 0.328 1.061 0.837 1.288l3.746 1.665 1.388 4.863c0.087 0.438-0.024 0.887-0.308 1.231s-0.701 0.543-1.147 0.543h-3.751c-1.223 0-2.372-0.651-3.001-1.699l-1.835-3.058c-0.142-0.237-0.451-0.314-0.686-0.172-0.237 0.142-0.314 0.449-0.172 0.686l1.835 3.058C13.714 23.163 15.192 24 16.763 24h3.751c0.747 0 1.447-0.331 1.921-0.908 0.474-0.578 0.661-1.329 0.505-2.101l-1.461-5.128c-0.04-0.143-0.142-0.26-0.277-0.32l-3.959-1.76c-0.148-0.065-0.244-0.213-0.244-0.374 0-0.226 0.184-0.409 0.409-0.409h4.086l1.57 2.748C23.157 15.909 23.326 16 23.499 16c0.085 0 0.17-0.021 0.248-0.065 0.24-0.138 0.323-0.443 0.188-0.683zM19.875 6.976c-1.37-1.33-3.175-2.02-5.09-1.973C11.044 5.116 8 8.377 8 12.273v5.902c0 1.003-0.263 1.993-0.76 2.864C6.548 22.249 5.253 23 3.86 23H1.699c-0.254 0-0.48-0.132-0.605-0.353-0.115-0.201-0.123-0.438-0.024-0.645 0 0 1.565-1.274 2.09-2.126s0.841-1.366 0.841-3.171v-4.25C4 6.584 8.246 1.688 13.876 1.069c2.249-0.244 5.347 0.362 7.213 2.28 0.528 0.542 1.303 1.58 0.602 2.392L20.087 7.19c-0.069-0.072-0.14-0.144-0.212-0.214z" />
</svg>