<svg id="grid_lock_Layer_1" viewBox="0 0 24 24" fill="currentColor" width="32" height="32" data-name="Layer 1" xmlns="http://www.w3.org/2000/svg" xmlns:xlink="http://www.w3.org/1999/xlink">
    <title>grid-lock</title>
    <path d="M22 15.351V13.5c0-1.93-1.57-3.5-3.5-3.5S15 11.57 15 13.5v1.851c-1.178 0.564-2 1.758-2 3.149v2c0 1.93 1.57 3.5 3.5 3.5h4c1.93 0 3.5-1.57 3.5-3.5v-2c0-1.391-0.822-2.585-2-3.149zM16 13.5c0-1.378 1.122-2.5 2.5-2.5s2.5 1.122 2.5 2.5v1.551C20.835 15.027 20.671 15 20.5 15h-4c-0.171 0-0.335 0.027-0.5 0.051zM23 20.5c0 1.378-1.122 2.5-2.5 2.5h-4c-1.378 0-2.5-1.122-2.5-2.5v-2c0-1.378 1.122-2.5 2.5-2.5h4c1.378 0 2.5 1.122 2.5 2.5zM19.5 19.5c0 0.552-0.448 1-1 1s-1-0.448-1-1 0.448-1 1-1 1 0.448 1 1zM19.5 0h-15C2.019 0 0 2.019 0 4.5v15C0 21.981 2.019 24 4.5 24H11c0.276 0 0.5-0.224 0.5-0.5S11.276 23 11 23H7v-5h3.5c0.276 0 0.5-0.224 0.5-0.5S10.776 17 10.5 17H7v-4.5h5c0.276 0 0.5-0.224 0.5-0.5V7H17v0.5C17 7.776 17.224 8 17.5 8S18 7.776 18 7.5V7h5v3.5c0 0.276 0.224 0.5 0.5 0.5s0.5-0.224 0.5-0.5v-6C24 2.019 21.981 0 19.5 0zM6 23H4.5C2.57 23 1 21.43 1 19.5V18h5zM6 17H1v-4.5h5zM6 11.5H1V7h5zM6 6H1V4.5C1 2.57 2.57 1 4.5 1H6zM11.5 11.5H7V7h4.5zM11.5 6H7V1h4.5zM17 6h-4.5V1H17zM23 6h-5V1h1.5C21.43 1 23 2.57 23 4.5z" />
</svg>