<svg id="grief_Layer_1" viewBox="0 0 24 24" fill="currentColor" width="32" height="32" data-name="Layer 1" xmlns="http://www.w3.org/2000/svg" xmlns:xlink="http://www.w3.org/1999/xlink">
    <title>grief</title>
    <path d="M19.85 17.991c0.197 0.193 0.201 0.51 8e-3 0.707C17.771 20.827 14.981 22 12.001 22c-0.175 0-0.35-4e-3-0.523-0.013-0.276-0.013-0.489-0.247-0.476-0.522s0.236-0.521 0.523-0.476c2.837 0.12 5.611-0.94 7.619-2.99 0.194-0.197 0.512-0.199 0.706-8e-3zM1.681 8.986c0.261 0.065 0.54-0.097 0.604-0.367C3.381 4.133 7.375 1 12 1s8.619 3.133 9.715 7.619c0.065 0.269 0.34 0.436 0.604 0.367 0.269-0.065 0.433-0.336 0.367-0.604C21.481 3.447 17.087 0 12 0S2.519 3.447 1.313 8.381C1.248 8.649 1.412 8.92 1.681 8.986zM7.343 17.788C7.984 18.536 9 20.206 9 21.5 9 22.879 7.878 24 6.5 24S4 22.879 4 21.5c0-1.271 1.018-2.948 1.66-3.708 0.21-0.248 0.517-0.391 0.841-0.392h2e-3c0.323 0 0.628 0.141 0.84 0.388zM8 21.5c0-0.917-0.823-2.368-1.417-3.062-0.058-0.057-0.111-0.054-0.159 0C5.827 19.144 5 20.6 5 21.5 5 22.327 5.673 23 6.5 23S8 22.327 8 21.5zM2.5 17C1.122 17 0 15.879 0 14.5c0-1.269 1.018-2.948 1.66-3.708 0.21-0.249 0.516-0.391 0.84-0.392 0.301 0.01 0.631 0.141 0.842 0.387C3.983 11.537 5 13.207 5 14.5 5 15.879 3.878 17 2.5 17zM4 14.5c0-0.917-0.823-2.368-1.417-3.063-0.054-0.064-0.107-0.057-0.159 0C1.827 12.144 1 13.602 1 14.499c0 0.827 0.673 1.5 1.5 1.5S4 15.326 4 14.5zM24 14.5c0 1.379-1.121 2.5-2.5 2.5S19 15.879 19 14.5c0-1.27 1.019-2.948 1.66-3.708 0.21-0.248 0.516-0.391 0.84-0.392h4e-3c0.322 0 0.628 0.141 0.839 0.387C22.984 11.538 24 13.209 24 14.5zM23 14.5c0-0.916-0.823-2.368-1.417-3.063-0.06-0.07-0.11-0.061-0.159 0C20.827 12.144 20 13.601 20 14.499c0 0.827 0.673 1.5 1.5 1.5S23 15.326 23 14.5zM5 10.5C5 10.776 5.224 11 5.5 11S6 10.776 6 10.5C6 9.285 6.771 8 7.5 8S9 9.285 9 10.5C9 10.776 9.224 11 9.5 11s0.5-0.224 0.5-0.5C10 8.848 8.931 7 7.5 7S5 8.848 5 10.5zM16.5 7C15.069 7 14 8.848 14 10.5c0 0.276 0.224 0.5 0.5 0.5s0.5-0.224 0.5-0.5C15 9.285 15.771 8 16.5 8S18 9.285 18 10.5c0 0.276 0.224 0.5 0.5 0.5s0.5-0.224 0.5-0.5C19 8.848 17.931 7 16.5 7zM14.787 16.999H9.201c-0.424 0-0.809-0.196-1.031-0.525-0.192-0.286-0.229-0.63-0.101-0.942 0.513-1.258 2.028-2.531 3.93-2.531s3.435 1.309 3.924 2.54c0.124 0.312 0.084 0.653-0.107 0.937-0.223 0.327-0.607 0.522-1.029 0.521zM9.201 16h5.586c0.126 0 0.201-0.07 0.208-0.097C14.621 14.97 13.399 14 11.999 14c-1.446 0-2.627 0.983-3.004 1.908C9.001 15.93 9.075 16 9.201 16z" />
</svg>