<svg id="grill_Layer_1" viewBox="0 0 24 24" fill="currentColor" width="32" height="32" data-name="Layer 1" xmlns="http://www.w3.org/2000/svg" xmlns:xlink="http://www.w3.org/1999/xlink">
    <title>grill</title>
    <path d="M23.429 6.976C22.935 6.356 22.198 6 21.406 6H2.592C1.8 6 1.062 6.355 0.569 6.976 0.069 7.603-0.113 8.41 0.066 9.191c0.803 3.502 3.2 6.379 6.337 7.967l-2.37 6.161c-0.099 0.258 0.029 0.547 0.287 0.646 0.06 0.022 0.12 0.033 0.18 0.033 0.201 0 0.391-0.122 0.467-0.32l2.348-6.104c1.308 0.535 2.721 0.854 4.185 0.913v5.011c0 0.276 0.224 0.5 0.5 0.5s0.5-0.224 0.5-0.5v-5.011c1.464-0.059 2.877-0.378 4.185-0.914l2.348 6.105c0.076 0.198 0.266 0.32 0.467 0.32 0.06 0 0.12-0.011 0.18-0.033 0.258-0.1 0.386-0.389 0.287-0.646l-2.37-6.162c3.136-1.588 5.532-4.466 6.335-7.967 0.18-0.782-4e-3-1.59-0.503-2.214zM22.957 8.969c-1.133 4.942-5.741 8.53-10.957 8.53S2.174 13.911 1.041 8.968c-0.111-0.483 2e-3-0.982 0.31-1.369C1.654 7.218 2.106 7 2.592 7h18.813c0.485 0 0.938 0.218 1.241 0.599 0.309 0.387 0.421 0.886 0.311 1.37zM11.5 3.5v-3C11.5 0.224 11.724 0 12 0s0.5 0.224 0.5 0.5v3C12.5 3.776 12.276 4 12 4s-0.5-0.224-0.5-0.5zM16 3.5v-3C16 0.224 16.224 0 16.5 0S17 0.224 17 0.5v3C17 3.776 16.776 4 16.5 4S16 3.776 16 3.5zM7 3.5v-3C7 0.224 7.224 0 7.5 0S8 0.224 8 0.5v3C8 3.776 7.776 4 7.5 4S7 3.776 7 3.5z" />
</svg>