<svg id="grill_hot_alt_Layer_1" viewBox="0 0 24 24" fill="currentColor" width="32" height="32" data-name="Layer 1" xmlns="http://www.w3.org/2000/svg" xmlns:xlink="http://www.w3.org/1999/xlink">
    <title>grill-hot-alt</title>
    <path d="M16.001 3.5v-3c0-0.276 0.224-0.5 0.5-0.5s0.5 0.224 0.5 0.5v3c0 0.276-0.224 0.5-0.5 0.5s-0.5-0.224-0.5-0.5zM12.001 4c0.276 0 0.5-0.224 0.5-0.5v-3c0-0.276-0.224-0.5-0.5-0.5s-0.5 0.224-0.5 0.5v3c0 0.276 0.224 0.5 0.5 0.5zM23.933 9.192c-0.702 3.063-3.717 6.483-6.407 8.268l2.437 5.848c0.105 0.255-0.015 0.548-0.27 0.654-0.062 0.026-0.128 0.039-0.192 0.039-0.195 0-0.382-0.116-0.462-0.308l-0.705-1.692h-7.832c-0.276 0-0.5-0.224-0.5-0.5s0.224-0.5 0.5-0.5h7.415l-1.261-3.026c-0.05 0.016-0.102 0.026-0.156 0.026H7.334l-0.562 1.348c0.735 0.436 1.229 1.237 1.229 2.152 0 1.378-1.121 2.5-2.5 2.5s-2.5-1.122-2.5-2.5 1.121-2.5 2.5-2.5c0.11 0 0.217 8e-3 0.323 0.022l0.546-1.312c-2.871-1.773-5.593-5.425-6.303-8.519-0.18-0.783 4e-3-1.591 0.503-2.217C1.063 6.356 1.8 6 2.592 6h18.814c0.792 0 1.529 0.355 2.022 0.975 0.499 0.626 0.683 1.434 0.505 2.217zM5.501 20c-0.827 0-1.5 0.673-1.5 1.5s0.673 1.5 1.5 1.5 1.5-0.673 1.5-1.5-0.673-1.5-1.5-1.5zM22.647 7.598C22.344 7.218 21.892 7 21.407 7H2.593c-0.485 0-0.938 0.218-1.24 0.598-0.309 0.386-0.422 0.886-0.311 1.37 0.677 2.95 3.337 6.451 6.09 8.032h9.237c2.649-1.517 5.889-4.978 6.589-8.032 0.111-0.484-2e-3-0.984-0.311-1.37zM7.501 4c0.276 0 0.5-0.224 0.5-0.5v-3c0-0.276-0.224-0.5-0.5-0.5s-0.5 0.224-0.5 0.5v3c0 0.276 0.224 0.5 0.5 0.5z" />
</svg>