<svg id="grimace_Layer_1" viewBox="0 0 24 24" fill="currentColor" width="32" height="32" data-name="Layer 1" xmlns="http://www.w3.org/2000/svg" xmlns:xlink="http://www.w3.org/1999/xlink">
    <title>grimace</title>
    <path d="M12 0C5.383 0 0 5.383 0 12s5.383 12 12 12 12-5.383 12-12S18.617 0 12 0zM12 23C5.935 23 1 18.065 1 12S5.935 1 12 1 23 5.935 23 12 18.065 23 12 23zM8 11c1.103 0 2-0.897 2-2S9.103 7 8 7 6 7.897 6 9s0.897 2 2 2zM8 8c0.552 0 1 0.449 1 1s-0.448 1-1 1-1-0.449-1-1 0.448-1 1-1zM16 11c1.103 0 2-0.897 2-2s-0.897-2-2-2-2 0.897-2 2 0.897 2 2 2zM16 8c0.552 0 1 0.449 1 1s-0.448 1-1 1-1-0.449-1-1 0.448-1 1-1zM16.5 13h-9C6.121 13 5 14.122 5 15.5S6.121 18 7.5 18h9c1.379 0 2.5-1.122 2.5-2.5S17.879 13 16.5 13zM14 14v3h-4v-3zM6 15.5C6 14.673 6.673 14 7.5 14H9v3H7.5C6.673 17 6 16.327 6 15.5zM16.5 17H15v-3h1.5c0.827 0 1.5 0.673 1.5 1.5S17.327 17 16.5 17z" />
</svg>