<svg id="grin_tears_Layer_1" viewBox="0 0 24 24" fill="currentColor" width="32" height="32" data-name="Layer 1" xmlns="http://www.w3.org/2000/svg" xmlns:xlink="http://www.w3.org/1999/xlink">
    <title>grin-tears</title>
    <path d="M12 20c-3.354 0-5.172-2.692-5.798-3.85-0.279-0.516-0.237-1.145 0.107-1.602 0.327-0.435 0.865-0.634 1.403-0.514 0.338 0.074 0.677 0.196 1.036 0.326 0.789 0.285 1.771 0.64 3.251 0.64 1.479 0 2.458-0.355 3.245-0.64 0.358-0.13 0.697-0.253 1.036-0.327 0.536-0.119 1.073 0.079 1.4 0.511 0.345 0.457 0.388 1.086 0.11 1.604v0C17.169 17.306 15.361 20 12 20zM7.402 15c-0.155 0-0.249 0.089-0.293 0.149-0.087 0.116-0.141 0.315-0.027 0.525C7.623 16.674 9.184 19 12 19s4.375-2.325 4.911-3.324v0c0.113-0.212 0.061-0.412-0.027-0.528-0.054-0.072-0.177-0.182-0.39-0.137-0.273 0.06-0.567 0.167-0.909 0.29-0.859 0.312-1.93 0.699-3.585 0.7-1.656 0-2.729-0.388-3.591-0.7-0.341-0.124-0.636-0.23-0.91-0.29C7.464 15.004 7.432 15 7.402 15zM10 10.5C10 8.848 8.931 7 7.5 7S5 8.848 5 10.5C5 10.776 5.224 11 5.5 11S6 10.776 6 10.5C6 9.285 6.771 8 7.5 8S9 9.285 9 10.5C9 10.776 9.224 11 9.5 11s0.5-0.224 0.5-0.5zM19 10.5C19 8.848 17.931 7 16.5 7S14 8.848 14 10.5c0 0.276 0.224 0.5 0.5 0.5s0.5-0.224 0.5-0.5C15 9.285 15.771 8 16.5 8S18 9.285 18 10.5c0 0.276 0.224 0.5 0.5 0.5s0.5-0.224 0.5-0.5zM21.808 18c-0.587 0-1.138-0.228-1.552-0.642v0c-0.776-0.776-1.179-2.413-1.249-3.262-0.025-0.294 0.079-0.585 0.288-0.796 0.208-0.21 0.486-0.323 0.798-0.296 0.845 0.066 2.479 0.465 3.267 1.253 0.415 0.414 0.644 0.965 0.644 1.551s-0.229 1.137-0.644 1.551-0.966 0.642-1.552 0.641zM20.016 14c0.05 0.761 0.428 2.131 0.947 2.65v0c0.451 0.452 1.238 0.452 1.689 0 0.226-0.226 0.351-0.525 0.351-0.844s-0.125-0.618-0.351-0.843c-0.536-0.536-1.875-0.904-2.636-0.963zM2.192 17.999c-0.562 0-1.124-0.214-1.552-0.642-0.414-0.414-0.642-0.964-0.642-1.55s0.228-1.137 0.643-1.551c0.79-0.789 2.423-1.187 3.267-1.253 0.299-0.021 0.588 0.085 0.797 0.295s0.315 0.501 0.29 0.797c-0.071 0.851-0.474 2.487-1.249 3.262v0c-0.428 0.428-0.99 0.642-1.554 0.642zM3.997 14.012c-0.774 0.047-2.114 0.415-2.65 0.951-0.226 0.225-0.35 0.524-0.35 0.843s0.124 0.618 0.35 0.844c0.466 0.466 1.225 0.466 1.69 0v0c0.519-0.518 0.896-1.889 0.96-2.638zM23.51 11.999c0.275-0.012 0.49-0.245 0.479-0.521C23.714 5.042 18.447 0 12 0S0.287 5.042 0.011 11.479C-1e-3 11.755 0.213 11.988 0.489 12c0.286 0.028 0.51-0.202 0.521-0.478C1.263 5.622 6.09 1 12 1s10.737 4.622 10.989 10.521C23.001 11.79 23.222 12 23.489 12zM20.619 20.347c0.192-0.198 0.187-0.515-0.012-0.707-0.197-0.191-0.514-0.186-0.707 0.012C17.81 21.811 15.004 23 11.999 23s-5.811-1.189-7.902-3.348c-0.192-0.199-0.51-0.203-0.707-0.012-0.199 0.192-0.204 0.509-0.012 0.707 2.281 2.355 5.343 3.652 8.621 3.652s6.34-1.297 8.62-3.652z" />
</svg>