<svg id="grin_squint_Layer_1" viewBox="0 0 24 24" fill="currentColor" width="32" height="32" data-name="Layer 1" xmlns="http://www.w3.org/2000/svg" xmlns:xlink="http://www.w3.org/1999/xlink">
    <title>grin-squint</title>
    <path d="M17.5 11c-0.096 0-0.192-0.027-0.277-0.084l-3-2C14.084 8.823 14 8.667 14 8.5s0.084-0.323 0.223-0.416l3-2c0.227-0.152 0.539-0.092 0.693 0.139 0.153 0.23 0.091 0.54-0.139 0.693L15.401 8.5l2.376 1.584c0.229 0.153 0.292 0.463 0.139 0.693C17.819 10.922 17.661 11 17.5 11zM6.777 10.916l3-2C9.916 8.823 10 8.667 10 8.5S9.916 8.177 9.777 8.084l-3-2C6.548 5.933 6.238 5.993 6.084 6.223c-0.153 0.23-0.091 0.54 0.139 0.693L8.599 8.5 6.223 10.084c-0.229 0.153-0.292 0.463-0.139 0.693C6.181 10.922 6.339 11 6.5 11c0.096 0 0.192-0.027 0.277-0.084zM24 12c0-6.617-5.383-12-12-12S0 5.383 0 12 5.383 24 12 24s12-5.383 12-12zM23 12c0 6.065-4.935 11-11 11S1 18.065 1 12 5.935 1 12 1 23 5.935 23 12zM18.764 15.31v0c0.331-0.521 0.316-1.16-0.039-1.668-0.352-0.505-0.939-0.74-1.543-0.606-0.286 0.062-0.612 0.156-0.979 0.261C15.173 13.593 13.761 14 11.997 14c-1.762 0-3.169-0.406-4.197-0.702-0.367-0.106-0.693-0.199-0.981-0.262-0.599-0.132-1.189 0.102-1.542 0.606-0.355 0.508-0.37 1.147-0.039 1.668C6.406 17.146 8.951 19 12.002 19s5.596-1.854 6.762-3.69zM6.604 14.012c0.27 0.059 0.575 0.147 0.919 0.247 1.085 0.312 2.571 0.74 4.474 0.741 1.904 0 3.395-0.429 4.482-0.742 0.344-0.099 0.649-0.187 0.917-0.246 0.297-0.061 0.465 0.139 0.51 0.203 0.045 0.065 0.181 0.297 0.015 0.558v0C16.9 16.379 14.673 18 12.001 18s-4.898-1.621-5.92-3.227c-0.166-0.261-0.03-0.493 0.015-0.558C6.135 14.16 6.266 14 6.492 14c0.035 0 0.073 3e-3 0.112 0.012z" />
</svg>