<svg id="grin_wink_Layer_1" viewBox="0 0 24 24" fill="currentColor" width="32" height="32" data-name="Layer 1" xmlns="http://www.w3.org/2000/svg" xmlns:xlink="http://www.w3.org/1999/xlink">
    <title>grin-wink</title>
    <path d="M16.5 11c-1.055 0-2.5 0-2.5-1.5 0-1.378 1.122-2.5 2.5-2.5S19 8.122 19 9.5c0 1.5-1.445 1.5-2.5 1.5zM16.5 8C15.673 8 15 8.673 15 9.5c0 0.399 0.147 0.5 1.5 0.5S18 9.899 18 9.5C18 8.673 17.327 8 16.5 8zM10 9.5C10 9.224 9.776 9 9.5 9h-4C5.224 9 5 9.224 5 9.5S5.224 10 5.5 10h4C9.776 10 10 9.776 10 9.5zM12 24C5.383 24 0 18.617 0 12S5.383 0 12 0 24 5.383 24 12 18.617 24 12 24zM12 1C5.935 1 1 5.935 1 12s4.935 11 11 11 11-4.935 11-11S18.065 1 12 1zM12 19c-3.05 0-5.595-1.854-6.764-3.69-0.331-0.521-0.316-1.16 0.039-1.668 0.353-0.505 0.943-0.74 1.543-0.606 0.287 0.063 0.613 0.156 0.98 0.262C8.826 13.594 10.234 14 11.996 14c1.764 0 3.176-0.407 4.207-0.703 0.367-0.105 0.692-0.199 0.979-0.261 0.598-0.134 1.189 0.101 1.543 0.606 0.355 0.508 0.37 1.147 0.039 1.668v0C17.595 17.146 15.051 19 12 19zM6.492 14c-0.227 0-0.358 0.16-0.397 0.215-0.045 0.065-0.181 0.297-0.015 0.558C7.102 16.379 9.329 18 12 18s4.898-1.621 5.92-3.227v0c0.166-0.261 0.031-0.493-0.015-0.558-0.044-0.064-0.214-0.264-0.509-0.203-0.268 0.059-0.573 0.147-0.917 0.246-1.088 0.313-2.578 0.741-4.483 0.742-1.904 0-3.39-0.429-4.475-0.742-0.344-0.099-0.649-0.187-0.917-0.246C6.564 14.003 6.527 14 6.492 14z" />
</svg>