<svg id="grin_beam_Layer_1" viewBox="0 0 24 24" fill="currentColor" width="32" height="32" data-name="Layer 1" xmlns="http://www.w3.org/2000/svg" xmlns:xlink="http://www.w3.org/1999/xlink">
    <title>grin-beam</title>
    <path d="M9.5 11C9.224 11 9 10.776 9 10.5 9 9.285 8.229 8 7.5 8S6 9.285 6 10.5C6 10.776 5.776 11 5.5 11S5 10.776 5 10.5C5 8.848 6.069 7 7.5 7S10 8.848 10 10.5c0 0.276-0.224 0.5-0.5 0.5zM19 10.5C19 8.848 17.931 7 16.5 7S14 8.848 14 10.5c0 0.276 0.224 0.5 0.5 0.5s0.5-0.224 0.5-0.5C15 9.285 15.771 8 16.5 8S18 9.285 18 10.5c0 0.276 0.224 0.5 0.5 0.5s0.5-0.224 0.5-0.5zM24 12c0-6.617-5.383-12-12-12S0 5.383 0 12 5.383 24 12 24s12-5.383 12-12zM23 12c0 6.065-4.935 11-11 11S1 18.065 1 12 5.935 1 12 1 23 5.935 23 12zM18.764 15.31v0c0.331-0.521 0.316-1.16-0.039-1.668-0.354-0.505-0.945-0.74-1.543-0.606-0.287 0.062-0.612 0.156-0.979 0.261C15.172 13.593 13.76 14 11.996 14c-1.763 0-3.17-0.406-4.198-0.702-0.367-0.106-0.693-0.199-0.98-0.262-0.6-0.133-1.19 0.101-1.543 0.606-0.355 0.508-0.37 1.147-0.039 1.668C6.405 17.146 8.949 19 12 19s5.595-1.854 6.764-3.69zM6.604 14.012c0.269 0.059 0.574 0.147 0.917 0.246 1.085 0.313 2.571 0.741 4.475 0.742 1.905 0 3.395-0.429 4.483-0.742 0.343-0.099 0.648-0.187 0.917-0.246 0.295-0.061 0.465 0.139 0.509 0.203 0.045 0.065 0.181 0.297 0.015 0.558v0C16.898 16.379 14.671 18 12 18s-4.898-1.621-5.92-3.227c-0.166-0.261-0.031-0.493 0.015-0.558C6.134 14.16 6.265 14 6.492 14c0.035 0 0.072 3e-3 0.112 0.012z" />
</svg>