<svg id="grin_tongue_Layer_1" viewBox="0 0 24 24" fill="currentColor" width="32" height="32" data-name="Layer 1" xmlns="http://www.w3.org/2000/svg" xmlns:xlink="http://www.w3.org/1999/xlink">
    <title>grin-tongue</title>
    <path d="M12 0C5.383 0 0 5.383 0 12s5.383 12 12 12 12-5.383 12-12S18.617 0 12 0zM12 23C5.935 23 1 18.065 1 12S5.935 1 12 1 23 5.935 23 12 18.065 23 12 23zM16.5 15h-9C7.224 15 7 15.224 7 15.5S7.224 16 7.5 16H9v0.5c0 1.683 1.147 3.5 3 3.5s3-1.817 3-3.5V16h1.5c0.276 0 0.5-0.224 0.5-0.5S16.776 15 16.5 15zM14 16.5c0 1.202-0.765 2.5-2 2.5s-2-1.298-2-2.5V16h4zM9 10c0 0.552-0.448 1-1 1s-1-0.448-1-1 0.448-1 1-1 1 0.448 1 1zM16 9c-0.552 0-1 0.448-1 1s0.448 1 1 1 1-0.448 1-1-0.448-1-1-1z" />
</svg>