<svg id="grin_hearts_Layer_1" viewBox="0 0 24 24" fill="currentColor" width="32" height="32" data-name="Layer 1" xmlns="http://www.w3.org/2000/svg" xmlns:xlink="http://www.w3.org/1999/xlink">
    <title>grin-hearts</title>
    <path d="M12 24C5.383 24 0 18.617 0 12S5.383 0 12 0 24 5.383 24 12 18.617 24 12 24zM12 1C5.935 1 1 5.935 1 12s4.935 11 11 11 11-4.935 11-11S18.065 1 12 1zM16.5 12.306c-0.276 0-0.553-0.091-0.778-0.272C14.481 11.037 13 9.554 13 8.15 13 6.964 13.897 6 15 6c0.597 0 1.133 0.282 1.5 0.729C16.867 6.282 17.403 6 18 6c1.103 0 2 0.964 2 2.15 0 1.404-1.48 2.887-2.722 3.884-0.226 0.181-0.502 0.271-0.778 0.272zM15 7c-0.552 0-1 0.516-1 1.15 0 0.763 0.878 1.924 2.349 3.105 0.088 0.07 0.215 0.07 0.303 0 1.471-1.181 2.349-2.342 2.349-3.105 0-0.634-0.448-1.15-1-1.15s-1 0.516-1 1.15c0 0.276-0.224 0.5-0.5 0.5s-0.5-0.224-0.5-0.5C16.001 7.516 15.553 7 15 7zM7.5 12.306c-0.276 0-0.553-0.091-0.778-0.272C5.481 11.037 4 9.554 4 8.15 4 6.964 4.897 6 6 6 6.597 6 7.133 6.282 7.5 6.729 7.867 6.282 8.403 6 9 6c1.103 0 2 0.964 2 2.15 0 1.404-1.48 2.887-2.722 3.884-0.226 0.181-0.502 0.271-0.778 0.272zM6 7C5.448 7 5 7.516 5 8.15c0 0.763 0.878 1.924 2.349 3.105 0.088 0.07 0.215 0.07 0.303 0 1.471-1.181 2.349-2.342 2.349-3.105 0-0.634-0.448-1.15-1-1.15s-1 0.516-1 1.15c0 0.276-0.224 0.5-0.5 0.5s-0.5-0.224-0.5-0.5C7.001 7.516 6.553 7 6 7zM12 20c-3.051 0-5.596-1.854-6.764-3.69-0.331-0.521-0.316-1.16 0.039-1.668 0.352-0.505 0.942-0.739 1.542-0.606 0.288 0.063 0.614 0.156 0.981 0.262C8.826 14.594 10.234 15 11.995 15c1.764 0 3.176-0.407 4.206-0.703 0.367-0.105 0.693-0.199 0.979-0.261 0.604-0.133 1.191 0.101 1.543 0.606 0.355 0.508 0.37 1.147 0.039 1.668v0C17.594 18.146 15.049 20 12 20zM6.491 15c-0.227 0-0.357 0.16-0.396 0.215-0.045 0.065-0.181 0.297-0.015 0.558C7.101 17.379 9.328 19 12 19s4.898-1.621 5.92-3.227v0c0.166-0.261 0.03-0.493-0.015-0.558-0.045-0.064-0.211-0.264-0.51-0.203-0.268 0.059-0.573 0.147-0.917 0.246C15.39 15.57 13.9 15.999 11.996 16c-1.902 0-3.389-0.429-4.474-0.741-0.344-0.099-0.649-0.188-0.919-0.247C6.564 15.003 6.526 15 6.491 15z" />
</svg>