<svg id="grin_squint_tears_Layer_1" viewBox="0 0 24 24" fill="currentColor" width="32" height="32" data-name="Layer 1" xmlns="http://www.w3.org/2000/svg" xmlns:xlink="http://www.w3.org/1999/xlink">
    <title>grin-squint-tears</title>
    <path d="M12.828 19.001c-0.635 0-1.233-0.084-1.759-0.201-0.539-0.12-0.95-0.551-1.047-1.097-0.098-0.551 0.133-1.08 0.602-1.381 0.25-0.16 0.529-0.302 0.84-0.457 0.707-0.354 1.586-0.796 2.597-1.805 1.009-1.01 1.451-1.89 1.805-2.597 0.155-0.311 0.297-0.59 0.457-0.84 0.299-0.469 0.831-0.698 1.38-0.602 0.546 0.097 0.977 0.507 1.097 1.046v0c0.377 1.698 0.408 4.14-1.589 6.138-1.38 1.38-2.971 1.794-4.383 1.796zM17.459 11.001c-0.086 0-0.208 0.028-0.295 0.163-0.142 0.222-0.267 0.473-0.405 0.749-0.387 0.771-0.868 1.731-1.992 2.855-1.125 1.124-2.084 1.605-2.855 1.992-0.276 0.138-0.526 0.263-0.748 0.405-0.18 0.115-0.169 0.293-0.157 0.365 0.01 0.057 0.06 0.246 0.279 0.295 1.452 0.321 3.537 0.355 5.217-1.324 1.676-1.677 1.643-3.761 1.32-5.213v0c-0.049-0.22-0.238-0.27-0.295-0.279-0.018-3e-3-0.042-6e-3-0.069-8e-3zM6.5 24C5.122 24 4 22.878 4 21.5c0-1.293 1.017-2.964 1.658-3.713 0.21-0.246 0.516-0.387 0.839-0.387H6.5c0.324 0 0.63 0.144 0.84 0.392C7.982 18.552 9 20.231 9 21.5 9 22.878 7.878 24 6.5 24zM6.417 18.437C5.823 19.132 5 20.583 5 21.5 5 22.327 5.673 23 6.5 23S8 22.327 8 21.5c0-0.898-0.827-2.355-1.424-3.062zM21.5 8.999c-1.269 0-2.948-1.018-3.708-1.66-0.249-0.21-0.391-0.516-0.392-0.84s0.14-0.631 0.387-0.842c0.75-0.641 2.42-1.658 3.713-1.658 1.378 0 2.5 1.122 2.5 2.5s-1.122 2.5-2.5 2.5zM18.437 6.575c0.707 0.597 2.165 1.424 3.063 1.424 0.827 0 1.5-0.673 1.5-1.5s-0.673-1.5-1.5-1.5c-0.917 0-2.368 0.823-3.063 1.417zM11.598 8.989l3.536-0.707c0.271-0.054 0.446-0.317 0.392-0.588s-0.316-0.45-0.588-0.392l-2.8 0.56 0.56-2.8c0.054-0.271-0.122-0.534-0.392-0.588-0.269-0.056-0.535 0.121-0.588 0.392l-0.707 3.536c-0.033 0.164 0.019 0.333 0.137 0.452C11.243 8.949 11.37 9 11.502 9c0.033 0 0.065-3e-3 0.096-0.011zM8.283 15.133 8.99 11.597c0.033-0.164-0.019-0.333-0.137-0.452-0.119-0.118-0.288-0.169-0.452-0.137l-3.536 0.707c-0.271 0.054-0.446 0.317-0.392 0.588s0.315 0.449 0.588 0.392l2.8-0.56-0.56 2.8c-0.054 0.271 0.122 0.534 0.392 0.588 0.033 7e-3 0.066 0.01 0.099 0.01 0.233 0 0.442-0.164 0.491-0.4zM2.794 18.911c0.228-0.156 0.286-0.467 0.129-0.695-1.258-1.834-1.924-3.984-1.924-6.217C1 5.935 5.935 1 12 1c2.233 0 4.383 0.666 6.217 1.924 0.229 0.158 0.54 0.099 0.695-0.129 0.156-0.228 0.099-0.539-0.129-0.695C16.782 0.726 14.436 0 12 0 5.383 0 0 5.383 0 12c0 2.436 0.726 4.782 2.1 6.783C2.197 18.925 2.353 19 2.513 19c0.098 0 0.196-0.028 0.281-0.089zM24 11.999c0-0.522-0.034-1.049-0.102-1.564-0.036-0.274-0.286-0.471-0.56-0.431-0.274 0.036-0.467 0.287-0.431 0.56C22.969 11.038 23 11.521 23 12c0 6.065-4.935 11-11 11-0.479 0-0.962-0.031-1.436-0.093-0.276-0.041-0.525 0.157-0.56 0.431-0.036 0.273 0.157 0.524 0.431 0.56C10.951 23.965 11.477 24 11.999 24c6.617 0 12-5.383 12.001-12.001z" />
</svg>