<svg id="grin_tongue_wink_Layer_1" viewBox="0 0 24 24" fill="currentColor" width="32" height="32" data-name="Layer 1" xmlns="http://www.w3.org/2000/svg" xmlns:xlink="http://www.w3.org/1999/xlink">
    <title>grin-tongue-wink</title>
    <path d="M16.5 15h-9C7.224 15 7 15.224 7 15.5S7.224 16 7.5 16H9v0.5c0 1.683 1.147 3.5 3 3.5s3-1.817 3-3.5V16h1.5c0.276 0 0.5-0.224 0.5-0.5S16.776 15 16.5 15zM14 16.5c0 1.202-0.765 2.5-2 2.5s-2-1.298-2-2.5V16h4zM12 0C5.383 0 0 5.383 0 12s5.383 12 12 12 12-5.383 12-12S18.617 0 12 0zM12 23C5.935 23 1 18.065 1 12S5.935 1 12 1 23 5.935 23 12 18.065 23 12 23zM16.5 7C15.122 7 14 8.122 14 9.5 14 11 15.445 11 16.5 11S19 11 19 9.5C19 8.122 17.878 7 16.5 7zM16.5 10C15.147 10 15 9.899 15 9.5 15 8.673 15.673 8 16.5 8S18 8.673 18 9.5c0 0.399-0.147 0.5-1.5 0.5zM9.5 10h-4C5.224 10 5 9.776 5 9.5S5.224 9 5.5 9h4C9.776 9 10 9.224 10 9.5S9.776 10 9.5 10z" />
</svg>