<svg id="grin_Layer_1" viewBox="0 0 24 24" fill="currentColor" width="32" height="32" data-name="Layer 1" xmlns="http://www.w3.org/2000/svg" xmlns:xlink="http://www.w3.org/1999/xlink">
    <title>grin</title>
    <path d="M12 24C5.383 24 0 18.617 0 12S5.383 0 12 0 24 5.383 24 12 18.617 24 12 24zM12 1C5.935 1 1 5.935 1 12s4.935 11 11 11 11-4.935 11-11S18.065 1 12 1zM12 19c-3.051 0-5.596-1.854-6.764-3.69-0.331-0.521-0.316-1.16 0.039-1.668 0.353-0.505 0.943-0.739 1.542-0.606 0.288 0.063 0.614 0.156 0.981 0.262C8.826 13.594 10.234 14 11.995 14c1.764 0 3.176-0.407 4.206-0.703 0.367-0.105 0.693-0.199 0.979-0.261 0.604-0.134 1.191 0.101 1.543 0.606 0.355 0.508 0.37 1.147 0.039 1.668v0C17.594 17.146 15.049 19 12 19zM6.491 14c-0.227 0-0.357 0.16-0.396 0.215-0.045 0.065-0.181 0.297-0.015 0.558C7.101 16.379 9.328 18 12 18s4.898-1.621 5.92-3.227v0c0.166-0.261 0.03-0.493-0.015-0.558-0.045-0.064-0.213-0.265-0.51-0.203-0.268 0.059-0.573 0.147-0.917 0.246C15.39 14.57 13.9 14.999 11.996 15c-1.902 0-3.389-0.429-4.474-0.741-0.344-0.099-0.649-0.188-0.919-0.247C6.564 14.003 6.526 14 6.491 14zM9 10c0 0.552-0.448 1-1 1s-1-0.448-1-1 0.448-1 1-1 1 0.448 1 1zM16 9c-0.552 0-1 0.448-1 1s0.448 1 1 1 1-0.448 1-1-0.448-1-1-1z" />
</svg>