<svg id="grin_tongue_squint_Layer_1" viewBox="0 0 24 24" fill="currentColor" width="32" height="32" data-name="Layer 1" xmlns="http://www.w3.org/2000/svg" xmlns:xlink="http://www.w3.org/1999/xlink">
    <title>grin-tongue-squint</title>
    <path d="M16.5 15h-9C7.224 15 7 15.224 7 15.5S7.224 16 7.5 16H9v0.5c0 1.683 1.147 3.5 3 3.5s3-1.817 3-3.5V16h1.5c0.276 0 0.5-0.224 0.5-0.5S16.776 15 16.5 15zM14 16.5c0 1.202-0.765 2.5-2 2.5s-2-1.298-2-2.5V16h4zM17.777 7.916 15.401 9.5l2.376 1.584c0.229 0.153 0.292 0.463 0.139 0.693C17.819 11.922 17.661 12 17.5 12c-0.096 0-0.192-0.027-0.277-0.084l-3-2C14.084 9.823 14 9.667 14 9.5s0.084-0.323 0.223-0.416l3-2c0.227-0.153 0.539-0.092 0.693 0.139 0.153 0.23 0.091 0.54-0.139 0.693zM9.777 9.916l-3 2C6.692 11.973 6.595 12 6.5 12c-0.161 0-0.319-0.078-0.416-0.223-0.153-0.23-0.091-0.54 0.139-0.693L8.599 9.5 6.223 7.916C5.994 7.763 5.931 7.453 6.084 7.223c0.154-0.23 0.465-0.291 0.693-0.139l3 2C9.916 9.177 10 9.333 10 9.5S9.916 9.823 9.777 9.916zM12 0C5.383 0 0 5.383 0 12s5.383 12 12 12 12-5.383 12-12S18.617 0 12 0zM12 23C5.935 23 1 18.065 1 12S5.935 1 12 1 23 5.935 23 12 18.065 23 12 23z" />
</svg>