<svg id="grip_horizontal_Layer_1" viewBox="0 0 24 24" fill="currentColor" width="32" height="32" data-name="Layer 1" xmlns="http://www.w3.org/2000/svg" xmlns:xlink="http://www.w3.org/1999/xlink">
    <title>grip-horizontal</title>
    <path d="M4.5 4h-2C1.122 4 0 5.122 0 6.5v2C0 9.327 0.673 10 1.5 10h3C5.327 10 6 9.327 6 8.5v-3C6 4.673 5.327 4 4.5 4zM5 8.5C5 8.776 4.776 9 4.5 9h-3C1.224 9 1 8.776 1 8.5v-2C1 5.673 1.673 5 2.5 5h2C4.776 5 5 5.224 5 5.5zM13.5 4h-3C9.673 4 9 4.673 9 5.5v3C9 9.327 9.673 10 10.5 10h3c0.827 0 1.5-0.673 1.5-1.5v-3C15 4.673 14.327 4 13.5 4zM14 8.5C14 8.776 13.776 9 13.5 9h-3C10.224 9 10 8.776 10 8.5v-3C10 5.224 10.224 5 10.5 5h3C13.776 5 14 5.224 14 5.5zM21.5 4h-2C18.673 4 18 4.673 18 5.5v3c0 0.827 0.673 1.5 1.5 1.5h3c0.827 0 1.5-0.673 1.5-1.5v-2C24 5.122 22.878 4 21.5 4zM23 8.5C23 8.776 22.776 9 22.5 9h-3C19.224 9 19 8.776 19 8.5v-3C19 5.224 19.224 5 19.5 5h2C22.327 5 23 5.673 23 6.5zM4.5 14h-3C0.673 14 0 14.673 0 15.5v2C0 18.878 1.122 20 2.5 20h2C5.327 20 6 19.327 6 18.5v-3C6 14.673 5.327 14 4.5 14zM5 18.5C5 18.776 4.776 19 4.5 19h-2C1.673 19 1 18.327 1 17.5v-2C1 15.224 1.224 15 1.5 15h3C4.776 15 5 15.224 5 15.5zM13.5 14h-3C9.673 14 9 14.673 9 15.5v3c0 0.827 0.673 1.5 1.5 1.5h3c0.827 0 1.5-0.673 1.5-1.5v-3c0-0.827-0.673-1.5-1.5-1.5zM14 18.5c0 0.276-0.224 0.5-0.5 0.5h-3c-0.276 0-0.5-0.224-0.5-0.5v-3c0-0.276 0.224-0.5 0.5-0.5h3c0.276 0 0.5 0.224 0.5 0.5zM22.5 14h-3c-0.827 0-1.5 0.673-1.5 1.5v3c0 0.827 0.673 1.5 1.5 1.5h2c1.378 0 2.5-1.122 2.5-2.5v-2c0-0.827-0.673-1.5-1.5-1.5zM23 17.5c0 0.827-0.673 1.5-1.5 1.5h-2c-0.276 0-0.5-0.224-0.5-0.5v-3c0-0.276 0.224-0.5 0.5-0.5h3c0.276 0 0.5 0.224 0.5 0.5z" />
</svg>