<svg id="group_arrows_rotate_Layer_1" viewBox="0 0 24 24" fill="currentColor" width="32" height="32" data-name="Layer 1" xmlns="http://www.w3.org/2000/svg" xmlns:xlink="http://www.w3.org/1999/xlink">
    <title>group-arrows-rotate</title>
    <path d="M0.532 10.996C0.553 10.999 0.576 11 0.597 11c0.247 0 0.462-0.184 0.495-0.436 0.186-1.424 0.65-2.767 1.36-4.008 0.453 0.275 0.979 0.443 1.547 0.443 1.654 0 3-1.346 3-3 0-0.568-0.168-1.094-0.443-1.547 1.242-0.71 2.585-1.175 4.007-1.36 0.273-0.036 0.467-0.286 0.432-0.56-0.036-0.274-0.296-0.47-0.561-0.431-1.621 0.211-3.15 0.747-4.553 1.582C5.365 1.262 4.715 1 3.998 1c-1.654 0-3 1.346-3 3 0 0.716 0.263 1.366 0.683 1.883-0.832 1.402-1.369 2.931-1.58 4.553-0.035 0.273 0.157 0.524 0.431 0.56zM4 2c1.103 0 2 0.897 2 2S5.103 6 4 6 2 5.103 2 4 2.897 2 4 2zM10.564 22.907c-1.422-0.185-2.766-0.65-4.007-1.36C6.832 21.094 7 20.568 7 20c0-1.654-1.346-3-3-3-0.568 0-1.094 0.168-1.547 0.443-0.709-1.241-1.174-2.584-1.36-4.007-0.036-0.274-0.293-0.47-0.561-0.431-0.274 0.036-0.467 0.287-0.432 0.56 0.212 1.622 0.748 3.151 1.583 4.553C1.262 18.634 1 19.284 1 20.001c0 1.654 1.346 3 3 3 0.716 0 1.366-0.263 1.883-0.683 1.403 0.835 2.932 1.371 4.553 1.582 0.021 3e-3 0.044 4e-3 0.065 4e-3 0.247 0 0.462-0.184 0.495-0.436 0.035-0.274-0.158-0.524-0.432-0.561zM4 22c-1.103 0-2-0.897-2-2s0.897-2 2-2 2 0.897 2 2-0.897 2-2 2zM23.468 13.004c-0.267-0.039-0.524 0.157-0.561 0.431-0.186 1.423-0.65 2.766-1.36 4.007-0.453-0.275-0.979-0.443-1.547-0.443-1.654 0-3 1.346-3 3 0 0.568 0.168 1.094 0.443 1.547-1.242 0.71-2.585 1.175-4.007 1.36-0.273 0.036-0.467 0.286-0.432 0.56 0.033 0.252 0.248 0.436 0.495 0.436 0.021 0 0.044-1e-3 0.065-4e-3 1.621-0.211 3.15-0.747 4.553-1.582 0.516 0.421 1.166 0.683 1.883 0.683 1.654 0 3-1.346 3-3 0-0.716-0.263-1.365-0.683-1.882 0.834-1.403 1.37-2.932 1.582-4.554 0.035-0.273-0.157-0.524-0.431-0.559zM20 22c-1.103 0-2-0.897-2-2s0.897-2 2-2 2 0.897 2 2-0.897 2-2 2zM13.436 1.093c1.422 0.185 2.766 0.65 4.007 1.36C17.168 2.906 17 3.432 17 4c0 1.654 1.346 3 3 3 0.568 0 1.094-0.168 1.547-0.443 0.709 1.241 1.174 2.584 1.36 4.007C22.94 10.816 23.155 11 23.402 11c0.021 0 0.044-1e-3 0.065-4e-3 0.274-0.036 0.467-0.287 0.432-0.56-0.212-1.622-0.748-3.151-1.583-4.553 0.421-0.516 0.683-1.166 0.683-1.883 0-1.654-1.346-3-3-3-0.716 0-1.366 0.263-1.883 0.683-1.403-0.835-2.932-1.371-4.553-1.582-0.27-0.039-0.524 0.157-0.561 0.431-0.035 0.274 0.158 0.524 0.434 0.561zM20 2c1.103 0 2 0.897 2 2s-0.897 2-2 2-2-0.897-2-2 0.897-2 2-2zM11.824 4.353c-0.195-0.196-0.193-0.513 2e-3-0.708 0.196-0.195 0.513-0.192 0.707 2e-3l2.206 2.222C14.889 6.019 15 6.268 15 6.5s-0.11 0.48-0.261 0.631l-2.206 2.221c-0.098 0.098-0.226 0.147-0.354 0.147-0.127 0-0.255-0.048-0.353-0.145-0.195-0.195-0.197-0.511-2e-3-0.708l1.635-1.647h-1.46c-2.757 0-5 2.243-5 5 0 0.801 0.184 1.566 0.545 2.272 0.126 0.246 0.028 0.547-0.218 0.673-0.072 0.037-0.15 0.055-0.228 0.055-0.182 0-0.356-0.099-0.445-0.272-0.435-0.849-0.654-1.766-0.654-2.728 0-3.309 2.691-6 6-6h1.46zM12.176 19.648c0.195 0.196 0.193 0.513-2e-3 0.708-0.098 0.097-0.226 0.145-0.353 0.145-0.129 0-0.257-0.049-0.354-0.147l-2.206-2.222C9.111 17.982 9 17.731 9 17.501s0.11-0.48 0.261-0.631l2.206-2.221c0.194-0.195 0.511-0.198 0.707-2e-3 0.195 0.195 0.197 0.511 2e-3 0.708l-1.635 1.647h1.46c2.757 0 5-2.243 5-5 0-0.801-0.184-1.566-0.545-2.272-0.126-0.246-0.028-0.547 0.218-0.673 0.244-0.124 0.547-0.028 0.673 0.218 0.435 0.849 0.654 1.766 0.654 2.728 0 3.309-2.691 6-6 6h-1.46z" />
</svg>