<svg id="guide_Layer_1" viewBox="0 0 24 24" fill="currentColor" width="32" height="32" data-name="Layer 1" xmlns="http://www.w3.org/2000/svg" xmlns:xlink="http://www.w3.org/1999/xlink">
    <title>guide</title>
    <path d="M6.5 12c3.309 0 6-2.691 6-6 0-0.341-0.035-0.674-0.09-1h2.09C14.776 5 15 4.776 15 4.5S14.776 4 14.5 4h-2.35C11.324 1.673 9.107 0 6.5 0c-3.309 0-6 2.691-6 6s2.691 6 6 6zM6.5 1c2.045 0 3.802 1.237 4.576 3H1.924C2.698 2.237 4.455 1 6.5 1zM1.601 5h9.798C11.465 5.323 11.5 5.658 11.5 6c0 2.757-2.243 5-5 5s-5-2.243-5-5c0-0.342 0.035-0.677 0.101-1zM12.13 17.25C12.699 18.233 13 19.357 13 20.5v3c0 0.276-0.224 0.5-0.5 0.5S12 23.776 12 23.5v-3c0-0.967-0.254-1.918-0.735-2.75-0.139-0.238-0.057-0.545 0.183-0.683 0.235-0.139 0.544-0.057 0.682 0.183zM23.348 1.581c-0.025-0.017-3.277-1.461-3.474-1.52-0.438-0.132-0.9-0.049-1.271 0.227-0.378 0.28-0.604 0.728-0.604 1.196V8.5c0 0.782-0.374 1.53-1 2l-4.268 3.2c-0.257 0.193-0.577 0.3-0.899 0.3H6.499c-3.584 0-6.5 2.916-6.5 6.5v3c0 0.276 0.224 0.5 0.5 0.5s0.5-0.224 0.5-0.5v-3c0-3.032 2.468-5.5 5.5-5.5h5.333c0.538 0 1.071-0.178 1.5-0.5l4.267-3.2c0.877-0.657 1.4-1.704 1.4-2.8V6.309l4.348-2.175c0.408-0.281 0.652-0.758 0.652-1.276s-0.244-0.995-0.651-1.277zM22.841 3.274 19 5.191V1.484c0-0.154 0.074-0.301 0.199-0.394 0.051-0.038 0.144-0.091 0.263-0.091 0.039 0 0.435 0.123 0.585 0.19l2.764 1.237C22.93 2.523 23 2.681 23 2.856c0 0.188-0.082 0.358-0.159 0.418z" />
</svg>