<svg id="guitars_Layer_1" viewBox="0 0 24 24" fill="currentColor" width="32" height="32" data-name="Layer 1" xmlns="http://www.w3.org/2000/svg" xmlns:xlink="http://www.w3.org/1999/xlink">
    <title>guitars</title>
    <path d="M22.56 17.479C21.991 16.638 21.5 15.911 21.5 15c0-0.885 0.263-1.635 0.566-2.503C22.482 11.309 23 9.83 23 7.5 23 7.224 22.776 7 22.5 7S22 7.224 22 7.5c0 0.791-0.335 3.303-4.5 3.489V0.949c0-0.423-0.273-0.787-0.68-0.905-0.404-0.118-0.828 0.042-1.054 0.397C14.595 2.283 14 3.649 14 4.5c0 0.804 1.365 1.717 2.5 1.946v4.538C12.105 10.7 12.002 6.673 12 6.495 12 6.489 12 6 11.5 6S11 6.504 11 6.504c0 2.708 0.534 4.462 0.963 5.872 0.3 0.987 0.537 1.767 0.537 2.624 0 0.909-0.491 1.637-1.06 2.479-0.675 1-1.44 2.133-1.44 3.771 0 2.719 3.88 2.75 4.045 2.75h5.909c0.165 0 4.045-0.031 4.045-2.752 0-1.639-0.765-2.771-1.439-3.769zM15 4.5c0-0.607 0.545-1.821 1.5-3.349v4.274C15.785 5.228 15.075 4.693 15 4.5zM19.955 23h-5.909C14.016 23 11 22.973 11 21.25c0-1.332 0.616-2.245 1.269-3.211C12.874 17.143 13.5 16.215 13.5 15c0-1.006-0.269-1.891-0.581-2.915-0.182-0.599-0.374-1.231-0.536-1.955 0.873 1.026 2.296 1.87 4.616 1.87 2.181 0 3.67-0.565 4.619-1.399-0.151 0.578-0.328 1.085-0.496 1.565-0.32 0.915-0.623 1.779-0.623 2.834 0 1.217 0.626 2.143 1.231 3.039 0.652 0.965 1.269 1.876 1.269 3.209 0 1.725-3.016 1.752-3.044 1.752zM7 15c0.276 0 0.5-0.224 0.5-0.5V9.007c0.335 9e-3 0.654 0.028 0.954 0.056 0.272 0.025 0.519-0.177 0.544-0.452S8.821 8.092 8.546 8.067C8.217 8.036 7.866 8.016 7.5 8.007V5.176l0.952-1.19C8.805 3.544 9 2.989 9 2.424V1.501c0-0.827-0.673-1.5-1.5-1.5h-1c-0.827 0-1.5 0.673-1.5 1.5v0.938c0 0.57 0.198 1.128 0.557 1.573L6.5 5.178v2.83C2.85 8.104 1 9.278 1 11.501c0 0.694 0.31 1.4 0.583 2.023C1.788 13.992 2 14.475 2 14.795c0 0.355-0.308 0.779-0.665 1.27C0.74 16.883 0 17.902 0 19.438 0 21.997 3.075 24 7 24c0.535 0 1.063-0.036 1.569-0.106 0.273-0.038 0.464-0.291 0.426-0.564-0.038-0.274-0.293-0.467-0.564-0.426C7.971 22.968 7.49 23 7 23c-3.756 0-6-1.812-6-3.562 0-1.211 0.608-2.047 1.144-2.785C2.584 16.048 3 15.476 3 14.795c0-0.529-0.244-1.085-0.501-1.672C2.254 12.563 2 11.985 2 11.501 2 10.904 2 9.13 6.5 9.008v5.493c0 0.276 0.224 0.5 0.5 0.499zM6 2.438V1.5C6 1.224 6.224 1 6.5 1h1C7.776 1 8 1.224 8 1.5v0.923C8 2.762 7.883 3.095 7.671 3.36L6.998 4.202 6.334 3.382C6.119 3.115 6 2.78 6 2.438zM19 19.5c0 0.276-0.224 0.5-0.5 0.5h-3c-0.276 0-0.5-0.224-0.5-0.5s0.224-0.5 0.5-0.5h3c0.276 0 0.5 0.224 0.5 0.5zM19 16.5c0 0.276-0.224 0.5-0.5 0.5h-3c-0.276 0-0.5-0.224-0.5-0.5s0.224-0.5 0.5-0.5h3c0.276 0 0.5 0.224 0.5 0.5z" />
</svg>