<svg id="guitar_electric_Layer_1" viewBox="0 0 24 24" fill="currentColor" width="32" height="32" data-name="Layer 1" xmlns="http://www.w3.org/2000/svg" xmlns:xlink="http://www.w3.org/1999/xlink">
    <title>guitar-electric</title>
    <path d="M23.219 0.525c-0.201-0.376-0.618-0.572-1.036-0.49-0.53 0.105-5.184 1.079-5.184 2.932 0 0.378 0.202 1.703 1.03 2.296l-4.915 4.915c-1.601-1.947-1.423-5.02 0.495-6.945l0.349-0.396c0.181-0.206 0.164-0.519-0.04-0.702-0.204-0.184-0.517-0.169-0.702 0.032-0.929 1.005-1.433 1.482-1.802 1.831-0.531 0.502-0.773 0.731-1.479 1.796-1.337 2.021-2.617 2.625-4.813 3.147-0.29 0.069-0.57 0.131-0.838 0.189-1.224 0.27-2.19 0.483-2.779 1.076-3.244 3.262-0.649 5.946 2.098 8.788l1.253 1.311c1.862 1.969 3.469 3.67 5.34 3.694h0.039c1.021 0 2.013-0.499 3.032-1.524 0.634-0.638 0.997-1.857 1.405-3.385 0.628-2.35 1.307-3.25 3.458-4.586 0.915-0.568 1.186-0.887 1.677-1.467 0.315-0.372 0.748-0.882 1.546-1.685 0.185-0.187 0.195-0.484 0.022-0.682-0.174-0.199-0.47-0.228-0.679-0.069-2.012 1.525-5.064 1.604-6.862 0.269l9.216-9.213c0.302-0.301 0.369-0.756 0.169-1.132zM18.913 12.547c-0.379 0.443-0.605 0.671-1.309 1.108-2.366 1.469-3.203 2.582-3.897 5.178-0.291 1.086-0.652 2.438-1.148 2.938-0.832 0.836-1.567 1.214-2.35 1.229-1.447-0.019-2.92-1.577-4.625-3.381L4.323 18.3c-3.062-3.168-4.546-4.935-2.108-7.387 0.383-0.385 1.265-0.58 2.286-0.805 0.272-0.06 0.558-0.123 0.854-0.193 2.351-0.559 3.91-1.293 5.416-3.568 0.154-0.232 0.281-0.419 0.392-0.574-0.393 1.938 0.114 4.008 1.537 5.435 1.609 1.616 4.083 1.918 6.213 1.339zM18.767 4.526C18.171 4.331 18.001 3.133 18 2.967c0-0.491 1.953-1.471 4.343-2.017zM11.853 15.147c0.195 0.195 0.195 0.512 0 0.707C11.755 15.952 11.627 16 11.499 16s-0.256-0.049-0.354-0.146l-3-3c-0.195-0.195-0.195-0.512 0-0.707s0.512-0.195 0.707 0zM9.353 17.647c0.195 0.195 0.195 0.512 0 0.707C9.255 18.452 9.127 18.5 8.999 18.5s-0.256-0.049-0.354-0.146l-3-3c-0.195-0.195-0.195-0.512 0-0.707s0.512-0.195 0.707 0z" />
</svg>