<svg id="guitar_Layer_1" viewBox="0 0 24 24" fill="currentColor" width="32" height="32" data-name="Layer 1" xmlns="http://www.w3.org/2000/svg" xmlns:xlink="http://www.w3.org/1999/xlink">
    <title>guitar</title>
    <path d="M9.5 12C8.121 12 7 13.121 7 14.5S8.121 17 9.5 17 12 15.879 12 14.5 10.879 12 9.5 12zM9.5 16C8.673 16 8 15.327 8 14.5S8.673 13 9.5 13 11 13.673 11 14.5 10.327 16 9.5 16zM6.854 19.146c0.195 0.195 0.195 0.512 0 0.707-0.098 0.098-0.226 0.146-0.354 0.146s-0.256-0.049-0.354-0.146l-2-2c-0.195-0.195-0.195-0.512 0-0.707s0.512-0.195 0.707 0zM23.336 0.664c-0.885-0.885-2.322-0.885-3.207 0l-0.215 0.215c-1.185 1.185-1.858 2.743-1.91 4.41l-2.193 2.193C13.56 5.556 10.333 5.49 8.413 7.411 8.267 7.557 8.135 7.709 8.014 7.869 7.492 8.557 6.812 8.968 6.1 9.024 4.474 9.153 3.028 9.808 1.919 10.917c-2.762 2.762-2.504 7.512 0.574 10.59 1.648 1.648 3.776 2.488 5.822 2.488 1.773 0 3.485-0.632 4.768-1.914 1.108-1.108 1.764-2.555 1.893-4.182 0.057-0.711 0.467-1.391 1.155-1.913 0.16-0.121 0.312-0.254 0.458-0.399 1.921-1.921 1.857-5.147-0.071-7.398l2.193-2.193c1.667-0.052 3.226-0.726 4.41-1.91l0.215-0.215c0.884-0.884 0.884-2.323 0-3.207zM15.881 14.881c-0.112 0.112-0.231 0.216-0.354 0.31-0.919 0.697-1.469 1.632-1.548 2.631-0.111 1.387-0.665 2.615-1.604 3.554-2.371 2.371-6.486 2.114-9.176-0.574-2.688-2.688-2.945-6.805-0.574-9.176 0.938-0.938 2.167-1.492 3.553-1.604 1-0.079 1.935-0.629 2.632-1.548 0.094-0.123 0.197-0.242 0.31-0.354 0.75-0.75 1.753-1.117 2.8-1.117 1.094 0 2.234 0.402 3.182 1.19l-1.954 1.954c-0.195 0.195-0.195 0.512 0 0.707C13.246 10.952 13.374 11 13.502 11s0.256-0.049 0.354-0.146l1.955-1.955c1.543 1.855 1.606 4.449 0.07 5.982zM22.629 3.164 22.414 3.379c-0.921 0.921-2.109 1.478-3.39 1.597 0.119-1.28 0.676-2.469 1.597-3.39l0.215-0.215C21.083 1.124 21.408 1 21.732 1s0.649 0.124 0.896 0.371c0.494 0.494 0.494 1.299 1e-3 1.793z" />
</svg>