<svg id="gun_shooting_Layer_1" viewBox="0 0 24 24" fill="currentColor" width="32" height="32" data-name="Layer 1" xmlns="http://www.w3.org/2000/svg" xmlns:xlink="http://www.w3.org/1999/xlink">
    <title>gun-shooting</title>
    <path d="M15 6V5.5C15 5.224 14.776 5 14.5 5S14 5.224 14 5.5V6H3C2.611 6 2.114 6.146 1.953 6.875 1.817 7.403 1.404 7.816 0.842 7.96 0.147 8.114 1e-3 8.61 1e-3 9v1.473c0 1.125 0.382 2.093 1.076 2.725 0.294 0.269 0.38 0.815 0.22 1.335l-1.142 3.105C-0.47 19.204 0.816 21.047 2.502 21h0.716c1.331 0 2.484-0.855 2.871-2.129L6.961 16h1.22c1.558 0 2.905-1.002 3.353-2.495L11.686 13h2.375c1.077 0 2.03-0.687 2.372-1.71l0.491-1.478c0.052-0.154 0.078-0.313 0.078-0.475V7.999c0-1.103-0.897-2-2.002-1.999zM5.131 18.581C4.873 19.43 4.105 20 3.217 20H2.501c-1.012 0.031-1.787-1.078-1.408-2.018l1.149-3.129C2.449 14.182 2.41 13.52 2.153 13h4.673zM10.574 13.218C10.255 14.284 9.292 15 8.179 15H7.263l0.607-2h2.769zM14.058 12H1.5c-0.039 0-0.076 4e-3-0.112 0.013C1.138 11.596 1 11.061 1 10.473L0.97 8.961 1.125 8.922c0.881-0.228 1.57-0.916 1.796-1.797C2.922 7.12 2.999 7.006 3 7h12c0.552 0 1 0.449 1 1v1H3.5C3.224 9 3 9.224 3 9.5S3.224 10 3.5 10h12.306l-0.324 0.974C15.278 11.588 14.706 12 14.058 12zM23.998 9.525c0.022 0.398-0.222 0.816-0.622 1.016l-2.012 0.671 1.294 1.238c0.805 0.729 0.055 2.139-0.983 1.914l-1.039-0.118 0.328 1.313c0.124 0.504-0.097 1.009-0.549 1.258-0.444 0.246-0.991 0.176-1.348-0.195l-1.458-1.808c-0.414-0.499 0.38-1.138 0.779-0.627l1.429 1.775c0.086 0.043 0.225-0.102 0.176-0.162l-0.503-2.011c-0.092-0.325 0.21-0.668 0.542-0.618l1.791 0.205c0.176 0.03 0.21-0.157 0.138-0.209l-1.887-1.805c-0.271-0.245-0.162-0.731 0.188-0.836l2.733-0.907c0 0 5e-3-0.062 4e-3-0.094l-2.748-1.054c-0.344-0.11-0.445-0.59-0.178-0.832l1.893-1.812c0.061-0.028 0.026-0.235-0.108-0.208l-1.826 0.209C19.701 5.88 19.398 5.535 19.49 5.21l0.503-2.012c0.046-0.068-0.101-0.232-0.205-0.127l-1.399 1.742c-0.4 0.511-1.193-0.128-0.779-0.627l1.429-1.775c0.767-0.872 2.228-0.063 1.926 1.028l-0.328 1.314 1.074-0.123c0.998-0.216 1.748 1.208 0.954 1.913l-1.314 1.258 1.972 0.706c0.625 0.307 0.689 0.768 0.675 1.018z" />
</svg>