<svg id="gun_Layer_1" viewBox="0 0 24 24" fill="currentColor" width="32" height="32" data-name="Layer 1" xmlns="http://www.w3.org/2000/svg" xmlns:xlink="http://www.w3.org/1999/xlink">
    <title>gun</title>
    <path d="M23 4c0-1.103-0.897-2-2-2V1.5C21 1.224 20.776 1 20.5 1S20 1.224 20 1.5V2H3C2.611 2 2.114 2.146 1.953 2.875 1.817 3.403 1.404 3.816 0.842 3.96 0.147 4.114 1e-3 4.61 1e-3 5v1.7c0 1.131 0.658 2.121 1.639 2.462 0.323 0.113 1.307 0.455 0.776 2.316l-2.251 6.547C-0.542 19.895 1.004 22.06 3.002 22h1.055c1.503 0 2.808-0.965 3.248-2.403L9.016 14h1.964c2.447 0 4.564-1.575 5.268-3.92L16.572 9h3.192C20.717 9 21.573 8.471 22 7.618L22.309 7H23c0.551 0 1-0.449 1-1V5c0-0.551-0.449-1-1-1zM6.349 19.305C6.038 20.319 5.118 21 4.057 21H3.002C1.67 21.041 0.64 19.596 1.11 18.35l2.258-6.572C3.758 10.411 3.526 9.546 3.103 9h6.396zM15.29 9.793C14.714 11.711 12.982 13 10.98 13H9.322l0.612-2h1.078c1.113 0 2.075-0.716 2.395-1.782L13.472 9h2.056zM10.239 10l0.306-1h1.87c-0.213 0.598-0.762 1-1.404 1zM22 5H4.5C4.224 5 4 5.224 4 5.5S4.224 6 4.5 6h17.191l-0.585 1.171C20.85 7.682 20.336 8 19.765 8H1.583C1.227 7.708 1 7.225 1 6.7L0.97 4.961 1.125 4.922c0.881-0.228 1.57-0.916 1.796-1.797C2.922 3.12 2.999 3.006 3 3h18c0.551 0 1 0.449 1 1z" />
</svg>