<svg id="gym_Layer_1" viewBox="0 0 24 24" fill="currentColor" width="32" height="32" data-name="Layer 1" xmlns="http://www.w3.org/2000/svg" xmlns:xlink="http://www.w3.org/1999/xlink">
    <title>gym</title>
    <path d="M23.14 7.886l-3.169-3.15 1.883-1.883c0.195-0.195 0.195-0.512 0-0.707s-0.512-0.195-0.707 0l-1.885 1.885-3.164-3.144C15.537 0.318 14.788 3e-3 13.99 0c-0.816 5e-3-1.552 0.307-2.117 0.872-1.145 1.144-1.158 3.02-0.025 4.185l3.185 3.205-6.764 6.763-3.146-3.146c-1.17-1.17-3.072-1.17-4.242 0C0.315 12.445 2e-3 13.199 2e-3 14s0.312 1.555 0.879 2.121l3.146 3.146-1.879 1.879c-0.195 0.195-0.195 0.512 0 0.707 0.098 0.098 0.226 0.146 0.354 0.146s0.256-0.049 0.354-0.146l1.879-1.879 3.147 3.147c0.585 0.585 1.353 0.877 2.121 0.877s1.536-0.292 2.121-0.877c0.566-0.566 0.879-1.32 0.879-2.121s-0.313-1.555-0.879-2.121l-3.147-3.147 6.762-6.761 3.108 3.128c0.561 0.576 1.312 0.896 2.115 0.901h0.02c0.796 0 1.542-0.31 2.148-0.916 1.152-1.152 1.159-3.034 0.01-4.198zM12 21c0 0.534-0.208 1.036-0.586 1.414-0.779 0.779-2.049 0.779-2.828 0l-7-7C1.208 15.036 1 14.534 1 14s0.208-1.036 0.586-1.414c0.39-0.39 0.902-0.585 1.414-0.585s1.024 0.195 1.414 0.585l3.496 3.496c0 0 2e-3 3e-3 3e-3 4e-3s3e-3 2e-3 4e-3 3e-3l3.497 3.497C11.792 19.964 12 20.466 12 21zM22.377 11.421C22.003 11.795 21.508 12 20.98 12h-0.014c-0.533-3e-3-1.032-0.216-1.408-0.603L12.56 4.355c-0.75-0.771-0.741-2.016 0.02-2.776C12.954 1.205 13.45 1 13.978 1h8e-3c0.53 2e-3 1.027 0.211 1.403 0.593l7.042 6.999c0.76 0.771 0.756 2.021-0.054 2.829z" />
</svg>