<svg id="h_square_Layer_1" viewBox="0 0 24 24" fill="currentColor" width="32" height="32" data-name="Layer 1" xmlns="http://www.w3.org/2000/svg" xmlns:xlink="http://www.w3.org/1999/xlink">
    <title>h-square</title>
    <path d="M19.5 0h-15C2.019 0 0 2.019 0 4.5v15C0 21.981 2.019 24 4.5 24h15c2.481 0 4.5-2.019 4.5-4.5v-15C24 2.019 21.981 0 19.5 0zM23 19.5c0 1.93-1.57 3.5-3.5 3.5h-15C2.57 23 1 21.43 1 19.5v-15C1 2.57 2.57 1 4.5 1h15C21.43 1 23 2.57 23 4.5zM18 5.5v13c0 0.276-0.224 0.5-0.5 0.5S17 18.776 17 18.5v-6H7v6C7 18.776 6.776 19 6.5 19S6 18.776 6 18.5v-13C6 5.224 6.224 5 6.5 5S7 5.224 7 5.5v6h10v-6C17 5.224 17.224 5 17.5 5S18 5.224 18 5.5z" />
</svg>