<svg id="h1_Layer_1" viewBox="0 0 24 24" fill="currentColor" width="32" height="32" data-name="Layer 1" xmlns="http://www.w3.org/2000/svg" xmlns:xlink="http://www.w3.org/1999/xlink">
    <title>h1</title>
    <path d="M14 4.5v15c0 0.276-0.224 0.5-0.5 0.5S13 19.776 13 19.5V12H3v7.5C3 19.776 2.776 20 2.5 20S2 19.776 2 19.5v-15C2 4.224 2.224 4 2.5 4S3 4.224 3 4.5V11h10V4.5C13 4.224 13.224 4 13.5 4S14 4.224 14 4.5zM21.691 4.038c-0.188-0.076-0.402-0.034-0.545 0.108l-3 3c-0.195 0.195-0.195 0.512 0 0.707s0.512 0.195 0.707 0l2.146-2.146V19.5c0 0.276 0.224 0.5 0.5 0.5s0.5-0.224 0.5-0.5v-15c0-0.202-0.122-0.385-0.308-0.462z" />
</svg>