<svg id="h2_Layer_1" viewBox="0 0 24 24" fill="currentColor" width="32" height="32" data-name="Layer 1" xmlns="http://www.w3.org/2000/svg" xmlns:xlink="http://www.w3.org/1999/xlink">
    <title>h2</title>
    <path d="M12 4.5v15c0 0.276-0.224 0.5-0.5 0.5S11 19.776 11 19.5V12H1v7.5C1 19.776 0.776 20 0.5 20S0 19.776 0 19.5v-15C0 4.224 0.224 4 0.5 4S1 4.224 1 4.5V11h10V4.5C11 4.224 11.224 4 11.5 4S12 4.224 12 4.5zM23.5 19l-7.803-2e-3c-0.278 0-0.514-0.149-0.629-0.399-0.121-0.262-0.08-0.552 0.109-0.775 0.666-0.785 1.881-1.485 3.167-2.226 2.719-1.566 5.802-3.341 5.652-6.878C23.884 6.074 21.689 4 18.999 4c-2.759 0-5.003 2.244-5.003 5.003 0 0.276 0.224 0.5 0.5 0.5s0.5-0.224 0.5-0.5C14.996 6.796 16.792 5 18.999 5c2.152 0 3.908 1.652 3.998 3.763 0.125 2.931-2.558 4.475-5.152 5.968-1.364 0.786-2.653 1.527-3.431 2.446-0.442 0.521-0.539 1.227-0.254 1.842 0.28 0.604 0.869 0.979 1.537 0.979L23.5 20c0.276 0 0.5-0.224 0.5-0.5S23.776 19 23.5 19z" />
</svg>