<svg id="h3_Layer_1" viewBox="0 0 24 24" fill="currentColor" width="32" height="32" data-name="Layer 1" xmlns="http://www.w3.org/2000/svg" xmlns:xlink="http://www.w3.org/1999/xlink">
    <title>h3</title>
    <path d="M12 4.5v15c0 0.276-0.224 0.5-0.5 0.5S11 19.776 11 19.5V12H1v7.5C1 19.776 0.776 20 0.5 20S0 19.776 0 19.5v-15C0 4.224 0.224 4 0.5 4S1 4.224 1 4.5V11h10V4.5C11 4.224 11.224 4 11.5 4S12 4.224 12 4.5zM21.245 10.533C22.293 9.928 23 8.795 23 7.5 23 5.57 21.43 4 19.5 4h-5C14.224 4 14 4.224 14 4.5S14.224 5 14.5 5h5C20.879 5 22 6.121 22 7.5S20.879 10 19.5 10h-3c-0.276 0-0.5 0.224-0.5 0.5s0.224 0.5 0.5 0.5H19c2.206 0 4 1.794 4 4s-1.794 4-4 4h-4.5c-0.276 0-0.5 0.224-0.5 0.5s0.224 0.5 0.5 0.5H19c2.757 0 5-2.243 5-5 0-1.95-1.123-3.643-2.755-4.467z" />
</svg>