<svg id="h4_Layer_1" viewBox="0 0 24 24" fill="currentColor" width="32" height="32" data-name="Layer 1" xmlns="http://www.w3.org/2000/svg" xmlns:xlink="http://www.w3.org/1999/xlink">
    <title>h4</title>
    <path d="M12 4.5v15c0 0.276-0.224 0.5-0.5 0.5S11 19.776 11 19.5V12H1v7.5C1 19.776 0.776 20 0.5 20S0 19.776 0 19.5v-15C0 4.224 0.224 4 0.5 4S1 4.224 1 4.5V11h10V4.5C11 4.224 11.224 4 11.5 4S12 4.224 12 4.5zM23.5 4C23.224 4 23 4.224 23 4.5V14h-5.833C15.972 14 15 13.028 15 11.833V4.5C15 4.224 14.776 4 14.5 4S14 4.224 14 4.5v7.333C14 13.579 15.421 15 17.167 15H23v4.5c0 0.276 0.224 0.5 0.5 0.5s0.5-0.224 0.5-0.5v-15C24 4.224 23.776 4 23.5 4z" />
</svg>