<svg id="haircut_Layer_1" viewBox="0 0 24 24" fill="currentColor" width="32" height="32" data-name="Layer 1" xmlns="http://www.w3.org/2000/svg" xmlns:xlink="http://www.w3.org/1999/xlink">
    <title>haircut</title>
    <path d="M4.973 7.766l2.75-2.137 2.182 1.69c0.819 0.453 1.692 0.682 2.595 0.682 0.276 0 0.5-0.224 0.5-0.5s-0.224-0.5-0.5-0.5c-0.731 0-1.442-0.188-2.047-0.515L8.535 4.998l1.853-1.44c0.67-0.37 1.381-0.557 2.112-0.557 0.276 0 0.5-0.224 0.5-0.5s-0.224-0.5-0.5-0.5c-0.902 0-1.775 0.229-2.66 0.725L7.723 4.369 4.974 2.236C4.839 0.984 3.789 2e-3 2.501 2e-3 1.121 0 0 1.122 0 2.5S1.121 5 2.5 5c1.065 0 1.97-0.672 2.33-1.612l2.08 1.61-2.08 1.614C4.47 5.672 3.566 5 2.501 5c-1.379 0-2.5 1.122-2.5 2.5s1.121 2.5 2.5 2.5c1.288 0 2.339-0.982 2.472-2.234zM2.5 4C1.673 4 1 3.327 1 2.5S1.673 1 2.5 1 4 1.673 4 2.5 3.327 4 2.5 4zM1 7.5C1 6.673 1.673 6 2.5 6S4 6.673 4 7.5 3.327 9 2.5 9 1 8.327 1 7.5zM24 14.045c0 0.584-0.412 1.455-1.546 1.455h-0.648l-0.37 1.873C21.02 19.475 19.164 21 17.021 21H17v0.5c0 1.378-1.121 2.5-2.5 2.5h-7C6.121 24 5 22.878 5 21.5v-0.997c0-0.776-0.27-1.534-0.779-2.192-1.329-1.928-1.896-2.98-2.218-5.754-0.031-0.274 0.165-0.522 0.439-0.554 0.268-0.038 0.521 0.164 0.555 0.439 0.297 2.573 0.767 3.445 2.031 5.279C5.658 18.533 6 19.502 6 20.503V21.5C6 22.327 6.673 23 7.5 23h7c0.827 0 1.5-0.673 1.5-1.5v-1c0-0.276 0.224-0.5 0.5-0.5h0.521c1.666 0 3.11-1.187 3.435-2.821l0.449-2.275c0.046-0.234 0.251-0.403 0.49-0.403h1.06c0.438 0 0.539-0.251 0.546-0.462 0-0.768-2.782-6.574-4.357-8.188-0.04-0.044-1.363-1.607-3.294-2.219-0.263-0.083-0.409-0.364-0.325-0.627 0.084-0.264 0.36-0.411 0.628-0.326 2.217 0.703 3.672 2.43 3.733 2.503 1.569 1.605 4.615 7.662 4.614 8.863z" />
</svg>