<svg id="hairbrush_Layer_1" viewBox="0 0 24 24" fill="currentColor" width="32" height="32" data-name="Layer 1" xmlns="http://www.w3.org/2000/svg" xmlns:xlink="http://www.w3.org/1999/xlink">
    <title>hairbrush</title>
    <path d="M9.485 14.727l1.375 1.426c0.191 0.199 0.186 0.516-0.014 0.707-0.198 0.192-0.515 0.186-0.707-0.013l-1.375-1.426c-0.191-0.199-0.186-0.516 0.014-0.707 0.198-0.192 0.514-0.185 0.707 0.013zM13.986 13.18c0.126 0 0.253-0.047 0.35-0.143 0.197-0.193 0.201-0.51 8e-3-0.707l-2.567-2.619c-0.194-0.196-0.511-0.2-0.707-7e-3-0.197 0.193-0.201 0.51-8e-3 0.707l2.567 2.619c0.099 0.1 0.228 0.15 0.357 0.15zM16.181 11.19c0.197-0.193 0.201-0.51 8e-3-0.707l-2.567-2.619c-0.193-0.196-0.511-0.201-0.707-7e-3-0.197 0.193-0.201 0.51-8e-3 0.707l2.567 2.619c0.194 0.197 0.51 0.201 0.707 7e-3zM18.004 2.764c0.192 0.198 0.51 0.202 0.707 0.01 0.198-0.192 0.202-0.509 0.01-0.707l-1.864-1.916c-0.191-0.197-0.51-0.202-0.707-0.01-0.198 0.192-0.202 0.509-0.01 0.707zM17.678 9.487c0.126 0 0.253-0.047 0.35-0.143 0.197-0.193 0.201-0.51 8e-3-0.707l-2.567-2.619c-0.194-0.195-0.511-0.201-0.707-7e-3-0.197 0.193-0.201 0.51-8e-3 0.707l2.567 2.619c0.099 0.1 0.228 0.15 0.357 0.15zM11.935 14.872c0.126 0 0.252-0.047 0.349-0.142 0.198-0.193 0.202-0.509 0.01-0.707l-1.888-1.939c-0.194-0.198-0.51-0.2-0.707-0.01-0.198 0.193-0.202 0.509-0.01 0.707l1.888 1.939c0.099 0.101 0.228 0.151 0.358 0.152zM21.112 5.873c0.192 0.198 0.509 0.205 0.707 0.013 0.199-0.191 0.205-0.508 0.014-0.707l-1.375-1.427c-0.192-0.198-0.509-0.204-0.707-0.013-0.199 0.191-0.205 0.508-0.014 0.707zM17.108 4.664c-0.198 0.193-0.202 0.509-0.01 0.707l1.888 1.939c0.193 0.198 0.51 0.202 0.707 0.01 0.198-0.193 0.202-0.509 0.01-0.707l-1.888-1.939c-0.193-0.198-0.51-0.201-0.707-0.01zM7.057 13.713c0.192 0.198 0.51 0.202 0.707 0.01 0.198-0.192 0.202-0.509 0.01-0.707L5.91 11.1c-0.192-0.198-0.51-0.202-0.707-0.01-0.198 0.192-0.202 0.509-0.01 0.707zM15.365 3.688c0.193 0.197 0.51 0.201 0.707 8e-3s0.201-0.51 8e-3-0.707l-2.431-2.483c-0.192-0.196-0.51-0.201-0.707-8e-3s-0.201 0.51-8e-3 0.707zM7.981 11.073c0.193 0.197 0.51 0.201 0.707 8e-3s0.201-0.51 8e-3-0.707L6.265 7.89c-0.191-0.197-0.511-0.201-0.707-8e-3-0.197 0.193-0.201 0.51-8e-3 0.707zM23.868 8.102c-0.135 0.809-0.379 1.616-0.704 2.411-1.855 4.521-6.608 8.431-11.606 8.489-1.322 0-2.52-0.313-3.533-0.907L2.56 23.561C2.268 23.853 1.883 24 1.5 24s-0.768-0.146-1.06-0.439C0.157 23.278 1e-3 22.901 1e-3 22.5s0.156-0.777 0.439-1.061l5.462-5.464c-0.24-0.411-0.436-0.854-0.582-1.329-0.081-0.264 0.066-0.544 0.331-0.625 0.263-0.08 0.543 0.067 0.624 0.331 0.254 0.825 0.676 1.538 1.255 2.117 1.279 1.279 3.198 1.78 5.408 1.414 0.485-0.081 0.971-0.209 1.453-0.368l-0.947-0.98c-0.192-0.199-0.187-0.515 0.012-0.707 0.201-0.191 0.518-0.187 0.707 0.012l1.246 1.29c0.515-0.227 1.022-0.5 1.517-0.808l-1.469-1.517c-0.191-0.199-0.187-0.515 0.012-0.707 0.198-0.192 0.515-0.187 0.707 0.011l1.587 1.638c0 0 3e-3 5e-3 4e-3 7e-3 0.43-0.316 0.845-0.665 1.246-1.04l-1.709-1.754c-0.192-0.198-0.188-0.515 0.01-0.707 0.196-0.192 0.513-0.188 0.707 9e-3l1.7 1.744c0.373-0.4 0.72-0.813 1.035-1.242-6e-3-6e-3-0.015-8e-3-0.021-0.014l-1.586-1.638c-0.192-0.198-0.187-0.515 0.012-0.707 0.198-0.191 0.515-0.186 0.707 0.012l1.457 1.504c0.302-0.486 0.571-0.982 0.795-1.487l-1.265-1.309c-0.192-0.199-0.187-0.515 0.012-0.707 0.2-0.191 0.517-0.187 0.707 0.012l0.939 0.971c0.16-0.486 0.289-0.975 0.371-1.464 0.368-2.208-0.135-4.128-1.414-5.409-0.58-0.579-1.292-1.002-2.117-1.255-0.264-0.082-0.412-0.361-0.33-0.625 0.08-0.264 0.355-0.415 0.625-0.331 0.981 0.302 1.832 0.808 2.529 1.504 1.515 1.515 2.116 3.745 1.691 6.281zM7.195 17.512c-0.127-0.107-0.254-0.216-0.372-0.334-0.119-0.119-0.224-0.248-0.331-0.376l-5.345 5.346c-0.194 0.186-0.194 0.521 0 0.707 0.195 0.195 0.512 0.195 0.707 0zM12.973 4.988c0.194 0.197 0.51 0.201 0.707 7e-3 0.197-0.193 0.201-0.51 8e-3-0.708l-2.424-2.475c-0.193-0.195-0.511-0.2-0.707-7e-3-0.197 0.193-0.201 0.51-8e-3 0.708zM11.126 6.834c0.194 0.197 0.51 0.201 0.707 7e-3 0.197-0.193 0.201-0.51 8e-3-0.708L9.417 3.658c-0.193-0.196-0.51-0.2-0.707-7e-3s-0.201 0.51-8e-3 0.708zM9.28 8.68c0.194 0.197 0.51 0.201 0.707 7e-3 0.197-0.193 0.201-0.51 8e-3-0.708L7.571 5.504c-0.194-0.196-0.51-0.2-0.707-7e-3s-0.201 0.51-8e-3 0.708z" />
</svg>