<svg id="hairdryer_Layer_1" viewBox="0 0 24 24" fill="currentColor" width="32" height="32" data-name="Layer 1" xmlns="http://www.w3.org/2000/svg" xmlns:xlink="http://www.w3.org/1999/xlink">
    <title>hairdryer</title>
    <path d="M22.913 1.407c-0.68-0.439-1.527-0.503-2.264-0.169l-3.301 1.49C14.088 1.429 10.056 0 7 0 3.14 0 0 3.14 0 7c0 3.068 1.988 5.676 4.741 6.618l3.49 8.534C8.674 23.255 9.744 24 11 24c0.391 0 0.782-0.078 1.154-0.232 1.526-0.636 2.251-2.396 1.615-3.924l-2.73-6.527c1.962-0.561 4.095-1.4 6.306-2.288l3.234 1.724c0.334 0.165 0.692 0.246 1.05 0.246 1.266 0.023 2.403-1.097 2.372-2.375V3.401c0-0.81-0.406-1.555-1.088-1.994zM1 7c0-3.309 2.691-6 6-6 2.893 0 6.82 1.396 10 2.663v6.426c-3.769 1.514-7.316 2.909-10 2.909-3.309 0-6-2.691-6-5.998zM12.845 20.229c0.424 1.018-0.06 2.191-1.077 2.616-1.019 0.425-2.192-0.06-2.614-1.074l-3.214-7.86C6.286 13.964 6.638 14 6.999 14c0.942 0 1.973-0.166 3.061-0.427zM22.999 10.624c0 0.478-0.242 0.914-0.648 1.165-0.405 0.253-0.902 0.279-1.318 0.073l-3.034-1.618V3.531l3.061-1.382c0.434-0.195 0.911-0.161 1.31 0.098 0.399 0.258 0.628 0.679 0.628 1.154z" />
</svg>