<svg id="hamburger_soda_Layer_1" viewBox="0 0 24 24" fill="currentColor" width="32" height="32" data-name="Layer 1" xmlns="http://www.w3.org/2000/svg" xmlns:xlink="http://www.w3.org/1999/xlink">
    <title>hamburger-soda</title>
    <path d="M19.5 13h-3.325l0.764-5.942c0.167-0.745-0.012-1.513-0.489-2.108s-1.188-0.937-1.951-0.937h-2.934l0.212-1.699C11.871 1.565 12.51 1 13.265 1h3.234c0.276 0 0.5-0.224 0.5-0.5S16.775 0 16.499 0h-3.234c-1.258 0-2.325 0.941-2.48 2.19l-0.228 1.823H2.501c-0.762 0-1.472 0.341-1.949 0.935s-0.657 1.361-0.501 2.055l1.536 13.023c0.268 2.265 2.189 3.973 4.469 3.973H19.5c2.481 0 4.5-2.019 4.5-4.5v-2c0-2.481-2.019-4.5-4.5-4.499zM23 17.5V18h-2.491c-5e-3 0-0.01 0-0.015 0h-5.988c-5e-3 0-0.01 0-0.016 0H10v-0.5c0-1.93 1.57-3.5 3.5-3.5h6c1.93 0 3.5 1.57 3.5 3.5zM18.849 19 17.5 19.899 16.151 19zM14.499 5.013c0.458 0 0.884 0.205 1.17 0.562 0.287 0.357 0.394 0.818 0.286 1.31L15.811 8h-4.745l0.374-2.987zM1.332 5.573c0.286-0.356 0.712-0.561 1.169-0.561h7.931l-0.374 2.987H1.174L1.037 6.836C0.938 6.39 1.046 5.929 1.332 5.573zM6.056 23c-1.774 0-3.268-1.329-3.476-3.09L1.292 9h14.39l-0.516 4h-1.667c-2.481 0-4.5 2.019-4.5 4.5v2c0 1.412 0.654 2.674 1.675 3.5zM19.5 23h-6c-1.93 0-3.5-1.57-3.5-3.5V19h4.349l2.874 1.916C17.307 20.972 17.404 21 17.5 21s0.193-0.028 0.277-0.084L20.651 19H23v0.5c0 1.93-1.57 3.5-3.5 3.5z" />
</svg>