<svg id="hammer_war_Layer_1" viewBox="0 0 24 24" fill="currentColor" width="32" height="32" data-name="Layer 1" xmlns="http://www.w3.org/2000/svg" xmlns:xlink="http://www.w3.org/1999/xlink">
    <title>hammer-war</title>
    <path d="M23.966 13.395c-0.153-1.099-0.797-2.037-1.733-2.556l-3.585-2.375-0.107-1.629c-0.049-0.749-0.65-1.351-1.398-1.398l-1.63-0.107-2.355-3.552c-0.539-0.97-1.477-1.614-2.575-1.767-1.095-0.154-2.177 0.208-2.96 0.991L5.002 3.623C4.218 4.406 3.857 5.485 4.01 6.583 4.164 7.681 4.808 8.618 5.741 9.135l3.795 2.544 1.028 1.028-6.688 6.709c-0.395-0.262-0.869-0.415-1.378-0.415-1.378 0-2.5 1.121-2.5 2.5s1.122 2.5 2.5 2.5 2.5-1.121 2.5-2.5c0-0.509-0.153-0.983-0.416-1.378l6.687-6.709 1.025 1.025 2.522 3.763c0.538 0.969 1.476 1.612 2.574 1.766 0.166 0.023 0.332 0.035 0.496 0.035 0.921 0 1.799-0.361 2.464-1.026l2.621-2.621c0.783-0.783 1.145-1.862 0.995-2.961zM2.5 23C1.673 23 1 22.327 1 21.5S1.673 20 2.5 20 4 20.673 4 21.5 3.327 23 2.5 23zM5.001 6.444C4.891 5.66 5.149 4.889 5.709 4.33L8.33 1.709c0.56-0.56 1.331-0.818 2.115-0.708 0.784 0.109 1.454 0.569 1.858 1.295l2.328 3.514-4.838 4.838-3.531-2.365C5.57 7.899 5.11 7.229 5.001 6.444zM15.524 6.331l1.554 0.103C17.327 6.45 17.527 6.65 17.543 6.9l0.102 1.553-4.959 4.96-1.054-1.054-7e-3-8e-3-7e-3-6e-3-1.054-1.053zM22.268 15.646l-2.621 2.621c-0.56 0.56-1.332 0.815-2.115 0.708-0.784-0.109-1.454-0.569-1.86-1.297l-2.342-3.497 4.837-4.838 3.547 2.348c0.692 0.386 1.152 1.056 1.262 1.84 0.109 0.784-0.148 1.555-0.708 2.115z" />
</svg>