<svg id="hammer_Layer_1" viewBox="0 0 24 24" fill="currentColor" width="32" height="32" data-name="Layer 1" xmlns="http://www.w3.org/2000/svg" xmlns:xlink="http://www.w3.org/1999/xlink">
    <title>hammer</title>
    <path d="M23.27 10.002l-7.665-7.6c-3.009-2.918-6.019-2.544-7.542-2.066-0.518 0.163-0.899 0.572-1.022 1.098-0.121 0.519 0.035 1.049 0.42 1.419l5.087 5.019L0.706 19.763c-0.959 0.989-0.935 2.575 0.055 3.533 0.471 0.456 1.087 0.706 1.74 0.706H2.54c0.668-0.011 1.292-0.28 1.752-0.755l11.815-11.866 2.932 2.893c0.472 0.467 1.095 0.723 1.757 0.723h0.027c0.672-8e-3 1.3-0.277 1.769-0.761l0.705-0.729c0.944-0.973 0.934-2.545-0.027-3.505zM8.155 2.134c-0.185-0.178-0.16-0.39-0.141-0.473C8.035 1.576 8.108 1.37 8.363 1.29c0.532-0.167 1.155-0.289 1.843-0.289 1.385 0 3.028 0.496 4.7 2.116l5.837 5.787-2.803 2.882-9.779-9.648zM3.578 22.548c-0.278 0.287-0.652 0.449-1.053 0.455-0.401 8e-3-0.78-0.144-1.068-0.424-0.593-0.575-0.608-1.526-0.037-2.115L13.26 8.573l2.135 2.106zM22.579 12.813l-0.706 0.729c-0.28 0.289-0.657 0.451-1.061 0.456-0.391 0.017-0.783-0.149-1.07-0.434l-1.091-1.076 2.802-2.88 1.112 1.103c0.574 0.575 0.58 1.519 0.014 2.102z" />
</svg>