<svg id="hand_holding_document_Layer_1" viewBox="0 0 24 24" fill="currentColor" width="32" height="32" data-name="Layer 1" xmlns="http://www.w3.org/2000/svg" xmlns:xlink="http://www.w3.org/1999/xlink">
    <title>hand-holding-document</title>
    <path d="M2.5 10C2.776 10 3 9.776 3 9.5v-6C3 2.122 4.121 1 5.5 1h4.258C9.84 1 9.919 1.016 10 1.024V3.5C10 4.327 10.673 5 11.5 5h2.476C13.984 5.081 14 5.16 14 5.243V9.5c0 0.276 0.224 0.5 0.5 0.5S15 9.776 15 9.5V5.243c0-0.935-0.364-1.813-1.025-2.475l-1.742-1.742C11.582 0.375 10.68 1e-3 9.758 1e-3H5.5c-1.93 0-3.5 1.57-3.5 3.5v6c0 0.276 0.224 0.5 0.5 0.499zM13.268 3.475C13.426 3.633 13.55 3.812 13.659 4h-2.158c-0.275 0-0.5-0.224-0.5-0.5V1.344c0.189 0.109 0.37 0.233 0.525 0.388zM23.181 9.655c-0.984-0.923-2.66-0.854-3.548 0.166l-3.732 4.102c-0.314-1.108-1.335-1.922-2.543-1.922H3.5c-1.93 0-3.5 1.57-3.5 3.5v5c0 1.93 1.57 3.5 3.5 3.5h5.965c2.707 0 5.292-1.159 7.093-3.181l6.806-7.639c0.911-1.022 0.829-2.604-0.183-3.526zM22.618 12.516l-6.806 7.639c-1.611 1.809-3.925 2.846-6.347 2.846H3.5c-1.379 0-2.5-1.122-2.5-2.5v-5c0-1.378 1.121-2.5 2.5-2.5h9.857c0.905 0 1.643 0.737 1.643 1.642 0 0.812-0.606 1.511-1.398 1.624l-6.161 0.737c-0.274 0.033-0.47 0.282-0.437 0.556 0.032 0.274 0.282 0.471 0.556 0.437l6.173-0.739c1.021-0.146 1.844-0.878 2.145-1.824l4.496-4.94c0.533-0.612 1.545-0.657 2.134-0.1 0.609 0.555 0.658 1.506 0.11 2.122z" />
</svg>