<svg id="handstand_Layer_1" viewBox="0 0 24 24" fill="currentColor" width="32" height="32" data-name="Layer 1" xmlns="http://www.w3.org/2000/svg" xmlns:xlink="http://www.w3.org/1999/xlink">
    <title>handstand</title>
    <path d="M12 17c-1.379 0-2.5 1.122-2.5 2.5S10.621 22 12 22s2.5-1.122 2.5-2.5S13.379 17 12 17zM12 21c-0.827 0-1.5-0.673-1.5-1.5S11.173 18 12 18s1.5 0.673 1.5 1.5S12.827 21 12 21zM19.436 23.255 15 15.37V9.501c0-0.815-0.397-1.532-1.002-1.989 0-4e-3 2e-3-7e-3 2e-3-0.011V0.5C14 0.224 13.776 0 13.5 0S13 0.224 13 0.5v6.551C12.838 7.018 12.671 7 12.5 7h-1c-0.171 0-0.338 0.018-0.5 0.051V0.5C11 0.224 10.776 0 10.5 0S10 0.224 10 0.5v7c0 0 2e-3 7e-3 2e-3 0.011C9.397 7.968 9 8.686 9 9.5v5.869l-4.436 7.885c-0.136 0.241-0.05 0.545 0.19 0.681 0.236 0.134 0.544 0.053 0.681-0.19L9.792 16h4.416l4.357 7.745c0.136 0.243 0.445 0.325 0.681 0.19 0.24-0.135 0.326-0.44 0.19-0.68zM14 15h-4V9.5C10 8.673 10.673 8 11.5 8h1C13.327 8 14 8.673 14 9.5z" />
</svg>