<svg id="handshake_house_Layer_1" viewBox="0 0 24 24" fill="currentColor" width="32" height="32" data-name="Layer 1" xmlns="http://www.w3.org/2000/svg" xmlns:xlink="http://www.w3.org/1999/xlink">
    <title>handshake-house</title>
    <path d="M8.141 3.848C7.95 3.65 7.954 3.333 8.153 3.141l2.792-2.707c0.578-0.579 1.529-0.579 2.115 6e-3l2.787 2.701c0.198 0.192 0.203 0.509 0.012 0.707C15.76 3.95 15.63 4 15.5 4c-0.125 0-0.251-0.047-0.348-0.141L12.5 1.288v7.211c0 0.276-0.224 0.5-0.5 0.5s-0.5-0.224-0.5-0.5V1.288L8.848 3.859C8.651 4.051 8.334 4.047 8.141 3.848zM23.5 19h-5.697l-4.01-3.601c-0.599-0.535-1.509-0.506-2.07 0.065l-1.259 1.278c-0.194 0.192-0.512 0.196-0.708 0-0.194-0.195-0.194-0.513 0-0.708l3.535-3.495c0.37-0.349 0.854-0.54 1.362-0.54 0.369 0 1.156 0.21 2.16 0.576 0.771 0.281 1.594 0.424 2.445 0.424h4.24c0.276 0 0.5-0.224 0.5-0.5s-0.224-0.5-0.5-0.5h-4.24c-0.734 0-1.441-0.122-2.103-0.363-1.158-0.423-2-0.637-2.503-0.637-0.764 0-1.491 0.288-2.038 0.803l-0.758 0.749c0 0-4e-3-6e-3-7e-3-9e-3l-0.84-0.765c-0.552-0.502-1.267-0.778-2.035-0.778-0.469 0-1.156 0.181-2.041 0.536-0.766 0.308-1.552 0.464-2.337 0.464H0.5c-0.276 0-0.5 0.224-0.5 0.5s0.224 0.5 0.5 0.5h4.099c0.914 0 1.825-0.181 2.71-0.536C8.313 12.06 8.786 11.999 9 11.999c0.496 0 0.972 0.184 1.338 0.519l0.809 0.737-2.097 2.073c-0.584 0.585-0.584 1.537 0 2.122 0.586 0.586 1.537 0.583 2.125-3e-3l1.262-1.281c0.188-0.191 0.49-0.2 0.69-0.021l3.945 3.543-3.592 2.803c-0.842 0.658-2.119 0.658-2.961 0l-4.337-3.385c-0.088-0.068-0.196-0.105-0.308-0.105H0.5c-0.276 0-0.5 0.224-0.5 0.5s0.224 0.5 0.5 0.5h5.203l4.201 3.279c0.596 0.465 1.34 0.721 2.096 0.721s1.5-0.256 2.096-0.721l4.201-3.279H23.5c0.276 0 0.5-0.224 0.5-0.5s-0.224-0.5-0.5-0.501z" />
</svg>