<svg id="hand_love_Layer_1" viewBox="0 0 24 24" fill="currentColor" width="32" height="32" data-name="Layer 1" xmlns="http://www.w3.org/2000/svg" xmlns:xlink="http://www.w3.org/1999/xlink">
    <title>hand-love</title>
    <path d="M22.119 1.595c-0.56-0.476-1.302-0.677-2.035-0.562C18.896 1.226 18 2.332 18 3.606V8.5c-0.418-0.315-0.938-0.501-1.5-0.501-0.817 0-1.544 0.394-2 1.002-0.456-0.608-1.183-1.002-2-1.002-0.562 0-1.082 0.187-1.5 0.501V2.607c0-1.274-0.896-2.38-2.084-2.573-0.731-0.118-1.475 0.085-2.035 0.562C6.321 1.072 6 1.766 6 2.501v12.848l-1.796-1.676c-1.006-0.939-2.59-0.886-3.53 0.119-0.941 1.007-0.888 2.593 0.112 3.53l4.457 4.297C6.836 23.154 8.931 24 11.143 24H18.5c2.481 0 4.5-2.019 4.5-4.5v-16c0-0.734-0.321-1.429-0.881-1.905zM16.5 9c0.827 0 1.5 0.673 1.5 1.5v2c0 0.827-0.673 1.5-1.5 1.5S15 13.327 15 12.5v-2C15 9.673 15.673 9 16.5 9zM12.5 9c0.827 0 1.5 0.673 1.5 1.5v2c0 0.827-0.673 1.5-1.5 1.5S11 13.327 11 12.5v-2C11 9.673 11.673 9 12.5 9zM22 19.5c0 1.93-1.57 3.5-3.5 3.5h-7.357c-1.952 0-3.8-0.746-5.206-2.101l-4.462-4.301c-0.604-0.566-0.635-1.519-0.07-2.123 0.563-0.603 1.514-0.636 2.117-0.071l2.637 2.462c0.146 0.136 0.359 0.171 0.541 0.093 0.183-0.079 0.301-0.259 0.301-0.458V2.5c0-0.441 0.193-0.857 0.529-1.143 0.34-0.29 0.776-0.409 1.227-0.336 0.709 0.115 1.245 0.797 1.245 1.586V12.5c0 1.378 1.122 2.5 2.5 2.5 0.817 0 1.544-0.394 2-1.002 0.456 0.608 1.183 1.002 2 1.002 1.378 0 2.5-1.122 2.5-2.5V3.607c0-0.789 0.535-1.471 1.244-1.586 0.452-0.074 0.886 0.046 1.227 0.336 0.336 0.286 0.529 0.703 0.529 1.143z" />
</svg>