<svg id="hand_sparkles_Layer_1" viewBox="0 0 24 24" fill="currentColor" width="32" height="32" data-name="Layer 1" xmlns="http://www.w3.org/2000/svg" xmlns:xlink="http://www.w3.org/1999/xlink">
    <title>hand-sparkles</title>
    <path d="M24 5.5v11c0 0.276-0.224 0.5-0.5 0.5S23 16.776 23 16.5v-11c0-0.44-0.192-0.857-0.528-1.143-0.341-0.291-0.775-0.41-1.228-0.336C20.535 4.136 20 4.818 20 5.607V10.5c0 0.276-0.224 0.5-0.5 0.5S19 10.776 19 10.5v-7C19 2.673 18.327 2 17.5 2S16 2.673 16 3.5v7c0 0.276-0.224 0.5-0.5 0.5S15 10.776 15 10.5v-8C15 1.673 14.327 1 13.5 1S12 1.673 12 2.5v8c0 0.276-0.224 0.5-0.5 0.5S11 10.776 11 10.5V4.607c0-0.789-0.535-1.471-1.245-1.586C9.306 2.949 8.87 3.067 8.528 3.357 8.192 3.643 7.999 4.06 7.999 4.5v12c0 0.199-0.118 0.379-0.301 0.458-0.182 0.079-0.394 0.043-0.541-0.093L4.52 14.403c-0.603-0.563-1.552-0.532-2.116 0.071-0.565 0.604-0.534 1.557 0.07 2.123l4.462 4.302C8.341 22.253 10.19 23 12.142 23h4.357c0.276 0 0.5 0.224 0.5 0.5s-0.224 0.5-0.5 0.5h-4.357c-2.212 0-4.307-0.846-5.9-2.381l-4.457-4.297c-1-0.938-1.052-2.523-0.111-3.53 0.455-0.487 1.073-0.768 1.74-0.791 0.647-0.021 1.301 0.216 1.789 0.671l1.796 1.676V4.5c0-0.734 0.321-1.429 0.881-1.905 0.561-0.476 1.304-0.678 2.035-0.562 0.405 0.066 0.771 0.244 1.084 0.492V2.499c0-1.378 1.122-2.5 2.5-2.5 1.077 0 1.989 0.688 2.34 1.645 0.443-0.396 1.021-0.645 1.66-0.645 1.379 0 2.5 1.122 2.5 2.5v0.025c0.313-0.248 0.679-0.426 1.084-0.492 0.731-0.118 1.476 0.085 2.035 0.562C23.678 4.07 23.999 4.764 24 5.5zM17 14.955c0-0.229-0.156-0.43-0.379-0.485l-1.709-0.427-0.427-1.709c-0.111-0.445-0.859-0.445-0.971 0l-0.425 1.702-1.702 0.394c-0.224 0.052-0.384 0.249-0.388 0.479s0.148 0.432 0.37 0.491l1.716 0.462 0.429 1.715c0.056 0.223 0.256 0.379 0.485 0.379s0.43-0.156 0.485-0.379l0.427-1.709 1.709-0.427c0.223-0.056 0.379-0.256 0.38-0.486zM24 20c0 0.205-0.124 0.388-0.314 0.464l-2.301 0.92-0.921 2.301c-0.075 0.19-0.26 0.314-0.464 0.314s-0.389-0.125-0.464-0.314l-0.923-2.306-2.308-0.972c-0.188-0.08-0.31-0.266-0.306-0.47s0.132-0.386 0.323-0.458l2.294-0.868 0.919-2.296c0.15-0.38 0.777-0.38 0.928 0l0.921 2.301 2.301 0.92c0.19 0.076 0.314 0.26 0.315 0.464zM22.153 20l-1.339-0.536c-0.127-0.051-0.228-0.151-0.278-0.279L20 17.846l-0.536 1.339c-0.052 0.13-0.156 0.232-0.287 0.282l-1.33 0.503 1.348 0.568c0.123 0.052 0.221 0.151 0.27 0.275l0.536 1.339 0.536-1.339c0.051-0.127 0.151-0.228 0.278-0.279zM2.026 8.658C2.094 8.862 2.285 9 2.5 9s0.406-0.138 0.474-0.342l0.421-1.263 1.263-0.421C4.862 6.906 5 6.715 5 6.5S4.862 6.094 4.658 6.026L3.395 5.605 2.974 4.342c-0.136-0.408-0.812-0.408-0.948 0L1.607 5.599 0.351 5.992C0.146 6.056 4e-3 6.244 0 6.46s0.13 0.409 0.333 0.48l1.27 0.449z" />
</svg>