<svg id="hand_wave_Layer_1" viewBox="0 0 24 24" fill="currentColor" width="32" height="32" data-name="Layer 1" xmlns="http://www.w3.org/2000/svg" xmlns:xlink="http://www.w3.org/1999/xlink">
    <title>hand-wave</title>
    <path d="M4.48 22.141C4.416 22.359 4.216 22.5 4 22.5c-0.046 0-0.094-6e-3-0.141-0.02-1.951-0.572-3.242-1.862-3.838-3.835-0.08-0.264 0.07-0.543 0.334-0.623 0.265-0.08 0.543 0.07 0.623 0.334 0.499 1.652 1.533 2.688 3.162 3.165 0.265 0.078 0.417 0.355 0.34 0.62zM14.359 0.98c1.629 0.477 2.663 1.512 3.162 3.165C17.586 4.361 17.785 4.5 18 4.5c0.048 0 0.096-7e-3 0.145-0.021 0.264-0.08 0.414-0.359 0.334-0.623-0.596-1.974-1.887-3.264-3.838-3.835-0.266-0.078-0.543 0.075-0.621 0.339-0.078 0.265 0.074 0.543 0.339 0.62zM14.605 23.985c-0.026 0 0.027 0 0 0zM24 7.472v7.17c0 2.249-0.915 4.447-2.51 6.031l-0.815 0.81c-1.627 1.616-3.78 2.502-6.069 2.502-2.319-0.021-4.565-0.948-6.182-2.611l-7.723-7.918c-0.799-0.799-0.931-2.063-0.303-2.936 0.335-0.466 0.828-0.782 1.377-0.893L0.886 8.738C0.083 7.934-0.049 6.669 0.58 5.797 0.963 5.265 1.55 4.928 2.195 4.869 1.911 4.162 1.975 3.35 2.419 2.732c0.388-0.539 0.986-0.878 1.64-0.931 0.653-0.057 1.296 0.183 1.76 0.647l0.349 0.349c0.055-0.306 0.174-0.6 0.361-0.859 0.388-0.539 0.986-0.878 1.64-0.931 0.654-0.052 1.296 0.183 1.76 0.647L19 10.725V7.579c0-1.274 0.896-2.38 2.084-2.573 0.732-0.119 1.475 0.085 2.035 0.561S24 6.737 24 7.472zM23 7.472c0-0.441-0.193-0.858-0.529-1.144-0.341-0.29-0.778-0.408-1.226-0.335C20.535 6.108 20 6.79 20 7.579v4.354c0 0.202-0.122 0.385-0.309 0.462-0.186 0.079-0.401 0.036-0.545-0.108L9.222 2.361C8.966 2.105 8.611 1.975 8.249 2.004 7.882 2.034 7.559 2.218 7.34 2.523 6.995 3.002 7.082 3.711 7.543 4.172c1e-3 1e-3 2e-3 3e-3 4e-3 4e-3l5.555 5.555c0.195 0.195 0.195 0.512 0 0.707-0.098 0.098-0.226 0.146-0.354 0.146s-0.256-0.049-0.354-0.146L5.111 3.155C4.855 2.899 4.504 2.773 4.139 2.798 3.772 2.828 3.45 3.012 3.23 3.317 2.885 3.796 2.972 4.505 3.432 4.966l7.217 7.217c0.195 0.195 0.195 0.512 0 0.707-0.098 0.098-0.226 0.146-0.354 0.146s-0.256-0.049-0.354-0.146L3.272 6.22C3.016 5.964 2.665 5.833 2.3 5.863 1.933 5.892 1.611 6.076 1.391 6.382 1.046 6.861 1.133 7.57 1.593 8.031l6.604 6.604c0.195 0.195 0.195 0.512 0 0.707s-0.512 0.195-0.707 0l-4.398-4.399c-0.256-0.256-0.613-0.385-0.972-0.357-0.367 0.03-0.69 0.214-0.91 0.519-0.345 0.479-0.258 1.188 0.203 1.649l7.727 7.923c1.429 1.471 3.345 2.291 5.396 2.309 2.009 4e-3 3.979-0.767 5.434-2.212l0.815-0.81C22.193 18.566 23 16.627 23 14.642z" />
</svg>