<svg id="hand_fist_Layer_1" viewBox="0 0 24 24" fill="currentColor" width="32" height="32" data-name="Layer 1" xmlns="http://www.w3.org/2000/svg" xmlns:xlink="http://www.w3.org/1999/xlink">
    <title>hand-fist</title>
    <path d="M20.119 1.595c-0.56-0.476-1.302-0.679-2.035-0.562-0.47 0.076-0.894 0.296-1.235 0.612C16.499 0.686 15.578 0 14.5 0c-0.817 0-1.544 0.394-2 1.002C12.044 0.394 11.317 0 10.5 0 9.427 0 8.511 0.679 8.156 1.63 7.715 1.239 7.134 1 6.5 1 5.122 1 4 2.122 4 3.5v3.229L2.441 8.285C1.512 9.212 1.001 10.445 1 11.757c0 1.312 0.51 2.546 1.439 3.476l3.82 3.785C6.737 19.491 7 20.122 7 20.793v2.706c0 0.276 0.224 0.5 0.5 0.5s0.5-0.224 0.5-0.5v-2.706c0-0.928-0.378-1.833-1.037-2.486l-3.818-3.783C2.406 13.785 1.999 12.802 2 11.758c0-1.045 0.408-2.027 1.147-2.765l2.289-2.284c0.584-0.584 1.535-0.584 2.12 0 0.283 0.284 0.439 0.66 0.439 1.061s-0.157 0.778-0.44 1.061l-2.409 2.406c-0.195 0.195-0.195 0.512 0 0.708 0.195 0.195 0.512 0.195 0.708 0l2.409-2.406C8.736 9.066 8.996 8.438 8.996 7.77c0-0.098-6e-3-0.195-0.017-0.29 0.422 0.325 0.95 0.519 1.522 0.519 0.817 0 1.544-0.394 2-1.002 0.456 0.608 1.183 1.002 2 1.002s1.544-0.394 2-1.002c0.456 0.608 1.183 1.002 2 1.002 0.562 0 1.082-0.187 1.5-0.501v5.485c0 1.232-0.323 2.448-0.934 3.518-0.697 1.22-1.066 2.608-1.066 4.014v2.984c0 0.276 0.224 0.5 0.5 0.5s0.5-0.224 0.5-0.5v-2.984c0-1.232 0.323-2.448 0.934-3.518 0.697-1.22 1.066-2.607 1.066-4.014V3.5c0-0.734-0.321-1.429-0.882-1.905zM5 5.767V3.5C5 2.673 5.673 2 6.5 2S8 2.673 8 3.5v2c0 0.098 6e-3 0.194 0.017 0.288C7.131 5.107 5.892 5.1 5 5.767zM10.5 7C9.673 7 9 6.327 9 5.5v-3C9 1.673 9.673 1 10.5 1S12 1.673 12 2.5v3C12 6.327 11.327 7 10.5 7zM14.5 7C13.673 7 13 6.327 13 5.5v-3C13 1.673 13.673 1 14.5 1S16 1.673 16 2.5v3C16 6.327 15.327 7 14.5 7zM20 5.5C20 6.327 19.327 7 18.5 7S17 6.327 17 5.5V3.607c0-0.789 0.535-1.471 1.244-1.586C18.331 2.007 18.417 2 18.502 2c0.357 0 0.694 0.123 0.969 0.357C19.807 2.643 20 3.06 20 3.5z" />
</svg>