<svg id="handshake_simple_slash_Layer_1" viewBox="0 0 24 24" fill="currentColor" width="32" height="32" data-name="Layer 1" xmlns="http://www.w3.org/2000/svg" xmlns:xlink="http://www.w3.org/1999/xlink">
    <title>handshake-simple-slash</title>
    <path d="M0 4.5C0 4.224 0.224 4 0.5 4h1C1.776 4 2 4.224 2 4.5S1.776 5 1.5 5h-1C0.224 5 0 4.776 0 4.5zM20.492 16.541l-1.849 1.396 5.21 5.21c0.195 0.195 0.195 0.512 0 0.707C23.755 23.952 23.627 24 23.499 24s-0.256-0.049-0.354-0.146l-22.999-23c-0.195-0.196-0.195-0.512 0-0.708s0.512-0.195 0.708 0l3.232 3.232 1.561-0.873c1.784-0.894 3.931-0.543 5.314 0.717l1.116 1.016 1.023-0.964c1.398-1.319 3.594-1.639 5.31-0.78l2.482 1.241c0.346 0.173 0.732 0.264 1.118 0.264h1.49c0.276 0 0.5 0.224 0.5 0.5s-0.224 0.5-0.5 0.5h-1.49c-0.54 0-1.082-0.128-1.565-0.37l-2.482-1.241c-1.351-0.677-3.075-0.424-4.177 0.613L9.114 8.405l2.267 2.267 3.774-3.614c0.199-0.191 0.517-0.183 0.707 0.016s0.184 0.516-0.016 0.707l-1.022 0.978 6.465 6.323c0.247-0.055 0.501-0.083 0.756-0.083H23.5c0.276 0 0.5 0.224 0.5 0.5s-0.224 0.5-0.5 0.5h-1.455c-0.562 0-1.113 0.192-1.553 0.542zM4.821 4.114 8.406 7.699l2.941-2.772-1.06-0.965C9.156 2.931 7.394 2.75 6.114 3.39zM19.88 15.75c0.123-0.098 0.253-0.186 0.389-0.265l-6.167-6.032-2.014 1.928 5.842 5.842zM15.42 19.119l-1.749 1.322c-0.961 0.747-2.304 0.747-3.271-5e-3l-6.032-4.533c-0.774-0.582-1.734-0.902-2.703-0.902H0.46c-0.276 0-0.5 0.224-0.5 0.5s0.224 0.5 0.5 0.5h1.205c0.753 0 1.5 0.25 2.102 0.702l6.026 4.527c0.662 0.515 1.455 0.771 2.247 0.771s1.581-0.256 2.239-0.767l1.744-1.317c0.22-0.167 0.264-0.48 0.098-0.7-0.168-0.222-0.479-0.264-0.701-0.098z" />
</svg>