<svg id="hand_fingers_crossed_Layer_1" viewBox="0 0 24 24" fill="currentColor" width="32" height="32" data-name="Layer 1" xmlns="http://www.w3.org/2000/svg" xmlns:xlink="http://www.w3.org/1999/xlink">
    <title>hand-fingers-crossed</title>
    <path d="M21.119 8.595c-0.56-0.477-1.305-0.678-2.035-0.562-0.639 0.104-1.193 0.472-1.569 0.988-0.455-0.619-1.189-1.022-2.015-1.022-1.289 0-2.352 0.98-2.486 2.234l-0.686-1.419 2.519-5.3c0.298-0.671 0.285-1.436-0.034-2.098-0.318-0.662-0.915-1.149-1.635-1.337-1.163-0.303-2.431 0.345-2.938 1.494l-0.71 1.46-0.696-1.437C8.321 0.431 7.06-0.22 5.891 0.078 5.171 0.264 4.574 0.749 4.252 1.41 3.931 2.071 3.916 2.836 4.217 3.521c0 0 2.484 5.257 2.505 5.285l-1.59 3.27-1.672 1.67C2.52 14.683 2.001 15.93 2 17.258c0 1.327 0.516 2.575 1.454 3.514l1.033 1.033c1.416 1.417 3.299 2.197 5.303 2.197h7.71c2.481 0 4.5-2.019 4.5-4.5V10.5c0-0.734-0.321-1.429-0.881-1.905zM19.244 9.021c0.451-0.074 0.887 0.045 1.228 0.336C20.808 9.643 21 10.06 21 10.5v2c0 0.827-0.673 1.5-1.5 1.5S18 13.327 18 12.5v-1.893c0-0.789 0.535-1.471 1.244-1.586zM14 10.5C14 9.673 14.673 9 15.5 9S17 9.673 17 10.5v2c0 0.827-0.673 1.5-1.5 1.5S14 13.327 14 12.5zM11.146 1.995c0.32-0.721 1.083-1.13 1.78-0.947 0.441 0.115 0.792 0.401 0.986 0.804 0.191 0.397 0.199 0.856 0.026 1.246l-4.268 8.98c-0.114-0.209-0.258-0.402-0.431-0.575-0.65-0.65-1.572-0.866-2.404-0.648zM5.127 3.106C4.949 2.703 4.959 2.244 5.151 1.847 5.347 1.444 5.698 1.16 6.14 1.046c0.693-0.179 1.459 0.23 1.784 0.969l1.047 2.163-1.695 3.486zM17.5 23H9.79c-1.736 0-3.368-0.676-4.596-1.904l-1.033-1.033C3.412 19.313 2.999 18.317 3 17.257s0.415-2.056 1.166-2.804l2.248-2.244c0.583-0.583 1.535-0.582 2.12 3e-3 0.283 0.283 0.439 0.66 0.438 1.06 0 0.4-0.156 0.777-0.439 1.06l-2.41 2.407c-0.195 0.195-0.195 0.512 0 0.708 0.195 0.195 0.512 0.195 0.707 0l2.41-2.407c0.302-0.302 0.517-0.668 0.633-1.067 0.01-0.016 1.904-3.999 1.904-3.999L13 12.501C13 13.879 14.121 15 15.5 15c0.817 0 1.544-0.394 2-1.002 0.456 0.608 1.183 1.002 2 1.002 0.562 0 1.082-0.187 1.5-0.501V19.5c0 1.93-1.57 3.5-3.5 3.5z" />
</svg>