<svg id="hands_usd_Layer_1" viewBox="0 0 24 24" fill="currentColor" width="32" height="32" data-name="Layer 1" xmlns="http://www.w3.org/2000/svg" xmlns:xlink="http://www.w3.org/1999/xlink">
    <title>hands-usd</title>
    <path d="M24 5.5v10.1c0 2-0.78 3.89-2.2 5.3l-2.95 2.95c-0.1 0.1-0.23 0.15-0.35 0.15s-0.26-0.05-0.35-0.15c-0.2-0.2-0.2-0.51 0-0.71l2.95-2.95c1.23-1.23 1.9-2.86 1.9-4.6V5.5C23 4.67 22.33 4 21.5 4S20 4.67 20 5.5v8c0 0 0 0.04 0 0.06-0.01 0.55-0.21 1.09-0.58 1.54l-2.64 2.75c-0.1 0.1-0.23 0.15-0.36 0.15s-0.25-0.05-0.35-0.14c-0.2-0.19-0.21-0.51-0.01-0.71l2.62-2.72c0.22-0.26 0.33-0.58 0.33-0.91 0 0 0-0.01 0-0.02v-0.05c-0.01-0.34-0.14-0.68-0.38-0.96-0.27-0.3-0.63-0.47-1.03-0.5-0.39 0-0.78 0.11-1.08 0.38l-2.73 2.51c-0.52 0.47-0.93 1.03-1.23 1.66 0.3 0.75 0.46 1.56 0.46 2.38v4.56c0 0.28-0.22 0.5-0.5 0.5s-0.5-0.22-0.5-0.5v-4.56c0-1.53-0.65-3.01-1.78-4.05l-2.73-2.52c-0.29-0.26-0.68-0.38-1.08-0.38-0.4 0.02-0.77 0.2-1.03 0.5-0.49 0.55-0.51 1.39-0.03 1.96l2.59 2.7c0.19 0.2 0.19 0.52-0.01 0.71s-0.52 0.19-0.71-0.01l-2.62-2.72c-0.38-0.45-0.57-0.99-0.6-1.53 0-0.03 0-0.06 0-0.1V5.5c0-0.83-0.67-1.5-1.5-1.5s-1.5 0.67-1.5 1.5v10.1c0 1.74 0.68 3.37 1.9 4.6l2.95 2.95c0.2 0.2 0.2 0.51 0 0.71-0.1 0.1-0.23 0.15-0.35 0.15s-0.26-0.05-0.35-0.15l-2.95-2.95c-1.42-1.42-2.2-3.3-2.2-5.3V5.5c0-1.38 1.12-2.5 2.5-2.5s2.5 1.12 2.5 2.5v6c0.39-0.29 0.86-0.47 1.36-0.49 0.67-0.05 1.31 0.19 1.8 0.63l2.74 2.52c0.43 0.39 0.79 0.84 1.1 1.32 0.3-0.48 0.67-0.93 1.1-1.32l2.73-2.52c0.5-0.45 1.14-0.68 1.81-0.64 0.5 0.03 0.97 0.2 1.36 0.49V5.5c0-1.38 1.12-2.5 2.5-2.5s2.5 1.12 2.48 2.5zM10.03 5.37l3.62 1.21c0.51 0.17 0.85 0.64 0.85 1.18 0 0.69-0.56 1.24-1.24 1.24h-2.31c-0.62 0-1.2-0.33-1.52-0.88C9.29 7.88 8.99 7.8 8.75 7.94S8.43 8.38 8.57 8.62C9.06 9.47 9.97 10 10.95 10h0.55v0.5c0 0.28 0.22 0.5 0.5 0.5s0.5-0.22 0.5-0.5V10h0.76c1.24 0 2.24-1.01 2.24-2.24 0-0.97-0.62-1.82-1.53-2.13l-3.62-1.21C9.84 4.25 9.5 3.78 9.5 3.24 9.5 2.55 10.06 2 10.74 2h2.31c0.62 0 1.2 0.33 1.52 0.88 0.14 0.24 0.44 0.32 0.68 0.18s0.32-0.44 0.18-0.68C14.94 1.53 14.03 1 13.05 1H12.5V0.5C12.5 0.22 12.28 0 12 0s-0.5 0.22-0.5 0.5V1h-0.76C9.5 1 8.5 2.01 8.5 3.24c0 0.97 0.62 1.82 1.53 2.13z" />
</svg>