<svg id="hand_bandage_wound_Layer_1" viewBox="0 0 24 24" fill="currentColor" width="32" height="32" data-name="Layer 1" xmlns="http://www.w3.org/2000/svg" xmlns:xlink="http://www.w3.org/1999/xlink">
    <title>hand-bandage-wound</title>
    <path d="M22.119 3.595c-0.56-0.476-1.305-0.679-2.035-0.561C19.679 3.1 19.313 3.278 19 3.526V3.5c0-0.973-0.549-1.897-1.445-2.277-1.046-0.444-2.039-0.184-2.715 0.422-0.463-1.262-1.9-2.056-3.407-1.422C10.538 0.599 10 1.529 10 2.5v0.026C9.687 2.278 9.321 2.1 8.916 2.034 8.187 1.914 7.44 2.119 6.881 2.595 6.321 3.072 6 3.766 6 4.5v10.85l-1.689-1.577c-0.954-0.891-2.465-1.021-3.449-0.162-1.132 0.988-1.14 2.715-0.076 3.711l4.457 4.297c1.584 1.527 3.699 2.38 5.899 2.38h7.357c2.485 0 4.5-2.015 4.5-4.5V5.5c0-0.734-0.321-1.429-0.88-1.905zM9.082 22.711C8.344 22.501 7.643 22.177 7 21.75v-2.049l8.323-7.7h5.089zM13.85 12.001 7 18.338v-6.337zM21.868 12.001H22v5.893l-3.218-2.976zM20.244 4.022c0.451-0.071 0.886 0.046 1.227 0.336C21.808 4.644 22 5.061 22 5.502v5.5h-3V5.609c0-0.789 0.535-1.471 1.244-1.587zM16.5 2.001c0.827 0 1.5 0.673 1.5 1.5v7.5h-3V3.5c0-0.827 0.673-1.5 1.5-1.499zM11 2.501c0-0.827 0.673-1.5 1.5-1.5s1.5 0.673 1.5 1.5v8.5h-3zM7.529 3.357c0.341-0.29 0.776-0.406 1.227-0.336C9.465 3.137 10 3.819 10 4.608v6.393H7v-6.5c0-0.44 0.192-0.857 0.529-1.144zM1.475 16.597c-0.604-0.565-0.635-1.517-0.069-2.121 0.273-0.293 0.644-0.461 1.043-0.475 0.421-3e-3 0.78 0.13 1.073 0.402l2.479 2.313v4.237c-0.021-0.019-0.043-0.036-0.063-0.056zM11.143 23c-0.288 0-0.572-0.021-0.855-0.053l4.265-4.032 4.286 4.051C18.726 22.977 18.616 23 18.5 23zM19.975 22.663l-4.693-4.437 2.772-2.621L22 19.256V19.5c0 1.401-0.833 2.604-2.025 3.163z" />
</svg>