<svg id="hand_present_Layer_1" viewBox="0 0 24 24" fill="currentColor" width="32" height="32" data-name="Layer 1" xmlns="http://www.w3.org/2000/svg" xmlns:xlink="http://www.w3.org/1999/xlink">
    <title>hand-present</title>
    <path d="M23.181 9.654c-0.986-0.928-2.658-0.851-3.548 0.166l-3.732 4.103C15.587 12.815 14.566 12 13.358 12H3.5C1.57 12 0 13.57 0 15.5v5C0 22.43 1.57 24 3.5 24h5.965c2.706 0 5.291-1.159 7.093-3.18l6.806-7.64c0.911-1.021 0.829-2.604-0.183-3.526zM22.618 12.514l-6.806 7.64C14.2 21.963 11.886 23 9.465 23H3.5C2.121 23 1 21.879 1 20.5v-5C1 14.121 2.121 13 3.5 13h9.857C14.262 13 15 13.737 15 14.643c0 0.812-0.605 1.511-1.398 1.624l-6.161 0.737c-0.274 0.032-0.47 0.281-0.437 0.556 0.032 0.274 0.282 0.476 0.556 0.437l6.172-0.738c1.022-0.146 1.846-0.879 2.146-1.824l4.496-4.939c0.533-0.613 1.545-0.657 2.134-0.101 0.609 0.556 0.658 1.507 0.11 2.119zM2.5 10C2.776 10 3 9.776 3 9.5v-2C3 6.121 4.121 5 5.5 5H8v4.5C8 9.776 8.224 10 8.5 10S9 9.776 9 9.5V5h2.5C12.879 5 14 6.121 14 7.5v2c0 0.276 0.224 0.5 0.5 0.5S15 9.776 15 9.5v-2c0-1.8-1.371-3.27-3.121-3.462 0.134-0.107 0.246-0.208 0.32-0.288 0.893-0.702 1.066-1.997 0.381-2.91-0.694-0.925-2.013-1.113-2.939-0.42-0.527 0.396-0.891 0.915-1.14 1.413C8.252 1.336 7.889 0.815 7.36 0.42 6.435-0.272 5.117-0.086 4.42 0.84 3.726 1.766 3.914 3.085 4.836 3.777c0.06 0.047 0.187 0.142 0.363 0.254C3.412 4.187 2 5.674 2 7.501v2c0 0.276 0.224 0.5 0.5 0.499zM10.24 1.221c0.484-0.366 1.176-0.266 1.54 0.219 0.405 0.534 0.22 1.246-0.305 1.62-0.179 0.201-0.865 0.808-2.476 0.918V3.457c0.06-0.316 0.341-1.562 1.241-2.236zM5.219 1.44c0.367-0.487 1.06-0.581 1.541-0.219 0.9 0.674 1.18 1.917 1.239 2.235v0.513C6.553 3.82 5.571 3.084 5.439 2.98 4.954 2.617 4.855 1.925 5.219 1.44z" />
</svg>