<svg id="hand_holding_box_Layer_1" viewBox="0 0 24 24" fill="currentColor" width="32" height="32" data-name="Layer 1" xmlns="http://www.w3.org/2000/svg" xmlns:xlink="http://www.w3.org/1999/xlink">
    <title>hand-holding-box</title>
    <path d="M5.5 10h7c1.378 0 2.5-1.121 2.5-2.5v-5C15 1.121 13.878 0 12.5 0h-7C4.122 0 3 1.121 3 2.5v5C3 8.879 4.122 10 5.5 10zM4 2.5C4 1.673 4.673 1 5.5 1h7C13.327 1 14 1.673 14 2.5v5C14 8.327 13.327 9 12.5 9h-7C4.673 9 4 8.327 4 7.5zM7 3.5C7 3.224 7.224 3 7.5 3h3C10.776 3 11 3.224 11 3.5S10.776 4 10.5 4h-3C7.224 4 7 3.776 7 3.5zM23.181 9.654c-0.497-0.451-1.143-0.687-1.809-0.651-0.67 0.031-1.288 0.321-1.739 0.817l-3.732 4.103C15.587 12.815 14.566 12 13.359 12H3.5C1.57 12 0 13.57 0 15.5v5C0 22.43 1.57 24 3.5 24h5.965c2.706 0 5.292-1.159 7.093-3.18l6.806-7.64c0.91-1.022 0.828-2.604-0.183-3.526zM22.618 12.514l-6.806 7.64C14.2 21.963 11.887 23 9.465 23H3.5C2.122 23 1 21.879 1 20.5v-5C1 14.121 2.122 13 3.5 13h9.858C14.263 13 15 13.737 15 14.643c0 0.812-0.606 1.511-1.399 1.624L7.44 17.004c-0.274 0.032-0.47 0.281-0.437 0.556 0.034 0.273 0.274 0.48 0.556 0.437l6.171-0.738c1.022-0.146 1.846-0.878 2.146-1.824l4.495-4.939c0.272-0.299 0.644-0.474 1.047-0.492 0.398-0.021 0.79 0.121 1.088 0.392 0.608 0.556 0.658 1.507 0.112 2.118z" />
</svg>