<svg id="hands_brain_Layer_1" viewBox="0 0 24 24" fill="currentColor" width="32" height="32" data-name="Layer 1" xmlns="http://www.w3.org/2000/svg" xmlns:xlink="http://www.w3.org/1999/xlink">
    <title>hands-brain</title>
    <path d="M18.018 5.018c0-1.053-0.63-1.996-1.573-2.419C16.412 1.161 15.232 0 13.786 0c-0.572 0-1.335 0.336-1.785 0.667C11.551 0.34 10.804 0 10.235 0 8.789 0 7.607 1.16 7.575 2.599 6.632 3.022 6.003 3.965 6.003 5.017c0 0.334 0.065 0.664 0.196 0.982-0.131 0.318-0.196 0.648-0.196 0.982 0 0.801 0.364 1.553 0.998 2.066 0.025 1.632 1.361 2.952 3 2.952 0.752 0 1.456-0.277 2.003-0.774 0.543 0.497 1.245 0.774 1.997 0.774 1.654 0 3-1.346 3.016-2.95 0.637-0.512 1.002-1.266 1.002-2.068 0-0.333-0.066-0.663-0.197-0.982 0.131-0.319 0.197-0.649 0.196-0.981zM11.502 10.292C11.119 10.738 10.585 11 10 11c-1.103 0-2-0.897-1.991-2.079 0 0-9e-3-1.421 1.591-1.931 0.271-0.055 0.445-0.319 0.391-0.589C9.936 6.13 9.673 5.957 9.401 6.01c-0.99 0.201-1.779 0.9-2.156 1.807-0.152-0.252-0.243-0.536-0.243-0.835 0-0.254 0.064-0.507 0.19-0.753 0.074-0.144 0.074-0.314 0-0.458-0.126-0.246-0.19-0.499-0.19-0.753 0-0.743 0.506-1.399 1.23-1.595 0.243-0.065 0.391-0.364 0.355-0.614-6e-3-0.049-0.015-0.097-0.015-0.148C8.572 1.745 9.317 1 10.233 1c0.493 0 0.953 0.231 1.268 0.609zM16.826 6.229c0.127 0.247 0.191 0.5 0.191 0.753 0 0.498-0.229 0.967-0.625 1.286-0.107 0.084-0.393 0.31-0.393 0.732 0 1.103-0.897 2-2 2-0.585 0-1.119-0.263-1.498-0.712V1.626C12.815 1.237 13.282 1 13.784 1c0.898 0 1.689 0.607 1.715 1.5 0 0.6-0.535 1.357-1.13 1.517-0.267 0.072-0.425 0.347-0.353 0.613C14.076 4.853 14.278 5 14.498 5c0.885-0.205 1.409-0.736 1.708-1.385 0.489 0.295 0.81 0.817 0.81 1.403 0 0.253-0.064 0.507-0.191 0.753-0.074 0.144-0.074 0.314 1e-3 0.458z" />
    <path d="M21.5 6C20.121 6 19 7.122 19 8.5v5.997c-0.391-0.294-0.86-0.466-1.359-0.493-0.663-0.041-1.306 0.188-1.808 0.638l-2.734 2.516c-0.43 0.395-0.793 0.848-1.098 1.336-0.306-0.489-0.669-0.939-1.099-1.336l-2.739-2.52c-0.497-0.445-1.129-0.676-1.803-0.634-0.5 0.027-0.969 0.199-1.359 0.493V8.5c0-1.378-1.121-2.5-2.5-2.5S0 7.122 0 8.5v8.101c0 2.003 0.78 3.887 2.196 5.303l1.95 1.95C4.244 23.952 4.372 24 4.5 24s0.256-0.049 0.354-0.146c0.195-0.195 0.195-0.512 0-0.707l-1.95-1.95c-1.228-1.228-1.903-2.859-1.903-4.596V8.5c0-0.827 0.673-1.5 1.5-1.5s1.5 0.673 1.5 1.5c0 0-4e-3 8.052 0 8.079 0.02 0.548 0.226 1.095 0.606 1.547l2.616 2.721C7.321 20.949 7.452 21 7.583 21c0.125 0 0.25-0.046 0.347-0.14 0.199-0.191 0.205-0.508 0.014-0.707L5.35 17.458c-0.476-0.566-0.462-1.409 0.032-1.96 0.267-0.298 0.634-0.475 1.032-0.496 0.397-9e-3 0.782 0.113 1.075 0.376l2.734 2.516c0.521 0.479 0.925 1.053 1.229 1.691C11.161 20.33 11 21.127 11 21.941v1.56c0 0.276 0.224 0.5 0.5 0.5s0.5-0.224 0.5-0.5v-1.56c0-1.533 0.647-3.009 1.776-4.047l2.729-2.512c0.298-0.267 0.689-0.389 1.08-0.38 0.398 0.021 0.766 0.198 1.032 0.496 0.246 0.274 0.372 0.621 0.382 0.967v9e-3c7e-3 0.345-0.102 0.689-0.327 0.959l-2.616 2.721c-0.191 0.199-0.186 0.516 0.014 0.707 0.198 0.192 0.516 0.185 0.707-0.014l2.639-2.746c0.375-0.446 0.571-0.995 0.584-1.546 2e-3-0.019 0-8.055 0-8.055 0-0.827 0.673-1.5 1.5-1.5S23 7.673 23 8.5v8.101c0 1.736-0.676 3.368-1.903 4.596l-1.95 1.95c-0.195 0.195-0.195 0.512 0 0.707C19.245 23.952 19.373 24 19.501 24s0.256-0.049 0.354-0.146l1.95-1.95c1.416-1.416 2.196-3.3 2.196-5.303V8.5c0-1.378-1.121-2.5-2.501-2.5z" />
</svg>