<svg id="hand_back_point_left_Layer_1" viewBox="0 0 24 24" fill="currentColor" width="32" height="32" data-name="Layer 1" xmlns="http://www.w3.org/2000/svg" xmlns:xlink="http://www.w3.org/1999/xlink">
    <title>hand-back-point-left</title>
    <path d="M19.5 22h-4.721c-2.138 0-3.993-1.521-4.413-3.617L9.09 12H2.607c-1.274 0-2.379-0.896-2.573-2.083-0.119-0.734 0.085-1.476 0.562-2.036S1.766 7 2.501 7h8.501l4.046-4.073C15.641 2.331 16.43 2.002 17.271 2c0.841 0.039 1.63 0.325 2.225 0.919l2.308 2.308c1.417 1.416 2.197 3.299 2.197 5.303v6.969c0 2.481-2.019 4.5-4.501 4.501zM2.5 8C2.06 8 1.643 8.193 1.357 8.529 1.067 8.87 0.948 9.305 1.021 9.756 1.136 10.465 1.818 11 2.607 11H9.5c0.238 0 0.443 0.168 0.49 0.402l1.357 6.785c0.326 1.63 1.77 2.813 3.432 2.813H19.5c1.93 0 3.5-1.57 3.5-3.5v-6.969c0-1.737-0.676-3.369-1.904-4.596l-2.308-2.308c-0.405-0.405-0.935-0.603-1.516-0.626-0.573 0-1.111 0.225-1.515 0.632l-3.346 3.368h5.088c0.276 0 0.5 0.224 0.5 0.5s-0.224 0.5-0.5 0.5z" />
</svg>