<svg id="hand_holding_water_Layer_1" viewBox="0 0 24 24" fill="currentColor" width="32" height="32" data-name="Layer 1" xmlns="http://www.w3.org/2000/svg" xmlns:xlink="http://www.w3.org/1999/xlink">
    <title>hand-holding-water</title>
    <path d="M8.5 9c0.935 0 1.814-0.364 2.475-1.025S12 6.435 12 5.5s-0.364-1.814-1.006-2.454L8.873 0.667c-0.189-0.213-0.557-0.213-0.746 0L6.025 3.025C5.364 3.685 5 4.564 5 5.5s0.364 1.814 1.025 2.475S7.565 9 8.5 9zM6.752 3.712 8.5 1.751l1.768 1.981C10.74 4.204 11 4.832 11 5.5s-0.26 1.296-0.732 1.768c-0.944 0.945-2.591 0.945-3.535 0-0.472-0.472-0.732-1.1-0.732-1.768s0.26-1.296 0.751-1.788zM23.181 9.654c-0.496-0.451-1.146-0.683-1.809-0.651-0.67 0.031-1.288 0.321-1.739 0.817l-3.732 4.103C15.587 12.815 14.566 12 13.359 12H3.5C1.57 12 0 13.57 0 15.5v5C0 22.43 1.57 24 3.5 24h5.965c2.706 0 5.292-1.159 7.093-3.18l6.806-7.64c0.91-1.022 0.828-2.604-0.183-3.526zM22.618 12.514l-6.806 7.64C14.2 21.963 11.887 23 9.465 23H3.5C2.122 23 1 21.879 1 20.5v-5C1 14.121 2.122 13 3.5 13h9.858C14.263 13 15 13.737 15 14.643c0 0.812-0.606 1.511-1.399 1.624L7.44 17.004c-0.274 0.032-0.47 0.281-0.437 0.556 0.033 0.273 0.277 0.478 0.556 0.437l6.171-0.738c1.022-0.146 1.846-0.878 2.146-1.824l4.495-4.939c0.272-0.299 0.644-0.474 1.047-0.492 0.397-0.017 0.79 0.12 1.088 0.392 0.608 0.556 0.658 1.507 0.112 2.118z" />
</svg>