<svg id="hand_point_ribbon_Layer_1" viewBox="0 0 24 24" fill="currentColor" width="32" height="32" data-name="Layer 1" xmlns="http://www.w3.org/2000/svg" xmlns:xlink="http://www.w3.org/1999/xlink">
    <title>hand-point-ribbon</title>
    <path d="M21.119 8.595c-0.56-0.477-1.301-0.678-2.035-0.562-0.639 0.104-1.193 0.472-1.569 0.988-0.456-0.619-1.189-1.022-2.015-1.022-0.817 0-1.544 0.394-2 1.002-0.456-0.608-1.183-1.002-2-1.002-0.562 0-1.082 0.187-1.5 0.501V2.607c0-1.274-0.896-2.379-2.084-2.573-0.732-0.117-1.475 0.085-2.035 0.562C5.321 1.072 5 1.766 5 2.501v1.5H1.5c-0.215 0-0.406 0.138-0.474 0.342S1.028 4.772 1.2 4.901l1.466 1.1-1.466 1.1C1.028 7.23 0.957 7.455 1.026 7.659 1.094 7.863 1.285 8.001 1.5 8.001H5v4.229l-1.557 1.554C2.514 14.71 2.001 15.944 2 17.256s0.51 2.547 1.438 3.475l1.072 1.072C5.927 23.22 7.81 24 9.813 24H17.5c2.481 0 4.5-2.019 4.5-4.5v-9c0-0.734-0.321-1.429-0.881-1.905zM14 10.5C14 9.673 14.673 9 15.5 9S17 9.673 17 10.5v2c0 0.827-0.673 1.5-1.5 1.5S14 13.327 14 12.5zM10 10.5C10 9.673 10.673 9 11.5 9S13 9.673 13 10.5v2c0 0.827-0.673 1.5-1.5 1.5S10 13.327 10 12.5zM6 2.5c0-0.44 0.193-0.857 0.529-1.143 0.341-0.29 0.778-0.408 1.227-0.336 0.709 0.115 1.245 0.797 1.245 1.586V4h-3zM3 7 3.8 6.4C3.926 6.306 4 6.157 4 6S3.926 5.694 3.8 5.6L3 5h6v2zM9 8v3.275c-0.884-0.667-2.113-0.669-3-7e-3V8zM21 19.5c0 1.93-1.57 3.5-3.5 3.5H9.813c-1.736 0-3.369-0.676-4.596-1.904l-1.072-1.072C3.406 19.285 2.999 18.302 3 17.256c0-1.045 0.409-2.027 1.149-2.765l2.287-2.283c0.584-0.583 1.535-0.583 2.12 1e-3 0.284 0.284 0.439 0.661 0.439 1.062s-0.157 0.778-0.441 1.061l-2.408 2.405c-0.195 0.195-0.195 0.512 0 0.708 0.195 0.195 0.512 0.195 0.708 0l2.408-2.405c0.217-0.216 0.388-0.466 0.511-0.736 0.449 0.43 1.058 0.696 1.728 0.696 0.817 0 1.544-0.394 2-1.002 0.456 0.608 1.183 1.002 2 1.002s1.544-0.394 2-1.002c0.456 0.608 1.183 1.002 2 1.002 0.562 0 1.082-0.187 1.5-0.501zM21 12.5c0 0.827-0.673 1.5-1.5 1.5S18 13.327 18 12.5v-2C18 9.672 18.672 9 19.5 9S21 9.672 21 10.5z" />
</svg>