<svg id="hand_dryer_Layer_1" viewBox="0 0 24 24" fill="currentColor" width="32" height="32" data-name="Layer 1" xmlns="http://www.w3.org/2000/svg" xmlns:xlink="http://www.w3.org/1999/xlink">
    <title>hand-dryer</title>
    <path d="M12 7c0.276 0 0.5 0.224 0.5 0.5v4c0 0.276-0.224 0.5-0.5 0.5s-0.5-0.224-0.5-0.5v-4C11.5 7.224 11.724 7 12 7zM15 7.5v3c0 0.276 0.224 0.5 0.5 0.5s0.5-0.224 0.5-0.5v-3C16 7.224 15.776 7 15.5 7S15 7.224 15 7.5zM8 7.5v3C8 10.776 8.224 11 8.5 11S9 10.776 9 10.5v-3C9 7.224 8.776 7 8.5 7S8 7.224 8 7.5zM6.5 5h11C19.43 5 21 3.43 21 1.5v-1C21 0.224 20.776 0 20.5 0S20 0.224 20 0.5v1C20 2.878 18.878 4 17.5 4h-11C5.122 4 4 2.878 4 1.5v-1C4 0.224 3.776 0 3.5 0S3 0.224 3 0.5v1C3 3.43 4.57 5 6.5 5zM20.5 14h-9.858c-1.21 0-2.221 0.822-2.533 1.933l-3.742-4.112c-0.451-0.496-1.069-0.787-1.739-0.818-0.668-0.029-1.313 0.2-1.809 0.652-1.011 0.922-1.093 2.504-0.184 3.526l6.806 7.639c0.343 0.385 0.721 0.745 1.123 1.07 0.213 0.173 0.529 0.141 0.703-0.075 0.173-0.215 0.14-0.529-0.075-0.703-0.359-0.29-0.697-0.612-1.003-0.957l-6.806-7.639c-0.548-0.615-0.498-1.567 0.11-2.122 0.298-0.272 0.688-0.409 1.088-0.393 0.403 0.019 0.775 0.194 1.047 0.492l4.502 4.948c0 0 4e-3 2e-3 6e-3 4e-3 0.305 0.938 1.119 1.667 2.144 1.813l6.161 0.737c0.288 0.034 0.523-0.163 0.556-0.437s-0.163-0.523-0.437-0.556l-6.149-0.736c-0.804-0.115-1.41-0.813-1.41-1.625 0-0.905 0.737-1.642 1.642-1.642h9.858c1.378 0 2.5 1.122 2.5 2.5v6c0 0.276 0.224 0.5 0.5 0.5s0.5-0.224 0.5-0.5v-6c0-1.93-1.57-3.5-3.501-3.499z" />
</svg>