<svg id="hand_paper_Layer_1" viewBox="0 0 24 24" fill="currentColor" width="32" height="32" data-name="Layer 1" xmlns="http://www.w3.org/2000/svg" xmlns:xlink="http://www.w3.org/1999/xlink">
    <title>hand-paper</title>
    <path d="M22.119 3.595c-0.56-0.477-1.301-0.679-2.035-0.562C19.679 3.099 19.313 3.277 19 3.525V3.499c0-1.378-1.122-2.5-2.5-2.5-0.64 0-1.218 0.249-1.66 0.645-0.351-0.957-1.263-1.645-2.34-1.645-1.378 0-2.5 1.122-2.5 2.5v0.026C9.687 2.277 9.321 2.099 8.916 2.033 8.184 1.917 7.441 2.118 6.881 2.595 6.321 3.071 6 3.765 6 4.5v10.601l-1.796-1.428c-1.006-0.94-2.588-0.888-3.529 0.119s-0.889 2.593 0.111 3.53l3.354 3.234C6.444 22.777 9.474 24 12.674 24h2.352C19.423 24 23 20.423 23 16.026V5.5c0-0.734-0.321-1.429-0.881-1.905zM22 16.026C22 19.872 18.872 23 15.026 23h-2.352c-2.939 0-5.724-1.124-7.84-3.164l-3.359-3.239c-0.604-0.566-0.635-1.519-0.07-2.123 0.273-0.292 0.644-0.46 1.043-0.474 0.409-7e-3 0.781 0.129 1.103 0.428l2.637 2.1c0.151 0.12 0.356 0.144 0.529 0.059C6.89 16.504 7 16.329 7 16.137V4.5c0-0.44 0.193-0.857 0.529-1.143 0.341-0.29 0.778-0.408 1.227-0.336 0.709 0.115 1.245 0.797 1.245 1.586V10.5c0 0.276 0.224 0.5 0.5 0.5s0.5-0.224 0.5-0.5v-8c0-0.827 0.673-1.5 1.5-1.5s1.5 0.673 1.5 1.5v8c0 0.276 0.224 0.5 0.5 0.5s0.5-0.224 0.5-0.5v-7c0-0.827 0.673-1.5 1.5-1.5s1.5 0.673 1.5 1.5v7c0 0.276 0.224 0.5 0.5 0.5s0.5-0.224 0.5-0.5V5.607c0-0.789 0.535-1.471 1.244-1.586 0.451-0.074 0.886 0.046 1.227 0.336 0.336 0.286 0.529 0.703 0.529 1.143z" />
</svg>