<svg id="hand_scissors_Layer_1" viewBox="0 0 24 24" fill="currentColor" width="32" height="32" data-name="Layer 1" xmlns="http://www.w3.org/2000/svg" xmlns:xlink="http://www.w3.org/1999/xlink">
    <title>hand-scissors</title>
    <path d="M21.803 5.228 19.495 2.92c-0.593-0.593-1.381-0.919-2.22-0.919h-5e-3c-0.841 1e-3-1.63 0.331-2.222 0.927l-3.035 3.055L3.06 4.066C2.344 3.9 1.596 4.058 1.006 4.497S0.052 5.611 3e-3 6.353c-0.078 1.201 0.798 2.322 2.053 2.611L7.213 10 2.042 11.04c-1.24 0.286-2.117 1.407-2.039 2.608 0.048 0.742 0.414 1.419 1.004 1.857s1.337 0.595 2.037 0.434l6.578-1.28 0.745 3.723c0.419 2.096 2.275 3.617 4.413 3.617h4.721c2.481 0 4.5-2.019 4.5-4.5V10.53c0-2.004-0.78-3.887-2.198-5.302zM23 17.5c0 1.93-1.57 3.5-3.5 3.5h-4.721c-1.663 0-3.106-1.183-3.432-2.813l-0.842-4.211c-0.047-0.237-0.256-0.402-0.49-0.402-0.032 0-0.064 3e-3-0.096 9e-3l-7.083 1.379c-0.43 0.101-0.878 5e-3-1.232-0.258-0.359-0.267-0.573-0.665-0.603-1.121-0.047-0.717 0.498-1.391 1.252-1.565l7.595-1.527c0.233-0.047 0.401-0.252 0.401-0.49s-0.168-0.443-0.401-0.49L2.266 7.988C1.497 7.811 0.953 7.136 1 6.42 1.03 5.964 1.244 5.566 1.603 5.299c0.354-0.263 0.8-0.359 1.24-0.257l14.128 3.025c0.269 0.059 0.535-0.114 0.593-0.384S17.45 7.147 17.18 7.09l-4.005-0.858 2.581-2.599c0.404-0.407 0.942-0.631 1.515-0.632h3e-3c0.571 0 1.108 0.222 1.513 0.626l2.308 2.308c1.228 1.228 1.904 2.859 1.904 4.596z" />
</svg>