<svg id="hand_holding_droplet_Layer_1" viewBox="0 0 24 24" fill="currentColor" width="32" height="32" data-name="Layer 1" xmlns="http://www.w3.org/2000/svg" xmlns:xlink="http://www.w3.org/1999/xlink">
    <title>hand-holding-droplet</title>
    <path d="M23.181 9.654c-0.497-0.451-1.143-0.683-1.809-0.651-0.67 0.031-1.288 0.321-1.739 0.817l-3.732 4.103C15.587 12.815 14.566 12 13.359 12H3.5C1.57 12 0 13.57 0 15.5v5C0 22.43 1.57 24 3.5 24h5.965c2.706 0 5.292-1.159 7.093-3.18l6.806-7.64c0.91-1.022 0.828-2.604-0.183-3.526zM22.618 12.514l-6.806 7.64C14.2 21.963 11.887 23 9.465 23H3.5C2.122 23 1 21.879 1 20.5v-5C1 14.121 2.122 13 3.5 13h9.858C14.263 13 15 13.737 15 14.643c0 0.812-0.606 1.511-1.399 1.624L7.44 17.004c-0.274 0.032-0.47 0.281-0.437 0.556 0.033 0.274 0.274 0.477 0.556 0.437l6.171-0.738c1.022-0.146 1.846-0.878 2.146-1.824l4.495-4.939c0.272-0.299 0.644-0.474 1.047-0.492 0.399-0.02 0.79 0.121 1.088 0.392 0.608 0.556 0.658 1.507 0.112 2.118zM9.001 9.999c2.206 0 4-1.734 4-3.865 0-1.527-1.289-3.106-2.497-4.467-0.763-0.859-2.243-0.859-3.006 0-1.208 1.36-2.497 2.939-2.497 4.467 0 2.131 1.794 3.865 4 3.865zM8.245 2.331c0.195-0.219 0.463-0.34 0.756-0.34s0.561 0.121 0.755 0.34c0.785 0.883 2.245 2.527 2.245 3.803 0 1.58-1.346 2.865-3 2.865s-3-1.285-3-2.865c0-1.275 1.46-2.92 2.244-3.803z" />
</svg>