<svg id="hand_holding_magic_Layer_1" viewBox="0 0 24 24" fill="currentColor" width="32" height="32" data-name="Layer 1" xmlns="http://www.w3.org/2000/svg" xmlns:xlink="http://www.w3.org/1999/xlink">
    <title>hand-holding-magic</title>
    <path d="M7 8.075c1.725 0 2.655-0.806 3.106-1.604 0.123-0.218-0.056-0.445-0.265-0.445-0.057 0-0.117 0.017-0.173 0.056C9.188 6.413 8.582 6.548 8 6.548c-1.094 0-2-0.658-2-1.5 0-1.811 1.876-1.996 3.131-1.996 0.131 0 0.255 2e-3 0.369 4e-3 1.453 0.03 3.5 0.992 3.5 2.992 0 1.204-0.57 2.337-1.486 3.205-0.198 0.188-0.042 0.494 0.195 0.494 0.035 0 0.071-7e-3 0.108-0.021C13.541 9.058 15 7.433 15 5.048c0-3.22-3.247-4.974-6.285-4.974C6 0.074 3 1.5 3 4.548 3 6.084 4 8.075 7 8.075zM8.716 1.074C11.278 1.074 14 2.467 14 5.048c0 0.176-0.01 0.349-0.029 0.517-0.292-2.358-2.705-3.472-4.45-3.509-0.121-3e-3-0.252-5e-3-0.39-5e-3C5.537 2.051 5 3.928 5 5.047c0 0.794 0.422 1.49 1.094 1.945C4.196 6.615 4 5.055 4 4.532 4 1.999 7 1.073 8.716 1.074zM23.182 9.655c-0.497-0.452-1.142-0.68-1.809-0.652-0.67 0.032-1.288 0.322-1.739 0.818l-3.732 4.102c-0.314-1.108-1.335-1.922-2.543-1.922H3.5c-1.93 0-3.5 1.57-3.5 3.5v5c0 1.93 1.57 3.5 3.5 3.5h5.965c2.707 0 5.292-1.159 7.093-3.181l6.806-7.639c0.911-1.022 0.829-2.604-0.182-3.526zM22.619 12.516l-6.806 7.639c-1.611 1.809-3.925 2.846-6.347 2.846H3.5c-1.379 0-2.5-1.122-2.5-2.5v-5c0-1.378 1.121-2.5 2.5-2.5h9.857c0.905 0 1.643 0.737 1.643 1.642 0 0.812-0.606 1.511-1.398 1.624l-6.161 0.737c-0.274 0.033-0.47 0.282-0.437 0.556 0.032 0.275 0.282 0.466 0.556 0.437l6.173-0.739c1.021-0.146 1.844-0.878 2.145-1.824l4.496-4.94c0.271-0.298 0.643-0.473 1.046-0.492 0.402-0.019 0.79 0.12 1.088 0.393 0.609 0.555 0.658 1.506 0.111 2.121z" />
</svg>