<svg id="hands_bubbles_Layer_1" viewBox="0 0 24 24" fill="currentColor" width="32" height="32" data-name="Layer 1" xmlns="http://www.w3.org/2000/svg" xmlns:xlink="http://www.w3.org/1999/xlink">
    <title>hands-bubbles</title>
    <path d="M23.614 14.1c-0.316-0.439-0.776-0.74-1.292-0.854l0.823-0.823c0.776-0.776 0.904-1.997 0.296-2.841-0.364-0.506-0.921-0.829-1.532-0.894 0.263-0.677 0.197-1.449-0.227-2.038-0.375-0.521-0.952-0.849-1.584-0.9-0.633-0.052-1.252 0.176-1.701 0.625L18.092 6.68c-0.056-0.281-0.169-0.551-0.342-0.79-0.375-0.521-0.952-0.849-1.584-0.9-0.631-0.048-1.252 0.176-1.701 0.625l-4.464 4.464v-1.49c0-1.274-0.896-2.38-2.083-2.573-0.735-0.121-1.476 0.085-2.035 0.561-0.56 0.476-0.881 1.17-0.881 1.905v7.015c0 1.736 0.676 3.368 1.904 4.596l1.979 1.979c1.283 1.282 2.967 1.923 4.652 1.923s3.369-0.641 4.652-1.923l5.132-5.132c0.776-0.776 0.904-1.997 0.293-2.84zM22.611 16.234l-5.132 5.132c-2.176 2.174-5.715 2.175-7.89 0L7.61 19.387c-1.039-1.039-1.611-2.42-1.611-3.889V8.483c0-0.441 0.193-0.858 0.529-1.144 0.341-0.29 0.778-0.409 1.227-0.335 0.709 0.115 1.244 0.797 1.244 1.586v2.697c0 0.202 0.122 0.385 0.309 0.462 0.188 0.078 0.402 0.035 0.545-0.108l5.318-5.318c0.241-0.24 0.581-0.366 0.914-0.335 0.344 0.028 0.647 0.201 0.854 0.487 0.324 0.451 0.242 1.117-0.191 1.55-2e-3 2e-3-3e-3 3e-3-5e-3 5e-3l-4.21 4.21c-0.195 0.195-0.195 0.512 0 0.707 0.098 0.098 0.226 0.146 0.354 0.146s0.256-0.049 0.354-0.146l5.864-5.864c0.241-0.241 0.581-0.366 0.914-0.335 0.344 0.028 0.647 0.201 0.854 0.487 0.324 0.45 0.242 1.116-0.191 1.549l-5.801 5.802c-0.195 0.195-0.195 0.512 0 0.707s0.512 0.195 0.707 0l5.278-5.278c0.24-0.241 0.573-0.362 0.913-0.335 0.345 0.028 0.648 0.201 0.854 0.487 0.324 0.45 0.242 1.116-0.191 1.549l-5.215 5.215c-0.195 0.195-0.195 0.512 0 0.707s0.512 0.195 0.707 0l3.105-3.105c0.241-0.24 0.574-0.361 0.913-0.335 0.345 0.028 0.648 0.201 0.854 0.487 0.324 0.451 0.242 1.117-0.195 1.549zM5.964 23.761c-0.095 0.153-0.258 0.237-0.426 0.237-0.09 0-0.181-0.024-0.263-0.075-0.431-0.267-0.832-0.585-1.193-0.946l-2.539-2.991C0.548 18.813 0 17.319 0 15.782V8.484c0-0.735 0.321-1.429 0.881-1.905s1.3-0.682 2.035-0.561c0.272 0.044 0.458 0.301 0.413 0.574C3.285 6.864 3.03 7.048 2.755 7.005 2.305 6.93 1.869 7.05 1.529 7.34 1.193 7.626 1 8.043 1 8.484v7.298c0 1.301 0.464 2.564 1.306 3.558l2.511 2.961c0.279 0.276 0.62 0.546 0.985 0.772 0.235 0.146 0.307 0.454 0.162 0.688zM18 4c1.103 0 2-0.897 2-2s-0.897-2-2-2-2 0.897-2 2 0.897 2 2 2zM18 1c0.551 0 1 0.449 1 1s-0.449 1-1 1-1-0.449-1-1 0.449-1 1-1zM4.838 5.971c0.26-0.092 0.396-0.378 0.304-0.638C5.047 5.066 4.999 4.786 4.999 4.5c0-1.378 1.122-2.5 2.5-2.5s2.5 1.122 2.5 2.5c0 0.286-0.048 0.566-0.143 0.833C9.764 5.593 9.9 5.879 10.16 5.971 10.215 5.991 10.272 6 10.327 6c0.206 0 0.399-0.128 0.471-0.333 0.083-0.235 0.141-0.477 0.172-0.724C11.143 4.98 11.32 5 11.498 5c1.378 0 2.5-1.122 2.5-2.5S12.876 0 11.498 0c-1.006 0-1.875 0.598-2.271 1.458C8.717 1.167 8.127 1 7.498 1c-1.93 0-3.5 1.57-3.5 3.5 0 0.399 0.067 0.792 0.2 1.167 0.092 0.26 0.378 0.397 0.64 0.304zM11.5 1C12.327 1 13 1.673 13 2.5S12.327 4 11.5 4c-0.19 0-0.378-0.037-0.553-0.106-0.12-0.684-0.439-1.3-0.895-1.786C10.225 1.47 10.808 1 11.5 1z" />
</svg>