<svg id="handmade_Layer_1" viewBox="0 0 24 24" fill="currentColor" width="32" height="32" data-name="Layer 1" xmlns="http://www.w3.org/2000/svg" xmlns:xlink="http://www.w3.org/1999/xlink">
    <title>handmade</title>
    <path d="M23.602 10.535c-0.337-0.468-0.835-0.773-1.388-0.883l0.9-0.9c0.804-0.803 0.937-2.068 0.308-2.94-0.384-0.534-0.975-0.871-1.623-0.928 0.286-0.708 0.229-1.519-0.215-2.137-0.388-0.539-0.985-0.878-1.641-0.931-0.659-0.051-1.297 0.183-1.76 0.647l-0.356 0.356c-0.054-0.308-0.166-0.605-0.354-0.865-0.388-0.539-0.985-0.878-1.641-0.931-0.659-0.052-1.297 0.184-1.76 0.647L5 10.74V7.593C5 6.32 4.104 5.214 2.916 5.02 2.185 4.903 1.441 5.105 0.881 5.582 0.321 6.058 0 6.752 0 7.487v7.17c0 2.248 0.915 4.447 2.511 6.031l0.815 0.81c1.627 1.616 3.78 2.503 6.07 2.503 0.026 0 0.052 0 0.079 0 2.319-0.021 4.487-0.947 6.103-2.61l7.717-7.914c0.804-0.803 0.937-2.067 0.307-2.942zM22.582 12.772 14.86 20.691c-1.429 1.471-3.345 2.29-5.395 2.309-2.045-0.011-3.98-0.768-5.435-2.212l-0.815-0.81C1.807 18.58 1 16.64 1 14.656v-7.17c0-0.44 0.193-0.857 0.529-1.143 0.342-0.29 0.778-0.407 1.227-0.336 0.709 0.115 1.245 0.797 1.245 1.586v4.354c0 0.202 0.122 0.385 0.309 0.462 0.186 0.079 0.401 0.035 0.545-0.108l9.923-9.925c0.256-0.256 0.616-0.384 0.973-0.357 0.366 0.03 0.689 0.214 0.909 0.519 0.345 0.479 0.258 1.188-0.202 1.648l-5.137 5.136c-0.195 0.195-0.195 0.512 0 0.707 0.098 0.098 0.226 0.146 0.354 0.146s0.256-0.049 0.354-0.146l5.136-5.135c0 0 0 0 0 0s0 0 0 0l1.723-1.723c0.256-0.256 0.612-0.385 0.973-0.357 0.366 0.03 0.689 0.214 0.909 0.519 0.345 0.48 0.258 1.189-0.203 1.649l-1.689 1.689c0 0 0 0 0 1e-3l-5.104 5.103c-0.195 0.195-0.195 0.512 0 0.707 0.098 0.098 0.226 0.146 0.354 0.146s0.256-0.049 0.354-0.146l6.247-6.247c0.256-0.256 0.612-0.384 0.973-0.357 0.366 0.03 0.689 0.214 0.909 0.519 0.345 0.479 0.258 1.188-0.203 1.649l-2.689 2.69-3.491 3.491c-0.195 0.195-0.195 0.512 0 0.707s0.512 0.195 0.707 0l3.118-3.117c0 0 0 0 0 0l0.373-0.373 0.484-0.484c0.256-0.256 0.611-0.383 0.973-0.357 0.366 0.03 0.689 0.214 0.909 0.519 0.345 0.479 0.258 1.188-0.21 1.65zM10.75 13.521c-0.722 0-1.344 0.303-1.75 0.792-0.406-0.489-1.028-0.792-1.75-0.792-1.241 0-2.25 1.072-2.25 2.391 0 1.504 1.576 3.11 2.897 4.193 0.319 0.262 0.711 0.393 1.103 0.393s0.783-0.131 1.103-0.393C11.425 19.022 13 17.416 13 15.912c0-1.318-1.009-2.391-2.25-2.391zM9.469 19.332c-0.276 0.227-0.661 0.227-0.938 0C6.922 18.014 6 16.768 6 15.912c0-0.767 0.561-1.391 1.25-1.391 0.736 0 1.25 0.501 1.25 1.219 0 0.276 0.224 0.5 0.5 0.5s0.5-0.224 0.5-0.5c0-0.718 0.514-1.219 1.25-1.219 0.689 0 1.25 0.624 1.25 1.391 0 0.855-0.922 2.102-2.531 3.42z" />
</svg>