<svg id="hand_horns_bolt_Layer_1" viewBox="0 0 24 24" fill="currentColor" width="32" height="32" data-name="Layer 1" xmlns="http://www.w3.org/2000/svg" xmlns:xlink="http://www.w3.org/1999/xlink">
    <title>hand-horns-bolt</title>
    <path d="M21.947 12.185c-0.979-0.706-2.397-0.558-3.302 0.346l-1.762 1.762c-0.074-0.539-0.31-1.039-0.701-1.429-0.582-0.582-1.38-0.809-2.138-0.697 0.137-0.779-0.141-1.585-0.698-2.14-0.413-0.413-0.961-0.635-1.525-0.688l2.841-2.94c0.903-0.903 1.053-2.322 0.347-3.301-0.855-1.252-2.777-1.408-3.819-0.314L5.15 9.001H4.501c-2.481 0-4.5 2.019-4.5 4.5v4.989c0 1.472 0.573 2.854 1.615 3.894 1.038 1.036 2.418 1.606 3.885 1.606h0.012l4.859-0.01c2.53-6e-3 4.909-0.995 6.697-2.783L22.266 16c0.521-0.521 0.786-1.24 0.727-1.975-0.06-0.733-0.439-1.404-1.046-1.84zM14.411 13.13c0.386 0 0.771 0.147 1.064 0.44 0.585 0.56 0.585 1.569 0 2.13l-1.415 1.416-3e-3 3e-3c-0.588 0.589-1.542 0.587-2.13 0-0.585-0.56-0.585-1.569 0-2.13l1.418-1.419c0.294-0.293 0.68-0.44 1.066-0.44zM10.509 10.734c0.588-0.588 1.542-0.586 2.13 0 0.585 0.56 0.585 1.569 0 2.13l-1.418 1.419c-0.588 0.586-1.543 0.586-2.131 0-0.587-0.588-0.587-1.544 0-2.131zM11.902 3.486c0.625-0.654 1.784-0.562 2.297 0.196 0.421 0.586 0.317 1.449-0.249 2.016l-5.031 5.206c-0.268-1.076-1.227-1.878-2.38-1.898zM21.559 15.293 16.362 20.49c-1.601 1.601-3.729 2.484-5.992 2.49l-4.859 0.01h-0.01c-1.2 0-2.329-0.467-3.179-1.314-0.852-0.851-1.321-1.981-1.321-3.186v-4.989c0-1.93 1.57-3.5 3.5-3.5h1.995c0.83 0 1.505 0.676 1.505 1.506 0 0.824-0.67 1.494-1.494 1.494H4.501c-0.276 0-0.5 0.224-0.5 0.5s0.224 0.5 0.5 0.5h2.006c0.433 0 0.834-0.121 1.189-0.316 0.09 0.478 0.319 0.935 0.688 1.305 0.583 0.575 1.37 0.826 2.139 0.697-0.137 0.779 0.141 1.584 0.698 2.14 0.928 0.967 2.595 0.972 3.529 0.012 2e-3-2e-3 4.602-4.601 4.602-4.601 0.56-0.562 1.424-0.664 2.011-0.242 0.371 0.269 0.596 0.662 0.632 1.11 0.036 0.441-0.123 0.874-0.436 1.187zM23.855 3.642c-0.212-0.396-0.622-0.641-1.07-0.641h-0.683l0.489-1.247c0.338-0.81-0.326-1.778-1.204-1.753h-1.654c-0.55 0-1.039 0.349-1.209 0.842l-1.471 3.575C16.8 5.177 17.43 6.024 18.23 6.001h0.658l-0.812 1.352c-0.289 0.458-0.192 1.041 0.229 1.388 0.527 0.409 1.227 0.335 1.774-0.185l3.652-3.588c0.316-0.365 0.349-0.907 0.124-1.326zM22.982 4.302l-3.64 3.601c-0.192 0.184-0.513 0.138-0.329-0.169l1.188-1.975c0.093-0.154 0.096-0.347 7e-3-0.504s-0.255-0.254-0.436-0.254H18.23c-0.186-3e-3-0.293-0.106-0.236-0.249l1.465-3.555c0.04-0.117 0.15-0.196 0.274-0.196h1.654c0.138 0 0.213 0.088 0.239 0.126 0.026 0.037 0.081 0.139 0.032 0.265l-0.756 1.927c-0.132 0.315 0.124 0.692 0.466 0.683h1.416c0.216 4e-3 0.333 0.134 0.198 0.3z" />
</svg>