<svg id="hand_back_point_right_Layer_1" viewBox="0 0 24 24" fill="currentColor" width="32" height="32" data-name="Layer 1" xmlns="http://www.w3.org/2000/svg" xmlns:xlink="http://www.w3.org/1999/xlink">
    <title>hand-back-point-right</title>
    <path d="M9.221 22H4.5C2.019 22 0 19.981 0 17.5v-6.969c0-2.004 0.78-3.887 2.197-5.303L4.505 2.92c0.593-0.593 1.381-0.919 2.22-0.919h5e-3c0.841 1e-3 1.63 0.331 2.222 0.927l4.068 4.095 8.479-0.022c0.736 0 1.43 0.321 1.906 0.881s0.681 1.301 0.562 2.035c-0.194 1.188-1.3 2.084-2.573 2.084h-6.483l-1.276 6.383C13.216 20.48 11.36 22.001 9.221 22zM6.725 3C6.153 3 5.617 3.222 5.212 3.626L2.904 5.934C1.676 7.162 1 8.793 1 10.53v6.969c0 1.93 1.57 3.5 3.5 3.5h4.721c1.663 0 3.106-1.183 3.432-2.813l1.357-6.785c0.047-0.233 0.252-0.402 0.49-0.402h6.893c0.789 0 1.471-0.535 1.586-1.245 0.073-0.45-0.046-0.886-0.336-1.227-0.286-0.336-0.703-0.529-1.143-0.529L6.501 8.037H6.5C6.225 8.037 6 7.814 6 7.538s0.223-0.501 0.499-0.501l5.115-0.013L8.243 3.63C7.84 3.223 7.302 2.999 6.729 2.998z" />
</svg>