<svg id="hand_zoom_in_Layer_1" viewBox="0 0 24 24" fill="currentColor" width="32" height="32" data-name="Layer 1" xmlns="http://www.w3.org/2000/svg" xmlns:xlink="http://www.w3.org/1999/xlink">
    <title>hand-zoom-in</title>
    <path d="M5.5 13H2c-1.103 0-2-0.897-2-2V7.5C0 7.224 0.224 7 0.5 7S1 7.224 1 7.5V11c0 0.086 0.029 0.164 0.049 0.244L11.244 1.049C11.164 1.028 11.087 1 11 1H7.5C7.224 1 7 0.776 7 0.5S7.224 0 7.5 0H11c1.103 0 2 0.897 2 2v3.5C13 5.776 12.776 6 12.5 6S12 5.776 12 5.5V2c0-0.086-0.029-0.164-0.049-0.244L1.756 11.951C1.836 11.972 1.913 12 2 12h3.5C5.776 12 6 12.224 6 12.5S5.776 13 5.5 13zM20.764 17.94l-5.762-2.28v-5.053c0-1.273-0.896-2.379-2.084-2.573-0.73-0.115-1.476 0.085-2.035 0.562-0.56 0.476-0.881 1.17-0.881 1.905v9.424l-0.138 0.067-1.688-1.344c0 0-7e-3-3e-3-0.01-5e-3-1.008-0.904-2.562-0.845-3.49 0.149-0.941 1.007-0.894 2.588 0.106 3.524l1.64 1.548c0.092 0.087 0.214 0.135 0.341 0.135 0.448 0 0.667-0.547 0.342-0.856l-1.633-1.551c-0.599-0.562-0.629-1.514-0.064-2.118 0.561-0.602 1.509-0.635 2.115-0.073 4e-3 4e-3 0.01 4e-3 0.014 8e-3 7e-3 6e-3 0.01 0.014 0.017 0.02l1.688 1.344c0.329 0.261 0.768 0.311 1.147 0.128s0.614-0.557 0.614-0.978V10.5c0-0.441 0.193-0.857 0.529-1.143 0.341-0.29 0.777-0.409 1.227-0.336 0.709 0.115 1.245 0.797 1.245 1.586V16c0 0.205 0.125 0.39 0.316 0.465l6.086 2.408c1.602 0.601 2.596 1.99 2.596 3.627v1c0 0.276 0.224 0.5 0.5 0.5s0.5-0.224 0.5-0.5v-1c0-2.064-1.243-3.812-3.238-4.56z" />
</svg>