<svg id="hand_key_Layer_1" viewBox="0 0 24 24" fill="currentColor" width="32" height="32" data-name="Layer 1" xmlns="http://www.w3.org/2000/svg" xmlns:xlink="http://www.w3.org/1999/xlink">
    <title>hand-key</title>
    <path d="M6 10c0 0.552-0.448 1-1 1s-1-0.448-1-1 0.448-1 1-1 1 0.448 1 1zM10 11c0 1.79-0.95 3.415-2.5 4.31v5.154c0 0.935-0.364 1.814-1.025 2.475l-0.768 0.769C5.512 23.903 5.256 24 5 24s-0.512-0.098-0.707-0.292l-1.061-1.06c-0.39-0.39-0.39-1.024 0-1.415l0.708-0.708-0.707-0.707c-0.39-0.39-0.39-1.024 0-1.414l0.344-0.344-0.451-0.428c-0.397-0.375-0.625-0.905-0.625-1.452v-0.871c-1.55-0.896-2.5-2.52-2.5-4.31 0-2.757 2.243-5 5-5S10.001 8.242 10 11zM9 11c0-2.206-1.794-4-4-4s-4 1.794-4 4c0 1.513 0.852 2.879 2.224 3.564 0.169 0.085 0.276 0.258 0.276 0.447v1.169c0 0.273 0.114 0.538 0.312 0.726l0.824 0.781c0.203 0.184 0.208 0.527 0.01 0.716L3.939 19.11 5 20.171c0.195 0.195 0.195 0.512 0 0.707l-1.061 1.061L5 23l0.768-0.769c0.472-0.472 0.732-1.1 0.732-1.768v-5.452c0-0.189 0.107-0.362 0.276-0.447C8.148 13.878 9 12.512 9 11zM20.5 0h-6.42c-2.097 0-4.164 0.708-5.82 1.992L6.178 3.605C5.96 3.774 5.92 4.088 6.089 4.306 6.257 4.524 6.572 4.564 6.79 4.395l2.082-1.613C10.354 1.633 12.204 1 14.08 1h6.42C21.879 1 23 2.122 23 3.5v5c0 1.378-1.121 2.5-2.5 2.5h-6.857C12.737 11 12 10.263 12 9.358c0-0.812 0.606-1.511 1.403-1.625l5.661-0.737c0.274-0.036 0.467-0.286 0.432-0.56-0.036-0.274-0.297-0.467-0.561-0.431l-5.667 0.738c-1.293 0.185-2.269 1.31-2.269 2.616 0 1.457 1.186 2.642 2.643 2.642h6.857c1.93 0 3.5-1.57 3.5-3.5V3.5c0-1.93-1.57-3.5-3.499-3.5z" />
</svg>