<svg id="hand_holding_skull_Layer_1" viewBox="0 0 24 24" fill="currentColor" width="32" height="32" data-name="Layer 1" xmlns="http://www.w3.org/2000/svg" xmlns:xlink="http://www.w3.org/1999/xlink">
    <title>hand-holding-skull</title>
    <path d="M23.181 9.655c-0.496-0.452-1.141-0.672-1.809-0.652-0.67 0.032-1.288 0.322-1.739 0.818l-3.732 4.102c-0.314-1.108-1.335-1.922-2.543-1.922H3.5c-1.93 0-3.5 1.57-3.5 3.5v5c0 1.93 1.57 3.5 3.5 3.5h5.965c2.707 0 5.292-1.159 7.093-3.181l6.806-7.639c0.911-1.022 0.829-2.604-0.183-3.526zM22.618 12.516l-6.806 7.639c-1.611 1.809-3.925 2.846-6.347 2.846H3.5c-1.379 0-2.5-1.122-2.5-2.5v-5c0-1.378 1.121-2.5 2.5-2.5h9.857c0.905 0 1.643 0.737 1.643 1.642 0 0.812-0.606 1.511-1.398 1.624l-6.161 0.737c-0.274 0.033-0.47 0.282-0.437 0.556 0.032 0.275 0.283 0.466 0.556 0.437l6.173-0.739c1.021-0.146 1.844-0.878 2.145-1.824l4.496-4.94c0.271-0.298 0.643-0.473 1.046-0.492 0.405-0.017 0.789 0.12 1.088 0.393 0.609 0.555 0.658 1.506 0.11 2.121zM5 5c0-0.552 0.448-1 1-1s1 0.448 1 1-0.448 1-1 1-1-0.448-1-1zM9 5c0-0.552 0.448-1 1-1s1 0.448 1 1-0.448 1-1 1-1-0.448-1-1zM5 8c0 1.103 0.897 2 2 2h2c1.103 0 2-0.897 2-2 1.103 0 2-0.897 2-2V5c0-1.406-0.599-2.756-1.643-3.703-1.058-0.961-2.436-1.414-3.853-1.273C4.979 0.27 3 2.543 3 5.2V6c0 1.103 0.897 2 2 2zM4 5.2c0-2.148 1.581-3.984 3.6-4.18v0C7.736 1.007 7.871 1 8.004 1c0.995 0 1.935 0.361 2.681 1.038C11.52 2.796 11.999 3.876 11.999 5v1c0 0.551-0.448 1-1 1h-0.5c-0.276 0-0.5 0.224-0.5 0.5V8c0 0.551-0.448 1-1 1h-2c-0.552 0-1-0.449-1-1V7.5c0-0.276-0.224-0.5-0.5-0.5h-0.5c-0.552 0-1-0.449-1-1z" />
</svg>