<svg id="hand_cleaning_Layer_1" viewBox="0 0 24 24" fill="currentColor" width="32" height="32" data-name="Layer 1" xmlns="http://www.w3.org/2000/svg" xmlns:xlink="http://www.w3.org/1999/xlink">
    <title>hand-cleaning</title>
    <path d="M6 22.5C6 22.776 5.776 23 5.5 23h-1C2.019 23 0 20.981 0 18.5v-9C0 7.019 2.019 5 4.5 5h9c1.843 0 3.481 1.104 4.172 2.812 0.104 0.256-0.02 0.547-0.276 0.651s-0.547-0.02-0.651-0.276c-0.538-1.329-1.812-2.188-3.246-2.188H4.5c-1.93 0-3.5 1.57-3.5 3.5v9c0 1.93 1.57 3.5 3.5 3.5h1c0.276 0 0.5 0.224 0.5 0.501zM22 13c-0.366 0-0.705 0.106-1 0.278V13c0-1.103-0.897-2-2-2-0.415 0-0.8 0.127-1.12 0.344C17.607 10.564 16.872 10 16 10c-1.103 0-2 0.897-2 2v0.278C13.705 12.106 13.366 12 13 12c-1.103 0-2 0.897-2 2v4.494c-0.888-0.627-2.083-0.665-2.94-0.048-0.603 0.435-0.983 1.104-1.042 1.836-0.059 0.733 0.205 1.451 0.694 1.937l1.404 1.678c0.177 0.212 0.494 0.24 0.704 0.062 0.212-0.177 0.24-0.493 0.062-0.704l-1.434-1.71c-0.312-0.312-0.47-0.742-0.434-1.182 0.036-0.446 0.259-0.839 0.629-1.105 0.583-0.419 1.444-0.317 1.965 0.2l0.5 0.625c0.132 0.166 0.354 0.23 0.556 0.16 0.2-0.07 0.334-0.259 0.334-0.472V14c0-0.551 0.449-1 1-1s1 0.449 1 1v5.5c0 0.276 0.224 0.5 0.5 0.5s0.5-0.224 0.5-0.5V12c0-0.551 0.449-1 1-1s1 0.449 1 1v7.5c0 0.276 0.224 0.5 0.5 0.5s0.5-0.224 0.5-0.5V13c0-0.551 0.449-1 1-1s1 0.449 1 1v6.5c0 0.276 0.224 0.5 0.5 0.5s0.5-0.224 0.5-0.5V15c0-0.551 0.449-1 1-1s1 0.449 1 1v8.5c0 0.276 0.224 0.5 0.5 0.5s0.5-0.224 0.5-0.5V15c0-1.103-0.897-2-1.998-2zM17 3.432c4e-3-0.205 0.132-0.386 0.323-0.458l1.938-0.733 0.775-1.938c0.152-0.38 0.776-0.38 0.929 0l0.777 1.943 1.944 0.778C23.876 3.1 24 3.284 24 3.488s-0.125 0.388-0.314 0.464l-1.944 0.777-0.777 1.944c-0.076 0.19-0.26 0.314-0.464 0.314s-0.388-0.125-0.464-0.314l-0.779-1.949-1.951-0.822c-0.188-0.08-0.31-0.266-0.307-0.47zM18.847 3.466l0.991 0.417c0.123 0.052 0.22 0.151 0.27 0.275l0.393 0.982 0.393-0.982c0.051-0.127 0.152-0.228 0.279-0.279l0.982-0.393-0.982-0.393c-0.127-0.051-0.228-0.152-0.279-0.279l-0.393-0.982-0.393 0.982c-0.052 0.13-0.156 0.232-0.287 0.282zM7.742 12.742 6.965 14.686C6.889 14.876 6.705 15 6.501 15s-0.388-0.125-0.464-0.314l-0.779-1.949-1.951-0.822c-0.188-0.08-0.31-0.266-0.306-0.47s0.132-0.386 0.323-0.458l1.937-0.733 0.775-1.939c0.152-0.38 0.776-0.38 0.929 0l0.777 1.944 1.944 0.777C9.876 11.112 10 11.296 10 11.5s-0.125 0.388-0.314 0.464zM7.171 11.893 8.153 11.5 7.171 11.107c-0.127-0.051-0.228-0.152-0.279-0.279L6.499 9.846 6.106 10.828c-0.052 0.13-0.156 0.232-0.288 0.282l-0.973 0.368 0.991 0.417c0.123 0.052 0.22 0.151 0.27 0.275l0.393 0.982 0.393-0.982c0.051-0.127 0.152-0.228 0.279-0.277z" />
</svg>