<svg id="hand_middle_finger_Layer_1" viewBox="0 0 24 24" fill="currentColor" width="32" height="32" data-name="Layer 1" xmlns="http://www.w3.org/2000/svg" xmlns:xlink="http://www.w3.org/1999/xlink">
    <title>hand-middle-finger</title>
    <path d="M18.387 10.368 16 9.847v-7.24c0-1.273-0.896-2.379-2.084-2.573-0.729-0.115-1.475 0.086-2.035 0.562S11 1.766 11 2.501v6.253l-0.106-0.023C9.941 8.523 8.956 8.754 8.197 9.366c-0.484 0.39-0.837 0.9-1.029 1.472-6e-3 6e-3-0.013 0.012-0.02 0.019l-4.221 4.192C2.331 15.641 2.002 16.43 2 17.27c-2e-3 0.841 0.325 1.631 0.92 2.226l2.308 2.308c1.416 1.417 3.299 2.197 5.303 2.197h6.97c2.481 0 4.5-2.019 4.5-4.5V14.78c0-2.136-1.52-3.991-3.614-4.412zM21 19.5c0 1.93-1.57 3.5-3.5 3.5h-6.97c-1.736 0-3.368-0.676-4.596-1.904l-2.308-2.308c-0.405-0.405-0.628-0.944-0.627-1.517s0.226-1.11 0.632-1.513l3.368-3.346V17.5c0 0.276 0.224 0.5 0.5 0.5s0.5-0.224 0.5-0.5v-5.636c0-0.672 0.3-1.299 0.823-1.72 0.523-0.422 1.199-0.58 1.857-0.438l0.713 0.156c0.147 0.032 0.302-4e-3 0.42-0.099s0.187-0.238 0.187-0.39V2.5c0-0.44 0.192-0.857 0.528-1.143 0.341-0.29 0.775-0.41 1.228-0.336 0.709 0.115 1.244 0.797 1.244 1.586v7.642c0 0.235 0.164 0.438 0.394 0.488l2.784 0.608c0 0 6e-3 1e-3 9e-3 2e-3 1.63 0.326 2.813 1.77 2.813 3.432z" />
</svg>