<svg id="hand_back_point_down_Layer_1" viewBox="0 0 24 24" fill="currentColor" width="32" height="32" data-name="Layer 1" xmlns="http://www.w3.org/2000/svg" xmlns:xlink="http://www.w3.org/1999/xlink">
    <title>hand-back-point-down</title>
    <path d="M9.505 24c-0.594 0-1.169-0.208-1.624-0.595C7.321 22.929 7 22.235 7 21.5v-8.502L2.927 8.952C2.331 8.359 2.002 7.57 2 6.729c-1e-3-0.84 0.325-1.63 0.919-2.225l2.308-2.308C6.644 0.78 8.527 0 10.531 0H17.5C19.981 0 22 2.019 22 4.5v4.721c0 2.138-1.521 3.993-3.617 4.413L12 14.91v6.483c0 1.273-0.896 2.379-2.083 2.573C9.78 23.988 9.642 23.999 9.505 24zM8 12.792v8.709c0 0.44 0.193 0.857 0.529 1.143 0.34 0.29 0.772 0.409 1.227 0.336C10.465 22.865 11 22.183 11 21.394v-6.893c0-0.238 0.168-0.443 0.402-0.49l6.785-1.357C19.817 12.328 21 10.884 21 9.222V4.5C21 2.57 19.43 1 17.5 1h-6.969C8.794 1 7.162 1.676 5.935 2.904L3.627 5.212C3.222 5.617 3 6.155 3.001 6.728s0.225 1.111 0.632 1.515l3.368 3.346V6.5c0-0.276 0.224-0.5 0.5-0.5s0.5 0.224 0.5 0.5z" />
</svg>