<svg id="hands_together_Layer_1" viewBox="0 0 24 24" fill="currentColor" width="32" height="32" data-name="Layer 1" xmlns="http://www.w3.org/2000/svg" xmlns:xlink="http://www.w3.org/1999/xlink">
    <title>hands-together</title>
    <path d="M17.004 12.5v7.615c0 0.633-0.219 1.403-0.573 2.008-0.229 0.391-0.367 0.868-0.412 1.418-0.022 0.276-0.268 0.481-0.539 0.458-0.275-0.022-0.48-0.264-0.458-0.539 0.057-0.7 0.24-1.32 0.545-1.841 0.301-0.516 0.436-1.127 0.436-1.503v-7.615c0-0.276-0.224-0.5-0.5-0.5s-0.5 0.224-0.5 0.5v3c0 0.276-0.224 0.5-0.5 0.5s-0.5-0.224-0.5-0.5v-4c0-0.276-0.224-0.5-0.5-0.5s-0.5 0.224-0.5 0.5v4c0 0.276-0.224 0.5-0.5 0.5s-0.5-0.224-0.5-0.5v-5c0-0.276-0.224-0.5-0.5-0.5s-0.5 0.224-0.5 0.5v5c0 0.276-0.224 0.5-0.5 0.5s-0.5-0.224-0.5-0.5v-4c0-0.276-0.224-0.5-0.5-0.5s-0.5 0.224-0.5 0.5v7.489c0.014 0.432-0.558 0.671-0.854 0.354l-1.152-1.152c-0.209-0.212-0.582-0.28-0.821 0-0.213 0.201-0.236 0.592-0.026 0.796l2.794 2.72c0.471 0.458 0.802 1.038 0.958 1.676 0.065 0.269-0.099 0.539-0.367 0.605-0.261 0.065-0.54-0.096-0.605-0.367-0.111-0.456-0.348-0.87-0.684-1.197L5.447 19.7c-0.602-0.582-0.582-1.639 0.021-2.215 0.517-0.727 1.933-0.469 2.235 1e-3l0.298 0.298v-6.282c0-0.827 0.673-1.5 1.5-1.5 0.197 0 0.385 0.04 0.558 0.11 0.173-0.638 0.751-1.11 1.442-1.11s1.269 0.473 1.442 1.11c0.173-0.07 0.36-0.11 0.558-0.11 0.691 0 1.269 0.473 1.442 1.11 0.173-0.07 0.36-0.11 0.558-0.11 0.827 0 1.5 0.673 1.503 1.498zM5.552 13.286c0.424 0.015 0.67-0.548 0.359-0.848L2.645 9.062C2.384 8.792 2.056 8.26 1.914 7.679 1.758 7.07 1.409 6.345 0.832 5.797 0.355 5.358-0.325 6.119 0.167 6.543 0.578 6.931 0.822 7.465 0.942 7.917 1.109 8.598 1.486 9.304 1.926 9.758l3.266 3.375c0.098 0.102 0.229 0.152 0.36 0.153zM4.524 2.492C5.081 2.838 5.72 3.02 6.375 3.02h6e-3l4.085-8e-3c0.291 3e-3 0.542 0.278 0.538 0.588 0.027 0.369-0.297 0.574-0.588 0.573L8.6 4.154c-0.425 0.021-0.682 0.534-0.363 0.85l2.464 2.522c0.447 0.47 1.175-0.242 0.715-0.699l-1.622-1.66 0.609 6e-3c0.55 0.125 1.736-0.681 1.6-1.561 0.01-0.857-0.689-1.589-1.533-1.6L6.377 2.02C5.909 2.051 5.485 1.9 5.098 1.671L3.575 0.146C3.123-0.32 2.403 0.401 2.868 0.853c0 0 1.625 1.618 1.656 1.639zM20.234 0.852c0.464-0.454-0.261-1.171-0.71-0.704L18.405 1.28C17.98 1.63 17.541 1.862 17.1 1.969c-0.68 0.167-1.385 0.543-1.838 0.981l-2.199 2.09c-0.477 0.439 0.226 1.179 0.688 0.725l2.203-2.093c0.271-0.262 0.804-0.59 1.384-0.731 0.587-0.144 1.16-0.443 1.739-0.923zM23.858 4.908c-0.195-0.195-0.512-0.195-0.707 0-0.055 0.061-0.599 0.583-0.625 0.644-0.348 0.558-0.53 1.2-0.529 1.857l7e-3 4.086c6e-3 0.295-0.307 0.544-0.587 0.538-0.455-0.014-0.545-0.283-0.573-0.588l0.019-1.816c0.019-0.43-0.545-0.673-0.846-0.366l-1.397 1.339c-0.475 0.442 0.23 1.177 0.692 0.722l0.539-0.516-7e-3 0.626c-0.012 0.862 0.651 1.615 1.562 1.6 0.833 0.029 1.604-0.696 1.599-1.533l-7e-3-4.093c0-0.451 0.119-0.892 0.349-1.279l0.512-0.512c0.195-0.195 0.195-0.512-1e-3-0.709z" />
</svg>