<svg id="hands_heart_Layer_1" viewBox="0 0 24 24" fill="currentColor" width="32" height="32" data-name="Layer 1" xmlns="http://www.w3.org/2000/svg" xmlns:xlink="http://www.w3.org/1999/xlink">
    <title>hands-heart</title>
    <path d="M24 5.5v10.101c0 2.003-0.78 3.887-2.197 5.303l-2.95 2.95C18.755 23.952 18.627 24 18.499 24s-0.256-0.049-0.354-0.146c-0.195-0.195-0.195-0.512 0-0.707l2.95-2.95c1.228-1.228 1.904-2.86 1.904-4.596V5.5c0-0.827-0.673-1.5-1.5-1.5s-1.5 0.673-1.5 1.5c0 0-2e-3 8.045-5e-3 8.067-0.015 0.547-0.208 1.091-0.579 1.533l-2.638 2.746c-0.098 0.102-0.229 0.153-0.36 0.153-0.125 0-0.25-0.046-0.347-0.14-0.199-0.191-0.205-0.508-0.014-0.707l2.616-2.721C18.89 14.171 19 13.84 19 13.507c0-3e-3 0-5e-3 0-8e-3v-0.038c-0.01-0.345-0.137-0.691-0.382-0.965-0.55-0.613-1.497-0.666-2.113-0.116l-2.729 2.512c-0.516 0.474-0.929 1.033-1.231 1.663 0.297 0.753 0.456 1.562 0.456 2.385v4.559c0 0.276-0.224 0.5-0.5 0.5s-0.5-0.224-0.5-0.5V18.94c0-1.534-0.647-3.009-1.776-4.047l-2.734-2.516c-0.609-0.546-1.557-0.494-2.108 0.12-0.494 0.551-0.507 1.394-0.032 1.96l2.593 2.695c0.191 0.199 0.185 0.516-0.014 0.707-0.2 0.191-0.516 0.185-0.707-0.014l-2.616-2.721c-0.375-0.446-0.573-0.985-0.597-1.526-6e-3-0.032-0.01-8.1-0.01-8.1 0-0.827-0.673-1.5-1.5-1.5S1 4.671 1 5.498v10.101c0 1.736 0.676 3.369 1.904 4.596l2.95 2.95c0.195 0.195 0.195 0.512 0 0.707-0.098 0.098-0.226 0.146-0.354 0.146s-0.256-0.049-0.354-0.146l-2.95-2.95c-1.417-1.417-2.197-3.3-2.197-5.303V5.5c0-1.378 1.122-2.5 2.5-2.5s2.5 1.122 2.5 2.5v5.998c0.933-0.699 2.262-0.668 3.162 0.138l2.739 2.521c0.426 0.392 0.794 0.838 1.098 1.321 0.305-0.485 0.673-0.927 1.1-1.321l2.734-2.516c0.904-0.81 2.234-0.842 3.167-0.143V5.5c0-1.378 1.122-2.5 2.5-2.5s2.5 1.122 2.501 2.5zM7 2.93C7 1.314 8.233 0 9.75 0 10.712 0 11.515 0.415 12 1.09 12.485 0.415 13.288 0 14.25 0 15.767 0 17 1.314 17 2.93c0 2.115-2.549 4.708-3.896 5.783C12.779 8.972 12.39 9.101 12 9.101s-0.778-0.129-1.103-0.388C9.549 7.638 7 5.046 7 2.93zM8 2.93c0 1.512 2.059 3.835 3.521 5 0.282 0.226 0.677 0.226 0.959 0 1.461-1.166 3.52-3.488 3.52-5C16 1.866 15.215 1 14.25 1 13.22 1 12.5 1.703 12.5 2.709c0 0.276-0.224 0.5-0.5 0.5s-0.5-0.224-0.5-0.5C11.5 1.703 10.78 1 9.75 1 8.785 1 8 1.866 8 2.93z" />
</svg>