<svg id="hand_horns_Layer_1" viewBox="0 0 24 24" fill="currentColor" width="32" height="32" data-name="Layer 1" xmlns="http://www.w3.org/2000/svg" xmlns:xlink="http://www.w3.org/1999/xlink">
    <title>hand-horns</title>
    <path d="M21.12 1.6c-0.56-0.48-1.3-0.68-2.04-0.56C17.89 1.23 17 2.34 17 3.61V8.5C16.58 8.19 16.06 8 15.5 8c-0.82 0-1.54 0.39-2 1-0.46-0.61-1.18-1-2-1-0.56 0-1.08 0.19-1.5 0.5V2.61c0-1.28-0.9-2.38-2.08-2.58-0.73-0.12-1.47 0.09-2.04 0.56C5.32 1.07 5 1.76 5 2.49v9.94l-1.65 1.58C2.48 14.88 2 16.03 2 17.26s0.48 2.38 1.35 3.25l1.59 1.59C6.17 23.33 7.8 24 9.54 24h6.97c3.03 0 5.5-2.47 5.5-5.5v-15c0-0.73-0.32-1.43-0.89-1.9zM14 10.5C14 9.67 14.67 9 15.5 9S17 9.67 17 10.5v3c0 0.83-0.67 1.5-1.5 1.5S14 14.33 14 13.5zM10 10.5C10 9.67 10.67 9 11.5 9S13 9.67 13 10.5v3c0 0.83-0.67 1.5-1.5 1.5S10 14.33 10 13.5zM6 2.5c0-0.44 0.19-0.86 0.53-1.14 0.34-0.29 0.78-0.41 1.23-0.34C8.47 1.14 9 1.82 9 2.61v8.89c-0.89-0.67-2.12-0.67-3 0zM21 18.5c0 2.48-2.02 4.5-4.5 4.5H9.53c-1.47 0-2.85-0.57-3.89-1.61L4.05 19.8C3.37 19.12 3 18.22 3 17.26s0.38-1.86 1.05-2.53l2.39-2.29c0.58-0.58 1.54-0.58 2.12 0C8.84 12.72 9 13.1 9 13.5s-0.16 0.78-0.43 1.05l-2.41 2.32c-0.2 0.19-0.21 0.51-0.01 0.71 0.19 0.2 0.51 0.21 0.71 0.01l2.42-2.33c0.08-0.08 0.16-0.17 0.23-0.27 0.46 0.61 1.18 1 2 1s1.54-0.39 2-1c0.46 0.61 1.18 1 2 1 1.38 0 2.5-1.12 2.5-2.5V3.61c0-0.79 0.53-1.47 1.24-1.59 0.45-0.08 0.89 0.05 1.23 0.34s0.53 0.7 0.53 1.14z" />
</svg>