<svg id="hard_hat_Layer_1" viewBox="0 0 24 24" fill="currentColor" width="32" height="32" data-name="Layer 1" xmlns="http://www.w3.org/2000/svg" xmlns:xlink="http://www.w3.org/1999/xlink">
    <title>hard-hat</title>
    <path d="M23.5 17H23v-4.309c0-4.814-3.3-9.058-8.033-10.352-0.733-0.816-1.785-1.34-2.967-1.34s-2.234 0.524-2.967 1.34C4.3 3.633 1 7.878 1 12.691V17H0.5C0.224 17 0 17.224 0 17.5S0.224 18 0.5 18h0.751C2.012 18.973 5.55 23 12 23s9.987-4.027 10.748-5H23.5c0.276 0 0.5-0.224 0.5-0.5S23.776 17 23.5 17zM22 12.691V17h-6V4.992c0-0.469-0.096-0.914-0.246-1.332C19.481 5.134 22 8.693 22 12.691zM12 2c1.654 0 3 1.343 3 2.992V17H9V4.992C9 3.343 10.346 2 12 2zM2 12.691C2 8.693 4.519 5.134 8.246 3.66 8.096 4.079 8 4.523 8 4.992V17H2zM12 22c-4.959 0-8.118-2.642-9.415-4h18.83c-1.297 1.358-4.456 4-9.415 4z" />
</svg>