<svg id="hard_disk_scan_Layer_1" viewBox="0 0 24 24" fill="currentColor" width="32" height="32" data-name="Layer 1" xmlns="http://www.w3.org/2000/svg" xmlns:xlink="http://www.w3.org/1999/xlink">
    <title>hard-disk-scan</title>
    <path d="M15.5 21h-7C6.019 21 4 18.981 4 16.5v-2C4 14.224 4.224 14 4.5 14S5 14.224 5 14.5v2C5 18.43 6.57 20 8.5 20h7c1.93 0 3.5-1.57 3.5-3.5v-2c0-0.276 0.224-0.5 0.5-0.5s0.5 0.224 0.5 0.5v2c0 2.481-2.019 4.5-4.5 4.5zM0.5 7C0.776 7 1 6.776 1 6.5v-2C1 2.57 2.57 1 4.5 1h2C6.776 1 7 0.776 7 0.5S6.776 0 6.5 0h-2C2.019 0 0 2.019 0 4.5v2C0 6.776 0.224 7 0.5 7zM19.5 0h-2C17.224 0 17 0.224 17 0.5S17.224 1 17.5 1h2C21.43 1 23 2.57 23 4.5v2C23 6.776 23.224 7 23.5 7S24 6.776 24 6.5v-2C24 2.019 21.981 0 19.5 0zM23.5 17c-0.276 0-0.5 0.224-0.5 0.5v2c0 1.93-1.57 3.5-3.5 3.5h-2c-0.276 0-0.5 0.224-0.5 0.5s0.224 0.5 0.5 0.5h2c2.481 0 4.5-2.019 4.5-4.5v-2c0-0.276-0.224-0.5-0.5-0.5zM6.5 23h-2C2.57 23 1 21.43 1 19.5v-2C1 17.224 0.776 17 0.5 17S0 17.224 0 17.5v2C0 21.981 2.019 24 4.5 24h2C6.776 24 7 23.776 7 23.5S6.776 23 6.5 23zM24 11.5c0 0.276-0.224 0.5-0.5 0.5h-23C0.224 12 0 11.776 0 11.5S0.224 11 0.5 11H4V7.5C4 5.019 6.019 3 8.5 3h7C17.981 3 20 5.019 20 7.5V11h3.5c0.276 0 0.5 0.224 0.5 0.5zM5 11h2.122C7.592 8.695 9.602 7 12 7s4.408 1.695 4.878 4H19V7.5C19 5.57 17.43 4 15.5 4h-7C6.57 4 5 5.57 5 7.5zM15.861 11C15.413 9.258 13.849 8 12 8s-3.414 1.258-3.861 3h2.156c0.354-0.602 0.989-1 1.706-1s1.351 0.398 1.706 1zM12 17c1.672 0 3.227-0.831 4.158-2.222 0.154-0.229 0.092-0.54-0.137-0.694-0.229-0.152-0.54-0.091-0.694 0.138C14.582 15.335 13.338 16 12 16s-2.582-0.665-3.327-1.778c-0.154-0.229-0.465-0.29-0.694-0.138-0.229 0.154-0.291 0.465-0.137 0.694C8.773 16.169 10.327 17 12 17z" />
</svg>