<svg id="harp_Layer_1" viewBox="0 0 24 24" fill="currentColor" width="32" height="32" data-name="Layer 1" xmlns="http://www.w3.org/2000/svg" xmlns:xlink="http://www.w3.org/1999/xlink">
    <title>harp</title>
    <path d="M23.5 5.5C23.5 3.57 21.93 2 20 2c-1.133 0-2.081 0.542-2.998 1.065C16.161 3.545 15.367 4 14.5 4c-1.683 0-2.785-0.774-4.061-1.671C8.887 1.237 7.127 0 4 0H1.5C0.673 0 0 0.673 0 1.5S0.673 3 1.5 3H2v18H1.5C0.673 21 0 21.673 0 22.5S0.673 24 1.5 24h10c0.827 0 1.5-0.673 1.5-1.5S12.327 21 11.5 21h-3e-3C19.273 14.011 23.5 7.168 23.5 5.5zM9.706 21.675C9.779 21.87 9.966 22 10.175 22H11.5c0.275 0 0.5 0.225 0.5 0.5S11.775 23 11.5 23h-10C1.225 23 1 22.775 1 22.5S1.225 22 1.5 22h5.671c0.115 0 0.227-0.04 0.315-0.112 9.343-7.598 13.616-14.875 13.992-16.257 0.092-0.823-0.671-1.548-1.479-1.541-0.602 0-1.284 0.39-2.006 0.803C16.986 5.468 15.867 6 14.499 6c-2.255 0-3.751-0.92-5.211-1.945C7.782 2.998 6.502 2.007 3.999 2H1.5C1.225 2 1 1.775 1 1.5S1.225 1 1.5 1H4c2.811 0 4.363 1.092 5.864 2.146C11.219 4.099 12.501 5 14.5 5c1.133 0 2.081-0.542 2.998-1.065C18.339 3.455 19.133 3 20 3c1.379 0 2.5 1.121 2.5 2.5 0 1.086-3.944 8.078-12.652 15.622-0.158 0.137-0.214 0.357-0.142 0.553zM3 21V3h1c0.363 0 0.689 0.032 1 0.078V21zM6 21V3.307c0.746 0.25 1.369 0.632 2 1.066v15.779C7.668 20.434 7.34 20.716 6.993 21zM9 19.289V5.069c0.633 0.436 1.284 0.841 2 1.17v11.217c-0.633 0.604-1.3 1.216-2 1.833zM12 16.481V6.63c0.602 0.188 1.267 0.305 2 0.345v7.434c-0.618 0.672-1.29 1.366-2 2.072zM15 13.297V6.955c0.73-0.059 1.393-0.227 2-0.47v4.395c-0.591 0.758-1.253 1.564-2 2.417zM18 9.552v-3.53c0.164-0.087 0.332-0.171 0.49-0.261C19.04 5.447 19.663 5.09 20 5.09c0.229 0 0.427 0.158 0.484 0.373C20.279 6.059 19.459 7.541 18 9.552z" />
</svg>