<svg id="hashtag_lock_Layer_1" viewBox="0 0 24 24" fill="currentColor" width="32" height="32" data-name="Layer 1" xmlns="http://www.w3.org/2000/svg" xmlns:xlink="http://www.w3.org/1999/xlink">
    <title>hashtag-lock</title>
    <path d="M22 15.351V13.5c0-1.93-1.57-3.5-3.5-3.5S15 11.57 15 13.5v1.851c-1.178 0.564-2 1.758-2 3.149v2c0 1.93 1.57 3.5 3.5 3.5h4c1.93 0 3.5-1.57 3.5-3.5v-2c0-1.391-0.822-2.585-2-3.149zM16 13.5c0-1.378 1.122-2.5 2.5-2.5s2.5 1.122 2.5 2.5v1.551C20.835 15.027 20.671 15 20.5 15h-4c-0.171 0-0.335 0.027-0.5 0.051zM23 20.5c0 1.378-1.122 2.5-2.5 2.5h-4c-1.378 0-2.5-1.122-2.5-2.5v-2c0-1.378 1.122-2.5 2.5-2.5h4c1.378 0 2.5 1.122 2.5 2.5zM19.5 19.5c0 0.552-0.448 1-1 1s-1-0.448-1-1 0.448-1 1-1 1 0.448 1 1zM11 16.5c0 0.276-0.224 0.5-0.5 0.5H7.022l-0.788 6.56C6.203 23.814 5.987 24 5.738 24c-0.02 0-0.04 0-0.06-3e-3-0.274-0.033-0.47-0.282-0.437-0.556l0.774-6.44H0.5c-0.276 0-0.5-0.224-0.5-0.5s0.224-0.5 0.5-0.5h5.634l0.961-8H1.5c-0.276 0-0.5-0.224-0.5-0.5s0.224-0.5 0.5-0.5h5.716l0.788-6.56C8.038 0.168 8.284-0.026 8.56 4e-3 8.834 0.037 9.03 0.286 8.997 0.56L8.223 7h8.723l0.788-6.56c0.033-0.273 0.282-0.467 0.556-0.437 0.274 0.033 0.47 0.282 0.437 0.556l-0.774 6.44h5.546c0.276 0 0.5 0.224 0.5 0.5s-0.224 0.5-0.5 0.5H8.102l-0.961 8h3.358c0.276 0 0.5 0.224 0.501 0.501z" />
</svg>