<svg id="hat_winter_Layer_1" viewBox="0 0 24 24" fill="currentColor" width="32" height="32" data-name="Layer 1" xmlns="http://www.w3.org/2000/svg" xmlns:xlink="http://www.w3.org/1999/xlink">
    <title>hat-winter</title>
    <path d="M21.864 18.127C21.182 12.565 18.1 6.716 13.907 5.315 14.574 4.764 15.001 3.931 15.001 3c0-1.654-1.346-3-3-3s-3 1.346-3 3c0 0.931 0.426 1.764 1.094 2.315-4.193 1.401-7.276 7.25-7.957 12.812C0.904 18.499 2e-3 19.646 2e-3 21c0 1.654 1.346 3 3 3h18c1.654 0 3-1.346 3-3 0-1.354-0.902-2.501-2.138-2.873zM10 3c0-1.103 0.897-2 2-2s2 0.897 2 2-0.897 2-2 2-2-0.897-2-2zM3.808 15H17.5c0.276 0 0.5-0.224 0.5-0.5S17.776 14 17.5 14H4.132C5.669 9.632 8.611 6 12 6c4.393 0 8.035 6.103 8.839 12H3.161c0.137-1.004 0.356-2.015 0.647-3zM21 23H3c-1.103 0-2-0.897-2-2s0.897-2 2-2h18c1.103 0 2 0.897 2 2s-0.897 2-2 2z" />
</svg>