<svg id="hat_santa_Layer_1" viewBox="0 0 24 24" fill="currentColor" width="32" height="32" data-name="Layer 1" xmlns="http://www.w3.org/2000/svg" xmlns:xlink="http://www.w3.org/1999/xlink">
    <title>hat-santa</title>
    <path d="M21.954 18.17c-0.388-3.016-1.125-5.76-2.173-8.192 0.074 4e-3 0.144 0.022 0.22 0.022 2.206 0 4-1.794 4-4s-1.794-4-4-4c-0.233 0-0.459 0.03-0.681 0.069C17.959 0.718 16.296 0 14.501 0 10.404 0 3.744 4.853 2.044 18.17 0.86 18.572 0 19.681 0 21c0 1.654 1.346 3 3 3h18c1.654 0 3-1.346 3-3 0-1.319-0.861-2.429-2.046-2.83zM23 6c0 1.654-1.346 3-3 3s-3-1.346-3-3 1.346-3 3-3 3 1.346 3 3zM14.5 1c1.386 0 2.642 0.48 3.74 1.426C16.919 3.08 16 4.429 16 6c0 1.71 1.084 3.162 2.598 3.733 1.127 2.415 1.897 5.201 2.319 8.267H3.08C4.75 5.641 10.931 1 14.5 1zM21 23H3c-1.103 0-2-0.897-2-2s0.897-2 2-2h18c1.103 0 2 0.897 2 2s-0.897 2-2 2z" />
</svg>