<svg id="hat_cowboy_side_Layer_1" viewBox="0 0 24 24" fill="currentColor" width="32" height="32" data-name="Layer 1" xmlns="http://www.w3.org/2000/svg" xmlns:xlink="http://www.w3.org/1999/xlink">
    <title>hat-cowboy-side</title>
    <path d="M22.971 3.295 22.713 3.037c-2.646-2.646-6.908-2.729-9.498-0.185-0.269 0.263-0.514 0.545-0.73 0.841L9.228 1.66C7.373 0.503 4.935 0.909 3.554 2.601L0.979 5.759C-0.277 7.299-0.33 9.491 0.85 11.09l1.728 2.343c0.012 0.016 0.024 0.03 0.037 0.044-1.059 1.223-1.627 2.751-1.609 4.353 0.021 1.79 0.78 3.491 2.132 4.783l0.258 0.258C4.125 23.6 5.092 24 6.123 24s1.999-0.401 2.728-1.129L22.973 8.749c1.503-1.504 1.503-3.95-2e-3-5.454zM1.654 10.496c-0.908-1.231-0.867-2.919 0.1-4.105l2.575-3.158C5.391 1.928 7.27 1.616 8.698 2.508l7.418 4.63-4.249 4.249c-2.774-0.58-5.938-0.914-8.541 1.376zM8.141 22.163c-1.112 1.113-2.926 1.114-4.04 0l-0.266-0.266c-1.164-1.112-1.813-2.561-1.831-4.08-0.017-1.494 0.572-2.915 1.657-4.001 1.421-1.421 3.029-1.871 4.71-1.871 1.479 0 3.014 0.349 4.524 0.692 1.488 0.338 2.929 0.665 4.188 0.582zM13.118 11.663c-0.031-7e-3-0.061-0.014-0.092-0.021L16.968 7.7c6e-3-6e-3 0.012-0.013 0.018-0.02l3.472 2.167-1.636 1.636c-1.203 1.203-3.289 0.729-5.704 0.18zM22.264 8.041 21.179 9.126c-0.02-0.017-7.842-4.903-7.842-4.903 0.173-0.23 0.367-0.45 0.579-0.658 2.202-2.163 5.832-2.08 8.091 0.178l0.258 0.258c1.113 1.113 1.113 2.926-1e-3 4.04z" />
</svg>