<svg id="hat_cowboy_Layer_1" viewBox="0 0 24 24" fill="currentColor" width="32" height="32" data-name="Layer 1" xmlns="http://www.w3.org/2000/svg" xmlns:xlink="http://www.w3.org/1999/xlink">
    <title>hat-cowboy</title>
    <path d="M24 0.5C24 0.224 23.776 0 23.5 0S23.001 0.223 23 0.499v0c0 0-9e-3 2.634-9e-3 4.202 0 1.741-0.174 3.368-0.523 4.888C19.81 7.46 10.374 0.194 8.104 2.47 7.257 3.316 7.138 4.389 7.042 5.252 6.975 5.856 6.917 6.377 6.647 6.647 6.376 6.917 5.855 6.978 5.251 7.048c-0.861 0.1-1.934 0.225-2.779 1.07C0.199 10.389 7.457 19.82 9.58 22.471c-1.518 0.348-3.141 0.521-4.878 0.521-1.567 0-4.202 9e-3-4.202 9e-3h-1e-3c-0.276 0-0.499 0.224-0.499 0.5s0.224 0.5 0.5 0.5c0 0 0 0 1e-3 0v0c0 0 2.632-9e-3 4.199-9e-3 5.693 0 10.232-1.771 13.876-5.415 3.644-3.643 5.415-8.182 5.415-13.876 0-1.566 9e-3-4.198 9e-3-4.199v0c0 0 0 0 0-2e-3zM17.869 17.869c-2.079 2.079-4.471 3.513-7.231 4.324-2e-3-3e-3-4e-3-6e-3-6e-3-8e-3-0.57-0.703-1.135-1.425-1.683-2.151 2.734-0.647 5.125-1.981 7.114-3.97 1.287-1.286 2.308-2.752 3.034-4.358 0.114-0.251 3e-3-0.548-0.249-0.662-0.249-0.113-0.548-2e-3-0.661 0.25-0.678 1.495-1.63 2.862-2.831 4.063-1.958 1.957-4.333 3.234-7.062 3.797-3.45-4.704-6.065-9.382-5.117-10.329 0.6-0.599 1.407-0.693 2.188-0.784 0.723-0.084 1.471-0.171 1.988-0.687 0.518-0.517 0.601-1.266 0.682-1.991 0.087-0.781 0.177-1.587 0.776-2.186 1.155-1.154 7.841 2.978 13.374 7.468 2e-3 2e-3 4e-3 3e-3 6e-3 4e-3-0.812 2.755-2.245 5.144-4.322 7.22z" />
</svg>