<svg id="hat_witch_Layer_1" viewBox="0 0 24 24" fill="currentColor" width="32" height="32" data-name="Layer 1" xmlns="http://www.w3.org/2000/svg" xmlns:xlink="http://www.w3.org/1999/xlink">
    <title>hat-witch</title>
    <path d="M23.5 23h-1.083L17.134 7.61c-0.204-0.593-0.112-1.254 0.247-1.769 0.367-0.527 0.972-0.842 1.62-0.842h3.813c0.496 0 0.931-0.3 1.108-0.766s0.051-0.98-0.388-1.361l-2.227-1.388c-1.845-1.041-3.428-1.485-5.293-1.485h-0.97c-3.344 0-6.317 2.126-7.398 5.292L1.598 23H0.5C0.224 23 0 23.224 0 23.5S0.224 24 0.5 24h23c0.276 0 0.5-0.224 0.5-0.5S23.776 23 23.5 23zM8.591 5.615C9.534 2.855 12.127 1 15.043 1h0.97c1.681 0 3.117 0.406 4.783 1.345l2.141 1.326c0.083 0.075 0.067 0.163 0.05 0.208C22.969 3.924 22.925 4 22.814 4h-3.813c-0.975 0-1.887 0.475-2.44 1.271-0.54 0.775-0.679 1.772-0.372 2.665l5.171 15.065h-6.359v-2c0-1.103-0.897-2-2-2h-2c-1.103 0-2 0.897-2 2v2H2.655zM14 23h-4v-2c0-0.551 0.449-1 1-1h2c0.551 0 1 0.449 1 1z" />
</svg>