<svg id="hat_beach_Layer_1" viewBox="0 0 24 24" fill="currentColor" width="32" height="32" data-name="Layer 1" xmlns="http://www.w3.org/2000/svg" xmlns:xlink="http://www.w3.org/1999/xlink">
    <title>hat-beach</title>
    <path d="M18 11c0.552 0 1 0.448 1 1s-0.448 1-1 1-1-0.448-1-1 0.448-1 1-1zM24 15c0 3.364-5.271 6-12 6S0 18.364 0 15c0-1.995 1.828-3.766 5.007-4.89 0.077-3.726 2.884-6.826 6.461-7.09 3.377-0.247 6.395 1.897 7.276 5.127 0.734 0.296 1.255 1.013 1.255 1.853 0.974 0 1.785 0.7 1.962 1.623C23.29 12.609 23.999 13.771 24 15zM19 10c0-0.551-0.448-1-1-1s-1 0.449-1 1c0 0.514-0.486 1-1 1-0.552 0-1 0.449-1 1s0.448 1 1 1c0.514 0 1 0.486 1 1 0 0.551 0.448 1 1 1s1-0.449 1-1c0-0.514 0.486-1 1-1 0.552 0 1-0.449 1-1s-0.448-1-1-1c-0.514 0-1-0.486-1-1zM6 12.236c0 0.442 0.189 0.856 0.518 1.137C7.389 14.115 9.047 15 12 15c1.557 0 2.905-0.257 4.025-0.749C16.014 14.168 16 14.086 16 14c-0.618 0-1.165-0.288-1.532-0.73-0.766 0.149-1.593 0.23-2.468 0.23-3.177 0-5.022-0.972-6-1.76zM6 10.266v0.077c0.334 0.442 1.893 2.157 6 2.157 0.721 0 1.395-0.067 2.033-0.175C14.015 12.219 14 12.111 14 12c0-1.103 0.897-2 2-2 0-0.982 0.713-1.797 1.647-1.964-0.883-2.553-3.356-4.221-6.104-4.019C8.435 4.246 6.001 6.992 6 10.266zM23 15c0-0.895-0.55-1.643-1.169-2.201C21.522 13.505 20.818 14 20 14c0 1.103-0.897 2-2 2-0.66 0-1.242-0.326-1.607-0.821C15.152 15.717 13.682 16 12 16c-3.258 0-5.132-1.015-6.131-1.866C5.317 13.663 5 12.971 5 12.237v-1.056C2.492 12.142 1 13.543 1 15c0 2.71 5.038 5 11 5s11-2.29 11-5z" />
</svg>