<svg id="hat_wizard_Layer_1" viewBox="0 0 24 24" fill="currentColor" width="32" height="32" data-name="Layer 1" xmlns="http://www.w3.org/2000/svg" xmlns:xlink="http://www.w3.org/1999/xlink">
    <title>hat-wizard</title>
    <path d="M23.5 23h-0.654L17.118 7.813c-0.174-0.434-0.155-0.923 0.028-1.295l2.59-4.047c0.29-0.581 0.229-1.264-0.159-1.784-0.389-0.521-1.029-0.775-1.694-0.654l-3.398 0.812C11.449 1.38 8.951 3.407 7.8 6.27L1.16 23H0.5C0.224 23 0 23.224 0 23.5S0.224 24 0.5 24h23c0.276 0 0.5-0.224 0.5-0.5S23.776 23 23.5 23zM8.73 6.641c1.02-2.538 3.236-4.336 5.959-4.817l3.398-0.812c0.269-0.047 0.526 0.055 0.689 0.274 0.163 0.218 0.188 0.495 0.092 0.692l-2.59 4.047c-0.337 0.674-0.369 1.462-0.092 2.151L21.777 23H2.237zM17.686 17.536l-2.301-0.92-0.92-2.301c-0.152-0.38-0.776-0.38-0.929 0l-0.918 2.296-2.294 0.868c-0.191 0.073-0.319 0.254-0.323 0.458s0.117 0.391 0.306 0.47l2.308 0.972 0.922 2.306c0.076 0.19 0.26 0.314 0.464 0.314s0.388-0.125 0.464-0.314l0.92-2.301 2.301-0.92C17.876 18.388 18 18.204 18 18s-0.125-0.388-0.314-0.464zM14.815 18.536c-0.127 0.051-0.228 0.151-0.279 0.279L14 20.154l-0.536-1.339c-0.05-0.124-0.147-0.223-0.27-0.275l-1.348-0.568 1.33-0.503c0.131-0.05 0.235-0.152 0.288-0.282L14 15.848l0.536 1.339c0.051 0.127 0.151 0.228 0.279 0.279l1.339 0.536zM10.482 14c0.229 0 0.43-0.156 0.485-0.379l0.323-1.293 1.294-0.324c0.222-0.056 0.378-0.255 0.378-0.485s-0.156-0.43-0.379-0.485l-1.294-0.323-0.323-1.294c-0.055-0.223-0.255-0.379-0.485-0.379s-0.429 0.156-0.485 0.378L9.677 10.69c-0.444 0.111-1.292 0.312-1.292 0.312-0.223 0.053-0.381 0.25-0.385 0.479-3e-3 0.229 0.149 0.431 0.37 0.49l1.301 0.35 0.325 1.3c0.056 0.222 0.255 0.378 0.486 0.379z" />
</svg>