<svg id="hat_chef_Layer_1" viewBox="0 0 24 24" fill="currentColor" width="32" height="32" data-name="Layer 1" xmlns="http://www.w3.org/2000/svg" xmlns:xlink="http://www.w3.org/1999/xlink">
    <title>hat-chef</title>
    <path d="M23.835 4.468c-0.388-1.477-2.012-2.999-3.546-3.325-1.528-0.324-2.991-0.057-4.03 0.72-1.02-1.221-2.48-1.862-4.258-1.862S8.762 0.643 7.743 1.863c-1.04-0.776-2.502-1.043-4.03-0.72-1.536 0.326-3.16 1.848-3.548 3.325-0.372 1.415-0.1 2.884 0.745 4.029 0.75 1.017 1.857 1.677 3.09 1.856v10.146c0 1.93 1.57 3.5 3.5 3.5h9c1.93 0 3.5-1.57 3.5-3.5V10.354c1.232-0.18 2.34-0.84 3.09-1.856 0.845-1.146 1.117-2.614 0.745-4.03zM16.5 23h-9C6.122 23 5 21.879 5 20.5V19h14v1.5c0 1.379-1.122 2.5-2.5 2.5zM22.285 7.904c-0.666 0.901-1.688 1.446-2.807 1.494-0.268 0.012-0.479 0.232-0.479 0.5V18H5V9.898c0-0.268-0.211-0.488-0.479-0.5C3.403 9.35 2.38 8.805 1.714 7.904 1.04 6.989 0.833 5.859 1.131 4.721 1.423 3.608 2.752 2.368 3.92 2.12 4.269 2.046 4.614 2.009 4.95 2.009c1.008 0 1.92 0.328 2.511 0.931 0.104 0.107 0.251 0.159 0.402 0.148 0.149-0.014 0.285-0.094 0.369-0.218C9.071 1.629 10.339 0.999 12 0.999s2.928 0.63 3.768 1.871c0.084 0.124 0.219 0.204 0.369 0.218 0.148 0.012 0.297-0.041 0.402-0.148 0.789-0.803 2.145-1.116 3.542-0.819 1.167 0.248 2.496 1.487 2.788 2.601 0.298 1.138 0.091 2.268-0.584 3.182z" />
</svg>