<svg id="haute_cuisine_Layer_1" viewBox="0 0 24 24" fill="currentColor" width="32" height="32" data-name="Layer 1" xmlns="http://www.w3.org/2000/svg" xmlns:xlink="http://www.w3.org/1999/xlink">
    <title>haute-cuisine</title>
    <path d="M23.5 15h-23C0.224 15 0 15.224 0 15.5S0.224 16 0.5 16h5.279c-2.08 1.111-3.661 3.07-4.25 5.494l-0.478 1.888C0.972 23.692 1.219 24.004 1.537 24c0.226 0 0.431-0.153 0.486-0.382l0.478-1.888C3.32 18.356 6.317 16 9.789 16h3.71c0.905 0 1.643 0.737 1.643 1.642 0 0.812-0.606 1.511-1.41 1.625l-5.16 0.737c-0.273 0.039-0.464 0.292-0.425 0.566s0.297 0.463 0.565 0.424l5.16-0.737c0.49-0.07 0.934-0.275 1.297-0.573 0.03-0.017 3.815-3.308 3.815-3.308 0.305-0.266 0.695-0.4 1.098-0.368 0.402 0.028 0.771 0.211 1.035 0.516 0.54 0.622 0.479 1.573-0.146 2.128l-4.813 4.48c-0.202 0.188-0.213 0.505-0.025 0.707 0.099 0.105 0.232 0.159 0.366 0.159 0.122 0 0.244-0.044 0.341-0.134l4.805-4.473c0.982-0.873 1.115-2.362 0.333-3.393H23.5c0.276 0 0.5-0.224 0.5-0.5s-0.224-0.5-0.5-0.498zM16.14 17.53c-0.024-0.577-0.234-1.106-0.572-1.53h2.328zM14.051 8h6.45c0.276 0 0.5 0.224 0.5 0.5S20.777 9 20.501 9h-6.45c0.232 1.14 1.242 2 2.45 2h4c0.276 0 0.5 0.224 0.5 0.5s-0.224 0.5-0.5 0.5h-4c-1.76 0-3.221-1.306-3.464-3H3.5C3.224 9 3 8.776 3 8.5S3.224 8 3.5 8h9.536c0.243-1.694 1.704-3 3.464-3h4C20.776 5 21 5.224 21 5.5S20.776 6 20.5 6h-4c-1.208 0-2.217 0.86-2.449 2zM3.224 1.387C4.235 2.536 6.59 4 9.515 4c2.32 0 4.451-1.009 6.338-3h4.648c0.276 0 0.5-0.224 0.5-0.5S20.777 0 20.501 0H3.737C3.051 0 2.766 0.879 3.224 1.387zM14.417 1c-1.55 1.368-3.266 2.032-5.054 1.999C6.932 2.9 5.126 1.802 4.249 1z" />
</svg>