<svg id="hdd_Layer_1" viewBox="0 0 24 24" fill="currentColor" width="32" height="32" data-name="Layer 1" xmlns="http://www.w3.org/2000/svg" xmlns:xlink="http://www.w3.org/1999/xlink">
    <title>hdd</title>
    <path d="M18.5 0h-13C3.02 0 1 2.02 1 4.5v15C1 21.98 3.02 24 5.5 24h13c2.48 0 4.5-2.02 4.5-4.5v-15C23 2.02 20.98 0 18.5 0zM5.5 1h13C20.43 1 22 2.57 22 4.5V16H2V4.5C2 2.57 3.57 1 5.5 1zM18.5 23h-13C3.57 23 2 21.43 2 19.5V17h20v2.5c0 1.93-1.57 3.5-3.5 3.5zM20 20c0 0.55-0.45 1-1 1s-1-0.45-1-1 0.45-1 1-1 1 0.45 1 1zM17 20c0 0.55-0.45 1-1 1s-1-0.45-1-1 0.45-1 1-1 1 0.45 1 1z" />
</svg>