<svg id="headache_Layer_1" viewBox="0 0 24 24" fill="currentColor" width="32" height="32" data-name="Layer 1" xmlns="http://www.w3.org/2000/svg" xmlns:xlink="http://www.w3.org/1999/xlink">
    <title>headache</title>
    <path d="M24 13.545C24 14.129 23.588 15 22.454 15h-0.549l-0.517 2.434C20.95 19.5 19.099 21 16.986 21H16v0.5c0 1.378-1.121 2.5-2.5 2.5h-8C4.028 24 3 22.972 3 21.5v-1.28c0-0.925-0.331-1.87-0.958-2.733-0.834-1.149-1.417-2.454-1.733-3.878-0.06-0.27 0.11-0.537 0.38-0.597 0.269-0.06 0.537 0.11 0.597 0.38 0.286 1.29 0.813 2.469 1.566 3.508C3.603 17.935 4 19.084 4 20.22v1.28C4 22.607 4.808 23 5.5 23h8c0.827 0 1.5-0.673 1.5-1.5v-1c0-0.276 0.224-0.5 0.5-0.5h1.486c1.644 0 3.083-1.167 3.424-2.773l0.601-2.831C21.06 14.165 21.262 14 21.498 14h0.956c0.438 0 0.539-0.251 0.546-0.462 0-0.858-2.607-6.783-4.015-8.522-2.226-2.974-5.743-4.43-9.416-3.914C9.295 1.138 9.043 0.95 9.005 0.676S9.157 0.15 9.431 0.112c4.041-0.564 7.907 1.037 10.344 4.29 1.374 1.698 4.226 7.862 4.225 9.143zM0.285 7.424C0.01 7.054-0.071 6.591 0.062 6.153L1.88 0.995C2.085 0.401 2.655 0 3.297 0h2.202c0.497 0 0.96 0.243 1.239 0.649 0.277 0.403 0.337 0.917 0.161 1.376L6.205 4h1.388c0.521 0 0.996 0.283 1.24 0.738 0.243 0.452 0.216 1-0.069 1.431l-4.283 5.265c-0.371 0.547-1.102 0.715-1.69 0.43-0.62-0.293-0.922-0.958-0.734-1.617L2.807 8H1.423C0.971 8 0.556 7.79 0.285 7.424zM1.088 6.828C1.169 6.937 1.292 7 1.424 7H3.5c0.161 0 0.312 0.077 0.406 0.208C4 7.338 4.026 7.506 3.974 7.659l-0.962 2.884c-0.074 0.261 0.138 0.386 0.205 0.417 0.068 0.033 0.299 0.116 0.465-0.125L7.96 5.577c0.09-0.14 0.026-0.304-8e-3-0.366C7.918 5.148 7.815 5 7.593 5H5.5C5.338 5 5.186 4.921 5.092 4.789S4.975 4.487 5.029 4.334l0.933-2.653c0.064-0.167 0.045-0.332-0.046-0.465C5.822 1.079 5.67 1.001 5.5 1.001H3.297c-0.219 0-0.405 0.127-0.473 0.324L1.012 6.464c-0.033 0.11-8e-3 0.251 0.076 0.364z" />
</svg>