<svg id="head_side_mask_Layer_1" viewBox="0 0 24 24" fill="currentColor" width="32" height="32" data-name="Layer 1" xmlns="http://www.w3.org/2000/svg" xmlns:xlink="http://www.w3.org/1999/xlink">
    <title>head-side-mask</title>
    <path d="M24 13.55V16c0 4.41-3.59 8-8 8h-0.86c-0.22 0-0.41-0.14-0.48-0.35l-3.09-9.84-9.55-6.98C1.5 7.92 1.16 9.09 1.07 10.3c-0.18 2.46 0.43 4.74 1.78 6.6C3.6 17.94 4 19.08 4 20.22v1.28C4 22.61 4.81 23 5.5 23h6c0.28 0 0.5 0.22 0.5 0.5S11.78 24 11.5 24h-6C4.03 24 3 22.97 3 21.5v-1.28c0-0.92-0.33-1.87-0.96-2.73-1.48-2.05-2.16-4.56-1.97-7.26 0.37-4.94 4.43-9.38 9.25-10.1 4.02-0.61 8.03 1.03 10.46 4.27 1.37 1.7 4.23 7.86 4.22 9.15zM2.5 5.94 12.17 13h1.58c2.55 0 5.47-0.24 7.85-2.03l0.4-0.3c-0.89-2.06-2.16-4.61-3.01-5.66-2.22-2.96-5.86-4.44-9.52-3.89C6.6 1.55 4.03 3.44 2.5 5.94zM23 13.54c0-0.26-0.24-0.99-0.61-1.92l-0.19 0.14c-2.62 1.96-5.74 2.23-8.46 2.23h-1.06l2.82 9H16c3.86 0 7-3.14 7-7z" />
</svg>