<svg id="head_side_cough_slash_Layer_1" viewBox="0 0 24 24" fill="currentColor" width="32" height="32" data-name="Layer 1" xmlns="http://www.w3.org/2000/svg" xmlns:xlink="http://www.w3.org/1999/xlink">
    <title>head-side-cough-slash</title>
    <path d="M20 16c0.55 0 1 0.45 1 1s-0.45 1-1 1-1-0.45-1-1 0.45-1 1-1zM23 18c-0.55 0-1 0.45-1 1s0.45 1 1 1 1-0.45 1-1-0.45-1-1-1zM23 16c0.55 0 1-0.45 1-1s-0.45-1-1-1-1 0.45-1 1 0.45 1 1 1zM23.85 23.15c0.2 0.2 0.2 0.51 0 0.71-0.1 0.1-0.23 0.15-0.35 0.15s-0.26-0.05-0.35-0.15l-23-23.01c-0.2-0.19-0.2-0.51 0-0.7s0.51-0.2 0.7 0l3.33 3.33c0.99-0.65 2.08-1.09 3.26-1.31 3.48-0.65 6.95 0.7 9.05 3.51 1.14 1.41 3.51 6.01 3.51 7.04 0 0.52-0.36 1.29-1.36 1.29h-0.38l-0.41 1.98c-0.06 0.3-0.17 0.58-0.3 0.85zM4.91 4.21 16.78 16.08c0.03-0.1 0.07-0.2 0.09-0.3l0.5-2.38c0.05-0.23 0.25-0.4 0.49-0.4h0.79c0.1 0 0.35 0 0.36-0.3 0-0.61-2.08-4.91-3.29-6.42-1.89-2.52-4.98-3.72-8.08-3.14-0.97 0.18-1.88 0.54-2.73 1.07zM14.86 17.9c-0.24 0.07-0.49 0.1-0.74 0.1h-0.63c-0.27 0-0.5 0.23-0.5 0.5V20c0 0.27-0.1 0.52-0.29 0.71S12.26 21 11.99 21H5c-0.55 0-1-0.45-1-1v-1.17c0-1.03-0.36-2.03-1.05-2.89C2 14.75 0.9 12.86 1.07 10.6 1.19 9.03 1.73 7.54 2.64 6.29 2.8 6.07 2.75 5.75 2.53 5.59S1.99 5.48 1.83 5.7C0.81 7.11 0.2 8.78 0.07 10.53c-0.19 2.58 1.04 4.71 2.1 6.04C2.72 17.25 3 18.04 3 18.84v1.17c0 1.1 0.9 2 2 2h7c0 0 0 0 0 0 0.53 0 1.04-0.21 1.41-0.59 0.38-0.38 0.59-0.88 0.59-1.41v-1h0.13c0.34 0 0.68-0.05 1-0.14 0.27-0.07 0.42-0.35 0.35-0.62s-0.35-0.42-0.62-0.35z" />
</svg>