<svg id="head_side_medical_Layer_1" viewBox="0 0 24 24" fill="currentColor" width="32" height="32" data-name="Layer 1" xmlns="http://www.w3.org/2000/svg" xmlns:xlink="http://www.w3.org/1999/xlink">
    <title>head-side-medical</title>
    <path d="M15 10.5c0 0.28-0.22 0.5-0.5 0.5H11v3.5c0 0.28-0.22 0.5-0.5 0.5S10 14.78 10 14.5V11H6.5C6.22 11 6 10.78 6 10.5S6.22 10 6.5 10H10V6.5C10 6.22 10.22 6 10.5 6S11 6.22 11 6.5V10h3.5c0.28 0 0.5 0.22 0.5 0.5zM24 13.55c0 0.58-0.41 1.45-1.55 1.45H21.9l-0.52 2.43C20.94 19.5 19.09 21 16.98 21h-0.99v0.5c0 1.38-1.12 2.5-2.5 2.5H5.5C4.03 24 3 22.97 3 21.5v-1.28c0-0.92-0.33-1.87-0.96-2.73-1.48-2.05-2.16-4.56-1.97-7.26 0.37-4.94 4.43-9.38 9.25-10.1 4.02-0.61 8.02 1.03 10.45 4.27 1.39 1.72 4.23 7.87 4.23 9.15zM23 13.55c0-0.87-2.61-6.79-4.01-8.53h-0.01c-1.9-2.56-4.87-4.01-8-4.01-0.5 0-1 0.04-1.51 0.11-4.38 0.65-8.07 4.69-8.4 9.18-0.18 2.46 0.43 4.74 1.78 6.6C3.6 17.94 4 19.08 4 20.22v1.28C4 22.61 4.81 23 5.5 23h8c0.83 0 1.5-0.67 1.5-1.5v-1c0-0.28 0.22-0.5 0.5-0.5h1.49c1.64 0 3.08-1.17 3.42-2.77l0.6-2.83c0.05-0.23 0.25-0.4 0.49-0.4h0.96c0.49 0 0.55-0.32 0.54-0.45z" />
</svg>