<svg id="head_side_Layer_1" viewBox="0 0 24 24" fill="currentColor" width="32" height="32" data-name="Layer 1" xmlns="http://www.w3.org/2000/svg" xmlns:xlink="http://www.w3.org/1999/xlink">
    <title>head-side</title>
    <path d="M13.25 6.94c-0.95 0-1.76 0.44-2.26 1.13-0.49-0.7-1.3-1.13-2.24-1.13C7.23 6.94 6 8.27 6 9.91c0 2.16 2.6 4.52 4.14 5.74 0.25 0.2 0.55 0.3 0.86 0.3s0.6-0.1 0.86-0.3C13.41 14.44 16 12.08 16 9.91c0-1.64-1.23-2.97-2.75-2.97zM11.24 14.86c-0.14 0.11-0.33 0.11-0.48 0C8.4 13.01 7 11.16 7 9.91 7 8.83 7.79 7.94 8.75 7.94s1.66 0.66 1.74 1.6C10.51 9.8 10.73 10 10.99 10s0.48-0.2 0.5-0.46c0.08-0.94 0.8-1.6 1.76-1.6S15 8.82 15 9.91c0 1.25-1.41 3.1-3.76 4.95zM19.77 4.39c-2.43-3.23-6.43-4.86-10.45-4.26-4.82 0.72-8.88 5.16-9.25 10.1-0.2 2.7 0.48 5.21 1.97 7.26C2.67 18.35 3 19.3 3 20.22v1.28C3 22.97 4.03 24 5.5 24h8c1.38 0 2.5-1.12 2.5-2.5V21h0.99c2.11 0 3.96-1.5 4.4-3.57L21.91 15h0.55c1.13 0 1.55-0.87 1.55-1.45 0-1.28-2.84-7.43-4.24-9.16zM22.46 14H21.5c-0.24 0-0.44 0.17-0.49 0.4l-0.6 2.83C20.07 18.84 18.63 20 16.99 20H15.5c-0.28 0-0.5 0.22-0.5 0.5v1c0 0.83-0.67 1.5-1.5 1.5h-8C4.81 23 4 22.61 4 21.5v-1.28c0-1.14-0.4-2.29-1.15-3.32-1.35-1.86-1.96-4.14-1.78-6.6 0.33-4.49 4.02-8.53 8.4-9.18 0.5-0.08 1.01-0.11 1.51-0.11 3.13 0 6.1 1.46 8 4 1.41 1.74 4.03 7.68 4.03 8.54 0 0.21-0.11 0.46-0.55 0.45z" />
</svg>