<svg id="heading_Layer_1" viewBox="0 0 24 24" fill="currentColor" width="32" height="32" data-name="Layer 1" xmlns="http://www.w3.org/2000/svg" xmlns:xlink="http://www.w3.org/1999/xlink">
    <title>heading</title>
    <path d="M24 23.5c0 0.276-0.224 0.5-0.5 0.5h-4c-0.276 0-0.5-0.224-0.5-0.5s0.224-0.5 0.5-0.5H21V12H3v11h1.5C4.776 23 5 23.224 5 23.5S4.776 24 4.5 24h-4C0.224 24 0 23.776 0 23.5S0.224 23 0.5 23H2V1H0.5C0.224 1 0 0.776 0 0.5S0.224 0 0.5 0h4C4.776 0 5 0.224 5 0.5S4.776 1 4.5 1H3v10h18V1h-1.5C19.224 1 19 0.776 19 0.5S19.224 0 19.5 0h4C23.776 0 24 0.224 24 0.5S23.776 1 23.5 1H22v22h1.5c0.276 0 0.5 0.224 0.5 0.5z" />
</svg>