<svg id="headphones_rhythm_Layer_1" viewBox="0 0 24 24" fill="currentColor" width="32" height="32" data-name="Layer 1" xmlns="http://www.w3.org/2000/svg" xmlns:xlink="http://www.w3.org/1999/xlink">
    <title>headphones-rhythm</title>
    <path d="M22.866 13.832c-0.51-0.622-1.152-1.096-1.866-1.409V11c0-4.962-4.037-9-9-9s-9 4.038-9 9v1.423c-0.64 0.28-1.223 0.692-1.702 1.22C0.47 14.556 0.01 15.746 0 16.971-0.046 19.717 2.355 22.006 5.2 22 6.192 22 7 21.192 7 20.2v-6.4C7 12.808 6.192 12 5.2 12c-0.402-8e-3-0.81 0.023-1.2 0.106V11c0-4.411 3.589-8 8-8s8 3.589 8 8v1.105c-0.388-0.082-0.798-0.113-1.2-0.105-0.992 0-1.8 0.808-1.8 1.8v6.4c0 0.992 0.808 1.8 1.8 1.8 2.495 0 4.641-1.676 5.1-3.984C23.967 17.677 24 17.337 24 17c-2e-3-1.152-0.396-2.269-1.134-3.168zM5.2 13C5.641 13 6 13.359 6 13.8v6.4C6 20.641 5.642 21 5.2 21c-2.147 0-3.983-1.581-4.18-3.599C0.723 15.03 2.833 12.846 5.2 13zM22.918 17.821C22.552 19.663 20.819 21 18.8 21c-0.441 0-0.8-0.359-0.8-0.8v-6.4c0-0.441 0.358-0.8 0.8-0.8 2.539-0.172 4.687 2.323 4.118 4.821zM16 17.487c0 0.276-0.224 0.5-0.5 0.5-0.118 0-0.236 0.097-0.3 0.246l-0.891 2.087c-0.175 0.409-0.548 0.666-0.96 0.667-0.456-1e-3-0.852-0.309-1.002-0.773l-1.648-5.149-0.979 2.068c-0.221 0.519-0.699 0.854-1.22 0.854-0.276 0-0.5-0.224-0.5-0.5s0.224-0.5 0.5-0.5c0.118 0 0.236-0.097 0.3-0.247l0.891-2.087c0.182-0.425 0.6-0.704 1.006-0.665 0.437 0.02 0.812 0.323 0.956 0.771l1.648 5.149 0.979-2.068c0.221-0.519 0.699-0.854 1.22-0.854 0.276 0 0.5 0.224 0.5 0.501z" />
</svg>