<svg id="head_side_cough_Layer_1" viewBox="0 0 24 24" fill="currentColor" width="32" height="32" data-name="Layer 1" xmlns="http://www.w3.org/2000/svg" xmlns:xlink="http://www.w3.org/1999/xlink">
    <title>head-side-cough</title>
    <path d="M18 18c0 0.55-0.45 1-1 1s-1-0.45-1-1 0.45-1 1-1 1 0.45 1 1zM20 15c-0.55 0-1 0.45-1 1s0.45 1 1 1 1-0.45 1-1-0.45-1-1-1zM20 19c-0.55 0-1 0.45-1 1s0.45 1 1 1 1-0.45 1-1-0.45-1-1-1zM23 17c-0.55 0-1 0.45-1 1s0.45 1 1 1 1-0.45 1-1-0.45-1-1-1zM23 13c-0.55 0-1 0.45-1 1s0.45 1 1 1 1-0.45 1-1-0.45-1-1-1zM23 21c-0.55 0-1 0.45-1 1s0.45 1 1 1 1-0.45 1-1-0.45-1-1-1zM8 21.5V21h0.99c2.11 0 3.96-1.5 4.4-3.57L13.91 15h0.55c1.13 0 1.55-0.87 1.55-1.45 0-1.28-2.85-7.44-4.23-9.14C9.35 1.16 5.34-0.48 1.32 0.13 1 0.18 0.69 0.24 0.38 0.32 0.11 0.39-0.05 0.66 0.02 0.93s0.34 0.43 0.61 0.36c0.28-0.07 0.56-0.13 0.84-0.17 3.66-0.56 7.3 0.94 9.52 3.9C12.4 6.76 15 12.69 15 13.54 15 13.75 14.89 14 14.45 14h-0.96c-0.24 0-0.44 0.17-0.49 0.4l-0.6 2.83C12.06 18.84 10.62 20 8.98 20H7.49c-0.28 0-0.5 0.22-0.5 0.5v1c0 0.83-0.67 1.5-1.5 1.5H0.5C0.22 23 0 23.22 0 23.5S0.22 24 0.5 24h5C6.88 24 8 22.88 8 21.5z" />
</svg>