<svg id="head_side_heart_Layer_1" viewBox="0 0 24 24" fill="currentColor" width="32" height="32" data-name="Layer 1" xmlns="http://www.w3.org/2000/svg" xmlns:xlink="http://www.w3.org/1999/xlink">
    <title>head-side-heart</title>
    <path d="M16 21.5V21h0.99c2.11 0 3.96-1.5 4.4-3.57L21.91 15h0.55c1.13 0 1.55-0.87 1.55-1.45 0-1.28-2.84-7.43-4.23-9.15-2.44-3.24-6.44-4.88-10.46-4.27-4.82 0.72-8.88 5.16-9.25 10.1-0.2 2.7 0.48 5.21 1.97 7.26C2.67 18.35 3 19.3 3 20.22v1.28C3 22.97 4.03 24 5.5 24h8c1.38 0 2.5-1.12 2.5-2.5zM18.97 5h0.01c1.41 1.75 4.01 7.68 4.01 8.54 0 0.21-0.11 0.46-0.55 0.46h-0.96c-0.24 0-0.44 0.17-0.49 0.4l-0.6 2.83C20.05 18.84 18.61 20 16.97 20h-1.49c-0.28 0-0.5 0.22-0.5 0.5v1c0 0.83-0.67 1.5-1.5 1.5H5.5C4.81 23 4 22.61 4 21.5v-1.28c0-1.14-0.4-2.29-1.15-3.32-1.35-1.86-1.96-4.14-1.78-6.6 0.33-4.49 4.02-8.53 8.4-9.18 0.5-0.08 1.01-0.11 1.51-0.11 3.13 0 6.1 1.46 7.99 3.99z" />
</svg>