<svg id="head_side_headphones_Layer_1" viewBox="0 0 24 24" fill="currentColor" width="32" height="32" data-name="Layer 1" xmlns="http://www.w3.org/2000/svg" xmlns:xlink="http://www.w3.org/1999/xlink">
    <title>head-side-headphones</title>
    <path d="M19.769 4.394c-2.171-2.893-5.603-4.51-9.175-4.385-0.031-6e-3-0.928 0.066-1.276 0.119C4.5 0.853 0.439 5.289 0.074 10.229c-0.199 2.698 0.481 5.208 1.969 7.259C2.669 18.35 3 19.295 3 20.22v1.28C3 22.972 4.028 24 5.5 24h8c1.379 0 2.5-1.121 2.5-2.5V21h0.986c2.113 0 3.964-1.5 4.402-3.566L21.905 15h0.549C23.588 15 24 14.131 24 13.546c0-1.282-2.843-7.429-4.231-9.152zM10.5 8c1.654 0 3 1.346 3 3s-1.346 3-3 3-3-1.346-3-3 1.346-3 3-3zM22.454 14h-0.956c-0.236 0-0.438 0.165-0.487 0.396l-0.601 2.83c-0.341 1.607-1.78 2.773-3.424 2.773H15.5c-0.276 0-0.5 0.224-0.5 0.5v1c0 0.827-0.673 1.5-1.5 1.5h-8c-0.692 0-1.5-0.393-1.5-1.5v-1.28c0-1.138-0.397-2.286-1.148-3.32-1.346-1.856-1.961-4.138-1.779-6.597 0.331-4.492 4.019-8.528 8.394-9.186C9.645 1.089 9.823 1.068 10 1.051v5.98C8.029 7.278 6.5 8.963 6.5 11c0 2.206 1.794 4 4 4s4-1.794 4-4c0-2.037-1.529-3.722-3.5-3.969V1.004c3.117 9e-3 6.077 1.463 7.974 3.997l0.012 0.015c1.407 1.739 4.015 7.663 4.015 8.53 0 0.137-0.053 0.454-0.547 0.454z" />
</svg>