<svg id="head_vr_Layer_1" viewBox="0 0 24 24" fill="currentColor" width="32" height="32" data-name="Layer 1" xmlns="http://www.w3.org/2000/svg" xmlns:xlink="http://www.w3.org/1999/xlink">
    <title>head-vr</title>
    <path d="M21.5 6h-0.686c-0.339-0.655-0.833-1.345-1.039-1.599-2.428-3.241-6.441-4.884-10.457-4.273C4.5 0.853 0.439 5.289 0.074 10.229c-0.199 2.698 0.481 5.208 1.969 7.259C2.669 18.35 3 19.295 3 20.22v1.106C3 22.85 4.075 24 5.5 24h8c1.379 0 2.5-1.121 2.5-2.5V20h1.056c2.193 0 4.058-1.568 4.433-3.729l0.119-0.686c0.048-0.272-0.135-0.531-0.406-0.578-0.269-0.056-0.531 0.133-0.578 0.406l-0.119 0.686c-0.293 1.681-1.742 2.9-3.448 2.9h-1.556c-0.276 0-0.5 0.224-0.5 0.5v2c0 0.827-0.673 1.5-1.5 1.5H5.5c-0.869 0-1.5-0.704-1.5-1.674v-1.106c0-1.138-0.397-2.286-1.147-3.32-1.347-1.856-1.962-4.138-1.78-6.597 8e-3-0.101 0.017-0.202 0.028-0.303h9.935c0.243 1.694 1.704 3 3.464 3h7c1.379 0 2.5-1.121 2.5-2.5v-2c0-1.379-1.121-2.5-2.5-2.499zM9.467 1.116c3.657-0.545 7.301 0.938 9.519 3.899 0.119 0.147 0.411 0.546 0.679 0.984h-5.164c-1.76 0-3.221 1.306-3.464 3H1.264C2.133 5.052 5.52 1.71 9.467 1.116zM23 10.5c0 0.827-0.673 1.5-1.5 1.5h-7c-1.379 0-2.5-1.121-2.5-2.5S13.121 7 14.5 7h7C22.327 7 23 7.673 23 8.5z" />
</svg>