<svg id="heart_brain_Layer_1" viewBox="0 0 24 24" fill="currentColor" width="32" height="32" data-name="Layer 1" xmlns="http://www.w3.org/2000/svg" xmlns:xlink="http://www.w3.org/1999/xlink">
    <title>heart-brain</title>
    <path d="M23.758 16.5c0.173-0.405 0.261-0.825 0.261-1.25 0-1.314-0.804-2.489-2-2.988V12.25c0-1.792-1.458-3.25-3.25-3.25-0.73 0-1.42 0.259-1.983 0.697L16.5 9.884 16.225 9.69C15.663 9.256 14.976 9 14.25 9 12.458 9 11 10.458 11 12.25v0.012c-1.196 0.499-2 1.674-2 2.988 0 0.425 0.088 0.845 0.261 1.25C9.088 16.905 9 17.325 9 17.75c0 0.885 0.364 1.722 1.008 2.337-5e-3 0.054 9e-3 0.555 0.038 0.618C10.273 22.556 11.838 24 13.75 24c1.042 0 2.007-0.432 2.707-1.176 0.015 1e-3 0.028 9e-3 0.043 9e-3 0.021 0 0.039-9e-3 0.059-0.012C17.26 23.566 18.226 24 19.269 24c2.068 0 3.75-1.683 3.75-3.75 0-0.052-3e-3-0.103-8e-3-0.163 0.644-0.614 1.008-1.451 1.008-2.337 0-0.425-0.088-0.845-0.261-1.25zM13.75 23c-1.473 0-2.67-1.168-2.737-2.625C11.08 19.055 12.165 18 13.5 18c0.276 0 0.5-0.224 0.5-0.5S13.776 17 13.5 17c-1.373 0-2.551 0.802-3.124 1.955C10.141 18.596 10 18.184 10 17.75c0-0.345 0.087-0.688 0.258-1.021 0.074-0.144 0.074-0.313 0-0.457C10.087 15.939 10 15.595 10 15.251c0-1.008 0.685-1.896 1.666-2.162 0.243-0.065 0.39-0.374 0.355-0.623-0.01-0.07-0.021-0.142-0.021-0.215 0-1.24 1.009-2.25 2.25-2.25 0.686 0 1.324 0.325 1.75 0.862v10.928c-0.516 0.754-1.341 1.21-2.25 1.209zM22.761 16.729c0.171 0.333 0.258 0.677 0.258 1.021 0 0.675-0.31 1.312-0.85 1.746-0.133 0.107-0.203 0.275-0.184 0.445 0 0 0.034 0.242 0.034 0.309 0 1.517-1.234 2.75-2.75 2.75-0.919 0-1.755-0.464-2.269-1.234V10.883C17.426 10.333 18.073 10 18.769 10c1.219 0 2.209 0.977 2.244 2.187-3e-3 0.022 0.083 1.678-1.648 2.228-0.264 0.084-0.42 0.352-0.345 0.617 0.062 0.221 0.263 0.364 0.48 0.364 0.045 0 0.091-6e-3 0.136-0.019 1.047-0.296 1.856-1.098 2.193-2.093 0.717 0.385 1.19 1.132 1.19 1.965 0 0.345-0.087 0.688-0.258 1.021-0.074 0.144-0.074 0.313 0 0.459zM21 17.5c0 0.276-0.224 0.5-0.5 0.5-0.827 0-1.5 0.673-1.5 1.5 0 0.276-0.224 0.5-0.5 0.5S18 19.776 18 19.5c0-1.379 1.122-2.5 2.5-2.5 0.276 0 0.5 0.224 0.5 0.5zM15 12.5c0 1.379-1.122 2.5-2.5 2.5-0.276 0-0.5-0.224-0.5-0.5s0.224-0.5 0.5-0.5c0.827 0 1.5-0.673 1.5-1.5 0-0.276 0.224-0.5 0.5-0.5s0.5 0.224 0.5 0.5zM9 5.021c0 0.276-0.224 0.5-0.5 0.5S8 5.297 8 5.021c0-1.479-0.864-2.982-2.102-3.654C5.189 0.98 4.065 0.702 2.735 1.564 1.643 2.272 0.978 3.426 1 4.576c0.055 2.904 3.181 6.789 6.062 9.169 0.067 0.057 0.137 0.107 0.208 0.153 0.232 0.149 0.299 0.459 0.149 0.69-0.096 0.148-0.257 0.229-0.421 0.229-0.093 0-0.187-0.025-0.271-0.08-0.104-0.067-0.205-0.142-0.303-0.223C4.072 12.572 0.071 8.295 0 4.596-0.027 3.103 0.812 1.62 2.192 0.725c1.36-0.879 2.846-0.964 4.184-0.237 0.87 0.473 1.573 1.249 2.035 2.159C9.025 1.298 10.442-1e-3 12.5-1e-3c2.5 0 4.155 1.933 4.435 3.853 0.031 0.179 0.049 0.359 0.055 0.541 0 0.036 0.011 1.279-0.596 2.798-0.077 0.194-0.266 0.308-0.461 0.308-0.064 0-0.129-0.013-0.192-0.038-0.255-0.106-0.375-0.399-0.269-0.654 0.339-0.812 0.53-1.5 0.521-2.398-1e-3-0.132-0.491-3.408-3.478-3.408-5e-3 0-0.011 0-0.016 0-1.996 0-3.496 1.5-3.499 4.02z" />
</svg>