<svg id="heart_Layer_1" viewBox="0 0 24 24" fill="currentColor" width="32" height="32" data-name="Layer 1" xmlns="http://www.w3.org/2000/svg" xmlns:xlink="http://www.w3.org/1999/xlink">
    <title>heart</title>
    <path d="M20.949 2.007c-1.881-1.221-3.938-1.337-5.792-0.332-1.428 0.776-2.55 2.129-3.158 3.696-0.607-1.567-1.729-2.92-3.158-3.696-1.854-1.006-3.91-0.889-5.791 0.332C1.13 3.252-0.038 5.312 0 7.382c0.086 4.56 4.806 10.504 9.156 14.097 0.824 0.681 1.833 1.021 2.843 1.021 1.009 0 2.019-0.34 2.843-1.021 4.35-3.593 9.07-9.538 9.156-14.097 0.039-2.07-1.129-4.13-3.049-5.375zM14.206 20.709c-1.279 1.056-3.135 1.055-4.413 0-4.178-3.453-8.712-9.101-8.792-13.345-0.033-1.728 0.961-3.459 2.594-4.518 0.864-0.561 1.77-0.842 2.663-0.842 0.719 0 1.431 0.183 2.107 0.55C10.211 3.557 11.5 5.797 11.5 8c0 0.276 0.224 0.5 0.5 0.5s0.5-0.224 0.5-0.5c0-2.204 1.29-4.443 3.135-5.446 1.516-0.822 3.209-0.72 4.77 0.292 1.632 1.059 2.626 2.79 2.594 4.518-0.08 4.243-4.614 9.892-8.793 13.345z" />
</svg>