<svg id="heart_crack_Layer_1" viewBox="0 0 24 24" fill="currentColor" width="32" height="32" data-name="Layer 1" xmlns="http://www.w3.org/2000/svg" xmlns:xlink="http://www.w3.org/1999/xlink">
    <title>heart-crack</title>
    <path d="M12 23c-0.83 0-1.65-0.28-2.34-0.83C6.07 19.28 0 13 0 7.82 0 4.06 2.8 1 6.25 1 8.79 1 11.04 2.8 12 5.3 12.96 2.8 15.21 1 17.75 1 21.2 1 24 4.06 24 7.81c0 6.25-8.04 13.05-9.66 14.35-0.69 0.56-1.52 0.83-2.34 0.84zM6.25 2C3.4 2 1 4.67 1 7.82c0 4.81 5.83 10.8 9.28 13.58 1.01 0.82 2.42 0.82 3.44 0C18 17.95 23 12.32 23 7.82c0-3.15-2.4-5.81-5.25-5.81s-5.25 2.75-5.25 6v0c0 0.14-0.06 0.26-0.15 0.35l-2.15 2.15c-0.28 0.28-0.28 0.74 0 1.02l3.32 3.32c0.64 0.64 0.64 1.67 0 2.31l-1.69 1.69c-0.2 0.2-0.51 0.2-0.71 0s-0.2-0.51 0-0.71l1.69-1.69c0.25-0.25 0.25-0.65 0-0.9l-3.32-3.32c-0.67-0.67-0.67-1.77 0-2.44l2-2C11.39 4.63 9.03 2 6.25 2z" />
</svg>