<svg id="heart_upside_down_Layer_1" viewBox="0 0 24 24" fill="currentColor" width="32" height="32" data-name="Layer 1" xmlns="http://www.w3.org/2000/svg" xmlns:xlink="http://www.w3.org/1999/xlink">
    <title>heart-upside-down</title>
    <path d="M14.843 2.521c-1.646-1.362-4.039-1.362-5.686 0C4.808 6.114 0.087 12.058 0 16.618c-0.039 2.07 1.13 4.13 3.05 5.375 1.884 1.221 3.939 1.339 5.791 0.332 1.429-0.776 2.551-2.129 3.158-3.696 0.607 1.567 1.729 2.92 3.158 3.696 0.833 0.453 1.707 0.678 2.588 0.678 1.078 0 2.167-0.338 3.203-1.01 1.92-1.245 3.089-3.305 3.05-5.375-0.086-4.56-4.807-10.504-9.155-14.097zM20.405 21.154c-1.559 1.012-3.253 1.116-4.769 0.292C13.789 20.443 12.5 18.203 12.5 16c0-0.276-0.224-0.5-0.5-0.5s-0.5 0.224-0.5 0.5c0 2.204-1.289 4.443-3.136 5.446-1.517 0.824-3.212 0.718-4.769-0.292-1.634-1.059-2.628-2.79-2.595-4.518 0.08-4.244 4.614-9.893 8.793-13.345 1.279-1.057 3.133-1.057 4.412 0 4.179 3.452 8.713 9.1 8.793 13.344 0.033 1.728-0.961 3.459-2.593 4.519z" />
</svg>