<svg id="heart_circle_user_Layer_1" viewBox="0 0 24 24" fill="currentColor" width="32" height="32" data-name="Layer 1" xmlns="http://www.w3.org/2000/svg" xmlns:xlink="http://www.w3.org/1999/xlink">
    <title>heart-circle-user</title>
    <path d="M0.533 10.996c0.268 0.037 0.526-0.156 0.56-0.431 0.185-1.422 0.65-2.765 1.36-4.007C2.906 6.833 3.432 7.001 4 7.001c1.654 0 3-1.346 3-3 0-0.568-0.168-1.094-0.443-1.547 1.242-0.71 2.585-1.175 4.007-1.36 0.274-0.036 0.467-0.286 0.431-0.56s-0.285-0.472-0.56-0.431C8.815 0.314 7.286 0.85 5.882 1.684 5.366 1.264 4.716 1.001 4 1.001c-1.654 0-3 1.346-3 3 0 0.716 0.263 1.366 0.683 1.882-0.834 1.403-1.371 2.932-1.581 4.553-0.036 0.274 0.157 0.524 0.431 0.56zM4 2c1.103 0 2 0.897 2 2S5.103 6 4 6 2 5.103 2 4 2.897 2 4 2zM10.564 22.907c-1.422-0.185-2.765-0.65-4.007-1.36C6.832 21.094 7 20.568 7 20c0-1.654-1.346-3-3-3-0.568 0-1.094 0.168-1.547 0.443-0.71-1.242-1.175-2.585-1.36-4.007-0.036-0.274-0.288-0.473-0.56-0.431-0.274 0.036-0.467 0.286-0.431 0.56 0.211 1.62 0.747 3.149 1.582 4.553-0.42 0.516-0.683 1.166-0.683 1.882 0 1.654 1.346 3 3 3 0.716 0 1.366-0.263 1.882-0.683 1.404 0.834 2.933 1.371 4.553 1.582 0.268 0.037 0.526-0.156 0.56-0.431 0.036-0.274-0.157-0.524-0.432-0.561zM4 22c-1.103 0-2-0.897-2-2s0.897-2 2-2 2 0.897 2 2-0.897 2-2 2zM23.468 13.004c-0.27-0.04-0.524 0.157-0.561 0.431-0.186 1.423-0.65 2.766-1.36 4.007-0.453-0.275-0.979-0.443-1.547-0.443-1.654 0-3 1.346-3 3 0 0.568 0.168 1.094 0.443 1.547-1.242 0.71-2.585 1.175-4.007 1.36-0.273 0.036-0.467 0.286-0.432 0.56 0.035 0.275 0.292 0.468 0.561 0.431 1.621-0.211 3.15-0.747 4.553-1.582 0.516 0.421 1.166 0.683 1.883 0.683 1.654 0 3-1.346 3-3 0-0.716-0.263-1.365-0.683-1.882 0.834-1.403 1.37-2.932 1.582-4.554 0.035-0.273-0.157-0.524-0.432-0.558zM20 22c-1.103 0-2-0.897-2-2s0.897-2 2-2 2 0.897 2 2-0.897 2-2 2zM13.436 1.093c1.422 0.185 2.766 0.65 4.007 1.36C17.168 2.906 17 3.432 17 4c0 1.654 1.346 3 3 3 0.568 0 1.094-0.168 1.547-0.443 0.709 1.241 1.174 2.584 1.36 4.007 0.035 0.275 0.292 0.468 0.561 0.431 0.274-0.036 0.467-0.287 0.432-0.56-0.212-1.622-0.748-3.151-1.583-4.553C22.738 5.366 23 4.716 23 3.999c0-1.654-1.346-3-3-3-0.716 0-1.366 0.263-1.883 0.683-1.403-0.835-2.932-1.371-4.553-1.582-0.272-0.04-0.524 0.157-0.561 0.431-0.035 0.274 0.158 0.524 0.433 0.562zM20 2c1.103 0 2 0.897 2 2s-0.897 2-2 2-2-0.897-2-2 0.897-2 2-2zM18 10.388C18 8.489 16.572 7 14.75 7 13.668 7 12.713 7.537 12 8.53 11.287 7.537 10.332 7 9.25 7 7.428 7 6 8.488 6 10.388c0 2.915 3.965 6.189 4.417 6.553 0.932 0.749 2.234 0.749 3.166 0C14.035 16.577 18 13.303 18 10.388zM11.044 16.162C9.542 14.954 7 12.378 7 10.388 7 9.027 7.967 8 9.25 8c1.191 0 1.91 0.938 2.303 1.724 0.17 0.339 0.725 0.339 0.895 0C12.841 8.938 13.559 8 14.751 8c1.282 0 2.25 1.026 2.25 2.388 0 1.99-2.542 4.565-4.044 5.774-0.562 0.452-1.35 0.452-1.913 0z" />
</svg>