<svg id="heart_arrow_Layer_1" viewBox="0 0 24 24" fill="currentColor" width="32" height="32" data-name="Layer 1" xmlns="http://www.w3.org/2000/svg" xmlns:xlink="http://www.w3.org/1999/xlink">
    <title>heart-arrow</title>
    <path d="M23.5 17c-0.276 0-0.5 0.224-0.5 0.5v4c0 0.231-0.053 0.451-0.147 0.646l-4.933-4.933c2.23-2.454 4.076-5.332 4.076-7.747 0.058-1.532-0.47-2.992-1.445-4.006C19.631 4.505 18.399 4 16.988 4h-0.011c-1.744 0.037-3.353 1.008-4.21 2.559-9e-3 0.018-0.118 0.242-0.265 0.583-0.148-0.337-0.264-0.576-0.279-0.607-0.845-1.526-2.453-2.497-4.208-2.534-0.969 0-1.854 0.238-2.611 0.696l-4.55-4.551c-0.196-0.195-0.512-0.195-0.708 0s-0.195 0.512 0 0.708L4.6 5.309C4.547 5.36 4.494 5.411 4.443 5.465 3.471 6.474 2.946 7.921 3.003 9.417c0 3.509 3.859 7.976 7.163 10.735 0.68 0.567 1.513 0.851 2.345 0.851s1.662-0.282 2.338-0.848c0.783-0.653 1.598-1.403 2.384-2.212l4.911 4.911c-0.196 0.094-0.415 0.147-0.646 0.147h-4c-0.276 0-0.5 0.224-0.5 0.5s0.224 0.5 0.5 0.5h4c1.381 0 2.5-1.119 2.5-2.5v-4c0-0.276-0.224-0.5-0.498-0.501zM14.21 19.387c-0.982 0.822-2.415 0.821-3.402-3e-3-3.138-2.621-6.803-6.805-6.804-9.986-0.047-1.245 0.376-2.426 1.161-3.24 0.729-0.757 1.714-1.157 2.839-1.157 1.39 0.029 2.671 0.803 3.331 1.994 4e-3 9e-3 0.422 0.877 0.697 1.67 0.07 0.201 0.259 0.336 0.472 0.336v0c0.212 0 0.402-0.135 0.472-0.335 0.301-0.862 0.679-1.646 0.678-1.646 0.673-1.214 1.952-1.987 3.34-2.019 1.13 0 2.111 0.4 2.837 1.154 0.789 0.818 1.214 2.012 1.166 3.293 0 2.941-3.518 7.215-6.787 9.939z" />
</svg>