<svg id="heart_rate_Layer_1" viewBox="0 0 24 24" fill="currentColor" width="32" height="32" data-name="Layer 1" xmlns="http://www.w3.org/2000/svg" xmlns:xlink="http://www.w3.org/1999/xlink">
    <title>heart-rate</title>
    <path d="M16.551 21H16.54c-0.399-4e-3-0.741-0.266-0.85-0.65L11.967 4.337 8.279 18.355c-0.124 0.386-0.443 0.629-0.822 0.644-0.385 6e-3-0.718-0.203-0.861-0.553l-1.602-5.479C4.79 12.4 4.223 12 3.591 12H0.5C0.224 12 0 11.776 0 11.5S0.224 11 0.5 11h3.091c1.053 0 1.999 0.667 2.354 1.658l1.472 5.046 3.7-14.059c0.13-0.404 0.475-0.658 0.874-0.645 0.396 7e-3 0.734 0.268 0.843 0.649l3.716 15.984 1.565-6.765c0.297-1.107 1.29-1.869 2.419-1.869H23.5c0.276 0 0.5 0.224 0.5 0.5s-0.224 0.5-0.5 0.5h-2.966c-0.678 0-1.273 0.457-1.448 1.111l-1.673 7.225C17.287 20.747 16.945 21 16.551 21z" />
</svg>