<svg id="heart_half_stroke_Layer_1" viewBox="0 0 24 24" fill="currentColor" width="32" height="32" data-name="Layer 1" xmlns="http://www.w3.org/2000/svg" xmlns:xlink="http://www.w3.org/1999/xlink">
    <title>heart-half-stroke</title>
    <path d="M22.19 3.82C21.04 2.63 19.5 2 17.73 2c-2.18 0.05-4.19 1.26-5.24 3.16-0.02 0.04-0.23 0.4-0.47 0.95-0.24-0.61-0.48-0.95-0.48-0.95-1.06-1.91-3.07-3.12-5.26-3.17-1.77 0-3.31 0.63-4.46 1.83C0.59 5.09-0.07 6.9 0 8.78c0 4.84 5.7 10.33 9.1 13.16 0.84 0.7 1.87 1.05 2.91 1.05s2.06-0.35 2.9-1.05c2.73-2.28 9.08-8.11 9.08-13.11 0.07-1.92-0.59-3.75-1.8-5.01zM14.28 21.18C13.62 21.73 12.81 22 12.01 22V10c0-1.93 1.34-4.32 1.35-4.34 0.88-1.6 2.57-2.61 4.38-2.65 1.49 0 2.78 0.52 3.73 1.52 1.03 1.07 1.59 2.63 1.53 4.3 0 4.72-6.67 10.65-8.72 12.35z" />
</svg>