<svg id="heart_health_muscle_Layer_1" viewBox="0 0 24 24" fill="currentColor" width="32" height="32" data-name="Layer 1" xmlns="http://www.w3.org/2000/svg" xmlns:xlink="http://www.w3.org/1999/xlink">
    <title>heart-health-muscle</title>
    <path d="M21.887 9.114C21.367 9.037 20.75 9 20 9c-2.451 0-4.784 2.583-5.436 3.367-0.586-0.242-1.267-0.412-2.076-0.391-1.947 0.044-3.682 1.011-4.846 1.868 0.471-1.861 0.423-3.823 0.38-5.484-0.024-0.952-0.047-1.798 0.047-2.361h1.494c0.763 0 1.448-0.424 1.789-1.105l0.447-0.895h0.19c0.644 0 1-0.51 1.01-1C13 1.548 11.778 6e-3 9.513 0H9.495C7.831 6e-3 6.519 1.147 6.49 1.175 9e-3 6.161 2e-3 14.132 0 16.751c0 1.209 0.497 2.38 1.366 3.212C3.314 21.825 7.267 24 12 24c4.613 0 8.01-1.196 10.047-2.199C23.252 21.208 24 20.004 24 18.659v-7.074c0-1.232-0.909-2.294-2.113-2.471zM23 18.66c0 0.961-0.534 1.821-1.395 2.244C19.663 21.861 16.42 23 12 23s-8.129-2.025-9.942-3.76C1.375 18.587 0.999 17.703 1 16.752c2e-3-2.498 8e-3-10.098 6.125-14.805C7.136 1.938 8.222 1.002 9.505 1 11.322 1.002 12 2.228 11.99 3h-1.5c-0.402 0-0.494-0.274-0.5-0.505C9.987 2.221 9.764 2 9.49 2c-0.276 0-0.5 0.224-0.5 0.5 0 0.603 0.399 1.5 1.5 1.5h0.191l-0.223 0.447C10.288 4.788 9.945 5 9.563 5H7.679c-0.212 0-0.4 0.133-0.472 0.333C6.961 6.03 6.987 7.07 7.021 8.387c0.055 2.123 0.123 4.764-0.967 6.885-5e-3 0.01-0.051 0.094-0.051 0.221 0 0.031-0.019 0.507 0.495 0.507 0.195 0 0.36-0.152 0.367-0.16 0.026-0.028 2.621-2.795 5.644-2.863 2.33-0.045 3.522 1.726 3.573 1.802 0.154 0.229 0.465 0.289 0.693 0.137 0.229-0.153 0.292-0.462 0.14-0.691-0.035-0.051-0.505-0.73-1.376-1.33 0.722-0.866 2.607-2.894 4.459-2.894 0.69 0 1.276 0.035 1.74 0.103 0.719 0.105 1.26 0.743 1.26 1.482zM18.858 6.598c0.336 0.27 0.738 0.404 1.142 0.404s0.806-0.135 1.142-0.404C21.435 6.364 24 4.25 24 2.25 24 1.009 22.99 0 21.75 0 21.044 0 20.413 0.327 20 0.837 19.587 0.326 18.956 0 18.25 0 17.01 0 16 1.009 16 2.25c0 2 2.565 4.113 2.858 4.348zM18.25 1c0.689 0 1.25 0.561 1.25 1.25 0 0.276 0.224 0.5 0.5 0.5s0.5-0.224 0.5-0.5C20.5 1.561 21.061 1 21.75 1S23 1.561 23 2.25c0 1.157-1.485 2.767-2.483 3.567-0.305 0.243-0.729 0.245-1.033 0-0.998-0.8-2.483-2.41-2.483-3.567 0-0.689 0.561-1.25 1.249-1.25z" />
</svg>