<svg id="heat_Layer_1" viewBox="0 0 24 24" fill="currentColor" width="32" height="32" data-name="Layer 1" xmlns="http://www.w3.org/2000/svg" xmlns:xlink="http://www.w3.org/1999/xlink">
    <title>heat</title>
    <path d="M20.5 24c-0.042 0-0.086-5e-3-0.129-0.017-0.267-0.071-0.426-0.345-0.354-0.612 0.114-0.428 0.243-0.826 0.369-1.218 0.315-0.98 0.614-1.906 0.614-3.16 0-2.766-1.029-4.801-1.927-6.265C18.108 11.152 17 8.957 17 5.94c0-1.884 0.772-4.482 1.294-5.646 0.113-0.252 0.409-0.365 0.661-0.251 0.252 0.113 0.364 0.409 0.251 0.661C18.785 1.642 18 4.14 18 5.94c0 2.766 1.029 4.801 1.927 6.265C20.892 13.781 22 15.976 22 18.993c0 1.411-0.337 2.456-0.663 3.467-0.121 0.375-0.244 0.758-0.354 1.168-0.06 0.224-0.262 0.371-0.483 0.372zM13.5 24c-0.042 0-0.086-5e-3-0.129-0.017-0.267-0.071-0.426-0.345-0.354-0.612 0.114-0.428 0.243-0.826 0.369-1.218 0.315-0.98 0.614-1.906 0.614-3.16 0-2.766-1.029-4.801-1.927-6.265C11.108 11.152 10 8.957 10 5.94c0-1.884 0.772-4.482 1.294-5.646 0.112-0.252 0.409-0.365 0.661-0.251 0.252 0.113 0.364 0.409 0.251 0.661C11.785 1.642 11 4.14 11 5.94c0 2.766 1.029 4.801 1.927 6.265C13.892 13.781 15 15.976 15 18.993c0 1.411-0.337 2.456-0.663 3.467-0.121 0.375-0.244 0.758-0.354 1.168-0.06 0.224-0.262 0.371-0.483 0.372zM6.5 24c-0.042 0-0.086-5e-3-0.129-0.017-0.267-0.071-0.426-0.345-0.354-0.612 0.114-0.428 0.243-0.826 0.369-1.218C6.701 21.173 7 20.247 7 18.993c0-2.766-1.029-4.801-1.927-6.265C4.108 11.152 3 8.957 3 5.94 3 4.056 3.772 1.458 4.294 0.294c0.112-0.252 0.41-0.365 0.661-0.251 0.252 0.113 0.364 0.409 0.251 0.661C4.785 1.642 4 4.14 4 5.94c0 2.766 1.029 4.801 1.927 6.265C6.892 13.781 8 15.976 8 18.993c0 1.411-0.337 2.456-0.663 3.467-0.121 0.375-0.244 0.758-0.354 1.168C6.923 23.852 6.721 23.999 6.5 24z" />
</svg>