<svg id="helmet_battle_Layer_1" viewBox="0 0 24 24" fill="currentColor" width="32" height="32" data-name="Layer 1" xmlns="http://www.w3.org/2000/svg" xmlns:xlink="http://www.w3.org/1999/xlink">
    <title>helmet-battle</title>
    <path d="M13.959 0.583c-1.189-0.774-2.729-0.774-3.918 0C7.038 2.539 2 6.42 2 10.443v7.481c0 2.021 1.208 3.826 3.078 4.596l3.235 1.332c0.603 0.247 1.284 0.178 1.823-0.183 0.541-0.362 0.863-0.966 0.863-1.617v-6.047c0-0.553-0.302-1.059-0.788-1.32l-2.57-1.388c-0.539-0.291-0.775-0.928-0.563-1.514 0.168-0.462 0.675-0.785 1.232-0.785h7.379c0.558 0 1.064 0.323 1.232 0.784 0.212 0.586-0.024 1.223-0.563 1.514l-2.569 1.387C13.302 14.945 13 15.451 13 16.003v6.047c0 0.65 0.322 1.255 0.863 1.617 0.325 0.218 0.702 0.33 1.082 0.33 0.25 0 0.502-0.049 0.741-0.147l3.235-1.332c1.87-0.771 3.078-2.575 3.078-4.596v-7.481c0-4.023-5.038-7.904-8.04-9.858zM21 17.923c0 1.615-0.965 3.056-2.459 3.671l-3.235 1.332c-0.295 0.122-0.62 0.09-0.886-0.089-0.267-0.178-0.42-0.465-0.42-0.786v-6.047c0-0.184 0.101-0.353 0.263-0.44l2.57-1.388c0.979-0.529 1.412-1.679 1.028-2.735-0.313-0.863-1.187-1.443-2.172-1.443H8.31c-0.985 0-1.858 0.58-2.172 1.443-0.384 1.056 0.049 2.206 1.028 2.735l2.571 1.388c0.161 0.087 0.262 0.255 0.262 0.439v6.047c0 0.321-0.153 0.607-0.42 0.786-0.266 0.179-0.591 0.21-0.886 0.089l-3.235-1.332c-1.494-0.615-2.459-2.057-2.459-3.671v-7.481c0-3.684 5.306-7.536 7.586-9.021 0.859-0.559 1.969-0.559 2.828 0 2.281 1.486 7.586 5.338 7.586 9.021z" />
</svg>