<svg id="hermit_crab_Layer_1" viewBox="0 0 24 24" fill="currentColor" width="32" height="32" data-name="Layer 1" xmlns="http://www.w3.org/2000/svg" xmlns:xlink="http://www.w3.org/1999/xlink">
    <title>hermit-crab</title>
    <path d="M22.082 11.875c1.166-0.528 1.925-1.718 1.918-2.996 0.032-1.353-0.79-2.578-2.036-3.121 0.99-1.073 1.657-2.098 1.944-3.047C24.344 1.413 23.263-0.04 21.895 0h-1.896c-3.472 0-4.934 1.72-5.37 2.384-0.844-0.426-1.832-0.464-2.723-0.046-1.051 0.493-1.753 1.467-1.878 2.594-0.057 0.411-9e-3 0.812 0.089 1.198-0.725-0.19-1.498-0.153-2.21 0.169-0.88 0.398-1.494 1.145-1.751 2.03C5.97 8.069 5.736 7.82 5.397 7.59 4.636 7.073 3.714 6.885 2.807 7.061 2.448 7.131 2.116 7.268 1.804 7.438 1.623 7.179 1.338 6.999 0.999 6.999c-0.552 0-1 0.448-1 1 0 0.34 0.181 0.626 0.44 0.807-0.849 1.552-0.407 3.524 1.088 4.53 0.626 0.421 1.709 0.663 2.972 0.663 2.435 0 3.211-0.3 4.371-0.842 0.361 0.275 0.759 0.561 1.186 0.851-0.016 7e-3 0.607 0.515 0.62 0.526 1.477 1.466 2.323 3.5 2.323 5.581v3.384c0 0.276 0.224 0.5 0.5 0.5s0.5-0.224 0.5-0.5v-3.384c0-1.58-0.442-3.131-1.244-4.493 0.725 0.375 1.504 0.728 2.325 1.047 1.219 1.212 1.919 2.888 1.919 4.608v2.222c0 0.276 0.224 0.5 0.5 0.5s0.5-0.224 0.5-0.5v-2.222c0-1.422-0.42-2.815-1.172-4.008 0.948 0.279 1.948 0.491 2.987 0.63 0.758 0.966 1.186 2.158 1.186 3.39v2.209c0 0.276 0.224 0.5 0.5 0.5s0.5-0.224 0.5-0.5v-2.209c0-1.171-0.322-2.313-0.912-3.311 1.512-0.091 2.931-1.499 2.91-3.013 0.041-1.329-0.73-2.537-1.916-3.09zM20 1h1.896c0.716-0.021 1.285 0.741 1.056 1.421-0.271 0.893-0.95 1.894-2.01 2.974-1.963-0.635-3.726-1.451-5.439-2.519C15.86 2.355 17.071 1 20 1zM11.021 5.055c0.088-0.791 0.578-1.468 1.311-1.812 0.678-0.32 1.435-0.284 2.063 0.129 2.159 1.421 4.347 2.435 6.887 3.19C22.32 6.87 23.027 7.814 23 8.859c0.05 1.582-1.665 2.763-3.142 2.224-2.98-0.944-5.576-2.372-8.051-4.066-0.595-0.454-0.891-1.197-0.786-1.962zM7.957 12.474C7.114 12.833 6.373 13 4.5 13c-1.037 0-1.962-0.188-2.413-0.492-1.127-0.759-1.427-2.293-0.668-3.42 0.451-0.68 1.238-1.093 2.054-1.089 1.046-0.01 1.9 0.649 2.267 1.631 0.429 1.025 1.271 2.11 2.217 2.844zM22.273 16.442c-0.611 0.555-1.417 0.648-2.182 0.487-5.828-0.737-10.286-4.159-12.159-5.84-0.635-0.619-1.043-1.256-0.909-2.144C7.134 7.846 8.189 6.98 9.288 7c0.733-0.034 1.366 0.432 1.943 0.836 2.219 1.812 6.509 3.774 10.113 4.818 1.604 0.437 2.281 2.668 0.929 3.788zM4 10c0 0.552-0.448 1-1 1s-1-0.448-1-1 0.448-1 1-1 1 0.448 1 1zM4.821 16.06c-0.842 0.842-2.226 2.916-2.742 4.109-0.354 0.743 0.473 1.596 1.226 1.261 0.72-0.323 1.724-0.991 2.544-1.279-0.29 0.819-0.962 1.825-1.286 2.544-0.336 0.754 0.522 1.579 1.261 1.226 1.202-0.52 3.279-1.904 4.116-2.742 1.404-1.347 1.405-3.771 0-5.119-1.367-1.367-3.751-1.369-5.119 0zM9.232 20.472c-0.756 0.756-2.713 2.058-3.743 2.599 0.068-0.167 0.215-0.425 0.386-0.729 0.5-0.892 1.123-2.001 1.112-2.834-4e-3-0.271-0.223-0.49-0.493-0.494H6.473c-0.832 0-1.932 0.614-2.816 1.108-0.304 0.169-0.56 0.314-0.659 0.445 0.47-1.085 1.771-3.038 2.531-3.799 0.991-0.99 2.715-0.989 3.704 0 1.017 0.976 1.017 2.729-1e-3 3.704z" />
</svg>