<svg id="hexagon_divide_Layer_1" viewBox="0 0 24 24" fill="currentColor" width="32" height="32" data-name="Layer 1" xmlns="http://www.w3.org/2000/svg" xmlns:xlink="http://www.w3.org/1999/xlink">
    <title>hexagon-divide</title>
    <path d="M23.462 9.883l-3.529-6.5C19.134 1.913 17.584 1 15.886 1H8.134C6.44 1 4.891 1.911 4.092 3.376L0.544 9.881c-0.726 1.33-0.726 2.917 0 4.249l3.546 6.496c0.8 1.465 2.349 2.375 4.042 2.375h7.753c1.698 0 3.248-0.913 4.047-2.383l3.529-6.5c0.72-1.326 0.72-2.908 1e-3-4.235zM22.583 13.639l-3.529 6.5C18.431 21.287 17.217 22 15.886 22H8.133c-1.327 0-2.54-0.71-3.165-1.854l-3.546-6.495c-0.562-1.031-0.562-2.261 0-3.291l3.549-6.504c0.623-1.144 1.836-1.855 3.164-1.855h7.752c1.331 0 2.545 0.713 3.168 1.861l3.529 6.5c0.558 1.026 0.558 2.252-1e-3 3.277zM18 12c0 0.276-0.224 0.5-0.5 0.5h-11C6.224 12.5 6 12.276 6 12s0.224-0.5 0.5-0.5h11c0.276 0 0.5 0.224 0.5 0.5zM12 5.5c0.828 0 1.5 0.673 1.5 1.5S12.828 8.5 12 8.5 10.5 7.827 10.5 7 11.172 5.5 12 5.5zM12 18.5c-0.828 0-1.5-0.673-1.5-1.5s0.672-1.5 1.5-1.5 1.5 0.673 1.5 1.5-0.672 1.5-1.5 1.5z" />
</svg>