<svg id="high_five_celebration_yes_Layer_1" viewBox="0 0 24 24" fill="currentColor" width="32" height="32" data-name="Layer 1" xmlns="http://www.w3.org/2000/svg" xmlns:xlink="http://www.w3.org/1999/xlink">
    <title>high-five-celebration-yes</title>
    <path d="M23.982 10.282c0.059 0.733-0.205 1.451-0.724 1.97l-3.416 4.05c-0.096 0.091-0.219 0.136-0.342 0.136-0.133 0-0.266-0.053-0.364-0.157-0.189-0.201-0.179-0.518 0.022-0.707l3.363-3.996c0.341-0.344 0.5-0.775 0.464-1.215-0.036-0.446-0.259-0.839-0.63-1.105-0.583-0.421-1.443-0.315-2.001 0.242l-0.463 0.584c-0.132 0.167-0.355 0.231-0.556 0.16-0.2-0.07-0.334-0.259-0.334-0.472V4.001c0-0.551-0.449-1-1-1s-1 0.449-1 1v3.5c0 0.276-0.224 0.5-0.5 0.5s-0.5-0.224-0.5-0.5V2c0-0.551-0.449-1-1-1s-1 0.449-1 1v3.5c0 0.276-0.224 0.5-0.5 0.5s-0.5-0.224-0.5-0.5V3c0-0.551-0.449-1-1-1s-1 0.449-1 1v1.5c0 0.276-0.224 0.5-0.5 0.5-0.014 0-0.026-7e-3-0.039-8e-3C10.447 4.993 10.517 5 10.501 5c-0.206 0-0.484-0.128-0.557-0.333C9.803 4.269 9.423 4 9.001 4S8.199 4.268 8.058 4.667C7.966 4.928 7.679 5.064 7.42 4.972 7.159 4.88 7.023 4.595 7.115 4.334c0.282-0.798 1.04-1.333 1.886-1.333 0.363 0 0.7 0.115 1 0.29v-0.29c0-1.103 0.897-2 2-2 0.415 0 0.8 0.127 1.12 0.344 0.273-0.78 1.008-1.344 1.88-1.344 1.103 0 2 0.897 2 2v0.278c0.295-0.172 0.634-0.278 1-0.278 1.103 0 2 0.897 2 2v4.504c0.911-0.637 2.091-0.67 2.939-0.059 0.604 0.435 0.983 1.104 1.042 1.836zM17 11v6.5c0 3.645-2.855 6.5-6.5 6.5H8.702c-1.812 0-3.517-0.665-4.675-1.825l-3.314-3.956c-0.489-0.486-0.753-1.204-0.694-1.937s0.439-1.401 1.042-1.836c0.857-0.619 2.05-0.579 2.94 0.048V10c0-1.103 0.897-2 2-2 0.366 0 0.705 0.106 1 0.278V8c0-1.103 0.897-2 2-2 0.872 0 1.607 0.564 1.88 1.344C11.201 7.127 11.586 7 12.001 7c1.103 0 2 0.897 2 2v0.278C14.296 9.106 14.635 9 15.001 9c1.103 0 2 0.897 1.999 2zM16 11c0-0.551-0.449-1-1-1s-1 0.449-1 1v4.5c0 0.276-0.224 0.5-0.5 0.5S13 15.776 13 15.5V9c0-0.551-0.449-1-1-1s-1 0.449-1 1v6.5c0 0.276-0.224 0.5-0.5 0.5S10 15.776 10 15.5V8c0-0.551-0.449-1-1-1S8 7.449 8 8v7.5C8 15.776 7.776 16 7.5 16S7 15.776 7 15.5V10c0-0.551-0.449-1-1-1s-1 0.449-1 1v5.771c0 0.212-0.134 0.401-0.334 0.472-0.201 0.071-0.423 7e-3-0.556-0.159l-0.5-0.625c-0.521-0.518-1.382-0.62-1.964-0.201-0.371 0.268-0.594 0.66-0.63 1.105-0.036 0.439 0.123 0.87 0.434 1.182l3.314 3.956c0.943 0.941 2.39 1.5 3.938 1.5H10.5c3.084 0 5.5-2.416 5.5-5.5z" />
</svg>