<svg id="high_five_Layer_1" viewBox="0 0 24 24" fill="currentColor" width="32" height="32" data-name="Layer 1" xmlns="http://www.w3.org/2000/svg" xmlns:xlink="http://www.w3.org/1999/xlink">
    <title>high-five</title>
    <path d="M24 18.32v3.233c0 0.69-0.289 1.356-0.793 1.827-0.463 0.433-1.078 0.673-1.709 0.673-0.055 0-3.37-0.222-3.37-0.222C15.253 23.637 13 21.227 13 18.344V5.088c0-1.02 0.718-1.906 1.67-2.061 0.549-0.088 1.081 0.038 1.499 0.357 0.463 0.354 0.757 0.908 0.826 1.562l0.502 5.043c0.028 0.274-0.173 0.52-0.447 0.547-0.271 0.024-0.52-0.173-0.547-0.448l-0.502-5.04c-0.04-0.375-0.196-0.685-0.438-0.87-0.201-0.154-0.458-0.211-0.732-0.165-0.474 0.077-0.83 0.538-0.83 1.073v7.387c0.402-0.294 0.893-0.474 1.428-0.474 1.2 0 2.233 0.894 2.403 2.08l0.628 4.393c0.039 0.273-0.151 0.527-0.424 0.566-0.281 0.04-0.527-0.151-0.566-0.424l-0.628-4.393C16.741 13.513 16.147 13 15.429 13c-0.787 0-1.428 0.641-1.428 1.428v3.915c0 2.358 1.843 4.331 4.196 4.489l3.203 0.217c0.402 0.029 0.818-0.113 1.125-0.4s0.476-0.676 0.476-1.096V18.32c0-0.601-0.356-1.142-0.909-1.379l-2.288-0.98c-0.254-0.109-0.371-0.402-0.263-0.656 0.11-0.255 0.404-0.373 0.657-0.263l2.288 0.98c0.92 0.394 1.515 1.296 1.514 2.298zM9.33 0.026C8.783-0.062 8.25 0.065 7.831 0.383 7.368 0.737 7.074 1.291 7.005 1.949l-0.502 5.04C6.475 7.263 6.676 7.509 6.95 7.536 7.238 7.561 7.47 7.363 7.497 7.088l0.502-5.036c0.04-0.378 0.196-0.688 0.438-0.874 0.201-0.154 0.456-0.211 0.732-0.165 0.474 0.077 0.83 0.538 0.83 1.073v7.387C9.597 9.179 9.106 8.999 8.571 8.999c-1.2 0-2.233 0.894-2.403 2.08L5.54 15.472c-0.039 0.273 0.151 0.527 0.424 0.566 0.265 0.033 0.526-0.15 0.566-0.424l0.628-4.393C7.259 10.513 7.853 10 8.571 10c0.787 0 1.428 0.641 1.428 1.428v3.915c0 2.358-1.843 4.331-4.196 4.489L2.6 20.049c-0.404 0.026-0.817-0.113-1.125-0.4-0.307-0.287-0.476-0.676-0.476-1.096V15.32c0-0.601 0.356-1.142 0.909-1.379l2.288-0.98c0.254-0.109 0.371-0.402 0.263-0.656-0.11-0.255-0.406-0.371-0.657-0.263l-2.288 0.98c-0.92 0.395-1.515 1.297-1.515 2.298v3.233c0 0.69 0.289 1.356 0.793 1.827 0.463 0.433 1.078 0.673 1.709 0.673 0.055 0 3.37-0.222 3.37-0.222 2.875-0.194 5.128-2.604 5.128-5.487V2.087c0-1.02-0.718-1.906-1.669-2.061z" />
</svg>