<svg id="highlighter_Layer_1" viewBox="0 0 24 24" fill="currentColor" width="32" height="32" data-name="Layer 1" xmlns="http://www.w3.org/2000/svg" xmlns:xlink="http://www.w3.org/1999/xlink">
    <title>highlighter</title>
    <path d="M22.777 1.629 22.371 1.223c-1.543-1.543-4.042-1.629-5.691-0.198L3.923 12.211C2.701 13.3 2 14.864 2 16.503v4.79l-1.854 1.854c-0.195 0.195-0.195 0.512 0 0.707C0.244 23.952 0.372 24 0.5 24s0.256-0.049 0.354-0.146L2.708 22h4.789c1.638 0 3.202-0.701 4.295-1.926L22.978 7.319c1.431-1.648 1.343-4.147-0.201-5.69zM3 21v-4.497c0-0.634 0.132-1.253 0.37-1.825l5.952 5.952C8.749 20.869 8.131 21 7.497 21zM22.224 6.661 11.043 19.411c-0.245 0.274-0.52 0.514-0.816 0.721-9e-3-0.011-0.013-0.025-0.024-0.036l-6.3-6.299c-0.011-0.011-0.025-0.014-0.036-0.024 0.207-0.295 0.446-0.569 0.719-0.812L17.338 1.778c1.253-1.088 3.152-1.021 4.326 0.152l0.406 0.406c1.174 1.173 1.24 3.074 0.154 4.325z" />
</svg>