<svg id="highlighter_line_Layer_1" viewBox="0 0 24 24" fill="currentColor" width="32" height="32" data-name="Layer 1" xmlns="http://www.w3.org/2000/svg" xmlns:xlink="http://www.w3.org/1999/xlink">
    <title>highlighter-line</title>
    <path d="M7.5 21c1.64 0 3.2-0.7 4.3-1.93L21.98 7.32c1.43-1.65 1.34-4.15-0.2-5.69l-0.41-0.41c-1.54-1.54-4.04-1.63-5.69-0.2L3.92 11.21C2.7 12.3 2 13.86 2 15.5v4.79l-1.85 1.85c-0.2 0.2-0.2 0.51 0 0.71C0.25 22.95 0.38 23 0.5 23s0.26-0.05 0.35-0.15L2.7 21zM4.59 11.96 16.34 1.78c1.25-1.09 3.15-1.02 4.33 0.15l0.41 0.41c1.17 1.17 1.24 3.07 0.15 4.33L11.05 18.42c-0.24 0.27-0.51 0.51-0.81 0.72 0-0.01-0.02-0.02-0.03-0.03L3.9 12.8c0 0-0.02-0.02-0.04-0.03 0.21-0.29 0.44-0.56 0.73-0.81zM3.01 15.5c0-0.63 0.13-1.26 0.37-1.83l5.96 5.96C8.77 19.87 8.15 20 7.51 20H3zM24.01 23.5c0 0.28-0.22 0.5-0.5 0.5H4.5C4.22 24 4 23.78 4 23.5S4.22 23 4.5 23h19c0.28 0 0.5 0.22 0.51 0.5z" />
</svg>