<svg id="hill_rockslide_Layer_1" viewBox="0 0 24 24" fill="currentColor" width="32" height="32" data-name="Layer 1" xmlns="http://www.w3.org/2000/svg" xmlns:xlink="http://www.w3.org/1999/xlink">
    <title>hill-rockslide</title>
    <path d="M4.459 4.752C3.707 4 2.628 3.785 1.644 4.192 0.661 4.6 0.05 5.515 0.05 6.579V19.5c0 2.481 2.019 4.5 4.5 4.5h12.875c1.073 0 1.994-0.615 2.404-1.606s0.194-2.078-0.564-2.836zM18.904 22.01c-0.198 0.479-0.691 0.989-1.48 0.989H4.55c-1.93 0-3.5-1.57-3.5-3.5V6.579c0-0.78 0.505-1.267 0.978-1.462 0.578-0.227 1.213-0.16 1.725 0.343l14.805 14.805c0.558 0.559 0.545 1.268 0.346 1.745zM23.493 9.701 22.357 8.119c-0.504-0.701-1.321-1.12-2.186-1.12h-1.187c-0.721 0-1.422 0.296-1.926 0.812l-1.294 1.326c-0.493 0.505-0.765 1.173-0.765 1.879v0.403c0 0.707 0.272 1.374 0.765 1.879l0.868 0.89c0.504 0.515 1.206 0.811 1.925 0.811h2.092c0.926 0 1.775-0.467 2.271-1.248l0.659-1.037c0.592-0.933 0.558-2.116-0.086-3.013zM22.736 12.178l-0.659 1.037c-0.312 0.491-0.846 0.784-1.428 0.784h-2.092c-0.453 0-0.894-0.186-1.21-0.509L16.48 12.6c-0.31-0.318-0.481-0.737-0.481-1.181v-0.403c0-0.444 0.171-0.863 0.481-1.181l1.294-1.326c0.316-0.324 0.757-0.51 1.21-0.51h1.187c0.543 0 1.057 0.263 1.373 0.704l1.137 1.582c0.405 0.563 0.427 1.307 0.055 1.893zM8.314 5.472C8.642 5.808 9.1 6 9.569 6h1.626c0.603 0 1.157-0.304 1.48-0.813l0.646-1.017c0.386-0.608 0.364-1.379-0.057-1.964l-1.06-1.475c-0.329-0.458-0.861-0.73-1.424-0.73H9.934c-0.469 0-0.927 0.192-1.255 0.529L7.498 1.74C7.176 2.07 6.999 2.505 6.999 2.965v0.447c0 0.46 0.177 0.895 0.499 1.225zM8 2.964c0-0.198 0.076-0.385 0.214-0.526l1.181-1.21C9.537 1.083 9.733 1 9.935 1h0.846c0.242 0 0.471 0.117 0.612 0.314l1.06 1.475c0.181 0.251 0.19 0.583 0.024 0.845l-0.646 1.017c-0.139 0.219-0.377 0.35-0.637 0.35H9.568c-0.202 0-0.398-0.083-0.54-0.227L8.213 3.939C8.075 3.797 7.999 3.61 7.999 3.413zM17.309 3.603C17.556 3.855 17.899 4 18.252 4h0.94c0.454 0 0.87-0.229 1.112-0.611l0.333-0.525c0.29-0.457 0.273-1.036-0.042-1.475l-0.604-0.841C19.743 0.205 19.344 0 18.921 0h-0.426c-0.353 0-0.696 0.145-0.943 0.397l-0.701 0.719c-0.242 0.248-0.375 0.575-0.375 0.92v0.177c0 0.346 0.133 0.673 0.375 0.92zM17.476 2.037c0-0.083 0.032-0.163 0.09-0.222l0.701-0.718c0.06-0.061 0.143-0.096 0.228-0.096h0.426c0.102 0 0.199 0.05 0.258 0.132l0.604 0.841c0.076 0.105 0.08 0.246 0.01 0.355L19.46 2.854c-0.058 0.092-0.159 0.147-0.268 0.147h-0.94c-0.085 0-0.168-0.035-0.228-0.096l-0.458-0.469c-0.058-0.06-0.09-0.138-0.09-0.222z" />
</svg>