<svg id="hill_avalanche_Layer_1" viewBox="0 0 24 24" fill="currentColor" width="32" height="32" data-name="Layer 1" xmlns="http://www.w3.org/2000/svg" xmlns:xlink="http://www.w3.org/1999/xlink">
    <title>hill-avalanche</title>
    <path d="M3.892 4.685C3.227 4.021 2.276 3.831 1.408 4.191 0.54 4.55 1e-3 5.358 1e-3 6.297V19.5c0 2.481 2.019 4.5 4.5 4.5h13.244c0.933 0 1.733-0.535 2.091-1.396 0.356-0.862 0.169-1.807-0.491-2.467zM18.912 22.221C18.756 22.598 18.367 23 17.745 23H4.5C2.57 23 1 21.43 1 19.5V6.297c0-0.631 0.408-1.024 0.79-1.183 0.467-0.182 0.981-0.129 1.395 0.277l15.452 15.452c0.44 0.44 0.431 1 0.275 1.378zM24.001 13.5c0 0.935-0.364 1.813-1.025 2.475-1.301 1.358-3.649 1.358-4.949 0l-10.002-10c-1.358-1.302-1.358-3.647 0-4.949 1.111-1.111 2.819-1.336 4.171-0.584C12.761 0.152 13.379 0 14 0c1.868 0 3.477 1.315 3.885 3.115C19.685 3.523 21 5.132 21 7c0 2.206-1.794 4-4 4-0.276 0-0.5-0.224-0.5-0.5S16.724 10 17 10c1.654 0 3-1.346 3-3 0-1.492-1.118-2.793-2.61-2.958-0.954-0.106-1.879 0.192-2.532 0.859-0.193 0.197-0.51 0.201-0.707 8e-3s-0.201-0.51-8e-3-0.707c0.714-0.729 1.659-1.136 2.671-1.183-0.41-1.183-1.528-2.018-2.814-2.018-0.546 0-1.069 0.151-1.555 0.448-0.167 0.104-0.379 0.098-0.542-0.013-0.991-0.674-2.324-0.549-3.17 0.297-0.97 0.931-0.97 2.604 0 3.535l10 10c0.943 0.945 2.592 0.945 3.535 0 0.97-0.931 0.97-2.605 0-3.535-0.195-0.195-0.195-0.512 0-0.707s0.512-0.195 0.707 0c0.661 0.661 1.025 1.54 1.026 2.474z" />
</svg>