<svg id="hippie_Layer_1" viewBox="0 0 24 24" fill="currentColor" width="32" height="32" data-name="Layer 1" xmlns="http://www.w3.org/2000/svg" xmlns:xlink="http://www.w3.org/1999/xlink">
    <title>hippie</title>
    <path d="M5 8.5v7C5 15.776 4.776 16 4.5 16S4 15.776 4 15.5v-3H1v3C1 15.776 0.776 16 0.5 16S0 15.776 0 15.5v-7C0 8.224 0.224 8 0.5 8S1 8.224 1 8.5v3h3v-3C4 8.224 4.224 8 4.5 8S5 8.224 5 8.5zM6.5 8C6.224 8 6 8.224 6 8.5v7C6 15.776 6.224 16 6.5 16S7 15.776 7 15.5v-7C7 8.224 6.776 8 6.5 8zM18.5 8C18.224 8 18 8.224 18 8.5v7c0 0.276 0.224 0.5 0.5 0.5s0.5-0.224 0.5-0.5v-7C19 8.224 18.776 8 18.5 8zM12 10.5c0 1.379-1.122 2.5-2.5 2.5H9v2.5C9 15.776 8.776 16 8.5 16S8 15.776 8 15.5V9c0-0.552 0.449-1 1-1h0.5c1.378 0 2.5 1.121 2.5 2.5zM11 10.5C11 9.673 10.327 9 9.5 9H9v3h0.5c0.827 0 1.5-0.673 1.5-1.5zM17 10.5c0 1.379-1.122 2.5-2.5 2.5H14v2.5c0 0.276-0.224 0.5-0.5 0.5S13 15.776 13 15.5V9c0-0.552 0.449-1 1-1h0.5c1.378 0 2.5 1.121 2.5 2.5zM16 10.5C16 9.673 15.327 9 14.5 9H14v3h0.5c0.827 0 1.5-0.673 1.5-1.5zM23.5 12.5c0.276 0 0.5-0.224 0.5-0.5s-0.224-0.5-0.5-0.5H21V9h2.5C23.776 9 24 8.776 24 8.5S23.776 8 23.5 8H21c-0.551 0-1 0.448-1 1v6c0 0.552 0.449 1 1 1h2.5c0.276 0 0.5-0.224 0.5-0.5S23.776 15 23.5 15H21v-2.5z" />
</svg>