<svg id="hippo_Layer_1" viewBox="0 0 24 24" fill="currentColor" width="32" height="32" data-name="Layer 1" xmlns="http://www.w3.org/2000/svg" xmlns:xlink="http://www.w3.org/1999/xlink">
    <title>hippo</title>
    <path d="M19 10c0-0.552 0.448-1 1-1s1 0.448 1 1-0.448 1-1 1-1-0.448-1-1zM16 11c0.552 0 1-0.448 1-1s-0.448-1-1-1-1 0.448-1 1 0.448 1 1 1zM13.5 6.239V6H8.766C5.2 6 2.234 8.665 2.014 12.067c-0.161 2.477 1.073 4.793 3.218 6.044C5.712 18.391 6 18.875 6 19.405V21.5C6 22.327 6.673 23 7.5 23S9 22.327 9 21.5v-1c0-0.827 0.673-1.5 1.5-1.5h3c0.827 0 1.5 0.673 1.5 1.5v1c0 0.827 0.673 1.5 1.5 1.5s1.5-0.673 1.5-1.5v-2.083c0-0.536 0.291-1.027 0.777-1.312 1.433-0.838 2.481-2.169 2.953-3.748 0.079-0.265 0.355-0.414 0.622-0.336 0.265 0.079 0.415 0.357 0.336 0.622-0.544 1.822-1.753 3.358-3.406 4.325C19.105 19.072 19 19.239 19 19.417V21.5c0 1.378-1.122 2.5-2.5 2.5S14 22.878 14 21.5v-1c0-0.276-0.224-0.5-0.5-0.5h-3c-0.276 0-0.5 0.224-0.5 0.5v1c0 1.378-1.122 2.5-2.5 2.5S5 22.878 5 21.5v-2.095c0-0.17-0.102-0.331-0.271-0.43-1.057-0.617-1.908-1.466-2.538-2.45l-1.255 2.221C0.844 18.909 0.674 19 0.5 19c-0.083 0-0.168-0.021-0.246-0.064-0.24-0.136-0.325-0.441-0.189-0.682l1.568-2.776c-0.465-1.073-0.696-2.253-0.617-3.475 0.254-3.927 3.659-7.002 7.75-7.002h4.787c0.082-0.726 0.326-1.42 0.734-2.021C13.56 2.876 13 2.257 13 1.501c0-0.828 0.672-1.5 1.5-1.5s1.493 0.666 1.499 1.489c0.747-0.374 1.578-0.551 2.442-0.468 0.556 0.053 1.082 0.218 1.561 0.468 6e-3-0.823 0.674-1.489 1.499-1.489s1.5 0.672 1.5 1.5c0 0.776-0.591 1.406-1.346 1.484 0.525 0.768 0.846 1.692 0.846 2.687v0.33c0 0.145 0.054 0.276 0.143 0.35 0.941 0.78 1.443 1.973 1.344 3.19C23.822 11.578 22.031 13 19.632 13h-3.714c-2.032 0-3.748-1.519-3.905-3.458-0.105-1.291 0.46-2.532 1.487-3.303zM13.01 9.461C13.125 10.884 14.403 12 15.918 12h3.714c1.856 0 3.238-1.044 3.359-2.539 0.074-0.906-0.285-1.759-0.986-2.34-0.32-0.266-0.504-0.674-0.504-1.12v-0.33c0-1.881-1.386-3.486-3.154-3.656-0.117-0.011-0.233-0.017-0.349-0.017-0.874 0-1.698 0.317-2.351 0.91-0.728 0.663-1.146 1.606-1.146 2.59v1c0 0.17-0.086 0.329-0.23 0.421-0.86 0.552-1.343 1.526-1.261 2.542z" />
</svg>