<svg id="hockey_puck_Layer_1" viewBox="0 0 24 24" fill="currentColor" width="32" height="32" data-name="Layer 1" xmlns="http://www.w3.org/2000/svg" xmlns:xlink="http://www.w3.org/1999/xlink">
    <title>hockey-puck</title>
    <path d="M12 0C5.383 0 0 3.813 0 8.5v7.183C0 20.289 5.383 24 12 24s12-3.711 12-8.317V8.5C24 3.813 18.617 0 12 0zM12 1c6.065 0 11 3.364 11 7.5S18.065 16 12 16 1 12.636 1 8.5 5.935 1 12 1zM23 15.683c0 4.055-4.935 7.353-11 7.353S1 19.738 1 15.683v-3.788C2.854 14.897 7.086 17 12 17s9.146-2.103 11-5.105z" />
</svg>