<svg id="hockey_sticks_Layer_1" viewBox="0 0 24 24" fill="currentColor" width="32" height="32" data-name="Layer 1" xmlns="http://www.w3.org/2000/svg" xmlns:xlink="http://www.w3.org/1999/xlink">
    <title>hockey-sticks</title>
    <path d="M19.608 14.06 23.896 3.054c0.22-0.725 0.088-1.489-0.363-2.097S22.389 0 21.633 0c-1.103 0-2.06 0.705-2.387 1.756l-3.473 9.052c-0.575 1.891-2.278 3.168-4.25 3.191-1.484-0.357-2.748-1.604-3.242-3.225l-3.454-9C4.505 0.713 3.543 0 2.434 0c-0.757 0-1.449 0.349-1.9 0.957S-0.05 2.33 0.179 3.081L4.21 14.092c-2.215 0.417-3.976 2.208-4.187 4.419-0.136 1.429 0.317 2.797 1.276 3.852C2.245 23.404 3.594 24 5 24h4.769c0.55 0 1.086-0.048 1.606-0.142 0.014 4e-3 0.028 7e-3 0.042 9e-3 0.521 0.088 1.054 0.132 1.583 0.132h6c1.405 0 2.754-0.597 3.7-1.637 0.959-1.055 1.412-2.423 1.276-3.853-0.217-2.273-2.031-4.099-4.368-4.449zM1.337 1.552C1.597 1.201 1.997 1 2.434 1 3.1 1 3.676 1.428 3.881 2.098l3.455 9C7.69 12.267 8.402 13.284 9.314 14H5.241L1.127 2.764C1 2.346 1.077 1.904 1.337 1.552zM5 23c-1.125 0-2.204-0.478-2.96-1.31-0.768-0.844-1.13-1.939-1.021-3.084 0.193-2.021 2.027-3.605 4.175-3.605h6.274c2.439 0 4.554-1.568 5.251-3.868 0 0 3.475-9.056 3.479-9.068 0.193-0.636 0.771-1.064 1.436-1.064 0.437 0 0.837 0.202 1.097 0.553 0.261 0.351 0.337 0.792 0.223 1.174l-5.55 14.243c-1.129 3.72-4.054 6.03-7.633 6.03zM21.96 21.69C21.203 22.523 20.124 23 19 23h-5.138c2.091-1.112 3.695-3.101 4.484-5.704l0.886-2.275c1.996 0.197 3.568 1.698 3.747 3.583 0.109 1.146-0.253 2.241-1.019 3.086z" />
</svg>