<svg id="holding_hand_revenue_Layer_1" viewBox="0 0 24 24" fill="currentColor" width="32" height="32" data-name="Layer 1" xmlns="http://www.w3.org/2000/svg" xmlns:xlink="http://www.w3.org/1999/xlink">
    <title>holding-hand-revenue</title>
    <path d="M2.998 9h9c0.827 0 1.5-0.673 1.5-1.5v-4c0-0.827-0.673-1.5-1.5-1.5s-1.5 0.673-1.5 1.5V8h-1.5V1.5c0-0.827-0.673-1.5-1.5-1.5s-1.5 0.673-1.5 1.5V8h-1.5V4.5c0-0.827-0.673-1.5-1.5-1.5s-1.5 0.673-1.5 1.5v3c0 0.827 0.673 1.5 1.5 1.5zM11.498 3.5c0-0.276 0.224-0.5 0.5-0.5s0.5 0.224 0.5 0.5v4c0 0.276-0.224 0.5-0.5 0.5h-0.5zM6.998 1.5c0-0.276 0.224-0.5 0.5-0.5s0.5 0.224 0.5 0.5V8h-1zM2.498 4.5c0-0.276 0.224-0.5 0.5-0.5s0.5 0.224 0.5 0.5V8h-0.5c-0.276 0-0.5-0.224-0.5-0.5zM23.181 9.655c-0.497-0.452-1.143-0.674-1.809-0.652-0.67 0.032-1.288 0.322-1.739 0.818l-3.732 4.102c-0.314-1.108-1.335-1.922-2.542-1.922H3.5c-1.93 0-3.5 1.57-3.5 3.5v5c0 1.93 1.57 3.5 3.5 3.5h5.965c2.707 0 5.292-1.159 7.093-3.181l6.806-7.639c0.91-1.022 0.828-2.604-0.183-3.526zM22.618 12.516l-6.806 7.639c-1.611 1.809-3.924 2.846-6.346 2.846H3.5c-1.378 0-2.5-1.122-2.5-2.5v-5c0-1.378 1.122-2.5 2.5-2.5h9.858c0.905 0 1.642 0.737 1.642 1.642 0 0.812-0.606 1.511-1.399 1.624L7.44 17.004c-0.274 0.033-0.47 0.282-0.437 0.556 0.033 0.273 0.271 0.472 0.556 0.437l6.172-0.739c1.021-0.146 1.845-0.878 2.146-1.824l4.495-4.94c0.272-0.298 0.644-0.473 1.047-0.492 0.398-0.013 0.79 0.12 1.088 0.393 0.608 0.555 0.658 1.506 0.111 2.121z" />
</svg>