<svg id="holding_hand_gear_Layer_1" viewBox="0 0 24 24" fill="currentColor" width="32" height="32" data-name="Layer 1" xmlns="http://www.w3.org/2000/svg" xmlns:xlink="http://www.w3.org/1999/xlink">
    <title>holding-hand-gear</title>
    <path d="M10.5 6c0-1.103-0.897-2-2-2s-2 0.897-2 2 0.897 2 2 2 2-0.897 2-2zM8.5 7c-0.552 0-1-0.448-1-1s0.448-1 1-1 1 0.448 1 1-0.448 1-1 1zM3.86 6.987 4.093 6.849C4.03 6.55 3.999 6.274 3.999 5.999s0.03-0.551 0.095-0.851L3.86 5.01C3.515 4.808 3.269 4.483 3.169 4.095 3.068 3.706 3.125 3.303 3.328 2.957 3.53 2.612 3.855 2.366 4.243 2.266 4.632 2.163 5.035 2.221 5.382 2.425l0.223 0.131C6.012 2.216 6.486 1.95 7.001 1.77V1.499c0-0.827 0.673-1.5 1.5-1.5s1.5 0.673 1.5 1.5V1.77c0.515 0.18 0.988 0.446 1.396 0.786l0.223-0.131c0.347-0.204 0.749-0.262 1.139-0.159 0.388 0.101 0.713 0.347 0.916 0.692 0.202 0.345 0.259 0.748 0.158 1.137-0.101 0.388-0.347 0.713-0.692 0.916l-0.233 0.137c0.064 0.3 0.095 0.576 0.095 0.851s-0.03 0.551-0.094 0.85l0.232 0.137c0.346 0.204 0.592 0.529 0.692 0.917 0.101 0.389 0.044 0.792-0.159 1.138-0.202 0.345-0.527 0.591-0.915 0.691-0.39 0.104-0.792 0.045-1.139-0.159l-0.223-0.131c-0.407 0.34-0.881 0.606-1.396 0.786v0.271c0 0.276-0.224 0.5-0.5 0.5s-0.5-0.224-0.5-0.5V9.857c0-0.228 0.154-0.427 0.375-0.484 0.619-0.16 1.173-0.472 1.604-0.903 0.16-0.161 0.411-0.192 0.607-0.077l0.54 0.318c0.115 0.067 0.248 0.086 0.379 0.053 0.13-0.033 0.237-0.115 0.305-0.23s0.087-0.25 0.054-0.379c-0.033-0.13-0.115-0.238-0.231-0.307l-0.555-0.325c-0.196-0.116-0.29-0.35-0.228-0.568 0.103-0.361 0.15-0.665 0.15-0.955s-0.048-0.594-0.15-0.955c-0.062-0.219 0.03-0.452 0.227-0.567l0.556-0.327c0.116-0.068 0.198-0.177 0.231-0.306s0.015-0.264-0.053-0.378c-0.068-0.116-0.176-0.198-0.306-0.231s-0.265-0.015-0.379 0.053l-0.54 0.318C11.39 3.722 11.14 3.691 10.98 3.53 10.549 3.098 9.996 2.787 9.376 2.627 9.155 2.569 9.001 2.37 9.001 2.143V1.501c0-0.275-0.225-0.5-0.5-0.5s-0.5 0.225-0.5 0.5v0.642c0 0.228-0.154 0.427-0.375 0.484-0.619 0.16-1.173 0.472-1.604 0.903-0.16 0.162-0.41 0.193-0.607 0.077l-0.54-0.318C4.76 3.222 4.626 3.202 4.496 3.236c-0.13 0.033-0.237 0.115-0.305 0.23s-0.087 0.25-0.054 0.379 0.115 0.237 0.23 0.305l0.557 0.328C5.12 4.593 5.213 4.827 5.151 5.045 5.048 5.406 5.001 5.71 5.001 6s0.048 0.594 0.15 0.955C5.213 7.174 5.12 7.407 4.923 7.523L4.367 7.849C4.252 7.916 4.17 8.025 4.137 8.155 4.104 8.284 4.122 8.419 4.19 8.533 4.258 8.649 4.366 8.731 4.496 8.764 4.628 8.798 4.762 8.779 4.875 8.711l0.54-0.318C5.61 8.277 5.861 8.308 6.022 8.47 6.453 8.902 7.006 9.213 7.626 9.373 7.847 9.431 8.001 9.63 8.001 9.857v0.642c0 0.276-0.224 0.5-0.5 0.5s-0.5-0.224-0.5-0.5v-0.271c-0.515-0.18-0.988-0.446-1.396-0.786L5.382 9.573c-0.347 0.204-0.75 0.263-1.139 0.159C3.855 9.631 3.53 9.385 3.327 9.04 3.125 8.695 3.068 8.292 3.169 7.903 3.27 7.515 3.516 7.19 3.86 6.987zM23.18 9.654c-0.497-0.451-1.146-0.683-1.809-0.651-0.67 0.031-1.288 0.321-1.739 0.817L15.9 13.923C15.586 12.815 14.565 12 13.357 12H3.5C1.57 12 0 13.57 0 15.5v5C0 22.43 1.57 24 3.5 24h5.965c2.706 0 5.291-1.159 7.093-3.18l6.806-7.64c0.911-1.021 0.829-2.604-0.184-3.526zM22.617 12.514l-6.806 7.64C14.199 21.963 11.885 23 9.464 23H3.5C2.121 23 1 21.879 1 20.5v-5C1 14.121 2.121 13 3.5 13h9.857C14.262 13 15 13.737 15 14.643c0 0.812-0.605 1.511-1.398 1.624l-6.161 0.737c-0.274 0.032-0.47 0.281-0.437 0.556 0.032 0.274 0.282 0.477 0.556 0.437l6.172-0.738c1.022-0.146 1.846-0.879 2.146-1.824l4.496-4.939c0.271-0.299 0.643-0.474 1.046-0.492 0.402-0.019 0.79 0.12 1.088 0.392 0.609 0.556 0.658 1.507 0.109 2.118z" />
</svg>