<svg id="holding_hand_nft_Layer_1" viewBox="0 0 24 24" fill="currentColor" width="32" height="32" data-name="Layer 1" xmlns="http://www.w3.org/2000/svg" xmlns:xlink="http://www.w3.org/1999/xlink">
    <title>holding-hand-nft</title>
    <path d="M12 9.5V6h-0.5C11.224 6 11 5.776 11 5.5S11.224 5 11.5 5h2C13.776 5 14 5.224 14 5.5S13.776 6 13.5 6H13v3.5c0 0.276-0.224 0.5-0.5 0.5S12 9.776 12 9.5zM9.5 6C9.776 6 10 5.776 10 5.5S9.776 5 9.5 5H8C7.724 5 7.5 5.224 7.5 5.5v4C7.5 9.776 7.724 10 8 10s0.5-0.224 0.5-0.5V8h1C9.776 8 10 7.776 10 7.5S9.776 7 9.5 7h-1V6zM5.5 5.5v2.48L4.417 5.45C4.14 4.717 2.972 4.948 3 5.734V9.5C3 9.776 3.224 10 3.5 10S4 9.776 4 9.5V7.016l1.082 2.529c0.281 0.739 1.444 0.5 1.418-0.283V5.499c0-0.276-0.224-0.5-0.5-0.5S5.5 5.223 5.5 5.5zM23.364 13.181 16.558 20.82c-1.801 2.021-4.387 3.181-7.093 3.181H3.5c-1.93 0-3.5-1.57-3.5-3.5v-5c0-1.93 1.57-3.5 3.5-3.5h9.858c1.208 0 2.229 0.814 2.542 1.922l3.732-4.102c0.888-1.019 2.564-1.089 3.548-0.166 1.011 0.922 1.093 2.504 0.184 3.526zM22.507 10.394c-0.593-0.556-1.6-0.513-2.135 0.1l-4.495 4.94c-0.301 0.945-1.124 1.678-2.146 1.824l-6.172 0.739c-0.285 0.035-0.523-0.164-0.556-0.437-0.033-0.274 0.163-0.523 0.437-0.556l6.161-0.737C14.393 16.154 15 15.455 15 14.643c0-0.905-0.737-1.642-1.642-1.642H3.5c-1.378 0-2.5 1.122-2.5 2.5v5c0 1.378 1.122 2.5 2.5 2.5h5.965c2.422 0 4.735-1.037 6.346-2.846l6.806-7.639c0.548-0.615 0.498-1.567-0.11-2.122zM1.5 11C1.776 11 2 10.776 2 10.5v-5c0-0.948 0.55-1.829 1.402-2.246l4-1.956c0.698-0.342 1.498-0.342 2.196 0l4 1.956C14.45 3.671 15 4.552 15 5.5v5c0 0.276 0.224 0.5 0.5 0.5s0.5-0.224 0.5-0.5v-5c0-1.327-0.771-2.561-1.962-3.144l-4-1.956C9.06-0.078 7.94-0.078 6.963 0.4L2.962 2.356C1.77 2.939 1 4.173 1 5.5v5C1 10.776 1.224 11 1.5 11z" />
</svg>