<svg id="holding_hand_delivery_Layer_1" viewBox="0 0 24 24" fill="currentColor" width="32" height="32" data-name="Layer 1" xmlns="http://www.w3.org/2000/svg" xmlns:xlink="http://www.w3.org/1999/xlink">
    <title>holding-hand-delivery</title>
    <path d="M20.5 5C21.879 5 23 3.878 23 2.5S21.879 0 20.5 0 18 1.122 18 2.5 19.121 5 20.5 5zM20.5 1C21.327 1 22 1.673 22 2.5S21.327 4 20.5 4 19 3.327 19 2.5 19.673 1 20.5 1zM10 2.5C10 2.224 10.224 2 10.5 2h3.45l-0.992-0.878c-0.206-0.185-0.223-0.5-0.038-0.706 0.186-0.206 0.501-0.222 0.706-0.038l1.551 1.393c0.406 0.387 0.408 1.077 5e-3 1.466l-1.557 1.387c-0.207 0.183-0.522 0.166-0.707-0.041-0.184-0.206-0.165-0.522 0.041-0.706l0.984-0.876H10.5c-0.276 0-0.5-0.224-0.5-0.501zM9.461 7.5C9.505 7.239 9.576 6.959 9.78 6.774l1.555-1.396c0.204-0.185 0.521-0.168 0.706 0.038s0.167 0.521-0.038 0.706L11.025 7h3.474c0.276 0 0.5 0.224 0.5 0.5S14.775 8 14.499 8h-3.495l0.997 0.876c0.206 0.184 0.225 0.5 0.041 0.706-0.184 0.207-0.501 0.224-0.706 0.041L9.785 8.242C9.578 8.047 9.495 7.772 9.461 7.5zM17.032 8.325C17.553 6.934 18.946 6 20.5 6s2.947 0.934 3.468 2.325c0.098 0.258-0.034 0.546-0.292 0.644-0.059 0.021-0.117 0.032-0.176 0.032-0.202 0-0.393-0.124-0.468-0.325-0.376-1.002-1.394-1.675-2.532-1.675s-2.156 0.673-2.532 1.675c-0.098 0.259-0.384 0.389-0.644 0.293-0.258-0.097-0.39-0.385-0.292-0.644zM2.5 9h3C6.878 9 8 7.878 8 6.5v-3C8 2.122 6.878 1 5.5 1h-3C1.122 1 0 2.122 0 3.5v3C0 7.878 1.122 9 2.5 9zM1 3.5C1 2.673 1.673 2 2.5 2h3C6.327 2 7 2.673 7 3.5v3C7 7.327 6.327 8 5.5 8h-3C1.673 8 1 7.327 1 6.5zM2.5 3.5C2.5 3.224 2.724 3 3 3h2c0.276 0 0.5 0.224 0.5 0.5S5.276 4 5 4H3C2.724 4 2.5 3.776 2.5 3.5zM23.181 11.655c1.012 0.922 1.094 2.504 0.183 3.526l-7.903 8.716c-0.186 0.205-0.502 0.219-0.706 0.035-0.204-0.186-0.22-0.502-0.034-0.707l7.9-8.713c0.545-0.612 0.496-1.563-0.113-2.118-0.588-0.557-1.601-0.513-2.134 0.1 0 0-4.507 4.951-4.509 4.953-0.305 0.938-1.116 1.666-2.132 1.811L7.56 19.997c-0.282 0.037-0.523-0.163-0.556-0.437s0.163-0.523 0.437-0.556l6.161-0.737C14.394 18.154 15 17.455 15 16.643c0-0.905-0.737-1.642-1.643-1.642H3.5c-1.378 0-2.5 1.122-2.5 2.5v6c0 0.276-0.224 0.5-0.5 0.5S0 23.777 0 23.501v-6c0-1.93 1.57-3.5 3.5-3.5h9.857c1.21 0 2.221 0.822 2.534 1.933l3.742-4.112c0.888-1.019 2.566-1.091 3.548-0.167z" />
</svg>