<svg id="holding_hand_brain_Layer_1" viewBox="0 0 24 24" fill="currentColor" width="32" height="32" data-name="Layer 1" xmlns="http://www.w3.org/2000/svg" xmlns:xlink="http://www.w3.org/1999/xlink">
    <title>holding-hand-brain</title>
    <path d="M5.5 9C6.058 9 6.576 8.805 7 8.48V10c0 0.276 0.224 0.5 0.5 0.5S8 10.276 8 10V7.979C8.875 7.994 9.66 7.64 10.229 7H12.5C13.879 7 15 5.879 15 4.5c0-1.053-0.646-1.97-1.627-2.333-0.661-0.856-1.706-1.326-2.85-1.123C10.059 0.392 9.315 0 8.5 0 7.691 0 6.934 0.4 6.467 1.06 5.044 1.314 4 2.538 4 4 4 4.156 4.015 4.312 4.044 4.477 3.392 4.941 3 5.685 3 6.5 3 7.879 4.121 9 5.5 9zM4.838 5.163c0.219-0.108 0.327-0.358 0.258-0.592-0.394-1.193 0.479-2.444 1.717-2.55 0.162-0.016 0.308-0.11 0.388-0.252 0.268-0.475 0.766-0.77 1.3-0.77 0.569 0 1.081 0.321 1.337 0.838 0.108 0.219 0.355 0.324 0.592 0.258 0.84-0.273 1.731 0.066 2.222 0.777 0.065 0.095 0.161 0.165 0.271 0.197 0.645 0.19 1.078 0.765 1.078 1.43 0 0.827-0.673 1.5-1.5 1.5H9.993c-0.157 0-0.306 0.074-0.399 0.199C9.087 6.867 8.243 7.165 7.43 6.903 7.197 6.837 6.947 6.942 6.838 7.161 6.582 7.678 6.07 7.999 5.501 7.999c-0.827 0-1.5-0.673-1.5-1.5 0-0.569 0.321-1.081 0.837-1.336zM23.181 9.654c-0.986-0.928-2.658-0.851-3.548 0.166l-3.732 4.103C15.587 12.815 14.566 12 13.358 12H3.5C1.57 12 0 13.57 0 15.5v5C0 22.43 1.57 24 3.5 24h5.965c2.706 0 5.291-1.159 7.093-3.18l6.806-7.64c0.911-1.021 0.829-2.604-0.183-3.526zM22.618 12.514l-6.806 7.64C14.2 21.963 11.886 23 9.465 23H3.5C2.121 23 1 21.879 1 20.5v-5C1 14.121 2.121 13 3.5 13h9.857C14.262 13 15 13.737 15 14.643c0 0.812-0.605 1.511-1.398 1.624l-6.161 0.737c-0.274 0.032-0.47 0.281-0.437 0.556 0.032 0.274 0.282 0.477 0.556 0.437l6.172-0.738c1.022-0.146 1.846-0.879 2.146-1.824l4.496-4.939c0.535-0.613 1.541-0.659 2.134-0.101 0.609 0.556 0.658 1.507 0.11 2.119z" />
</svg>