<svg id="holding_hand_pizza_box_Layer_1" viewBox="0 0 24 24" fill="currentColor" width="32" height="32" data-name="Layer 1" xmlns="http://www.w3.org/2000/svg" xmlns:xlink="http://www.w3.org/1999/xlink">
    <title>holding-hand-pizza-box</title>
    <path d="M20 0H4C1.794 0 0 1.794 0 4v3c0 2.206 1.794 4 4 4h16c2.206 0 4-1.794 4-4V4c0-2.206-1.794-4-4-4zM14.908 1c-0.207 0.581-0.757 1-1.408 1h-3C9.849 2 9.299 1.581 9.092 1zM1 4c0-1.654 1.346-3 3-3h4.051C8.283 2.14 9.293 3 10.5 3h3c1.208 0 2.217-0.86 2.449-2H20c1.654 0 3 1.346 3 3v1H1zM14.908 6c-0.207 0.581-0.757 1-1.408 1h-3C9.849 7 9.299 6.581 9.092 6zM20 10H4c-1.654 0-3-1.346-3-3V6h7.051C8.283 7.14 9.293 8 10.5 8h3c1.208 0 2.217-0.86 2.449-2H23v1c0 1.654-1.346 3-3 3zM24 23.5c0 0.276-0.224 0.5-0.5 0.5S23 23.776 23 23.5c0-5.238-4.262-9.5-9.5-9.5h-2.857C9.738 14 9 14.737 9 15.643c0 0.812 0.605 1.511 1.409 1.625l5.655 0.736c0.274 0.036 0.467 0.287 0.432 0.561-0.036 0.273-0.29 0.47-0.561 0.432l-5.661-0.737c-0.425-0.061-0.809-0.229-1.142-0.464L3.301 14.22c-0.684-0.437-1.668-0.203-2.077 0.5-0.431 0.703-0.212 1.631 0.486 2.068l7.595 4.767c1.516 0.952 3.262 1.454 5.052 1.454 0.044 0 1.096-8e-3 1.143-8e-3 0.274 0 0.498 0.222 0.5 0.496 2e-3 0.276-0.221 0.502-0.496 0.504-0.048 0-1.101 8e-3-1.146 8e-3-1.979 0-3.909-0.555-5.584-1.606L1.18 17.635c-1.161-0.728-1.524-2.27-0.809-3.438 0.68-1.167 2.318-1.557 3.454-0.831l4.203 2.578C8.016 15.844 8 15.745 8 15.642c0-1.457 1.186-2.643 2.643-2.643H13.5c5.79 0 10.5 4.71 10.5 10.501z" />
</svg>