<svg id="holding_hand_key_Layer_1" viewBox="0 0 24 24" fill="currentColor" width="32" height="32" data-name="Layer 1" xmlns="http://www.w3.org/2000/svg" xmlns:xlink="http://www.w3.org/1999/xlink">
    <title>holding-hand-key</title>
    <path d="M23.181 9.655c-0.982-0.924-2.66-0.853-3.548 0.166l-3.732 4.102c-0.314-1.108-1.335-1.922-2.543-1.922H3.5c-1.93 0-3.5 1.57-3.5 3.5v5c0 1.93 1.57 3.5 3.5 3.5h5.965c2.707 0 5.292-1.159 7.093-3.181l6.806-7.639c0.911-1.022 0.829-2.604-0.183-3.526zM22.618 12.516l-6.806 7.639c-1.611 1.809-3.925 2.846-6.347 2.846H3.5c-1.379 0-2.5-1.122-2.5-2.5v-5c0-1.378 1.121-2.5 2.5-2.5h9.857c0.905 0 1.643 0.737 1.643 1.642 0 0.812-0.606 1.511-1.398 1.624l-6.161 0.737c-0.274 0.033-0.47 0.282-0.437 0.556 0.032 0.274 0.282 0.47 0.556 0.437l6.173-0.739c1.021-0.146 1.844-0.878 2.145-1.824l4.496-4.94c0.535-0.613 1.541-0.656 2.134-0.1 0.609 0.555 0.658 1.506 0.11 2.122zM13 5c0-0.552 0.448-1 1-1s1 0.448 1 1-0.448 1-1 1-1-0.448-1-1zM1.062 6.475C1.723 7.136 2.602 7.5 3.537 7.5H8.69c0.896 1.55 2.521 2.5 4.311 2.5 2.757 0 5-2.243 5-5S15.757 0 13 0c-1.79 0-3.414 0.95-4.311 2.5h-0.87c-0.547 0-1.076 0.228-1.452 0.625L5.94 3.576 5.596 3.233c-0.372-0.389-1.043-0.389-1.415 0L3.474 3.94 2.767 3.232c-0.391-0.39-1.023-0.39-1.414 0l-1.06 1.061c-0.39 0.39-0.39 1.024 0 1.414zM2.061 3.939 3.122 5c0.186 0.194 0.521 0.194 0.707 0L4.89 3.94 5.598 4.647c0.186 0.198 0.533 0.192 0.717-0.01l0.78-0.824c0.188-0.199 0.452-0.312 0.726-0.312H8.99c0.189 0 0.362-0.107 0.447-0.276 0.686-1.372 2.052-2.224 3.564-2.224 2.206 0 4 1.794 4 4s-1.794 4-4 4c-1.513 0-2.879-0.852-3.564-2.224C9.352 6.608 9.179 6.501 8.99 6.501H3.536c-0.668 0-1.296-0.26-1.768-0.732L0.999 5.001z" />
</svg>