<svg id="holly_berry_Layer_1" viewBox="0 0 24 24" fill="currentColor" width="32" height="32" data-name="Layer 1" xmlns="http://www.w3.org/2000/svg" xmlns:xlink="http://www.w3.org/1999/xlink">
    <title>holly-berry</title>
    <path d="M23.861 15.552c-0.224-0.494-0.68-0.83-1.218-0.896-0.836-0.104-2.104-0.663-2.715-1.196-0.941-0.823-1.399-1.628-1.663-2.2 0.152-0.391 0.235-0.816 0.235-1.26 0-1.93-1.57-3.5-3.5-3.5-0.044 0-0.088 1e-3-0.131 3e-3C15.267 5.935 15.5 5.245 15.5 4.5 15.5 2.57 13.93 1 12 1S8.5 2.57 8.5 4.5c0 0.744 0.234 1.435 0.631 2.003C9.087 6.501 9.044 6.5 9 6.5 7.07 6.5 5.5 8.07 5.5 10c0 0.473 0.094 0.924 0.265 1.336-0.319 0.7-0.749 1.483-1.581 2.211-0.539 0.471-1.86 0.99-2.827 1.11-0.539 0.066-0.994 0.402-1.218 0.896-0.223 0.493-0.175 1.054 0.128 1.5 0.554 0.817 0.807 1.488 0.807 1.766 0 0.457-0.178 1.13-0.5 1.897-0.207 0.491-0.104 1.035 0.267 1.418 0.37 0.383 0.91 0.502 1.406 0.312 0.663-0.254 1.412-0.513 1.941-0.513 0.467 0 1.056 0.261 1.704 0.756 0.262 0.2 0.573 0.303 0.888 0.303 0.175 0 0.351-0.032 0.52-0.097 0.473-0.181 0.812-0.589 0.907-1.091 0.227-1.194 0.58-2.059 1.02-2.501 0.796-0.799 1.705-1.336 2.775-1.641 1.07 0.305 1.979 0.842 2.774 1.64 0.44 0.443 0.793 1.308 1.02 2.502 0.095 0.502 0.435 0.91 0.907 1.091 0.169 0.065 0.345 0.097 0.52 0.097 0.315 0 0.626-0.104 0.888-0.303 0.647-0.495 1.236-0.756 1.703-0.756 0.53 0 1.278 0.259 1.941 0.513 0.498 0.19 1.036 0.071 1.406-0.312 0.372-0.383 0.474-0.927 0.267-1.418-0.323-0.767-0.5-1.441-0.5-1.897 0-0.278 0.252-0.949 0.807-1.766 0.304-0.447 0.352-1.008 0.126-1.501zM17.5 10c0 1.378-1.122 2.5-2.5 2.5s-2.5-1.122-2.5-2.5 1.122-2.5 2.5-2.5 2.5 1.122 2.5 2.5zM12 2c1.378 0 2.5 1.122 2.5 2.5S13.378 7 12 7 9.5 5.878 9.5 4.5 10.622 2 12 2zM9 7.5c1.378 0 2.5 1.122 2.5 2.5s-1.122 2.5-2.5 2.5c-0.979 0-1.828-0.566-2.238-1.387-2e-3-4e-3-4e-3-7e-3-6e-3-0.011C6.592 10.769 6.499 10.395 6.499 10 6.499 8.621 7.621 7.5 9 7.5zM8.517 18.597c-0.59 0.594-1.025 1.61-1.293 3.021-0.031 0.162-0.134 0.287-0.283 0.344-0.15 0.055-0.312 0.032-0.442-0.068-0.835-0.638-1.612-0.961-2.311-0.961-0.691 0-1.513 0.278-2.299 0.58-0.17 0.063-0.287-0.03-0.33-0.074s-0.135-0.165-0.063-0.334c0.264-0.627 0.579-1.533 0.579-2.285 0-0.798-0.685-1.894-0.979-2.328-0.153-0.225-0.083-0.442-0.045-0.525 0.038-0.084 0.156-0.283 0.431-0.317 1.02-0.126 2.594-0.678 3.362-1.349 0.726-0.634 1.193-1.307 1.548-1.97 0.642 0.718 1.574 1.171 2.611 1.171 0.033 0 0.065 0 0.098-1e-3l-3.937 3.634c-0.106 0.098-0.161 0.232-0.161 0.367 0 0.122 0.044 0.243 0.133 0.34 0.098 0.106 0.232 0.161 0.367 0.161 0.122 0 0.243-0.044 0.339-0.133l5.661-5.225v4.125c-1.141 0.362-2.12 0.962-2.986 1.827zM22.906 16.492c-0.294 0.434-0.979 1.529-0.979 2.328 0 0.752 0.314 1.658 0.579 2.285 0.071 0.169-0.021 0.29-0.063 0.334s-0.159 0.138-0.33 0.074c-0.786-0.301-1.608-0.58-2.299-0.58-0.698 0-1.476 0.323-2.31 0.961-0.132 0.1-0.293 0.123-0.443 0.068-0.149-0.057-0.252-0.183-0.283-0.344-0.268-1.411-0.703-2.427-1.294-3.021-0.863-0.866-1.842-1.467-2.983-1.829v-4.125l5.661 5.225c0.096 0.089 0.218 0.133 0.339 0.133 0.135 0 0.269-0.054 0.367-0.161 0.089-0.097 0.133-0.218 0.133-0.34 0-0.134-0.054-0.269-0.161-0.367l-3.937-3.634c0.032 0 0.065 1e-3 0.098 1e-3 1.065 0 2.02-0.478 2.662-1.23 0.415 0.727 0.938 1.357 1.608 1.943 0.771 0.675 2.199 1.305 3.25 1.436 0.274 0.034 0.393 0.233 0.431 0.317 0.038 0.083 0.108 0.3-0.046 0.526z" />
</svg>