<svg id="home_robot_Layer_1" viewBox="0 0 24 24" fill="currentColor" width="32" height="32" data-name="Layer 1" xmlns="http://www.w3.org/2000/svg" xmlns:xlink="http://www.w3.org/1999/xlink">
    <title>home-robot</title>
    <path d="M11 15c0 0.552-0.448 1-1 1s-1-0.448-1-1 0.448-1 1-1 1 0.448 1 1zM14 14c-0.552 0-1 0.448-1 1s0.448 1 1 1 1-0.448 1-1-0.448-1-1-1zM19 14.5v1c0 0.667-0.44 1.226-1.043 1.421C17.746 18.65 16.285 20 14.5 20h-5c-1.785 0-3.246-1.349-3.457-3.079C5.44 16.726 5 16.166 5 15.5v-1c0-0.667 0.44-1.226 1.043-1.421C6.254 11.35 7.715 10 9.5 10h2V8.5C11.5 8.224 11.724 8 12 8s0.5 0.224 0.5 0.5V10h2c1.785 0 3.246 1.349 3.457 3.079C18.56 13.274 19 13.834 19 14.5zM17 16.5v-3c0-1.379-1.122-2.5-2.5-2.5h-5C8.122 11 7 12.121 7 13.5v3C7 17.879 8.122 19 9.5 19h5c1.378 0 2.5-1.121 2.5-2.5zM24 9.561V19.5c0 2.481-2.019 4.5-4.5 4.5h-15C2.019 24 0 21.981 0 19.5V9.561c0-1.497 0.741-2.892 1.983-3.729l7.5-5.061c1.53-1.033 3.506-1.032 5.034 0l7.5 5.061C23.259 6.67 24 8.064 24 9.561zM23 9.561c0-1.164-0.577-2.249-1.542-2.901l-7.5-5.061C13.363 1.198 12.682 0.997 12 0.997s-1.363 0.2-1.958 0.602l-7.5 5.06C1.576 7.311 1 8.396 1 9.56v9.939c0 1.93 1.57 3.5 3.5 3.5h15c1.93 0 3.5-1.57 3.5-3.5z" />
</svg>