<svg id="home_control_app_Layer_1" viewBox="0 0 24 24" fill="currentColor" width="32" height="32" data-name="Layer 1" xmlns="http://www.w3.org/2000/svg" xmlns:xlink="http://www.w3.org/1999/xlink">
    <title>home-control-app</title>
    <path d="M15.5 12c-0.276 0-0.5 0.224-0.5 0.5V17H1V4.5C1 2.57 2.57 1 4.5 1h7C11.776 1 12 0.776 12 0.5S11.776 0 11.5 0h-7C2.019 0 0 2.019 0 4.5v15C0 21.981 2.019 24 4.5 24h7c2.481 0 4.5-2.019 4.5-4.5v-7c0-0.276-0.224-0.5-0.5-0.5zM11.5 23h-7C2.57 23 1 21.43 1 19.5V18h14v1.5c0 1.93-1.57 3.5-3.5 3.5zM10 20.5c0 0.276-0.224 0.5-0.5 0.5h-3C6.224 21 6 20.776 6 20.5S6.224 20 6.5 20h3c0.276 0 0.5 0.224 0.5 0.5zM9 9v1c0 0.276-0.224 0.5-0.5 0.5h-1C7.224 10.5 7 10.276 7 10V9c0-0.276 0.224-0.5 0.5-0.5h1C8.776 8.5 9 8.724 9 9zM20 9.5c0 0.276-0.224 0.5-0.5 0.5S19 9.776 19 9.5C19 7.019 16.981 5 14.5 5 14.224 5 14 4.776 14 4.5S14.224 4 14.5 4C17.532 4 20 6.467 20 9.5zM16 9.5c0 0.276-0.224 0.5-0.5 0.5S15 9.776 15 9.5 14.775 9 14.5 9 14 8.776 14 8.5 14.224 8 14.5 8C15.327 8 16 8.673 16 9.5zM24 9.5c0 0.276-0.224 0.5-0.5 0.5S23 9.776 23 9.5C23 4.813 19.187 1 14.5 1 14.224 1 14 0.776 14 0.5S14.224 0 14.5 0C19.738 0 24 4.262 24 9.5zM11.119 6.75l-2-1.35c-0.68-0.459-1.558-0.459-2.237 0l-2 1.35C4.33 7.122 4 7.742 4 8.408V11c0 1.103 0.897 2 2 2h4c1.103 0 2-0.897 2-2V8.408c0-0.666-0.33-1.286-0.881-1.658zM11 11c0 0.551-0.449 1-1 1H6c-0.551 0-1-0.449-1-1V8.408c0-0.333 0.165-0.643 0.441-0.829l2-1.35C7.611 6.114 7.805 6.057 8 6.057s0.389 0.058 0.559 0.172l2 1.35c0.276 0.186 0.44 0.496 0.44 0.829z" />
</svg>