<svg id="homework_Layer_1" viewBox="0 0 24 24" fill="currentColor" width="32" height="32" data-name="Layer 1" xmlns="http://www.w3.org/2000/svg" xmlns:xlink="http://www.w3.org/1999/xlink">
    <title>homework</title>
    <path d="M23.268 12.732c-0.943-0.944-2.592-0.944-3.535 0l-6.707 6.707c-0.661 0.66-1.025 1.539-1.025 2.475V23.5c0 0.276 0.224 0.5 0.5 0.5h1.586c0.921 0 1.823-0.374 2.475-1.025l6.707-6.707c0.975-0.975 0.975-2.561-1e-3-3.536zM22.561 15.56l-6.707 6.707c-0.465 0.466-1.11 0.732-1.768 0.732H13v-1.086c0-0.668 0.26-1.296 0.732-1.768l6.707-6.707c0.566-0.566 1.555-0.566 2.121 0 0.585 0.585 0.585 1.536 1e-3 2.122zM12 16.999c-0.276 0-0.5-0.224-0.5-0.5v-4.306c0-0.603-0.405-1.139-0.985-1.305l-2.943-0.841C6.814 9.804 5.978 10.439 6 11.233v5.382c0 0.741 0.497 1.4 1.208 1.604l2.929 0.837c0.266 0.075 0.419 0.353 0.344 0.618-0.075 0.268-0.36 0.419-0.618 0.343L6.934 19.18C5.795 18.855 5 17.8 5 16.616v-5.382C4.959 9.795 6.475 8.651 7.847 9.087l2.943 0.841c0.491 0.141 0.91 0.434 1.21 0.819 0.3-0.385 0.719-0.679 1.209-0.819l2.944-0.841c1.263-0.392 2.682 0.536 2.827 1.847 0.037 0.274-0.156 0.525-0.429 0.562-0.273 0.034-0.525-0.156-0.562-0.429-0.081-0.721-0.864-1.237-1.561-1.018l-2.943 0.841c-0.58 0.166-0.984 0.702-0.984 1.305v4.306c0 0.276-0.224 0.5-0.501 0.498zM10 23.499c0 0.276-0.224 0.5-0.5 0.5h-5c-2.481 0-4.5-2.019-4.5-4.5v-9.123c0-1.393 0.629-2.684 1.725-3.542l7.5-5.876c1.635-1.28 3.917-1.28 5.55 0l7.5 5.876c0.968 0.759 1.589 1.896 1.705 3.12 0.026 0.275-0.176 0.519-0.451 0.544-0.283 0.034-0.519-0.176-0.544-0.451-0.09-0.952-0.573-1.836-1.327-2.426l-7.5-5.876c-1.271-0.995-3.045-0.994-4.317 0L2.342 7.621C1.489 8.289 1 9.293 1 10.376V19.5C1 21.43 2.57 23 4.5 23h5c0.276 0 0.5 0.224 0.5 0.499z" />
</svg>