<svg id="home_settings_Layer_1" viewBox="0 0 24 24" fill="currentColor" width="32" height="32" data-name="Layer 1" xmlns="http://www.w3.org/2000/svg" xmlns:xlink="http://www.w3.org/1999/xlink">
    <title>home-settings</title>
    <path d="M23.2 14.608c0.103-0.387 0.047-0.791-0.155-1.137-0.392-0.704-1.363-0.961-2.051-0.54l-0.642 0.374c-0.537-0.488-1.166-0.851-1.853-1.067V11.5c0-0.827-0.673-1.5-1.5-1.5s-1.5 0.673-1.5 1.5v0.738c-0.687 0.216-1.315 0.579-1.853 1.067l-0.642-0.374c-0.688-0.421-1.659-0.165-2.051 0.54-0.421 0.688-0.166 1.659 0.539 2.052l0.646 0.376c-0.094 0.385-0.14 0.748-0.14 1.101s0.046 0.716 0.14 1.1l-0.646 0.377c-0.705 0.392-0.96 1.364-0.539 2.052 0.392 0.705 1.363 0.961 2.051 0.539l0.642-0.374c0.536 0.489 1.166 0.852 1.853 1.068V22.5c0 0.827 0.673 1.5 1.5 1.5s1.5-0.673 1.5-1.5v-0.738c0.687-0.216 1.316-0.579 1.853-1.068l0.641 0.374c0.69 0.421 1.659 0.166 2.052-0.539 0.421-0.688 0.166-1.659-0.539-2.052L21.86 18.1C21.954 17.716 22 17.353 22 17s-0.046-0.716-0.14-1.101l0.646-0.376c0.347-0.202 0.593-0.527 0.694-0.915zM22.233 14.354c-0.034 0.129-0.116 0.237-0.231 0.304l-0.979 0.571c-0.201 0.118-0.295 0.359-0.225 0.582C20.936 16.25 21 16.628 21 16.999s-0.064 0.749-0.202 1.187c-0.07 0.223 0.022 0.464 0.225 0.582l0.979 0.572c0.115 0.067 0.197 0.176 0.231 0.305s0.016 0.264-0.052 0.379c-0.132 0.235-0.451 0.32-0.684 0.18l-0.972-0.567c-0.199-0.117-0.457-0.082-0.616 0.09-0.55 0.586-1.249 0.989-2.021 1.165-0.228 0.052-0.389 0.254-0.389 0.487v1.12c0 0.276-0.225 0.5-0.5 0.5s-0.5-0.224-0.5-0.5v-1.12c0-0.233-0.161-0.436-0.389-0.487-0.772-0.176-1.472-0.579-2.021-1.165-0.097-0.104-0.229-0.158-0.364-0.158-0.087 0-0.174 0.022-0.252 0.068L12.5 20.204c-0.23 0.141-0.552 0.055-0.683-0.18-0.141-0.23-0.055-0.553 0.18-0.684l0.979-0.572c0.202-0.118 0.295-0.359 0.225-0.582-0.138-0.438-0.202-0.816-0.202-1.187s0.064-0.749 0.202-1.188c0.07-0.223-0.023-0.464-0.225-0.582l-0.979-0.571c-0.235-0.13-0.32-0.454-0.18-0.684 0.129-0.235 0.458-0.319 0.684-0.18l0.972 0.567c0.199 0.117 0.457 0.081 0.616-0.089 0.55-0.586 1.249-0.989 2.021-1.165 0.228-0.052 0.389-0.254 0.389-0.487V11.5c0-0.276 0.225-0.5 0.5-0.5s0.5 0.224 0.5 0.5v1.12c0 0.233 0.161 0.436 0.389 0.487 0.772 0.176 1.472 0.579 2.021 1.165 0.159 0.17 0.417 0.207 0.616 0.089l0.972-0.567c0.362-0.23 0.862 0.146 0.736 0.56zM24 9.561V10.5c0 0.276-0.224 0.5-0.5 0.5S23 10.776 23 10.5V9.561c0-1.166-0.576-2.25-1.542-2.901l-7.5-5.061c-1.189-0.803-2.727-0.803-3.916 0l-7.5 5.061C1.576 7.311 1 8.396 1 9.561V19.5C1 21.43 2.57 23 4.5 23h7c0.276 0 0.5 0.224 0.5 0.5S11.776 24 11.5 24h-7C2.019 24 0 21.981 0 19.5V9.561c0-1.499 0.741-2.893 1.983-3.73l7.5-5.061c1.527-1.031 3.504-1.032 5.033 0l7.5 5.061c1.242 0.837 1.983 2.232 1.984 3.73zM17 15c-1.103 0-2 0.897-2 2s0.897 2 2 2 2-0.897 2-2-0.897-2-2-2zM17 18c-0.552 0-1-0.449-1-1s0.448-1 1-1 1 0.449 1 1-0.448 1-1 1z" />
</svg>