<svg id="honey_pot_Layer_1" viewBox="0 0 24 24" fill="currentColor" width="32" height="32" data-name="Layer 1" xmlns="http://www.w3.org/2000/svg" xmlns:xlink="http://www.w3.org/1999/xlink">
    <title>honey-pot</title>
    <path d="M22.183 2.828C22.666 2.578 23 2.08 23 1.5 23 0.673 22.327 0 21.5 0h-19C1.673 0 1 0.673 1 1.5 1 2.08 1.334 2.578 1.817 2.828 0.661 4.983 0 7.489 0 9.81c0 4.32 2.752 9.484 3.935 11.504 0.971 1.657 2.783 2.687 4.729 2.687h6.671c1.946 0 3.758-1.029 4.73-2.687C21.248 19.294 24 14.13 24 9.81c0-2.321-0.661-4.827-1.817-6.982zM2.5 1h19C21.776 1 22 1.224 22 1.5S21.776 2 21.5 2H16c-1.103 0-2 0.897-2 2v4.5C14 8.776 13.776 9 13.5 9S13 8.776 13 8.5V4c0-1.103-0.897-2-2-2S9 2.897 9 4v8.5C9 12.776 8.776 13 8.5 13S8 12.776 8 12.5V4c0-1.103-0.897-2-2-2H2.5C2.224 2 2 1.776 2 1.5S2.224 1 2.5 1zM19.203 20.808C18.411 22.161 16.929 23 15.336 23H8.665c-1.593 0-3.075-0.84-3.867-2.192C2.42 16.748 1 12.637 1 9.81 1 7.575 1.697 5.054 2.863 3H6c0.551 0 1 0.449 1 1v8.5C7 13.327 7.673 14 8.5 14s1.5-0.673 1.5-1.5V4c0-0.551 0.449-1 1-1s1 0.449 1 1v4.5c0 0.827 0.673 1.5 1.5 1.5S15 9.327 15 8.5V4c0-0.551 0.449-1 1-1h5.137C22.304 5.054 23 7.575 23 9.81c0 2.827-1.42 6.938-3.797 10.998z" />
</svg>