<svg id="hood_cloak_Layer_1" viewBox="0 0 24 24" fill="currentColor" width="32" height="32" data-name="Layer 1" xmlns="http://www.w3.org/2000/svg" xmlns:xlink="http://www.w3.org/1999/xlink">
    <title>hood-cloak</title>
    <path d="M12 6c-3.859 0-7 3.083-7 6.874 0 3.921 3.242 8.141 5.175 10.307 0.462 0.519 1.127 0.817 1.824 0.819h2e-3c0.697-2e-3 1.362-0.3 1.824-0.819C15.758 21.014 19 16.794 19 12.873 19 9.083 15.859 5.999 12 6zM13.079 22.516C12.806 22.822 12.412 22.999 12 23c-0.412-1e-3-0.806-0.178-1.079-0.485C9.083 20.455 6 16.463 6 12.873c0-3.239 2.691-5.874 6-5.874s6 2.635 6 5.874c0 3.589-3.083 7.582-4.921 9.643zM21.053 22.409c-0.102 0.181-0.031 0.34 4e-3 0.399C21.09 22.866 21.19 23 21.389 23H23.5c0.276 0 0.5 0.224 0.5 0.5S23.776 24 23.5 24h-2.111c-0.497 0-0.944-0.257-1.195-0.687-0.255-0.435-0.259-0.956-0.012-1.395C22.342 18.081 23 15.77 23 12.026c0-0.867-0.49-3.072-1.258-4.551-0.365-0.704-0.738-1.545-0.738-2.448 0-1.065 0.83-1.866 1.437-2.451 0.163-0.157 0.311-0.298 0.415-0.425 0.177-0.213 0.213-0.488 0.097-0.736-0.114-0.243-0.345-0.388-0.615-0.388h-8.245c-1.05 1e-3-1.984 0.01-2.645 0.043C5.902 1.342 1.333 5.887 1.045 11.416 0.843 15.306 1.67 18.411 3.811 21.8c0.28 0.444 0.297 1.004 0.045 1.462C3.601 23.724 3.134 24 2.606 24H0.503c-0.276 0-0.5-0.224-0.5-0.5s0.224-0.5 0.5-0.5h2.103c0.228 0 0.337-0.154 0.374-0.22 0.037-0.068 0.11-0.248-0.015-0.446-2.26-3.577-3.133-6.857-2.918-10.97 0.313-6.035 5.3-10.996 11.351-11.293 0.672-0.033 1.624-0.042 2.693-0.042h8.245c0.658-1e-3 1.24 0.368 1.52 0.961 0.281 0.598 0.193 1.288-0.23 1.799-0.124 0.15-0.298 0.32-0.491 0.507-0.504 0.486-1.131 1.09-1.131 1.731 0 0.688 0.316 1.391 0.626 1.988 0.849 1.636 1.37 4.021 1.37 5.012 0 3.896-0.716 6.419-2.947 10.382z" />
</svg>