<svg id="hook_Layer_1" viewBox="0 0 24 24" fill="currentColor" width="32" height="32" data-name="Layer 1" xmlns="http://www.w3.org/2000/svg" xmlns:xlink="http://www.w3.org/1999/xlink">
    <title>hook</title>
    <path d="M14.934 8.555C13.478 7.982 12.5 6.505 12.5 4.881V3.93c0.86-0.224 1.5-1 1.5-1.929 0-1.103-0.897-2-2-2s-2 0.897-2 2c0 0.929 0.64 1.705 1.5 1.929v0.951c0 2.031 1.232 3.882 3.066 4.605C17.259 10.548 19 13.105 19 16.001c0 3.86-3.141 7-7 7-3.521 0-6.442-2.612-6.929-6H6c0.212 0 0.401-0.134 0.472-0.334s7e-3-0.423-0.159-0.556c-0.742-0.593-1.188-1.176-1.327-1.731-0.062-0.244-0.289-0.412-0.547-0.375-0.25 0.031-0.438 0.244-0.438 0.496v1.5c0 4.411 3.589 8 8 8s8-3.589 8-8c0-3.309-1.988-6.231-5.067-7.446zM11 2c0-0.551 0.448-1 1-1s1 0.449 1 1-0.448 1-1 1-1-0.449-1-1z" />
</svg>