<svg id="horse_head_Layer_1" viewBox="0 0 24 24" fill="currentColor" width="32" height="32" data-name="Layer 1" xmlns="http://www.w3.org/2000/svg" xmlns:xlink="http://www.w3.org/1999/xlink">
    <title>horse-head</title>
    <path d="M14 11c0-0.552 0.448-1 1-1s1 0.448 1 1-0.448 1-1 1-1-0.448-1-1zM23.983 17.183c-0.102-1.131-0.683-2.19-1.594-2.906-2.751-2.162-3.856-4.383-4.925-6.532-0.711-1.429-1.383-2.778-2.464-3.97 0 0 8e-3-1.884 8e-3-2.884s-0.86-0.907-1-0.871c-1.433 0.375-2.581 1.639-2.91 3.096v0C4.149 3.928 0 8.931 0 16.5v7C0 23.776 0.224 24 0.5 24S1 23.776 1 23.5v-7C1 9.488 4.818 4.856 11.214 4.109c0.536-0.033 0.785-0.325 0.859-0.773 0.227-1.005 0.978-1.928 1.934-2.27l-8e-3 3.094 0.259 0.287c0.989 1.09 1.63 2.379 2.31 3.745 1.118 2.247 2.274 4.571 5.203 6.872 0.695 0.546 1.138 1.352 1.215 2.209 0.077 0.853-0.205 1.708-0.774 2.35-0.706 0.801-1.888 0.974-2.794 0.409l-5.147-3.205c-1.029-0.641-2.268 0.431-1.781 1.541l0.475 1.085c0.558 1.279 1.159 2.473 1.78 3.535l0.409 0.752c0.088 0.161 0.256 0.261 0.439 0.261 0.379 0 0.62-0.406 0.439-0.739l-0.417-0.766c-0.608-1.041-1.191-2.199-1.734-3.443l-0.453-1.035c-0.099-0.225 0.153-0.443 0.362-0.313l5.101 3.177c1.32 0.822 3.042 0.57 4.07-0.597 0.75-0.845 1.122-1.976 1.022-3.102z" />
</svg>