<svg id="horse_saddle_Layer_1" viewBox="0 0 24 24" fill="currentColor" width="32" height="32" data-name="Layer 1" xmlns="http://www.w3.org/2000/svg" xmlns:xlink="http://www.w3.org/1999/xlink">
    <title>horse-saddle</title>
    <path d="M23.019 5.779C21.314 5.015 19.651 3.955 19 1.426V0.491c0-0.314-0.3-0.565-0.6-0.471-0.517 0.162-0.922 0.569-1.164 1.066-1.544 0.204-2.783 0.793-3.683 1.77-1.692 1.839-1.574 4.367-1.554 4.661C11.99 8.336 11.32 9 10.499 9H7.493c-1.197 0-2.255 0.606-2.887 1.527C1.592 11.523-1e-3 14.279-1e-3 18.5c0 0.276 0.224 0.5 0.5 0.5s0.5-0.224 0.5-0.5c0-2.539 0.602-4.421 1.768-5.657-0.512 1.345-0.768 3.197-0.768 5.657 0 0.276 0.224 0.5 0.5 0.5s0.5-0.224 0.5-0.5c0-2.802 0.333-4.758 0.997-5.95 0.015 1.668 0.714 3.865 1.228 5.474 0.119 0.372 0.229 0.715 0.319 1.019l-0.27 2.191c-0.086 0.701 0.132 1.406 0.6 1.934C6.341 23.697 7.014 24 7.72 24c1.272 0 2.327-0.955 2.453-2.22L10.451 19h2.547v2.5c0 1.378 1.122 2.5 2.5 2.5s2.5-1.122 2.5-2.5v-2.947l0.404-1.896c0.404-1.415 0.596-2.338 0.596-3.758V9.5c0-0.276 0.224-0.5 0.5-0.5h2.811c0.931 0 1.689-0.758 1.689-1.689 0-0.664-0.385-1.265-0.979-1.532zM12 9.487V12.5c0 0.827-0.673 1.5-1.5 1.5S9 13.327 9 12.5V10h1.5c0.565 0 1.081-0.195 1.5-0.513zM9.502 18.45 9.179 21.68c-0.075 0.752-0.702 1.319-1.458 1.319-0.419 0-0.82-0.18-1.098-0.495-0.278-0.314-0.408-0.733-0.357-1.149l0.282-2.295c8e-3-0.068 3e-3-0.136-0.016-0.202-0.098-0.333-0.221-0.719-0.355-1.14-0.5-1.564-1.184-3.707-1.184-5.225 3e-3-1.376 1.125-2.495 2.5-2.495h0.506v2.5c0 1.207 0.86 2.217 2 2.449v3.051c-0.257 0-0.472 0.195-0.497 0.452zM22.311 8H19.5C18.673 8 18 8.673 18 9.5v3.399c0 1.31-0.172 2.133-0.566 3.517l-0.423 1.98C17.004 18.43 17 21.5 17 21.5c0 0.827-0.673 1.5-1.5 1.5S14 22.327 14 21.5v-3c0-0.276-0.224-0.5-0.5-0.5H11v-3.051c1.14-0.232 2-1.242 2-2.449 0 0 0-5.027-1e-3-5.041-2e-3-0.023-0.167-2.347 1.297-3.932 0.872-0.943 2.157-1.454 3.826-1.52 0.817 2.711 2.718 3.89 4.489 4.684 0.237 0.106 0.39 0.35 0.39 0.62 0 0.38-0.309 0.689-0.69 0.689z" />
</svg>