<svg id="hose_reel_Layer_1" viewBox="0 0 24 24" fill="currentColor" width="32" height="32" data-name="Layer 1" xmlns="http://www.w3.org/2000/svg" xmlns:xlink="http://www.w3.org/1999/xlink">
    <title>hose-reel</title>
    <path d="M23.564 15.756c-0.369-0.441-0.934-0.698-1.564-0.739V11c0-6.065-4.935-11-11-11S0 4.935 0 11 4.935 22 11 22c2.041 0 4.033-0.562 5.762-1.628 0.235-0.145 0.308-0.453 0.164-0.688-0.146-0.234-0.454-0.308-0.688-0.163C14.667 20.489 12.856 21 11 21 5.486 21 1 16.514 1 11S5.486 1 11 1 21 5.486 21 11v4.012c-0.653 0.03-1.241 0.294-1.619 0.751-0.367 0.443-0.507 1.017-0.396 1.598l0.823 5.366C19.921 23.465 20.544 24 21.29 24h0.369c0.746 0 1.37-0.535 1.482-1.272l0.823-5.369c0.108-0.594-0.035-1.163-0.4-1.603zM22.153 22.576C22.115 22.821 21.907 23 21.659 23H21.29c-0.249 0-0.457-0.179-0.494-0.425L19.97 17.19c-0.058-0.304 4e-3-0.577 0.181-0.79 0.211-0.255 0.562-0.4 0.965-0.4h0.717c0.401 0 0.752 0.145 0.962 0.397 0.176 0.21 0.24 0.48 0.183 0.796zM11 6c-2.757 0-5 2.243-5 5s2.243 5 5 5 5-2.243 5-5-2.243-5-5-5zM11 15c-2.206 0-4-1.794-4-4s1.794-4 4-4 4 1.794 4 4-1.794 4-4 4zM11 9c-1.103 0-2 0.897-2 2s0.897 2 2 2 2-0.897 2-2-0.897-2-2-2zM11 12c-0.551 0-1-0.448-1-1s0.449-1 1-1 1 0.448 1 1-0.449 1-1 1zM11 3c-4.411 0-8 3.589-8 8s3.589 8 8 8 8-3.589 8-8-3.589-8-8-8zM11 18c-3.86 0-7-3.141-7-7s3.14-7 7-7 7 3.141 7 7-3.14 7-7 7z" />
</svg>