<svg id="hospital_user_Layer_1" viewBox="0 0 24 24" fill="currentColor" width="32" height="32" data-name="Layer 1" xmlns="http://www.w3.org/2000/svg" xmlns:xlink="http://www.w3.org/1999/xlink">
    <title>hospital-user</title>
    <path d="M15 12.5v-8C15 2.57 13.43 1 11.5 1h-7C2.57 1 1 2.57 1 4.5v15C1 21.43 2.57 23 4.5 23h8c0.276 0 0.5 0.224 0.5 0.5S12.776 24 12.5 24h-8C2.019 24 0 21.981 0 19.5v-15C0 2.019 2.019 0 4.5 0h7C13.981 0 16 2.019 16 4.5v8c0 0.276-0.224 0.5-0.5 0.5S15 12.776 15 12.5zM6.5 14h-2C4.224 14 4 14.224 4 14.5S4.224 15 4.5 15h2C6.776 15 7 14.776 7 14.5S6.776 14 6.5 14zM11.5 14h-2C9.224 14 9 14.224 9 14.5S9.224 15 9.5 15h2c0.276 0 0.5-0.224 0.5-0.5S11.776 14 11.5 14zM6.5 18h-2C4.224 18 4 18.224 4 18.5S4.224 19 4.5 19h2C6.776 19 7 18.776 7 18.5S6.776 18 6.5 18zM11.5 18h-2C9.224 18 9 18.224 9 18.5S9.224 19 9.5 19h2c0.276 0 0.5-0.224 0.5-0.5S11.776 18 11.5 18zM8 10c0.276 0 0.5-0.224 0.5-0.5v-2h2C10.776 7.5 11 7.276 11 7s-0.224-0.5-0.5-0.5h-2v-2C8.5 4.224 8.276 4 8 4S7.5 4.224 7.5 4.5v2h-2C5.224 6.5 5 6.724 5 7s0.224 0.5 0.5 0.5h2v2C7.5 9.776 7.724 10 8 10zM17 15.5c0-1.378 1.121-2.5 2.5-2.5s2.5 1.122 2.5 2.5-1.121 2.5-2.5 2.5-2.5-1.122-2.5-2.5zM18 15.5c0 0.827 0.673 1.5 1.5 1.5s1.5-0.673 1.5-1.5-0.673-1.5-1.5-1.5-1.5 0.673-1.5 1.5zM23.984 23.375C23.48 21.419 21.594 20 19.5 20s-3.98 1.419-4.484 3.375c-0.068 0.267 0.092 0.54 0.359 0.609 0.269 0.069 0.54-0.093 0.609-0.36 0.385-1.496 1.896-2.625 3.516-2.625s3.131 1.128 3.516 2.625c0.059 0.226 0.262 0.375 0.484 0.375 0.041 0 0.083-5e-3 0.125-0.016 0.268-0.069 0.428-0.342 0.359-0.608z" />
</svg>