<svg id="hospital_bed_Layer_1" viewBox="0 0 24 24" fill="currentColor" width="32" height="32" data-name="Layer 1" xmlns="http://www.w3.org/2000/svg" xmlns:xlink="http://www.w3.org/1999/xlink">
    <title>hospital-bed</title>
    <path d="M19.5 10H19c-0.276 0-0.5 0.224-0.5 0.5S18.724 11 19 11h0.5c1.93 0 3.5 1.57 3.5 3.5V16H1v-1.5C1 12.57 2.57 11 4.5 11H5c0.276 0 0.5-0.224 0.5-0.5S5.276 10 5 10H4.5c-1.421 0-2.675 0.675-3.5 1.706V2.5C1 2.224 0.776 2 0.5 2S0 2.224 0 2.5V22c0 1.103 0.897 2 2 2s2-0.897 2-2-0.897-2-2-2c-0.366 0-0.705 0.106-1 0.278V17h22v3.278C22.705 20.106 22.366 20 22 20c-1.103 0-2 0.897-2 2s0.897 2 2 2 2-0.897 2-2v-7.5c0-2.481-2.019-4.5-4.5-4.5zM2 21c0.552 0 1 0.448 1 1s-0.448 1-1 1-1-0.448-1-1 0.448-1 1-1zM22 23c-0.552 0-1-0.448-1-1s0.448-1 1-1 1 0.448 1 1-0.448 1-1 1zM12 12c3.309 0 6-2.691 6-6s-2.691-6-6-6-6 2.691-6 6 2.691 6 6 6zM12 1c2.757 0 5 2.243 5 5s-2.243 5-5 5-5-2.243-5-5 2.243-5 5-5zM9 6c0-0.276 0.224-0.5 0.5-0.5h2v-2C11.5 3.224 11.724 3 12 3s0.5 0.224 0.5 0.5v2h2C14.776 5.5 15 5.724 15 6s-0.224 0.5-0.5 0.5h-2v2C12.5 8.776 12.276 9 12 9s-0.5-0.224-0.5-0.5v-2h-2C9.224 6.5 9 6.276 9 6z" />
</svg>