<svg id="hospital_symbol_Layer_1" viewBox="0 0 24 24" fill="currentColor" width="32" height="32" data-name="Layer 1" xmlns="http://www.w3.org/2000/svg" xmlns:xlink="http://www.w3.org/1999/xlink">
    <title>hospital-symbol</title>
    <path d="M12.5 0h-1C5.159 0 0 5.159 0 11.5v1C0 18.841 5.159 24 11.5 24h1C18.841 24 24 18.841 24 12.5v-1C24 5.159 18.841 0 12.5 0zM23 12.5C23 18.29 18.29 23 12.5 23h-1C5.71 23 1 18.29 1 12.5v-1C1 5.71 5.71 1 11.5 1h1C18.29 1 23 5.71 23 11.5zM17 6.5v11c0 0.276-0.224 0.5-0.5 0.5S16 17.776 16 17.5v-5H8v5C8 17.776 7.776 18 7.5 18S7 17.776 7 17.5v-11C7 6.224 7.224 6 7.5 6S8 6.224 8 6.5v5h8v-5C16 6.224 16.224 6 16.5 6S17 6.224 17 6.5z" />
</svg>