<svg id="hotdog_Layer_1" viewBox="0 0 24 24" fill="currentColor" width="32" height="32" data-name="Layer 1" xmlns="http://www.w3.org/2000/svg" xmlns:xlink="http://www.w3.org/1999/xlink">
    <title>hotdog</title>
    <path d="M16 4.5v-3C16 1.224 16.224 1 16.5 1S17 1.224 17 1.5v3C17 4.776 16.776 5 16.5 5S16 4.776 16 4.5zM12 6c0.276 0 0.5-0.224 0.5-0.5v-4C12.5 1.224 12.276 1 12 1s-0.5 0.224-0.5 0.5v4C11.5 5.776 11.724 6 12 6zM7.5 5C7.776 5 8 4.776 8 4.5V1.511c0-0.276-0.224-0.5-0.5-0.5S7 1.235 7 1.511V4.5C7 4.776 7.224 5 7.5 5zM23.156 12.253c-0.076 0.08-0.721 0.747-1.918 1.52 0.575 0.409 1.04 0.961 1.352 1.618 0.993 2.09 0.113 4.605-1.961 5.607-2.151 1.04-4.686 2.001-8.629 2.001s-6.477-0.962-8.629-2.001c-2.074-1.001-2.954-3.517-1.961-5.607 0.313-0.659 0.779-1.211 1.355-1.621-1.148-0.738-1.788-1.384-1.913-1.516C0.279 11.649-0.022 10.857 0 10.026 0.024 9.194 0.37 8.422 0.975 7.851 2.209 6.684 4.173 6.728 5.353 7.95 5.366 7.963 7.502 10 11.999 10s6.642-2.04 6.664-2.061c1.205-1.204 3.172-1.224 4.386-0.044 1.234 1.2 1.281 3.115 0.107 4.358zM19.869 14.179c-0.797-0.281-1.653-0.232-2.415 0.135-1.473 0.711-2.964 1.186-5.455 1.186s-3.981-0.474-5.455-1.186c-0.434-0.209-0.9-0.315-1.368-0.315-0.352 0-0.706 0.06-1.048 0.18-0.803 0.283-1.449 0.866-1.817 1.641-0.758 1.596-0.088 3.515 1.493 4.278C5.849 21.086 8.258 22 11.998 22s6.149-0.914 8.194-1.902c1.581-0.764 2.112-2.624 1.493-4.277-0.495-1.321-1.775-1.626-1.816-1.642zM22.352 8.611c-0.824-0.801-2.161-0.783-2.982 0.036C19.349 8.669 16.904 11 12 11S4.666 8.676 4.643 8.653c-0.809-0.836-2.142-0.867-2.98-0.075-0.41 0.387-0.645 0.912-0.661 1.477-0.016 0.564 0.188 1.102 0.576 1.512 0.074 0.078 0.896 0.879 2.213 1.673l7e-3-3e-3c1.049-0.37 2.18-0.308 3.182 0.177C8.369 14.084 9.693 14.5 12 14.5s3.632-0.416 5.02-1.086c0.992-0.479 2.111-0.545 3.151-0.188 0 0 1.559-0.919 2.258-1.659 0.794-0.843 0.761-2.14-0.077-2.956z" />
</svg>