<svg id="hotel_Layer_1" viewBox="0 0 24 24" fill="currentColor" width="32" height="32" data-name="Layer 1" xmlns="http://www.w3.org/2000/svg" xmlns:xlink="http://www.w3.org/1999/xlink">
    <title>hotel</title>
    <path d="M16.564 0.013h-9c-2.481 0-4.5 2.018-4.5 4.5v15c0 2.481 2.019 4.5 4.5 4.5h2c0.276 0 0.5-0.224 0.5-0.5V17h4v6.513c0 0.276 0.224 0.5 0.5 0.5h2c2.481 0 4.5-2.019 4.5-4.5v-15c0-2.482-2.019-4.5-4.5-4.5zM20.064 19.513c0 1.93-1.57 3.5-3.5 3.5h-1.5V17H16.5c0.276 0 0.5-0.224 0.5-0.5S16.776 16 16.5 16h-9C7.224 16 7 16.224 7 16.5S7.224 17 7.5 17h1.564v6.013h-1.5c-1.93 0-3.5-1.57-3.5-3.5v-15c0-1.93 1.57-3.5 3.5-3.5h9c1.93 0 3.5 1.57 3.5 3.5zM9 12.5C9 12.776 8.776 13 8.5 13h-1C7.224 13 7 12.776 7 12.5S7.224 12 7.5 12h1C8.776 12 9 12.224 9 12.5zM17 12.5c0 0.276-0.224 0.5-0.5 0.5h-1c-0.276 0-0.5-0.224-0.5-0.5s0.224-0.5 0.5-0.5h1c0.276 0 0.5 0.224 0.5 0.5zM9 4.5C9 4.776 8.776 5 8.5 5h-1C7.224 5 7 4.776 7 4.5S7.224 4 7.5 4h1C8.776 4 9 4.224 9 4.5zM17 4.5C17 4.776 16.776 5 16.5 5h-1C15.224 5 15 4.776 15 4.5S15.224 4 15.5 4h1C16.776 4 17 4.224 17 4.5zM9 8.5C9 8.776 8.776 9 8.5 9h-1C7.224 9 7 8.776 7 8.5S7.224 8 7.5 8h1C8.776 8 9 8.224 9 8.5zM17 8.5C17 8.776 16.776 9 16.5 9h-1C15.224 9 15 8.776 15 8.5S15.224 8 15.5 8h1C16.776 8 17 8.224 17 8.5zM13 12.5c0 0.276-0.224 0.5-0.5 0.5h-1c-0.276 0-0.5-0.224-0.5-0.5s0.224-0.5 0.5-0.5h1c0.276 0 0.5 0.224 0.5 0.5zM13 4.5C13 4.776 12.776 5 12.5 5h-1C11.224 5 11 4.776 11 4.5S11.224 4 11.5 4h1C12.776 4 13 4.224 13 4.5zM13 8.5C13 8.776 12.776 9 12.5 9h-1C11.224 9 11 8.776 11 8.5S11.224 8 11.5 8h1C12.776 8 13 8.224 13 8.5z" />
</svg>