<svg id="hourglass_start_Layer_1" viewBox="0 0 24 24" fill="currentColor" width="32" height="32" data-name="Layer 1" xmlns="http://www.w3.org/2000/svg" xmlns:xlink="http://www.w3.org/1999/xlink">
    <title>hourglass-start</title>
    <path d="M20.969 20.027C20.482 16.368 17.712 13.943 15.3 12c2.412-1.943 5.183-4.368 5.669-8.026 0.133-1.003-0.172-2.016-0.84-2.777-0.666-0.76-1.626-1.196-2.635-1.196H6.505c-1.009 0-1.969 0.437-2.635 1.198C3.203 1.962 2.897 2.975 3.031 3.98 3.52 7.636 6.289 10.06 8.7 12.001c-2.411 1.942-5.18 4.365-5.669 8.021-0.135 1.007 0.171 2.022 0.839 2.785 0.664 0.759 1.623 1.194 2.629 1.194h11c1.007 0 1.965-0.435 2.629-1.193 0.667-0.762 0.973-1.775 0.841-2.781zM19.377 22.149c-0.474 0.541-1.158 0.852-1.876 0.852H6.5c-0.719 0-1.403-0.311-1.876-0.852-0.478-0.546-0.697-1.273-0.601-1.994 0.469-3.508 3.419-5.868 5.79-7.764 0.119-0.095 0.188-0.239 0.188-0.391s-0.069-0.295-0.188-0.391c-2.371-1.896-5.32-4.256-5.79-7.764-0.096-0.719 0.123-1.444 0.6-1.99C5.099 1.312 5.785 1 6.505 1h10.988c0.721 0 1.407 0.311 1.883 0.854 0.478 0.545 0.696 1.269 0.601 1.987-0.467 3.509-3.418 5.871-5.79 7.768C14.068 11.704 14 11.848 14 12s0.069 0.295 0.187 0.391c2.372 1.897 5.323 4.258 5.79 7.768 0.096 0.72-0.123 1.445-0.6 1.99zM17.401 3.634c0.042-0.15 0.011-0.312-0.084-0.436-0.095-0.125-0.242-0.197-0.398-0.197H7.138c-0.156 0-0.303 0.074-0.397 0.197-0.094 0.124-0.126 0.285-0.085 0.435 0.601 2.208 2.708 3.894 4.747 5.523 0 0 0.186 0.158 0.27 0.244 0.094 0.097 0.223 0.151 0.358 0.151s0.264-0.054 0.358-0.151c0.084-0.086 0.173-0.167 0.268-0.243 1.937-1.549 4.132-3.305 4.744-5.523zM12.03 8.377v0c0 0 0 0 0 0s-2e-3-1e-3-2e-3-1e-3C10.332 7.019 8.584 5.621 7.85 4.002h8.354c-0.754 1.641-2.559 3.084-4.174 4.375z" />
</svg>