<svg id="hourglass_end_Layer_1" viewBox="0 0 24 24" fill="currentColor" width="32" height="32" data-name="Layer 1" xmlns="http://www.w3.org/2000/svg" xmlns:xlink="http://www.w3.org/1999/xlink">
    <title>hourglass-end</title>
    <path d="M15.299 12c2.412-1.942 5.183-4.367 5.67-8.026 0.134-1.006-0.172-2.019-0.839-2.781-0.664-0.758-1.622-1.192-2.629-1.192H6.5c-1.007 0-1.965 0.436-2.629 1.193-0.667 0.764-0.974 1.778-0.839 2.785C3.521 7.635 6.29 10.059 8.701 12c-2.411 1.941-5.18 4.365-5.669 8.021-0.134 1.005 0.171 2.019 0.839 2.781 0.666 0.76 1.626 1.196 2.635 1.196h10.989c1.009 0 1.97-0.436 2.635-1.195 0.667-0.762 0.973-1.774 0.84-2.777-0.487-3.659-3.258-6.084-5.671-8.026zM19.377 22.145C18.901 22.689 18.215 23 17.494 23H6.505c-0.721 0-1.406-0.312-1.882-0.856-0.478-0.546-0.697-1.271-0.601-1.989 0.469-3.508 3.419-5.868 5.79-7.764C9.931 12.296 10 12.153 10 12s-0.069-0.296-0.188-0.391c-2.37-1.896-5.32-4.256-5.79-7.764-0.097-0.721 0.123-1.447 0.601-1.993 0.474-0.542 1.158-0.853 1.876-0.853H17.5c0.719 0 1.402 0.311 1.876 0.852 0.478 0.545 0.696 1.271 0.6 1.989-0.467 3.511-3.418 5.872-5.789 7.769-0.118 0.095-0.188 0.238-0.188 0.391s0.069 0.296 0.188 0.391c2.371 1.896 5.322 4.258 5.789 7.769 0.096 0.717-0.123 1.44-0.599 1.985zM12.737 14.844c-0.095-0.076-0.185-0.157-0.269-0.244-0.188-0.191-0.527-0.191-0.716 0-0.084 0.087-0.173 0.168-0.27 0.244-2.038 1.631-4.146 3.316-4.747 5.523-0.041 0.15-9e-3 0.312 0.085 0.436 0.095 0.124 0.242 0.196 0.397 0.196h9.781c0.156 0 0.304-0.072 0.397-0.196 0.095-0.124 0.126-0.285 0.084-0.436-0.613-2.22-2.809-3.976-4.742-5.523zM7.93 19.999c0.734-1.619 2.481-3.018 4.18-4.376v0c0 0 0 0 0 0 1.614 1.291 3.419 2.734 4.174 4.376z" />
</svg>