<svg id="hourglass_Layer_1" viewBox="0 0 24 24" fill="currentColor" width="32" height="32" data-name="Layer 1" xmlns="http://www.w3.org/2000/svg" xmlns:xlink="http://www.w3.org/1999/xlink">
    <title>hourglass</title>
    <path d="M17.494 24H6.506c-1.009 0-1.97-0.438-2.635-1.197-0.668-0.764-0.974-1.776-0.839-2.781 0.489-3.656 3.258-6.08 5.669-8.021C6.29 10.06 3.521 7.636 3.032 3.98 2.897 2.973 3.203 1.959 3.87 1.196 4.534 0.436 5.492 0 6.499 0h11.002c1.007 0 1.965 0.434 2.629 1.191 0.667 0.763 0.973 1.775 0.839 2.781-0.487 3.659-3.258 6.084-5.67 8.026 2.412 1.942 5.183 4.367 5.67 8.026 0.133 1.003-0.173 2.016-0.84 2.777-0.665 0.76-1.626 1.196-2.635 1.199zM17.501 1H6.499C5.78 1 5.097 1.312 4.623 1.853 4.145 2.399 3.927 3.125 4.022 3.846c0.47 3.508 3.42 5.868 5.79 7.764C9.93 11.705 10 11.848 10 12.001s-0.069 0.296-0.188 0.391c-2.37 1.896-5.32 4.256-5.79 7.764-0.096 0.719 0.123 1.443 0.601 1.989C5.099 22.689 5.785 23 6.506 23h10.988c0.721 0 1.407-0.311 1.883-0.854 0.477-0.545 0.695-1.269 0.6-1.985-0.467-3.511-3.418-5.872-5.789-7.769-0.118-0.095-0.187-0.238-0.187-0.391s0.069-0.296 0.187-0.391c2.371-1.896 5.322-4.258 5.789-7.769 0.097-0.719-0.122-1.444-0.6-1.989C18.903 1.311 18.22 1 17.501 1z" />
</svg>