<svg id="house_return_Layer_1" viewBox="0 0 24 24" fill="currentColor" width="32" height="32" data-name="Layer 1" xmlns="http://www.w3.org/2000/svg" xmlns:xlink="http://www.w3.org/1999/xlink">
    <title>house-return</title>
    <path d="M12 16.5c0 0.276-0.224 0.5-0.5 0.5H3.461c-1.929 0-3.5-1.57-3.5-3.5V8.162c0-1.393 0.629-2.685 1.727-3.543l4.5-3.599c1.552-1.212 3.649-1.359 5.347-0.379l1.298 0.876c0.229 0.154 0.29 0.465 0.134 0.694-0.154 0.229-0.466 0.289-0.694 0.134l-1.269-0.857C9.689 0.73 8.031 0.847 6.808 1.804L2.309 5.402C1.451 6.073 0.961 7.078 0.961 8.161v5.338c0 1.378 1.122 2.5 2.5 2.5H11.5c0.276 0 0.5 0.224 0.5 0.501zM15 2.5C15 1.122 16.121 0 17.5 0S20 1.122 20 2.5 18.879 5 17.5 5 15 3.878 15 2.5zM16 2.5C16 3.327 16.673 4 17.5 4S19 3.327 19 2.5 18.327 1 17.5 1 16 1.673 16 2.5zM6.5 9C7.327 9 8 9.673 8 10.5v1C8 12.327 7.327 13 6.5 13h-1C4.673 13 4 12.327 4 11.5v-1C4 9.673 4.673 9 5.5 9zM6.5 10h-1C5.224 10 5 10.224 5 10.5v1C5 11.776 5.224 12 5.5 12h1C6.776 12 7 11.776 7 11.5v-1C7 10.224 6.776 10 6.5 10zM24 11.039V14.5c0 0.276-0.224 0.5-0.5 0.5S23 14.776 23 14.5v-3.461c0-0.496-0.244-0.959-0.654-1.238L20 8.198v5.261c0 0.815-0.398 1.581-1.066 2.048l-4.261 2.817C14.252 18.603 14 19.071 14 19.575V23.5c0 0.276-0.224 0.5-0.5 0.5S13 23.776 13 23.5v-3.925c0-0.841 0.419-1.621 1.122-2.085L15 16.909v-5.322c-0.19 0.297-0.439 0.549-0.735 0.742l-2.438 1.589c-0.23 0.15-0.54 0.085-0.692-0.146-0.151-0.231-0.085-0.541 0.146-0.692l2.437-1.589c0.306-0.199 0.528-0.502 0.626-0.852 0 0 0.688-2.969 0.7-2.996 0.339-0.929 1.372-1.644 2.361-1.644 1.367 0 1.946 0.512 2.254 0.758l3.252 2.217c0.683 0.465 1.09 1.237 1.089 2.065zM19 7.511C18.953 7.463 18.471 7 17.404 7 16.833 7 16.196 7.429 16 7.934v8.314l2.371-1.568C18.761 14.407 19 13.948 19 13.458V7.511c0 0 6e-3 5e-3 0 0zM19.485 17.99c-0.105-0.255-0.399-0.378-0.652-0.272-0.256 0.104-0.378 0.396-0.273 0.652l2.183 5.32c0.08 0.193 0.267 0.31 0.463 0.31 0.063 0 0.128-0.012 0.189-0.038 0.256-0.104 0.378-0.396 0.273-0.652zM19 7.512v0c-8e-3-8e-3-4e-3-3e-3 0 0z" />
</svg>