<svg id="house_chimney_heart_Layer_1" viewBox="0 0 24 24" fill="currentColor" width="32" height="32" data-name="Layer 1" xmlns="http://www.w3.org/2000/svg" xmlns:xlink="http://www.w3.org/1999/xlink">
    <title>house-chimney-heart</title>
    <path d="M22.017 5.831 21 5.145V1.5C21 1.224 20.776 1 20.5 1S20 1.224 20 1.5v2.97l-5.482-3.699c-1.528-1.032-3.504-1.033-5.035 0l-7.5 5.06C0.741 6.669 0 8.063 0 9.56v9.939c0 2.481 2.019 4.5 4.5 4.5h15c2.481 0 4.5-2.019 4.5-4.5V9.56c0-1.497-0.741-2.892-1.983-3.729zM23 19.5c0 1.93-1.57 3.5-3.5 3.5h-15C2.57 23 1 21.43 1 19.5V9.561C1 8.397 1.577 7.312 2.542 6.66l7.5-5.061C10.637 1.198 11.318 0.997 12 0.997s1.363 0.2 1.958 0.602l7.5 5.061C22.424 7.312 23 8.396 23 9.561zM14.538 9c-1.08 0-1.976 0.479-2.5 1.254C11.514 9.48 10.618 9 9.538 9c-1.654 0-3 1.436-3 3.2 0 2.331 2.818 5.193 4.309 6.381 0.351 0.28 0.771 0.42 1.191 0.42s0.84-0.14 1.191-0.42c1.49-1.188 4.309-4.05 4.309-6.381 0-1.765-1.346-3.2-3-3.2zM12.605 17.8c-0.334 0.268-0.8 0.266-1.135 0-1.633-1.302-3.932-3.899-3.932-5.6 0-1.213 0.897-2.2 2-2.2 1.178 0 2 0.804 2 1.954 0 0.276 0.224 0.5 0.5 0.5s0.5-0.224 0.5-0.5c0-1.15 0.822-1.954 2-1.954 1.103 0 2 0.987 2 2.2 0 1.701-2.3 4.298-3.933 5.6z" />
</svg>