<svg id="house_chimney_Layer_1" viewBox="0 0 24 24" fill="currentColor" width="32" height="32" data-name="Layer 1" xmlns="http://www.w3.org/2000/svg" xmlns:xlink="http://www.w3.org/1999/xlink">
    <title>house-chimney</title>
    <path d="M22.017 5.831 21 5.145V1.5C21 1.224 20.776 1 20.5 1S20 1.224 20 1.5v2.97l-5.483-3.7c-1.529-1.032-3.506-1.031-5.033 0L1.983 5.831C0.741 6.668 0 8.063 0 9.561V19.5C0 21.981 2.019 24 4.5 24h3C7.776 24 8 23.776 8 23.5v-9C8 13.673 8.673 13 9.5 13h5c0.827 0 1.5 0.673 1.5 1.5v9c0 0.276 0.224 0.5 0.5 0.5h3c2.481 0 4.5-2.019 4.5-4.5V9.561c0-1.499-0.741-2.893-1.983-3.73zM23 19.5c0 1.93-1.57 3.5-3.5 3.5H17v-8.5c0-1.378-1.121-2.5-2.5-2.5h-5C8.121 12 7 13.122 7 14.5V23H4.5C2.57 23 1 21.43 1 19.5V9.561c0-1.166 0.576-2.25 1.542-2.901l7.5-5.061c1.189-0.803 2.727-0.803 3.916 0l7.5 5.061C22.424 7.311 23 8.396 23 9.561z" />
</svg>