<svg id="house_chimney_user_Layer_1" viewBox="0 0 24 24" fill="currentColor" width="32" height="32" data-name="Layer 1" xmlns="http://www.w3.org/2000/svg" xmlns:xlink="http://www.w3.org/1999/xlink">
    <title>house-chimney-user</title>
    <path d="M21.976 5.845 21 5.186V1.5C21 1.224 20.776 1 20.5 1S20 1.224 20 1.5v3.011l-5.503-3.713c-1.528-1.031-3.504-1.031-5.034 0l-7.48 5.047C0.741 6.683 0 8.077 0 9.575V19.5C0 21.981 2.019 24 4.5 24h14.959c2.481 0 4.5-2.019 4.5-4.5V9.575c0-1.498-0.741-2.893-1.983-3.73zM6.98 23c0.011-2.748 2.249-4.98 5-4.98s4.989 2.233 5 4.98zM22.959 19.5c0 1.93-1.57 3.5-3.5 3.5h-1.48c-0.011-3.3-2.698-5.98-6-5.98s-5.989 2.681-6 5.98h-1.48c-1.93 0-3.5-1.57-3.5-3.5V9.575c0-1.165 0.577-2.25 1.542-2.901l7.481-5.047c0.595-0.401 1.276-0.602 1.958-0.602s1.363 0.201 1.958 0.602l7.479 5.047c0.966 0.652 1.542 1.736 1.542 2.901zM11.979 7.02c-2.206 0-4 1.794-4 4s1.794 4 4 4 4-1.794 4-4-1.794-4-4-4zM11.979 14.02c-1.654 0-3-1.346-3-3s1.346-3 3-3 3 1.346 3 3-1.346 3-3 3z" />
</svg>