<svg id="house_night_Layer_1" viewBox="0 0 24 24" fill="currentColor" width="32" height="32" data-name="Layer 1" xmlns="http://www.w3.org/2000/svg" xmlns:xlink="http://www.w3.org/1999/xlink">
    <title>house-night</title>
    <path d="M7.435 9.509C6.097 8.58 5.5 7.498 5.5 6s0.597-2.581 1.935-3.509C7.906 2.163 8.116 1.592 7.97 1.035c-0.145-0.55-0.602-0.94-1.165-0.993C6.512 0.014 6.235 0 6 0 2.691 0 0 2.691 0 6s2.691 6 6 6c0.235 0 0.511-0.014 0.804-0.041 0.563-0.053 1.021-0.443 1.166-0.993 0.146-0.557-0.063-1.129-0.535-1.457zM7.003 10.712c-0.018 0.069-0.083 0.231-0.292 0.251C6.451 10.987 6.208 11 6 11 3.243 11 1 8.757 1 6s2.243-5 5-5c0.208 0 0.451 0.013 0.71 0.038 0.209 0.02 0.274 0.182 0.292 0.251C7.017 1.346 7.051 1.54 6.864 1.67 5.273 2.774 4.5 4.191 4.5 6.001s0.773 3.227 2.364 4.331c0.187 0.13 0.153 0.325 0.139 0.38zM22.274 12.304l-3-2.347c-1.633-1.278-3.914-1.278-5.547 0l-3 2.348C9.63 13.164 9 14.456 9 15.849v4.152c0 2.206 1.794 4 4 4h7c2.206 0 4-1.794 4-4v-4.152c0-1.393-0.629-2.685-1.726-3.545zM23.001 20c0 1.654-1.346 3-3 3h-7c-1.654 0-3-1.346-3-3v-4.152c0-1.083 0.489-2.088 1.343-2.757l3-2.347c0.635-0.497 1.396-0.745 2.157-0.745s1.522 0.249 2.157 0.745l3 2.347c0.854 0.669 1.343 1.674 1.343 2.757zM17.501 15h-2c-0.827 0-1.5 0.673-1.5 1.5v2c0 0.827 0.673 1.5 1.5 1.5h2c0.827 0 1.5-0.673 1.5-1.5v-2c0-0.827-0.673-1.5-1.5-1.5zM18.001 18.5c0 0.275-0.224 0.5-0.5 0.5h-2c-0.276 0-0.5-0.225-0.5-0.5v-2c0-0.275 0.224-0.5 0.5-0.5h2c0.276 0 0.5 0.225 0.5 0.5zM19.001 6.424c4e-3-0.215 0.146-0.404 0.351-0.468l1.256-0.393 0.419-1.257c0.136-0.408 0.812-0.408 0.948 0l0.421 1.263 1.263 0.421c0.204 0.068 0.342 0.259 0.342 0.474s-0.138 0.406-0.342 0.474l-1.263 0.421-0.421 1.263c-0.068 0.204-0.259 0.342-0.474 0.342s-0.406-0.138-0.474-0.342l-0.423-1.269-1.27-0.449c-0.203-0.072-0.337-0.265-0.333-0.48zM9.807 4.407l2.308 0.972 0.922 2.306c0.076 0.19 0.26 0.314 0.464 0.314s0.388-0.125 0.464-0.314l0.92-2.301 2.301-0.92C17.376 4.388 17.5 4.204 17.5 4s-0.125-0.388-0.314-0.464l-2.301-0.92-0.92-2.301c-0.152-0.38-0.776-0.38-0.929 0l-0.918 2.296-2.294 0.868C9.633 3.552 9.505 3.733 9.501 3.937s0.117 0.391 0.306 0.47zM12.678 3.468c0.131-0.05 0.235-0.152 0.288-0.282l0.536-1.339 0.536 1.339c0.051 0.127 0.151 0.228 0.279 0.279l1.339 0.536-1.339 0.536c-0.127 0.051-0.228 0.151-0.279 0.279l-0.536 1.339-0.536-1.339c-0.05-0.124-0.147-0.223-0.27-0.275l-1.348-0.568zM6.501 18.455c0 0.229-0.156 0.43-0.379 0.485l-1.709 0.427-0.427 1.709c-0.056 0.223-0.256 0.379-0.485 0.379s-0.43-0.156-0.485-0.379l-0.429-1.715-1.716-0.462c-0.222-0.06-0.374-0.262-0.37-0.491s0.164-0.427 0.388-0.479l1.702-0.394 0.425-1.702c0.111-0.445 0.859-0.445 0.971 0l0.427 1.709 1.709 0.427c0.223 0.056 0.379 0.256 0.378 0.486z" />
</svg>