<svg id="house_hand_Layer_1" viewBox="0 0 24 24" fill="currentColor" width="32" height="32" data-name="Layer 1" xmlns="http://www.w3.org/2000/svg" xmlns:xlink="http://www.w3.org/1999/xlink">
    <title>house-hand</title>
    <path d="M23.181 9.655c-0.496-0.452-1.141-0.675-1.809-0.652-0.67 0.032-1.288 0.322-1.739 0.818l-3.732 4.102C15.587 12.815 14.566 12 13.358 12H3.5C1.57 12 0 13.57 0 15.5v5C0 22.43 1.57 24 3.5 24h5.965c2.706 0 5.291-1.159 7.093-3.18l6.806-7.64c0.911-1.022 0.829-2.604-0.183-3.525zM22.618 12.516l-6.806 7.639c-1.612 1.809-3.925 2.846-6.347 2.846H3.5c-1.378 0-2.5-1.121-2.5-2.5v-5c0-1.379 1.122-2.5 2.5-2.5h9.857c0.905 0 1.643 0.737 1.643 1.643 0 0.812-0.605 1.511-1.398 1.624l-6.161 0.737c-0.274 0.032-0.47 0.281-0.437 0.556 0.033 0.273 0.274 0.479 0.556 0.437l6.172-0.738c1.022-0.146 1.846-0.879 2.146-1.824l4.496-4.94c0.271-0.298 0.643-0.473 1.046-0.492 0.403-0.02 0.79 0.12 1.088 0.393 0.609 0.555 0.658 1.506 0.11 2.119zM7 6.5v-1C7 5.224 7.224 5 7.5 5h1C8.776 5 9 5.224 9 5.5v1C9 6.776 8.776 7 8.5 7h-1C7.224 7 7 6.776 7 6.5zM5.5 10h5c1.378 0 2.5-1.122 2.5-2.5V4.187c0-0.833-0.412-1.607-1.102-2.072l-2.5-1.687c-0.85-0.573-1.947-0.573-2.797 0l-2.5 1.687c-0.69 0.465-1.102 1.24-1.102 2.072V7.5c0 1.378 1.122 2.5 2.501 2.5zM4 4.187c0-0.5 0.247-0.964 0.661-1.243l2.5-1.687C7.416 1.085 7.708 0.999 8 0.999s0.584 0.086 0.839 0.258l2.5 1.687C11.753 3.223 12 3.688 12 4.187V7.5C12 8.327 11.327 9 10.5 9h-5C4.673 9 4 8.327 4 7.5z" />
</svg>