<svg id="house_building_Layer_1" viewBox="0 0 24 24" fill="currentColor" width="32" height="32" data-name="Layer 1" xmlns="http://www.w3.org/2000/svg" xmlns:xlink="http://www.w3.org/1999/xlink">
    <title>house-building</title>
    <path d="M18 13.5c0-0.276 0.224-0.5 0.5-0.5h1c0.276 0 0.5 0.224 0.5 0.5S19.776 14 19.5 14h-1c-0.276 0-0.5-0.224-0.5-0.5zM18.5 18h1c0.276 0 0.5-0.224 0.5-0.5S19.776 17 19.5 17h-1c-0.276 0-0.5 0.224-0.5 0.5s0.224 0.5 0.5 0.5zM14.5 6h1C15.776 6 16 5.776 16 5.5S15.776 5 15.5 5h-1C14.224 5 14 5.224 14 5.5S14.224 6 14.5 6zM18.5 6h1C19.776 6 20 5.776 20 5.5S19.776 5 19.5 5h-1C18.224 5 18 5.224 18 5.5S18.224 6 18.5 6zM18.5 10h1c0.276 0 0.5-0.224 0.5-0.5S19.776 9 19.5 9h-1C18.224 9 18 9.224 18 9.5s0.224 0.5 0.5 0.5zM15.5 9h-1C14.224 9 14 9.224 14 9.5s0.224 0.5 0.5 0.5h1c0.276 0 0.5-0.224 0.5-0.5S15.776 9 15.5 9zM19.5 0h-5C12.019 0 10 2.019 10 4.5v3C10 7.776 10.224 8 10.5 8S11 7.776 11 7.5v-3C11 2.57 12.57 1 14.5 1h5C21.43 1 23 2.57 23 4.5v15c0 1.93-1.57 3.5-3.5 3.5h-3c-0.276 0-0.5 0.224-0.5 0.5s0.224 0.5 0.5 0.5h3c2.481 0 4.5-2.019 4.5-4.5v-15C24 2.019 21.981 0 19.5 0zM15 15.848V20c0 2.206-1.794 4-4 4H4c-2.206 0-4-1.794-4-4v-4.152c0-1.393 0.63-2.685 1.727-3.544l3-2.348c1.633-1.277 3.915-1.277 5.546 0l3.001 2.348c1.097 0.859 1.727 2.151 1.726 3.544zM14 15.848c0-1.083-0.489-2.088-1.344-2.757l-3-2.348C9.021 10.247 8.26 9.998 7.5 9.998s-1.521 0.249-2.157 0.745l-2.999 2.348C1.49 13.76 1 14.765 1 15.848V20c0 1.654 1.346 3 3 3h7c1.654 0 3-1.346 3-3zM10 16.5v2c0 0.827-0.673 1.5-1.5 1.5h-2C5.673 20 5 19.327 5 18.5v-2C5 15.673 5.673 15 6.5 15h2c0.827 0 1.5 0.673 1.5 1.5zM9 16.5C9 16.225 8.775 16 8.5 16h-2C6.225 16 6 16.225 6 16.5v2C6 18.775 6.225 19 6.5 19h2C8.775 19 9 18.775 9 18.5z" />
</svg>