<svg id="house_blank_Layer_1" viewBox="0 0 24 24" fill="currentColor" width="32" height="32" data-name="Layer 1" xmlns="http://www.w3.org/2000/svg" xmlns:xlink="http://www.w3.org/1999/xlink">
    <title>house-blank</title>
    <path d="M19.5 24h-15C2.019 24 0 21.981 0 19.5V9.561c0-1.497 0.741-2.892 1.983-3.729l7.5-5.061c1.527-1.033 3.505-1.033 5.034 0l7.499 5.061c1.242 0.838 1.983 2.232 1.983 3.729V19.5c0 2.481-2.019 4.5-4.499 4.5zM12 0.996c-0.682 0-1.363 0.201-1.957 0.603l-7.501 5.06C1.576 7.311 1 8.395 1 9.56v9.939c0 1.93 1.57 3.5 3.5 3.5h15c1.93 0 3.5-1.57 3.5-3.5V9.561c0-1.165-0.576-2.249-1.542-2.901l-7.5-5.061C13.363 1.198 12.682 0.996 12 0.996z" />
</svg>