<svg id="house_signal_Layer_1" viewBox="0 0 24 24" fill="currentColor" width="32" height="32" data-name="Layer 1" xmlns="http://www.w3.org/2000/svg" xmlns:xlink="http://www.w3.org/1999/xlink">
    <title>house-signal</title>
    <path d="M2 23c0 0.552-0.448 1-1 1s-1-0.448-1-1 0.448-1 1-1 1 0.448 1 1zM0.538 17.02c-0.253-0.017-0.516 0.185-0.537 0.461-0.021 0.275 0.186 0.516 0.461 0.537 2.925 0.223 5.298 2.596 5.521 5.521 0.021 0.263 0.239 0.462 0.498 0.462 0.014 0 0.026 0 0.039 0 0.275-0.021 0.481-0.262 0.461-0.537-0.261-3.412-3.03-6.182-6.443-6.444zM0.521 12.011C0.204 12.009 0.011 12.214 0 12.49c-0.012 0.276 0.203 0.509 0.479 0.521 5.652 0.241 10.27 4.858 10.511 10.511 0.012 0.269 0.233 0.479 0.5 0.479h0.021c0.275-0.013 0.49-0.245 0.479-0.521-0.265-6.166-5.302-11.203-11.469-11.469zM22.174 3.986 17.318 0.709c-1.406-0.951-3.229-0.951-4.635 0L7.827 3.986C6.683 4.757 6.001 6.041 6.001 7.42v3.08c0 0.276 0.224 0.5 0.5 0.5s0.5-0.224 0.5-0.5V7.42c0-1.046 0.518-2.02 1.385-2.605l4.856-3.277c1.068-0.721 2.449-0.721 3.518 0l4.856 3.277c0.867 0.586 1.385 1.56 1.385 2.605v6.842c0 1.51-1.229 2.738-2.738 2.738h-6.762c-0.276 0-0.5 0.224-0.5 0.5s0.224 0.5 0.5 0.5h6.762c2.062 0 3.738-1.677 3.738-3.738V7.42c0-1.379-0.683-2.662-1.827-3.434zM14 13c-0.827 0-1.5-0.673-1.5-1.5v-2C12.5 8.673 13.173 8 14 8h2c0.827 0 1.5 0.673 1.5 1.5v2c0 0.827-0.673 1.5-1.5 1.5zM14 12h2c0.275 0 0.5-0.225 0.5-0.5v-2C16.5 9.225 16.275 9 16 9h-2c-0.275 0-0.5 0.225-0.5 0.5v2c0 0.275 0.225 0.5 0.5 0.5z" />
</svg>