<svg id="house_medical_Layer_1" viewBox="0 0 24 24" fill="currentColor" width="32" height="32" data-name="Layer 1" xmlns="http://www.w3.org/2000/svg" xmlns:xlink="http://www.w3.org/1999/xlink">
    <title>house-medical</title>
    <path d="M16 12h-2v-2c0-1.103-0.897-2-2-2s-2 0.897-2 2v2H8c-1.103 0-2 0.897-2 2s0.897 2 2 2h2v2c0 1.103 0.897 2 2 2s2-0.897 2-2v-2h2c1.103 0 2-0.897 2-2s-0.897-2-2-2zM16 15h-2.5c-0.276 0-0.5 0.224-0.5 0.5V18c0 0.552-0.449 1-1 1s-1-0.448-1-1v-2.5c0-0.276-0.224-0.5-0.5-0.5H8c-0.551 0-1-0.448-1-1s0.449-1 1-1h2.5c0.276 0 0.5-0.224 0.5-0.5V10c0-0.552 0.449-1 1-1s1 0.448 1 1v2.5c0 0.276 0.224 0.5 0.5 0.5H16c0.551 0 1 0.448 1 1s-0.449 1-1 1zM22.017 5.831l-7.5-5.06c-1.528-1.032-3.504-1.033-5.034 0l-7.5 5.06C0.741 6.669 0 8.063 0 9.56v9.939c0 2.481 2.019 4.5 4.5 4.5h15c2.481 0 4.5-2.019 4.5-4.5V9.561c0-1.497-0.741-2.892-1.983-3.73zM23 19.5c0 1.93-1.57 3.5-3.5 3.5h-15C2.57 23 1 21.43 1 19.5V9.561C1 8.397 1.577 7.312 2.542 6.66l7.5-5.061C10.637 1.198 11.318 0.997 12 0.997s1.363 0.2 1.958 0.602l7.5 5.061C22.424 7.312 23 8.397 23 9.561z" />
</svg>