<svg id="house_chimney_crack_Layer_1" viewBox="0 0 24 24" fill="currentColor" width="32" height="32" data-name="Layer 1" xmlns="http://www.w3.org/2000/svg" xmlns:xlink="http://www.w3.org/1999/xlink">
    <title>house-chimney-crack</title>
    <path d="M22.017 5.831 21 5.145V1.5C21 1.224 20.776 1 20.5 1S20 1.224 20 1.5v2.97l-5.483-3.7c-1.529-1.032-3.506-1.031-5.033 0L1.983 5.831C0.741 6.668 0 8.063 0 9.561V19.5C0 21.981 2.019 24 4.5 24h3.573c0.762 0 1.447-0.423 1.789-1.105v0l2.085-4.171c0.077-0.155 0.069-0.339-0.021-0.486-0.092-0.147-0.253-0.237-0.426-0.237H7.967c-0.375 0-0.705-0.197-0.884-0.526-0.18-0.33-0.164-0.714 0.018-0.997l5.464-7.124c0.283-0.429 0.974-0.449 1.281-0.036 0.148 0.201 0.192 0.454 0.142 0.635l-1.943 4.345c-0.069 0.155-0.056 0.334 0.036 0.476 0.093 0.142 0.25 0.228 0.42 0.228h3.659c0.279 0 0.532 0.13 0.694 0.357 0.161 0.227 0.201 0.508 0.109 0.775l-1.99 5.888c-0.154 0.457-0.078 0.963 0.203 1.355 0.285 0.397 0.729 0.625 1.218 0.625H19.5c2.481 0 4.5-2.019 4.5-4.5V9.561c0-1.499-0.741-2.893-1.983-3.73zM23 19.5c0 1.93-1.57 3.5-3.5 3.5h-3.106c-0.163 0-0.311-0.076-0.406-0.208-0.095-0.133-0.119-0.298-0.067-0.452l1.989-5.884c0.198-0.573 0.11-1.185-0.241-1.679C17.316 14.283 16.767 14 16.16 14h-2.889l1.651-3.699c0.166-0.545 0.066-1.122-0.272-1.58C14.31 8.263 13.789 8 13.218 8 12.616 8 12.06 8.3 11.75 8.773l-5.465 7.126c-0.408 0.627-0.438 1.394-0.081 2.051 0.356 0.657 1.016 1.049 1.763 1.049h2.725l-1.724 3.447c-0.171 0.341-0.514 0.553-0.895 0.553H4.5c-1.93 0-3.5-1.57-3.5-3.5V9.561c0-1.166 0.576-2.25 1.542-2.901l7.5-5.061c1.189-0.803 2.727-0.803 3.916 0l7.5 5.061C22.424 7.311 23 8.396 23 9.561z" />
</svg>