<svg id="house_circle_xmark_Layer_1" viewBox="0 0 24 24" fill="currentColor" width="32" height="32" data-name="Layer 1" xmlns="http://www.w3.org/2000/svg" xmlns:xlink="http://www.w3.org/1999/xlink">
    <title>house-circle-xmark</title>
    <path d="M24 9.561V11.5c0 0.276-0.224 0.5-0.5 0.5S23 11.776 23 11.5V9.561c0-1.165-0.576-2.249-1.542-2.901l-7.5-5.061c-1.189-0.803-2.728-0.803-3.915 0l-7.501 5.06C1.576 7.311 1 8.395 1 9.56v9.939c0 1.93 1.57 3.5 3.5 3.5h7c0.276 0 0.5 0.224 0.5 0.5s-0.224 0.5-0.5 0.5h-7c-2.481 0-4.5-2.019-4.5-4.5V9.56c0-1.497 0.741-2.892 1.983-3.729l7.5-5.06c1.527-1.033 3.505-1.033 5.034 0l7.499 5.061C23.258 6.67 23.999 8.064 24 9.561zM24 17.5c0 3.584-2.916 6.5-6.5 6.5S11 21.084 11 17.5 13.916 11 17.5 11 24 13.916 24 17.5zM23 17.5c0-3.032-2.468-5.5-5.5-5.5S12 14.468 12 17.5 14.468 23 17.5 23 23 20.532 23 17.5zM20.354 14.646c-0.195-0.195-0.512-0.195-0.707 0l-2.146 2.146-2.146-2.146c-0.195-0.195-0.512-0.195-0.707 0s-0.195 0.512 0 0.707l2.146 2.146-2.146 2.146c-0.195 0.195-0.195 0.512 0 0.707 0.098 0.098 0.226 0.146 0.354 0.146s0.256-0.049 0.354-0.146l2.146-2.146 2.146 2.146c0.098 0.098 0.226 0.146 0.354 0.146s0.256-0.049 0.354-0.146c0.195-0.195 0.195-0.512 0-0.707l-2.146-2.146 2.146-2.146c0.195-0.195 0.195-0.512-2e-3-0.707z" />
</svg>