<svg id="house_hands_Layer_1" viewBox="0 0 24 24" fill="currentColor" width="32" height="32" data-name="Layer 1" xmlns="http://www.w3.org/2000/svg" xmlns:xlink="http://www.w3.org/1999/xlink">
    <title>house-hands</title>
    <path d="M24 5.5v10.101c0 2.003-0.78 3.887-2.196 5.303l-2.95 2.95c-0.195 0.195-0.512 0.195-0.707 0s-0.195-0.512 0-0.707l2.95-2.95C22.325 18.969 23 17.338 23 15.601V5.5C23 4.673 22.327 4 21.5 4S20 4.673 20 5.5v8c-0.03 0.569-0.187 1.139-0.584 1.601l-2.639 2.746c-0.191 0.199-0.509 0.205-0.707 0.014-0.199-0.191-0.205-0.508-0.014-0.707l2.616-2.721c0.461-0.553 0.43-1.396-0.055-1.935-0.526-0.611-1.517-0.662-2.112-0.116l-2.729 2.512c-0.521 0.479-0.925 1.053-1.229 1.691 0.291 0.745 0.452 1.542 0.452 2.356v4.56c0 0.276-0.224 0.5-0.5 0.5s-0.5-0.224-0.5-0.5v-4.56c0-1.533-0.647-3.009-1.776-4.047l-2.734-2.516c-0.583-0.541-1.587-0.489-2.107 0.12-0.494 0.551-0.508 1.394-0.032 1.96l2.594 2.695c0.191 0.199 0.186 0.516-0.014 0.707-0.197 0.192-0.515 0.186-0.707-0.014l-2.616-2.721c-0.412-0.476-0.564-1.051-0.606-1.626V5.5c0-0.827-0.673-1.5-1.5-1.5s-1.5 0.673-1.5 1.5v10.101c0 1.736 0.676 3.368 1.903 4.596l2.95 2.95c0.195 0.195 0.195 0.512 0 0.707s-0.512 0.195-0.707 0l-2.95-2.95c-1.416-1.416-2.196-3.3-2.196-5.303V5.5c0-1.378 1.121-2.5 2.5-2.5s2.5 1.122 2.5 2.5v5.997c0.391-0.294 0.86-0.466 1.359-0.494 0.674-0.045 1.307 0.188 1.803 0.633l2.739 2.521c0.43 0.395 0.793 0.848 1.098 1.336 0.306-0.489 0.669-0.939 1.099-1.336l2.734-2.516c0.502-0.449 1.146-0.678 1.808-0.637 0.5 0.027 0.969 0.199 1.359 0.494V5.5C19 4.122 20.121 3 21.5 3S24 4.122 24 5.5zM11.5 7h1C12.776 7 13 6.776 13 6.5v-1C13 5.224 12.776 5 12.5 5h-1C11.224 5 11 5.224 11 5.5v1C11 6.776 11.224 7 11.5 7zM7 7.5V4.187C7 3.354 7.412 2.58 8.102 2.115l2.5-1.687c0.85-0.573 1.947-0.573 2.797 0l2.5 1.687c0.689 0.465 1.102 1.24 1.102 2.072V7.5c0 1.378-1.121 2.5-2.5 2.5h-5C8.122 10 7.001 8.878 7 7.5zM8 7.5C8 8.327 8.673 9 9.5 9h5C15.327 9 16 8.327 16 7.5V4.187c0-0.5-0.247-0.964-0.66-1.243l-2.5-1.687C12.585 1.085 12.292 0.999 12 0.999s-0.585 0.086-0.84 0.258l-2.5 1.687C8.247 3.223 8 3.688 8 4.187z" />
</svg>