<svg id="house_turret_Layer_1" viewBox="0 0 24 24" fill="currentColor" width="32" height="32" data-name="Layer 1" xmlns="http://www.w3.org/2000/svg" xmlns:xlink="http://www.w3.org/1999/xlink">
    <title>house-turret</title>
    <path d="M23.5 0C23.224 0 23 0.224 23 0.5V2h-3V0.5C20 0.224 19.776 0 19.5 0S19 0.224 19 0.5V2h-3V0.5C16 0.224 15.776 0 15.5 0S15 0.224 15 0.5V2h-3V0.5C12 0.224 11.776 0 11.5 0S11 0.224 11 0.5v3c0 1.393 0.819 2.599 2 3.162V9.5c0 0.276 0.224 0.5 0.5 0.5S14 9.776 14 9.5V6.964C14.163 6.987 14.33 7 14.5 7h6c0.17 0 0.337-0.012 0.5-0.036V21c0 1.103-0.897 2-2 2h-2.5c-0.276 0-0.5 0.224-0.5 0.5s0.224 0.5 0.5 0.5H19c1.654 0 3-1.346 3-3V6.662c1.181-0.563 2-1.769 2-3.162v-3C24 0.224 23.776 0 23.5 0zM20.5 6h-6C13.122 6 12 4.879 12 3.5V3h11v0.5C23 4.879 21.878 6 20.5 6zM13.273 12.304l-3-2.348c-1.633-1.277-3.914-1.277-5.547 0l-3 2.348c-1.097 0.859-1.727 2.151-1.727 3.544V20c0 2.206 1.794 4 4 4h7c2.206 0 4-1.794 4-4v-4.152c0-1.393-0.629-2.685-1.726-3.544zM14 20c0 1.654-1.346 3-3 3H4c-1.654 0-3-1.346-3-3v-4.152c0-1.083 0.489-2.088 1.343-2.757l3-2.348C5.978 10.247 6.739 9.998 7.5 9.998s1.522 0.249 2.157 0.745l3 2.348C13.511 13.76 14 14.765 14 15.848zM8.5 15h-2C5.673 15 5 15.673 5 16.5v2C5 19.327 5.673 20 6.5 20h2c0.827 0 1.5-0.673 1.5-1.5v-2c0-0.827-0.673-1.5-1.5-1.5zM9 18.5C9 18.775 8.776 19 8.5 19h-2C6.224 19 6 18.775 6 18.5v-2C6 16.225 6.224 16 6.5 16h2C8.776 16 9 16.225 9 16.5z" />
</svg>