<svg id="house_key_Layer_1" viewBox="0 0 24 24" fill="currentColor" width="32" height="32" data-name="Layer 1" xmlns="http://www.w3.org/2000/svg" xmlns:xlink="http://www.w3.org/1999/xlink">
    <title>house-key</title>
    <path d="M20.698 13.302c0.391 0.391 0.391 1.024 0 1.414s-1.024 0.391-1.414 0-0.391-1.024 0-1.414c0.391-0.391 1.024-0.391 1.414 0zM24 15c0 2.757-2.243 5-5 5-0.415 0-0.836-0.061-1.28-0.185l-3.159 3.159c-0.661 0.661-1.54 1.025-2.475 1.025H11c-0.551 0-1-0.448-1-1v-1.5c0-0.551 0.448-1 1-1h1v-1c0-0.551 0.449-1 1-1h0.494l-9e-3-0.672c-6e-3-0.505 0.185-0.982 0.536-1.344l0.171-0.175C14.063 15.855 14 15.424 14 14.998c0-2.757 2.243-5 5-5s5 2.243 5 5.002zM23 15c0-2.206-1.794-4-4-4s-4 1.794-4 4c0 0.406 0.076 0.826 0.231 1.284 0.061 0.178 0.016 0.375-0.115 0.51l-0.379 0.389c-0.166 0.17-0.255 0.395-0.252 0.633l0.015 1.178c9e-3 0.271-0.229 0.512-0.5 0.506h-1V21c0 0.276-0.224 0.5-0.5 0.5H11V23c0 0 1.087 0 1.087 0 0.668 0 1.295-0.26 1.768-0.732l3.372-3.372c0.134-0.134 0.333-0.181 0.512-0.121C18.192 18.926 18.604 19 19.001 19c2.206 0 4-1.794 3.999-4zM7.5 23h-3C2.57 23 1 21.43 1 19.5V9.561c0-1.165 0.577-2.25 1.542-2.901l7.5-5.061c1.189-0.803 2.727-0.803 3.915 0l7.5 5.061c0.966 0.652 1.542 1.736 1.542 2.901 0 0.276 0.224 0.5 0.5 0.5s0.5-0.224 0.5-0.5c0-1.498-0.741-2.893-1.983-3.73L14.517 0.77c-1.529-1.031-3.504-1.031-5.034 0l-7.5 5.061C0.741 6.669 0 8.063 0 9.561V19.5C0 21.981 2.019 24 4.5 24h3C7.776 24 8 23.776 8 23.5S7.776 23 7.5 23z" />
</svg>