<svg id="house_unlock_Layer_1" viewBox="0 0 24 24" fill="currentColor" width="32" height="32" data-name="Layer 1" xmlns="http://www.w3.org/2000/svg" xmlns:xlink="http://www.w3.org/1999/xlink">
    <title>house-unlock</title>
    <path d="M24 9.561V10.5c0 0.276-0.224 0.5-0.5 0.5S23 10.776 23 10.5V9.561c0-1.166-0.576-2.25-1.542-2.901l-7.5-5.061c-1.189-0.803-2.727-0.803-3.916 0l-7.5 5.061C1.576 7.311 1 8.396 1 9.561V19.5C1 21.43 2.57 23 4.5 23h7c0.276 0 0.5 0.224 0.5 0.5S11.776 24 11.5 24h-7C2.019 24 0 21.981 0 19.5V9.561c0-1.499 0.741-2.893 1.983-3.73l7.5-5.061c1.527-1.031 3.504-1.032 5.033 0l7.5 5.061c1.242 0.837 1.983 2.232 1.984 3.73zM24 18.5v2c0 1.93-1.57 3.5-3.5 3.5h-4c-1.93 0-3.5-1.57-3.5-3.5v-2c0-1.391 0.822-2.585 2-3.149V13.5c0-1.93 1.57-3.5 3.5-3.5 1.48 0 2.807 0.938 3.301 2.333 0.092 0.26-0.045 0.546-0.305 0.638-0.264 0.089-0.546-0.044-0.639-0.305-0.353-0.997-1.3-1.667-2.357-1.667-1.379 0-2.5 1.122-2.5 2.5v1.551c0.165-0.024 0.329-0.051 0.5-0.051h4c1.93 0 3.5 1.57 3.5 3.501zM23 18.5c0-1.379-1.121-2.5-2.5-2.5h-4c-1.379 0-2.5 1.121-2.5 2.5v2c0 1.379 1.121 2.5 2.5 2.5h4c1.379 0 2.5-1.121 2.5-2.5zM18.5 18.5c-0.552 0-1 0.448-1 1s0.448 1 1 1 1-0.448 1-1-0.448-1-1-1z" />
</svg>