<svg id="house_user_Layer_1" viewBox="0 0 24 24" fill="currentColor" width="32" height="32" data-name="Layer 1" xmlns="http://www.w3.org/2000/svg" xmlns:xlink="http://www.w3.org/1999/xlink">
    <title>house-user</title>
    <path d="M21.996 5.826 14.517 0.778c-1.527-1.033-3.506-1.033-5.033 0l-7.48 5.047C0.762 6.663 0.021 8.057 0.021 9.556v9.925c0 2.481 2.019 4.5 4.5 4.5H19.48c2.481 0 4.5-2.019 4.5-4.5V9.556c0-1.499-0.741-2.893-1.984-3.73zM7.002 22.98C7.013 20.232 9.25 18 12 18s4.987 2.233 4.998 4.98zM22.98 19.48c0 1.93-1.57 3.5-3.5 3.5H18c-0.011-3.3-2.697-5.98-5.999-5.98s-5.988 2.681-5.999 5.98h-1.48c-1.93 0-3.5-1.57-3.5-3.5V9.555c0-1.165 0.576-2.25 1.542-2.901l7.478-5.048C10.637 1.205 11.318 1.004 12 1.004s1.363 0.201 1.958 0.602l7.479 5.049c0.966 0.65 1.542 1.735 1.542 2.9zM12 7c-2.206 0-4 1.794-4 4s1.794 4 4 4 4-1.794 4-4-1.794-4-4-4zM12 14c-1.654 0-3-1.346-3-3s1.346-3 3-3 3 1.346 3 3-1.346 3-3 3z" />
</svg>