<svg id="house_chimney_window_Layer_1" viewBox="0 0 24 24" fill="currentColor" width="32" height="32" data-name="Layer 1" xmlns="http://www.w3.org/2000/svg" xmlns:xlink="http://www.w3.org/1999/xlink">
    <title>house-chimney-window</title>
    <path d="M14.5 10h-5C8.673 10 8 10.673 8 11.5v5C8 17.327 8.673 18 9.5 18h5c0.827 0 1.5-0.673 1.5-1.5v-5c0-0.827-0.673-1.5-1.5-1.5zM15 16.5c0 0.275-0.224 0.5-0.5 0.5h-5C9.224 17 9 16.775 9 16.5v-5C9 11.225 9.224 11 9.5 11h5c0.276 0 0.5 0.225 0.5 0.5zM22.017 5.831 21 5.145V1.5C21 1.224 20.776 1 20.5 1S20 1.224 20 1.5v2.97l-5.483-3.699c-1.528-1.032-3.504-1.033-5.034 0l-7.5 5.06C0.741 6.669 0 8.063 0 9.56v9.939c0 2.481 2.019 4.5 4.5 4.5h15c2.481 0 4.5-2.019 4.5-4.5V9.561c0-1.497-0.741-2.892-1.983-3.73zM23 19.5c0 1.93-1.57 3.5-3.5 3.5h-15C2.57 23 1 21.43 1 19.5V9.561C1 8.397 1.577 7.312 2.542 6.66l7.5-5.061C10.637 1.198 11.318 0.997 12 0.997s1.363 0.2 1.958 0.602l7.5 5.061C22.424 7.312 23 8.397 23 9.561z" />
</svg>