<svg id="house_lock_Layer_1" viewBox="0 0 24 24" fill="currentColor" width="32" height="32" data-name="Layer 1" xmlns="http://www.w3.org/2000/svg" xmlns:xlink="http://www.w3.org/1999/xlink">
    <title>house-lock</title>
    <path d="M24 9.561V10.5c0 0.276-0.224 0.5-0.5 0.5S23 10.776 23 10.5V9.561c0-1.164-0.577-2.249-1.542-2.901l-7.5-5.061c-1.189-0.803-2.726-0.803-3.915 0l-7.501 5.06C1.576 7.311 1 8.396 1 9.56v9.939c0 1.93 1.57 3.5 3.5 3.5h7c0.276 0 0.5 0.224 0.5 0.5s-0.224 0.5-0.5 0.5h-7c-2.481 0-4.5-2.019-4.5-4.5V9.56c0-1.497 0.741-2.892 1.983-3.729l7.5-5.06c1.53-1.032 3.506-1.032 5.034 0l7.5 5.061C23.259 6.67 24 8.064 24 9.561zM24 18.5v2c0 1.93-1.57 3.5-3.5 3.5h-4c-1.93 0-3.5-1.57-3.5-3.5v-2c0-1.391 0.822-2.585 2-3.149V13.5c0-1.93 1.57-3.5 3.5-3.5s3.5 1.57 3.5 3.5v1.851c1.178 0.564 2 1.758 2 3.149zM16 15.051C16.165 15.027 16.329 15 16.5 15h4c0.171 0 0.335 0.027 0.5 0.051V13.5c0-1.379-1.122-2.5-2.5-2.5S16 12.121 16 13.5zM23 18.5c0-1.379-1.122-2.5-2.5-2.5h-4c-1.378 0-2.5 1.121-2.5 2.5v2c0 1.379 1.122 2.5 2.5 2.5h4c1.378 0 2.5-1.121 2.5-2.5zM18.5 18.5c-0.552 0-1 0.448-1 1s0.448 1 1 1 1-0.448 1-1-0.448-1-1-1z" />
</svg>