<svg id="house_flag_Layer_1" viewBox="0 0 24 24" fill="currentColor" width="32" height="32" data-name="Layer 1" xmlns="http://www.w3.org/2000/svg" xmlns:xlink="http://www.w3.org/1999/xlink">
    <title>house-flag</title>
    <path d="M24 16v3.5c0 2.481-2.019 4.5-4.5 4.5-0.276 0-0.5-0.224-0.5-0.5s0.224-0.5 0.5-0.5c1.93 0 3.5-1.57 3.5-3.5V16c0-0.276 0.224-0.5 0.5-0.5S24 15.724 24 16zM13.462 23H4.5C2.57 23 1 21.43 1 19.5V9.561c0-1.166 0.576-2.25 1.542-2.901l7.5-5.061c1.189-0.803 2.727-0.803 3.916 0l7.5 5.061C22.424 7.311 23 8.396 23 9.561c0 0.276 0.224 0.5 0.5 0.5s0.5-0.224 0.5-0.5c0-1.499-0.741-2.893-1.983-3.73l-7.5-5.061c-1.529-1.032-3.506-1.031-5.033 0L1.983 5.831C0.741 6.668 0 8.063 0 9.561V19.5C0 21.981 2.019 24 4.5 24h8.962c0.276 0 0.5-0.224 0.5-0.5s-0.224-0.5-0.5-0.5zM22.165 14.107 17 16.27v7.23c0 0.276-0.224 0.5-0.5 0.5S16 23.776 16 23.5V10.501c0-0.524 0.266-1.001 0.711-1.276 0.446-0.274 0.99-0.3 1.46-0.065l4.151 2.329c0.482 0.345 0.715 0.85 0.673 1.382-0.043 0.533-0.353 0.995-0.83 1.236zM21.998 12.792c7e-3-0.088 0-0.308-0.213-0.462 0 0-4.217-2.333-4.278-2.333-0.122 0-0.223 0.05-0.27 0.08C17.166 10.121 17 10.25 17 10.502v4.685l4.746-1.987c0.203-0.104 0.245-0.32 0.252-0.408z" />
</svg>