<svg id="house_leave_Layer_1" viewBox="0 0 24 24" fill="currentColor" width="32" height="32" data-name="Layer 1" xmlns="http://www.w3.org/2000/svg" xmlns:xlink="http://www.w3.org/1999/xlink">
    <title>house-leave</title>
    <path d="M17.554 5c1.378 0 2.5-1.122 2.5-2.5S18.932 0 17.554 0s-2.5 1.122-2.5 2.5 1.122 2.5 2.5 2.5zM17.554 1c0.827 0 1.5 0.673 1.5 1.5S18.381 4 17.554 4s-1.5-0.673-1.5-1.5 0.673-1.5 1.5-1.5zM23.773 13.081l-2.437-1.589c-0.305-0.199-0.527-0.501-0.62-0.83 0 0-0.681-2.953-0.691-2.98C19.725 6.753 18.664 6 17.649 6c-1.406 0-1.926 0.521-2.199 0.715l-3.308 2.26c-0.682 0.466-1.089 1.238-1.089 2.064V14.5c0 0.276 0.224 0.5 0.5 0.5s0.5-0.224 0.5-0.5v-3.461c0-0.496 0.244-0.959 0.654-1.239l2.346-1.61v5.268c0 0.815 0.398 1.581 1.077 2.056l4.25 2.81c0.421 0.279 0.673 0.747 0.673 1.251V23.5c0 0.276 0.224 0.5 0.5 0.5s0.5-0.224 0.5-0.5v-3.925c0-0.841-0.419-1.621-1.121-2.085l-0.879-0.581V11.59c0.189 0.293 0.439 0.546 0.736 0.74l2.437 1.589c0.23 0.15 0.54 0.084 0.692-0.146 0.151-0.231 0.085-0.541-0.145-0.692zM19.054 16.248l-2.36-1.56c-0.4-0.281-0.64-0.74-0.64-1.229V7.511c0 0-6e-3 5e-3 0 0 0.047-0.048 0.533-0.51 1.596-0.51 0.58 0 1.228 0.443 1.404 0.923zM6.808 1.804 2.309 5.402C1.451 6.073 0.961 7.078 0.961 8.161v5.338c0 1.378 1.122 2.5 2.5 2.5H9.5c0.276 0 0.5 0.224 0.5 0.5s-0.224 0.5-0.5 0.5H3.461c-1.929 1e-3-3.5-1.569-3.5-3.499V8.162c0-1.393 0.629-2.685 1.727-3.543l4.5-3.599c1.552-1.212 3.648-1.359 5.347-0.379l1.298 0.876c0.229 0.154 0.289 0.465 0.134 0.694-0.153 0.229-0.466 0.289-0.694 0.134l-1.269-0.857C9.689 0.73 8.031 0.847 6.808 1.804zM16.494 18.369l-2.182 5.32c-0.079 0.193-0.266 0.31-0.462 0.31-0.063 0-0.127-0.012-0.19-0.038-0.255-0.104-0.377-0.396-0.272-0.652l2.182-5.32c0.105-0.256 0.397-0.377 0.652-0.272 0.255 0.104 0.377 0.396 0.272 0.652zM16.055 7.51v0c8e-3-7e-3 4e-3-3e-3 0 0zM5.501 8.999c-0.827 0-1.5 0.673-1.5 1.5v1c0 0.827 0.673 1.5 1.5 1.5h1c0.827 0 1.5-0.673 1.5-1.5v-1c0-0.827-0.673-1.5-1.5-1.5zM7.001 10.499v1c0 0.276-0.224 0.5-0.5 0.5h-1c-0.276 0-0.5-0.224-0.5-0.5v-1c0-0.276 0.224-0.5 0.5-0.5h1c0.276 0 0.5 0.224 0.5 0.5z" />
</svg>