<svg id="hr_group_Layer_1" viewBox="0 0 24 24" fill="currentColor" width="32" height="32" data-name="Layer 1" xmlns="http://www.w3.org/2000/svg" xmlns:xlink="http://www.w3.org/1999/xlink">
    <title>hr-group</title>
    <path d="M7 4c1.103 0 2-0.897 2-2S8.103 0 7 0 5 0.897 5 2 5.897 4 7 4zM7 1c0.551 0 1 0.449 1 1S7.551 3 7 3 6 2.551 6 2 6.449 1 7 1zM12 7c1.103 0 2-0.897 2-2s-0.897-2-2-2-2 0.897-2 2 0.897 2 2 2zM12 4c0.551 0 1 0.449 1 1s-0.449 1-1 1-1-0.449-1-1 0.449-1 1-1zM17 4c1.103 0 2-0.897 2-2s-0.897-2-2-2-2 0.897-2 2 0.897 2 2 2zM17 1c0.551 0 1 0.449 1 1s-0.449 1-1 1-1-0.449-1-1 0.449-1 1-1zM24 6.5v10.101c0 2.003-0.78 3.887-2.197 5.303l-1.95 1.95C19.755 23.952 19.627 24 19.499 24s-0.256-0.049-0.354-0.146c-0.195-0.195-0.195-0.512 0-0.707l1.95-1.95c1.228-1.228 1.904-2.86 1.904-4.596V6.5c0-0.827-0.673-1.5-1.5-1.5s-1.5 0.673-1.5 1.5c0 0-9e-3 8.037-0.011 8.057-0.013 0.551-0.199 1.099-0.573 1.544l-2.638 2.746C16.679 18.949 16.548 19 16.417 19c-0.125 0-0.25-0.046-0.347-0.14-0.199-0.191-0.205-0.508-0.014-0.707l2.616-2.721c0.226-0.27 0.336-0.615 0.328-0.962v-4e-3c-9e-3-0.347-0.135-0.694-0.382-0.97-0.55-0.613-1.497-0.666-2.113-0.116l-2.729 2.512c-0.521 0.48-0.925 1.054-1.228 1.692C12.839 18.329 13 19.126 13 19.94v3.559c0 0.276-0.224 0.5-0.5 0.5s-0.5-0.224-0.5-0.5V19.94c0-1.534-0.647-3.009-1.776-4.047L7.49 13.377c-0.609-0.546-1.558-0.494-2.108 0.12-0.494 0.551-0.507 1.394-0.032 1.96l2.593 2.695c0.191 0.199 0.185 0.516-0.014 0.707-0.2 0.192-0.516 0.185-0.707-0.014l-2.616-2.721c-0.38-0.451-0.586-0.997-0.607-1.544-5e-3-0.028 0-8.082 0-8.082 0-0.827-0.673-1.5-1.5-1.5s-1.5 0.673-1.5 1.5v10.101c0 1.736 0.676 3.369 1.904 4.596l1.95 1.95c0.195 0.195 0.195 0.512 0 0.707-0.098 0.098-0.226 0.146-0.354 0.146s-0.256-0.049-0.354-0.146l-1.95-1.95c-1.417-1.417-2.197-3.3-2.197-5.303V6.5c0-1.378 1.122-2.5 2.5-2.5 1.149 0 2.109 0.783 2.4 1.841C5.452 5.322 6.192 5 6.998 5 7.411 5 7.811 5.08 8.19 5.238 8.445 5.344 8.565 5.637 8.459 5.892S8.061 6.269 7.805 6.161C7.549 6.055 7.277 6 6.997 6c-0.96 0-1.794 0.658-2 1.568V12.5c0.933-0.699 2.261-0.669 3.162 0.137l2.739 2.521c0.43 0.395 0.793 0.849 1.098 1.336 0.306-0.49 0.67-0.94 1.1-1.336l2.734-2.516c0.905-0.811 2.234-0.841 3.167-0.142V7.568c-0.206-0.91-1.04-1.568-2-1.568-0.28 0-0.552 0.054-0.808 0.161-0.253 0.107-0.547-0.014-0.654-0.269-0.106-0.255 0.014-0.548 0.269-0.654C16.183 5.08 16.584 5 16.996 5c0.806 0 1.546 0.322 2.1 0.841C19.388 4.784 20.348 4 21.496 4c1.378 0 2.5 1.122 2.504 2.5zM8.387 10.281C9.073 8.874 10.476 8 12.05 8s2.978 0.874 3.663 2.281c0.121 0.249-0.021 0.758-0.449 0.719-0.186 0-0.363-0.103-0.45-0.281C14.297 9.658 13.238 9 12.049 9s-2.248 0.659-2.765 1.719c-0.121 0.248-0.419 0.353-0.668 0.23-0.248-0.121-0.351-0.42-0.229-0.668z" />
</svg>