<svg id="hr_management_Layer_1" viewBox="0 0 24 24" fill="currentColor" width="32" height="32" data-name="Layer 1" xmlns="http://www.w3.org/2000/svg" xmlns:xlink="http://www.w3.org/1999/xlink">
    <title>hr-management</title>
    <path d="M24 22.25v1.25c0 0.276-0.224 0.5-0.5 0.5S23 23.776 23 23.5v-1.25c0-1.792-1.458-3.25-3.25-3.25s-3.25 1.458-3.25 3.25v1.25c-0.013 0.263-0.184 0.5-0.499 0.5-0.279 0-0.432-0.18-0.491-0.4C15.204 22.093 13.728 21 12 21s-3.204 1.093-3.51 2.6C8.43 23.827 8.234 23.987 8 24c-0.267-7e-3-0.487-0.231-0.5-0.5v-1.25C7.5 20.458 6.042 19 4.25 19S1 20.458 1 22.25v1.25C1 23.776 0.776 24 0.5 24S0 23.776 0 23.5v-1.25C0 19.906 1.907 18 4.25 18c2.113 0 3.857 1.555 4.182 3.578C9.276 20.612 10.567 20 12 20s2.724 0.612 3.568 1.578C15.893 19.555 17.636 18 19.75 18 22.094 18 24 19.906 24 22.25zM2 14.5C2 13.121 3.122 12 4.5 12S7 13.121 7 14.5 5.878 17 4.5 17 2 15.879 2 14.5zM3 14.5C3 15.327 3.673 16 4.5 16S6 15.327 6 14.5 5.327 13 4.5 13 3 13.673 3 14.5zM12 14c1.379 0 2.5 1.121 2.5 2.5S13.379 19 12 19s-2.5-1.121-2.5-2.5S10.622 14 12 14zM12 15c-0.827 0-1.5 0.673-1.5 1.5S11.173 18 12 18s1.5-0.673 1.5-1.5S12.827 15 12 15zM17 14.5c0-1.379 1.121-2.5 2.5-2.5s2.5 1.121 2.5 2.5-1.121 2.5-2.5 2.5-2.5-1.121-2.5-2.5zM18 14.5c0 0.827 0.673 1.5 1.5 1.5s1.5-0.673 1.5-1.5-0.673-1.5-1.5-1.5-1.5 0.673-1.5 1.5zM12 8c-1.103 0-2-0.897-2-2s0.897-2 2-2 2 0.897 2 2-0.897 2-2 2zM12 5c-0.551 0-1 0.448-1 1s0.449 1 1 1 1-0.448 1-1-0.449-1-1-1zM12 12c-0.827 0-1.5-0.673-1.5-1.5v-0.271c-0.515-0.18-0.989-0.446-1.396-0.786L8.88 9.575C8.536 9.778 8.133 9.837 7.743 9.733 7.355 9.632 7.03 9.386 6.826 9.042 6.623 8.696 6.567 8.293 6.667 7.904 6.768 7.516 7.014 7.191 7.359 6.988l0.233-0.137C7.528 6.551 7.498 6.275 7.498 6s0.03-0.551 0.094-0.85L7.359 5.013c-0.713-0.42-0.953-1.341-0.534-2.054 0.42-0.713 1.34-0.952 2.054-0.533l0.223 0.131c0.408-0.34 0.881-0.606 1.396-0.786V1.5c0-0.827 0.673-1.5 1.5-1.5s1.5 0.673 1.5 1.5v0.271c0.515 0.18 0.988 0.446 1.396 0.786l0.223-0.131c0.712-0.419 1.634-0.179 2.053 0.533 0.419 0.713 0.18 1.634-0.533 2.053L16.404 5.15c0.064 0.299 0.094 0.575 0.094 0.85s-0.03 0.551-0.094 0.851l0.234 0.138c0.345 0.202 0.59 0.527 0.691 0.915s0.044 0.792-0.159 1.138c-0.203 0.345-0.528 0.591-0.917 0.691-0.387 0.104-0.791 0.045-1.137-0.159l-0.223-0.131c-0.407 0.34-0.881 0.606-1.396 0.786V10.5c0 0.827-0.673 1.5-1.497 1.5zM9.168 8.325c0.129 0 0.258 0.05 0.354 0.146 0.429 0.431 0.983 0.742 1.603 0.902C11.346 9.431 11.5 9.63 11.5 9.857v0.642c0 0.275 0.224 0.5 0.5 0.5s0.5-0.225 0.5-0.5V9.857c0-0.228 0.154-0.427 0.375-0.484 0.62-0.16 1.174-0.472 1.603-0.902 0.162-0.16 0.411-0.191 0.607-0.078l0.541 0.317c0.227 0.142 0.553 0.058 0.685-0.177 0.141-0.228 0.058-0.553-0.177-0.684l-0.557-0.328c-0.196-0.115-0.29-0.349-0.227-0.567 0.103-0.361 0.151-0.665 0.151-0.955s-0.048-0.594-0.151-0.955c-0.062-0.219 0.031-0.452 0.228-0.568l0.556-0.326c0.237-0.14 0.317-0.447 0.177-0.685-0.131-0.234-0.456-0.319-0.684-0.178l-0.541 0.318c-0.195 0.116-0.446 0.083-0.607-0.078-0.43-0.431-0.984-0.743-1.603-0.903-0.221-0.057-0.375-0.256-0.375-0.484V1.498c0-0.276-0.224-0.5-0.5-0.5s-0.5 0.224-0.5 0.5V2.14c0 0.228-0.154 0.427-0.375 0.484-0.619 0.16-1.173 0.473-1.603 0.903-0.161 0.161-0.412 0.194-0.607 0.078L8.375 3.287c-0.237-0.14-0.544-0.06-0.685 0.178C7.551 3.702 7.63 4.009 7.869 4.15l0.555 0.325c0.197 0.115 0.291 0.35 0.228 0.568-0.103 0.361-0.151 0.665-0.151 0.955s0.048 0.594 0.151 0.955C8.714 7.172 8.621 7.405 8.424 7.52L7.868 7.847C7.634 7.979 7.549 8.302 7.69 8.531 7.822 8.767 8.144 8.85 8.375 8.71l0.542-0.318c0.079-0.046 0.166-0.068 0.251-0.067z" />
</svg>