<svg id="hr_person_Layer_1" viewBox="0 0 24 24" fill="currentColor" width="32" height="32" data-name="Layer 1" xmlns="http://www.w3.org/2000/svg" xmlns:xlink="http://www.w3.org/1999/xlink">
    <title>hr-person</title>
    <path d="M12 5c1.379 0 2.5-1.122 2.5-2.5S13.379 0 12 0 9.5 1.122 9.5 2.5 10.621 5 12 5zM12 1c0.827 0 1.5 0.673 1.5 1.5S12.827 4 12 4s-1.5-0.673-1.5-1.5S11.173 1 12 1zM24 5.5v10.101c0 2.003-0.78 3.886-2.196 5.303l-2.95 2.95C18.756 23.952 18.628 24 18.5 24s-0.256-0.049-0.354-0.146c-0.195-0.195-0.195-0.512 0-0.707l2.95-2.95c1.228-1.228 1.903-2.86 1.903-4.596V5.5c0-0.827-0.673-1.5-1.5-1.5s-1.5 0.673-1.5 1.5c0 0 2e-3 8.036 0 8.054-0.012 0.552-0.209 1.101-0.584 1.546l-2.639 2.746c-0.098 0.102-0.229 0.153-0.36 0.153-0.125 0-0.25-0.046-0.347-0.14-0.199-0.191-0.205-0.508-0.014-0.707l2.616-2.721c0.225-0.269 0.334-0.613 0.327-0.959v-9e-3c-9e-3-0.346-0.136-0.693-0.382-0.968-0.267-0.297-0.634-0.474-1.032-0.496-0.395-0.02-0.782 0.113-1.08 0.38l-2.729 2.512c-0.521 0.48-0.925 1.053-1.229 1.691 0.291 0.746 0.452 1.542 0.452 2.356v4.559c0 0.276-0.224 0.5-0.5 0.5s-0.5-0.224-0.5-0.5v-4.559c0-1.533-0.647-3.009-1.776-4.048l-2.734-2.516c-0.292-0.263-0.675-0.396-1.075-0.375-0.398 0.022-0.766 0.198-1.032 0.496-0.494 0.551-0.508 1.394-0.032 1.96l2.594 2.695c0.191 0.199 0.186 0.516-0.014 0.707-0.197 0.191-0.517 0.186-0.707-0.014l-2.616-2.721C4.226 14.67 4.019 14.123 4 13.575c-4e-3-0.027 0-8.079 0-8.079 0-0.827-0.673-1.5-1.5-1.5S1 4.669 1 5.496v10.101c0 1.736 0.676 3.368 1.903 4.596l2.95 2.95c0.195 0.195 0.195 0.512 0 0.707-0.098 0.098-0.226 0.146-0.354 0.146s-0.256-0.049-0.354-0.146l-2.95-2.95c-1.416-1.417-2.196-3.3-2.196-5.303V5.5c0-1.378 1.121-2.5 2.5-2.5s2.5 1.122 2.5 2.5v5.997c0.391-0.294 0.86-0.466 1.359-0.494 0.673-0.044 1.306 0.188 1.803 0.633l2.739 2.521c0.43 0.395 0.793 0.849 1.098 1.336 0.306-0.489 0.669-0.94 1.099-1.336l2.734-2.516c0.502-0.45 1.142-0.682 1.808-0.637 0.5 0.027 0.969 0.199 1.359 0.494V5.501c0-1.378 1.121-2.5 2.5-2.5S23.998 4.123 24 5.5zM8.056 9.429C8.338 7.474 10.034 6 12 6s3.662 1.474 3.944 3.429C15.983 9.702 15.805 10 15.448 10c-0.244 0-0.458-0.18-0.494-0.429C14.743 8.105 13.473 7 12 7S9.257 8.105 9.046 9.571c-0.04 0.273-0.299 0.458-0.566 0.424-0.273-0.04-0.463-0.293-0.424-0.566z" />
</svg>