<svg id="hr_Layer_1" viewBox="0 0 24 24" fill="currentColor" width="32" height="32" data-name="Layer 1" xmlns="http://www.w3.org/2000/svg" xmlns:xlink="http://www.w3.org/1999/xlink">
    <title>hr</title>
    <path d="M14 6c0-3.309-2.691-6-6-6S2 2.691 2 6s2.691 6 6 6 6-2.691 6-6zM8 11c-2.757 0-5-2.243-5-5s2.243-5 5-5 5 2.243 5 5-2.243 5-5 5zM6.99 14.55c0.055 0.271-0.12 0.535-0.391 0.59-3.245 0.658-5.6 3.543-5.6 6.86v1.5c0 0.276-0.224 0.5-0.5 0.5s-0.5-0.224-0.5-0.5V22c0-3.79 2.692-7.087 6.4-7.84 0.274-0.048 0.535 0.121 0.591 0.39zM21 13h-9c-1.654 0-3 1.346-3 3v5c0 1.654 1.346 3 3 3h9c1.654 0 3-1.346 3-3v-5c0-1.654-1.346-3-3-3zM23 21c0 1.103-0.897 2-2 2h-9c-1.103 0-2-0.897-2-2v-5c0-1.103 0.897-2 2-2h9c1.103 0 2 0.897 2 2zM18.75 15H18c-0.552 0-1 0.449-1 1v5.5c0 0.276 0.224 0.5 0.5 0.5s0.5-0.224 0.5-0.5v-2h0.75c0.136 0 0.267-0.017 0.396-0.04l0.89 2.226C20.114 21.882 20.302 22 20.5 22c0.062 0 0.125-0.011 0.186-0.036 0.257-0.103 0.381-0.394 0.278-0.65l-0.899-2.247C20.629 18.658 21 17.998 21 17.25 21 16.009 19.99 15 18.75 15zM18 18.5V16h0.75c0.689 0 1.25 0.561 1.25 1.25s-0.561 1.25-1.25 1.25zM16 15.5v6c0 0.276-0.224 0.5-0.5 0.5S15 21.776 15 21.5V19h-2v2.5c0 0.276-0.224 0.5-0.5 0.5S12 21.776 12 21.5v-6c0-0.276 0.224-0.5 0.5-0.5s0.5 0.224 0.5 0.5V18h2v-2.5c0-0.276 0.224-0.5 0.5-0.5s0.5 0.224 0.5 0.5z" />
</svg>