<svg id="hryvnia_Layer_1" viewBox="0 0 24 24" fill="currentColor" width="32" height="32" data-name="Layer 1" xmlns="http://www.w3.org/2000/svg" xmlns:xlink="http://www.w3.org/1999/xlink">
    <title>hryvnia</title>
    <path d="M5.65 15H21.5c0.276 0 0.5-0.224 0.5-0.5S21.776 14 21.5 14H8.023l9.844-3.632c0.271-0.1 0.529-0.224 0.773-0.368h2.861c0.276 0 0.5-0.224 0.5-0.5S21.777 9 21.501 9h-1.667c0.735-0.853 1.167-1.958 1.167-3.128 0-1.763-0.947-3.37-2.473-4.194C17.112 0.912 14.826 0 11.978 0 6.616 0 3.3 3.005 3.161 3.133 2.958 3.321 2.945 3.636 3.133 3.839 3.321 4.044 3.637 4.056 3.839 3.867 3.87 3.839 7.003 1 11.978 1c2.639 0 4.76 0.847 6.075 1.557C19.254 3.206 20 4.477 20 5.872 20 7.136 19.363 8.303 18.35 9H2.5C2.224 9 2 9.224 2 9.5S2.224 10 2.5 10h13.477l-9.844 3.632C5.862 13.732 5.604 13.856 5.36 14H2.5C2.224 14 2 14.224 2 14.5S2.224 15 2.5 15h1.667C3.432 15.853 3 17.088 3 18.258c0 1.773 0.949 3.481 2.478 4.298 1.793 0.958 3.98 1.444 6.5 1.444 5.322 0 9.628-2.964 9.809-3.09 0.227-0.158 0.281-0.47 0.124-0.696-0.158-0.225-0.47-0.281-0.696-0.124-0.042 0.029-4.236 2.91-9.236 2.91-2.354 0-4.382-0.446-6.029-1.327-1.201-0.642-1.948-2.012-1.948-3.415 0-1.264 0.637-2.561 1.648-3.258z" />
</svg>