<svg id="html_file_Layer_1" viewBox="0 0 24 24" fill="currentColor" width="32" height="32" data-name="Layer 1" xmlns="http://www.w3.org/2000/svg" xmlns:xlink="http://www.w3.org/1999/xlink">
    <title>html-file</title>
    <path d="M24 20.5c0 0.276-0.224 0.5-0.5 0.5h-2c-0.552 0-1-0.448-1-1v-6.5c0-0.276 0.224-0.5 0.5-0.5s0.5 0.224 0.5 0.5V20h2c0.276 0 0.5 0.224 0.5 0.5zM10 21c0.276 0 0.5-0.224 0.5-0.5V14h1c0.276 0 0.5-0.224 0.5-0.5S11.776 13 11.5 13h-3C8.224 13 8 13.224 8 13.5S8.224 14 8.5 14h1v6.5c0 0.276 0.224 0.5 0.5 0.5zM6.5 21C6.776 21 7 20.776 7 20.5v-7C7 13.224 6.776 13 6.5 13S6 13.224 6 13.5v3H3v-3C3 13.224 2.776 13 2.5 13S2 13.224 2 13.5v7C2 20.776 2.224 21 2.5 21S3 20.776 3 20.5v-3h3v3C6 20.776 6.224 21 6.5 21zM18.108 13c-0.318 0-0.613 0.242-0.781 0.64l-1.081 2.56-1.08-2.56C14.998 13.242 14.703 13 14.385 13c-0.479 0-0.878 0.295-0.917 1l-0.436 6.478C13.013 20.76 13.237 21 13.52 21c0.257 0 0.47-0.198 0.488-0.455l0.43-6.06 1.23 2.913c0.216 0.513 0.943 0.513 1.159 0l1.23-2.913 0.407 6.048c0.018 0.263 0.236 0.466 0.499 0.466 0.289 0 0.518-0.245 0.499-0.534l-0.435-6.466c-0.04-0.705-0.439-1-0.919-0.999zM18.096 5.389C19.324 6.616 20 8.248 20 9.985V10.5c0 0.276-0.224 0.5-0.5 0.5S19 10.776 19 10.5V9.985C19 9.65 18.962 9.322 18.904 9H13.5C12.121 9 11 7.878 11 6.5V1.096C10.677 1.038 10.349 1 10.015 1H4.5C2.57 1 1 2.57 1 4.5v15C1 21.43 2.57 23 4.5 23h11c0.616 0 1.222-0.162 1.749-0.468 0.236-0.139 0.544-0.06 0.684 0.182 0.139 0.239 0.057 0.545-0.182 0.684-0.681 0.395-1.459 0.603-2.251 0.603h-11c-2.481 0-4.5-2.019-4.5-4.5V4.5C0 2.019 2.019 0 4.5 0h5.515c1.735 0 3.368 0.676 4.597 1.904zM18.621 8c-0.273-0.704-0.682-1.354-1.232-1.904l-3.484-3.485c-0.551-0.55-1.2-0.959-1.904-1.231V6.5c0 0.827 0.673 1.5 1.5 1.5z" />
</svg>