<svg id="hug_tree_Layer_1" viewBox="0 0 24 24" fill="currentColor" width="32" height="32" data-name="Layer 1" xmlns="http://www.w3.org/2000/svg" xmlns:xlink="http://www.w3.org/1999/xlink">
    <title>hug-tree</title>
    <path d="M7 10.5C7 9.121 5.878 8 4.5 8S2 9.121 2 10.5 3.122 13 4.5 13 7 11.879 7 10.5zM3 10.5C3 9.673 3.673 9 4.5 9S6 9.673 6 10.5 5.327 12 4.5 12 3 11.327 3 10.5zM23.358 2.684c-0.396-0.201-0.864-0.161-1.221 0.101l-0.403 0.297-0.312-2.047c-0.091-0.6-0.597-1.034-1.204-1.034C19.547 1e-3 19 0.547 19 1.219v3.87l-1 0.734V2.5C18 1.121 16.878 0 15.5 0h-3C11.122 0 10 1.121 10 2.5v1.562L1.76 0.121C1.377-0.062 0.934-0.038 0.574 0.19-0.191 0.638-0.177 1.842 0.591 2.279L8.8 7.277C9.54 7.727 10 8.546 10 9.413V14H3.5C1.57 14 0 15.57 0 17.5v4C0 22.879 1.122 24 2.5 24h2C5.878 24 7 22.879 7 21.5V15h6.5c0.276 0 0.5-0.224 0.5-0.5S13.776 14 13.5 14H11V9.413c0-1.214-0.644-2.359-1.68-2.989L1.109 1.425c-0.234-0.151-0.05-0.529 0.219-0.401l8.956 4.283C10.6 5.468 11.011 5.213 11 4.856V2.5C11 1.673 11.673 1 12.5 1h3C16.327 1 17 1.673 17 2.5v4.31c-0.013 0.398 0.485 0.648 0.796 0.403l2-1.469C19.924 5.649 20 5.5 20 5.341V1.218c0-0.227 0.398-0.257 0.433-0.033l0.437 2.863c0.044 0.362 0.503 0.551 0.79 0.328l1.069-0.785c0.178-0.126 0.357 0.105 0.223 0.256L17.99 8.954C17.352 9.61 17 10.476 17 11.392v10.107c0 0.827-0.673 1.5-1.5 1.5h-3c-0.827 0-1.5-0.673-1.5-1.5v-4c0-0.276-0.224-0.5-0.5-0.5s-0.5 0.224-0.5 0.5v4c0 1.379 1.122 2.5 2.5 2.5h3c1.378 0 2.5-1.121 2.5-2.5V11.393c0-0.654 0.251-1.272 0.707-1.741l4.962-5.107c0.547-0.535 0.384-1.533-0.311-1.861zM6 21.5C6 22.327 5.327 23 4.5 23h-2C1.673 23 1 22.327 1 21.5v-4C1 16.121 2.122 15 3.5 15H6z" />
</svg>