<svg id="humanitarian_mission_Layer_1" viewBox="0 0 24 24" fill="currentColor" width="32" height="32" data-name="Layer 1" xmlns="http://www.w3.org/2000/svg" xmlns:xlink="http://www.w3.org/1999/xlink">
    <title>humanitarian-mission</title>
    <path d="M23.939 9.435c-0.862-4.568-5.33-9.422-11.914-9.434-2e-3 0-4e-3 0-6e-3 0-6e-3 0-0.012 0-0.019 0-6e-3 0-0.013 0-0.019 0-2e-3 0-4e-3 0-6e-3 0C5.391 0.014 0.923 4.867 0.061 9.435c-0.218 1.15 0.155 2.329 1.02 3.173l6.025 5.212C7.044 18.038 7 18.263 7 18.5v3C7 22.878 8.122 24 9.5 24h5c1.379 0 2.5-1.122 2.5-2.5v-3c0-0.237-0.044-0.462-0.106-0.68l6.048-5.233c0.842-0.824 1.215-2.002 0.997-3.152zM22.84 9.132c-0.718-0.589-1.734-1.131-2.841-1.131-1.43 0-2.739 0.809-3.545 1.436-0.319-3.834-2.278-6.934-3.366-8.386 5.234 0.473 8.811 4.309 9.752 8.081zM10.969 16.001 8.558 10.659c0.497-0.46 1.934-1.658 3.441-1.658s2.943 1.197 3.441 1.657l-2.411 5.343zM8.562 9.355C8.944 5.509 11.119 2.399 12 1.283c0.88 1.115 3.056 4.226 3.438 8.072-0.812-0.614-2.07-1.354-3.438-1.354s-2.626 0.74-3.438 1.354zM10.911 1.05C9.823 2.502 7.864 5.603 7.545 9.436 6.74 8.808 5.431 8 4 8 2.893 8 1.877 8.542 1.159 9.132c0.94-3.773 4.518-7.609 9.752-8.082zM1.757 11.873c-0.343-0.336-0.563-0.756-0.672-1.205 0 0 0 0 0 0C1.345 10.193 2.593 9.001 4 9.001c1.544 0 3.016 1.259 3.477 1.691l2.396 5.309H9.5c-0.773 0-1.456 0.36-1.915 0.913zM16 21.5c0 0.827-0.673 1.5-1.5 1.5h-5C8.673 23 8 22.327 8 21.5v-3C8 17.673 8.673 17 9.5 17h5c0.827 0 1.5 0.673 1.5 1.5zM16.415 16.912C15.956 16.359 15.273 16 14.5 16h-0.373l2.397-5.31C16.987 10.256 18.458 9 20 9c1.407 0 2.655 1.192 2.915 1.667 0 0 1e-3 1e-3 2e-3 2e-3-0.107 0.445-0.322 0.86-0.651 1.183zM14 20c0 0.276-0.224 0.5-0.5 0.5h-1v1c0 0.276-0.224 0.5-0.5 0.5s-0.5-0.224-0.5-0.5v-1h-1c-0.276 0-0.5-0.224-0.5-0.5s0.224-0.5 0.5-0.5h1v-1c0-0.276 0.224-0.5 0.5-0.5s0.5 0.224 0.5 0.5v1h1c0.276 0 0.5 0.224 0.5 0.5z" />
</svg>