<svg id="humidity_Layer_1" viewBox="0 0 24 24" fill="currentColor" width="32" height="32" data-name="Layer 1" xmlns="http://www.w3.org/2000/svg" xmlns:xlink="http://www.w3.org/1999/xlink">
    <title>humidity</title>
    <path d="M9.5 17c-0.101 0-0.202-0.03-0.29-0.093-0.225-0.161-0.277-0.473-0.116-0.698l5-7c0.161-0.224 0.473-0.276 0.697-0.116 0.225 0.16 0.277 0.473 0.116 0.697l-5 7C9.809 16.926 9.656 16.999 9.5 17zM19.841 20.496C21.967 18.37 23 15.955 23 13.115c0-4.555-5.001-9.479-7.982-12.01v0c-1.749-1.483-4.287-1.483-6.036 0C6.001 3.636 1 8.561 1 13.117c0 2.86 0.979 5.173 3.083 7.276 2.258 2.258 5.218 3.606 7.918 3.606 2.755 0 5.613-1.277 7.84-3.503zM14.371 1.868v0C16.665 3.815 22 8.808 22 13.115c0 2.562-0.938 4.745-2.866 6.674C17.123 21.8 14.456 23 12.001 23 9.56 23 6.864 21.762 4.79 19.687 2.861 17.757 2 15.731 2 13.118c0-4.31 5.335-9.303 7.629-11.25 0.687-0.583 1.529-0.875 2.371-0.875s1.684 0.292 2.371 0.875zM8 10c0 0.552 0.448 1 1 1s1-0.448 1-1-0.448-1-1-1-1 0.448-1 1zM14 16c0 0.552 0.448 1 1 1s1-0.448 1-1-0.448-1-1-1-1 0.448-1 1z" />
</svg>