<svg id="hundred_points_Layer_1" viewBox="0 0 24 24" fill="currentColor" width="32" height="32" data-name="Layer 1" xmlns="http://www.w3.org/2000/svg" xmlns:xlink="http://www.w3.org/1999/xlink">
    <title>hundred-points</title>
    <path d="M2.154 6.861C1.955 6.67 1.948 6.354 2.138 6.154l1.913-2C4.337 3.856 4.999 4.087 4.999 4.5v10c0 0.276-0.224 0.5-0.5 0.5s-0.5-0.224-0.5-0.5V5.655L2.86 6.845C2.67 7.044 2.353 7.052 2.154 6.861zM16 7.5v-4C16 1.57 17.57 0 19.5 0S23 1.57 23 3.5v4c0 1.93-1.57 3.5-3.5 3.5S16 9.43 16 7.5zM17 7.5c0 1.378 1.121 2.5 2.5 2.5S22 8.878 22 7.5v-4C22 2.122 20.879 1 19.5 1S17 2.122 17 3.5zM7 9.5v-4C7 3.57 8.57 2 10.5 2S14 3.57 14 5.5v4c0 1.93-1.57 3.5-3.5 3.5S7 11.43 7 9.5zM8 9.5c0 1.378 1.121 2.5 2.5 2.5S13 10.878 13 9.5v-4C13 4.122 11.879 3 10.5 3S8 4.122 8 5.5zM23.988 14.394c-0.059-0.269-0.321-0.441-0.595-0.382L0.394 19.011c-0.27 0.059-0.44 0.325-0.382 0.595C0.063 19.84 0.27 20 0.5 20c0.035 0 0.07-3e-3 0.106-0.011l23-5c0.27-0.059 0.44-0.325 0.382-0.595zM23.988 19.89c-0.06-0.268-0.325-0.438-0.598-0.377l-15.5 3.5c-0.27 0.061-0.438 0.329-0.377 0.598 0.052 0.232 0.258 0.39 0.487 0.39 0.036 0 0.073-4e-3 0.11-0.012l15.5-3.5c0.27-0.061 0.438-0.329 0.378-0.599z" />
</svg>