<svg id="hurricane_Layer_1" viewBox="0 0 24 24" fill="currentColor" width="32" height="32" data-name="Layer 1" xmlns="http://www.w3.org/2000/svg" xmlns:xlink="http://www.w3.org/1999/xlink">
    <title>hurricane</title>
    <path d="M10.356 24H5.5C5.224 24 5 23.776 5 23.5S5.224 23 5.5 23c2.083 0 4.357-0.827 5.352-1.626 0.184-0.147 0.151-0.349 0.136-0.406-0.018-0.069-0.08-0.232-0.286-0.271-4.858-0.905-8.68-5.163-8.702-9.694-5e-3-1.124 0.18-2.256 0.549-3.363C4.05 3.141 8.612 0 13.644 0H18.5C18.776 0 19 0.224 19 0.5S18.776 1 18.5 1c-2.083 0-4.357 0.827-5.352 1.626-0.184 0.147-0.151 0.349-0.136 0.406 0.018 0.069 0.08 0.232 0.286 0.271 4.858 0.905 8.68 5.163 8.702 9.694 5e-3 1.124-0.18 2.256-0.549 3.363-1.5 4.497-6.062 7.639-11.095 7.64zM10.031 23h0.325c4.607 0 8.78-2.86 10.146-6.955 0.335-1.004 0.502-2.027 0.498-3.043-0.022-4.539-4.026-7.996-7.886-8.716v0c-0.529-0.099-0.94-0.485-1.072-1.01-0.135-0.536 0.049-1.084 0.479-1.43 0.358-0.287 0.856-0.581 1.447-0.847h-0.325C9.037 1 4.864 3.86 3.498 7.955 3.163 8.959 2.996 9.982 3 10.998c0.022 4.539 4.026 7.996 7.886 8.716 0.529 0.099 0.94 0.485 1.072 1.01 0.135 0.536-0.049 1.084-0.479 1.43-0.358 0.287-0.856 0.581-1.448 0.846zM11.999 15c-1.654 0-3-1.346-3-3s1.346-3 3-3 3 1.346 3 3-1.346 3-3 3zM11.999 10c-1.103 0-2 0.897-2 2s0.897 2 2 2 2-0.897 2-2-0.897-2-2-2z" />
</svg>