<svg id="hydroalcoholic_gel_Layer_1" viewBox="0 0 24 24" fill="currentColor" width="32" height="32" data-name="Layer 1" xmlns="http://www.w3.org/2000/svg" xmlns:xlink="http://www.w3.org/1999/xlink">
    <title>hydroalcoholic-gel</title>
    <path d="M4.5 12c0.668 0 1.295-0.26 1.768-0.732S7 10.168 7 9.5 6.74 8.204 6.264 7.729L5.409 6.892c-0.5-0.49-1.316-0.49-1.816 0L2.734 7.733c-0.473 0.472-0.732 1.1-0.732 1.768s0.26 1.296 0.732 1.768C3.207 11.741 3.834 12.001 4.5 12zM3.436 8.443 4.291 7.606c0.117-0.115 0.301-0.115 0.418 0l0.852 0.833C5.844 8.722 6 9.099 6 9.5s-0.156 0.777-0.439 1.061c-0.566 0.566-1.555 0.566-2.121 0-0.283-0.283-0.439-0.66-0.439-1.061s0.156-0.777 0.435-1.057zM23.363 15.181l-6.806 7.64c-0.344 0.386-0.722 0.745-1.123 1.069-0.213 0.172-0.529 0.141-0.702-0.076-0.174-0.215-0.141-0.529 0.075-0.702 0.358-0.29 0.696-0.611 1.004-0.957l6.806-7.64c0.548-0.614 0.499-1.566-0.11-2.121-0.299-0.272-0.689-0.405-1.088-0.393-0.403 0.019-0.774 0.194-1.046 0.492l-4.503 4.949c0 0-4e-3 3e-3-6e-3 5e-3-0.305 0.938-1.117 1.666-2.133 1.811l-6.172 0.738c-0.273 0.036-0.523-0.162-0.556-0.437-0.033-0.274 0.162-0.523 0.437-0.556l6.161-0.737c0.793-0.113 1.398-0.812 1.398-1.624 0-0.905-0.737-1.643-1.643-1.643H3.5c-1.379 0-2.5 1.121-2.5 2.5v6c0 0.276-0.224 0.5-0.5 0.5S0 23.775 0 23.499v-6c0-1.93 1.57-3.5 3.5-3.5h9.857c1.209 0 2.221 0.822 2.533 1.932l3.742-4.112c0.451-0.496 1.069-0.787 1.739-0.818 0.668-0.024 1.312 0.201 1.809 0.652 1.012 0.922 1.094 2.504 0.183 3.528zM24 18.5v1c0 2.481-2.019 4.5-4.5 4.5h-1c-0.276 0-0.5-0.224-0.5-0.5s0.224-0.5 0.5-0.5h1c1.93 0 3.5-1.57 3.5-3.5v-1c0-0.276 0.224-0.5 0.5-0.5s0.5 0.224 0.5 0.5zM4.783 3.272 6.01 2.427c1.4-0.934 3.031-1.428 4.715-1.428H14v4.196c-2.47 1.191-4 3.492-4 6.099v0.205c0 0.276 0.224 0.5 0.5 0.5s0.5-0.224 0.5-0.5v-0.205c0-2.282 1.386-4.3 3.618-5.295h4.767c1.652 0.737 2.879 2.059 3.37 3.647 0.081 0.266 0.368 0.412 0.625 0.33 0.264-0.081 0.412-0.361 0.33-0.625C23.156 7.556 21.809 6.06 20 5.188V2.999c0-1.654-1.346-3-3-3h-6.275c-1.882 0-3.704 0.552-5.275 1.6L4.218 2.448C3.99 2.605 3.933 2.916 4.089 3.143 4.248 3.371 4.56 3.426 4.783 3.272zM15 1h2c1.103 0 2 0.897 2 2v2h-4z" />
</svg>