<svg id="hyperloop_Layer_1" viewBox="0 0 24 24" fill="currentColor" width="32" height="32" data-name="Layer 1" xmlns="http://www.w3.org/2000/svg" xmlns:xlink="http://www.w3.org/1999/xlink">
    <title>hyperloop</title>
    <path d="M23.683 13.454c-2.101-4.575-6.571-7.844-11.63-8.372-0.271-0.032-0.521 0.17-0.55 0.444s0.169 0.521 0.444 0.55C12.302 6.114 12.652 6.17 13 6.236v4.763h-1.5c-0.276 0-0.5 0.224-0.5 0.5s0.224 0.5 0.5 0.5h10.217c0.397 0.592 0.756 1.214 1.058 1.872 0.917 1.849-0.635 4.195-2.688 4.128H12.5c-0.276 0-0.5 0.224-0.5 0.5s0.224 0.5 0.5 0.5h7.587c2.759 0.088 4.829-3.064 3.596-5.545zM14 11V6.468c2.743 0.74 5.193 2.336 6.981 4.532zM8.274 21.603c0.219 0.167 0.261 0.481 0.094 0.701C7.52 23.414 6.529 24 5.5 24 2.416 24 0 18.729 0 12S2.416 0 5.5 0c1.029 0 2.021 0.586 2.868 1.696 0.167 0.22 0.125 0.534-0.094 0.701C8.053 2.565 7.74 2.521 7.573 2.303 7.119 1.708 6.391 0.999 5.5 0.999 3.061 1 1 6.038 1 12s2.061 11 4.5 11c0.891 0 1.619-0.709 2.073-1.304 0.167-0.218 0.48-0.262 0.701-0.093zM16.586 21.079c-0.231-0.146-0.541-0.079-0.69 0.153-0.513 0.807-1.346 1.769-2.396 1.769-2.439 0-4.5-5.038-4.5-11S11.061 1 13.5 1c1.092 0 2.2 1.09 3.043 2.991 0.112 0.255 0.413 0.365 0.659 0.254 0.253-0.112 0.367-0.407 0.255-0.66C16.433 1.273 15.027 0 13.5 0 11.624 0 9.998 1.958 9.01 5.002 9.006 5.002 9.003 5 9 5H4C3.724 5 3.5 5.224 3.5 5.5S3.724 6 4 6h1v5H3.5C3.224 11 3 11.224 3 11.5S3.224 12 3.5 12H8c0 2.203 0.263 4.243 0.719 6H4.5C4.224 18 4 18.224 4 18.5S4.224 19 4.5 19H9c0 0 7e-3-2e-3 0.01-2e-3C9.998 22.042 11.623 24 13.5 24c1.191 0 2.312-0.771 3.24-2.231 0.148-0.233 0.079-0.542-0.154-0.69zM6 11V6h2.719c-0.386 1.487-0.631 3.179-0.697 5z" />
</svg>