<svg id="ice_cream_Layer_1" viewBox="0 0 24 24" fill="currentColor" width="32" height="32" data-name="Layer 1" xmlns="http://www.w3.org/2000/svg" xmlns:xlink="http://www.w3.org/1999/xlink">
    <title>ice-cream</title>
    <path d="M16.918 4.002c-6e-3 0-0.012 0-0.018 0C16.434 1.692 14.401 0 12 0S7.565 1.692 7.099 4.004c-0.269 7e-3-0.54 0.034-0.811 0.082C4.37 4.428 2.771 5.877 2.214 7.777c-0.41 1.401-0.233 2.818 0.522 4.116l6.881 10.798c0.521 0.818 1.412 1.307 2.382 1.307s1.861-0.488 2.383-1.307l6.891-10.815C21.755 11.047 22 10.164 22 9.25c0-2.853-2.232-5.157-5.082-5.248zM21 9.25c0 0.253-0.024 0.503-0.071 0.75h-8.358c-0.067-0.353-0.087-0.712-0.059-1.07 0.174-2.198 2.157-4.029 4.374-3.928C19.193 5.075 20.999 6.941 21 9.25zM12 1c1.882 0 3.482 1.298 3.896 3.089-1.688 0.307-3.154 1.41-3.888 2.941-0.321-0.688-0.791-1.305-1.389-1.806-0.726-0.608-1.593-0.999-2.511-1.151C8.528 2.291 10.124 1 12 1zM3.175 8.059c0.451-1.54 1.742-2.713 3.29-2.988 0.258-0.046 0.518-0.068 0.774-0.068 1.001 0 1.969 0.344 2.738 0.988 0.968 0.811 1.523 1.999 1.523 3.26 0 0.251-0.024 0.502-0.071 0.75H3.072C2.965 9.437 2.963 8.783 3.175 8.059zM13.54 22.155c-0.337 0.528-0.913 0.844-1.54 0.844s-1.202-0.315-1.539-0.844l-6.87-10.781C3.525 11.26 3.459 11.135 3.396 11h17.21c-0.056 0.12-0.118 0.239-0.186 0.356z" />
</svg>