<svg id="icicles_Layer_1" viewBox="0 0 24 24" fill="currentColor" width="32" height="32" data-name="Layer 1" xmlns="http://www.w3.org/2000/svg" xmlns:xlink="http://www.w3.org/1999/xlink">
    <title>icicles</title>
    <path d="M23.397 0.915C22.909 0.334 22.193 0 21.433 0H2.566C1.8 0 1.081 0.338 0.591 0.927 0.104 1.517-0.097 2.286 0.04 3.009l1.964 15.554c0.03 0.243 0.232 0.428 0.478 0.438 0.241 0.01 0.46-0.16 0.509-0.4l1.699-8.322 2.821 13.364c0.048 0.229 0.249 0.394 0.482 0.396H8c0.23 0 0.433-0.158 0.486-0.384L11.81 9.801l2.208 7.836c0.121 0.432 0.842 0.432 0.963 0l2.207-7.833 2.825 11.813c0.055 0.231 0.225 0.375 0.506 0.384 0.238-0.01 0.437-0.186 0.475-0.421l2.967-18.571c0.131-0.748-0.074-1.511-0.564-2.094zM22.974 2.843l-2.572 16.1-2.688-11.24c-0.053-0.222-0.249-0.379-0.477-0.384-0.2 0.015-0.43 0.146-0.491 0.364L14.5 15.657 12.253 7.683c-0.061-0.219-0.241-0.353-0.491-0.364-0.228 5e-3-0.424 0.162-0.477 0.384L8.031 21.265 5.171 7.715C5.122 7.484 4.918 7.319 4.682 7.319H4.68c-0.236 0-0.44 0.168-0.488 0.4l-1.575 7.713-1.59-12.578c-0.086-0.46 0.036-0.929 0.334-1.289C1.66 1.206 2.099 1 2.566 1h18.867c0.464 0 0.9 0.203 1.198 0.559 0.299 0.354 0.424 0.82 0.343 1.284z" />
</svg>