<svg id="id_card_Layer_1" viewBox="0 0 24 24" fill="currentColor" width="32" height="32" data-name="Layer 1" xmlns="http://www.w3.org/2000/svg" xmlns:xlink="http://www.w3.org/1999/xlink">
    <title>id-card</title>
    <path d="M10.5 17c-0.276 0-0.5-0.224-0.5-0.5 0-1.379-1.122-2.5-2.5-2.5S5 15.121 5 16.5C5 16.776 4.776 17 4.5 17S4 16.776 4 16.5C4 14.57 5.57 13 7.5 13s3.5 1.57 3.5 3.5c0 0.276-0.224 0.5-0.5 0.5zM10 9.5C10 8.122 8.878 7 7.5 7S5 8.122 5 9.5 6.122 12 7.5 12 10 10.878 10 9.5zM9 9.5C9 10.327 8.327 11 7.5 11S6 10.327 6 9.5 6.673 8 7.5 8 9 8.673 9 9.5zM24 17.5v-11C24 4.019 21.981 2 19.5 2h-15C2.019 2 0 4.019 0 6.5v11C0 19.981 2.019 22 4.5 22h15c2.481 0 4.5-2.019 4.5-4.5zM19.5 3C21.43 3 23 4.57 23 6.5v11c0 1.93-1.57 3.5-3.5 3.5h-15C2.57 21 1 19.43 1 17.5v-11C1 4.57 2.57 3 4.5 3zM20 8.5C20 8.224 19.776 8 19.5 8h-6C13.224 8 13 8.224 13 8.5S13.224 9 13.5 9h6C19.776 9 20 8.776 20 8.5zM20 12.5c0-0.276-0.224-0.5-0.5-0.5h-6c-0.276 0-0.5 0.224-0.5 0.5s0.224 0.5 0.5 0.5h6c0.276 0 0.5-0.224 0.5-0.5zM18 16.5c0-0.276-0.224-0.5-0.5-0.5h-4c-0.276 0-0.5 0.224-0.5 0.5s0.224 0.5 0.5 0.5h4c0.276 0 0.5-0.224 0.5-0.5z" />
</svg>