<svg id="idea_exchange_Layer_1" viewBox="0 0 24 24" fill="currentColor" width="32" height="32" data-name="Layer 1" xmlns="http://www.w3.org/2000/svg" xmlns:xlink="http://www.w3.org/1999/xlink">
    <title>idea-exchange</title>
    <path d="M3.5 11.598v0.601c0 1.027 0.73 1.802 1.7 1.802h0.6c0.938 0 1.7-0.763 1.7-1.7v-0.722c0-0.564 0.271-1.068 0.708-1.315C9.931 9.29 11 7.465 11 5.502c0-1.666-0.743-3.224-2.038-4.274-1.296-1.053-2.993-1.454-4.655-1.102-2.112 0.446-3.802 2.176-4.205 4.305-0.447 2.359 0.604 4.646 2.679 5.825 0.444 0.252 0.72 0.767 0.719 1.342zM6.5 12.3c0 0.386-0.314 0.7-0.7 0.7H5.2c-0.405 0-0.7-0.337-0.7-0.802v-0.601c0-0.206-0.031-0.404-0.075-0.598h2.148C6.532 11.186 6.5 11.378 6.5 11.577zM1.084 4.617c0.329-1.737 1.708-3.149 3.43-3.513 0.325-0.069 0.652-0.103 0.976-0.103 1.035 0 2.035 0.346 2.843 1 1.06 0.86 1.668 2.134 1.668 3.498 0 1.604-0.875 3.095-2.284 3.892-0.27 0.153-0.487 0.372-0.675 0.617C7.028 10.007 7.015 10 7.001 10h-1V6.429c0.86-0.224 1.5-1 1.5-1.929 0-0.276-0.224-0.5-0.5-0.5s-0.5 0.224-0.5 0.5c0 0.551-0.448 1-1 1s-1-0.449-1-1c0-0.276-0.224-0.5-0.5-0.5s-0.5 0.224-0.5 0.5c0 0.929 0.64 1.705 1.5 1.929V10h-1c-0.017 0-0.03 8e-3-0.047 9e-3C3.765 9.762 3.547 9.54 3.275 9.386 1.578 8.421 0.718 6.549 1.084 4.617zM21.962 11.226c-1.296-1.051-2.993-1.452-4.655-1.1-2.111 0.446-3.802 2.176-4.205 4.305-0.447 2.359 0.604 4.646 2.679 5.825 0.444 0.252 0.72 0.767 0.72 1.342v0.601c0 1.027 0.73 1.802 1.7 1.802h0.6c0.938 0 1.7-0.763 1.7-1.7v-0.722c0-0.564 0.271-1.068 0.708-1.315 1.723-0.974 2.792-2.799 2.792-4.762 0-1.666-0.743-3.224-2.039-4.276zM19.5 22.3c0 0.386-0.314 0.7-0.7 0.7h-0.6c-0.405 0-0.7-0.337-0.7-0.802v-0.601c0-0.206-0.031-0.404-0.075-0.598h2.148c-0.041 0.187-0.073 0.379-0.073 0.578zM20.716 19.392c-0.27 0.153-0.487 0.372-0.675 0.617-0.014-1e-3-0.027-8e-3-0.041-8e-3h-1V16.43c0.86-0.224 1.5-1 1.5-1.929 0-0.276-0.224-0.5-0.5-0.5s-0.5 0.224-0.5 0.5c0 0.551-0.448 1-1 1s-1-0.449-1-1c0-0.276-0.224-0.5-0.5-0.5s-0.5 0.224-0.5 0.5c0 0.929 0.64 1.705 1.5 1.929v3.571h-1c-0.017 0-0.03 8e-3-0.047 9e-3-0.189-0.247-0.407-0.469-0.679-0.623-1.697-0.965-2.557-2.837-2.19-4.769 0.329-1.737 1.708-3.149 3.43-3.513 0.325-0.069 0.652-0.103 0.976-0.103 1.035 0 2.035 0.346 2.843 1 1.06 0.86 1.668 2.134 1.668 3.498 0 1.604-0.875 3.095-2.285 3.892zM12 23.5c0 0.276-0.224 0.5-0.5 0.5h-3C6.57 24 5 22.43 5 20.5v-3.199l-2.154 2.06c-0.2 0.192-0.516 0.184-0.707-0.016-0.19-0.2-0.184-0.516 0.016-0.707l2.32-2.218c0.535-0.536 1.508-0.544 2.059 8e-3l2.312 2.21c0.199 0.191 0.206 0.507 0.016 0.707-0.098 0.103-0.229 0.154-0.361 0.154-0.124 0-0.249-0.046-0.346-0.139L6.001 17.3v3.198c0 1.378 1.121 2.5 2.5 2.5h3c0.276 0 0.5 0.224 0.499 0.502zM15.5 1h-3C12.224 1 12 0.776 12 0.5S12.224 0 12.5 0h3C17.43 0 19 1.57 19 3.5v3.199l2.154-2.06c0.199-0.191 0.516-0.184 0.707 0.016 0.19 0.2 0.184 0.516-0.016 0.707l-2.32 2.218C19.257 7.848 18.89 8 18.5 8s-0.758-0.152-1.033-0.428l-2.312-2.21c-0.199-0.191-0.206-0.507-0.016-0.707 0.189-0.199 0.508-0.207 0.707-0.016L18 6.699V3.501c0-1.378-1.121-2.5-2.5-2.501z" />
</svg>