<svg id="image_slash_Layer_1" viewBox="0 0 24 24" fill="currentColor" width="32" height="32" data-name="Layer 1" xmlns="http://www.w3.org/2000/svg" xmlns:xlink="http://www.w3.org/1999/xlink">
    <title>image-slash</title>
    <path d="M16.5 5C15.122 5 14 6.121 14 7.5s1.122 2.5 2.5 2.5S19 8.879 19 7.5 17.878 5 16.5 5zM16.5 9C15.673 9 15 8.327 15 7.5S15.673 6 16.5 6 18 6.673 18 7.5 17.327 9 16.5 9zM18.5 22h-13c-1.862 0-3.389-1.462-3.494-3.299l6.348-6.348c0.195-0.195 0.195-0.512 0-0.707s-0.512-0.195-0.707 0l-5.646 5.646V5.5c0-0.276-0.224-0.5-0.5-0.5s-0.5 0.224-0.5 0.5v13c0 2.481 2.019 4.5 4.5 4.5h13c0.276 0 0.5-0.224 0.5-0.5S18.777 22 18.5 22zM23.854 23.146l-1.838-1.838C22.652 20.512 23 19.524 23 18.499V5.5C23 3.019 20.981 1 18.5 1h-13C4.476 1 3.487 1.348 2.691 1.984L0.854 0.146c-0.196-0.195-0.512-0.195-0.708 0s-0.195 0.512 0 0.708l23 23C23.244 23.952 23.372 24 23.5 24s0.256-0.049 0.354-0.146c0.195-0.195 0.195-0.512 0-0.708zM22 18.5c0 0.759-0.246 1.493-0.698 2.095L3.404 2.697C4.007 2.246 4.741 2 5.5 2h13C20.43 2 22 3.57 22 5.5z" />
</svg>