<svg id="images_Layer_1" viewBox="0 0 24 24" fill="currentColor" width="32" height="32" data-name="Layer 1" xmlns="http://www.w3.org/2000/svg" xmlns:xlink="http://www.w3.org/1999/xlink">
    <title>images</title>
    <path d="M9 5c0-0.55 0.45-1 1-1s1 0.45 1 1-0.45 1-1 1-1-0.45-1-1zM24 4.5v7c0 2.48-2.02 4.5-4.5 4.5h-10C7.02 16 5 13.98 5 11.5v-7C5 2.02 7.02 0 9.5 0h10C21.98 0 24 2.02 24 4.5zM6.88 13.82l6.17-6.17c0.82-0.82 2.15-0.82 2.97 0l1.04 1.04c0.42 0.41 1.14 0.42 1.55 0L23 4.3C22.9 2.46 21.37 1 19.51 1H9.5C7.57 1 6 2.57 6 4.5v7c0 0.89 0.33 1.7 0.88 2.32zM23 11.5V5.71L19.31 9.4c-0.79 0.79-2.18 0.79-2.97 0L15.3 8.36c-0.43-0.43-1.13-0.43-1.55 0l-6.11 6.11c0.54 0.34 1.18 0.54 1.86 0.54h10c1.93 0 3.5-1.57 3.5-3.51zM18.64 18.03c-0.27-0.07-0.54 0.09-0.61 0.36l-0.52 2.04c-0.51 1.86-2.44 2.96-4.3 2.45l-9.63-2.61c-1.86-0.51-2.96-2.44-2.45-4.3l1.84-6.83C3.04 8.87 2.88 8.6 2.62 8.53S2.08 8.61 2.01 8.88L0.16 15.7c-0.32 1.16-0.17 2.37 0.43 3.42s1.56 1.79 2.72 2.11l9.63 2.61c0.4 0.11 0.8 0.16 1.19 0.16 1.98 0 3.79-1.31 4.34-3.32L19 18.64c0.07-0.27-0.09-0.54-0.36-0.61z" />
</svg>