<svg id="immunity_Layer_1" viewBox="0 0 24 24" fill="currentColor" width="32" height="32" data-name="Layer 1" xmlns="http://www.w3.org/2000/svg" xmlns:xlink="http://www.w3.org/1999/xlink">
    <title>immunity</title>
    <path d="M23.999 11.4c-0.036-1.836-0.407-4.332-2.989-7.385-0.039-0.041-0.955-1.017-2.18-1.017-1.78 0-2.465 0.688-2.726 1.264-0.121 0.267-0.121 0.543 0 0.779 0.286 0.483 0.692 0.52 0.905 0.576 0.083 0.434 0.392 0.911 1.101 1.144 0.44 0.146 0.745 0.234 0.95 0.289 0.011 0.25-0.012 0.607-0.034 0.956-0.051 0.81-0.114 1.789 0.064 2.79-0.341-0.147-0.708-0.224-1.086-0.269V9.659c0-1.079-0.689-2.033-1.713-2.373l-3.5-1.16c-0.508-0.168-1.067-0.168-1.574 0l-3.5 1.16C6.692 7.626 6.004 8.58 6.004 9.659v0.868c-0.379 0.045-0.747 0.123-1.089 0.27 0.178-1.001 0.116-1.981 0.064-2.79-0.022-0.349-0.045-0.706-0.034-0.956 0.205-0.055 0.509-0.144 0.95-0.289 0.71-0.232 1.019-0.71 1.101-1.144 0.21-0.055 0.623-0.096 0.905-0.576 0.121-0.236 0.12-0.513 0-0.779C7.64 3.687 6.955 2.999 5.175 2.999c-1.226 0-2.142 0.976-2.195 1.033C0.408 7.067 0.037 9.564 0 11.4c-0.021 1.055 0.438 2.047 1.258 2.722 1.027 0.847 2.76 1.853 5.191 1.868 1.052 2.64 3.668 4.25 4.597 4.751 0.322 0.174 0.672 0.262 1.024 0.262 0.304 0 0.61-0.065 0.898-0.197 2.548-1.152 4.126-2.772 4.736-4.823 2.347-0.057 4.031-1.031 5.035-1.86 0.82-0.676 1.279-1.668 1.26-2.723zM1.895 13.35c-0.583-0.481-0.909-1.184-0.894-1.931 0.033-1.671 0.375-3.948 2.724-6.725 6e-3-8e-3 0.665-0.696 1.446-0.696 0.536 0 1.452 0.079 1.774 0.602-0.014 0.012-0.522 0.114-0.551 0.122C6.128 4.779 5.96 5.054 6.01 5.321c0.023 0.123-2e-3 0.35-0.431 0.491-0.867 0.284-1.141 0.331-1.147 0.332C4.244 6.17 4.087 6.301 4.027 6.481 3.9 6.862 3.934 7.395 3.977 8.07c0.056 0.868 0.125 1.949-0.14 2.961-0.082 0.31 0.03 0.633 0.285 0.822 0.246 0.184 0.576 0.2 0.838 0.04 0.316-0.19 0.67-0.291 1.04-0.351v2.288c9e-3 0.399 0.064 0.777 0.143 1.143-1.971-0.093-3.393-0.917-4.248-1.623zM12.557 19.895c-0.336 0.151-0.713 0.141-1.035-0.034-1.042-0.562-4.446-2.658-4.52-6.04V9.66c0-0.648 0.413-1.22 1.028-1.424l3.501-1.16c0.303-0.102 0.639-0.102 0.944 0l3.5 1.16c0.615 0.204 1.028 0.776 1.028 1.424v4.443c-0.051 2.532-1.546 4.482-4.446 5.792zM17.924 14.97c0.038-0.281 0.073-0.564 0.079-0.859v-2.568c0.368 0.06 0.721 0.16 1.035 0.349 0.264 0.159 0.593 0.145 0.839-0.038 0.254-0.189 0.366-0.513 0.286-0.823-0.265-1.012-0.196-2.093-0.141-2.961 0.043-0.675 0.077-1.208-0.05-1.589-0.059-0.176-0.215-0.306-0.398-0.336-0.011-2e-3-0.286-0.049-1.153-0.333-0.428-0.142-0.453-0.368-0.433-0.479 0.033-0.132 0.011-0.271-0.061-0.387-0.072-0.115-0.188-0.196-0.32-0.225-0.031-7e-3-0.542-0.111-0.553-0.123 0.313-0.521 1.237-0.601 1.776-0.601 0.777 0 1.43 0.68 1.431 0.68 2.365 2.795 2.706 5.072 2.738 6.742 0.015 0.747-0.311 1.45-0.894 1.931-0.846 0.698-2.246 1.512-4.181 1.62zM15.002 12.999c0 0.276-0.224 0.5-0.5 0.5h-2v2c0 0.276-0.224 0.5-0.5 0.5s-0.5-0.224-0.5-0.5v-2h-2c-0.276 0-0.5-0.224-0.5-0.5s0.224-0.5 0.5-0.5h2v-2c0-0.276 0.224-0.5 0.5-0.5s0.5 0.224 0.5 0.5v2h2c0.276 0 0.5 0.224 0.5 0.5z" />
</svg>