<svg id="improvement_Layer_1" viewBox="0 0 24 24" fill="currentColor" width="32" height="32" data-name="Layer 1" xmlns="http://www.w3.org/2000/svg" xmlns:xlink="http://www.w3.org/1999/xlink">
    <title>improvement</title>
    <path d="M6.5 11C2.916 11 0 13.916 0 17.5S2.916 24 6.5 24 13 21.084 13 17.5 10.084 11 6.5 11zM6.5 23C3.467 23 1 20.533 1 17.5S3.467 12 6.5 12 12 14.467 12 17.5 9.533 23 6.5 23zM7.491 13.912c-0.267-0.266-0.622-0.413-1-0.413h-2e-3c-0.378 0-0.733 0.148-0.999 0.415l-1.854 1.831c-0.273 0.319-0.334 0.754-0.158 1.136S4.024 17.5 4.444 17.5h1.558v3c0 0.276 0.224 0.5 0.5 0.5s0.5-0.224 0.5-0.5v-3h1.551c0.421 0 0.792-0.238 0.967-0.621s0.113-0.819-0.19-1.167zM4.295 16.5l1.898-1.876 3e-3-3e-3C6.274 14.543 6.378 14.5 6.489 14.5c0.112 0 0.216 0.042 0.297 0.124l1.909 1.877zM11 4c0 0.552-0.448 1-1 1S9 4.552 9 4s0.448-1 1-1 1 0.448 1 1zM19.5 0h-15C2.019 0 0 2.019 0 4.5v6C0 10.776 0.224 11 0.5 11S1 10.776 1 10.5V8h22v9.5c0 1.93-1.57 3.5-3.5 3.5h-5c-0.276 0-0.5 0.224-0.5 0.5s0.224 0.5 0.5 0.5h5c2.481 0 4.5-2.019 4.5-4.5v-13C24 2.019 21.981 0 19.5 0zM23 7H1V4.5C1 2.57 2.57 1 4.5 1h15C21.43 1 23 2.57 23 4.5zM8 4c0 0.552-0.448 1-1 1S6 4.552 6 4 6.448 3 7 3 8 3.448 8 4zM16 14.996c-2e-3-0.493-0.382-0.92-0.871-0.987-0.143-0.02-0.279-6e-3-0.404 0.033-0.23 0.072-0.477-0.042-0.583-0.258l-5e-3-9e-3c-0.135-0.274 7e-3-0.607 0.3-0.694C14.614 13.029 14.801 13 14.995 13c1.059-3e-3 1.954 0.849 2.003 1.907 0.044 0.961-0.594 1.783-1.47 2.023-0.28 0.077-0.561-0.122-0.593-0.411-0.049-0.249 0.101-0.488 0.348-0.557 0.407-0.116 0.725-0.524 0.717-0.966zM5 4c0 0.552-0.448 1-1 1S3 4.552 3 4 3.448 3 4 3 5 3.448 5 4zM19.397 15.891l0.233 0.14c0.71 0.426 0.94 1.348 0.514 2.058s-1.348 0.941-2.059 0.514l-0.224-0.135c-0.817 0.606-1.446 0.906-2.458 0.999-0.319 0.03-0.579-0.255-0.525-0.571l2e-3-0.01c0.038-0.221 0.218-0.39 0.441-0.414 0.853-0.091 1.429-0.372 2-0.866 0.256-0.221 0.626-0.253 0.916-0.078l0.362 0.218c0.237 0.142 0.544 0.066 0.686-0.171s0.065-0.544-0.171-0.686l-0.37-0.222c-0.297-0.178-0.439-0.53-0.356-0.866 0.07-0.283 0.12-0.569 0.112-0.801 8e-3-0.234-0.042-0.522-0.113-0.807-0.083-0.336 0.068-0.686 0.365-0.864l0.363-0.218c0.237-0.142 0.313-0.449 0.171-0.686s-0.449-0.313-0.686-0.171l-0.355 0.213c-0.287 0.172-0.652 0.145-0.907-0.071-0.382-0.323-0.825-0.569-1.305-0.729-0.319-0.106-0.533-0.406-0.533-0.742V10.5c0-0.276-0.224-0.5-0.5-0.5s-0.5 0.224-0.5 0.5v0.432c0 0.337-0.216 0.635-0.535 0.743-0.194 0.066-0.384 0.145-0.563 0.239-0.197 0.104-0.436 0.064-0.586-0.1-5e-3-6e-3-0.01-0.011-0.015-0.017-0.221-0.241-0.156-0.621 0.132-0.775 0.182-0.097 0.371-0.182 0.568-0.252v-0.271c0-0.828 0.672-1.5 1.5-1.5s1.5 0.672 1.5 1.5v0.271c0.499 0.175 0.96 0.433 1.361 0.76l0.224-0.135c0.71-0.427 1.632-0.197 2.059 0.514 0.426 0.71 0.196 1.631-0.514 2.058l-0.233 0.14c0.07 0.313 0.103 0.603 0.103 0.891s-0.033 0.578-0.104 0.893z" />
</svg>