<svg id="improve_user_Layer_1" viewBox="0 0 24 24" fill="currentColor" width="32" height="32" data-name="Layer 1" xmlns="http://www.w3.org/2000/svg" xmlns:xlink="http://www.w3.org/1999/xlink">
    <title>improve-user</title>
    <path d="M19.487 5c1.379 0 2.5-1.121 2.5-2.5S20.866 0 19.487 0s-2.5 1.121-2.5 2.5 1.121 2.5 2.5 2.5zM19.487 1c0.827 0 1.5 0.673 1.5 1.5S20.314 4 19.487 4s-1.5-0.673-1.5-1.5 0.673-1.5 1.5-1.5zM24 9.5v4c0 1.391-0.822 2.585-2 3.149V23.5c0 0.276-0.224 0.5-0.5 0.5S21 23.776 21 23.5v-6.551C20.835 16.973 20.671 17 20.5 17H18v6.5c0 0.276-0.224 0.5-0.5 0.5S17 23.776 17 23.5v-14C17 9.224 17.224 9 17.5 9S18 9.224 18 9.5V16h2.5c1.379 0 2.5-1.121 2.5-2.5v-4C23 8.121 21.879 7 20.5 7h-2.823c-0.639 0-1.247-0.241-1.712-0.679l-5.808-5.457c-0.201-0.189-0.211-0.506-0.021-0.707s0.506-0.21 0.707-0.021l5.808 5.457C16.929 5.856 17.295 6 17.677 6H20.5C22.43 6 24 7.57 24 9.5zM6.843 16.636c0.201 0.189 0.211 0.506 0.021 0.707C6.765 17.447 6.633 17.5 6.5 17.5c-0.123 0-0.246-0.045-0.343-0.136L4 15.331v8.168c0 0.276-0.224 0.5-0.5 0.5S3 23.775 3 23.499V15.33l-2.157 2.033c-0.201 0.189-0.517 0.181-0.707-0.021-0.189-0.201-0.18-0.518 0.021-0.707l2.382-2.244c0.496-0.498 1.415-0.509 1.933 0.011zM13.843 11.636c0.201 0.189 0.211 0.506 0.021 0.707-0.099 0.104-0.231 0.157-0.364 0.157-0.123 0-0.246-0.045-0.343-0.136L11 10.331v13.168c0 0.276-0.224 0.5-0.5 0.5s-0.5-0.224-0.5-0.5V10.33l-2.157 2.033c-0.201 0.188-0.518 0.18-0.707-0.021s-0.18-0.518 0.021-0.707l2.382-2.244c0.496-0.498 1.415-0.509 1.933 0.011z" />
</svg>