<svg id="inbox_out_Layer_1" viewBox="0 0 24 24" fill="currentColor" width="32" height="32" data-name="Layer 1" xmlns="http://www.w3.org/2000/svg" xmlns:xlink="http://www.w3.org/1999/xlink">
    <title>inbox-out</title>
    <path d="M21.5 12h-3c-0.827 0-1.5 0.673-1.5 1.5 0 1.379-1.121 2.5-2.5 2.5h-5C8.121 16 7 14.879 7 13.5 7 12.673 6.327 12 5.5 12h-3C1.121 12 0 13.121 0 14.5v5C0 21.981 2.019 24 4.5 24h15c2.481 0 4.5-2.019 4.5-4.5v-5c0-1.379-1.121-2.5-2.5-2.5zM23 19.5c0 1.93-1.57 3.5-3.5 3.5h-15C2.57 23 1 21.43 1 19.5v-5C1 13.673 1.673 13 2.5 13h3C5.775 13 6 13.225 6 13.5 6 15.43 7.57 17 9.5 17h5c1.93 0 3.5-1.57 3.5-3.5 0-0.275 0.225-0.5 0.5-0.5h3c0.827 0 1.5 0.673 1.5 1.5zM7.646 4.439c-0.195-0.195-0.195-0.512 0-0.707l3.293-3.293c0.243-0.243 0.553-0.36 0.871-0.401C11.869 0.014 11.932 0 12 0s0.131 0.014 0.19 0.038c0.318 0.041 0.628 0.158 0.871 0.401l3.293 3.293c0.195 0.195 0.195 0.512 0 0.707C16.256 4.537 16.128 4.585 16 4.585s-0.256-0.049-0.354-0.146L12.5 1.293V10.5c0 0.276-0.224 0.5-0.5 0.5s-0.5-0.224-0.5-0.5V1.293L8.354 4.439c-0.195 0.195-0.512 0.195-0.708 0z" />
</svg>