<svg id="inbox_in_Layer_1" viewBox="0 0 24 24" fill="currentColor" width="32" height="32" data-name="Layer 1" xmlns="http://www.w3.org/2000/svg" xmlns:xlink="http://www.w3.org/1999/xlink">
    <title>inbox-in</title>
    <path d="M21.5 12h-3c-0.827 0-1.5 0.673-1.5 1.5 0 1.379-1.121 2.5-2.5 2.5h-5C8.121 16 7 14.879 7 13.5 7 12.673 6.327 12 5.5 12h-3C1.121 12 0 13.121 0 14.5v5C0 21.981 2.019 24 4.5 24h15c2.481 0 4.5-2.019 4.5-4.5v-5c0-1.379-1.121-2.5-2.5-2.5zM23 19.5c0 1.93-1.57 3.5-3.5 3.5h-15C2.57 23 1 21.43 1 19.5v-5C1 13.673 1.673 13 2.5 13h3C5.775 13 6 13.225 6 13.5 6 15.43 7.57 17 9.5 17h5c1.93 0 3.5-1.57 3.5-3.5 0-0.275 0.225-0.5 0.5-0.5h3c0.827 0 1.5 0.673 1.5 1.5zM7.646 7.268c-0.195-0.195-0.195-0.512 0-0.707s0.512-0.195 0.707 0l3.146 3.146V0.5c0-0.276 0.224-0.5 0.5-0.5s0.5 0.224 0.5 0.5v9.207l3.146-3.146c0.195-0.195 0.512-0.195 0.707 0s0.195 0.512 0 0.707l-3.293 3.293c-0.257 0.257-0.589 0.381-0.925 0.412C12.09 10.986 12.047 11 11.999 11s-0.091-0.015-0.135-0.027c-0.337-0.031-0.668-0.155-0.925-0.412z" />
</svg>