<svg id="inboxes_Layer_1" viewBox="0 0 24 24" fill="currentColor" width="32" height="32" data-name="Layer 1" xmlns="http://www.w3.org/2000/svg" xmlns:xlink="http://www.w3.org/1999/xlink">
    <title>inboxes</title>
    <path d="M21.5 13h-3c-0.83 0-1.5 0.67-1.5 1.5 0 1.38-1.12 2.5-2.5 2.5h-5C8.12 17 7 15.88 7 14.5 7 13.67 6.33 13 5.5 13h-3C1.12 13 0 14.12 0 15.5v4C0 21.98 2.02 24 4.5 24h15c2.48 0 4.5-2.02 4.5-4.5v-4c0-1.38-1.12-2.5-2.5-2.5zM23 19.5c0 1.93-1.57 3.5-3.5 3.5h-15C2.57 23 1 21.43 1 19.5v-4C1 14.67 1.67 14 2.5 14h3C5.78 14 6 14.22 6 14.5 6 16.43 7.57 18 9.5 18h5c1.93 0 3.5-1.57 3.5-3.5 0-0.28 0.22-0.5 0.5-0.5h3c0.83 0 1.5 0.67 1.5 1.5zM21.5 0h-3C17.67 0 17 0.67 17 1.5 17 2.88 15.88 4 14.5 4h-5C8.12 4 7 2.88 7 1.5 7 0.67 6.33 0 5.5 0h-3C1.12 0 0 1.12 0 2.5v4C0 8.98 2.02 11 4.5 11h15c2.48 0 4.5-2.02 4.5-4.5v-4C24 1.12 22.88 0 21.5 0zM23 6.5c0 1.93-1.57 3.5-3.5 3.5h-15C2.57 10 1 8.43 1 6.5v-4C1 1.67 1.67 1 2.5 1h3C5.78 1 6 1.22 6 1.5 6 3.43 7.57 5 9.5 5h5C16.43 5 18 3.43 18 1.5 18 1.22 18.22 1 18.5 1h3C22.33 1 23 1.67 23 2.5z" />
</svg>