<svg id="incense_sticks_yoga_Layer_1" viewBox="0 0 24 24" fill="currentColor" width="32" height="32" data-name="Layer 1" xmlns="http://www.w3.org/2000/svg" xmlns:xlink="http://www.w3.org/1999/xlink">
    <title>incense-sticks-yoga</title>
    <path d="M23.884 16.126C23.625 15.442 22.986 15 22.254 15h-6.135l2.87-13.395c0.058-0.27-0.114-0.536-0.385-0.594-0.266-0.06-0.535 0.114-0.594 0.384L15.095 15H12.5V0.5C12.5 0.224 12.276 0 12 0s-0.5 0.224-0.5 0.5V15H8.905L5.989 1.395C5.93 1.125 5.663 0.952 5.395 1.011 5.124 1.069 4.953 1.335 5.01 1.605L7.88 15H1.746c-0.731 0-1.371 0.442-1.63 1.126-0.261 0.688-0.073 1.446 0.478 1.934 1.75 1.547 3.822 2.537 5.843 2.835-0.84 0.491-1.576 1.163-2.134 2l-0.219 0.328c-0.153 0.23-0.091 0.54 0.139 0.693 0.228 0.152 0.54 0.092 0.693-0.139l0.219-0.328C6.157 21.915 7.868 21 9.711 21h4.578c1.844 0 3.555 0.916 4.576 2.449l0.219 0.328C19.181 23.922 19.339 24 19.5 24c0.096 0 0.192-0.027 0.277-0.084 0.229-0.153 0.292-0.463 0.139-0.693l-0.219-0.328c-0.558-0.837-1.294-1.509-2.133-2 2.022-0.299 4.094-1.288 5.842-2.835 0.551-0.487 0.738-1.246 0.478-1.934zM22.744 17.311C20.812 19.02 18.468 20 16.312 20H7.688c-2.155 0-4.5-0.98-6.433-2.689-0.286-0.254-0.294-0.595-0.205-0.83 0.043-0.113 0.22-0.48 0.695-0.48h20.508c0.476 0 0.652 0.368 0.695 0.48 0.089 0.235 0.081 0.576-0.204 0.83z" />
</svg>