<svg id="incognito_Layer_1" viewBox="0 0 24 24" fill="currentColor" width="32" height="32" data-name="Layer 1" xmlns="http://www.w3.org/2000/svg" xmlns:xlink="http://www.w3.org/1999/xlink">
    <title>incognito</title>
    <path d="M16.5 17c-1.637 0-3.005 1.135-3.385 2.656C12.778 19.57 12.395 19.5 12 19.5s-0.778 0.07-1.115 0.156C10.505 18.135 9.137 17 7.5 17 5.57 17 4 18.57 4 20.5S5.57 24 7.5 24c1.874 0 3.396-1.484 3.484-3.337 0.3-0.087 0.66-0.163 1.016-0.163s0.717 0.076 1.016 0.163C13.103 22.516 14.626 24 16.5 24c1.93 0 3.5-1.57 3.5-3.5S18.43 17 16.5 17zM7.5 23C6.122 23 5 21.879 5 20.5S6.122 18 7.5 18 10 19.121 10 20.5 8.878 23 7.5 23zM16.5 23c-1.379 0-2.5-1.121-2.5-2.5s1.121-2.5 2.5-2.5 2.5 1.121 2.5 2.5-1.121 2.5-2.5 2.5zM19.994 9.61C19.873 0.117 15.407 0 15.214 0c-0.042 0-1.042 8e-3-2.071 0.663-0.716 0.455-1.571 0.455-2.285 0C9.83 8e-3 8.828 0 8.786 0 8.593 0 4.127 0.117 4.006 9.61 1.358 10.262 0 11.186 0 12.363 0 14.751 6.037 16 12 16s12-1.249 12-3.637c0-1.177-1.357-2.102-4.006-2.753zM8.783 1c7e-3 0 0.764 0.014 1.537 0.507 1.036 0.66 2.325 0.66 3.36 0C14.453 1.014 15.209 1 15.208 1c0.037 0 3.71 0.197 3.791 8.714C18.346 10.059 16.18 11 12 11s-6.348-0.942-6.999-1.286C5.082 1.197 8.754 1.001 8.783 1zM12 15c-6.715 0-11-1.562-11-2.637 0-0.5 0.913-1.236 3.42-1.828C5.08 10.911 7.388 12 12 12s6.92-1.089 7.581-1.465C22.088 11.127 23 11.863 23 12.363 23 13.438 18.715 15 12 15z" />
</svg>