<svg id="indian_rupee_sign_Layer_1" viewBox="0 0 24 24" fill="currentColor" width="32" height="32" data-name="Layer 1" xmlns="http://www.w3.org/2000/svg" xmlns:xlink="http://www.w3.org/1999/xlink">
    <title>indian-rupee-sign</title>
    <path d="M21 6.5C21 6.78 20.78 7 20.5 7H17c0 3.86-3.14 7-7 7H4.88l10.94 9.12c0.21 0.18 0.24 0.49 0.06 0.7-0.1 0.12-0.24 0.18-0.38 0.18-0.11 0-0.23-0.04-0.32-0.12l-12-10c-0.16-0.13-0.22-0.36-0.15-0.55C3.1 13.13 3.29 13 3.5 13H10c3.31 0 6-2.69 6-6H3.5C3.22 7 3 6.78 3 6.5S3.22 6 3.5 6h12.42C15.44 3.17 12.97 1 10 1H3.5C3.22 1 3 0.78 3 0.5S3.22 0 3.5 0h17C20.78 0 21 0.22 21 0.5S20.78 1 20.5 1h-6.9c1.76 1.06 3.02 2.88 3.33 5h3.57C20.78 6 21 6.22 21 6.5z" />
</svg>