<svg id="india_map_Layer_1" viewBox="0 0 24 24" fill="currentColor" width="32" height="32" data-name="Layer 1" xmlns="http://www.w3.org/2000/svg" xmlns:xlink="http://www.w3.org/1999/xlink">
    <title>india-map</title>
    <path d="M22.966 6h-1.249c-0.468 0-0.925 0.137-1.315 0.395L17.974 7 17.833 6.859c-0.286-0.286-0.666-0.434-1.048-0.434-0.466-0.033-0.94 0.321-1.311 0.575l-3-0.5 0.022-0.042c0.29-0.552 0.137-1.233-0.362-1.607L11 4l0.586-0.586C11.851 3.149 12 2.789 12 2.414 12 1.633 11.367 1 10.586 1H10L9.544 0.555C9.179 0.199 8.689 0 8.18 0H6.696c-0.612-0.019-0.93 0.787-0.493 1.202L7.5 2.5H7.005c-0.957-0.043-1.376 1.291-0.57 1.79L7.5 5 4 8H2.75c-0.603-0.017-0.973 0.729-0.6 1.2l0.753 1.004C3.209 10.63 2.783 11.093 2.315 11 1.589 11 1 11.589 1 12.315c0 0.439 0.172 0.861 0.478 1.176C1.795 13.817 2.231 14 2.685 14H4.5c0.09 0.998 0.302 2.009 0.384 2.846 0.058 0.595 0.241 1.166 0.538 1.685L8 21.5l0.026 1.258C8.04 23.448 8.604 24 9.294 24c0.467 0 0.896-0.256 1.117-0.668l0.744-1.384c1.949-1.692 1.846-4.051 1.846-4.051l2.5-1.897 1-2h0.09c0.779 0 1.41-0.631 1.41-1.41V10h2.487l-0.587 0.629c-0.585 0.433-0.585 1.308 0 1.741l0.526 0.484c0.193 0.203 0.595 0.242 0.747-0.293 0.164-0.458 0.601-1.882 0.601-1.882 0.15-0.45 0.223-0.922 0.217-1.396L21.976 8h1.026C23.576 8 24.038 7.516 24 6.933 23.966 6.401 23.501 6 22.966 6zM21.263 7.297c-0.188 0.19-0.292 0.448-0.288 0.715l0.014 1.122c-0.149-0.087-0.322-0.135-0.502-0.135H18c-0.552 0-1 0.448-1 1v2.59c2e-3 0.268-0.246 0.443-0.5 0.41-0.379 0-0.725 0.214-0.894 0.553l-0.896 1.792-2.314 1.757c-0.257 0.195-0.404 0.51-0.395 0.833 2e-3 0.078 0.038 1.922-1.503 3.26-0.091 0.079-0.168 0.175-0.225 0.282L9.529 22.86c-0.119 0.24-0.506 0.146-0.504-0.121l-0.026-1.258c-5e-3-0.234-0.091-0.459-0.245-0.635l-2.51-2.89c-0.202-0.376-0.325-0.782-0.366-1.206-0.041-0.414-0.337-2.332-0.383-2.838-0.046-0.515-0.478-0.91-0.996-0.91H2.684c-0.649 0.072-1.037-1.121-0.18-1 0.571 0 1.084-0.317 1.339-0.828s0.201-1.111-0.141-1.568L3.249 9.002h0.75c0.239 0 0.47-0.085 0.651-0.241l3.5-3C8.649 5.356 8.598 4.512 8.054 4.17l-1.05-0.668h0.495c0.404 0 0.769-0.244 0.924-0.617s0.069-0.804-0.217-1.09L7.413 1.002h0.765c0.25 0 0.487 0.096 0.666 0.271 0.305 0.292 0.682 0.766 1.154 0.729h0.586c0.228 0 0.414 0.186 0.414 0.414 0.038 0.265-0.571 0.699-0.707 0.879-0.205 0.205-0.311 0.489-0.29 0.778s0.166 0.555 0.397 0.729l1.134 0.851c0.107 0.08 0.139 0.224 0.055 0.384-0.324 0.576 0.066 1.361 0.721 1.452l3 0.5c0.436 0.108 0.872-0.257 1.209-0.481 0.263-0.187 0.574-0.024 0.749 0.201 0.248 0.249 0.612 0.348 0.949 0.263l2.428-0.605c0.361-0.12 0.667-0.398 1.073-0.366h0.257c-0.267 0-0.524 0.107-0.71 0.296z" />
</svg>