<svg id="industry_windows_Layer_1" viewBox="0 0 24 24" fill="currentColor" width="32" height="32" data-name="Layer 1" xmlns="http://www.w3.org/2000/svg" xmlns:xlink="http://www.w3.org/1999/xlink">
    <title>industry-windows</title>
    <path d="M18.5 24h-13C2.468 24 0 21.532 0 18.5V2c0-1.103 0.897-2 2-2h1.29c0.935 0 1.757 0.663 1.954 1.577L7.293 11l3.712-3.699C11.411 6.974 11.9 6.92 12.318 7.12 12.739 7.322 13 7.738 13 8.204v2.263l4.047-3.203c0.363-0.291 0.852-0.347 1.271-0.144C18.739 7.322 19 7.738 19 8.204v2.092l3.005-2.995C22.411 6.974 22.9 6.92 23.318 7.12 23.739 7.322 24 7.738 24 8.204V18.5c0 3.032-2.468 5.5-5.5 5.5zM2 1C1.448 1 1 1.448 1 2v16.5C1 20.981 3.019 23 5.5 23h13c2.481 0 4.5-2.019 4.5-4.5V8.204c0-0.11-0.072-0.162-0.115-0.183C22.841 8 22.755 7.976 22.67 8.045l-3.817 3.809c-0.143 0.142-0.358 0.184-0.544 0.107C18.122 11.884 18 11.701 18 11.499V8.203c0-0.11-0.072-0.162-0.115-0.183s-0.129-0.045-0.215 0.024l-4.859 3.846c-0.15 0.119-0.356 0.142-0.528 0.059-0.173-0.084-0.282-0.259-0.282-0.45V8.203c0-0.11-0.072-0.162-0.115-0.183s-0.13-0.045-0.215 0.024l-3.817 3.809c-0.094 0.093-0.221 0.146-0.353 0.146H6.886c-0.235 0-0.438-0.164-0.488-0.394l-2.13-9.816C4.168 1.332 3.758 1 3.29 1zM7.5 20h-1C5.673 20 5 19.327 5 18.5v-1C5 16.673 5.673 16 6.5 16h1C8.327 16 9 16.673 9 17.5v1C9 19.327 8.327 20 7.5 20zM6.5 17C6.225 17 6 17.225 6 17.5v1C6 18.775 6.225 19 6.5 19h1C7.775 19 8 18.775 8 18.5v-1C8 17.225 7.775 17 7.5 17zM13.5 20h-1c-0.827 0-1.5-0.673-1.5-1.5v-1c0-0.827 0.673-1.5 1.5-1.5h1c0.827 0 1.5 0.673 1.5 1.5v1c0 0.827-0.673 1.5-1.5 1.5zM12.5 17c-0.275 0-0.5 0.225-0.5 0.5v1c0 0.275 0.225 0.5 0.5 0.5h1c0.275 0 0.5-0.225 0.5-0.5v-1c0-0.275-0.225-0.5-0.5-0.5zM19.5 20h-1c-0.827 0-1.5-0.673-1.5-1.5v-1c0-0.827 0.673-1.5 1.5-1.5h1c0.827 0 1.5 0.673 1.5 1.5v1c0 0.827-0.673 1.5-1.5 1.5zM18.5 17c-0.275 0-0.5 0.225-0.5 0.5v1c0 0.275 0.225 0.5 0.5 0.5h1c0.275 0 0.5-0.225 0.5-0.5v-1c0-0.275-0.225-0.5-0.5-0.5z" />
</svg>