<svg id="infinity_Layer_1" viewBox="0 0 24 24" fill="currentColor" width="32" height="32" data-name="Layer 1" xmlns="http://www.w3.org/2000/svg" xmlns:xlink="http://www.w3.org/1999/xlink">
    <title>infinity</title>
    <path d="M18.272 6c-3.349 0-5.41 3.129-6.272 4.802C11.137 9.129 9.077 6 5.728 6 2.57 6 0 8.691 0 12s2.569 6 5.728 6c3.349 0 5.41-3.129 6.272-4.802C12.863 14.871 14.923 18 18.272 18 21.43 18 24 15.309 24 12s-2.569-6-5.728-6zM5.727 17c-2.606 0-4.728-2.243-4.728-5S3.12 7 5.727 7c3.379 0 5.337 4.089 5.731 5-0.395 0.911-2.353 5-5.731 5zM18.272 17c-3.379 0-5.337-4.089-5.731-5 0.395-0.911 2.353-5 5.731-5C20.878 7 23 9.243 23 12s-2.121 5-4.728 5z" />
</svg>