<svg id="infinite_cycle_Layer_1" viewBox="0 0 24 24" fill="currentColor" width="32" height="32" data-name="Layer 1" xmlns="http://www.w3.org/2000/svg" xmlns:xlink="http://www.w3.org/1999/xlink">
    <title>infinite-cycle</title>
    <path d="M23.989 12.521C23.714 18.958 18.447 24 12 24c-4.033 0-7.789-2.067-10-5.412V22.5C2 22.776 1.776 23 1.5 23S1 22.776 1 22.5v-4C1 17.673 1.673 17 2.5 17h4C6.776 17 7 17.224 7 17.5S6.776 18 6.5 18H2.807c2.024 3.09 5.481 5 9.193 5 5.91 0 10.737-4.622 10.989-10.521 0.012-0.275 0.203-0.513 0.521-0.478 0.275 0.012 0.49 0.245 0.479 0.52zM12 1c3.712 0 7.169 1.91 9.193 5H17.5C17.224 6 17 6.224 17 6.5S17.224 7 17.5 7h4C22.327 7 23 6.327 23 5.5v-4C23 1.224 22.776 1 22.5 1S22 1.224 22 1.5v3.912C19.789 2.067 16.033 0 12 0 5.553 0 0.286 5.042 0.011 11.479-1e-3 11.755 0.214 11.988 0.49 12h0.021c0.267 0 0.488-0.21 0.5-0.479C1.263 5.622 6.09 1 12 1zM16 9c1.654 0 3 1.346 3 3s-1.346 3-3 3c-1.483 0-3.243-1.551-4-2.291C11.243 13.449 9.483 15 8 15c-1.654 0-3-1.346-3-3s1.346-3 3-3c1.483 0 3.243 1.551 4 2.291C12.757 10.551 14.517 9 16 9zM11.297 12C10.505 11.235 9.014 10 8 10c-1.103 0-2 0.897-2 2s0.897 2 2 2c1.014 0 2.505-1.235 3.297-2zM16 10c-1.014 0-2.505 1.235-3.297 2 0.792 0.765 2.283 2 3.297 2 1.103 0 2-0.897 2-2s-0.897-2-2-2z" />
</svg>