<svg id="information_Layer_1" viewBox="0 0 24 24" fill="currentColor" width="32" height="32" data-name="Layer 1" xmlns="http://www.w3.org/2000/svg" xmlns:xlink="http://www.w3.org/1999/xlink">
    <title>information</title>
    <path d="M11 1c0-0.552 0.448-1 1-1s1 0.448 1 1-0.448 1-1 1-1-0.448-1-1zM17.5 23H13V8.5C13 6.019 10.981 4 8.5 4 8.224 4 8 4.224 8 4.5S8.224 5 8.5 5C10.43 5 12 6.57 12 8.5V23H7.5C7.224 23 7 23.224 7 23.5S7.224 24 7.5 24h10c0.276 0 0.5-0.224 0.5-0.5S17.776 23 17.5 23z" />
</svg>