<svg id="info_Outline" viewBox="0 0 24 24" fill="currentColor" width="32" height="32" xmlns="http://www.w3.org/2000/svg" xmlns:xlink="http://www.w3.org/1999/xlink">
    <title>info</title>
    <path d="M12 0C5.383 0 0 5.383 0 12s5.383 12 12 12 12-5.383 12-12S18.617 0 12 0zM12 23C5.935 23 1 18.065 1 12S5.935 1 12 1 23 5.935 23 12 18.065 23 12 23zM13 11.5v7c0 0.276-0.224 0.5-0.5 0.5S12 18.776 12 18.5v-7c0-0.827-0.673-1.5-1.5-1.5-0.276 0-0.5-0.224-0.5-0.5S10.224 9 10.5 9c1.378 0 2.5 1.122 2.5 2.5zM13 6c0 0.552-0.448 1-1 1s-1-0.448-1-1 0.448-1 1-1 1 0.448 1 1z" />
</svg>