<svg id="inhaler_Layer_1" viewBox="0 0 24 24" fill="currentColor" width="32" height="32" data-name="Layer 1" xmlns="http://www.w3.org/2000/svg" xmlns:xlink="http://www.w3.org/1999/xlink">
    <title>inhaler</title>
    <path d="M2 15c0 0.552-0.448 1-1 1s-1-0.448-1-1 0.448-1 1-1 1 0.448 1 1zM1 18c-0.552 0-1 0.448-1 1s0.448 1 1 1 1-0.448 1-1-0.448-1-1-1zM1 22c-0.552 0-1 0.448-1 1s0.448 1 1 1 1-0.448 1-1-0.448-1-1-1zM5 16c-0.552 0-1 0.448-1 1s0.448 1 1 1 1-0.448 1-1-0.448-1-1-1zM5 20c-0.552 0-1 0.448-1 1s0.448 1 1 1 1-0.448 1-1-0.448-1-1-1zM23.959 2.946 20.995 19.303C20.606 21.445 18.744 23 16.567 23H11.5C10.122 23 9 21.878 9 20.5v-3c0-1.378 1.122-2.5 2.5-2.5h2.187l2.227-12.132C16.219 1.206 17.666 0 19.356 0H21.5c0.743 0 1.443 0.327 1.919 0.898 0.477 0.57 0.673 1.317 0.54 2.048zM21.845 9h-6.041l-1.21 6.59c-0.043 0.237-0.25 0.41-0.492 0.41h-2.603c-0.827 0-1.5 0.673-1.5 1.5v3c0 0.827 0.673 1.5 1.5 1.5h5.067c1.693 0 3.142-1.209 3.444-2.876zM22.65 1.539C22.364 1.197 21.944 1 21.499 1h-2.144c-1.207 0-2.241 0.862-2.459 2.049L15.987 8h6.039l0.948-5.233c0.08-0.438-0.039-0.886-0.324-1.228z" />
</svg>