<svg id="input_numeric_Layer_1" viewBox="0 0 24 24" fill="currentColor" width="32" height="32" data-name="Layer 1" xmlns="http://www.w3.org/2000/svg" xmlns:xlink="http://www.w3.org/1999/xlink">
    <title>input-numeric</title>
    <path d="M7 7.5v9C7 16.776 6.776 17 6.5 17S6 16.776 6 16.5V8.707L4.854 9.853c-0.195 0.195-0.512 0.195-0.707 0s-0.195-0.512 0-0.707l2-2C6.29 7.002 6.505 6.96 6.692 7.038S7.001 7.298 7 7.5zM24 7.5v9c0 2.481-2.019 4.5-4.5 4.5h-15C2.019 21 0 18.981 0 16.5v-9C0 5.019 2.019 3 4.5 3h15C21.981 3 24 5.019 24 7.5zM23 7.5C23 5.57 21.43 4 19.5 4h-15C2.57 4 1 5.57 1 7.5v9C1 18.43 2.57 20 4.5 20h15c1.93 0 3.5-1.57 3.5-3.5z" />
</svg>