<svg id="insert_button_circle_Layer_1" viewBox="0 0 24 24" fill="currentColor" width="32" height="32" data-name="Layer 1" xmlns="http://www.w3.org/2000/svg" xmlns:xlink="http://www.w3.org/1999/xlink">
    <title>insert-button-circle</title>
    <path d="M12 0C5.383 0 0 5.383 0 12s5.383 12 12 12 12-5.383 12-12S18.617 0 12 0zM12 23C5.935 23 1 18.065 1 12S5.935 1 12 1 23 5.935 23 12 18.065 23 12 23zM15.5 7h-7C7.673 7 7 7.673 7 8.5S7.673 10 8.5 10h7c0.827 0 1.5-0.673 1.5-1.5S16.327 7 15.5 7zM15.5 9h-7C8.224 9 8 8.776 8 8.5S8.224 8 8.5 8h7C15.776 8 16 8.224 16 8.5S15.776 9 15.5 9zM15.504 11H8.496c-0.568 0-1.079 0.315-1.334 0.822-0.255 0.508-0.204 1.106 0.148 1.58l3.49 4.301c0.285 0.383 0.722 0.604 1.2 0.604v0c0.478 0 0.915-0.22 1.186-0.587l3.517-4.335c0.339-0.456 0.39-1.055 0.135-1.562S16.071 11.001 15.504 11zM15.914 12.772l-3.517 4.335c-0.188 0.254-0.593 0.271-0.808-0.017l-3.49-4.301c-0.113-0.153-0.13-0.347-0.044-0.517S8.306 12 8.496 12h7.008c0.19 0 0.355 0.102 0.441 0.272s0.069 0.364-0.031 0.5z" />
</svg>