<svg id="insert_credit_card_Layer_1" viewBox="0 0 24 24" fill="currentColor" width="32" height="32" data-name="Layer 1" xmlns="http://www.w3.org/2000/svg" xmlns:xlink="http://www.w3.org/1999/xlink">
    <title>insert-credit-card</title>
    <path d="M24 3.5C24 1.57 22.43 0 20.5 0h-17C1.57 0 0 1.57 0 3.5 0 5.258 1.308 6.704 3 6.949V19.5C3 21.981 5.019 24 7.5 24h9c2.481 0 4.5-2.019 4.5-4.5V6.949c1.692-0.245 3-1.691 3-3.449zM8 1h2v22H8zM1 3.5c0-1.207 0.86-2.217 2-2.449v4.898C1.86 5.717 1 4.707 1 3.5zM4 19.5V1h3v21.949c-1.692-0.245-3-1.691-3-3.449zM20 19.5c0 1.93-1.57 3.5-3.5 3.5H11V1h9zM21 5.949V1.051c1.14 0.232 2 1.242 2 2.449s-0.86 2.217-2 2.449zM16 17c-1.103 0-2 0.897-2 2s0.897 2 2 2 2-0.897 2-2-0.897-2-2-2zM16 20c-0.552 0-1-0.449-1-1s0.448-1 1-1 1 0.449 1 1-0.448 1-1 1z" />
</svg>