<svg id="insert_arrows_Layer_1" viewBox="0 0 24 24" fill="currentColor" width="32" height="32" data-name="Layer 1" xmlns="http://www.w3.org/2000/svg" xmlns:xlink="http://www.w3.org/1999/xlink">
    <title>insert-arrows</title>
    <path d="M0.131 0.837C-0.056 0.633-0.041 0.316 0.163 0.13 0.368-0.055 0.684-0.041 0.869 0.163l5.474 6.002C7.413 7.361 8 8.899 8 10.499v7.21l2.153-2.07c0.198-0.19 0.517-0.185 0.707 0.014 0.191 0.199 0.186 0.516-0.014 0.707l-2.301 2.212c-0.286 0.286-0.664 0.429-1.044 0.429s-0.764-0.145-1.055-0.435L4.152 16.36c-0.199-0.191-0.205-0.508-0.014-0.707s0.51-0.204 0.707-0.014l2.153 2.07v-7.21c0-1.354-0.497-2.655-1.399-3.664zM23.5 13c-0.276 0-0.5 0.224-0.5 0.5v6c0 1.93-1.57 3.5-3.5 3.5h-15C2.57 23 1 21.43 1 19.5v-6C1 13.224 0.776 13 0.5 13S0 13.224 0 13.5v6C0 21.981 2.019 24 4.5 24h15c2.481 0 4.5-2.019 4.5-4.5v-6c0-0.276-0.224-0.5-0.5-0.5zM15.447 18.566c0.291 0.29 0.674 0.435 1.055 0.435s0.758-0.143 1.044-0.429l2.301-2.212c0.199-0.191 0.205-0.508 0.014-0.707s-0.509-0.204-0.707-0.014l-2.153 2.07v-7.21c0-1.354 0.497-2.655 1.396-3.661l5.472-6.001c0.187-0.204 0.172-0.521-0.032-0.707-0.203-0.185-0.52-0.171-0.706 0.033l-5.478 6.006C16.587 7.361 16 8.899 16 10.5v7.21l-2.153-2.07c-0.197-0.19-0.516-0.185-0.707 0.014s-0.186 0.516 0.014 0.707z" />
</svg>