<svg id="insight_Layer_1" viewBox="0 0 24 24" fill="currentColor" width="32" height="32" data-name="Layer 1" xmlns="http://www.w3.org/2000/svg" xmlns:xlink="http://www.w3.org/1999/xlink">
    <title>insight</title>
    <path d="M17.987 2.28c-1.912-1.705-4.479-2.514-7.05-2.218C6.944 0.52 3.644 3.737 3.091 7.709c-0.421 3.014 0.678 6.01 2.939 8.013C7.282 16.831 8 18.447 8 20.153v0.348c0 1.93 1.57 3.5 3.5 3.5h1c1.93 0 3.5-1.57 3.5-3.5v-0.353c0-1.686 0.752-3.309 2.118-4.571C19.949 13.883 21 11.486 21 9.001c0-2.563-1.098-5.012-3.013-6.721zM15 20.5c0 1.378-1.121 2.5-2.5 2.5h-1C10.121 23 9 21.878 9 20.5v-0.348c0-0.39-0.041-0.774-0.104-1.152h6.213C15.043 19.378 15 19.76 15 20.147zM17.439 14.842c-0.987 0.912-1.695 1.993-2.086 3.158H8.662c-0.374-1.161-1.047-2.21-1.969-3.027-2.01-1.78-2.986-4.444-2.612-7.126 0.491-3.528 3.422-6.384 6.969-6.792C11.373 1.018 11.694 1 12.012 1c1.968 0 3.825 0.703 5.311 2.027 1.701 1.518 2.678 3.695 2.678 5.973 0 2.24-0.909 4.315-2.562 5.842zM15 5h-0.684c0.021-0.147 0.036-0.297 0.036-0.43 0-1.014-0.825-1.839-1.84-1.839v0c-0.49 0-0.952 0.191-1.3 0.539s-0.539 0.81-0.539 1.301c0 0.133 0.015 0.282 0.036 0.43H10c-1.103 0-2 0.897-2 2v0.694C7.857 7.674 7.713 7.661 7.584 7.661c-1.015 0-1.84 0.825-1.84 1.84s0.825 1.84 1.839 1.84c0.13 0 0.274-0.014 0.417-0.034v0.694c0 1.103 0.897 2 2 2h5c1.103 0 2-0.897 2-2v-1.487c0-0.158-0.075-0.308-0.202-0.402s-0.292-0.12-0.443-0.077c-0.487 0.148-0.914 0.216-1.104 0.216-0.413 0-0.75-0.336-0.75-0.75s0.337-0.75 0.75-0.75c0.188 0 0.614 0.067 1.105 0.216 0.149 0.047 0.315 0.018 0.442-0.077C16.925 8.796 17 8.647 17 8.489V7.002c0-1.103-0.897-2-2-2.002zM16 7.844c-0.291-0.06-0.556-0.094-0.75-0.094-0.965 0-1.75 0.785-1.75 1.75s0.785 1.75 1.75 1.75c0.196 0 0.46-0.034 0.75-0.094V12c0 0.551-0.448 1-1 1h-5c-0.552 0-1-0.449-1-1v-1.3c0-0.153-0.07-0.298-0.19-0.393C8.721 10.237 8.612 10.2 8.5 10.2c-0.039 0-0.078 4e-3-0.117 0.014-0.386 0.093-0.666 0.126-0.8 0.126-0.463 0-0.839-0.377-0.839-0.84s0.377-0.84 0.84-0.84c0.133 0 0.412 0.033 0.799 0.126 0.149 0.036 0.306 1e-3 0.427-0.093C8.93 8.598 9 8.453 9 8.3V6.999c0-0.551 0.448-1 1-1h1.316c0.153 0 0.298-0.07 0.394-0.191 0.095-0.121 0.129-0.278 0.093-0.427-0.096-0.393-0.13-0.676-0.13-0.812 0-0.224 0.088-0.435 0.246-0.593 0.159-0.159 0.369-0.246 0.593-0.246v0c0.463 0 0.84 0.376 0.84 0.839 0 0.134-0.034 0.418-0.129 0.813-0.035 0.149 0 0.306 0.094 0.426 0.095 0.12 0.239 0.19 0.393 0.19H15c0.552 0 1 0.449 1 1z" />
</svg>