<svg id="insight_alt_Layer_1" viewBox="0 0 24 24" fill="currentColor" width="32" height="32" data-name="Layer 1" xmlns="http://www.w3.org/2000/svg" xmlns:xlink="http://www.w3.org/1999/xlink">
    <title>insight-alt</title>
    <path d="M17.987 2.28c-1.912-1.705-4.477-2.514-7.05-2.218C6.944 0.52 3.644 3.737 3.091 7.709c-0.421 3.014 0.678 6.01 2.939 8.013C7.282 16.831 8 18.447 8 20.153v0.348c0 1.93 1.57 3.5 3.5 3.5h1c1.93 0 3.5-1.57 3.5-3.5v-0.353c0-1.686 0.752-3.309 2.118-4.571C19.949 13.883 21 11.486 21 9.001c0-2.563-1.098-5.012-3.013-6.721zM15 20.5c0 1.378-1.121 2.5-2.5 2.5h-1C10.121 23 9 21.878 9 20.5v-0.348c0-0.39-0.041-0.774-0.104-1.152h6.213C15.043 19.378 15 19.76 15 20.147zM17.439 14.842c-0.987 0.912-1.695 1.993-2.086 3.158H8.662c-0.374-1.161-1.047-2.21-1.969-3.027-2.01-1.78-2.986-4.444-2.612-7.126 0.491-3.528 3.422-6.384 6.969-6.792C11.373 1.018 11.694 1 12.012 1c1.968 0 3.825 0.703 5.311 2.027 1.701 1.518 2.678 3.695 2.678 5.973 0 2.24-0.909 4.315-2.562 5.842zM12 7c-1.103 0-2 0.897-2 2s0.897 2 2 2 2-0.897 2-2-0.897-2-2-2zM12 10c-0.552 0-1-0.449-1-1s0.448-1 1-1 1 0.449 1 1-0.448 1-1 1zM17.331 7.096c0.101-0.388 0.044-0.792-0.158-1.136-0.203-0.346-0.528-0.592-0.917-0.692-0.386-0.101-0.791-0.044-1.138 0.159l-0.222 0.131c-0.408-0.34-0.882-0.606-1.396-0.786V4.501c0-0.827-0.673-1.5-1.5-1.5s-1.5 0.673-1.5 1.5v0.271c-0.515 0.18-0.988 0.446-1.396 0.786L8.881 5.427c-0.345-0.203-0.75-0.26-1.137-0.159C7.355 5.369 7.03 5.615 6.828 5.96 6.625 6.305 6.568 6.709 6.669 7.097S7.016 7.81 7.361 8.014l0.232 0.137C7.53 8.45 7.499 8.727 7.499 9.001s0.03 0.551 0.094 0.85L7.361 9.988c-0.346 0.203-0.592 0.528-0.692 0.917-0.101 0.388-0.044 0.792 0.158 1.136 0.203 0.346 0.528 0.591 0.917 0.692 0.388 0.1 0.792 0.044 1.138-0.159l0.222-0.13c0.408 0.339 0.882 0.606 1.396 0.786v0.271c0 0.827 0.673 1.5 1.5 1.5s1.5-0.673 1.5-1.5V13.23c0.515-0.18 0.988-0.446 1.396-0.786l0.223 0.131c0.345 0.203 0.749 0.259 1.137 0.159 0.389-0.101 0.714-0.347 0.916-0.692 0.203-0.345 0.26-0.749 0.159-1.137s-0.347-0.713-0.692-0.917l-0.232-0.137c0.063-0.299 0.094-0.576 0.094-0.85s-0.03-0.551-0.094-0.85l0.232-0.137c0.346-0.203 0.592-0.528 0.692-0.918zM15.35 8.045C15.453 8.406 15.5 8.709 15.5 9s-0.048 0.594-0.15 0.955c-0.062 0.219 0.03 0.453 0.228 0.568l0.556 0.327c0.115 0.068 0.197 0.176 0.23 0.305s0.015 0.264-0.054 0.379c-0.067 0.115-0.176 0.197-0.305 0.23-0.129 0.036-0.265 0.015-0.379-0.052l-0.54-0.318c-0.196-0.115-0.446-0.083-0.607 0.078-0.43 0.43-0.984 0.742-1.604 0.903-0.221 0.057-0.375 0.256-0.375 0.484v0.642c0 0.276-0.225 0.5-0.5 0.5s-0.5-0.224-0.5-0.5v-0.642c0-0.228-0.154-0.427-0.375-0.484-0.619-0.161-1.174-0.473-1.604-0.903-0.096-0.097-0.225-0.147-0.354-0.147-0.087 0-0.175 0.022-0.254 0.069l-0.539 0.317c-0.116 0.069-0.251 0.088-0.38 0.053-0.129-0.033-0.237-0.115-0.306-0.231-0.067-0.115-0.086-0.249-0.053-0.378s0.115-0.237 0.23-0.305l0.556-0.327c0.197-0.116 0.29-0.349 0.228-0.568C8.546 9.594 8.499 9.291 8.499 9s0.048-0.594 0.15-0.955c0.062-0.219-0.03-0.453-0.228-0.568L7.865 7.15C7.75 7.082 7.668 6.974 7.635 6.845S7.62 6.581 7.689 6.466c0.067-0.115 0.176-0.197 0.305-0.23 0.13-0.035 0.266-0.014 0.379 0.053l0.54 0.318C9.11 6.724 9.361 6.691 9.52 6.53c0.431-0.431 0.985-0.743 1.604-0.903 0.221-0.057 0.375-0.256 0.375-0.484V4.501c0-0.276 0.225-0.5 0.5-0.5s0.5 0.224 0.5 0.5v0.642c0 0.228 0.154 0.427 0.375 0.484 0.618 0.16 1.173 0.473 1.604 0.903 0.16 0.16 0.41 0.193 0.607 0.077l0.539-0.317c0.115-0.067 0.25-0.086 0.38-0.053 0.129 0.034 0.237 0.115 0.306 0.231 0.067 0.115 0.086 0.249 0.053 0.378s-0.115 0.237-0.23 0.305l-0.556 0.327c-0.197 0.116-0.29 0.349-0.227 0.567z" />
</svg>