<svg id="insight_head_Layer_1" viewBox="0 0 24 24" fill="currentColor" width="32" height="32" data-name="Layer 1" xmlns="http://www.w3.org/2000/svg" xmlns:xlink="http://www.w3.org/1999/xlink">
    <title>insight-head</title>
    <path d="M22.734 16.232c-0.129 0.245-0.432 0.339-0.675 0.21-0.244-0.128-0.339-0.43-0.21-0.675 0.85-1.621 1.223-3.511 1.078-5.465-0.332-4.493-4.02-8.528-8.395-9.187C10.871 0.567 7.231 2.053 5.025 5c-1.419 1.754-4.026 7.678-4.026 8.545 7e-3 0.203 0.107 0.454 0.546 0.454h0.956c0.236 0 0.438 0.165 0.487 0.396l0.601 2.83c0.341 1.607 1.78 2.773 3.424 2.773h1.486c0.276 0 0.5 0.224 0.5 0.5v1c0 0.827 0.673 1.5 1.5 1.5h8c0.692 0 1.5-0.393 1.5-1.5 0-0.276 0.224-0.5 0.5-0.5s0.5 0.224 0.5 0.5c0 1.472-1.028 2.5-2.5 2.5h-8c-1.379 0-2.5-1.121-2.5-2.5v-0.5H7.013c-2.113 0-3.964-1.5-4.402-3.566l-0.517-2.434H1.545c-1.134 0-1.546-0.869-1.546-1.454 0-1.284 2.852-7.447 4.237-9.159 2.417-3.226 6.43-4.864 10.446-4.257 4.818 0.725 8.879 5.161 9.244 10.101 0.158 2.141-0.254 4.217-1.192 6.003zM18 11c0 1.198-0.441 2.284-1.146 3.146l4 4c0.195 0.195 0.195 0.512 0 0.707-0.098 0.098-0.226 0.146-0.354 0.146s-0.256-0.049-0.354-0.146l-4-4c-0.862 0.705-1.948 1.146-3.146 1.146-2.757 0-5-2.243-5-5s2.243-5 5-5 5 2.243 5 5.001zM17 11c0-2.206-1.794-4-4-4s-4 1.794-4 4 1.794 4 4 4 4-1.794 4-4z" />
</svg>