<svg id="insomnia_Layer_1" viewBox="0 0 24 24" fill="currentColor" width="32" height="32" data-name="Layer 1" xmlns="http://www.w3.org/2000/svg" xmlns:xlink="http://www.w3.org/1999/xlink">
    <title>insomnia</title>
    <path d="M6.301 5.74C6.418 6.046 6.665 6.272 6.98 6.36 7.296 6.451 7.625 6.384 7.893 6.175l0.729-0.596 0.518 1.78c0.107 0.307 0.359 0.536 0.675 0.613C9.892 7.992 9.969 8 10.045 8c0.239 0 0.472-0.09 0.65-0.256 0.2-0.185 0.312-0.446 0.307-0.71V2.193c0-0.012 0-0.024-1e-3-0.036-0.027-0.373-0.256-0.699-0.597-0.852-0.342-0.151-0.738-0.104-1.021 0.115L8.502 2.061 8.113 0.716C8.005 0.394 7.746 0.143 7.421 0.045c-0.326-0.1-0.68-0.033-0.949 0.175L5.533 0.947C5.14 1.253 4.985 1.773 5.146 2.236zM6.144 1.738 7.157 1.014l0.58 2.01C7.782 3.18 7.901 3.305 8.055 3.358 8.207 3.412 8.379 3.386 8.511 3.29l1.49-1.066c0 0 0.09 4.832 0.09 4.832L9.37 4.576C9.323 4.415 9.199 4.288 9.038 4.238 8.989 4.223 8.939 4.216 8.89 4.216c-0.114 0-0.226 0.039-0.316 0.113L7.243 5.407 6.091 1.917c-0.022-0.064 0-0.136 0.053-0.179zM13.956 8.002c0.077 0 0.154-9e-3 0.23-0.028 0.315-0.077 0.567-0.307 0.684-0.639l0.51-1.754 0.737 0.604c0.258 0.2 0.586 0.262 0.902 0.177 0.314-0.088 0.562-0.314 0.688-0.643l1.147-3.475c0.162-0.47 8e-3-0.99-0.387-1.297L17.529 0.22c-0.268-0.208-0.621-0.274-0.95-0.175-0.325 0.099-0.583 0.35-0.697 0.691L15.5 2.06 14.63 1.428c-0.296-0.229-0.691-0.276-1.031-0.124-0.342 0.152-0.57 0.479-0.599 0.851v0.037 4.836c-4e-3 0.272 0.107 0.533 0.305 0.717 0.18 0.167 0.413 0.257 0.651 0.257zM14 2.228 15.489 3.29c0.132 0.097 0.302 0.122 0.456 0.068 0.154-0.053 0.273-0.178 0.318-0.334l0.654-2.013 0.938 0.726c0.055 0.043 0.076 0.114 0.052 0.187L16.74 5.403 15.427 4.329c-0.131-0.106-0.305-0.141-0.465-0.091s-0.285 0.177-0.332 0.338L14 7.037zM18.898 23.198c0.167 0.22 0.124 0.534-0.096 0.701-0.22 0.166-0.533 0.124-0.701-0.096C16.768 22.048 14.488 21 11.999 21s-4.769 1.048-6.102 2.803C5.799 23.932 5.649 24 5.499 24c-0.105 0-0.211-0.033-0.302-0.102-0.22-0.167-0.262-0.481-0.095-0.701C6.623 21.195 9.202 20 12 20s5.377 1.195 6.898 3.198zM7.5 14.5c0 2.481 2.019 4.5 4.5 4.5s4.5-2.019 4.5-4.5S14.481 10 12 10s-4.5 2.019-4.5 4.5zM12 11c1.93 0 3.5 1.57 3.5 3.5S13.93 18 12 18s-3.5-1.57-3.5-3.5S10.07 11 12 11zM24 11.5c0 1.31-0.053 2.696-0.156 4.12-0.161 2.229-1.968 4.013-4.204 4.149-0.632 0.039-1.341 0.077-2.118 0.111h-0.021c-0.267 0-0.488-0.21-0.5-0.479-0.012-0.276 0.203-0.509 0.479-0.521 0.77-0.032 1.473-0.07 2.1-0.109 1.738-0.106 3.144-1.492 3.268-3.224 0.103-1.4 0.154-2.763 0.154-4.048s-0.052-2.647-0.154-4.048c-0.104-1.438-1.104-2.679-2.487-3.087-0.265-0.078-0.416-0.356-0.338-0.621 0.079-0.265 0.36-0.414 0.621-0.338 1.781 0.525 3.067 2.122 3.202 3.974C23.95 8.803 24.002 10.19 24 11.5zM6.479 19.881c-0.777-0.034-1.487-0.072-2.119-0.111-2.235-0.137-4.042-1.921-4.204-4.149C0.052 14.193 0 12.807 0 11.501s0.053-2.692 0.156-4.12C0.29 5.529 1.577 3.933 3.358 3.407 3.625 3.332 3.901 3.48 3.979 3.745S3.906 4.288 3.641 4.366C2.257 4.774 1.257 6.015 1.153 7.453 1.051 8.857 1 10.219 1 11.501s0.052 2.644 0.153 4.048c0.125 1.731 1.53 3.117 3.268 3.224 0.627 0.039 1.33 0.077 2.1 0.109 0.276 0.013 0.49 0.245 0.478 0.521-0.012 0.269-0.233 0.479-0.499 0.479z" />
</svg>