<svg id="integral_Layer_1" viewBox="0 0 24 24" fill="currentColor" width="32" height="32" data-name="Layer 1" xmlns="http://www.w3.org/2000/svg" xmlns:xlink="http://www.w3.org/1999/xlink">
    <title>integral</title>
    <path d="M9.75 24C8.233 24 7 22.767 7 21.25V20.5C7 20.224 7.224 20 7.5 20S8 20.224 8 20.5v0.75C8 22.215 8.785 23 9.75 23s1.75-0.785 1.75-1.75V2.75C11.5 1.233 12.733 0 14.25 0S17 1.233 17 2.75V3.5C17 3.776 16.776 4 16.5 4S16 3.776 16 3.5V2.75C16 1.785 15.215 1 14.25 1S12.5 1.785 12.5 2.75v18.5c0 1.517-1.233 2.75-2.75 2.75z" />
</svg>