<svg id="interpersonal_skill_Layer_1" viewBox="0 0 24 24" fill="currentColor" width="32" height="32" data-name="Layer 1" xmlns="http://www.w3.org/2000/svg" xmlns:xlink="http://www.w3.org/1999/xlink">
    <title>interpersonal-skill</title>
    <path d="M12 15c-0.276 0-0.5-0.224-0.5-0.5v-5C11.5 9.224 11.724 9 12 9s0.5 0.224 0.5 0.5v5c0 0.276-0.224 0.5-0.5 0.5zM8.5 9.146c-0.276 0-0.5 0.224-0.5 0.5 0 0.617-0.37 1.164-0.943 1.393l-2.485 0.994C3.617 12.415 3 13.326 3 14.354c0 0.276 0.224 0.5 0.5 0.5S4 14.63 4 14.354c0-0.617 0.37-1.164 0.943-1.393l2.485-0.994C8.383 11.585 9 10.674 9 9.646c0-0.276-0.224-0.5-0.5-0.5zM20 14.354c0 0.276 0.224 0.5 0.5 0.5s0.5-0.224 0.5-0.5c0-1.028-0.616-1.939-1.571-2.321l-2.486-0.994c-0.572-0.229-0.942-0.776-0.942-1.393 0-0.276-0.224-0.5-0.5-0.5s-0.5 0.224-0.5 0.5c0 1.028 0.616 1.939 1.571 2.321l2.486 0.994C19.63 13.19 20 13.737 20 14.354zM1.5 18c0-1.103 0.897-2 2-2s2 0.897 2 2-0.897 2-2 2-2-0.897-2-2zM2.5 18c0 0.551 0.449 1 1 1s1-0.449 1-1-0.449-1-1-1-1 0.449-1 1zM10 2c0-1.103 0.897-2 2-2s2 0.897 2 2-0.897 2-2 2-2-0.897-2-2zM11 2c0 0.551 0.449 1 1 1s1-0.449 1-1-0.449-1-1-1-1 0.449-1 1zM20.5 16c1.103 0 2 0.897 2 2s-0.897 2-2 2-2-0.897-2-2 0.897-2 2-2zM20.5 17c-0.552 0-1 0.449-1 1s0.448 1 1 1 1-0.449 1-1-0.448-1-1-1zM23.968 23.323C23.442 21.934 22.048 21 20.5 21s-2.941 0.934-3.468 2.323c-0.098 0.258 0.032 0.547 0.291 0.645 0.257 0.098 0.546-0.033 0.645-0.291C18.348 22.674 19.365 22 20.5 22s2.152 0.674 2.532 1.677C23.108 23.877 23.298 24 23.5 24c0.059 0 0.119-0.01 0.177-0.032 0.259-0.098 0.389-0.387 0.291-0.645zM12 16c1.103 0 2 0.897 2 2s-0.897 2-2 2-2-0.897-2-2 0.897-2 2-2zM11 18c0 0.551 0.449 1 1 1s1-0.449 1-1-0.449-1-1-1-1 0.449-1 1zM12 21c-1.548 0-2.941 0.934-3.468 2.323-0.098 0.258 0.032 0.547 0.291 0.645 0.26 0.098 0.546-0.032 0.645-0.291C9.848 22.674 10.865 22 12 22s2.152 0.674 2.532 1.677C14.608 23.877 14.798 24 15 24c0.059 0 0.119-0.01 0.177-0.032 0.259-0.098 0.389-0.387 0.291-0.645C14.942 21.934 13.548 21 12 21zM3.5 21c-1.548 0-2.941 0.934-3.468 2.323-0.098 0.258 0.032 0.547 0.291 0.645s0.547-0.032 0.645-0.291C1.348 22.674 2.365 22 3.5 22s2.152 0.674 2.532 1.677C6.108 23.877 6.298 24 6.5 24c0.059 0 0.119-0.01 0.177-0.032 0.258-0.098 0.388-0.387 0.291-0.645C6.442 21.934 5.048 21 3.5 21zM8.823 7.968c0.26 0.098 0.546-0.032 0.645-0.291C9.848 6.674 10.865 6 12 6s2.152 0.674 2.532 1.677C14.608 7.877 14.798 8 15 8c0.059 0 0.119-0.01 0.177-0.032 0.259-0.098 0.389-0.387 0.291-0.645C14.942 5.934 13.548 5 12 5S9.059 5.934 8.532 7.323C8.434 7.581 8.564 7.87 8.823 7.968z" />
</svg>