<svg id="internet_speed_wifi_Layer_1" viewBox="0 0 24 24" fill="currentColor" width="32" height="32" data-name="Layer 1" xmlns="http://www.w3.org/2000/svg" xmlns:xlink="http://www.w3.org/1999/xlink">
    <title>internet-speed-wifi</title>
    <path d="M6.343 13.343c-0.155 0.155-0.303 0.315-0.443 0.48-0.099 0.116-0.24 0.176-0.381 0.176-0.115 0-0.229-0.039-0.324-0.119-0.21-0.179-0.236-0.495-0.058-0.705 0.157-0.185 0.324-0.365 0.499-0.54 2.631-2.632 6.677-3.373 10.07-1.84 0.251 0.113 0.363 0.41 0.25 0.661-0.114 0.252-0.409 0.363-0.662 0.25-3.014-1.362-6.611-0.704-8.951 1.637zM20.709 6.784c0.227 0.16 0.537 0.109 0.698-0.116 0.16-0.225 0.108-0.537-0.116-0.697C14.908 1.409 6.242 2.128 0.687 7.686 0.495 7.878 0.309 8.073 0.129 8.272-0.056 8.477-0.04 8.793 0.165 8.979 0.261 9.065 0.381 9.108 0.5 9.108c0.136 0 0.272-0.056 0.371-0.165 0.168-0.187 0.342-0.37 0.522-0.549 5.208-5.21 13.332-5.887 19.316-1.61zM23.854 7.853 13.717 17.99C13.893 18.287 14 18.63 14 19c0 1.103-0.897 2-2 2s-2-0.897-2-2 0.897-2 2-2c0.37 0 0.712 0.108 1.01 0.283L23.147 7.146c0.195-0.195 0.512-0.195 0.707 0s0.195 0.512 0 0.707zM13 18.999c0-0.551-0.449-1-1-1s-1 0.449-1 1 0.449 1 1 1 1-0.449 1-1z" />
</svg>