<svg id="interrogation_Outline" viewBox="0 0 24 24" fill="currentColor" width="32" height="32" xmlns="http://www.w3.org/2000/svg" xmlns:xlink="http://www.w3.org/1999/xlink">
    <title>interrogation</title>
    <path d="M13 18c0 0.552-0.448 1-1 1s-1-0.448-1-1 0.448-1 1-1 1 0.448 1 1zM12.936 5.107c-1.221-0.279-2.47 0-3.428 0.765C8.55 6.636 8 7.776 8 9 8 9.276 8.224 9.5 8.5 9.5S9 9.276 9 9c0-0.918 0.412-1.773 1.131-2.347s1.661-0.782 2.582-0.572c1.074 0.245 1.96 1.131 2.205 2.205 0.307 1.345-0.285 2.688-1.473 3.343-1.218 0.672-1.946 1.832-1.946 3.103V15c0 0.276 0.224 0.5 0.5 0.5s0.5-0.224 0.5-0.5v-0.268c0-0.901 0.534-1.733 1.428-2.227 1.583-0.872 2.373-2.657 1.965-4.441-0.333-1.462-1.495-2.624-2.956-2.957zM24 12c0 6.617-5.383 12-12 12S0 18.617 0 12 5.383 0 12 0 24 5.383 24 12zM23 12c0-6.065-4.935-11-11-11S1 5.935 1 12 5.935 23 12 23s11-4.935 11-11z" />
</svg>