<svg id="internet_security_Layer_1" viewBox="0 0 24 24" fill="currentColor" width="32" height="32" data-name="Layer 1" xmlns="http://www.w3.org/2000/svg" xmlns:xlink="http://www.w3.org/1999/xlink">
    <title>internet-security</title>
    <path d="M12.485 23.577c0.043-0.157-0.038-0.325-0.143-0.441-0.038-0.035-2.664-2.544-4.219-6.135h2.378c0.276 0 0.5-0.224 0.5-0.5s-0.224-0.5-0.5-0.5H7.732c-0.439-1.247-0.731-2.593-0.731-4s0.292-2.753 0.731-4h14.51c0.204 0.518 0.375 1.053 0.498 1.608 0.06 0.269 0.325 0.441 0.597 0.38 0.27-0.06 0.439-0.327 0.38-0.597C22.51 3.955 17.592 9e-3 12.017 0 5.396-9e-3-1e-3 5.377 0 12c0 6.617 5.383 12 12 12 0.244 1e-3 0.459-0.187 0.485-0.423zM8.122 7C9.351 4.161 11.239 2.008 12 1.211 12.768 2.013 14.665 4.166 15.888 7zM21.794 7h-4.826c-1.07-2.667-2.71-4.775-3.725-5.92 3.666 0.424 6.887 2.688 8.551 5.92zM10.76 1.075C9.741 2.219 8.096 4.332 7.029 7H2.214c1.645-3.206 4.812-5.504 8.546-5.925zM1.764 8h4.905C6.265 9.248 6 10.589 6 12s0.265 2.752 0.669 4H1.764C1.277 14.758 1 13.412 1 12s0.277-2.758 0.764-4zM2.214 17h4.815c1.067 2.669 2.712 4.781 3.731 5.925C7.026 22.504 3.859 20.206 2.214 17zM22 15.351V13.5c0-1.93-1.57-3.5-3.5-3.5S15 11.57 15 13.5v1.851c-1.178 0.564-2 1.758-2 3.149v2c0 1.93 1.57 3.5 3.5 3.5h4c1.93 0 3.5-1.57 3.5-3.5v-2c0-1.391-0.822-2.585-2-3.149zM16 13.5c0-1.378 1.121-2.5 2.5-2.5s2.5 1.122 2.5 2.5v1.551C20.835 15.027 20.671 15 20.5 15h-4c-0.171 0-0.335 0.027-0.5 0.051zM23 20.5c0 1.378-1.121 2.5-2.5 2.5h-4c-1.379 0-2.5-1.122-2.5-2.5v-2c0-1.378 1.121-2.5 2.5-2.5h4c1.379 0 2.5 1.122 2.5 2.5zM19.5 19.5c0 0.552-0.448 1-1 1s-1-0.448-1-1 0.448-1 1-1 1 0.448 1 1z" />
</svg>