<svg id="introduction_Layer_1" viewBox="0 0 24 24" fill="currentColor" width="32" height="32" data-name="Layer 1" xmlns="http://www.w3.org/2000/svg" xmlns:xlink="http://www.w3.org/1999/xlink">
    <title>introduction</title>
    <path d="M8 13c2.206 0 4-1.794 4-4s-1.794-4-4-4-4 1.794-4 4 1.794 4 4 4zM8 6c1.654 0 3 1.346 3 3s-1.346 3-3 3-3-1.346-3-3 1.346-3 3-3zM15 21.5v2c0 0.276-0.224 0.5-0.5 0.5S14 23.776 14 23.5v-2c0-3.032-2.467-5.5-5.5-5.5h-7C0.673 16 0 15.327 0 14.5v-9C0 5.224 0.224 5 0.5 5S1 5.224 1 5.5v9C1 14.775 1.224 15 1.5 15h7c3.584 0 6.5 2.916 6.5 6.5zM5 18.5v5C5 23.776 4.776 24 4.5 24S4 23.776 4 23.5v-5C4 18.224 4.224 18 4.5 18S5 18.224 5 18.5zM21.499 0l-5 2e-3C15.121 2e-3 14 1.125 14 2.503V9.71c2e-3 0.472 0.259 0.904 0.673 1.131 0.193 0.105 0.406 0.158 0.619 0.158 0.242 0 0.483-0.067 0.694-0.203 0.034-0.021 0.064-0.047 0.092-0.076l1.636-1.715 3.788-3e-3c1.377 0 2.498-1.123 2.498-2.5V2.5C24 1.121 22.878 0 21.499 0zM23 6.502c0 0.826-0.672 1.499-1.499 1.5L17.5 8.005c-0.137 0-0.267 0.056-0.361 0.155l-1.732 1.815c-0.113 0.053-0.213 9e-3-0.254-0.012-0.045-0.025-0.151-0.1-0.151-0.254V2.503C15 1.676 15.673 1.003 16.5 1.002l5-2e-3c0.828 0 1.501 0.673 1.501 1.5z" />
</svg>