<svg id="inventory_alt_Layer_1" viewBox="0 0 24 24" fill="currentColor" width="32" height="32" data-name="Layer 1" xmlns="http://www.w3.org/2000/svg" xmlns:xlink="http://www.w3.org/1999/xlink">
    <title>inventory-alt</title>
    <path d="M9.854 11.854 7.265 14.443c-0.372 0.372-0.858 0.559-1.346 0.559-0.46 0-0.92-0.166-1.286-0.502l-1.478-1.41c-0.2-0.19-0.207-0.507-0.017-0.707 0.19-0.199 0.508-0.207 0.707-0.017l1.471 1.404c0.351 0.319 0.9 0.311 1.242-0.034l2.589-2.589c0.195-0.195 0.512-0.195 0.707 0s0.195 0.512 0 0.707zM10.5 23h-6C2.57 23 1 21.43 1 19.5v-13C1 4.57 2.57 3 4.5 3h1C5.776 3 6 2.776 6 2.5 6 1.673 6.673 1 7.5 1h3C11.327 1 12 1.673 12 2.5 12 2.776 12.224 3 12.5 3h1C15.43 3 17 4.57 17 6.5v4c0 0.276 0.224 0.5 0.5 0.5s0.5-0.224 0.5-0.5v-4C18 4.019 15.981 2 13.5 2h-0.55c-0.232-1.14-1.242-2-2.45-2h-3C6.292 0 5.283 0.86 5.05 2H4.5C2.019 2 0 4.019 0 6.5v13C0 21.981 2.019 24 4.5 24h6c0.276 0 0.5-0.224 0.5-0.5S10.776 23 10.5 23zM9.146 16.146 6.557 18.735c-0.342 0.345-0.891 0.354-1.242 0.034l-1.471-1.403c-0.199-0.191-0.517-0.184-0.707 0.017-0.19 0.199-0.183 0.516 0.017 0.706l1.478 1.41c0.366 0.336 0.826 0.502 1.286 0.502 0.487 0 0.974-0.187 1.346-0.559l2.589-2.589c0.195-0.195 0.195-0.512 0-0.707s-0.512-0.195-0.707 0zM19.5 16h-3c-0.276 0-0.5 0.224-0.5 0.5s0.224 0.5 0.5 0.5h3c0.276 0 0.5-0.224 0.5-0.5S19.776 16 19.5 16zM24 16.5v4c0 1.93-1.57 3.5-3.5 3.5h-5c-1.93 0-3.5-1.57-3.5-3.5v-4c0-1.93 1.57-3.5 3.5-3.5h5c1.93 0 3.5 1.57 3.5 3.5zM23 16.5c0-1.379-1.121-2.5-2.5-2.5h-5c-1.379 0-2.5 1.121-2.5 2.5v4c0 1.379 1.121 2.5 2.5 2.5h5c1.379 0 2.5-1.121 2.5-2.5zM15 8.5C15 8.224 14.776 8 14.5 8h-3C11.224 8 11 8.224 11 8.5S11.224 9 11.5 9h3C14.776 9 15 8.776 15 8.5zM9.854 6.146c-0.195-0.195-0.512-0.195-0.707 0L6.558 8.735C6.214 9.078 5.666 9.089 5.316 8.769L3.845 7.365C3.646 7.176 3.328 7.183 3.138 7.382c-0.19 0.2-0.183 0.516 0.017 0.707L4.633 9.5c0.366 0.335 0.826 0.501 1.286 0.501 0.488 0 0.975-0.187 1.346-0.559l2.589-2.589c0.195-0.195 0.195-0.512 0-0.707z" />
</svg>