<svg id="investment_Layer_1" viewBox="0 0 24 24" fill="currentColor" width="32" height="32" data-name="Layer 1" xmlns="http://www.w3.org/2000/svg" xmlns:xlink="http://www.w3.org/1999/xlink">
    <title>investment</title>
    <path d="M6.5 10h4c1.378 0 2.5-1.208 2.5-2.694 0-1.645-1.678-3.628-3.228-4.436 0.378-0.27 0.777-0.634 1.058-1.102 0.218-0.362 0.226-0.814 0.019-1.181C10.641 0.219 10.265 0 9.842 0H7.159c-0.423 0-0.8 0.22-1.007 0.587s-0.2 0.819 0.019 1.18c0.282 0.468 0.68 0.832 1.058 1.102-1.551 0.808-3.228 2.792-3.228 4.436C4.001 8.79 5.123 9.999 6.5 10zM7.022 1.079C7.042 1.043 7.083 1 7.158 1h2.683c0.076 0 0.116 0.043 0.136 0.079 0.018 0.032 0.042 0.097-4e-3 0.173C9.584 1.898 8.837 2.3 8.499 2.457 8.161 2.3 7.415 1.898 7.025 1.252 6.979 1.176 7.003 1.111 7.022 1.079zM8.5 3.5c1.205 0 3.5 2.275 3.5 3.806C12 8.24 11.327 9 10.5 9h-4C5.673 9 5 8.24 5 7.306 5 5.775 7.295 3.5 8.5 3.5zM14.689 3.896c-0.195-0.195-0.195-0.512 0-0.707l2.75-2.75C17.724 0.154 18 0 18.5 0s0.776 0.154 1.061 0.439l2.752 2.752c0.195 0.195 0.195 0.512 0 0.707-0.098 0.098-0.226 0.146-0.354 0.146s-0.256-0.049-0.354-0.146L19 1.293V7.5C19 7.776 18.776 8 18.5 8S18 7.776 18 7.5V1.293l-2.604 2.604c-0.195 0.195-0.512 0.195-0.707-1e-3zM23.18 9.654c-0.496-0.452-1.141-0.675-1.809-0.652-0.67 0.032-1.288 0.322-1.739 0.818L15.9 13.922c-0.314-1.108-1.335-1.923-2.543-1.923H3.5c-1.93 0-3.5 1.57-3.5 3.5v5c0 1.93 1.57 3.5 3.5 3.5h5.965c2.706 0 5.291-1.159 7.093-3.18l6.806-7.64c0.911-1.022 0.829-2.604-0.184-3.525zM22.617 12.515l-6.806 7.639C14.199 21.963 11.886 23 9.464 23H3.5C2.122 23 1 21.879 1 20.5v-5C1 14.121 2.122 13 3.5 13h9.857C14.262 13 15 13.737 15 14.643c0 0.812-0.605 1.511-1.398 1.624l-6.161 0.737c-0.274 0.032-0.47 0.281-0.437 0.556 0.033 0.273 0.274 0.479 0.556 0.437l6.172-0.738c1.022-0.146 1.846-0.879 2.146-1.824l4.496-4.94c0.271-0.298 0.643-0.473 1.046-0.492 0.403-0.02 0.79 0.12 1.088 0.393 0.609 0.555 0.658 1.506 0.109 2.119z" />
</svg>