<svg id="invite_alt_Layer_1" viewBox="0 0 24 24" fill="currentColor" width="32" height="32" data-name="Layer 1" xmlns="http://www.w3.org/2000/svg" xmlns:xlink="http://www.w3.org/1999/xlink">
    <title>invite-alt</title>
    <path d="M19.5 2H18V0.5C18 0.224 17.776 0 17.5 0S17 0.224 17 0.5V2H7V0.5C7 0.224 6.776 0 6.5 0S6 0.224 6 0.5V2H4.5C2.019 2 0 4.019 0 6.5v13C0 21.981 2.019 24 4.5 24h6c0.276 0 0.5-0.224 0.5-0.5S10.776 23 10.5 23h-6C2.57 23 1 21.43 1 19.5V9h22v2.5c0 0.276 0.224 0.5 0.5 0.5s0.5-0.224 0.5-0.5v-5C24 4.019 21.981 2 19.5 2zM23 8H1V6.5C1 4.57 2.57 3 4.5 3h15C21.43 3 23 4.57 23 6.5zM18 14c-1.103 0-2 0.897-2 2s0.897 2 2 2 2-0.897 2-2-0.897-2-2-2zM18 17c-0.551 0-1-0.449-1-1s0.449-1 1-1 1 0.449 1 1-0.449 1-1 1zM18 12c-3.314 0-6 2.686-6 6s2.686 6 6 6 6-2.686 6-6-2.686-6-6-6zM20 22.582C19.387 22.851 18.711 23 18 23s-1.387-0.149-2-0.418V22c0-1.103 0.897-2 2-2s2 0.897 2 2zM21 21.997C20.999 20.344 19.654 19 18 19s-2.998 1.344-3 2.997c-1.214-0.913-2-2.365-2-3.997 0-2.757 2.243-5 5-5s5 2.243 5 5c0 1.632-0.786 3.084-2 3.997z" />
</svg>