<svg id="invite_Layer_1" viewBox="0 0 24 24" fill="currentColor" width="32" height="32" data-name="Layer 1" xmlns="http://www.w3.org/2000/svg" xmlns:xlink="http://www.w3.org/1999/xlink">
    <title>invite</title>
    <path d="M14 23.5c0 0.276-0.224 0.5-0.5 0.5h-3c-0.276 0-0.5-0.224-0.5-0.5s0.224-0.5 0.5-0.5h3c0.276 0 0.5 0.224 0.5 0.5zM1 16c0-1.654 1.346-3 3-3s3 1.346 3 3-1.346 3-3 3-3-1.346-3-3zM2 16c0 1.103 0.897 2 2 2s2-0.897 2-2-0.897-2-2-2-2 0.897-2 2zM7.5 24c-0.024 4e-3 0.024 0 0 0zM4 20c-1.991 0-3.709 1.474-3.995 3.428-0.04 0.273 0.149 0.527 0.423 0.567 0.269 0.042 0.526-0.148 0.567-0.422C1.21 22.107 2.502 21.001 4 21.001s2.79 1.106 3.005 2.572c0.037 0.249 0.251 0.428 0.495 0.428 0.273-0.04 0.535-0.299 0.495-0.572C7.709 21.475 5.991 20.001 4 20zM17 16c0-1.654 1.346-3 3-3s3 1.346 3 3-1.346 3-3 3-3-1.346-3-3zM18 16c0 1.103 0.897 2 2 2s2-0.897 2-2-0.897-2-2-2-2 0.897-2 2zM24 6.5v5c0 0.276-0.224 0.5-0.5 0.5S23 11.776 23 11.5V9H1v2.5C1 11.776 0.776 12 0.5 12S0 11.776 0 11.5v-5C0 4.019 2.019 2 4.5 2H6V0.5C6 0.224 6.224 0 6.5 0S7 0.224 7 0.5V2h10V0.5C17 0.224 17.224 0 17.5 0S18 0.224 18 0.5V2h1.5C21.981 2 24 4.019 24 6.5zM23 6.5C23 4.57 21.43 3 19.5 3h-15C2.57 3 1 4.57 1 6.5V8h22zM23.5 24c-0.024 4e-3 0.024 0 0 0zM20 20c-1.991 0-3.709 1.474-3.995 3.428-0.04 0.273 0.149 0.527 0.423 0.567 0.269 0.042 0.526-0.148 0.567-0.422 0.215-1.466 1.507-2.572 3.005-2.572s2.79 1.106 3.005 2.572c0.037 0.249 0.251 0.428 0.495 0.428 0.273-0.04 0.535-0.299 0.495-0.572C23.709 21.475 21.991 20.001 20 20z" />
</svg>