<svg id="iot_alt_Layer_1" viewBox="0 0 24 24" fill="currentColor" width="32" height="32" data-name="Layer 1" xmlns="http://www.w3.org/2000/svg" xmlns:xlink="http://www.w3.org/1999/xlink">
    <title>iot-alt</title>
    <path d="M20.228 15.63C20.721 14.518 21 13.291 21 11.999c0-1.659-0.459-3.209-1.245-4.545 0.164 0.022 0.328 0.045 0.495 0.045 2.068 0 3.75-1.682 3.75-3.75s-1.682-3.75-3.75-3.75-3.75 1.682-3.75 3.75c0 0.168 0.025 0.332 0.047 0.497C15.211 3.459 13.659 2.999 12 2.999c-1.505 0-2.922 0.376-4.169 1.031C7.421 2.835 6.291 1.999 5 1.999c-1.654 0-3 1.346-3 3C2 6.29 2.836 7.42 4.031 7.83 3.375 9.078 3 10.495 3 11.999c0 0.799 0.115 1.57 0.311 2.308C1.338 15.011 0 16.855 0 18.999c0 2.757 2.243 5 5 5 2.145 0 3.988-1.339 4.692-3.311 0.738 0.196 1.509 0.311 2.308 0.311 1.292 0 2.519-0.279 3.631-0.772 0.435 1.6 1.908 2.772 3.619 2.772 2.068 0 3.75-1.683 3.75-3.75 0-1.711-1.172-3.184-2.772-3.619zM17.961 5.267C17.659 4.813 17.5 4.29 17.5 3.749c0-1.517 1.233-2.75 2.75-2.75S23 2.232 23 3.749s-1.233 2.75-2.75 2.75c-0.541 0-1.064-0.159-1.518-0.461-0.027-0.03-0.059-0.056-0.086-0.086-0.191-0.21-0.392-0.411-0.602-0.602-0.029-0.026-0.053-0.057-0.083-0.083zM3 4.999c0-1.103 0.897-2 2-2 0.932 0 1.743 0.653 1.948 1.557-0.939 0.639-1.751 1.452-2.391 2.391C3.653 6.742 3 5.931 3 4.999zM5 22.999c-2.206 0-4-1.794-4-4 0-1.705 1.057-3.174 2.619-3.745 0.914 2.345 2.781 4.212 5.126 5.126C8.174 21.941 6.706 22.999 5 22.999zM4 11.999c0-4.411 3.589-8 8-8s8 3.589 8 8-3.589 8-8 8-8-3.589-8-8zM19.25 21.999c-1.331 0-2.455-0.971-2.692-2.253 1.315-0.776 2.413-1.875 3.189-3.189 1.282 0.237 2.253 1.36 2.253 2.692 0 1.517-1.234 2.75-2.75 2.75zM13 14.999c0 0.552-0.448 1-1 1s-1-0.448-1-1 0.448-1 1-1 1 0.448 1 1zM15.143 11.11c0.214 0.174 0.248 0.489 0.074 0.704-0.174 0.213-0.488 0.248-0.704 0.074-1.458-1.181-3.572-1.179-5.027 0C9.393 11.963 9.282 12 9.172 12c-0.146 0-0.29-0.063-0.389-0.185-0.174-0.214-0.141-0.529 0.073-0.703 1.821-1.477 4.464-1.477 6.287-2e-3zM13.8 12.599c0.221 0.166 0.265 0.479 0.099 0.7-0.098 0.131-0.248 0.199-0.4 0.199-0.104 0-0.21-0.032-0.3-0.101-0.707-0.531-1.693-0.531-2.4 0-0.219 0.168-0.534 0.123-0.7-0.099-0.166-0.221-0.122-0.534 0.099-0.7 1.06-0.798 2.542-0.798 3.602 1e-3zM16.307 9.481c0.217 0.17 0.256 0.484 0.085 0.702-0.099 0.126-0.246 0.192-0.394 0.192-0.107 0-0.216-0.035-0.308-0.106-2.174-1.701-5.21-1.701-7.384 0-0.218 0.17-0.533 0.131-0.702-0.085-0.17-0.217-0.132-0.532 0.085-0.702 2.536-1.985 6.08-1.985 8.618-1e-3z" />
</svg>