<svg id="island_tropical_Layer_1" viewBox="0 0 24 24" fill="currentColor" width="32" height="32" data-name="Layer 1" xmlns="http://www.w3.org/2000/svg" xmlns:xlink="http://www.w3.org/1999/xlink">
    <title>island-tropical</title>
    <path d="M13.875 4.156v0c0 0 2e-3 6e-3 0 0z" />
    <path d="M8.099 5.926l2e-3-2e-3c0 8e-3-2e-3 0.017-2e-3 2e-3zM23.928 23.758C23.834 23.914 23.669 24 23.5 24c-0.088 0-0.177-0.023-0.258-0.072C23.193 23.899 18.31 21 12 21S0.807 23.899 0.758 23.928c-0.237 0.141-0.544 0.066-0.686-0.17-0.143-0.236-0.067-0.543 0.169-0.686 0.182-0.11 4.024-2.396 9.427-2.951 0.387-0.621 3.331-5.503 3.331-10.212 0-0.775-0.143-2.123-0.353-3.428l-0.015 0.045c-0.638 1.837-2.125 3.487-3.236 4.243C9.17 10.922 8.914 11 8.654 11c-0.151 0-0.303-0.026-0.451-0.081-0.411-0.15-0.729-0.5-0.852-0.937-0.242-0.864-0.414-2.174-0.329-3.406-1.564 0.829-3.164 1.216-4.305 1.396C2.155 8.063 1.609 7.83 1.285 7.37 0.973 6.926 0.939 6.356 1.199 5.882c0.638-1.164 1.78-2.798 3.598-3.977 3.145-2.036 7.056-1.936 7.22-1.927 0.112-0.011 4.07-0.274 7.225 1.772 1.859 1.205 3 2.937 3.629 4.177 0.241 0.475 0.196 1.038-0.117 1.47-0.278 0.384-0.719 0.604-1.188 0.604-0.076 0-0.153-6e-3-0.23-0.018-1.359-0.209-3.363-0.708-5.193-1.894-0.23-0.149-0.45-0.305-0.661-0.465 0.402 1.186 0.756 2.428 1.056 3.711 1.024 4.379 0.07 9.316-0.336 11.053 4.4 0.804 7.396 2.587 7.556 2.684 0.236 0.143 0.312 0.45 0.17 0.686zM11.175 1C9.888 1.081 7.398 1.413 5.342 2.745 3.698 3.81 2.659 5.301 2.077 6.363c-0.109 0.2-0.018 0.368 0.027 0.432 0.039 0.056 0.186 0.233 0.458 0.19 1.25-0.197 3.087-0.659 4.75-1.736 2.031-1.317 3.29-3.223 3.863-4.249zM11.718 2.054c-0.687 1.108-1.868 2.668-3.617 3.87 0-7e-3 0-0.013-2e-3 2e-3-0.207 1.255-0.036 2.887 0.216 3.787 0.036 0.129 0.121 0.227 0.232 0.268 0.056 0.021 0.167 0.043 0.287-0.039 0.818-0.556 2.252-2.011 2.854-3.744 0.508-1.465 0.302-3.05 0.03-4.144zM12.808 0.967c0.566 1.02 1.833 2.956 3.879 4.282 1.681 1.089 3.539 1.55 4.801 1.744 0.182 0.029 0.352-0.041 0.455-0.185 0.045-0.062 0.138-0.228 0.036-0.431-0.574-1.13-1.609-2.706-3.281-3.79-2.083-1.35-4.634-1.591-5.89-1.62zM15.565 9.562c-0.445-1.904-1.021-3.743-1.69-5.406-2e-3-5e-3-1e-3-3e-3 0 0-0.363-0.394-0.681-0.787-0.955-1.16 0.013 0.096 0.024 0.193 0.035 0.292 0.528 1.585 1.046 5.097 1.046 6.621 0 4.25-2.168 8.481-3.11 10.119C11.255 20.01 11.625 20 12.001 20c1.124 0 2.2 0.086 3.213 0.228 0.381-1.608 1.342-6.434 0.351-10.666z" />
</svg>