<svg id="issue_loupe_Layer_1" viewBox="0 0 24 24" fill="currentColor" width="32" height="32" data-name="Layer 1" xmlns="http://www.w3.org/2000/svg" xmlns:xlink="http://www.w3.org/1999/xlink">
    <title>issue-loupe</title>
    <path d="M23.731 23.024 17.41 16.703c1.607-1.775 2.596-4.12 2.596-6.698 0-5.513-4.486-9.999-10-9.999s-10 4.486-10 10 4.486 10 10 10c2.577 0 4.922-0.988 6.697-2.595l6.321 6.321c0.098 0.098 0.226 0.146 0.354 0.146s0.256-0.049 0.354-0.146c0.195-0.195 0.195-0.512-1e-3-0.708zM1.006 10.006c0-4.963 4.037-9 9-9s9 4.038 9 9-4.037 9-9 9-9-4.038-9-9zM11 15c0 0.552-0.448 1-1 1s-1-0.448-1-1 0.448-1 1-1 1 0.448 1 1zM13 8c0 1.125-0.621 2.146-1.621 2.665-0.534 0.277-0.879 0.913-0.879 1.621V12.5c0 0.276-0.224 0.5-0.5 0.5s-0.5-0.224-0.5-0.5v-0.214c0-1.094 0.544-2.055 1.418-2.509C11.586 9.431 12 8.75 12 8c0-1.103-0.897-2-2-2S8 6.897 8 8c0 0.276-0.224 0.5-0.5 0.5S7 8.276 7 8c0-1.654 1.346-3 3-3s3 1.346 3 3z" />
</svg>