<svg id="it_alt_Layer_1" viewBox="0 0 24 24" fill="currentColor" width="32" height="32" data-name="Layer 1" xmlns="http://www.w3.org/2000/svg" xmlns:xlink="http://www.w3.org/1999/xlink">
    <title>it-alt</title>
    <path d="M19.5 1h-15C2.019 1 0 3.019 0 5.5v13C0 20.981 2.019 23 4.5 23h2C6.776 23 7 22.776 7 22.5S6.776 22 6.5 22h-2C2.57 22 1 20.43 1 18.5V9h22v9.5c0 1.93-1.57 3.5-3.5 3.5h-2c-0.276 0-0.5 0.224-0.5 0.5s0.224 0.5 0.5 0.5h2c2.481 0 4.5-2.019 4.5-4.5v-13C24 3.019 21.981 1 19.5 1zM1 8V5.5C1 3.57 2.57 2 4.5 2h15C21.43 2 23 3.57 23 5.5V8zM5 5c0 0.552-0.448 1-1 1S3 5.552 3 5 3.448 4 4 4 5 4.448 5 5zM8 5c0 0.552-0.448 1-1 1S6 5.552 6 5 6.448 4 7 4 8 4.448 8 5zM11 5c0 0.552-0.448 1-1 1S9 5.552 9 5s0.448-1 1-1 1 0.448 1 1zM18 15.5c0 1.893-0.868 3.635-2.38 4.779-0.394 0.299-0.62 0.738-0.62 1.206V23.5c0 0.276-0.224 0.5-0.5 0.5S14 23.776 14 23.5v-2.015c0-0.783 0.37-1.514 1.016-2.003C16.277 18.528 17 17.076 17 15.5c0-1.252-0.467-2.449-1.313-3.373-0.175-0.19-0.384-0.13-0.444-0.105-0.073 0.028-0.242 0.12-0.242 0.356v1.479c0 1.602-1.183 2.976-2.692 3.127-0.849 0.089-1.693-0.191-2.32-0.76-0.627-0.567-0.987-1.379-0.987-2.225v-1.622c0-0.236-0.169-0.328-0.242-0.356-0.061-0.023-0.269-0.084-0.444 0.105-0.847 0.924-1.314 2.121-1.314 3.373 0 1.576 0.723 3.028 1.984 3.982 0.646 0.489 1.016 1.22 1.016 2.003v2.015c0 0.276-0.224 0.5-0.5 0.5s-0.5-0.224-0.5-0.5v-2.015c0-0.468-0.226-0.907-0.62-1.206-1.512-1.145-2.38-2.887-2.38-4.779 0-1.503 0.56-2.94 1.577-4.049 0.396-0.432 1.001-0.574 1.544-0.361 0.534 0.208 0.879 0.713 0.879 1.288v1.622c0 0.564 0.24 1.104 0.658 1.483 0.425 0.384 0.975 0.565 1.55 0.507 1.005-0.102 1.792-1.038 1.792-2.133v-1.479c0-0.575 0.345-1.08 0.879-1.288 0.543-0.212 1.148-0.07 1.544 0.361 1.017 1.108 1.577 2.546 1.575 4.05z" />
</svg>