<svg id="it_computer_Layer_1" viewBox="0 0 24 24" fill="currentColor" width="32" height="32" data-name="Layer 1" xmlns="http://www.w3.org/2000/svg" xmlns:xlink="http://www.w3.org/1999/xlink">
    <title>it-computer</title>
    <path d="M22 19.051V9.965c0-1.602-0.862-3.095-2.249-3.897-0.24-0.14-0.546-0.057-0.683 0.183-0.139 0.238-0.057 0.545 0.182 0.683C20.33 7.559 21 8.72 21 9.966v9.035h-5.5c-0.133 0-0.26 0.053-0.354 0.146l-0.854 0.854H9.706l-0.854-0.854c-0.094-0.094-0.221-0.146-0.354-0.146H3V9.966C3 8.72 3.671 7.559 4.75 6.934 4.989 6.796 5.071 6.49 4.932 6.251 4.794 6.012 4.489 5.929 4.249 6.068c-1.388 0.803-2.25 2.296-2.25 3.897v9.086c-1.14 0.232-2 1.242-2 2.449 0 1.379 1.122 2.5 2.5 2.5h19c1.378 0 2.5-1.121 2.5-2.5 0-1.208-0.86-2.217-1.999-2.449zM21.5 23h-19C1.673 23 1 22.327 1 21.5S1.673 20 2.5 20h5.793l0.854 0.854C9.241 20.948 9.368 21 9.501 21h5c0.133 0 0.26-0.053 0.354-0.146L15.709 20h5.793c0.827 0 1.5 0.673 1.5 1.5S22.329 23 21.5 23zM12 9c1.103 0 2-0.897 2-2s-0.897-2-2-2-2 0.897-2 2 0.897 2 2 2zM12 6c0.551 0 1 0.448 1 1s-0.449 1-1 1-1-0.448-1-1 0.449-1 1-1zM5.799 9.392c-0.102 0.388-0.046 0.791 0.155 1.137 0.202 0.347 0.527 0.593 0.915 0.694 0.388 0.104 0.79 0.047 1.137-0.155l0.641-0.374c0.536 0.489 1.166 0.852 1.853 1.067V12.5c0 0.827 0.673 1.5 1.5 1.5s1.5-0.673 1.5-1.5v-0.739c0.687-0.216 1.316-0.578 1.853-1.067l0.641 0.374c0.347 0.202 0.75 0.26 1.137 0.155 0.388-0.102 0.712-0.348 0.914-0.694s0.257-0.749 0.156-1.137c-0.102-0.388-0.349-0.712-0.694-0.914L16.861 8.1c0.094-0.385 0.14-0.747 0.14-1.1s-0.046-0.716-0.14-1.101l0.646-0.377c0.714-0.418 0.956-1.339 0.539-2.052-0.417-0.715-1.337-0.957-2.051-0.539l-0.641 0.374c-0.537-0.489-1.167-0.852-1.853-1.067V1.5c0-0.827-0.673-1.5-1.5-1.5s-1.5 0.673-1.5 1.5v0.738C9.814 2.454 9.184 2.816 8.648 3.305L8.007 2.931C7.291 2.513 6.372 2.755 5.956 3.47 5.539 4.183 5.781 5.104 6.495 5.522l0.646 0.377C7.047 6.285 7.001 6.647 7.001 7s0.046 0.715 0.14 1.1L6.495 8.478C6.149 8.68 5.902 9.004 5.799 9.392zM6.766 9.646C6.8 9.517 6.882 9.409 6.998 9.341l0.979-0.572c0.201-0.117 0.294-0.358 0.225-0.581C8.064 7.748 7.999 7.37 7.999 7s0.064-0.748 0.203-1.188c0.07-0.223-0.023-0.464-0.225-0.581L6.998 4.66C6.76 4.52 6.679 4.214 6.818 3.975s0.446-0.318 0.684-0.18l0.971 0.566c0.201 0.117 0.457 0.08 0.617-0.09 0.549-0.586 1.248-0.988 2.021-1.164C11.339 3.055 11.5 2.853 11.5 2.62V1.5C11.5 1.225 11.724 1 12 1s0.5 0.225 0.5 0.5v1.12c0 0.233 0.162 0.436 0.389 0.487 0.773 0.176 1.472 0.578 2.021 1.164 0.16 0.171 0.416 0.207 0.617 0.09l0.971-0.566c0.238-0.139 0.545-0.059 0.684 0.18s0.058 0.545-0.18 0.685l-0.979 0.571c-0.202 0.117-0.295 0.358-0.225 0.581C15.936 6.251 16 6.629 16 7s-0.064 0.748-0.202 1.188c-0.07 0.223 0.023 0.464 0.225 0.581l0.98 0.572c0.115 0.067 0.197 0.176 0.231 0.305s0.016 0.264-0.052 0.379c-0.067 0.115-0.175 0.197-0.304 0.231-0.13 0.032-0.265 0.015-0.379-0.052l-0.971-0.566c-0.201-0.117-0.457-0.08-0.617 0.09-0.549 0.586-1.248 0.988-2.021 1.164-0.228 0.052-0.389 0.254-0.389 0.487V12.5c0 0.275-0.224 0.5-0.5 0.5s-0.5-0.225-0.5-0.5v-1.121c0-0.233-0.162-0.436-0.389-0.487-0.772-0.176-1.471-0.578-2.021-1.164C8.994 9.624 8.861 9.57 8.726 9.57c-0.086 0-0.173 0.022-0.252 0.068l-0.971 0.566c-0.116 0.066-0.251 0.084-0.379 0.052-0.129-0.034-0.237-0.116-0.305-0.231s-0.085-0.25-0.053-0.379z" />
</svg>