<svg id="italian_coffee_maker_Layer_1" viewBox="0 0 24 24" fill="currentColor" width="32" height="32" data-name="Layer 1" xmlns="http://www.w3.org/2000/svg" xmlns:xlink="http://www.w3.org/1999/xlink">
    <title>italian-coffee-maker</title>
    <path d="M19 15.412v-1.847l0.786-2.948c0.158-0.591 0.469-1.133 0.901-1.566C23 6.727 23 6.506 23 6.25 23 5.561 22.439 5 21.75 5h-1.029c-0.667-0.707-3.346-3.264-7.208-3.479l0.026-1.008C13.546 0.237 13.328 8e-3 13.052 0c-0.312-7e-3-0.505 0.212-0.513 0.487l-0.027 1.035c-3.936 0.209-6.64 2.843-7.255 3.502C2.89 5.153 1 7.101 1 9.499v4c0 0.827 0.673 1.5 1.5 1.5s1.5-0.673 1.5-1.5v-4c0-0.827 0.673-1.5 1.5-1.5 5e-3 0 0.01-3e-3 0.015-3e-3L7 13.564v1.847l-1.842 5.065c-0.654 1.706 0.711 3.585 2.583 3.523h10.518c1.872 0.062 3.237-1.817 2.583-3.523zM8 15v-1h10v1zM14.059 16l0.875 7h-3.867l0.875-7zM13 2.5c2.855 0 5.098 1.515 6.256 2.5H6.744c1.158-0.985 3.4-2.5 6.256-2.5zM14.934 6l-0.875 7h-2.117l-0.875-7zM21.988 6.171c-0.115 0.167-0.529 0.688-2.009 2.175-0.555 0.558-0.955 1.254-1.158 2.014L18.117 13h-3.05l0.875-7h5.809c0.11 0 0.205 0.072 0.237 0.171zM3 9.5v4C3 13.776 2.776 14 2.5 14S2 13.776 2 13.5v-4c0-1.761 1.312-3.208 3.007-3.45C4.99 6.039 5.25 7.002 5.256 7.025 3.993 7.15 3 8.205 3 9.5zM6.017 6h4.041l0.875 7h-3.05zM6.279 22.289c-0.294-0.442-0.36-0.978-0.182-1.47L7.849 16h3.084l-0.875 7H7.741c-0.611 0-1.171-0.272-1.462-0.711zM19.72 22.289C19.429 22.727 18.869 23 18.258 23h-2.317l-0.875-7h3.084l1.752 4.819c0.179 0.492 0.112 1.027-0.182 1.47z" />
</svg>