<svg id="jam_Layer_1" viewBox="0 0 24 24" fill="currentColor" width="32" height="32" data-name="Layer 1" xmlns="http://www.w3.org/2000/svg" xmlns:xlink="http://www.w3.org/1999/xlink">
    <title>jam</title>
    <path d="M23.85 6.771C23.623 6.158 22.696 4.233 20 4.019v-1.52c0-1.379-1.122-2.5-2.5-2.5h-11C5.122-1e-3 4 1.12 4 2.499v1.52C1.304 4.233 0.377 6.158 0.15 6.772-0.125 7.514-0.018 8.35 0.434 9.005 0.81 9.55 1.369 9.895 1.999 9.979v8.52c0 3.032 2.467 5.5 5.5 5.5h9c3.033 0 5.5-2.468 5.5-5.5V9.98c0.629-0.083 1.189-0.429 1.565-0.974 0.453-0.655 0.559-1.491 0.286-2.235zM21 18.5c0 2.481-2.019 4.5-4.5 4.5h-9C5.019 23 3 20.981 3 18.5V9.97c0.707-0.076 1.622-0.301 2.139-0.7 0.491-0.378 1.231-0.379 1.723 0 1.235 0.955 3.042 0.955 4.277 0 0.491-0.378 1.231-0.379 1.723 0 1.235 0.955 3.042 0.955 4.277 0 0.492-0.378 1.232-0.379 1.723 0 0.516 0.399 1.431 0.624 2.139 0.7zM22.742 8.438C22.498 8.792 22.033 8.996 21.626 9c-0.64-1e-3-1.769-0.223-2.153-0.52-0.854-0.66-2.092-0.66-2.945 0-0.882 0.682-2.173 0.682-3.055 0-0.854-0.66-2.092-0.66-2.945 0-0.882 0.682-2.173 0.682-3.055 0-0.854-0.66-2.092-0.66-2.945 0C4.142 8.778 3.038 9.001 2.4 9.001 1.988 8.997 1.503 8.793 1.259 8.439 0.991 8.051 0.927 7.558 1.089 7.121 1.273 6.624 2.064 5.002 4.501 5.002h12c0.276 0 0.5-0.224 0.5-0.5s-0.224-0.5-0.5-0.5H5v-1.5c0-0.827 0.673-1.5 1.5-1.5h11c0.827 0 1.5 0.673 1.5 1.5v2c0 0.276 0.224 0.5 0.5 0.5 2.438 0 3.228 1.622 3.412 2.118 0.162 0.438 0.099 0.932-0.17 1.318z" />
</svg>