<svg id="january_calendar_Layer_1" viewBox="0 0 24 24" fill="currentColor" width="32" height="32" data-name="Layer 1" xmlns="http://www.w3.org/2000/svg" xmlns:xlink="http://www.w3.org/1999/xlink">
    <title>january-calendar</title>
    <path d="M19.5 2H18V0.5C18 0.224 17.776 0 17.5 0S17 0.224 17 0.5V2H7V0.5C7 0.224 6.776 0 6.5 0S6 0.224 6 0.5V2H4.5C2.019 2 0 4.019 0 6.5v13c0 2.055 1.388 3.847 3.375 4.358 0.26 0.069 0.541-0.09 0.609-0.36 0.069-0.268-0.092-0.54-0.36-0.609-1.545-0.397-2.625-1.792-2.625-3.39V9H23v4.5c0 0.276 0.224 0.5 0.5 0.5s0.5-0.224 0.5-0.5v-7C24 4.019 21.981 2 19.5 2zM1 8V6.5C1 4.57 2.57 3 4.5 3h15C21.43 3 23 4.57 23 6.5V8zM11 16.5v5c0 1.378-1.122 2.5-2.5 2.5S6 22.878 6 21.5C6 21.224 6.224 21 6.5 21S7 21.224 7 21.5C7 22.327 7.673 23 8.5 23s1.5-0.673 1.5-1.5v-5c0-0.276 0.224-0.5 0.5-0.5s0.5 0.224 0.5 0.5zM24 16.5v6.727c0 0.369-0.252 0.679-0.612 0.756-0.351 0.077-0.718-0.103-0.866-0.442l-2.521-5.683V23.5c0 0.276-0.224 0.5-0.5 0.5s-0.5-0.224-0.5-0.5v-6.716c0-0.369 0.252-0.679 0.612-0.756 0.358-0.075 0.717 0.105 0.866 0.442L23 22.153V16.5c0-0.276 0.224-0.5 0.5-0.5s0.5 0.224 0.5 0.5zM15 16c-0.775 0-1.396 0.511-1.544 1.271l-1.197 6.116c-0.053 0.271 0.124 0.534 0.395 0.587 0.274 0.053 0.533-0.125 0.587-0.395l0.312-1.596h2.894l0.312 1.596c0.052 0.273 0.322 0.448 0.587 0.395 0.271-0.053 0.448-0.316 0.395-0.587l-1.197-6.116C16.396 16.51 15.775 16 15 16zM13.749 20.983l0.689-3.521c0.066-0.341 0.334-0.463 0.562-0.463s0.496 0.122 0.562 0.463l0.689 3.52z" />
</svg>