<svg id="jar_alt_Layer_1" viewBox="0 0 24 24" fill="currentColor" width="32" height="32" data-name="Layer 1" xmlns="http://www.w3.org/2000/svg" xmlns:xlink="http://www.w3.org/1999/xlink">
    <title>jar-alt</title>
    <path d="M19 4.61V2.5C19 1.122 17.879 0 16.5 0h-9C6.121 0 5 1.122 5 2.5v2.11C3.223 5.523 2 7.369 2 9.5v10C2 21.981 4.019 24 6.5 24h11c2.481 0 4.5-2.019 4.5-4.5v-10c0-2.132-1.223-3.978-3-4.89zM6 2.5C6 1.673 6.673 1 7.5 1h9C17.327 1 18 1.673 18 2.5v1.713C17.522 4.077 17.021 4 16.5 4h-9C6.979 4 6.478 4.077 6 4.213zM3 11h11.5c0.275 0 0.5 0.224 0.5 0.5v6c0 0.276-0.225 0.5-0.5 0.5H3zM21 19.5c0 1.93-1.57 3.5-3.5 3.5h-11C4.57 23 3 21.43 3 19.5V19h11.5c0.827 0 1.5-0.673 1.5-1.5v-6c0-0.827-0.673-1.5-1.5-1.5H3V9.5C3 7.019 5.019 5 7.5 5h9C18.981 5 21 7.019 21 9.5z" />
</svg>