<svg id="joint_Layer_1" viewBox="0 0 24 24" fill="currentColor" width="32" height="32" data-name="Layer 1" xmlns="http://www.w3.org/2000/svg" xmlns:xlink="http://www.w3.org/1999/xlink">
    <title>joint</title>
    <path d="M22 17H7.964c-3.809 0-7.582 2.478-7.741 2.583C0.083 19.676 0 19.833 0 20c0 0.168 0.084 0.324 0.225 0.417C0.385 20.522 4.18 23 7.964 23H22c1.103 0 2-0.897 2-2v-2c0-1.103-0.897-2-2-2zM13.207 22l-4-4h5.086l4 4zM1.475 19.999c1.204-0.677 3.785-1.937 6.328-1.989l3.99 3.99H7.964c-2.575 0-5.254-1.31-6.489-2.001zM23 21c0 0.551-0.449 1-1 1h-2.293l-4-4H22c0.551 0 1 0.449 1 1zM14 5.856V3.5C14 3.224 14.224 3 14.5 3S15 3.224 15 3.5v2.356c0 1.222 0.651 2.372 1.699 3.001l1.602 0.961C19.349 10.446 20 11.596 20 12.819v1.68c0 0.276-0.224 0.5-0.5 0.5s-0.5-0.224-0.5-0.5v-1.68c0-0.873-0.465-1.694-1.214-2.144l-1.602-0.961C14.836 8.905 13.999 7.426 14 5.856zM24 11.264v1.235c0 0.276-0.224 0.5-0.5 0.5s-0.5-0.224-0.5-0.5v-1.235c0-1.222-0.651-2.372-1.699-3.001l-2.087-1.252C18.465 6.562 18 5.74 18 4.867V1.5C18 1.224 18.224 1 18.5 1S19 1.224 19 1.5v3.368c0 0.524 0.279 1.017 0.729 1.286l2.087 1.252c1.348 0.809 2.185 2.287 2.184 3.858z" />
</svg>