<svg id="joker_Layer_1" viewBox="0 0 24 24" fill="currentColor" width="32" height="32" data-name="Layer 1" xmlns="http://www.w3.org/2000/svg" xmlns:xlink="http://www.w3.org/1999/xlink">
    <title>joker</title>
    <path d="M18 9c-0.552 0-1 0.448-1 1 0 0.033 0.016 0.061 0.019 0.093-0.745 0.179-2.335 0.668-3.447 1.792-0.438-1.538-1.065-3.444-1.098-3.542C12.443 8.248 12.4 8.09 12.347 7.93 12.727 7.788 13 7.429 13 7c0-0.552-0.448-1-1-1s-1 0.448-1 1c0 0.425 0.268 0.783 0.642 0.928-0.038 0.118-0.077 0.25-0.117 0.415-0.024 0.101-0.66 2.004-1.098 3.542-1.112-1.124-2.71-1.616-3.446-1.794C6.984 10.059 7 10.032 7 9.999c0-0.552-0.448-1-1-1s-1 0.448-1 1 0.448 1 1 1c0.085 0 0.16-0.028 0.239-0.048C6.612 11.355 8 12.963 8 14.499v1c0 0.827 0.673 1.5 1.5 1.5h5c0.827 0 1.5-0.673 1.5-1.5v-1c0-1.537 1.388-3.144 1.761-3.548 0.079 0.02 0.154 0.048 0.239 0.048 0.552 0 1-0.448 1-1s-0.448-1-1-0.999zM15 14.5v1c0 0.275-0.225 0.5-0.5 0.5h-5C9.224 16 9 15.775 9 15.5v-1c0-1.142-0.562-2.248-1.112-3.064 0.833 0.338 1.809 0.902 2.329 1.801 0.102 0.178 0.298 0.269 0.503 0.245 0.202-0.029 0.366-0.178 0.415-0.376 0.198-0.805 0.565-2.014 0.865-2.969 0.3 0.955 0.667 2.165 0.865 2.969 0.048 0.198 0.213 0.347 0.415 0.376 0.177 0 0.413-0.089 0.503-0.245 0.522-0.901 1.497-1.465 2.33-1.802-0.55 0.816-1.114 1.924-1.113 3.065zM16.5 0h-9C5.019 0 3 2.019 3 4.5v15C3 21.981 5.019 24 7.5 24h9c2.481 0 4.5-2.019 4.5-4.5v-15C21 2.019 18.981 0 16.5 0zM20 19.5c0 1.93-1.57 3.5-3.5 3.5h-9C5.57 23 4 21.43 4 19.5v-15C4 2.57 5.57 1 7.5 1h9C18.43 1 20 2.57 20 4.5z" />
</svg>