<svg id="journal_alt_Layer_1" viewBox="0 0 24 24" fill="currentColor" width="32" height="32" data-name="Layer 1" xmlns="http://www.w3.org/2000/svg" xmlns:xlink="http://www.w3.org/1999/xlink">
    <title>journal-alt</title>
    <path d="M15 2.338V0.5C15 0.224 14.776 0 14.5 0S14 0.224 14 0.5v1.536C13.837 2.013 13.67 2 13.5 2H11V0.5C11 0.224 10.776 0 10.5 0S10 0.224 10 0.5V2H7V0.5C7 0.224 6.776 0 6.5 0S6 0.224 6 0.5V2H3.5C3.33 2 3.163 2.012 3 2.036V0.5C3 0.224 2.776 0 2.5 0S2 0.224 2 0.5v1.838C0.819 2.901 0 4.107 0 5.5v14C0 21.981 2.019 24 4.5 24h8c2.481 0 4.5-2.019 4.5-4.5v-14c0-1.393-0.819-2.599-2-3.162zM16 19.5c0 1.93-1.57 3.5-3.5 3.5h-8C2.57 23 1 21.43 1 19.5v-14C1 4.121 2.122 3 3.5 3h10C14.878 3 16 4.121 16 5.5zM13 6.5C13 6.776 12.776 7 12.5 7h-8C4.224 7 4 6.776 4 6.5S4.224 6 4.5 6h8C12.776 6 13 6.224 13 6.5zM13 10.5c0 0.276-0.224 0.5-0.5 0.5h-8C4.224 11 4 10.776 4 10.5S4.224 10 4.5 10h8c0.276 0 0.5 0.224 0.5 0.5zM10 14.5c0 0.276-0.224 0.5-0.5 0.5h-5C4.224 15 4 14.776 4 14.5S4.224 14 4.5 14h5c0.276 0 0.5 0.224 0.5 0.5zM21.5 0C20.122 0 19 1.121 19 2.5v17.758c0 0.922 0.374 1.823 1.025 2.475l1.121 1.121C21.244 23.952 21.372 24 21.5 24s0.256-0.049 0.354-0.146l1.121-1.121C23.627 22.082 24 21.18 24 20.258V2.5C24 1.121 22.878 0 21.5 0zM23 20.258c0 0.658-0.267 1.303-0.732 1.768L21.5 22.794l-0.768-0.768C20.267 21.561 20 20.917 20 20.258V2.5C20 1.673 20.673 1 21.5 1S23 1.673 23 2.5z" />
</svg>