<svg id="journey_Layer_1" viewBox="0 0 24 24" fill="currentColor" width="32" height="32" data-name="Layer 1" xmlns="http://www.w3.org/2000/svg" xmlns:xlink="http://www.w3.org/1999/xlink">
    <title>journey</title>
    <path d="M3.5 19C4.878 19 6 17.878 6 16.5S4.878 14 3.5 14 1 15.122 1 16.5 2.122 19 3.5 19zM3.5 15C4.327 15 5 15.673 5 16.5S4.327 18 3.5 18 2 17.327 2 16.5 2.673 15 3.5 15zM7 23.5C7 23.776 6.776 24 6.5 24S6 23.776 6 23.5C6 22.122 4.878 21 3.5 21S1 22.122 1 23.5C1 23.776 0.776 24 0.5 24S0 23.776 0 23.5C0 21.57 1.57 20 3.5 20S7 21.57 7 23.5zM24 18.5c0 1.93-1.57 3.5-3.5 3.5h-11C9.224 22 9 21.776 9 21.5S9.224 21 9.5 21h11c1.378 0 2.5-1.122 2.5-2.5S21.878 16 20.5 16h-10C8.57 16 7 14.43 7 12.5S8.57 9 10.5 9h2C12.776 9 13 9.224 13 9.5S12.776 10 12.5 10h-2C9.122 10 8 11.122 8 12.5S9.122 15 10.5 15h10c1.93 0 3.5 1.57 3.5 3.5zM15.503 7.389l-0.862 2.765c-0.116 0.371 0.013 0.776 0.325 1.009 0.162 0.122 0.356 0.183 0.55 0.183 0.178 0 0.355-0.051 0.51-0.155l2.482-1.661 2.524 1.644c0.152 0.099 0.326 0.148 0.5 0.148 0.198 0 0.395-0.064 0.56-0.19 0.309-0.238 0.433-0.645 0.311-1.014l-0.897-2.732 2.169-1.767c0.294-0.248 0.403-0.654 0.271-1.016s-0.476-0.602-0.861-0.602h-2.751L19.36 1.269c-0.133-0.359-0.476-0.597-0.859-0.597s-0.726 0.238-0.859 0.597l-0.974 2.732h-2.751c-0.384 0-0.728 0.24-0.86 0.601-0.133 0.361-0.026 0.766 0.267 1.015zM16.668 5c0.423 0 0.8-0.266 0.942-0.664l0.89-2.499 0.891 2.499C19.533 4.734 19.91 5 20.333 5h2.517l-1.975 1.609c-0.321 0.262-0.448 0.694-0.318 1.087l0.824 2.509-2.326-1.515c-0.166-0.108-0.356-0.162-0.546-0.162-0.194 0-0.388 0.056-0.556 0.169l-2.293 1.55 0.799-2.562c0.122-0.39-6e-3-0.815-0.323-1.073l-1.982-1.613z" />
</svg>