<svg id="joystick_Layer_1" viewBox="0 0 24 24" fill="currentColor" width="32" height="32" data-name="Layer 1" xmlns="http://www.w3.org/2000/svg" xmlns:xlink="http://www.w3.org/1999/xlink">
    <title>joystick</title>
    <path d="M21 18h-2v-1.5c0-0.276-0.224-0.5-0.5-0.5S18 16.224 18 16.5V18h-5.5V7.969C14.471 7.722 16 6.037 16 4c0-2.206-1.794-4-4-4S8 1.794 8 4c0 2.036 1.529 3.722 3.5 3.969V18H3c-1.654 0-3 1.346-3 3s1.346 3 3 3h18c1.654 0 3-1.346 3-3s-1.346-3-3-3zM9 4c0-1.654 1.346-3 3-3s3 1.346 3 3-1.346 3-3 3-3-1.346-3-3zM21 23H3c-1.103 0-2-0.897-2-2s0.897-2 2-2h18c1.103 0 2 0.897 2 2s-0.897 2-2 2z" />
</svg>