<svg id="jpg_Layer_1" viewBox="0 0 24 24" fill="currentColor" width="32" height="32" data-name="Layer 1" xmlns="http://www.w3.org/2000/svg" xmlns:xlink="http://www.w3.org/1999/xlink">
    <title>jpg</title>
    <path d="M15 11c-1.103 0-2-0.897-2-2V6c0-1.103 0.897-2 2-2s2 0.897 2 2c0 0.276-0.224 0.5-0.5 0.5S16 6.276 16 6c0-0.552-0.449-1-1-1s-1 0.448-1 1v3c0 0.552 0.449 1 1 1s1-0.448 1-1V8.5h-0.5C15.224 8.5 15 8.276 15 8s0.224-0.5 0.5-0.5h1C16.776 7.5 17 7.724 17 8v1c0 1.103-0.897 2-2 2zM6.5 4C6.224 4 6 4.224 6 4.5V9c0 0.552-0.449 1-1 1S4 9.552 4 9c0-0.276-0.224-0.5-0.5-0.5S3 8.724 3 9c0 1.103 0.897 2 2 2s2-0.897 2-2V4.5C7 4.224 6.776 4 6.5 4zM12 6c0 1.103-0.897 2-2 2H9v2.5C9 10.776 8.776 11 8.5 11S8 10.776 8 10.5V5c0-0.552 0.449-1 1-1h1c1.103 0 2 0.897 2 2zM11 6c0-0.552-0.449-1-1-1H9v2h1c0.551 0 1-0.448 1-1zM24 4.5v9.515c0 1.735-0.676 3.368-1.904 4.597l-3.485 3.484C17.384 23.324 15.752 24 14.015 24H4.5C2.019 24 0 21.981 0 19.5v-15C0 2.019 2.019 0 4.5 0h15C21.981 0 24 2.019 24 4.5zM14.015 23c0.335 0 0.663-0.038 0.985-0.096V17.5c0-1.379 1.122-2.5 2.5-2.5h5.404C22.962 14.677 23 14.349 23 14.015V4.5C23 2.57 21.43 1 19.5 1h-15C2.57 1 1 2.57 1 4.5v15C1 21.43 2.57 23 4.5 23zM22.621 16h-5.12c-0.827 0-1.5 0.673-1.5 1.5v5.121c0.704-0.273 1.354-0.682 1.904-1.232l3.485-3.484c0.55-0.551 0.959-1.2 1.231-1.905z" />
</svg>