<svg id="json_file_Layer_1" viewBox="0 0 24 24" fill="currentColor" width="32" height="32" data-name="Layer 1" xmlns="http://www.w3.org/2000/svg" xmlns:xlink="http://www.w3.org/1999/xlink">
    <title>json-file</title>
    <path d="M6.5 13C6.776 13 7 13.224 7 13.5v5C7 19.878 5.878 21 4.5 21S2 19.878 2 18.5C2 18.224 2.224 18 2.5 18S3 18.224 3 18.5C3 19.327 3.673 20 4.5 20S6 19.327 6 18.5v-5C6 13.224 6.224 13 6.5 13zM18.5 15.5v3c0 1.378-1.122 2.5-2.5 2.5s-2.5-1.122-2.5-2.5v-3c0-1.378 1.122-2.5 2.5-2.5s2.5 1.122 2.5 2.5zM17.5 15.5c0-0.827-0.673-1.5-1.5-1.5s-1.5 0.673-1.5 1.5v3c0 0.827 0.673 1.5 1.5 1.5s1.5-0.673 1.5-1.5zM10.143 20.024c-0.525 0-1.348-0.368-1.761-0.787-0.194-0.196-0.511-0.198-0.707-5e-3-0.197 0.194-0.199 0.51-5e-3 0.707 0.525 0.533 1.594 1.084 2.473 1.084 1.166 0 2.146-0.817 2.33-1.944 0.131-0.812-0.206-1.959-1.587-2.519-0.268-0.109-1.002-0.421-1.449-0.673-0.325-0.232-0.477-0.57-0.428-0.949 0.053-0.399 0.316-0.723 0.688-0.845 0.627-0.207 1.125 0.071 1.681 0.553 0.208 0.181 0.523 0.158 0.706-0.05 0.181-0.208 0.158-0.524-0.05-0.706-0.631-0.546-1.5-1.124-2.65-0.746-0.739 0.243-1.262 0.881-1.366 1.665-0.097 0.753 0.208 1.443 0.88 1.916 0.495 0.308 1.567 0.745 1.613 0.763 1.051 0.426 1.013 1.204 0.976 1.432-0.104 0.64-0.669 1.105-1.344 1.104zM23.5 13c-0.276 0-0.5 0.224-0.5 0.5v5.125l-2.277-5.221c-0.122-0.28-0.412-0.43-0.715-0.37-0.299 0.062-0.508 0.319-0.508 0.625V20.5c0 0.276 0.224 0.5 0.5 0.5s0.5-0.224 0.5-0.5v-5.104l2.277 5.221c0.121 0.282 0.423 0.434 0.714 0.37 0.299-0.062 0.508-0.319 0.508-0.625V13.5c0-0.276-0.224-0.5-0.499-0.5zM19.5 11c-0.276 0-0.5-0.224-0.5-0.5V9.985C19 9.65 18.962 9.322 18.904 9H13.5C12.122 9 11 7.878 11 6.5V1.096C10.677 1.038 10.349 1 10.015 1H4.5C2.57 1 1 2.57 1 4.5v15C1 21.43 2.57 23 4.5 23h11c0.615 0 1.22-0.162 1.75-0.468 0.239-0.14 0.545-0.058 0.683 0.182 0.139 0.239 0.057 0.545-0.182 0.683C17.069 23.791 16.292 24 15.501 24H4.5C2.019 24 0 21.981 0 19.5v-15C0 2.019 2.019 0 4.5 0h5.515c1.736 0 3.369 0.676 4.596 1.904l3.485 3.485C19.324 6.617 20 8.249 20 9.985V10.5c0 0.276-0.224 0.5-0.5 0.5zM18.621 8c-0.273-0.704-0.682-1.354-1.231-1.904l-3.485-3.485c-0.55-0.55-1.2-0.959-1.904-1.231V6.5c0 0.827 0.673 1.5 1.5 1.5z" />
</svg>