<svg id="judge_Layer_1" viewBox="0 0 24 24" fill="currentColor" width="32" height="32" data-name="Layer 1" xmlns="http://www.w3.org/2000/svg" xmlns:xlink="http://www.w3.org/1999/xlink">
    <title>judge</title>
    <path d="M12 13.998c-4.964 0-9.002 4.038-9.002 9.002v0.5c0 0.276 0.224 0.5 0.5 0.5s0.5-0.224 0.5-0.5V23c0-3.684 2.506-6.787 5.901-7.713L9.05 18.852c-0.128 0.521-0.012 1.061 0.319 1.483s0.828 0.664 1.365 0.664h2.533c0.536 0 1.033-0.242 1.365-0.664 0.33-0.422 0.446-0.962 0.319-1.48l-0.85-3.568c3.395 0.926 5.901 4.028 5.901 7.713v0.5c0 0.276 0.224 0.5 0.5 0.5s0.5-0.224 0.5-0.5V23c0-4.964-4.038-9.002-9.002-9.002zM13.979 19.091c0.054 0.221 5e-3 0.449-0.135 0.627-0.14 0.179-0.351 0.281-0.577 0.281h-2.533c-0.227 0-0.438-0.103-0.577-0.281-0.14-0.178-0.189-0.406-0.134-0.63l0.957-4.017c0.335-0.043 0.674-0.073 1.021-0.073s0.686 0.03 1.021 0.073zM3.998 10.997c0 1.103 0.897 2 2 2s2-0.898 2-2c0-0.224-0.045-0.435-0.113-0.636 1.101 1.04 2.561 1.637 4.114 1.637s3.013-0.597 4.114-1.636C16.045 10.563 16 10.775 16 10.998c0 1.103 0.898 2 2 2s2-0.898 2-2c0-0.6-0.271-1.133-0.692-1.5 0.42-0.367 0.692-0.9 0.692-1.5 0-0.73-0.397-1.363-0.983-1.713C19.314 5.936 19.5 5.49 19.5 4.997c0-0.931-0.639-1.715-1.501-1.937 0-0.021 0-0.042 0-0.063 0-1.192-1.101-2.143-2.264-1.983-0.517-0.914-1.808-1.291-2.737-0.745-0.607-0.356-1.394-0.356-2 0C10.069-0.276 8.779 0.1 8.261 1.014 7.085 0.856 5.996 1.806 5.996 2.997V3.06C5.133 3.283 4.495 4.067 4.495 4.998c0 0.493 0.186 0.939 0.483 1.288-0.586 0.349-0.983 0.983-0.983 1.713 0 0.6 0.271 1.133 0.691 1.5-0.42 0.367-0.691 0.9-0.688 1.498zM12 10.997c-1.677 0-3.225-0.833-4.157-2.227 0.1-0.238 0.156-0.5 0.156-0.774 0-0.493-0.186-0.939-0.483-1.288 0.603-0.358 1.008-1.029 0.982-1.777 0.522-0.136 0.971-0.482 1.237-0.953 0.438 0.059 0.885-0.032 1.264-0.255 0.607 0.356 1.394 0.356 2 0 0.379 0.223 0.832 0.314 1.264 0.255 0.267 0.472 0.715 0.818 1.238 0.953-0.026 0.748 0.379 1.42 0.982 1.777C16.186 7.057 16 7.503 16 7.996c0 0.274 0.056 0.536 0.156 0.774-0.932 1.394-2.48 2.227-4.156 2.227zM19.002 10.997c0 0.552-0.448 1-1 1s-1-0.448-1-1 0.448-1 1-1 1 0.448 1 1zM17.001 7.996c0-0.552 0.448-1 1-1s1 0.448 1 1-0.448 1-1 1-1-0.448-1-1zM6.545 4.004h0.018c0.17 0.021 0.33-0.064 0.431-0.199 0.101-0.136 0.127-0.312 0.07-0.471-0.044-0.12-0.065-0.231-0.065-0.339 0-0.677 0.718-1.191 1.371-0.927 0.268 0.115 0.599-0.051 0.669-0.333 0.183-0.673 1.097-0.956 1.625-0.48 0.19 0.172 0.481 0.172 0.671 0 0.371-0.336 0.958-0.336 1.329 0 0.19 0.172 0.481 0.172 0.671 0 0.529-0.478 1.443-0.193 1.625 0.48 0.07 0.282 0.4 0.447 0.669 0.333C16.282 1.803 17 2.318 17 2.995c0 0.107-0.021 0.219-0.065 0.341-0.059 0.163 2e-3 0.342 0.11 0.478 0.105 0.132 0.297 0.201 0.469 0.182 0.545 8e-3 0.987 0.453 0.987 1 0 0.552-0.448 1-1 1s-1-0.448-1-1c0-0.107 0.021-0.219 0.065-0.341 0.057-0.158-2e-3-0.33-0.103-0.464-0.095-0.127-0.271-0.196-0.431-0.196-0.449 4e-3-0.871-0.293-0.992-0.739-0.037-0.138-0.132-0.253-0.26-0.316-0.128-0.065-0.277-0.071-0.409-0.017-0.358 0.145-0.754 0.067-1.036-0.188-0.189-0.172-0.48-0.172-0.671 0-0.371 0.336-0.958 0.336-1.329 0-0.19-0.172-0.481-0.172-0.671 0-0.281 0.255-0.68 0.33-1.036 0.188-0.267-0.115-0.6 0.051-0.669 0.333-0.119 0.436-0.533 0.74-1.024 0.732-0.166-0.017-0.33 0.065-0.431 0.199-0.101 0.136-0.127 0.312-0.07 0.471 0.044 0.12 0.065 0.231 0.065 0.339 0 0.552-0.449 1-1 1s-1-0.448-1-1c0-0.546 0.44-0.991 1.046-0.993zM4.998 7.996c0-0.552 0.449-1 1-1s1 0.448 1 1-0.449 1-1 1-1-0.448-1-1zM6.999 10.997c0 0.552-0.449 1-1 1s-1-0.448-1-1 0.449-1 1-1 1 0.448 1 1z" />
</svg>