<svg id="jug_bottle_Layer_1" viewBox="0 0 24 24" fill="currentColor" width="32" height="32" data-name="Layer 1" xmlns="http://www.w3.org/2000/svg" xmlns:xlink="http://www.w3.org/1999/xlink">
    <title>jug-bottle</title>
    <path d="M17.804 5.891 12 4.945V1h0.5C12.776 1 13 0.776 13 0.5S12.776 0 12.5 0h-7C5.224 0 5 0.224 5 0.5S5.224 1 5.5 1H6v4.024L4.92 5.429C3.173 6.084 2 7.777 2 9.643V19.5C2 21.981 4.019 24 6.5 24h11c2.481 0 4.5-2.019 4.5-4.5v-8.674c0-2.463-1.765-4.539-4.196-4.935zM21 19.5c0 1.93-1.57 3.5-3.5 3.5h-11c-1.758 0-3.204-1.308-3.449-3H11.5c0.276 0 0.5-0.224 0.5-0.5S11.776 19 11.5 19H3v-3h8.5c0.276 0 0.5-0.224 0.5-0.5S11.776 15 11.5 15H3v-3h8.5c0.276 0 0.5-0.224 0.5-0.5S11.776 11 11.5 11H3V9.643c0-1.451 0.913-2.768 2.271-3.277L6.675 5.84C6.87 5.767 7 5.58 7 5.372V1h4v4.371c0 0.245 0.178 0.454 0.419 0.494l6.224 1.014C19.588 7.195 21 8.856 21 10.827zM17 8c-1.654 0-3 1.346-3 3v6c0 1.654 1.346 3 3 3s3-1.346 3-3v-6c0-1.654-1.346-3-3-3zM19 17c0 1.103-0.897 2-2 2s-2-0.897-2-2v-6c0-1.103 0.897-2 2-2s2 0.897 2 2z" />
</svg>