<svg id="jug_alt_Layer_1" viewBox="0 0 24 24" fill="currentColor" width="32" height="32" data-name="Layer 1" xmlns="http://www.w3.org/2000/svg" xmlns:xlink="http://www.w3.org/1999/xlink">
    <title>jug-alt</title>
    <path d="M21.677 5.829c-0.783-0.667-1.773-0.942-2.791-0.78-1.49 0.241-2.56 1.303-2.819 2.678l-1.224-1.428C14.299 5.665 14 4.856 14 4.021V1h0.5C14.776 1 15 0.776 15 0.5S14.776 0 14.5 0h-7C7.224 0 7 0.224 7 0.5S7.224 1 7.5 1H8v3.021c0 0.834-0.299 1.644-0.842 2.278L3.565 10.49c-0.923 1.076-1.443 2.427-1.53 3.836C2.014 14.381 2 19.501 2 19.501c0 2.481 2.019 4.5 4.5 4.5h9c2.481 0 4.5-2.019 4.5-4.5V14.95c1.692-0.245 3-1.691 3-3.449V8.758c0-1.145-0.482-2.213-1.323-2.929zM3 15h11.5c0.275 0 0.5 0.224 0.5 0.5v3c0 0.276-0.225 0.5-0.5 0.5H3zM19 19.5c0 1.93-1.57 3.5-3.5 3.5h-9c-1.758 0-3.204-1.308-3.449-3H14.5c0.827 0 1.5-0.673 1.5-1.5v-3c0-0.827-0.673-1.5-1.5-1.5H3.064c0.139-1.051 0.564-2.048 1.26-2.86l3.593-4.191C8.615 6.134 9 5.094 9 4.021V1h4v3.021c0 1.073 0.385 2.113 1.083 2.928l3.593 4.191C18.53 12.137 19 13.408 19 14.72zM22 11.5c0 1.231-0.895 2.25-2.068 2.456-0.152-1.273-0.655-2.484-1.496-3.467L17 8.814V8.481c-0.052-1.453 0.99-2.276 2.046-2.446 0.721-0.117 1.427 0.08 1.982 0.554C21.645 7.115 22 7.905 22 8.756z" />
</svg>