<svg id="july_calendar_Layer_1" viewBox="0 0 24 24" fill="currentColor" width="32" height="32" data-name="Layer 1" xmlns="http://www.w3.org/2000/svg" xmlns:xlink="http://www.w3.org/1999/xlink">
    <title>july-calendar</title>
    <path d="M13 16.5v5c0 1.379-1.122 2.5-2.5 2.5S8 22.879 8 21.5C8 21.224 8.224 21 8.5 21S9 21.224 9 21.5c0 0.827 0.673 1.5 1.5 1.5s1.5-0.673 1.5-1.5v-5c0-0.276 0.224-0.5 0.5-0.5s0.5 0.224 0.5 0.5zM18.5 16c-0.276 0-0.5 0.224-0.5 0.5v5c0 0.827-0.673 1.5-1.5 1.5S15 22.327 15 21.5v-5c0-0.276-0.224-0.5-0.5-0.5S14 16.224 14 16.5v5c0 1.379 1.121 2.5 2.5 2.5s2.5-1.121 2.5-2.5v-5c0-0.276-0.224-0.5-0.5-0.5zM23.5 23H21v-6.5c0-0.276-0.224-0.5-0.5-0.5S20 16.224 20 16.5V23c0 0.552 0.448 1 1 1h2.5c0.276 0 0.5-0.224 0.5-0.5S23.776 23 23.5 23zM24 6.5v8c0 0.276-0.224 0.5-0.5 0.5S23 14.776 23 14.5V9H1v10.5C1 21.43 2.57 23 4.5 23h1C5.776 23 6 23.224 6 23.5S5.776 24 5.5 24h-1C2.019 24 0 21.981 0 19.5v-13C0 4.019 2.019 2 4.5 2H6V0.5C6 0.224 6.224 0 6.5 0S7 0.224 7 0.5V2h10V0.5C17 0.224 17.224 0 17.5 0S18 0.224 18 0.5V2h1.5C21.981 2 24 4.019 24 6.5zM23 6.5C23 4.57 21.43 3 19.5 3h-15C2.57 3 1 4.57 1 6.5V8h22z" />
</svg>