<svg id="jumping_rope_Layer_1" viewBox="0 0 24 24" fill="currentColor" width="32" height="32" data-name="Layer 1" xmlns="http://www.w3.org/2000/svg" xmlns:xlink="http://www.w3.org/1999/xlink">
    <title>jumping-rope</title>
    <path d="M19.616 18.495C23.223 14.221 24 10.171 24 7.5 24 2.347 20.371 0 17 0 11.037 0 6 4.579 6 10c0 3.309 2.691 6 6 6s6-2.691 6-6c0-2.55-1.151-5.09-3.158-6.968-0.202-0.188-0.518-0.178-0.707 0.023-0.188 0.202-0.178 0.519 0.023 0.707C15.964 5.451 17 7.725 17 9.999c0 2.757-2.243 5-5 5s-5-2.243-5-5C7 5.121 11.579 1 17 1c2.986 0 6 2.01 6 6.5 0 2.49-0.728 6.265-4.094 10.285l-0.346-0.346c-0.584-0.584-1.537-0.584-2.121 0s-0.585 1.536 0 2.121l0.396 0.396-3.189 3.189c-0.195 0.195-0.195 0.512 0 0.707 0.098 0.098 0.226 0.146 0.354 0.146s0.256-0.049 0.354-0.146l3.189-3.189 0.396 0.396c0.292 0.292 0.677 0.438 1.061 0.438s0.769-0.146 1.061-0.438c0.585-0.585 0.585-1.536 0-2.121zM19.353 20.353c-0.195 0.195-0.512 0.195-0.707 0l-1.5-1.5c-0.195-0.195-0.195-0.512 0-0.707C17.244 18.048 17.372 18 17.5 18s0.256 0.049 0.354 0.146l1.5 1.5c0.195 0.195 0.195 0.512-1e-3 0.707zM7.164 19.957 7.56 19.561c0.585-0.585 0.585-1.536 0-2.121s-1.537-0.584-2.121 0l-0.346 0.346C1.728 13.765 1 9.99 1 7.5 1 3.01 4.014 1 7 1 7.482 1 7.965 1.031 8.435 1.094 8.703 1.126 8.96 0.938 8.997 0.663 9.033 0.39 8.84 0.138 8.566 0.101 8.053 0.034 7.527-1e-3 7.001-1e-3 3.629 0 0 2.347 0 7.5c0 2.671 0.777 6.721 4.384 10.995L3.94 18.939c-0.585 0.585-0.585 1.536 0 2.121 0.292 0.292 0.677 0.438 1.061 0.438s0.769-0.146 1.061-0.438l0.396-0.396 3.189 3.189c0.098 0.098 0.226 0.146 0.354 0.146s0.256-0.049 0.354-0.146c0.195-0.195 0.195-0.512 0-0.707zM4.646 20.353c-0.195-0.195-0.195-0.512 0-0.707l1.5-1.5C6.244 18.048 6.372 18 6.5 18s0.256 0.049 0.354 0.146c0.195 0.195 0.195 0.512 0 0.707l-1.5 1.5c-0.195 0.195-0.512 0.195-0.708 0z" />
</svg>