<svg id="k_pop_microphone_Layer_1" viewBox="0 0 24 24" fill="currentColor" width="32" height="32" data-name="Layer 1" xmlns="http://www.w3.org/2000/svg" xmlns:xlink="http://www.w3.org/1999/xlink">
    <title>k-pop-microphone</title>
    <path d="M11.739 9H16.5C16.776 9 17 8.776 17 8.5S16.776 8 16.5 8h-4.107C12.778 7.249 13 6.401 13 5.5S12.778 3.751 12.393 3H20.5C21.879 3 23 4.121 23 5.5c0 0.616-0.226 1.208-0.637 1.667-0.184 0.205-0.166 0.521 0.04 0.706 0.205 0.183 0.521 0.166 0.706-0.04C23.683 7.191 24 6.362 24 5.5 24 3.57 22.43 2 20.5 2h-8.761C10.73 0.779 9.204 0 7.5 0h-2C2.467 0 0 2.468 0 5.5S2.467 11 5.5 11h2c1.704 0 3.23-0.779 4.239-2zM1 5.5C1 3.019 3.019 1 5.5 1H6v9H5.5C3.019 10 1 7.981 1 5.5zM7.5 10H7V1h0.5C9.981 1 12 3.019 12 5.5S9.981 10 7.5 10zM10 16H9c-0.551 0-1 0.448-1 1v6.5C8 23.776 8.224 24 8.5 24S9 23.776 9 23.5V21h1c1.378 0 2.5-1.121 2.5-2.5S11.378 16 10 16zM10 20H9v-3h1c0.827 0 1.5 0.673 1.5 1.5S10.827 20 10 20zM21.5 16h-1c-0.552 0-1 0.448-1 1v6.5c0 0.276 0.224 0.5 0.5 0.5s0.5-0.224 0.5-0.5V21h1c1.379 0 2.5-1.121 2.5-2.5S22.879 16 21.5 16zM21.5 20h-1v-3h1c0.827 0 1.5 0.673 1.5 1.5S22.327 20 21.5 20zM16 16c-1.379 0-2.5 1.121-2.5 2.5v3c0 1.379 1.121 2.5 2.5 2.5s2.5-1.121 2.5-2.5v-3c0-1.379-1.121-2.5-2.5-2.5zM17.5 21.5c0 0.827-0.673 1.5-1.5 1.5s-1.5-0.673-1.5-1.5v-3c0-0.827 0.673-1.5 1.5-1.5s1.5 0.673 1.5 1.5zM4.466 16.681 3.282 19.734l1.192 3.609c0.087 0.263-0.056 0.545-0.318 0.632-0.255 0.087-0.546-0.053-0.631-0.317l-1.208-3.657H1v3.5c0 0.276-0.224 0.5-0.5 0.5S0 23.777 0 23.501v-7c0-0.276 0.224-0.5 0.5-0.5s0.5 0.224 0.5 0.5v2.5h1.494l1.039-2.681c0.101-0.258 0.391-0.388 0.647-0.285 0.258 0.1 0.385 0.389 0.286 0.646zM7 19.5C7 19.776 6.776 20 6.5 20h-1C5.224 20 5 19.776 5 19.5S5.224 19 5.5 19h1C6.776 19 7 19.224 7 19.5zM23.686 10.536 21.385 9.615 20.464 7.314c-0.15-0.381-0.777-0.381-0.928 0L18.617 9.61l-2.294 0.868c-0.191 0.072-0.319 0.254-0.323 0.459-4e-3 0.204 0.117 0.39 0.306 0.47l2.308 0.973 0.923 2.306c0.075 0.19 0.26 0.314 0.464 0.314s0.389-0.124 0.464-0.314l0.921-2.301 2.301-0.921c0.19-0.075 0.314-0.26 0.314-0.464s-0.124-0.389-0.315-0.464zM20.815 11.536c-0.127 0.051-0.228 0.151-0.278 0.278l-0.536 1.339-0.536-1.339c-0.049-0.124-0.146-0.224-0.27-0.275l-1.348-0.567 1.33-0.504c0.131-0.05 0.235-0.152 0.287-0.282L20 8.847l0.536 1.339c0.051 0.127 0.151 0.228 0.278 0.278L22.153 11zM13.501 15.959c-0.191 0-0.358-0.13-0.404-0.316l-0.357-1.429-1.43-0.385c-0.185-0.05-0.312-0.218-0.308-0.409 3e-3-0.191 0.137-0.356 0.323-0.399l1.418-0.328 0.354-1.418c0.093-0.371 0.716-0.371 0.809 0l0.356 1.424 1.424 0.356c0.186 0.046 0.316 0.213 0.316 0.404s-0.13 0.358-0.316 0.404l-1.424 0.356-0.356 1.424c-0.046 0.186-0.213 0.316-0.405 0.316z" />
</svg>