<svg id="k_pop_headphones_Layer_1" viewBox="0 0 24 24" fill="currentColor" width="32" height="32" data-name="Layer 1" xmlns="http://www.w3.org/2000/svg" xmlns:xlink="http://www.w3.org/1999/xlink">
    <title>k-pop-headphones</title>
    <path d="M23 13.003c2e-3 0.301-0.03 0.6-0.094 0.89-0.06 0.27 0.111 0.536 0.381 0.596 0.263 0.06 0.537-0.11 0.596-0.381 0.08-0.362 0.117-0.735 0.117-1.107 0-2.923-2.243-5-5-5v-1c0-3.859-3.141-7-7-7S5 3.141 5 7v1c-2.757 0-5 2.231-5 4.997 0 2.405 1.759 4.715 4.172 5.004 0.975 0.018 1.853-0.858 1.828-1.84V7c0-3.309 2.691-6 6-6s6 2.691 6 6v6.5c0 0.276 0.224 0.5 0.5 0.5s0.5-0.224 0.5-0.5V9c2.206 0 4 1.794 4 4.003zM5 16.161c0 0.266-0.122 0.511-0.336 0.671-0.209 0.158-0.47 0.208-0.722 0.136C2.227 16.476 0.99 14.808 1 13c0-2.206 1.794-4 4-4zM10 16H9c-0.552 0-1 0.448-1 1v6.5C8 23.776 8.224 24 8.5 24S9 23.776 9 23.5V21h1c1.379 0 2.5-1.121 2.5-2.5S11.379 16 10 16zM10 20H9v-3h1c0.827 0 1.5 0.673 1.5 1.5S10.827 20 10 20zM21.5 16h-1c-0.552 0-1 0.448-1 1v6.5c0 0.276 0.224 0.5 0.5 0.5s0.5-0.224 0.5-0.5V21h1c1.379 0 2.5-1 2.5-2.5 0-1.379-1.121-2.5-2.5-2.5zM21.5 20h-1v-3h1c0.827 0 1.5 0.673 1.5 1.5S22.327 20 21.5 20zM16 16c-1.379 0-2.5 1.121-2.5 2.5v3c0 1.379 1.121 2.5 2.5 2.5s2.5-1.121 2.5-2.5v-3c0-1.379-1.121-2.5-2.5-2.5zM17.5 21.5c0 0.827-0.673 1.5-1.5 1.5s-1.5-0.673-1.5-1.5v-3c0-0.827 0.673-1.5 1.5-1.5s1.5 0.673 1.5 1.5zM9 6.5V9h1.494l1.04-2.681c0.099-0.259 0.391-0.387 0.646-0.285 0.258 0.1 0.386 0.39 0.285 0.646l-1.184 3.053 1.192 3.609c0.087 0.263-0.056 0.545-0.317 0.632-0.256 0.086-0.546-0.053-0.632-0.317L10.316 10H8.999v3.5c0 0.276-0.224 0.5-0.5 0.5s-0.5-0.224-0.5-0.5v-7c0-0.276 0.224-0.5 0.5-0.5S8.999 6.224 9 6.5zM13.5 10C13.224 10 13 9.776 13 9.5S13.224 9 13.5 9h1C14.776 9 15 9.224 15 9.5S14.776 10 14.5 10z" />
</svg>