<svg id="k_Layer_1" viewBox="0 0 24 24" fill="currentColor" width="32" height="32" data-name="Layer 1" xmlns="http://www.w3.org/2000/svg" xmlns:xlink="http://www.w3.org/1999/xlink">
    <title>k</title>
    <path d="M14.109 12.488 21.916 0.777c0.153-0.23 0.091-0.54-0.139-0.693-0.231-0.153-0.541-0.092-0.693 0.139L13.232 12H3V0.5c0.01-0.649-1.01-0.649-1 0v11.937c-6e-3 0.041-6e-3 0.085 0 0.126V23.5c-0.01 0.649 1.01 0.649 1 0V13h10.246l7.85 10.794c0.163 0.225 0.477 0.272 0.698 0.11 0.224-0.162 0.273-0.475 0.11-0.698z" />
</svg>