<svg id="kaaba_Layer_1" viewBox="0 0 24 24" fill="currentColor" width="32" height="32" data-name="Layer 1" xmlns="http://www.w3.org/2000/svg" xmlns:xlink="http://www.w3.org/1999/xlink">
    <title>kaaba</title>
    <path d="M20.607 3.969l-6.5-3.445c-1.32-0.699-2.895-0.699-4.215 0L3.393 3.969C1.917 4.751 1 6.275 1 7.945v8.11c0 1.67 0.917 3.193 2.393 3.976l6.5 3.445C10.553 23.826 11.277 24 12 24s1.447-0.175 2.107-0.524l6.5-3.445C22.083 19.248 23 17.725 23 16.055v-8.11c0-1.67-0.917-3.194-2.393-3.976zM2 7.945C2 7.74 2.024 7.539 2.058 7.342l7.834 4.135c0.66 0.35 1.384 0.524 2.108 0.524s1.445-0.174 2.104-0.523l7.841-4.113c0.032 0.19 0.054 0.383 0.054 0.58v1.293c-0.044 9e-3-8.361 4.355-8.361 4.355-1.024 0.544-2.25 0.545-3.278 0 0 0-8.298-4.363-8.36-4.37zM3.861 4.853l6.5-3.445C10.874 1.136 11.437 1 12 1s1.126 0.136 1.639 0.408l6.5 3.445c0.664 0.351 1.175 0.899 1.495 1.547l-7.995 4.193c-1.024 0.544-2.25 0.545-3.278 0L2.377 6.379c0.32-0.638 0.828-1.178 1.484-1.526zM20.138 19.148l-6.5 3.445c-1.025 0.544-2.252 0.544-3.277 0l-6.5-3.445C2.713 18.54 2 17.355 2 16.056v-2.745l1.288 0.68c0.074 0.039 0.154 0.058 0.233 0.058 0.179 0 0.353-0.097 0.442-0.267 0.129-0.244 0.035-0.547-0.209-0.676 0 0-1.693-0.877-1.755-0.883v-1.911l7.893 4.165c0.66 0.35 1.384 0.524 2.108 0.524s1.445-0.174 2.104-0.523l7.895-4.141v1.901c-0.044 9e-3-1.703 0.863-1.703 0.863-0.244 0.128-0.339 0.431-0.21 0.675 0.089 0.17 0.263 0.268 0.442 0.268 0.079 0 0.158-0.019 0.232-0.057l1.238-0.65v2.719c0 1.299-0.713 2.484-1.86 3.092zM8.026 15.914c-0.088 0.175-0.265 0.276-0.447 0.276-0.076 0-0.152-0.017-0.225-0.053l-1.631-0.818c-0.246-0.124-0.346-0.424-0.223-0.671 0.125-0.248 0.426-0.346 0.672-0.223l1.631 0.818c0.246 0.124 0.346 0.424 0.223 0.671zM14.046 16.974c0.109 0.253-7e-3 0.548-0.261 0.657-0.572 0.247-1.178 0.371-1.784 0.371-0.541 0-1.083-0.099-1.603-0.296-0.258-0.098-0.388-0.387-0.29-0.645 0.099-0.259 0.389-0.386 0.646-0.29 0.857 0.326 1.793 0.305 2.635-0.058 0.252-0.108 0.549 7e-3 0.657 0.261zM18.409 14.574c0.137 0.24 0.053 0.545-0.188 0.682l-1.448 0.823c-0.078 0.044-0.163 0.065-0.247 0.065-0.174 0-0.343-0.091-0.435-0.253-0.137-0.24-0.053-0.545 0.188-0.682l1.448-0.823c0.239-0.137 0.545-0.053 0.682 0.188z" />
</svg>