<svg id="kayak_Layer_1" viewBox="0 0 24 24" fill="currentColor" width="32" height="32" data-name="Layer 1" xmlns="http://www.w3.org/2000/svg" xmlns:xlink="http://www.w3.org/1999/xlink">
    <title>kayak</title>
    <path d="M7.5 8C8.878 8 10 6.878 10 5.5S8.878 3 7.5 3 5 4.122 5 5.5 6.122 8 7.5 8zM7.5 4C8.327 4 9 4.673 9 5.5S8.327 7 7.5 7 6 6.327 6 5.5 6.673 4 7.5 4zM14 13.5c0 0.276-0.224 0.5-0.5 0.5h-1.946c-0.52 0-0.995-0.264-1.272-0.704l-1.555-2.489C8.411 10.302 7.867 10 7.27 10c-0.823 0-1.531 0.582-1.684 1.382C5.336 12.69 5.045 14.696 5.007 17h3.004c0.013-0.838 0.052-1.689 0.132-2.547 0.026-0.274 0.273-0.472 0.544-0.451 0.275 0.025 0.477 0.27 0.452 0.545C9.062 15.372 9.024 16.193 9.011 17h3.488c0.276 0 0.5 0.224 0.5 0.5s-0.224 0.5-0.5 0.5H1.729c-0.584-0.023-0.95 0.719-0.576 1.168l1.287 1.678C3.473 22.196 5.105 23 6.805 23h4.696c0.276 0 0.5 0.224 0.5 0.5s-0.224 0.5-0.5 0.5H6.804c-2.009 0-3.937-0.951-5.159-2.546l-1.287-1.677C-0.525 18.705 0.34 16.952 1.728 17h2.279c0.039-2.382 0.339-4.455 0.597-5.805C4.847 9.923 5.968 9 7.271 9c0.943 0 1.805 0.478 2.304 1.277l1.555 2.488C11.222 12.912 11.381 13 11.554 13H13.5c0.276 0 0.5 0.224 0.5 0.5zM19 2.1C19 0.824 18.019 0 16.5 0S14 0.824 14 2.1c0 0.836 0.668 4.085 2 4.766v10.267c-1.332 0.681-2 3.931-2 4.767 0 1.275 0.981 2.1 2.5 2.1s2.5-0.824 2.5-2.1c0-0.836-0.668-4.086-2-4.767V6.867c1.332-0.681 2-3.93 2-4.767zM15 2.1C15 1.143 15.939 1 16.5 1S18 1.143 18 2.1C18 3.449 17.019 6 16.5 6S15 3.449 15 2.1zM18 21.9c0 0.957-0.939 1.1-1.5 1.1S15 22.857 15 21.9c0-1.349 0.981-3.9 1.5-3.9s1.5 2.552 1.5 3.9zM23.642 19.776l-1.287 1.679c-0.254 0.332-0.543 0.642-0.858 0.92-0.207 0.182-0.523 0.163-0.706-0.044-0.183-0.208-0.163-0.523 0.044-0.706 0.268-0.235 0.512-0.497 0.727-0.778l1.288-1.679c0.373-0.449 7e-3-1.191-0.577-1.168h-1.771c-0.276 0-0.5-0.224-0.5-0.5s0.224-0.5 0.5-0.5h1.771c1.387-0.048 2.253 1.705 1.369 2.776z" />
</svg>