<svg id="kazoo_Layer_1" viewBox="0 0 24 24" fill="currentColor" width="32" height="32" data-name="Layer 1" xmlns="http://www.w3.org/2000/svg" xmlns:xlink="http://www.w3.org/1999/xlink">
    <title>kazoo</title>
    <path d="M23.268 1.466 22.535 0.733c-0.865-0.865-2.219-0.98-3.243-0.249L11.71 6.713 10.373 8.066C10.087 8.027 9.797 8 9.501 8c-3.584 0-6.5 2.916-6.5 6.5 0 0.289 0.025 0.571 0.062 0.85L0.88 17.465c-1.17 1.17-1.17 3.073 0 4.243l1.414 1.414c0.566 0.567 1.32 0.879 2.121 0.879s1.555-0.312 2.115-0.873l2.242-2.171c0.24 0.027 0.482 0.044 0.729 0.044 3.584 0 6.5-2.916 6.5-6.5 0-0.24-0.015-0.475-0.04-0.708l1.445-1.465 6.161-7.685c0.677-0.991 0.552-2.327-0.299-3.177zM5.828 22.414c-0.756 0.756-2.072 0.756-2.828 0L1.586 21c-0.78-0.78-0.78-2.049-6e-3-2.823l1.736-1.682c0.65 2.009 2.25 3.593 4.27 4.217zM9.5 20C6.468 20 4 17.533 4 14.5S6.468 9 9.5 9 15 11.467 15 14.5 12.532 20 9.5 20zM22.763 4.047l-6.104 7.615-0.94 0.951c-0.615-2.024-2.194-3.63-4.199-4.288l0.862-0.875 7.517-6.173c0.599-0.427 1.409-0.357 1.929 0.162l0.733 0.733c0.51 0.51 0.585 1.311 0.202 1.875z" />
    <path d="M12.5 14H10v-2.5c0-0.276-0.224-0.5-0.5-0.5S9 11.224 9 11.5V14H6.5C6.224 14 6 14.224 6 14.5S6.224 15 6.5 15H9v2.5C9 17.776 9.224 18 9.5 18s0.5-0.224 0.5-0.5V15h2.5c0.276 0 0.5-0.224 0.5-0.5S12.776 14 12.5 14z" />
</svg>