<svg id="kerning_Layer_1" viewBox="0 0 24 24" fill="currentColor" width="32" height="32" data-name="Layer 1" xmlns="http://www.w3.org/2000/svg" xmlns:xlink="http://www.w3.org/1999/xlink">
    <title>kerning</title>
    <path d="M16.966 0.683l-9 23C7.888 23.88 7.7 24 7.5 24c-0.061 0-0.123-0.011-0.182-0.034-0.257-0.101-0.384-0.391-0.284-0.648l9-23.001c0.101-0.257 0.392-0.385 0.648-0.283 0.257 0.101 0.384 0.391 0.284 0.649zM23.671 18.97c-0.056 0.021-0.114 0.03-0.17 0.03-0.205 0-0.396-0.126-0.47-0.329L21.7 15h-6.199c-0.02 0-0.039-4e-3-0.059-6e-3l-1.333 3.677c-0.094 0.259-0.381 0.393-0.641 0.299s-0.394-0.381-0.3-0.641l4.156-11.462C17.515 6.341 18.004 6 18.57 6s1.054 0.341 1.245 0.867l4.156 11.462c0.094 0.26-0.04 0.547-0.3 0.641zM21.337 14 18.875 7.209C18.807 7.021 18.639 7 18.57 7s-0.237 0.021-0.305 0.209L15.803 14zM10.532 6.03c-0.26-0.094-0.546 0.04-0.641 0.299L5.735 17.791C5.667 17.979 5.499 18 5.43 18s-0.236-0.021-0.305-0.209L0.97 6.329C0.876 6.07 0.589 5.937 0.329 6.03c-0.26 0.094-0.394 0.381-0.3 0.641l4.156 11.462C4.376 18.659 4.865 19 5.43 19s1.054-0.341 1.246-0.867l4.156-11.462c0.094-0.26-0.04-0.547-0.3-0.641z" />
</svg>