<svg id="key_hole_Layer_1" viewBox="0 0 24 24" fill="currentColor" width="32" height="32" data-name="Layer 1" xmlns="http://www.w3.org/2000/svg" xmlns:xlink="http://www.w3.org/1999/xlink">
    <title>key-hole</title>
    <path d="M16.387 12.446C18.03 11.121 19 9.11 19 7c0.079-3.762-3.239-7.079-6.999-7C8.178-0.091 4.722 3.563 5.01 7.374c0.105 1.992 1.05 3.822 2.604 5.072l-2.045 7.92C5.128 22.17 6.645 24.048 8.501 24h7c1.867 0.043 3.374-1.829 2.928-3.654zM17.057 22.256C16.675 22.729 16.108 23 15.5 23h-7c-1.227 0.038-2.246-1.222-1.959-2.404l2.123-8.221c0.051-0.199-0.024-0.408-0.189-0.529-1.472-1.072-2.37-2.722-2.467-4.525C5.763 4.065 8.733 0.921 12 1c3.224-0.067 6.068 2.775 6 6 0 1.905-0.925 3.717-2.475 4.846-0.165 0.121-0.24 0.331-0.189 0.529l2.119 8.201c0.128 0.594-0.017 1.207-0.398 1.68z" />
</svg>