<svg id="key_lock_crypto_Layer_1" viewBox="0 0 24 24" fill="currentColor" width="32" height="32" data-name="Layer 1" xmlns="http://www.w3.org/2000/svg" xmlns:xlink="http://www.w3.org/1999/xlink">
    <title>key-lock-crypto</title>
    <path d="M19 8.276V7c0-3.859-3.141-7-7-7S5 3.141 5 7v1.276C3.258 8.897 2 10.547 2 12.5v7C2 21.981 4.019 24 6.5 24h11c2.481 0 4.5-2.019 4.5-4.5v-7c0-1.953-1.258-3.602-3-4.224zM6 8V7c0-3.309 2.691-6 6-6s6 2.691 6 6v1zM21 19.5c0 1.93-1.57 3.5-3.5 3.5h-11C4.57 23 3 21.43 3 19.5v-7C3 10.57 4.57 9 6.5 9h11c1.93 0 3.5 1.57 3.5 3.5zM14.377 15.803C14.763 15.399 15 14.852 15 14.25 15 13.01 13.99 12 12.75 12H12.5v-0.5c0-0.276-0.224-0.5-0.5-0.5s-0.5 0.224-0.5 0.5V12H11c-0.827 0-1.5 0.673-1.5 1.5v5c0 0.827 0.673 1.5 1.5 1.5h0.5v0.5c0 0.276 0.224 0.5 0.5 0.5s0.5-0.224 0.5-0.5V20h0.75c1.24 0 2.25-1.01 2.25-2.25 0-0.83-0.452-1.558-1.123-1.947zM10.5 13.5c0-0.275 0.225-0.5 0.5-0.5h1.75c0.689 0 1.25 0.561 1.25 1.25s-0.561 1.25-1.25 1.25H10.5zM13.25 19H11c-0.275 0-0.5-0.225-0.5-0.5v-2h2.75c0.689 0 1.25 0.561 1.25 1.25S13.939 19 13.25 19z" />
</svg>