<svg id="key_Layer_1" viewBox="0 0 24 24" fill="currentColor" width="32" height="32" data-name="Layer 1" xmlns="http://www.w3.org/2000/svg" xmlns:xlink="http://www.w3.org/1999/xlink">
    <title>key</title>
    <path d="M21.5 0h-0.758c-0.922 0-1.823 0.374-2.475 1.025l-9.271 9.271C7.714 9.91 6.405 9.899 5.103 10.264c-2.74 0.77-4.776 3.18-5.065 5.997-0.218 2.119 0.516 4.192 2.013 5.689 1.322 1.323 3.097 2.049 4.954 2.049 0.243 0 0.488-0.013 0.733-0.038 2.818-0.289 5.229-2.325 5.997-5.066 0.365-1.302 0.354-2.609-0.031-3.893l2.003-2.003C15.894 12.813 16 12.555 16 12.292v-2.093c0-0.11 0.09-0.2 0.2-0.2h1.6c0.662 0 1.2-0.539 1.2-1.2v-1.6c0-0.11 0.09-0.2 0.2-0.2h2.093c0.267 0 0.519-0.104 0.707-0.293l0.975-0.975C23.636 5.069 24 4.19 24 3.256V2.499c0-1.378-1.121-2.5-2.5-2.499zM23 3.257c0 0.667-0.26 1.295-0.732 1.768L21.293 6H19.2C18.538 6 18 6.539 18 7.2v1.6C18 8.91 17.91 9 17.8 9h-1.6C15.538 9 15 9.539 15 10.2v2.093l-2.22 2.219c-0.136 0.136-0.182 0.336-0.119 0.518 0.412 1.183 0.449 2.392 0.111 3.596-0.658 2.349-2.723 4.094-5.136 4.341-1.82 0.188-3.597-0.442-4.879-1.724-1.283-1.282-1.912-3.061-1.726-4.879 0.248-2.413 1.993-4.478 4.342-5.137 0.543-0.152 1.086-0.228 1.628-0.228 0.661 0 1.318 0.113 1.968 0.339 0.182 0.062 0.382 0.016 0.518-0.119l9.488-9.487C19.44 1.267 20.084 1 20.743 1h0.758c0.827 0 1.5 0.673 1.5 1.5zM7 18c0 0.552-0.448 1-1 1s-1-0.448-1-1 0.448-1 1-1 1 0.448 1 1z" />
</svg>