<svg id="keyboard_finger_Layer_1" viewBox="0 0 24 24" fill="currentColor" width="32" height="32" data-name="Layer 1" xmlns="http://www.w3.org/2000/svg" xmlns:xlink="http://www.w3.org/1999/xlink">
    <title>keyboard-finger</title>
    <path d="M24 4.5v4c0 2.481-2.019 4.5-4.5 4.5h-2c-0.276 0-0.5-0.224-0.5-0.5s0.224-0.5 0.5-0.5h2c1.93 0 3.5-1.57 3.5-3.5v-4C23 2.57 21.43 1 19.5 1h-15C2.57 1 1 2.57 1 4.5v4C1 10.43 2.57 12 4.5 12h3C7.776 12 8 12.224 8 12.5S7.776 13 7.5 13h-3C2.019 13 0 10.981 0 8.5v-4C0 2.019 2.019 0 4.5 0h15C21.981 0 24 2.019 24 4.5zM7 6.5C7 6.224 6.776 6 6.5 6h-2C4.224 6 4 6.224 4 6.5S4.224 7 4.5 7h2C6.776 7 7 6.776 7 6.5zM9.5 7h2C11.776 7 12 6.776 12 6.5S11.776 6 11.5 6h-2C9.224 6 9 6.224 9 6.5S9.224 7 9.5 7zM14.5 7h5C19.776 7 20 6.776 20 6.5S19.776 6 19.5 6h-5C14.224 6 14 6.224 14 6.5S14.224 7 14.5 7zM6.5 3h-2C4.224 3 4 3.224 4 3.5S4.224 4 4.5 4h2C6.776 4 7 3.776 7 3.5S6.776 3 6.5 3zM9.5 4h2C11.776 4 12 3.776 12 3.5S11.776 3 11.5 3h-2C9.224 3 9 3.224 9 3.5S9.224 4 9.5 4zM14.5 4h5C19.776 4 20 3.776 20 3.5S19.776 3 19.5 3h-5C14.224 3 14 3.224 14 3.5S14.224 4 14.5 4zM19.5 9h-1C18.224 9 18 9.224 18 9.5s0.224 0.5 0.5 0.5h1c0.276 0 0.5-0.224 0.5-0.5S19.776 9 19.5 9zM4.5 9C4.224 9 4 9.224 4 9.5S4.224 10 4.5 10h1C5.776 10 6 9.776 6 9.5S5.776 9 5.5 9zM19.731 18.938l-4.756-1.784v-4.546c0-1.273-0.896-2.38-2.083-2.573-0.733-0.119-1.476 0.085-2.035 0.561-0.56 0.477-0.881 1.171-0.881 1.905v7.424l-0.138 0.066-1.688-1.343c0 0-7e-3-3e-3-0.011-6e-3-1.008-0.904-2.562-0.844-3.489 0.15-0.941 1.007-0.894 2.588 0.106 3.524l1.64 1.548c0.092 0.087 0.214 0.135 0.341 0.135 0.448 0 0.667-0.547 0.342-0.856l-1.633-1.551c-0.599-0.562-0.629-1.514-0.064-2.118 0.561-0.602 1.509-0.635 2.115-0.073 4e-3 4e-3 0.01 4e-3 0.013 8e-3 7e-3 6e-3 0.01 0.015 0.018 0.021l1.688 1.342c0.327 0.262 0.767 0.311 1.146 0.13 0.379-0.183 0.615-0.558 0.615-0.979v-7.424c0-0.44 0.193-0.857 0.529-1.144 0.34-0.29 0.777-0.407 1.226-0.336 0.709 0.116 1.245 0.798 1.245 1.587v4.893c0 0.208 0.129 0.395 0.324 0.468l5.08 1.905c1.602 0.601 2.596 1.99 2.596 3.627 0 0.276 0.224 0.5 0.5 0.5s0.5-0.224 0.5-0.5c0-2.064-1.243-3.812-3.246-4.561z" />
</svg>