<svg id="keyboard_left_Layer_1" viewBox="0 0 24 24" fill="currentColor" width="32" height="32" data-name="Layer 1" xmlns="http://www.w3.org/2000/svg" xmlns:xlink="http://www.w3.org/1999/xlink">
    <title>keyboard-left</title>
    <path d="M24 19.5c0 0.276-0.224 0.5-0.5 0.5h-12C9.019 20 7 17.981 7 15.5v-7C7 6.019 9.019 4 11.5 4h12C23.776 4 24 4.224 24 4.5S23.776 5 23.5 5h-12C9.57 5 8 6.57 8 8.5v7c0 1.93 1.57 3.5 3.5 3.5h12c0.276 0 0.5 0.224 0.5 0.5zM14 13.5c0-0.276-0.224-0.5-0.5-0.5h-2c-0.276 0-0.5 0.224-0.5 0.5s0.224 0.5 0.5 0.5h2c0.276 0 0.5-0.224 0.5-0.5zM18.5 13H16c-0.276 0-0.5 0.224-0.5 0.5S15.724 14 16 14h2.5c0.276 0 0.5-0.224 0.5-0.5S18.776 13 18.5 13zM23.5 13h-2c-0.276 0-0.5 0.224-0.5 0.5s0.224 0.5 0.5 0.5h2c0.276 0 0.5-0.224 0.5-0.5S23.776 13 23.5 13zM13.5 10h-2c-0.276 0-0.5 0.224-0.5 0.5s0.224 0.5 0.5 0.5h2c0.276 0 0.5-0.224 0.5-0.5S13.776 10 13.5 10zM18.5 10h-2c-0.276 0-0.5 0.224-0.5 0.5s0.224 0.5 0.5 0.5h2c0.276 0 0.5-0.224 0.5-0.5S18.776 10 18.5 10zM23.5 10h-2c-0.276 0-0.5 0.224-0.5 0.5s0.224 0.5 0.5 0.5h2c0.276 0 0.5-0.224 0.5-0.5S23.776 10 23.5 10zM13.5 7h-2C11.224 7 11 7.224 11 7.5S11.224 8 11.5 8h2C13.776 8 14 7.776 14 7.5S13.776 7 13.5 7zM18.5 7h-2C16.224 7 16 7.224 16 7.5S16.224 8 16.5 8h2C18.776 8 19 7.776 19 7.5S18.776 7 18.5 7zM23.5 7h-2C21.224 7 21 7.224 21 7.5S21.224 8 21.5 8h2C23.776 8 24 7.776 24 7.5S23.776 7 23.5 7zM23.5 16h-8c-0.276 0-0.5 0.224-0.5 0.5s0.224 0.5 0.5 0.5h8c0.276 0 0.5-0.224 0.5-0.5S23.776 16 23.5 16zM11.5 16c-0.276 0-0.5 0.224-0.5 0.5s0.224 0.5 0.5 0.5h1c0.276 0 0.5-0.224 0.5-0.5S12.776 16 12.5 16zM1.284 12.631c-0.378-0.378-0.378-0.994-8e-3-1.364l3.569-3.405c0.2-0.19 0.207-0.507 0.017-0.707S4.354 6.948 4.155 7.138l-3.578 3.414c-0.769 0.768-0.769 2.019 3e-3 2.789l3.57 3.516c0.097 0.096 0.224 0.144 0.351 0.144 0.129 0 0.258-0.05 0.356-0.149 0.193-0.196 0.191-0.513-6e-3-0.707z" />
</svg>