<svg id="keyboard_down_Layer_1" viewBox="0 0 24 24" fill="currentColor" width="32" height="32" data-name="Layer 1" xmlns="http://www.w3.org/2000/svg" xmlns:xlink="http://www.w3.org/1999/xlink">
    <title>keyboard-down</title>
    <path d="M19.5 4h-15C2.019 4 0 6.019 0 8.5v4C0 14.981 2.019 17 4.5 17h15c2.481 0 4.5-2.019 4.5-4.5v-4C24 6.019 21.981 4 19.5 4zM23 12.5c0 1.93-1.57 3.5-3.5 3.5h-15C2.57 16 1 14.43 1 12.5v-4C1 6.57 2.57 5 4.5 5h15C21.43 5 23 6.57 23 8.5zM7 10.5C7 10.776 6.776 11 6.5 11h-2C4.224 11 4 10.776 4 10.5S4.224 10 4.5 10h2C6.776 10 7 10.224 7 10.5zM9 10.5C9 10.224 9.224 10 9.5 10h2c0.276 0 0.5 0.224 0.5 0.5S11.776 11 11.5 11h-2C9.224 11 9 10.776 9 10.5zM20 10.5c0 0.276-0.224 0.5-0.5 0.5h-5c-0.276 0-0.5-0.224-0.5-0.5s0.224-0.5 0.5-0.5h5c0.276 0 0.5 0.224 0.5 0.5zM7 7.5C7 7.776 6.776 8 6.5 8h-2C4.224 8 4 7.776 4 7.5S4.224 7 4.5 7h2C6.776 7 7 7.224 7 7.5zM9 7.5C9 7.224 9.224 7 9.5 7h2C11.776 7 12 7.224 12 7.5S11.776 8 11.5 8h-2C9.224 8 9 7.776 9 7.5zM20 7.5C20 7.776 19.776 8 19.5 8h-5C14.224 8 14 7.776 14 7.5S14.224 7 14.5 7h5C19.776 7 20 7.224 20 7.5zM16 13.5c0 0.276-0.224 0.5-0.5 0.5h-7C8.224 14 8 13.776 8 13.5S8.224 13 8.5 13h7c0.276 0 0.5 0.224 0.5 0.5zM20 13.5c0 0.276-0.224 0.5-0.5 0.5h-1c-0.276 0-0.5-0.224-0.5-0.5s0.224-0.5 0.5-0.5h1c0.276 0 0.5 0.224 0.5 0.5zM6 13.5C6 13.776 5.776 14 5.5 14h-1C4.224 14 4 13.776 4 13.5S4.224 13 4.5 13h1C5.776 13 6 13.224 6 13.5zM16.85 19.144c0.197 0.194 0.199 0.511 6e-3 0.707l-3.515 3.569c-0.386 0.386-0.892 0.579-1.397 0.579s-1.008-0.192-1.392-0.576l-3.414-3.578c-0.19-0.199-0.183-0.516 0.017-0.706 0.199-0.191 0.517-0.185 0.707 0.017l3.405 3.569c0.37 0.369 0.985 0.37 1.364-9e-3l3.512-3.566c0.193-0.198 0.51-0.199 0.707-6e-3z" />
</svg>