<svg id="keynote_Layer_1" viewBox="0 0 24 24" fill="currentColor" width="32" height="32" data-name="Layer 1" xmlns="http://www.w3.org/2000/svg" xmlns:xlink="http://www.w3.org/1999/xlink">
    <title>keynote</title>
    <path d="M23.5 17h-1.148l-1.433-4.013C20.281 11.2 18.578 10 16.681 10H7.319C6.481 10 5.687 10.245 5 10.661V6.5C5 4.57 6.57 3 8.5 3h0.551c0.232 1.14 1.242 2 2.449 2h4C16.879 5 18 3.878 18 2.5S16.879 0 15.5 0h-4c-1.208 0-2.217 0.86-2.449 2H8.5C6.019 2 4 4.019 4 6.5v4.982c-0.394 0.431-0.715 0.934-0.919 1.505L1.648 17H0.5C0.224 17 0 17.224 0 17.5S0.224 18 0.5 18h11v5h-4C7.224 23 7 23.224 7 23.5S7.224 24 7.5 24h9c0.276 0 0.5-0.224 0.5-0.5S16.776 23 16.5 23h-4v-5h11c0.276 0 0.5-0.224 0.5-0.5S23.776 17 23.5 17zM11.5 1h4C16.327 1 17 1.673 17 2.5S16.327 4 15.5 4h-4C10.673 4 10 3.327 10 2.5S10.673 1 11.5 1zM4.029 11.45l-2e-3 2e-3zM2.709 17l1.313-3.677C4.518 11.934 5.843 11 7.319 11h9.361c1.476 0 2.801 0.934 3.297 2.323L21.29 17z" />
</svg>