<svg id="khanda_Layer_1" viewBox="0 0 24 24" fill="currentColor" width="32" height="32" data-name="Layer 1" xmlns="http://www.w3.org/2000/svg" xmlns:xlink="http://www.w3.org/1999/xlink">
    <title>khanda</title>
    <path d="M20.269 3.22c-0.401-0.325-0.792-0.24-1.005-0.068-0.286 0.231-0.345 0.65-0.146 1.042C19.805 5.555 20.965 7.601 21 9.5c0 3.425-2.863 6.309-8.5 8.602v-0.946c0.203-0.283 0.832-1.088 1.83-1.68 0.656-0.389 0.941-1.15 0.722-1.82C16.871 12.577 18 10.621 18 8.5c0-2.138-1.127-4.072-2.95-5.152 0.223-0.67-0.062-1.434-0.72-1.824-0.412-0.245-0.802-0.58-1.158-0.998-0.556-0.652-1.685-0.653-2.24-2e-3-0.357 0.42-0.75 0.758-1.166 1.004-0.642 0.378-0.93 1.114-0.735 1.771C7.159 4.368 5.999 6.329 5.999 8.5s1.159 4.132 3.031 5.201c-0.195 0.657 0.094 1.393 0.735 1.771 1 0.591 1.564 1.398 1.734 1.668v0.962C5.863 15.809 3 12.924 3 9.5 3.035 7.599 4.195 5.557 4.881 4.195 5.08 3.802 5.022 3.383 4.735 3.152 4.522 2.98 4.131 2.895 3.73 3.22 1.255 5.232 0 7.514 0 10c0 3.041 1.121 4.962 2.097 6.295 0.632 0.875 0.769 1.868 0.979 2.814 0.146 0.729 1.013 1.13 1.668 0.763l3.662-2.053c0.728 0.385 1.457 0.717 2.16 1.012C9.381 19.355 7.275 19.488 7 21c0 0.552 0.448 1 1 1s1-0.448 1-1c0-0.195-0.07-0.366-0.167-0.52 0.304-0.128 0.6-0.222 0.751-0.269 0.496-0.156 1.158-0.366 1.916-0.633v2.575C11.207 22.327 11 22.634 11 23c0 0.552 0.448 1 1 1s1-0.448 1-1c0-0.366-0.206-0.673-0.5-0.847v-2.575c0.758 0.267 1.42 0.477 1.916 0.633 0.15 0.047 0.447 0.142 0.75 0.269-0.096 0.154-0.167 0.325-0.167 0.52 0 0.552 0.448 1 1 1s1-0.448 1-1c-0.276-1.512-2.38-1.644-3.566-2.169 0.703-0.295 1.432-0.627 2.16-1.012l3.674 2.06c0.641 0.359 1.516-0.047 1.656-0.769 0.21-0.946 0.347-1.94 0.979-2.814 0.976-1.333 2.097-3.254 2.097-6.295 0-2.486-1.255-4.768-3.73-6.781zM4.268 18.993c-0.256 0.125-0.247-0.347-0.297-0.481-0.177-0.842-0.396-1.891-1.067-2.808-0.941-1.286-1.903-2.969-1.903-5.705 0-1.842 0.815-3.576 2.435-5.174-0.632 1.267-1.435 3.088-1.435 4.674 0 3.537 2.528 6.03 5.386 7.745zM17 8.5c0 1.747-0.92 3.359-2.405 4.264C14.071 11.801 13.5 10.577 13.5 8.5s0.57-3.299 1.094-4.262C16.082 5.144 17 6.738 17 8.5zM7 8.5c0-1.789 0.947-3.407 2.478-4.305C9.995 5.185 10.5 6.386 10.5 8.5s-0.505 3.315-1.022 4.305C7.947 11.908 7 10.29 7 8.5zM10.274 14.611c-0.232-0.137-0.398-0.434-0.248-0.713 0.699-1.31 1.455-2.563 1.474-5.397-0.018-2.836-0.775-4.086-1.474-5.398-0.15-0.279 0.016-0.576 0.249-0.713 0.512-0.302 0.989-0.712 1.419-1.216 0.172-0.214 0.545-0.211 0.717 2e-3 0.428 0.502 0.902 0.909 1.41 1.21 0.239 0.142 0.399 0.452 0.253 0.724-0.738 1.375-1.54 2.561-1.573 5.392 0.034 2.832 0.835 4.016 1.573 5.392 0.146 0.272-0.014 0.583-0.253 0.724-0.821 0.487-1.425 1.093-1.799 1.532-0.35-0.445-0.925-1.051-1.748-1.539zM21.096 15.705c-0.671 0.917-0.891 1.965-1.067 2.808-0.048 0.131-0.042 0.59-0.285 0.488l-3.13-1.755C19.472 15.531 22 13.038 22 9.501c0-1.588-0.805-3.412-1.437-4.679C22.181 6.416 23 8.154 23 10.001c0 2.735-0.962 4.419-1.904 5.704z" />
</svg>