<svg id="kimchi_Layer_1" viewBox="0 0 24 24" fill="currentColor" width="32" height="32" data-name="Layer 1" xmlns="http://www.w3.org/2000/svg" xmlns:xlink="http://www.w3.org/1999/xlink">
    <title>kimchi</title>
    <path d="M14.346 23.774c0 0 0 0 0 0 5e-3 1e-3 2e-3 0 0 0zM22.556 12.636C22.851 13.242 23 13.891 23 14.561c0 1.313-0.583 2.559-1.599 3.414C21.146 18.19 21 18.496 21 18.815v2.019c-0.028 3.167-3.277 3.167-4.5 3.167-0.857 0-1.58-0.08-2.154-0.226-4e-3-1e-3-3e-3 0 0 0-0.893 0.226-1.8 0.226-2.346 0.226s-1.452 0-2.345-0.225c-0.582 0.152-1.287 0.225-2.155 0.225-1.223 0-4.472 0-4.5-3.162v-2.023c0-0.319-0.146-0.625-0.401-0.841C1.583 17.121 1 15.875 1 14.562c0-0.67 0.149-1.318 0.444-1.926 0.107-0.221 0.061-0.462-0.121-0.629-1.167-1.073-1.609-2.742-1.128-4.253C0.712 6.133 2.331 5 4.133 5h0.626C5.504 3.889 6.73 3.127 8.137 3.015 8.582 1.27 10.173 0 11.999 0s3.422 1.273 3.864 3.022C17.277 3.144 18.495 3.901 19.236 5h0.629c1.803 0 3.422 1.133 3.938 2.755 0.481 1.51 0.039 3.179-1.127 4.251-0.183 0.167-0.229 0.408-0.12 0.63zM8.037 22.989C7.432 22.471 7.01 21.688 7 20.504v-2.499c0-0.305-0.127-0.594-0.348-0.793C5.602 16.266 5 14.912 5 13.5c0-0.755 0.17-1.485 0.504-2.17 0.098-0.199 0.055-0.429-0.109-0.586C4.496 9.889 4 8.736 4 7.5 4 6.974 4.091 6.469 4.257 6 2.885 6 1.534 6.847 1.148 8.058 0.784 9.2 1.118 10.46 2 11.27c0.503 0.463 0.643 1.187 0.345 1.802C2.116 13.543 2 14.044 2 14.561c0 1.019 0.453 1.983 1.243 2.648C3.724 17.615 4 18.2 4 18.814v2.019C4.014 22.371 5.027 23 7.5 23c0.188 0 0.367-4e-3 0.537-0.011zM16 20.496v-2.491c0-0.587 0.247-1.146 0.678-1.535C17.519 15.712 18 14.63 18 13.5c0-0.602-0.136-1.184-0.402-1.73-0.288-0.589-0.161-1.292 0.318-1.748C18.615 9.355 19 8.46 19 7.501c0-1.93-1.57-3.5-3.5-3.5-0.249 0-0.51-0.178-0.545-0.425-0.21-1.468-1.479-2.575-2.955-2.575S9.255 2.108 9.045 3.576C9.01 3.823 8.799 4.006 8.55 4.006 6.67 4.009 5 5.571 5 7.501c0 0.96 0.385 1.854 1.084 2.521 0.479 0.457 0.606 1.16 0.318 1.749C6.135 12.318 6 12.9 6 13.501c0 1.13 0.481 2.212 1.322 2.97C7.753 16.86 8 17.419 8 18.006v2.495c0.015 1.666 1.037 2.407 3.5 2.492V11.5c0-0.276 0.224-0.5 0.5-0.5s0.5 0.224 0.5 0.5v11.492c2.463-0.085 3.485-0.826 3.5-2.496zM22.852 8.058c-0.386-1.212-1.737-2.059-3.109-2.059 0.167 0.469 0.258 0.974 0.258 1.5 0 1.236-0.495 2.389-1.395 3.245-0.164 0.156-0.207 0.386-0.109 0.585 0.334 0.685 0.504 1.415 0.504 2.17 0 1.412-0.603 2.766-1.652 3.712-0.221 0.199-0.348 0.488-0.348 0.793v2.495c-0.01 1.187-0.432 1.97-1.038 2.489 0.17 7e-3 0.35 0.011 0.538 0.011 2.473 0 3.486-0.629 3.5-2.172v-2.014c0-0.614 0.275-1.199 0.757-1.604 0.79-0.666 1.243-1.631 1.243-2.649 0-0.518-0.116-1.019-0.345-1.488-0.298-0.616-0.158-1.34 0.346-1.803 0.881-0.81 1.215-2.07 0.85-3.211z" />
</svg>