<svg id="kiss_beam_Layer_1" viewBox="0 0 24 24" fill="currentColor" width="32" height="32" data-name="Layer 1" xmlns="http://www.w3.org/2000/svg" xmlns:xlink="http://www.w3.org/1999/xlink">
    <title>kiss-beam</title>
    <path d="M9 10.5C9 9.285 8.229 8 7.5 8S6 9.285 6 10.5C6 10.776 5.776 11 5.5 11S5 10.776 5 10.5C5 8.848 6.069 7 7.5 7S10 8.848 10 10.5c0 0.276-0.224 0.5-0.5 0.5S9 10.776 9 10.5zM16.5 7C15.069 7 14 8.848 14 10.5c0 0.276 0.224 0.5 0.5 0.5s0.5-0.224 0.5-0.5C15 9.285 15.771 8 16.5 8S18 9.285 18 10.5c0 0.276 0.224 0.5 0.5 0.5s0.5-0.224 0.5-0.5C19 8.848 17.931 7 16.5 7zM24 12c0 6.617-5.383 12-12 12S0 18.617 0 12 5.383 0 12 0 24 5.383 24 12zM23 12c0-6.065-4.935-11-11-11S1 5.935 1 12 5.935 23 12 23s11-4.935 11-11zM14.471 16C14.797 15.682 15 15.24 15 14.75 15 13.785 14.215 13 13.25 13H12c-0.276 0-0.5 0.224-0.5 0.5S11.724 14 12 14h1.25c0.413 0 0.75 0.336 0.75 0.75s-0.337 0.75-0.75 0.75H13c-0.276 0-0.5 0.224-0.5 0.5s0.224 0.5 0.5 0.5h0.25c0.413 0 0.75 0.336 0.75 0.75S13.663 18 13.25 18H12c-0.276 0-0.5 0.224-0.5 0.5S11.724 19 12 19h1.25c0.965 0 1.75-0.785 1.75-1.75 0-0.49-0.204-0.932-0.529-1.25z" />
</svg>