<svg id="kiss_Layer_1" viewBox="0 0 24 24" fill="currentColor" width="32" height="32" data-name="Layer 1" xmlns="http://www.w3.org/2000/svg" xmlns:xlink="http://www.w3.org/1999/xlink">
    <title>kiss</title>
    <path d="M12 0C5.383 0 0 5.383 0 12s5.383 12 12 12 12-5.383 12-12S18.617 0 12 0zM12 23C5.935 23 1 18.065 1 12S5.935 1 12 1 23 5.935 23 12 18.065 23 12 23zM9 10c0 0.552-0.448 1-1 1s-1-0.448-1-1 0.448-1 1-1 1 0.448 1 1zM16 9c-0.552 0-1 0.448-1 1s0.448 1 1 1 1-0.448 1-1-0.448-1-1-1z" />
    <path d="M14.471 16C14.797 15.682 15 15.24 15 14.75 15 13.785 14.215 13 13.25 13H12c-0.276 0-0.5 0.224-0.5 0.5S11.724 14 12 14h1.25c0.413 0 0.75 0.336 0.75 0.75s-0.337 0.75-0.75 0.75H13c-0.276 0-0.5 0.224-0.5 0.5s0.224 0.5 0.5 0.5h0.25c0.413 0 0.75 0.336 0.75 0.75S13.663 18 13.25 18H12c-0.276 0-0.5 0.224-0.5 0.5S11.724 19 12 19h1.25c0.965 0 1.75-0.785 1.75-1.75 0-0.49-0.204-0.932-0.529-1.25z" />
</svg>