<svg id="kiss_wink_heart_Layer_1" viewBox="0 0 24 24" fill="currentColor" width="32" height="32" data-name="Layer 1" xmlns="http://www.w3.org/2000/svg" xmlns:xlink="http://www.w3.org/1999/xlink">
    <title>kiss-wink-heart</title>
    <path d="M22.705 17.229c-0.476-0.184-1.006-0.164-1.488 0.06-0.076 0.035-0.149 0.075-0.221 0.118-0.189-0.582-0.604-1.063-1.179-1.283-0.48-0.184-1.01-0.163-1.489 0.061-0.543 0.25-0.977 0.738-1.189 1.337-0.517 1.46 0.555 3.663 1.24 4.846 0.232 0.399 0.653 0.632 1.09 0.632 0.135 0 0.271-0.022 0.402-0.068 1.266-0.441 3.466-1.4 3.986-2.866 0.412-1.163-0.104-2.436-1.152-2.837zM22.914 19.731c-0.273 0.772-1.534 1.615-3.371 2.256-0.113 0.039-0.235-0.012-0.299-0.121-1.004-1.733-1.438-3.232-1.162-4.01 0.123-0.347 0.365-0.625 0.665-0.764C18.851 17.044 18.99 17 19.15 17c0.097 0 0.201 0.016 0.31 0.058 0.546 0.209 0.8 0.913 0.566 1.569-0.02 0.055-0.028 0.112-0.028 0.167 0 0.206 0.128 0.398 0.333 0.471 0.259 0.094 0.546-0.043 0.639-0.304 0.123-0.347 0.365-0.625 0.665-0.764 0.165-0.076 0.425-0.145 0.713-0.034 0.545 0.209 0.8 0.913 0.566 1.568zM19 9.5C19 8.122 17.879 7 16.5 7S14 8.122 14 9.5c0 1.5 1.445 1.5 2.5 1.5S19 11 19 9.5zM16.5 10C15.147 10 15 9.899 15 9.5 15 8.673 15.673 8 16.5 8S18 8.673 18 9.5c0 0.399-0.147 0.5-1.5 0.5zM9.5 10h-4C5.224 10 5 9.776 5 9.5S5.224 9 5.5 9h4C9.776 9 10 9.224 10 9.5S9.776 10 9.5 10zM15.977 22.805c0.084 0.263-0.062 0.544-0.324 0.628-1.176 0.376-2.405 0.566-3.652 0.566C5.383 24 0 18.617 0 12S5.383 0 12 0 24 5.383 24 12c0 1.195-0.175 2.375-0.521 3.509-0.081 0.263-0.361 0.416-0.624 0.332-0.265-0.08-0.413-0.36-0.333-0.624C22.839 14.178 23 13.096 23 12 23 5.935 18.065 1 12 1S1 5.935 1 12 5.935 23 12 23c1.144 0 2.271-0.174 3.348-0.519 0.261-0.087 0.544 0.061 0.629 0.324zM14.471 16C14.797 15.682 15 15.24 15 14.75 15 13.785 14.215 13 13.25 13H12c-0.276 0-0.5 0.224-0.5 0.5S11.724 14 12 14h1.25c0.413 0 0.75 0.336 0.75 0.75s-0.337 0.75-0.75 0.75H13c-0.276 0-0.5 0.224-0.5 0.5s0.224 0.5 0.5 0.5h0.25c0.413 0 0.75 0.336 0.75 0.75S13.663 18 13.25 18H12c-0.276 0-0.5 0.224-0.5 0.5S11.724 19 12 19h1.25c0.965 0 1.75-0.785 1.75-1.75 0-0.49-0.204-0.932-0.529-1.25z" />
</svg>