<svg id="kitchen_set_Layer_1" viewBox="0 0 24 24" fill="currentColor" width="32" height="32" data-name="Layer 1" xmlns="http://www.w3.org/2000/svg" xmlns:xlink="http://www.w3.org/1999/xlink">
    <title>kitchen-set</title>
    <path d="M23.5 13h-2.551c-0.232-1.14-1.242-2-2.449-2h-1c-1.208 0-2.217 0.86-2.449 2H12.5c-0.276 0-0.5 0.224-0.5 0.5s0.224 0.5 0.5 0.5H13v6.5c0 1.93 1.57 3.5 3.5 3.5h3c1.93 0 3.5-1.57 3.5-3.5V14h0.5c0.276 0 0.5-0.224 0.5-0.5S23.776 13 23.5 13zM17.5 12h1c0.651 0 1.201 0.419 1.408 1h-3.816c0.207-0.581 0.757-1 1.408-1zM22 20.5c0 1.379-1.121 2.5-2.5 2.5h-3c-1.379 0-2.5-1.121-2.5-2.5V14h8zM10.967 18.431c0.093-0.329 0.023-0.678-0.188-0.957C10.554 17.177 10.197 17 9.823 17h-8.64c-0.379 0-0.724 0.174-0.946 0.477-0.221 0.301-0.286 0.696-0.174 1.056 0.183 0.584 0.512 1.088 0.935 1.489-0.303 0.048-0.583 0.205-0.77 0.452-0.211 0.278-0.28 0.628-0.188 0.957C0.462 22.944 1.87 24 3.465 24h4.07c1.595 0 3.003-1.057 3.425-2.569 0.093-0.329 0.023-0.679-0.188-0.957-0.189-0.25-0.474-0.408-0.782-0.453 0.454-0.427 0.802-0.966 0.977-1.59zM9.818 21c0.073 0 0.13 0.04 0.18 0.161C9.696 22.244 8.684 23 7.536 23H3.465c-1.147 0-2.16-0.756-2.44-1.923C1.053 21.04 1.11 21 1.183 21zM7.539 20H3.462c-1.132 0-2.114-0.71-2.444-1.767-0.025-0.079 5e-3-0.138 0.025-0.165C1.065 18.037 1.108 18 1.183 18h8.64c0.074 0 0.131 0.04 0.181 0.161C9.702 19.244 8.688 20 7.539 20zM20.5 7C20.776 7 21 6.776 21 6.5S20.776 6 20.5 6h-7.525C12.718 2.649 9.916 0 6.5 0 2.916 0 0 2.916 0 6.5S2.916 13 6.5 13c3.415 0 6.218-2.649 6.475-6zM6.5 12C3.468 12 1 9.533 1 6.5S3.468 1 6.5 1 12 3.467 12 6.5 9.532 12 6.5 12zM11 6.5C11 6.776 10.776 7 10.5 7S10 6.776 10 6.5C10 4.57 8.43 3 6.5 3S3 4.57 3 6.5 4.57 10 6.5 10C6.776 10 7 10.224 7 10.5S6.776 11 6.5 11C4.019 11 2 8.981 2 6.5S4.019 2 6.5 2 11 4.019 11 6.5z" />
</svg>