<svg id="kiwi_fruit_Layer_1" viewBox="0 0 24 24" fill="currentColor" width="32" height="32" data-name="Layer 1" xmlns="http://www.w3.org/2000/svg" xmlns:xlink="http://www.w3.org/1999/xlink">
    <title>kiwi-fruit</title>
    <path d="M12 0C5.383 0 0 3.589 0 8v4c0 6.617 5.383 12 12 12s12-5.383 12-12V8c0-4.411-5.383-8-12-8zM12 1c6.065 0 11 3.14 11 7s-4.935 7-11 7S1 11.86 1 8 5.935 1 12 1zM23 12c0 6.065-4.935 11-11 11S1 18.065 1 12v-0.805C2.854 14.02 7.086 16 12 16s9.146-1.979 11-4.805zM9 8c0-0.552 1.343-1 3-1s3 0.448 3 1-1.343 1-3 1-3-0.448-3-1zM12.373 10.58C12.657 11.047 13 11.677 13 12c0 0.552-0.448 1-1 1s-1-0.448-1-1c0-0.323 0.343-0.953 0.627-1.42 0.17-0.28 0.576-0.28 0.746 0zM11.627 5.421C11.343 4.954 11 4.324 11 4.001c0-0.552 0.448-1 1-1s1 0.448 1 1c0 0.323-0.343 0.953-0.627 1.42-0.17 0.28-0.576 0.28-0.746 0zM4 8.001c0-0.552 0.448-1 1-1 0.323 0 0.953 0.343 1.42 0.627 0.28 0.17 0.28 0.576 0 0.746C5.953 8.658 5.323 9.001 5 9.001c-0.552 0-1-0.448-1-1zM17.58 7.628c0.467-0.284 1.097-0.627 1.42-0.627 0.552 0 1 0.448 1 1s-0.448 1-1 1c-0.323 0-0.953-0.343-1.42-0.627-0.28-0.17-0.28-0.576 0-0.746zM15.174 5.689c0.151-0.525 0.382-1.204 0.62-1.423 0.406-0.374 1.039-0.348 1.413 0.058s0.348 1.039-0.058 1.413c-0.238 0.219-0.933 0.394-1.469 0.501-0.321 0.064-0.596-0.234-0.506-0.549zM6.765 4.324c0.374-0.406 1.007-0.432 1.413-0.058 0.238 0.219 0.469 0.898 0.62 1.423 0.09 0.315-0.185 0.613-0.506 0.549C7.756 6.131 7.06 5.956 6.823 5.737 6.417 5.363 6.391 4.73 6.765 4.324zM17.236 11.679c-0.374 0.406-1.007 0.432-1.413 0.058-0.238-0.219-0.469-0.898-0.62-1.423-0.09-0.315 0.185-0.613 0.506-0.549 0.536 0.107 1.232 0.282 1.469 0.501 0.406 0.374 0.432 1.007 0.058 1.413zM6.823 10.266c0.238-0.219 0.933-0.394 1.469-0.501 0.321-0.064 0.596 0.234 0.506 0.549-0.151 0.525-0.382 1.204-0.62 1.423-0.406 0.374-1.039 0.348-1.413-0.058s-0.348-1.039 0.058-1.413z" />
</svg>