<svg id="kiwi_bird_Layer_1" viewBox="0 0 24 24" fill="currentColor" width="32" height="32" data-name="Layer 1" xmlns="http://www.w3.org/2000/svg" xmlns:xlink="http://www.w3.org/1999/xlink">
    <title>kiwi-bird</title>
    <path d="M20.625 6.288c0.31-0.714 0.437-1.503 0.345-2.303-0.157-1.374-0.936-2.59-2.135-3.337-1.381-0.86-3.18-0.882-4.58-0.055-0.187 0.111-0.363 0.231-0.527 0.36-1.67 1.314-3.52 2.022-5.348 2.048-0.407 5e-3-0.82 0.041-1.228 0.104-3.728 0.584-6.717 3.734-7.106 7.492-0.266 2.576 0.625 5.096 2.444 6.915 0.936 0.936 2.062 1.617 3.281 2.03l0.736 4.048c0.043 0.242 0.254 0.411 0.491 0.411 0.03 0 0.06-2e-3 0.09-8e-3 0.272-0.049 0.452-0.31 0.402-0.581l-0.65-3.574c0.544 0.108 1.102 0.163 1.666 0.163 0.298 0 0.598-0.016 0.899-0.046 0.475-0.049 0.94-0.14 1.392-0.268l0.71 3.904c0.043 0.242 0.254 0.411 0.491 0.411 0.03 0 0.06-2e-3 0.09-8e-3 0.272-0.049 0.452-0.31 0.402-0.581l-0.74-4.068c2.679-1.127 4.713-3.609 5.152-6.554 0.083-0.552 0.112-1.112 0.088-1.663-0.05-1.143 0.485-2.135 1.363-2.528 0.181-0.081 0.348-0.186 0.516-0.29 3.036 1.861 3.856 6.723 4.038 8.237 0.031 0.26 0.251 0.456 0.513 0.456 0.29 0 0.525-0.239 0.517-0.529-0.148-5.768-2.677-9.365-3.312-10.186zM17.945 7.685c-1.255 0.562-2.021 1.93-1.953 3.485 0.021 0.487-5e-3 0.982-0.078 1.471-0.401 2.694-2.842 5.961-6.612 6.317-2.892 0.273-5.222-1.271-6.105-2.154-1.605-1.604-2.391-3.83-2.156-6.105 0.342-3.313 2.978-6.091 6.267-6.605 0.361-0.057 0.727-0.088 1.086-0.093 2.05-0.029 4.108-0.811 5.952-2.261 0.13-0.102 0.27-0.198 0.418-0.286 0.529-0.312 1.131-0.468 1.734-0.468 0.63 0 1.261 0.171 1.808 0.511 0.939 0.585 1.547 1.534 1.67 2.603 0.123 1.068-0.243 2.117-1.002 2.875-0.3 0.3-0.646 0.539-1.029 0.71zM17.999 4c0 0.552-0.448 1-1 1s-1-0.448-1-1 0.448-1 1-1 1 0.448 1 1z" />
</svg>