<svg id="knee_joint_Layer_1" viewBox="0 0 24 24" fill="currentColor" width="32" height="32" data-name="Layer 1" xmlns="http://www.w3.org/2000/svg" xmlns:xlink="http://www.w3.org/1999/xlink">
    <title>knee-joint</title>
    <path d="M19.253 7.005c-0.307-0.286-0.723-0.385-1.121-0.264-0.396 0.12-0.69 0.435-0.787 0.844-0.231 0.985-0.735 1.887-1.456 2.606q0 0 0 0c-0.163 0.165-0.339 0.313-0.519 0.454-0.16 0.125-0.229 0.334-0.174 0.53 0.056 0.196 0.224 0.338 0.426 0.361 1.201 0.135 2.344 0.68 3.216 1.534 0.293 0.287 0.704 0.4 1.093 0.302 0.392-0.098 0.698-0.389 0.821-0.778 0.165-0.521 0.249-1.058 0.249-1.595 0-1.528-0.62-2.947-1.748-3.994zM19.798 12.293c-0.058 0.128-0.145 0.154-0.262 0.063-0.781-0.765-1.747-1.32-2.789-1.614 0.771-0.824 1.313-1.833 1.57-2.928 0.038-0.146 0.14-0.175 0.254-0.078C19.493 8.593 20 9.752 20 10.999c0 0.435-0.068 0.87-0.202 1.294zM18.915 16.166c0.345 1.693-0.379 3.358-1.843 4.243C16.411 20.808 16 21.594 16 22.459V23.5c0 0.276-0.224 0.5-0.5 0.5S15 23.776 15 23.5v-1.041c0-1.214 0.596-2.328 1.556-2.907 1.097-0.663 1.639-1.914 1.379-3.187-0.23-1.137-1.189-2.085-2.331-2.307-0.794-0.153-1.592 1e-3-2.25 0.436-0.518 0.344-1.188 0.344-1.708 0-0.657-0.435-1.456-0.589-2.249-0.436-1.142 0.222-2.101 1.17-2.331 2.307-0.26 1.273 0.282 2.524 1.38 3.187 0.959 0.579 1.555 1.692 1.555 2.907V23.5c0 0.276-0.224 0.5-0.5 0.5s-0.5-0.224-0.5-0.5v-1.041c0-0.866-0.411-1.651-1.071-2.05-1.465-0.884-2.188-2.549-1.844-4.243 0.186-0.916 0.707-1.718 1.419-2.288-0.429-0.105-0.844-0.274-1.221-0.523-1.44-0.955-2.106-2.644-1.696-4.304 0.186-0.749-0.08-1.595-0.692-2.207l-3.75-3.748c-0.195-0.195-0.195-0.512 0-0.707s0.512-0.195 0.707 0L4.6 6.137c0.858 0.858 1.225 2.067 0.956 3.154-0.308 1.244 0.194 2.512 1.278 3.23 0.968 0.642 2.317 0.632 3.279-0.019 0.669-0.452 1.125-1.125 1.282-1.898 0.126-0.619 0.589-1.082 1.207-1.208 0.773-0.158 1.448-0.613 1.899-1.282 0.651-0.964 0.659-2.313 0.019-3.28-0.718-1.083-1.987-1.583-3.23-1.277C10.2 3.826 8.993 3.46 8.136 2.601L6.388 0.853c-0.195-0.195-0.195-0.512 0-0.707s0.512-0.195 0.707 0l1.748 1.748c0.612 0.613 1.465 0.876 2.207 0.692 1.662-0.411 3.35 0.255 4.305 1.696 0.871 1.316 0.861 3.081-0.024 4.392-0.599 0.887-1.496 1.492-2.527 1.702-0.222 0.045-0.382 0.206-0.427 0.428-0.189 0.924-0.708 1.728-1.449 2.318 0.447 0.107 0.879 0.28 1.27 0.538 0.189 0.125 0.417 0.125 0.604 0 0.878-0.58 1.938-0.789 2.991-0.583 1.553 0.301 2.808 1.542 3.122 3.089z" />
</svg>