<svg id="knife_kitchen_Layer_1" viewBox="0 0 24 24" fill="currentColor" width="32" height="32" data-name="Layer 1" xmlns="http://www.w3.org/2000/svg" xmlns:xlink="http://www.w3.org/1999/xlink">
    <title>knife-kitchen</title>
    <path d="M23.038 1.962c-1.276-1.276-3.356-1.281-4.638-8e-3L1.109 19.181l-2e-3 2e-3c-0.041 0.041-0.808 1.049-0.951 1.36-0.243 0.528-0.196 1.14 0.124 1.637 0.333 0.516 0.895 0.823 1.504 0.823h0.012c0.238-1e-3 0.463-5e-3 0.645-0.012 4.151-0.167 7.939-1.682 10.396-4.16l2.587-2.646 1.272 1.283c0.318 0.32 0.79 0.379 1.175 0.148 0.387-0.231 0.557-0.677 0.425-1.108-0.654-2.126-1.033-4.049 0.965-6.057l3.807-3.872c1.25-1.281 1.237-3.353-0.03-4.617zM12.123 18.13c-2.278 2.298-5.822 3.706-9.723 3.862-0.171 6e-3-0.386 0.01-0.611 0.011-0.267 0.014-0.521-0.135-0.669-0.366-0.136-0.211-0.157-0.458-0.056-0.677 0.105-0.229 0.761-1.06 0.801-1.122l8.653-8.621c0.02 0.033 4.201 4.257 4.201 4.257zM22.352 5.88 18.548 9.748c-2.383 2.394-1.904 4.797-1.144 7.016 0 0-6.165-6.211-6.199-6.232l7.899-7.87c0.891-0.885 2.338-0.88 3.226 6e-3 0.88 0.88 0.889 2.321 0.022 3.212zM21.5 4.5c0 0.552-0.448 1-1 1s-1-0.448-1-1 0.448-1 1-1 1 0.448 1 1z" />
</svg>