<svg id="knitting_Layer_1" viewBox="0 0 24 24" fill="currentColor" width="32" height="32" data-name="Layer 1" xmlns="http://www.w3.org/2000/svg" xmlns:xlink="http://www.w3.org/1999/xlink">
    <title>knitting</title>
    <path d="M9 24c-4.963 0-9-4.037-9-9 0-5.615 4.885-9 9-9 1.288 0 2.513 0.271 3.621 0.761l1.967-3.347C14.225 3.052 14 2.551 14 1.999 14 0.896 14.897 0 16 0s2 0.897 2 2-0.897 2-2 2c-0.19 0-0.376-0.027-0.551-0.077l-1.936 3.294c0.795 0.463 2.14 1.4 2.928 2.728l3.656-2.327C20.034 7.423 19.999 7.216 19.999 7c0-1.103 0.897-2 2-2s2 0.897 2 2-0.897 2-2 2c-0.527 0-1.007-0.205-1.365-0.539l-3.677 2.34c0.241 0.455 1.042 2.123 1.042 4.2 0 4.963-4.037 9-8.999 8.999zM1.395 12.516C1.139 13.298 1 14.133 1 15c0 4.411 3.589 8 8 8 0.992 0 1.942-0.182 2.819-0.513-5.485-0.254-9.933-4.551-10.424-9.971zM2.38 10.514c-0.022 0.312-0.03 0.715-0.03 1.002 0 5.505 4.479 9.983 9.983 9.983 0.494 0 0.99-0.036 1.475-0.108 0.582-0.439 1.104-0.957 1.547-1.536C14.805 19.951 14.245 20 13.68 20 8.27 20 4 16.001 4 10.32 4 9.757 4.049 9.197 4.145 8.647 3.461 9.17 2.865 9.801 2.38 10.514zM12.201 18.874c1.273 0.22 2.649 0.147 3.916-0.221C16.68 17.557 17 16.315 17 15.001c0-0.227-0.01-0.451-0.028-0.673-1.012 2.017-2.705 3.632-4.771 4.546zM8.378 17.188c0.649 0.502 1.372 0.915 2.148 1.219 2.894-0.771 5.207-3.002 6.088-5.862-0.246-0.763-0.605-1.477-1.056-2.121-1.034 3.37-3.762 5.936-7.18 6.764zM6.197 14.715c0.352 0.596 0.772 1.146 1.251 1.641 3.622-0.583 6.518-3.298 7.329-6.884-0.49-0.512-1.048-0.96-1.659-1.328-0.954 3.246-3.636 5.787-6.921 6.571zM5.143 11.895c0.122 0.663 0.319 1.3 0.583 1.901 3.112-0.646 5.661-3.049 6.485-6.123-0.577-0.254-1.189-0.441-1.827-0.553-0.977 2.27-2.894 4.015-5.241 4.775zM5.346 7.885c-0.23 0.788-0.347 1.606-0.347 2.435 0 0.188 6e-3 0.376 0.018 0.562 1.894-0.667 3.452-2.065 4.32-3.875-1.418-0.053-2.801 0.264-3.991 0.878zM21.999 6c-0.552 0-1 0.449-1 1s0.448 1 1 1 1-0.449 1-1-0.448-1-1-1zM16 0.999c-0.552 0-1 0.449-1 1s0.448 1 1 1 1-0.449 1-1-0.448-1-1-1z" />
</svg>