<svg id="knot_rope_Layer_1" viewBox="0 0 24 24" fill="currentColor" width="32" height="32" data-name="Layer 1" xmlns="http://www.w3.org/2000/svg" xmlns:xlink="http://www.w3.org/1999/xlink">
    <title>knot-rope</title>
    <path d="M15.648 16.992c0.195 0.195 0.195 0.512 0 0.707s-0.512 0.195-0.707 0L6.313 9.071c-0.195-0.195-0.195-0.512 0-0.707s0.512-0.195 0.707 0zM9.071 6.313c-0.195-0.195-0.512-0.195-0.707 0s-0.195 0.512 0 0.707l8.628 8.628c0.195 0.195 0.512 0.195 0.707 0s0.195-0.512 0-0.707zM6.327 17.662c0.45 0.45 1.182 0.45 1.632 0 0.331-0.33 0.604-1.369 0.707-1.801 0.103-0.487-0.043-0.651-0.54-0.539-0.431 0.102-1.469 0.377-1.8 0.707-0.435 0.434-0.437 1.196 1e-3 1.633zM21.95 2.05c-2.73-2.729-7.172-2.729-9.9 0-0.495 0.496-0.987 1.283-1.504 2.407-0.115 0.251-6e-3 0.548 0.245 0.663 0.249 0.116 0.548 6e-3 0.663-0.245 0.46-1.001 0.898-1.713 1.303-2.118 2.339-2.34 6.146-2.34 8.486 0 2.339 2.339 2.339 6.146 0 8.485-0.405 0.405-1.118 0.843-2.118 1.303-0.251 0.115-0.36 0.412-0.245 0.663 0.115 0.254 0.418 0.359 0.663 0.245 1.123-0.517 1.911-1.008 2.407-1.504 2.729-2.729 2.729-7.17 0-9.899zM17 11.357c1.305-0.419 2.436-1.15 2.828-1.528 1.552-1.49 1.552-4.168 0-5.657-1.51-1.511-4.146-1.511-5.656 0-0.423 0.423-0.909 1.284-1.487 2.631-0.109 0.254 8e-3 0.548 0.262 0.657 0.251 0.107 0.547-8e-3 0.656-0.262 0.648-1.509 1.052-2.094 1.276-2.319 1.133-1.133 3.109-1.133 4.242 0 1.164 1.117 1.164 3.126 0 4.243-0.225 0.224-0.809 0.627-2.318 1.276-0.254 0.109-0.371 0.403-0.262 0.657 0.081 0.189 0.266 0.303 0.459 0.302zM13.209 18.88c-0.248-0.114-0.548-7e-3-0.663 0.245-0.461 1.001-0.899 1.714-1.303 2.118-2.34 2.339-6.146 2.338-8.486 0-2.339-2.34-2.339-6.146 0-8.486 0.405-0.405 1.118-0.843 2.118-1.303 0.251-0.115 0.36-0.412 0.245-0.663s-0.415-0.361-0.663-0.245c-1.123 0.517-1.911 1.008-2.407 1.504-2.729 2.729-2.729 7.17 0 9.9 1.365 1.364 3.157 2.047 4.95 2.047s3.586-0.683 4.95-2.047c0.495-0.496 0.986-1.283 1.504-2.407 0.115-0.251 6e-3-0.548-0.245-0.663zM6.803 12.684c-1.349 0.579-2.209 1.066-2.631 1.488-1.552 1.488-1.552 4.168 0 5.656 1.488 1.552 4.168 1.552 5.656 0 0.422-0.422 0.909-1.282 1.487-2.631 0.109-0.254-8e-3-0.548-0.262-0.656-0.254-0.111-0.548 7e-3-0.656 0.262-0.648 1.51-1.053 2.094-1.276 2.318-1.133 1.133-3.109 1.133-4.242 0-1.164-1.116-1.164-3.126 0-4.242 0.225-0.224 0.809-0.628 2.318-1.276 0.254-0.108 0.371-0.402 0.262-0.656-0.108-0.254-0.403-0.369-0.656-0.263zM17.663 6.328c-0.437-0.438-1.199-0.436-1.633 0-0.33 0.33-0.604 1.368-0.707 1.8-0.112 0.497 0.053 0.642 0.539 0.54 0.432-0.102 1.47-0.376 1.801-0.707 0.45-0.45 0.45-1.183 0-1.633z" />
</svg>