<svg id="korean_Layer_1" viewBox="0 0 24 24" fill="currentColor" width="32" height="32" data-name="Layer 1" xmlns="http://www.w3.org/2000/svg" xmlns:xlink="http://www.w3.org/1999/xlink">
    <title>korean</title>
    <path d="M5.5 9v2.5C5.5 11.776 5.276 12 5 12s-0.5-0.224-0.5-0.5v-6C4.5 5.224 4.724 5 5 5s0.5 0.224 0.5 0.5V8h0.593l1.645-2.768C7.88 4.995 8.186 4.917 8.424 5.058s0.315 0.448 0.174 0.685L6.991 8.448C6.993 8.466 7.002 8.482 7.002 8.5s-9e-3 0.034-0.011 0.052l1.607 2.705c0.142 0.237 0.063 0.544-0.174 0.685-0.08 0.048-0.169 0.07-0.256 0.07-0.17 0-0.336-0.087-0.43-0.245L6.093 8.999zM24 8.5v13.855c0.041 1.276-1.522 2.113-2.562 1.371L17.349 21H10.5c-2.182 0-4.003-1.561-4.412-3.625l-3.526 2.351C1.522 20.468-0.042 19.631 0 18.355V4.5C0 2.019 2.019 0 4.5 0h10c2.31 0 4.197 1.756 4.449 4H19.5C21.981 4 24 6.019 24 8.5zM6.223 16.084C6.311 16.05 6.395 15.996 6.5 16h8c1.93 0 3.5-1.57 3.5-3.5v-8C18 2.57 16.43 1 14.5 1h-10C2.57 1 1 2.57 1 4.5v13.855c-0.018 0.504 0.6 0.831 1.008 0.539zM23 8.5C23 6.57 21.43 5 19.5 5H19v7.5c0 2.481-2.019 4.5-4.5 4.5H7.051c0.245 1.692 1.691 3 3.449 3h7c0.099 0 0.195 0.029 0.277 0.084l4.215 2.81c0.407 0.292 1.026-0.036 1.008-0.539zM10 11.5V6c0-0.551 0.448-1 1-1h1.25c1.24 0 2.25 1.009 2.25 2.25 0 0.8-0.423 1.5-1.054 1.898l0.794 2.181c0.095 0.259-0.039 0.546-0.299 0.641C13.884 11.991 13.827 12 13.77 12c-0.204 0-0.396-0.126-0.47-0.329l-0.799-2.196C12.418 9.484 12.336 9.5 12.25 9.5H11v2c0 0.276-0.224 0.5-0.5 0.5S10 11.776 10 11.5zM11 8.5h1.25c0.689 0 1.25-0.561 1.25-1.25S12.939 6 12.25 6H11z" />
</svg>