<svg id="lab_coat_Layer_1" viewBox="0 0 24 24" fill="currentColor" width="32" height="32" data-name="Layer 1" xmlns="http://www.w3.org/2000/svg" xmlns:xlink="http://www.w3.org/1999/xlink">
    <title>lab-coat</title>
    <path d="M22.489 2.21C21.325 1.202 19.427 0 17 0H7C4.572 0 2.675 1.202 1.511 2.21 0.551 3.041 0 4.268 0 5.575v11.924c0 1.93 1.57 3.5 3.5 3.5h0.551c0.245 1.692 1.691 3 3.449 3h9c1.758 0 3.204-1.308 3.449-3H20.5c1.93 0 3.5-1.57 3.5-3.5V5.576c0-1.308-0.551-2.534-1.511-3.366zM9.707 1h4.586L12 7.498zM11.342 8.637 7.358 4.663c-0.401-0.438-0.473-1.078-0.214-1.54l1.535-2.031zM15.322 1.092l1.499 1.977c0.295 0.516 0.224 1.156-0.163 1.577l-3.999 3.99zM5 16h2.5C7.775 16 8 16.225 8 16.5v2C8 19.327 7.327 20 6.5 20H5zM5.051 21H6.5C7.879 21 9 19.879 9 18.5v-2C9 15.673 8.327 15 7.5 15H5V7.5C5 7.224 4.776 7 4.5 7S4 7.224 4 7.5V20H3.5C2.121 20 1 18.879 1 17.5V5.576c0-1.017 0.425-1.968 1.165-2.609C3.201 2.07 4.881 1.001 7 1.001h0.497L6.311 2.574C5.8 3.469 5.924 4.58 6.636 5.355l4.864 4.853V23h-4c-1.208 0-2.217-0.86-2.449-2zM19 20h-1.5c-0.827 0-1.5-0.673-1.5-1.5v-2c0-0.275 0.225-0.5 0.5-0.5H19zM23 17.5c0 1.379-1.121 2.5-2.5 2.5H20V7.5C20 7.224 19.776 7 19.5 7S19 7.224 19 7.5V15h-2.5c-0.827 0-1.5 0.673-1.5 1.5v2c0 1.379 1.121 2.5 2.5 2.5h1.449c-0.232 1.14-1.242 2-2.449 2h-4V10.208l4.879-4.869C18.076 4.58 18.2 3.468 17.653 2.52L16.504 1h0.495c2.119 0 3.799 1.069 4.835 1.966 0.74 0.641 1.165 1.592 1.165 2.609z" />
</svg>