<svg id="label_Outline" viewBox="0 0 24 24" fill="currentColor" width="32" height="32" xmlns="http://www.w3.org/2000/svg" xmlns:xlink="http://www.w3.org/1999/xlink">
    <title>label</title>
    <path d="M20.38 4.693 13.682 0.431c-1.053-0.577-2.311-0.577-3.363 0L3.62 4.694C2.605 5.34 2 6.444 2 7.647v11.854c0 2.481 2.019 4.5 4.5 4.5h11c2.481 0 4.5-2.019 4.5-4.5V7.646c0-1.203-0.605-2.306-1.62-2.953zM21 19.5c0 1.93-1.57 3.5-3.5 3.5h-11C4.57 23 3 21.43 3 19.5V7.646c0-0.859 0.433-1.648 1.157-2.109L10.812 1.3c0.752-0.404 1.642-0.402 2.36-9e-3l6.67 4.246c0.725 0.461 1.157 1.25 1.157 2.108zM12 5c-1.103 0-2 0.897-2 2s0.897 2 2 2 2-0.897 2-2-0.897-2-2-2zM12 8c-0.552 0-1-0.449-1-1s0.448-1 1-1 1 0.449 1 1-0.448 1-1 1z" />
</svg>