<svg id="lacrosse_stick_Layer_1" viewBox="0 0 24 24" fill="currentColor" width="32" height="32" data-name="Layer 1" xmlns="http://www.w3.org/2000/svg" xmlns:xlink="http://www.w3.org/1999/xlink">
    <title>lacrosse-stick</title>
    <path d="M21.446 2.554c-2.956-2.956-7.319-3.405-9.723-1.002-0.876 0.877-1.403 2.04-1.521 3.364-0.099 1.105-0.775 2.179-1.854 2.946-1.895 1.346-2.744 3.698-2.164 5.994 0.201 0.796 0.587 1.528 1.105 2.148l-7.143 7.142c-0.195 0.195-0.195 0.512 0 0.707 0.098 0.098 0.226 0.146 0.354 0.146s0.256-0.049 0.354-0.146l7.143-7.143c0.62 0.518 1.353 0.904 2.149 1.105 0.479 0.122 0.961 0.181 1.436 0.181 1.797 0 3.492-0.845 4.557-2.344 0.767-1.079 1.84-1.755 2.946-1.854 1.325-0.12 2.488-0.646 3.364-1.522 2.404-2.405 1.955-6.767-1.003-9.722zM21.741 11.57c-0.708 0.708-1.658 1.134-2.746 1.233-1.397 0.125-2.735 0.953-3.672 2.271-1.121 1.58-3.012 2.259-4.932 1.773-0.732-0.185-1.399-0.561-1.943-1.068-0.024-0.048-0.961-0.625-1.294-2.169-0.418-1.936 0.193-3.811 1.773-4.932 1.318-0.937 2.146-2.274 2.271-3.671 0.098-1.088 0.524-2.038 1.232-2.747C13.279 1.411 14.431 1 15.673 1c1.706 0 3.58 0.776 5.065 2.262 2.567 2.566 3.016 6.293 1.003 8.308z" />
</svg>