<svg id="ladder_Layer_1" viewBox="0 0 24 24" fill="currentColor" width="32" height="32" data-name="Layer 1" xmlns="http://www.w3.org/2000/svg" xmlns:xlink="http://www.w3.org/1999/xlink">
    <title>ladder</title>
    <path d="M19.5 0C19.224 0 19 0.224 19 0.5V9H5V0.5C5 0.224 4.776 0 4.5 0S4 0.224 4 0.5v23C4 23.776 4.224 24 4.5 24S5 23.776 5 23.5V22h14v1.5c0 0.276 0.224 0.5 0.5 0.5s0.5-0.224 0.5-0.5v-23C20 0.224 19.776 0 19.5 0zM5 14h14v3H5zM19 10v3H5v-3zM5 21v-3h14v3zM9.595 4.754 9.177 6.009C9.041 6.437 9.192 6.905 9.551 7.174c0.35 0.267 0.861 0.281 1.223 0.032l1.234-0.827 1.259 0.819c0.376 0.245 0.865 0.225 1.223-0.048 0.354-0.274 0.499-0.744 0.355-1.178l-0.43-1.225 1.052-0.857c0.339-0.285 0.465-0.755 0.313-1.171C15.624 2.289 15.224 2 14.787 2h-1.322l-0.474-1.312C12.838 0.276 12.439 0 12 0s-0.838 0.277-0.993 0.693L10.535 2H9.213C8.776 2 8.377 2.289 8.222 2.716 8.069 3.131 8.192 3.602 8.537 3.894zM9.213 3h1.673c0.211 0 0.398-0.132 0.471-0.33l0.592-1.637c0.027-0.066 0.072-0.067 0.104 0l0.592 1.637C12.717 2.868 12.905 3 13.116 3h1.671c0.086 0 0.113 0.053 0.045 0.12l-1.318 1.074c-0.164 0.133-0.227 0.354-0.156 0.553l0.546 1.556c0.024 0.08-0.022 0.095-0.09 0.058l-1.535-1c-0.168-0.109-0.384-0.107-0.551 3e-3l-1.51 1.011c-0.066 0.044-0.119 0.023-0.088-0.058l0.524-1.576c0.065-0.197 2e-3-0.415-0.159-0.545L9.17 3.118C9.105 3.06 9.129 3 9.213 3z" />
</svg>