<svg id="lambda_Layer_1" viewBox="0 0 24 24" fill="currentColor" width="32" height="32" data-name="Layer 1" xmlns="http://www.w3.org/2000/svg" xmlns:xlink="http://www.w3.org/1999/xlink">
    <title>lambda</title>
    <path d="M24 23.5c0 0.276-0.224 0.5-0.5 0.5h-1.479c-1.723 0-3.315-1.004-4.06-2.559L11.434 7.794 2.941 23.735C2.851 23.904 2.678 24 2.5 24c-0.08 0-0.16-0.019-0.235-0.059-0.243-0.13-0.336-0.433-0.206-0.677l8.839-16.591L9.137 2.99C8.559 1.781 7.32 1 5.98 1H4.501c-0.276 0-0.5-0.224-0.5-0.5S4.225 0 4.501 0H5.98c1.723 0 3.315 1.004 4.06 2.559l8.824 18.451c0.578 1.209 1.817 1.99 3.157 1.99H23.5c0.276 0 0.5 0.224 0.5 0.5z" />
</svg>