<svg id="lamp_floor_Layer_1" viewBox="0 0 24 24" fill="currentColor" width="32" height="32" data-name="Layer 1" xmlns="http://www.w3.org/2000/svg" xmlns:xlink="http://www.w3.org/1999/xlink">
    <title>lamp-floor</title>
    <path d="M16.999 11c0.884 0 1.719-0.387 2.29-1.061s0.815-1.561 0.67-2.432l-0.834-5c-0.242-1.452-1.486-2.506-2.959-2.506H7.834c-1.473 0-2.717 1.054-2.959 2.507l-0.833 5C3.896 8.38 4.141 9.266 4.712 9.941c0.571 0.674 1.405 1.061 2.289 1.061h4.5v12h-4c-0.276 0-0.5 0.224-0.5 0.5s0.224 0.5 0.5 0.5h9c0.276 0 0.5-0.224 0.5-0.5s-0.224-0.5-0.5-0.5h-4v-12zM5.475 9.293c-0.381-0.45-0.543-1.041-0.447-1.622l0.833-5C6.022 1.703 6.852 1 7.834 1h8.332c0.981 0 1.812 0.703 1.973 1.671l0.834 5c0.097 0.581-0.066 1.172-0.447 1.622S17.588 10.001 17 10.001H7c-0.589 0-1.145-0.258-1.525-0.708z" />
</svg>