<svg id="lamp_street_Layer_1" viewBox="0 0 24 24" fill="currentColor" width="32" height="32" data-name="Layer 1" xmlns="http://www.w3.org/2000/svg" xmlns:xlink="http://www.w3.org/1999/xlink">
    <title>lamp-street</title>
    <path d="M23.86 12.715c-1.181-3.285-4.33-5.534-7.922-5.704C15.448 3.045 12.047 0 7.999 0 3.589 0 0 3.589 0 8v15.5C0 23.776 0.224 24 0.5 24S1 23.776 1 23.5V8c0-3.859 3.141-7 7-7 3.502 0 6.452 2.604 6.931 6.018-3.537 0.218-6.625 2.452-7.792 5.697-0.264 0.735-0.152 1.529 0.306 2.179C7.932 15.586 8.739 16 9.602 16h3.397v0.5c0 1.379 1.121 2.5 2.5 2.5s2.5-1.121 2.5-2.5V16h3.397c0.863 0 1.67-0.414 2.157-1.106 0.458-0.649 0.569-1.443 0.307-2.179zM17 16.5c0 0.827-0.673 1.5-1.5 1.5S14 17.327 14 16.5V16h3zM22.737 14.318C22.436 14.745 21.935 15 21.397 15H9.602c-0.538 0-1.039-0.255-1.34-0.682-0.268-0.381-0.334-0.842-0.182-1.266 1.081-3.01 4.085-5.036 7.419-5.053 3.352 0 6.333 2.03 7.419 5.053 0.152 0.424 0.086 0.885-0.181 1.266z" />
</svg>