<svg id="lamp_desk_on_Layer_1" viewBox="0 0 24 24" fill="currentColor" width="32" height="32" data-name="Layer 1" xmlns="http://www.w3.org/2000/svg" xmlns:xlink="http://www.w3.org/1999/xlink">
    <title>lamp-desk-on</title>
    <path d="M19.601 8.544l0.773-0.773c0.453-0.454 0.676-1.08 0.613-1.718s-0.405-1.207-0.938-1.562l-5.488-3.659c-1.088-0.725-2.393-0.978-3.674-0.719-1.282 0.262-2.388 1.018-3.115 2.128-0.746 1.14-0.928 2.543-0.577 3.871L4.904 8.404C3.676 9.632 3 11.263 3 13v10H0.5C0.224 23 0 23.224 0 23.5S0.224 24 0.5 24h6C6.776 24 7 23.776 7 23.5S6.776 23 6.5 23H4V13c0-1.447 0.587-2.865 1.611-3.889L7.58 7.142c0.098 0.195 0.203 0.387 0.327 0.573l3.567 5.351c0.392 0.593 0.962 0.949 1.775 0.949 0.562 0 1.102-0.222 1.504-0.624l0.776-0.776c0.445 0.253 0.945 0.4 1.471 0.4 0.801 0 1.555-0.312 2.121-0.879C19.688 11.57 20 10.817 20 10.015c0-0.526-0.147-1.025-0.399-1.471zM14.046 12.684c-0.241 0.241-0.573 0.363-0.911 0.325-0.338-0.033-0.641-0.215-0.83-0.498L8.738 7.16C7.835 5.806 7.783 4.05 8.609 2.788c0.58-0.885 1.46-1.486 2.479-1.694 0.261-0.054 0.523-0.08 0.783-0.08 0.755 0 1.493 0.222 2.136 0.65l5.488 3.658c0.283 0.188 0.464 0.491 0.498 0.829 0.034 0.339-0.085 0.671-0.326 0.912zM18.414 11.429c-0.557 0.557-1.418 0.7-2.135 0.436l2.581-2.58c0.09 0.23 0.14 0.476 0.14 0.73 0 0.534-0.208 1.036-0.586 1.414zM22.353 14.647c0.195 0.195 0.195 0.512 0 0.707s-0.512 0.195-0.707 0l-1.5-1.5c-0.195-0.195-0.195-0.512 0-0.707s0.512-0.195 0.707 0zM17.999 14.501v2c0 0.276-0.224 0.5-0.5 0.5s-0.5-0.224-0.5-0.5v-2c0-0.276 0.224-0.5 0.5-0.5s0.5 0.224 0.5 0.5zM23.999 10.501c0 0.276-0.224 0.5-0.5 0.5h-2c-0.276 0-0.5-0.224-0.5-0.5s0.224-0.5 0.5-0.5h2c0.276 0 0.5 0.224 0.5 0.5z" />
</svg>