<svg id="land_layers_Layer_1" viewBox="0 0 24 24" fill="currentColor" width="32" height="32" data-name="Layer 1" xmlns="http://www.w3.org/2000/svg" xmlns:xlink="http://www.w3.org/1999/xlink">
    <title>land-layers</title>
    <path d="M0.243 8.444l10.31 6.186c0.447 0.268 0.947 0.401 1.448 0.401s1.001-0.134 1.448-0.401l10.31-6.186c0.15-0.09 0.243-0.253 0.243-0.429s-0.092-0.338-0.243-0.429L13.448 1.401c-0.894-0.535-2.002-0.535-2.896 0L0.243 7.587C0.093 7.677 0 7.84 0 8.016s0.092 0.338 0.243 0.428zM12.933 13.772c-0.575 0.346-1.291 0.346-1.866 0l-3.845-2.307L12 8.598l4.778 2.867zM17.75 10.882 12.972 8.015 17.75 5.148l4.778 2.867zM11.067 2.258c0.575-0.345 1.291-0.345 1.866 0l3.845 2.307L12 7.432 7.222 4.565zM6.25 5.148l4.778 2.867-4.778 2.867-4.778-2.867zM23.929 11.342c0.142 0.237 0.065 0.544-0.171 0.686l-11.5 6.9c-0.079 0.048-0.168 0.071-0.257 0.071s-0.178-0.023-0.257-0.071L0.243 12.029C6e-3 11.887-0.07 11.58 0.072 11.343c0.142-0.236 0.449-0.313 0.686-0.171l11.243 6.746 11.243-6.746c0.237-0.142 0.544-0.065 0.685 0.17zM23.929 14.842c0.142 0.236 0.065 0.544-0.171 0.686l-11.5 6.9c-0.079 0.048-0.168 0.071-0.257 0.071s-0.178-0.023-0.257-0.071l-11.501-6.9c-0.237-0.142-0.313-0.449-0.171-0.686s0.449-0.316 0.686-0.172l11.243 6.746 11.243-6.746c0.237-0.145 0.544-0.064 0.685 0.172z" />
</svg>