<svg id="landmark_alt_Layer_1" viewBox="0 0 24 24" fill="currentColor" width="32" height="32" data-name="Layer 1" xmlns="http://www.w3.org/2000/svg" xmlns:xlink="http://www.w3.org/1999/xlink">
    <title>landmark-alt</title>
    <path d="M24 23.5c0 0.276-0.224 0.5-0.5 0.5h-23C0.224 24 0 23.776 0 23.5S0.224 23 0.5 23h23c0.276 0 0.5 0.224 0.5 0.5zM3 19v-7H1.5C1.224 12 1 11.776 1 11.5S1.224 11 1.5 11H3c0-4.795 3.769-8.726 8.5-8.986V0.5C11.5 0.224 11.724 0 12 0s0.5 0.224 0.5 0.5v1.514C17.231 2.274 21 6.205 21 11h1.5c0.276 0 0.5 0.224 0.5 0.5S22.776 12 22.5 12H21v7h1.5c0.276 0 0.5 0.224 0.5 0.5S22.776 20 22.5 20h-21C1.224 20 1 19.776 1 19.5S1.224 19 1.5 19zM9 12v7h6v-7zM20 12h-4v7h4zM4 11h16c0-4.411-3.589-8-8-8s-8 3.589-8 8zM4 19h4v-7H4z" />
</svg>