<svg id="land_mine_on_Layer_1" viewBox="0 0 24 24" fill="currentColor" width="32" height="32" data-name="Layer 1" xmlns="http://www.w3.org/2000/svg" xmlns:xlink="http://www.w3.org/1999/xlink">
    <title>land-mine-on</title>
    <path d="M17.146 8.854c-0.195-0.195-0.195-0.512 0-0.707l4.5-4.5c0.195-0.195 0.512-0.195 0.707 0s0.195 0.512 0 0.707l-4.5 4.5C17.755 8.952 17.627 9 17.499 9s-0.256-0.049-0.353-0.146zM12 7c0.276 0 0.5-0.224 0.5-0.5v-6C12.5 0.224 12.276 0 12 0s-0.5 0.224-0.5 0.5v6C11.5 6.776 11.724 7 12 7zM24 23.5c0 0.276-0.224 0.5-0.5 0.5h-23C0.224 24 0 23.776 0 23.5S0.224 23 0.5 23h1.066l0.448-3.136C2.328 17.661 4.243 16 6.468 16h0.531v-1.5c0-1.379 1.121-2.5 2.5-2.5h5c1.379 0 2.5 1.121 2.5 2.5V16h0.531c2.225 0 4.14 1.661 4.454 3.864L22.432 23h1.066c0.276 0 0.5 0.224 0.502 0.5zM8 16h8v-1.5c0-0.827-0.673-1.5-1.5-1.5h-5C8.673 13 8 13.673 8 14.5zM21.423 23l-0.428-2.995c0 0 0-3e-3-1e-3-5e-3H18.5c-0.276 0-0.5-0.224-0.5-0.5s0.224-0.5 0.5-0.5h2.177c-0.57-1.186-1.777-2-3.146-2H6.469c-1.369 0-2.576 0.814-3.146 2H15.5c0.276 0 0.5 0.224 0.5 0.5S15.776 20 15.5 20H3.006c0 0 0 3e-3-1e-3 5e-3L2.577 23zM6.146 8.854C6.244 8.952 6.372 9 6.5 9s0.256-0.049 0.354-0.146c0.195-0.195 0.195-0.512 0-0.707l-4.5-4.501c-0.195-0.195-0.512-0.195-0.707 0s-0.195 0.512 0 0.707z" />
</svg>