<svg id="land_location_Layer_1" viewBox="0 0 24 24" fill="currentColor" width="32" height="32" data-name="Layer 1" xmlns="http://www.w3.org/2000/svg" xmlns:xlink="http://www.w3.org/1999/xlink">
    <title>land-location</title>
    <path d="M23.959 19.968l-1.077-7c-0.19-1.237-1.034-2.285-2.202-2.735-0.256-0.1-0.547 0.029-0.646 0.287s0.029 0.547 0.287 0.646c0.834 0.321 1.437 1.07 1.573 1.954L22.491 17H1.51l0.597-3.88c0.136-0.884 0.739-1.633 1.573-1.954 0.258-0.1 0.386-0.389 0.287-0.646-0.1-0.258-0.39-0.384-0.646-0.287-1.167 0.45-2.012 1.498-2.202 2.735l-1.077 7c-0.156 1.011 0.137 2.035 0.803 2.812 0.666 0.775 1.634 1.221 2.656 1.221H20.5c1.022 0 1.991-0.445 2.657-1.221 0.665-0.776 0.958-1.801 0.802-2.812zM22.641 17.98v4e-3c0 0-4e-3-2e-3 0-4e-3zM1.359 17.98c0 0 4e-3 3e-3 0 4e-3zM7.061 23h-3.56c-0.73 0-1.422-0.318-1.897-0.872-0.476-0.555-0.684-1.286-0.573-2.008L1.357 18h6.332zM8.069 23l0.627-5h6.608l0.627 5zM22.397 22.128C21.921 22.682 21.23 23 20.5 23h-3.56l-0.627-5h6.333l0.326 2.12c0.111 0.722-0.099 1.453-0.575 2.008zM10.24 14.782c0.488 0.477 1.128 0.714 1.767 0.714 0.632 0 1.262-0.233 1.736-0.697l3.207-2.849c1.322-1.322 2.051-3.08 2.051-4.95s-0.729-3.627-2.051-4.95C15.629 0.728 13.871 0 12.001 0s-3.627 0.728-4.95 2.05S5.001 5.13 5.001 7s0.728 3.627 2.072 4.97zM7.757 2.757C8.89 1.624 10.397 1 12 1s3.109 0.624 4.242 1.757C17.376 3.89 18 5.397 18 7s-0.624 3.109-1.736 4.222l-3.203 2.845c-0.585 0.573-1.537 0.572-2.14-0.017l-3.164-2.808c-2.339-2.339-2.339-6.146 0-8.485zM12 9.98c1.648 0 2.99-1.341 2.99-2.99S13.648 4 12 4 9.01 5.341 9.01 6.99 10.351 9.98 12 9.98zM12 5c1.098 0 1.99 0.893 1.99 1.99S13.097 8.98 12 8.98s-1.99-0.893-1.99-1.99S10.903 5 12 5z" />
</svg>