<svg id="laptop_mobile_Layer_1" viewBox="0 0 24 24" fill="currentColor" width="32" height="32" data-name="Layer 1" xmlns="http://www.w3.org/2000/svg" xmlns:xlink="http://www.w3.org/1999/xlink">
    <title>laptop-mobile</title>
    <path d="M1 15.5C1 16.33 1.67 17 2.5 17h9c0.28 0 0.5 0.22 0.5 0.5S11.78 18 11.5 18h-9C1.12 18 0 16.88 0 15.5c0-1.21 0.86-2.22 2-2.45V4.5C2 2.02 4.02 0 6.5 0h11C19.98 0 22 2.02 22 4.5v2C22 6.78 21.78 7 21.5 7S21 6.78 21 6.5v-2C21 2.57 19.43 1 17.5 1h-11C4.57 1 3 2.57 3 4.5V13h5.5c0.13 0 0.26 0.05 0.35 0.15L9.7 14h1.79c0.28 0 0.5 0.22 0.5 0.5s-0.22 0.5-0.5 0.5h-2c-0.13 0-0.26-0.05-0.35-0.15L8.29 14H2.5C1.67 14 1 14.67 1 15.5zM24 12.5v8c0 1.93-1.57 3.5-3.5 3.5h-3c-1.93 0-3.5-1.57-3.5-3.5v-8c0-1.93 1.57-3.5 3.5-3.5h3c1.93 0 3.5 1.57 3.5 3.5zM23 12.5c0-1.38-1.12-2.5-2.5-2.5h-3c-1.38 0-2.5 1.12-2.5 2.5v8c0 1.38 1.12 2.5 2.5 2.5h3c1.38 0 2.5-1.12 2.5-2.5z" />
</svg>