<svg id="laptop_dollar_Layer_1" viewBox="0 0 24 24" fill="currentColor" width="32" height="32" data-name="Layer 1" xmlns="http://www.w3.org/2000/svg" xmlns:xlink="http://www.w3.org/1999/xlink">
    <title>laptop-dollar</title>
    <path d="M22 19.051V13.5c0-0.276-0.224-0.5-0.5-0.5S21 13.224 21 13.5V19h-5.5c-0.133 0-0.26 0.053-0.354 0.146L14.292 20H9.706l-0.854-0.854C8.758 19.052 8.631 19 8.498 19H3v-8.5C3 8.57 4.57 7 6.5 7h8C14.776 7 15 6.776 15 6.5S14.776 6 14.5 6h-8C4.019 6 2 8.019 2 10.5v8.551c-1.14 0.232-2 1.242-2 2.449 0 1.378 1.121 2.5 2.5 2.5h19c1.379 0 2.5-1.122 2.5-2.5 0-1.207-0.86-2.217-2-2.449zM21.5 23h-19C1.673 23 1 22.327 1 21.5S1.673 20 2.5 20h5.793l0.854 0.854C9.241 20.948 9.368 21 9.501 21h5c0.133 0 0.26-0.053 0.354-0.146L15.709 20h5.793c0.827 0 1.5 0.673 1.5 1.5S22.329 23 21.5 23zM24 7.605C24 8.926 22.926 10 21.605 10H21v0.5c0 0.276-0.224 0.5-0.5 0.5S20 10.776 20 10.5V10h-0.5C18.121 10 17 8.878 17 7.5 17 7.224 17.224 7 17.5 7S18 7.224 18 7.5C18 8.327 18.673 9 19.5 9h2.105C22.374 9 23 8.374 23 7.605c0-0.685-0.49-1.263-1.165-1.375l-2.834-0.473C17.842 5.564 17 4.571 17 3.395 17 2.074 18.074 1 19.395 1H20V0.5C20 0.224 20.224 0 20.5 0S21 0.224 21 0.5V1h0.5C22.879 1 24 2.122 24 3.5 24 3.776 23.776 4 23.5 4S23 3.776 23 3.5C23 2.673 22.327 2 21.5 2h-2.105C18.626 2 18 2.626 18 3.395c0 0.685 0.49 1.263 1.165 1.375l2.834 0.473C23.158 5.436 24 6.429 24 7.605z" />
</svg>