<svg id="laptop_arrow_down_Layer_1" viewBox="0 0 24 24" fill="currentColor" width="32" height="32" data-name="Layer 1" xmlns="http://www.w3.org/2000/svg" xmlns:xlink="http://www.w3.org/1999/xlink">
    <title>laptop-arrow-down</title>
    <path d="M12 12c0 0 2e-3 0 2e-3 0H12c0 0-2e-3 0 0 0-1e-3 0-2e-3 0 0 0zM8.095 8.143c-0.197 0.193-0.201 0.51-8e-3 0.707l2.519 2.574C10.986 11.804 11.5 11.996 12 12c0.499-5e-3 1.016-0.199 1.397-0.58l2.515-2.57c0.193-0.197 0.189-0.514-8e-3-0.707s-0.514-0.188-0.707 8e-3l-2.511 2.566c-0.057 0.057-0.12 0.106-0.187 0.146V0.5c0-0.276-0.224-0.5-0.5-0.5s-0.5 0.224-0.5 0.5v10.363c-0.065-0.039-0.127-0.087-0.183-0.142l-2.515-2.57C8.609 7.955 8.292 7.95 8.095 8.143zM24 18.5c0 1.379-1.121 2.5-2.5 2.5h-19C1.122 21 0 19.879 0 18.5c0-1.208 0.86-2.217 2-2.45V7.5C2 5.019 4.019 3 6.5 3h2C8.776 3 9 3.224 9 3.5S8.776 4 8.5 4h-2C4.57 4 3 5.57 3 7.5V16h5.5c0.133 0 0.26 0.053 0.354 0.146L9.708 17h4.586l0.854-0.854C15.242 16.052 15.369 16 15.502 16h5.5V7.5c0-1.93-1.57-3.5-3.5-3.5h-2c-0.276 0-0.5-0.224-0.5-0.5s0.224-0.5 0.5-0.5h2c2.481 0 4.5 2.019 4.5 4.5v8.55c1.14 0.232 2 1.242 1.998 2.45zM23 18.5c0-0.827-0.673-1.5-1.5-1.5h-5.793l-0.854 0.854C14.759 17.948 14.632 18 14.499 18h-5c-0.133 0-0.26-0.053-0.354-0.146L8.291 17H2.5C1.673 17 1 17.673 1 18.5S1.673 20 2.5 20h19c0.827 0 1.5-0.673 1.5-1.5z" />
</svg>