<svg id="laptop_lock_Layer_1" viewBox="0 0 24 24" fill="currentColor" width="32" height="32" data-name="Layer 1" xmlns="http://www.w3.org/2000/svg" xmlns:xlink="http://www.w3.org/1999/xlink">
    <title>laptop-lock</title>
    <path d="M22 19.051V16.5c0-0.276-0.224-0.5-0.5-0.5S21 16.224 21 16.5V19h-5.5c-0.133 0-0.26 0.053-0.354 0.146L14.292 20H9.706l-0.854-0.854C8.758 19.052 8.631 19 8.498 19H3v-8.5C3 8.57 4.57 7 6.5 7h4C10.776 7 11 6.776 11 6.5S10.776 6 10.5 6h-4C4.019 6 2 8.019 2 10.5v8.551c-1.14 0.232-2 1.242-2 2.449 0 1.378 1.122 2.5 2.5 2.5h19c1.378 0 2.5-1.122 2.5-2.5 0-1.207-0.86-2.217-2-2.449zM21.5 23h-19C1.673 23 1 22.327 1 21.5S1.673 20 2.5 20h5.793l0.854 0.854C9.241 20.948 9.368 21 9.501 21h5c0.133 0 0.26-0.053 0.354-0.146L15.709 20h5.793c0.827 0 1.5 0.673 1.5 1.5S22.329 23 21.5 23zM22 5.351V3.5C22 1.57 20.43 0 18.5 0S15 1.57 15 3.5v1.851c-1.178 0.564-2 1.758-2 3.149v2c0 1.93 1.57 3.5 3.5 3.5h4c1.93 0 3.5-1.57 3.5-3.5v-2c0-1.391-0.822-2.585-2-3.149zM16 3.5C16 2.122 17.122 1 18.5 1S21 2.122 21 3.5v1.551C20.835 5.027 20.671 5 20.5 5h-4c-0.171 0-0.335 0.027-0.5 0.051zM23 10.5c0 1.378-1.122 2.5-2.5 2.5h-4c-1.378 0-2.5-1.122-2.5-2.5v-2C14 7.122 15.122 6 16.5 6h4C21.878 6 23 7.122 23 8.5zM19.5 9.5c0 0.552-0.448 1-1 1s-1-0.448-1-1 0.448-1 1-1 1 0.448 1 1z" />
</svg>