<svg id="laptop_refresh_Layer_1" viewBox="0 0 24 24" fill="currentColor" width="32" height="32" data-name="Layer 1" xmlns="http://www.w3.org/2000/svg" xmlns:xlink="http://www.w3.org/1999/xlink">
    <title>laptop-refresh</title>
    <path d="M22 19.051V16.5c0-0.276-0.224-0.5-0.5-0.5S21 16.224 21 16.5V19h-5.5c-0.133 0-0.26 0.053-0.354 0.146L14.292 20H9.706l-0.854-0.854C8.758 19.052 8.631 19 8.498 19H3v-8.5C3 8.57 4.57 7 6.5 7h3C9.776 7 10 6.776 10 6.5S9.776 6 9.5 6h-3C4.019 6 2 8.019 2 10.5v8.551c-1.14 0.232-2 1.242-2 2.449 0 1.378 1.122 2.5 2.5 2.5h19c1.379 0 2.5-1.122 2.5-2.5 0-1.207-0.86-2.217-2-2.449zM21.5 23h-19C1.673 23 1 22.327 1 21.5S1.673 20 2.5 20h5.793l0.854 0.854C9.241 20.948 9.368 21 9.501 21h5c0.133 0 0.26-0.053 0.354-0.146L15.709 20h5.793c0.827 0 1.5 0.673 1.5 1.5S22.329 23 21.5 23zM12.597 11.704c-0.909-2.03-0.776-4.203 0.364-5.963C14.073 4.025 15.957 3 18 3h1.696l-2.189-2.146c-0.195-0.195-0.195-0.512 0-0.707s0.512-0.195 0.707 0l2.387 2.343c0.264 0.265 0.398 0.63 0.398 1.003 0 0.404-0.147 0.683-0.397 0.93L18.214 6.81c-0.195 0.195-0.512 0.195-0.707 0s-0.195-0.512 0-0.707l2.104-2.104H18c-1.702 0-3.272 0.854-4.199 2.285-0.953 1.47-1.059 3.296-0.291 5.011 0.432 0.963 1.231 1.763 2.194 2.194 1.716 0.769 3.542 0.662 5.011-0.291C22.146 12.271 23 10.701 23 8.999c0-1.036-0.314-2.03-0.908-2.875-0.158-0.226-0.104-0.538 0.122-0.697 0.224-0.159 0.537-0.105 0.696 0.122C23.623 6.563 24 7.756 24 8.999c0 2.043-1.024 3.926-2.741 5.039C20.273 14.677 19.155 15 18.008 15c-0.9 0-1.82-0.198-2.712-0.598-1.202-0.538-2.16-1.497-2.699-2.698z" />
</svg>