<svg id="laptop_slash_Layer_1" viewBox="0 0 24 24" fill="currentColor" width="32" height="32" data-name="Layer 1" xmlns="http://www.w3.org/2000/svg" xmlns:xlink="http://www.w3.org/1999/xlink">
    <title>laptop-slash</title>
    <path d="M17.5 20.5c0 0.276-0.224 0.5-0.5 0.5H2.5C1.121 21 0 19.879 0 18.5c0-1.208 0.86-2.218 2-2.45V7.5c0-0.38 0.048-0.758 0.142-1.125 0.068-0.268 0.344-0.429 0.608-0.36 0.268 0.069 0.429 0.341 0.36 0.609C3.037 6.909 3 7.203 3 7.499v8.5h5.5c0.133 0 0.26 0.053 0.354 0.146l0.854 0.854h3.793c0.276 0 0.5 0.224 0.5 0.5s-0.224 0.5-0.5 0.5h-4c-0.133 0-0.26-0.053-0.354-0.146l-0.854-0.854H2.5c-0.827 0-1.5 0.673-1.5 1.5s0.673 1.5 1.5 1.5H17c0.276 0 0.5 0.224 0.5 0.501zM24.004 24.004c-0.098 0.098-0.226 0.146-0.354 0.146s-0.256-0.049-0.354-0.146l-23.3-23.3c-0.195-0.196-0.195-0.512 0-0.707s0.512-0.196 0.707 0l3.585 3.584C4.96 3.201 5.724 3 6.5 3h11C19.981 3 22 5.019 22 7.5v8.55c1.14 0.232 2 1.242 2 2.45 0 1.312-1.015 2.39-2.302 2.491l2.305 2.305c0.195 0.195 0.195 0.512 1e-3 0.708zM21.5 17h-3.793l3.059 3.058c0.07-0.037 0.15-0.058 0.235-0.058h0.5c0.827 0 1.5-0.673 1.5-1.5S22.328 17 21.5 17zM5.03 4.323 16.707 16H21V7.5C21 5.57 19.43 4 17.5 4h-11C5.99 4 5.487 4.111 5.03 4.323z" />
</svg>