<svg id="laptop_signal_Layer_1" viewBox="0 0 24 24" fill="currentColor" width="32" height="32" data-name="Layer 1" xmlns="http://www.w3.org/2000/svg" xmlns:xlink="http://www.w3.org/1999/xlink">
    <title>laptop-signal</title>
    <path d="M22.5 0C21.673 0 21 0.673 21 1.5v6C21 8.327 21.673 9 22.5 9S24 8.327 24 7.5v-6C24 0.673 23.327 0 22.5 0zM23 7.5C23 7.775 22.776 8 22.5 8S22 7.775 22 7.5v-6C22 1.225 22.224 1 22.5 1S23 1.225 23 1.5zM18.5 9C19.327 9 20 8.327 20 7.5v-4C20 2.673 19.327 2 18.5 2S17 2.673 17 3.5v4C17 8.327 17.673 9 18.5 9zM18 3.5C18 3.225 18.224 3 18.5 3S19 3.225 19 3.5v4C19 7.775 18.776 8 18.5 8S18 7.775 18 7.5zM14.5 9C15.327 9 16 8.327 16 7.5v-2C16 4.673 15.327 4 14.5 4S13 4.673 13 5.5v2C13 8.327 13.673 9 14.5 9zM14 5.5C14 5.225 14.224 5 14.5 5S15 5.225 15 5.5v2C15 7.775 14.776 8 14.5 8S14 7.775 14 7.5zM22 19.051V11.5c0-0.276-0.224-0.5-0.5-0.5S21 11.224 21 11.5V19h-5.5c-0.133 0-0.26 0.053-0.354 0.146L14.292 20H9.706l-0.854-0.854C8.758 19.052 8.631 19 8.498 19H3v-8.5C3 8.57 4.57 7 6.5 7h4C10.776 7 11 6.776 11 6.5S10.776 6 10.5 6h-4C4.019 6 2 8.019 2 10.5v8.551c-1.14 0.232-2 1.242-2 2.449 0 1.379 1.122 2.5 2.5 2.5h19c1.378 0 2.5-1.121 2.5-2.5 0-1.208-0.86-2.217-2-2.449zM21.5 23h-19C1.673 23 1 22.327 1 21.5S1.673 20 2.5 20h5.793l0.854 0.854C9.241 20.948 9.368 21 9.501 21h5c0.133 0 0.26-0.053 0.354-0.146L15.709 20h5.793c0.827 0 1.5 0.673 1.5 1.5S22.329 23 21.5 23z" />
</svg>