<svg id="laptop_shield_Layer_1" viewBox="0 0 24 24" fill="currentColor" width="32" height="32" data-name="Layer 1" xmlns="http://www.w3.org/2000/svg" xmlns:xlink="http://www.w3.org/1999/xlink">
    <title>laptop-shield</title>
    <path d="M22 19.051V14.5c0-0.276-0.224-0.5-0.5-0.5S21 14.224 21 14.5V19h-5.5c-0.133 0-0.26 0.053-0.354 0.146L14.292 20H9.706l-0.854-0.854C8.758 19.052 8.631 19 8.498 19H3v-8.5C3 8.57 4.57 7 6.5 7h4C10.776 7 11 6.776 11 6.5S10.776 6 10.5 6h-4C4.019 6 2 8.019 2 10.5v8.551c-1.14 0.232-2 1.242-2 2.449 0 1.378 1.121 2.5 2.5 2.5h19c1.379 0 2.5-1.122 2.5-2.5 0-1.207-0.86-2.217-2-2.449zM21.5 23h-19C1.673 23 1 22.327 1 21.5S1.673 20 2.5 20h5.793l0.854 0.854C9.241 20.948 9.368 21 9.501 21h5c0.133 0 0.26-0.053 0.354-0.146L15.709 20h5.793c0.827 0 1.5 0.673 1.5 1.5S22.329 23 21.5 23zM22.287 1.127l-3-0.995c-0.516-0.171-1.059-0.171-1.574 0l-3 0.995C13.689 1.467 13 2.421 13 3.5v3.413c0 3.612 3.868 5.829 5.054 6.422 0.125 0.059 0.304 0.175 0.447 0.165 0.122 8e-3 0.307-0.088 0.419-0.129 1.192-0.48 5.08-2.363 5.08-6.458V3.5c0-1.079-0.688-2.033-1.713-2.373zM23 6.913c0 3.467-3.408 5.109-4.453 5.53l-0.023 9e-3c-1.075-0.539-4.515-2.483-4.523-5.539V3.5c0-0.647 0.413-1.22 1.027-1.424l3-0.995c0.309-0.103 0.637-0.103 0.945 0l3 0.995C22.587 2.28 23 2.852 23 3.5z" />
</svg>