<svg id="laptop_code_Layer_1" viewBox="0 0 24 24" fill="currentColor" width="32" height="32" data-name="Layer 1" xmlns="http://www.w3.org/2000/svg" xmlns:xlink="http://www.w3.org/1999/xlink">
    <title>laptop-code</title>
    <path d="M6.671 11.618C6.234 11.188 6.002 10.635 6 10.044s0.227-1.146 0.645-1.563l2.514-2.347c0.203-0.188 0.518-0.177 0.707 0.024 0.188 0.202 0.177 0.519-0.024 0.707L7.34 9.199C7.125 9.415 7 9.718 7.001 10.039c0 0.322 0.128 0.624 0.357 0.85l2.478 2.238c0.205 0.185 0.221 0.501 0.036 0.706-0.099 0.109-0.235 0.165-0.371 0.165-0.12 0-0.24-0.042-0.335-0.129zM16.649 9.188c0.228 0.228 0.353 0.531 0.352 0.853 0 0.322-0.128 0.624-0.341 0.835l-2.494 2.253c-0.205 0.185-0.221 0.501-0.036 0.706C14.229 13.944 14.365 14 14.501 14c0.12 0 0.24-0.042 0.335-0.129l2.51-2.269c0.42-0.415 0.653-0.968 0.655-1.559s-0.227-1.146-0.657-1.575l-2.502-2.334c-0.203-0.188-0.518-0.176-0.707 0.024-0.188 0.202-0.177 0.519 0.024 0.707zM24.001 18.5c0 1.378-1.122 2.5-2.5 2.5H2.5C1.122 21 0 19.878 0 18.5c0-1.207 0.86-2.217 2-2.45V7.5C2 5.019 4.019 3 6.5 3h11C19.981 3 22 5.019 22 7.5v8.55c1.14 0.232 2 1.242 2.001 2.45zM3 7.5V16h5.5c0.133 0 0.26 0.053 0.354 0.146L9.708 17h4.586l0.854-0.854C15.242 16.052 15.369 16 15.502 16h5.5V7.5c0-1.93-1.57-3.5-3.5-3.5H6.5C4.57 4 3 5.57 3 7.5zM23 18.5c0-0.827-0.673-1.5-1.5-1.5h-5.793l-0.854 0.854C14.759 17.948 14.632 18 14.499 18h-5c-0.133 0-0.26-0.053-0.354-0.146L8.291 17H2.5C1.673 17 1 17.673 1 18.5S1.673 20 2.5 20h19c0.827 0 1.5-0.673 1.5-1.5z" />
</svg>