<svg id="laptop_binary_Layer_1" viewBox="0 0 24 24" fill="currentColor" width="32" height="32" data-name="Layer 1" xmlns="http://www.w3.org/2000/svg" xmlns:xlink="http://www.w3.org/1999/xlink">
    <title>laptop-binary</title>
    <path d="M22 16.051V7.5C22 5.019 19.981 3 17.5 3h-11C4.019 3 2 5.019 2 7.5v8.551c-1.14 0.232-2 1.242-2 2.449 0 1.378 1.122 2.5 2.5 2.5h19c1.378 0 2.5-1.122 2.5-2.5 0-1.207-0.86-2.217-2-2.449zM6.5 4h11C19.43 4 21 5.57 21 7.5V16h-5.5c-0.133 0-0.26 0.053-0.354 0.146L14.292 17H9.706l-0.854-0.854C8.758 16.052 8.631 16 8.498 16H3V7.5C3 5.57 4.57 4 6.5 4zM21.5 20h-19C1.673 20 1 19.327 1 18.5S1.673 17 2.5 17h5.793l0.854 0.854C9.241 17.948 9.368 18 9.501 18h5c0.133 0 0.26-0.053 0.354-0.146L15.709 17h5.793c0.827 0 1.5 0.673 1.5 1.5S22.329 20 21.5 20zM7.5 14c1.378 0 2.5-1.122 2.5-2.5v-3C10 7.122 8.878 6 7.5 6S5 7.122 5 8.5v3C5 12.878 6.122 14 7.5 14zM6 8.5C6 7.673 6.673 7 7.5 7S9 7.673 9 8.5v3C9 12.327 8.327 13 7.5 13S6 12.327 6 11.5zM16.5 14c1.378 0 2.5-1.122 2.5-2.5v-3C19 7.122 17.878 6 16.5 6S14 7.122 14 8.5v3c0 1.378 1.122 2.5 2.5 2.5zM15 8.5C15 7.673 15.673 7 16.5 7S18 7.673 18 8.5v3c0 0.827-0.673 1.5-1.5 1.5S15 12.327 15 11.5zM10.665 8.494c-0.205-0.186-0.221-0.501-0.035-0.706l1.471-1.624c0.281-0.311 0.9-0.082 0.9 0.335v7c0 0.276-0.224 0.5-0.5 0.5s-0.5-0.224-0.5-0.5V7.764l-0.629 0.695c-0.186 0.206-0.502 0.219-0.707 0.035z" />
</svg>