<svg id="lari_sign_Layer_1" viewBox="0 0 24 24" fill="currentColor" width="32" height="32" data-name="Layer 1" xmlns="http://www.w3.org/2000/svg" xmlns:xlink="http://www.w3.org/1999/xlink">
    <title>lari-sign</title>
    <path d="M23 23.5c0 0.28-0.22 0.5-0.5 0.5h-21C1.22 24 1 23.78 1 23.5S1.22 23 1.5 23h5.92C3.63 21.26 1 17.43 1 13 1 7.97 4.39 3.72 9 2.42V0.5C9 0.22 9.22 0 9.5 0S10 0.22 10 0.5v1.68C10.65 2.06 11.32 2 12 2s1.35 0.06 2 0.18V0.5C14 0.22 14.22 0 14.5 0S15 0.22 15 0.5v1.92c4.61 1.31 8 5.56 8 10.58 0 0.28-0.22 0.5-0.5 0.5S22 13.28 22 13c0-4.47-2.95-8.26-7-9.54v8.04c0 0.28-0.22 0.5-0.5 0.5S14 11.78 14 11.5V3.2C13.35 3.07 12.68 3 12 3s-1.35 0.07-2 0.2v8.3c0 0.28-0.22 0.5-0.5 0.5S9 11.78 9 11.5V3.46C4.95 4.74 2 8.53 2 13c0 5.51 4.49 10 10 10h10.5c0.28 0 0.5 0.22 0.5 0.5z" />
</svg>