<svg id="lasso_sparkles_Layer_1" viewBox="0 0 24 24" fill="currentColor" width="32" height="32" data-name="Layer 1" xmlns="http://www.w3.org/2000/svg" xmlns:xlink="http://www.w3.org/1999/xlink">
    <title>lasso-sparkles</title>
    <path d="M15.6 17.75c0.27-0.05 0.45-0.32 0.39-0.59-0.05-0.27-0.32-0.45-0.59-0.39-2.34 0.46-4.92 0.22-7.06-0.69-0.34-0.66-1.39-2.64-2.1-3.35-0.64-0.64-1.61-0.85-2.46-0.61C3.26 11.13 2.99 10.08 2.99 9 3 4.59 7.49 1 13 1s10 3.59 10 8c0 1.49-0.51 2.94-1.49 4.19-0.17 0.22-0.13 0.53 0.09 0.7 0.09 0.07 0.2 0.1 0.31 0.1 0.15 0 0.3-0.07 0.4-0.19 1.11-1.43 1.7-3.1 1.7-4.81C24 4.04 19.07 0 13 0S2 4.04 2 9c0 1.24 0.3 2.45 0.9 3.57-0.06 0.05-0.12 0.1-0.17 0.15C2.26 13.19 2 13.81 2 14.48c0 0.46 0.13 0.91 0.36 1.29-1 0.92-2.36 2.57-2.36 4.72 0 2.77 2.29 3.5 3.5 3.5H4c0.28 0 0.5-0.22 0.5-0.5s-0.22-0.5-0.5-0.5H3.5c-0.26 0-2.5-0.09-2.5-2.5 0-1.84 1.3-3.3 2.07-4.01 0.87 0.45 2.62 0.53 3.85 0.53 0.42 0 0.78-0.01 1.03-0.02 1.55 0.65 3.29 1 5.04 1 0.88 0 1.75-0.08 2.61-0.24zM3.44 15.54C3.16 15.26 3 14.88 3 14.49s0.15-0.77 0.44-1.05S4.1 13 4.49 13s0.77 0.16 1.05 0.44c0.45 0.45 1.16 1.69 1.64 2.58-1.7 0-3.43-0.16-3.74-0.48zM15.52 8.49 14.99 6.38C14.93 6.16 14.73 6 14.51 6s-0.43 0.16-0.48 0.38l-0.53 2.1-2.1 0.49c-0.22 0.05-0.38 0.25-0.39 0.48 0 0.23 0.15 0.43 0.37 0.49l2.12 0.57 0.53 2.12c0.06 0.22 0.26 0.38 0.48 0.38s0.43-0.16 0.48-0.38l0.53-2.11 2.11-0.53c0.22-0.06 0.38-0.26 0.38-0.49s-0.16-0.43-0.38-0.49zM23.69 19.04l-2.66-1.06-1.06-2.66c-0.15-0.38-0.78-0.38-0.93 0l-1.06 2.65-2.65 1c-0.19 0.07-0.32 0.25-0.32 0.46s0.12 0.39 0.31 0.47l2.66 1.12 1.07 2.66c0.08 0.19 0.26 0.31 0.46 0.31s0.39-0.12 0.46-0.31l1.06-2.66 2.66-1.06C23.88 19.88 24 19.7 24 19.5s-0.12-0.39-0.31-0.46zM20.46 20.18c-0.13 0.05-0.23 0.15-0.28 0.28l-0.68 1.7-0.68-1.7c-0.05-0.12-0.15-0.22-0.27-0.28l-1.7-0.72 1.69-0.64c0.13-0.05 0.24-0.15 0.29-0.28l0.68-1.7 0.68 1.7c0.05 0.13 0.15 0.23 0.28 0.28l1.7 0.68z" />
</svg>