<svg id="laugh_squint_Layer_1" viewBox="0 0 24 24" fill="currentColor" width="32" height="32" data-name="Layer 1" xmlns="http://www.w3.org/2000/svg" xmlns:xlink="http://www.w3.org/1999/xlink">
    <title>laugh-squint</title>
    <path d="M17.5 11c-0.095 0-0.191-0.027-0.277-0.084l-3-2C14.084 8.823 14 8.667 14 8.5s0.083-0.323 0.223-0.416l3-2c0.23-0.153 0.54-0.091 0.693 0.139s0.091 0.54-0.139 0.693L15.401 8.5l2.376 1.584c0.23 0.153 0.292 0.463 0.139 0.693C17.82 10.922 17.661 11 17.5 11zM6.778 10.916l3-2c0.139-0.093 0.223-0.249 0.223-0.416S9.918 8.177 9.778 8.084l-3-2C6.547 5.931 6.237 5.993 6.085 6.223c-0.153 0.23-0.091 0.54 0.139 0.693L8.6 8.5 6.224 10.084c-0.23 0.153-0.292 0.463-0.139 0.693C6.181 10.922 6.34 11 6.502 11c0.095 0 0.191-0.027 0.276-0.084zM17.961 15.025c0.11-0.523-0.011-1.052-0.333-1.449-0.301-0.371-0.733-0.575-1.218-0.575H7.587c-0.485 0-0.918 0.204-1.219 0.577-0.322 0.4-0.441 0.932-0.327 1.458C6.564 17.442 8.833 20 12.005 20s5.444-2.563 5.956-4.975zM16.411 14.001c0.227 0 0.365 0.111 0.441 0.205 0.129 0.16 0.178 0.389 0.131 0.612C16.554 16.845 14.665 19 12.007 19S7.46 16.848 7.02 14.823c-0.049-0.226 0-0.457 0.128-0.617C7.224 14.112 7.361 14 7.588 14zM24.001 12.001C24 5.383 18.617 0 12 0S0 5.383 0 12 5.383 24 12 24s12-5.383 12.001-11.999zM23.001 12.001c0 6.065-4.935 11-11 11S1 18.065 1 12 5.935 1 12 1 23 5.935 23.001 12.001z" />
</svg>