<svg id="laugh_beam_Layer_1" viewBox="0 0 24 24" fill="currentColor" width="32" height="32" data-name="Layer 1" xmlns="http://www.w3.org/2000/svg" xmlns:xlink="http://www.w3.org/1999/xlink">
    <title>laugh-beam</title>
    <path d="M9.5 10C9.224 10 9 9.776 9 9.5 9 8.285 8.229 7 7.5 7S6 8.285 6 9.5C6 9.776 5.776 10 5.5 10S5 9.776 5 9.5C5 7.848 6.069 6 7.5 6S10 7.848 10 9.5C10 9.776 9.776 10 9.5 10zM19 9.5C19 7.848 17.931 6 16.5 6S14 7.848 14 9.5c0 0.276 0.224 0.5 0.5 0.5S15 9.776 15 9.5C15 8.285 15.771 7 16.5 7S18 8.285 18 9.5c0 0.276 0.224 0.5 0.5 0.5S19 9.776 19 9.5zM17.96 15.025c0.11-0.523-0.011-1.052-0.333-1.449-0.301-0.371-0.733-0.575-1.218-0.575H7.587c-0.485 0-0.918 0.204-1.219 0.577-0.322 0.4-0.441 0.932-0.327 1.458C6.564 17.442 8.833 20 12.005 20s5.444-2.563 5.955-4.975zM16.41 14.001c0.227 0 0.365 0.111 0.441 0.205 0.129 0.16 0.178 0.389 0.131 0.612C16.553 16.845 14.664 19 12.006 19s-4.547-2.152-4.987-4.177c-0.049-0.226 0-0.457 0.128-0.617C7.223 14.112 7.36 14 7.587 14zM24 12.001C24 5.383 18.617 0 12 0S0 5.383 0 12 5.383 24 12 24s12-5.383 12-11.999zM23 12.001c0 6.065-4.935 11-11 11S1 18.065 1 12 5.935 1 12 1 23 5.935 23 12.001z" />
</svg>