<svg id="laurel_user_Layer_1" viewBox="0 0 24 24" fill="currentColor" width="32" height="32" data-name="Layer 1" xmlns="http://www.w3.org/2000/svg" xmlns:xlink="http://www.w3.org/1999/xlink">
    <title>laurel-user</title>
    <path d="M22.926 12.736c-0.093-0.021-0.196-0.04-0.296-0.06 0.466-0.35 0.873-0.803 1.087-1.356 0.608-1.57 0.433-3.521 0.178-4.88-0.079-0.422-0.359-0.778-0.75-0.952-0.362-0.16-0.771-0.138-1.121 0.04 0.171-0.635 0.155-1.3-0.185-1.946-0.784-1.488-2.308-2.656-3.448-3.375-0.799-0.531-1.914 0.016-2.071 0.95-0.252 1.267-0.55 4.382 1.668 7.293 0.943 7.48-2.896 11.568-5.844 12.012-2.96-0.445-6.817-4.535-5.873-12.015 1.622-2.093 2.206-4.593 1.669-7.289-0.158-0.934-1.27-1.482-2.071-0.95-1.141 0.718-2.665 1.887-3.448 3.375-0.34 0.646-0.356 1.311-0.185 1.946-0.351-0.178-0.762-0.199-1.121-0.04C0.724 5.662 0.443 6.018 0.364 6.44 0.11 7.8-0.067 9.751 0.542 11.321c0.21 0.541 0.607 0.986 1.064 1.334-0.138 0.026-0.275 0.052-0.401 0.081-0.911 0.181-1.482 1.227-1.062 2.065 0.482 1.017 1.349 2.341 2.818 3.234-0.111 0.086-0.219 0.171-0.317 0.254-0.739 0.592-0.691 1.828 0.104 2.346 0.788 0.546 1.978 1.182 3.381 1.332-0.018 0.042-0.045 0.094-0.062 0.135-0.156 0.382-0.128 0.808 0.077 1.168 0.433 0.817 1.551 0.732 2.31 0.771 1.639 0 2.88-0.546 3.675-1.595 0.647 0.854 1.755 1.595 3.675 1.595 0.736-0.038 1.889 0.045 2.314-0.771 0.205-0.36 0.232-0.786 0.077-1.168-0.017-0.041-0.044-0.093-0.062-0.135 1.403-0.15 2.593-0.786 3.381-1.331 0.795-0.519 0.842-1.755 0.104-2.347-0.116-0.099-0.242-0.2-0.376-0.302 1.426-0.893 2.275-2.188 2.748-3.187 0.188-0.394 0.186-0.845-6e-3-1.239-0.203-0.418-0.588-0.72-1.058-0.825zM22.739 6.403c0.054 0.023 0.146 0.084 0.173 0.221 0.188 1.009 0.424 2.914-0.127 4.335-0.292 0.773-1.224 1.276-1.981 1.542-0.577 7e-3-1.185 0.082-1.79 0.254 0.081-0.654 0.117-1.348 0.114-2.075 5e-3-0.012 0.015-0.021 0.019-0.034 0.742-2.268 2.205-3.547 3.302-4.221 0.129-0.078 0.247-0.041 0.29-0.022zM17.299 1.353c0.049-0.26 0.314-0.451 0.558-0.299 0.85 0.534 2.381 1.634 3.097 2.994 0.756 1.436-1.166 3.311-1.994 4.026-2.169-2.655-1.892-5.56-1.661-6.721zM3.303 4.048c0.716-1.359 2.248-2.459 3.096-2.994 0.244-0.152 0.509 0.038 0.558 0.299 0.505 2.539-0.052 4.798-1.658 6.723-0.826-0.713-2.752-2.591-1.996-4.028zM1.344 6.624c0.089-0.245 0.211-0.302 0.463-0.2 1.104 0.633 2.547 2.044 3.323 4.194-5e-3 0.764 0.033 1.491 0.12 2.175-0.627-0.195-1.258-0.279-1.859-0.291-0.678-0.311-1.614-0.729-1.92-1.543C0.92 9.538 1.155 7.633 1.344 6.624zM1.042 14.372c-0.136-0.331 0.081-0.581 0.381-0.661 1.052-0.24 2.6-0.396 4.007 0.209 2e-3 0 4e-3 0 6e-3 1e-3 0.204 0.975 0.502 1.851 0.866 2.638-0.919 0.129-1.729 0.456-2.406 0.844-1.515-0.752-2.389-2.052-2.854-3.031zM3.313 19.813c-0.295-0.237-0.249-0.546-0.025-0.761 0.771-0.655 1.998-1.432 3.515-1.533 0.357 0.604 0.753 1.142 1.18 1.609-0.59 0.638-1.038 1.278-1.368 1.866-1.357-0.036-2.54-0.655-3.302-1.181zM7.253 22.945c-0.254-0.079-0.326-0.206-0.263-0.464 0.285-0.698 0.821-1.691 1.704-2.652 0.939 0.814 1.959 1.324 2.932 1.544-0.701 1.375-2.17 1.905-4.373 1.572zM17.246 22.777c-0.03 0.054-0.103 0.147-0.243 0.168-2.205 0.334-3.667-0.197-4.369-1.568 0.975-0.215 1.997-0.723 2.938-1.539 0.876 0.957 1.411 1.946 1.695 2.642 0.039 0.097 0.031 0.205-0.021 0.297zM20.943 19.814c-0.761 0.526-1.944 1.145-3.301 1.18-0.329-0.586-0.775-1.223-1.36-1.858 0.428-0.469 0.825-1.011 1.183-1.619 0.985 0.068 1.843 0.419 2.534 0.838 9e-3 6e-3 0.018 0.012 0.027 0.017 0.362 0.221 0.681 0.458 0.942 0.68 0.224 0.217 0.27 0.524-0.025 0.762zM23.085 14.373c-0.458 0.966-1.314 2.241-2.789 2.998-0.661-0.371-1.447-0.68-2.336-0.806 0.369-0.802 0.672-1.695 0.876-2.693 1.371-0.539 2.85-0.391 3.869-0.16 0.17 0.039 0.308 0.144 0.378 0.288 0.041 0.085 0.075 0.219 2e-3 0.373zM12 10.001c1.103 0 2-0.897 2-2s-0.897-2-2-2-2 0.897-2 2 0.897 2 2 2zM12 7.001c0.551 0 1 0.449 1 1s-0.449 1-1 1-1-0.449-1-1 0.449-1 1-1zM8.5 14.501c0-1.93 1.57-3.5 3.5-3.5s3.5 1.57 3.5 3.5c0 0.276-0.224 0.5-0.5 0.5s-0.5-0.224-0.5-0.5c0-1.378-1.121-2.5-2.5-2.5s-2.5 1.122-2.5 2.5c0 0.276-0.224 0.5-0.5 0.5s-0.5-0.224-0.5-0.5z" />
</svg>