<svg id="layer_minus_Layer_1" viewBox="0 0 24 24" fill="currentColor" width="32" height="32" data-name="Layer 1" xmlns="http://www.w3.org/2000/svg" xmlns:xlink="http://www.w3.org/1999/xlink">
    <title>layer-minus</title>
    <path d="M12 14.031c-0.5 0-1.001-0.134-1.448-0.401L0.243 7.444C0.093 7.354 0 7.191 0 7.015s0.092-0.339 0.243-0.429l10.309-6.185c0.893-0.537 2.003-0.537 2.896 0l10.31 6.186c0.15 0.09 0.243 0.253 0.243 0.429s-0.092 0.339-0.243 0.429l-10.31 6.186c-0.447 0.268-0.947 0.401-1.448 0.4zM1.472 7.016l9.595 5.757c0.575 0.346 1.291 0.346 1.866 0l9.595-5.757-9.595-5.757c-0.575-0.346-1.29-0.346-1.866 0v0zM10.81 0.83zM24 19.5c0-0.276-0.224-0.5-0.5-0.5h-8c-0.276 0-0.5 0.224-0.5 0.5s0.224 0.5 0.5 0.5h8c0.276 0 0.5-0.224 0.5-0.5zM12.257 17.929l11.5-6.9c0.237-0.142 0.313-0.449 0.171-0.686s-0.449-0.316-0.686-0.172l-11.243 6.746-11.242-6.746c-0.236-0.145-0.544-0.064-0.686 0.172s-0.065 0.544 0.171 0.686l11.5 6.9C11.821 17.977 11.91 18 11.999 18s0.178-0.023 0.258-0.071zM12.428 21.257c0.142-0.236 0.065-0.544-0.171-0.686l-11.5-6.9c-0.236-0.144-0.544-0.064-0.686 0.172s-0.065 0.544 0.171 0.686l11.5 6.9c0.081 0.049 0.169 0.071 0.257 0.071 0.17 0 0.335-0.087 0.429-0.243z" />
</svg>