<svg id="leaderboard_Layer_1" viewBox="0 0 24 24" fill="currentColor" width="32" height="32" data-name="Layer 1" xmlns="http://www.w3.org/2000/svg" xmlns:xlink="http://www.w3.org/1999/xlink">
    <title>leaderboard</title>
    <path d="M19.5 7h-1C18.224 7 18 7.224 18 7.5S18.224 8 18.5 8h1c1.758 0 3.204 1.308 3.449 3H1.051C1.296 9.308 2.742 8 4.5 8h1C5.776 8 6 7.776 6 7.5S5.776 7 5.5 7h-1C2.019 7 0 9.019 0 11.5v8C0 21.981 2.019 24 4.5 24h15c2.481 0 4.5-2.019 4.5-4.5v-8C24 9.019 21.981 7 19.5 7zM9.5 19v-3H23v3zM8.5 15H1v-3h7.5zM9.5 12H23v3H9.5zM1 16h7.5v3H1zM1.051 20H8.5v3h-4c-1.758 0-3.204-1.308-3.449-3zM19.5 23h-10v-3h13.449c-0.245 1.692-1.691 3-3.449 3zM8.996 8.003l6 0.014h5e-3c0.533 0 1.034-0.208 1.412-0.584C16.792 7.055 17 6.552 17 6.017V0.91c0-0.388-0.236-0.724-0.604-0.856-0.366-0.131-0.764-0.02-1.029 0.307l-1.146 1.577-1.318-1.556c-0.5-0.496-1.32-0.484-1.856 0.055L9.776 1.943c0 0-1.321-1.758-1.363-1.788C8.18-0.011 7.826-0.031 7.528 0.103 7.203 0.253 7.001 0.57 7.001 0.928v5.076c0 1.1 0.895 1.998 1.995 1.999zM8 1.233 9.066 2.662C9.233 2.867 9.48 2.989 9.695 2.993c0.27 0.034 0.54-0.069 0.757-0.303l1.33-1.577c0.117-0.116 0.312-0.125 0.387-0.054l1.393 1.646c0.181 0.193 0.425 0.304 0.699 0.289 0.264-0.01 0.51-0.134 0.69-0.359L16 1.191v4.827c0 0.268-0.104 0.519-0.294 0.708C15.517 6.914 15.267 7.018 15 7.018h-2e-3l-6-0.014C8.448 7.003 8 6.554 8 6.004z" />
</svg>