<svg id="leader_speech_Layer_1" viewBox="0 0 24 24" fill="currentColor" width="32" height="32" data-name="Layer 1" xmlns="http://www.w3.org/2000/svg" xmlns:xlink="http://www.w3.org/1999/xlink">
    <title>leader-speech</title>
    <path d="M14 6c1.654 0 3-1.346 3-3s-1.346-3-3-3-3 1.346-3 3 1.346 3 3 3zM14 1c1.103 0 2 0.897 2 2s-0.897 2-2 2-2-0.897-2-2 0.897-2 2-2zM23.5 16H18V7.673l5.393-6.864c0.171-0.217 0.133-0.532-0.084-0.702-0.218-0.171-0.531-0.133-0.702 0.084L17.257 7h-6.514l-5.35-6.809c-0.17-0.217-0.484-0.255-0.702-0.084-0.217 0.17-0.255 0.485-0.084 0.702L10 7.673V16H4v-2.672c0-0.395 0.16-0.781 0.439-1.061l0.551-0.551c0.297 0.176 0.64 0.283 1.01 0.283 1.103 0 2-0.897 2-2s-0.897-2-2-2-2 0.897-2 2c0 0.37 0.108 0.712 0.283 1.01L3.732 11.56C3.26 12.032 3 12.66 3 13.328V16H0.5C0.224 16 0 16.224 0 16.5S0.224 17 0.5 17H3v6.5C3 23.776 3.224 24 3.5 24S4 23.776 4 23.5V17h16v6.667c0 0.276 0.224 0.5 0.5 0.5s0.5-0.224 0.5-0.5V17h2.5c0.276 0 0.5-0.224 0.5-0.5S23.776 16 23.5 16zM6 9c0.552 0 1 0.448 1 1s-0.448 1-1 1-1-0.448-1-1 0.448-1 1-1zM17 16h-6V8h6z" />
</svg>