<svg id="lead_management_Layer_1" viewBox="0 0 24 24" fill="currentColor" width="32" height="32" data-name="Layer 1" xmlns="http://www.w3.org/2000/svg" xmlns:xlink="http://www.w3.org/1999/xlink">
    <title>lead-management</title>
    <path d="M12 8c1.103 0 2-0.897 2-2s-0.897-2-2-2-2 0.897-2 2 0.897 2 2 2zM12 5c0.552 0 1 0.448 1 1s-0.448 1-1 1-1-0.448-1-1 0.448-1 1-1zM20 19c1.379 0 2.5-1.121 2.5-2.5S21.379 14 20 14s-2.5 1.121-2.5 2.5S18.621 19 20 19zM20 15c0.827 0 1.5 0.673 1.5 1.5S20.827 18 20 18s-1.5-0.673-1.5-1.5S19.173 15 20 15zM1.5 16.5C1.5 17.879 2.621 19 4 19s2.5-1.121 2.5-2.5S5.379 14 4 14s-2.5 1.121-2.5 2.5zM5.5 16.5C5.5 17.327 4.827 18 4 18s-1.5-0.673-1.5-1.5S3.173 15 4 15s1.5 0.673 1.5 1.5zM23.956 23.424c0.042 0.273-0.184 0.534-0.456 0.576-0.242 0-0.494-0.177-0.532-0.424C22.743 22.107 21.36 21 19.75 21s-2.993 1.107-3.218 2.576C16.495 23.82 16.24 23.994 16 24c-0.24 0-0.493-0.174-0.533-0.419C15.226 22.109 13.736 21 12 21s-3.226 1.109-3.467 2.581C8.493 23.824 8.233 23.998 8 24c-0.242 0-0.494-0.177-0.532-0.424C7.243 22.107 5.86 21 4.25 21s-2.993 1.107-3.218 2.576c-0.042 0.273-0.292 0.459-0.57 0.418-0.272-0.042-0.46-0.297-0.418-0.57C0.343 21.472 2.151 20 4.25 20c1.613 0 3.048 0.874 3.764 2.163C8.773 20.874 10.292 20 12 20s3.227 0.874 3.986 2.163C16.702 20.874 18.137 20 19.75 20c2.099 0 3.907 1.472 4.206 3.424zM24 9.5v3c0 0.276-0.224 0.5-0.5 0.5S23 12.776 23 12.5v-3C23 8.121 21.879 7 20.5 7h-1C19.224 7 19 6.776 19 6.5S19.224 6 19.5 6h1C22.43 6 24 7.57 24 9.5zM6.669 7.903C6.568 8.292 6.625 8.695 6.827 9.04 7.03 9.386 7.355 9.632 7.743 9.732 8.132 9.836 8.535 9.777 8.882 9.573l0.223-0.131c0.407 0.34 0.881 0.606 1.396 0.786v0.271c0 0.827 0.673 1.5 1.5 1.5s1.5-0.673 1.5-1.5v-0.271c0.515-0.18 0.988-0.446 1.396-0.786l0.223 0.131c0.347 0.204 0.75 0.263 1.139 0.159 0.388-0.101 0.713-0.347 0.915-0.691 0.203-0.346 0.26-0.749 0.159-1.138-0.101-0.388-0.347-0.713-0.692-0.917l-0.232-0.137c0.063-0.299 0.094-0.575 0.094-0.85s-0.03-0.551-0.095-0.851l0.233-0.137c0.346-0.203 0.592-0.528 0.692-0.916 0.101-0.389 0.044-0.792-0.158-1.137-0.203-0.346-0.528-0.592-0.916-0.692-0.389-0.103-0.792-0.045-1.139 0.159l-0.223 0.131c-0.407-0.34-0.881-0.606-1.396-0.786V1.499c0-0.827-0.673-1.5-1.5-1.5s-1.5 0.673-1.5 1.5V1.77C9.986 1.95 9.513 2.216 9.105 2.556L8.882 2.425c-0.347-0.204-0.75-0.262-1.139-0.159C7.355 2.367 7.03 2.613 6.828 2.957 6.625 3.303 6.568 3.706 6.669 4.095 6.77 4.483 7.016 4.808 7.36 5.01l0.234 0.138c-0.064 0.3-0.095 0.576-0.095 0.851s0.03 0.551 0.094 0.85L7.36 6.987C7.015 7.19 6.769 7.515 6.669 7.903zM8.65 6.955C8.547 6.594 8.5 6.29 8.5 6s0.048-0.594 0.15-0.955c0.062-0.219-0.03-0.452-0.227-0.567L7.866 4.15c-0.115-0.067-0.197-0.176-0.23-0.305S7.621 3.581 7.69 3.466c0.067-0.115 0.175-0.197 0.305-0.23 0.13-0.034 0.264-0.015 0.379 0.053l0.54 0.318C9.111 3.723 9.362 3.692 9.521 3.53c0.431-0.432 0.984-0.743 1.604-0.903C11.346 2.569 11.5 2.37 11.5 2.143V1.501c0-0.275 0.225-0.5 0.5-0.5s0.5 0.225 0.5 0.5v0.642c0 0.228 0.154 0.427 0.375 0.484 0.619 0.16 1.173 0.472 1.604 0.903 0.16 0.161 0.41 0.192 0.607 0.077l0.54-0.318c0.114-0.067 0.249-0.086 0.379-0.053s0.237 0.115 0.306 0.231c0.067 0.114 0.086 0.249 0.053 0.378s-0.115 0.237-0.231 0.306l-0.556 0.327c-0.196 0.115-0.289 0.349-0.227 0.567C15.453 5.406 15.5 5.71 15.5 6s-0.048 0.594-0.15 0.955c-0.062 0.219 0.031 0.452 0.228 0.568l0.555 0.325c0.116 0.068 0.198 0.177 0.231 0.307 0.033 0.129 0.015 0.264-0.054 0.379-0.067 0.115-0.175 0.197-0.305 0.23-0.132 0.033-0.264 0.015-0.379-0.053l-0.54-0.318C14.89 8.278 14.64 8.309 14.479 8.47c-0.431 0.432-0.984 0.743-1.604 0.903C12.654 9.431 12.5 9.63 12.5 9.857v0.642c0 0.275-0.225 0.5-0.5 0.5s-0.5-0.225-0.5-0.5V9.857c0-0.228-0.154-0.427-0.375-0.484-0.619-0.16-1.173-0.472-1.604-0.903-0.096-0.097-0.225-0.146-0.354-0.146-0.087 0-0.175 0.022-0.254 0.069l-0.54 0.318C8.26 8.778 8.126 8.798 7.994 8.764 7.864 8.731 7.757 8.649 7.688 8.533 7.621 8.419 7.602 8.284 7.635 8.155c0.033-0.13 0.115-0.238 0.23-0.306l0.556-0.326c0.196-0.116 0.29-0.35 0.229-0.568zM0 12.5v-3C0 7.57 1.57 6 3.5 6h1C4.776 6 5 6.224 5 6.5S4.776 7 4.5 7h-1C2.121 7 1 8.121 1 9.5v3C1 12.776 0.776 13 0.5 13S0 12.776 0 12.5zM9.5 16.5c0 1.379 1.121 2.5 2.5 2.5s2.5-1.121 2.5-2.5S13.379 14 12 14s-2.5 1.121-2.5 2.5zM13.5 16.5c0 0.827-0.673 1.5-1.5 1.5s-1.5-0.673-1.5-1.5S11.173 15 12 15s1.5 0.673 1.5 1.5z" />
</svg>