<svg id="leadership_Layer_1" viewBox="0 0 24 24" fill="currentColor" width="32" height="32" data-name="Layer 1" xmlns="http://www.w3.org/2000/svg" xmlns:xlink="http://www.w3.org/1999/xlink">
    <title>leadership</title>
    <path d="M13.5 5C14.878 5 16 3.879 16 2.5S14.878 0 13.5 0 11 1.121 11 2.5 12.122 5 13.5 5zM13.5 1C14.327 1 15 1.673 15 2.5S14.327 4 13.5 4 12 3.327 12 2.5 12.673 1 13.5 1zM3.5 10C4.878 10 6 8.879 6 7.5S4.878 5 3.5 5 1 6.121 1 7.5 2.122 10 3.5 10zM3.5 6C4.327 6 5 6.673 5 7.5S4.327 9 3.5 9 2 8.327 2 7.5 2.673 6 3.5 6zM23.229 13.08 18 16.454V14.5c0-0.827-0.673-1.5-1.5-1.5H16V7h3.5C19.776 7 20 6.776 20 6.5V5.209l3.435-1.72C23.789 3.246 24 2.833 24 2.385s-0.211-0.86-0.565-1.104C23.41 1.263 21.107 0.23 21.107 0.23 20.95 0.16 20.79 0.1 20.629 0.052 20.25-0.064 19.847 8e-3 19.524 0.248c-0.328 0.243-0.523 0.631-0.523 1.037v4.713h-5.5c-0.741 0-1.408 0.325-1.866 0.839l-2.979 2.89c-0.209 0.203-0.471 0.34-0.755 0.396l-5.317 1.05c-0.961 0.38-1.582 1.293-1.582 2.326v7.882l-0.947 1.895c-0.124 0.247-0.023 0.547 0.224 0.671C0.351 23.983 0.427 24 0.502 24c0.184 0 0.36-0.102 0.448-0.276l1-2c0.035-0.069 0.053-0.146 0.053-0.224V19h4.5c0.276 0 0.5 0.225 0.5 0.5v4c0 0.276 0.224 0.5 0.5 0.5h0.5c0.096 0 0.19-0.027 0.271-0.08l15.5-10c0.232-0.149 0.299-0.459 0.149-0.691-0.149-0.23-0.458-0.301-0.694-0.149zM20 1.287c0-0.132 0.083-0.207 0.119-0.234 0.029-0.021 0.083-0.052 0.151-0.052 0.022 0 0.309 0.09 0.426 0.143l2.198 0.983c0.066 0.06 0.105 0.154 0.105 0.259 0 0.118-0.049 0.223-0.072 0.244l-2.928 1.462zM17 14.5V17c0 0.032 3e-3 0.063 9e-3 0.093L12 20.325V14h4.5c0.276 0 0.5 0.225 0.5 0.5zM15 7v6h-3V8.5C12 7.672 12.672 7 13.5 7zM2 13.5c0-0.62 0.373-1.168 0.862-1.371L5 11.71V18H2zM8 22.905V19.5C8 18.673 7.327 18 6.5 18H6v-6.485l2.091-0.409c0.476-0.094 0.911-0.321 1.26-0.659L11 8.848v12.123z" />
</svg>