<svg id="leaf_oak_Layer_1" viewBox="0 0 24 24" fill="currentColor" width="32" height="32" data-name="Layer 1" xmlns="http://www.w3.org/2000/svg" xmlns:xlink="http://www.w3.org/1999/xlink">
    <title>leaf-oak</title>
    <path d="M22.887 6.487C23.605 5.769 24 4.815 24 3.799s-0.396-1.97-1.113-2.687c-1.434-1.437-3.938-1.435-5.374 0-0.527 0.529-0.646 0.423-1.09 0.021C15.569 0.36 14.672-1e-3 13.6-1e-3c-2.096 0-3.8 1.704-3.8 3.816 0 0.201-0.062 0.368-0.174 0.472C9.529 4.376 9.399 4.41 9.241 4.401c-0.196-0.018-0.899-2e-3-0.899-2e-3-2.229 0-4.042 1.813-4.042 4.042 0 0.31-0.12 0.388-0.562 0.512-0.076 0.021-0.146 0.042-0.204 0.062C2.018 9.549 1 10.99 1 12.598c0 1.692 2.392 5.286 3.218 6.476l-4.072 4.072c-0.195 0.195-0.195 0.512 0 0.707 0.098 0.098 0.226 0.146 0.354 0.146s0.256-0.049 0.354-0.146l4.071-4.071C6.115 20.608 9.709 23 11.401 23c1.608 0 3.049-1.019 3.582-2.533 0.021-0.06 0.042-0.129 0.063-0.205 0.124-0.441 0.202-0.562 0.512-0.562 2.229 0 4.042-1.813 4.042-4.042 0-0.228-0.016-0.502-0.038-0.776-0.015-0.179 0.044-0.35 0.165-0.481 0.119-0.129 0.281-0.2 0.474-0.2 2.096 0 3.8-1.704 3.8-3.8 0-1.072-0.36-1.97-1.134-2.823-0.401-0.442-0.509-0.561 0.02-1.091zM20.184 13.2c-0.451 0-0.886 0.19-1.192 0.522-0.308 0.335-0.463 0.787-0.426 1.241 0.021 0.245 0.034 0.49 0.034 0.694 0 1.678-1.364 3.042-3.042 3.042-1.11 0-1.518 1.434-1.518 1.434-0.394 1.116-1.454 1.866-2.64 1.866-1.222 0-4.225-1.887-5.756-2.937l8.209-8.209c0.195-0.195 0.195-0.512 0-0.707s-0.512-0.195-0.707 0l-8.209 8.209C3.887 16.824 2 13.821 2 12.599c0-1.186 0.75-2.246 1.867-2.641 0 0 1.433-0.406 1.433-1.517 0-1.678 1.364-3.042 3.042-3.042 0 0 0.653-0.014 0.817-2e-3 0.442 0.039 0.843-0.097 1.145-0.375 0.319-0.295 0.496-0.724 0.496-1.224 0-1.544 1.256-2.8 2.8-2.8 0.82 0 1.484 0.27 2.151 0.874 0.442 0.402 1.27 1.146 2.469-0.054 1.059-1.059 2.903-1.059 3.96 0C22.709 2.346 23 3.049 23 3.797s-0.291 1.451-0.82 1.98c-1.204 1.202-0.456 2.026-0.054 2.469C22.73 8.913 23 9.577 23 10.397c0 1.544-1.256 2.8-2.816 2.803z" />
</svg>