<svg id="leaf_maple_Layer_1" viewBox="0 0 24 24" fill="currentColor" width="32" height="32" data-name="Layer 1" xmlns="http://www.w3.org/2000/svg" xmlns:xlink="http://www.w3.org/1999/xlink">
    <title>leaf-maple</title>
    <path d="M23.44 7.409l-1.552-1.09 1.082-3.778c0.094-0.425-0.033-0.862-0.341-1.17s-0.744-0.436-1.2-0.333l-3.691 1.057-0.773-1.548c-0.271-0.359-0.69-0.56-1.148-0.547-0.448 0.017-0.86 0.253-1.12 0.661l-2.54 4.666c-0.082 0.102-0.213 0.156-0.332 0.148-0.13-8e-3-0.244-0.075-0.295-0.155L9.624 1.74C9.412 1.386 9.057 1.141 8.651 1.068 8.248 0.994 7.827 1.101 7.442 1.42L6.239 2.797 4.908 1.318C4.602 0.979 4.13 0.863 3.702 1.028 3.275 1.192 2.999 1.593 2.999 2.05v1.951H1.243c-0.434 0-0.828 0.22-1.057 0.588-0.228 0.368-0.249 0.82-0.043 1.231l2.996 5.295c0.215 0.465 0.191 1.008-0.021 1.392L1.26 14.869c-0.24 0.377-0.28 0.849-0.108 1.261s0.535 0.715 1.02 0.819l3.733 0.44-5.759 5.757c-0.195 0.195-0.195 0.512 0 0.707 0.098 0.098 0.226 0.146 0.354 0.146s0.256-0.049 0.354-0.146l5.758-5.758 0.448 3.781c0.095 0.437 0.398 0.8 0.811 0.972 0.413 0.173 0.884 0.132 1.303-0.137l2.259-1.788c0.444-0.254 0.987-0.278 1.417-0.082l5.355 3.028C18.381 23.956 18.57 24 18.759 24c0.227 0 0.452-0.062 0.653-0.187C19.781 23.584 20 23.19 20 22.756V21h1.867c0.473 0 0.89-0.284 1.063-0.724s0.061-0.932-0.285-1.254l-1.466-1.365 1.462-1.337c0.264-0.33 0.368-0.756 0.286-1.171-0.082-0.414-0.341-0.769-0.754-0.994l-3.463-1.483c-0.11-0.069-0.178-0.183-0.186-0.313-7e-3-0.116 0.036-0.224 0.117-0.304l4.756-2.405C23.764 9.402 23.989 8.99 24 8.548s-0.194-0.864-0.56-1.139zM22.892 8.788c0 0-4.817 2.436-4.844 2.458-0.353 0.282-0.547 0.72-0.521 1.171s0.271 0.863 0.721 1.138l3.486 1.497c0.151 0.084 0.198 0.219 0.213 0.292s0.022 0.216-0.032 0.294l-1.809 1.647c-0.104 0.094-0.163 0.227-0.164 0.367 0 0.14 0.057 0.273 0.159 0.369l1.863 1.734c0.059 0.054 0.051 0.115 0.035 0.156-0.016 0.042-0.052 0.09-0.132 0.09H19.5c-0.276 0-0.5 0.224-0.5 0.5v2.256c0 0.118-0.072 0.18-0.115 0.207s-0.131 0.062-0.212 0.023l-5.368-3.034c-0.336-0.155-0.697-0.234-1.063-0.234-0.46 0-0.929 0.125-1.367 0.378l-2.279 1.8c-0.103 0.066-0.225 0.077-0.34 0.029-0.113-0.047-0.192-0.143-0.21-0.214l-0.533-4.517 5.341-5.341c0.195-0.195 0.195-0.512 0-0.707s-0.512-0.195-0.707 0l-5.341 5.341-4.469-0.524c-0.119-0.026-0.215-0.106-0.262-0.219s-0.037-0.237 0-0.299l1.871-2.382c0.414-0.725 0.453-1.61 0.084-2.405L1.026 5.351C0.974 5.246 1.01 5.158 1.037 5.115 1.064 5.073 1.126 5 1.244 5H3.5C3.776 5 4 4.776 4 4.5V2.049c0-0.018 0-0.065 0.061-0.088 0.061-0.022 0.092 0.012 0.104 0.025l1.708 1.898C5.968 3.989 6.103 4.05 6.245 4.05h4e-3c0.143 0 0.278-0.063 0.373-0.171l1.51-1.74c0.131-0.106 0.272-0.1 0.344-0.087 0.071 0.013 0.205 0.056 0.279 0.18l1.911 3.588c0.239 0.383 0.651 0.627 1.102 0.653 0.459 0.036 0.89-0.169 1.22-0.594l2.571-4.709c0.066-0.104 0.175-0.166 0.297-0.17 0.137-0.011 0.236 0.049 0.261 0.069l0.912 1.843c0.106 0.216 0.352 0.324 0.586 0.259l4.062-1.164c0.13-0.029 0.215 0.04 0.247 0.071 0.031 0.031 0.1 0.118 0.079 0.217l-1.172 4.091c-0.059 0.205 0.019 0.424 0.193 0.547l1.831 1.285c0.097 0.073 0.15 0.184 0.147 0.305s-0.062 0.229-0.11 0.265z" />
</svg>