<svg id="leaf_heart_Layer_1" viewBox="0 0 24 24" fill="currentColor" width="32" height="32" data-name="Layer 1" xmlns="http://www.w3.org/2000/svg" xmlns:xlink="http://www.w3.org/1999/xlink">
    <title>leaf-heart</title>
    <path d="M22.804 0.247c-0.57-0.328-1.198-0.331-1.726-2e-3-2.827 1.763-5.525 1.941-8.136 2.113-2.907 0.191-5.653 0.373-8.045 2.776-1.924 1.933-2.952 4.504-2.896 7.238 0.051 2.401 0.935 4.642 2.51 6.409l-4.365 4.365c-0.195 0.195-0.195 0.512 0 0.707 0.098 0.098 0.226 0.146 0.354 0.146s0.256-0.049 0.354-0.146l4.359-4.358C6.984 21.127 9.247 22 11.668 22c0.301 0 0.604-0.013 0.909-0.041 2.995-0.267 5.769-1.819 7.611-4.259 2.308-3.057 3.591-8.21 3.812-15.317 0.026-0.838-0.466-1.717-1.196-2.136zM19.389 17.098c-1.672 2.215-4.188 3.624-6.901 3.866-2.478 0.222-4.825-0.564-6.606-2.212-1.806-1.669-2.828-3.942-2.879-6.399-0.051-2.46 0.874-4.773 2.604-6.512 2.125-2.136 4.57-2.297 7.401-2.484 2.606-0.171 5.56-0.366 8.6-2.262 0.213-0.131 0.447-0.125 0.697 0.02 0.417 0.24 0.709 0.761 0.694 1.239-0.211 6.798-1.459 11.897-3.61 14.744zM15 7.05c-1.08 0-1.977 0.479-2.5 1.254C11.977 7.53 11.08 7.05 10 7.05c-1.654 0-3 1.436-3 3.2 0 2.291 2.803 5.137 4.284 6.322 0.358 0.286 0.787 0.429 1.216 0.429s0.857-0.143 1.216-0.429C15.197 15.387 18 12.541 18 10.25c0-1.765-1.346-3.2-3-3.2zM13.091 15.791c-0.348 0.278-0.834 0.278-1.182 0C10.397 14.583 8 12.01 8 10.25c0-1.213 0.897-2.2 2-2.2 1.178 0 2 0.804 2 1.955 0 0.276 0.224 0.5 0.5 0.5s0.5-0.224 0.5-0.5c0-1.151 0.822-1.955 2-1.955 1.103 0 2 0.987 2 2.2 0 1.76-2.397 4.333-3.909 5.541z" />
</svg>