<svg id="leave_Layer_1" viewBox="0 0 24 24" fill="currentColor" width="32" height="32" data-name="Layer 1" xmlns="http://www.w3.org/2000/svg" xmlns:xlink="http://www.w3.org/1999/xlink">
    <title>leave</title>
    <path d="M9 12c0 0.552-0.448 1-1 1s-1-0.448-1-1 0.448-1 1-1 1 0.448 1 1zM16 17.5v4c0 1.379-1.121 2.5-2.5 2.5h-11C1.122 24 0 22.879 0 21.5V5.321c0-2.137 1.521-3.994 3.617-4.413l4.196-0.839c1.031-0.204 2.091 0.059 2.906 0.726C11.125 1.128 11.444 1.54 11.663 2H12.5C14.43 2 16 3.57 16 5.5v6c0 0.276-0.224 0.5-0.5 0.5S15 11.776 15 11.5v-6C15 4.121 13.879 3 12.5 3h-0.555C11.969 3.166 12 3.33 12 3.501V23h1.5c0.827 0 1.5-0.673 1.5-1.5v-4c0-0.276 0.224-0.5 0.5-0.5s0.5 0.224 0.5 0.5zM11 3.501c0-0.752-0.333-1.456-0.915-1.933-0.452-0.371-1.01-0.567-1.582-0.567-0.164 0-0.33 0.016-0.494 0.049L3.813 1.889C2.183 2.215 1 3.659 1 5.322v16.179c0 0.827 0.673 1.5 1.5 1.5H11zM24 14.5c0-0.5-0.277-1.154-0.677-1.528l-2.496-2.337c-0.201-0.188-0.518-0.179-0.707 0.023-0.188 0.201-0.178 0.519 0.023 0.707l2.496 2.337c0.093 0.087 0.158 0.191 0.214 0.298h-8.354c-0.276 0-0.5 0.224-0.5 0.5s0.224 0.5 0.5 0.5h8.325c-0.052 0.088-0.101 0.179-0.179 0.253l-2.506 2.385c-0.2 0.19-0.208 0.507-0.018 0.707 0.099 0.104 0.23 0.155 0.362 0.155 0.124 0 0.248-0.046 0.345-0.138l2.506-2.385c0.372-0.354 0.664-0.978 0.666-1.477z" />
</svg>