<svg id="left_Layer_1" viewBox="0 0 24 24" fill="currentColor" width="32" height="32" data-name="Layer 1" xmlns="http://www.w3.org/2000/svg" xmlns:xlink="http://www.w3.org/1999/xlink">
    <title>left</title>
    <path d="M10.32 22c-0.68 0-1.34-0.27-1.86-0.78l-7.34-6.55c-1.48-1.48-1.48-3.85-0.02-5.31l7.38-6.59c0.75-0.76 1.86-0.98 2.88-0.56 1.01 0.42 1.64 1.36 1.65 2.45V7h7.53c1.92 0 3.47 1.57 3.47 3.5v2.99c0 1.93-1.56 3.51-3.47 3.51h-7.53v2.34c0 1.1-0.64 2.04-1.65 2.45-0.34 0.14-0.69 0.21-1.04 0.21zM10.32 3c-0.38 0-0.8 0.13-1.16 0.49l-7.38 6.59c-1.05 1.05-1.05 2.79 0.02 3.86l7.34 6.55c0 0 0.01 0.01 0.02 0.02 0.58 0.58 1.31 0.57 1.81 0.36 0.5-0.2 1.03-0.71 1.03-1.53V16.5c0-0.28 0.22-0.5 0.5-0.5h8.03c1.36 0 2.47-1.12 2.47-2.51V10.5c0-1.38-1.11-2.51-2.47-2.51H12.5c0 0 0 0 0 0-0.13 0-0.26-0.05-0.35-0.15S12 7.62 12 7.49V4.65c0-0.82-0.53-1.33-1.03-1.53-0.19-0.08-0.41-0.13-0.65-0.12z" />
</svg>