<svg id="left_from_bracket_Layer_1" viewBox="0 0 24 24" fill="currentColor" width="32" height="32" data-name="Layer 1" xmlns="http://www.w3.org/2000/svg" xmlns:xlink="http://www.w3.org/1999/xlink">
    <title>left-from-bracket</title>
    <path d="M19.974 13.5v-2.992C19.974 8.573 18.415 7 16.5 7h-3.526V4.654c-5e-3-1.095-0.638-2.034-1.65-2.45-1.005-0.415-2.112-0.197-2.885 0.57l-7.37 6.58c-1.457 1.458-1.457 3.832 0.021 5.311l7.338 6.55c0.516 0.517 1.182 0.788 1.867 0.788 0.344 0 0.692-0.068 1.03-0.207 1.012-0.417 1.644-1.356 1.647-2.454v-2.34l3.526 8e-3c1.915 0 3.474-1.574 3.476-3.51zM12.474 16c-0.133 0-0.26 0.053-0.354 0.146-0.094 0.094-0.146 0.221-0.146 0.354v2.839c-3e-3 0.818-0.533 1.328-1.028 1.531-0.495 0.206-1.232 0.216-1.83-0.383l-7.339-6.549c-1.068-1.069-1.068-2.809-0.021-3.857 0 0 7.372-6.582 7.379-6.588 0.357-0.358 0.776-0.49 1.16-0.49 0.236 0 0.46 0.049 0.648 0.127 0.496 0.204 1.026 0.713 1.03 1.528v2.843c0 0.276 0.224 0.5 0.5 0.5h4.026c1.364 0 2.474 1.125 2.474 2.508v2.992c0 1.384-1.109 2.509-2.473 2.509zM24 4.5v15c0 2.481-2.019 4.5-4.5 4.5h-4c-0.276 0-0.5-0.224-0.5-0.5s0.224-0.5 0.5-0.5h4c1.93 0 3.5-1.57 3.5-3.5v-15C23 2.57 21.43 1 19.5 1h-4C15.224 1 15 0.776 15 0.5S15.224 0 15.5 0h4C21.981 0 24 2.019 24 4.5z" />
</svg>