<svg id="legal_fees_Layer_1" viewBox="0 0 24 24" fill="currentColor" width="32" height="32" data-name="Layer 1" xmlns="http://www.w3.org/2000/svg" xmlns:xlink="http://www.w3.org/1999/xlink">
    <title>legal-fees</title>
    <path d="M8.541 8.727V8.5c0-0.276 0.224-0.5 0.5-0.5s0.5 0.224 0.5 0.5v0.227c0 0.702 0.543 1.273 1.21 1.273h2.579c0.667 0 1.21-0.571 1.21-1.273 0-0.568-0.363-1.072-0.882-1.225l-3.519-1.043C9.198 6.181 8.541 5.283 8.541 4.275c0-1.253 0.991-2.273 2.209-2.273h0.751V0.503c0-0.276 0.224-0.5 0.5-0.5s0.5 0.224 0.5 0.5v1.5h0.828c1.218 0 2.209 1.02 2.209 2.273v0.227c0 0.276-0.224 0.5-0.5 0.5s-0.5-0.224-0.5-0.5V4.276c0-0.702-0.543-1.273-1.21-1.273h-2.579c-0.667 0-1.21 0.571-1.21 1.273 0 0.568 0.363 1.072 0.882 1.225l3.519 1.043c0.941 0.279 1.598 1.176 1.598 2.184 0 1.253-0.991 2.273-2.209 2.273H12.53l-0.029 1.509c-5e-3 0.272-0.228 0.49-0.5 0.49h-0.01c-0.276-5e-3-0.495-0.233-0.49-0.51L11.53 11h-0.78c-1.218 0-2.209-1.02-2.209-2.273zM19.5 22.997h-6.998v-7.498c0-0.276-0.224-0.5-0.5-0.5s-0.5 0.224-0.5 0.5v7.498H4.504c-0.276 0-0.5 0.224-0.5 0.5s0.224 0.5 0.5 0.5H19.5c0.276 0 0.5-0.224 0.5-0.5s-0.224-0.5-0.5-0.5zM23.987 14.56c-0.065 2.14-1.524 3.982-3.53 4.409-0.313 0.066-0.628 0.099-0.94 0.099-1.014 0-2.001-0.345-2.806-0.996-1.087-0.88-1.71-2.182-1.71-3.572 9e-3-0.133-0.026-0.557 0.033-0.678l3.688-9.706c-0.178-0.074-0.373-0.113-0.575-0.113h-0.646c-0.276 0-0.5-0.224-0.5-0.5s0.224-0.5 0.5-0.5h0.646c1.028 0 1.939 0.617 2.321 1.571l3.5 9.249C23.989 13.879 24 13.939 24 14c-5e-3 0.107 0.011 0.464-0.013 0.56zM22.951 14.999h-6.894c0.126 0.894 0.565 1.714 1.283 2.296 0.829 0.671 1.862 0.922 2.908 0.696 1.411-0.3 2.475-1.514 2.703-2.992zM22.965 13.999c0 0-3.449-9.11-3.459-9.133l-3.47 9.133zM4.487 19.068c-0.312 0-0.627-0.033-0.94-0.099-2.006-0.427-3.465-2.269-3.53-4.409-0.014-0.192-0.038-0.547 0.02-0.737l3.496-9.241c0.385-0.964 1.296-1.58 2.324-1.58h0.646c0.276 0 0.5 0.224 0.5 0.5s-0.224 0.5-0.5 0.5H5.857c-0.202 0-0.396 0.04-0.575 0.113l3.688 9.706c0.059 0.123 0.024 0.542 0.033 0.678 0 1.39-0.623 2.693-1.71 3.572-0.804 0.652-1.792 0.996-2.806 0.997zM1.039 13.999h6.929L4.499 4.867c-0.012 0.025-3.46 9.132-3.46 9.132zM3.755 17.991c1.049 0.226 2.08-0.024 2.908-0.696 0.718-0.581 1.157-1.402 1.283-2.296H1.053c0.226 1.477 1.291 2.692 2.702 2.992z" />
</svg>