<svg id="legal_case_Layer_1" viewBox="0 0 24 24" fill="currentColor" width="32" height="32" data-name="Layer 1" xmlns="http://www.w3.org/2000/svg" xmlns:xlink="http://www.w3.org/1999/xlink">
    <title>legal-case</title>
    <path d="M13.5 23h-9C2.57 23 1 21.43 1 19.5v-15C1 2.57 2.57 1 4.5 1h5.515C10.35 1 10.678 1.038 11 1.096V6.5C11 7.878 12.122 9 13.5 9h5.389c0.033 0.18 0.078 0.357 0.092 0.541 0.023 0.275 0.271 0.479 0.539 0.458 0.275-0.022 0.48-0.264 0.458-0.539-0.125-1.536-0.793-2.981-1.883-4.07L14.61 1.905c-1.228-1.228-2.86-1.904-4.596-1.904H4.5C2.019 0 0 2.019 0 4.5v15C0 21.981 2.019 24 4.5 24h9c0.276 0 0.5-0.224 0.5-0.5S13.776 23 13.5 23zM17.389 6.096C17.932 6.639 18.333 7.294 18.608 8H13.5C12.673 8 12 7.327 12 6.5V1.379c0.704 0.273 1.354 0.682 1.904 1.231zM23.853 23.146l-5.255-5.255 2.293-2.293 0.435 0.435c0.452 0.466 1.172-0.255 0.707-0.707l-4.68-4.68c-0.195-0.195-0.512-0.195-0.707 0s-0.195 0.512 0 0.707l0.409 0.409-5.293 5.293-0.409-0.409c-0.195-0.195-0.512-0.195-0.707 0s-0.195 0.512 0 0.707l4.68 4.68c0.452 0.466 1.172-0.255 0.707-0.707l-0.435-0.435 2.293-2.293 5.255 5.255c0.452 0.466 1.172-0.255 0.707-0.707zM12.469 17.762l5.293-5.293 2.422 2.422-5.293 5.293zM4 8.5C4 8.224 4.224 8 4.5 8h4C8.776 8 9 8.224 9 8.5S8.776 9 8.5 9h-4C4.224 9 4 8.776 4 8.5zM13.5 12h-9C4.224 12 4 11.776 4 11.5S4.224 11 4.5 11h9c0.276 0 0.5 0.224 0.5 0.5S13.776 12 13.5 12zM10.5 15h-6C4.224 15 4 14.776 4 14.5S4.224 14 4.5 14h6c0.276 0 0.5 0.224 0.5 0.5S10.776 15 10.5 15zM7.5 17C7.776 17 8 17.224 8 17.5S7.776 18 7.5 18h-3C4.224 18 4 17.776 4 17.5S4.224 17 4.5 17z" />
</svg>