<svg id="legal_Layer_1" viewBox="0 0 24 24" fill="currentColor" width="32" height="32" data-name="Layer 1" xmlns="http://www.w3.org/2000/svg" xmlns:xlink="http://www.w3.org/1999/xlink">
    <title>legal</title>
    <path d="M24 4.5v15c0 2.481-2.019 4.5-4.5 4.5h-6c-0.276 0-0.5-0.224-0.5-0.5s0.224-0.5 0.5-0.5h6c1.93 0 3.5-1.57 3.5-3.5v-15C23 2.57 21.43 1 19.5 1h-9C8.57 1 7 2.57 7 4.5v5C7 9.776 6.776 10 6.5 10S6 9.776 6 9.5v-5C6 2.019 8.019 0 10.5 0h9C21.981 0 24 2.019 24 4.5zM10.5 5h9C19.776 5 20 4.776 20 4.5S19.776 4 19.5 4h-9C10.224 4 10 4.224 10 4.5S10.224 5 10.5 5zM10.5 9h9C19.776 9 20 8.776 20 8.5S19.776 8 19.5 8h-9C10.224 8 10 8.224 10 8.5S10.224 9 10.5 9zM10.5 13h7c0.276 0 0.5-0.224 0.5-0.5S17.776 12 17.5 12h-7c-0.276 0-0.5 0.224-0.5 0.5s0.224 0.5 0.5 0.5zM18 15c1.654 0 3 1.346 3 3s-1.346 3-3 3-3-1.346-3-3 1.346-3 3-3zM18 16c-1.103 0-2 0.897-2 2s0.897 2 2 2 2-0.897 2-2-0.897-2-2-2zM11 23.5c0 0.276-0.224 0.5-0.5 0.5h-10C0.224 24 0 23.776 0 23.5S0.224 23 0.5 23H1v-1c0-1.654 1.346-3 3-3h0.378C3.463 16.591 3 15.064 3 14.46 3 13.08 4.098 12 5.5 12S8 13.08 8 14.46c0 0.604-0.464 2.131-1.378 4.54H7c1.654 0 3 1.346 3 3v1h0.5c0.276 0 0.5 0.224 0.5 0.5zM5.448 19h0.104C6.894 15.507 7 14.644 7 14.46 7 13.642 6.341 13 5.5 13S4 13.642 4 14.46c0 0.184 0.106 1.047 1.448 4.54zM2 23h7v-1c0-1.103-0.897-2-2-2H4c-1.103 0-2 0.897-2 2z" />
</svg>