<svg id="legal_document_Layer_1" viewBox="0 0 24 24" fill="currentColor" width="32" height="32" data-name="Layer 1" xmlns="http://www.w3.org/2000/svg" xmlns:xlink="http://www.w3.org/1999/xlink">
    <title>legal-document</title>
    <path d="M22.708 15.003c-0.21-0.6-0.779-1.003-1.415-1.003h-3.292v-1.5c0-0.276-0.224-0.5-0.5-0.5s-0.5 0.224-0.5 0.5V14h-3.279c-0.646 0-1.218 0.412-1.423 1.025 0 0-1.298 3.921-1.298 3.975 0 1.103 0.897 2 2 2s2-0.897 2-2c0-0.122 0-0.324-1.293-4h3.293v8h-2.5c-0.276 0-0.5 0.224-0.5 0.5s0.224 0.5 0.5 0.5h6c0.276 0 0.5-0.224 0.5-0.5s-0.224-0.5-0.5-0.5h-2.5v-8h3.292 0.019c0 0-1.312 3.945-1.312 4 0 1.103 0.897 2 2 2s2-0.897 2-2c0-0.122 0-0.324-1.292-3.997zM14 19h-1.973l0.986-2.957C13.697 18.006 13.977 18.887 14 19zM22.015 16.05C22.7 18.012 22.977 18.89 23 19h-1.973zM10.5 11h-6C4.224 11 4 10.776 4 10.5S4.224 10 4.5 10h6c0.276 0 0.5 0.224 0.5 0.5S10.776 11 10.5 11zM10.5 23h-6C2.57 23 1 21.43 1 19.5v-15C1 2.57 2.57 1 4.5 1h5.515C10.35 1 10.678 1.038 11 1.096V6.5C11 7.878 12.122 9 13.5 9c0 0 5.842 0.01 5.938-0.016 0.268-0.068 0.429-0.341 0.36-0.608-0.289-1.13-0.877-2.163-1.702-2.987l-3.485-3.485C13.383 0.676 11.751 0 10.015 0H4.5C2.019 0 0 2.019 0 4.5v15C0 21.981 2.019 24 4.5 24h6c0.276 0 0.5-0.224 0.5-0.5S10.776 23 10.5 23zM17.389 6.096C17.931 6.638 18.348 7.289 18.624 8H13.5C12.673 8 12 7.327 12 6.5V1.379c0.704 0.273 1.354 0.682 1.904 1.231zM9.5 15h-5C4.224 15 4 14.776 4 14.5S4.224 14 4.5 14h5c0.276 0 0.5 0.224 0.5 0.5S9.776 15 9.5 15zM8.5 18C8.776 18 9 18.224 9 18.5S8.776 19 8.5 19h-4C4.224 19 4 18.776 4 18.5S4.224 18 4.5 18z" />
</svg>