<svg id="less_than_equal_Layer_1" viewBox="0 0 24 24" fill="currentColor" width="32" height="32" data-name="Layer 1" xmlns="http://www.w3.org/2000/svg" xmlns:xlink="http://www.w3.org/1999/xlink">
    <title>less-than-equal</title>
    <path d="M21 23.5c0 0.276-0.224 0.5-0.5 0.5h-17C3.224 24 3 23.776 3 23.5S3.224 23 3.5 23h17c0.276 0 0.5 0.224 0.5 0.5zM20.701 18.042 5.188 11.216C4.46 10.92 3.983 10.235 4 9.512 4.017 8.82 4.483 8.187 5.204 7.893l15.5-6.937c0.252-0.112 0.365-0.408 0.252-0.66-0.113-0.251-0.406-0.368-0.661-0.252L4.812 6.974C3.738 7.412 3.027 8.398 3.001 9.489c-0.027 1.136 0.701 2.202 1.798 2.648l15.5 6.821C20.364 18.986 20.433 19 20.5 19c0.192 0 0.376-0.111 0.458-0.299 0.111-0.253-3e-3-0.548-0.257-0.659z" />
</svg>