<svg id="lesson_Layer_1" viewBox="0 0 24 24" fill="currentColor" width="32" height="32" data-name="Layer 1" xmlns="http://www.w3.org/2000/svg" xmlns:xlink="http://www.w3.org/1999/xlink">
    <title>lesson</title>
    <path d="M11 4c0 0.552-0.448 1-1 1S9 4.552 9 4s0.448-1 1-1 1 0.448 1 1zM24 4.5v13c0 1.636-0.889 3.145-2.32 3.938-0.242 0.132-0.545 0.047-0.68-0.195-0.134-0.241-0.046-0.546 0.195-0.68 1.113-0.616 1.805-1.79 1.805-3.062v-9.5H1v9.5c0 1.93 1.57 3.5 3.5 3.5h1c0.276 0 0.5 0.224 0.5 0.5s-0.224 0.5-0.5 0.5h-1c-2.481 0-4.5-2.019-4.5-4.5V4.5C0 2.019 2.019 0 4.5 0h15C21.981 0 24 2.019 24 4.5zM23 4.5C23 2.57 21.43 1 19.5 1h-15C2.57 1 1 2.57 1 4.5V7h22zM19 15.344c0.017 0.05 0 5.156 0 5.156 0 0.276-0.224 0.5-0.5 0.5S18 20.776 18 20.5v-3.628l-2 0.801v3.719c0 0.876-0.513 1.68-1.307 2.046C13.886 23.81 12.98 24 12 24s-1.885-0.188-2.693-0.562C8.513 23.071 8 22.268 8 21.392v-3.711l-2.079-0.837c-0.572-0.23-0.927-0.739-0.926-1.328 0-0.59 0.357-1.098 0.93-1.326l4.707-1.88c0.857-0.343 1.838-0.342 2.694-3e-3l4.737 1.881c0.516 0.205 0.873 0.641 0.937 1.156zM15 18.074 13.338 18.74c-0.43 0.173-0.891 0.259-1.353 0.259s-0.927-0.087-1.359-0.261L9 18.084v3.309c0 0.487 0.285 0.935 0.726 1.138 1.353 0.624 3.201 0.623 4.548 0 0.441-0.203 0.727-0.65 0.727-1.138zM17.995 15.517c0-0.175-0.113-0.324-0.302-0.399l-4.737-1.881c-0.621-0.248-1.333-0.246-1.954 2e-3l-4.707 1.879c-0.271 0.108-0.301 0.315-0.301 0.399s0.029 0.291 0.299 0.399l4.705 1.894c0.625 0.251 1.343 0.252 1.967 2e-3l4.729-1.895c0.271-0.108 0.3-0.316 0.301-0.4zM4 3C3.448 3 3 3.448 3 4s0.448 1 1 1 1-0.448 1-1-0.448-1-1-1zM7 3C6.448 3 6 3.448 6 4s0.448 1 1 1 1-0.448 1-1-0.448-1-1-1z" />
</svg>