<svg id="level_down_alt_Layer_1" viewBox="0 0 24 24" fill="currentColor" width="32" height="32" data-name="Layer 1" xmlns="http://www.w3.org/2000/svg" xmlns:xlink="http://www.w3.org/1999/xlink">
    <title>level-down-alt</title>
    <path d="M18.887 16.87c-0.225-0.537-0.723-0.87-1.3-0.87H13V4.5C13 2.019 10.981 0 8.5 0h-8C0.224 0 0 0.224 0 0.5S0.224 1 0.5 1h8C10.43 1 12 2.57 12 4.5V16H7.413c-0.577 0-1.075 0.333-1.3 0.87-0.224 0.534-0.106 1.146 0.3 1.557l5.088 5.154C11.768 23.851 12.122 24 12.5 24s0.732-0.149 0.999-0.419l5.088-5.154c0.406-0.411 0.523-1.022 0.3-1.557zM17.876 17.724l-5.088 5.154c-0.156 0.158-0.42 0.158-0.576 0l-5.088-5.154c-0.185-0.188-0.114-0.405-0.088-0.468C7.067 17.179 7.169 17 7.413 17h10.174c0.244 0 0.346 0.179 0.377 0.256 0.026 0.062 0.097 0.28-0.088 0.468z" />
</svg>