<svg id="level_down_Layer_1" viewBox="0 0 24 24" fill="currentColor" width="32" height="32" data-name="Layer 1" xmlns="http://www.w3.org/2000/svg" xmlns:xlink="http://www.w3.org/1999/xlink">
    <title>level-down</title>
    <path d="M17.856 19.085c-0.192-0.196-0.509-0.199-0.707-6e-3l-2.882 2.831c-0.188 0.188-0.475 0.448-0.773 0.715-0.148 0.131-0.317 0.223-0.494 0.285V4.5C13 2.019 10.981 0 8.5 0h-8C0.224 0 0 0.224 0 0.5S0.224 1 0.5 1h8C10.43 1 12 2.57 12 4.5v18.41c-0.177-0.062-0.345-0.155-0.493-0.285-0.301-0.267-0.587-0.528-0.777-0.718l-2.879-2.828c-0.198-0.194-0.513-0.192-0.708 6e-3-0.193 0.197-0.19 0.514 6e-3 0.707l2.876 2.825c0.198 0.198 0.5 0.474 0.818 0.756C11.315 23.791 11.907 24 12.499 24s1.185-0.209 1.657-0.627c0.317-0.282 0.62-0.559 0.814-0.753l2.879-2.828c0.197-0.193 0.199-0.51 7e-3-0.707z" />
</svg>