<svg id="license_Layer_1" viewBox="0 0 24 24" fill="currentColor" width="32" height="32" data-name="Layer 1" xmlns="http://www.w3.org/2000/svg" xmlns:xlink="http://www.w3.org/1999/xlink">
    <title>license</title>
    <path d="M20.1 5.39 16.62 1.9C15.39 0.67 13.76 0 12.02 0H6.5C4.02 0 2 2.02 2 4.5v15C2 21.98 4.02 24 6.5 24h3c0.28 0 0.5-0.22 0.5-0.5S9.78 23 9.5 23h-3C4.57 23 3 21.43 3 19.5v-15C3 2.57 4.57 1 6.5 1h5.51c0.33 0 0.66 0.03 0.99 0.09V6.5C13 7.88 14.12 9 15.5 9h5.41C20.97 9.32 21 9.65 21 9.99v9.51c0 1.25-0.67 2.41-1.75 3.03-0.24 0.14-0.32 0.44-0.18 0.68s0.45 0.32 0.68 0.18c1.39-0.8 2.25-2.3 2.25-3.9v-9.5c0-1.74-0.68-3.37-1.9-4.6zM15.5 8C14.67 8 14 7.33 14 6.5V1.37c0.71 0.27 1.35 0.69 1.9 1.24l3.48 3.49c0.55 0.55 0.97 1.2 1.24 1.9zM14.5 13c-1.93 0-3.5 1.57-3.5 3.5 0 0.95 0.38 1.82 1 2.45v3.99c0 0.43 0.26 0.82 0.66 0.99 0.13 0.05 0.27 0.08 0.41 0.08 0.28 0 0.55-0.11 0.75-0.31l0.68-0.68 0.68 0.68c0.31 0.31 0.76 0.4 1.16 0.23S17 23.38 17 22.94v-3.99c0.62-0.63 1-1.5 1-2.45 0-1.93-1.57-3.5-3.5-3.5zM14.5 14c1.38 0 2.5 1.12 2.5 2.5S15.88 19 14.5 19 12 17.88 12 16.5 13.12 14 14.5 14zM15.89 22.98 14.5 21.59l-1.39 1.39L13 22.93v-3.27c0.45 0.22 0.96 0.34 1.5 0.34s1.05-0.12 1.5-0.34v3.27z" />
</svg>