<svg id="life_Layer_1" viewBox="0 0 24 24" fill="currentColor" width="32" height="32" data-name="Layer 1" xmlns="http://www.w3.org/2000/svg" xmlns:xlink="http://www.w3.org/1999/xlink">
    <title>life</title>
    <path d="M11.002 8.663C11.296 8.887 11.648 8.999 12 8.999s0.704-0.112 0.998-0.336C14.036 7.871 17 5.084 17 2.75 17 1.233 15.767 0 14.25 0 13.321 0 12.498 0.463 12 1.17 11.502 0.462 10.679 0 9.75 0 8.233 0 7 1.233 7 2.75c0 2.334 2.964 5.121 4.002 5.913zM9.75 1c0.965 0 1.75 0.785 1.75 1.75 0 0.276 0.224 0.5 0.5 0.5s0.5-0.224 0.5-0.5C12.5 1.785 13.285 1 14.25 1S16 1.785 16 2.75c0 1.613-2.153 4.008-3.609 5.118-0.23 0.176-0.551 0.176-0.781 0-1.456-1.11-3.609-3.505-3.609-5.118C8.001 1.785 8.786 1 9.75 1zM12 12c-1.654 0-3 1.346-3 3s1.346 3 3 3 3-1.346 3-3-1.346-3-3-3zM12 17c-1.103 0-2-0.897-2-2s0.897-2 2-2 2 0.897 2 2-0.897 2-2 2zM21.854 13.854 16 19.708v3.793c0 0.276-0.224 0.5-0.5 0.5s-0.5-0.224-0.5-0.5v-3.5H9v3.5c0 0.276-0.224 0.5-0.5 0.5S8 23.777 8 23.501v-3.793l-5.854-5.854c-0.195-0.195-0.195-0.512 0-0.707s0.512-0.195 0.707 0l5.854 5.854h6.586l5.854-5.854c0.195-0.195 0.512-0.195 0.707 0s0.195 0.512 0 0.707z" />
</svg>