<svg id="lift_Layer_1" viewBox="0 0 24 24" fill="currentColor" width="32" height="32" data-name="Layer 1" xmlns="http://www.w3.org/2000/svg" xmlns:xlink="http://www.w3.org/1999/xlink">
    <title>lift</title>
    <path d="M17.103 10.187C17.307 10.681 17.785 11 18.319 11h4.363c0.534 0 1.012-0.319 1.216-0.813 0.205-0.494 0.093-1.058-0.285-1.436L21.432 6.57c-0.514-0.513-1.35-0.515-1.863 0l-2.181 2.181c-0.378 0.378-0.49 0.941-0.285 1.436zM18.095 9.458l2.181-2.181c0.123-0.124 0.326-0.124 0.449 0l2.181 2.181C23.122 9.677 23.001 10 22.682 10h-4.363c-0.318 0-0.424-0.315-0.224-0.542zM22.682 13h-4.363c-0.534 0-1.012 0.319-1.216 0.813-0.205 0.494-0.093 1.058 0.285 1.436l2.181 2.181c0.257 0.257 0.594 0.385 0.932 0.385s0.675-0.128 0.932-0.385l2.181-2.181c0.378-0.378 0.49-0.941 0.285-1.436C23.695 13.319 23.217 13 22.682 13zM22.906 14.542l-2.181 2.181c-0.123 0.124-0.326 0.124-0.449 0l-2.181-2.181C17.894 14.305 17.974 14 18.319 14h4.363c0.317 0 0.461 0.304 0.224 0.542zM18.501 19c-0.276 0-0.5 0.224-0.5 0.5 0 1.93-1.57 3.5-3.5 3.5h-4.5V1h4.5c1.93 0 3.5 1.57 3.5 3.5 0 0.276 0.224 0.5 0.5 0.5s0.5-0.224 0.5-0.5c0-2.481-2.019-4.5-4.5-4.5h-10C2.019 0 0 2.019 0 4.5v15C0 21.981 2.019 24 4.501 24h10c2.481 0 4.5-2.019 4.5-4.5 0-0.276-0.224-0.5-0.5-0.5zM1.001 19.5v-15c0-1.93 1.57-3.5 3.5-3.5h4.5v22h-4.5c-1.93 0-3.5-1.57-3.5-3.5z" />
</svg>