<svg id="lightbulb_message_Layer_1" viewBox="0 0 24 24" fill="currentColor" width="32" height="32" data-name="Layer 1" xmlns="http://www.w3.org/2000/svg" xmlns:xlink="http://www.w3.org/1999/xlink">
    <title>lightbulb-message</title>
    <path d="M9.5 10.449v7.54l0.986-3e-3h1e-3c0.275 0 0.5 0.223 0.5 0.499s-0.223 0.501-0.499 0.501l-4.593 0.012c0.063 0.379 0.104 0.763 0.104 1.153v0.348c0 1.378 1.122 2.5 2.5 2.5h1c0.616 0 1.208-0.226 1.667-0.637 0.205-0.185 0.522-0.167 0.706 0.039s0.167 0.522-0.039 0.706c-0.643 0.575-1.471 0.892-2.333 0.892h-1c-1.93 0-3.5-1.57-3.5-3.5v-0.348c0-1.707-0.718-3.321-1.969-4.431C0.77 13.719-0.33 10.724 0.09 7.709 0.645 3.736 3.944 0.52 7.936 0.062c2.566-0.295 5.138 0.513 7.051 2.219C16.902 3.989 18 6.438 18 9.001c0 0.178-5e-3 0.354-0.016 0.529-0.016 0.275-0.251 0.484-0.528 0.47-0.276-0.016-0.486-0.253-0.47-0.528C16.995 9.316 17 9.16 17 9.001c0-2.278-0.976-4.456-2.678-5.973-1.725-1.538-3.951-2.237-6.271-1.972-3.547 0.406-6.478 3.263-6.97 6.791-0.374 2.682 0.603 5.346 2.613 7.126 0.921 0.816 1.594 1.865 1.968 3.026l2.838-7e-3v-7.543C7.084 10.209 6 8.983 6 7.5 6 7.224 6.224 7 6.5 7S7 7.224 7 7.5c0 1.103 0.897 2 2 2s2-0.897 2-2C11 7.224 11.224 7 11.5 7S12 7.224 12 7.5c0 1.483-1.084 2.71-2.5 2.949zM24 14.5v8.359c0.03 0.918-1.128 1.491-1.839 0.906l-2.302-1.767h-4.358c-1.378 0-2.5-1.122-2.5-2.5v-5c-0.028-1.344 1.157-2.528 2.501-2.5h6C22.88 12 24.002 13.122 24 14.5zM23 14.5c0-0.827-0.673-1.5-1.5-1.5h-6c-0.806-0.019-1.518 0.692-1.501 1.499v5c0 0.827 0.673 1.5 1.5 1.5h4.528c0.11 0 0.217 0.036 0.304 0.104l2.437 1.87c0.059 0.044 0.114 0.033 0.15 0.015s0.079-0.054 0.079-0.127z" />
</svg>