<svg id="lightbulb_dollar_Layer_1" viewBox="0 0 24 24" fill="currentColor" width="32" height="32" data-name="Layer 1" xmlns="http://www.w3.org/2000/svg" xmlns:xlink="http://www.w3.org/1999/xlink">
    <title>lightbulb-dollar</title>
    <path d="M17.987 2.28c-1.912-1.705-4.477-2.515-7.05-2.218C6.943 0.52 3.644 3.736 3.091 7.708c-0.421 3.014 0.678 6.01 2.939 8.013C7.282 16.83 8 18.446 8 20.152V20.5c0 1.93 1.57 3.5 3.5 3.5h1c1.93 0 3.5-1.57 3.5-3.5v-0.353c0-1.686 0.752-3.309 2.118-4.571C19.949 13.882 21 11.485 21 9c0-2.563-1.098-5.012-3.013-6.72zM15 20.5c0 1.378-1.121 2.5-2.5 2.5h-1C10.121 23 9 21.878 9 20.5v-0.348c0-0.39-0.041-0.774-0.104-1.152h6.213C15.043 19.378 15 19.76 15 20.147zM17.439 14.842c-0.987 0.912-1.695 1.993-2.086 3.158H8.662c-0.374-1.161-1.047-2.21-1.969-3.027-2.01-1.78-2.986-4.444-2.612-7.126 0.491-3.528 3.422-6.384 6.969-6.792C11.373 1.018 11.694 1 12.012 1c1.968 0 3.825 0.703 5.311 2.027 1.701 1.518 2.678 3.695 2.678 5.973 0 2.24-0.909 4.315-2.562 5.842zM16 12.374C16 13.822 14.822 15 13.374 15H12.5v1.5c0 0.276-0.224 0.5-0.5 0.5s-0.5-0.224-0.5-0.5V15h-0.926c-0.979 0-1.892-0.526-2.382-1.375-0.139-0.239-0.057-0.545 0.183-0.683 0.235-0.138 0.544-0.057 0.683 0.183C9.37 13.665 9.952 14 10.575 14h2.8c0.896 0 1.626-0.729 1.626-1.626 0-0.803-0.575-1.478-1.368-1.605l-3.422-0.55c-1.28-0.206-2.21-1.296-2.21-2.593C8.001 6.178 9.179 5 10.627 5h0.874V3.5c0-0.276 0.224-0.5 0.5-0.5s0.5 0.224 0.5 0.5V5h0.926c0.979 0 1.892 0.527 2.382 1.375 0.139 0.239 0.057 0.545-0.183 0.683-0.236 0.136-0.545 0.057-0.683-0.183C14.631 6.335 14.049 6 13.426 6h-2.8C9.73 6 9 6.729 9 7.626c0 0.803 0.575 1.478 1.368 1.605l3.422 0.55C15.07 9.987 16 11.077 16 12.374z" />
</svg>