<svg id="lighthouse_Layer_1" viewBox="0 0 24 24" fill="currentColor" width="32" height="32" data-name="Layer 1" xmlns="http://www.w3.org/2000/svg" xmlns:xlink="http://www.w3.org/1999/xlink">
    <title>lighthouse</title>
    <path d="M0.053 0.776C0.177 0.53 0.477 0.429 0.724 0.552l4 2c0.247 0.124 0.347 0.424 0.224 0.671C4.86 3.398 4.683 3.499 4.501 3.499c-0.075 0-0.151-0.017-0.224-0.053L0.276 1.447C0.029 1.323-0.07 1.023 0.053 0.776zM19.5 6h4C23.776 6 24 5.776 24 5.5S23.776 5 23.5 5h-4C19.224 5 19 5.224 19 5.5S19.224 6 19.5 6zM19.5 3.5c0.075 0 0.151-0.017 0.224-0.053l4-2c0.247-0.124 0.347-0.424 0.224-0.671-0.124-0.247-0.423-0.348-0.671-0.224l-4 2c-0.247 0.124-0.347 0.424-0.224 0.671 0.088 0.175 0.265 0.276 0.447 0.277zM23.724 9.553l-4-2c-0.246-0.123-0.547-0.022-0.671 0.224-0.123 0.247-0.023 0.547 0.224 0.671l4 2c0.072 0.036 0.148 0.053 0.224 0.053 0.183 0 0.359-0.102 0.447-0.276 0.123-0.247 0.023-0.547-0.224-0.672zM18.884 19.612c0.32 1.199-0.018 2.478-0.932 3.388-0.682 0.679-1.645 1.001-2.607 1.001H13.5c-0.276 0-0.5-0.224-0.5-0.5v-2.5c0-0.552-0.448-1-1-1s-1 0.448-1 1v2.5c0 0.276-0.224 0.5-0.5 0.5H8.65c-0.963 0-1.925-0.324-2.606-1.004-0.911-0.91-1.248-2.184-0.925-3.398L7.867 8.001H7.499c-0.276 0-0.5-0.224-0.5-0.5s0.224-0.5 0.5-0.5h0.5V3.97c-0.42-0.072-0.774-0.342-0.926-0.75C6.903 2.763 7.032 2.262 7.4 1.944 7.601 1.77 7.825 1.623 8.063 1.506l2.341-1.138c1.008-0.49 2.184-0.49 3.192 0l2.338 1.139c0.235 0.113 0.459 0.26 0.663 0.436 0.369 0.32 0.497 0.821 0.327 1.277-0.152 0.408-0.506 0.678-0.925 0.75v3.031h0.5c0.276 0 0.5 0.224 0.5 0.5s-0.224 0.5-0.5 0.5h-0.368zM8.012 2.869C8.023 2.9 8.071 3 8.206 3h7.587c0.136 0 0.184-0.1 0.195-0.131 0.037-0.101-0.024-0.153-0.044-0.171-0.137-0.117-0.287-0.216-0.446-0.293l-2.339-1.14C12.796 1.089 12.398 1 12 1s-0.796 0.089-1.159 0.265L8.502 2.404C8.341 2.483 8.19 2.582 8.056 2.698 8.035 2.716 7.974 2.768 8.012 2.869zM12.5 4v3H15V4zM9 4v3h2.5V4zM10.272 20.012H6.064c-0.141 0.716 0.013 1.436 0.455 2.012 0.478 0.62 1.2 0.977 1.983 0.977H10v-2c0-0.361 0.104-0.695 0.272-0.989zM17.914 19.856 15.105 8.001h-6.21l-0.474 2h5.057c0.276 0 0.5 0.224 0.5 0.5s-0.224 0.5-0.5 0.5H8.184l-0.474 2h6.411c0.276 0 0.5 0.224 0.5 0.5s-0.224 0.5-0.5 0.5H7.5c-9e-3 0-0.017-5e-3-0.026-5e-3l-0.475 2.005h7.765c0.276 0 0.5 0.224 0.5 0.5s-0.224 0.5-0.5 0.5H6.762l-0.477 2.012h9.122c0.276 0 0.5 0.224 0.5 0.5s-0.224 0.5-0.5 0.5h-1.679C13.896 20.306 14 20.64 14 21.001v2h1.498c0.783 0 1.506-0.356 1.983-0.977s0.635-1.411 0.433-2.168zM4.276 7.553l-4 2c-0.247 0.124-0.347 0.424-0.224 0.671C0.14 10.399 0.317 10.5 0.499 10.5c0.075 0 0.151-0.017 0.224-0.053l4-2C4.97 8.323 5.07 8.023 4.947 7.776 4.823 7.529 4.523 7.428 4.276 7.553zM0.5 6h4C4.776 6 5 5.776 5 5.5S4.776 5 4.5 5h-4C0.224 5 0 5.224 0 5.5S0.224 6 0.5 6z" />
</svg>