<svg id="lightbulb_cfl_Layer_1" viewBox="0 0 24 24" fill="currentColor" width="32" height="32" data-name="Layer 1" xmlns="http://www.w3.org/2000/svg" xmlns:xlink="http://www.w3.org/1999/xlink">
    <title>lightbulb-cfl</title>
    <path d="M20 6.738c0-0.735-0.368-1.412-0.984-1.812-0.01-6e-3-0.021-9e-3-0.031-0.015C19.602 4.519 20 3.851 20 3.106c0-0.734-0.368-1.412-0.983-1.812-0.616-0.399-1.385-0.46-2.05-0.163l-3.182 1.373c0.019-0.114 0.05-0.225 0.05-0.344 0-0.734-0.368-1.412-0.983-1.812-0.617-0.401-1.387-0.458-2.048-0.164L5.28 2.543C4.502 2.889 4 3.663 4 4.515 4 5.249 4.368 5.927 4.983 6.327c0.01 7e-3 0.022 9e-3 0.033 0.015C4.399 6.734 4 7.402 4 8.147 4 8.881 4.368 9.559 4.983 9.959c0.01 7e-3 0.022 8e-3 0.032 0.015-0.617 0.392-1.016 1.06-1.016 1.805 0 0.734 0.368 1.412 0.983 1.812 6e-3 4e-3 0.012 5e-3 0.018 8e-3-0.609 0.394-1.001 1.057-1.001 1.796 0 0.734 0.368 1.412 0.983 1.812 0.01 7e-3 0.022 8e-3 0.032 0.015-0.617 0.392-1.016 1.06-1.016 1.805 0 0.734 0.368 1.412 0.983 1.812 0.356 0.231 0.765 0.349 1.174 0.349 0.298 0 0.597-0.062 0.879-0.187l1.964-0.847v1.349c0 1.378 1.121 2.5 2.5 2.5h1c1.379 0 2.5-1.122 2.5-2.5v-1.5c1.103 0 2-0.897 2-2v-1.301l1.72-0.742c0.778-0.346 1.28-1.12 1.28-1.972 0-0.734-0.368-1.412-0.983-1.812-0.01-7e-3-0.022-9e-3-0.032-0.016 0.617-0.392 1.015-1.06 1.015-1.805 0-0.734-0.368-1.412-0.983-1.812-6e-3-4e-3-0.012-5e-3-0.018-8e-3 0.608-0.393 1.001-1.056 1.003-1.797zM5.68 3.46l5.524-2.357C11.358 1.034 11.519 1 11.68 1c0.218 0 0.434 0.063 0.627 0.189 0.336 0.218 0.528 0.572 0.528 0.973 0 0.44-0.254 0.837-0.639 1.029l-5.557 2.38c0 0-5e-3 2e-3-7e-3 3e-3-0.368 0.164-0.77 0.131-1.104-0.086C5.192 5.27 5 4.916 5 4.515 5 4.058 5.27 3.642 5.68 3.46zM5.682 7.09 17.369 2.047c0.154-0.069 0.315-0.103 0.476-0.103 0.218 0 0.434 0.063 0.627 0.189C18.808 2.351 19 2.705 19 3.106c0 0.457-0.27 0.873-0.682 1.057L6.637 9.203c0 0-4e-3 1e-3-6e-3 2e-3-0.365 0.162-0.768 0.132-1.103-0.086C5.192 8.901 5 8.546 5 8.146 5 7.689 5.27 7.274 5.682 7.09zM14 21.5c0 0.827-0.673 1.5-1.5 1.5h-1c-0.827 0-1.5-0.673-1.5-1.5V20h4zM16 18c0 0.551-0.448 1-1 1h-3.333L16 17.13zM18.318 15.041 6.636 20.082c0 0-4e-3 1e-3-6e-3 2e-3-0.365 0.162-0.768 0.131-1.103-0.086-0.336-0.218-0.528-0.572-0.528-0.973 0-0.457 0.27-0.873 0.682-1.057l11.687-5.043c0.155-0.069 0.316-0.103 0.476-0.103 0.219 0 0.435 0.064 0.628 0.189C18.808 13.229 19 13.583 19 13.984c0 0.457-0.27 0.873-0.682 1.057zM18.318 11.41 6.636 16.451c0 0-4e-3 1e-3-6e-3 2e-3-0.365 0.162-0.768 0.132-1.103-0.086-0.336-0.218-0.528-0.572-0.528-0.973 0-0.457 0.27-0.873 0.682-1.057l11.688-5.043c0.154-0.069 0.315-0.103 0.476-0.103 0.218 0 0.434 0.063 0.627 0.189C18.808 9.598 19 9.953 19 10.353c0 0.457-0.27 0.872-0.682 1.057zM18.318 7.794 6.637 12.834c0 0-4e-3 1e-3-6e-3 2e-3-0.365 0.162-0.768 0.131-1.103-0.086C5.192 12.532 5 12.178 5 11.777c0-0.457 0.27-0.873 0.682-1.057L17.37 5.677c0.154-0.069 0.315-0.103 0.476-0.103 0.218 0 0.434 0.063 0.627 0.189 0.336 0.218 0.528 0.573 0.528 0.973 0 0.457-0.27 0.872-0.683 1.058z" />
</svg>