<svg id="lights_holiday_Layer_1" viewBox="0 0 24 24" fill="currentColor" width="32" height="32" data-name="Layer 1" xmlns="http://www.w3.org/2000/svg" xmlns:xlink="http://www.w3.org/1999/xlink">
    <title>lights-holiday</title>
    <path d="M10.838 14.212c-1.353 0.497-2.193 1.664-2.193 3.046 0 1.842 1.013 3.954 1.862 5.4 0.309 0.526 0.866 0.841 1.491 0.841v0c0.625 0 1.182-0.314 1.491-0.84 1.213-2.067 1.84-3.857 1.862-5.322 0.013-0.858-0.354-1.718-1.005-2.357-0.933-0.916-2.273-1.224-3.508-0.768zM12.627 22.153C12.5 22.37 12.265 22.5 11.999 22.5v0c-0.266 0-0.501-0.13-0.629-0.347-1.128-1.922-1.725-3.614-1.725-4.895 0-0.952 0.589-1.76 1.538-2.108 0.271-0.1 0.547-0.15 0.818-0.15 0.605 0 1.189 0.247 1.646 0.695s0.714 1.042 0.705 1.628c-0.02 1.271-0.616 2.942-1.725 4.83zM23.697 14.367c-0.259-0.83-0.885-1.549-1.717-1.972-0.823-0.418-1.74-0.509-2.582-0.254-0.378 0.115-0.736 0.299-1.064 0.547-1.162 0.882-1.61 2.261-1.169 3.599 0.585 1.778 2.24 3.519 3.526 4.667 0.329 0.293 0.742 0.447 1.169 0.447 0.187 0 0.375-0.029 0.562-0.089 0.593-0.191 1.024-0.657 1.156-1.247 0.524-2.358 0.564-4.275 0.119-5.698zM22.6 19.847c-0.077 0.346-0.365 0.473-0.486 0.512-0.271 0.087-0.553 0.03-0.758-0.152-1.713-1.529-2.834-2.992-3.242-4.233-0.303-0.92 0.013-1.874 0.823-2.489 0.233-0.177 0.486-0.307 0.75-0.387 0.218-0.066 0.444-0.099 0.673-0.099 0.393 0 0.792 0.097 1.166 0.288 0.593 0.301 1.036 0.804 1.216 1.378 0.386 1.235 0.336 3.028-0.142 5.182zM5.666 12.689c-0.328-0.249-0.686-0.433-1.063-0.547-0.839-0.255-1.758-0.164-2.582 0.254-0.832 0.423-1.458 1.142-1.717 1.972-0.444 1.422-0.404 3.339 0.12 5.697 0.131 0.59 0.563 1.056 1.156 1.247 0.186 0.06 0.375 0.089 0.562 0.089 0.427 0 0.84-0.154 1.169-0.447 1.286-1.147 2.941-2.889 3.526-4.667 0.44-1.338-8e-3-2.717-1.171-3.598zM5.886 15.975c-0.408 1.241-1.529 2.704-3.242 4.233-0.204 0.182-0.487 0.239-0.758 0.152-0.121-0.039-0.409-0.167-0.486-0.512-0.479-2.155-0.528-3.947-0.143-5.183 0.18-0.574 0.623-1.077 1.216-1.378 0.375-0.19 0.773-0.288 1.166-0.288 0.228 0 0.455 0.033 0.673 0.099 0.264 0.08 0.517 0.21 0.75 0.387 0.811 0.615 1.127 1.569 0.824 2.49zM0.151 2.858c-0.198-0.192-0.202-0.508-0.01-0.707C0.334 1.952 0.65 1.948 0.848 2.14 0.898 2.189 5.933 7.001 12 7.001S23.102 2.189 23.152 2.14c0.198-0.192 0.514-0.188 0.707 0.011 0.192 0.198 0.188 0.515-0.01 0.707-0.145 0.141-2.522 2.417-6.032 3.894l1.152 3.072c0.097 0.259-0.034 0.547-0.292 0.644-0.058 0.021-0.117 0.032-0.176 0.032-0.202 0-0.393-0.124-0.468-0.324l-1.148-3.062c-1.342 0.478-2.821 0.817-4.384 0.877 0 4e-3 0 7e-3 0 0.01v3.498c0 0.276-0.224 0.5-0.5 0.5s-0.5-0.224-0.5-0.5V8.001c0 0 0-7e-3 0-0.01-1.57-0.061-3.055-0.403-4.402-0.884l-1.198 3.025c-0.078 0.196-0.266 0.316-0.465 0.316-0.062 0-0.124-0.011-0.184-0.035-0.257-0.102-0.382-0.392-0.281-0.649l1.196-3.02C2.666 5.268 0.297 3 0.151 2.858z" />
</svg>