<svg id="lightbulb_head_Layer_1" viewBox="0 0 24 24" fill="currentColor" width="32" height="32" data-name="Layer 1" xmlns="http://www.w3.org/2000/svg" xmlns:xlink="http://www.w3.org/1999/xlink">
    <title>lightbulb-head</title>
    <path d="M16.008 8.987C16.639 9.457 17 10.133 17 10.841v0.658c0 0.827 0.673 1.5 1.5 1.5h1c0.827 0 1.5-0.673 1.5-1.5v-0.657c0-0.707 0.366-1.387 1.004-1.865C23.273 8.025 24 6.576 24 4.999c0-1.514-0.675-2.93-1.852-3.884-1.176-0.955-2.717-1.32-4.23-1.001-1.997 0.42-3.547 2.069-3.858 4.104-0.28 1.838 0.467 3.666 1.948 4.769zM19.5 12h-1c-0.275 0-0.5-0.224-0.5-0.5V11h2v0.5c0 0.276-0.225 0.5-0.5 0.5zM15.048 4.369c0.245-1.599 1.51-2.947 3.076-3.276 0.289-0.061 0.579-0.091 0.866-0.091 0.921 0 1.811 0.308 2.528 0.89 0.941 0.764 1.481 1.897 1.481 3.108 0 1.259-0.582 2.417-1.596 3.178-0.642 0.481-1.077 1.121-1.276 1.822h-0.628V5.929c0.86-0.224 1.5-1 1.5-1.929 0-0.276-0.224-0.5-0.5-0.5s-0.5 0.224-0.5 0.5c0 0.551-0.448 1-1 1s-1-0.449-1-1c0-0.276-0.224-0.5-0.5-0.5s-0.5 0.224-0.5 0.5c0 0.929 0.64 1.705 1.5 1.929V10h-0.626c-0.198-0.702-0.631-1.34-1.268-1.814-1.202-0.896-1.785-2.323-1.557-3.817zM23.953 11.516c-0.072 2.206-0.762 4.27-1.996 5.97C21.331 18.349 21 19.294 21 20.219v1.28c0 1.472-1.028 2.5-2.5 2.5h-8c-1.378 0-2.5-1.122-2.5-2.5v-0.5H7.013c-2.112 0-3.964-1.5-4.402-3.566l-0.516-2.434H1.546c-1.134 0-1.545-0.87-1.545-1.455 0-1.282 2.851-7.445 4.237-9.159 2.177-2.906 5.672-4.547 9.285-4.372 0.276 0.013 0.489 0.248 0.476 0.523-0.013 0.276-0.244 0.49-0.522 0.476-3.302-0.153-6.461 1.334-8.451 3.989-1.418 1.755-4.025 7.68-4.025 8.545 7e-3 0.203 0.107 0.455 0.545 0.455h0.957c0.236 0 0.438 0.165 0.487 0.396l0.6 2.83C3.931 18.834 5.371 20 7.014 20h1.487c0.276 0 0.5 0.224 0.5 0.5v1c0 0.827 0.673 1.5 1.5 1.5h8c0.692 0 1.5-0.393 1.5-1.5v-1.28c0-1.138 0.397-2.286 1.148-3.321 1.115-1.538 1.739-3.41 1.805-5.415 9e-3-0.275 0.193-0.502 0.517-0.483 0.275 9e-3 0.492 0.24 0.482 0.515z" />
</svg>