<svg id="lightbulb_slash_Layer_1" viewBox="0 0 24 24" fill="currentColor" width="32" height="32" data-name="Layer 1" xmlns="http://www.w3.org/2000/svg" xmlns:xlink="http://www.w3.org/1999/xlink">
    <title>lightbulb-slash</title>
    <path d="M16.03 19.55c-0.02 0.2-0.03 0.39-0.03 0.59v0.35c0 1.93-1.57 3.5-3.5 3.5h-1c-1.93 0-3.5-1.57-3.5-3.5v-0.35c0-1.71-0.72-3.32-1.97-4.43-2.26-2-3.36-5-2.94-8.01l0.05-0.29C3.19 7.14 3.45 6.96 3.72 7 3.99 7.05 4.17 7.31 4.13 7.58L4.09 7.84c-0.37 2.68 0.6 5.35 2.61 7.13 0.92 0.82 1.6 1.87 1.97 3.03h5.84c0.28 0 0.5 0.22 0.5 0.5s-0.22 0.5-0.5 0.5h-5.6c0.06 0.38 0.1 0.76 0.1 1.15v0.35c0 1.38 1.12 2.5 2.5 2.5h1c1.38 0 2.5-1.12 2.5-2.5v-0.35c0-0.24 0.01-0.47 0.04-0.7 0.03-0.27 0.28-0.48 0.55-0.44 0.27 0.03 0.47 0.27 0.43 0.54zM23.85 23.85c-0.1 0.1-0.23 0.15-0.35 0.15s-0.26-0.05-0.35-0.15l-23-23c-0.2-0.19-0.2-0.51 0-0.7s0.51-0.2 0.7 0l3.74 3.74c1.48-2.12 3.82-3.54 6.35-3.83 2.56-0.3 5.14 0.51 7.05 2.22S21 6.44 21 9s-1.05 4.88-2.88 6.58c-0.32 0.3-0.61 0.62-0.87 0.96l6.61 6.61c0.2 0.2 0.2 0.51-0.01 0.7zM5.32 4.61 16.54 15.83c0.27-0.35 0.57-0.68 0.9-0.98 1.65-1.53 2.56-3.6 2.56-5.84s-0.98-4.46-2.68-5.97C15.6 1.5 13.37 0.8 11.05 1.07 8.75 1.33 6.62 2.66 5.32 4.61z" />
</svg>