<svg id="lightbulb_exclamation_Layer_1" viewBox="0 0 24 24" fill="currentColor" width="32" height="32" data-name="Layer 1" xmlns="http://www.w3.org/2000/svg" xmlns:xlink="http://www.w3.org/1999/xlink">
    <title>lightbulb-exclamation</title>
    <path d="M17.987 2.28c-1.912-1.705-4.48-2.513-7.05-2.218C6.944 0.52 3.644 3.737 3.091 7.709c-0.421 3.014 0.678 6.01 2.939 8.013C7.282 16.831 8 18.447 8 20.153v0.348c0 1.93 1.57 3.5 3.5 3.5h1c1.93 0 3.5-1.57 3.5-3.5v-0.353c0-1.686 0.752-3.309 2.118-4.571C19.949 13.883 21 11.486 21 9.001c0-2.563-1.098-5.012-3.013-6.721zM15 20.5c0 1.378-1.121 2.5-2.5 2.5h-1C10.121 23 9 21.878 9 20.5v-0.348C9 19.763 8.967 19.377 8.905 19H15.1c-0.066 0.377-0.1 0.76-0.1 1.147zM17.439 14.842c-0.987 0.912-1.695 1.993-2.087 3.158h-6.69c-0.374-1.161-1.048-2.21-1.969-3.027-2.01-1.78-2.986-4.444-2.612-7.126 0.491-3.528 3.422-6.384 6.969-6.792C11.373 1.018 11.694 1 12.012 1c1.968 0 3.825 0.703 5.311 2.027 1.701 1.518 2.678 3.695 2.678 5.973 0 2.24-0.909 4.315-2.562 5.842zM11.5 11.5v-7C11.5 4.224 11.724 4 12 4s0.5 0.224 0.5 0.5v7c0 0.276-0.224 0.5-0.5 0.5s-0.5-0.224-0.5-0.5zM13 15c0 0.552-0.448 1-1 1s-1-0.448-1-1 0.448-1 1-1 1 0.448 1 1z" />
</svg>