<svg id="light_ceiling_Layer_1" viewBox="0 0 24 24" fill="currentColor" width="32" height="32" data-name="Layer 1" xmlns="http://www.w3.org/2000/svg" xmlns:xlink="http://www.w3.org/1999/xlink">
    <title>light-ceiling</title>
    <path d="M23.782 14.932c-1.651-4.726-6.343-8.189-11.282-8.41V0.5C12.5 0.224 12.276 0 12 0s-0.5 0.224-0.5 0.5v6.021c-4.939 0.222-9.631 3.684-11.282 8.411-0.415 1.188-0.237 2.456 0.488 3.478 0.718 1.011 1.84 1.59 3.08 1.59H8c0 2.206 1.794 4 4 4s4-1.794 4-4h4.214c1.24 0 2.362-0.58 3.08-1.59 0.726-1.022 0.903-2.29 0.488-3.478zM12 23c-1.654 0-3-1.346-3-3h6c0 1.654-1.346 3-3 3zM22.479 17.831C21.952 18.574 21.126 19 20.214 19H3.786c-0.912 0-1.737-0.426-2.265-1.169-0.536-0.754-0.667-1.691-0.36-2.569C2.732 10.764 7.291 7.5 12 7.5s9.268 3.264 10.839 7.762c0.307 0.878 0.176 1.814-0.36 2.569z" />
</svg>