<svg id="lightbulb_setting_Layer_1" viewBox="0 0 24 24" fill="currentColor" width="32" height="32" data-name="Layer 1" xmlns="http://www.w3.org/2000/svg" xmlns:xlink="http://www.w3.org/1999/xlink">
    <title>lightbulb-setting</title>
    <path d="M10.971 23.162c0.092 0.26-0.044 0.546-0.304 0.638C10.293 23.932 9.901 24 9.5 24h-1C6.57 24 5 22.43 5 20.5v-0.348c0-1.707-0.718-3.321-1.969-4.431C0.77 13.719-0.33 10.724 0.09 7.709 0.645 3.736 3.944 0.52 7.936 0.062c4.73-0.543 9.093 2.685 9.924 7.351 0.049 0.272-0.133 0.532-0.404 0.58-0.275 0.048-0.531-0.132-0.58-0.404-0.738-4.147-4.617-7.014-8.826-6.533C4.504 1.464 1.572 4.32 1.08 7.848c-0.374 2.682 0.603 5.346 2.613 7.126 0.921 0.816 1.595 1.865 1.969 3.027h2.837v-7.542c-1.417-0.239-2.5-1.474-2.5-2.958 0-0.276 0.224-0.5 0.5-0.5s0.5 0.224 0.5 0.5c0 1.103 0.897 2 2 2s2-0.897 2-2c0-0.276 0.224-0.5 0.5-0.5s0.5 0.224 0.5 0.5c0 1.484-1.083 2.719-2.5 2.958v8.042c0 0.276-0.224 0.5-0.5 0.5H5.904c0.063 0.378 0.095 0.763 0.095 1.152v0.348c0 1.378 1.122 2.5 2.5 2.5h1c0.287 0 0.567-0.048 0.833-0.142 0.258-0.093 0.545 0.043 0.639 0.303zM19 17c0 1.103-0.897 2-2 2s-2-0.897-2-2 0.897-2 2-2 2 0.897 2 2zM18 17c0-0.551-0.448-1-1-1s-1 0.449-1 1 0.448 1 1 1 1-0.449 1-1zM23.2 19.392c0.103 0.388 0.047 0.792-0.155 1.137-0.202 0.346-0.526 0.593-0.914 0.695-0.386 0.102-0.79 0.047-1.138-0.156l-0.641-0.374c-0.536 0.489-1.166 0.852-1.853 1.068V22.5c0 0.827-0.673 1.5-1.5 1.5s-1.5-0.673-1.5-1.5v-0.738c-0.687-0.216-1.316-0.579-1.853-1.068l-0.641 0.374c-0.347 0.203-0.75 0.258-1.138 0.156s-0.712-0.349-0.914-0.695c-0.202-0.345-0.257-0.749-0.156-1.137s0.349-0.713 0.695-0.915l0.646-0.377c-0.094-0.385-0.14-0.747-0.14-1.1s0.046-0.715 0.14-1.101l-0.646-0.377c-0.346-0.202-0.593-0.527-0.695-0.915s-0.046-0.792 0.156-1.137c0.202-0.346 0.526-0.592 0.914-0.694s0.792-0.046 1.138 0.155l0.641 0.374c0.537-0.488 1.166-0.852 1.853-1.067V11.5c0-0.827 0.673-1.5 1.5-1.5s1.5 0.673 1.5 1.5v0.738c0.687 0.216 1.315 0.579 1.853 1.067l0.642-0.374c0.347-0.202 0.751-0.256 1.137-0.155 0.388 0.102 0.712 0.349 0.914 0.695s0.258 0.75 0.155 1.137c-0.102 0.388-0.348 0.712-0.694 0.915l-0.646 0.376C21.954 16.284 22 16.647 22 17s-0.046 0.716-0.14 1.1l0.646 0.377c0.347 0.202 0.593 0.526 0.694 0.915zM22.233 19.646c-0.034-0.129-0.116-0.237-0.231-0.304l-0.979-0.572c-0.202-0.118-0.295-0.359-0.225-0.582C20.936 17.75 21 17.372 21 17.001s-0.064-0.749-0.202-1.188c-0.07-0.223 0.023-0.464 0.225-0.582l0.979-0.571c0.115-0.067 0.197-0.175 0.231-0.304s0.016-0.264-0.052-0.379c-0.067-0.115-0.176-0.198-0.305-0.231-0.133-0.035-0.265-0.015-0.379 0.051l-0.972 0.567c-0.2 0.117-0.457 0.081-0.616-0.089-0.55-0.586-1.249-0.989-2.021-1.165-0.228-0.052-0.389-0.254-0.389-0.487v-1.12c0-0.276-0.225-0.5-0.5-0.5s-0.5 0.224-0.5 0.5v1.12c0 0.233-0.161 0.436-0.389 0.487-0.772 0.176-1.472 0.579-2.021 1.165-0.159 0.17-0.417 0.206-0.616 0.089l-0.971-0.567c-0.116-0.067-0.251-0.086-0.379-0.051-0.129 0.034-0.237 0.116-0.305 0.231-0.067 0.116-0.086 0.25-0.052 0.379s0.116 0.238 0.231 0.305l0.979 0.571c0.202 0.117 0.295 0.358 0.225 0.581-0.138 0.44-0.202 0.818-0.202 1.188s0.064 0.748 0.202 1.188c0.07 0.223-0.023 0.464-0.225 0.582l-0.979 0.572c-0.115 0.067-0.198 0.176-0.231 0.305-0.034 0.129-0.016 0.263 0.052 0.378 0.067 0.116 0.176 0.198 0.305 0.232 0.13 0.034 0.264 0.016 0.379-0.052l0.972-0.567c0.078-0.046 0.165-0.068 0.252-0.068 0.135 0 0.268 0.054 0.364 0.158 0.55 0.586 1.249 0.989 2.021 1.165 0.228 0.052 0.389 0.254 0.389 0.487v1.12c0 0.276 0.225 0.5 0.5 0.5s0.5-0.224 0.5-0.5v-1.12c0-0.233 0.161-0.436 0.389-0.487 0.772-0.176 1.472-0.579 2.021-1.165 0.159-0.171 0.416-0.208 0.616-0.09l0.972 0.567c0.117 0.068 0.251 0.085 0.379 0.052 0.129-0.034 0.237-0.116 0.305-0.231 0.067-0.116 0.086-0.25 0.051-0.381z" />
</svg>