<svg id="light_emergency_on_Layer_1" viewBox="0 0 24 24" fill="currentColor" width="32" height="32" data-name="Layer 1" xmlns="http://www.w3.org/2000/svg" xmlns:xlink="http://www.w3.org/1999/xlink">
    <title>light-emergency-on</title>
    <path d="M21 19.036V13c0-4.963-4.037-9-9-9s-9 4.037-9 9v6.036C1.306 19.279 0 20.74 0 22.5 0 23.327 0.673 24 1.5 24h21c0.827 0 1.5-0.673 1.5-1.5 0-1.76-1.306-3.221-3-3.464zM4 13c0-4.411 3.589-8 8-8s8 3.589 8 8v6H4zM22.5 23h-21C1.225 23 1 22.775 1 22.5 1 21.121 2.121 20 3.5 20h17c1.379 0 2.5 1.121 2.5 2.5 0 0.275-0.225 0.5-0.5 0.5zM17.053 2.276l1-2c0.125-0.246 0.424-0.347 0.671-0.224 0.247 0.124 0.347 0.424 0.224 0.671l-1 2c-0.088 0.175-0.265 0.276-0.447 0.276-0.075 0-0.151-0.017-0.224-0.053-0.247-0.124-0.347-0.424-0.224-0.67zM21.147 5.853c-0.195-0.195-0.195-0.512 0-0.707l2-2c0.195-0.195 0.512-0.195 0.707 0s0.195 0.512 0 0.707l-2 2c-0.098 0.098-0.226 0.146-0.354 0.146s-0.256-0.049-0.353-0.146zM5.053 0.724C4.93 0.477 5.03 0.177 5.277 0.053S5.824 0.03 5.948 0.277l1 2c0.123 0.247 0.023 0.547-0.224 0.671C6.652 2.984 6.576 3.001 6.5 3.001c-0.183 0-0.359-0.102-0.447-0.276zM0.146 3.854c-0.195-0.195-0.195-0.512 0-0.707s0.512-0.195 0.707 0l2 2c0.195 0.195 0.195 0.512 0 0.707C2.755 5.952 2.627 6 2.499 6S2.243 5.951 2.145 5.854zM12 9.5c0 0.276-0.224 0.5-0.5 0.5-1.379 0-2.5 1.121-2.5 2.5 0 0.276-0.224 0.5-0.5 0.5S8 12.776 8 12.5C8 10.57 9.57 9 11.5 9 11.776 9 12 9.224 12 9.5z" />
</svg>