<svg id="limit_speedometer_Layer_1" viewBox="0 0 24 24" fill="currentColor" width="32" height="32" data-name="Layer 1" xmlns="http://www.w3.org/2000/svg" xmlns:xlink="http://www.w3.org/1999/xlink">
    <title>limit-speedometer</title>
    <path d="M14 12c0-1.103-0.897-2-2-2-0.37 0-0.712 0.108-1.01 0.283L6.853 6.146c-0.195-0.195-0.512-0.195-0.707 0s-0.195 0.512 0 0.707l4.137 4.137C10.107 11.287 10 11.63 10 12c0 1.103 0.897 2 2 2s2-0.897 2-2zM11 12c0-0.552 0.449-1 1-1s1 0.448 1 1-0.449 1-1 1-1-0.448-1-1zM8.973 18.158c0.189 0.201 0.179 0.518-0.022 0.706l-1.83 1.718c-0.507 0.439-1.134 0.656-1.755 0.656-0.674 0-1.342-0.256-1.846-0.759C1.25 18.213 0 15.201 0 12 0 8.706 1.308 5.635 3.682 3.351 6.055 1.067 9.17-0.115 12.478 9e-3 18.812 0.256 23.981 5.619 24 11.964c5e-3 1.642-0.316 3.233-0.954 4.732-0.108 0.253-0.402 0.373-0.656 0.264-0.254-0.108-0.373-0.401-0.264-0.656 0.584-1.372 0.878-2.831 0.874-4.336-0.017-5.817-4.755-10.733-10.561-10.959-3.024-0.117-5.888 0.97-8.063 3.062C2.199 6.165 1.001 8.98 1.001 12c0 2.934 1.146 5.694 3.226 7.772 0.6 0.599 1.578 0.629 2.225 0.067l1.814-1.704c0.202-0.189 0.518-0.18 0.707 0.023zM22.919 21.525c0.3 0.516 0.302 1.132 5e-3 1.648-0.297 0.518-0.831 0.826-1.427 0.826H19.5c-0.276 0-0.5-0.224-0.5-0.5s0.224-0.5 0.5-0.5h1.997c0.337 0 0.504-0.227 0.56-0.324 0.056-0.098 0.167-0.355-2e-3-0.646l-4.497-7.709c-0.237-0.406-0.877-0.406-1.116 0l-4.496 7.709c-0.17 0.291-0.058 0.549-2e-3 0.646 0.056 0.098 0.223 0.324 0.56 0.324h1.997c0.276 0 0.5 0.224 0.5 0.5s-0.224 0.5-0.5 0.5h-1.997c-0.597 0-1.13-0.309-1.427-0.826s-0.295-1.133 5e-3-1.648l4.497-7.709C15.878 13.304 16.409 13 17.001 13s1.123 0.305 1.421 0.816zM17.001 21c-0.276 0-0.5-0.224-0.5-0.5v-3c0-0.276 0.224-0.5 0.5-0.5s0.5 0.224 0.5 0.5v3c0 0.276-0.224 0.5-0.5 0.5zM18.001 23c0 0.552-0.448 1-1 1s-1-0.448-1-1 0.448-1 1-1 1 0.448 1 1z" />
</svg>