<svg id="limit_hand_Layer_1" viewBox="0 0 24 24" fill="currentColor" width="32" height="32" data-name="Layer 1" xmlns="http://www.w3.org/2000/svg" xmlns:xlink="http://www.w3.org/1999/xlink">
    <title>limit-hand</title>
    <path d="M8.5 23.551c0.055 0.02-0.055 0 0 0zM11 2.5C11 1.673 11.673 1 12.5 1S14 1.673 14 2.5v8c0 0.276 0.224 0.5 0.5 0.5s0.5-0.224 0.5-0.5v-7C15 2.673 15.673 2 16.5 2S18 2.673 18 3.5v7c0 0.276 0.224 0.5 0.5 0.5s0.5-0.224 0.5-0.5V5.607c0-0.789 0.535-1.471 1.244-1.587 0.452-0.071 0.886 0.046 1.227 0.336C21.808 4.642 22 5.059 22 5.5v11c0 0.276 0.224 0.5 0.5 0.5s0.5-0.224 0.5-0.5v-11c0-0.734-0.321-1.429-0.881-1.905s-1.304-0.679-2.035-0.561C19.679 3.1 19.313 3.278 19 3.526V3.5C19 2.121 17.879 1 16.5 1c-0.64 0-1.218 0.248-1.66 0.645C14.489 0.688 13.577 0 12.5 0 11.121 0 10 1.121 10 2.5v0.026C9.687 2.278 9.321 2.1 8.916 2.034 8.187 1.914 7.44 2.119 6.882 2.595 6.321 3.072 6 3.766 6 4.5v10.85l-1.796-1.677c-0.487-0.455-1.101-0.691-1.79-0.671-0.666 0.022-1.284 0.303-1.739 0.79-0.941 1.007-0.89 2.593 0.111 3.53l4.457 4.297c0.889 0.856 2.094 1.525 3.257 1.932 0.207 0 0.4-0.129 0.472-0.335 0.092-0.261-0.046-0.546-0.307-0.637-1.026-0.359-1.943-0.924-2.729-1.681l-4.462-4.302c-0.604-0.565-0.635-1.517-0.069-2.121 0.564-0.605 1.515-0.634 2.116-0.072l2.638 2.462c0.145 0.137 0.357 0.172 0.54 0.094C6.882 16.879 7 16.699 7 16.5v-12c0-0.44 0.192-0.857 0.529-1.144C7.87 3.066 8.303 2.95 8.756 3.02 9.465 3.136 10 3.818 10 4.607V10.5c0 0.276 0.224 0.5 0.5 0.5s0.5-0.224 0.5-0.5zM17.5 20.5v-3c0-0.276-0.224-0.5-0.5-0.5s-0.5 0.224-0.5 0.5v3c0 0.276 0.224 0.5 0.5 0.5s0.5-0.224 0.5-0.5zM22.918 21.525l-4.497-7.709C18.123 13.305 17.592 13 17 13s-1.123 0.306-1.421 0.816l-4.497 7.709c-0.301 0.516-0.303 1.132-6e-3 1.648 0.297 0.518 0.83 0.826 1.427 0.826H14.5c0.276 0 0.5-0.224 0.5-0.5s-0.224-0.5-0.5-0.5h-1.997c-0.337 0-0.504-0.227-0.56-0.324s-0.168-0.355 2e-3-0.646l4.497-7.709C16.611 14.031 16.888 14 17 14s0.389 0.031 0.558 0.32l4.497 7.709c0.17 0.291 0.058 0.55 2e-3 0.646-0.056 0.098-0.223 0.324-0.56 0.324H19.5c-0.276 0-0.5 0.224-0.5 0.5s0.224 0.5 0.5 0.5h1.997c0.597 0 1.13-0.309 1.427-0.826s0.295-1.133-6e-3-1.648zM17 22c-0.552 0-1 0.448-1 1s0.448 1 1 1 1-0.448 1-1-0.448-1-1-1z" />
</svg>