<svg id="link_alt_Layer_1" viewBox="0 0 24 24" fill="currentColor" width="32" height="32" data-name="Layer 1" xmlns="http://www.w3.org/2000/svg" xmlns:xlink="http://www.w3.org/1999/xlink">
    <title>link-alt</title>
    <path d="M15.241 8.755c0.726 0.725 1.255 1.628 1.531 2.61 0.074 0.266-0.08 0.542-0.347 0.617-0.266 0.076-0.541-0.08-0.616-0.346-0.229-0.817-0.671-1.569-1.275-2.173-0.942-0.943-2.196-1.462-3.529-1.462S8.419 8.52 7.476 9.463L2.462 14.48C1.519 15.422 1 16.676 1 18.009s0.519 2.587 1.462 3.529C3.404 22.481 4.658 23 5.991 23s2.586-0.519 3.529-1.462l2.507-2.507c0.195-0.195 0.512-0.195 0.707 0s0.195 0.512 0 0.707l-2.507 2.507C9.096 23.377 7.591 24 5.991 24s-3.105-0.623-4.236-1.755C0.623 21.114 0 19.609 0 18.009s0.623-3.104 1.755-4.236l5.014-5.018C7.9 7.623 9.405 7 11.005 7s3.105 0.623 4.236 1.755zM18.006 0c-1.601 0-3.104 0.623-4.236 1.755l-2.507 2.507c-0.195 0.195-0.195 0.512 0 0.707s0.512 0.195 0.707 0l2.507-2.507C15.419 1.519 16.673 1 18.006 1s2.586 0.519 3.528 1.462c0.942 0.942 1.462 2.196 1.462 3.529s-0.52 2.586-1.462 3.529l-5.014 5.018C15.578 15.481 14.324 16 12.991 16s-2.587-0.519-3.529-1.462c-0.604-0.604-1.045-1.355-1.275-2.173-0.075-0.267-0.352-0.423-0.617-0.346-0.266 0.075-0.421 0.351-0.346 0.617 0.277 0.983 0.806 1.885 1.531 2.61 1.131 1.132 2.636 1.755 4.236 1.755s3.104-0.623 4.236-1.755l5.014-5.018c1.132-1.131 1.755-2.636 1.755-4.236s-0.623-3.105-1.755-4.236C21.11 0.624 19.605 1e-3 18.006 0z" />
</svg>