<svg id="link_horizontal_Layer_1" viewBox="0 0 24 24" fill="currentColor" width="32" height="32" data-name="Layer 1" xmlns="http://www.w3.org/2000/svg" xmlns:xlink="http://www.w3.org/1999/xlink">
    <title>link-horizontal</title>
    <path d="M24 15.5c0 3.584-2.916 6.5-6.5 6.5h-5C8.916 22 6 19.084 6 15.5S8.916 9 12.5 9h2C14.776 9 15 9.224 15 9.5S14.776 10 14.5 10h-2C9.467 10 7 12.468 7 15.5S9.467 21 12.5 21h5c3.033 0 5.5-2.468 5.5-5.5 0-1.958-1.054-3.783-2.75-4.765-0.239-0.138-0.321-0.444-0.182-0.683 0.137-0.239 0.442-0.323 0.683-0.183 2.004 1.159 3.25 3.316 3.249 5.631zM3.75 13.265C2.053 12.284 1 10.458 1 8.5 1 5.468 3.467 3 6.5 3h5C14.533 3 17 5.468 17 8.5S14.533 14 11.5 14h-2C9.224 14 9 14.224 9 14.5S9.224 15 9.5 15h2c3.584 0 6.5-2.916 6.5-6.5S15.084 2 11.5 2h-5C2.916 2 0 4.916 0 8.5c0 2.313 1.245 4.471 3.25 5.63 0.239 0.138 0.545 0.057 0.683-0.183 0.139-0.238 0.057-0.545-0.183-0.682z" />
</svg>