<svg id="link_slash_Layer_1" viewBox="0 0 24 24" fill="currentColor" width="32" height="32" data-name="Layer 1" xmlns="http://www.w3.org/2000/svg" xmlns:xlink="http://www.w3.org/1999/xlink">
    <title>link-slash</title>
    <path d="M16.115 16.823l3e-3 2e-3 7.028 7.028c0.098 0.098 0.226 0.146 0.354 0.146s0.256-0.049 0.354-0.146c0.195-0.195 0.195-0.512 0-0.707l-6.678-6.678 4.828-4.835c2.657-2.657 2.657-6.981 0-9.638C20.717 0.709 19.006 0 17.186 0s-3.532 0.709-4.819 1.996L7.531 6.824 0.854 0.146c-0.195-0.195-0.512-0.195-0.707 0s-0.195 0.512 0 0.707L16.114 16.82zM16.469 15.761l-3.763-3.763 3.147-3.146c0.195-0.195 0.195-0.512 0-0.707s-0.512-0.195-0.707 0l-3.147 3.146L8.238 7.53l4.835-4.826C14.172 1.605 15.632 1 17.185 1s3.013 0.605 4.111 1.703c2.267 2.267 2.267 5.956 0 8.224zM5.184 9.168c0.195-0.194 0.512-0.195 0.707 0s0.195 0.512 0 0.707l-3.187 3.18c-2.267 2.267-2.267 5.956 0 8.223 1.102 1.101 2.563 1.712 4.114 1.721h0.033c1.542 0 2.988-0.598 4.076-1.685l3.197-3.205c0.195-0.196 0.512-0.195 0.707 0s0.195 0.512 0 0.707l-3.197 3.206c-1.276 1.277-2.974 1.979-4.783 1.979H6.813c-1.817-0.01-3.528-0.726-4.816-2.014-2.657-2.657-2.657-6.98 0-9.638zM10.353 13.645c0.195 0.195 0.195 0.512 0 0.708l-1.499 1.501C8.756 15.952 8.628 16 8.5 16s-0.256-0.049-0.354-0.146c-0.195-0.195-0.195-0.512 0-0.708l1.499-1.501c0.195-0.195 0.512-0.195 0.708 0z" />
</svg>