<svg id="link_slash_alt_Layer_1" viewBox="0 0 24 24" fill="currentColor" width="32" height="32" data-name="Layer 1" xmlns="http://www.w3.org/2000/svg" xmlns:xlink="http://www.w3.org/1999/xlink">
    <title>link-slash-alt</title>
    <path d="M5.514 10.014c0.195-0.195 0.512-0.195 0.707 0s0.195 0.512 0 0.707L2.466 14.48c-0.942 0.942-1.462 2.196-1.462 3.529s0.52 2.587 1.462 3.529C3.408 22.481 4.661 23 5.994 23s2.587-0.519 3.529-1.462l2.988-2.988c0.195-0.195 0.512-0.195 0.707 0s0.195 0.512 0 0.707l-2.988 2.988C9.098 23.377 7.594 24 5.994 24s-3.104-0.623-4.235-1.755c-1.132-1.131-1.755-2.636-1.755-4.236s0.623-3.104 1.755-4.236zM7.551 11.886c-0.268 0.068-0.43 0.34-0.361 0.608 0.265 1.039 0.808 1.99 1.569 2.752 1.001 1.002 2.329 1.618 3.74 1.735 0.014 0 0.027 1e-3 0.042 1e-3 0.257 0 0.476-0.198 0.497-0.458 0.023-0.275-0.182-0.517-0.457-0.54-1.175-0.097-2.281-0.61-3.115-1.445-0.635-0.635-1.087-1.427-1.308-2.292-0.067-0.267-0.335-0.431-0.607-0.361zM0.146 0.854l23 23C23.244 23.952 23.372 24 23.5 24s0.256-0.049 0.354-0.146c0.195-0.195 0.195-0.512 0-0.707l-7.316-7.316c0.243-0.18 0.479-0.372 0.693-0.586l5.015-5.018c1.132-1.131 1.755-2.636 1.755-4.236s-0.623-3.104-1.755-4.236c-2.336-2.336-6.137-2.336-8.473 0l-2.509 2.509c-0.195 0.195-0.195 0.512 0 0.707s0.512 0.195 0.707 0l2.509-2.509c1.945-1.946 5.113-1.946 7.059 0 0.942 0.942 1.462 2.196 1.462 3.529s-0.52 2.587-1.462 3.529l-5.015 5.018c-0.215 0.215-0.451 0.406-0.7 0.578L9.093 8.385c1.843-0.768 4.002-0.367 5.446 1.077 0.605 0.605 1.047 1.357 1.276 2.177 0.062 0.221 0.263 0.365 0.481 0.365 0.045 0 0.09-6e-3 0.135-0.019 0.267-0.075 0.421-0.351 0.347-0.617-0.276-0.984-0.806-1.888-1.532-2.613-1.83-1.831-4.619-2.266-6.907-1.124L0.854 0.146c-0.195-0.195-0.512-0.195-0.707 0s-0.195 0.512-1e-3 0.708z" />
</svg>