<svg id="lion_Layer_1" viewBox="0 0 24 24" fill="currentColor" width="32" height="32" data-name="Layer 1" xmlns="http://www.w3.org/2000/svg" xmlns:xlink="http://www.w3.org/1999/xlink">
    <title>lion</title>
    <path d="M23.472 5.521 22.853 4.903c-5e-3-6e-3-0.011-0.011-0.017-0.016L21.54 3.705c-0.912-2.216-3.338-3.706-6.041-3.706-3.023 0-5.593 1.116-7.236 3.143-0.281 0.347-0.336 0.812-0.146 1.213C8.306 4.752 8.698 5 9.138 5h0.915C9.116 5.99 8.498 7.375 8.498 8.654c0 1.597 0.932 3.046 1.714 3.98 0.275 0.331 0.716 0.449 1.118 0.302 0.406-0.147 0.668-0.521 0.668-0.953V11.61c1.059 1.818 2.872 4.403 5 6.122V22c0 0.552-0.449 1-1 1s-1-0.448-1-1v-2.5c0-0.276-0.224-0.5-0.5-0.5h-7c-0.276 0-0.5 0.224-0.5 0.5V22c0 0.552-0.449 1-1 1s-1-0.448-1-1v-4c-0.119-0.405-0.262-0.909-0.38-1.256-0.35-1.03-0.627-1.844-0.62-3.241C4.005 12.1 5.103 11 6.498 11c0.276 0 0.5-0.224 0.5-0.5S6.774 10 6.498 10c-0.895 0-1.694 0.334-2.307 0.873-0.244 0.052-3.044 0.789-3.592 6.213-0.353 0.155-0.601 0.505-0.601 0.915 0 0.313 0.321 1.312 0.599 1.773 0.182 0.302 0.619 0.302 0.802 0 0.278-0.462 0.599-1.46 0.599-1.773 0-0.327-0.167-0.603-0.409-0.786 0.226-2.262 0.86-3.586 1.474-4.348-0.037 0.205-0.064 0.414-0.065 0.63-8e-3 1.565 0.323 2.538 0.673 3.568 0.107 0.315 0.219 0.644 0.327 1.007V22c0 1.103 0.897 2 2 2s2-0.897 2-2v-2h6v2c0 1.103 0.897 2 2 2s2-0.897 2-2v-4.343c0.774-1.122 2.319-4.246 2.899-6.657h0.601c1.378 0 2.5-1.121 2.5-2.5V6.796c0-0.481-0.188-0.935-0.526-1.275zM17.388 16.764c-2.901-2.465-5.191-6.646-5.407-7.401-0.069-0.24-0.303-0.391-0.55-0.358C11.184 9.039 11 9.251 11 9.5l-0.019 2.494C10.306 11.185 9.5 9.95 9.5 8.654c0-1.385 1.003-3.051 2.237-3.714 0.202-0.108 0.304-0.34 0.248-0.562S11.729 4 11.5 4H9.14C9.085 4 9.045 3.975 9.021 3.926 9.007 3.895 8.99 3.835 9.04 3.773c1.45-1.788 3.744-2.772 6.459-2.772 1.886 0 3.593 0.841 4.571 2.157-0.962 0.246-1.818 0.812-2.385 1.641-0.639 0.934-0.841 2.058-0.568 3.167 0.337 1.365 1.433 2.431 2.792 2.844-0.511 2.107-1.792 4.757-2.521 5.954zM23 8.499c0 0.827-0.673 1.5-1.5 1.5h-0.362c-1.441 0-2.723-0.957-3.048-2.274-0.204-0.828-0.054-1.668 0.422-2.363 0.458-0.668 1.158-1.131 1.946-1.291l1.697 1.547 0.611 0.61c0.151 0.151 0.235 0.353 0.235 0.567z" />
</svg>