<svg id="lion_head_Layer_1" viewBox="0 0 24 24" fill="currentColor" width="32" height="32" data-name="Layer 1" xmlns="http://www.w3.org/2000/svg" xmlns:xlink="http://www.w3.org/1999/xlink">
    <title>lion-head</title>
    <path d="M15 11c0 0.552-0.448 1-1 1s-1-0.448-1-1 0.448-1 1-1 1 0.448 1 1zM10 10c-0.552 0-1 0.448-1 1s0.448 1 1 1 1-0.448 1-1-0.448-1-1-1zM18.109 6.088C18.579 6.913 19 7.738 19 8.76c0 2.01-0.711 3.663-0.97 4.198l0.207 0.827c0.233 0.933-0.072 1.903-0.797 2.534l-2.027 1.768c-0.683 0.595-1.558 0.923-2.464 0.923h-1.898c-0.906 0-1.781-0.328-2.464-0.923L6.56 16.319c-0.725-0.631-1.03-1.602-0.796-2.534l0.207-0.827c-0.259-0.535-0.97-2.188-0.97-4.198 0-1.021 0.421-1.847 0.891-2.672 0.547-0.963 1.653-1.481 2.755-1.28 0.869 0.155 2.13 0.488 3.354 1.2 1.224-0.712 2.485-1.045 3.354-1.2 1.098-0.202 2.207 0.317 2.754 1.28zM18 8.76c0-0.778-0.344-1.446-0.76-2.178-0.338-0.595-1.024-0.913-1.71-0.79-0.844 0.15-2.095 0.485-3.263 1.224-0.163 0.104-0.371 0.104-0.534 0-1.167-0.738-2.418-1.073-3.263-1.224-0.098-0.018-0.195-0.025-0.292-0.025-0.582 0-1.128 0.306-1.418 0.815C6.344 7.313 6 7.981 6 8.76c0 2.152 0.93 3.882 0.939 3.899 0.06 0.11 0.077 0.239 0.046 0.36l-0.252 1.008c-0.142 0.566 0.044 1.155 0.483 1.538l2.028 1.768c0.501 0.437 1.143 0.677 1.807 0.677h0.438l-0.034-1.555-1.248-1.248C10.074 15.074 10 14.895 10 14.707 10 14.316 10.317 14 10.707 14h2.586C13.684 14 14 14.317 14 14.707c0 0.188-0.075 0.367-0.207 0.5l-1.336 1.336 0.032 1.467h0.46c0.664 0 1.306-0.24 1.807-0.677l2.027-1.768c0.44-0.383 0.625-0.972 0.484-1.538l-0.252-1.008c-0.031-0.121-0.014-0.25 0.045-0.359 0.01-0.018 0.939-1.76 0.94-3.9zM24 12.48v1.788c0 0.479-0.272 0.896-0.71 1.088-0.304 0.134-0.631 0.134-0.922 0.017-0.594 2.184-1.096 3.609-1.289 4.026l-0.647 1.87c-0.215 0.477-0.634 0.757-1.11 0.773-0.47 0-0.914-0.233-1.141-0.651l-0.198-0.592c-1.231 0.839-3.316 2.221-4.638 2.884-0.421 0.21-0.883 0.315-1.345 0.315s-0.923-0.105-1.344-0.315c-1.321-0.663-3.403-2.042-4.634-2.881l-0.166 0.505c-0.263 0.502-0.69 0.743-1.177 0.735-0.477-0.017-0.895-0.297-1.093-0.729l-0.683-1.961c-0.177-0.374-0.677-1.797-1.271-3.979-0.289 0.117-0.618 0.117-0.922-0.017C0.272 15.164 0 14.747 0 14.268V12.48c0-1.738 0.359-3.52 1.07-5.305C0.717 7.196 0.395 7.058 0.2 6.783-0.027 6.464-0.046 6.045 0.148 5.688c0.858-1.57 3.109-3.837 6.026-5.107C8.027-0.227 10.135-0.193 12 0.662c1.864-0.856 3.973-0.889 5.826-0.081 2.94 1.279 5.186 3.571 6.029 5.159 0.19 0.359 0.167 0.779-0.061 1.097-0.197 0.272-0.513 0.421-0.844 0.388 0.697 1.77 1.05 3.532 1.05 5.255zM23 12.48c0-1.881-0.457-3.823-1.359-5.772-0.082-0.176-0.054-0.383 0.07-0.531 0.125-0.148 0.325-0.21 0.511-0.162l0.847 0.224c-0.788-1.485-3.043-3.608-5.643-4.74-1.654-0.718-3.55-0.659-5.203 0.167-0.141 0.07-0.307 0.07-0.447 0-1.652-0.826-3.548-0.885-5.203-0.167-2.58 1.122-4.744 3.198-5.547 4.668l0.777-0.159c0.185-0.036 0.376 0.031 0.494 0.178 0.117 0.148 0.142 0.35 0.062 0.521C1.457 8.656 1 10.599 1 12.479v1.788c0 0.106 0.07 0.154 0.112 0.172 0.043 0.02 0.125 0.04 0.202-0.033l0.272-0.249c0.129-0.119 0.312-0.159 0.479-0.111 0.168 0.05 0.298 0.184 0.342 0.354 0.684 2.62 1.252 4.215 1.42 4.577l0.685 1.964c0.043 0.089 0.167 0.104 0.209 0.103 0.051 0 0.156-0.016 0.219-0.131l0.337-1.056c0.049-0.15 0.166-0.269 0.315-0.318 0.052-0.018 0.106-0.026 0.16-0.026 0.1 0 0.2 0.03 0.284 0.089 1.026 0.709 3.575 2.439 5.065 3.188 0.562 0.281 1.232 0.281 1.793 0 1.49-0.748 4.039-2.479 5.065-3.188 0.129-0.091 0.293-0.113 0.444-0.062 0.149 0.05 0.267 0.168 0.315 0.318l0.373 1.14c0.03 0.039 0.143 0.061 0.192 0.046 0.046 0 0.16-0.019 0.218-0.146l0.649-1.873c0.187-0.409 0.755-2.004 1.439-4.624 0.044-0.17 0.174-0.304 0.342-0.354 0.17-0.048 0.351-8e-3 0.479 0.111l0.271 0.249c0.078 0.072 0.16 0.052 0.203 0.033 0.042-0.018 0.112-0.065 0.112-0.172z" />
</svg>