<svg id="lips_Layer_1" viewBox="0 0 24 24" fill="currentColor" width="32" height="32" data-name="Layer 1" xmlns="http://www.w3.org/2000/svg" xmlns:xlink="http://www.w3.org/1999/xlink">
    <title>lips</title>
    <path d="M23.61 10.553c-2.069-3.42-4.666-5.878-6.407-7.038 0 0 0 0 0 0-0.515-0.343-1.095-0.522-1.624-0.51-0.825 6e-3-1.53 0.284-2.04 0.803l-0.908 0.927c-0.337 0.343-0.927 0.343-1.263 0l-0.909-0.927C9.5 2.83 7.851 2.811 6.856 3.475 5.222 4.564 2.55 7.07 0.4 10.55 0.124 10.998-6e-3 11.522 1e-3 12.025c0.012 0.538 0.183 1.071 0.516 1.528C2.686 16.527 6.995 20 11.999 20s9.313-3.479 11.483-6.459c0.328-0.45 0.501-1.009 0.517-1.541 5e-3-0.492-0.123-1.007-0.389-1.447zM22.675 12.952C22.224 13.571 18.094 19 12 19S1.776 13.582 1.325 12.964c-0.064-0.088-0.102-0.186-0.147-0.281C3.006 13.08 7.708 14 12 14s8.978-0.915 10.812-1.311c-0.043 0.089-0.078 0.181-0.137 0.263zM2.831 12c2.24-0.43 5.84-1 9.169-1s6.907 0.573 9.147 1.007C18.906 12.435 15.32 13 12 13s-6.929-0.57-9.169-1zM12 10c-4.317 0-9.05 0.932-10.855 1.324 0.035-0.084 0.058-0.171 0.107-0.251 1.933-3.128 4.486-5.653 6.16-6.768 0.3-0.2 0.69-0.306 1.13-0.306 0.456 0 0.883 0.18 1.204 0.507l0.909 0.927c0.716 0.729 1.975 0.729 2.692 0l0.908-0.927c0.402-0.411 0.947-0.5 1.333-0.503 0.404 8e-3 0.717 0.113 1.062 0.343 1.651 1.1 4.122 3.443 6.105 6.723 0.052 0.086 0.078 0.18 0.114 0.271C21.08 10.943 16.368 9.999 12 10z" />
</svg>