<svg id="lira_sign_Layer_1" viewBox="0 0 24 24" fill="currentColor" width="32" height="32" data-name="Layer 1" xmlns="http://www.w3.org/2000/svg" xmlns:xlink="http://www.w3.org/1999/xlink">
    <title>lira-sign</title>
    <path d="M21.5 13c-0.276 0-0.5 0.224-0.5 0.5 0 5.238-4.262 9.5-9.5 9.5h-2C8.122 23 7 21.879 7 20.5v-7.973l7.658-2.553c0.262-0.088 0.403-0.371 0.316-0.633-0.087-0.261-0.368-0.403-0.632-0.316L7 11.472V8.527l7.658-2.553c0.262-0.088 0.403-0.371 0.316-0.633s-0.368-0.405-0.632-0.316L7 7.472V0.5C7 0.224 6.776 0 6.5 0S6 0.224 6 0.5v7.306L2.342 9.025C2.08 9.113 1.939 9.396 2.026 9.658 2.096 9.867 2.291 10 2.5 10c0.052 0 0.105-8e-3 0.158-0.025L6 8.861v2.945l-3.658 1.219c-0.262 0.088-0.403 0.371-0.316 0.633C2.096 13.867 2.291 14 2.5 14c0.052 0 0.105-8e-3 0.158-0.025L6 12.861V20.5C6 22.43 7.57 24 9.5 24h2C17.29 24 22 19.29 22 13.5c0-0.276-0.224-0.5-0.5-0.5z" />
</svg>