<svg id="list_dropdown_Layer_1" viewBox="0 0 24 24" fill="currentColor" width="32" height="32" data-name="Layer 1" xmlns="http://www.w3.org/2000/svg" xmlns:xlink="http://www.w3.org/1999/xlink">
    <title>list-dropdown</title>
    <path d="M19.5 0h-15C2.02 0 0 2.02 0 4.5v15C0 21.98 2.02 24 4.5 24h15c2.48 0 4.5-2.02 4.5-4.5v-15C24 2.02 21.98 0 19.5 0zM4.5 1h15C21.43 1 23 2.57 23 4.5V9H1V4.5C1 2.57 2.57 1 4.5 1zM19.5 23h-15C2.57 23 1 21.43 1 19.5V10h22v9.5c0 1.93-1.57 3.5-3.5 3.5zM19 18.5c0 0.28-0.22 0.5-0.5 0.5h-13C5.22 19 5 18.78 5 18.5S5.22 18 5.5 18h13c0.28 0 0.5 0.22 0.5 0.5zM19 14.5c0 0.28-0.22 0.5-0.5 0.5h-13C5.22 15 5 14.78 5 14.5S5.22 14 5.5 14h13c0.28 0 0.5 0.22 0.5 0.5zM15.61 7.4c0.25 0.25 0.58 0.37 0.9 0.37s0.64-0.12 0.88-0.36l2.45-2.25c0.36-0.36 0.47-0.91 0.28-1.38C19.92 3.3 19.46 3 18.95 3h-4.87c-0.52 0-0.98 0.31-1.17 0.78-0.2 0.48-0.09 1.02 0.29 1.4zM13.82 4.17c0 0 0.09-0.17 0.25-0.17h4.87c0.16 0 0.23 0.12 0.25 0.17s0.06 0.18-0.04 0.28L16.7 6.7c-0.1 0.1-0.26 0.12-0.4-0.02l-2.42-2.21c-0.12-0.12-0.08-0.24-0.06-0.3z" />
</svg>