<svg id="list_tree_Layer_1" viewBox="0 0 24 24" fill="currentColor" width="32" height="32" data-name="Layer 1" xmlns="http://www.w3.org/2000/svg" xmlns:xlink="http://www.w3.org/1999/xlink">
    <title>list-tree</title>
    <path d="M24 11.5c0 0.276-0.224 0.5-0.5 0.5h-5c-0.276 0-0.5-0.224-0.5-0.5s0.224-0.5 0.5-0.5h5c0.276 0 0.5 0.224 0.5 0.5zM23.5 19h-5c-0.276 0-0.5 0.224-0.5 0.5s0.224 0.5 0.5 0.5h5c0.276 0 0.5-0.224 0.5-0.5S23.776 19 23.5 19zM10.5 4h13C23.776 4 24 3.776 24 3.5S23.776 3 23.5 3h-13C10.224 3 10 3.224 10 3.5S10.224 4 10.5 4zM15 10.5v2c0 1.378-1.122 2.5-2.5 2.5h-2C9.122 15 8 13.878 8 12.5V12H4v5.5C4 18.878 5.122 20 6.5 20H8v-0.5c0-1.378 1.122-2.5 2.5-2.5h2c1.378 0 2.5 1.122 2.5 2.5v2c0 1.378-1.122 2.5-2.5 2.5h-2C9.122 24 8 22.878 8 21.5V21H6.5C4.57 21 3 19.43 3 17.5V7H2.5C1.122 7 0 5.878 0 4.5v-2C0 1.122 1.122 0 2.5 0h2C5.878 0 7 1.122 7 2.5v2C7 5.878 5.878 7 4.5 7H4v4h4v-0.5C8 9.122 9.122 8 10.5 8h2c1.378 0 2.5 1.122 2.5 2.5zM2.5 6h2C5.327 6 6 5.327 6 4.5v-2C6 1.673 5.327 1 4.5 1h-2C1.673 1 1 1.673 1 2.5v2C1 5.327 1.673 6 2.5 6zM9 21.5c0 0.827 0.673 1.5 1.5 1.5h2c0.827 0 1.5-0.673 1.5-1.5v-2c0-0.827-0.673-1.5-1.5-1.5h-2C9.673 18 9 18.673 9 19.5zM14 10.5C14 9.673 13.327 9 12.5 9h-2C9.673 9 9 9.673 9 10.5v2c0 0.827 0.673 1.5 1.5 1.5h2c0.827 0 1.5-0.673 1.5-1.5z" />
</svg>