<svg id="list_check_Layer_1" viewBox="0 0 24 24" fill="currentColor" width="32" height="32" data-name="Layer 1" xmlns="http://www.w3.org/2000/svg" xmlns:xlink="http://www.w3.org/1999/xlink">
    <title>list-check</title>
    <path d="M3.5 6C2.832 6 2.204 5.74 1.732 5.268L0.167 3.873c-0.207-0.184-0.225-0.5-0.041-0.706 0.184-0.207 0.5-0.224 0.706-0.041L2.418 4.54C3.026 5.145 3.994 5.126 4.56 4.56l3.595-3.423C8.354 0.948 8.67 0.954 8.862 1.155c0.19 0.2 0.183 0.517-0.018 0.707L5.258 5.276C4.795 5.739 4.167 6 3.5 6zM24 4.5C24 4.224 23.776 4 23.5 4h-11C12.224 4 12 4.224 12 4.5S12.224 5 12.5 5h11C23.776 5 24 4.776 24 4.5zM5.259 13.276 8.845 9.862c0.2-0.19 0.208-0.507 0.018-0.707-0.192-0.2-0.508-0.208-0.707-0.018L4.561 12.56c-0.566 0.566-1.555 0.566-2.121 0l-1.586-1.585c-0.195-0.195-0.512-0.195-0.707 0s-0.195 0.512 0 0.707l1.586 1.585c0.472 0.472 1.1 0.732 1.768 0.732s1.296-0.26 1.758-0.723zM24 12.5c0-0.276-0.224-0.5-0.5-0.5h-11c-0.276 0-0.5 0.224-0.5 0.5s0.224 0.5 0.5 0.5h11c0.276 0 0.5-0.224 0.5-0.5zM5.259 21.276l3.586-3.414c0.2-0.19 0.208-0.507 0.018-0.707-0.192-0.2-0.508-0.207-0.707-0.018L4.561 20.56c-0.566 0.566-1.534 0.586-2.142-0.02l-1.586-1.414c-0.206-0.184-0.521-0.166-0.706 0.041s-0.166 0.522 0.041 0.706l1.565 1.395C2.205 21.74 2.833 22 3.501 22s1.296-0.26 1.758-0.724zM24 20.5c0-0.276-0.224-0.5-0.5-0.5h-11c-0.276 0-0.5 0.224-0.5 0.5s0.224 0.5 0.5 0.5h11c0.276 0 0.5-0.224 0.5-0.5z" />
</svg>