<svg id="litecoin_sign_Layer_1" viewBox="0 0 24 24" fill="currentColor" width="32" height="32" data-name="Layer 1" xmlns="http://www.w3.org/2000/svg" xmlns:xlink="http://www.w3.org/1999/xlink">
    <title>litecoin-sign</title>
    <path d="M22 23.5c0 0.28-0.22 0.5-0.5 0.5h-13C6.02 24 4 21.98 4 19.5v-6.72l-3.33 1.19C0.61 13.99 0.56 14 0.5 14c-0.21 0-0.4-0.13-0.47-0.33-0.09-0.26 0.04-0.55 0.3-0.64L4 11.72V0.5C4 0.22 4.22 0 4.5 0S5 0.22 5 0.5v10.86l9.33-3.33c0.26-0.09 0.55 0.04 0.64 0.3s-0.04 0.55-0.3 0.64L5 12.42v7.08C5 21.43 6.57 23 8.5 23h13c0.28 0 0.5 0.22 0.5 0.5z" />
</svg>