<svg id="live_Layer_1" viewBox="0 0 24 24" fill="currentColor" width="32" height="32" data-name="Layer 1" xmlns="http://www.w3.org/2000/svg" xmlns:xlink="http://www.w3.org/1999/xlink">
    <title>live</title>
    <path d="M0 12c0-0.552 0.448-1 1-1s1 0.448 1 1-0.448 1-1 1-1-0.448-1-1zM4.5 8C4.224 8 4 8.224 4 8.5v6C4 15.327 4.673 16 5.5 16h2C7.776 16 8 15.776 8 15.5S7.776 15 7.5 15h-2C5.224 15 5 14.776 5 14.5v-6C5 8.224 4.776 8 4.5 8zM19.5 9h2C21.776 9 22 8.776 22 8.5S21.776 8 21.5 8h-2C18.673 8 18 8.673 18 9.5v5c0 0.827 0.673 1.5 1.5 1.5h2c0.276 0 0.5-0.224 0.5-0.5S21.776 15 21.5 15h-2c-0.275 0-0.5-0.224-0.5-0.5v-2h2.5c0.276 0 0.5-0.224 0.5-0.5s-0.224-0.5-0.5-0.5H19v-2C19 9.224 19.225 9 19.5 9zM10 15.5v-7C10 8.224 9.776 8 9.5 8S9 8.224 9 8.5v7C9 15.776 9.224 16 9.5 16s0.5-0.224 0.5-0.5zM14 16.001c0.406 0 0.762-0.261 0.883-0.649l2.095-6.704c0.082-0.263-0.064-0.544-0.328-0.626-0.268-0.083-0.544 0.064-0.627 0.328l-2.022 6.473-2.023-6.473c-0.083-0.264-0.364-0.411-0.626-0.328-0.264 0.082-0.411 0.363-0.328 0.626l2.094 6.704c0.121 0.388 0.477 0.649 0.882 0.649zM19.5 3h-15C2.019 3 0 5.019 0 7.5v1C0 8.776 0.224 9 0.5 9S1 8.776 1 8.5v-1C1 5.57 2.57 4 4.5 4h15C21.43 4 23 5.57 23 7.5v9c0 1.93-1.57 3.5-3.5 3.5h-15C2.57 20 1 18.43 1 16.5v-1C1 15.224 0.776 15 0.5 15S0 15.224 0 15.5v1C0 18.981 2.019 21 4.5 21h15c2.481 0 4.5-2.019 4.5-4.5v-9C24 5.019 21.981 3 19.5 3z" />
</svg>