<svg id="loading_Layer_1" viewBox="0 0 24 24" fill="currentColor" width="32" height="32" data-name="Layer 1" xmlns="http://www.w3.org/2000/svg" xmlns:xlink="http://www.w3.org/1999/xlink">
    <title>loading</title>
    <path d="M12.5 0.5v3C12.5 3.776 12.276 4 12 4s-0.5-0.224-0.5-0.5v-3C11.5 0.224 11.724 0 12 0s0.5 0.224 0.5 0.5zM12 20c-0.276 0-0.5 0.224-0.5 0.5v3c0 0.276 0.224 0.5 0.5 0.5s0.5-0.224 0.5-0.5v-3c0-0.276-0.224-0.5-0.5-0.5zM4 12c0-0.276-0.224-0.5-0.5-0.5h-3C0.224 11.5 0 11.724 0 12s0.224 0.5 0.5 0.5h3C3.776 12.5 4 12.276 4 12zM23.5 11.5h-3c-0.276 0-0.5 0.224-0.5 0.5s0.224 0.5 0.5 0.5h3c0.276 0 0.5-0.224 0.5-0.5s-0.224-0.5-0.5-0.5zM4.426 15.889 1.842 17.413c-0.238 0.141-0.317 0.447-0.177 0.685 0.094 0.158 0.26 0.246 0.431 0.246 0.087 0 0.174-0.022 0.254-0.069l2.584-1.524c0.238-0.141 0.317-0.447 0.177-0.685-0.142-0.239-0.447-0.316-0.685-0.177zM19.321 8.181c0.087 0 0.174-0.022 0.254-0.069l2.584-1.524c0.238-0.141 0.317-0.447 0.177-0.685-0.142-0.238-0.447-0.316-0.685-0.177L19.067 7.25c-0.238 0.141-0.317 0.447-0.177 0.685 0.094 0.158 0.26 0.246 0.431 0.246zM22.159 17.413l-2.584-1.524c-0.238-0.139-0.543-0.062-0.685 0.177-0.141 0.237-0.062 0.544 0.177 0.685l2.584 1.524c0.08 0.047 0.167 0.069 0.254 0.069 0.171 0 0.337-0.088 0.431-0.246 0.141-0.237 0.062-0.544-0.177-0.685zM4.934 7.25 2.35 5.726c-0.237-0.14-0.544-0.062-0.685 0.177C1.524 6.14 1.603 6.447 1.842 6.588l2.584 1.524c0.08 0.047 0.167 0.069 0.254 0.069 0.171 0 0.337-0.088 0.431-0.246 0.141-0.237 0.062-0.544-0.177-0.685zM6.587 1.842C6.445 1.603 6.139 1.526 5.902 1.665 5.664 1.806 5.585 2.112 5.725 2.35l1.524 2.584C7.343 5.092 7.509 5.18 7.68 5.18c0.087 0 0.174-0.022 0.254-0.069 0.238-0.141 0.317-0.447 0.177-0.685zM16.75 19.067c-0.142-0.239-0.447-0.316-0.685-0.177-0.238 0.141-0.317 0.447-0.177 0.685l1.524 2.584c0.094 0.158 0.26 0.246 0.431 0.246 0.087 0 0.174-0.022 0.254-0.069 0.238-0.141 0.317-0.447 0.177-0.685zM7.935 18.89c-0.237-0.139-0.544-0.062-0.685 0.177l-1.524 2.584c-0.141 0.237-0.062 0.544 0.177 0.685 0.08 0.047 0.167 0.069 0.254 0.069 0.171 0 0.337-0.088 0.431-0.246l1.524-2.584c0.141-0.237 0.062-0.544-0.177-0.685zM18.098 1.665c-0.237-0.139-0.543-0.062-0.685 0.177l-1.524 2.584c-0.141 0.237-0.062 0.544 0.177 0.685 0.08 0.047 0.167 0.069 0.254 0.069 0.171 0 0.337-0.088 0.431-0.246l1.524-2.584c0.141-0.237 0.062-0.544-0.177-0.685z" />
</svg>