<svg id="lobster_Layer_1" viewBox="0 0 24 24" fill="currentColor" width="32" height="32" data-name="Layer 1" xmlns="http://www.w3.org/2000/svg" xmlns:xlink="http://www.w3.org/1999/xlink">
    <title>lobster</title>
    <path d="M18.5 10c1.292 0 2.423-0.838 2.832-2.034C22.829 7.799 24 6.54 24 5c0-0.866-0.437-3.395-0.799-4.352-0.144-0.38-0.498-0.634-0.902-0.648-0.399 0.011-0.784 0.219-0.955 0.592C21.223 0.855 21.115 1.176 21 1.524c-0.115-0.348-0.223-0.669-0.344-0.931C20.485 0.219 20.12 0.013 19.701 0c-0.404 0.015-0.759 0.269-0.902 0.647C18.437 1.604 18 4.133 18 5c0 1.404 0.973 2.576 2.277 2.902C19.943 8.558 19.265 9 18.5 9H16V6.725c0-0.645-0.248-1.717-0.618-2.802C15.744 3.773 16 3.417 16 3c0-0.552-0.448-1-1-1-0.134 0-0.261 0.028-0.378 0.076-0.235-0.472-0.483-0.893-0.731-1.202-0.891-1.111-2.758-1.112-3.646 0-0.253 0.315-0.52 0.754-0.778 1.256C9.326 2.054 9.172 2 9.001 2c-0.552 0-1 0.448-1 1 0 0.439 0.287 0.801 0.681 0.936-0.399 1.075-0.681 2.141-0.681 2.789V9h-2.5C4.736 9 4.058 8.558 3.724 7.902 5.029 7.576 6.001 6.404 6.001 5c0-0.866-0.437-3.395-0.799-4.352C5.058 0.268 4.704 0.014 4.3 0 3.898 0.011 3.516 0.219 3.345 0.592 3.224 0.855 3.116 1.176 3.001 1.524 2.886 1.176 2.778 0.855 2.657 0.593 2.486 0.219 2.118 0.013 1.702 0 1.298 0.015 0.943 0.269 0.8 0.647 0.438 1.604 1e-3 4.133 1e-3 5c0 1.541 1.172 2.799 2.668 2.966C3.078 9.162 4.209 10 5.501 10h2.5v2H7.158c-1.202 0-2.333 0.468-3.183 1.318l-0.828 0.828c-0.195 0.195-0.195 0.512 0 0.707s0.512 0.195 0.707 0l0.828-0.828C5.343 13.364 6.222 13 7.158 13h0.843v2H7.743c-0.921 0-1.823 0.374-2.475 1.025l-1.121 1.121c-0.195 0.195-0.195 0.512 0 0.707s0.512 0.195 0.707 0l1.121-1.121C6.441 16.266 7.084 16 7.743 16h0.258v2.858l-1.514 1.667c-0.676 0.676-0.643 1.583 0.086 2.312 1.097 1.098 3.506 1.874 5.428 0.319 0.776 0.628 1.632 0.876 2.448 0.876 1.205 0 2.325-0.541 2.979-1.195 0.729-0.729 0.762-1.636 0.103-2.294l-1.53-1.685V16h0.258c0.658 0 1.302 0.267 1.768 0.732l1.121 1.121c0.098 0.098 0.226 0.146 0.354 0.146s0.256-0.049 0.354-0.146c0.195-0.195 0.195-0.512 0-0.707l-1.121-1.121C18.084 15.374 17.181 15 16.26 15h-0.258v-2h0.843c0.936 0 1.814 0.364 2.476 1.025l0.828 0.828c0.098 0.098 0.226 0.146 0.354 0.146s0.256-0.049 0.354-0.146c0.195-0.195 0.195-0.512 0-0.707l-0.828-0.828C19.179 12.467 18.049 12 16.846 12h-0.843v-2zM19 5c0-0.765 0.417-3.162 0.748-3.99 0.108 0.235 0.203 0.525 0.306 0.838 0.135 0.406 0.287 0.868 0.494 1.308 0.164 0.35 0.74 0.35 0.904 0 0.207-0.439 0.359-0.901 0.494-1.308 0.103-0.312 0.197-0.603 0.316-0.852l3e-3 6e-3v0C22.582 1.838 22.999 4.235 22.999 5c0 1.103-0.897 2-2 2s-2-0.897-1.999-2zM1 5c0-0.765 0.417-3.162 0.748-3.99 0.108 0.235 0.203 0.525 0.306 0.838 0.135 0.406 0.287 0.868 0.494 1.308 0.164 0.35 0.74 0.35 0.904 0 0.207-0.439 0.359-0.901 0.494-1.308 0.103-0.312 0.197-0.603 0.316-0.852l3e-3 6e-3v0C4.582 1.838 4.999 4.235 4.999 5c0 1.103-0.897 2-2 2S0.999 6.103 1 5zM9 6.725c0-1.066 1.086-4.055 2.024-5.226 0.509-0.636 1.577-0.634 2.086 0C13.422 1.889 15 5.011 15 6.725V9H9zM16.721 22.13c-0.685 0.685-2.731 1.634-4.367 0-0.098-0.098-0.226-0.146-0.354-0.146s-0.256 0.049-0.354 0.146c-1.635 1.636-3.683 0.686-4.367 0-0.491-0.492-0.207-0.776-0.069-0.915L9.222 19h5.557l2.028 2.232c0.121 0.121 0.405 0.405-0.086 0.898zM15 18H9v-2h6zM15 15H9v-2h6zM15 12H9v-2h6z" />
</svg>