<svg id="location_arrow_Layer_1" viewBox="0 0 24 24" fill="currentColor" width="32" height="32" data-name="Layer 1" xmlns="http://www.w3.org/2000/svg" xmlns:xlink="http://www.w3.org/1999/xlink">
    <title>location-arrow</title>
    <path d="M22.968 1.035c-0.986-0.988-2.411-1.297-3.742-0.793L2.154 7.789C0.423 8.44-0.11 10.055 0.128 11.365 0.366 12.677 1.436 14 3.285 14h6.71l-0.068 6.788c0 1.849 1.322 2.917 2.634 3.156 0.195 0.036 0.397 0.055 0.603 0.055 1.169 0 2.42-0.603 2.966-2.052l7.639-17.199c0.492-1.305 0.186-2.728-0.801-3.713zM22.843 4.368 15.204 21.567c-0.479 1.273-1.63 1.547-2.464 1.394-0.837-0.152-1.813-0.813-1.813-2.168L11 13.505c0-0.134-0.051-0.262-0.145-0.356s-0.222-0.148-0.355-0.148H3.285c-1.36 0-2.021-0.977-2.174-1.813-0.151-0.836 0.122-1.982 1.421-2.473l17.072-7.548c0.294-0.11 0.597-0.164 0.895-0.164 0.649 0 1.279 0.255 1.763 0.738 0.704 0.705 0.923 1.722 0.581 2.627z" />
</svg>