<svg id="location_crosshairs_slash_Layer_1" viewBox="0 0 24 24" fill="currentColor" width="32" height="32" data-name="Layer 1" xmlns="http://www.w3.org/2000/svg" xmlns:xlink="http://www.w3.org/1999/xlink">
    <title>location-crosshairs-slash</title>
    <path d="M16.694 20.276c0.124 0.247 0.023 0.547-0.224 0.671-1.247 0.624-2.581 0.973-3.971 1.04v1.512c0 0.276-0.224 0.5-0.5 0.5s-0.5-0.224-0.5-0.5v-1.513c-5.117-0.253-9.234-4.371-9.487-9.487H0.5c-0.276 0-0.5-0.224-0.5-0.5s0.224-0.5 0.5-0.5h1.513c0.074-1.481 0.478-2.936 1.178-4.237 0.131-0.244 0.434-0.333 0.678-0.203 0.243 0.131 0.334 0.435 0.203 0.678C3.371 9.039 3 10.512 3 12c0 4.963 4.038 9 9 9 1.414 0 2.767-0.318 4.023-0.947 0.247-0.124 0.547-0.022 0.671 0.223zM7.582 11.003c-0.281-0.029-0.521 0.168-0.552 0.442C7.01 11.627 7 11.812 7 12c0 2.757 2.243 5 5 5 0.187 0 0.372-0.011 0.553-0.03 0.274-0.029 0.473-0.275 0.444-0.551-0.029-0.273-0.268-0.473-0.55-0.443C12.301 15.992 12.151 16 12 16c-2.206 0-4-1.794-4-4 0-0.15 8e-3-0.299 0.024-0.445 0.03-0.274-0.168-0.521-0.442-0.552zM23.853 23.147c0.195 0.195 0.195 0.512 0 0.707C23.755 23.952 23.627 24 23.499 24s-0.256-0.049-0.354-0.146l-22.999-23c-0.195-0.196-0.195-0.512 0-0.708s0.512-0.195 0.708 0l4.438 4.439c1.718-1.556 3.9-2.458 6.208-2.572V0.5C11.5 0.224 11.724 0 12 0s0.5 0.224 0.5 0.5v1.513c5.117 0.253 9.234 4.371 9.487 9.487H23.5c0.276 0 0.5 0.224 0.5 0.5s-0.224 0.5-0.5 0.5h-1.513c-0.114 2.308-1.016 4.49-2.572 6.208zM5.999 5.292 8.836 8.129C9.727 7.399 10.842 7 12 7c2.757 0 5 2.243 5 5 0 1.158-0.399 2.273-1.128 3.165l2.836 2.836C20.188 16.349 21 14.226 21 12c0-4.963-4.038-9-9-9-2.227 0-4.349 0.812-6.001 2.292zM15.16 14.453C15.704 13.754 16 12.893 16 12c0-2.206-1.794-4-4-4-0.893 0-1.753 0.297-2.453 0.84z" />
</svg>