<svg id="location_alt_Layer_1" viewBox="0 0 24 24" fill="currentColor" width="32" height="32" data-name="Layer 1" xmlns="http://www.w3.org/2000/svg" xmlns:xlink="http://www.w3.org/1999/xlink">
    <title>location-alt</title>
    <path d="M12 15.999c0.422 0 0.845-0.097 1.229-0.289l2.25-1.125c0.938-0.47 1.521-1.412 1.521-2.46V8.787c0-1.048-0.583-1.99-1.521-2.46l-2.25-1.125c-0.77-0.385-1.689-0.385-2.459 0L8.52 6.327c-0.938 0.47-1.521 1.412-1.521 2.46v3.338c0 1.048 0.583 1.99 1.521 2.46l2.25 1.125c0.385 0.192 0.808 0.289 1.23 0.289zM11.218 6.097C11.463 5.975 11.732 5.913 12 5.913s0.537 0.062 0.782 0.184l2.25 1.125c0.135 0.068 0.259 0.151 0.369 0.247l-2.76 1.38c-0.402 0.201-0.881 0.201-1.283 0l-2.76-1.38c0.11-0.096 0.234-0.179 0.369-0.247zM8 12.125V8.787c0-0.161 0.022-0.318 0.063-0.468l2.848 1.424c0.341 0.17 0.715 0.256 1.089 0.256s0.748-0.086 1.089-0.256l2.848-1.424C15.978 8.469 16 8.626 16 8.787v3.338c0 0.667-0.371 1.267-0.968 1.565l-2.25 1.125c-0.49 0.244-1.074 0.244-1.564 0l-2.25-1.125C8.371 13.391 8 12.792 8 12.125zM19.5 23h-4.443c0.192-0.142 0.376-0.297 0.549-0.467l4.171-3.949c4.308-4.308 4.308-11.055 0-15.362C17.7 1.145 14.937 0 12 0S6.299 1.145 4.222 3.222c-4.308 4.307-4.308 11.054 9e-3 15.372l4.156 3.934c0.176 0.172 0.362 0.329 0.556 0.473H4.499c-0.276 0-0.5 0.224-0.5 0.5s0.224 0.5 0.5 0.5h15c0.276 0 0.5-0.224 0.5-0.5S19.775 23.001 19.5 23zM4.929 17.877c-3.911-3.911-3.911-10.037 0-13.948C6.818 2.04 9.329 1 12 1s5.182 1.04 7.07 2.929c3.911 3.911 3.911 10.037 0.01 13.938l-4.167 3.945c-1.564 1.531-4.256 1.537-5.832-6e-3z" />
</svg>