<svg id="lock_hashtag_Layer_1" viewBox="0 0 24 24" fill="currentColor" width="32" height="32" data-name="Layer 1" xmlns="http://www.w3.org/2000/svg" xmlns:xlink="http://www.w3.org/1999/xlink">
    <title>lock-hashtag</title>
    <path d="M10.5 23h-6C2.57 23 1 21.43 1 19.5v-7C1 10.57 2.57 9 4.5 9h10c1.93 0 3.5 1.57 3.5 3.5 0 0.276 0.224 0.5 0.5 0.5s0.5-0.224 0.5-0.5c0-1.953-1.258-3.602-3-4.224V6.5C16 2.916 13.084 0 9.5 0S3 2.916 3 6.5v1.776C1.258 8.897 0 10.547 0 12.5v7C0 21.981 2.019 24 4.5 24h6c0.276 0 0.5-0.224 0.5-0.5S10.776 23 10.5 23zM4 6.5C4 3.467 6.467 1 9.5 1S15 3.467 15 6.5v1.551C14.834 8.032 14.671 8 14.5 8h-10C4.329 8 4.166 8.032 4 8.051zM9.5 15c0.276 0 0.5 0.224 0.5 0.5v2c0 0.276-0.224 0.5-0.5 0.5S9 17.776 9 17.5v-2C9 15.224 9.224 15 9.5 15zM23.5 16h-1.879l0.182-1.45c0.035-0.274-0.16-0.524-0.434-0.559-0.281-0.032-0.524 0.16-0.559 0.434L20.612 16h-4.171l0.183-1.45c0.035-0.274-0.16-0.524-0.434-0.559-0.284-0.032-0.524 0.16-0.559 0.434L15.433 16h-1.934c-0.276 0-0.5 0.224-0.5 0.5s0.224 0.5 0.5 0.5h1.808l-0.504 4h-1.804c-0.276 0-0.5 0.224-0.5 0.5s0.224 0.5 0.5 0.5h1.679l-0.181 1.438c-0.035 0.274 0.16 0.524 0.434 0.559 0.021 2e-3 0.042 4e-3 0.063 4e-3 0.249 0 0.464-0.185 0.496-0.438l0.197-1.562h4.172l-0.181 1.438c-0.035 0.274 0.16 0.524 0.434 0.559 0.021 2e-3 0.042 4e-3 0.063 4e-3 0.249 0 0.464-0.185 0.496-0.438l0.197-1.562h2.134c0.276 0 0.5-0.224 0.5-0.5s-0.224-0.5-0.5-0.5h-2.008l0.503-4h2.005c0.276 0 0.5-0.224 0.5-0.5S23.778 16.002 23.5 16zM19.984 21h-4.172l0.504-4h4.171z" />
</svg>