<svg id="lock_open_alt_Layer_1" viewBox="0 0 24 24" fill="currentColor" width="32" height="32" data-name="Layer 1" xmlns="http://www.w3.org/2000/svg" xmlns:xlink="http://www.w3.org/1999/xlink">
    <title>lock-open-alt</title>
    <path d="M9 15.5v2C9 17.776 8.776 18 8.5 18S8 17.776 8 17.5v-2C8 15.224 8.224 15 8.5 15S9 15.224 9 15.5zM23.992 5.492c0 0.276-0.224 0.5-0.5 0.5s-0.5-0.224-0.5-0.5C22.992 3.015 20.977 1 18.5 1S14 3.016 14 5.492v3.765c1.746 0.619 3 2.287 3 4.243v6c0 2.481-2.019 4.5-4.5 4.5h-8C2.019 24 0 21.981 0 19.5v-6C0 11.019 2.019 9 4.5 9h8c0.169 0 0.336 0.01 0.5 0.028V5.492C13 2.464 15.464 0 18.492 0s5.5 2.464 5.5 5.492zM12.5 10h-8C2.57 10 1 11.57 1 13.5v6C1 21.43 2.57 23 4.5 23h8c1.93 0 3.5-1.57 3.5-3.5v-6c0-1.93-1.57-3.5-3.5-3.5z" />
</svg>