<svg id="locust_Layer_1" viewBox="0 0 24 24" fill="currentColor" width="32" height="32" data-name="Layer 1" xmlns="http://www.w3.org/2000/svg" xmlns:xlink="http://www.w3.org/1999/xlink">
    <title>locust</title>
    <path d="M20.585 13.769C21.919 13.263 24 11.648 24 6.5 24 6.224 23.776 6 23.5 6S23 6.224 23 6.5c0 6.366-3.361 6.498-3.5 6.5h-4.238L10.505 2.879C10.216 2.27 9.604 1.926 8.927 2.012c-0.67 0.083-1.188 0.563-1.32 1.226l-1.94 9.763H2.806l1.992-9.648c0.047-0.235 0.196-0.341 0.313-0.39 0.256-0.105 0.377-0.397 0.271-0.653C5.278 2.055 4.986 1.935 4.73 2.038 4.252 2.235 3.919 2.643 3.818 3.154L1.785 13H1.491c-0.455 0-0.884 0.202-1.174 0.555-0.278 0.337-0.391 0.772-0.309 1.192 0.17 0.876 0.514 1.683 0.992 2.388L9e-3 22.408c-0.051 0.271 0.127 0.533 0.398 0.583C0.438 22.997 0.469 23 0.501 23c0.235 0 0.445-0.167 0.49-0.408l0.839-4.461c0.704 0.692 1.562 1.221 2.512 1.537l-0.543 2.734c-0.054 0.271 0.122 0.534 0.393 0.588C4.225 22.997 4.257 23 4.291 23c0.233 0 0.442-0.165 0.489-0.402l0.534-2.688C5.665 19.969 6.025 20 6.39 20h11.078l1.292 2.715C18.845 22.895 19.025 23 19.211 23c0.072 0 0.146-0.016 0.215-0.048 0.249-0.119 0.355-0.417 0.236-0.667L18.574 20h3.925c1.101 0 1.5-0.897 1.5-1.5 0-2.042-1.519-3.782-3.414-4.731zM15.285 13.049l-7e-3-0.014c0.013 4e-3 0.018 9e-3 7e-3 0.014zM4.538 18.679c-1.786-0.64-3.17-2.18-3.547-4.122-0.034-0.173 0.047-0.303 0.098-0.365 0.099-0.12 0.249-0.191 0.402-0.191h3.977zM22.499 19H6.39c-0.299 0-0.594-0.025-0.881-0.071L6.488 14h5.013c0.276 0 0.5-0.224 0.5-0.5s-0.224-0.5-0.5-0.5H6.687l1.901-9.567C8.659 3.079 8.959 3.016 9.05 3.004 9.138 2.993 9.446 2.98 9.602 3.306l6.303 13.407c0.117 0.25 0.414 0.357 0.665 0.24 0.25-0.118 0.357-0.416 0.239-0.666L15.734 14h1.767c2.491 0 5.5 2.007 5.5 4.494C22.995 18.725 22.903 19 22.499 19z" />
</svg>