<svg id="login_Layer_1" viewBox="0 0 24 24" fill="currentColor" width="32" height="32" data-name="Layer 1" xmlns="http://www.w3.org/2000/svg" xmlns:xlink="http://www.w3.org/1999/xlink">
    <title>login</title>
    <path d="M23.854 23.146l-4.703-4.708 3.203-3.203c0.121-0.121 0.172-0.295 0.135-0.462s-0.157-0.303-0.317-0.361l-9.131-3.321c-0.562-0.2-1.173-0.063-1.591 0.354-0.42 0.42-0.555 1.029-0.352 1.589l3.321 9.131c0.059 0.161 0.194 0.28 0.361 0.317 0.165 0.037 0.341-0.013 0.462-0.135l3.202-3.202 4.703 4.708c0.195 0.195 0.512 0.195 0.707 0s0.195-0.512 0-0.707zM15.089 21.085l-3.052-8.393c-0.072-0.199-0.03-0.392 0.119-0.541 0.15-0.15 0.351-0.192 0.544-0.121l8.392 3.052-3.001 3.001c0 0 0 0 0 0zM7 7c0 1.654 1.346 3 3 3s3-1.346 3-3-1.346-3-3-3-3 1.346-3 3zM12 7c0 1.103-0.897 2-2 2S8 8.103 8 7s0.897-2 2-2 2 0.897 2 2zM11.497 19.396c0.029 0.274-0.17 0.521-0.445 0.549C10.706 19.982 10.355 20 10 20 4.486 20 0 15.514 0 10S4.486 0 10 0 20 4.486 20 10c0 0.176-4e-3 0.352-0.014 0.526-0.015 0.276-0.254 0.489-0.525 0.473-0.276-0.015-0.487-0.25-0.473-0.526C18.996 10.316 19 10.158 19 9.999 19 5.038 14.963 1 10 1s-9 4.038-9 9c0 2.721 1.219 5.159 3.133 6.81 0.443-2.171 2.068-3.972 4.23-4.584 0.264-0.077 0.542 0.079 0.617 0.345s-0.079 0.542-0.345 0.617c-1.962 0.555-3.404 2.283-3.607 4.308C6.454 18.445 8.162 19 9.999 19c0.32 0 0.636-0.017 0.948-0.049 0.27-0.033 0.521 0.17 0.55 0.445z" />
</svg>