<svg id="login_lock_Layer_1" viewBox="0 0 24 24" fill="currentColor" width="32" height="32" data-name="Layer 1" xmlns="http://www.w3.org/2000/svg" xmlns:xlink="http://www.w3.org/1999/xlink">
    <title>login-lock</title>
    <path d="M3 15.5C3 13.57 4.57 12 6.5 12s3.5 1.57 3.5 3.5c0 0.276-0.224 0.5-0.5 0.5S9 15.776 9 15.5C9 14.122 7.879 13 6.5 13S4 14.122 4 15.5C4 15.776 3.776 16 3.5 16S3 15.776 3 15.5zM4 8.5C4 7.122 5.121 6 6.5 6S9 7.122 9 8.5 7.879 11 6.5 11 4 9.878 4 8.5zM5 8.5C5 9.327 5.673 10 6.5 10S8 9.327 8 8.5 7.327 7 6.5 7 5 7.673 5 8.5zM23.5 15c-0.276 0-0.5 0.224-0.5 0.5 0 1.93-1.57 3.5-3.5 3.5h-15C2.57 19 1 17.43 1 15.5v-9C1 4.57 2.57 3 4.5 3h8C12.776 3 13 2.776 13 2.5S12.776 2 12.5 2h-8C2.019 2 0 4.019 0 6.5v9C0 17.981 2.019 20 4.5 20h7v3h-5C6.224 23 6 23.224 6 23.5S6.224 24 6.5 24h11c0.276 0 0.5-0.224 0.5-0.5S17.776 23 17.5 23h-5v-3h7c2.481 0 4.5-2.019 4.5-4.5 0-0.276-0.224-0.5-0.5-0.5zM24 8.5v2c0 1.93-1.57 3.5-3.5 3.5h-4c-1.93 0-3.5-1.57-3.5-3.5v-2c0-1.391 0.822-2.585 2-3.149V3.5C15 1.57 16.57 0 18.5 0S22 1.57 22 3.5v1.851c1.178 0.564 2 1.758 2 3.149zM16 5.051C16.165 5.027 16.329 5 16.5 5h4c0.171 0 0.335 0.027 0.5 0.051V3.5C21 2.122 19.879 1 18.5 1S16 2.122 16 3.5zM23 8.5C23 7.122 21.879 6 20.5 6h-4C15.121 6 14 7.122 14 8.5v2c0 1.378 1.121 2.5 2.5 2.5h4c1.379 0 2.5-1.122 2.5-2.5zM18.5 8.5c-0.552 0-1 0.448-1 1s0.448 1 1 1 1-0.448 1-1-0.448-1-1-1z" />
</svg>