<svg id="logo_Layer_1" viewBox="0 0 24 24" fill="currentColor" width="32" height="32" data-name="Layer 1" xmlns="http://www.w3.org/2000/svg" xmlns:xlink="http://www.w3.org/1999/xlink">
    <title>logo</title>
    <path d="M11 14.5v-5C11 8.673 10.327 8 9.5 8S8 8.673 8 9.5v5C8 15.327 8.673 16 9.5 16s1.5-0.673 1.5-1.5zM9 14.5v-5C9 9.224 9.225 9 9.5 9S10 9.224 10 9.5v5c0 0.276-0.225 0.5-0.5 0.5S9 14.776 9 14.5zM12 14.5v-5C12 8.673 12.673 8 13.5 8S15 8.673 15 9.5V10c0 0.276-0.224 0.5-0.5 0.5S14 10.276 14 10V9.5C14 9.224 13.775 9 13.5 9S13 9.224 13 9.5v5c0 0.276 0.225 0.5 0.5 0.5s0.5-0.224 0.5-0.5V13c-0.276 0-0.5-0.224-0.5-0.5S13.724 12 14 12c0.484 0 1 0.351 1 1v1.5c0 0.827-0.673 1.5-1.5 1.5S12 15.327 12 14.5zM17.5 16c0.827 0 1.5-0.673 1.5-1.5v-5C19 8.673 18.327 8 17.5 8S16 8.673 16 9.5v5c0 0.827 0.673 1.5 1.5 1.5zM17 9.5C17 9.224 17.225 9 17.5 9S18 9.224 18 9.5v5c0 0.276-0.225 0.5-0.5 0.5S17 14.776 17 14.5zM7.5 15.5C7.5 15.776 7.276 16 7 16H6c-0.552 0-1-0.449-1-1V8.5C5 8.224 5.224 8 5.5 8S6 8.224 6 8.5V15h1c0.276 0 0.5 0.224 0.5 0.5zM23.5 21.5h-7.051c3.59-1.699 6.051-5.375 6.051-9.5s-2.461-7.801-6.051-9.5H23.5C23.776 2.5 24 2.276 24 2s-0.224-0.5-0.5-0.5h-9.571C13.705 0.64 12.929 0 12 0s-1.705 0.64-1.929 1.5H0.5C0.224 1.5 0 1.724 0 2s0.224 0.5 0.5 0.5h7.051C3.961 4.199 1.5 7.875 1.5 12s2.461 7.801 6.051 9.5H0.5C0.224 21.5 0 21.724 0 22s0.224 0.5 0.5 0.5h9.571c0.224 0.86 1 1.5 1.929 1.5s1.705-0.64 1.929-1.5H23.5c0.276 0 0.5-0.224 0.5-0.5s-0.224-0.5-0.5-0.5zM12 1c0.552 0 1 0.449 1 1s-0.448 1-1 1-1-0.449-1-1 0.448-1 1-1zM2.5 12c0-4.511 3.253-8.428 7.631-9.306C10.415 3.454 11.142 4 12 4s1.585-0.546 1.869-1.306C18.248 3.572 21.5 7.489 21.5 12s-3.253 8.428-7.631 9.306C13.585 20.546 12.858 20 12 20s-1.585 0.546-1.869 1.306C5.752 20.428 2.5 16.511 2.5 12zM12 23c-0.552 0-1-0.449-1-1s0.448-1 1-1 1 0.449 1 1-0.448 1-1 1z" />
</svg>