<svg id="longboard_Layer_1" viewBox="0 0 24 24" fill="currentColor" width="32" height="32" data-name="Layer 1" xmlns="http://www.w3.org/2000/svg" xmlns:xlink="http://www.w3.org/1999/xlink">
    <title>longboard</title>
    <path d="M22.168 9.961C23.812 7.303 24 5.083 24 2.889 24 1.296 22.704 0 21.11 0c-2.195 0-4.414 0.188-7.072 1.832L13.56 1.354c-0.584-0.585-1.537-0.585-2.121 0L9.853 2.94c-0.585 0.585-0.585 1.536 0 2.121l0.153 0.153c-1.438 1.464-2.782 2.987-4.06 4.564C5.358 9.29 4.489 9.302 3.939 9.854L2.353 11.44c-0.585 0.585-0.585 1.536 0 2.121l0.43 0.43c-0.785 1.152-1.542 2.336-2.269 3.561-0.854 1.439-0.63 3.266 0.548 4.442l0.943 0.944c1.184 1.184 3.018 1.396 4.442 0.549 1.225-0.727 2.409-1.484 3.561-2.27l0.43 0.43c0.584 0.585 1.537 0.585 2.121 0l1.586-1.586c0.551-0.551 0.564-1.419 0.075-2.007 1.576-1.277 3.1-2.621 4.565-4.059l0.153 0.153c0.584 0.585 1.537 0.585 2.121 0l1.586-1.586c0.585-0.585 0.585-1.536 0-2.121zM10.561 3.646 12.147 2.06c0.195-0.195 0.512-0.195 0.707 0l0.338 0.338c-0.786 0.56-1.611 1.251-2.485 2.101l-0.146-0.146c-0.195-0.195-0.195-0.512 0-0.707zM3.061 12.854c-0.195-0.195-0.195-0.512 0-0.707l1.586-1.586c0.185-0.185 0.475-0.189 0.672-0.023-0.671 0.855-1.31 1.74-1.94 2.634zM5.939 22.626c-1.047 0.62-2.372 0.458-3.226-0.396L1.77 21.286c-0.854-0.853-1.017-2.179-0.396-3.225 2.781-4.685 5.972-8.8 9.753-12.581C15.271 1.337 18.1 1 21.11 1 22.152 1 23 1.848 23 2.889c0 3.011-0.337 5.84-4.48 9.984-3.785 3.784-7.9 6.974-12.581 9.753zM13.44 19.354 11.854 20.94c-0.195 0.195-0.512 0.195-0.707 0l-0.318-0.318c0.894-0.63 1.779-1.27 2.634-1.94 0.165 0.196 0.162 0.488-0.023 0.672zM21.94 11.854 20.354 13.44c-0.195 0.195-0.512 0.195-0.707 0l-0.145-0.145c0.849-0.874 1.541-1.7 2.101-2.485l0.337 0.337c0.195 0.195 0.195 0.512 0 0.707z" />
</svg>