<svg id="loveseat_Layer_1" viewBox="0 0 24 24" fill="currentColor" width="32" height="32" data-name="Layer 1" xmlns="http://www.w3.org/2000/svg" xmlns:xlink="http://www.w3.org/1999/xlink">
    <title>loveseat</title>
    <path d="M22 9.05V6.5C22 3.467 19.532 1 16.5 1h-9C4.468 1 2 3.467 2 6.5v2.55c-1.14 0.232-2 1.242-2 2.45v5c0 1.557 0.795 2.932 2 3.74v2.26C2 22.776 2.224 23 2.5 23S3 22.776 3 22.5v-1.757C3.469 20.909 3.974 21 4.5 21h15c0.526 0 1.031-0.091 1.5-0.257V22.5c0 0.276 0.224 0.5 0.5 0.5s0.5-0.224 0.5-0.5v-2.26c1.205-0.808 2-2.183 2-3.74v-5c0-1.207-0.86-2.217-2-2.45zM11.5 20h-7C2.57 20 1 18.43 1 16.5v-5C1 10.673 1.673 10 2.5 10S4 10.673 4 11.5v4C4 15.776 4.224 16 4.5 16H8c1.93 0 3.5 1.57 3.5 3.5zM8 15H5v-3.5c0-1.207-0.86-2.217-2-2.45V6.5C3 4.019 5.019 2 7.5 2h9C18.981 2 21 4.019 21 6.5v2.55c-1.14 0.232-2 1.242-2 2.45V15h-3c-1.739 0-3.251 0.992-4 2.439C11.251 15.991 9.739 15 8 15zM23 16.5c0 1.93-1.57 3.5-3.5 3.5h-7v-0.5c0-1.93 1.57-3.5 3.5-3.5h3.5c0.276 0 0.5-0.224 0.5-0.5v-4c0-0.827 0.673-1.5 1.5-1.5s1.5 0.673 1.5 1.5z" />
</svg>