<svg id="low_vision_Layer_1" viewBox="0 0 24 24" fill="currentColor" width="32" height="32" data-name="Layer 1" xmlns="http://www.w3.org/2000/svg" xmlns:xlink="http://www.w3.org/1999/xlink">
    <title>low-vision</title>
    <path d="M12.379 20.21c0.195 0.195 0.195 0.512 0 0.707-0.098 0.098-0.226 0.146-0.354 0.146s-0.256-0.049-0.354-0.146L0.934 10.179c-0.195-0.195-0.195-0.512 0-0.707s0.512-0.195 0.707 0zM18.888 18.181l3e-3 3e-3c0.012-0.016 5e-3-0.01-3e-3-3e-3zM1.02 13.056c-0.195-0.195-0.512-0.195-0.707 0s-0.195 0.512 0 0.707l5.728 5.728c0.098 0.098 0.226 0.146 0.354 0.146s0.256-0.049 0.354-0.146c0.195-0.195 0.195-0.512 0-0.707zM3.614 7.146c-0.195-0.195-0.512-0.195-0.707 0s-0.195 0.512 0 0.707l12.428 12.428c0.098 0.098 0.226 0.146 0.354 0.146s0.256-0.049 0.354-0.146c0.195-0.195 0.195-0.512 0-0.707zM23.854 23.146c0.195 0.195 0.195 0.512 0 0.707-0.098 0.098-0.226 0.146-0.354 0.146s-0.256-0.049-0.354-0.146l-23-22.999c-0.195-0.196-0.195-0.512 0-0.708s0.512-0.195 0.708 0L5.488 4.78C7.434 3.599 9.598 3 11.922 3c6.247 0 9.817 4.283 11.39 6.836 0.92 1.494 0.92 3.35 0 4.844-0.71 1.153-1.932 2.818-3.717 4.203 0 0-1e-3 0-2e-3 1e-3zM15.161 14.453c1.219-1.568 1.108-3.842-0.331-5.282s-3.714-1.55-5.282-0.331zM18.892 18.184c1.667-1.292 2.901-2.945 3.568-4.028 0.72-1.17 0.72-2.625 0-3.795C20.997 7.986 17.683 4 11.922 4 9.868 4 7.951 4.508 6.218 5.51l2.619 2.619c1.962-1.606 4.87-1.494 6.7 0.336s1.942 4.738 0.336 6.7l3.017 3.017c-8e-3 8e-3-0.015 0.017 2e-3 2e-3z" />
</svg>