<svg id="luggage_cart_Layer_1" viewBox="0 0 24 24" fill="currentColor" width="32" height="32" data-name="Layer 1" xmlns="http://www.w3.org/2000/svg" xmlns:xlink="http://www.w3.org/1999/xlink">
    <title>luggage-cart</title>
    <path d="M24 18.5c0-0.276-0.224-0.5-0.5-0.5h-14C7.57 18 6 16.43 6 14.5v-10C6 2.019 3.981 0 1.5 0h-1C0.224 0 0 0.224 0 0.5S0.224 1 0.5 1h1C3.43 1 5 2.57 5 4.5v10c0 1.963 1.263 3.636 3.019 4.249C7.395 19.299 7 20.104 7 21c0 1.654 1.346 3 3 3s3-1.346 3-3c0-0.768-0.29-1.469-0.766-2h6.532C18.29 19.531 18 20.232 18 21c0 1.654 1.346 3 3 3s3-1.346 3-3c0-0.768-0.29-1.469-0.766-2H23.5c0.276 0 0.5-0.224 0.5-0.5zM12 21c0 1.103-0.897 2-2 2s-2-0.897-2-2 0.897-2 2-2 2 0.897 2 2zM23 21c0 1.103-0.897 2-2 2s-2-0.897-2-2 0.897-2 2-2 2 0.897 2 2zM20.5 4H20V2.5C20 1.122 18.879 0 17.5 0h-3C13.121 0 12 1.122 12 2.5V4h-0.5C9.57 4 8 5.57 8 7.5v5c0 1.93 1.57 3.5 3.5 3.5h9c1.93 0 3.5-1.57 3.5-3.5v-5C24 5.57 22.43 4 20.5 4zM13 2.5C13 1.673 13.673 1 14.5 1h3C18.327 1 19 1.673 19 2.5V4h-6zM19 5v10h-6V5zM9 12.5v-5C9 6.122 10.121 5 11.5 5H12v10h-0.5C10.121 15 9 13.878 9 12.5zM23 12.5c0 1.378-1.121 2.5-2.5 2.5H20V5h0.5C21.879 5 23 6.122 23 7.5z" />
</svg>