<svg id="lunch_box_Layer_1" viewBox="0 0 24 24" fill="currentColor" width="32" height="32" data-name="Layer 1" xmlns="http://www.w3.org/2000/svg" xmlns:xlink="http://www.w3.org/1999/xlink">
    <title>lunch-box</title>
    <path d="M23.5 16h-1.063l-0.416-3.1c-0.3-2.223-2.217-3.9-4.46-3.9H6.439c-2.243 0-4.16 1.677-4.46 3.9L1.563 16H0.5C0.224 16 0 16.224 0 16.5S0.224 17 0.5 17h1.063l0.416 3.1c0.3 2.223 2.217 3.9 4.46 3.9H17.56c2.243 0 4.16-1.677 4.46-3.9l0.416-3.1h1.063c0.276 0 0.5-0.224 0.5-0.5S23.775 16 23.5 16zM2.97 13.034C3.203 11.305 4.695 10 6.44 10h11.121c1.745 0 3.236 1.304 3.47 3.033L21.429 16H2.571zM13.86 17l-0.155 0.621C13.649 17.844 13.45 18 13.22 18h-2.438c-0.23 0-0.43-0.156-0.485-0.378L10.142 17zM17.561 23H6.439c-1.745 0-3.236-1.304-3.47-3.033L2.571 17h6.538l0.216 0.864C9.493 18.532 10.092 19 10.781 19h2.438c0.689 0 1.288-0.467 1.456-1.136L14.891 17h6.538l-0.398 2.966C20.798 21.695 19.306 23 17.561 23zM7.5 7c1.758 0 3.204-1.308 3.449-3H21.5C21.776 4 22 3.776 22 3.5S21.776 3 21.5 3H10.949C10.704 1.308 9.258 0 7.5 0 5.617 0 2 1.478 2 3.5S5.617 7 7.5 7zM7.5 1C8.879 1 10 2.122 10 3.5S8.879 6 7.5 6C5.927 6 3 4.715 3 3.5S5.927 1 7.5 1z" />
</svg>