<svg id="lungs_Layer_1" viewBox="0 0 24 24" fill="currentColor" width="32" height="32" data-name="Layer 1" xmlns="http://www.w3.org/2000/svg" xmlns:xlink="http://www.w3.org/1999/xlink">
    <title>lungs</title>
    <path d="M8.423 14.166c1.841-0.614 3.077-2.33 3.077-4.27V0.5C11.5 0.224 11.724 0 12 0s0.5 0.224 0.5 0.5v9.396c0 1.94 1.236 3.656 3.077 4.27l2.581 0.86c0.262 0.087 0.403 0.37 0.316 0.632C18.404 15.867 18.208 16 17.999 16c-0.053 0-2.739-0.886-2.739-0.886-1.489-0.496-2.643-1.59-3.261-2.956-0.618 1.367-1.771 2.46-3.261 2.956 0 0-2.687 0.886-2.739 0.886-0.209 0-0.404-0.132-0.475-0.342-0.087-0.262 0.055-0.545 0.316-0.632zM10.5 16c-0.276 0-0.5 0.224-0.5 0.5v2.556c0 1.408-0.95 2.645-2.312 3.007l-2.959 0.789C4.435 22.95 4.133 23 3.832 23h-4e-3c-0.741 0-1.47-0.304-2.001-0.834C1.294 21.634 1 20.923 1 20.165c0-1.437 0.164-2.874 0.479-4.239l2.096-7.007c0.532-2.307 2.558-3.918 4.926-3.918 0.276 0 0.5-0.224 0.5-0.5s-0.224-0.5-0.5-0.5c-2.837 0-5.264 1.93-5.893 4.663l-2.096 7.005C0.172 17.139 0 18.651 0 20.164c0 1.026 0.397 1.988 1.12 2.709C1.838 23.589 2.824 24 3.827 24h7e-3c0.408 0 0.815-0.068 1.183-0.19l2.93-0.78c1.798-0.479 3.054-2.113 3.054-3.974V16.5c0-0.276-0.224-0.5-0.501-0.5zM23.479 15.638 21.4 8.694C20.763 5.93 18.337 4 15.5 4 15.224 4 15 4.224 15 4.5S15.224 5 15.5 5c2.368 0 4.394 1.611 4.934 3.95l2.08 6.945C22.836 17.291 23 18.728 23 20.165c0 0.758-0.294 1.469-0.827 2.001-0.531 0.53-1.26 0.834-2.001 0.834h-4e-3c-0.302 0-0.604-0.05-0.927-0.157l-2.93-0.779c-1.361-0.363-2.312-1.6-2.312-3.008V16.5c0-0.276-0.224-0.5-0.5-0.5s-0.5 0.224-0.5 0.5v2.556c0 1.861 1.256 3.495 3.054 3.974l2.9 0.771C19.349 23.932 19.757 24 20.165 24h6e-3c1.004 0 1.99-0.411 2.708-1.127 0.723-0.721 1.12-1.683 1.12-2.709 0-1.513-0.172-3.025-0.52-4.526z" />
</svg>