<svg id="m_Layer_1" viewBox="0 0 24 24" fill="currentColor" width="32" height="32" data-name="Layer 1" xmlns="http://www.w3.org/2000/svg" xmlns:xlink="http://www.w3.org/1999/xlink">
    <title>m</title>
    <path d="M23.5 24c-0.276 0-0.5-0.224-0.5-0.5V3.099c0-1.22-0.866-1.857-1.608-2.032-0.743-0.175-1.802 7e-3-2.347 1.099L12.45 15.719c-0.168 0.344-0.731 0.344-0.899 0L4.953 2.161C4.41 1.075 3.35 0.89 2.608 1.067 1.866 1.242 1 1.879 1 3.099V23.5c0.01 0.649-1.01 0.649-1 0V3.099c0-1.688 1.195-2.726 2.379-3.005 1.18-0.282 2.716 0.114 3.471 1.625L12 14.358 18.148 1.723c0.757-1.515 2.293-1.909 3.473-1.629C22.806 0.373 24 1.411 24 3.099V23.5c0 0.276-0.224 0.5-0.5 0.5z" />
</svg>