<svg id="mace_Layer_1" viewBox="0 0 24 24" fill="currentColor" width="32" height="32" data-name="Layer 1" xmlns="http://www.w3.org/2000/svg" xmlns:xlink="http://www.w3.org/1999/xlink">
    <title>mace</title>
    <path d="M15.5 10C14.672 10 14 9.328 14 8.5S14.672 7 15.5 7 17 7.672 17 8.5 16.328 10 15.5 10zM23.885 15.628c0.196 0.377 0.129 0.812-0.158 1.099-0.179 0.178-0.414 0.271-0.653 0.271-0.146 0-0.292-0.035-0.428-0.105l-4.4-2.503c-0.446 0.209-0.92 0.369-1.414 0.472l-0.878 1.881c-0.205 0.342-0.7 0.342-0.905 0l-0.878-1.881c-1.09-0.228-2.08-0.729-2.896-1.429L0.854 23.854C0.756 23.952 0.628 24 0.5 24s-0.256-0.049-0.354-0.146c-0.195-0.195-0.195-0.512 0-0.707l10.42-10.42c-0.7-0.816-1.201-1.806-1.429-2.896L7.256 8.953c-0.342-0.205-0.342-0.7 0-0.905L9.137 7.17C9.24 6.676 9.4 6.202 9.609 5.756L7.115 1.372C6.919 0.995 6.986 0.56 7.273 0.273 7.56-0.013 7.996-0.079 8.354 0.106l4.4 2.503C13.2 2.4 13.674 2.24 14.168 2.137l0.878-1.881c0.205-0.342 0.7-0.342 0.905 0l0.878 1.881c0.494 0.103 0.968 0.263 1.414 0.472l4.386-2.494c0.376-0.197 0.811-0.129 1.098 0.157s0.354 0.722 0.168 1.082l-2.504 4.4C21.6 6.2 21.76 6.674 21.863 7.168l1.881 0.878c0.342 0.205 0.342 0.7 0 0.905l-1.881 0.878c-0.103 0.494-0.263 0.968-0.472 1.414zM19.245 3.19c0.606 0.429 1.136 0.958 1.565 1.565l2.064-3.629zM10.19 4.755c0.429-0.606 0.958-1.136 1.565-1.565L8.126 1.126zM15.5 14c3.032 0 5.5-2.467 5.5-5.5S18.532 3 15.5 3 10 5.467 10 8.5 12.468 14 15.5 14zM22.874 15.874 20.81 12.245c-0.429 0.606-0.958 1.136-1.565 1.565z" />
</svg>