<svg id="machine_learning_Layer_1" viewBox="0 0 24 24" fill="currentColor" width="32" height="32" data-name="Layer 1" xmlns="http://www.w3.org/2000/svg" xmlns:xlink="http://www.w3.org/1999/xlink">
    <title>machine-learning</title>
    <path d="M14 19.5V21c0 1.654-1.346 3-3 3s-3-1.346-3-3v-0.514c-0.953-0.337-1.838-0.834-2.638-1.481l-0.445 0.274c-1.355 0.876-3.31 0.413-4.128-0.977-0.875-1.355-0.413-3.31 0.977-4.128l0.445-0.275C2.071 13.259 2 12.622 2 12s0.071-1.26 0.211-1.899L1.766 9.826C0.375 9.008-0.087 7.052 0.789 5.697 1.607 4.307 3.561 3.845 4.917 4.72l0.445 0.274C6.162 4.347 7.047 3.85 8 3.513V2.999c0-1.654 1.346-3 3-3s3 1.346 3 3v1.5c0 0.276-0.224 0.5-0.5 0.5S13 4.775 13 4.499v-1.5c0-1.103-0.897-2-2-2s-2 0.897-2 2v0.875c0 0.22-0.143 0.414-0.353 0.478C7.578 4.681 6.599 5.23 5.736 5.985 5.57 6.13 5.33 6.15 5.144 6.034L4.392 5.569C3.937 5.288 3.399 5.203 2.881 5.325 2.361 5.448 1.92 5.766 1.639 6.221 1.06 7.159 1.352 8.394 2.291 8.973l0.753 0.465C3.231 9.553 3.32 9.776 3.265 9.989 3.089 10.667 3 11.343 3 11.998s0.089 1.331 0.265 2.009c0.055 0.212-0.035 0.436-0.221 0.551l-0.753 0.465c-0.938 0.579-1.231 1.814-0.652 2.752 0.281 0.455 0.722 0.773 1.242 0.896 0.519 0.122 1.056 0.036 1.511-0.244l0.752-0.465c0.187-0.116 0.427-0.096 0.592 0.049 0.862 0.755 1.841 1.305 2.911 1.633C8.857 19.708 9 19.902 9 20.122v0.875c0 1.103 0.897 2 2 2s2-0.897 2-2v-1.5c0-0.276 0.224-0.5 0.5-0.5S14 19.221 14 19.5zM14 7.5C14 7.224 14.224 7 14.5 7H20c0.827 0 1.5-0.673 1.5-1.5V3.929C20.64 3.705 20 2.929 20 2c0-1.103 0.897-2 2-2s2 0.897 2 2c0 0.929-0.64 1.705-1.5 1.929V5.5C22.5 6.878 21.379 8 20 8h-5.5C14.224 8 14 7.776 14 7.5zM22 3c0.552 0 1-0.449 1-1s-0.448-1-1-1-1 0.449-1 1 0.448 1 1 1zM24 22c0 1.103-0.897 2-2 2s-2-0.897-2-2c0-0.929 0.64-1.705 1.5-1.929V18.5c0-0.827-0.673-1.5-1.5-1.5h-5.5c-0.276 0-0.5-0.224-0.5-0.5s0.224-0.5 0.5-0.5H20c1.379 0 2.5 1.122 2.5 2.5v1.571c0.86 0.224 1.5 1 1.5 1.929zM23 22c0-0.551-0.448-1-1-1s-1 0.449-1 1 0.448 1 1 1 1-0.449 1-1zM24 12c0 1.103-0.897 2-2 2-0.929 0-1.705-0.64-1.929-1.5H14.5c-0.276 0-0.5-0.224-0.5-0.5s0.224-0.5 0.5-0.5h5.571c0.224-0.86 1-1.5 1.929-1.5 1.103 0 2 0.897 2 2zM23 12c0-0.551-0.448-1-1-1s-1 0.449-1 1 0.448 1 1 1 1-0.449 1-1zM11 9h0.5C11.776 9 12 8.776 12 8.5S11.776 8 11.5 8H11c-2.206 0-4 1.794-4 4s1.794 4 4 4h0.5c0.276 0 0.5-0.224 0.5-0.5S11.776 15 11.5 15H11c-1.654 0-3-1.346-3-3s1.346-3 3-3z" />
</svg>