<svg id="magnet_user_Layer_1" viewBox="0 0 24 24" fill="currentColor" width="32" height="32" data-name="Layer 1" xmlns="http://www.w3.org/2000/svg" xmlns:xlink="http://www.w3.org/1999/xlink">
    <title>magnet-user</title>
    <path d="M17.926 0c-3.309 0-6 2.691-6 6s2.691 6 6 6 6-2.691 6-6-2.691-6-6-6zM15.912 10.569c3e-3-0.023 0.014-0.044 0.014-0.069V10c0-1.103 0.897-2 2-2s2 0.897 2 2v0.5c0 0.024 0.01 0.045 0.014 0.069C19.323 10.842 18.644 11 17.926 11s-1.396-0.158-2.014-0.431zM20.923 9.977c-0.013-1.643-1.351-2.976-2.998-2.976s-2.985 1.333-2.998 2.976c-1.208-0.914-2.002-2.348-2.002-3.976 0-2.757 2.243-5 5-5s5 2.243 5 5c0 1.628-0.794 3.063-2.002 3.976zM17.925 2.001c-1.103 0-2 0.897-2 2s0.897 2 2 2 2-0.897 2-2-0.897-2-2-2zM17.925 5.001c-0.552 0-1-0.448-1-1s0.448-1 1-1 1 0.448 1 1-0.448 1-1 1zM15.576 14.445c-0.811-0.812-2.228-0.812-3.04 0L8.72 18.261c-0.858 0.858-2.238 0.942-3.078 0.188-0.447-0.402-0.701-0.954-0.717-1.552-0.016-0.599 0.208-1.162 0.632-1.585l4.029-4.029c0.378-0.378 0.586-0.88 0.586-1.414S9.964 8.833 9.586 8.455L8.91 7.778v0c-0.779-0.779-2.048-0.779-2.828 0l-3.876 3.876c-2.801 2.802-2.957 7.334-0.348 10.104 1.333 1.416 3.136 2.212 5.078 2.241h0.11c1.9 0 3.683-0.737 5.029-2.084l3.966-3.966c0.839-0.839 0.839-2.202 0-3.041zM7.495 8.193c0.256 0 0.513 0.098 0.708 0.292l0.676 0.677c0.189 0.189 0.293 0.44 0.293 0.707s-0.104 0.518-0.293 0.707l-0.432 0.432-2.091-2.091 0.432-0.432C6.983 8.291 7.24 8.193 7.495 8.193zM11.367 21.209c-1.18 1.18-2.771 1.771-4.418 1.791-1.668-0.025-3.218-0.71-4.365-1.927-2.242-2.381-2.095-6.289 0.328-8.712l2.737-2.737 2.091 2.091-2.89 2.89c-0.619 0.619-0.948 1.442-0.925 2.318 0.023 0.875 0.395 1.681 1.048 2.269 1.248 1.122 3.203 1.026 4.454-0.224l2.783-2.784 2.09 2.091zM15.333 17.243l-0.326 0.326-2.09-2.091 0.326-0.326c0.436-0.433 1.192-0.437 1.626 0l0.465 0.464c0.448 0.448 0.448 1.179-1e-3 1.627z" />
</svg>