<svg id="magnet_Layer_1" viewBox="0 0 24 24" fill="currentColor" width="32" height="32" data-name="Layer 1" xmlns="http://www.w3.org/2000/svg" xmlns:xlink="http://www.w3.org/1999/xlink">
    <title>magnet</title>
    <path d="M21.5 0h-2C18.121 0 17 1.122 17 2.5v9.264c0 2.682-1.979 4.972-4.507 5.213-1.432 0.135-2.8-0.317-3.855-1.276C7.597 14.755 7 13.406 7 12V2.5C7 1.122 5.878 0 4.5 0h-2C1.122 0 0 1.122 0 2.5v9.121C0 18.329 5.283 23.882 11.775 24c0.076 1e-3 0.151 2e-3 0.227 2e-3 3.165 0 6.142-1.215 8.404-3.437C22.723 18.29 24 15.249 24 12.002V2.5C24 1.122 22.879 0 21.5 0zM19.5 1h2C22.327 1 23 1.673 23 2.5V5h-5V2.5C18 1.673 18.673 1 19.5 1zM2.5 1h2C5.327 1 6 1.673 6 2.5V5H1V2.5C1 1.673 1.673 1 2.5 1zM19.706 19.852c-2.123 2.085-4.942 3.209-7.912 3.148C5.842 22.891 1 17.787 1 11.621V6h5v6c0 1.687 0.716 3.306 1.965 4.441 1.266 1.15 2.91 1.694 4.623 1.531 3.035-0.289 5.413-3.016 5.413-6.208V6h5v6.002c0 2.977-1.17 5.764-3.295 7.85z" />
</svg>