<svg id="magnifying_glass_eye_Layer_1" viewBox="0 0 24 24" fill="currentColor" width="32" height="32" data-name="Layer 1" xmlns="http://www.w3.org/2000/svg" xmlns:xlink="http://www.w3.org/1999/xlink">
    <title>magnifying-glass-eye</title>
    <path d="M23.854 23.146l-6.449-6.449c1.607-1.775 2.596-4.12 2.596-6.697C20 4.486 15.514 0 10 0S0 4.486 0 10 4.486 20 10 20c2.577 0 4.922-0.989 6.697-2.596l6.449 6.449c0.452 0.466 1.172-0.255 0.708-0.707zM10 19c-4.963 0-9-4.037-9-9s4.037-9 9-9 9 4.038 9 9-4.037 9-9 9zM16.001 8.576v0C14.942 7.173 13.043 5.5 10 5.5S5.058 7.172 3.999 8.576c-0.632 0.838-0.632 2.01 0 2.849C5.058 12.828 6.959 14.5 10 14.5s4.942-1.672 6.001-3.076c0.632-0.838 0.632-2.01 0-2.848zM15.202 10.823c-0.921 1.222-2.571 2.678-5.202 2.678s-4.28-1.456-5.202-2.677c-0.365-0.484-0.365-1.161 0-1.645C5.719 7.957 7.369 6.501 10 6.501s4.281 1.456 5.202 2.677c0.365 0.484 0.365 1.161 0 1.645zM10 8.001c-1.103 0-2 0.897-2 2s0.897 2 2 2 2-0.897 2-2-0.897-2-2-2zM10 11.001c-0.552 0-1-0.449-1-1s0.448-1 1-1 1 0.449 1 1-0.448 1-1 1z" />
</svg>