<svg id="magnifying_glass_play_Layer_1" viewBox="0 0 24 24" fill="currentColor" width="32" height="32" data-name="Layer 1" xmlns="http://www.w3.org/2000/svg" xmlns:xlink="http://www.w3.org/1999/xlink">
    <title>magnifying-glass-play</title>
    <path d="M23.854 23.146l-6.449-6.449c1.607-1.775 2.596-4.12 2.596-6.697C20 4.486 15.514 0 10 0S0 4.486 0 10 4.486 20 10 20c2.577 0 4.922-0.989 6.697-2.596l6.449 6.449c0.195 0.195 0.512 0.195 0.707 0s0.195-0.512 1e-3-0.707zM1 10c0-4.963 4.038-9 9-9s9 4.037 9 9-4.038 9-9 9-9-4.037-9-9zM13.732 8.694 9.229 6.227C8.279 5.649 6.963 6.42 7 7.53v4.939c-0.038 1.106 1.278 1.879 2.224 1.307l4.508-2.47c1.011-0.521 1.013-2.088 0-2.612zM13.252 10.429c0 0-4.513 2.473-4.513 2.473C8.303 13.051 8.082 12.923 8 12.469V7.53c0.05-0.46 0.391-0.587 0.744-0.429l4.503 2.467c0.359 0.296 0.36 0.563 5e-3 0.861z" />
</svg>