<svg id="magnifying_glass_binary_Layer_1" viewBox="0 0 24 24" fill="currentColor" width="32" height="32" data-name="Layer 1" xmlns="http://www.w3.org/2000/svg" xmlns:xlink="http://www.w3.org/1999/xlink">
    <title>magnifying-glass-binary</title>
    <path d="M23.854 23.146l-2.853-2.853c0.616-0.77 1-1.733 1-2.793 0-2.481-2.019-4.5-4.5-4.5s-4.5 2.019-4.5 4.5 2.019 4.5 4.5 4.5c1.06 0 2.023-0.384 2.793-1l2.853 2.853c0.195 0.195 0.512 0.195 0.707 0s0.195-0.512 0-0.707zM17.5 21c-1.93 0-3.5-1.57-3.5-3.5s1.57-3.5 3.5-3.5 3.5 1.57 3.5 3.5-1.57 3.5-3.5 3.5zM8 7V4c0-2.206-1.794-4-4-4S0 1.794 0 4v3c0 2.206 1.794 4 4 4s4-1.794 4-4zM4 10c-1.654 0-3-1.346-3-3V4c0-1.654 1.346-3 3-3s3 1.346 3 3v3c0 1.654-1.346 3-3 3zM10.202 3.798c-0.195-0.195-0.195-0.512 0-0.707l2.944-2.945c0.144-0.144 0.358-0.186 0.545-0.108C13.878 0.115 14 0.298 14 0.5v9c0 0.276-0.224 0.5-0.5 0.5S13 9.776 13 9.5V1.707l-2.091 2.091c-0.195 0.195-0.512 0.195-0.707 0zM4 13.5v10C4 23.776 3.776 24 3.5 24S3 23.776 3 23.5v-8.793l-2.091 2.091c-0.195 0.195-0.512 0.195-0.707 0s-0.195-0.512 0-0.707l2.944-2.944c0.143-0.144 0.357-0.186 0.545-0.108C3.878 13.116 4 13.299 4 13.5zM12.85 22.092c0.197 0.193 0.2 0.51 7e-3 0.707C12.099 23.573 11.084 24 10 24c-2.206 0-4-1.794-4-4v-3c0-2.206 1.794-4 4-4 0.728 0 1.441 0.198 2.062 0.572 0.236 0.143 0.312 0.45 0.17 0.687-0.143 0.236-0.45 0.312-0.687 0.17-0.464-0.28-0.999-0.428-1.545-0.428-1.654 0-3 1.346-3 3v3c0 1.654 1.346 3 3 3 0.813 0 1.574-0.32 2.143-0.901 0.193-0.196 0.51-0.201 0.707-8e-3z" />
</svg>