<svg id="magnifying_glass_wave_Layer_1" viewBox="0 0 24 24" fill="currentColor" width="32" height="32" data-name="Layer 1" xmlns="http://www.w3.org/2000/svg" xmlns:xlink="http://www.w3.org/1999/xlink">
    <title>magnifying-glass-wave</title>
    <path d="M23.854 23.146l-6.449-6.449c1.607-1.775 2.596-4.12 2.596-6.698C20 4.486 15.514 0 10 0S0 4.486 0 10 4.486 20 10 20c2.577 0 4.922-0.988 6.697-2.595l6.449 6.449C23.244 23.952 23.372 24 23.5 24s0.256-0.049 0.354-0.146c0.195-0.195 0.195-0.512 0-0.708zM1 10c0-4.963 4.038-9 9-9s9 4.037 9 9-4.038 9-9 9-9-4.037-9-9zM10 4C9.174 4 8.5 4.67 8.5 5.494l-5e-3 9.007c0 0.4 0.156 0.777 0.439 1.061C9.217 15.845 9.594 16 9.995 16c0.826 0 1.5-0.672 1.5-1.498l5e-3-9.007c0-0.401-0.156-0.777-0.44-1.06C10.777 4.154 10.401 3.999 10 4zM10.495 14.502c0 0.407-0.567 0.64-0.854 0.352-0.094-0.094-0.146-0.219-0.146-0.353L9.5 5.494C9.5 5.217 9.72 5 10 5c0.135 0 0.261 0.052 0.355 0.146 0.094 0.093 0.145 0.217 0.145 0.35zM14.499 6c-0.826 0-1.5 0.672-1.5 1.499l-4e-3 4.994c0 0.4 0.156 0.777 0.439 1.062 0.284 0.283 0.66 0.439 1.061 0.439 0.826 0 1.5-0.672 1.5-1.499l4e-3-4.994c0-0.4-0.155-0.777-0.439-1.062C15.277 6.156 14.9 6 14.499 6zM14.995 12.495c0 0.409-0.564 0.645-0.854 0.353-0.095-0.095-0.146-0.221-0.146-0.354l4e-3-4.994c0-0.275 0.225-0.499 0.5-0.499 0.134 0 0.259 0.052 0.354 0.146 0.095 0.095 0.146 0.221 0.146 0.354zM5.5 7C4.673 7 4 7.673 4 8.5v3C4 12.327 4.673 13 5.5 13S7 12.327 7 11.5v-3C7 7.673 6.327 7 5.5 7zM6 11.5C6 11.775 5.776 12 5.5 12S5 11.775 5 11.5v-3C5 8.225 5.224 8 5.5 8S6 8.225 6 8.5z" />
</svg>