<svg id="mailbox_Layer_1" viewBox="0 0 24 24" fill="currentColor" width="32" height="32" data-name="Layer 1" xmlns="http://www.w3.org/2000/svg" xmlns:xlink="http://www.w3.org/1999/xlink">
    <title>mailbox</title>
    <path d="M18.5 3h-13C2.467 3 0 5.467 0 8.5v10C0 19.879 1.122 21 2.5 21h19c1.379 0 2.5-1.121 2.5-2.5v-10C24 5.467 21.532 3 18.5 3zM1 18.5v-10C1 6.019 3.019 4 5.5 4S10 6.019 10 8.5v10c0 0.827-0.673 1.5-1.5 1.5h-6C1.673 20 1 19.327 1 18.5zM23 18.5c0 0.827-0.673 1.5-1.5 1.5H10.499C10.814 19.582 11 19.062 11 18.5v-10c0-1.858-0.926-3.504-2.341-4.5H18.5C20.981 4 23 6.019 23 8.5zM20 10.5v2c0 0.276-0.224 0.5-0.5 0.5S19 12.776 19 12.5V11h-4.5c-0.276 0-0.5-0.224-0.5-0.5s0.224-0.5 0.5-0.5h5c0.276 0 0.5 0.224 0.5 0.5zM8 10.5C8 10.776 7.776 11 7.5 11h-4C3.224 11 3 10.776 3 10.5S3.224 10 3.5 10h4C7.776 10 8 10.224 8 10.5z" />
</svg>