<svg id="mail_hook_Layer_1" viewBox="0 0 24 24" fill="currentColor" width="32" height="32" data-name="Layer 1" xmlns="http://www.w3.org/2000/svg" xmlns:xlink="http://www.w3.org/1999/xlink">
    <title>mail-hook</title>
    <path d="M19.5 6h-1C18.224 6 18 6.224 18 6.5S18.224 7 18.5 7h1c1.084 0 2.043 0.506 2.686 1.283l-7.691 7.691c-0.662 0.662-1.54 1.025-2.479 1.025h-0.017c-0.98-8e-3-1.826-0.36-2.492-1.025L1.814 8.283C2.457 7.506 3.415 7 4.5 7h10.962c0.408 0.707 0.601 1.539 0.52 2.395C15.789 11.416 13.955 13 11.807 13H11.5c-0.276 0-0.5 0.224-0.5 0.5s0.224 0.5 0.5 0.5h0.307c2.658 0 4.929-1.981 5.17-4.51 0.205-2.146-0.975-4.178-2.935-5.056C13.091 4.008 12.5 3.155 12.5 2.208V0.5C12.5 0.224 12.276 0 12 0s-0.5 0.224-0.5 0.5v1.709c0 1.347 0.817 2.549 2.133 3.138 0.375 0.168 0.711 0.391 1.008 0.653H8V5.5C8 5.224 7.776 5 7.5 5S7 5.224 7 5.5V6H4.5C2.019 6 0 8.019 0 10.5v9C0 21.981 2.019 24 4.5 24h15c2.481 0 4.5-2.019 4.5-4.5v-9C24 8.019 21.981 6 19.5 6zM23 19.5c0 1.93-1.57 3.5-3.5 3.5h-15C2.57 23 1 21.43 1 19.5v-9c0-0.477 0.097-0.931 0.271-1.346l7.528 7.528c1.688 1.753 4.717 1.75 6.402 0l7.528-7.528C22.903 9.569 23 10.023 23 10.5z" />
</svg>