<svg id="mail_plus_circle_Layer_1" viewBox="0 0 24 24" fill="currentColor" width="32" height="32" data-name="Layer 1" xmlns="http://www.w3.org/2000/svg" xmlns:xlink="http://www.w3.org/1999/xlink">
    <title>mail-plus-circle</title>
    <path d="M18.5 11c1.469 0 2.851-0.572 3.889-1.611C23.428 8.35 24 6.969 24 5.5s-0.572-2.851-1.611-3.889C21.351 0.572 19.969 0 18.5 0s-2.851 0.572-3.889 1.611C13.572 2.65 13 4.031 13 5.5s0.572 2.851 1.611 3.889C15.649 10.428 17.031 11 18.5 11zM15.318 2.318C16.168 1.468 17.297 1 18.5 1s2.332 0.468 3.182 1.318C22.533 3.168 23 4.298 23 5.5s-0.468 2.332-1.318 3.182S19.703 10 18.5 10s-2.332-0.468-3.182-1.318C14.467 7.832 14 6.702 14 5.5s0.468-2.332 1.318-3.182zM15.5 5.5C15.5 5.224 15.724 5 16 5h2V3c0-0.276 0.224-0.5 0.5-0.5S19 2.724 19 3v2h2c0.276 0 0.5 0.224 0.5 0.5S21.276 6 21 6h-2v2c0 0.276-0.224 0.5-0.5 0.5S18 8.276 18 8V6h-2c-0.276 0-0.5-0.224-0.5-0.5zM24 11.5v8c0 2.481-2.019 4.5-4.5 4.5h-15C2.019 24 0 21.981 0 19.5v-12C0 5.019 2.019 3 4.5 3h6C10.776 3 11 3.224 11 3.5S10.776 4 10.5 4h-6C2.889 4 1.542 5.101 1.137 6.586l8.388 8.389c1.322 1.322 3.627 1.322 4.949 0l2.247-2.322c0.191-0.197 0.51-0.204 0.707-0.012 0.198 0.192 0.204 0.509 0.012 0.707l-2.253 2.328C14.332 16.532 13.202 17 11.999 17s-2.332-0.468-3.182-1.318L1 7.863V19.5C1 21.43 2.57 23 4.5 23h15c1.93 0 3.5-1.57 3.5-3.5v-8c0-0.276 0.224-0.5 0.5-0.5s0.5 0.224 0.5 0.5z" />
</svg>