<svg id="man_scientist_Layer_1" viewBox="0 0 24 24" fill="currentColor" width="32" height="32" data-name="Layer 1" xmlns="http://www.w3.org/2000/svg" xmlns:xlink="http://www.w3.org/1999/xlink">
    <title>man-scientist</title>
    <path d="M9 12c3.309 0 6-2.691 6-6s-2.691-6-6-6-6 2.691-6 6 2.691 6 6 6zM9 1c2.757 0 5 2.243 5 5s-2.243 5-5 5-5-2.243-5-5 2.243-5 5-5zM12.834 15.248l-2.326 3.043C10.128 18.747 9.59 19 9.017 19s-1.111-0.252-1.478-0.691l-2.365-3.091c-0.195-0.234-0.56-0.292-0.834-0.118-0.341 0.216-0.675 0.475-0.994 0.769C1.856 17.248 1 19.326 1 21.572v1.929c0 0.276-0.224 0.5-0.5 0.5S0 23.777 0 23.501v-1.929c0-2.523 0.973-4.87 2.667-6.438 0.363-0.335 0.746-0.631 1.138-0.879 0.696-0.443 1.622-0.295 2.15 0.339l2.365 3.091C8.482 17.879 8.741 18 9.016 18s0.533-0.121 0.71-0.333l2.326-3.043c0.544-0.654 1.47-0.797 2.168-0.354 0.201 0.129 0.397 0.268 0.587 0.415 0.218 0.17 0.257 0.484 0.087 0.702-0.171 0.217-0.483 0.256-0.702 0.087-0.164-0.128-0.335-0.249-0.51-0.361-0.275-0.175-0.64-0.117-0.848 0.135zM23.461 20.585 20 16.995V13h0.5c0.276 0 0.5-0.224 0.5-0.5S20.776 12 20.5 12h-4c-0.276 0-0.5 0.224-0.5 0.5s0.224 0.5 0.5 0.5H17v3.996l-3.534 3.673c-0.505 0.615-0.607 1.445-0.268 2.165C13.539 23.553 14.244 24 15.04 24h6.92c0.816 0 1.529-0.464 1.861-1.209 0.332-0.747 0.198-1.588-0.36-2.206zM22.907 22.385C22.736 22.77 22.382 23 21.96 23h-6.92c-0.411 0-0.762-0.222-0.938-0.594s-0.125-0.784 0.11-1.073l3.647-3.789c0.09-0.093 0.14-0.218 0.14-0.347V13h1v4.197c0 0.13 0.05 0.254 0.14 0.347l3.59 3.723c0.283 0.313 0.35 0.731 0.178 1.118z" />
</svg>