<svg id="manat_sign_Layer_1" viewBox="0 0 24 24" fill="currentColor" width="32" height="32" data-name="Layer 1" xmlns="http://www.w3.org/2000/svg" xmlns:xlink="http://www.w3.org/1999/xlink">
    <title>manat-sign</title>
    <path d="M22 12.97v10.55c0 0.28-0.22 0.5-0.5 0.5S21 23.8 21 23.52V12.97c0-4.8-3.77-8.73-8.5-8.99V23.5c0 0.28-0.22 0.5-0.5 0.5s-0.5-0.22-0.5-0.5V3.99C6.77 4.25 3 8.18 3 12.98v10.55c0 0.28-0.22 0.5-0.5 0.5S2 23.81 2 23.53V12.97c0-5.34 4.22-9.72 9.5-9.98V0.5C11.5 0.22 11.72 0 12 0s0.5 0.22 0.5 0.5v2.49c5.28 0.26 9.5 4.64 9.5 9.98z" />
</svg>