<svg id="mango_Layer_1" viewBox="0 0 24 24" fill="currentColor" width="32" height="32" data-name="Layer 1" xmlns="http://www.w3.org/2000/svg" xmlns:xlink="http://www.w3.org/1999/xlink">
    <title>mango</title>
    <path d="M19 13c0.552 0 1 0.448 1 1s-0.448 1-1 1-1-0.448-1-1 0.448-1 1-1zM15 17c0 0.552 0.448 1 1 1s1-0.448 1-1-0.448-1-1-1-1 0.448-1 1zM15.061 0.739c-0.132-0.242-0.043-0.546 0.2-0.678 0.241-0.132 0.545-0.043 0.678 0.2 0.285 0.522 0.997 1.829 1.353 3.832 0.232-0.851 0.646-1.775 1.378-2.508 1.101-1.101 2.62-1.465 3.7-1.577 0.447-0.043 0.879 0.109 1.196 0.426s0.472 0.753 0.426 1.196c-0.112 1.08-0.477 2.599-1.578 3.7C20.875 6.869 18.486 7 17.718 7c-0.112 0-0.715 0-0.715 0h-4e-3c-0.132 0-0.258-0.052-0.352-0.145-0.095-0.094-0.148-0.222-0.148-0.355 0-3.123-1.083-5.108-1.438-5.761zM18.008 5.992c0.838-0.039 2.588-0.258 3.7-1.369 0.894-0.894 1.194-2.177 1.29-3.097v0c0.015-0.142-0.036-0.283-0.139-0.386-0.091-0.091-0.212-0.141-0.337-0.141-0.016 0-0.033 0-0.049 2e-3-0.919 0.096-2.203 0.396-3.097 1.29-1.111 1.111-1.33 2.862-1.368 3.701zM22.718 8.031c-0.259 0.095-0.392 0.383-0.296 0.642C22.806 9.715 23 10.834 23 12c0 9.584-9.235 10.906-19.214 10.906C2.25 22.906 1 21.656 1 20.12c0-1.268 1.008-2.059 1.744-2.636l0.164-0.129C4.604 16.003 5.5 14.152 5.5 12c0-4.837 3.381-8.61 8.039-8.973 0.275-0.021 0.481-0.262 0.46-0.537s-0.272-0.479-0.537-0.46C8.269 2.434 4.501 6.627 4.501 12c0 1.863-0.746 3.401-2.215 4.573l-0.158 0.125c-0.795 0.624-2.127 1.669-2.127 3.423 0 2.087 1.698 3.786 3.786 3.786 7.064 0 20.214 0 20.214-11.906 0-1.284-0.215-2.52-0.64-3.673-0.096-0.259-0.383-0.393-0.643-0.297z" />
</svg>