<svg id="manhole_Layer_1" viewBox="0 0 24 24" fill="currentColor" width="32" height="32" data-name="Layer 1" xmlns="http://www.w3.org/2000/svg" xmlns:xlink="http://www.w3.org/1999/xlink">
    <title>manhole</title>
    <path d="M12 0C5.383 0 0 5.383 0 12s5.383 12 12 12 12-5.383 12-12S18.617 0 12 0zM13 22.954V22c0-0.552-0.448-1-1-1s-1 0.448-1 1v0.954C5.401 22.447 1 17.728 1 12S5.401 1.553 11 1.046V2c0 0.552 0.448 1 1 1s1-0.448 1-1V1.046C18.599 1.553 23 6.272 23 12s-4.401 10.447-10 10.954zM3 10.5C3 10.224 3.224 10 3.5 10h17c0.276 0 0.5 0.224 0.5 0.5S20.776 11 20.5 11h-17C3.224 11 3 10.776 3 10.5zM21 13.5c0 0.276-0.224 0.5-0.5 0.5h-17C3.224 14 3 13.776 3 13.5S3.224 13 3.5 13h17c0.276 0 0.5 0.224 0.5 0.5zM4 7.5C4 7.224 4.224 7 4.5 7h15C19.776 7 20 7.224 20 7.5S19.776 8 19.5 8h-15C4.224 8 4 7.776 4 7.5zM7 4.5C7 4.224 7.224 4 7.5 4h9C16.776 4 17 4.224 17 4.5S16.776 5 16.5 5h-9C7.224 5 7 4.776 7 4.5zM20 16.5c0 0.276-0.224 0.5-0.5 0.5h-15C4.224 17 4 16.776 4 16.5S4.224 16 4.5 16h15c0.276 0 0.5 0.224 0.5 0.5zM17 19.5c0 0.276-0.224 0.5-0.5 0.5h-9C7.224 20 7 19.776 7 19.5S7.224 19 7.5 19h9c0.276 0 0.5 0.224 0.5 0.5z" />
</svg>