<svg id="manicure_Layer_1" viewBox="0 0 24 24" fill="currentColor" width="32" height="32" data-name="Layer 1" xmlns="http://www.w3.org/2000/svg" xmlns:xlink="http://www.w3.org/1999/xlink">
    <title>manicure</title>
    <path d="M24 13.5v10c0 0.276-0.224 0.5-0.5 0.5S23 23.776 23 23.5v-10c0-2.46-1.108-4.729-3-6.241V13c0 3.309-2.691 6-6 6s-6-2.691-6-6v-0.5C8 12.224 8.224 12 8.5 12S9 12.224 9 12.5V13c0 2.757 2.243 5 5 5s5-2.243 5-5V4.5C19 2.57 17.43 1 15.5 1h-3c-1.068 0-2.064 0.479-2.732 1.312C9.596 2.528 9.282 2.563 9.065 2.39 8.849 2.217 8.815 1.903 8.987 1.687 9.846 0.615 11.127-1e-3 12.5-1e-3h3c2.481 0 4.5 2.019 4.5 4.5v1.532c2.504 1.677 4 4.442 4 7.469zM4.854 11.014c-0.263-0.066-0.538 0.1-0.603 0.369C4.084 12.072 4 12.784 4 13.5v10C4 23.776 4.224 24 4.5 24S5 23.776 5 23.5v-10c0-0.637 0.075-1.27 0.223-1.883 0.065-0.268-0.1-0.539-0.369-0.603zM7.25 7.932 6.54 8.641C6.248 8.933 5.864 9.079 5.479 9.079S4.713 8.934 4.421 8.644L0.882 5.125C0.314 4.559 0 3.805 0 3.002s0.312-1.556 0.879-2.123c1.167-1.168 3.068-1.17 4.239-3e-3l3.542 3.52c0.285 0.283 0.441 0.66 0.442 1.061 0 0.402-0.155 0.779-0.439 1.063L7.958 7.225l3.127 3.12 2.964 1.628c0.509 0.279 0.607 0.969 0.197 1.38l-0.868 0.868c-0.411 0.411-1.1 0.312-1.38-0.197l-1.645-2.996zM7.955 5.813c0.195-0.186 0.194-0.523 0-0.708L4.413 1.584C4.023 1.195 3.512 1.001 3 1.001S1.976 1.196 1.586 1.585C1.208 1.963 1 2.466 1 3.001s0.209 1.037 0.588 1.415l3.54 3.519c0.195 0.194 0.513 0.193 0.706 0z" />
</svg>