<svg id="map_marker_question_Layer_1" viewBox="0 0 24 24" fill="currentColor" width="32" height="32" data-name="Layer 1" xmlns="http://www.w3.org/2000/svg" xmlns:xlink="http://www.w3.org/1999/xlink">
    <title>map-marker-question</title>
    <path d="M12 24c-1.358 0-2.641-0.521-3.612-1.467l-4.151-3.818C2.144 16.632 1 13.881 1 10.954s1.144-5.678 3.222-7.747C6.3 1.139 9.062 0 12 0s5.7 1.139 7.777 3.208C21.855 5.277 23 8.029 23 10.955s-1.145 5.678-3.223 7.747l-4.176 3.842C14.641 23.48 13.358 24.001 12 24zM12 1C9.328 1 6.817 2.036 4.928 3.917 3.039 5.797 2 8.296 2 10.955s1.04 5.158 2.928 7.038l4.147 3.814c1.587 1.546 4.273 1.536 5.838 0.01l4.172-3.838c1.874-1.866 2.914-4.366 2.914-7.024s-1.04-5.158-2.929-7.038C17.181 2.036 14.67 1 12 1zM12.5 15v-1.167c0-0.893 0.601-1.872 1.428-2.328 1.5-0.827 2.307-2.525 2.009-4.226-0.283-1.611-1.605-2.934-3.216-3.216-1.185-0.207-2.384 0.11-3.292 0.873S8 6.816 8 8c0 0.276 0.224 0.5 0.5 0.5S9 8.276 9 8c0-0.889 0.391-1.727 1.072-2.298 0.691-0.581 1.571-0.812 2.476-0.653 1.204 0.211 2.193 1.2 2.404 2.404 0.229 1.3-0.363 2.547-1.506 3.177-1.146 0.632-1.946 1.949-1.946 3.204v1.167c0 0.276 0.224 0.5 0.5 0.5s0.5-0.224 0.5-0.501zM13 18v0c0-0.552-0.448-1-1-1v0c-0.552 0-1 0.448-1 1v0c0 0.552 0.448 1 1 1v0c0.552 0 1-0.448 1-1z" />
</svg>