<svg id="map_point_Layer_1" viewBox="0 0 24 24" fill="currentColor" width="32" height="32" data-name="Layer 1" xmlns="http://www.w3.org/2000/svg" xmlns:xlink="http://www.w3.org/1999/xlink">
    <title>map-point</title>
    <path d="M10.324 10.354c0.462 0.452 1.069 0.678 1.676 0.678s1.214-0.226 1.676-0.678l1.859-1.818C16.479 7.592 17 6.336 17 5s-0.521-2.592-1.465-3.536C14.59 0.52 13.335 0 12 0S9.408 0.52 8.465 1.464C7.52 2.408 7 3.664 7 5s0.523 2.595 1.478 3.548zM9.172 2.17C9.927 1.415 10.931 0.999 12 0.999s2.072 0.416 2.828 1.171S16 3.93 16 4.999s-0.416 2.074-1.168 2.825l-1.855 1.814c-0.538 0.526-1.415 0.526-1.953 0L9.181 7.836C8.42 7.075 8 6.068 8 4.999S8.416 2.925 9.172 2.17zM22.5 5.999c-0.651 0-1.201 0.419-1.408 1H18.5c-0.276 0-0.5 0.224-0.5 0.5s0.224 0.5 0.5 0.5H21v8h-1.258c-0.658 0-1.303-0.267-1.768-0.732l-3.121-3.121c-0.195-0.195-0.512-0.195-0.707 0s-0.195 0.512 0 0.707l3.121 3.121c0.651 0.651 1.553 1.025 2.475 1.025H21v5H11v-2.257c0-0.935-0.364-1.814-1.025-2.475l-2.242-2.242C7.072 14.364 6.193 14 5.258 14H3V8h2.5C5.776 8 6 7.776 6 7.5S5.776 7 5.5 7H2.908C2.701 6.419 2.151 6 1.5 6 0.673 6 0 6.673 0 7.5v15C0 23.327 0.673 24 1.5 24c0.651 0 1.201-0.419 1.408-1h18.184c0.207 0.581 0.757 1 1.408 1 0.827 0 1.5-0.673 1.5-1.5v-15c0-0.827-0.673-1.5-1.5-1.501zM5.257 15c0.668 0 1.296 0.26 1.768 0.732l2.242 2.242c0.472 0.472 0.732 1.1 0.732 1.768v2.257H3v-7zM1.5 23C1.224 23 1 22.776 1 22.5v-15C1 7.224 1.224 7 1.5 7S2 7.224 2 7.5v15C2 22.776 1.776 23 1.5 23zM23 22.5c0 0.276-0.225 0.5-0.5 0.5S22 22.776 22 22.5v-15C22 7.224 22.225 7 22.5 7S23 7.224 23 7.5zM12 7c1.103 0 2-0.897 2-2s-0.897-2-2-2-2 0.897-2 2 0.897 2 2 2zM12 4c0.551 0 1 0.449 1 1s-0.449 1-1 1-1-0.449-1-1 0.449-1 1-1z" />
</svg>