<svg id="map_marker_slash_Layer_1" viewBox="0 0 24 24" fill="currentColor" width="32" height="32" data-name="Layer 1" xmlns="http://www.w3.org/2000/svg" xmlns:xlink="http://www.w3.org/1999/xlink">
    <title>map-marker-slash</title>
    <path d="M23.854 23.146l-4.268-4.268 0.192-0.177C21.856 16.632 23 13.88 23 10.954s-1.144-5.678-3.222-7.747C17.7 1.139 14.937 0 12 0S6.3 1.139 4.222 3.208C4.171 3.259 4.121 3.311 4.07 3.363L0.854 0.146c-0.196-0.195-0.512-0.195-0.708 0s-0.195 0.512 0 0.708l23 23C23.244 23.952 23.372 24 23.5 24s0.256-0.049 0.354-0.146c0.195-0.195 0.195-0.512 0-0.708zM18.878 18.17 4.778 4.07c0.05-0.052 0.1-0.103 0.151-0.154 1.889-1.881 4.4-2.917 7.072-2.917s5.183 1.036 7.071 2.917C20.961 5.796 22 8.295 22 10.954s-1.04 5.158-2.914 7.024zM17.369 20.238c0.187 0.203 0.173 0.52-0.03 0.707l-1.737 1.598C14.642 23.479 13.359 24 12 24s-2.641-0.521-3.612-1.467l-4.151-3.818C0.95 15.443 0.075 10.454 2.045 6.286 2.163 6.036 2.46 5.928 2.711 6.048c0.25 0.118 0.356 0.416 0.238 0.666-1.791 3.786-0.995 8.318 1.978 11.279l4.147 3.814c1.587 1.546 4.273 1.536 5.838 0.01l1.748-1.608c0.202-0.187 0.52-0.174 0.709 0.029z" />
</svg>