<svg id="map_marker_check_Layer_1" viewBox="0 0 24 24" fill="currentColor" width="32" height="32" data-name="Layer 1" xmlns="http://www.w3.org/2000/svg" xmlns:xlink="http://www.w3.org/1999/xlink">
    <title>map-marker-check</title>
    <path d="M12 24c-1.358 0-2.642-0.521-3.611-1.467l-4.152-3.818c-2.092-2.083-3.236-4.834-3.236-7.761s1.145-5.678 3.223-7.747C6.301 1.139 9.062 0 12 0s5.699 1.139 7.777 3.208v0C21.855 5.277 23 8.029 23 10.955s-1.145 5.678-3.223 7.747l-4.176 3.842C14.641 23.48 13.358 24.001 12 24zM12 1C9.329 1 6.817 2.036 4.928 3.917 3.04 5.797 2 8.296 2 10.955s1.04 5.158 2.928 7.038l4.148 3.814c1.586 1.546 4.271 1.536 5.838 0.01l4.172-3.838C20.96 16.113 22 13.613 22 10.955s-1.04-5.158-2.928-7.038v0C17.182 2.036 14.671 1 12 1zM11.559 13.563l6.293-6.207c0.196-0.194 0.198-0.51 5e-3-0.707-0.196-0.197-0.512-0.199-0.708-5e-3l-6.295 6.209c-0.193 0.195-0.513 0.195-0.712-5e-3L6.849 9.641C6.654 9.45 6.336 9.453 6.142 9.651c-0.192 0.198-0.188 0.514 0.01 0.707L9.44 13.56c0.293 0.293 0.677 0.439 1.062 0.439 0.383 0 0.767-0.146 1.057-0.436z" />
</svg>