<svg id="map_marker_smile_Layer_1" viewBox="0 0 24 24" fill="currentColor" width="32" height="32" data-name="Layer 1" xmlns="http://www.w3.org/2000/svg" xmlns:xlink="http://www.w3.org/1999/xlink">
    <title>map-marker-smile</title>
    <path d="M12 24c-1.358 0-2.641-0.521-3.612-1.467l-4.151-3.818C2.144 16.632 1 13.881 1 10.954s1.144-5.678 3.222-7.747C6.3 1.139 9.062 0 12 0s5.7 1.139 7.777 3.208C21.855 5.277 23 8.029 23 10.955s-1.145 5.678-3.223 7.747l-4.176 3.842C14.641 23.48 13.358 24.001 12 24zM12 1C9.328 1 6.817 2.036 4.928 3.917 3.039 5.797 2 8.296 2 10.955s1.04 5.158 2.928 7.038l4.147 3.814c1.587 1.546 4.273 1.536 5.838 0.01l4.172-3.838c1.874-1.866 2.914-4.366 2.914-7.024s-1.04-5.158-2.929-7.038C17.181 2.036 14.67 1 12 1zM16.354 12.197c0.195-0.195 0.195-0.512 0-0.707s-0.512-0.195-0.707 0C14.673 12.464 13.378 13 12.001 13s-2.672-0.536-3.646-1.51c-0.195-0.195-0.512-0.195-0.707 0s-0.195 0.512 0 0.707C8.811 13.36 10.357 14 12.002 14s3.191-0.641 4.352-1.803zM9.001 7c-0.552 0-1 0.448-1 1s0.448 1 1 1 1-0.448 1-1-0.448-1-1-1zM15.001 7c-0.552 0-1 0.448-1 1s0.448 1 1 1 1-0.448 1-1-0.448-1-1-1z" />
</svg>