<svg id="marker_hospital_Layer_1" viewBox="0 0 24 24" fill="currentColor" width="32" height="32" data-name="Layer 1" xmlns="http://www.w3.org/2000/svg" xmlns:xlink="http://www.w3.org/1999/xlink">
    <title>marker-hospital</title>
    <path d="M15 8h-1V7c0-1.103-0.897-2-2-2s-2 0.897-2 2v1H9c-1.103 0-2 0.897-2 2s0.897 2 2 2h1v1c0 1.103 0.897 2 2 2s2-0.897 2-2v-1h1c1.103 0 2-0.897 2-2s-0.897-2-2-2zM15 11h-1.5c-0.276 0-0.5 0.224-0.5 0.5V13c0 0.552-0.449 1-1 1s-1-0.448-1-1v-1.5c0-0.276-0.224-0.5-0.5-0.5H9c-0.551 0-1-0.449-1-1s0.449-1 1-1h1.5C10.776 9 11 8.776 11 8.5V7c0-0.551 0.449-1 1-1s1 0.449 1 1v1.5C13 8.776 13.224 9 13.5 9H15c0.552 0 1 0.449 1 1s-0.448 1-1 1zM12 0C6.486 0 2 4.486 2 10c0 2.869 2.35 7.245 6.617 12.321C9.487 23.356 10.784 24 12 24s2.513-0.644 3.383-1.679C19.651 17.245 22 12.869 22 10 22 4.486 17.514 0 12 0zM14.617 21.679C13.931 22.493 12.929 23 12 23s-1.932-0.507-2.617-1.321C5.267 16.781 3 12.634 3 10c0-4.962 4.038-9 9-9s9 4.038 9 9c0 2.634-2.267 6.781-6.383 11.679z" />
</svg>