<svg id="marketplace_Layer_1" viewBox="0 0 24 24" fill="currentColor" width="32" height="32" data-name="Layer 1" xmlns="http://www.w3.org/2000/svg" xmlns:xlink="http://www.w3.org/1999/xlink">
    <title>marketplace</title>
    <path d="M22 15.023V14.5c0-2.481-2.019-4.5-4.5-4.5S13 12.019 13 14.5v0.523c-0.563 0.054-1.089 0.31-1.462 0.743-0.42 0.486-0.607 1.13-0.514 1.766l0.6 4.088c0.2 1.357 1.385 2.381 2.756 2.381h6.239c1.372 0 2.557-1.023 2.756-2.381l0.6-4.088c0.094-0.636-0.094-1.279-0.514-1.766-0.374-0.433-0.899-0.689-1.461-0.743zM17.5 11c1.93 0 3.5 1.57 3.5 3.5V15h-7v-0.5c0-1.93 1.57-3.5 3.5-3.5zM22.987 17.386l-0.6 4.088C22.259 22.344 21.499 23 20.62 23h-6.239c-0.879 0-1.639-0.656-1.767-1.526l-0.6-4.088c-0.051-0.348 0.051-0.7 0.281-0.967 0.23-0.266 0.564-0.419 0.916-0.419h8.58c0.352 0 0.686 0.153 0.916 0.419 0.23 0.267 0.333 0.619 0.28 0.967zM19.5 0h-15C2.019 0 0 2.019 0 4.5v13C0 19.981 2.019 22 4.5 22h4C8.776 22 9 21.776 9 21.5S8.776 21 8.5 21h-4C2.57 21 1 19.43 1 17.5V8h22v3.5c0 0.276 0.224 0.5 0.5 0.5s0.5-0.224 0.5-0.5v-7C24 2.019 21.981 0 19.5 0zM1 7V4.5C1 2.57 2.57 1 4.5 1h15C21.43 1 23 2.57 23 4.5V7zM5 4c0 0.552-0.448 1-1 1S3 4.552 3 4 3.448 3 4 3 5 3.448 5 4zM8 4c0 0.552-0.448 1-1 1S6 4.552 6 4 6.448 3 7 3 8 3.448 8 4zM11 4c0 0.552-0.448 1-1 1S9 4.552 9 4s0.448-1 1-1 1 0.448 1 1z" />
</svg>