<svg id="marketplace_store_Layer_1" viewBox="0 0 24 24" fill="currentColor" width="32" height="32" data-name="Layer 1" xmlns="http://www.w3.org/2000/svg" xmlns:xlink="http://www.w3.org/1999/xlink">
    <title>marketplace-store</title>
    <path d="M22 19.051v-8.402c1.178-0.564 2-1.758 2-3.149 0-0.046-2.02-7.137-2.02-7.137C21.918 0.148 21.723 0 21.5 0h-19C2.276 0 2.081 0.148 2.02 0.363 2.02 0.363 0 7.454 0 7.5c0 1.391 0.822 2.585 2 3.149v8.402c-1.14 0.232-2 1.242-2 2.449 0 1.378 1.121 2.5 2.5 2.5h19c1.379 0 2.5-1.122 2.5-2.5 0-1.207-0.86-2.217-2-2.449zM1.001 7.567 2.877 1H7v2.5C7 3.776 7.224 4 7.5 4S8 3.776 8 3.5V1h8v2.5C16 3.776 16.224 4 16.5 4S17 3.776 17 3.5V1h4.123l1.876 6.567C22.964 8.915 21.856 10 20.5 10h-1C18.121 10 17 8.878 17 7.5 17 7.224 16.776 7 16.5 7S16 7.224 16 7.5c0 1.378-1.121 2.5-2.5 2.5h-3C9.121 10 8 8.878 8 7.5 8 7.224 7.776 7 7.5 7S7 7.224 7 7.5C7 8.878 5.879 10 4.5 10h-1c-1.356 0-2.464-1.085-2.499-2.433zM3.5 11h1c1.28 0 2.39-0.698 3-1.726C8.11 10.302 9.22 11 10.5 11h3c1.28 0 2.39-0.698 3-1.726 0.61 1.028 1.72 1.726 3 1.726h1c0.171 0 0.335-0.027 0.5-0.051V19h-5.5c-0.133 0-0.26 0.053-0.354 0.146L14.292 20H9.706l-0.854-0.854C8.758 19.052 8.631 19 8.498 19H3v-8.051C3.165 10.973 3.329 11 3.5 11zM21.5 23h-19C1.673 23 1 22.327 1 21.5S1.673 20 2.5 20h5.793l0.854 0.854C9.241 20.948 9.368 21 9.501 21h5c0.133 0 0.26-0.053 0.354-0.146L15.709 20h5.793c0.827 0 1.5 0.673 1.5 1.5S22.329 23 21.5 23z" />
</svg>