<svg id="marker_Layer_1" viewBox="0 0 24 24" fill="currentColor" width="32" height="32" data-name="Layer 1" xmlns="http://www.w3.org/2000/svg" xmlns:xlink="http://www.w3.org/1999/xlink">
    <title>marker</title>
    <path d="M12 24c-1.217 0-2.513-0.644-3.383-1.679C4.35 17.245 2 12.869 2 10 2 4.486 6.486 0 12 0s10 4.486 10 10c0 2.869-2.35 7.245-6.617 12.321C14.514 23.356 13.217 24 12 24zM12 1c-4.962 0-9 4.038-9 9 0 2.595 2.327 6.852 6.383 11.678 0.674 0.803 1.702 1.321 2.617 1.321s1.942-0.519 2.617-1.321C18.674 16.852 21 12.595 21 10c0-4.963-4.037-9-9-9z" />
    <path d="M12 14c-2.206 0-4-1.794-4-4s1.794-4 4-4 4 1.794 4 4-1.794 4-4 4zM12 7c-1.654 0-3 1.346-3 3s1.346 3 3 3 3-1.346 3-3-1.346-3-3-3z" />
</svg>