<svg id="marriage_proposal_Layer_1" viewBox="0 0 24 24" fill="currentColor" width="32" height="32" data-name="Layer 1" xmlns="http://www.w3.org/2000/svg" xmlns:xlink="http://www.w3.org/1999/xlink">
    <title>marriage-proposal</title>
    <path d="M17.5 9C18.879 9 20 7.878 20 6.5S18.879 4 17.5 4 15 5.122 15 6.5 16.121 9 17.5 9zM17.5 5C18.327 5 19 5.673 19 6.5S18.327 8 17.5 8 16 7.327 16 6.5 16.673 5 17.5 5zM23.5 23h-3c-0.275 0-0.5-0.224-0.5-0.5v-10c0-1.378-1.121-2.5-2.5-2.5h-6.346L7.089 7.238C6.191 6.639 5.137 6 4.001 6 2.582 6 1.394 7.071 1.24 8.467l-1.227 7.492C-0.133 17.012 0.768 18.024 1.83 18H3v5.5C3 23.776 3.224 24 3.5 24S4 23.776 4 23.5V18h2.17c1.076 0.018 1.968-0.989 1.814-2.067L6.71 8.189l4.01 2.724c0.083 0.056 0.181 0.086 0.281 0.086h4v7h-2.5c-0.827 0-1.5 0.673-1.5 1.5v4c0 0.276 0.224 0.5 0.5 0.5s0.5-0.224 0.5-0.5v-4c0-0.276 0.224-0.5 0.5-0.5h6.5v3.5c0 0.827 0.673 1.5 1.5 1.5h3c0.276 0 0.5-0.224 0.5-0.5S23.777 22.999 23.5 23zM6.994 16.073C7.063 16.551 6.653 17.012 6.17 17H1.83c-0.47 0.018-0.89-0.45-0.827-0.903L2.23 8.602c0.101-0.914 0.862-1.603 1.771-1.603 0.532 0 1.067 0.204 1.589 0.487 0 0.031 1.405 8.586 1.404 8.587zM16 18v-7h1.5c0.827 0 1.5 0.673 1.5 1.5V18zM4.5 5C5.878 5 7 3.878 7 2.5S5.878 0 4.5 0 2 1.122 2 2.5 3.122 5 4.5 5zM4.5 1C5.327 1 6 1.673 6 2.5S5.327 4 4.5 4 3 3.327 3 2.5 3.673 1 4.5 1z" />
</svg>