<svg id="mars_stroke_up_Layer_1" viewBox="0 0 24 24" fill="currentColor" width="32" height="32" data-name="Layer 1" xmlns="http://www.w3.org/2000/svg" xmlns:xlink="http://www.w3.org/1999/xlink">
    <title>mars-stroke-up</title>
    <path d="M12.5 10.018V8h3C15.776 8 16 7.776 16 7.5S15.776 7 15.5 7h-3V1.088c0.208 0.073 0.403 0.194 0.57 0.361l3.086 2.914c0.097 0.091 0.221 0.136 0.344 0.136 0.133 0 0.266-0.053 0.363-0.157 0.189-0.201 0.181-0.517-0.02-0.707l-3.075-2.903c-0.975-0.975-2.56-0.975-3.525-0.01L7.157 3.636c-0.2 0.19-0.209 0.506-0.02 0.707 0.188 0.2 0.506 0.209 0.707 0.021L10.94 1.44c0.163-0.163 0.356-0.281 0.561-0.353V7h-3c-0.276 0-0.5 0.224-0.5 0.5S8.225 8 8.501 8h3v2.018c-3.627 0.257-6.5 3.29-6.5 6.982 0 3.86 3.141 7 7 7s7-3.14 7-7c0-3.692-2.873-6.725-6.501-6.982zM12 23c-3.309 0-6-2.691-6-6s2.691-6 6-6 6 2.691 6 6-2.691 6-6 6z" />
</svg>