<svg id="mars_Layer_1" viewBox="0 0 24 24" fill="currentColor" width="32" height="32" data-name="Layer 1" xmlns="http://www.w3.org/2000/svg" xmlns:xlink="http://www.w3.org/1999/xlink">
    <title>mars</title>
    <path d="M21.5 0h-5C16.224 0 16 0.224 16 0.5S16.224 1 16.5 1h5c0.231 0 0.45 0.053 0.646 0.146l-8.003 8.003c-1.502-1.336-3.479-2.15-5.643-2.15C3.813 7 0 10.813 0 15.5S3.813 24 8.5 24 17 20.187 17 15.5c0-2.164-0.813-4.141-2.15-5.643l8.003-8.004C22.947 2.049 23 2.268 23 2.5V8c0 0.276 0.224 0.5 0.5 0.5S24 8.276 24 8V2.5C24 1.121 22.878 0 21.5 0zM8.5 23C4.364 23 1 19.636 1 15.5S4.364 8 8.5 8 16 11.364 16 15.5 12.636 23 8.5 23z" />
</svg>