<svg id="mars_stroke_right_Layer_1" viewBox="0 0 24 24" fill="currentColor" width="32" height="32" data-name="Layer 1" xmlns="http://www.w3.org/2000/svg" xmlns:xlink="http://www.w3.org/1999/xlink">
    <title>mars-stroke-right</title>
    <path d="M23.278 10.243 20.364 7.157c-0.19-0.2-0.506-0.209-0.707-0.021-0.201 0.19-0.21 0.506-0.021 0.707l2.924 3.096c0.161 0.161 0.281 0.352 0.354 0.561h-5.915v-3c0-0.276-0.224-0.5-0.5-0.5s-0.5 0.224-0.5 0.5v3h-2.018C13.724 7.873 10.691 5 6.999 5 3.14 5 0 8.14 0 12s3.14 7 7 7c3.692 0 6.725-2.873 6.982-6.5H16v3c0 0.276 0.224 0.5 0.5 0.5s0.5-0.224 0.5-0.5v-3h5.914c-0.075 0.21-0.197 0.404-0.364 0.571l-2.914 3.086c-0.189 0.201-0.18 0.517 0.021 0.707C19.754 16.955 19.877 17 20 17c0.133 0 0.265-0.053 0.364-0.157l2.904-3.076C23.74 13.295 24 12.667 24 11.999s-0.26-1.296-0.722-1.756zM7 18c-3.309 0-6-2.691-6-6s2.691-6 6-6 6 2.691 6 6-2.691 6-6 6z" />
</svg>