<svg id="martini_glass_citrus_Layer_1" viewBox="0 0 24 24" fill="currentColor" width="32" height="32" data-name="Layer 1" xmlns="http://www.w3.org/2000/svg" xmlns:xlink="http://www.w3.org/1999/xlink">
    <title>martini-glass-citrus</title>
    <path d="M17.993 0c-2.542 0-4.795 1.632-5.638 4H2.362C1.386 4 0.523 4.596 0.163 5.517-0.184 6.403 0.026 7.346 0.75 8.015l7.022 6.037c0.501 0.456 1.104 0.725 1.728 0.821V23h-4C5.224 23 5 23.224 5 23.5S5.224 24 5.5 24h9c0.276 0 0.5-0.224 0.5-0.5S14.776 23 14.5 23h-4v-8.126c0.621-0.095 1.221-0.361 1.718-0.813l3.122-2.685c0.828 0.41 1.718 0.623 2.65 0.625h3e-3c0 0 4e-3 0 7e-3 0h3e-3c3.304-5e-3 5.99-2.695 5.99-6S21.302 0 17.993 0zM11.555 13.312c-0.409 0.371-0.786 0.565-1.556 0.565s-1.152-0.198-1.565-0.574L1.39 7.245C1.009 6.893 0.899 6.383 1.095 5.882 1.254 5.475 1.681 5 2.363 5h15.275c0.682 0 1.108 0.475 1.268 0.882 0.196 0.501 0.086 1.011-0.308 1.375zM17.996 11c-0.632 0-1.241-0.12-1.818-0.346l3.111-2.675c0.684-0.633 0.894-1.576 0.547-2.462C19.476 4.596 18.612 4 17.637 4H13.42c0.786-1.793 2.575-3 4.573-3 2.757 0 5 2.243 5 5s-2.241 4.998-4.997 5z" />
</svg>