<svg id="mask_snorkel_Layer_1" viewBox="0 0 24 24" fill="currentColor" width="32" height="32" data-name="Layer 1" xmlns="http://www.w3.org/2000/svg" xmlns:xlink="http://www.w3.org/1999/xlink">
    <title>mask-snorkel</title>
    <path d="M12.567 10.479C13.006 11.403 13.962 12 15 12c3.309 0 6-2.691 6-6s-2.691-6-6-6H6C2.691 0 0 2.691 0 6s2.691 6 6.029 6c1.047 0 2.006-0.606 2.444-1.544C8.814 9.726 9.531 8.5 10.5 8.5c0.978 0 1.715 1.24 2.067 1.979zM7.567 10.032C7.293 10.62 6.689 11 6 11 3.243 11 1 8.757 1 6s2.243-5 5-5h9c2.757 0 5 2.243 5 5s-2.243 5-5 5c-0.654 0-1.255-0.373-1.53-0.95-0.795-1.668-1.822-2.55-2.97-2.55s-2.159 0.876-2.933 2.532zM24 0.5V17c0 3.859-3.141 7-7 7s-7-3.141-7-7v-2.5c0-0.276 0.224-0.5 0.5-0.5s0.5 0.224 0.5 0.5V17c0 3.309 2.691 6 6 6s6-2.691 6-6V0.5C23 0.224 23.224 0 23.5 0S24 0.224 24 0.5z" />
</svg>