<svg id="mask_face_Layer_1" viewBox="0 0 24 24" fill="currentColor" width="32" height="32" data-name="Layer 1" xmlns="http://www.w3.org/2000/svg" xmlns:xlink="http://www.w3.org/1999/xlink">
    <title>mask-face</title>
    <path d="M22.311 0.851c-1.073-0.807-2.429-1.054-3.718-0.683l-8.434 2.441C9.32 2.852 8.388 3.046 7.313 3.199 6.298 3.345 4.952 3.654 4.304 4.303 3.655 4.951 3.346 6.297 3.2 7.313 3.046 8.388 2.854 9.319 2.611 10.159L0.17 18.593c-0.373 1.29-0.125 2.646 0.683 3.719C1.66 23.385 2.893 24 4.235 24h6.704c0.18 0 4.444-0.049 8.728-4.334 4.285-4.283 4.334-8.548 4.334-8.728V4.234c0-1.343-0.616-2.576-1.69-3.383zM18.871 1.129c0.3-0.087 0.605-0.13 0.907-0.13 0.689 0 1.363 0.223 1.933 0.65 0.82 0.617 1.29 1.559 1.29 2.584v6.543l-8.409-8.407zM1.652 21.71c-0.616-0.819-0.806-1.854-0.521-2.84l1.239-4.279L10.779 23H4.235c-1.025 0-1.967-0.47-2.583-1.29zM18.96 18.959c-2.713 2.714-5.44 3.604-6.911 3.897l-9.362-9.362 0.885-3.058c0.256-0.885 0.458-1.86 0.619-2.981 0.169-1.187 0.477-2.101 0.82-2.444s1.257-0.65 2.444-0.82c1.123-0.161 2.098-0.363 2.983-0.619l3.057-0.885 9.362 9.362c-0.293 1.471-1.184 4.198-3.897 6.91z" />
    <path d="M14.565 8.027c-0.195-0.195-0.512-0.195-0.707 0L8.17 13.715c-0.195 0.195-0.195 0.512 0 0.707 0.098 0.098 0.226 0.146 0.354 0.146s0.256-0.049 0.354-0.146l5.688-5.688c0.195-0.195 0.195-0.512-1e-3-0.707z" />
    <path d="M16.819 10.988l-5.688 5.688c-0.195 0.195-0.195 0.512 0 0.707 0.098 0.098 0.226 0.146 0.354 0.146s0.256-0.049 0.354-0.146l5.688-5.688c0.195-0.195 0.195-0.512 0-0.707s-0.512-0.195-0.708 0z" />
</svg>