<svg id="massage_Layer_1" viewBox="0 0 24 24" fill="currentColor" width="32" height="32" data-name="Layer 1" xmlns="http://www.w3.org/2000/svg" xmlns:xlink="http://www.w3.org/1999/xlink">
    <title>massage</title>
    <path d="M23.443 9.536c-0.423-0.417-1.011-0.605-1.601-0.514-1.909 0.288-3.665 1.045-5.168 2.148-0.192-2.78-1.325-5.688-3.114-7.926-0.755-0.944-2.365-0.944-3.12 0-1.76 2.202-2.914 5.17-3.113 7.925-1.526-1.116-3.313-1.875-5.257-2.15-0.558-0.077-1.11 0.106-1.518 0.509-0.411 0.404-0.605 0.958-0.534 1.519 0.791 6.245 5.942 10.954 11.981 10.954 6 0 11.152-4.674 11.983-10.873 0.08-0.596-0.117-1.176-0.539-1.592zM11.221 3.867c0.373-0.467 1.185-0.467 1.558 0 1.823 2.281 2.914 5.304 2.924 8.094-1.734 1.569-3.035 3.638-3.701 5.967-0.666-2.334-1.967-4.404-3.704-5.971 0.011-2.749 1.129-5.845 2.923-8.09zM1.011 10.92c-0.032-0.249 0.051-0.504 0.243-0.681 0.259-0.239 0.64-0.236 0.676-0.231 5.294 0.75 9.325 5.423 9.56 10.98-5.314-0.257-9.773-4.499-10.479-10.068zM22.992 10.995c-0.741 5.527-5.2 9.737-10.481 9.993 0.234-5.515 4.231-10.187 9.479-10.977 0.047-7e-3 0.51-0.059 0.751 0.238 0.174 0.214 0.288 0.465 0.251 0.746z" />
</svg>