<svg id="master_plan_integrate_Layer_1" viewBox="0 0 24 24" fill="currentColor" width="32" height="32" data-name="Layer 1" xmlns="http://www.w3.org/2000/svg" xmlns:xlink="http://www.w3.org/1999/xlink">
    <title>master-plan-integrate</title>
    <path d="M24 18.5v2c0 1.93-1.57 3.5-3.5 3.5h-17C1.57 24 0 22.43 0 20.5v-2C0 16.57 1.57 15 3.5 15h2C5.776 15 6 15.224 6 15.5S5.776 16 5.5 16h-2C2.121 16 1 17.121 1 18.5v2C1 21.879 2.121 23 3.5 23h17c1.379 0 2.5-1.121 2.5-2.5v-2c0-1.379-1.121-2.5-2.5-2.5h-2c-0.276 0-0.5-0.224-0.5-0.5s0.224-0.5 0.5-0.5h2c1.93 0 3.5 1.57 3.5 3.5zM24 3.5v1C24 6.43 22.43 8 20.5 8H19v1.5c0 1.378-1.121 2.5-2.5 2.5h-4l2e-3 5.154 2.647-2.648c0.195-0.195 0.512-0.195 0.707 0s0.195 0.512 0 0.707l-2.888 2.889c-0.508 0.53-1.423 0.53-1.931 0l-2.889-2.889c-0.195-0.195-0.195-0.512 0-0.707s0.512-0.195 0.707 0l2.646 2.646L11.499 12H7.5C6.121 12 5 10.878 5 9.5V8H3.5C1.57 8 0 6.43 0 4.5v-1C0 1.57 1.57 0 3.5 0h4C9.43 0 11 1.57 11 3.5v1C11 6.43 9.43 8 7.5 8H6v1.5C6 10.327 6.673 11 7.5 11h9c0.827 0 1.5-0.673 1.5-1.5V8h-1.5C14.57 8 13 6.43 13 4.5v-1C13 1.57 14.57 0 16.5 0h4C22.43 0 24 1.57 24 3.5zM3.5 7h4C8.879 7 10 5.878 10 4.5v-1C10 2.122 8.879 1 7.5 1h-4C2.121 1 1 2.122 1 3.5v1C1 5.878 2.121 7 3.5 7zM23 3.5C23 2.122 21.879 1 20.5 1h-4C15.121 1 14 2.122 14 3.5v1C14 5.878 15.121 7 16.5 7h4C21.879 7 23 5.878 23 4.5z" />
</svg>