<svg id="master_plan_Layer_1" viewBox="0 0 24 24" fill="currentColor" width="32" height="32" data-name="Layer 1" xmlns="http://www.w3.org/2000/svg" xmlns:xlink="http://www.w3.org/1999/xlink">
    <title>master-plan</title>
    <path d="M19.5 0h-15C2.019 0 0 2.019 0 4.5v15C0 21.981 2.019 24 4.5 24h15c2.481 0 4.5-2.019 4.5-4.5v-15C24 2.019 21.981 0 19.5 0zM4.5 1h15c1.758 0 3.204 1.308 3.449 3H1.051C1.296 2.308 2.742 1 4.5 1zM19.5 23h-15C2.57 23 1 21.43 1 19.5V5h22v14.5c0 1.93-1.57 3.5-3.5 3.5zM4 8.5C4 8.224 4.224 8 4.5 8h4C8.776 8 9 8.224 9 8.5S8.776 9 8.5 9h-4C4.224 9 4 8.776 4 8.5zM14 13.5c0 0.276-0.224 0.5-0.5 0.5h-6C7.224 14 7 13.776 7 13.5S7.224 13 7.5 13h6c0.276 0 0.5 0.224 0.5 0.5zM14 18.5c0 0.276-0.224 0.5-0.5 0.5h-9C4.224 19 4 18.776 4 18.5S4.224 18 4.5 18h9c0.276 0 0.5 0.224 0.5 0.5zM19 16.571V10.5C19 9.122 17.879 8 16.5 8h-1.571c-0.224-0.86-1-1.5-1.929-1.5-1.103 0-2 0.897-2 2s0.897 2 2 2c0.929 0 1.705-0.64 1.929-1.5H16.5c0.827 0 1.5 0.673 1.5 1.5v6.071c-0.86 0.224-1.5 1-1.5 1.929 0 1.103 0.897 2 2 2s2-0.897 2-2c0-0.929-0.64-1.705-1.5-1.929zM13 9.5c-0.552 0-1-0.449-1-1s0.448-1 1-1 1 0.449 1 1-0.448 1-1 1zM18.5 19.5c-0.552 0-1-0.448-1-1s0.448-1 1-1 1 0.448 1 1-0.448 1-1 1z" />
</svg>