<svg id="match_fire_Layer_1" viewBox="0 0 24 24" fill="currentColor" width="32" height="32" data-name="Layer 1" xmlns="http://www.w3.org/2000/svg" xmlns:xlink="http://www.w3.org/1999/xlink">
    <title>match-fire</title>
    <path d="M23.929 10.243c-0.142-0.237-0.449-0.312-0.687-0.171l-13.219 7.943c-0.845 0.01-4.423 0.09-5.541 0.704-1.36 0.748-1.858 2.463-1.11 3.823 0.362 0.659 0.96 1.138 1.683 1.347 0.26 0.076 0.525 0.113 0.789 0.113 0.468 0 0.931-0.118 1.353-0.35 1.133-0.623 2.867-3.854 3.348-4.782l13.213-7.94c0.236-0.143 0.313-0.45 0.171-0.687zM6.714 22.775c-0.425 0.233-0.915 0.287-1.381 0.152s-0.851-0.443-1.084-0.869c-0.234-0.424-0.288-0.915-0.153-1.38 0.136-0.465 0.444-0.851 0.869-1.084 0.619-0.34 2.739-0.513 4.36-0.564-0.819 1.502-2 3.41-2.611 3.745zM7.904 15.853c2.313-0.486 4.219-2.291 4.854-4.598 1.111-4.042-1.756-6.913-4.061-9.22-0.22-0.22-0.435-0.435-0.64-0.645-0.326-0.334-0.794-0.478-1.253-0.379-0.457 0.097-0.827 0.417-0.989 0.854-0.276 0.742-0.405 1.479-0.52 2.129C5.029 5.51 4.87 6 4.003 6.001 3.903 5.963 3.732 5.71 3.484 4.716c-0.092-0.364-0.39-0.64-0.758-0.703-0.375-0.061-0.729 0.095-0.937 0.409C0.927 5.732-2e-3 7.88-2e-3 9.5c0 1.967 0.877 3.808 2.406 5.049 1.168 0.948 2.612 1.449 4.105 1.449 0.462 0 0.929-0.048 1.395-0.145zM3.036 13.773C1.742 12.723 1 11.165 1 9.501c0-1.293 0.784-3.2 1.549-4.407C2.753 5.901 3.077 7.001 4 7.001c1.784 0 2.037-1.44 2.281-2.833 0.111-0.637 0.228-1.297 0.472-1.954 0.062-0.166 0.202-0.212 0.259-0.224 0.058-0.012 0.205-0.028 0.331 0.1C7.55 2.303 7.768 2.52 7.99 2.743c2.231 2.234 4.761 4.766 3.803 8.248-0.536 1.95-2.143 3.475-4.094 3.885-1.672 0.349-3.37-0.051-4.663-1.103zM8.391 13.124c0.843-0.983 0.745-2.511-0.222-3.479L7.404 8.88c-0.504-0.505-1.327-0.504-1.831 0L4.807 9.645c-0.967 0.966-1.064 2.495-0.222 3.479 0.478 0.558 1.171 0.877 1.902 0.877s1.425-0.32 1.904-0.877zM7.631 12.474c-0.574 0.671-1.711 0.671-2.285 0-0.497-0.58-0.421-1.531 0.169-2.121l0.766-0.765C6.339 9.53 6.414 9.502 6.49 9.502c0.075 0 0.15 0.029 0.208 0.086l0.765 0.765c0.59 0.59 0.666 1.542 0.168 2.121z" />
</svg>