<svg id="mattress_pillow_Layer_1" viewBox="0 0 24 24" fill="currentColor" width="32" height="32" data-name="Layer 1" xmlns="http://www.w3.org/2000/svg" xmlns:xlink="http://www.w3.org/1999/xlink">
    <title>mattress-pillow</title>
    <path d="M19.5 3h-15C2.019 3 0 5.019 0 7.5v9C0 18.981 2.019 21 4.5 21h15c2.481 0 4.5-2.019 4.5-4.5v-9C24 5.019 21.981 3 19.5 3zM5.5 8C6.327 8 7 8.673 7 9.5v5C7 15.327 6.327 16 5.5 16H1V8zM1.036 17H5.5C6.878 17 8 15.879 8 14.5v-5C8 8.121 6.878 7 5.5 7H1.036C1.279 5.306 2.74 4 4.5 4H10v16H4.5c-1.76 0-3.221-1.306-3.464-3zM23 16.5c0 1.93-1.57 3.5-3.5 3.5H11V4h8.5C21.43 4 23 5.57 23 7.5z" />
</svg>