<svg id="measuring_tape_Layer_1" viewBox="0 0 24 24" fill="currentColor" width="32" height="32" data-name="Layer 1" xmlns="http://www.w3.org/2000/svg" xmlns:xlink="http://www.w3.org/1999/xlink">
    <title>measuring-tape</title>
    <path d="M9.5 9C11.736 9 14 8.313 14 7c0-2.627-9-2.627-9 0 0 1.313 2.264 2 4.5 2zM9.5 6C11.773 6 13 6.71 13 7s-1.227 1-3.5 1S6 7.29 6 7 7.227 6 9.5 6zM20.5 12H19V7c0-3.309-4.262-6-9.5-6-4.828 0-8.817 2.288-9.414 5.236C0.036 6.314 0 6.401 0 6.5v11.286C0 20.71 3.901 23 8.881 23H20.5c1.93 0 3.5-1.57 3.5-3.5v-4c0-1.93-1.57-3.5-3.5-3.5zM18 12h-3.26c1.387-0.582 2.513-1.389 3.26-2.336zM9.5 2C14.187 2 18 4.243 18 7s-3.813 5-8.5 5S1 9.757 1 7 4.813 2 9.5 2zM23 19.5c0 1.379-1.121 2.5-2.5 2.5H20v-4.5c0-0.276-0.224-0.5-0.5-0.5S19 17.224 19 17.5V22h-3v-4.5c0-0.276-0.224-0.5-0.5-0.5S15 17.224 15 17.5V22h-3v-4.5c0-0.276-0.224-0.5-0.5-0.5S11 17.224 11 17.5V22H8.881C8.583 22 8.29 21.989 8 21.97V17.5C8 17.224 7.776 17 7.5 17S7 17.224 7 17.5v4.368c-3.398-0.465-6-2.143-6-4.082V9.663c1.557 1.974 4.777 3.336 8.5 3.336h11c1.379 0 2.5 1.121 2.5 2.5z" />
</svg>