<svg id="meat_Layer_1" viewBox="0 0 24 24" fill="currentColor" width="32" height="32" data-name="Layer 1" xmlns="http://www.w3.org/2000/svg" xmlns:xlink="http://www.w3.org/1999/xlink">
    <title>meat</title>
    <path d="M11.229 1.251c-0.036 0.036 0.035-0.038 0 0zM22.776 12.774c-2.41 2.301-6.443 3.779-11.808 4.219-0.102 9e-3-0.204 0.013-0.305 0.013-0.802 0-1.577-0.261-2.211-0.74l-3.21 3.21c1.006 0.249 1.763 1.147 1.763 2.23 0 1.269-1.032 2.3-2.3 2.3s-2.3-1.031-2.3-2.3c0-0.034 0-0.068 2e-3-0.102-1.305 0.035-2.401-0.998-2.401-2.3 0-1.269 1.032-2.3 2.3-2.3 1.081 0 1.991 0.75 2.235 1.758l3.204-3.204c-0.541-0.714-0.803-1.606-0.728-2.516 0.448-5.458 1.931-9.488 4.212-11.791 2.177-2.176 6.542-1.374 9.724 1.807 1.516 1.516 2.55 3.339 2.914 5.136 0.378 1.871-9e-3 3.498-1.091 4.58zM3.499 19.804c0.071-0.165 0.107-0.333 0.107-0.5 0-0.717-0.583-1.3-1.3-1.3s-1.3 0.583-1.3 1.3c0 0.884 0.93 1.563 1.8 1.193zM4.204 20.513 3.512 21.205c-0.071 0.165-0.107 0.333-0.107 0.5 0 0.717 0.583 1.3 1.3 1.3s1.3-0.583 1.3-1.3c0-0.884-0.926-1.561-1.801-1.192zM19.279 13.986c-2.019-0.087-4.328-1.142-6.22-3.035-1.516-1.515-2.551-3.339-2.914-5.136-0.075-0.372-0.12-0.735-0.135-1.085-0.892 1.838-1.677 4.512-1.996 8.395-0.064 0.785 0.215 1.552 0.768 2.104 0.553 0.553 1.322 0.827 2.104 0.768 3.432-0.281 6.24-0.955 8.393-2.011zM22.886 8.392c-0.325-1.606-1.263-3.25-2.641-4.627-1.791-1.791-3.965-2.769-5.766-2.769-1.007 0-1.903 0.321-2.544 0.962-0.771 0.839-1.11 2.18-0.811 3.659 0.325 1.606 1.263 3.25 2.641 4.627 2.748 2.747 6.487 3.499 8.305 1.821 0.836-0.837 1.126-2.141 0.816-3.673zM15.692 5.692c-0.401 0.401-0.138 1.313 0.587 2.038s1.637 0.988 2.038 0.587 0.138-1.313-0.587-2.038-1.637-0.988-2.038-0.587z" />
</svg>