<svg id="medal_Layer_1" viewBox="0 0 24 24" fill="currentColor" width="32" height="32" data-name="Layer 1" xmlns="http://www.w3.org/2000/svg" xmlns:xlink="http://www.w3.org/1999/xlink">
    <title>medal</title>
    <path d="M22.802 0.703C22.528 0.263 22.055 0 21.537 0h-4.025c-1.342 0-2.545 0.748-3.139 1.952l-2.001 4.057c-0.123-5e-3-0.247-8e-3-0.371-8e-3s-0.248 3e-3-0.371 8e-3L9.629 1.952C9.035 0.748 7.833 0 6.49 0H2.463C1.944 0 1.472 0.263 1.198 0.703c-0.273 0.44-0.3 0.98-0.071 1.445l3.674 7.455c-1.131 1.505-1.802 3.374-1.802 5.396 0 4.962 4.038 9 9 9s9-4.038 9-9c0-2.023-0.671-3.892-1.802-5.396l3.674-7.455c0.229-0.465 0.203-1.005-0.069-1.445zM2.024 1.706C1.916 1.486 2.004 1.3 2.047 1.231S2.217 1 2.463 1h4.025C7.446 1 8.306 1.534 8.73 2.394l1.836 3.721C8.593 6.432 6.832 7.393 5.507 8.774zM12 23c-4.411 0-8-3.589-8-8 0-4.176 3.744-8 8-8s8 3.825 8 8c0 4.411-3.589 8-8 8zM21.976 1.706 18.492 8.774c-1.325-1.381-3.086-2.342-5.059-2.659l1.836-3.721C15.693 1.534 16.553 1 17.511 1h4.025c0.246 0 0.373 0.162 0.416 0.231s0.132 0.255 0.024 0.475zM15.894 13h-2.025l-0.536-1.961c-0.157-0.601-0.702-1.027-1.342-1.039-0.622 0.012-1.167 0.438-1.322 1.034L10.131 13H8.106c-0.792 0-1.283 0.635-1.283 1.224 0 0.545 0.331 1.068 0.843 1.352l1.331 0.829-0.604 1.646c-0.222 0.604-0.025 1.27 0.489 1.657 0.257 0.194 0.564 0.291 0.872 0.291 0.313 0 0.626-0.101 0.886-0.302l1.361-1.052 1.361 1.052c0.515 0.398 1.238 0.402 1.758 0.011 0.514-0.387 0.71-1.053 0.489-1.657l-0.604-1.646 1.309-0.816c0.533-0.296 0.864-0.819 0.864-1.365 0-0.589-0.491-1.224-1.284-1.224zM15.806 14.728 14.13 15.772c-0.201 0.125-0.287 0.374-0.205 0.597l0.744 2.028c0.067 0.184 5e-3 0.395-0.152 0.513-0.162 0.121-0.386 0.119-0.545-3e-3l-1.667-1.289c-0.18-0.14-0.432-0.14-0.611 0l-1.667 1.289c-0.161 0.123-0.385 0.125-0.545 3e-3-0.157-0.118-0.219-0.329-0.152-0.513l0.744-2.028c0.082-0.223-4e-3-0.472-0.205-0.597l-1.697-1.057c-0.174-0.097-0.35-0.286-0.35-0.491 0-0.06 0.067-0.224 0.283-0.224h2.407c0.226 0 0.423-0.151 0.482-0.368l0.64-2.34c0.044-0.168 0.198-0.289 0.356-0.292 0.176 3e-3 0.331 0.124 0.376 0.297l0.638 2.334c0.06 0.217 0.257 0.368 0.482 0.368h2.407c0.216 0 0.283 0.164 0.283 0.224 0 0.205-0.176 0.394-0.37 0.505z" />
</svg>