<svg id="medication_Layer_1" viewBox="0 0 24 24" fill="currentColor" width="32" height="32" data-name="Layer 1" xmlns="http://www.w3.org/2000/svg" xmlns:xlink="http://www.w3.org/1999/xlink">
    <title>medication</title>
    <path d="M10.501 23h-6c-1.93 0-3.5-1.57-3.5-3.5v-7c0-1.93 1.57-3.5 3.5-3.5 0.827 0 1.5-0.673 1.5-1.5V5h5.966l0.025 2.515C12 8.334 12.673 9 13.502 9c1.598 0 2.992 1.079 3.39 2.625 0.069 0.27 0.349 0.428 0.609 0.36 0.268-0.069 0.428-0.342 0.359-0.609-0.512-1.987-2.305-3.375-4.368-3.375-0.273 0-0.498-0.222-0.5-0.495l-0.025-2.552c1.157-0.219 2.035-1.234 2.035-2.453 0-1.378-1.121-2.5-2.5-2.5h-7c-1.378 0-2.5 1.122-2.5 2.5 0 1.207 0.86 2.217 2 2.449v2.551c0 0.276-0.224 0.5-0.5 0.5C2.019 8 0 10.019 0 12.5v7C0 21.981 2.019 24 4.501 24h6c0.276 0 0.5-0.224 0.5-0.5s-0.224-0.5-0.5-0.5zM4.001 2.5c0-0.827 0.673-1.5 1.5-1.5h7c0.827 0 1.5 0.673 1.5 1.5S13.328 4 12.501 4h-7c-0.827 0-1.5-0.673-1.5-1.5zM13.001 16c0 0.276-0.224 0.5-0.5 0.5h-3v3c0 0.276-0.224 0.5-0.5 0.5s-0.5-0.224-0.5-0.5v-3h-3c-0.276 0-0.5-0.224-0.5-0.5s0.224-0.5 0.5-0.5h3v-3c0-0.276 0.224-0.5 0.5-0.5s0.5 0.224 0.5 0.5v3h3c0.276 0 0.5 0.224 0.5 0.5zM23.041 13.96c-1.278-1.278-3.359-1.276-4.636 0l-4.444 4.444c-1.278 1.278-1.278 3.358 0 4.636 0.639 0.639 1.479 0.958 2.317 0.958s1.68-0.319 2.318-0.958l4.444-4.444c1.278-1.278 1.278-3.358 1e-3-4.636zM17.889 22.333c-0.888 0.887-2.332 0.888-3.222 0-0.884-0.848-0.884-2.374 0-3.222l1.93-1.93 3.222 3.222zM22.334 17.889l-1.807 1.807-3.222-3.222 1.807-1.807c0.888-0.887 2.333-0.888 3.222 0 0.884 0.848 0.884 2.374 0 3.222z" />
</svg>