<svg id="meditation_Layer_1" viewBox="0 0 24 24" fill="currentColor" width="32" height="32" data-name="Layer 1" xmlns="http://www.w3.org/2000/svg" xmlns:xlink="http://www.w3.org/1999/xlink">
    <title>meditation</title>
    <path d="M11.992 6c1.657 0 2.955-1.318 2.955-3s-1.298-3-2.955-3c-1.679 0-3.045 1.346-3.045 3s1.366 3 3.045 3zM11.992 1c1.096 0 1.955 0.878 1.955 2s-0.859 2-1.955 2c-1.127 0-2.045-0.897-2.045-2s0.917-2 2.045-2zM22.928 16.759C22.834 16.914 22.669 17 22.5 17c-0.088 0-0.177-0.023-0.258-0.072l-3.5-2.115c-0.08-0.048-0.145-0.118-0.187-0.201l-1.609-3.156c-0.243-0.477-0.569-0.89-0.946-1.242v8.968l5.342 2.499c0.528 0.3 0.761 0.856 0.615 1.403C21.812 23.632 21.333 24 20.767 24H9.5C9.224 24 9 23.776 9 23.5S9.224 23 9.5 23h11.268c0.155 0 0.207-0.107 0.224-0.172 0.017-0.064 0.025-0.183-0.109-0.26l-5.594-2.616c-0.176-0.082-0.288-0.259-0.288-0.453v-9.99C14.375 9.186 13.674 9 12.938 9h-1.873c-0.737 0-1.437 0.186-2.063 0.509V19.5c0 0.194-0.112 0.371-0.288 0.453l-5.63 2.635c-0.098 0.058-0.09 0.177-0.073 0.241s0.069 0.172 0.224 0.172h3.268c0.276 0 0.5 0.224 0.5 0.5s-0.224 0.5-0.5 0.5H3.232c-0.566 0-1.045-0.368-1.19-0.916-0.146-0.547 0.087-1.104 0.579-1.384l5.378-2.518v-8.969c-0.376 0.352-0.702 0.764-0.946 1.242l-1.609 3.156c-0.042 0.083-0.107 0.153-0.187 0.201l-3.5 2.115c-0.239 0.142-0.545 0.067-0.687-0.169-0.143-0.236-0.067-0.544 0.169-0.687l3.378-2.042 1.544-3.029c0.943-1.852 2.821-3.002 4.9-3.002h1.873c2.079 0 3.957 1.15 4.9 3.002l1.544 3.029 3.378 2.042c0.236 0.143 0.312 0.45 0.172 0.687z" />
</svg>