<svg id="meeting_Layer_1" viewBox="0 0 24 24" fill="currentColor" width="32" height="32" data-name="Layer 1" xmlns="http://www.w3.org/2000/svg" xmlns:xlink="http://www.w3.org/1999/xlink">
    <title>meeting</title>
    <path d="M9.499 24c0.02 0-0.02 2e-3 0 0zM19 11c1.654 0 3 1.346 3 3s-1.346 3-3 3-3-1.346-3-3 1.346-3 3-3zM17 14c0 1.103 0.897 2 2 2s2-0.897 2-2-0.897-2-2-2-2 0.897-2 2zM2 14c0-1.654 1.346-3 3-3s3 1.346 3 3-1.346 3-3 3-3-1.346-3-3zM3 14c0 1.103 0.897 2 2 2s2-0.897 2-2-0.897-2-2-2-2 0.897-2 2zM5 19c-2.562 0-4.709 1.91-4.997 4.444-0.031 0.274 0.166 0.522 0.44 0.553 0.267 0.032 0.522-0.165 0.554-0.44C1.226 21.53 2.948 20.001 5 20.001s3.773 1.529 4.003 3.556c0.029 0.255 0.245 0.444 0.496 0.444 0.274-0.031 0.529-0.282 0.498-0.556C9.709 20.911 7.561 19.001 5 19zM23.5 24c-0.02 2e-3 0.02 0 0 0zM23.997 23.444C23.709 20.91 21.561 19 19 19s-4.709 1.91-4.997 4.444c-0.031 0.274 0.166 0.522 0.44 0.553 0.272 0.032 0.521-0.165 0.554-0.44 0.229-2.027 1.951-3.556 4.003-3.556s3.773 1.529 4.003 3.556c0.029 0.255 0.246 0.444 0.497 0.444 0.274-0.031 0.528-0.282 0.497-0.557zM14.694 9l-2.02 1.746C12.484 10.915 12.242 11 12.001 11c-0.243 0-0.487-0.086-0.682-0.259L9.342 9H8.998c-1.654 0-3-1.346-3-3V3c0-1.654 1.346-3 3-3h6c1.654 0 3 1.346 3 3v3c0 1.654-1.346 3-3 3zM14.507 8h0.492c1.103 0 2-0.897 2-2V3c0-1.103-0.897-2-2-2h-6c-1.103 0-2 0.897-2 2v3c0 1.103 0.897 2 2 2h0.532c0.122 0 0.239 0.044 0.33 0.125l2.12 1.868 2.198-1.871C14.27 8.044 14.386 8 14.507 8z" />
</svg>