<svg id="meeting_alt_Layer_1" viewBox="0 0 24 24" fill="currentColor" width="32" height="32" data-name="Layer 1" xmlns="http://www.w3.org/2000/svg" xmlns:xlink="http://www.w3.org/1999/xlink">
    <title>meeting-alt</title>
    <path d="M7 13.5C7 13.224 7.224 13 7.5 13h9c0.276 0 0.5 0.224 0.5 0.5S16.776 14 16.5 14h-9C7.224 14 7 13.776 7 13.5zM7 5.5v-3C7 1.122 8.122 0 9.5 0h5C15.878 0 17 1.122 17 2.5v3C17 6.878 15.878 8 14.5 8c-0.116 0-0.369 0.041-0.458 0.115l-1.375 1.138c-0.186 0.165-0.423 0.248-0.663 0.248-0.244 0-0.489-0.086-0.684-0.259L9.958 8.115C9.869 8.041 9.616 8 9.5 8 8.122 8 7 6.878 7 5.5zM8 5.5C8 6.327 8.673 7 9.5 7c0.349 0 0.828 0.123 1.096 0.344l1.375 1.138 1.433-1.138C13.672 7.122 14.152 7 14.5 7 15.327 7 16 6.327 16 5.5v-3C16 1.673 15.327 1 14.5 1h-5C8.673 1 8 1.673 8 2.5zM19 6.5C19 5.122 20.122 4 21.5 4S24 5.122 24 6.5 22.878 9 21.5 9 19 7.878 19 6.5zM20 6.5C20 7.327 20.673 8 21.5 8S23 7.327 23 6.5 22.327 5 21.5 5 20 5.673 20 6.5zM23.5 21h-3c-0.827 0-1.5 0.673-1.5 1.5v1c0 0.276 0.224 0.5 0.5 0.5s0.5-0.224 0.5-0.5v-1c0-0.276 0.224-0.5 0.5-0.5h3c0.276 0 0.5-0.224 0.5-0.5S23.776 21 23.5 21zM24 12.5v4c0 1.378-1.122 2.5-2.5 2.5H18c-0.551 0-1 0.449-1 1v3.5c0 0.276-0.224 0.5-0.5 0.5S16 23.776 16 23.5V20c0-1.103 0.897-2 2-2h1v-5.5c0-1.378 1.122-2.5 2.5-2.5s2.5 1.122 2.5 2.5zM23 12.5c0-0.827-0.673-1.5-1.5-1.5S20 11.673 20 12.5V18h1.5c0.827 0 1.5-0.673 1.5-1.5zM3.5 21h-3C0.224 21 0 21.224 0 21.5S0.224 22 0.5 22h3C3.776 22 4 22.224 4 22.5v1C4 23.776 4.224 24 4.5 24S5 23.776 5 23.5v-1C5 21.673 4.327 21 3.5 21zM0 6.5C0 5.122 1.122 4 2.5 4S5 5.122 5 6.5 3.878 9 2.5 9 0 7.878 0 6.5zM1 6.5C1 7.327 1.673 8 2.5 8S4 7.327 4 6.5 3.327 5 2.5 5 1 5.673 1 6.5zM8 20v3.5C8 23.776 7.776 24 7.5 24S7 23.776 7 23.5V20c0-0.551-0.449-1-1-1H2.5C1.122 19 0 17.878 0 16.5v-4C0 11.122 1.122 10 2.5 10S5 11.122 5 12.5V18h1c1.103 0 2 0.897 2 2zM4 12.5C4 11.673 3.327 11 2.5 11S1 11.673 1 12.5v4C1 17.327 1.673 18 2.5 18H4z" />
</svg>