<svg id="megaphone_sound_waves_Layer_1" viewBox="0 0 24 24" fill="currentColor" width="32" height="32" data-name="Layer 1" xmlns="http://www.w3.org/2000/svg" xmlns:xlink="http://www.w3.org/1999/xlink">
    <title>megaphone-sound-waves</title>
    <path d="M16.5 1C16.224 1 16 1.224 16 1.5 16 3.129 15.432 5 11 5H3.5C1.57 5 0 6.57 0 8.5v3c0 1.403 0.835 2.607 2.03 3.165 4e-3 0.012 3e-3 0.025 8e-3 0.038l2.998 6.756C5.451 22.395 6.381 23 7.405 23c0.872 0 1.68-0.434 2.162-1.161 0.481-0.727 0.565-1.64 0.226-2.442L7.931 15h3.07c4.227 0 5 1.179 5 3.5 0 0.276 0.224 0.5 0.5 0.5s0.5-0.224 0.5-0.5v-17c0-0.276-0.224-0.5-0.501-0.5zM1 11.5v-3C1 7.122 2.122 6 3.5 6H6v8H3.5C2.122 14 1 12.878 1 11.5zM8.872 19.787c0.212 0.5 0.162 1.047-0.139 1.5C8.433 21.74 7.949 22 7.405 22c-0.629 0-1.2-0.372-1.455-0.946l-2.697-6.079C3.336 14.981 3.415 15 3.5 15h3.345zM11 14H7V6h4c2.374 0 4.034-0.551 5-1.618v11.004C14.973 14.293 13.216 14 11 14zM21.511 16.01c-0.195 0.195-0.512 0.195-0.707 0s-0.195-0.512 0-0.707c2.924-2.924 2.924-7.682 0-10.606-0.195-0.195-0.195-0.512 0-0.707s0.512-0.195 0.707 0c3.314 3.314 3.314 8.707 0 12.02zM21 10c0 1.469-0.572 2.851-1.611 3.889-0.195 0.195-0.512 0.195-0.707 0s-0.195-0.512 0-0.707C19.533 12.332 20 11.202 20 10s-0.468-2.332-1.318-3.182c-0.195-0.195-0.195-0.512 0-0.707s0.512-0.195 0.707 0C20.428 7.15 21 8.531 21 10z" />
</svg>