<svg id="megaphone_magnifying_glass_Layer_1" viewBox="0 0 24 24" fill="currentColor" width="32" height="32" data-name="Layer 1" xmlns="http://www.w3.org/2000/svg" xmlns:xlink="http://www.w3.org/1999/xlink">
    <title>megaphone-magnifying-glass</title>
    <path d="M23.854 23.146l-6.449-6.449c1.607-1.775 2.596-4.12 2.596-6.697C20 4.486 15.514 0 10 0S0 4.486 0 10 4.486 20 10 20c2.577 0 4.922-0.989 6.697-2.596l6.449 6.449c0.195 0.195 0.512 0.195 0.707 0s0.195-0.512 1e-3-0.707zM10 19c-4.962 0-9-4.037-9-9s4.038-9 9-9 9 4.038 9 9-4.038 9-9 9zM14 8c0 0 0 0 0 0V4.5c8e-3-0.335-0.322-0.547-0.633-0.5-0.223 0-0.419 0.147-0.48 0.362C12.588 5.403 11.719 6 10.501 6h-2.5c-1.654 0-3 1.346-3 3 0 0.641 0.206 1.232 0.549 1.72l1.689 4.306C7.471 15.618 8.031 16 8.667 16c1.053 0.031 1.845-1.141 1.424-2.106L9.33 12h1.17c1.217 0 2.087 0.597 2.386 1.638 0.073 0.273 0.35 0.392 0.613 0.362 0.276 0 0.5-0.224 0.5-0.5V10c0 0 0 0 0 0 0.551 0 1-0.449 1-1S14.55 8 14 8zM9.163 14.267c0.067 0.167 0.048 0.349-0.053 0.498-0.225 0.332-0.793 0.271-0.94-0.104l-1.109-2.827C7.358 11.933 7.67 11.999 8 11.999h0.252zM10.5 11H8c-1.103 0-2-0.897-2-2s0.897-2 2-2h2.5c1.021 0 1.885-0.33 2.5-0.923v5.846C12.384 11.33 11.521 11 10.5 11z" />
</svg>