<svg id="megaphone_announcement_leader_Layer_1" viewBox="0 0 24 24" fill="currentColor" width="32" height="32" data-name="Layer 1" xmlns="http://www.w3.org/2000/svg" xmlns:xlink="http://www.w3.org/1999/xlink">
    <title>megaphone-announcement-leader</title>
    <path d="M6.5 11C8.981 11 11 8.981 11 6.5S8.981 2 6.5 2 2 4.019 2 6.5 4.019 11 6.5 11zM6.5 3C8.43 3 10 4.57 10 6.5S8.43 10 6.5 10 3 8.43 3 6.5 4.57 3 6.5 3zM10.542 16.3C10.846 16.995 11 17.736 11 18.5v5c0 0.276-0.224 0.5-0.5 0.5S10 23.776 10 23.5v-5c0-0.626-0.126-1.231-0.374-1.8-0.111-0.253 5e-3-0.548 0.258-0.658 0.254-0.109 0.548 6e-3 0.658 0.258zM23 4c0 0 0 0 0 0V0.5c0-0.132-0.052-0.26-0.146-0.354S22.633 0 22.5 0c-0.223 0-0.553 0.147-0.614 0.362C21.587 1.403 20.718 2 19.5 2H17c-1.654 0-3 1.346-3 3 0 0.641 0.206 1.233 0.55 1.721l1.947 4.924c5e-3 0.013 0.019 0.02 0.026 0.032l-1.562 0.956C14.568 12.873 14.117 13 13.656 13H5.5C2.467 13 0 15.468 0 18.5v5C0 23.776 0.224 24 0.5 24S1 23.776 1 23.5v-5C1 16.019 3.019 14 5.5 14h8.155c0.645 0 1.276-0.178 1.826-0.514l3.053-1.867c0.754-0.446 0.678-1.417 0.465-1.896l-0.676-1.724H19.5c1.217 0 2.087 0.597 2.386 1.638 0.062 0.214 0.39 0.362 0.613 0.362 0.276 0 0.5-0.224 0.5-0.5v-3.5c0 0 0 0 0 0 0.551 0 1-0.449 1-1S23.55 3.999 23 4zM18.031 10.686c-0.056 0.086-0.131 0.155-0.218 0.202v0c-0.087 0.048-0.186 0.073-0.289 0.073h-0.222l-1.236-3.125C16.362 7.934 16.672 8 17 8h0.249l0.828 2.109c0.083 0.188 0.066 0.404-0.046 0.577zM21.999 7.923C21.384 7.33 20.52 7 19.5 7H17c-1.103 0-2-0.897-2-2s0.897-2 2-2h2.5c1.021 0 1.885-0.33 2.5-0.923z" />
</svg>