<svg id="meh_rolling_eyes_Layer_1" viewBox="0 0 24 24" fill="currentColor" width="32" height="32" data-name="Layer 1" xmlns="http://www.w3.org/2000/svg" xmlns:xlink="http://www.w3.org/1999/xlink">
    <title>meh-rolling-eyes</title>
    <path d="M17 6c-1.654 0-3 1.57-3 3.5s1.346 3.5 3 3.5 3-1.57 3-3.5S18.654 6 17 6zM18 8c0 0.551-0.448 1-1 1s-1-0.449-1-1c0-0.532 0.417-0.968 0.941-0.998C16.961 7.002 16.98 7 17 7s0.039 1e-3 0.059 2e-3C17.583 7.033 18 7.469 18 8zM17 12c-1.103 0-2-1.122-2-2.5 0-0.292 0.041-0.572 0.115-0.833C15.39 9.443 16.131 10 17 10s1.61-0.557 1.885-1.333C18.959 8.928 19 9.208 19 9.5c0 1.378-0.897 2.5-2 2.5zM10 9.5C10 7.57 8.654 6 7 6S4 7.57 4 9.5 5.346 13 7 13s3-1.57 3-3.5zM8 8c0 0.551-0.448 1-1 1S6 8.551 6 8c0-0.532 0.417-0.968 0.941-0.998C6.961 7.002 6.98 7 7 7s0.039 1e-3 0.059 2e-3C7.583 7.033 8 7.469 8 8zM5 9.5c0-0.292 0.041-0.572 0.115-0.833C5.39 9.443 6.131 10 7 10s1.61-0.557 1.885-1.333C8.959 8.928 9 9.208 9 9.5 9 10.878 8.103 12 7 12s-2-1.122-2-2.5zM17 16.5c0 0.276-0.224 0.5-0.5 0.5h-9C7.224 17 7 16.776 7 16.5S7.224 16 7.5 16h9c0.276 0 0.5 0.224 0.5 0.5zM12 0C5.383 0 0 5.383 0 12s5.383 12 12 12 12-5.383 12-12S18.617 0 12 0zM12 23C5.935 23 1 18.065 1 12S5.935 1 12 1 23 5.935 23 12 18.065 23 12 23z" />
</svg>