<svg id="meh_Layer_1" viewBox="0 0 24 24" fill="currentColor" width="32" height="32" data-name="Layer 1" xmlns="http://www.w3.org/2000/svg" xmlns:xlink="http://www.w3.org/1999/xlink">
    <title>meh</title>
    <path d="M16 16.5c0 0.276-0.224 0.5-0.5 0.5h-7C8.224 17 8 16.776 8 16.5S8.224 16 8.5 16h7c0.276 0 0.5 0.224 0.5 0.5zM7.5 11C6.445 11 5 11 5 9.5 5 8.122 6.121 7 7.5 7S10 8.122 10 9.5C10 11 8.555 11 7.5 11zM9 9.5C9 8.673 8.327 8 7.5 8S6 8.673 6 9.5C6 9.899 6.147 10 7.5 10S9 9.899 9 9.5zM24 12c0 6.617-5.383 12-12 12S0 18.617 0 12 5.383 0 12 0 24 5.383 24 12zM23 12c0-6.065-4.935-11-11-11S1 5.935 1 12 5.935 23 12 23s11-4.935 11-11zM19 9.5c0 1.5-1.445 1.5-2.5 1.5S14 11 14 9.5C14 8.122 15.121 7 16.5 7S19 8.122 19 9.5zM18 9.5C18 8.673 17.327 8 16.5 8S15 8.673 15 9.5c0 0.399 0.147 0.5 1.5 0.5S18 9.899 18 9.5z" />
</svg>