<svg id="melon_alt_Layer_1" viewBox="0 0 24 24" fill="currentColor" width="32" height="32" data-name="Layer 1" xmlns="http://www.w3.org/2000/svg" xmlns:xlink="http://www.w3.org/1999/xlink">
    <title>melon-alt</title>
    <path d="M21.043 2.958c-2.116-2.117-5.055-3.153-8.261-2.928-3.184 0.227-6.263 1.677-8.668 4.083C1.708 6.52 0.257 9.598 0.03 12.782c-0.226 3.181 0.928 6.26 2.969 8.301C4.458 22.542 7.501 24 10.35 24c0.287 0 0.576-0.01 0.868-0.031 3.184-0.227 6.262-1.677 8.668-4.083 4.986-4.986 5.505-12.58 1.157-16.928zM19.745 7.681c-2.219 4.436-7.631 9.848-12.065 12.065-1.905 0.953-3.396 1.179-4 0.606-5e-3-5e-3-0.011-0.01-0.016-0.015s-0.01-0.011-0.015-0.016c-0.572-0.602-0.347-2.094 0.606-4 2.217-4.435 7.629-9.847 12.064-12.065 1.211-0.605 2.255-0.917 3.01-0.917 0.443 0 0.787 0.108 1.006 0.327 0.592 0.592 0.371 2.093-0.59 4.015zM1.028 12.853c0.21-2.944 1.557-5.796 3.793-8.032s5.088-3.583 8.033-3.793C13.121 1.009 13.385 1 13.648 1c1.86 0 3.592 0.476 5.062 1.381-0.742 0.104-1.672 0.398-2.838 0.98-4.599 2.3-10.212 7.913-12.512 12.512-0.582 1.165-0.876 2.094-0.981 2.835-1.031-1.677-1.506-3.694-1.351-5.855zM19.18 19.179c-2.236 2.236-5.089 3.583-8.033 3.793-2.159 0.15-4.177-0.322-5.854-1.352 0.741-0.105 1.67-0.398 2.834-0.98 4.599-2.299 10.211-7.913 12.512-12.512 0.582-1.164 0.876-2.093 0.98-2.834 2.479 4.046 1.576 9.869-2.439 13.885z" />
</svg>