<svg id="membership_Layer_1" viewBox="0 0 24 24" fill="currentColor" width="32" height="32" data-name="Layer 1" xmlns="http://www.w3.org/2000/svg" xmlns:xlink="http://www.w3.org/1999/xlink">
    <title>membership</title>
    <path d="M12 10c1.378 0 2.5-1.121 2.5-2.5S13.378 5 12 5 9.5 6.121 9.5 7.5 10.622 10 12 10zM12 6c0.827 0 1.5 0.673 1.5 1.5S12.827 9 12 9s-1.5-0.673-1.5-1.5S11.173 6 12 6zM23.543 18.336l-3.575-3.575c-3e-3-0.222-0.014-0.445-0.063-0.662-0.12-0.527 0.122-1.088 0.601-1.396 0.448-0.29 0.813-0.684 1.083-1.172 0.255-0.461 0.388-0.99 0.386-1.528 2e-3-0.542-0.131-1.071-0.386-1.532-0.271-0.488-0.635-0.882-1.084-1.172-0.479-0.309-0.72-0.869-0.601-1.396 0.122-0.532 0.103-1.081-0.054-1.63-0.295-1.029-1.118-1.852-2.147-2.146-0.547-0.157-1.096-0.177-1.628-0.055-0.528 0.118-1.088-0.122-1.396-0.601-0.29-0.448-0.684-0.812-1.171-1.083-0.937-0.52-2.1-0.52-3.037 0-0.488 0.271-0.882 0.635-1.172 1.084-0.308 0.478-0.872 0.718-1.396 0.6C7.368 1.95 6.821 1.969 6.275 2.127 5.246 2.422 4.423 3.244 4.128 4.273 3.971 4.822 3.952 5.37 4.073 5.903c0.12 0.526-0.121 1.087-0.6 1.396-0.449 0.29-0.814 0.685-1.083 1.172C2.135 8.93 2.002 9.46 2.004 9.999c-2e-3 0.543 0.131 1.073 0.386 1.532 0.27 0.487 0.634 0.882 1.084 1.172 0.479 0.309 0.72 0.869 0.6 1.396-0.051 0.226-0.064 0.456-0.065 0.687l-3.55 3.55c-0.455 0.455-0.584 1.106-0.338 1.7C0.367 20.631 0.92 21 1.563 21h1.439v1.435c0 0.644 0.37 1.196 0.965 1.442 0.199 0.082 0.404 0.122 0.606 0.122 0.402 0 0.792-0.159 1.095-0.462l4.288-4.296c0.161 0.134 0.326 0.266 0.516 0.371 0.468 0.26 0.994 0.39 1.519 0.39s1.05-0.13 1.518-0.39c0.196-0.109 0.365-0.243 0.53-0.381l4.298 4.305c0.302 0.304 0.692 0.463 1.095 0.463 0.202 0 0.407-0.04 0.606-0.122 0.595-0.246 0.965-0.799 0.965-1.442V21h1.439c0.643 0 1.196-0.369 1.442-0.964 0.246-0.594 0.116-1.245-0.341-1.7zM4.958 22.831c-0.244 0.245-0.528 0.155-0.611 0.122C4.266 22.919 4 22.782 4 22.434v-1.935c0-0.276-0.224-0.5-0.5-0.5H1.561c-0.348 0-0.484-0.265-0.518-0.346-0.033-0.082-0.124-0.365 0.122-0.611l3.07-3.07c0.349 0.908 1.098 1.631 2.041 1.901 0.547 0.157 1.095 0.176 1.628 0.055 0.52-0.118 1.063 0.116 1.374 0.574zM13.022 18.737c-0.628 0.35-1.439 0.35-2.067 0-0.342-0.189-0.617-0.441-0.815-0.75-0.442-0.687-1.193-1.089-1.967-1.089-0.164 0-0.328 0.019-0.491 0.056-0.368 0.082-0.748 0.068-1.132-0.041-0.69-0.198-1.264-0.771-1.461-1.461-0.11-0.385-0.124-0.766-0.041-1.132 0.212-0.936-0.203-1.923-1.033-2.458-0.31-0.2-0.562-0.475-0.751-0.816-0.172-0.311-0.262-0.672-0.261-1.048-1e-3-0.372 0.088-0.733 0.261-1.044 0.189-0.342 0.442-0.616 0.751-0.816 0.831-0.535 1.246-1.522 1.033-2.457-0.083-0.367-0.069-0.748 0.041-1.133C5.287 3.859 5.86 3.285 6.55 3.087 6.934 2.978 7.316 2.964 7.681 3.046c0.934 0.213 1.922-0.202 2.458-1.033 0.199-0.309 0.473-0.561 0.816-0.75 0.628-0.35 1.439-0.35 2.067 0 0.342 0.189 0.616 0.442 0.815 0.75 0.536 0.832 1.524 1.245 2.458 1.033 0.368-0.081 0.749-0.068 1.131 0.041 0.69 0.198 1.264 0.771 1.462 1.461 0.11 0.385 0.124 0.766 0.04 1.133-0.212 0.935 0.204 1.922 1.033 2.457 0.309 0.199 0.562 0.475 0.751 0.816 0.172 0.312 0.262 0.672 0.261 1.048 1e-3 0.372-0.088 0.732-0.261 1.044-0.189 0.342-0.442 0.617-0.751 0.816-0.83 0.535-1.246 1.522-1.033 2.458 0.083 0.366 0.069 0.747-0.041 1.132-0.198 0.689-0.772 1.263-1.462 1.461-0.384 0.11-0.764 0.122-1.131 0.041-0.933-0.21-1.922 0.203-2.458 1.032-0.2 0.309-0.474 0.562-0.814 0.751zM22.958 19.654C22.924 19.735 22.788 20 22.44 20h-1.939c-0.276 0-0.5 0.224-0.5 0.5v1.935c0 0.348-0.266 0.484-0.347 0.519-0.082 0.033-0.366 0.125-0.611-0.123l-4.331-4.339c0.313-0.451 0.854-0.681 1.364-0.562 0.533 0.12 1.08 0.102 1.627-0.055 0.948-0.272 1.701-1 2.048-1.917l3.085 3.085c0.246 0.246 0.155 0.529 0.122 0.611zM12 12c-1.499 0-2.791 1.105-3.005 2.572-0.04 0.273-0.297 0.457-0.567 0.423-0.273-0.04-0.462-0.294-0.422-0.567C8.292 12.474 10.009 11 12.001 11s3.708 1.474 3.995 3.428c0.04 0.273-0.149 0.527-0.422 0.567-0.024 3e-3-0.049 5e-3-0.073 5e-3-0.244 0-0.458-0.179-0.494-0.428C14.792 13.105 13.5 12 12 12z" />
</svg>