<svg id="member_search_Layer_1" viewBox="0 0 24 24" fill="currentColor" width="32" height="32" data-name="Layer 1" xmlns="http://www.w3.org/2000/svg" xmlns:xlink="http://www.w3.org/1999/xlink">
    <title>member-search</title>
    <path d="M9 12c3.309 0 6-2.691 6-6s-2.691-6-6-6-6 2.691-6 6 2.691 6 6 6zM9 1c2.757 0 5 2.243 5 5s-2.243 5-5 5-5-2.243-5-5 2.243-5 5-5zM23.854 23.146l-3.853-3.853c0.616-0.77 1-1.733 1-2.793 0-2.481-2.019-4.5-4.5-4.5s-4.5 2.019-4.5 4.5 2.019 4.5 4.5 4.5c1.06 0 2.023-0.384 2.793-1l3.853 3.853c0.098 0.098 0.226 0.146 0.354 0.146s0.256-0.049 0.354-0.146c0.195-0.195 0.195-0.512-1e-3-0.707zM16.5 20c-1.93 0-3.5-1.57-3.5-3.5s1.57-3.5 3.5-3.5 3.5 1.57 3.5 3.5-1.57 3.5-3.5 3.5zM9.999 14.544c-0.016 0.275-0.257 0.482-0.528 0.47C9.315 15.005 9.159 15 9 15c-4.411 0-8 3.589-8 8v0.5C1 23.776 0.776 24 0.5 24S0 23.776 0 23.5V23c0-4.962 4.038-9 9-9 0.178 0 0.354 5e-3 0.529 0.016 0.276 0.016 0.486 0.253 0.47 0.528z" />
</svg>