<svg id="memo_circle_check_Layer_1" viewBox="0 0 24 24" fill="currentColor" width="32" height="32" data-name="Layer 1" xmlns="http://www.w3.org/2000/svg" xmlns:xlink="http://www.w3.org/1999/xlink">
    <title>memo-circle-check</title>
    <path d="M11 23.5c0 0.276-0.224 0.5-0.5 0.5h-6C2.019 24 0 21.981 0 19.5v-15C0 2.019 2.019 0 4.5 0h9C15.981 0 18 2.019 18 4.5v4C18 8.776 17.776 9 17.5 9S17 8.776 17 8.5v-4C17 2.57 15.43 1 13.5 1h-9C2.57 1 1 2.57 1 4.5v15C1 21.43 2.57 23 4.5 23h6c0.276 0 0.5 0.224 0.5 0.5zM14 5.5C14 5.224 13.776 5 13.5 5h-9C4.224 5 4 5.224 4 5.5S4.224 6 4.5 6h9C13.776 6 14 5.776 14 5.5zM12 10.5c0-0.276-0.224-0.5-0.5-0.5h-7C4.224 10 4 10.224 4 10.5S4.224 11 4.5 11h7c0.276 0 0.5-0.224 0.5-0.5zM4.5 15C4.224 15 4 15.224 4 15.5S4.224 16 4.5 16h4C8.776 16 9 15.776 9 15.5S8.776 15 8.5 15zM24 17.5c0 3.584-2.916 6.5-6.5 6.5S11 21.084 11 17.5 13.916 11 17.5 11 24 13.916 24 17.5zM23 17.5c0-3.032-2.468-5.5-5.5-5.5S12 14.468 12 17.5 14.468 23 17.5 23 23 20.532 23 17.5zM19.653 16.62l-2.218 2.129c-0.336 0.332-0.886 0.332-1.224 2e-3l-1.131-1.108c-0.196-0.191-0.513-0.19-0.707 8e-3-0.193 0.197-0.189 0.514 8e-3 0.707l1.131 1.108c0.362 0.354 0.838 0.531 1.312 0.531s0.95-0.178 1.31-0.532l2.213-2.124c0.199-0.19 0.205-0.508 0.014-0.707-0.19-0.198-0.507-0.205-0.708-0.014z" />
</svg>