<svg id="memory_Layer_1" viewBox="0 0 24 24" fill="currentColor" width="32" height="32" data-name="Layer 1" xmlns="http://www.w3.org/2000/svg" xmlns:xlink="http://www.w3.org/1999/xlink">
    <title>memory</title>
    <path d="M23.2 8.67C23.69 8.4 24 7.9 24 7.34V5.99c0-2.21-1.79-4-4-4H4C1.79 2 0 3.79 0 6v1.35C0 7.9 0.31 8.41 0.8 8.68 1.35 8.97 2 9.53 2 10.51s-0.65 1.53-1.2 1.83C0.31 12.61 0 13.11 0 13.67v5.85c0 1.38 1.12 2.5 2.5 2.5h19c1.38 0 2.5-1.12 2.5-2.5v-5.85c0-0.55-0.31-1.06-0.8-1.33-0.55-0.29-1.2-0.85-1.2-1.83s0.65-1.53 1.2-1.84zM21.5 21H20v-1.5c0-0.28-0.22-0.5-0.5-0.5S19 19.22 19 19.5V21h-4v-1.5c0-0.28-0.22-0.5-0.5-0.5S14 19.22 14 19.5V21h-4v-1.5c0-0.28-0.22-0.5-0.5-0.5S9 19.22 9 19.5V21H5v-1.5C5 19.22 4.78 19 4.5 19S4 19.22 4 19.5V21H2.5C1.67 21 1 20.33 1 19.5V18h22v1.5c0 0.83-0.67 1.5-1.5 1.5zM22.72 13.21C22.89 13.3 23 13.47 23 13.66v3.35H1v-3.35c0-0.19 0.1-0.35 0.27-0.45C1.91 12.86 3 12.05 3 10.5S1.92 8.14 1.27 7.79C1.1 7.7 1 7.53 1 7.34V5.99c0-1.65 1.35-3 3-3h16c1.65 0 3 1.35 3 3v1.35c0 0.19-0.1 0.35-0.28 0.45C22.08 8.14 21 8.95 21 10.5s1.08 2.36 1.72 2.71zM12.5 6.5v8c0 0.28-0.22 0.5-0.5 0.5s-0.5-0.22-0.5-0.5v-8C11.5 6.22 11.72 6 12 6s0.5 0.22 0.5 0.5zM7 6.5v8C7 14.78 6.78 15 6.5 15S6 14.78 6 14.5v-8C6 6.22 6.22 6 6.5 6S7 6.22 7 6.5zM18 6.5v8c0 0.28-0.22 0.5-0.5 0.5S17 14.78 17 14.5v-8C17 6.22 17.22 6 17.5 6S18 6.22 18 6.5z" />
</svg>