<svg id="memory_loss_Layer_1" viewBox="0 0 24 24" fill="currentColor" width="32" height="32" data-name="Layer 1" xmlns="http://www.w3.org/2000/svg" xmlns:xlink="http://www.w3.org/1999/xlink">
    <title>memory-loss</title>
    <path d="M24 13.546C24 14.131 23.588 15 22.455 15h-0.549l-0.516 2.434C20.952 19.5 19.1 21 16.988 21h-0.987v0.5c0 1.379-1.122 2.5-2.5 2.5H5.5C4.028 24 3 22.972 3 21.5v-1.28c0-0.925-0.331-1.87-0.958-2.732-1.233-1.702-1.922-3.766-1.994-5.972C0.039 11.24 0.255 11.009 0.531 11c0.253-0.021 0.507 0.207 0.516 0.483 0.065 2.004 0.689 3.877 1.805 5.416C3.603 17.934 4 19.083 4 20.219v1.28c0 1.107 0.808 1.5 1.5 1.5h8c0.827 0 1.5-0.673 1.5-1.5v-1c0-0.276 0.224-0.5 0.5-0.5h1.487c1.643 0 3.083-1.167 3.424-2.773l0.6-2.83C21.06 14.165 21.262 14 21.498 14h0.957C22.947 14 23 13.683 23 13.546c0-0.866-2.607-6.79-4.014-8.531-2.227-2.972-5.742-4.427-9.417-3.913-0.277 0.04-0.526-0.152-0.564-0.426C8.966 0.403 9.157 0.15 9.431 0.112c4.038-0.566 7.907 1.037 10.344 4.29 1.374 1.7 4.225 7.863 4.225 9.144zM1 2c0.552 0 1-0.448 1-1S1.552 0 1 0 0 0.448 0 1 0.448 2 1 2zM6 5c0 0.552 0.448 1 1 1s1-0.448 1-1-0.448-1-1-1-1 0.448-1 1zM1 8c0 0.552 0.448 1 1 1s1-0.448 1-1-0.448-1-1-1-1 0.448-1 1zM3 5c0.552 0 1-0.448 1-1S3.552 3 3 3 2 3.448 2 4 2.448 5 3 5zM6 2c0.552 0 1-0.448 1-1S6.552 0 6 0 5 0.448 5 1 5.448 2 6 2zM7 14c0.751 0 1.454-0.294 2-0.788V19.5C9 19.776 9.224 20 9.5 20s0.5-0.224 0.5-0.5v-6.511c0.82-0.048 1.537-0.408 2.095-0.989H14c1.654 0 3-1.346 3-3 0-1.304-0.844-2.447-2.076-2.846-0.613-0.821-1.563-1.283-2.667-1.127C11.69 4.379 10.868 4 10 4 9.724 4 9.5 4.224 9.5 4.5S9.724 5 10 5c0.653 0 1.267 0.322 1.642 0.862 0.118 0.17 0.33 0.251 0.53 0.2C12.345 6.02 12.489 6 12.625 6c0.635 0 1.222 0.321 1.571 0.858 0.068 0.105 0.174 0.181 0.296 0.212C15.38 7.296 16 8.09 16 9c0 1.103-0.897 2-2 2h-2.129c-0.149 0-0.291 0.066-0.386 0.182C11.056 11.702 10.423 12 9.75 12c-0.169 0-0.346-0.025-0.558-0.08-0.207-0.052-0.42 0.028-0.539 0.203C8.279 12.672 7.661 13 6.999 13c-1.103 0-2-0.897-2-2s0.897-2 2-2c0.276 0 0.5-0.224 0.5-0.5S7.275 8 6.999 8c-1.654 0-3 1.346-3 3S5.345 14 7 14z" />
</svg>