<svg id="menorah_Layer_1" viewBox="0 0 24 24" fill="currentColor" width="32" height="32" data-name="Layer 1" xmlns="http://www.w3.org/2000/svg" xmlns:xlink="http://www.w3.org/1999/xlink">
    <title>menorah</title>
    <path d="M22 5.5V6c0 5.345-4.219 9.712-9.5 9.975V23h5c0.276 0 0.5 0.224 0.5 0.5S17.776 24 17.5 24h-11C6.224 24 6 23.776 6 23.5S6.224 23 6.5 23h5v-7.025C6.219 15.712 2 11.346 2 6V5.5C2 5.224 2.224 5 2.5 5S3 5.224 3 5.5V6c0 4.794 3.771 8.713 8.5 8.975v-2C7.874 12.717 5 9.691 5 6V5.5C5 5.224 5.224 5 5.5 5S6 5.224 6 5.5V6c0 3.14 2.425 5.719 5.5 5.975V9.95C9.532 9.701 8 8.035 8 6.001v-0.5c0-0.276 0.224-0.5 0.5-0.5S9 5.225 9 5.501v0.5c0 1.483 1.084 2.71 2.5 2.949V5.501c0-0.276 0.224-0.5 0.5-0.5s0.5 0.224 0.5 0.5V8.95C13.916 8.71 15 7.484 15 6.001v-0.5c0-0.276 0.224-0.5 0.5-0.5s0.5 0.224 0.5 0.5v0.5c0 2.034-1.532 3.7-3.5 3.949v2.025C15.575 11.72 18 9.14 18 6V5.5C18 5.224 18.224 5 18.5 5S19 5.224 19 5.5V6c0 3.691-2.874 6.716-6.5 6.975v2C17.23 14.713 21 10.794 21 6V5.5C21 5.224 21.224 5 21.5 5S22 5.224 22 5.5zM12 3c0.552 0 1-0.448 1-1 0-0.341-0.381-0.896-0.673-1.271-0.166-0.213-0.489-0.213-0.655 0C11.38 1.104 10.999 1.659 10.999 2c0 0.552 0.448 1 1.001 1zM15.5 3c0.552 0 1-0.448 1-1 0-0.341-0.381-0.896-0.673-1.271-0.166-0.213-0.489-0.213-0.655 0C14.88 1.104 14.499 1.659 14.499 2c0 0.552 0.448 1 1.001 1zM18.5 3c0.552 0 1-0.448 1-1 0-0.341-0.381-0.896-0.673-1.271-0.166-0.213-0.489-0.213-0.655 0C17.88 1.104 17.499 1.659 17.499 2c0 0.552 0.448 1 1.001 1zM21.827 0.729c-0.166-0.213-0.489-0.213-0.655 0C20.88 1.104 20.499 1.659 20.499 2c0 0.552 0.448 1 1 1s1-0.448 1-1c0-0.341-0.381-0.896-0.672-1.271zM8.5 3c0.552 0 1-0.448 1-1 0-0.341-0.381-0.896-0.673-1.271-0.166-0.213-0.489-0.213-0.655 0C7.88 1.104 7.499 1.659 7.499 2c0 0.552 0.448 1 1.001 1zM5.5 3c0.552 0 1-0.448 1-1 0-0.341-0.381-0.896-0.673-1.271-0.166-0.213-0.489-0.213-0.655 0C4.88 1.104 4.499 1.659 4.499 2c0 0.552 0.448 1 1.001 1zM3.5 2c0-0.341-0.381-0.896-0.673-1.271-0.166-0.213-0.489-0.213-0.655 0C1.88 1.104 1.499 1.659 1.499 2c0 0.552 0.448 1 1 1s1-0.448 1.001-1z" />
</svg>