<svg id="menu_food_Layer_1" viewBox="0 0 24 24" fill="currentColor" width="32" height="32" data-name="Layer 1" xmlns="http://www.w3.org/2000/svg" xmlns:xlink="http://www.w3.org/1999/xlink">
    <title>menu-food</title>
    <path d="M24 4.683V14.5c0 0.276-0.224 0.5-0.5 0.5S23 14.776 23 14.5V4.683c0-1.095-0.482-2.125-1.322-2.827-0.842-0.703-1.944-0.992-3.018-0.796l-3.995 0.726C13.41 2.014 12.5 3.105 12.5 4.38V14.5c0 0.276-0.224 0.5-0.5 0.5s-0.5-0.224-0.5-0.5V4.381c0-1.275-0.91-2.366-2.165-2.594L5.34 1.061C4.264 0.865 3.163 1.155 2.322 1.856S0.999 3.587 0.999 4.683v13.373c0 1.781 1.271 3.304 3.023 3.623l6.57 1.195C11.055 22.958 11.528 23 11.999 23c0.276 0 0.5 0.224 0.5 0.5s-0.224 0.5-0.5 0.5c-0.53 0-1.064-0.048-1.585-0.143l-6.57-1.195C1.616 22.257 0 20.32 0 18.056V4.683C0 3.291 0.613 1.98 1.682 1.088 2.75 0.196 4.151-0.173 5.519 0.077l3.995 0.726c1.074 0.195 1.964 0.85 2.486 1.739 0.521-0.889 1.411-1.544 2.485-1.739l3.995-0.726c1.373-0.248 2.768 0.12 3.838 1.012C23.386 1.981 24 3.292 24 4.683zM8.603 9.062l-5-1.052C3.335 7.952 3.067 8.126 3.011 8.396 2.954 8.667 3.127 8.932 3.397 8.988l5 1.052c0.263 0.057 0.537-0.114 0.592-0.386 0.057-0.271-0.116-0.536-0.386-0.592zM8.603 13.062l-5-1.052c-0.268-0.058-0.536 0.116-0.592 0.386-0.057 0.271 0.116 0.536 0.386 0.592l5 1.052c0.263 0.057 0.537-0.114 0.592-0.386 0.057-0.271-0.116-0.536-0.386-0.592zM3.609 16.012c-0.269-0.06-0.537 0.108-0.597 0.378-0.061 0.269 0.109 0.537 0.378 0.597l3 0.674c0.262 0.061 0.538-0.107 0.597-0.378 0.061-0.269-0.109-0.537-0.378-0.597zM8.603 5.062l-5-1.052C3.335 3.953 3.067 4.126 3.011 4.396 2.954 4.667 3.127 4.932 3.397 4.988l5 1.052C8.66 6.097 8.934 5.926 8.989 5.654 9.046 5.383 8.873 5.118 8.603 5.062zM15.01 5.654c0.055 0.272 0.329 0.444 0.592 0.386l5-1.052c0.27-0.057 0.443-0.322 0.386-0.592-0.056-0.27-0.324-0.444-0.592-0.386l-5 1.052c-0.27 0.057-0.443 0.322-0.386 0.592zM21.512 16.446 19.999 15.69v-3.691c0-1.103-0.897-2-2-2s-2 0.897-2 2l-3e-3 5.977c-0.16-0.149-0.328-0.309-0.329-0.309-0.734-0.737-1.972-0.874-2.781-0.29-1.05 0.717-1.187 2.339-0.271 3.213l3.207 3.272c0.194 0.197 0.51 0.201 0.707 7e-3 0.197-0.193 0.201-0.51 8e-3-0.707l-3.211-3.275c-0.485-0.465-0.414-1.318 0.146-1.698 0.424-0.305 1.084-0.221 1.497 0.193 0 0 0.308 0.293 0.532 0.497 0.242 0.221 0.646 0.593 1.091 0.397 0.187-0.082 0.408-0.28 0.408-0.763V12c0-0.551 0.448-1 1-1s1 0.449 1 1v4c0 0.189 0.107 0.362 0.276 0.447l1.789 0.895C22.258 17.939 23 19.138 23 20.472V23.5c0 0.276 0.224 0.5 0.5 0.5s0.5-0.224 0.5-0.5v-3.028c0-1.715-0.953-3.258-2.488-4.026z" />
</svg>