<svg id="mercury_Layer_1" viewBox="0 0 24 24" fill="currentColor" width="32" height="32" data-name="Layer 1" xmlns="http://www.w3.org/2000/svg" xmlns:xlink="http://www.w3.org/1999/xlink">
    <title>mercury</title>
    <path d="M20 10c0-3.438-2.185-6.368-5.235-7.497 0.981-0.361 1.891-0.91 2.674-1.636 0.203-0.188 0.214-0.504 0.027-0.706-0.188-0.203-0.505-0.216-0.707-0.026C15.461 1.338 13.771 2.001 12 2.001S8.539 1.338 7.241 0.135c-0.203-0.189-0.52-0.177-0.707 0.026C6.346 0.363 6.358 0.68 6.561 0.867 7.344 1.594 8.254 2.142 9.235 2.503 6.184 3.632 4 6.562 4 10c0 4.242 3.322 7.714 7.5 7.975V21h-2C9.224 21 9 21.224 9 21.5S9.224 22 9.5 22h2v1.5c0 0.276 0.224 0.5 0.5 0.5s0.5-0.224 0.5-0.5V22h2c0.276 0 0.5-0.224 0.5-0.5S14.776 21 14.5 21h-2v-3.025C16.678 17.715 20 14.243 20 10zM5 10c0-3.859 3.14-7 7-7s7 3.141 7 7-3.14 7-7 7-7-3.141-7-7z" />
</svg>