<svg id="message_text_Layer_1" viewBox="0 0 24 24" fill="currentColor" width="32" height="32" data-name="Layer 1" xmlns="http://www.w3.org/2000/svg" xmlns:xlink="http://www.w3.org/1999/xlink">
    <title>message-text</title>
    <path d="M17 6.5C17 6.776 16.776 7 16.5 7h-4v8.5c0 0.276-0.224 0.5-0.5 0.5s-0.5-0.224-0.5-0.5V7h-4C7.224 7 7 6.776 7 6.5S7.224 6 7.5 6h9C16.776 6 17 6.224 17 6.5zM24 3.5v13c0 1.93-1.57 3.5-3.5 3.5h-3.532l-3.985 3.295c-0.275 0.245-0.626 0.368-0.979 0.368-0.356 0-0.715-0.126-1.001-0.38L7.106 20H3.5C1.57 20 0 18.43 0 16.5v-13C0 1.57 1.57 0 3.5 0h17C22.43 0 24 1.57 24 3.5zM23 3.5C23 2.121 21.878 1 20.5 1h-17C2.122 1 1 2.121 1 3.5v13C1 17.879 2.122 19 3.5 19h3.789c0.118 0 0.232 0.042 0.322 0.117l4.047 3.409c0.199 0.178 0.485 0.179 0.675 9e-3l4.138-3.421C16.56 19.041 16.673 19 16.789 19H20.5c1.378 0 2.5-1.121 2.5-2.5z" />
</svg>