<svg id="messages_question_Layer_1" viewBox="0 0 24 24" fill="currentColor" width="32" height="32" data-name="Layer 1" xmlns="http://www.w3.org/2000/svg" xmlns:xlink="http://www.w3.org/1999/xlink">
    <title>messages-question</title>
    <path d="M19.5 4h-1.528c-0.25-2.247-2.16-4-4.472-4h-9C2.019 0 0 2.019 0 4.5v13.854c0 0.608 0.333 1.166 0.87 1.453 0.245 0.131 0.512 0.195 0.779 0.195 0.319 0 0.637-0.093 0.913-0.276l3.524-2.35c0.409 2.063 2.233 3.623 4.414 3.623h6.849l4.09 2.727c0.275 0.184 0.594 0.276 0.913 0.276 0.267 0 0.534-0.064 0.778-0.195 0.537-0.288 0.87-0.845 0.87-1.453V8.5C24 6.019 21.981 4 19.5 4zM2.007 18.895c-0.202 0.136-0.451 0.147-0.665 0.031C1.128 18.812 1 18.598 1 18.355V4.5C1 2.57 2.57 1 4.5 1h9C15.43 1 17 2.57 17 4.5v8c0 1.93-1.57 3.5-3.5 3.5h-7c-0.175 0-0.278 0.084-0.282 0.087zM23 22.355c0 0.243-0.128 0.457-0.342 0.571-0.217 0.116-0.462 0.103-0.666-0.031l-4.215-2.811C17.695 20.029 17.598 20 17.5 20h-7c-1.76 0-3.221-1.306-3.464-3H13.5c2.481 0 4.5-2.019 4.5-4.5V5h1.5C21.43 5 23 6.57 23 8.5zM6.01 5.4c0.321-1.582 1.902-2.641 3.53-2.353 1.208 0.211 2.201 1.203 2.413 2.413 0.224 1.273-0.381 2.547-1.506 3.168C9.73 9.023 9.5 9.295 9.5 9.749c0 0.276-0.224 0.5-0.5 0.5s-0.5-0.224-0.5-0.5c0-1.191 0.953-1.715 1.464-1.997 0.762-0.42 1.156-1.252 1.003-2.119-0.141-0.803-0.798-1.461-1.6-1.602C8.266 3.839 7.204 4.543 6.99 5.598 6.935 5.869 6.672 6.044 6.4 5.989 6.129 5.933 5.955 5.67 6.01 5.4zM10 13c0 0.552-0.448 1-1 1s-1-0.448-1-1 0.448-1 1-1 1 0.448 1 1z" />
</svg>