<svg id="message_image_Layer_1" viewBox="0 0 24 24" fill="currentColor" width="32" height="32" data-name="Layer 1" xmlns="http://www.w3.org/2000/svg" xmlns:xlink="http://www.w3.org/1999/xlink">
    <title>message-image</title>
    <path d="M20.5 0h-17C1.57 0 0 1.57 0 3.5v13C0 18.43 1.57 20 3.5 20h3.606l3.897 3.283c0.286 0.254 0.645 0.38 1.001 0.38 0.353 0 0.703-0.123 0.979-0.368L16.968 20H20.5c1.93 0 3.5-1.57 3.5-3.5v-13C24 1.57 22.43 0 20.5 0zM1 3.5C1 2.121 2.122 1 3.5 1h17c1.261 0 2.306 0.938 2.475 2.154l-7.309 7.31c-0.712 0.712-1.95 0.71-2.658 0l-0.635-0.635c-1.088-1.088-2.984-1.088-4.072 0l-7.235 7.235c-0.042-0.182-0.065-0.37-0.065-0.564zM20.5 19h-3.712c-0.116 0-0.229 0.041-0.318 0.114l-4.137 3.421c-0.19 0.171-0.476 0.169-0.675-9e-3l-4.047-3.409C7.521 19.042 7.406 19 7.289 19H3.5c-0.805 0-1.523-0.383-1.98-0.976l7.487-7.487c0.71-0.711 1.948-0.711 2.658 0l0.635 0.635c1.087 1.087 2.984 1.089 4.073 0L23 4.544v11.957c0 1.379-1.121 2.5-2.5 2.499zM5 6c0-0.552 0.448-1 1-1s1 0.448 1 1-0.448 1-1 1-1-0.448-1-1z" />
</svg>