<svg id="message_question_Layer_1" viewBox="0 0 24 24" fill="currentColor" width="32" height="32" data-name="Layer 1" xmlns="http://www.w3.org/2000/svg" xmlns:xlink="http://www.w3.org/1999/xlink">
    <title>message-question</title>
    <path d="M13 17c0 0.552-0.448 1-1 1s-1-0.448-1-1 0.448-1 1-1 1 0.448 1 1zM13.059 4.137c-1.239-0.32-2.517-0.066-3.506 0.699C8.567 5.6 8 6.753 8 8 8 8.276 8.224 8.5 8.5 8.5S9 8.276 9 8c0-0.936 0.425-1.801 1.165-2.374 0.742-0.573 1.704-0.765 2.644-0.521 1.007 0.26 1.826 1.08 2.087 2.088 0.376 1.458-0.297 2.91-1.637 3.53-0.853 0.395-1.759 1.502-1.759 2.776 0 0.276 0.224 0.5 0.5 0.5s0.5-0.224 0.5-0.5c0-0.817 0.612-1.606 1.179-1.868 1.785-0.827 2.684-2.755 2.186-4.688-0.351-1.354-1.451-2.456-2.806-2.806zM24 3.5v13c0 1.93-1.57 3.5-3.5 3.5h-3.532l-3.985 3.295c-0.275 0.245-0.626 0.368-0.978 0.368-0.356 0-0.716-0.126-1.001-0.38L7.106 20H3.501c-1.93 0-3.5-1.57-3.5-3.5v-13C0 1.57 1.57 0 3.5 0h17C22.43 0 24 1.57 24 3.5zM23 3.5C23 2.121 21.879 1 20.5 1h-17C2.121 1 1 2.121 1 3.5v13C1 17.879 2.121 19 3.5 19h3.788c0.118 0 0.232 0.042 0.322 0.117l4.048 3.409c0.199 0.179 0.485 0.177 0.674 9e-3l4.138-3.421C16.56 19.041 16.672 19 16.788 19H20.5c1.379 0 2.5-1.121 2.5-2.5z" />
</svg>