<svg id="message_dollar_Layer_1" viewBox="0 0 24 24" fill="currentColor" width="32" height="32" data-name="Layer 1" xmlns="http://www.w3.org/2000/svg" xmlns:xlink="http://www.w3.org/1999/xlink">
    <title>message-dollar</title>
    <path d="M19.5 0h-15C2.02 0 0 2.02 0 4.5v11C0 17.98 2.02 20 4.5 20h2.61l3.9 3.28c0.29 0.25 0.64 0.38 1 0.38s0.7-0.12 0.98-0.37L16.98 20h2.53c2.48 0 4.5-2.02 4.5-4.5v-11c0-2.48-2.02-4.5-4.51-4.5zM23 15.5c0 1.93-1.57 3.5-3.5 3.5h-2.71c-0.12 0-0.23 0.04-0.32 0.11l-4.14 3.42c-0.19 0.17-0.48 0.17-0.67 0l-4.05-3.41C7.52 19.04 7.41 19 7.29 19H4.5C2.57 19 1 17.43 1 15.5v-11C1 2.57 2.57 1 4.5 1h15C21.43 1 23 2.57 23 4.5zM15.5 12.76C15.5 14 14.49 15 13.26 15H12.5v0.5c0 0.28-0.22 0.5-0.5 0.5s-0.5-0.22-0.5-0.5V15h-0.55c-0.98 0-1.89-0.53-2.38-1.38-0.14-0.24-0.06-0.54 0.18-0.68s0.54-0.06 0.68 0.18C9.74 13.66 10.32 14 10.95 14h2.31c0.69 0 1.24-0.56 1.24-1.24 0-0.54-0.34-1.01-0.85-1.18l-3.62-1.21C9.11 10.06 8.5 9.21 8.5 8.24 8.5 7 9.51 6 10.74 6h0.76V5.5C11.5 5.22 11.72 5 12 5s0.5 0.22 0.5 0.5V6h0.55c0.98 0 1.89 0.53 2.38 1.37 0.14 0.24 0.06 0.54-0.18 0.68s-0.54 0.06-0.68-0.18c-0.31-0.54-0.89-0.88-1.52-0.88h-2.31c-0.69 0-1.24 0.56-1.24 1.24 0 0.54 0.34 1.01 0.85 1.18l3.62 1.21c0.92 0.31 1.53 1.16 1.53 2.14z" />
</svg>