<svg id="message_sms_Layer_1" viewBox="0 0 24 24" fill="currentColor" width="32" height="32" data-name="Layer 1" xmlns="http://www.w3.org/2000/svg" xmlns:xlink="http://www.w3.org/1999/xlink">
    <title>message-sms</title>
    <path d="M15 7.5v5c0 0.276-0.224 0.5-0.5 0.5S14 12.776 14 12.5V8.635L12 11 10.002 8.633 10 12.5c0 0.276-0.224 0.5-0.5 0.5S9 12.776 9 12.5v-5C9 7.224 9.224 7 9.5 7c0.304 0 0.61 0.138 0.8 0.375L12 9.5l1.7-2.125C13.89 7.138 14.196 7 14.5 7 14.776 7 15 7.224 15 7.5zM19.165 9.555c-0.469-0.174-1.344-0.539-1.344-0.539-0.145-0.098-0.214-0.258-0.19-0.436 0.016-0.108 0.093-0.369 0.466-0.481 0.658-0.194 1.255 0.19 1.416 0.306 0.203 0.203 0.532 0.203 0.735 0s0.203-0.532 0-0.735C20.237 7.659 19.5 7.001 18.5 7.001c-0.223 0-0.459 0.025-0.702 0.098-0.645 0.194-1.101 0.712-1.191 1.333-0.085 0.601 0.186 1.15 0.746 1.506 4e-3 0 0.697 0.308 1.455 0.588 0.188 0.069 0.795 0.33 0.714 0.786-0.057 0.318-0.433 0.647-0.965 0.647-0.52 0-1.021-0.211-1.342-0.564 0 0-0.364-0.386-0.748-0.024-0.376 0.355-0.018 0.719-0.018 0.719 0.521 0.574 1.289 0.903 2.108 0.903 0.994 0 1.829-0.63 1.983-1.498 0.116-0.65-0.184-1.5-1.375-1.94zM6.203 9.555C5.734 9.381 4.859 9.016 4.859 9.016 4.714 8.918 4.645 8.758 4.669 8.58 4.685 8.472 4.762 8.211 5.135 8.099 5.793 7.905 6.39 8.289 6.551 8.405c0.203 0.203 0.532 0.203 0.735 0s0.203-0.532 0-0.735C7.275 7.659 6.538 7.001 5.538 7.001c-0.223 0-0.459 0.025-0.702 0.098-0.645 0.194-1.101 0.712-1.191 1.333-0.085 0.601 0.186 1.15 0.746 1.506 4e-3 0 0.697 0.308 1.455 0.588 0.188 0.069 0.795 0.33 0.714 0.786-0.057 0.318-0.433 0.647-0.965 0.647-0.52 0-1.021-0.211-1.342-0.564 0 0-0.364-0.386-0.748-0.024-0.376 0.355-0.018 0.719-0.018 0.719 0.521 0.574 1.289 0.903 2.108 0.903 0.994 0 1.829-0.63 1.983-1.498 0.116-0.65-0.184-1.5-1.375-1.94zM24 3.5v13c0 1.93-1.57 3.5-3.5 3.5h-3.532l-3.985 3.295c-0.275 0.245-0.626 0.368-0.979 0.368-0.356 0-0.715-0.126-1.001-0.38L7.106 20H3.5C1.57 20 0 18.43 0 16.5v-13C0 1.57 1.57 0 3.5 0h17C22.43 0 24 1.57 24 3.5zM23 3.5C23 2.121 21.878 1 20.5 1h-17C2.122 1 1 2.121 1 3.5v13C1 17.879 2.122 19 3.5 19h3.789c0.118 0 0.232 0.042 0.322 0.117l4.047 3.409c0.2 0.178 0.484 0.179 0.675 9e-3l4.138-3.421C16.56 19.041 16.673 19 16.789 19H20.5c1.378 0 2.5-1.121 2.5-2.5z" />
</svg>