<svg id="message_heart_Layer_1" viewBox="0 0 24 24" fill="currentColor" width="32" height="32" data-name="Layer 1" xmlns="http://www.w3.org/2000/svg" xmlns:xlink="http://www.w3.org/1999/xlink">
    <title>message-heart</title>
    <path d="M20.5 0h-17C1.57 0 0 1.57 0 3.5v13C0 18.43 1.57 20 3.5 20h3.605l3.898 3.283c0.285 0.254 0.645 0.38 1.001 0.38 0.352 0 0.702-0.123 0.978-0.368L16.967 20h3.532c1.93 0 3.5-1.57 3.5-3.5v-13c0-1.93-1.57-3.5-3.499-3.5zM23 16.5c0 1.379-1.121 2.5-2.5 2.5h-3.712c-0.116 0-0.229 0.041-0.318 0.114l-4.138 3.421c-0.188 0.168-0.474 0.17-0.674-9e-3L7.61 19.117C7.52 19.042 7.406 19 7.288 19H3.5C2.121 19 1 17.879 1 16.5v-13C1 2.121 2.121 1 3.5 1h17C21.879 1 23 2.121 23 3.5zM14.75 5C13.551 5 12.561 5.551 12 6.434 11.439 5.551 10.449 5 9.25 5 7.458 5 6 6.57 6 8.5c0 3.363 5.479 7.246 5.713 7.409C11.799 15.97 11.9 16 12 16s0.201-0.03 0.287-0.091C12.52 15.746 18 11.863 18 8.5 18 6.57 16.542 5 14.75 5zM12 14.883C10.374 13.68 7 10.72 7 8.5 7 7.121 8.01 6 9.25 6c1.325 0 2.25 0.916 2.25 2.228V8.5C11.5 8.776 11.724 9 12 9s0.5-0.224 0.5-0.5V8.228C12.5 6.916 13.425 6 14.75 6 15.99 6 17 7.121 17 8.5c0 2.22-3.374 5.18-5 6.383z" />
</svg>