<svg id="message_slash_Layer_1" viewBox="0 0 24 24" fill="currentColor" width="32" height="32" data-name="Layer 1" xmlns="http://www.w3.org/2000/svg" xmlns:xlink="http://www.w3.org/1999/xlink">
    <title>message-slash</title>
    <path d="M23.854 23.146l-3.611-3.611c1.071-0.616 1.758-1.769 1.758-3.035v-11c0-1.93-1.57-3.5-3.5-3.5H5.5C4.74 2 4.007 2.246 3.404 2.697l-2.55-2.551c-0.196-0.195-0.512-0.195-0.708 0s-0.195 0.512 0 0.708l23 23C23.244 23.952 23.372 24 23.5 24s0.256-0.049 0.354-0.146c0.195-0.195 0.195-0.512 0-0.708zM5.5 3h13C19.879 3 21 4.121 21 5.5v11c0 0.998-0.596 1.897-1.501 2.292L4.121 3.414C4.528 3.145 5.006 3 5.5 3zM16.309 19.182c0.176 0.213 0.146 0.527-0.067 0.704l-3.379 2.793c-0.241 0.215-0.548 0.322-0.857 0.322-0.313 0-0.63-0.11-0.881-0.335L7.959 20H5.501c-1.93 0-3.5-1.57-3.5-3.5v-10c0-0.276 0.224-0.5 0.5-0.5s0.5 0.224 0.5 0.5v10c0 1.379 1.121 2.5 2.5 2.5h2.641c0.118 0 0.232 0.042 0.322 0.117l3.315 2.793c0.131 0.118 0.312 0.114 0.434 0.01l3.393-2.806c0.211-0.177 0.526-0.146 0.703 0.068z" />
</svg>