<svg id="message_code_Layer_1" viewBox="0 0 24 24" fill="currentColor" width="32" height="32" data-name="Layer 1" xmlns="http://www.w3.org/2000/svg" xmlns:xlink="http://www.w3.org/1999/xlink">
    <title>message-code</title>
    <path d="M14.831 15c-0.128 0-0.256-0.049-0.354-0.146-0.195-0.195-0.195-0.512 0-0.707l3.083-3.083c0.585-0.585 0.585-1.537 0-2.122l-3.088-3.088c-0.195-0.195-0.195-0.512 0-0.707s0.512-0.195 0.707 0l3.088 3.088c0.975 0.975 0.975 2.562 0 3.536l-3.083 3.083C15.086 14.952 14.958 15 14.831 15zM9.523 14.854c0.195-0.195 0.195-0.512 0-0.707L6.44 11.064c-0.585-0.585-0.585-1.537 0-2.122l3.088-3.088c0.195-0.195 0.195-0.512 0-0.707s-0.512-0.195-0.707 0L5.733 8.235c-0.975 0.975-0.975 2.562 0 3.536l3.083 3.083C8.914 14.952 9.042 15 9.17 15s0.256-0.049 0.353-0.146zM12.983 23.295 16.968 20H20.5c1.93 0 3.5-1.57 3.5-3.5v-13C24 1.57 22.43 0 20.5 0h-17C1.57 0 0 1.57 0 3.5v13C0 18.43 1.57 20 3.5 20h3.606l3.897 3.283c0.286 0.254 0.645 0.38 1.001 0.38 0.353 0 0.703-0.123 0.979-0.368zM20.5 1C21.878 1 23 2.121 23 3.5v13c0 1.379-1.122 2.5-2.5 2.5h-3.711c-0.116 0-0.229 0.041-0.318 0.114l-4.138 3.421c-0.19 0.17-0.475 0.169-0.675-9e-3l-4.047-3.409C7.521 19.042 7.406 19 7.289 19H3.5C2.122 19 1 17.879 1 16.5v-13C1 2.121 2.122 1 3.5 1z" />
</svg>