<svg id="message_square_refresh_Layer_1" viewBox="0 0 24 24" fill="currentColor" width="32" height="32" data-name="Layer 1" xmlns="http://www.w3.org/2000/svg" xmlns:xlink="http://www.w3.org/1999/xlink">
    <title>message-square-refresh</title>
    <path d="M19.5 0h-15C2.019 0 0 2.019 0 4.5v17.85c0 0.932 0.692 1.647 1.643 1.647 0.324 0 0.649-0.096 0.937-0.289l5.083-3.709H19.5c2.481 0 4.5-2.019 4.5-4.5V4.5C24 2.019 21.981 0 19.5 0zM23 15.5c0 1.93-1.57 3.5-3.5 3.5h-12c-0.106 0-0.209 0.034-0.295 0.096l-5.198 3.793c-0.203 0.135-0.451 0.147-0.665 0.032S1 22.593 1 22.35V4.5C1 2.57 2.57 1 4.5 1h15C21.43 1 23 2.57 23 4.5zM18 4.5V8c0 0.551-0.449 1-1 1h-3.5C13.224 9 13 8.776 13 8.5S13.224 8 13.5 8h3.069C15.78 6.191 14.01 5 12 5 9.243 5 7 7.243 7 10s2.243 5 5 5c2.228 0 4.207-1.495 4.812-3.636 0.074-0.267 0.349-0.421 0.617-0.345 0.266 0.075 0.42 0.351 0.345 0.617C17.047 14.205 14.673 16 12 16c-3.309 0-6-2.691-6-6s2.691-6 6-6c2.062 0 3.911 1.047 5 2.704V4.5C17 4.224 17.224 4 17.5 4S18 4.224 18 4.5z" />
</svg>