<svg id="messages_dollar_Layer_1" viewBox="0 0 24 24" fill="currentColor" width="32" height="32" data-name="Layer 1" xmlns="http://www.w3.org/2000/svg" xmlns:xlink="http://www.w3.org/1999/xlink">
    <title>messages-dollar</title>
    <path d="M19.5 4h-1.55c-0.25-2.25-2.14-4-4.45-4h-9C2.02 0 0 2.02 0 4.5v13.85c0 0.61 0.33 1.17 0.87 1.45 0.24 0.13 0.51 0.2 0.78 0.2 0.32 0 0.64-0.09 0.91-0.28l3.53-2.35c0.41 2.06 2.23 3.62 4.41 3.62h6.85l4.09 2.73C21.72 23.9 22.03 24 22.35 24c0.27 0 0.53-0.06 0.78-0.2 0.54-0.29 0.87-0.84 0.87-1.45V8.5C24 6.02 21.98 4 19.5 4zM2.01 18.89c-0.2 0.13-0.45 0.15-0.67 0.03C1.13 18.81 1 18.59 1 18.35V4.5C1 2.57 2.57 1 4.5 1h9C15.43 1 17 2.57 17 4.5v8c0 1.93-1.57 3.5-3.5 3.5h-7c-0.09 0-0.17 0.03-0.25 0.08 0 0-0.02 0-0.03 0zM23 22.35c0 0.24-0.13 0.46-0.34 0.57-0.21 0.12-0.46 0.1-0.67-0.03l-4.22-2.81C17.69 20.03 17.59 20 17.49 20h-7c-1.76 0-3.2-1.31-3.45-3h6.45c2.48 0 4.5-2.02 4.5-4.5V5h1.5c1.93 0 3.5 1.57 3.5 3.5zM7.95 13c-0.98 0-1.89-0.53-2.38-1.37-0.14-0.24-0.06-0.54 0.18-0.68s0.54-0.06 0.68 0.18c0.31 0.54 0.89 0.88 1.52 0.88h2.31c0.69 0 1.24-0.56 1.24-1.24 0-0.54-0.34-1.01-0.85-1.18L7.03 8.38C6.11 8.07 5.5 7.22 5.5 6.25c0-1.24 1.01-2.24 2.24-2.24H8.5v-0.5c0-0.28 0.22-0.5 0.5-0.5s0.5 0.22 0.5 0.5v0.5h0.55c0.98 0 1.89 0.53 2.38 1.37 0.14 0.24 0.06 0.54-0.18 0.68s-0.54 0.06-0.68-0.18c-0.31-0.54-0.89-0.87-1.52-0.87H7.74c-0.69 0-1.24 0.56-1.24 1.24 0 0.54 0.34 1.01 0.85 1.18l3.62 1.21c0.92 0.31 1.53 1.16 1.53 2.13 0 1.24-1.01 2.24-2.24 2.24H9.5v0.5c0 0.28-0.22 0.5-0.5 0.5s-0.5-0.22-0.5-0.5v-0.5z" />
</svg>