<svg id="messages_Layer_1" viewBox="0 0 24 24" fill="currentColor" width="32" height="32" data-name="Layer 1" xmlns="http://www.w3.org/2000/svg" xmlns:xlink="http://www.w3.org/1999/xlink">
    <title>messages</title>
    <path d="M19.5 3.998h-1.528c-0.249-2.247-2.16-4-4.472-4h-9c-2.481 0-4.5 2.019-4.5 4.5v13.854c0 0.609 0.333 1.166 0.871 1.453C1.115 19.936 1.382 20 1.648 20c0.319 0 0.638-0.093 0.914-0.277l3.524-2.349c0.409 2.063 2.233 3.623 4.414 3.623h6.849l4.089 2.726C21.714 23.908 22.032 24 22.352 24c0.266 0 0.533-0.064 0.777-0.195C23.666 23.518 24 22.961 24 22.352V8.498c0-2.481-2.019-4.5-4.5-4.5zM2.007 18.892c-0.203 0.135-0.45 0.148-0.665 0.032C1.128 18.81 1 18.596 1 18.353V4.498c0-1.93 1.57-3.5 3.5-3.5h9c1.93 0 3.5 1.57 3.5 3.5v8c0 1.93-1.57 3.5-3.5 3.5H6.563c-0.154 0-0.285 0.054-0.345 0.087zM23 22.353c0 0.243-0.128 0.457-0.342 0.571-0.214 0.115-0.463 0.102-0.665-0.032l-4.215-2.81c-0.082-0.055-0.179-0.084-0.277-0.084h-7c-1.76 0-3.221-1.306-3.464-3h6.464c2.481 0 4.5-2.019 4.5-4.5v-7.5h1.5c1.93 0 3.5 1.57 3.5 3.5z" />
</svg>