<svg id="meteor_Layer_1" viewBox="0 0 24 24" fill="currentColor" width="32" height="32" data-name="Layer 1" xmlns="http://www.w3.org/2000/svg" xmlns:xlink="http://www.w3.org/1999/xlink">
    <title>meteor</title>
    <path d="M8.86 24.008c-2.272 0-4.544-0.865-6.274-2.595-3.459-3.459-3.459-9.089 0-12.548 2.171-2.17 7.08-5.303 10.012-7.175l0.633-0.404c0.563-0.36 1.249-0.382 1.833-0.063C15.65 1.544 16 2.135 16 2.804v0.812l5.55-3.345c0.632-0.412 1.438-0.331 1.987 0.214 0.55 0.545 0.638 1.35 0.219 2.001l-3.367 5.531h0.807c0.669 0 1.26 0.35 1.581 0.937 0.32 0.585 0.297 1.271-0.063 1.833l-0.335 0.523c-1.888 2.957-5.048 7.906-7.246 10.104-1.729 1.729-4.001 2.595-6.273 2.594zM14.2 2c-0.149 0-0.297 0.043-0.43 0.128l-0.634 0.405c-2.898 1.85-7.749 4.946-9.843 7.039-3.069 3.07-3.069 8.065 0 11.134 3.069 3.07 8.064 3.07 11.133 0 2.121-2.121 5.244-7.012 7.11-9.935l0.335-0.524c0.16-0.25 0.171-0.555 0.028-0.814-0.143-0.261-0.406-0.416-0.704-0.416h-1.696c-0.181 0-0.347-0.098-0.436-0.255-0.088-0.157-0.085-0.351 9e-3-0.505l3.836-6.302c0.2-0.312 0.091-0.596-0.075-0.761-0.167-0.166-0.451-0.273-0.752-0.076l-6.324 3.811c-0.153 0.092-0.346 0.095-0.504 7e-3-0.157-0.089-0.254-0.255-0.254-0.436V2.804c0-0.298-0.155-0.561-0.416-0.703C14.461 2.034 14.33 2 14.2 2zM9 19c-2.206 0-4-1.794-4-4s1.794-4 4-4 4 1.794 4 4-1.794 4-4 4zM9 12c-1.654 0-3 1.346-3 3s1.346 3 3 3 3-1.346 3-3-1.346-3-3-3z" />
</svg>