<svg id="meter_bolt_Layer_1" viewBox="0 0 24 24" fill="currentColor" width="32" height="32" data-name="Layer 1" xmlns="http://www.w3.org/2000/svg" xmlns:xlink="http://www.w3.org/1999/xlink">
    <title>meter-bolt</title>
    <path d="M18.912 21.205c0.156 0.229 0.099 0.539-0.129 0.695C16.781 23.274 14.436 24 12 24 5.383 24 0 18.617 0 12S5.383 0 12 0 24 5.383 24 12c0 0.879-0.096 1.757-0.284 2.608-0.06 0.27-0.329 0.438-0.596 0.38-0.27-0.06-0.44-0.327-0.38-0.597 0.173-0.78 0.261-1.585 0.261-2.392 0-6.065-4.935-11-11-11S1 5.935 1 12 5.935 23 12 23c2.232 0 4.382-0.665 6.217-1.924 0.229-0.156 0.539-0.098 0.695 0.129zM7 7.5v3C7 10.776 7.224 11 7.5 11S8 10.776 8 10.5v-3C8 7.224 7.776 7 7.5 7S7 7.224 7 7.5zM10 7.5v3c0 0.276 0.224 0.5 0.5 0.5s0.5-0.224 0.5-0.5v-3C11 7.224 10.776 7 10.5 7S10 7.224 10 7.5zM13 7.5v3c0 0.276 0.224 0.5 0.5 0.5s0.5-0.224 0.5-0.5v-3C14 7.224 13.776 7 13.5 7S13 7.224 13 7.5zM16 7.5v3c0 0.276 0.224 0.5 0.5 0.5s0.5-0.224 0.5-0.5v-3C17 7.224 16.776 7 16.5 7S16 7.224 16 7.5zM4 7.5v3C4 10.776 4.224 11 4.5 11S5 10.776 5 10.5v-3C5 7.224 4.776 7 4.5 7S4 7.224 4 7.5zM22.429 17h-3.837c-0.189 0-0.362-0.087-0.475-0.238-0.097-0.132-0.135-0.292-0.108-0.449l3.392-4.512c0.166-0.221 0.121-0.534-0.1-0.7-0.22-0.168-0.534-0.12-0.7 0.099 0 0-3.514 4.693-3.531 4.75-0.147 0.486-0.058 1 0.245 1.408s0.769 0.643 1.277 0.643h3.837c0.213 0 0.401 0.112 0.501 0.3 0.101 0.188 0.091 0.407-7e-3 0.558l-3.32 4.339c-0.168 0.219-0.126 0.533 0.093 0.701 0.09 0.069 0.197 0.103 0.303 0.103 0.15 0 0.299-0.067 0.397-0.196l3.339-4.366c0.32-0.482 0.349-1.1 0.075-1.61s-0.804-0.827-1.381-0.83z" />
</svg>