<svg id="microchip_ai_Layer_1" viewBox="0 0 24 24" fill="currentColor" width="32" height="32" data-name="Layer 1" xmlns="http://www.w3.org/2000/svg" xmlns:xlink="http://www.w3.org/1999/xlink">
    <title>microchip-ai</title>
    <path d="M23.5 9C23.776 9 24 8.776 24 8.5S23.776 8 23.5 8H22V6.5c0-0.169-0.01-0.336-0.028-0.5H23.5C23.776 6 24 5.776 24 5.5S23.776 5 23.5 5h-1.757C21.29 3.723 20.277 2.71 19 2.257V0.5C19 0.224 18.776 0 18.5 0S18 0.224 18 0.5v1.528C17.836 2.01 17.669 2 17.5 2H16V0.5C16 0.224 15.776 0 15.5 0S15 0.224 15 0.5V2h-2.5V0.5C12.5 0.224 12.276 0 12 0s-0.5 0.224-0.5 0.5V2H9V0.5C9 0.224 8.776 0 8.5 0S8 0.224 8 0.5V2H6.5C6.331 2 6.164 2.01 6 2.028V0.5C6 0.224 5.776 0 5.5 0S5 0.224 5 0.5v1.757C3.723 2.71 2.71 3.723 2.257 5H0.5C0.224 5 0 5.224 0 5.5S0.224 6 0.5 6h1.528C2.01 6.164 2 6.331 2 6.5V8H0.5C0.224 8 0 8.224 0 8.5S0.224 9 0.5 9H2v2.5H0.5C0.224 11.5 0 11.724 0 12s0.224 0.5 0.5 0.5H2V15H0.5C0.224 15 0 15.224 0 15.5S0.224 16 0.5 16H2v1.5c0 0.169 0.01 0.336 0.028 0.5H0.5C0.224 18 0 18.224 0 18.5S0.224 19 0.5 19h1.757C2.71 20.277 3.723 21.29 5 21.743V23.5C5 23.776 5.224 24 5.5 24S6 23.776 6 23.5v-1.528C6.164 21.99 6.331 22 6.5 22H8v1.5C8 23.776 8.224 24 8.5 24S9 23.776 9 23.5V22h2.5v1.5c0 0.276 0.224 0.5 0.5 0.5s0.5-0.224 0.5-0.5V22H15v1.5c0 0.276 0.224 0.5 0.5 0.5s0.5-0.224 0.5-0.5V22h1.5c0.169 0 0.336-0.01 0.5-0.028V23.5c0 0.276 0.224 0.5 0.5 0.5s0.5-0.224 0.5-0.5v-1.757c1.277-0.453 2.29-1.466 2.743-2.743H23.5c0.276 0 0.5-0.224 0.5-0.5S23.776 18 23.5 18h-1.528C21.99 17.836 22 17.669 22 17.5V16h1.5c0.276 0 0.5-0.224 0.5-0.5S23.776 15 23.5 15H22v-2.5h1.5c0.276 0 0.5-0.224 0.5-0.5s-0.224-0.5-0.5-0.5H22V9zM17.5 21h-11C4.57 21 3 19.43 3 17.5v-11C3 4.57 4.57 3 6.5 3h11C19.43 3 21 4.57 21 6.5v11c0 1.93-1.57 3.5-3.5 3.5zM17 7.5v9c0 0.276-0.224 0.5-0.5 0.5S16 16.776 16 16.5v-9C16 7.224 16.224 7 16.5 7S17 7.224 17 7.5zM11.838 8.372c-0.215-0.812-1.022-1.376-1.857-1.371C9.199 7.03 8.484 7.606 8.283 8.364l-2.265 8c-0.075 0.266 0.079 0.542 0.345 0.617C6.408 16.994 6.454 17 6.5 17c0.218 0 0.418-0.144 0.48-0.364l0.744-2.628c0 0 1e-3 0 2e-3 0h4.587l0.703 2.622c0.072 0.266 0.346 0.421 0.612 0.354 0.267-0.072 0.425-0.346 0.354-0.613zM8.008 13.008l1.24-4.38c0.091-0.345 0.423-0.614 0.77-0.627 0.378-0.033 0.756 0.262 0.854 0.629l1.174 4.378z" />
</svg>