<svg id="microphone_alt_Layer_1" viewBox="0 0 24 24" fill="currentColor" width="32" height="32" data-name="Layer 1" xmlns="http://www.w3.org/2000/svg" xmlns:xlink="http://www.w3.org/1999/xlink">
    <title>microphone-alt</title>
    <path d="M19.257 17c-1.266 0-2.457 0.493-3.354 1.389C12.93 21.363 8.977 23 4.771 23h-2.15c-0.799 0-1.298-0.518-1.498-1.001-0.201-0.483-0.213-1.202 0.351-1.767l1.236-1.236c1.834-0.059 3.71-0.883 5.057-2.229l5.026-5.025c0.459 0.145 0.94 0.231 1.437 0.253 0.08 3e-3 0.159 5e-3 0.238 5e-3 1.46 0 2.873-0.582 3.909-1.618l1.004-1.005c1.092-1.091 1.68-2.603 1.613-4.146-0.068-1.565-0.77-2.985-1.977-4-2.168-1.82-5.521-1.593-7.633 0.518l-0.636 0.637c-1.586 1.586-2.109 3.871-1.5 5.829l-5.017 5.017c-1.346 1.346-2.17 3.222-2.229 5.057l-1.236 1.236c-0.764 0.764-0.981 1.858-0.568 2.856s1.341 1.618 2.422 1.618h2.15c4.473 0 8.677-1.742 11.839-4.904 0.708-0.706 1.647-1.096 2.646-1.096 2.063 0 3.743 1.679 3.743 3.742v1.758c0 0.276 0.224 0.5 0.5 0.5s0.5-0.224 0.5-0.5v-1.758c0-2.615-2.127-4.742-4.741-4.741zM12.781 11.739c0 0 0 0 1e-3 0-1e-3 0-2e-3 1e-3-1e-3 0zM11.456 3.093l0.636-0.637C13.055 1.493 14.325 1 15.569 1c1.013 0 2.009 0.328 2.806 0.997 0.99 0.832 1.565 1.996 1.621 3.277 0.055 1.265-0.427 2.502-1.321 3.396l-1.004 1.005c-0.895 0.895-2.14 1.376-3.397 1.321-1.282-0.056-2.445-0.632-3.276-1.621-1.491-1.774-1.289-4.534 0.458-6.282zM9.252 8.225c0 0 0 0 0 0s0 0 0 0zM4.939 13.94 9.672 9.206c0.158 0.284 0.344 0.557 0.559 0.812 0.451 0.537 0.983 0.974 1.572 1.3L7.06 16.061c-1.085 1.086-2.563 1.78-4.036 1.915 0.135-1.474 0.83-2.951 1.915-4.036z" />
</svg>