<svg id="microchip_Layer_1" viewBox="0 0 24 24" fill="currentColor" width="32" height="32" data-name="Layer 1" xmlns="http://www.w3.org/2000/svg" xmlns:xlink="http://www.w3.org/1999/xlink">
    <title>microchip</title>
    <path d="M16.5 7h-9C7.22 7 7 7.22 7 7.5v9C7 16.78 7.22 17 7.5 17h9c0.28 0 0.5-0.22 0.5-0.5v-9C17 7.22 16.78 7 16.5 7zM16 16H8V8h8zM23.5 11c0.28 0 0.5-0.22 0.5-0.5S23.78 10 23.5 10H22V8h1.5C23.78 8 24 7.78 24 7.5S23.78 7 23.5 7H22V6.5C22 4.02 19.98 2 17.5 2H17V0.5C17 0.22 16.78 0 16.5 0S16 0.22 16 0.5V2h-2V0.5C14 0.22 13.78 0 13.5 0S13 0.22 13 0.5V2h-2V0.5C11 0.22 10.78 0 10.5 0S10 0.22 10 0.5V2H8V0.5C8 0.22 7.78 0 7.5 0S7 0.22 7 0.5V2H6.5C4.02 2 2 4.02 2 6.5V7H0.5C0.22 7 0 7.22 0 7.5S0.22 8 0.5 8H2v2H0.5C0.22 10 0 10.22 0 10.5S0.22 11 0.5 11H2v2H0.5C0.22 13 0 13.22 0 13.5S0.22 14 0.5 14H2v2H0.5C0.22 16 0 16.22 0 16.5S0.22 17 0.5 17H2v0.5C2 19.98 4.02 22 6.5 22H7v1.5C7 23.78 7.22 24 7.5 24S8 23.78 8 23.5V22h2v1.5c0 0.28 0.22 0.5 0.5 0.5s0.5-0.22 0.5-0.5V22h2v1.5c0 0.28 0.22 0.5 0.5 0.5s0.5-0.22 0.5-0.5V22h2v1.5c0 0.28 0.22 0.5 0.5 0.5s0.5-0.22 0.5-0.5V22h0.5c2.48 0 4.5-2.02 4.5-4.5V17h1.5c0.28 0 0.5-0.22 0.5-0.5S23.78 16 23.5 16H22v-2h1.5c0.28 0 0.5-0.22 0.5-0.5S23.78 13 23.5 13H22v-2zM21 17.5c0 1.93-1.57 3.5-3.5 3.5h-11C4.57 21 3 19.43 3 17.5v-11C3 4.57 4.57 3 6.5 3h11C19.43 3 21 4.57 21 6.5z" />
</svg>