<svg id="milk_Layer_1" viewBox="0 0 24 24" fill="currentColor" width="32" height="32" data-name="Layer 1" xmlns="http://www.w3.org/2000/svg" xmlns:xlink="http://www.w3.org/1999/xlink">
    <title>milk</title>
    <path d="M21.576 7.544 19 4.324V2.5C19 1.122 17.879 0 16.5 0h-9C6.121 0 5 1.122 5 2.5v1.824l-2.576 3.22C1.506 8.692 1 10.134 1 11.604V20c0 2.206 1.794 4 4 4h14c2.206 0 4-1.794 4-4v-8.396c0-1.47-0.506-2.912-1.424-4.06zM6 2.5C6 1.673 6.673 1 7.5 1h9C17.327 1 18 1.673 18 2.5V4H6zM3.205 8.169 5.74 5h11.719l-2.036 2.544C15.069 7.987 14.797 8.484 14.571 9H2.662c0.156-0.291 0.335-0.571 0.543-0.831zM5 23c-1.654 0-3-1.346-3-3v-8.396C2 11.057 2.096 10.518 2.255 10h11.971C14.092 10.524 14 11.059 14 11.604V20c0 1.2 0.542 2.266 1.382 3zM22 20c0 1.654-1.346 3-3 3h-1c-1.654 0-3-1.346-3-3v-8.396c0-1.244 0.428-2.464 1.205-3.436l2.314-2.892 2.276 2.892C21.572 9.14 22 10.36 22 11.604z" />
</svg>