<svg id="minus_hexagon_Layer_1" viewBox="0 0 24 24" fill="currentColor" width="32" height="32" data-name="Layer 1" xmlns="http://www.w3.org/2000/svg" xmlns:xlink="http://www.w3.org/1999/xlink">
    <title>minus-hexagon</title>
    <path d="M23.415 9.746l-3.763-6.5C18.85 1.861 17.358 1 15.757 1H8.212C6.611 1 5.12 1.86 4.318 3.246l-3.762 6.5c-0.806 1.391-0.806 3.118 0 4.509l3.764 6.499C5.122 22.14 6.613 23 8.214 23h7.545c1.601 0 3.093-0.86 3.895-2.245l3.763-6.5c0.806-1.391 0.806-3.119-2e-3-4.509zM22.55 13.753l-3.763 6.501C18.164 21.331 17.003 22 15.758 22H8.213c-1.244 0-2.405-0.669-3.028-1.747l-3.764-6.5c-0.626-1.081-0.626-2.425 0-3.506l3.764-6.5C5.808 2.67 6.969 2 8.213 2h7.545c1.245 0 2.406 0.669 3.029 1.747l3.763 6.5c0.626 1.082 0.626 2.425 0 3.506zM17 12c0 0.276-0.224 0.5-0.5 0.5h-9C7.224 12.5 7 12.276 7 12s0.224-0.5 0.5-0.5h9c0.276 0 0.5 0.224 0.5 0.5z" />
</svg>