<svg id="mirror_user_Layer_1" viewBox="0 0 24 24" fill="currentColor" width="32" height="32" data-name="Layer 1" xmlns="http://www.w3.org/2000/svg" xmlns:xlink="http://www.w3.org/1999/xlink">
    <title>mirror-user</title>
    <path d="M21.977 2.961C21.046 1.214 19.515-0.03 18 0c-3.364 0-6 5.271-6 12s2.636 12 6 12 6-5.271 6-12c0-3.646-0.778-6.856-2.023-9.039zM21.547 19.661c-0.997-0.463-1.729-1.353-1.958-2.434l-0.6-2.83c-0.049-0.231-0.251-0.396-0.487-0.396h-0.957c-0.438 0-0.539-0.251-0.545-0.454 0-0.845 2.614-7.399 4.026-9.145 0.108-0.144 0.236-0.274 0.352-0.413 0.989 2.025 1.621 4.887 1.621 8.012 0 2.946-0.56 5.663-1.452 7.66zM17.999 23c-2.71 0-5-5.037-5-11S15.29 1 18 1c1.052 0 2.039 0.766 2.855 2.044-0.219 0.244-0.43 0.492-0.618 0.743C18.858 5.491 16 12.318 16 13.546 16 14.131 16.412 15 17.545 15h0.549l0.516 2.434c0.293 1.381 1.216 2.529 2.482 3.128-0.858 1.516-1.936 2.439-3.093 2.438zM5.774 3.802C7.141 5.491 10 12.319 10 13.546 10 14.131 9.588 15 8.455 15H7.906L7.39 17.434C6.952 19.496 5.108 20.995 3.001 21v0.5c0 1.379-1.122 2.5-2.5 2.5-0.276 0-0.5-0.224-0.5-0.5s0.224-0.5 0.5-0.5c0.827 0 1.5-0.673 1.5-1.5v-1c0-0.276 0.224-0.5 0.5-0.5h0.487c1.643 0 3.083-1.167 3.424-2.773l0.6-2.83c0.049-0.231 0.251-0.396 0.487-0.396h0.957c0.492 0 0.545-0.317 0.545-0.454 0-0.845-2.614-7.399-4.015-9.13-1.2-1.603-2.805-2.788-4.653-3.446-0.261-0.092-0.396-0.378-0.304-0.639 0.092-0.26 0.378-0.399 0.638-0.303 2.034 0.724 3.8 2.028 5.107 3.773z" />
</svg>