<svg id="mission_Layer_1" viewBox="0 0 24 24" fill="currentColor" width="32" height="32" data-name="Layer 1" xmlns="http://www.w3.org/2000/svg" xmlns:xlink="http://www.w3.org/1999/xlink">
    <title>mission</title>
    <path d="M6 6c0-0.552 0.448-1 1-1s1 0.448 1 1-0.448 1-1 1-1-0.448-1-1zM4.207 9.5 2.854 10.854c-0.195 0.195-0.512 0.195-0.707 0s-0.195-0.512 0-0.707L3.5 8.793 2.707 8h-1.52C0.532 8 0 7.467 0 6.813 0 6.54 0.097 6.271 0.272 6.056 1.305 4.798 2.771 4.057 4.318 4.003c1.67-1.351 3.799-2.605 6.503-3.831 0.579-0.261 1.245-0.141 1.696 0.31s0.572 1.116 0.31 1.696c-1.204 2.659-2.458 4.788-3.829 6.502-0.054 1.548-0.795 3.015-2.052 4.046-0.216 0.176-0.485 0.273-0.759 0.273C5.533 12.999 5 12.466 5 11.812v-1.52zM5.854 9.733C5.948 9.827 6 9.954 6 10.087v1.727c0 0.147 0.189 0.242 0.312 0.14C7.385 11.074 8 9.815 8 8.501 8 8.386 8.04 8.274 8.112 8.185c1.359-1.669 2.604-3.769 3.804-6.418 0.136-0.301-0.047-0.518-0.106-0.577-0.066-0.099-0.389-0.224-0.577-0.105-2.696 1.223-4.794 2.466-6.414 3.802-0.09 0.074-0.202 0.114-0.318 0.114-1.313 0-2.573 0.616-3.454 1.689-0.105 0.117-0.016 0.314 0.141 0.311h1.728c0.133 0 0.26 0.053 0.354 0.146zM24 23.5c0 0.276-0.224 0.5-0.5 0.5H6.374c-0.914 0-1.73-0.511-2.131-1.332-0.4-0.82-0.3-1.778 0.264-2.497L15 7.322V1c0-0.649 0.516-1 1-1 0.076 0 0.151 0.018 0.22 0.051l3.26 1.597c0.328 0.178 0.521 0.5 0.521 0.853s-0.192 0.675-0.502 0.843c0 0-3.488 1.614-3.498 1.618v2.361l7.888 9.657c0.174 0.214 0.143 0.529-0.071 0.704-0.213 0.173-0.527 0.144-0.704-0.071l-2.598-3.181-1.191 1.973c-0.216 0.356-0.593 0.58-1.01 0.599-0.418-3e-3-0.812-0.174-1.057-0.511l-0.752-1.035-1.416 1.983c-0.255 0.355-0.652 0.562-1.09 0.564-0.434 0-0.839-0.199-1.096-0.55l-2.319-3.144-5.296 6.484c-0.324 0.414-0.381 0.953-0.146 1.436 0.235 0.481 0.696 0.77 1.232 0.77H23.5c0.276 0 0.5 0.224 0.5 0.499zM16 3.865l3.049-1.416L16 1.049zM11.237 13.511c0 0 0 0 0 0l2.471 3.35c0.067 0.091 0.159 0.137 0.284 0.143 0.113 0 0.217-0.054 0.283-0.146l1.818-2.548c0.094-0.131 0.244-0.208 0.405-0.209 0.117 0.02 0.312 0.075 0.406 0.206l1.16 1.597c0.066 0.092 0.164 0.111 0.205 0.099 0.049-2e-3 0.139-0.02 0.197-0.116 0 0 1.358-2.221 1.395-2.253l-4.362-5.341z" />
</svg>