<svg id="mistletoe_Layer_1" viewBox="0 0 24 24" fill="currentColor" width="32" height="32" data-name="Layer 1" xmlns="http://www.w3.org/2000/svg" xmlns:xlink="http://www.w3.org/1999/xlink">
    <title>mistletoe</title>
    <path d="M16.249 10.365C17.834 9.927 19 8.472 19 6.75 19 4.682 17.318 3 15.25 3c-1.354 0-2.542 0.721-3.201 1.799C10.892 1.354 7.411 0 0.5 0 0.224 0 0 0.224 0 0.5S0.224 1 0.5 1c4.839 0 7.791 0.612 9.402 2.181C9.539 3.064 9.152 3 8.75 3 6.682 3 5 4.682 5 6.75c0 1.722 1.167 3.177 2.751 3.615C4.325 12.252 0 15.603 0 20.5 0 22.43 1.57 24 3.5 24S7 22.43 7 20.5c0-5.814 3.863-9.791 5-10.836 1.138 1.042 5 5.009 5 10.836 0 1.93 1.57 3.5 3.5 3.5s3.5-1.57 3.5-3.5c0-4.897-4.325-8.249-7.751-10.135zM6 20.5C6 21.878 4.878 23 3.5 23S1 21.878 1 20.5c0-5.145 5.617-8.54 8.881-10.078C8.214 12.385 6 15.865 6 20.5zM8.75 9.5C7.231 9.5 6 8.269 6 6.75S7.231 4 8.75 4 11.5 5.231 11.5 6.75 10.269 9.5 8.75 9.5zM12.5 6.75C12.5 5.231 13.731 4 15.25 4S18 5.231 18 6.75 16.769 9.5 15.25 9.5 12.5 8.269 12.5 6.75zM20.5 23c-1.378 0-2.5-1.122-2.5-2.5 0-4.634-2.213-8.114-3.881-10.078C17.383 11.96 23 15.355 23 20.5c0 1.378-1.122 2.5-2.5 2.5z" />
</svg>