<svg id="mix_Layer_1" viewBox="0 0 24 24" fill="currentColor" width="32" height="32" data-name="Layer 1" xmlns="http://www.w3.org/2000/svg" xmlns:xlink="http://www.w3.org/1999/xlink">
    <title>mix</title>
    <path d="M23.859 15.518c-0.683 2.34-1.921 4.45-3.579 6.102-1.523 1.518-3.68 2.389-5.915 2.389H9.641c-2.235 0-4.392-0.871-5.914-2.389-1.659-1.651-2.897-3.761-3.58-6.102-0.316-1.08-0.111-2.214 0.562-3.111 0.409-0.546 0.961-0.927 1.576-1.157-0.184-0.435-0.281-0.897-0.281-1.382 0-1.292 0.641-2.508 1.714-3.252 0.18-0.121 0.285-0.191 0.285-0.607 0-2.206 1.794-4 4-4 0.615 0 0.769-0.213 0.904-0.401 0.733-1.021 1.86-1.602 3.097-1.602s2.363 0.581 3.093 1.593c0.14 0.194 0.293 0.407 0.907 0.407 0.82 0 1.609 0.247 2.281 0.714 0.227 0.158 0.283 0.469 0.125 0.696-0.158 0.228-0.47 0.283-0.695 0.125-0.504-0.35-1.096-0.535-1.711-0.535-1.126 0-1.523-0.551-1.714-0.816-0.544-0.755-1.376-1.184-2.286-1.184s-1.743 0.429-2.281 1.178C9.528 2.455 9.13 3.006 8.003 3.006c-1.654 0-3 1.346-3 3 0 0.949-0.461 1.259-0.683 1.407-0.837 0.58-1.316 1.488-1.316 2.453 0 0.422 0.114 0.801 0.3 1.164 0.068-4e-3 0.132-0.023 0.201-0.023H7.5c0.276 0 0.5 0.224 0.5 0.5s-0.224 0.5-0.5 0.5H3.505c-0.793 0-1.521 0.364-1.996 0.998-0.481 0.643-0.628 1.457-0.402 2.231 0.628 2.148 1.809 4.163 3.326 5.673 1.338 1.333 3.236 2.097 5.209 2.097h4.724c1.973 0 3.872-0.764 5.21-2.097 1.517-1.511 2.697-3.526 3.325-5.673 0.227-0.775 0.08-1.588-0.402-2.231-0.476-0.634-1.203-0.998-1.996-0.998h-1.002c-0.276 0-0.5-0.224-0.5-0.5s0.224-0.5 0.5-0.5h1.002c0.069 0 0.133 0.019 0.201 0.023 0.187-0.364 0.301-0.743 0.301-1.164 0-0.405-0.081-0.798-0.242-1.167-0.109-0.253 7e-3-0.548 0.26-0.658 0.251-0.111 0.548 5e-3 0.658 0.259 0.215 0.496 0.324 1.022 0.324 1.566 0 0.485-0.098 0.947-0.282 1.382 0.615 0.23 1.166 0.611 1.576 1.157 0.673 0.897 0.878 2.032 0.56 3.113zM16.642 8.949l5.945-8.73c0.156-0.229 0.469-0.287 0.694-0.132 0.229 0.155 0.287 0.466 0.132 0.694l-5.966 8.761c-0.111 1.206-0.723 7.364-1.824 9.041-0.483 0.737-1.25 1.418-2.431 1.418-0.751 0-1.671-0.276-2.793-0.99-1.341-0.854-2.129-1.787-2.341-2.775-0.157-0.729 2e-3-1.464 0.474-2.182 1.121-1.708 7.065-4.605 8.11-5.105zM10.552 17.893l4.939-7.254c-2.28 1.172-5.464 2.96-6.124 3.965-0.323 0.493-0.433 0.958-0.332 1.423 0.132 0.614 0.667 1.253 1.517 1.866zM16.251 11.299l-4.853 7.127c2.032 1.11 2.909 0.338 3.388-0.391 0.646-0.985 1.17-4.307 1.465-6.736z" />
</svg>