<svg id="mixer_Layer_1" viewBox="0 0 24 24" fill="currentColor" width="32" height="32" data-name="Layer 1" xmlns="http://www.w3.org/2000/svg" xmlns:xlink="http://www.w3.org/1999/xlink">
    <title>mixer</title>
    <path d="M18.2 13c1.687 0 3.306-0.716 4.44-1.965 1.151-1.266 1.694-2.908 1.531-4.623C23.882 3.377 21.154 1 17.963 1h-0.964V0.5c0-0.276-0.224-0.5-0.5-0.5s-0.5 0.224-0.5 0.5V1H8.793C5.295 1 2.125 2.934 0.522 6.047-0.231 7.508-0.162 9.23 0.705 10.653 1.601 12.122 3.158 13 4.869 13H16v3.049c-1.81 0.24-3 1.757-3 3.951 0 2.393 1.406 4 3.5 4s3.5-1.607 3.5-4c0-2.194-1.19-3.711-3-3.951V13zM14 20c0-1.248 0.541-2.674 2-2.943v5.887c-1.459-0.27-2-1.695-2-2.944zM19 20c0 1.248-0.541 2.674-2 2.943v-5.887c1.459 0.27 2 1.695 2 2.944zM1.559 10.132c-0.685-1.123-0.74-2.479-0.148-3.627C2.842 3.727 5.671 2 8.794 2h9.169c2.682 0 4.972 1.979 5.212 4.507 0.137 1.431-0.315 2.8-1.274 3.855C20.955 11.403 19.606 12 18.2 12H4.869c-1.36 0-2.597-0.698-3.31-1.868zM20 5c0-1.103-0.897-2-2-2h-7C9.897 3 9 3.897 9 5s0.897 2 2 2h7c1.103 0 2-0.897 2-2zM10 5c0-0.551 0.449-1 1-1h7c0.552 0 1 0.449 1 1s-0.448 1-1 1h-7c-0.551 0-1-0.449-1-1z" />
</svg>