<svg id="mobile_hand_Layer_1" viewBox="0 0 24 24" fill="currentColor" width="32" height="32" data-name="Layer 1" xmlns="http://www.w3.org/2000/svg" xmlns:xlink="http://www.w3.org/1999/xlink">
    <title>mobile-hand</title>
    <path d="M19.5 0h-6C11.019 0 9 2.019 9 4.5v5C9 9.776 9.224 10 9.5 10S10 9.776 10 9.5v-5C10 2.57 11.57 1 13.5 1h6C21.43 1 23 2.57 23 4.5V15h-8.386c0.655-1.089 0.453-2.523-0.545-3.371-0.996-0.846-2.484-0.832-3.467 0.038l-4.438 4c-0.205 0.185-0.222 0.501-0.036 0.707 0.184 0.205 0.5 0.221 0.706 0.037l4.434-3.997c0.607-0.538 1.532-0.547 2.153-0.022 0.689 0.586 0.773 1.625 0.157 2.353l-3.776 5.443c-0.525 0.757-0.803 1.644-0.803 2.565v0.748c0 0.276 0.224 0.5 0.5 0.5s0.5-0.224 0.5-0.5v-0.748c0-0.672 0.197-1.317 0.557-1.88 0.814 0.71 1.849 1.128 2.943 1.128h6c2.481 0 4.5-2.019 4.5-4.5V4.5c0-2.481-2.019-4.5-4.499-4.5zM23 17.5c0 1.93-1.57 3.5-3.5 3.5h-6c-0.891 0-1.733-0.356-2.379-0.959l2.81-4.054c0.023 3e-3 9.068 0.014 9.068 0.014zM14.5 18.5c0-0.276 0.224-0.5 0.5-0.5h3c0.276 0 0.5 0.224 0.5 0.5S18.276 19 18 19h-3c-0.276 0-0.5-0.224-0.5-0.5zM6.838 7.869 4.081 10.396C2.123 12.19 1 14.743 1 17.399V23.5C1 23.776 0.776 24 0.5 24S0 23.776 0 23.5v-6.101c0-2.936 1.241-5.756 3.405-7.74l2.757-2.527C6.365 6.947 6.681 6.96 6.868 7.163c0.187 0.204 0.173 0.52-0.03 0.706z" />
</svg>