<svg id="mobile_notch_Layer_1" viewBox="0 0 24 24" fill="currentColor" width="32" height="32" data-name="Layer 1" xmlns="http://www.w3.org/2000/svg" xmlns:xlink="http://www.w3.org/1999/xlink">
    <title>mobile-notch</title>
    <path d="M15.5 0h-7C6.019 0 4 2.019 4 4.5v15C4 21.981 6.019 24 8.5 24h7c2.481 0 4.5-2.019 4.5-4.5v-15C20 2.019 17.981 0 15.5 0zM14.807 1 14.482 1.974C14.277 2.588 13.705 3 13.059 3h-2.117c-0.646 0-1.218-0.412-1.423-1.026L9.194 1zM19 19.5c0 1.93-1.57 3.5-3.5 3.5h-7C6.57 23 5 21.43 5 19.5v-15c0-1.81 1.387-3.287 3.151-3.465L8.569 2.29c0.341 1.022 1.294 1.709 2.372 1.709h2.117c1.078 0 2.031-0.687 2.372-1.709l0.418-1.255c1.764 0.178 3.151 1.654 3.151 3.465z" />
    <path d="M13.5 20h-3c-0.276 0-0.5 0.224-0.5 0.5s0.224 0.5 0.5 0.5h3c0.276 0 0.5-0.224 0.5-0.5S13.776 20 13.5 20z" />
</svg>