<svg id="mobile_5g_Layer_1" viewBox="0 0 24 24" fill="currentColor" width="32" height="32" data-name="Layer 1" xmlns="http://www.w3.org/2000/svg" xmlns:xlink="http://www.w3.org/1999/xlink">
    <title>mobile-5g</title>
    <path d="M24 10.008v0.5c0 1.379-1.121 2.5-2.5 2.5s-2.5-1.121-2.5-2.5v-3c0-1.379 1.121-2.5 2.5-2.5s2.5 1.121 2.5 2.5c0 0.276-0.224 0.5-0.5 0.5S23 7.784 23 7.508c0-0.827-0.673-1.5-1.5-1.5S20 6.681 20 7.508v3c0 0.827 0.673 1.5 1.5 1.5s1.5-0.673 1.5-1.5v-0.5h-1.5c-0.276 0-0.5-0.224-0.5-0.5s0.224-0.5 0.5-0.5H23c0.552 0 1 0.448 1 1zM15.5 12h-2c-0.276 0-0.5 0.224-0.5 0.5s0.224 0.5 0.5 0.5h2c1.379 0 2.5-1.121 2.5-2.5S16.879 8 15.5 8H14V6h3c0.276 0 0.5-0.224 0.5-0.5S17.276 5 17 5h-3c-0.552 0-1 0.448-1 1v2c0 0.552 0.448 1 1 1h1.5c0.827 0 1.5 0.673 1.5 1.5S16.327 12 15.5 12zM20 15.5v4c0 2.481-2.019 4.5-4.5 4.5h-7C6.019 24 4 21.981 4 19.5v-15C4 2.019 6.019 0 8.5 0h7c1.636 0 3.145 0.889 3.938 2.32 0.134 0.241 0.046 0.546-0.195 0.68-0.242 0.131-0.545 0.047-0.68-0.195C17.947 1.692 16.773 1 15.501 1h-7c-1.93 0-3.5 1.57-3.5 3.5V17h14v-1.5c0-0.276 0.224-0.5 0.5-0.5s0.5 0.224 0.499 0.5zM19 19.5V18H5v1.5C5 21.43 6.57 23 8.5 23h7c1.93 0 3.5-1.57 3.5-3.5zM13.5 20h-3c-0.276 0-0.5 0.224-0.5 0.5s0.224 0.5 0.5 0.5h3c0.276 0 0.5-0.224 0.5-0.5S13.776 20 13.5 20z" />
</svg>