<svg id="mobile_Layer_1" viewBox="0 0 24 24" fill="currentColor" width="32" height="32" data-name="Layer 1" xmlns="http://www.w3.org/2000/svg" xmlns:xlink="http://www.w3.org/1999/xlink">
    <title>mobile</title>
    <path d="M15.5 0H8.511c-2.481 0-4.5 2.019-4.5 4.5v15c0 2.481 2.019 4.5 4.5 4.5H15.5c2.481 0 4.5-2.019 4.5-4.5v-15C20 2.019 17.981 0 15.5 0zM19 19.5c0 1.93-1.57 3.5-3.5 3.5H8.511c-1.93 0-3.5-1.57-3.5-3.5v-15c0-1.93 1.57-3.5 3.5-3.5H15.5C17.43 1 19 2.57 19 4.5zM16 15.5c0 0.276-0.224 0.5-0.5 0.5h-7C8.224 16 8 15.776 8 15.5S8.224 15 8.5 15h7c0.276 0 0.5 0.224 0.5 0.5zM14 20.5c0 0.276-0.224 0.5-0.5 0.5h-3c-0.276 0-0.5-0.224-0.5-0.5s0.224-0.5 0.5-0.5h3c0.276 0 0.5 0.224 0.5 0.5zM9.533 13c0.227 0 0.426-0.153 0.483-0.373L10.445 11h3.178l0.402 1.62C14.08 12.843 14.28 13 14.51 13c0.325 0 0.563-0.305 0.485-0.62l-1.557-6.281c-0.105-0.448-0.41-0.817-0.814-0.985-0.387-0.164-0.822-0.149-1.191 0.041-0.369 0.188-0.633 0.526-0.722 0.911l-1.662 6.308C8.966 12.691 9.205 13.001 9.533 13zM11.682 6.305c0.025-0.112 0.101-0.207 0.206-0.261 0.106-0.055 0.234-0.058 0.351-9e-3 0.109 0.046 0.194 0.154 0.228 0.297L13.376 10h-2.667z" />
</svg>