<svg id="mobile_4g_Layer_1" viewBox="0 0 24 24" fill="currentColor" width="32" height="32" data-name="Layer 1" xmlns="http://www.w3.org/2000/svg" xmlns:xlink="http://www.w3.org/1999/xlink">
    <title>mobile-4g</title>
    <path d="M19.5 15c-0.276 0-0.5 0.224-0.5 0.5V17H5V4.5C5 2.57 6.57 1 8.5 1h7c1.272 0 2.445 0.691 3.062 1.805 0.134 0.242 0.439 0.326 0.68 0.195 0.242-0.134 0.329-0.438 0.195-0.68C18.644 0.888 17.135 0 15.499 0h-7c-2.481 0-4.5 2.019-4.5 4.5v15c0 2.481 2.019 4.5 4.5 4.5h7c2.481 0 4.5-2.019 4.5-4.5v-4c0-0.276-0.224-0.5-0.499-0.5zM15.5 23h-7C6.57 23 5 21.43 5 19.5V18h14v1.5c0 1.93-1.57 3.5-3.5 3.5zM14 20.5c0 0.276-0.224 0.5-0.5 0.5h-3c-0.276 0-0.5-0.224-0.5-0.5s0.224-0.5 0.5-0.5h3c0.276 0 0.5 0.224 0.5 0.5zM17 12.5v-1.492h-2.5c-0.827 0-1.5-0.673-1.5-1.5V5.5C13 5.224 13.224 5 13.5 5S14 5.224 14 5.5v4.008c0 0.275 0.224 0.5 0.5 0.5H17V5.5C17 5.224 17.224 5 17.5 5S18 5.224 18 5.5v7c0 0.276-0.224 0.5-0.5 0.5S17 12.776 17 12.5zM24 10.008v0.5c0 1.379-1.122 2.5-2.5 2.5s-2.5-1.121-2.5-2.5v-3c0-1.379 1.122-2.5 2.5-2.5s2.5 1.121 2.5 2.5c0 0.276-0.224 0.5-0.5 0.5S23 7.784 23 7.508c0-0.827-0.673-1.5-1.5-1.5S20 6.681 20 7.508v3c0 0.827 0.673 1.5 1.5 1.5s1.5-0.673 1.5-1.5v-0.5h-1.5c-0.276 0-0.5-0.224-0.5-0.5s0.224-0.5 0.5-0.5H23c0.551 0 1 0.448 1 1z" />
</svg>