<svg id="mobile_friendly_Layer_1" viewBox="0 0 24 24" fill="currentColor" width="32" height="32" data-name="Layer 1" xmlns="http://www.w3.org/2000/svg" xmlns:xlink="http://www.w3.org/1999/xlink">
    <title>mobile-friendly</title>
    <path d="M21 9h-4c-1.654 0-3 1.346-3 3v9c0 1.654 1.346 3 3 3h4c1.654 0 3-1.346 3-3v-9c0-1.654-1.346-3-3-3zM23 21c0 1.103-0.897 2-2 2h-4c-1.103 0-2-0.897-2-2v-9c0-1.103 0.897-2 2-2h4c1.103 0 2 0.897 2 2zM17.5 4C17.776 4 18 4.224 18 4.5S17.776 5 17.5 5h-11C6.224 5 6 4.776 6 4.5S6.224 4 6.5 4zM21.5 12.5c0 0.276-0.224 0.5-0.5 0.5h-4c-0.276 0-0.5-0.224-0.5-0.5S16.724 12 17 12h4c0.276 0 0.5 0.224 0.5 0.5zM21.5 15.5c0 0.276-0.224 0.5-0.5 0.5h-4c-0.276 0-0.5-0.224-0.5-0.5S16.724 15 17 15h4c0.276 0 0.5 0.224 0.5 0.5zM21.5 18.5c0 0.276-0.224 0.5-0.5 0.5h-4c-0.276 0-0.5-0.224-0.5-0.5S16.724 18 17 18h4c0.276 0 0.5 0.224 0.5 0.5zM14 7.5C14 7.776 13.776 8 13.5 8h-7C6.224 8 6 7.776 6 7.5S6.224 7 6.5 7h7C13.776 7 14 7.224 14 7.5zM12 10.5c0 0.276-0.224 0.5-0.5 0.5h-5C6.224 11 6 10.776 6 10.5S6.224 10 6.5 10h5c0.276 0 0.5 0.224 0.5 0.5zM1 15.5C1 16.327 1.673 17 2.5 17h9c0.276 0 0.5 0.224 0.5 0.5S11.776 18 11.5 18h-9C1.122 18 0 16.879 0 15.5c0-1.208 0.86-2.217 2-2.449V4.5C2 2.019 4.019 0 6.5 0h11C19.981 0 22 2.019 22 4.5v2C22 6.776 21.776 7 21.5 7S21 6.776 21 6.5v-2C21 2.57 19.43 1 17.5 1h-11C4.57 1 3 2.57 3 4.5V13h5.5c0.133 0 0.26 0.053 0.354 0.146L9.708 14h1.793c0.276 0 0.5 0.224 0.5 0.5s-0.224 0.5-0.5 0.5h-2c-0.133 0-0.26-0.053-0.354-0.146L8.293 14H2.5C1.673 14 1 14.673 1 15.5z" />
</svg>