<svg id="mobile_lock_Layer_1" viewBox="0 0 24 24" fill="currentColor" width="32" height="32" data-name="Layer 1" xmlns="http://www.w3.org/2000/svg" xmlns:xlink="http://www.w3.org/1999/xlink">
    <title>mobile-lock</title>
    <path d="M17.5 17H3V4.5C3 2.57 4.57 1 6.5 1h7C13.776 1 14 0.776 14 0.5S13.776 0 13.5 0h-7C4.019 0 2 2.019 2 4.5v15C2 21.981 4.019 24 6.5 24h7c2.481 0 4.5-2.019 4.5-4.5v-2c0-0.276-0.224-0.5-0.5-0.5zM17 19.5c0 1.93-1.57 3.5-3.5 3.5h-7C4.57 23 3 21.43 3 19.5V18h14zM8 20.5C8 20.224 8.224 20 8.5 20h3c0.276 0 0.5 0.224 0.5 0.5S11.776 21 11.5 21h-3C8.224 21 8 20.776 8 20.5zM22 6.351V4.5C22 2.57 20.43 1 18.5 1S15 2.57 15 4.5v1.851c-1.178 0.564-2 1.758-2 3.149v2c0 1.93 1.57 3.5 3.5 3.5h4c1.93 0 3.5-1.57 3.5-3.5v-2c0-1.391-0.822-2.585-2-3.149zM16 4.5C16 3.122 17.121 2 18.5 2S21 3.122 21 4.5v1.551C20.835 6.027 20.671 6 20.5 6h-4c-0.171 0-0.335 0.027-0.5 0.051zM23 11.5c0 1.378-1.121 2.5-2.5 2.5h-4c-1.379 0-2.5-1.122-2.5-2.5v-2C14 8.122 15.121 7 16.5 7h4C21.879 7 23 8.122 23 9.5zM19.5 10.5c0 0.552-0.448 1-1 1s-1-0.448-1-1 0.448-1 1-1 1 0.448 1 1z" />
</svg>