<svg id="mobile_app_cleaner_Layer_1" viewBox="0 0 24 24" fill="currentColor" width="32" height="32" data-name="Layer 1" xmlns="http://www.w3.org/2000/svg" xmlns:xlink="http://www.w3.org/1999/xlink">
    <title>mobile-app-cleaner</title>
    <path d="M15.437 21.68C14.644 23.112 13.135 24 11.5 24h-7C2.019 24 0 21.981 0 19.5v-15C0 2.019 2.019 0 4.5 0h7C13.981 0 16 2.019 16 4.5v3C16 7.776 15.776 8 15.5 8S15 7.776 15 7.5v-3C15 2.57 13.43 1 11.5 1h-7C2.57 1 1 2.57 1 4.5V17h8.5c0.276 0 0.5 0.224 0.5 0.5S9.776 18 9.5 18H1v1.5C1 21.43 2.57 23 4.5 23h7c1.272 0 2.446-0.691 3.062-1.805 0.135-0.242 0.437-0.326 0.68-0.195 0.241 0.134 0.329 0.438 0.195 0.68zM9.5 20h-3C6.224 20 6 20.224 6 20.5S6.224 21 6.5 21h3c0.276 0 0.5-0.224 0.5-0.5S9.776 20 9.5 20zM10 9c0 1.103-0.897 2-2 2s-2-0.897-2-2 0.897-2 2-2 2 0.897 2 2zM9 9c0-0.552-0.448-1-1-1S7 8.448 7 9s0.448 1 1 1 1-0.448 1-1zM12.64 8.013 12.407 8.151c0.063 0.299 0.094 0.575 0.094 0.85s-0.03 0.551-0.095 0.851L12.64 9.99c0.704 0.393 0.955 1.367 0.532 2.053-0.394 0.704-1.365 0.956-2.054 0.532l-0.223-0.131c-0.407 0.34-0.881 0.606-1.396 0.786v0.271c0 0.827-0.673 1.5-1.5 1.5-1.101 0-1.5-0.897-1.5-1.5V13.23c-0.515-0.18-0.988-0.446-1.396-0.786L4.88 12.575c-0.688 0.424-1.66 0.172-2.055-0.533-0.422-0.685-0.17-1.659 0.533-2.053l0.233-0.138c-0.063-0.299-0.094-0.575-0.094-0.85S3.527 8.45 3.592 8.15L3.358 8.012C2.654 7.619 2.403 6.645 2.826 5.959 3.22 5.256 4.193 5.002 4.88 5.427l0.223 0.131c0.407-0.34 0.881-0.606 1.396-0.786V4.501c0-0.827 0.673-1.5 1.5-1.5 1.101 0 1.5 0.897 1.5 1.5v0.271c0.515 0.18 0.988 0.446 1.396 0.786l0.223-0.131c0.689-0.425 1.659-0.171 2.055 0.533 0.422 0.685 0.17 1.659-0.533 2.053zM11.577 7.477l0.556-0.326c0.234-0.13 0.318-0.456 0.178-0.684-0.13-0.236-0.458-0.319-0.685-0.179l-0.54 0.318c-0.197 0.116-0.448 0.084-0.607-0.077-0.431-0.432-0.984-0.743-1.604-0.903C8.654 5.568 8.5 5.369 8.5 5.142V4.5C8.494 4.275 8.402 4 8 4 7.725 4 7.5 4.225 7.5 4.5v0.642c0 0.228-0.154 0.427-0.375 0.484-0.619 0.16-1.173 0.472-1.604 0.903-0.159 0.162-0.41 0.194-0.607 0.077l-0.54-0.318C4.146 6.146 3.821 6.231 3.69 6.466 3.548 6.695 3.632 7.018 3.867 7.15l0.557 0.328C4.62 7.593 4.713 7.827 4.651 8.045 4.548 8.406 4.501 8.71 4.501 9s0.048 0.594 0.15 0.955c0.062 0.219-0.031 0.452-0.228 0.568l-0.556 0.326c-0.234 0.13-0.318 0.456-0.178 0.684 0.13 0.236 0.458 0.32 0.685 0.179l0.54-0.318c0.195-0.115 0.446-0.085 0.607 0.077 0.431 0.432 0.984 0.743 1.604 0.903 0.221 0.058 0.375 0.257 0.375 0.484V13.5C7.506 13.725 7.598 14 8 14c0.275 0 0.5-0.225 0.5-0.5v-0.642c0-0.228 0.154-0.427 0.375-0.484 0.619-0.16 1.173-0.472 1.604-0.903 0.16-0.161 0.411-0.192 0.607-0.077l0.54 0.318c0.226 0.139 0.554 0.058 0.684-0.178 0.142-0.229 0.058-0.552-0.177-0.684l-0.557-0.328c-0.196-0.115-0.289-0.349-0.227-0.567 0.103-0.361 0.15-0.665 0.15-0.955s-0.048-0.594-0.15-0.955c-0.062-0.219 0.031-0.452 0.228-0.568zM23.947 4.224 20.299 11.52 21.8 12.328c0.885 0.475 1.359 1.491 1.152 2.473-0.336 1.59-1.054 3.192-2.133 4.764-0.378 0.551-1 0.86-1.646 0.86-0.347 0.015-0.74-0.132-1.064-0.26-0.316-0.12-0.561-0.357-0.691-0.669-0.131-0.313-0.128-0.673 9e-3-0.985 0.177-0.402 0.319-0.778 0.419-1.178-0.827 0.685-1.62 1.104-2 1.287-0.378 0.181-0.813 0.164-1.163-0.039-0.701-0.408-1.419-0.876-2.077-1.352-0.437-0.316-0.717-0.806-0.768-1.344-0.052-0.546 0.136-1.089 0.513-1.489 1.005-1.066 1.92-2.222 2.647-3.34 0.657-1.011 1.942-1.346 2.985-0.784l1.436 0.773 3.635-7.269c0.124-0.246 0.424-0.347 0.671-0.224 0.247 0.124 0.347 0.424 0.222 0.672zM21.326 13.209l-3.818-2.056c-0.586-0.316-1.303-0.121-1.673 0.448-0.77 1.185-1.697 2.355-2.757 3.48-0.181 0.191-0.271 0.45-0.246 0.71 0.024 0.255 0.151 0.478 0.358 0.627 0.632 0.457 1.321 0.906 1.994 1.298 0.089 0.052 0.182 0.022 0.229 0 0.482-0.231 1.714-0.894 2.709-2.045 0.137-0.159 0.359-0.214 0.553-0.142C18.87 15.602 19 15.789 19 15.998c0 1.172-0.264 2.012-0.658 2.912-0.047 0.122-0.018 0.257 0.121 0.318l0.365 0.135c0.428 0.154 0.91 5e-3 1.167-0.367 1.004-1.462 1.67-2.943 1.979-4.404 0.115-0.549-0.15-1.118-0.648-1.383z" />
</svg>