<svg id="mode_alt_Layer_1" viewBox="0 0 24 24" fill="currentColor" width="32" height="32" data-name="Layer 1" xmlns="http://www.w3.org/2000/svg" xmlns:xlink="http://www.w3.org/1999/xlink">
    <title>mode-alt</title>
    <path d="M12 0C7.589 0 4 3.589 4 8v8c0 4.411 3.589 8 8 8s8-3.589 8-8V8c0-4.411-3.589-8-8-8zM19 16c0 3.859-3.141 7-7 7s-7-3.141-7-7V8c0-3.859 3.141-7 7-7s7 3.141 7 7zM12 12c-2.206 0-4 1.794-4 4s1.794 4 4 4 4-1.794 4-4-1.794-4-4-4zM12 19c-1.654 0-3-1.346-3-3s1.346-3 3-3 3 1.346 3 3-1.346 3-3 3z" />
</svg>