<svg id="model_cube_Layer_1" viewBox="0 0 24 24" fill="currentColor" width="32" height="32" data-name="Layer 1" xmlns="http://www.w3.org/2000/svg" xmlns:xlink="http://www.w3.org/1999/xlink">
    <title>model-cube</title>
    <path d="M11.5 3.929V8c0 0.276 0.224 0.5 0.5 0.5s0.5-0.224 0.5-0.5V3.929C13.36 3.705 14 2.929 14 2c0-1.103-0.897-2-2-2s-2 0.897-2 2c0 0.929 0.64 1.705 1.5 1.929zM12 1c0.552 0 1 0.448 1 1s-0.448 1-1 1-1-0.448-1-1 0.448-1 1-1zM20.5 15c-0.545 0-1.039 0.221-1.4 0.576l-3.343-2.004c-0.233-0.142-0.543-0.065-0.686 0.172-0.143 0.236-0.065 0.544 0.172 0.686l3.348 2.007c-0.053 0.18-0.091 0.367-0.091 0.564 0 1.103 0.897 2 2 2s2-0.897 2-2-0.897-2-2-2.001zM20.5 18c-0.552 0-1-0.448-1-1s0.448-1 1-1 1 0.448 1 1-0.448 1-1 1zM17.942 19.768c0.129 0.245 0.034 0.547-0.21 0.675l-4.012 2.104c-0.526 0.301-1.12 0.452-1.717 0.452-0.601 0-1.204-0.153-1.741-0.46l-3.995-2.097c-0.244-0.128-0.339-0.431-0.21-0.675 0.128-0.244 0.432-0.337 0.675-0.21l4.011 2.104c0.239 0.136 0.496 0.216 0.757 0.269v-9.641L3.146 7.517C3.06 7.772 3 8.036 3 8.312V13c0 0.276-0.224 0.5-0.5 0.5S2 13.276 2 13V8.312c0-1.253 0.676-2.417 1.764-3.039l3.994-2.211C8 2.93 8.303 3.015 8.438 3.257c0.134 0.241 0.046 0.546-0.195 0.68L4.255 6.145C4.022 6.278 3.826 6.456 3.651 6.652l8.35 4.772 8.35-4.771c-0.176-0.197-0.374-0.376-0.609-0.51L15.76 3.938c-0.241-0.134-0.329-0.438-0.195-0.68 0.135-0.242 0.438-0.327 0.68-0.195l3.988 2.208c1.094 0.625 1.77 1.789 1.77 3.042v4.688c0 0.276-0.224 0.5-0.5 0.5s-0.5-0.224-0.5-0.5V8.313c0-0.276-0.06-0.54-0.146-0.795l-8.354 4.773v9.642c0.256-0.052 0.508-0.13 0.74-0.263l4.027-2.112c0.243-0.127 0.546-0.034 0.672 0.21zM8.754 14.43c0.237-0.141 0.316-0.447 0.175-0.685-0.141-0.237-0.448-0.316-0.685-0.175l-3.361 1.992C4.523 15.215 4.036 15 3.499 15c-1.103 0-2 0.897-2 2s0.897 2 2 2 2-0.897 2-2c0-0.204-0.04-0.398-0.097-0.584zM3.499 18c-0.552 0-1-0.448-1-1s0.448-1 1-1 1 0.448 1 1-0.448 1-1 1z" />
</svg>