<svg id="model_cube_arrows_Layer_1" viewBox="0 0 24 24" fill="currentColor" width="32" height="32" data-name="Layer 1" xmlns="http://www.w3.org/2000/svg" xmlns:xlink="http://www.w3.org/1999/xlink">
    <title>model-cube-arrows</title>
    <path d="M23.951 20.401l-0.975-3.054c-0.084-0.262-0.362-0.406-0.629-0.324-0.263 0.084-0.408 0.365-0.324 0.629l0.837 2.618-4.018-2.643c0.094-0.292 0.157-0.594 0.157-0.909v-4.433c0-1.074-0.579-2.072-1.512-2.605l-4-2.286c-0.309-0.176-0.646-0.271-0.988-0.328V2.309l2.155 2.053c0.2 0.189 0.516 0.184 0.707-0.018 0.19-0.2 0.183-0.517-0.018-0.707l-2.347-2.236c-0.536-0.534-1.409-0.534-1.932-0.012L8.657 3.633C8.455 3.821 8.444 4.138 8.633 4.34 8.731 4.445 8.864 4.499 8.998 4.499c0.122 0 0.244-0.045 0.341-0.135l2.159-2.012v4.713c-0.342 0.058-0.679 0.152-0.988 0.328l-4 2.286c-0.933 0.533-1.512 1.531-1.512 2.605v4.433c0 0.315 0.063 0.617 0.157 0.909L1.14 20.268l0.835-2.617c0.084-0.264-0.062-0.545-0.324-0.629-0.268-0.082-0.544 0.062-0.629 0.324l-0.982 3.09c-0.18 0.736 0.273 1.481 0.979 1.651 0 0 2.932 0.913 2.981 0.913 0.213 0 0.41-0.137 0.477-0.351 0.083-0.263-0.063-0.544-0.327-0.626l-2.61-0.819 4.09-2.691c0.241 0.319 0.526 0.606 0.883 0.81l4 2.284c0.451 0.258 0.983 0.387 1.488 0.392 0.506-5e-3 1.037-0.133 1.488-0.391l4-2.285c0.357-0.204 0.642-0.492 0.883-0.81l4.089 2.69-2.609 0.82c-0.264 0.082-0.41 0.363-0.327 0.626C19.591 22.863 19.789 23 20.002 23c0.05 0 2.95-0.904 2.95-0.904 0.736-0.179 1.189-0.924 0.999-1.695zM11.5 20.939c-0.17-0.044-0.336-0.109-0.492-0.199l-4-2.285C6.386 18.101 6 17.434 6 16.719v-4.433c0-0.267 0.069-0.521 0.169-0.761l5.331 3.047zM6.781 10.722c0.075-0.058 0.143-0.125 0.226-0.173l4-2.286c0.611-0.35 1.373-0.35 1.984 0l4 2.286c0.084 0.048 0.152 0.114 0.226 0.173l-5.219 2.983zM18 16.718c0 0.716-0.386 1.382-1.008 1.736l-4 2.286c-0.156 0.089-0.322 0.154-0.492 0.198v-6.367l5.331-3.047c0.1 0.24 0.169 0.493 0.169 0.761z" />
</svg>