<svg id="model_cube_space_Layer_1" viewBox="0 0 24 24" fill="currentColor" width="32" height="32" data-name="Layer 1" xmlns="http://www.w3.org/2000/svg" xmlns:xlink="http://www.w3.org/1999/xlink">
    <title>model-cube-space</title>
    <path d="M21.077 4.609 13.894 0.502c-1.168-0.666-2.619-0.666-3.787 0L2.923 4.609C1.737 5.287 1 6.556 1 7.922v8.154c0 1.366 0.737 2.636 1.923 3.314l7.184 4.106c0.584 0.333 1.238 0.499 1.893 0.499s1.31-0.166 1.894-0.499l7.184-4.107c1.187-0.678 1.923-1.947 1.923-3.313V7.923c0-1.366-0.736-2.636-1.924-3.314zM3.419 5.477l7.184-4.106c0.862-0.493 1.932-0.491 2.794 0l7.184 4.105c0.285 0.163 0.519 0.384 0.726 0.628l-3.978 2.274c-0.196-0.228-0.417-0.436-0.685-0.59l-3.3-1.895c-0.83-0.477-1.86-0.477-2.689 0l-3.3 1.895C7.087 7.942 6.867 8.15 6.67 8.378L2.692 6.104C2.899 5.861 3.133 5.64 3.419 5.477zM17 10.13v3.75c0 0.608-0.328 1.175-0.856 1.477l-3.3 1.886c-0.109 0.063-0.226 0.104-0.344 0.141v-5.093l4.449-2.543C16.978 9.873 17 10 17 10.13zM7 10.13c0-0.131 0.022-0.258 0.051-0.383L11.5 12.29v5.093c-0.118-0.036-0.235-0.078-0.344-0.141l-3.299-1.885C7.328 15.054 7 14.488 7 13.879zM12 11.423 7.556 8.883c0.092-0.084 0.187-0.165 0.298-0.228l3.3-1.895C11.415 6.61 11.708 6.535 12 6.535s0.585 0.074 0.847 0.225l3.3 1.895c0.11 0.063 0.206 0.144 0.298 0.228zM3.419 18.523C2.544 18.022 2 17.085 2 16.077V7.923c0-0.333 0.078-0.65 0.189-0.954l3.98 2.275c-0.1 0.284-0.17 0.578-0.17 0.887v3.75c0 0.966 0.521 1.864 1.36 2.346l3.3 1.886c0.263 0.15 0.549 0.235 0.84 0.289v4.532c-0.311-0.056-0.616-0.144-0.897-0.305zM22 16.077c0 1.008-0.544 1.945-1.419 2.446l-7.184 4.105c-0.281 0.161-0.586 0.249-0.897 0.305v-4.532c0.291-0.055 0.577-0.139 0.84-0.289l3.3-1.887c0.839-0.48 1.36-1.379 1.36-2.345v-3.75c0-0.309-0.07-0.603-0.17-0.887l3.981-2.275C21.922 7.272 22 7.589 22 7.922z" />
</svg>