<svg id="modular_home_Layer_1" viewBox="0 0 24 24" fill="currentColor" width="32" height="32" data-name="Layer 1" xmlns="http://www.w3.org/2000/svg" xmlns:xlink="http://www.w3.org/1999/xlink">
    <title>modular-home</title>
    <path d="M20 11h-0.873l-5.991-3.226C14.228 7.325 15.001 6.253 15.001 5c0-1.105-0.605-2.118-1.58-2.644-0.559-0.301-0.92-0.96-0.92-1.682V0.499c0-0.276-0.224-0.5-0.5-0.5s-0.5 0.224-0.5 0.5v0.175c0 1.102 0.555 2.083 1.446 2.562 0.65 0.35 1.054 1.025 1.054 1.763 0 1.103-0.897 2-2 2s-2-0.897-2-2c0-0.276-0.224-0.5-0.5-0.5s-0.5 0.224-0.5 0.5c0 1.252 0.772 2.325 1.865 2.774l-5.991 3.226H4.002c-2.206 0-4 1.794-4 4v5c0 2.206 1.794 4 4 4H20c2.206 0 4-1.794 4-4v-5c0-2.206-1.794-4-4-3.999zM12 8.299 17.016 11H6.984zM8 23H5v-6.5C5 16.225 5.225 16 5.5 16h2C7.775 16 8 16.225 8 16.5zM23 20c0 1.654-1.346 3-3 3H9v-6.5C9 15.673 8.327 15 7.5 15h-2C4.673 15 4 15.673 4 16.5V23c-1.654 0-3-1.346-3-3v-5c0-1.654 1.346-3 3-3h16c1.654 0 3 1.346 3 3zM18.5 15h-4c-0.827 0-1.5 0.673-1.5 1.5v2c0 0.827 0.673 1.5 1.5 1.5h4c0.827 0 1.5-0.673 1.5-1.5v-2c0-0.827-0.673-1.5-1.5-1.5zM19 18.5c0 0.275-0.225 0.5-0.5 0.5h-4c-0.275 0-0.5-0.225-0.5-0.5v-2c0-0.275 0.225-0.5 0.5-0.5h4c0.275 0 0.5 0.225 0.5 0.5z" />
</svg>