<svg id="money_bills_simple_Layer_1" viewBox="0 0 24 24" fill="currentColor" width="32" height="32" data-name="Layer 1" xmlns="http://www.w3.org/2000/svg" xmlns:xlink="http://www.w3.org/1999/xlink">
    <title>money-bills-simple</title>
    <path d="M13.5 7C11.57 7 10 8.57 10 10.5s1.57 3.5 3.5 3.5 3.5-1.57 3.5-3.5S15.43 7 13.5 7zM13.5 13c-1.38 0-2.5-1.12-2.5-2.5S12.12 8 13.5 8 16 9.12 16 10.5 14.88 13 13.5 13zM20.5 3h-14C4.57 3 3 4.57 3 6.5v8C3 16.43 4.57 18 6.5 18h14c1.93 0 3.5-1.57 3.5-3.5v-8C24 4.57 22.43 3 20.5 3zM23 14.5c0 1.38-1.12 2.5-2.5 2.5h-14C5.12 17 4 15.88 4 14.5v-8C4 5.12 5.12 4 6.5 4h14C21.88 4 23 5.12 23 6.5zM19 20.5c0 0.28-0.22 0.5-0.5 0.5h-14C2.02 21 0 18.98 0 16.5v-8C0 8.22 0.22 8 0.5 8S1 8.22 1 8.5v8C1 18.43 2.57 20 4.5 20h14c0.28 0 0.5 0.22 0.5 0.5z" />
</svg>