<svg id="money_safe_box_Layer_1" viewBox="0 0 24 24" fill="currentColor" width="32" height="32" data-name="Layer 1" xmlns="http://www.w3.org/2000/svg" xmlns:xlink="http://www.w3.org/1999/xlink">
    <title>money-safe-box</title>
    <path d="M19.538 8.17c0-0.371-0.235-0.7-0.571-0.8l-3.095-0.775c-0.778-0.23-1.308-0.954-1.308-1.765 0-1.009 0.8-1.83 1.782-1.83h0.653V2.5c0-0.276 0.224-0.5 0.5-0.5s0.5 0.224 0.5 0.5V3h0.757c0.817 0 1.528 0.567 1.729 1.381 0.066 0.268-0.098 0.539-0.366 0.604-0.27 0.067-0.539-0.098-0.604-0.366C19.425 4.255 19.114 4 18.757 4h-2.41c-0.432 0-0.782 0.372-0.782 0.83 0 0.371 0.235 0.7 0.571 0.8l3.095 0.775c0.778 0.23 1.308 0.954 1.308 1.765 0 1.009-0.8 1.83-1.782 1.83h-0.756v0.5c0 0.276-0.224 0.5-0.5 0.5s-0.5-0.224-0.5-0.5V10h-0.757c-0.817 0-1.528-0.567-1.729-1.381-0.066-0.268 0.098-0.539 0.366-0.604 0.271-0.064 0.539 0.099 0.604 0.366C15.575 8.745 15.886 9 16.243 9h2.513c0.432 0 0.782-0.372 0.782-0.83zM9.344 7.862c-0.201-0.19-0.52-0.18-0.707 0.02C7.581 9 7 10.462 7 12c0 3.309 2.691 6 6 6 1.796 0 3.482-0.795 4.628-2.182 0.176-0.213 0.146-0.528-0.067-0.704-0.212-0.176-0.529-0.147-0.704 0.067-0.954 1.155-2.359 1.818-3.856 1.818-2.757 0-5-2.243-5-5 0-1.281 0.484-2.5 1.363-3.431 0.189-0.201 0.181-0.518-0.02-0.706zM23.5 13c-0.276 0-0.5 0.224-0.5 0.5v4c0 1.93-1.57 3.5-3.5 3.5h-15c-1.758 0-3.204-1.308-3.449-3H3.5C3.776 18 4 17.776 4 17.5S3.776 17 3.5 17H1V7h2.5C3.776 7 4 6.776 4 6.5S3.776 6 3.5 6H1.051C1.296 4.308 2.742 3 4.5 3h5C9.776 3 10 2.776 10 2.5S9.776 2 9.5 2h-5C2.019 2 0 4.019 0 6.5v11c0 1.557 0.795 2.93 2 3.738V23.5C2 23.776 2.224 24 2.5 24S3 23.776 3 23.5v-1.776C3.471 21.892 3.971 22 4.5 22h15c0.529 0 1.029-0.108 1.5-0.276V23.5c0 0.276 0.224 0.5 0.5 0.5s0.5-0.224 0.5-0.5v-2.262c1.205-0.808 2-2.182 2-3.738v-4c0-0.276-0.224-0.5-0.5-0.5zM11 6.5C11 2.916 13.916 0 17.5 0S24 2.916 24 6.5 21.084 13 17.5 13 11 10.084 11 6.5zM12 6.5c0 3.032 2.468 5.5 5.5 5.5S23 9.532 23 6.5 20.532 1 17.5 1 12 3.468 12 6.5z" />
</svg>