<svg id="money_bill_transfer_Layer_1" viewBox="0 0 24 24" fill="currentColor" width="32" height="32" data-name="Layer 1" xmlns="http://www.w3.org/2000/svg" xmlns:xlink="http://www.w3.org/1999/xlink">
    <title>money-bill-transfer</title>
    <path d="M8 12c0 2.206 1.794 4 4 4s4-1.794 4-4-1.794-4-4-4-4 1.794-4 4zM15 12c0 1.654-1.346 3-3 3s-3-1.346-3-3 1.346-3 3-3 3 1.346 3 3zM4 7c0.552 0 1 0.448 1 1S4.552 9 4 9 3 8.552 3 8 3.448 7 4 7zM21 16c0 0.552-0.448 1-1 1s-1-0.448-1-1 0.448-1 1-1 1 0.448 1 1zM0 15.5v-7C0 6.019 2.019 4 4.5 4h18.155l-2.578-2.578c-0.195-0.195-0.195-0.512 0-0.707s0.512-0.195 0.707 0l2.784 2.784C23.791 3.722 23.989 4 23.989 4.5s-0.198 0.778-0.421 1.001l-2.784 2.784c-0.098 0.098-0.226 0.146-0.354 0.146s-0.256-0.049-0.354-0.146c-0.195-0.195-0.195-0.512 0-0.707L22.654 5H4.5C2.57 5 1 6.57 1 8.5v7C1 15.776 0.776 16 0.5 16S0 15.776 0 15.5zM24 8.5v7c0 2.481-2.019 4.5-4.5 4.5H1.345l2.578 2.578c0.195 0.195 0.195 0.512 0 0.707-0.098 0.098-0.226 0.146-0.354 0.146s-0.256-0.049-0.354-0.146l-2.784-2.784C0.208 20.278 0.01 20 0.01 19.5s0.198-0.778 0.421-1.001l2.784-2.784c0.195-0.195 0.512-0.195 0.707 0s0.195 0.512 0 0.707L1.344 19h18.155c1.93 0 3.5-1.57 3.5-3.5v-7c0-0.276 0.224-0.5 0.5-0.5s0.5 0.224 0.501 0.5z" />
</svg>