<svg id="money_transfer_alt_Layer_1" viewBox="0 0 24 24" fill="currentColor" width="32" height="32" data-name="Layer 1" xmlns="http://www.w3.org/2000/svg" xmlns:xlink="http://www.w3.org/1999/xlink">
    <title>money-transfer-alt</title>
    <path d="M14 4c-1.654 0-3 1.346-3 3s1.346 3 3 3 3-1.346 3-3-1.346-3-3-3zM14 9c-1.103 0-2-0.897-2-2s0.897-2 2-2 2 0.897 2 2-0.897 2-2 2zM16 19.5c0 0.276-0.224 0.5-0.5 0.5h-2c-0.276 0-0.5-0.224-0.5-0.5s0.224-0.5 0.5-0.5h2c0.276 0 0.5 0.224 0.5 0.5zM24 19.5c0 0.5-0.173 0.794-0.439 1.061l-2.57 2.571c-0.098 0.098-0.226 0.146-0.354 0.146s-0.256-0.049-0.354-0.146c-0.195-0.195-0.195-0.512 0-0.707l2.424-2.424H18.5c-0.276 0-0.5-0.224-0.5-0.5s0.224-0.5 0.5-0.5h4.207l-2.424-2.424c-0.195-0.195-0.195-0.512 0-0.707s0.512-0.195 0.707 0l2.57 2.571c0.267 0.267 0.439 0.561 0.44 1.059zM19.5 0h-11C6.019 0 4 2.019 4 4.5v5C4 11.981 6.019 14 8.5 14h11c2.481 0 4.5-2.019 4.5-4.5v-5C24 2.019 21.981 0 19.5 0zM23 9.5c0 1.93-1.57 3.5-3.5 3.5h-11C6.57 13 5 11.43 5 9.5v-5C5 2.57 6.57 1 8.5 1h11C21.43 1 23 2.57 23 4.5zM9 10c0 0.552-0.448 1-1 1s-1-0.448-1-1 0.448-1 1-1 1 0.448 1 1zM21 10c0 0.552-0.448 1-1 1s-1-0.448-1-1 0.448-1 1-1 1 0.448 1 1zM21 4c0 0.552-0.448 1-1 1s-1-0.448-1-1 0.448-1 1-1 1 0.448 1 1zM9 4c0 0.552-0.448 1-1 1S7 4.552 7 4 7.448 3 8 3 9 3.448 9 4zM11 19.5c0 0.276-0.224 0.5-0.5 0.5h-6C2.019 20 0 17.981 0 15.5v-5c0-1.047 0.408-2.129 1.118-2.969 0.179-0.21 0.493-0.237 0.705-0.059 0.21 0.179 0.237 0.494 0.059 0.705C1.33 8.829 1 9.697 1 10.499v5c0 1.93 1.57 3.5 3.5 3.5h6c0.276 0 0.5 0.224 0.5 0.501z" />
</svg>