<svg id="money_coin_transfer_Layer_1" viewBox="0 0 24 24" fill="currentColor" width="32" height="32" data-name="Layer 1" xmlns="http://www.w3.org/2000/svg" xmlns:xlink="http://www.w3.org/1999/xlink">
    <title>money-coin-transfer</title>
    <path d="M14 13.842c0-0.568-0.407-1.048-0.968-1.142l-2.238-0.415C9.758 12.112 9 11.217 9 10.158 9 8.968 9.968 8 11.158 8H11.5V7.5C11.5 7.224 11.724 7 12 7s0.5 0.224 0.5 0.5V8h0.342C14.093 8 15 8.841 15 10c0 0.276-0.224 0.5-0.5 0.5S14 10.276 14 10c0-0.691-0.582-1-1.158-1h-1.684C10.519 9 10 9.52 10 10.158c0 0.568 0.407 1.048 0.967 1.142l2.238 0.415C14.241 11.888 15 12.783 15 13.842 15 15.032 14.032 16 12.842 16H12.5v0.5c0 0.276-0.224 0.5-0.5 0.5s-0.5-0.224-0.5-0.5V16h-0.342C9.908 16 9 15.159 9 14c0-0.276 0.224-0.5 0.5-0.5S10 13.724 10 14c0 0.691 0.582 1 1.158 1h1.684C13.481 15 14 14.48 14 13.842zM23.635 2.555 21.227 0.146c-0.195-0.195-0.512-0.195-0.707 0s-0.195 0.512 0 0.707l2.146 2.146H12.001C7.038 3 3 7.038 3 12c0 2.133 0.759 4.202 2.139 5.824C5.238 17.94 5.378 18 5.52 18c0.114 0 0.229-0.039 0.323-0.119 0.21-0.179 0.236-0.494 0.057-0.705C4.674 15.734 4 13.895 4 11.999c0-4.411 3.589-8 8-8h10.666L20.52 6.145c-0.195 0.195-0.195 0.512 0 0.707 0.098 0.098 0.226 0.146 0.354 0.146s0.256-0.049 0.354-0.146l2.408-2.408c0.253-0.252 0.392-0.588 0.392-0.945s-0.139-0.693-0.393-0.944zM18.178 6.14c-0.211 0.178-0.238 0.494-0.06 0.705C19.332 8.284 20 10.115 20 12c0 4.411-3.589 8-8 8H1.334l2.147-2.146c0.195-0.195 0.195-0.512 0-0.707s-0.512-0.195-0.707 0l-2.408 2.407c-0.521 0.522-0.521 1.371 0 1.893l2.408 2.407C2.872 23.952 3 24 3.128 24s0.256-0.049 0.354-0.146c0.195-0.195 0.195-0.512 0-0.707l-2.146-2.146h10.666c4.963 0 9-4.038 9-9 0-2.121-0.752-4.181-2.118-5.799-0.178-0.211-0.494-0.237-0.706-0.062z" />
</svg>