<svg id="money_wings_Layer_1" viewBox="0 0 24 24" fill="currentColor" width="32" height="32" data-name="Layer 1" xmlns="http://www.w3.org/2000/svg" xmlns:xlink="http://www.w3.org/1999/xlink">
    <title>money-wings</title>
    <path d="M12 9.256c-1.654 0-3 1.346-3 3s1.346 3 3 3 3-1.346 3-3-1.346-3-3-3zM12 14.256c-1.103 0-2-0.897-2-2s0.897-2 2-2 2 0.897 2 2-0.897 2-2 2zM22.11 14.865c-0.304-0.094-1.315-0.433-2.48-1.065 0.988-0.948 1.898-2.176 2.635-3.958 0.525-1.269 0.158-2.698-0.915-3.557l-4.622-3.701c-0.641-0.512-1.471-0.7-2.276-0.518-0.789 0.179-1.438 0.689-1.781 1.401-0.462 0.957-0.984 1.708-1.544 2.343-0.893-1.244-1.57-2.558-1.992-3.921C8.78 0.741 7.789-1e-3 6.612-1e-3H2C0.897 0 0 0.897 0 2 0 2.872 0.564 3.607 1.344 3.88 1.127 4.2 1 4.585 1 5 1 5.872 1.564 6.607 2.344 6.88 2.127 7.2 2 7.585 2 8c0 1.103 0.897 2 2 2h1.332c-1.204 0.885-2.376 2.014-3.419 3.775-0.767 1.296-0.453 2.934 0.746 3.894l4.671 3.74C7.811 21.795 8.41 22 9.022 22c0.157 0 0.314-0.014 0.471-0.041 0.734-0.128 1.372-0.554 1.75-1.168 0.84-1.367 1.782-2.31 2.756-3.069V20c0 1.103 0.897 2 2 2 0.414 0 0.8-0.127 1.12-0.344 0.273 0.78 1.009 1.344 1.88 1.344 0.414 0 0.8-0.127 1.12-0.344 0.273 0.78 1.009 1.344 1.88 1.344 1.103 0 2-0.897 2-2v-4.611c0-1.178-0.742-2.168-1.889-2.524zM4 9C3.449 9 3 8.551 3 8s0.449-1 1-1h1.5C5.776 7 6 6.776 6 6.5S5.776 6 5.5 6H3C2.449 6 2 5.551 2 5s0.449-1 1-1h1.5C4.776 4 5 3.776 5 3.5S4.776 3 4.5 3H2C1.449 3 1 2.551 1 2s0.449-1 1-1h4.611c0.741 0 1.342 0.455 1.568 1.186 0.471 1.52 1.23 2.98 2.238 4.354-0.911 0.835-1.904 1.443-2.929 2.063C7.271 8.734 7.054 8.866 6.836 9zM10.392 20.268c-0.231 0.376-0.611 0.627-1.069 0.707-0.489 0.084-0.986-0.042-1.367-0.346l-4.671-3.74c-0.807-0.646-1.021-1.741-0.511-2.604 1.533-2.59 3.414-3.728 5.232-4.827 2.002-1.211 4.073-2.463 5.565-5.555 0.21-0.436 0.611-0.749 1.102-0.86 0.508-0.115 1.03 2e-3 1.431 0.322l4.622 3.701c0.722 0.579 0.97 1.541 0.616 2.394-1.386 3.35-3.382 4.557-5.495 5.834-1.877 1.135-3.817 2.308-5.455 4.974zM23 22c0 0.551-0.448 1-1 1s-1-0.449-1-1v-2.5c0-0.276-0.224-0.5-0.5-0.5S20 19.224 20 19.5V21c0 0.551-0.448 1-1 1s-1-0.449-1-1v-2.5c0-0.276-0.224-0.5-0.5-0.5S17 18.224 17 18.5V20c0 0.551-0.448 1-1 1s-1-0.449-1-1v-2.999c0.454-0.3 0.911-0.578 1.364-0.851 0.827-0.5 1.664-1.01 2.469-1.65 1.377 0.792 2.626 1.21 2.982 1.32 0.731 0.227 1.186 0.827 1.186 1.568z" />
</svg>