<svg id="money_transfer_coin_arrow_Layer_1" viewBox="0 0 24 24" fill="currentColor" width="32" height="32" data-name="Layer 1" xmlns="http://www.w3.org/2000/svg" xmlns:xlink="http://www.w3.org/1999/xlink">
    <title>money-transfer-coin-arrow</title>
    <path d="M24 12.521C23.725 18.958 18.453 24 12 24c-4.04 0-7.699-1.984-9.937-5.311C2.03 18.788 2 18.89 2 19v4.5C2 23.776 1.776 24 1.5 24S1 23.776 1 23.5V19c0-1.103 0.897-2 2-2h4.5C7.776 17 8 17.224 8 17.5S7.776 18 7.5 18H3c-0.062 0-0.116 0.024-0.174 0.035C4.871 21.144 8.258 23 12 23c5.916 0 10.748-4.622 11-10.521C23.012 12.21 23.233 12 23.5 12c7e-3 0 0.014 0 0.021 0 0.275 0.012 0.49 0.245 0.479 0.521zM12 1c3.742 0 7.13 1.856 9.174 4.965C21.115 5.976 21.061 6 21 6h-4.5C16.224 6 16 6.224 16 6.5S16.224 7 16.5 7H21c1.103 0 2-0.897 2-2V0.5C23 0.224 22.776 0 22.5 0S22 0.224 22 0.5V5c0 0.11-0.03 0.212-0.063 0.311C19.699 1.984 16.04 0 12 0 5.547 0 0.275 5.042 0 11.479-0.012 11.755 0.203 11.988 0.479 12c8e-3 0 0.015 0 0.021 0 0.267 0 0.488-0.21 0.5-0.479C1.252 5.622 6.084 1 12 1zM8.823 20.423C9.837 20.806 10.906 21 12 21c4.963 0 9-4.038 9-9 0-0.902-0.133-1.792-0.396-2.647-0.08-0.264-0.356-0.413-0.625-0.331-0.264 0.082-0.412 0.361-0.33 0.625 0.233 0.759 0.352 1.551 0.352 2.353 0 4.411-3.589 8-8 8-0.973 0-1.923-0.172-2.823-0.512-0.261-0.098-0.548 0.033-0.645 0.291-0.098 0.258 0.033 0.547 0.29 0.644zM12 4c0.973 0 1.923 0.172 2.823 0.512 0.26 0.098 0.548-0.033 0.645-0.291 0.098-0.258-0.033-0.547-0.291-0.645C14.163 3.193 13.094 2.999 12 2.999 7.037 3 3 7.038 3 12c0 0.902 0.133 1.792 0.396 2.647C3.461 14.862 3.66 15 3.874 15c0.049 0 0.098-7e-3 0.147-0.022 0.264-0.082 0.412-0.361 0.33-0.625C4.118 13.594 3.999 12.802 3.999 12c0-4.411 3.589-8 8.001-8zM11.158 9h1.684C13.418 9 14 9.309 14 10c0 0.276 0.224 0.5 0.5 0.5S15 10.276 15 10c0-1.159-0.907-2-2.158-2H12.5V7.5C12.5 7.224 12.276 7 12 7s-0.5 0.224-0.5 0.5V8h-0.342C9.968 8 9 8.968 9 10.158c0 1.059 0.759 1.954 1.795 2.127l2.237 0.415C13.593 12.794 14 13.274 14 13.842 14 14.481 13.48 15 12.842 15h-1.684C10.582 15 10 14.691 10 14c0-0.276-0.224-0.5-0.5-0.5S9 13.724 9 14c0 1.159 0.907 2 2.158 2H11.5v0.5c0 0.276 0.224 0.5 0.5 0.5s0.5-0.224 0.5-0.5V16h0.342C14.032 16 15 15.032 15 13.842c0-1.059-0.759-1.954-1.795-2.127L10.968 11.3C10.407 11.206 10 10.726 10 10.158 10 9.519 10.52 9 11.158 9z" />
</svg>