<svg id="money_laptop_Layer_1" viewBox="0 0 24 24" fill="currentColor" width="32" height="32" data-name="Layer 1" xmlns="http://www.w3.org/2000/svg" xmlns:xlink="http://www.w3.org/1999/xlink">
    <title>money-laptop</title>
    <path d="M21.5 0h-11C9.122 0 8 1.122 8 2.5v5C8 8.878 9.122 10 10.5 10h11c1.378 0 2.5-1.122 2.5-2.5v-5C24 1.122 22.878 0 21.5 0zM23 7.5C23 8.327 22.327 9 21.5 9h-11C9.673 9 9 8.327 9 7.5v-5C9 1.673 9.673 1 10.5 1h11C22.327 1 23 1.673 23 2.5zM12 3c0 0.552-0.448 1-1 1s-1-0.448-1-1 0.448-1 1-1 1 0.448 1 1zM12 7c0 0.552-0.448 1-1 1s-1-0.448-1-1 0.448-1 1-1 1 0.448 1 1zM22 3c0 0.552-0.448 1-1 1s-1-0.448-1-1 0.448-1 1-1 1 0.448 1 1zM22 7c0 0.552-0.448 1-1 1s-1-0.448-1-1 0.448-1 1-1 1 0.448 1 1zM16 2c-1.654 0-3 1.346-3 3s1.346 3 3 3 3-1.346 3-3-1.346-3-3-3zM16 7c-1.103 0-2-0.897-2-2s0.897-2 2-2 2 0.897 2 2-0.897 2-2 2zM22 19.051V12.5c0-0.276-0.224-0.5-0.5-0.5S21 12.224 21 12.5V19h-5.5c-0.133 0-0.26 0.053-0.354 0.146L14.292 20H9.706l-0.854-0.854C8.758 19.052 8.631 19 8.498 19H3v-8.5c0-1.598 1.079-2.992 2.625-3.39 0.268-0.069 0.429-0.341 0.36-0.609-0.069-0.267-0.344-0.427-0.609-0.36-1.987 0.512-3.375 2.304-3.375 4.358v8.551c-1.14 0.232-2 1.242-2 2.449 0 1.378 1.122 2.5 2.5 2.5H21.5c1.378 0 2.5-1.122 2.5-2.5 0-1.207-0.86-2.217-2-2.448zM21.5 23h-19C1.673 23 1 22.327 1 21.5S1.673 20 2.5 20h5.793l0.854 0.854C9.241 20.948 9.368 21 9.501 21h5c0.133 0 0.26-0.053 0.354-0.146L15.709 20h5.793c0.827 0 1.5 0.673 1.5 1.5S22.329 23 21.5 23z" />
</svg>