<svg id="money_check_edit_alt_Layer_1" viewBox="0 0 24 24" fill="currentColor" width="32" height="32" data-name="Layer 1" xmlns="http://www.w3.org/2000/svg" xmlns:xlink="http://www.w3.org/1999/xlink">
    <title>money-check-edit-alt</title>
    <path d="M4 9.5v2h2.5C6.776 11.5 7 11.724 7 12s-0.224 0.5-0.5 0.5H4v2C4 15.327 4.673 16 5.5 16h2C8.327 16 9 15.327 9 14.5 9 14.224 9.224 14 9.5 14s0.5 0.224 0.5 0.5c0 1.378-1.121 2.5-2.5 2.5h-2C4.121 17 3 15.878 3 14.5v-2H2.5C2.224 12.5 2 12.276 2 12s0.224-0.5 0.5-0.5H3v-2C3 8.122 4.121 7 5.5 7h2C8.879 7 10 8.122 10 9.5 10 9.776 9.776 10 9.5 10S9 9.776 9 9.5C9 8.673 8.327 8 7.5 8h-2C4.673 8 4 8.673 4 9.5zM19.5 2h-15C2.019 2 0 4.019 0 6.5v11C0 19.981 2.019 22 4.5 22h4C8.776 22 9 21.776 9 21.5S8.776 21 8.5 21h-4C2.57 21 1 19.43 1 17.5v-11C1 4.57 2.57 3 4.5 3h15C21.43 3 23 4.57 23 6.5v2C23 8.776 23.224 9 23.5 9S24 8.776 24 8.5v-2C24 4.019 21.981 2 19.5 2zM13.5 8h7C20.776 8 21 7.776 21 7.5S20.776 7 20.5 7h-7C13.224 7 13 7.224 13 7.5S13.224 8 13.5 8zM13.5 12h3c0.276 0 0.5-0.224 0.5-0.5S16.776 11 16.5 11h-3c-0.276 0-0.5 0.224-0.5 0.5s0.224 0.5 0.5 0.5zM23.268 11.732C23.741 12.204 24 12.832 24 13.5s-0.26 1.296-0.732 1.768l-7.707 7.707C14.901 23.636 14.022 24 13.086 24H11.5c-0.276 0-0.5-0.224-0.5-0.5v-1.586c0-0.921 0.374-1.823 1.025-2.475l7.707-7.707c0.975-0.975 2.561-0.975 3.536 0zM23 13.5c0-0.401-0.156-0.777-0.439-1.061-0.584-0.585-1.537-0.585-2.121 0l-7.707 7.707c-0.466 0.465-0.732 1.11-0.732 1.768V23h1.086c0.668 0 1.296-0.26 1.768-0.732l7.707-7.707c0.283-0.283 0.439-0.66 0.438-1.061z" />
</svg>