<svg id="monitor_water_Layer_1" viewBox="0 0 24 24" fill="currentColor" width="32" height="32" data-name="Layer 1" xmlns="http://www.w3.org/2000/svg" xmlns:xlink="http://www.w3.org/1999/xlink">
    <title>monitor-water</title>
    <path d="M24 13.5v2c0 2.481-2.019 4.5-4.5 4.5h-7v3h5c0.276 0 0.5 0.224 0.5 0.5S17.776 24 17.5 24h-11C6.224 24 6 23.776 6 23.5S6.224 23 6.5 23h5v-3h-7C2.019 20 0 17.981 0 15.5v-9C0 4.019 2.019 2 4.5 2H13c0.276 0 0.5 0.224 0.5 0.5S13.276 3 13 3H4.5C2.57 3 1 4.57 1 6.5v9C1 17.43 2.57 19 4.5 19h15c1.93 0 3.5-1.57 3.5-3.5v-2c0-0.276 0.224-0.5 0.5-0.5s0.5 0.224 0.5 0.5zM15.464 10.536c-1.923-1.923-1.956-5.048-0.077-7.269l2.537-2.813C18.186 0.197 18.467 0 19 0c0.573 0 0.813 0.196 1.054 0.432l2.548 2.823c0 0 7e-3 8e-3 0.01 0.012C23.537 4.36 23.998 5.72 23.999 7c1e-3 1.321-0.488 2.559-1.464 3.536C21.59 11.48 20.335 12 18.999 12s-2.591-0.52-3.535-1.464zM16.171 9.829c1.512 1.511 4.146 1.511 5.657 0 1.55-1.55 1.561-4.09 0.026-5.91l-2.489-2.751C19.254 1.057 19.161 1 19 1s-0.222 0.038-0.383 0.187l-2.476 2.737c-1.53 1.809-1.521 4.352 0.03 5.905z" />
</svg>