<svg id="monkey_Layer_1" viewBox="0 0 24 24" fill="currentColor" width="32" height="32" data-name="Layer 1" xmlns="http://www.w3.org/2000/svg" xmlns:xlink="http://www.w3.org/1999/xlink">
    <title>monkey</title>
    <path d="M15 6c0 0.552-0.448 1-1 1s-1-0.448-1-1 0.448-1 1-1 1 0.448 1 1zM19 5c-0.552 0-1 0.448-1 1s0.448 1 1 1 1-0.448 1-1-0.448-1-1-1zM24 6c0 0.828-0.672 1.5-1.5 1.5-0.294 0-0.565-0.088-0.797-0.233C21.371 8.242 20.777 9.096 20 9.739V23h1.5c0.276 0 0.5 0.224 0.5 0.5S21.776 24 21.5 24h-14C3.364 24 0 20.636 0 16.5v-11C0 2.21 2.21 0 5.5 0 5.776 0 6 0.224 6 0.5S5.776 1 5.5 1C2.724 1 1 2.724 1 5.5v11c0 2.316 1.222 4.348 3.05 5.499 0.216-2.635 1.478-10.84 8.546-12.63-0.581-0.586-1.028-1.304-1.3-2.102C11.065 7.413 10.793 7.5 10.499 7.5c-0.828 0-1.5-0.672-1.5-1.5s0.672-1.5 1.5-1.5c0.205 0 0.4 0.042 0.578 0.116C11.502 2.003 13.769 0 16.499 0s4.997 2.003 5.422 4.616C22.099 4.542 22.294 4.5 22.499 4.5c0.828 0 1.5 0.672 1.501 1.5zM12.469 3.539C12.975 3.199 13.585 3 14.25 3c0.839 0 1.647 0.33 2.25 0.91C17.102 3.329 17.911 3 18.75 3c0.664 0 1.274 0.198 1.78 0.537C19.798 2.041 18.275 1 16.5 1s-3.299 1.042-4.031 2.539zM19 23v-6c0-1.103-0.897-2-2-2s-2 0.897-2 2v6zM19 10.393C18.249 10.778 17.401 11 16.5 11c-1.071 0-2.069-0.313-2.915-0.845 0 0 0 0 0 0-7.387 1.254-8.424 9.743-8.566 12.35C5.784 22.823 6.622 23 7.501 23h6.5v-6c0-1.654 1.346-3 3-3 0.771 0 1.468 0.301 2 0.78zM20.937 6.128C20.876 4.927 19.942 4 18.75 4c-0.629 0-1.233 0.268-1.658 0.736-0.309 0.337-0.877 0.335-1.182 1e-3C15.483 4.268 14.879 4 14.25 4c-1.196 0-2.133 0.936-2.185 2.148C12.382 8.321 14.24 10 16.5 10s4.128-1.69 4.437-3.872z" />
</svg>