<svg id="monstera_Layer_1" viewBox="0 0 24 24" fill="currentColor" width="32" height="32" data-name="Layer 1" xmlns="http://www.w3.org/2000/svg" xmlns:xlink="http://www.w3.org/1999/xlink">
    <title>monstera</title>
    <path d="M9.688 8.089c0.45-0.36 0.997 0.462 1.188 0.776 0.121 0.173 0.204 0.472-0.014 0.6-0.147 0.078-0.324-0.025-0.452-0.131-0.274-0.227-1.171-0.885-0.722-1.245zM2.2 5.178C2.061 5.293 1.917 5.511 2.055 5.675 2.193 5.788 2.403 5.819 2.578 5.826 2.994 5.805 4.297 5.255 3.88 4.722 3.428 4.145 2.571 4.836 2.2 5.178zM4.11 16.188c-1.395 1.742-1.949 4.635-2.17 6.754l-0.133 0.011c-0.25-0.879-0.832-3.168-0.832-5.452 0-2.4 0.504-4.354 0.509-4.373 0.07-0.268-0.09-0.54-0.356-0.61-0.27-0.074-0.541 0.09-0.61 0.356-0.022 0.084-0.542 2.092-0.542 4.627 0 2.41 0.609 4.808 0.871 5.726 0.13 0.456 0.552 0.774 1.026 0.774 0.548 0 1.005-0.41 1.062-0.955 0.292-2.808 0.987-5.021 1.957-6.232 0.172-0.216 0.138-0.53-0.078-0.703-0.216-0.17-0.529-0.138-0.704 0.077zM9.006 14.484c-0.386 0.326-0.933 0.517-1.471 0.517-0.535 0.014-1.06-0.166-1.473-0.516-0.244-0.206-0.565-0.534-0.822-0.782-0.405-0.39-0.591-0.952-0.497-1.502 0.061-0.345 0.133-0.677 0.225-1.02L4.86 11.304c-0.271 0.313-0.665 0.496-1.079 0.501H3.762c-0.402 0-0.787-0.168-1.058-0.465-0.136-0.148-0.27-0.302-0.399-0.457-0.613-0.734-0.598-1.824 0.034-2.535 0.406-0.458 0.762-0.776 1.168-1.139C3.02 7.34 2.575 7.532 2.167 7.788 1.824 8.002 1.411 8.039 1.035 7.883 0.641 7.722 0.348 7.376 0.251 6.958 0.174 6.631 0.116 6.295 0.079 5.953c-0.108-1.02 0.469-1.987 1.404-2.354 0.492-0.195 0.962-0.361 1.403-0.497C2.578 3.019 2.298 3.016 2.038 3.03c-0.412 0.022-0.81-0.197-1-0.569-0.187-0.36-0.145-0.779 0.109-1.092C1.885 0.46 2.923 0 4.232 0c1.235 0 2.31 0.427 3.27 1.301C8.238 0.645 9.341 0 10.835 0c1.308 0 2.344 0.459 3.079 1.363 0.249 0.305 0.295 0.717 0.122 1.074-0.177 0.365-0.535 0.59-0.938 0.59-0.297-7e-3-0.596 0.025-0.864 0.091 0.426 0.133 0.877 0.293 1.351 0.48 0.935 0.367 1.512 1.335 1.403 2.353-0.039 0.356-0.102 0.715-0.186 1.067-0.095 0.39-0.377 0.714-0.754 0.866-0.378 0.154-0.808 0.119-1.147-0.095-0.408-0.257-0.853-0.449-1.341-0.581 0.407 0.362 0.762 0.681 1.168 1.139 0.632 0.711 0.647 1.801 0.035 2.534-0.131 0.156-0.265 0.31-0.4 0.458-0.516 0.627-1.632 0.611-2.156-0.037-0.035-0.04-0.071-0.081-0.107-0.122 0.092 0.343 0.164 0.674 0.224 1.018 0.095 0.552-0.091 1.114-0.496 1.504 0 0-0.646 0.633-0.822 0.782zM8.36 13.721c0.225-0.193 0.535-0.509 0.773-0.739 0.166-0.16 0.243-0.389 0.204-0.613-0.144-0.83-0.372-1.586-0.812-2.696-0.083-0.21-0.016-0.45 0.166-0.585 0.181-0.136 0.429-0.131 0.607 7e-3 0.708 0.556 1.174 0.991 1.663 1.554 0.151 0.182 0.498 0.218 0.663 0.019 0.126-0.139 0.25-0.28 0.372-0.426 0.297-0.355 0.29-0.884-0.017-1.229C11.2 8.15 10.583 7.739 9.712 6.855 9.387 6.547 9.649 5.994 10.08 6.001c1.306 0.038 2.402 0.347 3.351 0.942 0.203 0.082 0.308 0.037 0.397-0.159 0.073-0.304 0.129-0.619 0.164-0.938 0.061-0.571-0.258-1.112-0.775-1.316-0.937-0.369-1.771-0.627-2.484-0.765-0.189-0.037-0.342-0.181-0.389-0.369-0.048-0.188 0.018-0.386 0.167-0.509 0.703-0.576 1.564-0.866 2.585-0.858-0.496-0.692-1.271-1.027-2.263-1.027-1.308 0-2.245 0.628-2.835 1.208V6.5c0 0.276-0.224 0.5-0.5 0.5s-0.5-0.224-0.5-0.5V2.205C6.446 1.651 5.585 1 4.23 1 3.236 1 2.46 1.336 1.923 1.998c0.66-2e-3 1.607 0.045 2.63 0.889 0.149 0.123 0.214 0.321 0.166 0.509S4.52 3.727 4.33 3.764C3.617 3.902 2.782 4.16 1.847 4.529 1.328 4.733 1.01 5.274 1.071 5.846 1.104 6.145 1.154 6.442 1.221 6.73 1.269 6.908 1.442 7.046 1.632 6.942 2.581 6.346 3.677 6.039 4.983 6.001c0.44-0.014 0.689 0.548 0.368 0.854C4.48 7.74 3.864 8.149 3.084 9.013 2.777 9.358 2.771 9.886 3.068 10.242c0.121 0.145 0.245 0.286 0.371 0.425 0.179 0.199 0.496 0.177 0.662-0.018 0.49-0.563 0.956-0.999 1.664-1.555 0.179-0.138 0.426-0.143 0.607-7e-3 0.182 0.135 0.249 0.375 0.166 0.585-0.44 1.11-0.669 1.866-0.813 2.698-0.038 0.223 0.039 0.451 0.205 0.611 0.239 0.23 0.546 0.546 0.774 0.739 0.22 0.186 0.511 0.285 0.782 0.279 0.312 9e-3 0.657-0.099 0.874-0.278zM21.341 20.482c-0.248-0.198-0.618-0.301-0.836-0.022-0.207 0.259-0.13 0.548-7e-3 0.82 0.247 0.461 0.944 1.431 1.321 0.649 0.15-0.31 0.179-0.717-0.038-1-0.127-0.167-0.276-0.318-0.44-0.447zM13.728 18.138c-0.692-0.241-1.039 0.804-1.167 1.293-0.055 0.172-0.057 0.433 0.148 0.497 0.177 0.02 0.37-0.067 0.521-0.156 0.338-0.243 1.136-1.411 0.498-1.634zM23.999 20.741c-7e-3 0.359-1e-3 0.83-0.029 1.15-0.042 0.509-0.304 1.043-0.699 1.428-0.365 0.376-0.855 0.607-1.381 0.651-0.318 0.028-0.781 0.023-1.139 0.029-0.555 0-1.081-0.252-1.407-0.705-0.266-0.368-0.552-0.779-0.836-1.247 6e-3 0.135 0.015 0.268 0.025 0.401 0.031 0.384-0.091 0.757-0.344 1.05-0.257 0.296-0.613 0.474-1.006 0.499-0.221 0.014-0.452 0.018-0.663 0-0.876-0.08-1.459-0.771-1.521-1.803v-1.792c-0.34 0.499-0.576 0.99-0.714 1.481-0.114 0.407-0.412 0.741-0.797 0.893-0.36 0.143-0.759 0.109-1.089-0.091-0.32-0.193-0.627-0.408-0.913-0.64-0.796-0.642-1.072-1.734-0.672-2.656 0.212-0.486 0.426-0.936 0.643-1.344-0.277 0.16-0.48 0.357-0.65 0.549-0.278 0.312-0.716 0.432-1.112 0.304-0.386-0.124-0.651-0.449-0.693-0.851-0.121-1.161 0.287-2.22 1.214-3.146 0.872-0.873 1.934-1.331 3.231-1.393 0.057-0.984 0.381-2.22 1.437-3.275 0.923-0.925 1.977-1.337 3.142-1.214 0.392 0.04 0.716 0.298 0.847 0.673 0.135 0.389 0.036 0.808-0.259 1.093-0.173 0.168-0.365 0.389-0.53 0.661 0.393-0.206 0.823-0.411 1.288-0.613 0.924-0.401 2.016-0.125 2.658 0.671 0.231 0.288 0.447 0.595 0.641 0.915 0.2 0.332 0.232 0.729 0.09 1.091-0.151 0.383-0.484 0.68-0.89 0.794-0.497 0.14-1.002 0.382-1.51 0.723C21.304 15.016 22.09 15 22.091 15c1.415 0 1.786 0.837 1.85 1.54 0.053 0.571 0.067 1.005 0.055 1.599 0 0.287-0.274 0.525-0.558 0.486-0.499-0.058-0.904-0.102-1.319-0.118 0.444 0.282 0.842 0.571 1.215 0.854 0.429 0.327 0.677 0.843 0.665 1.38zM22.999 20.72c5e-3-0.219-0.098-0.429-0.272-0.562-0.674-0.513-1.489-1.101-2.637-1.597-0.207-0.09-0.329-0.307-0.297-0.53s0.211-0.398 0.436-0.425c1.201-0.146 1.904-0.124 2.77-0.035-5e-3-0.31-0.022-0.599-0.054-0.939-0.032-0.357-0.115-0.631-0.843-0.631-2e-3 0-1.751 0.037-3.165 0.037-0.439 0.015-0.673-0.574-0.343-0.863 0.988-0.933 1.999-1.549 3.005-1.832 0.174-0.045 0.317-0.241 0.215-0.405-0.17-0.28-0.359-0.552-0.562-0.804-0.359-0.447-0.967-0.606-1.48-0.382-0.926 0.403-1.698 0.812-2.297 1.215-0.334 0.24-0.831-0.058-0.776-0.465 0.091-0.905 0.513-1.747 1.221-2.434-0.844-0.137-1.626 0.172-2.327 0.874-0.923 0.923-1.142 2.028-1.15 2.855l3.408 3.347c0.196 0.193 0.199 0.51 6e-3 0.707s-0.51 0.199-0.707 6e-3l-3.414-3.352c-0.781-2e-3-1.854 0.145-2.812 1.105-0.703 0.703-1.015 1.489-0.927 2.336 0.473-0.475 1.169-1.104 2.489-1.23 0.189-0.013 0.378 0.076 0.478 0.242 0.099 0.167 0.093 0.375-0.016 0.535-0.405 0.602-0.813 1.374-1.214 2.297-0.223 0.511-0.065 1.119 0.382 1.479 0.251 0.203 0.521 0.393 0.803 0.562 0.167 0.102 0.359-0.043 0.405-0.217 0.279-0.994 0.872-1.962 1.812-2.957 0.14-0.151 0.36-0.197 0.548-0.122 0.19 0.076 0.315 0.26 0.315 0.465v3.165c0.031 0.512 0.238 0.803 0.612 0.837 0.15 0.014 0.329 8e-3 0.51-2e-3 0.236-0.01 0.44-0.233 0.416-0.471-0.065-0.807-0.048-1.46 0.066-2.41 0.026-0.225 0.2-0.402 0.424-0.436 0.229-0.028 0.441 0.089 0.531 0.297 0.492 1.139 1.083 2.019 1.596 2.73 0.134 0.185 0.302 0.274 0.577 0.289 0.333-6e-3 0.775 0 1.073-0.025 0.288-0.024 0.555-0.15 0.752-0.355 4e-3-5e-3 9e-3-9e-3 0.013-0.013 0.223-0.215 0.382-0.529 0.404-0.8 0.018-0.204 0.025-1.087 0.026-1.086z" />
</svg>