<svg id="monument_Layer_1" viewBox="0 0 24 24" fill="currentColor" width="32" height="32" data-name="Layer 1" xmlns="http://www.w3.org/2000/svg" xmlns:xlink="http://www.w3.org/1999/xlink">
    <title>monument</title>
    <path d="M24 23.5c0 0.276-0.224 0.5-0.5 0.5h-23C0.224 24 0 23.776 0 23.5S0.224 23 0.5 23h23c0.276 0 0.5 0.224 0.5 0.5zM2 19.5C2 19.224 2.224 19 2.5 19h2.565l1.97-14.196C7.169 3.84 7.621 2.929 8.31 2.241l1.215-1.215c1.321-1.322 3.628-1.322 4.949 0l1.215 1.215c0.689 0.689 1.142 1.599 1.275 2.563L18.934 19h2.565c0.276 0 0.5 0.224 0.5 0.5s-0.224 0.5-0.5 0.5H2.5C2.224 20 2 19.776 2 19.5zM16.122 6H12.5v13h5.426zM8.017 5h7.966l-8e-3-0.059c-0.104-0.75-0.457-1.458-0.992-1.994l-1.215-1.215c-0.944-0.944-2.591-0.944-3.535 0L9.018 2.947C8.482 3.483 8.13 4.191 8.026 4.941zM6.074 19H11.5V6H7.878z" />
</svg>