<svg id="moon_stars_Layer_1" viewBox="0 0 24 24" fill="currentColor" width="32" height="32" data-name="Layer 1" xmlns="http://www.w3.org/2000/svg" xmlns:xlink="http://www.w3.org/1999/xlink">
    <title>moon-stars</title>
    <path d="M12 12c0-3.146 1.446-5.925 4.421-8.494 0.47-0.405 0.679-1.014 0.562-1.628-0.118-0.614-0.538-1.101-1.124-1.303-1.639-0.565-3.851-0.728-5.776-0.423-5.256 0.835-9.47 5.28-10.017 10.571-0.657 6.352 3.744 12.117 10.017 13.125 0.656 0.105 1.321 0.15 1.999 0.153 1.362 0 2.701-0.204 3.777-0.576 0.585-0.202 1.005-0.689 1.124-1.303 0.118-0.614-0.092-1.223-0.562-1.628C13.446 17.925 12 15.147 12 12zM15.533 22.479C14.558 22.815 13.336 23 12.08 23c-0.62-5e-3-1.235-0.043-1.839-0.14-5.75-0.923-9.783-6.21-9.18-12.034 0.501-4.848 4.362-8.922 9.179-9.686 0.597-0.095 1.223-0.141 1.847-0.141 1.23 0 2.456 0.179 3.446 0.521 0.243 0.084 0.418 0.288 0.467 0.546 0.05 0.259-0.037 0.514-0.232 0.683C12.56 5.519 11 8.545 11 11.999s1.56 6.48 4.768 9.25c0.195 0.169 0.282 0.424 0.232 0.683-0.049 0.258-0.224 0.462-0.467 0.547z" />
    <circle cx="17" cy="15" r="1" />
    <circle cx="23" cy="19" r="1" />
    <path d="M23.658 8.974C23.862 8.906 24 8.715 24 8.5s-0.138-0.406-0.342-0.474l-1.263-0.421-0.421-1.263c-0.136-0.408-0.812-0.408-0.948 0l-0.419 1.257-1.256 0.393C19.146 8.056 19.004 8.244 19 8.46s0.13 0.409 0.333 0.48l1.27 0.449 0.423 1.269C21.094 10.862 21.285 11 21.5 11s0.406-0.138 0.474-0.342l0.421-1.263z" />
</svg>