<svg id="moped_Layer_1" viewBox="0 0 24 24" fill="currentColor" width="32" height="32" data-name="Layer 1" xmlns="http://www.w3.org/2000/svg" xmlns:xlink="http://www.w3.org/1999/xlink">
    <title>moped</title>
    <path d="M20.5 15c-1.93 0-3.5 1.57-3.5 3.5s1.57 3.5 3.5 3.5 3.5-1.57 3.5-3.5-1.57-3.5-3.5-3.5zM20.5 21c-1.379 0-2.5-1.122-2.5-2.5s1.121-2.5 2.5-2.5 2.5 1.122 2.5 2.5-1.121 2.5-2.5 2.5zM23.5 13c0.276 0 0.5-0.224 0.5-0.5S23.776 12 23.5 12h-3c-0.297 0-0.591 0.028-0.882 0.068l-1.642-4.224C18.214 7.944 18.476 8 18.75 8H19c0.552 0 1-0.449 1-1V5c0-0.551-0.448-1-1-1h-0.25c-0.808 0-1.502 0.484-1.817 1.175C16.391 3.853 15.13 3 13.698 3H11.5C11.224 3 11 3.224 11 3.5S11.224 4 11.5 4h2.198c1.038 0 1.953 0.626 2.33 1.594l2.601 6.689c-1.129 0.341-2.161 0.982-2.971 1.882l-1.342 1.592c-0.627 0.744-1.526 1.189-2.491 1.239l-2.581-5.898C8.687 9.824 7.429 9.001 6.038 9.001H3.5c-1.93 0-3.5 1.57-3.5 3.5v2c0 1.433 0.868 2.665 2.105 3.206C2.043 17.968 2 18.233 2 18.501c0 1.93 1.57 3.5 3.5 3.5s3.5-1.57 3.5-3.5c0-0.168-0.019-0.334-0.043-0.5h2.684c1.329 0 2.583-0.583 3.439-1.6l1.332-1.58C17.453 13.664 18.943 13 20.5 13zM18.75 5H19v2h-0.25c-0.552 0-1-0.449-1-1s0.448-1 1-1zM8 18.5C8 19.878 6.879 21 5.5 21S3 19.878 3 18.5c0-0.183 0.028-0.364 0.069-0.544C3.212 17.974 3.353 18 3.5 18h4.443C7.977 18.165 8 18.332 8 18.5zM3.5 17C2.121 17 1 15.878 1 14.5v-2C1 11.122 2.121 10 3.5 10h2.538c0.993 0 1.892 0.588 2.29 1.498L10.735 17z" />
</svg>