<svg id="mosque_alt_Layer_1" viewBox="0 0 24 24" fill="currentColor" width="32" height="32" data-name="Layer 1" xmlns="http://www.w3.org/2000/svg" xmlns:xlink="http://www.w3.org/1999/xlink">
    <title>mosque-alt</title>
    <path d="M22 21.051V7h0.5C22.776 7 23 6.776 23 6.5S22.776 6 22.5 6H22V4.5c0-1.207-0.86-2.217-2-2.449V0.5C20 0.224 19.776 0 19.5 0S19 0.224 19 0.5v1.551c-1.14 0.232-2 1.242-2 2.449V6h-0.5C16.224 6 16 6.224 16 6.5S16.224 7 16.5 7H17v14h-4v-3.649c1.232-1.099 2-2.644 2-4.145 0-3.162-2.796-4.573-4.837-5.604-0.776-0.392-1.566-0.793-1.94-1.179-0.058-0.107-0.114-0.26-0.159-0.459 0.573-0.101 1.069-0.425 1.393-0.881C9.573 4.92 9.435 4.7 9.238 4.73c-0.1 0.015-0.202 0.023-0.307 0.023-1.206 0-2.184-0.978-2.184-2.184 0-0.104 8e-3-0.207 0.023-0.307 0.03-0.197-0.191-0.335-0.353-0.219-0.6 0.427-0.976 1.148-0.91 1.956 0.069 0.847 0.634 1.555 1.398 1.85-0.056 0.328-0.14 0.531-0.218 0.657-0.4 0.361-1.13 0.733-1.851 1.097-2.041 1.031-4.837 2.442-4.837 5.604 0 1.501 0.768 3.046 2 4.145v3.7c-1.14 0.232-2 1.242-2 2.449 0 0.276 0.224 0.5 0.5 0.5s0.5-0.224 0.5-0.5c0-0.827 0.673-1.5 1.5-1.5h19c0.827 0 1.5 0.673 1.5 1.5 0 0.276 0.224 0.5 0.5 0.5s0.5-0.224 0.5-0.5c0-1.207-0.86-2.217-1.999-2.45zM12 21H3v-3h9zM11.835 17h-8.67C1.575 15.902 1 14.282 1 13.206 1 10.66 3.278 9.51 5.288 8.495 6.182 8.043 7.001 7.63 7.5 7.117 7.999 7.63 8.818 8.043 9.712 8.495 11.722 9.51 14 10.66 14 13.206c0 1.076-0.576 2.696-2.165 3.794zM21 21h-3V7h3zM21 6h-3V4.5C18 3.673 18.673 3 19.5 3S21 3.673 21 4.5z" />
</svg>