<svg id="mosquito_Layer_1" viewBox="0 0 24 24" fill="currentColor" width="32" height="32" data-name="Layer 1" xmlns="http://www.w3.org/2000/svg" xmlns:xlink="http://www.w3.org/1999/xlink">
    <title>mosquito</title>
    <path d="M23.577 11.136c-0.44-0.774-1.164-1.33-2.038-1.563-0.871-0.233-3.698-0.572-6.146-0.572h-2.421l5.815-3.489c0.749-0.449 1.214-1.27 1.214-2.152 0-0.395 0.152-0.768 0.429-1.05l1.429-1.459c0.193-0.197 0.189-0.514-8e-3-0.707-0.195-0.193-0.514-0.188-0.707 8e-3l-1.429 1.459c-0.46 0.47-0.714 1.091-0.714 1.758 0 0.524-0.279 1.017-0.728 1.286l-3.812 2.287c0.026-0.143 0.04-0.291 0.04-0.441 0-1.042-0.641-1.937-1.55-2.312l-0.622-3.91c-0.084-0.371-0.612-0.371-0.696 0l-0.625 3.928C10.122 4.592 9.5 5.475 9.5 6.501c0 0.151 0.014 0.298 0.04 0.441L5.728 4.655C5.28 4.385 5 3.893 5 3.36 5 2.702 4.746 2.081 4.286 1.611L2.857 0.15c-0.192-0.196-0.51-0.201-0.707-8e-3s-0.201 0.51-8e-3 0.707l1.429 1.459C3.847 2.59 4 2.963 4 3.367 4 4.241 4.465 5.062 5.214 5.511L11.029 9H8.608C6.16 9 3.333 9.339 2.462 9.572c-0.874 0.234-1.598 0.789-2.038 1.563-0.43 0.756-0.537 1.63-0.303 2.462C0.528 15.046 1.878 16 3.345 16c0.29 0 0.586-0.038 0.879-0.116 1.29-0.345 5.441-3.756 7.276-5.302v2.186l-5.615 4.751C5.323 17.995 5 18.69 5 19.428v1.111c0 0.458-0.205 0.885-0.563 1.171l-1.749 1.399c-0.216 0.173-0.25 0.487-0.078 0.703C2.709 23.936 2.854 24 3.001 24c0.109 0 0.22-0.036 0.312-0.109l1.749-1.4C5.659 22.014 6 21.302 6 20.539v-1.111c0-0.442 0.193-0.86 0.531-1.145l4.969-4.204v5.422c0 0.276 0.224 0.5 0.5 0.5s0.5-0.224 0.5-0.5v-5.422l4.969 4.204C17.807 18.568 18 18.986 18 19.428v1.111c0 0.763 0.342 1.475 0.938 1.953l1.749 1.399C20.78 23.965 20.889 24 21 24c0.146 0 0.292-0.064 0.391-0.188 0.172-0.216 0.138-0.53-0.078-0.703l-1.749-1.399c-0.358-0.287-0.563-0.714-0.563-1.172v-1.111c0-0.737-0.322-1.433-0.885-1.909l-5.615-4.751v-2.186c1.835 1.546 5.986 4.957 7.276 5.302 0.293 0.079 0.589 0.116 0.879 0.116 1.467 0 2.816-0.954 3.224-2.402 0.234-0.833 0.127-1.707-0.303-2.461zM12 5c0.827 0 1.5 0.673 1.5 1.5S12.827 8 12 8s-1.5-0.673-1.5-1.5S11.173 5 12 5zM3.966 14.917c-1.253 0.333-2.541-0.38-2.882-1.592-0.162-0.573-0.088-1.175 0.208-1.695 0.308-0.54 0.814-0.928 1.427-1.092C3.402 10.355 6.098 10 8.608 10h2.03c-2.456 2.058-5.784 4.68-6.672 4.917zM22.916 13.326c-0.341 1.211-1.635 1.925-2.881 1.591-0.889-0.238-4.217-2.859-6.673-4.917h2.03c2.51 0 5.206 0.355 5.889 0.538 0.612 0.164 1.119 0.552 1.427 1.092 0.296 0.52 0.37 1.122 0.208 1.696z" />
</svg>