<svg id="motorcycle_helmet_Layer_1" viewBox="0 0 24 24" fill="currentColor" width="32" height="32" data-name="Layer 1" xmlns="http://www.w3.org/2000/svg" xmlns:xlink="http://www.w3.org/1999/xlink">
    <title>motorcycle-helmet</title>
    <path d="M23.684 17.744c-1.146-5.631-3.125-11.239-3.145-11.295C19.126 2.592 15.064 0 10.431 0 4.706 0 0.049 4.657 0.049 10.382c0 1.188 0.216 4.061 0.525 6.282 0.279 2.001 1.867 3.577 3.862 3.832 3.226 0.412 6.482 1.36 10.254 2.458 1.011 0.295 2.064 0.602 3.174 0.915 0.318 0.09 0.642 0.133 0.96 0.133 1.154 0 2.252-0.571 2.904-1.564l1.455-2.054c0.51-0.777 0.688-1.715 0.501-2.64zM22.704 17.943c0.031 0.15 0.043 0.299 0.048 0.448l-11.209-3.702c1.442-0.605 2.458-2.03 2.458-3.689 0-1.201-0.542-2.266-1.382-3h7.382c0 0 4e-3-1e-3 7e-3-1e-3 0.638 1.94 1.881 5.933 2.696 9.944zM10 8c1.654 0 3 1.346 3 3s-1.346 3-3 3-3-1.346-3-3 1.346-3 3-3zM20.902 21.874c-0.601 0.915-1.714 1.329-2.767 1.032-1.106-0.312-2.157-0.618-3.166-0.912-3.812-1.109-7.104-2.067-10.406-2.49-1.549-0.197-2.782-1.423-2.999-2.979-0.295-2.118-0.516-4.99-0.516-6.144C1.049 5.209 5.258 1 10.431 1c4.3 7e-3 8.033 2.401 9.241 6H10c-2.206 0-4 1.794-4 4 0 1.724 1.102 3.183 2.634 3.744 0.046 0.038 13.947 4.644 13.947 4.644-0.06 0.151-0.134 0.296-0.224 0.432z" />
</svg>