<svg id="motorcycle_front_Layer_1" viewBox="0 0 24 24" fill="currentColor" width="32" height="32" data-name="Layer 1" xmlns="http://www.w3.org/2000/svg" xmlns:xlink="http://www.w3.org/1999/xlink">
    <title>motorcycle-front</title>
    <path d="M23.5 0h-4.158c-1.306 0-2.573 0.467-3.568 1.313l-1.66 1.416C13.525 2.278 12.798 2 12 2c-0.812 0-1.552 0.29-2.146 0.756L8.239 1.352C7.238 0.48 5.956 0 4.629 0H0.5C0.224 0 0 0.224 0 0.5S0.224 1 0.5 1h4.129c1.085 0 2.134 0.393 2.954 1.105l1.574 1.369C8.747 4.047 8.5 4.743 8.5 5.5c0 0.156 0.026 0.305 0.046 0.456-0.022 5e-3-0.673 0.152-0.883 0.224-1.85 0.639-2.964 2.585-2.588 4.539l1.578 7.28H3.5c-0.276 0-0.5 0.224-0.5 0.5s0.224 0.5 0.5 0.5h3.37c0.27 1.769 1.836 3.079 3.63 3v0.5c0 0.827 0.673 1.5 1.5 1.5s1.5-0.673 1.5-1.5v-0.5c1.798 0.079 3.365-1.236 3.63-3h3.37c0.276 0 0.5-0.224 0.5-0.5s-0.224-0.5-0.5-0.5h-3.154l1.581-7.291c0.374-1.943-0.74-3.89-2.59-4.528-0.21-0.072-0.861-0.219-0.883-0.224 0.02-0.151 0.046-0.3 0.046-0.456 0-0.771-0.258-1.478-0.682-2.057l1.604-1.368C17.236 1.382 18.273 1 19.341 1h4.158c0.276 0 0.5-0.224 0.5-0.5S23.775 0 23.5 0zM14.5 5.5C14.5 6.879 13.378 8 12 8S9.5 6.879 9.5 5.5 10.622 3 12 3s2.5 1.121 2.5 2.5zM12.5 22.5c0 0.275-0.224 0.5-0.5 0.5s-0.5-0.225-0.5-0.5v-8c0-0.275 0.224-0.5 0.5-0.5s0.5 0.225 0.5 0.5zM16.011 7.126c1.383 0.478 2.214 1.937 1.937 3.383l-1.835 8.463c-0.232 1.235-1.363 2.096-2.612 2.028v-6.5c0-0.827-0.673-1.5-1.5-1.5s-1.5 0.673-1.5 1.5V21c-1.25 0.067-2.38-0.793-2.615-2.039l-1.83-8.441C5.776 9.063 6.607 7.604 7.99 7.126 8.196 7.055 8.537 6.985 8.809 6.921 9.356 8.143 10.578 9 12.001 9s2.645-0.857 3.192-2.079c0.038 8e-3 0.637 0.142 0.818 0.205z" />
</svg>