<svg id="mountains_Layer_1" viewBox="0 0 24 24" fill="currentColor" width="32" height="32" data-name="Layer 1" xmlns="http://www.w3.org/2000/svg" xmlns:xlink="http://www.w3.org/1999/xlink">
    <title>mountains</title>
    <path d="M20 8c2.206 0 4-1.794 4-4s-1.794-4-4-4-4 1.794-4 4 1.794 4 4 4zM20 1c1.654 0 3 1.346 3 3s-1.346 3-3 3-3-1.346-3-3 1.346-3 3-3zM19.161 11.87c-0.433-0.812-1.241-1.297-2.161-1.297s-1.729 0.485-2.161 1.297l-4.548 8.528c-0.408 0.766-0.387 1.667 0.061 2.411 0.446 0.745 1.231 1.19 2.101 1.19h9.096c0.869 0 1.654-0.445 2.101-1.19 0.447-0.744 0.469-1.646 0.061-2.411zM22.791 22.296C22.526 22.736 22.062 23 21.548 23h-9.096c-0.515 0-0.979-0.264-1.243-0.704s-0.277-0.974-0.035-1.427l4.548-8.528c0.256-0.48 0.733-0.768 1.278-0.768s1.022 0.287 1.278 0.768l4.548 8.528c0.242 0.453 0.229 0.986-0.035 1.427zM9.976 6C9.442 6 8.974 6.281 8.723 6.752L1.17 20.912c-0.237 0.444-0.224 0.968 0.035 1.399s0.714 0.688 1.217 0.688H7.5c0.276 0 0.5 0.224 0.5 0.5s-0.224 0.5-0.5 0.5H2.422c-0.857 0-1.633-0.438-2.074-1.174s-0.464-1.627-0.061-2.385L7.84 6.281C8.268 5.479 9.067 5 9.976 5s1.707 0.479 2.135 1.281l1.591 2.983c0.13 0.244 0.037 0.547-0.206 0.677-0.244 0.128-0.547 0.038-0.677-0.206l-1.591-2.983C10.977 6.281 10.509 6 9.976 6z" />
</svg>