<svg id="mound_Layer_1" viewBox="0 0 24 24" fill="currentColor" width="32" height="32" data-name="Layer 1" xmlns="http://www.w3.org/2000/svg" xmlns:xlink="http://www.w3.org/1999/xlink">
    <title>mound</title>
    <path d="M23.669 19.833l-4.197-8.249C18.034 8.758 15.171 7.002 12 7.002s-6.034 1.756-7.472 4.582l-4.195 8.245c-0.47 0.889-0.441 1.934 0.077 2.796C0.928 23.486 1.836 24 2.839 24H21.16c1.003 0 1.911-0.514 2.429-1.375 0.519-0.863 0.547-1.91 0.08-2.792zM22.733 22.11C22.398 22.667 21.81 23 21.161 23H2.839c-0.649 0-1.237-0.333-1.572-0.89-0.337-0.56-0.355-1.239-0.048-1.816 0-2e-3 2e-3-5e-3 4e-3-8e-3l4.197-8.249C6.705 9.511 9.165 8.002 12 8.002s5.295 1.509 6.58 4.035l4.201 8.257c0.307 0.577 0.289 1.256-0.048 1.816z" />
</svg>