<svg id="mov_file_Layer_1" viewBox="0 0 24 24" fill="currentColor" width="32" height="32" data-name="Layer 1" xmlns="http://www.w3.org/2000/svg" xmlns:xlink="http://www.w3.org/1999/xlink">
    <title>mov-file</title>
    <path d="M14.851 4.629C14.769 4.31 15.01 4 15.339 4c0.23 0 0.431 0.156 0.488 0.38l1.091 4.309 1.052-4.305C18.025 4.159 18.227 4 18.459 4h0.038c0.329 0 0.569 0.31 0.487 0.629l-1.51 5.872c-0.065 0.254-0.294 0.432-0.557 0.432s-0.491-0.178-0.557-0.432zM7.78 4C7.481 4 7.202 4.212 7.044 4.56L6.026 6.8 5.008 4.56C4.85 4.212 4.571 4 4.272 4 3.821 4 3.445 4.258 3.408 4.875l-0.406 5.602C2.981 10.759 3.205 11 3.488 11c0.255 0 0.467-0.197 0.486-0.451l0.38-5.034 1.229 2.703c0.173 0.381 0.714 0.381 0.888 0l1.228-2.696 0.345 5.024C8.062 10.802 8.274 11 8.53 11h0.035c0.283 0 0.507-0.24 0.486-0.523L8.645 4.875C8.608 4.258 8.232 4 7.78 4zM14 5.973v3.053c0 1.089-0.897 1.975-2 1.975s-2-0.886-2-1.975V5.973C10 4.885 10.897 4 12 4s2 0.885 2 1.973zM13 5.973C13 5.446 12.542 5 12 5s-1 0.445-1 0.973v3.053c0 0.528 0.458 0.975 1 0.975s1-0.446 1-0.975zM24 4.5v9.515c0 1.735-0.676 3.368-1.904 4.597l-3.485 3.484C17.384 23.324 15.752 24 14.015 24H4.5C2.019 24 0 21.981 0 19.5v-15C0 2.019 2.019 0 4.5 0h15C21.981 0 24 2.019 24 4.5zM14.015 23c0.335 0 0.663-0.038 0.985-0.096V17.5c0-1.379 1.122-2.5 2.5-2.5h5.404C22.962 14.677 23 14.349 23 14.015V4.5C23 2.57 21.43 1 19.5 1h-15C2.57 1 1 2.57 1 4.5v15C1 21.43 2.57 23 4.5 23zM22.621 16h-5.12c-0.827 0-1.5 0.673-1.5 1.5v5.121c0.704-0.273 1.354-0.682 1.904-1.232l3.485-3.484c0.55-0.551 0.959-1.2 1.231-1.905z" />
</svg>