<svg id="move_to_folder_2_Layer_1" viewBox="0 0 24 24" fill="currentColor" width="32" height="32" data-name="Layer 1" xmlns="http://www.w3.org/2000/svg" xmlns:xlink="http://www.w3.org/1999/xlink">
    <title>move-to-folder-2</title>
    <path d="M19.5 3h-7.03c-0.23 0-0.46-0.05-0.67-0.16L8.64 1.26C8.3 1.09 7.91 1 7.52 1H4.49C2.02 1 0 3.02 0 5.5v13C0 20.98 2.02 23 4.5 23h8c0.28 0 0.5-0.22 0.5-0.5S12.78 22 12.5 22h-8C2.57 22 1 20.43 1 18.5V8h22v6.5c0 0.28 0.22 0.5 0.5 0.5s0.5-0.22 0.5-0.5v-7C24 5.02 21.98 3 19.5 3zM1 5.5C1 3.57 2.57 2 4.5 2h3.03C7.76 2 7.99 2.05 8.2 2.16l3.16 1.58C11.7 3.91 12.09 4 12.48 4h7.03c1.76 0 3.22 1.31 3.46 3H1zM24 19.5c0 0 0 0 0 0 0 0.5-0.19 1-0.58 1.38l-2.57 2.52c-0.1 0.1-0.22 0.14-0.35 0.14s-0.26-0.05-0.36-0.15c-0.19-0.2-0.19-0.51 0-0.71l2.57-2.52c0.06-0.06 0.1-0.12 0.14-0.18H13.5c-0.28 0-0.5-0.22-0.5-0.5s0.22-0.5 0.5-0.5h9.36c-0.04-0.07-0.09-0.13-0.15-0.19l-2.57-2.51c-0.2-0.19-0.2-0.51 0-0.71 0.19-0.2 0.51-0.2 0.71 0l2.57 2.52C23.8 18.47 24 18.98 24 19.48c0 0 0 0 0 0.02z" />
</svg>