<svg id="mp4_file_Layer_1" viewBox="0 0 24 24" fill="currentColor" width="32" height="32" data-name="Layer 1" xmlns="http://www.w3.org/2000/svg" xmlns:xlink="http://www.w3.org/1999/xlink">
    <title>mp4-file</title>
    <path d="M15 6c0-1.103-0.897-2-2-2h-1c-0.551 0-1 0.448-1 1v5.5c0 0.276 0.224 0.5 0.5 0.5s0.5-0.224 0.5-0.5V8h1c1.103 0 2-0.897 2-2zM13 7h-1V5h1c0.551 0 1 0.448 1 1s-0.449 1-1 1zM16 7V4.5C16 4.224 16.224 4 16.5 4S17 4.224 17 4.5V7c0 0.552 0.449 1 1 1h1V4.5C19 4.224 19.224 4 19.5 4S20 4.224 20 4.5v6c0 0.276-0.224 0.5-0.5 0.5S19 10.776 19 10.5V9h-1c-1.103 0-2-0.897-2-2zM19.5 0h-15C2.019 0 0 2.019 0 4.5v15C0 21.981 2.019 24 4.5 24h9.515c1.737 0 3.369-0.677 4.596-1.904l3.485-3.484C23.324 17.383 24 15.751 24 14.015V4.5C24 2.019 21.981 0 19.5 0zM4.5 23C2.57 23 1 21.43 1 19.5v-15C1 2.57 2.57 1 4.5 1h15C21.43 1 23 2.57 23 4.5v9.515c0 0.335-0.038 0.663-0.096 0.985H17.5c-1.378 0-2.5 1.121-2.5 2.5v5.404C14.677 22.962 14.349 23 14.015 23zM21.389 17.904l-3.485 3.484c-0.55 0.55-1.199 0.959-1.904 1.232v-5.121c0-0.827 0.673-1.5 1.5-1.5h5.12c-0.273 0.704-0.682 1.354-1.231 1.905zM9.144 4.875 9.55 10.477C9.571 10.759 9.347 11 9.064 11H9.03c-0.256 0-0.469-0.198-0.486-0.454L8.199 5.522 6.971 8.218c-0.173 0.381-0.714 0.38-0.887 0L4.855 5.515l-0.38 5.034C4.456 10.803 4.244 11 3.989 11c-0.283 0-0.507-0.24-0.486-0.523l0.406-5.602C3.946 4.258 4.322 4 4.773 4 5.072 4 5.351 4.212 5.509 4.56L6.527 6.8 7.545 4.56C7.703 4.212 7.982 4 8.281 4 8.732 4 9.108 4.258 9.144 4.875z" />
</svg>