<svg id="mug_hot_Layer_1" viewBox="0 0 24 24" fill="currentColor" width="32" height="32" data-name="Layer 1" xmlns="http://www.w3.org/2000/svg" xmlns:xlink="http://www.w3.org/1999/xlink">
    <title>mug-hot</title>
    <path d="M20 10h-2V8.5C18 7.122 16.879 6 15.5 6h-12C2.121 6 1 7.122 1 8.5v11C1 21.981 3.019 24 5.5 24h8c2.312 0 4.223-1.753 4.472-4H20c1.654 0 3-1.346 3-3v-4c0-1.654-1.346-3-3-3zM13.5 23h-8C3.57 23 2 21.43 2 19.5v-11C2 7.673 2.673 7 3.5 7h12C16.327 7 17 7.673 17 8.5v11c0 1.93-1.57 3.5-3.5 3.5zM22 17c0 1.103-0.897 2-2 2h-2v-8h2c1.103 0 2 0.897 2 2zM9 3.5v-3C9 0.224 9.224 0 9.5 0S10 0.224 10 0.5v3C10 3.776 9.776 4 9.5 4S9 3.776 9 3.5zM13 3.5v-3C13 0.224 13.224 0 13.5 0S14 0.224 14 0.5v3C14 3.776 13.776 4 13.5 4S13 3.776 13 3.5zM5 3.5v-3C5 0.224 5.224 0 5.5 0S6 0.224 6 0.5v3C6 3.776 5.776 4 5.5 4S5 3.776 5 3.5z" />
</svg>