<svg id="mug_hot_alt_Layer_1" viewBox="0 0 24 24" fill="currentColor" width="32" height="32" data-name="Layer 1" xmlns="http://www.w3.org/2000/svg" xmlns:xlink="http://www.w3.org/1999/xlink">
    <title>mug-hot-alt</title>
    <path d="M19.9 10h-0.557c0.055-0.418 0.103-0.828 0.142-1.222 0.071-0.715-0.162-1.428-0.641-1.957-0.471-0.52-1.142-0.818-1.842-0.818L2.496 6v0c-0.7 0-1.371 0.298-1.842 0.818-0.479 0.529-0.713 1.243-0.64 1.957 0.33 3.321 1.253 7.732 2.313 9.364C3.492 19.931 5.507 21 7.716 21h4.067c2.209 0 4.224-1.07 5.389-2.861 0.192-0.296 0.38-0.683 0.561-1.139h2.168c2.223 0 4.1-1.799 4.1-3.929 0-1.923-1.532-3.071-4.101-3.071zM11.783 20H7.716c-1.869 0-3.57-0.899-4.551-2.406-0.826-1.273-1.794-5.273-2.157-8.918-0.043-0.434 0.098-0.867 0.388-1.187C1.681 7.174 2.073 7 2.497 7v0l14.506 3e-3c0.424 0 0.814 0.174 1.1 0.489 0.29 0.32 0.432 0.752 0.389 1.187-0.363 3.645-1.331 7.644-2.157 8.915C15.355 19.101 13.653 20 11.783 20zM19.9 16h-1.815c0.454-1.435 0.843-3.249 1.115-5h0.701c1.157 0 3.1 0.269 3.1 2.071 0 1.56-1.448 2.929-3.101 2.929zM9 3.5v-3C9 0.224 9.224 0 9.5 0S10 0.224 10 0.5v3C10 3.776 9.776 4 9.5 4S9 3.776 9 3.5zM13 3.5v-3C13 0.224 13.224 0 13.5 0S14 0.224 14 0.5v3C14 3.776 13.776 4 13.5 4S13 3.776 13 3.5zM5 3.5v-3C5 0.224 5.224 0 5.5 0S6 0.224 6 0.5v3C6 3.776 5.776 4 5.5 4S5 3.776 5 3.5zM19.5 23.5c0 0.276-0.224 0.5-0.5 0.5H0.5C0.224 24 0 23.776 0 23.5S0.224 23 0.5 23H19c0.276 0 0.5 0.224 0.5 0.5z" />
</svg>