<svg id="mug_tea_Layer_1" viewBox="0 0 24 24" fill="currentColor" width="32" height="32" data-name="Layer 1" xmlns="http://www.w3.org/2000/svg" xmlns:xlink="http://www.w3.org/1999/xlink">
    <title>mug-tea</title>
    <path d="M19.678 11.009c0.131-0.749 0.239-1.515 0.314-2.294 0.069-0.707-0.151-1.38-0.619-1.896-0.47-0.518-1.152-0.815-1.871-0.815l-15.01-3e-3v0c-0.717 0-1.397 0.296-1.865 0.812C0.158 7.328-0.062 8 7e-3 8.707c0.45 4.634 2.003 8.818 3.228 11.512C4.279 22.516 6.597 24 9.14 24h1.72c2.545 0 4.865-1.49 5.912-3.796 0.03-0.067 0.061-0.135 0.092-0.204h2.054C21.72 20 24 17.72 24 14.918c0-2.314-1.534-3.699-4.322-3.909zM8.5 11.207l1.061 1.061C9.844 12.552 10 12.928 10 13.329V15c0 0.551-0.449 1-1 1H8c-0.551 0-1-0.449-1-1v-1.671c0-0.401 0.156-0.777 0.439-1.061zM10.86 23H9.14c-2.152 0-4.113-1.254-4.995-3.195C2.953 17.18 1.439 13.107 1.002 8.61 0.961 8.188 1.09 7.789 1.366 7.485 1.65 7.173 2.049 7.001 2.491 7.001H8v3.292l-1.268 1.268C6.26 12.033 6 12.661 6 13.329V15c0 1.103 0.897 2 2 2h1c1.103 0 2-0.897 2-2v-1.671c0-0.668-0.26-1.296-0.732-1.768L9 10.293V7.002l8.502 2e-3c0.444 0 0.845 0.173 1.13 0.487 0.276 0.305 0.406 0.705 0.365 1.127-0.437 4.487-1.946 8.553-3.135 11.173C14.977 21.74 13.013 23 10.86 23zM18.918 19h-1.622c0.793-1.904 1.636-4.319 2.192-7.002h0.013c2.321 0.148 3.499 1.13 3.499 2.92C23 17.169 21.169 19 18.918 19zM9 3.5v-3C9 0.224 9.224 0 9.5 0S10 0.224 10 0.5v3C10 3.776 9.776 4 9.5 4S9 3.776 9 3.5zM13 3.5v-3C13 0.224 13.224 0 13.5 0S14 0.224 14 0.5v3C14 3.776 13.776 4 13.5 4S13 3.776 13 3.5zM5 3.5v-3C5 0.224 5.224 0 5.5 0S6 0.224 6 0.5v3C6 3.776 5.776 4 5.5 4S5 3.776 5 3.5z" />
</svg>