<svg id="mug_marshmallows_Layer_1" viewBox="0 0 24 24" fill="currentColor" width="32" height="32" data-name="Layer 1" xmlns="http://www.w3.org/2000/svg" xmlns:xlink="http://www.w3.org/1999/xlink">
    <title>mug-marshmallows</title>
    <path d="M20.003 10.002h-2v-1.5c0-1.356-1.086-2.463-2.434-2.498l0.467-0.467c0.378-0.377 0.586-0.879 0.586-1.414s-0.208-1.036-0.586-1.414l-2.122-2.122c-0.756-0.756-2.072-0.756-2.828 0L9.977 1.696C9.831 0.737 9.001 0 8.001 0h-3c-1.103 0-2 0.898-2 2.001v3c0 0.369 0.101 0.715 0.276 1.012C2.004 6.128 1.003 7.2 1.003 8.502v11c0 2.481 2.019 4.5 4.5 4.5h8c2.312 0 4.223-1.753 4.472-4h2.028c1.654 0 3-1.346 3-3v-4c0-1.654-1.346-3-3-3zM11.794 1.294c0.378-0.378 1.036-0.378 1.414 0l2.122 2.122c0.189 0.189 0.293 0.44 0.293 0.707S15.519 4.641 15.33 4.83l-1.112 1.112c-0.019 0.019-0.036 0.039-0.051 0.061h-3.332C10.819 5.982 9.672 4.83 9.672 4.83 9.483 4.641 9.379 4.39 9.379 4.123s0.104-0.518 0.293-0.707zM4.001 2.001c0-0.551 0.449-1 1-1h3c0.551 0 1 0.449 1 1v0.672L8.965 2.709c-0.378 0.378-0.586 0.88-0.586 1.414S8.587 5.16 8.965 5.537l0.466 0.466H5.02c-7e-3 0-0.013 0-0.019 0-0.551 0-1-0.449-1-1zM13.503 23.002h-8c-1.93 0-3.5-1.57-3.5-3.5v-11c0-0.827 0.673-1.5 1.5-1.5h12c0.827 0 1.5 0.673 1.5 1.5v11c0 1.93-1.57 3.5-3.5 3.5zM22.003 17.002c0 1.103-0.897 2-2 2h-2v-8h2c1.103 0 2 0.897 2 2z" />
</svg>