<svg id="mug_tea_saucer_Layer_1" viewBox="0 0 24 24" fill="currentColor" width="32" height="32" data-name="Layer 1" xmlns="http://www.w3.org/2000/svg" xmlns:xlink="http://www.w3.org/1999/xlink">
    <title>mug-tea-saucer</title>
    <path d="M21.5 5H19V4.5C19 3.121 17.878 2 16.5 2H4.539c-1.378 0-2.5 1.121-2.5 2.5v10c0 2.481 2.019 4.5 4.5 4.5H14.5c2.481 0 4.5-2.019 4.5-4.5V14h2.5c1.378 0 2.5-1.121 2.5-2.5v-4C24 6.121 22.878 5 21.5 5zM9.5 7.207l1.061 1.061C10.84 8.547 11 8.934 11 9.329v1.672c0 0.552-0.449 1-1 1H9c-0.551 0-1-0.448-1-1V9.329c0-0.395 0.16-0.781 0.439-1.061zM18 14.5c0 1.93-1.57 3.5-3.5 3.5H6.539c-1.93 0-3.5-1.57-3.5-3.5v-10c0-0.827 0.673-1.5 1.5-1.5H9v3.293L7.732 7.561C7.26 8.034 7 8.661 7 9.329v1.672c0 1.103 0.897 2 2 2h1c1.103 0 2-0.897 2-2V9.329c0-0.668-0.26-1.295-0.732-1.768L10 6.293V3h6.5C17.327 3 18 3.673 18 4.5zM23 11.5c0 0.827-0.673 1.5-1.5 1.5H19V6h2.5C22.327 6 23 6.673 23 7.5zM21.058 21.5c0 0.276-0.224 0.5-0.5 0.5H0.481c-0.276 0-0.5-0.224-0.5-0.5s0.224-0.5 0.5-0.5h20.077c0.276 0 0.5 0.224 0.5 0.5z" />
</svg>