<svg id="multitasking_Layer_1" viewBox="0 0 24 24" fill="currentColor" width="32" height="32" data-name="Layer 1" xmlns="http://www.w3.org/2000/svg" xmlns:xlink="http://www.w3.org/1999/xlink">
    <title>multitasking</title>
    <path d="M5.5 10C6.878 10 8 8.878 8 7.5S6.878 5 5.5 5 3 6.122 3 7.5 4.122 10 5.5 10zM5.5 6C6.327 6 7 6.673 7 7.5S6.327 9 5.5 9 4 8.327 4 7.5 4.673 6 5.5 6zM9 7.5c0 1.378 1.122 2.5 2.5 2.5S14 8.878 14 7.5 12.878 5 11.5 5 9 6.122 9 7.5zM11.5 6C12.327 6 13 6.673 13 7.5S12.327 9 11.5 9 10 8.327 10 7.5 10.673 6 11.5 6zM8.5 5C9.878 5 11 3.878 11 2.5S9.878 0 8.5 0 6 1.122 6 2.5 7.122 5 8.5 5zM8.5 1C9.327 1 10 1.673 10 2.5S9.327 4 8.5 4 7 3.327 7 2.5 7.673 1 8.5 1zM23.181 9.655c-0.497-0.452-1.143-0.674-1.809-0.652-0.67 0.032-1.288 0.322-1.739 0.818l-3.732 4.102c-0.314-1.108-1.335-1.922-2.542-1.922H3.5c-1.93 0-3.5 1.57-3.5 3.5v5c0 1.93 1.57 3.5 3.5 3.5h5.965c2.707 0 5.292-1.159 7.093-3.181l6.806-7.639c0.91-1.022 0.828-2.604-0.183-3.526zM22.618 12.516l-6.806 7.639c-1.611 1.809-3.924 2.846-6.346 2.846H3.5c-1.378 0-2.5-1.122-2.5-2.5v-5c0-1.378 1.122-2.5 2.5-2.5h9.858c0.905 0 1.642 0.737 1.642 1.642 0 0.812-0.606 1.511-1.399 1.624L7.44 17.004c-0.274 0.033-0.47 0.282-0.437 0.556 0.033 0.273 0.273 0.472 0.556 0.437l6.172-0.739c1.021-0.146 1.845-0.878 2.146-1.824l4.495-4.94c0.272-0.298 0.644-0.473 1.047-0.492 0.399-0.013 0.79 0.12 1.088 0.393 0.608 0.555 0.658 1.506 0.111 2.121z" />
</svg>