<svg id="multiple_Layer_1" viewBox="0 0 24 24" fill="currentColor" width="32" height="32" data-name="Layer 1" xmlns="http://www.w3.org/2000/svg" xmlns:xlink="http://www.w3.org/1999/xlink">
    <title>multiple</title>
    <path d="M5 10.5C5 10.224 5.224 10 5.5 10H10V5.5C10 5.224 10.224 5 10.5 5S11 5.224 11 5.5V10h4.5c0.276 0 0.5 0.224 0.5 0.5S15.776 11 15.5 11H11v4.5c0 0.276-0.224 0.5-0.5 0.5S10 15.776 10 15.5V11H5.5C5.224 11 5 10.776 5 10.5zM24 8.5v11c0 2.481-2.019 4.5-4.5 4.5h-11c-1.928 0-3.611-1.23-4.236-3.024C1.894 20.851 0 18.901 0 16.5v-12C0 2.019 2.019 0 4.5 0h12c2.401 0 4.351 1.894 4.476 4.264C22.769 4.889 24 6.571 24 8.5zM4.5 20h12c1.93 0 3.5-1.57 3.5-3.5v-12C20 2.57 18.43 1 16.5 1h-12C2.57 1 1 2.57 1 4.5v12C1 18.43 2.57 20 4.5 20zM23 8.5c0-1.371-0.798-2.588-2-3.158V16.5c0 2.481-2.019 4.5-4.5 4.5H5.342c0.57 1.202 1.787 2 3.158 2h11c1.93 0 3.5-1.57 3.5-3.5z" />
</svg>