<svg id="muscle_Layer_1" viewBox="0 0 24 24" fill="currentColor" width="32" height="32" data-name="Layer 1" xmlns="http://www.w3.org/2000/svg" xmlns:xlink="http://www.w3.org/1999/xlink">
    <title>muscle</title>
    <path d="M21.887 9.114C21.37 9.037 20.753 9 20 9c-2.571 0-4.931 2.804-5.416 3.402-0.594-0.254-1.283-0.437-2.095-0.425-1.947 0.044-3.683 1.01-4.847 1.868 0.471-1.862 0.423-3.823 0.38-5.483C7.998 7.41 7.975 6.563 8.069 6.001h1.494c0.763 0 1.448-0.424 1.789-1.105l0.447-0.895h0.19c0.644 0 1-0.51 1.01-1C13 1.549 11.778 6e-3 9.513 0H9.495C7.831 7e-3 6.519 1.147 6.49 1.175 9e-3 6.161 2e-3 14.132 0 16.751c0 1.21 0.497 2.381 1.366 3.212C3.314 21.825 7.267 24 12 24c4.611 0 8.009-1.195 10.047-2.199C23.252 21.208 24 20.004 24 18.659v-7.074c0-1.231-0.909-2.294-2.113-2.471zM23 18.659c0 0.961-0.534 1.821-1.395 2.245C19.662 21.86 16.418 23 12 23s-8.129-2.025-9.942-3.76C1.375 18.587 0.999 17.703 1 16.751c2e-3-2.497 8e-3-10.097 6.125-14.804C7.136 1.937 8.222 1.002 9.505 1 11.322 1.002 12 2.228 11.99 3h-1.5c-0.402 0-0.494-0.274-0.5-0.505C9.987 2.222 9.764 2 9.49 2c-0.276 0-0.5 0.224-0.5 0.5 0 0.603 0.399 1.5 1.5 1.5h0.191l-0.223 0.447C10.288 4.788 9.944 5 9.563 5H7.679c-0.212 0-0.4 0.134-0.472 0.333C6.961 6.03 6.987 7.07 7.021 8.387c0.055 2.122 0.134 4.757-0.956 6.879-0.039 0.071-0.066 0.148-0.066 0.235 0 0.276 0.224 0.5 0.5 0.5 0.15 0 0.276-0.057 0.367-0.161 0.026-0.028 2.6-2.771 5.633-2.839 2.234 0 3.534 1.703 3.584 1.777 0.153 0.229 0.464 0.289 0.693 0.138 0.229-0.153 0.292-0.462 0.14-0.691-0.035-0.052-0.534-0.736-1.432-1.337 0.844-1.003 2.672-2.887 4.515-2.887 0.703 0 1.272 0.033 1.74 0.104 0.719 0.105 1.26 0.742 1.26 1.481z" />
</svg>