<svg id="museum_Layer_1" viewBox="0 0 24 24" fill="currentColor" width="32" height="32" data-name="Layer 1" xmlns="http://www.w3.org/2000/svg" xmlns:xlink="http://www.w3.org/1999/xlink">
    <title>museum</title>
    <path d="M22 20h-1V9.001h0.955C23.082 9.001 24 8.084 24 6.956c0-0.779-0.433-1.48-1.131-1.829l-9.629-4.81c-0.776-0.422-1.703-0.422-2.465-8e-3L1.131 5.128C0.433 5.477 0 6.178 0 6.957 0 8.085 0.917 9.002 2.045 9.002H3v10.999H2c-1.103 0-2 0.897-2 2s0.897 2 2 2h20c1.103 0 2-0.897 2-2s-0.897-2-2-2.001zM20 20h-1V9.001h1zM16 20V9.001h2V20zM14 20V9.001h1V20zM11 20V9.001h2V20zM9 20V9.001h1V20zM6 20V9.001h2V20zM1 6.956C1 6.558 1.222 6.2 1.578 6.022l9.659-4.826c0.237-0.129 0.497-0.194 0.759-0.194 0.266 0 0.534 0.067 0.782 0.202l9.644 4.818C22.778 6.201 23 6.558 23 6.956c0 0.576-0.469 1.045-1.045 1.045H2.045C1.469 8.001 1 7.532 1 6.956zM4 9.001h1V20H4zM22 23H2c-0.551 0-1-0.448-1-1s0.449-1 1-1h20c0.551 0 1 0.448 1 1s-0.449 1-1 1zM11 5.002c0-0.552 0.448-1 1-1s1 0.448 1 1-0.448 1-1 1-1-0.448-1-1z" />
</svg>