<svg id="mushroom_cloud_Layer_1" viewBox="0 0 24 24" fill="currentColor" width="32" height="32" data-name="Layer 1" xmlns="http://www.w3.org/2000/svg" xmlns:xlink="http://www.w3.org/1999/xlink">
    <title>mushroom-cloud</title>
    <path d="M20 2c-0.271 0-0.773 0-1.064-0.331C18.003 0.608 16.569 0 15 0c-0.867 0-1.702 0.204-2.481 0.606-0.33 0.171-0.707 0.17-1.037 0-2.004-1.033-4.437-0.72-6.378 1.022C4.723 1.971 4.334 2 4 2 1.794 2 0 3.794 0 6s1.794 4 4 4c0.314 0 0.63-0.04 0.938-0.118 0.354-0.089 0.687-0.042 0.938 0.134 0.392 0.273 0.816 0.486 1.258 0.646 0.028 0.025 2.805 2.592 2.861 7.199C7.595 17.524 6 16.641 6 16c0-0.319 0.412-0.713 1.102-1.051 0.247-0.122 0.35-0.422 0.229-0.67-0.122-0.248-0.422-0.348-0.67-0.229-1.372 0.674-1.66 1.432-1.66 1.949 0 1.473 2.298 2.497 4.931 2.857-0.506 3.331-3.933 4.012-5.474 4.145-0.275 0.023-0.479 0.266-0.455 0.541 0.022 0.261 0.241 0.457 0.497 0.457 0.015 0 0.029 0 0.044-2e-3 1.413-0.122 5.804-0.847 6.389-5.039 0.356 0.025 0.713 0.04 1.068 0.04s0.712-0.016 1.068-0.04c0.585 4.191 4.976 4.916 6.389 5.039 0.015 0 0.029 2e-3 0.044 2e-3 0.256 0 0.475-0.196 0.497-0.457 0.023-0.275-0.18-0.518-0.455-0.541-1.541-0.134-4.968-0.814-5.474-4.145 2.633-0.359 4.931-1.384 4.931-2.857 0-0.539-0.311-1.325-1.79-2.011-0.248-0.116-0.547-7e-3-0.664 0.244-0.115 0.25-7e-3 0.548 0.244 0.664 0.758 0.351 1.21 0.763 1.21 1.103 0 0.64-1.594 1.524-3.995 1.861 0.056-4.607 2.838-7.181 2.866-7.206 0.438-0.161 0.862-0.366 1.252-0.639 0.252-0.176 0.583-0.224 0.938-0.135 0.309 0.079 0.624 0.119 0.938 0.119 2.206 0 4-1.794 4-4s-1.794-4-4-3.999zM13.001 17.963C12.677 17.985 12.344 18 12 18s-0.677-0.015-1.001-0.037c-0.01-3.4-1.332-5.747-2.266-6.984 0.939 0.046 1.891-0.142 2.749-0.587 0.33-0.17 0.707-0.169 1.037 0 0.778 0.403 1.613 0.607 2.481 0.607 0.09 0 0.178-0.016 0.268-0.02-0.934 1.237-2.257 3.584-2.267 6.984zM20 9c-0.231 0-0.464-0.029-0.693-0.088-0.637-0.163-1.262-0.06-1.755 0.284-1.337 0.931-3.114 1.064-4.574 0.309-0.311-0.16-0.644-0.24-0.978-0.24s-0.667 0.08-0.978 0.241c-1.46 0.754-3.236 0.622-4.574-0.309-0.493-0.344-1.119-0.444-1.756-0.283C4.463 8.972 4.231 9.001 4 9.001c-1.654 0-3-1.346-3-3s1.346-3 3-3c0.321 0 1.075 0 1.773-0.628 1.646-1.479 3.597-1.73 5.249-0.876 0.621 0.32 1.334 0.32 1.955 0 1.789-0.925 4.056-0.476 5.207 0.834 0.589 0.67 1.448 0.67 1.815 0.67 1.654 0 3 1.346 3 3S21.653 9.001 20 9z" />
</svg>