<svg id="mushroom_Layer_1" viewBox="0 0 24 24" fill="currentColor" width="32" height="32" data-name="Layer 1" xmlns="http://www.w3.org/2000/svg" xmlns:xlink="http://www.w3.org/1999/xlink">
    <title>mushroom</title>
    <path d="M12 0C5.383 0 0 5.069 0 11.3 0 13.856 1.758 15 3.5 15c1.016 0 2.028-0.565 3.2-1.22 0.364-0.203 0.739-0.413 1.13-0.614C7.262 15.684 7.001 17.91 7.001 19c0 2.757 2.243 5 5 5s5-2.243 5-5c0-1.09-0.261-3.316-0.829-5.834 0.39 0.201 0.766 0.411 1.13 0.614 1.172 0.655 2.184 1.22 3.2 1.22 2.191 0 3.5-1.383 3.5-3.7C24 5.069 18.617 0 12 0zM16 19c0 2.206-1.794 4-4 4s-4-1.794-4-4c0-1.142 0.308-3.622 0.983-6.369C9.894 12.262 10.889 12 12 12s2.106 0.262 3.017 0.631C15.692 15.378 16 17.858 16 19zM20.5 14c-0.755 0-1.662-0.507-2.712-1.093C16.267 12.057 14.374 11 12 11s-4.267 1.057-5.788 1.907C5.162 13.493 4.254 14 3.5 14 2.292 14 1 13.291 1 11.3 1 5.621 5.935 1 12 1s11 4.621 11 10.3c0 2.35-1.566 2.7-2.5 2.7z" />
</svg>