<svg id="music_note_Layer_1" viewBox="0 0 24 24" fill="currentColor" width="32" height="32" data-name="Layer 1" xmlns="http://www.w3.org/2000/svg" xmlns:xlink="http://www.w3.org/1999/xlink">
    <title>music-note</title>
    <path d="M20.5 0H18c-2.206 0-4 1.794-4 4v11.342C13.004 13.927 11.358 13 9.5 13 6.468 13 4 15.468 4 18.5S6.468 24 9.5 24 15 21.532 15 18.5V4c0-1.654 1.346-3 3-3h2.5C20.776 1 21 0.776 21 0.5S20.776 0 20.5 0zM9.5 23C7.019 23 5 20.981 5 18.5S7.019 14 9.5 14 14 16.019 14 18.5 11.981 23 9.5 23z" />
</svg>