<svg id="narwhal_Layer_1" viewBox="0 0 24 24" fill="currentColor" width="32" height="32" data-name="Layer 1" xmlns="http://www.w3.org/2000/svg" xmlns:xlink="http://www.w3.org/1999/xlink">
    <title>narwhal</title>
    <path d="M20.753 9.58l3.225-8.957c0.067-0.214-0.023-0.446-0.217-0.558-0.237-0.137-0.54-0.049-0.665 0.194l-4.453 8.202c-0.824-0.289-1.709-0.447-2.63-0.447H14.5c-2.949 0-6.206 1.77-8.49 3.319C6.037 9.972 6.153 8.82 6.398 7.35l0.425-1.478c2.118-0.536 3.811-2.317 4.17-4.428 0.062-0.364-0.05-0.73-0.308-1.004-0.26-0.277-0.635-0.42-1.016-0.378-2.271 0.244-3.567 1.372-4.183 2.104C4.878 1.422 3.592 0.27 1.338 0.021 0.966-0.021 0.584 0.119 0.322 0.396 0.063 0.672-0.05 1.04 0.013 1.407c0.3 1.755 1.479 3.297 3.072 4.078L2.893 5.777C1 8.656 0 12 0 15.445 0 20.162 3.837 24 8.555 24h7.452C20.414 24 24 20.414 24 16.007c0-2.631-1.279-4.97-3.247-6.427zM16.007 23H8.555C4.389 23 1 19.611 1 15.445c0-3.25 0.944-6.403 2.729-9.119l0.522-0.794c0.084-0.128 0.105-0.288 0.056-0.435-0.049-0.146-0.163-0.261-0.308-0.312-1.547-0.545-2.725-1.937-3-3.547-0.013-0.075 0.027-0.131 0.052-0.157 0.021-0.021 0.074-0.068 0.154-0.068 8e-3 0 0.015 0 0.023 0 2.764 0.305 3.767 2.174 3.807 2.251C5.119 3.43 5.29 3.535 5.476 3.536 5.632 3.549 5.835 3.434 5.923 3.27 5.965 3.192 6.975 1.356 9.776 1.054c0.091-0.012 0.158 0.045 0.18 0.069 0.029 0.03 0.062 0.082 0.05 0.15-0.307 1.81-1.819 3.323-3.677 3.682-0.185 0.036-0.334 0.172-0.386 0.354l-0.52 1.817c-0.303 1.8-0.421 3.169-0.421 4.884 0 0.011 0 0.021 0 0.03-1.132 0.832-1.867 1.482-1.952 1.559-0.206 0.184-0.224 0.5-0.04 0.706 0.185 0.206 0.5 0.223 0.706 0.04 0.06-0.054 6.033-5.335 10.782-5.335h1.512c3.854 4e-3 6.988 3.141 6.988 6.994S19.861 22.997 16.007 23zM19 17c0 0.552-0.448 1-1 1s-1-0.448-1-1 0.448-1 1-1 1 0.448 1 1z" />
</svg>