<svg id="network_cloud_Layer_1" viewBox="0 0 24 24" fill="currentColor" width="32" height="32" data-name="Layer 1" xmlns="http://www.w3.org/2000/svg" xmlns:xlink="http://www.w3.org/1999/xlink">
    <title>network-cloud</title>
    <path d="M23.5 21h-9.051c-0.199-0.978-0.971-1.75-1.949-1.949V14h3.329c2.622 0 4.828-1.88 5.132-4.373 0.295-2.406-1.17-4.669-3.482-5.382-0.41-0.126-0.724-0.414-0.884-0.81-0.992-2.449-3.516-3.82-6.136-3.339C8.861 0.39 7.438 1.458 6.652 2.951 6.182 3.844 5.964 4.777 6.004 5.724 6.015 5.966 5.87 6.171 5.626 6.26 3.93 6.878 2.856 8.565 3.017 10.363 3.197 12.403 5.024 14 7.175 14H11.5v5.051C10.522 19.25 9.75 20.022 9.551 21H0.5C0.224 21 0 21.224 0 21.5S0.224 22 0.5 22h9.051c0.232 1.14 1.242 2 2.449 2s2.217-0.86 2.449-2H23.5c0.276 0 0.5-0.224 0.5-0.5S23.776 21 23.5 21zM4.013 10.274c-0.12-1.347 0.685-2.611 1.955-3.075 0.649-0.236 1.065-0.847 1.036-1.519-0.032-0.768 0.147-1.53 0.533-2.265 0.645-1.224 1.805-2.098 3.104-2.337 0.287-0.053 0.573-0.079 0.855-0.079 1.823 0 3.469 1.075 4.171 2.81 0.271 0.671 0.824 1.178 1.517 1.391 1.85 0.57 3.021 2.38 2.785 4.305-0.243 1.992-2.022 3.494-4.14 3.494H7.175c-1.638 0-3.027-1.197-3.162-2.725zM12 23c-0.827 0-1.5-0.673-1.5-1.5S11.173 20 12 20s1.5 0.673 1.5 1.5S12.827 23 12 23z" />
</svg>