<svg id="network_firewall_Layer_1" viewBox="0 0 24 24" fill="currentColor" width="32" height="32" data-name="Layer 1" xmlns="http://www.w3.org/2000/svg" xmlns:xlink="http://www.w3.org/1999/xlink">
    <title>network-firewall</title>
    <path d="M19.5 0h-15C2.019 0 0 2.019 0 4.5v7C0 13.981 2.019 16 4.5 16H7c0.276 0 0.5-0.224 0.5-0.5S7.276 15 7 15H5v-4.5C5 10.224 4.776 10 4.5 10H1V6h5.5C6.776 6 7 5.776 7 5.5S6.776 5 6.5 5H5V1h14v4h-1.5C17.224 5 17 5.224 17 5.5S17.224 6 17.5 6H23v4h-3.5c-0.276 0-0.5 0.224-0.5 0.5V15h-2c-0.276 0-0.5 0.224-0.5 0.5S16.724 16 17 16h2.5c2.481 0 4.5-2.019 4.5-4.5v-7C24 2.019 21.981 0 19.5 0zM4 11v3.949c-1.692-0.245-3-1.691-3-3.449V11zM1 5V4.5c0-1.758 1.308-3.204 3-3.449V5zM20 5V1.051c1.692 0.245 3 1.691 3 3.449V5zM20 14.949V11h3v0.5c0 1.758-1.308 3.204-3 3.449zM23.5 21h-9.051c-0.199-0.978-0.971-1.75-1.949-1.949V14.95c2.52-0.255 4.5-2.364 4.5-4.949 0-2.282-1.991-4.011-3.591-5.399l-0.331-0.288c-0.331-0.29-0.767-0.402-1.194-0.308-0.423 0.093-0.767 0.373-0.943 0.767-0.297 0.665-0.464 1.367-0.611 1.986-0.094 0.396-0.23 0.969-0.328 1.176-0.07-0.096-0.18-0.278-0.322-0.607C9.556 7.04 9.296 6.842 8.985 6.797 8.676 6.756 8.367 6.87 8.166 7.111 7.381 8.058 7 9.004 7 10.002c0 2.586 1.98 4.694 4.5 4.949v4.101c-0.978 0.199-1.75 0.971-1.949 1.949H0.5c-0.276 0-0.5 0.224-0.5 0.5s0.224 0.5 0.5 0.5h9.051c0.232 1.14 1.242 2 2.449 2s2.217-0.86 2.449-2H23.5c0.276 0 0.5-0.224 0.5-0.5s-0.224-0.5-0.5-0.501zM12.707 13.708c-0.396 0.396-1.105 0.368-1.472-0.063-0.328-0.386-0.267-1.026 0.136-1.429l0.5-0.5c0.072-0.072 0.188-0.072 0.26 0l0.577 0.577c0.39 0.391 0.39 1.025-1e-3 1.415zM8 10c0-0.723 0.265-1.401 0.832-2.123C9.188 8.652 9.54 9 9.962 9c0.863 0 1.096-0.977 1.341-2.012 0.137-0.577 0.292-1.23 0.551-1.81 0.062-0.139 0.179-0.183 0.244-0.197 0.116-0.025 0.232 4e-3 0.321 0.083l0.334 0.291C14.199 6.611 16 8.174 16 10c0 1.501-0.841 2.795-2.066 3.48 0.161-0.657-7e-3-1.38-0.519-1.893l-0.578-0.577c-0.462-0.462-1.213-0.462-1.674 0l-0.5 0.5c-0.542 0.542-0.738 1.301-0.583 1.979C8.846 12.807 7.999 11.508 8 10zM12 23c-0.827 0-1.5-0.673-1.5-1.5S11.173 20 12 20s1.5 0.673 1.5 1.5S12.827 23 12 23z" />
</svg>