<svg id="network_analytic_Layer_1" viewBox="0 0 24 24" fill="currentColor" width="32" height="32" data-name="Layer 1" xmlns="http://www.w3.org/2000/svg" xmlns:xlink="http://www.w3.org/1999/xlink">
    <title>network-analytic</title>
    <path d="M21 14c1.654 0 3-1.346 3-3s-1.346-3-3-3c-1.595 0-2.891 1.255-2.983 2.828l-3.28 0.647c-0.278-0.861-0.775-1.616-1.438-2.203l2.475-3.541C16.149 5.9 16.562 5.999 17 5.999c1.654 0 3-1.346 3-3s-1.346-3-3-3-3 1.346-3 3c0 0.857 0.366 1.626 0.944 2.173l-2.457 3.515C11.752 8.261 10.91 7.999 10 7.999S8.249 8.261 7.513 8.687L5.056 5.172C5.634 4.625 6 3.856 6 2.999c0-1.654-1.346-3-3-3S0 1.346 0 3 1.346 6 3 6c0.437 0 0.85-0.099 1.226-0.268l2.475 3.541C5.667 10.19 5 11.513 5 13c0 1.308 0.516 2.491 1.341 3.383l-1.802 2.056C4.087 18.167 3.564 18 3 18c-1.654 0-3 1.346-3 3s1.346 3 3 3 3-1.346 3-3c0-0.728-0.271-1.387-0.704-1.908l1.792-2.045C7.91 17.64 8.911 18 9.999 18c1.284 0 2.445-0.501 3.332-1.299l3.114 2.747c-0.277 0.454-0.446 0.982-0.446 1.553 0 1.654 1.346 3 3 3s3-1.346 3-3-1.346-3-3-3c-0.723 0-1.377 0.267-1.896 0.694l-3.098-2.733c0.616-0.831 0.994-1.85 0.994-2.962 0-0.187-0.035-0.364-0.055-0.546l3.185-0.628C18.49 13.077 19.633 14.001 21 14zM17 1c1.103 0 2 0.897 2 2s-0.897 2-2 2-2-0.897-2-2 0.897-2 2-2zM1 3c0-1.103 0.897-2 2-2s2 0.897 2 2-0.897 2-2 2-2-0.897-2-2zM3 23c-1.103 0-2-0.897-2-2s0.897-2 2-2 2 0.897 2 2-0.897 2-2 2zM10 17c-2.206 0-4-1.794-4-4s1.794-4 4-4 4 1.794 4 4-1.794 4-4 4zM19 19c1.103 0 2 0.897 2 2s-0.897 2-2 2-2-0.897-2-2 0.897-2 2-2zM21 9c1.103 0 2 0.897 2 2s-0.897 2-2 2-2-0.897-2-2 0.897-2 2-2z" />
</svg>