<svg id="newsletter_subscribe_Layer_1" viewBox="0 0 24 24" fill="currentColor" width="32" height="32" data-name="Layer 1" xmlns="http://www.w3.org/2000/svg" xmlns:xlink="http://www.w3.org/1999/xlink">
    <title>newsletter-subscribe</title>
    <path d="M22.623 9.26 21 7.696V3.5C21 1.57 19.43 0 17.5 0h-11C4.57 0 3 1.57 3 3.5v4.196L1.377 9.26C0.502 10.104 0 11.284 0 12.5v7C0 21.981 2.019 24 4.5 24h15c2.481 0 4.5-2.019 4.5-4.5v-7c0-1.216-0.502-2.396-1.377-3.24zM21.93 9.981c0.092 0.089 0.165 0.194 0.247 0.292L21 11.45V9.085zM4 3.5C4 2.121 5.121 1 6.5 1h11C18.879 1 20 2.121 20 3.5v8.949l-5.525 5.525c-1.322 1.322-3.627 1.322-4.949 0l-5.525-5.525zM3 9.085v2.365l-1.177-1.177c0.081-0.098 0.154-0.203 0.247-0.292zM23 19.5c0 1.93-1.57 3.5-3.5 3.5h-15C2.57 23 1 21.43 1 19.5v-7c0-0.469 0.097-0.932 0.277-1.359l7.541 7.541C9.668 19.533 10.797 20 12 20s2.332-0.468 3.182-1.318l7.541-7.541C22.903 11.568 23 12.031 23 12.5zM6.659 8.163C6.457 7.975 6.445 7.659 6.634 7.456 6.823 7.255 7.139 7.243 7.341 7.431l2.278 2.117c0.597 0.597 1.549 0.598 2.134 0.013l4.746-4.575C16.697 4.797 17.014 4.8 17.206 5c0.191 0.198 0.186 0.515-0.014 0.707l-4.739 4.568C11.971 10.758 11.333 11 10.694 11s-1.281-0.243-1.77-0.731z" />
</svg>