<svg id="newspaper_open_Layer_1" viewBox="0 0 24 24" fill="currentColor" width="32" height="32" data-name="Layer 1" xmlns="http://www.w3.org/2000/svg" xmlns:xlink="http://www.w3.org/1999/xlink">
    <title>newspaper-open</title>
    <path d="M22.318 1.088c-1.069-0.892-2.471-1.258-3.837-1.012l-3.995 0.727C13.413 0.998 12.522 1.651 12 2.539c-0.521-0.888-1.413-1.541-2.486-1.736L5.519 0.077c-1.368-0.25-2.768 0.119-3.837 1.011S0 3.291 0 4.683v13.373c0 2.264 1.617 4.201 3.844 4.606l6.57 1.195C10.94 23.952 11.47 24 11.999 24s1.06-0.048 1.585-0.144l6.57-1.195c2.228-0.405 3.844-2.342 3.844-4.606V4.683c0-1.393-0.613-2.703-1.68-3.595zM11.5 22.984c-0.303-0.02-0.605-0.056-0.907-0.111l-6.57-1.195C2.272 21.36 1 19.836 1 18.055V4.683c0-1.095 0.482-2.125 1.323-2.827 0.668-0.558 1.5-0.855 2.355-0.855 0.22 0 0.442 0.02 0.663 0.06l3.995 0.726c1.254 0.228 2.165 1.319 2.165 2.594zM23 18.056c0 1.781-1.271 3.304-3.023 3.623l-6.57 1.194c-0.301 0.055-0.604 0.092-0.907 0.111V4.381c0-1.275 0.91-2.366 2.165-2.594l3.995-0.726c1.076-0.197 2.176 0.094 3.018 0.796 0.841 0.701 1.323 1.731 1.323 2.827zM8.989 13.655C8.94 13.89 8.732 14.052 8.5 14.052c-0.034 0-5.104-1.062-5.104-1.062-0.27-0.057-0.443-0.322-0.386-0.592 0.056-0.27 0.324-0.444 0.592-0.386l5 1.052c0.27 0.057 0.443 0.322 0.387 0.591zM8.989 9.655C8.94 9.89 8.732 10.052 8.5 10.052c-0.034 0-5.104-1.062-5.104-1.062-0.27-0.057-0.443-0.322-0.386-0.592 0.056-0.27 0.324-0.444 0.592-0.386l5 1.052c0.27 0.057 0.443 0.322 0.387 0.591zM6.988 17.283c-0.052 0.233-0.259 0.391-0.487 0.391-0.036 0-3.11-0.686-3.11-0.686-0.27-0.061-0.439-0.328-0.378-0.597 0.061-0.27 0.328-0.439 0.597-0.378l3 0.674c0.27 0.061 0.439 0.328 0.378 0.596zM8.989 5.655C8.94 5.89 8.732 6.052 8.5 6.052c-0.034 0-5.104-1.062-5.104-1.062-0.27-0.057-0.443-0.322-0.386-0.592 0.056-0.27 0.324-0.443 0.592-0.386l5 1.052c0.27 0.057 0.443 0.322 0.387 0.591zM20.989 12.397c0.057 0.271-0.116 0.536-0.386 0.592 0 0-5.069 1.062-5.104 1.062-0.231 0-0.439-0.162-0.489-0.397-0.057-0.271 0.116-0.536 0.386-0.592l5-1.052c0.268-0.058 0.535 0.116 0.593 0.387zM20.989 8.397c0.057 0.271-0.116 0.536-0.386 0.592 0 0-5.069 1.062-5.104 1.062-0.231 0-0.439-0.162-0.489-0.397-0.057-0.271 0.116-0.536 0.386-0.592l5-1.052c0.268-0.058 0.535 0.116 0.593 0.387zM20.989 4.397c0.057 0.271-0.116 0.536-0.386 0.592 0 0-5.069 1.062-5.104 1.062-0.231 0-0.439-0.162-0.489-0.397-0.057-0.271 0.116-0.536 0.386-0.592l5-1.052c0.268-0.057 0.535 0.116 0.593 0.387zM18.988 16.717c0.061 0.269-0.109 0.537-0.378 0.597 0 0-3.074 0.686-3.11 0.686-0.229 0-0.435-0.158-0.487-0.391-0.061-0.269 0.109-0.537 0.378-0.597l3-0.674c0.266-0.062 0.536 0.109 0.597 0.379z" />
</svg>