<svg id="nfc_trash_Layer_1" viewBox="0 0 24 24" fill="currentColor" width="32" height="32" data-name="Layer 1" xmlns="http://www.w3.org/2000/svg" xmlns:xlink="http://www.w3.org/1999/xlink">
    <title>nfc-trash</title>
    <path d="M23.5 12H21v-1.5C21 9.67 20.33 9 19.5 9h-3C15.67 9 15 9.67 15 10.5V12h-2.5c-0.28 0-0.5 0.22-0.5 0.5s0.22 0.5 0.5 0.5H13v8.5c0 1.38 1.12 2.5 2.5 2.5h5c1.38 0 2.5-1.12 2.5-2.5V13h0.5c0.28 0 0.5-0.22 0.5-0.5S23.78 12 23.5 12zM16 10.5c0-0.28 0.22-0.5 0.5-0.5h3c0.28 0 0.5 0.22 0.5 0.5V12h-4zM22 21.5c0 0.83-0.67 1.5-1.5 1.5h-5c-0.83 0-1.5-0.67-1.5-1.5V13h8zM10.5 17h-5C5.22 17 5 16.78 5 16.5V8.71l3.85-3.85C8.99 4.72 9.04 4.5 8.96 4.32 8.88 4.13 8.7 4.01 8.5 4.01h-3C4.67 4.01 4 4.68 4 5.51v11c0 0.83 0.67 1.5 1.5 1.5h5c0.28 0 0.5-0.22 0.5-0.5s-0.22-0.5-0.5-0.51zM5 5.5C5 5.22 5.22 5 5.5 5h1.79L5 7.29zM17 6.5v-1C17 5.22 16.78 5 16.5 5h-2.17c-0.4 0-0.78 0.16-1.06 0.44L9.44 9.27C9.16 9.55 9 9.93 9 10.33v2.17C9 12.78 9.22 13 9.5 13s0.5 0.22 0.5 0.5S9.78 14 9.5 14C8.67 14 8 13.33 8 12.5v-2.17c0-0.67 0.26-1.3 0.73-1.77l3.83-3.83C13.03 4.26 13.66 4 14.33 4h2.17C17.33 4 18 4.67 18 5.5v1C18 6.78 17.78 7 17.5 7S17 6.78 17 6.5zM11 21.5c0 0.28-0.22 0.5-0.5 0.5h-6C2.02 22 0 19.98 0 17.5v-13C0 2.02 2.02 0 4.5 0h13C19.98 0 22 2.02 22 4.5v3C22 7.78 21.78 8 21.5 8S21 7.78 21 7.5v-3C21 2.57 19.43 1 17.5 1h-13C2.57 1 1 2.57 1 4.5v13C1 19.43 2.57 21 4.5 21h6c0.28 0 0.5 0.22 0.5 0.5z" />
</svg>