<svg id="nfc_pen_Layer_1" viewBox="0 0 24 24" fill="currentColor" width="32" height="32" data-name="Layer 1" xmlns="http://www.w3.org/2000/svg" xmlns:xlink="http://www.w3.org/1999/xlink">
    <title>nfc-pen</title>
    <path d="M10.5 17h-5C5.22 17 5 16.78 5 16.5V8.71l3.85-3.85C8.99 4.72 9.04 4.5 8.96 4.32S8.7 4.01 8.5 4.01h-3C4.67 4.01 4 4.68 4 5.51v11c0 0.83 0.67 1.5 1.5 1.5h5c0.28 0 0.5-0.22 0.5-0.5s-0.22-0.5-0.5-0.51zM5 5.5C5 5.22 5.22 5 5.5 5h1.79L5 7.29zM17 10.5v-5C17 5.22 16.78 5 16.5 5h-2.17c-0.39 0-0.78 0.16-1.06 0.44L9.44 9.27C9.16 9.55 9 9.93 9 10.33v2.17C9 12.78 9.22 13 9.5 13h3c0.28 0 0.5-0.22 0.5-0.5v-3C13 9.22 13.22 9 13.5 9S14 9.22 14 9.5v3c0 0.83-0.67 1.5-1.5 1.5h-3C8.67 14 8 13.33 8 12.5v-2.17c0-0.67 0.26-1.3 0.73-1.77l3.83-3.83C13.03 4.26 13.66 4 14.33 4h2.17C17.33 4 18 4.67 18 5.5v5c0 0.28-0.22 0.5-0.5 0.5S17 10.78 17 10.5zM9 21.5C9 21.78 8.78 22 8.5 22h-4C2.02 22 0 19.98 0 17.5v-13C0 2.02 2.02 0 4.5 0h13C19.98 0 22 2.02 22 4.5v4C22 8.78 21.78 9 21.5 9S21 8.78 21 8.5v-4C21 2.57 19.43 1 17.5 1h-13C2.57 1 1 2.57 1 4.5v13C1 19.43 2.57 21 4.5 21h4C8.78 21 9 21.22 9 21.5zM23.27 11.73c-0.97-0.97-2.56-0.97-3.54 0l-7.71 7.71c-0.65 0.65-1.03 1.55-1.03 2.47v1.59c0 0.28 0.22 0.5 0.5 0.5h1.59c0.94 0 1.81-0.36 2.47-1.03l7.71-7.71c0.47-0.47 0.73-1.1 0.73-1.77s-0.26-1.3-0.72-1.76zM22.56 14.56l-7.71 7.71c-0.47 0.47-1.1 0.73-1.77 0.73h-1.09v-1.09c0-0.66 0.27-1.3 0.73-1.77l7.71-7.71c0.58-0.58 1.54-0.58 2.12 0 0.28 0.28 0.44 0.66 0.44 1.06s-0.16 0.78-0.43 1.07z" />
</svg>