<svg id="nfc_lock_Layer_1" viewBox="0 0 24 24" fill="currentColor" width="32" height="32" data-name="Layer 1" xmlns="http://www.w3.org/2000/svg" xmlns:xlink="http://www.w3.org/1999/xlink">
    <title>nfc-lock</title>
    <path d="M11 21.5c0 0.28-0.22 0.5-0.5 0.5h-6C2.02 22 0 19.98 0 17.5v-13C0 2.02 2.02 0 4.5 0h13C19.98 0 22 2.02 22 4.5v4C22 8.78 21.78 9 21.5 9S21 8.78 21 8.5v-4C21 2.57 19.43 1 17.5 1h-13C2.57 1 1 2.57 1 4.5v13C1 19.43 2.57 21 4.5 21h6c0.28 0 0.5 0.22 0.5 0.5zM11 17.5c0 0.28-0.22 0.5-0.5 0.5h-5C4.67 18 4 17.33 4 16.5v-11C4 4.67 4.67 4 5.5 4h3c0.2 0 0.38 0.12 0.46 0.31s0.03 0.4-0.11 0.54L5 8.7v7.79c0 0.28 0.22 0.5 0.5 0.5h5c0.28 0 0.5 0.22 0.5 0.51zM5 7.29 7.29 5H5.5C5.22 5 5 5.22 5 5.5zM14 12.5v-3C14 9.22 13.78 9 13.5 9S13 9.22 13 9.5v3c0 0.28-0.22 0.5-0.5 0.5h-3C9.22 13 9 12.78 9 12.5v-2.17c0-0.4 0.16-0.78 0.44-1.06l3.83-3.83C13.55 5.16 13.94 5 14.33 5h2.17C16.78 5 17 5.22 17 5.5v2C17 7.78 17.22 8 17.5 8S18 7.78 18 7.5v-2C18 4.67 17.33 4 16.5 4h-2.17c-0.67 0-1.29 0.26-1.77 0.73L8.73 8.56C8.26 9.03 8 9.66 8 10.33v2.17C8 13.33 8.67 14 9.5 14h3c0.83 0 1.5-0.67 1.5-1.5zM18.5 18.5c-0.55 0-1 0.45-1 1s0.45 1 1 1 1-0.45 1-1-0.45-1-1-1zM24 18.5v2c0 1.93-1.57 3.5-3.5 3.5h-4c-1.93 0-3.5-1.57-3.5-3.5v-2c0-1.39 0.82-2.6 2-3.16V13.5c0-1.93 1.57-3.5 3.5-3.5s3.5 1.57 3.5 3.5v1.84c1.18 0.56 2 1.77 2 3.16zM16 15.04c0.16-0.02 0.33-0.04 0.5-0.04h4c0.17 0 0.34 0.01 0.5 0.04V13.5c0-1.38-1.12-2.5-2.5-2.5S16 12.12 16 13.5zM23 18.5c0-1.38-1.12-2.5-2.5-2.5h-4c-1.38 0-2.5 1.12-2.5 2.5v2c0 1.38 1.12 2.5 2.5 2.5h4c1.38 0 2.5-1.12 2.5-2.5z" />
</svg>