<svg id="nfc_magnifying_glass_Layer_1" viewBox="0 0 24 24" fill="currentColor" width="32" height="32" data-name="Layer 1" xmlns="http://www.w3.org/2000/svg" xmlns:xlink="http://www.w3.org/1999/xlink">
    <title>nfc-magnifying-glass</title>
    <path d="M8.85 4.85c0.14-0.14 0.19-0.36 0.11-0.54S8.7 4 8.5 4h-3C4.67 4 4 4.67 4 5.5v11C4 17.33 4.67 18 5.5 18h4c0.28 0 0.5-0.22 0.5-0.5S9.78 17 9.5 17h-4C5.22 17 5 16.78 5 16.5V8.71zM5 5.5C5 5.22 5.22 5 5.5 5h1.79L5 7.29zM17 9.5v-4C17 5.22 16.78 5 16.5 5h-2.17c-0.39 0-0.78 0.16-1.06 0.44L9.44 9.27C9.16 9.55 9 9.93 9 10.33v2.17C9 12.78 9.22 13 9.5 13h1c0.28 0 0.5 0.22 0.5 0.5S10.78 14 10.5 14h-1C8.67 14 8 13.33 8 12.5v-2.17c0-0.67 0.26-1.3 0.73-1.77l3.83-3.83C13.03 4.26 13.66 4 14.33 4h2.17C17.33 4 18 4.67 18 5.5v4c0 0.28-0.22 0.5-0.5 0.5S17 9.78 17 9.5zM13.5 9C13.78 9 14 9.22 14 9.5v1c0 0.28-0.22 0.5-0.5 0.5S13 10.78 13 10.5v-1C13 9.22 13.22 9 13.5 9zM12 21.5c0 0.28-0.22 0.5-0.5 0.5h-7C2.02 22 0 19.98 0 17.5v-13C0 2.02 2.02 0 4.5 0h13C19.98 0 22 2.02 22 4.5v7c0 0.28-0.22 0.5-0.5 0.5S21 11.78 21 11.5v-7C21 2.57 19.43 1 17.5 1h-13C2.57 1 1 2.57 1 4.5v13C1 19.43 2.57 21 4.5 21h7c0.28 0 0.5 0.22 0.5 0.5zM23.85 23.15l-2.98-2.98c0.71-0.86 1.13-1.96 1.13-3.16 0-2.76-2.24-5-5-5s-5 2.24-5 5 2.24 5 5 5c1.2 0 2.3-0.42 3.16-1.13l2.98 2.98c0.1 0.1 0.23 0.15 0.35 0.15s0.26-0.05 0.35-0.15c0.2-0.2 0.2-0.51 0.01-0.71zM17 21c-2.21 0-4-1.79-4-4s1.79-4 4-4 4 1.79 4 4-1.79 4-4 4z" />
</svg>