<svg id="nfc_Layer_1" viewBox="0 0 24 24" fill="currentColor" width="32" height="32" data-name="Layer 1" xmlns="http://www.w3.org/2000/svg" xmlns:xlink="http://www.w3.org/1999/xlink">
    <title>nfc</title>
    <path d="M18.5 4h-4.17c-0.67 0-1.29 0.26-1.77 0.73L8.73 8.56C8.26 9.03 8 9.66 8 10.33v4.17C8 15.33 8.67 16 9.5 16h5c0.83 0 1.5-0.67 1.5-1.5v-4c0-0.28-0.22-0.5-0.5-0.5S15 10.22 15 10.5v4c0 0.28-0.22 0.5-0.5 0.5h-5C9.22 15 9 14.78 9 14.5v-4.17c0-0.4 0.16-0.78 0.44-1.06l3.83-3.83C13.55 5.16 13.94 5 14.33 5h4.17C18.78 5 19 5.22 19 5.5v13c0 0.28-0.22 0.5-0.5 0.5h-13C5.22 19 5 18.78 5 18.5V8.71l3.85-3.85C8.99 4.72 9.04 4.5 8.96 4.32S8.7 4.01 8.5 4.01h-3C4.67 4.01 4 4.68 4 5.51v13c0 0.83 0.67 1.5 1.5 1.5h13c0.83 0 1.5-0.67 1.5-1.5V5.5C20 4.67 19.33 4 18.5 4zM5 5.5C5 5.22 5.22 5 5.5 5h1.79L5 7.29zM19.5 0h-15C2.02 0 0 2.02 0 4.5v15C0 21.98 2.02 24 4.5 24h15c2.48 0 4.5-2.02 4.5-4.5v-15C24 2.02 21.98 0 19.5 0zM23 19.5c0 1.93-1.57 3.5-3.5 3.5h-15C2.57 23 1 21.43 1 19.5v-15C1 2.57 2.57 1 4.5 1h15C21.43 1 23 2.57 23 4.5z" />
</svg>