<svg id="night_day_Layer_1" viewBox="0 0 24 24" fill="currentColor" width="32" height="32" data-name="Layer 1" xmlns="http://www.w3.org/2000/svg" xmlns:xlink="http://www.w3.org/1999/xlink">
    <title>night-day</title>
    <path d="M0 9.5C0 9.224 0.224 9 0.5 9h2.525C3.129 7.662 3.66 6.367 4.583 5.29L2.646 3.353c-0.195-0.195-0.195-0.512 0-0.707s0.512-0.195 0.707 0L5.29 4.583C6.366 3.66 7.662 3.129 9 3.025V0.5C9 0.224 9.224 0 9.5 0S10 0.224 10 0.5v2.533c1.273 0.098 2.527 0.552 3.589 1.414 0.08 0.063 0.211 0.046 0.295-0.038l1.763-1.763c0.195-0.195 0.512-0.195 0.707 0s0.195 0.512 0 0.707l-1.763 1.763c-0.452 0.45-1.152 0.497-1.632 0.107-2.192-1.777-5.351-1.61-7.348 0.388-1.998 1.998-2.164 5.157-0.388 7.349 0.39 0.479 0.344 1.181-0.107 1.631l-1.763 1.763C3.255 16.452 3.127 16.5 2.999 16.5s-0.256-0.049-0.354-0.146c-0.195-0.195-0.195-0.512 0-0.707l1.763-1.763c0.084-0.084 0.101-0.216 0.038-0.294-0.861-1.062-1.315-2.317-1.413-3.59H0.5C0.224 10 0 9.776 0 9.5zM23.954 0.046c-0.195-0.195-0.512-0.195-0.707 0l-23.201 23.2c-0.195 0.195-0.195 0.512 0 0.707 0.098 0.098 0.226 0.146 0.354 0.146s0.256-0.049 0.354-0.146l23.2-23.2c0.195-0.195 0.195-0.512 0-0.707zM23.394 21.154c-1.863-0.942-3.021-2.821-3.021-4.904s1.157-3.962 3.02-4.904c0.373-0.188 0.604-0.57 0.606-0.995 1e-3-0.423-0.227-0.805-0.597-0.995-1.541-0.794-3.273-1.044-5.012-0.716-0.271 0.051-0.45 0.312-0.399 0.583 0.051 0.272 0.314 0.452 0.583 0.399 1.517-0.284 3.027-0.069 4.37 0.623 0.047 0.025 0.055 0.075 0.055 0.103 0 0.029-8e-3 0.081-0.058 0.106-2.201 1.114-3.568 3.334-3.568 5.796s1.368 4.684 3.569 5.797C22.992 22.072 23 22.124 23 22.152s-7e-3 0.078-0.054 0.103C21.987 22.749 20.953 23 19.873 23c-3.724 0-6.807-2.92-6.873-6.509-6e-3-0.335 0.013-0.675 0.055-1.012 0.035-0.273-0.159-0.523-0.433-0.559-0.269-0.034-0.524 0.159-0.559 0.434-0.048 0.384-0.07 0.771-0.063 1.154 0.076 4.131 3.607 7.491 7.873 7.491 1.242 0 2.43-0.288 3.532-0.856 0.369-0.19 0.597-0.572 0.595-0.995-2e-3-0.426-0.234-0.806-0.606-0.994z" />
</svg>