<svg id="night_mode_Layer_1" viewBox="0 0 24 24" fill="currentColor" width="32" height="32" data-name="Layer 1" xmlns="http://www.w3.org/2000/svg" xmlns:xlink="http://www.w3.org/1999/xlink">
    <title>night-mode</title>
    <path d="M23.243 10.173 21 7.93V5.5C21 4.122 19.879 3 18.5 3h-2.43l-2.243-2.243c-0.975-0.977-2.68-0.977-3.654 0L7.93 3H5.5C4.121 3 3 4.122 3 5.5v2.43l-2.243 2.243c-1.007 1.007-1.007 2.647 0 3.654L3 16.07v2.43C3 19.879 4.121 21 5.5 21h2.43l2.243 2.243c0.504 0.504 1.165 0.756 1.827 0.756s1.323-0.252 1.827-0.756L16.07 21h2.43c1.379 0 2.5-1.121 2.5-2.5v-2.43l2.243-2.243c1.007-1.007 1.007-2.647 0-3.654zM22.536 13.12l-2.39 2.39C20.052 15.604 20 15.731 20 15.864v2.637c0 0.827-0.673 1.5-1.5 1.5h-2.637c-0.133 0-0.26 0.053-0.354 0.146l-2.39 2.39c-0.598 0.598-1.643 0.598-2.24 0l-2.39-2.39c-0.094-0.094-0.221-0.146-0.354-0.146H5.498c-0.827 0-1.5-0.673-1.5-1.5v-2.637c0-0.133-0.053-0.26-0.146-0.354l-2.39-2.39c-0.617-0.618-0.617-1.623 0-2.24l2.39-2.39c0.094-0.094 0.146-0.221 0.146-0.354V5.499c0-0.827 0.673-1.5 1.5-1.5h2.637c0.133 0 0.26-0.053 0.354-0.146l2.39-2.39c0.598-0.599 1.643-0.599 2.24 0l2.39 2.39c0.094 0.094 0.221 0.146 0.354 0.146H18.5c0.827 0 1.5 0.673 1.5 1.5v2.637c0 0.133 0.053 0.26 0.146 0.354l2.39 2.39c0.617 0.618 0.617 1.623 0 2.24zM15.339 8.723C15.751 8.502 15.998 8.105 16 7.662c0-0.45-0.26-0.872-0.682-1.102-0.385-0.208-1.196-0.559-2.319-0.56h-2e-3c-1.802 0-3.331 0.616-4.425 1.782C7.558 8.864 7 10.361 7 11.999s0.559 3.135 1.572 4.217c1.094 1.166 2.623 1.782 4.425 1.782h2e-3c1.122 0 1.935-0.351 2.319-0.56 0.422-0.229 0.683-0.652 0.682-1.103-2e-3-0.443-0.249-0.84-0.661-1.06C13.83 14.467 13 13.303 13 11.998s0.83-2.47 2.339-3.275zM12 12c0 1.691 1.018 3.169 2.867 4.158 0.06 0.033 0.132 0.091 0.133 0.182 0 0.084-0.06 0.166-0.16 0.221-0.242 0.132-0.906 0.438-1.841 0.438h-2e-3c-1.519 0-2.796-0.507-3.695-1.466C8.463 14.637 8 13.383 8 12s0.463-2.637 1.302-3.533c0.899-0.959 2.177-1.466 3.695-1.466h2e-3c0.936 0 1.6 0.307 1.841 0.438C14.941 7.493 15 7.576 15 7.659c0 0.091-0.073 0.149-0.134 0.182C13.017 8.83 12 10.307 12 12z" />
</svg>