<svg id="no_attention_Layer_1" viewBox="0 0 24 24" fill="currentColor" width="32" height="32" data-name="Layer 1" xmlns="http://www.w3.org/2000/svg" xmlns:xlink="http://www.w3.org/1999/xlink">
    <title>no-attention</title>
    <path d="M8.5 12c3.032 0 5.5-2.467 5.5-5.5S11.532 1 8.5 1 3 3.467 3 6.5 5.468 12 8.5 12zM8.5 2C10.981 2 13 4.019 13 6.5S10.981 11 8.5 11 4 8.981 4 6.5 6.019 2 8.5 2zM23.731 21.768c0.244 0.517 0.208 1.071-0.076 1.518C23.37 23.733 22.884 24 22.353 24H13.5c-0.276 0-0.5-0.224-0.5-0.5s0.224-0.5 0.5-0.5h8.854c0.189 0 0.356-0.092 0.458-0.251s0.113-0.349 0.033-0.521l-2.278-3.979c-1.623-3.09-4.976-4.711-8.546-4.148-2.001 0.316-3.343 1.102-4.63 2.712l-3.409 4.385 3.623-2.38c0.806-0.559 2.016-0.176 2.357 0.741l1.502 3.755c0.103 0.256-0.021 0.547-0.278 0.65-0.25 0.101-0.547-0.019-0.649-0.279L9.035 19.93c-0.129-0.343-0.578-0.485-0.881-0.277l-6.246 4.103c-0.845 0.661-2.12-0.163-1.886-1.198L2.01 12.9c0.055-0.272 0.322-0.442 0.59-0.389 0.271 0.056 0.444 0.32 0.389 0.59l-1.986 9.651c-0.023 0.278 0.252 0.286 0.396 0.143l5.207-6.701c1.444-1.807 3.016-2.726 5.259-3.08 3.938-0.625 7.79 1.248 9.578 4.654zM24 9.5c0 0.215-0.138 0.406-0.342 0.474l-1.263 0.421-0.421 1.263c-0.132 0.447-0.816 0.447-0.948 0l-0.423-1.269-1.27-0.449c-0.445-0.141-0.432-0.824 0.018-0.948l1.256-0.393 0.419-1.257c0.136-0.408 0.812-0.408 0.948 0l0.421 1.263 1.263 0.421C23.862 9.094 24 9.285 24 9.5zM14.806 3.915l1.95 0.822 0.78 1.949C17.611 6.876 17.796 7 18 7s0.389-0.125 0.464-0.314l0.778-1.944 1.943-0.777c0.19-0.076 0.314-0.26 0.314-0.464s-0.124-0.388-0.314-0.464L19.242 2.26 18.464 0.316c-0.15-0.38-0.777-0.38-0.928 0L16.76 2.255 14.823 2.988c-0.191 0.073-0.319 0.254-0.323 0.458s0.117 0.391 0.306 0.469zM17.32 3.111c0.131-0.05 0.235-0.152 0.287-0.282l0.394-0.982 0.394 0.982c0.051 0.127 0.151 0.228 0.278 0.279l0.981 0.393-0.981 0.393c-0.127 0.051-0.228 0.151-0.278 0.279l-0.394 0.982-0.394-0.982c-0.049-0.125-0.146-0.223-0.27-0.275l-0.99-0.417z" />
</svg>