<svg id="no_baby_Layer_1" viewBox="0 0 24 24" fill="currentColor" width="32" height="32" data-name="Layer 1" xmlns="http://www.w3.org/2000/svg" xmlns:xlink="http://www.w3.org/1999/xlink">
    <title>no-baby</title>
    <path d="M9 13.481v-0.945l-1-1v2.681l-0.671 0.846c-0.337 0.421-0.422 0.993-0.222 1.494l1 2.5c0.301 0.752 1.205 1.138 1.95 0.836 0.768-0.307 1.143-1.182 0.855-1.891l-0.343-1.304 1.482-1.112-1.086-1.086zM9.902 15.948c-0.285 0.214-0.412 0.579-0.32 0.924l0.383 1.443c0.105 0.247-0.027 0.556-0.278 0.65-0.25 0.1-0.551-0.028-0.65-0.279l-1-2.5C7.97 16.019 7.998 15.83 8.11 15.689l0.868-1.094 1.614 0.837zM15.755 19.291c-0.359 0.603-1.157 0.879-1.813 0.602-0.753-0.283-1.151-1.207-0.835-1.949l0.269-1.032 0.817 0.817-0.139 0.527c-0.125 0.314-0.02 0.586 0.26 0.708 0.245 0.103 0.549-0.027 0.65-0.279l0.053-0.132zM12 0C5.383 0 0 5.383 0 12s5.383 12 12 12 12-5.383 12-12S18.617 0 12 0zM1 12c0-2.853 1.101-5.447 2.889-7.404l15.515 15.515C17.447 21.899 14.853 23 12 23 5.935 23 1 18.065 1 12zM12.795 8.833c-0.514 0.183-1.074 0.183-1.589 0C10.498 8.525 10.001 7.82 10.001 7c0-1.103 0.897-2 2-2s2 0.897 2 2c0 0.82-0.497 1.525-1.206 1.833zM10.82 9.76c0.011 4e-3 0.022 5e-3 0.033 9e-3 0.354 0.147 0.741 0.23 1.148 0.23s0.794-0.083 1.148-0.23c0.011-4e-3 0.022-5e-3 0.033-9e-3l4.633-1.726c0.261-0.101 0.549 0.023 0.651 0.278 0.102 0.256-0.023 0.548-0.349 0.685l-2.295 1.361c-0.507 0.3-0.821 0.853-0.821 1.442v2.491L10.26 9.55zM20.112 19.403l-3.144-3.144c0.074-0.42-0.023-0.857-0.295-1.196L16 14.215V11.8c0-0.238 0.127-0.461 0.331-0.582l2.227-1.328c0.768-0.308 1.142-1.182 0.835-1.95-0.307-0.767-1.181-1.143-1.938-0.84l-2.668 0.993c0.134-0.34 0.214-0.708 0.214-1.096 0-1.654-1.346-3-3-3s-3 1.346-3 3c0 0.387 0.08 0.755 0.214 1.096L8.578 7.856c0 0-9e-3 0-0.014-2e-3L4.597 3.887c1.957-1.788 4.551-2.889 7.404-2.889 6.065 0 11 4.935 11 11 0 2.853-1.101 5.447-2.889 7.405z" />
</svg>