<svg id="no_food_circle_Layer_1" viewBox="0 0 24 24" fill="currentColor" width="32" height="32" data-name="Layer 1" xmlns="http://www.w3.org/2000/svg" xmlns:xlink="http://www.w3.org/1999/xlink">
    <title>no-food-circle</title>
    <path d="M12 0C5.383 0 0 5.383 0 12s5.383 12 12 12 12-5.383 12-12S18.617 0 12 0zM23 12c0 2.853-1.101 5.447-2.889 7.404l-1.532-1.532C18.847 17.465 19 16.99 19 16.5v-2c0-1.378-1.122-2.5-2.5-2.5h-1.907l0.256-2.819c0.051-0.558-0.137-1.116-0.515-1.53S13.417 7 12.857 7h-1.666l0.195-1.562C11.417 5.188 11.631 5 11.882 5h1.617c0.276 0 0.5-0.224 0.5-0.5S13.775 4 13.499 4h-1.617c-0.755 0-1.395 0.565-1.488 1.314L10.183 7H7.706L4.595 3.889C6.552 2.101 9.146 1 11.999 1c6.065 0 11 4.935 11.001 11zM12.857 8c0.284 0 0.547 0.116 0.738 0.326 0.192 0.21 0.283 0.481 0.257 0.765l-0.264 2.91h-0.882l-4-4zM16.5 13c0.827 0 1.5 0.673 1.5 1.5V15h-2.293l-2-2zM18 16v0.5c0 0.226-0.065 0.436-0.159 0.634L16.707 16zM1 12c0-2.853 1.101-5.447 2.889-7.404l15.515 15.515C17.447 21.899 14.853 23 12 23 5.935 23 1 18.065 1 12zM15.465 19H8.783c-1.562 0-2.847-1.173-2.988-2.729L5.15 9.181c-0.015-0.16-4e-3-0.319 0.019-0.476l1.036 1.036 0.585 6.44C6.884 17.218 7.74 18 8.782 18h1.73c-0.317-0.419-0.513-0.935-0.513-1.5v-2.965l1 1V16.5c0 0.827 0.673 1.5 1.5 1.5h1.965z" />
</svg>