<svg id="no_play_football_Layer_1" viewBox="0 0 24 24" fill="currentColor" width="32" height="32" data-name="Layer 1" xmlns="http://www.w3.org/2000/svg" xmlns:xlink="http://www.w3.org/1999/xlink">
    <title>no-play-football</title>
    <path d="M11 7c1.103 0 2-0.897 2-2s-0.897-2-2-2-2 0.897-2 2 0.897 2 2 2zM11 4c0.551 0 1 0.449 1 1s-0.449 1-1 1-1-0.449-1-1 0.449-1 1-1zM8 14c-1.103 0-2 0.897-2 2s0.897 2 2 2 2-0.897 2-2-0.897-2-2-2zM8 17c-0.551 0-1-0.449-1-1s0.449-1 1-1 1 0.449 1 1-0.449 1-1 1zM12 0C5.383 0 0 5.383 0 12s5.383 12 12 12 12-5.383 12-12S18.617 0 12 0zM23 12c0 2.853-1.101 5.447-2.889 7.404L16.707 16H19c0.276 0 0.5-0.224 0.5-0.5S19.276 15 19 15h-2.699c-0.192 0-0.37-0.113-0.453-0.287L13.154 9H18c0.276 0 0.5-0.224 0.5-0.5S18.276 8 18 8h-7.299c-0.538 0-1.063 0.181-1.493 0.502L4.596 3.889C6.553 2.101 9.147 1 12 1c6.065 0 11 4.935 11 11zM12.049 9l2.089 4.43L9.94 9.232C10.172 9.093 10.43 9 10.702 9zM1 12c0-2.853 1.101-5.447 2.889-7.404l15.515 15.515C17.447 21.899 14.853 23 12 23 5.935 23 1 18.065 1 12zM12 15.536V18.5c0 0.276-0.224 0.5-0.5 0.5S11 18.776 11 18.5v-3.964zM7.572 11.108 5.997 12.32c-0.217 0.167-0.532 0.128-0.701-0.092-0.168-0.219-0.127-0.533 0.092-0.701l1.472-1.132z" />
</svg>