<svg id="no_smoking_Layer_1" viewBox="0 0 24 24" fill="currentColor" width="32" height="32" data-name="Layer 1" xmlns="http://www.w3.org/2000/svg" xmlns:xlink="http://www.w3.org/1999/xlink">
    <title>no-smoking</title>
    <path d="M15.5 19H9v-4h1.5c0.276 0 0.5-0.224 0.5-0.5S10.776 14 10.5 14H2c-1.103 0-2 0.897-2 2v2c0 1.103 0.897 2 2 2h13.5c0.276 0 0.5-0.224 0.5-0.5S15.776 19 15.5 19zM1 18v-2c0-0.551 0.448-1 1-1h6v4H2c-0.552 0-1-0.449-1-1zM24 14.5v5c0 0.276-0.224 0.5-0.5 0.5S23 19.776 23 19.5v-5c0-0.276 0.224-0.5 0.5-0.5s0.5 0.224 0.5 0.5zM14 3.856V2.5C14 2.224 14.224 2 14.5 2S15 2.224 15 2.5v1.356c0 1.222 0.651 2.373 1.699 3.001l1.602 0.961C19.349 8.447 20 9.597 20 10.819v0.68c0 0.276-0.224 0.5-0.5 0.5s-0.5-0.224-0.5-0.5v-0.68c0-0.873-0.465-1.694-1.213-2.144l-1.602-0.961C14.836 6.905 13.999 5.426 14 3.856zM24 9.264v0.235c0 0.276-0.224 0.5-0.5 0.5S23 9.775 23 9.499V9.264c0-1.222-0.651-2.372-1.699-3.001l-2.087-1.252C18.465 4.562 18 3.741 18 2.867V0.5C18 0.224 18.224 0 18.5 0S19 0.224 19 0.5v2.368c0 0.524 0.279 1.017 0.728 1.286l2.087 1.252C23.164 6.214 24.001 7.693 24 9.264zM20.672 19.965C20.862 19.894 21 19.715 21 19.5v-5c0-0.276-0.224-0.5-0.5-0.5h-5.793L0.854 0.146c-0.196-0.195-0.512-0.195-0.708 0s-0.195 0.512 0 0.708l23 23C23.244 23.952 23.372 24 23.5 24s0.256-0.049 0.354-0.146c0.195-0.195 0.195-0.512 0-0.707zM20 15v4h-0.293l-4-4z" />
</svg>