<svg id="no_vaping_Layer_1" viewBox="0 0 24 24" fill="currentColor" width="32" height="32" data-name="Layer 1" xmlns="http://www.w3.org/2000/svg" xmlns:xlink="http://www.w3.org/1999/xlink">
    <title>no-vaping</title>
    <path d="M10.5 23h-6C2.57 23 1 21.43 1 19.5V8h10.5c1.068 0 2.064 0.479 2.732 1.312 0.173 0.216 0.488 0.25 0.703 0.078 0.216-0.173 0.25-0.487 0.078-0.703-0.859-1.072-2.14-1.688-3.513-1.688H8v-2.5c0-1.378-1.122-2.5-2.5-2.5V1c0-0.551-0.449-1-1-1h-1c-0.551 0-1 0.449-1 1v1C1.122 2 0 3.122 0 4.5v15C0 21.981 2.019 24 4.5 24h6c0.276 0 0.5-0.224 0.5-0.5S10.776 23 10.5 23zM3.5 1h1v1h-1zM1 4.5C1 3.673 1.673 3 2.5 3h3C6.327 3 7 3.673 7 4.5V7H1zM17.5 11c-3.584 0-6.5 2.916-6.5 6.5s2.916 6.5 6.5 6.5 6.5-2.916 6.5-6.5-2.916-6.5-6.5-6.5zM12 17.5c0-1.337 0.48-2.563 1.276-3.517l7.741 7.741C20.063 22.52 18.837 23 17.5 23c-3.033 0-5.5-2.467-5.5-5.5zM21.724 21.017l-7.741-7.741C14.937 12.48 16.163 12 17.5 12c3.033 0 5.5 2.467 5.5 5.5 0 1.337-0.48 2.563-1.276 3.517z" />
</svg>