<svg id="nose_Layer_1" viewBox="0 0 24 24" fill="currentColor" width="32" height="32" data-name="Layer 1" xmlns="http://www.w3.org/2000/svg" xmlns:xlink="http://www.w3.org/1999/xlink">
    <title>nose</title>
    <path d="M22.5 20c0-1.312-0.716-2.771-2.129-4.335-1.715-1.898-3.841-6.207-4.956-8.606-1.052-2.265-1.384-3.466-1.413-6.563-2e-3-0.274-0.226-0.495-0.5-0.495h-4e-3C13.222 4e-3 13 0.23 13.002 0.506c0.03 3.258 0.402 4.6 1.506 6.976 1.139 2.45 3.318 6.859 5.121 8.854 1.224 1.355 1.871 2.622 1.876 3.735 1e-3 0.01 0.12 0.998-0.574 1.798-0.651 0.751-1.806 1.132-3.431 1.132-1.567 0-2.613-1.056-3.624-2.077-0.935-0.944-1.901-1.92-3.235-1.92-0.808 0-1.296 0.522-1.45 0.815-0.311 0.548-0.447 1.84 1.26 2.808 2.423 1.374 3.777 1.374 7.049 1.374 1.928 0 3.337-0.497 4.187-1.477 0.996-1.148 0.818-2.523 0.813-2.524z" />
    <path d="M7.276 12.053C7.061 12.16 2 14.735 2 18.5c0 3.786 3.648 5.393 3.803 5.46C5.867 23.987 5.934 24 5.999 24c0.193 0 0.378-0.113 0.459-0.303 0.109-0.253-8e-3-0.547-0.261-0.656-0.13-0.057-3.198-1.422-3.198-4.541 0-3.147 4.677-5.529 4.724-5.553 0.247-0.124 0.347-0.424 0.223-0.671-0.124-0.246-0.423-0.347-0.67-0.223z" />
</svg>