<svg id="not_found_Layer_1" viewBox="0 0 24 24" fill="currentColor" width="32" height="32" data-name="Layer 1" xmlns="http://www.w3.org/2000/svg" xmlns:xlink="http://www.w3.org/1999/xlink">
    <title>not-found</title>
    <path d="M19.5 1h-15C2.019 1 0 3.019 0 5.5v13C0 20.981 2.019 23 4.5 23h15c2.481 0 4.5-2.019 4.5-4.5v-13C24 3.019 21.981 1 19.5 1zM4.5 2h15C21.43 2 23 3.57 23 5.5V8H1V5.5C1 3.57 2.57 2 4.5 2zM19.5 22h-15C2.57 22 1 20.43 1 18.5V9h22v9.5c0 1.93-1.57 3.5-3.5 3.5zM3 5c0-0.552 0.448-1 1-1s1 0.448 1 1-0.448 1-1 1-1-0.448-1-1zM6 5c0-0.552 0.448-1 1-1s1 0.448 1 1-0.448 1-1 1-1-0.448-1-1zM9 5c0-0.552 0.448-1 1-1s1 0.448 1 1-0.448 1-1 1-1-0.448-1-1zM17.354 11.854 15.958 13.25l1.396 1.396c0.195 0.195 0.195 0.512 0 0.707-0.098 0.098-0.226 0.146-0.354 0.146s-0.256-0.049-0.354-0.146l-1.396-1.396-1.396 1.396c-0.098 0.098-0.226 0.146-0.354 0.146s-0.256-0.049-0.354-0.146c-0.195-0.195-0.195-0.512 0-0.707l1.396-1.396-1.396-1.396c-0.195-0.195-0.195-0.512 0-0.707s0.512-0.195 0.707 0l1.396 1.396 1.396-1.396c0.195-0.195 0.512-0.195 0.707 0s0.195 0.512 2e-3 0.707zM8.75 13.958 7.354 15.354C7.256 15.452 7.128 15.5 7 15.5s-0.256-0.049-0.354-0.146c-0.195-0.195-0.195-0.512 0-0.707l1.396-1.396-1.396-1.396c-0.195-0.195-0.195-0.512 0-0.707s0.512-0.195 0.707 0l1.396 1.396 1.396-1.396c0.195-0.195 0.512-0.195 0.707 0s0.195 0.512 0 0.707l-1.396 1.396 1.396 1.396c0.195 0.195 0.195 0.512 0 0.707-0.098 0.098-0.226 0.146-0.354 0.146s-0.256-0.049-0.354-0.146zM16.45 19.953c-0.093 0.159-0.26 0.248-0.432 0.248-0.085 0-0.172-0.022-0.251-0.068-2.573-1.502-4.959-1.502-7.532 0-0.237 0.141-0.544 0.059-0.684-0.18-0.139-0.238-0.059-0.544 0.18-0.684 2.883-1.684 5.657-1.684 8.54 0 0.239 0.139 0.319 0.445 0.179 0.684z" />
</svg>