<svg id="not_equal_Layer_1" viewBox="0 0 24 24" fill="currentColor" width="32" height="32" data-name="Layer 1" xmlns="http://www.w3.org/2000/svg" xmlns:xlink="http://www.w3.org/1999/xlink">
    <title>not-equal</title>
    <path d="M24 16.5c0 0.276-0.224 0.5-0.5 0.5H10.163l-3.212 6.716C6.865 23.896 6.686 24 6.5 24c-0.072 0-0.146-0.016-0.216-0.049-0.249-0.119-0.354-0.418-0.235-0.667L9.054 17H0.5C0.224 17 0 16.776 0 16.5S0.224 16 0.5 16h9.033l3.826-8H0.5C0.224 8 0 7.776 0 7.5S0.224 7 0.5 7h13.337l3.212-6.716c0.119-0.249 0.418-0.354 0.667-0.235s0.354 0.418 0.235 0.667L14.946 7H23.5C23.776 7 24 7.224 24 7.5S23.776 8 23.5 8h-9.033l-3.826 8H23.5c0.276 0 0.5 0.224 0.5 0.5z" />
</svg>