<svg id="not_found_alt_Layer_1" viewBox="0 0 24 24" fill="currentColor" width="32" height="32" data-name="Layer 1" xmlns="http://www.w3.org/2000/svg" xmlns:xlink="http://www.w3.org/1999/xlink">
    <title>not-found-alt</title>
    <path d="M13.854 6.853 10.708 9.999l3.146 3.146c0.195 0.195 0.195 0.512 0 0.707-0.098 0.098-0.226 0.146-0.354 0.146s-0.256-0.049-0.354-0.146L10 10.706 6.854 13.852C6.756 13.95 6.628 13.998 6.5 13.998s-0.256-0.049-0.354-0.146c-0.195-0.195-0.195-0.512 0-0.707l3.146-3.146-3.146-3.146c-0.195-0.195-0.195-0.512 0-0.707s0.512-0.195 0.707 0l3.146 3.146 3.146-3.146c0.195-0.195 0.512-0.195 0.707 0s0.195 0.512 2e-3 0.707zM23.854 23.853c-0.098 0.098-0.226 0.146-0.354 0.146s-0.256-0.049-0.354-0.146l-6.443-6.443c-1.775 1.607-4.12 2.596-6.697 2.596-5.514 0-10-4.486-10-10s4.486-10 10-10 10 4.486 10 10c0 2.577-0.989 4.922-2.596 6.697l6.443 6.443c0.195 0.195 0.195 0.512 1e-3 0.707zM19.006 10.005c0-4.962-4.037-9-9-9s-9 4.038-9 9.001 4.037 9 9 9 9-4.038 9-9.001z" />
</svg>