<svg id="notdef_Layer_1" viewBox="0 0 24 24" fill="currentColor" width="32" height="32" data-name="Layer 1" xmlns="http://www.w3.org/2000/svg" xmlns:xlink="http://www.w3.org/1999/xlink">
    <title>notdef</title>
    <path d="M21 19.5v-15c0-1.1-0.41-2.09-1.07-2.88 0 0-0.01-0.02-0.02-0.02C19.08 0.63 17.87 0 16.5 0h-9C6.13 0 4.91 0.63 4.09 1.6c0 0-0.01 0.02-0.02 0.02C3.41 2.4 3 3.4 3 4.5v15c0 1.1 0.41 2.09 1.07 2.88 0 0 0.01 0.02 0.02 0.02C4.92 23.37 6.13 24 7.5 24h9c1.37 0 2.59-0.63 3.41-1.6 0 0 0.02-0.02 0.02-0.02C20.59 21.6 21 20.6 21 19.5zM20 19.5c0 0.65-0.19 1.26-0.5 1.78L12.63 12 19.5 2.72C19.81 3.24 20 3.85 20 4.5zM16.5 1c0.9 0 1.72 0.35 2.34 0.92L12 11.16 5.16 1.92C5.78 1.35 6.6 1 7.5 1zM4 4.5c0-0.65 0.19-1.26 0.5-1.78L11.37 12 4.5 21.28C4.19 20.76 4 20.15 4 19.5zM7.5 23c-0.9 0-1.72-0.35-2.34-0.92L12 12.84l6.84 9.24C18.22 22.65 17.4 23 16.5 23z" />
</svg>