<svg id="note_medical_Layer_1" viewBox="0 0 24 24" fill="currentColor" width="32" height="32" data-name="Layer 1" xmlns="http://www.w3.org/2000/svg" xmlns:xlink="http://www.w3.org/1999/xlink">
    <title>note-medical</title>
    <path d="M12.5 12.5v4c0 0.276-0.224 0.5-0.5 0.5s-0.5-0.224-0.5-0.5v-4h-4C7.224 12.5 7 12.276 7 12s0.224-0.5 0.5-0.5h4v-4C11.5 7.224 11.724 7 12 7s0.5 0.224 0.5 0.5v4h4c0.276 0 0.5 0.224 0.5 0.5s-0.224 0.5-0.5 0.5zM24.039 15.427c0 1.471-0.572 2.852-1.611 3.892l-3.071 3.07C18.319 23.428 16.938 24 15.468 24H4.5C2.019 24 0 21.981 0 19.5L-0.039 4.501C-0.039 2.019 1.98 0 4.461 0H19.5C21.981 0 24 2.019 24 4.5zM15.468 23c0.194 0 0.382-0.032 0.571-0.056V18.5c0-1.379 1.122-2.5 2.5-2.5h4.444c0.024-0.189 0.056-0.377 0.056-0.571L23 4.502C23 2.57 21.43 1 19.5 1H4.461c-1.93 0-3.5 1.57-3.5 3.5L1 19.499C1 21.43 2.57 23 4.5 23zM22.745 17h-4.206c-0.827 0-1.5 0.673-1.5 1.5v4.206c0.596-0.222 1.147-0.56 1.611-1.024l3.071-3.07c0.463-0.464 0.801-1.015 1.024-1.612z" />
</svg>