<svg id="notebook_Layer_1" viewBox="0 0 24 24" fill="currentColor" width="32" height="32" data-name="Layer 1" xmlns="http://www.w3.org/2000/svg" xmlns:xlink="http://www.w3.org/1999/xlink">
    <title>notebook</title>
    <path d="M19 3.351V0.5C19 0.224 18.776 0 18.5 0S18 0.224 18 0.5v2.551C17.835 3.027 17.671 3 17.5 3H15V0.5C15 0.224 14.776 0 14.5 0S14 0.224 14 0.5V3h-4V0.5C10 0.224 9.776 0 9.5 0S9 0.224 9 0.5V3H6.5C6.329 3 6.165 3.027 6 3.051V0.5C6 0.224 5.776 0 5.5 0S5 0.224 5 0.5v2.851C3.822 3.915 3 5.109 3 6.5v13C3 21.981 5.019 24 7.5 24h9c2.481 0 4.5-2.019 4.5-4.5v-13c0-1.391-0.822-2.585-2-3.149zM20 19.5c0 1.93-1.57 3.5-3.5 3.5h-9C5.57 23 4 21.43 4 19.5v-13C4 5.122 5.122 4 6.5 4h11C18.878 4 20 5.122 20 6.5zM17 9.5c0 0.276-0.224 0.5-0.5 0.5h-9C7.224 10 7 9.776 7 9.5S7.224 9 7.5 9h9C16.776 9 17 9.224 17 9.5zM17 13.5c0 0.276-0.224 0.5-0.5 0.5h-9C7.224 14 7 13.776 7 13.5S7.224 13 7.5 13h9c0.276 0 0.5 0.224 0.5 0.5zM13 17.5c0 0.276-0.224 0.5-0.5 0.5h-5C7.224 18 7 17.776 7 17.5S7.224 17 7.5 17h5c0.276 0 0.5 0.224 0.5 0.5z" />
</svg>