<svg id="note_Layer_1" viewBox="0 0 24 24" fill="currentColor" width="32" height="32" data-name="Layer 1" xmlns="http://www.w3.org/2000/svg" xmlns:xlink="http://www.w3.org/1999/xlink">
    <title>note</title>
    <path d="M19.5 0h-15C2.019 0 0 2.019 0 4.5v15C0 21.981 2.019 24 4.5 24h11.843c1.184 0 2.344-0.48 3.182-1.318l3.157-3.156c0.85-0.85 1.318-1.98 1.318-3.183V4.5C24 2.019 21.981 0 19.5 0zM1 19.5v-15C1 2.57 2.57 1 4.5 1h15C21.43 1 23 2.57 23 4.5V16h-4.5c-1.378 0-2.5 1.121-2.5 2.5V23H4.5C2.57 23 1 21.43 1 19.5zM21.975 18.818l-3.157 3.156c-0.495 0.495-1.135 0.83-1.818 0.962V18.5c0-0.827 0.673-1.5 1.5-1.5h4.439c-0.129 0.685-0.46 1.315-0.964 1.818zM4 6c0-0.552 0.448-1 1-1s1 0.448 1 1-0.448 1-1 1-1-0.448-1-1zM6 12c0 0.552-0.448 1-1 1s-1-0.448-1-1 0.448-1 1-1 1 0.448 1 1zM6 18c0 0.552-0.448 1-1 1s-1-0.448-1-1 0.448-1 1-1 1 0.448 1 1z" />
</svg>