<svg id="notes_medical_Layer_1" viewBox="0 0 24 24" fill="currentColor" width="32" height="32" data-name="Layer 1" xmlns="http://www.w3.org/2000/svg" xmlns:xlink="http://www.w3.org/1999/xlink">
    <title>notes-medical</title>
    <path d="M14.5 13.5c0 0.276-0.224 0.5-0.5 0.5s-0.5-0.224-0.5-0.5v-3h-3c-0.276 0-0.5-0.224-0.5-0.5s0.224-0.5 0.5-0.5h3v-3C13.5 6.224 13.724 6 14 6s0.5 0.224 0.5 0.5v3h3c0.276 0 0.5 0.224 0.5 0.5s-0.224 0.5-0.5 0.5h-3zM24 4.5v9.373c0 0.921-0.374 1.823-1.025 2.475l-2.627 2.627C19.697 19.626 18.794 20 17.873 20H8.5C6.019 20 4 17.981 4 15.5v-11C4 2.019 6.019 0 8.5 0h11C21.981 0 24 2.019 24 4.5zM8.5 19H17v-3.5c0-1.379 1.121-2.5 2.5-2.5H23V4.5C23 2.57 21.43 1 19.5 1h-11C6.57 1 5 2.57 5 4.5v11C5 17.43 6.57 19 8.5 19zM22.987 14H19.5c-0.827 0-1.5 0.673-1.5 1.5v3.487c0.613-0.032 1.205-0.284 1.641-0.72l2.627-2.627c0.436-0.436 0.688-1.028 0.719-1.64zM17.5 23h-13C2.57 23 1 21.43 1 19.5v-13C1 6.224 0.776 6 0.5 6S0 6.224 0 6.5v13C0 21.981 2.019 24 4.5 24h13c0.276 0 0.5-0.224 0.5-0.5S17.776 23 17.5 23z" />
</svg>