<svg id="november_calendar_Layer_1" viewBox="0 0 24 24" fill="currentColor" width="32" height="32" data-name="Layer 1" xmlns="http://www.w3.org/2000/svg" xmlns:xlink="http://www.w3.org/1999/xlink">
    <title>november-calendar</title>
    <path d="M15.5 16c-1.378 0-2.5 1.121-2.5 2.5v3c0 1.379 1.122 2.5 2.5 2.5s2.5-1.121 2.5-2.5v-3c0-1.379-1.122-2.5-2.5-2.5zM17 21.5c0 0.827-0.673 1.5-1.5 1.5S14 22.327 14 21.5v-3c0-0.827 0.673-1.5 1.5-1.5s1.5 0.673 1.5 1.5zM19.5 2H18V0.5C18 0.224 17.776 0 17.5 0S17 0.224 17 0.5V2H7V0.5C7 0.224 6.776 0 6.5 0S6 0.224 6 0.5V2H4.5C2.019 2 0 4.019 0 6.5v13C0 21.981 2.019 24 4.5 24 4.776 24 5 23.776 5 23.5S4.776 23 4.5 23C2.57 23 1 21.43 1 19.5V9h22v4.5c0 0.276 0.224 0.5 0.5 0.5s0.5-0.224 0.5-0.5v-7C24 4.019 21.981 2 19.5 2zM1 8V6.5C1 4.57 2.57 3 4.5 3h15C21.43 3 23 4.57 23 6.5V8zM23.991 16.596l-1.197 6.116c-0.148 0.761-0.769 1.271-1.544 1.271s-1.396-0.511-1.544-1.271l-1.197-6.116c-0.053-0.271 0.124-0.533 0.395-0.586 0.271-0.059 0.534 0.122 0.587 0.395l1.197 6.116c0.066 0.341 0.334 0.463 0.562 0.463s0.496-0.122 0.562-0.463l1.197-6.116c0.053-0.272 0.309-0.453 0.587-0.395 0.271 0.053 0.448 0.315 0.395 0.586zM12 16.5v6.728c0 0.368-0.251 0.679-0.611 0.755-0.351 0.077-0.718-0.102-0.867-0.441L8 17.859v5.642c0 0.276-0.224 0.5-0.5 0.5S7 23.777 7 23.501v-6.716c0-0.368 0.252-0.68 0.612-0.756 0.363-0.076 0.716 0.106 0.866 0.442l2.521 5.683v-5.653c0-0.276 0.224-0.5 0.5-0.5s0.5 0.224 0.501 0.499z" />
</svg>