<svg id="obj_file_Layer_1" viewBox="0 0 24 24" fill="currentColor" width="32" height="32" data-name="Layer 1" xmlns="http://www.w3.org/2000/svg" xmlns:xlink="http://www.w3.org/1999/xlink">
    <title>obj-file</title>
    <path d="M22 13.5v5c0 1.378-1.121 2.5-2.5 2.5S17 19.878 17 18.5c0-0.276 0.224-0.5 0.5-0.5s0.5 0.224 0.5 0.5c0 0.827 0.673 1.5 1.5 1.5s1.5-0.673 1.5-1.5v-5c0-0.276 0.224-0.5 0.5-0.5s0.5 0.224 0.5 0.5zM15.5 15.25c0 0.602-0.237 1.149-0.623 1.553C15.548 17.193 16 17.92 16 18.75 16 19.991 14.99 21 13.75 21H12c-0.551 0-1-0.449-1-1v-6c0-0.551 0.449-1 1-1h1.25c1.24 0 2.25 1.009 2.25 2.25zM12 16.5h1.25c0.689 0 1.25-0.561 1.25-1.25S13.939 14 13.25 14H12zM13.75 17.5H12V20h1.75c0.689 0 1.25-0.561 1.25-1.25s-0.561-1.25-1.25-1.25zM7.5 13c1.378 0 2.5 1.122 2.5 2.5v3c0 1.378-1.122 2.5-2.5 2.5S5 19.878 5 18.5v-3C5 14.122 6.122 13 7.5 13zM7.5 14C6.673 14 6 14.673 6 15.5v3C6 19.327 6.673 20 7.5 20S9 19.327 9 18.5v-3C9 14.673 8.327 14 7.5 14zM22 9.985V10.5c0 0.276-0.224 0.5-0.5 0.5S21 10.776 21 10.5V9.985C21 9.65 20.962 9.322 20.904 9H15.5C14.121 9 13 7.878 13 6.5V1.096C12.677 1.038 12.349 1 12.015 1H6.5C4.57 1 3 2.57 3 4.5v15C3 21.43 4.57 23 6.5 23h11c0.616 0 1.221-0.162 1.749-0.468 0.236-0.138 0.544-0.059 0.684 0.182 0.139 0.239 0.057 0.545-0.182 0.683C19.069 23.791 18.291 24 17.5 24h-11C4.019 24 2 21.981 2 19.5v-15C2 2.019 4.019 0 6.5 0h5.515c1.735 0 3.368 0.676 4.597 1.904l3.484 3.485C21.324 6.616 22 8.248 22 9.985zM20.621 8c-0.273-0.704-0.682-1.354-1.232-1.904l-3.484-3.485c-0.551-0.55-1.2-0.959-1.904-1.231V6.5c0 0.827 0.673 1.5 1.5 1.5z" />
</svg>