<svg id="object_union_Layer_1" viewBox="0 0 24 24" fill="currentColor" width="32" height="32" data-name="Layer 1" xmlns="http://www.w3.org/2000/svg" xmlns:xlink="http://www.w3.org/1999/xlink">
    <title>object-union</title>
    <path d="M19.5 24h-7C10.02 24 8 21.98 8 19.5V16H4.5C2.02 16 0 13.98 0 11.5v-7C0 2.02 2.02 0 4.5 0h7C13.98 0 16 2.02 16 4.5V8h3.5c2.48 0 4.5 2.02 4.5 4.5v7c0 2.48-2.02 4.5-4.5 4.5zM4.5 1C2.57 1 1 2.57 1 4.5v7C1 13.43 2.57 15 4.5 15h4C8.78 15 9 15.22 9 15.5v4c0 1.93 1.57 3.5 3.5 3.5h7c1.93 0 3.5-1.57 3.5-3.5v-7c0-1.93-1.57-3.5-3.5-3.5h-4C15.22 9 15 8.78 15 8.5v-4C15 2.57 13.43 1 11.5 1z" />
</svg>