<svg id="objects_column_Layer_1" viewBox="0 0 24 24" fill="currentColor" width="32" height="32" data-name="Layer 1" xmlns="http://www.w3.org/2000/svg" xmlns:xlink="http://www.w3.org/1999/xlink">
    <title>objects-column</title>
    <path d="M9 11H2c-1.103 0-2 0.897-2 2v6.5C0 21.981 2.019 24 4.5 24H9c1.103 0 2-0.897 2-2v-9c0-1.103-0.897-2-2-2zM10 22c0 0.552-0.448 1-1 1H4.5C2.57 23 1 21.43 1 19.5V13c0-0.552 0.448-1 1-1h7c0.552 0 1 0.448 1 1zM9 0H4.5C2.019 0 0 2.019 0 4.5V7c0 1.103 0.897 2 2 2h7c1.103 0 2-0.897 2-2V2c0-1.103-0.897-2-2-2zM10 7c0 0.552-0.448 1-1 1H2C1.448 8 1 7.552 1 7V4.5C1 2.57 2.57 1 4.5 1H9c0.552 0 1 0.448 1 1zM22 15h-7c-1.103 0-2 0.897-2 2v5c0 1.103 0.897 2 2 2h4.5c2.481 0 4.5-2.019 4.5-4.5V17c0-1.103-0.897-2-2-2zM23 19.5c0 1.93-1.57 3.5-3.5 3.5H15c-0.552 0-1-0.448-1-1v-5c0-0.552 0.448-1 1-1h7c0.552 0 1 0.448 1 1zM19.5 0H15c-1.103 0-2 0.897-2 2v9c0 1.103 0.897 2 2 2h7c1.103 0 2-0.897 2-2V4.5C24 2.019 21.981 0 19.5 0zM23 11c0 0.552-0.448 1-1 1h-7c-0.552 0-1-0.448-1-1V2c0-0.552 0.448-1 1-1h4.5C21.43 1 23 2.57 23 4.5z" />
</svg>