<svg id="object_intersect_Layer_1" viewBox="0 0 24 24" fill="currentColor" width="32" height="32" data-name="Layer 1" xmlns="http://www.w3.org/2000/svg" xmlns:xlink="http://www.w3.org/1999/xlink">
    <title>object-intersect</title>
    <path d="M0.14 3.38c0.41-1.59 1.65-2.83 3.24-3.24 0.27-0.07 0.54 0.09 0.61 0.36S3.9 1.04 3.63 1.11C2.4 1.43 1.43 2.39 1.12 3.62 1.06 3.85 0.86 4 0.64 4 0.6 4 0.56 4 0.52 3.98 0.25 3.91 0.09 3.64 0.14 3.38zM0.5 10C0.78 10 1 9.78 1 9.5v-3C1 6.22 0.78 6 0.5 6S0 6.22 0 6.5v3C0 9.78 0.22 10 0.5 10zM5.5 15h-1c-1.6 0-2.99-1.08-3.39-2.62-0.07-0.27-0.34-0.43-0.61-0.36s-0.43 0.34-0.36 0.61c0.51 1.99 2.3 3.38 4.36 3.38h1c0.28 0 0.5-0.22 0.5-0.5S5.78 15.01 5.5 15zM16 8.5v3c0 2.48-2.02 4.5-4.5 4.5h-3C8.22 16 8 15.78 8 15.5v-3C8 10.02 10.02 8 12.5 8h3C15.78 8 16 8.22 16 8.5zM15 9h-2.5C10.57 9 9 10.57 9 12.5V15h2.5c1.93 0 3.5-1.57 3.5-3.5zM12.38 1.11C13.93 1.51 15 2.9 15 4.5v1C15 5.78 15.22 6 15.5 6S16 5.78 16 5.5v-1c0-2.05-1.39-3.85-3.38-4.36-0.26-0.07-0.54 0.09-0.61 0.36s0.09 0.54 0.37 0.61zM10 0.5C10 0.22 9.78 0 9.5 0h-3C6.22 0 6 0.22 6 0.5S6.22 1 6.5 1h3C9.78 1 10 0.78 10 0.5zM23.5 20.02c-0.27-0.07-0.54 0.09-0.61 0.36-0.32 1.23-1.28 2.2-2.51 2.51-0.27 0.07-0.43 0.34-0.36 0.61 0.06 0.23 0.26 0.38 0.48 0.38 0.04 0 0.08 0 0.12-0.02 1.58-0.41 2.82-1.65 3.23-3.23 0.07-0.27-0.09-0.54-0.35-0.61zM23.5 14c-0.28 0-0.5 0.22-0.5 0.5v3c0 0.28 0.22 0.5 0.5 0.5s0.5-0.22 0.5-0.5v-3c0-0.28-0.22-0.5-0.5-0.5zM22.89 11.62c0.06 0.23 0.26 0.38 0.48 0.38 0.04 0 0.08 0 0.12-0.02 0.27-0.07 0.43-0.34 0.36-0.61-0.51-1.99-2.3-3.38-4.36-3.38h-1c-0.28 0-0.5 0.22-0.5 0.5s0.22 0.5 0.5 0.5h1c1.6 0 2.99 1.08 3.4 2.63zM11.62 22.88C10.07 22.48 9 21.09 9 19.49v-1c0-0.28-0.22-0.5-0.5-0.5S8 18.21 8 18.49v1c0 2.05 1.39 3.85 3.38 4.36 0.04 0.01 0.08 0.02 0.12 0.02 0.22 0 0.43-0.15 0.48-0.38 0.07-0.27-0.09-0.54-0.36-0.61zM17.5 22.99h-3c-0.28 0-0.5 0.22-0.5 0.5s0.22 0.5 0.5 0.5h3c0.28 0 0.5-0.22 0.5-0.5s-0.22-0.5-0.5-0.5z" />
</svg>