<svg id="octagon_Layer_1" viewBox="0 0 24 24" fill="currentColor" width="32" height="32" data-name="Layer 1" xmlns="http://www.w3.org/2000/svg" xmlns:xlink="http://www.w3.org/1999/xlink">
    <title>octagon</title>
    <path d="M15.16 24H8.95c-1.2 0-2.33-0.47-3.18-1.32l-4.4-4.39c-0.85-0.85-1.32-1.98-1.32-3.18V8.9c0-1.2 0.47-2.33 1.32-3.18l4.39-4.4C6.61 0.47 7.74 0 8.94 0h6.21c1.2 0 2.33 0.47 3.18 1.32l4.39 4.39c0.85 0.85 1.32 1.98 1.32 3.18v6.21c0 1.2-0.47 2.33-1.32 3.18l-4.39 4.39c-0.85 0.85-1.98 1.32-3.17 1.33zM8.94 1C8 1 7.13 1.36 6.46 2.02l-4.38 4.4C1.42 7.08 1.06 7.96 1.06 8.9v6.21c0 0.94 0.36 1.81 1.02 2.48l4.39 4.39C7.13 22.64 8.01 23 8.95 23h6.21c0.94 0 1.81-0.36 2.48-1.02l4.39-4.39c0.66-0.66 1.02-1.54 1.02-2.48V8.9c0-0.94-0.36-1.81-1.02-2.48l-4.39-4.39c-0.66-0.66-1.54-1.02-2.48-1.02z" />
</svg>