<svg id="oil_can_Layer_1" viewBox="0 0 24 24" fill="currentColor" width="32" height="32" data-name="Layer 1" xmlns="http://www.w3.org/2000/svg" xmlns:xlink="http://www.w3.org/1999/xlink">
    <title>oil-can</title>
    <path d="M23.798 8.099c-0.127-0.095-0.29-0.123-0.442-0.077l-6.36 1.921c-0.507 0.142-1.049 0.013-1.434-0.343C14.95 8.612 13.857 8 12.692 8h-2.691V4h2.5c0.276 0 0.5-0.224 0.5-0.5S12.777 3 12.501 3H6.5C6.224 3 6 3.224 6 3.5S6.224 4 6.5 4H9v4H5.371l-2-0.842C2.603 6.873 1.743 6.983 1.073 7.449 0.401 7.916 0 8.683 0 9.502v2.465c0 1.481 0.939 2.809 2.337 3.301L4 15.854V16.5C4 18.43 5.57 20 7.5 20h5.65c1.322 0 2.572-0.578 3.429-1.585l7.302-8.591C23.958 9.733 24 9.618 24 9.5v-1c0-0.158-0.075-0.307-0.202-0.401zM2.669 14.324C1.671 13.972 1 13.025 1 11.967V9.502c0-0.498 0.234-0.947 0.644-1.231 0.41-0.286 0.914-0.35 1.359-0.183L4 8.508v6.286zM23 9.316l-7.183 8.45c-0.666 0.784-1.639 1.233-2.667 1.233H7.5c-1.379 0-2.5-1.121-2.5-2.5v-7.5h7.691c0.836 0 1.62 0.447 2.046 1.168 0.021 0.036 0.048 0.07 0.077 0.1 0.642 0.642 1.578 0.885 2.462 0.634L23 9.172zM21.323 15.321C21.188 15.473 20 16.843 20 18.003c0 0.532 0.208 1.033 0.586 1.411S21.466 20 22 20s1.036-0.208 1.414-0.586S24 18.534 24 18c0-1.156-1.188-2.526-1.295-2.644-0.328-0.445-1.11-0.41-1.382-0.035zM22.707 18.707c-0.379 0.377-1.035 0.377-1.414 0C21.105 18.518 21 18.268 21 18.003c0-0.546 0.564-1.412 1-1.936 0.414 0.49 1 1.378 1 1.933 0 0.267-0.104 0.518-0.293 0.707z" />
</svg>