<svg id="oil_price_Layer_1" viewBox="0 0 24 24" fill="currentColor" width="32" height="32" data-name="Layer 1" xmlns="http://www.w3.org/2000/svg" xmlns:xlink="http://www.w3.org/1999/xlink">
    <title>oil-price</title>
    <path d="M21 21.092V15.5c0-0.276-0.224-0.5-0.5-0.5S20 15.224 20 15.5V21H4v-7.5h2.5C6.776 13.5 7 13.276 7 13s-0.224-0.5-0.5-0.5h-3C3.225 12.5 3 12.275 3 12s0.225-0.5 0.5-0.5h3C6.776 11.5 7 11.276 7 11s-0.224-0.5-0.5-0.5H4V3h11c0.276 0 0.5-0.224 0.5-0.5S15.276 2 15 2H3.5C3.225 2 3 1.775 3 1.5S3.225 1 3.5 1H17c0.276 0 0.5-0.224 0.5-0.5S17.276 0 17 0H3.5C2.673 0 2 0.673 2 1.5 2 2.151 2.419 2.701 3 2.908v7.684C2.419 10.799 2 11.349 2 12s0.419 1.201 1 1.408v7.684c-0.581 0.207-1 0.757-1 1.408 0 0.827 0.673 1.5 1.5 1.5h17c0.827 0 1.5-0.673 1.5-1.5 0-0.651-0.419-1.201-1-1.408zM20.5 23h-17C3.225 23 3 22.775 3 22.5S3.225 22 3.5 22h17c0.275 0 0.5 0.225 0.5 0.5S20.775 23 20.5 23zM10.966 8.814 9.879 9.878c-1.17 1.17-1.17 3.072 0 4.242 0.566 0.566 1.32 0.879 2.121 0.879s1.555-0.312 2.121-0.879c1.17-1.17 1.17-3.072-4e-3-4.246l-1.084-1.061c-0.58-0.566-1.487-0.566-2.067 1e-3zM13.414 13.414c-0.756 0.756-2.072 0.756-2.828 0-0.779-0.779-0.779-2.049-4e-3-2.824l1.082-1.06C11.757 9.439 11.879 9.394 12 9.394s0.242 0.045 0.334 0.135l1.08 1.057c0.779 0.779 0.779 2.049 0 2.828zM23 4.5V4.273C23 3.571 22.457 3 21.79 3h-2.58C18.543 3 18 3.571 18 4.273c0 0.567 0.363 1.071 0.883 1.226l3.519 1.043c0.941 0.279 1.599 1.178 1.599 2.185 0 1.254-0.991 2.273-2.21 2.273h-0.79v1.5c0 0.276-0.224 0.5-0.5 0.5s-0.5-0.224-0.5-0.5V11h-0.79c-1.219 0-2.21-1.02-2.21-2.273V8.5c0-0.276 0.224-0.5 0.5-0.5s0.5 0.224 0.5 0.5v0.227c0 0.702 0.543 1.273 1.21 1.273h2.58c0.667 0 1.21-0.571 1.21-1.273 0-0.567-0.363-1.071-0.883-1.226l-3.519-1.043C17.658 6.179 17 5.28 17 4.273 17 3.019 17.991 2 19.21 2H20V0.5C20 0.224 20.224 0 20.5 0S21 0.224 21 0.5V2h0.79C23.009 2 24 3.02 24 4.273V4.5C24 4.776 23.776 5 23.5 5S23 4.776 23 4.5z" />
</svg>