<svg id="oil_temp_Layer_1" viewBox="0 0 24 24" fill="currentColor" width="32" height="32" data-name="Layer 1" xmlns="http://www.w3.org/2000/svg" xmlns:xlink="http://www.w3.org/1999/xlink">
    <title>oil-temp</title>
    <path d="M12 18c2.206 0 4-1.794 4-4 0-2.037-1.529-3.722-3.5-3.969V5h4C16.776 5 17 4.776 17 4.5S16.776 4 16.5 4h-4V2.5C12.5 1.673 13.173 1 14 1h2.5C16.776 1 17 0.776 17 0.5S16.776 0 16.5 0H14c-1.379 0-2.5 1.121-2.5 2.5v7.531C9.529 10.278 8 11.963 8 14c0 2.206 1.794 4 4 4zM12 11c1.654 0 3 1.346 3 3s-1.346 3-3 3-3-1.346-3-3 1.346-3 3-3zM23.879 22.407c0.181 0.21 0.156 0.525-0.053 0.705C23.16 23.684 22.302 24 21.409 24c-1.239 0-2.434-0.594-3.137-1.494-0.703 0.9-1.896 1.494-3.136 1.494s-2.434-0.594-3.137-1.494C11.296 23.406 10.102 24 8.862 24s-2.433-0.594-3.136-1.494C5.023 23.406 3.829 24 2.589 24c-0.893 0-1.751-0.315-2.417-0.888-0.209-0.18-0.233-0.495-0.053-0.705 0.18-0.209 0.495-0.232 0.705-0.053C1.308 22.77 1.935 23 2.589 23c1.168 0 2.315-0.72 2.668-1.674 0.145-0.393 0.793-0.393 0.938 0C6.548 22.28 7.694 23 8.862 23s2.315-0.72 2.668-1.674c0.145-0.393 0.793-0.393 0.938 0 0.353 0.954 1.5 1.674 2.668 1.674s2.314-0.72 2.667-1.674c0.145-0.393 0.793-0.393 0.938 0 0.353 0.954 1.5 1.674 2.668 1.674 0.653 0 1.28-0.229 1.765-0.646 0.211-0.18 0.526-0.156 0.705 0.053zM17.804 15.674c-0.096-0.26 0.036-0.547 0.295-0.643 0.261-0.098 0.547 0.036 0.643 0.295C19.095 16.28 20.242 17 21.41 17c0.653 0 1.28-0.229 1.765-0.646 0.211-0.179 0.526-0.157 0.705 0.053 0.181 0.21 0.156 0.525-0.053 0.705C23.161 17.684 22.303 18 21.41 18c-1.591 0-3.107-0.979-3.606-2.326zM0.121 16.407c0.18-0.21 0.495-0.231 0.705-0.053C1.31 16.77 1.937 17 2.591 17c1.168 0 2.315-0.72 2.668-1.674 0.096-0.258 0.382-0.393 0.643-0.295 0.259 0.096 0.391 0.383 0.295 0.643C5.699 17.022 4.182 18 2.592 18c-0.893 0-1.751-0.315-2.417-0.888-0.209-0.18-0.233-0.495-0.054-0.705z" />
</svg>