<svg id="oil_tank_Layer_1" viewBox="0 0 24 24" fill="currentColor" width="32" height="32" data-name="Layer 1" xmlns="http://www.w3.org/2000/svg" xmlns:xlink="http://www.w3.org/1999/xlink">
    <title>oil-tank</title>
    <path d="M23.711 5.77C23.358 3.585 21.49 2 19.268 2H16c0-1.103-0.897-2-2-2h-4C8.897 0 8 0.897 8 2H4.732C2.51 2 0.642 3.585 0.289 5.77c-0.385 2.359-0.385 5.101 0 7.46C0.642 15.415 2.51 17 4.732 17h14.535c2.223 0 4.091-1.585 4.443-3.77 0.385-2.354 0.385-5.106 1e-3-7.46zM10 1h4c0.552 0 1 0.449 1 1H9c0-0.551 0.449-1 1-1zM22.725 13.071C22.451 14.768 20.996 16 19.268 16H4.732c-1.729 0-3.182-1.232-3.456-2.929-0.368-2.254-0.368-4.887 0-7.142C1.55 4.232 3.004 3 4.732 3h14.535c1.729 0 3.183 1.232 3.457 2.929 0.367 2.249 0.367 4.893 1e-3 7.142zM12.927 6.362c-0.511-0.5-1.343-0.501-1.896 0.048L9.879 7.879c-1.169 1.169-1.169 3.073 0 4.242 1.117 1.164 3.126 1.164 4.243 0 1.149-1.08 1.16-3.13 0.039-4.198zM13.414 11.414c-0.756 0.756-2.073 0.756-2.829 0-0.78-0.78-0.78-2.048 0.04-2.873l1.148-1.465c0.108-0.106 0.301-0.136 0.41-0.048l1.23 1.558c0.776 0.745 0.776 2.083 1e-3 2.828zM19 18c-1.483 0-2.71 1.084-2.949 2.5H7.949C7.709 19.084 6.483 18 5 18c-1.654 0-3 1.346-3 3s1.346 3 3 3c1.483 0 2.71-1.084 2.949-2.5h8.101c0.24 1.416 1.466 2.5 2.949 2.5 1.654 0 3-1.346 3-3S20.653 18 19 18zM5 23c-1.103 0-2-0.897-2-2s0.897-2 2-2 2 0.897 2 2-0.897 2-2 2zM19 23c-1.103 0-2-0.897-2-2s0.897-2 2-2 2 0.897 2 2-0.897 2-2 2z" />
</svg>