<svg id="olive_Layer_1" viewBox="0 0 24 24" fill="currentColor" width="32" height="32" data-name="Layer 1" xmlns="http://www.w3.org/2000/svg" xmlns:xlink="http://www.w3.org/1999/xlink">
    <title>olive</title>
    <path d="M21.043 2.958C18.928 0.841 15.989-0.2 12.782 0.03 9.597 0.257 6.519 1.707 4.113 4.113-0.873 9.1-1.392 16.694 2.957 21.042 4.881 22.966 7.48 24 10.351 24c0.286 0 0.576-0.01 0.867-0.031 3.185-0.227 6.263-1.677 8.669-4.083 4.986-4.986 5.505-12.58 1.156-16.928zM19.18 19.18c-2.236 2.236-5.089 3.583-8.033 3.793-2.917 0.208-5.575-0.729-7.482-2.637-3.96-3.959-3.44-10.919 1.155-15.515 2.236-2.236 5.089-3.583 8.033-3.793C13.12 1.009 13.384 1 13.646 1c2.604 0 4.956 0.932 6.689 2.665 3.959 3.958 3.439 10.918-1.155 15.515zM18.564 5.438c-1.58-1.58-3.724-1.915-4.882-0.755-0.576 0.576-0.798 1.418-0.626 2.373 0.161 0.888 0.651 1.779 1.381 2.508 0.946 0.946 2.094 1.444 3.111 1.444 0.682 0 1.306-0.224 1.771-0.689 0.576-0.576 0.798-1.418 0.626-2.373-0.161-0.888-0.651-1.779-1.381-2.508zM18.612 9.612c-0.734 0.736-2.323 0.389-3.468-0.755-0.587-0.587-0.979-1.29-1.104-1.979-0.112-0.623 0.012-1.151 0.349-1.488 0.262-0.262 0.633-0.387 1.053-0.387 0.759 0 1.679 0.406 2.415 1.142 0.587 0.587 0.979 1.29 1.104 1.979 0.112 0.623-0.012 1.151-0.349 1.488z" />
</svg>