<svg id="om_Layer_1" viewBox="0 0 24 24" fill="currentColor" width="32" height="32" data-name="Layer 1" xmlns="http://www.w3.org/2000/svg" xmlns:xlink="http://www.w3.org/1999/xlink">
    <title>om</title>
    <path d="M24 14.5c0 4.694-2.542 7.5-5 7.5-2.43 0-4-2.159-4-5.5 0-0.276 0.224-0.5 0.5-0.5s0.5 0.224 0.5 0.5c0 2.176 0.788 4.5 3 4.5 1.966 0 4-2.432 4-6.5 0-3.645-1.757-6.5-4-6.5-1.488 0-2.071 0.994-2.747 2.146-0.516 0.878-1.048 1.785-2.02 2.297-1.066 0.562-2.054 0.573-3.847 0.558h-0.077c1.62 1.076 2.69 2.914 2.69 5 0 3.309-2.691 6-6 6h-1c-3.897 0-6-3.349-6-6.5 0-0.276 0.224-0.5 0.5-0.5s0.5 0.224 0.5 0.5c0 2.733 1.717 5.5 5 5.5h1c2.757 0 5-2.243 5-5s-2.243-5-5-5h-0.5c-0.276 0-0.5-0.224-0.5-0.5s0.224-0.5 0.5-0.5h1c1.93 0 3.5-1.57 3.5-3.5s-1.57-3.5-3.5-3.5c-1.992 0-4.15 1.858-4.171 1.877C3.12 7.059 2.805 7.037 2.622 6.829 2.441 6.621 2.462 6.306 2.67 6.124 2.769 6.038 5.129 4.001 7.499 4.001c2.481 0 4.5 2.019 4.5 4.5 0 1.421-0.675 2.675-1.706 3.5h0.094c1.683 8e-3 2.531 3e-3 3.379-0.442 0.721-0.379 1.159-1.127 1.623-1.918 0.727-1.237 1.55-2.64 3.61-2.64 2.851 0 5 3.225 5.001 7.499zM14 2c0.552 0 1-0.448 1-1s-0.448-1-1-1-1 0.448-1 1 0.448 1 1 1zM14 5c2.127 0 3.711-1.04 3.777-1.084 0.229-0.153 0.291-0.462 0.139-0.692-0.152-0.229-0.463-0.292-0.692-0.141C17.21 3.093 15.815 4 14 4c-1.76 0-3.134-1.341-3.147-1.354-0.195-0.194-0.512-0.192-0.707 2e-3-0.194 0.195-0.194 0.511 0 0.706C10.213 3.421 11.817 5 14 5z" />
</svg>