<svg id="onboarding_Layer_1" viewBox="0 0 24 24" fill="currentColor" width="32" height="32" data-name="Layer 1" xmlns="http://www.w3.org/2000/svg" xmlns:xlink="http://www.w3.org/1999/xlink">
    <title>onboarding</title>
    <path d="M8.5 5C9.879 5 11 3.879 11 2.5S9.879 0 8.5 0 6 1.121 6 2.5 7.121 5 8.5 5zM8.5 1C9.327 1 10 1.673 10 2.5S9.327 4 8.5 4 7 3.327 7 2.5 7.673 1 8.5 1zM4.017 9.372C4.544 7.387 6.388 6 8.5 6s3.956 1.387 4.483 3.372c0.07 0.267-0.088 0.54-0.355 0.611-0.291 0.084-0.552-0.131-0.611-0.355C11.607 8.081 10.161 7 8.5 7S5.394 8.081 4.983 9.628c-0.071 0.268-0.341 0.43-0.611 0.355-0.268-0.071-0.426-0.345-0.355-0.611zM23.181 9.654c-0.497-0.451-1.146-0.683-1.809-0.651-0.67 0.031-1.288 0.321-1.739 0.817l-3.732 4.103C15.587 12.815 14.566 12 13.358 12H3.5C1.57 12 0 13.57 0 15.5v5C0 22.43 1.57 24 3.5 24h5.965c2.706 0 5.291-1.159 7.093-3.18l6.806-7.64c0.911-1.021 0.829-2.604-0.183-3.526zM22.618 12.514l-6.806 7.64C14.2 21.963 11.886 23 9.465 23H3.5C2.121 23 1 21.879 1 20.5v-5C1 14.121 2.121 13 3.5 13h9.857C14.262 13 15 13.737 15 14.643c0 0.812-0.605 1.511-1.398 1.624l-6.161 0.737c-0.274 0.032-0.47 0.281-0.437 0.556 0.032 0.274 0.283 0.477 0.556 0.437l6.172-0.738c1.022-0.146 1.846-0.879 2.146-1.824l4.496-4.939c0.271-0.299 0.643-0.474 1.046-0.492 0.405-0.019 0.789 0.12 1.088 0.392 0.609 0.556 0.658 1.507 0.11 2.118z" />
</svg>