<svg id="onigiri_Layer_1" viewBox="0 0 24 24" fill="currentColor" width="32" height="32" data-name="Layer 1" xmlns="http://www.w3.org/2000/svg" xmlns:xlink="http://www.w3.org/1999/xlink">
    <title>onigiri</title>
    <path d="M23.19 15.637 15.871 3.288C14.997 1.812 13.606 1 11.956 1 10.315 1 8.881 1.834 8.019 3.288L0.7 15.638c-0.889 1.504-0.932 3.324-0.113 4.871C1.412 22.07 2.925 23 4.634 23h14.623c1.67 0 3.468-1.184 4.275-2.813 0.72-1.457 0.607-2.945-0.342-4.55zM16.95 22h-10v-4.5c0-1.379 1.121-2.5 2.5-2.5h5c1.379 0 2.5 1.121 2.5 2.5zM22.636 19.743C21.998 21.029 20.546 22 19.257 22H17.95v-4.5c0-1.93-1.57-3.5-3.5-3.5h-5c-1.93 0-3.5 1.57-3.5 3.5V22H4.634c-1.331 0-2.514-0.732-3.162-1.958-0.655-1.237-0.621-2.693 0.089-3.895L8.878 3.798C9.556 2.655 10.677 2 11.955 2s2.368 0.639 3.056 1.798l7.318 12.349c0.785 1.326 0.879 2.436 0.307 3.596z" />
</svg>