<svg id="onion_Layer_1" viewBox="0 0 24 24" fill="currentColor" width="32" height="32" data-name="Layer 1" xmlns="http://www.w3.org/2000/svg" xmlns:xlink="http://www.w3.org/1999/xlink">
    <title>onion</title>
    <path d="M24 13.046c0-6.523-6.353-9.191-8-9.77V2.5C16 1.121 14.879 0 13.5 0h-3C9.121 0 8 1.121 8 2.5v0.779c-1.599 0.582-8 3.316-8 9.767 0 4.925 4.307 8.462 10.634 8.906l-1.446 1.157c-0.216 0.173-0.25 0.487-0.078 0.703C9.209 23.935 9.354 24 9.501 24c0.109 0 0.22-0.036 0.312-0.109l1.688-1.35V23.5c0 0.276 0.224 0.5 0.5 0.5s0.5-0.224 0.5-0.5v-0.959l1.687 1.35C14.281 23.964 14.39 24 14.501 24c0.146 0 0.292-0.064 0.391-0.188 0.172-0.216 0.138-0.53-0.078-0.703l-1.446-1.157c6.327-0.444 10.634-3.981 10.632-8.906zM9 2.5C9 1.673 9.673 1 10.5 1h3C14.327 1 15 1.673 15 2.5v1.137c0 0.13 0.051 0.256 0.143 0.35C15.181 4.026 19 8.018 19 14.001c0 3.244-2.178 5.253-4.233 6.246 0.93-1.552 1.233-3.789 1.233-5.246 0-7.125-3.498-10.705-3.646-10.854-0.195-0.195-0.512-0.195-0.707 0-0.148 0.148-3.646 3.729-3.646 10.854 0 1.457 0.303 3.694 1.233 5.246-2.055-0.993-4.233-3.002-4.233-6.246 0-5.982 3.819-9.975 3.857-10.014C8.891 3.954 9 3.843 9 3.64zM9 15c0-5.367 2.14-8.634 3.001-9.731C12.864 6.362 15 9.614 15 15c0 2.319-0.814 6-3 6s-3-3.681-3-6zM1 13.046c0-4.578 3.66-7.097 5.915-8.214C5.692 6.608 4 9.822 4 14c0 3.047 1.614 5.122 3.476 6.394C3.514 19.242 1 16.537 1 13.046zM16.524 20.394C18.386 19.122 20 17.046 20 14c0-4.187-1.699-7.404-2.922-9.179C19.331 5.927 23 8.437 23 13.045c0 3.491-2.514 6.197-6.476 7.349z" />
</svg>