<svg id="open_Layer_1" viewBox="0 0 24 24" fill="currentColor" width="32" height="32" data-name="Layer 1" xmlns="http://www.w3.org/2000/svg" xmlns:xlink="http://www.w3.org/1999/xlink">
    <title>open</title>
    <path d="M12 4c1.103 0 2-0.897 2-2s-0.897-2-2-2-2 0.897-2 2 0.897 2 2 2zM12 1c0.551 0 1 0.449 1 1s-0.449 1-1 1-1-0.449-1-1 0.449-1 1-1zM20.254 11.026 15.329 5.178c-0.177-0.211-0.493-0.239-0.705-0.06-0.211 0.178-0.238 0.493-0.06 0.705l4.36 5.178H5.075l4.36-5.178c0.178-0.211 0.151-0.527-0.06-0.705s-0.527-0.15-0.705 0.06l-4.924 5.848C1.661 11.16 0 12.882 0 15v5c0 2.206 1.794 4 4 4h16c2.206 0 4-1.794 4-4v-5c0-2.118-1.66-3.84-3.746-3.974zM23 20c0 1.654-1.346 3-3 3H4c-1.654 0-3-1.346-3-3v-5c0-1.654 1.346-3 3-3h16c1.654 0 3 1.346 3 3zM14 15v2h1.5c0.276 0 0.5 0.224 0.5 0.5S15.776 18 15.5 18H14v2h1.5c0.276 0 0.5 0.224 0.5 0.5S15.776 21 15.5 21H14c-0.551 0-1-0.449-1-1v-5c0-0.551 0.449-1 1-1h1.5c0.276 0 0.5 0.224 0.5 0.5S15.776 15 15.5 15zM9.75 14H9c-0.551 0-1 0.449-1 1v5.5C8 20.776 8.224 21 8.5 21S9 20.776 9 20.5v-2h0.75c1.241 0 2.25-1.009 2.25-2.25S10.991 14 9.75 14zM9.75 17.5H9V15h0.75c0.689 0 1.25 0.561 1.25 1.25s-0.561 1.25-1.25 1.25zM21 14.5v6c0 0.232-0.16 0.434-0.385 0.487-0.221 0.053-0.459-0.054-0.562-0.263L18 16.619v3.882c0 0.276-0.224 0.5-0.5 0.5s-0.5-0.224-0.5-0.5v-6c0-0.232 0.16-0.434 0.385-0.487 0.222-0.053 0.458 0.055 0.562 0.263L20 18.382V14.5c0-0.276 0.224-0.5 0.5-0.5s0.5 0.224 0.5 0.5zM5 14c-1.103 0-2 0.897-2 2v3c0 1.103 0.897 2 2 2s2-0.897 2-2v-3c0-1.103-0.897-2-2-2zM6 19c0 0.551-0.449 1-1 1s-1-0.449-1-1v-3c0-0.551 0.449-1 1-1s1 0.449 1 1z" />
</svg>