<svg id="open_mail_clip_Layer_1" viewBox="0 0 24 24" fill="currentColor" width="32" height="32" data-name="Layer 1" xmlns="http://www.w3.org/2000/svg" xmlns:xlink="http://www.w3.org/1999/xlink">
    <title>open-mail-clip</title>
    <path d="M22.623 9.26 21 7.696V3.5C21 1.57 19.43 0 17.5 0h-11C4.57 0 3 1.57 3 3.5v4.196L1.377 9.26C0.502 10.103 0 11.284 0 12.5v7C0 21.981 2.019 24 4.5 24h15c2.481 0 4.5-2.019 4.5-4.5v-7c0-1.216-0.502-2.396-1.377-3.24zM21.93 9.98c0.093 0.089 0.166 0.194 0.247 0.293L21 11.45V9.084zM4 3.5C4 2.122 5.121 1 6.5 1h11C18.879 1 20 2.122 20 3.5v8.95l-5.525 5.525c-1.322 1.322-3.627 1.322-4.949 0L4.001 12.45zM3 9.084v2.366l-1.177-1.177C1.905 10.175 1.978 10.07 2.07 9.98zM23 19.5c0 1.93-1.57 3.5-3.5 3.5h-15C2.57 23 1 21.43 1 19.5v-7c0-0.469 0.097-0.932 0.277-1.359l7.541 7.541C9.668 19.532 10.797 20 12 20s2.332-0.468 3.182-1.318l7.541-7.541C22.903 11.568 23 12.031 23 12.5zM6 7.5C6 5.57 7.57 4 9.5 4H16c1.103 0 2 0.897 2 2s-0.897 2-2 2H9.5C9.224 8 9 7.776 9 7.5S9.224 7 9.5 7H16c0.552 0 1-0.449 1-1s-0.448-1-1-1H9.5C8.121 5 7 6.122 7 7.5S8.121 10 9.5 10h6c0.276 0 0.5 0.224 0.5 0.5S15.776 11 15.5 11h-6C7.57 11 6 9.43 6 7.5z" />
</svg>