<svg id="open_book_lightbulb_Layer_1" viewBox="0 0 24 24" fill="currentColor" width="32" height="32" data-name="Layer 1" xmlns="http://www.w3.org/2000/svg" xmlns:xlink="http://www.w3.org/1999/xlink">
    <title>open-book-lightbulb</title>
    <path d="M9.28 10.255C9.724 10.507 10 11.022 10 11.597v0.601C10 13.225 10.731 14 11.7 14h0.6c0.938 0 1.7-0.763 1.7-1.7v-0.722c0-0.564 0.271-1.068 0.708-1.315C16.43 9.289 17.5 7.464 17.5 5.501c0-1.666-0.743-3.224-2.038-4.274-1.295-1.052-2.99-1.454-4.655-1.101-2.112 0.446-3.802 2.176-4.205 4.305C6.155 6.79 7.206 9.076 9.28 10.255zM13 12.299c0 0.386-0.314 0.7-0.7 0.7h-0.6c-0.406 0-0.7-0.337-0.7-0.802v-0.601c0-0.206-0.031-0.404-0.075-0.598h2.148C13.032 11.185 13 11.377 13 11.576zM7.584 4.617c0.378-2.076 2.305-3.652 4.405-3.615C14.41 0.948 16.551 3.076 16.5 5.5c0 1.604-0.875 3.095-2.284 3.892-0.27 0.152-0.487 0.372-0.674 0.616-0.014-1e-3-0.027-8e-3-0.041-8e-3h-1V6.429c0.86-0.224 1.5-1 1.5-1.929 0-0.276-0.224-0.5-0.5-0.5s-0.5 0.224-0.5 0.5c0 0.551-0.449 1-1 1s-1-0.449-1-1c0-0.276-0.224-0.5-0.5-0.5s-0.5 0.224-0.5 0.5c0 0.929 0.64 1.705 1.5 1.929V10h-1c-0.016 0-0.03 8e-3-0.047 9e-3-0.189-0.247-0.408-0.469-0.68-0.623-1.697-0.965-2.556-2.837-2.19-4.769zM24 6.567v11.652c0 2.176-1.554 4.039-3.695 4.428l-6.719 1.221c-1.052 0.192-2.119 0.192-3.171 0l-6.719-1.222c-2.141-0.389-3.695-2.251-3.695-4.427V6.567c-0.053-2.416 2.082-4.55 4.491-4.501C4.775 2.093 5.001 2.289 5 2.567 5 2.843 4.776 3.066 4.5 3.066 2.626 3.024 0.959 4.686 1 6.567v11.652c0 1.693 1.208 3.141 2.874 3.444l6.719 1.222c0.301 0.055 0.604 0.085 0.907 0.105v-6.489c0-0.276 0.224-0.5 0.5-0.5s0.5 0.224 0.5 0.5v6.489c0.303-0.019 0.606-0.05 0.907-0.104l6.719-1.222C21.792 21.361 23 19.913 23 18.22V6.567c0.055-1.88-1.657-3.545-3.5-3.501-0.276 0-0.5-0.223-0.5-0.499 0-0.279 0.206-0.52 0.508-0.501 2.409-0.049 4.544 2.085 4.492 4.501z" />
</svg>