<svg id="operation_Layer_1" viewBox="0 0 24 24" fill="currentColor" width="32" height="32" data-name="Layer 1" xmlns="http://www.w3.org/2000/svg" xmlns:xlink="http://www.w3.org/1999/xlink">
    <title>operation</title>
    <path d="M12 10c-1.103 0-2 0.897-2 2s0.897 2 2 2 2-0.897 2-2-0.897-2-2-2zM12 13c-0.551 0-1-0.449-1-1s0.449-1 1-1 1 0.449 1 1-0.449 1-1 1zM18.045 8.471c-0.418-0.715-1.34-0.957-2.052-0.539l-0.641 0.374c-0.537-0.489-1.167-0.852-1.853-1.068V6.5c0-0.827-0.673-1.5-1.5-1.5s-1.5 0.673-1.5 1.5v0.738C9.812 7.454 9.183 7.817 8.646 8.306L8.005 7.932c-0.346-0.203-0.75-0.256-1.138-0.156C6.479 7.878 6.155 8.125 5.953 8.47 5.751 8.816 5.695 9.22 5.797 9.608s0.349 0.712 0.695 0.914l0.646 0.377c-0.094 0.386-0.14 0.749-0.14 1.1s0.046 0.714 0.14 1.101l-0.646 0.377c-0.714 0.417-0.956 1.338-0.539 2.052 0.416 0.714 1.338 0.957 2.051 0.539l0.641-0.374c0.536 0.488 1.166 0.851 1.853 1.068V17.5c0 0.827 0.673 1.5 1.5 1.5s1.5-0.673 1.5-1.5v-0.738c0.687-0.216 1.316-0.58 1.853-1.068l0.641 0.374c0.711 0.417 1.634 0.175 2.052-0.539 0.417-0.714 0.175-1.634-0.54-2.052L16.858 13.1c0.094-0.385 0.14-0.748 0.14-1.101s-0.046-0.715-0.14-1.1l0.646-0.377c0.714-0.417 0.957-1.337 0.541-2.051zM17.233 9.355c-0.034 0.129-0.116 0.237-0.231 0.305l-0.979 0.572c-0.202 0.118-0.295 0.359-0.225 0.582C15.934 11.247 16 11.636 16 12.002c0 0.371-0.064 0.748-0.202 1.188-0.07 0.223 0.023 0.464 0.225 0.581l0.979 0.571c0.238 0.139 0.319 0.446 0.181 0.684-0.14 0.237-0.447 0.319-0.685 0.18l-0.971-0.567c-0.2-0.117-0.457-0.081-0.617 0.089-0.55 0.586-1.249 0.989-2.021 1.165-0.227 0.052-0.389 0.254-0.389 0.487v1.12c0 0.276-0.224 0.5-0.5 0.5s-0.5-0.224-0.5-0.5v-1.12c0-0.233-0.161-0.436-0.389-0.487-0.773-0.176-1.472-0.579-2.021-1.165-0.097-0.104-0.23-0.158-0.365-0.158-0.086 0-0.173 0.022-0.252 0.068l-0.971 0.567c-0.238 0.137-0.545 0.058-0.684-0.18-0.067-0.115-0.086-0.25-0.052-0.379s0.116-0.238 0.231-0.305l0.979-0.571c0.201-0.117 0.295-0.358 0.225-0.581-0.138-0.442-0.202-0.82-0.202-1.189s0.064-0.747 0.202-1.188c0.07-0.223-0.023-0.464-0.225-0.581L6.997 9.659C6.882 9.592 6.799 9.483 6.766 9.354 6.732 9.225 6.75 9.09 6.818 8.975 6.885 8.86 6.994 8.777 7.123 8.744c0.13-0.035 0.264-0.016 0.379 0.052l0.971 0.567C8.674 9.481 8.93 9.445 9.09 9.273c0.549-0.586 1.248-0.988 2.021-1.165 0.228-0.052 0.389-0.254 0.389-0.487V6.5C11.5 6.224 11.724 6 12 6s0.5 0.224 0.5 0.5v1.121c0 0.233 0.162 0.436 0.389 0.488 0.772 0.175 1.471 0.578 2.021 1.164 0.16 0.171 0.417 0.208 0.617 0.09l0.971-0.567c0.115-0.067 0.249-0.087 0.379-0.052 0.129 0.034 0.238 0.116 0.305 0.231s0.085 0.25 0.051 0.38zM23.978 12.522c-0.275 6.437-5.542 11.479-11.989 11.479-3.482 0-6.705-1.484-8.985-4.074-2e-3 0.026-0.015 0.048-0.015 0.074v3.5c0 0.276-0.224 0.5-0.5 0.5s-0.5-0.224-0.5-0.5v-3.5c0-1.103 0.897-2 2-2h3.5c0.276 0 0.5 0.224 0.5 0.5s-0.224 0.5-0.5 0.5h-3.5c-0.14 0-0.273 0.03-0.394 0.082 2.097 2.488 5.121 3.918 8.394 3.918 5.91 0 10.737-4.622 10.99-10.521 0.012-0.276 0.253-0.485 0.521-0.478 0.276 0.012 0.49 0.245 0.478 0.52zM0.999 11.521C0.988 11.79 0.766 12 0.5 12c-7e-3 0-0.015 0-0.022 0-0.276-0.012-0.49-0.245-0.478-0.521C0.276 5.042 5.542 0 11.989 0c3.482 0 6.705 1.484 8.985 4.074 2e-3-0.026 0.015-0.048 0.015-0.074V0.5c0-0.276 0.224-0.5 0.5-0.5s0.5 0.224 0.5 0.5V4c0 1.103-0.897 2-2 2h-3.5c-0.276 0-0.5-0.224-0.5-0.5s0.224-0.5 0.5-0.5h3.5c0.14 0 0.273-0.03 0.395-0.083C18.286 2.429 15.262 1 11.989 1 6.079 1 1.252 5.622 0.999 11.521z" />
</svg>