<svg id="optimization_Layer_1" viewBox="0 0 24 24" fill="currentColor" width="32" height="32" data-name="Layer 1" xmlns="http://www.w3.org/2000/svg" xmlns:xlink="http://www.w3.org/1999/xlink">
    <title>optimization</title>
    <path d="M1.75 16c0.101 0.257-0.026 0.547-0.284 0.647-0.251 0.099-0.547-0.024-0.647-0.284C0.276 14.974 1e-3 13.507 1e-3 12 0 5.383 5.383 0 12 0c2.992 0 5.797 1.091 8 3.072V0.5C20 0.224 20.224 0 20.5 0S21 0.224 21 0.5v3C21 4.327 20.327 5 19.5 5h-3C16.224 5 16 4.776 16 4.5S16.224 4 16.5 4h3c9e-3 0 0.016-5e-3 0.025-5e-3C17.479 2.068 14.831 1 12 1 5.935 1 1 5.935 1 12c0 1.382 0.252 2.728 0.75 4zM23.182 7.637c-0.101-0.258-0.391-0.385-0.647-0.284C22.277 7.454 22.15 7.744 22.251 8c0.498 1.272 0.75 2.618 0.75 4 0 6.065-4.935 11-11 11-2.831 0-5.479-1.067-7.525-2.995 9e-3 0 0.016-5e-3 0.025-5e-3h3c0.276 0 0.5-0.224 0.5-0.5S7.777 19 7.501 19h-3c-0.827 0-1.5 0.673-1.5 1.5v3c0 0.276 0.224 0.5 0.5 0.5s0.5-0.224 0.5-0.5v-2.572c2.202 1.981 5.007 3.072 8 3.072 6.617 0 12-5.383 12-12 0-1.507-0.275-2.975-0.819-4.363zM10.5 18.5v-0.694c-1.093-0.281-2.086-0.866-2.86-1.685l-0.605 0.333c-0.725 0.401-1.639 0.135-2.038-0.587-0.399-0.726-0.135-1.641 0.589-2.039l0.606-0.335C6.065 13.002 6.001 12.502 6.001 12s0.064-1.002 0.191-1.493l-0.606-0.335c-0.724-0.4-0.987-1.314-0.59-2.038 0.401-0.724 1.317-0.989 2.039-0.588L7.64 7.879c0.774-0.818 1.768-1.403 2.86-1.685V5.5C10.5 4.673 11.173 4 12 4s1.5 0.673 1.5 1.5v0.694c1.093 0.281 2.086 0.866 2.86 1.685l0.605-0.333c0.723-0.403 1.638-0.136 2.038 0.587 0.398 0.725 0.135 1.639-0.588 2.039l-0.607 0.335c0.127 0.491 0.191 0.992 0.191 1.493s-0.064 1.002-0.191 1.493l0.607 0.335c0.724 0.399 0.987 1.313 0.589 2.038-0.402 0.725-1.316 0.989-2.039 0.588l-0.605-0.333c-0.774 0.818-1.768 1.403-2.86 1.685V18.5c0 0.827-0.673 1.5-1.5 1.5s-1.5-0.673-1.5-1.5zM11.091 16.912c0.237 0.044 0.409 0.251 0.409 0.492V18.5c0 0.275 0.225 0.5 0.5 0.5s0.5-0.225 0.5-0.5v-1.096c0-0.241 0.172-0.448 0.409-0.492 1.159-0.213 2.209-0.831 2.955-1.74 0.152-0.187 0.415-0.236 0.628-0.12l0.956 0.527c0.245 0.134 0.549 0.045 0.681-0.196 0.133-0.241 0.045-0.546-0.196-0.68l-0.958-0.529c-0.211-0.116-0.309-0.367-0.232-0.596 0.172-0.516 0.259-1.047 0.259-1.578s-0.087-1.062-0.259-1.58c-0.076-0.229 0.022-0.479 0.233-0.595l0.958-0.528c0.24-0.134 0.329-0.439 0.195-0.681-0.132-0.239-0.435-0.328-0.68-0.195l-0.956 0.527c-0.211 0.117-0.475 0.066-0.628-0.12-0.746-0.909-1.796-1.527-2.955-1.74-0.237-0.044-0.409-0.251-0.409-0.492V5.5c0-0.275-0.225-0.5-0.5-0.5s-0.5 0.225-0.5 0.5v1.096c0 0.241-0.172 0.448-0.409 0.492-1.159 0.213-2.209 0.831-2.955 1.74-0.153 0.186-0.417 0.235-0.628 0.12L6.553 8.421C6.308 8.288 6.005 8.376 5.872 8.617c-0.133 0.24-0.044 0.546 0.197 0.68l0.957 0.528c0.211 0.116 0.31 0.366 0.233 0.595C7.087 10.938 7 11.469 7 12s0.087 1.062 0.259 1.578c0.076 0.229-0.021 0.479-0.232 0.596l-0.958 0.529c-0.242 0.134-0.33 0.438-0.197 0.68 0.135 0.241 0.438 0.328 0.681 0.196l0.956-0.527c0.209-0.116 0.474-0.067 0.628 0.12 0.746 0.909 1.796 1.527 2.954 1.74zM12 15c0.276 0 0.5-0.224 0.5-0.5v-5C12.5 9.224 12.276 9 12 9s-0.5 0.224-0.5 0.5v5c0 0.276 0.224 0.5 0.5 0.5zM14 15c0.276 0 0.5-0.224 0.5-0.5v-3c0-0.276-0.224-0.5-0.5-0.5s-0.5 0.224-0.5 0.5v3c0 0.276 0.224 0.5 0.5 0.5zM10 12c-0.276 0-0.5 0.224-0.5 0.5v2c0 0.276 0.224 0.5 0.5 0.5s0.5-0.224 0.5-0.5v-2c0-0.276-0.224-0.5-0.5-0.5z" />
</svg>