<svg id="order_food_mobile_Layer_1" viewBox="0 0 24 24" fill="currentColor" width="32" height="32" data-name="Layer 1" xmlns="http://www.w3.org/2000/svg" xmlns:xlink="http://www.w3.org/1999/xlink">
    <title>order-food-mobile</title>
    <path d="M15.5 17H1V4.5C1 2.57 2.57 1 4.5 1h7c0.615 0 1.22 0.162 1.75 0.468 0.239 0.138 0.545 0.056 0.683-0.182 0.139-0.239 0.057-0.545-0.182-0.683C13.069 0.209 12.292 0 11.501 0H4.5C2.019 0 0 2.019 0 4.5v15C0 21.981 2.019 24 4.5 24h7c2.481 0 4.5-2.019 4.5-4.5v-2c0-0.276-0.224-0.5-0.5-0.5zM15 19.5c0 1.93-1.57 3.5-3.5 3.5h-7C2.57 23 1 21.43 1 19.5V18h14zM6 20.5C6 20.224 6.224 20 6.5 20h3c0.276 0 0.5 0.224 0.5 0.5S9.776 21 9.5 21h-3C6.224 21 6 20.776 6 20.5zM21 3h-6c-0.798 0-1.551 0.313-2.119 0.881S12 5.202 12 6.001l2e-3 7.411c0 0.589 0.309 1.109 0.825 1.392s1.12 0.262 1.618-0.057L17.147 13H21c1.654 0 3-1.345 3-3V6c0-1.654-1.346-3-3-3zM23 10c0 1.103-0.897 2-2 2h-4c-0.096 0-0.19 0.027-0.271 0.08l-2.824 1.826c-0.183 0.117-0.408 0.125-0.597 0.02-0.191-0.104-0.305-0.297-0.305-0.514l-2e-3-7.411c0-0.532 0.209-1.034 0.588-1.413S14.469 4 15.001 4h6c1.103 0 2 0.897 2 2zM19.5 5h-3C15.122 5 14 6.122 14 7.5v1c0 1.378 1.122 2.5 2.5 2.5h3c1.378 0 2.5-1.122 2.5-2.5v-1C22 6.122 20.878 5 19.5 5zM16.5 6h3C20.327 6 21 6.673 21 7.5h-6C15 6.673 15.673 6 16.5 6zM19.5 10h-3C15.673 10 15 9.327 15 8.5h1.237l1.242 0.843c0.315 0.21 0.726 0.21 1.041 0L19.762 8.5h1.237c0 0.827-0.673 1.5-1.499 1.5z" />
</svg>