<svg id="order_food_online_Layer_1" viewBox="0 0 24 24" fill="currentColor" width="32" height="32" data-name="Layer 1" xmlns="http://www.w3.org/2000/svg" xmlns:xlink="http://www.w3.org/1999/xlink">
    <title>order-food-online</title>
    <path d="M8 10c-0.276 0-0.5 0.224-0.5 0.5v0.551C5.532 11.3 4 12.966 4 15H3.5C3.224 15 3 15.224 3 15.5S3.224 16 3.5 16h9c0.276 0 0.5-0.224 0.5-0.5S12.776 15 12.5 15H12c0-2.034-1.532-3.7-3.5-3.949V10.5C8.5 10.224 8.276 10 8 10zM11 15H5c0-1.654 1.346-3 3-3s3 1.346 3 3zM24 20.472V23.5c0 0.276-0.224 0.5-0.5 0.5S23 23.776 23 23.5v-3.028c0-1.334-0.741-2.534-1.935-3.13l-1.789-0.895C19.107 16.362 19 16.189 19 16v-4c0-0.551-0.448-1-1-1s-1 0.449-1 1v6.513c0 0.483-0.222 0.682-0.408 0.763-0.444 0.196-0.849-0.176-1.091-0.397-0.225-0.204-0.532-0.497-0.532-0.497-0.413-0.414-1.074-0.499-1.497-0.193-0.561 0.38-0.63 1.233-0.146 1.698l3.211 3.275c0.193 0.197 0.189 0.514-8e-3 0.707-0.197 0.194-0.513 0.19-0.707-7e-3l-3.207-3.272c-0.915-0.874-0.778-2.497 0.272-3.213 0.809-0.584 2.047-0.447 2.78 0.29 0 0 0.169 0.16 0.329 0.309l3e-3-5.977c0-1.103 0.897-2 2-2s2 0.897 2 2v3.691l1.513 0.756c1.534 0.767 2.487 2.31 2.488 4.026zM19.5 0h-15C2.019 0 0 2.019 0 4.5v13C0 19.981 2.019 22 4.5 22h5c0.276 0 0.5-0.224 0.5-0.5S9.776 21 9.5 21h-5C2.57 21 1 19.43 1 17.5V8h22v6.5c0 0.276 0.224 0.5 0.5 0.5s0.5-0.224 0.5-0.5v-10C24 2.019 21.981 0 19.5 0zM1 7V4.5C1 2.57 2.57 1 4.5 1h15C21.43 1 23 2.57 23 4.5V7zM5 4c0 0.552-0.448 1-1 1S3 4.552 3 4 3.448 3 4 3 5 3.448 5 4zM8 4c0 0.552-0.448 1-1 1S6 4.552 6 4 6.448 3 7 3 8 3.448 8 4zM11 4c0 0.552-0.448 1-1 1S9 4.552 9 4s0.448-1 1-1 1 0.448 1 1z" />
</svg>