<svg id="order_history_Layer_1" viewBox="0 0 24 24" fill="currentColor" width="32" height="32" data-name="Layer 1" xmlns="http://www.w3.org/2000/svg" xmlns:xlink="http://www.w3.org/1999/xlink">
    <title>order-history</title>
    <path d="M18.5 11c3.033 0 5.5-2.468 5.5-5.5S21.533 0 18.5 0 13 2.468 13 5.5 15.467 11 18.5 11zM18.5 1C20.981 1 23 3.019 23 5.5S20.981 10 18.5 10 14 7.981 14 5.5 16.019 1 18.5 1zM18.146 5.854C18.052 5.76 18 5.633 18 5.5V3c0-0.276 0.224-0.5 0.5-0.5S19 2.724 19 3v2.293l1.354 1.354c0.195 0.195 0.195 0.512 0 0.707C20.256 7.452 20.128 7.5 20 7.5s-0.256-0.049-0.354-0.146zM17 20c-1.103 0-2 0.897-2 2s0.897 2 2 2 2-0.897 2-2-0.897-2-2-2zM17 23c-0.551 0-1-0.448-1-1s0.449-1 1-1 1 0.448 1 1-0.449 1-1 1zM7 20c-1.103 0-2 0.897-2 2s0.897 2 2 2 2-0.897 2-2-0.897-2-2-2zM7 23c-0.551 0-1-0.448-1-1s0.449-1 1-1 1 0.448 1 1-0.449 1-1 1zM22.565 12.736C21.765 14.132 20.268 15 18.659 15H6.02c0.247 1.711 1.732 3 3.462 3h10.017c0.276 0 0.5 0.224 0.5 0.5s-0.224 0.5-0.5 0.5H9.483c-2.234 0-4.15-1.669-4.457-3.882L3.245 2.293C3.142 1.556 2.503 1 1.759 1H0.5C0.224 1 0 0.776 0 0.5S0.224 0 0.5 0h1.259c1.24 0 2.305 0.927 2.476 2.155L4.491 4H10.5C10.776 4 11 4.224 11 4.5S10.776 5 10.5 5H4.63l1.25 9h12.78c1.251 0 2.416-0.675 3.039-1.762 0.136-0.24 0.442-0.321 0.682-0.185s0.323 0.442 0.184 0.683z" />
</svg>