<svg id="order_food_telephone_Layer_1" viewBox="0 0 24 24" fill="currentColor" width="32" height="32" data-name="Layer 1" xmlns="http://www.w3.org/2000/svg" xmlns:xlink="http://www.w3.org/1999/xlink">
    <title>order-food-telephone</title>
    <path d="M21 0h-6c-1.654 0-3 1.346-3 3l2e-3 7.411c0 0.589 0.309 1.109 0.825 1.392 0.517 0.283 1.12 0.262 1.618-0.057l2.702-1.747H21c1.654 0 3-1.345 3-3V3c0-1.654-1.346-3-3-3zM23 7c0 1.103-0.897 2-2 2h-4c-0.097 0-0.19 0.027-0.271 0.08l-2.824 1.826c-0.184 0.116-0.407 0.125-0.597 0.02-0.191-0.104-0.306-0.297-0.306-0.514L13 3.001C13 1.897 13.897 1 15 1h6c1.103 0 2 0.897 2 2zM19.5 2h-3C15.121 2 14 3.122 14 4.5v1C14 6.878 15.121 8 16.5 8h3C20.879 8 22 6.878 22 5.5v-1C22 3.122 20.879 2 19.5 2zM16.5 3h3C20.327 3 21 3.673 21 4.5h-6C15 3.673 15.673 3 16.5 3zM19.5 7h-3C15.673 7 15 6.327 15 5.5h1.237l1.242 0.842c0.315 0.21 0.726 0.21 1.041 0L19.762 5.5h1.237c0 0.827-0.673 1.5-1.499 1.5zM20.693 15.424c-1.016-1.016-2.786-1.018-3.802-2e-3l-1.532 1.494c-3.681-1.499-6.679-4.5-8.295-8.303l1.488-1.525c1.049-1.049 1.049-2.756 0.043-3.756L6.636 0.788C5.618-0.23 3.822-0.205 2.856 0.765L1.681 1.789C0.582 2.887-0.024 4.374-0.024 5.976-0.024 13.725 10.251 24 18 24c1.604 0 3.091-0.605 4.21-1.729l0.979-1.125c0.508-0.508 0.788-1.184 0.788-1.902s-0.28-1.394-0.837-1.945zM22.458 20.463l-0.979 1.125c-0.907 0.91-2.143 1.411-3.479 1.411C10.84 23 0.976 13.136 0.976 5.976c0-1.335 0.501-2.571 1.387-3.456l1.175-1.025c0.336-0.336 0.779-0.5 1.215-0.5 0.419 0 0.831 0.152 1.133 0.452L7.845 3.99c0.659 0.659 0.659 1.732-4e-3 2.396L6.119 8.152c-0.138 0.142-0.18 0.352-0.106 0.536 1.729 4.306 5.114 7.688 9.286 9.281 0.185 0.07 0.388 0.026 0.528-0.109l1.765-1.722c0 0 4e-3-3e-3 5e-3-4e-3 0.639-0.639 1.703-0.682 2.439 0.043l2.446 1.874c0.659 0.659 0.659 1.731-0.024 2.412z" />
</svg>