<svg id="organization_chart_Layer_1" viewBox="0 0 24 24" fill="currentColor" width="32" height="32" data-name="Layer 1" xmlns="http://www.w3.org/2000/svg" xmlns:xlink="http://www.w3.org/1999/xlink">
    <title>organization-chart</title>
    <path d="M3.5 20c1.103 0 2-0.897 2-2s-0.897-2-2-2-2 0.897-2 2 0.897 2 2 2zM3.5 17c0.551 0 1 0.448 1 1s-0.449 1-1 1-1-0.448-1-1 0.449-1 1-1zM10 18c0 1.103 0.897 2 2 2s2-0.897 2-2-0.897-2-2-2-2 0.897-2 2zM13 18c0 0.552-0.449 1-1 1s-1-0.448-1-1 0.449-1 1-1 1 0.448 1 1zM12 4c1.103 0 2-0.897 2-2s-0.897-2-2-2-2 0.897-2 2 0.897 2 2 2zM12 1c0.551 0 1 0.448 1 1s-0.449 1-1 1-1-0.448-1-1 0.449-1 1-1zM18.5 18c0 1.103 0.897 2 2 2s2-0.897 2-2-0.897-2-2-2-2 0.897-2 2zM21.5 18c0 0.552-0.449 1-1 1s-1-0.448-1-1 0.449-1 1-1 1 0.448 1 1zM3 13.5V13c0-1.654 1.346-3 3-3h12c1.654 0 3 1.346 3 3v0.5c0 0.276-0.224 0.5-0.5 0.5S20 13.776 20 13.5V13c0-1.103-0.897-2-2-2h-5.5v2.5c0 0.276-0.224 0.5-0.5 0.5s-0.5-0.224-0.5-0.5V11H6c-1.103 0-2 0.897-2 2v0.5C4 13.776 3.776 14 3.5 14S3 13.776 3 13.5zM23.677 23.968C23.618 23.989 23.559 24 23.5 24c-0.202 0-0.392-0.123-0.468-0.323C22.652 22.674 21.635 22 20.5 22s-2.152 0.674-2.532 1.677c-0.098 0.259-0.386 0.387-0.645 0.291-0.258-0.098-0.388-0.387-0.291-0.645C17.559 21.933 18.952 21 20.5 21s2.941 0.934 3.468 2.323c0.098 0.258-0.032 0.547-0.291 0.645zM6.968 23.323c0.098 0.258-0.032 0.547-0.291 0.645C6.618 23.989 6.559 24 6.5 24c-0.202 0-0.392-0.123-0.468-0.323C5.652 22.674 4.635 22 3.5 22s-2.152 0.674-2.532 1.677c-0.098 0.259-0.386 0.387-0.645 0.291-0.258-0.098-0.388-0.387-0.291-0.645C0.559 21.933 1.952 21 3.5 21s2.941 0.934 3.468 2.323zM15.468 23.323c0.098 0.258-0.032 0.547-0.291 0.645C15.118 23.989 15.059 24 15 24c-0.202 0-0.392-0.123-0.468-0.323C14.152 22.674 13.135 22 12 22s-2.152 0.674-2.532 1.677c-0.099 0.259-0.387 0.387-0.645 0.291-0.258-0.098-0.388-0.387-0.291-0.645C9.059 21.933 10.452 21 12 21s2.941 0.934 3.468 2.323zM8.532 7.323C9.059 5.933 10.452 5 12 5s2.941 0.934 3.468 2.323c0.098 0.258-0.032 0.547-0.291 0.645C15.118 7.989 15.059 8 15 8c-0.202 0-0.392-0.123-0.468-0.323C14.152 6.674 13.135 6 12 6S9.848 6.674 9.468 7.677C9.369 7.936 9.081 8.064 8.823 7.968 8.565 7.87 8.435 7.581 8.532 7.323z" />
</svg>