<svg id="ornament_Layer_1" viewBox="0 0 24 24" fill="currentColor" width="32" height="32" data-name="Layer 1" xmlns="http://www.w3.org/2000/svg" xmlns:xlink="http://www.w3.org/1999/xlink">
    <title>ornament</title>
    <path d="M16 5.159V4c0-1.103-0.897-2-2-2h-0.588c0.055-0.156 0.086-0.325 0.086-0.5 0-0.828-0.672-1.5-1.5-1.5s-1.5 0.672-1.5 1.5c0 0.175 0.03 0.344 0.086 0.5h-0.583c-1.103 0-2 0.897-2 2v1.159c-3.764 1.544-6 4.824-6 8.841 0 5.514 4.486 10 10 10s10-4.486 10-10c0-4.016-2.236-7.297-6.001-8.841zM10 3h4c0.551 0 1 0.449 1 1v1.029L9 5.002V4c0-0.551 0.449-1 1-1zM8.592 6h6.816C18.963 7.366 21 10.277 21 14c0 0.483-0.039 0.957-0.112 1.419l-2.792-2.792c-0.834-0.836-2.193-0.833-3.006-0.02l-2.304 2.059c-0.211 0.211-0.493 0.33-0.792 0.333-0.306 0-0.606-0.117-0.847-0.359l-2.208-1.999C8.537 12.233 8 12.007 7.426 12.003H7.414c-0.569 0-1.104 0.22-1.507 0.622L3.11 15.404C3.038 14.946 3 14.477 3 13.999 3 10.276 5.037 7.365 8.592 6zM12 23c-4.075 0-7.526-2.723-8.63-6.444l3.242-3.22c0.215-0.214 0.5-0.331 0.802-0.331h6e-3c0.306 2e-3 0.592 0.123 0.827 0.359l2.208 1.999c0.412 0.418 0.972 0.629 1.55 0.638 0.562-7e-3 1.089-0.229 1.466-0.607l2.304-2.059c0.444-0.444 1.168-0.444 1.612 0l3.237 3.237C19.515 20.286 16.068 23.001 12 23z" />
</svg>