<svg id="otter_Layer_1" viewBox="0 0 24 24" fill="currentColor" width="32" height="32" data-name="Layer 1" xmlns="http://www.w3.org/2000/svg" xmlns:xlink="http://www.w3.org/1999/xlink">
    <title>otter</title>
    <path d="M21.87 4.164c-0.183-0.203-0.496-0.218-0.702-0.036-0.205 0.183-0.223 0.499-0.041 0.705 0.013 0.015 0.969 1.147 1.509 3.985C22.495 10.925 20.981 13 18.5 13h-3.958c-0.372-1.11-0.961-1.953-1.73-2.454C14.105 9.882 15 8.55 15 7V6.333c0-1.261-0.374-2.434-1.012-3.422C14.575 2.708 15 2.156 15 1.499c0-0.828-0.672-1.5-1.5-1.5-0.656 0-1.209 0.425-1.412 1.012C11.1 0.374 9.927-1e-3 8.667-1e-3H6.333c-1.261 0-2.433 0.374-3.421 1.012C2.709 0.424 2.157-1e-3 1.5-1e-3 0.672 0 0 0.672 0 1.5 0 2.157 0.424 2.709 1.012 2.912 0.375 3.9 0 5.073 0 6.334v0.667c0 1.005 0.385 1.914 1 2.618v5.882c0 4.687 3.813 8.5 8.5 8.5h6.006c0.672 0 1.304-0.262 1.778-0.739 0.467-0.469 0.723-1.089 0.721-1.746-3e-3-0.934 0.293-1.528 0.579-2.103 0.139-0.278 0.27-0.541 0.36-0.829 0.158-0.505-0.022-1.035-0.462-1.35-0.437-0.313-0.991-0.313-1.414-5e-3l-0.171 0.121c-0.542 0.383-1.362 0.961-1.766 2.196-0.071 0.219-0.241 0.453-0.502 0.453h-2.13c-0.276 0-0.5 0.224-0.5 0.5s0.224 0.5 0.5 0.5h2.13c0.655 0 1.226-0.448 1.453-1.142 0.3-0.92 0.88-1.329 1.392-1.69l0.183-0.13c0.1-0.073 0.194-0.025 0.242 9e-3 0.041 0.029 0.131 0.11 0.091 0.237-0.071 0.226-0.184 0.446-0.302 0.683-0.306 0.616-0.688 1.381-0.684 2.552 0 0.389-0.151 0.757-0.43 1.037-0.285 0.287-0.665 0.444-1.069 0.444H9.499c-3.92 0-7.142-3.024-7.468-6.862 1.177 1.789 3.289 2.862 5.968 2.862 0.276 0 0.5-0.224 0.5-0.5s-0.224-0.5-0.5-0.5c-3.645 0-6-2.159-6-5.5v-2.056c0.591 0.344 1.268 0.556 2 0.556 1.504 0 2.817-0.834 3.5-2.065 0.683 1.23 1.996 2.065 3.5 2.065 2.214 0 3 2.693 3 5 0 0.276 0.224 0.5 0.5 0.5s0.5-0.224 0.5-0.5c0-0.726-0.079-1.385-0.198-2h3.698c2.072 0 3.606-1.151 4.443-2.688 0.034 0.528 0.057 1.084 0.057 1.688v0.5c0 2.573-1.012 4.982-2.849 6.784-0.197 0.193-0.201 0.51-8e-3 0.707 0.099 0.1 0.228 0.15 0.357 0.15 0.126 0 0.253-0.047 0.351-0.143 2.03-1.992 3.148-4.654 3.148-7.498v-0.5c0-6.59-2.07-8.77-2.128-8.835zM8.173 7.965C8.639 7.88 9 7.491 9 7 9 6.448 8.552 6 8 6H7C6.448 6 6 6.448 6 7 6 7.491 6.36 7.88 6.827 7.965 6.423 9.144 5.315 10 4 10 2.346 10 1 8.654 1 7V6.333C1 3.393 3.393 1 6.333 1h2.334C11.607 1 14 3.393 14 6.333V7c0 1.654-1.346 3-3 3-1.315 0-2.422-0.856-2.827-2.035zM5 6c0 0.552-0.448 1-1 1S3 6.552 3 6 3.448 5 4 5 5 5.448 5 6zM11 7c-0.552 0-1-0.448-1-1s0.448-1 1-1 1 0.448 1 1-0.448 1-1 1z" />
</svg>