<svg id="outdent_Layer_1" viewBox="0 0 24 24" fill="currentColor" width="32" height="32" data-name="Layer 1" xmlns="http://www.w3.org/2000/svg" xmlns:xlink="http://www.w3.org/1999/xlink">
    <title>outdent</title>
    <path d="M0 4.5C0 4.224 0.224 4 0.5 4h23C23.776 4 24 4.224 24 4.5S23.776 5 23.5 5h-23C0.224 5 0 4.776 0 4.5zM23.5 19h-23C0.224 19 0 19.224 0 19.5S0.224 20 0.5 20h23c0.276 0 0.5-0.224 0.5-0.5S23.776 19 23.5 19zM23.5 9h-14C9.224 9 9 9.224 9 9.5S9.224 10 9.5 10h14c0.276 0 0.5-0.224 0.5-0.5S23.776 9 23.5 9zM23.5 14h-14C9.224 14 9 14.224 9 14.5S9.224 15 9.5 15h14c0.276 0 0.5-0.224 0.5-0.5S23.776 14 23.5 14zM0.468 13.619C0.166 13.32 0 12.923 0 12.5s0.166-0.82 0.467-1.119l2.974-2.944c0.44-0.436 1.068-0.558 1.639-0.318 0.567 0.236 0.919 0.763 0.919 1.374v6.016c0 0.611-0.353 1.138-0.919 1.374-0.193 0.081-0.394 0.12-0.59 0.12-0.385 0-0.758-0.15-1.049-0.438zM1 12.5c0 0.154 0.061 0.299 0.171 0.408l2.974 2.944c0.221 0.22 0.477 0.138 0.551 0.106C4.767 15.928 5 15.808 5 15.507V9.491C5 9.19 4.767 9.07 4.696 9.04 4.661 9.025 4.585 8.999 4.49 8.999c-0.104 0-0.229 0.032-0.345 0.147L1.171 12.09C1.061 12.199 1 12.344 1 12.5z" />
</svg>