<svg id="oven_Layer_1" viewBox="0 0 24 24" fill="currentColor" width="32" height="32" data-name="Layer 1" xmlns="http://www.w3.org/2000/svg" xmlns:xlink="http://www.w3.org/1999/xlink">
    <title>oven</title>
    <path d="M17.5 0h-11C4.019 0 2 2.019 2 4.5v15C2 21.981 4.019 24 6.5 24h11c2.481 0 4.5-2.019 4.5-4.5v-15C22 2.019 19.981 0 17.5 0zM6.5 1h11C19.43 1 21 2.57 21 4.5V7H3V4.5C3 2.57 4.57 1 6.5 1zM17.5 23h-11C4.57 23 3 21.43 3 19.5V8h18v11.5c0 1.93-1.57 3.5-3.5 3.5zM17.5 10h-11C5.673 10 5 10.673 5 11.5v8C5 20.327 5.673 21 6.5 21h11c0.827 0 1.5-0.673 1.5-1.5v-8c0-0.827-0.673-1.5-1.5-1.5zM18 19.5c0 0.275-0.225 0.5-0.5 0.5h-11C6.224 20 6 19.775 6 19.5v-8C6 11.224 6.224 11 6.5 11h11c0.275 0 0.5 0.224 0.5 0.5zM9 4c0-0.552 0.448-1 1-1s1 0.448 1 1-0.448 1-1 1-1-0.448-1-1zM13 4c0-0.552 0.448-1 1-1s1 0.448 1 1-0.448 1-1 1-1-0.448-1-1zM17 4c0-0.552 0.448-1 1-1s1 0.448 1 1-0.448 1-1 1-1-0.448-1-1zM5 4c0-0.552 0.448-1 1-1s1 0.448 1 1-0.448 1-1 1-1-0.448-1-1z" />
</svg>