<svg id="overline_Layer_1" viewBox="0 0 24 24" fill="currentColor" width="32" height="32" data-name="Layer 1" xmlns="http://www.w3.org/2000/svg" xmlns:xlink="http://www.w3.org/1999/xlink">
    <title>overline</title>
    <path d="M12 24c-4.411 0-8-3.589-8-8v-5c0-4.411 3.589-8 8-8s8 3.589 8 8v5c0 4.411-3.589 8-8 8zM12 4c-3.86 0-7 3.141-7 7v5c0 3.859 3.14 7 7 7s7-3.141 7-7v-5c0-3.859-3.141-7-7-7zM22 0.5C22 0.224 21.776 0 21.5 0h-19C2.224 0 2 0.224 2 0.5S2.224 1 2.5 1h19C21.776 1 22 0.776 22 0.5z" />
</svg>