<svg id="overview_Layer_1" viewBox="0 0 24 24" fill="currentColor" width="32" height="32" data-name="Layer 1" xmlns="http://www.w3.org/2000/svg" xmlns:xlink="http://www.w3.org/1999/xlink">
    <title>overview</title>
    <path d="M17 15c-3.704 0-5.798 2.252-6.716 3.595-0.376 0.55-0.376 1.261 0 1.811 0.918 1.343 3.012 3.595 6.716 3.595s5.798-2.252 6.716-3.595c0.376-0.55 0.376-1.261 0-1.811C22.798 17.252 20.704 15 17 15zM22.891 19.841C22.084 21.021 20.245 23 17 23s-5.084-1.979-5.891-3.159c-0.146-0.214-0.146-0.468 0-0.682C11.917 17.979 13.755 16 17 16s5.084 1.979 5.891 3.159c0.146 0.214 0.146 0.468 0 0.682zM17 17.5c-1.103 0-2 0.897-2 2s0.897 2 2 2 2-0.897 2-2-0.897-2-2-2zM17 20.5c-0.551 0-1-0.448-1-1s0.449-1 1-1 1 0.448 1 1-0.449 1-1 1zM6 5.5c0 0.552-0.448 1-1 1s-1-0.448-1-1 0.448-1 1-1 1 0.448 1 1zM6 16.5c0 0.552-0.448 1-1 1s-1-0.448-1-1 0.448-1 1-1 1 0.448 1 1zM6 11c0 0.552-0.448 1-1 1s-1-0.448-1-1 0.448-1 1-1 1 0.448 1 1zM9 5.5C9 5.224 9.224 5 9.5 5h10C19.776 5 20 5.224 20 5.5S19.776 6 19.5 6h-10C9.224 6 9 5.776 9 5.5zM19.5 11.5h-10C9.224 11.5 9 11.276 9 11s0.224-0.5 0.5-0.5h10c0.276 0 0.5 0.224 0.5 0.5s-0.224 0.5-0.5 0.5zM24 4.5v10c0 0.276-0.224 0.5-0.5 0.5S23 14.776 23 14.5v-10C23 2.57 21.43 1 19.5 1h-15C2.57 1 1 2.57 1 4.5v13C1 19.43 2.57 21 4.5 21H8c0.276 0 0.5 0.224 0.5 0.5S8.276 22 8 22H4.5C2.019 22 0 19.981 0 17.5v-13C0 2.019 2.019 0 4.5 0h15C21.981 0 24 2.019 24 4.5z" />
</svg>