<svg id="pacifier_Layer_1" viewBox="0 0 24 24" fill="currentColor" width="32" height="32" data-name="Layer 1" xmlns="http://www.w3.org/2000/svg" xmlns:xlink="http://www.w3.org/1999/xlink">
    <title>pacifier</title>
    <path d="M23.5 20c-3.916 0-7.74-1.46-10.957-3.821 1.582-1.501 3.493-2.329 5.345-3.125 1.649-0.707 3.206-1.375 4.295-2.464 2.418-2.419 2.418-6.354 0-8.773-2.419-2.419-6.354-2.418-8.773 0-1.089 1.089-1.757 2.646-2.465 4.295-0.795 1.853-1.623 3.763-3.124 5.345C5.46 8.24 4 4.416 4 0.5 4 0.224 3.776 0 3.5 0S3 0.224 3 0.5c0 3.366 1.02 6.672 2.747 9.615C2.472 10.711 0 13.606 0 17c0 3.859 3.14 7 7 7 3.395 0 6.289-2.473 6.885-5.747C16.828 19.98 20.133 21 23.5 21c0.276 0 0.5-0.224 0.5-0.5S23.776 20 23.5 20zM11.864 6.506c0.668-1.558 1.3-3.029 2.253-3.982 2.029-2.028 5.33-2.028 7.359 0 2.028 2.029 2.028 5.331 0 7.359-0.953 0.953-2.424 1.584-3.982 2.253-1.887 0.809-4.018 1.73-5.755 3.425-1.212-0.98-2.321-2.088-3.301-3.301 1.696-1.737 2.616-3.869 3.426-5.754zM7 23c-3.309 0-6-2.691-6-6 0-3.046 2.323-5.618 5.326-5.956 1.719 2.623 4.007 4.911 6.63 6.63C12.618 20.676 10.046 23 7 23z" />
</svg>