<svg id="package_Layer_1" viewBox="0 0 24 24" fill="currentColor" width="32" height="32" data-name="Layer 1" xmlns="http://www.w3.org/2000/svg" xmlns:xlink="http://www.w3.org/1999/xlink">
    <title>package</title>
    <path d="M22 8h-5c-1.103 0-2 0.897-2 2v6h-4v-4.5c0-2.332-1.462-4.325-3.515-5.123C8.398 5.745 9 4.692 9 3.5 9 1.57 7.43 0 5.5 0S2 1.57 2 3.5c0 1.192 0.602 2.245 1.515 2.877C1.462 7.176 0 9.169 0 11.5v12C0 23.776 0.224 24 0.5 24S1 23.776 1 23.5V17h22v6.5c0 0.276 0.224 0.5 0.5 0.5s0.5-0.224 0.5-0.5V10c0-1.103-0.897-2-2-2zM19 9h1v2h-1zM3 3.5C3 2.121 4.121 1 5.5 1S8 2.121 8 3.5 6.879 6 5.5 6 3 4.879 3 3.5zM5.5 7C7.981 7 10 9.019 10 11.5V16H1v-4.5C1 9.019 3.019 7 5.5 7zM16 16v-6c0-0.552 0.448-1 1-1h1v2c0 0.552 0.448 1 1 1h1c0.552 0 1-0.448 1-1V9h1c0.552 0 1 0.448 1 1v6z" />
</svg>