<svg id="paddle_tennis_racket_Layer_1" viewBox="0 0 24 24" fill="currentColor" width="32" height="32" data-name="Layer 1" xmlns="http://www.w3.org/2000/svg" xmlns:xlink="http://www.w3.org/1999/xlink">
    <title>paddle-tennis-racket</title>
    <path d="M5.5 14C4.122 14 3 15.122 3 16.5S4.122 19 5.5 19 8 17.878 8 16.5 6.878 14 5.5 14zM5.5 18C4.673 18 4 17.327 4 16.5S4.673 15 5.5 15 7 15.673 7 16.5 6.327 18 5.5 18zM19 11c0-0.079 0.032 0.066 0 0zM23.854 23.146l-3.5-3.5C19 18.292 19 12.994 19 11c-0.144-2.405-1.398-5.135-3.635-7.364-4.235-4.25-9.494-4.802-13.099-1.355-2.883 3.016-3.025 7.133-0.38 11.013 0.156 0.229 0.467 0.287 0.695 0.131 0.228-0.155 0.287-0.467 0.131-0.695-0.165-0.243-0.316-0.486-0.457-0.73H11v5.985c-0.149-6e-3-0.298-7e-3-0.449-0.023-0.275-0.023-0.52 0.172-0.549 0.446-0.028 0.274 0.171 0.521 0.446 0.549 0.186 0.022 0.37 5e-3 0.551 0.043 2.182 0 7.293 0 8.646 1.354l3.5 3.5c0.195 0.195 0.512 0.195 0.707 0s0.195-0.512 2e-3-0.708zM12 2.264c0.905 0.53 1.799 1.218 2.658 2.079C15.2 4.883 15.67 5.438 16.081 6H12zM12 7h4.735c0.78 1.332 1.199 2.688 1.247 4h-5.983zM6 11H1.748C1.147 9.641 0.914 8.284 1.054 7H6zM6 6H1.247c0.294-1.09 0.866-2.111 1.727-3.012 0.913-0.874 1.94-1.446 3.027-1.742zM11 11H7V7h4zM11 6H7V1.048c1.293-0.144 2.65 0.093 4 0.696zM12 12h5.951c-0.162 1.46-0.801 2.837-1.936 4.023-1.171 1.119-2.54 1.774-4.016 1.935zM14.844 18.107c0.663-0.355 1.292-0.814 1.879-1.376 0.577-0.603 1.031-1.256 1.385-1.94 0.101 1.499 0.29 2.888 0.646 3.958-1.049-0.353-2.409-0.541-3.91-0.642z" />
</svg>