<svg id="paddle_tennis_player_Layer_1" viewBox="0 0 24 24" fill="currentColor" width="32" height="32" data-name="Layer 1" xmlns="http://www.w3.org/2000/svg" xmlns:xlink="http://www.w3.org/1999/xlink">
    <title>paddle-tennis-player</title>
    <path d="M9 12c3.309 0 6-2.691 6-6 0.018-3.235-2.679-6.019-6-6-3.321-0.019-6.018 2.765-6 6 0 3.309 2.691 6 6 6zM9 11c-2.757 0-5-2.243-5-5h10c0 2.757-2.243 5-5 5zM4.424 4h9.152c0.14 0.318 0.252 0.651 0.323 1H4.101c0.071-0.349 0.183-0.682 0.323-1zM9 1c1.627 0 3.061 0.793 3.974 2H5.026C5.94 1.793 7.374 1 9 1zM18 12c1.103 0 2-0.897 2-2s-0.897-2-2-2-2 0.897-2 2 0.897 2 2 2zM18 9c0.552 0 1 0.449 1 1s-0.448 1-1 1-1-0.449-1-1 0.448-1 1-1zM22.448 10.6c-0.195-0.195-0.512-0.195-0.707 0s-0.195 0.512 0 0.707c1.868 1.869 1.62 4.627-0.616 6.865-1.18 1.179-2.581 1.829-3.948 1.829-1.13 0-2.111-0.408-2.917-1.213-0.833-0.832-1.229-1.792-1.265-2.814-0.03-1.183 0.463-2.437 1.511-3.645 0.181-0.208 0.158-0.524-0.05-0.705-0.209-0.182-0.523-0.159-0.706 0.05-1.243 1.433-1.813 2.965-1.75 4.417v4.204l-2.854 2.854c-0.195 0.195-0.195 0.512 0 0.707s0.512 0.195 0.707 0l2.854-2.854h4.47c1.634 0 3.287-0.753 4.655-2.122 2.659-2.66 2.907-5.987 0.616-8.28zM10 14.5c0-0.238-0.168-0.443-0.401-0.49C9.399 13.995 9.202 14.009 9 14c-4.962 0-9 4.038-9 9v0.5C0 23.776 0.224 24 0.5 24S1 23.776 1 23.5V23c0-2.827 1.473-5.315 3.692-6.739l1.461 2.191c0.495 0.743 1.677 0.827 2.262-0.083l1.528-3.632C9.98 14.664 10 14.582 10 14.5zM7.538 17.898c-0.204 0.211-0.348 0.211-0.553 0l-1.417-2.125c0.969-0.461 2.044-0.734 3.179-0.77z" />
</svg>