<svg id="padlock_check_Layer_1" viewBox="0 0 24 24" fill="currentColor" width="32" height="32" data-name="Layer 1" xmlns="http://www.w3.org/2000/svg" xmlns:xlink="http://www.w3.org/1999/xlink">
    <title>padlock-check</title>
    <path d="M10.5 23h-6C2.57 23 1 21.43 1 19.5v-7C1 10.57 2.57 9 4.5 9h10c0.615 0 1.22 0.162 1.75 0.468 0.239 0.139 0.545 0.056 0.683-0.182 0.139-0.239 0.057-0.545-0.182-0.683s-0.492-0.244-0.75-0.336V6.5c0-3.584-2.916-6.5-6.5-6.5S3 2.916 3 6.5v1.776C1.258 8.897 0 10.547 0 12.5v7C0 21.981 2.019 24 4.5 24h6c0.276 0 0.5-0.224 0.5-0.5S10.776 23 10.5 23zM4 6.5C4 3.467 6.467 1 9.5 1S15 3.467 15 6.5v1.533C14.834 8.015 14.668 8 14.5 8h-10C4.329 8 4.166 8.032 4 8.051zM9.5 15c0.276 0 0.5 0.224 0.5 0.5v2c0 0.276-0.224 0.5-0.5 0.5S9 17.776 9 17.5v-2C9 15.224 9.224 15 9.5 15zM17.5 11c-3.584 0-6.5 2.916-6.5 6.5s2.916 6.5 6.5 6.5 6.5-2.916 6.5-6.5-2.916-6.5-6.5-6.5zM17.5 23c-3.033 0-5.5-2.468-5.5-5.5s2.467-5.5 5.5-5.5 5.5 2.468 5.5 5.5-2.467 5.5-5.5 5.5zM20.85 16.143c0.192 0.198 0.187 0.515-0.012 0.707l-2.703 2.614c-0.36 0.355-0.835 0.533-1.311 0.533s-0.949-0.177-1.312-0.531l-1.364-1.347c-0.197-0.193-0.199-0.51-5e-3-0.707 0.194-0.195 0.511-0.198 0.707-4e-3l1.363 1.345c0.337 0.33 0.886 0.326 1.223-4e-3l2.706-2.618c0.2-0.191 0.516-0.187 0.708 0.012z" />
</svg>