<svg id="page_break_Layer_1" viewBox="0 0 24 24" fill="currentColor" width="32" height="32" data-name="Layer 1" xmlns="http://www.w3.org/2000/svg" xmlns:xlink="http://www.w3.org/1999/xlink">
    <title>page-break</title>
    <path d="M2.5 11C2.776 11 3 10.776 3 10.5v-6C3 2.57 4.57 1 6.5 1h5.515C12.349 1 12.678 1.033 13 1.091V6.5C13 7.879 14.121 9 15.5 9h5.409C20.967 9.322 21 9.651 21 9.985V10.5c0 0.276 0.224 0.5 0.5 0.5s0.5-0.224 0.5-0.5V9.985c0-1.736-0.677-3.369-1.904-4.597l-3.484-3.484C15.384 0.676 13.752 0 12.015 0H6.5C4.019 0 2 2.019 2 4.5v6C2 10.776 2.224 11 2.5 11zM19.389 6.096C19.94 6.647 20.355 7.295 20.627 8H15.5C14.673 8 14 7.327 14 6.5V1.373c0.705 0.273 1.354 0.688 1.904 1.238zM22 16.5v3c0 2.481-2.019 4.5-4.5 4.5h-11C4.019 24 2 21.981 2 19.5v-3C2 16.224 2.224 16 2.5 16S3 16.224 3 16.5v3C3 21.43 4.57 23 6.5 23h11c1.93 0 3.5-1.57 3.5-3.5v-3c0-0.276 0.224-0.5 0.5-0.5s0.5 0.224 0.5 0.5zM6.5 14h-5C1.224 14 1 13.776 1 13.5S1.224 13 1.5 13h5C6.776 13 7 13.224 7 13.5S6.776 14 6.5 14zM14.5 13c0.276 0 0.5 0.224 0.5 0.5S14.776 14 14.5 14h-5C9.224 14 9 13.776 9 13.5S9.224 13 9.5 13zM23 13.5c0 0.276-0.224 0.5-0.5 0.5h-5c-0.276 0-0.5-0.224-0.5-0.5s0.224-0.5 0.5-0.5h5c0.276 0 0.5 0.224 0.5 0.5z" />
</svg>