<svg id="pager_Layer_1" viewBox="0 0 24 24" fill="currentColor" width="32" height="32" data-name="Layer 1" xmlns="http://www.w3.org/2000/svg" xmlns:xlink="http://www.w3.org/1999/xlink">
    <title>pager</title>
    <path d="M19.5 3h-15C2.019 3 0 5.019 0 7.5v9C0 18.981 2.019 21 4.5 21h15c2.481 0 4.5-2.019 4.5-4.5v-9C24 5.019 21.981 3 19.5 3zM23 16.5c0 1.93-1.57 3.5-3.5 3.5h-15C2.57 20 1 18.43 1 16.5v-9C1 5.57 2.57 4 4.5 4h15C21.43 4 23 5.57 23 7.5zM19.5 7h-15C4.224 7 4 7.224 4 7.5v4C4 11.776 4.224 12 4.5 12h15c0.276 0 0.5-0.224 0.5-0.5v-4C20 7.224 19.776 7 19.5 7zM19 11H5V8h14zM7 14.5C7 14.776 6.776 15 6.5 15h-2C4.224 15 4 14.776 4 14.5S4.224 14 4.5 14h2C6.776 14 7 14.224 7 14.5zM12 14.5c0 0.276-0.224 0.5-0.5 0.5h-2C9.224 15 9 14.776 9 14.5S9.224 14 9.5 14h2c0.276 0 0.5 0.224 0.5 0.5zM17 14.5c0 0.276-0.224 0.5-0.5 0.5h-2c-0.276 0-0.5-0.224-0.5-0.5s0.224-0.5 0.5-0.5h2c0.276 0 0.5 0.224 0.5 0.5z" />
</svg>