<svg id="paid_Layer_1" viewBox="0 0 24 24" fill="currentColor" width="32" height="32" data-name="Layer 1" xmlns="http://www.w3.org/2000/svg" xmlns:xlink="http://www.w3.org/1999/xlink">
    <title>paid</title>
    <path d="M21.951 5.324C19.708 2.046 15.966 0 12 0S4.291 2.047 2.049 5.325C1.675 5.497 1.326 5.726 1.026 6.026 0.365 6.688 2e-3 7.568 3e-3 8.503l7e-3 7c1e-3 1.404 0.839 2.609 2.037 3.165 2.242 3.278 5.988 5.331 9.954 5.331s7.708-2.046 9.951-5.324c1.206-0.553 2.049-1.765 2.049-3.176v-7c0-1.411-0.844-2.622-2.05-3.175zM12 1c3.295 0 6.384 1.486 8.465 4H3.535C5.616 2.486 8.705 1 12 1zM12 23c-3.295 0-6.384-1.486-8.465-4h16.93c-2.081 2.514-5.17 4-8.465 4zM23 15.5c0 1.378-1.121 2.5-2.5 2.5H3.51c-1.377 0-2.498-1.121-2.5-2.498l-7e-3-7c0-0.668 0.259-1.296 0.73-1.769C2.206 6.26 2.834 6 3.503 6H20.5C21.879 6 23 7.122 23 8.5zM18.487 8H17c-0.552 0-1 0.449-1 1v6c0 0.551 0.448 1 1 1h1.5c1.379 0 2.5-1.122 2.5-2.5v-2.988C21 9.127 19.873 8 18.487 8zM20 13.5c0 0.827-0.673 1.5-1.5 1.5H17V9h1.487C19.321 9 20 9.678 20 10.512zM5 8H4C3.448 8 3 8.449 3 9v6.5C3 15.776 3.224 16 3.5 16S4 15.776 4 15.5V13h1c1.379 0 2.5-1.122 2.5-2.5S6.379 8 5 8zM5 12H4V9h1c0.827 0 1.5 0.673 1.5 1.5S5.827 12 5 12zM15 8.5v7c0 0.276-0.224 0.5-0.5 0.5S14 15.776 14 15.5v-7C14 8.224 14.224 8 14.5 8S15 8.224 15 8.5zM10.496 8C9.759 8 9.37 8.689 9.289 9.088L8.01 15.396c-0.061 0.302 0.17 0.583 0.48 0.585h0.018c0.235 1e-3 0.438-0.163 0.485-0.392L9.316 14h2.376l0.333 1.61c0.047 0.226 0.247 0.389 0.48 0.39 0.312 2e-3 0.546-0.282 0.485-0.585l-1.28-6.296C11.616 8.66 11.233 8 10.496 8zM9.52 13l0.757-3.715c0.024-0.118 0.085-0.284 0.219-0.284s0.189 0.132 0.227 0.316L11.486 13z" />
</svg>