<svg id="paint_roller_Layer_1" viewBox="0 0 24 24" fill="currentColor" width="32" height="32" data-name="Layer 1" xmlns="http://www.w3.org/2000/svg" xmlns:xlink="http://www.w3.org/1999/xlink">
    <title>paint-roller</title>
    <path d="M21 4V2.5C21 1.121 19.878 0 18.5 0h-16C1.122 0 0 1.121 0 2.5v4C0 7.879 1.122 9 2.5 9h16C19.878 9 21 7.879 21 6.5V5c1.103 0 2 0.897 2 2v2c0 1.103-0.897 2-2 2h-7.5c-1.93 0-3.5 1.57-3.5 3.5v0.55c-1.14 0.232-2 1.242-2 2.45v4c0 1.379 1.122 2.5 2.5 2.5s2.5-1.121 2.5-2.5v-4c0-1.208-0.86-2.217-2-2.45V14.5c0-1.379 1.122-2.5 2.5-2.5H21c1.654 0 3-1.346 3-3V7c0-1.654-1.346-3-3-3zM20 6.5C20 7.327 19.327 8 18.5 8h-16C1.673 8 1 7.327 1 6.5v-4C1 1.673 1.673 1 2.5 1h16C19.327 1 20 1.673 20 2.5zM12 17.5v4c0 0.827-0.673 1.5-1.5 1.5S9 22.327 9 21.5v-4c0-0.827 0.673-1.5 1.5-1.5s1.5 0.673 1.5 1.5z" />
</svg>