<svg id="paintbrush_pencil_Layer_1" viewBox="0 0 24 24" fill="currentColor" width="32" height="32" data-name="Layer 1" xmlns="http://www.w3.org/2000/svg" xmlns:xlink="http://www.w3.org/1999/xlink">
    <title>paintbrush-pencil</title>
    <path d="M0.948 5.533C0.337 4.922 0 4.107 0 3.241S0.337 1.56 0.948 0.949c1.219-1.225 3.36-1.226 4.585 0l5.118 5.118c0.195 0.195 0.195 0.512 0 0.707s-0.512 0.195-0.707 0L4.826 1.655c-0.848-0.847-2.327-0.845-3.17 0C1.233 2.078 1 2.64 1 3.241s0.232 1.162 0.655 1.585l5.118 5.119c0.195 0.195 0.195 0.512 0 0.707-0.098 0.098-0.226 0.146-0.354 0.146s-0.256-0.049-0.354-0.146zM22.388 17.804l-4.436-4.436c-0.195-0.195-0.512-0.195-0.707 0s-0.195 0.512 0 0.707l4.436 4.436c0.851 0.851 1.318 1.98 1.318 3.183v1.307h-1.308c-1.202 0-2.332-0.468-3.182-1.318l-4.436-4.436c-0.195-0.195-0.512-0.195-0.707 0s-0.195 0.512 0 0.707l4.436 4.436c1.038 1.039 2.419 1.611 3.889 1.611h1.808c0.276 0 0.5-0.224 0.5-0.5v-1.807c0-1.47-0.572-2.851-1.611-3.89zM10.971 17.51c0.146 1.447-0.335 2.946-1.441 4.052-1.274 1.274-5.01 2.146-7.209 2.422-0.088 0.011-0.175 0.017-0.262 0.017-0.544 0-1.062-0.214-1.455-0.605-0.454-0.454-0.669-1.08-0.589-1.717 0.275-2.199 1.147-5.935 2.422-7.209 1.106-1.106 2.605-1.586 4.052-1.441l12.101-12.1c1.236-1.236 3.246-1.236 4.482 0s1.235 3.245 0 4.481zM7.647 13.285c0.688 0.241 1.334 0.635 1.883 1.184s0.944 1.195 1.184 1.883l11.65-11.649c0.845-0.846 0.846-2.222 0-3.067s-2.223-0.846-3.068 0zM8.823 15.176c-0.783-0.782-1.812-1.174-2.84-1.174s-2.057 0.392-2.839 1.174c-1.03 1.03-1.87 4.495-2.137 6.627-0.041 0.328 0.069 0.65 0.304 0.885 0.233 0.234 0.551 0.348 0.885 0.304 2.132-0.267 5.597-1.106 6.627-2.137 1.565-1.565 1.564-4.112 0-5.679z" />
</svg>