<svg id="pallet_alt_Layer_1" viewBox="0 0 24 24" fill="currentColor" width="32" height="32" data-name="Layer 1" xmlns="http://www.w3.org/2000/svg" xmlns:xlink="http://www.w3.org/1999/xlink">
    <title>pallet-alt</title>
    <path d="M24 19.5v1c0 0.276-0.224 0.5-0.5 0.5S23 20.776 23 20.5v-1c0-0.827-0.673-1.5-1.5-1.5h-9v2.5c0 0.276-0.224 0.5-0.5 0.5s-0.5-0.224-0.5-0.5V18h-9C1.673 18 1 18.673 1 19.5v1C1 20.776 0.776 21 0.5 21S0 20.776 0 20.5v-1C0 18.121 1.122 17 2.5 17h19c1.379 0 2.5 1.121 2.5 2.5zM0 12V6c0-1.654 1.346-3 3-3h6c1.654 0 3 1.346 3 3v6c0 1.654-1.346 3-3 3H3c-1.654 0-3-1.346-3-3zM1 12c0 1.103 0.897 2 2 2h6c1.103 0 2-0.897 2-2V6c0-1.103-0.897-2-2-2H3C1.897 4 1 4.897 1 6zM24 8v4c0 1.654-1.346 3-3 3h-4c-1.654 0-3-1.346-3-3V8c0-1.654 1.346-3 3-3h4c1.654 0 3 1.346 3 3zM23 8c0-1.103-0.897-2-2-2h-4c-1.103 0-2 0.897-2 2v4c0 1.103 0.897 2 2 2h4c1.103 0 2-0.897 2-2z" />
</svg>