<svg id="pan_food_Layer_1" viewBox="0 0 24 24" fill="currentColor" width="32" height="32" data-name="Layer 1" xmlns="http://www.w3.org/2000/svg" xmlns:xlink="http://www.w3.org/1999/xlink">
    <title>pan-food</title>
    <path d="M23.461 5.788c0.949-1.476 0.738-3.447-0.503-4.688s-3.211-1.451-4.687-0.505l-1.486 0.948C15.327 0.873 13.707 0.499 12 0.499 5.659 0.5 0.5 5.659 0.5 12c0 1.706 0.374 3.326 1.044 4.784l-0.947 1.428c-0.949 1.476-0.737 3.447 0.504 4.688 0.721 0.721 1.688 1.094 2.662 1.094 0.704 0 1.411-0.194 2.032-0.594l1.422-0.943c1.457 0.669 3.078 1.043 4.784 1.043 6.341 0 11.5-5.159 11.5-11.5 0-1.705-0.374-3.325-1.042-4.782zM18.811 1.438c1.082-0.698 2.529-0.542 3.44 0.369 0.911 0.91 1.066 2.356 0.381 3.423l-0.694 0.988c-0.998-1.709-2.424-3.138-4.13-4.141zM5.248 22.562c-1.084 0.696-2.529 0.541-3.44-0.369s-1.066-2.356-0.374-3.434l0.638-0.962c1 1.706 2.426 3.132 4.131 4.132zM12 22.5C6.21 22.5 1.5 17.79 1.5 12S6.21 1.5 12 1.5 22.5 6.21 22.5 12 17.79 22.5 12 22.5zM15 18c0 0.552-0.448 1-1 1s-1-0.448-1-1 0.448-1 1-1 1 0.448 1 1zM5 11c0-0.552 0.448-1 1-1s1 0.448 1 1-0.448 1-1 1-1-0.448-1-1zM13 12c0 0.552-0.448 1-1 1s-1-0.448-1-1 0.448-1 1-1 1 0.448 1 1zM16 7c0-0.552 0.448-1 1-1s1 0.448 1 1-0.448 1-1 1-1-0.448-1-1zM8.482 14H6.223c-0.372 0-0.72 0.166-0.955 0.455-0.227 0.28-0.316 0.639-0.243 0.986 0.372 1.774 1.759 3.161 3.533 3.533 0.08 0.017 0.161 0.025 0.241 0.025 0.267 0 0.53-0.093 0.745-0.267 0.29-0.235 0.457-0.584 0.457-0.956v-2.26c0-0.837-0.681-1.518-1.519-1.516zM9 17.777c0 0.068-0.032 0.135-0.086 0.179-0.032 0.026-0.084 0.056-0.15 0.04-1.387-0.291-2.47-1.374-2.76-2.76-0.014-0.066 0.015-0.118 0.041-0.15C6.089 15.032 6.156 15 6.224 15h2.259c0.286 0 0.518 0.232 0.518 0.518zM18.408 10.526c-0.369-0.043-0.728 0.087-0.988 0.347l-1.566 1.566c-0.585 0.585-0.585 1.536 0 2.121l1.566 1.566c0.229 0.229 0.535 0.354 0.856 0.354 0.562 0 0.813-0.241 1.007-0.543 0.958-1.481 0.958-3.396 0-4.877-0.194-0.302-0.514-0.497-0.875-0.534zM18.443 15.395c-0.042 0.064-0.106 0.08-0.142 0.084-0.032 6e-3-0.11 5e-3-0.175-0.06l-1.566-1.566c-0.195-0.195-0.195-0.512 0-0.707l1.566-1.566c0.052-0.052 0.113-0.061 0.151-0.061 9e-3 0 0.017 0 0.023 0 0.035 4e-3 0.1 0.02 0.142 0.084 0.744 1.151 0.744 2.64 1e-3 3.792zM8.457 8.733C8.672 8.907 8.935 9 9.202 9c0.08 0 0.161-9e-3 0.24-0.025 1.775-0.372 3.162-1.759 3.534-3.533 0.073-0.348-0.016-0.706-0.243-0.986-0.235-0.289-0.583-0.455-0.955-0.455H9.519c-0.837 0-1.518 0.681-1.518 1.518v2.26c0 0.372 0.167 0.721 0.456 0.954zM9 5.517c0-0.285 0.232-0.518 0.518-0.518h2.259c0.068 0 0.135 0.032 0.179 0.086 0.026 0.032 0.054 0.084 0.041 0.15-0.291 1.386-1.374 2.469-2.761 2.76-0.064 0.015-0.117-0.014-0.149-0.04-0.054-0.044-0.086-0.11-0.086-0.179z" />
</svg>