<svg id="pan_frying_Layer_1" viewBox="0 0 24 24" fill="currentColor" width="32" height="32" data-name="Layer 1" xmlns="http://www.w3.org/2000/svg" xmlns:xlink="http://www.w3.org/1999/xlink">
    <title>pan-frying</title>
    <path d="M23.854 23.146l-6.449-6.449c1.607-1.775 2.596-4.12 2.596-6.697C20 4.486 15.514 0 10 0S0 4.486 0 10 4.486 20 10 20c2.577 0 4.922-0.988 6.697-2.596l6.449 6.449c0.098 0.098 0.226 0.146 0.354 0.146s0.256-0.049 0.354-0.146c0.195-0.195 0.195-0.512 0-0.707zM1 10c0-4.962 4.038-9 9-9s9 4.038 9 9-4.038 9-9 9-9-4.038-9-9zM9 8c-1.103 0-2 0.897-2 2s0.897 2 2 2 2-0.897 2-2-0.897-2-2-2zM9 11c-0.551 0-1-0.449-1-1s0.449-1 1-1 1 0.449 1 1-0.449 1-1 1zM13.357 6.691c-0.069-0.016-0.164-0.055-0.22-0.151-1.104-1.907-2.976-2.826-5.007-2.461-2.394 0.43-4.131 2.587-4.131 5.129V9.5c0 3.584 2.916 6.5 6.5 6.5 1.896 0 3.55-1.252 3.849-2.912 0.063-0.351 0.345-0.682 0.485-0.808 0.73-0.654 1.166-1.601 1.166-2.531 0-1.452-1.086-2.71-2.642-3.058zM14.166 11.537c-0.11 0.099-0.668 0.631-0.802 1.375C13.154 14.083 11.896 15 10.5 15 7.467 15 5 12.533 5 9.5V9.208c0-2.024 1.422-3.806 3.308-4.145 0.228-0.041 0.453-0.061 0.674-0.061 1.334 0 2.532 0.73 3.291 2.039 0.186 0.32 0.494 0.542 0.867 0.625 0.896 0.201 1.861 0.939 1.861 2.083 0 0.641-0.319 1.325-0.835 1.788z" />
</svg>