<svg id="pan_Layer_1" viewBox="0 0 24 24" fill="currentColor" width="32" height="32" data-name="Layer 1" xmlns="http://www.w3.org/2000/svg" xmlns:xlink="http://www.w3.org/1999/xlink">
    <title>pan</title>
    <path d="M14 0C8.486 0 4 4.486 4 10c0 1.852 0.507 3.587 1.387 5.076l-4.655 4.656c-0.975 0.975-0.975 2.561 0 3.535 0.487 0.487 1.127 0.731 1.768 0.731s1.28-0.244 1.768-0.731l4.656-4.656c1.489 0.881 3.225 1.388 5.077 1.388 5.514 0 10-4.486 10-10S19.514 0 14 0zM3.561 22.561c-0.584 0.584-1.537 0.584-2.121 0s-0.585-1.536 0-2.121l4.511-4.513c0.597 0.809 1.313 1.525 2.122 2.122zM14 19c-4.963 0-9-4.037-9-9s4.037-9 9-9 9 4.037 9 9-4.037 9-9 9zM20 10c0 3.309-2.691 6-6 6s-6-2.691-6-6 2.691-6 6-6c0.276 0 0.5 0.224 0.5 0.5S14.276 5 14 5c-2.757 0-5 2.243-5 5s2.243 5 5 5 5-2.243 5-5c0-0.276 0.224-0.5 0.5-0.5S20 9.724 20 10z" />
</svg>