<svg id="pancakes_Layer_1" viewBox="0 0 24 24" fill="currentColor" width="32" height="32" data-name="Layer 1" xmlns="http://www.w3.org/2000/svg" xmlns:xlink="http://www.w3.org/1999/xlink">
    <title>pancakes</title>
    <path d="M23.363 6.001C23.777 5.534 24 5.029 24 4.5 24 1.577 17.817 0 12 0S0 1.577 0 4.5c0 0.531 0.224 1.032 0.633 1.499C0.218 6.47 0 6.972 0 7.5s0.223 1.031 0.633 1.499C0.217 9.47 0 9.972 0 10.5s0.223 1.031 0.633 1.499C0.217 12.47 0 12.972 0 13.5s0.223 1.031 0.633 1.499C0.217 15.47 0 15.972 0 16.5s0.223 1.031 0.633 1.499C0.217 18.47 0 18.972 0 19.5 0 22.423 6.183 24 12 24s12-1.577 12-4.5c0-0.521-0.217-1.018-0.624-1.485C23.776 17.559 24 17.054 24 16.5c0-0.521-0.217-1.018-0.624-1.485C23.776 14.559 24 14.054 24 13.5c0-0.528-0.223-1.031-0.641-1.503C23.774 11.529 24 11.027 24 10.5s-0.223-1.031-0.641-1.503C23.774 8.529 24 8.027 24 7.5s-0.222-1.028-0.637-1.499zM16.499 11.682c2.688-0.398 4.846-1.12 6.115-2.027C22.867 9.94 23 10.224 23 10.5c0 1.066-2.057 2.519-6.573 3.188-0.273 0.041-0.462 0.295-0.421 0.568 0.036 0.249 0.25 0.427 0.493 0.427 2.688-0.398 4.846-1.12 6.115-2.027C22.867 12.941 23 13.225 23 13.501c0 1.655-4.518 3.5-11 3.5l-0.492-4e-3H11.5c-0.272 0-0.496 0.219-0.5 0.493-4e-3 0.276 0.217 0.503 0.492 0.507L12 18.001c4.155 0 8.483-0.808 10.625-2.333 0.246 0.281 0.375 0.56 0.375 0.833 0 1.655-4.518 3.5-11 3.5l-0.492-4e-3H11.5c-0.272 0-0.496 0.219-0.5 0.493-4e-3 0.276 0.217 0.503 0.492 0.507L12 21.001c4.155 0 8.483-0.808 10.625-2.333 0.246 0.281 0.375 0.56 0.375 0.833 0 1.655-4.518 3.5-11 3.5s-11-1.845-11-3.5c0-0.275 0.125-0.556 0.373-0.839 0.512 0.364 1.161 0.7 1.948 1.001 0.06 0.022 0.119 0.033 0.179 0.033 0.201 0 0.391-0.123 0.467-0.322 0.099-0.258-0.03-0.547-0.288-0.646C1.977 18.079 1 17.267 1 16.501c0-0.275 0.125-0.556 0.373-0.839 0.512 0.364 1.161 0.7 1.948 1.001 0.06 0.022 0.119 0.033 0.179 0.033 0.201 0 0.391-0.123 0.467-0.322 0.099-0.258-0.03-0.547-0.288-0.646C1.977 15.079 1 14.267 1 13.501c0-0.275 0.125-0.556 0.373-0.839 0.512 0.364 1.161 0.7 1.948 1.001 0.06 0.022 0.119 0.033 0.179 0.033 0.201 0 0.391-0.123 0.467-0.322 0.099-0.258-0.03-0.547-0.288-0.646C1.977 12.079 1 11.267 1 10.501c0-0.275 0.125-0.556 0.373-0.839 0.512 0.364 1.161 0.7 1.948 1.001 0.06 0.022 0.119 0.033 0.179 0.033 0.201 0 0.391-0.123 0.467-0.322 0.099-0.258-0.03-0.547-0.288-0.646C1.977 9.079 1 8.267 1 7.501 1 7.225 1.126 6.943 1.376 6.66c0.82 0.584 1.985 1.093 3.483 1.494 0.672 0.18 1.142 0.778 1.142 1.453v9.894c0 0.827 0.673 1.5 1.5 1.5s1.5-0.673 1.5-1.5v-9.5c0-0.551 0.448-1 1-1s1 0.449 1 1v3.5c0 0.827 0.673 1.5 1.5 1.5s1.5-0.673 1.5-1.5v-3.185c0-0.769 0.587-1.41 1.365-1.491 3.255-0.34 5.793-1.123 7.252-2.165C22.868 6.944 23 7.226 23 7.501c0 1.066-2.057 2.519-6.573 3.188-0.273 0.041-0.462 0.295-0.421 0.568 0.036 0.249 0.25 0.427 0.493 0.425zM15.262 7.83C13.973 7.965 13 9.034 13 10.315V13.5c0 0.276-0.225 0.5-0.5 0.5S12 13.776 12 13.5V10c0-1.103-0.897-2-2-2s-2 0.897-2 2v9.5C8 19.776 7.775 20 7.5 20S7 19.776 7 19.5V9.606c0-1.127-0.774-2.122-1.882-2.419C2.578 6.506 1 5.477 1 4.499c0-1.655 4.518-3.5 11-3.5s11 1.845 11 3.5c0 1.222-2.712 2.805-7.738 3.331z" />
</svg>