<svg id="panorama_Layer_1" viewBox="0 0 24 24" fill="currentColor" width="32" height="32" data-name="Layer 1" xmlns="http://www.w3.org/2000/svg" xmlns:xlink="http://www.w3.org/1999/xlink">
    <title>panorama</title>
    <path d="M17.5 6C16.122 6 15 7.121 15 8.5s1.122 2.5 2.5 2.5S20 9.879 20 8.5 18.878 6 17.5 6zM17.5 10C16.673 10 16 9.327 16 8.5S16.673 7 17.5 7 19 7.673 19 8.5 18.327 10 17.5 10zM22.935 0.278c-0.672-0.383-1.474-0.376-2.144 0.023C19.727 0.934 15.949 2.999 12 2.999S4.273 0.935 3.208 0.302c-0.669-0.398-1.47-0.407-2.144-0.023C0.398 0.657 0 1.343 0 2.112v19.772c0 0.77 0.398 1.455 1.065 1.834 0.672 0.382 1.474 0.375 2.144-0.023C4.271 23.063 8.046 21 12 21s7.729 2.063 8.792 2.695C21.133 23.898 21.509 24 21.885 24c0.36 0 0.721-0.094 1.051-0.281 0.667-0.379 1.065-1.064 1.065-1.834V2.112c0-0.77-0.398-1.455-1.066-1.834zM21.303 22.836C20.184 22.171 16.209 20 12 20s-8.184 2.171-9.302 2.836c-0.356 0.212-0.781 0.217-1.138 0.014C1.209 22.651 1 22.29 1 21.885v-4.277l5.876-5.876c0.944-0.945 2.591-0.945 3.536 0l11.242 11.242c-0.121-0.026-0.239-0.072-0.351-0.138zM23 21.885c0 0.282-0.101 0.542-0.281 0.741L11.118 11.025c-1.322-1.322-3.628-1.322-4.95 0l-5.169 5.169V2.112c0-0.405 0.209-0.766 0.56-0.965 0.356-0.204 0.782-0.199 1.138 0.014C3.817 1.827 7.796 4 12 4s8.183-2.173 9.302-2.839c0.357-0.213 0.782-0.217 1.138-0.014C22.791 1.346 23 1.707 23 2.112z" />
</svg>