<svg id="paperclip_vertical_Layer_1" viewBox="0 0 24 24" fill="currentColor" width="32" height="32" data-name="Layer 1" xmlns="http://www.w3.org/2000/svg" xmlns:xlink="http://www.w3.org/1999/xlink">
    <title>paperclip-vertical</title>
    <path d="M11.5 24C7.92 24 5 21.08 5 17.5v-13C5 2.02 7.02 0 9.5 0S14 2.02 14 4.5v13c0 1.38-1.12 2.5-2.5 2.5S9 18.88 9 17.5v-12C9 5.22 9.22 5 9.5 5S10 5.22 10 5.5v12c0 0.83 0.67 1.5 1.5 1.5s1.5-0.67 1.5-1.5v-13C13 2.57 11.43 1 9.5 1S6 2.57 6 4.5v13c0 3.03 2.47 5.5 5.5 5.5s5.5-2.47 5.5-5.5v-14C17 3.22 17.22 3 17.5 3S18 3.22 18 3.5v14c0 3.58-2.92 6.5-6.5 6.5z" />
</svg>