<svg id="paper_plane_top_Layer_1" viewBox="0 0 24 24" fill="currentColor" width="32" height="32" data-name="Layer 1" xmlns="http://www.w3.org/2000/svg" xmlns:xlink="http://www.w3.org/1999/xlink">
    <title>paper-plane-top</title>
    <path d="M22.135 9.072 3.363 0.242C2.49-0.184 1.499-0.045 0.777 0.606 0.054 1.258-0.188 2.23 0.176 3.207l4.688 8.795-4.631 8.858c-0.333 0.914-0.09 1.886 0.635 2.536 0.445 0.4 0.993 0.605 1.55 0.605 0.349 0 0.7-0.08 1.034-0.244l18.686-8.822C23.287 14.396 24.001 13.271 24 12c0-1.27-0.717-2.393-1.865-2.928zM1.087 2.8C0.858 2.176 1.122 1.642 1.446 1.35 1.66 1.158 1.975 1.001 2.338 1.001c0.187 0 0.386 0.042 0.59 0.142 2e-3 0 5e-3 2e-3 7e-3 3e-3L21.71 9.978c0.65 0.304 1.089 0.854 1.236 1.522H5.729zM21.711 14.031 3.018 22.857c-0.597 0.291-1.156 0.086-1.481-0.205s-0.591-0.825-0.39-1.39l4.585-8.763h17.216c-0.144 0.671-0.584 1.225-1.237 1.532z" />
</svg>