<svg id="parking_Layer_1" viewBox="0 0 24 24" fill="currentColor" width="32" height="32" data-name="Layer 1" xmlns="http://www.w3.org/2000/svg" xmlns:xlink="http://www.w3.org/1999/xlink">
    <title>parking</title>
    <path d="M13.5 5h-3C8.57 5 7 6.57 7 8.5v10C7 18.776 7.224 19 7.5 19S8 18.776 8 18.5V14h5.5c2.481 0 4.5-2.019 4.5-4.5S15.981 5 13.5 5zM13.5 13H8V8.5C8 7.122 9.121 6 10.5 6h3C15.43 6 17 7.57 17 9.5S15.43 13 13.5 13zM19.5 0h-15C2.019 0 0 2.019 0 4.5v15C0 21.981 2.019 24 4.5 24h15c2.481 0 4.5-2.019 4.5-4.5v-15C24 2.019 21.981 0 19.5 0zM23 19.5c0 1.93-1.57 3.5-3.5 3.5h-15C2.57 23 1 21.43 1 19.5v-15C1 2.57 2.57 1 4.5 1h15C21.43 1 23 2.57 23 4.5z" />
</svg>