<svg id="parking_circle_slash_Layer_1" viewBox="0 0 24 24" fill="currentColor" width="32" height="32" data-name="Layer 1" xmlns="http://www.w3.org/2000/svg" xmlns:xlink="http://www.w3.org/1999/xlink">
    <title>parking-circle-slash</title>
    <path d="M10 13.5c0 0.276-0.224 0.5-0.5 0.5H8v4.5C8 18.776 7.776 19 7.5 19S7 18.776 7 18.5v-7C7 11.224 7.224 11 7.5 11S8 11.224 8 11.5V13h1.5c0.276 0 0.5 0.224 0.5 0.5zM24 12c0 6.617-5.383 12-12 12S0 18.617 0 12 5.383 0 12 0 24 5.383 24 12zM12 23c2.854 0 5.457-1.092 7.414-2.881l-0.017-0.016L3.88 4.587C2.092 6.544 1 9.147 1 12c0 6.065 4.935 11 11 11zM13.701 12.994C15.537 12.889 17 11.362 17 9.5 17 7.57 15.43 6 13.5 6h-3C9.502 6 8.603 6.597 8.208 7.501zM23 12c0-6.065-4.935-11-11-11-2.853 0-5.456 1.092-7.413 2.88l2.878 2.878C8.082 5.686 9.234 5 10.5 5h3C15.981 5 18 7.019 18 9.5c0 2.11-1.46 3.886-3.423 4.37l5.527 5.527 0.016 0.017c1.788-1.957 2.881-4.56 2.88-7.414z" />
</svg>