<svg id="parking_slash_Layer_1" viewBox="0 0 24 24" fill="currentColor" width="32" height="32" data-name="Layer 1" xmlns="http://www.w3.org/2000/svg" xmlns:xlink="http://www.w3.org/1999/xlink">
    <title>parking-slash</title>
    <path d="M10 13.5c0 0.276-0.224 0.5-0.5 0.5H8v4.5C8 18.776 7.776 19 7.5 19S7 18.776 7 18.5v-7C7 11.224 7.224 11 7.5 11S8 11.224 8 11.5V13h1.5c0.276 0 0.5 0.224 0.5 0.5zM24 4.5v15c0 2.481-2.019 4.5-4.5 4.5h-15C2.019 24 0 21.981 0 19.5v-15C0 2.019 2.019 0 4.5 0h15C21.981 0 24 2.019 24 4.5zM19.5 23c0.785 0 1.51-0.26 2.095-0.698L1.698 2.405C1.26 2.99 1 3.715 1 4.5v15C1 21.43 2.57 23 4.5 23zM13.701 12.994C15.537 12.889 17 11.362 17 9.5 17 7.57 15.43 6 13.5 6h-3C9.502 6 8.603 6.597 8.208 7.501zM23 4.5C23 2.57 21.43 1 19.5 1h-15C3.715 1 2.99 1.26 2.405 1.698l5.06 5.06C8.082 5.686 9.234 5 10.5 5h3C15.981 5 18 7.019 18 9.5c0 2.11-1.46 3.886-3.423 4.37l7.725 7.725C22.74 21.01 23 20.285 23 19.5z" />
</svg>