<svg id="party_horn_Layer_1" viewBox="0 0 24 24" fill="currentColor" width="32" height="32" data-name="Layer 1" xmlns="http://www.w3.org/2000/svg" xmlns:xlink="http://www.w3.org/1999/xlink">
    <title>party-horn</title>
    <path d="M13.461 7.646c1.065-1.065 1.582-2.171 1.536-3.285-0.073-1.748-1.491-2.968-1.505-2.979-0.211-0.179-0.237-0.494-0.059-0.705 0.179-0.209 0.494-0.237 0.705-0.059 0.072 0.062 1.768 1.52 1.858 3.701 0.059 1.405-0.556 2.763-1.828 4.034-0.098 0.098-0.226 0.146-0.354 0.146S13.558 8.45 13.46 8.353c-0.195-0.195-0.195-0.512 1e-3-0.707zM9 3c0.552 0 1-0.448 1-1S9.552 1 9 1 8 1.448 8 2 8.448 3 9 3zM21 7c0.552 0 1-0.448 1-1s-0.448-1-1-1-1 0.448-1 1 0.448 1 1 1zM2 4c0.552 0 1-0.448 1-1S2.552 2 2 2 1 2.448 1 3 1.448 4 2 4zM20.977 11.003c-0.99-0.047-1.943 0.387-2.831 1.274-0.195 0.195-0.195 0.512 0 0.707 0.098 0.098 0.226 0.146 0.354 0.146s0.256-0.049 0.354-0.146c0.679-0.679 1.397-1.01 2.074-0.983 1.094 0.042 1.883 0.945 1.891 0.954 0.18 0.209 0.495 0.234 0.704 0.056 0.209-0.179 0.236-0.492 0.058-0.703-0.043-0.051-1.068-1.241-2.604-1.305zM23 0c-0.552 0-1 0.448-1 1s0.448 1 1 1 1-0.448 1-1-0.448-1-1-1zM15.583 18.362v0l-13.041 5.49C2.306 23.952 2.061 24 1.82 24c-0.47 0-0.925-0.186-1.28-0.54-0.536-0.536-0.687-1.303-0.393-2.002L5.638 8.416c0.3-0.712 0.931-1.226 1.689-1.374 0.755-0.145 1.536 0.089 2.083 0.636l6.911 6.911c0.546 0.546 0.783 1.325 0.635 2.083s-0.662 1.39-1.373 1.69zM5.504 11.316c6e-3 2e-3 6e-3 0 3e-3-7e-3zM11.728 18.9 5.101 12.273 1.069 21.848C0.934 22.169 1 22.508 1.247 22.754s0.585 0.312 0.906 0.177zM12.692 18.494c-6e-3-3e-3-9e-3-3e-3-7e-3 3e-3zM15.616 15.297 8.705 8.386C8.453 8.134 8.126 7.999 7.782 7.999c-0.086 0-0.173 9e-3-0.261 0.025-0.437 0.086-0.787 0.37-0.959 0.781l-1.041 2.473 7.203 7.203 2.472-1.041c0.411-0.173 0.695-0.523 0.781-0.96 0.085-0.438-0.046-0.868-0.361-1.183zM22.002 17c-0.552 0-1 0.448-1 1s0.448 1 1 1 1-0.448 1-1-0.448-1-1-1zM17.002 22c-0.552 0-1 0.448-1 1s0.448 1 1 1 1-0.448 1-1-0.448-1-1-1z" />
</svg>