<svg id="party_bell_Layer_1" viewBox="0 0 24 24" fill="currentColor" width="32" height="32" data-name="Layer 1" xmlns="http://www.w3.org/2000/svg" xmlns:xlink="http://www.w3.org/1999/xlink">
    <title>party-bell</title>
    <path d="M3 20c0 0.552-0.448 1-1 1s-1-0.448-1-1 0.448-1 1-1 1 0.448 1 1zM13 11c-0.552 0-1 0.448-1 1s0.448 1 1 1 1-0.448 1-1-0.448-1-1-1zM21 4c0.552 0 1-0.448 1-1s-0.448-1-1-1-1 0.448-1 1 0.448 1 1 1zM23.354 6.006c-0.195-0.195-0.512-0.195-0.707 0-3.344 3.343-6.244 1.845-8.09 0-0.195-0.195-0.512-0.195-0.707 0s-0.195 0.512 0 0.707c1.532 1.532 3.142 2.298 4.752 2.298s3.22-0.766 4.752-2.298c0.195-0.195 0.195-0.512 0-0.707zM7.713 13.85c-0.195-0.195-0.512-0.195-0.707 0s-0.195 0.512 0 0.707c1 1 1.632 2.035 1.878 3.077 0.397 1.683-0.234 3.369-1.878 5.013-0.195 0.195-0.195 0.512 0 0.707C7.104 23.452 7.232 23.5 7.36 23.5s0.256-0.049 0.354-0.146c1.905-1.905 2.626-3.906 2.145-5.95-0.29-1.225-1.011-2.421-2.146-3.554zM16.138 15.619c-0.211-0.178-0.526-0.15-0.705 0.059-0.178 0.211-0.152 0.526 0.059 0.705 0.014 0.012 1.432 1.231 1.505 2.979 0.046 1.114-0.47 2.22-1.536 3.285-0.195 0.195-0.195 0.512 0 0.707 0.098 0.098 0.226 0.146 0.354 0.146s0.256-0.049 0.354-0.146c1.271-1.271 1.886-2.629 1.828-4.034-0.091-2.182-1.786-3.64-1.859-3.701zM22 15.001c0 0.552 0.448 1 1 1s1-0.448 1-1-0.448-1-1-1-1 0.448-1 1zM23 22.001c-0.552 0-1 0.448-1 1s0.448 1 1 1 1-0.448 1-1-0.448-1-1-1zM13.287 4.808l-8.48 8.479C4.349 13.746 3.722 14 3.078 14c-0.119 0-0.238-9e-3-0.356-0.026-0.735-0.108-1.354-0.539-1.697-1.182-1.819-3.398-1.208-7.517 1.521-10.246 2.729-2.73 6.847-3.341 10.246-1.521 0.642 0.343 1.072 0.961 1.181 1.696 0.113 0.763-0.144 1.543-0.686 2.087zM12.984 2.869c-0.062-0.419-0.304-0.77-0.664-0.962C11.191 1.303 9.951 1.01 8.716 1.01c-2.003 0-3.992 0.773-5.463 2.244-2.377 2.377-2.931 6.105-1.347 9.066 0.192 0.36 0.543 0.603 0.962 0.664 0.452 0.07 0.913-0.083 1.232-0.404l8.48-8.479c0.32-0.32 0.471-0.781 0.404-1.232z" />
</svg>