<svg id="password_lock_Layer_1" viewBox="0 0 24 24" fill="currentColor" width="32" height="32" data-name="Layer 1" xmlns="http://www.w3.org/2000/svg" xmlns:xlink="http://www.w3.org/1999/xlink">
    <title>password-lock</title>
    <path d="M24 7.5V11c0 0.276-0.224 0.5-0.5 0.5S23 11.276 23 11V7.5C23 5.57 21.43 4 19.5 4h-15C2.57 4 1 5.57 1 7.5v4C1 13.43 2.57 15 4.5 15h7c0.276 0 0.5 0.224 0.5 0.5S11.776 16 11.5 16h-7C2.019 16 0 13.981 0 11.5v-4C0 5.019 2.019 3 4.5 3h15C21.981 3 24 5.019 24 7.5zM9.396 11.604c0.195 0.195 0.512 0.195 0.707 0l1.396-1.396 1.396 1.396c0.195 0.195 0.512 0.195 0.707 0s0.195-0.512 0-0.707l-1.396-1.396 1.396-1.396c0.195-0.195 0.195-0.512 0-0.707s-0.512-0.195-0.707 0l-1.396 1.396-1.396-1.396c-0.195-0.195-0.512-0.195-0.707 0s-0.195 0.512 0 0.707l1.396 1.396-1.396 1.396c-0.195 0.195-0.195 0.512 0 0.707zM7.501 7.397c-0.195-0.195-0.512-0.195-0.707 0L5.398 8.793 4.002 7.397c-0.195-0.195-0.512-0.195-0.707 0s-0.195 0.512 0 0.707L4.691 9.5 3.295 10.896c-0.195 0.195-0.195 0.512 0 0.707s0.512 0.195 0.707 0l1.396-1.396 1.396 1.396c0.195 0.195 0.512 0.195 0.707 0s0.195-0.512 0-0.707L6.105 9.5 7.501 8.104c0.195-0.195 0.195-0.512 0-0.707zM24 18.501v2c0 1.93-1.57 3.5-3.5 3.5h-4c-1.93 0-3.5-1.57-3.5-3.5v-2c0-1.391 0.822-2.585 2-3.149v-1.851c0-1.93 1.57-3.5 3.5-3.5s3.5 1.57 3.5 3.5v1.851c1.178 0.564 2 1.758 2 3.149zM16 15.052c0.165-0.024 0.329-0.051 0.5-0.051h4c0.171 0 0.335 0.027 0.5 0.051v-1.551c0-1.379-1.121-2.5-2.5-2.5s-2.5 1.121-2.5 2.5zM23 18.501c0-1.379-1.121-2.5-2.5-2.5h-4c-1.379 0-2.5 1.121-2.5 2.5v2c0 1.379 1.121 2.5 2.5 2.5h4c1.379 0 2.5-1.121 2.5-2.5zM18.5 18.501c-0.552 0-1 0.448-1 1s0.448 1 1 1 1-0.448 1-1-0.448-1-1-1z" />
</svg>