<svg id="passenger_plane_Layer_1" viewBox="0 0 24 24" fill="currentColor" width="32" height="32" data-name="Layer 1" xmlns="http://www.w3.org/2000/svg" xmlns:xlink="http://www.w3.org/1999/xlink">
    <title>passenger-plane</title>
    <path d="M22.995 23.429c0.04 0.273-0.15 0.527-0.423 0.566C22.548 23.999 22.524 24 22.5 24c-0.245 0-0.458-0.179-0.494-0.429C21.794 22.105 20.502 21 19.001 21s-2.793 1.105-3.005 2.571C15.961 23.817 15.75 24 15.501 24s-0.459-0.183-0.495-0.429C14.794 22.105 13.502 21 12.001 21s-2.793 1.105-3.005 2.571C8.961 23.817 8.75 24 8.501 24s-0.459-0.183-0.495-0.429C7.794 22.105 6.502 21 5.001 21s-2.793 1.105-3.005 2.571c-0.039 0.273-0.29 0.473-0.566 0.423-0.273-0.039-0.463-0.293-0.423-0.566 0.282-1.955 2-3.429 3.995-3.429 1.474 0 2.796 0.804 3.5 2.012 0.704-1.208 2.026-2.012 3.5-2.012s2.796 0.804 3.5 2.012c0.704-1.208 2.026-2.012 3.5-2.012 1.995 0 3.712 1.474 3.993 3.43zM2.5 16.5C2.5 15.122 3.622 14 5 14s2.5 1.122 2.5 2.5S6.378 19 5 19s-2.5-1.122-2.5-2.5zM3.5 16.5C3.5 17.327 4.173 18 5 18s1.5-0.673 1.5-1.5S5.827 15 5 15s-1.5 0.673-1.5 1.5zM12 14c1.378 0 2.5 1.122 2.5 2.5S13.378 19 12 19s-2.5-1.122-2.5-2.5S10.622 14 12 14zM10.5 16.5c0 0.827 0.673 1.5 1.5 1.5s1.5-0.673 1.5-1.5S12.827 15 12 15s-1.5 0.673-1.5 1.5zM19 19c-1.378 0-2.5-1.122-2.5-2.5S17.622 14 19 14s2.5 1.122 2.5 2.5S20.378 19 19 19zM19 18c0.827 0 1.5-0.673 1.5-1.5S19.827 15 19 15s-1.5 0.673-1.5 1.5S18.173 18 19 18zM24 4.5C24 5.327 23.327 6 22.5 6h-1.258l-1.761 2.231C19.246 8.678 18.704 9 18.113 9h-0.32c-0.711 0.02-1.248-0.765-0.972-1.421L17.435 6h-1.588c-0.59 0-1.148-0.259-1.529-0.711l-1.096-1.3c-0.281-0.474-0.279-0.952-0.048-1.351 0.403-0.695 1.444-0.831 2.012-0.263L16.097 3h1.352l-0.621-1.574c-0.126-0.322-0.086-0.684 0.108-0.97S17.453 0 17.798 0h0.298c0.59 0 1.132 0.322 1.414 0.84L21.24 3h1.26C23.327 3 24 3.673 24 4.5zM23 4.5C23 4.224 22.776 4 22.5 4H21c-0.152 0-0.296-0.069-0.391-0.188L18.68 1.391C18.525 1.122 18.32 1 18.096 1h-0.298l0.851 2.316C18.783 3.631 18.526 4.009 18.184 4h-2.241c-0.102 0-0.202-0.031-0.285-0.089l-1.11-0.771c-0.27-0.297-0.666-0.062-0.509 0.279l1.044 1.227c0.19 0.226 0.469 0.355 0.765 0.355h2.319c0.341-0.01 0.599 0.367 0.466 0.681l-0.879 2.26 0.36 0.059c0.224 0 0.429-0.122 0.536-0.318l1.958-2.492c0.095-0.12 0.24-0.19 0.393-0.19h1.5c0.276 0 0.5-0.224 0.499-0.501zM9 5.201C9.51 5.103 10.022 4.986 10.552 5h0.449c0.276 0 0.5-0.224 0.5-0.5S11.277 4 11.001 4C10.29 3.985 9.557 4.028 8.873 4.217 8.606 4.288 8.447 4.561 8.518 4.828 8.577 5.052 8.78 5.2 9 5.201zM5.073 7.932C5.308 8.07 5.617 7.993 5.757 7.753c0.302-0.517 0.685-0.98 1.137-1.376 0.208-0.182 0.229-0.498 0.046-0.706-0.182-0.208-0.499-0.228-0.706-0.046C5.701 6.092 5.25 6.639 4.893 7.249 4.754 7.488 4.834 7.794 5.073 7.932zM4.501 12c0.276 0 0.5-0.224 0.5-0.5 4e-3-0.353-0.015-1.111 0.023-1.455 0.025-0.275-0.178-0.518-0.453-0.543C4.289 9.478 4.053 9.68 4.028 9.955 3.986 10.343 4.005 11.103 4.001 11.5c0 0.276 0.224 0.5 0.5 0.5z" />
</svg>