<svg id="password_protection_Layer_1" viewBox="0 0 24 24" fill="currentColor" width="32" height="32" data-name="Layer 1" xmlns="http://www.w3.org/2000/svg" xmlns:xlink="http://www.w3.org/1999/xlink">
    <title>password-protection</title>
    <path d="M7.854 5.854 6.208 7.5 7.854 9.146c0.195 0.195 0.195 0.512 0 0.707s-0.512 0.195-0.707 0L5.501 8.207 3.855 9.853c-0.195 0.195-0.512 0.195-0.707 0s-0.195-0.512 0-0.707L4.794 7.5 3.148 5.854c-0.195-0.195-0.195-0.512 0-0.707s0.512-0.195 0.707 0l1.646 1.646 1.646-1.646c0.195-0.195 0.512-0.195 0.707 0s0.195 0.512 0 0.707zM10.146 9.854c0.195 0.195 0.512 0.195 0.707 0l1.646-1.646 1.646 1.646c0.195 0.195 0.512 0.195 0.707 0s0.195-0.512 0-0.707l-1.646-1.646 1.646-1.646c0.195-0.195 0.195-0.512 0-0.707s-0.512-0.195-0.707 0l-1.646 1.646-1.646-1.646c-0.195-0.195-0.512-0.195-0.707 0s-0.195 0.512 0 0.707l1.646 1.646-1.646 1.646c-0.195 0.195-0.195 0.512 0 0.707zM19.5 1h-15C2.019 1 0 3.019 0 5.5v4C0 11.981 2.019 14 4.5 14h6c0.276 0 0.5-0.224 0.5-0.5S10.776 13 10.5 13h-6C2.57 13 1 11.43 1 9.5v-4C1 3.57 2.57 2 4.5 2h15C21.43 2 23 3.57 23 5.5V9c0 0.276 0.224 0.5 0.5 0.5S24 9.276 24 9V5.5C24 3.019 21.981 1 19.5 1zM23.999 13.657v2.756c-0.059 2.923-1.845 5.123-5.309 6.549-0.135 0.056-0.287 0.05-0.418-0.017-3.443-1.756-5.218-3.95-5.273-6.521v-2.767c0-1.175 0.749-2.214 1.865-2.584l3.478-1.153c0.102-0.033 0.213-0.033 0.314 0l3.477 1.153c1.116 0.369 1.866 1.407 1.866 2.584zM22.999 13.657c0-0.744-0.475-1.401-1.181-1.635l-3.319-1.102-3.32 1.102c-0.705 0.234-1.18 0.892-1.18 1.635v2.756c0.046 2.115 1.567 3.98 4.523 5.535 2.963-1.274 4.428-3.09 4.477-5.545z" />
</svg>