<svg id="password_smartphone_Layer_1" viewBox="0 0 24 24" fill="currentColor" width="32" height="32" data-name="Layer 1" xmlns="http://www.w3.org/2000/svg" xmlns:xlink="http://www.w3.org/1999/xlink">
    <title>password-smartphone</title>
    <path d="M15.5 16c-0.276 0-0.5 0.224-0.5 0.5V17H1V4.5C1 2.57 2.57 1 4.5 1h8C12.776 1 13 0.776 13 0.5S12.776 0 12.5 0h-8C2.019 0 0 2.019 0 4.5v15C0 21.981 2.019 24 4.5 24h7c2.481 0 4.5-2.019 4.5-4.5v-3c0-0.276-0.224-0.5-0.5-0.5zM11.5 23h-7C2.57 23 1 21.43 1 19.5V18h14v1.5c0 1.93-1.57 3.5-3.5 3.5zM15.354 7.377 14.208 8.523l1.146 1.146c0.195 0.195 0.195 0.512 0 0.707-0.098 0.098-0.226 0.146-0.354 0.146s-0.256-0.049-0.354-0.146L13.5 9.23l-1.146 1.146c-0.098 0.098-0.226 0.146-0.354 0.146s-0.256-0.049-0.354-0.146c-0.195-0.195-0.195-0.512 0-0.707l1.146-1.146-1.146-1.146c-0.195-0.195-0.195-0.512 0-0.707s0.512-0.195 0.707 0l1.146 1.146 1.146-1.146c0.195-0.195 0.512-0.195 0.707 0s0.195 0.512 2e-3 0.707zM21.373 7.377 20.227 8.523l1.146 1.146c0.195 0.195 0.195 0.512 0 0.707-0.098 0.098-0.226 0.146-0.354 0.146s-0.256-0.049-0.354-0.146L19.519 9.23l-1.146 1.146c-0.098 0.098-0.226 0.146-0.354 0.146s-0.256-0.049-0.354-0.146c-0.195-0.195-0.195-0.512 0-0.707l1.146-1.146-1.146-1.146c-0.195-0.195-0.195-0.512 0-0.707s0.512-0.195 0.707 0l1.146 1.146 1.146-1.146c0.195-0.195 0.512-0.195 0.707 0s0.195 0.512 2e-3 0.707zM9.375 7.377 8.229 8.523 9.375 9.669c0.195 0.195 0.195 0.512 0 0.707-0.098 0.098-0.226 0.146-0.354 0.146s-0.256-0.049-0.354-0.146L7.521 9.23 6.375 10.376c-0.098 0.098-0.226 0.146-0.354 0.146s-0.256-0.049-0.354-0.146c-0.195-0.195-0.195-0.512 0-0.707l1.146-1.146-1.146-1.146c-0.195-0.195-0.195-0.512 0-0.707s0.512-0.195 0.707 0L7.52 7.816 8.666 6.67c0.195-0.195 0.512-0.195 0.707 0s0.195 0.512 2e-3 0.707zM20.501 3H6.5C4.57 3 3 4.57 3 6.5v4C3 12.43 4.57 14 6.5 14h14c1.93 0 3.5-1.57 3.5-3.5v-4C24 4.57 22.43 3 20.501 3zM23.001 10.5c0 1.378-1.121 2.5-2.5 2.5H6.5C5.121 13 4 11.878 4 10.5v-4C4 5.122 5.121 4 6.5 4h14C21.879 4 23 5.122 23 6.5z" />
    <path d="M9.5 20c0 0.276-0.224 0.5-0.5 0.5H7c-0.276 0-0.5-0.224-0.5-0.5s0.224-0.5 0.5-0.5h2c0.276 0 0.5 0.224 0.5 0.5z" />
</svg>