<svg id="password_computer_Layer_1" viewBox="0 0 24 24" fill="currentColor" width="32" height="32" data-name="Layer 1" xmlns="http://www.w3.org/2000/svg" xmlns:xlink="http://www.w3.org/1999/xlink">
    <title>password-computer</title>
    <path d="M19.5 1h-15C2.019 1 0 3.019 0 5.5v9C0 16.981 2.019 19 4.5 19h7v3h-5C6.224 22 6 22.224 6 22.5S6.224 23 6.5 23h11c0.276 0 0.5-0.224 0.5-0.5S17.776 22 17.5 22h-5v-3h7c2.481 0 4.5-2.019 4.5-4.5v-9C24 3.019 21.981 1 19.5 1zM23 14.5c0 1.93-1.57 3.5-3.5 3.5h-15C2.57 18 1 16.43 1 14.5v-9C1 3.57 2.57 2 4.5 2h15C21.43 2 23 3.57 23 5.5zM14.36 8.357l-1.646 1.646 1.646 1.646c0.195 0.195 0.195 0.512 0 0.707-0.098 0.098-0.226 0.146-0.354 0.146s-0.256-0.049-0.354-0.146l-1.646-1.646-1.646 1.646c-0.098 0.098-0.226 0.146-0.354 0.146s-0.256-0.049-0.354-0.146c-0.195-0.195-0.195-0.512 0-0.707l1.646-1.646-1.646-1.646c-0.195-0.195-0.195-0.512 0-0.707s0.512-0.195 0.707 0l1.646 1.646 1.646-1.646c0.195-0.195 0.512-0.195 0.707 0s0.195 0.512 2e-3 0.707zM21.352 8.357l-1.646 1.646 1.646 1.646c0.195 0.195 0.195 0.512 0 0.707-0.098 0.098-0.226 0.146-0.354 0.146s-0.256-0.049-0.354-0.146l-1.646-1.646-1.646 1.646c-0.098 0.098-0.226 0.146-0.354 0.146s-0.256-0.049-0.354-0.146c-0.195-0.195-0.195-0.512 0-0.707l1.646-1.646-1.646-1.646c-0.195-0.195-0.195-0.512 0-0.707s0.512-0.195 0.707 0l1.646 1.646 1.646-1.646c0.195-0.195 0.512-0.195 0.707 0s0.195 0.512 2e-3 0.707zM7.361 8.35 5.715 9.996l1.646 1.646c0.195 0.195 0.195 0.512 0 0.707-0.098 0.098-0.226 0.146-0.354 0.146s-0.256-0.049-0.354-0.146l-1.646-1.646-1.646 1.646c-0.098 0.098-0.226 0.146-0.354 0.146s-0.256-0.049-0.354-0.146c-0.195-0.195-0.195-0.512 0-0.707l1.646-1.646L2.653 8.35c-0.195-0.195-0.195-0.512 0-0.707s0.512-0.195 0.707 0l1.646 1.646 1.646-1.646c0.195-0.195 0.512-0.195 0.707 0s0.195 0.512 2e-3 0.707z" />
</svg>