<svg id="password_alt_Layer_1" viewBox="0 0 24 24" fill="currentColor" width="32" height="32" data-name="Layer 1" xmlns="http://www.w3.org/2000/svg" xmlns:xlink="http://www.w3.org/1999/xlink">
    <title>password-alt</title>
    <path d="M14.854 9.854 12.708 12l2.146 2.146c0.195 0.195 0.195 0.512 0 0.707-0.098 0.098-0.226 0.146-0.354 0.146s-0.256-0.049-0.354-0.146L12 12.707 9.854 14.853c-0.098 0.098-0.226 0.146-0.354 0.146s-0.256-0.049-0.354-0.146c-0.195-0.195-0.195-0.512 0-0.707L11.292 12 9.146 9.854c-0.195-0.195-0.195-0.512 0-0.707s0.512-0.195 0.707 0l2.146 2.146 2.146-2.146c0.195-0.195 0.512-0.195 0.707 0s0.195 0.512 2e-3 0.707zM17.147 14.854C17.245 14.952 17.373 15 17.501 15s0.256-0.049 0.354-0.146l2.146-2.146 2.146 2.146C22.245 14.952 22.373 15 22.501 15s0.256-0.049 0.354-0.146c0.195-0.195 0.195-0.512 0-0.707l-2.146-2.146 2.146-2.146c0.195-0.195 0.195-0.512 0-0.707s-0.512-0.195-0.707 0l-2.146 2.146-2.146-2.146c-0.195-0.195-0.512-0.195-0.707 0s-0.195 0.512 0 0.707l2.146 2.146-2.146 2.146c-0.195 0.195-0.195 0.512-2e-3 0.707zM6.854 9.147c-0.195-0.195-0.512-0.195-0.707 0l-2.146 2.146-2.146-2.146c-0.195-0.195-0.512-0.195-0.707 0s-0.195 0.512 0 0.707L3.294 12 1.148 14.146c-0.195 0.195-0.195 0.512 0 0.707 0.098 0.098 0.226 0.146 0.354 0.146s0.256-0.049 0.354-0.146l2.146-2.146 2.146 2.146c0.098 0.098 0.226 0.146 0.354 0.146s0.256-0.049 0.354-0.146c0.195-0.195 0.195-0.512 0-0.707L4.71 12 6.856 9.854c0.195-0.195 0.195-0.512-2e-3-0.707zM6.5 1e-3h-2C2.019 0 0 2.019 0 4.5v2C0 6.776 0.224 7 0.5 7S1 6.776 1 6.5v-2C1 2.57 2.57 1 4.5 1h2C6.776 1 7 0.776 7 0.5S6.776 0 6.5 1e-3zM6.5 23.001h-2c-1.93 0-3.5-1.57-3.5-3.5v-2c0-0.276-0.224-0.5-0.5-0.5S0 17.225 0 17.501v2c0 2.481 2.019 4.5 4.5 4.5h2c0.276 0 0.5-0.224 0.5-0.5s-0.224-0.5-0.5-0.5zM23.5 17.001c-0.276 0-0.5 0.224-0.5 0.5v2c0 1.93-1.57 3.5-3.5 3.5h-2c-0.276 0-0.5 0.224-0.5 0.5s0.224 0.5 0.5 0.5h2c2.481 0 4.5-2.019 4.5-4.5v-2c0-0.276-0.224-0.5-0.5-0.5zM19.5 0h-2C17.224 0 17 0.224 17 0.5S17.224 1 17.5 1h2C21.43 1 23 2.57 23 4.5v2C23 6.776 23.224 7 23.5 7S24 6.776 24 6.5v-2C24 2.019 21.981 0 19.5 0z" />
</svg>