<svg id="passport_Layer_1" viewBox="0 0 24 24" fill="currentColor" width="32" height="32" data-name="Layer 1" xmlns="http://www.w3.org/2000/svg" xmlns:xlink="http://www.w3.org/1999/xlink">
    <title>passport</title>
    <path d="M17 19.5c0 0.276-0.224 0.5-0.5 0.5h-9C7.224 20 7 19.776 7 19.5S7.224 19 7.5 19h9c0.276 0 0.5 0.224 0.5 0.5zM22 4.5v15c0 2.481-2.019 4.5-4.5 4.5h-11C4.019 24 2 21.981 2 19.5v-15C2 2.019 4.019 0 6.5 0h11C19.981 0 22 2.019 22 4.5zM21 4.5C21 2.57 19.43 1 17.5 1h-11C4.57 1 3 2.57 3 4.5v15C3 21.43 4.57 23 6.5 23h11c1.93 0 3.5-1.57 3.5-3.5zM17.923 10.5c0 3.309-2.691 6-6 6s-6-2.691-6-6 2.691-6 6-6 6 2.691 6 6zM13.895 5.906c0.58 0.986 0.956 2.424 1.018 4.094h1.984c-0.184-1.841-1.37-3.391-3.002-4.094zM13.912 11H9.934c0.114 2.607 1.101 4.5 1.989 4.5s1.875-1.893 1.989-4.5zM13.912 10c-0.114-2.607-1.101-4.5-1.989-4.5S10.048 7.393 9.934 10zM6.948 10h1.984C8.995 8.329 9.371 6.892 9.95 5.906 8.317 6.61 7.131 8.16 6.948 10zM9.951 15.094C9.371 14.108 8.995 12.67 8.933 11H6.949c0.184 1.841 1.37 3.391 3.002 4.094zM16.898 11h-1.984c-0.063 1.671-0.439 3.108-1.018 4.094 1.633-0.704 2.819-2.254 3.002-4.094z" />
</svg>