<svg id="password_email_Layer_1" viewBox="0 0 24 24" fill="currentColor" width="32" height="32" data-name="Layer 1" xmlns="http://www.w3.org/2000/svg" xmlns:xlink="http://www.w3.org/1999/xlink">
    <title>password-email</title>
    <path d="M22.582 8.909 21.638 8.021c0.225-0.462 0.363-0.974 0.363-1.522v-3c0-1.93-1.57-3.5-3.5-3.5H5.5c-1.93 0-3.5 1.57-3.5 3.5v3c0 0.546 0.137 1.057 0.361 1.518L1.415 8.908C0.516 9.755 0 10.949 0 12.184v7.314c0 2.481 2.019 4.5 4.5 4.5h15c2.481 0 4.5-2.019 4.5-4.5v-7.312c0-1.237-0.517-2.432-1.418-3.277zM3 3.5C3 2.122 4.122 1 5.5 1h13C19.878 1 21 2.122 21 3.5v3C21 7.878 19.878 9 18.5 9h-3.705c-0.116 0-0.229 0.041-0.318 0.115l-2.334 1.93c-0.081 0.072-0.204 0.072-0.294-9e-3L9.572 9.118C9.482 9.042 9.367 9 9.25 9H5.501c-1.378 0-2.5-1.122-2.5-2.5zM2.93 8.857C3.57 9.555 4.481 10 5.5 10h3.566l2.127 1.792c0.232 0.206 0.523 0.309 0.812 0.309 0.285 0 0.567-0.1 0.789-0.297l2.182-1.803h3.525c1.018 0 1.928-0.445 2.568-1.141l0.829 0.779c0.159 0.149 0.297 0.316 0.424 0.491l-7.846 7.846c-1.365 1.365-3.585 1.365-4.95 0l-7.848-7.849c0.127-0.174 0.265-0.341 0.423-0.49zM23 19.5c0 1.93-1.57 3.5-3.5 3.5h-15C2.57 23 1 21.43 1 19.5v-7.314c0-0.385 0.081-0.759 0.203-1.119l7.615 7.615c0.877 0.877 2.03 1.316 3.182 1.316s2.305-0.439 3.182-1.316l7.614-7.614c0.123 0.36 0.203 0.735 0.203 1.121zM10.146 6.17l1.146-1.146-1.146-1.146c-0.195-0.195-0.195-0.512 0-0.707s0.512-0.195 0.707 0l1.146 1.146 1.146-1.146c0.195-0.195 0.512-0.195 0.707 0s0.195 0.512 0 0.707l-1.146 1.146 1.146 1.146c0.195 0.195 0.195 0.512 0 0.707-0.098 0.098-0.226 0.146-0.354 0.146s-0.256-0.049-0.354-0.146l-1.146-1.146-1.146 1.146c-0.098 0.098-0.226 0.146-0.354 0.146s-0.256-0.049-0.354-0.146c-0.195-0.195-0.195-0.512 2e-3-0.707zM16.165 6.17l1.146-1.146-1.146-1.146c-0.195-0.195-0.195-0.512 0-0.707s0.512-0.195 0.707 0l1.146 1.146 1.146-1.146c0.195-0.195 0.512-0.195 0.707 0s0.195 0.512 0 0.707l-1.146 1.146 1.146 1.146c0.195 0.195 0.195 0.512 0 0.707-0.098 0.098-0.226 0.146-0.354 0.146s-0.256-0.049-0.354-0.146l-1.146-1.146-1.146 1.146c-0.098 0.098-0.226 0.146-0.354 0.146s-0.256-0.049-0.354-0.146c-0.195-0.195-0.195-0.512 2e-3-0.707zM4.166 6.17 5.312 5.024 4.166 3.878c-0.195-0.195-0.195-0.512 0-0.707s0.512-0.195 0.707 0l1.146 1.146 1.146-1.146c0.195-0.195 0.512-0.195 0.707 0s0.195 0.512 0 0.707L6.726 5.024 7.872 6.17c0.195 0.195 0.195 0.512 0 0.707-0.098 0.098-0.226 0.146-0.354 0.146S7.262 6.974 7.164 6.877L6.018 5.731 4.872 6.877C4.774 6.975 4.646 7.023 4.518 7.023S4.262 6.974 4.164 6.877C3.969 6.682 3.969 6.365 4.166 6.17z" />
</svg>