<svg id="password_magnifying_glass_Layer_1" viewBox="0 0 24 24" fill="currentColor" width="32" height="32" data-name="Layer 1" xmlns="http://www.w3.org/2000/svg" xmlns:xlink="http://www.w3.org/1999/xlink">
    <title>password-magnifying-glass</title>
    <path d="M24 9.5v5c0 0.276-0.224 0.5-0.5 0.5S23 14.776 23 14.5v-5C23 7.57 21.43 6 19.5 6h-15C2.57 6 1 7.57 1 9.5v4C1 15.43 2.57 17 4.5 17h5c0.276 0 0.5 0.224 0.5 0.5S9.776 18 9.5 18h-5C2.019 18 0 15.981 0 13.5v-4C0 7.019 2.019 5 4.5 5h15C21.981 5 24 7.019 24 9.5zM8.896 13.604c0.195 0.195 0.512 0.195 0.707 0l3.5-3.5c0.195-0.195 0.195-0.512 0-0.707s-0.512-0.195-0.707 0L11 10.793 9.604 9.397c-0.195-0.195-0.512-0.195-0.707 0s-0.195 0.512 0 0.707l1.396 1.396-1.396 1.396c-0.195 0.195-0.195 0.512-1e-3 0.708zM7.001 9.397c-0.195-0.195-0.512-0.195-0.707 0l-1.396 1.396-1.396-1.396c-0.195-0.195-0.512-0.195-0.707 0s-0.195 0.512 0 0.707L4.191 11.5 2.795 12.896c-0.195 0.195-0.195 0.512 0 0.707s0.512 0.195 0.707 0l1.396-1.396 1.396 1.396c0.195 0.195 0.512 0.195 0.707 0s0.195-0.512 0-0.707L5.605 11.5l1.396-1.396c0.195-0.195 0.195-0.512 0-0.707zM23.853 23.147c0.195 0.195 0.195 0.512 0 0.707s-0.512 0.195-0.707 0l-3.853-3.853c-0.77 0.616-1.733 1-2.793 1-2.481 0-4.5-2.019-4.5-4.5s2.019-4.5 4.5-4.5 4.5 2.019 4.5 4.5c0 1.06-0.384 2.023-1 2.793zM19.999 16.501c0-1.93-1.57-3.5-3.5-3.5s-3.5 1.57-3.5 3.5 1.57 3.5 3.5 3.5 3.5-1.57 3.5-3.5z" />
</svg>