<svg id="paste_Layer_1" viewBox="0 0 24 24" fill="currentColor" width="32" height="32" data-name="Layer 1" xmlns="http://www.w3.org/2000/svg" xmlns:xlink="http://www.w3.org/1999/xlink">
    <title>paste</title>
    <path d="M4.5 3h0.55C5.28 4.14 6.29 5 7.5 5h3c1.21 0 2.22-0.86 2.45-2h0.55C15.43 3 17 4.57 17 6.5 17 6.78 17.22 7 17.5 7S18 6.78 18 6.5C18 4.02 15.98 2 13.5 2h-0.55c-0.23-1.14-1.24-2-2.45-2h-3C6.29 0 5.28 0.86 5.05 2H4.5C2.02 2 0 4.02 0 6.5v13C0 21.98 2.02 24 4.5 24h5c0.28 0 0.5-0.22 0.5-0.5S9.78 23 9.5 23h-5C2.57 23 1 21.43 1 19.5v-13C1 4.57 2.57 3 4.5 3zM7.5 1h3C11.33 1 12 1.67 12 2.5S11.33 4 10.5 4h-3C6.67 4 6 3.33 6 2.5S6.67 1 7.5 1zM20.5 9h-5c-1.93 0-3.5 1.57-3.5 3.5v8c0 1.93 1.57 3.5 3.5 3.5h5c1.93 0 3.5-1.57 3.5-3.5v-8c0-1.93-1.57-3.5-3.5-3.5zM23 20.5c0 1.38-1.12 2.5-2.5 2.5h-5c-1.38 0-2.5-1.12-2.5-2.5v-8c0-1.38 1.12-2.5 2.5-2.5h5c1.38 0 2.5 1.12 2.5 2.5zM21 13.5c0 0.28-0.22 0.5-0.5 0.5h-5c-0.28 0-0.5-0.22-0.5-0.5s0.22-0.5 0.5-0.5h5c0.28 0 0.5 0.22 0.5 0.5zM21 17.5c0 0.28-0.22 0.5-0.5 0.5h-5c-0.28 0-0.5-0.22-0.5-0.5s0.22-0.5 0.5-0.5h5c0.28 0 0.5 0.22 0.5 0.5z" />
</svg>