<svg id="patient_file_Layer_1" viewBox="0 0 24 24" fill="currentColor" width="32" height="32" data-name="Layer 1" xmlns="http://www.w3.org/2000/svg" xmlns:xlink="http://www.w3.org/1999/xlink">
    <title>patient-file</title>
    <path d="M19.5 8H19V5.242c0-0.922-0.374-1.823-1.025-2.475l-1.742-1.742C15.571 0.364 14.692 0 13.758 0H8.501c-1.93 0-3.5 1.57-3.5 3.5V6h-0.5C2.019 6 0 8.019 0 10.5v9C0 21.981 2.019 24 4.5 24h15c2.481 0 4.5-2.019 4.5-4.5v-7c0-2.481-2.019-4.5-4.5-4.5zM17.268 3.475C17.424 3.63 17.548 3.811 17.656 4H15.5C15.224 4 15 3.775 15 3.5V1.342c0.188 0.109 0.368 0.233 0.525 0.391zM6 3.5C6 2.121 7.122 1 8.5 1h5.257C13.839 1 13.919 1.016 14 1.024V3.5C14 4.327 14.673 5 15.5 5h2.476C17.984 5.081 18 5.161 18 5.242V8h-6.292c-0.386 0-0.772-0.091-1.118-0.264L7.857 6.369C7.373 6.128 6.832 6 6.292 6H6zM23 19.5c0 1.93-1.57 3.5-3.5 3.5h-15C2.57 23 1 21.43 1 19.5v-9C1 8.57 2.57 7 4.5 7h1.792C6.678 7 7.064 7.091 7.41 7.264l2.733 1.367C10.627 8.872 11.168 9 11.708 9H19.5c1.93 0 3.5 1.57 3.5 3.5zM16 16c0 0.276-0.224 0.5-0.5 0.5h-3v3c0 0.276-0.224 0.5-0.5 0.5s-0.5-0.224-0.5-0.5v-3h-3C8.224 16.5 8 16.276 8 16s0.224-0.5 0.5-0.5h3v-3c0-0.276 0.224-0.5 0.5-0.5s0.5 0.224 0.5 0.5v3h3c0.276 0 0.5 0.224 0.5 0.5z" />
</svg>