<svg id="pattern_Layer_1" viewBox="0 0 24 24" fill="currentColor" width="32" height="32" data-name="Layer 1" xmlns="http://www.w3.org/2000/svg" xmlns:xlink="http://www.w3.org/1999/xlink">
    <title>pattern</title>
    <path d="M19.5 0h-15C2.02 0 0 2.02 0 4.5v15C0 21.98 2.02 24 4.5 24h15c2.48 0 4.5-2.02 4.5-4.5v-15C24 2.02 21.98 0 19.5 0zM23 19.5c0 1.93-1.57 3.5-3.5 3.5h-15C2.57 23 1 21.43 1 19.5v-15C1 2.57 2.57 1 4.5 1h15C21.43 1 23 2.57 23 4.5zM7 10c1.65 0 3-1.35 3-3S8.65 4 7 4 4 5.35 4 7s1.35 3 3 3zM7 5c1.1 0 2 0.9 2 2S8.1 9 7 9 5 8.1 5 7 5.9 5 7 5zM15.5 10h3c0.83 0 1.5-0.67 1.5-1.5v-3C20 4.67 19.33 4 18.5 4h-3C14.67 4 14 4.67 14 5.5v3c0 0.83 0.67 1.5 1.5 1.5zM15 5.5C15 5.22 15.22 5 15.5 5h3C18.78 5 19 5.22 19 5.5v3C19 8.78 18.78 9 18.5 9h-3C15.22 9 15 8.78 15 8.5zM8.07 13.45c-0.59-0.59-1.56-0.59-2.15 0l-1.98 1.98c-0.29 0.29-0.45 0.67-0.45 1.07s0.16 0.79 0.45 1.07l1.98 1.98c0.3 0.3 0.69 0.44 1.07 0.44s0.78-0.15 1.07-0.44l1.98-1.98c0.29-0.29 0.45-0.67 0.45-1.07s-0.16-0.79-0.45-1.07zM9.34 16.87 7.36 18.85c-0.2 0.2-0.53 0.2-0.74 0l-1.98-1.98c-0.1-0.1-0.15-0.23-0.15-0.37s0.05-0.27 0.15-0.37l1.98-1.98C6.72 14.05 6.85 14 6.99 14s0.27 0.05 0.37 0.15l1.98 1.98v0c0.1 0.1 0.15 0.23 0.15 0.37s-0.05 0.27-0.15 0.37zM18.24 14.34c-0.54-0.86-1.94-0.86-2.48 0l-2.14 3.42c-0.29 0.46-0.3 1.01-0.04 1.48s0.74 0.75 1.28 0.75h4.28c0.54 0 1.02-0.28 1.28-0.75s0.25-1.03-0.04-1.48zM19.54 18.76C19.5 18.83 19.38 19 19.14 19h-4.28c-0.24 0-0.36-0.17-0.4-0.24s-0.12-0.26 0.01-0.47l2.14-3.42c0.12-0.2 0.31-0.22 0.39-0.22s0.27 0.02 0.39 0.22l2.14 3.42c0.13 0.21 0.05 0.4 0.01 0.47z" />
</svg>