<svg id="pause_circle_Layer_1" viewBox="0 0 24 24" fill="currentColor" width="32" height="32" data-name="Layer 1" xmlns="http://www.w3.org/2000/svg" xmlns:xlink="http://www.w3.org/1999/xlink">
    <title>pause-circle</title>
    <path d="M12 0C5.383 0 0 5.383 0 12s5.383 12 12 12 12-5.383 12-12S18.617 0 12 0zM12 23C5.935 23 1 18.065 1 12S5.935 1 12 1 23 5.935 23 12 18.065 23 12 23zM10 8.5v7c0 0.276-0.224 0.5-0.5 0.5S9 15.776 9 15.5v-7C9 8.224 9.224 8 9.5 8S10 8.224 10 8.5zM15 8.5v7c0 0.276-0.224 0.5-0.5 0.5S14 15.776 14 15.5v-7C14 8.224 14.224 8 14.5 8S15 8.224 15 8.5z" />
</svg>