<svg id="pause_square_Layer_1" viewBox="0 0 24 24" fill="currentColor" width="32" height="32" data-name="Layer 1" xmlns="http://www.w3.org/2000/svg" xmlns:xlink="http://www.w3.org/1999/xlink">
    <title>pause-square</title>
    <path d="M19.5 0h-15C2.019 0 0 2.019 0 4.5v15C0 21.981 2.019 24 4.5 24h15c2.481 0 4.5-2.019 4.5-4.5v-15C24 2.019 21.981 0 19.5 0zM23 19.5c0 1.93-1.57 3.5-3.5 3.5h-15C2.57 23 1 21.43 1 19.5v-15C1 2.57 2.57 1 4.5 1h15C21.43 1 23 2.57 23 4.5zM14.5 7C13.673 7 13 7.673 13 8.5v7c0 0.827 0.673 1.5 1.5 1.5s1.5-0.673 1.5-1.5v-7C16 7.673 15.327 7 14.5 7zM15 15.5c0 0.275-0.225 0.5-0.5 0.5S14 15.775 14 15.5v-7C14 8.224 14.225 8 14.5 8S15 8.224 15 8.5zM9.5 7C8.673 7 8 7.673 8 8.5v7C8 16.327 8.673 17 9.5 17s1.5-0.673 1.5-1.5v-7C11 7.673 10.327 7 9.5 7zM10 15.5c0 0.275-0.224 0.5-0.5 0.5S9 15.775 9 15.5v-7C9 8.224 9.224 8 9.5 8S10 8.224 10 8.5z" />
</svg>