<svg id="paw_Layer_1" viewBox="0 0 24 24" fill="currentColor" width="32" height="32" data-name="Layer 1" xmlns="http://www.w3.org/2000/svg" xmlns:xlink="http://www.w3.org/1999/xlink">
    <title>paw</title>
    <path d="M12 10c-3.664 0-8 5.149-8 9.5 0 2.733 1.458 4.5 3.714 4.5 1.189 0 1.814-0.312 2.366-0.588 0.518-0.259 0.966-0.483 1.919-0.483s1.401 0.224 1.919 0.483C14.47 23.688 15.095 24 16.284 24c2.256 0 3.714-1.767 3.714-4.5 0-4.351-4.336-9.5-7.998-9.5zM16.286 23c-0.953 0-1.401-0.224-1.919-0.483-0.552-0.276-1.177-0.588-2.367-0.588s-1.815 0.312-2.367 0.588C9.115 22.776 8.667 23 7.714 23 5.713 23 5 21.192 5 19.5 5 15.396 9.108 11 12 11s7 4.396 7 8.5c0 1.692-0.713 3.5-2.714 3.5zM21.353 6.017c-0.705-0.077-1.408 0.13-1.972 0.588-0.755 0.614-1.236 1.633-1.354 2.871-0.223 2.345 0.588 4.397 2.794 4.525 0.541 0 1.072-0.201 1.549-0.589 0.854-0.694 1.44-1.924 1.57-3.292 0.212-2.222-0.853-3.909-2.587-4.103zM22.947 10.026c-0.105 1.106-0.556 2.082-1.206 2.61-0.234 0.191-0.607 0.407-1.051 0.357-1.068-0.119-1.832-1.687-1.667-3.423 0.092-0.969 0.453-1.735 0.989-2.189 0.45-0.381 1.167-0.377 1.23-0.37 1.161 0.129 1.862 1.369 1.705 3.015zM15.797 8.001c1.568 0 2.938-1.653 3.171-3.893 0.114-1.088-0.075-2.058-0.546-2.803s-1.191-1.203-2.026-1.29c-1.734-0.185-3.129 1.245-3.362 3.473C12.921 4.571 13.1 5.627 13.54 6.46 14.014 7.359 14.668 8 15.797 8.001zM14.028 3.593c0.163-1.557 1.008-2.592 2.085-2.592 0.554 0 1.155 0.352 1.463 0.839 0.35 0.553 0.487 1.301 0.397 2.164-0.181 1.732-1.23 3.093-2.307 2.991-0.488-0.051-0.93-0.406-1.243-1-0.348-0.66-0.489-1.513-0.395-2.402zM20.823 14.002c0.082 5e-3-0.081 0 0 0zM8.438 7.989C9.27 7.91 9.988 7.36 10.462 6.461c0.439-0.833 0.619-1.889 0.506-2.973-0.234-2.228-1.613-3.661-3.364-3.473-0.835 0.087-1.555 0.545-2.026 1.29S4.917 3.019 5.032 4.108c0.234 2.239 1.66 4.046 3.406 3.881zM6.424 1.839C6.733 1.352 7.359 1 7.887 1 8.964 1 9.809 2.035 9.972 3.591 10.065 4.48 9.924 5.333 9.576 5.993c-0.313 0.594-0.755 0.949-1.243 1-1.066 0.102-2.126-1.257-2.307-2.991-0.09-0.862 0.047-1.61 0.398-2.163zM5.973 9.475C5.855 8.238 5.375 7.218 4.619 6.604 4.056 6.146 3.354 5.939 2.647 6.016c-1.735 0.195-2.8 1.882-2.588 4.104 0.13 1.367 0.717 2.598 1.57 3.292 0.478 0.388 1.042 0.646 1.793 0.575 1.657-0.157 2.774-2.167 2.551-4.512zM3.311 12.993c-0.447 0.05-0.817-0.167-1.051-0.357-0.65-0.528-1.101-1.503-1.206-2.61-0.156-1.646 0.58-2.704 1.705-3.015 0.462-0.127 0.921 0.119 1.23 0.37 0.545 0.443 0.896 1.221 0.989 2.189 0.165 1.736-0.598 3.304-1.667 3.423z" />
</svg>