<svg id="pay_per_click_Layer_1" viewBox="0 0 24 24" fill="currentColor" width="32" height="32" data-name="Layer 1" xmlns="http://www.w3.org/2000/svg" xmlns:xlink="http://www.w3.org/1999/xlink">
    <title>pay-per-click</title>
    <path d="M17.5 6h-2C11.916 6 9 8.916 9 12.5v4c0 4.136 3.364 7.5 7.5 7.5s7.5-3.364 7.5-7.5v-4C24 8.916 21.084 6 17.5 6zM23 12.5V13h-6V7h0.5c3.032 0 5.5 2.467 5.5 5.5zM15.5 7H16v6h-6v-0.5C10 9.467 12.467 7 15.5 7zM16.5 23c-3.584 0-6.5-2.916-6.5-6.5V14h13v2.5c0 3.584-2.916 6.5-6.5 6.5zM19.856 3.75l1.443-2.5c0.138-0.239 0.443-0.319 0.683-0.183 0.239 0.138 0.321 0.444 0.183 0.683l-1.443 2.5c-0.138 0.241-0.448 0.319-0.683 0.183-0.239-0.138-0.321-0.444-0.183-0.683zM16 3.5v-3C16 0.224 16.224 0 16.5 0S17 0.224 17 0.5v3C17 3.776 16.776 4 16.5 4S16 3.776 16 3.5zM7.433 20.039c0.138 0.239 0.056 0.545-0.183 0.683l-2.5 1.443c-0.235 0.137-0.544 0.058-0.683-0.183-0.138-0.239-0.056-0.545 0.183-0.683l2.5-1.443c0.238-0.139 0.544-0.057 0.683 0.183zM6.5 17h-3C3.224 17 3 16.776 3 16.5S3.224 16 3.5 16h3C6.776 16 7 16.224 7 16.5S6.776 17 6.5 17zM6 12c-3.309 0-6-2.691-6-6s2.691-6 6-6c2.673 0 5.047 1.794 5.774 4.364 0.075 0.266-0.079 0.542-0.345 0.617-0.263 0.076-0.542-0.079-0.617-0.345C10.207 2.495 8.228 1 6 1 3.243 1 1 3.243 1 6s2.243 5 5 5c0.153 0 0.306-7e-3 0.456-0.021 0.289-0.026 0.519 0.179 0.542 0.454 0.024 0.275-0.179 0.518-0.454 0.542C6.365 11.991 6.183 11.999 6 12zM4.5 4.622c0 0.279 0.188 0.526 0.458 0.6l2.284 0.499C7.992 5.921 8.5 6.583 8.5 7.335c0 0.918-0.748 1.666-1.666 1.666H6.5v0.5c0 0.276-0.224 0.5-0.5 0.5s-0.5-0.224-0.5-0.5v-0.5H5.166c-0.981 0-1.666-0.617-1.666-1.5 0-0.276 0.224-0.5 0.5-0.5s0.5 0.224 0.5 0.5c0 0.464 0.51 0.5 0.666 0.5h1.668c0.367 0 0.666-0.299 0.666-0.666 0-0.301-0.203-0.565-0.494-0.643L4.719 6.193c-0.729-0.198-1.22-0.841-1.22-1.57 0-0.894 0.728-1.622 1.622-1.622h0.378v-0.5c0-0.276 0.224-0.5 0.5-0.5s0.5 0.224 0.5 0.5v0.5H6.89c0.932 0 1.609 0.631 1.609 1.5 0 0.276-0.224 0.5-0.5 0.5s-0.5-0.224-0.5-0.5c0-0.476-0.507-0.5-0.609-0.5H5.12c-0.343 0-0.622 0.279-0.62 0.621z" />
</svg>