<svg id="payment_pos_Layer_1" viewBox="0 0 24 24" fill="currentColor" width="32" height="32" data-name="Layer 1" xmlns="http://www.w3.org/2000/svg" xmlns:xlink="http://www.w3.org/1999/xlink">
    <title>payment-pos</title>
    <path d="M19.416 16.101l-2.55 2.74c-0.188 0.202-0.504 0.214-0.707 0.025-0.202-0.188-0.213-0.505-0.025-0.707l2.533-2.721c0.459-0.547 0.445-1.39-0.049-1.94-0.267-0.298-0.634-0.475-1.032-0.496-0.395-0.01-0.782 0.113-1.08 0.38l-3.204 3.239C12.462 17.47 12 18.594 12 19.786V23.5c0 0.276-0.224 0.5-0.5 0.5S11 23.776 11 23.5v-3.714c0-1.458 0.565-2.832 1.591-3.868l3.226-3.26c0.52-0.467 1.158-0.7 1.824-0.654 0.666 0.036 1.277 0.33 1.722 0.826 0.824 0.919 0.848 2.325 0.053 3.271zM21.5 0h-5C15.121 0 14 1.121 14 2.5v8c0 0.276 0.224 0.5 0.5 0.5s0.5-0.224 0.5-0.5v-8C15 1.673 15.673 1 16.5 1h5C22.327 1 23 1.673 23 2.5v9c0 0.542-0.294 1.043-0.768 1.31-0.24 0.135-0.326 0.439-0.19 0.681 0.092 0.163 0.261 0.255 0.436 0.255 0.083 0 0.167-0.021 0.245-0.064C23.511 13.24 24 12.404 24 11.501V2.5C24 1.121 22.879 0 21.5 0zM8.5 23h-4C2.57 23 1 21.43 1 19.5v-15C1 2.57 2.57 1 4.5 1h8C12.776 1 13 0.776 13 0.5S12.776 0 12.5 0h-8C2.019 0 0 2.019 0 4.5v15C0 21.981 2.019 24 4.5 24h4C8.776 24 9 23.776 9 23.5S8.776 23 8.5 23zM5.3 5h6.2C11.776 5 12 4.776 12 4.5S11.776 4 11.5 4H5.3C4.583 4 4 4.583 4 5.3v1.4C4 7.417 4.583 8 5.3 8h6.2C11.776 8 12 7.776 12 7.5S11.776 7 11.5 7H5.3C5.135 7 5 6.865 5 6.7V5.3C5 5.135 5.135 5 5.3 5zM5.5 10h-1C4.224 10 4 10.224 4 10.5S4.224 11 4.5 11h1C5.776 11 6 10.776 6 10.5S5.776 10 5.5 10zM5.5 13h-1C4.224 13 4 13.224 4 13.5S4.224 14 4.5 14h1C5.776 14 6 13.776 6 13.5S5.776 13 5.5 13zM9.5 10h-1C8.224 10 8 10.224 8 10.5S8.224 11 8.5 11h1c0.276 0 0.5-0.224 0.5-0.5S9.776 10 9.5 10zM9.5 13h-1C8.224 13 8 13.224 8 13.5S8.224 14 8.5 14h1c0.276 0 0.5-0.224 0.5-0.5S9.776 13 9.5 13zM5.5 16h-1C4.224 16 4 16.224 4 16.5S4.224 17 4.5 17h1C5.776 17 6 16.776 6 16.5S5.776 16 5.5 16zM9.5 16h-1C8.224 16 8 16.224 8 16.5S8.224 17 8.5 17h1c0.276 0 0.5-0.224 0.5-0.5S9.776 16 9.5 16zM5.5 19h-1C4.224 19 4 19.224 4 19.5S4.224 20 4.5 20h1C5.776 20 6 19.776 6 19.5S5.776 19 5.5 19zM23.5 15c-0.276 0-0.5 0.224-0.5 0.5v1.099c0 1.438-0.486 2.855-1.369 3.99l-2.025 2.604c-0.17 0.218-0.131 0.532 0.088 0.701 0.091 0.071 0.199 0.105 0.307 0.105 0.148 0 0.296-0.066 0.395-0.193l2.025-2.604c1.019-1.309 1.58-2.944 1.58-4.604v-1.099c0-0.276-0.224-0.5-0.501-0.499z" />
</svg>