<svg id="payment_authentication_Layer_1" viewBox="0 0 24 24" fill="currentColor" width="32" height="32" data-name="Layer 1" xmlns="http://www.w3.org/2000/svg" xmlns:xlink="http://www.w3.org/1999/xlink">
    <title>payment-authentication</title>
    <path d="M15.5 13c-0.276 0-0.5 0.224-0.5 0.5V17H1V4.5C1 2.57 2.57 1 4.5 1h7C11.776 1 12 0.776 12 0.5S11.776 0 11.5 0h-7C2.019 0 0 2.019 0 4.5v15C0 21.981 2.019 24 4.5 24h7c2.481 0 4.5-2.019 4.5-4.5v-6c0-0.276-0.224-0.5-0.5-0.5zM15 19.5c0 1.93-1.57 3.5-3.5 3.5h-7C2.57 23 1 21.43 1 19.5V18h14zM6 20.5C6 20.224 6.224 20 6.5 20h3c0.276 0 0.5 0.224 0.5 0.5S9.776 21 9.5 21h-3C6.224 21 6 20.776 6 20.5zM21.945 3.199c0.193 0.197 0.191 0.513-6e-3 0.707l-2.006 1.975c-0.39 0.384-0.903 0.576-1.417 0.576s-1.022-0.19-1.412-0.571l-0.925-0.903c-0.197-0.193-0.201-0.51-8e-3-0.708 0.194-0.197 0.51-0.201 0.708-8e-3l0.925 0.904c0.395 0.386 1.036 0.384 1.429-2e-3l2.006-1.975c0.197-0.194 0.512-0.191 0.706 5e-3zM8.359 15.197c-0.215-0.173-0.249-0.488-0.076-0.703 0.253-0.315 0.555-0.768 0.826-1.243 0.137-0.239 0.441-0.323 0.683-0.186 0.239 0.137 0.323 0.443 0.186 0.683-0.174 0.304-0.525 0.888-0.916 1.373-0.174 0.216-0.489 0.249-0.703 0.076zM10.207 11.919c-0.271-0.053-0.448-0.315-0.395-0.586C10 10.367 10 9.489 10 8.965c0-1.083-0.881-1.964-1.964-1.964-0.557 0-1.09 0.239-1.462 0.655-0.185 0.207-0.5 0.224-0.706 0.039-0.206-0.184-0.223-0.5-0.039-0.706 0.562-0.628 1.367-0.988 2.208-0.988 1.634 0 2.964 1.33 2.964 2.964 0 0.561 0 1.499-0.207 2.56-0.051 0.273-0.322 0.448-0.587 0.394zM3 12.443c0.082 0 2.006-0.039 2.006-3.446 0-0.276 0.224-0.5 0.5-0.5s0.5 0.224 0.5 0.5c0 3.517-1.966 4.446-3.006 4.446-0.276 0-0.5-0.224-0.5-0.5s0.224-0.5 0.5-0.5zM3.5 10.501c-0.276 0-0.5-0.224-0.5-0.5v-1c0-2.757 2.252-5 5.021-5 1.086 0 2.119 0.345 2.988 0.999 0.221 0.166 0.265 0.479 0.099 0.7s-0.479 0.266-0.7 0.099c-0.694-0.521-1.52-0.797-2.387-0.797-2.217 0-4.021 1.794-4.021 4v1c0 0.276-0.224 0.5-0.5 0.499zM11.833 6.579c0.251-0.12 0.548-0.016 0.668 0.231 0.331 0.68 0.498 1.41 0.498 2.17 0 1.006 0 3.363-1.073 5.666-0.117 0.253-0.42 0.357-0.665 0.242-0.25-0.117-0.358-0.414-0.242-0.665 0.979-2.102 0.979-4.303 0.979-5.243 0-0.607-0.134-1.19-0.397-1.732-0.121-0.249-0.017-0.548 0.232-0.669zM4.787 14.995c-0.146-0.234-0.074-0.543 0.161-0.689 2.647-1.646 2.589-3.833 2.558-5.007L7.501 9c0-0.276 0.224-0.5 0.5-0.5s0.5 0.224 0.5 0.5l5e-3 0.272c0.031 1.177 0.104 3.934-3.03 5.883-0.231 0.144-0.542 0.076-0.689-0.16zM23.268 0.732C22.795 0.26 22.168 0 21.5 0h-5C15.121 2e-3 14 1.124 14 2.502v7.359c1e-3 0.438 0.246 0.831 0.639 1.024 0.391 0.193 0.852 0.15 1.2-0.119l2.303-1.767H21.5c1.378 0 2.5-1.122 2.5-2.5V2.5c0-0.668-0.26-1.296-0.732-1.768zM23 6.5C23 7.327 22.327 8 21.5 8h-3.528c-0.11 0-0.217 0.036-0.304 0.104l-2.438 1.87c-0.057 0.045-0.113 0.033-0.149 0.015s-0.079-0.054-0.079-0.127v-7.36c-2e-3-0.827 0.671-1.5 1.498-1.5h5c0 0 0-1e-3 0-1e-3 0.4 0 0.777 0.156 1.061 0.439C22.844 1.724 23 2.1 23 2.501z" />
</svg>