<svg id="payment_qrcode_Layer_1" viewBox="0 0 24 24" fill="currentColor" width="32" height="32" data-name="Layer 1" xmlns="http://www.w3.org/2000/svg" xmlns:xlink="http://www.w3.org/1999/xlink">
    <title>payment-qrcode</title>
    <path d="M11.5 1h-7C2.57 1 1 2.57 1 4.5v15C1 21.43 2.57 23 4.5 23h6c0.276 0 0.5 0.224 0.5 0.5S10.776 24 10.5 24h-6C2.019 24 0 21.981 0 19.5v-15C0 2.019 2.019 0 4.5 0h7C13.981 0 16 2.019 16 4.5v6c0 0.276-0.224 0.5-0.5 0.5S15 10.776 15 10.5v-6C15 2.57 13.43 1 11.5 1zM20 22c-0.552 0-1 0.448-1 1s0.448 1 1 1 1-0.448 1-1-0.448-1-1-1zM23 19c-0.552 0-1 0.448-1 1s0.448 1 1 1 1-0.448 1-1-0.448-1-1-1zM20 19c-0.552 0-1 0.448-1 1s0.448 1 1 1 1-0.448 1-1-0.448-1-1-1zM18 14.5v2c0 0.827-0.673 1.5-1.5 1.5h-2c-0.827 0-1.5-0.673-1.5-1.5v-2c0-0.827 0.673-1.5 1.5-1.5h2c0.827 0 1.5 0.673 1.5 1.5zM17 14.5c0-0.275-0.225-0.5-0.5-0.5h-2c-0.275 0-0.5 0.225-0.5 0.5v2c0 0.275 0.225 0.5 0.5 0.5h2c0.275 0 0.5-0.225 0.5-0.5zM18 20.5v2c0 0.827-0.673 1.5-1.5 1.5h-2c-0.827 0-1.5-0.673-1.5-1.5v-2c0-0.827 0.673-1.5 1.5-1.5h2c0.827 0 1.5 0.673 1.5 1.5zM17 20.5c0-0.275-0.225-0.5-0.5-0.5h-2c-0.275 0-0.5 0.225-0.5 0.5v2c0 0.275 0.225 0.5 0.5 0.5h2c0.275 0 0.5-0.225 0.5-0.5zM24 14.5v2c0 0.827-0.673 1.5-1.5 1.5h-2c-0.827 0-1.5-0.673-1.5-1.5v-2c0-0.827 0.673-1.5 1.5-1.5h2c0.827 0 1.5 0.673 1.5 1.5zM23 14.5c0-0.275-0.225-0.5-0.5-0.5h-2c-0.275 0-0.5 0.225-0.5 0.5v2c0 0.275 0.225 0.5 0.5 0.5h2c0.275 0 0.5-0.225 0.5-0.5zM21.5 14.75c-0.414 0-0.75 0.336-0.75 0.75s0.336 0.75 0.75 0.75 0.75-0.336 0.75-0.75-0.336-0.75-0.75-0.75zM15.5 14.75c-0.414 0-0.75 0.336-0.75 0.75s0.336 0.75 0.75 0.75 0.75-0.336 0.75-0.75-0.336-0.75-0.75-0.75zM15.5 20.75c-0.414 0-0.75 0.336-0.75 0.75s0.336 0.75 0.75 0.75 0.75-0.336 0.75-0.75-0.336-0.75-0.75-0.75zM6.5 20C6.224 20 6 20.224 6 20.5S6.224 21 6.5 21h3c0.276 0 0.5-0.224 0.5-0.5S9.776 20 9.5 20zM7.158 8h1.684C9.418 8 10 8.309 10 9c0 0.276 0.224 0.5 0.5 0.5S11 9.276 11 9c0-1.159-0.907-2-2.158-2H8.5V6.5C8.5 6.224 8.276 6 8 6S7.5 6.224 7.5 6.5V7H7.158C5.968 7 5 7.968 5 9.158c0 1.059 0.759 1.954 1.795 2.127L9.032 11.7C9.593 11.794 10 12.274 10 12.842 10 13.481 9.48 14 8.842 14H7.158C6.582 14 6 13.69 6 13c0-0.276-0.224-0.5-0.5-0.5S5 12.724 5 13c0 1.159 0.907 2 2.158 2H7.5v0.5C7.5 15.776 7.724 16 8 16s0.5-0.224 0.5-0.5V15h0.342C10.032 15 11 14.032 11 12.842c0-1.059-0.759-1.954-1.795-2.127L6.968 10.3C6.407 10.206 6 9.726 6 9.158 6 8.519 6.52 8 7.158 8z" />
</svg>