<svg id="payroll_calendar_Layer_1" viewBox="0 0 24 24" fill="currentColor" width="32" height="32" data-name="Layer 1" xmlns="http://www.w3.org/2000/svg" xmlns:xlink="http://www.w3.org/1999/xlink">
    <title>payroll-calendar</title>
    <path d="M19.5 2H18V0.5C18 0.224 17.776 0 17.5 0S17 0.224 17 0.5V2H7V0.5C7 0.224 6.776 0 6.5 0S6 0.224 6 0.5V2H4.5C2.019 2 0 4.019 0 6.5v13C0 21.981 2.019 24 4.5 24h11c0.276 0 0.5-0.224 0.5-0.5S15.776 23 15.5 23h-11C2.57 23 1 21.43 1 19.5V9h22v2.5c0 0.276 0.224 0.5 0.5 0.5s0.5-0.224 0.5-0.5v-5C24 4.019 21.981 2 19.5 2zM1 8V6.5C1 4.57 2.57 3 4.5 3h15C21.43 3 23 4.57 23 6.5V8zM18 16.395c0 0.685 0.49 1.264 1.165 1.376l2.834 0.473C23.158 18.437 24 19.431 24 20.606c0 1.32-1.074 2.395-2.395 2.395H21v0.5c0 0.276-0.224 0.5-0.5 0.5s-0.5-0.224-0.5-0.5v-0.5h-0.5c-1.379 0-2.5-1.121-2.5-2.5 0-0.276 0.224-0.5 0.5-0.5s0.5 0.224 0.5 0.5c0 0.827 0.673 1.5 1.5 1.5h2.105c0.769 0 1.395-0.626 1.395-1.395 0-0.685-0.49-1.264-1.165-1.376l-2.834-0.473C17.842 18.564 17 17.57 17 16.395 17 15.075 18.074 14 19.395 14H20v-0.5c0-0.276 0.224-0.5 0.5-0.5s0.5 0.224 0.5 0.5V14h0.5c1.379 0 2.5 1.121 2.5 2.5 0 0.276-0.224 0.5-0.5 0.5S23 16.776 23 16.5c0-0.827-0.673-1.5-1.5-1.5h-2.105C18.626 15 18 15.626 18 16.395z" />
</svg>