<svg id="pc_chair_Layer_1" viewBox="0 0 24 24" fill="currentColor" width="32" height="32" data-name="Layer 1" xmlns="http://www.w3.org/2000/svg" xmlns:xlink="http://www.w3.org/1999/xlink">
    <title>pc-chair</title>
    <path d="M23 7v7.152c-0.601 0.214-2.032 0.686-4 1.099V2.5C19 1.121 17.879 0 16.5 0h-9C6.122 0 5 1.121 5 2.5v12.751c-1.968-0.413-3.399-0.885-4-1.099V7H0v7.839c0.632 0.221 4.861 2.014 11.5 2.152V20h-4C6.122 20 5 21.121 5 22.5V24h1v-1.5C6 21.673 6.673 21 7.5 21h4v3h1v-3h4c0.827 0 1.5 0.673 1.5 1.5V24h1v-1.5c0-1.379-1.121-2.5-2.5-2.5h-4v-3.009c6.647-0.14 10.858-1.928 11.5-2.152V7zM7.5 1h9C17.327 1 18 1.673 18 2.5v10.45c-3.919-1.235-8.081-1.235-12 0V2.5C6 1.673 6.673 1 7.5 1zM6 13.995c3.91-1.305 8.088-1.305 12 0v1.45C16.27 15.758 14.223 16 12 16s-4.27-0.242-6-0.555z" />
</svg>