<svg id="pear_Layer_1" viewBox="0 0 24 24" fill="currentColor" width="32" height="32" data-name="Layer 1" xmlns="http://www.w3.org/2000/svg" xmlns:xlink="http://www.w3.org/1999/xlink">
    <title>pear</title>
    <path d="M23.974 0.658c0.087-0.262-0.054-0.545-0.316-0.632-0.263-0.087-0.545 0.054-0.632 0.316-0.436 1.307-1.735 2.168-2.221 2.451-0.913-0.84-2.056-1.434-3.317-1.67-2.575-0.48-5.152 0.496-6.728 2.549-0.788 1.026-1.818 1.673-2.9 1.821-1.875 0.256-3.609 1.059-5.015 2.322-3.382 3.038-3.657 8.351-0.626 12.096 1.983 2.449 4.677 3.936 7.393 4.079 0.148 7e-3 0.294 0.011 0.441 0.011 2.167 0 4.157-0.849 5.78-2.472 1.429-1.429 2.346-3.239 2.652-5.233 0.191-1.249 0.788-2.29 1.679-2.932 2.171-1.566 3.21-4.192 2.713-6.852-0.207-1.107-0.69-2.123-1.373-2.972 0.697-0.437 1.98-1.409 2.47-2.882zM19.579 12.552c-1.11 0.801-1.85 2.076-2.082 3.591-0.274 1.783-1.094 3.401-2.371 4.679-1.526 1.527-3.416 2.279-5.462 2.169-2.433-0.128-4.863-1.479-6.668-3.709C0.3 15.95 0.527 11.24 3.513 8.558 4.769 7.43 6.32 6.712 7.995 6.483 9.34 6.299 10.603 5.517 11.553 4.28c1.119-1.457 2.829-2.279 4.639-2.279 0.368 0 0.741 0.034 1.113 0.104 2.312 0.432 4.157 2.276 4.59 4.589 0.426 2.275-0.461 4.52-2.316 5.858zM15 15c0 0.552-0.448 1-1 1s-1-0.448-1-1 0.448-1 1-1 1 0.448 1 1zM12 18c0 0.552-0.448 1-1 1s-1-0.448-1-1 0.448-1 1-1 1 0.448 1 1z" />
</svg>