<svg id="pelvis_Layer_1" viewBox="0 0 24 24" fill="currentColor" width="32" height="32" data-name="Layer 1" xmlns="http://www.w3.org/2000/svg" xmlns:xlink="http://www.w3.org/1999/xlink">
    <title>pelvis</title>
    <path d="M23.407 14.884c0.477 0.561 0.68 1.305 0.558 2.039-0.15 0.911-0.823 1.68-1.713 1.96-0.241 0.075-0.485 0.114-0.725 0.117C21.272 19.003 21 19.165 21 19.461V23.5c0 0.276-0.224 0.5-0.5 0.5S20 23.776 20 23.5v-4.039c0-0.811 0.666-1.452 1.516-1.461 0.143 0 0.289-0.025 0.436-0.072 0.526-0.164 0.938-0.634 1.026-1.168 0.074-0.451-0.044-0.888-0.334-1.229-0.393-0.463-1.002-0.673-1.654-0.434-0.258 0.094-0.546-0.037-0.641-0.298C20.174 14.321 19.717 14 19.214 14 18.545 14 18 14.545 18 15.214c0 0.364 0.163 0.706 0.448 0.938 0.351 0.285 0.552 0.7 0.552 1.138v6.211c0 0.276-0.224 0.5-0.5 0.5s-0.5-0.224-0.5-0.5v-1.484c-0.564 0.408-1.528 0.984-2.5 0.984-1.017 0-1.773-0.68-2.44-1.278-0.549-0.486-0.724-0.651-1.06-0.733-0.336 0.082-0.511 0.247-1.06 0.733-0.667 0.599-1.423 1.278-2.44 1.278-0.972 0-1.936-0.576-2.5-0.984v1.484c0 0.276-0.224 0.5-0.5 0.5S5 23.777 5 23.501V17.29c0-0.438 0.201-0.853 0.552-1.138C5.837 15.921 6 15.579 6 15.214 6 14.545 5.455 14 4.786 14c-0.503 0-0.96 0.321-1.135 0.799-0.095 0.261-0.38 0.393-0.641 0.298-0.651-0.241-1.261-0.03-1.654 0.434-0.29 0.342-0.408 0.778-0.334 1.23 0.088 0.533 0.5 1.003 1.026 1.167 0.147 0.047 0.293 0.071 0.436 0.072C3.334 18.009 4 18.65 4 19.461V23.5C4 23.776 3.776 24 3.5 24S3 23.776 3 23.5v-4.039C3 19.165 2.729 19.003 2.473 19c-0.24-3e-3-0.484-0.042-0.725-0.117-0.89-0.28-1.562-1.049-1.713-1.959-0.122-0.735 0.082-1.479 0.558-2.04 0.565-0.666 1.438-1.007 2.323-0.846C3.316 13.403 4.02 13 4.785 13c1.221 0 2.214 0.993 2.214 2.214 0 0.666-0.298 1.291-0.817 1.713-0.116 0.095-0.183 0.227-0.183 0.362v3.468C6.595 21.258 7.621 22 8.499 22c0.633 0 1.21-0.519 1.769-1.021C10.83 20.474 11.357 20 11.999 20s1.169 0.475 1.731 0.979C14.289 21.481 14.866 22 15.499 22c0.878 0 1.904-0.742 2.5-1.243v-3.468c0-0.136-0.067-0.268-0.183-0.362-0.519-0.422-0.817-1.047-0.817-1.713 0-1.221 0.993-2.214 2.214-2.214 0.765 0 1.469 0.403 1.869 1.038 0.885-0.161 1.758 0.18 2.325 0.846zM17.567 10.519l-2.126 2.787c-0.897 1.337-2.151 2.146-3.421 2.194-1.309-0.05-2.562-0.858-3.477-2.219l-2.108-2.763c-0.363-0.54-0.503-1.188-0.4-1.8 0.122-0.747 0.638-1.345 1.378-1.597 0.796-0.271 1.666-0.087 2.27 0.478l2.153 1.85c0.096 0.082 0.235 0.082 0.332 0l2.168-1.862c0.588-0.552 1.458-0.734 2.254-0.464 0.74 0.252 1.256 0.85 1.378 1.598 0.102 0.611-0.038 1.259-0.383 1.773-5e-3 9e-3-0.011 0.017-0.018 0.025zM16.981 8.884c-0.063-0.386-0.323-0.683-0.714-0.815-0.447-0.152-0.931-0.052-1.265 0.262l-2.185 1.877c-0.474 0.406-1.161 0.405-1.633 0L9.015 8.344C8.664 8.017 8.178 7.917 7.734 8.069 7.343 8.202 7.083 8.499 7.021 8.882 6.959 9.247 7.042 9.631 7.247 9.937l2.108 2.762c0.365 0.542 1.319 1.75 2.665 1.802 1.307-0.051 2.261-1.26 2.608-1.777l2.133-2.798c0.2-0.304 0.279-0.683 0.22-1.042zM8.001 18c0 0.552 0.448 1 1 1s1-0.448 1-1-0.448-1-1-1-1 0.448-1 1zM14.001 18c0 0.552 0.448 1 1 1s1-0.448 1-1-0.448-1-1-1-1 0.448-1 1zM0.628 11.676C0.217 10.58 0 9.483 0 8.5 0 4.916 2.916 2 6.5 2 7.747 2 8.958 2.382 10 3.054V0.5C10 0.224 10.224 0 10.5 0S11 0.224 11 0.5V1h2V0.5C13 0.224 13.224 0 13.5 0S14 0.224 14 0.5v2.553C15.042 2.381 16.253 2 17.5 2 21.084 2 24 4.916 24 8.5c0 0.982-0.217 2.08-0.628 3.176-0.097 0.26-0.392 0.389-0.644 0.292-0.258-0.097-0.389-0.385-0.292-0.644 0.37-0.984 0.565-1.961 0.565-2.824 0-3.032-2.467-5.5-5.5-5.5-1.271 0-2.511 0.447-3.492 1.259-1.158 0.957-2.858 0.956-4.015 0-0.981-0.812-2.222-1.26-3.493-1.26C3.467 3 1 5.468 1 8.5c0 0.863 0.195 1.84 0.565 2.824 0.097 0.259-0.034 0.547-0.292 0.644-0.259 0.101-0.547-0.034-0.645-0.292zM11 2v1.731c0.626 0.331 1.373 0.331 2 0V2z" />
</svg>