<svg id="pen_clip_slash_Layer_1" viewBox="0 0 24 24" fill="currentColor" width="32" height="32" data-name="Layer 1" xmlns="http://www.w3.org/2000/svg" xmlns:xlink="http://www.w3.org/1999/xlink">
    <title>pen-clip-slash</title>
    <path d="M12.174 15.546c0.195 0.195 0.195 0.512 0 0.707L6.357 22.08C5.764 22.674 4.976 23 4.137 23c-0.67 0-1.307-0.209-1.839-0.594l-1.447 1.448C0.753 23.952 0.625 24 0.497 24s-0.256-0.049-0.354-0.146c-0.195-0.195-0.195-0.512 0-0.707l1.448-1.448c-0.887-1.227-0.779-2.954 0.325-4.059l5.855-5.865c0.195-0.196 0.512-0.195 0.707 0s0.195 0.512 0 0.707l-5.855 5.865c-0.834 0.835-0.834 2.193 0 3.027 0.809 0.809 2.218 0.81 3.026 0l5.817-5.826c0.195-0.196 0.512-0.195 0.708-2e-3zM23.854 23.147c0.195 0.195 0.195 0.512 0 0.707C23.756 23.952 23.628 24 23.5 24s-0.256-0.049-0.354-0.146l-23-23c-0.195-0.196-0.195-0.512 0-0.708s0.512-0.195 0.708 0l6.428 6.428 3.26-3.26c1.638-1.639 4.238-1.748 6.004-0.324l1.991-1.994c1.186-1.187 3.077-1.329 4.308-0.323 0.689 0.564 1.11 1.395 1.154 2.279 0.044 0.885-0.289 1.751-0.915 2.377l-8.517 8.529zM13.86 13.153l5.731-5.739-3.026-3.026-5.731 5.739zM17.271 3.68l3.026 3.026 2.079-2.082C22.803 4.197 23.029 3.607 23 3.003c-0.031-0.611-0.312-1.164-0.789-1.555-0.838-0.684-2.141-0.573-2.968 0.256zM7.989 7.282 10.127 9.42l5.707-5.715c-1.372-1.036-3.336-0.93-4.584 0.317z" />
</svg>