<svg id="pen_slash_Layer_1" viewBox="0 0 24 24" fill="currentColor" width="32" height="32" data-name="Layer 1" xmlns="http://www.w3.org/2000/svg" xmlns:xlink="http://www.w3.org/1999/xlink">
    <title>pen-slash</title>
    <path d="M12.327 15.619c0.195 0.195 0.195 0.512 0 0.707L6.083 22.57C5.161 23.492 3.935 24 2.632 24H0.5C0.224 24 0 23.776 0 23.5v-2.132c0-1.304 0.508-2.53 1.43-3.451l6.356-6.356c0.195-0.195 0.512-0.195 0.707 0s0.195 0.512 0 0.707l-6.356 6.356C1.404 19.356 1 20.331 1 21.368V23h1.632c1.036 0 2.011-0.403 2.744-1.137l6.244-6.244c0.195-0.195 0.512-0.195 0.707 0zM23.854 23.853c-0.098 0.098-0.226 0.146-0.354 0.146s-0.256-0.049-0.354-0.146l-23-22.999c-0.195-0.196-0.195-0.512 0-0.708s0.512-0.195 0.708 0l9.148 9.148 8.382-8.331c1.281-1.281 3.369-1.282 4.652 0s1.283 3.37 0 4.653l-8.33 8.382 9.148 9.148c0.195 0.195 0.195 0.512 0 0.707zM16.093 4.649l3.258 3.257 2.978-2.996c0.894-0.895 0.894-2.347 0-3.24s-2.346-0.893-3.239 0zM10.709 10 14 13.291l4.647-4.675-3.262-3.262z" />
</svg>