<svg id="pen_nib_slash_Layer_1" viewBox="0 0 24 24" fill="currentColor" width="32" height="32" data-name="Layer 1" xmlns="http://www.w3.org/2000/svg" xmlns:xlink="http://www.w3.org/1999/xlink">
    <title>pen-nib-slash</title>
    <path d="M18.22 17.52l2.21-6.24 3.42-3.42c0.2-0.2 0.2-0.51 0-0.71s-0.51-0.2-0.71 0l-3.15 3.15-6.29-6.29 3.15-3.15c0.2-0.2 0.2-0.51 0-0.71s-0.51-0.2-0.71 0l-3.43 3.43-6.05 2.39-5.81-5.82c-0.19-0.2-0.51-0.2-0.7 0s-0.2 0.51 0 0.7l23 23c0.1 0.1 0.23 0.15 0.35 0.15s0.26-0.05 0.35-0.15c0.2-0.2 0.2-0.51 0-0.71zM12.88 4.59l6.54 6.54-1.98 5.6-9.99-9.99zM15.35 19.03 2.53 22.96c-0.26 0.07-0.52 0.06-0.75-0.02l6.2-6.2c0.3 0.18 0.64 0.28 1.02 0.28 1.1 0 2-0.9 2-2s-0.9-2-2-2-2 0.9-2 2c0 0.37 0.1 0.72 0.28 1.02l-6.21 6.18c-0.09-0.23-0.1-0.49-0.02-0.74L4.98 8.65c0.08-0.26-0.07-0.54-0.33-0.62C4.38 7.95 4.11 8.1 4.03 8.36L0.09 21.19c-0.23 0.78-0.02 1.59 0.55 2.17C1.06 23.78 1.61 24 2.18 24c0.21 0 0.43-0.03 0.64-0.09l12.83-3.93c0.26-0.08 0.41-0.36 0.33-0.62s-0.36-0.41-0.63-0.33zM9 14.01c0.55 0 1 0.45 1 1s-0.45 1-1 1-1-0.45-1-1 0.45-1 1-1z" />
</svg>