<svg id="pen_square_Layer_1" viewBox="0 0 24 24" fill="currentColor" width="32" height="32" data-name="Layer 1" xmlns="http://www.w3.org/2000/svg" xmlns:xlink="http://www.w3.org/1999/xlink">
    <title>pen-square</title>
    <path d="M19.5 0h-15C2.019 0 0 2.019 0 4.5v15C0 21.981 2.019 24 4.5 24h15c2.481 0 4.5-2.019 4.5-4.5v-15C24 2.019 21.981 0 19.5 0zM23 19.5c0 1.93-1.57 3.5-3.5 3.5h-15C2.57 23 1 21.43 1 19.5v-15C1 2.57 2.57 1 4.5 1h15C21.43 1 23 2.57 23 4.5zM14.732 5.732 6.025 14.439C5.364 15.099 5 15.978 5 16.914V18.5C5 18.776 5.224 19 5.5 19h1.586c0.921 0 1.823-0.374 2.475-1.025l8.707-8.707c0.975-0.975 0.975-2.561 0-3.535-0.943-0.945-2.592-0.945-3.536-1e-3zM8.853 17.267c-0.465 0.466-1.11 0.732-1.768 0.732H5.999v-1.086c0-0.668 0.26-1.296 0.732-1.768l6.604-6.604 2.121 2.121zM17.56 8.56 16.164 9.956 14.043 7.835l1.396-1.396c0.566-0.566 1.555-0.566 2.121 0 0.585 0.585 0.585 1.536 0 2.121z" />
</svg>