<svg id="pen_fancy_slash_Layer_1" viewBox="0 0 24 24" fill="currentColor" width="32" height="32" data-name="Layer 1" xmlns="http://www.w3.org/2000/svg" xmlns:xlink="http://www.w3.org/1999/xlink">
    <title>pen-fancy-slash</title>
    <path d="M11.938 15.779 10.699 19.72c-0.398 1.268-1.449 2.243-2.741 2.545 0 0-7.42 1.735-7.458 1.735-0.131 0-0.259-0.052-0.354-0.146-0.122-0.122-0.173-0.299-0.133-0.468l1.722-7.344c0.303-1.293 1.278-2.344 2.544-2.742l3.941-1.239c0.268-0.081 0.545 0.064 0.627 0.327 0.083 0.263-0.063 0.544-0.326 0.627L4.58 14.254c-0.932 0.292-1.648 1.065-1.872 2.016l-1.321 5.635 3.759-3.759c0.195-0.195 0.512-0.195 0.707 0s0.195 0.512 0 0.707l-3.759 3.759 5.635-1.321c0.95-0.223 1.723-0.94 2.017-1.872l1.239-3.941c0.082-0.263 0.358-0.408 0.627-0.327 0.263 0.083 0.409 0.364 0.326 0.628zM23.853 23.147c0.195 0.195 0.195 0.512 0 0.707C23.755 23.952 23.627 24 23.499 24s-0.256-0.049-0.354-0.146l-22.999-23c-0.195-0.196-0.195-0.512 0-0.708s0.512-0.195 0.708 0l9.643 9.643 9.02-9.02c1.022-1.023 2.689-1.025 3.714 0 0.496 0.496 0.77 1.156 0.77 1.857s-0.273 1.361-0.77 1.857l-9.02 9.02zM11.203 10.497l2.3 2.3 9.02-9.021C22.831 3.468 23 3.06 23 2.626s-0.169-0.842-0.477-1.15c-0.634-0.633-1.664-0.635-2.3 0z" />
</svg>