<svg id="pencil_paintbrush_Layer_1" viewBox="0 0 24 24" fill="currentColor" width="32" height="32" data-name="Layer 1" xmlns="http://www.w3.org/2000/svg" xmlns:xlink="http://www.w3.org/1999/xlink">
    <title>pencil-paintbrush</title>
    <path d="M17.418 15C14.981 15 13 17.019 13 19.5c0 2.576 2.618 4.5 4.959 4.5h3.876c0.706 0 1.368-0.333 1.773-0.89 0.387-0.532 0.493-1.192 0.292-1.812-0.764-2.352-2.621-6.297-6.482-6.298zM22.799 22.522C22.582 22.821 22.221 23 21.835 23h-3.876C16.128 23 14 21.471 14 19.5c0-1.93 1.534-3.5 3.418-3.5 3.229 0 4.851 3.512 5.531 5.606 0.102 0.312 0.047 0.646-0.15 0.916zM23.999 3.241c0-0.867-0.336-1.681-0.948-2.292h-1e-3c-1.223-1.224-3.363-1.224-4.584 0L1.43 17.985C0.508 18.907 0 20.132 0 21.436v2.063c0 0.276 0.224 0.5 0.5 0.5h2.064c1.304 0 2.529-0.508 3.451-1.43L23.052 5.534C23.663 4.923 24 4.109 23.999 3.241zM5.308 21.863C4.575 22.596 3.6 23 2.564 23H1v-1.563c0-1.037 0.404-2.011 1.137-2.744L15.429 5.4 18.6 8.571zM22.345 4.827 19.307 7.865 16.136 4.694l3.038-3.038c0.843-0.845 2.325-0.845 3.169 0h1e-3c0.422 0.424 0.655 0.987 0.655 1.586s-0.233 1.163-0.654 1.585zM0.808 5.39C0.225 4.717-0.053 3.881 9e-3 3.016s0.456-1.653 1.108-2.219C1.772 0.23 2.604-0.047 3.474 0.015 4.339 0.077 5.127 0.471 5.692 1.124l4.193 5.057c0.176 0.213 0.147 0.528-0.065 0.704C9.605 7.062 9.291 7.032 9.116 6.82L4.929 1.771C4.545 1.327 4.001 1.055 3.402 1.012 2.809 0.97 2.226 1.16 1.774 1.552 1.321 1.945 1.049 2.49 1.006 3.088 0.964 3.687 1.155 4.265 1.547 4.716l4.784 4.968c0.191 0.199 0.186 0.515-0.014 0.707-0.097 0.093-0.222 0.14-0.347 0.14-0.131 0-0.262-0.051-0.36-0.153z" />
</svg>