<svg id="pencil_ruler_Layer_1" viewBox="0 0 24 24" fill="currentColor" width="32" height="32" data-name="Layer 1" xmlns="http://www.w3.org/2000/svg" xmlns:xlink="http://www.w3.org/1999/xlink">
    <title>pencil-ruler</title>
    <path d="M22.935 16.313c1.417 1.418 1.417 3.726 0 5.143l-1.479 1.479C20.769 23.623 19.856 24 18.885 24S17 23.622 16.314 22.935l-3.625-3.624c-0.195-0.195-0.195-0.512 0-0.707s0.512-0.195 0.707 0l3.625 3.624c0.996 0.996 2.732 0.996 3.729 0l1.479-1.479c1.027-1.027 1.027-2.7 0-3.729l-0.271-0.271-1.865 1.865c-0.098 0.098-0.226 0.146-0.354 0.146s-0.256-0.049-0.354-0.146c-0.195-0.195-0.195-0.512 0-0.707l1.865-1.865-2.239-2.239-1.864 1.864c-0.195 0.195-0.512 0.195-0.707 0s-0.195-0.512 0-0.707l2.218-2.218c0.195-0.195 0.512-0.195 0.707 0zM4.689 11.311c0.098 0.098 0.226 0.146 0.354 0.146s0.256-0.049 0.354-0.146c0.195-0.195 0.195-0.512 0-0.707L1.772 6.979c-1.027-1.028-1.027-2.701 0-3.729l1.479-1.479c0.996-0.996 2.732-0.996 3.729 0l0.521 0.521-1.864 1.864c-0.195 0.195-0.195 0.512 0 0.707 0.098 0.098 0.226 0.146 0.354 0.146S6.247 4.96 6.345 4.863l1.864-1.864 1.989 1.989-1.864 1.864c-0.195 0.195-0.195 0.512 0 0.707s0.512 0.195 0.707 0l2.218-2.218c0.195-0.195 0.195-0.512 0-0.707L7.686 1.065c-1.372-1.374-3.768-1.375-5.143 0L1.064 2.544c-1.417 1.417-1.417 3.725 1e-3 5.143zM23.035 5.622l-16.7 16.7C5.254 23.404 3.815 24 2.286 24H0.5C0.224 24 0 23.776 0 23.5v-1.785c0-1.529 0.596-2.968 1.678-4.05l16.699-16.7c1.284-1.283 3.374-1.283 4.658 0C23.657 1.587 24 2.414 24 3.294S23.657 5 23.035 5.622zM18.757 8.486 15.514 5.243 2.385 18.372C1.492 19.265 1 20.452 1 21.715V23h1.286c1.263 0 2.45-0.492 3.342-1.385zM23 3.294c0-0.613-0.238-1.188-0.672-1.622-0.894-0.895-2.349-0.895-3.244 0L16.22 4.536l3.243 3.243 2.864-2.864C22.761 4.481 22.999 3.906 23 3.294z" />
</svg>