<svg id="pencil_lightbulb_Layer_1" viewBox="0 0 24 24" fill="currentColor" width="32" height="32" data-name="Layer 1" xmlns="http://www.w3.org/2000/svg" xmlns:xlink="http://www.w3.org/1999/xlink">
    <title>pencil-lightbulb</title>
    <path d="M17.083 1.822c-1.854-1.527-4.293-2.134-6.69-1.665-3.115 0.608-5.62 3.109-6.232 6.224-0.617 3.133 0.587 6.231 3.142 8.086 1.063 0.771 1.698 2.087 1.698 3.519v1.357c0 1.184 0.48 2.344 1.318 3.182l1.328 1.329c0.186 0.194 0.521 0.194 0.707 0l1.328-1.329C14.52 21.687 15 20.527 15 19.343v-1.36c0-1.404 0.672-2.746 1.797-3.589C18.832 12.869 20 10.539 20 8c0-2.399-1.063-4.651-2.917-6.178zM14 19.343c0 0.921-0.374 1.823-1.025 2.475L12 22.793l-0.975-0.975C10.374 21.166 10 20.264 10 19.343v-1.357C10 17.65 9.962 17.322 9.906 17h4.193C14.039 17.323 14 17.65 14 17.983zM16.197 13.593c-0.827 0.62-1.449 1.462-1.817 2.406H12.5V9.948c1.416-0.24 2.5-1.466 2.5-2.949 0-0.276-0.224-0.5-0.5-0.5S14 6.723 14 6.999c0 1.103-0.897 2-2 2s-2-0.897-2-2c0-0.276-0.224-0.5-0.5-0.5S9 6.723 9 6.999c0 1.483 1.084 2.71 2.5 2.949v6.051H9.639c-0.353-0.943-0.952-1.764-1.749-2.343-2.236-1.623-3.289-4.337-2.749-7.083 0.605-3.201 3.589-5.623 6.843-5.571 3.765-0.083 7.095 3.227 7.017 6.997 0 2.22-1.021 4.259-2.804 5.594z" />
</svg>