<svg id="pencil_slash_Layer_1" viewBox="0 0 24 24" fill="currentColor" width="32" height="32" data-name="Layer 1" xmlns="http://www.w3.org/2000/svg" xmlns:xlink="http://www.w3.org/1999/xlink">
    <title>pencil-slash</title>
    <path d="M11.62 15.619 5.974 21.266l-3.24-3.239 5.76-5.76c0.195-0.195 0.195-0.512 0-0.707s-0.512-0.195-0.707 0l-6.356 6.356c-0.922 0.921-1.43 2.147-1.43 3.451v2.132c0 0.276 0.224 0.5 0.5 0.5h2.132c1.303 0 2.529-0.508 3.451-1.43l6.244-6.244c0.195-0.195 0.195-0.512 0-0.707s-0.512-0.195-0.708 1e-3zM1 23v-1.632c0-0.985 0.365-1.913 1.029-2.632l3.235 3.234c-0.719 0.665-1.648 1.029-2.632 1.029zM23.854 23.146l-9.148-9.148 8.33-8.382c1.283-1.283 1.283-3.37 0-4.653s-3.371-1.282-4.652 0l-8.383 8.331-9.147-9.148c-0.196-0.195-0.512-0.195-0.708 0s-0.195 0.512 0 0.708l23 23C23.244 23.952 23.372 24 23.5 24s0.256-0.049 0.354-0.146c0.195-0.195 0.195-0.512 0-0.708zM19.09 1.671c0.894-0.893 2.346-0.893 3.239 0 0.893 0.894 0.893 2.346 0 3.24l-2.978 2.996-3.258-3.257zM15.384 5.355l3.262 3.262-4.647 4.675-3.291-3.291z" />
</svg>