<svg id="pennant_Layer_1" viewBox="0 0 24 24" fill="currentColor" width="32" height="32" data-name="Layer 1" xmlns="http://www.w3.org/2000/svg" xmlns:xlink="http://www.w3.org/1999/xlink">
    <title>pennant</title>
    <path d="M22.281 10.125 4.051 4.458C4.628 4 5 3.292 5 2.5 5 1.122 3.879 0 2.5 0S0 1.122 0 2.5c0 1.207 0.86 2.217 2 2.45V23.5C2 23.776 2.224 24 2.5 24S3 23.776 3 23.5v-2.632l19.291-5.997C23.329 14.525 24 13.594 24 12.499s-0.671-2.025-1.719-2.374zM1 2.5C1 1.673 1.673 1 2.5 1S4 1.673 4 2.5 3.327 4 2.5 4 1 3.327 1 2.5zM21.984 13.92 3 19.821V5.179l18.975 5.897C22.731 11.328 23 11.977 23 12.499s-0.27 1.171-1.016 1.421z" />
</svg>