<svg id="people_robbery_Layer_1" viewBox="0 0 24 24" fill="currentColor" width="32" height="32" data-name="Layer 1" xmlns="http://www.w3.org/2000/svg" xmlns:xlink="http://www.w3.org/1999/xlink">
    <title>people-robbery</title>
    <path d="M3.5 5C4.878 5 6 3.879 6 2.5S4.878 0 3.5 0 1 1.121 1 2.5 2.122 5 3.5 5zM3.5 1C4.327 1 5 1.673 5 2.5S4.327 4 3.5 4 2 3.327 2 2.5 2.673 1 3.5 1zM17 5c1.379 0 2.5-1.121 2.5-2.5S18.379 0 17 0s-2.5 1.121-2.5 2.5S15.621 5 17 5zM17 1c0.827 0 1.5 0.673 1.5 1.5S17.827 4 17 4s-1.5-0.673-1.5-1.5S16.173 1 17 1zM11.5 12H9.308c-0.337 0-0.649-0.168-0.835-0.45L5.712 7.36C5.296 6.556 4.466 6.001 3.5 6.001c-1.378 0-2.5 1.121-2.5 2.5v6c0 1.208 0.86 2.217 2 2.449v6.551c0 0.276 0.224 0.5 0.5 0.5s0.5-0.224 0.5-0.5V16.95c1.14-0.232 2-1.242 2-2.449V9.616l1.638 2.486c0.371 0.563 0.996 0.899 1.67 0.899H11.5c0.276 0 0.5-0.224 0.5-0.5s-0.224-0.5-0.5-0.501zM5 14.5C5 15.327 4.327 16 3.5 16S2 15.327 2 14.5v-6C2 7.673 2.673 7 3.5 7 4.316 6.989 4.997 7.708 5 8.5zM22.5 0C22.224 0 22 0.224 22 0.5v2.687c0 0.263-0.106 0.521-0.293 0.707L19.601 6H14.4l-2.106-2.106c-0.186-0.187-0.293-0.444-0.293-0.707V0.5c0-0.276-0.224-0.5-0.5-0.5s-0.5 0.224-0.5 0.5v2.687c0 0.526 0.213 1.042 0.586 1.414l2.414 2.414V23.5c0 0.276 0.224 0.5 0.5 0.5s0.5-0.224 0.5-0.5V17h4v6.5c0 0.276 0.224 0.5 0.5 0.5s0.5-0.224 0.5-0.5V7.015l2.414-2.414c0.372-0.372 0.586-0.888 0.586-1.414V0.5c0-0.276-0.224-0.5-0.501-0.5zM19 16h-4V7h4z" />
</svg>