<svg id="people_group_Layer_1" viewBox="0 0 24 24" fill="currentColor" width="32" height="32" data-name="Layer 1" xmlns="http://www.w3.org/2000/svg" xmlns:xlink="http://www.w3.org/1999/xlink">
    <title>people-group</title>
    <path d="M12 7c1.378 0 2.5-1.122 2.5-2.5S13.378 2 12 2 9.5 3.122 9.5 4.5 10.622 7 12 7zM12 3c0.827 0 1.5 0.673 1.5 1.5S12.827 6 12 6s-1.5-0.673-1.5-1.5S11.173 3 12 3zM12.5 8h-1C9.57 8 8 9.57 8 11.5v3c0 1.391 0.822 2.585 2 3.149V23.5c0 0.276 0.224 0.5 0.5 0.5s0.5-0.224 0.5-0.5v-5.551C11.165 17.973 11.329 18 11.5 18h1c0.171 0 0.335-0.027 0.5-0.051V23.5c0 0.276 0.224 0.5 0.5 0.5s0.5-0.224 0.5-0.5v-5.851c1.178-0.564 2-1.758 2-3.149v-3C16 9.57 14.43 8 12.5 8zM15 14.5c0 1.378-1.122 2.5-2.5 2.5h-1C10.122 17 9 15.878 9 14.5v-3C9 10.122 10.122 9 11.5 9h1c1.378 0 2.5 1.122 2.5 2.5zM20 5c1.378 0 2.5-1.122 2.5-2.5S21.378 0 20 0s-2.5 1.122-2.5 2.5S18.622 5 20 5zM20 1c0.827 0 1.5 0.673 1.5 1.5S20.827 4 20 4s-1.5-0.673-1.5-1.5S19.173 1 20 1zM24 9.5v3c0 1.391-0.822 2.585-2 3.149V21.5c0 0.276-0.224 0.5-0.5 0.5S21 21.776 21 21.5v-5.551C20.835 15.973 20.671 16 20.5 16H19v5.5c0 0.276-0.224 0.5-0.5 0.5S18 21.776 18 21.5v-6c0-0.276 0.224-0.5 0.5-0.5h2c1.378 0 2.5-1.122 2.5-2.5v-3C23 8.122 21.878 7 20.5 7h-1c-0.84 0-1.619 0.418-2.083 1.118-0.153 0.229-0.463 0.292-0.693 0.14-0.23-0.153-0.292-0.463-0.14-0.693 0.651-0.979 1.741-1.564 2.917-1.564h1c1.93 0 3.5 1.57 3.499 3.499zM4 5c1.378 0 2.5-1.122 2.5-2.5S5.378 0 4 0 1.5 1.122 1.5 2.5 2.622 5 4 5zM4 1c0.827 0 1.5 0.673 1.5 1.5S4.827 4 4 4 2.5 3.327 2.5 2.5 3.173 1 4 1zM7.417 7.564c0.153 0.23 0.09 0.541-0.14 0.693-0.231 0.152-0.541 0.09-0.693-0.14-0.465-0.7-1.244-1.118-2.083-1.118h-1c-1.378 0-2.5 1.122-2.5 2.5v3c0 1.378 1.122 2.5 2.5 2.5h2c0.276 0 0.5 0.224 0.5 0.5v6c0 0.276-0.224 0.5-0.5 0.5s-0.5-0.224-0.5-0.5v-5.5h-1.5c-0.171 0-0.335-0.027-0.5-0.051v5.551c0 0.276-0.224 0.5-0.5 0.5s-0.5-0.224-0.5-0.5v-5.851c-1.178-0.564-2-1.758-2-3.149v-3c0-1.93 1.57-3.5 3.5-3.5h1c1.175 0 2.266 0.585 2.916 1.565z" />
</svg>