<svg id="people_pulling_Layer_1" viewBox="0 0 24 24" fill="currentColor" width="32" height="32" data-name="Layer 1" xmlns="http://www.w3.org/2000/svg" xmlns:xlink="http://www.w3.org/1999/xlink">
    <title>people-pulling</title>
    <path d="M23.931 23.247l-2.646-4.499c-0.329-0.559-0.805-1.015-1.377-1.318l-1.851-0.981 1.269-5.05 3.872 1.968c0.073 0.037 0.15 0.054 0.226 0.054 0.182 0 0.358-0.1 0.446-0.273 0.125-0.246 0.027-0.547-0.219-0.672l-4.075-2.071 0.349-1.39c0.184-0.724 0.029-1.478-0.426-2.07s-1.145-0.936-1.891-0.944c-0.671-7e-3-1.324 0.162-1.916 0.497l-4.741 2.858c-0.449 0.271-1.017 0.287-1.479 0.04l-5.685-3.03C3.765 6.354 3.74 6.354 3.717 6.345 3.347 6.127 2.92 5.999 2.468 5.999c-0.754 0-1.456 0.338-1.927 0.927s-0.645 1.349-0.478 2.092l1.472 6.068c0.157 0.657 0.561 1.213 1.138 1.564 0.4 0.244 0.848 0.369 1.304 0.369 0.032 0 0.064-0.011 0.096-0.012L5.72 23.62c0.057 0.228 0.261 0.379 0.485 0.379 0.04 0 0.081-5e-3 0.121-0.015 0.268-0.067 0.431-0.338 0.365-0.606L5.048 16.78c0.453-0.21 0.833-0.55 1.095-0.989 0.347-0.581 0.445-1.262 0.277-1.918L4.923 8.104 9 10.276c0.772 0.412 1.717 0.386 2.466-0.066l3.867-2.332-1.267 5.478c-0.251 1.071 0.242 2.199 1.212 2.75l4.161 2.206c0.409 0.216 0.749 0.542 0.983 0.941l2.646 4.499c0.093 0.159 0.26 0.247 0.432 0.247 0.086 0 0.173-0.022 0.253-0.069 0.238-0.14 0.317-0.447 0.178-0.683zM5.285 15.279c-0.209 0.35-0.542 0.597-0.939 0.694-0.396 0.097-0.805 0.035-1.152-0.177-0.348-0.212-0.591-0.547-0.687-0.944L1.037 8.79c-0.099-0.437 5e-3-0.889 0.285-1.239S2.019 7 2.468 7c0.669 0 1.253 0.452 1.42 1.1 0 0 0 0 0 0l1.563 6.024c0.102 0.395 0.042 0.805-0.166 1.155zM15.04 13.584l1.469-6.349c0.341-0.138 0.699-0.227 1.087-0.236 0.438 5e-3 0.842 0.207 1.109 0.554s0.358 0.79 0.25 1.215l-1.809 7.197-1.387-0.735c-0.574-0.326-0.87-1.003-0.719-1.646zM18.5 5C19.878 5 21 3.878 21 2.5S19.878 0 18.5 0 16 1.122 16 2.5 17.122 5 18.5 5zM18.5 1C19.327 1 20 1.673 20 2.5S19.327 4 18.5 4 17 3.327 17 2.5 17.673 1 18.5 1zM2.5 5C3.878 5 5 3.878 5 2.5S3.878 0 2.5 0 0 1.122 0 2.5 1.122 5 2.5 5zM2.5 1C3.327 1 4 1.673 4 2.5S3.327 4 2.5 4 1 3.327 1 2.5 1.673 1 2.5 1zM15.001 18.141l-1.618 5.5C13.319 23.859 13.12 24 12.904 24c-0.046 0-0.094-6e-3-0.141-0.021-0.265-0.078-0.417-0.355-0.338-0.621l1.618-5.5c0.078-0.264 0.353-0.419 0.621-0.338 0.265 0.078 0.417 0.355 0.337 0.621z" />
</svg>