<svg id="people_roof_Layer_1" viewBox="0 0 24 24" fill="currentColor" width="32" height="32" data-name="Layer 1" xmlns="http://www.w3.org/2000/svg" xmlns:xlink="http://www.w3.org/1999/xlink">
    <title>people-roof</title>
    <path d="M0.107 8.81c-0.171-0.216-0.134-0.531 0.082-0.702l9.036-7.149c1.636-1.278 3.915-1.28 5.549-1e-3l9.037 7.15c0.216 0.171 0.253 0.486 0.082 0.702C23.793 8.935 23.648 9 23.5 9c-0.109 0-0.219-0.035-0.311-0.108l-9.035-7.149c-1.267-0.992-3.042-0.991-4.311 1e-3L0.811 8.892C0.596 9.062 0.282 9.028 0.107 8.81zM4.445 18.003C1.911 18.283 0 20.42 0 22.973V23.5C0 23.776 0.224 24 0.5 24S1 23.776 1 23.5v-0.527c0-2.042 1.528-3.751 3.555-3.976 0.274-0.03 0.473-0.277 0.442-0.552-0.03-0.275-0.281-0.475-0.552-0.442zM7 13.5C7 14.879 5.879 16 4.5 16S2 14.879 2 13.5 3.121 11 4.5 11 7 12.122 7 13.5zM6 13.5C6 12.673 5.327 12 4.5 12S3 12.673 3 13.5 3.673 15 4.5 15 6 14.327 6 13.5zM19.555 18.003c-0.271-0.033-0.521 0.167-0.552 0.442-0.03 0.274 0.168 0.521 0.442 0.552C21.471 19.222 23 20.931 23 22.973V23.5c0 0.276 0.224 0.5 0.5 0.5s0.5-0.224 0.5-0.5v-0.527c0-2.553-1.911-4.689-4.445-4.97zM19.5 16c-1.379 0-2.5-1.121-2.5-2.5s1.121-2.5 2.5-2.5 2.5 1.122 2.5 2.5-1.121 2.5-2.5 2.5zM19.5 15c0.827 0 1.5-0.673 1.5-1.5S20.327 12 19.5 12 18 12.673 18 13.5 18.673 15 19.5 15zM15 10c0 1.654-1.346 3-3 3s-3-1.346-3-3 1.346-3 3-3 3 1.346 3 3zM14 10c0-1.103-0.897-2-2-2s-2 0.897-2 2 0.897 2 2 2 2-0.897 2-2zM12 15c-2.757 0-5 2.243-5 5v3.5C7 23.776 7.224 24 7.5 24S8 23.776 8 23.5V20c0-2.206 1.794-4 4-4s4 1.794 4 4v3.5c0 0.276 0.224 0.5 0.5 0.5s0.5-0.224 0.5-0.5V20c0-2.757-2.243-5-5-5z" />
</svg>