<svg id="people_arrows_left_right_Layer_1" viewBox="0 0 24 24" fill="currentColor" width="32" height="32" data-name="Layer 1" xmlns="http://www.w3.org/2000/svg" xmlns:xlink="http://www.w3.org/1999/xlink">
    <title>people-arrows-left-right</title>
    <path d="M4.5 5C5.88 5 7 3.88 7 2.5S5.88 0 4.5 0 2 1.12 2 2.5 3.12 5 4.5 5zM4.5 1C5.33 1 6 1.67 6 2.5S5.33 4 4.5 4 3 3.33 3 2.5 3.67 1 4.5 1zM8.11 15.83C7.8 16.18 7.42 16.46 7 16.66v6.84C7 23.78 6.78 24 6.5 24S6 23.78 6 23.5v-6.54C5.84 16.98 5.67 17 5.5 17h-2c-0.17 0-0.34-0.01-0.5-0.04v6.54C3 23.78 2.78 24 2.5 24S2 23.78 2 23.5v-6.84c-1.18-0.56-2-1.77-2-3.16v-4C0 7.57 1.57 6 3.5 6h2c0.4 0 0.79 0.07 1.17 0.2 0.26 0.09 0.4 0.38 0.3 0.64-0.09 0.26-0.38 0.4-0.64 0.3C6.06 7.05 5.78 7 5.5 7h-2C2.12 7 1 8.12 1 9.5v4C1 14.88 2.12 16 3.5 16h2c0.71 0 1.39-0.3 1.86-0.83 0.19-0.21 0.5-0.22 0.71-0.04s0.22 0.5 0.04 0.7zM19.5 5C20.88 5 22 3.88 22 2.5S20.88 0 19.5 0 17 1.12 17 2.5 18.12 5 19.5 5zM19.5 1C20.33 1 21 1.67 21 2.5S20.33 4 19.5 4 18 3.33 18 2.5 18.67 1 19.5 1zM24 9.5v4c0 1.39-0.82 2.6-2 3.16v6.84c0 0.28-0.22 0.5-0.5 0.5S21 23.78 21 23.5v-6.54C20.84 16.98 20.67 17 20.5 17h-2c-0.17 0-0.34-0.01-0.5-0.04v6.54c0 0.28-0.22 0.5-0.5 0.5S17 23.78 17 23.5v-6.84c-0.42-0.2-0.79-0.48-1.11-0.83-0.18-0.21-0.17-0.52 0.04-0.71 0.2-0.18 0.52-0.17 0.71 0.04 0.47 0.53 1.15 0.83 1.86 0.83h2c1.38 0 2.5-1.12 2.5-2.5v-4c0-1.38-1.12-2.5-2.5-2.5h-2c-0.29 0-0.57 0.05-0.83 0.14s-0.55-0.04-0.64-0.3 0.04-0.55 0.3-0.64c0.37-0.13 0.77-0.2 1.17-0.2h2c1.93 0 3.5 1.57 3.5 3.51zM16.42 11.89l-2.05 1.99c-0.1 0.09-0.22 0.14-0.35 0.14s-0.26-0.05-0.36-0.15c-0.19-0.2-0.19-0.51 0-0.71l2.04-1.99c0.06-0.06 0.1-0.12 0.14-0.18H8.12c0.04 0.07 0.09 0.13 0.15 0.19l2.04 1.98c0.2 0.19 0.2 0.51 0 0.71-0.1 0.1-0.23 0.15-0.36 0.15S9.7 13.97 9.6 13.88l-2.04-1.99c-0.38-0.38-0.58-0.88-0.58-1.38 0 0 0 0 0-0.01s0 0 0-0.01c0-0.5 0.19-1 0.58-1.38l2.05-1.99c0.2-0.19 0.51-0.19 0.71 0s0.19 0.51 0 0.71L8.28 9.82C8.22 9.88 8.18 9.94 8.14 10h7.72c-0.04-0.07-0.09-0.13-0.15-0.19l-2.04-1.98c-0.2-0.19-0.2-0.51 0-0.71 0.19-0.2 0.51-0.2 0.71 0l2.04 1.99c0.37 0.37 0.57 0.86 0.58 1.35 0 0.02 0 0.03 0 0.05s0 0.03 0 0.05c-0.01 0.49-0.2 0.97-0.58 1.33z" />
</svg>