<svg id="people_pants_Layer_1" viewBox="0 0 24 24" fill="currentColor" width="32" height="32" data-name="Layer 1" xmlns="http://www.w3.org/2000/svg" xmlns:xlink="http://www.w3.org/1999/xlink">
    <title>people-pants</title>
    <path d="M5.5 5C6.88 5 8 3.88 8 2.5S6.88 0 5.5 0 3 1.12 3 2.5 4.12 5 5.5 5zM5.5 1C6.33 1 7 1.67 7 2.5S6.33 4 5.5 4 4 3.33 4 2.5 4.67 1 5.5 1zM6.5 6h-2C2.57 6 1 7.57 1 9.5v4c0 1.39 0.82 2.6 2 3.16v6.84C3 23.78 3.22 24 3.5 24S4 23.78 4 23.5v-6.54C4.16 16.98 4.33 17 4.5 17h2c0.17 0 0.34-0.01 0.5-0.04v6.54C7 23.78 7.22 24 7.5 24S8 23.78 8 23.5v-6.84c1.18-0.56 2-1.77 2-3.16v-4C10 7.57 8.43 6 6.5 6zM9 13.5C9 14.88 7.88 16 6.5 16h-2C3.12 16 2 14.88 2 13.5v-4C2 8.12 3.12 7 4.5 7h2C7.88 7 9 8.12 9 9.5zM18.5 5C19.88 5 21 3.88 21 2.5S19.88 0 18.5 0 16 1.12 16 2.5 17.12 5 18.5 5zM18.5 1C19.33 1 20 1.67 20 2.5S19.33 4 18.5 4 17 3.33 17 2.5 17.67 1 18.5 1zM19.5 6h-2C15.57 6 14 7.57 14 9.5v4c0 1.39 0.82 2.6 2 3.16v6.84c0 0.28 0.22 0.5 0.5 0.5s0.5-0.22 0.5-0.5v-6.54c0.16 0.02 0.33 0.04 0.5 0.04h2c0.17 0 0.34-0.01 0.5-0.04v6.54c0 0.28 0.22 0.5 0.5 0.5s0.5-0.22 0.5-0.5v-6.84c1.18-0.56 2-1.77 2-3.16v-4C23 7.57 21.43 6 19.5 6zM22 13.5c0 1.38-1.12 2.5-2.5 2.5h-2c-1.38 0-2.5-1.12-2.5-2.5v-4C15 8.12 16.12 7 17.5 7h2C20.88 7 22 8.12 22 9.5z" />
</svg>