<svg id="people_dress_Layer_1" viewBox="0 0 24 24" fill="currentColor" width="32" height="32" data-name="Layer 1" xmlns="http://www.w3.org/2000/svg" xmlns:xlink="http://www.w3.org/1999/xlink">
    <title>people-dress</title>
    <path d="M5.5 5C6.88 5 8 3.88 8 2.5S6.88 0 5.5 0 3 1.12 3 2.5 4.12 5 5.5 5zM5.5 1C6.33 1 7 1.67 7 2.5S6.33 4 5.5 4 4 3.33 4 2.5 4.67 1 5.5 1zM9.31 9.11C8.94 7.31 7.33 6 5.5 6S2.06 7.31 1.69 9.11l-1.67 8.08c-0.09 0.71 0.13 1.43 0.61 1.96C1.1 19.69 1.79 20 2.5 20H3v3.5C3 23.78 3.22 24 3.5 24S4 23.78 4 23.5V20h3v3.5C7 23.78 7.22 24 7.5 24S8 23.78 8 23.5V20h0.5c0.72 0 1.4-0.31 1.87-0.85s0.69-1.25 0.6-2zM9.62 18.5c-0.28 0.32-0.69 0.51-1.12 0.51h-6c-0.43 0-0.84-0.18-1.12-0.51-0.28-0.32-0.42-0.75-0.37-1.14l1.66-8.04C2.95 7.98 4.14 7.01 5.5 7.01s2.56 0.97 2.83 2.31l1.65 8.01c0.05 0.43-0.08 0.86-0.36 1.17zM18.5 5C19.88 5 21 3.88 21 2.5S19.88 0 18.5 0 16 1.12 16 2.5 17.12 5 18.5 5zM18.5 1C19.33 1 20 1.67 20 2.5S19.33 4 18.5 4 17 3.33 17 2.5 17.67 1 18.5 1zM23.97 17.15 22.31 9.11C21.94 7.31 20.33 6 18.5 6s-3.44 1.31-3.81 3.11l-1.67 8.08c-0.09 0.71 0.13 1.43 0.61 1.96C14.1 19.69 14.79 20 15.5 20H16v3.5c0 0.28 0.22 0.5 0.5 0.5s0.5-0.22 0.5-0.5V20h3v3.5c0 0.28 0.22 0.5 0.5 0.5s0.5-0.22 0.5-0.5V20h0.5c0.72 0 1.4-0.31 1.87-0.85s0.7-1.25 0.6-2zM22.62 18.49C22.34 18.81 21.93 19 21.5 19h-6c-0.43 0-0.84-0.18-1.12-0.51-0.28-0.32-0.42-0.75-0.37-1.14l1.66-8.04C15.95 7.97 17.14 7 18.5 7s2.56 0.97 2.83 2.31l1.65 8.01c0.05 0.43-0.08 0.86-0.36 1.17z" />
</svg>