<svg id="people_carry_box_Layer_1" viewBox="0 0 24 24" fill="currentColor" width="32" height="32" data-name="Layer 1" xmlns="http://www.w3.org/2000/svg" xmlns:xlink="http://www.w3.org/1999/xlink">
    <title>people-carry-box</title>
    <path d="M5.5 5C6.878 5 8 3.879 8 2.5S6.878 0 5.5 0 3 1.121 3 2.5 4.122 5 5.5 5zM5.5 1C6.327 1 7 1.673 7 2.5S6.327 4 5.5 4 4 3.327 4 2.5 4.673 1 5.5 1zM18.5 5C19.878 5 21 3.879 21 2.5S19.878 0 18.5 0 16 1.121 16 2.5 17.122 5 18.5 5zM18.5 1C19.327 1 20 1.673 20 2.5S19.327 4 18.5 4 17 3.327 17 2.5 17.673 1 18.5 1zM2.409 18.638l-1.429 5C0.917 23.858 0.717 24 0.5 24c-0.046 0-0.092-6e-3-0.138-0.02-0.266-0.075-0.419-0.353-0.344-0.618l1.429-5c0.076-0.267 0.354-0.421 0.618-0.343 0.266 0.075 0.419 0.353 0.344 0.619zM23.92 11.894 23.056 8.725C22.73 7.146 21.324 6 19.712 6c-1.201 0-2.327 0.641-2.938 1.673l-1.229 2.073C15.178 9.295 14.626 9 14 9h-4C9.374 9 8.822 9.295 8.455 9.746L7.226 7.673C6.615 6.641 5.489 6 4.288 6 2.676 6 1.269 7.146 0.951 8.694l-0.878 3.23c-0.293 1.419 0.333 2.892 1.551 3.663L5 17.787V23.5C5 23.776 5.224 24 5.5 24S6 23.776 6 23.5v-5.983c0-0.169-0.085-0.326-0.227-0.419l-1.742-1.136 2.253-7.884c0.025 0.037 0.059 0.066 0.082 0.104l1.64 2.765c0 0.018-5e-3 0.034-5e-3 0.052v4c0 1.103 0.897 2 2 2h4c1.103 0 2-0.897 2-2v-4c0-0.018-5e-3-0.034-5e-3-0.052l1.64-2.765c0.023-0.039 0.057-0.068 0.082-0.105l2.252 7.884-1.742 1.135c-0.142 0.093-0.227 0.25-0.227 0.419v5.983c0 0.276 0.224 0.5 0.5 0.5s0.5-0.224 0.5-0.5v-5.713l3.371-2.196c1.224-0.774 1.849-2.248 1.548-3.695zM2.164 14.745c-0.875-0.553-1.322-1.605-1.12-2.589l0.878-3.229C2.152 7.811 3.147 7 4.287 7c0.417 0 0.82 0.112 1.174 0.309L3.154 15.39zM14.999 15c0 0.552-0.449 1-1 1h-4c-0.551 0-1-0.448-1-1v-4c0-0.552 0.449-1 1-1h4c0.551 0 1 0.448 1 1zM21.83 14.749l-0.984 0.642-2.309-8.081c0.355-0.197 0.758-0.309 1.174-0.309 1.14 0 2.135 0.811 2.372 1.957l0.864 3.169c0.209 1.014-0.238 2.066-1.117 2.622zM23.637 23.98C23.591 23.994 23.545 24 23.499 24c-0.217 0-0.417-0.143-0.48-0.362l-1.428-5c-0.076-0.266 0.078-0.543 0.344-0.618 0.264-0.077 0.542 0.077 0.618 0.343l1.428 5c0.076 0.266-0.078 0.543-0.344 0.617z" />
</svg>