<svg id="people_line_Layer_1" viewBox="0 0 24 24" fill="currentColor" width="32" height="32" data-name="Layer 1" xmlns="http://www.w3.org/2000/svg" xmlns:xlink="http://www.w3.org/1999/xlink">
    <title>people-line</title>
    <path d="M18 8c2.206 0 4-1.794 4-4s-1.794-4-4-4-4 1.794-4 4 1.794 4 4 4zM18 1c1.654 0 3 1.346 3 3s-1.346 3-3 3-3-1.346-3-3 1.346-3 3-3zM8 11c0 2.206 1.794 4 4 4s4-1.794 4-4-1.794-4-4-4-4 1.794-4 4zM12 8c1.654 0 3 1.346 3 3s-1.346 3-3 3-3-1.346-3-3 1.346-3 3-3zM6 8c2.206 0 4-1.794 4-4S8.206 0 6 0 2 1.794 2 4 3.794 8 6 8zM6 1c1.654 0 3 1.346 3 3S7.654 7 6 7 3 5.654 3 4 4.346 1 6 1zM23.5 23H18c0-3.309-2.691-6-6-6s-6 2.691-6 6H0.5C0.224 23 0 23.224 0 23.5S0.224 24 0.5 24h23c0.276 0 0.5-0.224 0.5-0.5S23.776 23 23.5 23zM12 18c2.757 0 5 2.243 5 5H7c0-2.757 2.243-5 5-5zM24 16v0.5c0 0.276-0.224 0.5-0.5 0.5S23 16.776 23 16.5V16c0-2.605-1.954-4.746-4.545-4.979-0.275-0.024-0.478-0.268-0.453-0.543s0.267-0.478 0.543-0.453C21.655 10.305 24 12.875 24 16zM0 16.5V16c0-3.126 2.345-5.695 5.455-5.976 0.268-0.022 0.519 0.178 0.543 0.453S5.82 10.996 5.545 11.02C2.954 11.253 1 13.394 1 15.999v0.5c0 0.276-0.224 0.5-0.5 0.5S0 16.775 0 16.5z" />
</svg>