<svg id="pepper_hot_Layer_1" viewBox="0 0 24 24" fill="currentColor" width="32" height="32" data-name="Layer 1" xmlns="http://www.w3.org/2000/svg" xmlns:xlink="http://www.w3.org/1999/xlink">
    <title>pepper-hot</title>
    <path d="M18.488 5.02C18.255 0.372 14.635 0 13.5 0 13.224 0 13 0.224 13 0.5S13.224 1 13.5 1c1.431 0 3.79 0.537 3.987 4.023C14.442 5.286 12.025 7.865 12 11c0 2.58-1.243 4-3.5 4-2.112 0-3.46-1.394-4.121-4.262C4.143 9.715 3.257 9 2.224 9 1.032 9 0.06 9.936 9e-3 11.131 3e-3 11.283 0 11.436 0 11.59c0 6.726 5.594 12.407 12.216 12.407 6.718 0 11.784-5.373 11.784-12.498v-0.542c0-3.122-2.431-5.691-5.512-5.937zM18 6c1.224 0 2.346 0.438 3.216 1.165C20.531 8.302 19.319 9 18 9s-2.519-0.691-3.206-1.819C15.664 6.445 16.783 6 18 6zM23 11.5c0 6.555-4.636 11.498-10.784 11.498C6.136 22.998 1 17.774 1 11.591c0-0.141 3e-3-0.28 9e-3-0.418 0.027-0.657 0.562-1.172 1.215-1.172 0.564 0 1.05 0.396 1.181 0.962 0.96 4.164 3.301 5.038 5.096 5.038 2.817 0 4.5-1.869 4.5-4.996 9e-3-1.163 0.413-2.234 1.081-3.084 0.887 1.295 2.342 2.08 3.919 2.08 1.585 0 3.047-0.793 3.933-2.1 0.668 0.843 1.067 1.905 1.067 3.058zM4.001 3.171V2.5c0-0.276 0.222-0.5 0.498-0.5v0c0.275 0 0.5 0.223 0.5 0.5v0.671c0 0.779 0.304 1.511 0.854 2.062 0.729 0.729 1.146 1.738 1.146 2.768v0.501c-2e-3 0.276-0.226 0.499-0.501 0.499v0c-0.276 0-0.5-0.225-0.499-0.501V8c0-0.766-0.311-1.517-0.853-2.06C4.407 5.201 4 4.218 4.001 3.171zM9.147 4.631C8.408 3.892 8.001 2.909 8.001 1.863V0.5c0-0.276 0.224-0.5 0.5-0.5s0.5 0.224 0.5 0.5v1.364c0 0.779 0.303 1.511 0.854 2.061 0.739 0.739 1.146 1.722 1.146 2.768v0.808c0 0.276-0.224 0.5-0.5 0.5s-0.5-0.224-0.5-0.5V6.693c0-0.779-0.303-1.51-0.854-2.062z" />
</svg>