<svg id="pepper_alt_Layer_1" viewBox="0 0 24 24" fill="currentColor" width="32" height="32" data-name="Layer 1" xmlns="http://www.w3.org/2000/svg" xmlns:xlink="http://www.w3.org/1999/xlink">
    <title>pepper-alt</title>
    <path d="M19.667 4c-1.594 0-3.089 1.063-3.833 2.515-0.653-1.272-1.882-2.246-3.25-2.467 0.317-1.668 0.858-2.743 1.285-3.21 0.187-0.204 0.172-0.52-0.031-0.707-0.205-0.185-0.521-0.172-0.707 0.032-0.695 0.76-1.255 2.152-1.559 3.859-1.479 0.147-2.741 1.047-3.405 2.313C7.44 4.948 5.995 4.001 4.334 4.001 1.944 4 0 5.96 0 8.371 0 11.606 3.193 24 8.5 24c1.507 0 2.817-0.781 3.493-2.013C13.066 23.324 14.24 24 15.5 24 20.905 24 24 11.717 24 8.371 24 5.961 22.057 4 19.667 4zM15.5 23c-1.776 0-3.166-2.015-4.018-3.705-0.125-0.246-0.424-0.346-0.671-0.221-0.247 0.124-0.346 0.425-0.221 0.672 0.237 0.47 0.481 0.901 0.73 1.294C10.923 22.219 9.812 23 8.5 23 4.196 23 1 11.798 1 8.371 1 6.513 2.496 5 4.333 5s3.333 1.512 3.333 3.371c0 1.646 0.58 5.112 1.653 8.29 0.07 0.208 0.265 0.34 0.474 0.34 0.053 0 0.107-9e-3 0.16-0.026 0.262-0.088 0.402-0.372 0.313-0.634-1.04-3.077-1.601-6.402-1.601-7.969 0-1.858 1.496-3.371 3.333-3.371 1.71 0 3.327 1.701 3.327 3.5 0 0.276 0.224 0.5 0.5 0.5 2e-3 0 4e-3 0 6e-3 0s4e-3 0 6e-3 0c0.276 0 0.5-0.224 0.5-0.5 0-1.799 1.617-3.5 3.327-3.5 1.838 0 3.333 1.512 3.333 3.371 0 3.536-3.112 14.629-7.497 14.628z" />
</svg>