<svg id="peppermint_tea_Layer_1" viewBox="0 0 24 24" fill="currentColor" width="32" height="32" data-name="Layer 1" xmlns="http://www.w3.org/2000/svg" xmlns:xlink="http://www.w3.org/1999/xlink">
    <title>peppermint-tea</title>
    <path d="M6 3.5v-3C6 0.224 6.224 0 6.5 0S7 0.224 7 0.5v3C7 3.776 6.776 4 6.5 4S6 3.776 6 3.5zM14.5 4C14.776 4 15 3.776 15 3.5v-3C15 0.224 14.776 0 14.5 0S14 0.224 14 0.5v3C14 3.776 14.224 4 14.5 4zM10.5 4C10.776 4 11 3.776 11 3.5v-3C11 0.224 10.776 0 10.5 0S10 0.224 10 0.5v3C10 3.776 10.224 4 10.5 4zM24 13c0 1.654-1.346 3-3 3h-2.175c-0.679 2.863-3.257 5-6.325 5h-1c-0.276 0-0.5-0.224-0.5-0.5s0.224-0.5 0.5-0.5h1c3.033 0 5.5-2.468 5.5-5.5v-6C18 7.673 17.327 7 16.5 7h-12C3.673 7 3 7.673 3 8.5v3C3 11.776 2.776 12 2.5 12S2 11.776 2 11.5v-3C2 7.121 3.122 6 4.5 6h12C17.878 6 19 7.121 19 8.5V10h2c1.654 0 3 1.346 3 3zM23 13c0-1.103-0.897-2-2-2h-2v3.5c0 0.168-6e-3 0.335-0.019 0.5H21c1.103 0 2-0.897 2-2zM20.5 23h-20C0.224 23 0 23.224 0 23.5S0.224 24 0.5 24h20c0.276 0 0.5-0.224 0.5-0.5S20.776 23 20.5 23zM0.015 18.717c0.067-0.269 0.337-0.43 0.606-0.364 0.384 0.096 0.807 0.146 1.225 0.146 0.144 0 0.287-6e-3 0.429-0.016-0.528-1.364-0.14-2.595-0.118-2.661 0.214-0.682 0.576-1.267 1.075-1.732 1.526-1.43 3.77-1.75 5.574-2.008l0.338-0.049c0.434-0.062 0.883 0.055 1.228 0.328 0.346 0.273 0.558 0.667 0.596 1.108 0.126 1.46-0.016 4.24-2.383 6.456-0.744 0.697-1.695 1.074-2.696 1.074-1.037-0.05-2.175-0.508-2.857-1.282-0.084-0.095-0.161-0.191-0.232-0.287-0.313 0.045-0.63 0.069-0.952 0.069-0.505 0-0.999-0.06-1.467-0.176-0.268-0.067-0.431-0.339-0.366-0.606zM3.29 18.313c1.488-0.397 2.874-1.44 4.349-3.244 0.174-0.215 0.489-0.246 0.704-0.07 0.214 0.175 0.246 0.489 0.071 0.703-1.487 1.82-2.96 2.956-4.523 3.472 0.492 0.499 1.145 0.79 1.855 0.824 0.802 0.032 1.563-0.246 2.155-0.802 2.059-1.927 2.181-4.36 2.071-5.64-0.014-0.163-0.093-0.309-0.221-0.41-0.107-0.085-0.236-0.129-0.371-0.129-0.03 0-0.433 0.056-0.433 0.056-1.751 0.25-3.736 0.533-5.032 1.748-0.371 0.347-0.642 0.786-0.806 1.307-0.018 0.056-0.333 1.091 0.181 2.185zM5.888 21.001c-0.063 0 0.064 3e-3 0 0z" />
</svg>