<svg id="pepper_Layer_1" viewBox="0 0 24 24" fill="currentColor" width="32" height="32" data-name="Layer 1" xmlns="http://www.w3.org/2000/svg" xmlns:xlink="http://www.w3.org/1999/xlink">
    <title>pepper</title>
    <path d="M18.488 5.02C18.255 0.372 14.635 0 13.5 0 13.224 0 13 0.224 13 0.5S13.224 1 13.5 1c1.431 0 3.79 0.537 3.987 4.023C14.442 5.286 12.025 7.864 12 11c0 2.579-1.243 4-3.5 4-2.112 0-3.46-1.394-4.121-4.262C4.143 9.715 3.257 9 2.224 9 1.032 9 0.06 9.936 9e-3 11.131 3e-3 11.283 0 11.437 0 11.591c0 6.726 5.594 12.407 12.216 12.407C18.934 23.998 24 18.625 24 11.5v-0.542c0-3.122-2.431-5.691-5.512-5.938zM18 6c1.224 0 2.346 0.438 3.216 1.165C20.531 8.302 19.318 9 18 9s-2.519-0.691-3.206-1.819C15.664 6.445 16.783 6 18 6zM23 11.5c0 6.555-4.636 11.498-10.784 11.498C6.136 22.998 1 17.774 1 11.591c0-0.141 3e-3-0.28 9e-3-0.418C1.036 10.515 1.571 10 2.224 10c0.564 0 1.05 0.396 1.181 0.963C4.365 15.126 6.706 16 8.501 16c2.817 0 4.5-1.869 4.5-4.996 9e-3-1.162 0.413-2.234 1.081-3.084 0.887 1.295 2.343 2.08 3.919 2.08 1.584 0 3.047-0.793 3.933-2.1 0.668 0.843 1.067 1.905 1.067 3.058z" />
</svg>