<svg id="peppermint_Layer_1" viewBox="0 0 24 24" fill="currentColor" width="32" height="32" data-name="Layer 1" xmlns="http://www.w3.org/2000/svg" xmlns:xlink="http://www.w3.org/1999/xlink">
    <title>peppermint</title>
    <path d="M24 2.508c5e-3-0.672-0.253-1.303-0.728-1.778-0.474-0.475-1.126-0.754-1.778-0.728-0.963 7e-3-2.032 0.097-3.198 0.27-1.638 0.315-3.417 1.388-4.285 1.964-0.166-0.54-0.536-1.011-1.091-1.179-0.467-0.152-0.971-0.084-1.384 0.186-0.721 0.469-1.685 1.225-2.514 2.314-0.208-0.278-0.511-0.473-0.864-0.543-0.505-0.1-1.012 0.067-1.359 0.448-1.313 1.436-2.036 3.072-2.245 5.1-0.358-0.127-0.752-0.113-1.105 0.046C3.03 8.796 2.726 9.16 2.615 9.605c-1.124 4.518-0.401 10-0.205 11.279l-2.263 2.263c-0.195 0.195-0.195 0.512 0 0.707C0.245 23.952 0.373 24 0.501 24s0.256-0.049 0.354-0.146l2.264-2.263c0.752 0.116 2.933 0.413 5.522 0.413 1.835 0 3.876-0.149 5.758-0.617 0.445-0.111 0.81-0.415 0.998-0.835 0.159-0.353 0.174-0.746 0.046-1.103 2.046-0.206 3.643-0.914 5.101-2.246 0.381-0.349 0.548-0.857 0.447-1.36-0.07-0.353-0.266-0.656-0.544-0.863 1.105-0.849 1.864-1.849 2.332-2.598 0.253-0.407 0.307-0.902 0.147-1.358-0.177-0.527-0.62-0.897-1.147-1.047 0.579-0.875 1.642-2.647 1.957-4.29 0.17-1.142 0.26-2.21 0.264-3.179zM22.748 5.516c-0.385 2.001-2.139 4.39-2.157 4.414-0.094 0.127-0.122 0.292-0.076 0.443 0.047 0.151 0.162 0.272 0.312 0.325l0.78 0.277c0.176 0.062 0.312 0.2 0.373 0.376 0.035 0.099 0.074 0.296-0.053 0.499-0.511 0.82-1.405 1.97-2.768 2.796-0.164 0.101-0.257 0.286-0.237 0.478 0.019 0.192 0.146 0.355 0.328 0.421l0.481 0.173c0.206 0.074 0.262 0.248 0.276 0.319 0.015 0.075 0.031 0.268-0.142 0.426-1.447 1.322-3.06 1.951-5.227 2.037-0.172 7e-3-0.327 0.102-0.413 0.249-0.086 0.148-0.09 0.33-0.011 0.482l0.254 0.486c0.069 0.133 0.074 0.287 0.013 0.424-0.062 0.138-0.182 0.237-0.328 0.273-3.714 0.925-8.22 0.529-10.15 0.287L16.854 7.855c0.195-0.195 0.195-0.512 0-0.707s-0.512-0.195-0.707 0L3.296 19.997C3.05 18.066 2.652 13.595 3.585 9.845 3.621 9.699 3.721 9.58 3.858 9.518 3.994 9.456 4.149 9.46 4.282 9.531l0.486 0.254C4.92 9.864 5.102 9.861 5.25 9.774 5.398 9.688 5.492 9.532 5.499 9.361 5.584 7.195 6.213 5.583 7.536 4.135c0.158-0.173 0.35-0.156 0.425-0.142 0.072 0.015 0.246 0.07 0.32 0.277l0.173 0.482C8.519 4.933 8.683 5.061 8.875 5.08 9.066 5.098 9.252 5.007 9.352 4.842c0.819-1.35 1.935-2.247 2.727-2.762 0.159-0.104 0.353-0.132 0.532-0.073 0.175 0.057 0.308 0.183 0.375 0.355l0.319 0.826c0.057 0.145 0.178 0.257 0.327 0.3 0.148 0.043 0.312 0.015 0.437-0.079 0.023-0.018 2.408-1.771 4.393-2.153 1.099-0.163 2.121-0.249 3.038-0.255 0.375 6e-3 0.779 0.151 1.063 0.436C22.846 1.721 23 2.098 22.998 2.5c-7e-3 0.919-0.093 1.941-0.25 3.016z" />
</svg>