<svg id="percent_80_Layer_1" viewBox="0 0 24 24" fill="currentColor" width="32" height="32" data-name="Layer 1" xmlns="http://www.w3.org/2000/svg" xmlns:xlink="http://www.w3.org/1999/xlink">
    <title>percent-80</title>
    <path d="M6.898 11.427C7.269 11.064 7.501 10.559 7.501 10c0-1.103-0.897-2-2-2s-2 0.897-2 2c0 0.559 0.232 1.064 0.603 1.427-0.665 0.45-1.103 1.211-1.103 2.073 0 1.379 1.121 2.5 2.5 2.5s2.5-1.121 2.5-2.5c0-0.862-0.438-1.623-1.103-2.073zM4.501 10c0-0.551 0.448-1 1-1s1 0.449 1 1-0.448 1-1 1-1-0.449-1-1zM5.501 15c-0.827 0-1.5-0.673-1.5-1.5s0.673-1.5 1.5-1.5 1.5 0.673 1.5 1.5-0.673 1.5-1.5 1.5zM11.5 8C10.121 8 9 9.122 9 10.5v3c0 1.379 1.121 2.5 2.5 2.5s2.5-1.121 2.5-2.5v-3C14 9.122 12.879 8 11.5 8zM13 13.5c0 0.827-0.673 1.5-1.5 1.5S10 14.327 10 13.5v-3C10 9.673 10.673 9 11.5 9S13 9.673 13 10.5zM21 14.99c0 0.547-0.443 0.99-0.99 0.99s-0.99-0.443-0.99-0.99S19.463 14 20.01 14 21 14.443 21 14.99zM15 8.99c0-0.558 0.448-1.01 1-1.01s1 0.452 1 1.01S16.552 10 16 10s-1-0.452-1-1.01zM11.984 0c-6.617 0-12 5.383-12 12s5.383 12 12 12H12c6.617 0 12-5.383 12-12S18.617 0 11.984 0zM12 23h-0.016c-6.065 0-11-4.935-11-11S5.919 1 12 1 23 5.935 23 12 18.065 23 12 23zM20.907 8.791l-5 7C15.809 15.927 15.655 16 15.5 16c-0.101 0-0.202-0.03-0.291-0.093-0.225-0.161-0.276-0.473-0.116-0.698l5-7c0.161-0.225 0.473-0.277 0.698-0.116 0.225 0.16 0.276 0.473 0.116 0.698z" />
</svg>