<svg id="percent_20_Layer_1" viewBox="0 0 24 24" fill="currentColor" width="32" height="32" data-name="Layer 1" xmlns="http://www.w3.org/2000/svg" xmlns:xlink="http://www.w3.org/1999/xlink">
    <title>percent-20</title>
    <path d="M11.5 8C10.122 8 9 9.122 9 10.5v3c0 1.378 1.122 2.5 2.5 2.5s2.5-1.122 2.5-2.5v-3C14 9.122 12.878 8 11.5 8zM13 13.5c0 0.827-0.673 1.5-1.5 1.5S10 14.327 10 13.5v-3C10 9.673 10.673 9 11.5 9S13 9.673 13 10.5zM21 14.99c0 0.547-0.443 0.99-0.99 0.99s-0.99-0.443-0.99-0.99S19.463 14 20.01 14 21 14.443 21 14.99zM15 8.99c0-0.558 0.448-1.01 1-1.01s1 0.452 1 1.01S16.552 10 16 10s-1-0.452-1-1.01zM11.984 0c-6.617 0-12 5.383-12 12s5.383 12 12 12H12c6.617 0 12-5.383 12-12S18.617 0 11.984 0zM12 23h-0.016c-6.066 0-11-4.935-11-11S5.918 1 12 1 23 5.935 23 12 18.065 23 12 23zM4 15h3.5C7.776 15 8 15.224 8 15.5S7.776 16 7.5 16H4c-0.649 0-1-0.515-1-1 0-0.96 0.973-1.625 2.003-2.328C5.985 12.001 7 11.308 7 10.5 7 9.673 6.327 9 5.5 9S4 9.673 4 10.5C4 10.776 3.776 11 3.5 11S3 10.776 3 10.5C3 9.122 4.122 8 5.5 8S8 9.122 8 10.5c0 1.336-1.292 2.219-2.433 2.998C4.833 13.999 4 14.568 4 15zM20.907 8.791l-5 7C15.809 15.928 15.656 16 15.5 16c-0.101 0-0.202-0.03-0.29-0.093-0.225-0.16-0.277-0.473-0.116-0.697l5-7c0.161-0.225 0.473-0.276 0.697-0.116 0.225 0.16 0.277 0.473 0.116 0.697z" />
</svg>