<svg id="percent_30_Layer_1" viewBox="0 0 24 24" fill="currentColor" width="32" height="32" data-name="Layer 1" xmlns="http://www.w3.org/2000/svg" xmlns:xlink="http://www.w3.org/1999/xlink">
    <title>percent-30</title>
    <path d="M11.516 8c-1.379 0-2.5 1.122-2.5 2.5v3c0 1.378 1.121 2.5 2.5 2.5s2.5-1.122 2.5-2.5v-3c0-1.378-1.121-2.5-2.5-2.5zM13.016 13.5c0 0.827-0.673 1.5-1.5 1.5s-1.5-0.673-1.5-1.5v-3c0-0.827 0.673-1.5 1.5-1.5s1.5 0.673 1.5 1.5zM21.016 14.99c0 0.547-0.443 0.99-0.99 0.99s-0.99-0.443-0.99-0.99 0.443-0.99 0.99-0.99 0.99 0.443 0.99 0.99zM15.016 8.99c0-0.558 0.448-1.01 1-1.01s1 0.452 1 1.01-0.448 1.01-1 1.01-1-0.452-1-1.01zM12 0C5.383 0 0 5.383 0 12s5.383 12 12 12h0.016c6.617 0 12-5.383 12-12S18.633 0 12 0zM12.016 23H12C5.935 23 1 18.065 1 12S5.935 1 12.016 1s11 4.935 11 11-4.935 11-11 11zM8 13.5C8 14.878 6.879 16 5.5 16h-2C3.224 16 3 15.776 3 15.5S3.224 15 3.5 15h2C6.327 15 7 14.327 7 13.5S6.327 12 5.5 12h-1C4.224 12 4 11.776 4 11.5S4.224 11 4.5 11h1c0.552 0 1-0.449 1-1s-0.448-1-1-1h-2C3.224 9 3 8.776 3 8.5S3.224 8 3.5 8h2c1.103 0 2 0.897 2 2 0 0.559-0.232 1.064-0.603 1.427C7.562 11.877 8 12.638 8 13.5zM20.907 8.791l-5 7C15.809 15.928 15.655 16 15.5 16c-0.101 0-0.202-0.03-0.291-0.093-0.225-0.16-0.276-0.473-0.116-0.697l5-7c0.161-0.225 0.472-0.276 0.698-0.116 0.225 0.16 0.276 0.473 0.116 0.697z" />
</svg>