<svg id="percent_90_Layer_1" viewBox="0 0 24 24" fill="currentColor" width="32" height="32" data-name="Layer 1" xmlns="http://www.w3.org/2000/svg" xmlns:xlink="http://www.w3.org/1999/xlink">
    <title>percent-90</title>
    <path d="M11.5 8C10.122 8 9 9.121 9 10.5v3c0 1.379 1.122 2.5 2.5 2.5s2.5-1.121 2.5-2.5v-3C14 9.121 12.878 8 11.5 8zM13 13.5c0 0.827-0.673 1.5-1.5 1.5S10 14.327 10 13.5v-3C10 9.673 10.673 9 11.5 9S13 9.673 13 10.5zM5.5 8C4.122 8 3 9.121 3 10.5S4.122 13 5.5 13c0.562 0 1.082-0.187 1.5-0.501V13.5C7 14.327 6.327 15 5.5 15H4c-0.276 0-0.5 0.224-0.5 0.5S3.724 16 4 16h1.5C6.878 16 8 14.879 8 13.5v-3C8 9.121 6.878 8 5.5 8zM5.5 12C4.673 12 4 11.327 4 10.5S4.673 9 5.5 9 7 9.673 7 10.5 6.327 12 5.5 12zM21 14.99c0 0.547-0.443 0.99-0.99 0.99s-0.99-0.443-0.99-0.99S19.463 14 20.01 14 21 14.443 21 14.99zM15 8.99c0-0.558 0.448-1.01 1-1.01s1 0.452 1 1.01S16.552 10 16 10s-1-0.452-1-1.01zM11.984 0c-6.617 0-12 5.383-12 12s5.383 12 12 12H12c6.617 0 12-5.383 12-12S18.617 0 11.984 0zM12 23h-0.016c-6.066 0-11-4.935-11-11S5.918 1 12 1 23 5.935 23 12 18.065 23 12 23zM20.907 8.791l-5 7C15.809 15.927 15.656 16 15.5 16c-0.101 0-0.202-0.03-0.29-0.093-0.225-0.161-0.277-0.473-0.116-0.698l5-7c0.161-0.223 0.474-0.275 0.697-0.116 0.225 0.161 0.277 0.473 0.116 0.698z" />
</svg>