<svg id="percent_50_Layer_1" viewBox="0 0 24 24" fill="currentColor" width="32" height="32" data-name="Layer 1" xmlns="http://www.w3.org/2000/svg" xmlns:xlink="http://www.w3.org/1999/xlink">
    <title>percent-50</title>
    <path d="M11.5 8C10.122 8 9 9.122 9 10.5v3c0 1.379 1.122 2.5 2.5 2.5s2.5-1.121 2.5-2.5v-3C14 9.122 12.878 8 11.5 8zM13 13.5c0 0.827-0.673 1.5-1.5 1.5S10 14.327 10 13.5v-3C10 9.673 10.673 9 11.5 9S13 9.673 13 10.5zM21 14.99c0 0.547-0.443 0.99-0.99 0.99s-0.99-0.443-0.99-0.99S19.463 14 20.01 14 21 14.443 21 14.99zM15 8.99c0-0.558 0.448-1.01 1-1.01s1 0.452 1 1.01S16.552 10 16 10s-1-0.452-1-1.01zM11.984 0c-6.617 0-12 5.383-12 12s5.383 12 12 12H12c6.617 0 12-5.383 12-12S18.617 0 11.984 0zM12 23h-0.016c-6.066 0-11-4.935-11-11S5.918 1 12 1 23 5.935 23 12 18.065 23 12 23zM7.279 11.736C7.751 12.21 8.01 12.84 8.008 13.51 8.003 14.883 6.881 16 5.508 16H3.5C3.224 16 3 15.776 3 15.5S3.224 15 3.5 15h2.008c0.824 0 1.497-0.67 1.5-1.494 1e-3-0.401-0.154-0.78-0.437-1.064-0.284-0.285-0.661-0.441-1.063-0.441H4.013c-0.548 0-0.997-0.446-1-0.995l-8e-3-1.497c-2e-3-0.402 0.153-0.78 0.437-1.065s0.662-0.442 1.063-0.442H7c0.276 0 0.5 0.224 0.5 0.5s-0.224 0.5-0.5 0.5H4.505c-0.134 0-0.26 0.052-0.354 0.147S4.005 9.37 4.005 9.504l8e-3 1.497h1.495c0.67 0 1.299 0.261 1.771 0.735zM20.906 8.791l-5 7C15.808 15.927 15.655 16 15.499 16c-0.101 0-0.202-0.03-0.29-0.093-0.225-0.161-0.277-0.473-0.116-0.698l5-7c0.161-0.224 0.474-0.277 0.697-0.116 0.225 0.16 0.277 0.473 0.116 0.698z" />
</svg>