<svg id="percentage_Layer_1" viewBox="0 0 24 24" fill="currentColor" width="32" height="32" data-name="Layer 1" xmlns="http://www.w3.org/2000/svg" xmlns:xlink="http://www.w3.org/1999/xlink">
    <title>percentage</title>
    <path d="M0.5 24c-0.128 0-0.256-0.049-0.354-0.146-0.195-0.195-0.195-0.512 0-0.707l23-23.001c0.195-0.195 0.512-0.195 0.707 0s0.195 0.512 0 0.707L0.854 23.854C0.756 23.952 0.628 24 0.5 24zM9 5c0-2.206-1.794-4-4-4S1 2.794 1 5 2.794 9 5 9 9 7.206 9 5zM8 5c0 1.654-1.346 3-3 3S2 6.654 2 5 3.346 2 5 2 8 3.346 8 5zM23 19c0-2.206-1.794-4-4-4s-4 1.794-4 4 1.794 4 4 4 4-1.794 4-4zM22 19c0 1.654-1.346 3-3 3s-3-1.346-3-3 1.346-3 3-3 3 1.346 3 3z" />
</svg>