<svg id="percent_75_Layer_1" viewBox="0 0 24 24" fill="currentColor" width="32" height="32" data-name="Layer 1" xmlns="http://www.w3.org/2000/svg" xmlns:xlink="http://www.w3.org/1999/xlink">
    <title>percent-75</title>
    <path d="M21 14.99c0 0.547-0.443 0.99-0.99 0.99s-0.99-0.443-0.99-0.99S19.463 14 20.01 14 21 14.443 21 14.99zM16 10c0.552 0 1-0.452 1-1.01s-0.448-1.01-1-1.01-1 0.452-1 1.01S15.448 10 16 10zM24 12c0 6.617-5.383 12-12 12h-0.016c-6.617 0-12-5.383-12-12s5.383-12 12-12S24 5.383 24 12zM23 12c0-6.065-4.935-11-11-11S0.984 5.935 0.984 12s4.935 11 11 11H12c6.065 0 11-4.935 11-11zM11.492 11H10V9.5C10 9.224 10.225 9 10.5 9H13c0.276 0 0.5-0.224 0.5-0.5S13.276 8 13 8h-2.5C9.673 8 9 8.673 9 9.5V11c0 0.551 0.448 1 1 1h1.492c0.401 0 0.778 0.157 1.062 0.441 0.283 0.285 0.438 0.663 0.438 1.064-4e-3 0.824-0.677 1.494-1.5 1.494H9.5c-0.276 0-0.5 0.224-0.5 0.5s0.224 0.5 0.5 0.5h1.992c1.372 0 2.494-1.117 2.5-2.49 2e-3-0.67-0.257-1.3-0.729-1.774C12.79 11.261 12.161 11 11.492 11zM6.837 8H3.5C3.224 8 3 8.224 3 8.5S3.224 9 3.5 9h3.337c0.079 0 0.12 0.048 0.138 0.077 0.019 0.029 0.043 0.087 0.021 0.134l-3.43 6.042c-0.137 0.24-0.053 0.546 0.188 0.682C3.832 15.98 3.917 16 4.001 16c0.174 0 0.343-0.091 0.435-0.253l3.442-6.065C8.06 9.319 8.04 8.896 7.826 8.552 7.613 8.207 7.243 8.001 6.837 8zM20.791 8.093c-0.227-0.161-0.537-0.109-0.698 0.116l-5 7c-0.16 0.226-0.108 0.537 0.116 0.698C15.298 15.969 15.399 16 15.5 16c0.155 0 0.31-0.073 0.407-0.209l5-7c0.16-0.225 0.108-0.537-0.116-0.698z" />
</svg>