<svg id="percent_70_Layer_1" viewBox="0 0 24 24" fill="currentColor" width="32" height="32" data-name="Layer 1" xmlns="http://www.w3.org/2000/svg" xmlns:xlink="http://www.w3.org/1999/xlink">
    <title>percent-70</title>
    <path d="M21 14.99c0 0.547-0.443 0.99-0.99 0.99s-0.99-0.443-0.99-0.99S19.463 14 20.01 14 21 14.443 21 14.99zM16 10c0.552 0 1-0.452 1-1.01s-0.448-1.01-1-1.01-1 0.452-1 1.01S15.448 10 16 10zM24 12c0 6.617-5.383 12-12 12h-0.016c-6.617 0-12-5.383-12-12s5.383-12 12-12S24 5.383 24 12zM23 12c0-6.065-4.935-11-11-11S0.984 5.935 0.984 12s4.935 11 11 11H12c6.065 0 11-4.935 11-11zM6.837 8H3.5C3.224 8 3 8.224 3 8.5S3.224 9 3.5 9h3.337c0.079 0 0.12 0.048 0.138 0.077 0.018 0.028 0.042 0.087 0.019 0.134l-3.429 6.042c-0.136 0.24-0.052 0.546 0.188 0.682C3.831 15.98 3.916 16 3.999 16c0.174 0 0.343-0.091 0.436-0.253l3.441-6.065c0.181-0.362 0.163-0.785-0.051-1.13S7.242 8.001 6.837 8zM14 10.5v3c0 1.379-1.122 2.5-2.5 2.5S9 14.879 9 13.5v-3C9 9.122 10.122 8 11.5 8S14 9.122 14 10.5zM13 10.5C13 9.673 12.327 9 11.5 9S10 9.673 10 10.5v3c0 0.827 0.673 1.5 1.5 1.5s1.5-0.673 1.5-1.5zM20.791 8.093c-0.226-0.161-0.538-0.109-0.698 0.116l-5 7c-0.16 0.226-0.108 0.537 0.116 0.698C15.298 15.969 15.399 16 15.5 16c0.155 0 0.31-0.073 0.407-0.209l5-7c0.16-0.225 0.108-0.537-0.116-0.698z" />
</svg>