<svg id="percent_10_Layer_1" viewBox="0 0 24 24" fill="currentColor" width="32" height="32" data-name="Layer 1" xmlns="http://www.w3.org/2000/svg" xmlns:xlink="http://www.w3.org/1999/xlink">
    <title>percent-10</title>
    <path d="M10.5 8C9.122 8 8 9.122 8 10.5v3c0 1.378 1.122 2.5 2.5 2.5s2.5-1.122 2.5-2.5v-3C13 9.122 11.878 8 10.5 8zM12 13.5c0 0.827-0.673 1.5-1.5 1.5S9 14.327 9 13.5v-3C9 9.673 9.673 9 10.5 9S12 9.673 12 10.5zM20 14.99c0 0.547-0.443 0.99-0.99 0.99s-0.99-0.443-0.99-0.99S18.463 14 19.01 14 20 14.443 20 14.99zM14.019 8.99c0-0.558 0.448-1.01 1-1.01s1 0.452 1 1.01-0.448 1.01-1 1.01-1-0.452-1-1.01zM11.984 0c-6.617 0-12 5.383-12 12s5.383 12 12 12H12c6.617 0 12-5.383 12-12S18.617 0 11.984 0zM12 23h-0.016c-6.066 0-11-4.935-11-11S5.918 1 12 1 23 5.935 23 12 18.065 23 12 23zM19.907 8.791l-5 7C14.809 15.928 14.656 16 14.5 16c-0.101 0-0.202-0.03-0.29-0.093-0.225-0.16-0.277-0.473-0.116-0.697l5-7c0.161-0.225 0.474-0.276 0.697-0.116 0.225 0.16 0.277 0.473 0.116 0.697zM7 8.869v6.632c0 0.276-0.224 0.5-0.5 0.5S6 15.777 6 15.501V9.277l-1.095 1.518c-0.163 0.223-0.475 0.272-0.699 0.111-0.223-0.163-0.273-0.475-0.111-0.699l1.373-1.892c0.3-0.309 0.673-0.383 0.996-0.248C6.79 8.202 7 8.516 7 8.869z" />
</svg>