<svg id="perfume_Layer_1" viewBox="0 0 24 24" fill="currentColor" width="32" height="32" data-name="Layer 1" xmlns="http://www.w3.org/2000/svg" xmlns:xlink="http://www.w3.org/1999/xlink">
    <title>perfume</title>
    <path d="M20 0c-2.206 0-4 1.794-4 4 0 0.522 0.107 1.017 0.29 1.475C15.004 6.63 13.478 7.339 12 7.471V5.5C12 4.122 10.879 3 9.5 3h-1C7.121 3 6 4.122 6 5.5v3.025C2.51 9.765 0 13.091 0 17c0 1.646 0.429 3.283 1.239 4.735C2.02 23.132 3.52 24 5.153 24h7.693c1.633 0 3.133-0.868 3.914-2.266 0.811-1.451 1.239-3.088 1.239-4.734 0-3.909-2.51-7.235-6-8.475V8.472c1.655-0.127 3.353-0.874 4.79-2.108C17.518 7.351 18.68 8 19.999 8c2.206 0 4-1.794 4-4S22.205 0 20 0zM7 5.5C7 4.673 7.673 4 8.5 4h1C10.327 4 11 4.673 11 5.5v2.732C10.356 8.085 9.688 8 9 8S7.644 8.085 7 8.232zM17 17c0 1.455-0.395 2.963-1.112 4.247C15.284 22.329 14.117 23 12.847 23H5.154c-1.271 0-2.437-0.672-3.041-1.753C1.395 19.963 1.001 18.455 1.001 17c0-4.411 3.589-8 8-8s8 3.589 7.999 8zM20 7c-1.654 0-3-1.346-3-3s1.346-3 3-3 3 1.346 3 3-1.346 3-3 3z" />
</svg>