<svg id="person_dolly_Layer_1" viewBox="0 0 24 24" fill="currentColor" width="32" height="32" data-name="Layer 1" xmlns="http://www.w3.org/2000/svg" xmlns:xlink="http://www.w3.org/1999/xlink">
    <title>person-dolly</title>
    <path d="M3.5 5C4.878 5 6 3.879 6 2.5S4.878 0 3.5 0 1 1.121 1 2.5 2.122 5 3.5 5zM3.5 1C4.327 1 5 1.673 5 2.5S4.327 4 3.5 4 2 3.327 2 2.5 2.673 1 3.5 1zM24.005 17.387c-0.062-0.269-0.328-0.433-0.6-0.374l-8.748 2.028-3.162-13.638c-0.062-0.269-0.334-0.435-0.6-0.374-0.269 0.062-0.437 0.331-0.375 0.601l1.245 5.371H8.118c-0.191 0-0.362-0.105-0.447-0.276L6.276 7.936C5.679 6.743 4.48 6.001 3.146 6.001 1.411 6.001 0 7.412 0 9.147v4.184c0 1.231 0.658 2.385 1.717 3.013l2.547 1.507C4.718 18.121 5 18.615 5 19.142v4.36c0 0.276 0.224 0.5 0.5 0.5s0.5-0.224 0.5-0.5v-4.36c0-0.878-0.47-1.702-1.226-2.151l-2.547-1.508C1.47 15.036 1 14.211 1 13.332V9.148c0-1.183 0.963-2.146 2.146-2.146 0.3 0 0.583 0.069 0.854 0.168v7.332c0 0.276 0.224 0.5 0.5 0.5s0.5-0.224 0.5-0.5V7.828c0.148 0.165 0.279 0.35 0.382 0.556l1.395 2.789c0.256 0.512 0.77 0.829 1.342 0.829h3.879l1.625 7.01c-0.033-1e-3-0.063-0.01-0.096-0.01-1.378 0-2.5 1.121-2.5 2.5s1.122 2.5 2.5 2.5 2.5-1.121 2.5-2.5c0-0.616-0.233-1.174-0.604-1.61l8.208-1.903c0.269-0.062 0.437-0.331 0.374-0.602zM13.526 23c-0.827 0-1.5-0.673-1.5-1.5s0.673-1.5 1.5-1.5 1.5 0.673 1.5 1.5-0.673 1.5-1.5 1.5zM2 18.5v5C2 23.776 1.776 24 1.5 24S1 23.776 1 23.5v-5C1 18.224 1.224 18 1.5 18S2 18.224 2 18.5zM15.554 14.638c0.135 0.574 0.485 1.062 0.987 1.372 0.353 0.218 0.749 0.329 1.153 0.329 0.171 0 0.344-0.02 0.515-0.061l3.108-0.738c1.178-0.279 1.912-1.467 1.636-2.646l-0.748-3.192C22.07 9.127 21.719 8.64 21.217 8.33c-0.502-0.311-1.095-0.406-1.667-0.269l-3.107 0.738c-1.179 0.279-1.913 1.467-1.636 2.646zM16.673 9.772 19.78 9.034c0.094-0.022 0.188-0.033 0.281-0.033 0.22 0 0.437 0.062 0.629 0.18 0.274 0.17 0.466 0.436 0.54 0.75l0.748 3.192c0.151 0.644-0.25 1.292-0.894 1.445l-3.108 0.738c-0.315 0.075-0.636 0.022-0.911-0.146-0.274-0.17-0.465-0.436-0.539-0.75l-0.748-3.192c-0.151-0.645 0.25-1.292 0.895-1.446z" />
</svg>