<svg id="person_dress_simple_Layer_1" viewBox="0 0 24 24" fill="currentColor" width="32" height="32" data-name="Layer 1" xmlns="http://www.w3.org/2000/svg" xmlns:xlink="http://www.w3.org/1999/xlink">
    <title>person-dress-simple</title>
    <path d="M12.5 5C13.879 5 15 3.878 15 2.5S13.879 0 12.5 0 10 1.122 10 2.5 11.121 5 12.5 5zM12.5 1C13.327 1 14 1.673 14 2.5S13.327 4 12.5 4 11 3.327 11 2.5 11.673 1 12.5 1zM17.974 17.151l-1.66-8.043c-0.371-1.8-1.975-3.107-3.813-3.107S9.059 7.308 8.688 9.108l-1.667 8.083c-0.089 0.711 0.132 1.427 0.606 1.964 0.474 0.538 1.157 0.846 1.874 0.846h0.5v3.5c0 0.276 0.224 0.5 0.5 0.5s0.5-0.224 0.5-0.5v-3.5h3v3.5c0 0.276 0.224 0.5 0.5 0.5s0.5-0.224 0.5-0.5v-3.5h0.5c0.717 0 1.4-0.308 1.874-0.846 0.475-0.537 0.695-1.253 0.599-2.004zM16.625 18.493C16.34 18.815 15.93 19 15.5 19h-6c-0.43 0-0.84-0.185-1.125-0.507-0.284-0.322-0.417-0.752-0.37-1.14l1.66-8.043C9.941 7.972 11.134 7 12.5 7s2.559 0.971 2.835 2.31l1.653 8.004c0.054 0.427-0.079 0.856-0.363 1.179z" />
</svg>