<svg id="person_harassing_Layer_1" viewBox="0 0 24 24" fill="currentColor" width="32" height="32" data-name="Layer 1" xmlns="http://www.w3.org/2000/svg" xmlns:xlink="http://www.w3.org/1999/xlink">
    <title>person-harassing</title>
    <path d="M11 2.5C11 2.224 11.224 2 11.5 2h2C13.776 2 14 2.224 14 2.5S13.776 3 13.5 3h-2C11.224 3 11 2.776 11 2.5zM10.244 5.93l1.808 1.077c0.234 0.14 0.543 0.065 0.686-0.174 0.141-0.237 0.063-0.544-0.174-0.686L10.756 5.07c-0.237-0.142-0.544-0.063-0.686 0.174s-0.063 0.544 0.174 0.686zM9 2.5C9 3.879 7.878 5 6.5 5S4 3.879 4 2.5 5.122 0 6.5 0 9 1.121 9 2.5zM8 2.5C8 1.673 7.327 1 6.5 1S5 1.673 5 2.5 5.673 4 6.5 4 8 3.327 8 2.5zM9 9.5v4c0 1.391-0.822 2.585-2 3.149V23.5C7 23.776 6.776 24 6.5 24S6 23.776 6 23.5v-6.551C5.835 16.973 5.671 17 5.5 17h-2c-0.171 0-0.335-0.027-0.5-0.051V23.5C3 23.776 2.776 24 2.5 24S2 23.776 2 23.5v-6.851c-1.178-0.564-2-1.758-2-3.149v-4C0 7.57 1.57 6 3.5 6h2C7.43 6 9 7.57 9 9.5zM8 9.5C8 8.121 6.878 7 5.5 7h-2C2.122 7 1 8.121 1 9.5v4C1 14.879 2.122 16 3.5 16h2C6.878 16 8 14.879 8 13.5zM23.903 16.191l-2.438 6.101c-0.36 1.293-1.803 2.045-3.078 1.664-0.52-0.139-0.931-0.462-1.282-0.842l-3.89-5.021c-0.09-0.088-0.173-0.081-0.248 0.021L9.94 23.737c-0.132 0.245-0.439 0.332-0.677 0.203-0.243-0.131-0.334-0.435-0.204-0.678l3.028-5.623c0.36-0.721 1.445-0.805 1.918-0.159l2.661 3.434c5e-3-0.018 5e-3-0.036 0.01-0.053l2.438-6.1c0.365-1.277 1.752-2.046 3.078-1.664 1.325 0.382 2.092 1.77 1.711 3.094zM21.915 14.058c-0.797-0.232-1.628 0.232-1.856 1.027l-2.438 6.1c-0.216 0.719 0.286 1.622 1.042 1.81 0.793 0.224 1.627-0.232 1.856-1.027l2.438-6.1c0.212-0.748-0.249-1.581-1.042-1.81zM16 10.499c0-1.379 1.122-2.5 2.5-2.5s2.5 1.121 2.5 2.5-1.122 2.5-2.5 2.5-2.5-1.121-2.5-2.5zM17 10.499c0 0.827 0.673 1.5 1.5 1.5s1.5-0.673 1.5-1.5-0.673-1.5-1.5-1.5-1.5 0.673-1.5 1.5z" />
</svg>