<svg id="person_dots_from_line_Layer_1" viewBox="0 0 24 24" fill="currentColor" width="32" height="32" data-name="Layer 1" xmlns="http://www.w3.org/2000/svg" xmlns:xlink="http://www.w3.org/1999/xlink">
    <title>person-dots-from-line</title>
    <path d="M23.5 23H18v-8.974c0.591 0.228 1.167 0.492 1.725 0.791l3.526 2.026c0.236 0.136 0.544 0.057 0.683-0.185 0.138-0.239 0.055-0.545-0.185-0.683l-3.539-2.033c-2.362-1.271-5.028-1.943-7.71-1.943h-1.051c-2.682 0-5.349 0.672-7.726 1.952l-3.475 2.028c-0.238 0.139-0.319 0.445-0.18 0.684 0.14 0.238 0.446 0.322 0.684 0.18l3.46-2.018C4.79 14.514 5.388 14.243 6 14.01v8.991H0.5c-0.276 0-0.5 0.224-0.5 0.5s0.224 0.5 0.5 0.5h23c0.276 0 0.5-0.224 0.5-0.5s-0.224-0.5-0.5-0.501zM7 13.669C8.439 13.231 9.941 13 11.449 13H12.5c1.527 0 3.047 0.236 4.5 0.683V23H7zM12 10c2.757 0 5-2.243 5-5s-2.243-5-5-5-5 2.243-5 5 2.243 5 5 5zM12 1c2.206 0 4 1.794 4 4s-1.794 4-4 4-4-1.794-4-4 1.794-4 4-4zM2 7c0-0.552 0.448-1 1-1s1 0.448 1 1-0.448 1-1 1-1-0.448-1-1zM14 17c0 0.552-0.448 1-1 1s-1-0.448-1-1 0.448-1 1-1 1 0.448 1 1zM20 9c0-0.552 0.448-1 1-1s1 0.448 1 1-0.448 1-1 1-1-0.448-1-1z" />
</svg>