<svg id="person_arrow_down_to_line_Layer_1" viewBox="0 0 24 24" fill="currentColor" width="32" height="32" data-name="Layer 1" xmlns="http://www.w3.org/2000/svg" xmlns:xlink="http://www.w3.org/1999/xlink">
    <title>person-arrow-down-to-line</title>
    <path d="M14.152 16.359c-0.198-0.192-0.203-0.509-0.011-0.707 0.193-0.2 0.509-0.202 0.707-0.012L18 18.697V3.5C18 3.224 18.224 3 18.5 3S19 3.224 19 3.5v15.198l3.152-3.057c0.198-0.19 0.514-0.188 0.707 0.012 0.192 0.198 0.188 0.515-0.011 0.707l-3.318 3.218c-0.567 0.56-1.496 0.534-2.065-5e-3zM4 2.5C4 1.121 5.122 0 6.5 0S9 1.121 9 2.5 7.878 5 6.5 5 4 3.879 4 2.5zM5 2.5C5 3.327 5.673 4 6.5 4S8 3.327 8 2.5 7.327 1 6.5 1 5 1.673 5 2.5zM24 23.5c0 0.276-0.224 0.5-0.5 0.5h-23C0.224 24 0 23.776 0 23.5S0.224 23 0.5 23H4v-6.351c-1.178-0.564-2-1.758-2-3.149v-4C2 7.57 3.57 6 5.5 6h2C9.43 6 11 7.57 11 9.5v4c0 1.391-0.822 2.585-2 3.149V23h14.5c0.276 0 0.5 0.224 0.5 0.5zM5.5 16h2c1.378 0 2.5-1.121 2.5-2.5v-4C10 8.121 8.878 7 7.5 7h-2C4.122 7 3 8.121 3 9.5v4C3 14.879 4.122 16 5.5 16zM8 16.949C7.835 16.973 7.671 17 7.5 17h-2c-0.171 0-0.335-0.027-0.5-0.051V23h3z" />
</svg>