<svg id="person_praying_Layer_1" viewBox="0 0 24 24" fill="currentColor" width="32" height="32" data-name="Layer 1" xmlns="http://www.w3.org/2000/svg" xmlns:xlink="http://www.w3.org/1999/xlink">
    <title>person-praying</title>
    <path d="M15.5 5C16.879 5 18 3.878 18 2.5S16.879 0 15.5 0 13 1.122 13 2.5 14.121 5 15.5 5zM15.5 1C16.327 1 17 1.673 17 2.5S16.327 4 15.5 4 14 3.327 14 2.5 14.673 1 15.5 1zM21.836 9.871 18.71 12.704c-0.742 0.498-1.646 0.327-2.118-0.339l-2.033-2.92-3.041 7.248C11.438 16.884 11.252 17 11.057 17c-0.065 0-0.13-0.012-0.193-0.039-0.255-0.107-0.375-0.4-0.268-0.654l3.3-7.865c-0.369-0.603-0.888-1.031-1.51-1.261-0.425-0.19-0.799-0.226-1.184-0.123-0.492 0.132-0.903 0.47-1.127 0.927l-2.827 6.58c-0.389 0.793-0.409 1.446 0.656 2.314l7.688 5.268c0.376 0.277 0.519 0.725 0.378 1.151C15.83 23.725 15.449 24 15 24H4.5C4.224 24 4 23.776 4 23.5S4.224 23 4.5 23H15l-7.694-5.321C5.98 16.6 5.683 15.486 6.34 14.147l2.827-6.58c0.361-0.738 1.004-1.268 1.775-1.476 0.607-0.163 1.222-0.109 1.824 0.165 0.911 0.336 1.677 1.024 2.126 1.924v0c0 0 3e-3 8e-3 5e-3 0.011l2.513 3.598c0.157 0.22 0.458 0.278 0.688 0.126l3.065-2.787c0.204-0.183 0.521-0.17 0.706 0.035 0.186 0.205 0.17 0.521-0.033 0.708z" />
</svg>