<svg id="person_circle_plus_Layer_1" viewBox="0 0 24 24" fill="currentColor" width="32" height="32" data-name="Layer 1" xmlns="http://www.w3.org/2000/svg" xmlns:xlink="http://www.w3.org/1999/xlink">
    <title>person-circle-plus</title>
    <path d="M6.5 5C7.879 5 9 3.879 9 2.5S7.879 0 6.5 0 4 1.121 4 2.5 5.121 5 6.5 5zM6.5 1C7.327 1 8 1.673 8 2.5S7.327 4 6.5 4 5 3.327 5 2.5 5.673 1 6.5 1zM11 12.5c0 0.276-0.224 0.5-0.5 0.5S10 12.776 10 12.5v-3C10 8.121 8.879 7 7.5 7h-2C4.121 7 3 8.121 3 9.5v4C3 14.879 4.121 16 5.5 16h2c0.285 0 0.566-0.048 0.834-0.143 0.153-0.052 0.323-0.03 0.455 0.063S9 16.166 9 16.328v7.171c0 0.276-0.224 0.5-0.5 0.5S8 23.775 8 23.499v-6.535c-0.165 0.023-0.332 0.035-0.5 0.035h-2c-0.17 0-0.337-0.012-0.5-0.036v6.536c0 0.276-0.224 0.5-0.5 0.5S4 23.775 4 23.499v-6.838c-1.181-0.563-2-1.769-2-3.162v-4c0-1.93 1.57-3.5 3.5-3.5h2c1.93 0 3.5 1.57 3.5 3.5zM17.5 11c-3.584 0-6.5 2.916-6.5 6.5s2.916 6.5 6.5 6.5 6.5-2.916 6.5-6.5-2.916-6.5-6.5-6.5zM17.5 23c-3.032 0-5.5-2.468-5.5-5.5s2.468-5.5 5.5-5.5 5.5 2.468 5.5 5.5-2.468 5.5-5.5 5.5zM21 17.5c0 0.276-0.224 0.5-0.5 0.5H18v2.5c0 0.276-0.224 0.5-0.5 0.5S17 20.776 17 20.5V18h-2.5c-0.276 0-0.5-0.224-0.5-0.5s0.224-0.5 0.5-0.5H17v-2.5c0-0.276 0.224-0.5 0.5-0.5s0.5 0.224 0.5 0.5V17h2.5c0.276 0 0.5 0.224 0.5 0.5z" />
</svg>