<svg id="person_chalkboard_Layer_1" viewBox="0 0 24 24" fill="currentColor" width="32" height="32" data-name="Layer 1" xmlns="http://www.w3.org/2000/svg" xmlns:xlink="http://www.w3.org/1999/xlink">
    <title>person-chalkboard</title>
    <path d="M24 4v7c0 2.206-1.794 4-4 4H9.5C9.224 15 9 14.776 9 14.5S9.224 14 9.5 14H20c1.654 0 3-1.346 3-3V4c0-1.654-1.346-3-3-3H9.5C9.224 1 9 0.776 9 0.5S9.224 0 9.5 0H20c2.206 0 4 1.794 4 4zM2 2.5C2 1.121 3.121 0 4.5 0S7 1.121 7 2.5 5.879 5 4.5 5 2 3.879 2 2.5zM3 2.5C3 3.327 3.673 4 4.5 4S6 3.327 6 2.5 5.327 1 4.5 1 3 1.673 3 2.5zM6.5 9C6.224 9 6 9.224 6 9.5V16H3.5C2.121 16 1 14.879 1 13.5v-4C1 8.121 2.121 7 3.5 7h11C14.776 7 15 6.776 15 6.5S14.776 6 14.5 6h-11C1.57 6 0 7.57 0 9.5v4c0 1.391 0.822 2.585 2 3.149V23.5C2 23.776 2.224 24 2.5 24S3 23.776 3 23.5v-6.551C3.165 16.973 3.329 17 3.5 17H6v6.5C6 23.776 6.224 24 6.5 24S7 23.776 7 23.5v-14C7 9.224 6.776 9 6.5 9z" />
</svg>