<svg id="person_seat_reclined_Layer_1" viewBox="0 0 24 24" fill="currentColor" width="32" height="32" data-name="Layer 1" xmlns="http://www.w3.org/2000/svg" xmlns:xlink="http://www.w3.org/1999/xlink">
    <title>person-seat-reclined</title>
    <path d="M4.5 5C5.878 5 7 3.879 7 2.5S5.878 0 4.5 0 2 1.121 2 2.5 3.122 5 4.5 5zM4.5 1C5.327 1 6 1.673 6 2.5S5.327 4 4.5 4 3 3.327 3 2.5 3.673 1 4.5 1zM23 23.5c0 0.276-0.224 0.5-0.5 0.5h-1.264c-0.953 0-1.81-0.529-2.236-1.382l-2.395-4.789C16.349 17.317 15.835 17 15.264 17H8.552c-1.143 0-2.138-0.772-2.421-1.879L4.209 7.624c-0.068-0.268 0.093-0.54 0.36-0.608 0.267-0.07 0.54 0.094 0.608 0.36L6.106 11H13.5c0.276 0 0.5 0.224 0.5 0.5S13.776 12 13.5 12H6.362l0.737 2.873C7.269 15.536 7.866 16 8.552 16h6.712c0.953 0 1.81 0.529 2.236 1.382l2.395 4.789C20.151 22.683 20.665 23 21.236 23H22.5c0.276 0 0.5 0.224 0.5 0.5zM15 19.5c0 0.276-0.224 0.5-0.5 0.5H8.362c-2.541 0-4.738-1.724-5.342-4.191l-2.006-8.19C0.949 7.35 1.113 7.08 1.381 7.015 1.649 6.949 1.92 7.112 1.986 7.381l2.005 8.189C4.485 17.59 6.283 19 8.362 19H14.5c0.276 0 0.5 0.224 0.5 0.5z" />
</svg>