<svg id="person_burst_Layer_1" viewBox="0 0 24 24" fill="currentColor" width="32" height="32" data-name="Layer 1" xmlns="http://www.w3.org/2000/svg" xmlns:xlink="http://www.w3.org/1999/xlink">
    <title>person-burst</title>
    <path d="M20.5 6h-2C16.57 6 15 7.57 15 9.5v4c0 1.391 0.822 2.585 2 3.149V23.5c0 0.276 0.224 0.5 0.5 0.5s0.5-0.224 0.5-0.5v-6.551C18.165 16.973 18.329 17 18.5 17h2c0.171 0 0.335-0.027 0.5-0.051V23.5c0 0.276 0.224 0.5 0.5 0.5s0.5-0.224 0.5-0.5v-6.851c1.178-0.564 2-1.758 2-3.149v-4C24 7.57 22.43 6 20.5 6zM23 13.5c0 1.378-1.122 2.5-2.5 2.5h-2c-1.378 0-2.5-1.122-2.5-2.5v-4C16 8.122 17.122 7 18.5 7h2C21.878 7 23 8.122 23 9.5zM19.5 5C20.878 5 22 3.878 22 2.5S20.878 0 19.5 0 17 1.122 17 2.5 18.122 5 19.5 5zM19.5 1C20.327 1 21 1.673 21 2.5S20.327 4 19.5 4 18 3.327 18 2.5 18.673 1 19.5 1zM14.44 5.263c0.131 0.243 0.04 0.546-0.204 0.677-0.243 0.131-0.546 0.04-0.677-0.204l-2.401-4.46C11.066 1.103 10.894 1 10.699 1v0c-0.094 0-0.326 0.027-0.458 0.275L8.467 4.608c-0.13 0.244-0.434 0.336-0.675 0.207l-5.529-2.93c-0.169-0.09-0.29 8e-3-0.334 0.053-0.044 0.046-0.135 0.17-0.038 0.334l3.473 5.155C5.446 7.549 5.47 7.7 5.431 7.841S5.292 8.099 5.159 8.16l-4.017 1.854C1.012 10.078 0.999 10.208 1 10.26s0.02 0.181 0.163 0.245l3.907 1.612c0.129 0.054 0.229 0.158 0.278 0.289 0.048 0.131 0.04 0.276-0.024 0.4l-2.006 3.935c-0.047 0.14 0.057 0.275 0.105 0.325s0.183 0.155 0.378 0.09l4.097-1.548c0.234-0.09 0.499 0.01 0.618 0.232l1.811 3.383c0.094 0.175 0.307 0.283 0.466 0.276 0.198-1e-3 0.371-0.108 0.461-0.285l1.724-3.368c0.127-0.247 0.428-0.343 0.673-0.218 0.246 0.126 0.343 0.427 0.218 0.673l-1.724 3.368c-0.259 0.506-0.773 0.824-1.342 0.83h-0.014c-0.563 0-1.077-0.307-1.343-0.805l-1.604-2.996-3.7 1.398c-0.516 0.176-1.06 0.05-1.432-0.331-0.372-0.38-0.488-0.925-0.305-1.424l1.784-3.507-3.418-1.411c-0.469-0.204-0.76-0.64-0.771-1.141-0.011-0.5 0.262-0.949 0.711-1.17l3.495-1.613-3.16-4.692c-0.311-0.523-0.241-1.14 0.16-1.559 0.4-0.42 1.014-0.518 1.526-0.246l5.086 2.695 1.54-2.892C9.622 0.309 10.135 0 10.697 0h1e-3c0.562 0 1.076 0.308 1.34 0.803z" />
</svg>