<svg id="person_walking_arrow_right_Layer_1" viewBox="0 0 24 24" fill="currentColor" width="32" height="32" data-name="Layer 1" xmlns="http://www.w3.org/2000/svg" xmlns:xlink="http://www.w3.org/1999/xlink">
    <title>person-walking-arrow-right</title>
    <path d="M8.5 5C9.878 5 11 3.878 11 2.5S9.878 0 8.5 0 6 1.122 6 2.5 7.122 5 8.5 5zM8.5 1C9.327 1 10 1.673 10 2.5S9.327 4 8.5 4 7 3.327 7 2.5 7.673 1 8.5 1zM4.985 17.621l-1.5 6c-0.066 0.27-0.345 0.431-0.606 0.364-0.268-0.067-0.431-0.338-0.364-0.606l1.5-6c0.067-0.269 0.337-0.434 0.606-0.364 0.268 0.067 0.431 0.338 0.364 0.606zM24 11.5c0 7e-3-4e-3 0.012-4e-3 0.019 4e-3 0.351-0.124 0.703-0.391 0.971l-2.4 2.4c-0.195 0.195-0.512 0.195-0.707 0s-0.195-0.512 0-0.707l2.183-2.182H16.5c-0.276 0-0.5-0.224-0.5-0.5s0.224-0.5 0.5-0.5h6.109L20.498 8.89c-0.195-0.195-0.195-0.512 0-0.707s0.512-0.195 0.707 0l2.4 2.4c0.2 0.2 0.299 0.452 0.347 0.711C23.981 11.357 24 11.427 24 11.5zM15.724 13.053l-3.42-1.71c-0.246-0.123-0.432-0.344-0.51-0.607L11.07 8.323C10.653 6.934 9.399 6 7.948 6 6.257 6 4.595 6.457 3.141 7.32L1.913 8.049C1.444 8.328 1.105 8.793 0.99 9.303l-0.972 3.566c-0.073 0.266 0.084 0.541 0.351 0.614 0.262 0.072 0.541-0.084 0.614-0.351L1.96 9.547C2.021 9.282 2.19 9.049 2.424 8.91l1.228-0.729C4.194 7.859 4.774 7.616 5.37 7.424l-1.289 4.647c-0.365 1.509 0.323 3.099 1.678 3.868l3.736 2.066c0.312 0.178 0.506 0.511 0.506 0.87v4.627c0 0.276 0.224 0.5 0.5 0.5s0.5-0.224 0.5-0.5v-4.627c0-0.718-0.388-1.384-1.017-1.742l-1.783-0.986 1.96-7.37 0.674 2.247c0.158 0.526 0.53 0.968 1.021 1.214l3.42 1.71c0.242 0.122 0.546 0.026 0.671-0.224 0.123-0.247 0.023-0.547-0.223-0.671zM7.341 15.67 6.248 15.065c-0.964-0.548-1.456-1.683-1.199-2.745l1.436-5.176c0.482-0.085 0.97-0.145 1.463-0.145 0.581 0 1.112 0.221 1.517 0.589z" />
</svg>