<svg id="person_military_pointing_Layer_1" viewBox="0 0 24 24" fill="currentColor" width="32" height="32" data-name="Layer 1" xmlns="http://www.w3.org/2000/svg" xmlns:xlink="http://www.w3.org/1999/xlink">
    <title>person-military-pointing</title>
    <path d="M23.925 21.237l-3.342-5.402C18.784 12.853 15.503 11 12.021 11H0.5C0.224 11 0 11.224 0 11.5S0.224 12 0.5 12H7v9.5C7 22.879 8.121 24 9.5 24h5c1.379 0 2.5-1.121 2.5-2.5v-7.968c1.09 0.726 2.037 1.674 2.73 2.823l3.345 5.407c0.145 0.238 0.457 0.306 0.688 0.162 0.235-0.145 0.308-0.453 0.162-0.687zM10.022 21 16 13.314V21zM8 21v-0.944l6.069-7.803c0.41 0.097 0.812 0.218 1.202 0.37L8.756 21zM12.021 12c0.313 0 0.622 0.029 0.931 0.061l-4.951 6.366v-6.428zM14.5 23h-5c-0.651 0-1.201-0.419-1.408-1h7.816c-0.207 0.581-0.757 1-1.408 1zM8 3.088V5.5c0 2.206 1.794 4 4 4s4-1.794 4-4v-2l0.468-1.415c0.214-0.707-0.387-1.564-1.154-1.572L9.298 1e-3C8.216-0.073 7.327 1.004 7.634 2.087zM12 8.5c-1.654 0-3-1.346-3-3V4h6v1.5c0 1.654-1.346 3-3 3zM8.714 1.243c0.133-0.166 0.304-0.257 0.514-0.245l6.031 0.513c0.137-0.023 0.252 0.199 0.261 0.258l-0.453 1.23H9.001c0-0.059-0.011-0.117-0.03-0.172l-0.38-1.03c-0.048-0.198-4e-3-0.395 0.123-0.554z" />
</svg>