<svg id="person_arrow_up_from_line_Layer_1" viewBox="0 0 24 24" fill="currentColor" width="32" height="32" data-name="Layer 1" xmlns="http://www.w3.org/2000/svg" xmlns:xlink="http://www.w3.org/1999/xlink">
    <title>person-arrow-up-from-line</title>
    <path d="M6.5 5C7.878 5 9 3.879 9 2.5S7.878 0 6.5 0 4 1.121 4 2.5 5.122 5 6.5 5zM6.5 1C7.327 1 8 1.673 8 2.5S7.327 4 6.5 4 5 3.327 5 2.5 5.673 1 6.5 1zM14.141 7.348c-0.192-0.198-0.188-0.515 0.011-0.707l3.318-3.218c0.568-0.556 1.498-0.552 2.065 5e-3l3.313 3.213c0.198 0.192 0.203 0.509 0.011 0.707-0.192 0.199-0.509 0.203-0.707 0.012L19 4.303V19.5c0 0.276-0.224 0.5-0.5 0.5S18 19.776 18 19.5V4.302l-3.152 3.057c-0.198 0.19-0.514 0.188-0.707-0.011zM23.5 23H9v-6.351c1.178-0.564 2-1.758 2-3.149v-4C11 7.57 9.43 6 7.5 6h-2C3.57 6 2 7.57 2 9.5v4c0 1.391 0.822 2.585 2 3.149V23H0.5C0.224 23 0 23.224 0 23.5S0.224 24 0.5 24h23c0.276 0 0.5-0.224 0.5-0.5S23.776 23 23.5 23zM3 13.5v-4C3 8.121 4.122 7 5.5 7h2C8.878 7 10 8.121 10 9.5v4c0 1.379-1.122 2.5-2.5 2.5h-2C4.122 16 3 14.879 3 13.5zM5 16.949C5.165 16.973 5.329 17 5.5 17h2c0.171 0 0.335-0.027 0.5-0.051V23H5z" />
</svg>