<svg id="person_stress_Layer_1" viewBox="0 0 24 24" fill="currentColor" width="32" height="32" data-name="Layer 1" xmlns="http://www.w3.org/2000/svg" xmlns:xlink="http://www.w3.org/1999/xlink">
    <title>person-stress</title>
    <path d="M9 13c0 1.654 1.346 3 3 3s3-1.346 3-3-1.346-3-3-3-3 1.346-3 3zM12 11c1.103 0 2 0.897 2 2s-0.897 2-2 2-2-0.897-2-2 0.897-2 2-2zM22 9.5v5.539c0 0.763-0.342 1.475-0.938 1.952L17 20.241v3.26c0 0.276-0.224 0.5-0.5 0.5s-0.5-0.224-0.5-0.5v-3.5c0-0.152 0.069-0.295 0.188-0.391l3.614-2.891-2.937 1.175c-0.18 0.071-0.366 0.107-0.557 0.107H7.692c-0.19 0-0.377-0.036-0.556-0.106l-2.94-1.176 3.615 2.892c0.119 0.095 0.188 0.239 0.188 0.391v3.5c0 0.276-0.224 0.5-0.5 0.5s-0.5-0.224-0.5-0.5v-3.26l-4.062-3.249c-0.596-0.478-0.938-1.189-0.938-1.953V9.501c0-0.276 0.224-0.5 0.5-0.5s0.5 0.224 0.5 0.5v5.539c0 0.044 0.011 0.086 0.014 0.129l4.492 1.797c0.059 0.023 0.122 0.036 0.186 0.036h8.615c0.063 0 0.126-0.012 0.187-0.036l4.491-1.797c4e-3-0.043 0.014-0.085 0.014-0.129V9.501c0-0.276 0.224-0.5 0.5-0.5S21.998 9.225 22 9.5zM4.581 6.415c0.321 0.646 1.271 0.787 1.761 0.261l0.929-0.929 0.772 1.671c0.48 1.038 2.143 0.516 1.947-0.611L9.262 1.906C9.14 1.053 7.995 0.695 7.406 1.322L6.501 2.227 5.819 0.645c-0.313-0.694-1.314-0.866-1.836-0.31L3.005 1.313C2.62 1.698 2.524 2.285 2.766 2.774zM3.711 2.02 4.69 1.042c0.083-0.069 0.161-0.053 0.22 0.019L5.875 3.3c0.126 0.319 0.58 0.405 0.812 0.156L8.21 2.005c0.034 0.01 0.056 0.032 0.065 0.065l0.669 4.916-1.066-2.309c-0.134-0.31-0.574-0.39-0.808-0.144L5.634 5.969 5.468 5.956 3.659 2.329C3.608 2.226 3.628 2.102 3.711 2.02zM15.032 7.991c0.394 0 0.752-0.222 0.932-0.586l0.766-1.658 0.929 0.929c0.508 0.528 1.439 0.386 1.768-0.274l1.811-3.629c0.241-0.487 0.146-1.074-0.239-1.46L20.02 0.335c-0.536-0.556-1.524-0.389-1.846 0.33l-0.673 1.562-0.905-0.905c-0.286-0.286-0.703-0.391-1.092-0.275-0.389 0.117-0.679 0.436-0.76 0.833-2e-3 8e-3-3e-3 0.017-4e-3 0.026l-0.728 4.9c-0.106 0.604 0.412 1.199 1.02 1.185zM15.725 2.072c0.01-0.034 0.038-0.055 0.162-0.042l1.426 1.426C17.547 3.705 18 3.619 18.125 3.3l0.956-2.218c0.066-0.098 0.138-0.11 0.229-0.04l0.978 0.978c0.082 0.082 0.103 0.206 0.052 0.308l-1.81 3.628-0.166 0.013-1.436-1.436c-0.23-0.246-0.676-0.166-0.808 0.144l-1.122 2.277z" />
</svg>