<svg id="person_walking_with_cane_Layer_1" viewBox="0 0 24 24" fill="currentColor" width="32" height="32" data-name="Layer 1" xmlns="http://www.w3.org/2000/svg" xmlns:xlink="http://www.w3.org/1999/xlink">
    <title>person-walking-with-cane</title>
    <path d="M23.43 23.25l-5.51-9.5c-0.03-0.06-0.08-0.11-0.13-0.15l-3.91-2.93-1.4-2.63C11.65 6.76 10.24 6 8.71 6H7.75C6.2 6 4.77 6.78 3.94 8.1l-3.86 6.13c-0.15 0.23-0.08 0.54 0.16 0.69 0.23 0.15 0.54 0.08 0.69-0.16L4.8 8.63c0.31-0.49 0.72-0.88 1.21-1.16v5.66c0 1.19 0.6 2.29 1.59 2.94l3.52 2.29 3.14 5.4c0.09 0.16 0.26 0.25 0.43 0.25 0.09 0 0.17-0.02 0.25-0.07 0.24-0.14 0.32-0.44 0.18-0.68l-3.2-5.5c-0.04-0.07-0.09-0.13-0.16-0.17L11 17.09V7.84c0.24 0.2 0.44 0.44 0.62 0.7l1.43 2.69c0.03 0.06 0.08 0.12 0.14 0.17l3.92 2.94 5.46 9.41C22.66 23.91 22.83 24 23 24c0.09 0 0.17-0.02 0.25-0.07 0.24-0.14 0.32-0.44 0.18-0.68zM10 16.44 8.14 15.23C7.43 14.77 7 13.98 7 13.13V7.08C7.24 7.03 7.5 7 7.75 7h0.96C9.16 7 9.6 7.09 10 7.24zM10.99 17.08c0 0 0 0 0 0zM8.51 5c1.38 0 2.5-1.12 2.5-2.5S9.89 0 8.51 0s-2.5 1.12-2.5 2.5S7.13 5 8.51 5zM8.51 1c0.83 0 1.5 0.67 1.5 1.5S9.34 4 8.51 4s-1.5-0.67-1.5-1.5S7.68 1 8.51 1zM6.99 18.6l-1 5C5.94 23.84 5.73 24 5.5 24c-0.03 0-0.07 0-0.1 0-0.27-0.05-0.45-0.32-0.39-0.59l1-5c0.05-0.27 0.33-0.45 0.59-0.39 0.27 0.05 0.45 0.32 0.39 0.58z" />
</svg>