<svg id="person_pregnant_Layer_1" viewBox="0 0 24 24" fill="currentColor" width="32" height="32" data-name="Layer 1" xmlns="http://www.w3.org/2000/svg" xmlns:xlink="http://www.w3.org/1999/xlink">
    <title>person-pregnant</title>
    <path d="M11.5 5C12.879 5 14 3.878 14 2.5S12.879 0 11.5 0 9 1.122 9 2.5 10.121 5 11.5 5zM11.5 1C12.327 1 13 1.673 13 2.5S12.327 4 11.5 4 10 3.327 10 2.5 10.673 1 11.5 1zM15.527 10.14 15.313 9.107C14.942 7.307 13.338 6 11.5 6S8.058 7.307 7.687 9.107L6.02 17.19c-0.089 0.711 0.132 1.427 0.606 1.964C7.1 19.692 7.783 20 8.5 20H9v3.5C9 23.776 9.224 24 9.5 24s0.5-0.224 0.5-0.5V20h3v3.5c0 0.276 0.224 0.5 0.5 0.5s0.5-0.224 0.5-0.5V20h2.417c0.214 0 0.403-0.135 0.473-0.337 0.046-0.131 1.11-3.246 1.11-5.038 0-1.831-0.92-3.491-2.473-4.485zM16.055 19H8.499c-0.43 0-0.84-0.185-1.125-0.507-0.284-0.322-0.417-0.752-0.37-1.14l1.134-5.493 3.084 2.056C11.307 13.973 11.404 14 11.499 14c0.161 0 0.319-0.078 0.416-0.223 0.153-0.23 0.091-0.54-0.139-0.693l-3.421-2.281 0.308-1.494c0.276-1.338 1.469-2.31 2.835-2.31s2.559 0.971 2.835 2.31l0.257 1.245c0.028 0.139 0.114 0.259 0.236 0.331 1.36 0.795 2.172 2.194 2.172 3.74 0 1.304-0.674 3.531-0.943 4.375z" />
</svg>