<svg id="person_drowning_Layer_1" viewBox="0 0 24 24" fill="currentColor" width="32" height="32" data-name="Layer 1" xmlns="http://www.w3.org/2000/svg" xmlns:xlink="http://www.w3.org/1999/xlink">
    <title>person-drowning</title>
    <path d="M12.5 7C14.43 7 16 5.43 16 3.5S14.43 0 12.5 0 9 1.57 9 3.5 10.57 7 12.5 7zM12.5 1C13.878 1 15 2.121 15 3.5S13.878 6 12.5 6 10 4.879 10 3.5 11.122 1 12.5 1zM1.063 0.743C0.929 0.501 1.016 0.197 1.257 0.062c0.24-0.132 0.546-0.046 0.68 0.194l2.329 4.192c0.085 0.153 0.195 0.289 0.327 0.403l2.822 2.45 7.072 1.992 4.097-0.729c0.164-0.029 0.321-0.085 0.466-0.166l4.208-2.338c0.24-0.132 0.546-0.046 0.68 0.194 0.134 0.242 0.047 0.546-0.194 0.681l-4.208 2.338c-0.241 0.134-0.502 0.227-0.775 0.275l-4.185 0.745-0.75 2.429c-0.08 0.266-0.368 0.412-0.625 0.33-0.264-0.081-0.412-0.361-0.33-0.625l0.725-2.347-5.942-1.674-1.209 4.266c-0.075 0.268-0.359 0.419-0.617 0.345-0.266-0.075-0.42-0.353-0.345-0.618l1.24-4.377-2.782-2.416c-0.22-0.19-0.404-0.417-0.546-0.673zM23.879 22.407c0.18 0.21 0.156 0.525-0.054 0.705C23.159 23.684 22.301 24 21.408 24c-1.24 0-2.434-0.594-3.137-1.494-0.703 0.9-1.896 1.494-3.136 1.494s-2.434-0.594-3.136-1.494C11.296 23.406 10.102 24 8.863 24s-2.434-0.594-3.136-1.494C5.024 23.406 3.83 24 2.59 24c-0.893 0-1.75-0.315-2.417-0.888-0.209-0.18-0.233-0.495-0.054-0.705 0.181-0.21 0.497-0.232 0.705-0.053C1.309 22.77 1.936 23 2.589 23c1.168 0 2.315-0.72 2.668-1.674C5.329 21.13 5.516 21 5.726 21s0.396 0.131 0.469 0.327C6.547 22.28 7.694 23 8.862 23s2.314-0.72 2.667-1.674c0.145-0.393 0.793-0.393 0.938 0C12.82 22.28 13.967 23 15.134 23s2.315-0.72 2.667-1.673c0.146-0.392 0.794-0.394 0.938 0 0.353 0.954 1.5 1.674 2.668 1.674 0.653 0 1.28-0.229 1.765-0.646 0.21-0.18 0.525-0.157 0.707 0.052zM0.174 17.112c-0.209-0.18-0.233-0.495-0.054-0.705 0.181-0.209 0.497-0.232 0.705-0.053C1.31 16.77 1.937 17 2.59 17c1.168 0 2.315-0.72 2.668-1.674C5.33 15.13 5.517 15 5.727 15s0.396 0.131 0.469 0.327C6.548 16.28 7.695 17 8.863 17s2.314-0.72 2.667-1.674c0.145-0.393 0.793-0.393 0.938 0 0.353 0.954 1.5 1.674 2.667 1.674s2.315-0.72 2.667-1.673c0.146-0.392 0.794-0.394 0.938 0 0.353 0.954 1.5 1.674 2.668 1.674 0.653 0 1.28-0.229 1.765-0.646 0.21-0.18 0.525-0.156 0.705 0.053 0.18 0.21 0.156 0.525-0.054 0.705-0.666 0.572-1.524 0.888-2.417 0.888-1.24 0-2.434-0.594-3.137-1.494-0.703 0.9-1.896 1.494-3.136 1.494s-2.434-0.594-3.136-1.494c-0.703 0.9-1.897 1.494-3.136 1.494s-2.434-0.594-3.136-1.494c-0.703 0.9-1.897 1.494-3.137 1.494-0.893 0-1.75-0.315-2.415-0.889z" />
</svg>