<svg id="person_climbing_Layer_1" viewBox="0 0 24 24" fill="currentColor" width="32" height="32" data-name="Layer 1" xmlns="http://www.w3.org/2000/svg" xmlns:xlink="http://www.w3.org/1999/xlink">
    <title>person-climbing</title>
    <path d="M21.48 3.02c-1.379 0-2.5 1.121-2.5 2.5s1.121 2.5 2.5 2.5 2.5-1.121 2.5-2.5-1.121-2.5-2.5-2.5zM21.48 7.02c-0.827 0-1.5-0.673-1.5-1.5s0.673-1.5 1.5-1.5 1.5 0.673 1.5 1.5-0.673 1.5-1.5 1.5zM21.317 12.208c-0.24-0.964-0.804-1.833-1.586-2.448l-5.35-4.203c-0.242-0.19-0.382-0.477-0.382-0.786V0.5c0-0.276-0.224-0.5-0.5-0.5h-0.5c-0.133 0-0.26 0.053-0.354 0.146L1.318 11.475C0.467 12.325 0 13.455 0 14.658v8.843c0 0.276 0.224 0.5 0.5 0.5s0.5-0.224 0.5-0.5v-8.844c0-0.936 0.364-1.814 1.025-2.476L13 1.207V4.77c0 0.618 0.278 1.192 0.765 1.573l2.294 1.803-4.758 5.84-1.716-1.494C9.221 12.175 8.755 12 8.272 12H3.5C3.224 12 3 12.224 3 12.5S3.224 13 3.5 13h4.771c0.241 0 0.475 0.087 0.657 0.246l4.273 3.722c-0.073 0.01-0.143 0.035-0.217 0.032H7.74c-0.617 0-1.211 0.293-1.587 0.782l-2.617 3.413c-0.168 0.22-0.127 0.533 0.092 0.701 0.217 0.168 0.532 0.128 0.701-0.092l2.617-3.413c0.191-0.249 0.48-0.392 0.794-0.392h5.235c0.814-3e-3 1.721-0.458 2.412-1.274l4.427-5.425c0.243 0.348 0.429 0.735 0.532 1.15l0.624 2.495c0.02 0.076 0.029 0.156 0.029 0.239v4.315c0 0.276 0.224 0.5 0.5 0.5s0.5-0.224 0.5-0.5v-4.315c0-0.167-0.021-0.33-0.06-0.484zM14.618 16.086c-0.12 0.142-0.27 0.283-0.43 0.415l-2.133-1.858 4.79-5.879 2.269 1.783c0 0 9e-3 9e-3 0.013 0.013z" />
</svg>