<svg id="person_circle_question_Layer_1" viewBox="0 0 24 24" fill="currentColor" width="32" height="32" data-name="Layer 1" xmlns="http://www.w3.org/2000/svg" xmlns:xlink="http://www.w3.org/1999/xlink">
    <title>person-circle-question</title>
    <path d="M6.5 5C7.878 5 9 3.879 9 2.5S7.878 0 6.5 0 4 1.121 4 2.5 5.122 5 6.5 5zM6.5 1C7.327 1 8 1.673 8 2.5S7.327 4 6.5 4 5 3.327 5 2.5 5.673 1 6.5 1zM11 12.5c0 0.276-0.224 0.5-0.5 0.5S10 12.776 10 12.5v-3C10 8.121 8.878 7 7.5 7h-2C4.122 7 3 8.121 3 9.5v4C3 14.879 4.122 16 5.5 16h2c0.286 0 0.566-0.048 0.833-0.143 0.152-0.052 0.323-0.03 0.455 0.063 0.133 0.094 0.211 0.246 0.211 0.408v7.171c0 0.276-0.224 0.5-0.5 0.5s-0.5-0.224-0.5-0.5v-6.535c-0.165 0.023-0.332 0.035-0.5 0.035h-2c-0.17 0-0.337-0.012-0.5-0.036v6.536c0 0.276-0.224 0.5-0.5 0.5s-0.5-0.224-0.5-0.5v-6.838c-1.181-0.563-2-1.769-2-3.162v-4c0-1.93 1.57-3.5 3.5-3.5h2c1.93 0 3.5 1.57 3.5 3.5zM17.5 11c-3.584 0-6.5 2.916-6.5 6.5s2.916 6.5 6.5 6.5 6.5-2.916 6.5-6.5-2.916-6.5-6.5-6.5zM17.5 23c-3.033 0-5.5-2.468-5.5-5.5s2.467-5.5 5.5-5.5 5.5 2.468 5.5 5.5-2.467 5.5-5.5 5.5zM18.5 21c0 0.552-0.448 1-1 1s-1-0.448-1-1 0.448-1 1-1 1 0.448 1 1zM19.961 15.051c0.186 1.062-0.318 2.123-1.255 2.64-0.342 0.188-0.587 0.413-0.673 0.897C17.99 18.83 17.779 19 17.541 19c-0.029 0-0.059-3e-3-0.088-8e-3-0.272-0.048-0.453-0.308-0.405-0.58 0.168-0.943 0.75-1.363 1.174-1.597 0.571-0.315 0.867-0.94 0.753-1.592-0.105-0.601-0.599-1.094-1.199-1.199-0.456-0.08-0.895 0.035-1.24 0.326-0.341 0.285-0.537 0.705-0.537 1.149 0 0.276-0.224 0.5-0.5 0.5s-0.5-0.224-0.5-0.5c0-0.741 0.326-1.439 0.894-1.916 0.567-0.476 1.317-0.675 2.056-0.544 1.006 0.176 1.834 1.003 2.012 2.012z" />
</svg>