<svg id="person_booth_Layer_1" viewBox="0 0 24 24" fill="currentColor" width="32" height="32" data-name="Layer 1" xmlns="http://www.w3.org/2000/svg" xmlns:xlink="http://www.w3.org/1999/xlink">
    <title>person-booth</title>
    <path d="M20 0h-5c-2.209 0-4 1.791-4 4v8H9.035c-0.167 0-0.323-0.084-0.416-0.223L5.763 7.492C5.272 6.755 4.521 6.194 3.648 6.046 1.698 5.714 1e-3 7.215 1e-3 9.105v4.696c0 1.23 0.645 2.369 1.7 3.002l3.057 1.833c0.151 0.091 0.243 0.254 0.243 0.43V23.5c0 0.276 0.224 0.5 0.5 0.5s0.5-0.224 0.5-0.5v-4.434c0-0.527-0.277-1.015-0.728-1.287l-3.058-1.834c-0.753-0.452-1.214-1.266-1.214-2.144V9.334c0-0.896 0.469-1.765 1.281-2.146 0.613-0.287 1.209-0.219 1.719 0.022v7.29c0 0.276 0.224 0.5 0.5 0.5s0.5-0.224 0.5-0.5V8.151l2.787 4.181C8.066 12.749 8.535 13 9.036 13h2.465c0.276 0 0.5-0.224 0.5-0.5V4c0-1.303 0.84-2.404 2.003-2.817 0.073 2.246 0.82 9.241 7.107 12.446-0.895 0.88-2.422 2.724-3.036 5.242-0.188 0.767-0.017 1.561 0.467 2.177C19.018 21.653 19.73 22 20.499 22h2.502v1.5c0 0.276 0.224 0.5 0.5 0.5s0.5-0.224 0.5-0.5V4c0-2.209-1.791-4-4.001-4zM14.998 1c0 0 1e-3 0 2e-3 0h5c1.654 0 3 1.346 3 3v9h-0.881c-6.505-2.907-7.085-10.096-7.121-12zM20.498 21c-0.46 0-0.886-0.208-1.17-0.569-0.294-0.374-0.396-0.855-0.283-1.322 0.701-2.871 2.649-4.69 3.136-5.109H23v7zM3.5 5C4.879 5 6 3.878 6 2.5S4.879 0 3.5 0 1 1.122 1 2.5 2.121 5 3.5 5zM3.5 1C4.327 1 5 1.673 5 2.5S4.327 4 3.5 4 2 3.327 2 2.5 2.673 1 3.5 1zM12 15.5v8c0 0.276-0.224 0.5-0.5 0.5S11 23.776 11 23.5v-8c0-0.276 0.224-0.5 0.5-0.5s0.5 0.224 0.5 0.5zM1 18.5v5C1 23.776 0.776 24 0.5 24S0 23.776 0 23.5v-5C0 18.224 0.224 18 0.5 18S1 18.224 1 18.5z" />
</svg>