<svg id="person_pilates_Layer_1" viewBox="0 0 24 24" fill="currentColor" width="32" height="32" data-name="Layer 1" xmlns="http://www.w3.org/2000/svg" xmlns:xlink="http://www.w3.org/1999/xlink">
    <title>person-pilates</title>
    <path d="M16.945 13.248l5.772-2.798c0.249-0.12 0.353-0.419 0.232-0.668-0.12-0.248-0.419-0.352-0.668-0.231l-5.845 2.833c-0.048 0.023-0.092 0.053-0.13 0.09l-3.602 3.481-5.33-5.954h7.124c0.276 0 0.5-0.224 0.5-0.5s-0.224-0.5-0.5-0.5c0 0-9.036 9e-3-9.054 0.011-0.545-9e-3-1.095 0.157-1.549 0.522-0.517 0.416-0.831 1.008-0.888 1.668-0.056 0.66 0.154 1.297 0.591 1.793l4.529 5.179c0.458 0.507 1.085 0.8 1.767 0.824 0.031 0 0.062 2e-3 0.095 2e-3 0.642 0 1.248-0.242 1.718-0.69zM9.931 17.999c-0.409-0.016-0.785-0.191-1.056-0.489L4.35 12.335c-0.256-0.29-0.378-0.663-0.345-1.048 0.032-0.386 0.217-0.732 0.519-0.975 0.259-0.209 0.57-0.311 0.882-0.311 0.382 0 0.762 0.155 1.036 0.456l5.545 6.193-0.972 0.939c-0.294 0.279-0.662 0.43-1.084 0.41zM23.999 19.5c0 0.276-0.224 0.5-0.5 0.5H0.5C0.224 20 0 19.776 0 19.5S0.224 19 0.5 19h23c0.276 0 0.5 0.224 0.499 0.5zM3.5 8C4.879 8 6 6.878 6 5.5S4.879 3 3.5 3 1 4.122 1 5.5 2.121 8 3.5 8zM3.5 4C4.327 4 5 4.673 5 5.5S4.327 7 3.5 7 2 6.327 2 5.5 2.673 4 3.5 4z" />
</svg>