<svg id="person_walking_arrow_loop_left_Layer_1" viewBox="0 0 24 24" fill="currentColor" width="32" height="32" data-name="Layer 1" xmlns="http://www.w3.org/2000/svg" xmlns:xlink="http://www.w3.org/1999/xlink">
    <title>person-walking-arrow-loop-left</title>
    <path d="M15.5 14.5c0.183 0 0.359-0.101 0.447-0.276 0.123-0.247 0.023-0.547-0.224-0.671l-3.42-1.71c-0.246-0.123-0.432-0.344-0.504-0.584l-0.73-2.936C10.652 6.934 9.398 6 7.947 6 6.256 6 4.594 6.457 3.14 7.32L1.912 8.049C1.443 8.328 1.104 8.793 0.989 9.303l-0.971 3.566c-0.073 0.266 0.084 0.541 0.351 0.614 0.262 0.073 0.541-0.084 0.614-0.351L1.96 9.547C2.021 9.282 2.19 9.049 2.424 8.91l1.228-0.729C4.194 7.859 4.774 7.616 5.37 7.424l-1.289 4.647c-0.365 1.509 0.323 3.099 1.678 3.868l3.736 2.066c0.312 0.178 0.506 0.511 0.506 0.87v4.627c0 0.276 0.224 0.5 0.5 0.5s0.5-0.224 0.5-0.5v-4.627c0-0.718-0.388-1.384-1.017-1.742l-1.783-0.986 1.956-7.352 0.679 2.729c0.158 0.526 0.53 0.968 1.021 1.214l3.42 1.71c0.072 0.036 0.148 0.053 0.223 0.052zM6.247 15.065c-0.964-0.548-1.456-1.683-1.199-2.745l1.436-5.176c0.482-0.085 0.97-0.145 1.463-0.145 0.582 0 1.114 0.222 1.518 0.587L7.34 15.669zM18 18h-1.609l2.111 2.111c0.195 0.195 0.195 0.512 0 0.707s-0.512 0.195-0.707 0l-2.4-2.4c-0.49-0.531-0.536-1.381 0-1.907l2.4-2.4c0.195-0.195 0.512-0.195 0.707 0s0.195 0.512 0 0.707L16.319 17H18c2.757 0 5-2.243 5-5s-2.243-5-5-5h-4.5C13.224 7 13 6.776 13 6.5S13.224 6 13.5 6H18c3.309 0 6 2.691 6 6s-2.691 6-6 6zM8.5 5C9.878 5 11 3.878 11 2.5S9.878 0 8.5 0 6 1.122 6 2.5 7.122 5 8.5 5zM8.5 1C9.327 1 10 1.673 10 2.5S9.327 4 8.5 4 7 3.327 7 2.5 7.673 1 8.5 1zM4.985 17.621l-1.5 6c-0.066 0.27-0.345 0.431-0.606 0.364-0.268-0.067-0.431-0.338-0.364-0.606l1.5-6c0.067-0.269 0.337-0.433 0.606-0.364 0.268 0.067 0.431 0.338 0.364 0.606z" />
</svg>