<svg id="person_presenting_Layer_1" viewBox="0 0 24 24" fill="currentColor" width="32" height="32" data-name="Layer 1" xmlns="http://www.w3.org/2000/svg" xmlns:xlink="http://www.w3.org/1999/xlink">
    <title>person-presenting</title>
    <path d="M20 0H9.5C9.224 0 9 0.224 9 0.5S9.224 1 9.5 1H20c1.654 0 3 1.346 3 3v7c0 1.654-1.346 3-3 3H9.5C9.224 14 9 14.224 9 14.5S9.224 15 9.5 15H14v2.071c-0.86 0.224-1.5 1-1.5 1.929 0 1.103 0.897 2 2 2s2-0.897 2-2c0-0.929-0.64-1.705-1.5-1.929V15h5c2.206 0 4-1.794 4-4V4c0-2.206-1.794-4-4-4zM15.5 19c0 0.551-0.448 1-1 1s-1-0.449-1-1 0.448-1 1-1 1 0.449 1 1zM4.5 5C5.878 5 7 3.878 7 2.5S5.878 0 4.5 0 2 1.122 2 2.5 3.122 5 4.5 5zM4.5 1C5.327 1 6 1.673 6 2.5S5.327 4 4.5 4 3 3.327 3 2.5 3.673 1 4.5 1zM7 9.5v14C7 23.776 6.776 24 6.5 24S6 23.776 6 23.5V17H3.5c-0.171 0-0.335-0.027-0.5-0.051V23.5C3 23.776 2.776 24 2.5 24S2 23.776 2 23.5v-6.851c-1.178-0.564-2-1.758-2-3.149v-4C0 7.57 1.57 6 3.5 6h11C14.776 6 15 6.224 15 6.5S14.776 7 14.5 7h-11C2.122 7 1 8.122 1 9.5v4C1 14.878 2.122 16 3.5 16H6V9.5C6 9.224 6.224 9 6.5 9S7 9.224 7 9.5z" />
</svg>