<svg id="person_luggage_Layer_1" viewBox="0 0 24 24" fill="currentColor" width="32" height="32" data-name="Layer 1" xmlns="http://www.w3.org/2000/svg" xmlns:xlink="http://www.w3.org/1999/xlink">
    <title>person-luggage</title>
    <path d="M17.5 5C18.878 5 20 3.879 20 2.5S18.878 0 17.5 0 15 1.121 15 2.5 16.122 5 17.5 5zM17.5 1C18.327 1 19 1.673 19 2.5S18.327 4 17.5 4 16 3.327 16 2.5 16.673 1 17.5 1zM23.947 23.276l-2.192-4.385c-0.248-0.496-0.661-0.9-1.161-1.139l-1.774-0.845 0.729-5.089 3.702 2.115c0.078 0.044 0.164 0.065 0.248 0.065 0.174 0 0.342-0.091 0.435-0.252 0.137-0.24 0.054-0.545-0.186-0.683l-4.046-2.312 0.275-1.916c0.098-0.715-0.119-1.438-0.594-1.981-0.475-0.544-1.161-0.856-1.883-0.856-0.833 0-1.616 0.299-2.239 0.822-0.06 0.039-5.209 6.365-5.209 6.365-0.173 0.216-0.139 0.53 0.077 0.703 0.216 0.174 0.53 0.14 0.703-0.076l3.902-4.861-0.698 4.098c-0.213 1.506 0.337 2.721 1.586 3.439l4.543 2.165c0.3 0.144 0.547 0.386 0.696 0.684l2.192 4.385c0.088 0.175 0.264 0.276 0.448 0.276 0.075 0 0.151-0.017 0.223-0.053 0.247-0.124 0.347-0.424 0.223-0.669zM16.086 15.605c-0.861-0.496-1.218-1.309-1.063-2.4l0.97-5.695C16.423 7.184 16.947 7 17.5 7c0.433 0 0.845 0.188 1.13 0.514s0.415 0.76 0.356 1.186l-1.112 7.758zM7.933 13.545 7.41 13.149c-1.204-0.827-2.563-0.995-3.933 0.511l-2.913 3.724c-0.919 1.215-0.688 2.964 0.517 3.899l2.185 1.693C3.61 23.584 4.254 24 5.001 24c1.103 0 2-0.897 2-2 0-0.693-0.355-1.304-0.892-1.663l2.325-2.99c0.922-1.185 0.697-2.895-0.501-3.802zM5 23c-0.551 0-1-0.448-1-1s0.449-1 1-1 1 0.448 1 1-0.449 1-1 1zM7.654 16.732 5.097 20.01C5.064 20.008 5.034 20 5.001 20c-0.941 0-1.726 0.655-1.938 1.531l-1.368-1.037c-0.774-0.601-0.924-1.725-0.343-2.493l2.923-3.736c0.781-1.084 1.855-0.764 2.523-0.324l0.539 0.404c0.756 0.567 0.9 1.643 0.317 2.387zM14.907 18.082l-0.914 5.5c-0.041 0.244-0.224 0.418-0.575 0.411-0.272-0.045-0.457-0.303-0.411-0.575l0.914-5.5c0.045-0.271 0.3-0.459 0.575-0.411 0.272 0.045 0.457 0.303 0.411 0.575z" />
</svg>