<svg id="person_dolly_empty_Layer_1" viewBox="0 0 24 24" fill="currentColor" width="32" height="32" data-name="Layer 1" xmlns="http://www.w3.org/2000/svg" xmlns:xlink="http://www.w3.org/1999/xlink">
    <title>person-dolly-empty</title>
    <path d="M3.5 5C4.878 5 6 3.879 6 2.5S4.878 0 3.5 0 1 1.121 1 2.5 2.122 5 3.5 5zM3.5 1C4.327 1 5 1.673 5 2.5S4.327 4 3.5 4 2 3.327 2 2.5 2.673 1 3.5 1zM24.005 17.387c-0.062-0.268-0.327-0.437-0.601-0.374l-8.748 2.028-3.162-13.638c-0.062-0.269-0.332-0.435-0.6-0.374-0.269 0.062-0.437 0.331-0.375 0.601l1.245 5.371H8.117c-0.191 0-0.362-0.105-0.447-0.276L6.275 7.936c-0.597-1.193-1.796-1.935-3.13-1.935-1.735 0-3.146 1.411-3.146 3.146v4.184c0 1.231 0.658 2.385 1.717 3.013l2.547 1.507c0.454 0.27 0.736 0.764 0.736 1.291v4.36c0 0.276 0.224 0.5 0.5 0.5s0.5-0.224 0.5-0.5v-4.36c0-0.878-0.47-1.702-1.226-2.151l-2.547-1.508c-0.757-0.447-1.227-1.272-1.227-2.151V9.148c0-1.183 0.963-2.146 2.146-2.146 0.3 0 0.583 0.069 0.854 0.168v7.332c0 0.276 0.224 0.5 0.5 0.5s0.5-0.224 0.5-0.5V7.828c0.148 0.165 0.279 0.35 0.382 0.556l1.395 2.789c0.256 0.512 0.77 0.829 1.342 0.829h3.879l1.625 7.01c-0.033-1e-3-0.064-0.01-0.097-0.01-1.378 0-2.5 1.121-2.5 2.5s1.121 2.5 2.5 2.5 2.5-1.121 2.5-2.5c0-0.616-0.232-1.174-0.603-1.61l8.209-1.903c0.269-0.062 0.437-0.331 0.374-0.602zM13.526 23c-0.827 0-1.5-0.673-1.5-1.5s0.673-1.5 1.5-1.5 1.5 0.673 1.5 1.5-0.673 1.5-1.5 1.5zM2.001 18.5v5c0 0.276-0.224 0.5-0.5 0.5s-0.5-0.224-0.5-0.5v-5c0-0.276 0.224-0.5 0.5-0.5s0.5 0.224 0.5 0.5z" />
</svg>