<svg id="person_seat_Layer_1" viewBox="0 0 24 24" fill="currentColor" width="32" height="32" data-name="Layer 1" xmlns="http://www.w3.org/2000/svg" xmlns:xlink="http://www.w3.org/1999/xlink">
    <title>person-seat</title>
    <path d="M6.5 5C7.878 5 9 3.879 9 2.5S7.878 0 6.5 0 4 1.121 4 2.5 5.122 5 6.5 5zM6.5 1C7.327 1 8 1.673 8 2.5S7.327 4 6.5 4 5 3.327 5 2.5 5.673 1 6.5 1zM21 23.5c0 0.276-0.224 0.5-0.5 0.5h-1.246c-0.667 0-1.259-0.447-1.442-1.089l-1.378-4.823C16.251 17.447 15.658 17 14.992 17H8.501c-1.378 0-2.5-1.121-2.5-2.5v-7c0-0.276 0.224-0.5 0.5-0.5s0.5 0.224 0.5 0.5V11h7.5c0.276 0 0.5 0.224 0.5 0.5s-0.224 0.5-0.5 0.5h-7.5v2.5c0 0.827 0.673 1.5 1.5 1.5h6.491c1.11 0 2.099 0.745 2.404 1.812l1.379 4.824c0.061 0.214 0.258 0.363 0.48 0.363h1.246c0.276 0 0.5 0.224 0.499 0.501zM15 19.5c0 0.276-0.224 0.5-0.5 0.5h-6C5.467 20 3 17.532 3 14.5v-7C3 7.224 3.224 7 3.5 7S4 7.224 4 7.5v7C4 16.981 6.019 19 8.5 19h6c0.276 0 0.5 0.224 0.5 0.5z" />
</svg>