<svg id="person_battery_Layer_1" viewBox="0 0 24 24" fill="currentColor" width="32" height="32" data-name="Layer 1" xmlns="http://www.w3.org/2000/svg" xmlns:xlink="http://www.w3.org/1999/xlink">
    <title>person-battery</title>
    <path d="M19.769 4.394C17.341 1.157 13.34-0.475 9.318 0.127 4.5 0.853 0.439 5.29 0.074 10.229c-0.199 2.698 0.481 5.208 1.969 7.258C2.669 18.349 3 19.295 3 20.22v1.28C3 22.972 4.028 24 5.5 24h8c1.379 0 2.5-1.122 2.5-2.5V21h0.986c2.113 0 3.965-1.5 4.402-3.566L21.905 15h0.549C23.588 15 24 14.13 24 13.545c0-1.281-2.843-7.428-4.231-9.151zM22.455 14h-0.956c-0.236 0-0.438 0.165-0.487 0.396l-0.601 2.831C20.07 18.834 18.631 20 16.987 20h-1.486c-0.276 0-0.5 0.224-0.5 0.5v1c0 0.827-0.673 1.5-1.5 1.5H5.5C4.808 23 4 22.607 4 21.5v-1.28c0-1.138-0.397-2.286-1.148-3.32-1.346-1.856-1.961-4.138-1.779-6.597 0.331-4.493 4.019-8.528 8.394-9.186 0.504-0.076 1.007-0.113 1.507-0.113 3.127 0 6.098 1.457 8 3.997l0.012 0.015c1.407 1.74 4.015 7.664 4.015 8.522C22.994 13.749 22.894 14 22.455 14zM16.501 9h-0.5V8.5c0-0.827-0.673-1.5-1.5-1.5H7.5C6.673 7 6 7.673 6 8.5v3C6 12.327 6.673 13 7.5 13h7c0.827 0 1.5-0.673 1.5-1.5V11h0.5c0.276 0 0.5-0.224 0.5-0.5v-1C17 9.224 16.776 9 16.501 9zM7.001 11.5v-3c0-0.276 0.225-0.5 0.5-0.5h1.5v4h-1.5c-0.275 0-0.5-0.224-0.5-0.5zM15.001 11.5c0 0.276-0.225 0.5-0.5 0.5h-4.5V8h4.5c0.275 0 0.5 0.224 0.5 0.5z" />
</svg>