<svg id="peseta_sign_Layer_1" viewBox="0 0 24 24" fill="currentColor" width="32" height="32" data-name="Layer 1" xmlns="http://www.w3.org/2000/svg" xmlns:xlink="http://www.w3.org/1999/xlink">
    <title>peseta-sign</title>
    <path d="M21.5 7h-1.52c-0.26-3.9-3.52-7-7.48-7h-4C6.02 0 4 2.02 4 4.5V7H2.5C2.22 7 2 7.22 2 7.5S2.22 8 2.5 8H4v15.5C4 23.78 4.22 24 4.5 24S5 23.78 5 23.5V15h7.5c3.97 0 7.22-3.1 7.48-7h1.52C21.78 8 22 7.78 22 7.5S21.78 7 21.5 7zM5 4.5C5 2.57 6.57 1 8.5 1h4c3.42 0 6.22 2.65 6.48 6H5zM12.5 14H5V8h13.98c-0.26 3.35-3.07 6-6.48 6z" />
</svg>