<svg id="peso_sign_Layer_1" viewBox="0 0 24 24" fill="currentColor" width="32" height="32" data-name="Layer 1" xmlns="http://www.w3.org/2000/svg" xmlns:xlink="http://www.w3.org/1999/xlink">
    <title>peso-sign</title>
    <path d="M21.5 9h-1.65C19.95 8.52 20 8.01 20 7.5S19.95 6.48 19.85 6h1.65C21.78 6 22 5.78 22 5.5S21.78 5 21.5 5h-1.93c-1.03-2.91-3.81-5-7.07-5h-4C6.02 0 4 2.02 4 4.5V5H2.5C2.22 5 2 5.22 2 5.5S2.22 6 2.5 6H4v3H2.5C2.22 9 2 9.22 2 9.5S2.22 10 2.5 10H4v13.5C4 23.78 4.22 24 4.5 24S5 23.78 5 23.5V15h7.5c3.26 0 6.04-2.09 7.07-5h1.93c0.28 0 0.5-0.22 0.5-0.5S21.78 9 21.5 9zM5 4.5C5 2.57 6.57 1 8.5 1h4c2.7 0 5.02 1.65 6 4H5zM5 6h13.82C18.93 6.48 19 6.98 19 7.5S18.94 8.52 18.82 9H5zM12.5 14H5v-4h13.5c-0.98 2.35-3.3 4-6 4z" />
</svg>