<svg id="pets_Layer_1" viewBox="0 0 24 24" fill="currentColor" width="32" height="32" data-name="Layer 1" xmlns="http://www.w3.org/2000/svg" xmlns:xlink="http://www.w3.org/1999/xlink">
    <title>pets</title>
    <path d="M19.705 19.228c0.282 0.491 0.387 1.071 0.297 1.634l-0.167 1.035C19.639 23.115 18.601 24 17.367 24H12.5c-0.276 0-0.5-0.224-0.5-0.5s0.224-0.5 0.5-0.5h4.867c0.741 0 1.363-0.531 1.481-1.262l0.167-1.035c0.054-0.337-8e-3-0.685-0.177-0.978-0.876-1.526-0.922-1.893-0.939-2.031-0.16-1.263-0.806-2.117-2.033-2.685-0.461-0.233-1.659-0.837-2.45-0.974C13.176 13.994 13 13.786 13 13.542v-2.304c0-0.106-0.063-0.167-0.101-0.194-0.037-0.026-0.112-0.066-0.213-0.032C11.678 11.359 11 12.31 11 13.377v0.965c0 0.171-0.088 0.331-0.232 0.422C8.184 16.4 5.193 18.874 5 23.52c-0.011 0.269-0.232 0.479-0.499 0.479-7e-3 0-0.014 0-0.021 0-0.276-0.011-0.49-0.244-0.479-0.521 0.208-5.012 3.457-7.763 6-9.41v-0.691c0-1.494 0.949-2.825 2.361-3.311 0.375-0.13 0.794-0.068 1.119 0.164 0.326 0.232 0.52 0.609 0.52 1.008v1.903c0.819 0.218 1.854 0.742 2.286 0.96 1.548 0.717 2.4 1.852 2.604 3.467 1e-3 0.013 0.049 0.324 0.814 1.66zM16 18c0-0.552-0.448-1-1-1s-1 0.448-1 1 0.448 1 1 1 1-0.448 1-1zM21.772 6c-0.978 0-1.897-0.431-2.523-1.182L19.02 4.542C18.203 3.562 17.003 3 15.728 3h-0.727V1.239c0-0.399-0.194-0.775-0.52-1.008-0.325-0.232-0.745-0.293-1.119-0.164-1.412 0.486-2.361 1.816-2.361 3.311v1.514L8.597 8.165C7.753 9.314 6.397 10 4.971 10H0.5C0.224 10 0 10.224 0 10.5S0.224 11 0.5 11h4.469c1.743 0 3.4-0.839 4.432-2.244l2.501-3.405c0.063-0.085 0.097-0.189 0.097-0.296V3.377c0-1.067 0.678-2.018 1.686-2.365 0.099-0.033 0.176 6e-3 0.213 0.032 0.038 0.027 0.101 0.088 0.101 0.194v2.261c0 0.276 0.224 0.5 0.5 0.5h1.227c0.978 0 1.898 0.431 2.524 1.182l0.229 0.276c0.817 0.979 2.017 1.542 3.292 1.542 0.677 0 1.228 0.551 1.228 1.228v1.272c0 1.93-1.57 3.5-3.5 3.5-0.276 0-0.5 0.224-0.5 0.5s0.224 0.5 0.5 0.5c2.481 0 4.5-2.019 4.5-4.5V8.227c0-1.228-1-2.228-2.227-2.227zM17 8c0.552 0 1-0.448 1-1s-0.448-1-1-1-1 0.448-1 1 0.448 1 1 1z" />
</svg>