<svg id="phone_intercom_Layer_1" viewBox="0 0 24 24" fill="currentColor" width="32" height="32" data-name="Layer 1" xmlns="http://www.w3.org/2000/svg" xmlns:xlink="http://www.w3.org/1999/xlink">
    <title>phone-intercom</title>
    <path d="M16 16c0 0.552-0.448 1-1 1s-1-0.448-1-1 0.448-1 1-1 1 0.448 1 1zM11 15c-0.552 0-1 0.448-1 1s0.448 1 1 1 1-0.448 1-1-0.448-1-1-1zM19 15c-0.552 0-1 0.448-1 1s0.448 1 1 1 1-0.448 1-1-0.448-1-1-1zM15 19c-0.552 0-1 0.448-1 1s0.448 1 1 1 1-0.448 1-1-0.448-1-1-1zM11 19c-0.552 0-1 0.448-1 1s0.448 1 1 1 1-0.448 1-1-0.448-1-1-1zM19 19c-0.552 0-1 0.448-1 1s0.448 1 1 1 1-0.448 1-1-0.448-1-1-1zM20 7.5v3c0 1.379-1.122 2.5-2.5 2.5h-5c-1.378 0-2.5-1.121-2.5-2.5v-3C10 6.121 11.122 5 12.5 5h5C18.878 5 20 6.121 20 7.5zM16.408 12c-0.207-0.581-0.757-1-1.408-1s-1.201 0.419-1.408 1zM19 7.5C19 6.673 18.327 6 17.5 6h-5C11.673 6 11 6.673 11 7.5v3c-2e-3 0.846 0.706 1.527 1.551 1.5 0.232-1.14 1.242-2 2.449-2s2.217 0.86 2.449 2c0.844 0.027 1.552-0.654 1.551-1.5zM16.5 8c0 0.827-0.673 1.5-1.5 1.5S13.5 8.827 13.5 8 14.173 6.5 15 6.5 16.5 7.173 16.5 8zM15.5 8c0-0.275-0.224-0.5-0.5-0.5S14.5 7.725 14.5 8 14.724 8.5 15 8.5 15.5 8.275 15.5 8zM24 6.5v13c0 2.481-2.019 4.5-4.5 4.5h-15C2.019 24 0 21.981 0 19.5v-16C0 1.57 1.57 0 3.5 0 4.891 0 6.085 0.822 6.649 2H19.5C21.981 2 24 4.019 24 6.5zM1 16.5C1 17.879 2.122 19 3.5 19S6 17.879 6 16.5v-13C6 2.121 4.878 1 3.5 1S1 2.121 1 3.5zM23 6.5C23 4.57 21.43 3 19.5 3H6.949C6.973 3.165 7 3.329 7 3.5v13C7 18.43 5.43 20 3.5 20 2.52 20 1.636 19.593 1 18.942V19.5C1 21.43 2.57 23 4.5 23h15c1.93 0 3.5-1.57 3.5-3.5z" />
</svg>