<svg id="phone_call_Layer_1" viewBox="0 0 24 24" fill="currentColor" width="32" height="32" data-name="Layer 1" xmlns="http://www.w3.org/2000/svg" xmlns:xlink="http://www.w3.org/1999/xlink">
    <title>phone-call</title>
    <path d="M23.5 11c-0.276 0-0.5-0.224-0.5-0.5 0-5.238-4.262-9.5-9.5-9.5C13.224 1 13 0.776 13 0.5S13.224 0 13.5 0C19.29 0 24 4.71 24 10.5c0 0.276-0.224 0.5-0.5 0.5zM20 10.5C20 6.916 17.084 4 13.5 4 13.224 4 13 4.224 13 4.5S13.224 5 13.5 5c3.033 0 5.5 2.467 5.5 5.5 0 0.276 0.224 0.5 0.5 0.5s0.5-0.224 0.5-0.5zM22.234 22.271l0.978-1.125C23.72 20.638 24 19.962 24 19.244s-0.28-1.395-0.837-1.945l-2.446-1.873c-1.048-1.048-2.753-1.049-3.803-3e-3l-1.532 1.494c-3.68-1.499-6.678-4.5-8.294-8.303l1.488-1.525C9.625 6.04 9.625 4.333 8.619 3.333L6.66 0.79C5.643-0.227 3.847-0.203 2.88 0.767L1.706 1.791C0.605 2.886 0 4.373 0 5.976 0 13.725 10.275 24 18.024 24c1.603 0 3.089-0.605 4.21-1.729zM5.909 1.446 7.868 3.989c0.659 0.659 0.659 1.732-4e-3 2.396L6.142 8.151c-0.138 0.142-0.18 0.352-0.106 0.536 1.729 4.305 5.113 7.688 9.286 9.28 0.182 0.07 0.388 0.027 0.527-0.108l1.766-1.722c0 0 3e-3-3e-3 4e-3-5e-3 0.639-0.64 1.704-0.681 2.44 0.043l2.446 1.873c0.659 0.659 0.659 1.731-0.023 2.416l-0.979 1.125C20.595 22.499 19.359 23 18.024 23 10.864 23 1 13.136 1 5.976 1 4.641 1.501 3.405 2.387 2.52l1.175-1.025c0.336-0.336 0.779-0.5 1.215-0.5 0.419 0 0.831 0.152 1.132 0.451z" />
</svg>