<svg id="phone_megaphone_Layer_1" viewBox="0 0 24 24" fill="currentColor" width="32" height="32" data-name="Layer 1" xmlns="http://www.w3.org/2000/svg" xmlns:xlink="http://www.w3.org/1999/xlink">
    <title>phone-megaphone</title>
    <path d="M18.5 17H4V4.5C4 2.57 5.57 1 7.5 1h7c1.272 0 2.445 0.691 3.062 1.805 0.134 0.242 0.439 0.33 0.68 0.195 0.242-0.134 0.329-0.438 0.195-0.68C17.644 0.889 16.135 0 14.5 0h-7C5.019 0 3 2.019 3 4.5v15C3 21.981 5.019 24 7.5 24h7c2.481 0 4.5-2.019 4.5-4.5v-2c0-0.276-0.224-0.5-0.5-0.5zM18 19.5c0 1.93-1.57 3.5-3.5 3.5h-7C5.57 23 4 21.43 4 19.5V18h14zM9 20.5C9 20.224 9.224 20 9.5 20h3c0.276 0 0.5 0.224 0.5 0.5S12.776 21 12.5 21h-3C9.224 21 9 20.776 9 20.5zM23 7c0 0 0 0 0 0V3.5c8e-3-0.335-0.322-0.547-0.633-0.5-0.223 0-0.419 0.147-0.48 0.362C21.588 4.403 20.718 5 19.501 5h-2.5c-1.654 0-3 1.346-3 3 0 0.64 0.205 1.232 0.549 1.719l1.69 4.307C16.472 14.618 17.033 15 17.669 15c1.053 0.031 1.844-1.141 1.423-2.106L18.332 11h1.171c1.217 0 2.087 0.597 2.386 1.638 0.073 0.273 0.35 0.392 0.613 0.362 0.276 0 0.5-0.224 0.5-0.5V9c0 0 0 0 0 0 0.551 0 1-0.449 1-1S23.553 7 23 7zM18.162 13.267c0.067 0.168 0.048 0.35-0.053 0.498-0.224 0.333-0.794 0.271-0.939-0.104l-1.109-2.826C16.358 10.934 16.67 11 17 11h0.252zM19.5 10H17c-1.103 0-2-0.897-2-2s0.897-2 2-2h2.5c1.021 0 1.885-0.33 2.5-0.923v5.846C21.385 10.33 20.521 10 19.5 10z" />
</svg>