<svg id="phone_flip_Layer_1" viewBox="0 0 24 24" fill="currentColor" width="32" height="32" data-name="Layer 1" xmlns="http://www.w3.org/2000/svg" xmlns:xlink="http://www.w3.org/1999/xlink">
    <title>phone-flip</title>
    <path d="M22.27 1.77 21.15 0.79c-1.02-1.02-2.75-1.07-3.85 0.05l-1.87 2.45c-1.05 1.05-1.05 2.76 0 3.8l1.49 1.53c-1.62 3.8-4.61 6.8-8.29 8.3L7.1 15.43c-0.51-0.51-1.18-0.79-1.9-0.79s-1.39 0.28-1.85 0.75l-2.54 1.96c-1.05 1.05-1.05 2.76-0.02 3.78l1.02 1.17c1.1 1.1 2.58 1.71 4.19 1.71 7.75 0 18.02-10.28 18.02-18.02 0-1.6-0.61-3.09-1.75-4.22zM5.98 23c-1.34 0-2.57-0.5-3.46-1.39L1.5 20.43c-0.66-0.66-0.66-1.73-0.05-2.35l2.54-1.96c0.32-0.32 0.74-0.5 1.2-0.5s0.88 0.18 1.2 0.5c0 0 1.77 1.73 1.77 1.73 0.14 0.14 0.34 0.18 0.53 0.11 4.17-1.59 7.56-4.98 9.29-9.28 0.07-0.18 0.03-0.39-0.11-0.54l-1.73-1.77c-0.66-0.66-0.66-1.73 0.04-2.44l1.87-2.45c0.66-0.66 1.73-0.66 2.42 0.02l1.12 0.98C22.5 3.39 23 4.62 23 5.96 23 13.12 13.14 22.98 5.98 23z" />
</svg>