<svg id="phone_cross_Layer_1" viewBox="0 0 24 24" fill="currentColor" width="32" height="32" data-name="Layer 1" xmlns="http://www.w3.org/2000/svg" xmlns:xlink="http://www.w3.org/1999/xlink">
    <title>phone-cross</title>
    <path d="M20.717 15.425c-1.047-1.047-2.752-1.048-3.803-3e-3l-1.532 1.494c-3.68-1.499-6.678-4.5-8.294-8.303l1.488-1.525C9.084 6.58 9.364 5.904 9.364 5.186s-0.28-1.395-0.745-1.854L6.66 0.788C5.612-0.261 3.904-0.261 2.881 0.765L1.706 1.789C0.605 2.886 0 4.373 0 5.977 0 13.725 10.275 24 18.024 24c1.603 0 3.089-0.605 4.21-1.729l0.978-1.125C23.72 20.638 24 19.962 24 19.244s-0.28-1.395-0.837-1.945zM22.481 20.464l-0.979 1.125C20.594 22.499 19.358 23 18.023 23 10.864 23 1 13.136 1 5.977 1 4.641 1.501 3.406 2.386 2.52l1.175-1.024C3.897 1.16 4.34 0.995 4.776 0.995c0.419 0 0.831 0.153 1.133 0.452l1.959 2.544C8.187 4.31 8.363 4.735 8.363 5.186s-0.176 0.876-0.5 1.2L6.141 8.151c-0.138 0.143-0.18 0.353-0.106 0.536 1.729 4.305 5.113 7.688 9.286 9.28 0.182 0.07 0.388 0.028 0.527-0.108l1.766-1.722c0 0 3e-3-3e-3 4e-3-5e-3 0.659-0.659 1.732-0.66 2.44 0.043l2.446 1.873c0.659 0.659 0.659 1.731-0.023 2.416zM23.853 7.147c0.195 0.195 0.195 0.512 0 0.707C23.755 7.952 23.627 8 23.499 8s-0.256-0.049-0.354-0.146l-3.146-3.146-3.146 3.146C16.755 7.952 16.627 8 16.499 8s-0.256-0.049-0.354-0.146c-0.195-0.195-0.195-0.512 0-0.707l3.146-3.146-3.146-3.146c-0.195-0.195-0.195-0.512 0-0.707s0.512-0.195 0.707 0l3.146 3.146 3.148-3.148c0.195-0.195 0.512-0.195 0.707 0s0.195 0.512 0 0.707l-3.146 3.146z" />
</svg>