<svg id="phone_addiction_Layer_1" viewBox="0 0 24 24" fill="currentColor" width="32" height="32" data-name="Layer 1" xmlns="http://www.w3.org/2000/svg" xmlns:xlink="http://www.w3.org/1999/xlink">
    <title>phone-addiction</title>
    <path d="M18 3v10c0 1.654-1.346 3-3 3h-2.5c-0.276 0-0.5-0.224-0.5-0.5s0.224-0.5 0.5-0.5H15c1.103 0 2-0.897 2-2v-1h-2.5c-0.276 0-0.5-0.224-0.5-0.5s0.224-0.5 0.5-0.5H17V3c0-1.103-0.897-2-2-2h-5C8.897 1 8 1.897 8 3v4.5C8 7.776 7.776 8 7.5 8S7 7.776 7 7.5V5.146l-4.243 3.94C1.641 10.123 1 11.592 1 13.116V21.5C1 22.327 1.673 23 2.5 23h3C6.327 23 7 22.327 7 21.5v-3.852c0-0.101 0.03-0.198 0.086-0.281l3.586-5.281c0.476-0.564 0.412-1.349-0.109-1.792-0.465-0.396-1.165-0.389-1.626 0.017l-3.536 3.243c-0.202 0.187-0.519 0.174-0.706-0.03-0.187-0.203-0.173-0.52 0.03-0.707l3.543-3.249c0.835-0.74 2.096-0.754 2.943-0.036 0.94 0.8 1.056 2.216 0.256 3.158L8 17.801v3.698c0 1.379-1.121 2.5-2.5 2.5h-3c-1.379 0-2.5-1.121-2.5-2.5v-8.384c0-1.801 0.757-3.538 2.077-4.763L7 3.782V3c0-1.654 1.346-3 3-3h5c1.654 0 3 1.346 3 3zM12.5 23h-2c-0.276 0-0.5 0.224-0.5 0.5s0.224 0.5 0.5 0.5h2c0.276 0 0.5-0.224 0.5-0.5S12.776 23 12.5 23zM17.5 23h-2c-0.276 0-0.5 0.224-0.5 0.5s0.224 0.5 0.5 0.5h2c0.276 0 0.5-0.224 0.5-0.5S17.776 23 17.5 23zM23.5 15c-0.276 0-0.5 0.224-0.5 0.5v2c0 0.276 0.224 0.5 0.5 0.5s0.5-0.224 0.5-0.5v-2c0-0.276-0.224-0.5-0.5-0.5zM23.5 20c-0.276 0-0.5 0.224-0.5 0.5V22c0 0.551-0.448 0.999-1 0.999h-1.5c-0.276 0-0.5 0.226-0.5 0.501s0.224 0.5 0.5 0.5H22c1.103 0 2-0.897 2-2v-1.5c0-0.276-0.224-0.5-0.5-0.5zM23.414 9.585C23.036 9.208 22.534 9 22.001 9h-1.502C20.224 9.002 20 9.226 20 9.502s0.224 0.5 0.5 0.5h1.501c0.267-1e-3 0.518 0.103 0.706 0.291C22.896 10.481 23 10.732 23 10.999V12.5c0 0.276 0.224 0.5 0.5 0.5s0.5-0.224 0.5-0.5v-1.501c0-0.534-0.208-1.036-0.586-1.414z" />
</svg>