<svg id="phone_office_Layer_1" viewBox="0 0 24 24" fill="currentColor" width="32" height="32" data-name="Layer 1" xmlns="http://www.w3.org/2000/svg" xmlns:xlink="http://www.w3.org/1999/xlink">
    <title>phone-office</title>
    <path d="M19.5 2H6.649C6.085 0.822 4.891 0 3.5 0 1.57 0 0 1.57 0 3.5v16C0 21.981 2.019 24 4.5 24h15c2.481 0 4.5-2.019 4.5-4.5v-13C24 4.019 21.981 2 19.5 2zM22.949 6H16.5C15.673 6 15 5.327 15 4.5V3h4.5c1.758 0 3.204 1.308 3.449 3zM1 3.5C1 2.121 2.121 1 3.5 1S6 2.121 6 3.5v13C6 17.879 4.879 19 3.5 19S1 17.879 1 16.5zM19.5 23h-15C2.57 23 1 21.43 1 19.5v-0.558C1.636 19.593 2.52 20 3.5 20 5.43 20 7 18.43 7 16.5v-13C7 3.329 6.973 3.165 6.949 3H14v1.5C14 5.879 15.121 7 16.5 7H23v12.5c0 1.93-1.57 3.5-3.5 3.5zM16 11c0 0.552-0.448 1-1 1s-1-0.448-1-1 0.448-1 1-1 1 0.448 1 1zM12 11c0 0.552-0.448 1-1 1s-1-0.448-1-1 0.448-1 1-1 1 0.448 1 1zM20 11c0 0.552-0.448 1-1 1s-1-0.448-1-1 0.448-1 1-1 1 0.448 1 1zM16 15c0 0.552-0.448 1-1 1s-1-0.448-1-1 0.448-1 1-1 1 0.448 1 1zM12 15c0 0.552-0.448 1-1 1s-1-0.448-1-1 0.448-1 1-1 1 0.448 1 1zM20 15c0 0.552-0.448 1-1 1s-1-0.448-1-1 0.448-1 1-1 1 0.448 1 1zM16 19c0 0.552-0.448 1-1 1s-1-0.448-1-1 0.448-1 1-1 1 0.448 1 1zM12 19c0 0.552-0.448 1-1 1s-1-0.448-1-1 0.448-1 1-1 1 0.448 1 1zM20 19c0 0.552-0.448 1-1 1s-1-0.448-1-1 0.448-1 1-1 1 0.448 1 1z" />
</svg>