<svg id="phone_slash_Layer_1" viewBox="0 0 24 24" fill="currentColor" width="32" height="32" data-name="Layer 1" xmlns="http://www.w3.org/2000/svg" xmlns:xlink="http://www.w3.org/1999/xlink">
    <title>phone-slash</title>
    <path d="M23.854 0.146c-0.195-0.195-0.512-0.195-0.707 0L10.066 13.227c-1.245-1.339-2.245-2.888-2.977-4.615l1.488-1.525C9.626 6.038 9.626 4.331 8.62 3.331L6.661 0.788C5.613-0.261 3.906-0.26 2.881 0.765L1.707 1.789C0.605 2.886 0 4.373 0 5.976 0 9.5 2.154 13.784 5.783 17.51l-5.637 5.636c-0.195 0.195-0.195 0.512 0 0.707 0.098 0.098 0.226 0.146 0.354 0.146s0.256-0.049 0.354-0.146l23-22.999c0.195-0.195 0.195-0.512 0-0.708zM1 5.976C1 4.641 1.501 3.405 2.387 2.52l1.175-1.025c0.659-0.66 1.73-0.66 2.348-0.049l1.959 2.543c0.319 0.319 0.495 0.744 0.495 1.196s-0.176 0.876-0.5 1.2L6.142 8.151c-0.138 0.142-0.18 0.352-0.106 0.536 0.792 1.973 1.908 3.737 3.321 5.25l-2.866 2.866C3.045 13.263 1 9.243 1 5.976zM23.163 17.298c1.098 1.092 1.098 2.799 0.049 3.848l-0.978 1.125C21.113 23.395 19.627 24 18.024 24c-3.015 0-6.742-1.683-10.228-4.617-0.211-0.178-0.238-0.493-0.06-0.705 0.177-0.21 0.492-0.239 0.705-0.061C11.749 21.402 15.242 23 18.024 23c1.335 0 2.571-0.501 3.479-1.411l0.979-1.125c0.683-0.685 0.683-1.757 0.023-2.416l-2.446-1.873c-0.708-0.702-1.781-0.703-2.44-0.043l-1.77 1.727c-0.14 0.136-0.346 0.179-0.527 0.108-1.103-0.421-2.251-1.075-3.615-2.062-0.224-0.162-0.274-0.475-0.112-0.698 0.161-0.224 0.474-0.274 0.698-0.112 1.167 0.844 2.159 1.429 3.091 1.82l1.533-1.495c1.045-1.046 2.752-1.045 3.801 5e-3z" />
</svg>