<svg id="phone_plus_Layer_1" viewBox="0 0 24 24" fill="currentColor" width="32" height="32" data-name="Layer 1" xmlns="http://www.w3.org/2000/svg" xmlns:xlink="http://www.w3.org/1999/xlink">
    <title>phone-plus</title>
    <path d="M15 4.5C15 4.224 15.224 4 15.5 4H19V0.5C19 0.224 19.224 0 19.5 0S20 0.224 20 0.5V4h3.5C23.776 4 24 4.224 24 4.5S23.776 5 23.5 5H20v3.5C20 8.776 19.776 9 19.5 9S19 8.776 19 8.5V5h-3.5C15.224 5 15 4.776 15 4.5zM23.163 17.298c1.098 1.092 1.098 2.799 0.049 3.848l-0.978 1.125c-1.12 1.125-2.607 1.73-4.211 1.73C10.275 24 0 13.725 0 5.976 0 4.373 0.605 2.887 1.704 1.789L2.88 0.765c0.965-0.97 2.764-0.993 3.779 0.023l1.959 2.543c1.006 1 1.006 2.707-0.043 3.756L7.088 8.612c1.617 3.804 4.614 6.804 8.295 8.303l1.532-1.494c1.016-1.015 2.786-1.014 3.802 2e-3zM22.505 18.048l-2.446-1.874c-0.736-0.725-1.801-0.682-2.439-0.043 0 1e-3-3e-3 3e-3-5e-3 4e-3l-1.765 1.722c-0.141 0.136-0.345 0.178-0.528 0.109-4.171-1.592-7.556-4.975-9.285-9.281-0.074-0.184-0.032-0.394 0.105-0.536l1.722-1.766c0.664-0.664 0.664-1.736 5e-3-2.396L5.91 1.444C5.608 1.145 5.196 0.992 4.777 0.992c-0.436 0-0.879 0.165-1.215 0.5L2.386 2.517C1.501 3.402 1 4.638 1 5.973c0 7.16 9.864 17.024 17.023 17.024 1.336 0 2.571-0.501 3.48-1.411l0.978-1.125c0.683-0.685 0.683-1.757 0.024-2.413z" />
</svg>