<svg id="phone_heart_message_Layer_1" viewBox="0 0 24 24" fill="currentColor" width="32" height="32" data-name="Layer 1" xmlns="http://www.w3.org/2000/svg" xmlns:xlink="http://www.w3.org/1999/xlink">
    <title>phone-heart-message</title>
    <path d="M14.5 17H1V4.5C1 2.57 2.57 1 4.5 1h8C12.776 1 13 0.776 13 0.5S12.776 0 12.5 0h-8C2.019 0 0 2.019 0 4.5v15C0 21.981 2.019 24 4.5 24h7c2.481 0 4.5-2.019 4.5-4.5v-1c0-0.827-0.673-1.5-1.5-1.5zM15 19.5c0 1.93-1.57 3.5-3.5 3.5h-7C2.57 23 1 21.43 1 19.5V18h13.5c0.275 0 0.5 0.225 0.5 0.5zM10 20.5c0 0.276-0.224 0.5-0.5 0.5h-3C6.224 21 6 20.776 6 20.5S6.224 20 6.5 20h3c0.276 0 0.5 0.224 0.5 0.5zM20.5 3.001h-4.999c-0.933 0-1.811 0.364-2.474 1.027C12.365 4.691 12 5.569 12 6.501v6.911c1e-3 0.589 0.31 1.108 0.827 1.392 0.242 0.132 0.502 0.198 0.762 0.198 0.296 0 0.591-0.085 0.855-0.255L17.146 13h3.353c1.93 0 3.5-1.57 3.5-3.5V6.501c0-1.93-1.57-3.5-3.499-3.5zM23 9.5c0 1.379-1.121 2.5-2.5 2.5H17c-0.097 0-0.19 0.027-0.271 0.08l-2.824 1.826c-0.185 0.118-0.408 0.125-0.597 0.021-0.191-0.105-0.306-0.297-0.306-0.515V6.501C13 5.836 13.261 5.209 13.735 4.735 14.209 4.26 14.836 4 15.501 4H20.5C21.879 4 23 5.122 23 6.501zM19.25 5.5c-0.489 0-0.932 0.216-1.25 0.564C17.682 5.715 17.239 5.5 16.75 5.5 15.785 5.5 15 6.341 15 7.375c0 1.276 1.411 2.736 2.156 3.329 0.249 0.198 0.546 0.298 0.844 0.298s0.595-0.1 0.844-0.298C19.59 10.11 21 8.651 21 7.375 21 6.341 20.215 5.5 19.25 5.5zM18.22 9.922c0 0 0 0 0 0-0.129 0.104-0.31 0.104-0.438 0-0.746-0.593-1.78-1.809-1.78-2.547 0-0.482 0.337-0.875 0.75-0.875s0.75 0.393 0.75 0.875c0 0.276 0.224 0.5 0.5 0.5s0.5-0.224 0.5-0.5c0-0.482 0.337-0.875 0.75-0.875s0.75 0.393 0.75 0.875c0 0.738-1.034 1.954-1.782 2.547z" />
</svg>