<svg id="phone_pause_Layer_1" viewBox="0 0 24 24" fill="currentColor" width="32" height="32" data-name="Layer 1" xmlns="http://www.w3.org/2000/svg" xmlns:xlink="http://www.w3.org/1999/xlink">
    <title>phone-pause</title>
    <path d="M21.5 8C21.224 8 21 7.776 21 7.5v-7C21 0.224 21.224 0 21.5 0S22 0.224 22 0.5v7C22 7.776 21.776 8 21.5 8zM18 7.5v-7C18 0.224 17.776 0 17.5 0S17 0.224 17 0.5v7C17 7.776 17.224 8 17.5 8S18 7.776 18 7.5zM22.234 22.27l0.978-1.125c1.049-1.049 1.049-2.756-0.049-3.848l-2.446-1.874c-1.016-1.017-2.786-1.017-3.802-2e-3l-1.532 1.494c-3.681-1.499-6.678-4.499-8.295-8.303l1.487-1.525c1.049-1.049 1.049-2.756 0.043-3.756L6.659 0.788C5.643-0.229 3.845-0.205 2.88 0.765L1.704 1.789C0.605 2.887 0 4.374 0 5.976 0 13.725 10.275 24 18.023 24c1.604 0 3.091-0.605 4.211-1.73zM5.909 1.446 7.868 3.989c0.659 0.659 0.659 1.732-5e-3 2.396L6.141 8.151c-0.138 0.142-0.18 0.352-0.105 0.536 1.729 4.306 5.114 7.688 9.285 9.281 0.185 0.068 0.389 0.027 0.528-0.109l1.765-1.722c0 0 4e-3-3e-3 5e-3-4e-3 0.639-0.639 1.703-0.682 2.439 0.043l2.446 1.874c0.659 0.659 0.659 1.731-0.023 2.416l-0.978 1.125c-0.909 0.91-2.145 1.411-3.48 1.411C10.864 23 1 13.136 1 5.976 1 4.641 1.501 3.405 2.386 2.52l1.176-1.025c0.336-0.336 0.779-0.5 1.215-0.5 0.419 0 0.831 0.152 1.132 0.451z" />
</svg>