<svg id="photo_video_Layer_1" viewBox="0 0 24 24" fill="currentColor" width="32" height="32" data-name="Layer 1" xmlns="http://www.w3.org/2000/svg" xmlns:xlink="http://www.w3.org/1999/xlink">
    <title>photo-video</title>
    <path d="M17.5 16c-0.276 0-0.5 0.224-0.5 0.5V18h-3v-1.5c0-0.276-0.224-0.5-0.5-0.5S13 16.224 13 16.5V23H5V10h0.5C5.776 10 6 9.776 6 9.5S5.776 9 5.5 9H4c-2.206 0-4 1.794-4 4v7c0 2.206 1.794 4 4 4h10c2.206 0 4-1.794 4-4v-3.5c0-0.276-0.224-0.5-0.5-0.5zM1 15h3v3H1zM4 10v4H1v-1c0-1.654 1.346-3 3-3zM1 20v-1h3v4c-1.654 0-3-1.346-3-3zM14 23v-4h3v1c0 1.654-1.346 3-3 3zM19.5 0h-7C10.019 0 8 2.019 8 4.5v5c0 2.481 2.019 4.5 4.5 4.5h7c2.481 0 4.5-2.019 4.5-4.5v-5C24 2.019 21.981 0 19.5 0zM9 4.5C9 2.57 10.57 1 12.5 1h7c1.296 0 2.428 0.71 3.033 1.76l-4.194 4.194c-0.189 0.189-0.52 0.188-0.705 2e-3l-0.473-0.478c-0.552-0.552-1.421-0.592-2.03-0.084L9.517 11.32c-0.325-0.531-0.516-1.153-0.516-1.82zM23 9.5c0 1.93-1.57 3.5-3.5 3.5h-7c-0.902 0-1.724-0.346-2.345-0.909l5.625-4.936c0.201-0.166 0.49-0.153 0.672 0.029l0.472 0.478c0.566 0.566 1.555 0.567 2.122 0l3.879-3.879C22.974 4.015 23 4.255 23 4.501zM11 4c0-0.552 0.448-1 1-1s1 0.448 1 1-0.448 1-1 1-1-0.448-1-1z" />
</svg>