<svg id="physics_Layer_1" viewBox="0 0 24 24" fill="currentColor" width="32" height="32" data-name="Layer 1" xmlns="http://www.w3.org/2000/svg" xmlns:xlink="http://www.w3.org/1999/xlink">
    <title>physics</title>
    <path d="M22.922 16.315c-0.571-2.612-3.725-6.033-8.034-8.714-0.495-0.307-1.161-0.688-1.751-1.012 2.936-1.307 5.68-1.88 7.37-1.449 0.62 0.158 1.052 0.443 1.285 0.848 0.446 0.775 0.169 2.014-0.779 3.485-0.149 0.231-0.083 0.541 0.149 0.69 0.084 0.055 0.178 0.08 0.271 0.08 0.164 0 0.325-0.081 0.421-0.229 1.178-1.828 1.457-3.393 0.805-4.524-0.373-0.647-1.014-1.092-1.905-1.318-1.246-0.321-2.93-0.179-4.818 0.338-0.279-0.858-0.601-1.62-0.966-2.258C14.127 0.778 13.099 0 11.999 0 9.613 0 7.667 3.872 7.14 9.156 7.051 10.067 6.999 11.015 6.999 12c0 0.582 0.023 1.161 0.056 1.736-2.701-2.128-4.609-4.47-5.002-6.266-0.137-0.624-0.075-1.139 0.182-1.528 0.494-0.747 1.723-1.055 3.463-0.866 0.268 0.029 0.521-0.169 0.551-0.443S6.08 4.112 5.806 4.082C3.643 3.848 2.121 4.3 1.401 5.392 0.989 6.015 0.88 6.787 1.076 7.685c0.571 2.612 3.725 6.033 8.034 8.714 0.469 0.291 1.153 0.675 1.764 1.007-2.941 1.311-5.69 1.885-7.382 1.454-0.62-0.158-1.052-0.443-1.285-0.848-0.435-0.756-0.181-1.958 0.715-3.386 0.147-0.233 0.077-0.542-0.157-0.689-0.235-0.146-0.542-0.075-0.689 0.158-1.119 1.78-1.373 3.308-0.735 4.415 0.373 0.647 1.014 1.092 1.905 1.318C3.698 19.944 4.207 20 4.762 20c2.041 0 4.744-0.783 7.505-2.143 0.787-0.389 1.58-0.819 2.369-1.302 0.372-0.228 0.736-0.464 1.094-0.704C15.105 20.198 13.488 23 12 23c-0.71 0-1.458-0.621-2.103-1.748-0.137-0.24-0.441-0.323-0.683-0.186-0.239 0.137-0.323 0.442-0.186 0.682C9.871 23.222 10.899 24 11.999 24c2.386 0 4.327-3.823 4.854-9.108 0.089-0.911 0.146-1.907 0.146-2.892 0-0.583-0.023-1.162-0.056-1.736 2.701 2.128 4.609 4.47 5.002 6.266 0.137 0.624 0.075 1.139-0.182 1.528-0.48 0.729-1.668 1.043-3.346 0.878-0.274-0.021-0.519 0.175-0.545 0.45-0.026 0.274 0.175 0.52 0.45 0.546 0.322 0.03 0.629 0.046 0.922 0.046 1.608 0 2.759-0.466 3.354-1.369 0.412-0.623 0.521-1.395 0.324-2.294zM12 1c0.71 0 1.458 0.621 2.103 1.748 0.328 0.573 0.615 1.277 0.871 2.06-1.786 0.589-3.707 1.472-5.61 2.637C8.992 7.673 8.628 7.909 8.27 8.149 8.895 3.802 10.512 1 12 1zM15.886 14.523c-0.567 0.406-1.159 0.803-1.772 1.178-0.706 0.432-1.416 0.813-2.124 1.168-0.673-0.354-1.733-0.936-2.351-1.32-0.527-0.328-1.036-0.668-1.525-1.018C8.04 13.702 8 12.852 8 12c0-0.881 0.042-1.721 0.114-2.523 0.567-0.406 1.159-0.803 1.772-1.178 0.71-0.435 1.424-0.817 2.136-1.174 0.657 0.344 1.663 0.906 2.339 1.326 0.527 0.328 1.037 0.669 1.527 1.019C15.962 10.296 16 11.147 16 12c0 0.881-0.042 1.721-0.114 2.523zM13 12c0 0.552-0.448 1-1 1s-1-0.448-1-1 0.448-1 1-1 1 0.448 1 1z" />
</svg>