<svg id="pi_Layer_1" viewBox="0 0 24 24" fill="currentColor" width="32" height="32" data-name="Layer 1" xmlns="http://www.w3.org/2000/svg" xmlns:xlink="http://www.w3.org/1999/xlink">
    <title>pi</title>
    <path d="M24 20.5c0 1.93-1.57 3.5-3.5 3.5S17 22.43 17 20.5V1H8v15.112c0 4.766-3.031 7.634-3.16 7.754C4.744 23.955 4.622 24 4.5 24c-0.134 0-0.268-0.054-0.366-0.16-0.188-0.202-0.177-0.518 0.025-0.706C4.187 23.107 7 20.428 7 16.112V1H6C4.404 1 3.159 1.438 2.3 2.302 1.005 3.605 1 5.477 1 5.496 1.001 5.772 0.78 5.997 0.504 6H0.5C0.226 6 3e-3 5.78 0 5.506 0 5.413-7e-3 3.213 1.582 1.607 2.635 0.541 4.122 0 6 0h17.5C23.776 0 24 0.224 24 0.5S23.776 1 23.5 1H18v19.5c0 1.378 1.122 2.5 2.5 2.5s2.5-1.122 2.5-2.5c0-0.276 0.224-0.5 0.5-0.5s0.5 0.224 0.5 0.5z" />
</svg>