<svg id="piano_Layer_1" viewBox="0 0 24 24" fill="currentColor" width="32" height="32" data-name="Layer 1" xmlns="http://www.w3.org/2000/svg" xmlns:xlink="http://www.w3.org/1999/xlink">
    <title>piano</title>
    <path d="M19.717 9.908c-1.383 0-2.604-0.98-2.902-2.332l-0.241-1.089C15.729 2.667 12.407 0 8.496 0 3.811 0 0 3.811 0 8.496V19.5C0 21.981 2.019 24 4.5 24h15c2.481 0 4.5-2.019 4.5-4.5v-5.31c0-2.361-1.921-4.282-4.283-4.282zM1 8.496C1 4.362 4.362 1 8.496 1c3.439 0 6.359 2.345 7.102 5.703l0.241 1.089c0.399 1.805 2.03 3.116 3.879 3.116 1.81 0 3.283 1.472 3.283 3.282V16H1zM19.5 23h-15C2.57 23 1 21.43 1 19.5V17h3v3.5C4 20.776 4.224 21 4.5 21S5 20.776 5 20.5V17h2v3.5C7 20.776 7.224 21 7.5 21S8 20.776 8 20.5V17h2v3.5c0 0.276 0.224 0.5 0.5 0.5s0.5-0.224 0.5-0.5V17h2v3.5c0 0.276 0.224 0.5 0.5 0.5s0.5-0.224 0.5-0.5V17h2v3.5c0 0.276 0.224 0.5 0.5 0.5s0.5-0.224 0.5-0.5V17h2v3.5c0 0.276 0.224 0.5 0.5 0.5s0.5-0.224 0.5-0.5V17h3v2.5c0 1.93-1.57 3.5-3.5 3.5z" />
</svg>