<svg id="piano_keyboard_Layer_1" viewBox="0 0 24 24" fill="currentColor" width="32" height="32" data-name="Layer 1" xmlns="http://www.w3.org/2000/svg" xmlns:xlink="http://www.w3.org/1999/xlink">
    <title>piano-keyboard</title>
    <path d="M19.5 2h-15C2.019 2 0 4.019 0 6.5v11C0 19.981 2.019 22 4.5 22h15c2.481 0 4.5-2.019 4.5-4.5v-11C24 4.019 21.981 2 19.5 2zM4.5 3h15C21.43 3 23 4.57 23 6.5V13H1V6.5C1 4.57 2.57 3 4.5 3zM19.5 21h-15C2.57 21 1 19.43 1 17.5V14h3v3.5C4 17.776 4.224 18 4.5 18S5 17.776 5 17.5V14h2v3.5C7 17.776 7.224 18 7.5 18S8 17.776 8 17.5V14h2v3.5c0 0.276 0.224 0.5 0.5 0.5s0.5-0.224 0.5-0.5V14h2v3.5c0 0.276 0.224 0.5 0.5 0.5s0.5-0.224 0.5-0.5V14h2v3.5c0 0.276 0.224 0.5 0.5 0.5s0.5-0.224 0.5-0.5V14h2v3.5c0 0.276 0.224 0.5 0.5 0.5s0.5-0.224 0.5-0.5V14h3v3.5c0 1.93-1.57 3.5-3.5 3.5z" />
</svg>