<svg id="picaxe_minning_Layer_1" viewBox="0 0 24 24" fill="currentColor" width="32" height="32" data-name="Layer 1" xmlns="http://www.w3.org/2000/svg" xmlns:xlink="http://www.w3.org/1999/xlink">
    <title>picaxe-minning</title>
    <path d="M0.5 18c0.128 0 0.256-0.049 0.354-0.146L12.288 6.417c1.846 2.029 3.287 4.6 3.794 6.827 0.099 0.44 0.495 0.757 0.945 0.757 0.53 0.012 0.996-0.464 0.973-0.994-0.084-3.846-1.16-6.906-3.174-9.128l0.527-0.523c0.195-0.194 0.196-0.511 2e-3-0.707-0.194-0.195-0.511-0.197-0.707-2e-3L14.12 3.172C11.902 1.158 8.843 0.084 4.994 0 4.446-0.012 3.988 0.437 4 0.997 4 1.454 4.312 1.844 4.757 1.944 6.996 2.451 9.569 3.884 11.58 5.71L0.146 17.146c-0.195 0.195-0.195 0.512 0 0.707C0.244 17.951 0.372 17.999 0.5 18zM13.781 4.207c2.013 2.017 3.094 4.91 3.22 8.583-0.628-2.509-2.234-5.273-4.343-7.452C10.432 3.186 7.561 1.553 4.973 1c3.795 0.083 6.759 1.162 8.808 3.207zM24 0.5v12.171c0 0.668-0.26 1.296-0.732 1.768l-1.828 1.828c-0.283 0.284-0.439 0.66-0.439 1.061v1.171c0 1.378-1.121 2.5-2.5 2.5h-1.172c-0.395 0-0.781 0.16-1.061 0.439l-1.828 1.828c-0.473 0.472-1.1 0.732-1.768 0.732H0.5c-0.276 0-0.5-0.224-0.5-0.5s0.224-0.5 0.5-0.5h12.172c0.395 0 0.781-0.16 1.061-0.439l1.828-1.828c0.473-0.472 1.1-0.732 1.768-0.732h1.172c0.827 0 1.5-0.673 1.5-1.5v-1.171c0-0.668 0.26-1.296 0.732-1.768l1.828-1.828C22.844 13.448 23 13.072 23 12.671V0.5C23 0.224 23.224 0 23.5 0S24 0.224 24 0.5zM11.556 12.147 9.843 12.905C9.331 13.131 9 13.639 9 14.198v1.429c0 0.537 0.312 1.035 0.793 1.271l1.424 0.696c0.58 0.285 1.288 0.141 1.708-0.365l1.247-1.497c0.405-0.486 0.437-1.188 0.077-1.709l-0.957-1.387c-0.385-0.559-1.116-0.765-1.736-0.489zM13.405 15.092l-1.247 1.497c-0.123 0.146-0.329 0.191-0.501 0.106l-1.424-0.696c-0.142-0.069-0.232-0.215-0.232-0.373v-1.429c0-0.164 0.097-0.312 0.247-0.379l1.713-0.758c0.179-0.079 0.396-0.021 0.509 0.144l0.958 1.387c0.105 0.152 0.096 0.358-0.023 0.501zM7.698 18.681c0.184 0.081 0.303 0.264 0.303 0.465v0.794c0 0.194-0.111 0.371-0.285 0.456l-0.791 0.387c-0.21 0.103-0.464 0.049-0.614-0.131l-0.693-0.831c-0.146-0.175-0.157-0.426-0.028-0.614l0.532-0.771c0.139-0.201 0.4-0.275 0.624-0.176z" />
</svg>