<svg id="picking_box_Layer_1" viewBox="0 0 24 24" fill="currentColor" width="32" height="32" data-name="Layer 1" xmlns="http://www.w3.org/2000/svg" xmlns:xlink="http://www.w3.org/1999/xlink">
    <title>picking-box</title>
    <path d="M23.5 8h-2.753c-1.255 0-2.421 0.678-3.042 1.77-0.214 0.375-0.404 0.707-0.477 0.829-1.091 1.822-2.991 2.991-3.205 3.119-0.781 0.467-1.862 0.314-2.488-0.356-0.38-0.406-0.567-0.95-0.528-1.533 0.041-0.617 0.429-1.211 1.037-1.59C13.323 9.442 14 8.495 14 7.5c0-0.735-0.322-1.43-0.885-1.907-0.561-0.475-1.301-0.681-2.036-0.559C9.893 5.23 9 6.339 9 7.613V12.5c0 0.441-0.192 0.858-0.529 1.144-0.341 0.29-0.774 0.408-1.227 0.335C6.535 13.864 6 13.182 6 12.393V6.5c0-1.134 0.345-2.189 0.936-3.065l0.302-0.403c0 0 2e-3-5e-3 3e-3-7e-3C8.251 1.79 9.784 1 11.5 1h12C23.776 1 24 0.776 24 0.5S23.776 0 23.5 0H9.779C8.197 0 6.66 0.318 5.21 0.947L1.503 2.552c-0.587 0.25-1.067 0.743-1.318 1.353-0.252 0.619-0.246 1.298 0.014 1.911 0.26 0.614 0.743 1.092 1.362 1.345 0.297 0.121 0.611 0.183 0.934 0.183 0.096 0 0.189-0.018 0.284-0.029L1.37 9.195c-0.35 0.573-0.456 1.245-0.299 1.89 0.156 0.652 0.827 1.913 2.417 1.913 0.199 0 1.25-0.307 1.521-0.51 0.044 1.233 0.917 2.29 2.076 2.479 0.731 0.121 1.476-0.084 2.035-0.561 0.56-0.476 0.881-1.17 0.881-1.905V7.614c0-0.791 0.534-1.475 1.242-1.592 0.452-0.071 0.885 0.044 1.227 0.335 0.338 0.287 0.531 0.704 0.531 1.144 0 0.798-0.808 1.469-1.485 1.891-0.881 0.549-1.443 1.436-1.506 2.372-0.058 0.861 0.225 1.672 0.796 2.282 0.567 0.607 1.368 0.955 2.196 0.955 0.542 0 1.073-0.147 1.536-0.424 0.384-0.229 2.358-1.474 3.55-3.464 0.075-0.125 0.27-0.464 0.487-0.847 0.443-0.78 1.276-1.264 2.173-1.264h2.753c0.276 0 0.5-0.224 0.5-0.5S23.777 8.002 23.5 8zM3.1 6.219C2.723 6.38 2.304 6.385 1.939 6.236 1.567 6.084 1.277 5.797 1.12 5.426 0.964 5.059 0.961 4.653 1.111 4.283 1.261 3.916 1.548 3.62 1.898 3.471l3.709-1.606c0.694-0.3 1.41-0.519 2.141-0.663C7.257 1.55 6.816 1.963 6.44 2.431c0 0-1e-3 0-2e-3 2e-3L3.866 5.865zM3.851 11.953c-0.163 0.039-0.329 0.052-0.491 0.039-0.229-0.02-0.445-0.092-0.646-0.215-0.339-0.206-0.577-0.535-0.672-0.927-0.094-0.387-0.029-0.789 0.154-1.094l2.83-3.774C5.012 6.154 5 6.326 5 6.5v4.452l-0.228 0.344c-0.195 0.32-0.54 0.565-0.921 0.657zM12.5 16h-5C6.121 16 5 17.122 5 18.5v3C5 22.878 6.121 24 7.5 24h5c1.379 0 2.5-1.122 2.5-2.5v-3c0-1.378-1.121-2.5-2.5-2.5zM14 21.5c0 0.827-0.673 1.5-1.5 1.5h-5C6.673 23 6 22.327 6 21.5v-3C6 17.673 6.673 17 7.5 17h5c0.827 0 1.5 0.673 1.5 1.5zM12 19.5c0 0.276-0.224 0.5-0.5 0.5h-3C8.224 20 8 19.776 8 19.5S8.224 19 8.5 19h3c0.276 0 0.5 0.224 0.5 0.5z" />
</svg>