<svg id="picking_Layer_1" viewBox="0 0 24 24" fill="currentColor" width="32" height="32" data-name="Layer 1" xmlns="http://www.w3.org/2000/svg" xmlns:xlink="http://www.w3.org/1999/xlink">
    <title>picking</title>
    <path d="M18.5 0H4.607c-1.273 0-2.38 0.896-2.573 2.084-0.12 0.733 0.085 1.475 0.561 2.035 0.399 0.469 0.953 0.757 1.554 0.842L1.48 6.22C0.339 6.786-0.251 8.081 0.105 9.232c0.22 0.71 0.733 1.282 1.409 1.571 0.675 0.289 1.44 0.267 2.101-0.062l0.742-0.376-2.023 3.883c-0.589 1.129-0.307 2.524 0.657 3.245 0.443 0.331 0.975 0.506 1.512 0.506 0.185 0 0.37-0.021 0.554-0.062 0.716-0.163 1.321-0.631 1.664-1.288l0.28-0.556v5.299c0 1.273 0.896 2.38 2.084 2.573 0.137 0.022 0.274 0.034 0.411 0.034 0.594 0 1.169-0.208 1.624-0.595 0.56-0.477 0.881-1.171 0.881-1.905v-5.887c0-0.791 0.534-1.475 1.243-1.592 0.445-0.073 0.884 0.044 1.226 0.334 0.338 0.287 0.531 0.704 0.531 1.145 0 0.798-0.808 1.469-1.484 1.891-0.882 0.549-1.444 1.436-1.507 2.372-0.058 0.861 0.225 1.672 0.796 2.282 0.938 1.005 2.562 1.232 3.732 0.531 0.384-0.229 2.358-1.475 3.55-3.464 0.138-0.231 1.561-2.964 2.73-5.215 0.773-1.486 1.183-3.16 1.183-4.839V5.498c0-3.032-2.468-5.5-5.501-5.498zM23 9.059c0 1.519-0.37 3.032-1.069 4.378-1.598 3.073-2.607 5.004-2.702 5.162-1.091 1.822-2.991 2.991-3.205 3.119-0.781 0.466-1.862 0.314-2.488-0.355-0.38-0.406-0.567-0.95-0.528-1.533 0.041-0.616 0.429-1.211 1.037-1.589 1.279-0.798 1.956-1.745 1.956-2.74 0-0.735-0.322-1.43-0.885-1.907-0.562-0.477-1.307-0.682-2.035-0.558-1.186 0.195-2.08 1.304-2.08 2.578v5.887c0 0.44-0.192 0.857-0.529 1.144-0.341 0.29-0.776 0.406-1.227 0.336-0.709-0.116-1.244-0.798-1.244-1.587v-5.893c0-2.327 1.474-4.412 3.667-5.187 0.26-0.092 0.396-0.378 0.305-0.639-0.093-0.261-0.377-0.397-0.639-0.305-1.629 0.576-2.92 1.763-3.656 3.248-0.05 0.042-0.092 0.095-0.123 0.157l-1.724 3.418c-0.203 0.391-0.567 0.671-0.997 0.77-0.434 0.099-0.879 3e-3-1.243-0.27-0.576-0.431-0.735-1.282-0.37-1.981l2.134-4.095c0.338-0.648 0.86-1.166 1.51-1.498l4.826-2.469c0.246-0.126 0.343-0.427 0.218-0.672-0.124-0.246-0.426-0.341-0.671-0.22L3.166 9.849c-0.396 0.197-0.854 0.209-1.26 0.035-0.411-0.176-0.712-0.512-0.847-0.948-0.213-0.687 0.159-1.469 0.855-1.815L11.7 2.504c0.25-0.118 0.357-0.416 0.239-0.665-0.117-0.251-0.418-0.354-0.665-0.239L6.146 4.019C6.114 4.013 6.085 4 6.052 4H4.5C4.06 4 3.643 3.808 3.356 3.471 3.066 3.13 2.947 2.695 3.02 2.244 3.136 1.535 3.818 1 4.607 1H18.5C20.981 1 23 3.019 23 5.5z" />
</svg>