<svg id="picnic_Layer_1" viewBox="0 0 24 24" fill="currentColor" width="32" height="32" data-name="Layer 1" xmlns="http://www.w3.org/2000/svg" xmlns:xlink="http://www.w3.org/1999/xlink">
    <title>picnic</title>
    <path d="M23.381 8.854C22.906 8.311 22.22 8 21.5 8h-0.555c-0.5-4.523-4.341-8-8.945-8S3.555 3.477 3.056 8H2.501C1.78 8 1.094 8.311 0.62 8.854c-0.475 0.542-0.692 1.263-0.597 1.978l1.119 8.396C1.505 21.949 3.849 24 6.594 24h10.812c2.745 0 5.089-2.052 5.452-4.772l1.119-8.396c0.095-0.715-0.122-1.436-0.596-1.978zM12 1c4.055 0 7.443 3.034 7.938 7H4.062C4.556 4.034 7.945 1 12 1zM19.418 9l-4.711 4.711c-0.378 0.377-1.036 0.377-1.414 0L8.582 9zM22.986 10.698l-1.119 8.396c-0.297 2.227-2.215 3.905-4.461 3.905H6.594c-2.246 0-4.164-1.679-4.461-3.905l-1.119-8.396c-0.057-0.429 0.073-0.861 0.358-1.187s0.696-0.512 1.129-0.512h4.667l5.418 5.418c0.377 0.378 0.88 0.586 1.414 0.586s1.037-0.208 1.414-0.586l5.418-5.418h0.667c0.433 0 0.844 0.187 1.129 0.512s0.415 0.758 0.358 1.187z" />
</svg>