<svg id="picpeople_filled_Layer_1" viewBox="0 0 24 24" fill="currentColor" width="32" height="32" data-name="Layer 1" xmlns="http://www.w3.org/2000/svg" xmlns:xlink="http://www.w3.org/1999/xlink">
    <title>picpeople-filled</title>
    <path d="M19.5 2h-15C2.02 2 0 4.02 0 6.5v11C0 19.98 2.02 22 4.5 22h15c2.48 0 4.5-2.02 4.5-4.5v-11C24 4.02 21.98 2 19.5 2zM23 17.5c0 1.93-1.57 3.5-3.5 3.5h-1.59c-0.48-2.84-2.94-5-5.91-5s-5.43 2.16-5.91 5H4.5C2.57 21 1 19.43 1 17.5v-11C1 4.57 2.57 3 4.5 3h15C21.43 3 23 4.57 23 6.5zM16 10c0 2.21-1.79 4-4 4s-4-1.79-4-4 1.79-4 4-4 4 1.79 4 4z" />
</svg>