<svg id="pie_Layer_1" viewBox="0 0 24 24" fill="currentColor" width="32" height="32" data-name="Layer 1" xmlns="http://www.w3.org/2000/svg" xmlns:xlink="http://www.w3.org/1999/xlink">
    <title>pie</title>
    <path d="M16 3.5v-3C16 0.224 16.224 0 16.5 0S17 0.224 17 0.5v3C17 3.776 16.776 4 16.5 4S16 3.776 16 3.5zM12 4c0.276 0 0.5-0.224 0.5-0.5v-3C12.5 0.224 12.276 0 12 0s-0.5 0.224-0.5 0.5v3C11.5 3.776 11.724 4 12 4zM7.5 4C7.776 4 8 3.776 8 3.5v-3C8 0.224 7.776 0 7.5 0S7 0.224 7 0.5v3C7 3.776 7.224 4 7.5 4zM7.529 13.47c-0.705-0.705-0.705-1.852 0-2.557 0.116-0.117 0.472-0.472 2.204-0.884 0.349-0.084 0.71 0.017 0.965 0.271 0.255 0.253 0.356 0.614 0.273 0.965-0.414 1.734-0.769 2.089-0.885 2.205C9.745 13.812 9.291 14 8.808 14s-0.938-0.188-1.279-0.53zM8.236 12.763c0.307 0.306 0.839 0.306 1.144 0 0.027-0.028 0.281-0.312 0.619-1.729-1.45 0.305-1.735 0.559-1.763 0.586-0.315 0.315-0.315 0.828 0 1.143zM24 13.818c0 0.967-0.485 2.692-2.213 3.095l-0.6 3.374c-0.382 2.151-2.245 3.712-4.43 3.712H7.244c-2.185 0-4.048-1.561-4.431-3.712l-0.6-3.374C0.484 16.51 0 14.785 0 13.818 0 10.298 5.537 6 12 6s12 4.299 12 7.818zM20.611 17.816C19.954 18.557 19.002 19 17.973 19c-1.254 0-2.396-0.659-3.026-1.715C14.316 18.341 13.175 19 11.92 19s-2.396-0.66-3.027-1.715C8.262 18.341 7.121 19 5.867 19c-0.929 0-1.796-0.362-2.439-0.978L3.8 20.113C4.098 21.785 5.547 23 7.246 23h9.513c1.699 0 3.148-1.214 3.445-2.887zM23 13.818C23 11.136 18.276 7 12 7S1 11.136 1 13.818C1.002 14.04 1.071 16 3 16c0.391 0 0.519 0.414 0.536 0.456C3.932 17.394 4.847 18 5.865 18s1.932-0.606 2.329-1.543c0.232-0.554 1.163-0.553 1.396 0C9.986 17.394 10.901 18 11.918 18s1.933-0.606 2.328-1.543c0.234-0.552 1.163-0.555 1.397 0C16.039 17.394 16.954 18 17.971 18s1.933-0.606 2.328-1.543C20.417 16.179 20.692 16 20.998 16c1.978 0 2-2.093 2.002-2.182zM13.028 11.266c-0.083-0.352 0.019-0.712 0.273-0.966 0.254-0.255 0.615-0.356 0.965-0.271 1.73 0.412 2.087 0.767 2.203 0.884v0c0.705 0.706 0.705 1.853 0 2.558-0.342 0.342-0.796 0.53-1.279 0.53s-0.938-0.188-1.278-0.53c-0.116-0.116-0.471-0.471-0.884-2.205zM14.034 11.001c0.305 1.45 0.559 1.734 0.586 1.762 0.305 0.306 0.837 0.306 1.144 0 0.315-0.315 0.315-0.828 0-1.143-0.028-0.029-0.316-0.283-1.73-0.619z" />
</svg>