<svg id="pig_face_Layer_1" viewBox="0 0 24 24" fill="currentColor" width="32" height="32" data-name="Layer 1" xmlns="http://www.w3.org/2000/svg" xmlns:xlink="http://www.w3.org/1999/xlink">
    <title>pig-face</title>
    <path d="M23.546 0.621C23.197 0.225 22.698 0 22.173 0h-0.028c-2.584 0.042-5.042 0.269-6.72 2.546C14.347 2.192 13.196 2 12.001 2S9.655 2.192 8.577 2.546C6.898 0.269 4.44 0.042 1.855 0 1.326-0.01 0.81 0.217 0.454 0.621 0.103 1.019-0.057 1.546 0.018 2.069c0.1 0.703 0.621 3.297 2.181 5.94 0.01 0.017 4e-3 0.011-2e-3 4e-3C1.432 9.511 1 11.206 1 13c0 6.065 4.935 11 11 11s11-4.935 11-11c0-1.794-0.432-3.489-1.197-4.987-6e-3 8e-3-0.012 0.014-2e-3-4e-3 1.561-2.643 2.082-5.237 2.181-5.94 0.074-0.522-0.085-1.05-0.436-1.448zM1.008 1.928C0.975 1.693 1.044 1.463 1.204 1.282 1.365 1.098 1.589 1.001 1.84 1 4.568 1.044 6.333 1.372 7.6 2.919 5.617 3.788 3.937 5.225 2.769 7.024 1.477 4.686 1.096 2.551 1.008 1.928zM22 13c0 5.514-4.486 10-10 10S2 18.514 2 13 6.486 3 12 3 22 7.486 22 13zM22.992 1.928c-0.088 0.623-0.469 2.758-1.761 5.096-1.168-1.799-2.848-3.236-4.831-4.105 1.266-1.548 3.031-1.876 5.76-1.92h0.013c0.238 0 0.465 0.102 0.623 0.282 0.16 0.182 0.229 0.411 0.196 0.647zM12 12c-2.206 0-4 1.57-4 3.5S9.794 19 12 19s4-1.57 4-3.5-1.794-3.5-4-3.5zM12 18c-1.654 0-3-1.122-3-2.5s1.346-2.5 3-2.5 3 1.122 3 2.5-1.346 2.5-3 2.5zM21.803 8.013c0 0-1e-3-2e-3-2e-3-4e-3 0.014-0.015 8e-3-5e-3 2e-3 4e-3zM2.199 8.009c0 0-1e-3 2e-3-2e-3 4e-3-6e-3-8e-3-0.013-0.018 2e-3-4e-3zM17 10c0 0.552-0.448 1-1 1s-1-0.448-1-1 0.448-1 1-1 1 0.448 1 1zM8 11c-0.552 0-1-0.448-1-1s0.448-1 1-1 1 0.448 1 1-0.448 1-1 1z" />
</svg>