<svg id="pig_Layer_1" viewBox="0 0 24 24" fill="currentColor" width="32" height="32" data-name="Layer 1" xmlns="http://www.w3.org/2000/svg" xmlns:xlink="http://www.w3.org/1999/xlink">
    <title>pig</title>
    <path d="M19 10c0 0.552-0.448 1-1 1s-1-0.448-1-1 0.448-1 1-1 1 0.448 1 1zM24 11.5v2c0 0.827-0.673 1.5-1.5 1.5h-0.365c-1.054 1.996-2.934 3.404-5.135 3.85V19c0 1.103-0.897 2-2 2s-2-0.897-2-2H9c0 1.103-0.897 2-2 2s-2-0.897-2-2v-0.427c-3.226-1.14-5.298-4.367-4.964-7.818C0.14 9.674 0.492 8.66 1.032 7.763 0.427 6.93 0.085 5.843 0.014 4.527-1e-3 4.251 0.211 4.016 0.487 4.001 0.758 3.986 0.998 4.197 1.013 4.474 1.065 5.44 1.28 6.248 1.652 6.886 3.087 5.131 5.316 4.001 7.764 4.001h5.857c0.335-1.367 1.329-2.515 2.575-2.93 0.414-0.141 0.862-0.07 1.223 0.19C17.783 1.523 18 1.946 18 2.391v2.038c2.491 0.88 4.348 3.026 4.858 5.615C23.512 10.205 24 10.797 24 11.5zM23 11.5c0-0.276-0.225-0.5-0.5-0.5-0.249 0-0.531-0.183-0.566-0.429-0.357-2.5-2.153-4.581-4.576-5.301-0.212-0.063-0.357-0.258-0.357-0.479v-2.4c0-0.127-0.061-0.243-0.165-0.319-0.057-0.041-0.174-0.102-0.322-0.053-1.023 0.341-1.82 1.366-1.983 2.55-0.034 0.247-0.245 0.432-0.495 0.432h-6.27c-3.458 0-6.416 2.57-6.733 5.851-0.3 3.102 1.64 5.995 4.611 6.879 0.212 0.063 0.357 0.258 0.357 0.479v0.791c0 0.551 0.449 1 1 1s1-0.449 1-1v-0.5c0-0.276 0.224-0.5 0.5-0.5h5c0.276 0 0.5 0.224 0.5 0.5v0.5c0 0.551 0.448 1 1 1s1-0.449 1-1V18.43c0-0.249 0.183-0.46 0.43-0.495 2.157-0.309 4.006-1.672 4.945-3.648 0.082-0.174 0.258-0.285 0.451-0.285h0.674c0.275 0 0.5-0.224 0.5-0.5z" />
</svg>