<svg id="piggy_bank_budget_Layer_1" viewBox="0 0 24 24" fill="currentColor" width="32" height="32" data-name="Layer 1" xmlns="http://www.w3.org/2000/svg" xmlns:xlink="http://www.w3.org/1999/xlink">
    <title>piggy-bank-budget</title>
    <path d="M18 14c-0.552 0-1-0.448-1-1s0.448-1 1-1 1 0.448 1 1-0.448 1-1 1zM22.86 13.055C22.352 10.46 20.494 8.309 18 7.427V5.39c0-0.445-0.217-0.867-0.58-1.129-0.361-0.262-0.807-0.331-1.224-0.191-1.246 0.415-2.24 1.563-2.575 2.931H11.5c-0.276 0-0.5 0.224-0.5 0.5s0.224 0.5 0.5 0.5h2.534c0.25 0 0.461-0.185 0.495-0.432 0.163-1.185 0.96-2.209 1.983-2.55 0.148-0.052 0.266 0.012 0.322 0.053 0.105 0.075 0.165 0.191 0.165 0.318v2.4c0 0.222 0.146 0.416 0.357 0.479 2.423 0.721 4.219 2.802 4.576 5.302C21.967 13.817 22.249 14 22.498 14c0.275 0 0.5 0.225 0.5 0.5v2c0 0.275-0.225 0.5-0.5 0.5h-0.674c-0.193 0-0.369 0.111-0.451 0.285-0.939 1.977-2.788 3.341-4.945 3.648-0.247 0.035-0.43 0.246-0.43 0.495v0.571c0 0.552-0.448 1-1 1s-1-0.448-1-1v-0.5c0-0.276-0.224-0.5-0.5-0.5h-5c-0.276 0-0.5 0.224-0.5 0.5v0.5c0 0.552-0.449 1-1 1s-1-0.448-1-1v-0.79c0-0.221-0.146-0.416-0.357-0.479-2.972-0.885-4.911-3.778-4.611-6.879 0.246-2.539 2.059-4.708 4.621-5.523C5.914 8.244 6.059 7.963 5.976 7.7 5.892 7.436 5.611 7.292 5.348 7.375 3.854 7.851 2.585 8.733 1.656 9.869 1.286 9.233 1.063 8.436 1.012 7.474 0.996 7.198 0.756 6.967 0.486 7.001 0.21 7.016-1e-3 7.251 0.013 7.526 0.084 8.84 0.432 9.919 1.034 10.752c-0.543 0.906-0.895 1.925-0.999 3.004-0.333 3.449 1.738 6.677 4.964 7.817V22c0 1.103 0.897 2 2 2s2-0.897 2-2h4c0 1.103 0.897 2 2 2s2-0.897 2-2v-0.15c2.201-0.445 4.081-1.853 5.135-3.85h0.365c0.827 0 1.5-0.673 1.5-1.5v-2c0-0.688-0.466-1.27-1.139-1.445zM5.5 4H8v2.5C8 6.776 8.224 7 8.5 7S9 6.776 9 6.5V4h2.5C11.776 4 12 3.776 12 3.5S11.776 3 11.5 3H9V0.5C9 0.224 8.776 0 8.5 0S8 0.224 8 0.5V3H5.5C5.224 3 5 3.224 5 3.5S5.224 4 5.5 4z" />
</svg>