<svg id="pilates_reformer_Layer_1" viewBox="0 0 24 24" fill="currentColor" width="32" height="32" data-name="Layer 1" xmlns="http://www.w3.org/2000/svg" xmlns:xlink="http://www.w3.org/1999/xlink">
    <title>pilates-reformer</title>
    <path d="M23.5 2C23.224 2 23 2.224 23 2.5v1.77L16.315 10H10c-1.378 0-2.5 1.121-2.5 2.5v0.293L3.717 9.009C3.893 8.712 4 8.369 4 8 4 6.897 3.103 6 2 6S0 6.897 0 8s0.897 2 2 2c0.37 0 0.712-0.108 1.01-0.284L6.293 13H3.5C1.57 13 0 14.57 0 16.5v5C0 21.776 0.224 22 0.5 22S1 21.776 1 21.5V18h22v3.5c0 0.276 0.224 0.5 0.5 0.5s0.5-0.224 0.5-0.5v-19C24 2.224 23.776 2 23.5 2zM23 13h-6v-2.27l6-5.143zM10 11h6v2H8.5v-0.5c0-0.827 0.673-1.5 1.5-1.5zM2 9C1.449 9 1 8.552 1 8s0.449-1 1-1 1 0.448 1 1-0.449 1-1 1zM1 17v-0.5C1 15.121 2.122 14 3.5 14H23v3z" />
</svg>