<svg id="pillar_Layer_1" viewBox="0 0 24 24" fill="currentColor" width="32" height="32" data-name="Layer 1" xmlns="http://www.w3.org/2000/svg" xmlns:xlink="http://www.w3.org/1999/xlink">
    <title>pillar</title>
    <path d="M24 4.5C24 2.019 21.981 0 19.5 0h-15C2.019 0 0 2.019 0 4.5 0 6.81 1.756 8.697 4 8.949V21H3.5C2.673 21 2 21.673 2 22.5S2.673 24 3.5 24h17c0.827 0 1.5-0.673 1.5-1.5S21.327 21 20.5 21H20V8.949c2.244-0.252 4-2.139 4-4.449zM1 4.5C1 2.57 2.57 1 4.5 1h15C21.43 1 23 2.57 23 4.5S21.43 8 19.5 8 16 6.43 16 4.5c0-0.296 0.037-0.59 0.11-0.876 0.068-0.267-0.093-0.54-0.36-0.608-0.264-0.067-0.539 0.093-0.608 0.36C15.048 3.742 15 4.121 15 4.5c0 1.421 0.675 2.675 1.706 3.5H7.294C8.326 7.175 9 5.921 9 4.5 9 4.121 8.952 3.742 8.858 3.376 8.789 3.108 8.515 2.947 8.25 3.016 7.982 3.085 7.821 3.357 7.89 3.624 7.963 3.91 8 4.204 8 4.5 8 6.43 6.43 8 4.5 8S1 6.43 1 4.5zM21 22.5c0 0.276-0.224 0.5-0.5 0.5h-17C3.224 23 3 22.776 3 22.5S3.224 22 3.5 22h17c0.276 0 0.5 0.224 0.5 0.5zM10 21H9v-8.5C9 12.224 9.224 12 9.5 12s0.5 0.224 0.5 0.5zM15 21h-1v-8.5c0-0.276 0.224-0.5 0.5-0.5s0.5 0.224 0.5 0.5zM16 21v-8.5c0-0.827-0.673-1.5-1.5-1.5S13 11.673 13 12.5V21h-2v-8.5c0-0.827-0.673-1.5-1.5-1.5S8 11.673 8 12.5V21H5V9h14v12zM7 4.5C7 3.122 5.878 2 4.5 2S2 3.122 2 4.5 3.122 7 4.5 7 7 5.878 7 4.5zM3 4.5C3 3.673 3.673 3 4.5 3S6 3.673 6 4.5 5.327 6 4.5 6 3 5.327 3 4.5zM19.5 7C20.878 7 22 5.878 22 4.5S20.878 2 19.5 2 17 3.122 17 4.5 18.122 7 19.5 7zM19.5 3C20.327 3 21 3.673 21 4.5S20.327 6 19.5 6 18 5.327 18 4.5 18.673 3 19.5 3z" />
</svg>