<svg id="pills_Layer_1" viewBox="0 0 24 24" fill="currentColor" width="32" height="32" data-name="Layer 1" xmlns="http://www.w3.org/2000/svg" xmlns:xlink="http://www.w3.org/1999/xlink">
    <title>pills</title>
    <path d="M11 12c0 0.276-0.224 0.5-0.5 0.5H1v5C1 20.532 3.467 23 6.5 23c0.968 0 1.918-0.254 2.75-0.735 0.238-0.141 0.544-0.057 0.683 0.183 0.139 0.238 0.057 0.544-0.182 0.683-0.983 0.569-2.107 0.87-3.25 0.87-3.584 0-6.5-2.916-6.5-6.5V6.5C0 2.916 2.916 0 6.5 0S13 2.916 13 6.5v3c0 0.276-0.224 0.5-0.5 0.5S12 9.776 12 9.5v-3C12 3.468 9.533 1 6.5 1S1 3.468 1 6.5v5h9.5c0.276 0 0.5 0.224 0.5 0.5zM24 17.5c0 3.584-2.916 6.5-6.5 6.5S11 21.084 11 17.5 13.916 11 17.5 11 24 13.916 24 17.5zM13.278 21.015l7.738-7.738C20.062 12.481 18.837 12 17.5 12c-3.033 0-5.5 2.468-5.5 5.5 0 1.336 0.482 2.561 1.278 3.515zM23 17.5c0-1.336-0.482-2.561-1.278-3.515l-7.738 7.738C14.938 22.519 16.163 23 17.5 23c3.033 0 5.5-2.468 5.5-5.5z" />
</svg>