<svg id="pin_to_pin_Layer_1" viewBox="0 0 24 24" fill="currentColor" width="32" height="32" data-name="Layer 1" xmlns="http://www.w3.org/2000/svg" xmlns:xlink="http://www.w3.org/1999/xlink">
    <title>pin-to-pin</title>
    <path d="M5 14.058c0.591 0 1.182-0.22 1.631-0.66C8.114 11.992 10.161 10.266 10 8c0-1.336-0.521-2.592-1.465-3.536v0C7.59 3.52 6.335 3 5 3 2.31 2.945-0.054 5.311 0 8c-0.163 2.253 1.888 3.998 3.369 5.398 0.449 0.44 1.04 0.66 1.631 0.66zM1 8c0-1.069 0.416-2.074 1.172-2.829 1.487-1.551 4.167-1.551 5.656 0 1.551 1.485 1.552 4.17 4e-3 5.654l-1.9 1.858c-0.514 0.502-1.35 0.502-1.863 0l-1.888-1.846C1.419 10.076 1 9.069 1 8zM7 8c0-1.103-0.897-2-2-2S3 6.897 3 8s0.897 2 2 2 2-0.897 2-2zM4 8c0-0.551 0.448-1 1-1s1 0.449 1 1-0.448 1-1 1-1-0.449-1-1zM22.535 4.464v0C21.59 3.52 20.335 3 19 3c-2.69-0.055-5.054 2.311-5 5-0.163 2.253 1.888 3.998 3.369 5.398 0.898 0.88 2.363 0.88 3.262 0C22.114 11.992 24.161 10.266 24 8c0-1.336-0.521-2.592-1.465-3.536zM21.832 10.825l-1.9 1.858c-0.514 0.502-1.35 0.502-1.863 0l-1.888-1.846c-1.56-1.494-1.565-4.172-9e-3-5.667 1.487-1.551 4.167-1.551 5.656 0 1.551 1.485 1.552 4.17 4e-3 5.655zM19 6c-1.103 0-2 0.897-2 2s0.897 2 2 2 2-0.897 2-2-0.897-2-2-2zM19 9c-0.552 0-1-0.449-1-1s0.448-1 1-1 1 0.449 1 1-0.448 1-1 1zM19 17c-0.929 0-1.705 0.64-1.929 1.5H6.929C6.705 17.64 5.929 17 5 17c-1.103 0-2 0.897-2 2s0.897 2 2 2c0.929 0 1.705-0.64 1.929-1.5h10.142c0.224 0.86 1 1.5 1.929 1.5 1.103 0 2-0.897 2-2s-0.897-2-2-2zM5 20c-0.552 0-1-0.449-1-1s0.448-1 1-1 1 0.449 1 1-0.448 1-1 1zM19 20c-0.552 0-1-0.449-1-1s0.448-1 1-1 1 0.449 1 1-0.448 1-1 1z" />
</svg>