<svg id="pipe_smoking_Layer_1" viewBox="0 0 24 24" fill="currentColor" width="32" height="32" data-name="Layer 1" xmlns="http://www.w3.org/2000/svg" xmlns:xlink="http://www.w3.org/1999/xlink">
    <title>pipe-smoking</title>
    <path d="M23.5 0c-1.056 0-2.045 0.519-2.651 1.396l-6.556 9.885c-0.48-0.25-1.024-0.338-1.572-0.244-0.666 0.113-1.245 0.48-1.632 1.036l-1.578 2.288c-0.106-0.54-0.224-1.06-0.345-1.598l-0.113-0.509c-0.164-0.73-0.801-1.242-1.55-1.243l-5.029-9e-3h-3e-3c-0.739 0-1.392 0.522-1.553 1.244L0.81 12.728C0.395 14.57 3e-3 16.311 0 19.108c0 1.301 0.504 2.527 1.421 3.453 0.921 0.928 2.143 1.438 3.442 1.438h1.15c2.197 0 4.263-1.074 5.528-2.881l4.036-5.957c0.724-1.075 0.513-2.493-0.464-3.311l6.564-9.894C22.091 1.357 22.773 1 23.5 1 23.776 1 24 0.776 24 0.5S23.776 0 23.5 0zM14.749 14.603l-4.03 5.949C9.645 22.085 7.886 23 6.014 23h-1.15c-1.031 0-2.001-0.406-2.731-1.143S1 20.144 1.001 19.108c3e-3-2.686 0.383-4.374 0.785-6.16l0.109-0.485c0.06-0.267 0.302-0.461 0.576-0.461v0l5.029 9e-3c0.278 0 0.515 0.19 0.575 0.461l0.114 0.511c0.205 0.909 0.398 1.769 0.542 2.742 0.03 0.203 0.182 0.367 0.382 0.414 0.205 0.049 0.409-0.035 0.524-0.203l2.271-3.293c0.231-0.332 0.579-0.553 0.979-0.621 0.397-0.066 0.8 0.024 1.129 0.261l0.364 0.264c0.662 0.477 0.823 1.38 0.369 2.056z" />
</svg>