<svg id="pisa_tower_Layer_1" viewBox="0 0 24 24" fill="currentColor" width="32" height="32" data-name="Layer 1" xmlns="http://www.w3.org/2000/svg" xmlns:xlink="http://www.w3.org/1999/xlink">
    <title>pisa-tower</title>
    <path d="M23.5 23h-6.072l1.98-14.716c0.172-1.122-0.527-2.286-1.592-2.665l0.312-2.273c0.174-1.361-0.791-2.615-2.151-2.795l-4.028-0.534C10.62-0.19 9.283 0.839 9.141 2.174L8.834 4.407c-1.16 0.08-2.147 0.964-2.308 2.16L4.317 23H0.5C0.224 23 0 23.224 0 23.5S0.224 24 0.5 24h23c0.276 0 0.5-0.224 0.5-0.5S23.776 23 23.5 23zM10.133 2.305c0.086-0.805 0.885-1.42 1.685-1.297l4.028 0.534c0.816 0.108 1.395 0.86 1.292 1.672l-0.302 2.202-1.095-0.145 0.16-1.218c0.073-0.547-0.312-1.05-0.86-1.123-0.547-0.073-1.05 0.312-1.123 0.86l-0.16 1.218-0.991-0.131 0.16-1.218c0.073-0.547-0.312-1.05-0.86-1.123-0.547-0.073-1.05 0.312-1.123 0.86l-0.16 1.218-0.951-0.126zM14.693 16.897c-0.547-0.073-1.05 0.312-1.123 0.86L12.805 23h-1.01l0.784-5.374c0.073-0.547-0.312-1.05-0.86-1.123-0.547-0.073-1.05 0.312-1.123 0.86L9.773 23h-1.01l0.842-5.768c0.073-0.547-0.312-1.05-0.86-1.123-0.547-0.073-1.05 0.312-1.123 0.86L6.742 23H5.328l2.19-16.3c0.11-0.818 0.868-1.395 1.683-1.287l7.926 1.05c0.802 0.089 1.414 0.889 1.289 1.687L16.418 23h-1.593l0.727-4.98c0.073-0.547-0.312-1.05-0.859-1.123zM13.729 8.879 13.55 10.232c-0.046 0.348-0.365 0.592-0.713 0.546l-0.723-0.096c-0.348-0.046-0.592-0.365-0.546-0.713l0.179-1.353c0.073-0.547 0.575-0.932 1.123-0.86 0.548 0.073 0.933 0.575 0.859 1.123zM10.755 8.485 10.576 9.838c-0.046 0.348-0.365 0.592-0.713 0.546L9.14 10.288c-0.348-0.046-0.592-0.365-0.546-0.713l0.179-1.353c0.073-0.547 0.575-0.932 1.123-0.86 0.548 0.073 0.933 0.575 0.859 1.123zM13.152 13.332l-0.179 1.353c-0.046 0.348-0.365 0.592-0.713 0.546l-0.723-0.096c-0.348-0.046-0.592-0.365-0.546-0.713l0.179-1.353c0.073-0.547 0.575-0.932 1.123-0.86 0.547 0.073 0.932 0.575 0.859 1.123zM10.178 12.938 9.999 14.291c-0.046 0.348-0.365 0.592-0.713 0.546l-0.723-0.096c-0.348-0.046-0.592-0.365-0.546-0.713l0.179-1.353c0.073-0.547 0.575-0.932 1.123-0.86 0.547 0.073 0.932 0.575 0.859 1.123zM14.541 10.364 14.72 9.011c0.073-0.548 0.575-0.933 1.123-0.86s0.933 0.575 0.86 1.123l-0.179 1.353c-0.046 0.348-0.365 0.592-0.713 0.546l-0.723-0.096c-0.348-0.046-0.592-0.365-0.547-0.713zM15.234 15.625l-0.723-0.096c-0.348-0.046-0.592-0.365-0.546-0.713l0.179-1.353c0.073-0.548 0.575-0.933 1.123-0.86 0.547 0.073 0.932 0.575 0.86 1.123l-0.179 1.353c-0.046 0.348-0.365 0.592-0.714 0.546z" />
</svg>