<svg id="pizza_whole_slice_Layer_1" viewBox="0 0 24 24" fill="currentColor" width="32" height="32" data-name="Layer 1" xmlns="http://www.w3.org/2000/svg" xmlns:xlink="http://www.w3.org/1999/xlink">
    <title>pizza-whole-slice</title>
    <path d="M11.639 12.367c-0.353-0.355-0.88-0.463-1.344-0.273l-7.762 3.17c-0.683 0.279-1.2 0.844-1.42 1.55-0.22 0.707-0.114 1.468 0.292 2.087 0.474 0.726 1.025 1.405 1.638 2.021s1.291 1.171 2.013 1.647c0.41 0.271 0.882 0.41 1.361 0.41 0.243 0 0.487-0.036 0.726-0.108 0.707-0.217 1.273-0.731 1.555-1.412l3.208-7.747c0.191-0.462 0.087-0.989-0.267-1.345zM10.98 13.328 7.772 21.075c-0.167 0.404-0.504 0.71-0.924 0.839-0.423 0.127-0.875 0.063-1.243-0.18-0.666-0.439-1.29-0.95-1.855-1.519-0.564-0.567-1.073-1.194-1.51-1.862-0.241-0.369-0.304-0.822-0.173-1.243 0.13-0.419 0.438-0.755 0.843-0.921l7.762-3.17c0.131-0.055 0.223 0.019 0.257 0.053 0.034 0.033 0.105 0.125 0.051 0.256zM5 10c-0.552 0-1-0.448-1-1s0.448-1 1-1 1 0.448 1 1-0.448 1-1 1zM14 9c0 0.552-0.448 1-1 1s-1-0.448-1-1 0.448-1 1-1 1 0.448 1 1zM10 6C9.448 6 9 5.552 9 5s0.448-1 1-1 1 0.448 1 1-0.448 1-1 1zM19 10c-0.552 0-1-0.448-1-1s0.448-1 1-1 1 0.448 1 1-0.448 1-1 1zM17 15c-0.552 0-1-0.448-1-1s0.448-1 1-1 1 0.448 1 1-0.448 1-1 1zM14 18c0.552 0 1 0.448 1 1s-0.448 1-1 1-1-0.448-1-1 0.448-1 1-1zM24 12c0 6.617-5.383 12-12 12-0.698 0-1.4-0.061-2.086-0.181-0.272-0.047-0.454-0.306-0.407-0.578 0.048-0.271 0.302-0.463 0.579-0.406C10.715 22.944 11.359 23 12 23c6.065 0 11-4.935 11-11S18.065 1 12 1 1 5.935 1 12c0 0.642 0.056 1.285 0.166 1.914 0.047 0.271-0.134 0.531-0.406 0.578-0.277 0.055-0.532-0.135-0.579-0.406C0.061 13.401 0 12.699 0 12 0 5.383 5.383 0 12 0s12 5.383 12 12zM7 18c0 0.552-0.448 1-1 1s-1-0.448-1-1 0.448-1 1-1 1 0.448 1 1z" />
</svg>