<svg id="pizza_slice_Layer_1" viewBox="0 0 24 24" fill="currentColor" width="32" height="32" data-name="Layer 1" xmlns="http://www.w3.org/2000/svg" xmlns:xlink="http://www.w3.org/1999/xlink">
    <title>pizza-slice</title>
    <path d="M23.315 0.686c-0.647-0.646-1.582-0.853-2.456-0.535L2.218 7.63c-1.531 0.614-2.444 2.237-2.169 3.86 1.081 6.372 6.088 11.38 12.46 12.46 0.194 0.033 0.388 0.049 0.58 0.049 1.417 0 2.74-0.868 3.281-2.217l7.486-18.656c0.312-0.859 0.105-1.794-0.541-2.44zM15.443 21.41c-0.44 1.099-1.607 1.752-2.766 1.555v0C6.724 21.956 2.046 17.277 1.036 11.323 0.839 10.162 1.493 8.999 2.591 8.558l1.428-0.573c0.189 7.367 4.63 11.808 11.997 11.997zM19.172 11.531c-1.222-0.446-2.043-1.62-2.043-2.922 0-1.714 1.395-3.108 3.109-3.108 0.469 0 0.921 0.103 1.342 0.304 0.037 0.018 0.076 0.021 0.114 0.029l-2.337 5.823c-0.051-0.053-0.111-0.098-0.185-0.126zM22.923 2.769 22.054 4.934c-0.016-0.01-0.026-0.024-0.043-0.032-0.557-0.267-1.154-0.401-1.773-0.401-2.266 0-4.109 1.843-4.109 4.108 0 1.721 1.085 3.272 2.7 3.861 0.057 0.021 0.114 0.03 0.171 0.03 7e-3 0 0.013-6e-3 0.02-6e-3l-2.609 6.503C9.295 18.961 5.04 14.705 5.004 7.59l16.212-6.506C21.371 1.027 21.528 1 21.682 1c0.341 0 0.668 0.135 0.926 0.393 0.374 0.374 0.489 0.895 0.315 1.376z" />
    <path d="M10.5 8C9.122 8 8 9.121 8 10.5S9.122 13 10.5 13 13 11.879 13 10.5 11.878 8 10.5 8zM10.5 12C9.673 12 9 11.327 9 10.5S9.673 9 10.5 9 12 9.673 12 10.5 11.327 12 10.5 12z" />
</svg>