<svg id="place_of_worship_Layer_1" viewBox="0 0 24 24" fill="currentColor" width="32" height="32" data-name="Layer 1" xmlns="http://www.w3.org/2000/svg" xmlns:xlink="http://www.w3.org/1999/xlink">
    <title>place-of-worship</title>
    <path d="M12 9.5c0.828 0 1.5 0.673 1.5 1.5s-0.672 1.5-1.5 1.5-1.5-0.673-1.5-1.5 0.672-1.5 1.5-1.5zM22.147 12.536 16 8.064V3.625c0-0.782-0.374-1.53-1-2L13.5 0.5c-0.883-0.663-2.117-0.663-3 0L8.999 1.625C8.374 2.095 8 2.843 8 3.625V8.13l-6.203 4.663C0.672 13.638 0 14.982 0 16.39v5.609c0 1.103 0.897 2 2 2h0.5c0.276 0 0.5-0.224 0.5-0.5v-3c0-0.276 0.225-0.5 0.5-0.5s0.5 0.224 0.5 0.5v3c0 0.276 0.224 0.5 0.5 0.5h15c0.276 0 0.5-0.224 0.5-0.5v-3c0-0.276 0.225-0.5 0.5-0.5s0.5 0.224 0.5 0.5v3c0 0.276 0.224 0.5 0.5 0.5H22c1.103 0 2-0.897 2-2v-5.825c0-1.434-0.692-2.795-1.853-3.638zM8.8 8.779c0.125-0.095 0.199-0.243 0.199-0.4V3.625c0-0.469 0.225-0.918 0.6-1.2l1.5-1.125c0.531-0.397 1.27-0.397 1.801 0l1.499 1.125C14.775 2.707 15 3.156 15 3.625v4.694c0 0.16 0.076 0.31 0.206 0.404L17 10.028V23h-2v-5c0-1.654-1.346-3-3-3s-3 1.346-3 3v5H7V10.133zM13.999 23h-4v-5c0-1.103 0.897-2 2-2s2 0.897 2 2zM3.499 19c-0.827 0-1.5 0.673-1.5 1.5V23c-0.552 0-1-0.449-1-1v-5.609c0-1.095 0.522-2.141 1.397-2.798l3.603-2.708V23h-1v-2.5c0-0.827-0.673-1.5-1.5-1.5zM22.999 22c0 0.551-0.448 1-1 1v-2.5c0-0.827-0.673-1.5-1.5-1.5s-1.5 0.673-1.5 1.5V23h-1V10.755l3.56 2.589c0.901 0.657 1.44 1.715 1.44 2.831z" />
</svg>