<svg id="plagiarism_Layer_1" viewBox="0 0 24 24" fill="currentColor" width="32" height="32" data-name="Layer 1" xmlns="http://www.w3.org/2000/svg" xmlns:xlink="http://www.w3.org/1999/xlink">
    <title>plagiarism</title>
    <path d="M4 14.5C4 14.776 3.776 15 3.5 15 1.57 15 0 13.43 0 11.5v-8C0 1.57 1.57 0 3.5 0h4C9.43 0 11 1.57 11 3.5v5C11 8.776 10.776 9 10.5 9S10 8.776 10 8.5v-5C10 2.122 8.878 1 7.5 1h-4C2.122 1 1 2.122 1 3.5v8C1 12.878 2.122 14 3.5 14 3.776 14 4 14.224 4 14.5zM7.5 4h-4C3.224 4 3 4.224 3 4.5S3.224 5 3.5 5h4C7.776 5 8 4.776 8 4.5S7.776 4 7.5 4zM7.5 7h-4C3.224 7 3 7.224 3 7.5S3.224 8 3.5 8h4C7.776 8 8 7.776 8 7.5S7.776 7 7.5 7zM7.5 10h-4C3.224 10 3 10.224 3 10.5S3.224 11 3.5 11h4C7.776 11 8 10.776 8 10.5S7.776 10 7.5 10zM20.5 0h-4C14.57 0 13 1.57 13 3.5v5C13 8.776 13.224 9 13.5 9S14 8.776 14 8.5v-5C14 2.122 15.122 1 16.5 1h4C21.878 1 23 2.122 23 3.5v8c0 1.378-1.122 2.5-2.5 2.5-0.276 0-0.5 0.224-0.5 0.5s0.224 0.5 0.5 0.5c1.93 0 3.5-1.57 3.5-3.5v-8C24 1.57 22.43 0 20.5 0zM16.5 5h4C20.776 5 21 4.776 21 4.5S20.776 4 20.5 4h-4C16.224 4 16 4.224 16 4.5S16.224 5 16.5 5zM16.5 8h4C20.776 8 21 7.776 21 7.5S20.776 7 20.5 7h-4C16.224 7 16 7.224 16 7.5S16.224 8 16.5 8zM16.5 11h4c0.276 0 0.5-0.224 0.5-0.5S20.776 10 20.5 10h-4c-0.276 0-0.5 0.224-0.5 0.5s0.224 0.5 0.5 0.5zM18.5 17.5c0 3.584-2.916 6.5-6.5 6.5s-6.5-2.916-6.5-6.5S8.416 11 12 11s6.5 2.916 6.5 6.5zM17.5 17.5c0-3.033-2.467-5.5-5.5-5.5s-5.5 2.467-5.5 5.5S8.967 23 12 23s5.5-2.467 5.5-5.5zM14.854 14.646c-0.195-0.195-0.512-0.195-0.707 0l-2.146 2.146-2.146-2.146c-0.195-0.195-0.512-0.195-0.707 0s-0.195 0.512 0 0.707l2.146 2.146-2.146 2.146c-0.195 0.195-0.195 0.512 0 0.707 0.098 0.098 0.226 0.146 0.354 0.146s0.256-0.049 0.354-0.146l2.146-2.146 2.146 2.146c0.098 0.098 0.226 0.146 0.354 0.146s0.256-0.049 0.354-0.146c0.195-0.195 0.195-0.512 0-0.707l-2.146-2.146 2.146-2.146c0.195-0.195 0.195-0.512-2e-3-0.707z" />
</svg>