<svg id="plant_care_Layer_1" viewBox="0 0 24 24" fill="currentColor" width="32" height="32" data-name="Layer 1" xmlns="http://www.w3.org/2000/svg" xmlns:xlink="http://www.w3.org/1999/xlink">
    <title>plant-care</title>
    <path d="M0.42 3.104C1.238 4.657 2.257 6.59 4.114 7.546 4.718 7.857 5.551 8.008 6.3 8.008c0.401 0 1.219-0.084 2.013-0.603 0.394 0.759 0.619 1.5 0.69 2.15 0.027 0.25 0.236 0.441 0.488 0.446H9.5c0.248 0 0.459-0.182 0.495-0.428 0.06-0.415 0.362-1.789 1.616-2.734 0.309 0.393 0.708 0.716 1.19 0.917 0.396 0.165 0.814 0.247 1.23 0.247 0.504 0 1.005-0.12 1.463-0.357 1.17-0.608 2.272-1.667 3.276-3.149 0.236-0.349 0.293-0.777 0.156-1.173-0.145-0.418-0.493-0.751-0.933-0.893-1.314-0.422-3.271-0.749-5.136 0.085-1.429 0.639-2.15 2.101-1.735 3.438-0.748 0.53-1.242 1.179-1.559 1.784-0.129-0.33-0.297-0.667-0.485-1.006 0.12-0.141 0.238-0.291 0.347-0.465 0.562-0.895 0.72-2.003 0.435-3.042C9.583 2.214 8.928 1.399 8.016 0.93 5.021-0.612 2.22 0.184 0.815 0.794 0.463 0.949 0.19 1.237 0.069 1.586-0.047 1.922-0.018 2.282 0.152 2.599zM13.267 3.428c1.573-0.705 3.274-0.414 4.423-0.046 0.143 0.046 0.25 0.143 0.292 0.267 0.024 0.068 0.036 0.174-0.039 0.286-0.909 1.342-1.889 2.292-2.909 2.822-0.565 0.292-1.256 0.321-1.848 0.075-0.552-0.229-0.949-0.658-1.12-1.206-0.263-0.845 0.242-1.77 1.201-2.198zM1.215 1.711C2.456 1.17 4.932 0.465 7.561 1.818 8.22 2.157 8.696 2.751 8.898 3.488 9.109 4.257 9.039 5.089 8.507 5.827 7.663 4.663 6.436 3.534 4.731 2.646 4.49 2.519 4.185 2.614 4.057 2.858 3.929 3.103 4.025 3.405 4.27 3.532 5.896 4.378 7.038 5.454 7.799 6.547 7.018 7.074 6.192 7.005 6.102 6.997c-0.551-6e-3-1.073-0.109-1.53-0.344-1.576-0.811-2.475-2.515-3.267-4.019L1.034 2.123C0.997 2.054 0.991 1.982 1.015 1.911c0.029-0.086 0.103-0.16 0.2-0.2zM23.181 9.654c-0.497-0.452-1.142-0.675-1.809-0.652-0.67 0.032-1.288 0.322-1.739 0.818l-3.732 4.102c-0.314-1.108-1.335-1.923-2.543-1.923H3.5c-1.93 0-3.5 1.57-3.5 3.5v5c0 1.93 1.57 3.5 3.5 3.5h5.965c2.706 0 5.291-1.159 7.093-3.18l6.806-7.64c0.911-1.022 0.829-2.604-0.183-3.525zM22.618 12.515l-6.806 7.639C14.2 21.963 11.886 23 9.465 23H3.5C2.121 23 1 21.879 1 20.5v-5C1 14.121 2.121 13 3.5 13h9.857C14.262 13 15 13.737 15 14.643c0 0.812-0.605 1.511-1.398 1.624l-6.161 0.737c-0.274 0.032-0.47 0.281-0.437 0.556 0.032 0.274 0.282 0.477 0.556 0.437l6.172-0.738c1.022-0.146 1.846-0.879 2.146-1.824l4.496-4.94c0.271-0.298 0.643-0.473 1.046-0.492 0.402-0.02 0.79 0.12 1.088 0.393 0.609 0.555 0.658 1.506 0.11 2.119z" />
</svg>