<svg id="plane_arrival_Layer_1" viewBox="0 0 24 24" fill="currentColor" width="32" height="32" data-name="Layer 1" xmlns="http://www.w3.org/2000/svg" xmlns:xlink="http://www.w3.org/1999/xlink">
    <title>plane-arrival</title>
    <path d="M2.278 7.685c0.219 2.051 1.512 3.878 3.368 4.764l12.862 6.313c0.334 0.159 0.69 0.239 1.048 0.239 0.286 0 0.574-0.051 0.852-0.154 0.623-0.232 1.114-0.696 1.382-1.307 0.551-1.258-0.021-2.729-1.275-3.287l-3.463-1.733-1.672-8.991c-0.082-0.912-0.655-1.704-1.498-2.069l-0.793-0.338c-0.466-0.198-0.995-0.149-1.419 0.13-0.421 0.28-0.672 0.75-0.67 1.253v6.987L6.933 7.457 5.67 4.226C5.367 3.453 4.594 2.971 3.761 3.018 3.264 3.048 2.807 3.281 2.476 3.674 2.122 4.092 1.954 4.645 2.012 5.19zM12 2.503c0-0.171 0.081-0.324 0.224-0.418s0.316-0.11 0.473-0.043l0.791 0.337c0.504 0.218 0.848 0.693 0.903 1.287l1.541 8.294-3.931-1.967zM3.239 4.319c0.153-0.182 0.453-0.305 0.642-0.305 0.381 0 0.721 0.226 0.857 0.576L6.071 8c0.045 0.115 0.132 0.209 0.242 0.265l13.765 6.888 0.022 0.011c0.758 0.332 1.104 1.218 0.773 1.976-0.157 0.36-0.447 0.633-0.815 0.77-0.366 0.137-0.764 0.119-1.113-0.047L6.083 11.549c-1.552-0.74-2.628-2.262-2.811-3.971L3.005 5.082C2.976 4.807 3.061 4.529 3.239 4.319zM24 23.5c0 0.276-0.224 0.5-0.5 0.5h-23C0.224 24 0 23.776 0 23.5S0.224 23 0.5 23h23c0.276 0 0.5 0.224 0.5 0.5z" />
</svg>