<svg id="planet_ringed_Layer_1" viewBox="0 0 24 24" fill="currentColor" width="32" height="32" data-name="Layer 1" xmlns="http://www.w3.org/2000/svg" xmlns:xlink="http://www.w3.org/1999/xlink">
    <title>planet-ringed</title>
    <path d="M23.491 0.509c-1.517-1.518-5.346 0.717-7.609 2.276C14.688 2.28 13.376 2 11.999 2 6.486 2 2 6.486 2 12c0 1.376 0.279 2.688 0.784 3.882-1.56 2.264-3.794 6.092-2.276 7.609 0.34 0.34 0.812 0.496 1.387 0.496 1.518 0 3.758-1.087 6.21-2.777 1.198 0.508 2.514 0.79 3.894 0.79 5.514 0 10-4.486 10-10 0-1.376-0.279-2.688-0.784-3.882 0.407-0.59 0.777-1.166 1.107-1.722 1.197-2.021 2.372-4.684 1.169-5.887zM12 3c3.532 0 6.595 2.046 8.068 5.014-1.476 2.071-3.394 4.308-5.57 6.484s-4.413 4.093-6.484 5.569C5.045 18.594 3 15.531 3 11.999 3 7.038 7.037 3 12 3zM5.886 21.462c-2.775 1.645-4.234 1.76-4.67 1.322-0.561-0.56-0.111-2.579 2.078-5.87 0.896 1.582 2.211 2.896 3.793 3.793-0.409 0.271-0.81 0.524-1.201 0.755zM21 12c0 4.962-4.037 9-9 9-1.021 0-2.002-0.171-2.918-0.486 2.037-1.499 4.17-3.356 6.123-5.309 2.04-2.04 3.859-4.136 5.314-6.111C20.831 10.006 21 10.983 21 12zM20.707 7.086c-0.896-1.582-2.211-2.897-3.793-3.793 3.291-2.189 5.31-2.637 5.87-2.078 0.438 0.438 0.321 1.896-1.322 4.67-0.231 0.391-0.484 0.791-0.755 1.201z" />
</svg>