<svg id="plant_wilt_Layer_1" viewBox="0 0 24 24" fill="currentColor" width="32" height="32" data-name="Layer 1" xmlns="http://www.w3.org/2000/svg" xmlns:xlink="http://www.w3.org/1999/xlink">
    <title>plant-wilt</title>
    <path d="M20.991 12.535C20.793 7.274 17.231 7 16.5 7c-1.194 0-2.92 0.523-4 2.155V6c0-5.711-3.749-6-4.5-6H7.5C5.755 0 3.208 1.761 3.012 5.53 1.312 5.768 0 7.232 0 8.996c0 1.724 1.222 4.233 2.066 5.309 0.349 0.445 0.872 0.7 1.434 0.7s1.085-0.255 1.434-0.7C5.779 13.23 7 10.721 7 8.996 7 7.241 5.7 5.783 4.013 5.534 4.202 2.154 6.45 1.001 7.5 1.001H8c0.821 0 3.5 0.36 3.5 5v17.5c0 0.276 0.224 0.5 0.5 0.5s0.5-0.224 0.5-0.5v-10.5c0-4.86 3.591-5 4-5 0.793 0 3.318 0.336 3.49 4.537-1.689 0.247-2.99 1.706-2.99 3.463 0 1.724 1.222 4.233 2.066 5.309 0.349 0.445 0.872 0.7 1.434 0.7s1.085-0.255 1.434-0.7C22.779 20.235 24 17.726 24 16.001c0-1.763-1.311-3.226-3.009-3.466zM6 8.996c0 1.313-0.996 3.6-1.853 4.691-0.316 0.403-0.977 0.403-1.294 0C1.997 12.596 1 10.309 1 8.996c0-1.378 1.122-2.5 2.5-2.5S6 7.618 6 8.996zM21.147 20.692c-0.316 0.403-0.977 0.403-1.294 0C18.997 19.601 18 17.314 18 16.001c0-1.378 1.122-2.5 2.5-2.5s2.5 1.122 2.5 2.5c0 1.313-0.996 3.6-1.853 4.691z" />
</svg>