<svg id="plan_Layer_1" viewBox="0 0 24 24" fill="currentColor" width="32" height="32" data-name="Layer 1" xmlns="http://www.w3.org/2000/svg" xmlns:xlink="http://www.w3.org/1999/xlink">
    <title>plan</title>
    <path d="M6 10c-1.103 0-2 0.897-2 2s0.897 2 2 2 2-0.897 2-2-0.897-2-2-2zM6 13c-0.552 0-1-0.448-1-1s0.448-1 1-1 1 0.448 1 1-0.448 1-1 1zM11.331 10.097c0.101-0.389 0.044-0.792-0.158-1.137-0.203-0.346-0.528-0.592-0.916-0.692-0.388-0.103-0.791-0.045-1.139 0.159L8.895 8.558c-0.407-0.34-0.881-0.606-1.396-0.786V7.501c0-0.827-0.673-1.5-1.5-1.5s-1.5 0.673-1.5 1.5v0.271c-0.515 0.18-0.988 0.446-1.396 0.786L2.88 8.427C2.533 8.223 2.13 8.165 1.741 8.268 1.353 8.369 1.028 8.615 0.826 8.959c-0.203 0.346-0.26 0.749-0.159 1.138 0.101 0.388 0.347 0.713 0.691 0.915l0.234 0.138c-0.064 0.3-0.095 0.576-0.095 0.851s0.03 0.551 0.094 0.85l-0.233 0.138c-0.345 0.203-0.591 0.528-0.691 0.916-0.101 0.389-0.044 0.792 0.158 1.137 0.203 0.346 0.528 0.592 0.916 0.692 0.389 0.103 0.792 0.045 1.139-0.159l0.223-0.131c0.407 0.34 0.881 0.606 1.396 0.786v0.271c0 0.827 0.673 1.5 1.5 1.5s1.5-0.673 1.5-1.5V16.23c0.515-0.18 0.988-0.446 1.396-0.786l0.223 0.131c0.348 0.204 0.751 0.262 1.139 0.159 0.388-0.101 0.713-0.347 0.915-0.691 0.203-0.346 0.26-0.749 0.159-1.138-0.101-0.388-0.347-0.713-0.692-0.917l-0.232-0.137c0.063-0.299 0.094-0.575 0.094-0.85s-0.03-0.551-0.095-0.851l0.233-0.137c0.346-0.203 0.592-0.528 0.692-0.916zM9.35 11.045C9.453 11.406 9.5 11.71 9.5 12s-0.048 0.594-0.15 0.955c-0.062 0.219 0.031 0.452 0.228 0.568l0.555 0.325c0.116 0.068 0.198 0.177 0.231 0.307 0.033 0.129 0.015 0.264-0.054 0.379-0.067 0.115-0.175 0.197-0.305 0.23-0.132 0.032-0.265 0.015-0.379-0.053l-0.54-0.318c-0.195-0.116-0.446-0.084-0.607 0.077-0.431 0.432-0.984 0.743-1.604 0.903C6.654 15.431 6.5 15.63 6.5 15.857v0.642c0 0.275-0.225 0.5-0.5 0.5s-0.5-0.225-0.5-0.5v-0.642c0-0.228-0.154-0.427-0.375-0.484-0.619-0.16-1.173-0.472-1.604-0.903-0.096-0.097-0.225-0.146-0.354-0.146-0.087 0-0.175 0.022-0.254 0.069l-0.54 0.318c-0.113 0.068-0.247 0.087-0.379 0.053-0.13-0.033-0.237-0.115-0.306-0.231-0.067-0.114-0.086-0.249-0.053-0.378 0.033-0.13 0.115-0.238 0.23-0.306l0.556-0.326c0.196-0.116 0.29-0.35 0.228-0.568-0.103-0.361-0.15-0.665-0.15-0.955s0.048-0.594 0.15-0.955c0.062-0.219-0.03-0.452-0.227-0.567L1.865 10.15c-0.115-0.067-0.197-0.176-0.23-0.305S1.62 9.581 1.689 9.466c0.067-0.115 0.175-0.197 0.305-0.23 0.13-0.035 0.263-0.015 0.379 0.053l0.54 0.318C3.109 9.724 3.36 9.692 3.52 9.53 3.951 9.098 4.504 8.787 5.124 8.627 5.345 8.569 5.499 8.37 5.499 8.143V7.501c0-0.275 0.225-0.5 0.5-0.5s0.5 0.225 0.5 0.5v0.642c0 0.228 0.154 0.427 0.375 0.484 0.619 0.16 1.173 0.472 1.604 0.903 0.16 0.161 0.411 0.193 0.607 0.077l0.54-0.318c0.113-0.066 0.249-0.086 0.379-0.053s0.237 0.115 0.306 0.231c0.067 0.114 0.086 0.249 0.053 0.378s-0.115 0.237-0.231 0.306l-0.556 0.327c-0.196 0.115-0.289 0.349-0.226 0.567zM18.051 12.5C18.291 13.916 19.517 15 21 15c1.654 0 3-1.346 3-3s-1.346-3-3-3c-1.483 0-2.71 1.084-2.949 2.5H15V6c0-1.379 1.121-2.5 2.5-2.5h0.551C18.291 4.916 19.517 6 21 6c1.654 0 3-1.346 3-3s-1.346-3-3-3c-1.483 0-2.71 1.084-2.949 2.5H17.5C15.57 2.5 14 4.07 14 6v5.5h-1.5c-0.276 0-0.5 0.224-0.5 0.5s0.224 0.5 0.5 0.5H14V18c0 1.93 1.57 3.5 3.5 3.5h0.551C18.291 22.916 19.517 24 21 24c1.654 0 3-1.346 3-3s-1.346-3-3-3c-1.483 0-2.71 1.084-2.949 2.5H17.5c-1.379 0-2.5-1.121-2.5-2.5v-5.5zM21 10c1.103 0 2 0.897 2 2s-0.897 2-2 2-2-0.897-2-2 0.897-2 2-2zM21 1c1.103 0 2 0.897 2 2s-0.897 2-2 2-2-0.897-2-2 0.897-2 2-2zM21 19c1.103 0 2 0.897 2 2s-0.897 2-2 2-2-0.897-2-2 0.897-2 2-2z" />
</svg>