<svg id="plane_prop_Layer_1" viewBox="0 0 24 24" fill="currentColor" width="32" height="32" data-name="Layer 1" xmlns="http://www.w3.org/2000/svg" xmlns:xlink="http://www.w3.org/1999/xlink">
    <title>plane-prop</title>
    <path d="M23.984 11.69c-0.146-1.455-1.573-2.683-3.116-2.683l-6.019 6e-3-1.082-5.014H16v1.5c0 0.276 0.224 0.5 0.5 0.5s0.5-0.224 0.5-0.5V1.5C17 1.224 16.776 1 16.5 1S16 1.224 16 1.5V3h-2.449l-0.28-1.296C13.058 0.717 12.169 0 11.16 0 9.969 0 9 0.969 9 2.16V3H7.5C7.224 3 7 3.224 7 3.5S7.224 4 7.5 4H9v5.021l-4.014 4e-3-1.428-2.156C3.197 6.325 2.593 6.001 1.94 6.001 0.87 6.001 0 6.871 0 7.941v8.108C0 17.125 0.875 18 1.951 18c0.66 0 1.27-0.329 1.631-0.881l1.387-2.113L9 15.002V20H7.5C7.224 20 7 20.224 7 20.5S7.224 21 7.5 21H9v0.84C9 23.031 9.969 24 11.16 24c1.01 0 1.898-0.717 2.112-1.704L13.552 21H16v1.5c0 0.276 0.224 0.5 0.5 0.5s0.5-0.224 0.5-0.5v-4c0-0.276-0.224-0.5-0.5-0.5S16 18.224 16 18.5V20h-2.232l1.081-5.004 6.16-7e-3c0.843 0 1.652-0.359 2.218-0.985 0.566-0.625 0.842-1.469 0.757-2.314zM22.485 13.333c-0.377 0.417-0.915 0.656-1.477 0.656l-6.563 7e-3c-0.235 0-0.438 0.164-0.488 0.395l-1.663 7.694C12.179 22.615 11.702 23 11.16 23 10.52 23 10 22.479 10 21.84v-7.339c0-0.133-0.053-0.26-0.146-0.354S9.633 14.001 9.5 14.001v0l-4.801 5e-3c-0.168 0-0.325 0.085-0.417 0.226l-1.536 2.339c-0.176 0.27-0.473 0.43-0.794 0.43-0.524 0-0.951-0.427-0.951-0.951V7.94C1.001 7.421 1.423 7 1.941 7 2.257 7 2.55 7.157 2.725 7.421l1.576 2.38c0.093 0.14 0.249 0.224 0.417 0.224v0l4.783-5e-3c0.276 0 0.5-0.224 0.5-0.5V2.16c0-0.64 0.521-1.16 1.16-1.16 0.542 0 1.019 0.385 1.134 0.915l1.664 7.704c0.05 0.23 0.253 0.395 0.489 0.395v0l6.421-6e-3c1.035 0 2.025 0.832 2.121 1.782 0.058 0.572-0.121 1.121-0.505 1.543z" />
</svg>