<svg id="plane_clock_Layer_1" viewBox="0 0 24 24" fill="currentColor" width="32" height="32" data-name="Layer 1" xmlns="http://www.w3.org/2000/svg" xmlns:xlink="http://www.w3.org/1999/xlink">
    <title>plane-clock</title>
    <path d="M12 12c-3.309 0-6 2.691-6 6s2.691 6 6 6 6-2.691 6-6-2.691-6-6-6zM12 23c-2.757 0-5-2.243-5-5s2.243-5 5-5 5 2.243 5 5-2.243 5-5 5zM13.854 19.146c0.195 0.195 0.195 0.512 0 0.707s-0.512 0.195-0.707 0l-1.5-1.5c-0.094-0.094-0.146-0.221-0.146-0.354v-2.5c0-0.276 0.224-0.5 0.5-0.5s0.5 0.224 0.5 0.5v2.293zM24 11.5c0 1.378-1.122 2.5-2.5 2.5H19c-0.276 0-0.5-0.224-0.5-0.5S18.724 13 19 13h2.5c0.827 0 1.5-0.673 1.5-1.5S22.327 10 21.5 10h-4.426c-0.189 0-0.362-0.106-0.447-0.275l-4.005-7.958C12.367 1.299 11.862 1 11.313 1H11.13c-0.73-0.021-1.308 0.749-1.084 1.444l2.004 6.917c0.043 0.151 0.014 0.314-0.081 0.439-0.095 0.126-0.243 0.2-0.4 0.2H7.123C5.921 10 4.79 9.532 3.941 8.682L2.524 7.265c-0.285-0.284-0.706-0.347-1.07-0.158-0.458 0.225-0.575 0.879-0.319 1.305l1.614 2.825c0.534 0.935 1.441 1.597 2.427 1.771 0.272 0.048 0.453 0.308 0.405 0.579-0.047 0.274-0.314 0.454-0.58 0.405-1.275-0.226-2.441-1.071-3.121-2.26L0.266 8.908c-0.541-0.901-0.228-2.225 0.731-2.691 0.748-0.384 1.646-0.246 2.233 0.341l1.417 1.418c0.661 0.661 1.54 1.025 2.475 1.025h3.781L9.084 2.723c-0.42-1.311 0.67-2.761 2.045-2.722h0.183c0.916 0 1.757 0.5 2.195 1.303l3.875 7.697H21.5c1.378 0 2.5 1.122 2.5 2.499z" />
</svg>