<svg id="plan_strategy_Layer_1" viewBox="0 0 24 24" fill="currentColor" width="32" height="32" data-name="Layer 1" xmlns="http://www.w3.org/2000/svg" xmlns:xlink="http://www.w3.org/1999/xlink">
    <title>plan-strategy</title>
    <path d="M0.146 5.146 2.292 3 0.146 0.854c-0.195-0.196-0.195-0.512 0-0.708s0.512-0.195 0.708 0L3 2.292 5.146 0.146c0.195-0.195 0.512-0.195 0.707 0s0.195 0.512 0 0.707L3.707 2.999 5.853 5.145c0.195 0.195 0.195 0.512 0 0.707C5.755 5.95 5.627 5.998 5.499 5.998S5.243 5.949 5.145 5.852L2.999 3.706 0.854 5.854C0.756 5.952 0.628 6 0.5 6S0.244 5.951 0.146 5.854c-0.195-0.195-0.195-0.512 0-0.708zM9.146 9.853C9.244 9.951 9.372 9.999 9.5 9.999S9.756 9.95 9.854 9.853L12 7.707l2.146 2.146c0.098 0.098 0.226 0.146 0.354 0.146s0.256-0.049 0.354-0.146c0.195-0.195 0.195-0.512 0-0.707L12.708 7l2.146-2.146c0.195-0.195 0.195-0.512 0-0.707s-0.512-0.195-0.707 0l-2.146 2.146-2.146-2.146c-0.195-0.195-0.512-0.195-0.707 0s-0.195 0.512 0 0.707L11.294 7 9.148 9.146c-0.195 0.195-0.195 0.512-2e-3 0.707zM20.853 18.146c-0.195-0.195-0.512-0.195-0.707 0L18 20.292l-2.146-2.146c-0.195-0.195-0.512-0.195-0.707 0s-0.195 0.512 0 0.707l2.146 2.146-2.146 2.146c-0.195 0.195-0.195 0.512 0 0.707 0.098 0.098 0.226 0.146 0.354 0.146s0.256-0.049 0.354-0.146l2.146-2.146 2.146 2.146c0.098 0.098 0.226 0.146 0.354 0.146s0.256-0.049 0.354-0.146c0.195-0.195 0.195-0.512 0-0.707l-2.146-2.146 2.146-2.146c0.195-0.195 0.195-0.512-2e-3-0.707zM23.86 3.346c-0.098 0.102-0.229 0.153-0.36 0.153-0.125 0-0.25-0.046-0.347-0.14L21 1.289v8.21c0 2.481-2.019 4.5-4.5 4.5H6.495c-1.925 0-3.495 1.566-3.5 3.492L2.992 19c0 0.017-8e-3 0.032-0.01 0.049 1.145 0.228 2.01 1.239 2.01 2.451 0 1.379-1.121 2.5-2.5 2.5s-2.5-1.121-2.5-2.5c0-1.211 0.865-2.222 2.01-2.451-2e-3-0.017-0.01-0.033-0.01-0.05l3e-3-1.509C2.002 15.013 4.02 13 6.495 13H16.5c1.93 0 3.5-1.57 3.5-3.5V1.29l-2.153 2.07c-0.197 0.191-0.516 0.186-0.707-0.014-0.191-0.199-0.186-0.516 0.014-0.707l2.301-2.212c0.573-0.572 1.518-0.572 2.099 6e-3l2.294 2.206c0.199 0.191 0.205 0.508 0.012 0.707zM2.492 20c-0.827 0-1.5 0.673-1.5 1.5s0.673 1.5 1.5 1.5 1.5-0.673 1.5-1.5-0.673-1.5-1.5-1.5z" />
</svg>