<svg id="plate_utensils_Layer_1" viewBox="0 0 24 24" fill="currentColor" width="32" height="32" data-name="Layer 1" xmlns="http://www.w3.org/2000/svg" xmlns:xlink="http://www.w3.org/1999/xlink">
    <title>plate-utensils</title>
    <path d="M16.96 22.391c0.108 0.254-0.01 0.548-0.264 0.656-1.488 0.633-3.067 0.954-4.696 0.954C5.383 24 0 18.617 0 12S5.383 0 12 0c0.175 0 0.349 3e-3 0.522 0.011 0.276 0.012 0.49 0.246 0.478 0.521-0.012 0.276-0.245 0.508-0.521 0.478C12.32 1.003 12.161 1 12.001 1 5.935 1 1 5.935 1 12s4.935 11 11 11c1.493 0 2.941-0.294 4.304-0.874 0.255-0.109 0.548 0.01 0.656 0.265zM12 5c0.157 0 0.312 5e-3 0.466 0.016 0.012 0 0.023 0 0.035 0 0.261 0 0.48-0.202 0.499-0.466 0.019-0.276-0.189-0.514-0.465-0.533-0.176-0.012-0.355-0.018-0.534-0.018-4.411 0-8 3.589-8 8s3.589 8 8 8c1.748 0 3.408-0.553 4.801-1.6 0.221-0.166 0.265-0.479 0.1-0.7-0.166-0.22-0.479-0.264-0.7-0.1-1.219 0.916-2.671 1.4-4.2 1.4-3.86 0-7-3.14-7-7S8.142 4.999 12 5zM23.5 0C23.224 0 23 0.224 23 0.5v7c0 1.758-1.308 3.204-3 3.449V0.5C20 0.224 19.776 0 19.5 0S19 0.224 19 0.5v10.449c-1.692-0.245-3-1.691-3-3.449v-7C16 0.224 15.776 0 15.5 0S15 0.224 15 0.5v7c0 2.31 1.756 4.197 4 4.449V23.5c0 0.276 0.224 0.5 0.5 0.5s0.5-0.224 0.5-0.5V11.949c2.244-0.252 4-2.139 4-4.449v-7C24 0.224 23.776 0 23.5 0z" />
</svg>