<svg id="plate_Layer_1" viewBox="0 0 24 24" fill="currentColor" width="32" height="32" data-name="Layer 1" xmlns="http://www.w3.org/2000/svg" xmlns:xlink="http://www.w3.org/1999/xlink">
    <title>plate</title>
    <path d="M12 24C5.383 24 0 18.617 0 12S5.383 0 12 0 24 5.383 24 12 18.617 24 12 24zM12 1C5.935 1 1 5.935 1 12s4.935 11 11 11 11-4.935 11-11S18.065 1 12 1zM20 12c0-0.276-0.224-0.5-0.5-0.5S19 11.724 19 12c0 3.859-3.14 7-7 7s-7-3.141-7-7 3.14-7 7-7c0.276 0 0.5-0.224 0.5-0.5S12.276 4 12 4c-4.411 0-8 3.589-8 8s3.589 8 8 8 8-3.589 8-8z" />
</svg>