<svg id="plate_wheat_Layer_1" viewBox="0 0 24 24" fill="currentColor" width="32" height="32" data-name="Layer 1" xmlns="http://www.w3.org/2000/svg" xmlns:xlink="http://www.w3.org/1999/xlink">
    <title>plate-wheat</title>
    <path d="M0.647 7.226c1.707 1.175 2.969 1.771 3.748 1.771 0.456 0 1.007-0.22 1.563-0.52-0.242 0.691-0.426 1.417-0.525 1.958-0.078 0.429 0.06 0.868 0.366 1.175 0.25 0.25 0.588 0.387 0.937 0.387 0.079 0 0.159-7e-3 0.239-0.022 1.722-0.313 2.909-0.695 3.542-1.135 0.037 0.287 0.16 0.559 0.37 0.769 0.25 0.25 0.588 0.388 0.937 0.388 0.079 0 0.158-7e-3 0.238-0.022 1.663-0.302 2.821-0.669 3.47-1.089 0.044 0.27 0.162 0.525 0.361 0.724 0.25 0.25 0.588 0.388 0.937 0.388 0.079 0 0.159-7e-3 0.239-0.022 1.993-0.363 3.272-0.816 3.803-1.346 0.817-0.817 1.791-3.215 2.143-4.128h0.486c0.276 0 0.5-0.224 0.5-0.5s-0.224-0.5-0.5-0.5h-0.48c-0.338-0.904-1.272-3.269-2.091-4.087-0.529-0.529-1.824-0.998-3.849-1.391-0.431-0.085-0.876 0.05-1.188 0.359-0.202 0.2-0.322 0.458-0.366 0.732-0.645-0.42-1.801-0.788-3.461-1.093-0.429-0.08-0.871 0.058-1.178 0.366-0.212 0.212-0.336 0.489-0.371 0.78C9.868 0.74 8.689 0.356 6.988 0.025 6.558-0.06 6.113 0.074 5.8 0.384 5.488 0.692 5.35 1.134 5.43 1.567c0.1 0.539 0.284 1.262 0.527 1.95C5.402 3.218 4.852 3 4.396 3 3.617 3 2.355 3.596 0.648 4.771 0.243 5.045 2e-3 5.505 2e-3 5.997s0.241 0.951 0.645 1.229zM6.795 10.991c-0.147 0.026-0.253-0.053-0.289-0.089s-0.117-0.136-0.089-0.288c0.215-1.18 0.739-2.727 1.193-3.232 0.188-0.145 0.357-0.281 0.512-0.41C8.471 6.754 8.877 6.59 9.32 6.497h2.527c-0.453 1.129-1.225 2.873-1.776 3.424-0.362 0.362-1.587 0.762-3.276 1.07zM11.882 10.991c-0.148 0.026-0.253-0.053-0.288-0.089-0.036-0.036-0.117-0.136-0.089-0.288 0.213-1.168 0.779-2.799 1.252-3.271 0.411-0.411 1.001-0.695 1.753-0.845h2.678c-0.051 0.046-0.109 0.085-0.157 0.132-0.416 0.416-0.777 1.23-1.052 2.061-0.409 0.735-0.673 1.081-0.82 1.229-0.362 0.362-1.587 0.762-3.277 1.071zM20.163 9.921c-0.362 0.362-1.587 0.762-3.275 1.07-0.146 0.026-0.253-0.053-0.289-0.089s-0.116-0.136-0.088-0.289c0.086-0.475 0.484-1.739 0.487-1.813 0.23-0.654 0.496-1.218 0.739-1.462 0.413-0.413 1.006-0.698 1.667-0.838h2.534c-0.453 1.129-1.225 2.872-1.775 3.421zM16.596 1.091c0.035-0.036 0.141-0.119 0.292-0.088 1.724 0.335 2.969 0.752 3.333 1.117 0.55 0.55 1.294 2.268 1.728 3.379h-2.463c-0.749-0.151-1.338-0.434-1.748-0.844-0.258-0.258-0.541-0.876-0.781-1.579-0.01-0.04-0.361-1.205-0.451-1.694-0.028-0.153 0.054-0.254 0.09-0.291zM11.594 1.091c0.036-0.037 0.139-0.117 0.289-0.089 1.684 0.31 2.903 0.71 3.264 1.071 0.152 0.151 0.424 0.504 0.846 1.276 0.274 0.814 0.63 1.605 1.038 2.012 0.05 0.05 0.111 0.09 0.164 0.137h-2.668c0 0-3e-3-2e-3-5e-3-3e-3-0.759-0.149-1.353-0.434-1.765-0.846-0.47-0.47-1.037-2.1-1.252-3.271-0.027-0.151 0.053-0.252 0.089-0.287zM6.412 1.382C6.384 1.228 6.466 1.127 6.502 1.09 6.588 1.002 6.773 0.998 6.795 1.002c1.724 0.335 2.969 0.752 3.333 1.117 0.55 0.55 1.293 2.267 1.727 3.378H9.384c-0.489-0.1-0.903-0.261-1.249-0.472-0.16-0.132-0.337-0.274-0.532-0.424C7.152 4.09 6.63 2.555 6.412 1.382zM1.214 5.591c2.092-1.439 2.922-1.595 3.182-1.595 0.574 0 1.601 0.638 2.518 1.334 8e-3 9e-3 0.759 0.608 0.823 0.662-0.068 0.058-0.81 0.654-0.817 0.66-0.918 0.7-1.948 1.343-2.524 1.343-0.26 0-1.09-0.155-3.182-1.595-0.135-0.093-0.212-0.241-0.212-0.405s0.077-0.312 0.212-0.404zM20.911 13H2.993c-1.105 0-2.002 0.411-2.523 1.156-0.522 0.747-0.614 1.746-0.252 2.74 0.719 1.97 2.016 3.743 3.752 5.126C5.569 23.297 7.735 24 10.07 24h3.873c2.301 0 4.525-0.721 6.101-1.978 1.735-1.384 3.032-3.157 3.751-5.126 0.351-0.96 0.252-1.941-0.271-2.689C22.98 13.429 22.052 13 20.911 13zM22.854 16.553c-0.646 1.771-1.866 3.436-3.435 4.687-1.402 1.119-3.398 1.76-5.478 1.76h-3.873c-2.078 0-4.074-0.641-5.477-1.76-1.569-1.251-2.789-2.916-3.436-4.687-0.249-0.684-0.201-1.349 0.132-1.824C1.62 14.252 2.21 14 2.991 14h17.918c0.804 0 1.44 0.277 1.792 0.78 0.333 0.477 0.389 1.124 0.153 1.773z" />
</svg>