<svg id="playing_cards_Layer_1" viewBox="0 0 24 24" fill="currentColor" width="32" height="32" data-name="Layer 1" xmlns="http://www.w3.org/2000/svg" xmlns:xlink="http://www.w3.org/1999/xlink">
    <title>playing-cards</title>
    <path d="M23.551 4.779c-0.548-1.078-1.482-1.875-2.634-2.246L13.72 0.217c-1.16-0.374-2.393-0.267-3.472 0.3S8.382 2.038 8.031 3.205L7.792 3.999H4.499C2.019 4 0 6.019 0 8.5v11C0 21.981 2.019 24 4.5 24h7c1.585 0 2.974-0.828 3.776-2.069 0.238 0.038 0.477 0.074 0.713 0.074 1.902 0 3.646-1.215 4.266-3.088L23.812 8.23c0.38-1.147 0.288-2.373-0.261-3.451zM11.5 23h-7C2.57 23 1 21.43 1 19.5v-11C1 6.57 2.57 5 4.5 5h7C13.43 5 15 6.57 15 8.5v11c0 1.93-1.57 3.5-3.5 3.5zM22.861 7.916 19.304 18.603c-0.51 1.542-2 2.497-3.576 2.381 0.164-0.467 0.271-0.961 0.271-1.483v-11c0-2.481-2.019-4.5-4.5-4.5H8.836l0.152-0.506c0.272-0.908 0.885-1.65 1.724-2.091s1.799-0.523 2.7-0.233l7.197 2.316c0.896 0.288 1.623 0.909 2.049 1.747s0.497 1.791 0.203 2.682zM10.517 11.161c-0.634-0.273-1.324-0.196-1.944 0.212-0.215 0.142-0.41 0.316-0.573 0.506-0.163-0.19-0.357-0.365-0.573-0.506-0.621-0.409-1.311-0.485-1.944-0.212-1.102 0.475-1.68 1.583-1.406 2.696 0.445 1.814 2.688 3.606 2.942 3.805 0.289 0.226 0.635 0.339 0.981 0.339s0.692-0.113 0.981-0.339c0.254-0.198 2.497-1.991 2.942-3.804 0.274-1.113-0.304-2.222-1.406-2.697zM10.953 13.619c-0.258 1.051-1.522 2.424-2.586 3.255-0.215 0.168-0.516 0.168-0.732 0-1.064-0.831-2.328-2.204-2.586-3.255-0.157-0.639 0.177-1.257 0.831-1.539C6.003 12.027 6.128 12 6.254 12c0.201 0 0.406 0.067 0.612 0.2 0.415 0.267 0.633 0.683 0.636 0.801v3e-3c0 0 0 1e-3 0 3e-3v3e-3c5e-3 0.271 0.227 0.49 0.5 0.49 0.276 0 0.5-0.224 0.5-0.5 2e-3-0.118 0.221-0.534 0.636-0.801 0.335-0.216 0.668-0.258 0.986-0.12 0.654 0.281 0.988 0.9 0.829 1.54z" />
</svg>