<svg id="play_circle_Layer_1" viewBox="0 0 24 24" fill="currentColor" width="32" height="32" data-name="Layer 1" xmlns="http://www.w3.org/2000/svg" xmlns:xlink="http://www.w3.org/1999/xlink">
    <title>play-circle</title>
    <path d="M16.55 10.435 10.702 7.232C10.14 6.916 9.474 6.923 8.919 7.246 8.363 7.571 8.031 8.15 8.031 8.794v6.411c0 0.644 0.332 1.223 0.888 1.548 0.283 0.165 0.595 0.248 0.905 0.248 0.301 0 0.6-0.077 0.873-0.23l5.857-3.208c0.572-0.322 0.914-0.906 0.914-1.562s-0.342-1.241-0.918-1.566zM16.07 12.688l-5.857 3.208c-0.249 0.139-0.543 0.137-0.788-6e-3-0.246-0.144-0.393-0.4-0.393-0.685V8.794c0-0.285 0.146-0.541 0.393-0.685C9.549 8.037 9.686 8 9.823 8c0.134 0 0.27 0.035 0.395 0.105l5.848 3.203c0.253 0.142 0.404 0.4 0.404 0.69s-0.151 0.548-0.4 0.69zM12 0C5.383 0 0 5.383 0 12s5.383 12 12 12 12-5.383 12-12S18.617 0 12 0zM12 23C5.935 23 1 18.065 1 12S5.935 1 12 1 23 5.935 23 12 18.065 23 12 23z" />
</svg>