<svg id="play_pause_Layer_1" viewBox="0 0 24 24" fill="currentColor" width="32" height="32" data-name="Layer 1" xmlns="http://www.w3.org/2000/svg" xmlns:xlink="http://www.w3.org/1999/xlink">
    <title>play-pause</title>
    <path d="M21.5 21c-0.276 0-0.5-0.224-0.5-0.5v-17C21 3.224 21.224 3 21.5 3S22 3.224 22 3.5v17c0 0.276-0.224 0.5-0.5 0.5zM17.5 21c-0.276 0-0.5-0.224-0.5-0.5v-17C17 3.224 17.224 3 17.5 3S18 3.224 18 3.5v17c0 0.276-0.224 0.5-0.5 0.5zM4.294 21.003c-0.345 0-0.692-0.079-1.017-0.239-0.788-0.389-1.278-1.176-1.278-2.055V5.401c0-0.914 0.51-1.731 1.33-2.134 0.821-0.401 1.78-0.303 2.501 0.255l8.022 6.211c0.729 0.536 1.146 1.361 1.146 2.267s-0.42 1.735-1.152 2.271l-8.162 6.257c-0.41 0.314-0.898 0.475-1.39 0.475zM4.382 4.02c-0.206 0-0.414 0.048-0.612 0.145-0.482 0.237-0.771 0.699-0.771 1.236V18.71c0 0.503 0.269 0.936 0.72 1.158s0.958 0.173 1.357-0.133l8.172-6.264c0.48-0.352 0.751-0.886 0.751-1.471s-0.271-1.119-0.742-1.463l-0.011-8e-3-8.027-6.216C4.969 4.119 4.677 4.02 4.382 4.02z" />
</svg>