<svg id="plug_cable_Layer_1" viewBox="0 0 24 24" fill="currentColor" width="32" height="32" data-name="Layer 1" xmlns="http://www.w3.org/2000/svg" xmlns:xlink="http://www.w3.org/1999/xlink">
    <title>plug-cable</title>
    <path d="M23.5 10h-3c-2.481 0-4.5 2.019-4.5 4.5v4c0 2.481-2.019 4.5-4.5 4.5S7 20.981 7 18.5v-3.523c2.799-0.254 5-2.613 5-5.477V6h0.5C12.776 6 13 5.776 13 5.5S12.776 5 12.5 5H10V0.5C10 0.224 9.776 0 9.5 0S9 0.224 9 0.5V5H4V0.5C4 0.224 3.776 0 3.5 0S3 0.224 3 0.5V5H0.5C0.224 5 0 5.224 0 5.5S0.224 6 0.5 6H1v3.5c0 2.864 2.201 5.224 5 5.477V18.5c0 3.032 2.468 5.5 5.5 5.5s5.5-2.468 5.5-5.5v-4c0-1.93 1.57-3.5 3.5-3.5h3c0.276 0 0.5-0.224 0.5-0.5S23.776 10 23.5 10zM2 9.5V6h9v3.5c0 2.481-2.019 4.5-4.5 4.5S2 11.981 2 9.5z" />
</svg>