<svg id="plug_circle_bolt_Layer_1" viewBox="0 0 24 24" fill="currentColor" width="32" height="32" data-name="Layer 1" xmlns="http://www.w3.org/2000/svg" xmlns:xlink="http://www.w3.org/1999/xlink">
    <title>plug-circle-bolt</title>
    <path d="M9 18.431V23.5C9 23.776 8.776 24 8.5 24S8 23.776 8 23.5v-5.069c0-0.248-0.185-0.458-0.43-0.488C3.824 17.48 1 14.28 1 10.5V7H0.5C0.224 7 0 6.776 0 6.5S0.224 6 0.5 6H4V0.5C4 0.224 4.224 0 4.5 0S5 0.224 5 0.5V6h7V0.5C12 0.224 12.224 0 12.5 0S13 0.224 13 0.5V6h3.5C16.776 6 17 6.224 17 6.5S16.776 7 16.5 7H16v2c0 0.276-0.224 0.5-0.5 0.5S15 9.276 15 9V7H2v3.5c0 3.276 2.447 6.049 5.693 6.451C8.438 17.043 9 17.68 9 18.431zM24 17.5c0 3.584-2.916 6.5-6.5 6.5S11 21.084 11 17.5 13.916 11 17.5 11 24 13.916 24 17.5zM23 17.5c0-3.033-2.468-5.5-5.5-5.5S12 14.467 12 17.5 14.468 23 17.5 23 23 20.533 23 17.5zM18.896 17.016h-2.78c-0.054 0-0.083-0.023-0.104-0.102l1.917-3.154c0.143-0.236 0.068-0.543-0.168-0.687-0.233-0.143-0.543-0.069-0.688 0.167 0 0-2.013 3.323-2.024 3.363-0.102 0.335-0.041 0.687 0.165 0.964 0.211 0.285 0.54 0.448 0.902 0.448h2.78c0.046 0 0.072 0.032 0.087 0.059 0.011 0.021 0.033 0.075-8e-3 0.137l-1.898 3.022c-0.146 0.234-0.076 0.542 0.158 0.689 0.082 0.052 0.174 0.077 0.266 0.077 0.166 0 0.328-0.083 0.424-0.234l1.892-3.012c0.227-0.343 0.245-0.785 0.048-1.153-0.194-0.361-0.565-0.586-0.969-0.584z" />
</svg>