<svg id="plug_alt_Layer_1" viewBox="0 0 24 24" fill="currentColor" width="32" height="32" data-name="Layer 1" xmlns="http://www.w3.org/2000/svg" xmlns:xlink="http://www.w3.org/1999/xlink">
    <title>plug-alt</title>
    <path d="M20.004 3.059c-2.576-2.306-5.907-3.365-9.368-2.984-5.511 0.609-9.952 5.05-10.561 10.561-0.67 6.074 3.154 11.78 8.896 13.273C9.207 23.97 9.445 24 9.682 24c0.613 0 1.214-0.203 1.716-0.591 0.7-0.541 1.102-1.358 1.102-2.241v-3.193C15.023 17.723 17 15.588 17 13v-2h0.5c0.276 0 0.5-0.224 0.5-0.5S17.776 10 17.5 10H15V6.5C15 6.224 14.776 6 14.5 6S14 6.224 14 6.5V10h-4V6.5C10 6.224 9.776 6 9.5 6S9 6.224 9 6.5V10H6.5C6.224 10 6 10.224 6 10.5S6.224 11 6.5 11H7v2c0 2.588 1.977 4.723 4.5 4.975v3.193c0 0.571-0.26 1.1-0.713 1.45-0.449 0.348-1.021 0.467-1.563 0.322-5.266-1.368-8.771-6.611-8.155-12.195 0.558-5.049 4.627-9.118 9.676-9.676 3.179-0.35 6.23 0.62 8.591 2.734C21.665 5.889 23 8.876 23 11.999c0 4.808-3.075 9.021-7.652 10.481-0.263 0.084-0.408 0.365-0.324 0.629 0.084 0.262 0.363 0.406 0.629 0.324 4.993-1.595 8.348-6.189 8.348-11.435 0-3.407-1.457-6.666-3.997-8.939zM8 13v-2h8v2c0 2.206-1.794 4-4 4s-4-1.794-4-4z" />
</svg>