<svg id="plug_circle_plus_Layer_1" viewBox="0 0 24 24" fill="currentColor" width="32" height="32" data-name="Layer 1" xmlns="http://www.w3.org/2000/svg" xmlns:xlink="http://www.w3.org/1999/xlink">
    <title>plug-circle-plus</title>
    <path d="M17.5 11c-3.584 0-6.5 2.916-6.5 6.5s2.916 6.5 6.5 6.5 6.5-2.916 6.5-6.5-2.916-6.5-6.5-6.5zM17.5 23c-3.032 0-5.5-2.468-5.5-5.5s2.468-5.5 5.5-5.5 5.5 2.468 5.5 5.5-2.468 5.5-5.5 5.5zM21 17.5c0 0.276-0.224 0.5-0.5 0.5H18v2.5c0 0.276-0.224 0.5-0.5 0.5S17 20.776 17 20.5V18h-2.5c-0.276 0-0.5-0.224-0.5-0.5s0.224-0.5 0.5-0.5H17v-2.5c0-0.276 0.224-0.5 0.5-0.5s0.5 0.224 0.5 0.5V17h2.5c0.276 0 0.5 0.224 0.5 0.5zM9 18.432V23.5C9 23.776 8.776 24 8.5 24S8 23.776 8 23.5v-5.068c0-0.249-0.185-0.459-0.43-0.489C3.825 17.48 1 14.281 1 10.501v-3.5H0.5c-0.276 0-0.5-0.224-0.5-0.5s0.224-0.5 0.5-0.5H4V0.5C4 0.224 4.224 0 4.5 0S5 0.224 5 0.5V6h7V0.5C12 0.224 12.224 0 12.5 0S13 0.224 13 0.5V6h3.5C16.776 6 17 6.224 17 6.5S16.776 7 16.5 7H16v2c0 0.276-0.224 0.5-0.5 0.5S15 9.276 15 9V7H2v3.5c0 3.276 2.447 6.049 5.693 6.45C8.438 17.042 9 17.679 9 18.432z" />
</svg>