<svg id="plug_circle_exclamation_Layer_1" viewBox="0 0 24 24" fill="currentColor" width="32" height="32" data-name="Layer 1" xmlns="http://www.w3.org/2000/svg" xmlns:xlink="http://www.w3.org/1999/xlink">
    <title>plug-circle-exclamation</title>
    <path d="M9 18.432V23.5C9 23.776 8.776 24 8.5 24S8 23.776 8 23.5v-5.068c0-0.249-0.185-0.459-0.429-0.489C3.825 17.481 1 14.281 1 10.501v-3.5H0.5c-0.276 0-0.5-0.224-0.5-0.5s0.224-0.5 0.5-0.5H4V0.5C4 0.224 4.224 0 4.5 0S5 0.224 5 0.5V6h7V0.5C12 0.224 12.224 0 12.5 0S13 0.224 13 0.5V6h3.5C16.776 6 17 6.224 17 6.5S16.776 7 16.5 7H16v2c0 0.276-0.224 0.5-0.5 0.5S15 9.276 15 9V7H2v3.5c0 3.276 2.448 6.049 5.693 6.45C8.438 17.042 9 17.679 9 18.432zM24 17.5c0 3.584-2.916 6.5-6.5 6.5S11 21.084 11 17.5 13.916 11 17.5 11 24 13.916 24 17.5zM23 17.5c0-3.032-2.467-5.5-5.5-5.5S12 14.468 12 17.5 14.467 23 17.5 23 23 20.532 23 17.5zM17.5 19c0.276 0 0.5-0.224 0.5-0.5v-5c0-0.276-0.224-0.5-0.5-0.5S17 13.224 17 13.5v5c0 0.276 0.224 0.5 0.5 0.5zM17.5 20c-0.552 0-1 0.448-1 1s0.448 1 1 1 1-0.448 1-1-0.448-1-1-1z" />
</svg>