<svg id="plumbing_Layer_1" viewBox="0 0 24 24" fill="currentColor" width="32" height="32" data-name="Layer 1" xmlns="http://www.w3.org/2000/svg" xmlns:xlink="http://www.w3.org/1999/xlink">
    <title>plumbing</title>
    <path d="M19.999 16.538h-5e-3c-0.472 0-0.912 0.21-1.207 0.575C17.972 18.123 17 19.617 17 21c0 1.654 1.346 3 3 3s3-1.346 3-3c0-1.353-0.975-2.856-1.793-3.88-0.294-0.369-0.734-0.581-1.208-0.582zM20 23c-1.103 0-2-0.897-2-2 0-0.852 0.556-2.009 1.564-3.258 0.105-0.13 0.262-0.204 0.43-0.204h2e-3c0.169 0 0.325 0.075 0.43 0.206C21.442 19.015 22 20.171 22 21c0 1.103-0.897 2-2 2zM23.5 13H23V7c0-3.859-3.141-7-7-7S9 3.141 9 7v10c0 0.552-0.448 1-1 1s-1-0.448-1-1v-4h0.5C7.776 13 8 12.776 8 12.5S7.776 12 7.5 12h-7C0.224 12 0 12.224 0 12.5S0.224 13 0.5 13H1v4c0 3.859 3.141 7 7 7s7-3.141 7-7V7c0-0.552 0.448-1 1-1s1 0.448 1 1v6h-0.5c-0.276 0-0.5 0.224-0.5 0.5s0.224 0.5 0.5 0.5h7c0.276 0 0.5-0.224 0.5-0.5S23.776 13 23.5 13zM8 23c-3.309 0-6-2.691-6-6v-4h4v4c0 1.103 0.897 2 2 2s2-0.897 2-2v-5h4v5c0 3.309-2.691 6-6 6zM16 5c-1.103 0-2 0.897-2 2v4h-4V7c0-3.309 2.691-6 6-6s6 2.691 6 6v6h-4V7c0-1.103-0.897-2-2-2zM0 4c0-1.22 0.541-2.561 1.316-3.261 0.301-0.272 0.715-0.338 1.087-0.174C2.771 0.729 3 1.082 3 1.485V3C2.989 3.563 3.49 4.025 4.049 3.999 4.573 3.974 5 3.507 5 2.958V1.485c0-0.403 0.229-0.756 0.597-0.92 0.371-0.163 0.787-0.098 1.087 0.174C7.459 1.439 8 2.78 8 4 8 5.441 7.241 6.737 6 7.452V9.5C6 9.776 5.776 10 5.5 10S5 9.776 5 9.5V7.15c0-0.192 0.11-0.368 0.284-0.451C6.343 6.193 7 5.159 7 4 7 3.057 6.585 1.998 6.014 1.481L6 2.958c0 1.093-0.836 1.989-1.904 2.039C2.993 5.088 1.973 4.105 2 3V1.485C1.415 1.998 1 3.056 1 4 1 5.159 1.657 6.193 2.716 6.699 2.89 6.782 3 6.958 3 7.15V9.5C3 9.776 2.776 10 2.5 10S2 9.776 2 9.5V7.452C0.759 6.737 0 5.441 0 4z" />
</svg>