<svg id="plus_hexagon_Layer_1" viewBox="0 0 24 24" fill="currentColor" width="32" height="32" data-name="Layer 1" xmlns="http://www.w3.org/2000/svg" xmlns:xlink="http://www.w3.org/1999/xlink">
    <title>plus-hexagon</title>
    <path d="M23.465 9.746l-3.763-6.5C18.9 1.861 17.408 1 15.807 1H8.262c-1.6 0-3.092 0.86-3.895 2.246l-3.762 6.5c-0.806 1.391-0.806 3.118 0 4.509l3.763 6.5C5.171 22.14 6.663 23 8.263 23h7.545c1.601 0 3.093-0.86 3.895-2.245l3.763-6.5c0.806-1.391 0.806-3.119-1e-3-4.509zM22.6 13.753l-3.763 6.501C18.214 21.331 17.053 22 15.808 22H8.263c-1.244 0-2.405-0.669-3.029-1.747l-3.763-6.5c-0.626-1.081-0.626-2.425 0-3.506l3.763-6.5C5.858 2.67 7.019 2 8.263 2h7.545c1.245 0 2.406 0.669 3.029 1.747l3.763 6.5c0.626 1.082 0.626 2.425 0 3.506zM17 12c0 0.276-0.224 0.5-0.5 0.5h-4v4c0 0.276-0.224 0.5-0.5 0.5s-0.5-0.224-0.5-0.5v-4h-4C7.224 12.5 7 12.276 7 12s0.224-0.5 0.5-0.5h4v-4C11.5 7.224 11.724 7 12 7s0.5 0.224 0.5 0.5v4h4c0.276 0 0.5 0.224 0.5 0.5z" />
</svg>