<svg id="podium_award_Layer_1" viewBox="0 0 24 24" fill="currentColor" width="32" height="32" data-name="Layer 1" xmlns="http://www.w3.org/2000/svg" xmlns:xlink="http://www.w3.org/1999/xlink">
    <title>podium-award</title>
    <path d="M21.5 19H18c-0.565 0-1.081 0.195-1.5 0.513V18.5c0-1.378-1.121-2.5-2.5-2.5h-4c-1.379 0-2.5 1.122-2.5 2.5v0.013C7.081 18.196 6.565 18 6 18H2.5C1.121 18 0 19.122 0 20.5v1C0 22.878 1.121 24 2.5 24h19c1.379 0 2.5-1.122 2.5-2.5S22.879 19 21.5 19zM7.5 23h-5C1.673 23 1 22.327 1 21.5v-1C1 19.673 1.673 19 2.5 19H6c0.827 0 1.5 0.673 1.5 1.5zM15.5 23h-7v-4.5c0-0.827 0.673-1.5 1.5-1.5h4c0.827 0 1.5 0.673 1.5 1.5zM21.5 23h-5v-1.5c0-0.827 0.673-1.5 1.5-1.5h3.5c0.827 0 1.5 0.673 1.5 1.5S22.327 23 21.5 23zM10.5 8.941V11.5c0 1.5-0.753 1.5-1 1.5C9.224 13 9 13.224 9 13.5S9.224 14 9.5 14h5c0.276 0 0.5-0.224 0.5-0.5S14.776 13 14.5 13c-0.247 0-1 0-1-1.5V8.941c4.149-0.539 5.433-3.417 5.825-5.13 0.101-0.436-4e-3-0.888-0.285-1.242-0.288-0.362-0.719-0.57-1.182-0.57h-0.443c0.017-0.076 0.033-0.147 0.051-0.23 0.095-0.433-0.01-0.879-0.288-1.225S16.485-1e-3 16.04-1e-3H7.96c-0.444 0-0.859 0.199-1.138 0.545-0.278 0.345-0.383 0.792-0.288 1.225 0.018 0.084 0.034 0.154 0.051 0.23H6.142c-0.463 0-0.894 0.208-1.182 0.57-0.281 0.354-0.386 0.806-0.285 1.242 0.392 1.712 1.676 4.59 5.825 5.13zM17.858 3c0.305 0.019 0.547 0.222 0.492 0.588-0.291 1.271-1.166 3.295-3.753 4.099 1.435-1.469 2.198-3.599 2.564-4.687zM7.96 1h8.08c0.283-7e-3 0.517 0.28 0.449 0.556-0.116 0.53-0.199 0.899-0.262 1.089-0.345 1.026-1.393 4.149-3.455 5.204C12.605 7.934 12.5 8.107 12.5 8.294V11.5c0 0.599 0.111 1.103 0.316 1.5h-1.632c0.205-0.397 0.316-0.901 0.316-1.5V8.294c0-0.188-0.105-0.36-0.272-0.445-2.062-1.055-3.11-4.178-3.455-5.204-0.062-0.19-0.146-0.559-0.262-1.089C7.443 1.28 7.677 0.992 7.96 1zM6.142 3h0.696c0.366 1.088 1.129 3.218 2.564 4.687C6.815 6.884 5.94 4.859 5.649 3.588 5.594 3.222 5.836 3.018 6.142 3z" />
</svg>