<svg id="podium_victory_leader_Layer_1" viewBox="0 0 24 24" fill="currentColor" width="32" height="32" data-name="Layer 1" xmlns="http://www.w3.org/2000/svg" xmlns:xlink="http://www.w3.org/1999/xlink">
    <title>podium-victory-leader</title>
    <path d="M12 4c1.103 0 2-0.897 2-2s-0.897-2-2-2-2 0.897-2 2 0.897 2 2 2zM12 1c0.551 0 1 0.449 1 1s-0.449 1-1 1-1-0.449-1-1 0.449-1 1-1zM21.5 19H18c-0.565 0-1.081 0.195-1.5 0.512V18.5c0-1.379-1.121-2.5-2.5-2.5v-4.278c0.595-0.347 1-0.985 1-1.722V5.692l4.372-4.858c0.185-0.205 0.168-0.521-0.037-0.706-0.205-0.184-0.52-0.168-0.707 0.037l-4.351 4.834H9.722l-4.35-4.833C5.186-0.04 4.871-0.056 4.666 0.129S4.444 0.63 4.629 0.835l4.372 4.857V10c0 0.737 0.405 1.375 1 1.722V16c-1.378 0-2.5 1.121-2.5 2.5v0.013C7.082 18.196 6.566 18 6.001 18h-3.5c-1.378 0-2.5 1.121-2.5 2.5v1c0 1.379 1.122 2.5 2.5 2.5h19c1.379 0 2.5-1.121 2.5-2.5S22.88 19 21.5 19zM13 11h-2c-0.551 0-1-0.449-1-1V6h4v4c0 0.551-0.448 1-1 1zM11 12h2v4h-2zM1 21.5v-1C1 19.673 1.673 19 2.5 19H6c0.827 0 1.5 0.673 1.5 1.5V23h-5C1.673 23 1 22.327 1 21.5zM8.5 18.5c0-0.827 0.673-1.5 1.5-1.5h4c0.827 0 1.5 0.673 1.5 1.5V23h-7zM21.5 23h-5v-1.5c0-0.827 0.673-1.5 1.5-1.5h3.5c0.827 0 1.5 0.673 1.5 1.5S22.327 23 21.5 23z" />
</svg>