<svg id="podium_Layer_1" viewBox="0 0 24 24" fill="currentColor" width="32" height="32" data-name="Layer 1" xmlns="http://www.w3.org/2000/svg" xmlns:xlink="http://www.w3.org/1999/xlink">
    <title>podium</title>
    <path d="M23.5 10H3V6.5C3 4.57 4.57 3 6.5 3h0.55C7.282 4.14 8.292 5 9.5 5h4C14.878 5 16 3.878 16 2.5S14.878 0 13.5 0h-4C8.293 0 7.283 0.86 7.05 2H6.5C4.019 2 2 4.019 2 6.5V10H0.5C0.224 10 0 10.224 0 10.5S0.224 11 0.5 11h1.571l1.413 9.185C3.824 22.396 5.695 24 7.932 24h8.137c2.237 0 4.107-1.604 4.448-3.815L21.93 11h1.571c0.276 0 0.5-0.224 0.5-0.5S23.777 10 23.5 10zM9.5 1h4C14.327 1 15 1.673 15 2.5S14.327 4 13.5 4h-4C8.673 4 8 3.327 8 2.5S8.673 1 9.5 1zM19.528 20.032C19.263 21.752 17.808 23 16.069 23H7.932c-1.74 0-3.195-1.248-3.459-2.968L3.084 11h17.833z" />
</svg>