<svg id="podium_star_Layer_1" viewBox="0 0 24 24" fill="currentColor" width="32" height="32" data-name="Layer 1" xmlns="http://www.w3.org/2000/svg" xmlns:xlink="http://www.w3.org/1999/xlink">
    <title>podium-star</title>
    <path d="M23.5 10H3V6.5C3 4.57 4.57 3 6.5 3h0.551C7.283 4.14 8.293 5 9.5 5h4C14.879 5 16 3.879 16 2.5S14.879 0 13.5 0h-4C8.292 0 7.283 0.86 7.051 2H6.5C4.019 2 2 4.019 2 6.5V10H0.5C0.224 10 0 10.224 0 10.5S0.224 11 0.5 11h1.571l1.413 9.185C3.824 22.396 5.694 24 7.931 24h8.137c2.237 0 4.107-1.604 4.447-3.815L21.928 11h1.571c0.276 0 0.5-0.224 0.5-0.5S23.775 10 23.5 10zM9.5 1h4C14.327 1 15 1.673 15 2.5S14.327 4 13.5 4h-4C8.673 4 8 3.327 8 2.5S8.673 1 9.5 1zM19.527 20.032C19.262 21.752 17.808 23 16.068 23H7.932c-1.74 0-3.194-1.248-3.459-2.968L3.083 11h17.834zM8.381 17.333l1.074 0.786-0.408 1.262c-0.169 0.521 0.01 1.062 0.452 1.381 0.435 0.314 1.019 0.312 1.453-7e-3L12 19.985l1.048 0.77c0.221 0.163 0.476 0.244 0.73 0.244 0.251 0 0.502-0.078 0.722-0.236 0.443-0.319 0.622-0.861 0.453-1.382l-0.408-1.262 1.076-0.786c0.438-0.321 0.612-0.862 0.443-1.38C15.909 15.478 15.486 15 14.891 15h-1.324l-0.392-1.143C13.008 13.336 12.547 13 11.999 13s-1.009 0.337-1.172 0.848L10.431 15H9.107c-0.595 0-1.018 0.479-1.174 0.955-0.168 0.517 7e-3 1.058 0.448 1.378zM8.885 16.266C8.938 16.106 9.055 16 9.109 16h1.682c0.214 0 0.403-0.136 0.473-0.338l0.515-1.5c0.068-0.215 0.373-0.225 0.449 0.01l0.511 1.49C12.808 15.864 12.998 16 13.212 16h1.682c0.054 0 0.171 0.105 0.223 0.264 0.035 0.107 6e-3 0.196-0.084 0.263l-1.367 0.999c-0.175 0.127-0.247 0.352-0.181 0.558l0.52 1.606c0.035 0.107 6e-3 0.195-0.086 0.261-0.093 0.068-0.186 0.066-0.276 0l-1.344-0.988c-0.088-0.065-0.191-0.098-0.296-0.098s-0.208 0.032-0.296 0.098l-1.344 0.987c-0.086 0.062-0.192 0.063-0.276 0-0.092-0.065-0.121-0.153-0.086-0.261l0.52-1.606c0.066-0.206-6e-3-0.431-0.181-0.558l-1.366-0.999c-0.091-0.067-0.12-0.155-0.089-0.26z" />
</svg>