<svg id="point_of_sale_bill_Layer_1" viewBox="0 0 24 24" fill="currentColor" width="32" height="32" data-name="Layer 1" xmlns="http://www.w3.org/2000/svg" xmlns:xlink="http://www.w3.org/1999/xlink">
    <title>point-of-sale-bill</title>
    <path d="M4.5 8C3.673 8 3 8.673 3 9.5v1C3 11.327 3.673 12 4.5 12h5c0.827 0 1.5-0.673 1.5-1.5v-1C11 8.673 10.327 8 9.5 8zM10 9.5v1c0 0.275-0.225 0.5-0.5 0.5h-5C4.225 11 4 10.775 4 10.5v-1C4 9.225 4.225 9 4.5 9h5C9.775 9 10 9.225 10 9.5zM10 14.5c0 0.276-0.224 0.5-0.5 0.5h-1C8.224 15 8 14.776 8 14.5S8.224 14 8.5 14h1c0.276 0 0.5 0.224 0.5 0.5zM10 17.5c0 0.276-0.224 0.5-0.5 0.5h-1C8.224 18 8 17.776 8 17.5S8.224 17 8.5 17h1c0.276 0 0.5 0.224 0.5 0.5zM6 14.5C6 14.776 5.776 15 5.5 15h-1C4.224 15 4 14.776 4 14.5S4.224 14 4.5 14h1C5.776 14 6 14.224 6 14.5zM6 17.5C6 17.776 5.776 18 5.5 18h-1C4.224 18 4 17.776 4 17.5S4.224 17 4.5 17h1C5.776 17 6 17.224 6 17.5zM10 20.5c0 0.276-0.224 0.5-0.5 0.5h-1C8.224 21 8 20.776 8 20.5S8.224 20 8.5 20h1c0.276 0 0.5 0.224 0.5 0.5zM6 20.5C6 20.776 5.776 21 5.5 21h-1C4.224 21 4 20.776 4 20.5S4.224 20 4.5 20h1C5.776 20 6 20.224 6 20.5zM17.487 0H7.5C4.468 0 2 2.468 2 5.5c0 0.018 8e-3 0.033 0.01 0.051C0.815 6.243 0 7.522 0 9v11c0 2.206 1.794 4 4 4h6c2.206 0 4-1.794 4-4V9c0-1.453-0.786-2.714-1.947-3.415 0 0 0 0 0-1e-3C12.503 2.928 14.788 1 17.487 1 20.527 1 23 3.473 23 6.513v8.997l-2.036-1.501c-0.171-0.128-0.405-0.131-0.582-8e-3l-2.549 1.771-1.048-0.729c-0.226-0.156-0.538-0.103-0.695 0.125-0.158 0.227-0.103 0.538 0.125 0.695l1.333 0.928c0.17 0.119 0.398 0.119 0.57 0l2.54-1.766 2.545 1.876c0.088 0.064 0.192 0.098 0.297 0.098 0.077 0 0.154-0.018 0.226-0.054C23.894 16.86 24 16.687 24 16.499V6.513C24 2.922 21.078 0 17.487 0zM13 9v11c0 1.654-1.346 3-3 3H4c-1.654 0-3-1.346-3-3V9c0-1.654 1.346-3 3-3h6c1.654 0 3 1.346 3 3zM11.129 5.182C10.769 5.075 10.395 5 10 5H4C3.666 5 3.347 5.053 3.037 5.13 3.229 2.824 5.145 1 7.5 1h6.535c-1.464 0.915-2.535 2.397-2.906 4.182z" />
</svg>