<svg id="point_of_sale_Layer_1" viewBox="0 0 24 24" fill="currentColor" width="32" height="32" data-name="Layer 1" xmlns="http://www.w3.org/2000/svg" xmlns:xlink="http://www.w3.org/1999/xlink">
    <title>point-of-sale</title>
    <path d="M14.7 4H7.3C6.583 4 6 4.583 6 5.3v1.4C6 7.417 6.583 8 7.3 8h7.4C15.417 8 16 7.417 16 6.7V5.3C16 4.583 15.417 4 14.7 4zM15 6.7C15 6.865 14.865 7 14.7 7H7.3C7.134 7 7 6.865 7 6.7V5.3C7 5.135 7.134 5 7.3 5h7.4C14.865 5 15 5.135 15 5.3zM8 10.5C8 10.776 7.776 11 7.5 11h-1C6.224 11 6 10.776 6 10.5S6.224 10 6.5 10h1C7.776 10 8 10.224 8 10.5zM16 10.5c0 0.276-0.224 0.5-0.5 0.5h-1c-0.276 0-0.5-0.224-0.5-0.5s0.224-0.5 0.5-0.5h1c0.276 0 0.5 0.224 0.5 0.5zM8 13.5C8 13.776 7.776 14 7.5 14h-1C6.224 14 6 13.776 6 13.5S6.224 13 6.5 13h1C7.776 13 8 13.224 8 13.5zM16 13.5c0 0.276-0.224 0.5-0.5 0.5h-1c-0.276 0-0.5-0.224-0.5-0.5s0.224-0.5 0.5-0.5h1c0.276 0 0.5 0.224 0.5 0.5zM12 10.5c0 0.276-0.224 0.5-0.5 0.5h-1c-0.276 0-0.5-0.224-0.5-0.5s0.224-0.5 0.5-0.5h1c0.276 0 0.5 0.224 0.5 0.5zM12 13.5c0 0.276-0.224 0.5-0.5 0.5h-1c-0.276 0-0.5-0.224-0.5-0.5s0.224-0.5 0.5-0.5h1c0.276 0 0.5 0.224 0.5 0.5zM8 16.5C8 16.776 7.776 17 7.5 17h-1C6.224 17 6 16.776 6 16.5S6.224 16 6.5 16h1C7.776 16 8 16.224 8 16.5zM16 16.5c0 0.276-0.224 0.5-0.5 0.5h-1c-0.276 0-0.5-0.224-0.5-0.5s0.224-0.5 0.5-0.5h1c0.276 0 0.5 0.224 0.5 0.5zM12 16.5c0 0.276-0.224 0.5-0.5 0.5h-1c-0.276 0-0.5-0.224-0.5-0.5s0.224-0.5 0.5-0.5h1c0.276 0 0.5 0.224 0.5 0.5zM8 19.5C8 19.776 7.776 20 7.5 20h-1C6.224 20 6 19.776 6 19.5S6.224 19 6.5 19h1C7.776 19 8 19.224 8 19.5zM16 19.5c0 0.276-0.224 0.5-0.5 0.5h-1c-0.276 0-0.5-0.224-0.5-0.5s0.224-0.5 0.5-0.5h1c0.276 0 0.5 0.224 0.5 0.5zM12 19.5c0 0.276-0.224 0.5-0.5 0.5h-1c-0.276 0-0.5-0.224-0.5-0.5s0.224-0.5 0.5-0.5h1c0.276 0 0.5 0.224 0.5 0.5zM20.5 4h-0.551C19.697 1.756 17.81 0 15.5 0h-9C4.019 0 2 2.019 2 4.5v15C2 21.981 4.019 24 6.5 24h9c1.953 0 3.602-1.258 4.224-3H20.5c0.827 0 1.5-0.673 1.5-1.5v-14C22 4.673 21.327 4 20.5 4zM19 19.5c0 1.93-1.57 3.5-3.5 3.5h-9C4.57 23 3 21.43 3 19.5v-15C3 2.57 4.57 1 6.5 1h9C17.43 1 19 2.57 19 4.5zM21 19.5c0 0.275-0.225 0.5-0.5 0.5h-0.551C19.968 19.834 20 19.671 20 19.5V5h0.5C20.775 5 21 5.225 21 5.5z" />
</svg>