<svg id="pointer_loading_Layer_1" viewBox="0 0 24 24" fill="currentColor" width="32" height="32" data-name="Layer 1" xmlns="http://www.w3.org/2000/svg" xmlns:xlink="http://www.w3.org/1999/xlink">
    <title>pointer-loading</title>
    <path d="M14.299 22.018c-0.282 0-0.569-0.064-0.841-0.2-0.455-0.228-0.791-0.62-0.945-1.104-0.154-0.485-0.107-1 0.133-1.448l2.547-4.871-3.891-0.432c-0.616-0.068-1.116-0.478-1.305-1.066-0.19-0.59-0.022-1.214 0.438-1.628l10.116-8.721v0c0.626-0.539 1.483-0.66 2.232-0.313C23.534 2.58 24 3.306 24 4.132v13.861c0 0.628-0.357 1.173-0.934 1.424-0.578 0.248-1.219 0.139-1.678-0.29L18.6 15.965l-2.658 5.062c-0.34 0.633-0.979 0.991-1.643 0.991zM21.203 3.306 11.097 12.018c-0.238 0.214-0.173 0.491-0.148 0.571 0.026 0.08 0.135 0.343 0.464 0.379l4.618 0.513c0.165 0.019 0.31 0.116 0.387 0.262s0.078 0.321 2e-3 0.467l-2.889 5.522c-0.114 0.213-0.136 0.452-0.064 0.678s0.228 0.408 0.439 0.514c0.42 0.212 0.93 0.052 1.154-0.365l2.993-5.7c0.076-0.146 0.22-0.244 0.383-0.264 0.159-0.025 0.325 0.043 0.435 0.166l3.235 3.672c0.212 0.193 0.484 0.102 0.562 0.067C22.746 18.467 23 18.33 23 17.994V4.132c0-0.437-0.237-0.807-0.634-0.989s-0.832-0.121-1.163 0.163zM0 21c0 0.552 0.448 1 1 1s1-0.448 1-1-0.448-1-1-1-1 0.448-1 1zM4 21c0 0.552 0.448 1 1 1s1-0.448 1-1-0.448-1-1-1-1 0.448-1 1zM8 21c0 0.552 0.448 1 1 1s1-0.448 1-1-0.448-1-1-1-1 0.448-1 1z" />
</svg>