<svg id="poker_chip_Layer_1" viewBox="0 0 24 24" fill="currentColor" width="32" height="32" data-name="Layer 1" xmlns="http://www.w3.org/2000/svg" xmlns:xlink="http://www.w3.org/1999/xlink">
    <title>poker-chip</title>
    <path d="M23.518 8.661c0-0.047 0-0.094-0.014-0.141-9e-3-0.03-0.029-0.052-0.043-0.079C21.942 3.557 17.378 0 12 0 5.383 0 0 5.383 0 12c0 1.16 0.174 2.278 0.482 3.339 0 0.047 0 0.093 0.014 0.14 6e-3 0.021 0.026 0.03 0.035 0.049 1.511 4.9 6.08 8.471 11.469 8.471 6.617 0 12-5.383 12-12 0-1.159-0.174-2.277-0.482-3.338zM12 19c-3.86 0-7-3.141-7-7s3.14-7 7-7 7 3.141 7 7-3.14 7-7 7zM1 12c0-0.911 0.124-1.792 0.334-2.64l2.88 0.833C4.079 10.775 4 11.378 4 12c0 0.626 0.08 1.232 0.216 1.817l-2.868 0.878C1.129 13.831 1 12.931 1 12zM19.784 10.183l2.868-0.879C22.871 10.168 23 11.068 23 11.999s-0.129 1.83-0.348 2.694l-2.869-0.877c0.137-0.585 0.216-1.191 0.216-1.817s-0.08-1.232-0.215-1.816zM22.363 8.346 19.494 9.225c-0.81-2.181-2.542-3.911-4.723-4.721l0.861-2.876c3.138 1.102 5.623 3.583 6.731 6.718zM14.673 1.342l-0.86 2.873C13.229 4.079 12.624 4 12 4s-1.231 0.079-1.816 0.216l-0.872-2.87C10.174 1.128 11.071 1 12 1c0.923 0 1.816 0.127 2.673 0.342zM8.354 1.634 9.226 4.506C7.042 5.317 5.31 7.051 4.502 9.236L1.616 8.402c1.097-3.156 3.589-5.656 6.738-6.768zM1.637 15.654l2.87-0.878c0.81 2.178 2.538 3.907 4.716 4.717l-0.895 2.864c-3.118-1.109-5.587-3.582-6.691-6.703zM9.284 22.647l0.895-2.864C10.765 19.92 11.373 20 12 20s1.235-0.08 1.821-0.217l0.893 2.864C13.844 22.869 12.938 23 12 23s-1.845-0.131-2.716-0.353zM15.67 22.357l-0.893-2.864c2.178-0.81 3.907-2.539 4.716-4.718l2.87 0.877c-1.104 3.122-3.573 5.596-6.693 6.705zM13.021 8.532c-0.483-0.676-1.561-0.676-2.044 0L9.4 10.74c-0.538 0.754-0.538 1.766 0 2.52l1.577 2.208C11.219 15.806 11.591 16 11.999 16s0.78-0.194 1.022-0.532l1.577-2.208c0.538-0.754 0.538-1.766 0-2.52zM13.785 12.678l-1.577 2.208c-0.142 0.199-0.275 0.199-0.417 0l-1.577-2.208c-0.285-0.398-0.285-0.957 0-1.355l1.577-2.208c0.071-0.1 0.161-0.114 0.208-0.114s0.138 0.015 0.208 0.114l1.577 2.208c0.285 0.398 0.285 0.957 1e-3 1.355z" />
</svg>