<svg id="police_box_Layer_1" viewBox="0 0 24 24" fill="currentColor" width="32" height="32" data-name="Layer 1" xmlns="http://www.w3.org/2000/svg" xmlns:xlink="http://www.w3.org/1999/xlink">
    <title>police-box</title>
    <path d="M22.5 23H21V6.652c0-2.013-1.506-3.719-3.504-3.969L12.5 2.059V0.5C12.5 0.224 12.276 0 12 0s-0.5 0.224-0.5 0.5v1.559L6.503 2.683C4.506 2.933 3 4.64 3 6.652V23H1.5C1.224 23 1 23.224 1 23.5S1.224 24 1.5 24h21c0.276 0 0.5-0.224 0.5-0.5S22.776 23 22.5 23zM6.627 3.675 12 3.004l5.372 0.671c0.896 0.112 1.66 0.615 2.13 1.325H4.498c0.469-0.709 1.233-1.213 2.129-1.325zM4 6.652C4 6.428 4.025 6.21 4.072 6h15.855c0.047 0.211 0.072 0.429 0.072 0.652V23H4zM6 9.5v-1C6 8.224 6.224 8 6.5 8S7 8.224 7 8.5v1C7 9.776 6.776 10 6.5 10S6 9.776 6 9.5zM8 9.5v-1C8 8.224 8.224 8 8.5 8S9 8.224 9 8.5v1C9 9.776 8.776 10 8.5 10S8 9.776 8 9.5zM16 8.5v1c0 0.276-0.224 0.5-0.5 0.5S15 9.776 15 9.5v-1C15 8.224 15.224 8 15.5 8S16 8.224 16 8.5zM18 8.5v1c0 0.276-0.224 0.5-0.5 0.5S17 9.776 17 9.5v-1C17 8.224 17.224 8 17.5 8S18 8.224 18 8.5zM6 12.5v-1C6 11.224 6.224 11 6.5 11S7 11.224 7 11.5v1C7 12.776 6.776 13 6.5 13S6 12.776 6 12.5zM8 12.5v-1C8 11.224 8.224 11 8.5 11S9 11.224 9 11.5v1C9 12.776 8.776 13 8.5 13S8 12.776 8 12.5zM16 11.5v1c0 0.276-0.224 0.5-0.5 0.5S15 12.776 15 12.5v-1c0-0.276 0.224-0.5 0.5-0.5s0.5 0.224 0.5 0.5zM14 8.5v1c0 0.276-0.224 0.5-0.5 0.5S13 9.776 13 9.5v-1C13 8.224 13.224 8 13.5 8S14 8.224 14 8.5zM14 11.5v1c0 0.276-0.224 0.5-0.5 0.5S13 12.776 13 12.5v-1c0-0.276 0.224-0.5 0.5-0.5s0.5 0.224 0.5 0.5zM11 8.5v1c0 0.276-0.224 0.5-0.5 0.5S10 9.776 10 9.5v-1C10 8.224 10.224 8 10.5 8S11 8.224 11 8.5zM11 11.5v1c0 0.276-0.224 0.5-0.5 0.5S10 12.776 10 12.5v-1c0-0.276 0.224-0.5 0.5-0.5s0.5 0.224 0.5 0.5zM18 11.5v1c0 0.276-0.224 0.5-0.5 0.5S17 12.776 17 12.5v-1c0-0.276 0.224-0.5 0.5-0.5s0.5 0.224 0.5 0.5zM8.5 15h-1C6.673 15 6 15.673 6 16.5v1C6 18.327 6.673 19 7.5 19h1c0.827 0 1.5-0.673 1.5-1.5v-1c0-0.827-0.673-1.5-1.5-1.5zM9 17.5C9 17.776 8.775 18 8.5 18h-1C7.225 18 7 17.776 7 17.5v-1C7 16.224 7.225 16 7.5 16h1C8.775 16 9 16.224 9 16.5z" />
</svg>