<svg id="polish_bottle_Layer_1" viewBox="0 0 24 24" fill="currentColor" width="32" height="32" data-name="Layer 1" xmlns="http://www.w3.org/2000/svg" xmlns:xlink="http://www.w3.org/1999/xlink">
    <title>polish-bottle</title>
    <path d="M18.914 11.57C18.059 10.572 16.813 10 15.499 10H15V3c0-1.654-1.346-3-3-3S9 1.346 9 3v7H8.501c-2.678-0.064-4.918 2.548-4.447 5.185l0.899 5.847C5.217 22.752 6.672 24 8.412 24h7.176c1.74 0 3.195-1.248 3.459-2.968l0.899-5.848c0.2-1.299-0.176-2.617-1.032-3.614zM10 3c0-1.103 0.897-2 2-2s2 0.897 2 2v7h-4zM18.958 15.032 18.059 20.88C17.871 22.108 16.831 23 15.588 23H8.412c-1.243 0-2.282-0.892-2.471-2.12l-0.899-5.848C4.676 12.981 6.419 10.951 8.501 11h6.998c2.082-0.049 3.825 1.982 3.459 4.032zM14.5 14h-5C8.673 14 8 14.673 8 15.5v2C8 18.327 8.673 19 9.5 19h5c0.827 0 1.5-0.673 1.5-1.5v-2c0-0.827-0.673-1.5-1.5-1.5zM15 17.5c0 0.276-0.225 0.5-0.5 0.5h-5C9.225 18 9 17.776 9 17.5v-2C9 15.224 9.225 15 9.5 15h5c0.275 0 0.5 0.224 0.5 0.5z" />
</svg>