<svg id="poll_h_Layer_1" viewBox="0 0 24 24" fill="currentColor" width="32" height="32" data-name="Layer 1" xmlns="http://www.w3.org/2000/svg" xmlns:xlink="http://www.w3.org/1999/xlink">
    <title>poll-h</title>
    <path d="M19.5 0h-15C2.02 0 0 2.02 0 4.5v15C0 21.98 2.02 24 4.5 24h15c2.48 0 4.5-2.02 4.5-4.5v-15C24 2.02 21.98 0 19.5 0zM23 19.5c0 1.93-1.57 3.5-3.5 3.5h-15C2.57 23 1 21.43 1 19.5v-15C1 2.57 2.57 1 4.5 1h15C21.43 1 23 2.57 23 4.5zM5 9.5C5 9.22 5.22 9 5.5 9h10C15.78 9 16 9.22 16 9.5S15.78 10 15.5 10h-10C5.22 10 5 9.78 5 9.5zM5 5.5C5 5.22 5.22 5 5.5 5h7C12.78 5 13 5.22 13 5.5S12.78 6 12.5 6h-7C5.22 6 5 5.78 5 5.5zM19 13.5c0 0.28-0.22 0.5-0.5 0.5h-13C5.22 14 5 13.78 5 13.5S5.22 13 5.5 13h13c0.28 0 0.5 0.22 0.5 0.5zM9 17.5C9 17.78 8.78 18 8.5 18h-3C5.22 18 5 17.78 5 17.5S5.22 17 5.5 17h3C8.78 17 9 17.22 9 17.5z" />
</svg>