<svg id="pollution_Layer_1" viewBox="0 0 24 24" fill="currentColor" width="32" height="32" data-name="Layer 1" xmlns="http://www.w3.org/2000/svg" xmlns:xlink="http://www.w3.org/1999/xlink">
    <title>pollution</title>
    <path d="M12.918 21.525c0.3 0.516 0.302 1.132 5e-3 1.648-0.297 0.518-0.831 0.826-1.427 0.826H9.499c-0.276 0-0.5-0.224-0.5-0.5s0.224-0.5 0.5-0.5h1.997c0.337 0 0.504-0.227 0.56-0.324 0.056-0.098 0.167-0.355-2e-3-0.646L7.557 14.32c-0.237-0.406-0.877-0.406-1.116 0l-4.496 7.709c-0.17 0.291-0.058 0.549-2e-3 0.646 0.056 0.098 0.223 0.324 0.56 0.324H4.5c0.276 0 0.5 0.224 0.5 0.5s-0.224 0.5-0.5 0.5H2.503c-0.597 0-1.13-0.309-1.427-0.826s-0.295-1.133 5e-3-1.648l4.497-7.709C5.877 13.304 6.408 13 7 13s1.123 0.305 1.421 0.816zM7.5 20.5v-3C7.5 17.224 7.276 17 7 17s-0.5 0.224-0.5 0.5v3C6.5 20.776 6.724 21 7 21s0.5-0.224 0.5-0.5zM7 22c-0.552 0-1 0.448-1 1s0.448 1 1 1 1-0.448 1-1-0.448-1-1-1zM2.727 14.029c0.084 0.055 0.179 0.081 0.272 0.081 0.164 0 0.323-0.08 0.419-0.227 0.151-0.231 0.085-0.541-0.146-0.692C1.849 12.263 0.999 10.696 0.999 9c0-2.757 2.242-4.999 5.022-4.999h2e-3c0.193 0 0.368-0.11 0.451-0.285C7.273 2.041 8.912 1 10.749 1c1.324 0 2.558 0.544 3.474 1.532 0.17 0.184 0.45 0.211 0.656 0.068 0.555-0.393 1.202-0.601 1.871-0.601 1.718 0 3.137 1.351 3.23 3.076 0.013 0.238 0.194 0.436 0.431 0.468C21.887 5.747 23 7.018 23 8.499c0 0.544-0.148 1.075-0.428 1.538-0.143 0.236-0.067 0.544 0.169 0.687 0.237 0.142 0.543 0.067 0.687-0.169C23.803 9.937 24 9.226 24 8.499c0-1.845-1.291-3.444-3.061-3.872-0.303-2.063-2.073-3.628-4.189-3.628-0.735 0-1.45 0.19-2.088 0.555-1.071-1.006-2.445-1.555-3.912-1.555-2.123 0-4.024 1.144-5.035 3.007C2.538 3.155 0 5.786 0 8.999c0 2.036 1.02 3.916 2.727 5.03zM18.5 11c-0.542 0-1.094 0.09-1.647 0.268-2.147-1.581-5.234-1.655-7.447-0.184-0.23 0.152-0.292 0.463-0.14 0.692 0.154 0.231 0.463 0.292 0.693 0.14 1.952-1.298 4.652-1.18 6.488 0.302 0.137 0.109 0.322 0.138 0.488 0.079 3.112-1.159 6.064 1.213 6.064 4.203s-2.953 5.361-6.064 4.203c-0.166-0.061-0.351-0.031-0.488 0.079-0.356 0.287-0.746 0.528-1.157 0.718-0.251 0.115-0.361 0.412-0.245 0.663 0.084 0.184 0.265 0.291 0.455 0.291 0.07 0 0.141-0.015 0.208-0.046 0.402-0.185 0.785-0.412 1.144-0.676C17.405 21.91 17.958 22 18.499 22c3.033 0 5.5-2.468 5.5-5.5S21.532 11 18.5 11z" />
</svg>