<svg id="poo_Layer_1" viewBox="0 0 24 24" fill="currentColor" width="32" height="32" data-name="Layer 1" xmlns="http://www.w3.org/2000/svg" xmlns:xlink="http://www.w3.org/1999/xlink">
    <title>poo</title>
    <path d="M12 19c-2.891 0-5.678-2.011-5.795-2.097-0.223-0.162-0.271-0.475-0.109-0.698s0.475-0.271 0.698-0.109C6.82 16.116 9.439 18 12 18s5.179-1.885 5.206-1.904c0.223-0.162 0.537-0.113 0.698 0.109 0.163 0.224 0.114 0.536-0.109 0.698C17.678 16.989 14.891 19 12 19zM24 18.5c0-1.778-0.848-3.41-2.29-4.445C21.902 13.547 22 13.027 22 12.5c0-1.517-0.775-2.921-2.045-3.751C19.986 8.577 20 8.413 20 8.25 20 6.458 18.542 5 16.75 5h-0.785c-0.278-2.112-2.209-5-4.465-5C11.224 0 11 0.224 11 0.5 11 3.739 9.281 4.801 8.89 5H7.25C5.458 5 4 6.458 4 8.25 4 8.413 4.015 8.577 4.045 8.749 2.774 9.579 2 10.983 2 12.5c0 0.526 0.097 1.047 0.29 1.555C0.849 15.09 0 16.722 0 18.5 0 21.532 2.467 24 5.5 24h13c3.033 0 5.5-2.468 5.5-5.5zM9.186 5.964c0.11-0.044 2.572-1.073 2.798-4.892 1.512 0.438 3.017 2.785 3.017 4.428 0 0.276 0.224 0.5 0.5 0.5h1.25c1.241 0 2.25 1.01 2.25 2.25 0 0.183-0.03 0.375-0.096 0.606-0.063 0.226 0.038 0.465 0.244 0.576 1.142 0.615 1.852 1.791 1.852 3.067 0 0.514-0.123 1.026-0.364 1.521-0.113 0.231-0.031 0.512 0.19 0.646 1.361 0.828 2.174 2.261 2.174 3.833 0 2.481-2.019 4.5-4.5 4.5H5.5c-2.481 0-4.5-2.019-4.5-4.5 0-1.572 0.812-3.005 2.174-3.833 0.221-0.134 0.303-0.414 0.19-0.646C3.123 13.525 3 13.012 3 12.499c0-1.276 0.709-2.452 1.852-3.067 0.206-0.111 0.308-0.351 0.244-0.576C5.031 8.625 5 8.432 5 8.25 5 7.01 6.009 6 7.25 6c0 0 1.876-0.012 1.936-0.036z" />
    <circle cx="8" cy="12" r="1" />
    <circle cx="16" cy="12" r="1" />
</svg>