<svg id="pool_8_ball_Layer_1" viewBox="0 0 24 24" fill="currentColor" width="32" height="32" data-name="Layer 1" xmlns="http://www.w3.org/2000/svg" xmlns:xlink="http://www.w3.org/1999/xlink">
    <title>pool-8-ball</title>
    <path d="M12 0C5.383 0 0 5.383 0 12s5.383 12 12 12 12-5.383 12-12S18.617 0 12 0zM20 9c0 4.411-3.589 8-8 8s-8-3.589-8-8 3.589-8 8-8 8 3.589 8 8zM12 23C5.935 23 1 18.065 1 12 1 8.768 2.402 5.857 4.629 3.842 3.603 5.304 3 7.082 3 9c0 4.963 4.038 9 9 9s9-4.037 9-9c0-1.917-0.603-3.696-1.629-5.158C21.598 5.856 23 8.767 23 12c0 6.065-4.935 11-11 11zM8.5 10.5c0 1.93 1.57 3.5 3.5 3.5s3.5-1.57 3.5-3.5c0-1.344-0.762-2.514-1.877-3.1 0.536-0.459 0.877-1.14 0.877-1.9 0-1.379-1.122-2.5-2.5-2.5S9.5 4.121 9.5 5.5c0 0.76 0.341 1.441 0.877 1.9C9.262 7.986 8.5 9.156 8.5 10.5zM10.5 5.5C10.5 4.673 11.173 4 12 4s1.5 0.673 1.5 1.5S12.827 7 12 7s-1.5-0.673-1.5-1.5zM12 8c1.378 0 2.5 1.121 2.5 2.5S13.378 13 12 13s-2.5-1.121-2.5-2.5S10.622 8 12 8z" />
</svg>