<svg id="poop_Layer_1" viewBox="0 0 24 24" fill="currentColor" width="32" height="32" data-name="Layer 1" xmlns="http://www.w3.org/2000/svg" xmlns:xlink="http://www.w3.org/1999/xlink">
    <title>poop</title>
    <path d="M20.752 15.177C21.515 14.534 22 13.573 22 12.5c0-1.617-1.103-2.982-2.596-3.382C19.775 8.681 20 8.117 20 7.5 20 6.121 18.878 5 17.5 5h-1.079c-0.26-1.78-1.95-4.104-3.644-4.884-0.372-0.173-0.794-0.152-1.158 0.051-0.377 0.212-0.632 0.594-0.683 1.022C10.676 3.404 9.538 4.609 9.097 5H6.5C5.122 5 4 6.121 4 7.5 4 8.117 4.225 8.682 4.596 9.118 3.103 9.517 2 10.883 2 12.5c0 1.073 0.485 2.034 1.248 2.677C1.374 15.721 0 17.453 0 19.5 0 21.981 2.019 24 4.5 24h15c2.481 0 4.5-2.019 4.5-4.5 0-2.047-1.374-3.779-3.248-4.323zM19.5 23h-15C2.57 23 1 21.43 1 19.5S2.57 16 4.5 16h9c0.276 0 0.5-0.224 0.5-0.5S13.776 15 13.5 15h-8C4.122 15 3 13.879 3 12.5S4.122 10 5.5 10h8c0.276 0 0.5-0.224 0.5-0.5S13.776 9 13.5 9h-7C5.673 9 5 8.327 5 7.5S5.673 6 6.5 6h2.778C9.39 6 9.499 5.962 9.587 5.893c0.961-0.756 2.081-2.357 2.342-4.586 0.013-0.112 0.08-0.212 0.179-0.267 0.059-0.033 0.148-0.062 0.25-0.016 1.347 0.62 2.783 2.549 3.052 3.976h-2.411c-0.276 0-0.5 0.224-0.5 0.5s0.224 0.5 0.5 0.5h4.5c0.827 0 1.5 0.673 1.5 1.5S18.326 9 17.499 9c-0.276 0-0.5 0.224-0.5 0.5s0.224 0.5 0.5 0.5h1c1.378 0 2.5 1.121 2.5 2.5s-1.122 2.5-2.5 2.5h-1c-0.276 0-0.5 0.224-0.5 0.5s0.224 0.5 0.5 0.5h2c1.93 0 3.5 1.57 3.5 3.5S21.429 23 19.5 23z" />
</svg>