<svg id="pop_Layer_1" viewBox="0 0 24 24" fill="currentColor" width="32" height="32" data-name="Layer 1" xmlns="http://www.w3.org/2000/svg" xmlns:xlink="http://www.w3.org/1999/xlink">
    <title>pop</title>
    <path d="M6 7.983H5c-0.552 0-1 0.449-1 1v6.5c0 0.276 0.224 0.5 0.5 0.5s0.5-0.224 0.5-0.5v-2.5h1c1.379 0 2.5-1.122 2.5-2.5s-1.121-2.5-2.5-2.5zM6 11.983H5v-3h1c0.827 0 1.5 0.673 1.5 1.5s-0.673 1.5-1.5 1.5zM17.5 7.983h-1c-0.552 0-1 0.449-1 1v6.5c0 0.276 0.224 0.5 0.5 0.5s0.5-0.224 0.5-0.5v-2.5h1c1.379 0 2.5-1.122 2.5-2.5s-1.121-2.5-2.5-2.5zM17.5 11.983h-1v-3h1c0.827 0 1.5 0.673 1.5 1.5s-0.673 1.5-1.5 1.5zM12 7.983c-1.379 0-2.5 1.122-2.5 2.5v3c0 1.378 1.121 2.5 2.5 2.5s2.5-1.122 2.5-2.5v-3c0-1.378-1.121-2.5-2.5-2.5zM13.5 13.483c0 0.827-0.673 1.5-1.5 1.5s-1.5-0.673-1.5-1.5v-3c0-0.827 0.673-1.5 1.5-1.5s1.5 0.673 1.5 1.5zM22.141 11.983l1.698-3.184c0.215-0.4 0.214-0.858 0-1.259-0.221-0.41-0.635-0.688-1.116-0.755l-3.004-1.111c-0.153-0.057-0.246-0.209-0.228-0.371l0.246-2.065c0.049-0.417-0.14-0.809-0.502-1.05-0.312-0.209-0.827-0.333-1.329-0.049l-3.044 1.712c-0.109 0.061-0.247 0.029-0.316-0.076l-1.518-2.276c-0.459-0.689-1.598-0.689-2.057 0L9.453 3.775C9.384 3.879 9.246 3.912 9.137 3.85L6.094 2.139c-0.501-0.283-1.017-0.161-1.33 0.048-0.362 0.242-0.551 0.634-0.501 1.052l0.245 2.064C4.527 5.465 4.434 5.617 4.28 5.674L1.276 6.785C0.795 6.851 0.381 7.13 0.16 7.54c-0.215 0.4-0.215 0.858-2e-3 1.258l1.699 3.184-1.696 3.185c-0.215 0.4-0.214 0.858 0 1.259 0.221 0.41 0.635 0.688 1.116 0.755l3.004 1.111c0.153 0.057 0.246 0.209 0.228 0.371l-0.246 2.065c-0.049 0.417 0.14 0.809 0.502 1.05 0.313 0.21 0.829 0.333 1.329 0.049l3.044-1.712c0.107-0.062 0.246-0.029 0.316 0.075s1.518 2.276 1.518 2.276c0.229 0.345 0.614 0.55 1.028 0.55s0.799-0.206 1.028-0.55l1.518-2.276c0.07-0.104 0.209-0.135 0.316-0.075l3.043 1.711c0.502 0.283 1.016 0.161 1.33-0.048 0.362-0.242 0.551-0.634 0.501-1.052l-0.245-2.065c-0.019-0.162 0.074-0.314 0.229-0.371l3.003-1.11c0.481-0.066 0.895-0.345 1.116-0.755 0.215-0.4 0.215-0.858 2e-3-1.258zM22.957 15.951c-0.072 0.135-0.222 0.225-0.399 0.242-0.043 4e-3-3.185 1.16-3.185 1.16-0.59 0.218-0.949 0.805-0.874 1.428l0.244 2.063c0 0.105-0.17 0.201-0.347 0.111l-3.044-1.712c-0.563-0.314-1.281-0.143-1.639 0.393l-1.518 2.276c-0.121 0.183-0.271 0.183-0.393 0l-1.518-2.275c-0.356-0.536-1.072-0.709-1.639-0.394L5.6 20.956c-0.18 0.09-0.342-9e-3-0.347-0.111l0.245-2.064c0.075-0.623-0.284-1.21-0.873-1.428l-3.059-1.131c-0.309-0.028-0.7-0.235-0.526-0.584l1.824-3.42c0.078-0.147 0.078-0.324 0-0.471L1.04 8.328c-0.143-0.27 0.113-0.536 0.399-0.555 0.043-4e-3 3.187-1.162 3.187-1.162 0.588-0.218 0.947-0.805 0.872-1.427L5.254 3.121c2e-3-0.105 0.168-0.204 0.347-0.111l3.044 1.712c0.563 0.315 1.282 0.143 1.639-0.393l1.518-2.276c0.121-0.183 0.271-0.183 0.393 0l1.518 2.275c0.355 0.536 1.073 0.711 1.639 0.394l3.045-1.713c0.179-0.091 0.342 9e-3 0.347 0.111l-0.245 2.063c-0.075 0.623 0.284 1.209 0.872 1.427l3.06 1.132c0.309 0.028 0.7 0.235 0.526 0.584l-1.824 3.42c-0.078 0.147-0.078 0.324 0 0.471l1.824 3.419c0.056 0.103 0.055 0.211 0 0.315z" />
</svg>