<svg id="popcorn_Layer_1" viewBox="0 0 24 24" fill="currentColor" width="32" height="32" data-name="Layer 1" xmlns="http://www.w3.org/2000/svg" xmlns:xlink="http://www.w3.org/1999/xlink">
    <title>popcorn</title>
    <path d="M21.482 6.148C21.305 4.382 19.811 3 18 3c-0.378 0-0.753 0.064-1.12 0.192-0.597-0.791-1.546-1.249-2.555-1.187C13.91 0.819 12.789 0 11.499 0 10.595 0 9.757 0.403 9.19 1.094 7.599 0.67 6.15 1.619 5.665 3.016 4.021 3.173 2.705 4.474 2.521 6.147 1.038 6.575-1e-3 7.927-1e-3 9.5c0 1.604 1.085 2.96 2.56 3.372l1.352 7.433C4.3 22.446 6.162 24 8.338 24h7.323c2.176 0 4.039-1.554 4.427-3.695l1.352-7.433C22.914 12.46 24 11.104 24 9.5c0-1.572-1.037-2.922-2.518-3.352zM8.338 23c-1.693 0-3.141-1.208-3.444-2.874L3.598 13h2.401c1.367 0 2.48 1.103 2.5 2.495v0.012c0 8e-3 0.468 7.493 0.468 7.493zM14.03 23H9.969l-0.47-7.5c0-1.378 1.122-2.5 2.5-2.5s2.494 1.116 2.5 2.489zM19.105 20.126C18.803 21.792 17.355 23 15.662 23h-0.629c0 0 0.468-7.48 0.468-7.5 0-1.378 1.122-2.5 2.5-2.5h2.401zM20.5 12H18c-1.274 0-2.39 0.684-3.003 1.695C14.383 12.68 13.269 12 12 12s-2.387 0.682-3 1.699C8.387 12.682 7.272 12 6 12H3.5C2.122 12 1 10.878 1 9.5 1 8.28 1.876 7.247 3.083 7.043 3.324 7.002 3.5 6.744 3.5 6.5 3.5 5.122 4.622 4 5.949 3.997c0.238 0 0.544-0.16 0.591-0.393C6.727 2.675 7.551 2 8.5 2 8.718 2 8.941 2.047 9.202 2.148 9.425 2.237 9.68 2.15 9.807 1.947 10.177 1.354 10.809 1 11.499 1c0.968 0 1.794 0.694 1.964 1.651 0.023 0.134 0.101 0.253 0.215 0.329 0.113 0.075 0.252 0.101 0.386 0.072C14.22 3.017 14.363 3 14.5 3c0.726 0 1.396 0.403 1.749 1.053 0.127 0.235 0.419 0.329 0.659 0.21C17.264 4.088 17.632 4 18 4c1.378 0 2.5 1.122 2.5 2.55 0 0.244 0.176 0.453 0.417 0.493C22.124 7.247 23 8.28 23 9.5c0 1.378-1.122 2.5-2.5 2.5zM17 9.5c0 0.276-0.224 0.5-0.5 0.5S16 9.776 16 9.5C16 8.673 15.327 8 14.5 8 14.224 8 14 7.776 14 7.5S14.224 7 14.5 7C15.878 7 17 8.122 17 9.5zM10 5.5C10 5.776 9.776 6 9.5 6 8.673 6 8 6.673 8 7.5 8 7.776 7.776 8 7.5 8S7 7.776 7 7.5C7 6.122 8.122 5 9.5 5 9.776 5 10 5.224 10 5.5z" />
</svg>