<svg id="popsicle_Layer_1" viewBox="0 0 24 24" fill="currentColor" width="32" height="32" data-name="Layer 1" xmlns="http://www.w3.org/2000/svg" xmlns:xlink="http://www.w3.org/1999/xlink">
    <title>popsicle</title>
    <path d="M12 0C7.038 0 3 4.038 3 9v7.5C3 18.981 5.019 21 7.5 21h4v2.5c0 0.276 0.224 0.5 0.5 0.5s0.5-0.224 0.5-0.5V21h4c2.481 0 4.5-2.019 4.5-4.5V9c0-4.962-4.037-9-9-9zM20 16.5c0 1.93-1.57 3.5-3.5 3.5h-4V8.5C12.5 8.224 12.276 8 12 8s-0.5 0.224-0.5 0.5V20h-4C5.57 20 4 18.43 4 16.5V9c0-4.411 3.589-8 8-8s8 3.589 8 8z" />
</svg>