<svg id="population_Layer_1" viewBox="0 0 24 24" fill="currentColor" width="32" height="32" data-name="Layer 1" xmlns="http://www.w3.org/2000/svg" xmlns:xlink="http://www.w3.org/1999/xlink">
    <title>population</title>
    <path d="M13.5 7C12.121 7 11 8.121 11 9.5s1.121 2.5 2.5 2.5 2.5-1.121 2.5-2.5S14.879 7 13.5 7zM13.5 11c-0.827 0-1.5-0.673-1.5-1.5S12.673 8 13.5 8 15 8.673 15 9.5 14.327 11 13.5 11zM16 19.5v4c0 0.276-0.224 0.5-0.5 0.5S15 23.776 15 23.5V20h-2v3.5c0 0.276-0.224 0.5-0.5 0.5S12 23.776 12 23.5V20c0-0.018 8e-3-0.032 0.01-0.049C10.865 19.723 10 18.712 10 17.5v-1c0-1.93 1.57-3.5 3.5-3.5h1c0.276 0 0.5 0.224 0.5 0.5S14.776 14 14.5 14h-1c-1.379 0-2.5 1.121-2.5 2.5v1c0 0.827 0.673 1.5 1.5 1.5h3c0.276 0 0.5 0.224 0.5 0.5zM20.5 10c1.379 0 2.5-1.121 2.5-2.5S21.879 5 20.5 5 18 6.121 18 7.5 19.121 10 20.5 10zM20.5 6C21.327 6 22 6.673 22 7.5S21.327 9 20.5 9 19 8.327 19 7.5 19.673 6 20.5 6zM20.5 11c-1.93 0-3.5 1.57-3.5 3.5v2c0 1.023 0.618 1.902 1.5 2.288V23.5c0 0.276 0.224 0.5 0.5 0.5s0.5-0.224 0.5-0.5V19h2v4.5c0 0.276 0.224 0.5 0.5 0.5s0.5-0.224 0.5-0.5v-4.712c0.882-0.387 1.5-1.265 1.5-2.288v-2c0-1.93-1.57-3.5-3.5-3.5zM23 16.5c0 0.827-0.673 1.5-1.5 1.5h-2c-0.827 0-1.5-0.673-1.5-1.5v-2c0-1.379 1.121-2.5 2.5-2.5s2.5 1.121 2.5 2.5zM6.5 9C5.121 9 4 10.121 4 11.5S5.121 14 6.5 14 9 12.879 9 11.5 7.879 9 6.5 9zM6.5 13C5.673 13 5 12.327 5 11.5S5.673 10 6.5 10 8 10.673 8 11.5 7.327 13 6.5 13zM9 20.5v3C9 23.776 8.776 24 8.5 24S8 23.776 8 23.5V21H6v2.5C6 23.776 5.776 24 5.5 24S5 23.776 5 23.5v-2.551c-1.14-0.232-2-1.242-2-2.449V18c0-1.654 1.346-3 3-3h1.5C7.776 15 8 15.224 8 15.5S7.776 16 7.5 16H6c-1.103 0-2 0.897-2 2v0.5C4 19.327 4.673 20 5.5 20h3C8.776 20 9 20.224 9 20.5zM16 1v3.5C16 4.776 15.776 5 15.5 5S15 4.776 15 4.5V1.694l-4.781 4.598C9.532 6.949 8.426 6.94 7.753 6.268L7.134 5.649c-0.297-0.296-0.778-0.298-1.075 0l-5.205 5.205c-0.195 0.195-0.512 0.195-0.707 0s-0.195-0.512 0-0.707l5.205-5.206c0.684-0.686 1.802-0.687 2.489 0L8.46 5.56c0.291 0.291 0.77 0.296 1.065 0.011L14.279 1H11.5C11.224 1 11 0.776 11 0.5S11.224 0 11.5 0H15c0.552 0 1 0.448 1 1z" />
</svg>