<svg id="population_globe_Layer_1" viewBox="0 0 24 24" fill="currentColor" width="32" height="32" data-name="Layer 1" xmlns="http://www.w3.org/2000/svg" xmlns:xlink="http://www.w3.org/1999/xlink">
    <title>population-globe</title>
    <path d="M1.005 9.429C1.287 7.474 3.005 6 5 6 5.599 6 6.174 6.127 6.711 6.377 6.961 6.493 7.07 6.791 6.953 7.041 6.837 7.292 6.54 7.401 6.289 7.283 5.885 7.095 5.452 7 5 7 3.499 7 2.207 8.105 1.995 9.571 1.959 9.82 1.745 10 1.501 10c-0.023 0-0.048-2e-3-0.072-5e-3-0.273-0.04-0.463-0.293-0.424-0.566zM17.289 6.377c-0.25 0.116-0.359 0.414-0.242 0.664 0.116 0.251 0.413 0.36 0.664 0.242C18.115 7.095 18.548 7 19 7c1.501 0 2.793 1.105 3.005 2.571C22.041 9.82 22.255 10 22.499 10c0.023 0 0.048-2e-3 0.072-5e-3 0.273-0.04 0.463-0.293 0.423-0.566C22.712 7.474 20.994 6 18.999 6c-0.599 0-1.174 0.127-1.71 0.377zM17 3c0-1.103 0.897-2 2-2s2 0.897 2 2-0.897 2-2 2-2-0.897-2-2zM18 3c0 0.552 0.449 1 1 1s1-0.448 1-1-0.449-1-1-1-1 0.448-1 1zM8.429 9.995c0.274 0.036 0.527-0.151 0.566-0.424C9.207 8.105 10.499 7 12 7s2.793 1.105 3.005 2.571C15.041 9.82 15.255 10 15.499 10c0.023 0 0.048-2e-3 0.072-5e-3 0.273-0.04 0.463-0.293 0.423-0.566C15.712 7.474 13.994 6 11.999 6S8.287 7.474 8.004 9.429c-0.04 0.273 0.15 0.526 0.425 0.566zM23.989 12.521C23.714 18.958 18.447 24 12 24S0.287 18.958 0.011 12.521C-1e-3 12.245 0.213 12.012 0.489 12c0.271 8e-3 0.509 0.202 0.521 0.479 0.053 1.243 0.32 2.423 0.746 3.521h4.907c-0.353-1.092-0.597-2.257-0.651-3.478-0.012-0.276 0.201-0.51 0.477-0.521 0.272-0.031 0.509 0.2 0.522 0.477 0.055 1.235 0.331 2.417 0.72 3.522h8.538c0.389-1.105 0.665-2.287 0.72-3.522 0.013-0.276 0.251-0.504 0.522-0.477 0.276 0.012 0.489 0.245 0.477 0.521-0.055 1.22-0.299 2.386-0.651 3.478h4.907c0.426-1.098 0.693-2.279 0.746-3.521 0.012-0.276 0.249-0.469 0.521-0.479 0.276 0.013 0.49 0.245 0.478 0.521zM10.759 22.925C9.739 21.78 8.089 19.668 7.023 17H2.204c1.641 3.223 4.81 5.507 8.555 5.925zM12 22.788c0.762-0.798 2.648-2.951 3.877-5.788H8.122c1.229 2.838 3.115 4.991 3.878 5.788zM21.796 17h-4.819c-1.066 2.668-2.716 4.78-3.736 5.925 3.745-0.418 6.914-2.703 8.555-5.925zM3 3c0-1.103 0.897-2 2-2s2 0.897 2 2-0.897 2-2 2-2-0.897-2-2zM4 3c0 0.552 0.449 1 1 1s1-0.448 1-1-0.449-1-1-1-1 0.448-1 1zM9.615 2.5c0-1.379 1.122-2.5 2.5-2.5s2.5 1.121 2.5 2.5-1.122 2.5-2.5 2.5-2.5-1.121-2.5-2.5zM10.615 2.5c0 0.827 0.673 1.5 1.5 1.5s1.5-0.673 1.5-1.5-0.673-1.5-1.5-1.5-1.5 0.673-1.5 1.5z" />
</svg>