<svg id="portal_enter_Layer_1" viewBox="0 0 24 24" fill="currentColor" width="32" height="32" data-name="Layer 1" xmlns="http://www.w3.org/2000/svg" xmlns:xlink="http://www.w3.org/1999/xlink">
    <title>portal-enter</title>
    <path d="M24 12c0 4.15-0.627 12-3 12s-2.864-7.894-2.94-9.476c-0.013-0.276 0.2-0.511 0.476-0.523 0.256-0.04 0.509 0.198 0.523 0.475C19.352 20.547 20.55 23 21 23c0.679 0 2-3.883 2-11S21.679 1 21 1c-0.645 0-1.935 3.708-1.998 10.505C19 11.779 18.776 12 18.502 12H16.63c-0.872 0-1.692-0.464-2.142-1.211l-1.843-3.062c-0.017-0.029-0.035-0.057-0.054-0.084l-2.8 6.067C9.707 13.893 9.525 14 9.336 14c-0.07 0-0.141-0.015-0.209-0.046-0.251-0.116-0.36-0.413-0.245-0.664l2.877-6.235C11.63 7.019 11.496 7 11.359 7H8.766l-2.673 5.849c-0.269 0.656-0.022 1.429 0.594 1.818l5.061 2.899c0.156 0.089 0.251 0.254 0.251 0.434v5.5c0 0.276-0.224 0.5-0.5 0.5s-0.5-0.224-0.5-0.5v-5.21l-4.828-2.767c-1.046-0.66-1.457-1.948-0.996-3.072L7.666 7H5.735C5.163 7 4.65 7.317 4.394 7.829l-1.447 2.895c-0.124 0.247-0.424 0.349-0.671 0.224-0.247-0.124-0.347-0.424-0.224-0.671l1.447-2.895C3.925 6.529 4.782 6 5.735 6h5.624c0.872 0 1.692 0.464 2.142 1.211l1.843 3.062C15.614 10.721 16.106 11 16.629 11h1.379c0.085-4.31 0.794-11 2.99-11 2.373 0 3 7.85 3.002 12zM4.689 16.779c-0.257-0.103-0.547 0.021-0.65 0.278-0.229 0.572-0.776 0.942-1.393 0.942H0.5c-0.276 0-0.5 0.224-0.5 0.5s0.224 0.5 0.5 0.5h2.146c1.028 0 1.939-0.616 2.321-1.571 0.103-0.256-0.022-0.547-0.278-0.649zM9 2.5C9 1.121 10.122 0 11.5 0S14 1.121 14 2.5 12.878 5 11.5 5 9 3.879 9 2.5zM10 2.5C10 3.327 10.673 4 11.5 4S13 3.327 13 2.5 12.327 1 11.5 1 10 1.673 10 2.5z" />
</svg>