<svg id="portal_exit_Layer_1" viewBox="0 0 24 24" fill="currentColor" width="32" height="32" data-name="Layer 1" xmlns="http://www.w3.org/2000/svg" xmlns:xlink="http://www.w3.org/1999/xlink">
    <title>portal-exit</title>
    <path d="M24 11.5c0 0.276-0.224 0.5-0.5 0.5h-1.87c-0.872 0-1.692-0.464-2.142-1.211l-1.843-3.062c-0.017-0.029-0.035-0.057-0.054-0.084l-2.8 6.067C14.707 13.893 14.525 14 14.336 14c-0.07 0-0.141-0.015-0.209-0.046-0.251-0.116-0.36-0.413-0.245-0.664l2.877-6.235C16.63 7.019 16.496 7 16.359 7h-2.593l-2.673 5.849c-0.269 0.656-0.022 1.429 0.594 1.818l5.061 2.899c0.156 0.089 0.251 0.254 0.251 0.434v5.5c0 0.276-0.224 0.5-0.5 0.5s-0.5-0.224-0.5-0.5v-5.21l-4.828-2.767c-1.046-0.66-1.457-1.948-0.996-3.072L12.666 7h-1.931C10.163 7 9.65 7.317 9.394 7.829l-1.447 2.895c-0.124 0.247-0.424 0.349-0.671 0.224-0.247-0.124-0.347-0.424-0.224-0.671l1.447-2.895C8.925 6.529 9.782 6 10.735 6h5.624c0.872 0 1.692 0.464 2.142 1.211l1.843 3.062C20.614 10.721 21.106 11 21.629 11h1.87c0.276 0 0.5 0.224 0.501 0.5zM9.689 16.779c-0.256-0.103-0.548 0.021-0.65 0.278-0.229 0.572-0.776 0.942-1.393 0.942H5.063c-0.248 0-0.458 0.182-0.495 0.427-0.51 3.422-1.291 4.573-1.568 4.573-0.679 0-2-3.883-2-11S2.321 1 3 1 5 4.883 5 12c0 1.18-0.039 2.346-0.117 3.466-0.019 0.275 0.189 0.514 0.464 0.533 0.283 0.024 0.514-0.189 0.534-0.465C5.96 14.391 6 13.203 6 12 6 7.85 5.373 0 3 0S0 7.85 0 12 0.627 24 3 24c1.113 0 1.951-1.682 2.491-5h2.155c1.028 0 1.939-0.616 2.321-1.571 0.103-0.256-0.022-0.547-0.278-0.65zM14 2.5C14 1.121 15.122 0 16.5 0S19 1.121 19 2.5 17.878 5 16.5 5 14 3.879 14 2.5zM15 2.5C15 3.327 15.673 4 16.5 4S18 3.327 18 2.5 17.327 1 16.5 1 15 1.673 15 2.5z" />
</svg>