<svg id="portuguese_Layer_1" viewBox="0 0 24 24" fill="currentColor" width="32" height="32" data-name="Layer 1" xmlns="http://www.w3.org/2000/svg" xmlns:xlink="http://www.w3.org/1999/xlink">
    <title>portuguese</title>
    <path d="M9 7.25C9 6.009 7.99 5 6.75 5H5.5c-0.552 0-1 0.449-1 1v5.5C4.5 11.776 4.724 12 5 12s0.5-0.224 0.5-0.5v-2h1.25C7.99 9.5 9 8.491 9 7.25zM5.5 6h1.25C7.439 6 8 6.561 8 7.25S7.439 8.5 6.75 8.5H5.5zM10 5.5C10 5.224 10.224 5 10.5 5h4C14.776 5 15 5.224 15 5.5S14.776 6 14.5 6H13v5.5c0 0.276-0.224 0.5-0.5 0.5S12 11.776 12 11.5V6h-1.5C10.224 6 10 5.776 10 5.5zM19.5 4h-0.551C18.697 1.756 16.81 0 14.5 0h-10C2.019 0 0 2.019 0 4.5v13.855c-0.041 1.276 1.522 2.113 2.562 1.371l3.526-2.351C6.497 19.438 8.318 21 10.5 21h6.849l4.089 2.726c1.04 0.742 2.604-0.095 2.563-1.371V8.5c0-2.481-2.019-4.5-4.501-4.5zM2.008 18.894C1.6 19.186 0.982 18.858 1 18.355V4.5C1 2.57 2.57 1 4.5 1h10C16.43 1 18 2.57 18 4.5v8c0 1.93-1.57 3.5-3.5 3.5h-8c-0.105-4e-3-0.189 0.05-0.277 0.084zM23 22.355c0.019 0.503-0.602 0.831-1.008 0.539l-4.215-2.81C17.695 20.029 17.598 20 17.5 20h-7c-1.758 0-3.204-1.308-3.449-3H14.5c2.481 0 4.5-2.019 4.5-4.5V5h0.5C21.43 5 23 6.57 23 8.5z" />
</svg>