<svg id="postal_address_Layer_1" viewBox="0 0 24 24" fill="currentColor" width="32" height="32" data-name="Layer 1" xmlns="http://www.w3.org/2000/svg" xmlns:xlink="http://www.w3.org/1999/xlink">
    <title>postal-address</title>
    <path d="M14 10c0-2.206-1.794-4-4-4s-4 1.794-4 4 1.794 4 4 4 4-1.794 4-4zM10 13c-1.654 0-3-1.346-3-3s1.346-3 3-3 3 1.346 3 3-1.346 3-3 3zM9.997 21.559C9.967 21.813 9.751 22 9.501 22c-1.042-0.122-2.05-0.578-2.802-1.311l-3.766-3.685C1.04 15.12 0 12.619 0 9.959s1.04-5.161 2.929-7.043C4.818 1.036 7.33 0 10 0s5.181 1.036 7.07 2.916c2.547 2.536 3.529 6.26 2.564 9.719-0.074 0.266-0.354 0.419-0.616 0.347-0.266-0.074-0.421-0.35-0.347-0.616 0.868-3.11-0.016-6.46-2.307-8.74-1.7-1.692-3.96-2.625-6.364-2.625S5.335 1.934 3.635 3.626C1.936 5.318 1 7.567 1 9.96s0.936 4.642 2.636 6.334l3.762 3.681c0.592 0.576 1.34 0.933 2.162 1.03 0.274 0.032 0.47 0.28 0.437 0.554zM21.5 15h-7c-1.378 0-2.5 1.121-2.5 2.5v4c0 1.379 1.122 2.5 2.5 2.5H21c1.387 0 3-1.092 3-2.5v-4c0-1.379-1.122-2.5-2.5-2.5zM14.5 16h7c0.317 0 0.61 0.1 0.853 0.268L19.06 19.56c-0.565 0.566-1.554 0.566-2.121 0l-3.292-3.292C13.889 16.1 14.183 16 14.5 16zM23 21.5c0 0.772-1.127 1.5-2 1.5h-6.5c-0.827 0-1.5-0.673-1.5-1.5v-4c0-0.141 0.026-0.274 0.062-0.403l3.17 3.17c0.472 0.473 1.1 0.732 1.768 0.732s1.296-0.26 1.768-0.732l3.17-3.17C22.974 17.226 23 17.359 23 17.5z" />
</svg>