<svg id="pot_Layer_1" viewBox="0 0 24 24" fill="currentColor" width="32" height="32" data-name="Layer 1" xmlns="http://www.w3.org/2000/svg" xmlns:xlink="http://www.w3.org/1999/xlink">
    <title>pot</title>
    <path d="M23.5 4h-11V1h3C15.776 1 16 0.776 16 0.5S15.776 0 15.5 0h-7C8.224 0 8 0.224 8 0.5S8.224 1 8.5 1h3v3h-11C0.224 4 0 4.224 0 4.5S0.224 5 0.5 5H2v14.5C2 21.981 4.019 24 6.5 24h11c2.481 0 4.5-2.019 4.5-4.5V5h1.5C23.776 5 24 4.776 24 4.5S23.776 4 23.5 4zM21 19.5c0 1.93-1.57 3.5-3.5 3.5h-11C4.57 23 3 21.43 3 19.5V5h18z" />
</svg>