<svg id="potato_Layer_1" viewBox="0 0 24 24" fill="currentColor" width="32" height="32" data-name="Layer 1" xmlns="http://www.w3.org/2000/svg" xmlns:xlink="http://www.w3.org/1999/xlink">
    <title>potato</title>
    <path d="M20.672 1.069c-2.246-1.433-5.267-1.425-7.517 0.022-1.056 0.679-1.883 1.567-2.457 2.642-0.873 1.638-2.195 2.709-3.722 3.018-2.402 0.485-4.438 1.917-5.73 4.032-2.094 3.423-1.51 7.942 1.389 10.745 1.643 1.59 3.804 2.465 6.084 2.465 8.285 0 15.285-7.747 15.285-16.917 0-2.431-1.245-4.677-3.332-6.007zM8.719 22.993c-2.02 0-3.934-0.775-5.389-2.184-2.564-2.48-3.082-6.477-1.23-9.504 1.146-1.875 2.948-3.144 5.074-3.573C9 7.363 10.565 6.11 11.581 4.205c0.492-0.922 1.204-1.686 2.115-2.271 0.97-0.623 2.105-0.935 3.24-0.935 1.122 0 2.242 0.305 3.198 0.914 1.797 1.146 2.869 3.077 2.869 5.165 0 8.627-6.542 15.917-14.284 15.915zM18 7c0 0.552-0.448 1-1 1s-1-0.448-1-1 0.448-1 1-1 1 0.448 1 1zM6 14c0 0.552-0.448 1-1 1s-1-0.448-1-1 0.448-1 1-1 1 0.448 1 1zM12 16c0 0.552-0.448 1-1 1s-1-0.448-1-1 0.448-1 1-1 1 0.448 1 1zM18 14c0 0.552-0.448 1-1 1s-1-0.448-1-1 0.448-1 1-1 1 0.448 1 1z" />
</svg>