<svg id="practice_Layer_1" viewBox="0 0 24 24" fill="currentColor" width="32" height="32" data-name="Layer 1" xmlns="http://www.w3.org/2000/svg" xmlns:xlink="http://www.w3.org/1999/xlink">
    <title>practice</title>
    <path d="M22.787 12.091c0.227 0.158 0.281 0.47 0.123 0.696l-2.604 3.721C19.652 17.443 18.58 18 17.439 18h-1.438v5.5c0 0.276-0.224 0.5-0.5 0.5s-0.5-0.224-0.5-0.5V18h-6v5.5c0 0.276-0.224 0.5-0.5 0.5s-0.5-0.224-0.5-0.5V18H6.563c-1.141 0-2.213-0.558-2.867-1.492l-2.604-3.721c-0.158-0.227-0.104-0.538 0.123-0.696 0.225-0.159 0.538-0.104 0.696 0.122l2.604 3.721C4.982 16.602 5.747 17 6.563 17h10.876c0.815 0 1.581-0.398 2.048-1.066l2.604-3.721c0.159-0.226 0.47-0.281 0.696-0.122zM1.276 6.188C0.233 5.33-0.209 4.02 0.092 2.682 0.375 1.425 1.407 0.386 2.66 0.097 3.757-0.151 4.829 0.084 5.679 0.762 6.518 1.431 7 2.43 7 3.501 7 4.539 6.537 5.517 5.729 6.184 5.119 6.686 5 7.413 5 8.5V9c0 0.649-0.515 1-1 1H3c-0.485 0-1-0.351-1-1V8.5c0-1.088-0.119-1.815-0.724-2.312zM1.911 5.415c0.543 0.446 0.813 1.003 0.95 1.586H4.14c0.138-0.583 0.408-1.139 0.953-1.588C5.669 4.936 6 4.24 6 3.502 6 2.736 5.656 2.023 5.056 1.544 4.608 1.187 4.071 1.002 3.501 1.002c-0.203 0-0.409 0.023-0.618 0.07-0.885 0.204-1.615 0.939-1.815 1.83-0.217 0.962 0.098 1.901 0.843 2.513zM21.005 5.001c0 1.103-0.897 2-2 2s-2-0.897-2-2 0.897-2 2-2 2 0.897 2 2zM20.005 5.001c0-0.552-0.449-1-1-1s-1 0.448-1 1 0.449 1 1 1 1-0.448 1-1zM8.501 6.001h3.046L10.148 7.4c-0.195 0.195-0.195 0.512 0 0.707 0.098 0.098 0.226 0.146 0.354 0.146s0.256-0.049 0.354-0.146l1.821-1.821c0.433-0.433 0.433-1.138 0-1.57l-1.821-1.821c-0.195-0.195-0.512-0.195-0.707 0s-0.195 0.512 0 0.707l1.399 1.399H8.502c-0.276 0-0.5 0.224-0.5 0.5s0.224 0.5 0.499 0.5zM23.269 7.355c-0.34 0.617-1.058 0.898-1.711 0.722-0.314 0.256-0.674 0.467-1.065 0.622-0.097 0.734-0.727 1.303-1.487 1.303s-1.39-0.568-1.487-1.303c-0.391-0.155-0.752-0.366-1.066-0.624-0.679 0.193-1.394-0.093-1.733-0.708-0.194-0.353-0.239-0.76-0.126-1.146 0.081-0.276 0.236-0.519 0.448-0.704-0.023-0.174-0.035-0.347-0.035-0.515 0-0.178 0.013-0.359 0.039-0.543-0.487-0.471-0.607-1.189-0.281-1.78 0.208-0.376 0.523-0.628 0.905-0.737 0.259-0.074 0.527-0.079 0.781-0.011 0.314-0.259 0.676-0.471 1.068-0.626 0.097-0.734 0.727-1.303 1.487-1.303s1.39 0.568 1.487 1.303c0.392 0.155 0.753 0.367 1.067 0.625 0.261-0.071 0.536-0.068 0.8 9e-3 0.385 0.11 0.704 0.365 0.898 0.717 0.338 0.612 0.201 1.362-0.29 1.82 0.024 0.178 0.037 0.354 0.037 0.526 0 0.171-0.012 0.346-0.036 0.522 0.201 0.183 0.348 0.418 0.426 0.686 0.113 0.387 0.068 0.793-0.126 1.145zM22.436 6.49c-0.038-0.129-0.123-0.234-0.241-0.299-0.196-0.106-0.308-0.334-0.261-0.552 0.048-0.222 0.072-0.43 0.072-0.638s-0.023-0.416-0.072-0.638c-0.048-0.224 0.061-0.451 0.265-0.554 0.229-0.127 0.317-0.432 0.184-0.672-0.065-0.118-0.171-0.203-0.299-0.239-0.129-0.039-0.265-0.021-0.38 0.042-0.195 0.107-0.439 0.076-0.597-0.077-0.333-0.327-0.764-0.576-1.245-0.722-0.211-0.063-0.356-0.258-0.356-0.479V1.5c0-0.275-0.224-0.5-0.5-0.5s-0.5 0.225-0.5 0.5v0.162c0 0.221-0.145 0.415-0.356 0.479-0.481 0.146-0.911 0.395-1.245 0.722-0.158 0.154-0.399 0.188-0.593 0.08-0.112-0.062-0.243-0.076-0.367-0.042-0.125 0.036-0.228 0.118-0.291 0.232-0.144 0.261-0.06 0.556 0.174 0.685 0.227 0.091 0.301 0.306 0.249 0.545-0.048 0.222-0.072 0.43-0.072 0.638s0.023 0.416 0.072 0.638c0.047 0.219-0.056 0.443-0.254 0.548-0.146 0.079-0.232 0.186-0.271 0.314-0.038 0.129-0.022 0.265 0.042 0.382 0.132 0.24 0.437 0.327 0.675 0.199 0.084-0.046 0.186-0.07 0.287-0.07 0.131 0 0.26 0.041 0.349 0.127 0.333 0.327 0.764 0.576 1.245 0.722 0.211 0.063 0.356 0.258 0.356 0.479v0.162c0 0.275 0.224 0.5 0.5 0.5s0.5-0.225 0.5-0.5V8.34c0-0.221 0.145-0.415 0.356-0.479 0.481-0.146 0.911-0.395 1.245-0.722 0.157-0.154 0.399-0.188 0.592-0.08 0.261 0.142 0.563 0.053 0.695-0.188 0.065-0.118 0.08-0.253 0.042-0.381zM12.001 11.002c1.378 0 2.5 1.121 2.5 2.5s-1.122 2.5-2.5 2.5-2.5-1.121-2.5-2.5 1.122-2.5 2.5-2.5zM12.001 12.002c-0.827 0-1.5 0.673-1.5 1.5s0.673 1.5 1.5 1.5 1.5-0.673 1.5-1.5-0.673-1.5-1.5-1.5z" />
</svg>