<svg id="praying_hands_Layer_1" viewBox="0 0 24 24" fill="currentColor" width="32" height="32" data-name="Layer 1" xmlns="http://www.w3.org/2000/svg" xmlns:xlink="http://www.w3.org/1999/xlink">
    <title>praying-hands</title>
    <path d="M23.854 21.854C23.756 21.952 23.628 22 23.5 22s-0.256-0.049-0.354-0.146C22.407 21.114 22 20.131 22 19.086v-5.851c0-1.358-0.416-2.661-1.203-3.767l-5.566-7.824c-0.476-0.682-1.414-0.847-2.091-0.372-0.329 0.229-0.548 0.573-0.618 0.968s0.019 0.792 0.248 1.121l4.184 6.133c0.631 0.478 1.045 1.254 1.045 2.114v5.893c0 0.276-0.224 0.5-0.5 0.5s-0.5-0.224-0.5-0.5v-5.893c0-0.789-0.535-1.471-1.245-1.587-0.45-0.071-0.886 0.046-1.226 0.336-0.336 0.286-0.529 0.703-0.529 1.144v6.5c0 3.233 1.836 5.129 1.854 5.147 0.194 0.196 0.193 0.513-2e-3 0.707-0.098 0.097-0.225 0.146-0.353 0.146s-0.255-0.049-0.353-0.146c-0.088-0.088-2.146-2.188-2.146-5.854v-6.5c0-0.734 0.321-1.429 0.881-1.905 0.431-0.366 0.97-0.568 1.531-0.588l-3.412-5.003-3.411 5.002c0.561 0.02 1.099 0.222 1.53 0.588 0.56 0.477 0.881 1.171 0.881 1.905V18c0 3.665-2.059 5.766-2.146 5.854C8.755 23.952 8.628 24 8.5 24s-0.255-0.049-0.353-0.146c-0.195-0.194-0.196-0.511-2e-3-0.707 0.019-0.019 1.854-1.914 1.854-5.147v-6.5c0-0.44-0.193-0.857-0.529-1.144-0.34-0.29-0.776-0.407-1.226-0.336-0.709 0.116-1.245 0.798-1.245 1.587V17.5c0 0.276-0.224 0.5-0.5 0.5s-0.5-0.224-0.5-0.5v-5.893c0-0.86 0.414-1.636 1.045-2.114l4.181-6.13c0.233-0.333 0.321-0.73 0.251-1.125S11.187 1.5 10.858 1.27c-0.677-0.474-1.614-0.31-2.089 0.369L3.202 9.467c-0.788 1.105-1.204 2.408-1.204 3.767v5.851c0 1.045-0.407 2.027-1.146 2.768-0.098 0.098-0.226 0.146-0.354 0.146s-0.256-0.049-0.354-0.146c-0.195-0.195-0.195-0.512 0-0.707 0.55-0.551 0.854-1.282 0.854-2.061v-5.851c0-1.567 0.48-3.07 1.389-4.347l5.567-7.824c0.787-1.125 2.349-1.401 3.479-0.612 0.224 0.157 0.409 0.352 0.567 0.565 0.159-0.213 0.343-0.409 0.567-0.565 1.13-0.787 2.691-0.513 3.481 0.615l5.562 7.822c0.909 1.276 1.389 2.779 1.389 4.347v5.851c0 0.778 0.303 1.51 0.854 2.061 0.195 0.195 0.195 0.512 1e-3 0.707z" />
</svg>