<svg id="premium_account_Layer_1" viewBox="0 0 24 24" fill="currentColor" width="32" height="32" data-name="Layer 1" xmlns="http://www.w3.org/2000/svg" xmlns:xlink="http://www.w3.org/1999/xlink">
    <title>premium-account</title>
    <path d="M18.783 2.1c-0.229-0.156-0.539-0.098-0.695 0.129-0.156 0.228-0.099 0.539 0.129 0.695C21.212 4.98 23 8.373 23 12c0 3.874-2.018 7.28-5.054 9.24C17.571 18.29 15.05 16 12 16s-5.571 2.29-5.946 5.24C3.019 19.28 1 15.874 1 12 1 8.373 2.788 4.98 5.783 2.924 6.011 2.768 6.068 2.457 5.912 2.229 5.757 2.002 5.445 1.944 5.217 2.1 1.95 4.342 0 8.043 0 12c0 6.617 5.383 12 12 12s12-5.383 12-12c0-3.957-1.95-7.658-5.217-9.9zM7.021 21.796C7.131 19.136 9.313 17 12 17s4.87 2.135 4.979 4.796C15.482 22.56 13.793 23 12 23s-3.482-0.44-4.979-1.204zM12 14c2.206 0 4-1.794 4-4s-1.794-4-4-4-4 1.794-4 4 1.794 4 4 4zM12 7c1.654 0 3 1.346 3 3s-1.346 3-3 3-3-1.346-3-3 1.346-3 3-3zM9.375 5h5.25C15.383 5 16 4.383 16 3.625V0.937c0-0.37-0.219-0.707-0.562-0.859-0.335-0.146-0.731-0.083-1.027 0.186l-0.832 0.857-0.621-0.693C12.714 0.157 12.365 1e-3 12 1e-3s-0.714 0.156-0.957 0.427l-0.622 0.694-0.855-0.879C9.292-6e-3 8.897-0.068 8.557 0.082 8.219 0.232 8 0.569 8 0.939v2.688C8 4.385 8.617 5.002 9.375 5zM9 1.093l1.077 1.109c0.096 0.099 0.225 0.144 0.368 0.152 0.139-3e-3 0.27-0.063 0.362-0.166l0.979-1.093c0.148-0.165 0.278-0.165 0.427 0l0.979 1.092c0.092 0.104 0.224 0.164 0.362 0.167 0.146-7e-3 0.272-0.053 0.368-0.152l1.077-1.109v2.533c0 0.207-0.168 0.375-0.375 0.375h-5.25c-0.207 0-0.375-0.168-0.375-0.375z" />
</svg>