<svg id="presentation_folder_Layer_1" viewBox="0 0 24 24" fill="currentColor" width="32" height="32" data-name="Layer 1" xmlns="http://www.w3.org/2000/svg" xmlns:xlink="http://www.w3.org/1999/xlink">
    <title>presentation-folder</title>
    <path d="M23.5 0h-23C0.224 0 0 0.224 0 0.5S0.224 1 0.5 1H1v12.5C1 15.981 3.019 18 5.5 18h6v2.071c-0.86 0.224-1.5 1-1.5 1.929 0 1.103 0.897 2 2 2s2-0.897 2-2c0-0.929-0.64-1.705-1.5-1.929V18h6c2.481 0 4.5-2.019 4.5-4.5V1h0.5C23.776 1 24 0.776 24 0.5S23.776 0 23.5 0zM13 22c0 0.551-0.449 1-1 1s-1-0.449-1-1 0.449-1 1-1 1 0.449 1 1zM22 13.5c0 1.93-1.57 3.5-3.5 3.5h-13C3.57 17 2 15.43 2 13.5V1h20zM8.5 14h7c1.378 0 2.5-1.122 2.5-2.5v-4C18 6.122 16.878 5 15.5 5h-2.681c-0.104 0-0.204-0.032-0.289-0.092l-0.89-0.631C11.385 4.096 11.084 4 10.772 4H8.5C7.122 4 6 5.122 6 6.5v5C6 12.878 7.122 14 8.5 14zM15.5 13h-7C7.673 13 7 12.327 7 11.5V8h10v3.5c0 0.827-0.673 1.5-1.5 1.5zM8.5 5h2.272c0.104 0 0.205 0.032 0.29 0.092l0.889 0.631C12.206 5.904 12.506 6 12.819 6H15.5c0.651 0 1.201 0.419 1.408 1H7V6.5C7 5.673 7.673 5 8.5 5z" />
</svg>