<svg id="prescription_bottle_pill_Layer_1" viewBox="0 0 24 24" fill="currentColor" width="32" height="32" data-name="Layer 1" xmlns="http://www.w3.org/2000/svg" xmlns:xlink="http://www.w3.org/1999/xlink">
    <title>prescription-bottle-pill</title>
    <path d="M10.5 23h-4C4.57 23 3 21.43 3 19.5V18h3.5C6.776 18 7 17.776 7 17.5S6.776 17 6.5 17H3v-3h3.5C6.776 14 7 13.776 7 13.5S6.776 13 6.5 13H3v-3h3.5C6.776 10 7 9.776 7 9.5S6.776 9 6.5 9H3V5h16v3.5C19 8.776 19.224 9 19.5 9S20 8.776 20 8.5V4.949c1.14-0.232 2-1.242 2-2.449 0-1.379-1.121-2.5-2.5-2.5h-17C1.121 0 0 1.121 0 2.5 0 3.708 0.86 4.717 2 4.949V19.5C2 21.981 4.019 24 6.5 24h4c0.276 0 0.5-0.224 0.5-0.5S10.776 23 10.5 23zM1 2.5C1 1.673 1.673 1 2.5 1h17C20.327 1 21 1.673 21 2.5S20.327 4 19.5 4h-17C1.673 4 1 3.327 1 2.5zM17.5 11c-3.584 0-6.5 2.916-6.5 6.5s2.916 6.5 6.5 6.5 6.5-2.916 6.5-6.5-2.916-6.5-6.5-6.5zM12 17.5c0-3.032 2.468-5.5 5.5-5.5 1.337 0 2.563 0.48 3.517 1.276l-7.74 7.74c-0.796-0.954-1.276-2.18-1.277-3.516zM17.5 23c-1.337 0-2.563-0.48-3.517-1.276l7.74-7.74c0.796 0.954 1.276 2.18 1.276 3.517 0 3.032-2.468 5.5-5.499 5.499z" />
</svg>