<svg id="prescription_bottle_alt_Layer_1" viewBox="0 0 24 24" fill="currentColor" width="32" height="32" data-name="Layer 1" xmlns="http://www.w3.org/2000/svg" xmlns:xlink="http://www.w3.org/1999/xlink">
    <title>prescription-bottle-alt</title>
    <path d="M23 2.5C23 1.121 21.878 0 20.5 0h-17C2.122 0 1 1.121 1 2.5 1 3.708 1.86 4.717 3 4.949V19.5C3 21.981 5.019 24 7.5 24h9c2.481 0 4.5-2.019 4.5-4.5V4.949c1.14-0.232 2-1.242 2-2.449zM16.5 23h-9C5.57 23 4 21.43 4 19.5V5h16v14.5c0 1.93-1.57 3.5-3.5 3.5zM20.5 4h-17C2.673 4 2 3.327 2 2.5S2.673 1 3.5 1h17C21.327 1 22 1.673 22 2.5S21.327 4 20.5 4zM16 14c0 0.276-0.224 0.5-0.5 0.5h-3v3c0 0.276-0.224 0.5-0.5 0.5s-0.5-0.224-0.5-0.5v-3h-3C8.224 14.5 8 14.276 8 14s0.224-0.5 0.5-0.5h3v-3c0-0.276 0.224-0.5 0.5-0.5s0.5 0.224 0.5 0.5v3h3c0.276 0 0.5 0.224 0.5 0.5z" />
</svg>