<svg id="previous_square_Layer_1" viewBox="0 0 24 24" fill="currentColor" width="32" height="32" data-name="Layer 1" xmlns="http://www.w3.org/2000/svg" xmlns:xlink="http://www.w3.org/1999/xlink">
    <title>previous-square</title>
    <path d="M19.5 0h-15C2.019 0 0 2.019 0 4.5v15C0 21.981 2.019 24 4.5 24h15c2.481 0 4.5-2.019 4.5-4.5v-15C24 2.019 21.981 0 19.5 0zM23 19.5c0 1.93-1.57 3.5-3.5 3.5h-15C2.57 23 1 21.43 1 19.5v-15C1 2.57 2.57 1 4.5 1h15C21.43 1 23 2.57 23 4.5zM16.178 7.162c-0.508-0.255-1.107-0.204-1.533 0.114L9.103 10.8c-0.039 0.029-0.068 0.065-0.104 0.097V8.5c0-0.827-0.673-1.5-1.5-1.5s-1.5 0.673-1.5 1.5v7c0 0.827 0.673 1.5 1.5 1.5s1.5-0.673 1.5-1.5v-2.403c0.045 0.041 0.083 0.086 0.134 0.124l5.481 3.483C14.878 16.9 15.189 17 15.503 17c0.229 0 0.459-0.054 0.673-0.161 0.507-0.256 0.822-0.767 0.822-1.335V8.496c0-0.568-0.315-1.079-0.82-1.334zM8 15.5C8 15.775 7.776 16 7.5 16S7 15.775 7 15.5v-7C7 8.224 7.224 8 7.5 8S8 8.224 8 8.5zM16 15.504c0 0.19-0.102 0.355-0.272 0.441-0.17 0.087-0.363 0.068-0.547-0.064L9.7 12.397C9.573 12.303 9.5 12.158 9.5 12s0.073-0.303 0.17-0.377l5.541-3.524C15.299 8.034 15.401 8 15.504 8c0.076 0 0.152 0.018 0.224 0.054C15.898 8.14 16 8.305 16 8.495z" />
</svg>