<svg id="print_wifi_Layer_1" viewBox="0 0 24 24" fill="currentColor" width="32" height="32" data-name="Layer 1" xmlns="http://www.w3.org/2000/svg" xmlns:xlink="http://www.w3.org/1999/xlink">
    <title>print-wifi</title>
    <path d="M23.397 8.249c-0.14-0.24-0.447-0.319-0.684-0.182-0.238 0.139-0.32 0.444-0.182 0.684 0.306 0.527 0.468 1.133 0.468 1.749V16c0 2.206-1.794 4-4 4v-3.5c0-1.379-1.121-2.5-2.5-2.5H7.5C6.121 14 5 15.121 5 16.5V20c-2.206 0-4-1.794-4-4v-5.5C1 8.57 2.57 7 4.5 7h8C12.776 7 13 6.776 13 6.5S12.776 6 12.5 6H6V3.5C6 2.121 7.121 1 8.5 1h2C10.776 1 11 0.776 11 0.5S10.776 0 10.5 0h-2C6.57 0 5 1.57 5 3.5V6H4.5C2.019 6 0 8.019 0 10.5V16c0 2.757 2.243 5 5 5v0.5C5 22.879 6.121 24 7.5 24h9c1.379 0 2.5-1.121 2.5-2.5V21c2.757 0 5-2.243 5-5v-5.5c0-0.792-0.208-1.57-0.603-2.251zM18 21.5c0 0.827-0.673 1.5-1.5 1.5h-9C6.673 23 6 22.327 6 21.5v-5C6 15.673 6.673 15 7.5 15h9c0.827 0 1.5 0.673 1.5 1.5zM18 7c0.552 0 1 0.448 1 1s-0.448 1-1 1-1-0.448-1-1 0.448-1 1-1zM20.121 5.879c-1.133-1.133-3.109-1.133-4.242 0-0.195 0.195-0.512 0.195-0.707 0s-0.195-0.512 0-0.707c1.51-1.512 4.146-1.512 5.656 0 0.195 0.195 0.195 0.512 0 0.707s-0.512 0.195-0.707 0zM12.343 3.05c-0.195-0.195-0.195-0.512 0-0.707 3.119-3.119 8.195-3.119 11.314 0 0.195 0.195 0.195 0.512 0 0.707s-0.512 0.195-0.707 0c-2.73-2.729-7.17-2.729-9.9 0-0.195 0.195-0.512 0.195-0.707 0z" />
</svg>