<svg id="print_slash_Layer_1" viewBox="0 0 24 24" fill="currentColor" width="32" height="32" data-name="Layer 1" xmlns="http://www.w3.org/2000/svg" xmlns:xlink="http://www.w3.org/1999/xlink">
    <title>print-slash</title>
    <path d="M24 16.5v-6C24 8.019 21.981 6 19.5 6H19V3.5C19 1.57 17.43 0 15.5 0h-7C6.57 0 5 1.57 5 3.5v0.793L0.854 0.146c-0.196-0.195-0.512-0.195-0.708 0s-0.195 0.512 0 0.708l23 23C23.244 23.952 23.372 24 23.5 24s0.256-0.049 0.354-0.146c0.195-0.195 0.195-0.512 0-0.707l-2.531-2.531C22.93 19.906 24 18.304 24 16.5zM6 3.5C6 2.121 7.121 1 8.5 1h7C16.879 1 18 2.121 18 3.5V6H6.707L6 5.293zM20.547 19.84 7.707 7H19.5c1.93 0 3.5 1.57 3.5 3.5v6c0 1.538-1 2.887-2.453 3.34zM18.5 11c0 0.276-0.224 0.5-0.5 0.5h-2c-0.276 0-0.5-0.224-0.5-0.5s0.224-0.5 0.5-0.5h2c0.276 0 0.5 0.224 0.5 0.5zM18.665 22.75C18.22 23.521 17.39 24 16.5 24h-9C6.121 24 5 22.879 5 21.5V21c-2.757 0-5-2.243-5-5v-5.5c0-1.844 1.104-3.481 2.812-4.173 0.254-0.102 0.547 0.021 0.651 0.276 0.104 0.256-0.021 0.548-0.276 0.651C1.858 7.791 1 9.065 1 10.499v5.5c0 2.206 1.794 4 4 4v-3.5c0-1.379 1.121-2.5 2.5-2.5h3c0.276 0 0.5 0.224 0.5 0.5s-0.224 0.5-0.5 0.5h-3c-0.827 0-1.5 0.673-1.5 1.5v5c0 0.827 0.673 1.5 1.5 1.5h9c0.534 0 1.032-0.287 1.3-0.75 0.139-0.238 0.448-0.32 0.683-0.183 0.239 0.138 0.321 0.444 0.182 0.684z" />
</svg>