<svg id="print_Layer_1" viewBox="0 0 24 24" fill="currentColor" width="32" height="32" data-name="Layer 1" xmlns="http://www.w3.org/2000/svg" xmlns:xlink="http://www.w3.org/1999/xlink">
    <title>print</title>
    <path d="M19.5 6H19V2.5C19 1.122 17.879 0 16.5 0h-9C6.122 0 5 1.122 5 2.5V6H4.5C2.019 6 0 8.019 0 10.5v6C0 18.981 2.019 21 4.5 21H5v0.5C5 22.878 6.122 24 7.5 24h9c1.379 0 2.5-1.122 2.5-2.5V21h0.5c2.481 0 4.5-2.019 4.5-4.5v-6C24 8.019 21.981 6 19.5 6zM6 2.5C6 1.673 6.673 1 7.5 1h9C17.327 1 18 1.673 18 2.5V6H6zM18 21.5c0 0.827-0.673 1.5-1.5 1.5h-9C6.673 23 6 22.327 6 21.5v-5C6 15.673 6.673 15 7.5 15h9c0.827 0 1.5 0.673 1.5 1.5zM23 16.5c0 1.93-1.57 3.5-3.5 3.5H19v-3.5c0-1.378-1.121-2.5-2.5-2.5h-9C6.122 14 5 15.122 5 16.5V20H4.5C2.57 20 1 18.43 1 16.5v-6C1 8.57 2.57 7 4.5 7h15c1.93 0 3.5 1.57 3.5 3.5zM19 10.5c0 0.276-0.224 0.5-0.5 0.5h-3c-0.276 0-0.5-0.224-0.5-0.5s0.224-0.5 0.5-0.5h3c0.276 0 0.5 0.224 0.5 0.5z" />
</svg>