<svg id="print_magnifying_glass_Layer_1" viewBox="0 0 24 24" fill="currentColor" width="32" height="32" data-name="Layer 1" xmlns="http://www.w3.org/2000/svg" xmlns:xlink="http://www.w3.org/1999/xlink">
    <title>print-magnifying-glass</title>
    <path d="M20.87 20.16C21.58 19.3 22 18.2 22 17c0-2.76-2.24-5-5-5s-5 2.24-5 5 2.24 5 5 5c1.2 0 2.3-0.42 3.16-1.13l2.98 2.98c0.1 0.1 0.23 0.15 0.35 0.15s0.26-0.05 0.35-0.15c0.2-0.2 0.2-0.51 0-0.71zM17 21c-2.21 0-4-1.79-4-4s1.79-4 4-4 4 1.79 4 4-1.79 4-4 4zM19.5 6H19V3.5C19 1.57 17.43 0 15.5 0h-7C6.57 0 5 1.57 5 3.5V6H4.5C2.02 6 0 8.02 0 10.5v6C0 18.98 2.02 21 4.5 21H5v0.5C5 22.88 6.12 24 7.5 24h6c0.28 0 0.5-0.22 0.5-0.5S13.78 23 13.5 23h-6C6.67 23 6 22.33 6 21.5v-5C6 15.67 6.67 15 7.5 15h2c0.28 0 0.5-0.22 0.5-0.5S9.78 14 9.5 14h-2C6.12 14 5 15.12 5 16.5V20H4.5C2.57 20 1 18.43 1 16.5v-6C1 8.57 2.57 7 4.5 7h15c1.93 0 3.5 1.57 3.5 3.5v2c0 0.28 0.22 0.5 0.5 0.5s0.5-0.22 0.5-0.5v-2C24 8.02 21.98 6 19.5 6zM6 3.5C6 2.12 7.12 1 8.5 1h7C16.88 1 18 2.12 18 3.5V6H6z" />
</svg>