<svg id="privacy_settings_Layer_1" viewBox="0 0 24 24" fill="currentColor" width="32" height="32" data-name="Layer 1" xmlns="http://www.w3.org/2000/svg" xmlns:xlink="http://www.w3.org/1999/xlink">
    <title>privacy-settings</title>
    <path d="M12.263 22.634c0.12 0.25 0.015 0.549-0.234 0.668-0.431 0.207-0.676 0.304-0.96 0.429-0.156 0.069-0.531 0.268-0.761 0.268s-0.512-0.196-0.65-0.266c-2.191-1.116-9.375-5.2-9.375-11.825l2e-3-5.357c0-1.948 1.242-3.667 3.091-4.281l6.774-2.245c0.102-0.033 0.213-0.033 0.315 0l6.774 2.245c1.849 0.614 3.091 2.333 3.091 4.281v2.917c0 0.277-0.225 0.501-0.502 0.501s-0.501-0.224-0.501-0.501V6.551c0-1.514-0.965-2.853-2.403-3.33l-6.616-2.193-6.616 2.193c-1.438 0.477-2.404 1.815-2.404 3.33l-2e-3 5.357c0 6.05 6.751 9.895 8.82 10.929l0.224 0.113 0.232-0.094c0.272-0.11 0.624-0.26 1.032-0.456 0.251-0.12 0.549-0.015 0.669 0.234zM20.33 17.987c0 1.105-0.899 2.004-2.004 2.004s-2.004-0.899-2.004-2.004 0.899-2.004 2.004-2.004 2.004 0.899 2.004 2.004zM19.327 17.987c0-0.553-0.449-1.002-1.002-1.002s-1.002 0.449-1.002 1.002 0.449 1.002 1.002 1.002 1.002-0.449 1.002-1.002zM23.668 19.894c0.101 0.39 0.044 0.794-0.16 1.14-0.203 0.345-0.528 0.592-0.917 0.693-0.39 0.103-0.794 0.045-1.141-0.16l-0.223-0.131c-0.408 0.341-0.883 0.608-1.399 0.788v0.272c0 0.829-0.674 1.503-1.503 1.503s-1.503-0.674-1.503-1.503v-0.272c-0.516-0.18-0.99-0.447-1.399-0.788L15.2 21.567c-0.69 0.426-1.663 0.172-2.059-0.534-0.424-0.687-0.17-1.662 0.534-2.057l0.234-0.138c-0.064-0.299-0.094-0.576-0.094-0.851s0.03-0.552 0.095-0.852l-0.235-0.138c-0.705-0.394-0.958-1.37-0.533-2.057 0.395-0.706 1.368-0.958 2.058-0.533l0.223 0.131c0.408-0.341 0.883-0.608 1.399-0.788v-0.272c0-0.829 0.674-1.503 1.503-1.503s1.503 0.674 1.503 1.503v0.272c0.516 0.18 0.99 0.447 1.399 0.788l0.223-0.131c0.689-0.425 1.663-0.172 2.059 0.534 0.423 0.687 0.171 1.663-0.535 2.057l-0.234 0.137c0.065 0.3 0.095 0.577 0.095 0.852s-0.03 0.552-0.094 0.851l0.233 0.137c0.346 0.205 0.593 0.53 0.694 0.919zM21.909 16.461l0.557-0.328c0.236-0.132 0.32-0.456 0.179-0.685-0.131-0.237-0.457-0.32-0.686-0.179l-0.541 0.319c-0.198 0.116-0.449 0.085-0.609-0.077-0.432-0.433-0.987-0.745-1.607-0.905-0.221-0.058-0.376-0.257-0.376-0.485v-0.643c0-0.276-0.225-0.501-0.501-0.501s-0.501 0.225-0.501 0.501v0.643c0 0.228-0.155 0.428-0.376 0.485-0.62 0.161-1.175 0.473-1.607 0.905-0.161 0.163-0.411 0.195-0.609 0.077l-0.541-0.319c-0.228-0.143-0.555-0.057-0.685 0.178-0.142 0.229-0.058 0.554 0.177 0.685l0.558 0.329c0.197 0.115 0.29 0.349 0.227 0.569-0.103 0.362-0.151 0.666-0.151 0.957s0.048 0.595 0.151 0.957c0.063 0.219-0.031 0.453-0.228 0.57l-0.557 0.327c-0.235 0.13-0.319 0.457-0.178 0.685 0.13 0.236 0.46 0.322 0.686 0.179l0.541-0.319c0.195-0.116 0.447-0.085 0.609 0.077 0.432 0.433 0.987 0.745 1.607 0.905 0.221 0.058 0.376 0.257 0.376 0.485v0.643c0 0.276 0.225 0.501 0.501 0.501s0.501-0.225 0.501-0.501v-0.643c0-0.228 0.155-0.428 0.376-0.485 0.62-0.161 1.175-0.473 1.607-0.905 0.161-0.161 0.413-0.193 0.609-0.077l0.541 0.319c0.227 0.14 0.555 0.058 0.685-0.178 0.142-0.23 0.058-0.555-0.178-0.687l-0.556-0.326c-0.197-0.116-0.291-0.35-0.228-0.57 0.103-0.362 0.151-0.666 0.151-0.957s-0.048-0.595-0.151-0.957c-0.063-0.219 0.03-0.453 0.227-0.569zM9.306 12.976c0 0.553 0.449 1.002 1.002 1.002s1.002-0.449 1.002-1.002-0.449-1.002-1.002-1.002-1.002 0.449-1.002 1.002zM12.312 9.969H8.303c-1.105 0-2.004 0.899-2.004 2.004v2.004c0 1.105 0.899 2.004 2.004 2.004h2.505c0.277 0 0.501 0.224 0.501 0.501s-0.224 0.501-0.501 0.501H8.303c-1.658 0-3.007-1.349-3.007-3.007v-2.004c0-1.305 0.84-2.407 2.004-2.822V7.963c0-1.658 1.349-3.007 3.007-3.007s3.007 1.349 3.007 3.007V9.15c1.164 0.415 2.004 1.517 2.004 2.822 0 0.277-0.224 0.501-0.501 0.501s-0.501-0.224-0.501-0.501c0-1.105-0.899-2.004-2.004-2.003zM12.312 8.967V7.965c0-1.105-0.899-2.004-2.004-2.004S8.304 6.86 8.304 7.965v1.002z" />
</svg>