<svg id="process_Layer_1" viewBox="0 0 24 24" fill="currentColor" width="32" height="32" data-name="Layer 1" xmlns="http://www.w3.org/2000/svg" xmlns:xlink="http://www.w3.org/1999/xlink">
    <title>process</title>
    <path d="M12 10c-1.103 0-2 0.897-2 2s0.897 2 2 2 2-0.897 2-2-0.897-2-2-2zM12 13c-0.551 0-1-0.449-1-1s0.449-1 1-1 1 0.449 1 1-0.449 1-1 1zM18.2 9.608c0.103-0.388 0.047-0.792-0.155-1.137-0.202-0.346-0.526-0.593-0.914-0.695-0.386-0.102-0.79-0.046-1.137 0.155l-0.642 0.374c-0.537-0.488-1.166-0.851-1.853-1.067V6.5c0-0.827-0.673-1.5-1.5-1.5s-1.5 0.673-1.5 1.5v0.738c-0.687 0.216-1.316 0.58-1.853 1.068L8.005 7.932C7.659 7.73 7.255 7.675 6.867 7.777 6.48 7.879 6.155 8.126 5.953 8.471 5.751 8.817 5.696 9.221 5.797 9.608s0.349 0.713 0.695 0.915L7.138 10.9c-0.094 0.385-0.14 0.748-0.14 1.101s0.046 0.715 0.14 1.1l-0.646 0.377c-0.346 0.202-0.593 0.527-0.695 0.915s-0.046 0.792 0.156 1.137c0.202 0.346 0.526 0.593 0.914 0.695 0.388 0.101 0.792 0.047 1.137-0.156l0.641-0.374c0.537 0.489 1.167 0.852 1.853 1.068v0.738c0 0.827 0.673 1.5 1.5 1.5s1.5-0.673 1.5-1.5v-0.738c0.687-0.216 1.316-0.579 1.853-1.068l0.641 0.374c0.348 0.202 0.752 0.257 1.138 0.156 0.388-0.102 0.712-0.349 0.914-0.695s0.258-0.75 0.155-1.137c-0.102-0.388-0.348-0.712-0.694-0.914l-0.646-0.377c0.094-0.384 0.14-0.747 0.14-1.1s-0.046-0.716-0.14-1.101l0.646-0.376c0.347-0.202 0.593-0.527 0.695-0.917zM17.233 9.354c-0.034 0.129-0.116 0.237-0.231 0.304l-0.979 0.571c-0.201 0.118-0.295 0.359-0.225 0.582C15.936 11.25 16 11.628 16 11.999s-0.064 0.749-0.202 1.187c-0.07 0.223 0.022 0.464 0.225 0.582l0.979 0.572c0.115 0.067 0.197 0.175 0.231 0.304s0.016 0.264-0.052 0.379c-0.067 0.115-0.176 0.198-0.305 0.231-0.127 0.035-0.262 0.017-0.379-0.052l-0.972-0.567c-0.198-0.117-0.457-0.081-0.616 0.09-0.55 0.586-1.249 0.989-2.021 1.165-0.228 0.052-0.389 0.254-0.389 0.487v1.12c0 0.276-0.224 0.5-0.5 0.5s-0.5-0.224-0.5-0.5v-1.12c0-0.233-0.161-0.436-0.389-0.487-0.773-0.176-1.472-0.579-2.021-1.165-0.097-0.104-0.23-0.158-0.365-0.158-0.086 0-0.173 0.022-0.252 0.068l-0.971 0.567c-0.114 0.067-0.25 0.086-0.379 0.052s-0.237-0.116-0.305-0.232c-0.067-0.115-0.086-0.25-0.052-0.378 0.034-0.129 0.116-0.238 0.231-0.305l0.979-0.572c0.202-0.118 0.295-0.359 0.225-0.582-0.138-0.439-0.202-0.817-0.202-1.188s0.064-0.748 0.202-1.188c0.07-0.223-0.023-0.464-0.225-0.581L6.996 9.657C6.881 9.59 6.798 9.481 6.765 9.352 6.731 9.223 6.749 9.089 6.817 8.973 6.884 8.858 6.993 8.775 7.122 8.742 7.25 8.707 7.386 8.726 7.501 8.793L8.472 9.36c0.201 0.117 0.457 0.081 0.617-0.089 0.549-0.586 1.249-0.989 2.021-1.165 0.228-0.052 0.389-0.254 0.389-0.487v-1.12c0-0.276 0.224-0.5 0.5-0.5s0.5 0.224 0.5 0.5v1.12c0 0.233 0.161 0.436 0.389 0.487 0.772 0.176 1.472 0.579 2.021 1.165 0.159 0.17 0.418 0.207 0.616 0.089l0.972-0.567c0.114-0.066 0.246-0.086 0.379-0.051 0.129 0.034 0.237 0.116 0.305 0.231 0.067 0.116 0.086 0.25 0.052 0.381zM24 12.521C23.725 18.958 18.453 24 12 24c-3.482 0-6.705-1.484-8.985-4.074C3.013 19.952 3 19.974 3 20v3.5C3 23.776 2.776 24 2.5 24S2 23.776 2 23.5V20c0-0.466 0.166-0.889 0.434-1.229 0.033-0.063 0.076-0.121 0.136-0.167 0 0 2e-3 0 3e-3-2e-3C2.936 18.231 3.441 18 4 18h3.5C7.776 18 8 18.224 8 18.5S7.776 19 7.5 19H4c-0.14 0-0.273 0.03-0.394 0.083C5.704 21.571 8.727 23 12 23c5.916 0 10.748-4.622 11-10.521 0.012-0.275 0.208-0.498 0.521-0.478 0.275 0.012 0.49 0.245 0.479 0.52zM1 11.521C0.989 11.79 0.767 12 0.501 12c-7e-3 0-0.015 0-0.022 0-0.276-0.012-0.49-0.245-0.478-0.521C0.276 5.042 5.546 0 12 0c3.482 0 6.705 1.484 8.985 4.074C20.987 4.048 21 4.026 21 4V0.5C21 0.224 21.224 0 21.5 0S22 0.224 22 0.5V4c0 0.466-0.167 0.889-0.434 1.229-0.033 0.063-0.076 0.121-0.136 0.167-1e-3 0-2e-3 0-3e-3 2e-3C21.064 5.768 20.559 6 20.001 6h-3.5c-0.276 0-0.5-0.224-0.5-0.5s0.224-0.5 0.5-0.5h3.5c0.14 0 0.273-0.03 0.395-0.082C18.299 2.43 15.275 1 12.001 1 6.084 1 1.252 5.622 1 11.521z" />
</svg>