<svg id="progress_complete_Layer_1" viewBox="0 0 24 24" fill="currentColor" width="32" height="32" data-name="Layer 1" xmlns="http://www.w3.org/2000/svg" xmlns:xlink="http://www.w3.org/1999/xlink">
    <title>progress-complete</title>
    <path d="M0.899 7.434C1.298 6.465 1.824 5.552 2.46 4.719 2.629 4.498 2.942 4.458 3.161 4.625c0.22 0.168 0.261 0.481 0.094 0.701C2.671 6.089 2.19 6.927 1.823 7.814c-0.079 0.193-0.266 0.31-0.462 0.31-0.063 0-0.128-0.012-0.19-0.038-0.256-0.104-0.377-0.397-0.272-0.652zM1.095 13.459C1.031 12.978 0.998 12.487 0.999 12c0-0.47 0.03-0.944 0.09-1.411 0.035-0.274-0.159-0.524-0.433-0.56-0.271-0.04-0.524 0.159-0.56 0.433-0.064 0.509-0.098 1.026-0.098 1.537 0 0.53 0.034 1.066 0.104 1.593 0.034 0.251 0.249 0.434 0.495 0.434 0.022 0 0.045 0 0.067-4e-3 0.273-0.037 0.466-0.288 0.431-0.563zM10.501 1.097C10.522 1.097 11.522 1 12 1s1.478 0.097 1.499 0.097c0.247 0 0.462-0.184 0.495-0.436 0.035-0.274-0.158-0.524-0.432-0.561C13.045 0.034 12.519-1e-3 12-1e-3S10.954 0.033 10.437 0.1c-0.273 0.036-0.467 0.286-0.432 0.561 0.033 0.252 0.248 0.436 0.496 0.436zM16.209 1.834c0.887 0.368 1.724 0.852 2.485 1.437 0.091 0.069 0.198 0.104 0.305 0.104 0.149 0 0.298-0.067 0.396-0.195 0.168-0.219 0.127-0.533-0.092-0.701-0.831-0.639-1.744-1.166-2.712-1.567-0.253-0.106-0.547 0.015-0.653 0.271-0.105 0.255 0.016 0.548 0.271 0.651zM1.844 16.231c-0.106-0.256-0.401-0.371-0.654-0.27-0.255 0.106-0.375 0.399-0.27 0.654 0.402 0.965 0.932 1.875 1.573 2.707 0.098 0.127 0.246 0.194 0.396 0.194 0.107 0 0.215-0.034 0.306-0.104 0.219-0.168 0.259-0.482 0.09-0.701-0.588-0.762-1.072-1.597-1.441-2.48zM4.975 3.394c0.107 0 0.215-0.034 0.306-0.104 0.761-0.589 1.596-1.074 2.479-1.444 0.255-0.106 0.375-0.398 0.269-0.653-0.106-0.256-0.4-0.373-0.653-0.269C6.41 1.327 5.5 1.857 4.67 2.499 4.451 2.668 4.411 2.982 4.58 3.2 4.679 3.328 4.826 3.394 4.975 3.394zM7.806 22.173c-0.886-0.366-1.723-0.848-2.485-1.433-0.218-0.17-0.534-0.128-0.701 0.092-0.168 0.22-0.127 0.533 0.092 0.701 0.833 0.639 1.746 1.165 2.714 1.563 0.062 0.026 0.127 0.038 0.19 0.038 0.196 0 0.383-0.116 0.462-0.31 0.105-0.255-0.016-0.548-0.272-0.651zM22.823 15.932c-0.256-0.107-0.547 0.016-0.653 0.271-0.366 0.886-0.85 1.722-1.435 2.485-0.168 0.22-0.127 0.533 0.092 0.701 0.091 0.07 0.198 0.104 0.305 0.104 0.149 0 0.299-0.067 0.396-0.195 0.64-0.834 1.166-1.746 1.565-2.712 0.105-0.256-0.016-0.548-0.27-0.654zM23.338 9.996c-0.274 0.036-0.467 0.287-0.432 0.561C22.968 11.03 23 11.515 23.001 12c0 0.479-0.031 0.961-0.092 1.429-0.035 0.274 0.158 0.524 0.432 0.561 0.021 3e-3 0.044 4e-3 0.065 4e-3 0.247 0 0.462-0.184 0.495-0.436 0.066-0.511 0.1-1.035 0.1-1.559 0-0.528-0.035-1.058-0.103-1.571-0.036-0.274-0.292-0.471-0.56-0.432zM13.452 22.904c-0.95 0.126-1.926 0.127-2.872 5e-3-0.272-0.036-0.524 0.157-0.56 0.433-0.035 0.273 0.158 0.524 0.433 0.56 0.51 0.065 1.03 0.099 1.548 0.099 0.527 0 1.06-0.035 1.582-0.104 0.273-0.036 0.467-0.288 0.431-0.562-0.037-0.274-0.296-0.466-0.562-0.431zM18.706 20.72c-0.763 0.588-1.598 1.071-2.481 1.438-0.256 0.106-0.376 0.398-0.271 0.653 0.08 0.192 0.266 0.309 0.462 0.309 0.064 0 0.129-0.012 0.191-0.038 0.965-0.4 1.876-0.929 2.708-1.569 0.219-0.169 0.26-0.482 0.092-0.701-0.169-0.22-0.483-0.259-0.701-0.092zM13.473 15.002 23.85 4.857c0.197-0.193 0.201-0.51 8e-3-0.707-0.191-0.197-0.509-0.199-0.707-8e-3L12.772 14.288c-0.979 0.955-2.513 0.958-3.5-5e-3l-4.431-4.148c-0.202-0.188-0.519-0.18-0.707 0.023-0.188 0.201-0.178 0.518 0.023 0.707l4.424 4.142c0.685 0.668 1.563 1.002 2.442 1.002s1.762-0.336 2.45-1.007z" />
</svg>