<svg id="progress_upload_Layer_1" viewBox="0 0 24 24" fill="currentColor" width="32" height="32" data-name="Layer 1" xmlns="http://www.w3.org/2000/svg" xmlns:xlink="http://www.w3.org/1999/xlink">
    <title>progress-upload</title>
    <path d="M24 12c0 6.617-5.383 12-12 12-1.168 0-2.322-0.167-3.429-0.497-0.265-0.079-0.415-0.357-0.336-0.622 0.079-0.266 0.355-0.414 0.622-0.337C9.871 22.847 10.928 23 12 23c6.065 0 11-4.935 11-11S18.065 1 12 1c-1.072 0-2.129 0.153-3.143 0.456-0.266 0.075-0.544-0.071-0.622-0.337-0.079-0.265 0.071-0.543 0.336-0.622C9.677 0.167 10.831 0 12 0c6.617 0 12 5.383 12 12zM11.502 7.154 11.5 17.5c0 0.276 0.224 0.5 0.5 0.5s0.5-0.224 0.5-0.5l2e-3-10.347c0.07 0.042 0.144 0.077 0.202 0.135l3.436 3.56C16.238 10.95 16.369 11 16.5 11c0.125 0 0.25-0.047 0.347-0.141 0.199-0.191 0.205-0.508 0.013-0.707l-3.441-3.565C13.041 6.209 12.539 6 12.003 6v0c-0.535 0-1.037 0.208-1.421 0.592l-3.441 3.561c-0.192 0.199-0.187 0.516 0.012 0.707 0.2 0.192 0.516 0.188 0.707-0.012l3.435-3.555c0.061-0.06 0.136-0.097 0.207-0.139zM5.464 1.935C4.504 2.56 3.638 3.318 2.892 4.188 2.712 4.397 2.736 4.712 2.946 4.893c0.094 0.08 0.21 0.12 0.326 0.12 0.141 0 0.281-0.06 0.379-0.175 0.684-0.797 1.478-1.492 2.359-2.065 0.231-0.15 0.297-0.46 0.146-0.691-0.15-0.232-0.46-0.298-0.692-0.147zM1.733 6.789c-0.254-0.114-0.548-3e-3-0.662 0.248-0.472 1.038-0.792 2.137-0.952 3.265-0.039 0.273 0.151 0.526 0.425 0.565 0.024 3e-3 0.047 5e-3 0.071 5e-3 0.245 0 0.459-0.181 0.495-0.43 0.146-1.034 0.44-2.04 0.872-2.991 0.114-0.252 3e-3-0.548-0.249-0.662zM1.109 13.558C1.07 13.286 0.82 13.1 0.544 13.133c-0.273 0.039-0.464 0.292-0.425 0.565 0.16 1.128 0.48 2.226 0.952 3.265 0.083 0.185 0.265 0.293 0.456 0.293 0.069 0 0.139-0.015 0.207-0.045 0.251-0.114 0.362-0.41 0.248-0.662-0.433-0.951-0.726-1.958-0.873-2.991zM6.009 21.228c-0.875-0.569-1.665-1.26-2.35-2.055-0.182-0.212-0.498-0.232-0.705-0.053-0.209 0.181-0.233 0.496-0.053 0.705 0.747 0.866 1.609 1.62 2.562 2.24 0.084 0.055 0.179 0.081 0.272 0.081 0.164 0 0.324-0.08 0.419-0.228 0.151-0.231 0.085-0.541-0.145-0.69z" />
</svg>