<svg id="progress_download_Layer_1" viewBox="0 0 24 24" fill="currentColor" width="32" height="32" data-name="Layer 1" xmlns="http://www.w3.org/2000/svg" xmlns:xlink="http://www.w3.org/1999/xlink">
    <title>progress-download</title>
    <path d="M24 12c0 6.617-5.383 12-12 12-1.166 0-2.319-0.167-3.428-0.497-0.265-0.079-0.416-0.357-0.337-0.622 0.08-0.264 0.354-0.414 0.622-0.337C9.873 22.846 10.93 23 12 23c6.065 0 11-4.935 11-11S18.065 1 12 1c-1.07 0-2.127 0.153-3.143 0.456-0.265 0.078-0.542-0.073-0.622-0.337-0.079-0.265 0.072-0.543 0.337-0.622C9.681 0.167 10.834 0 12 0c6.617 0 12 5.383 12 12zM12.002 18v0c0.535 0 1.037-0.208 1.421-0.593l3.436-3.56c0.192-0.199 0.187-0.515-0.012-0.707-0.199-0.191-0.516-0.186-0.707 0.013l-3.43 3.554c-0.06 0.06-0.136 0.093-0.208 0.134L12.5 6.5C12.5 6.224 12.276 6 12 6s-0.5 0.224-0.5 0.5l2e-3 10.342c-0.07-0.04-0.144-0.072-0.202-0.13l-3.441-3.56c-0.191-0.199-0.508-0.204-0.707-0.012-0.198 0.192-0.204 0.508-0.012 0.707l3.447 3.566c0.378 0.378 0.88 0.586 1.415 0.587zM6.009 21.228c-0.88-0.573-1.673-1.268-2.359-2.065-0.18-0.209-0.496-0.233-0.705-0.054-0.209 0.18-0.233 0.496-0.054 0.705 0.748 0.87 1.613 1.628 2.572 2.252 0.084 0.055 0.179 0.081 0.272 0.081 0.164 0 0.324-0.08 0.419-0.227 0.151-0.231 0.085-0.542-0.145-0.692zM1.109 13.558c-0.039-0.273-0.292-0.462-0.565-0.425-0.273 0.039-0.464 0.292-0.425 0.565 0.16 1.128 0.48 2.227 0.952 3.266 0.083 0.184 0.265 0.293 0.456 0.293 0.069 0 0.139-0.014 0.207-0.045 0.251-0.114 0.362-0.411 0.248-0.662-0.433-0.951-0.726-1.958-0.873-2.992zM1.733 6.789c-0.254-0.117-0.548-2e-3-0.662 0.248-0.472 1.039-0.792 2.137-0.952 3.266-0.039 0.273 0.152 0.526 0.425 0.565 0.023 3e-3 0.047 5e-3 0.07 5e-3 0.245 0 0.459-0.18 0.495-0.43 0.146-1.033 0.439-2.04 0.872-2.991 0.114-0.251 3e-3-0.548-0.248-0.663zM3.28 5.001c0.14 0 0.28-0.059 0.379-0.174 0.685-0.794 1.475-1.486 2.35-2.055 0.231-0.15 0.297-0.46 0.146-0.691-0.15-0.231-0.46-0.298-0.691-0.146-0.954 0.62-1.816 1.374-2.562 2.24C2.722 4.384 2.745 4.7 2.955 4.88 3.049 4.961 3.165 5.001 3.28 5.001z" />
</svg>