<svg id="projector_Layer_1" viewBox="0 0 24 24" fill="currentColor" width="32" height="32" data-name="Layer 1" xmlns="http://www.w3.org/2000/svg" xmlns:xlink="http://www.w3.org/1999/xlink">
    <title>projector</title>
    <path d="M19.795 10.01C19.144 7.699 17.016 6 14.5 6s-4.637 1.694-5.292 4H4.5C2.019 10 0 12.019 0 14.5v3c0 1.956 1.254 3.624 3 4.243V23.5C3 23.776 3.224 24 3.5 24S4 23.776 4 23.5v-1.528C4.164 21.99 4.331 22 4.5 22h15c0.169 0 0.336-0.01 0.5-0.028V23.5c0 0.276 0.224 0.5 0.5 0.5s0.5-0.224 0.5-0.5v-1.757c1.746-0.619 3-2.287 3-4.243v-3c0-2.382-1.861-4.338-4.205-4.49zM14.5 7c2.481 0 4.5 2.019 4.5 4.5S16.981 16 14.5 16 10 13.981 10 11.5 12.019 7 14.5 7zM23 17.5c0 1.93-1.57 3.5-3.5 3.5h-15C2.57 21 1 19.43 1 17.5v-3C1 12.57 2.57 11 4.5 11h4.523C9.008 11.165 9 11.331 9 11.5c0 3.032 2.467 5.5 5.5 5.5s5.5-2.468 5.5-5.5c0-0.157-7e-3-0.313-0.02-0.467 1.703 0.235 3.02 1.7 3.02 3.467zM5 14c0 0.552-0.448 1-1 1s-1-0.448-1-1 0.448-1 1-1 1 0.448 1 1zM14 3.5v-3C14 0.224 14.224 0 14.5 0S15 0.224 15 0.5v3C15 3.776 14.776 4 14.5 4S14 3.776 14 3.5zM18.313 3.933l1.796-2.245c0.173-0.215 0.488-0.248 0.703-0.078 0.216 0.173 0.25 0.487 0.078 0.703l-1.796 2.245c-0.099 0.123-0.244 0.188-0.391 0.188-0.109 0-0.22-0.036-0.312-0.109-0.216-0.173-0.25-0.487-0.078-0.704zM8.109 2.313C7.937 2.097 7.972 1.783 8.187 1.61 8.404 1.438 8.717 1.474 8.89 1.688l1.793 2.242c0.172 0.216 0.137 0.53-0.078 0.703-0.092 0.073-0.203 0.109-0.312 0.109-0.147 0-0.292-0.064-0.391-0.188z" />
</svg>