<svg id="protractor_Layer_1" viewBox="0 0 24 24" fill="currentColor" width="32" height="32" data-name="Layer 1" xmlns="http://www.w3.org/2000/svg" xmlns:xlink="http://www.w3.org/1999/xlink">
    <title>protractor</title>
    <path d="M18.3 5.163C16.415 3.153 13.756 2 11.002 2H9.95C9.718 0.86 8.708 0 7.5 0h-2C4.122 0 3 1.122 3 2.5v19C3 22.878 4.122 24 5.5 24h2c1.208 0 2.217-0.86 2.45-2h0.727c5.439 0 9.965-4.101 10.304-9.335 0.182-2.8-0.771-5.464-2.681-7.502zM19.983 12.601c-0.305 4.71-4.393 8.4-9.306 8.4H9.501c-0.276 0-0.5 0.224-0.5 0.5 0 0.827-0.673 1.5-1.5 1.5h-2c-0.827 0-1.5-0.673-1.5-1.5v-1.5h1.5c0.276 0 0.5-0.224 0.5-0.5s-0.224-0.5-0.5-0.5h-1.5v-2h1.5c0.276 0 0.5-0.224 0.5-0.5s-0.224-0.5-0.5-0.5h-1.5v-2h1.5c0.276 0 0.5-0.224 0.5-0.5s-0.224-0.5-0.5-0.5h-1.5v-2h1.5c0.276 0 0.5-0.224 0.5-0.5s-0.224-0.5-0.5-0.5h-1.5v-2h1.5c0.276 0 0.5-0.224 0.5-0.5s-0.224-0.5-0.5-0.5h-1.5v-2h1.5c0.276 0 0.5-0.224 0.5-0.5s-0.224-0.5-0.5-0.5h-1.5v-1.5c0-0.827 0.673-1.5 1.5-1.5h2c0.827 0 1.5 0.673 1.5 1.5 0 0.276 0.224 0.5 0.5 0.5h1.501c2.515 0 4.848 1.011 6.569 2.847 1.719 1.834 2.575 4.232 2.412 6.753zM11.232 7.001h-0.731c-0.827 0-1.5 0.673-1.5 1.5v2c0 0.276 0.224 0.5 0.5 0.5h0.5c0.551 0 1 0.449 1 1s-0.449 1-1 1h-0.5c-0.276 0-0.5 0.224-0.5 0.5v2c0 0.827 0.673 1.5 1.5 1.5h0.538c2.658 0 4.928-1.981 5.17-4.511 0.136-1.429-0.317-2.797-1.276-3.852-0.946-1.041-2.295-1.637-3.701-1.637zM11.039 16.001h-0.538c-0.276 0-0.5-0.224-0.5-0.5v-1.5c1.103 0 2-0.897 2-2s-0.897-2-2-2v-1.5c0-0.276 0.224-0.5 0.5-0.5h0.731c1.125 0 2.204 0.478 2.96 1.31 0.768 0.844 1.13 1.939 1.021 3.084-0.193 2.021-2.026 3.605-4.174 3.606z" />
</svg>