<svg id="psychology_Layer_1" viewBox="0 0 24 24" fill="currentColor" width="32" height="32" data-name="Layer 1" xmlns="http://www.w3.org/2000/svg" xmlns:xlink="http://www.w3.org/1999/xlink">
    <title>psychology</title>
    <path d="M22.953 15.791c-0.278 0.598-0.613 1.168-0.996 1.696-0.626 0.863-0.958 1.808-0.958 2.733v1.28c0 1.472-1.028 2.5-2.5 2.5H10.5C9.122 24 8 22.878 8 21.5V21H7.013c-2.112 0-3.964-1.5-4.402-3.566L2.095 15H1.546c-1.134 0-1.545-0.87-1.545-1.455 0-1.282 2.851-7.445 4.237-9.159 2.176-2.907 5.657-4.544 9.286-4.373C13.8 0.026 14.013 0.261 14 0.536c-0.013 0.276-0.243 0.501-0.523 0.476-3.306-0.162-6.461 1.333-8.45 3.989C3.607 6.756 1 12.68 1 13.545 1.007 13.748 1.107 14 1.545 14h0.957c0.236 0 0.438 0.165 0.487 0.396l0.6 2.83c0.341 1.607 1.781 2.773 3.424 2.773H8.5c0.276 0 0.5 0.224 0.5 0.5v1c0 0.827 0.673 1.5 1.5 1.5h8c0.692 0 1.5-0.393 1.5-1.5v-1.28c0-1.137 0.397-2.285 1.148-3.32 0.345-0.476 0.647-0.99 0.899-1.53 0.116-0.25 0.413-0.358 0.664-0.242 0.25 0.116 0.359 0.414 0.242 0.664zM21.707 10l2.146-2.146c0.195-0.195 0.195-0.512 0-0.707s-0.512-0.195-0.707 0L21 9.293 18.854 7.147c-0.195-0.195-0.512-0.195-0.707 0s-0.195 0.512 0 0.707L20.293 10l-2.146 2.146c-0.195 0.195-0.195 0.512 0 0.707s0.512 0.195 0.707 0L21 10.707l2.146 2.146c0.195 0.195 0.512 0.195 0.707 0s0.195-0.512 0-0.707zM13.5 11c-0.552 0-1 0.448-1 1s0.448 1 1 1 1-0.448 1-1-0.448-1-1-1zM11 6.5C11 6.776 11.224 7 11.5 7S12 6.776 12 6.5C12 5.673 12.673 5 13.5 5S15 5.673 15 6.5c0 0.541-0.292 1.042-0.764 1.307-0.578 0.327-1.002 0.901-1.164 1.577-0.078 0.309 0.169 0.62 0.487 0.616 0.226 0 0.431-0.154 0.486-0.384 0.097-0.406 0.346-0.748 0.682-0.938 0.785-0.442 1.272-1.277 1.272-2.178 0-1.378-1.122-2.5-2.5-2.5S10.999 5.122 11 6.5zM17.03 4.283C17.492 4.745 18.107 5 18.761 5s1.269-0.255 1.731-0.717l2.895-2.895c0.195-0.195 0.195-0.512 0-0.707s-0.512-0.195-0.707 0l-2.895 2.895c-0.548 0.549-1.502 0.548-2.049 0L16.33 2.17c-0.195-0.195-0.512-0.195-0.707 0s-0.195 0.512 0 0.707z" />
</svg>