<svg id="pumpkin_alt_2_Layer_1" viewBox="0 0 24 24" fill="currentColor" width="32" height="32" data-name="Layer 1" xmlns="http://www.w3.org/2000/svg" xmlns:xlink="http://www.w3.org/1999/xlink">
    <title>pumpkin-alt-2</title>
    <path d="M17.476 6c-0.832 0-1.567 0.301-2.184 0.893-0.194 0.186-0.511 0.137-0.724-8e-3-0.682-0.464-1.37-0.742-2.058-0.834C12.725 1.142 16.461 1 16.5 1 17.192 1 18 1.322 18 2.23c0 0.245-0.203 0.664-0.637 0.789-0.266 0.075-0.419 0.353-0.344 0.618 0.077 0.267 0.355 0.423 0.618 0.343C18.522 3.727 19 2.89 19 2.23 19 0.917 17.972 0 16.5 0c-0.983 0-3.348 0.687-4.435 3.329-0.445-1.445-1.223-2.56-2.294-3.25C9.539-0.069 9.229-3e-3 9.08 0.229S8.997 0.771 9.23 0.92c1.38 0.888 2.176 2.7 2.262 5.13-0.689 0.092-1.376 0.369-2.059 0.833-0.214 0.146-0.531 0.193-0.724 0.01C8.091 6.3 7.356 5.999 6.524 5.999 3.569 6 0 10.015 0 15s3.569 9 6.524 9c0.806 0 1.521-0.282 2.126-0.838 0.244-0.227 0.608-0.16 0.842-6e-3 1.664 1.104 3.352 1.104 5.015 0 0.234-0.154 0.597-0.22 0.842 5e-3C15.954 23.718 16.67 24 17.476 24 20.431 24 24 19.985 24 15s-3.569-9-6.524-9zM17.476 23c-0.555 0-1.029-0.188-1.451-0.576-0.295-0.271-0.678-0.407-1.073-0.407-0.339 0-0.688 0.102-0.997 0.306-1.336 0.887-2.574 0.887-3.911 0-0.669-0.444-1.521-0.4-2.07 0.103-0.421 0.387-0.896 0.575-1.45 0.575-2.486 0-5.524-3.691-5.524-8S4.038 7 6.524 7c0.573 0 1.061 0.201 1.493 0.615 0.519 0.496 1.332 0.537 1.978 0.096 1.368-0.93 2.642-0.931 4.011 0 0.646 0.439 1.46 0.399 1.978-0.098 0.431-0.413 0.919-0.614 1.492-0.614 2.486 0 5.524 3.691 5.524 8s-3.038 8-5.524 8.001z" />
</svg>