<svg id="pump_Layer_1" viewBox="0 0 24 24" fill="currentColor" width="32" height="32" data-name="Layer 1" xmlns="http://www.w3.org/2000/svg" xmlns:xlink="http://www.w3.org/1999/xlink">
    <title>pump</title>
    <path d="M20.5 7h-6c-0.98 0-1.864 0.407-2.5 1.058V1h1.5C13.776 1 14 0.776 14 0.5S13.776 0 13.5 0h-9C4.224 0 4 0.224 4 0.5S4.224 1 4.5 1H6v12H1v-1.5C1 11.224 0.776 11 0.5 11S0 11.224 0 11.5v9C0 20.776 0.224 21 0.5 21S1 20.776 1 20.5V19h10v1.5c0 1.93 1.57 3.5 3.5 3.5h6c1.93 0 3.5-1.57 3.5-3.5v-10C24 8.57 22.43 7 20.5 7zM1 14h5v4H1zM7 18V1h4v17zM20.5 23h-6c-1.378 0-2.5-1.121-2.5-2.5v-10C12 9.121 13.122 8 14.5 8h6c1.378 0 2.5 1.121 2.5 2.5V11h-8.5c-0.276 0-0.5 0.224-0.5 0.5s0.224 0.5 0.5 0.5H23v3h-8.5c-0.276 0-0.5 0.224-0.5 0.5s0.224 0.5 0.5 0.5H23v3h-8.5c-0.276 0-0.5 0.224-0.5 0.5s0.224 0.5 0.5 0.5H23v0.5c0 1.379-1.122 2.5-2.5 2.5z" />
</svg>