<svg id="punching_bag_Layer_1" viewBox="0 0 24 24" fill="currentColor" width="32" height="32" data-name="Layer 1" xmlns="http://www.w3.org/2000/svg" xmlns:xlink="http://www.w3.org/1999/xlink">
    <title>punching-bag</title>
    <path d="M17.98 7.683C17.963 7.659 12.5 2.14 12.5 2.14V0.5C12.5 0.224 12.276 0 12 0s-0.5 0.224-0.5 0.5v1.639c0 0-5.522 5.553-5.546 5.623C5.365 8.523 5 9.465 5 10.5v9C5 21.981 7.019 24 9.5 24h5c2.481 0 4.5-2.019 4.5-4.5v-9c0-1.072-0.392-2.044-1.02-2.817zM11.999 3.054l2.973 2.994C14.815 6.031 14.662 6 14.501 6h-5c-0.17 0-0.332 0.032-0.498 0.05zM18 19.5c0 1.93-1.57 3.5-3.5 3.5h-5C7.57 23 6 21.43 6 19.5V12h9.5c0.276 0 0.5-0.224 0.5-0.5S15.776 11 15.5 11H6v-0.5C6 8.57 7.57 7 9.5 7h5c1.905 5e-3 3.494 1.596 3.5 3.5z" />
</svg>