<svg id="puzzle_piece_integration_Layer_1" viewBox="0 0 24 24" fill="currentColor" width="32" height="32" data-name="Layer 1" xmlns="http://www.w3.org/2000/svg" xmlns:xlink="http://www.w3.org/1999/xlink">
    <title>puzzle-piece-integration</title>
    <path d="M12.075 12.644c0.197 0.193 0.2 0.51 7e-3 0.707-0.195 0.196-0.51 0.198-0.707 6e-3-0.234-0.229-0.545-0.356-0.875-0.356-0.689 0-1.25 0.561-1.25 1.25 0 0.122 0.044 0.563 0.338 2.159 0.027 0.146-0.012 0.297-0.107 0.411-0.095 0.113-0.236 0.18-0.384 0.18H7.501c-1.93 0-3.5-1.57-3.5-3.5v-0.998c-1.238 0.22-1.593 0.248-1.75 0.248-1.241 0-2.25-1.01-2.25-2.25s1.009-2.25 2.25-2.25c0.157 0 0.512 0.028 1.75 0.248V7.501c0-1.93 1.57-3.5 3.5-3.5h0.998C8.28 2.762 8.251 2.407 8.251 2.251c0-1.24 1.009-2.25 2.25-2.25s2.25 1.01 2.25 2.25c0 0.156-0.028 0.511-0.248 1.75h0.998c1.93 0 3.5 1.57 3.5 3.5v3c0 0.276-0.224 0.5-0.5 0.5s-0.5-0.224-0.5-0.5v-3c0-1.379-1.122-2.5-2.5-2.5h-1.596c-0.148 0-0.289-0.066-0.384-0.18s-0.134-0.265-0.107-0.411c0.294-1.596 0.338-2.037 0.338-2.159 0-0.689-0.561-1.25-1.25-1.25s-1.25 0.561-1.25 1.25c0 0.122 0.044 0.563 0.338 2.159 0.027 0.146-0.012 0.297-0.107 0.411-0.095 0.113-0.236 0.18-0.384 0.18H7.503c-1.378 0-2.5 1.121-2.5 2.5v1.597c0 0.148-0.066 0.289-0.18 0.385-0.114 0.095-0.264 0.134-0.411 0.106-1.653-0.305-2.061-0.338-2.159-0.338-0.689 0-1.25 0.561-1.25 1.25s0.561 1.25 1.25 1.25c0.099 0 0.506-0.033 2.159-0.338 0.148-0.027 0.297 0.012 0.411 0.106 0.114 0.096 0.18 0.236 0.18 0.385v1.597c0 1.379 1.122 2.5 2.5 2.5h0.998c-0.219-1.239-0.248-1.594-0.248-1.75 0-1.24 1.009-2.25 2.25-2.25 0.593 0 1.152 0.229 1.572 0.643zM20 18c0 1.103-0.897 2-2 2s-2-0.897-2-2 0.897-2 2-2 2 0.897 2 2zM19 18c0-0.552-0.449-1-1-1s-1 0.448-1 1 0.449 1 1 1 1-0.448 1-1zM23.332 19.903c0.101 0.389 0.044 0.792-0.16 1.138-0.203 0.345-0.528 0.591-0.916 0.691-0.387 0.104-0.792 0.045-1.137-0.159l-0.223-0.131c-0.408 0.34-0.881 0.606-1.396 0.786v0.271c0 0.827-0.673 1.5-1.5 1.5s-1.5-0.673-1.5-1.5v-0.271c-0.515-0.18-0.988-0.446-1.396-0.786l-0.223 0.131c-0.345 0.204-0.749 0.263-1.137 0.159-0.388-0.101-0.713-0.347-0.917-0.692-0.203-0.345-0.26-0.748-0.159-1.137 0.101-0.388 0.346-0.713 0.691-0.916l0.234-0.138c-0.064-0.299-0.094-0.575-0.094-0.85s0.03-0.551 0.094-0.851l-0.234-0.138c-0.345-0.202-0.591-0.527-0.692-0.916-0.101-0.388-0.044-0.791 0.16-1.137 0.203-0.345 0.528-0.591 0.916-0.691 0.388-0.102 0.792-0.044 1.137 0.159l0.223 0.131c0.408-0.34 0.881-0.606 1.396-0.786v-0.271c0-0.827 0.673-1.5 1.5-1.5s1.5 0.673 1.5 1.5v0.271c0.515 0.18 0.988 0.446 1.396 0.786l0.223-0.131c0.345-0.203 0.75-0.261 1.137-0.159 0.388 0.101 0.713 0.347 0.917 0.692 0.203 0.345 0.26 0.748 0.159 1.136-0.101 0.389-0.347 0.714-0.692 0.917l-0.233 0.137c0.064 0.3 0.094 0.576 0.094 0.851s-0.03 0.551-0.094 0.85l0.233 0.137c0.346 0.204 0.592 0.529 0.693 0.917zM21.577 16.477l0.556-0.327c0.115-0.068 0.197-0.177 0.23-0.306 0.034-0.129 0.015-0.264-0.053-0.378-0.068-0.116-0.177-0.198-0.306-0.231-0.129-0.034-0.264-0.015-0.379 0.053l-0.541 0.318c-0.196 0.116-0.446 0.085-0.607-0.077-0.43-0.432-0.984-0.743-1.603-0.903-0.221-0.058-0.375-0.257-0.375-0.484V13.5c0-0.275-0.224-0.5-0.5-0.5s-0.5 0.225-0.5 0.5v0.642c0 0.228-0.154 0.427-0.375 0.484-0.619 0.16-1.173 0.472-1.603 0.903-0.161 0.162-0.412 0.193-0.607 0.077l-0.541-0.318c-0.116-0.067-0.248-0.086-0.379-0.053-0.129 0.033-0.237 0.115-0.305 0.23s-0.087 0.25-0.053 0.379c0.033 0.129 0.115 0.237 0.23 0.305l0.557 0.328c0.196 0.115 0.29 0.349 0.228 0.567-0.103 0.361-0.151 0.665-0.151 0.955s0.048 0.594 0.151 0.955c0.062 0.219-0.031 0.453-0.228 0.568l-0.556 0.326c-0.115 0.067-0.196 0.176-0.23 0.306-0.034 0.129-0.015 0.264 0.053 0.378 0.068 0.116 0.177 0.198 0.306 0.231 0.13 0.034 0.263 0.015 0.379-0.053l0.541-0.318c0.079-0.047 0.167-0.069 0.253-0.069 0.129 0 0.258 0.05 0.354 0.146 0.43 0.432 0.984 0.743 1.603 0.903 0.221 0.058 0.375 0.257 0.375 0.484v0.642c0 0.275 0.224 0.5 0.5 0.5s0.5-0.225 0.5-0.5v-0.642c0-0.228 0.154-0.427 0.375-0.484 0.619-0.16 1.173-0.472 1.603-0.903 0.161-0.162 0.412-0.194 0.607-0.077l0.541 0.318c0.116 0.068 0.25 0.087 0.379 0.053 0.129-0.033 0.237-0.115 0.305-0.23s0.087-0.25 0.053-0.379c-0.034-0.13-0.115-0.238-0.23-0.307l-0.556-0.325c-0.197-0.115-0.291-0.35-0.228-0.568 0.103-0.361 0.151-0.665 0.151-0.955s-0.048-0.594-0.151-0.955c-0.062-0.219 0.031-0.452 0.227-0.567z" />
</svg>