<svg id="puzzle_alt_Layer_1" viewBox="0 0 24 24" fill="currentColor" width="32" height="32" data-name="Layer 1" xmlns="http://www.w3.org/2000/svg" xmlns:xlink="http://www.w3.org/1999/xlink">
    <title>puzzle-alt</title>
    <path d="M20.5 0H16c-1.103 0-2 0.897-2 2v1.785c0 0.158 0.075 0.308 0.202 0.401 0.127 0.096 0.291 0.124 0.443 0.077 0.595-0.182 1.119-0.264 1.354-0.264 0.551 0 1 0.448 1 1s-0.449 1-1 1c-0.235 0-0.759-0.082-1.354-0.264-0.153-0.047-0.316-0.02-0.443 0.077C14.075 5.906 14 6.055 14 6.213v1.785c0 1.103 0.897 2 2 2h1.136c-0.086 0.389-0.136 0.744-0.136 1 0 1.103 0.897 2 2 2s2-0.897 2-2c0-0.256-0.05-0.611-0.136-1H22c1.103 0 2-0.897 2-2V3.5C24 1.57 22.43 0 20.5 0zM23 8c0 0.552-0.449 1-1 1h-1.785c-0.158 0-0.307 0.075-0.402 0.202-0.094 0.127-0.123 0.292-0.077 0.443 0.181 0.595 0.263 1.119 0.263 1.354 0 0.552-0.449 1-1 1s-1-0.448-1-1c0-0.235 0.083-0.76 0.263-1.354 0.046-0.151 0.018-0.316-0.077-0.443S17.941 9 17.783 9h-1.785c-0.551 0-1-0.448-1-1V6.863C15.387 6.95 15.743 7 15.998 7c1.103 0 2-0.897 2-2s-0.897-2-2-2c-0.255 0-0.611 0.05-1 0.137V2c0-0.552 0.449-1 1-1h4.5c1.378 0 2.5 1.121 2.5 2.5zM17 14h-1.785c-0.158 0-0.307 0.075-0.402 0.202-0.094 0.127-0.123 0.292-0.077 0.443 0.181 0.595 0.263 1.119 0.263 1.354 0 0.552-0.449 1-1 1s-1-0.448-1-1c0-0.235 0.083-0.76 0.263-1.354 0.046-0.151 0.018-0.316-0.077-0.443S12.941 14 12.783 14H9.998V7c0-1.103-0.897-2-2-2H3.5C1.57 5 0 6.57 0 8.5v12C0 22.43 1.57 24 3.5 24h12c1.93 0 3.5-1.57 3.5-3.5V16c0-1.103-0.897-2-2-2zM1 8.5C1 7.121 2.122 6 3.5 6H8c0.551 0 1 0.448 1 1v7H6.864C6.95 13.611 7 13.256 7 13c0-1.103-0.897-2-2-2s-2 0.897-2 2c0 0.256 0.05 0.611 0.136 1H1zM9 23H3.5C2.122 23 1 21.879 1 20.5V15h2.785c0.158 0 0.307-0.075 0.402-0.202 0.094-0.127 0.123-0.292 0.077-0.443-0.181-0.595-0.263-1.119-0.263-1.354 0-0.552 0.449-1 1-1s1 0.448 1 1c0 0.235-0.083 0.76-0.263 1.354-0.046 0.151-0.018 0.316 0.077 0.443S6.059 15 6.217 15h2.785v2.137C8.613 17.05 8.257 17 8.002 17c-1.103 0-2 0.897-2 2s0.897 2 2 2c0.255 0 0.611-0.05 1-0.137zM18 20.5c0 1.379-1.122 2.5-2.5 2.5H10v-2.785c0-0.158-0.075-0.308-0.202-0.401-0.127-0.096-0.292-0.123-0.443-0.077-0.595 0.182-1.119 0.264-1.354 0.264-0.551 0-1-0.448-1-1s0.449-1 1-1c0.235 0 0.759 0.082 1.354 0.264 0.151 0.045 0.315 0.018 0.443-0.077C9.925 18.094 10 17.945 10 17.787v-2.785h2.136c-0.086 0.389-0.136 0.744-0.136 1 0 1.103 0.897 2 2 2s2-0.897 2-2c0-0.256-0.05-0.611-0.136-1H17c0.551 0 1 0.448 1 1z" />
</svg>