<svg id="pyramid_Layer_1" viewBox="0 0 24 24" fill="currentColor" width="32" height="32" data-name="Layer 1" xmlns="http://www.w3.org/2000/svg" xmlns:xlink="http://www.w3.org/1999/xlink">
    <title>pyramid</title>
    <path d="M23.705 20.087 14.212 1.366C13.785 0.523 12.938 0 12 0s-1.786 0.523-2.212 1.365L0.295 20.087c-0.429 0.847-0.389 1.834 0.107 2.642C0.891 23.525 1.737 24 2.666 24h18.667c0.929 0 1.775-0.476 2.264-1.271 0.497-0.808 0.537-1.795 0.108-2.642zM22.746 22.205C22.44 22.703 21.913 23 21.334 23H2.667c-0.578 0-1.106-0.297-1.412-0.795-0.313-0.51-0.338-1.132-0.068-1.665l9.492-18.723C10.939 1.305 11.432 1 12 1s1.061 0.306 1.321 0.818l9.492 18.722c0.271 0.533 0.245 1.155-0.067 1.665z" />
</svg>