<svg id="q_Layer_1" viewBox="0 0 24 24" fill="currentColor" width="32" height="32" data-name="Layer 1" xmlns="http://www.w3.org/2000/svg" xmlns:xlink="http://www.w3.org/1999/xlink">
    <title>q</title>
    <path d="M22 9.909c-0.503-13.13-19.502-13.12-20 0v4.182c-0.118 8.518 10.566 13.086 16.718 7.334l2.429 2.429c0.452 0.466 1.173-0.255 0.707-0.707l-2.427-2.427c1.599-1.757 2.574-4.082 2.574-6.629zM21 14.091c0 2.271-0.863 4.346-2.281 5.921l-3.865-3.865c-0.452-0.466-1.172 0.255-0.707 0.707l3.863 3.863C12.463 25.845 2.894 21.725 3 14.091V9.909c0.453-11.805 17.551-11.796 18 0z" />
</svg>