<svg id="qr_scan_Layer_1" viewBox="0 0 24 24" fill="currentColor" width="32" height="32" data-name="Layer 1" xmlns="http://www.w3.org/2000/svg" xmlns:xlink="http://www.w3.org/1999/xlink">
    <title>qr-scan</title>
    <path d="M24.5 11.5c0 0.276-0.224 0.5-0.5 0.5H0c-0.276 0-0.5-0.224-0.5-0.5S-0.276 11 0 11h24c0.276 0 0.5 0.224 0.5 0.5zM0.5 7C0.776 7 1 6.776 1 6.5v-2C1 2.57 2.57 1 4.5 1h2C6.776 1 7 0.776 7 0.5S6.776 0 6.5 0h-2C2.019 0 0 2.019 0 4.5v2C0 6.776 0.224 7 0.5 7zM6.5 23h-2C2.57 23 1 21.43 1 19.5v-2C1 17.224 0.776 17 0.5 17S0 17.224 0 17.5v2C0 21.981 2.019 24 4.5 24h2C6.776 24 7 23.776 7 23.5S6.776 23 6.5 23zM23.5 17c-0.276 0-0.5 0.224-0.5 0.5v2c0 1.93-1.57 3.5-3.5 3.5h-2c-0.276 0-0.5 0.224-0.5 0.5s0.224 0.5 0.5 0.5h2c2.481 0 4.5-2.019 4.5-4.5v-2c0-0.276-0.224-0.5-0.5-0.5zM17.5 1h2C21.43 1 23 2.57 23 4.5v2C23 6.776 23.224 7 23.5 7S24 6.776 24 6.5v-2C24 2.019 21.981 0 19.5 0h-2C17.224 0 17 0.224 17 0.5S17.224 1 17.5 1z" />
</svg>