<svg id="qrcode_location_Layer_1" viewBox="0 0 24 24" fill="currentColor" width="32" height="32" data-name="Layer 1" xmlns="http://www.w3.org/2000/svg" xmlns:xlink="http://www.w3.org/1999/xlink">
    <title>qrcode-location</title>
    <path d="M18.985 10.472c0.146-2.548-0.81-5.044-2.621-6.847C14.664 1.932 12.404 1 9.999 1S5.335 1.932 3.635 3.625C1.935 5.317 1 7.566 1 9.958c0 2.393 0.936 4.643 2.635 6.334l3.862 3.731c0.804 0.778 1.903 1.135 3.015 0.98 0.271-0.04 0.526 0.152 0.564 0.426s-0.152 0.526-0.426 0.564c-0.218 0.03-0.435 0.045-0.651 0.045-1.189 0-2.328-0.456-3.198-1.297l-3.867-3.736C1.04 15.121 0 12.619 0 9.958c0-2.66 1.041-5.161 2.929-7.042C4.818 1.036 7.329 0 10 0s5.182 1.036 7.07 2.916c2.013 2.005 3.075 4.779 2.913 7.612-0.016 0.276-0.266 0.482-0.527 0.471-0.276-0.016-0.487-0.252-0.471-0.527zM20 22c-0.552 0-1 0.448-1 1s0.448 1 1 1 1-0.448 1-1-0.448-1-1-1zM23 19c-0.552 0-1 0.448-1 1s0.448 1 1 1 1-0.448 1-1-0.448-1-1-1zM20 19c-0.552 0-1 0.448-1 1s0.448 1 1 1 1-0.448 1-1-0.448-1-1-1zM18 14.5v2c0 0.827-0.673 1.5-1.5 1.5h-2c-0.827 0-1.5-0.673-1.5-1.5v-2c0-0.827 0.673-1.5 1.5-1.5h2c0.827 0 1.5 0.673 1.5 1.5zM17 14.5c0-0.276-0.224-0.5-0.5-0.5h-2c-0.276 0-0.5 0.224-0.5 0.5v2c0 0.276 0.224 0.5 0.5 0.5h2c0.276 0 0.5-0.224 0.5-0.5zM18 20.5v2c0 0.827-0.673 1.5-1.5 1.5h-2c-0.827 0-1.5-0.673-1.5-1.5v-2c0-0.827 0.673-1.5 1.5-1.5h2c0.827 0 1.5 0.673 1.5 1.5zM17 20.5c0-0.276-0.224-0.5-0.5-0.5h-2c-0.276 0-0.5 0.224-0.5 0.5v2c0 0.276 0.224 0.5 0.5 0.5h2c0.276 0 0.5-0.224 0.5-0.5zM24 14.5v2c0 0.827-0.673 1.5-1.5 1.5h-2c-0.827 0-1.5-0.673-1.5-1.5v-2c0-0.827 0.673-1.5 1.5-1.5h2c0.827 0 1.5 0.673 1.5 1.5zM23 14.5c0-0.276-0.224-0.5-0.5-0.5h-2c-0.276 0-0.5 0.224-0.5 0.5v2c0 0.276 0.224 0.5 0.5 0.5h2c0.276 0 0.5-0.224 0.5-0.5zM21.5 14.75c-0.414 0-0.75 0.336-0.75 0.75s0.336 0.75 0.75 0.75 0.75-0.336 0.75-0.75-0.336-0.75-0.75-0.75zM15.5 14.75c-0.414 0-0.75 0.336-0.75 0.75s0.336 0.75 0.75 0.75 0.75-0.336 0.75-0.75-0.336-0.75-0.75-0.75zM15.5 20.75c-0.414 0-0.75 0.336-0.75 0.75s0.336 0.75 0.75 0.75 0.75-0.336 0.75-0.75-0.336-0.75-0.75-0.75zM13.212 11.479c0.27 0.077 0.543-0.072 0.622-0.337 0.11-0.37 0.166-0.754 0.166-1.143 0-2.206-1.794-4-4-4s-4 1.794-4 4 1.794 4 4 4c0.388 0 0.772-0.056 1.143-0.166 0.265-0.079 0.416-0.357 0.337-0.622-0.079-0.264-0.356-0.415-0.622-0.337-0.277 0.083-0.566 0.125-0.857 0.125-1.654 0-3-1.346-3-3s1.346-3 3-3 3 1.346 3 3c0 0.292-0.042 0.58-0.125 0.857-0.079 0.265 0.072 0.543 0.336 0.623z" />
</svg>