<svg id="qrcode_Layer_1" viewBox="0 0 24 24" fill="currentColor" width="32" height="32" data-name="Layer 1" xmlns="http://www.w3.org/2000/svg" xmlns:xlink="http://www.w3.org/1999/xlink">
    <title>qrcode</title>
    <path d="M7.5 0h-4C1.57 0 0 1.57 0 3.5v4C0 9.43 1.57 11 3.5 11h4C9.43 11 11 9.43 11 7.5v-4C11 1.57 9.43 0 7.5 0zM10 7.5C10 8.878 8.878 10 7.5 10h-4C2.122 10 1 8.878 1 7.5v-4C1 2.122 2.122 1 3.5 1h4C8.878 1 10 2.122 10 3.5zM6.5 3h-2C3.673 3 3 3.673 3 4.5v2C3 7.327 3.673 8 4.5 8h2C7.327 8 8 7.327 8 6.5v-2C8 3.673 7.327 3 6.5 3zM7 6.5C7 6.776 6.776 7 6.5 7h-2C4.224 7 4 6.776 4 6.5v-2C4 4.224 4.224 4 4.5 4h2C6.776 4 7 4.224 7 4.5zM20.5 0h-4C14.57 0 13 1.57 13 3.5v4c0 1.93 1.57 3.5 3.5 3.5h4c1.93 0 3.5-1.57 3.5-3.5v-4C24 1.57 22.43 0 20.5 0zM23 7.5c0 1.378-1.121 2.5-2.5 2.5h-4C15.121 10 14 8.878 14 7.5v-4C14 2.122 15.121 1 16.5 1h4C21.879 1 23 2.122 23 3.5zM19.5 3h-2C16.673 3 16 3.673 16 4.5v2C16 7.327 16.673 8 17.5 8h2C20.327 8 21 7.327 21 6.5v-2C21 3.673 20.327 3 19.5 3zM20 6.5C20 6.776 19.775 7 19.5 7h-2C17.225 7 17 6.776 17 6.5v-2C17 4.224 17.225 4 17.5 4h2C19.775 4 20 4.224 20 4.5zM7.5 13h-4C1.57 13 0 14.57 0 16.5v4C0 22.43 1.57 24 3.5 24h4c1.93 0 3.5-1.57 3.5-3.5v-4c0-1.93-1.57-3.5-3.5-3.5zM10 20.5c0 1.378-1.122 2.5-2.5 2.5h-4C2.122 23 1 21.878 1 20.5v-4C1 15.122 2.122 14 3.5 14h4c1.378 0 2.5 1.122 2.5 2.5zM6.5 16h-2C3.673 16 3 16.673 3 17.5v2C3 20.327 3.673 21 4.5 21h2C7.327 21 8 20.327 8 19.5v-2C8 16.673 7.327 16 6.5 16zM7 19.5C7 19.776 6.776 20 6.5 20h-2C4.224 20 4 19.776 4 19.5v-2C4 17.224 4.224 17 4.5 17h2C6.776 17 7 17.224 7 17.5zM22.5 13h-1c-0.827 0-1.5 0.673-1.5 1.5V16h-3v-1.5c0-0.827-0.673-1.5-1.5-1.5h-1c-0.827 0-1.5 0.673-1.5 1.5v1c0 0.827 0.673 1.5 1.5 1.5H16v3h-1.5c-0.827 0-1.5 0.673-1.5 1.5v1c0 0.827 0.673 1.5 1.5 1.5h1c0.827 0 1.5-0.673 1.5-1.5V21h2.5c0.827 0 1.5-0.673 1.5-1.5V17h1.5c0.827 0 1.5-0.673 1.5-1.5v-1c0-0.827-0.673-1.5-1.5-1.5zM14 15.5v-1c0-0.276 0.225-0.5 0.5-0.5h1c0.275 0 0.5 0.224 0.5 0.5V16h-1.5c-0.275 0-0.5-0.224-0.5-0.5zM16 22.5c0 0.276-0.225 0.5-0.5 0.5h-1c-0.275 0-0.5-0.224-0.5-0.5v-1c0-0.276 0.225-0.5 0.5-0.5H16zM20 19.5c0 0.276-0.225 0.5-0.5 0.5H17v-3h3zM23 15.5c0 0.276-0.225 0.5-0.5 0.5H21v-1.5c0-0.276 0.225-0.5 0.5-0.5h1c0.275 0 0.5 0.224 0.5 0.5z" />
</svg>