<svg id="qrcode_wifi_Layer_1" viewBox="0 0 24 24" fill="currentColor" width="32" height="32" data-name="Layer 1" xmlns="http://www.w3.org/2000/svg" xmlns:xlink="http://www.w3.org/1999/xlink">
    <title>qrcode-wifi</title>
    <path d="M16.51 8.49C14.905 6.885 12.77 6 10.5 6S6.095 6.884 4.49 8.49c-0.195 0.195-0.512 0.195-0.707 0s-0.195-0.512 0-0.707C5.577 5.989 7.963 5 10.5 5s4.923 0.988 6.717 2.783c0.195 0.195 0.195 0.512 0 0.707s-0.512 0.195-0.707 0zM5.904 9.904c-0.195 0.195-0.195 0.512 0 0.707s0.512 0.195 0.707 0c2.145-2.145 5.634-2.145 7.778 0 0.195 0.195 0.512 0.195 0.707 0s0.195-0.512 0-0.707c-2.534-2.534-6.658-2.534-9.192 0zM12.975 12.026c-1.321-1.322-3.628-1.322-4.949 0-0.195 0.195-0.195 0.512 0 0.707s0.512 0.195 0.707 0c0.944-0.944 2.591-0.944 3.535 0 0.195 0.195 0.512 0.195 0.707 0s0.195-0.512 0-0.707zM10.5 14.001c-0.552 0-1 0.448-1 1s0.448 1 1 1 1-0.448 1-1-0.448-1-1-1zM10.5 20.001C5.262 20 1 15.738 1 10.5S5.262 1 10.5 1 20 5.262 20 10.5c0 0.276 0.224 0.5 0.5 0.5s0.5-0.224 0.5-0.5C21 4.71 16.29 0 10.5 0S0 4.71 0 10.5 4.71 21 10.5 21c0.276 0 0.5-0.224 0.5-0.5s-0.224-0.5-0.5-0.499zM20 22.001c-0.552 0-1 0.448-1 1s0.448 1 1 1 1-0.448 1-1-0.448-1-1-1zM23 19.001c-0.552 0-1 0.448-1 1s0.448 1 1 1 1-0.448 1-1-0.448-1-1-1zM20 19.001c-0.552 0-1 0.448-1 1s0.448 1 1 1 1-0.448 1-1-0.448-1-1-1zM18 14.501v2c0 0.827-0.673 1.5-1.5 1.5h-2c-0.827 0-1.5-0.673-1.5-1.5v-2c0-0.827 0.673-1.5 1.5-1.5h2c0.827 0 1.5 0.673 1.5 1.5zM17 14.501c0-0.275-0.224-0.5-0.5-0.5h-2c-0.276 0-0.5 0.225-0.5 0.5v2c0 0.275 0.224 0.5 0.5 0.5h2c0.276 0 0.5-0.225 0.5-0.5zM18 20.501v2c0 0.827-0.673 1.5-1.5 1.5h-2c-0.827 0-1.5-0.673-1.5-1.5v-2c0-0.827 0.673-1.5 1.5-1.5h2c0.827 0 1.5 0.673 1.5 1.5zM17 20.501c0-0.275-0.224-0.5-0.5-0.5h-2c-0.276 0-0.5 0.225-0.5 0.5v2c0 0.275 0.224 0.5 0.5 0.5h2c0.276 0 0.5-0.225 0.5-0.5zM24 14.501v2c0 0.827-0.673 1.5-1.5 1.5h-2c-0.827 0-1.5-0.673-1.5-1.5v-2c0-0.827 0.673-1.5 1.5-1.5h2c0.827 0 1.5 0.673 1.5 1.5zM23 14.501c0-0.275-0.224-0.5-0.5-0.5h-2c-0.276 0-0.5 0.225-0.5 0.5v2c0 0.275 0.224 0.5 0.5 0.5h2c0.276 0 0.5-0.225 0.5-0.5zM21.5 14.751c-0.414 0-0.75 0.336-0.75 0.75s0.336 0.75 0.75 0.75 0.75-0.336 0.75-0.75-0.336-0.75-0.75-0.75zM15.5 14.751c-0.414 0-0.75 0.336-0.75 0.75s0.336 0.75 0.75 0.75 0.75-0.336 0.75-0.75-0.336-0.75-0.75-0.75zM15.5 20.751c-0.414 0-0.75 0.336-0.75 0.75s0.336 0.75 0.75 0.75 0.75-0.336 0.75-0.75-0.336-0.75-0.75-0.75z" />
</svg>