<svg id="qrcode_box_Layer_1" viewBox="0 0 24 24" fill="currentColor" width="32" height="32" data-name="Layer 1" xmlns="http://www.w3.org/2000/svg" xmlns:xlink="http://www.w3.org/1999/xlink">
    <title>qrcode-box</title>
    <path d="M19.5 0h-15C2.019 0 0 2.019 0 4.5v1c0 0.815 0.397 1.532 1.002 1.989C1.002 7.493 1 7.496 1 7.5v12C1 21.981 3.019 24 5.5 24h5c0.276 0 0.5-0.224 0.5-0.5S10.776 23 10.5 23h-5C3.57 23 2 21.43 2 19.5V7.949C2.162 7.982 2.329 8 2.5 8h19c0.171 0 0.338-0.018 0.5-0.051V10.5c0 0.276 0.224 0.5 0.5 0.5s0.5-0.224 0.5-0.5v-3c0 0-2e-3-7e-3-2e-3-0.011C23.603 7.032 24 6.314 24 5.5v-1C24 2.019 21.981 0 19.5 0zM23 5.5C23 6.327 22.327 7 21.5 7h-19C1.673 7 1 6.327 1 5.5v-1C1 2.57 2.57 1 4.5 1h15C21.43 1 23 2.57 23 4.5zM21 23c0 0.552-0.448 1-1 1s-1-0.448-1-1 0.448-1 1-1 1 0.448 1 1zM24 20c0 0.552-0.448 1-1 1s-1-0.448-1-1 0.448-1 1-1 1 0.448 1 1zM21 20c0 0.552-0.448 1-1 1s-1-0.448-1-1 0.448-1 1-1 1 0.448 1 1zM16.5 13h-2c-0.827 0-1.5 0.673-1.5 1.5v2c0 0.827 0.673 1.5 1.5 1.5h2c0.827 0 1.5-0.673 1.5-1.5v-2c0-0.827-0.673-1.5-1.5-1.5zM17 16.5c0 0.276-0.224 0.5-0.5 0.5h-2c-0.276 0-0.5-0.224-0.5-0.5v-2c0-0.276 0.224-0.5 0.5-0.5h2c0.276 0 0.5 0.224 0.5 0.5zM16.5 19h-2c-0.827 0-1.5 0.673-1.5 1.5v2c0 0.827 0.673 1.5 1.5 1.5h2c0.827 0 1.5-0.673 1.5-1.5v-2c0-0.827-0.673-1.5-1.5-1.5zM17 22.5c0 0.276-0.224 0.5-0.5 0.5h-2c-0.276 0-0.5-0.224-0.5-0.5v-2c0-0.276 0.224-0.5 0.5-0.5h2c0.276 0 0.5 0.224 0.5 0.5zM22.5 13h-2c-0.827 0-1.5 0.673-1.5 1.5v2c0 0.827 0.673 1.5 1.5 1.5h2c0.827 0 1.5-0.673 1.5-1.5v-2c0-0.827-0.673-1.5-1.5-1.5zM23 16.5c0 0.276-0.224 0.5-0.5 0.5h-2c-0.276 0-0.5-0.224-0.5-0.5v-2c0-0.276 0.224-0.5 0.5-0.5h2c0.276 0 0.5 0.224 0.5 0.5zM22.25 15.5c0 0.414-0.336 0.75-0.75 0.75s-0.75-0.336-0.75-0.75 0.336-0.75 0.75-0.75 0.75 0.336 0.75 0.75zM16.25 15.5c0 0.414-0.336 0.75-0.75 0.75s-0.75-0.336-0.75-0.75 0.336-0.75 0.75-0.75 0.75 0.336 0.75 0.75zM16.25 21.5c0 0.414-0.336 0.75-0.75 0.75s-0.75-0.336-0.75-0.75 0.336-0.75 0.75-0.75 0.75 0.336 0.75 0.75z" />
</svg>