<svg id="qrcode_menu_Layer_1" viewBox="0 0 24 24" fill="currentColor" width="32" height="32" data-name="Layer 1" xmlns="http://www.w3.org/2000/svg" xmlns:xlink="http://www.w3.org/1999/xlink">
    <title>qrcode-menu</title>
    <path d="M21 23c0 0.552-0.448 1-1 1s-1-0.448-1-1 0.448-1 1-1 1 0.448 1 1zM23 19c-0.552 0-1 0.448-1 1s0.448 1 1 1 1-0.448 1-1-0.448-1-1-1zM20 19c-0.552 0-1 0.448-1 1s0.448 1 1 1 1-0.448 1-1-0.448-1-1-1zM18 14.5v2c0 0.827-0.673 1.5-1.5 1.5h-2c-0.827 0-1.5-0.673-1.5-1.5v-2c0-0.827 0.673-1.5 1.5-1.5h2c0.827 0 1.5 0.673 1.5 1.5zM17 14.5c0-0.276-0.225-0.5-0.5-0.5h-2c-0.275 0-0.5 0.224-0.5 0.5v2c0 0.276 0.225 0.5 0.5 0.5h2c0.275 0 0.5-0.224 0.5-0.5zM18 20.5v2c0 0.827-0.673 1.5-1.5 1.5h-2c-0.827 0-1.5-0.673-1.5-1.5v-2c0-0.827 0.673-1.5 1.5-1.5h2c0.827 0 1.5 0.673 1.5 1.5zM17 20.5c0-0.276-0.225-0.5-0.5-0.5h-2c-0.275 0-0.5 0.224-0.5 0.5v2c0 0.276 0.225 0.5 0.5 0.5h2c0.275 0 0.5-0.224 0.5-0.5zM24 14.5v2c0 0.827-0.673 1.5-1.5 1.5h-2c-0.827 0-1.5-0.673-1.5-1.5v-2c0-0.827 0.673-1.5 1.5-1.5h2c0.827 0 1.5 0.673 1.5 1.5zM23 14.5c0-0.276-0.225-0.5-0.5-0.5h-2c-0.275 0-0.5 0.224-0.5 0.5v2c0 0.276 0.225 0.5 0.5 0.5h2c0.275 0 0.5-0.224 0.5-0.5zM10.5 3.5v0.525c2.799 0.254 5 2.611 5 5.475V10h1c0.276 0 0.5 0.224 0.5 0.5S16.776 11 16.5 11h-13C3.224 11 3 10.776 3 10.5S3.224 10 3.5 10h1V9.5c0-2.864 2.201-5.221 5-5.475V3.5C9.5 3.224 9.724 3 10 3s0.5 0.224 0.5 0.5zM10 5C7.519 5 5.5 7.019 5.5 9.5V10h9V9.5C14.5 7.019 12.481 5 10 5zM21.5 14.75c-0.414 0-0.75 0.336-0.75 0.75s0.336 0.75 0.75 0.75 0.75-0.336 0.75-0.75-0.336-0.75-0.75-0.75zM15.5 14.75c-0.414 0-0.75 0.336-0.75 0.75s0.336 0.75 0.75 0.75 0.75-0.336 0.75-0.75-0.336-0.75-0.75-0.75zM15.5 20.75c-0.414 0-0.75 0.336-0.75 0.75s0.336 0.75 0.75 0.75 0.75-0.336 0.75-0.75-0.336-0.75-0.75-0.75zM3.5 18h7c0.276 0 0.5-0.224 0.5-0.5S10.776 17 10.5 17h-7c-0.98 0-1.864 0.407-2.5 1.058V4.5C1 2.57 2.57 1 4.5 1h11C17.43 1 19 2.57 19 4.5v6c0 0.276 0.224 0.5 0.5 0.5s0.5-0.224 0.5-0.5v-6C20 2.019 17.981 0 15.5 0h-11C2.019 0 0 2.019 0 4.5v16C0 22.43 1.57 24 3.5 24h7c0.276 0 0.5-0.224 0.5-0.5S10.776 23 10.5 23h-7C2.121 23 1 21.878 1 20.5S2.121 18 3.5 18z" />
</svg>