<svg id="queue_signal_Layer_1" viewBox="0 0 24 24" fill="currentColor" width="32" height="32" data-name="Layer 1" xmlns="http://www.w3.org/2000/svg" xmlns:xlink="http://www.w3.org/1999/xlink">
    <title>queue-signal</title>
    <path d="M12 5c1.379 0 2.5-1.122 2.5-2.5S13.379 0 12 0 9.5 1.122 9.5 2.5 10.621 5 12 5zM12 1c0.827 0 1.5 0.673 1.5 1.5S12.827 4 12 4s-1.5-0.673-1.5-1.5S11.173 1 12 1z" />
    <path d="M8 5c0.276 0 0.5-0.224 0.5-0.5S8.276 4 8 4C7.173 4 6.5 3.327 6.5 2.5S7.173 1 8 1c0.276 0 0.5-0.224 0.5-0.5S8.276 0 8 0C6.621 0 5.5 1.122 5.5 2.5S6.621 5 8 5z" />
    <path d="M4 5c0.276 0 0.5-0.224 0.5-0.5S4.276 4 4 4C3.173 4 2.5 3.327 2.5 2.5S3.173 1 4 1c0.276 0 0.5-0.224 0.5-0.5S4.276 0 4 0C2.621 0 1.5 1.122 1.5 2.5S2.621 5 4 5z" />
    <path d="M12.5 6h-1C9.57 6 8 7.57 8 9.5v4c0 1.391 0.822 2.585 2 3.149V23.5c0 0.276 0.224 0.5 0.5 0.5s0.5-0.224 0.5-0.5v-6.551C11.165 16.973 11.329 17 11.5 17h1c0.171 0 0.335-0.027 0.5-0.051V23.5c0 0.276 0.224 0.5 0.5 0.5s0.5-0.224 0.5-0.5v-6.851c1.178-0.564 2-1.758 2-3.149v-4C16 7.57 14.43 6 12.5 6zM15 13.5c0 1.378-1.121 2.5-2.5 2.5h-1C10.121 16 9 14.878 9 13.5v-4C9 8.122 10.121 7 11.5 7h1C13.879 7 15 8.122 15 9.5z" />
    <path d="M6.917 6.048C5.227 6.331 4 7.783 4 9.5v4c0 1.36 0.79 2.589 2 3.163V23.5C6 23.776 6.224 24 6.5 24S7 23.776 7 23.5v-7.171c0-0.212-0.134-0.401-0.333-0.472C5.67 15.505 5 14.558 5 13.5v-4c0-1.226 0.876-2.263 2.083-2.465 0.271-0.046 0.456-0.303 0.41-0.576S7.193 6 6.917 6.048z" />
    <path d="M2.917 6.048C1.227 6.331 0 7.783 0 9.5v4c0 1.36 0.79 2.589 2 3.163V23.5C2 23.776 2.224 24 2.5 24S3 23.776 3 23.5v-7.171c0-0.212-0.134-0.401-0.333-0.472C1.67 15.505 1 14.558 1 13.5v-4c0-1.226 0.876-2.263 2.083-2.465 0.271-0.046 0.456-0.303 0.41-0.576S3.194 6 2.917 6.048z" />
    <path d="M21.5 9C22.879 9 24 7.878 24 6.5v-4C24 1.122 22.879 0 21.5 0h-2C18.121 0 17 1.122 17 2.5v4C17 7.878 18.121 9 19.5 9H20v14h-2.5c-0.276 0-0.5 0.224-0.5 0.5s0.224 0.5 0.5 0.5h6c0.276 0 0.5-0.224 0.5-0.5S23.776 23 23.5 23H21V9zM19.5 8C18.673 8 18 7.327 18 6.5v-4C18 1.673 18.673 1 19.5 1h2C22.327 1 23 1.673 23 2.5v4C23 7.327 22.327 8 21.5 8z" />
</svg>