<svg id="queue_line_Layer_1" viewBox="0 0 24 24" fill="currentColor" width="32" height="32" data-name="Layer 1" xmlns="http://www.w3.org/2000/svg" xmlns:xlink="http://www.w3.org/1999/xlink">
    <title>queue-line</title>
    <path d="M23.392 14.221c-0.38-0.239-0.849-0.268-1.257-0.074l-0.397 0.191C19.806 15.268 16.213 17 12.001 17s-7.806-1.732-9.737-2.662l-0.397-0.19c-0.409-0.196-0.879-0.166-1.257 0.073-0.381 0.241-0.608 0.654-0.608 1.107V23.5c0 0.276 0.224 0.5 0.5 0.5s0.5-0.224 0.5-0.5v-8.172c0-0.155 0.1-0.234 0.143-0.261 0.042-0.026 0.156-0.081 0.293-0.016l0.394 0.188C3.835 16.204 7.562 18 12.003 18s8.168-1.796 10.171-2.761l0.394-0.189c0.139-0.064 0.252-9e-3 0.293 0.017 0.043 0.027 0.143 0.106 0.143 0.261V23.5c0 0.276 0.224 0.5 0.5 0.5s0.5-0.224 0.5-0.5v-8.172c0-0.453-0.228-0.866-0.612-1.107z" />
    <path d="M19.5 19c-0.276 0-0.5 0.224-0.5 0.5v4c0 0.276 0.224 0.5 0.5 0.5s0.5-0.224 0.5-0.5v-4c0-0.276-0.224-0.5-0.5-0.5z" />
    <path d="M15.5 20c-0.276 0-0.5 0.224-0.5 0.5v3c0 0.276 0.224 0.5 0.5 0.5s0.5-0.224 0.5-0.5v-3c0-0.276-0.224-0.5-0.5-0.5z" />
    <path d="M10.5 20c-0.276 0-0.5 0.224-0.5 0.5v3c0 0.276 0.224 0.5 0.5 0.5s0.5-0.224 0.5-0.5v-3c0-0.276-0.224-0.5-0.5-0.5z" />
    <path d="M5.5 19C5.224 19 5 19.224 5 19.5v4C5 23.776 5.224 24 5.5 24S6 23.776 6 23.5v-4C6 19.224 5.776 19 5.5 19z" />
    <path d="M17.5 5C18.879 5 20 3.878 20 2.5S18.879 0 17.5 0 15 1.122 15 2.5 16.121 5 17.5 5zM17.5 1C18.327 1 19 1.673 19 2.5S18.327 4 17.5 4 16 3.327 16 2.5 16.673 1 17.5 1z" />
    <path d="M12.5 5c0.21 0 0.42-0.026 0.624-0.079 0.268-0.068 0.429-0.341 0.36-0.608-0.067-0.268-0.339-0.429-0.608-0.36C11.953 4.19 11 3.454 11 2.5s0.952-1.687 1.876-1.453c0.271 0.071 0.541-0.093 0.608-0.36 0.068-0.268-0.093-0.54-0.36-0.608C12.92 0.027 12.71 0 12.5 0 11.121 0 10 1.122 10 2.5S11.121 5 12.5 5z" />
    <path d="M7.5 5c0.21 0 0.42-0.026 0.624-0.079 0.268-0.068 0.429-0.341 0.36-0.608s-0.339-0.429-0.608-0.36C6.951 4.19 6 3.454 6 2.5s0.95-1.687 1.876-1.453c0.271 0.071 0.541-0.093 0.608-0.36 0.068-0.268-0.093-0.54-0.36-0.608C7.92 0.027 7.71 0 7.5 0 6.121 0 5 1.122 5 2.5S6.121 5 7.5 5z" />
    <path d="M13 14.5c0 0.276 0.224 0.5 0.5 0.5s0.5-0.224 0.5-0.5v-5C14 8.122 15.121 7 16.5 7h2C19.879 7 21 8.122 21 9.5v3c0 0.276 0.224 0.5 0.5 0.5s0.5-0.224 0.5-0.5v-3C22 7.57 20.43 6 18.5 6h-2C14.57 6 13 7.57 13 9.5z" />
    <path d="M8 14c0 0.276 0.224 0.5 0.5 0.5S9 14.276 9 14V9.5C9 8.122 10.121 7 11.5 7H12c0.276 0 0.5-0.224 0.5-0.5S12.276 6 12 6h-0.5C9.57 6 8 7.57 8 9.5z" />
    <path d="M3.5 13C3.776 13 4 12.776 4 12.5v-3C4 8.122 5.121 7 6.5 7H7c0.276 0 0.5-0.224 0.5-0.5S7.276 6 7 6H6.5C4.57 6 3 7.57 3 9.5v3C3 12.776 3.224 13 3.5 13z" />
</svg>