<svg id="queue_Layer_1" viewBox="0 0 24 24" fill="currentColor" width="32" height="32" data-name="Layer 1" xmlns="http://www.w3.org/2000/svg" xmlns:xlink="http://www.w3.org/1999/xlink">
    <title>queue</title>
    <path d="M2.5 0C1.122 0 0 1.122 0 2.5S1.122 5 2.5 5 5 3.878 5 2.5 3.878 0 2.5 0zM2.5 4C1.673 4 1 3.327 1 2.5S1.673 1 2.5 1 4 1.673 4 2.5 3.327 4 2.5 4z" />
    <path d="M2.5 6C1.122 6 0 7.122 0 8.5V15c0 1.103 0.897 2 2 2v6.513c0 0.276 0.224 0.5 0.5 0.5s0.5-0.224 0.5-0.5V17c1.103 0 2-0.897 2-2V8.5C5 7.122 3.878 6 2.5 6zM4 15c0 0.551-0.449 1-1 1H2c-0.551 0-1-0.449-1-1V8.5C1 7.673 1.673 7 2.5 7S4 7.673 4 8.5z" />
    <path d="M8.5 0C7.122 0 6 1.122 6 2.5S7.122 5 8.5 5 11 3.878 11 2.5 9.878 0 8.5 0zM8.5 4C7.673 4 7 3.327 7 2.5S7.673 1 8.5 1 10 1.673 10 2.5 9.327 4 8.5 4z" />
    <path d="M8.5 6C7.122 6 6 7.122 6 8.5V15c0 1.103 0.897 2 2 2v6.513c0 0.276 0.224 0.5 0.5 0.5s0.5-0.224 0.5-0.5V17c1.103 0 2-0.897 2-2V8.5C11 7.122 9.878 6 8.5 6zM10 15c0 0.551-0.449 1-1 1H8c-0.551 0-1-0.449-1-1V8.5C7 7.673 7.673 7 8.5 7S10 7.673 10 8.5z" />
    <path d="M14.5 0C13.122 0 12 1.122 12 2.5S13.122 5 14.5 5 17 3.878 17 2.5 15.878 0 14.5 0zM14.5 4C13.673 4 13 3.327 13 2.5S13.673 1 14.5 1 16 1.673 16 2.5 15.327 4 14.5 4z" />
    <path d="M14.5 6C13.122 6 12 7.122 12 8.5V15c0 1.103 0.897 2 2 2v6.513c0 0.276 0.224 0.5 0.5 0.5s0.5-0.224 0.5-0.5V17c1.103 0 2-0.897 2-2V8.5C17 7.122 15.878 6 14.5 6zM16 15c0 0.551-0.449 1-1 1h-1c-0.551 0-1-0.449-1-1V8.5C13 7.673 13.673 7 14.5 7S16 7.673 16 8.5z" />
    <path d="M20.5 5C21.878 5 23 3.878 23 2.5S21.878 0 20.5 0 18 1.122 18 2.5 19.122 5 20.5 5zM20.5 1C21.327 1 22 1.673 22 2.5S21.327 4 20.5 4 19 3.327 19 2.5 19.673 1 20.5 1z" />
    <path d="M20.5 6C19.122 6 18 7.122 18 8.5V15c0 1.103 0.897 2 2 2v6.513c0 0.276 0.224 0.5 0.5 0.5s0.5-0.224 0.5-0.5V17c1.103 0 2-0.897 2-2V8.5C23 7.122 21.878 6 20.5 6zM22 15c0 0.551-0.449 1-1 1h-1c-0.551 0-1-0.449-1-1V8.5C19 7.673 19.673 7 20.5 7S22 7.673 22 8.5z" />
</svg>