<svg id="quick_box_Layer_1" viewBox="0 0 24 24" fill="currentColor" width="32" height="32" data-name="Layer 1" xmlns="http://www.w3.org/2000/svg" xmlns:xlink="http://www.w3.org/1999/xlink">
    <title>quick-box</title>
    <path d="M0 13.5C0 13.224 0.224 13 0.5 13h7C7.776 13 8 13.224 8 13.5S7.776 14 7.5 14h-7C0.224 14 0 13.776 0 13.5zM5.5 17h-5C0.224 17 0 17.224 0 17.5S0.224 18 0.5 18h5C5.776 18 6 17.776 6 17.5S5.776 17 5.5 17zM3.5 21h-3C0.224 21 0 21.224 0 21.5S0.224 22 0.5 22h3C3.776 22 4 21.776 4 21.5S3.776 21 3.5 21zM23.959 6.566l-1.652 11.57C21.992 20.339 20.077 22 17.852 22H6.5C6.224 22 6 21.776 6 21.5S6.224 21 6.5 21h11.352c1.73 0 3.22-1.292 3.465-3.006L22.744 8h-7.355l-0.132 0.875C15.084 10.085 14.028 11 12.803 11c-1.465 0.034-2.696-1.384-2.455-2.83L10.374 8H3.463l-0.367 2.571c-0.04 0.273-0.3 0.46-0.565 0.424-0.273-0.039-0.464-0.292-0.425-0.566l0.652-4.566C3.072 3.661 4.987 2 7.213 2h12.786c2.364-0.055 4.349 2.234 3.96 4.566zM10.525 7l0.606-4H7.213c-1.73 0-3.221 1.292-3.465 3.005L3.606 7zM15.131 3h-2.99l-0.805 5.315c-0.142 0.858 0.593 1.706 1.466 1.685 0.731 0 1.361-0.546 1.465-1.271zM22.886 7l0.082-0.576C23.26 4.675 21.771 2.958 19.998 3h-3.857l-0.603 4zM17.499 18c0.276 0 0.5-0.224 0.5-0.5s-0.224-0.5-0.5-0.5h-3c-0.276 0-0.5 0.224-0.5 0.5s0.224 0.5 0.5 0.5z" />
</svg>