<svg id="quiz_Layer_1" viewBox="0 0 24 24" fill="currentColor" width="32" height="32" data-name="Layer 1" xmlns="http://www.w3.org/2000/svg" xmlns:xlink="http://www.w3.org/1999/xlink">
    <title>quiz</title>
    <path d="M22.002 23.5c0 0.276-0.224 0.5-0.5 0.5s-0.5-0.224-0.5-0.5c0-1.637-0.995-3.026-2.595-3.627l-5.081-1.905c-0.195-0.073-0.324-0.26-0.324-0.468v-4.893c0-0.789-0.535-1.471-1.245-1.587-0.449-0.072-0.886 0.046-1.226 0.336-0.336 0.286-0.529 0.703-0.529 1.144v7.424c0 0.421-0.235 0.796-0.615 0.979-0.38 0.181-0.819 0.131-1.146-0.13l-1.688-1.342c-0.016-0.013-0.03-0.026-0.044-0.04-0.607-0.55-1.544-0.514-2.102 0.084-0.565 0.604-0.534 1.557 0.064 2.118l1.633 1.551C6.429 23.453 6.211 24 5.762 24c-0.127 0-0.249-0.048-0.341-0.135l-1.64-1.548c-1-0.937-1.048-2.518-0.106-3.524 0.934-1.001 2.504-1.058 3.511-0.135l1.676 1.334L9 19.926v-7.424c0-0.734 0.321-1.429 0.881-1.905s1.301-0.68 2.035-0.561c1.188 0.193 2.083 1.3 2.083 2.573v4.546l4.756 1.784c2.001 0.75 3.244 2.498 3.247 4.561zM8.056 7.561 6.694 3.506C6.408 2.859 6.009 2.722 5.5 2.722S4.591 2.859 4.298 3.526L2.944 7.56C2.826 7.912 3.088 8.277 3.46 8.277c0.233 0 0.439-0.148 0.515-0.368l0.254-0.743h2.544l0.254 0.743c0.075 0.22 0.282 0.368 0.514 0.368v0c0.372 0 0.634-0.365 0.515-0.716zM4.607 6.056 5.332 3.935c0.022-0.047 0.112-0.102 0.167-0.102 0.057 0 0.142 0.047 0.16 0.083l0.732 2.139zM20.507 5.207c0.143-0.254 0.223-0.549 0.214-0.863-0.024-0.911-0.801-1.622-1.712-1.622h-0.848c-1.088 0-1.883 0.796-1.883 1.778v2c0 0.982 0.796 1.778 1.778 1.778h1.512c0.875 0 1.635-0.657 1.705-1.53 0.052-0.645-0.267-1.222-0.766-1.541zM17.389 4.389c0-0.307 0.249-0.556 0.556-0.556h1.086c0.29 0 0.549 0.211 0.578 0.499 0.033 0.331-0.228 0.612-0.553 0.612h-1.667zM19.587 7.167h-1.643c-0.307 0-0.555-0.249-0.555-0.556V6.055h2.222c0.325 0 0.586 0.281 0.553 0.612-0.029 0.288-0.287 0.499-0.577 0.5zM5.5 0C2.467 0 0 2.468 0 5.5S2.467 11 5.5 11 11 8.532 11 5.5 8.533 0 5.5 0zM5.5 10C3.019 10 1 7.981 1 5.5S3.019 1 5.5 1 10 3.019 10 5.5 7.981 10 5.5 10zM18.5 0C15.467 0 13 2.468 13 5.5s2.467 5.5 5.5 5.5S24 8.532 24 5.5 21.533 0 18.5 0zM18.5 10C16.019 10 14 7.981 14 5.5S16.019 1 18.5 1 23 3.019 23 5.5 20.981 10 18.5 10z" />
</svg>