<svg id="r_Layer_1" viewBox="0 0 24 24" fill="currentColor" width="32" height="32" data-name="Layer 1" xmlns="http://www.w3.org/2000/svg" xmlns:xlink="http://www.w3.org/1999/xlink">
    <title>r</title>
    <path d="M21.937 23.257l-4.844-8.719C24.828 11.601 22.879 0.118 14.5 0h-8C4.019 0 2 2.019 2 4.5v19c-0.01 0.649 1.01 0.649 1 0V15h11.5c0.552 0 1.09-0.06 1.608-0.174l4.954 8.917c0.136 0.244 0.443 0.326 0.681 0.194 0.241-0.135 0.328-0.438 0.194-0.68zM3 14V4.5C3 2.57 4.57 1 6.5 1h8c8.592 0.274 8.586 12.729 0 13z" />
</svg>