<svg id="rabbit_fast_Layer_1" viewBox="0 0 24 24" fill="currentColor" width="32" height="32" data-name="Layer 1" xmlns="http://www.w3.org/2000/svg" xmlns:xlink="http://www.w3.org/1999/xlink">
    <title>rabbit-fast</title>
    <path d="M24 7.5c0-2.171-2.157-5.443-5.415-5.499C17.848 1.762 12.226 0 6.5 0 6.224 0 6 0.224 6 0.5S6.224 1 6.5 1c3.792 0 7.622 0.823 9.862 1.406-0.566 0.196-1.141 0.445-1.754 0.711C12.674 3.956 10.267 5 6.5 5 6.224 5 6 5.224 6 5.5S6.224 6 6.5 6c3.736 0 6.18-0.963 8.137-1.806C14.233 4.869 14 5.658 14 6.5c0 0.924 0.28 1.784 0.76 2.5H8.236c-1.203 0-2.34 0.338-3.305 0.921C4.669 8.821 3.679 8 2.499 8c-1.378 0-2.5 1.121-2.5 2.5 0 1.33 1.043 2.419 2.353 2.495-0.167 0.45-0.278 0.925-0.325 1.417-0.164 1.715 0.38 3.356 1.531 4.623C4.693 20.284 6.312 21 7.999 21c1.007 0 1.911 0.6 2.304 1.526C10.681 23.422 11.605 24 12.656 24h7.843c0.276 0 0.5-0.224 0.5-0.5s-0.224-0.5-0.5-0.5h-5.664l4.942-12.081C22.035 10.628 23.999 9.539 24 7.5zM18.5 3C21.11 3 23 5.688 23 7.5c0 1.974-2.829 2.5-4.5 2.5-1.93 0-3.5-1.57-3.5-3.5 0-1.899 1.612-3.452 3.5-3.5zM2.5 12C1.673 12 1 11.327 1 10.5S1.673 9 2.5 9 4 9.673 4 10.5c0 0.034 3e-3 0.067 0.01 0.099-0.447 0.396-0.835 0.853-1.148 1.357C2.747 11.985 2.625 12 2.5 12zM14 22.401V20.5c0-1.865-0.446-3.216-1.363-4.13-0.917-0.913-2.268-1.357-4.13-1.357-0.294-4e-3-0.542 0.211-0.541 0.502 0 0.275 0.225 0.498 0.5 0.498h2e-3c1.617 0.029 2.738 0.343 3.463 1.065C12.65 17.795 13 18.914 13 20.5V23h-0.343c-0.639 0-1.214-0.347-1.432-0.863C10.675 20.839 9.41 20 8 20s-2.755-0.597-3.701-1.638c-0.959-1.055-1.412-2.424-1.276-3.854C3.264 11.98 5.554 10 8.236 10h7.439c0.773 0.625 1.756 1 2.825 1 0.055 0 0.11 0 0.165-1e-3z" />
</svg>