<svg id="raccoon_Layer_1" viewBox="0 0 24 24" fill="currentColor" width="32" height="32" data-name="Layer 1" xmlns="http://www.w3.org/2000/svg" xmlns:xlink="http://www.w3.org/1999/xlink">
    <title>raccoon</title>
    <path d="M23.5 23H22v-9.5c0-0.276-0.224-0.5-0.5-0.5S21 13.224 21 13.5V23h-2.998L18 15.5c0-0.276-0.224-0.5-0.5-0.5S17 15.224 17 15.5l2e-3 7.5H7.505c-1.109 0-2.175-0.279-3.121-0.799 0.404-2.776 2.044-9.088 8.582-10.965 0.301 0.145 0.606 0.287 0.913 0.426 0.691 0.313 1.406 0.637 1.997 1.009 0.347 0.218 0.735 0.327 1.123 0.328 0 0 0 0 1e-3 0 0 0 0 0 0 0 2e-3 0 5e-3 1e-3 7e-3 1e-3 0.392 0 0.783-0.11 1.132-0.33 0.59-0.371 1.305-0.695 1.996-1.008 1.635-0.74 3.309-1.508 3.748-3.023 0.085-0.144 0.118-0.773 0.118-0.798 0-0.965-0.382-1.999-1.002-2.963V1.677c0-0.647-0.362-1.225-0.944-1.507-0.582-0.283-1.26-0.21-1.767 0.191L18.932 1.42c-0.646-0.264-1.3-0.419-1.926-0.419s-1.285 0.157-1.934 0.423l-1.358-1.061c-0.51-0.402-1.187-0.477-1.769-0.192-0.583 0.282-0.944 0.86-0.944 1.507v3.22c-0.613 0.959-0.989 1.986-0.989 2.944 0 1.269 0.742 2.092 1.751 2.739-3.106 1.147-5.082 3.248-6.334 5.433 0.276-2.426 0.433-4.92 0.513-7.274 0.04-0.072 0.084-4.177 0.069-5.748C5.995 1.314 4.678 0 3.011 0 1.375 0 0.04 1.33 0.013 2.974c0 7e-3 0 0.013 0 0.02L6e-3 16.496c0 2.004 0.779 3.888 2.195 5.306C3.618 23.22 5.502 24 7.506 24h15.995c0.276 0 0.5-0.224 0.5-0.5S23.777 23 23.5 23zM19.723 10.751c-0.609 0.276-1.224 0.569-1.794 0.896-0.143-0.377-0.502-0.648-0.929-0.648-0.425 0-0.782 0.267-0.927 0.64-0.567-0.324-1.177-0.615-1.781-0.889-0.77-0.349-1.512-0.692-2.101-1.094 1.291 0.312 2.828 0.341 3.311 0.341 0.381 0 0.746-0.085 1.085-0.252 0.263-0.129 0.562-0.129 0.825 0 0.339 0.167 0.705 0.252 1.085 0.252 0.479 0 1.95-0.026 3.255-0.293-0.577 0.382-1.29 0.712-2.029 1.047zM22.98 7.996c-7e-3 0.08-0.016 0.159-0.033 0.234-0.412 0.392-2.515 0.768-4.448 0.768-0.226 0-0.443-0.05-0.644-0.149-0.271-0.133-0.562-0.2-0.854-0.2s-0.583 0.067-0.854 0.2c-0.201 0.099-0.418 0.149-0.644 0.149-1.944 0-4.139-0.431-4.271-0.834 0-0.103 0.094-0.307 0.359-0.571 0.771-0.77 2.522-1.591 3.904-1.591h7e-3c0.226 0 0.442 0.051 0.645 0.15 0.543 0.266 1.166 0.266 1.708 0 0.202-0.1 0.419-0.15 0.645-0.15 1.856 0 4.136 1.332 4.48 1.994zM20.906 1.147c0.205-0.162 0.478-0.193 0.713-0.078C21.854 1.183 22 1.416 22 1.676v1.928c-0.614-0.661-1.325-1.244-2.077-1.69zM18.753 2.432c8e-3 4e-3 0.016 7e-3 0.023 0.011 1.626 0.747 3.219 2.339 3.892 3.923-1.203-0.798-2.949-1.364-4.17-1.364-0.38 0-0.746 0.085-1.086 0.252-0.262 0.129-0.563 0.13-0.826 0-0.343-0.168-0.743-0.272-1.092-0.252-1.488 0-3.183 0.729-4.208 1.531C12.138 4.31 14.86 2 17.007 2c0.557 0 1.153 0.163 1.746 0.432zM12.002 1.677c0-0.261 0.146-0.494 0.381-0.608 0.234-0.114 0.507-0.083 0.715 0.08l0.986 0.77c-0.754 0.449-1.467 1.036-2.082 1.7zM4.963 8.001H1.01l2e-3-3h4.004c-5e-3 0.95-0.023 1.962-0.053 3zM4.778 12.001h-3.77c0 0 2e-3-3 2e-3-3h3.926c-0.036 0.981-0.091 1.988-0.158 3zM1.007 13.002H4.71c-0.077 1.004-0.172 2.006-0.286 2.999H1.006zM1.012 3.026c0-1.118 0.897-2.026 2-2.026 1.111 0 1.99 0.879 2 2.001 3e-3 0.317 2e-3 0.665 3e-3 1H1.012V3.029c0 0 0-4e-3 0-3e-3zM1.029 17.001h3.267c-0.131 0.993-0.275 1.973-0.453 2.91-0.165 0.614-0.289 1.186-0.375 1.68-0.194-0.154-0.382-0.317-0.56-0.495-1.108-1.109-1.761-2.548-1.879-4.095zM19 6.5c0.552 0 1 0.448 1 1s-0.448 1-1 1-1-0.448-1-1 0.448-1 1-1zM16 7.5c0 0.552-0.448 1-1 1s-1-0.448-1-1 0.448-1 1-1 1 0.448 1 1z" />
</svg>