<svg id="racquet_Layer_1" viewBox="0 0 24 24" fill="currentColor" width="32" height="32" data-name="Layer 1" xmlns="http://www.w3.org/2000/svg" xmlns:xlink="http://www.w3.org/1999/xlink">
    <title>racquet</title>
    <path d="M21.958 2.042C18.813-1.103 13.132-0.54 9.296 3.297c-2.422 2.423-3.539 5.58-3.242 8.37-2e-3 0.04 0.058 0.44 0.076 0.541 0.166 1.17 0.481 4.474-0.984 5.939l-5 4.999c-0.195 0.195-0.195 0.512 0 0.707 0.098 0.098 0.226 0.146 0.354 0.146s0.256-0.049 0.354-0.146l5-5c1.321-1.322 4.307-1.179 5.797-1.01 0.276 0.054 1.387 0.15 1.577 0.15 1.753 0 3.602-0.529 5.29-1.562 0.742-0.522 1.6-1.141 2.187-1.728 3.836-3.837 4.399-9.517 1.253-12.661zM21.98 11.278 19.435 8.733l3.329-3.329c0.487 1.813 0.208 3.922-0.784 5.874zM22.386 4.369 18.728 8.027 15.886 5.185 19.511 1.56c0.641 0.285 1.229 0.681 1.738 1.19 0.478 0.478 0.855 1.024 1.137 1.619zM8.749 15.251c-0.509-0.509-0.905-1.097-1.19-1.738l3.866-3.866 2.842 2.841-3.898 3.898c-0.595-0.28-1.142-0.658-1.62-1.135zM12.132 8.94l3.049-3.049 2.842 2.842-3.049 3.049zM16.771 1.001c0.58 0 1.146 0.066 1.687 0.199L15.18 4.478 12.722 2.02c1.324-0.673 2.721-1.018 4.049-1.019zM10.003 4.003c0.569-0.569 1.182-1.059 1.821-1.469l2.649 2.649-3.049 3.049-2.698-2.698c0.368-0.535 0.795-1.049 1.277-1.531zM8.185 6.409l2.532 2.532-3.518 3.518c-0.023-0.092-0.133-0.746-0.148-0.827-0.197-1.675 0.193-3.519 1.134-5.223zM7.253 15.009c0.23 0.337 0.493 0.654 0.788 0.95 0.303 0.303 0.631 0.572 0.977 0.807-0.727 0.047-1.476 0.162-2.159 0.387 0.232-0.685 0.348-1.429 0.394-2.144zM12.674 16.979c-0.121-0.022-0.461-0.08-0.939-0.133-0.111-0.024-0.221-0.05-0.331-0.08l3.569-3.569 2.618 2.618c-1.6 0.885-3.325 1.283-4.917 1.164zM18.465 15.275 15.68 12.49l3.049-3.049 2.736 2.736c-0.41 0.639-0.9 1.252-1.469 1.821-0.483 0.483-0.997 0.909-1.531 1.277z" />
</svg>