<svg id="radio_alt_Layer_1" viewBox="0 0 24 24" fill="currentColor" width="32" height="32" data-name="Layer 1" xmlns="http://www.w3.org/2000/svg" xmlns:xlink="http://www.w3.org/1999/xlink">
    <title>radio-alt</title>
    <path d="M19.5 6H6.902l14.759-5.027c0.262-0.089 0.401-0.373 0.312-0.634-0.09-0.262-0.373-0.404-0.635-0.312L3.404 6.135C1.451 6.626 0 8.396 0 10.5v9C0 21.981 2.019 24 4.5 24h15c2.481 0 4.5-2.019 4.5-4.5v-9C24 8.019 21.981 6 19.5 6zM3.077 7.302 3.68 7.097C3.943 7.034 4.218 7 4.5 7h15c1.76 0 3.221 1.306 3.464 3H1.036C1.209 8.794 2 7.784 3.077 7.302zM19.5 23h-15C2.57 23 1 21.43 1 19.5V11h22v8.5c0 1.93-1.57 3.5-3.5 3.5zM11 13.5c0 0.276-0.224 0.5-0.5 0.5h-7C3.224 14 3 13.776 3 13.5S3.224 13 3.5 13h7c0.276 0 0.5 0.224 0.5 0.5zM11 20.5c0 0.276-0.224 0.5-0.5 0.5h-7C3.224 21 3 20.776 3 20.5S3.224 20 3.5 20h7c0.276 0 0.5 0.224 0.5 0.5zM11 17c0 0.276-0.224 0.5-0.5 0.5h-7C3.224 17.5 3 17.276 3 17s0.224-0.5 0.5-0.5h7c0.276 0 0.5 0.224 0.5 0.5zM17 13c-2.206 0-4 1.794-4 4s1.794 4 4 4 4-1.794 4-4-1.794-4-4-4zM17 20c-1.654 0-3-1.346-3-3s1.346-3 3-3 3 1.346 3 3-1.346 3-3 3z" />
</svg>