<svg id="radiation_alt_Layer_1" viewBox="0 0 24 24" fill="currentColor" width="32" height="32" data-name="Layer 1" xmlns="http://www.w3.org/2000/svg" xmlns:xlink="http://www.w3.org/1999/xlink">
    <title>radiation-alt</title>
    <path d="M12 0C5.383 0 0 5.383 0 12s5.383 12 12 12 12-5.383 12-12S18.617 0 12 0zM12 23C5.935 23 1 18.065 1 12S5.935 1 12 1 23 5.935 23 12 18.065 23 12 23zM20.97 10.354c-0.189-1.028-0.663-2.108-1.448-3.304-0.369-0.561-0.801-1.079-1.282-1.542-0.393-0.378-0.928-0.553-1.465-0.499-0.53 0.06-1.003 0.349-1.296 0.794l-2.845 4.31C12.434 10.045 12.223 10 12 10c-0.218 0-0.424 0.044-0.621 0.109L8.522 5.798C8.227 5.354 7.754 5.066 7.224 5.007 6.688 4.95 6.154 5.13 5.764 5.506 5.282 5.968 4.849 6.487 4.479 7.051 3.694 8.245 3.22 9.325 3.031 10.354c-0.099 0.537 0.044 1.084 0.391 1.501 0.34 0.41 0.841 0.645 1.373 0.646l5.28 9e-3c0.106 0.399 0.331 0.746 0.636 1.007-0.362 0.547-1.038 1.565-1.701 2.562l-1.253 1.887c-0.248 0.374-0.32 0.837-0.2 1.269 0.118 0.423 0.412 0.771 0.806 0.956 1.146 0.538 2.369 0.811 3.638 0.811s2.495-0.272 3.64-0.812c0.392-0.185 0.685-0.532 0.803-0.955 0.122-0.434 0.05-0.896-0.198-1.271l-2.941-4.457c0.299-0.259 0.519-0.602 0.623-0.996l5.28-9e-3c0.532 0 1.033-0.235 1.373-0.646 0.347-0.417 0.489-0.964 0.389-1.502zM13 12c0 0.552-0.448 1-1 1s-1-0.448-1-1 0.448-1 1-1 1 0.448 1 1zM4.189 11.216c-0.156-0.188-0.221-0.437-0.175-0.681 0.164-0.895 0.59-1.855 1.3-2.936 0.329-0.5 0.713-0.962 1.142-1.372C6.634 6.056 6.883 5.977 7.114 6 7.352 6.026 7.556 6.15 7.688 6.35l2.847 4.297c-0.222 0.24-0.384 0.534-0.468 0.861l-5.272-9e-3c-0.239 0-0.454-0.102-0.606-0.283zM15.41 18.513c0.087 0.133 0.112 0.297 0.069 0.451-0.023 0.084-0.089 0.237-0.266 0.32-2.018 0.948-4.402 0.951-6.426 0-0.179-0.084-0.244-0.237-0.268-0.321-0.043-0.151-0.018-0.314 0.07-0.446l1.252-1.886c0.952-1.433 1.472-2.218 1.753-2.673 0.131 0.027 0.266 0.041 0.405 0.041s0.274-0.014 0.405-0.041zM19.81 11.216c-0.152 0.183-0.367 0.284-0.606 0.284l-5.272 9e-3c-0.082-0.323-0.242-0.613-0.46-0.852l2.841-4.304c0.132-0.199 0.335-0.324 0.573-0.351 0.239-0.025 0.482 0.055 0.66 0.226 0.428 0.411 0.812 0.873 1.14 1.371 0.71 1.08 1.136 2.041 1.3 2.936 0.046 0.244-0.019 0.492-0.176 0.681z" />
</svg>