<svg id="radish_Layer_1" viewBox="0 0 24 24" fill="currentColor" width="32" height="32" data-name="Layer 1" xmlns="http://www.w3.org/2000/svg" xmlns:xlink="http://www.w3.org/1999/xlink">
    <title>radish</title>
    <path d="M23.989 11.132c-0.127-1.447-1.023-2.504-2.388-2.927 0.468-0.313 0.862-0.618 1.15-0.907 1.663-1.662 1.663-4.368 0-6.03-0.805-0.806-1.876-1.249-3.015-1.249s-2.211 0.443-3.016 1.249c-0.283 0.283-0.582 0.667-0.889 1.123-0.42-1.286-1.533-2.235-2.946-2.359-1.049-0.09-2.07 0.242-2.805 0.914C9.383 1.585 8.999 2.492 8.999 3.5c0 1.103 0.351 1.889 0.757 2.8 0.492 1.104 1.092 2.448 1.219 4.924-1.384-1.157-2.829-1.883-4.232-2.12-1.96-0.327-3.808 0.307-5.342 1.841-1.362 1.364-1.365 3.617-1.368 6.004 0 0.483-0.022 3.537-0.022 3.537-3e-3 0.938 0.359 1.819 1.021 2.483s1.542 1.03 2.479 1.03c0 0 3.102-0.013 3.597-0.013 2.386-0.014 4.617 0 5.973-1.354 2.688-2.689 2.55-6.221-0.304-9.611 2.505 0.121 3.844 0.725 4.943 1.22 0.901 0.406 1.681 0.758 2.784 0.758 0.868 0 1.802-0.454 2.499-1.214 0.707-0.772 1.067-1.739 0.986-2.653zM17.428 1.975c0.616-0.617 1.437-0.956 2.309-0.956s1.691 0.339 2.308 0.956c1.272 1.272 1.272 3.344 0 4.616-1.61 1.61-7.146 3.934-9.49 4.873 0.939-2.345 3.263-7.88 4.873-9.489zM10 3.5c0-0.734 0.262-1.362 0.756-1.815 0.528-0.484 1.273-0.724 2.042-0.656 1.346 0.118 2.307 1.309 2.207 2.72-1.181 2.104-2.362 4.846-3.089 6.622-0.21-2.155-0.774-3.42-1.246-4.478C10.295 5.053 10 4.39 10 3.5zM12.373 21.926c-1.064 1.062-3.094 1.057-5.266 1.062-0.508-3e-3-3.597 0.013-3.597 0.013-0.669 0-1.298-0.262-1.771-0.735-0.473-0.475-0.731-1.104-0.729-1.774 0 0 0.022-3.048 0.022-3.539 3e-3-2.175 5e-3-4.228 1.076-5.299 1.314-1.315 2.815-1.845 4.469-1.562 1.519 0.256 3.122 1.192 4.635 2.706 1.546 1.547 4.753 5.534 1.161 9.128zM22.265 13.111c-0.511 0.557-1.169 0.89-1.762 0.89-0.889 0-1.544-0.295-2.373-0.669-1.046-0.472-2.295-1.036-4.44-1.246 1.784-0.73 4.51-1.908 6.601-3.083 1.553 0.038 2.586 0.88 2.703 2.217 0.056 0.637-0.21 1.326-0.729 1.891z" />
</svg>