<svg id="radio_tower_Layer_1" viewBox="0 0 24 24" fill="currentColor" width="32" height="32" data-name="Layer 1" xmlns="http://www.w3.org/2000/svg" xmlns:xlink="http://www.w3.org/1999/xlink">
    <title>radio-tower</title>
    <path d="M13.104 3.665C13.643 3.306 14 2.695 14 2c0-1.103-0.897-2-2-2s-2 0.897-2 2c0 0.695 0.357 1.307 0.896 1.665l-7.86 19.649c-0.103 0.256 0.021 0.547 0.278 0.65 0.25 0.101 0.547-0.019 0.649-0.279l1.074-2.686h13.924l1.074 2.686c0.102 0.259 0.4 0.38 0.649 0.279 0.257-0.103 0.381-0.394 0.278-0.65zM18.204 19.105l-5.458-4.939 2.557-2.314zM12 13.492 9.246 11h5.509zM8.697 11.853l2.557 2.314-5.458 4.939zM12 14.841 17.702 20H6.298zM12 1c0.552 0 1 0.449 1 1s-0.448 1-1 1-1-0.449-1-1 0.448-1 1-1zM12 4c0.053 0 0.103-0.012 0.156-0.016L14.562 10H9.438l2.406-6.016C11.896 3.988 11.946 4 12 4zM15.584 3.778c0.478-0.962 0.547-2.096 0.188-3.112-0.092-0.26 0.045-0.546 0.306-0.638 0.262-0.09 0.547 0.045 0.638 0.306 0.447 1.269 0.361 2.686-0.235 3.888-0.124 0.25-0.429 0.347-0.671 0.226-0.247-0.123-0.348-0.423-0.226-0.67zM7.52 4.222C6.923 3.02 6.837 1.603 7.285 0.334c0.092-0.26 0.377-0.396 0.638-0.306C8.184 0.12 8.32 0.405 8.229 0.666 7.871 1.682 7.94 2.816 8.417 3.778c0.122 0.247 0.021 0.547-0.226 0.67C7.949 4.57 7.644 4.473 7.52 4.222zM17.161 7.465c-0.203-0.188-0.215-0.504-0.026-0.707 1.203-1.298 1.866-2.988 1.866-4.759 0-0.471-0.047-0.942-0.141-1.4-0.055-0.271 0.12-0.535 0.391-0.589 0.266-0.053 0.534 0.119 0.59 0.39 0.106 0.523 0.16 1.062 0.16 1.6 0 2.024-0.758 3.956-2.134 5.438-0.188 0.203-0.505 0.214-0.706 0.027zM6.135 7.438C4.759 5.955 4.001 4.024 4.001 2c0-0.538 0.054-1.076 0.16-1.6 0.056-0.271 0.324-0.443 0.59-0.39 0.271 0.055 0.445 0.319 0.391 0.589-0.094 0.458-0.141 0.929-0.141 1.4 0 1.771 0.663 3.461 1.866 4.759 0.188 0.202 0.177 0.519-0.026 0.707C6.64 7.652 6.323 7.641 6.135 7.438zM22 2c0-0.479-0.034-0.96-0.102-1.429-0.039-0.273 0.15-0.527 0.424-0.566 0.268-0.042 0.526 0.149 0.566 0.424 0.074 0.516 0.111 1.044 0.111 1.571 0 3.389-1.527 6.538-4.19 8.639-0.215 0.17-0.53 0.135-0.702-0.083-0.171-0.217-0.134-0.531 0.083-0.702C20.611 7.943 22 5.081 22 2zM1 2c0-0.527 0.037-1.056 0.111-1.571 0.04-0.275 0.295-0.466 0.567-0.424 0.273 0.04 0.463 0.293 0.424 0.566C2.035 1.039 2 1.52 2 2 2 5.081 3.389 7.943 5.81 9.854c0.217 0.171 0.254 0.485 0.083 0.702-0.172 0.218-0.487 0.253-0.702 0.083C2.527 8.538 1 5.389 1 2z" />
</svg>