<svg id="radio_waves_Layer_1" viewBox="0 0 24 24" fill="currentColor" width="32" height="32" data-name="Layer 1" xmlns="http://www.w3.org/2000/svg" xmlns:xlink="http://www.w3.org/1999/xlink">
    <title>radio-waves</title>
    <path d="M0.5 12h23c0.276 0 0.5-0.224 0.5-0.5S23.776 11 23.5 11h-6.984c-1-7.595-2.397-11-4.516-11S8.484 3.405 7.484 11H0.5C0.224 11 0 11.224 0 11.5S0.224 12 0.5 12zM12 1c0.82 0 2.348 1.335 3.506 10H8.494C9.652 2.334 11.181 1 12 1zM23.996 14.568C23.105 21.091 21.873 24 20 24s-3.105-2.909-3.996-9.432c-0.037-0.274 0.154-0.526 0.428-0.563 0.271-0.038 0.525 0.154 0.563 0.428 1.018 7.455 2.319 8.568 3.004 8.568s1.987-1.113 3.004-8.568c0.037-0.273 0.286-0.464 0.563-0.428 0.273 0.038 0.465 0.29 0.43 0.563zM7.996 14.568C7.105 21.091 5.873 24 4 24s-3.105-2.909-3.996-9.432c-0.037-0.274 0.154-0.526 0.428-0.563 0.275-0.038 0.526 0.154 0.563 0.428 1.018 7.455 2.319 8.568 3.004 8.568s1.987-1.113 3.004-8.568c0.038-0.273 0.29-0.464 0.563-0.428 0.273 0.038 0.465 0.29 0.43 0.563z" />
</svg>