<svg id="radio_Layer_1" viewBox="0 0 24 24" fill="currentColor" width="32" height="32" data-name="Layer 1" xmlns="http://www.w3.org/2000/svg" xmlns:xlink="http://www.w3.org/1999/xlink">
    <title>radio</title>
    <path d="M19.5 6H6.901l14.76-5.027c0.261-0.089 0.401-0.373 0.312-0.634-0.088-0.261-0.373-0.401-0.634-0.312L3.401 6.136C1.449 6.628 0 8.398 0 10.5v9C0 21.981 2.019 24 4.5 24h15c2.481 0 4.5-2.019 4.5-4.5v-9C24 8.019 21.981 6 19.5 6zM23 19.5c0 1.93-1.57 3.5-3.5 3.5h-15C2.57 23 1 21.43 1 19.5v-9c0-1.425 0.856-2.653 2.081-3.199l0.596-0.203C3.941 7.034 4.217 7 4.5 7h15c1.93 0 3.5 1.57 3.5 3.5zM9 13.5C9 13.776 8.776 14 8.5 14h-5C3.224 14 3 13.776 3 13.5S3.224 13 3.5 13h5C8.776 13 9 13.224 9 13.5zM9 16.5C9 16.776 8.776 17 8.5 17h-5C3.224 17 3 16.776 3 16.5S3.224 16 3.5 16h5C8.776 16 9 16.224 9 16.5zM9 19.5C9 19.776 8.776 20 8.5 20h-5C3.224 20 3 19.776 3 19.5S3.224 19 3.5 19h5C8.776 19 9 19.224 9 19.5zM9 10.5C9 10.776 8.776 11 8.5 11h-5C3.224 11 3 10.776 3 10.5S3.224 10 3.5 10h5C8.776 10 9 10.224 9 10.5zM16 10c-2.757 0-5 2.243-5 5s2.243 5 5 5 5-2.243 5-5-2.243-5-5-5zM16 19c-2.206 0-4-1.794-4-4s1.794-4 4-4 4 1.794 4 4-1.794 4-4 4zM16 13c-1.103 0-2 0.897-2 2s0.897 2 2 2 2-0.897 2-2-0.897-2-2-2zM16 16c-0.551 0-1-0.449-1-1s0.449-1 1-1 1 0.449 1 1-0.449 1-1 1z" />
</svg>