<svg id="raindrops_Layer_1" viewBox="0 0 24 24" fill="currentColor" width="32" height="32" data-name="Layer 1" xmlns="http://www.w3.org/2000/svg" xmlns:xlink="http://www.w3.org/1999/xlink">
    <title>raindrops</title>
    <path d="M21.221 0.871c-0.707-0.602-1.735-0.602-2.442 0-1.093 0.927-2.778 3.563-2.778 5.168 0 1.048 0.357 1.894 1.125 2.661 0.813 0.813 1.889 1.3 2.875 1.3 1.007 0 2.046-0.461 2.849-1.266 0.774-0.774 1.151-1.656 1.151-2.696 0-1.604-1.686-4.24-2.78-5.167zM22.142 8.027C21.534 8.636 20.733 9 20 9c-0.716 0-1.547-0.386-2.168-1.007C17.257 7.418 17 6.815 17 6.039c0-1.165 1.411-3.546 2.425-4.405 0.167-0.142 0.371-0.212 0.575-0.212s0.408 0.07 0.574 0.211C21.589 2.494 23 4.874 23 6.038c0 0.771-0.272 1.403-0.858 1.989zM10 7.049c0-2.007-2.137-5.332-3.522-6.508-0.855-0.727-2.099-0.727-2.956 0C2.136 1.718 0 5.042 0 7.05c0 1.308 0.446 2.363 1.404 3.321C2.425 11.392 3.769 12 5 12c1.256 0 2.554-0.577 3.562-1.585C9.53 9.448 10 8.347 10 7.049zM5 10.999c-0.957 0-2.063-0.512-2.889-1.336C1.342 8.894 1 8.088 1 7.049 1 5.392 2.946 2.341 4.168 1.304 4.409 1.099 4.704 0.997 5 0.997s0.59 0.102 0.831 0.306C7.054 2.341 9 5.392 9 7.049 9 8.081 8.637 8.926 7.855 9.707 7.045 10.516 5.978 10.999 5 10.999zM15.734 10.632v0c-1.004-0.85-2.462-0.849-3.468 0C10.527 12.103 8 15.736 8 18.082c0 1.561 0.535 2.82 1.685 3.966 1.226 1.222 2.84 1.951 4.315 1.951 1.506 0 3.064-0.691 4.274-1.897C19.435 20.946 20 19.631 20 18.081c0-2.345-2.526-5.978-4.266-7.449zM17.569 21.393c-1.01 1.006-2.344 1.606-3.569 1.606-1.218 0-2.566-0.62-3.61-1.66C9.429 20.381 9 19.377 9 18.082c0-1.96 2.337-5.354 3.912-6.687 0.314-0.267 0.701-0.399 1.088-0.399s0.772 0.133 1.089 0.399C16.664 12.728 19 16.122 19 18.081c0 1.287-0.455 2.34-1.431 3.312z" />
</svg>