<svg id="ram_Layer_1" viewBox="0 0 24 24" fill="currentColor" width="32" height="32" data-name="Layer 1" xmlns="http://www.w3.org/2000/svg" xmlns:xlink="http://www.w3.org/1999/xlink">
    <title>ram</title>
    <path d="M22.541 14.007c-0.264-0.041-0.53 0.137-0.576 0.41-0.121 0.718-0.557 1.346-1.195 1.722-0.483 0.286-0.771 0.792-0.77 1.362 0 0.927-0.498 1.783-1.271 2.181-0.695 0.36-1.386 0.417-2.056 0.168-0.474-0.175-0.991-0.048-1.323 0.321-0.791 0.881-2.187 1.08-3.186 0.432-0.404-0.261-0.926-0.261-1.33 0-0.999 0.646-2.394 0.448-3.186-0.432-0.331-0.368-0.85-0.495-1.323-0.321-0.667 0.248-1.358 0.192-2.056-0.168-0.772-0.398-1.271-1.254-1.271-2.187 0-0.563-0.286-1.07-0.77-1.356-0.771-0.454-1.23-1.253-1.23-2.139s0.46-1.685 1.23-2.139c0.483-0.286 0.771-0.792 0.77-1.362 0-0.927 0.498-1.783 1.271-2.181 0.693-0.359 1.383-0.416 2.055-0.169 0.469 0.173 0.992 0.049 1.325-0.321 0.663-0.739 1.754-1.019 2.68-0.683 0.256 0.094 0.546-0.041 0.64-0.3 0.095-0.26-0.04-0.546-0.3-0.641-1.304-0.473-2.833-0.081-3.763 0.954C6.847 7.222 6.759 7.242 6.67 7.21 5.74 6.868 4.752 6.944 3.811 7.429 2.709 7.997 1.999 9.202 1.999 10.508c0 0.205-0.104 0.389-0.277 0.492-1.079 0.635-1.723 1.757-1.723 3s0.644 2.365 1.723 3C1.896 17.103 2 17.287 1.999 17.5c0 1.297 0.71 2.503 1.812 3.071 0.391 0.201 0.789 0.315 1.188 0.375v1.555c0 0.827 0.673 1.5 1.5 1.5s1.5-0.673 1.5-1.5v-0.867c1.065 0.494 2.366 0.463 3.378-0.19 0.074-0.049 0.17-0.049 0.244 0 0.564 0.364 1.213 0.557 1.878 0.557 0.944 0 1.843-0.396 2.5-1.075v1.575c0 0.827 0.673 1.5 1.5 1.5s1.5-0.673 1.5-1.5v-1.854c0.063-0.029 0.126-0.044 0.188-0.076 1.102-0.568 1.812-1.773 1.812-3.079 0-0.205 0.104-0.389 0.277-0.492 0.893-0.526 1.503-1.407 1.674-2.417 0.046-0.272-0.138-0.53-0.409-0.576zM7 22.5C7 22.776 6.775 23 6.5 23S6 22.776 6 22.5v-1.541c0.226-0.034 0.451-0.088 0.672-0.17 0.089-0.034 0.177-0.012 0.233 0.051 0.033 0.036 0.073 0.064 0.107 0.099C7.009 20.96 7 22.501 7 22.5zM18 22.5c0 0.276-0.225 0.5-0.5 0.5S17 22.776 17 22.5v-1.541c0.331 0.05 0.666 0.036 1-0.014zM17 7c0 0.552-0.448 1-1 1s-1-0.448-1-1 0.448-1 1-1 1 0.448 1 1zM20 7c0 0.552-0.448 1-1 1s-1-0.448-1-1 0.448-1 1-1 1 0.448 1 1zM23.458 3.482c-0.706-0.167-1.912-0.402-3.277-0.574-0.21-0.157-0.435-0.293-0.671-0.412C19.656 1.726 19.963 1 21.499 1c0.276 0 0.5-0.224 0.5-0.5S21.775 0 21.499 0c-2.27 0-2.773 1.365-2.94 2.14C18.217 2.057 17.866 2 17.499 2s-0.719 0.056-1.06 0.14C16.273 1.366 15.77 0 13.499 0c-0.276 0-0.5 0.224-0.5 0.5s0.224 0.5 0.5 0.5c1.536 0 1.843 0.726 1.989 1.496-0.236 0.119-0.461 0.254-0.671 0.412-1.364 0.172-2.571 0.407-3.277 0.574-0.475 0.113-0.689 0.658-0.431 1.072 0.407 0.653 1.148 1.104 1.955 1.298-0.031 0.213-0.065 0.426-0.065 0.648v3.879c0 2.268 1.683 3.621 4.5 3.621s4.5-1.354 4.5-3.621V6.5c0-0.222-0.034-0.435-0.065-0.648 0.807-0.194 1.548-0.644 1.955-1.298 0.258-0.414 0.044-0.96-0.431-1.072zM21 10.379C21 12.66 18.808 13 17.5 13S14 12.66 14 10.379V6.5C14 4.57 15.57 3 17.5 3S21 4.57 21 6.5z" />
</svg>