<svg id="ramp_loading_Layer_1" viewBox="0 0 24 24" fill="currentColor" width="32" height="32" data-name="Layer 1" xmlns="http://www.w3.org/2000/svg" xmlns:xlink="http://www.w3.org/1999/xlink">
    <title>ramp-loading</title>
    <path d="M19.497 24H4.498c-0.865 0-1.656-0.438-2.117-1.17-0.46-0.733-0.511-1.636-0.135-2.415l3.102-6.435C5.927 12.777 7.165 12 8.5 12h6.995c1.335 0 2.572 0.777 3.153 1.98l3.101 6.435c0.376 0.779 0.326 1.682-0.134 2.415-0.461 0.733-1.252 1.171-2.118 1.17zM8.5 13c-0.954 0-1.838 0.555-2.252 1.415L3.146 20.85c-0.226 0.468-0.194 1.009 0.081 1.449 0.276 0.439 0.751 0.702 1.271 0.702h14.999c0.52 0 0.995-0.263 1.271-0.703 0.276-0.439 0.307-0.981 0.081-1.448l-3.101-6.435C17.333 13.556 16.449 13 15.495 13zM22 14.5v-10C22 2.019 19.981 0 17.5 0h-11C4.019 0 2 2.019 2 4.5v10C2 14.776 2.224 15 2.5 15S3 14.776 3 14.5v-10C3 2.57 4.57 1 6.5 1h11C19.43 1 21 2.57 21 4.5v10c0 0.276 0.224 0.5 0.5 0.5s0.5-0.224 0.5-0.5z" />
</svg>