<svg id="ranking_podium_Layer_1" viewBox="0 0 24 24" fill="currentColor" width="32" height="32" data-name="Layer 1" xmlns="http://www.w3.org/2000/svg" xmlns:xlink="http://www.w3.org/1999/xlink">
    <title>ranking-podium</title>
    <path d="M23 12.5c0-0.827-0.673-1.5-1.5-1.5h-1c-0.276 0-0.5-0.224-0.5-0.5s0.224-0.5 0.5-0.5h0.282c0.827 0 1.5-0.673 1.5-1.5S21.609 7 20.782 7H18.5C18.224 7 18 6.776 18 6.5S18.224 6 18.5 6h2.282c1.378 0 2.5 1.121 2.5 2.5 0 0.677-0.271 1.292-0.709 1.742C23.416 10.644 24 11.505 24 12.5c0 1.379-1.122 2.5-2.5 2.5h-3c-0.276 0-0.5-0.224-0.5-0.5s0.224-0.5 0.5-0.5h3c0.827 0 1.5-0.673 1.5-1.5zM24 20v1c0 1.654-1.346 3-3 3H3c-1.654 0-3-1.346-3-3v-4c0-1.654 1.346-3 3-3h2.5c0.768 0 1.469 0.29 2 0.766V14c0-1.654 1.346-3 3-3h3c1.654 0 3 1.346 3 3v3.766C17.031 17.29 17.732 17 18.5 17H21c1.654 0 3 1.346 3 3zM8.5 23h7v-9c0-1.103-0.897-2-2-2h-3c-1.103 0-2 0.897-2 2zM3 23h4.5v-6c0-1.103-0.897-2-2-2H3c-1.103 0-2 0.897-2 2v4c0 1.103 0.897 2 2 2zM23 20c0-1.103-0.897-2-2-2h-2.5c-1.103 0-2 0.897-2 2v3H21c1.103 0 2-0.897 2-2zM10.361 2.847 12 1.139V8.5C12 8.776 12.224 9 12.5 9S13 8.776 13 8.5V1c0-0.383-0.229-0.726-0.583-0.872-0.355-0.147-0.758-0.066-1.037 0.211L9.638 2.153C9.447 2.352 9.453 2.67 9.653 2.86c0.198 0.192 0.516 0.185 0.708-0.013zM2.282 8.592C1.612 8.986 0.98 9.358 0.481 9.809c-0.437 0.394-0.589 0.91-0.408 1.38 0.192 0.501 0.71 0.812 1.352 0.812H5.5c0.276 0 0.5-0.224 0.5-0.5s-0.224-0.5-0.5-0.5H1.425c-0.232 0-0.386-0.086-0.419-0.17-0.026-0.068 0.029-0.175 0.145-0.279 0.423-0.384 1.013-0.729 1.637-1.097 1.505-0.884 3.211-1.887 3.211-3.849 0-1.559-1.54-2.605-2.978-2.605S0.288 4.032 0.01 5.4c-0.055 0.271 0.12 0.535 0.391 0.59C0.67 6.045 0.935 5.87 0.99 5.599c0.185-0.912 1.059-1.6 2.032-1.6C3.958 3.999 5 4.658 5 5.604 5 6.994 3.68 7.77 2.282 8.592z" />
</svg>