<svg id="ranking_stars_Layer_1" viewBox="0 0 24 24" fill="currentColor" width="32" height="32" data-name="Layer 1" xmlns="http://www.w3.org/2000/svg" xmlns:xlink="http://www.w3.org/1999/xlink">
    <title>ranking-stars</title>
    <path d="M21 11h-2.5c-1.654 0-3 1.346-3 3v0.766C14.969 14.29 14.268 14 13.5 14h-3c-1.654 0-3 1.346-3 3v0.269C7.206 17.098 6.864 17 6.5 17H3c-1.654 0-3 1.346-3 3v1c0 1.654 1.346 3 3 3h18c1.654 0 3-1.346 3-3v-7c0-1.654-1.346-3-3-3zM8.5 17c0-1.103 0.897-2 2-2h3c1.103 0 2 0.897 2 2v6h-7zM1 21v-1c0-1.103 0.897-2 2-2h3.5c0.552 0 1 0.449 1 1v4H3c-1.103 0-2-0.897-2-2zM23 21c0 1.103-0.897 2-2 2h-4.5v-9c0-1.103 0.897-2 2-2H21c1.103 0 2 0.897 2 2zM16.391 4.034 17.51 4.945 17.068 6.274c-0.138 0.438 0.017 0.917 0.385 1.193 0.187 0.139 0.417 0.215 0.648 0.215 0.214 0 0.422-0.063 0.603-0.183l1.306-0.874 1.33 0.866c0.385 0.251 0.887 0.229 1.251-0.049 0.365-0.28 0.514-0.762 0.365-1.208l-0.455-1.297 1.114-0.907c0.347-0.292 0.476-0.774 0.32-1.2s-0.564-0.712-1.018-0.712h-1.398l-0.503-1.413C20.859 0.283 20.451-1e-3 20-1e-3s-0.858 0.284-1.018 0.712l-0.501 1.406h-1.398c-0.452 0-0.861 0.285-1.016 0.708-0.157 0.424-0.03 0.907 0.324 1.209zM17.083 3.118h1.751c0.212 0 0.4-0.133 0.471-0.332l0.619-1.738h0.152l0.619 1.738c0.07 0.199 0.259 0.332 0.471 0.332h1.751l0.06 0.142-1.38 1.125c-0.164 0.133-0.227 0.354-0.156 0.553l0.571 1.628-0.128 0.088-1.606-1.046c-0.168-0.109-0.384-0.107-0.551 3e-3l-1.578 1.057c-0.015 0.01-0.03 0.015-0.048 0.015l-0.082-0.101 0.549-1.649c0.065-0.197 2e-3-0.415-0.159-0.545L17.022 3.26zM8.391 6.925 9.51 7.836 9.068 9.165c-0.138 0.438 0.017 0.917 0.384 1.192 0.188 0.142 0.413 0.216 0.649 0.216 0.214 0 0.422-0.063 0.603-0.183l1.306-0.874 1.33 0.866c0.385 0.25 0.886 0.229 1.251-0.049 0.365-0.28 0.514-0.762 0.365-1.208l-0.455-1.297 1.114-0.907c0.347-0.292 0.476-0.774 0.32-1.2s-0.564-0.712-1.018-0.712h-1.398l-0.503-1.413C12.859 3.174 12.451 2.89 12 2.89s-0.858 0.284-1.018 0.712l-0.501 1.406H9.083c-0.453 0-0.861 0.286-1.016 0.708-0.157 0.425-0.03 0.907 0.324 1.209zM9.083 6.009h1.751c0.212 0 0.4-0.133 0.471-0.332l0.619-1.738h0.152l0.619 1.738c0.07 0.199 0.259 0.332 0.471 0.332h1.751l0.06 0.142-1.38 1.125c-0.164 0.133-0.227 0.354-0.156 0.553l0.571 1.628-0.128 0.088-1.606-1.046c-0.167-0.109-0.384-0.107-0.551 3e-3l-1.578 1.057c-0.015 0.01-0.03 0.015-0.048 0.015l-0.082-0.101 0.549-1.649c0.065-0.197 2e-3-0.415-0.159-0.545L9.022 6.151zM0.391 10.925 1.51 11.836 1.068 13.165c-0.138 0.438 0.017 0.917 0.384 1.192 0.188 0.142 0.413 0.216 0.649 0.216 0.214 0 0.422-0.063 0.603-0.183l1.306-0.874 1.33 0.866c0.385 0.25 0.886 0.23 1.251-0.049 0.365-0.28 0.514-0.762 0.365-1.208l-0.455-1.297 1.114-0.907c0.347-0.292 0.476-0.774 0.32-1.2S7.371 9.009 6.917 9.009H5.519L5.016 7.596C4.859 7.174 4.451 6.89 4 6.89S3.142 7.174 2.982 7.602L2.481 9.008H1.083c-0.453 0-0.861 0.286-1.016 0.708-0.157 0.425-0.03 0.907 0.324 1.209zM1.083 10.009h1.751c0.212 0 0.4-0.133 0.471-0.332l0.619-1.738h0.152l0.619 1.738c0.07 0.199 0.259 0.332 0.471 0.332h1.751l0.06 0.142-1.38 1.125c-0.164 0.133-0.227 0.354-0.156 0.553l0.571 1.628-0.128 0.088-1.606-1.046c-0.167-0.109-0.384-0.108-0.551 3e-3l-1.578 1.057c-0.015 0.01-0.03 0.015-0.048 0.015l-0.082-0.101 0.549-1.649c0.065-0.197 2e-3-0.415-0.159-0.545l-1.387-1.128z" />
</svg>