<svg id="rank_Layer_1" viewBox="0 0 24 24" fill="currentColor" width="32" height="32" data-name="Layer 1" xmlns="http://www.w3.org/2000/svg" xmlns:xlink="http://www.w3.org/1999/xlink">
    <title>rank</title>
    <path d="M21 10c1.103 0 2-0.897 2-2s-0.897-2-2-2-2 0.897-2 2 0.897 2 2 2zM21 7c0.552 0 1 0.449 1 1s-0.448 1-1 1-1-0.449-1-1 0.448-1 1-1zM18.011 13.398C18.298 12.008 19.556 11 21 11s2.702 1.009 2.989 2.398C24.046 13.669 23.77 13.943 23.5 14c-0.231 0-0.44-0.163-0.489-0.398C22.819 12.674 21.973 12 21 12s-1.818 0.673-2.011 1.602c-0.056 0.271-0.324 0.442-0.591 0.388-0.271-0.056-0.444-0.321-0.387-0.592zM12 4c1.103 0 2-0.897 2-2s-0.897-2-2-2-2 0.897-2 2 0.897 2 2 2zM12 1c0.551 0 1 0.449 1 1s-0.449 1-1 1-1-0.449-1-1 0.449-1 1-1zM23.5 14c0.034 0-0.034 7e-3 0 0zM14.5 8c0.034 0-0.034 7e-3 0 0zM5.5 12c0.034 0-0.034 7e-3 0 0zM21 16h-2.5c-0.768 0-1.469 0.29-2 0.766V13c0-1.654-1.346-3-3-3h-3c-1.654 0-3 1.346-3 3v1.766C6.969 14.29 6.268 14 5.5 14H3c-1.654 0-3 1.346-3 3v4c0 1.654 1.346 3 3 3h18c1.654 0 3-1.346 3-3v-2c0-1.654-1.346-3-3-3zM7.5 23H3c-1.103 0-2-0.897-2-2v-4c0-1.103 0.897-2 2-2h2.5c1.103 0 2 0.897 2 2zM15.5 23h-7V13c0-1.103 0.897-2 2-2h3c1.103 0 2 0.897 2 2zM23 21c0 1.103-0.897 2-2 2h-4.5v-4c0-1.103 0.897-2 2-2H21c1.103 0 2 0.897 2 2zM0.01 11.398C0.298 10.008 1.555 9 3 9s2.702 1.009 2.99 2.398C6.046 11.669 5.77 11.943 5.5 12c-0.232 0-0.441-0.163-0.49-0.398C4.818 10.674 3.972 10 3 10s-1.818 0.673-2.01 1.602c-0.056 0.27-0.322 0.442-0.591 0.388-0.27-0.056-0.444-0.321-0.389-0.592zM3 8c1.103 0 2-0.897 2-2S4.103 4 3 4 1 4.897 1 6 1.897 8 3 8zM3 5c0.551 0 1 0.449 1 1S3.551 7 3 7 2 6.551 2 6 2.449 5 3 5zM9.01 7.398C9.298 6.008 10.555 5 12 5s2.702 1.009 2.989 2.398C15.046 7.669 14.77 7.943 14.5 8c-0.231 0-0.44-0.163-0.489-0.398C13.819 6.674 12.973 6 12 6s-1.818 0.673-2.01 1.602C9.933 7.872 9.664 8.044 9.399 7.99 9.129 7.934 8.955 7.669 9.01 7.398z" />
</svg>