<svg id="ranking_podium_empty_Layer_1" viewBox="0 0 24 24" fill="currentColor" width="32" height="32" data-name="Layer 1" xmlns="http://www.w3.org/2000/svg" xmlns:xlink="http://www.w3.org/1999/xlink">
    <title>ranking-podium-empty</title>
    <path d="M21 11h-2c-0.771 0-1.468 0.301-2 0.78V6c0-1.654-1.346-3-3-3h-4C8.346 3 7 4.346 7 6v3.78C6.468 9.3 5.771 9 5 9H3c-1.654 0-3 1.346-3 3v6c0 1.654 1.346 3 3 3h18c1.654 0 3-1.346 3-3v-4c0-1.654-1.346-3-3-3zM1 18v-6c0-1.103 0.897-2 2-2h2c1.103 0 2 0.897 2 2v8H3c-1.103 0-2-0.897-2-2zM8 6c0-1.103 0.897-2 2-2h4c1.103 0 2 0.897 2 2v14H8zM23 18c0 1.103-0.897 2-2 2h-4v-6c0-1.103 0.897-2 2-2h2c1.103 0 2 0.897 2 2z" />
</svg>