<svg id="razor_barber_Layer_1" viewBox="0 0 24 24" fill="currentColor" width="32" height="32" data-name="Layer 1" xmlns="http://www.w3.org/2000/svg" xmlns:xlink="http://www.w3.org/1999/xlink">
    <title>razor-barber</title>
    <path d="M23.993 0.583c0.045-0.272-0.138-0.53-0.411-0.576-0.272-0.047-0.53 0.138-0.576 0.411-0.132 0.788-0.656 1.188-1.182 1.394C21.573 1.332 21.077 1 20.499 1c-0.651 0-1.201 0.419-1.408 1h-3.445c0 0-9e-3 0-0.013 0H3.5C1.735 2 0.242 3.321 0.026 5.072l-0.084 0.684c-0.07 0.568 0.107 1.14 0.486 1.569S1.354 8 1.927 8H12.39c1.778 0 3.273-1.332 3.477-3.099L16.087 3h2.895c-0.182 4.555-2.809 11.556-7.118 15.893-1.162 1.177-1.149 3.081 0.028 4.243 0.583 0.576 1.346 0.863 2.107 0.863 0.774 0 1.549-0.297 2.135-0.891 5.524-5.596 5.85-18.118 5.865-20.3 1.093-0.364 1.814-1.156 1.994-2.225zM14.874 4.787C14.728 6.049 13.66 7 12.39 7H1.927C1.636 7 1.37 6.88 1.177 6.662 0.985 6.445 0.898 6.166 0.934 5.878l0.084-0.684C1.172 3.943 2.239 3 3.499 3h11.58zM15.423 22.405c-0.774 0.785-2.044 0.793-2.828 0.019-0.785-0.774-0.793-2.043-0.02-2.827C17.398 14.743 20 7.166 20 2.501c0-0.276 0.224-0.5 0.5-0.5s0.5 0.224 0.5 0.5v5e-3c1e-3 0.141 0.064 14.186-5.577 19.899zM15 21c0 0.552-0.448 1-1 1s-1-0.448-1-1 0.448-1 1-1 1 0.448 1 1z" />
</svg>