<svg id="recipe_book_Layer_1" viewBox="0 0 24 24" fill="currentColor" width="32" height="32" data-name="Layer 1" xmlns="http://www.w3.org/2000/svg" xmlns:xlink="http://www.w3.org/1999/xlink">
    <title>recipe-book</title>
    <path d="M17.5 0h-11C4.019 0 2 2.019 2 4.5v16C2 22.43 3.57 24 5.5 24h12c2.481 0 4.5-2.019 4.5-4.5v-15C22 2.019 19.981 0 17.5 0zM3 4.5C3 2.57 4.57 1 6.5 1h11C19.43 1 21 2.57 21 4.5V17H5.5c-0.98 0-1.864 0.407-2.5 1.058zM17.5 23h-12C4.122 23 3 21.879 3 20.5S4.122 18 5.5 18H21v1.5c0 1.93-1.57 3.5-3.5 3.5zM8 8.95v3.55c0 1.379 1.122 2.5 2.5 2.5h3c1.378 0 2.5-1.121 2.5-2.5V8.95c1.14-0.232 2-1.243 2-2.45 0-1.379-1.122-2.5-2.5-2.5-0.618 0-1.21 0.232-1.664 0.639-1.048-0.82-2.624-0.82-3.672 0C9.71 4.233 9.118 4 8.5 4 7.122 4 6 5.121 6 6.5 6 7.707 6.86 8.718 8 8.95zM8.5 5c0.485 0 0.943 0.239 1.225 0.64 0.088 0.125 0.229 0.203 0.381 0.211 0.158 0.022 0.301-0.054 0.402-0.168 0.778-0.881 2.205-0.881 2.983 0 0.101 0.114 0.246 0.185 0.402 0.168 0.153-8e-3 0.293-0.086 0.381-0.211 0.282-0.4 0.74-0.64 1.225-0.64 0.827 0 1.5 0.673 1.5 1.5S16.326 8 15.499 8c-0.276 0-0.5 0.224-0.5 0.5v4c0 0.827-0.673 1.5-1.5 1.5h-3c-0.827 0-1.5-0.673-1.5-1.5v-4c0-0.276-0.224-0.5-0.5-0.5-0.827 0-1.5-0.673-1.5-1.5S7.672 5 8.5 5z" />
</svg>