<svg id="recipe_Layer_1" viewBox="0 0 24 24" fill="currentColor" width="32" height="32" data-name="Layer 1" xmlns="http://www.w3.org/2000/svg" xmlns:xlink="http://www.w3.org/1999/xlink">
    <title>recipe</title>
    <path d="M19.5 13h-11C8.224 13 8 12.776 8 12.5S8.224 12 8.5 12h11c0.276 0 0.5 0.224 0.5 0.5S19.776 13 19.5 13zM12.5 9h7C19.776 9 20 8.776 20 8.5S19.776 8 19.5 8h-7C12.224 8 12 8.224 12 8.5S12.224 9 12.5 9zM8.5 16C8.224 16 8 16.224 8 16.5S8.224 17 8.5 17h4c0.276 0 0.5-0.224 0.5-0.5S12.776 16 12.5 16zM4.5 10C3.122 10 2 8.879 2 7.5V4.95C0.86 4.718 0 3.707 0 2.5 0 1.121 1.122 0 2.5 0 3.118 0 3.71 0.232 4.164 0.639c1.048-0.82 2.624-0.82 3.672 0C8.29 0.233 8.882 0 9.5 0 10.878 0 12 1.121 12 2.5c0 1.207-0.86 2.218-2 2.45V7.5C10 8.879 8.878 10 7.5 10zM4.5 9h3C8.327 9 9 8.327 9 7.5v-3C9 4.224 9.224 4 9.5 4 10.327 4 11 3.327 11 2.5S10.327 1 9.5 1C9.015 1 8.557 1.239 8.275 1.64 8.187 1.765 8.046 1.843 7.894 1.851 7.737 1.867 7.593 1.797 7.492 1.683c-0.778-0.881-2.205-0.881-2.983 0-0.101 0.115-0.245 0.189-0.402 0.168-0.153-8e-3-0.293-0.086-0.381-0.211C3.444 1.24 2.986 1 2.501 1c-0.827 0-1.5 0.673-1.5 1.5S1.674 4 2.501 4c0.276 0 0.5 0.224 0.5 0.5v3C3.001 8.327 3.674 9 4.5 9zM24 4.5v9.515c0 1.736-0.677 3.369-1.904 4.597l-3.484 3.484C17.384 23.324 15.752 24 14.015 24H8.5C6.019 24 4 21.981 4 19.5v-7C4 12.224 4.224 12 4.5 12S5 12.224 5 12.5v7C5 21.43 6.57 23 8.5 23h5.515c0.335 0 0.663-0.038 0.985-0.096V17.5c0-1.379 1.121-2.5 2.5-2.5h5.404C22.962 14.677 23 14.349 23 14.015V4.5C23 2.57 21.43 1 19.5 1h-5C14.224 1 14 0.776 14 0.5S14.224 0 14.5 0h5C21.981 0 24 2.019 24 4.5zM22.62 16H17.5c-0.827 0-1.5 0.673-1.5 1.5v5.121c0.704-0.273 1.354-0.682 1.904-1.232l3.484-3.484c0.55-0.55 0.959-1.2 1.232-1.905z" />
</svg>