<svg id="rectangle_code_Layer_1" viewBox="0 0 24 24" fill="currentColor" width="32" height="32" data-name="Layer 1" xmlns="http://www.w3.org/2000/svg" xmlns:xlink="http://www.w3.org/1999/xlink">
    <title>rectangle-code</title>
    <path d="M19.5 22h-15C2.019 22 0 19.981 0 17.5v-11C0 4.019 2.019 2 4.5 2h15C21.981 2 24 4.019 24 6.5v11c0 2.481-2.019 4.5-4.5 4.5zM4.5 3C2.57 3 1 4.57 1 6.5v11C1 19.43 2.57 21 4.5 21h15c1.93 0 3.5-1.57 3.5-3.5v-11C23 4.57 21.43 3 19.5 3zM15.184 16.854l3.083-3.083c0.472-0.473 0.732-1.1 0.732-1.768s-0.26-1.296-0.732-1.768l-3.088-3.088c-0.195-0.195-0.512-0.195-0.707 0s-0.195 0.512 0 0.707l3.088 3.088c0.283 0.283 0.439 0.66 0.439 1.061s-0.156 0.778-0.439 1.061l-3.083 3.083c-0.195 0.195-0.195 0.512 0 0.707C14.575 16.952 14.703 17 14.831 17s0.256-0.049 0.353-0.146zM9.523 16.854c0.195-0.195 0.195-0.512 0-0.707L6.44 13.064c-0.283-0.283-0.439-0.66-0.439-1.061s0.156-0.777 0.439-1.061l3.088-3.088c0.195-0.195 0.195-0.512 0-0.707s-0.512-0.195-0.707 0l-3.088 3.088c-0.472 0.472-0.732 1.1-0.732 1.768s0.26 1.295 0.732 1.768l3.083 3.083C8.914 16.952 9.042 17 9.17 17s0.256-0.049 0.353-0.146z" />
</svg>