<svg id="rectangle_history_circle_plus_Layer_1" viewBox="0 0 24 24" fill="currentColor" width="32" height="32" data-name="Layer 1" xmlns="http://www.w3.org/2000/svg" xmlns:xlink="http://www.w3.org/1999/xlink">
    <title>rectangle-history-circle-plus</title>
    <path d="M6 0.5C6 0.224 6.224 0 6.5 0h11C17.776 0 18 0.224 18 0.5S17.776 1 17.5 1h-11C6.224 1 6 0.776 6 0.5zM3.5 6h17C20.776 6 21 5.776 21 5.5S20.776 5 20.5 5h-17C3.224 5 3 5.224 3 5.5S3.224 6 3.5 6zM24 17.5c0 3.584-2.916 6.5-6.5 6.5S11 21.084 11 17.5 13.916 11 17.5 11 24 13.916 24 17.5zM23 17.5c0-3.032-2.467-5.5-5.5-5.5S12 14.468 12 17.5 14.467 23 17.5 23 23 20.532 23 17.5zM20.5 17H18v-2.5c0-0.276-0.224-0.5-0.5-0.5S17 14.224 17 14.5V17h-2.5c-0.276 0-0.5 0.224-0.5 0.5s0.224 0.5 0.5 0.5H17v2.5c0 0.276 0.224 0.5 0.5 0.5s0.5-0.224 0.5-0.5V18h2.5c0.276 0 0.5-0.224 0.5-0.5S20.776 17 20.5 17zM10.5 23h-6C2.57 23 1 21.43 1 19.5v-5C1 12.57 2.57 11 4.5 11h7c0.276 0 0.5-0.224 0.5-0.5S11.776 10 11.5 10h-7C2.019 10 0 12.019 0 14.5v5C0 21.981 2.019 24 4.5 24h6c0.276 0 0.5-0.224 0.5-0.5S10.776 23 10.5 23z" />
</svg>