<svg id="rectangle_xmark_Layer_1" viewBox="0 0 24 24" fill="currentColor" width="32" height="32" data-name="Layer 1" xmlns="http://www.w3.org/2000/svg" xmlns:xlink="http://www.w3.org/1999/xlink">
    <title>rectangle-xmark</title>
    <path d="M19.5 2h-15C2.019 2 0 4.019 0 6.5v11C0 19.981 2.019 22 4.5 22h15c2.481 0 4.5-2.019 4.5-4.5v-11C24 4.019 21.981 2 19.5 2zM23 17.5c0 1.93-1.57 3.5-3.5 3.5h-15C2.57 21 1 19.43 1 17.5v-11C1 4.57 2.57 3 4.5 3h15C21.43 3 23 4.57 23 6.5zM15.854 8.854 12.708 12l3.146 3.146c0.195 0.195 0.195 0.512 0 0.707-0.098 0.098-0.226 0.146-0.354 0.146s-0.256-0.049-0.354-0.146L12 12.707 8.854 15.853c-0.098 0.098-0.226 0.146-0.354 0.146s-0.256-0.049-0.354-0.146c-0.195-0.195-0.195-0.512 0-0.707L11.292 12 8.146 8.854c-0.195-0.195-0.195-0.512 0-0.707s0.512-0.195 0.707 0l3.146 3.146 3.146-3.146c0.195-0.195 0.512-0.195 0.707 0s0.195 0.512 2e-3 0.707z" />
</svg>