<svg id="rectangle_pro_Layer_1" viewBox="0 0 24 24" fill="currentColor" width="32" height="32" data-name="Layer 1" xmlns="http://www.w3.org/2000/svg" xmlns:xlink="http://www.w3.org/1999/xlink">
    <title>rectangle-pro</title>
    <path d="M0 5.5C0 3.57 1.57 2 3.5 2h17C22.43 2 24 3.57 24 5.5 24 5.78 23.78 6 23.5 6S23 5.78 23 5.5C23 4.12 21.88 3 20.5 3h-17C2.12 3 1 4.12 1 5.5 1 5.78 0.78 6 0.5 6S0 5.78 0 5.5zM23.67 19.03c-0.26-0.09-0.55 0.04-0.64 0.31-0.35 1-1.3 1.67-2.36 1.67H3.33c-1.06 0-2.01-0.67-2.36-1.67-0.09-0.26-0.38-0.39-0.64-0.31-0.26 0.09-0.4 0.38-0.31 0.64 0.49 1.4 1.82 2.33 3.3 2.33h17.35c1.48 0 2.81-0.94 3.3-2.33 0.09-0.26-0.04-0.55-0.3-0.64zM0 16.5v-7C0 8.12 1.12 7 2.5 7H4c1.65 0 3 1.35 3 3s-1.35 3-3 3H1v3.5C1 16.78 0.78 17 0.5 17S0 16.78 0 16.5zM1 12h3c1.1 0 2-0.9 2-2S5.1 8 4 8H2.5C1.67 8 1 8.67 1 9.5zM12.83 12.88l2.1 3.35c0.15 0.23 0.08 0.54-0.16 0.69C14.69 16.97 14.6 17 14.51 17c-0.17 0-0.33-0.08-0.42-0.23L11.74 13H9.02v3.5c0 0.28-0.22 0.5-0.5 0.5s-0.5-0.22-0.5-0.5v-7c0-1.38 1.12-2.5 2.5-2.5h1.5c1.65 0 3 1.35 3 3 0 1.37-0.92 2.52-2.19 2.88zM14 10c0-1.1-0.9-2-2-2h-1.5C9.67 8 9 8.67 9 9.5V12h3c1.1 0 2-0.9 2-2zM24 10.5v3c0 1.93-1.57 3.5-3.5 3.5S17 15.43 17 13.5v-3C17 8.57 18.57 7 20.5 7S24 8.57 24 10.5zM23 10.5C23 9.12 21.88 8 20.5 8S18 9.12 18 10.5v3c0 1.38 1.12 2.5 2.5 2.5s2.5-1.12 2.5-2.5z" />
</svg>