<svg id="rectangle_barcode_Layer_1" viewBox="0 0 24 24" fill="currentColor" width="32" height="32" data-name="Layer 1" xmlns="http://www.w3.org/2000/svg" xmlns:xlink="http://www.w3.org/1999/xlink">
    <title>rectangle-barcode</title>
    <path d="M19.5 22h-15C2.019 22 0 19.981 0 17.5v-11C0 4.019 2.019 2 4.5 2h15C21.981 2 24 4.019 24 6.5v11c0 2.481-2.019 4.5-4.5 4.5zM4.5 3C2.57 3 1 4.57 1 6.5v11C1 19.43 2.57 21 4.5 21h15c1.93 0 3.5-1.57 3.5-3.5v-11C23 4.57 21.43 3 19.5 3zM5 17.5v-11C5 6.224 4.776 6 4.5 6S4 6.224 4 6.5v11C4 17.776 4.224 18 4.5 18S5 17.776 5 17.5zM15 17.5v-11C15 6.224 14.776 6 14.5 6S14 6.224 14 6.5v11c0 0.276 0.224 0.5 0.5 0.5s0.5-0.224 0.5-0.5zM9 17V7c0-0.552-0.447-1-1-1S7 6.448 7 7v10c0 0.553 0.447 1 1 1s1-0.447 1-1zM12 17V7c0-0.552-0.447-1-1-1s-1 0.448-1 1v10c0 0.553 0.447 1 1 1s1-0.447 1-1zM20 17V7c0-0.552-0.447-1-1-1s-1 0.448-1 1v10c0 0.553 0.447 1 1 1s1-0.447 1-1zM17 17.5v-11C17 6.224 16.776 6 16.5 6S16 6.224 16 6.5v11c0 0.276 0.224 0.5 0.5 0.5s0.5-0.224 0.5-0.5z" />
</svg>