<svg id="rectangle_vertical_history_Layer_1" viewBox="0 0 24 24" fill="currentColor" width="32" height="32" data-name="Layer 1" xmlns="http://www.w3.org/2000/svg" xmlns:xlink="http://www.w3.org/1999/xlink">
    <title>rectangle-vertical-history</title>
    <path d="M19.5 0h-5C12.019 0 10 2.019 10 4.5v15c0 2.481 2.019 4.5 4.5 4.5h5c2.481 0 4.5-2.019 4.5-4.5v-15C24 2.019 21.981 0 19.5 0zM23 19.5c0 1.93-1.57 3.5-3.5 3.5h-5c-1.93 0-3.5-1.57-3.5-3.5v-15C11 2.57 12.57 1 14.5 1h5C21.43 1 23 2.57 23 4.5zM6 3.5v17C6 20.776 5.776 21 5.5 21S5 20.776 5 20.5v-17C5 3.224 5.224 3 5.5 3S6 3.224 6 3.5zM1 6.5v11C1 17.776 0.776 18 0.5 18S0 17.776 0 17.5v-11C0 6.224 0.224 6 0.5 6S1 6.224 1 6.5z" />
</svg>