<svg id="recycle_Layer_1" viewBox="0 0 24 24" fill="currentColor" width="32" height="32" data-name="Layer 1" xmlns="http://www.w3.org/2000/svg" xmlns:xlink="http://www.w3.org/1999/xlink">
    <title>recycle</title>
    <path d="M23.488 17.842C22.759 19.174 21.365 20 19.848 20H12.12c0.051 0.103 0.108 0.204 0.193 0.287l3.029 2.849c0.201 0.189 0.211 0.505 0.021 0.707-0.099 0.105-0.231 0.158-0.364 0.158-0.123 0-0.246-0.045-0.343-0.136l-3.037-2.856c-0.406-0.399-0.627-0.942-0.618-1.5 0-3e-3-2e-3-5e-3-2e-3-8e-3 0-1e-3 0-2e-3 0-4e-3 0-3e-3 0-6e-3 0-0.01 0.014-0.527 0.227-1.022 0.601-1.396l3.052-2.95c0.201-0.191 0.518-0.187 0.707 0.012 0.192 0.199 0.187 0.515-0.012 0.707l-3.046 2.945c-0.056 0.056-0.091 0.128-0.132 0.196h7.679c1.15 0 2.209-0.627 2.763-1.638 0.54-0.989 0.509-2.199-0.081-3.158l-1.037-1.688c-0.145-0.235-0.071-0.543 0.164-0.688 0.236-0.143 0.544-0.072 0.688 0.165l1.037 1.688c0.777 1.264 0.818 2.858 0.106 4.16zM14.504 2.403l4.949 7.199c-0.071 0-0.143 0.011-0.213-4e-3L15.113 8.64c-0.27-0.066-0.538 0.105-0.601 0.374-0.062 0.269 0.105 0.538 0.374 0.6l4.135 0.96c0.145 0.031 0.952 0.037 1.499-0.254s0.827-0.795 0.94-1.346l0.748-4.102C22.257 4.6 22.077 4.34 21.806 4.29c-0.268-0.053-0.532 0.129-0.582 0.402l-0.746 4.091c-0.025 0.123-0.08 0.233-0.144 0.336l-5.006-7.283c-0.795-1.153-2.123-1.808-3.503-1.811C10.302 0.046 8.91 0.894 8.21 2.208L7.337 3.607C7.191 3.841 7.262 4.149 7.496 4.296c0.233 0.145 0.542 0.076 0.688-0.16l0.891-1.428c0.546-1.022 1.604-1.667 2.764-1.683 1.038-0.048 2.061 0.5 2.665 1.378zM8.5 19H4.08c-1.11 0-2.139-0.601-2.685-1.566-0.562-0.997-0.529-2.215 0.087-3.179l4.516-7.059C6.029 7.253 6.07 7.304 6.09 7.366l1.191 4.066c0.063 0.218 0.263 0.359 0.479 0.359 0.046 0 0.094-6e-3 0.141-0.02 0.265-0.078 0.417-0.355 0.339-0.621L7.047 7.076C6.89 6.572 6.55 6.152 6.09 5.896 5.598 5.62 5.006 5.561 4.455 5.737l-3.94 1.362c-0.261 0.09-0.399 0.375-0.31 0.636s0.376 0.399 0.636 0.31l3.931-1.358c0.129-0.042 0.262-0.052 0.393-0.043l-4.524 7.072c-0.816 1.277-0.861 2.89-0.116 4.209C1.249 19.205 2.611 20 4.081 20h4.42c0.276 0 0.5-0.224 0.5-0.5S8.777 19 8.5 19z" />
</svg>