<svg id="recycle_bin_Layer_1" viewBox="0 0 24 24" fill="currentColor" width="32" height="32" data-name="Layer 1" xmlns="http://www.w3.org/2000/svg" xmlns:xlink="http://www.w3.org/1999/xlink">
    <title>recycle-bin</title>
    <path d="M9.5 23H7.874c-1.818 0-3.316-1.364-3.484-3.174L3.003 5h15.995l-0.595 6.454c-0.025 0.275 0.177 0.519 0.452 0.544 0.016 0 0.031 2e-3 0.046 2e-3 0.255 0 0.474-0.194 0.498-0.454l0.599-6.5c1e-3-0.016-5e-3-0.03-5e-3-0.046H21.5C21.776 5 22 4.776 22 4.5S21.776 4 21.5 4h-5.051C16.197 1.756 14.31 0 12 0h-2C7.69 0 5.803 1.756 5.551 4H0.5C0.224 4 0 4.224 0 4.5S0.224 5 0.5 5h1.507c0 0.016-7e-3 0.031-5e-3 0.047L3.394 19.92C3.611 22.246 5.538 24 7.874 24H9.5c0.276 0 0.5-0.224 0.5-0.5S9.776 23 9.5 23zM10 1h2c1.758 0 3.204 1.308 3.449 3H6.551C6.796 2.308 8.242 1 10 1zM23.734 22.91C23.357 23.593 22.667 24 21.887 24H19.5c-0.276 0-0.5-0.224-0.5-0.5s0.224-0.5 0.5-0.5h2.387c0.41 0 0.773-0.214 0.972-0.573 0.198-0.359 0.187-0.78-0.031-1.128l-1.147-1.826c-0.147-0.233-0.077-0.542 0.157-0.689s0.543-0.076 0.689 0.158l1.147 1.826c0.415 0.659 0.437 1.461 0.06 2.142zM20.086 16.931l-1.182-1.882c-0.205-0.325-0.556-0.52-0.94-0.52h-4e-3c-0.386 0-0.738 0.199-0.941 0.528l-1.138 1.848c-0.146 0.234-0.454 0.307-0.688 0.163-0.235-0.145-0.308-0.453-0.164-0.688l1.138-1.848c0.386-0.625 1.054-1 1.789-1.003 0.747 0 1.405 0.367 1.795 0.988l1.182 1.882c0.147 0.233 0.077 0.542-0.157 0.689-0.083 0.052-0.175 0.076-0.266 0.076-0.167 0-0.329-0.083-0.424-0.233zM17.001 23.499c0 0.276-0.224 0.5-0.5 0.5h-2.387c-0.775 0-1.464-0.404-1.842-1.081s-0.361-1.476 0.045-2.136l1.139-1.849c0.145-0.234 0.453-0.308 0.688-0.163s0.308 0.453 0.164 0.688l-1.139 1.848c-0.214 0.347-0.223 0.768-0.024 1.124 0.199 0.355 0.562 0.568 0.969 0.568h2.387c0.276 0 0.5 0.224 0.5 0.501z" />
</svg>