<svg id="referral_link_arrow_Layer_1" viewBox="0 0 24 24" fill="currentColor" width="32" height="32" data-name="Layer 1" xmlns="http://www.w3.org/2000/svg" xmlns:xlink="http://www.w3.org/1999/xlink">
    <title>referral-link-arrow</title>
    <path d="M23.566 20.553l-2.707 2.795C20.76 23.45 20.63 23.5 20.5 23.5c-0.125 0-0.251-0.047-0.348-0.141-0.198-0.192-0.204-0.509-0.012-0.707L22.708 20H0.5C0.224 20 0 19.776 0 19.5S0.224 19 0.5 19h22.209l-2.568-2.652c-0.192-0.198-0.187-0.515 0.012-0.707 0.199-0.191 0.515-0.187 0.707 0.012l2.712 2.801c0.573 0.575 0.573 1.519-6e-3 2.099zM17.5 1C20.532 1 23 3.467 23 6.5S20.532 12 17.5 12h-4C10.468 12 8 9.533 8 6.5 8 5.339 8.356 4.23 9.032 3.292c0.161-0.224 0.11-0.537-0.114-0.698C8.695 2.433 8.383 2.482 8.22 2.708 7.422 3.817 7 5.128 7 6.5 7 10.084 9.916 13 13.5 13h4c3.584 0 6.5-2.916 6.5-6.5S21.084 0 17.5 0C17.224 0 17 0.224 17 0.5S17.224 1 17.5 1zM6.5 13C6.776 13 7 12.776 7 12.5S6.776 12 6.5 12C3.468 12 1 9.533 1 6.5S3.468 1 6.5 1h4C13.532 1 16 3.467 16 6.5c0 1.161-0.356 2.27-1.032 3.208-0.161 0.224-0.11 0.537 0.114 0.698 0.088 0.063 0.19 0.094 0.292 0.094 0.155 0 0.308-0.072 0.406-0.208C16.578 9.183 17 7.872 17 6.5 17 2.916 14.084 0 10.5 0h-4C2.916 0 0 2.916 0 6.5S2.916 13 6.5 13z" />
</svg>