<svg id="referral_alt_Layer_1" viewBox="0 0 24 24" fill="currentColor" width="32" height="32" data-name="Layer 1" xmlns="http://www.w3.org/2000/svg" xmlns:xlink="http://www.w3.org/1999/xlink">
    <title>referral-alt</title>
    <path d="M15.854 11.854 12.208 15.5l3.646 3.646c0.195 0.195 0.195 0.512 0 0.707-0.098 0.098-0.226 0.146-0.354 0.146s-0.256-0.049-0.354-0.146l-3.854-3.854H8.499c-0.276 0-0.5-0.224-0.5-0.5s0.224-0.5 0.5-0.5h2.793l3.854-3.854c0.195-0.195 0.512-0.195 0.707 0s0.195 0.512 1e-3 0.709zM1 8.5C1 7.121 2.122 6 3.5 6S6 7.121 6 8.5 4.878 11 3.5 11 1 9.879 1 8.5zM2 8.5C2 9.327 2.673 10 3.5 10S5 9.327 5 8.5 4.327 7 3.5 7 2 7.673 2 8.5zM3.5 12C1.57 12 0 13.57 0 15.5 0 15.776 0.224 16 0.5 16S1 15.776 1 15.5C1 14.121 2.122 13 3.5 13S6 14.121 6 15.5C6 15.776 6.224 16 6.5 16S7 15.776 7 15.5C7 13.57 5.43 12 3.5 12zM18 2.5C18 1.121 19.121 0 20.5 0S23 1.121 23 2.5 21.879 5 20.5 5 18 3.879 18 2.5zM19 2.5C19 3.327 19.673 4 20.5 4S22 3.327 22 2.5 21.327 1 20.5 1 19 1.673 19 2.5zM17.5 10c0.276 0 0.5-0.224 0.5-0.5 0-1.379 1.121-2.5 2.5-2.5S23 8.121 23 9.5c0 0.276 0.224 0.5 0.5 0.5S24 9.776 24 9.5C24 7.57 22.43 6 20.5 6S17 7.57 17 9.5c0 0.276 0.224 0.5 0.5 0.5zM23 16.5c0 1.379-1.121 2.5-2.5 2.5S18 17.879 18 16.5 19.121 14 20.5 14 23 15.121 23 16.5zM22 16.5c0-0.827-0.673-1.5-1.5-1.5S19 15.673 19 16.5 19.673 18 20.5 18 22 17.327 22 16.5zM20.5 20c-1.93 0-3.5 1.57-3.5 3.5 0 0.276 0.224 0.5 0.5 0.5s0.5-0.224 0.5-0.5c0-1.379 1.121-2.5 2.5-2.5s2.5 1.121 2.5 2.5c0 0.276 0.224 0.5 0.5 0.5s0.5-0.224 0.5-0.5c0-1.93-1.57-3.5-3.5-3.5z" />
</svg>