<svg id="referral_Layer_1" viewBox="0 0 24 24" fill="currentColor" width="32" height="32" data-name="Layer 1" xmlns="http://www.w3.org/2000/svg" xmlns:xlink="http://www.w3.org/1999/xlink">
    <title>referral</title>
    <path d="M5 6c1.654 0 3-1.346 3-3S6.654 0 5 0 2 1.346 2 3 3.346 6 5 6zM5 1c1.103 0 2 0.897 2 2S6.103 5 5 5 3 4.103 3 3 3.897 1 5 1zM19 6c1.654 0 3-1.346 3-3s-1.346-3-3-3-3 1.346-3 3 1.346 3 3 3zM19 1c1.103 0 2 0.897 2 2s-0.897 2-2 2-2-0.897-2-2 0.897-2 2-2zM22.845 17.638c0.2 0.19 0.208 0.507 0.017 0.707-0.098 0.104-0.23 0.155-0.362 0.155-0.124 0-0.248-0.046-0.345-0.138L20 16.309V20.5c0 1.93-1.57 3.5-3.5 3.5h-9C5.57 24 4 22.43 4 20.5v-5C4 15.224 4.224 15 4.5 15S5 15.224 5 15.5v5C5 21.879 6.122 23 7.5 23h9c1.378 0 2.5-1.121 2.5-2.5v-4.148l-2.159 2.013c-0.202 0.188-0.518 0.177-0.707-0.024-0.188-0.202-0.177-0.519 0.025-0.707l2.407-2.244c0.213-0.213 0.597-0.388 0.934-0.388s0.724 0.127 0.998 0.4zM23.997 12.444c0.031 0.274-0.167 0.522-0.441 0.554-0.019 2e-3-0.038 3e-3-0.057 3e-3-0.251 0-0.467-0.188-0.497-0.443-0.229-2.027-1.95-3.557-4.003-3.557s-3.773 1.529-4.003 3.557c-0.031 0.273-0.28 0.466-0.553 0.44-0.274-0.031-0.472-0.279-0.441-0.554 0.287-2.533 2.435-4.443 4.997-4.443s4.71 1.91 4.998 4.443zM5 9.001c-2.053 0-3.773 1.529-4.003 3.557-0.032 0.273-0.281 0.466-0.553 0.44-0.274-0.031-0.472-0.279-0.441-0.554C0.29 9.911 2.438 8.001 5 8.001s4.71 1.91 4.997 4.443c0.031 0.274-0.167 0.522-0.441 0.554-0.019 2e-3-0.038 3e-3-0.057 3e-3-0.251 0-0.467-0.188-0.497-0.443C8.773 10.531 7.052 9.001 5 9.001z" />
</svg>