<svg id="reflect_horizontal_Layer_1" viewBox="0 0 24 24" fill="currentColor" width="32" height="32" data-name="Layer 1" xmlns="http://www.w3.org/2000/svg" xmlns:xlink="http://www.w3.org/1999/xlink">
    <title>reflect-horizontal</title>
    <path d="M12.5 0.5v23c0 0.28-0.22 0.5-0.5 0.5s-0.5-0.22-0.5-0.5v-23C11.5 0.22 11.72 0 12 0s0.5 0.22 0.5 0.5zM9 12c0 0.56-0.24 1.1-0.66 1.48L2.5 18.61C2.22 18.87 1.87 19 1.5 19c-0.21 0-0.41-0.04-0.61-0.13-0.55-0.24-0.9-0.77-0.9-1.37v-11c0-0.6 0.34-1.13 0.9-1.37 0.55-0.24 1.17-0.14 1.62 0.27l5.82 5.12C8.75 10.9 8.99 11.44 9 12zM8 12c0-0.28-0.12-0.54-0.33-0.73L1.85 6.14C1.73 6.03 1.61 6 1.51 6S1.34 6.03 1.3 6.04C1.23 6.07 1 6.2 1 6.5v11c0 0.3 0.23 0.43 0.3 0.46s0.32 0.11 0.54-0.09l5.84-5.14C7.89 12.54 8 12.28 8 12zM24 6.5v11c0 0.6-0.34 1.13-0.9 1.37-0.2 0.09-0.41 0.13-0.61 0.13-0.36 0-0.72-0.14-1.01-0.4l-5.83-5.12c-0.42-0.38-0.66-0.92-0.66-1.48s0.24-1.1 0.66-1.48l5.84-5.13c0.44-0.4 1.06-0.5 1.61-0.26S24 5.9 24 6.5z" />
</svg>