<svg id="reflect_vertical_Layer_1" viewBox="0 0 24 24" fill="currentColor" width="32" height="32" data-name="Layer 1" xmlns="http://www.w3.org/2000/svg" xmlns:xlink="http://www.w3.org/1999/xlink">
    <title>reflect-vertical</title>
    <path d="M10.52 8.34C10.9 8.76 11.43 9 12 9s1.1-0.24 1.48-0.66l5.12-5.83c0.41-0.45 0.51-1.06 0.27-1.62s-0.77-0.9-1.37-0.9h-11c-0.6 0-1.13 0.34-1.37 0.9S4.99 2.06 5.39 2.5zM6.04 1.3C6.07 1.23 6.2 1 6.5 1h11c0.3 0 0.43 0.23 0.46 0.3s0.12 0.32-0.1 0.55l-5.13 5.83c-0.38 0.42-1.09 0.42-1.46 0L6.13 1.84C5.93 1.62 6.01 1.37 6.04 1.3zM13.47 15.66c-0.75-0.84-2.2-0.84-2.95 0L5.4 21.49c-0.41 0.45-0.51 1.06-0.27 1.62s0.77 0.9 1.37 0.9h11c0.6 0 1.13-0.34 1.37-0.9s0.14-1.17-0.26-1.61zM23.99 12c0 0.28-0.22 0.5-0.5 0.5H0.5C0.22 12.5 0 12.28 0 12s0.22-0.5 0.5-0.5h23c0.28 0 0.5 0.22 0.49 0.5z" />
</svg>