<svg id="refund_Layer_1" viewBox="0 0 24 24" fill="currentColor" width="32" height="32" data-name="Layer 1" xmlns="http://www.w3.org/2000/svg" xmlns:xlink="http://www.w3.org/1999/xlink">
    <title>refund</title>
    <path d="M3 7V0.5C3 0.224 3.224 0 3.5 0S4 0.224 4 0.5V7c0 1.103 0.897 2 2 2h6c1.103 0 2-0.897 2-2V0.5C14 0.224 14.224 0 14.5 0S15 0.224 15 0.5V7c0 1.654-1.346 3-3 3H6c-1.654 0-3-1.346-3-3zM6 8c0.552 0 1-0.448 1-1S6.552 6 6 6 5 6.448 5 7 5.448 8 6 8zM11 7c0 0.552 0.448 1 1 1s1-0.448 1-1-0.448-1-1-1-1 0.448-1 1zM23.364 13.181l-6.806 7.64c-1.802 2.021-4.387 3.18-7.093 3.18H3.5c-1.93 0-3.5-1.57-3.5-3.5v-5c0-1.93 1.57-3.5 3.5-3.5h9.858c1.208 0 2.228 0.814 2.542 1.923l3.732-4.103c0.451-0.496 1.069-0.786 1.739-0.817 0.666-0.035 1.312 0.2 1.809 0.651 1.011 0.923 1.094 2.504 0.184 3.526zM22.507 10.394c-0.298-0.271-0.689-0.412-1.088-0.392-0.403 0.019-0.775 0.193-1.047 0.492l-4.495 4.939c-0.301 0.946-1.124 1.679-2.146 1.824L7.56 17.995c-0.282 0.044-0.523-0.163-0.556-0.437s0.163-0.523 0.437-0.556l6.161-0.737c0.793-0.113 1.399-0.812 1.399-1.624 0-0.905-0.737-1.643-1.642-1.643H3.5c-1.378 0-2.5 1.121-2.5 2.5v5c0 1.379 1.122 2.5 2.5 2.5h5.965c2.421 0 4.734-1.037 6.347-2.846l6.806-7.64c0.548-0.614 0.498-1.565-0.111-2.118zM8.961 3c1.421 0 2.657-1.01 2.94-2.4 0.055-0.271-0.12-0.534-0.39-0.59-0.268-0.053-0.535 0.12-0.589 0.391-0.188 0.927-1.013 1.6-1.96 1.6s-1.771-0.673-1.959-1.6C6.948 0.13 6.688-0.044 6.413 0.01 6.142 0.065 5.968 0.329 6.022 0.6 6.304 1.991 7.541 3 8.961 3z" />
</svg>