<svg id="region_pin_Layer_1" viewBox="0 0 24 24" fill="currentColor" width="32" height="32" data-name="Layer 1" xmlns="http://www.w3.org/2000/svg" xmlns:xlink="http://www.w3.org/1999/xlink">
    <title>region-pin</title>
    <path d="M12 7.5c1.103 0 2-0.897 2-2s-0.897-2-2-2-2 0.897-2 2 0.897 2 2 2zM12 4.5c0.551 0 1 0.448 1 1s-0.449 1-1 1-1-0.448-1-1 0.449-1 1-1zM10.097 11.18c0.511 0.498 1.187 0.772 1.903 0.772s1.392-0.274 1.892-0.763l1.996-1.836c1.039-1.035 1.611-2.411 1.611-3.875s-0.572-2.84-1.611-3.875v0C14.849 0.569 13.469-1e-3 12-1e-3S9.151 0.568 8.111 1.603C7.072 2.638 6.5 4.014 6.5 5.478s0.572 2.84 1.626 3.889zM8.817 2.313C9.668 1.466 10.798 1.001 12 1.001s2.333 0.466 3.183 1.312c0.849 0.846 1.317 1.97 1.317 3.166s-0.468 2.32-1.303 3.152l-1.992 1.832c-0.646 0.631-1.751 0.641-2.42-0.01L8.818 8.644c-0.85-0.846-1.317-1.97-1.317-3.166s0.468-2.32 1.316-3.165zM23.97 19.125l-1.023-8.697c-0.185-1.566-1.532-3.395-3.387-3.615-0.273-0.043-0.523 0.163-0.556 0.437s0.163 0.523 0.438 0.556c1.309 0.156 2.375 1.569 2.512 2.74l0.128 1.09-11.687 5.565-8.17-7.326c0.374-0.984 1.269-1.944 2.334-2.072 0.274-0.032 0.47-0.281 0.438-0.556C4.964 6.974 4.716 6.766 4.441 6.81 2.586 7.031 1.238 8.859 1.054 10.425L0.03 19.124c-0.146 1.237 0.246 2.48 1.074 3.411S3.121 24 4.366 24h15.268c1.245 0 2.435-0.534 3.262-1.465s1.219-2.174 1.074-3.41zM1.852 21.871c-0.638-0.718-0.94-1.677-0.828-2.63l0.969-8.232L15.367 23H4.366c-0.96 0-1.876-0.411-2.514-1.129zM22.149 21.871C21.511 22.589 20.594 23 19.634 23h-2.77l-5.663-5.078 11.004-5.24 0.772 6.559c0.112 0.953-0.19 1.912-0.828 2.63z" />
</svg>