<svg id="region_pin_alt_Layer_1" viewBox="0 0 24 24" fill="currentColor" width="32" height="32" data-name="Layer 1" xmlns="http://www.w3.org/2000/svg" xmlns:xlink="http://www.w3.org/1999/xlink">
    <title>region-pin-alt</title>
    <path d="M23.5 11c-0.276 0-0.5 0.224-0.5 0.5V16h-7.293L10 10.293V1h2.5C12.776 1 13 0.776 13 0.5S12.776 0 12.5 0h-8C2.019 0 0 2.019 0 4.5v15C0 21.981 2.019 24 4.5 24h15c2.481 0 4.5-2.019 4.5-4.5v-8c0-0.276-0.224-0.5-0.5-0.5zM4.5 1H9v9.191l-8 4V4.5C1 2.57 2.57 1 4.5 1zM1 19.5v-4.191l8.401-4.201 5.45 5.45-4.459 6.441H4.5c-1.93 0-3.5-1.57-3.5-3.499zM19.5 23h-7.892l4.154-6H23v2.5c0 1.93-1.57 3.5-3.5 3.5zM18.5 7.5c1.103 0 2-0.897 2-2s-0.897-2-2-2-2 0.897-2 2 0.897 2 2 2zM18.5 4.5c0.552 0 1 0.448 1 1s-0.448 1-1 1-1-0.448-1-1 0.448-1 1-1zM14.626 9.367l1.972 1.812c0.511 0.498 1.187 0.772 1.902 0.772s1.392-0.274 1.893-0.763l1.995-1.836C23.428 8.317 24 6.941 24 5.477s-0.572-2.84-1.612-3.875C21.35 0.568 19.969-2e-3 18.5-2e-3s-2.85 0.569-3.889 1.604S13 4.013 13 5.477s0.572 2.84 1.626 3.89zM15.316 2.312C16.167 1.465 17.297 1 18.5 1s2.333 0.466 3.183 1.312S23 4.282 23 5.478s-0.468 2.32-1.304 3.152l-1.991 1.832c-0.646 0.631-1.753 0.641-2.421-0.01l-1.968-1.809C14.467 7.797 14 6.673 14 5.477s0.468-2.32 1.316-3.165z" />
</svg>