<svg id="registered_Layer_1" viewBox="0 0 24 24" fill="currentColor" width="32" height="32" data-name="Layer 1" xmlns="http://www.w3.org/2000/svg" xmlns:xlink="http://www.w3.org/1999/xlink">
    <title>registered</title>
    <path d="M17 9c0-2.206-1.794-4-4-4H9.833C8.271 5 7 6.271 7 7.833V18.5C7 18.776 7.224 19 7.5 19S8 18.776 8 18.5V13h4.713l3.355 5.752C16.161 18.911 16.329 19 16.501 19c0.085 0 0.172-0.021 0.251-0.068 0.238-0.139 0.319-0.445 0.18-0.684l-3.112-5.334C15.633 12.534 17 10.925 17 9zM13 12H8V7.833C8 6.822 8.822 6 9.833 6H13c1.654 0 3 1.346 3 3s-1.346 3-3 3zM12 0C5.383 0 0 5.383 0 12s5.383 12 12 12 12-5.383 12-12S18.617 0 12 0zM12 23C5.935 23 1 18.065 1 12S5.935 1 12 1 23 5.935 23 12 18.065 23 12 23z" />
</svg>