<svg id="registration_paper_Layer_1" viewBox="0 0 24 24" fill="currentColor" width="32" height="32" data-name="Layer 1" xmlns="http://www.w3.org/2000/svg" xmlns:xlink="http://www.w3.org/1999/xlink">
    <title>registration-paper</title>
    <path d="M14.148 7.12c-0.196-0.194-0.198-0.511-4e-3-0.707 0.194-0.197 0.511-0.199 0.707-5e-3l1.362 1.344c0.335 0.33 0.885 0.329 1.222-4e-3l2.707-2.617c0.198-0.191 0.517-0.187 0.707 0.012 0.192 0.199 0.187 0.515-0.012 0.707l-2.703 2.614c-0.36 0.355-0.835 0.534-1.311 0.534s-0.95-0.177-1.312-0.532zM11 6.5C11 2.916 13.916 0 17.5 0S24 2.916 24 6.5 21.084 13 17.5 13 11 10.084 11 6.5zM12 6.5c0 3.033 2.468 5.5 5.5 5.5S23 9.533 23 6.5 20.532 1 17.5 1 12 3.467 12 6.5zM24 21c0 1.654-1.346 3-3 3H8c-1.654 0-3-1.346-3-3V6H3C1.346 6 0 4.654 0 3s1.346-3 3-3h7.5C10.776 0 11 0.224 11 0.5S10.776 1 10.5 1H5.22C5.7 1.532 6 2.229 6 3v18c0 1.103 0.897 2 2 2s2-0.897 2-2c0-1.654 1.346-3 3-3h6v-2.5c0-0.276 0.224-0.5 0.5-0.5s0.5 0.224 0.5 0.5V18h1c1.654 0 3 1.346 3 3zM5 3c0-1.103-0.897-2-2-2S1 1.897 1 3 1.897 5 3 5h2zM23 21c0-1.103-0.897-2-2-2h-8c-1.103 0-2 0.897-2 2 0 0.768-0.29 1.469-0.766 2H21c1.103 0 2-0.897 2-2z" />
</svg>