<svg id="remote_control_hand_Layer_1" viewBox="0 0 24 24" fill="currentColor" width="32" height="32" data-name="Layer 1" xmlns="http://www.w3.org/2000/svg" xmlns:xlink="http://www.w3.org/1999/xlink">
    <title>remote-control-hand</title>
    <path d="M4 7.5C4 9.43 5.57 11 7.5 11S11 9.43 11 7.5 9.43 4 7.5 4 4 5.57 4 7.5zM10 7.5C10 8.878 8.878 10 7.5 10S5 8.878 5 7.5 6.122 5 7.5 5 10 6.122 10 7.5zM17.835 15.666c0.205 0.185 0.221 0.501 0.037 0.707-0.186 0.204-0.501 0.22-0.707 0.037l-4.438-4c-0.604-0.537-1.53-0.544-2.148-0.019-0.685 0.558-0.774 1.653-0.188 2.314l3.806 5.481C14.722 20.943 15 21.83 15 22.751v0.748c0 0.276-0.224 0.5-0.5 0.5s-0.5-0.224-0.5-0.5v-0.748c0-0.717-0.216-1.407-0.625-1.995l-0.862-1.242C11.89 19.827 11.202 20 10.5 20h-6C2.019 20 0 17.981 0 15.5v-8C0 3.364 3.364 0 7.5 0S15 3.364 15 7.5v2.077c0 0.276-0.224 0.5-0.5 0.5S14 9.853 14 9.577V7.5C14 3.916 11.084 1 7.5 1S1 3.916 1 7.5v8C1 17.43 2.57 19 4.5 19h6c0.499 0 0.988-0.111 1.438-0.314l-2.339-3.372c-0.908-1.021-0.755-2.817 0.333-3.686 0.997-0.845 2.484-0.831 3.462 0.035zM24 17.399V23.5c0 0.276-0.224 0.5-0.5 0.5S23 23.776 23 23.5v-6.101c0-2.656-1.123-5.208-3.081-7.003l-2.757-2.527c-0.204-0.187-0.217-0.503-0.031-0.707 0.187-0.203 0.503-0.218 0.707-0.031l2.757 2.527C22.759 11.641 24 14.463 24 17.399z" />
</svg>