<svg id="remove_folder_Layer_1" viewBox="0 0 24 24" fill="currentColor" width="32" height="32" data-name="Layer 1" xmlns="http://www.w3.org/2000/svg" xmlns:xlink="http://www.w3.org/1999/xlink">
    <title>remove-folder</title>
    <path d="M23.85 16.85 20.7 20.01l3.15 3.13c0.2 0.19 0.2 0.51 0 0.71-0.1 0.1-0.23 0.15-0.35 0.15s-0.25-0.05-0.35-0.15L20 20.72l-3.11 3.13c-0.1 0.1-0.23 0.15-0.35 0.15s-0.25-0.05-0.35-0.15c-0.2-0.19-0.2-0.51 0-0.71l3.11-3.13-3.15-3.13c-0.2-0.19-0.2-0.51 0-0.71s0.51-0.2 0.71 0l3.15 3.13 3.15-3.16c0.2-0.2 0.51-0.2 0.71 0 0.2 0.19 0.2 0.51-0.02 0.71zM24 7.5v6c0 0.28-0.22 0.5-0.5 0.5S23 13.78 23 13.5V8H1v10.5C1 20.43 2.57 22 4.5 22h9c0.28 0 0.5 0.22 0.5 0.5S13.78 23 13.5 23h-9C2.02 23 0 20.98 0 18.5v-13C0 3.02 2.02 1 4.5 1h3.03C7.92 1 8.3 1.09 8.65 1.26l3.16 1.58C12.02 2.94 12.25 3 12.48 3h7.03c2.48 0 4.5 2.02 4.49 4.5zM1 7h21.96c-0.24-1.69-1.7-3-3.46-3h-7.03c-0.39 0-0.77-0.09-1.12-0.26L8.19 2.16C7.98 2.06 7.75 2 7.52 2H4.49c-1.93 0-3.5 1.57-3.5 3.5z" />
</svg>