<svg id="remote_access_Layer_1" viewBox="0 0 24 24" fill="currentColor" width="32" height="32" data-name="Layer 1" xmlns="http://www.w3.org/2000/svg" xmlns:xlink="http://www.w3.org/1999/xlink">
    <title>remote-access</title>
    <path d="M9.5 12H7v-2h2.5c1.93 0 3.5-1.57 3.5-3.5v-3C13 1.57 11.43 0 9.5 0h-6C1.57 0 0 1.57 0 3.5v3C0 8.43 1.57 10 3.5 10H6v2H3.5C3.224 12 3 12.224 3 12.5S3.224 13 3.5 13h6c0.276 0 0.5-0.224 0.5-0.5S9.776 12 9.5 12zM3.5 9C2.121 9 1 7.879 1 6.5v-3C1 2.121 2.121 1 3.5 1h6C10.879 1 12 2.121 12 3.5v3C12 7.879 10.879 9 9.5 9zM7.584 19.492c0.556 0.556 0.556 1.46 0 2.016l-2.346 2.346c-0.195 0.195-0.512 0.195-0.707 0s-0.195-0.512 0-0.707l2.146-2.146H3.999c-2.206 0-4-1.794-4-4v-1.5c0-0.276 0.224-0.5 0.5-0.5s0.5 0.224 0.5 0.5v1.5c0 1.654 1.346 3 3 3h2.678l-2.146-2.146c-0.195-0.195-0.195-0.512 0-0.707s0.512-0.195 0.707 0zM20.5 11h-6c-1.93 0-3.5 1.57-3.5 3.5v3c0 1.93 1.57 3.5 3.5 3.5H17v2h-2.5c-0.276 0-0.5 0.224-0.5 0.5s0.224 0.5 0.5 0.5h6c0.276 0 0.5-0.224 0.5-0.5S20.776 23 20.5 23H18v-2h2.5c1.93 0 3.5-1.57 3.5-3.5v-3c0-1.93-1.57-3.5-3.5-3.5zM23 17.5c0 1.379-1.121 2.5-2.5 2.5h-6c-1.379 0-2.5-1.121-2.5-2.5v-3c0-1.379 1.121-2.5 2.5-2.5h6c1.379 0 2.5 1.121 2.5 2.5zM24 7v1.5C24 8.776 23.776 9 23.5 9S23 8.776 23 8.5V7c0-1.654-1.346-3-3-3h-2.678l2.146 2.146c0.195 0.195 0.195 0.512 0 0.707s-0.512 0.195-0.707 0l-2.346-2.346c-0.556-0.556-0.556-1.46 0-2.016l2.347-2.345c0.195-0.195 0.512-0.195 0.707 0s0.195 0.512 0 0.707l-2.146 2.146h2.678c2.206 0 4 1.794 3.999 4.001z" />
</svg>