<svg id="remove_user_Layer_1" viewBox="0 0 24 24" fill="currentColor" width="32" height="32" data-name="Layer 1" xmlns="http://www.w3.org/2000/svg" xmlns:xlink="http://www.w3.org/1999/xlink">
    <title>remove-user</title>
    <path d="M24 11.5c0 0.276-0.224 0.5-0.5 0.5h-7c-0.276 0-0.5-0.224-0.5-0.5s0.224-0.5 0.5-0.5h7c0.276 0 0.5 0.224 0.5 0.5zM2.949 6c0-3.322 2.703-6.025 6.025-6.025S15 2.678 15 6s-2.703 6.025-6.026 6.025S2.949 9.322 2.949 6zM3.949 6c0 2.771 2.254 5.025 5.025 5.025S14 8.771 14 6 11.746 0.975 8.974 0.975 3.949 3.229 3.949 6zM9 14c-4.962 0-9 4.037-9 9v0.5C0 23.776 0.224 24 0.5 24S1 23.776 1 23.5V23c0-4.411 3.589-8 8-8s8 3.589 8 8v0.5c0 0.276 0.224 0.5 0.5 0.5s0.5-0.224 0.5-0.5V23c0-4.963-4.038-9-9-9z" />
</svg>