<svg id="remote_control_Layer_1" viewBox="0 0 24 24" fill="currentColor" width="32" height="32" data-name="Layer 1" xmlns="http://www.w3.org/2000/svg" xmlns:xlink="http://www.w3.org/1999/xlink">
    <title>remote-control</title>
    <path d="M10 12.5c0 0.552-0.448 1-1 1s-1-0.448-1-1 0.448-1 1-1 1 0.448 1 1zM11.5 14c-0.552 0-1 0.448-1 1s0.448 1 1 1 1-0.448 1-1-0.448-1-1-1zM9 17.5C9 18.878 7.878 20 6.5 20S4 18.878 4 17.5 5.122 15 6.5 15 9 16.122 9 17.5zM8 17.5C8 16.673 7.327 16 6.5 16S5 16.673 5 17.5 5.673 19 6.5 19 8 18.327 8 17.5zM16 3c-0.276 0-0.5 0.224-0.5 0.5S15.724 4 16 4c2.206 0 4 1.794 4 4 0 0.276 0.224 0.5 0.5 0.5S21 8.276 21 8c0-2.757-2.243-5-5-5zM17.679 9.155c1.748 1.674 1.75 4.688 6e-3 6.365l-7.156 7.16c-1.674 1.747-4.689 1.749-6.365 3e-3L1.32 19.842c-1.755-1.753-1.756-4.607-4e-3-6.363L8.47 6.321c1.752-1.755 4.607-1.758 6.363-5e-3zM18 12.337c0-0.935-0.366-1.814-1.027-2.474l-2.846-2.84c-1.366-1.363-3.586-1.361-4.95 4e-3v0l-7.154 7.159c-1.363 1.365-1.362 3.585 3e-3 4.949l2.844 2.841c1.304 1.357 3.648 1.356 4.95-3e-3l7.156-7.16C17.636 14.151 18 13.272 18 12.337zM16 0c-0.276 0-0.5 0.224-0.5 0.5S15.724 1 16 1c3.86 0 7 3.14 7 7 0 0.276 0.224 0.5 0.5 0.5S24 8.276 24 8c0-4.411-3.589-8-8-8zM14 11.5c-0.552 0-1 0.448-1 1s0.448 1 1 1 1-0.448 1-1-0.448-1-1-1zM11.5 9c-0.552 0-1 0.448-1 1s0.448 1 1 1 1-0.448 1-1-0.448-1-1-1z" />
</svg>