<svg id="rent_signal_Layer_1" viewBox="0 0 24 24" fill="currentColor" width="32" height="32" data-name="Layer 1" xmlns="http://www.w3.org/2000/svg" xmlns:xlink="http://www.w3.org/1999/xlink">
    <title>rent-signal</title>
    <path d="M12 4c1.103 0 2-0.897 2-2s-0.897-2-2-2-2 0.897-2 2 0.897 2 2 2zM12 1c0.552 0 1 0.448 1 1s-0.448 1-1 1-1-0.448-1-1 0.448-1 1-1zM20.239 11.007 15.33 5.177c-0.18-0.211-0.494-0.235-0.705-0.061-0.211 0.179-0.238 0.494-0.061 0.705l4.36 5.178H5.075l4.36-5.178c0.178-0.211 0.15-0.526-0.061-0.705-0.212-0.178-0.526-0.15-0.705 0.061l-4.909 5.83C1.665 11.131-1e-3 12.874-1e-3 15v5c0 2.206 1.794 4 4 4h16c2.206 0 4-1.794 4-4v-5c0-2.126-1.666-3.868-3.76-3.993zM23 20c0 1.654-1.346 3-3 3H4c-1.654 0-3-1.346-3-3v-5c0-1.654 1.346-3 3-3h16c1.654 0 3 1.346 3 3zM9 15v2h1.5c0.276 0 0.5 0.224 0.5 0.5S10.776 18 10.5 18H9v2h1.5c0.276 0 0.5 0.224 0.5 0.5S10.776 21 10.5 21H9c-0.552 0-1-0.448-1-1v-5c0-0.552 0.448-1 1-1h1.5c0.276 0 0.5 0.224 0.5 0.5S10.776 15 10.5 15zM7 16.25C7 15.01 5.99 14 4.75 14H4c-0.552 0-1 0.448-1 1v5.5C3 20.776 3.224 21 3.5 21S4 20.776 4 20.5v-2h0.75c0.136 0 0.268-0.013 0.398-0.036l0.889 2.221c0.078 0.195 0.266 0.314 0.464 0.314 0.433 0 0.566-0.43 0.464-0.686l-0.897-2.242C6.633 17.662 7.001 16.997 7 16.25zM4 17.5V15h0.75C5.439 15 6 15.561 6 16.25S5.439 17.5 4.75 17.5zM21 14.5c0 0.276-0.224 0.5-0.5 0.5h-1v5.5c0 0.276-0.224 0.5-0.5 0.5s-0.5-0.224-0.5-0.5V15h-1c-0.276 0-0.5-0.224-0.5-0.5s0.224-0.5 0.5-0.5h3c0.276 0 0.5 0.224 0.5 0.5zM16 14.5v6c0 0.231-0.159 0.434-0.385 0.486C15.576 20.996 15.538 21 15.5 21c-0.187 0-0.361-0.104-0.447-0.276L13 16.619v3.882c0 0.276-0.224 0.5-0.5 0.5s-0.5-0.224-0.5-0.5v-6c0-0.231 0.159-0.434 0.385-0.486 0.23-0.058 0.459 0.056 0.562 0.263L15 18.383v-3.882c0-0.276 0.224-0.5 0.5-0.5S16 14.225 16 14.5z" />
</svg>