<svg id="rent_Layer_1" viewBox="0 0 24 24" fill="currentColor" width="32" height="32" data-name="Layer 1" xmlns="http://www.w3.org/2000/svg" xmlns:xlink="http://www.w3.org/1999/xlink">
    <title>rent</title>
    <path d="M22.682 10.142l-3.73-3.73C18.531 2.754 15.441 0 11.75 0 8.173 0 5.193 2.604 4.606 6.016 2.033 6.218 0 8.376 0 11c0 1.795 0.959 3.418 2.522 4.307v1.631c0 0.135 0.055 0.264 0.151 0.358l0.893 0.871-0.892 0.892c-0.195 0.195-0.195 0.512 0 0.707l0.896 0.896-0.896 0.896c-0.195 0.195-0.195 0.512 0 0.707l1.317 1.318c0.278 0.276 0.643 0.415 1.008 0.415s0.729-0.139 1.007-0.416l0.761-0.762c0.473-0.473 0.732-1.1 0.732-1.768v-5.743c1.55-0.896 2.5-2.521 2.5-4.311 0-1.657-0.83-3.204-2.222-4.136-0.228-0.155-0.54-0.093-0.693 0.137-0.154 0.229-0.093 0.54 0.137 0.693 1.113 0.747 1.778 1.982 1.778 3.306 0 1.513-0.852 2.879-2.224 3.564-0.169 0.085-0.276 0.258-0.276 0.447v6.042c0 0.395-0.16 0.781-0.439 1.061l-0.761 0.762c-0.167 0.166-0.436 0.166-0.601 0L3.734 21.91 4.63 21.014c0.195-0.195 0.195-0.512 0-0.707l-0.896-0.896 0.896-0.896c0.095-0.095 0.147-0.223 0.146-0.356s-0.056-0.262-0.151-0.355l-1.104-1.077v-1.721c0-0.19-0.108-0.365-0.279-0.449C1.858 13.878 0.999 12.515 0.999 11c0-2.038 1.531-3.724 3.504-3.969-2e-3 0.073-4e-3 0.146-4e-3 0.219v0.884C4.2 8.307 3.999 8.63 3.999 9c0 0.552 0.448 1 1 1s1-0.448 1-1c0-0.37-0.201-0.693-0.5-0.866V7.25c0-3.446 2.804-6.25 6.25-6.25 3.174 0 5.833 2.362 6.206 5.504l-3.637 3.637C13.48 10.979 13 12.138 13 13.323V20c0 2.206 1.794 4 4 4h3c2.206 0 4-1.794 4-4v-6.677c0-1.185-0.48-2.344-1.318-3.181zM23 20c0 1.654-1.346 3-3 3h-3c-1.654 0-3-1.346-3-3v-6.677c0-0.921 0.374-1.823 1.025-2.475L18.5 7.373l3.475 3.475C22.626 11.499 23 12.402 23 13.323z" />
</svg>