<svg id="replace_Layer_1" viewBox="0 0 24 24" fill="currentColor" width="32" height="32" data-name="Layer 1" xmlns="http://www.w3.org/2000/svg" xmlns:xlink="http://www.w3.org/1999/xlink">
    <title>replace</title>
    <path d="M11 19.49c0 0 0 0 0 0s0 0 0 0c0 0.5-0.19 1-0.58 1.38l-2.57 2.52c-0.1 0.09-0.22 0.14-0.35 0.14s-0.26-0.05-0.36-0.15c-0.19-0.2-0.19-0.51 0-0.71l2.57-2.51c0.06-0.06 0.1-0.12 0.14-0.18H4.5c-1.93 0-3.5-1.57-3.5-3.5v-3c0-0.28 0.22-0.5 0.5-0.5S2 13.2 2 13.48v3c0 1.38 1.12 2.5 2.5 2.5h5.36c-0.04-0.07-0.09-0.13-0.15-0.19l-2.57-2.51c-0.2-0.19-0.2-0.51 0-0.71s0.51-0.2 0.71 0l2.57 2.51C10.8 18.46 11 18.97 11 19.49zM13.58 5.9l2.57 2.51c0.1 0.09 0.22 0.14 0.35 0.14s0.26-0.05 0.36-0.15c0.19-0.2 0.19-0.51 0-0.71l-2.57-2.51c-0.06-0.06-0.11-0.12-0.15-0.19h5.36c1.38 0 2.5 1.12 2.5 2.5v3c0 0.28 0.22 0.5 0.5 0.5s0.5-0.22 0.5-0.5v-3c0-1.93-1.57-3.5-3.5-3.5h-5.36c0.04-0.07 0.09-0.13 0.14-0.18l2.57-2.51c0.2-0.19 0.2-0.51 0-0.71-0.19-0.2-0.51-0.2-0.71 0l-2.57 2.52C13.19 3.49 13 3.99 12.99 4.49c0 0 0 0 0 0s0 0 0 0c0 0.5 0.2 1 0.59 1.41zM24 16.5v4c0 1.93-1.57 3.5-3.5 3.5h-4c-1.93 0-3.5-1.57-3.5-3.5v-4c0-1.93 1.57-3.5 3.5-3.5h4c1.93 0 3.5 1.57 3.5 3.5zM23 16.5c0-1.38-1.12-2.5-2.5-2.5h-4c-1.38 0-2.5 1.12-2.5 2.5v4c0 1.38 1.12 2.5 2.5 2.5h4c1.38 0 2.5-1.12 2.5-2.5zM11 3.5v4C11 9.43 9.43 11 7.5 11h-4C1.57 11 0 9.43 0 7.5v-4C0 1.57 1.57 0 3.5 0h4C9.43 0 11 1.57 11 3.5zM10 3.5C10 2.12 8.88 1 7.5 1h-4C2.12 1 1 2.12 1 3.5v4C1 8.88 2.12 10 3.5 10h4C8.88 10 10 8.88 10 7.5z" />
</svg>