<svg id="reply_all_Layer_1" viewBox="0 0 24 24" fill="currentColor" width="32" height="32" data-name="Layer 1" xmlns="http://www.w3.org/2000/svg" xmlns:xlink="http://www.w3.org/1999/xlink">
    <title>reply-all</title>
    <path d="M19.5 8H6.737c0.073-0.201 0.184-0.387 0.34-0.542l6.593-6.594c0.195-0.195 0.195-0.512 0-0.707s-0.512-0.195-0.707 0L6.37 6.751C5.903 7.218 5.645 7.839 5.645 8.5s0.257 1.282 0.725 1.749l6.593 6.594c0.098 0.098 0.226 0.146 0.354 0.146s0.256-0.049 0.354-0.146c0.195-0.195 0.195-0.512 0-0.707L7.078 9.542C6.923 9.387 6.811 9.201 6.738 9h12.763c1.93 0 3.5 1.57 3.5 3.5v11c0 0.276 0.224 0.5 0.5 0.5s0.5-0.224 0.5-0.5v-11c0-2.481-2.019-4.5-4.501-4.5z" />
    <path d="M1.734 10.262C1.262 9.789 1.002 9.161 1.002 8.494s0.26-1.296 0.732-1.768l5.865-5.865c0.195-0.195 0.195-0.512 0-0.707s-0.512-0.195-0.707 0L1.027 6.02C0.366 6.68 1e-3 7.559 1e-3 8.494s0.364 1.813 1.025 2.475l5.865 5.865c0.098 0.098 0.226 0.146 0.354 0.146s0.256-0.049 0.354-0.146c0.195-0.195 0.195-0.512 0-0.707z" />
</svg>