<svg id="replay_5_Layer_1" viewBox="0 0 24 24" fill="currentColor" width="32" height="32" data-name="Layer 1" xmlns="http://www.w3.org/2000/svg" xmlns:xlink="http://www.w3.org/1999/xlink">
    <title>replay-5</title>
    <path d="M15.977 22.806c0.083 0.263-0.062 0.544-0.325 0.628-1.177 0.375-2.406 0.565-3.652 0.565C5.546 24 0.276 18.958 0 12.521-0.012 12.245 0.202 12.012 0.478 12c0.282-0.014 0.51 0.202 0.521 0.478 0.252 5.9 5.084 10.521 11 10.521 1.143 0 2.27-0.174 3.348-0.519 0.262-0.083 0.544 0.062 0.63 0.326zM21 18l-2-0.03 0.03-1.97H23c0.276 0 0.5-0.224 0.5-0.5S23.276 15 23 15h-3.97C18.462 15 18 15.462 18 16.03v1.94c0 0.568 0.462 1.03 1.03 1.03H21c1.103 0 2 0.897 2 2s-0.897 2-2 2h-2.5c-0.276 0-0.5 0.224-0.5 0.5s0.224 0.5 0.5 0.5H21c1.654 0 3-1.346 3-3s-1.346-3-3-3zM1.5 9h4C5.776 9 6 8.776 6 8.5S5.776 8 5.5 8H1.756C3.395 3.807 7.485 1 12 1c6.065 0 11 4.935 11 11 0 0.16-3e-3 0.319-0.01 0.478-0.012 0.276 0.202 0.509 0.478 0.521 7e-3 0 0.015 0 0.022 0 0.266 0 0.487-0.209 0.499-0.478 8e-3-0.173 0.011-0.347 0.011-0.522C24 5.383 18.617 0 12 0 7.227 0 2.891 2.876 1 7.216V3.5C1 3.224 0.776 3 0.5 3S0 3.224 0 3.5v4C0 8.327 0.673 9 1.5 9zM11 6v6H6c-0.276 0-0.5 0.224-0.5 0.5S5.724 13 6 13h5.5c0.276 0 0.5-0.224 0.5-0.5V6c0-0.276-0.224-0.5-0.5-0.5S11 5.724 11 6z" />
</svg>