<svg id="replay_30_Layer_1" viewBox="0 0 24 24" fill="currentColor" width="32" height="32" data-name="Layer 1" xmlns="http://www.w3.org/2000/svg" xmlns:xlink="http://www.w3.org/1999/xlink">
    <title>replay-30</title>
    <path d="M24 12v0.5c0 0.276-0.224 0.5-0.5 0.5S23 12.776 23 12.5V12c0-6.065-4.935-11-11-11C7.485 1 3.395 3.807 1.756 8H5.5C5.776 8 6 8.224 6 8.5S5.776 9 5.5 9h-4C0.673 9 0 8.327 0 7.5v-4C0 3.224 0.224 3 0.5 3S1 3.224 1 3.5v3.716C2.892 2.876 7.227 0 12 0c6.617 0 12 5.383 12 12zM11.5 13c0.276 0 0.5-0.224 0.5-0.5V6c0-0.276-0.224-0.5-0.5-0.5S11 5.724 11 6v6H6c-0.276 0-0.5 0.224-0.5 0.5S5.724 13 6 13zM8.652 22.481c-4.375-1.396-7.446-5.416-7.642-10.002-0.012-0.275-0.222-0.51-0.521-0.478-0.275 0.012-0.49 0.245-0.479 0.521 0.215 5.004 3.564 9.39 8.337 10.913 0.051 0.016 0.103 0.023 0.152 0.023 0.212 0 0.408-0.135 0.477-0.348 0.084-0.263-0.062-0.544-0.324-0.629zM15.701 19.321C16.19 18.864 16.5 18.22 16.5 17.5c0-1.378-1.121-2.5-2.5-2.5h-2.5c-0.276 0-0.5 0.224-0.5 0.5s0.224 0.5 0.5 0.5H14c0.827 0 1.5 0.673 1.5 1.5S14.827 19 14 19h-1.5c-0.276 0-0.5 0.224-0.5 0.5s0.224 0.5 0.5 0.5h2c0.827 0 1.5 0.673 1.5 1.5S15.327 23 14.5 23h-3c-0.276 0-0.5 0.224-0.5 0.5s0.224 0.5 0.5 0.5h3c1.379 0 2.5-1.122 2.5-2.5 0-0.941-0.529-1.752-1.299-2.179zM24 18v3c0 1.654-1.346 3-3 3s-3-1.346-3-3v-3c0-1.654 1.346-3 3-3s3 1.346 3 3zM23 18c0-1.103-0.897-2-2-2s-2 0.897-2 2v3c0 1.103 0.897 2 2 2s2-0.897 2-2z" />
</svg>