<svg id="republican_Layer_1" viewBox="0 0 24 24" fill="currentColor" width="32" height="32" data-name="Layer 1" xmlns="http://www.w3.org/2000/svg" xmlns:xlink="http://www.w3.org/1999/xlink">
    <title>republican</title>
    <path d="M23.5 17c-0.276 0-0.5 0.224-0.5 0.5v2.002c0 0.826-0.672 1.499-1.499 1.499-0.844 0-1.499-0.807-1.499-1.501L20 8.006c1e-3-1.681-0.566-3.214-1.597-4.318C17.386 2.6 16 2 14.5 2h-9C2.467 2 0 4.468 0 7.5v12.003C0 20.88 1.12 22 2.51 22c1.373 0 2.492-1.116 2.497-2.501 0-0.275 0.225-0.499 0.5-0.499h5.003c0.134 0 0.259 0.052 0.354 0.146s0.146 0.221 0.146 0.354c-2e-3 0.667 0.255 1.294 0.726 1.767s1.098 0.732 1.771 0.732c1.377 0 2.497-1.12 2.497-2.5 0-0.275 0.224-0.5 0.5-0.5h2.499v0.5c0 1.332 1.167 2.501 2.499 2.501 1.378 0 2.499-1.121 2.499-2.499v-2.002c0-0.276-0.224-0.5-0.501-0.499zM5.5 3h9c1.22 0 2.347 0.486 3.172 1.37 0.857 0.918 1.329 2.209 1.328 3.636V13H1V7.5C1 5.019 3.019 3 5.5 3zM16.503 18c-0.827 0-1.5 0.673-1.5 1.503 0 0.825-0.671 1.497-1.503 1.497-0.399 0-0.774-0.155-1.056-0.438-0.282-0.282-0.436-0.658-0.435-1.058 0-0.401-0.154-0.779-0.438-1.063s-0.661-0.44-1.062-0.44H5.506c-0.824 0-1.497 0.671-1.5 1.508-2e-3 0.823-0.674 1.492-1.51 1.492-0.825 0-1.497-0.672-1.497-1.497v-5.503h18.002v4zM9 8c0-0.552 0.448-1 1-1s1 0.448 1 1-0.448 1-1 1-1-0.448-1-1zM5 8c0-0.552 0.448-1 1-1s1 0.448 1 1-0.448 1-1 1-1-0.448-1-1zM13 8c0-0.552 0.448-1 1-1s1 0.448 1 1-0.448 1-1 1-1-0.448-1-1z" />
</svg>