<svg id="reservation_smartphone_Layer_1" viewBox="0 0 24 24" fill="currentColor" width="32" height="32" data-name="Layer 1" xmlns="http://www.w3.org/2000/svg" xmlns:xlink="http://www.w3.org/1999/xlink">
    <title>reservation-smartphone</title>
    <path d="M15.5 14c-0.276 0-0.5 0.224-0.5 0.5V17H1V4.5C1 2.57 2.57 1 4.5 1h7C13.43 1 15 2.57 15 4.5 15 4.776 15.224 5 15.5 5S16 4.776 16 4.5C16 2.019 13.981 0 11.5 0h-7C2.019 0 0 2.019 0 4.5v15C0 21.981 2.019 24 4.5 24h7c2.481 0 4.5-2.019 4.5-4.5v-5c0-0.276-0.224-0.5-0.5-0.5zM11.5 23h-7C2.57 23 1 21.43 1 19.5V18h14v1.5c0 1.93-1.57 3.5-3.5 3.5zM24 19.5c0 0.276-0.224 0.5-0.5 0.5-2.064 0-3.813-1.243-4.563-3.244L17.154 12h-4.546c-1.273 0-2.379-0.896-2.573-2.083-0.119-0.734 0.085-1.476 0.562-2.036S11.767 7 12.502 7h7.424l0.067-0.138c0 0-1.347-1.695-1.349-1.698-0.904-1.008-0.844-2.562 0.15-3.489 1.007-0.941 2.588-0.894 3.524 0.106l1.548 1.64c0.087 0.092 0.135 0.214 0.135 0.341 0 0.448-0.547 0.667-0.856 0.342l-1.551-1.633c-0.562-0.599-1.514-0.629-2.118-0.064-0.602 0.561-0.635 1.509-0.073 2.115 4e-3 4e-3 1.372 1.719 1.372 1.719 0.262 0.329 0.311 0.769 0.128 1.147-0.183 0.379-0.557 0.614-0.978 0.614h-7.424c-0.44 0-0.857 0.193-1.143 0.529-0.29 0.341-0.409 0.776-0.336 1.227 0.115 0.709 0.797 1.244 1.586 1.244h4.893c0.208 0 0.395 0.129 0.468 0.324l1.905 5.08c0.6 1.601 1.99 2.596 3.627 2.596 0.276 0 0.5 0.224 0.499 0.498zM9.5 21h-3C6.224 21 6 20.776 6 20.5v0C6 20.224 6.224 20 6.5 20h3c0.276 0 0.5 0.224 0.5 0.5v0c0 0.276-0.224 0.5-0.5 0.5z" />
</svg>