<svg id="research_arrows_circle_Layer_1" viewBox="0 0 24 24" fill="currentColor" width="32" height="32" data-name="Layer 1" xmlns="http://www.w3.org/2000/svg" xmlns:xlink="http://www.w3.org/1999/xlink">
    <title>research-arrows-circle</title>
    <path d="M24 12c0 0.276-0.224 0.5-0.5 0.5S23 12.276 23 12c0-6.065-4.935-11-11-11-3.712 0-7.169 1.91-9.193 5H6.5C6.776 6 7 6.224 7 6.5S6.776 7 6.5 7h-4C1.673 7 1 6.327 1 5.5v-4C1 1.224 1.224 1 1.5 1S2 1.224 2 1.5v3.912C4.211 2.067 7.967 0 12 0c6.617 0 12 5.383 12 12zM21.5 17h-4c-0.276 0-0.5 0.224-0.5 0.5s0.224 0.5 0.5 0.5h3.694c-2.024 3.089-5.482 5-9.194 5-6.065 0-11-4.935-11-11 0-0.276-0.224-0.5-0.5-0.5S0 11.724 0 12c0 6.617 5.383 12 12 12 4.033 0 7.789-2.067 10-5.412V22.5c0 0.276 0.224 0.5 0.5 0.5s0.5-0.224 0.5-0.5v-4c0-0.827-0.673-1.5-1.5-1.5zM12.26 5.073c-0.234-0.142-0.544-0.069-0.687 0.167 0 0-3.514 5.782-3.525 5.822-0.104 0.341-0.04 0.701 0.172 0.987 0.213 0.286 0.539 0.45 0.896 0.45h5.78c0.041 0 0.071 0.018 0.091 0.054 0.02 0.037 0.018 0.072-0.015 0.122l-3.398 5.563c-0.144 0.235-0.069 0.544 0.166 0.688 0.081 0.05 0.172 0.073 0.261 0.073 0.168 0 0.332-0.085 0.427-0.239l3.389-5.548c0.225-0.339 0.245-0.773 0.052-1.131-0.192-0.359-0.564-0.582-0.972-0.582h-5.78c-0.048 0-0.076-0.025-0.092-0.047-0.012-0.015-0.022-0.036-0.023-0.062l3.427-5.631c0.144-0.236 0.069-0.543-0.169-0.686z" />
</svg>