<svg id="resize_screen_Layer_1" viewBox="0 0 24 24" fill="currentColor" width="32" height="32" data-name="Layer 1" xmlns="http://www.w3.org/2000/svg" xmlns:xlink="http://www.w3.org/1999/xlink">
    <title>resize-screen</title>
    <path d="M8 6.5V4.192C8 3.535 8.535 3 9.192 3H11.5C11.776 3 12 3.224 12 3.5S11.776 4 11.5 4H9.707L15 9.293V7.5C15 7.224 15.224 7 15.5 7S16 7.224 16 7.5v2.308C16 10.465 15.465 11 14.808 11H12.5c-0.276 0-0.5-0.224-0.5-0.5s0.224-0.5 0.5-0.5h1.793L9 4.707V6.5C9 6.776 8.776 7 8.5 7S8 6.776 8 6.5zM5 11.5v-9C5 1.121 6.122 0 7.5 0h9C17.878 0 19 1.121 19 2.5v9c0 1.379-1.122 2.5-2.5 2.5h-9C6.122 14 5 12.879 5 11.5zM6 11.5C6 12.327 6.673 13 7.5 13h9c0.827 0 1.5-0.673 1.5-1.5v-9C18 1.673 17.327 1 16.5 1h-9C6.673 1 6 1.673 6 2.5zM21.75 2.603c-0.241-0.14-0.546-0.057-0.683 0.183-0.139 0.239-0.057 0.545 0.182 0.683 1.08 0.624 1.75 1.786 1.75 3.032V15.5c0 1.93-1.57 3.5-3.5 3.5H4.5C2.57 19 1 17.43 1 15.5v-9c0-1.246 0.671-2.408 1.75-3.032 0.239-0.138 0.321-0.443 0.182-0.683-0.138-0.239-0.443-0.322-0.683-0.183C0.862 3.404 0 4.898 0 6.5v9C0 17.981 2.019 20 4.5 20h7v3h-5C6.224 23 6 23.224 6 23.5S6.224 24 6.5 24h11c0.276 0 0.5-0.224 0.5-0.5S17.776 23 17.5 23h-5v-3h7c2.481 0 4.5-2.019 4.5-4.5v-9c0-1.602-0.862-3.096-2.25-3.897z" />
</svg>