<svg id="resources_Layer_1" viewBox="0 0 24 24" fill="currentColor" width="32" height="32" data-name="Layer 1" xmlns="http://www.w3.org/2000/svg" xmlns:xlink="http://www.w3.org/1999/xlink">
    <title>resources</title>
    <path d="M20.5 2h-5C13.57 2 12 3.57 12 5.5v1.705L8.857 1.999C8.496 1.374 7.848 1 7.126 1s-1.37 0.374-1.733 1.001l-5.122 8.963c-0.363 0.635-0.361 1.392 6e-3 2.025S1.3 14 2.032 14h3.26C5.103 14.634 5 15.305 5 16c0 3.86 3.141 7 7 7s7-3.14 7-7c0-0.695-0.102-1.366-0.292-2H20.5c1.93 0 3.5-1.57 3.5-3.5v-5C24 3.57 22.43 2 20.5 2zM2.031 13c-0.371 0-0.704-0.191-0.89-0.513-0.187-0.321-0.188-0.705-3e-3-1.027L6.26 2.5c0.363-0.626 1.366-0.634 1.737 7e-3l3.92 6.494C9.166 9.033 6.791 10.661 5.676 13zM12 22c-3.309 0-6-2.691-6-6s2.691-6 6-6 6 2.691 6 6-2.691 6-6 6zM23 10.5c0 1.378-1.121 2.5-2.5 2.5h-2.176C17.336 10.925 15.355 9.41 13 9.072V5.5C13 4.122 14.121 3 15.5 3h5C21.879 3 23 4.122 23 5.5z" />
</svg>