<svg id="responsive_design_Layer_1" viewBox="0 0 24 24" fill="currentColor" width="32" height="32" data-name="Layer 1" xmlns="http://www.w3.org/2000/svg" xmlns:xlink="http://www.w3.org/1999/xlink">
    <title>responsive-design</title>
    <path d="M10 23.5c0 0.276-0.224 0.5-0.5 0.5h-5C2.019 24 0 21.981 0 19.5v-15C0 2.019 2.019 0 4.5 0h9C15.981 0 18 2.019 18 4.5 18 4.776 17.776 5 17.5 5S17 4.776 17 4.5C17 2.57 15.43 1 13.5 1h-9C2.57 1 1 2.57 1 4.5v15C1 21.43 2.57 23 4.5 23h5c0.276 0 0.5 0.224 0.5 0.5zM20.5 7h-5c-0.995 0-1.945 0.425-2.608 1.167-0.184 0.205-0.167 0.521 0.039 0.706 0.207 0.184 0.522 0.165 0.706-0.04C14.111 8.304 14.79 8 15.5 8h5c1.378 0 2.5 1.121 2.5 2.5v10c0 1.379-1.122 2.5-2.5 2.5h-5c-1.378 0-2.5-1.121-2.5-2.5 0-0.276-0.224-0.5-0.5-0.5S12 20.224 12 20.5c0 1.93 1.57 3.5 3.5 3.5h5c1.93 0 3.5-1.57 3.5-3.5v-10C24 8.57 22.43 7 20.5 7zM9.5 5C9.776 5 10 4.776 10 4.5S9.776 4 9.5 4H6C4.897 4 4 4.897 4 6v3.5C4 9.776 4.224 10 4.5 10S5 9.776 5 9.5V6c0-0.086 0.029-0.164 0.049-0.244L16.243 16.95c-0.08 0.021-0.157 0.049-0.244 0.049h-3.5c-0.276 0-0.5 0.224-0.5 0.5s0.224 0.5 0.5 0.5h3.5c1.103 0 2-0.897 2-2v-3.5c0-0.276-0.224-0.5-0.5-0.5s-0.5 0.224-0.5 0.5v3.5c0 0.086-0.029 0.164-0.049 0.244L5.756 5.049C5.836 5.028 5.913 5 6 5zM9.5 19h-2C7.224 19 7 19.224 7 19.5S7.224 20 7.5 20h2c0.276 0 0.5-0.224 0.5-0.5S9.776 19 9.5 19z" />
</svg>