<svg id="restaurant_Layer_1" viewBox="0 0 24 24" fill="currentColor" width="32" height="32" data-name="Layer 1" xmlns="http://www.w3.org/2000/svg" xmlns:xlink="http://www.w3.org/1999/xlink">
    <title>restaurant</title>
    <path d="M12.787 11.92 0.854 23.854C0.756 23.952 0.628 24 0.5 24s-0.256-0.049-0.354-0.146c-0.195-0.195-0.195-0.512 0-0.707L12.08 11.213c-1.541-1.897-1.43-4.698 0.335-6.464l4.603-4.603c0.195-0.195 0.512-0.195 0.707 0s0.195 0.512 0 0.707l-4.603 4.603c-1.374 1.375-1.484 3.543-0.33 5.045l7.354-7.354c0.195-0.195 0.512-0.195 0.707 0s0.195 0.512 0 0.707l-7.354 7.354c1.502 1.155 3.67 1.044 5.045-0.33l4.603-4.603c0.195-0.195 0.512-0.195 0.707 0s0.195 0.512 0 0.707l-4.603 4.603c-0.942 0.942-2.18 1.413-3.418 1.413-1.081 0-2.161-0.359-3.046-1.078zM6.683 13.751c0.093 0.076 0.205 0.113 0.316 0.113 0.145 0 0.289-0.062 0.388-0.184 0.175-0.213 0.143-0.529-0.071-0.704-4.818-3.941-6.315-9.39-6.315-10.928V1.681c0-0.409 0.249-0.57 0.397-0.629 0.218-0.085 0.568-0.087 0.832 0.192L8.332 7.84C8.52 8.043 8.835 8.055 9.039 7.868 9.242 7.68 9.254 7.364 9.067 7.161L2.96 0.56C2.456 0.027 1.697-0.146 1.028 0.123 0.394 0.375 0 0.972 0 1.683v0.365c0 1.954 1.684 7.613 6.683 11.703zM16.367 15.053c-0.188-0.204-0.504-0.216-0.707-0.028s-0.215 0.504-0.028 0.707l1.085 1.173c-1.787-0.228-3.472-0.668-5.026-1.313-0.256-0.105-0.547 0.015-0.654 0.27-0.106 0.255 0.015 0.548 0.27 0.654 1.968 0.817 4.133 1.32 6.436 1.498l5.388 5.825C23.23 23.946 23.364 24 23.498 24c0.122 0 0.243-0.044 0.339-0.133 0.203-0.188 0.215-0.504 0.028-0.707z" />
</svg>