<svg id="restock_Layer_1" viewBox="0 0 24 24" fill="currentColor" width="32" height="32" data-name="Layer 1" xmlns="http://www.w3.org/2000/svg" xmlns:xlink="http://www.w3.org/1999/xlink">
    <title>restock</title>
    <path d="M23.989 12.521C23.714 18.958 18.447 24 12 24c-4.765 0-9.064-2.832-10.972-7.136C1.021 16.91 1 16.952 1 17v3.5C1 20.776 0.776 21 0.5 21S0 20.776 0 20.5V17c0-1.103 0.897-2 2-2h3.5C5.776 15 6 15.224 6 15.5S5.776 16 5.5 16H2c-0.079 0-0.149 0.028-0.223 0.045C3.43 20.22 7.483 23 12 23c5.91 0 10.737-4.621 10.989-10.521 0.012-0.275 0.199-0.493 0.521-0.479 0.275 0.013 0.49 0.245 0.479 0.521zM23.5 3C23.224 3 23 3.224 23 3.5V7c0 0.048-0.021 0.089-0.027 0.134C21.064 2.832 16.766 0 12 0 5.553 0 0.287 5.042 0.011 11.479-1e-3 11.755 0.213 11.988 0.489 12h0.022c0.266 0 0.488-0.21 0.499-0.479C1.263 5.621 6.09 1 12 1c4.518 0 8.572 2.78 10.223 6.955C22.149 7.972 22.079 8 22 8h-3.5C18.224 8 18 8.224 18 8.5S18.224 9 18.5 9H22c1.103 0 2-0.897 2-2V3.5C24 3.224 23.776 3 23.5 3zM9.5 17C8.122 17 7 15.879 7 14.5v-5C7 8.121 8.122 7 9.5 7h5C15.879 7 17 8.121 17 9.5v5c0 1.379-1.121 2.5-2.5 2.5zM9.5 16h5c0.827 0 1.5-0.673 1.5-1.5v-5C16 8.673 15.327 8 14.5 8h-5C8.673 8 8 8.673 8 9.5v5C8 15.327 8.673 16 9.5 16zM11 11h2c0.276 0 0.5-0.224 0.5-0.5S13.276 10 13 10h-2c-0.276 0-0.5 0.224-0.5 0.5S10.724 11 11 11z" />
</svg>