<svg id="revenue_alt_Layer_1" viewBox="0 0 24 24" fill="currentColor" width="32" height="32" data-name="Layer 1" xmlns="http://www.w3.org/2000/svg" xmlns:xlink="http://www.w3.org/1999/xlink">
    <title>revenue-alt</title>
    <path d="M23.359 10.848C23.26 10.949 23.13 11 23 11c-0.125 0-0.251-0.047-0.348-0.141L20 8.288V23.5c0 0.276-0.224 0.5-0.5 0.5S19 23.776 19 23.5V8.288l-2.652 2.57c-0.197 0.193-0.514 0.187-0.707-0.011-0.191-0.198-0.187-0.515 0.012-0.707l2.793-2.707c0.579-0.579 1.53-0.58 2.115 5e-3l2.787 2.702c0.198 0.192 0.203 0.509 0.011 0.708zM8.848 3.859 11.5 1.289v6.212c0 0.276 0.224 0.5 0.5 0.5s0.5-0.224 0.5-0.5V1.288l2.652 2.571C15.249 3.953 15.375 4 15.5 4c0.131 0 0.261-0.051 0.359-0.152 0.191-0.198 0.187-0.515-0.012-0.707l-2.786-2.702c-0.585-0.585-1.536-0.584-2.115-5e-3L8.153 3.141C7.955 3.333 7.95 3.65 8.141 3.848c0.193 0.198 0.51 0.204 0.707 0.011zM8 9c0.131 0 0.261-0.051 0.359-0.152C8.55 8.65 8.546 8.333 8.347 8.141L5.56 5.439c-0.585-0.585-1.536-0.584-2.115-5e-3L0.652 8.141C0.454 8.333 0.449 8.65 0.64 8.848 0.833 9.046 1.15 9.052 1.347 8.859l2.652-2.57v17.212c0 0.276 0.224 0.5 0.5 0.5s0.5-0.224 0.5-0.5V6.288l2.652 2.571C7.748 8.953 7.874 9 8 9zM10.495 13h3.01C14.329 13 15 13.671 15 14.495c0 0.276 0.224 0.5 0.5 0.5s0.5-0.224 0.5-0.5C16 13.119 14.881 12 13.505 12H12.5v-1.5c0-0.276-0.224-0.5-0.5-0.5s-0.5 0.224-0.5 0.5V12h-1.005C9.119 12 8 13.119 8 14.495c0 1.108 0.744 2.095 1.81 2.399l4.105 1.173C14.554 18.249 15 18.84 15 19.505 15 20.329 14.329 21 13.505 21h-3.01C9.671 21 9 20.329 9 19.505c0-0.276-0.224-0.5-0.5-0.5S8 19.229 8 19.505C8 20.881 9.119 22 10.495 22H11.5v1.5c0 0.276 0.224 0.5 0.5 0.5s0.5-0.224 0.5-0.5V22h1.005C14.881 22 16 20.881 16 19.505c0-1.108-0.744-2.095-1.81-2.399l-4.105-1.173C9.446 15.751 9 15.16 9 14.495 9 13.671 9.671 13 10.495 13z" />
</svg>