<svg id="review_Layer_1" viewBox="0 0 24 24" fill="currentColor" width="32" height="32" data-name="Layer 1" xmlns="http://www.w3.org/2000/svg" xmlns:xlink="http://www.w3.org/1999/xlink">
    <title>review</title>
    <path d="M9 12c3.309 0 6-2.691 6-6s-2.691-6-6-6-6 2.691-6 6 2.691 6 6 6zM9 1c2.757 0 5 2.243 5 5s-2.243 5-5 5-5-2.243-5-5 2.243-5 5-5zM10.5 14.5c0 0.276-0.224 0.5-0.5 0.5H9.5C4.813 15 1 18.813 1 23.5 1 23.776 0.776 24 0.5 24S0 23.776 0 23.5C0 18.262 4.262 14 9.5 14H10c0.276 0 0.5 0.224 0.5 0.5zM23.914 16.759c-0.203-0.557-0.738-0.931-1.331-0.931h-2.398l-0.856-2.406c-0.206-0.551-0.739-0.922-1.328-0.922s-1.122 0.371-1.33 0.929l-0.854 2.399h-2.398c-0.592 0-1.126 0.373-1.33 0.927-0.205 0.556-0.039 1.187 0.421 1.576l1.912 1.556-0.757 2.272c-0.179 0.573 0.023 1.2 0.503 1.558C14.411 23.9 14.713 24 15.017 24c0.282 0 0.555-0.083 0.788-0.239l2.208-1.478 2.248 1.464c0.504 0.326 1.16 0.301 1.639-0.065 0.476-0.367 0.668-0.996 0.477-1.576l-0.781-2.227 1.903-1.55c0.453-0.382 0.621-1.013 0.415-1.57zM22.858 17.558l-2.169 1.767c-0.164 0.133-0.227 0.354-0.156 0.553l0.895 2.55c0.056 0.168 0 0.354-0.14 0.46-0.143 0.108-0.336 0.116-0.484 0.02l-2.524-1.644c-0.167-0.109-0.384-0.107-0.551 3e-3l-2.482 1.662c-0.143 0.095-0.342 0.092-0.48-0.014-0.142-0.105-0.201-0.29-0.15-0.451l0.862-2.591c0.065-0.197 2e-3-0.415-0.159-0.545l-2.172-1.767c-0.132-0.112-0.181-0.297-0.12-0.461 0.06-0.164 0.217-0.273 0.391-0.273h2.751c0.212 0 0.4-0.133 0.471-0.332l0.971-2.725c0.121-0.325 0.662-0.318 0.779-7e-3l0.973 2.731c0.07 0.199 0.259 0.332 0.471 0.332h2.751c0.175 0 0.332 0.11 0.392 0.274s0.01 0.35-0.12 0.458z" />
</svg>