<svg id="rhombus_Layer_1" viewBox="0 0 24 24" fill="currentColor" width="32" height="32" data-name="Layer 1" xmlns="http://www.w3.org/2000/svg" xmlns:xlink="http://www.w3.org/1999/xlink">
    <title>rhombus</title>
    <path d="M23.11 9.851l-8.961-8.96c-1.147-1.148-3.151-1.148-4.299 0l-8.96 8.96c-1.185 1.186-1.185 3.113 0 4.299l8.96 8.96c0.574 0.574 1.337 0.891 2.149 0.891s1.576-0.316 2.149-0.891l8.96-8.96c1.185-1.186 1.185-3.113 2e-3-4.299zM22.403 13.443l-8.96 8.96c-0.771 0.771-2.114 0.771-2.885 0l-8.961-8.961c-0.795-0.795-0.795-2.09 0-2.885l8.961-8.959c0.771-0.771 2.114-0.771 2.885 0l8.96 8.96c0.795 0.795 0.795 2.09 0 2.885z" />
</svg>