<svg id="right_from_bracket_Layer_1" viewBox="0 0 24 24" fill="currentColor" width="32" height="32" data-name="Layer 1" xmlns="http://www.w3.org/2000/svg" xmlns:xlink="http://www.w3.org/1999/xlink">
    <title>right-from-bracket</title>
    <path d="M22.91 9.336l-7.338-6.55c-0.775-0.775-1.885-1-2.898-0.581-1.013 0.417-1.644 1.357-1.647 2.454v2.34l-3.526-8e-3c-1.916 0-3.474 1.574-3.474 3.509v2.992C4.027 15.427 5.586 17 7.501 17h3.526v2.345c5e-3 1.096 0.638 2.035 1.65 2.451 0.337 0.139 0.686 0.206 1.029 0.206 0.682 0 1.342-0.267 1.857-0.776l7.369-6.579c1.457-1.458 1.456-3.832-0.022-5.311zM22.245 13.92c0 0-7.373 6.581-7.379 6.588-0.577 0.578-1.312 0.566-1.809 0.363-0.496-0.204-1.027-0.713-1.031-1.528V16.5c0-0.276-0.224-0.5-0.5-0.5H7.5c-1.364 0-2.474-1.125-2.474-2.508V10.5c0-1.384 1.11-2.509 2.473-2.509L11.525 8v0c0.132 0 0.259-0.053 0.353-0.146 0.094-0.094 0.147-0.221 0.147-0.354V4.66c3e-3-0.817 0.533-1.327 1.028-1.531 0.496-0.203 1.231-0.215 1.83 0.383l7.338 6.55c1.068 1.069 1.068 2.809 0.024 3.858zM9 23.5C9 23.776 8.776 24 8.5 24h-4C2.019 24 0 21.981 0 19.5v-15C0 2.019 2.019 0 4.5 0h4C8.776 0 9 0.224 9 0.5S8.776 1 8.5 1h-4C2.57 1 1 2.57 1 4.5v15C1 21.43 2.57 23 4.5 23h4C8.776 23 9 23.224 9 23.5z" />
</svg>