<svg id="right_Layer_1" viewBox="0 0 24 24" fill="currentColor" width="32" height="32" data-name="Layer 1" xmlns="http://www.w3.org/2000/svg" xmlns:xlink="http://www.w3.org/1999/xlink">
    <title>right</title>
    <path d="M13.68 22c-0.34 0-0.69-0.07-1.03-0.21-1.01-0.42-1.65-1.36-1.65-2.45V17H3.47C1.55 17 0 15.43 0 13.49V10.5c0-1.93 1.56-3.51 3.47-3.51H11c0 0 0-2.33 0-2.33 0-1.1 0.64-2.04 1.65-2.45 1.01-0.42 2.12-0.19 2.9 0.58l7.34 6.55c1.48 1.48 1.48 3.85 0.02 5.31l-7.37 6.58c-0.51 0.51-1.17 0.78-1.86 0.77zM3.47 7.99C2.11 7.99 1 9.11 1 10.5v2.99C1 14.87 2.11 16 3.47 16h8.03c0.28 0 0.5 0.22 0.5 0.5v2.84c0 0.82 0.54 1.32 1.03 1.53 0.5 0.2 1.23 0.22 1.81-0.36 0 0 0.01-0.01 0.02-0.02l7.36-6.57c1.05-1.05 1.05-2.79-0.02-3.86l-7.34-6.55c-0.6-0.6-1.33-0.59-1.83-0.38C12.53 3.33 12 3.84 12 4.66V7.5c0 0.13-0.05 0.26-0.15 0.35S11.63 8 11.5 8z" />
</svg>