<svg id="ring_Layer_1" viewBox="0 0 24 24" fill="currentColor" width="32" height="32" data-name="Layer 1" xmlns="http://www.w3.org/2000/svg" xmlns:xlink="http://www.w3.org/1999/xlink">
    <title>ring</title>
    <path d="M24 9.5C24 5.855 18.729 3 12 3S0 5.855 0 9.5v5.25C0 18.255 5.271 21 12 21s12-2.745 12-6.25V9.523c0 0 0-5e-3 0-7e-3 0-5e-3 0-0.01 0-0.016zM12 4c5.963 0 11 2.519 11 5.5 0 0.604-0.207 1.189-0.586 1.738C20.308 9.254 16.324 8 12 8S3.693 9.257 1.586 11.238C1.207 10.689 1 10.104 1 9.5 1 6.519 6.037 4 12 4zM21.76 11.994C19.907 13.762 16.181 15 12 15s-7.906-1.238-9.76-3.006C4.146 10.164 7.9 9 12 9s7.855 1.162 9.76 2.994zM23 14.75C23 17.596 17.963 20 12 20S1 17.596 1 14.75v-2.607C2.836 14.435 7.018 16 12 16c8.346 0 10.965-3.74 10.987-3.841 4e-3-5e-3 8e-3-0.01 0.013-0.016z" />
</svg>