<svg id="ring_diamond_Layer_1" viewBox="0 0 24 24" fill="currentColor" width="32" height="32" data-name="Layer 1" xmlns="http://www.w3.org/2000/svg" xmlns:xlink="http://www.w3.org/1999/xlink">
    <title>ring-diamond</title>
    <path d="M14.283 6.294l1.84-2.433c0.524-0.693 0.456-1.679-0.159-2.293L15.13 0.734c-0.472-0.472-1.1-0.732-1.768-0.732h-2.724c-0.668 0-1.296 0.26-1.768 0.732L8.036 1.568C7.422 2.182 7.353 3.169 7.877 3.862l1.84 2.433C5.857 7.308 3 10.827 3 15.001c0 4.962 4.038 9 9 9s9-4.038 9-9c0-4.174-2.856-7.693-6.717-8.707zM13.191 6.079c-0.228-0.03-0.458-0.052-0.691-0.065V3.89l2.881-0.72c-0.017 0.03-2.19 2.909-2.19 2.909zM9.577 1.439C9.861 1.156 10.237 1 10.638 1h2.724c0.401 0 0.777 0.156 1.061 0.439l0.752 0.752L12 2.984 8.825 2.191zM8.618 3.169 11.5 3.889v2.124c-0.233 0.013-0.463 0.035-0.691 0.065 0 0-2.173-2.879-2.191-2.909zM12 22.999c-4.411 0-8-3.589-8-8S7.589 7 12 7s8 3.589 8 8-3.589 8-8 7.999z" />
</svg>