<svg id="rings_wedding_Layer_1" viewBox="0 0 24 24" fill="currentColor" width="32" height="32" data-name="Layer 1" xmlns="http://www.w3.org/2000/svg" xmlns:xlink="http://www.w3.org/1999/xlink">
    <title>rings-wedding</title>
    <path d="M16 8c-2.374 0-4.509 1.04-5.976 2.688-0.667-0.321-1.393-0.539-2.156-0.634l2.056-3.289c0.129-0.206 0.091-0.475-0.09-0.637C9.782 6.082 8.558 5 7 5S4.218 6.082 4.166 6.128C3.985 6.29 3.947 6.559 4.076 6.765l2.056 3.289C2.68 10.483 0 13.435 0 17c0 3.859 3.14 7 7 7 1.635 0 3.14-0.564 4.333-1.506C12.647 23.441 14.26 24 16 24c4.411 0 8-3.589 8-8s-3.589-8-8-8zM7 6c0.761 0 1.445 0.366 1.833 0.624L7 9.557 5.167 6.624C5.555 6.366 6.239 6 7 6zM7 23c-3.309 0-6-2.691-6-6s2.691-6 6-6c0.849 0 1.658 0.178 2.391 0.497C8.514 12.78 8 14.331 8 16c0 2.302 0.978 4.38 2.54 5.841C9.547 22.569 8.323 23 7 23zM9 16c0-1.497 0.472-2.885 1.276-4.024C11.915 13.048 13 14.9 13 17c0 1.625-0.649 3.1-1.702 4.182C9.887 19.9 9 18.052 9 16zM16 23c-1.448 0-2.794-0.442-3.912-1.198C13.273 20.548 14 18.857 14 17c0-2.412-1.226-4.543-3.088-5.802C12.189 9.846 13.998 9 16 9c3.86 0 7 3.141 7 7s-3.14 7-7 7zM10.053 3.276l1-2c0.124-0.246 0.424-0.348 0.671-0.224s0.347 0.424 0.224 0.671l-1 2C10.86 3.898 10.684 3.999 10.5 3.999c-0.075 0-0.151-0.017-0.223-0.053-0.247-0.124-0.347-0.424-0.224-0.67zM2.053 1.724C1.929 1.477 2.03 1.177 2.277 1.053s0.547-0.022 0.671 0.224l1 2c0.124 0.247 0.023 0.547-0.224 0.671-0.072 0.036-0.148 0.053-0.223 0.053-0.184 0-0.36-0.102-0.448-0.276zM6.5 2.5v-2C6.5 0.224 6.724 0 7 0s0.5 0.224 0.5 0.5v2C7.5 2.776 7.276 3 7 3S6.5 2.776 6.5 2.5z" />
</svg>