<svg id="road_bridge_Layer_1" viewBox="0 0 24 24" fill="currentColor" width="32" height="32" data-name="Layer 1" xmlns="http://www.w3.org/2000/svg" xmlns:xlink="http://www.w3.org/1999/xlink">
    <title>road-bridge</title>
    <path d="M11.5 0H4C1.794 0 0 1.794 0 4v5.802C0 11 0.628 12.114 1.679 12.783 3.133 13.706 4 15.283 4 17v6c0 0.551 0.448 1 1 1h1c0.552 0 1-0.449 1-1v-5.764c0-2.347 1.497-4.423 3.64-5.047 0.266-0.077 0.418-0.354 0.341-0.62-0.078-0.266-0.352-0.42-0.62-0.34-2.567 0.748-4.36 3.218-4.36 6.007V23h-1v-6c0-2.062-1.041-3.954-2.784-5.061-0.762-0.484-1.216-1.283-1.216-2.137V5H10.5C10.776 5 11 4.776 11 4.5S10.776 4 10.5 4H10V1h1.5C11.776 1 12 0.776 12 0.5S11.776 0 11.5 0zM4 1v3H1c0-1.654 1.346-3 3-3zM9 4H5V1h4zM20.5 0h-4C14.57 0 13 1.57 13 3.5v17c0 1.93 1.57 3.5 3.5 3.5h4c1.93 0 3.5-1.57 3.5-3.5v-17C24 1.57 22.43 0 20.5 0zM23 20.5c0 1.378-1.121 2.5-2.5 2.5h-4c-1.379 0-2.5-1.122-2.5-2.5v-17C14 2.122 15.121 1 16.5 1h4C21.879 1 23 2.122 23 3.5zM19 4.5v3C19 7.776 18.776 8 18.5 8S18 7.776 18 7.5v-3C18 4.224 18.224 4 18.5 4S19 4.224 19 4.5zM19 10.5v3c0 0.276-0.224 0.5-0.5 0.5S18 13.776 18 13.5v-3c0-0.276 0.224-0.5 0.5-0.5s0.5 0.224 0.5 0.5zM19 16v3.5c0 0.276-0.224 0.5-0.5 0.5S18 19.776 18 19.5V16c0-0.276 0.224-0.5 0.5-0.5S19 15.724 19 16z" />
</svg>