<svg id="road_sign_left_Layer_1" viewBox="0 0 24 24" fill="currentColor" width="32" height="32" data-name="Layer 1" xmlns="http://www.w3.org/2000/svg" xmlns:xlink="http://www.w3.org/1999/xlink">
    <title>road-sign-left</title>
    <path d="M22.693 8.838 15.161 1.305C14.32 0.464 13.197 0 12.001 0s-2.319 0.463-3.16 1.304L1.31 8.838C0.466 9.682 0 10.804 0 11.998s0.465 2.315 1.309 3.159l7.531 7.534c0.871 0.871 2.016 1.307 3.16 1.307s2.29-0.436 3.161-1.307l7.531-7.534c1.742-1.742 1.742-4.577 1e-3-6.319zM21.986 14.45l-7.531 7.534c-1.353 1.352-3.553 1.353-4.907 0L2.017 14.45c-1.353-1.352-1.353-3.553 0-4.905l7.531-7.533c1.354-1.353 3.553-1.353 4.906 0l7.532 7.533c1.353 1.353 1.353 3.553 0 4.905zM16 13.499v4c0 0.276-0.224 0.5-0.5 0.5s-0.5-0.224-0.5-0.5v-4c0-1.378-1.121-2.5-2.5-2.5H7.207l3.146 3.146c0.195 0.195 0.195 0.512 0 0.707-0.098 0.098-0.226 0.146-0.354 0.146s-0.256-0.049-0.354-0.146l-3.301-3.301c-0.58-0.581-0.58-1.525 0-2.105l3.301-3.301c0.195-0.195 0.512-0.195 0.707 0s0.195 0.512 0 0.707L7.206 9.998h5.293c1.93 0 3.5 1.57 3.501 3.501z" />
</svg>