<svg id="road_map_pin_Layer_1" viewBox="0 0 24 24" fill="currentColor" width="32" height="32" data-name="Layer 1" xmlns="http://www.w3.org/2000/svg" xmlns:xlink="http://www.w3.org/1999/xlink">
    <title>road-map-pin</title>
    <path d="M12 14c0.276 0 0.5 0.224 0.5 0.5v3c0 0.276-0.224 0.5-0.5 0.5s-0.5-0.224-0.5-0.5v-3c0-0.276 0.224-0.5 0.5-0.5zM8.479 8.55C7.524 7.596 7 6.337 7 5 6.945 2.312 9.312-0.055 12 0c2.689-0.055 5.055 2.312 5 5 0 1.336-0.521 2.592-1.465 3.536l-1.795 1.756c-0.959 0.939-2.521 0.939-3.48 0zM8 5c0 1.069 0.42 2.077 1.183 2.839l1.776 1.738c0.574 0.562 1.508 0.562 2.082 0l1.791-1.752C15.584 7.074 16 6.069 16 5c0.044-2.15-1.85-4.044-4-4-2.15-0.044-4.044 1.85-4 4zM10 5c0-1.103 0.897-2 2-2s2 0.897 2 2-0.897 2-2 2-2-0.897-2-2zM11 5c0 0.551 0.448 1 1 1s1-0.449 1-1-0.448-1-1-1-1 0.449-1 1zM23.928 18.507 22.382 9.721c-0.3-1.71-1.576-3.109-3.251-3.563-0.269-0.074-0.541 0.086-0.613 0.352s0.085 0.541 0.352 0.613c1.302 0.354 2.294 1.442 2.528 2.771l1.546 8.787c0.437 2.178-1.404 4.374-3.626 4.319h-6.817v-2.5c0-0.276-0.224-0.5-0.5-0.5s-0.5 0.224-0.5 0.5V23H4.683c-2.22 0.054-4.062-2.139-3.627-4.316l1.537-8.787C2.827 8.563 3.823 7.473 5.13 7.12 5.397 7.048 5.555 6.773 5.483 6.507 5.412 6.241 5.136 6.083 4.871 6.154 3.19 6.607 1.909 8.008 1.609 9.724l-1.538 8.788C-0.484 21.28 1.86 24.07 4.682 24h14.635c2.824 0.069 5.168-2.724 4.611-5.493z" />
</svg>