<svg id="road_barrier_Layer_1" viewBox="0 0 24 24" fill="currentColor" width="32" height="32" data-name="Layer 1" xmlns="http://www.w3.org/2000/svg" xmlns:xlink="http://www.w3.org/1999/xlink">
    <title>road-barrier</title>
    <path d="M23.5 2C23.224 2 23 2.224 23 2.5V4H1V2.5C1 2.224 0.776 2 0.5 2S0 2.224 0 2.5v19C0 21.776 0.224 22 0.5 22S1 21.776 1 21.5V14h22v7.5c0 0.276 0.224 0.5 0.5 0.5s0.5-0.224 0.5-0.5v-19C24 2.224 23.776 2 23.5 2zM23 6.293 16.293 13h-4.586l8-8H23zM5.707 13l8-8h4.586l-8 8zM6.293 5 1 10.293V5zM1 11.707 7.707 5h4.586l-8 8H1zM17.707 13 23 7.707V13z" />
</svg>