<svg id="road_check_Layer_1" viewBox="0 0 24 24" fill="currentColor" width="32" height="32" data-name="Layer 1" xmlns="http://www.w3.org/2000/svg" xmlns:xlink="http://www.w3.org/1999/xlink">
    <title>road-check</title>
    <path d="M11 23.5c0 0.276-0.224 0.5-0.5 0.5H4.683c-1.386 0-2.693-0.608-3.584-1.67-0.892-1.061-1.267-2.453-1.028-3.818L2.632 3.875C3.025 1.629 4.964 0 7.244 0h9.499c2.277 0 4.216 1.628 4.61 3.871l0.976 5.542c0.048 0.272-0.134 0.531-0.405 0.579-0.268 0.048-0.532-0.133-0.579-0.405l-0.976-5.543c-0.311-1.763-1.835-3.043-3.626-3.043H7.244c-1.792 0-3.318 1.281-3.626 3.047L1.056 18.684c-0.188 1.074 0.107 2.168 0.808 3.003C2.565 22.521 3.593 23 4.683 23H10.5c0.276 0 0.5 0.224 0.5 0.5zM12.5 4.5C12.5 4.224 12.276 4 12 4s-0.5 0.224-0.5 0.5v3C11.5 7.776 11.724 8 12 8s0.5-0.224 0.5-0.5zM12 10c-0.276 0-0.5 0.224-0.5 0.5v1c0 0.276 0.224 0.5 0.5 0.5s0.5-0.224 0.5-0.5v-1c0-0.276-0.224-0.5-0.5-0.5zM24 17.5c0 3.584-2.916 6.5-6.5 6.5S11 21.084 11 17.5 13.916 11 17.5 11 24 13.916 24 17.5zM23 17.5c0-3.033-2.468-5.5-5.5-5.5S12 14.467 12 17.5 14.468 23 17.5 23 23 20.533 23 17.5zM20.143 16.131l-2.707 2.617c-0.337 0.333-0.887 0.333-1.222 4e-3l-1.362-1.344c-0.196-0.194-0.513-0.192-0.707 5e-3-0.194 0.196-0.192 0.513 4e-3 0.707l1.364 1.345c0.361 0.355 0.837 0.532 1.312 0.532s0.95-0.178 1.311-0.534l2.703-2.614c0.198-0.192 0.204-0.508 0.012-0.707-0.19-0.199-0.508-0.203-0.708-0.011z" />
</svg>