<svg id="robot_money_Layer_1" viewBox="0 0 24 24" fill="currentColor" width="32" height="32" data-name="Layer 1" xmlns="http://www.w3.org/2000/svg" xmlns:xlink="http://www.w3.org/1999/xlink">
    <title>robot-money</title>
    <path d="M5 10c0 1.103 0.897 2 2 2s2-0.897 2-2-0.897-2-2-2-2 0.897-2 2zM8 10c0 0.551-0.448 1-1 1s-1-0.449-1-1 0.448-1 1-1 1 0.449 1 1zM19 23.5c0 0.276-0.224 0.5-0.5 0.5S18 23.776 18 23.5c0-2.481-2.019-4.5-4.5-4.5h-7C4.019 19 2 21.019 2 23.5 2 23.776 1.776 24 1.5 24S1 23.776 1 23.5C1 20.467 3.468 18 6.5 18h7c3.032 0 5.5 2.467 5.5 5.5zM2 12c0 2.206 1.794 4 4 4h8c1.978 0 3.68-1.474 3.96-3.429 0.039-0.273-0.15-0.526-0.424-0.566-0.27-0.038-0.527 0.15-0.566 0.424C16.76 13.894 15.484 15 14 15H6c-1.654 0-3-1.346-3-3V8c0-1.654 1.346-3 3-3h4.5C10.776 5 11 4.776 11 4.5v-3C11 1.224 10.776 1 10.5 1S10 1.224 10 1.5V4H6C3.794 4 2 5.794 2 8H1.5C0.673 8 0 8.673 0 9.5v1C0 11.327 0.673 12 1.5 12zM1 10.5v-1C1 9.224 1.225 9 1.5 9H2v2H1.5C1.225 11 1 10.776 1 10.5zM21 0h-5c-1.657 2e-3-3 1.345-2.999 3.002l2e-3 7.772c0 0.638 0.524 1.088 1.089 1.088 0.196 0 0.397-0.054 0.583-0.173l2.198-1.513C17.04 10.061 17.238 10 17.44 10h3.561c1.657 0 3-1.343 3-3V3C24 1.344 22.657 0 21 0zM17.439 8.999c-0.407 0-0.799 0.122-1.134 0.353l-2.213 1.51c0 0-0.089-5e-3-0.089-0.088l-2e-3-7.772c0-0.534 0.208-1.037 0.585-1.414 0.378-0.378 0.88-0.586 1.414-0.586h2C18 1.002 18 2 18 2h-0.432C16.703 2 16 2.722 16 3.608c0 0.712 0.466 1.347 1.146 1.549l2.436 0.647C19.828 5.877 20 6.118 20 6.39c0 0.335-0.255 0.608-0.568 0.608h-1.863c-0.095 0-0.568-0.023-0.568-0.481 0-0.276-0.224-0.5-0.5-0.5s-0.5 0.224-0.5 0.5c0 0.858 0.659 1.481 1.568 1.481h0.432v1zM23 6.999c0 1.103-0.897 2-2 2h-2v-1h0.432C20.297 7.999 21 7.277 21 6.391c0-0.712-0.466-1.347-1.146-1.549l-2.436-0.647C17.172 4.122 17 3.881 17 3.609c0-0.335 0.255-0.608 0.568-0.608h1.863c0.262 0 0.568 0.131 0.568 0.5 0 0.276 0.224 0.5 0.5 0.5s0.5-0.224 0.5-0.5c0-0.855-0.674-1.5-1.568-1.5h-0.432V1.002h2c1.103 0 2 0.897 2 2z" />
</svg>