<svg id="rocks_Layer_1" viewBox="0 0 24 24" fill="currentColor" width="32" height="32" data-name="Layer 1" xmlns="http://www.w3.org/2000/svg" xmlns:xlink="http://www.w3.org/1999/xlink">
    <title>rocks</title>
    <path d="M22.233 13.156c-0.493-1.287-1.75-2.152-3.128-2.153L15.001 11h-4e-3c-0.897 0-1.771 0.368-2.398 1.011l-2.607 2.672c-0.615 0.629-0.954 1.461-0.954 2.342v1.545c0 0.843 0.314 1.648 0.884 2.269l1.91 2.079c0.634 0.688 1.534 1.083 2.468 1.083h5.089c1.215 0 2.337-0.659 2.929-1.721l1.259-2.259c0.484-0.87 0.558-1.902 0.202-2.832zM22.703 19.534l-1.259 2.259C21.028 22.537 20.241 23 19.388 23h-5.089c-0.656 0-1.288-0.277-1.732-0.76l-1.909-2.079c-0.4-0.435-0.621-1-0.621-1.592v-1.545c0-0.618 0.238-1.201 0.669-1.643v0l2.607-2.672c0.44-0.451 1.053-0.71 1.683-0.71h3e-3l4.104 3e-3c0.967 0 1.85 0.608 2.196 1.511l1.545 4.032c0.25 0.652 0.198 1.377-0.141 1.989zM11 7.652V5.095c0-1.05-0.513-2.038-1.372-2.642L6.975 0.588C5.911-0.159 4.509-0.2 3.406 0.491l-1.888 1.18C0.568 2.266 0 3.289 0 4.409v3.198c0 1.354 0.854 2.573 2.125 3.034l3.2 1.164c1.069 0.39 2.29 0.181 3.17-0.555l1.343-1.118C10.576 9.517 11 8.612 11 7.652zM7.855 10.483c-0.606 0.506-1.445 0.655-2.188 0.383l-3.2-1.164C1.59 9.384 1 8.542 1 7.607V4.409c0-0.773 0.392-1.48 1.048-1.891l1.888-1.18c0.363-0.227 0.772-0.34 1.182-0.34 0.449 0 0.897 0.137 1.282 0.407l2.654 1.866c0.593 0.417 0.947 1.099 0.947 1.823v2.557c0 0.663-0.292 1.288-0.802 1.713zM16.197 7.938C16.7 8.603 17.499 9 18.332 9h1.694c0.711 0 1.38-0.275 1.885-0.775l1.292-1.278c0.726-0.718 0.979-1.767 0.663-2.737l-0.77-2.36c-0.361-1.105-1.385-1.849-2.548-1.849h-2.702c-0.819 0-1.582 0.367-2.092 1.006l-1.168 1.459c-0.767 0.96-0.785 2.314-0.042 3.294zM15.367 3.089 16.535 1.63c0.32-0.401 0.798-0.631 1.312-0.631h2.702c0.729 0 1.372 0.466 1.598 1.159l0.771 2.36c0.198 0.608 0.039 1.266-0.416 1.716L21.21 7.512v0c-0.316 0.313-0.736 0.486-1.182 0.486h-1.694c-0.522 0-1.022-0.249-1.338-0.665l-1.653-2.18c-0.465-0.614-0.454-1.464 0.024-2.064zM4.667 16.419c-0.413-0.6-1.196-0.82-1.861-0.525l-1.904 0.842C0.354 16.979 0 17.523 0 18.123v1.588c0 0.574 0.333 1.109 0.85 1.362l1.582 0.773c0.621 0.306 1.38 0.152 1.832-0.391l1.386-1.663c0.434-0.521 0.468-1.274 0.083-1.832zM4.88 19.151 3.495 20.814c-0.153 0.185-0.411 0.238-0.624 0.133l-1.582-0.773c-0.176-0.086-0.29-0.269-0.29-0.464v-1.588c0-0.204 0.121-0.39 0.307-0.473l1.904-0.842c0.227-0.099 0.493-0.024 0.633 0.18l1.064 1.541c0.131 0.189 0.12 0.446-0.027 0.623zM8 5.955v1.712c0 0.276-0.224 0.5-0.5 0.5S7 7.943 7 7.667V5.955C7 5.792 6.92 5.64 6.787 5.546L5.212 4.439C4.986 4.28 4.932 3.968 5.09 3.743 5.249 3.516 5.561 3.462 5.787 3.621l1.575 1.107C7.761 5.009 7.999 5.468 8 5.955zM17 20.5c0 0.276-0.224 0.5-0.5 0.5h-1.748c-0.422 0-0.828-0.18-1.112-0.493l-1.511-1.672c-0.185-0.205-0.169-0.521 0.036-0.706 0.205-0.184 0.521-0.17 0.707 0.036l1.51 1.671C14.476 19.94 14.612 20 14.753 20h1.748c0.276 0 0.5 0.224 0.499 0.5z" />
</svg>