<svg id="rocket_hand_Layer_1" viewBox="0 0 24 24" fill="currentColor" width="32" height="32" data-name="Layer 1" xmlns="http://www.w3.org/2000/svg" xmlns:xlink="http://www.w3.org/1999/xlink">
    <title>rocket-hand</title>
    <path d="M10.854 17.244c0.195-0.195 0.195-0.512 0-0.707s-0.512-0.195-0.707 0C9.88 16.819 9.6 17.05 9.158 17.038 8.476 17.041 7.949 16.447 8 15.773c0.192-0.14 0.468-0.345 0.805-0.604 0.219-0.168 0.26-0.482 0.092-0.701-0.167-0.218-0.481-0.259-0.701-0.092-0.287 0.221-0.527 0.399-0.709 0.533l-4.359-4.357c0.519-0.705 1.777-2.361 3.024-3.608 3.23-3.23 5.185-4.532 8.694-5.798 0.351-0.108 1.453-0.319 1.889 0.118 0.436 0.436 0.226 1.538 0.125 1.867-0.632 1.754-1.35 3.205-2.398 4.85-0.148 0.233-0.08 0.542 0.153 0.69 0.232 0.148 0.542 0.081 0.69-0.153 1.09-1.71 1.836-3.22 2.502-5.069 0.061-0.197 0.572-1.953-0.366-2.892-0.939-0.939-2.695-0.427-2.913-0.359-3.159 1.138-5.176 2.353-7.808 4.805-2.747 0.051-4.845 0.882-6.236 2.472C0.171 7.833-1e-3 8.318-1e-3 8.841c0 1.19 0.968 2.158 2.158 2.158h5e-3l2.065 2.065-1.581 1.581c-0.195 0.195-0.195 0.512 0 0.707s0.512 0.195 0.707 0l1.581-1.581 2.065 2.066v0.043c0 1.189 0.968 2.157 2.158 2.157 0.7 0.011 1.257-0.316 1.697-0.793zM1 8.842C1 8.561 1.084 8.31 1.238 8.134c1.02-1.167 2.46-1.838 4.367-2.053C4.257 7.379 2.802 9.3 2.293 10 1.61 10.061 0.996 9.537 1 8.842zM12 5c0.552 0 1 0.448 1 1s-0.448 1-1 1-1-0.448-1-1 0.448-1 1-1zM23.949 12.152c-0.122 0.249-0.419 0.352-0.669 0.229-0.99-0.485-2.034-0.475-3.019 0.032l-3.302 1.954c-0.198 0.116-0.45 0.083-0.611-0.081l-3.715-3.79c-0.554-0.555-1.414-0.658-1.998-0.238-0.755 0.511-0.847 1.661-0.195 2.288l6.332 6.61c0.306 0.298 0.066 0.86-0.361 0.846h-3.91c-0.827 0-1.5 0.673-1.5 1.5s0.673 1.5 1.5 1.5h8c0.276 0 0.5 0.224 0.5 0.5s-0.224 0.5-0.5 0.5H12.5c-1.378 0-2.5-1.121-2.5-2.5s1.122-2.5 2.5-2.5h2.739l-5.514-5.756c-1.079-1.032-0.916-2.953 0.325-3.799 0.976-0.704 2.393-0.555 3.293 0.346l3.445 3.514 2.99-1.768c1.302-0.672 2.656-0.686 3.942-0.055 0.248 0.122 0.35 0.421 0.229 0.668z" />
</svg>