<svg id="rocking_horse_Layer_1" viewBox="0 0 24 24" fill="currentColor" width="32" height="32" data-name="Layer 1" xmlns="http://www.w3.org/2000/svg" xmlns:xlink="http://www.w3.org/1999/xlink">
    <title>rocking-horse</title>
    <path d="M23.653 17.352c-0.948-0.961-2.512-2.32-4.653-3.444V9.001h5V7.828c0-0.953-0.532-1.825-1.355-2.222-1.453-0.701-3.02-1.75-3.645-4.181V0c-0.774 0-1.437 0.444-1.77 1.087-1.541 0.205-2.778 0.794-3.676 1.769-1.761 1.914-1.562 4.573-1.552 4.691 0.015 0.153 0.32 3.763-2.659 4.622-0.504 0.074-0.976 0.183-1.44 0.301C7.596 11.233 6.376 7.999 2 7.999v1c3.82 0 4.746 2.824 4.949 3.76-3.656 1.273-5.566 3.243-6.933 4.904l2.304 1.921c1.377-1.66 3.884-4.465 9.181-4.584 0.346 0 0.684 0.018 1.016 0.045l-3.332 2.863 3.514 2.444-2.929 2.647H5v1h14v-1h-7.739l3.041-2.749-3.486-2.427 3.011-2.586-7e-3-8e-3c4.202 0.89 6.585 3.123 8.062 4.596l2.121-2.121zM21.877 18.416C20.222 16.854 16.508 14 11.5 14c-4.876 0-7.959 2.674-9.307 4.178L1.429 17.54c1.365-1.525 4.016-3.786 8.123-4.395 3.081-0.884 3.601-4.111 3.445-5.686-2e-3-0.023-0.167-2.348 1.298-3.933 0.871-0.943 2.157-1.454 3.825-1.52 0.788 2.609 2.587 3.773 4.09 4.498 0.539 0.252 0.836 0.877 0.789 1.494h-5v6.52c1.917 0.916 3.621 2.244 4.587 3.187z" />
</svg>