<svg id="rock_hair_user_Layer_1" viewBox="0 0 24 24" fill="currentColor" width="32" height="32" data-name="Layer 1" xmlns="http://www.w3.org/2000/svg" xmlns:xlink="http://www.w3.org/1999/xlink">
    <title>rock-hair-user</title>
    <path d="M21.592 8.678c0.331-0.302 0.476-0.757 0.377-1.187-0.306-1.321-1.174-2.721-2.54-3.523 0.045-6e-3 0.357-0.044 0.404-0.05 1.065-0.105 1.565-1.528 0.775-2.261C19.786 0.843 17.797 0 15.893 0c-2.142 0-3.323 0.828-3.894 1.42C11.429 0.828 10.247 0 8.105 0 6.201 0 4.212 0.843 3.389 1.658 2.6 2.39 3.101 3.813 4.164 3.918c0.05 6e-3 0.358 0.044 0.405 0.05-1.366 0.803-2.234 2.202-2.54 3.523-0.233 0.885 0.715 1.771 1.579 1.447 0.204-0.068 0.4-0.131 0.609-0.182-0.457 0.64-0.951 1.593-1.2 2.919-0.194 0.878 0.817 1.622 1.607 1.213 0.124-0.06 0.25-0.112 0.368-0.159-0.03 2.286-0.232 4.26-0.971 6.613-0.66 1.263-1.025 2.681-1.025 4.157 0 0.276 0.224 0.5 0.5 0.5s0.5-0.224 0.5-0.5c0-2.709 1.358-5.213 3.633-6.697 0.304-0.207 0.755-0.068 0.933 0.246 0.719 1.204 2.034 1.951 3.435 1.951s2.716-0.747 3.435-1.951c0.179-0.314 0.626-0.453 0.933-0.246 2.274 1.484 3.633 3.988 3.633 6.697 0 0.276 0.224 0.5 0.5 0.5s0.5-0.224 0.5-0.5c0-1.476-0.365-2.894-1.025-4.157-0.738-2.354-0.94-4.327-0.971-6.613 0.118 0.047 0.244 0.1 0.368 0.159 0.789 0.408 1.803-0.335 1.607-1.213-0.249-1.326-0.743-2.279-1.2-2.919 0.21 0.051 0.405 0.113 0.61 0.182 0.419 0.14 0.867 0.043 1.205-0.26zM10 17.217l5e-3-4.312c0-0.167-0.083-0.323-0.222-0.416-0.985-0.66-1.624-1.709-1.751-2.839C8.016 9.093 8.269 9.015 8.66 8.894c1.657-0.543 2.712-1.598 3.332-2.453 0.616 0.878 1.688 1.96 3.438 2.501 0.306 0.091 0.548 0.162 0.548 0.722 0 1.034-0.654 2.09-1.751 2.825-0.139 0.093-0.222 0.248-0.222 0.414L14 17.217c-0.544 0.489-1.253 0.784-2 0.784s-1.455-0.294-2-0.784zM18.213 8.524c0.055 0.039 1.341 0.978 1.785 3.338 0.022 0.105-0.077 0.183-0.195 0.123-0.571-0.271-1.148-0.428-1.173-0.434-0.148-0.04-0.31-0.01-0.434 0.086C18.072 11.731 18 11.878 18 12.033c0 1.797 0.088 3.445 0.415 5.177-0.452-0.46-0.947-0.884-1.501-1.245-0.37-0.242-0.815-0.319-1.256-0.218-0.241 0.055-0.463 0.166-0.657 0.316l3e-3-2.9c1.24-0.915 1.973-2.207 1.973-3.5 0-1.308-0.92-1.579-1.324-1.698-1.853-0.574-2.808-1.938-3.212-2.699C12.355 5.104 12.188 5.002 12.004 5c-0.198 3e-3-0.353 0.097-0.442 0.257-0.414 0.746-1.383 2.087-3.27 2.704C7.938 8.07 6.995 8.362 7.034 9.718c0.152 1.375 0.865 2.615 1.97 3.443l-3e-3 2.904c-0.194-0.151-0.417-0.263-0.66-0.318-0.44-0.102-0.885-0.024-1.256 0.218-0.554 0.362-1.049 0.786-1.501 1.245 0.327-1.732 0.415-3.38 0.415-5.177 0-0.155-0.072-0.303-0.196-0.396-0.124-0.096-0.283-0.126-0.434-0.086-0.024 6e-3-0.602 0.163-1.173 0.434-0.119 0.061-0.216-6e-3-0.195-0.123 0.444-2.36 1.73-3.299 1.782-3.336 0.181-0.124 0.258-0.352 0.193-0.561-0.065-0.208-0.259-0.351-0.478-0.351-0.999 0-1.614 0.178-2.205 0.375C3.086 8.052 2.951 7.96 3.004 7.716 3.264 6.59 4.306 4.61 6.561 4.327 6.779 4.3 6.955 4.133 6.992 3.915 7.029 3.698 6.92 3.482 6.722 3.384 6.286 3.152 5.14 3.028 4.3 2.928c-0.333-0.026-0.431-0.33-0.207-0.56C4.76 1.707 6.531 1 8.105 1c2.618 0 3.42 1.406 3.45 1.462 0.085 0.163 0.255 0.264 0.439 0.266h5e-3c0.183 0 0.353-0.103 0.44-0.263 0.032-0.06 0.834-1.466 3.452-1.466 1.573 0 3.345 0.707 4.011 1.367 0.21 0.226 0.143 0.522-0.207 0.561-0.841 0.1-1.984 0.224-2.421 0.456-0.197 0.099-0.307 0.314-0.27 0.531 0.037 0.218 0.213 0.385 0.431 0.412 2.255 0.282 3.297 2.263 3.557 3.389 0.039 0.235-0.091 0.344-0.288 0.273-0.592-0.197-1.207-0.375-2.206-0.375-0.218 0-0.409 0.142-0.475 0.349s0.01 0.435 0.19 0.562z" />
</svg>