<svg id="rocket_holding_hand_Layer_1" viewBox="0 0 24 24" fill="currentColor" width="32" height="32" data-name="Layer 1" xmlns="http://www.w3.org/2000/svg" xmlns:xlink="http://www.w3.org/1999/xlink">
    <title>rocket-holding-hand</title>
    <path d="M10 6c0-0.552 0.448-1 1-1s1 0.448 1 1-0.448 1-1 1-1-0.448-1-1zM4 6.813C4 6.54 4.097 6.271 4.271 6.056 5.304 4.798 6.77 4.057 8.317 4.003c1.67-1.351 3.799-2.605 6.503-3.831 1.213-0.606 2.613 0.792 2.006 2.006-1.203 2.658-2.457 4.787-3.829 6.502-0.054 1.549-0.795 3.015-2.052 4.046-0.216 0.176-0.485 0.273-0.759 0.273-0.654 0-1.187-0.532-1.187-1.187v-1.521L8.206 9.498 6.852 10.852c-0.195 0.195-0.512 0.195-0.707 0s-0.195-0.512 0-0.707l1.354-1.354-0.793-0.793H5.185C4.531 7.998 3.998 7.466 4 6.813zM5 6.813C5 6.916 5.084 7 5.187 7h1.728c0.133 0 0.26 0.053 0.354 0.146l2.586 2.586c0.094 0.094 0.146 0.221 0.146 0.354v1.728c0 0.148 0.189 0.242 0.312 0.14 1.073-0.88 1.688-2.139 1.688-3.453 0-0.115 0.04-0.227 0.112-0.316 1.359-1.669 2.604-3.769 3.804-6.418v0c0.169-0.549-0.237-0.83-0.684-0.683-2.696 1.223-4.794 2.466-6.414 3.802C8.729 4.96 8.617 5 8.501 5 7.188 5 5.928 5.616 5.047 6.689 5.018 6.725 5.001 6.769 5 6.813zM23.181 12.654c-0.982-0.926-2.66-0.853-3.548 0.166l-3.742 4.112C15.578 15.821 14.567 15 13.358 15H3.5C1.57 15 0 16.57 0 18.5v5C0 23.776 0.224 24 0.5 24S1 23.776 1 23.5v-5C1 17.121 2.121 16 3.5 16h9.857C14.262 16 15 16.737 15 17.643c0 0.812-0.605 1.511-1.398 1.624l-6.161 0.737c-0.274 0.032-0.47 0.281-0.437 0.556 0.032 0.274 0.282 0.474 0.556 0.437l6.172-0.738c1.016-0.145 1.828-0.873 2.133-1.811 2e-3-2e-3 4e-3-3e-3 6e-3-5e-3l4.503-4.949c0.536-0.608 1.543-0.669 2.134-0.1 0.609 0.556 0.658 1.507 0.11 2.121l-6.806 7.64c-0.184 0.207-0.166 0.522 0.04 0.706 0.206 0.183 0.522 0.166 0.706-0.04l6.806-7.64c0.911-1.021 0.829-2.604-0.183-3.527z" />
</svg>