<svg id="rock_hammer_Layer_1" viewBox="0 0 24 24" fill="currentColor" width="32" height="32" data-name="Layer 1" xmlns="http://www.w3.org/2000/svg" xmlns:xlink="http://www.w3.org/1999/xlink">
    <title>rock-hammer</title>
    <path d="M14.904 9.772c1.195 0.617 2.72 0.15 3.354-1.074l0.454-0.874c0.651-1.179 0.125-2.806-1.081-3.379l-6.149-3.409C7.765-0.897 4.989 0.318 3.667 1.215c-0.94 0.59-0.86 2.106 0.146 2.583L8.271 6.2 0.262 20.388c-0.603 1.212-0.116 2.706 1.085 3.33 1.18 0.653 2.811 0.122 3.378-1.082l7.942-14.068zM4.273 2.91C3.901 2.626 3.888 2.372 4.228 2.043 5.04 1.493 6.164 0.997 7.572 0.997c1.005 0 2.154 0.253 3.438 0.92l6.155 3.413c0.736 0.349 1.052 1.318 0.66 2.033l-0.454 0.874c-0.378 0.728-1.281 1.018-2.001 0.649L4.283 2.915c0 0-7e-3-3e-3-0.01-5e-3zM3.842 22.167c-0.347 0.74-1.318 1.053-2.034 0.664-0.72-0.375-1.012-1.271-0.663-1.975L9.153 6.674l2.634 1.419zM18.5 20.5c0 0.276-0.224 0.5-0.5 0.5h-1.804c-0.41 0-0.807-0.171-1.089-0.469l-1.081-1.141c-0.19-0.2-0.182-0.517 0.019-0.707 0.201-0.188 0.518-0.181 0.707 0.02l1.081 1.141C15.927 19.944 16.06 20 16.196 20H18c0.276 0 0.5 0.224 0.5 0.5zM23.793 18.076l-1.116-2.975c-0.472-1.256-1.689-2.1-3.03-2.1l-3.322-3e-3c-0.866 0-1.71 0.354-2.316 0.973L11.924 16.1c-0.596 0.608-0.925 1.413-0.925 2.266v0.89c0 0.854 0.329 1.658 0.925 2.267l1.473 1.504C14.002 23.645 14.845 24 15.711 24h4.206c1.186 0 2.275-0.646 2.843-1.688l0.843-1.545c0.452-0.826 0.521-1.807 0.19-2.691zM22.726 20.287l-0.844 1.546c-0.393 0.719-1.146 1.166-1.965 1.166h-4.206c-0.598 0-1.181-0.245-1.599-0.672l-1.474-1.504c-0.412-0.421-0.639-0.978-0.639-1.567v-0.89c0-0.589 0.227-1.146 0.639-1.566v0l2.084-2.129c0.418-0.427 1.002-0.672 1.601-0.672l3.322 3e-3c0.926 0 1.768 0.583 2.094 1.451l1.116 2.975c0.229 0.61 0.182 1.288-0.129 1.859z" />
</svg>