<svg id="roller_skate_Layer_1" viewBox="0 0 24 24" fill="currentColor" width="32" height="32" data-name="Layer 1" xmlns="http://www.w3.org/2000/svg" xmlns:xlink="http://www.w3.org/1999/xlink">
    <title>roller-skate</title>
    <path d="M21.247 18.571C22.286 17.998 23 16.905 23 15.637c0-2.637-1.88-4.91-4.471-5.403L14.27 9.423c-1.085-0.207-1.896-1.083-2.016-2.17L11.8 2.147c-0.099-0.688-0.482-1.308-1.054-1.703-0.571-0.396-1.289-0.535-1.983-0.379L3.606 1.427C2.072 1.832 1 3.223 1 4.811V14.5c0 1.624 0.872 3.036 2.165 3.828C2.183 18.821 1.5 19.828 1.5 21c0 1.654 1.346 3 3 3 1.044 0 1.962-0.537 2.5-1.348C7.538 23.463 8.456 24 9.5 24s1.962-0.537 2.5-1.348C12.538 23.463 13.456 24 14.5 24s1.962-0.537 2.5-1.348C17.538 23.463 18.456 24 19.5 24c1.654 0 3-1.346 3-3 0-1.001-0.497-1.883-1.253-2.429zM2 14.5V4.811c0-1.134 0.766-2.127 1.862-2.417L9 1.037c0.805-0.209 1.71 0.411 1.808 1.226l0.332 3.738H8c-0.276 0-0.5 0.224-0.5 0.5s0.224 0.5 0.5 0.5h3.229l0.031 0.352c0.049 0.447 0.188 0.862 0.386 1.241l-2.752 1.672c-0.236 0.144-0.311 0.451-0.168 0.687 0.146 0.238 0.455 0.309 0.688 0.167l2.817-1.712c0.409 0.42 0.925 0.731 1.51 0.904l-1.676 2.941c-0.137 0.24-0.053 0.545 0.188 0.682 0.236 0.135 0.543 0.055 0.682-0.187l1.83-3.212 3.577 0.681C20.462 11.621 22 13.48 22 15.638 22 16.941 20.94 18 19.638 18H5.5C3.57 18 2 16.43 2 14.5zM4.5 23c-1.103 0-2-0.897-2-2s0.897-2 2-2 2 0.897 2 2-0.897 2-2 2zM9.5 23c-1.103 0-2-0.897-2-2s0.897-2 2-2 2 0.897 2 2-0.897 2-2 2zM14.5 23c-1.103 0-2-0.897-2-2s0.897-2 2-2 2 0.897 2 2-0.897 2-2 2zM19.5 23c-1.103 0-2-0.897-2-2s0.897-2 2-2 2 0.897 2 2-0.897 2-2 2z" />
</svg>