<svg id="roller_skater_Layer_1" viewBox="0 0 24 24" fill="currentColor" width="32" height="32" data-name="Layer 1" xmlns="http://www.w3.org/2000/svg" xmlns:xlink="http://www.w3.org/1999/xlink">
    <title>roller-skater</title>
    <path d="M23.5 10h-2.616c-0.421 0-0.825-0.179-1.108-0.49l-2.415-2.652C16.887 6.313 16.201 6 15.476 6H9.08C8.159 6 7.315 6.503 6.879 7.314L5.56 9.763c-0.131 0.243-0.04 0.546 0.203 0.677 0.241 0.131 0.547 0.041 0.678-0.203L7.76 7.788C8.022 7.302 8.528 7 9.08 7h3.043l-2.964 6.48c-0.25 0.555-0.202 1.192 0.128 1.703s0.891 0.816 1.5 0.816H17.5c0.275 0 0.5 0.224 0.5 0.5v4c0 0.276 0.224 0.5 0.5 0.5s0.5-0.224 0.5-0.5v-4c0-0.827-0.673-1.5-1.5-1.5h-3.71l3.189-7.076 2.056 2.259c0.473 0.52 1.146 0.817 1.849 0.817H23.5c0.276 0 0.5-0.224 0.5-0.5s-0.224-0.5-0.5-0.499zM12.692 15h-1.905c-0.271 0-0.513-0.131-0.66-0.359s-0.168-0.501-0.057-0.747L13.224 7h2.252c0.262 0 0.512 0.076 0.736 0.203C16.208 7.21 12.693 15 12.692 15zM16.385 5c1.379 0 2.5-1.122 2.5-2.5S17.764 0 16.385 0s-2.5 1.122-2.5 2.5 1.121 2.5 2.5 2.5zM16.385 1c0.827 0 1.5 0.673 1.5 1.5S17.212 4 16.385 4s-1.5-0.673-1.5-1.5 0.673-1.5 1.5-1.5zM10.947 18.724l-0.585 1.171C10.02 20.577 9.335 21 8.573 21H3.5C3.224 21 3 20.776 3 20.5S3.224 20 3.5 20h5.073c0.381 0 0.724-0.212 0.895-0.553l0.585-1.17c0.125-0.247 0.424-0.346 0.671-0.224 0.247 0.124 0.347 0.424 0.223 0.671zM1 20c-0.552 0-1-0.448-1-1s0.448-1 1-1 1 0.448 1 1-0.448 1-1 1zM1 22c-0.552 0-1-0.448-1-1s0.448-1 1-1 1 0.448 1 1-0.448 1-1 1zM1 24c-0.552 0-1-0.448-1-1s0.448-1 1-1 1 0.448 1 1-0.448 1-1 1zM18 23c0 0.552-0.448 1-1 1s-1-0.448-1-1 0.448-1 1-1 1 0.448 1 1zM20 23c0 0.552-0.448 1-1 1s-1-0.448-1-1 0.448-1 1-1 1 0.448 1 1zM22 23c0 0.552-0.448 1-1 1s-1-0.448-1-1 0.448-1 1-1 1 0.448 1 1z" />
</svg>