<svg id="roof_Layer_1" viewBox="0 0 24 24" fill="currentColor" width="32" height="32" data-name="Layer 1" xmlns="http://www.w3.org/2000/svg" xmlns:xlink="http://www.w3.org/1999/xlink">
    <title>roof</title>
    <path d="M19.75 0c-1.673 0-3.108 0.98-3.801 2.387C15.189 0.974 13.714 0 12 0S8.811 0.974 8.051 2.387C7.358 0.98 5.923 0 4.25 0 1.906 0 0 1.907 0 4.251l0.038 19.25c0 0.261 0.202 0.478 0.463 0.498 0.272 0.017 0.492-0.166 0.531-0.423C1.257 22.108 2.64 21 4.25 21c1.631 0 3.031 1.107 3.256 2.576 0.05 0.264 0.305 0.459 0.57 0.418 0.208-0.045 0.37-0.201 0.417-0.41C8.737 22.159 10.31 21 12 21s3.263 1.159 3.507 2.584c0.05 0.232 0.257 0.416 0.496 0.415 0.24-3e-3 0.446-0.19 0.491-0.424 0.225-1.468 1.625-2.576 3.256-2.576s3.031 1.107 3.256 2.576c0.039 0.258 0.28 0.445 0.532 0.423 0.261-0.02 0.462-0.237 0.462-0.499V4.25C24 1.907 22.094 0 19.75 0zM8.5 10.5C8.5 8.57 10.07 7 12 7s3.5 1.57 3.5 3.5v4.206C14.675 13.674 13.421 13 12 13s-2.675 0.675-3.5 1.706zM12 1c1.93 0 3.5 1.57 3.5 3.5v3.206C14.675 6.674 13.421 6 12 6S9.325 6.675 8.5 7.706V4.5C8.5 2.57 10.07 1 12 1zM1 4.25C1 2.458 2.458 1 4.25 1S7.5 2.458 7.5 4.25v3.294C6.72 6.609 5.561 6 4.25 6S1.787 6.606 1.007 7.536zM1.012 10.134C1.075 8.397 2.498 7 4.25 7 6.042 7 7.5 8.458 7.5 10.25v4.294C6.72 13.609 5.561 13 4.25 13c-1.299 0-2.449 0.598-3.23 1.52zM4.25 20c-1.268 0-2.429 0.537-3.216 1.392l-9e-3-4.393C1.156 15.326 2.544 14 4.25 14c1.792 0 3.25 1.458 3.25 3.25v4.157C6.706 20.546 5.536 20 4.25 20zM12 20c-1.367 0-2.649 0.584-3.5 1.489V17.5c0-1.93 1.57-3.5 3.5-3.5s3.5 1.57 3.5 3.5v3.989C14.649 20.585 13.367 20 12 20zM23 21.395C22.206 20.538 21.032 20 19.75 20s-2.456 0.546-3.25 1.407V17.25c0-1.792 1.458-3.25 3.25-3.25S23 15.458 23 17.25zM19.75 13c-1.311 0-2.47 0.609-3.25 1.544V10.25C16.5 8.458 17.958 7 19.75 7S23 8.458 23 10.25v4.294C22.22 13.609 21.061 13 19.75 13zM19.75 6c-1.311 0-2.47 0.609-3.25 1.544V4.25C16.5 2.458 17.958 1 19.75 1S23 2.458 23 4.25v3.294C22.22 6.609 21.061 6 19.75 6z" />
</svg>