<svg id="room_service_Layer_1" viewBox="0 0 24 24" fill="currentColor" width="32" height="32" data-name="Layer 1" xmlns="http://www.w3.org/2000/svg" xmlns:xlink="http://www.w3.org/1999/xlink">
    <title>room-service</title>
    <path d="M23.5 20H23v-3c0-5.898-4.666-10.726-10.5-10.988V4.937C13.362 4.714 14 3.93 14 3c0-1.103-0.897-2-2-2s-2 0.897-2 2c0 0.93 0.638 1.714 1.5 1.937v1.075C5.666 6.274 1 11.102 1 17v3H0.5C0.224 20 0 20.224 0 20.5S0.224 21 0.5 21h23c0.276 0 0.5-0.224 0.5-0.5S23.776 20 23.5 20zM11 3c0-0.552 0.448-1 1-1s1 0.448 1 1-0.448 1-1 1-1-0.448-1-1zM2 17C2 11.486 6.486 7 12 7s10 4.486 10 10v3H2z" />
</svg>