<svg id="rose_Layer_1" viewBox="0 0 24 24" fill="currentColor" width="32" height="32" data-name="Layer 1" xmlns="http://www.w3.org/2000/svg" xmlns:xlink="http://www.w3.org/1999/xlink">
    <title>rose</title>
    <path d="M23.639 14.557c-0.329-0.394-0.818-0.601-1.334-0.555-5.583 0.521-8.47 4.368-9.805 6.969v-6.018c1.118-0.073 2.283-0.473 3.168-1.185C15.869 13.741 18 11.999 18 8.896c0-1.935 0.564-3.575 0.958-5.137 0.285-1.011-0.746-2.016-1.75-1.708-0.11 0.03-0.233 0.07-0.366 0.117 0.059-0.232 0.111-0.452 0.133-0.585 0.174-0.89-0.673-1.754-1.566-1.559-0.884 0.164-2.246 0.612-3.409 1.26-1.164-0.649-2.528-1.096-3.414-1.261C7.687-0.172 6.848 0.691 7.02 1.581 7.042 1.715 7.095 1.935 7.154 2.168 7.022 2.121 6.9 2.081 6.79 2.051 5.785 1.741 4.754 2.757 5.043 3.77 5.442 5.357 5.986 7.029 6 9c0 1.958 0.974 3.803 2.605 4.934 0.876 0.607 1.869 0.943 2.895 1.029v6.009c-1.335-2.601-4.222-6.448-9.806-6.97-1.013-0.124-1.948 0.94-1.64 1.933C2.223 23.774 11.005 24 11.999 24s9.776-0.227 11.946-8.066c0.131-0.476 0.017-0.991-0.306-1.377zM17.47 3.016c0.391-0.03 0.541 0.116 0.518 0.504-0.412 1.623-0.961 3.305-0.987 5.371-7e-3 1.203-0.406 2.333-1.084 3.217-0.542-2.666-1.772-4.928-3.225-6.558 1.338-1.32 3.221-1.943 4.778-2.534zM15.592 1.008c0.29-0.034 0.422 0.175 0.397 0.41-0.038 0.226-0.201 0.836-0.307 1.222-1.364 0.557-2.525 1.055-3.687 2.192-0.485-0.458-0.984-0.837-1.483-1.15 1.885-1.84 3.21-2.185 5.08-2.674zM8.006 1.417c-0.025-0.235 0.108-0.444 0.397-0.41 0.682 0.126 1.675 0.445 2.61 0.898-0.411 0.298-0.93 0.727-1.394 1.271-6e-3 7e-3-7e-3 0.015-0.012 0.022-0.414-0.19-0.861-0.367-1.29-0.557-0.108-0.386-0.274-0.998-0.311-1.224zM7 9c0-1.758-0.464-3.496-0.803-4.764C6.128 3.977 6.065 3.74 6.013 3.531 5.965 3.137 6.188 2.967 6.528 3.015c1.749 0.655 3.727 1.326 5.159 2.904 1.571 1.638 2.92 4.101 3.368 7.059-0.362 0.283-0.767 0.513-1.203 0.677-1.604 0.602-3.31 0.404-4.678-0.544C7.812 12.167 6.999 10.63 7 9zM1.019 15.668c-0.106-0.342 0.234-0.716 0.583-0.67 6.538 0.609 9.031 6.063 9.709 7.977-2.223-0.145-8.576-1.104-10.292-7.307zM22.983 15.668c-1.715 6.195-8.056 7.16-10.285 7.307 0.696-1.905 3.245-7.375 9.7-7.977 0.349-0.045 0.689 0.329 0.585 0.67z" />
</svg>