<svg id="rose_alt_Layer_1" viewBox="0 0 24 24" fill="currentColor" width="32" height="32" data-name="Layer 1" xmlns="http://www.w3.org/2000/svg" xmlns:xlink="http://www.w3.org/1999/xlink">
    <title>rose-alt</title>
    <path d="M23.251 7.908c-0.847-1.262-2.135-2.118-3.626-2.41-0.151-0.03-0.917-0.16-1.169-0.185-0.19-0.148-0.408-0.25-0.619-0.357-0.614-1.695-1.512-3.1-2.451-3.798-1.204-0.895-2.595-1.301-3.827-1.113-1.502 0.229-2.825 1.03-3.725 2.255-0.411 0.559-0.94 1.498-1.204 2.413C4.968 4.775 3.347 5.42 2.37 6.018 1.164 6.756 0.308 7.989 0.082 9.315c-0.255 1.498 0.087 3.006 0.966 4.245 0.291 0.411 1.064 1.141 1.902 1.648-0.436 1.974-0.475 3.833-0.082 5.113 0.424 1.383 1.367 2.543 2.521 3.104 0.786 0.383 1.632 0.576 2.482 0.576 0.626 0 1.254-0.104 1.864-0.315 0.72-0.249 1.571-0.888 2.178-1.586 1.494 1.149 3.2 1.862 4.491 1.862 1.507 0 2.87-0.499 3.74-1.368 1.074-1.075 1.666-2.503 1.666-4.022 0-1.303-0.487-2.236-0.755-2.651 1.744-1.427 2.612-3.064 2.817-4.077 0.297-1.47 0.071-2.905-0.621-3.936zM19.612 13.195c0.413 0.793 0.5 1.705 0.247 2.568-0.195 0.663-0.742 1.28-1.5 1.692-0.799 0.435-2.651 0.612-5.117-0.131 1.107-0.286 3.22-1.287 5.676-5.015 0.282 0.276 0.533 0.573 0.694 0.886zM11.667 21.025c-0.912 0-1.694-0.372-2.325-1.105-0.893-1.039-1.397-2.695-1.44-4.57 1.291 1.997 5.458 3.125 6.834 3.343-0.391 1.038-1.241 2.333-3.069 2.332zM7.044 13.118c-0.175 1.159-0.187 2.298-0.06 3.356-1.771-0.388-2.646-1.583-2.863-2.215-0.223-0.65-0.136-1.485 0.238-2.294 0.441-0.95 1.955-2.35 4.17-3.052C7.589 9.823 7 11.091 7 12.499c0 0.213 0.044 0.618 0.044 0.619zM6.692 7.303C6.79 6.408 7.22 5.609 7.901 5.05 8.443 4.606 9.24 4.413 10.039 4.537c0.821 0.126 2.597 0.744 4.274 3.556-0.379-0.2-0.779-0.364-1.207-0.461l2e-3-0.01C10.926 7.237 8.414 7.675 6.8 8.533 6.705 8.109 6.651 7.682 6.692 7.303zM12 16.5c-0.605-4e-3-1.17-0.131-1.689-0.39v2e-3c-0.105-0.049-0.203-0.106-0.302-0.163 2.065 0.37 3.965-1.42 3.991-3.449 0-1.092-0.881-1.981-1.97-1.997C12.447 10.192 12.954 10 13.5 10c1.355 0 2.5 1.145 2.5 2.5 0 2.206-1.794 4-4 4zM11.978 8.502c0.699 0.026 1.416 0.176 2.013 0.549-2.065-0.37-3.965 1.42-3.991 3.449 0 1.092 0.881 1.981 1.97 1.997C11.553 14.808 11.046 15 10.5 15 9.145 15 8 13.855 8 12.5c0-2.198 1.783-3.985 3.978-3.998zM12 13.5c-0.551 0-1-0.448-1-1s0.449-1 1-1 1 0.448 1 1-0.449 1-1 1zM18.973 8.066c0.079 0.751 1e-3 1.906-0.453 2.896-0.357 0.777-0.911 1.557-1.599 2.314 0.04-0.255 0.079-0.511 0.079-0.777 0-0.786-0.198-1.52-0.523-2.182-0.731-1.889-1.553-3.263-2.369-4.248 0.456-0.27 0.982-0.477 1.236-0.52 1.649-0.31 3.475 0.74 3.629 2.517zM8.64 2.892c0.742-1.009 1.832-1.669 3.07-1.858 0.965-0.145 2.087 0.191 3.078 0.928 0.526 0.391 1.226 1.264 1.818 2.61-0.469-0.074-0.949-0.09-1.431-8e-3-0.433 0.075-1.167 0.384-1.753 0.764-1.327-1.294-2.556-1.675-3.233-1.779-0.736-0.114-1.477-7e-3-2.119 0.264 0.189-0.355 0.392-0.681 0.57-0.921zM1.864 12.982c-0.724-1.021-1.007-2.265-0.796-3.499 0.179-1.046 0.861-2.022 1.825-2.612 0.759-0.464 1.954-0.942 3.222-1.097-0.21 0.442-0.361 0.916-0.417 1.419-0.064 0.586 6e-3 1.234 0.185 1.861-1.238 0.797-2.086 1.748-2.431 2.492-0.397 0.855-0.52 1.75-0.386 2.539-0.537-0.386-1.017-0.84-1.202-1.103zM9.409 22.741c-1.183 0.41-2.456 0.333-3.582-0.214-0.909-0.442-1.658-1.376-2.002-2.498-0.32-1.041-0.294-2.613 0.038-4.29 0.698 0.832 1.825 1.563 3.304 1.787 0.274 1.213 0.751 2.272 1.417 3.047 0.591 0.687 1.315 1.132 2.123 1.33-0.423 0.377-0.899 0.701-1.298 0.838zM19.437 21.887c-0.684 0.684-1.789 1.075-3.033 1.075-0.702 0-1.912-0.332-3.245-1.203 1.195-0.45 2.094-1.472 2.586-2.948 0.215 0.014 0.424 0.023 0.625 0.023 1.044 0 1.891-0.187 2.467-0.499 0.684-0.372 1.227-0.891 1.594-1.474 0.184 0.391 0.379 0.974 0.379 1.711 0 1.252-0.488 2.43-1.373 3.315zM22.892 11.647c-0.159 0.788-0.807 1.942-1.911 3.007-0.019-0.663-0.169-1.318-0.482-1.919-0.249-0.48-0.629-0.943-1.078-1.339 2e-3-5e-3 6e-3-0.01 8e-3-0.015 0.678-1.478 0.583-2.99 0.538-3.418-0.054-0.519-0.221-1.017-0.468-1.463 1.199 0.254 2.236 0.947 2.921 1.966 0.544 0.812 0.716 1.971 0.472 3.181z" />
</svg>