<svg id="rotate_reverse_Layer_1" viewBox="0 0 24 24" fill="currentColor" width="32" height="32" data-name="Layer 1" xmlns="http://www.w3.org/2000/svg" xmlns:xlink="http://www.w3.org/1999/xlink">
    <title>rotate-reverse</title>
    <path d="M23.989 11.479c0.012 0.276-0.203 0.509-0.479 0.521-8e-3 0-0.015 0-0.021 0-0.267 0-0.488-0.21-0.5-0.479C22.737 5.621 17.91 1 12 1 8.288 1 4.831 2.91 2.807 6H6.5C6.776 6 7 6.224 7 6.5S6.776 7 6.5 7h-4C1.673 7 1 6.327 1 5.5v-4C1 1.224 1.224 1 1.5 1S2 1.224 2 1.5v3.912C4.211 2.067 7.967 0 12 0c6.447 0 11.714 5.042 11.989 11.479zM21.5 17h-4c-0.276 0-0.5 0.224-0.5 0.5s0.224 0.5 0.5 0.5h3.693c-2.024 3.09-5.481 5-9.193 5-5.91 0-10.737-4.622-10.989-10.521-0.012-0.276-0.222-0.506-0.521-0.478-0.275 0.012-0.49 0.245-0.479 0.521C0.286 18.959 5.553 24.001 12 24.001c4.033 0 7.789-2.067 10-5.412v3.912c0 0.276 0.224 0.5 0.5 0.5s0.5-0.224 0.5-0.5v-4c0-0.827-0.673-1.5-1.5-1.501z" />
</svg>