<svg id="rotate_square_Layer_1" viewBox="0 0 24 24" fill="currentColor" width="32" height="32" data-name="Layer 1" xmlns="http://www.w3.org/2000/svg" xmlns:xlink="http://www.w3.org/1999/xlink">
    <title>rotate-square</title>
    <path d="M19.5 0h-15C2.019 0 0 2.019 0 4.5v15C0 21.981 2.019 24 4.5 24h15c2.481 0 4.5-2.019 4.5-4.5v-15C24 2.019 21.981 0 19.5 0zM23 19.5c0 1.93-1.57 3.5-3.5 3.5h-15C2.57 23 1 21.43 1 19.5v-15C1 2.57 2.57 1 4.5 1h15C21.43 1 23 2.57 23 4.5zM19 5.5v3c0 0.827-0.673 1.5-1.5 1.5h-3C14.224 10 14 9.776 14 9.5S14.224 9 14.5 9h2.683C16.109 7.148 14.154 6 12 6 8.882 6 6.254 8.433 6.018 11.538 5.997 11.8 5.779 12 5.52 12c-0.014 0-0.026 0-0.039-1e-3C5.206 11.978 5 11.738 5.02 11.462 5.296 7.838 8.363 5 12 5c2.483 0 4.738 1.308 6 3.424V5.5C18 5.224 18.224 5 18.5 5S19 5.224 19 5.5zM18.98 12.538C18.704 16.162 15.637 19 12 19c-2.483 0-4.738-1.308-6-3.424V18.5C6 18.776 5.776 19 5.5 19S5 18.776 5 18.5v-3C5 14.673 5.673 14 6.5 14h3c0.276 0 0.5 0.224 0.5 0.5S9.776 15 9.5 15H6.817c1.074 1.852 3.029 3 5.183 3 3.118 0 5.746-2.433 5.982-5.538 0.021-0.276 0.284-0.479 0.537-0.46 0.275 0.021 0.481 0.261 0.461 0.536z" />
</svg>