<svg id="rotate_exclamation_Layer_1" viewBox="0 0 24 24" fill="currentColor" width="32" height="32" data-name="Layer 1" xmlns="http://www.w3.org/2000/svg" xmlns:xlink="http://www.w3.org/1999/xlink">
    <title>rotate-exclamation</title>
    <path d="M12 15c-0.276 0-0.5-0.224-0.5-0.5v-9C11.5 5.224 11.724 5 12 5s0.5 0.224 0.5 0.5v9c0 0.276-0.224 0.5-0.5 0.5zM11 18c0 0.552 0.448 1 1 1s1-0.448 1-1-0.448-1-1-1-1 0.448-1 1zM23.511 12c-0.264 0.015-0.509 0.203-0.521 0.479C22.738 18.379 17.91 23 12 23c-3.746 0-7.163-1.854-9.207-4.978C2.86 18.008 2.929 18 3 18h4.5C7.776 18 8 17.776 8 17.5S7.776 17 7.5 17H3c-1.103 0-2 0.897-2 2v4.5C1 23.776 1.224 24 1.5 24S2 23.776 2 23.5V19c0-0.103 0.016-0.203 0.045-0.297C4.283 22.029 7.966 24 12 24c6.447 0 11.713-5.042 11.989-11.479 0.012-0.276-0.202-0.509-0.478-0.521zM12 1c3.746 0 7.163 1.854 9.207 4.978C21.14 5.992 21.071 6 21 6h-4.5C16.224 6 16 6.224 16 6.5S16.224 7 16.5 7H21c1.103 0 2-0.897 2-2V0.5C23 0.224 22.776 0 22.5 0S22 0.224 22 0.5V5c0 0.103-0.016 0.203-0.045 0.297C19.717 1.971 16.034 0 12 0 5.553 0 0.287 5.042 0.011 11.479-1e-3 11.755 0.213 11.988 0.489 12h0.022c0.266 0 0.488-0.21 0.499-0.479C1.263 5.621 6.09 1 12 1z" />
</svg>