<svg id="roulette_Layer_1" viewBox="0 0 24 24" fill="currentColor" width="32" height="32" data-name="Layer 1" xmlns="http://www.w3.org/2000/svg" xmlns:xlink="http://www.w3.org/1999/xlink">
    <title>roulette</title>
    <path d="M12 0C5.383 0 0 5.383 0 12s5.383 12 12 12 12-5.383 12-12S18.617 0 12 0zM21.804 16.962l-2.615-1.476c0.444-0.913 0.719-1.92 0.785-2.986h3c-0.072 1.6-0.484 3.11-1.17 4.462zM11.5 19.975v3c-1.733-0.078-3.364-0.548-4.799-1.341l1.566-2.564c0.976 0.517 2.071 0.832 3.233 0.905zM12.5 19.975c1.161-0.072 2.257-0.387 3.233-0.904l1.566 2.564c-1.435 0.792-3.066 1.262-4.799 1.341zM12 19c-3.86 0-7-3.141-7-7s3.14-7 7-7 7 3.14 7 7-3.14 7-7 7zM1.025 12.5h3c0.066 1.065 0.341 2.073 0.785 2.986l-2.615 1.476C1.508 15.61 1.097 14.1 1.025 12.5zM2.195 7.039 4.809 8.515C4.365 9.428 4.09 10.435 4.024 11.5H1.025c0.072-1.6 0.483-3.11 1.17-4.461zM12.499 4.026V1.025c1.733 0.078 3.364 0.548 4.799 1.341L15.732 4.93c-0.976-0.517-2.072-0.832-3.233-0.904zM11.499 4.026C10.338 4.098 9.242 4.413 8.266 4.93L6.7 2.366c1.435-0.792 3.066-1.262 4.799-1.341zM19.974 11.501c-0.066-1.065-0.341-2.072-0.785-2.985l2.614-1.476c0.687 1.352 1.098 2.862 1.17 4.461zM21.309 6.17l-2.61 1.474c-0.56-0.858-1.279-1.6-2.115-2.188l1.568-2.568c1.269 0.859 2.34 1.983 3.157 3.282zM5.847 2.886 7.415 5.454C6.578 6.042 5.859 6.785 5.3 7.642L2.69 6.168c0.817-1.299 1.888-2.423 3.157-3.282zM2.69 17.831 5.3 16.357c0.56 0.858 1.279 1.6 2.115 2.188l-1.569 2.568c-1.269-0.859-2.34-1.983-3.156-3.282zM18.153 21.113l-1.569-2.568c0.837-0.588 1.556-1.331 2.115-2.188l2.61 1.474c-0.817 1.299-1.888 2.423-3.156 3.282zM12.707 12l2.049 2.049C14.836 14.028 14.914 14 15 14c0.552 0 1 0.448 1 1s-0.448 1-1 1-1-0.448-1-1c0-0.086 0.029-0.164 0.049-0.243L12 12.708 9.951 14.757C9.972 14.837 10 14.914 10 15c0 0.552-0.448 1-1 1s-1-0.448-1-1 0.448-1 1-1c0.087 0 0.164 0.029 0.244 0.049L11.293 12 9.244 9.951C9.164 9.972 9.087 10 9 10 8.448 10 8 9.552 8 9s0.448-1 1-1 1 0.448 1 1c0 0.086-0.029 0.164-0.049 0.244L12 11.293l2.049-2.049C14.028 9.164 14 9.087 14 9c0-0.552 0.448-1 1-1s1 0.448 1 1-0.448 1-1 1c-0.086 0-0.164-0.029-0.244-0.049z" />
</svg>