<svg id="round_cctv_Layer_1" viewBox="0 0 24 24" fill="currentColor" width="32" height="32" data-name="Layer 1" xmlns="http://www.w3.org/2000/svg" xmlns:xlink="http://www.w3.org/1999/xlink">
    <title>round-cctv</title>
    <path d="M24 3c0-1.654-1.346-3-3-3H3C1.346 0 0 1.346 0 3 0 3.883 0.391 4.67 1 5.22V13c0 6.065 4.935 11 11 11s11-4.935 11-11V5.22c0.609-0.549 1-1.337 1-2.22zM22 13c0 5.514-4.486 10-10 10S2 18.514 2 13V5.816C2.314 5.928 2.648 6 3 6h18c0.352 0 0.686-0.072 1-0.184zM21 5H3C1.897 5 1 4.103 1 3s0.897-2 2-2h18c1.103 0 2 0.897 2 2s-0.897 2-2 2zM12 7c-3.86 0-7 3.141-7 7s3.14 7 7 7 7-3.141 7-7-3.14-7-7-7zM12 20c-3.309 0-6-2.691-6-6s2.691-6 6-6 6 2.691 6 6-2.691 6-6 6zM12 11c-1.654 0-3 1.346-3 3s1.346 3 3 3 3-1.346 3-3-1.346-3-3-3zM12 16c-1.103 0-2-0.897-2-2s0.897-2 2-2 2 0.897 2 2-0.897 2-2 2z" />
</svg>