<svg id="router_wifi_Layer_1" viewBox="0 0 24 24" fill="currentColor" width="32" height="32" data-name="Layer 1" xmlns="http://www.w3.org/2000/svg" xmlns:xlink="http://www.w3.org/1999/xlink">
    <title>router-wifi</title>
    <path d="M17.032 7.084C15.688 5.74 13.901 5 12 5S8.312 5.74 6.968 7.084c-0.195 0.195-0.512 0.195-0.707 0s-0.195-0.512 0-0.707C7.794 4.844 9.832 4 12 4s4.206 0.844 5.739 2.377c0.195 0.195 0.195 0.512 0 0.707s-0.512 0.195-0.707 0zM9.232 9.146c-0.195 0.195-0.195 0.512 0 0.707s0.512 0.195 0.707 0c1.1-1.102 3.021-1.102 4.121 0 0.195 0.195 0.512 0.195 0.707 0s0.195-0.512 0-0.707c-1.477-1.479-4.059-1.479-5.535 0zM4.321 4.181C6.371 2.13 9.098 1 12 1s5.629 1.13 7.679 3.181c0.195 0.195 0.512 0.195 0.707 0s0.195-0.512 0-0.707C18.146 1.233 15.169 0 12 0S5.854 1.233 3.614 3.474c-0.195 0.195-0.195 0.512 0 0.707s0.512 0.195 0.707 0zM24 19v1c0 2.206-1.794 4-4 4H4c-2.206 0-4-1.794-4-4v-1c0-2.206 1.794-4 4-4h1.617L0.071 5.757C-0.072 5.521 6e-3 5.213 0.243 5.071 0.477 4.928 0.786 5.006 0.929 5.243L6.783 15h10.434l5.854-9.757c0.143-0.237 0.452-0.314 0.686-0.172 0.237 0.142 0.314 0.449 0.172 0.686L18.383 15H20c2.206 0 4 1.794 4 4zM23 19c0-1.654-1.346-3-3-3H4c-1.654 0-3 1.346-3 3v1c0 1.654 1.346 3 3 3h16c1.654 0 3-1.346 3-3zM4 18.5c-0.552 0-1 0.448-1 1s0.448 1 1 1 1-0.448 1-1-0.448-1-1-1zM7 18.5c-0.552 0-1 0.448-1 1s0.448 1 1 1 1-0.448 1-1-0.448-1-1-1zM21 19h-8c-0.276 0-0.5 0.224-0.5 0.5S12.724 20 13 20h8c0.276 0 0.5-0.224 0.5-0.5S21.276 19 21 19z" />
</svg>