<svg id="route_interstate_Layer_1" viewBox="0 0 24 24" fill="currentColor" width="32" height="32" data-name="Layer 1" xmlns="http://www.w3.org/2000/svg" xmlns:xlink="http://www.w3.org/1999/xlink">
    <title>route-interstate</title>
    <path d="M18.914 2 17.489 2.011c-1.601 0-2.354-0.505-3.227-1.09-0.299-0.2-0.6-0.401-0.934-0.583-0.411-0.224-0.838-0.327-1.325-0.337-0.438 0-0.921 0.114-1.333 0.337-0.334 0.182-0.635 0.383-0.934 0.583-0.872 0.585-1.626 1.09-3.227 1.09L5.084 2C3.296 2 1.998 3.224 1.998 4.911v7.504c0 5.482 5.146 9.301 8.12 11.033 0.474 0.283 0.926 0.55 1.88 0.551 0.954-1e-3 1.406-0.269 1.88-0.551 2.974-1.733 8.12-5.551 8.12-11.033V4.911C21.998 3.224 20.7 2 18.914 2zM21 12.416c0 4.982-4.845 8.55-7.633 10.175C12.94 22.846 12.681 23 12 23.001c-0.682 0-0.94-0.155-1.367-0.41C7.845 20.966 3 17.398 3 12.416V9h18zM21 8H3V4.911C3 3.786 3.857 3 5.086 3l1.425 0.011c1.905 0 2.86-0.641 3.783-1.26 0.274-0.184 0.549-0.369 0.855-0.536 0.263-0.144 0.551-0.2 0.854-0.215 0.292-0.032 0.584 0.072 0.847 0.215 0.307 0.167 0.581 0.353 0.855 0.536 0.923 0.619 1.878 1.26 3.783 1.26L18.913 3c1.229 0 2.086 0.786 2.086 1.911z" />
</svg>