<svg id="route_Layer_1" viewBox="0 0 24 24" fill="currentColor" width="32" height="32" data-name="Layer 1" xmlns="http://www.w3.org/2000/svg" xmlns:xlink="http://www.w3.org/1999/xlink">
    <title>route</title>
    <path d="M8.535 14.464C7.591 13.52 6.335 13 5 13s-2.591 0.52-3.536 1.464c-1.95 1.95-1.95 5.122 0.013 7.084l1.988 1.847c0.432 0.402 0.986 0.602 1.54 0.602s1.112-0.202 1.545-0.606l1.985-1.855c1.95-1.95 1.95-5.122 0-7.072zM7.84 20.817 5.867 22.66c-0.483 0.451-1.238 0.451-1.721 2e-3l-1.975-1.834c-1.56-1.56-1.56-4.098 0-5.657C2.927 14.416 3.931 14 5 14s2.073 0.416 2.828 1.171c1.56 1.56 1.56 4.098 0.012 5.646zM17.464 10.394c0.433 0.402 0.987 0.603 1.541 0.603s1.113-0.203 1.546-0.607l1.984-1.854c1.95-1.95 1.95-5.122 0-7.071C21.591 0.521 20.335 1e-3 19 1e-3s-2.591 0.52-3.536 1.464c-1.95 1.95-1.95 5.122 0.013 7.084zM16.172 2.172c0.756-0.755 1.76-1.171 2.829-1.171s2.073 0.416 2.828 1.171c1.56 1.56 1.56 4.098 0.012 5.646L19.869 9.66c-0.482 0.451-1.239 0.452-1.724 2e-3l-1.973-1.833c-1.56-1.56-1.56-4.098 0-5.657zM24.001 20.501c0 1.93-1.57 3.5-3.5 3.5H9.5c-0.276 0-0.5-0.224-0.5-0.5s0.224-0.5 0.5-0.5h11c1.378 0 2.5-1.122 2.5-2.5s-1.122-2.5-2.5-2.5h-6c-1.93 0-3.5-1.57-3.5-3.5s1.57-3.5 3.5-3.5c0.276 0 0.5 0.224 0.5 0.5s-0.224 0.5-0.5 0.5c-1.378 0-2.5 1.122-2.5 2.5s1.122 2.5 2.5 2.5h6c1.93 0 3.5 1.57 3.501 3.5z" />
</svg>