<svg id="route_highway_Layer_1" viewBox="0 0 24 24" fill="currentColor" width="32" height="32" data-name="Layer 1" xmlns="http://www.w3.org/2000/svg" xmlns:xlink="http://www.w3.org/1999/xlink">
    <title>route-highway</title>
    <path d="M20 10c0-1.092 0.709-2.188 1.402-3.117 0.563-0.755 0.74-1.719 0.484-2.644C21.504 2.858 20.201 2 18.487 2h-1.979c-0.973-0.017-1.799-0.631-2.527-1.172-0.183-0.135-0.356-0.264-0.521-0.376-0.888-0.603-2.034-0.602-2.92 2e-3-0.164 0.111-0.335 0.238-0.516 0.372-0.73 0.542-1.559 1.158-2.533 1.175-0.414 7e-3-0.911 4e-3-1.37 2e-3L5.5 2.001c-1.148 0-2.956 0.691-3.387 2.252C1.862 5.16 2.042 6.139 2.592 6.874c0.696 0.928 1.407 2.025 1.407 3.127 0 0.93-0.461 1.873-0.949 2.871-0.517 1.057-1.051 2.149-1.051 3.311 0 4.676 4.964 6.369 7.93 7.381 0.306 0.104 0.59 0.201 0.843 0.292 0.387 0.141 1.143 0.145 1.228 0.145 0.034 0 0.832-1e-3 1.239-0.149 0.249-0.09 0.527-0.185 0.826-0.287C17.033 22.553 22 20.86 22 16.182c0-1.161-0.534-2.254-1.051-3.311C20.461 11.872 20 10.93 20 10zM3.393 6.273C3.027 5.785 2.909 5.129 3.082 4.495 3.364 3.475 4.691 3 5.5 3l0.615 2e-3C6.582 3.003 7.088 3.006 7.509 3c1.295-0.023 2.303-0.771 3.112-1.372 0.168-0.125 0.328-0.244 0.481-0.349 0.546-0.371 1.249-0.372 1.795 0 0.155 0.105 0.317 0.226 0.487 0.352 0.808 0.6 1.813 1.347 3.115 1.37h1.987c0.977 0 2.129 0.396 2.436 1.506 0.173 0.625 0.056 1.273-0.321 1.779-0.392 0.524-0.788 1.1-1.088 1.716H4.489C4.187 7.381 3.788 6.801 3.393 6.273zM13.743 22.618c-0.306 0.104-0.59 0.201-0.844 0.293-0.264 0.095-1.537 0.095-1.785 4e-3-0.26-0.094-0.549-0.192-0.861-0.299C7.54 21.691 3 20.142 3 16.181c0-0.93 0.461-1.873 0.949-2.871C4.466 12.253 5 11.161 5 9.999c0-0.341-0.049-0.675-0.134-1h14.269C19.049 9.324 19 9.658 19 9.999c0 1.161 0.534 2.254 1.051 3.311C20.539 14.309 21 15.251 21 16.181c0 3.962-4.543 5.511-7.257 6.437z" />
</svg>