<svg id="router_wifi_alt_Layer_1" viewBox="0 0 24 24" fill="currentColor" width="32" height="32" data-name="Layer 1" xmlns="http://www.w3.org/2000/svg" xmlns:xlink="http://www.w3.org/1999/xlink">
    <title>router-wifi-alt</title>
    <path d="M20.5 13h-17C1.57 13 0 14.57 0 16.5v2c0 1.391 0.822 2.585 2 3.149V23.5C2 23.776 2.224 24 2.5 24S3 23.776 3 23.5v-1.551C3.165 21.973 3.329 22 3.5 22h17c0.171 0 0.335-0.027 0.5-0.051V23.5c0 0.276 0.224 0.5 0.5 0.5s0.5-0.224 0.5-0.5v-1.851c1.178-0.564 2-1.758 2-3.149v-2c0-1.93-1.57-3.5-3.5-3.5zM23 18.5c0 1.379-1.121 2.5-2.5 2.5h-17C2.121 21 1 19.879 1 18.5v-2C1 15.121 2.121 14 3.5 14h17c1.379 0 2.5 1.121 2.5 2.5zM17.032 7.084C15.688 5.74 13.901 5 12 5S8.312 5.74 6.968 7.084c-0.195 0.195-0.512 0.195-0.707 0s-0.195-0.512 0-0.707C7.794 4.844 9.832 4 12 4s4.206 0.844 5.739 2.377c0.195 0.195 0.195 0.512 0 0.707s-0.512 0.195-0.707 0zM14.767 9.146c0.195 0.195 0.195 0.512 0 0.707s-0.512 0.195-0.707 0c-1.1-1.102-3.021-1.102-4.121 0-0.195 0.195-0.512 0.195-0.707 0s-0.195-0.512 0-0.707c1.477-1.479 4.059-1.479 5.535 0zM3.614 4.181c-0.195-0.195-0.195-0.512 0-0.707C5.854 1.233 8.831 0 12 0s6.146 1.233 8.386 3.474c0.195 0.195 0.195 0.512 0 0.707s-0.512 0.195-0.707 0C17.629 2.13 14.902 1 12 1S6.371 2.13 4.321 4.181c-0.195 0.195-0.512 0.195-0.707 0zM5 17.5c0 0.552-0.448 1-1 1s-1-0.448-1-1 0.448-1 1-1 1 0.448 1 1zM8 17.5c0 0.552-0.448 1-1 1s-1-0.448-1-1 0.448-1 1-1 1 0.448 1 1zM21 17.5c0 0.276-0.224 0.5-0.5 0.5h-7c-0.276 0-0.5-0.224-0.5-0.5s0.224-0.5 0.5-0.5h7c0.276 0 0.5 0.224 0.5 0.5z" />
</svg>