<svg id="router_Layer_1" viewBox="0 0 24 24" fill="currentColor" width="32" height="32" data-name="Layer 1" xmlns="http://www.w3.org/2000/svg" xmlns:xlink="http://www.w3.org/1999/xlink">
    <title>router</title>
    <path d="M15.5 5c1.685 0 3.268 0.656 4.458 1.847 0.195 0.195 0.195 0.512 0 0.707s-0.512 0.195-0.707 0C18.249 6.552 16.917 6 15.5 6s-2.749 0.552-3.75 1.554C11.652 7.652 11.524 7.7 11.396 7.7s-0.256-0.049-0.354-0.146c-0.195-0.195-0.195-0.512 0-0.707C12.232 5.656 13.815 5 15.5 5zM7.453 4.5c0.134 0 0.267-0.053 0.366-0.159C9.799 2.218 12.599 1 15.5 1s5.701 1.218 7.682 3.341c0.187 0.203 0.505 0.213 0.706 0.025 0.202-0.188 0.213-0.505 0.024-0.707C21.744 1.333 18.678 0 15.5 0S9.256 1.333 7.087 3.659C6.899 3.861 6.91 4.177 7.112 4.366 7.208 4.456 7.331 4.5 7.453 4.5zM24 19.5v1c0 1.93-1.57 3.5-3.5 3.5h-17C1.57 24 0 22.43 0 20.5v-1C0 17.57 1.57 16 3.5 16H15v-5.5c0-0.276 0.224-0.5 0.5-0.5s0.5 0.224 0.5 0.5V16h4.5c1.93 0 3.5 1.57 3.5 3.5zM23 19.5c0-1.379-1.121-2.5-2.5-2.5h-17C2.122 17 1 18.121 1 19.5v1C1 21.879 2.122 23 3.5 23h17c1.379 0 2.5-1.121 2.5-2.5zM4 19c-0.552 0-1 0.448-1 1s0.448 1 1 1 1-0.448 1-1-0.448-1-1-1zM8 19c-0.552 0-1 0.448-1 1s0.448 1 1 1 1-0.448 1-1-0.448-1-1-1z" />
</svg>