<svg id="rss_alt_Layer_1" viewBox="0 0 24 24" fill="currentColor" width="32" height="32" data-name="Layer 1" xmlns="http://www.w3.org/2000/svg" xmlns:xlink="http://www.w3.org/1999/xlink">
    <title>rss-alt</title>
    <path d="M3 18c-1.654 0-3 1.346-3 3s1.346 3 3 3 3-1.346 3-3-1.346-3-3-3zM3 23c-1.103 0-2-0.897-2-2s0.897-2 2-2 2 0.897 2 2-0.897 2-2 2zM24 23.5c0 0.276-0.224 0.5-0.5 0.5S23 23.776 23 23.5C23 11.093 12.907 1 0.5 1 0.224 1 0 0.776 0 0.5S0.224 0 0.5 0C13.458 0 24 10.542 24 23.5zM15 23.5c0 0.276-0.224 0.5-0.5 0.5S14 23.776 14 23.5C14 16.056 7.944 10 0.5 10 0.224 10 0 9.776 0 9.5S0.224 9 0.5 9C8.495 9 15 15.505 15 23.5z" />
</svg>