<svg id="rss_Layer_1" viewBox="0 0 24 24" fill="currentColor" width="32" height="32" data-name="Layer 1" xmlns="http://www.w3.org/2000/svg" xmlns:xlink="http://www.w3.org/1999/xlink">
    <title>rss</title>
    <path d="M19.5 0h-15C2.019 0 0 2.019 0 4.5v15C0 21.981 2.019 24 4.5 24h15c2.481 0 4.5-2.019 4.5-4.5v-15C24 2.019 21.981 0 19.5 0zM23 19.5c0 1.93-1.57 3.5-3.5 3.5h-15C2.57 23 1 21.43 1 19.5v-15C1 2.57 2.57 1 4.5 1h15C21.43 1 23 2.57 23 4.5zM13 18.5c0 0.276-0.224 0.5-0.5 0.5S12 18.776 12 18.5c0-3.584-2.916-6.5-6.5-6.5C5.224 12 5 11.776 5 11.5S5.224 11 5.5 11c4.136 0 7.5 3.364 7.5 7.5zM19 18.5c0 0.276-0.224 0.5-0.5 0.5S18 18.776 18 18.5C18 11.607 12.393 6 5.5 6 5.224 6 5 5.776 5 5.5S5.224 5 5.5 5C12.944 5 19 11.056 19 18.5zM7 18c0 0.552-0.448 1-1 1s-1-0.448-1-1 0.448-1 1-1 1 0.448 1 1z" />
</svg>