<svg id="ruble_sign_Layer_1" viewBox="0 0 24 24" fill="currentColor" width="32" height="32" data-name="Layer 1" xmlns="http://www.w3.org/2000/svg" xmlns:xlink="http://www.w3.org/1999/xlink">
    <title>ruble-sign</title>
    <path d="M14.5 15c4.136 0 7.5-3.364 7.5-7.5S18.636 0 14.5 0h-5C7.019 0 5 2.019 5 4.5V14H2.5C2.224 14 2 14.224 2 14.5S2.224 15 2.5 15H5v3H2.5C2.224 18 2 18.224 2 18.5S2.224 19 2.5 19H5v4.59c0 0.276 0.224 0.5 0.5 0.5S6 23.866 6 23.59V19h9.5c0.276 0 0.5-0.224 0.5-0.5S15.776 18 15.5 18H6v-3zM6 4.5C6 2.57 7.57 1 9.5 1h5C18.084 1 21 3.916 21 7.5S18.084 14 14.5 14H6z" />
</svg>