<svg id="rugby_Layer_1" viewBox="0 0 24 24" fill="currentColor" width="32" height="32" data-name="Layer 1" xmlns="http://www.w3.org/2000/svg" xmlns:xlink="http://www.w3.org/1999/xlink">
    <title>rugby</title>
    <path d="M22.171 1.829c-1.586-1.585-4.654-2.191-8.212-1.617-3.608 0.582-6.981 2.219-9.255 4.492s-3.91 5.647-4.492 9.255c-0.573 3.557 0.031 6.627 1.617 8.212C3.02 23.362 5.05 24 7.495 24c0.809 0 1.662-0.069 2.546-0.212 3.608-0.582 6.981-2.219 9.255-4.492s3.91-5.646 4.492-9.255c0.573-3.557-0.031-6.627-1.617-8.212zM14.117 1.199c3.196-0.512 6.008-2e-3 7.347 1.337s1.852 4.153 1.337 7.347c-0.01 0.059-0.025 0.117-0.035 0.176l-8.825-8.825c0.059-0.01 0.117-0.026 0.176-0.035zM9.883 22.801c-3.195 0.515-6.007 3e-3-7.347-1.337s-1.852-4.153-1.337-7.347c0.01-0.059 0.025-0.117 0.035-0.176l8.824 8.824c-0.059 0.01-0.117 0.026-0.175 0.036zM18.589 18.589c-1.814 1.814-4.496 3.234-7.358 3.935l-9.755-9.755c0.701-2.862 2.121-5.544 3.935-7.358s4.496-3.234 7.358-3.935l9.754 9.754c-0.701 2.862-2.121 5.544-3.934 7.359zM17.354 10.647c0.195 0.195 0.195 0.512 0 0.707C17.256 11.452 17.128 11.5 17 11.5s-0.256-0.049-0.354-0.146L15 9.708l-2.293 2.293 1.646 1.646c0.195 0.195 0.195 0.512 0 0.707-0.098 0.098-0.226 0.146-0.354 0.146s-0.256-0.049-0.354-0.146l-1.646-1.646-2.293 2.293 1.646 1.646c0.195 0.195 0.195 0.512 0 0.707-0.098 0.098-0.226 0.146-0.354 0.146s-0.256-0.049-0.354-0.146l-4-4c-0.195-0.195-0.195-0.512 0-0.707s0.512-0.195 0.707 0l1.646 1.646L11.29 12 9.644 10.354c-0.195-0.195-0.195-0.512 0-0.707s0.512-0.195 0.707 0l1.646 1.646L14.29 9 12.644 7.354c-0.195-0.195-0.195-0.512 0-0.707s0.512-0.195 0.707 0z" />
</svg>