<svg id="rules_Layer_1" viewBox="0 0 24 24" fill="currentColor" width="32" height="32" data-name="Layer 1" xmlns="http://www.w3.org/2000/svg" xmlns:xlink="http://www.w3.org/1999/xlink">
    <title>rules</title>
    <path d="M20.854 9.354 18.708 11.5l2.146 2.146c0.195 0.195 0.195 0.512 0 0.707-0.098 0.098-0.226 0.146-0.354 0.146s-0.256-0.049-0.354-0.146L18 12.207l-2.146 2.146c-0.098 0.098-0.226 0.146-0.354 0.146s-0.256-0.049-0.354-0.146c-0.195-0.195-0.195-0.512 0-0.707l2.146-2.146-2.146-2.146c-0.195-0.195-0.195-0.512 0-0.707s0.512-0.195 0.707 0l2.146 2.146 2.146-2.146c0.195-0.195 0.512-0.195 0.707 0s0.195 0.512 2e-3 0.707zM24 5.557v11.652c0 2.176-1.554 4.038-3.694 4.427l-6.72 1.222C13.06 22.954 12.53 23.002 12 23.002s-1.06-0.048-1.585-0.143l-6.719-1.222c-2.141-0.39-3.695-2.251-3.695-4.427V5.556c0-1.338 0.589-2.597 1.617-3.455 1.028-0.856 2.374-1.212 3.688-0.972l4.209 0.765c1.073 0.195 1.964 0.849 2.486 1.736 0.521-0.888 1.412-1.541 2.485-1.736l4.209-0.765c1.317-0.241 2.662 0.115 3.689 0.973S24 4.218 24 5.557zM11.5 5.473c0-1.275-0.911-2.366-2.165-2.594L5.126 2.114c-0.209-0.038-0.42-0.057-0.629-0.057-0.812 0-1.604 0.283-2.239 0.813-0.799 0.667-1.257 1.646-1.257 2.687v11.652c0 1.692 1.209 3.141 2.874 3.444l6.719 1.222c0.301 0.055 0.604 0.091 0.907 0.111zM23 5.557c0-1.041-0.458-2.02-1.257-2.687-0.8-0.667-1.849-0.944-2.869-0.757l-4.209 0.765C13.41 3.107 12.5 4.197 12.5 5.472v16.513c0.303-0.02 0.605-0.056 0.907-0.111l6.719-1.221C21.791 20.35 23 18.902 23 17.209zM9.126 9.46 5.772 12.814c-0.246 0.247-0.639 0.252-0.888 0.017l-1.46-1.41c-0.198-0.192-0.515-0.186-0.707 0.013s-0.186 0.515 0.013 0.707l1.465 1.414c0.318 0.3 0.722 0.45 1.125 0.45 0.419 0 0.838-0.162 1.16-0.483l3.354-3.354c0.195-0.195 0.195-0.512 0-0.707S9.322 9.266 9.126 9.46z" />
</svg>