<svg id="rules_alt_Layer_1" viewBox="0 0 24 24" fill="currentColor" width="32" height="32" data-name="Layer 1" xmlns="http://www.w3.org/2000/svg" xmlns:xlink="http://www.w3.org/1999/xlink">
    <title>rules-alt</title>
    <path d="M17.5 0h-11C4.019 0 2 2.019 2 4.5v16C2 22.43 3.57 24 5.5 24h12c2.481 0 4.5-2.019 4.5-4.5v-15C22 2.019 19.981 0 17.5 0zM21 4.5V17H7V1h10.5C19.43 1 21 2.57 21 4.5zM3 4.5c0-1.758 1.308-3.204 3-3.449V17H5.5c-0.98 0-1.864 0.407-2.5 1.058zM17.5 23h-12C4.121 23 3 21.878 3 20.5S4.121 18 5.5 18H21v1.5c0 1.93-1.57 3.5-3.5 3.5zM11.146 9.854c-0.195-0.195-0.195-0.512 0-0.707s0.512-0.195 0.707 0l2.146 2.146 2.146-2.146c0.195-0.195 0.512-0.195 0.707 0s0.195 0.512 0 0.707L14.706 12l2.146 2.146c0.195 0.195 0.195 0.512 0 0.707-0.098 0.098-0.226 0.146-0.354 0.146s-0.256-0.049-0.354-0.146l-2.146-2.146-2.146 2.146c-0.098 0.098-0.226 0.146-0.354 0.146s-0.256-0.049-0.354-0.146c-0.195-0.195-0.195-0.512 0-0.707L13.29 12zM11.167 5.222c-0.199-0.191-0.205-0.508-0.014-0.707 0.193-0.198 0.509-0.204 0.707-0.013l1.378 1.328c0.25 0.235 0.643 0.229 0.889-0.017L17.11 2.83c0.195-0.195 0.512-0.195 0.707 0s0.195 0.512 0 0.707L14.834 6.52c-0.321 0.322-0.74 0.483-1.159 0.483-0.403 0-0.807-0.149-1.126-0.449z" />
</svg>