<svg id="ruler_combined_Layer_1" viewBox="0 0 24 24" fill="currentColor" width="32" height="32" data-name="Layer 1" xmlns="http://www.w3.org/2000/svg" xmlns:xlink="http://www.w3.org/1999/xlink">
    <title>ruler-combined</title>
    <path d="M20.5 14H10V3.5C10 1.57 8.43 0 6.5 0h-3C1.57 0 0 1.57 0 3.5v16C0 21.981 2.019 24 4.5 24h16c1.93 0 3.5-1.57 3.5-3.5v-3c0-1.93-1.57-3.5-3.5-3.5zM23 20.5c0 1.379-1.121 2.5-2.5 2.5h-16C2.57 23 1 21.43 1 19.5v-16C1 2.121 2.122 1 3.5 1h3C7.878 1 9 2.121 9 3.5V4H6.5C6.224 4 6 4.224 6 4.5S6.224 5 6.5 5H9v4H6.5C6.224 9 6 9.224 6 9.5S6.224 10 6.5 10H9v4H6.5C6.224 14 6 14.224 6 14.5S6.224 15 6.5 15H9v2.5C9 17.776 9.224 18 9.5 18s0.5-0.224 0.5-0.5V15h4v2.5c0 0.276 0.224 0.5 0.5 0.5s0.5-0.224 0.5-0.5V15h4v2.5c0 0.276 0.224 0.5 0.5 0.5s0.5-0.224 0.5-0.5V15h0.5c1.379 0 2.5 1.121 2.5 2.5z" />
</svg>