<svg id="ruler_triangle_Layer_1" viewBox="0 0 24 24" fill="currentColor" width="32" height="32" data-name="Layer 1" xmlns="http://www.w3.org/2000/svg" xmlns:xlink="http://www.w3.org/1999/xlink">
    <title>ruler-triangle</title>
    <path d="M23.011 18.277 5.73 0.996C4.751 0.019 3.35-0.263 2.072 0.269 0.794 0.798 0 1.985 0 3.369v16.008c0 2.553 2.077 4.63 4.63 4.63h16.008c1.383 0 2.572-0.794 3.101-2.071 0.529-1.278 0.25-2.68-0.728-3.659zM22.815 21.552c-0.292 0.703-1.016 1.454-2.177 1.454H4.63c-2.001 0-3.63-1.628-3.63-3.63V3.369c0-1.161 0.751-1.886 1.455-2.177 0.269-0.111 0.588-0.184 0.925-0.184 0.544 0 1.136 0.188 1.644 0.694l2.601 2.601-2.16 2.16c-0.195 0.195-0.195 0.512 0 0.707 0.098 0.098 0.226 0.146 0.354 0.146S6.075 7.267 6.173 7.17l2.16-2.16 2.173 2.173-2.16 2.16c-0.195 0.195-0.195 0.512 0 0.707 0.098 0.098 0.226 0.146 0.354 0.146s0.256-0.049 0.354-0.146l2.16-2.16 2.122 2.122-2.16 2.16c-0.195 0.195-0.195 0.512 0 0.707 0.098 0.098 0.226 0.146 0.354 0.146s0.256-0.049 0.354-0.146l2.16-2.16 2.121 2.121-2.16 2.16c-0.195 0.195-0.195 0.512 0 0.707 0.098 0.098 0.226 0.146 0.354 0.146s0.256-0.049 0.354-0.146l2.16-2.16 2.121 2.121-2.16 2.16c-0.195 0.195-0.195 0.512 0 0.707 0.098 0.098 0.226 0.146 0.354 0.146s0.256-0.049 0.354-0.146l2.16-2.16 2.608 2.608c0.821 0.821 0.802 1.865 0.505 2.569zM6.854 12.146c-0.143-0.143-0.357-0.184-0.545-0.108C6.122 12.115 6 12.298 6 12.5v5C6 17.776 6.224 18 6.5 18h5c0.202 0 0.385-0.122 0.462-0.309 0.078-0.187 0.035-0.402-0.108-0.545zM7 17v-3.293L10.293 17z" />
</svg>