<svg id="running_track_Layer_1" viewBox="0 0 24 24" fill="currentColor" width="32" height="32" data-name="Layer 1" xmlns="http://www.w3.org/2000/svg" xmlns:xlink="http://www.w3.org/1999/xlink">
    <title>running-track</title>
    <path d="M16.668 4C16.615 3.981 8 4 8 4 3.589 4 0 7.589 0 12s3.589 8 8 8h8c4.411 0 8-3.589 8-8 0-4.186-3.233-7.659-7.332-8zM16 7h-2V5h2zM13 8v2h-2V8zM11 7V5h2v2zM17 12c0 0.551-0.449 1-1 1H8c-0.551 0-1-0.449-1-1s0.449-1 1-1h8c0.551 0 1 0.449 1 1zM10 10H8c-1.103 0-2 0.897-2 2s0.897 2 2 2h8c1.103 0 2-0.897 2-2 0-0.737-0.405-1.375-1-1.722V8.142c1.72 0.447 3 2 3 3.858 0 2.206-1.794 4-4 4H8c-2.206 0-4-1.794-4-4s1.794-4 4-4h2zM16 10h-2V8h2zM16 19H8c-3.86 0-7-3.14-7-7s3.14-7 7-7h2v2H8c-2.757 0-5 2.243-5 5s2.243 5 5 5h8c2.757 0 5-2.243 5-5 0-2.414-1.721-4.434-4-4.899V5.08c3.387 0.488 6 3.401 6 6.92 0 3.86-3.14 7-7 7z" />
</svg>