<svg id="rupee_sign_Layer_1" viewBox="0 0 24 24" fill="currentColor" width="32" height="32" data-name="Layer 1" xmlns="http://www.w3.org/2000/svg" xmlns:xlink="http://www.w3.org/1999/xlink">
    <title>rupee-sign</title>
    <path d="M15 7.5C15 3.364 11.636 0 7.5 0h-3C2.019 0 0 2.019 0 4.5v19C0 23.776 0.224 24 0.5 24S1 23.776 1 23.5V15h6.5c0.232 0 0.461-0.011 0.688-0.032l4.875 8.775C13.155 23.907 13.326 24 13.501 24c0.083 0 0.166-0.021 0.243-0.062 0.241-0.135 0.328-0.438 0.194-0.681l-4.701-8.46C12.538 14.011 15 11.038 15 7.5zM7.5 14H1V4.5C1 2.57 2.57 1 4.5 1h3C11.084 1 14 3.916 14 7.5S11.084 14 7.5 14zM24 21.374C24 22.822 22.822 24 21.374 24h-2.8c-0.979 0-1.893-0.526-2.382-1.375-0.139-0.239-0.057-0.545 0.183-0.683 0.237-0.14 0.544-0.057 0.683 0.183C17.37 22.665 17.952 23 18.575 23h2.8c0.896 0 1.626-0.729 1.626-1.626 0-0.803-0.575-1.479-1.368-1.604l-3.422-0.552c-1.28-0.204-2.21-1.295-2.21-2.592 0-1.448 1.178-2.626 2.626-2.626h2.8c0.979 0 1.893 0.526 2.382 1.375 0.139 0.239 0.057 0.545-0.183 0.683s-0.544 0.057-0.683-0.183C22.631 15.335 22.049 15 21.426 15h-2.8C17.73 15 17 15.729 17 16.626c0 0.803 0.575 1.479 1.368 1.604l3.422 0.552c1.28 0.204 2.21 1.295 2.21 2.592z" />
</svg>