<svg id="rupiah_sign_Layer_1" viewBox="0 0 24 24" fill="currentColor" width="32" height="32" data-name="Layer 1" xmlns="http://www.w3.org/2000/svg" xmlns:xlink="http://www.w3.org/1999/xlink">
    <title>rupiah-sign</title>
    <path d="M20.5 13h-2c-1.38 0-2.5 1.12-2.5 2.5v8c0 0.28 0.22 0.5 0.5 0.5s0.5-0.22 0.5-0.5V20h3.5c1.93 0 3.5-1.57 3.5-3.5S22.43 13 20.5 13zM20.5 19H17v-3.5c0-0.83 0.67-1.5 1.5-1.5h2c1.38 0 2.5 1.12 2.5 2.5S21.88 19 20.5 19zM10.09 14.54C12.95 13.48 15 10.73 15 7.5 15 3.36 11.64 0 7.5 0h-3C2.02 0 0 2.02 0 4.5v19C0 23.78 0.22 24 0.5 24S1 23.78 1 23.5V15h6.5c0.55 0 1.09-0.06 1.61-0.17l4.95 8.92c0.09 0.16 0.26 0.26 0.44 0.26 0.08 0 0.17-0.02 0.24-0.06 0.24-0.13 0.33-0.44 0.19-0.68zM1 14V4.5C1 2.57 2.57 1 4.5 1h3C11.08 1 14 3.92 14 7.5S11.08 14 7.5 14z" />
</svg>