<svg id="russian_Layer_1" viewBox="0 0 24 24" fill="currentColor" width="32" height="32" data-name="Layer 1" xmlns="http://www.w3.org/2000/svg" xmlns:xlink="http://www.w3.org/1999/xlink">
    <title>russian</title>
    <path d="M10 9.75V5.5C10 5.224 10.224 5 10.5 5S11 5.224 11 5.5v4.25c0 0.689 0.561 1.25 1.25 1.25s1.25-0.561 1.25-1.25V5.5C13.5 5.224 13.724 5 14 5s0.5 0.224 0.5 0.5v4.25c0 1.241-1.009 2.25-2.25 2.25S10 10.991 10 9.75zM24 8.495v13.854c0.041 1.276-1.521 2.113-2.562 1.372l-4.089-2.727H10.5c-2.182 0-4.003-1.561-4.412-3.625L2.562 19.72C1.521 20.461-0.041 19.624 0 18.348V4.495c0-2.481 2.019-4.5 4.5-4.5h10c2.31 0 4.197 1.756 4.449 4H19.5c2.481 0 4.5 2.019 4.5 4.5zM6.223 16.079c0.088-0.034 0.172-0.088 0.277-0.084h8c1.93 0 3.5-1.57 3.5-3.5v-8c0-1.93-1.57-3.5-3.5-3.5h-10c-1.93 0-3.5 1.57-3.5 3.5v13.854c-0.019 0.502 0.601 0.834 1.007 0.54zM23 8.495c0-1.93-1.57-3.5-3.5-3.5H19v7.5c0 2.481-2.019 4.5-4.5 4.5H7.051c0.245 1.692 1.691 3 3.449 3h7c0.099 0 0.195 0.029 0.277 0.084l4.215 2.811c0.407 0.294 1.026-0.039 1.007-0.54zM6.75 9.5H5.5v2C5.5 11.776 5.276 12 5 12s-0.5-0.224-0.5-0.5V6c0-0.551 0.449-1 1-1h1.25C7.991 5 9 6.009 9 7.25c0 0.8-0.423 1.499-1.054 1.898l0.793 2.181c0.23 0.605-0.723 0.956-0.939 0.342L7.002 9.475C6.919 9.484 6.837 9.5 6.75 9.5zM5.5 8.5h1.25C7.439 8.5 8 7.939 8 7.25S7.439 6 6.75 6H5.5z" />
</svg>