<svg id="rv_Layer_1" viewBox="0 0 24 24" fill="currentColor" width="32" height="32" data-name="Layer 1" xmlns="http://www.w3.org/2000/svg" xmlns:xlink="http://www.w3.org/1999/xlink">
    <title>rv</title>
    <path d="M20.362 6H22.5C23.327 6 24 5.327 24 4.5 24 2.57 22.43 1 20.5 1h-16C2.019 1 0 3.019 0 5.5v7.515c0 1.736 0.676 3.369 1.904 4.596L3 18.707V20c0 1.654 1.346 3 3 3s3-1.346 3-3v-1h7v1c0 1.654 1.346 3 3 3s3-1.346 3-3v-1h1.5c0.276 0 0.5-0.224 0.5-0.5v-4.407c0-1.129-0.296-2.245-0.856-3.225zM22.067 11H15V8.5C15 7.122 16.122 6 17.5 6h1.71zM1 6h6.5C7.776 6 8 6.224 8 6.5v2C8 8.776 7.776 9 7.5 9H1zM8 20c0 1.103-0.897 2-2 2s-2-0.897-2-2v-1h4zM14 18H3.707l-1.096-1.096C1.572 15.865 1 14.484 1 13.015V10h6.5C8.327 10 9 9.327 9 8.5v-2C9 5.673 8.327 5 7.5 5H1.036C1.279 3.306 2.74 2 4.5 2h16C21.878 2 23 3.122 23 4.5 23 4.776 22.776 5 22.5 5h-5C15.57 5 14 6.57 14 8.5zM21 20c0 1.103-0.897 2-2 2s-2-0.897-2-2v-1h4zM23 18h-8v-6c0 0 7.546-4e-3 7.581-0.012C22.856 12.653 23 13.37 23 14.093z" />
</svg>