<svg id="sack_Layer_1" viewBox="0 0 24 24" fill="currentColor" width="32" height="32" data-name="Layer 1" xmlns="http://www.w3.org/2000/svg" xmlns:xlink="http://www.w3.org/1999/xlink">
    <title>sack</title>
    <path d="M13.83 5.268c1.11-0.592 2.461-1.582 3.06-3.088 0.192-0.486 0.132-1.018-0.168-1.458-0.307-0.453-0.814-0.723-1.358-0.723H8.635c-0.544 0-1.052 0.27-1.358 0.723-0.3 0.44-0.36 0.972-0.168 1.459 0.599 1.505 1.95 2.495 3.06 3.087C5.238 6.62 1 13.094 1 18.25 1 21.42 3.579 24 6.75 24h10.5c3.171 0 5.75-2.58 5.75-5.75 0-5.156-4.238-11.63-9.17-12.982zM8.039 1.812C7.971 1.639 7.994 1.446 8.104 1.284 8.225 1.106 8.423 0.999 8.635 0.999h6.729c0.212 0 0.41 0.106 0.531 0.285 0.11 0.162 0.134 0.354 0.065 0.527-0.788 1.982-3.336 2.952-3.961 3.164-0.625-0.212-3.173-1.182-3.96-3.163zM17.25 23H6.75C4.131 23 2 20.869 2 18.25 2 12.901 6.85 6 12 6s10 6.901 10 12.25c0 2.619-2.131 4.75-4.75 4.75z" />
</svg>