<svg id="sad_cry_Layer_1" viewBox="0 0 24 24" fill="currentColor" width="32" height="32" data-name="Layer 1" xmlns="http://www.w3.org/2000/svg" xmlns:xlink="http://www.w3.org/1999/xlink">
    <title>sad-cry</title>
    <path d="M9.5 11C9.224 11 9 10.776 9 10.5 9 9.285 8.229 8 7.5 8S6 9.285 6 10.5C6 10.776 5.776 11 5.5 11S5 10.776 5 10.5C5 8.848 6.069 7 7.5 7S10 8.848 10 10.5c0 0.276-0.224 0.5-0.5 0.5zM19 10.5C19 8.848 17.931 7 16.5 7S14 8.848 14 10.5c0 0.276 0.224 0.5 0.5 0.5s0.5-0.224 0.5-0.5C15 9.285 15.771 8 16.5 8S18 9.285 18 10.5c0 0.276 0.224 0.5 0.5 0.5s0.5-0.224 0.5-0.5zM15 17c0-2.206-1.346-4-3-4s-3 1.794-3 4 1.346 4 3 4 3-1.794 3-4zM14 17c0 1.626-0.916 3-2 3s-2-1.374-2-3 0.916-3 2-3 2 1.374 2 3zM19 23.5v-9c0-0.276-0.224-0.5-0.5-0.5S18 14.224 18 14.5v9c0 0.276 0.224 0.5 0.5 0.5s0.5-0.224 0.5-0.5zM6 23.5v-9C6 14.224 5.776 14 5.5 14S5 14.224 5 14.5v9C5 23.776 5.224 24 5.5 24S6 23.776 6 23.5zM15.652 23.435c0.263-0.084 0.408-0.365 0.325-0.628-0.084-0.264-0.366-0.408-0.628-0.325-2.159 0.688-4.537 0.688-6.696 0-0.265-0.082-0.544 0.062-0.628 0.325-0.083 0.263 0.062 0.544 0.325 0.628C9.528 23.81 10.757 24 12.002 24s2.474-0.19 3.65-0.565zM21.901 18.784c1.374-2.001 2.1-4.347 2.1-6.783C24 5.383 18.617 0 12 0S0 5.383 0 12c0 2.437 0.726 4.782 2.1 6.783 0.157 0.228 0.467 0.286 0.695 0.129 0.228-0.156 0.285-0.468 0.129-0.695C1.666 16.384 1 14.234 1 12 1 5.935 5.935 1 12 1s11 4.935 11 11c0 2.233-0.666 4.384-1.924 6.217-0.156 0.228-0.099 0.539 0.129 0.695C21.292 18.972 21.39 19 21.488 19c0.159 0 0.316-0.076 0.413-0.216z" />
</svg>