<svg id="safety_zone_Layer_1" viewBox="0 0 24 24" fill="currentColor" width="32" height="32" data-name="Layer 1" xmlns="http://www.w3.org/2000/svg" xmlns:xlink="http://www.w3.org/1999/xlink">
    <title>safety-zone</title>
    <path d="M19.777 3.208C17.7 1.14 14.938 0 12 0S6.3 1.14 4.223 3.208C2.144 5.277 1 8.028 1 10.955s1.144 5.677 3.237 7.76l4.151 3.819C9.359 23.479 10.641 24 11.999 24s2.641-0.521 3.602-1.456l4.176-3.843C21.856 16.632 23 13.881 23 10.955s-1.145-5.678-3.223-7.747zM19.086 17.979l-4.172 3.839c-1.566 1.525-4.251 1.536-5.839-0.01l-4.147-3.815C3.04 16.113 2 13.614 2 10.956s1.04-5.158 2.928-7.038C6.816 2.037 9.328 1.001 12 1.001s5.183 1.036 7.071 2.917c1.888 1.88 2.928 4.379 2.928 7.038s-1.04 5.157-2.913 7.023zM15.785 5.627l-3-0.995c-0.506-0.168-1.064-0.168-1.573 0l-3 0.995C7.187 5.967 6.499 6.921 6.499 8v3.413c0 3.618 3.869 5.83 5.053 6.422 0 0 0.298 0.165 0.448 0.165s0.418-0.13 0.418-0.13c1.191-0.479 5.08-2.359 5.08-6.457V8c0-1.079-0.688-2.033-1.713-2.373zM16.499 11.413c-8e-3 3.489-3.41 5.107-4.476 5.539-1.075-0.539-4.516-2.477-4.524-5.539V8c0-0.647 0.413-1.22 1.028-1.424l3-0.995c0.305-0.1 0.64-0.1 0.945 0l3 0.995C16.087 6.78 16.5 7.352 16.5 8zM15.359 9.143c0.192 0.198 0.187 0.515-0.012 0.707l-2.703 2.614c-0.36 0.355-0.835 0.533-1.311 0.533s-0.949-0.177-1.312-0.531l-1.364-1.347c-0.197-0.193-0.199-0.51-5e-3-0.707 0.194-0.195 0.512-0.199 0.707-4e-3l1.363 1.345c0.337 0.329 0.886 0.327 1.223-4e-3l2.706-2.618c0.2-0.191 0.515-0.187 0.708 0.012z" />
</svg>