<svg id="safe_box_Layer_1" viewBox="0 0 24 24" fill="currentColor" width="32" height="32" data-name="Layer 1" xmlns="http://www.w3.org/2000/svg" xmlns:xlink="http://www.w3.org/1999/xlink">
    <title>safe-box</title>
    <path d="M5.5 10C2.416 10 0 11.318 0 13v8c0 1.682 2.416 3 5.5 3s5.5-1.318 5.5-3v-8c0-1.682-2.416-3-5.5-3zM10 17c0 0.946-1.848 2-4.5 2S1 17.946 1 17v-2.254C1.987 15.51 3.62 16 5.5 16s3.513-0.49 4.5-1.254zM5.5 11c2.652 0 4.5 1.054 4.5 2s-1.848 2-4.5 2S1 13.946 1 13s1.848-2 4.5-2zM5.5 23C2.848 23 1 21.946 1 21v-2.254C1.987 19.51 3.62 20 5.5 20s3.513-0.49 4.5-1.254V21c0 0.946-1.848 2-4.5 2zM24 4.5v11c0 1.557-0.795 2.932-2 3.74v2.26c0 0.276-0.224 0.5-0.5 0.5S21 21.776 21 21.5v-1.757C20.531 19.909 20.026 20 19.5 20H13c-0.276 0-0.5-0.224-0.5-0.5S12.724 19 13 19h6.5c1.76 0 3.221-1.306 3.464-3H20.5c-0.276 0-0.5-0.224-0.5-0.5s0.224-0.5 0.5-0.5H23V5h-2.5C20.224 5 20 4.776 20 4.5S20.224 4 20.5 4h2.464C22.721 2.306 21.26 1 19.5 1h-15C2.57 1 1 2.57 1 4.5v4C1 8.776 0.776 9 0.5 9S0 8.776 0 8.5v-4C0 2.019 2.019 0 4.5 0h15C21.981 0 24 2.019 24 4.5zM11 5C9.112 5 7.405 6.045 6.545 7.728 6.419 7.974 6.118 8.072 5.872 7.946S5.529 7.519 5.654 7.273C6.686 5.254 8.735 4.001 11 4.001c3.309 0 6 2.691 6 6 0 2.265-1.254 4.313-3.272 5.346-0.073 0.037-0.15 0.055-0.227 0.055-0.182 0-0.357-0.1-0.446-0.272-0.125-0.246-0.028-0.547 0.218-0.673 1.682-0.86 2.728-2.567 2.728-4.455 0-2.757-2.243-5-5.001-5.002z" />
</svg>