<svg id="safe_battery_Layer_1" viewBox="0 0 24 24" fill="currentColor" width="32" height="32" data-name="Layer 1" xmlns="http://www.w3.org/2000/svg" xmlns:xlink="http://www.w3.org/1999/xlink">
    <title>safe-battery</title>
    <path d="M22.5 8h-0.528c-0.25-2.247-2.16-4-4.472-4h-13C2.019 4 0 6.019 0 8.5v7C0 17.981 2.019 20 4.5 20h13c2.312 0 4.223-1.753 4.472-4H22.5c0.827 0 1.5-0.673 1.5-1.5v-5C24 8.673 23.327 8 22.5 8zM23 14.5c0 0.276-0.224 0.5-0.5 0.5h-1c-0.276 0-0.5 0.224-0.5 0.5 0 1.93-1.57 3.5-3.5 3.5h-13C2.57 19 1 17.43 1 15.5v-7C1 6.57 2.57 5 4.5 5h13C19.43 5 21 6.57 21 8.5 21 8.776 21.224 9 21.5 9h1C22.776 9 23 9.224 23 9.5zM13.25 8C12.267 8 11.477 8.359 11 8.967 10.523 8.359 9.733 8 8.75 8 7.233 8 6 9.314 6 10.93c0 1.895 2.085 4.368 3.399 5.481 0.464 0.394 1.032 0.59 1.601 0.59 0.568 0 1.137-0.196 1.601-0.59C13.915 15.297 16 12.824 16 10.93 16 9.314 14.767 8 13.25 8zM11.955 15.649c-0.554 0.469-1.355 0.469-1.909 0-1.228-1.041-3.045-3.261-3.045-4.719 0-1.064 0.785-1.93 1.75-1.93 0.411 0 1.75 0.108 1.75 1.5 0 0.276 0.224 0.5 0.5 0.5s0.5-0.224 0.5-0.5c0-1.392 1.339-1.5 1.75-1.5 0.965 0 1.75 0.866 1.75 1.93 0 1.458-1.817 3.678-3.046 4.719z" />
</svg>