<svg id="safety_glasses_Layer_1" viewBox="0 0 24 24" fill="currentColor" width="32" height="32" data-name="Layer 1" xmlns="http://www.w3.org/2000/svg" xmlns:xlink="http://www.w3.org/1999/xlink">
    <title>safety-glasses</title>
    <path d="M12 8c-0.276 0-0.5-0.224-0.5-0.5v-4C11.5 3.224 11.724 3 12 3s0.5 0.224 0.5 0.5v4C12.5 7.776 12.276 8 12 8zM11 10c0 0.552 0.448 1 1 1s1-0.448 1-1-0.448-1-1-1-1 0.448-1 1zM23.967 16.896c-0.212 1.401-0.484 2.958-0.71 4.222-0.3 1.67-1.749 2.882-3.445 2.882h-2.57c-1.253 0-2.417-0.676-3.039-1.764l-0.835-1.461c-0.284-0.497-0.795-0.793-1.367-0.793H12c-0.572 0-1.083 0.296-1.366 0.793l-0.835 1.461C9.177 23.324 8.013 24 6.76 24H4.176c-1.718 0-3.169-1.23-3.452-2.924L0.04 16.975C0.017 16.836 0 14.5 0 14.5c0-0.865 0.074-1.5 0.193-2.244L1.616 2.97C1.88 1.249 3.335 0 5.075 0H6.5C6.776 0 7 0.224 7 0.5S6.776 1 6.5 1H5.075C3.832 1 2.792 1.892 2.604 3.121l-1.423 9.29c-0.103 0.645-0.167 1.205-0.177 1.915 0.421-0.363 0.936-0.6 1.503-0.675C4.579 13.38 8.895 13 12.001 13c2.915 0 7.086 0.341 9.532 0.662 0.551 0.072 1.052 0.302 1.464 0.652-0.01-0.704-0.074-1.261-0.176-1.9l-1.424-9.293C21.209 1.892 20.169 1 18.926 1h-1.425c-0.276 0-0.5-0.224-0.5-0.5s0.224-0.5 0.5-0.5h1.425c1.741 0 3.196 1.249 3.459 2.97l1.423 9.29C23.927 13 24 13.635 24 14.5c0 0-0.017 2.29-0.033 2.396zM22.632 15.371c-0.299-0.397-0.736-0.652-1.23-0.717-2.414-0.316-6.53-0.653-9.402-0.653-3.061 0-7.318 0.376-9.364 0.643-0.511 0.067-0.961 0.332-1.267 0.745-0.305 0.412-0.427 0.917-0.343 1.424l0.684 4.101c0.202 1.21 1.239 2.088 2.466 2.088H6.76c0.895 0 1.727-0.483 2.17-1.26l0.835-1.461c0.464-0.812 1.299-1.297 2.234-1.297h2e-3c0.936 0 1.771 0.485 2.235 1.297l0.835 1.461c0.444 0.777 1.275 1.26 2.17 1.26h2.57c1.212 0 2.247-0.866 2.461-2.059 0.225-1.255 0.495-2.803 0.706-4.195 0.074-0.491-0.049-0.979-0.346-1.377zM6.157 10.038C6.503 10.641 7.124 11 7.819 11H9c0.276 0 0.5-0.224 0.5-0.5S9.276 10 9 10H7.819C7.487 10 7.19 9.828 7.024 9.54S6.86 8.909 7.027 8.622l4.181-7.167c0.333-0.569 1.251-0.569 1.583 0l4.181 7.167c0.167 0.287 0.169 0.63 3e-3 0.918S16.512 10 16.18 10h-1.181c-0.276 0-0.5 0.224-0.5 0.5s0.224 0.5 0.5 0.5h1.181c0.695 0 1.316-0.359 1.662-0.962s0.343-1.32-6e-3-1.92l-4.181-7.167C13.308 0.356 12.689 0 12 0s-1.308 0.355-1.656 0.951L6.163 8.118c-0.35 0.6-0.352 1.318-6e-3 1.92z" />
</svg>