<svg id="sailboat_Layer_1" viewBox="0 0 24 24" fill="currentColor" width="32" height="32" data-name="Layer 1" xmlns="http://www.w3.org/2000/svg" xmlns:xlink="http://www.w3.org/1999/xlink">
    <title>sailboat</title>
    <path d="M23.65 16.148C23.21 15.429 22.445 15 21.604 15H2.395c-0.837 0-1.6 0.427-2.041 1.142-0.431 0.698-0.47 1.549-0.104 2.276C2.11 22.122 5.39 24 10 24h4c4.577 0 7.855-1.874 9.744-5.569 0.371-0.727 0.336-1.58-0.094-2.283zM22.853 17.975c-1.728 3.381-4.623 5.024-8.854 5.024h-4c-4.201 0-7.181-1.692-8.857-5.031-0.211-0.421-0.189-0.896 0.062-1.303 0.257-0.417 0.702-0.666 1.19-0.666h19.209c0.49 0 0.936 0.251 1.192 0.671 0.251 0.409 0.271 0.885 0.058 1.305zM1.833 13h6.333c0.49 0 0.951-0.19 1.297-0.538S10 11.654 9.999 11.166l-4e-3-7.334c0-0.755-0.474-1.442-1.177-1.71-0.701-0.271-1.513-0.076-2.026 0.493L0.47 9.941c-0.484 0.538-0.606 1.312-0.311 1.971C0.453 12.573 1.11 13 1.833 13zM1.22 10.602 7.542 3.276c0.161-0.178 0.39-0.275 0.623-0.275 0.1 0 0.201 0.019 0.297 0.056 0.319 0.121 0.534 0.433 0.534 0.775L9 11.167c0 0.222-0.086 0.431-0.244 0.589C8.598 11.913 8.389 12 8.166 12H1.833c-0.329 0-0.627-0.194-0.761-0.495-0.134-0.299-0.078-0.65 0.148-0.903zM12.536 12.463C12.883 12.81 13.343 13 13.832 13h8.334c0.723 0 1.38-0.427 1.675-1.088 0.293-0.659 0.171-1.433-0.311-1.97L15.2 0.606c-0.505-0.559-1.317-0.755-2.018-0.484-0.704 0.268-1.178 0.955-1.178 1.71L12 11.165c0 0.489 0.189 0.949 0.536 1.297zM13.004 1.833c0-0.343 0.215-0.654 0.535-0.776s0.689-0.034 0.916 0.219l8.33 9.335c0.22 0.245 0.275 0.597 0.142 0.896-0.134 0.301-0.433 0.495-0.761 0.495h-8.334c-0.223 0-0.432-0.087-0.59-0.244-0.157-0.159-0.244-0.368-0.243-0.59z" />
</svg>