<svg id="salad_Layer_1" viewBox="0 0 24 24" fill="currentColor" width="32" height="32" data-name="Layer 1" xmlns="http://www.w3.org/2000/svg" xmlns:xlink="http://www.w3.org/1999/xlink">
    <title>salad</title>
    <path d="M2.179 11.313c0 0 0 0 0 0-2e-3-5e-3-3e-3-0.011 0 0zM23.852 15.828c-0.691 2.453-2.075 3.881-3.731 5.59-1.59 1.641-3.84 2.582-6.175 2.582h-3.891C7.72 24 5.47 23.059 3.88 21.418c-1.656-1.709-3.04-3.137-3.731-5.59-0.334-1.185-0.104-2.42 0.629-3.39 0.377-0.498 0.859-0.88 1.4-1.125 2e-3 5e-3 4e-3 0.01 0 0C2.074 10.908 1.999 10.425 1.999 10c0-1.655 0.808-3.124 2.051-4.035-0.011-0.011-0.022-0.021-0.033-0.032-1.354-1.355-1.354-3.56 0-4.915s3.559-1.356 4.915 0c0-0.017 0.136-0.017 0.185-0.038 1.306-1.317 3.509-1.319 4.865 0.038 0.785 0.784 1.141 1.869 0.997 2.913 0.823-0.525 1.859-1.559 2.003-3.469 0.021-0.275 0.241-0.484 0.537-0.461C17.794 0.022 18 0.262 17.98 0.537c-0.097 1.283-0.538 2.246-1.087 2.96 0.873-0.218 1.75-0.378 2.53-0.479 0.723-0.092 1.421 0.151 1.927 0.669 0.505 0.517 0.732 1.222 0.623 1.936-0.222 1.448-0.803 3.569-1.645 5.376h0.033c1.126 0 2.169 0.524 2.861 1.438 0.733 0.969 0.963 2.205 0.63 3.391zM13.845 5.721c-0.249 0.207-0.505 0.398-0.711 0.547-1.061 1.079-1.413 2.635-0.918 4.069 0.078 0.168 0.257 0.484 0.413 0.663h0.664l3.354-3.354c0.195-0.195 0.512-0.195 0.707 0s0.195 0.512 0 0.707l-2.646 2.646h4.51c0.906-1.792 1.547-4.084 1.768-5.528 0.061-0.399-0.066-0.795-0.35-1.085-0.285-0.291-0.683-0.43-1.083-0.376-1.924 0.249-4.324 0.866-5.708 1.711zM4.724 5.225c0.072 0.071 0.152 0.14 0.242 0.207 0.622-0.278 1.31-0.433 2.033-0.433 1.808 0 3.395 0.965 4.274 2.407 0.241-0.691 0.637-1.33 1.178-1.871 0.218-0.218 0.483-0.422 0.785-0.613 0.322-0.27 0.566-0.507 0.618-0.611 0.341-0.874 0.114-1.892-0.58-2.586-0.965-0.965-2.536-0.966-3.501 0-0.235 0.236-0.586 0.271-0.774 0.271S8.46 1.961 8.225 1.725c-0.966-0.966-2.537-0.965-3.501 0-0.965 0.965-0.965 2.536 0 3.5zM2.999 9.999c0 0.34 0.042 0.677 0.126 1 3e-3 0.012 5e-3 0.024 7e-3 0.036 0.166-0.024 0.335-0.036 0.505-0.036h7.235c0.084-0.323 0.126-0.66 0.126-1 0-2.206-1.794-4-4-4s-4 1.794-3.999 4zM22.424 13.041c-0.501-0.663-1.254-1.042-2.063-1.042H3.639c-0.81 0-1.562 0.38-2.063 1.042-0.543 0.717-0.712 1.634-0.464 2.514 0.623 2.21 1.868 3.495 3.487 5.166 1.401 1.448 3.391 2.278 5.456 2.278h3.891c2.065 0 4.055-0.83 5.456-2.277 1.619-1.67 2.864-2.956 3.487-5.166 0.248-0.88 0.079-1.797-0.465-2.515z" />
</svg>