<svg id="salary_alt_Layer_1" viewBox="0 0 24 24" fill="currentColor" width="32" height="32" data-name="Layer 1" xmlns="http://www.w3.org/2000/svg" xmlns:xlink="http://www.w3.org/1999/xlink">
    <title>salary-alt</title>
    <path d="M22.389 8.682 20 6.293V4.5C20 2.019 17.981 0 15.5 0h-7C6.019 0 4 2.019 4 4.5v1.793L1.611 8.682C0.572 9.72 0 11.101 0 12.571V19.5C0 21.981 2.019 24 4.5 24h15c2.481 0 4.5-2.019 4.5-4.5v-6.929c0-1.47-0.572-2.851-1.611-3.889zM21.682 9.389c0.214 0.213 0.403 0.444 0.567 0.69-0.036 0.021-2.248 2.257-2.248 2.257V7.707zM5 4.5C5 2.57 6.57 1 8.5 1h7C17.43 1 19 2.57 19 4.5c0 0 7e-3 8.834 8e-3 8.849l-4.534 4.627c-1.322 1.322-3.631 1.319-4.945 3e-3l-4.537-4.63C4.993 13.335 5 4.501 5 4.5zM4 7.707v4.629c0 0-2.212-2.236-2.248-2.257 0.164-0.245 0.353-0.476 0.566-0.69zM23 19.5c0 1.93-1.57 3.5-3.5 3.5h-15C2.57 23 1 21.43 1 19.5v-6.929c0-0.545 0.109-1.072 0.293-1.568l7.525 7.679C9.668 19.532 10.797 20 12 20s2.332-0.468 3.186-1.321l7.521-7.675C22.892 11.5 23 12.026 23 12.572zM15 4c0-0.552 0.448-1 1-1s1 0.448 1 1-0.448 1-1 1-1-0.448-1-1zM7 4c0-0.552 0.448-1 1-1s1 0.448 1 1-0.448 1-1 1-1-0.448-1-1zM12 16c2.206 0 4-1.794 4-4s-1.794-4-4-4-4 1.794-4 4 1.794 4 4 4zM12 9c1.654 0 3 1.346 3 3s-1.346 3-3 3-3-1.346-3-3 1.346-3 3-3z" />
</svg>