<svg id="salt_shaker_Layer_1" viewBox="0 0 24 24" fill="currentColor" width="32" height="32" data-name="Layer 1" xmlns="http://www.w3.org/2000/svg" xmlns:xlink="http://www.w3.org/1999/xlink">
    <title>salt-shaker</title>
    <path d="M21.915 17.928 20 7.455V5.999C20 0.622 15.434 0 12 0S4 0.622 4 6v1.456L2.073 17.99c-0.257 1.526 0.169 3.079 1.169 4.261s2.46 1.859 4.008 1.859h9.498c1.56 0 3.028-0.687 4.028-1.883s1.415-2.763 1.139-4.299zM5 6c0-2.68 1.23-4.182 4-4.742V2c0 0.552 0.448 1 1 1s1-0.448 1-1V1.025C11.321 1.01 11.651 1 12 1s0.679 0.01 1 0.025V2c0 0.552 0.448 1 1 1s1-0.448 1-1V1.258c2.77 0.56 4 2.061 4 4.742v1H5zM20.009 21.586c-0.81 0.969-1.998 1.524-3.261 1.524H7.25c-1.253 0-2.436-0.549-3.245-1.505s-1.154-2.214-0.948-3.442L4.916 8h14.166l1.848 10.107c0.224 1.242-0.112 2.51-0.921 3.479zM16 19c0 0.552-0.448 1-1 1s-1-0.448-1-1 0.448-1 1-1 1 0.448 1 1zM14 16c0 0.552-0.448 1-1 1s-1-0.448-1-1 0.448-1 1-1 1 0.448 1 1zM18 16c0 0.552-0.448 1-1 1s-1-0.448-1-1 0.448-1 1-1 1 0.448 1 1z" />
</svg>