<svg id="salt_pepper_Layer_1" viewBox="0 0 24 24" fill="currentColor" width="32" height="32" data-name="Layer 1" xmlns="http://www.w3.org/2000/svg" xmlns:xlink="http://www.w3.org/1999/xlink">
    <title>salt-pepper</title>
    <path d="M8 23.5C8 23.776 7.776 24 7.5 24H4.997c-1.833 0-3.506-1.123-4.165-2.794C0.28 19.805 0 18.559 0 17.5c0-2.151 1.063-3.745 2.087-5.282C3.071 10.742 4 9.347 4 7.5V6H3.5C3.224 6 3 5.776 3 5.5S3.224 5 3.5 5H4V4c0-2.206 1.794-4 4-4 1.084 0 2.099 0.427 2.857 1.201 0.193 0.197 0.19 0.514-7e-3 0.707-0.198 0.192-0.514 0.19-0.707-8e-3C9.574 1.32 8.813 1 8 1 6.346 1 5 2.346 5 4v1h3.5C8.776 5 9 5.224 9 5.5S8.776 6 8.5 6H5v1.5c0 1.792-0.735 3.193-1.573 4.5H7.5C7.776 12 8 12.224 8 12.5S7.776 13 7.5 13H2.768C1.84 14.397 1 15.744 1 17.5c0 0.932 0.256 2.056 0.763 3.339C2.272 22.132 3.572 23 4.997 23H7.5C7.776 23 8 23.224 8 23.5zM16 16c-0.552 0-1 0.448-1 1s0.448 1 1 1 1-0.448 1-1-0.448-1-1-1zM24 17.5c0 1.061-0.28 2.308-0.833 3.706C22.509 22.877 20.835 24 19.003 24h-6.006c-1.833 0-3.506-1.123-4.165-2.794C8.28 19.805 8 18.559 8 17.5c0-2.151 1.063-3.745 2.087-5.282C11.071 10.742 12 9.347 12 7.5V6h-0.5C11.224 6 11 5.776 11 5.5S11.224 5 11.5 5H12V4c0-2.206 1.794-4 4-4s4 1.794 4 4v1h0.5C20.776 5 21 5.224 21 5.5S20.776 6 20.5 6H20v1.5c0 1.847 0.929 3.242 1.913 4.718C22.937 13.755 24 15.349 24 17.5zM13 5h6V4c0-1.654-1.346-3-3-3s-3 1.346-3 3zM11.427 12h9.146C19.735 10.693 19 9.292 19 7.5V6h-6v1.5c0 1.792-0.735 3.193-1.573 4.5zM23 17.5c0-1.756-0.839-3.103-1.768-4.5H10.768C9.84 14.397 9 15.744 9 17.5c0 0.932 0.256 2.056 0.763 3.339C10.272 22.132 11.572 23 12.997 23h6.006c1.425 0 2.725-0.868 3.234-2.161C22.743 19.558 23 18.435 23 17.5zM18 19c-0.552 0-1 0.448-1 1s0.448 1 1 1 1-0.448 1-1-0.448-1-1-1zM20 16c-0.552 0-1 0.448-1 1s0.448 1 1 1 1-0.448 1-1-0.448-1-1-1z" />
</svg>