<svg id="sandwich_alt_Layer_1" viewBox="0 0 24 24" fill="currentColor" width="32" height="32" data-name="Layer 1" xmlns="http://www.w3.org/2000/svg" xmlns:xlink="http://www.w3.org/1999/xlink">
    <title>sandwich-alt</title>
    <path d="M0.025 13.657c-0.087-0.262 0.056-0.545 0.317-0.632 0.326-0.108 0.707-0.474 1.072-1.031 0.843-1.282 2.327-1.282 3.17 0 0.852 1.297 1.979 1.297 2.83 0 0.843-1.282 2.327-1.282 3.17 0 0.852 1.297 1.979 1.297 2.83 0 0.843-1.282 2.327-1.282 3.17 0 0.852 1.297 1.979 1.297 2.83 0 0.843-1.282 2.327-1.282 3.17 0 0.372 0.565 0.742 0.922 1.072 1.031 0.262 0.086 0.405 0.369 0.318 0.631-0.069 0.21-0.265 0.343-0.475 0.343-0.052 0-0.105-8e-3-0.157-0.025-0.554-0.183-1.091-0.665-1.594-1.432-0.46-0.7-1.038-0.7-1.498 0-0.617 0.939-1.417 1.457-2.251 1.457s-1.634-0.518-2.251-1.457c-0.46-0.7-1.038-0.7-1.498 0-0.617 0.939-1.417 1.457-2.251 1.457s-1.634-0.518-2.251-1.457c-0.46-0.7-1.038-0.7-1.498 0-0.617 0.939-1.417 1.457-2.251 1.457s-1.634-0.518-2.251-1.457c-0.46-0.7-1.038-0.7-1.498 0-0.503 0.767-1.04 1.249-1.594 1.432-0.265 0.086-0.545-0.056-0.631-0.317zM24 18v0.5c0 1.93-1.57 3.5-3.5 3.5h-17C1.57 22 0 20.43 0 18.5V18c0-1.103 0.897-2 2-2h20c1.103 0 2 0.897 2 2zM23 18c0-0.551-0.449-1-1-1H2c-0.551 0-1 0.449-1 1v0.5C1 19.878 2.122 21 3.5 21h17c1.378 0 2.5-1.122 2.5-2.5zM24 6.5V7c0 1.103-0.897 2-2 2H2C0.897 9 0 8.103 0 7V6.5C0 4.57 1.57 3 3.5 3h17C22.43 3 24 4.57 24 6.5zM23 6.5C23 5.122 21.878 4 20.5 4h-17C2.122 4 1 5.122 1 6.5V7c0 0.551 0.449 1 1 1h20c0.551 0 1-0.449 1-1z" />
</svg>