<svg id="sandwich_Layer_1" viewBox="0 0 24 24" fill="currentColor" width="32" height="32" data-name="Layer 1" xmlns="http://www.w3.org/2000/svg" xmlns:xlink="http://www.w3.org/1999/xlink">
    <title>sandwich</title>
    <path d="M22.798 5.23 19.277 1.438c-1.286-1.384-3.317-1.816-5.056-1.081L2.742 5.227C1.076 5.934 0 7.56 0 9.37v1.13C0 11.878 1.121 13 2.5 13h19c1.379 0 2.5-1.122 2.5-2.5V8.292c0-1.139-0.427-2.227-1.202-3.062zM3.133 6.148l11.478-4.87c1.354-0.574 2.934-0.236 3.933 0.84l3.521 3.792c0.298 0.321 0.53 0.69 0.688 1.089H1.924c0.331-0.36 0.74-0.653 1.209-0.851zM23 10.5c0 0.827-0.673 1.5-1.5 1.5h-19C1.673 12 1 11.327 1 10.5V9.37C1 8.889 1.098 8.425 1.278 8h21.709C22.995 8.097 23 8.194 23 8.292zM21.5 19h-19C1.121 19 0 20.122 0 21.5S1.121 24 2.5 24h19c1.379 0 2.5-1.122 2.5-2.5S22.879 19 21.5 19zM21.5 23h-19C1.673 23 1 22.327 1 21.5S1.673 20 2.5 20h19c0.827 0 1.5 0.673 1.5 1.5S22.327 23 21.5 23zM24 17c0 0.276-0.224 0.5-0.5 0.5-0.125 0-0.239-0.046-0.326-0.122 0 0-1.067-0.903-1.313-1.093-0.49-0.38-1.229-0.379-1.722 0-1.232 0.954-3.045 0.954-4.277 0-0.492-0.379-1.23-0.379-1.723 0-1.232 0.954-3.045 0.954-4.277 0-0.492-0.379-1.23-0.379-1.723 0-1.232 0.954-3.045 0.954-4.277 0-0.492-0.379-1.23-0.379-1.723 0-0.245 0.19-1.312 1.093-1.312 1.093-0.196 0.17-0.493 0.162-0.68-0.025-0.195-0.195-0.195-0.512 0-0.707 0.034-0.034 1.168-0.987 1.38-1.152 0.856-0.659 2.094-0.659 2.946 0 0.881 0.681 2.174 0.681 3.055 0 0.854-0.659 2.092-0.66 2.945 0 0.881 0.681 2.174 0.681 3.055 0 0.854-0.659 2.092-0.66 2.945 0 0.881 0.681 2.174 0.681 3.055 0 0.854-0.659 2.092-0.66 2.945 0 0.212 0.164 1.014 0.85 1.268 1.067C23.896 16.646 24.001 16.81 24 17z" />
</svg>