<svg id="sanitary_pad_Layer_1" viewBox="0 0 24 24" fill="currentColor" width="32" height="32" data-name="Layer 1" xmlns="http://www.w3.org/2000/svg" xmlns:xlink="http://www.w3.org/1999/xlink">
    <title>sanitary-pad</title>
    <path d="M22.867 3.33c-1.213-1.865-3.152-3.065-5.319-3.291-2.165-0.225-4.292 0.527-5.831 2.068-0.174 0.175-0.337 0.358-0.492 0.547L8.889 2.115C7.368 1.761 5.8 2.214 4.695 3.318L3.319 4.694C2.215 5.798 1.765 7.367 2.116 8.888c0 0 0.543 2.326 0.547 2.34-0.602 0.492-1.13 1.085-1.566 1.768-1.467 2.3-1.452 5.384 0.036 7.673 1.347 2.083 3.636 3.338 6.076 3.332 1.899 0 3.715-0.748 5.075-2.108 0.182-0.183 0.351-0.375 0.511-0.573 0.778 0.181 2.593 0.715 3.341 0.682 1.177 0 2.313-0.463 3.17-1.32l1.376-1.376c1.104-1.104 1.554-2.672 1.203-4.194l-0.538-2.332c0 0-4e-3-7e-3-5e-3-0.012 0.6-0.492 1.127-1.083 1.562-1.765 1.467-2.299 1.453-5.383-0.037-7.673zM3.09 8.664C2.817 7.48 3.167 6.261 4.026 5.401l1.376-1.376c0.86-0.859 2.079-1.208 3.262-0.936l1.952 0.451c-0.168 0.285-0.323 0.577-0.451 0.885-0.842 2.027-3.341 4.861-5.424 5.618-0.422 0.153-0.819 0.353-1.199 0.578zM20.91 15.336c0.273 1.185-0.077 2.403-0.936 3.263l-1.376 1.376c-0.859 0.859-2.08 1.21-3.262 0.936l-1.953-0.45c0.168-0.285 0.323-0.577 0.451-0.886 0.842-2.027 3.341-4.861 5.424-5.618 0.422-0.153 0.819-0.353 1.199-0.579zM22.061 10.466c-0.765 1.2-1.852 2.082-3.143 2.551-2.425 0.881-5.063 3.903-6.007 6.175-0.31 0.746-0.759 1.417-1.335 1.994-1.325 1.327-3.157 1.975-5.02 1.781-1.866-0.195-3.537-1.231-4.585-2.843-1.279-1.967-1.292-4.615-0.032-6.591 0.765-1.199 1.852-2.081 3.143-2.55 2.425-0.881 5.064-3.903 6.007-6.175 0.31-0.746 0.759-1.417 1.335-1.994 1.322-1.329 3.174-1.978 5.019-1.781 1.866 0.195 3.538 1.23 4.585 2.842 1.279 1.967 1.292 4.616 0.033 6.591z" />
</svg>