<svg id="satellite_dish_Layer_1" viewBox="0 0 24 24" fill="currentColor" width="32" height="32" data-name="Layer 1" xmlns="http://www.w3.org/2000/svg" xmlns:xlink="http://www.w3.org/1999/xlink">
    <title>satellite-dish</title>
    <path d="M20 11v0.5c0 0.276-0.224 0.5-0.5 0.5S19 11.776 19 11.5V11c0-3.309-2.691-6-6-6h-0.5C12.224 5 12 4.776 12 4.5S12.224 4 12.5 4H13c3.86 0 7 3.141 7 7zM15.5 12c0.276 0 0.5-0.224 0.5-0.5V11c0-1.654-1.346-3-3-3h-0.5C12.224 8 12 8.224 12 8.5S12.224 9 12.5 9H13c1.103 0 2 0.897 2 2v0.5c0 0.276 0.224 0.5 0.5 0.5zM13 0h-0.5C12.224 0 12 0.224 12 0.5S12.224 1 12.5 1H13c5.514 0 10 4.486 10 10v0.5c0 0.276 0.224 0.5 0.5 0.5s0.5-0.224 0.5-0.5V11c0-6.065-4.935-11-11-11zM16.362 18.941c0.467 0.467 0.695 1.112 0.626 1.771-0.07 0.667-0.434 1.259-0.998 1.625-1.711 1.11-3.666 1.653-5.612 1.653-2.684 0-5.352-1.031-7.344-3.023-3.437-3.438-4.013-8.887-1.37-12.957 0.366-0.564 0.959-0.928 1.625-0.998 0.655-0.067 1.303 0.159 1.77 0.626l5.298 5.298 1.79-1.79c0.195-0.195 0.512-0.195 0.707 0s0.195 0.512 0 0.707l-1.79 1.79zM15.993 20.607c0.038-0.356-0.085-0.706-0.338-0.959L4.352 8.345C4.129 8.122 3.831 8 3.519 8 3 8 2.704 8.244 2.502 8.555 0.115 12.231 0.635 17.154 3.741 20.26c3.105 3.104 8.028 3.624 11.705 1.238 0.31-0.201 0.51-0.525 0.547-0.891z" />
</svg>