<svg id="satellite_Layer_1" viewBox="0 0 24 24" fill="currentColor" width="32" height="32" data-name="Layer 1" xmlns="http://www.w3.org/2000/svg" xmlns:xlink="http://www.w3.org/1999/xlink">
    <title>satellite</title>
    <path d="M18.902 10.488l3.981-3.981c1.485-1.486 1.485-3.904 0-5.391-1.486-1.486-3.904-1.486-5.391 0l-3.981 3.982-3.365-3.365c-0.946-0.945-2.593-0.943-3.535 0L3.754 4.59c-0.975 0.975-0.975 2.561 0 3.536l3.134 3.134c-1.933-0.472-4.023-0.251-5.838 0.771-0.565 0.319-0.94 0.876-1.03 1.529-0.091 0.67 0.129 1.328 0.605 1.804l3.653 3.653-1.131 1.131c-0.195 0.195-0.195 0.512 0 0.707 0.098 0.098 0.226 0.146 0.354 0.146s0.256-0.049 0.354-0.146l1.131-1.131 3.653 3.653c0.405 0.405 0.942 0.625 1.506 0.625 0.099 0 0.198-7e-3 0.298-0.021 0.652-0.089 1.21-0.465 1.529-1.031 1.022-1.813 1.245-3.902 0.772-5.835l3.143 3.143c0.473 0.472 1.101 0.732 1.768 0.732s1.296-0.26 1.768-0.732l2.857-2.857c0.975-0.975 0.975-2.561 0-3.536zM18.2 1.823c1.062-1.062 2.914-1.062 3.977 0 1.096 1.096 1.096 2.88 0 3.977l-9.91 9.91c-0.389-0.861-0.919-1.668-1.614-2.362-0.695-0.695-1.502-1.224-2.363-1.613zM4.461 5.296 7.318 2.439c0.566-0.566 1.555-0.566 2.121 0l3.365 3.365-4.978 4.979-3.365-3.365c-0.585-0.585-0.585-1.537 0-2.122zM11.1 22.458c-0.164 0.291-0.453 0.485-0.794 0.531-0.354 0.048-0.708-0.068-0.961-0.321l-8.013-8.013c-0.253-0.253-0.37-0.604-0.321-0.961 0.047-0.34 0.24-0.629 0.53-0.793 1.072-0.604 2.255-0.897 3.431-0.897 1.821 0 3.626 0.704 4.974 2.051 2.219 2.218 2.693 5.674 1.154 8.403zM21.572 16.693 18.715 19.55c-0.565 0.567-1.553 0.567-2.121 0l-3.376-3.376 4.979-4.979 3.376 3.376c0.585 0.585 0.585 1.537-1e-3 2.122z" />
</svg>