<svg id="satisfaction_bar_Layer_1" viewBox="0 0 24 24" fill="currentColor" width="32" height="32" data-name="Layer 1" xmlns="http://www.w3.org/2000/svg" xmlns:xlink="http://www.w3.org/1999/xlink">
    <title>satisfaction-bar</title>
    <path d="M24 19.5c0 0.276-0.224 0.5-0.5 0.5h-5c-0.276 0-0.5-0.224-0.5-0.5s0.224-0.5 0.5-0.5h5c0.276 0 0.5 0.224 0.5 0.5zM8 9c0.552 0 1-0.448 1-1S8.552 7 8 7 7 7.448 7 8 7.448 9 8 9zM4 9c0.552 0 1-0.448 1-1S4.552 7 4 7 3 7.448 3 8 3.448 9 4 9zM16 18.5v2c0 0.827-0.673 1.5-1.5 1.5S13 21.327 13 20.5V20H0.5C0.224 20 0 19.776 0 19.5S0.224 19 0.5 19H13v-0.5c0-0.827 0.673-1.5 1.5-1.5s1.5 0.673 1.5 1.5zM15 18.5c0-0.275-0.225-0.5-0.5-0.5S14 18.225 14 18.5v2c0 0.275 0.225 0.5 0.5 0.5s0.5-0.225 0.5-0.5zM0 9c0-3.309 2.691-6 6-6s6 2.691 6 6-2.691 6-6 6-6-2.691-6-6zM1 9c0 2.757 2.243 5 5 5s5-2.243 5-5-2.243-5-5-5-5 2.243-5 5zM20 9c0.552 0 1-0.448 1-1s-0.448-1-1-1-1 0.448-1 1 0.448 1 1 1zM16 9c0.552 0 1-0.448 1-1s-0.448-1-1-1-1 0.448-1 1 0.448 1 1 1zM12 9c0-3.309 2.691-6 6-6s6 2.691 6 6-2.691 6-6 6-6-2.691-6-6zM13 9c0 2.757 2.243 5 5 5s5-2.243 5-5-2.243-5-5-5-5 2.243-5 5zM15.646 10.318c-0.195 0.195-0.195 0.512 0 0.707 0.648 0.648 1.501 0.974 2.354 0.974s1.705-0.325 2.354-0.974c0.195-0.195 0.195-0.512 0-0.707s-0.512-0.195-0.707 0c-0.908 0.908-2.385 0.908-3.293 0-0.195-0.195-0.512-0.195-0.708 0zM3.646 11.681c0.195 0.195 0.512 0.195 0.707 0 0.88-0.879 2.413-0.879 3.293 0 0.195 0.195 0.512 0.195 0.707 0s0.195-0.512 0-0.707c-1.258-1.258-3.449-1.258-4.707 0-0.195 0.195-0.195 0.512 0 0.707z" />
</svg>