<svg id="saturday_Layer_1" viewBox="0 0 24 24" fill="currentColor" width="32" height="32" data-name="Layer 1" xmlns="http://www.w3.org/2000/svg" xmlns:xlink="http://www.w3.org/1999/xlink">
    <title>saturday</title>
    <path d="M24 16.5c0 0.276-0.224 0.5-0.5 0.5H22v6.5c0 0.276-0.224 0.5-0.5 0.5S21 23.776 21 23.5V17h-1.5c-0.276 0-0.5-0.224-0.5-0.5s0.224-0.5 0.5-0.5h4c0.276 0 0.5 0.224 0.5 0.5zM18.962 23.416c0.061 0.303-0.171 0.585-0.48 0.584-0.23-1e-3-0.428-0.164-0.475-0.389L17.677 22h-2.353l-0.321 1.594c-0.046 0.228-0.247 0.392-0.48 0.391h-0.018c-0.307-2e-3-0.536-0.283-0.475-0.583l1.267-6.317C15.377 16.687 15.855 16 16.492 16s1.11 0.658 1.203 1.116zM17.472 21l-0.756-3.687c-0.037-0.184-0.126-0.281-0.163-0.299-0.024-0.012-0.044-0.017-0.061-0.017-6e-3 0-0.026 0-0.055 0.017-0.075 0.044-0.139 0.149-0.162 0.266l-0.749 3.719zM11.373 19.532c-0.31-0.116-1.189-0.466-1.523-0.67-0.325-0.231-0.477-0.568-0.428-0.948 0.053-0.398 0.316-0.723 0.687-0.846 0.56-0.185 1.121-9e-3 1.768 0.553 0.209 0.181 0.524 0.158 0.706-0.051 0.181-0.208 0.158-0.524-0.05-0.705-0.914-0.792-1.835-1.045-2.736-0.746-0.739 0.244-1.262 0.882-1.366 1.665-0.097 0.753 0.208 1.443 0.88 1.917 0.492 0.306 1.587 0.721 1.699 0.763 1.051 0.425 1.013 1.203 0.976 1.432C11.882 22.536 11.317 23 10.644 23c-0.524 0-1.348-0.367-1.761-0.787-0.195-0.195-0.511-0.199-0.707-4e-3-0.197 0.193-0.199 0.51-5e-3 0.707C8.697 23.448 9.766 24 10.644 24c1.166 0 2.146-0.817 2.33-1.944 0.132-0.812-0.206-1.96-1.601-2.524zM24 6.5v7c0 0.276-0.224 0.5-0.5 0.5S23 13.776 23 13.5V9H1v10.5C1 21.43 2.57 23 4.5 23h1C5.776 23 6 23.224 6 23.5S5.776 24 5.5 24h-1C2.019 24 0 21.981 0 19.5v-13C0 4.019 2.019 2 4.5 2H6V0.5C6 0.224 6.224 0 6.5 0S7 0.224 7 0.5V2h10V0.5C17 0.224 17.224 0 17.5 0S18 0.224 18 0.5V2h1.5C21.981 2 24 4.019 24 6.5zM23 8V6.5C23 4.57 21.43 3 19.5 3h-15C2.57 3 1 4.57 1 6.5V8z" />
</svg>