<svg id="sax_hot_Layer_1" viewBox="0 0 24 24" fill="currentColor" width="32" height="32" data-name="Layer 1" xmlns="http://www.w3.org/2000/svg" xmlns:xlink="http://www.w3.org/1999/xlink">
    <title>sax-hot</title>
    <path d="M23.5 0H22c-1.103 0-2.063 0.708-2.388 1.761-0.145 0.468-0.318 1.054-0.514 1.727-0.341-0.104-0.579-0.173-0.773-0.229-0.256-0.074-0.432-0.125-0.671-0.207-0.263-0.088-0.545 0.05-0.635 0.313-0.089 0.261 0.052 0.545 0.312 0.634 0.256 0.086 0.442 0.141 0.715 0.22 0.193 0.056 0.431 0.125 0.774 0.229-0.117 0.406-0.239 0.835-0.365 1.281-0.08 0.235-0.184 0.547-0.306 0.922-0.111 0.339-0.25 0.762-0.412 1.243-0.4-0.123-0.669-0.2-0.883-0.262-0.258-0.075-0.433-0.125-0.674-0.208-0.262-0.091-0.545 0.05-0.635 0.312-0.089 0.261 0.051 0.545 0.312 0.634 0.256 0.087 0.442 0.142 0.718 0.222 0.205 0.059 0.46 0.133 0.837 0.248-1.263 3.623-3.459 9.159-5.413 9.159-1.103 0-2-0.897-2-2v-3.5c0-1.107 0.393-1.5 1.5-1.5 0.276 0 0.5-0.224 0.5-0.5s-0.224-0.5-0.5-0.5H0.5c-0.276 0-0.5 0.224-0.5 0.5s0.224 0.5 0.5 0.5c1.107 0 1.5 0.393 1.5 1.5v4.461C2 20.784 4.897 24 9.08 24c2.801 0 5.615-2.095 6.573-4.907 0.476-1.397 1.585-5.347 2.657-9.165 0.904-3.218 1.758-6.257 2.257-7.873 0.195-0.631 0.771-1.056 1.433-1.056h1.5c0.276 0 0.5-0.224 0.5-0.5S23.776-1e-3 23.5 0zM14.706 18.771c-0.82 2.408-3.345 4.253-5.756 4.228C5.669 22.951 3 20.242 3 16.961V12.5c0-0.612-0.115-1.112-0.342-1.5h6.685c-0.228 0.388-0.342 0.888-0.342 1.5V16c0 1.654 1.346 3 3 3 1.319 0 2.546-1.371 3.679-3.449-0.415 1.436-0.76 2.595-0.974 3.22zM1.124 7.611C1.042 7.25 1 6.877 1 6.5 1 5.223 1.835 3.985 2.333 3.36c0.204-0.257 0.52-0.384 0.854-0.355C3.516 3.04 3.8 3.235 3.948 3.528 4.124 3.881 4.211 4 4.366 4 4.463 3.903 4.508 3.334 4.537 2.958 4.593 2.252 4.662 1.375 5.061 0.639 5.237 0.315 5.547 0.09 5.914 0.022 6.295-0.051 6.679 0.055 6.973 0.304 9.684 2.61 11.001 4.637 11.001 6.5c0 0.376-0.042 0.75-0.124 1.111C10.824 7.843 10.618 8 10.39 8c-0.036 0-0.073-4e-3-0.111-0.013-0.269-0.061-0.438-0.329-0.376-0.598 0.065-0.288 0.099-0.587 0.099-0.889 0-1.531-1.237-3.36-3.677-5.435-0.062-0.054-0.14-0.075-0.228-0.061-0.049 9e-3-0.115 0.036-0.156 0.111-0.298 0.549-0.355 1.278-0.406 1.921C5.466 3.911 5.381 5 4.367 5 3.566 5 3.238 4.344 3.062 3.992 2.781 4.405 2.001 5.492 2.001 6.5c0 0.302 0.033 0.601 0.099 0.889 0.062 0.269-0.107 0.537-0.376 0.598-0.28 0.064-0.538-0.108-0.6-0.376zM6.351 5.673c0.288 0.374 0.648 1.021 0.648 1.352 0 0.552-0.448 1-1 1s-1-0.448-1-1c0-0.332 0.36-0.979 0.648-1.352C5.736 5.558 5.867 5.5 5.999 5.5s0.263 0.058 0.352 0.173zM9.08 24c0.029 0-0.029 0 0 0z" />
</svg>