<svg id="scale_comparison_alt_Layer_1" viewBox="0 0 24 24" fill="currentColor" width="32" height="32" data-name="Layer 1" xmlns="http://www.w3.org/2000/svg" xmlns:xlink="http://www.w3.org/1999/xlink">
    <title>scale-comparison-alt</title>
    <path d="M20 23.5c0 0.276-0.224 0.5-0.5 0.5h-15C4.224 24 4 23.776 4 23.5S4.224 23 4.5 23h7V3.128L5.633 1.724C5.496 1.69 5.361 1.692 5.23 1.714l0.9 2.227c0.104 0.256-0.02 0.548-0.276 0.651-0.062 0.025-0.125 0.037-0.188 0.037-0.198 0-0.385-0.118-0.463-0.312l-0.768-1.9-0.767 1.9C3.565 4.573 3.273 4.698 3.017 4.593 2.761 4.49 2.638 4.198 2.741 3.942L3.522 2.01c0.333-0.947 1.345-1.497 2.343-1.258L11.5 2.101V0.5C11.5 0.224 11.724 0 12 0s0.5 0.224 0.5 0.5v1.839l6.058 1.45c0.405 0.097 0.771 0.298 1.076 0.568 3e-3 1e-3 6e-3 0 9e-3 2e-3 0.141 0.058 0.234 0.175 0.278 0.308 0.146 0.183 0.276 0.38 0.367 0.601l0.995 2.414c0.105 0.255-0.017 0.547-0.272 0.653-0.062 0.025-0.127 0.038-0.19 0.038-0.196 0-0.383-0.117-0.462-0.31l-0.852-2.067-1.198 2.889c-0.08 0.192-0.266 0.309-0.462 0.309-0.064 0-0.129-0.012-0.191-0.038-0.255-0.106-0.376-0.398-0.271-0.653l1.45-3.499c-0.154-0.108-0.322-0.196-0.509-0.241L12.5 3.369v19.633h7c0.276 0 0.5 0.224 0.5 0.498zM4.5 17c-2.204 0-4.178-1.726-4.495-3.929 0 0-1e-3-0.288-3e-3-0.587-2e-3-0.425 0.087-0.845 0.259-1.233l0.275-0.618c0.104-0.255 0.395-0.379 0.651-0.276 0.256 0.104 0.379 0.395 0.276 0.651L1.062 12H7.95l-0.401-0.992c-0.104-0.256 0.02-0.547 0.276-0.651 0.257-0.104 0.547 0.02 0.651 0.276l0.275 0.634C8.915 11.644 9 12.051 9 12.463v0.538c-0.324 2.311-2.257 4-4.5 3.999zM4.5 16c1.697 0 3.217-1.312 3.494-3H1.006c0.279 1.688 1.8 3 3.494 3zM2.396 10.123c0.098 0.098 0.226 0.146 0.354 0.146s0.256-0.049 0.354-0.146L4.5 8.727l1.396 1.396c0.098 0.098 0.226 0.146 0.354 0.146s0.256-0.049 0.354-0.146c0.195-0.195 0.195-0.512 0-0.707L5.208 8.02 6.604 6.624c0.195-0.195 0.195-0.512 0-0.707s-0.512-0.195-0.707 0L4.501 7.313 3.105 5.917c-0.195-0.195-0.512-0.195-0.707 0s-0.195 0.512 0 0.707L3.794 8.02 2.398 9.416c-0.195 0.195-0.195 0.512-2e-3 0.707zM19.123 12h-3e-3c-0.168 0-0.327-0.068-0.445-0.188l-1.145-1.167c-0.194-0.197-0.511-0.201-0.707-7e-3-0.197 0.193-0.2 0.51-7e-3 0.707l1.145 1.167c0.307 0.313 0.716 0.486 1.154 0.489h9e-3c0.435 0 0.844-0.169 1.151-0.477l2.579-2.579c0.195-0.195 0.195-0.512 0-0.707s-0.512-0.195-0.707 0l-2.579 2.579c-0.119 0.119-0.276 0.184-0.445 0.183zM24 16c-0.324 2.311-2.257 4-4.5 4-2.204 0-4.183-1.726-4.5-3.929v-0.733c0-0.37 0.068-0.736 0.202-1.081l0.482-1.247c0.094-0.259 0.381-0.393 0.641-0.3 0.26 0.094 0.394 0.381 0.3 0.641l-0.598 1.65h6.945l-0.873-2.255c-0.1-0.258 0.028-0.547 0.286-0.647 0.257-0.1 0.547 0.028 0.647 0.286l0.749 1.841c0.146 0.359 0.221 0.743 0.221 1.13zM22.994 16h-6.988c0.279 1.688 1.8 3 3.494 3s3.217-1.312 3.494-3z" />
</svg>