<svg id="scale_comparison_Layer_1" viewBox="0 0 24 24" fill="currentColor" width="32" height="32" data-name="Layer 1" xmlns="http://www.w3.org/2000/svg" xmlns:xlink="http://www.w3.org/1999/xlink">
    <title>scale-comparison</title>
    <path d="M1.535 10.992c0.238 1e-3 0.443-0.166 0.49-0.399L2.346 9h2.359l0.328 1.597c0.046 0.226 0.245 0.389 0.476 0.39 0.309 2e-3 0.542-0.282 0.481-0.585L4.72 4.111C4.627 3.652 4.361 3.277 4.009 3.108 3.85 3.031 3.682 2.993 3.515 2.993c-0.194 0-0.386 0.052-0.561 0.155C2.63 3.339 2.398 3.682 2.318 4.08l-1.267 6.318c-0.062 0.307 0.172 0.593 0.484 0.594zM3.297 4.276C3.321 4.158 3.385 4.053 3.46 4.009 3.489 3.992 3.508 3.992 3.515 3.992c0.017 0 0.037 5e-3 0.061 0.017 0.037 0.018 0.126 0.115 0.164 0.299L4.499 8H2.547zM19.5 8h1C21.879 8 23 6.878 23 5.5c0-0.861-0.438-1.622-1.102-2.071C22.269 3.066 22.5 2.559 22.5 2c0-1.103-0.897-2-2-2h-1C18.673 0 18 0.673 18 1.5v5C18 7.327 18.673 8 19.5 8zM19 1.5C19 1.224 19.225 1 19.5 1h1c0.552 0 1 0.449 1 1s-0.448 1-1 1H19zM19 4h1.5C21.327 4 22 4.673 22 5.5S21.327 7 20.5 7h-1C19.225 7 19 6.776 19 6.5zM23.414 9.507l-23 4c-0.271 0.047-0.454 0.306-0.406 0.578C0.05 14.328 0.261 14.5 0.499 14.5c0.029 0 0.058-2e-3 0.087-7e-3l10.676-1.857-3.166 8.629c-0.205 0.708-0.072 1.495 0.346 2.052C8.768 23.751 9.24 24 9.735 24h4.531c0.495 0 0.967-0.249 1.293-0.683 0.418-0.557 0.551-1.344 0.335-2.085l-3.244-8.837 10.936-1.902c0.271-0.047 0.454-0.306 0.406-0.578-0.047-0.273-0.312-0.453-0.578-0.408zM14.759 22.716c-0.097 0.129-0.262 0.283-0.493 0.283H9.735c-0.231 0-0.396-0.154-0.493-0.283-0.23-0.307-0.303-0.767-0.195-1.14l2.954-8.049 2.943 8.016c0.118 0.406 0.046 0.867-0.185 1.173z" />
</svg>