<svg id="scale_Layer_1" viewBox="0 0 24 24" fill="currentColor" width="32" height="32" data-name="Layer 1" xmlns="http://www.w3.org/2000/svg" xmlns:xlink="http://www.w3.org/1999/xlink">
    <title>scale</title>
    <path d="M19.5 2h-3c-0.012 0-0.022 6e-3-0.034 7e-3C15.367 0.779 13.775 0 12 0S8.634 0.779 7.534 2.007C7.522 2.007 7.512 2 7.5 2h-3C2.019 2 0 4.019 0 6.5v13C0 21.981 2.019 24 4.5 24h15c2.481 0 4.5-2.019 4.5-4.5v-13C24 4.019 21.981 2 19.5 2zM12 1c2.757 0 5 2.243 5 5 0 0.552-0.448 1-1 1h-3.762l1.325-3.314c0.103-0.256-0.021-0.547-0.278-0.649-0.256-0.103-0.547 0.022-0.649 0.278l-1.474 3.686H8c-0.552 0-1-0.448-1-1 0-2.757 2.243-5 5-5.001zM23 19.5c0 1.93-1.57 3.5-3.5 3.5h-15C2.57 23 1 21.43 1 19.5v-13C1 4.57 2.57 3 4.5 3h2.312C6.299 3.884 6 4.907 6 6 6 7.103 6.897 8 8 8h8c1.103 0 2-0.897 2-2 0-1.093-0.299-2.116-0.812-3H19.5C21.43 3 23 4.57 23 6.5z" />
</svg>