<svg id="scalpel_Layer_1" viewBox="0 0 24 24" fill="currentColor" width="32" height="32" data-name="Layer 1" xmlns="http://www.w3.org/2000/svg" xmlns:xlink="http://www.w3.org/1999/xlink">
    <title>scalpel</title>
    <path d="M23.24 1.768c-0.979-0.982-2.688-0.982-3.666 0L0.148 21.272c-0.074 0.075-0.124 0.172-0.14 0.276-9e-3 0.057-0.075 0.567 0.281 0.983 0.18 0.21 0.531 0.461 1.178 0.461 0.52 0 0.906 0.01 1.145 0 1.814-0.072 3.579-0.484 5.246-1.225 2.634-1.17 4.359-3.199 5.129-6.033L23.24 5.44c1.008-1.012 1.008-2.66 0-3.672zM7.452 20.854c-1.551 0.689-3.192 1.072-4.88 1.139-0.307 0.015-0.538 0-1.104 0-0.202 0-0.354-0.04-0.416-0.109-0.018-0.019-0.029-0.041-0.037-0.064l8.478-8.512 2.484 2.328c-0.709 2.445-2.229 4.2-4.525 5.218zM22.531 4.736 12.526 14.781l-2.328-2.183 10.085-10.125c0.6-0.602 1.648-0.602 2.248 0 0.621 0.624 0.621 1.64 0 2.263z" />
</svg>