<svg id="scanner_gun_Layer_1" viewBox="0 0 24 24" fill="currentColor" width="32" height="32" data-name="Layer 1" xmlns="http://www.w3.org/2000/svg" xmlns:xlink="http://www.w3.org/1999/xlink">
    <title>scanner-gun</title>
    <path d="M16 0.5C16 0.224 16.224 0 16.5 0h7C23.776 0 24 0.224 24 0.5S23.776 1 23.5 1h-7C16.224 1 16 0.776 16 0.5zM23.5 20h-7c-0.276 0-0.5 0.224-0.5 0.5s0.224 0.5 0.5 0.5h7c0.276 0 0.5-0.224 0.5-0.5S23.776 20 23.5 20zM23.5 11h-7c-0.276 0-0.5 0.224-0.5 0.5s0.224 0.5 0.5 0.5h7c0.276 0 0.5-0.224 0.5-0.5S23.776 11 23.5 11zM23 4h-6c-0.553 0-1 0.448-1 1s0.447 1 1 1h6c0.553 0 1-0.448 1-1s-0.447-1-1-1zM23 7h-6c-0.553 0-1 0.448-1 1s0.447 1 1 1h6c0.553 0 1-0.448 1-1s-0.447-1-1-1zM23 16h-6c-0.553 0-1 0.448-1 1s0.447 1 1 1h6c0.553 0 1-0.448 1-1s-0.447-1-1-1zM23.5 14h-7c-0.276 0-0.5 0.224-0.5 0.5s0.224 0.5 0.5 0.5h7c0.276 0 0.5-0.224 0.5-0.5S23.776 14 23.5 14zM23.5 23h-7c-0.276 0-0.5 0.224-0.5 0.5s0.224 0.5 0.5 0.5h7c0.276 0 0.5-0.224 0.5-0.5S23.776 23 23.5 23zM14 6v5c0 1.103-0.897 2-2 2H8.859l-0.672 2H8.5C8.776 15 9 15.224 9 15.5S8.776 16 8.5 16H7.851l-1.973 5.873c-0.396 1.275-1.584 2.099-2.863 2.099-0.294 0-0.593-0.043-0.889-0.135-1.579-0.491-2.465-2.176-1.975-3.755l2.512-7.474C1.095 11.904 0 10.328 0 8.5 0 6.019 2.019 4 4.5 4H12c1.103 0 2 0.897 2 2zM7.805 13H4.5c-0.303 0-0.599-0.03-0.885-0.088l-2.513 7.477c-0.323 1.042 0.268 2.165 1.32 2.493 1.061 0.328 2.176-0.264 2.504-1.316zM13 6c0-0.551-0.448-1-1-1H4.5C2.57 5 1 6.57 1 8.5S2.57 12 4.5 12H12c0.552 0 1-0.449 1-1z" />
</svg>