<svg id="scanner_image_Layer_1" viewBox="0 0 24 24" fill="currentColor" width="32" height="32" data-name="Layer 1" xmlns="http://www.w3.org/2000/svg" xmlns:xlink="http://www.w3.org/1999/xlink">
    <title>scanner-image</title>
    <path d="M5 20c0 0.552-0.448 1-1 1s-1-0.448-1-1 0.448-1 1-1 1 0.448 1 1zM8 19c-0.552 0-1 0.448-1 1s0.448 1 1 1 1-0.448 1-1-0.448-1-1-1zM24 19.5v1c0 1.93-1.57 3.5-3.5 3.5h-17C1.57 24 0 22.43 0 20.5v-1C0 17.57 1.57 16 3.5 16h16.726L2.179 0.883C1.967 0.706 1.94 0.39 2.117 0.178c0.18-0.211 0.494-0.239 0.705-0.062-1e-3 1e-3 19.942 16.71 19.961 16.734C23.528 17.492 24 18.442 24 19.5zM23 19.5c0-1.379-1.121-2.5-2.5-2.5h-17C2.121 17 1 18.121 1 19.5v1C1 21.879 2.121 23 3.5 23h17c1.379 0 2.5-1.121 2.5-2.5z" />
</svg>