<svg id="scanner_keyboard_Layer_1" viewBox="0 0 24 24" fill="currentColor" width="32" height="32" data-name="Layer 1" xmlns="http://www.w3.org/2000/svg" xmlns:xlink="http://www.w3.org/1999/xlink">
    <title>scanner-keyboard</title>
    <path d="M19 0.5v13c0 0.276-0.224 0.5-0.5 0.5S18 13.776 18 13.5v-13C18 0.224 18.224 0 18.5 0S19 0.224 19 0.5zM20.5 0C20.224 0 20 0.224 20 0.5v13c0 0.276 0.224 0.5 0.5 0.5s0.5-0.224 0.5-0.5v-13C21 0.224 20.776 0 20.5 0zM8.5 4C8.776 4 9 3.776 9 3.5v-3C9 0.224 8.776 0 8.5 0S8 0.224 8 0.5v3C8 3.776 8.224 4 8.5 4zM12 4c0.552 0 1-0.448 1-1V1c0-0.552-0.448-1-1-1s-1 0.448-1 1v2c0 0.552 0.448 1 1 1zM15 0c-0.552 0-1 0.448-1 1v2.5c0 0.552 0.448 1 1 1s1-0.448 1-1V1c0-0.552-0.448-1-1-1zM23 0c-0.552 0-1 0.448-1 1v12c0 0.552 0.448 1 1 1s1-0.448 1-1V1c0-0.552-0.448-1-1-1zM16 9.5v11c0 1.93-1.57 3.5-3.5 3.5h-9C1.57 24 0 22.429 0 20.499v-11c0-1.93 1.57-3.5 3.5-3.5h9c1.93 0 3.5 1.571 3.5 3.501zM15 9.5C15 8.122 13.879 7 12.5 7h-9C2.121 7 1 8.121 1 9.499v11c0 1.378 1.121 2.5 2.5 2.5h9c1.379 0 2.5-1.121 2.5-2.499zM3.5 15C3.224 15 3 15.224 3 15.5v1C3 16.776 3.224 17 3.5 17S4 16.776 4 16.5v-1C4 15.224 3.776 15 3.5 15zM6.5 15C6.224 15 6 15.224 6 15.5v1C6 16.776 6.224 17 6.5 17S7 16.776 7 16.5v-1C7 15.224 6.776 15 6.5 15zM9.5 15C9.224 15 9 15.224 9 15.5v1C9 16.776 9.224 17 9.5 17s0.5-0.224 0.5-0.5v-1c0-0.276-0.224-0.5-0.5-0.5zM3.5 19C3.224 19 3 19.224 3 19.5v1C3 20.776 3.224 21 3.5 21S4 20.776 4 20.5v-1C4 19.224 3.776 19 3.5 19zM6.5 19C6.224 19 6 19.224 6 19.5v1C6 20.776 6.224 21 6.5 21S7 20.776 7 20.5v-1C7 19.224 6.776 19 6.5 19zM9.5 19C9.224 19 9 19.224 9 19.5v1C9 20.776 9.224 21 9.5 21s0.5-0.224 0.5-0.5v-1c0-0.276-0.224-0.5-0.5-0.5zM12.5 15c-0.276 0-0.5 0.224-0.5 0.5v1c0 0.276 0.224 0.5 0.5 0.5s0.5-0.224 0.5-0.5v-1c0-0.276-0.224-0.5-0.5-0.5zM12.5 19c-0.276 0-0.5 0.224-0.5 0.5v1c0 0.276 0.224 0.5 0.5 0.5s0.5-0.224 0.5-0.5v-1c0-0.276-0.224-0.5-0.5-0.5zM13 10.5v1c0 0.827-0.673 1.5-1.5 1.5h-7C3.673 13 3 12.327 3 11.5v-1C3 9.673 3.673 9 4.5 9h7c0.827 0 1.5 0.673 1.5 1.5zM12 10.5c0-0.276-0.224-0.5-0.5-0.5h-7C4.224 10 4 10.224 4 10.5v1C4 11.776 4.224 12 4.5 12h7c0.276 0 0.5-0.224 0.5-0.5z" />
</svg>