<svg id="scarecrow_Layer_1" viewBox="0 0 24 24" fill="currentColor" width="32" height="32" data-name="Layer 1" xmlns="http://www.w3.org/2000/svg" xmlns:xlink="http://www.w3.org/1999/xlink">
    <title>scarecrow</title>
    <path d="M23.5 9h-8.561C16.188 8.041 17 6.488 17 4.767V4h1.5C18.776 4 19 3.776 19 3.5S18.776 3 18.5 3h-1.536C16.721 1.306 15.26 0 13.5 0h-3C8.74 0 7.279 1.306 7.036 3H5.5C5.224 3 5 3.224 5 3.5S5.224 4 5.5 4H7v1c0 1.397 0.591 2.741 1.622 3.686C8.744 8.798 8.87 8.902 9 9H0.5C0.224 9 0 9.224 0 9.5S0.224 10 0.5 10H2v2.5C2 13.879 3.121 15 4.5 15H5v4.5C5 20.879 6.121 22 7.5 22h4v1.5c0 0.276 0.224 0.5 0.5 0.5s0.5-0.224 0.5-0.5V22h4c1.379 0 2.5-1.121 2.5-2.5V15h0.5c1.379 0 2.5-1.121 2.5-2.5V10h1.5c0.276 0 0.5-0.224 0.5-0.5S23.776 9 23.5 9zM10.5 1h3c1.208 0 2.218 0.86 2.45 2h-7.9c0.232-1.14 1.242-2 2.45-2zM8 5V4h8v1c0 2.209-1.791 4-4 4S8 7.209 8 5zM21 12.5c0 0.827-0.673 1.5-1.5 1.5h-1c-0.276 0-0.5 0.224-0.5 0.5v5c0 0.827-0.673 1.5-1.5 1.5h-9C6.673 21 6 20.327 6 19.5v-5C6 14.224 5.776 14 5.5 14h-1C3.673 14 3 13.327 3 12.5V10h18z" />
</svg>