<svg id="school_bus_Layer_1" viewBox="0 0 24 24" fill="currentColor" width="32" height="32" data-name="Layer 1" xmlns="http://www.w3.org/2000/svg" xmlns:xlink="http://www.w3.org/1999/xlink">
    <title>school-bus</title>
    <path d="M20.5 12H18V5.5C18 3.57 16.43 2 14.5 2h-11C1.57 2 0 3.57 0 5.5v11c0 1.274 0.961 2.316 2.193 2.469C2.069 19.298 2 19.644 2 20c0 1.654 1.346 3 3 3s3-1.346 3-3c0-0.344-0.064-0.68-0.18-1h8.359c-0.116 0.32-0.18 0.655-0.18 1 0 1.654 1.346 3 3 3s3-1.346 3-3c0-0.356-0.069-0.702-0.193-1.031 1.233-0.153 2.193-1.195 2.193-2.469v-1c0-1.93-1.57-3.5-3.499-3.5zM1 12V7h3v5zM5 7h3v5H5zM9 7h4v11H9zM14 7h3v5h-3zM3.5 3h11C15.879 3 17 4.121 17 5.5V6H1V5.5C1 4.121 2.122 3 3.5 3zM1 16.5V13h7v5H2.5C1.673 18 1 17.327 1 16.5zM7 20c0 1.103-0.897 2-2 2s-2-0.897-2-2c0-0.354 0.119-0.691 0.304-1h3.392C6.881 19.309 7 19.646 7 20zM19 22c-1.103 0-2-0.897-2-2 0-0.355 0.119-0.691 0.304-1h3.392C20.881 19.309 21 19.645 21 20c0 1.103-0.897 2-2 2zM23 16.5c0 0.827-0.673 1.5-1.5 1.5H14v-5h6.5c1.379 0 2.5 1.121 2.5 2.5z" />
</svg>