<svg id="school_Layer_1" viewBox="0 0 24 24" fill="currentColor" width="32" height="32" data-name="Layer 1" xmlns="http://www.w3.org/2000/svg" xmlns:xlink="http://www.w3.org/1999/xlink">
    <title>school</title>
    <path d="M19.5 6h-5.43l-0.3-0.291c-0.354-0.343-0.781-0.558-1.227-0.656l3.369-1.619C16.28 3.205 16.5 2.809 16.5 2.375s-0.22-0.831-0.641-1.089l-2.4-1.123C13.228 0.055 12.981 0 12.728 0 11.776 0 11 0.775 11 1.727v3.474c-0.277 0.12-0.539 0.285-0.77 0.508L9.93 6H4.5C2.019 6 0 8.019 0 10.5v10C0 22.43 1.57 24 3.5 24h17c1.93 0 3.5-1.57 3.5-3.5v-10C24 8.019 21.981 6 19.5 6zM19.5 7c1.758 0 3.204 1.308 3.449 3h-3.33c-0.913 0-1.778-0.35-2.435-0.985L15.102 7zM12 1.727C12 1.326 12.326 1 12.728 1c0.106 0 0.21 0.023 0.308 0.069l2.347 1.094c0.106 0.066 0.118 0.171 0.118 0.212 0 0.052-0.016 0.148-0.068 0.185l-3.432 1.646zM4.5 7h4.397L6.815 9.015C6.159 9.65 5.294 10 4.38 10H1.051C1.296 8.308 2.742 7 4.5 7zM14 23h-4v-6c0-1.103 0.897-2 2-2s2 0.897 2 2zM20.5 23H15v-6c0-1.654-1.346-3-3-3s-3 1.346-3 3v6H3.5C2.121 23 1 21.878 1 20.5V11h3.381c1.175 0 2.286-0.45 3.13-1.267l3.415-3.305c0.604-0.584 1.547-0.584 2.148 0l3.415 3.305C17.333 10.55 18.444 11 19.619 11H23v9.5c0 1.378-1.121 2.5-2.5 2.5zM7 15.5C7 15.776 6.776 16 6.5 16h-2C4.224 16 4 15.776 4 15.5S4.224 15 4.5 15h2C6.776 15 7 15.224 7 15.5zM7 19.5C7 19.776 6.776 20 6.5 20h-2C4.224 20 4 19.776 4 19.5S4.224 19 4.5 19h2C6.776 19 7 19.224 7 19.5zM20 15.5c0 0.276-0.224 0.5-0.5 0.5h-2c-0.276 0-0.5-0.224-0.5-0.5s0.224-0.5 0.5-0.5h2c0.276 0 0.5 0.224 0.5 0.5zM20 19.5c0 0.276-0.224 0.5-0.5 0.5h-2c-0.276 0-0.5-0.224-0.5-0.5s0.224-0.5 0.5-0.5h2c0.276 0 0.5 0.224 0.5 0.5zM13 10c0 0.552-0.448 1-1 1s-1-0.448-1-1 0.448-1 1-1 1 0.448 1 1z" />
</svg>