<svg id="school_circle_xmark_Layer_1" viewBox="0 0 24 24" fill="currentColor" width="32" height="32" data-name="Layer 1" xmlns="http://www.w3.org/2000/svg" xmlns:xlink="http://www.w3.org/1999/xlink">
    <title>school-circle-xmark</title>
    <path d="M10.5 23h-7C2.122 23 1 21.879 1 20.5V11h3.381c1.174 0 2.286-0.45 3.129-1.267l3.415-3.305c0.603-0.583 1.546-0.583 2.149 0l3.078 2.979c0.198 0.192 0.515 0.188 0.707-0.012 0.192-0.198 0.187-0.515-0.012-0.707L15.102 7h4.397c1.93 0 3.5 1.57 3.5 3.5 0 0.276 0.224 0.5 0.5 0.5s0.5-0.224 0.5-0.5c0-2.481-2.019-4.5-4.5-4.5h-5.43l-0.3-0.291c-0.354-0.343-0.781-0.557-1.228-0.655l3.37-1.619c0.79-0.48 0.784-1.674-0.053-2.148l-2.399-1.124C12.352-0.382 10.973 0.491 11 1.727v3.474c-0.277 0.119-0.54 0.285-0.77 0.508L9.93 6H4.5C2.019 6 0 8.019 0 10.5v10C0 22.43 1.57 24 3.5 24h7c0.276 0 0.5-0.224 0.5-0.5S10.776 23 10.5 23zM12 1.727c-0.011-0.52 0.569-0.889 1.035-0.658l2.347 1.094c0.162 0.127 0.148 0.274 0.05 0.397L12 4.206zM4.5 7h4.397L6.816 9.015C6.16 9.65 5.295 10 4.382 10H1.051C1.296 8.308 2.742 7 4.5 7zM7 15.5C7 15.776 6.776 16 6.5 16h-2C4.224 16 4 15.776 4 15.5S4.224 15 4.5 15h2C6.776 15 7 15.224 7 15.5zM7 19.5C7 19.776 6.776 20 6.5 20h-2C4.224 20 4 19.776 4 19.5S4.224 19 4.5 19h2C6.776 19 7 19.224 7 19.5zM12 9c0.552 0 1 0.448 1 1s-0.448 1-1 1-1-0.448-1-1 0.448-1 1-1zM17.5 11c-3.584 0-6.5 2.916-6.5 6.5s2.916 6.5 6.5 6.5 6.5-2.916 6.5-6.5-2.916-6.5-6.5-6.5zM17.5 23c-3.032 0-5.5-2.468-5.5-5.5s2.468-5.5 5.5-5.5 5.5 2.468 5.5 5.5-2.468 5.5-5.5 5.5zM20.354 15.354 18.208 17.5l2.146 2.146c0.195 0.195 0.195 0.512 0 0.707s-0.512 0.195-0.707 0l-2.146-2.146-2.146 2.146c-0.195 0.195-0.512 0.195-0.707 0s-0.195-0.512 0-0.707l2.146-2.146-2.146-2.146c-0.195-0.195-0.195-0.512 0-0.707s0.512-0.195 0.707 0l2.146 2.146 2.146-2.146c0.195-0.195 0.512-0.195 0.707 0s0.195 0.512 0 0.707z" />
</svg>