<svg id="school_circle_chek_Layer_1" viewBox="0 0 24 24" fill="currentColor" width="32" height="32" data-name="Layer 1" xmlns="http://www.w3.org/2000/svg" xmlns:xlink="http://www.w3.org/1999/xlink">
    <title>school-circle-chek</title>
    <path d="M10.5 23h-7C2.121 23 1 21.879 1 20.5V11h3.381c1.175 0 2.286-0.45 3.13-1.267l3.415-3.305c0.604-0.584 1.547-0.584 2.148 0l3.078 2.979c0.198 0.192 0.514 0.188 0.707-0.012 0.192-0.198 0.187-0.515-0.012-0.707L15.102 7h4.397c1.93 0 3.5 1.57 3.5 3.5 0 0.276 0.224 0.5 0.5 0.5s0.5-0.224 0.5-0.5c0-2.481-2.019-4.5-4.5-4.5h-5.43l-0.3-0.291c-0.354-0.343-0.781-0.558-1.227-0.656l3.369-1.619c0.79-0.48 0.784-1.674-0.053-2.148l-2.399-1.123C12.352-0.382 10.974 0.491 11 1.727v3.474c-0.277 0.12-0.539 0.285-0.77 0.508L9.93 6H4.5C2.019 6 0 8.019 0 10.5v10C0 22.43 1.57 24 3.5 24h7c0.276 0 0.5-0.224 0.5-0.5S10.776 23 10.5 23zM12 1.727c-0.011-0.52 0.569-0.889 1.035-0.658l2.347 1.094c0.162 0.127 0.148 0.274 0.05 0.397L12 4.206zM4.5 7h4.397L6.815 9.015C6.159 9.65 5.294 10 4.38 10H1.051C1.296 8.308 2.742 7 4.5 7zM7 15.5C7 15.776 6.776 16 6.5 16h-2C4.224 16 4 15.776 4 15.5S4.224 15 4.5 15h2C6.776 15 7 15.224 7 15.5zM7 19.5C7 19.776 6.776 20 6.5 20h-2C4.224 20 4 19.776 4 19.5S4.224 19 4.5 19h2C6.776 19 7 19.224 7 19.5zM12 9c0.552 0 1 0.448 1 1s-0.448 1-1 1-1-0.448-1-1 0.448-1 1-1zM17.5 11c-3.584 0-6.5 2.916-6.5 6.5s2.916 6.5 6.5 6.5 6.5-2.916 6.5-6.5-2.916-6.5-6.5-6.5zM17.5 23c-3.032 0-5.5-2.468-5.5-5.5s2.468-5.5 5.5-5.5 5.5 2.468 5.5 5.5-2.468 5.5-5.5 5.5zM20.85 16.143c0.192 0.198 0.187 0.515-0.012 0.707l-2.703 2.614c-0.72 0.711-1.899 0.71-2.622 2e-3l-1.364-1.347c-0.196-0.193-0.198-0.51-4e-3-0.707 0.193-0.195 0.51-0.198 0.707-4e-3l1.362 1.345c0.336 0.329 0.886 0.327 1.222-4e-3l2.707-2.618c0.198-0.191 0.517-0.187 0.707 0.012z" />
</svg>