<svg id="science_podcast_Layer_1" viewBox="0 0 24 24" fill="currentColor" width="32" height="32" data-name="Layer 1" xmlns="http://www.w3.org/2000/svg" xmlns:xlink="http://www.w3.org/1999/xlink">
    <title>science-podcast</title>
    <path d="M5.5 1H7v11c0 2.757 2.243 5 5 5s5-2.243 5-5V1h1.5C18.776 1 19 0.776 19 0.5S18.776 0 18.5 0h-13C5.224 0 5 0.224 5 0.5S5.224 1 5.5 1zM12 16c-2.206 0-4-1.794-4-4V7h8v5c0 2.206-1.794 4-4 4zM16 6H8V1h8zM22 12.559c2e-3 5.227-4.274 9.475-9.5 9.441v1.5c0 0.276-0.224 0.5-0.5 0.5s-0.5-0.224-0.5-0.5V22c-5.226 0.034-9.502-4.215-9.5-9.441V12c0-0.276 0.224-0.5 0.5-0.5S3 11.724 3 12v0.559C3 17.213 6.787 21 11.441 21h1.117c4.655 0 8.441-3.787 8.441-8.441 0-0.276 0.224-0.5 0.5-0.5s0.5 0.224 0.501 0.5z" />
</svg>