<svg id="scone_Layer_1" viewBox="0 0 24 24" fill="currentColor" width="32" height="32" data-name="Layer 1" xmlns="http://www.w3.org/2000/svg" xmlns:xlink="http://www.w3.org/1999/xlink">
    <title>scone</title>
    <path d="M12 7c0-0.552 0.448-1 1-1s1 0.448 1 1-0.448 1-1 1-1-0.448-1-1zM16 5c0.552 0 1-0.448 1-1s-0.448-1-1-1-1 0.448-1 1 0.448 1 1 1zM23 16.499c0 0 0 0 0 1e-3v2c0 3.033-2.468 5.5-5.5 5.5h-11C3.468 24 1 21.533 1 18.5v-1.862c-0.637-0.531-1-1.385-1-2.138 0-1.238 0.905-2.269 2.089-2.466C1.419 11.396 1 10.496 1 9.5v-3C1 2.916 3.916 0 7.5 0h9C20.084 0 23 2.916 23 6.5v3c0 0.996-0.418 1.896-1.089 2.534C23.095 12.231 24 13.261 24 14.5c0 0.816-0.393 1.542-1 1.999zM4.5 12h15c1.379 0 2.5-1.122 2.5-2.5v-3C22 3.467 19.532 1 16.5 1h-9C4.468 1 2 3.467 2 6.5v3C2 10.878 3.121 12 4.5 12zM22 16.95C21.838 16.983 21.671 17 21.5 17h-1c-0.44 0-0.882 0.123-1.274 0.354-0.489 0.29-0.942 0.615-1.347 0.966-1.005 0.871-2.543 0.855-3.583-0.034-0.566-0.481-1.303-0.586-1.901-0.293-0.732 0.359-1.41 0.808-2.016 1.334-0.515 0.447-1.146 0.67-1.774 0.67s-1.253-0.222-1.763-0.665c-1.299-1.132-2.149-1.873-4.791-2.205-0.017-3e-3-0.034-7e-3-0.051-0.01V18.5C2 20.981 4.019 23 6.5 23h11c2.481 0 4.5-2.019 4.5-4.5zM23 14.5c0-0.827-0.673-1.5-1.5-1.5h-19C1.673 13 1 13.673 1 14.5c0 0.696 0.479 1.521 1.194 1.637 2.925 0.368 3.952 1.263 5.304 2.44 0.642 0.559 1.579 0.557 2.225-5e-3 0.671-0.583 1.421-1.08 2.231-1.477 0.955-0.47 2.118-0.31 2.963 0.406 0.696 0.596 1.674 0.612 2.306 0.064 0.449-0.391 0.952-0.752 1.494-1.072C19.265 16.17 19.881 16 20.5 16h1c0.827 0 1.5-0.673 1.5-1.5z" />
</svg>