<svg id="score_board_Layer_1" viewBox="0 0 24 24" fill="currentColor" width="32" height="32" data-name="Layer 1" xmlns="http://www.w3.org/2000/svg" xmlns:xlink="http://www.w3.org/1999/xlink">
    <title>score-board</title>
    <path d="M8 17.5v-1C8 15.673 7.327 15 6.5 15H5c-0.552 0-1-0.449-1-1v-2c0-0.551 0.448-1 1-1h3.5C8.776 11 9 11.224 9 11.5S8.776 12 8.5 12H5v2h1.5C7.879 14 9 15.122 9 16.5v1C9 18.878 7.879 20 6.5 20S4 18.878 4 17.5C4 17.224 4.224 17 4.5 17S5 17.224 5 17.5C5 18.327 5.673 19 6.5 19S8 18.327 8 17.5zM24 6.5v13c0 2.481-2.019 4.5-4.5 4.5h-15C2.019 24 0 21.981 0 19.5v-13C0 4.019 2.019 2 4.5 2H6V0.5C6 0.224 6.224 0 6.5 0S7 0.224 7 0.5V2h10V0.5C17 0.224 17.224 0 17.5 0S18 0.224 18 0.5V2h1.5C21.981 2 24 4.019 24 6.5zM11.5 8H1v11.5C1 21.43 2.57 23 4.5 23h7zM23 8H12.5v15h7c1.93 0 3.5-1.57 3.5-3.5zM23 6.5C23 4.57 21.43 3 19.5 3h-15C2.57 3 1 4.57 1 6.5V7h22zM15 17.5v-4c0-1.378 1.121-2.5 2.5-2.5s2.5 1.122 2.5 2.5v4c0 1.378-1.121 2.5-2.5 2.5S15 18.878 15 17.5zM16 17.5c0 0.827 0.673 1.5 1.5 1.5s1.5-0.673 1.5-1.5v-4c0-0.827-0.673-1.5-1.5-1.5S16 12.673 16 13.5z" />
</svg>