<svg id="screencast_Layer_1" viewBox="0 0 24 24" fill="currentColor" width="32" height="32" data-name="Layer 1" xmlns="http://www.w3.org/2000/svg" xmlns:xlink="http://www.w3.org/1999/xlink">
    <title>screencast</title>
    <path d="M24 6.5v11c0 2.481-2.019 4.5-4.5 4.5h-5c-0.276 0-0.5-0.224-0.5-0.5s0.224-0.5 0.5-0.5h5c1.93 0 3.5-1.57 3.5-3.5v-11C23 4.57 21.43 3 19.5 3h-15C2.57 3 1 4.57 1 6.5v1C1 7.776 0.776 8 0.5 8S0 7.776 0 7.5v-1C0 4.019 2.019 2 4.5 2h15C21.981 2 24 4.019 24 6.5zM1 20c-0.552 0-1 0.448-1 1s0.448 1 1 1 1-0.448 1-1-0.448-1-1-1zM0.5 15C0.224 15 0 15.224 0 15.5S0.224 16 0.5 16C3.533 16 6 18.467 6 21.5 6 21.776 6.224 22 6.5 22S7 21.776 7 21.5C7 17.916 4.084 15 0.5 15zM0.547 10c-0.276 0-0.5 0.224-0.5 0.5s0.224 0.5 0.5 0.5C6.311 11 11 15.71 11 21.5c0 0.276 0.224 0.5 0.5 0.5s0.5-0.224 0.5-0.5C12 15.159 6.862 10 0.547 10z" />
</svg>