<svg id="screw_Layer_1" viewBox="0 0 24 24" fill="currentColor" width="32" height="32" data-name="Layer 1" xmlns="http://www.w3.org/2000/svg" xmlns:xlink="http://www.w3.org/1999/xlink">
    <title>screw</title>
    <path d="M16.086 0H7.914C6.858 0 6 0.858 6 1.914 6 2.425 6.199 2.906 6.561 3.268L9 5.707v13.636c0 1.657 0.697 2.56 1.318 3.182l1.329 1.329C11.745 23.952 11.873 24 12.001 24s0.256-0.049 0.354-0.146l1.329-1.329c0.85-0.85 1.318-1.979 1.318-3.182V5.707c0 0 2.439-2.439 2.439-2.439 0.361-0.361 0.561-0.842 0.561-1.354 0-1.056-0.858-1.914-1.916-1.914zM14 17.59l-1.508 1.563c-0.192 0.199-0.186 0.515 0.013 0.707 0.097 0.094 0.222 0.14 0.347 0.14 0.131 0 0.262-0.051 0.36-0.153L14 19.03v0.313c0 0.935-0.364 1.813-1.025 2.475L12 22.793l-0.975-0.975c-0.476-0.476-0.792-1.068-0.934-1.71L14 16.056zM14 14.616l-4 4.146v-1.578l4-4.146zM14 11.598l-4 4.146v-1.56l4-4.146zM14 8.598l-4 4.146v-1.719l4-4zM10 9.611V6h3.611zM16.732 2.561 14.293 5H9.707L7.268 2.561C7.098 2.391 7 2.155 7 1.915 7 1.411 7.41 1.001 7.914 1.001h8.172C16.59 1.001 17 1.411 17 1.915c0 0.241-0.098 0.477-0.268 0.646z" />
</svg>