<svg id="screen_recorder_Layer_1" viewBox="0 0 24 24" fill="currentColor" width="32" height="32" data-name="Layer 1" xmlns="http://www.w3.org/2000/svg" xmlns:xlink="http://www.w3.org/1999/xlink">
    <title>screen-recorder</title>
    <path d="M20 8c2.206 0 4-1.794 4-4s-1.794-4-4-4-4 1.794-4 4 1.794 4 4 4zM20 1c1.654 0 3 1.346 3 3s-1.346 3-3 3-3-1.346-3-3 1.346-3 3-3zM24 9.5v6c0 2.481-2.019 4.5-4.5 4.5h-7v3h5c0.276 0 0.5 0.224 0.5 0.5S17.776 24 17.5 24h-11C6.224 24 6 23.776 6 23.5S6.224 23 6.5 23h5v-3h-7C2.019 20 0 17.981 0 15.5v-9C0 4.019 2.019 2 4.5 2h9C13.776 2 14 2.224 14 2.5S13.776 3 13.5 3h-9C2.57 3 1 4.57 1 6.5v9C1 17.43 2.57 19 4.5 19h15c1.93 0 3.5-1.57 3.5-3.5v-6C23 9.224 23.224 9 23.5 9S24 9.224 24 9.5zM12.728 9.78l-0.95 0.701C11.387 9.61 10.515 8.999 9.5 8.999h-4c-1.378 0-2.5 1.121-2.5 2.5v3c0 1.379 1.122 2.5 2.5 2.5h4c1.015 0 1.888-0.611 2.279-1.482l0.95 0.702c0.251 0.186 0.547 0.279 0.845 0.279 0.764 0.013 1.444-0.656 1.427-1.426v-4.146c0-0.541-0.3-1.028-0.783-1.272-0.482-0.245-1.053-0.195-1.49 0.126zM9.5 16h-4C4.673 16 4 15.327 4 14.5v-3C4 10.673 4.673 10 5.5 10h4c0.827 0 1.5 0.673 1.5 1.5v3c0 0.827-0.673 1.5-1.5 1.5zM13.767 10.547c0.07 0.035 0.233 0.144 0.233 0.38v4.146c0 0.236-0.164 0.344-0.234 0.38-0.07 0.035-0.255 0.103-0.444-0.038L12 14.437v-2.876l1.322-0.976c0.19-0.141 0.374-0.073 0.445-0.038z" />
</svg>