<svg id="screen_Layer_1" viewBox="0 0 24 24" fill="currentColor" width="32" height="32" data-name="Layer 1" xmlns="http://www.w3.org/2000/svg" xmlns:xlink="http://www.w3.org/1999/xlink">
    <title>screen</title>
    <path d="M19.5 2h-15C2.019 2 0 4.019 0 6.5v8C0 16.981 2.019 19 4.5 19h7v2h-4C7.224 21 7 21.224 7 21.5S7.224 22 7.5 22h9c0.276 0 0.5-0.224 0.5-0.5S16.776 21 16.5 21h-4v-2h7c2.481 0 4.5-2.019 4.5-4.5v-8C24 4.019 21.981 2 19.5 2zM23 14.5c0 1.93-1.57 3.5-3.5 3.5h-15C2.57 18 1 16.43 1 14.5v-8C1 4.57 2.57 3 4.5 3h15C21.43 3 23 4.57 23 6.5z" />
</svg>