<svg id="screen_share_Layer_1" viewBox="0 0 24 24" fill="currentColor" width="32" height="32" data-name="Layer 1" xmlns="http://www.w3.org/2000/svg" xmlns:xlink="http://www.w3.org/1999/xlink">
    <title>screen-share</title>
    <path d="M22 16.051V7.5C22 5.019 19.981 3 17.5 3h-11C4.019 3 2 5.019 2 7.5v8.551c-1.14 0.232-2 1.242-2 2.449 0 1.378 1.122 2.5 2.5 2.5h19c1.378 0 2.5-1.122 2.5-2.5 0-1.207-0.86-2.217-2-2.449zM3 7.5C3 5.57 4.57 4 6.5 4h11C19.43 4 21 5.57 21 7.5V16h-5.5c-0.133 0-0.26 0.053-0.354 0.146L14.292 17H9.706l-0.854-0.854C8.758 16.052 8.631 16 8.498 16H3zM21.5 20h-19C1.673 20 1 19.327 1 18.5S1.673 17 2.5 17h5.793l0.854 0.854C9.241 17.948 9.368 18 9.501 18h5c0.133 0 0.26-0.053 0.354-0.146L15.709 17h5.793c0.827 0 1.5 0.673 1.5 1.5S22.329 20 21.5 20zM8.191 9.898c-0.195-0.195-0.195-0.512 0-0.707l2.756-2.756c0.58-0.58 1.524-0.58 2.105 0l2.756 2.757c0.195 0.195 0.195 0.512 0 0.707-0.098 0.098-0.226 0.146-0.354 0.146S15.198 9.996 15.1 9.899l-2.602-2.602v6.204c0 0.276-0.224 0.5-0.5 0.5s-0.5-0.224-0.5-0.5V7.296L8.896 9.898c-0.195 0.195-0.512 0.195-0.705 0z" />
</svg>