<svg id="screen_shield_Layer_1" viewBox="0 0 24 24" fill="currentColor" width="32" height="32" data-name="Layer 1" xmlns="http://www.w3.org/2000/svg" xmlns:xlink="http://www.w3.org/1999/xlink">
    <title>screen-shield</title>
    <path d="M19.5 2C19.224 2 19 2.224 19 2.5S19.224 3 19.5 3C21.43 3 23 4.57 23 6.5V15H1V6.5C1 4.57 2.57 3 4.5 3 4.776 3 5 2.776 5 2.5S4.776 2 4.5 2C2.019 2 0 4.019 0 6.5v9C0 17.981 2.019 20 4.5 20h7v3h-5C6.224 23 6 23.224 6 23.5S6.224 24 6.5 24h11c0.276 0 0.5-0.224 0.5-0.5S17.776 23 17.5 23h-5v-3h7c2.481 0 4.5-2.019 4.5-4.5v-9C24 4.019 21.981 2 19.5 2zM19.5 19h-15c-1.758 0-3.204-1.308-3.449-3h21.898c-0.245 1.692-1.691 3-3.449 3zM11.553 13.335c0.267 0.189 0.584 0.202 0.866 0.035 1.192-0.48 5.08-2.363 5.08-6.458v-3.31c1e-3-1.08-0.687-2.033-1.712-2.373l-3.63-1.204c-0.102-0.034-0.213-0.034-0.314 0L8.214 1.229C7.189 1.568 6.501 2.522 6.501 3.602v3.312c-1e-3 3.614 3.867 5.83 5.052 6.421zM7.5 3.602c0-0.648 0.413-1.22 1.028-1.423L12 1.028l3.472 1.151C16.087 2.383 16.5 2.955 16.5 3.603v3.312c-1e-3 3.467-3.41 5.109-4.455 5.53l-0.023 9e-3L12 12.443c-1.056-0.528-4.501-2.487-4.501-5.528z" />
</svg>