<svg id="scroll_Layer_1" viewBox="0 0 24 24" fill="currentColor" width="32" height="32" data-name="Layer 1" xmlns="http://www.w3.org/2000/svg" xmlns:xlink="http://www.w3.org/1999/xlink">
    <title>scroll</title>
    <path d="M21 18h-1V3.5C20 1.57 18.43 0 16.5 0H3C1.346 0 0 1.346 0 3s1.346 3 3 3h2v15c0 1.654 1.346 3 3 3h13c1.654 0 3-1.346 3-3s-1.346-3-3-3zM5 5H3C1.897 5 1 4.103 1 3s0.897-2 2-2 2 0.897 2 2zM8 23c-1.103 0-2-0.897-2-2V3c0-0.768-0.29-1.469-0.766-2H16.5C17.878 1 19 2.122 19 3.5V18h-6c-1.654 0-3 1.346-3 3 0 1.103-0.897 2-2 2zM21 23H10.234C10.71 22.469 11 21.768 11 21c0-1.103 0.897-2 2-2h8c1.103 0 2 0.897 2 2s-0.897 2-2 2z" />
</svg>