<svg id="scroll_torah_Layer_1" viewBox="0 0 24 24" fill="currentColor" width="32" height="32" data-name="Layer 1" xmlns="http://www.w3.org/2000/svg" xmlns:xlink="http://www.w3.org/1999/xlink">
    <title>scroll-torah</title>
    <path d="M21.5 0c-1.208 0-2.217 0.86-2.449 2H4.949C4.717 0.86 3.707 0 2.5 0 1.121 0 0 1.122 0 2.5v19C0 22.878 1.121 24 2.5 24c1.208 0 2.217-0.86 2.449-2H19.05c0.232 1.14 1.242 2 2.449 2 1.379 0 2.5-1.122 2.5-2.5v-19c0-1.378-1.121-2.5-2.499-2.5zM2.5 23C1.673 23 1 22.327 1 21.5v-19C1 1.673 1.673 1 2.5 1S4 1.673 4 2.5v19C4 22.327 3.327 23 2.5 23zM5 3h14v18H5zM23 21.5c0 0.827-0.673 1.5-1.5 1.5S20 22.327 20 21.5v-19C20 1.673 20.673 1 21.5 1S23 1.673 23 2.5z" />
    <path d="M17.92 9.261c-0.088-0.158-0.255-0.255-0.436-0.255h-3.373L12.427 6.24c-0.182-0.298-0.672-0.298-0.854 0L9.889 9.006H6.516c-0.181 0-0.348 0.098-0.436 0.255-0.089 0.157-0.086 0.351 9e-3 0.505l1.67 2.738-1.67 2.741c-0.095 0.154-0.098 0.348-9e-3 0.505 0.088 0.157 0.255 0.255 0.436 0.255h3.378l1.68 2.755c0.091 0.149 0.252 0.24 0.427 0.24s0.336-0.091 0.427-0.24l1.68-2.755h3.378c0.181 0 0.348-0.098 0.436-0.255 0.089-0.158 0.086-0.351-9e-3-0.505l-1.67-2.741 1.67-2.738c0.095-0.154 0.098-0.348 7e-3-0.505zM12 7.462l0.94 1.544h-1.881zM13.549 10.006l1.521 2.498-1.526 2.502h-3.09l-1.526-2.502 1.521-2.498zM7.406 10.006H9.28l-0.936 1.537zM7.406 15.006l0.939-1.541 0.94 1.541zM12.001 17.54l-0.935-1.534h1.871zM16.596 15.006h-1.878l0.94-1.541zM15.658 11.543l-0.936-1.537h1.874z" />
</svg>