<svg id="sculpture_Layer_1" viewBox="0 0 24 24" fill="currentColor" width="32" height="32" data-name="Layer 1" xmlns="http://www.w3.org/2000/svg" xmlns:xlink="http://www.w3.org/1999/xlink">
    <title>sculpture</title>
    <path d="M20.918 15.935c-0.206-0.771-0.766-1.382-1.536-1.677-1.618-0.618-3.689-0.945-4.956-1.1C16.57 11.631 18 8.344 18 6c0-3.309-2.691-6-6-6S6 2.691 6 6c0 2.344 1.43 5.63 3.573 7.157-1.241 0.152-3.327 0.479-4.955 1.101-0.77 0.294-1.33 0.905-1.536 1.676-0.205 0.767-0.028 1.567 0.483 2.196 1.043 1.281 2.316 2.966 3.344 4.869H5.5c-0.276 0-0.5 0.224-0.5 0.5s0.224 0.5 0.5 0.5h13c0.276 0 0.5-0.224 0.5-0.5s-0.224-0.5-0.5-0.5h-1.409c1.028-1.902 2.3-3.587 3.343-4.869 0.513-0.629 0.689-1.429 0.484-2.195zM7 6c0-2.757 2.243-5 5-5s5 2.243 5 5-2.24 7-5 7-5-4.236-5-7zM19.658 17.5c-1.158 1.422-2.602 3.325-3.705 5.5H8.046c-1.104-2.178-2.548-4.079-3.706-5.5-0.117-0.144-0.195-0.304-0.252-0.47C5.641 18.07 8.936 20 11.999 20c1.533 0 3.289-0.477 5.219-1.416 0.248-0.121 0.352-0.42 0.23-0.668-0.12-0.249-0.423-0.35-0.668-0.231C14.988 18.558 13.379 19 11.999 19c-3.154 0-6.671-2.303-7.823-3.124 0.168-0.307 0.446-0.549 0.799-0.684 1.692-0.647 4.03-0.965 4.929-1.069l2.066-0.124 2.097 0.122c0.927 0.107 3.264 0.424 4.957 1.071 0.467 0.179 0.806 0.543 0.928 1.001 0.12 0.453 0.014 0.93-0.294 1.307z" />
</svg>