<svg id="sd_card_Layer_1" viewBox="0 0 24 24" fill="currentColor" width="32" height="32" data-name="Layer 1" xmlns="http://www.w3.org/2000/svg" xmlns:xlink="http://www.w3.org/1999/xlink">
    <title>sd-card</title>
    <path d="M16.5 0h-6.343C8.955 0 7.824 0.468 6.974 1.318L4.318 3.975C3.48 4.813 3 5.973 3 7.157V19.5C3 21.981 5.019 24 7.5 24h9c2.481 0 4.5-2.019 4.5-4.5v-15C21 2.019 18.981 0 16.5 0zM20 19.5c0 1.93-1.57 3.5-3.5 3.5h-9C5.57 23 4 21.43 4 19.5V7.157c0-0.921 0.374-1.823 1.025-2.475l2.656-2.657C8.342 1.364 9.221 1 10.157 1H16.5C18.43 1 20 2.57 20 4.5zM18 3.5v3C18 6.776 17.776 7 17.5 7S17 6.776 17 6.5v-3C17 3.224 17.224 3 17.5 3S18 3.224 18 3.5zM16 3.5v3C16 6.776 15.776 7 15.5 7S15 6.776 15 6.5v-3C15 3.224 15.224 3 15.5 3S16 3.224 16 3.5zM14 3.5v3C14 6.776 13.776 7 13.5 7S13 6.776 13 6.5v-3C13 3.224 13.224 3 13.5 3S14 3.224 14 3.5zM12 3.5v3C12 6.776 11.776 7 11.5 7S11 6.776 11 6.5v-3C11 3.224 11.224 3 11.5 3S12 3.224 12 3.5zM10 3.5v3C10 6.776 9.776 7 9.5 7S9 6.776 9 6.5v-3C9 3.224 9.224 3 9.5 3S10 3.224 10 3.5z" />
</svg>