<svg id="sea_wave_Layer_1" viewBox="0 0 24 24" fill="currentColor" width="32" height="32" data-name="Layer 1" xmlns="http://www.w3.org/2000/svg" xmlns:xlink="http://www.w3.org/1999/xlink">
    <title>sea-wave</title>
    <path d="M10.5 0C5.868 0 3 2.076 3 4 3 5.103 3.897 6 5 6 5.398 6 5.788 5.882 6.119 5.681 6.398 6.45 7.136 7 8 7 8.398 7 8.788 6.882 9.119 6.681 9.398 7.45 10.136 8 11 8c0.876 0 1.614-0.569 1.884-1.354C13.587 7.798 14 9.123 14 10.5c0 0.439-0.056 0.878-0.137 1.313C12.056 10.084 9.63 9 7 9c-4.125 0-7 2.108-7 4 0 1.103 0.897 2 2 2 0.398 0 0.788-0.117 1.119-0.319C3.398 15.45 4.136 16 5 16c0.398 0 0.788-0.117 1.119-0.319C6.398 16.45 7.136 17 8 17c0.708 0 1.327-0.372 1.682-0.927C9.884 16.682 10 17.329 10 18c0 2.804-2.196 5-5 5-1.665 0-3.156-0.761-4.091-2.087-0.16-0.225-0.471-0.281-0.697-0.12-0.226 0.159-0.28 0.471-0.121 0.696C1.216 23.085 3.006 24 5 24c3.364 0 6-2.636 6-6-0.012-2.835-1.679-5.407-4.312-6.482-0.255-0.104-0.547 0.019-0.651 0.275s0.02 0.547 0.275 0.651C7.435 12.899 8.358 13.675 9 14.645V15c0 0.552-0.449 1-1 1s-1-0.448-1-1v-0.5c0-0.243-0.175-0.451-0.416-0.493-0.235-0.038-0.474 0.097-0.556 0.326C5.896 14.707 5.444 15 4.999 15c-0.551 0-1-0.448-1-1v-0.5c0-0.243-0.175-0.451-0.416-0.493-0.236-0.039-0.475 0.097-0.556 0.326C2.895 13.707 2.443 14 1.998 14c-0.551 0-1-0.448-1-1 0-1.047 2.061-3 6-3 4.878 0 9 4.121 9 9 0 2.344-0.938 4.258-0.947 4.277-0.123 0.247-0.022 0.547 0.225 0.67 0.241 0.123 0.546 0.025 0.67-0.224 0.043-0.086 1.053-2.136 1.053-4.724 0-2.352-0.863-4.543-2.282-6.273 0.187-0.699 0.281-1.513 0.281-2.227 0-3.396-2.134-6.558-5.309-7.869-0.254-0.104-0.547 0.015-0.653 0.271-0.105 0.255 0.016 0.548 0.271 0.653 1.045 0.431 1.96 1.09 2.7 1.9-0.013 3e-3-9e-3 0.523-9e-3 0.545 0 0.551-0.449 1-1 1s-1-0.449-1-1v-0.5c0-0.244-0.175-0.452-0.416-0.493-0.238-0.042-0.475 0.096-0.556 0.326-0.132 0.374-0.584 0.667-1.029 0.667-0.551 0-1-0.449-1-1v-0.5c0-0.244-0.175-0.452-0.416-0.493-0.235-0.038-0.474 0.096-0.556 0.326-0.132 0.374-0.584 0.667-1.029 0.667-0.551 0-1-0.449-1-1 0-1.077 2.172-3 6.5-3 7.01 0 12.5 5.271 12.5 12 0 4.915-0.397 7.115-0.9 9.901l-0.092 0.511c-0.049 0.271 0.132 0.531 0.404 0.58 0.265 0.049 0.532-0.13 0.58-0.404l0.092-0.509c0.512-2.835 0.916-5.074 0.916-10.079C24 5.71 18.07 0 10.5 0z" />
</svg>