<svg id="seal_exclamation_Layer_1" viewBox="0 0 24 24" fill="currentColor" width="32" height="32" data-name="Layer 1" xmlns="http://www.w3.org/2000/svg" xmlns:xlink="http://www.w3.org/1999/xlink">
    <title>seal-exclamation</title>
    <path d="M12 14c-0.28 0-0.5-0.22-0.5-0.5v-7C11.5 6.22 11.72 6 12 6s0.5 0.22 0.5 0.5v7c0 0.28-0.22 0.5-0.5 0.5zM12 16c-0.55 0-1 0.45-1 1s0.45 1 1 1 1-0.45 1-1-0.45-1-1-1zM13.83 23.24 16.07 21h2.43c1.38 0 2.5-1.12 2.5-2.5v-2.43l2.24-2.24c1.01-1.01 1.01-2.65 0-3.65v0L21 7.94V5.51c0-1.38-1.12-2.5-2.5-2.5h-2.43l-2.24-2.25c-0.97-0.98-2.68-0.98-3.65 0L7.94 3H5.51c-1.38 0-2.5 1.12-2.5 2.5v2.43l-2.25 2.24c-1.01 1.01-1.01 2.65 0 3.65L3 16.06v2.43c0 1.38 1.12 2.5 2.5 2.5h2.43l2.24 2.24c0.49 0.49 1.14 0.76 1.83 0.76s1.34-0.27 1.83-0.75zM8.14 4C8.27 4 8.4 3.95 8.49 3.85l2.39-2.39c0.6-0.6 1.64-0.6 2.24 0l2.39 2.39C15.6 3.94 15.73 4 15.86 4h2.64C19.33 4 20 4.67 20 5.5v2.64c0 0.13 0.05 0.26 0.15 0.35l2.39 2.39c0.62 0.62 0.62 1.62 0 2.24l-2.39 2.39C20.06 15.6 20 15.73 20 15.86v2.64c0 0.83-0.67 1.5-1.5 1.5h-2.64c-0.13 0-0.26 0.05-0.35 0.15l-2.39 2.39c-0.6 0.6-1.64 0.6-2.24 0l-2.39-2.39C8.4 20.06 8.27 20 8.14 20H5.5C4.67 20 4 19.33 4 18.5v-2.64c0-0.13-0.05-0.26-0.15-0.35l-2.39-2.39c-0.62-0.62-0.62-1.62 0-2.24l2.39-2.39C3.94 8.4 4 8.27 4 8.14V5.5C4 4.67 4.67 4 5.5 4z" />
</svg>