<svg id="seal_question_Layer_1" viewBox="0 0 24 24" fill="currentColor" width="32" height="32" data-name="Layer 1" xmlns="http://www.w3.org/2000/svg" xmlns:xlink="http://www.w3.org/1999/xlink">
    <title>seal-question</title>
    <path d="M23.243 10.173 21 7.93V5.5C21 4.121 19.878 3 18.5 3h-2.43l-2.243-2.243c-1.008-1.008-2.646-1.008-3.654 0L7.93 3H5.5C4.122 3 3 4.121 3 5.5v2.43l-2.243 2.243C0.269 10.66 0 11.31 0 12s0.269 1.34 0.757 1.827L3 16.07v2.43C3 19.879 4.122 21 5.5 21h2.43l2.243 2.243c0.504 0.504 1.166 0.755 1.827 0.755s1.323-0.251 1.827-0.755L16.07 21h2.43c1.378 0 2.5-1.121 2.5-2.5v-2.43l2.243-2.243C23.731 13.34 24 12.69 24 12s-0.269-1.339-0.757-1.827zM22.536 13.12l-2.39 2.39C20.052 15.604 20 15.731 20 15.864v2.637c0 0.827-0.673 1.5-1.5 1.5h-2.637c-0.133 0-0.26 0.053-0.354 0.146l-2.39 2.39c-0.617 0.617-1.623 0.617-2.24 0l-2.39-2.39c-0.094-0.094-0.221-0.146-0.354-0.146H5.498c-0.827 0-1.5-0.673-1.5-1.5v-2.637c0-0.133-0.053-0.26-0.146-0.354l-2.39-2.39C1.163 12.821 0.998 12.423 0.998 12s0.165-0.821 0.464-1.12l2.39-2.39c0.094-0.094 0.146-0.221 0.146-0.354V5.499c0-0.827 0.673-1.5 1.5-1.5h2.637c0.133 0 0.26-0.053 0.354-0.146l2.39-2.39c0.617-0.617 1.623-0.617 2.24 0l2.39 2.39c0.094 0.094 0.221 0.146 0.354 0.146H18.5c0.827 0 1.5 0.673 1.5 1.5v2.637c0 0.133 0.053 0.26 0.146 0.354l2.39 2.39C22.835 11.179 23 11.577 23 12s-0.165 0.821-0.464 1.12zM14.953 8.461c0.224 1.273-0.381 2.547-1.506 3.168C12.854 11.955 12.5 12.468 12.5 13v0.5c0 0.276-0.224 0.5-0.5 0.5s-0.5-0.224-0.5-0.5V13c0-0.902 0.547-1.742 1.464-2.247 0.762-0.42 1.156-1.252 1.003-2.119-0.141-0.803-0.798-1.461-1.6-1.602-0.606-0.104-1.192 0.048-1.653 0.436C10.26 7.849 10 8.407 10 9c0 0.276-0.224 0.5-0.5 0.5S9 9.276 9 9c0-0.889 0.391-1.727 1.071-2.298 0.681-0.572 1.578-0.81 2.468-0.654 1.208 0.211 2.201 1.203 2.414 2.413zM13 17c0 0.552-0.448 1-1 1s-1-0.448-1-1 0.448-1 1-1 1 0.448 1 1z" />
</svg>