<svg id="search_alt_Layer_1" viewBox="0 0 24 24" fill="currentColor" width="32" height="32" data-name="Layer 1" xmlns="http://www.w3.org/2000/svg" xmlns:xlink="http://www.w3.org/1999/xlink">
    <title>search-alt</title>
    <path d="M15 23.5c0 0.276-0.224 0.5-0.5 0.5h-10C2.019 24 0 21.981 0 19.5v-15C0 2.019 2.019 0 4.5 0h13C18.878 0 20 1.121 20 2.5v8c0 0.276-0.224 0.5-0.5 0.5S19 10.776 19 10.5v-8C19 1.673 18.327 1 17.5 1h-13C2.57 1 1 2.57 1 4.5v15C1 21.43 2.57 23 4.5 23h10c0.276 0 0.5 0.224 0.5 0.5zM6.5 7C6.224 7 6 7.224 6 7.5S6.224 8 6.5 8h7C13.776 8 14 7.776 14 7.5S13.776 7 13.5 7zM23.854 23.854C23.756 23.952 23.628 24 23.5 24s-0.256-0.049-0.354-0.146l-2.853-2.853c-0.77 0.616-1.733 1-2.793 1-2.481 0-4.5-2.019-4.5-4.5s2.019-4.5 4.5-4.5 4.5 2.019 4.5 4.5c0 1.06-0.384 2.023-1 2.793l2.853 2.853c0.195 0.195 0.195 0.512 1e-3 0.707zM17.5 21c1.93 0 3.5-1.57 3.5-3.5S19.43 14 17.5 14 14 15.57 14 17.5 15.57 21 17.5 21z" />
</svg>