<svg id="search_location_Layer_1" viewBox="0 0 24 24" fill="currentColor" width="32" height="32" data-name="Layer 1" xmlns="http://www.w3.org/2000/svg" xmlns:xlink="http://www.w3.org/1999/xlink">
    <title>search-location</title>
    <path d="M23.854 23.146l-6.428-6.428c1.607-1.775 2.596-4.12 2.596-6.697-1e-3-5.513-4.487-10-10.001-10s-10 4.487-10 10 4.486 10 10 10c2.577 0 4.922-0.989 6.697-2.596l6.428 6.428c0.098 0.098 0.226 0.146 0.354 0.146s0.256-0.049 0.354-0.146c0.195-0.195 0.195-0.512 0-0.707zM1.021 10.021c0-4.962 4.038-9 9-9s9 4.037 9 9-4.037 9-9 9-9-4.037-9-9zM10 4.008c-1.334 0-2.589 0.513-3.532 1.443C5.522 6.384 5 7.624 5 8.943s0.521 2.562 1.472 3.499l2.039 1.967c0.417 0.402 0.953 0.604 1.489 0.604s1.071-0.201 1.488-0.604l2.044-1.971C14.479 11.504 15 10.263 15 8.943s-0.521-2.56-1.468-3.492C12.588 4.52 11.333 4.008 10 4.008zM12.835 11.722l-2.04 1.967c-0.439 0.425-1.151 0.423-1.591 0l-2.035-1.963C6.415 10.983 6 9.995 6 8.945s0.415-2.037 1.17-2.781C7.925 5.419 8.93 5.009 10 5.009s2.074 0.41 2.831 1.156C13.585 6.908 14 7.895 14 8.945s-0.415 2.038-1.165 2.777zM11 8.994c0 0.552-0.448 1-1 1s-1-0.448-1-1 0.448-1 1-1 1 0.448 1 1z" />
</svg>