<svg id="search_dollar_Layer_1" viewBox="0 0 24 24" fill="currentColor" width="32" height="32" data-name="Layer 1" xmlns="http://www.w3.org/2000/svg" xmlns:xlink="http://www.w3.org/1999/xlink">
    <title>search-dollar</title>
    <path d="M23.854 23.146l-6.449-6.449c1.607-1.775 2.596-4.12 2.596-6.697C20 4.486 15.514 0 10 0S0 4.486 0 10 4.486 20 10 20c2.577 0 4.922-0.989 6.697-2.596l6.449 6.449c0.098 0.098 0.226 0.146 0.354 0.146s0.256-0.049 0.354-0.146c0.195-0.195 0.195-0.512 0-0.707zM1 10c0-4.963 4.038-9 9-9s9 4.037 9 9-4.037 9-9 9-9-4.037-9-9zM14 12.374C14 13.822 12.822 15 11.374 15H10.5v1.5c0 0.276-0.224 0.5-0.5 0.5s-0.5-0.224-0.5-0.5V15H8.574c-0.979 0-1.891-0.526-2.381-1.375-0.139-0.238-0.057-0.545 0.182-0.683 0.239-0.14 0.545-0.057 0.683 0.183C7.37 13.665 7.952 14 8.574 14h2.8C12.27 14 13 13.271 13 12.374c0-0.803-0.575-1.479-1.368-1.604l-3.423-0.552C6.929 10.014 6 8.923 6 7.626 6 6.178 7.178 5 8.626 5H9.5V3.5C9.5 3.224 9.724 3 10 3s0.5 0.224 0.5 0.5V5h0.926c0.979 0 1.891 0.526 2.381 1.375 0.139 0.238 0.057 0.545-0.183 0.683-0.237 0.138-0.544 0.057-0.683-0.183C12.629 6.335 12.047 6 11.425 6h-2.8C7.729 6 6.999 6.729 6.999 7.626c0 0.803 0.575 1.479 1.368 1.604l3.423 0.552c1.279 0.204 2.209 1.295 2.21 2.592z" />
</svg>