<svg id="search_bar_Layer_1" viewBox="0 0 24 24" fill="currentColor" width="32" height="32" data-name="Layer 1" xmlns="http://www.w3.org/2000/svg" xmlns:xlink="http://www.w3.org/1999/xlink">
    <title>search-bar</title>
    <path d="M5.5 4C5.776 4 6 4.224 6 4.5v9C6 13.776 5.776 14 5.5 14S5 13.776 5 13.5v-9C5 4.224 5.224 4 5.5 4zM19.5 0h-15C2.019 0 0 2.019 0 4.5v9C0 15.981 2.019 18 4.5 18h6c0.276 0 0.5-0.224 0.5-0.5S10.776 17 10.5 17h-6C2.57 17 1 15.43 1 13.5v-9C1 2.57 2.57 1 4.5 1h15C21.43 1 23 2.57 23 4.5v8c0 0.276 0.224 0.5 0.5 0.5s0.5-0.224 0.5-0.5v-8C24 2.019 21.981 0 19.5 0zM22.467 15.064c0.47 0.405 0.647 1.025 0.462 1.618-0.185 0.592-0.684 1.001-1.301 1.066l-1.929 0.205 1.913 3.872c0.377 0.706 0.063 1.664-0.662 2.011-0.713 0.38-1.666 0.067-2.016-0.659l-1.935-3.913-1.456 1.331c-0.453 0.413-1.078 0.519-1.634 0.274C13.348 20.622 13 20.083 13 19.464v-8.67c0-0.713 0.399-1.339 1.041-1.633 0.638-0.292 1.364-0.187 1.899 0.275zM21.813 15.822l-6.527-5.626c-0.239-0.207-0.55-0.253-0.83-0.124-0.286 0.131-0.457 0.401-0.457 0.724v8.67c0 0.221 0.117 0.404 0.312 0.49 0.189 0.083 0.397 0.048 0.556-0.097l1.947-1.779c0.234-0.224 0.65-0.145 0.786 0.147l2.228 4.504c0.114 0.237 0.435 0.341 0.669 0.215 0.242-0.116 0.347-0.435 0.22-0.671l-2.233-4.52c-0.158-0.298 0.059-0.693 0.396-0.719l2.643-0.281c0.323-0.034 0.428-0.292 0.452-0.371 0.025-0.079 0.085-0.351-0.162-0.562z" />
</svg>