<svg id="seat_airline_Layer_1" viewBox="0 0 24 24" fill="currentColor" width="32" height="32" data-name="Layer 1" xmlns="http://www.w3.org/2000/svg" xmlns:xlink="http://www.w3.org/1999/xlink">
    <title>seat-airline</title>
    <path d="M21.966 15.084C21.772 13.896 20.666 13 19.393 13h-8.289c-0.674 0-1.27-0.454-1.447-1.104L8.866 9h9.633c0.276 0 0.5-0.224 0.5-0.5S18.775 8 18.499 8H8.593l-1.65-6.041C6.607 0.68 5.376-0.174 4.137 2e-3 3.433 0.106 2.805 0.505 2.414 1.097S1.902 2.422 2.083 3.112l2.733 10.089c0.469 1.733 1.621 3.145 3.117 3.979l-1.67 3.203c-0.39 0.781-0.349 1.69 0.11 2.433s1.254 1.186 2.126 1.186h12c0.276 0 0.5-0.224 0.5-0.5s-0.224-0.5-0.5-0.5H8.5c-0.523 0-1-0.266-1.276-0.711s-0.3-0.991-0.07-1.452L8.843 17.6c0.706 0.261 1.464 0.402 2.247 0.402h8.409c0.734 0 1.429-0.321 1.905-0.881s0.681-1.302 0.562-2.037zM20.643 16.472C20.357 16.808 19.94 17 19.5 17h-8.409c-2.478 0-4.661-1.67-5.309-4.062L3.049 2.854C2.941 2.443 3.014 2.003 3.248 1.648c0.238-0.359 0.694-0.67 1.227-0.67 0.673 0 1.311 0.511 1.502 1.24l2.716 9.941C8.989 13.243 9.981 14 11.105 14h8.289c0.789 0 1.471 0.535 1.586 1.244 0.073 0.45-0.046 0.887-0.337 1.228z" />
</svg>