<svg id="seatbelt_safety_driver_Layer_1" viewBox="0 0 24 24" fill="currentColor" width="32" height="32" data-name="Layer 1" xmlns="http://www.w3.org/2000/svg" xmlns:xlink="http://www.w3.org/1999/xlink">
    <title>seatbelt-safety-driver</title>
    <path d="M12 5c1.379 0 2.5-1.122 2.5-2.5S13.379 0 12 0 9.5 1.122 9.5 2.5 10.621 5 12 5zM12 1c0.827 0 1.5 0.673 1.5 1.5S12.827 4 12 4s-1.5-0.673-1.5-1.5S11.173 1 12 1zM20.8 18.1c-0.102-0.076-1.61-1.188-3.8-2.058V11c0-0.572-0.096-1.133-0.284-1.667-0.094-0.26-0.378-0.396-0.639-0.304-0.26 0.092-0.396 0.377-0.305 0.638C15.923 10.093 16 10.542 16 11v4.678C14.786 15.283 13.422 15 12 15c-2.075 0-4.03 0.602-5.568 1.275L20.354 2.354c0.195-0.195 0.195-0.512 0-0.707s-0.512-0.195-0.707 0L14.57 6.724C13.794 6.257 12.914 6 12.001 6c-2.757 0-5 2.243-5 5v3.293l-3.854 3.854c-0.186 0.186-0.196 0.483-0.024 0.681C3.222 18.941 3.361 19 3.501 19c0.104 0 0.21-0.033 0.3-0.1 0.039-0.029 3.916-2.9 8.2-2.9s8.161 2.871 8.2 2.9c0.223 0.166 0.535 0.12 0.7-0.101s0.12-0.534-0.101-0.699zM8 11c0-2.206 1.794-4 4-4 0.647 0 1.272 0.161 1.838 0.455L8 13.293zM10 18.5v5c0 0.276-0.224 0.5-0.5 0.5S9 23.776 9 23.5v-5C9 18.224 9.224 18 9.5 18s0.5 0.224 0.5 0.5zM15 18.5v5c0 0.276-0.224 0.5-0.5 0.5S14 23.776 14 23.5v-5c0-0.276 0.224-0.5 0.5-0.5s0.5 0.224 0.5 0.5z" />
</svg>