<svg id="second_award_Layer_1" viewBox="0 0 24 24" fill="currentColor" width="32" height="32" data-name="Layer 1" xmlns="http://www.w3.org/2000/svg" xmlns:xlink="http://www.w3.org/1999/xlink">
    <title>second-award</title>
    <path d="M23.427 18.1l-3.443-3.333c-3e-3-0.225-0.029-0.448-0.079-0.669-0.119-0.525 0.122-1.087 0.601-1.396 0.449-0.29 0.814-0.685 1.084-1.172 0.255-0.459 0.388-0.989 0.386-1.528 2e-3-0.543-0.131-1.072-0.386-1.532-0.27-0.487-0.635-0.882-1.085-1.172-0.478-0.309-0.719-0.87-0.6-1.396 0.122-0.534 0.104-1.083-0.055-1.63-0.295-1.029-1.117-1.852-2.146-2.146-0.549-0.158-1.098-0.177-1.629-0.055-0.525 0.118-1.087-0.121-1.396-0.6-0.289-0.449-0.684-0.813-1.172-1.084-0.935-0.519-2.1-0.52-3.036 0-0.487 0.27-0.882 0.635-1.172 1.084C8.99 1.95 8.428 2.19 7.903 2.071 7.369 1.949 6.821 1.968 6.275 2.126 5.246 2.421 4.423 3.243 4.129 4.272 3.971 4.82 3.952 5.369 4.074 5.902 4.193 6.429 3.952 6.99 3.473 7.298 3.024 7.588 2.659 7.983 2.389 8.47 2.134 8.929 2.001 9.459 2.003 9.998c-2e-3 0.543 0.131 1.073 0.386 1.532 0.27 0.487 0.635 0.882 1.085 1.172 0.478 0.309 0.719 0.869 0.6 1.396-0.052 0.228-0.078 0.459-0.079 0.691L0.574 18.1c-0.529 0.511-0.709 1.261-0.469 1.957s0.845 1.175 1.576 1.25l1.135 0.118 0.134 0.967c0.098 0.703 0.576 1.283 1.249 1.513 0.2 0.068 0.405 0.102 0.608 0.102 0.479 0 0.947-0.186 1.303-0.533l4.129-4.001c0.075 0.049 0.152 0.097 0.233 0.141 0.468 0.26 0.993 0.39 1.519 0.39s1.05-0.13 1.518-0.39c0.085-0.047 0.167-0.097 0.246-0.15l4.136 4.008c0.356 0.349 0.825 0.535 1.305 0.535 0.203 0 0.408-0.033 0.608-0.102 0.673-0.229 1.151-0.81 1.249-1.514l0.134-0.966 1.134-0.118c0.732-0.075 1.337-0.554 1.577-1.25s0.061-1.446-0.471-1.957zM5.412 22.756c-0.24 0.235-0.573 0.309-0.891 0.202-0.318-0.108-0.535-0.372-0.582-0.704L3.751 20.9c-0.031-0.229-0.215-0.405-0.443-0.429l-1.525-0.158c-0.346-0.036-0.62-0.253-0.733-0.582s-0.032-0.67 0.219-0.912l2.941-2.847c0.347 0.914 1.118 1.631 2.065 1.903 0.547 0.157 1.094 0.177 1.629 0.055 0.524-0.119 1.087 0.121 1.396 0.601 0.061 0.094 0.126 0.184 0.196 0.27zM10.955 18.737c-0.342-0.189-0.617-0.441-0.816-0.75-0.441-0.686-1.191-1.089-1.966-1.089-0.163 0-0.328 0.019-0.491 0.056-0.366 0.081-0.748 0.068-1.132-0.041-0.689-0.198-1.263-0.771-1.461-1.462-0.11-0.384-0.124-0.765-0.041-1.132 0.212-0.935-0.203-1.923-1.032-2.457-0.311-0.2-0.563-0.475-0.752-0.816-0.172-0.311-0.263-0.672-0.261-1.048-2e-3-0.372 0.089-0.733 0.261-1.044 0.188-0.342 0.441-0.616 0.751-0.816 0.83-0.534 1.245-1.522 1.033-2.458-0.083-0.366-0.069-0.747 0.041-1.132C5.287 3.859 5.86 3.285 6.55 3.087 6.933 2.978 7.313 2.964 7.681 3.046c0.938 0.213 1.924-0.202 2.458-1.032 0.199-0.31 0.475-0.562 0.816-0.751 0.631-0.35 1.44-0.349 2.067 0 0.343 0.189 0.616 0.441 0.815 0.751 0.536 0.83 1.521 1.245 2.458 1.032 0.365-0.081 0.746-0.068 1.132 0.041 0.689 0.198 1.263 0.771 1.461 1.462 0.11 0.384 0.124 0.765 0.041 1.131-0.213 0.935 0.202 1.923 1.032 2.458 0.311 0.2 0.563 0.475 0.752 0.816 0.172 0.311 0.263 0.672 0.261 1.048 2e-3 0.372-0.089 0.733-0.261 1.044-0.188 0.342-0.441 0.616-0.751 0.816-0.831 0.535-1.246 1.523-1.033 2.458 0.083 0.366 0.069 0.747-0.041 1.132-0.198 0.689-0.771 1.263-1.461 1.461-0.386 0.109-0.768 0.122-1.131 0.041-0.933-0.21-1.922 0.203-2.46 1.033-0.198 0.309-0.472 0.561-0.814 0.75-0.629 0.351-1.438 0.35-2.067 0zM22.95 19.73c-0.113 0.329-0.388 0.546-0.734 0.582l-1.524 0.158c-0.229 0.023-0.412 0.2-0.443 0.429l-0.188 1.354c-0.047 0.333-0.264 0.597-0.582 0.705s-0.651 0.032-0.893-0.204l-4.093-3.967c0.066-0.083 0.128-0.168 0.185-0.258 0.309-0.479 0.875-0.719 1.397-0.601 0.533 0.121 1.081 0.102 1.628-0.055 0.952-0.273 1.727-0.997 2.071-1.918l2.957 2.863c0.251 0.242 0.332 0.583 0.219 0.912zM14.5 15h-4.075c-0.594 0-1.114-0.356-1.327-0.908-0.216-0.561-0.066-1.185 0.382-1.591 0.435-0.393 0.998-0.752 1.594-1.133 1.534-0.98 3.12-1.995 2.93-3.707C13.9 6.729 13.03 6 12.024 6 11.05 6 10.176 6.688 9.992 7.6 9.937 7.871 9.674 8.047 9.402 7.991 9.131 7.936 8.957 7.672 9.011 7.401c0.277-1.368 1.573-2.4 3.013-2.4 1.509 0 2.815 1.12 2.975 2.55 0.26 2.331-1.762 3.623-3.385 4.66-0.561 0.358-1.089 0.696-1.462 1.033-0.212 0.192-0.146 0.423-0.12 0.489 0.031 0.08 0.132 0.268 0.395 0.268h4.075c0.276 0 0.5 0.224 0.5 0.5S14.778 15.001 14.5 15z" />
</svg>