<svg id="second_Layer_1" viewBox="0 0 24 24" fill="currentColor" width="32" height="32" data-name="Layer 1" xmlns="http://www.w3.org/2000/svg" xmlns:xlink="http://www.w3.org/1999/xlink">
    <title>second</title>
    <path d="M11.5 10c0.276 0 0.5-0.224 0.5-0.5S11.776 9 11.5 9H9V6.5C9 6.224 8.776 6 8.5 6S8 6.224 8 6.5V9H4V6.5C4 6.224 3.776 6 3.5 6S3 6.224 3 6.5V9H0.5C0.224 9 0 9.224 0 9.5S0.224 10 0.5 10H3v4H0.5C0.224 14 0 14.224 0 14.5S0.224 15 0.5 15H3v2.5C3 17.776 3.224 18 3.5 18S4 17.776 4 17.5V15h4v2.5C8 17.776 8.224 18 8.5 18S9 17.776 9 17.5V15h2.5c0.276 0 0.5-0.224 0.5-0.5S11.776 14 11.5 14H9v-4zM8 14H4v-4h4zM24 21.5c0 0.276-0.224 0.5-0.5 0.5h-8.325c-0.871 0-1.632-0.494-1.985-1.29-0.354-0.798-0.209-1.695 0.376-2.343 0.827-0.914 2.006-1.881 3.254-2.904C19.716 13.086 23 10.393 23 7.5 23 5.019 20.981 3 18.5 3c-2.154 0-4.093 1.548-4.51 3.6-0.055 0.271-0.317 0.444-0.59 0.391-0.271-0.055-0.445-0.319-0.391-0.59 0.518-2.55 2.827-4.4 5.49-4.4 3.033 0 5.5 2.468 5.5 5.5 0 3.365-3.478 6.219-6.545 8.735-1.218 1-2.369 1.944-3.147 2.804-0.321 0.354-0.397 0.828-0.204 1.265s0.594 0.696 1.071 0.696h8.325c0.276 0 0.5 0.224 0.501 0.499z" />
</svg>