<svg id="security_gate_Layer_1" viewBox="0 0 24 24" fill="currentColor" width="32" height="32" data-name="Layer 1" xmlns="http://www.w3.org/2000/svg" xmlns:xlink="http://www.w3.org/1999/xlink">
    <title>security-gate</title>
    <path d="M17.5 0h-11C4.019 0 2 2.019 2 4.5v19C2 23.776 2.224 24 2.5 24S3 23.776 3 23.5V5h18v18.5c0 0.276 0.224 0.5 0.5 0.5s0.5-0.224 0.5-0.5v-19C22 2.019 19.981 0 17.5 0zM6.5 1h11c1.758 0 3.204 1.308 3.449 3H3.051C3.296 2.308 4.742 1 6.5 1zM14.5 8.5C14.5 7.122 13.378 6 12 6S9.5 7.122 9.5 8.5 10.622 11 12 11s2.5-1.122 2.5-2.5zM10.5 8.5C10.5 7.673 11.173 7 12 7s1.5 0.673 1.5 1.5S12.827 10 12 10s-1.5-0.673-1.5-1.5zM12.5 12h-1c-1.654 0-3 1.346-3 3v2c0 1.105 0.608 2.062 1.5 2.583V23.5c0 0.276 0.224 0.5 0.5 0.5s0.5-0.224 0.5-0.5v-3.551C11.163 19.977 11.329 20 11.5 20h1c0.171 0 0.337-0.023 0.5-0.051V23.5c0 0.276 0.224 0.5 0.5 0.5s0.5-0.224 0.5-0.5v-3.917c0.892-0.52 1.5-1.477 1.5-2.583v-2c0-1.654-1.346-3-3-3zM14.5 17c0 1.103-0.897 2-2 2h-1c-1.103 0-2-0.897-2-2v-2c0-1.103 0.897-2 2-2h1c1.103 0 2 0.897 2 2z" />
</svg>