<svg id="secure_backup_Layer_1" viewBox="0 0 24 24" fill="currentColor" width="32" height="32" data-name="Layer 1" xmlns="http://www.w3.org/2000/svg" xmlns:xlink="http://www.w3.org/1999/xlink">
    <title>secure-backup</title>
    <path d="M21 12v2.143C21 14.616 20.615 15 20.143 15H18c-0.276 0-0.5-0.224-0.5-0.5S17.724 14 18 14h1.479c-0.466-0.615-1.186-1-1.979-1-1.058 0-2.005 0.67-2.357 1.667-0.093 0.263-0.385 0.395-0.639 0.305-0.26-0.093-0.396-0.378-0.305-0.639C14.693 12.937 16.019 12 17.5 12c0.961 0 1.853 0.4 2.5 1.063V12c0-0.276 0.224-0.5 0.5-0.5S21 11.724 21 12zM24 12.682v3.901c-0.215 4.397-3.167 6.204-5.368 7.184C18.281 23.922 17.91 24 17.54 24c-0.437 0-0.871-0.108-1.27-0.322-2.164-1.163-5.063-3.16-5.27-7.068v-3.928c0-1.512 0.963-2.847 2.398-3.322l3.157-1.046c0.617-0.205 1.271-0.205 1.888 0l3.158 1.047c1.435 0.475 2.398 1.811 2.399 3.321zM23.001 16.558v-3.876c0-1.08-0.689-2.034-1.714-2.373l-3.158-1.047c-0.412-0.137-0.847-0.137-1.259 0l-3.157 1.046C12.689 10.648 12 11.601 12 12.681v3.901c0.177 3.341 2.628 5.078 4.743 6.215 0.462 0.248 1.002 0.27 1.482 0.056 2.126-0.945 4.59-2.516 4.776-6.295zM12.486 22.979c0.065 0.268-0.099 0.538-0.367 0.604C10.985 23.859 9.768 24 8.5 24 3.733 24 0 22.023 0 19.5v-15C0 1.977 3.733 0 8.5 0S17 1.977 17 4.5 13.267 9 8.5 9C5.213 9 2.419 8.06 1 6.649V9.5C1 11.397 4.435 13 8.5 13 8.776 13 9 13.224 9 13.5S8.776 14 8.5 14c-3.287 0-6.081-0.94-7.5-2.351V14.5C1 16.397 4.435 18 8.5 18 8.776 18 9 18.224 9 18.5S8.776 19 8.5 19c-3.287 0-6.081-0.94-7.5-2.351V19.5C1 21.397 4.435 23 8.5 23c1.188 0 2.326-0.131 3.381-0.388 0.269-0.066 0.539 0.099 0.605 0.367zM1 4.5C1 6.397 4.435 8 8.5 8S16 6.397 16 4.5 12.565 1 8.5 1 1 2.603 1 4.5zM20.496 16.028c-0.261-0.091-0.546 0.045-0.639 0.305C19.504 17.33 18.557 18 17.5 18c-0.784 0-1.506-0.389-1.974-1H17c0.276 0 0.5-0.224 0.5-0.5S17.276 16 17 16h-2.143C14.384 16 14 16.385 14 16.857V19c0 0.276 0.224 0.5 0.5 0.5S15 19.276 15 19v-1.063C15.65 18.6 16.548 19 17.5 19c1.48 0 2.807-0.938 3.301-2.333 0.092-0.261-0.045-0.546-0.305-0.639z" />
</svg>