<svg id="seedling_Layer_1" viewBox="0 0 24 24" fill="currentColor" width="32" height="32" data-name="Layer 1" xmlns="http://www.w3.org/2000/svg" xmlns:xlink="http://www.w3.org/1999/xlink">
    <title>seedling</title>
    <path d="M23.379 0.477c-0.394-0.357-0.914-0.524-1.43-0.464-6.617 0.797-9.053 6.063-9.944 9.488-2e-3 0-4e-3-1e-3-6e-3-1e-3s-4e-3 1e-3-6e-3 1e-3C11.104 6.075 8.668 0.81 2.051 0.013 1.538-0.044 1.016 0.12 0.621 0.477 0.213 0.848-0.014 1.376 0 1.927v0c0.089 3.481 1.195 6.218 3.289 8.133 2.902 2.654 6.804 2.932 8.211 2.94v10.499c0 0.276 0.224 0.5 0.5 0.5s0.5-0.224 0.5-0.5V13c1.407-8e-3 5.31-0.286 8.211-2.94 2.094-1.916 3.2-4.652 3.289-8.133v0c0.014-0.551-0.213-1.08-0.621-1.45zM3.958 9.316C2.076 7.592 1.081 5.097 1 1.902c-7e-3-0.26 0.101-0.51 0.294-0.685 0.18-0.165 0.402-0.241 0.638-0.211 7.97 0.96 9.312 8.86 9.528 10.992-1.316-0.022-4.916-0.311-7.502-2.682zM20.042 9.316c-2.587 2.37-6.186 2.659-7.502 2.681 0.217-2.131 1.559-10.031 9.528-10.992 0.032-4e-3 0.063-6e-3 0.095-6e-3 0.197 0 0.388 0.075 0.543 0.217 0.193 0.176 0.301 0.425 0.294 0.686-0.081 3.195-1.076 5.689-2.958 7.414z" />
</svg>