<svg id="segway_Layer_1" viewBox="0 0 24 24" fill="currentColor" width="32" height="32" data-name="Layer 1" xmlns="http://www.w3.org/2000/svg" xmlns:xlink="http://www.w3.org/1999/xlink">
    <title>segway</title>
    <path d="M22 13c-1.103 0-2 0.897-2 2v3h-3v-0.5c0-1.378-1.121-2.5-2.5-2.5h-2V8.111L15.818 1H19.5C19.776 1 20 0.776 20 0.5S19.776 0 19.5 0h-15C4.224 0 4 0.224 4 0.5S4.224 1 4.5 1h3.682L11.5 8.111V15h-2C8.122 15 7 16.122 7 17.5V18H4v-3c0-1.103-0.897-2-2-2s-2 0.897-2 2v7c0 1.103 0.897 2 2 2s2-0.897 2-2v-3h16v3c0 1.103 0.897 2 2 2s2-0.897 2-2v-7c0-1.103-0.897-2-2-2zM14.715 1 12 6.818 9.285 1zM3 22c0 0.551-0.449 1-1 1s-1-0.449-1-1v-7c0-0.551 0.449-1 1-1s1 0.449 1 1zM8 17.5C8 16.673 8.673 16 9.5 16h5c0.827 0 1.5 0.673 1.5 1.5V18H8zM23 22c0 0.551-0.448 1-1 1s-1-0.449-1-1v-7c0-0.551 0.448-1 1-1s1 0.449 1 1z" />
</svg>