<svg id="self_care_Layer_1" viewBox="0 0 24 24" fill="currentColor" width="32" height="32" data-name="Layer 1" xmlns="http://www.w3.org/2000/svg" xmlns:xlink="http://www.w3.org/1999/xlink">
    <title>self-care</title>
    <path d="M14.25 14c-0.988 0-1.782 0.362-2.258 0.977C11.511 14.368 10.717 14 9.75 14 8.233 14 7 15.314 7 16.93c0 1.903 2.079 4.341 3.477 5.514C10.918 22.815 11.459 23 12 23s1.082-0.185 1.523-0.556C14.921 21.271 17 18.834 17 16.93 17 15.315 15.767 14 14.25 14zM12.88 21.678c-0.51 0.428-1.25 0.428-1.76 0C9.825 20.59 8 18.398 8 16.93 8 15.866 8.785 15 9.75 15c0.807 0 1.75 0.393 1.75 1.5V17c0 0.276 0.224 0.5 0.5 0.5s0.5-0.224 0.5-0.5v-0.5c0-1.392 1.339-1.5 1.75-1.5 0.965 0 1.75 0.865 1.75 1.93 0 1.468-1.824 3.66-3.12 4.748zM12 0C8.691 0 6 2.691 6 6s2.691 6 6 6 6-2.691 6-6-2.691-6-6-6zM12 11c-2.757 0-5-2.243-5-5s2.243-5 5-5 5 2.243 5 5-2.243 5-5 5zM5.211 17.765C4.419 19.033 4 20.497 4 22v1.5C4 23.776 3.776 24 3.5 24S3 23.776 3 23.5V22c0-1.69 0.472-3.339 1.364-4.765C4.51 17 4.818 16.928 5.053 17.076c0.234 0.146 0.305 0.455 0.158 0.689zM21 22v1.5c0 0.276-0.224 0.5-0.5 0.5S20 23.776 20 23.5V22c0-1.632-0.488-3.201-1.411-4.538-0.157-0.228-0.1-0.539 0.127-0.695 0.227-0.16 0.538-0.1 0.696 0.127C20.451 18.399 21 20.165 21 22z" />
</svg>