<svg id="sell_Layer_1" viewBox="0 0 24 24" fill="currentColor" width="32" height="32" data-name="Layer 1" xmlns="http://www.w3.org/2000/svg" xmlns:xlink="http://www.w3.org/1999/xlink">
    <title>sell</title>
    <path d="M15.15 18.439l3.203-3.203c0.121-0.121 0.171-0.295 0.135-0.462-0.037-0.167-0.157-0.303-0.317-0.361l-9.129-3.32c-0.555-0.202-1.174-0.065-1.593 0.354-0.42 0.421-0.555 1.029-0.352 1.589l3.32 9.131c0.058 0.16 0.195 0.28 0.361 0.317 0.256 0.025 0.367-0.04 0.462-0.135l3.202-3.202 4.703 4.708c0.098 0.098 0.226 0.146 0.354 0.146s0.256-0.049 0.354-0.146c0.195-0.195 0.195-0.512 0-0.707zM11.089 21.086 8.037 12.692c-0.072-0.198-0.03-0.391 0.119-0.54 0.1-0.101 0.227-0.155 0.356-0.155 0.062 0 0.125 0.012 0.188 0.034l8.391 3.052zM6.959 7.896C6.996 7.667 7.035 6.89 5.984 6.465 5.872 6.423 4.776 6.006 4.285 5.701 3.623 5.235 3.309 4.528 3.406 3.785 3.509 3.001 4.032 2.363 4.771 2.12 5.674 1.822 6.592 2.075 7.507 2.866c0.208 0.181 0.231 0.497 0.05 0.705-0.182 0.21-0.497 0.231-0.706 0.051C6.203 3.06 5.643 2.885 5.083 3.069 4.711 3.191 4.449 3.515 4.396 3.915 4.347 4.295 4.499 4.632 4.823 4.861 5.157 5.066 6.037 5.416 6.347 5.533c1.394 0.563 1.73 1.71 1.599 2.522C7.763 9.182 6.783 10 5.617 10 4.739 10 3.669 9.448 3.143 8.914 2.949 8.718 2.951 8.401 3.148 8.207c0.197-0.193 0.513-0.191 0.707 6e-3C4.269 8.632 5.092 9 5.617 9 6.29 9 6.855 8.535 6.959 7.896zM10 3v2.5h2.5c0.276 0 0.5 0.224 0.5 0.501s-0.224 0.5-0.5 0.5H10C10 6.501 10 9 10 9h2.5C12.776 9 13 9.224 13 9.5S12.776 10 12.5 10H10c-0.551 0-1-0.448-1-1V3c0-0.552 0.449-1 1-1h2.5C12.776 2 13 2.224 13 2.5S12.776 3 12.5 3zM24 4v4.001c0 1.068-0.417 2.073-1.172 2.829-0.755 0.755-1.759 1.171-2.827 1.171h-4c-0.276 0-0.5-0.225-0.5-0.501s0.224-0.5 0.5-0.5H20c0 0 1e-3 0 1e-3 0 0.801 0 1.554-0.312 2.121-0.878 0.567-0.567 0.879-1.32 0.879-2.122V3.999c0-1.654-1.346-3-3-3H4c-1.654 0-3 1.346-3 3v4c0 0.802 0.312 1.556 0.88 2.123 0.566 0.565 1.319 0.877 2.119 0.877H4.5c0.276 0 0.5 0.224 0.5 0.5s-0.224 0.5-0.5 0.5H3.998c-1.066 0-2.07-0.415-2.825-1.17C0.417 10.073 0 9.068 0 7.999v-4C0 1.794 1.794 0 4 0h16c2.206 0 4 1.794 4 4zM19 2.5V9h1.5C20.776 9 21 9.224 21 9.5S20.776 10 20.5 10H19c-0.551 0-1-0.448-1-1V2.5C18 2.224 18.224 2 18.5 2S19 2.224 19 2.5zM15 2.5V9h1.5C16.776 9 17 9.224 17 9.5S16.776 10 16.5 10H15c-0.551 0-1-0.448-1-1V2.5C14 2.224 14.224 2 14.5 2S15 2.224 15 2.5z" />
</svg>