<svg id="seller_Layer_1" viewBox="0 0 24 24" fill="currentColor" width="32" height="32" data-name="Layer 1" xmlns="http://www.w3.org/2000/svg" xmlns:xlink="http://www.w3.org/1999/xlink">
    <title>seller</title>
    <path d="M24 16.935c0-0.055-1.066-3.236-1.066-3.236C22.589 12.683 21.638 12 20.566 12h-6.131c-1.072 0-2.023 0.683-2.368 1.699 0 0-1.066 3.181-1.066 3.235 0 0.748 0.403 1.398 1 1.76v2.805c0 1.378 1.121 2.5 2.5 2.5h6c1.379 0 2.5-1.122 2.5-2.5v-2.805c0.597-0.363 1-1.013 0.999-1.759zM13.014 14.02c0.207-0.61 0.777-1.02 1.421-1.02H15v1.5c0 0.276 0.224 0.5 0.5 0.5s0.5-0.224 0.5-0.5V13h3v1.5c0 0.276 0.224 0.5 0.5 0.5s0.5-0.224 0.5-0.5V13h0.565c0.644 0 1.214 0.41 1.421 1.02l1.011 2.99c-0.038 0.553-0.5 0.991-1.062 0.991h-0.869c-0.607 0-1.065-0.43-1.065-1 0-0.276-0.224-0.5-0.5-0.5s-0.5 0.224-0.5 0.5c0 0.57-0.458 1-1.065 1h-0.869c-0.607 0-1.065-0.43-1.065-1 0-0.276-0.224-0.5-0.5-0.5s-0.5 0.224-0.5 0.5c0 0.551-0.448 1-1 1h-0.935c-0.562 0-1.024-0.438-1.062-0.991zM22 21.5c0 0.827-0.673 1.5-1.5 1.5h-6c-0.827 0-1.5-0.673-1.5-1.5v-2.507c0.022 0 0.043 7e-3 0.065 7e-3H14c0.601 0 1.135-0.272 1.502-0.693C15.878 18.73 16.431 19 17.066 19h0.869c0.636 0 1.189-0.271 1.565-0.695C19.876 18.73 20.429 19 21.065 19h0.869c0.022 0 0.043-6e-3 0.065-7e-3zM8 12c3.309 0 6-2.691 6-6s-2.691-6-6-6-6 2.691-6 6 2.691 6 6 6zM8 1c2.757 0 5 2.243 5 5s-2.243 5-5 5-5-2.243-5-5 2.243-5 5-5zM9.99 14.749C9.935 15.02 9.672 15.195 9.4 15.14 8.942 15.047 8.47 15 8 15c-3.859 0-7 3.14-7 7v1.5C1 23.776 0.776 24 0.5 24S0 23.776 0 23.5V22c0-4.411 3.589-8 8-8 0.538 0 1.076 0.054 1.6 0.16 0.271 0.055 0.445 0.319 0.39 0.589z" />
</svg>