<svg id="seller_store_Layer_1" viewBox="0 0 24 24" fill="currentColor" width="32" height="32" data-name="Layer 1" xmlns="http://www.w3.org/2000/svg" xmlns:xlink="http://www.w3.org/1999/xlink">
    <title>seller-store</title>
    <path d="M11 23.5c0 0.276-0.224 0.5-0.5 0.5h-6C2.57 24 1 22.43 1 20.5v-9.558C0.383 10.311 0 9.45 0 8.5 0 8.459 2.015 0.379 2.015 0.379 2.071 0.156 2.27 0 2.5 0h19c0.229 0 0.429 0.156 0.485 0.379 0 0 2.015 8.08 2.015 8.121 0 0.862-0.316 1.691-0.892 2.333-0.185 0.206-0.5 0.224-0.706 0.039-0.206-0.184-0.223-0.5-0.039-0.706 0.397-0.444 0.622-1.013 0.636-1.608l-1.89-7.559H17v3.5c0 0.276-0.224 0.5-0.5 0.5S16 4.775 16 4.499V1H8v3.5C8 4.776 7.776 5 7.5 5S7 4.776 7 4.5V1H2.891l-1.89 7.559C1.033 9.911 2.142 11 3.501 11h1c1.378 0 2.5-1.122 2.5-2.5 0-0.276 0.224-0.5 0.5-0.5s0.5 0.224 0.5 0.5c0 1.378 1.122 2.5 2.5 2.5h1c0.276 0 0.5 0.224 0.5 0.5s-0.224 0.5-0.5 0.5h-1c-1.28 0-2.39-0.698-3-1.726-0.61 1.028-1.72 1.726-3 1.726h-1c-0.539 0-1.044-0.133-1.5-0.351V20.5c0 1.379 1.122 2.5 2.5 2.5h6c0.276 0 0.5 0.224 0.499 0.5zM24 17.5c0 3.584-2.916 6.5-6.5 6.5S11 21.084 11 17.5 13.916 11 17.5 11 24 13.916 24 17.5zM23 17.5c0-3.032-2.467-5.5-5.5-5.5S12 14.468 12 17.5 14.467 23 17.5 23 23 20.532 23 17.5zM20.143 16.131l-2.706 2.618c-0.337 0.33-0.886 0.334-1.223 4e-3l-1.363-1.345c-0.196-0.194-0.513-0.191-0.707 4e-3-0.194 0.197-0.192 0.514 5e-3 0.707l1.364 1.347c0.362 0.354 0.837 0.531 1.312 0.531s0.951-0.178 1.311-0.533l2.703-2.614c0.198-0.192 0.204-0.509 0.012-0.707-0.191-0.198-0.508-0.203-0.708-0.012z" />
</svg>