<svg id="send_back_Layer_1" viewBox="0 0 24 24" fill="currentColor" width="32" height="32" data-name="Layer 1" xmlns="http://www.w3.org/2000/svg" xmlns:xlink="http://www.w3.org/1999/xlink">
    <title>send-back</title>
    <path d="M20.5 13H18V9.5C18 7.57 16.43 6 14.5 6H11V3.5C11 1.57 9.43 0 7.5 0h-4C1.57 0 0 1.57 0 3.5v4C0 9.43 1.57 11 3.5 11H6v3.5C6 16.43 7.57 18 9.5 18H13v2.5c0 1.93 1.57 3.5 3.5 3.5h4c1.93 0 3.5-1.57 3.5-3.5v-4c0-1.93-1.57-3.5-3.5-3.5zM1 7.5v-4C1 2.121 2.122 1 3.5 1h4C8.878 1 10 2.121 10 3.5v4C10 8.879 8.878 10 7.5 10h-4C2.122 10 1 8.879 1 7.5zM9.5 17C8.122 17 7 15.879 7 14.5V11h0.5C9.43 11 11 9.43 11 7.5V7h3.5C15.878 7 17 8.121 17 9.5V13h-0.5c-1.93 0-3.5 1.57-3.5 3.5V17zM23 20.5c0 1.379-1.122 2.5-2.5 2.5h-4c-1.378 0-2.5-1.121-2.5-2.5v-4c0-1.379 1.122-2.5 2.5-2.5h4c1.378 0 2.5 1.121 2.5 2.5z" />
</svg>