<svg id="send_backward_Layer_1" viewBox="0 0 24 24" fill="currentColor" width="32" height="32" data-name="Layer 1" xmlns="http://www.w3.org/2000/svg" xmlns:xlink="http://www.w3.org/1999/xlink">
    <title>send-backward</title>
    <path d="M6 15.5C6 15.776 5.776 16 5.5 16h-1C2.019 16 0 13.981 0 11.5v-7C0 2.019 2.019 0 4.5 0h7C13.981 0 16 2.019 16 4.5v1C16 5.776 15.776 6 15.5 6S15 5.776 15 5.5v-1C15 2.57 13.43 1 11.5 1h-7C2.57 1 1 2.57 1 4.5v7C1 13.43 2.57 15 4.5 15h1C5.776 15 6 15.224 6 15.5zM24 12.5v7c0 2.481-2.019 4.5-4.5 4.5h-7C10.019 24 8 21.981 8 19.5v-7C8 10.019 10.019 8 12.5 8h7c2.481 0 4.5 2.019 4.5 4.5zM23 12.5c0-1.93-1.57-3.5-3.5-3.5h-7C10.57 9 9 10.57 9 12.5v7c0 1.93 1.57 3.5 3.5 3.5h7c1.93 0 3.5-1.57 3.5-3.5z" />
</svg>