<svg id="send_money_Layer_1" viewBox="0 0 24 24" fill="currentColor" width="32" height="32" data-name="Layer 1" xmlns="http://www.w3.org/2000/svg" xmlns:xlink="http://www.w3.org/1999/xlink">
    <title>send-money</title>
    <path d="M24 2v4.5C24 6.776 23.776 7 23.5 7S23 6.776 23 6.5V2c0-0.086-0.029-0.164-0.049-0.244l-5.097 5.097c-0.098 0.098-0.226 0.146-0.354 0.146s-0.256-0.049-0.354-0.146c-0.195-0.195-0.195-0.512 0-0.707l5.097-5.097C22.163 1.028 22.086 1 21.999 1h-4.5c-0.276 0-0.5-0.224-0.5-0.5s0.224-0.5 0.5-0.5h4.5c1.103 0 2 0.897 2.001 2zM23.51 12.077c-0.27-0.039-0.51 0.199-0.523 0.475C22.698 18.41 17.873 23 12.001 23c-6.065 0-11-4.935-11-11C1 6.091 5.621 1.264 11.521 1.011 11.796 0.998 12.011 0.766 12 0.49c-0.013-0.275-0.21-0.493-0.521-0.479C5.042 0.287 0 5.554 0 12c0 6.617 5.383 12 12 12 6.405 0 11.67-5.007 11.984-11.399 0.014-0.275-0.198-0.51-0.474-0.524zM11.5 5.5V7h-1.005C9.119 7 8 8.119 8 9.495c0 1.108 0.744 2.095 1.81 2.398l4.106 1.174C14.554 13.25 15 13.84 15 14.505 15 15.329 14.329 16 13.505 16h-3.01C9.671 16 9 15.329 9 14.505V14c0-0.276-0.224-0.5-0.5-0.5S8 13.724 8 14v0.505C8 15.881 9.119 17 10.495 17H11.5v1.5c0 0.276 0.224 0.5 0.5 0.5s0.5-0.224 0.5-0.5V17h1.005C14.881 17 16 15.881 16 14.505c0-1.108-0.744-2.095-1.81-2.398l-4.106-1.174C9.446 10.75 9 10.16 9 9.495 9 8.671 9.671 8 10.495 8h3.01C14.329 8 15 8.671 15 9.495V10c0 0.276 0.224 0.5 0.5 0.5S16 10.276 16 10V9.495C16 8.119 14.881 7 13.505 7H12.5V5.5C12.5 5.224 12.276 5 12 5s-0.5 0.224-0.5 0.5z" />
</svg>