<svg id="send_money_smartphone_Layer_1" viewBox="0 0 24 24" fill="currentColor" width="32" height="32" data-name="Layer 1" xmlns="http://www.w3.org/2000/svg" xmlns:xlink="http://www.w3.org/1999/xlink">
    <title>send-money-smartphone</title>
    <path d="M15.5 16c-0.276 0-0.5 0.224-0.5 0.5V17H1V4.5C1 2.57 2.57 1 4.5 1h8C12.776 1 13 0.776 13 0.5S12.776 0 12.5 0h-8C2.019 0 0 2.019 0 4.5v15C0 21.981 2.019 24 4.5 24h7c2.481 0 4.5-2.019 4.5-4.5v-3c0-0.276-0.224-0.5-0.5-0.5zM11.5 23h-7C2.57 23 1 21.43 1 19.5V18h14v1.5c0 1.93-1.57 3.5-3.5 3.5zM9 20.5c0 0.552-0.448 1-1 1s-1-0.448-1-1 0.448-1 1-1 1 0.448 1 1zM11 11c0 0.552-0.448 1-1 1s-1-0.448-1-1 0.448-1 1-1 1 0.448 1 1zM11 6c0 0.552-0.448 1-1 1S9 6.552 9 6s0.448-1 1-1 1 0.448 1 1zM22 11c0 0.552-0.448 1-1 1s-1-0.448-1-1 0.448-1 1-1 1 0.448 1 1zM22 6c0 0.552-0.448 1-1 1s-1-0.448-1-1 0.448-1 1-1 1 0.448 1 1zM21.5 3h-12C8.122 3 7 4.121 7 5.5v6C7 12.879 8.122 14 9.5 14h12c1.378 0 2.5-1.121 2.5-2.5v-6C24 4.121 22.878 3 21.5 3zM23 11.5c0 0.827-0.673 1.5-1.5 1.5h-12C8.673 13 8 12.327 8 11.5v-6C8 4.673 8.673 4 9.5 4h12C22.327 4 23 4.673 23 5.5zM15.5 6C14.122 6 13 7.121 13 8.5s1.122 2.5 2.5 2.5S18 9.879 18 8.5 16.878 6 15.5 6zM15.5 10C14.673 10 14 9.327 14 8.5S14.673 7 15.5 7 17 7.673 17 8.5 16.327 10 15.5 10z" />
</svg>