<svg id="sensor_alert_Layer_1" viewBox="0 0 24 24" fill="currentColor" width="32" height="32" data-name="Layer 1" xmlns="http://www.w3.org/2000/svg" xmlns:xlink="http://www.w3.org/1999/xlink">
    <title>sensor-alert</title>
    <path d="M22.424 23.992h-3.442c-0.276 0-0.5-0.224-0.5-0.5s0.224-0.5 0.5-0.5h3.442c0.251 0 0.468-0.121 0.58-0.323 0.057-0.102 0.131-0.308-0.014-0.54l-6.884-10.832c-0.119-0.193-0.331-0.305-0.569-0.305v0c-0.239 0-0.451 0.112-0.567 0.3L8.08 22.133c-0.141 0.228-0.067 0.434-0.011 0.536 0.113 0.203 0.33 0.323 0.581 0.323h3.442c0.276 0 0.5 0.224 0.5 0.5s-0.224 0.5-0.5 0.5H8.65c-0.609 0-1.167-0.321-1.454-0.837-0.274-0.492-0.26-1.073 0.038-1.553l6.89-10.841c0.297-0.479 0.826-0.769 1.414-0.769v0c0.587 0 1.116 0.29 1.416 0.774l6.883 10.831c0.301 0.485 0.315 1.065 0.041 1.558-0.287 0.516-0.845 0.837-1.454 0.837zM16 20.5v-5c0-0.276-0.224-0.5-0.5-0.5S15 15.224 15 15.5v5c0 0.276 0.224 0.5 0.5 0.5s0.5-0.224 0.5-0.5zM5 23.5C5 23.224 4.776 23 4.5 23 2.57 23 1 21.43 1 19.5v-15C1 2.57 2.57 1 4.5 1h15C21.43 1 23 2.57 23 4.5v12c0 0.276 0.224 0.5 0.5 0.5s0.5-0.224 0.5-0.5v-12C24 2.019 21.981 0 19.5 0h-15C2.019 0 0 2.019 0 4.5v15C0 21.981 2.019 24 4.5 24 4.776 24 5 23.776 5 23.5zM4 3C3.448 3 3 3.448 3 4s0.448 1 1 1 1-0.448 1-1-0.448-1-1-1zM8 3C7.448 3 7 3.448 7 4s0.448 1 1 1 1-0.448 1-1-0.448-1-1-1zM15.5 22c-0.552 0-1 0.448-1 1s0.448 1 1 1 1-0.448 1-1-0.448-1-1-1z" />
</svg>