<svg id="sensor_on_Layer_1" viewBox="0 0 24 24" fill="currentColor" width="32" height="32" data-name="Layer 1" xmlns="http://www.w3.org/2000/svg" xmlns:xlink="http://www.w3.org/1999/xlink">
    <title>sensor-on</title>
    <path d="M11.5 24h-7C2.019 24 0 21.981 0 19.5v-7C0 10.019 2.019 8 4.5 8h7c2.481 0 4.5 2.019 4.5 4.5v7c0 2.481-2.019 4.5-4.5 4.5zM4.5 9C2.57 9 1 10.57 1 12.5v7C1 21.43 2.57 23 4.5 23h7c1.93 0 3.5-1.57 3.5-3.5v-7c0-1.93-1.57-3.5-3.5-3.5zM24 10.5C24 4.71 19.29 0 13.5 0 13.224 0 13 0.224 13 0.5S13.224 1 13.5 1c5.238 0 9.5 4.262 9.5 9.5 0 0.276 0.224 0.5 0.5 0.5s0.5-0.224 0.5-0.5zM20 10.5C20 6.916 17.084 4 13.5 4 13.224 4 13 4.224 13 4.5S13.224 5 13.5 5c3.032 0 5.5 2.467 5.5 5.5 0 0.276 0.224 0.5 0.5 0.5s0.5-0.224 0.5-0.5zM4 11c-0.552 0-1 0.448-1 1s0.448 1 1 1 1-0.448 1-1-0.448-1-1-1z" />
</svg>