<svg id="sensor_fire_Layer_1" viewBox="0 0 24 24" fill="currentColor" width="32" height="32" data-name="Layer 1" xmlns="http://www.w3.org/2000/svg" xmlns:xlink="http://www.w3.org/1999/xlink">
    <title>sensor-fire</title>
    <path d="M19.267 10.425c-0.526-0.458-1.024-0.89-1.413-1.278-0.099-0.098-0.238-0.159-0.371-0.146-0.139 5e-3-0.27 0.067-0.36 0.172-1.001 1.155-1.381 2.756-1.687 4.042-0.148 0.624-0.424 1.786-0.653 1.786-0.754 0-0.782-1.486-0.782-1.501 0-0.203-0.125-0.386-0.313-0.462-0.187-0.075-0.402-0.03-0.546 0.115-1.059 1.091-2.141 2.461-2.141 4.348 0 3.584 2.916 6.5 6.5 6.5s6.5-2.916 6.5-6.5c0-2.967-2.624-5.245-4.734-7.076zM16.086 22.45c-0.378-0.378-0.586-0.88-0.586-1.414s0.208-1.037 0.586-1.415l1.414-1.414 1.414 1.414c0.378 0.378 0.586 0.88 0.586 1.415s-0.208 1.036-0.586 1.414c-0.272 0.272-0.604 0.449-0.953 0.531C17.809 22.994 17.655 23 17.5 23s-0.309-7e-3-0.461-0.019c-0.35-0.082-0.681-0.259-0.953-0.531zM20.235 22.271c0.173-0.383 0.265-0.802 0.265-1.235 0-0.801-0.313-1.555-0.879-2.122l-1.768-1.768c-0.195-0.195-0.512-0.195-0.707 0l-1.768 1.768c-0.566 0.567-0.879 1.32-0.879 2.122 0 0.433 0.092 0.852 0.265 1.235-1.651-0.95-2.765-2.733-2.765-4.771 0-1.15 0.508-2.077 1.173-2.89 0.225 0.713 0.702 1.39 1.609 1.39 1.02 0 1.301-1.184 1.626-2.554 0.242-1.019 0.536-2.253 1.152-3.196 0.321 0.297 0.679 0.607 1.051 0.93 1.955 1.697 4.389 3.81 4.389 6.32 0 2.038-1.114 3.82-2.764 4.771zM24 4.5v7c0 0.276-0.224 0.5-0.5 0.5S23 11.776 23 11.5v-7C23 2.57 21.43 1 19.5 1h-15C2.57 1 1 2.57 1 4.5v15C1 21.43 2.57 23 4.5 23h7c0.276 0 0.5 0.224 0.5 0.5S11.776 24 11.5 24h-7C2.019 24 0 21.981 0 19.5v-15C0 2.019 2.019 0 4.5 0h15C21.981 0 24 2.019 24 4.5zM4 3c0.552 0 1 0.448 1 1S4.552 5 4 5 3 4.552 3 4 3.448 3 4 3zM8 3c0.552 0 1 0.448 1 1S8.552 5 8 5 7 4.552 7 4 7.448 3 8 3z" />
</svg>