<svg id="sensor_smoke_Layer_1" viewBox="0 0 24 24" fill="currentColor" width="32" height="32" data-name="Layer 1" xmlns="http://www.w3.org/2000/svg" xmlns:xlink="http://www.w3.org/1999/xlink">
    <title>sensor-smoke</title>
    <path d="M20.675 15.131c-0.33-0.074-0.859-0.197-1.095-0.761-0.965-2.33-3.392-3.704-5.905-3.335-2.178 0.317-3.993 1.972-4.515 4.116-0.2 0.822-0.213 1.65-0.04 2.462 0.056 0.263-0.066 0.508-0.306 0.61-1.377 0.591-2.096 2.087-1.709 3.557 0.264 1.005 1.083 1.825 2.089 2.089 0.242 0.063 0.485 0.099 0.72 0.104 0.652 0.019 8.81 0.018 9.672 0 0.323-7e-3 0.647-0.047 0.962-0.12 1.646-0.374 2.953-1.678 3.33-3.319 0.55-2.397-0.857-4.771-3.203-5.403zM22.904 20.311c-0.287 1.251-1.323 2.283-2.578 2.569-0.25 0.058-0.505 0.09-0.758 0.095-1.668 0.033-8.289 0.038-9.626 0-0.16-4e-3-0.326-0.028-0.493-0.071-0.662-0.174-1.202-0.714-1.375-1.376-0.294-1.118 0.349-2.046 1.137-2.384 0.681-0.292 1.046-1.008 0.889-1.739-0.142-0.663-0.131-1.341 0.034-2.016 0.427-1.752 1.909-3.104 3.688-3.363 0.222-0.032 0.443-0.048 0.663-0.048 1.811 0 3.469 1.076 4.174 2.777 0.435 1.042 1.365 1.253 1.757 1.342 1.825 0.493 2.918 2.344 2.488 4.214zM7 4c0-0.552 0.448-1 1-1s1 0.448 1 1-0.448 1-1 1-1-0.448-1-1zM24 4.5v9c0 0.276-0.224 0.5-0.5 0.5S23 13.776 23 13.5v-9C23 2.57 21.43 1 19.5 1L4.499 0.961C2.571 0.961 1 2.531 1 4.461V19.5C1 21.43 2.57 23 4.5 23h1C5.776 23 6 23.224 6 23.5S5.776 24 5.5 24h-1C2.019 24 0 21.981 0 19.5V4.461c0-2.481 2.019-4.5 4.5-4.5L19.501 0C21.981 0 24 2.019 24 4.5zM4 3c0.552 0 1 0.448 1 1S4.552 5 4 5 3 4.552 3 4 3.448 3 4 3z" />
</svg>