<svg id="september_calendar_Layer_1" viewBox="0 0 24 24" fill="currentColor" width="32" height="32" data-name="Layer 1" xmlns="http://www.w3.org/2000/svg" xmlns:xlink="http://www.w3.org/1999/xlink">
    <title>september-calendar</title>
    <path d="M19.5 2H18V0.5C18 0.224 17.776 0 17.5 0S17 0.224 17 0.5V2H7V0.5C7 0.224 6.776 0 6.5 0S6 0.224 6 0.5V2H4.5C2.019 2 0 4.019 0 6.5v13C0 21.981 2.019 24 4.5 24h1C5.776 24 6 23.776 6 23.5S5.776 23 5.5 23h-1C2.57 23 1 21.43 1 19.5V9h22v4.5c0 0.276 0.224 0.5 0.5 0.5s0.5-0.224 0.5-0.5v-7C24 4.019 21.981 2 19.5 2zM1 8V6.5C1 4.57 2.57 3 4.5 3h15C21.43 3 23 4.57 23 6.5V8zM21.5 16H20c-0.552 0-1 0.448-1 1v6.5c0 0.276 0.224 0.5 0.5 0.5s0.5-0.224 0.5-0.5V21h1.5c1.379 0 2.5-1.121 2.5-2.5S22.879 16 21.5 16zM21.5 20H20v-3h1.5c0.827 0 1.5 0.673 1.5 1.5S22.327 20 21.5 20zM15 17v2.5h2.5c0.276 0 0.5 0.224 0.5 0.5s-0.224 0.5-0.5 0.5H15V23h2.5c0.276 0 0.5 0.224 0.5 0.5S17.776 24 17.5 24H15c-0.552 0-1-0.448-1-1v-6c0-0.552 0.448-1 1-1h2.5c0.276 0 0.5 0.224 0.5 0.5S17.776 17 17.5 17zM12.946 22.056C12.763 23.183 11.784 24 10.617 24c-0.878 0-1.946-0.551-2.473-1.084-0.194-0.196-0.192-0.513 4e-3-0.707 0.196-0.195 0.513-0.191 0.707 4e-3C9.269 22.632 10.092 23 10.617 23c0.674 0 1.238-0.465 1.343-1.104 0.037-0.229 0.076-1.007-0.976-1.432-0.111-0.042-1.208-0.457-1.699-0.763-0.672-0.474-0.978-1.163-0.88-1.917 0.104-0.783 0.627-1.421 1.365-1.665 0.903-0.299 1.822-0.046 2.736 0.746 0.209 0.181 0.231 0.497 0.051 0.705-0.181 0.209-0.497 0.231-0.705 0.051-0.647-0.562-1.211-0.738-1.769-0.553-0.371 0.123-0.634 0.447-0.687 0.846-0.05 0.38 0.103 0.717 0.427 0.948 0.335 0.204 1.214 0.554 1.523 0.67 1.395 0.563 1.731 1.711 1.6 2.524z" />
</svg>