<svg id="settings_window_Layer_1" viewBox="0 0 24 24" fill="currentColor" width="32" height="32" data-name="Layer 1" xmlns="http://www.w3.org/2000/svg" xmlns:xlink="http://www.w3.org/1999/xlink">
    <title>settings-window</title>
    <path d="M19.5 0h-15C2.019 0 0 2.019 0 4.5v8C0 12.776 0.224 13 0.5 13S1 12.776 1 12.5V8h22v3.5c0 0.276 0.224 0.5 0.5 0.5s0.5-0.224 0.5-0.5v-7C24 2.019 21.981 0 19.5 0zM1 7V4.5C1 2.57 2.57 1 4.5 1h15C21.43 1 23 2.57 23 4.5V7zM5 4c0 0.552-0.448 1-1 1S3 4.552 3 4 3.448 3 4 3 5 3.448 5 4zM8 4c0 0.552-0.448 1-1 1S6 4.552 6 4 6.448 3 7 3 8 3.448 8 4zM11 4c0 0.552-0.448 1-1 1S9 4.552 9 4s0.448-1 1-1 1 0.448 1 1zM6 16c-1.103 0-2 0.897-2 2s0.897 2 2 2 2-0.897 2-2-0.897-2-2-2zM6 19c-0.552 0-1-0.448-1-1s0.448-1 1-1 1 0.448 1 1-0.448 1-1 1zM11.336 16.109c0.102-0.388 0.046-0.792-0.156-1.137-0.202-0.346-0.526-0.593-0.914-0.694-0.39-0.102-0.793-0.046-1.138 0.156l-0.225 0.131c-0.41-0.344-0.886-0.612-1.403-0.794V13.5C7.5 12.673 6.827 12 6 12s-1.5 0.673-1.5 1.5v0.271c-0.518 0.182-0.993 0.45-1.403 0.794l-0.225-0.131c-0.345-0.202-0.748-0.258-1.138-0.156-0.388 0.102-0.712 0.349-0.914 0.693-0.202 0.346-0.258 0.75-0.156 1.138s0.348 0.712 0.694 0.915l0.233 0.137C1.529 17.457 1.499 17.729 1.499 18s0.029 0.543 0.092 0.839l-0.234 0.137c-0.346 0.203-0.592 0.527-0.693 0.915-0.102 0.388-0.046 0.792 0.156 1.137 0.202 0.346 0.526 0.593 0.914 0.694 0.39 0.103 0.793 0.047 1.138-0.156l0.225-0.131c0.41 0.344 0.886 0.612 1.403 0.794V22.5C4.5 23.327 5.173 24 6 24s1.5-0.673 1.5-1.5v-0.271c0.518-0.182 0.993-0.45 1.403-0.794l0.225 0.131c0.345 0.203 0.748 0.259 1.138 0.156 0.388-0.102 0.712-0.349 0.914-0.693 0.202-0.346 0.258-0.75 0.156-1.138s-0.348-0.712-0.694-0.915l-0.233-0.137c0.062-0.296 0.092-0.568 0.092-0.839s-0.029-0.543-0.092-0.839l0.234-0.137c0.346-0.203 0.592-0.527 0.693-0.915zM9.352 17.053C9.454 17.411 9.5 17.711 9.5 17.999s-0.047 0.588-0.148 0.946c-0.062 0.219 0.032 0.452 0.229 0.567l0.556 0.325c0.238 0.14 0.319 0.446 0.18 0.685-0.131 0.235-0.455 0.321-0.685 0.179L9.09 20.385c-0.194-0.114-0.445-0.082-0.606 0.079-0.432 0.435-0.988 0.749-1.608 0.909-0.221 0.058-0.375 0.257-0.375 0.484v0.642c0 0.275-0.225 0.5-0.5 0.5s-0.5-0.225-0.5-0.5v-0.642c0-0.228-0.154-0.427-0.375-0.484-0.62-0.16-1.177-0.475-1.608-0.909-0.097-0.097-0.225-0.147-0.354-0.147-0.087 0-0.174 0.022-0.252 0.068L2.37 20.701c-0.234 0.14-0.552 0.057-0.685-0.18-0.14-0.237-0.059-0.544 0.179-0.684l0.557-0.325c0.197-0.115 0.291-0.349 0.229-0.567-0.102-0.358-0.148-0.658-0.148-0.946s0.047-0.588 0.148-0.946c0.062-0.219-0.032-0.452-0.229-0.567l-0.556-0.325c-0.238-0.14-0.319-0.446-0.18-0.685 0.131-0.236 0.456-0.318 0.685-0.179l0.542 0.316c0.195 0.114 0.445 0.083 0.606-0.079 0.432-0.435 0.988-0.749 1.608-0.909 0.221-0.058 0.375-0.257 0.375-0.484v-0.642c0-0.275 0.225-0.5 0.5-0.5s0.5 0.225 0.5 0.5v0.642c0 0.228 0.154 0.427 0.375 0.484 0.62 0.16 1.177 0.475 1.608 0.909 0.161 0.162 0.412 0.193 0.606 0.079l0.542-0.316c0.233-0.141 0.553-0.057 0.685 0.18 0.14 0.237 0.059 0.544-0.179 0.684l-0.557 0.325c-0.197 0.115-0.291 0.349-0.229 0.567zM21.2 17.807l1.938-0.969c0.515-0.258 0.84-0.795 0.828-1.366-9e-3-0.576-0.354-1.103-0.923-1.357l-8.784-3.023c-0.634-0.213-1.318-0.053-1.782 0.415-0.479 0.479-0.629 1.157-0.402 1.815 0 0 3.021 8.778 3.026 8.793 0.238 0.526 0.771 0.872 1.366 0.881 0.571 0 1.085-0.317 1.342-0.829l0.983-1.968 2.311 2.302c0.631 0.656 1.774 0.655 2.401 0 0.658-0.631 0.657-1.773-2e-3-2.401zM22.797 21.793c-0.26 0.259-0.725 0.263-0.988-2e-3l-2.801-2.79c-0.112-0.113-0.271-0.169-0.434-0.139-0.158 0.025-0.294 0.126-0.366 0.27l-1.293 2.586c-0.085 0.171-0.257 0.277-0.439 0.277-0.195-3e-3-0.371-0.11-0.454-0.275l-3.001-8.725c-0.101-0.292-0.041-0.577 0.166-0.783 0.195-0.198 0.486-0.265 0.751-0.174l8.737 3.004c0.175 0.079 0.289 0.254 0.292 0.447 4e-3 0.19-0.104 0.368-0.275 0.454l-2.561 1.279c-0.144 0.072-0.244 0.209-0.27 0.368-0.026 0.158 0.026 0.32 0.141 0.434l2.796 2.782c0.131 0.131 0.203 0.306 0.203 0.492s-0.072 0.362-0.204 0.495z" />
</svg>