<svg id="sewing_machine_Layer_1" viewBox="0 0 24 24" fill="currentColor" width="32" height="32" data-name="Layer 1" xmlns="http://www.w3.org/2000/svg" xmlns:xlink="http://www.w3.org/1999/xlink">
    <title>sewing-machine</title>
    <path d="M22.991 19.047C22.993 19.031 23 19.017 23 19V6.5c0-2.31-1.756-4.197-4-4.449V0.5C19 0.224 18.776 0 18.5 0S18 0.224 18 0.5V2H5.5C5.329 2 5.166 2.032 5 2.051V0.5C5 0.224 4.776 0 4.5 0S4 0.224 4 0.5v1.776C2.258 2.897 1 4.547 1 6.5v6C1 13.327 1.673 14 2.5 14H4v1.5C4 15.776 4.224 16 4.5 16S5 15.776 5 15.5V14h1.5C7.327 14 8 13.327 8 12.5v-2C8 9.673 8.673 9 9.5 9h3c0.827 0 1.5 0.673 1.5 1.5V18H3.5C1.57 18 0 19.57 0 21.5v1C0 23.327 0.673 24 1.5 24h21c0.827 0 1.5-0.673 1.5-1.5v-1c0-0.955-0.387-1.821-1.009-2.453zM12.5 8h-3C8.122 8 7 9.122 7 10.5v2C7 12.776 6.776 13 6.5 13h-4C2.224 13 2 12.776 2 12.5v-6C2 4.57 3.57 3 5.5 3h13C20.43 3 22 4.57 22 6.5v11.851C21.544 18.132 21.039 18 20.5 18H15v-7.5C15 9.122 13.878 8 12.5 8zM23 22.5c0 0.275-0.224 0.5-0.5 0.5h-21C1.224 23 1 22.775 1 22.5v-1C1 20.121 2.122 19 3.5 19h17c1.378 0 2.5 1.121 2.5 2.5zM18.5 17c1.103 0 2-0.897 2-2s-0.897-2-2-2-2 0.897-2 2 0.897 2 2 2zM18.5 14c0.551 0 1 0.448 1 1s-0.449 1-1 1-1-0.448-1-1 0.449-1 1-1zM18.5 12c1.103 0 2-0.897 2-2s-0.897-2-2-2-2 0.897-2 2 0.897 2 2 2zM18.5 9c0.551 0 1 0.449 1 1s-0.449 1-1 1-1-0.449-1-1 0.449-1 1-1z" />
</svg>