<svg id="sewing_machine_alt_Layer_1" viewBox="0 0 24 24" fill="currentColor" width="32" height="32" data-name="Layer 1" xmlns="http://www.w3.org/2000/svg" xmlns:xlink="http://www.w3.org/1999/xlink">
    <title>sewing-machine-alt</title>
    <path d="M23.5 13c0.276 0 0.5-0.224 0.5-0.5v-6C24 6.224 23.776 6 23.5 6h-2c-0.01 0-0.018 5e-3-0.028 6e-3-0.496-1.088-1.384-1.998-2.477-2.479 0-9e-3 5e-3-0.017 5e-3-0.027v-2C19 1.224 18.776 1 18.5 1S18 1.224 18 1.5v1.678c-0.505-0.121-1.027-0.194-1.574-0.165L6.734 4.459C6.322 3.067 4.967 2.006 3.522 2 1.487 1.864-0.288 3.825-0.07 5.849l0.869 7.817C0.883 14.426 1.524 15 2.29 15H3v1.5C3 16.776 3.224 17 3.5 17S4 16.776 4 16.5V15h0.504c0.762 0 1.402-0.57 1.49-1.327l0.305-2.625 5.39 0.788C12.437 11.931 13 12.571 13 13.324v7.675H0.5c-0.276 0-0.5 0.224-0.5 0.5s0.224 0.5 0.5 0.5h23c0.276 0 0.5-0.224 0.5-0.5s-0.224-0.5-0.5-0.5H22V13zM22 7h1v5h-1zM5.001 13.558C4.972 13.81 4.758 14 4.504 14H2.29c-0.255 0-0.469-0.191-0.497-0.445L0.926 5.753C0.776 4.319 2.028 2.895 3.49 3c1.38-2e-3 2.521 1.323 2.425 2.686zM14 21v-7.675c0-1.256-0.939-2.322-2.176-2.479l-5.41-0.79 0.496-4.27c1e-3-0.01 2e-3-0.02 2e-3-0.03 6e-3-0.104-0.011-0.206-0.014-0.31l9.63-1.439c1.166-0.061 2.275 0.334 3.113 1.126 0.876 0.828 1.358 1.972 1.358 3.222V21zM17.5 16c-1.103 0-2 0.897-2 2s0.897 2 2 2 2-0.897 2-2-0.897-2-2-2zM17.5 19c-0.551 0-1-0.448-1-1s0.449-1 1-1 1 0.448 1 1-0.449 1-1 1zM17.5 11c-1.103 0-2 0.897-2 2s0.897 2 2 2 2-0.897 2-2-0.897-2-2-2zM17.5 14c-0.551 0-1-0.449-1-1s0.449-1 1-1 1 0.449 1 1-0.449 1-1 1z" />
</svg>