<svg id="shaka_Layer_1" viewBox="0 0 24 24" fill="currentColor" width="32" height="32" data-name="Layer 1" xmlns="http://www.w3.org/2000/svg" xmlns:xlink="http://www.w3.org/1999/xlink">
    <title>shaka</title>
    <path d="M21.916 1.034C20.433 0.755 18.966 1.996 19 3.499V7.19l-3.617-2.694c-1.054-0.834-2.716-0.596-3.494 0.499-0.496 0.667-0.601 1.503-0.366 2.241-0.749 2e-3-1.45 0.394-1.894 0.989-0.486 0.654-0.594 1.469-0.377 2.197-0.782-0.022-1.53 0.368-1.993 0.994-0.33 0.443-0.481 0.961-0.482 1.476l-2.812-2.096c-0.997-0.743-2.386-0.686-3.229 0.133-1.081 1-0.966 2.874 0.232 3.725l7.743 5.765c1.437 1.07 3.103 1.588 4.752 1.588 2.346 0 4.659-1.048 6.232-3.051l2.477-3.151c1.169-1.489 1.814-3.35 1.816-5.242l9e-3-6.954c2e-3-1.274-0.893-2.381-2.081-2.575zM12.692 5.592c0.464-0.651 1.445-0.796 2.079-0.305l1.591 1.186c0.657 0.49 0.794 1.425 0.306 2.083-0.417 0.582-1.261 0.772-1.885 0.422-0.03-0.024-1.805-1.341-1.871-1.381-0.578-0.506-0.686-1.378-0.22-2.005zM10.432 8.822c0.428-0.597 1.299-0.783 1.924-0.386 0.016 0.013 1.776 1.316 1.847 1.359 0.564 0.508 0.666 1.37 0.204 1.99-0.463 0.651-1.447 0.796-2.078 0.305l-1.591-1.186c0 0 0 0-1e-3 0-0.657-0.49-0.794-1.424-0.305-2.082zM8.062 12.012c0.464-0.651 1.444-0.796 2.078-0.305l1.592 1.187c0.657 0.49 0.794 1.424 0.305 2.083-0.463 0.651-1.449 0.795-2.078 0.305l-1.694-1.28c-0.563-0.508-0.664-1.369-0.203-1.99zM22.989 10.562c-2e-3 1.669-0.571 3.312-1.603 4.625l-2.477 3.151c-2.342 2.981-6.561 3.542-9.602 1.279l-7.743-5.765c-0.708-0.505-0.779-1.614-0.133-2.206 0.495-0.481 1.328-0.501 1.936-0.049l5.994 4.484c1.06 0.823 2.704 0.579 3.479-0.511 0.484-0.651 0.592-1.462 0.38-2.187 0.781 0 1.528-0.374 1.99-1.003 0.495-0.665 0.6-1.497 0.368-2.234 0.749-0.017 1.448-0.396 1.893-0.996 0.334-0.449 0.484-0.975 0.481-1.496l1.25 0.931c0.313 0.248 0.812-2e-3 0.799-0.401V3.499c-0.018-0.904 0.86-1.65 1.755-1.478 0.709 0.116 1.243 0.798 1.242 1.586z" />
</svg>