<svg id="shampoo_Layer_1" viewBox="0 0 24 24" fill="currentColor" width="32" height="32" data-name="Layer 1" xmlns="http://www.w3.org/2000/svg" xmlns:xlink="http://www.w3.org/1999/xlink">
    <title>shampoo</title>
    <path d="M11.02 0H4.981C2.872 0 1.019 1.501 0.576 3.569 0.194 5.352 0 7.18 0 9c0 3.649 0.724 8.187 1.33 11.35C1.735 22.465 3.594 24 5.749 24h4.501c2.155 0 4.014-1.535 4.419-3.65 0.606-3.164 1.33-7.701 1.33-11.35 0-1.82-0.193-3.647-0.575-5.431C14.973 1.468 13.161 0 11.02 0zM4.98 1h6.039c1.667 0 3.076 1.143 3.427 2.778 0.087 0.405 0.162 0.813 0.228 1.222H1.325c0.066-0.409 0.141-0.816 0.228-1.221C1.904 2.143 3.313 1 4.98 1zM13.687 20.162C13.372 21.807 11.926 23 10.25 23H5.749c-1.676 0-3.122-1.194-3.437-2.838C1.713 17.041 1 12.571 1 9 1 7.999 1.068 6.996 1.189 6h13.622C14.932 6.996 15 7.999 15 9c0 3.571-0.714 8.041-1.313 11.162zM21 12c1.103 0 2-0.897 2-2s-0.897-2-2-2-2 0.897-2 2 0.897 2 2 2zM21 9c0.552 0 1 0.449 1 1s-0.448 1-1 1-1-0.449-1-1 0.448-1 1-1zM8 10c-2.206 0-4 1.794-4 4s1.794 4 4 4 4-1.794 4-4-1.794-4-4-4zM8 17c-1.654 0-3-1.346-3-3s1.346-3 3-3 3 1.346 3 3-1.346 3-3 3zM21.329 17.11c0.111-0.269 0.171-0.56 0.171-0.86 0-1.241-1.01-2.25-2.25-2.25S17 15.009 17 16.25c0 0.754 0.386 1.43 0.973 1.84C17.373 18.718 17 19.565 17 20.5c0 1.93 1.57 3.5 3.5 3.5s3.5-1.57 3.5-3.5c0-1.643-1.142-3.015-2.671-3.39zM19.25 15c0.689 0 1.25 0.561 1.25 1.25 0 0.29-0.113 0.558-0.295 0.78-0.479 0.041-0.927 0.175-1.332 0.391C18.368 17.256 18 16.796 18 16.251c0-0.689 0.561-1.25 1.25-1.251zM20.5 23c-1.379 0-2.5-1.122-2.5-2.5 0-0.835 0.415-1.572 1.047-2.026 0.466-0.209 0.875-0.519 1.453-0.474 1.379 0 2.5 1.122 2.5 2.5S21.879 23 20.5 23z" />
</svg>