<svg id="share_square_Layer_1" viewBox="0 0 24 24" fill="currentColor" width="32" height="32" data-name="Layer 1" xmlns="http://www.w3.org/2000/svg" xmlns:xlink="http://www.w3.org/1999/xlink">
    <title>share-square</title>
    <path d="M17 18.5v1c0 2.48-2.02 4.5-4.5 4.5h-8C2.02 24 0 21.98 0 19.5v-8C0 9.02 2.02 7 4.5 7h2C6.78 7 7 7.22 7 7.5S6.78 8 6.5 8h-2C2.57 8 1 9.57 1 11.5v8C1 21.43 2.57 23 4.5 23h8c1.93 0 3.5-1.57 3.5-3.5v-1c0-0.28 0.22-0.5 0.5-0.5s0.5 0.22 0.5 0.5zM23.27 5.74 17.86 0.15c-0.19-0.2-0.51-0.2-0.71-0.01s-0.2 0.51-0.01 0.71l5.42 5.59c0.17 0.17 0.28 0.37 0.35 0.59C22.87 7.02 22.82 7 22.77 7H12.5C10.02 7 8 9.02 8 11.5v6C8 17.78 8.22 18 8.5 18S9 17.78 9 17.5v-6C9 9.57 10.57 8 12.5 8h10.27c0 0 0.09-0.01 0.14-0.03-0.07 0.22-0.18 0.42-0.35 0.59l-5.41 5.58c-0.19 0.2-0.19 0.51 0.01 0.71 0.1 0.09 0.22 0.14 0.35 0.14s0.26-0.05 0.36-0.15l5.41-5.58c0.97-0.97 0.97-2.56-0.01-3.52z" />
</svg>