<svg id="sheep_Layer_1" viewBox="0 0 24 24" fill="currentColor" width="32" height="32" data-name="Layer 1" xmlns="http://www.w3.org/2000/svg" xmlns:xlink="http://www.w3.org/1999/xlink">
    <title>sheep</title>
    <path d="M17 5c0 0.552-0.448 1-1 1s-1-0.448-1-1 0.448-1 1-1 1 0.448 1 1zM19 4c-0.552 0-1 0.448-1 1s0.448 1 1 1 1-0.448 1-1-0.448-1-1-1zM23.89 2.554c-0.407 0.653-1.148 1.104-1.955 1.298C21.966 4.065 22 4.278 22 4.5v3.879C22 10.647 20.318 12 17.5 12S13 10.646 13 8.379V7.075c-0.304 0.064-0.599 0.165-0.863 0.341-0.388 0.257-0.887 0.257-1.272 0-1.007-0.67-2.396-0.487-3.202 0.399C7.32 8.19 6.795 8.32 6.327 8.149 6.057 8.05 5.78 8 5.501 8c-1.378 0-2.5 1.122-2.5 2.5 1e-3 0.569-0.286 1.076-0.769 1.361C1.461 12.315 1.001 13.114 1.001 14s0.46 1.685 1.23 2.139c0.476 0.28 0.771 0.8 0.77 1.355 0 1.385 1.122 2.506 2.5 2.506 0.279 0 0.556-0.051 0.825-0.149 0.47-0.173 0.994-0.041 1.336 0.333 0.8 0.879 2.171 1.068 3.174 0.42 0.404-0.262 0.926-0.262 1.33 0 1.002 0.648 2.374 0.459 3.173-0.419 0.344-0.375 0.869-0.507 1.335-0.335 0.271 0.1 0.548 0.15 0.827 0.15 1.378 0 2.5-1.121 2.5-2.5-1e-3-0.562 0.293-1.081 0.77-1.361 0.771-0.454 1.23-1.253 1.23-2.139 0-0.286-0.048-0.565-0.143-0.832-0.093-0.26 0.042-0.546 0.302-0.639 0.261-0.094 0.547 0.043 0.639 0.302 0.134 0.375 0.202 0.767 0.202 1.168 0 1.243-0.644 2.365-1.723 3-0.174 0.103-0.278 0.286-0.277 0.492 0 1.396-0.822 2.592-2 3.157v1.851c0 0.827-0.673 1.5-1.5 1.5s-1.5-0.673-1.5-1.5v-1.573c-0.655 0.678-1.557 1.073-2.5 1.073-0.665 0-1.314-0.192-1.878-0.557-0.075-0.049-0.168-0.049-0.244 0-1.01 0.653-2.313 0.685-3.378 0.191v0.866c0 0.827-0.673 1.5-1.5 1.5s-1.5-0.673-1.5-1.5v-1.551c-1.692-0.245-3-1.691-3-3.449 0-0.214-0.103-0.397-0.277-0.5-1.079-0.635-1.723-1.757-1.723-3s0.644-2.365 1.723-3c0.174-0.103 0.278-0.287 0.277-0.492 0-1.938 1.57-3.508 3.5-3.508 0.397 0 0.791 0.071 1.171 0.211 0.084 0.03 0.185 3e-3 0.252-0.07 1.124-1.231 3.101-1.486 4.495-0.558 0.049 0.032 0.114 0.033 0.165 0 0.431-0.287 0.914-0.472 1.417-0.546V4.499c0-0.222 0.034-0.435 0.065-0.648-0.807-0.194-1.548-0.644-1.955-1.298-0.258-0.414-0.044-0.96 0.431-1.072 0.706-0.167 1.912-0.402 3.277-0.574 0.751-0.562 1.673-0.908 2.682-0.908s1.93 0.345 2.682 0.908c1.364 0.172 2.571 0.407 3.277 0.574 0.475 0.113 0.689 0.658 0.43 1.073zM17.5 21c-0.168 0-0.334-0.02-0.5-0.045V22.5c0 0.275 0.224 0.5 0.5 0.5s0.5-0.225 0.5-0.5v-1.551C17.835 20.973 17.671 21 17.5 21zM6 20.955V22.5C6 22.775 6.224 23 6.5 23S7 22.775 7 22.5c0 0 0.01-1.54 0.012-1.56-0.028-0.029-0.062-0.051-0.089-0.081-0.067-0.073-0.168-0.102-0.252-0.069C6.452 20.871 6.227 20.922 6 20.955zM21 4.5C21 2.57 19.43 1 17.5 1S14 2.57 14 4.5v3.879C14 10.66 16.193 11 17.5 11S21 10.66 21 8.379z" />
</svg>