<svg id="shekel_sign_Layer_1" viewBox="0 0 24 24" fill="currentColor" width="32" height="32" data-name="Layer 1" xmlns="http://www.w3.org/2000/svg" xmlns:xlink="http://www.w3.org/1999/xlink">
    <title>shekel-sign</title>
    <path d="M2.5 24C2.224 24 2 23.776 2 23.5v-21C2 1.121 3.121 0 4.5 0h4C12.636 0 16 3.364 16 7.5v10c0 0.276-0.224 0.5-0.5 0.5S15 17.776 15 17.5v-10C15 3.916 12.084 1 8.5 1h-4C3.673 1 3 1.673 3 2.5v21C3 23.776 2.776 24 2.5 24zM22 16.5v-16C22 0.224 21.776 0 21.5 0S21 0.224 21 0.5v16c0 3.584-2.916 6.5-6.5 6.5h-4C9.673 23 9 22.327 9 21.5v-15C9 6.224 8.776 6 8.5 6S8 6.224 8 6.5v15c0 1.379 1.121 2.5 2.5 2.5h4c4.136 0 7.5-3.364 7.5-7.5z" />
</svg>