<svg id="shelves_Layer_1" viewBox="0 0 24 24" fill="currentColor" width="32" height="32" data-name="Layer 1" xmlns="http://www.w3.org/2000/svg" xmlns:xlink="http://www.w3.org/1999/xlink">
    <title>shelves</title>
    <path d="M23.5 0h-6C16.122 0 15 1.121 15 2.5V8H1V0.5C1 0.224 0.776 0 0.5 0S0 0.224 0 0.5v23C0 23.776 0.224 24 0.5 24S1 23.776 1 23.5V21h22v2.5c0 0.276 0.224 0.5 0.5 0.5s0.5-0.224 0.5-0.5v-23C24 0.224 23.776 0 23.5 0zM16 2.5C16 1.673 16.673 1 17.5 1H23v7h-7zM1 14.5C1 13.673 1.673 13 2.5 13h4C7.327 13 8 13.673 8 14.5V20H1zM16 20H9v-5.5c0-0.827 0.673-1.5 1.5-1.5h4c0.827 0 1.5 0.673 1.5 1.5zM17 20v-5.5c0-1.379-1.122-2.5-2.5-2.5h-4c-0.817 0-1.544 0.394-2 1.002C8.044 12.394 7.317 12 6.5 12h-4c-0.562 0-1.082 0.187-1.5 0.501V9h22v11z" />
</svg>