<svg id="shield_divided_four_Layer_1" viewBox="0 0 24 24" fill="currentColor" width="32" height="32" data-name="Layer 1" xmlns="http://www.w3.org/2000/svg" xmlns:xlink="http://www.w3.org/1999/xlink">
    <title>shield-divided-four</title>
    <path d="M22 6.538c0-1.943-1.239-3.66-3.084-4.271l-6.759-2.242c-0.102-0.034-0.213-0.034-0.314 0L5.084 2.267C3.239 2.878 2 4.595 2 6.538L1.998 12c0 6.609 7.159 10.703 9.354 11.8 0 0 0.29 0.2 0.649 0.2s0.627-0.148 0.627-0.148c2.198-0.885 9.37-4.354 9.37-11.852zM21 6.538 20.998 11H12.5V1.193l6.102 2.023C20.037 3.692 21 5.027 21 6.538zM5.398 3.216 11.5 1.193V11H2.998L3 6.538c0-1.511 0.964-2.846 2.398-3.322zM3.006 12H11.5v10.635C9.179 21.428 3.09 17.711 3.006 12zM12.5 22.704V12h8.49c-0.075 6.549-6.224 9.75-8.49 10.704z" />
</svg>