<svg id="shield_trust_Layer_1" viewBox="0 0 24 24" fill="currentColor" width="32" height="32" data-name="Layer 1" xmlns="http://www.w3.org/2000/svg" xmlns:xlink="http://www.w3.org/1999/xlink">
    <title>shield-trust</title>
    <path d="M23.243 13.827 21 16.07v2.43c0 1.379-1.121 2.5-2.5 2.5h-2.43l-2.243 2.243c-0.504 0.504-1.165 0.756-1.827 0.756s-1.323-0.252-1.827-0.756L7.93 21H5.5C4.121 21 3 19.879 3 18.5v-2.43l-2.243-2.243c-1.007-1.007-1.007-2.647 0-3.654L3 7.93V5.5C3 4.122 4.121 3 5.5 3h2.43l2.243-2.243c0.975-0.977 2.68-0.977 3.654 0L16.07 3h2.43c0.439 0 0.871 0.116 1.25 0.334 0.239 0.138 0.321 0.444 0.183 0.683-0.138 0.241-0.446 0.322-0.683 0.183-0.228-0.131-0.486-0.201-0.75-0.201h-2.637c-0.133 0-0.26-0.053-0.354-0.146l-2.39-2.39c-0.598-0.599-1.643-0.599-2.24 0l-2.39 2.39C8.395 3.947 8.268 3.999 8.135 3.999H5.498c-0.827 0-1.5 0.673-1.5 1.5v2.637c0 0.133-0.053 0.26-0.146 0.354l-2.39 2.39c-0.617 0.618-0.617 1.623 0 2.24l2.39 2.39c0.094 0.094 0.146 0.221 0.146 0.354v2.637c0 0.827 0.673 1.5 1.5 1.5h2.637c0.133 0 0.26 0.053 0.354 0.146l2.39 2.39c0.598 0.598 1.643 0.598 2.24 0l2.39-2.39c0.094-0.094 0.221-0.146 0.354-0.146H18.5c0.827 0 1.5-0.673 1.5-1.5v-2.637c0-0.133 0.053-0.26 0.146-0.354l2.39-2.39c0.617-0.618 0.617-1.623 0-2.24l-0.89-0.89c-0.195-0.195-0.195-0.512 0-0.707s0.512-0.195 0.707 0l0.89 0.89c1.007 1.007 1.007 2.647 0 3.654zM10.879 13.52 7.852 10.525c-0.197-0.194-0.514-0.193-0.707 4e-3-0.194 0.196-0.192 0.513 4e-3 0.707l3.027 2.995c0.516 0.511 1.192 0.766 1.869 0.766s1.357-0.257 1.873-0.77l8.935-8.877c0.195-0.194 0.197-0.511 2e-3-0.707-0.193-0.195-0.51-0.198-0.707-2e-3l-8.935 8.877c-0.641 0.637-1.688 0.641-2.334 2e-3z" />
</svg>