<svg id="shield_check_Layer_1" viewBox="0 0 24 24" fill="currentColor" width="32" height="32" data-name="Layer 1" xmlns="http://www.w3.org/2000/svg" xmlns:xlink="http://www.w3.org/1999/xlink">
    <title>shield-check</title>
    <path d="M12 23.949c-0.077 0-0.153-0.018-0.224-0.053l-0.425-0.212c-2.194-1.098-9.354-5.191-9.354-11.8l2e-3-5.346c0-1.943 1.239-3.66 3.084-4.271l6.76-2.242c0.102-0.034 0.213-0.034 0.314 0l6.759 2.241C20.761 2.878 22 4.595 22 6.537l-3e-3 5.346c0 7.498-7.172 10.967-9.37 11.852l-0.441 0.177c-0.06 0.024-0.124 0.036-0.186 0.037zM12 1.027 5.398 3.216C3.963 3.692 3 5.027 3 6.538l-2e-3 5.346c0 6.035 6.736 9.874 8.801 10.906l0.224 0.112 0.232-0.093c2.051-0.825 8.743-4.052 8.743-10.924l3e-3-5.346c0-1.511-0.964-2.846-2.398-3.322z" />
    <path d="M10.981 15c-0.641 0-1.282-0.244-1.77-0.732l-3.056-2.905c-0.2-0.19-0.208-0.507-0.018-0.707 0.19-0.199 0.506-0.208 0.707-0.018l3.065 2.914c0.594 0.593 1.545 0.594 2.13 9e-3l5.612-5.42c0.2-0.191 0.517-0.185 0.707 0.013 0.192 0.198 0.187 0.515-0.012 0.707l-5.607 5.414c-0.483 0.483-1.121 0.726-1.758 0.725z" />
</svg>