<svg id="shield_keyhole_Layer_1" viewBox="0 0 24 24" fill="currentColor" width="32" height="32" data-name="Layer 1" xmlns="http://www.w3.org/2000/svg" xmlns:xlink="http://www.w3.org/1999/xlink">
    <title>shield-keyhole</title>
    <path d="M12 7c-1.379 0-2.5 1.121-2.5 2.5 0 1.208 0.86 2.218 2 2.45v3.55c0 0.276 0.224 0.5 0.5 0.5s0.5-0.224 0.5-0.5v-3.55c1.14-0.232 2-1.242 2-2.45 0-1.379-1.121-2.5-2.5-2.5zM12 11c-0.827 0-1.5-0.673-1.5-1.5S11.173 8 12 8s1.5 0.673 1.5 1.5S12.827 11 12 11zM18.764 2.216 12.157 0.025c-0.102-0.033-0.213-0.033-0.314 0l-6.606 2.19C3.301 2.858 2.001 4.658 2.001 6.697v5.236c0 6.609 7.159 10.702 9.354 11.8 0 0 0.319 0.266 0.649 0.266s0.627-0.214 0.627-0.214c2.198-0.884 9.37-4.351 9.37-11.852V6.697c0-2.04-1.301-3.841-3.237-4.481zM21 11.935c0 6.874-6.692 10.099-8.744 10.924l-0.231 0.094-0.224-0.112C9.737 21.809 3 17.972 3 11.936V6.7c0-1.607 1.025-3.027 2.551-3.533L12 1.028l6.449 2.139C19.974 3.673 21 5.093 21 6.7z" />
</svg>