<svg id="shield_slash_Layer_1" viewBox="0 0 24 24" fill="currentColor" width="32" height="32" data-name="Layer 1" xmlns="http://www.w3.org/2000/svg" xmlns:xlink="http://www.w3.org/1999/xlink">
    <title>shield-slash</title>
    <path d="M16.901 20.753c0.165 0.222 0.119 0.534-0.103 0.699-1.681 1.249-3.333 1.999-4.168 2.334 0 0-0.394 0.214-0.627 0.214s-0.649-0.266-0.649-0.266C9.16 22.637 2 18.546 2 11.934V6.499c0-0.276 0.224-0.5 0.5-0.5S3 6.223 3 6.499v5.435c0 6.037 6.736 9.873 8.801 10.905l0.224 0.112 0.231-0.094c0.791-0.317 2.354-1.026 3.945-2.209 0.222-0.165 0.535-0.119 0.7 0.105zM23.853 23.854C23.755 23.952 23.627 24 23.499 24s-0.256-0.049-0.354-0.146l-22.999-23c-0.195-0.196-0.195-0.512 0-0.708s0.512-0.195 0.708 0l2.888 2.888c0.445-0.362 0.947-0.638 1.494-0.819l6.607-2.19c0.102-0.033 0.213-0.033 0.314 0l6.606 2.19c1.936 0.642 3.236 2.442 3.236 4.482v5.236c0 2.539-0.827 4.859-2.457 6.901l4.311 4.311c0.195 0.195 0.195 0.512 0 0.709zM4.454 3.747 18.83 18.123c1.44-1.839 2.169-3.919 2.169-6.189V6.698c0-1.607-1.025-3.027-2.551-3.533l-6.449-2.139L5.55 3.165C5.152 3.297 4.784 3.493 4.454 3.747z" />
</svg>