<svg id="shield_security_risk_Layer_1" viewBox="0 0 24 24" fill="currentColor" width="32" height="32" data-name="Layer 1" xmlns="http://www.w3.org/2000/svg" xmlns:xlink="http://www.w3.org/1999/xlink">
    <title>shield-security-risk</title>
    <path d="M10.935 23.123c0.104 0.255 0.01 0.535-0.245 0.64l-0.5 0.201C10.13 23.988 10.066 24 10.003 24c-0.077 0-0.154-0.018-0.224-0.053l-0.425-0.213C7.16 22.638 0 18.546 0 11.935V6.699c0-2.039 1.3-3.84 3.236-4.482l6.607-2.192c0.102-0.033 0.213-0.033 0.314 0l6.606 2.19c1.936 0.642 3.236 2.442 3.236 4.482v2.302c0 0.276-0.224 0.5-0.5 0.5s-0.5-0.224-0.5-0.5V6.697c0-1.607-1.025-3.027-2.551-3.533L9.999 1.025 3.551 3.165C2.026 3.671 1 5.091 1 6.698v5.236c0 6.037 6.736 9.873 8.801 10.905l0.224 0.112 0.231-0.094c0.256-0.104 0.574 0.01 0.679 0.266zM24 17.5c0 3.584-2.916 6.5-6.5 6.5S11 21.084 11 17.5 13.916 11 17.5 11 24 13.916 24 17.5zM23 17.5c0-3.032-2.467-5.5-5.5-5.5S12 14.468 12 17.5 14.467 23 17.5 23 23 20.532 23 17.5zM17.5 19c0.276 0 0.5-0.224 0.5-0.5v-5c0-0.276-0.224-0.5-0.5-0.5S17 13.224 17 13.5v5c0 0.276 0.224 0.5 0.5 0.5zM17.5 20c-0.552 0-1 0.448-1 1s0.448 1 1 1 1-0.448 1-1-0.448-1-1-1z" />
</svg>