<svg id="shield_Layer_1" viewBox="0 0 24 24" fill="currentColor" width="32" height="32" data-name="Layer 1" xmlns="http://www.w3.org/2000/svg" xmlns:xlink="http://www.w3.org/1999/xlink">
    <title>shield</title>
    <path d="M12 24c-0.077 0-0.153-0.018-0.224-0.053l-0.425-0.212c-2.194-1.098-9.354-5.191-9.354-11.8l2e-3-5.346c0-1.943 1.239-3.66 3.084-4.271l6.76-2.241c0.102-0.034 0.213-0.034 0.314 0l6.759 2.241C20.761 2.93 22 4.647 22 6.589l-2e-3 5.346c0 7.499-7.172 10.967-9.37 11.852l-0.441 0.177C12.127 23.988 12.063 24 12 24zM12 1.078 5.398 3.267C3.963 3.743 3 5.078 3 6.589l-2e-3 5.346c0 6.035 6.736 9.874 8.801 10.906l0.224 0.112 0.232-0.093c2.051-0.825 8.743-4.053 8.743-10.924L21 6.59c0-1.511-0.964-2.846-2.398-3.322z" />
</svg>