<svg id="shield_plus_Layer_1" viewBox="0 0 24 24" fill="currentColor" width="32" height="32" data-name="Layer 1" xmlns="http://www.w3.org/2000/svg" xmlns:xlink="http://www.w3.org/1999/xlink">
    <title>shield-plus</title>
    <path d="M18.916 2.266 12.157 0.025c-0.102-0.034-0.213-0.034-0.314 0L5.084 2.267C3.239 2.878 2 4.595 2 6.538l-3e-3 5.346c0 6.609 7.16 10.703 9.354 11.8l0.425 0.212c0.07 0.035 0.146 0.053 0.224 0.053 0.063 0 0.126-0.012 0.187-0.036l0.441-0.177c2.198-0.885 9.369-4.354 9.369-11.852L22 6.538c0-1.943-1.239-3.66-3.084-4.272zM20.997 11.883c0 6.871-6.691 10.099-8.742 10.924L12.023 22.9l-0.224-0.112c-2.064-1.032-8.802-4.87-8.802-10.905L3 6.537c0-1.511 0.964-2.846 2.398-3.322L12 1.027l6.602 2.188C20.037 3.691 21 5.026 21 6.537z" />
    <path d="M16 11h-3.5V7.5C12.5 7.224 12.276 7 12 7s-0.5 0.224-0.5 0.5V11H8c-0.276 0-0.5 0.224-0.5 0.5S7.724 12 8 12h3.5v3.5c0 0.276 0.224 0.5 0.5 0.5s0.5-0.224 0.5-0.5V12H16c0.276 0 0.5-0.224 0.5-0.5S16.276 11 16 11z" />
</svg>