<svg id="shield_xmark_Layer_1" viewBox="0 0 24 24" fill="currentColor" width="32" height="32" data-name="Layer 1" xmlns="http://www.w3.org/2000/svg" xmlns:xlink="http://www.w3.org/1999/xlink">
    <title>shield-xmark</title>
    <path d="M18.764 2.216 12.157 0.025c-0.102-0.033-0.213-0.033-0.314 0l-6.607 2.19C3.3 2.858 2 4.658 2 6.697v5.236c0 6.611 7.16 10.703 9.354 11.8 0 0 0.421 0.266 0.649 0.266s0.627-0.214 0.627-0.214C14.828 22.901 22 19.434 22 11.933V6.697c0-2.04-1.301-3.841-3.236-4.481zM21 11.935c0 6.874-6.692 10.099-8.744 10.924l-0.231 0.094-0.224-0.112C9.736 21.809 3 17.973 3 11.936V6.7c0-1.607 1.025-3.027 2.551-3.533L12 1.028l6.449 2.139C19.974 3.673 21 5.093 21 6.7zM15.854 8.347l-3.146 3.146 3.146 3.146c0.195 0.195 0.195 0.512 0 0.707-0.098 0.098-0.226 0.146-0.354 0.146s-0.256-0.049-0.354-0.146L12 12.2 8.854 15.346c-0.098 0.098-0.226 0.146-0.354 0.146s-0.256-0.049-0.354-0.146c-0.195-0.195-0.195-0.512 0-0.707l3.146-3.146-3.146-3.146c-0.195-0.195-0.195-0.512 0-0.707s0.512-0.195 0.707 0l3.146 3.146 3.146-3.146c0.195-0.195 0.512-0.195 0.707 0s0.195 0.512 2e-3 0.707z" />
</svg>