<svg id="shield_cross_Layer_1" viewBox="0 0 24 24" fill="currentColor" width="32" height="32" data-name="Layer 1" xmlns="http://www.w3.org/2000/svg" xmlns:xlink="http://www.w3.org/1999/xlink">
    <title>shield-cross</title>
    <path d="M18.764 2.216l-6.607-2.19c-0.102-0.034-0.213-0.034-0.314 0l-6.606 2.19C3.301 2.858 2.001 4.659 2.001 6.698v5.236c0 6.609 7.16 10.703 9.354 11.8l0.425 0.212c0.07 0.035 0.147 0.053 0.224 0.053 0.063 0 0.126-0.012 0.187-0.036l0.441-0.177c2.198-0.885 9.37-4.353 9.37-11.852V6.698c0-2.039-1.3-3.841-3.238-4.482zM21 11.935c0 6.872-6.692 10.099-8.743 10.924l-0.232 0.093-0.224-0.112C9.736 21.808 3 17.97 3 11.934V6.698c0-1.607 1.025-3.027 2.551-3.533L12 1.027l6.449 2.138C19.975 3.671 21 5.091 21 6.698z" />
    <path d="M17 8h-4.5V3c0-0.276-0.224-0.5-0.5-0.5S11.5 2.724 11.5 3v5H7C6.724 8 6.5 8.224 6.5 8.5S6.724 9 7 9h4.5v11.472c0 0.276 0.224 0.5 0.5 0.5s0.5-0.224 0.5-0.5V9H17c0.276 0 0.5-0.224 0.5-0.5S17.276 8 17 8z" />
</svg>