<svg id="shield_exclamation_Layer_1" viewBox="0 0 24 24" fill="currentColor" width="32" height="32" data-name="Layer 1" xmlns="http://www.w3.org/2000/svg" xmlns:xlink="http://www.w3.org/1999/xlink">
    <title>shield-exclamation</title>
    <path d="M11.5 14.5v-9C11.5 5.224 11.724 5 12 5s0.5 0.224 0.5 0.5v9c0 0.276-0.224 0.5-0.5 0.5s-0.5-0.224-0.5-0.5zM22 6.589l-2e-3 5.346c0 7.5-7.172 10.968-9.37 11.852 0 0-0.416 0.214-0.627 0.214s-0.649-0.266-0.649-0.266c-2.194-1.097-9.354-5.189-9.354-11.8L2 6.589C2 4.646 3.239 2.93 5.084 2.318l6.759-2.241c0.102-0.033 0.213-0.033 0.314 0l6.759 2.24C20.761 2.929 22 4.645 22 6.589zM21 6.589c0-1.511-0.964-2.847-2.398-3.322L12 1.079 5.398 3.267C3.963 3.743 3 5.079 3 6.589l-2e-3 5.346c0 6.037 6.736 9.873 8.801 10.905l0.224 0.112 0.232-0.094c2.051-0.825 8.744-4.051 8.744-10.924zM12 17c-0.552 0-1 0.448-1 1s0.448 1 1 1 1-0.448 1-1-0.448-1-1-1z" />
</svg>