<svg id="shield_dog_Layer_1" viewBox="0 0 24 24" fill="currentColor" width="32" height="32" data-name="Layer 1" xmlns="http://www.w3.org/2000/svg" xmlns:xlink="http://www.w3.org/1999/xlink">
    <title>shield-dog</title>
    <path d="M18.916 2.266 12.157 0.025c-0.102-0.034-0.213-0.034-0.314 0L5.084 2.266C3.239 2.877 2 4.594 2 6.537l-2e-3 5.397c0 6.609 7.159 10.703 9.354 11.8 0 0 0.405 0.265 0.649 0.265s0.627-0.213 0.627-0.213c2.198-0.885 9.37-4.354 9.37-11.852l3e-3-5.397c0-1.943-1.239-3.66-3.085-4.271zM20.997 11.934c0 6.872-6.691 10.099-8.743 10.924l-0.232 0.093-0.224-0.112c-2.064-1.032-8.801-4.871-8.801-10.906l2e-3-5.397c0-1.511 0.964-2.846 2.398-3.322l6.602-2.189 6.602 2.188c1.435 0.476 2.398 1.811 2.398 3.322zM16.448 9.999c-0.628 0-1.5-0.354-1.954-1.032C13.912 8.1 12.991 7.561 12 7.498V6.243c0-0.423-0.213-0.814-0.571-1.045-0.349-0.226-0.781-0.261-1.156-0.092-1.078 0.483-1.774 1.558-1.774 2.739v1.046l-1.253 2.503c-0.227 0.466-0.299 0.983-0.208 1.495 0.284 1.616 1.422 3.5 2.898 4.8 0.232 0.204 0.523 0.312 0.823 0.312 0.125 0 0.25-0.019 0.374-0.057 0.423-0.13 0.742-0.462 0.858-0.914L12.409 15h2.205c1.756 0 3.239-1.329 3.377-3.026 0.051-0.621-0.091-1.117-0.42-1.475-0.447-0.484-1.054-0.499-1.123-0.5zM16.993 11.892c-0.097 1.182-1.142 2.107-2.381 2.107H12c-0.237 0-0.442 0.167-0.49 0.399l-0.494 2.405c-0.033 0.126-0.135 0.17-0.178 0.184-0.052 0.015-0.151 0.03-0.242-0.05-1.296-1.142-2.33-2.838-2.574-4.223-0.053-0.302-0.01-0.608 0.121-0.878l1.304-2.604C9.482 9.163 9.5 9.086 9.5 9.008V7.844c0-0.788 0.464-1.504 1.183-1.827 0.029-0.013 0.057-0.018 0.083-0.018 0.052 0 0.095 0.021 0.121 0.038 0.027 0.018 0.114 0.083 0.114 0.206v1.749c0 0.276 0.224 0.5 0.5 0.5h0.305c0.73 0 1.425 0.386 1.859 1.033 0.682 1.019 1.89 1.475 2.784 1.475 2e-3 0 0.235 0.013 0.386 0.176 0.165 0.179 0.178 0.488 0.158 0.716z" />
</svg>