<svg id="shield_cat_Layer_1" viewBox="0 0 24 24" fill="currentColor" width="32" height="32" data-name="Layer 1" xmlns="http://www.w3.org/2000/svg" xmlns:xlink="http://www.w3.org/1999/xlink">
    <title>shield-cat</title>
    <path d="M18.916 2.266 12.157 0.025c-0.102-0.034-0.213-0.034-0.314 0L5.084 2.266C3.239 2.877 2 4.594 2 6.537l-3e-3 5.397c0 6.609 7.16 10.703 9.354 11.8 0 0 0.43 0.265 0.648 0.265s0.628-0.213 0.628-0.213c2.198-0.885 9.369-4.354 9.369-11.852l3e-3-5.397c0-1.943-1.239-3.66-3.083-4.271zM20.997 11.934c0 6.871-6.691 10.099-8.742 10.924l-0.232 0.093-0.224-0.112c-2.064-1.032-8.802-4.87-8.802-10.905L3 6.537c0-1.511 0.964-2.846 2.398-3.322L12 1.026l6.602 2.188C20.037 3.69 21 5.025 21 6.536zM16.995 6.911c0-0.391-0.238-0.727-0.605-0.857-0.355-0.125-0.733-0.029-0.983 0.242l-1.196 0.978c-0.141 0.116-0.32 0.154-0.46 0.1-1.143-0.446-2.356-0.447-3.501 0-0.137 0.055-0.317 0.016-0.459-0.101L8.595 6.295c-0.25-0.271-0.628-0.367-0.983-0.242C7.245 6.183 7.007 6.52 7.007 6.91c-7e-3 3.203 2e-3 5.12 2e-3 5.12 0 2.753 2.24 4.993 4.993 4.993s4.993-2.24 4.993-4.993c0 0 9e-3-1.927 0-5.119zM15.993 12.031c0 2.202-1.791 3.993-3.993 3.993s-3.993-1.792-3.993-3.993c0-0.016-9e-3-1.898-2e-3-4.925l1.152 0.942c0.423 0.345 0.98 0.442 1.456 0.257 0.91-0.355 1.864-0.355 2.772 0 0.475 0.186 1.033 0.088 1.457-0.257l1.152-1c6e-3 2.848-2e-3 4.968-1e-3 4.983zM11 11c0 0.552-0.448 1-1 1s-1-0.448-1-1 0.448-1 1-1 1 0.448 1 1zM15 11c0 0.552-0.448 1-1 1s-1-0.448-1-1 0.448-1 1-1 1 0.448 1 1z" />
</svg>