<svg id="shipping_fast_Layer_1" viewBox="0 0 24 24" fill="currentColor" width="32" height="32" data-name="Layer 1" xmlns="http://www.w3.org/2000/svg" xmlns:xlink="http://www.w3.org/1999/xlink">
    <title>shipping-fast</title>
    <path d="M0 9.5C0 9.224 0.224 9 0.5 9h5C5.776 9 6 9.224 6 9.5S5.776 10 5.5 10h-5C0.224 10 0 9.776 0 9.5zM24 10.5v5c0 1.496-0.944 2.776-2.268 3.276C21.908 19.16 22 19.574 22 20c0 1.654-1.346 3-3 3s-3-1.346-3-3c0-0.344 0.06-0.681 0.176-1H7.824C7.94 19.319 8 19.656 8 20c0 1.654-1.346 3-3 3s-3-1.346-3-3c0-0.426 0.092-0.84 0.268-1.224C0.944 18.276 0 16.996 0 15.5v-3C0 12.224 0.224 12 0.5 12S1 12.224 1 12.5v3C1 16.878 2.121 18 3.5 18H16V5.5C16 3.57 14.43 2 12.5 2 12.224 2 12 1.776 12 1.5S12.224 1 12.5 1C14.981 1 17 3.019 17 5.5V6h2.5c2.481 0 4.5 2.019 4.5 4.5zM17 7v5h6v-1.5C23 8.57 21.43 7 19.5 7zM6.723 19H3.5c-0.073 0-0.146-3e-3-0.219-7e-3C3.096 19.302 3 19.645 3 20c0 1.103 0.897 2 2 2s2-0.897 2-2c0-0.352-0.095-0.693-0.277-1zM20.719 18.993C20.647 18.998 20.574 19 20.5 19h-3.223C17.095 19.307 17 19.648 17 20c0 1.103 0.897 2 2 2s2-0.897 2-2c0-0.355-0.097-0.698-0.281-1.007zM23 15.5V13h-6v5h3.5c1.379 0 2.5-1.122 2.5-2.5zM0.5 2h9C9.776 2 10 1.776 10 1.5S9.776 1 9.5 1h-9C0.224 1 0 1.224 0 1.5S0.224 2 0.5 2zM0.5 6h7C7.776 6 8 5.776 8 5.5S7.776 5 7.5 5h-7C0.224 5 0 5.224 0 5.5S0.224 6 0.5 6z" />
</svg>