<svg id="shirt_Layer_1" viewBox="0 0 24 24" fill="currentColor" width="32" height="32" data-name="Layer 1" xmlns="http://www.w3.org/2000/svg" xmlns:xlink="http://www.w3.org/1999/xlink">
    <title>shirt</title>
    <path d="M21.732 3.914 20.306 3.099 18.518 1.311c-0.837-0.837-1.996-1.317-3.18-1.317h-4e-3L8.647-1e-3c-1.187 0-2.348 0.484-3.185 1.325l-1.77 1.777-1.425 0.814C0.868 4.714-1e-3 6.211-1e-3 7.822v11.679c0 2.481 2.019 4.5 4.5 4.5h3c0.276 0 0.5-0.224 0.5-0.5s-0.224-0.5-0.5-0.5h-3c-1.93 0-3.5-1.57-3.5-3.5V7.821c0-1.253 0.676-2.417 1.764-3.039L3.93 4.115 9.617 9.328l0.849 1.273-1.87 8.551c-0.25 0.873-5e-3 1.813 0.619 2.437l1.776 1.963C11.248 23.837 11.616 24 11.999 24v0c0.383 0 0.75-0.163 1.008-0.446l1.729-1.907c0.621-0.601 0.89-1.498 0.702-2.34l-1.906-8.706 0.849-1.273 5.687-5.213 1.167 0.667c1.088 0.622 1.764 1.786 1.764 3.039V19.5c0 1.93-1.57 3.5-3.5 3.5h-3c-0.276 0-0.5 0.224-0.5 0.5s0.224 0.5 0.5 0.5h3c2.481 0 4.5-2.019 4.5-4.5V7.821c0-1.611-0.869-3.108-2.267-3.907zM8.648 0.999l6.687-5e-3c0.172 0.023 0.265 8e-3 0.395 0.022l-3.729 3.315-3.726-3.312c0.124-0.013 0.249-0.021 0.373-0.02zM12.732 10h-1.465l-0.691-1.036 1.423-2.846 1.423 2.846zM6.171 2.029c0.281-0.283 0.61-0.513 0.967-0.684 0.01 0.01 0.02 0.02 0.03 0.029l4.213 3.746-1.532 3.064-5.127-4.701zM14.021 20.951l-1.752 1.931C12.175 22.985 12.061 23 12.001 23s-0.174-0.015-0.268-0.119L9.94 20.9c-0.385-0.385-0.531-0.95-0.374-1.503l1.837-8.396h1.195l1.866 8.522c0.113 0.506-0.048 1.045-0.443 1.428zM14.151 8.183 12.619 5.119l4.213-3.746c0.01-9e-3 0.021-0.019 0.03-0.028 0.35 0.169 0.672 0.396 0.95 0.673l1.466 1.466z" />
</svg>