<svg id="shish_kebab_Layer_1" viewBox="0 0 24 24" fill="currentColor" width="32" height="32" data-name="Layer 1" xmlns="http://www.w3.org/2000/svg" xmlns:xlink="http://www.w3.org/1999/xlink">
    <title>shish-kebab</title>
    <path d="M22.274 0.706c-1.34-0.938-3.209-0.939-4.549 0-1.569 1.101-2.15 3.093-1.413 4.844 0.255 0.607 0.137 1.278-0.308 1.713l-1.829 1.849-1.101-1.101c-1.305-1.305-3.58-1.305-4.885 0-0.652 0.652-1.012 1.52-1.012 2.443 0 0.289 0.047 0.569 0.116 0.842-1.14-0.285-2.394 5e-3-3.283 0.894-1.347 1.347-1.347 3.539 0 4.885l1.103 1.103-4.967 4.968c-0.195 0.195-0.195 0.512 0 0.707 0.098 0.098 0.226 0.146 0.354 0.146s0.256-0.049 0.354-0.146l4.968-4.968 1.103 1.103C7.577 20.64 8.445 21 9.367 21s1.79-0.359 2.442-1.012 1.012-1.52 1.012-2.443c0-0.289-0.047-0.569-0.116-0.842 0.276 0.069 0.556 0.116 0.839 0.116 0.885 0 1.77-0.336 2.443-1.01 1.347-1.347 1.347-3.539 0-4.885l-1.105-1.105 1.827-1.847c0.733-0.718 0.939-1.821 0.524-2.809-0.553-1.314-0.115-2.81 1.065-3.638 1.002-0.701 2.4-0.701 3.4 0 0.753 0.528 1.21 1.313 1.288 2.212 0.077 0.886-0.238 1.755-0.867 2.384-0.195 0.195-0.195 0.512 0 0.707s0.512 0.195 0.707 0c0.838-0.838 1.26-1.996 1.156-3.178-0.103-1.181-0.726-2.253-1.708-2.944zM11.821 17.545c0 0.656-0.255 1.272-0.719 1.736-0.928 0.927-2.543 0.927-3.471 0l-2.913-2.913c-0.956-0.957-0.956-2.514 0-3.471 0.479-0.478 1.107-0.717 1.736-0.717s1.257 0.239 1.735 0.717l2.912 2.912c0.464 0.464 0.719 1.08 0.72 1.736zM15.281 15.102c-0.956 0.955-2.514 0.957-3.472 0L8.897 12.19c-0.464-0.464-0.719-1.08-0.719-1.736s0.255-1.272 0.719-1.736c0.928-0.927 2.543-0.927 3.471 0l1.458 1.457c0 0 0 0 0 0s0 0 0 0l1.454 1.454c0.956 0.957 0.956 2.514 1e-3 3.473z" />
</svg>