<svg id="shopping_cart_check_Outline" viewBox="0 0 24 24" fill="currentColor" width="32" height="32" xmlns="http://www.w3.org/2000/svg" xmlns:xlink="http://www.w3.org/1999/xlink">
    <title>shopping-cart-check</title>
    <path d="M23.991 6.594l-0.918 4.785c-0.42 2.1-2.276 3.621-4.414 3.621H6.02c0.247 1.711 1.732 3 3.462 3h10.017c0.276 0 0.5 0.224 0.5 0.5s-0.224 0.5-0.5 0.5H9.482c-2.234 0-4.15-1.668-4.457-3.881L3.245 2.294C3.142 1.556 2.503 1 1.759 1H0.5C0.224 1 0 0.776 0 0.5S0.224 0 0.5 0h1.259c1.24 0 2.305 0.927 2.476 2.156L4.491 4H10.5C10.776 4 11 4.224 11 4.5S10.776 5 10.5 5H4.63l1.25 9h12.78c1.663 0 3.106-1.183 3.432-2.813l0.917-4.781c0.052-0.271 0.317-0.446 0.585-0.397 0.271 0.052 0.449 0.314 0.397 0.585zM9 22c0 1.103-0.897 2-2 2s-2-0.897-2-2 0.897-2 2-2 2 0.897 2 2zM8 22c0-0.551-0.449-1-1-1s-1 0.449-1 1 0.449 1 1 1 1-0.449 1-1zM19 22c0 1.103-0.897 2-2 2s-2-0.897-2-2 0.897-2 2-2 2 0.897 2 2zM18 22c0-0.551-0.449-1-1-1s-1 0.449-1 1 0.449 1 1 1 1-0.449 1-1zM15.845 6.311c0.477 0.456 1.097 0.683 1.717 0.683 0.639 0 1.278-0.241 1.759-0.722l4.554-4.554c0.195-0.195 0.195-0.512 0-0.707s-0.512-0.195-0.707 0l-4.554 4.554c-0.566 0.566-1.499 0.577-2.078 0.023l-2.69-2.572c-0.2-0.192-0.517-0.185-0.707 0.016-0.191 0.2-0.184 0.516 0.016 0.707z" />
</svg>