<svg id="shop_slash_Layer_1" viewBox="0 0 24 24" fill="currentColor" width="32" height="32" data-name="Layer 1" xmlns="http://www.w3.org/2000/svg" xmlns:xlink="http://www.w3.org/1999/xlink">
    <title>shop-slash</title>
    <path d="M13.5 17H3v-4.34C3.45 12.88 3.96 13 4.5 13h1c0.99 0 1.94-0.43 2.61-1.17 0.18-0.21 0.17-0.52-0.04-0.71-0.21-0.18-0.52-0.17-0.71 0.04-0.47 0.53-1.15 0.83-1.86 0.83h-1c-0.63 0-1.2-0.23-1.64-0.61-0.02-0.02-0.04-0.04-0.06-0.05-0.48-0.44-0.79-1.07-0.8-1.77l0.73-2.94c0.07-0.27-0.1-0.54-0.36-0.61-0.27-0.07-0.54 0.1-0.61 0.36 0 0-0.77 3.08-0.77 3.12 0 0.95 0.38 1.82 1 2.45v8.05c0 1.65 1.35 3 3 3h6c1.65 0 3-1.35 3-3v-2.5c0-0.28-0.22-0.5-0.49-0.49zM13 20c0 1.1-0.9 2-2 2H5c-1.1 0-2-0.9-2-2v-2h10zM23.85 23.15 22 21.3v-9.31c0 0 0-0.03 0-0.04 0.62-0.63 1-1.5 1-2.45 0-0.04-2.02-8.12-2.02-8.12C20.92 1.16 20.72 1 20.5 1h-17C3.27 1 3.07 1.16 3.02 1.38L2.83 2.12 0.85 0.15c-0.19-0.2-0.51-0.2-0.7 0s-0.2 0.51 0 0.7l11.99 12c0 0 0 0 0 0l11 11c0.1 0.1 0.23 0.15 0.35 0.15s0.26-0.05 0.35-0.15c0.2-0.2 0.2-0.51 0.01-0.7zM21 20.3l-7.45-7.45c0.82-0.26 1.52-0.81 1.95-1.54 0.61 1.02 1.73 1.7 3 1.7h1c0.54 0 1.05-0.12 1.5-0.34zM3.89 2H8v3.5C8 5.78 8.22 6 8.5 6S9 5.78 9 5.5V2h6v3.5C15 5.78 15.22 6 15.5 6S16 5.78 16 5.5V2h4.11L22 9.56C21.97 10.91 20.86 12 19.5 12h-1c-1.38 0-2.5-1.12-2.5-2.5 0-0.28-0.22-0.5-0.5-0.5S15 9.22 15 9.5c0 1.31-1.02 2.39-2.3 2.49L3.65 2.95z" />
</svg>