<svg id="shopping_cart_buyer_Layer_1" viewBox="0 0 24 24" fill="currentColor" width="32" height="32" data-name="Layer 1" xmlns="http://www.w3.org/2000/svg" xmlns:xlink="http://www.w3.org/1999/xlink">
    <title>shopping-cart-buyer</title>
    <path d="M19 12c-1.654 0-3 1.346-3 3s1.346 3 3 3 3-1.346 3-3-1.346-3-3-3zM19 17c-1.103 0-2-0.897-2-2s0.897-2 2-2 2 0.897 2 2-0.897 2-2 2zM7 20c-1.103 0-2 0.897-2 2s0.897 2 2 2 2-0.897 2-2-0.897-2-2-2zM7 23c-0.551 0-1-0.449-1-1s0.449-1 1-1 1 0.449 1 1-0.449 1-1 1zM23.951 6.99 23.13 11.098c-0.047 0.238-0.264 0.469-0.588 0.392-0.271-0.054-0.446-0.317-0.392-0.588l0.821-4.108c0.088-0.442-0.025-0.896-0.311-1.245S21.952 5 21.5 5H4.63l1.25 9h7.62c0.276 0 0.5 0.224 0.5 0.5S13.776 15 13.5 15H6.02c0.247 1.711 1.732 3 3.462 3h5.017c0.276 0 0.5 0.224 0.5 0.5s-0.224 0.5-0.5 0.5H9.482c-2.234 0-4.15-1.668-4.457-3.881L3.245 2.294C3.142 1.556 2.503 1 1.759 1H0.5C0.224 1 0 0.776 0 0.5S0.224 0 0.5 0h1.259c1.24 0 2.305 0.927 2.476 2.156L4.491 4H21.5c0.752 0 1.457 0.333 1.933 0.915s0.666 1.338 0.518 2.075z" />
    <path d="M23.997 23.444c0.031 0.274-0.166 0.522-0.44 0.553C23.538 23.999 23.519 24 23.5 24c-0.251 0-0.467-0.188-0.496-0.444C22.774 21.529 21.053 20 19.001 20s-3.773 1.529-4.003 3.556c-0.031 0.274-0.275 0.471-0.553 0.44-0.274-0.031-0.472-0.278-0.44-0.553 0.287-2.534 2.435-4.444 4.997-4.444s4.71 1.91 4.995 4.445z" />
</svg>