<svg id="shopping_bag_Outline" viewBox="0 0 24 24" fill="currentColor" width="32" height="32" xmlns="http://www.w3.org/2000/svg" xmlns:xlink="http://www.w3.org/1999/xlink">
    <title>shopping-bag</title>
    <path d="M21 6h-3c0-3.319-2.727-6.019-6.077-6.019C8.657-0.019 6 2.681 6 6H3C1.346 6 0 7.346 0 9v10.5C0 21.981 2.019 24 4.5 24h15c2.481 0 4.5-2.019 4.5-4.5V9c0-1.654-1.346-3-3-3zM11.923 0.981C14.723 0.981 17 3.232 17 6H7c0-2.768 2.208-5.019 4.923-5.019zM23 19.5c0 1.93-1.57 3.5-3.5 3.5h-15C2.57 23 1 21.43 1 19.5V9c0-1.103 0.897-2 2-2h3v3.5C6 10.776 6.224 11 6.5 11S7 10.776 7 10.5V7h10v3.5c0 0.276 0.224 0.5 0.5 0.5s0.5-0.224 0.5-0.5V7h3c1.103 0 2 0.897 2 2z" />
</svg>