<svg id="shopping_bag_add_Outline" viewBox="0 0 24 24" fill="currentColor" width="32" height="32" xmlns="http://www.w3.org/2000/svg" xmlns:xlink="http://www.w3.org/1999/xlink">
    <title>shopping-bag-add</title>
    <path d="M21 6h-3c0-3.309-2.691-6-6-6S6 2.691 6 6H3C1.346 6 0 7.346 0 9v10.5C0 21.981 2.019 24 4.5 24h12c0.276 0 0.5-0.224 0.5-0.5S16.776 23 16.5 23h-12C2.57 23 1 21.43 1 19.5V9c0-1.103 0.897-2 2-2h3v3.5C6 10.776 6.224 11 6.5 11S7 10.776 7 10.5V7h10v3.5c0 0.276 0.224 0.5 0.5 0.5s0.5-0.224 0.5-0.5V7h3c1.103 0 2 0.897 2 2v7.5c0 0.276 0.224 0.5 0.5 0.5s0.5-0.224 0.5-0.5V9c0-1.654-1.346-3-3-3zM7 6c0-2.757 2.243-5 5-5s5 2.243 5 5zM24 19.5c0 0.276-0.224 0.5-0.5 0.5H20v3.5c0 0.276-0.224 0.5-0.5 0.5S19 23.776 19 23.5V20h-3.5c-0.276 0-0.5-0.224-0.5-0.5s0.224-0.5 0.5-0.5H19v-3.5c0-0.276 0.224-0.5 0.5-0.5s0.5 0.224 0.5 0.5V19h3.5c0.276 0 0.5 0.224 0.5 0.5z" />
</svg>