<svg id="shopping_basket_Layer_1" viewBox="0 0 24 24" fill="currentColor" width="32" height="32" data-name="Layer 1" xmlns="http://www.w3.org/2000/svg" xmlns:xlink="http://www.w3.org/1999/xlink">
    <title>shopping-basket</title>
    <path d="M23.38 8.853C22.905 8.311 22.22 8 21.5 8h-0.566C20.433 3.479 16.603 0 12 0S3.567 3.479 3.066 8H2.5C1.78 8 1.095 8.311 0.62 8.853s-0.693 1.263-0.599 1.978l1.12 8.396c0.363 2.721 2.707 4.772 5.452 4.772h10.812c2.745 0 5.089-2.052 5.451-4.772l1.121-8.397c0.095-0.714-0.124-1.436-0.597-1.977zM12 1c4.054 0 7.434 3.035 7.93 7H4.07C4.565 4.035 7.946 1 12 1zM22.986 10.698l-1.12 8.396c-0.296 2.227-2.214 3.905-4.46 3.905H6.594c-2.246 0-4.164-1.679-4.461-3.905l-1.119-8.395c-0.058-0.43 0.073-0.862 0.358-1.188S2.068 8.999 2.5 8.999h19c0.432 0 0.843 0.187 1.128 0.512s0.416 0.758 0.358 1.187zM12.5 12.5v7c0 0.276-0.224 0.5-0.5 0.5s-0.5-0.224-0.5-0.5v-7c0-0.276 0.224-0.5 0.5-0.5s0.5 0.224 0.5 0.5zM18 12.5v7c0 0.276-0.224 0.5-0.5 0.5S17 19.776 17 19.5v-7c0-0.276 0.224-0.5 0.5-0.5s0.5 0.224 0.5 0.5zM7 12.5v7C7 19.776 6.776 20 6.5 20S6 19.776 6 19.5v-7C6 12.224 6.224 12 6.5 12S7 12.224 7 12.5z" />
</svg>