<svg id="shoulder_joint_Layer_1" viewBox="0 0 24 24" fill="currentColor" width="32" height="32" data-name="Layer 1" xmlns="http://www.w3.org/2000/svg" xmlns:xlink="http://www.w3.org/1999/xlink">
    <title>shoulder-joint</title>
    <path d="M9.802 12.486C8.656 13.544 8 15.202 8 17.037v6.462c0 0.276-0.224 0.5-0.5 0.5S7 23.775 7 23.499v-6.462c0-2.113 0.774-4.04 2.124-5.286 0.702-0.648 1.008-1.606 0.821-2.564-0.203-1.036-1.03-1.886-2.058-2.116-0.824-0.184-1.636-8e-3-2.288 0.495-0.48 0.373-1.123 0.531-1.81 0.451-0.278-0.034-0.56-0.019-0.84 0.044-0.955 0.212-1.74 1.025-1.909 1.979-0.145 0.818 0.102 1.621 0.676 2.201 0.828 0.836 1.283 1.949 1.283 3.134V23.5c0 0.276-0.224 0.5-0.5 0.5s-0.5-0.224-0.5-0.5v-8.125c0-0.92-0.353-1.783-0.994-2.431C0.2 12.13-0.146 11.008 0.057 9.866 0.298 8.505 1.373 7.387 2.733 7.085 3.125 6.999 3.52 6.979 3.909 7.024 4.33 7.074 4.716 6.986 4.988 6.775c0.891-0.689 1.998-0.93 3.119-0.68 1.409 0.315 2.542 1.48 2.82 2.9 0.254 1.301-0.166 2.605-1.125 3.491zM23.32 2.646C23.08 1.112 21.773 0 20.214 0c-1.106 0-2.077 0.19-2.966 0.582-2.251 0.989-4.593 0.529-6.164-0.032C10.061 0.185 8.987 0 7.893 0 2.125 0 1.509 4.394 1.504 4.438 1.47 4.711 1.663 4.959 1.936 4.995c0.275 0.04 0.523-0.157 0.56-0.43 0.02-0.146 0.537-3.564 5.397-3.564 0.979 0 1.939 0.166 2.855 0.492 1.741 0.622 4.354 1.129 6.902 5e-3 0.76-0.334 1.599-0.497 2.563-0.497 1.064 0 1.955 0.757 2.118 1.801 0.305 1.943 0.668 5.117 0.668 9.199 0 2.708-0.157 5.327-0.468 7.785-0.232 1.833-1.811 3.215-3.671 3.215-1.082 0-2.106-0.471-2.799-1.278l-5.17-6.533c-0.17-0.215-0.484-0.253-0.703-0.082-0.216 0.171-0.253 0.486-0.082 0.703l5.183 6.547C16.184 23.401 17.484 24 18.859 24c2.362 0 4.367-1.758 4.663-4.09 0.315-2.5 0.476-5.161 0.476-7.91 0-4.146-0.37-7.375-0.678-9.354z" />
</svg>