<svg id="shovel_snow_Layer_1" viewBox="0 0 24 24" fill="currentColor" width="32" height="32" data-name="Layer 1" xmlns="http://www.w3.org/2000/svg" xmlns:xlink="http://www.w3.org/1999/xlink">
    <title>shovel-snow</title>
    <path d="M23.854 4.646l-4.5-4.5c-0.195-0.195-0.512-0.195-0.707 0s-0.195 0.512 0 0.707l1.896 1.896-8.396 8.396c-0.011 0.011-0.021 0.023-0.031 0.035l-2.01-2.01c-1.56-1.56-4.098-1.56-5.657 0l-3.716 3.716c-0.975 0.975-0.975 2.561 0 3.536l6.844 6.844c0.487 0.487 1.127 0.731 1.768 0.731s1.281-0.244 1.768-0.731l3.716-3.716c1.56-1.56 1.56-4.098 0-5.657l-2.009-2.01c0.012-0.01 0.024-0.02 0.035-0.031l8.395-8.395 1.896 1.896c0.098 0.098 0.226 0.146 0.354 0.146s0.256-0.049 0.354-0.146c0.195-0.195 0.195-0.512 0-0.707zM14.122 18.844 10.406 22.56c-0.584 0.584-1.536 0.585-2.122 0l-0.569-0.569 4.138-4.138c0.195-0.195 0.195-0.512 0-0.707s-0.512-0.195-0.707 0l-4.138 4.138-1.793-1.793 4.138-4.138c0.195-0.195 0.195-0.512 0-0.707s-0.512-0.195-0.707 0l-4.138 4.138-1.793-1.793 4.138-4.138c0.195-0.195 0.195-0.512 0-0.707s-0.512-0.195-0.707 0l-4.138 4.138-0.569-0.569c-0.585-0.585-0.585-1.537 0-2.122l3.716-3.716c1.169-1.169 3.072-1.17 4.243 0l4.723 4.723c1.17 1.17 1.17 3.073 1e-3 4.244z" />
</svg>