<svg id="shower_gel_Layer_1" viewBox="0 0 24 24" fill="currentColor" width="32" height="32" data-name="Layer 1" xmlns="http://www.w3.org/2000/svg" xmlns:xlink="http://www.w3.org/1999/xlink">
    <title>shower-gel</title>
    <path d="M13.957 1c0.892 0 1.755 0.261 2.499 0.758l1.77 1.16c0.23 0.151 0.54 0.087 0.692-0.144 0.151-0.231 0.087-0.541-0.144-0.692l-1.767-1.158C16.101 0.32 15.046 0 13.956 0H7.999c-1.654 0-3 1.346-3 3v2.103C2.001 6.321 0 9.241 0 12.5v7C0 21.981 2.019 24 4.5 24h6c2.481 0 4.5-2.019 4.5-4.5v-7c0-3.259-2.001-6.179-5-7.397V1zM6 3c0-1.103 0.897-2 2-2h1v4H6zM14 12.5v7c0 1.93-1.57 3.5-3.5 3.5h-6C2.57 23 1 21.43 1 19.5v-7c0-2.881 1.785-5.464 4.455-6.509 0.016 1e-3 4.075 1e-3 4.09 0C12.214 7.036 14 9.619 14 12.5zM8.675 11.952c-0.658-0.643-1.691-0.643-2.35 0l-0.946 0.926c-1.17 1.17-1.17 3.072 0 4.242 0.566 0.566 1.32 0.879 2.121 0.879s1.555-0.312 2.121-0.879c1.17-1.17 1.17-3.072-4e-3-4.246zM8.914 16.414c-0.756 0.756-2.072 0.756-2.828 0-0.779-0.779-0.779-2.049-4e-3-2.824l0.942-0.922c0.133-0.13 0.305-0.196 0.476-0.196s0.343 0.065 0.476 0.195l0.938 0.918c0.779 0.779 0.779 2.049 0 2.829zM21 12c1.103 0 2-0.897 2-2s-0.897-2-2-2-2 0.897-2 2 0.897 2 2 2zM21 9c0.552 0 1 0.449 1 1s-0.448 1-1 1-1-0.449-1-1 0.448-1 1-1zM21.562 17.182c0.119-0.295 0.188-0.611 0.188-0.932 0-1.379-1.121-2.5-2.5-2.5s-2.5 1.121-2.5 2.5c0 0.828 0.406 1.576 1.061 2.037C17.312 18.892 17 19.656 17 20.5c0 1.93 1.57 3.5 3.5 3.5s3.5-1.57 3.5-3.5c0-1.557-1.029-2.865-2.438-3.318zM19.25 14.75c0.827 0 1.5 0.673 1.5 1.5 0 0.269-0.091 0.523-0.226 0.752-8e-3 0-0.016-2e-3-0.024-2e-3-0.708 0-1.366 0.215-1.918 0.578-0.504-0.254-0.832-0.756-0.832-1.328 0-0.827 0.673-1.5 1.5-1.5zM20.5 23c-1.379 0-2.5-1.121-2.5-2.5s1.121-2.5 2.5-2.5 2.5 1.121 2.5 2.5-1.121 2.5-2.5 2.5z" />
</svg>