<svg id="shower_down_Layer_1" viewBox="0 0 24 24" fill="currentColor" width="32" height="32" data-name="Layer 1" xmlns="http://www.w3.org/2000/svg" xmlns:xlink="http://www.w3.org/1999/xlink">
    <title>shower-down</title>
    <path d="M23.464 7.724C22.213 6.422 17.81 2.263 12.5 2.012V0.5C12.5 0.224 12.276 0 12 0s-0.5 0.224-0.5 0.5v1.512C6.19 2.263 1.788 6.422 0.537 7.724 0.191 8.083 0 8.558 0 9.062 0 10.13 0.869 11 1.938 11h20.125c1.068 0 1.938-0.869 1.938-1.938 0-0.504-0.19-0.979-0.537-1.338zM22.063 10H1.938C1.421 10 1 9.58 1 9.062 1 8.818 1.091 8.589 1.257 8.417 2.479 7.146 6.864 3 12 3s9.521 4.146 10.744 5.417C22.909 8.589 23 8.818 23 9.062 23 9.579 22.58 10 22.063 10zM11.324 19.321c-0.136 0.152-1.323 1.522-1.323 2.681 0 0.533 0.208 1.035 0.585 1.411 0.377 0.378 0.88 0.586 1.415 0.586s1.036-0.208 1.414-0.586 0.586-0.88 0.586-1.414c0-1.157-1.188-2.526-1.294-2.643-0.329-0.449-1.112-0.412-1.383-0.035zM12.708 22.707c-0.378 0.378-1.036 0.378-1.415 0-0.188-0.188-0.292-0.438-0.292-0.704 0-0.546 0.564-1.411 1-1.936 0.414 0.49 1 1.378 1 1.933 0 0.267-0.104 0.518-0.293 0.707zM6.001 19v0c-0.277 0-0.541 0.134-0.676 0.321-0.136 0.152-1.323 1.522-1.323 2.681 0 0.533 0.208 1.035 0.586 1.412C4.966 23.792 5.468 24 6.002 24s1.036-0.208 1.414-0.586 0.586-0.88 0.586-1.414c0-1.157-1.188-2.526-1.294-2.644C6.543 19.133 6.279 19 6.001 19zM6.708 22.707c-0.378 0.378-1.036 0.378-1.415 0-0.188-0.188-0.292-0.438-0.292-0.704 0-0.546 0.564-1.412 1-1.936 0.321 0.384 1 1.321 1 1.933 0 0.267-0.104 0.518-0.293 0.707zM18.001 19v0c-0.277 0-0.541 0.134-0.676 0.321-0.136 0.152-1.323 1.522-1.323 2.681 0 0.533 0.208 1.035 0.586 1.412 0.378 0.378 0.88 0.586 1.414 0.586s1.036-0.208 1.414-0.586 0.586-0.88 0.586-1.414c0-1.157-1.188-2.526-1.294-2.644C18.543 19.133 18.279 19 18.001 19zM18.708 22.707c-0.378 0.378-1.036 0.378-1.415 0-0.188-0.188-0.292-0.438-0.292-0.704 0-0.546 0.564-1.412 1-1.936 0.321 0.384 1 1.321 1 1.933 0 0.267-0.104 0.518-0.293 0.707zM11.001 16c0-1.157-1.188-2.526-1.294-2.644C9.542 13.133 9.278 13 9.001 13v0c-0.277 0-0.541 0.134-0.676 0.321-0.136 0.152-1.323 1.522-1.323 2.681 0 0.533 0.208 1.035 0.586 1.412C7.966 17.792 8.468 18 9.002 18s1.036-0.208 1.414-0.586 0.586-0.88 0.585-1.414zM9.708 16.707c-0.378 0.378-1.036 0.378-1.415 0-0.188-0.188-0.292-0.438-0.292-0.704 0-0.546 0.564-1.412 1-1.936 0.321 0.384 1 1.321 1 1.933 0 0.267-0.104 0.518-0.293 0.707zM17.001 16c0-1.157-1.188-2.526-1.294-2.643-0.329-0.448-1.112-0.412-1.383-0.036-0.136 0.152-1.323 1.522-1.323 2.681 0 0.533 0.208 1.035 0.586 1.412 0.378 0.378 0.88 0.586 1.414 0.586s1.036-0.208 1.414-0.586 0.586-0.88 0.586-1.414zM15.708 16.707c-0.378 0.378-1.036 0.378-1.415 0-0.188-0.188-0.292-0.438-0.292-0.704 0-0.546 0.564-1.412 1-1.936 0.321 0.384 1 1.321 1 1.933 0 0.267-0.104 0.518-0.293 0.707z" />
</svg>