<svg id="sidebar_Layer_1" viewBox="0 0 24 24" fill="currentColor" width="32" height="32" data-name="Layer 1" xmlns="http://www.w3.org/2000/svg" xmlns:xlink="http://www.w3.org/1999/xlink">
    <title>sidebar</title>
    <path d="M19.5 2h-15C2.019 2 0 4.019 0 6.5v11C0 19.981 2.019 22 4.5 22h15c2.481 0 4.5-2.019 4.5-4.5v-11C24 4.019 21.981 2 19.5 2zM1 17.5v-11C1 4.57 2.57 3 4.5 3H8v18H4.5C2.57 21 1 19.43 1 17.5zM23 17.5c0 1.93-1.57 3.5-3.5 3.5H9V3h10.5C21.43 3 23 4.57 23 6.5zM6 10.5C6 10.776 5.776 11 5.5 11h-2C3.224 11 3 10.776 3 10.5S3.224 10 3.5 10h2C5.776 10 6 10.224 6 10.5zM6 14.5C6 14.776 5.776 15 5.5 15h-2C3.224 15 3 14.776 3 14.5S3.224 14 3.5 14h2C5.776 14 6 14.224 6 14.5zM3 6.5C3 6.224 3.224 6 3.5 6h2C5.776 6 6 6.224 6 6.5S5.776 7 5.5 7h-2C3.224 7 3 6.776 3 6.5z" />
</svg>