<svg id="sidebar_flip_Layer_1" viewBox="0 0 24 24" fill="currentColor" width="32" height="32" data-name="Layer 1" xmlns="http://www.w3.org/2000/svg" xmlns:xlink="http://www.w3.org/1999/xlink">
    <title>sidebar-flip</title>
    <path d="M19.5 2h-15C2.019 2 0 4.019 0 6.5v11C0 19.981 2.019 22 4.5 22h15c2.481 0 4.5-2.019 4.5-4.5v-11C24 4.019 21.981 2 19.5 2zM1 17.5v-11C1 4.57 2.57 3 4.5 3H15v18H4.5C2.57 21 1 19.43 1 17.5zM23 17.5c0 1.93-1.57 3.5-3.5 3.5H16V3h3.5C21.43 3 23 4.57 23 6.5zM21 10.5c0 0.276-0.224 0.5-0.5 0.5h-2c-0.276 0-0.5-0.224-0.5-0.5s0.224-0.5 0.5-0.5h2c0.276 0 0.5 0.224 0.5 0.5zM21 14.5c0 0.276-0.224 0.5-0.5 0.5h-2c-0.276 0-0.5-0.224-0.5-0.5s0.224-0.5 0.5-0.5h2c0.276 0 0.5 0.224 0.5 0.5zM21 6.5C21 6.776 20.776 7 20.5 7h-2C18.224 7 18 6.776 18 6.5S18.224 6 18.5 6h2C20.776 6 21 6.224 21 6.5z" />
</svg>