<svg id="sign_posts_Layer_1" viewBox="0 0 24 24" fill="currentColor" width="32" height="32" data-name="Layer 1" xmlns="http://www.w3.org/2000/svg" xmlns:xlink="http://www.w3.org/1999/xlink">
    <title>sign-posts</title>
    <path d="M21 2.276V0.5C21 0.224 20.776 0 20.5 0S20 0.224 20 0.5v1.551C19.834 2.032 19.671 2 19.5 2h-15C4.329 2 4.166 2.032 4 2.051V0.5C4 0.224 3.776 0 3.5 0S3 0.224 3 0.5v1.776C1.258 2.898 0 4.547 0 6.5v7c0 1.953 1.258 3.602 3 4.224V23.5C3 23.776 3.224 24 3.5 24S4 23.776 4 23.5v-5.551C4.166 17.968 4.329 18 4.5 18h15c0.171 0 0.334-0.032 0.5-0.051V23.5c0 0.276 0.224 0.5 0.5 0.5s0.5-0.224 0.5-0.5v-5.776c1.742-0.621 3-2.271 3-4.224v-7c0-1.953-1.258-3.602-3-4.224zM23 13.5c0 1.93-1.57 3.5-3.5 3.5h-15C2.57 17 1 15.43 1 13.5v-7C1 4.57 2.57 3 4.5 3h15C21.43 3 23 4.57 23 6.5z" />
</svg>