<svg id="sign_posts_wrench_Layer_1" viewBox="0 0 24 24" fill="currentColor" width="32" height="32" data-name="Layer 1" xmlns="http://www.w3.org/2000/svg" xmlns:xlink="http://www.w3.org/1999/xlink">
    <title>sign-posts-wrench</title>
    <path d="M24 6.5v3c0 0.276-0.224 0.5-0.5 0.5S23 9.776 23 9.5v-3C23 4.57 21.43 3 19.5 3h-15C2.57 3 1 4.57 1 6.5v7C1 15.43 2.57 17 4.5 17h6c0.276 0 0.5 0.224 0.5 0.5S10.776 18 10.5 18h-6c-0.171 0-0.334-0.032-0.5-0.051V23.5C4 23.776 3.776 24 3.5 24S3 23.776 3 23.5v-5.776c-1.742-0.621-3-2.271-3-4.224v-7c0-1.953 1.258-3.602 3-4.224V0.5C3 0.224 3.224 0 3.5 0S4 0.224 4 0.5v1.551C4.166 2.032 4.329 2 4.5 2h15c0.171 0 0.334 0.032 0.5 0.051V0.5C20 0.224 20.224 0 20.5 0S21 0.224 21 0.5v1.776c1.742 0.621 3 2.271 3 4.224zM21.551 11.158c-0.301-0.2-0.688-0.218-1.01-0.044C20.207 11.293 20 11.636 20 12.012v2.375c0 0.79-0.534 1.475-1.243 1.592-0.451 0.072-0.885-0.046-1.227-0.336C17.193 15.356 17 14.94 17 14.499v-2.487c0-0.376-0.207-0.72-0.541-0.898-0.322-0.174-0.709-0.156-1.01 0.044C13.984 12.134 13 14.079 13 16c0 1.95 1.048 3.772 2.735 4.755C15.901 20.852 16 21.003 16 21.159V23.5c0 0.276 0.224 0.5 0.5 0.5s0.5-0.224 0.5-0.5v-2.341c0-0.516-0.284-0.99-0.761-1.268C14.857 19.086 14 17.595 14 15.999c0-1.575 0.824-3.224 2-3.987v2.487c0 0.734 0.322 1.429 0.883 1.905 0.562 0.477 1.306 0.681 2.036 0.561C20.106 16.77 21 15.661 21 14.387l-4e-3-2.397C22.176 12.776 23 14.425 23 16c0 1.596-0.857 3.087-2.239 3.892C20.284 20.169 20 20.644 20 21.16v2.341c0 0.276 0.224 0.5 0.5 0.5s0.5-0.224 0.5-0.5V21.16c0-0.156 0.099-0.308 0.265-0.404C22.953 19.774 24 17.951 24 16.001c0-1.921-0.984-3.866-2.449-4.843z" />
</svg>