<svg id="signal_alt_Layer_1" viewBox="0 0 24 24" fill="currentColor" width="32" height="32" data-name="Layer 1" xmlns="http://www.w3.org/2000/svg" xmlns:xlink="http://www.w3.org/1999/xlink">
    <title>signal-alt</title>
    <path d="M21 0c-1.654 0-3 1.346-3 3v18c0 1.654 1.346 3 3 3s3-1.346 3-3V3c0-1.654-1.346-3-3-3zM23 21c0 1.103-0.897 2-2 2s-2-0.897-2-2V3c0-1.103 0.897-2 2-2s2 0.897 2 2zM12 6c-1.654 0-3 1.346-3 3v12c0 1.654 1.346 3 3 3s3-1.346 3-3V9c0-1.654-1.346-3-3-3zM14 21c0 1.103-0.897 2-2 2s-2-0.897-2-2V9c0-1.103 0.897-2 2-2s2 0.897 2 2zM6 15v6c0 1.654-1.346 3-3 3s-3-1.346-3-3v-6c0-1.654 1.346-3 3-3s3 1.346 3 3z" />
</svg>