<svg id="sign_up_Layer_1" viewBox="0 0 24 24" fill="currentColor" width="32" height="32" data-name="Layer 1" xmlns="http://www.w3.org/2000/svg" xmlns:xlink="http://www.w3.org/1999/xlink">
    <title>sign-up</title>
    <path d="M8 4.5v2c0 0.31 0.282 0.554 0.603 0.49C8.839 6.943 9 6.722 9 6.482V6.001c-0.292 0-0.526-0.251-0.498-0.549 0.025-0.26 0.258-0.451 0.519-0.451h0.377C9.73 5.001 10 5.27 10 5.603v0.859c0 0.77-0.564 1.446-1.329 1.53C7.766 8.092 7 7.386 7 6.501V4.537c0-0.753 0.541-1.418 1.288-1.521 0.57-0.078 1.084 0.164 1.396 0.571 0.13 0.169 4e-3 0.414-0.209 0.414H8.501C8.225 4.001 8.001 4.225 8 4.5zM5.5 3C5.224 3 5 3.224 5 3.5v4C5 7.776 5.224 8 5.5 8S6 7.776 6 7.5v-4C6 3.224 5.776 3 5.5 3zM13.5 8C13.776 8 14 7.776 14 7.5V4.617c0-0.594-0.309-1.156-0.831-1.439C12.733 2.942 12.344 2.969 12 3.091L11.857 3.15C11.766 3.057 11.64 2.999 11.5 2.999c-0.276 0-0.5 0.224-0.5 0.5v4c0 0.276 0.224 0.5 0.5 0.5s0.5-0.224 0.5-0.5V4.518c0-0.24 0.161-0.461 0.397-0.508C12.718 3.946 13 4.19 13 4.5v3C13 7.776 13.224 8 13.5 8zM23 4.503c0 0.055-3e-3 0.111-9e-3 0.168C22.907 5.436 22.231 6 21.461 6H21v1.5C21 7.776 20.776 8 20.5 8S20 7.776 20 7.5v-4C20 3.224 20.224 3 20.5 3h1c0.829 0 1.501 0.673 1.5 1.503zM21.5 4H21v1h0.481c0.24 0 0.461-0.161 0.508-0.397C22.053 4.282 21.809 4 21.5 4zM16.5 3C16.224 3 16 3.224 16 3.5v3c0 0.885 0.766 1.59 1.671 1.491C18.436 7.907 19 7.232 19 6.462V3.501c0-0.276-0.224-0.5-0.5-0.5S18 3.225 18 3.501v2.981c0 0.24-0.161 0.461-0.397 0.508C17.282 7.054 17 6.81 17 6.5v-3C17 3.224 16.776 3 16.5 3zM19.854 23.146c0.195 0.195 0.195 0.512 0 0.707-0.098 0.098-0.226 0.146-0.354 0.146s-0.256-0.049-0.354-0.146l-4.379-4.382-3.382 3.382c-0.095 0.095-0.222 0.146-0.354 0.146-0.036 0-0.073-4e-3-0.108-0.012-0.167-0.038-0.304-0.157-0.362-0.318l-3.472-9.586c0 0-2e-3-6e-3-3e-3-8e-3-0.195-0.57-0.051-1.189 0.375-1.615 0.425-0.427 1.043-0.57 1.615-0.375l9.594 3.475c0.161 0.058 0.28 0.195 0.318 0.362 0.037 0.167-0.014 0.341-0.135 0.462l-3.379 3.379zM17.591 15.233 8.744 12.029c-0.201-0.07-0.419-0.018-0.576 0.138-0.155 0.156-0.207 0.373-0.137 0.581l3.203 8.842zM20 3e-3H4c-2.206 0-4 1.794-4 4v3c0 2.206 1.794 4 4.001 4l1.5-3e-3c0.276 0 0.5-0.225 0.499-0.501C6 10.223 5.776 10 5.5 10v0l-1.499 3e-3c-1.654 0-3-1.346-3-3V5.026c0.11 0.195 0.276 0.369 0.497 0.51 0 0 0.562 0.251 1.185 0.481 0.132 0.049 0.557 0.229 0.506 0.515C3.151 6.744 2.89 6.964 2.518 6.964c-0.258 0-0.51-0.069-0.72-0.193-0.193-0.114-0.439-0.078-0.605 0.072-0.256 0.232-0.215 0.648 0.083 0.823 0.366 0.216 0.795 0.333 1.242 0.333 0.846 0 1.558-0.541 1.691-1.286 0.1-0.562-0.154-1.295-1.167-1.669C2.497 4.842 2 4.624 1.987 4.624c-0.118-0.08-0.114-0.202-0.108-0.25 0.01-0.066 0.057-0.226 0.3-0.299 0.287-0.085 0.562-0.017 0.761 0.07 0.2 0.087 0.432 0.032 0.573-0.134 0.204-0.24 0.137-0.61-0.142-0.756-0.361-0.189-0.89-0.352-1.49-0.171C1.496 3.2 1.19 3.445 1.012 3.764c0.122-1.543 1.416-2.761 2.99-2.761h16c1.654 0 3 1.346 3 3v3c0 1.654-1.346 3-3 3l-6.5-3e-3c-0.276 0-0.5 0.224-0.5 0.5s0.224 0.5 0.5 0.5l6.5 3e-3c2.206 0 4-1.794 4-4v-3c-2e-3-2.206-1.796-4-4.002-4z" />
</svg>