<svg id="signal_stream_Layer_1" viewBox="0 0 24 24" fill="currentColor" width="32" height="32" data-name="Layer 1" xmlns="http://www.w3.org/2000/svg" xmlns:xlink="http://www.w3.org/1999/xlink">
    <title>signal-stream</title>
    <path d="M12 14c-1.1 0-2-0.9-2-2s0.9-2 2-2 2 0.9 2 2-0.9 2-2 2zM12 11c-0.55 0-1 0.45-1 1s0.45 1 1 1 1-0.45 1-1-0.45-1-1-1zM20.49 20.49c4.68-4.68 4.68-12.29 0-16.97-0.2-0.2-0.51-0.2-0.71 0s-0.2 0.51 0 0.71c4.29 4.29 4.29 11.27 0 15.56-0.2 0.2-0.2 0.51 0 0.71 0.1 0.1 0.23 0.15 0.35 0.15s0.26-0.05 0.36-0.16zM16.95 16.95c2.73-2.73 2.73-7.17 0-9.9-0.2-0.2-0.51-0.2-0.71 0s-0.2 0.51 0 0.71c2.34 2.34 2.34 6.15 0 8.49-0.2 0.2-0.2 0.51 0 0.71 0.1 0.1 0.23 0.15 0.35 0.15s0.26-0.05 0.36-0.16zM4.22 20.49c0.2-0.2 0.2-0.51 0-0.71-4.29-4.29-4.29-11.27 0-15.56 0.2-0.2 0.2-0.51 0-0.71s-0.51-0.2-0.71 0c-4.67 4.68-4.67 12.3 0 16.98 0.1 0.1 0.23 0.15 0.35 0.15s0.26-0.05 0.36-0.15zM7.76 16.95c0.2-0.2 0.2-0.51 0-0.71-2.34-2.34-2.34-6.15 0-8.49 0.2-0.2 0.2-0.51 0-0.71s-0.51-0.2-0.71 0C5.73 8.36 5 10.12 5 11.99s0.73 3.63 2.05 4.95c0.1 0.1 0.23 0.15 0.35 0.15s0.26-0.05 0.36-0.14z" />
</svg>