<svg id="signature_lock_Layer_1" viewBox="0 0 24 24" fill="currentColor" width="32" height="32" data-name="Layer 1" xmlns="http://www.w3.org/2000/svg" xmlns:xlink="http://www.w3.org/1999/xlink">
    <title>signature-lock</title>
    <path d="M22 15.34V13.5c0-1.93-1.57-3.5-3.5-3.5S15 11.57 15 13.5v1.84c-1.18 0.56-2 1.77-2 3.16v2c0 1.93 1.57 3.5 3.5 3.5h4c1.93 0 3.5-1.57 3.5-3.5v-2c0-1.39-0.82-2.6-2-3.16zM16 13.5c0-1.38 1.12-2.5 2.5-2.5s2.5 1.12 2.5 2.5v1.54C20.84 15.02 20.67 15 20.5 15h-4c-0.17 0-0.34 0.01-0.5 0.04zM23 20.5c0 1.38-1.12 2.5-2.5 2.5h-4c-1.38 0-2.5-1.12-2.5-2.5v-2c0-1.38 1.12-2.5 2.5-2.5h4c1.38 0 2.5 1.12 2.5 2.5zM19.5 19.5c0 0.55-0.45 1-1 1s-1-0.45-1-1 0.45-1 1-1 1 0.45 1 1zM11.5 6.04c-1.38 0-2.5 1.12-2.5 2.5 0 1.26 0.79 2.87 1.97 4.07-0.88 0.83-2.04 1.43-3.47 1.43-1 0-1.96-0.52-2.83-1.35C6.79 10.37 8 6.78 8 4.04c0-2.21-1.79-4-4-4s-4 1.79-4 4c0 2.7 1.3 6.29 3.27 8.62-0.83 0.72-1.78 1.21-2.83 1.34-0.27 0.03-0.47 0.28-0.44 0.56 0.03 0.27 0.29 0.47 0.56 0.44 1.28-0.16 2.42-0.75 3.4-1.6 1.06 1.01 2.26 1.65 3.54 1.65 4.21 0 6.5-4.29 6.5-6.5 0-1.38-1.12-2.5-2.5-2.51zM1 4.04c0-1.65 1.35-3 3-3s3 1.35 3 3c0 2.46-1.11 5.79-3.01 7.91C2.22 9.8 1 6.42 1 4.04zM11.64 11.87C10.56 10.76 10 9.4 10 8.54s0.67-1.5 1.5-1.5 1.5 0.67 1.5 1.5-0.46 2.17-1.36 3.33zM15.12 5.81c-0.17-0.22-0.12-0.53 0.1-0.7s0.53-0.12 0.7 0.1c0.49 0.65 0.84 1.41 1 2.2 0.06 0.27-0.12 0.54-0.39 0.59-0.03 0-0.07 0.01-0.1 0.01-0.23 0-0.44-0.16-0.49-0.4-0.14-0.66-0.41-1.26-0.82-1.8zM11 17.51c0 0.28-0.22 0.5-0.5 0.5h-10c-0.28 0-0.5-0.22-0.5-0.5s0.22-0.5 0.5-0.5h10c0.28 0 0.5 0.22 0.5 0.5z" />
</svg>