<svg id="sign_out_alt_Layer_1" viewBox="0 0 24 24" fill="currentColor" width="32" height="32" data-name="Layer 1" xmlns="http://www.w3.org/2000/svg" xmlns:xlink="http://www.w3.org/1999/xlink">
    <title>sign-out-alt</title>
    <path d="M24 12c0 0 0 2e-3 0 3e-3-2e-3 0.673-0.266 1.304-0.746 1.776l-4.142 4.077C19.015 17.952 18.888 18 18.761 18c-0.129 0-0.258-0.05-0.356-0.149-0.193-0.196-0.191-0.513 6e-3-0.707l4.142-4.077c0.164-0.162 0.281-0.356 0.356-0.566H6.5c-0.276 0-0.5-0.224-0.5-0.5s0.224-0.5 0.5-0.5h16.41c-0.075-0.213-0.192-0.409-0.358-0.572l-4.141-4.072c-0.197-0.193-0.2-0.51-6e-3-0.707 0.193-0.198 0.51-0.2 0.707-6e-3l4.141 4.072C23.734 10.69 24 11.322 24 11.998c0 0 0 1e-3 0 2e-3 0 0 0 0 0 0zM11.5 15c-0.276 0-0.5 0.224-0.5 0.5v4c0 1.93-1.57 3.5-3.5 3.5h-3C2.57 23 1 21.43 1 19.5v-15C1 2.57 2.57 1 4.5 1h3C9.43 1 11 2.57 11 4.5v4C11 8.776 11.224 9 11.5 9S12 8.776 12 8.5v-4C12 2.019 9.981 0 7.5 0h-3C2.019 0 0 2.019 0 4.5v15C0 21.981 2.019 24 4.5 24h3c2.481 0 4.5-2.019 4.5-4.5v-4c0-0.276-0.224-0.5-0.5-0.5z" />
</svg>