<svg id="sim_cards_Layer_1" viewBox="0 0 24 24" fill="currentColor" width="32" height="32" data-name="Layer 1" xmlns="http://www.w3.org/2000/svg" xmlns:xlink="http://www.w3.org/1999/xlink">
    <title>sim-cards</title>
    <path d="M18 23.5c0 0.276-0.224 0.5-0.5 0.5h-8C5.364 24 2 20.636 2 16.5v-12C2 4.224 2.224 4 2.5 4S3 4.224 3 4.5v12C3 20.084 5.916 23 9.5 23h8c0.276 0 0.5 0.224 0.5 0.5zM19 12v3c0 1.654-1.346 3-3 3h-5c-1.654 0-3-1.346-3-3v-3c0-1.654 1.346-3 3-3h5c1.654 0 3 1.346 3 3zM9 13h3v-3h-1c-1.103 0-2 0.897-2 2zM14 14H9v1c0 1.103 0.897 2 2 2h3zM18 14h-3v3h1c1.103 0 2-0.897 2-2zM18 12c0-1.103-0.897-2-2-2h-3v3h5zM22 5.742V16.5c0 2.481-2.019 4.5-4.5 4.5h-8C7.019 21 5 18.981 5 16.5v-12C5 2.019 7.019 0 9.5 0h6.758c0.921 0 1.823 0.374 2.475 1.025l2.242 2.242C21.626 3.918 22 4.821 22 5.742zM21 5.742c0-0.658-0.267-1.302-0.732-1.768l-2.242-2.242C17.56 1.266 16.917 1 16.258 1H9.5C7.57 1 6 2.57 6 4.5v12C6 18.43 7.57 20 9.5 20h8c1.93 0 3.5-1.57 3.5-3.5z" />
</svg>