<svg id="sink_Layer_1" viewBox="0 0 24 24" fill="currentColor" width="32" height="32" data-name="Layer 1" xmlns="http://www.w3.org/2000/svg" xmlns:xlink="http://www.w3.org/1999/xlink">
    <title>sink</title>
    <path d="M21 13h-1v-1.5c0-0.276-0.224-0.5-0.5-0.5S19 11.224 19 11.5V13h-6.5V4.254C12.5 2.46 13.96 1 15.754 1 17.559 1 18.895 2.131 19 3.718V4.5C19 4.776 19.224 5 19.5 5S20 4.776 20 4.5V3.685C19.857 1.55 18.072 0 15.754 0 13.408 0 11.5 1.908 11.5 4.254V13H5v-1.5C5 11.224 4.776 11 4.5 11S4 11.224 4 11.5V13H3c-1.654 0-3 1.346-3 3 0 4.411 3.589 8 8 8h8c4.411 0 8-3.589 8-8 0-1.654-1.346-3-3-3zM16 23H8c-3.859 0-7-3.14-7-7 0-1.103 0.897-2 2-2h18c1.103 0 2 0.897 2 2 0 3.86-3.141 7-7 7z" />
</svg>