<svg id="siren_on_Layer_1" viewBox="0 0 24 24" fill="currentColor" width="32" height="32" data-name="Layer 1" xmlns="http://www.w3.org/2000/svg" xmlns:xlink="http://www.w3.org/1999/xlink">
    <title>siren-on</title>
    <path d="M20.604 6.429c-0.196-0.194-0.198-0.511-4e-3-0.707l2.544-2.573c0.193-0.197 0.51-0.198 0.707-4e-3 0.196 0.194 0.198 0.511 4e-3 0.707l-2.544 2.573c-0.098 0.099-0.227 0.148-0.355 0.148-0.127 0-0.254-0.048-0.352-0.144zM16.878 3.7c0.073 0.038 0.152 0.056 0.229 0.056 0.181 0 0.355-0.098 0.444-0.27l1.419-2.737c0.127-0.245 0.031-0.547-0.214-0.674-0.244-0.128-0.547-0.033-0.674 0.214l-1.419 2.737c-0.127 0.245-0.031 0.547 0.215 0.674zM2.613 6.348C2.711 6.447 2.84 6.496 2.968 6.496c0.127 0 0.254-0.048 0.352-0.145 0.196-0.194 0.198-0.511 4e-3-0.707L0.855 3.148c-0.194-0.197-0.51-0.197-0.707-4e-3-0.196 0.194-0.198 0.511-4e-3 0.707zM6.447 3.486c0.089 0.172 0.263 0.27 0.444 0.27 0.078 0 0.156-0.018 0.229-0.056 0.245-0.127 0.341-0.429 0.214-0.674L5.917 0.289C5.79 0.043 5.488-0.051 5.243 0.075 4.998 0.202 4.902 0.504 5.029 0.749zM23.999 21.9c0 1.158-0.942 2.1-2.1 2.1H2.1C0.942 24 0 23.058 0 21.9 0 20.301 1.301 19 2.9 19h0.198l0.895-8.948C4.223 7.742 6.149 6 8.471 6h7.059c2.322 0 4.247 1.742 4.478 4.052L20.903 19h0.198c1.599 0 2.9 1.301 2.898 2.9zM4.102 19h15.793l-0.885-8.848C18.831 8.355 17.334 7 15.528 7H8.469c-1.806 0-3.303 1.355-3.482 3.152zM22.999 21.9c0-1.048-0.852-1.9-1.9-1.9H2.9C1.852 20 1 20.852 1 21.9 1 22.506 1.494 23 2.1 23h19.8c0.606 0 1.1-0.494 1.099-1.1zM11.499 10H9.424c-0.774 0-1.416 0.581-1.491 1.341l-0.251 2.1c-0.033 0.274 0.163 0.523 0.437 0.556C8.14 13.999 8.16 14 8.179 14c0.25 0 0.466-0.187 0.496-0.44l0.252-2.11C8.952 11.194 9.166 11 9.424 11h2.075c0.276 0 0.5-0.224 0.5-0.5s-0.224-0.5-0.5-0.5z" />
</svg>