<svg id="Siren_Layer_1" viewBox="0 0 24 24" fill="currentColor" width="32" height="32" data-name="Layer 1" xmlns="http://www.w3.org/2000/svg" xmlns:xlink="http://www.w3.org/1999/xlink">
    <title>Siren</title>
    <path d="M21.452 19.022 19.864 4.026C19.621 1.731 17.697 0 15.389 0H8.612C6.304 0 4.38 1.731 4.137 4.026L2.549 19.022C1.115 19.196 1e-3 20.42 1e-3 21.9c0 1.158 0.942 2.1 2.1 2.1h19.8c1.158 0 2.1-0.942 2.1-2.1 0-1.48-1.114-2.703-2.549-2.878zM5.13 4.131C5.319 2.346 6.816 1 8.611 1h6.777c1.795 0 3.292 1.346 3.481 3.131L20.444 19H3.556zM21.9 23H2.1C1.494 23 1 22.506 1 21.9 1 20.852 1.852 20 2.9 20h18.2c1.048 0 1.9 0.852 1.9 1.9 0 0.606-0.494 1.1-1.1 1.1zM7.683 7.44l0.251-2.1C8.01 4.58 8.651 3.999 9.425 3.999H11.5c0.276 0 0.5 0.224 0.5 0.5s-0.224 0.5-0.5 0.5H9.425c-0.258 0-0.472 0.193-0.497 0.45l-0.252 2.11c-0.03 0.254-0.247 0.44-0.496 0.44-0.02 0-0.04 0-0.06-3e-3C7.846 7.963 7.65 7.714 7.683 7.44z" />
</svg>