<svg id="site_browser_Layer_1" viewBox="0 0 24 24" fill="currentColor" width="32" height="32" data-name="Layer 1" xmlns="http://www.w3.org/2000/svg" xmlns:xlink="http://www.w3.org/1999/xlink">
    <title>site-browser</title>
    <path d="M19.5 1h-15C2.019 1 0 3.019 0 5.5v13C0 20.981 2.019 23 4.5 23h15c2.481 0 4.5-2.019 4.5-4.5v-13C24 3.019 21.981 1 19.5 1zM4.5 2h15C21.43 2 23 3.57 23 5.5V8H1V5.5C1 3.57 2.57 2 4.5 2zM19.5 22h-15C2.57 22 1 20.43 1 18.5V9h22v9.5c0 1.93-1.57 3.5-3.5 3.5zM3 5c0-0.552 0.448-1 1-1s1 0.448 1 1-0.448 1-1 1-1-0.448-1-1zM6 5c0-0.552 0.448-1 1-1s1 0.448 1 1-0.448 1-1 1-1-0.448-1-1zM9 5c0-0.552 0.448-1 1-1s1 0.448 1 1-0.448 1-1 1-1-0.448-1-1zM8.452 13.562 8.138 17.221C8.107 17.661 7.801 18 7.432 18c-0.244 0-0.471-0.151-0.601-0.4L6 16 5.169 17.6C5.04 17.849 4.813 18 4.568 18 4.2 18 3.893 17.661 3.862 17.221l-0.314-3.659C3.522 13.26 3.76 13 4.063 13c0.27 0 0.494 0.207 0.516 0.477l0.212 2.681 0.75-1.443c0.193-0.372 0.725-0.372 0.918 0l0.75 1.443 0.21-2.681C7.44 13.208 7.665 13 7.935 13h2e-3c0.303 0 0.541 0.26 0.515 0.562zM20.452 13.562l-0.314 3.659C20.107 17.661 19.801 18 19.432 18c-0.244 0-0.471-0.151-0.601-0.4L18 16l-0.831 1.6c-0.129 0.249-0.356 0.4-0.601 0.4-0.368 0-0.675-0.339-0.706-0.779l-0.314-3.659C15.522 13.26 15.76 13 16.063 13c0.27 0 0.494 0.207 0.516 0.477l0.212 2.681 0.75-1.443c0.193-0.372 0.725-0.372 0.918 0l0.75 1.443 0.21-2.681C19.44 13.208 19.665 13 19.935 13h2e-3c0.303 0 0.541 0.26 0.515 0.562zM14.452 13.562l-0.314 3.659C14.107 17.661 13.801 18 13.432 18c-0.244 0-0.471-0.151-0.601-0.4L12 16l-0.831 1.6c-0.129 0.249-0.356 0.4-0.601 0.4-0.368 0-0.675-0.339-0.706-0.779l-0.314-3.659C9.522 13.26 9.76 13 10.063 13c0.27 0 0.494 0.207 0.516 0.477l0.212 2.681 0.75-1.443c0.193-0.372 0.725-0.372 0.918 0l0.75 1.443 0.21-2.681C13.44 13.208 13.665 13 13.935 13h2e-3c0.303 0 0.541 0.26 0.515 0.562z" />
</svg>