<svg id="site_Layer_1" viewBox="0 0 24 24" fill="currentColor" width="32" height="32" data-name="Layer 1" xmlns="http://www.w3.org/2000/svg" xmlns:xlink="http://www.w3.org/1999/xlink">
    <title>site</title>
    <path d="M12 0C5.383 0 0 5.383 0 12s5.383 12 12 12 12-5.383 12-12S18.617 0 12 0zM21.797 7h-4.823c-1.072-2.674-2.723-4.787-3.739-5.93 3.739 0.419 6.917 2.72 8.562 5.93zM12 1.209c0.77 0.805 2.669 2.96 3.89 5.791H8.109c1.22-2.826 3.12-4.984 3.891-5.791zM10.765 1.069C9.75 2.212 8.098 4.325 7.026 6.999H2.203c1.646-3.21 4.824-5.51 8.562-5.93zM2.203 17h4.823c1.072 2.674 2.723 4.787 3.739 5.93-3.739-0.419-6.917-2.72-8.562-5.93zM11.999 22.791c-0.77-0.805-2.669-2.96-3.89-5.791h7.781c-1.22 2.826-3.12 4.984-3.891 5.791zM13.234 22.931c1.015-1.143 2.667-3.256 3.739-5.93h4.823c-1.645 3.211-4.823 5.511-8.562 5.93zM22.246 16.001H1.753c-0.486-1.24-0.753-2.59-0.753-4s0.267-2.76 0.753-4h20.494c0.486 1.24 0.753 2.59 0.753 4s-0.267 2.76-0.754 4zM8.404 10.088 8.09 13.747c-0.031 0.44-0.337 0.779-0.706 0.779-0.244 0-0.471-0.151-0.601-0.4l-0.831-1.6-0.831 1.6c-0.129 0.249-0.356 0.4-0.601 0.4-0.368 0-0.675-0.339-0.706-0.779L3.5 10.088C3.474 9.786 3.712 9.526 4.015 9.526c0.27 0 0.494 0.208 0.516 0.477l0.212 2.681 0.75-1.443c0.193-0.372 0.725-0.372 0.918 0l0.75 1.443 0.21-2.681c0.021-0.269 0.246-0.477 0.516-0.477h2e-3c0.303 0 0.541 0.26 0.515 0.562zM20.497 10.088l-0.314 3.659c-0.031 0.44-0.337 0.779-0.706 0.779-0.244 0-0.471-0.151-0.601-0.4l-0.831-1.6-0.831 1.6c-0.129 0.249-0.356 0.4-0.601 0.4-0.368 0-0.675-0.339-0.706-0.779l-0.314-3.659c-0.026-0.302 0.212-0.562 0.515-0.562 0.27 0 0.494 0.208 0.516 0.477l0.212 2.681 0.75-1.443c0.193-0.372 0.725-0.372 0.918 0l0.75 1.443 0.21-2.681c0.021-0.269 0.246-0.477 0.516-0.477h2e-3c0.303 0 0.541 0.26 0.515 0.562zM14.457 10.088l-0.314 3.659c-0.031 0.44-0.337 0.779-0.706 0.779-0.244 0-0.471-0.151-0.601-0.4l-0.831-1.6-0.831 1.6c-0.129 0.249-0.356 0.4-0.601 0.4-0.368 0-0.675-0.339-0.706-0.779l-0.314-3.659c-0.026-0.302 0.212-0.562 0.515-0.562 0.27 0 0.494 0.208 0.516 0.477l0.212 2.681 0.75-1.443c0.193-0.372 0.725-0.372 0.918 0l0.75 1.443 0.21-2.681c0.021-0.269 0.246-0.477 0.516-0.477h2e-3c0.303 0 0.541 0.26 0.515 0.562z" />
</svg>