<svg id="skateboard_Layer_1" viewBox="0 0 24 24" fill="currentColor" width="32" height="32" data-name="Layer 1" xmlns="http://www.w3.org/2000/svg" xmlns:xlink="http://www.w3.org/1999/xlink">
    <title>skateboard</title>
    <path d="M21.896 2.103C20.541 0.747 18.737 0 16.819 0s-3.722 0.747-5.078 2.103l-9.637 9.639C0.748 13.098 0 14.901 0 16.82s0.747 3.721 2.104 5.078c1.355 1.356 3.159 2.103 5.077 2.103s3.722-0.747 5.078-2.103l9.638-9.639c1.356-1.356 2.104-3.159 2.104-5.078s-0.747-3.721-2.105-5.078zM21.189 11.551 11.551 21.19C10.383 22.357 8.831 23 7.18 23s-3.203-0.643-4.37-1.81c-1.168-1.167-1.811-2.72-1.811-4.371s0.643-3.203 1.811-4.371l9.638-9.638C13.616 1.643 15.168 1 16.819 1s3.203 0.643 4.37 1.81C22.357 3.977 23 5.53 23 7.181s-0.643 3.203-1.811 4.37zM19.853 8.146c0.195 0.195 0.195 0.512 0 0.707l-3 3c-0.098 0.098-0.226 0.146-0.354 0.146s-0.256-0.049-0.354-0.146c-0.195-0.195-0.195-0.512 0-0.707L17.291 10 13.998 6.707 12.852 7.853c-0.098 0.098-0.226 0.146-0.354 0.146s-0.256-0.049-0.354-0.146c-0.195-0.195-0.195-0.512 0-0.707l3-3c0.195-0.195 0.512-0.195 0.707 0s0.195 0.512 0 0.707l-1.146 1.146 3.293 3.293 1.146-1.146c0.195-0.195 0.512-0.195 0.709 0zM11.853 16.146c0.195 0.195 0.195 0.512 0 0.707l-3 3c-0.098 0.098-0.226 0.146-0.354 0.146s-0.256-0.049-0.354-0.146c-0.195-0.195-0.195-0.512 0-0.707L9.291 18 5.998 14.707 4.852 15.853c-0.098 0.098-0.226 0.146-0.354 0.146s-0.256-0.049-0.354-0.146c-0.195-0.195-0.195-0.512 0-0.707l3-3c0.195-0.195 0.512-0.195 0.707 0s0.195 0.512 0 0.707l-1.146 1.146 3.293 3.293 1.146-1.146c0.195-0.195 0.512-0.195 0.709 0z" />
</svg>