<svg id="skate_park_Layer_1" viewBox="0 0 24 24" fill="currentColor" width="32" height="32" data-name="Layer 1" xmlns="http://www.w3.org/2000/svg" xmlns:xlink="http://www.w3.org/1999/xlink">
    <title>skate-park</title>
    <path d="M23.5 23h-0.697C4.235 23 4.001 5.255 4 4.5v-1C4 1.57 2.43 0 0.5 0 0.224 0 0 0.224 0 0.5v19C0 21.981 2.019 24 4.5 24h19c0.276 0 0.5-0.224 0.5-0.5S23.776 23 23.5 23zM4.5 23C2.57 23 1 21.43 1 19.5V1.05C2.14 1.282 3 2.292 3 3.5v1C3 4.668 3.169 19.04 15.76 23zM12.611 9.724C11.572 8.685 11 7.304 11 5.835V4.5C11 4.224 11.224 4 11.5 4S12 4.224 12 4.5v1.335c0 1.202 0.468 2.332 1.318 3.182l5.665 5.665c0.85 0.85 1.98 1.318 3.182 1.318H23.5c0.276 0 0.5 0.224 0.5 0.5S23.776 17 23.5 17h-1.335c-1.469 0-2.851-0.572-3.889-1.611zM9.293 10.707c-0.391-0.391-0.391-1.024 0-1.414 0.391-0.391 1.024-0.391 1.414 0 0.391 0.391 0.391 1.024 0 1.414-0.391 0.391-1.024 0.391-1.414 0zM18.707 17.293c0.391 0.391 0.391 1.024 0 1.414-0.391 0.391-1.024 0.391-1.414 0s-0.391-1.024 0-1.414c0.391-0.391 1.024-0.391 1.414 0z" />
</svg>