<svg id="skeleton_Layer_1" viewBox="0 0 24 24" fill="currentColor" width="32" height="32" data-name="Layer 1" xmlns="http://www.w3.org/2000/svg" xmlns:xlink="http://www.w3.org/1999/xlink">
    <title>skeleton</title>
    <path d="M16.608 16H12.5v-3h4c0.276 0 0.5-0.224 0.5-0.5S16.776 12 16.5 12h-4V9h5C17.776 9 18 8.776 18 8.5S17.776 8 17.5 8h-5V5h6C18.776 5 19 4.776 19 4.5S18.776 4 18.5 4h-6V1h7C19.776 1 20 0.776 20 0.5S19.776 0 19.5 0h-15C4.224 0 4 0.224 4 0.5S4.224 1 4.5 1h7v3h-6C5.224 4 5 4.224 5 4.5S5.224 5 5.5 5h6v3h-5C6.224 8 6 8.224 6 8.5S6.224 9 6.5 9h5v3h-4C7.224 12 7 12.224 7 12.5S7.224 13 7.5 13h4v3H7.388c-1.399 0.011-2.597 0.822-3.127 2.116-0.53 1.295-0.245 2.715 0.744 3.704l0.667 0.666C6.648 23.463 7.945 24 9.325 24h5.352c1.38 0 2.678-0.537 3.653-1.514l0.667-0.666c0.989-0.989 1.274-2.409 0.744-3.704-0.53-1.294-1.729-2.105-3.133-2.116zM18.288 21.113l-0.667 0.666C16.834 22.566 15.788 23 14.675 23H9.323c-1.113 0-2.16-0.434-2.946-1.221L5.71 21.113c-0.836-0.836-0.82-1.9-0.526-2.617C5.478 17.778 6.212 17.01 7.39 17c1.425 0 2.608 1.075 2.608 2.5 0 0.276 0.224 0.5 0.5 0.5s0.5-0.224 0.5-0.5c0-0.999-0.377-1.874-1.004-2.5h4.062c-0.651 0.636-1.058 1.52-1.058 2.5 0 0.276 0.224 0.5 0.5 0.5s0.5-0.224 0.5-0.5c0-1.379 1.226-2.5 2.604-2.5 1.182 0.01 1.916 0.778 2.21 1.496 0.294 0.717 0.31 1.781-0.524 2.617z" />
</svg>