<svg id="skeleton_ribs_Layer_1" viewBox="0 0 24 24" fill="currentColor" width="32" height="32" data-name="Layer 1" xmlns="http://www.w3.org/2000/svg" xmlns:xlink="http://www.w3.org/1999/xlink">
    <title>skeleton-ribs</title>
    <path d="M23.5 3h-11V0.5C12.5 0.224 12.276 0 12 0s-0.5 0.224-0.5 0.5V3h-11C0.224 3 0 3.224 0 3.5S0.224 4 0.5 4h4.418C2.816 8.623 1.47 14.836 1.065 18.039c-0.23 1.819 0.15 3.35 1.099 4.426C3.049 23.469 4.348 24 5.92 24h12.159c1.572 0 2.871-0.531 3.757-1.535 0.948-1.076 1.329-2.607 1.099-4.427C22.53 14.836 21.183 8.622 19.083 4H23.5C23.776 4 24 3.776 24 3.5S23.776 3 23.5 3zM11.5 4v3H4.784c0.378-1.049 0.791-2.062 1.237-3zM19.559 7.988c0.334 0.999 0.637 2.013 0.907 3.012H12.5V8h7c0.021 0 0.039-9e-3 0.059-0.012zM21.41 15H12.5v-3h8c0.078 0 0.149-0.021 0.214-0.052 0.271 1.067 0.504 2.099 0.696 3.052zM21.943 18.164c0.037 0.292 0.04 0.565 0.041 0.836H12.5v-3h9c0.035 0 0.066-0.013 0.099-0.02 0.15 0.82 0.265 1.56 0.344 2.184zM2.401 15.98C2.434 15.987 2.465 16 2.5 16h9v3H2.017c1e-3-0.272 4e-3-0.544 0.041-0.836 0.079-0.623 0.194-1.363 0.343-2.184zM3.285 11.947C3.351 11.979 3.422 12 3.5 12h8v3H2.59c0.192-0.953 0.425-1.986 0.695-3.053zM11.5 11H3.534c0.27-0.999 0.573-2.013 0.907-3.012C4.461 7.991 4.479 8 4.5 8h7zM2.915 21.804C2.493 21.325 2.23 20.709 2.101 20H11.5v3H5.92c-1.277 0-2.316-0.414-3.005-1.196zM21.086 21.804C20.396 22.587 19.357 23 18.079 23H12.5v-3h9.4c-0.13 0.708-0.392 1.325-0.814 1.804zM19.216 7H12.5V4h5.479c0.446 0.938 0.859 1.951 1.237 3z" />
</svg>