<svg id="skewer_Layer_1" viewBox="0 0 24 24" fill="currentColor" width="32" height="32" data-name="Layer 1" xmlns="http://www.w3.org/2000/svg" xmlns:xlink="http://www.w3.org/1999/xlink">
    <title>skewer</title>
    <path d="M23.854 0.146c-0.195-0.195-0.512-0.195-0.707 0l-3.646 3.646-2.646-2.646c-0.195-0.195-0.512-0.195-0.707 0s-0.195 0.512 0 0.707l2.646 2.646-2.293 2.293-2.646-2.646c-0.195-0.195-0.512-0.195-0.707 0s-0.195 0.512 0 0.707l2.646 2.646-1.774 1.774-1.745-1.745c-0.428-0.427-1.041-0.611-1.638-0.495-0.572 0.112-1.026 0.479-1.246 1.003-0.728 1.733-0.43 3.691 0.744 5.122l-1.634 1.634-2.646-2.646c-0.195-0.195-0.512-0.195-0.707 0s-0.195 0.512 0 0.707l2.646 2.646-1.452 1.452c-0.392 0.394-1.009 0.495-1.611 0.27-1.499-0.556-3.187-0.03-4.111 1.288-0.821 1.172-0.821 2.809 0 3.98 0.604 0.861 1.543 1.406 2.576 1.496 0.103 0.01 0.204 0.014 0.307 0.014 0.925 0 1.813-0.365 2.474-1.025 0.195-0.195 0.195-0.512 0-0.707s-0.512-0.195-0.707 0c-0.523 0.524-1.247 0.796-1.986 0.723-0.749-0.065-1.404-0.446-1.845-1.074-0.584-0.834-0.584-1.998 0-2.832 0.663-0.943 1.874-1.326 2.942-0.926 0.975 0.366 1.995 0.174 2.669-0.499l1.452-1.452 2.646 2.646c0.098 0.098 0.226 0.146 0.354 0.146s0.256-0.049 0.354-0.146c0.195-0.195 0.195-0.512 0-0.707L9.21 15.5l1.634-1.634c0.909 0.746 2.031 1.138 3.173 1.138 0.655 0 1.317-0.129 1.949-0.395 0.524-0.22 0.891-0.674 1.003-1.246 0.117-0.598-0.067-1.21-0.495-1.638L14.729 9.98l1.774-1.774 2.646 2.646c0.098 0.098 0.226 0.146 0.354 0.146s0.256-0.049 0.354-0.146c0.195-0.195 0.195-0.512 0-0.707l-2.646-2.646 2.293-2.293 2.646 2.646c0.098 0.098 0.226 0.146 0.354 0.146s0.256-0.049 0.354-0.146c0.195-0.195 0.195-0.512 0-0.707l-2.646-2.646 3.646-3.646c0.195-0.195 0.195-0.512-4e-3-0.707zM15.985 13.17c-0.027 0.141-0.117 0.395-0.408 0.517-1.509 0.634-3.237 0.296-4.399-0.864-1.159-1.16-1.499-2.888-0.864-4.399 0.122-0.291 0.376-0.381 0.517-0.408C10.886 8.005 10.939 8 10.993 8c0.216 0 0.423 0.083 0.576 0.236l4.196 4.196c0.191 0.191 0.274 0.468 0.22 0.738z" />
</svg>