<svg id="ski_boot_ski_Layer_1" viewBox="0 0 24 24" fill="currentColor" width="32" height="32" data-name="Layer 1" xmlns="http://www.w3.org/2000/svg" xmlns:xlink="http://www.w3.org/1999/xlink">
    <title>ski-boot-ski</title>
    <path d="M23.973 19.553C23.705 22.088 21.578 24 19.026 24H0.5C0.224 24 0 23.776 0 23.5S0.224 23 0.5 23h18.525c2.04 0 3.739-1.527 3.953-3.553 0.029-0.275 0.259-0.478 0.55-0.444 0.274 0.029 0.474 0.275 0.445 0.55zM0.785 19.891c-0.61-0.705-0.884-1.639-0.751-2.562 0.185-1.271 0.417-2.554 0.691-3.812L2.99 3.146C3.388 1.323 5.032 0 6.897 0h6.773c0.722 0 1.39 0.326 1.834 0.894s0.6 1.295 0.426 1.995l-1.833 7.385 1.25 0.376c2.677 0.532 4.652 2.942 4.652 5.719v1.132c0 1.93-1.57 3.5-3.5 3.5H3.212c-0.933 0-1.817-0.404-2.427-1.11zM1.541 19.237c0.42 0.485 1.029 0.764 1.672 0.764h13.288c1.379 0 2.5-1.121 2.5-2.5v-1.132c0-2.302-1.638-4.299-3.894-4.75 0 0-1.877-0.577-1.927-0.618H8.501c-0.276 0-0.5-0.224-0.5-0.5s0.224-0.5 0.5-0.5h4.636l0.496-2H9.501c-0.276 0-0.5-0.224-0.5-0.5s0.224-0.5 0.5-0.5h4.38l0.496-2h-3.876c-0.276 0-0.5-0.224-0.5-0.5s0.224-0.5 0.5-0.5h4.125l0.335-1.352c0.1-0.399 0.011-0.814-0.243-1.139C14.465 1.186 14.083 1 13.672 1H6.899C5.5 1 4.267 1.992 3.968 3.359L1.701 13.73c-0.269 1.235-0.497 2.494-0.678 3.741-0.092 0.636 0.097 1.279 0.518 1.766zM4.001 16.001c0-1.103 0.897-2 2-2s2 0.897 2 2-0.897 2-2 2-2-0.897-2-2zM5.001 16.001c0 0.552 0.448 1 1 1s1-0.448 1-1-0.448-1-1-1-1 0.448-1 1z" />
</svg>