<svg id="skiing_nordic_Layer_1" viewBox="0 0 24 24" fill="currentColor" width="32" height="32" data-name="Layer 1" xmlns="http://www.w3.org/2000/svg" xmlns:xlink="http://www.w3.org/1999/xlink">
    <title>skiing-nordic</title>
    <path d="M23.5 20c-0.276 0-0.5 0.224-0.5 0.5 0 1.378-1.122 2.5-2.5 2.5h-0.382l2.87-13.395c0.058-0.27-0.114-0.536-0.384-0.594-0.275-0.06-0.536 0.114-0.594 0.384L21.666 11h-1.992c-0.526 0-1.014-0.276-1.285-0.726l-1.261-2.095C16.314 6.827 14.851 6 13.273 6h-1.758c-0.01 0-0.02 0-0.03 0H7.107C6.268 6 5.486 6.42 5.022 7.12L3.628 9.224c-0.152 0.23-0.089 0.54 0.141 0.693 0.23 0.152 0.541 0.089 0.693-0.141l1.394-2.104C6.134 7.253 6.604 7 7.107 7h3.636l-2.555 5.963c-0.462 1.126-0.05 2.414 0.998 3.074l4.06 2.321c0.467 0.267 0.755 0.764 0.755 1.302V23H6.439l1.72-5.334c0.084-0.263-0.06-0.544-0.323-0.629-0.263-0.082-0.545 0.06-0.629 0.323l-1.819 5.641H1.114l2.148-10.4c0.056-0.271-0.118-0.535-0.389-0.591-0.269-0.053-0.535 0.118-0.591 0.389L0.011 23.398C-0.054 23.709 0.183 24 0.5 24h20c1.93 0 3.5-1.57 3.5-3.5 0-0.276-0.224-0.5-0.5-0.5zM13.741 17.49 9.7 15.18c-0.617-0.389-0.864-1.162-0.59-1.831l2.72-6.35h1.444c0.481 0 0.95 0.101 1.381 0.287L12.048 13.3c-0.109 0.253 7e-3 0.548 0.26 0.658 0.064 0.028 0.132 0.041 0.198 0.041 0.193 0 0.377-0.113 0.459-0.301l2.55-5.883c0.296 0.246 0.553 0.542 0.756 0.879l1.261 2.094c0.449 0.747 1.27 1.211 2.142 1.211h1.778l-2.357 11h-4.096v-3.34c0-0.895-0.482-1.726-1.258-2.169zM14.5 5C15.878 5 17 3.878 17 2.5S15.878 0 14.5 0 12 1.122 12 2.5 13.122 5 14.5 5zM14.5 1C15.327 1 16 1.673 16 2.5S15.327 4 14.5 4 13 3.327 13 2.5 13.673 1 14.5 1z" />
</svg>