<svg id="skill_alt_Layer_1" viewBox="0 0 24 24" fill="currentColor" width="32" height="32" data-name="Layer 1" xmlns="http://www.w3.org/2000/svg" xmlns:xlink="http://www.w3.org/1999/xlink">
    <title>skill-alt</title>
    <path d="M4.628 3.813 7.147 1.294c0.195-0.195 0.512-0.195 0.707 0s0.195 0.512 0 0.707L5.335 4.52c-0.321 0.322-0.74 0.483-1.159 0.483-0.403 0-0.807-0.149-1.126-0.449L2.157 3.711c-0.201-0.189-0.21-0.506-0.021-0.707 0.188-0.201 0.505-0.209 0.706-0.021l0.893 0.842c0.255 0.24 0.646 0.234 0.893-0.012zM3 20.501v1c0 1.472 1.028 2.5 2.5 2.5h8c1.379 0 2.5-1.122 2.5-2.5v-0.5c0 0 0.986 0 0.986 0 2.113 0 3.965-1.5 4.402-3.566l0.517-2.434h0.549c1.134 0 1.546-0.87 1.546-1.455 0-1.283-2.852-7.446-4.237-9.159-2.177-2.908-5.673-4.549-9.286-4.374-0.276 0.013-0.489 0.248-0.476 0.523s0.253 0.503 0.522 0.476c3.327-0.162 6.462 1.334 8.45 3.989 1.419 1.754 4.026 7.679 4.026 8.545-7e-3 0.203-0.107 0.455-0.546 0.455h-0.956c-0.236 0-0.438 0.165-0.487 0.396l-0.601 2.83c-0.341 1.607-1.78 2.774-3.424 2.774h-1.486c-0.276 0-0.5 0.224-0.5 0.5v1c0 0.827-0.673 1.5-1.5 1.5H5.5c-0.692 0-1.5-0.393-1.5-1.5v-1c0-0.276-0.224-0.5-0.5-0.5S3 20.225 3 20.501zM7.5 4C7.224 4 7 4.224 7 4.5V6c0 0.551-0.448 1-1 1H2C1.448 7 1 6.551 1 6V2c0-0.551 0.448-1 1-1h3c0.276 0 0.5-0.224 0.5-0.5S5.276 0 5 0H2C0.897 0 0 0.897 0 2v4c0 1.103 0.897 2 2 2h4c1.103 0 2-0.897 2-2V4.5C8 4.224 7.776 4 7.5 4zM2 10h4c1.103 0 2 0.897 2 2v4c0 1.103-0.897 2-2 2H2c-1.103 0-2-0.897-2-2v-4c0-1.103 0.897-2 2-2zM1 16c0 0.551 0.448 1 1 1h4c0.552 0 1-0.449 1-1v-4c0-0.551-0.448-1-1-1H2c-0.552 0-1 0.449-1 1z" />
</svg>