<svg id="skin_uv_Layer_1" viewBox="0 0 24 24" fill="currentColor" width="32" height="32" data-name="Layer 1" xmlns="http://www.w3.org/2000/svg" xmlns:xlink="http://www.w3.org/1999/xlink">
    <title>skin-uv</title>
    <path d="M4 20c0 0.552-0.448 1-1 1s-1-0.448-1-1 0.448-1 1-1 1 0.448 1 1zM9 19c-0.552 0-1 0.448-1 1s0.448 1 1 1 1-0.448 1-1-0.448-1-1-1zM12 22c-0.552 0-1 0.448-1 1s0.448 1 1 1 1-0.448 1-1-0.448-1-1-1zM7.357 6.935C7.446 7.32 7.71 7.657 8.079 7.846 8.448 8.036 8.884 8.051 9.27 7.887 9.674 7.719 9.979 7.35 10.084 6.902l1.57-6.281C11.733 0.306 11.494 0 11.169 0v0c-0.229 0-0.429 0.156-0.485 0.379L9.112 6.668C9.079 6.811 8.994 6.919 8.884 6.965 8.768 7.014 8.64 7.011 8.533 6.956 8.428 6.902 8.352 6.807 8.327 6.695l-1.67-6.323C6.599 0.153 6.401 0 6.174 0 5.846 0 5.607 0.31 5.691 0.627zM2.5 8C3.878 8 5 6.878 5 5.5v-5C5 0.224 4.776 0 4.5 0S4 0.224 4 0.5v5C4 6.327 3.327 7 2.5 7S1 6.327 1 5.5v-5C1 0.224 0.776 0 0.5 0S0 0.224 0 0.5v5C0 6.878 1.122 8 2.5 8zM6 22c-0.552 0-1 0.448-1 1s0.448 1 1 1 1-0.448 1-1-0.448-1-1-1zM22.923 15.48c-0.876-0.638-2.151-0.639-3.027 0-0.936 0.68-2.312 0.68-3.245 0-0.877-0.638-2.152-0.639-3.027 0-0.936 0.68-2.312 0.68-3.245 0-0.878-0.639-2.151-0.639-3.028 0-0.935 0.68-2.312 0.68-3.245 0-0.878-0.639-2.151-0.639-3.028 0-0.258 0.188-0.858 0.617-0.858 0.617C0.091 16.187 1e-3 16.33 1e-3 16.5c0 0.276 0.224 0.5 0.5 0.5 0.106 0 0.2-0.041 0.281-0.097 0 0 0.621-0.422 0.885-0.614 0.527-0.384 1.322-0.385 1.851 0 1.279 0.93 3.143 0.93 4.422 0 0.527-0.384 1.322-0.385 1.851 0 1.277 0.93 3.143 0.93 4.423 0 0.526-0.384 1.321-0.386 1.85 0C16.703 16.754 17.467 17 18.275 17s1.572-0.246 2.212-0.711c0.526-0.386 1.322-0.384 1.851 0 0.263 0.191 0.884 0.613 0.884 0.613 0.081 0.057 0.174 0.097 0.281 0.097 0.276 0 0.5-0.224 0.5-0.5 0-0.17-0.09-0.312-0.219-0.403 0 0-0.6-0.429-0.861-0.616zM23.5 12h-23C0.224 12 0 12.224 0 12.5S0.224 13 0.5 13h23c0.276 0 0.5-0.224 0.5-0.5S23.776 12 23.5 12zM22 0h-4.5C17.224 0 17 0.224 17 0.5S17.224 1 17.5 1H22c0.086 0 0.164 0.029 0.244 0.049l-8.581 8.58c-0.499 0.5-1.369 0.501-1.87 0l-0.711-0.711c-0.195-0.195-0.512-0.195-0.707 0s-0.195 0.512 0 0.707l0.711 0.711c0.438 0.439 1.022 0.681 1.643 0.681s1.204-0.242 1.641-0.681l8.581-8.58C22.972 1.836 23 1.913 23 2v4.5C23 6.776 23.224 7 23.5 7S24 6.776 24 6.5V2c0-1.103-0.897-2-2-2zM15 19c-0.552 0-1 0.448-1 1s0.448 1 1 1 1-0.448 1-1-0.448-1-1-1zM18 22c-0.552 0-1 0.448-1 1s0.448 1 1 1 1-0.448 1-1-0.448-1-1-1zM21 19c-0.552 0-1 0.448-1 1s0.448 1 1 1 1-0.448 1-1-0.448-1-1-1z" />
</svg>