<svg id="skin_drop_Layer_1" viewBox="0 0 24 24" fill="currentColor" width="32" height="32" data-name="Layer 1" xmlns="http://www.w3.org/2000/svg" xmlns:xlink="http://www.w3.org/1999/xlink">
    <title>skin-drop</title>
    <path d="M12 11c1.336 0 2.592-0.521 3.535-1.465C16.479 8.591 17 7.336 17 6s-0.521-2.591-1.473-3.542l-1.892-1.815c-0.902-0.883-2.371-0.882-3.268-3e-3L8.464 2.465C7.52 3.409 6.999 4.664 6.999 6S7.52 8.591 8.464 9.535 10.664 11 12 11zM9.164 3.179l1.899-1.821c0.258-0.252 0.597-0.378 0.936-0.378s0.681 0.127 0.941 0.381l1.888 1.812C15.584 3.929 16 4.933 16 6.001s-0.416 2.072-1.172 2.828c-0.755 0.756-1.76 1.172-2.828 1.172S9.928 9.585 9.172 8.829 8 7.069 8 6.001 8.416 3.929 9.164 3.179zM24 9.5c0 0.276-0.224 0.5-0.5 0.5h-5C18.224 10 18 9.776 18 9.5S18.224 9 18.5 9h5C23.776 9 24 9.224 24 9.5zM0.5 10C0.224 10 0 9.776 0 9.5S0.224 9 0.5 9h5C5.776 9 6 9.224 6 9.5S5.776 10 5.5 10zM7 20c0 0.552-0.448 1-1 1s-1-0.448-1-1 0.448-1 1-1 1 0.448 1 1zM10 17c0 0.552-0.448 1-1 1s-1-0.448-1-1 0.448-1 1-1 1 0.448 1 1zM4 17c0 0.552-0.448 1-1 1s-1-0.448-1-1 0.448-1 1-1 1 0.448 1 1zM16 17c0 0.552-0.448 1-1 1s-1-0.448-1-1 0.448-1 1-1 1 0.448 1 1zM22 17c0 0.552-0.448 1-1 1s-1-0.448-1-1 0.448-1 1-1 1 0.448 1 1zM10 23c0 0.552-0.448 1-1 1s-1-0.448-1-1 0.448-1 1-1 1 0.448 1 1zM4 23c0 0.552-0.448 1-1 1s-1-0.448-1-1 0.448-1 1-1 1 0.448 1 1zM16 23c0 0.552-0.448 1-1 1s-1-0.448-1-1 0.448-1 1-1 1 0.448 1 1zM22 23c0 0.552-0.448 1-1 1s-1-0.448-1-1 0.448-1 1-1 1 0.448 1 1zM13 20c0 0.552-0.448 1-1 1s-1-0.448-1-1 0.448-1 1-1 1 0.448 1 1zM19 20c0 0.552-0.448 1-1 1s-1-0.448-1-1 0.448-1 1-1 1 0.448 1 1zM23.781 13.097C23.91 13.187 24 13.33 24 13.5c0 0.276-0.224 0.5-0.5 0.5-0.107 0-0.2-0.041-0.281-0.097 0 0-0.622-0.423-0.884-0.614-0.53-0.384-1.325-0.384-1.852 0C19.844 13.754 19.08 14 18.272 14s-1.572-0.246-2.211-0.712c-0.528-0.384-1.324-0.384-1.851 0-1.277 0.931-3.145 0.931-4.422 0-0.526-0.383-1.321-0.384-1.852 0-1.274 0.931-3.143 0.932-4.421 0-0.526-0.383-1.321-0.384-1.852 0-0.263 0.191-0.884 0.614-0.884 0.614-0.081 0.057-0.174 0.097-0.281 0.097-0.276 0-0.5-0.224-0.5-0.5 0-0.17 0.09-0.312 0.219-0.403 0 0 0.599-0.429 0.858-0.617 0.878-0.639 2.153-0.638 3.027 0 0.936 0.681 2.312 0.68 3.244 0 0.878-0.639 2.152-0.64 3.028 0 0.936 0.681 2.311 0.681 3.246 0 0.874-0.638 2.149-0.639 3.027 0 0.934 0.681 2.31 0.681 3.245 0 0.874-0.638 2.149-0.639 3.027 0 0.259 0.188 0.858 0.617 0.862 0.618z" />
</svg>