<svg id="skin_laser_Layer_1" viewBox="0 0 24 24" fill="currentColor" width="32" height="32" data-name="Layer 1" xmlns="http://www.w3.org/2000/svg" xmlns:xlink="http://www.w3.org/1999/xlink">
    <title>skin-laser</title>
    <path d="M10 8c-1.103 0-2 0.897-2 2s0.897 2 2 2 2-0.897 2-2-0.897-2-2-2zM10 11c-0.552 0-1-0.449-1-1s0.448-1 1-1 1 0.449 1 1-0.448 1-1 1zM20 17.5c0-0.276 0.224-0.5 0.5-0.5s0.5 0.224 0.5 0.5c0 1.93-1.57 3.5-3.5 3.5-0.276 0-0.5-0.224-0.5-0.5s0.224-0.5 0.5-0.5c1.379 0 2.5-1.122 2.5-2.5zM24 17.5c0 3.584-2.916 6.5-6.5 6.5-0.276 0-0.5-0.224-0.5-0.5s0.224-0.5 0.5-0.5c3.032 0 5.5-2.467 5.5-5.5 0-0.276 0.224-0.5 0.5-0.5s0.5 0.224 0.5 0.5zM19.611 13.275c-0.23-0.321-0.514-0.711-0.827-1.128 0.141-0.332 0.217-0.692 0.215-1.064-4e-3-0.726-0.293-1.405-0.813-1.914-2.272-2.223-4.144-3.9-6.988-5.897C8.826 1.606 5.963 1.651 3.99 3.284L0.854 0.146c-0.196-0.195-0.512-0.195-0.708 0s-0.195 0.512 0 0.708l3.135 3.135c-1.634 1.972-1.688 4.981-0.059 7.16 2.39 3.198 3.666 4.711 5.939 7.04 0.506 0.519 1.2 0.807 1.928 0.811 0.367 0 0.721-0.074 1.048-0.212 0.419 0.313 0.809 0.598 1.131 0.828 0.325 0.233 0.703 0.348 1.078 0.348 0.479 0 0.955-0.186 1.317-0.549l3.745-3.746c0.646-0.646 0.731-1.653 0.203-2.394zM11.08 18c-0.458-3e-3-0.885-0.184-1.203-0.509-2.236-2.292-3.495-3.784-5.854-6.94-1.413-1.89-1.331-4.529 0.189-6.139 0.863-0.914 2.019-1.376 3.238-1.376 1.06 0 2.168 0.349 3.173 1.055 2.788 1.958 4.628 3.606 6.863 5.793 0.328 0.32 0.51 0.748 0.513 1.205 3e-3 0.452-0.172 0.878-0.492 1.198l-5.222 5.22C11.964 17.828 11.541 18 11.08 18zM18.703 14.962l-3.745 3.746c-0.299 0.299-0.766 0.34-1.106 0.095-0.244-0.174-0.533-0.386-0.838-0.611l5.174-5.172c0.225 0.304 0.436 0.593 0.61 0.836 0.244 0.342 0.204 0.807-0.095 1.106z" />
</svg>