<svg id="skin_arrow_Layer_1" viewBox="0 0 24 24" fill="currentColor" width="32" height="32" data-name="Layer 1" xmlns="http://www.w3.org/2000/svg" xmlns:xlink="http://www.w3.org/1999/xlink">
    <title>skin-arrow</title>
    <path d="M24 9.5c0 0.276-0.224 0.5-0.5 0.5h-23C0.224 10 0 9.776 0 9.5S0.224 9 0.5 9h23C23.776 9 24 9.224 24 9.5zM5.447 7.565c0.291 0.291 0.674 0.436 1.055 0.436 0.379 0 0.757-0.143 1.043-0.429L9.846 5.36c0.199-0.191 0.205-0.508 0.014-0.707-0.191-0.198-0.508-0.206-0.707-0.014L7 6.709V0.5C7 0.224 6.776 0 6.5 0S6 0.224 6 0.5v6.21L3.847 4.64C3.648 4.448 3.331 4.455 3.14 4.654S2.955 5.17 3.154 5.361zM16.447 7.565c0.291 0.291 0.674 0.436 1.055 0.436 0.379 0 0.757-0.143 1.043-0.429l2.301-2.212c0.199-0.191 0.205-0.508 0.014-0.707-0.191-0.198-0.508-0.206-0.707-0.014L18 6.709V0.5C18 0.224 17.776 0 17.5 0S17 0.224 17 0.5v6.21l-2.153-2.07c-0.199-0.192-0.516-0.185-0.707 0.014s-0.185 0.516 0.014 0.707zM6 19c-0.552 0-1 0.448-1 1s0.448 1 1 1 1-0.448 1-1-0.448-1-1-1zM9 16c-0.552 0-1 0.448-1 1s0.448 1 1 1 1-0.448 1-1-0.448-1-1-1zM3 16c-0.552 0-1 0.448-1 1s0.448 1 1 1 1-0.448 1-1-0.448-1-1-1zM15 16c-0.552 0-1 0.448-1 1s0.448 1 1 1 1-0.448 1-1-0.448-1-1-1zM21 16c-0.552 0-1 0.448-1 1s0.448 1 1 1 1-0.448 1-1-0.448-1-1-1zM9 22c-0.552 0-1 0.448-1 1s0.448 1 1 1 1-0.448 1-1-0.448-1-1-1zM3 22c-0.552 0-1 0.448-1 1s0.448 1 1 1 1-0.448 1-1-0.448-1-1-1zM15 22c-0.552 0-1 0.448-1 1s0.448 1 1 1 1-0.448 1-1-0.448-1-1-1zM21 22c-0.552 0-1 0.448-1 1s0.448 1 1 1 1-0.448 1-1-0.448-1-1-1zM12 19c-0.552 0-1 0.448-1 1s0.448 1 1 1 1-0.448 1-1-0.448-1-1-1zM18 19c-0.552 0-1 0.448-1 1s0.448 1 1 1 1-0.448 1-1-0.448-1-1-1zM22.923 12.48c-0.878-0.639-2.153-0.638-3.027 0-0.936 0.681-2.312 0.681-3.245 0-0.878-0.639-2.153-0.638-3.027 0-0.936 0.681-2.311 0.681-3.246 0-0.876-0.639-2.15-0.639-3.028 0-0.932 0.68-2.309 0.68-3.244 0-0.874-0.638-2.149-0.639-3.027 0-0.259 0.188-0.858 0.617-0.858 0.617C0.092 13.187 2e-3 13.33 2e-3 13.5c0 0.276 0.224 0.5 0.5 0.5 0.106 0 0.2-0.041 0.281-0.097 0 0 0.622-0.423 0.884-0.614 0.53-0.384 1.325-0.383 1.852 0 1.278 0.932 3.146 0.931 4.421 0 0.53-0.384 1.325-0.383 1.852 0 1.277 0.931 3.145 0.931 4.422 0 0.526-0.384 1.322-0.385 1.851 0 0.639 0.466 1.402 0.712 2.211 0.712s1.572-0.246 2.211-0.711c0.526-0.384 1.321-0.384 1.852 0 0.263 0.191 0.884 0.614 0.884 0.614 0.081 0.057 0.174 0.097 0.281 0.097 0.276 0 0.5-0.224 0.5-0.5 0-0.17-0.09-0.312-0.219-0.403 0 0-0.599-0.429-0.862-0.618z" />
</svg>