<svg id="skin_Layer_1" viewBox="0 0 24 24" fill="currentColor" width="32" height="32" data-name="Layer 1" xmlns="http://www.w3.org/2000/svg" xmlns:xlink="http://www.w3.org/1999/xlink">
    <title>skin</title>
    <path d="M7 17c0 0.552-0.448 1-1 1s-1-0.448-1-1 0.448-1 1-1 1 0.448 1 1zM12 22c-0.552 0-1 0.448-1 1s0.448 1 1 1 1-0.448 1-1-0.448-1-1-1zM9 13c-0.552 0-1 0.448-1 1s0.448 1 1 1 1-0.448 1-1-0.448-1-1-1zM9 19c-0.552 0-1 0.448-1 1s0.448 1 1 1 1-0.448 1-1-0.448-1-1-1zM6 22c-0.552 0-1 0.448-1 1s0.448 1 1 1 1-0.448 1-1-0.448-1-1-1zM3 19c-0.552 0-1 0.448-1 1s0.448 1 1 1 1-0.448 1-1-0.448-1-1-1zM3 13c-0.552 0-1 0.448-1 1s0.448 1 1 1 1-0.448 1-1-0.448-1-1-1zM0.5 7h23C23.776 7 24 6.776 24 6.5S23.776 6 23.5 6h-23C0.224 6 0 6.224 0 6.5S0.224 7 0.5 7zM12 16c-0.552 0-1 0.448-1 1s0.448 1 1 1 1-0.448 1-1-0.448-1-1-1zM18 16c-0.552 0-1 0.448-1 1s0.448 1 1 1 1-0.448 1-1-0.448-1-1-1zM21 13c-0.552 0-1 0.448-1 1s0.448 1 1 1 1-0.448 1-1-0.448-1-1-1zM21 19c-0.552 0-1 0.448-1 1s0.448 1 1 1 1-0.448 1-1-0.448-1-1-1zM15 19c-0.552 0-1 0.448-1 1s0.448 1 1 1 1-0.448 1-1-0.448-1-1-1zM18 22c-0.552 0-1 0.448-1 1s0.448 1 1 1 1-0.448 1-1-0.448-1-1-1zM15 13c-0.552 0-1 0.448-1 1s0.448 1 1 1 1-0.448 1-1-0.448-1-1-1zM22.923 9.48c-0.878-0.639-2.153-0.638-3.027 0-0.936 0.681-2.312 0.681-3.245 0-0.878-0.639-2.153-0.638-3.027 0-0.936 0.681-2.311 0.681-3.246 0-0.876-0.639-2.15-0.639-3.028 0-0.932 0.68-2.309 0.68-3.244 0-0.874-0.638-2.149-0.639-3.027 0-0.259 0.188-0.858 0.617-0.858 0.617C0.092 10.187 2e-3 10.33 2e-3 10.5c0 0.276 0.224 0.5 0.5 0.5 0.106 0 0.2-0.041 0.281-0.097 0 0 0.622-0.423 0.884-0.614 0.53-0.384 1.325-0.383 1.852 0 1.278 0.932 3.146 0.931 4.421 0 0.53-0.384 1.325-0.383 1.852 0 1.277 0.931 3.145 0.931 4.422 0 0.526-0.384 1.322-0.385 1.851 0 0.639 0.466 1.402 0.712 2.211 0.712s1.572-0.246 2.211-0.711c0.526-0.384 1.321-0.384 1.852 0 0.263 0.191 0.884 0.614 0.884 0.614 0.081 0.057 0.174 0.097 0.281 0.097 0.276 0 0.5-0.224 0.5-0.5 0-0.17-0.09-0.312-0.219-0.403 0 0-0.599-0.429-0.862-0.618z" />
</svg>