<svg id="skull_cow_Layer_1" viewBox="0 0 24 24" fill="currentColor" width="32" height="32" data-name="Layer 1" xmlns="http://www.w3.org/2000/svg" xmlns:xlink="http://www.w3.org/1999/xlink">
    <title>skull-cow</title>
    <path d="M15 13c1.103 0 2-0.897 2-2s-0.897-2-2-2-2 0.897-2 2 0.897 2 2 2zM15 10c0.552 0 1 0.448 1 1s-0.448 1-1 1-1-0.448-1-1 0.448-1 1-1zM9 13c1.103 0 2-0.897 2-2s-0.897-2-2-2-2 0.897-2 2 0.897 2 2 2zM9 10c0.551 0 1 0.448 1 1s-0.449 1-1 1-1-0.448-1-1 0.449-1 1-1zM24 0.5C24 0.224 23.776 0 23.5 0S23 0.224 23 0.5C23 2.43 21.43 4 19.5 4h-15C2.57 4 1 2.43 1 0.5 1 0.224 0.776 0 0.5 0S0 0.224 0 0.5C0 2.981 2.019 5 4.5 5h1.277l-2.58 6.842c-0.581 1.657 0.167 3.501 1.796 4.312l1.811 0.633c0.166 0.059 0.287 0.195 0.324 0.367l0.959 4.475c0.294 1.375 1.528 2.372 2.933 2.372h1.958c1.406 0 2.639-0.997 2.934-2.372l0.959-4.476c0.035-0.168 0.159-0.309 0.323-0.366l1.869-0.657c1.571-0.786 2.318-2.63 1.734-4.299l-2.576-6.83h1.277c2.481 0 4.5-2.019 4.502-4.501zM19.859 12.172c0.414 1.185-0.12 2.501-1.184 3.038l-1.811 0.633c-0.491 0.172-0.864 0.595-0.972 1.102l-0.959 4.475c-0.196 0.916-1.019 1.581-1.956 1.581h-1.958c-0.937 0-1.759-0.665-1.956-1.581l-0.959-4.476c-0.109-0.508-0.481-0.93-0.972-1.101L5.38 15.235c-1.123-0.562-1.656-1.878-1.246-3.051L6.843 5h10.308z" />
</svg>