<svg id="skull_crossbones_Layer_1" viewBox="0 0 24 24" fill="currentColor" width="32" height="32" data-name="Layer 1" xmlns="http://www.w3.org/2000/svg" xmlns:xlink="http://www.w3.org/1999/xlink">
    <title>skull-crossbones</title>
    <path d="M23.965 23.695c-0.077 0.197-0.266 0.317-0.465 0.317-0.061 0-0.123-0.011-0.183-0.035L12 19.542 0.683 23.978c-0.06 0.023-0.122 0.035-0.183 0.035-0.2 0-0.388-0.121-0.465-0.317-0.101-0.257 0.026-0.547 0.283-0.648l10.312-4.041-10.313-4.042c-0.257-0.101-0.384-0.391-0.283-0.648 0.1-0.257 0.391-0.384 0.648-0.283l11.317 4.435 11.317-4.435c0.256-0.101 0.547 0.026 0.648 0.283s-0.026 0.547-0.283 0.648l-10.312 4.041 10.312 4.041c0.257 0.101 0.384 0.391 0.284 0.648zM10 8c0.552 0 1-0.448 1-1s-0.448-1-1-1-1 0.448-1 1 0.448 1 1 1zM14 8c0.552 0 1-0.448 1-1s-0.448-1-1-1-1 0.448-1 1 0.448 1 1 1zM5 9.5V7.226c0-3.642 2.615-6.723 6.083-7.167 2.01-0.252 4.028 0.357 5.538 1.687 1.513 1.331 2.38 3.247 2.38 5.255v2.5c0 1.378-1.122 2.5-2.5 2.5h-0.5v0.5c0 1.378-1.122 2.5-2.5 2.5h-3c-1.378 0-2.5-1.122-2.5-2.5v-0.5h-0.5c-1.378 0-2.5-1.122-2.501-2.501zM6 9.5C6 10.327 6.673 11 7.5 11h1C8.776 11 9 11.224 9 11.5v1c0 0.827 0.673 1.5 1.5 1.5h3c0.827 0 1.5-0.673 1.5-1.5v-1c0-0.276 0.224-0.5 0.5-0.5h1c0.827 0 1.5-0.673 1.5-1.5V7c0-1.721-0.744-3.363-2.041-4.504-1.313-1.156-2.999-1.669-4.75-1.445C8.239 1.431 6 4.086 6 7.226z" />
</svg>