<svg id="skull_heart_Layer_1" viewBox="0 0 24 24" fill="currentColor" width="32" height="32" data-name="Layer 1" xmlns="http://www.w3.org/2000/svg" xmlns:xlink="http://www.w3.org/1999/xlink">
    <title>skull-heart</title>
    <path d="M11 12c0 0.552-0.448 1-1 1s-1-0.448-1-1 0.448-1 1-1 1 0.448 1 1zM14 11c-0.552 0-1 0.448-1 1s0.448 1 1 1 1-0.448 1-1-0.448-1-1-1zM18 12.244V13.5c0 1.378-1.121 2.5-2.5 2.5H15c0 1.103-0.897 2-2 2h-2c-1.103 0-2-0.897-2-2H8.5C7.121 16 6 14.878 6 13.5V12c0-1.687 0.719-3.306 1.972-4.443 1.268-1.152 2.906-1.7 4.625-1.528C15.626 6.323 18 9.053 18 12.244zM17 12.244c0-2.682-1.977-4.974-4.501-5.22C12.33 7.007 12.161 7 11.994 7 10.75 7 9.576 7.451 8.643 8.297 7.598 9.245 6.999 10.594 6.999 12v1.5c0 0.827 0.673 1.5 1.5 1.5h1c0.276 0 0.5 0.224 0.5 0.5V16c0 0.551 0.448 1 1 1h2c0.552 0 1-0.449 1-1v-0.5c0-0.276 0.224-0.5 0.5-0.5h1c0.827 0 1.5-0.673 1.5-1.5zM21.978 17.35c-0.083-0.263-0.362-0.409-0.627-0.327L12 19.957 2.649 17.023c-0.263-0.083-0.544 0.064-0.627 0.327-0.082 0.264 0.064 0.544 0.328 0.627l7.98 2.504-7.98 2.504c-0.264 0.083-0.41 0.363-0.328 0.627 0.067 0.213 0.265 0.35 0.478 0.35 0.05 0 0.1-7e-3 0.149-0.023L12 21.005l9.351 2.934c0.05 0.016 0.1 0.023 0.149 0.023 0.213 0 0.41-0.137 0.478-0.35 0.082-0.264-0.064-0.544-0.328-0.627l-7.98-2.504 7.98-2.504c0.264-0.083 0.41-0.363 0.328-0.627zM4.5 15.51c0.109 0 0.22-0.036 0.312-0.109 0.216-0.172 0.252-0.486 0.08-0.702-1.744-2.193-3.835-5.419-3.891-8.335-0.032-1.728 0.962-3.459 2.595-4.518 1.678-1.089 3.249-0.931 4.27-0.606 1.624 0.517 3.03 1.837 3.67 3.445 0.152 0.38 0.777 0.38 0.93 0 0.64-1.608 2.047-2.928 3.67-3.445 1.021-0.325 2.591-0.483 4.27 0.606 1.634 1.059 2.628 2.79 2.595 4.518-0.055 2.911-2.141 6.134-3.882 8.325-0.172 0.216-0.136 0.531 0.081 0.703 0.215 0.17 0.529 0.136 0.702-0.081 1.837-2.312 4.039-5.738 4.099-8.929 0.039-2.07-1.13-4.13-3.05-5.375-1.568-1.016-3.387-1.272-5.119-0.72C14.258 0.788 12.859 1.931 12 3.375 11.141 1.931 9.742 0.788 8.169 0.287 6.437-0.264 4.619-9e-3 3.051 1.007 1.132 2.252-0.037 4.312 0 6.383c0.062 3.196 2.268 6.625 4.107 8.938 0.099 0.125 0.245 0.189 0.393 0.189z" />
</svg>