<svg id="sleeping_bag_Layer_1" viewBox="0 0 24 24" fill="currentColor" width="32" height="32" data-name="Layer 1" xmlns="http://www.w3.org/2000/svg" xmlns:xlink="http://www.w3.org/1999/xlink">
    <title>sleeping-bag</title>
    <path d="M19.366 3.519C18.926 1.48 17.079 0 14.974 0H9.025C6.921 0 5.074 1.48 4.633 3.519 4.212 5.459 3.999 7.303 3.999 9c0 3.363 0.735 8.014 1.353 11.322C5.748 22.453 7.61 24 9.776 24h4.447c2.166 0 4.027-1.547 4.424-3.678C19.264 17.013 20 12.363 20 9c0-1.698-0.213-3.542-0.634-5.481zM5.61 3.73C5.952 2.148 7.388 1 9.025 1h5.949c1.637 0 3.073 1.148 3.415 2.73 0.286 1.321 0.467 2.59 0.552 3.797-1.7 0.138-9.075 0.972-13.725 5.105C5.086 11.343 5 10.097 5 9 5 7.374 5.205 5.601 5.61 3.73zM18.216 8.612l-4.31 5.481c-0.657 0.808-1.725 1.129-2.715 0.817l-5.204-1.626c3.846-3.333 9.765-4.376 12.229-4.672zM17.665 20.138c-0.31 1.658-1.757 2.861-3.441 2.861H9.777c-1.685 0-3.132-1.203-3.441-2.861-0.327-1.753-0.684-3.885-0.948-5.993l5.505 1.72c0.351 0.109 0.708 0.163 1.061 0.163 1.042 0 2.046-0.465 2.733-1.312l4.307-5.477c-0.032 3.268-0.735 7.709-1.329 10.899zM12 7.999c1.654 0 3-1.346 3-3s-1.346-3-3-3-3 1.346-3 3 1.346 3 3 3zM12 2.999c1.103 0 2 0.897 2 2s-0.897 2-2 2-2-0.897-2-2 0.897-2 2-2z" />
</svg>