<svg id="sleigh_Layer_1" viewBox="0 0 24 24" fill="currentColor" width="32" height="32" data-name="Layer 1" xmlns="http://www.w3.org/2000/svg" xmlns:xlink="http://www.w3.org/1999/xlink">
    <title>sleigh</title>
    <path d="M19.5 17c2.481 0 4.5-2.019 4.5-4.5v-4C24 7.122 22.879 6 21.5 6S19 7.122 19 8.5C19 8.776 18.775 9 18.5 9h-5.254C11.637 9 10.24 7.91 9.85 6.349l-0.484-1.94C8.864 2.402 7.068 1 5 1H3.5C1.57 1 0 2.57 0 4.5v8C0 14.981 2.019 17 4.5 17H6v5H0.5C0.224 22 0 22.224 0 22.5S0.224 23 0.5 23h20c1.93 0 3.5-1.57 3.5-3.5 0-0.276-0.224-0.5-0.5-0.5S23 19.224 23 19.5c0 1.378-1.121 2.5-2.5 2.5H17v-5zM1 12.5v-8C1 3.122 2.121 2 3.5 2H5c1.609 0 3.006 1.09 3.396 2.651l0.484 1.94C9.382 8.598 11.178 10 13.246 10H18.5c0.827 0 1.5-0.673 1.5-1.5S20.673 7 21.5 7 23 7.673 23 8.5v4c0 1.93-1.57 3.5-3.5 3.5h-15C2.57 16 1 14.43 1 12.5zM16 22H7v-5h9z" />
</svg>