<svg id="sliders_v_Layer_1" viewBox="0 0 24 24" fill="currentColor" width="32" height="32" data-name="Layer 1" xmlns="http://www.w3.org/2000/svg" xmlns:xlink="http://www.w3.org/1999/xlink">
    <title>sliders-v</title>
    <path d="M4 4.036V0.5C4 0.224 3.776 0 3.5 0S3 0.224 3 0.5v3.536C1.306 4.279 0 5.74 0 7.5s1.306 3.221 3 3.464V23.5C3 23.776 3.224 24 3.5 24S4 23.776 4 23.5V10.964C5.694 10.721 7 9.26 7 7.5S5.694 4.279 4 4.036zM3.5 10C2.121 10 1 8.879 1 7.5S2.121 5 3.5 5 6 6.121 6 7.5 4.879 10 3.5 10zM12.5 13.036V0.5C12.5 0.224 12.276 0 12 0s-0.5 0.224-0.5 0.5v12.536c-1.694 0.243-3 1.704-3 3.464s1.306 3.221 3 3.464V23.5c0 0.276 0.224 0.5 0.5 0.5s0.5-0.224 0.5-0.5v-3.536c1.694-0.243 3-1.704 3-3.464s-1.306-3.221-3-3.464zM12 19c-1.379 0-2.5-1.121-2.5-2.5S10.621 14 12 14s2.5 1.121 2.5 2.5S13.379 19 12 19zM24 7.5c0-1.76-1.306-3.221-3-3.464V0.5C21 0.224 20.776 0 20.5 0S20 0.224 20 0.5v3.536C18.306 4.279 17 5.74 17 7.5s1.306 3.221 3 3.464V23.5c0 0.276 0.224 0.5 0.5 0.5s0.5-0.224 0.5-0.5V10.964c1.694-0.243 3-1.704 3-3.464zM20.5 10C19.121 10 18 8.879 18 7.5S19.121 5 20.5 5 23 6.121 23 7.5 21.879 10 20.5 10z" />
</svg>