<svg id="sliders_v_square_Layer_1" viewBox="0 0 24 24" fill="currentColor" width="32" height="32" data-name="Layer 1" xmlns="http://www.w3.org/2000/svg" xmlns:xlink="http://www.w3.org/1999/xlink">
    <title>sliders-v-square</title>
    <path d="M19.5 0h-15C2.019 0 0 2.019 0 4.5v15C0 21.981 2.019 24 4.5 24h15c2.481 0 4.5-2.019 4.5-4.5v-15C24 2.019 21.981 0 19.5 0zM23 19.5c0 1.93-1.57 3.5-3.5 3.5h-15C2.57 23 1 21.43 1 19.5v-15C1 2.57 2.57 1 4.5 1h15C21.43 1 23 2.57 23 4.5zM11 8.5C11 8.776 10.776 9 10.5 9H8v9.5C8 18.776 7.776 19 7.5 19S7 18.776 7 18.5V9H4.5C4.224 9 4 8.776 4 8.5S4.224 8 4.5 8H7V5.5C7 5.224 7.224 5 7.5 5S8 5.224 8 5.5V8h2.5C10.776 8 11 8.224 11 8.5zM20 15.5c0 0.276-0.224 0.5-0.5 0.5H17v2.5c0 0.276-0.224 0.5-0.5 0.5S16 18.776 16 18.5V16h-2.5c-0.276 0-0.5-0.224-0.5-0.5s0.224-0.5 0.5-0.5H16V5.5C16 5.224 16.224 5 16.5 5S17 5.224 17 5.5V15h2.5c0.276 0 0.5 0.224 0.5 0.5z" />
</svg>