<svg id="sliders_h_square_Layer_1" viewBox="0 0 24 24" fill="currentColor" width="32" height="32" data-name="Layer 1" xmlns="http://www.w3.org/2000/svg" xmlns:xlink="http://www.w3.org/1999/xlink">
    <title>sliders-h-square</title>
    <path d="M19.5 0h-15C2.019 0 0 2.019 0 4.5v15C0 21.981 2.019 24 4.5 24h15c2.481 0 4.5-2.019 4.5-4.5v-15C24 2.019 21.981 0 19.5 0zM23 19.5c0 1.93-1.57 3.5-3.5 3.5h-15C2.57 23 1 21.43 1 19.5v-15C1 2.57 2.57 1 4.5 1h15C21.43 1 23 2.57 23 4.5zM19 7.5C19 7.776 18.776 8 18.5 8H9v2.5C9 10.776 8.776 11 8.5 11S8 10.776 8 10.5V8H5.5C5.224 8 5 7.776 5 7.5S5.224 7 5.5 7H8V4.5C8 4.224 8.224 4 8.5 4S9 4.224 9 4.5V7h9.5C18.776 7 19 7.224 19 7.5zM19 16.5c0 0.276-0.224 0.5-0.5 0.5H16v2.5c0 0.276-0.224 0.5-0.5 0.5S15 19.776 15 19.5V17H5.5C5.224 17 5 16.776 5 16.5S5.224 16 5.5 16H15v-2.5c0-0.276 0.224-0.5 0.5-0.5s0.5 0.224 0.5 0.5V16h2.5c0.276 0 0.5 0.224 0.5 0.5z" />
</svg>