<svg id="slot_machine_Layer_1" viewBox="0 0 24 24" fill="currentColor" width="32" height="32" data-name="Layer 1" xmlns="http://www.w3.org/2000/svg" xmlns:xlink="http://www.w3.org/1999/xlink">
    <title>slot-machine</title>
    <path d="M24 1.5C24 0.673 23.327 0 22.5 0S21 0.673 21 1.5c0 0.651 0.419 1.201 1 1.408V8.5c0 1.378-1.121 2.5-2.5 2.5H19V9.5C19 4.262 14.738 0 9.5 0S0 4.262 0 9.5v10C0 21.981 2.019 24 4.5 24h10c2.481 0 4.5-2.019 4.5-4.5V12h0.5c1.93 0 3.5-1.57 3.5-3.5V2.908c0.581-0.207 1-0.757 1-1.408zM7.5 15V8H12v7zM1 15V9.5C1 8.987 1.053 8.488 1.141 8H6.5v7zM13 8h4.859C17.946 8.488 18 8.987 18 9.5V15h-5zM9.5 1c3.817 0 7.053 2.529 8.124 6H1.376C2.447 3.529 5.683 1 9.5 1zM14.5 23h-10C2.57 23 1 21.43 1 19.5V16h17v3.5c0 1.93-1.57 3.5-3.5 3.5zM10.924 10.536 9.261 14.097c-0.085 0.182-0.266 0.288-0.453 0.288-0.071 0-0.144-0.015-0.212-0.047-0.25-0.117-0.358-0.415-0.241-0.665l1.649-3.529c7e-3-0.021-0.01-0.062-0.027-0.088C9.959 10.03 9.927 10 9.871 10h-1.37c-0.276 0-0.5-0.224-0.5-0.5S8.225 9 8.501 9h1.37c0.372 0 0.721 0.184 0.932 0.49 0.21 0.308 0.256 0.698 0.121 1.046zM16.924 10.536l-1.663 3.561c-0.085 0.182-0.266 0.288-0.453 0.288-0.071 0-0.144-0.015-0.212-0.047-0.25-0.117-0.358-0.415-0.241-0.665l1.649-3.529c7e-3-0.021-0.01-0.062-0.027-0.088C15.959 10.03 15.927 10 15.871 10h-1.37c-0.276 0-0.5-0.224-0.5-0.5s0.224-0.5 0.5-0.5h1.37c0.372 0 0.721 0.184 0.932 0.49 0.21 0.308 0.256 0.698 0.121 1.046zM4.924 10.536 3.261 14.097c-0.085 0.182-0.266 0.288-0.453 0.288-0.071 0-0.144-0.015-0.212-0.047-0.25-0.117-0.358-0.415-0.241-0.665l1.649-3.529c7e-3-0.021-0.01-0.062-0.027-0.088C3.959 10.03 3.927 10 3.871 10h-1.37c-0.276 0-0.5-0.224-0.5-0.5S2.225 9 2.501 9h1.37c0.372 0 0.721 0.184 0.932 0.49 0.21 0.308 0.256 0.698 0.121 1.046z" />
</svg>