<svg id="smart_watch_notifications_Layer_1" viewBox="0 0 24 24" fill="currentColor" width="32" height="32" data-name="Layer 1" xmlns="http://www.w3.org/2000/svg" xmlns:xlink="http://www.w3.org/1999/xlink">
    <title>smart-watch-notifications</title>
    <path d="M20 10.5v6c0 1.557-0.795 2.93-2 3.738V23.5c0 0.276-0.224 0.5-0.5 0.5S17 23.776 17 23.5v-2.776C16.529 20.892 16.029 21 15.5 21h-7c-0.529 0-1.029-0.108-1.5-0.276V23.5C7 23.776 6.776 24 6.5 24S6 23.776 6 23.5v-3.262C4.795 19.43 4 18.056 4 16.5v-9c0-1.557 0.795-2.93 2-3.738V0.5C6 0.224 6.224 0 6.5 0S7 0.224 7 0.5v2.776C7.471 3.108 7.971 3 8.5 3h5C13.776 3 14 3.224 14 3.5S13.776 4 13.5 4h-5C6.57 4 5 5.57 5 7.5v9C5 18.43 6.57 20 8.5 20h7c1.93 0 3.5-1.57 3.5-3.5v-6c0-0.276 0.224-0.5 0.5-0.5s0.5 0.224 0.5 0.5zM24 4c0 2.206-1.794 4-4 4s-4-1.794-4-4 1.794-4 4-4 4 1.794 4 4zM23 4c0-1.654-1.346-3-3-3s-3 1.346-3 3 1.346 3 3 3 3-1.346 3-3zM9 8h6c1.103 0 2 0.897 2 2v4c0 1.103-0.897 2-2 2H9c-1.103 0-2-0.897-2-2v-4c0-1.103 0.897-2 2-2zM15.983 9.916l-2.569 2.569c-0.39 0.39-0.902 0.584-1.414 0.584s-1.024-0.195-1.414-0.584L8.017 9.916C8.014 9.945 8 14 8 14c0 0.551 0.448 1 1 1h6c0.552 0 1-0.449 1-1 0 0-0.014-4.055-0.017-4.084zM15 9H9C8.857 9 8.723 9.032 8.6 9.086l2.693 2.693c0.391 0.39 1.023 0.39 1.414 0L15.4 9.086C15.277 9.032 15.143 9 15 9z" />
</svg>