<svg id="smart_watch_call_Layer_1" viewBox="0 0 24 24" fill="currentColor" width="32" height="32" data-name="Layer 1" xmlns="http://www.w3.org/2000/svg" xmlns:xlink="http://www.w3.org/1999/xlink">
    <title>smart-watch-call</title>
    <path d="M18 3.762V0.5C18 0.224 17.776 0 17.5 0S17 0.224 17 0.5v2.776C16.529 3.108 16.029 3 15.5 3h-7C7.971 3 7.471 3.108 7 3.276V0.5C7 0.224 6.776 0 6.5 0S6 0.224 6 0.5v3.262C4.795 4.57 4 5.944 4 7.5v9c0 1.557 0.795 2.93 2 3.738V23.5C6 23.776 6.224 24 6.5 24S7 23.776 7 23.5v-2.776C7.471 20.892 7.971 21 8.5 21h7c0.529 0 1.029-0.108 1.5-0.276V23.5c0 0.276 0.224 0.5 0.5 0.5s0.5-0.224 0.5-0.5v-3.262c1.205-0.808 2-2.182 2-3.738v-9c0-1.557-0.795-2.93-2-3.738zM19 16.5c0 1.93-1.57 3.5-3.5 3.5h-7C6.57 20 5 18.43 5 16.5v-9C5 5.57 6.57 4 8.5 4h7C17.43 4 19 5.57 19 7.5zM16.559 6.453c-0.604-0.604-1.585-0.602-2.232 0.049l-0.874 1.145c-0.603 0.604-0.603 1.585-0.037 2.146l0.595 0.748c-0.729 1.654-1.867 2.795-3.466 3.474l-0.732-0.583c-0.605-0.581-1.57-0.576-2.118-0.021l-1.243 0.96c-0.603 0.604-0.603 1.585-0.023 2.163l0.502 0.575c0.574 0.575 1.351 0.892 2.188 0.892 3.818 0 8.881-5.062 8.881-8.881 0-0.837-0.317-1.614-0.917-2.21zM9.12 17c-0.569 0-1.095-0.213-1.457-0.573l-0.502-0.575c-0.213-0.214-0.213-0.561-0.049-0.731l1.242-0.96c0.104-0.104 0.241-0.16 0.387-0.16s0.284 0.057 0.387 0.16c0.013 0.014 1.022 0.818 1.022 0.818 0.138 0.109 0.325 0.138 0.49 0.075 2.07-0.79 3.554-2.271 4.411-4.405 0.067-0.167 0.04-0.357-0.073-0.498l-0.817-1.022c-0.213-0.214-0.213-0.561 0.042-0.823l0.874-1.145c0.213-0.215 0.561-0.215 0.8 0.023l0.525 0.457C16.788 8.025 17 8.55 17 9.12c0 3.479-4.886 7.881-7.88 7.88z" />
</svg>