<svg id="smart_home_key_Layer_1" viewBox="0 0 24 24" fill="currentColor" width="32" height="32" data-name="Layer 1" xmlns="http://www.w3.org/2000/svg" xmlns:xlink="http://www.w3.org/1999/xlink">
    <title>smart-home-key</title>
    <path d="M20.698 13.302c0.391 0.391 0.391 1.024 0 1.414s-1.024 0.391-1.414 0-0.391-1.024 0-1.414c0.391-0.391 1.024-0.391 1.414 0zM24 15c0 2.757-2.243 5-5 5-0.415 0-0.836-0.061-1.28-0.185l-3.452 3.452c-0.471 0.471-1.098 0.731-1.766 0.732H11.5c-0.827 0-1.5-0.673-1.5-1.5v-1c0-0.552 0.448-1 1-1h1v-1c0-0.552 0.449-1 1-1h0.494l6e-3-1.247c-1e-3-0.133 0.027-0.261 0.119-0.355l0.573-0.588C14.063 15.856 14 15.425 14 14.999c0-2.757 2.243-5 5-5s5 2.243 5 5.001zM23 15c0-2.206-1.794-4-4-4s-4 1.794-4 4c0 0.406 0.076 0.826 0.231 1.283 0.061 0.178 0.017 0.375-0.095 0.51l-0.637 0.653v1.547c9e-3 0.271-0.228 0.512-0.5 0.507h-1V21c0 0.276-0.224 0.5-0.5 0.5h-1.5v1c0 0.275 0.225 0.5 0.5 0.5H12.5c0.4 0 0.777-0.157 1.06-0.439l3.665-3.665c0.134-0.135 0.333-0.179 0.512-0.121 0.453 0.152 0.865 0.226 1.262 0.226 2.206 0 4-1.794 4.001-4.001zM7.5 23h-3C2.57 23 1 21.43 1 19.5V9.561c0-1.165 0.577-2.25 1.542-2.901l7.5-5.061c1.189-0.803 2.727-0.803 3.915 0l7.5 5.061c0.966 0.652 1.542 1.736 1.542 2.901 0 0.276 0.224 0.5 0.5 0.5s0.5-0.224 0.5-0.5c0-1.498-0.741-2.893-1.983-3.73L14.517 0.77c-1.528-1.03-3.504-1.031-5.034 0l-7.5 5.061C0.741 6.669 0 8.063 0 9.561V19.5C0 21.981 2.019 24 4.5 24h3C7.776 24 8 23.776 8 23.5S7.776 23 7.5 23zM11.995 15.465c-0.04-0.273-0.295-0.458-0.566-0.424-0.861 0.124-1.642 0.515-2.258 1.131-0.195 0.195-0.195 0.512 0 0.707s0.512 0.195 0.707 0c0.462-0.462 1.047-0.756 1.692-0.848 0.273-0.039 0.463-0.293 0.425-0.566zM7.05 14.05c-0.195 0.195-0.195 0.512 0 0.707s0.512 0.195 0.707 0C8.89 13.624 10.397 13 12 13c0.276 0 0.5-0.224 0.5-0.5S12.276 12 12 12c-1.87 0-3.627 0.728-4.95 2.05zM14.488 9.817c0.058-0.27-0.114-0.536-0.384-0.594-3.339-0.716-6.767 0.297-9.176 2.706-0.195 0.195-0.195 0.512 0 0.707s0.512 0.195 0.707 0c2.168-2.168 5.259-3.078 8.259-2.436 0.272 0.058 0.536-0.114 0.594-0.383z" />
</svg>