<svg id="smart_wireless_door_Layer_1" viewBox="0 0 24 24" fill="currentColor" width="32" height="32" data-name="Layer 1" xmlns="http://www.w3.org/2000/svg" xmlns:xlink="http://www.w3.org/1999/xlink">
    <title>smart-wireless-door</title>
    <path d="M7 14c-1.103 0-2 0.897-2 2 0 0.521 0.203 1.016 0.558 1.385l-0.515 1.249c-0.095 0.325-0.033 0.668 0.171 0.938C5.418 19.844 5.729 20 6.068 20h1.863c0.339 0 0.651-0.155 0.854-0.428 0.204-0.271 0.266-0.613 0.153-0.99l-0.496-1.197C8.796 17.016 8.999 16.522 8.999 16c0-1.103-0.897-2-1.999-2zM7.38 17.433 7.931 19 5.984 18.965l0.635-1.532c0.091-0.219 0.015-0.472-0.18-0.604C6.164 16.641 6 16.332 6 16.001c0-0.552 0.449-1 1-1s1 0.448 1 1c0 0.331-0.164 0.641-0.439 0.828-0.195 0.133-0.271 0.386-0.181 0.604zM13.215 21.068c-0.241-0.14-0.546-0.057-0.683 0.183-0.625 1.079-1.787 1.75-3.032 1.75h-5c-1.93 0-3.5-1.57-3.5-3.5V4.5C1 2.57 2.57 1 4.5 1h5c1.809 0 3.285 1.386 3.464 3.149-2.134 0.383-4.465 0.746-6.542 0.832-0.805 0.033-1.435 0.695-1.435 1.507-0.019 0.817 0.703 1.53 1.515 1.511 1.923-0.01 4.466-0.083 6.498-0.342v5.844c0 0.276 0.224 0.5 0.5 0.5s0.5-0.224 0.5-0.5V7.506c0.029-5e-3 0.062-9e-3 0.091-0.015 1.189-0.222 2.535-0.365 4.104-0.436 0.435 1.148 1.554 1.944 2.804 1.944 0.915 0 1.769-0.411 2.342-1.127 0.573-0.715 0.785-1.647 0.582-2.556-0.306-1.37-1.622-2.333-3.138-2.315-1.809 0.035-4.252 0.489-6.839 0.97C13.681 1.74 11.8-1e-3 9.499-1e-3H4.5C2.019 0 0 2.019 0 4.5v15C0 21.981 2.019 24 4.5 24h5c1.602 0 3.095-0.862 3.897-2.25 0.139-0.238 0.057-0.545-0.182-0.682zM20.805 4.002c1.067-0.042 1.94 0.626 2.144 1.534 0.136 0.611-4e-3 1.235-0.387 1.712C22.179 7.726 21.61 8 21 8c-0.928 0-1.748-0.66-1.949-1.568C19 6.203 18.797 6.04 18.563 6.04c-6e-3 0-0.012 0-0.019 0-1.786 0.066-3.302 0.22-4.635 0.468-2.169 0.404-5.575 0.48-7.412 0.49-0.295 0.024-0.505-0.242-0.51-0.511 0-0.269 0.213-0.497 0.477-0.508 2.455-0.103 5.245-0.574 7.651-1.021 2.551-0.475 4.96-0.924 6.69-0.956zM19 23c0 0.552-0.448 1-1 1s-1-0.448-1-1 0.448-1 1-1 1 0.448 1 1zM20.829 20.172c0.195 0.195 0.195 0.512 0 0.707s-0.512 0.195-0.707 0c-1.17-1.17-3.073-1.17-4.243 0-0.195 0.195-0.512 0.195-0.707 0s-0.195-0.512 0-0.707c1.56-1.561 4.098-1.561 5.657 0zM23.657 17.343c0.195 0.195 0.195 0.512 0 0.707s-0.512 0.195-0.707 0c-2.729-2.729-7.17-2.729-9.899 0-0.195 0.195-0.512 0.195-0.707 0s-0.195-0.512 0-0.707c3.119-3.119 8.194-3.119 11.313 0z" />
</svg>