<svg id="smart_building_Layer_1" viewBox="0 0 24 24" fill="currentColor" width="32" height="32" data-name="Layer 1" xmlns="http://www.w3.org/2000/svg" xmlns:xlink="http://www.w3.org/1999/xlink">
    <title>smart-building</title>
    <path d="M22 20c-0.929 0-1.705 0.64-1.929 1.5H18.5c-0.827 0-1.5-0.673-1.5-1.5v-2h6.5c0.276 0 0.5-0.224 0.5-0.5S23.776 17 23.5 17H20V4.5C20 2.019 17.981 0 15.5 0h-7C6.019 0 4 2.019 4 4.5V17H0.5C0.224 17 0 17.224 0 17.5S0.224 18 0.5 18H7v2c0 0.827-0.673 1.5-1.5 1.5H3.929C3.705 20.64 2.929 20 2 20c-1.103 0-2 0.897-2 2s0.897 2 2 2c0.929 0 1.705-0.64 1.929-1.5H5.5C6.879 22.5 8 21.379 8 20v-2h3.5v2.071c-0.86 0.224-1.5 1-1.5 1.929 0 1.103 0.897 2 2 2s2-0.897 2-2c0-0.929-0.64-1.705-1.5-1.929V18H16v2c0 1.379 1.121 2.5 2.5 2.5h1.571c0.224 0.86 1 1.5 1.929 1.5 1.103 0 2-0.897 2-2s-0.897-2-2-2zM2 23c-0.552 0-1-0.448-1-1s0.448-1 1-1 1 0.448 1 1-0.448 1-1 1zM13 22c0 0.552-0.448 1-1 1s-1-0.448-1-1 0.448-1 1-1 1 0.448 1 1zM5 4.5C5 2.57 6.57 1 8.5 1h7C17.43 1 19 2.57 19 4.5V17H5zM22 23c-0.552 0-1-0.448-1-1s0.448-1 1-1 1 0.448 1 1-0.448 1-1 1zM8 13.5C8 13.224 8.224 13 8.5 13h2c0.276 0 0.5 0.224 0.5 0.5S10.776 14 10.5 14h-2C8.224 14 8 13.776 8 13.5zM13 13.5c0-0.276 0.224-0.5 0.5-0.5h2c0.276 0 0.5 0.224 0.5 0.5S15.776 14 15.5 14h-2c-0.276 0-0.5-0.224-0.5-0.5zM8 5.5C8 5.224 8.224 5 8.5 5h2C10.776 5 11 5.224 11 5.5S10.776 6 10.5 6h-2C8.224 6 8 5.776 8 5.5zM13 5.5C13 5.224 13.224 5 13.5 5h2C15.776 5 16 5.224 16 5.5S15.776 6 15.5 6h-2C13.224 6 13 5.776 13 5.5zM8 9.5C8 9.224 8.224 9 8.5 9h2C10.776 9 11 9.224 11 9.5S10.776 10 10.5 10h-2C8.224 10 8 9.776 8 9.5zM13 9.5C13 9.224 13.224 9 13.5 9h2C15.776 9 16 9.224 16 9.5S15.776 10 15.5 10h-2C13.224 10 13 9.776 13 9.5z" />
</svg>