<svg id="smart_home_alt_Layer_1" viewBox="0 0 24 24" fill="currentColor" width="32" height="32" data-name="Layer 1" xmlns="http://www.w3.org/2000/svg" xmlns:xlink="http://www.w3.org/1999/xlink">
    <title>smart-home-alt</title>
    <path d="M22.275 6.834l-7.5-5.876c-1.635-1.281-3.917-1.281-5.551 0L1.725 6.834C0.629 7.692 0 8.983 0 10.376V19.5C0 21.981 2.019 24 4.5 24h15c2.481 0 4.5-2.019 4.5-4.5v-9.124c0-1.393-0.629-2.684-1.725-3.542zM23 19.5c0 1.93-1.57 3.5-3.5 3.5h-15C2.57 23 1 21.43 1 19.5v-9.124c0-1.083 0.489-2.087 1.342-2.755l7.5-5.876C10.477 1.247 11.238 0.998 12 0.998s1.523 0.249 2.158 0.747l7.5 5.876c0.853 0.668 1.341 1.672 1.341 2.755zM11.5 14.5v-6C11.5 8.224 11.724 8 12 8s0.5 0.224 0.5 0.5v6c0 0.276-0.224 0.5-0.5 0.5s-0.5-0.224-0.5-0.5zM18 14c0 3.309-2.691 6-6 6s-6-2.691-6-6c0-1.949 0.956-3.784 2.556-4.909 0.227-0.159 0.538-0.104 0.697 0.122S9.357 9.75 9.131 9.909C7.797 10.847 7 12.376 7 14c0 2.757 2.243 5 5 5s5-2.243 5-5c0-1.624-0.797-3.153-2.131-4.091-0.226-0.159-0.28-0.471-0.122-0.696 0.159-0.227 0.471-0.281 0.697-0.122C17.045 10.216 18 12.051 18 14z" />
</svg>