<svg id="smart_home_chip_Layer_1" viewBox="0 0 24 24" fill="currentColor" width="32" height="32" data-name="Layer 1" xmlns="http://www.w3.org/2000/svg" xmlns:xlink="http://www.w3.org/1999/xlink">
    <title>smart-home-chip</title>
    <path d="M23.5 9C23.776 9 24 8.776 24 8.5S23.776 8 23.5 8H22V6.5c0-0.171-0.032-0.334-0.051-0.5H23.5C23.776 6 24 5.776 24 5.5S23.776 5 23.5 5h-1.776C21.271 3.729 20.271 2.73 19 2.276V0.5C19 0.224 18.776 0 18.5 0S18 0.224 18 0.5v1.551C17.834 2.032 17.671 2 17.5 2H16V0.5C16 0.224 15.776 0 15.5 0S15 0.224 15 0.5V2h-2.5V0.5C12.5 0.224 12.276 0 12 0s-0.5 0.224-0.5 0.5V2H9V0.5C9 0.224 8.776 0 8.5 0S8 0.224 8 0.5V2H6.5C6.329 2 6.166 2.032 6 2.051V0.5C6 0.224 5.776 0 5.5 0S5 0.224 5 0.5v1.776C3.729 2.729 2.73 3.729 2.276 5H0.5C0.224 5 0 5.224 0 5.5S0.224 6 0.5 6h1.551C2.032 6.166 2 6.329 2 6.5V8H0.5C0.224 8 0 8.224 0 8.5S0.224 9 0.5 9H2v2.5H0.5C0.224 11.5 0 11.724 0 12s0.224 0.5 0.5 0.5H2V15H0.5C0.224 15 0 15.224 0 15.5S0.224 16 0.5 16H2v1.5c0 0.171 0.032 0.334 0.051 0.5H0.5C0.224 18 0 18.224 0 18.5S0.224 19 0.5 19h1.776C2.729 20.271 3.729 21.27 5 21.724V23.5C5 23.776 5.224 24 5.5 24S6 23.776 6 23.5v-1.551C6.166 21.968 6.329 22 6.5 22H8v1.5C8 23.776 8.224 24 8.5 24S9 23.776 9 23.5V22h2.5v1.5c0 0.276 0.224 0.5 0.5 0.5s0.5-0.224 0.5-0.5V22H15v1.5c0 0.276 0.224 0.5 0.5 0.5s0.5-0.224 0.5-0.5V22h1.5c0.171 0 0.334-0.032 0.5-0.051V23.5c0 0.276 0.224 0.5 0.5 0.5s0.5-0.224 0.5-0.5v-1.776c1.271-0.453 2.27-1.453 2.724-2.724H23.5c0.276 0 0.5-0.224 0.5-0.5S23.776 18 23.5 18h-1.551C21.968 17.834 22 17.671 22 17.5V16h1.5c0.276 0 0.5-0.224 0.5-0.5S23.776 15 23.5 15H22v-2.5h1.5c0.276 0 0.5-0.224 0.5-0.5s-0.224-0.5-0.5-0.5H22V9zM17.5 21h-11C4.57 21 3 19.43 3 17.5v-11C3 4.57 4.57 3 6.5 3h11C19.43 3 21 4.57 21 6.5v11c0 1.93-1.57 3.5-3.5 3.5zM12.5 11h-1c-0.827 0-1.5 0.673-1.5 1.5v1c0 0.827 0.673 1.5 1.5 1.5h1c0.827 0 1.5-0.673 1.5-1.5v-1c0-0.827-0.673-1.5-1.5-1.5zM13 13.5c0 0.276-0.224 0.5-0.5 0.5h-1c-0.276 0-0.5-0.224-0.5-0.5v-1c0-0.276 0.224-0.5 0.5-0.5h1c0.276 0 0.5 0.224 0.5 0.5zM16.898 8.79l-3.5-2.362c-0.85-0.573-1.947-0.573-2.797 0l-3.5 2.362c-0.69 0.465-1.102 1.24-1.102 2.072V15.5c0 1.378 1.122 2.5 2.5 2.5h7c1.378 0 2.5-1.122 2.5-2.5v-4.638c0-0.833-0.412-1.607-1.101-2.072zM17 15.5c0 0.827-0.673 1.5-1.5 1.5h-7C7.673 17 7 16.327 7 15.5v-4.638c0-0.5 0.247-0.964 0.661-1.243l3.5-2.362C11.416 7.085 11.708 6.999 12 6.999s0.584 0.086 0.839 0.258l3.5 2.362C16.753 9.898 17 10.363 17 10.862z" />
</svg>