<svg id="smartwatch_Layer_1" viewBox="0 0 24 24" fill="currentColor" width="32" height="32" data-name="Layer 1" xmlns="http://www.w3.org/2000/svg" xmlns:xlink="http://www.w3.org/1999/xlink">
    <title>smartwatch</title>
    <path d="M15.995 19.939c0 8e-3 5e-3 0.016 5e-3 0.024V23.5c0 0.276-0.224 0.5-0.5 0.5S15 23.776 15 23.5v-2.767C14.52 20.903 14.014 21 13.5 21h-7c-0.529 0-1.029-0.108-1.5-0.276V23.5C5 23.776 4.776 24 4.5 24S4 23.776 4 23.5v-3.262C2.795 19.43 2 18.056 2 16.5v-9c0-1.557 0.795-2.93 2-3.738V0.5C4 0.224 4.224 0 4.5 0S5 0.224 5 0.5v2.776C5.471 3.108 5.971 3 6.5 3h7c0.519 0 1.022 0.1 1.5 0.269V0.5C15 0.224 15.224 0 15.5 0S16 0.224 16 0.5v3.269c0.2 0.134 0.395 0.277 0.574 0.444 0.202 0.188 0.212 0.505 0.023 0.707-0.19 0.201-0.506 0.211-0.707 0.023C15.24 4.335 14.391 4 13.5 4h-7C4.57 4 3 5.57 3 7.5v9C3 18.43 4.57 20 6.5 20h7c0.616 0 1.221-0.162 1.751-0.469 0.313-0.175 0.73 0.043 0.744 0.408zM21.545 15.187C21.13 15.705 20.502 16 19.821 16h-0.605c-0.128 1.119-1.069 1.994-2.221 1.994S14.901 17.119 14.774 16h-0.6c-0.68 0-1.308-0.296-1.723-0.812-0.39-0.484-0.538-1.107-0.406-1.708 0.196-0.891 0.428-1.656 0.629-2.551C13.228 8.469 14.845 7 17 7c2.168 0 3.786 1.47 4.326 3.931 0.198 0.903 0.427 1.658 0.624 2.547 0.133 0.601-0.015 1.224-0.405 1.709zM18.191 16h-2.392c0.121 0.562 0.598 0.994 1.196 0.994S18.07 16.562 18.191 16zM20.973 13.692c-0.197-0.887-0.426-1.643-0.624-2.547-0.208-0.946-0.95-3.146-3.35-3.146-2.384 0-3.137 2.201-3.35 3.147-0.2 0.895-0.432 1.658-0.628 2.547-0.067 0.308 6e-3 0.616 0.208 0.867 0.224 0.278 0.568 0.438 0.943 0.438h5.648c0.375 0 0.72-0.16 0.944-0.439 0.202-0.251 0.276-0.56 0.209-0.867z" />
</svg>