<svg id="smartphone_ar_Layer_1" viewBox="0 0 24 24" fill="currentColor" width="32" height="32" data-name="Layer 1" xmlns="http://www.w3.org/2000/svg" xmlns:xlink="http://www.w3.org/1999/xlink">
    <title>smartphone-ar</title>
    <path d="M8.988 10.563l2 1.173C11.3 11.919 11.65 12.011 12 12.011s0.7-0.092 1.012-0.275l2-1.173C15.622 10.206 16 9.544 16 8.838V6.185c0-0.707-0.379-1.368-0.988-1.725l-2-1.173c-0.624-0.367-1.4-0.367-2.024 0l-2 1.173c-0.61 0.357-0.989 1.018-0.989 1.725v2.653c0 0.707 0.378 1.368 0.989 1.725zM14.506 9.701l-2 1.173c-0.312 0.183-0.699 0.183-1.012 0l-2-1.173C9.189 9.522 9 9.192 9 8.838V6.546l2.027 1.19C11.327 7.912 11.664 8 12 8s0.673-0.088 0.973-0.264L15 6.546v2.292c0 0.354-0.189 0.684-0.494 0.863zM9.494 5.323l2-1.173c0.156-0.092 0.331-0.138 0.505-0.138s0.35 0.046 0.506 0.138l2 1.174c0.095 0.055 0.173 0.129 0.244 0.21l-2.283 1.34c-0.288 0.168-0.645 0.169-0.934 0l-2.283-1.34c0.07-0.081 0.149-0.155 0.245-0.211zM10 20.5c0-0.276 0.224-0.5 0.5-0.5h3c0.276 0 0.5 0.224 0.5 0.5S13.776 21 13.5 21h-3c-0.276 0-0.5-0.224-0.5-0.5zM22.951 6.159 20 4.674V4.5C20 2.019 17.981 0 15.5 0h-7C6.019 0 4 2.019 4 4.5v0.195L1.091 6.159C0.461 6.476 0.06 7.112 0.043 7.82s0.354 1.364 0.97 1.71L4 11.213v8.286c0 2.481 2.019 4.5 4.5 4.5h7c2.481 0 4.5-2.019 4.5-4.5v-8.261l3.03-1.708c0.615-0.347 0.986-1.001 0.97-1.709s-0.418-1.345-1.049-1.662zM8.5 1h7C17.43 1 19 2.57 19 4.5v6.154l-5.029 2.835c-1.202 0.677-2.695 0.677-3.897 0L5.001 10.63c0-0.349 0-5.909 0-6.129 0-1.93 1.57-3.5 3.499-3.501zM1.504 8.659c-0.297-0.167-0.47-0.472-0.461-0.816 8e-3-0.342 0.194-0.638 0.498-0.791L4 5.814v4.251zM19 19.5c0 1.93-1.57 3.5-3.5 3.5h-7C6.57 23 5 21.43 5 19.5V18h14zM19 17H5v-5.223l4.582 2.582c0.752 0.424 1.596 0.636 2.44 0.636s1.688-0.212 2.44-0.636L19 11.801zM22.539 8.659 20 10.09V5.794l2.501 1.259c0.304 0.153 0.49 0.449 0.499 0.792 8e-3 0.343-0.165 0.647-0.461 0.814z" />
</svg>