<svg id="smile_plus_Layer_1" viewBox="0 0 24 24" fill="currentColor" width="32" height="32" data-name="Layer 1" xmlns="http://www.w3.org/2000/svg" xmlns:xlink="http://www.w3.org/1999/xlink">
    <title>smile-plus</title>
    <path d="M9 6c-4.962 0-9 4.038-9 9s4.038 9 9 9 9-4.038 9-9-4.038-9-9-9zM9 23c-4.411 0-8-3.589-8-8s3.589-8 8-8 8 3.589 8 8-3.589 8-8 8zM12.855 16.649c0.194 0.196 0.192 0.512-3e-3 0.706C12.784 17.422 11.167 19 9 19s-3.784-1.577-3.852-1.645c-0.196-0.194-0.198-0.509-4e-3-0.706s0.511-0.198 0.707-6e-3C5.865 16.657 7.255 17.999 9 17.999s3.135-1.342 3.149-1.356c0.196-0.193 0.513-0.191 0.706 6e-3zM5 13c0-0.552 0.448-1 1-1s1 0.448 1 1-0.448 1-1 1-1-0.448-1-1zM13 13c0 0.552-0.448 1-1 1s-1-0.448-1-1 0.448-1 1-1 1 0.448 1 1zM24 4.5C24 4.776 23.776 5 23.5 5H20v3.5C20 8.776 19.776 9 19.5 9S19 8.776 19 8.5V5h-3.5C15.224 5 15 4.776 15 4.5S15.224 4 15.5 4H19V0.5C19 0.224 19.224 0 19.5 0S20 0.224 20 0.5V4h3.5C23.776 4 24 4.224 24 4.5z" />
</svg>