<svg id="smiling_boy_Layer_1" viewBox="0 0 24 24" fill="currentColor" width="32" height="32" data-name="Layer 1" xmlns="http://www.w3.org/2000/svg" xmlns:xlink="http://www.w3.org/1999/xlink">
    <title>smiling-boy</title>
    <path d="M24 11c0 1.654-1.346 3-3 3h-0.6c-0.763 1.833-2.387 3.706-4.4 4.861V23.5c0 0.276-0.224 0.5-0.5 0.5S15 23.776 15 23.5v-4.147c-0.952 0.405-1.964 0.648-3 0.648-1.055 0-2.064-0.239-3-0.632v4.13c0 0.276-0.224 0.5-0.5 0.5S8 23.775 8 23.499v-4.625c-1.803-1.03-3.245-2.618-4.054-4.14-0.13-0.244-0.037-0.547 0.207-0.676 0.244-0.131 0.546-0.037 0.676 0.207C6.079 16.618 8.944 19 12 19h2e-3c3.424 0 6.603-2.942 7.586-5.669 0.071-0.198 0.259-0.331 0.47-0.331h0.941c1.103 0 2-0.897 2-2s-0.867-2.033-2.013-2c-0.255 0-0.514-0.186-0.542-0.439C19.969 4.251 16.339 1 11.999 1 5.85 1 4.15 5.175 2.784 8.529 2.396 9.482 2.057 10.314 1.653 10.94c2.283-0.137 7.616-1.088 11.434-6.721 0.156-0.229 0.466-0.287 0.694-0.134 0.229 0.155 0.289 0.466 0.134 0.694-1.328 1.959-2.83 3.386-4.337 4.425 0.25 0.182 0.423 0.462 0.423 0.795 0 0.552-0.448 1-1 1-0.505 0-0.906-0.381-0.973-0.868-3.944 2.087-7.518 1.816-7.573 1.812-0.214-0.02-0.392-0.175-0.441-0.384s0.042-0.427 0.225-0.54c0.602-0.369 1.073-1.527 1.619-2.868C3.18 4.906 5.178 0 12 0c4.71 0 8.674 3.426 9.385 8.036C22.885 8.244 24 9.494 24 11zM16 10c0-0.552-0.448-1-1-1s-1 0.448-1 1 0.448 1 1 1 1-0.448 1-1zM10.085 14c-0.506 0-0.795 0.612-0.447 0.98C10.23 15.608 11.069 16 12 16s1.77-0.392 2.362-1.02c0.347-0.368 0.059-0.98-0.447-0.98z" />
</svg>