<svg id="smile_beam_Layer_1" viewBox="0 0 24 24" fill="currentColor" width="32" height="32" data-name="Layer 1" xmlns="http://www.w3.org/2000/svg" xmlns:xlink="http://www.w3.org/1999/xlink">
    <title>smile-beam</title>
    <path d="M9.5 11C9.224 11 9 10.776 9 10.5 9 9.285 8.229 8 7.5 8S6 9.285 6 10.5C6 10.776 5.776 11 5.5 11S5 10.776 5 10.5C5 8.848 6.069 7 7.5 7S10 8.848 10 10.5c0 0.276-0.224 0.5-0.5 0.5zM19 10.5C19 8.848 17.931 7 16.5 7S14 8.848 14 10.5c0 0.276 0.224 0.5 0.5 0.5s0.5-0.224 0.5-0.5C15 9.285 15.771 8 16.5 8S18 9.285 18 10.5c0 0.276 0.224 0.5 0.5 0.5s0.5-0.224 0.5-0.5zM24 12c0-6.617-5.383-12-12-12S0 5.383 0 12 5.383 24 12 24s12-5.383 12-12zM23 12c0 6.065-4.935 11-11 11S1 18.065 1 12 5.935 1 12 1 23 5.935 23 12zM17.815 15.888c0.214-0.174 0.246-0.488 0.073-0.702-0.174-0.213-0.489-0.246-0.703-0.074-0.023 0.019-2.37 1.889-5.186 1.889s-5.162-1.87-5.186-1.889c-0.216-0.172-0.528-0.139-0.703 0.074-0.173 0.214-0.141 0.528 0.073 0.702C6.289 15.975 8.821 18 11.998 18s5.709-2.025 5.817-2.112z" />
</svg>