<svg id="smile_Layer_1" viewBox="0 0 24 24" fill="currentColor" width="32" height="32" data-name="Layer 1" xmlns="http://www.w3.org/2000/svg" xmlns:xlink="http://www.w3.org/1999/xlink">
    <title>smile</title>
    <path d="M12 0C5.383 0 0 5.383 0 12s5.383 12 12 12 12-5.383 12-12S18.617 0 12 0zM12 23C5.935 23 1 18.065 1 12S5.935 1 12 1 23 5.935 23 12 18.065 23 12 23zM17.373 15.167c0.184 0.206 0.166 0.521-0.04 0.706C17.236 15.96 14.918 18 12 18s-5.236-2.04-5.333-2.127c-0.206-0.184-0.224-0.5-0.04-0.706 0.183-0.206 0.499-0.224 0.706-0.041C7.354 15.145 9.471 17 12 17s4.646-1.854 4.667-1.874c0.206-0.183 0.522-0.165 0.706 0.041zM16.5 7C15.122 7 14 8.122 14 9.5 14 11 15.445 11 16.5 11S19 11 19 9.5C19 8.122 17.878 7 16.5 7zM16.5 10C15.147 10 15 9.899 15 9.5 15 8.673 15.673 8 16.5 8S18 8.673 18 9.5c0 0.399-0.147 0.5-1.5 0.5zM10 9.5C10 8.122 8.878 7 7.5 7S5 8.122 5 9.5C5 11 6.445 11 7.5 11S10 11 10 9.5zM6 9.5C6 8.673 6.673 8 7.5 8S9 8.673 9 9.5C9 9.899 8.853 10 7.5 10S6 9.899 6 9.5z" />
</svg>