<svg id="smog_Layer_1" viewBox="0 0 24 24" fill="currentColor" width="32" height="32" data-name="Layer 1" xmlns="http://www.w3.org/2000/svg" xmlns:xlink="http://www.w3.org/1999/xlink">
    <title>smog</title>
    <path d="M19.5 24h-2c-0.276 0-0.5-0.224-0.5-0.5s0.224-0.5 0.5-0.5h2c0.276 0 0.5 0.224 0.5 0.5S19.776 24 19.5 24zM13.5 24h-13C0.224 24 0 23.776 0 23.5S0.224 23 0.5 23h13c0.276 0 0.5 0.224 0.5 0.5S13.776 24 13.5 24zM23.5 20h-13c-0.276 0-0.5-0.224-0.5-0.5s0.224-0.5 0.5-0.5h13c0.276 0 0.5 0.224 0.5 0.5S23.776 20 23.5 20zM6.5 20h-2C4.224 20 4 19.776 4 19.5S4.224 19 4.5 19h2C6.776 19 7 19.224 7 19.5S6.776 20 6.5 20zM19.5 16h-2c-0.276 0-0.5-0.224-0.5-0.5s0.224-0.5 0.5-0.5h2c0.276 0 0.5 0.224 0.5 0.5S19.776 16 19.5 16zM13.5 16h-13C0.224 16 0 15.776 0 15.5S0.224 15 0.5 15h13c0.276 0 0.5 0.224 0.5 0.5S13.776 16 13.5 16zM16 12c-0.619 0-1.228-0.117-1.809-0.349-0.366-0.145-0.759-0.155-1.105-0.025-1.543 0.573-3.295 0.481-4.772-0.265-0.299-0.149-0.646-0.139-0.954 0.029-2.009 1.103-4.606 0.617-6.105-1.078-0.948-1.07-1.392-2.506-1.216-3.939 0.184-1.506 1.132-2.886 2.536-3.69 1.043-0.599 2.13-0.804 3.225-0.612 0.357 0.062 0.698-0.043 0.942-0.29C7.878 0.633 9.39 1e-3 11 1e-3c1.494 0 2.954 0.581 4.111 1.635Q15.512 2.001 16 2.001c1.497 0 2.903 0.673 3.856 1.846 0.142 0.175 0.34 0.264 0.51 0.225 0.556-0.126 1.121-0.084 1.678 0.122v0c0.955 0.356 1.677 1.18 1.885 2.15 0.194 0.908-0.023 1.834-0.596 2.543C22.76 9.595 21.91 10.001 21 10.001c-0.229 0-0.431-0.022-0.619-0.068-0.263-0.066-0.43 0.103-0.489 0.178C18.937 11.312 17.518 12.001 16 12zM13.596 10.536c0.324 0 0.651 0.062 0.965 0.187 1.603 0.64 3.474 0.117 4.548-1.234 0.289-0.363 0.835-0.691 1.511-0.527 0.108 0.026 0.232 0.039 0.38 0.039 0.607 0 1.174-0.271 1.556-0.743 0.388-0.479 0.528-1.085 0.396-1.705-0.135-0.629-0.628-1.188-1.256-1.422v0c-0.372-0.138-0.746-0.167-1.108-0.083-0.547 0.121-1.123-0.096-1.508-0.57-0.763-0.939-1.885-1.477-3.08-1.477-0.76 0-0.965-0.082-1.562-0.626C13.465 1.489 12.244 1.001 11 1.001c-1.341 0-2.601 0.527-3.547 1.483-0.479 0.483-1.146 0.691-1.826 0.572-0.872-0.153-1.708 8e-3-2.555 0.494C1.941 4.199 1.177 5.3 1.031 6.494 0.889 7.66 1.234 8.781 2.004 9.651 3.2 11.003 5.27 11.397 6.879 10.515c0.592-0.323 1.296-0.341 1.884-0.046 1.231 0.622 2.69 0.698 3.975 0.22 0.275-0.102 0.565-0.153 0.858-0.153z" />
</svg>