<svg id="smoking_Layer_1" viewBox="0 0 24 24" fill="currentColor" width="32" height="32" data-name="Layer 1" xmlns="http://www.w3.org/2000/svg" xmlns:xlink="http://www.w3.org/1999/xlink">
    <title>smoking</title>
    <path d="M20.5 16H2c-1.103 0-2 0.897-2 2v2c0 1.103 0.897 2 2 2h18.5c0.276 0 0.5-0.224 0.5-0.5v-5c0-0.276-0.224-0.5-0.5-0.5zM1 20v-2c0-0.552 0.449-1 1-1h6v4H2c-0.551 0-1-0.448-1-1zM20 21H9v-4h11zM24 16.5v5c0 0.276-0.224 0.5-0.5 0.5S23 21.776 23 21.5v-5c0-0.276 0.224-0.5 0.5-0.5s0.5 0.224 0.5 0.5zM14 4.856V2.5C14 2.224 14.224 2 14.5 2S15 2.224 15 2.5v2.356c0 1.223 0.651 2.372 1.699 3.001l1.602 0.961C19.349 9.448 20 10.598 20 11.82v1.68c0 0.276-0.224 0.5-0.5 0.5S19 13.776 19 13.5v-1.68c0-0.873-0.465-1.694-1.214-2.145l-1.602-0.961C14.836 7.905 13.999 6.427 14 4.856zM24 10.264v1.235c0 0.276-0.224 0.5-0.5 0.5s-0.5-0.224-0.5-0.5v-1.235c0-1.223-0.651-2.372-1.699-3.001l-2.087-1.252C18.465 5.561 18 4.74 18 3.866V0.5C18 0.224 18.224 0 18.5 0S19 0.224 19 0.5v3.367c0 0.523 0.279 1.017 0.729 1.287l2.086 1.252C23.163 7.215 24 8.693 24 10.264z" />
</svg>