<svg id="snap_Layer_1" viewBox="0 0 24 24" fill="currentColor" width="32" height="32" data-name="Layer 1" xmlns="http://www.w3.org/2000/svg" xmlns:xlink="http://www.w3.org/1999/xlink">
    <title>snap</title>
    <path d="M13.146 5.354c-0.195-0.195-0.195-0.512 0-0.707l2.5-2.5c0.195-0.195 0.512-0.195 0.707 0s0.195 0.512 0 0.707l-2.5 2.5C13.755 5.452 13.627 5.5 13.499 5.5s-0.256-0.049-0.353-0.146zM5.146 5.354C5.244 5.452 5.372 5.5 5.5 5.5s0.256-0.049 0.354-0.146c0.195-0.195 0.195-0.512 0-0.707l-2.5-2.5c-0.195-0.195-0.512-0.195-0.707 0s-0.195 0.512 0 0.707zM9.5 5C9.776 5 10 4.776 10 4.5v-4C10 0.224 9.776 0 9.5 0S9 0.224 9 0.5v4C9 4.776 9.224 5 9.5 5zM21.225 8.254c0.883-0.882 1.028-2.269 0.339-3.226-0.426-0.591-1.081-0.963-1.799-1.021-0.722-0.057-1.422 0.201-1.933 0.712l-8.688 8.827-0.249-2.184c-0.024-0.713-0.357-1.379-0.914-1.826S6.697 8.91 5.989 9.04C4.837 9.255 4 10.314 4 11.558v7.784c0 0.921-0.374 1.823-1.025 2.475l-1.328 1.329c-0.195 0.195-0.195 0.512 0 0.707s0.512 0.195 0.707 0l1.328-1.329C4.52 21.686 5 20.526 5 19.342v-7.784c0-0.75 0.504-1.41 1.173-1.534 0.426-0.079 0.849 0.023 1.183 0.292 0.329 0.265 0.526 0.658 0.543 1.12L8.27 14.7c0.022 0.191 0.152 0.353 0.334 0.416 0.183 0.062 0.384 0.015 0.52-0.122l9.419-9.57c0.302-0.301 0.723-0.458 1.142-0.419 0.432 0.035 0.811 0.251 1.069 0.609 0.405 0.562 0.304 1.394-0.241 1.939l-4.218 4.352c-0.491 0.507-0.564 1.274-0.179 1.864l3.274 5.014c1.001 1.464 0.902 3.218-0.243 4.364-0.195 0.195-0.195 0.512 0 0.707C19.245 23.952 19.373 24 19.501 24s0.256-0.049 0.354-0.146c1.474-1.473 1.622-3.791 0.368-5.627l-3.27-5.005c-0.128-0.196-0.104-0.452 0.061-0.621z" />
</svg>