<svg id="snooze_Layer_1" viewBox="0 0 24 24" fill="currentColor" width="32" height="32" data-name="Layer 1" xmlns="http://www.w3.org/2000/svg" xmlns:xlink="http://www.w3.org/1999/xlink">
    <title>snooze</title>
    <path d="M18.5 10h-5.798c-0.753 0-1.39-0.46-1.621-1.173-0.23-0.708 0.011-1.449 0.615-1.888l6.007-4.678c0.39-0.284 0.302-0.668 0.266-0.78-0.076-0.233-0.292-0.482-0.67-0.482h-5.798c-0.276 0-0.5-0.224-0.5-0.5s0.224-0.5 0.5-0.5h5.798c0.753 0 1.39 0.46 1.621 1.173 0.23 0.708-0.011 1.449-0.615 1.888l-6.007 4.678c-0.39 0.284-0.302 0.668-0.266 0.78C12.108 8.751 12.324 9 12.702 9H18.5C18.776 9 19 9.224 19 9.5S18.776 10 18.5 10zM1.469 21.03l8.67-6.25c0.749-0.54 1.051-1.452 0.769-2.324-0.286-0.885-1.078-1.457-2.019-1.457H0.518c-0.276 0-0.5 0.224-0.5 0.5s0.224 0.5 0.5 0.5H8.89c0.605 0 0.948 0.395 1.067 0.764 0.116 0.359 0.071 0.864-0.402 1.206L0.884 20.22c-0.749 0.54-1.051 1.452-0.769 2.323C0.401 23.429 1.193 24 2.134 24h8.372c0.276 0 0.5-0.224 0.5-0.5s-0.224-0.5-0.5-0.5H2.134c-0.605 0-0.948-0.395-1.067-0.764-0.116-0.359-0.071-0.864 0.402-1.206zM23.5 21h-4.932c-0.386 0-0.513-0.299-0.543-0.391-0.029-0.09-0.101-0.4 0.226-0.639l5.108-4.149c0.557-0.405 0.779-1.088 0.567-1.74-0.213-0.657-0.8-1.081-1.494-1.081H17.5c-0.276 0-0.5 0.224-0.5 0.5s0.224 0.5 0.5 0.5h4.932c0.386 0 0.513 0.299 0.543 0.391 0.029 0.09 0.101 0.4-0.226 0.639l-5.108 4.149c-0.557 0.405-0.779 1.088-0.567 1.74 0.213 0.657 0.8 1.081 1.494 1.081H23.5c0.276 0 0.5-0.224 0.5-0.5S23.776 21 23.5 21z" />
</svg>