<svg id="snowplow_Layer_1" viewBox="0 0 24 24" fill="currentColor" width="32" height="32" data-name="Layer 1" xmlns="http://www.w3.org/2000/svg" xmlns:xlink="http://www.w3.org/1999/xlink">
    <title>snowplow</title>
    <path d="M23.854 21.146C22.659 19.951 22 18.361 22 16.671V7.5C22 7.224 21.776 7 21.5 7S21 7.224 21 7.5V12h-4v-0.5c0-1.378-1.126-2.5-2.51-2.5h-0.671l-2.464-5.511C10.676 1.971 9.163 0.99 7.5 0.99 6.122 0.99 5 2.112 5 3.491L5.004 6h-0.5C3.568 6 2.688 6.365 2.027 7.027S1.003 8.569 1.004 9.504L1 15.358c-0.622 0.705-1 1.631-1 2.643 0 2.206 1.794 4 4 4h10c2.206 0 4-1.794 4-4 0-1.012-0.378-1.937-1-2.643v-2.357h4v3.671c0 1.958 0.762 3.798 2.146 5.182C23.244 21.952 23.372 22 23.5 22s0.256-0.049 0.354-0.146c0.195-0.195 0.195-0.512 0-0.708zM7.5 1.99c1.269 0 2.424 0.749 2.942 1.907L12.723 9H7.506c-0.826 0-1.499-0.672-1.5-1.498L6 3.49c0-0.827 0.673-1.5 1.5-1.5zM2.734 7.733C3.207 7.26 3.835 7 4.504 7h0.502v0.504C5.009 8.88 6.131 10 7.507 10h6.984c0.833 0 1.51 0.673 1.51 1.5v3.037c-0.589-0.341-1.272-0.537-2-0.537H4c-0.728 0-1.411 0.195-1.999 0.537l3e-3-5.034c0-0.668 0.258-1.296 0.73-1.77zM14 21H4c-1.654 0-3-1.346-3-3s1.346-3 3-3h10c1.654 0 3 1.346 3 3s-1.346 3-3 3zM6 18c0 0.552-0.448 1-1 1s-1-0.448-1-1 0.448-1 1-1 1 0.448 1 1zM14 18c0 0.552-0.448 1-1 1s-1-0.448-1-1 0.448-1 1-1 1 0.448 1 1zM10 18c0 0.552-0.448 1-1 1s-1-0.448-1-1 0.448-1 1-1 1 0.448 1 1z" />
</svg>