<svg id="snowflake_droplets_Layer_1" viewBox="0 0 24 24" fill="currentColor" width="32" height="32" data-name="Layer 1" xmlns="http://www.w3.org/2000/svg" xmlns:xlink="http://www.w3.org/1999/xlink">
    <title>snowflake-droplets</title>
    <path d="M13.414 20.707c-0.255-0.255-0.574-0.424-0.914-0.507v-3.943l2.957-1.707 2.795 1.602c0.078 0.045 0.164 0.066 0.248 0.066 0.173 0 0.342-0.09 0.434-0.251 0.138-0.24 0.055-0.546-0.185-0.683L16 13.708v-3.421l3.138-1.799c0.239 0.254 0.547 0.448 0.904 0.55l3.322 0.94c0.045 0.013 0.091 0.019 0.137 0.019 0.218 0 0.418-0.144 0.48-0.364 0.075-0.266-0.079-0.542-0.345-0.617l-3.321-0.94c-0.525-0.148-0.835-0.697-0.693-1.224l0.907-3.346c0.072-0.267-0.085-0.541-0.352-0.613-0.268-0.073-0.542 0.085-0.613 0.352l-0.907 3.346c-0.094 0.346-0.089 0.697-4e-3 1.023l-3.072 1.761L12.5 7.596V3.814c0.343-0.088 0.657-0.266 0.914-0.523l2.439-2.439c0.195-0.195 0.195-0.512 0-0.707s-0.512-0.195-0.707 0l-2.439 2.439c-0.378 0.377-1.036 0.377-1.414 0L8.854 0.146c-0.195-0.195-0.512-0.195-0.707 0s-0.195 0.512 0 0.707l2.439 2.439c0.257 0.257 0.571 0.435 0.914 0.523v3.782L8.419 9.376 5.347 7.615c0.085-0.326 0.09-0.677-4e-3-1.023L4.436 3.246C4.364 2.979 4.089 2.824 3.823 2.894 3.556 2.966 3.399 3.241 3.471 3.507l0.907 3.346C4.521 7.379 4.21 7.928 3.686 8.077l-3.322 0.94c-0.266 0.075-0.42 0.352-0.345 0.617 0.062 0.221 0.263 0.364 0.48 0.364 0.045 0 0.091-6e-3 0.137-0.019l3.322-0.94c0.357-0.102 0.665-0.296 0.904-0.55L8 10.288v3.37l-2.784 1.595c-0.24 0.137-0.323 0.442-0.185 0.683 0.092 0.161 0.261 0.251 0.434 0.251 0.084 0 0.17-0.021 0.248-0.066l2.786-1.596 3.001 1.732V20.2c-0.34 0.083-0.659 0.251-0.914 0.507l-2.439 2.439c-0.195 0.195-0.195 0.512 0 0.707s0.512 0.195 0.707 0l2.439-2.439c0.378-0.377 1.036-0.377 1.414 0l2.439 2.439c0.098 0.098 0.226 0.146 0.354 0.146s0.256-0.049 0.354-0.146c0.195-0.195 0.195-0.512 0-0.707zM11.528 20.194c3e-3-9e-3 6e-3-0.011 0.01-2e-3-3e-3 0-6e-3 2e-3-0.01 2e-3zM9 13.66v-3.464l2.943-1.7c0.019 2e-3 0.038 3e-3 0.057 3e-3s0.038-1e-3 0.057-3e-3l2.943 1.7v3.464l-3 1.732zM12.472 20.194c0 0-6e-3-2e-3-0.01-2e-3 3e-3-8e-3 7e-3-6e-3 0.01 2e-3zM3.944 17.385c-0.521-0.51-1.368-0.51-1.931 0.048l-1.134 1.446c-1.169 1.17-1.169 3.072 0 4.242C1.445 23.687 2.198 24 3 24s1.555-0.312 2.121-0.879c1.169-1.17 1.169-3.072 0.04-4.198zM4.414 22.414c-0.755 0.756-2.073 0.756-2.828 0-0.78-0.779-0.78-2.049 0.04-2.872l1.13-1.442c0.075-0.073 0.176-0.106 0.267-0.106 0.072 0 0.138 0.021 0.179 0.059l1.213 1.534c0.78 0.779 0.78 2.049-1e-3 2.827zM23.161 18.923l-1.217-1.538c-0.521-0.51-1.368-0.51-1.931 0.048l-1.134 1.446c-1.169 1.17-1.169 3.072 0 4.242C19.445 23.687 20.198 24 21 24s1.555-0.312 2.121-0.879c1.169-1.17 1.169-3.072 0.04-4.198zM22.414 22.414c-0.755 0.756-2.073 0.756-2.828 0-0.78-0.779-0.78-2.049 0.04-2.872l1.13-1.442c0.075-0.073 0.176-0.106 0.267-0.106 0.072 0 0.138 0.021 0.179 0.059l1.213 1.534c0.78 0.779 0.78 2.049-1e-3 2.827z" />
</svg>