<svg id="snowflake_Layer_1" viewBox="0 0 24 24" fill="currentColor" width="32" height="32" data-name="Layer 1" xmlns="http://www.w3.org/2000/svg" xmlns:xlink="http://www.w3.org/1999/xlink">
    <title>snowflake</title>
    <path d="M23.979 14.359c-0.077-0.267-0.356-0.417-0.62-0.339l-3.34 0.982c-0.337 0.099-0.622 0.286-0.853 0.523L16 13.709v-3.421l3.144-1.803c0.239 0.254 0.541 0.453 0.899 0.554l3.321 0.94c0.045 0.013 0.091 0.019 0.136 0.019 0.219 0 0.419-0.144 0.481-0.364 0.075-0.266-0.079-0.542-0.346-0.617l-3.32-0.94c-0.524-0.148-0.836-0.697-0.693-1.224l0.907-3.346c0.072-0.267-0.085-0.541-0.352-0.613-0.269-0.071-0.541 0.086-0.613 0.352l-0.907 3.346c-0.094 0.345-0.081 0.693 4e-3 1.019l-3.08 1.766L12.5 7.598v-3.79c0.342-0.088 0.658-0.259 0.914-0.515l2.439-2.439c0.195-0.195 0.195-0.512 0-0.707s-0.512-0.195-0.707 0l-2.439 2.439c-0.391 0.391-1.023 0.391-1.414 0l-2.439-2.44c-0.195-0.195-0.512-0.195-0.707 0s-0.195 0.512 0 0.707l2.439 2.439c0.256 0.256 0.572 0.427 0.914 0.515v3.79L8.419 9.376 5.339 7.61c0.085-0.326 0.097-0.673 4e-3-1.019L4.436 3.245C4.364 2.978 4.092 2.821 3.823 2.893 3.556 2.965 3.399 3.24 3.471 3.506l0.907 3.346c0.143 0.526-0.169 1.075-0.692 1.224l-3.321 0.94C0.098 9.091-0.056 9.368 0.019 9.633 0.081 9.854 0.282 9.997 0.5 9.997c0.045 0 0.091-6e-3 0.136-0.019l3.322-0.94c0.357-0.101 0.659-0.3 0.898-0.554L8 10.286v3.37L4.801 15.49c-0.226-0.221-0.499-0.397-0.82-0.491l-3.34-0.982c-0.263-0.077-0.543 0.073-0.62 0.339-0.078 0.265 0.073 0.542 0.339 0.62l3.34 0.982c0.518 0.152 0.824 0.699 0.683 1.221l-0.911 3.36C3.4 20.806 3.557 21.08 3.824 21.152c0.044 0.012 0.088 0.018 0.131 0.018 0.221 0 0.422-0.146 0.482-0.369l0.911-3.36c0.101-0.373 0.084-0.751-0.022-1.098l3.175-1.82 3 1.732v3.953c-0.339 0.083-0.66 0.242-0.914 0.496l-2.439 2.439c-0.195 0.195-0.195 0.512 0 0.707s0.512 0.195 0.707 0l2.439-2.439c0.391-0.391 1.023-0.391 1.414 0l2.439 2.439c0.098 0.098 0.226 0.146 0.354 0.146s0.256-0.049 0.354-0.146c0.195-0.195 0.195-0.512 0-0.707l-2.439-2.439c-0.254-0.254-0.575-0.413-0.914-0.496v-3.953l2.956-1.707 3.209 1.84c-0.094 0.335-0.109 0.696-0.012 1.053l0.911 3.36c0.061 0.223 0.262 0.369 0.482 0.369 0.043 0 0.087-6e-3 0.131-0.018 0.267-0.072 0.424-0.347 0.352-0.613l-0.911-3.36c-0.142-0.521 0.165-1.068 0.683-1.221l3.34-0.982c0.266-0.078 0.417-0.355 0.336-0.617zM15 13.66l-3 1.732-3-1.732v-3.464l3-1.732 3 1.732z" />
</svg>