<svg id="snowman_head_Layer_1" viewBox="0 0 24 24" fill="currentColor" width="32" height="32" data-name="Layer 1" xmlns="http://www.w3.org/2000/svg" xmlns:xlink="http://www.w3.org/1999/xlink">
    <title>snowman-head</title>
    <path d="M21.5 9H19V4c0-2.206-1.794-4-4-4H9C6.794 0 5 1.794 5 4v5H2.5C2.224 9 2 9.224 2 9.5S2.224 10 2.5 10h2.017C3.534 11.472 3 13.219 3 15c0 4.963 4.038 9 9 9s9-4.037 9-9c0-1.781-0.534-3.528-1.517-5H21.5c0.276 0 0.5-0.224 0.5-0.5S21.776 9 21.5 9zM6 4c0-1.654 1.346-3 3-3h6c1.654 0 3 1.346 3 3v5H6zM12 23c-4.411 0-8-3.589-8-8 0-1.84 0.607-3.568 1.755-5h12.49C19.393 11.432 20 13.16 20 15c0 4.411-3.589 8-8 8zM9 13c0 0.552-0.448 1-1 1s-1-0.448-1-1 0.448-1 1-1 1 0.448 1 1zM17 13c0 0.552-0.448 1-1 1s-1-0.448-1-1 0.448-1 1-1 1 0.448 1 1zM12 15c-1.103 0-2 0.895-2 1.995 0 0.246 0.076 0.83 0.73 3.056C10.897 20.618 11.407 21 12 21s1.103-0.382 1.27-0.95c0.654-2.225 0.73-2.809 0.73-3.055C14 15.894 13.103 15 12 15zM12.311 19.768C12.249 19.978 12.073 20 12 20s-0.249-0.022-0.311-0.231C11.05 17.593 11 17.096 11 16.996c0-0.549 0.449-0.995 1-0.995s1 0.446 1 0.995c0 0.101-0.05 0.598-0.689 2.772z" />
</svg>