<svg id="snow_blowing_Layer_1" viewBox="0 0 24 24" fill="currentColor" width="32" height="32" data-name="Layer 1" xmlns="http://www.w3.org/2000/svg" xmlns:xlink="http://www.w3.org/1999/xlink">
    <title>snow-blowing</title>
    <path d="M2.257 9.298 0.623 8.885c-0.269-0.07-0.54 0.093-0.607 0.362-0.067 0.268 0.095 0.539 0.362 0.606l1.635 0.413c0.166 0.042 0.306 0.146 0.394 0.294 0.088 0.147 0.113 0.32 0.071 0.487l-0.413 1.635c-0.067 0.268 0.095 0.539 0.362 0.606 0.269 0.067 0.54-0.095 0.607-0.362l0.413-1.634c0.066-0.264 0.067-0.534 4e-3-0.791l2.19-1.331c0.352 0.391 0.824 0.67 1.358 0.779v2.595c-0.252 0.078-0.483 0.218-0.675 0.409l-1.192 1.191c-0.195 0.195-0.195 0.512 0 0.707s0.512 0.195 0.707 0l1.192-1.191c0.242-0.244 0.666-0.244 0.909 0l1.192 1.191c0.098 0.098 0.226 0.146 0.354 0.146s0.256-0.049 0.354-0.146c0.195-0.195 0.195-0.512 0-0.707l-1.191-1.191c-0.185-0.185-0.406-0.321-0.648-0.4V9.948c0.53-0.108 1-0.385 1.351-0.771l2.219 1.325c-0.062 0.256-0.062 0.525 5e-3 0.788l0.413 1.635c0.067 0.268 0.341 0.432 0.607 0.362 0.268-0.067 0.43-0.339 0.362-0.606l-0.413-1.636c-0.042-0.166-0.017-0.339 0.071-0.486s0.228-0.252 0.395-0.294l1.634-0.413c0.268-0.067 0.43-0.339 0.362-0.606-0.067-0.269-0.339-0.431-0.607-0.362l-1.634 0.413c-0.254 0.063-0.484 0.185-0.676 0.352l-2.228-1.33C9.951 8.062 10 7.787 10 7.5c0-0.297-0.052-0.581-0.147-0.846l2.216-1.322c0.196 0.177 0.434 0.305 0.697 0.37L14.4 6.115c0.266 0.067 0.539-0.094 0.607-0.362 0.067-0.268-0.095-0.539-0.362-0.606L13.01 4.734c-0.167-0.042-0.306-0.146-0.395-0.294-0.088-0.147-0.113-0.32-0.071-0.487l0.413-1.635c0.067-0.268-0.095-0.539-0.362-0.606-0.272-0.07-0.54 0.095-0.607 0.362l-0.413 1.634c-0.064 0.254-0.067 0.514-0.011 0.762L9.332 5.802C8.983 5.426 8.521 5.157 8 5.051V2.445c0.242-0.079 0.463-0.215 0.648-0.4L9.84 0.854c0.195-0.195 0.195-0.512 0-0.707s-0.512-0.195-0.707 0L7.941 1.338c-0.242 0.244-0.666 0.244-0.909 0L5.84 0.146c-0.195-0.195-0.512-0.195-0.707 0s-0.195 0.512 0 0.707l1.191 1.191C6.516 2.236 6.747 2.375 7 2.453v2.596C6.476 5.156 6.01 5.428 5.661 5.808L3.458 4.47c0.056-0.248 0.054-0.509-0.011-0.763L3.034 2.072C2.967 1.804 2.695 1.641 2.427 1.71 2.159 1.777 1.997 2.049 2.065 2.316l0.413 1.636C2.52 4.118 2.495 4.291 2.407 4.438S2.179 4.69 2.012 4.732L0.378 5.145C0.11 5.212-0.052 5.484 0.016 5.751c0.068 0.27 0.341 0.432 0.607 0.362L2.257 5.7c0.263-0.065 0.5-0.192 0.695-0.368l2.192 1.331C5.051 6.924 5 7.205 5 7.498 5 7.781 5.047 8.053 5.134 8.307l-2.203 1.34C2.739 9.48 2.51 9.36 2.257 9.298zM7.5 6C8.008 6 9 6.308 9 7.5S8.015 9 7.5 9C6.673 9 6 8.327 6 7.5S6.673 6 7.5 6zM23 5.5C23 4.121 21.878 3 20.5 3c-1.106 0-2.193 0.717-2.528 1.667-0.092 0.26-0.377 0.396-0.638 0.305-0.26-0.092-0.397-0.378-0.305-0.639C17.507 2.981 18.967 2 20.501 2c1.93 0 3.5 1.57 3.5 3.5s-1.57 3.5-3.5 3.5h-3c-0.276 0-0.5-0.224-0.5-0.5s0.224-0.5 0.5-0.5h3c1.378 0 2.5-1.121 2.499-2.5zM24 15.5c0 1.93-1.57 3.5-3.5 3.5-1.534 0-2.994-0.981-3.472-2.333-0.092-0.261 0.045-0.547 0.305-0.639 0.261-0.093 0.546 0.045 0.638 0.305 0.335 0.95 1.422 1.667 2.528 1.667 1.378 0 2.5-1.121 2.5-2.5s-1.122-2.5-2.5-2.5h-5c-0.276 0-0.5-0.224-0.5-0.5s0.224-0.5 0.5-0.5h5c1.93 0 3.5 1.57 3.501 3.5zM15 20.5c0 1.93-1.57 3.5-3.5 3.5-1.534 0-2.994-0.981-3.472-2.333-0.092-0.261 0.045-0.547 0.305-0.639 0.262-0.092 0.546 0.045 0.638 0.305C9.306 22.283 10.393 23 11.499 23c1.378 0 2.5-1.121 2.5-2.5s-1.122-2.5-2.5-2.5H0.5C0.224 18 0 17.776 0 17.5S0.224 17 0.5 17h11c1.93 0 3.5 1.57 3.5 3.5z" />
</svg>