<svg id="snowflakes_Layer_1" viewBox="0 0 24 24" fill="currentColor" width="32" height="32" data-name="Layer 1" xmlns="http://www.w3.org/2000/svg" xmlns:xlink="http://www.w3.org/1999/xlink">
    <title>snowflakes</title>
    <path d="M16.071 18.111c0.013-0.018-8e-3 0.021 0 0zM2.949 10.857c8e-3-0.021-0.013 0.018 0 0zM23.5 3h-2.632l1.305-2.249c0.139-0.239 0.057-0.545-0.182-0.684-0.24-0.14-0.545-0.057-0.684 0.182l-1.308 2.255-1.307-2.255c-0.138-0.238-0.443-0.32-0.684-0.182-0.239 0.139-0.32 0.445-0.182 0.684L19.131 3h-2.632c-0.276 0-0.5 0.224-0.5 0.5s0.224 0.5 0.5 0.5h2.632l-1.305 2.249c-0.139 0.239-0.057 0.545 0.182 0.684 0.239 0.138 0.544 0.057 0.684-0.182L20 4.496l1.308 2.255C21.401 6.911 21.569 7 21.741 7c0.085 0 0.171-0.021 0.25-0.067 0.239-0.139 0.32-0.445 0.182-0.684L20.868 4H23.5C23.776 4 24 3.776 24 3.5S23.776 3 23.5 3zM15.501 11.801l-2.72 1.481C12.923 13.661 13 14.072 13 14.5s-0.077 0.838-0.219 1.218l2.72 1.481c0.223-0.228 0.503-0.394 0.82-0.481l2.145-0.591c0.266-0.074 0.542 0.083 0.615 0.349s-0.083 0.542-0.349 0.615l-2.145 0.591c-0.197 0.054-0.406 0.26-0.516 0.43-0.083 0.185-0.115 0.421-0.053 0.617l0.667 2.122c0.083 0.263-0.063 0.544-0.327 0.627-0.265 0.082-0.544-0.064-0.627-0.327l-0.667-2.122c-0.099-0.313-0.111-0.639-0.041-0.95l-2.722-1.482c-0.544 0.726-1.363 1.234-2.302 1.369v3.097c0.307 0.087 0.587 0.253 0.815 0.49l1.544 1.601c0.192 0.199 0.186 0.515-0.013 0.707-0.097 0.094-0.222 0.14-0.347 0.14-0.131 0-0.262-0.051-0.36-0.153l-1.544-1.601c-0.142-0.147-0.406-0.263-0.605-0.254-0.217 0-0.444 0.107-0.586 0.254l-1.544 1.601c-0.191 0.199-0.507 0.205-0.707 0.013-0.199-0.192-0.205-0.508-0.013-0.707l1.544-1.601c0.229-0.237 0.508-0.403 0.815-0.49v-3.097c-0.938-0.135-1.758-0.643-2.302-1.369l-2.722 1.482c0.071 0.311 0.058 0.637-0.041 0.95l-0.667 2.122c-0.083 0.262-0.363 0.408-0.627 0.327-0.264-0.083-0.41-0.364-0.327-0.627l0.667-2.122c0.061-0.194 0.01-0.461-0.071-0.645-0.111-0.168-0.302-0.348-0.498-0.401L0.365 17.12c-0.266-0.073-0.422-0.349-0.349-0.615s0.348-0.423 0.615-0.349l2.045 0.563c0.317 0.087 0.597 0.253 0.82 0.481l2.72-1.481c-0.142-0.379-0.219-0.79-0.219-1.218s0.077-0.838 0.219-1.218l-2.72-1.481c-0.223 0.228-0.503 0.394-0.82 0.481l-2.045 0.563c-0.268 0.072-0.542-0.083-0.615-0.349s0.083-0.542 0.349-0.615l2.045-0.563c0.197-0.054 0.426-0.292 0.536-0.461 0.083-0.185 0.095-0.39 0.033-0.585L2.312 8.151C2.229 7.888 2.375 7.607 2.639 7.524 2.904 7.44 3.182 7.588 3.266 7.851l0.667 2.122c0.099 0.313 0.111 0.639 0.041 0.95l2.722 1.482c0.544-0.726 1.363-1.234 2.302-1.369V7.939c-0.307-0.087-0.587-0.253-0.815-0.49L6.639 5.848C6.447 5.649 6.453 5.333 6.652 5.141c0.2-0.191 0.516-0.186 0.707 0.013l1.544 1.601c0.142 0.147 0.392 0.236 0.593 0.252 0.202-0.016 0.456-0.105 0.598-0.252l1.544-1.601c0.192-0.199 0.508-0.204 0.707-0.013 0.199 0.192 0.205 0.508 0.013 0.707l-1.544 1.601c-0.229 0.237-0.508 0.403-0.815 0.49v3.097c0.938 0.135 1.758 0.643 2.302 1.369l2.722-1.482c-0.071-0.311-0.058-0.637 0.041-0.95l0.667-2.122c0.083-0.263 0.361-0.412 0.627-0.327 0.264 0.083 0.41 0.364 0.327 0.627l-0.667 2.122c-0.06 0.192-0.011 0.456 0.07 0.641l2e-3 5e-3c0.111 0.168 0.302 0.348 0.498 0.401l2.145 0.591c0.266 0.073 0.422 0.349 0.349 0.615s-0.348 0.421-0.615 0.349l-2.145-0.591c-0.317-0.087-0.597-0.253-0.821-0.483zM12 14.5c0-1.378-1.122-2.5-2.5-2.5S7 13.122 7 14.5 8.122 17 9.5 17 12 15.878 12 14.5z" />
</svg>