<svg id="snowmobile_Layer_1" viewBox="0 0 24 24" fill="currentColor" width="32" height="32" data-name="Layer 1" xmlns="http://www.w3.org/2000/svg" xmlns:xlink="http://www.w3.org/1999/xlink">
    <title>snowmobile</title>
    <path d="M23.5 20c-0.276 0-0.5 0.224-0.5 0.5 0 1.378-1.122 2.5-2.5 2.5h-0.691l-1.613-3.225c1.435-0.388 2.715-1.262 3.597-2.497l1.523-2.132c1.101-1.541 0.787-3.652-0.713-4.807l-6.799-5.234c-0.219-0.169-0.534-0.128-0.701 0.091-0.168 0.219-0.128 0.533 0.091 0.701l0.655 0.504c0.19 0.418 1.15 2.614 1.15 4.288-0.019 1.826-1.574 3.312-3.467 3.312H11.5c-0.276 0-0.5 0.224-0.5 0.5s0.224 0.5 0.5 0.5h2.032c2.439 0 4.443-1.93 4.468-4.365 0-0.998-0.299-2.136-0.607-3.047l4.601 3.542c1.072 0.825 1.295 2.333 0.51 3.434l-1.523 2.132C19.951 18.139 18.278 19 16.505 19H7.719l1.103-1.976c0.193-0.359 0.231-0.771 0.109-1.16-0.123-0.389-0.39-0.704-0.726-0.873L4.83 13.009c-0.358-0.179-0.625-0.487-0.752-0.867S3.98 11.355 4.135 11.04l2.024-3.211c0.179-0.358 0.487-0.625 0.867-0.752 0.379-0.127 0.786-0.098 1.145 0.081 0.177 0.089 0.74 0.389 1.454 0.773l-2.047 3.348c-0.144 0.235-0.07 0.543 0.166 0.688 0.082 0.05 0.171 0.073 0.26 0.073 0.168 0 0.333-0.085 0.427-0.239l2.075-3.394c1.685 0.91 3.646 1.976 3.678 1.994 0.243 0.132 0.546 0.042 0.678-0.201s0.042-0.546-0.201-0.678c-0.22-0.12-5.408-2.94-6.044-3.258-0.598-0.298-1.275-0.347-1.909-0.135-0.633 0.211-1.147 0.656-1.421 1.21L3.263 10.55c-0.298 0.597-0.347 1.275-0.135 1.909 0.211 0.633 0.656 1.147 1.224 1.429l3.373 1.981c0.122 0.061 0.21 0.167 0.251 0.296 0.041 0.13 0.028 0.267-0.032 0.379L6.573 19H2.825l-1.778-4H2.5C2.776 15 3 14.776 3 14.5S2.776 14 2.5 14h-2C0.224 14 0 14.224 0 14.5V15c0 0.07 0.015 0.139 0.043 0.203l1.735 3.904C0.751 19.418 0 20.373 0 21.5 0 22.878 1.122 24 2.5 24h7c1.378 0 2.5-1.122 2.5-2.5 0-0.562-0.187-1.082-0.501-1.5h5.006c0.225 0 0.448-0.012 0.669-0.035L18.692 23h-3.191c-0.276 0-0.5 0.224-0.5 0.5s0.224 0.5 0.5 0.5h5c1.93 0 3.5-1.57 3.5-3.5 0-0.276-0.224-0.5-0.501-0.5zM11 21.5c0 0.827-0.673 1.5-1.5 1.5h-7C1.673 23 1 22.327 1 21.5S1.673 20 2.5 20h7c0.827 0 1.5 0.673 1.5 1.5zM10.5 5C11.878 5 13 3.878 13 2.5S11.878 0 10.5 0 8 1.122 8 2.5 9.122 5 10.5 5zM10.5 1C11.327 1 12 1.673 12 2.5S11.327 4 10.5 4 9 3.327 9 2.5 9.673 1 10.5 1z" />
</svg>