<svg id="soap_Layer_1" viewBox="0 0 24 24" fill="currentColor" width="32" height="32" data-name="Layer 1" xmlns="http://www.w3.org/2000/svg" xmlns:xlink="http://www.w3.org/1999/xlink">
    <title>soap</title>
    <path d="M17 9.543V7.5c0-1.208-0.86-2.217-2-2.449V1h4.5C19.776 1 20 0.776 20 0.5S19.776 0 19.5 0h-7C10.57 0 9 1.57 9 3.5v1.551C7.86 5.283 7 6.293 7 7.5v2.043c-2.46 1.428-4 4.048-4 6.957v3C3 21.981 5.019 24 7.5 24h9c2.481 0 4.5-2.019 4.5-4.5v-3c0-2.91-1.54-5.529-4-6.957zM10 3.5C10 2.121 11.121 1 12.5 1H14v4h-4zM8 7.5C8 6.673 8.673 6 9.5 6h5C15.327 6 16 6.673 16 7.5V9H8zM20 19.5c0 1.93-1.57 3.5-3.5 3.5h-9C5.57 23 4 21.43 4 19.5v-3c0-2.859 1.696-5.397 4.324-6.5h7.352C18.304 11.103 20 13.641 20 16.5zM15.5 15h-7C7.673 15 7 15.673 7 16.5v2C7 19.327 7.673 20 8.5 20h7c0.827 0 1.5-0.673 1.5-1.5v-2c0-0.827-0.673-1.5-1.5-1.5zM16 18.5c0 0.275-0.225 0.5-0.5 0.5h-7C8.225 19 8 18.775 8 18.5v-2C8 16.225 8.225 16 8.5 16h7c0.275 0 0.5 0.225 0.5 0.5z" />
</svg>