<svg id="soap_alt_Layer_1" viewBox="0 0 24 24" fill="currentColor" width="32" height="32" data-name="Layer 1" xmlns="http://www.w3.org/2000/svg" xmlns:xlink="http://www.w3.org/1999/xlink">
    <title>soap-alt</title>
    <path d="M19.443 9.622C19.786 8.987 20 8.271 20 7.5 20 5.019 17.981 3 15.5 3S11 5.019 11 7.5c0 0.529 0.108 1.029 0.276 1.5H7.5C3.364 9 0 12.364 0 16.5S3.364 24 7.5 24h9c4.136 0 7.5-3.364 7.5-7.5 0-3-1.822-5.704-4.557-6.878zM15.5 4C17.43 4 19 5.57 19 7.5S17.43 11 15.5 11 12 9.43 12 7.5 13.57 4 15.5 4zM16.5 23h-9C3.916 23 1 20.084 1 16.5S3.916 10 7.5 10h4.262c0.808 1.205 2.182 2 3.738 2 1.346 0 2.541-0.606 3.367-1.545C21.342 11.425 23 13.831 23 16.5c0 3.584-2.916 6.5-6.5 6.5zM13 13.5c0 0.276-0.224 0.5-0.5 0.5h-5C6.122 14 5 15.121 5 16.5S6.122 19 7.5 19C7.776 19 8 19.224 8 19.5S7.776 20 7.5 20C5.57 20 4 18.43 4 16.5S5.57 13 7.5 13h5c0.276 0 0.5 0.224 0.5 0.5zM7 6c1.654 0 3-1.346 3-3S8.654 0 7 0 4 1.346 4 3 5.346 6 7 6zM7 1c1.103 0 2 0.897 2 2S8.103 5 7 5 5 4.103 5 3 5.897 1 7 1zM22 4c1.103 0 2-0.897 2-2s-0.897-2-2-2-2 0.897-2 2 0.897 2 2 2zM22 1c0.551 0 1 0.448 1 1s-0.449 1-1 1-1-0.448-1-1 0.449-1 1-1z" />
</svg>