<svg id="social_media_notification_Layer_1" viewBox="0 0 24 24" fill="currentColor" width="32" height="32" data-name="Layer 1" xmlns="http://www.w3.org/2000/svg" xmlns:xlink="http://www.w3.org/1999/xlink">
    <title>social-media-notification</title>
    <path d="M22 22c0 0.276-0.224 0.5-0.5 0.5h-13C8.224 22.5 8 22.276 8 22s0.224-0.5 0.5-0.5h13c0.276 0 0.5 0.224 0.5 0.5zM6 22c0 1.103-0.897 2-2 2s-2-0.897-2-2 0.897-2 2-2 2 0.897 2 2zM5 22c0-0.551-0.449-1-1-1s-1 0.449-1 1 0.449 1 1 1 1-0.449 1-1zM8 17c0 0.276 0.224 0.5 0.5 0.5h13c0.276 0 0.5-0.224 0.5-0.5s-0.224-0.5-0.5-0.5h-13C8.224 16.5 8 16.724 8 17zM6 17c0 1.103-0.897 2-2 2s-2-0.897-2-2 0.897-2 2-2 2 0.897 2 2zM5 17c0-0.551-0.449-1-1-1s-1 0.449-1 1 0.449 1 1 1 1-0.449 1-1zM14 3.5C14 1.57 15.57 0 17.5 0S21 1.57 21 3.5 19.43 7 17.5 7 14 5.43 14 3.5zM15 3.5C15 4.878 16.122 6 17.5 6S20 4.878 20 3.5 18.878 1 17.5 1 15 2.122 15 3.5zM5.679 11.743c-0.614-0.765-0.821-1.777-0.583-2.852 0.104-0.469 0.71-2.952 0.822-3.473C6.674 1.924 8.834 0 12 0c0.183 0 0.362 6e-3 0.536 0.019 0.275 0.02 0.482 0.259 0.462 0.535-0.019 0.276-0.267 0.487-0.535 0.462C12.312 1.005 12.157 1 11.999 1 8.608 1 7.352 3.518 6.895 5.629 6.781 6.157 6.174 8.645 6.072 9.108c-0.174 0.783-0.041 1.478 0.386 2.009C6.915 11.686 7.656 12 8.545 12h6.908c0.823 0 1.531-0.274 1.992-0.773 0.408-0.441 0.597-1.025 0.545-1.688-0.021-0.275 0.185-0.516 0.46-0.537 0.282-0.021 0.516 0.185 0.537 0.46 0.072 0.936-0.215 1.804-0.809 2.445-0.653 0.705-1.621 1.094-2.726 1.094h-1.454c0 1.103-0.897 2-2 2s-2-0.897-2-2H8.544c-1.181 0-2.226-0.458-2.865-1.258zM13 13h-2c0 0.551 0.449 1 1 1s1-0.449 1-1z" />
</svg>