<svg id="social_distance_Layer_1" viewBox="0 0 24 24" fill="currentColor" width="32" height="32" data-name="Layer 1" xmlns="http://www.w3.org/2000/svg" xmlns:xlink="http://www.w3.org/1999/xlink">
    <title>social-distance</title>
    <path d="M2 13.5C2 15.43 3.57 17 5.5 17S9 15.43 9 13.5 7.43 10 5.5 10 2 11.57 2 13.5zM8 13.5C8 14.878 6.878 16 5.5 16S3 14.878 3 13.5 4.122 11 5.5 11 8 12.122 8 13.5zM10.99 23.399c0.056 0.271-0.118 0.535-0.388 0.591-0.264 0.056-0.536-0.116-0.591-0.388C9.579 21.515 7.682 20 5.501 20s-4.078 1.515-4.51 3.602c-0.056 0.27-0.322 0.441-0.591 0.388-0.27-0.056-0.444-0.321-0.388-0.591 0.528-2.548 2.837-4.398 5.49-4.398s4.962 1.85 5.488 4.398zM23.99 23.399c0.056 0.271-0.118 0.535-0.388 0.591-0.264 0.056-0.536-0.116-0.591-0.388C22.579 21.515 20.682 20 18.501 20s-4.078 1.515-4.51 3.602c-0.056 0.27-0.322 0.441-0.591 0.388-0.27-0.056-0.444-0.321-0.388-0.591 0.528-2.548 2.837-4.398 5.49-4.398s4.962 1.85 5.488 4.398zM0.462 5.652C0.164 5.354 0 4.957 0 4.535s0.164-0.818 0.462-1.116l2.684-2.684c0.195-0.195 0.512-0.195 0.707 0s0.195 0.512 0 0.707L1.295 4h21.41l-2.558-2.558c-0.195-0.195-0.195-0.512 0-0.707s0.512-0.195 0.707 0l2.684 2.684C23.836 3.717 24 4.114 24 4.535s-0.164 0.818-0.462 1.117l-2.684 2.684c-0.195 0.195-0.512 0.195-0.707 0s-0.195-0.512 0-0.707L22.776 5H1.225l2.629 2.629c0.195 0.195 0.195 0.512 0 0.707s-0.512 0.195-0.707 0zM16 13.5c0 1.378 1.122 2.5 2.5 2.5h2e-3c0.494 0 0.971-0.144 1.38-0.416 0.229-0.154 0.539-0.091 0.693 0.14 0.153 0.23 0.09 0.541-0.14 0.693C19.861 16.799 19.191 17 18.499 17c-1.327 0-2.47-0.752-3.064-1.843-0.234 0.843-0.486 1.751-0.685 2.476-0.072 0.269-0.356 0.423-0.615 0.349-0.266-0.073-0.422-0.349-0.349-0.615 0.155-0.521 1.284-4.749 1.445-5.088 0.498-1.328 1.769-2.28 3.268-2.28h4e-3c1.479 2e-3 2.804 0.938 3.297 2.333 0.113 0.32 1.28 4.552 1.412 5.034 0.073 0.266-0.083 0.542-0.349 0.615-0.259 0.073-0.542-0.081-0.615-0.349-0.497-1.803-1.313-4.746-1.391-4.966-0.353-0.997-1.3-1.667-2.358-1.667 0 0-1e-3 0-2e-3 0-1.378 0-2.498 1.122-2.497 2.501z" />
</svg>