<svg id="socks_Layer_1" viewBox="0 0 24 24" fill="currentColor" width="32" height="32" data-name="Layer 1" xmlns="http://www.w3.org/2000/svg" xmlns:xlink="http://www.w3.org/1999/xlink">
    <title>socks</title>
    <path d="M24.001 3.499C24.001 1.57 22.43 0 20.501 0H8.498C7.563 0 6.684 0.364 6.023 1.025 5.362 1.687 4.998 2.566 4.998 3.501L5 10.225c0 0.375-0.139 0.734-0.392 1.012l-3.324 3.642c-1.94 2.425-1.659 5.945 0.626 7.847C2.897 23.548 4.146 24 5.427 24c1.533 0 2.97-0.625 4.007-1.728 0.149 0.16 0.308 0.311 0.48 0.454C10.901 23.548 12.15 24 13.431 24c1.682 0 3.248-0.752 4.285-2.049l4.212-4.861c1.339-1.546 2.076-3.524 2.075-5.569zM23.001 3.499V4c0 0-9 0-9 0V3.5c0-0.667 0.26-1.295 0.731-1.768C15.205 1.26 15.833 1 16.501 1h4c1.378 0 2.499 1.121 2.5 2.499zM6.729 1.732C7.201 1.26 7.829 1 8.497 1h5.554c-9e-3 8e-3-0.017 0.017-0.026 0.025C13.364 1.687 13 2.566 13.001 3.501V4c0 0-7.003 0-7.003 0V3.501c0-0.668 0.26-1.296 0.731-1.769zM5.427 23c-1.048 0-2.07-0.371-2.877-1.043-1.869-1.556-2.087-4.452-0.506-6.429l3.302-3.618C5.768 11.448 6 10.849 5.999 10.224L5.997 5H13l2e-3 5.224c0 0.375-0.139 0.735-0.392 1.012l-3.324 3.642c-1.566 1.957-1.685 4.627-0.471 6.585C7.96 22.442 6.736 23 5.427 23zM21.172 16.436l-4.225 4.875C16.089 22.384 14.807 23 13.43 23c-1.048 0-2.07-0.371-2.877-1.043-1.869-1.556-2.087-4.452-0.506-6.429l3.302-3.618c0.422-0.462 0.653-1.061 0.653-1.686L14 5h9l2e-3 6.521c0 1.805-0.649 3.55-1.83 4.915z" />
</svg>