<svg id="sofa_size_Layer_1" viewBox="0 0 24 24" fill="currentColor" width="32" height="32" data-name="Layer 1" xmlns="http://www.w3.org/2000/svg" xmlns:xlink="http://www.w3.org/1999/xlink">
    <title>sofa-size</title>
    <path d="M22 13.051V11.5C22 9.57 20.43 8 18.5 8h-13C3.57 8 2 9.57 2 11.5v1.551c-1.14 0.232-2 1.242-2 2.449V18c0 1.478 0.815 2.757 2.01 3.449C2.008 21.467 2 23.5 2 23.5 2 23.776 2.224 24 2.5 24S3 23.776 3 23.5v-1.642C3.322 21.942 3.653 22 4 22h16c0.347 0 0.678-0.058 1-0.142V23.5c0 0.276 0.224 0.5 0.5 0.5s0.5-0.224 0.5-0.5c0 0-8e-3-2.033-0.01-2.051C23.185 20.757 24 19.478 24 18v-2.5c0-1.207-0.86-2.217-2-2.449zM5.5 9h13c1.378 0 2.5 1.122 2.5 2.5v1.551c-1.14 0.232-2 1.242-2 2.449V17H5v-1.5c0-1.207-0.86-2.217-2-2.449V11.5C3 10.122 4.122 9 5.5 9zM23 18c0 1.654-1.346 3-3 3H4c-1.654 0-3-1.346-3-3v-2.5C1 14.673 1.673 14 2.5 14S4 14.673 4 15.5v2C4 17.776 4.224 18 4.5 18h15c0.276 0 0.5-0.224 0.5-0.5v-2c0-0.827 0.673-1.5 1.5-1.5s1.5 0.673 1.5 1.5zM0.389 4.413C0.154 4.205 0 3.86 0 3.5s0.154-0.705 0.422-0.946l2.211-2.393C2.82-0.043 3.136-0.055 3.34 0.133 3.543 0.321 3.555 0.637 3.368 0.84L1.37 3.001h21.265L20.634 0.84c-0.188-0.203-0.175-0.519 0.028-0.707 0.202-0.188 0.518-0.176 0.707 0.028l2.244 2.426c0.235 0.208 0.389 0.553 0.389 0.913s-0.154 0.705-0.422 0.946L21.369 6.84c-0.099 0.106-0.233 0.161-0.367 0.161-0.122 0-0.243-0.044-0.339-0.133-0.203-0.188-0.215-0.504-0.028-0.707L22.633 4H1.366l2.001 2.161C3.555 6.364 3.542 6.68 3.339 6.868 3.243 6.957 3.121 7.001 3 7.001c-0.134 0-0.269-0.054-0.367-0.161z" />
</svg>