<svg id="software_development_Layer_1" viewBox="0 0 24 24" fill="currentColor" width="32" height="32" data-name="Layer 1" xmlns="http://www.w3.org/2000/svg" xmlns:xlink="http://www.w3.org/1999/xlink">
    <title>software-development</title>
    <path d="M24 6.5v9c0 2.481-2.019 4.5-4.5 4.5h-7v3h5c0.276 0 0.5 0.224 0.5 0.5S17.776 24 17.5 24h-11C6.224 24 6 23.776 6 23.5S6.224 23 6.5 23h5v-3h-7C2.019 20 0 17.981 0 15.5v-9C0 6.224 0.224 6 0.5 6S1 6.224 1 6.5v9C1 17.43 2.57 19 4.5 19h15c1.93 0 3.5-1.57 3.5-3.5v-9C23 6.224 23.224 6 23.5 6S24 6.224 24 6.5zM16 9.5V4c0-1.379 1.122-2.5 2.5-2.5h1.571C20.295 0.64 21.071 0 22 0c1.103 0 2 0.897 2 2s-0.897 2-2 2c-0.929 0-1.705-0.64-1.929-1.5H18.5C17.673 2.5 17 3.173 17 4v5.5c0 0.276-0.224 0.5-0.5 0.5S16 9.776 16 9.5zM21 2c0 0.552 0.449 1 1 1s1-0.448 1-1-0.449-1-1-1-1 0.448-1 1zM0 2c0-1.103 0.897-2 2-2 0.929 0 1.705 0.64 1.929 1.5H5.5C6.878 1.5 8 2.621 8 4v5.5C8 9.776 7.776 10 7.5 10S7 9.776 7 9.5V4c0-0.827-0.673-1.5-1.5-1.5H3.929C3.705 3.36 2.929 4 2 4 0.897 4 0 3.103 0 2zM1 2c0 0.552 0.449 1 1 1s1-0.448 1-1-0.449-1-1-1-1 0.448-1 1zM10 2c0-1.103 0.897-2 2-2s2 0.897 2 2c0 0.929-0.64 1.705-1.5 1.929V9.5c0 0.276-0.224 0.5-0.5 0.5s-0.5-0.224-0.5-0.5V3.929C10.64 3.705 10 2.929 10 2zM11 2c0 0.552 0.449 1 1 1s1-0.448 1-1-0.449-1-1-1-1 0.448-1 1z" />
</svg>