<svg id="solar_panel_Layer_1" viewBox="0 0 24 24" fill="currentColor" width="32" height="32" data-name="Layer 1" xmlns="http://www.w3.org/2000/svg" xmlns:xlink="http://www.w3.org/1999/xlink">
    <title>solar-panel</title>
    <path d="M23.963 13.93 22.741 4.367c-0.318-2.489-2.451-4.366-4.96-4.366H5.778C3.52 0 1.601 1.689 1.314 3.93l-1.277 10c-0.164 1.282 0.232 2.574 1.086 3.544S3.208 19 4.5 19h7v4h-5C6.224 23 6 23.224 6 23.5S6.224 24 6.5 24h11c0.276 0 0.5-0.224 0.5-0.5S17.776 23 17.5 23h-5v-4h7c1.292 0 2.523-0.557 3.377-1.526 0.854-0.97 1.25-2.262 1.086-3.544zM8.026 18l0.312-5h7.319l0.312 5zM8.401 12 8.713 7h6.569l0.312 5zM1.931 7h5.782l-0.312 5H1.292zM14.908 1 15.22 6H8.776l0.312-5zM16.285 7h5.785l0.639 5h-6.111zM21.75 4.493 21.943 6h-5.72l-0.312-5h1.872c2.007 0 3.713 1.502 3.967 3.493zM5.778 1h2.309L7.775 6H2.058l0.248-1.943C2.528 2.315 4.021 1 5.778 1zM1.874 16.812c-0.665-0.754-0.973-1.759-0.845-2.756l0.135-1.057h6.173l-0.312 5H4.501c-1.005 0-1.962-0.433-2.627-1.187zM22.126 16.812C21.462 17.567 20.504 18 19.5 18h-2.527l-0.312-5h6.176l0.135 1.057c0.127 0.997-0.181 2.002-0.846 2.755z" />
</svg>