<svg id="sold_signal_Layer_1" viewBox="0 0 24 24" fill="currentColor" width="32" height="32" data-name="Layer 1" xmlns="http://www.w3.org/2000/svg" xmlns:xlink="http://www.w3.org/1999/xlink">
    <title>sold-signal</title>
    <path d="M10 12c-1.126 0-2.042 0.916-2.042 2.042v3.915c0 1.126 0.916 2.042 2.042 2.042s2.042-0.916 2.042-2.042v-3.915C12.042 12.916 11.126 12 10 12zM11.042 17.958C11.042 18.533 10.574 19 10 19s-1.042-0.468-1.042-1.042v-3.915c0-0.575 0.468-1.042 1.042-1.042s1.042 0.468 1.042 1.042zM19 12h-1c-0.551 0-1 0.449-1 1v6c0 0.551 0.449 1 1 1h1c1.103 0 2-0.897 2-2v-4c0-1.103-0.897-2-2-2zM20 18c0 0.551-0.449 1-1 1h-1v-6h1c0.551 0 1 0.449 1 1zM6.973 18.056C6.789 19.183 5.809 20 4.643 20c-0.878 0-1.947-0.552-2.473-1.085-0.194-0.197-0.192-0.513 5e-3-0.707s0.513-0.192 0.707 5e-3C3.296 18.632 4.118 19 4.643 19c0.673 0 1.238-0.465 1.342-1.105 0.037-0.228 0.076-1.006-0.976-1.432-0.112-0.042-1.208-0.458-1.699-0.763-0.662-0.467-0.976-1.174-0.88-1.917 0.104-0.784 0.627-1.422 1.366-1.666 0.899-0.298 1.821-0.046 2.736 0.747 0.208 0.181 0.231 0.497 0.05 0.706-0.181 0.208-0.497 0.231-0.706 0.05-0.647-0.561-1.207-0.738-1.768-0.553-0.371 0.122-0.634 0.446-0.687 0.845-0.049 0.379 0.103 0.716 0.428 0.948 0.334 0.204 1.213 0.554 1.523 0.67 1.394 0.563 1.73 1.71 1.601 2.526zM16 19.5c0 0.276-0.224 0.5-0.5 0.5h-1c-0.827 0-1.5-0.673-1.5-1.5v-6c0-0.276 0.224-0.5 0.5-0.5s0.5 0.224 0.5 0.5v6c0 0.276 0.224 0.5 0.5 0.5h1c0.276 0 0.5 0.224 0.5 0.5zM20.5 10h-0.267l-6.307-7.489C13.97 2.347 14 2.178 14 2c0-1.103-0.897-2-2-2s-2 0.897-2 2c0 0.21 0.041 0.408 0.101 0.598L4.257 10H3.5C1.57 10 0 11.57 0 13.5v5C0 20.43 1.57 22 3.5 22h17c1.93 0 3.5-1.57 3.5-3.5v-5c0-1.93-1.57-3.5-3.5-3.5zM12 1c0.551 0 1 0.449 1 1s-0.449 1-1 1-1-0.449-1-1 0.449-1 1-1zM10.674 3.486C11.028 3.802 11.489 4 12 4c0.542 0 1.033-0.218 1.393-0.569L18.925 10H5.532zM23 18.5c0 1.378-1.122 2.5-2.5 2.5h-17C2.122 21 1 19.878 1 18.5v-5C1 12.122 2.122 11 3.5 11h17c1.378 0 2.5 1.122 2.5 2.5z" />
</svg>