<svg id="sort_shapes_down_Layer_1" viewBox="0 0 24 24" fill="currentColor" width="32" height="32" data-name="Layer 1" xmlns="http://www.w3.org/2000/svg" xmlns:xlink="http://www.w3.org/1999/xlink">
    <title>sort-shapes-down</title>
    <path d="M16.5 10h4c1.38 0 2.5-1.12 2.5-2.5v-4C23 2.12 21.88 1 20.5 1h-4C15.12 1 14 2.12 14 3.5v4c0 1.38 1.12 2.5 2.5 2.5zM15 3.5C15 2.67 15.67 2 16.5 2h4C21.33 2 22 2.67 22 3.5v4C22 8.33 21.33 9 20.5 9h-4C15.67 9 15 8.33 15 7.5zM10.86 19.16c0.19 0.2 0.18 0.52-0.02 0.71l-3.59 3.41C6.79 23.74 6.16 24 5.49 24s-1.3-0.26-1.77-0.73l-3.56-3.41c-0.2-0.19-0.21-0.51-0.02-0.71s0.51-0.21 0.71-0.02l3.59 3.41c0.16 0.16 0.36 0.28 0.57 0.35V0.5c0-0.28 0.22-0.5 0.5-0.5s0.5 0.22 0.5 0.5v22.41c0.21-0.07 0.4-0.19 0.56-0.35l3.59-3.42c0.2-0.19 0.52-0.18 0.7 0.02zM23.32 20.08l-3.09-5.04c-0.35-0.64-1-1.03-1.73-1.03s-1.38 0.38-1.72 1.01l-3.12 5.09c-0.33 0.62-0.32 1.34 0.04 1.94s0.99 0.96 1.69 0.96h6.21c0.7 0 1.33-0.36 1.69-0.96s0.37-1.33 0.03-1.97zM22.43 21.54c-0.18 0.3-0.49 0.47-0.83 0.47h-6.21c-0.34 0-0.65-0.18-0.83-0.47-0.18-0.3-0.18-0.65-0.03-0.93l3.12-5.09c0.17-0.32 0.49-0.51 0.85-0.51s0.68 0.19 0.86 0.53l3.09 5.04c0.16 0.3 0.16 0.66-0.02 0.96z" />
</svg>