<svg id="sort_numeric_down_Layer_1" viewBox="0 0 24 24" fill="currentColor" width="32" height="32" data-name="Layer 1" xmlns="http://www.w3.org/2000/svg" xmlns:xlink="http://www.w3.org/1999/xlink">
    <title>sort-numeric-down</title>
    <path d="M17.146 2.854c-0.195-0.195-0.195-0.512 0-0.707l2-2.001c0.144-0.144 0.359-0.185 0.545-0.108C19.878 0.115 20 0.298 20 0.5v9c0 0.276-0.224 0.5-0.5 0.5S19 9.776 19 9.5V1.707l-1.146 1.146c-0.195 0.195-0.512 0.195-0.708 1e-3zM22 17v1.5c0 3.393-1.725 5.5-4.5 5.5-0.276 0-0.5-0.224-0.5-0.5s0.224-0.5 0.5-0.5c2.675 0 3.316-2.333 3.46-3.747C20.433 19.712 19.752 20 19 20c-1.654 0-3-1.346-3-3s1.346-3 3-3 3 1.346 3 3zM21 17c0-1.103-0.897-2-2-2s-2 0.897-2 2 0.897 2 2 2 2-0.897 2-2zM11.146 18.561 7 22.707V0.5C7 0.224 6.776 0 6.5 0S6 0.224 6 0.5v22.207l-4.146-4.146c-0.195-0.195-0.512-0.195-0.707 0s-0.195 0.512 0 0.707l4.293 4.293C5.723 23.844 6.1 24 6.501 24s0.777-0.156 1.061-0.439l4.293-4.293c0.195-0.195 0.195-0.512 0-0.707s-0.512-0.195-0.709 0z" />
</svg>