<svg id="sort_circle_down_Layer_1" viewBox="0 0 24 24" fill="currentColor" width="32" height="32" data-name="Layer 1" xmlns="http://www.w3.org/2000/svg" xmlns:xlink="http://www.w3.org/1999/xlink">
    <title>sort-circle-down</title>
    <path d="M17.136 13H6.864c-0.566 0-1.07 0.339-1.284 0.863-0.214 0.525-0.091 1.12 0.314 1.516l4.603 4.499c0.415 0.415 0.96 0.621 1.504 0.621s1.086-0.206 1.497-0.617l4.607-4.503c0.405-0.396 0.528-0.99 0.314-1.516C18.205 13.339 17.701 13 17.136 13zM8.628 16.653 11.548 14h2.533l-4.177 3.901zM6.506 14.241C6.529 14.184 6.623 14 6.864 14h3.197l-2.15 1.953-1.318-1.289c-0.173-0.169-0.11-0.366-0.087-0.423zM17.406 14.664l-4.611 4.507c-0.438 0.438-1.152 0.438-1.595-4e-3L10.62 18.6 15.545 14h1.591c0.241 0 0.335 0.185 0.358 0.241 0.022 0.057 0.085 0.254-0.088 0.423zM13.502 4.122c-0.826-0.826-2.175-0.828-3.001-4e-3L5.895 8.621c-0.405 0.396-0.528 0.99-0.314 1.516C5.795 10.661 6.299 11 6.865 11h10.271c0.566 0 1.07-0.339 1.284-0.863 0.214-0.525 0.091-1.12-0.314-1.516zM17.494 9.759C17.471 9.816 17.377 10 17.136 10H6.864c-0.241 0-0.335-0.185-0.358-0.241-0.022-0.057-0.085-0.254 0.088-0.423l4.61-4.507c0.219-0.219 0.506-0.328 0.794-0.328s0.579 0.11 0.801 0.332l4.607 4.503c0.173 0.169 0.11 0.366 0.088 0.423zM12 0C5.383 0 0 5.383 0 12s5.383 12 12 12 12-5.383 12-12S18.617 0 12 0zM12 23C5.935 23 1 18.065 1 12S5.935 1 12 1 23 5.935 23 12 18.065 23 12 23z" />
</svg>