<svg id="sort_circle_up_Layer_1" viewBox="0 0 24 24" fill="currentColor" width="32" height="32" data-name="Layer 1" xmlns="http://www.w3.org/2000/svg" xmlns:xlink="http://www.w3.org/1999/xlink">
    <title>sort-circle-up</title>
    <path d="M13.554 4.161c-0.829-0.829-2.176-0.829-3.001-4e-3L5.946 8.66c-0.405 0.396-0.528 0.99-0.314 1.515s0.718 0.863 1.284 0.863h10.272c0.566 0 1.07-0.339 1.284-0.863s0.091-1.119-0.314-1.515zM9.97 10.038l4.177-3.899 1.277 1.248-2.92 2.652zM6.557 9.797C6.534 9.741 6.472 9.544 6.645 9.375l4.611-4.507c0.219-0.219 0.506-0.328 0.794-0.328s0.579 0.11 0.801 0.332l0.581 0.567-4.926 4.599H6.915c-0.241 0-0.335-0.185-0.358-0.241zM17.546 9.797c-0.023 0.057-0.117 0.241-0.358 0.241h-3.197l2.149-1.952 1.319 1.289c0.173 0.169 0.111 0.366 0.087 0.422zM17.188 13.038H6.915c-0.566 0-1.07 0.339-1.284 0.863-0.214 0.525-0.091 1.12 0.314 1.516l4.604 4.499c0.415 0.415 0.96 0.622 1.504 0.622s1.085-0.206 1.497-0.618l4.607-4.503c0.405-0.396 0.528-0.99 0.314-1.516-0.214-0.524-0.718-0.863-1.283-0.863zM17.459 14.702l-4.611 4.507c-0.438 0.438-1.152 0.438-1.595-4e-3l-4.607-4.503c-0.173-0.169-0.11-0.366-0.088-0.423 0.023-0.057 0.117-0.241 0.358-0.241h10.272c0.241 0 0.335 0.185 0.358 0.241 0.022 0.057 0.085 0.254-0.087 0.423zM12.052 0.038c-6.617 0-12 5.383-12 12s5.383 12 12 12 12-5.383 12-12-5.383-12-12-12zM12.052 23.038c-6.065 0-11-4.935-11-11s4.934-11 11-11 11 4.935 11 11-4.935 11-11 11z" />
</svg>