<svg id="sort_size_down_Layer_1" viewBox="0 0 24 24" fill="currentColor" width="32" height="32" data-name="Layer 1" xmlns="http://www.w3.org/2000/svg" xmlns:xlink="http://www.w3.org/1999/xlink">
    <title>sort-size-down</title>
    <path d="M10.86 19.16c0.19 0.2 0.18 0.52-0.02 0.71l-3.59 3.41C6.79 23.74 6.16 24 5.49 24s-1.3-0.26-1.77-0.73l-3.56-3.41c-0.2-0.19-0.21-0.51-0.02-0.71s0.51-0.21 0.71-0.02l3.59 3.41c0.16 0.16 0.36 0.28 0.57 0.35V0.5c0-0.28 0.22-0.5 0.5-0.5s0.5 0.22 0.5 0.5v22.41c0.21-0.07 0.4-0.19 0.56-0.35l3.59-3.42c0.2-0.19 0.52-0.18 0.7 0.02zM24 3.5v5c0 1.38-1.12 2.5-2.5 2.5h-5C15.12 11 14 9.88 14 8.5v-5C14 2.12 15.12 1 16.5 1h5C22.88 1 24 2.12 24 3.5zM23 3.5C23 2.67 22.33 2 21.5 2h-5C15.67 2 15 2.67 15 3.5v5c0 0.83 0.67 1.5 1.5 1.5h5c0.83 0 1.5-0.67 1.5-1.5zM24 17.5v3c0 1.38-1.12 2.5-2.5 2.5h-3c-1.38 0-2.5-1.12-2.5-2.5v-3c0-1.38 1.12-2.5 2.5-2.5h3c1.38 0 2.5 1.12 2.5 2.5zM23 17.5c0-0.83-0.67-1.5-1.5-1.5h-3c-0.83 0-1.5 0.67-1.5 1.5v3c0 0.83 0.67 1.5 1.5 1.5h3c0.83 0 1.5-0.67 1.5-1.5z" />
</svg>