<svg id="sort_alpha_up_Layer_1" viewBox="0 0 24 24" fill="currentColor" width="32" height="32" data-name="Layer 1" xmlns="http://www.w3.org/2000/svg" xmlns:xlink="http://www.w3.org/1999/xlink">
    <title>sort-alpha-up</title>
    <path d="M22 23.5c0 0.276-0.224 0.5-0.5 0.5h-4.112c-0.512 0-0.965-0.268-1.213-0.715s-0.233-0.973 0.038-1.406l4.779-5.356c0.058-0.105-8e-3-0.264-0.041-0.323s-0.132-0.199-0.338-0.199h-4.112c-0.276 0-0.5-0.224-0.5-0.5s0.224-0.5 0.5-0.5h4.112c0.512 0 0.965 0.268 1.213 0.715s0.233 0.973-0.038 1.406l-4.779 5.356c-0.058 0.105 8e-3 0.264 0.041 0.323S17.182 23 17.388 23H21.5c0.276 0 0.5 0.224 0.5 0.5zM16 9.5V3c0-1.654 1.346-3 3-3s3 1.346 3 3v6.5c0 0.276-0.224 0.5-0.5 0.5S21 9.776 21 9.5V6h-4v3.5c0 0.276-0.224 0.5-0.5 0.5S16 9.776 16 9.5zM17 5h4V3c0-1.103-0.897-2-2-2s-2 0.897-2 2zM7.561 0.439c-0.566-0.566-1.555-0.566-2.121 0L1.146 4.732c-0.195 0.195-0.195 0.512 0 0.707s0.512 0.195 0.707 0L6 1.293V23.5C6 23.776 6.224 24 6.5 24S7 23.776 7 23.5V1.293l4.146 4.146c0.098 0.098 0.226 0.146 0.354 0.146s0.256-0.049 0.354-0.146c0.195-0.195 0.195-0.512 0-0.707z" />
</svg>