<svg id="sort_Layer_1" viewBox="0 0 24 24" fill="currentColor" width="32" height="32" data-name="Layer 1" xmlns="http://www.w3.org/2000/svg" xmlns:xlink="http://www.w3.org/1999/xlink">
    <title>sort</title>
    <path d="M20.854 14.012C20.58 13.388 19.985 13 19.303 13H4.697c-0.682 0-1.276 0.388-1.551 1.012s-0.16 1.324 0.302 1.83l6.861 7.403c0.43 0.479 1.046 0.755 1.69 0.755s1.261-0.275 1.686-0.749l6.868-7.411c0.46-0.504 0.575-1.204 0.301-1.828zM19.818 15.162l-6.871 7.415c-0.488 0.545-1.399 0.551-1.897-6e-3l-6.864-7.407c-0.191-0.209-0.237-0.489-0.123-0.749S4.415 14 4.699 14h14.605c0.284 0 0.521 0.155 0.636 0.415s0.068 0.54-0.122 0.747z" />
    <path d="M4.697 11h14.605c0.682 0 1.276-0.388 1.551-1.012s0.16-1.324-0.302-1.83L13.69 0.755c-0.859-0.959-2.526-0.953-3.376-6e-3L3.446 8.16c-0.46 0.504-0.575 1.204-0.3 1.828C3.42 10.612 4.015 11 4.697 11zM4.182 8.838l6.872-7.415C11.298 1.151 11.634 1 12 1s0.702 0.15 0.951 0.429l6.864 7.407c0.191 0.209 0.237 0.489 0.123 0.749S19.586 10 19.302 10H4.697c-0.284 0-0.521-0.155-0.636-0.415s-0.068-0.54 0.121-0.747z" />
</svg>