<svg id="sort_amount_down_alt_Layer_1" viewBox="0 0 24 24" fill="currentColor" width="32" height="32" data-name="Layer 1" xmlns="http://www.w3.org/2000/svg" xmlns:xlink="http://www.w3.org/1999/xlink">
    <title>sort-amount-down-alt</title>
    <path d="M24 0.5C24 0.776 23.776 1 23.5 1h-14C9.224 1 9 0.776 9 0.5S9.224 0 9.5 0h14C23.776 0 24 0.224 24 0.5zM20.5 5h-11C9.224 5 9 5.224 9 5.5S9.224 6 9.5 6h11C20.776 6 21 5.776 21 5.5S20.776 5 20.5 5zM17.5 10h-8C9.224 10 9 10.224 9 10.5S9.224 11 9.5 11h8c0.276 0 0.5-0.224 0.5-0.5S17.776 10 17.5 10zM14.5 15h-5C9.224 15 9 15.224 9 15.5S9.224 16 9.5 16h5c0.276 0 0.5-0.224 0.5-0.5S14.776 15 14.5 15zM9.146 19.561 6 22.707V0.5C6 0.224 5.776 0 5.5 0S5 0.224 5 0.5v22.207l-3.146-3.146c-0.195-0.195-0.512-0.195-0.707 0s-0.195 0.512 0 0.707l3.293 3.293c0.292 0.292 0.676 0.438 1.061 0.438s0.768-0.146 1.061-0.438l3.293-3.293c0.195-0.195 0.195-0.512 0-0.707s-0.512-0.195-0.709 0z" />
</svg>