<svg id="sort_size_up_Layer_1" viewBox="0 0 24 24" fill="currentColor" width="32" height="32" data-name="Layer 1" xmlns="http://www.w3.org/2000/svg" xmlns:xlink="http://www.w3.org/1999/xlink">
    <title>sort-size-up</title>
    <path d="M21.5 15h-3c-1.38 0-2.5 1.12-2.5 2.5v3c0 1.38 1.12 2.5 2.5 2.5h3c1.38 0 2.5-1.12 2.5-2.5v-3c0-1.38-1.12-2.5-2.5-2.5zM23 20.5c0 0.83-0.67 1.5-1.5 1.5h-3c-0.83 0-1.5-0.67-1.5-1.5v-3c0-0.83 0.67-1.5 1.5-1.5h3c0.83 0 1.5 0.67 1.5 1.5zM21.5 1h-5C15.12 1 14 2.12 14 3.5v5c0 1.38 1.12 2.5 2.5 2.5h5c1.38 0 2.5-1.12 2.5-2.5v-5C24 2.12 22.88 1 21.5 1zM23 8.5c0 0.83-0.67 1.5-1.5 1.5h-5C15.67 10 15 9.33 15 8.5v-5C15 2.67 15.67 2 16.5 2h5C22.33 2 23 2.67 23 3.5zM10.84 4.14c0.2 0.19 0.21 0.51 0.02 0.71-0.1 0.1-0.23 0.16-0.36 0.16-0.12 0-0.25-0.05-0.34-0.14L6.57 1.45C6.4 1.28 6.21 1.16 6 1.09V23.5C6 23.78 5.78 24 5.5 24S5 23.78 5 23.5V1.09C4.79 1.16 4.6 1.28 4.44 1.44l-3.6 3.42c-0.2 0.19-0.51 0.18-0.71-0.02-0.19-0.2-0.18-0.52 0.02-0.71l3.59-3.41c0.97-0.97 2.55-0.97 3.53 0z" />
</svg>