<svg id="sort_numeric_down_alt_Layer_1" viewBox="0 0 24 24" fill="currentColor" width="32" height="32" data-name="Layer 1" xmlns="http://www.w3.org/2000/svg" xmlns:xlink="http://www.w3.org/1999/xlink">
    <title>sort-numeric-down-alt</title>
    <path d="M19 0c-1.654 0-3 1.346-3 3s1.346 3 3 3c0.753 0 1.433-0.288 1.96-0.747C20.816 6.667 20.174 9 17.5 9 17.224 9 17 9.224 17 9.5s0.224 0.5 0.5 0.5c2.776 0 4.5-2.107 4.5-5.5V3c0-1.654-1.346-3-3-3zM19 5c-1.103 0-2-0.897-2-2s0.897-2 2-2 2 0.897 2 2-0.897 2-2 2zM20 14.5v9c0 0.276-0.224 0.5-0.5 0.5S19 23.776 19 23.5v-7.793l-1.146 1.146c-0.195 0.195-0.512 0.195-0.707 0s-0.195-0.512 0-0.707l2-2c0.143-0.144 0.358-0.186 0.545-0.108S20.001 14.298 20 14.5zM12.854 18.561c0.195 0.195 0.195 0.512 0 0.707l-4.293 4.293C8.278 23.844 7.901 24 7.5 24s-0.777-0.156-1.061-0.439l-4.293-4.293c-0.195-0.195-0.195-0.512 0-0.707s0.512-0.195 0.707 0l4.146 4.146V0.5c0-0.276 0.224-0.5 0.5-0.5s0.5 0.224 0.5 0.5v22.207l4.146-4.146c0.195-0.195 0.512-0.195 0.709 0z" />
</svg>