<svg id="sort_amount_down_Layer_1" viewBox="0 0 24 24" fill="currentColor" width="32" height="32" data-name="Layer 1" xmlns="http://www.w3.org/2000/svg" xmlns:xlink="http://www.w3.org/1999/xlink">
    <title>sort-amount-down</title>
    <path d="M24 15.5c0 0.276-0.224 0.5-0.5 0.5h-14C9.224 16 9 15.776 9 15.5S9.224 15 9.5 15h14c0.276 0 0.5 0.224 0.5 0.5zM9.5 11h11c0.276 0 0.5-0.224 0.5-0.5S20.776 10 20.5 10h-11C9.224 10 9 10.224 9 10.5S9.224 11 9.5 11zM9.5 6h8C17.776 6 18 5.776 18 5.5S17.776 5 17.5 5h-8C9.224 5 9 5.224 9 5.5S9.224 6 9.5 6zM9.5 1h5C14.776 1 15 0.776 15 0.5S14.776 0 14.5 0h-5C9.224 0 9 0.224 9 0.5S9.224 1 9.5 1zM9.146 19.561 6 22.707V0.5C6 0.224 5.776 0 5.5 0S5 0.224 5 0.5v22.207l-3.146-3.146c-0.195-0.195-0.512-0.195-0.707 0s-0.195 0.512 0 0.707l3.293 3.293c0.292 0.292 0.677 0.438 1.061 0.438s0.769-0.146 1.061-0.438l3.293-3.293c0.195-0.195 0.195-0.512 0-0.707s-0.512-0.195-0.709 0z" />
</svg>