<svg id="sort_alt_Layer_1" viewBox="0 0 24 24" fill="currentColor" width="32" height="32" data-name="Layer 1" xmlns="http://www.w3.org/2000/svg" xmlns:xlink="http://www.w3.org/1999/xlink">
    <title>sort-alt</title>
    <path d="M11.854 18.561c0.195 0.195 0.195 0.512 0 0.707l-4.293 4.293C7.278 23.844 6.901 24 6.5 24s-0.777-0.156-1.061-0.439l-4.293-4.293c-0.195-0.195-0.195-0.512 0-0.707s0.512-0.195 0.707 0l4.146 4.146V0.5c0-0.276 0.224-0.5 0.5-0.5s0.5 0.224 0.5 0.5v22.207l4.146-4.146c0.195-0.195 0.512-0.195 0.709 0zM22.854 4.732 18.561 0.439c-0.566-0.566-1.555-0.566-2.121 0l-4.293 4.293c-0.195 0.195-0.195 0.512 0 0.707s0.512 0.195 0.707 0L17 1.293V23.5c0 0.276 0.224 0.5 0.5 0.5s0.5-0.224 0.5-0.5V1.293l4.146 4.146c0.098 0.098 0.226 0.146 0.354 0.146s0.256-0.049 0.354-0.146c0.195-0.195 0.195-0.512 0-0.707z" />
</svg>