<svg id="sort_amount_up_alt_Layer_1" viewBox="0 0 24 24" fill="currentColor" width="32" height="32" data-name="Layer 1" xmlns="http://www.w3.org/2000/svg" xmlns:xlink="http://www.w3.org/1999/xlink">
    <title>sort-amount-up-alt</title>
    <path d="M24 8.5C24 8.776 23.776 9 23.5 9h-14C9.224 9 9 8.776 9 8.5S9.224 8 9.5 8h14C23.776 8 24 8.224 24 8.5zM20.5 13h-11C9.224 13 9 13.224 9 13.5S9.224 14 9.5 14h11c0.276 0 0.5-0.224 0.5-0.5S20.776 13 20.5 13zM17.5 18h-8C9.224 18 9 18.224 9 18.5S9.224 19 9.5 19h8c0.276 0 0.5-0.224 0.5-0.5S17.776 18 17.5 18zM14.5 23h-5C9.224 23 9 23.224 9 23.5S9.224 24 9.5 24h5c0.276 0 0.5-0.224 0.5-0.5S14.776 23 14.5 23zM9.146 4.439C9.244 4.537 9.372 4.585 9.5 4.585s0.256-0.049 0.354-0.146c0.195-0.195 0.195-0.512 0-0.707L6.561 0.439c-0.585-0.584-1.536-0.584-2.121 0L1.146 3.732c-0.195 0.195-0.195 0.512 0 0.707s0.512 0.195 0.707 0L5 1.293V23.5C5 23.776 5.224 24 5.5 24S6 23.776 6 23.5V1.293z" />
</svg>