<svg id="sort_shapes_up_Layer_1" viewBox="0 0 24 24" fill="currentColor" width="32" height="32" data-name="Layer 1" xmlns="http://www.w3.org/2000/svg" xmlns:xlink="http://www.w3.org/1999/xlink">
    <title>sort-shapes-up</title>
    <path d="M20.5 14h-4c-1.38 0-2.5 1.12-2.5 2.5v4c0 1.38 1.12 2.5 2.5 2.5h4c1.38 0 2.5-1.12 2.5-2.5v-4c0-1.38-1.12-2.5-2.5-2.5zM22 20.5c0 0.83-0.67 1.5-1.5 1.5h-4c-0.83 0-1.5-0.67-1.5-1.5v-4c0-0.83 0.67-1.5 1.5-1.5h4c0.83 0 1.5 0.67 1.5 1.5zM10.84 4.14c0.2 0.19 0.21 0.51 0.02 0.71-0.1 0.1-0.23 0.16-0.36 0.16-0.12 0-0.25-0.05-0.34-0.14L6.57 1.45C6.41 1.29 6.21 1.17 6 1.1v22.4C6 23.78 5.78 24 5.5 24S5 23.78 5 23.5V1.09C4.79 1.16 4.6 1.28 4.44 1.44l-3.6 3.42c-0.2 0.19-0.52 0.18-0.71-0.02s-0.18-0.52 0.02-0.71l3.59-3.41c0.93-0.93 2.58-0.94 3.53 0zM23.31 7.08 20.22 2.04c-0.35-0.64-1-1.03-1.73-1.03s-1.38 0.38-1.72 1.01l-3.12 5.09c-0.33 0.62-0.32 1.34 0.04 1.94s0.99 0.96 1.69 0.96h6.21c0.7 0 1.33-0.36 1.69-0.96s0.37-1.33 0.03-1.97zM22.42 8.54c-0.18 0.3-0.49 0.47-0.83 0.47h-6.21c-0.34 0-0.65-0.18-0.83-0.47-0.18-0.3-0.18-0.65-0.03-0.93l3.12-5.09c0.17-0.32 0.49-0.51 0.85-0.51s0.68 0.19 0.86 0.53l3.09 5.04c0.16 0.3 0.16 0.66-0.02 0.96z" />
</svg>