<svg id="soup_Layer_1" viewBox="0 0 24 24" fill="currentColor" width="32" height="32" data-name="Layer 1" xmlns="http://www.w3.org/2000/svg" xmlns:xlink="http://www.w3.org/1999/xlink">
    <title>soup</title>
    <path d="M9.146 4.354C8.417 3.625 8 2.617 8 1.586V0.5C8 0.224 8.224 0 8.5 0S9 0.224 9 0.5v1.086c0 0.767 0.311 1.518 0.854 2.061C10.583 4.376 11 5.384 11 6.415v1.086c0 0.276-0.224 0.5-0.5 0.5S10 7.777 10 7.501V6.415c0-0.767-0.311-1.518-0.854-2.061zM14 5.415v1.086c0 0.276 0.224 0.5 0.5 0.5s0.5-0.224 0.5-0.5V5.415c0-1.046-0.407-2.029-1.146-2.768C13.328 2.121 13 1.298 13 0.501c0-0.276-0.224-0.5-0.5-0.5S12 0.225 12 0.501c0 1.069 0.429 2.136 1.146 2.854C13.697 3.905 14 4.637 14 5.415zM23.852 14.828c-0.713 2.527-2.003 4.807-3.731 6.591-1.59 1.641-3.84 2.582-6.175 2.582h-3.891c-2.334 0-4.585-0.941-6.174-2.582-1.729-1.785-3.02-4.064-3.732-6.591-0.333-1.185-0.104-2.42 0.63-3.39C1.471 10.524 2.514 10 3.64 10h16.723c1.126 0 2.169 0.524 2.861 1.438 0.733 0.969 0.963 2.205 0.628 3.39zM22.425 12.042C21.924 11.379 21.171 11 20.362 11H3.639c-0.81 0-1.562 0.38-2.063 1.042-0.543 0.717-0.712 1.634-0.464 2.515 0.658 2.334 1.896 4.524 3.487 6.167 1.403 1.448 3.392 2.278 5.457 2.278h3.891c2.065 0 4.055-0.83 5.456-2.277 1.591-1.642 2.829-3.832 3.487-6.167 0.248-0.88 0.079-1.797-0.465-2.516z" />
</svg>