<svg id="source_document_Layer_1" viewBox="0 0 24 24" fill="currentColor" width="32" height="32" data-name="Layer 1" xmlns="http://www.w3.org/2000/svg" xmlns:xlink="http://www.w3.org/1999/xlink">
    <title>source-document</title>
    <path d="M18.5 19H17v-4.5c0-1.379-1.122-2.5-2.5-2.5h-5C8.122 12 7 13.121 7 14.5v7C7 22.879 8.122 24 9.5 24H18c1.103 0 2-0.897 2-2v-1.5c0-0.827-0.673-1.5-1.5-1.5zM8 21.5v-7C8 13.673 8.673 13 9.5 13h5c0.827 0 1.5 0.673 1.5 1.5V22c0 0.366 0.106 0.705 0.278 1H9.5C8.673 23 8 22.327 8 21.5zM19 22c0 0.552-0.449 1-1 1s-1-0.448-1-1v-2h1.5c0.276 0 0.5 0.225 0.5 0.5zM7 10.5c0.111 0 0.223-0.037 0.315-0.112 0.214-0.175 0.246-0.489 0.072-0.703L5.209 7.012C5.695 6.479 5.999 5.777 5.999 5c0-1.654-1.346-3-3-3S0 3.346 0 5 1.346 8 3 8c0.517 0 0.996-0.143 1.421-0.374l2.191 2.69C6.711 10.438 6.855 10.501 7 10.5zM1 5c0-1.103 0.897-2 2-2s2 0.897 2 2-0.897 2-2 2-2-0.897-2-2zM11.5 5.949V9.5c0 0.276 0.224 0.5 0.5 0.5s0.5-0.224 0.5-0.5V5.949C13.916 5.709 15 4.483 15 3c0-1.654-1.346-3-3-3S9 1.346 9 3c0 1.483 1.084 2.71 2.5 2.949zM12 1c1.103 0 2 0.897 2 2s-0.897 2-2 2-2-0.897-2-2 0.897-2 2-2zM21 2c-1.654 0-3 1.346-3 3 0 0.777 0.304 1.478 0.79 2.012l-2.178 2.673c-0.174 0.214-0.142 0.528 0.072 0.703 0.093 0.075 0.205 0.112 0.315 0.112 0.146 0 0.289-0.062 0.388-0.185l2.191-2.69c0.425 0.231 0.904 0.374 1.421 0.374 1.654 0 3-1.346 3-3S22.653 1.999 21 2zM21 7c-1.103 0-2-0.897-2-2s0.897-2 2-2 2 0.897 2 2-0.897 2-2 2zM14 15.5c0 0.276-0.224 0.5-0.5 0.5h-3c-0.276 0-0.5-0.224-0.5-0.5s0.224-0.5 0.5-0.5h3c0.276 0 0.5 0.224 0.5 0.5zM14 17.5c0 0.276-0.224 0.5-0.5 0.5h-3c-0.276 0-0.5-0.224-0.5-0.5s0.224-0.5 0.5-0.5h3c0.276 0 0.5 0.224 0.5 0.5zM13 19.5c0 0.276-0.224 0.5-0.5 0.5h-2c-0.276 0-0.5-0.224-0.5-0.5s0.224-0.5 0.5-0.5h2c0.276 0 0.5 0.224 0.5 0.5z" />
</svg>