<svg id="space_station_moon_Layer_1" viewBox="0 0 24 24" fill="currentColor" width="32" height="32" data-name="Layer 1" xmlns="http://www.w3.org/2000/svg" xmlns:xlink="http://www.w3.org/1999/xlink">
    <title>space-station-moon</title>
    <path d="M12.225 2.002C8.992 1.96 5.91 3.163 3.594 5.437 3.054 5.968 0 9 0 14v4c0 2.206 1.794 4 4 4h16c2.206 0 4-1.794 4-4v-3.618c0-6.707-5.282-12.261-11.775-12.38zM21.083 7.993c0 0 0 0 0 0-2e-3 0-2e-3 0 0 0zM4.294 6.151c2.074-2.036 4.803-3.15 7.705-3.15 3.501 0 6.369 1.607 8.349 4H3.514c0.244-0.294 0.504-0.578 0.78-0.85zM5 21.001H4c-1.654 0-3-1.346-3-3v-4c0-2.166 0.62-4.232 1.776-6h3.55C5.479 9.592 5 11.921 5 14.523zM14 21.001h-4v-5c0-1.103 0.897-2 2-2s2 0.897 2 2zM18 21.001h-3v-5c0-1.654-1.346-3-3-3s-3 1.346-3 3v5H6v-6.478c0-2.728 0.541-5.103 1.484-6.518 1e-3-2e-3 2e-3-3e-3 3e-3-5e-3h9.025c0 0 2e-3 3e-3 3e-3 5e-3 0.943 1.415 1.484 3.79 1.484 6.518zM23 18.001c0 1.654-1.346 3-3 3h-1v-6.478c0-2.602-0.479-4.932-1.326-6.522h3.414C22.293 9.827 23 12.027 23 14.383z" />
</svg>