<svg id="spade_Layer_1" viewBox="0 0 24 24" fill="currentColor" width="32" height="32" data-name="Layer 1" xmlns="http://www.w3.org/2000/svg" xmlns:xlink="http://www.w3.org/1999/xlink">
    <title>spade</title>
    <path d="M17.25 20c3.171 0 5.75-2.824 5.75-6.304 0-3.837-4.098-9.181-7.904-12.522-1.766-1.549-4.427-1.549-6.19 0C5.098 4.515 1 9.859 1 13.696 1 17.175 3.58 20 6.75 20c2.123 0 3.689-1.413 4.638-2.62C11.106 19.74 10.147 23 7 23H5.5C5.224 23 5 23.224 5 23.5S5.224 24 5.5 24h13c0.276 0 0.5-0.224 0.5-0.5S18.776 23 18.5 23H17c-3.147 0-4.106-3.26-4.388-5.62 0.949 1.207 2.516 2.62 4.638 2.62zM6.75 19.006c-2.619 0-4.75-2.382-4.75-5.31 0-3.369 3.806-8.472 7.565-11.771 1.388-1.219 3.482-1.219 4.871 0C18.195 5.224 22 10.326 22 13.696c0 2.928-2.131 5.31-4.75 5.31-2.98 0-4.781-3.685-4.799-3.722C12.449 15.279 12.336 15 12 15s-0.449 0.28-0.451 0.284c-0.018 0.037-1.818 3.722-4.799 3.722zM14.096 23H9.905c1.011-0.828 1.687-2.102 2.096-3.558 0.408 1.456 1.085 2.73 2.095 3.558z" />
</svg>