<svg id="spaghetti_monster_flying_Layer_1" viewBox="0 0 24 24" fill="currentColor" width="32" height="32" data-name="Layer 1" xmlns="http://www.w3.org/2000/svg" xmlns:xlink="http://www.w3.org/1999/xlink">
    <title>spaghetti-monster-flying</title>
    <circle cx="7" cy="3" r="1" />
    <circle cx="17" cy="3" r="1" />
    <path d="M23.5 17c-0.276 0-0.5 0.224-0.5 0.5V18c0 1.103-0.897 2-2 2s-2-0.897-2-2v-1.951c0.344-0.201 0.669-0.403 0.954-0.599 0.665-0.458 1.047-1.169 1.047-1.951s-0.382-1.492-1.046-1.95c-0.134-0.092-0.285-0.187-0.432-0.281 0.121-1.82 1.626-3.269 3.477-3.269h0.5c0.276 0 0.5-0.224 0.5-0.5s-0.224-0.5-0.5-0.5H23c-2.211 0-4.044 1.605-4.42 3.71-0.965-0.524-2.131-1.006-3.462-1.327l1.7-3.401c0.061 4e-3 0.12 0.018 0.182 0.018 1.654 0 3-1.346 3-3s-1.346-3-3-3-3 1.346-3 3c0 1.233 0.749 2.293 1.814 2.753l-1.713 3.426C13.433 9.071 12.738 8.999 12 8.999s-1.433 0.072-2.101 0.179L8.203 5.743C9.259 5.278 10 4.225 10 2.999c0-1.654-1.346-3-3-3s-3 1.346-3 3 1.346 3 3 3c0.07 0 0.135-0.016 0.204-0.021l1.681 3.403c-1.332 0.321-2.499 0.804-3.464 1.328-0.376-2.105-2.209-3.71-4.42-3.71h-0.5c-0.276 0-0.5 0.224-0.5 0.5s0.224 0.5 0.5 0.5h0.5c1.851 0 3.356 1.449 3.477 3.27-0.146 0.094-0.297 0.188-0.43 0.28-0.665 0.458-1.047 1.168-1.047 1.95s0.382 1.493 1.047 1.951c0.284 0.196 0.61 0.398 0.953 0.599V18c0 1.103-0.897 2-2 2s-2-0.897-2-2v-0.5c0-0.276-0.224-0.5-0.5-0.5s-0.5 0.224-0.5 0.5V18c0 1.654 1.346 3 3 3s3-1.346 3-3v-1.418c0.871 0.425 1.876 0.802 3 1.063V19.5c0 1.93-1.57 3.5-3.5 3.5-0.276 0-0.5 0.224-0.5 0.5s0.224 0.5 0.5 0.5c2.481 0 4.5-2.019 4.5-4.5v-1.665c0.638 0.098 1.299 0.165 2 0.165s1.362-0.067 2-0.165V19.5c0 2.481 2.019 4.5 4.5 4.5 0.276 0 0.5-0.224 0.5-0.5s-0.224-0.5-0.5-0.5c-1.93 0-3.5-1.57-3.5-3.5v-1.855c1.124-0.26 2.129-0.638 3-1.063V18c0 1.654 1.346 3 3 3s3-1.346 3-3v-0.5c0-0.276-0.224-0.5-0.501-0.5zM15 3c0-1.103 0.897-2 2-2s2 0.897 2 2-0.897 2-2 2-2-0.897-2-2zM5 3c0-1.103 0.897-2 2-2s2 0.897 2 2-0.897 2-2 2-2-0.897-2-2zM4.613 14.627C4.223 14.358 4 13.947 4 13.5s0.224-0.858 0.614-1.126c1.57-1.083 4.127-2.373 7.386-2.373s5.816 1.291 7.388 2.373c0.39 0.269 0.613 0.679 0.613 1.126s-0.224 0.859-0.613 1.127C17.816 15.71 15.259 17 12 17s-5.814-1.291-7.387-2.373z" />
</svg>