<svg id="spain_map_Layer_1" viewBox="0 0 24 24" fill="currentColor" width="32" height="32" data-name="Layer 1" xmlns="http://www.w3.org/2000/svg" xmlns:xlink="http://www.w3.org/1999/xlink">
    <title>spain-map</title>
    <path d="M17.756 16.055c0.413-0.635 0.363-1.466-0.124-2.047l-0.565-0.675L19.1 9.93l1.615-0.298c0.519-0.096 1.017-0.284 1.469-0.555L23.38 8.36C23.765 8.129 24 7.714 24 7.265c0-0.705-0.572-1.277-1.277-1.277H21c0 0-0.096-0.981-0.745-1.376-0.593-0.361-0.725-0.377-0.743-0.377-2e-3 0-3e-3 0-3e-3 0-0.273-0.138-0.574-0.209-0.879-0.209-0.053 0-3.172 0.253-3.172 0.253l-0.223-0.432c-0.189-0.367-0.528-0.635-0.929-0.734l-3.107-0.767c-0.101-0.025-0.204-0.037-0.306-0.037-0.334 0-0.66 0.132-0.903 0.374L9.499 3.174l-2.5-0.5-2-0.5-0.797-0.531C4.058 1.547 3.895 1.501 3.734 1.501c-0.273 0-0.541 0.132-0.704 0.376L2.499 2.674 0.996 3.081C0.306 3.355-0.1 4.074 0.022 4.807l0.159 0.957C0.264 6.263 0.58 6.691 1.033 6.917l0.796 0.398c0.221 0.11 0.462 0.167 0.706 0.167 0.103 0 0.207-0.01 0.31-0.031 0 0 1.708-0.218 1.747-0.218 0.285 0 0.558 0.131 0.736 0.36 0.282 0.362 0.259 0.874-0.053 1.21L4.476 9.662C4.17 9.99 4 10.423 4 10.871v1.302c0 0-1.096 0.315-0.5 1.5 0.578 1.149 1 2 1 2l-0.858 2.282c-0.228 0.685-0.05 1.441 0.461 1.952l1.619 1.619c0.308 0.308 0.714 0.464 1.12 0.464 0.371 0 0.743-0.13 1.042-0.391L9.5 19.988h3.335c0.426 0 0.835-0.169 1.136-0.471L15 18.488l0.928-0.309c0.37-0.123 0.688-0.369 0.901-0.696zM15.99 16.937c-0.089 0.137-0.223 0.241-0.378 0.292l-0.928 0.309c-0.147 0.049-0.281 0.132-0.391 0.242l-1.029 1.029c-0.115 0.115-0.267 0.178-0.429 0.178H9.5c-0.265 0-0.518 0.105-0.706 0.292l-1.588 1.582c-0.131 0.105-0.269 0.128-0.365 0.128-0.156 0-0.303-0.061-0.413-0.171l-1.619-1.619c-0.245-0.245-0.329-0.6-0.232-0.893l0.858-2.282c0.098-0.26 0.083-0.548-0.04-0.796 0 0-1.039-2.083-1.049-2.111 0.423-0.117 0.653-0.492 0.653-0.944v-1.302c0-0.197 0.074-0.384 0.208-0.528l0.799-0.859c0.65-0.699 0.696-1.753 0.109-2.505C5.746 6.505 5.19 6.234 4.59 6.234c-0.082 0-0.165 5e-3-0.248 0.016 0 0-1.772 0.233-1.809 0.233-0.089 0-0.179-0.021-0.259-0.061L1.478 6.024C1.313 5.941 1.196 5.783 1.166 5.601L1.007 4.644C0.965 4.391 1.098 4.139 1.325 4.028L2.76 3.639C2.994 3.576 3.196 3.43 3.331 3.228L3.776 2.56 4.444 3.005c0.095 0.064 0.201 0.11 0.312 0.138l2.046 0.51 2.5 0.5c0.065 0.013 0.131 0.019 0.196 0.019 0.263 0 0.518-0.104 0.707-0.293l0.491-0.491c0.051-0.051 0.123-0.081 0.195-0.081 0.022 0 0.044 3e-3 0.066 8e-3l3.107 0.767c0.121 0.03 0.223 0.11 0.279 0.221l0.223 0.432c0.172 0.335 0.517 0.542 0.889 0.542 0.027 0 3.095-0.25 3.095-0.25 0.026-2e-3 0.374 0.032 0.506 0.099 0.069 0.035 0.141 0.061 0.215 0.079 0.056 0.026 0.194 0.096 0.461 0.259 0.119 0.073 0.243 0.398 0.27 0.62 0.05 0.512 0.481 0.902 0.995 0.902h1.723c0.153 0 0.277 0.124 0.277 0.277 0 0.097-0.052 0.188-0.134 0.238l-1.196 0.717c-0.351 0.211-0.733 0.355-1.136 0.429l-1.615 0.298c-0.283 0.052-0.53 0.224-0.677 0.471l-2.033 3.403c-0.218 0.365-0.181 0.829 0.092 1.155l0.565 0.675c0.206 0.246 0.227 0.591 0.052 0.86zM21.631 15.737c-0.205-0.168-0.451-0.25-0.695-0.25-0.33 0-0.657 0.149-0.875 0.436l-0.83 1.09c-0.336 0.442-0.301 1.068 0.083 1.467l0.642 0.668c0.216 0.224 0.503 0.339 0.792 0.339 0.25 0 0.501-0.086 0.707-0.26l1.147-0.97c0.535-0.452 0.529-1.287-0.012-1.732zM21.957 17.494l-1.148 0.97c-0.019 0.016-0.039 0.023-0.062 0.023-0.027 0-0.051-0.011-0.071-0.031l-0.642-0.668c-0.043-0.045-0.047-0.119-9e-3-0.169l0.83-1.09c0.026-0.034 0.058-0.042 0.08-0.042 0.029 0 0.048 0.013 0.06 0.023l0.96 0.789c0.036 0.03 0.044 0.069 0.044 0.097s-7e-3 0.068-0.042 0.098zM18.513 20.881c0.117 0.268 0.051 0.585-0.162 0.779l-0.724 0.66c-0.122 0.112-0.275 0.167-0.427 0.167-0.166 0-0.331-0.066-0.457-0.196l-0.054-0.056c-0.278-0.288-0.245-0.765 0.069-1.01l0.778-0.604c0.117-0.091 0.253-0.134 0.387-0.134 0.243 0 0.48 0.142 0.59 0.394zM23.84 12.996c0.175 0.185 0.21 0.463 0.087 0.686-0.107 0.194-0.307 0.305-0.515 0.305-0.088 0-0.178-0.02-0.262-0.062l-0.812-0.406c-0.316-0.158-0.422-0.557-0.226-0.851l0.178-0.267c0.091-0.177 0.261-0.325 0.464-0.325 0.14 0 0.295 0.07 0.452 0.248z" />
</svg>