<svg id="spain_country_code_Layer_1" viewBox="0 0 24 24" fill="currentColor" width="32" height="32" data-name="Layer 1" xmlns="http://www.w3.org/2000/svg" xmlns:xlink="http://www.w3.org/1999/xlink">
    <title>spain-country-code</title>
    <path d="M19.5 3h-15C2.019 3 0 5.019 0 7.5v9C0 18.981 2.019 21 4.5 21h15c2.481 0 4.5-2.019 4.5-4.5v-9C24 5.019 21.981 3 19.5 3zM23 16.5c0 1.93-1.57 3.5-3.5 3.5h-15C2.57 20 1 18.43 1 16.5v-9C1 5.57 2.57 4 4.5 4h15C21.43 4 23 5.57 23 7.5zM8 9v2.5h2.5c0.276 0 0.5 0.224 0.5 0.5s-0.224 0.5-0.5 0.5H8V15h2.5c0.276 0 0.5 0.224 0.5 0.5S10.776 16 10.5 16H8c-0.551 0-1-0.448-1-1V9c0-0.552 0.449-1 1-1h2.5C10.776 8 11 8.224 11 8.5S10.776 9 10.5 9zM16.993 14.057c-0.183 1.127-1.162 1.945-2.329 1.945-0.878 0-1.947-0.552-2.473-1.086-0.194-0.196-0.192-0.513 5e-3-0.707 0.197-0.192 0.513-0.191 0.707 6e-3 0.414 0.419 1.237 0.787 1.761 0.787 0.674 0 1.238-0.465 1.343-1.105 0.036-0.228 0.075-1.006-0.976-1.431-0.112-0.042-1.208-0.459-1.699-0.764-0.663-0.466-0.977-1.173-0.88-1.916 0.104-0.785 0.627-1.423 1.365-1.665 0.898-0.298 1.822-0.047 2.736 0.746 0.209 0.181 0.231 0.497 0.051 0.705-0.181 0.209-0.496 0.231-0.705 0.051-0.648-0.562-1.211-0.737-1.769-0.553-0.371 0.122-0.634 0.446-0.688 0.847-0.049 0.379 0.103 0.715 0.428 0.946 0.334 0.204 1.214 0.554 1.523 0.671 1.393 0.563 1.73 1.71 1.6 2.523z" />
</svg>