<svg id="spam_Layer_1" viewBox="0 0 24 24" fill="currentColor" width="32" height="32" data-name="Layer 1" xmlns="http://www.w3.org/2000/svg" xmlns:xlink="http://www.w3.org/1999/xlink">
    <title>spam</title>
    <path d="M23.5 13c-0.276 0-0.5 0.224-0.5 0.5v6c0 1.93-1.57 3.5-3.5 3.5h-15C2.57 23 1 21.43 1 19.5v-7c0-0.469 0.097-0.932 0.277-1.359l7.541 7.541C9.668 19.532 10.797 20 12 20s2.332-0.468 3.182-1.318l3.172-3.172c0.195-0.195 0.195-0.512 0-0.707s-0.512-0.195-0.707 0l-3.172 3.172c-1.322 1.322-3.627 1.322-4.949 0L4.001 12.45V3.5c0-1.378 1.121-2.5 2.5-2.5h5c0.276 0 0.5-0.224 0.5-0.5S11.777 0 11.501 0h-5c-1.93 0-3.5 1.57-3.5 3.5v4.196L1.378 9.26C0.503 10.103 1e-3 11.284 1e-3 12.5v7c0 2.481 2.019 4.5 4.5 4.5h15c2.481 0 4.5-2.019 4.5-4.5v-6c0-0.276-0.224-0.5-0.501-0.5zM3 9.084v2.366l-1.177-1.177C1.967 10.045 2.799 9.287 3 9.084zM17.5 13c3.584 0 6.5-2.916 6.5-6.5S21.084 0 17.5 0 11 2.916 11 6.5 13.916 13 17.5 13zM17.5 1C20.532 1 23 3.467 23 6.5S20.532 12 17.5 12 12 9.533 12 6.5 14.468 1 17.5 1zM14.646 8.646 16.792 6.5 14.646 4.354c-0.195-0.195-0.195-0.512 0-0.707s0.512-0.195 0.707 0l2.146 2.146 2.146-2.146c0.195-0.195 0.512-0.195 0.707 0s0.195 0.512 0 0.707L18.206 6.5l2.146 2.146c0.195 0.195 0.195 0.512 0 0.707s-0.512 0.195-0.707 0l-2.146-2.146-2.146 2.146c-0.195 0.195-0.512 0.195-0.707 0s-0.195-0.512 0-0.707z" />
</svg>