<svg id="spanish_Layer_1" viewBox="0 0 24 24" fill="currentColor" width="32" height="32" data-name="Layer 1" xmlns="http://www.w3.org/2000/svg" xmlns:xlink="http://www.w3.org/1999/xlink">
    <title>spanish</title>
    <path d="M19.5 4h-0.551C18.697 1.756 16.81 0 14.5 0h-10C2.019 0 0 2.019 0 4.5v13.855c-0.041 1.276 1.522 2.113 2.562 1.371l3.526-2.351C6.497 19.438 8.318 21 10.5 21h6.849l4.089 2.726c1.04 0.742 2.604-0.095 2.563-1.371V8.5c0-2.481-2.019-4.5-4.501-4.5zM2.008 18.894C1.601 19.187 0.982 18.858 1 18.355V4.5C1 2.57 2.57 1 4.5 1h10C16.43 1 18 2.57 18 4.5v8c0 1.93-1.57 3.5-3.5 3.5h-8c-0.105-4e-3-0.189 0.05-0.277 0.084zM23 22.355c0.019 0.504-0.602 0.831-1.008 0.539l-4.215-2.81C17.695 20.029 17.598 20 17.5 20h-7c-1.758 0-3.204-1.308-3.449-3H14.5c2.481 0 4.5-2.019 4.5-4.5V5h0.5C21.43 5 23 6.57 23 8.5zM9.763 11.099c-0.206-0.183-0.225-0.499-0.042-0.705 0.183-0.208 0.499-0.225 0.706-0.043 0.251 0.222 1.051 0.799 1.72 0.799 0.458 0 1.233-0.211 1.233-1.002 0-0.544-0.534-0.837-1.415-1.255C11.09 8.477 10 7.96 10 6.767c0-1.258 1.007-1.916 2.001-1.916 0.925 0 2.008 0.821 2.128 0.914 0.218 0.169 0.258 0.483 0.088 0.701-0.167 0.218-0.481 0.259-0.701 0.089-0.352-0.272-1.074-0.704-1.515-0.704-0.462 0-1.001 0.24-1.001 0.916 0 0.524 0.526 0.812 1.394 1.223 0.885 0.42 1.986 0.942 1.986 2.158 0 1.314-1.124 2.002-2.233 2.002-1.168 0-2.263-0.943-2.384-1.051zM8 12H6c-0.552 0-1-0.449-1-1V6c0-0.551 0.448-1 1-1h2c0.276 0 0.5 0.224 0.5 0.5S8.276 6 8 6H6v2h2c0.276 0 0.5 0.224 0.5 0.5S8.276 9 8 9H6v2h2c0.276 0 0.5 0.224 0.5 0.5S8.276 12 8 12z" />
</svg>