<svg id="spartan_helmet_Layer_1" viewBox="0 0 24 24" fill="currentColor" width="32" height="32" data-name="Layer 1" xmlns="http://www.w3.org/2000/svg" xmlns:xlink="http://www.w3.org/1999/xlink">
    <title>spartan-helmet</title>
    <path d="M15.433 24.001c-0.542 0-1.075-0.181-1.518-0.526-0.604-0.471-0.95-1.181-0.951-1.946l-5e-3-4.958c0-0.521 0.278-0.996 0.743-1.273 1.794-1.071 3.254-2.887 3.254-4.047 0-1.367-0.883-2.25-2.25-2.25-0.435 0-0.917 0.202-1.322 0.555l-0.378 0.431c-0.266 0.3-0.648 0.472-1.049 0.472v0c-0.401 0-0.784-0.172-1.05-0.472l-0.423-0.476c-0.36-0.308-0.842-0.51-1.276-0.51-1.367 0-2.25 0.883-2.25 2.25 0 1.157 1.463 2.973 3.261 4.047 0.464 0.278 0.741 0.752 0.742 1.27v0l5e-3 4.952c0 0.769-0.346 1.479-0.951 1.952s-1.379 0.635-2.125 0.45l-4.54-1.055c-0.65-0.145-1.209-0.566-1.529-1.156-0.32-0.591-0.369-1.29-0.133-1.919l1.447-2.742c0.118-0.182 0.14-0.354 0.085-0.517-0.044-0.132-0.101-0.288-0.166-0.468-0.408-1.125-1.091-3.009-1.091-5.138-1e-3-6.467 7.175-9.991 8.614-10.633 0.876-0.391 1.875-0.391 2.751 0 0.884 0.395 8.634 4.04 8.634 10.706 0 2.089-0.68 3.915-1.085 5.006-0.076 0.203-0.141 0.379-0.19 0.526-0.055 0.162-0.033 0.335 0.059 0.474l1.536 2.715c0.269 0.699 0.22 1.398-0.1 1.989-0.32 0.59-0.879 1.012-1.534 1.157l-4.62 1.061c-0.196 0.049-0.396 0.073-0.595 0.073zM14.707 8c1.914 0 3.25 1.337 3.25 3.25 0 1.735-1.928 3.823-3.742 4.906-0.16 0.095-0.255 0.249-0.255 0.413l5e-3 4.957c0 0.457 0.207 0.88 0.567 1.16 0.36 0.281 0.822 0.381 1.263 0.269l4.632-1.063c0.375-0.083 0.693-0.323 0.875-0.658 0.182-0.336 0.21-0.733 0.076-1.091l-1.483-2.613c-0.246-0.367-0.309-0.857-0.156-1.315 0.052-0.155 0.122-0.342 0.202-0.557 0.382-1.028 1.022-2.748 1.022-4.657-1e-3-6.036-7.219-9.427-8.043-9.793-0.618-0.275-1.318-0.275-1.937 0-1.34 0.597-8.022 3.87-8.022 9.719 0 1.954 0.645 3.733 1.031 4.797 0.068 0.188 0.128 0.353 0.174 0.49 0.153 0.458 0.09 0.948-0.175 1.347l-1.395 2.641c-0.108 0.299-0.08 0.696 0.102 1.032 0.182 0.335 0.5 0.575 0.872 0.657l4.553 1.058c0.45 0.114 0.914 0.016 1.274-0.266 0.36-0.281 0.567-0.705 0.566-1.163l-5e-3-4.951c0-0.163-0.096-0.317-0.255-0.413-1.816-1.085-3.748-3.174-3.748-4.905 0-1.913 1.336-3.25 3.25-3.25 0.682 0 1.384 0.284 1.978 0.801l0.469 0.521c0.156 0.176 0.45 0.176 0.605 0l0.424-0.476c0.64-0.562 1.342-0.846 2.026-0.847z" />
</svg>