<svg id="speaker_Layer_1" viewBox="0 0 24 24" fill="currentColor" width="32" height="32" data-name="Layer 1" xmlns="http://www.w3.org/2000/svg" xmlns:xlink="http://www.w3.org/1999/xlink">
    <title>speaker</title>
    <path d="M16.5 0h-9C5.019 0 3 2.019 3 4.5v15C3 21.981 5.019 24 7.5 24h9c2.481 0 4.5-2.019 4.5-4.5v-15C21 2.019 18.981 0 16.5 0zM20 19.5c0 1.93-1.57 3.5-3.5 3.5h-9C5.57 23 4 21.43 4 19.5v-15C4 2.57 5.57 1 7.5 1h9C18.43 1 20 2.57 20 4.5zM12 8c1.379 0 2.5-1.122 2.5-2.5S13.379 3 12 3 9.5 4.122 9.5 5.5 10.621 8 12 8zM12 4c0.827 0 1.5 0.673 1.5 1.5S12.827 7 12 7s-1.5-0.673-1.5-1.5S11.173 4 12 4zM12 11c-2.757 0-5 2.243-5 5s2.243 5 5 5 5-2.243 5-5-2.243-5-5-5zM12 20c-2.206 0-4-1.794-4-4s1.794-4 4-4 4 1.794 4 4-1.794 4-4 4zM13 16c0 0.552-0.448 1-1 1s-1-0.448-1-1 0.448-1 1-1 1 0.448 1 1z" />
</svg>