<svg id="speedometer_kpi_Layer_1" viewBox="0 0 24 24" fill="currentColor" width="32" height="32" data-name="Layer 1" xmlns="http://www.w3.org/2000/svg" xmlns:xlink="http://www.w3.org/1999/xlink">
    <title>speedometer-kpi</title>
    <path d="M17.855 6.148c-0.194-0.195-0.51-0.198-0.707-4e-3l-4.17 4.122C12.688 10.101 12.357 10 12 10c-1.103 0-2 0.897-2 2s0.897 2 2 2 2-0.897 2-2c0-0.383-0.113-0.737-0.3-1.041l4.152-4.104c0.196-0.194 0.198-0.511 3e-3-0.707zM12 13c-0.552 0-1-0.449-1-1s0.448-1 1-1 1 0.449 1 1-0.448 1-1 1zM24 12c0 2.436-0.726 4.781-2.1 6.783C21.803 18.924 21.647 19 21.488 19c-0.098 0-0.196-0.028-0.283-0.088-0.228-0.156-0.285-0.468-0.129-0.695C22.335 16.383 23 14.234 23 12 23 5.935 18.065 1 12 1S1 5.935 1 12c0 2.233 0.665 4.383 1.924 6.217 0.156 0.228 0.099 0.539-0.129 0.695-0.229 0.157-0.539 0.099-0.695-0.129C0.726 16.781 0 14.435 0 12 0 5.383 5.383 0 12 0s12 5.383 12 12zM19.334 8.8c0.37 0.847 0.588 1.745 0.648 2.667 0.018 0.276-0.191 0.514-0.467 0.532-0.011 0-0.021 0-0.033 0-0.261 0-0.48-0.203-0.498-0.467-0.053-0.807-0.243-1.592-0.566-2.333-0.11-0.253 5e-3-0.548 0.258-0.658 0.253-0.109 0.548 4e-3 0.658 0.259zM5.016 11.533C4.998 11.798 4.779 12 4.518 12c-0.012 0-0.022 0-0.034 0-0.275-0.018-0.483-0.256-0.466-0.532C4.293 7.28 7.799 4.001 12 4.001c1.112 0 2.188 0.224 3.2 0.666 0.253 0.11 0.368 0.405 0.258 0.658-0.11 0.254-0.405 0.37-0.658 0.258-0.885-0.386-1.826-0.582-2.8-0.582-3.676 0-6.744 2.87-6.984 6.532zM19 16.5v7c0 0.276-0.224 0.5-0.5 0.5S18 23.776 18 23.5v-7c0-0.276 0.224-0.5 0.5-0.5s0.5 0.224 0.5 0.5zM14 16h-1c-0.827 0-1.5 0.673-1.5 1.5v6c0 0.276 0.224 0.5 0.5 0.5s0.5-0.224 0.5-0.5V21H14c1.379 0 2.5-1.121 2.5-2.5S15.379 16 14 16zM14 20h-1.5v-2.5c0-0.275 0.225-0.5 0.5-0.5h1c0.827 0 1.5 0.673 1.5 1.5S14.827 20 14 20zM10.216 23.299c0.11 0.253-4e-3 0.548-0.257 0.659C9.894 23.986 9.825 24 9.758 24 9.566 24 9.383 23.889 9.3 23.701L7.893 20.5H6v3C6 23.776 5.776 24 5.5 24S5 23.776 5 23.5v-7C5 16.224 5.224 16 5.5 16S6 16.224 6 16.5v3h1.64c4e-3-8e-3 1.675-3.23 1.675-3.23 0.128-0.246 0.433-0.338 0.674-0.213 0.245 0.127 0.341 0.43 0.213 0.674l-1.558 2.992z" />
</svg>