<svg id="sperm_Layer_1" viewBox="0 0 24 24" fill="currentColor" width="32" height="32" data-name="Layer 1" xmlns="http://www.w3.org/2000/svg" xmlns:xlink="http://www.w3.org/1999/xlink">
    <title>sperm</title>
    <path d="M23.637 23.019c-1.055-0.299-1.66-0.935-1.679-0.954-0.653-0.653-1.101-1.531-1.259-2.472-0.239-1.414-1.307-2.481-2.721-2.721-0.945-0.159-1.826-0.607-2.481-1.263s-1.104-1.536-1.263-2.481c-0.223-1.315-1.223-2.329-2.677-2.711-1.178-0.311-1.641-0.79-2.228-1.397L8.758 8.445c1.732-1.876 1.639-4.294-0.291-6.223-2.172-2.176-6.193-2.927-7.683-1.437s-0.737 5.51 1.437 7.683c1.02 1.02 2.177 1.531 3.318 1.531 0.858 0 1.705-0.301 2.48-0.881l0.592 0.596c0.64 0.663 1.244 1.288 2.692 1.669 1.079 0.284 1.788 0.981 1.945 1.911 0.194 1.148 0.741 2.222 1.542 3.022s1.874 1.348 3.022 1.542c0.987 0.167 1.733 0.913 1.9 1.9 0.193 1.145 0.739 2.214 1.523 2.998 0.032 0.034 0.789 0.845 2.127 1.225 0.259 0.074 0.543-0.077 0.618-0.345 0.075-0.266-0.079-0.542-0.343-0.617zM2.928 7.761C1.067 5.901 0.493 2.49 1.491 1.492 1.818 1.165 2.403 1.007 3.107 1.007c1.448 0 3.402 0.669 4.654 1.921 1.605 1.605 1.66 3.467 0.147 4.98C7.209 8.607 6.401 8.985 5.573 9 4.645 9.031 3.754 8.588 2.928 7.761zM12.76 6.776c0.816 0.817 1.744 1.227 2.659 1.227 0.778 0 1.543-0.313 2.227-0.906 0.184 0.131 0.398 0.294 0.482 0.377 0.405 0.404 0.682 0.95 0.78 1.536 0.17 1 0.926 1.757 1.927 1.926 0.586 0.099 1.131 0.376 1.553 0.796 0.226 0.206 0.567 0.612 0.623 0.872 0.057 0.272 0.331 0.443 0.594 0.384 0.271-0.058 0.442-0.323 0.385-0.593-0.146-0.677-0.849-1.331-0.911-1.386-0.551-0.55-1.288-0.926-2.077-1.06-0.575-0.097-1.01-0.532-1.106-1.106-0.133-0.789-0.509-1.527-1.06-2.077-0.116-0.116-0.314-0.27-0.5-0.406 1.042-1.441 0.856-3.186-0.559-4.601-1.584-1.582-4.842-2.408-6.134-1.116-0.6 0.6-0.792 1.682-0.528 2.97 0.25 1.215 0.849 2.368 1.645 3.163zM12.35 1.35c0.239-0.239 0.666-0.354 1.183-0.354 1.092 0 2.581 0.516 3.537 1.472 1.198 1.199 1.241 2.588 0.114 3.716-1.128 1.127-2.517 1.084-3.717-0.114-0.651-0.651-1.165-1.645-1.372-2.658-0.19-0.924-0.092-1.714 0.255-2.062zM12.605 23.011c-0.26-0.056-0.667-0.397-0.888-0.64-0.404-0.405-0.682-0.95-0.78-1.536-0.169-1.001-0.926-1.757-1.927-1.927-0.586-0.099-1.131-0.375-1.536-0.78-0.083-0.083-0.247-0.298-0.378-0.482 1.291-1.491 1.191-3.375-0.32-4.886-0.796-0.796-1.949-1.396-3.164-1.645-1.289-0.265-2.37-0.072-2.97 0.528-1.292 1.292-0.466 4.551 1.117 6.134 0.817 0.816 1.744 1.227 2.66 1.227 0.67 0 1.333-0.225 1.942-0.666 0.135 0.185 0.289 0.383 0.405 0.498 0.55 0.551 1.288 0.927 2.076 1.06 0.575 0.097 1.01 0.531 1.107 1.106 0.133 0.789 0.509 1.526 1.042 2.06 0.073 0.08 0.727 0.783 1.403 0.929 0.264 0.057 0.537-0.112 0.593-0.385 0.058-0.27-0.114-0.536-0.382-0.595zM2.467 17.069c-1.409-1.409-1.861-3.976-1.117-4.72 0.347-0.348 1.137-0.445 2.062-0.255 1.013 0.208 2.006 0.721 2.658 1.372 1.199 1.199 1.242 2.589 0.114 3.717-1.129 1.128-2.518 1.083-3.717-0.114z" />
</svg>