<svg id="sphere_Layer_1" viewBox="0 0 24 24" fill="currentColor" width="32" height="32" data-name="Layer 1" xmlns="http://www.w3.org/2000/svg" xmlns:xlink="http://www.w3.org/1999/xlink">
    <title>sphere</title>
    <path d="M12 0C5.383 0 0 5.383 0 12s5.383 12 12 12 12-5.383 12-12S18.617 0 12 0zM12 1c5.303 0 9.741 3.772 10.773 8.774C20.839 8.118 16.795 7 12 7S3.161 8.119 1.227 9.774C2.259 4.772 6.697 1 12 1zM23 12c0 1.892-4.518 4-11 4S1 13.892 1 12 5.518 8 12 8s11 2.108 11 4zM12 23c-5.303 0-9.741-3.772-10.773-8.774C3.161 15.882 7.205 17 12 17s8.839-1.119 10.773-2.774C21.741 19.228 17.303 23 12 23z" />
</svg>