<svg id="spider_Layer_1" viewBox="0 0 24 24" fill="currentColor" width="32" height="32" data-name="Layer 1" xmlns="http://www.w3.org/2000/svg" xmlns:xlink="http://www.w3.org/1999/xlink">
    <title>spider</title>
    <path d="M17.421 10.918c-0.12-0.182-0.25-0.357-0.387-0.525l6.276 2.57C23.372 12.988 23.436 13 23.499 13c0.196 0 0.384-0.117 0.463-0.311 0.104-0.255-0.018-0.547-0.273-0.652l-8.205-3.36 3.82-1.671C20.942 6.29 22 4.672 22 2.883V0.5C22 0.224 21.776 0 21.5 0S21 0.224 21 0.5v2.384c0 1.391-0.823 2.649-2.097 3.207l-4.908 2.147c0.616-0.55 1.004-1.349 1.004-2.237 0-1.654-1.346-3-3-3s-3 1.346-3 3c0 0.889 0.389 1.688 1.004 2.237L5.095 6.091C3.822 5.534 2.998 4.275 2.998 2.884V0.5c0-0.276-0.224-0.5-0.5-0.5s-0.5 0.224-0.5 0.5v2.384c0 1.788 1.058 3.406 2.696 4.123l3.82 1.671-8.203 3.359c-0.255 0.105-0.378 0.397-0.273 0.652C0.118 12.882 0.304 13 0.501 13c0.063 0 0.127-0.012 0.189-0.037l6.276-2.57c-0.137 0.167-0.265 0.342-0.385 0.522l-5.126 6.309C0.517 18.378 0 19.834 0 21.323v2.178c0 0.276 0.224 0.5 0.5 0.5s0.5-0.224 0.5-0.5v-2.178c0-1.26 0.437-2.491 1.231-3.468l3.308-4.072c-0.026 0.236-0.04 0.475-0.04 0.717 0 3.584 2.916 6.5 6.5 6.5s6.5-2.916 6.5-6.5c0-0.243-0.014-0.482-0.04-0.718l3.308 4.072c0.794 0.978 1.231 2.209 1.231 3.468V23.5c0 0.276 0.224 0.5 0.5 0.5s0.5-0.224 0.5-0.5v-2.178c0-1.488-0.517-2.943-1.456-4.099zM12 4c1.103 0 2 0.897 2 2s-0.897 2-2 2-2-0.897-2-2 0.897-2 2-2zM17.5 14.5c0 3.032-2.468 5.5-5.5 5.5s-5.5-2.468-5.5-5.5C6.5 10.821 9.872 9 12 9c2.231 0 5.5 1.918 5.5 5.5z" />
</svg>