<svg id="spider_black_widow_Layer_1" viewBox="0 0 24 24" fill="currentColor" width="32" height="32" data-name="Layer 1" xmlns="http://www.w3.org/2000/svg" xmlns:xlink="http://www.w3.org/1999/xlink">
    <title>spider-black-widow</title>
    <path d="M17.421 10.918c-0.12-0.182-0.25-0.357-0.387-0.525l6.276 2.57C23.372 12.988 23.436 13 23.499 13c0.196 0 0.384-0.117 0.463-0.311 0.104-0.255-0.018-0.547-0.273-0.652l-8.205-3.36 3.82-1.671C20.942 6.29 22 4.672 22 2.883V0.5C22 0.224 21.776 0 21.5 0S21 0.224 21 0.5v2.384c0 1.391-0.823 2.649-2.097 3.207l-4.908 2.147c0.616-0.55 1.004-1.349 1.004-2.237 0-1.654-1.346-3-3-3s-3 1.346-3 3c0 0.889 0.389 1.688 1.004 2.237L5.095 6.091C3.822 5.534 2.998 4.275 2.998 2.884V0.5c0-0.276-0.224-0.5-0.5-0.5s-0.5 0.224-0.5 0.5v2.384c0 1.788 1.059 3.406 2.696 4.123l3.82 1.671-8.203 3.359c-0.256 0.105-0.378 0.397-0.273 0.652C0.117 12.882 0.305 13 0.501 13c0.063 0 0.128-0.012 0.189-0.037l6.276-2.57c-0.138 0.168-0.267 0.344-0.387 0.525l-5.123 6.305C0.517 18.378 0 19.833 0 21.322V23.5C0 23.776 0.224 24 0.5 24S1 23.776 1 23.5v-2.178c0-1.259 0.437-2.49 1.231-3.468l3.308-4.072c-0.026 0.236-0.04 0.475-0.04 0.718 0 3.584 2.916 6.5 6.5 6.5s6.5-2.916 6.5-6.5c0-0.243-0.014-0.482-0.04-0.718l3.308 4.072c0.794 0.978 1.231 2.209 1.231 3.468V23.5c0 0.276 0.224 0.5 0.5 0.5s0.5-0.224 0.5-0.5v-2.178c0-1.488-0.517-2.943-1.456-4.099zM12 4c1.103 0 2 0.897 2 2s-0.897 2-2 2-2-0.897-2-2 0.897-2 2-2zM17.5 14.5c0 3.032-2.468 5.5-5.5 5.5s-5.5-2.468-5.5-5.5C6.5 11.205 9.59 9 12 9c2.462 0 5.5 2.077 5.5 5.5zM13.969 12.833 12.536 14.5l1.433 1.666C14.238 16.502 13.999 17 13.568 17h-3.139c-0.43 0-0.669-0.498-0.401-0.834l1.433-1.666-1.433-1.667C9.759 12.497 9.998 12 10.429 12h3.139c0.43 0 0.669 0.498 0.401 0.833z" />
</svg>