<svg id="spine_Layer_1" viewBox="0 0 24 24" fill="currentColor" width="32" height="32" data-name="Layer 1" xmlns="http://www.w3.org/2000/svg" xmlns:xlink="http://www.w3.org/1999/xlink">
    <title>spine</title>
    <path d="M18 13.5h1.5c0.827 0 1.5-0.673 1.5-1.5s-0.673-1.5-1.5-1.5H18V6h1.5C20.327 6 21 5.327 21 4.5S20.327 3 19.5 3h-1.776c-0.621-1.742-2.271-3-4.224-3h-3C8.547 0 6.898 1.258 6.276 3H4.5C3.673 3 3 3.673 3 4.5S3.673 6 4.5 6H6v4.5H4.5C3.673 10.5 3 11.173 3 12s0.673 1.5 1.5 1.5H6V18H4.5C3.673 18 3 18.673 3 19.5S3.673 21 4.5 21h1.776c0.621 1.742 2.271 3 4.224 3h3c1.953 0 3.602-1.258 4.224-3H19.5c0.827 0 1.5-0.673 1.5-1.5S20.327 18 19.5 18H18zM7 9h10v6H7zM19.5 11.5c0.276 0 0.5 0.225 0.5 0.5s-0.224 0.5-0.5 0.5H18v-1zM19.5 4C19.776 4 20 4.225 20 4.5S19.776 5 19.5 5H18V4.5c0-0.171-0.032-0.334-0.051-0.5zM10.5 1h3C15.43 1 17 2.57 17 4.5V8H7V4.5C7 2.57 8.57 1 10.5 1zM4.5 5C4.224 5 4 4.775 4 4.5S4.224 4 4.5 4h1.551C6.032 4.166 6 4.329 6 4.5V5zM4.5 12.5C4.224 12.5 4 12.275 4 12s0.224-0.5 0.5-0.5H6v1zM4.5 20C4.224 20 4 19.775 4 19.5S4.224 19 4.5 19H6v0.5c0 0.171 0.032 0.334 0.051 0.5zM13.5 23h-3C8.57 23 7 21.43 7 19.5V16h10v3.5c0 1.93-1.57 3.5-3.5 3.5zM19.5 19c0.276 0 0.5 0.225 0.5 0.5S19.776 20 19.5 20h-1.551C17.968 19.834 18 19.671 18 19.5V19z" />
</svg>