<svg id="splash_Layer_1" viewBox="0 0 24 24" fill="currentColor" width="32" height="32" data-name="Layer 1" xmlns="http://www.w3.org/2000/svg" xmlns:xlink="http://www.w3.org/1999/xlink">
    <title>splash</title>
    <path d="M17.85 24c-0.107 0-0.215-4e-3-0.324-0.014-1.051-0.087-2.025-0.592-2.742-1.423-0.544-0.583-0.826-1.322-1.079-2.247-0.218-0.8-0.958-2.311-2.197-2.311-1.529 0-2.381 1.706-2.826 3.138-0.335 1.375-1.395 2.413-2.827 2.748-1.433 0.335-2.895-0.136-3.813-1.228-0.823-0.914-1.121-2.233-0.786-3.518 0.323-1.233 1.199-2.202 2.345-2.589 0.989-0.335 1.951-0.75 2.293-1.516 0.311-0.694 0.038-1.753-0.583-2.266-0.458-0.379-1.099-0.473-1.778-0.572-0.247-0.036-0.491-0.072-0.726-0.121-0.926-0.192-1.724-0.747-2.246-1.562C0.05 9.717-0.12 8.762 0.084 7.831 0.502 5.909 2.43 4.69 4.387 5.119 5.185 5.293 5.799 5.885 6.243 6.381c0.176 0.195 0.333 0.422 0.49 0.65 0.257 0.374 0.555 0.872 1.046 0.948C9.336 8.22 9.03 5.926 8.913 5.07 8.851 4.623 8.794 4.2 8.794 3.803c0-1.182 0.405-2.175 1.171-2.872 0.751-0.682 1.804-1.014 2.889-0.913 1.096 0.053 2.101 0.643 2.736 1.616 0.689 1.057 0.834 2.385 0.386 3.551-0.239 0.621-0.509 1.323-0.443 1.96 0.052 0.504 0.486 0.867 0.986 0.831 0.667-0.05 1.164-0.598 1.655-0.991 0.536-0.429 1.158-0.771 1.839-0.901 0.959-0.183 2.002 0.1 2.797 0.756 1.15 0.95 1.446 2.551 0.976 3.929-0.384 1.127-1.322 1.829-2.461 2.095-0.489 0.114-0.994 0.155-1.517 0.155-0.837-0.042-1.512 0.325-1.729 0.917-0.186 0.51 0.039 1.074 0.602 1.51 0.24 0.186 1.77 1.441 2.169 1.943 0.673 0.748 1.023 1.814 0.942 2.902s-0.585 2.09-1.383 2.749C19.687 23.663 18.786 24 17.85 24zM11.509 17.006c1.84 0 2.853 1.915 3.162 3.047 0.213 0.783 0.441 1.396 0.858 1.844 0.557 0.646 1.292 1.028 2.08 1.094 0.784 0.07 1.547-0.189 2.156-0.715 0.597-0.493 0.97-1.241 1.031-2.059s-0.197-1.613-0.708-2.183c-0.303-0.38-1.638-1.505-2.018-1.798-0.912-0.704-1.268-1.718-0.93-2.644 0.368-1.007 1.425-1.634 2.699-1.574 2.192-3e-3 3.17-0.845 3.17-2.731 0-0.626-0.305-1.237-0.837-1.677-0.567-0.468-1.304-0.672-1.971-0.544-0.499 0.096-0.995 0.354-1.61 0.839l-0.238 0.192c-0.468 0.384-0.998 0.818-1.759 0.876-1.043 0.062-1.948-0.681-2.056-1.727-0.09-0.874 0.24-1.731 0.504-2.421 0.333-0.867 0.225-1.857-0.29-2.646-0.458-0.702-1.176-1.126-1.97-1.165-0.827-0.071-1.602 0.162-2.145 0.657-0.552 0.502-0.844 1.239-0.844 2.132 0 0.328 0.053 0.718 0.11 1.131 0.186 1.353 0.357 3.2-1.154 3.877-1.233 0.552-2.178-0.252-2.84-1.214-0.132-0.192-0.262-0.384-0.41-0.549-0.345-0.384-0.807-0.84-1.326-0.953C2.736 5.788 1.367 6.638 1.06 8.044 0.913 8.715 1.036 9.402 1.406 9.981c0.375 0.587 0.946 0.985 1.607 1.123 0.215 0.045 0.44 0.077 0.667 0.11 0.749 0.109 1.597 0.233 2.271 0.791 0.966 0.798 1.351 2.343 0.858 3.444-0.568 1.27-2.134 1.8-2.886 2.055-0.838 0.283-1.457 0.974-1.698 1.895-0.246 0.943-0.027 1.942 0.573 2.607 0.687 0.816 1.767 1.155 2.831 0.911 1.057-0.248 1.839-1.011 2.091-2.042 0.996-3.204 2.609-3.87 3.789-3.869z" />
</svg>