<svg id="split_screen_Layer_1" viewBox="0 0 24 24" fill="currentColor" width="32" height="32" data-name="Layer 1" xmlns="http://www.w3.org/2000/svg" xmlns:xlink="http://www.w3.org/1999/xlink">
    <title>split-screen</title>
    <path d="M12.5 3.5v1C12.5 4.776 12.276 5 12 5s-0.5-0.224-0.5-0.5v-1C11.5 3.224 11.724 3 12 3s0.5 0.224 0.5 0.5zM12 7c-0.276 0-0.5 0.224-0.5 0.5v1C11.5 8.776 11.724 9 12 9s0.5-0.224 0.5-0.5v-1C12.5 7.224 12.276 7 12 7zM12 11c-0.276 0-0.5 0.224-0.5 0.5v1c0 0.276 0.224 0.5 0.5 0.5s0.5-0.224 0.5-0.5v-1c0-0.276-0.224-0.5-0.5-0.5zM12 15c-0.276 0-0.5 0.224-0.5 0.5v1c0 0.276 0.224 0.5 0.5 0.5s0.5-0.224 0.5-0.5v-1c0-0.276-0.224-0.5-0.5-0.5zM6.487 6.036C6.176 5.929 5.842 6.022 5.635 6.28L4.109 8.188c-0.172 0.216-0.137 0.53 0.078 0.703 0.217 0.173 0.531 0.136 0.703-0.078l1.109-1.387v6.075c0 0.276 0.224 0.5 0.5 0.5s0.5-0.224 0.5-0.5V6.759c0-0.33-0.201-0.614-0.512-0.723zM20 13h-3.247c-0.151 0-0.212-0.101-0.235-0.161-0.019-0.05-0.05-0.179 0.072-0.288 0.304-0.271 0.744-0.531 1.209-0.807 1.288-0.764 2.891-1.714 2.68-3.615C20.344 6.915 19.278 6 18 6c-1.378 0-2.5 1.122-2.5 2.5 0 0.276 0.224 0.5 0.5 0.5s0.5-0.224 0.5-0.5C16.5 7.673 17.173 7 18 7c0.755 0 1.408 0.544 1.485 1.239 0.13 1.171-0.785 1.808-2.196 2.644-0.508 0.301-0.988 0.586-1.364 0.92-0.395 0.352-0.529 0.898-0.342 1.392 0.186 0.488 0.646 0.805 1.17 0.805H20c0.276 0 0.5-0.224 0.5-0.5S20.276 13 20 13zM24 5.5v9c0 2.481-2.019 4.5-4.5 4.5h-7v3h5c0.276 0 0.5 0.224 0.5 0.5S17.776 23 17.5 23h-11C6.224 23 6 22.776 6 22.5S6.224 22 6.5 22h5v-3h-7C2.019 19 0 16.981 0 14.5v-9C0 3.019 2.019 1 4.5 1h15C21.981 1 24 3.019 24 5.5zM23 5.5C23 3.57 21.43 2 19.5 2h-15C2.57 2 1 3.57 1 5.5v9C1 16.43 2.57 18 4.5 18h15c1.93 0 3.5-1.57 3.5-3.5z" />
</svg>