<svg id="splotch_Layer_1" viewBox="0 0 24 24" fill="currentColor" width="32" height="32" data-name="Layer 1" xmlns="http://www.w3.org/2000/svg" xmlns:xlink="http://www.w3.org/1999/xlink">
    <title>splotch</title>
    <path d="M20.987 9.089c-0.589-0.441-1.145-0.857-1.494-1.251-0.449-0.507-0.505-2.089-0.554-3.485-0.072-2.084-0.136-3.884-1.284-4.266-1.062-0.356-2.229 0.389-3.576 1.25-1.121 0.717-2.391 1.529-3.634 1.666C9.326 3.128 7.98 2.617 6.686 2.125 4.942 1.461 3.137 0.775 1.842 1.748 0.267 2.929 1.141 4.889 1.986 6.785c0.571 1.28 1.161 2.604 1.019 3.648-0.171 1.252-0.876 2.106-1.557 2.933C0.736 14.229 0 15.122 0 16.384c0 2.101 1.996 2.251 3.927 2.396 1.254 0.094 2.676 0.201 3.802 0.785 1.235 0.64 1.899 1.503 2.542 2.339 0.829 1.079 1.612 2.097 3.372 2.097 1.465 0 2.054-2.058 2.624-4.047 0.314-1.101 0.641-2.238 1.039-2.695 0.39-0.446 1.538-0.833 2.648-1.207C21.943 15.383 24 14.691 24 13.097c0-1.751-1.601-2.95-3.013-4.008zM19.635 15.104c-1.294 0.435-2.517 0.847-3.084 1.497-0.544 0.624-0.886 1.815-1.247 3.077C14.903 21.08 14.353 23 13.642 23c-1.268 0-1.817-0.716-2.58-1.707-0.676-0.879-1.441-1.875-2.873-2.617-1.309-0.678-2.839-0.793-4.188-0.895C1.868 17.62 1 17.448 1 16.382c0-0.902 0.565-1.588 1.22-2.381 0.734-0.891 1.566-1.899 1.775-3.433C4.177 9.241 3.527 7.785 2.9 6.377 2.032 4.431 1.569 3.202 2.442 2.547 3.296 1.906 4.771 2.466 6.331 3.059 7.735 3.594 9.19 4.15 10.555 3.997c1.475-0.162 2.85-1.041 4.063-1.817 1.085-0.693 2.112-1.35 2.721-1.145 0.49 0.163 0.557 2.082 0.602 3.352 0.06 1.716 0.116 3.337 0.805 4.113 0.417 0.47 1.012 0.917 1.643 1.389 1.225 0.917 2.612 1.957 2.612 3.208 0 0.875-1.865 1.502-3.366 2.007z" />
</svg>