<svg id="spoon_Layer_1" viewBox="0 0 24 24" fill="currentColor" width="32" height="32" data-name="Layer 1" xmlns="http://www.w3.org/2000/svg" xmlns:xlink="http://www.w3.org/1999/xlink">
    <title>spoon</title>
    <path d="M23.065 0.935c-1.045-1.045-2.941-1.22-5.341-0.493-1.954 0.592-3.937 1.694-5.052 2.81-1.079 1.079-1.673 2.513-1.673 4.038 0 1.358 0.471 2.642 1.335 3.669L0.146 23.146c-0.195 0.195-0.195 0.512 0 0.707 0.098 0.098 0.226 0.146 0.354 0.146s0.256-0.049 0.354-0.146l12.188-12.188C14.069 12.529 15.354 13 16.711 13c1.525 0 2.959-0.594 4.038-1.673 1.115-1.115 2.218-3.098 2.81-5.052 0.727-2.399 0.552-4.296-0.494-5.34zM22.601 5.987c-0.539 1.779-1.567 3.642-2.56 4.634-0.89 0.89-2.073 1.38-3.331 1.38s-2.441-0.49-3.331-1.38-1.38-2.073-1.38-3.331 0.49-2.441 1.38-3.331c0.992-0.992 2.854-2.021 4.634-2.56 0.88-0.267 1.678-0.398 2.361-0.398 0.872 0 1.558 0.216 1.983 0.642 0.76 0.761 0.849 2.344 0.244 4.344z" />
</svg>