<svg id="spray_can_sparkles_Layer_1" viewBox="0 0 24 24" fill="currentColor" width="32" height="32" data-name="Layer 1" xmlns="http://www.w3.org/2000/svg" xmlns:xlink="http://www.w3.org/1999/xlink">
    <title>spray-can-sparkles</title>
    <path d="M11 7.051V3c0-1.654-1.346-3-3-3H7C5.346 0 4 1.346 4 3v4.051C1.756 7.303 0 9.19 0 11.5v8C0 21.981 2.019 24 4.5 24h6c2.481 0 4.5-2.019 4.5-4.5v-8c0-2.31-1.756-4.197-4-4.449zM5 3c0-1.103 0.897-2 2-2h1c1.103 0 2 0.897 2 2v4H5zM14 19.5c0 1.93-1.57 3.5-3.5 3.5h-6C2.57 23 1 21.43 1 19.5v-8C1 9.57 2.57 8 4.5 8h6c1.93 0 3.5 1.57 3.5 3.5zM7.5 11C5.019 11 3 13.019 3 15.5S5.019 20 7.5 20 12 17.981 12 15.5 9.981 11 7.5 11zM7.5 19C5.57 19 4 17.43 4 15.5S5.57 12 7.5 12 11 13.57 11 15.5 9.43 19 7.5 19zM18.684 2.867 17.26 3.223 16.904 4.647c-0.046 0.186-0.213 0.316-0.404 0.316s-0.358-0.13-0.404-0.316l-0.357-1.429-1.43-0.385c-0.185-0.05-0.312-0.218-0.308-0.409s0.137-0.356 0.323-0.399l1.418-0.328 0.354-1.418c0.093-0.371 0.716-0.371 0.809 0l0.356 1.424 1.424 0.356c0.186 0.046 0.316 0.213 0.316 0.404s-0.13 0.358-0.317 0.404zM24 5.463c0 0.191-0.13 0.358-0.316 0.404L22.26 6.223 21.904 7.647c-0.046 0.186-0.213 0.316-0.404 0.316s-0.358-0.13-0.404-0.316l-0.357-1.429-1.43-0.385c-0.185-0.05-0.312-0.218-0.308-0.409s0.137-0.356 0.323-0.399l1.418-0.328 0.354-1.418c0.093-0.371 0.716-0.371 0.809 0l0.356 1.424 1.424 0.356C23.871 5.105 24.001 5.272 24 5.463zM23 11.5c0 0.191-0.13 0.358-0.316 0.404L21.26 12.26l-0.356 1.424C20.858 13.87 20.691 14 20.5 14s-0.358-0.13-0.404-0.316l-0.357-1.429-1.43-0.385c-0.185-0.05-0.312-0.218-0.308-0.409 3e-3-0.191 0.137-0.356 0.323-0.399l1.418-0.328 0.354-1.418c0.093-0.371 0.716-0.371 0.809 0l0.356 1.424 1.424 0.356c0.186 0.046 0.316 0.213 0.315 0.404z" />
</svg>