<svg id="spray_can_Layer_1" viewBox="0 0 24 24" fill="currentColor" width="32" height="32" data-name="Layer 1" xmlns="http://www.w3.org/2000/svg" xmlns:xlink="http://www.w3.org/1999/xlink">
    <title>spray-can</title>
    <path d="M17 5c0 0.552-0.448 1-1 1s-1-0.448-1-1 0.448-1 1-1 1 0.448 1 1zM22 4c-0.552 0-1 0.448-1 1s0.448 1 1 1 1-0.448 1-1-0.448-1-1-1zM22 2c0.552 0 1-0.448 1-1s-0.448-1-1-1-1 0.448-1 1 0.448 1 1 1zM22 8c-0.552 0-1 0.448-1 1s0.448 1 1 1 1-0.448 1-1-0.448-1-1-1zM19 2c-0.552 0-1 0.448-1 1s0.448 1 1 1 1-0.448 1-1-0.448-1-1-1zM19 6c-0.552 0-1 0.448-1 1s0.448 1 1 1 1-0.448 1-1-0.448-1-1-1zM16 11.5v8c0 2.481-2.019 4.5-4.5 4.5h-6C3.019 24 1 21.981 1 19.5v-8c0-2.312 1.753-4.223 4-4.472V3c0-1.654 1.346-3 3-3h1c1.654 0 3 1.346 3 3v4.028c2.247 0.25 4 2.16 4 4.472zM6 7h5V3c0-1.103-0.897-2-2-2H8C6.897 1 6 1.897 6 3zM15 11.5C15 9.57 13.43 8 11.5 8h-6C3.57 8 2 9.57 2 11.5v8C2 21.43 3.57 23 5.5 23h6c1.93 0 3.5-1.57 3.5-3.5zM13 15.5c0 2.481-2.019 4.5-4.5 4.5S4 17.981 4 15.5 6.019 11 8.5 11 13 13.019 13 15.5zM12 15.5c0-1.93-1.57-3.5-3.5-3.5S5 13.57 5 15.5 6.57 19 8.5 19 12 17.43 12 15.5z" />
</svg>