<svg id="spy_Layer_1" viewBox="0 0 24 24" fill="currentColor" width="32" height="32" data-name="Layer 1" xmlns="http://www.w3.org/2000/svg" xmlns:xlink="http://www.w3.org/1999/xlink">
    <title>spy</title>
    <path d="M18.088 14.89l1.613-2.102c0.255-0.359 0.353-0.813 0.27-1.245-0.084-0.431-0.333-0.8-0.702-1.037-0.467-0.301-0.982-0.563-1.519-0.799 0.161-0.542 0.251-1.114 0.251-1.707V7h1.5c0.276 0 0.5-0.224 0.5-0.5S19.777 6 19.501 6h-1.5c0-1.385-1.536-6-3.25-6-0.72 0-1.483 0.352-2.334 1.074-0.24 0.205-0.591 0.204-0.831 0C10.734 0.35 9.971-1e-3 9.251-1e-3c-1.714 0-3.25 4.615-3.25 6h-1.5c-0.276 0-0.5 0.224-0.5 0.5s0.224 0.5 0.5 0.5h1.5v1c0 0.605 0.092 1.189 0.259 1.74-0.546 0.239-1.061 0.511-1.528 0.812-0.37 0.238-0.619 0.607-0.702 1.041-0.084 0.434 0.017 0.889 0.285 1.265l1.581 2.049c-1.839 1.702-2.895 4.077-2.895 6.594v2c0 0.276 0.224 0.5 0.5 0.5s0.5-0.224 0.5-0.5v-2c0-2.208 0.914-4.291 2.508-5.8l4.992 6.47v1.33c0 0.276 0.224 0.5 0.5 0.5s0.5-0.224 0.5-0.5v-1.33l4.977-6.485c1.602 1.509 2.523 3.601 2.523 5.815v2c0 0.276 0.224 0.5 0.5 0.5s0.5-0.224 0.5-0.5v-2c0-2.524-1.063-4.908-2.913-6.61zM9.25 1c0.466 0 1.033 0.281 1.687 0.838 0.614 0.521 1.508 0.521 2.126 0 0.653-0.556 1.221-0.837 1.687-0.837 0.61 3e-3 2.25 3.376 2.25 5H7C7 4.377 8.64 1.004 9.25 1zM17 7v1c0 2.757-2.243 5-5 5s-5-2.243-5-5V7zM12 16.653l-1.104-2.76c0.358 0.067 0.727 0.106 1.104 0.106s0.746-0.039 1.104-0.106zM5.117 12.26c-0.101-0.141-0.139-0.311-0.106-0.479 0.031-0.162 0.124-0.3 0.262-0.389 0.416-0.267 0.875-0.509 1.362-0.724 0.645 1.291 1.736 2.32 3.076 2.875 4e-3 0.047 1.79 4.551 1.79 4.551v2.438zM12.5 18.094c0 0 1.786-4.504 1.79-4.551 1.351-0.56 2.449-1.601 3.092-2.907 0.476 0.211 0.932 0.443 1.345 0.709 0.138 0.089 0.23 0.227 0.262 0.388 0.033 0.168-4e-3 0.337-0.092 0.462l-6.396 8.332z" />
</svg>