<svg id="spyware_Layer_1" viewBox="0 0 24 24" fill="currentColor" width="32" height="32" data-name="Layer 1" xmlns="http://www.w3.org/2000/svg" xmlns:xlink="http://www.w3.org/1999/xlink">
    <title>spyware</title>
    <path d="M20.5 18h-1.528c0.083-2.837-1.49-8.296-3.905-8-1.212 0.023-1.975 0.689-2.503 1.267-0.15 0.163-0.351 0.253-0.564 0.253s-0.415-0.09-0.563-0.252c-0.529-0.577-1.291-1.244-2.514-1.268-2.402-0.296-3.98 5.167-3.895 8H3.5C3.224 18 3 18.224 3 18.5S3.224 19 3.5 19h17c0.276 0 0.5-0.224 0.5-0.5S20.776 18 20.5 18zM8.913 11c0.667 0.013 1.185 0.286 1.786 0.943 0.336 0.366 0.811 0.576 1.301 0.576s0.965-0.21 1.301-0.577c0.603-0.656 1.119-0.93 1.776-0.942 1.358 5e-3 2.178 2.523 2.526 4H6.396c0.581-2.491 1.539-4.029 2.517-4zM6.209 16h11.582c0.104 0.643 0.182 1.305 0.202 2H6.007c0.021-0.695 0.098-1.356 0.202-2zM19.5 1h-15C2.019 1 0 3.019 0 5.5v13C0 20.981 2.019 23 4.5 23h15c2.481 0 4.5-2.019 4.5-4.5v-13C24 3.019 21.981 1 19.5 1zM4.5 2h15C21.43 2 23 3.57 23 5.5V6H1V5.5C1 3.57 2.57 2 4.5 2zM19.5 22h-15C2.57 22 1 20.43 1 18.5V7h22v11.5c0 1.93-1.57 3.5-3.5 3.5zM3 4c0-0.552 0.448-1 1-1s1 0.448 1 1-0.448 1-1 1-1-0.448-1-1zM6 4c0-0.552 0.448-1 1-1s1 0.448 1 1-0.448 1-1 1-1-0.448-1-1zM9 4c0-0.552 0.448-1 1-1s1 0.448 1 1-0.448 1-1 1-1-0.448-1-1z" />
</svg>