<svg id="sql_server_Layer_1" viewBox="0 0 24 24" fill="currentColor" width="32" height="32" data-name="Layer 1" xmlns="http://www.w3.org/2000/svg" xmlns:xlink="http://www.w3.org/1999/xlink">
    <title>sql-server</title>
    <path d="M24 23.5c0 0.276-0.224 0.5-0.5 0.5H21c-0.551 0-1-0.449-1-1v-6.5c0-0.276 0.224-0.5 0.5-0.5s0.5 0.224 0.5 0.5V23h2.5c0.276 0 0.5 0.224 0.5 0.5zM11.374 19.529c-0.31-0.117-1.189-0.466-1.523-0.67-0.325-0.231-0.477-0.568-0.428-0.948 0.053-0.399 0.316-0.723 0.687-0.845 0.561-0.184 1.121-9e-3 1.768 0.553 0.208 0.181 0.523 0.158 0.706-0.05 0.181-0.208 0.158-0.524-0.05-0.706-0.915-0.792-1.835-1.045-2.736-0.747-0.739 0.244-1.262 0.881-1.366 1.666-0.096 0.743 0.218 1.45 0.88 1.917 0.492 0.305 1.587 0.721 1.699 0.763 1.052 0.425 1.013 1.204 0.976 1.431-0.104 0.641-0.669 1.105-1.342 1.105-0.525 0-1.348-0.368-1.761-0.787-0.194-0.197-0.51-0.199-0.707-5e-3s-0.199 0.51-5e-3 0.707c0.526 0.533 1.595 1.085 2.473 1.085 1.166 0 2.146-0.818 2.33-1.945 0.131-0.812-0.206-1.959-1.601-2.524zM19 18.492v3c0 0.51-0.155 0.984-0.419 1.38l0.273 0.274c0.464 0.453-0.258 1.172-0.709 0.705l-0.273-0.274c-0.395 0.26-0.865 0.414-1.373 0.414-1.378 0-2.5-1.122-2.5-2.5v-3c0-1.378 1.122-2.5 2.5-2.5s2.5 1.122 2.501 2.501zM17.849 22.136C17.943 21.94 18 21.723 18 21.492v-3c0-0.827-0.673-1.5-1.5-1.5s-1.5 0.673-1.5 1.5v3c0 0.827 0.673 1.5 1.5 1.5 0.23 0 0.446-0.056 0.641-0.149l-0.496-0.498c-0.195-0.196-0.194-0.512 2e-3-0.707 0.194-0.196 0.512-0.193 0.707 2e-3zM5.99 23.308c-0.054 0.273-0.325 0.446-0.589 0.391C2.12 23.034 0 21.386 0 19.499V4.5C0 1.977 3.733 0 8.5 0S17 1.977 17 4.5V14c0 0.276-0.224 0.5-0.5 0.5S16 14.276 16 14v-2.351C14.581 13.06 11.787 14 8.5 14S2.419 13.06 1 11.649V14.5c0 1.369 1.848 2.662 4.599 3.219 0.64 0.12 0.431 1.119-0.198 0.98C3.453 18.305 1.929 17.558 1 16.626V19.5c0 1.369 1.848 2.662 4.599 3.219 0.271 0.055 0.446 0.319 0.391 0.589zM1 4.5C1 6.397 4.435 8 8.5 8S16 6.397 16 4.5 12.565 1 8.5 1 1 2.603 1 4.5zM1 6.649V9.5C1 11.397 4.435 13 8.5 13S16 11.397 16 9.5V6.649C14.581 8.06 11.787 9 8.5 9S2.419 8.06 1 6.649z" />
</svg>