<svg id="square_phone_hangup_Layer_1" viewBox="0 0 24 24" fill="currentColor" width="32" height="32" data-name="Layer 1" xmlns="http://www.w3.org/2000/svg" xmlns:xlink="http://www.w3.org/1999/xlink">
    <title>square-phone-hangup</title>
    <path d="M19.5 0h-15C2.019 0 0 2.019 0 4.5v15C0 21.981 2.019 24 4.5 24h15c2.481 0 4.5-2.019 4.5-4.5v-15C24 2.019 21.981 0 19.5 0zM23 19.5c0 1.93-1.57 3.5-3.5 3.5h-15C2.57 23 1 21.43 1 19.5v-15C1 2.57 2.57 1 4.5 1h15C21.43 1 23 2.57 23 4.5zM5.009 10.247c-0.651 0.651-1.01 1.503-1.008 2.42l0.056 1.159c0 0.921 0.746 1.67 1.729 1.67L7.4 15.281c0.923 0 1.674-0.751 1.671-1.621l0.127-1.203c1.925-0.756 3.762-0.758 5.603-6e-3l0.125 1.185c0.016 0.907 0.756 1.642 1.602 1.642h8e-3l1.735 0.223c0.923 0 1.673-0.751 1.672-1.65l0.058-1.205c0-0.895-0.357-1.746-1.009-2.397-3.006-3.006-10.977-3.006-13.983-2e-3zM18.944 13.826c0 0.371-0.302 0.674-0.608 0.678l-1.735-0.223c-0.371 0-0.674-0.303-0.674-0.674l-0.191-1.839c-1.127-0.504-2.536-0.873-3.696-0.873s-2.598 0.365-3.772 0.867l-0.191 1.845c0 0.371-0.303 0.674-0.738 0.678L5.733 14.5c-0.371 0-0.673-0.303-0.674-0.697l-0.056-1.16c0-0.626 0.254-1.226 0.716-1.688 2.773-2.772 10.181-2.388 12.568 0 0.462 0.463 0.717 1.062 0.717 1.666z" />
</svg>