<svg id="square_x_Layer_1" viewBox="0 0 24 24" fill="currentColor" width="32" height="32" data-name="Layer 1" xmlns="http://www.w3.org/2000/svg" xmlns:xlink="http://www.w3.org/1999/xlink">
    <title>square-x</title>
    <path d="M19.5 0h-15C2.019 0 0 2.019 0 4.5v15C0 21.981 2.019 24 4.5 24h15c2.481 0 4.5-2.019 4.5-4.5v-15C24 2.019 21.981 0 19.5 0zM23 19.5c0 1.93-1.57 3.5-3.5 3.5h-15C2.57 23 1 21.43 1 19.5v-15C1 2.57 2.57 1 4.5 1h15C21.43 1 23 2.57 23 4.5zM18.878 4.827 12.662 12l6.216 7.173c0.181 0.208 0.158 0.524-0.051 0.705C18.732 19.96 18.616 20 18.5 20c-0.14 0-0.279-0.059-0.378-0.173L12 12.763 5.878 19.827C5.779 19.941 5.64 20 5.5 20c-0.116 0-0.232-0.04-0.327-0.122-0.209-0.181-0.231-0.497-0.051-0.705L11.338 12 5.122 4.827C4.941 4.619 4.964 4.303 5.173 4.122c0.208-0.18 0.524-0.159 0.705 0.051L12 11.237l6.122-7.064c0.181-0.21 0.496-0.23 0.705-0.051 0.209 0.181 0.231 0.497 0.051 0.705z" />
</svg>