<svg id="square_quote_Layer_1" viewBox="0 0 24 24" fill="currentColor" width="32" height="32" data-name="Layer 1" xmlns="http://www.w3.org/2000/svg" xmlns:xlink="http://www.w3.org/1999/xlink">
    <title>square-quote</title>
    <path d="M9.5 8H8c-1.103 0-2 0.897-2 2v1.5C6 12.327 6.673 13 7.5 13H10v0.5c0 1.379-1.121 2.5-2.5 2.5C7.224 16 7 16.224 7 16.5S7.224 17 7.5 17c1.93 0 3.5-1.57 3.5-3.5v-4C11 8.673 10.327 8 9.5 8zM7 11.5V10c0-0.552 0.448-1 1-1h1.5C9.775 9 10 9.225 10 9.5V12H7.5C7.225 12 7 11.775 7 11.5zM16.5 8H15c-1.103 0-2 0.897-2 2v1.5c0 0.827 0.673 1.5 1.5 1.5H17v0.5c0 1.379-1.121 2.5-2.5 2.5-0.276 0-0.5 0.224-0.5 0.5s0.224 0.5 0.5 0.5c1.93 0 3.5-1.57 3.5-3.5v-4C18 8.673 17.327 8 16.5 8zM14 11.5V10c0-0.552 0.448-1 1-1h1.5C16.775 9 17 9.225 17 9.5V12h-2.5c-0.275 0-0.5-0.225-0.5-0.5zM19.5 0h-15C2.019 0 0 2.019 0 4.5v15C0 21.981 2.019 24 4.5 24h15c2.481 0 4.5-2.019 4.5-4.5v-15C24 2.019 21.981 0 19.5 0zM23 19.5c0 1.93-1.57 3.5-3.5 3.5h-15C2.57 23 1 21.43 1 19.5v-15C1 2.57 2.57 1 4.5 1h15C21.43 1 23 2.57 23 4.5z" />
</svg>