<svg id="square_0_Layer_1" viewBox="0 0 24 24" fill="currentColor" width="32" height="32" data-name="Layer 1" xmlns="http://www.w3.org/2000/svg" xmlns:xlink="http://www.w3.org/1999/xlink">
    <title>square-0</title>
    <path d="M19.5 24h-15C2.019 24 0 21.981 0 19.5v-15C0 2.019 2.019 0 4.5 0h15C21.981 0 24 2.019 24 4.5v15c0 2.481-2.019 4.5-4.5 4.5zM4.5 1C2.57 1 1 2.57 1 4.5v15C1 21.43 2.57 23 4.5 23h15c1.93 0 3.5-1.57 3.5-3.5v-15C23 2.57 21.43 1 19.5 1zM12 18c-2.206 0-4-1.794-4-4v-4c0-2.206 1.794-4 4-4s4 1.794 4 4v4c0 2.206-1.794 4-4 4zM12 7c-1.654 0-3 1.346-3 3v4c0 1.654 1.346 3 3 3s3-1.346 3-3v-4c0-1.654-1.346-3-3-3z" />
</svg>