<svg id="square_9_Layer_1" viewBox="0 0 24 24" fill="currentColor" width="32" height="32" data-name="Layer 1" xmlns="http://www.w3.org/2000/svg" xmlns:xlink="http://www.w3.org/1999/xlink">
    <title>square-9</title>
    <path d="M19.5 0h-15C2.019 0 0 2.019 0 4.5v15C0 21.981 2.019 24 4.5 24h15c2.481 0 4.5-2.019 4.5-4.5v-15C24 2.019 21.981 0 19.5 0zM23 19.5c0 1.93-1.57 3.5-3.5 3.5h-15C2.57 23 1 21.43 1 19.5v-15C1 2.57 2.57 1 4.5 1h15C21.43 1 23 2.57 23 4.5zM12 6c-2.206 0-4 1.794-4 4s1.794 4 4 4c1.185 0 2.25-0.518 2.983-1.338C14.799 15.657 13.086 17 9.5 17 9.224 17 9 17.224 9 17.5S9.224 18 9.5 18c4.374 0 6.5-1.93 6.5-5.9V10c0-2.206-1.794-4-4-4zM12 13c-1.654 0-3-1.346-3-3s1.346-3 3-3 3 1.346 3 3-1.346 3-3 3z" />
</svg>