<svg id="square_q_Layer_1" viewBox="0 0 24 24" fill="currentColor" width="32" height="32" data-name="Layer 1" xmlns="http://www.w3.org/2000/svg" xmlns:xlink="http://www.w3.org/1999/xlink">
    <title>square-q</title>
    <path d="M12 4c-3.859 0-7 3.14-7 7v2c0 3.859 3.141 7 7 7 1.75 0 3.353-0.646 4.581-1.712l1.565 1.565c0.098 0.098 0.226 0.146 0.354 0.146s0.256-0.049 0.354-0.146c0.195-0.195 0.195-0.512 0-0.707l-1.565-1.565c1.066-1.229 1.712-2.831 1.712-4.581v-2c0-3.86-3.141-7-7.001-7zM18 13c0 1.475-0.535 2.827-1.421 3.872l-2.726-2.726c-0.195-0.195-0.512-0.195-0.707 0s-0.195 0.512 0 0.707l2.726 2.726C14.826 18.465 13.474 19 12 19c-3.309 0-6-2.691-6-6v-2c0-3.309 2.691-6 6-6s6 2.691 6 6zM19.5 0h-15C2.019 0 0 2.019 0 4.5v15C0 21.981 2.019 24 4.5 24h15c2.481 0 4.5-2.019 4.5-4.5v-15C24 2.019 21.981 0 19.5 0zM23 19.5c0 1.93-1.57 3.5-3.5 3.5h-15C2.57 23 1 21.43 1 19.5v-15C1 2.57 2.57 1 4.5 1h15C21.43 1 23 2.57 23 4.5z" />
</svg>