<svg id="square_root_Layer_1" viewBox="0 0 24 24" fill="currentColor" width="32" height="32" data-name="Layer 1" xmlns="http://www.w3.org/2000/svg" xmlns:xlink="http://www.w3.org/1999/xlink">
    <title>square-root</title>
    <path d="M16.5 3c-1.55 0-2.934 1.041-3.363 2.53L8.802 20.924C8.635 21.553 8.05 21.979 7.391 22c-0.638 0-1.175-0.387-1.378-0.997l-2.808-9.308c-0.336-1.009-1.29-1.696-2.367-1.696H0.5c-0.276 0-0.5-0.224-0.5-0.5s0.224-0.5 0.5-0.5h0.338c1.509 0 2.843 0.962 3.32 2.393L6.966 20.7c0.096 0.287 0.38 0.3 0.444 0.299 0.08-2e-3 0.347-0.035 0.427-0.34l4.338-15.404c0.553-1.918 2.331-3.256 4.325-3.256h7c0.276 0 0.5 0.224 0.5 0.5s-0.224 0.5-0.5 0.5zM23.807 12.105c-0.218-0.17-0.532-0.13-0.702 0.087L20 16.185l-3.105-3.993c-0.169-0.217-0.482-0.258-0.702-0.087-0.218 0.169-0.257 0.483-0.087 0.702L19.367 17l-3.261 4.193c-0.17 0.218-0.13 0.532 0.087 0.702C16.284 21.966 16.393 22 16.5 22c0.149 0 0.296-0.066 0.395-0.193L20 17.814l3.105 3.993C23.204 21.933 23.351 22 23.5 22c0.107 0 0.215-0.034 0.307-0.105 0.218-0.169 0.257-0.483 0.087-0.702L20.633 17l3.261-4.193c0.17-0.218 0.13-0.532-0.087-0.702z" />
</svg>