<svg id="square_r_Layer_1" viewBox="0 0 24 24" fill="currentColor" width="32" height="32" data-name="Layer 1" xmlns="http://www.w3.org/2000/svg" xmlns:xlink="http://www.w3.org/1999/xlink">
    <title>square-r</title>
    <path d="M19 9c0-2.757-2.243-5-5-5H8.5C6.57 4 5 5.57 5 7.5v12C5 19.776 5.224 20 5.5 20S6 19.776 6 19.5V14h8c0.063 0 0.126-2e-3 0.189-4e-3l2.864 5.728C17.141 19.899 17.318 20 17.5 20c0.075 0 0.151-0.017 0.224-0.053 0.247-0.124 0.347-0.424 0.224-0.671l-2.715-5.43C17.396 13.296 19.001 11.332 19 9zM14 13H6V7.5C6 6.122 7.121 5 8.5 5H14c2.206 0 4 1.794 4 4s-1.794 4-4 4zM19.5 0h-15C2.019 0 0 2.019 0 4.5v15C0 21.981 2.019 24 4.5 24h15c2.481 0 4.5-2.019 4.5-4.5v-15C24 2.019 21.981 0 19.5 0zM23 19.5c0 1.93-1.57 3.5-3.5 3.5h-15C2.57 23 1 21.43 1 19.5v-15C1 2.57 2.57 1 4.5 1h15C21.43 1 23 2.57 23 4.5z" />
</svg>