<svg id="square_b_Layer_1" viewBox="0 0 24 24" fill="currentColor" width="32" height="32" data-name="Layer 1" xmlns="http://www.w3.org/2000/svg" xmlns:xlink="http://www.w3.org/1999/xlink">
    <title>square-b</title>
    <path d="M14.641 11.001C15.474 10.268 16 9.194 16 8c0-2.206-1.794-4-4-4H8.5C6.57 4 5 5.57 5 7.5v9C5 18.429 6.57 20 8.5 20h5.999C16.981 20 19 17.981 19 15.5c0-2.434-1.943-4.423-4.359-4.499zM6 7.5C6 6.122 7.122 5 8.5 5H12c1.654 0 3 1.346 3 3 0 1.639-1.321 2.975-2.954 3H6c0 0 0-3.499 0-3.5zM14.499 19H8.5C7.122 19 6 17.877 6 16.5V12h6c0.018 0 0.036 0 0.054 0H14.5c1.93 0 3.5 1.57 3.5 3.5s-1.571 3.501-3.501 3.5zM19.5 0h-15C2.019 0 0 2.019 0 4.5v15C0 21.981 2.019 24 4.5 24h15c2.481 0 4.5-2.019 4.5-4.5v-15C24 2.019 21.981 0 19.5 0zM23 19.5c0 1.93-1.57 3.5-3.5 3.5h-15C2.57 23 1 21.43 1 19.5v-15C1 2.57 2.57 1 4.5 1h15C21.43 1 23 2.57 23 4.5z" />
</svg>