<svg id="square_dashed_circle_plus_Layer_1" viewBox="0 0 24 24" fill="currentColor" width="32" height="32" data-name="Layer 1" xmlns="http://www.w3.org/2000/svg" xmlns:xlink="http://www.w3.org/1999/xlink">
    <title>square-dashed-circle-plus</title>
    <path d="M5 0.5C5 0.776 4.776 1 4.5 1h-1C2.121 1 1 2.122 1 3.5v1C1 4.776 0.776 5 0.5 5S0 4.776 0 4.5v-1C0 1.57 1.57 0 3.5 0h1C4.776 0 5 0.224 5 0.5zM0.5 13C0.776 13 1 12.776 1 12.5v-5C1 7.224 0.776 7 0.5 7S0 7.224 0 7.5v5C0 12.776 0.224 13 0.5 13zM4.5 19h-1C2.121 19 1 17.879 1 16.5v-1C1 15.224 0.776 15 0.5 15S0 15.224 0 15.5v1C0 18.43 1.57 20 3.5 20h1C4.776 20 5 19.776 5 19.5S4.776 19 4.5 19zM15.5 1h1C17.879 1 19 2.122 19 3.5v1C19 4.776 19.224 5 19.5 5S20 4.776 20 4.5v-1C20 1.57 18.43 0 16.5 0h-1C15.224 0 15 0.224 15 0.5S15.224 1 15.5 1zM7.5 1h5C12.776 1 13 0.776 13 0.5S12.776 0 12.5 0h-5C7.224 0 7 0.224 7 0.5S7.224 1 7.5 1zM24 17.5c0 3.584-2.916 6.5-6.5 6.5S11 21.084 11 17.5 13.916 11 17.5 11 24 13.916 24 17.5zM23 17.5c0-3.032-2.468-5.5-5.5-5.5S12 14.468 12 17.5 14.468 23 17.5 23 23 20.532 23 17.5zM20.5 17H18v-2.5c0-0.276-0.224-0.5-0.5-0.5S17 14.224 17 14.5V17h-2.5c-0.276 0-0.5 0.224-0.5 0.5s0.224 0.5 0.5 0.5H17v2.5c0 0.276 0.224 0.5 0.5 0.5s0.5-0.224 0.5-0.5V18h2.5c0.276 0 0.5-0.224 0.5-0.5S20.776 17 20.5 17zM19.5 7C19.224 7 19 7.224 19 7.5V9c0 0.276 0.224 0.5 0.5 0.5S20 9.276 20 9V7.5C20 7.224 19.776 7 19.5 7zM9 19H7.5C7.224 19 7 19.224 7 19.5S7.224 20 7.5 20H9c0.276 0 0.5-0.224 0.5-0.5S9.276 19 9 19z" />
</svg>