<svg id="square_kanban_Layer_1" viewBox="0 0 24 24" fill="currentColor" width="32" height="32" data-name="Layer 1" xmlns="http://www.w3.org/2000/svg" xmlns:xlink="http://www.w3.org/1999/xlink">
    <title>square-kanban</title>
    <path d="M19.5 0h-15C2.02 0 0 2.02 0 4.5v15C0 21.98 2.02 24 4.5 24h15c2.48 0 4.5-2.02 4.5-4.5v-15C24 2.02 21.98 0 19.5 0zM23 19.5c0 1.93-1.57 3.5-3.5 3.5h-15C2.57 23 1 21.43 1 19.5v-15C1 2.57 2.57 1 4.5 1h15C21.43 1 23 2.57 23 4.5zM10 5.5v6c0 0.28-0.22 0.5-0.5 0.5S9 11.78 9 11.5v-6C9 5.22 9.22 5 9.5 5S10 5.22 10 5.5zM6 5.5v9C6 14.78 5.78 15 5.5 15S5 14.78 5 14.5v-9C5 5.22 5.22 5 5.5 5S6 5.22 6 5.5zM14 5.5v13c0 0.28-0.22 0.5-0.5 0.5S13 18.78 13 18.5v-13C13 5.22 13.22 5 13.5 5S14 5.22 14 5.5zM18 5.5v3C18 8.78 17.78 9 17.5 9S17 8.78 17 8.5v-3C17 5.22 17.22 5 17.5 5S18 5.22 18 5.5z" />
</svg>