<svg id="square_h_Layer_1" viewBox="0 0 24 24" fill="currentColor" width="32" height="32" data-name="Layer 1" xmlns="http://www.w3.org/2000/svg" xmlns:xlink="http://www.w3.org/1999/xlink">
    <title>square-h</title>
    <path d="M19.5 0h-15C2.019 0 0 2.019 0 4.5v15C0 21.981 2.019 24 4.5 24h15c2.481 0 4.5-2.019 4.5-4.5v-15C24 2.019 21.981 0 19.5 0zM23 19.5c0 1.93-1.57 3.5-3.5 3.5h-15C2.57 23 1 21.43 1 19.5v-15C1 2.57 2.57 1 4.5 1h15C21.43 1 23 2.57 23 4.5zM19 4.5v15c0 0.276-0.224 0.5-0.5 0.5S18 19.776 18 19.5v-7H6v7C6 19.776 5.776 20 5.5 20S5 19.776 5 19.5v-15C5 4.224 5.224 4 5.5 4S6 4.224 6 4.5v7h12v-7C18 4.224 18.224 4 18.5 4S19 4.224 19 4.5z" />
</svg>