<svg id="square_g_Layer_1" viewBox="0 0 24 24" fill="currentColor" width="32" height="32" data-name="Layer 1" xmlns="http://www.w3.org/2000/svg" xmlns:xlink="http://www.w3.org/1999/xlink">
    <title>square-g</title>
    <path d="M19.5 0h-15C2.019 0 0 2.019 0 4.5v15C0 21.981 2.019 24 4.5 24h15c2.481 0 4.5-2.019 4.5-4.5v-15C24 2.019 21.981 0 19.5 0zM23 19.5c0 1.93-1.57 3.5-3.5 3.5h-15C2.57 23 1 21.43 1 19.5v-15C1 2.57 2.57 1 4.5 1h15C21.43 1 23 2.57 23 4.5zM18.57 12.747c0.386 0.474 0.537 1.088 0.414 1.685-0.558 2.709-2.685 5.568-6.979 5.569-0.071 0-0.142 0-0.213-2e-3C7.983 19.916 5 16.739 5 12.767v-1.525c0-3.852 3.021-7.098 6.734-7.235 2.464-0.1 4.833 1.145 6.165 3.226 0.149 0.232 0.081 0.542-0.151 0.69-0.233 0.149-0.542 0.081-0.69-0.151-1.16-1.812-3.156-2.854-5.286-2.766-3.182 0.119-5.771 2.916-5.771 6.236v1.525c0 3.424 2.554 6.161 5.814 6.232 3.82 0.085 5.705-2.409 6.191-4.769 0.062-0.301-0.015-0.611-0.21-0.851C17.6 13.138 17.31 13 17.001 13h-5c-0.276 0-0.5-0.224-0.5-0.5s0.224-0.5 0.5-0.5h5c0.611 0 1.183 0.272 1.569 0.747z" />
</svg>