<svg id="square_w_Layer_1" viewBox="0 0 24 24" fill="currentColor" width="32" height="32" data-name="Layer 1" xmlns="http://www.w3.org/2000/svg" xmlns:xlink="http://www.w3.org/1999/xlink">
    <title>square-w</title>
    <path d="M19.5 0h-15C2.019 0 0 2.019 0 4.5v15C0 21.981 2.019 24 4.5 24h15c2.481 0 4.5-2.019 4.5-4.5v-15C24 2.019 21.981 0 19.5 0zM23 19.5c0 1.93-1.57 3.5-3.5 3.5h-15C2.57 23 1 21.43 1 19.5v-15C1 2.57 2.57 1 4.5 1h15C21.43 1 23 2.57 23 4.5zM19.994 4.576 17.807 18.768c-0.102 0.658-0.615 1.15-1.277 1.223-0.664 0.069-1.271-0.295-1.513-0.917l-3.018-7.749-3.018 7.749C8.759 19.643 8.231 20 7.634 20c-0.636 0-1.342-0.573-1.443-1.231L4.004 4.577C3.962 4.304 4.15 4.049 4.422 4.007 4.69 3.97 4.95 4.153 4.992 4.425l2.187 14.192c0.049 0.318 0.317 0.372 0.398 0.381 0.078 4e-3 0.354 0.014 0.472-0.286l3.483-8.945c0.148-0.383 0.783-0.383 0.932 0l3.483 8.945c0.117 0.3 0.393 0.291 0.472 0.286 0.081-9e-3 0.35-0.062 0.398-0.381l2.187-14.192c0.042-0.273 0.304-0.455 0.57-0.418 0.272 0.042 0.46 0.297 0.42 0.569z" />
</svg>