<svg id="square_c_Layer_1" viewBox="0 0 24 24" fill="currentColor" width="32" height="32" data-name="Layer 1" xmlns="http://www.w3.org/2000/svg" xmlns:xlink="http://www.w3.org/1999/xlink">
    <title>square-c</title>
    <path d="M19.5 0h-15C2.019 0 0 2.019 0 4.5v15C0 21.981 2.019 24 4.5 24h15c2.481 0 4.5-2.019 4.5-4.5v-15C24 2.019 21.981 0 19.5 0zM23 19.5c0 1.93-1.57 3.5-3.5 3.5h-15C2.57 23 1 21.43 1 19.5v-15C1 2.57 2.57 1 4.5 1h15C21.43 1 23 2.57 23 4.5zM6 10.636v2.728C6 16.472 8.5 19 11.572 19h0.682c1.885 0 3.637-0.937 4.687-2.505 0.153-0.23 0.464-0.291 0.694-0.137 0.229 0.154 0.291 0.464 0.137 0.694-1.236 1.846-3.299 2.949-5.518 2.949h-0.682C7.948 20.001 5 17.024 5 13.365v-2.728c0-3.659 2.948-6.636 6.572-6.636h0.682c2.219 0 4.282 1.103 5.518 2.949 0.154 0.229 0.092 0.54-0.137 0.694-0.23 0.153-0.541 0.092-0.694-0.137-1.05-1.569-2.802-2.505-4.687-2.505h-0.682C8.499 5.002 6 7.53 6 10.636z" />
</svg>