<svg id="square_phone_Layer_1" viewBox="0 0 24 24" fill="currentColor" width="32" height="32" data-name="Layer 1" xmlns="http://www.w3.org/2000/svg" xmlns:xlink="http://www.w3.org/1999/xlink">
    <title>square-phone</title>
    <path d="M17.819 13.804c-0.718-0.719-1.985-0.706-2.676-0.015l-1.251 1.151c-2.27-0.94-3.861-2.519-4.852-4.811l1.046-1.234c0.741-0.742 0.741-1.949 0.042-2.644L8.823 4.57C8.081 3.828 6.874 3.828 6.151 4.552L5.162 5.445c-6e-3 5e-3-0.013 0.012-0.019 0.018-0.738 0.738-1.145 1.735-1.145 2.809 0 5.026 6.646 11.688 11.683 11.727 0.015 1e-3 0.03 2e-3 0.046 2e-3 1.075 0 2.072-0.407 2.826-1.164l0.875-0.97c0.741-0.742 0.741-1.949-0.029-2.719zM18.705 17.179l-0.876 0.97c-0.538 0.54-1.27 0.842-2.062 0.852-0.014-1e-3-0.027-2e-3-0.041-2e-3-4.511 0-10.727-6.215-10.727-10.727 0-0.802 0.299-1.544 0.843-2.093L6.84 5.278C7.192 4.925 7.764 4.926 8.074 5.23l1.305 1.681c0.352 0.352 0.352 0.925-0.027 1.307L8.081 9.715c-0.12 0.142-0.152 0.338-0.083 0.51 1.113 2.774 3.072 4.713 5.823 5.763 0.181 0.068 0.378 0.03 0.518-0.099l1.497-1.378c0.343-0.343 0.906-0.368 1.306 0.027l1.581 1.344c0.352 0.352 0.352 0.925-0.018 1.297zM19.5 0h-15C2.019 0 0 2.019 0 4.5v15C0 21.981 2.019 24 4.5 24h15c2.481 0 4.5-2.019 4.5-4.5v-15C24 2.019 21.981 0 19.5 0zM23 19.5c0 1.93-1.57 3.5-3.5 3.5h-15C2.57 23 1 21.43 1 19.5v-15C1 2.57 2.57 1 4.5 1h15C21.43 1 23 2.57 23 4.5z" />
</svg>