<svg id="square_o_Layer_1" viewBox="0 0 24 24" fill="currentColor" width="32" height="32" data-name="Layer 1" xmlns="http://www.w3.org/2000/svg" xmlns:xlink="http://www.w3.org/1999/xlink">
    <title>square-o</title>
    <path d="M12 4c-3.86 0-7 3.14-7 7v2c0 3.859 3.14 7 7 7s7-3.141 7-7v-2c0-3.86-3.14-7-7-7zM18 13c0 3.309-2.691 6-6 6s-6-2.691-6-6v-2c0-3.309 2.691-6 6-6s6 2.691 6 6zM19.5 0h-15C2.019 0 0 2.019 0 4.5v15C0 21.981 2.019 24 4.5 24h15c2.481 0 4.5-2.019 4.5-4.5v-15C24 2.019 21.981 0 19.5 0zM23 19.5c0 1.93-1.57 3.5-3.5 3.5h-15C2.57 23 1 21.43 1 19.5v-15C1 2.57 2.57 1 4.5 1h15C21.43 1 23 2.57 23 4.5z" />
</svg>