<svg id="square_divide_Layer_1" viewBox="0 0 24 24" fill="currentColor" width="32" height="32" data-name="Layer 1" xmlns="http://www.w3.org/2000/svg" xmlns:xlink="http://www.w3.org/1999/xlink">
    <title>square-divide</title>
    <path d="M19.5 0h-15C2.019 0 0 2.019 0 4.5v15C0 21.981 2.019 24 4.5 24h15c2.481 0 4.5-2.019 4.5-4.5v-15C24 2.019 21.981 0 19.5 0zM23 19.5c0 1.93-1.57 3.5-3.5 3.5h-15C2.57 23 1 21.43 1 19.5v-15C1 2.57 2.57 1 4.5 1h15C21.43 1 23 2.57 23 4.5zM18 12c0 0.276-0.224 0.5-0.5 0.5h-11C6.224 12.5 6 12.276 6 12s0.224-0.5 0.5-0.5h11c0.276 0 0.5 0.224 0.5 0.5zM12 5.5c0.828 0 1.5 0.673 1.5 1.5S12.828 8.5 12 8.5 10.5 7.827 10.5 7 11.172 5.5 12 5.5zM12 18.5c-0.828 0-1.5-0.673-1.5-1.5s0.672-1.5 1.5-1.5 1.5 0.673 1.5 1.5-0.672 1.5-1.5 1.5z" />
</svg>