<svg id="square_5_Layer_1" viewBox="0 0 24 24" fill="currentColor" width="32" height="32" data-name="Layer 1" xmlns="http://www.w3.org/2000/svg" xmlns:xlink="http://www.w3.org/1999/xlink">
    <title>square-5</title>
    <path d="M19.5 24h-15C2.019 24 0 21.981 0 19.5v-15C0 2.019 2.019 0 4.5 0h15C21.981 0 24 2.019 24 4.5v15c0 2.481-2.019 4.5-4.5 4.5zM4.5 1C2.57 1 1 2.57 1 4.5v15C1 21.43 2.57 23 4.5 23h15c1.93 0 3.5-1.57 3.5-3.5v-15C23 2.57 21.43 1 19.5 1zM15.039 16.909c0.667-0.704 1.007-1.626 0.956-2.597C15.899 12.485 14.255 11 12.33 11H9V7.5C9 7.224 9.224 7 9.5 7h5C14.776 7 15 6.776 15 6.5S14.776 6 14.5 6h-5C8.673 6 8 6.673 8 7.5v4C8 11.776 8.224 12 8.5 12h3.83c1.402 0 2.598 1.061 2.666 2.365 0.037 0.694-0.206 1.353-0.682 1.855-0.477 0.502-1.121 0.779-1.814 0.779h-4c-0.276 0-0.5 0.224-0.5 0.5s0.224 0.5 0.5 0.5h4c0.97 0 1.872-0.388 2.539-1.09z" />
</svg>