<svg id="square_pen_Layer_1" viewBox="0 0 24 24" fill="currentColor" width="32" height="32" data-name="Layer 1" xmlns="http://www.w3.org/2000/svg" xmlns:xlink="http://www.w3.org/1999/xlink">
    <title>square-pen</title>
    <path d="M19.5 0h-15C2.019 0 0 2.019 0 4.5v15C0 21.981 2.019 24 4.5 24h15c2.481 0 4.5-2.019 4.5-4.5v-15C24 2.019 21.981 0 19.5 0zM23 19.5c0 1.93-1.57 3.5-3.5 3.5h-15C2.57 23 1 21.43 1 19.5v-15C1 2.57 2.57 1 4.5 1h15C21.43 1 23 2.57 23 4.5zM16.503 5c-0.668 0-1.297 0.26-1.768 0.731l-8.418 8.415c-0.851 0.851-1.319 1.98-1.319 3.183v0.67c0 0.551 0.449 1 1 1H6.67c1.202 0 2.332-0.468 3.182-1.317l8.411-8.409c0.969-0.881 0.97-2.663 8e-3-3.542C17.799 5.259 17.171 5 16.503 5zM9.145 16.975c-0.661 0.661-1.54 1.024-2.475 1.024H5.998v-0.67c0-0.935 0.364-1.814 1.026-2.476l6.312-6.31 2.122 2.121zM17.563 8.559 16.165 9.957 14.043 7.836l1.399-1.398c0.564-0.583 1.563-0.581 2.129 8e-3 0.567 0.519 0.564 1.593-8e-3 2.113z" />
</svg>