<svg id="square_p_Layer_1" viewBox="0 0 24 24" fill="currentColor" width="32" height="32" data-name="Layer 1" xmlns="http://www.w3.org/2000/svg" xmlns:xlink="http://www.w3.org/1999/xlink">
    <title>square-p</title>
    <path d="M14 4H8.5C6.57 4 5 5.57 5 7.5v12C5 19.776 5.224 20 5.5 20S6 19.776 6 19.5V14h8c2.757 0 5-2.243 5-5s-2.243-5-5-5zM14 13H6V7.5C6 6.122 7.121 5 8.5 5H14c2.206 0 4 1.794 4 4s-1.794 4-4 4zM19.5 0h-15C2.019 0 0 2.019 0 4.5v15C0 21.981 2.019 24 4.5 24h15c2.481 0 4.5-2.019 4.5-4.5v-15C24 2.019 21.981 0 19.5 0zM23 19.5c0 1.93-1.57 3.5-3.5 3.5h-15C2.57 23 1 21.43 1 19.5v-15C1 2.57 2.57 1 4.5 1h15C21.43 1 23 2.57 23 4.5z" />
</svg>