<svg id="square_up_right_Layer_1" viewBox="0 0 24 24" fill="currentColor" width="32" height="32" data-name="Layer 1" xmlns="http://www.w3.org/2000/svg" xmlns:xlink="http://www.w3.org/1999/xlink">
    <title>square-up-right</title>
    <path d="M20 6v7.5c0 0.276-0.224 0.5-0.5 0.5S19 13.776 19 13.5V6c0-0.089-0.012-0.176-0.034-0.259L5.854 18.853c-0.098 0.098-0.226 0.146-0.354 0.146s-0.256-0.049-0.354-0.146c-0.195-0.195-0.195-0.512 0-0.707L18.258 5.034C18.175 5.012 18.089 5 17.999 5h-7.5c-0.276 0-0.5-0.224-0.5-0.5s0.224-0.5 0.5-0.5h7.5c1.103 0 2 0.897 2.001 2zM24 4.5v15c0 2.481-2.019 4.5-4.5 4.5h-15C2.019 24 0 21.981 0 19.5v-15C0 2.019 2.019 0 4.5 0h15C21.981 0 24 2.019 24 4.5zM23 4.5C23 2.57 21.43 1 19.5 1h-15C2.57 1 1 2.57 1 4.5v15C1 21.43 2.57 23 4.5 23h15c1.93 0 3.5-1.57 3.5-3.5z" />
</svg>