<svg id="square_envelope_Layer_1" viewBox="0 0 24 24" fill="currentColor" width="32" height="32" data-name="Layer 1" xmlns="http://www.w3.org/2000/svg" xmlns:xlink="http://www.w3.org/1999/xlink">
    <title>square-envelope</title>
    <path d="M19.5 0h-15C2.019 0 0 2.019 0 4.5v15C0 21.981 2.019 24 4.5 24h15c2.481 0 4.5-2.019 4.5-4.5v-15C24 2.019 21.981 0 19.5 0zM23 19.5c0 1.93-1.57 3.5-3.5 3.5h-15C2.57 23 1 21.43 1 19.5v-15C1 2.57 2.57 1 4.5 1h15C21.43 1 23 2.57 23 4.5zM15.5 6h-7C6.57 6 5 7.57 5 9.5v5C5 16.43 6.57 18 8.5 18h7c1.93 0 3.5-1.57 3.5-3.5v-5C19 7.57 17.43 6 15.5 6zM15.5 7c0.593 0 1.131 0.216 1.56 0.562l-4 3.999c-0.565 0.567-1.554 0.567-2.121 0L6.94 7.562C7.369 7.216 7.907 7 8.5 7zM18 14.5c0 1.378-1.122 2.5-2.5 2.5h-7C7.122 17 6 15.878 6 14.5v-5c0-0.422 0.115-0.814 0.301-1.164l3.931 3.931c0.472 0.472 1.1 0.732 1.768 0.732s1.296-0.26 1.768-0.732L17.7 8.336c0.186 0.349 0.301 0.741 0.301 1.164z" />
</svg>