<svg id="square_d_Layer_1" viewBox="0 0 24 24" fill="currentColor" width="32" height="32" data-name="Layer 1" xmlns="http://www.w3.org/2000/svg" xmlns:xlink="http://www.w3.org/1999/xlink">
    <title>square-d</title>
    <path d="M19.5 0h-15C2.019 0 0 2.019 0 4.5v15C0 21.981 2.019 24 4.5 24h15c2.481 0 4.5-2.019 4.5-4.5v-15C24 2.019 21.981 0 19.5 0zM23 19.5c0 1.93-1.57 3.5-3.5 3.5h-15C2.57 23 1 21.43 1 19.5v-15C1 2.57 2.57 1 4.5 1h15C21.43 1 23 2.57 23 4.5zM11.682 4H8.5C6.57 4 5 5.57 5 7.5v9C5 18.43 6.57 20 8.5 20h3.182C15.717 20 19 16.717 19 12.682v-1.363C19 7.284 15.717 4.001 11.682 4zM18 12.682C18 16.166 15.166 19 11.682 19H8.5C7.121 19 6 17.878 6 16.5v-9C6 6.122 7.121 5 8.5 5h3.182C15.166 5 18 7.834 18 11.318z" />
</svg>