<svg id="square_s_Layer_1" viewBox="0 0 24 24" fill="currentColor" width="32" height="32" data-name="Layer 1" xmlns="http://www.w3.org/2000/svg" xmlns:xlink="http://www.w3.org/1999/xlink">
    <title>square-s</title>
    <path d="M19.5 0h-15C2.019 0 0 2.019 0 4.5v15C0 21.981 2.019 24 4.5 24h15c2.481 0 4.5-2.019 4.5-4.5v-15C24 2.019 21.981 0 19.5 0zM23 19.5c0 1.93-1.57 3.5-3.5 3.5h-15C2.57 23 1 21.43 1 19.5v-15C1 2.57 2.57 1 4.5 1h15C21.43 1 23 2.57 23 4.5zM6 7.777c0 1.236 0.83 2.335 2.019 2.671l8.231 2.13c1.625 0.468 2.75 1.963 2.75 3.64C19 18.304 17.303 20 15.218 20H8.736C6.88 20 5 18.798 5 16.5 5 16.224 5.224 16 5.5 16S6 16.224 6 16.5C6 18.218 7.418 19 8.736 19h6.482C16.752 19 18 17.752 18 16.218c0-1.233-0.828-2.333-2.014-2.675l-8.229-2.129C6.13 10.953 5 9.459 5 7.777 5 5.694 6.694 4 8.777 4h6.487c1.772 0 3.721 1.102 3.812 3.52 0.011 0.275-0.205 0.508-0.48 0.519-0.273 8e-3-0.508-0.206-0.519-0.481-0.067-1.766-1.461-2.557-2.813-2.557H8.777C7.246 5.001 6 6.247 6 7.777z" />
</svg>