<svg id="square_t_Layer_1" viewBox="0 0 24 24" fill="currentColor" width="32" height="32" data-name="Layer 1" xmlns="http://www.w3.org/2000/svg" xmlns:xlink="http://www.w3.org/1999/xlink">
    <title>square-t</title>
    <path d="M19 4.5C19 4.776 18.776 5 18.5 5h-6v14.5c0 0.276-0.224 0.5-0.5 0.5s-0.5-0.224-0.5-0.5V5h-6C5.224 5 5 4.776 5 4.5S5.224 4 5.5 4h13C18.776 4 19 4.224 19 4.5zM24 4.5v15c0 2.481-2.019 4.5-4.5 4.5h-15C2.019 24 0 21.981 0 19.5v-15C0 2.019 2.019 0 4.5 0h15C21.981 0 24 2.019 24 4.5zM23 4.5C23 2.57 21.43 1 19.5 1h-15C2.57 1 1 2.57 1 4.5v15C1 21.43 2.57 23 4.5 23h15c1.93 0 3.5-1.57 3.5-3.5z" />
</svg>