<svg id="square_y_Layer_1" viewBox="0 0 24 24" fill="currentColor" width="32" height="32" data-name="Layer 1" xmlns="http://www.w3.org/2000/svg" xmlns:xlink="http://www.w3.org/1999/xlink">
    <title>square-y</title>
    <path d="M19.5 0h-15C2.019 0 0 2.019 0 4.5v15C0 21.981 2.019 24 4.5 24h15c2.481 0 4.5-2.019 4.5-4.5v-15C24 2.019 21.981 0 19.5 0zM23 19.5c0 1.93-1.57 3.5-3.5 3.5h-15C2.57 23 1 21.43 1 19.5v-15C1 2.57 2.57 1 4.5 1h15C21.43 1 23 2.57 23 4.5zM18.888 4.815 12.5 12.677v6.822c0 0.276-0.224 0.5-0.5 0.5s-0.5-0.224-0.5-0.5v-6.822L5.112 4.815C4.938 4.6 4.97 4.286 5.185 4.112 5.4 3.939 5.714 3.97 5.889 4.184l6.112 7.522 6.112-7.522c0.175-0.214 0.49-0.248 0.704-0.072 0.214 0.174 0.247 0.488 0.071 0.703z" />
</svg>