<svg id="square_n_Layer_1" viewBox="0 0 24 24" fill="currentColor" width="32" height="32" data-name="Layer 1" xmlns="http://www.w3.org/2000/svg" xmlns:xlink="http://www.w3.org/1999/xlink">
    <title>square-n</title>
    <path d="M19.5 0h-15C2.019 0 0 2.019 0 4.5v15C0 21.981 2.019 24 4.5 24h15c2.481 0 4.5-2.019 4.5-4.5v-15C24 2.019 21.981 0 19.5 0zM23 19.5c0 1.93-1.57 3.5-3.5 3.5h-15C2.57 23 1 21.43 1 19.5v-15C1 2.57 2.57 1 4.5 1h15C21.43 1 23 2.57 23 4.5zM19 4.5v13.862c0 0.73-0.463 1.343-1.179 1.561-0.728 0.221-1.497-0.048-1.912-0.668L7.25 5.287c-0.2-0.296-0.535-0.329-0.78-0.254C6.36 5.067 6 5.209 6 5.638V19.5C6 19.776 5.776 20 5.5 20S5 19.776 5 19.5V5.638c0-0.731 0.463-1.344 1.18-1.562 0.727-0.222 1.496 0.048 1.911 0.669l8.659 13.967c0.199 0.297 0.534 0.328 0.781 0.253 0.11-0.033 0.47-0.176 0.47-0.604V4.5c0-0.276 0.224-0.5 0.5-0.5s0.5 0.224 0.499 0.5z" />
</svg>