<svg id="square_person_confined_Layer_1" viewBox="0 0 24 24" fill="currentColor" width="32" height="32" data-name="Layer 1" xmlns="http://www.w3.org/2000/svg" xmlns:xlink="http://www.w3.org/1999/xlink">
    <title>square-person-confined</title>
    <path d="M18.476 9.198c-1.208-0.549-2.778 0.081-3.264 1.298l-3.013 6.028c-0.043 0.101-0.068 0.205-0.097 0.309l-2.596-3.351c-0.471-0.651-1.559-0.562-1.918 0.159L4.56 19.264c-0.131 0.243-0.04 0.546 0.204 0.677 0.238 0.129 0.546 0.042 0.677-0.204l3.028-5.623c0.075-0.101 0.157-0.108 0.247-0.02l3.681 4.75c0.269 0.423 0.657 0.757 1.129 0.957 1.206 0.55 2.78-0.081 3.264-1.298l3.013-6.028c0.55-1.227-0.079-2.778-1.327-3.277zM18.894 12.056l-3.013 6.028c-0.298 0.748-1.232 1.125-1.966 0.795-0.736-0.284-1.122-1.232-0.809-1.938l3.013-6.028c0.299-0.749 1.23-1.127 1.966-0.796 0.736 0.284 1.122 1.232 0.809 1.939zM13.5 8.999c1.378 0 2.5-1.122 2.5-2.5s-1.122-2.5-2.5-2.5-2.5 1.122-2.5 2.5 1.122 2.5 2.5 2.5zM13.5 4.999c0.827 0 1.5 0.673 1.5 1.5s-0.673 1.5-1.5 1.5-1.5-0.673-1.5-1.5 0.673-1.5 1.5-1.5zM19.5 0h-15C2.019 0 0 2.019 0 4.5v15C0 21.981 2.019 24 4.5 24h15c2.481 0 4.5-2.019 4.5-4.5v-15C24 2.019 21.981 0 19.5 0zM23 19.5c0 1.93-1.57 3.5-3.5 3.5h-15C2.57 23 1 21.43 1 19.5v-15C1 2.57 2.57 1 4.5 1h15C21.43 1 23 2.57 23 4.5z" />
</svg>