<svg id="square_poll_horizontal_Layer_1" viewBox="0 0 24 24" fill="currentColor" width="32" height="32" data-name="Layer 1" xmlns="http://www.w3.org/2000/svg" xmlns:xlink="http://www.w3.org/1999/xlink">
    <title>square-poll-horizontal</title>
    <path d="M19.5 0h-15C2.02 0 0 2.02 0 4.5v15C0 21.98 2.02 24 4.5 24h15c2.48 0 4.5-2.02 4.5-4.5v-15C24 2.02 21.98 0 19.5 0zM23 19.5c0 1.93-1.57 3.5-3.5 3.5h-15C2.57 23 1 21.43 1 19.5v-15C1 2.57 2.57 1 4.5 1h15C21.43 1 23 2.57 23 4.5zM19 13.5c0 0.28-0.22 0.5-0.5 0.5h-10C8.22 14 8 13.78 8 13.5S8.22 13 8.5 13h10c0.28 0 0.5 0.22 0.5 0.5zM19 17.5c0 0.28-0.22 0.5-0.5 0.5h-7c-0.28 0-0.5-0.22-0.5-0.5s0.22-0.5 0.5-0.5h7c0.28 0 0.5 0.22 0.5 0.5zM19 9.5c0 0.28-0.22 0.5-0.5 0.5h-13C5.22 10 5 9.78 5 9.5S5.22 9 5.5 9h13C18.78 9 19 9.22 19 9.5zM19 5.5C19 5.78 18.78 6 18.5 6h-3C15.22 6 15 5.78 15 5.5S15.22 5 15.5 5h3C18.78 5 19 5.22 19 5.5z" />
</svg>