<svg id="square_star_Layer_1" viewBox="0 0 24 24" fill="currentColor" width="32" height="32" data-name="Layer 1" xmlns="http://www.w3.org/2000/svg" xmlns:xlink="http://www.w3.org/1999/xlink">
    <title>square-star</title>
    <path d="M19.5 24h-15C2.02 24 0 21.98 0 19.5v-15C0 2.02 2.02 0 4.5 0h15C21.98 0 24 2.02 24 4.5v15c0 2.48-2.02 4.5-4.5 4.5zM4.5 1C2.57 1 1 2.57 1 4.5v15C1 21.43 2.57 23 4.5 23h15c1.93 0 3.5-1.57 3.5-3.5v-15C23 2.57 21.43 1 19.5 1zM8.74 17c-0.21 0-0.42-0.07-0.6-0.2-0.34-0.25-0.48-0.7-0.35-1.1l0.94-3.01-2.37-1.93c-0.33-0.28-0.44-0.72-0.3-1.11S6.58 9 7 9h3l1.06-2.85C11.2 5.78 11.57 5.53 12 5.53s0.8 0.24 0.94 0.62L14 9h3c0.42 0 0.8 0.26 0.94 0.66 0.14 0.39 0.03 0.84-0.29 1.1l-2.37 1.93 0.98 2.98c0.13 0.4 0 0.85-0.34 1.11s-0.8 0.28-1.16 0.05l-2.75-1.79-2.71 1.81C9.13 16.96 8.93 17.02 8.74 17zM7 9.99l2.62 2.14c0.16 0.13 0.22 0.34 0.16 0.54l-1.04 3.34 2.98-1.99c0.17-0.11 0.38-0.11 0.55 0l3.03 1.97-1.09-3.31c-0.06-0.2 0-0.41 0.16-0.54l2.62-2.13c0 0 0 0 0 0h-3.35c-0.21 0-0.4-0.13-0.47-0.33L11.99 6.5 10.81 9.68c-0.07 0.2-0.26 0.33-0.47 0.33z" />
</svg>