<svg id="square_a_Layer_1" viewBox="0 0 24 24" fill="currentColor" width="32" height="32" data-name="Layer 1" xmlns="http://www.w3.org/2000/svg" xmlns:xlink="http://www.w3.org/1999/xlink">
    <title>square-a</title>
    <path d="M19.5 0h-15C2.019 0 0 2.019 0 4.5v15C0 21.981 2.019 24 4.5 24h15c2.481 0 4.5-2.019 4.5-4.5v-15C24 2.019 21.981 0 19.5 0zM23 19.5c0 1.93-1.57 3.5-3.5 3.5h-15C2.57 23 1 21.43 1 19.5v-15C1 2.57 2.57 1 4.5 1h15C21.43 1 23 2.57 23 4.5zM15.176 6.243C14.693 4.88 13.446 4 12 4S9.307 4.88 8.825 6.239L4.05 19.329c-0.095 0.259 0.039 0.546 0.298 0.641 0.258 0.094 0.546-0.039 0.641-0.298l1.704-4.671h10.612l1.704 4.671c0.074 0.203 0.266 0.329 0.47 0.329 0.057 0 0.115-0.01 0.171-0.03 0.259-0.095 0.393-0.382 0.298-0.641zM7.058 14 9.766 6.577C10.179 5.414 11.191 5 12 5s1.821 0.415 2.235 1.582L16.941 14z" />
</svg>