<svg id="square_heart_Layer_1" viewBox="0 0 24 24" fill="currentColor" width="32" height="32" data-name="Layer 1" xmlns="http://www.w3.org/2000/svg" xmlns:xlink="http://www.w3.org/1999/xlink">
    <title>square-heart</title>
    <path d="M19.5 24h-15C2.02 24 0 21.98 0 19.5v-15C0 2.02 2.02 0 4.5 0h15C21.98 0 24 2.02 24 4.5v15c0 2.48-2.02 4.5-4.5 4.5zM4.5 1C2.57 1 1 2.57 1 4.5v15C1 21.43 2.57 23 4.5 23h15c1.93 0 3.5-1.57 3.5-3.5v-15C23 2.57 21.43 1 19.5 1zM12 18c-0.42 0-0.83-0.14-1.17-0.42C9.03 16.09 6 13.21 6 10.61 6 8.62 7.46 7 9.25 7 10.41 7 11.42 7.67 12 8.69 12.58 7.68 13.59 7 14.75 7 16.54 7 18 8.62 18 10.61c0 2.6-3.03 5.48-4.83 6.97C12.83 17.86 12.41 18 12 18zM9.25 8C8.01 8 7 9.17 7 10.61c0 2.27 3.12 5.09 4.47 6.2 0.31 0.26 0.75 0.26 1.07 0 1.34-1.11 4.46-3.93 4.46-6.2C17 9.17 15.99 8 14.75 8s-2.25 1.17-2.25 2.61c0 0.28-0.22 0.5-0.5 0.5s-0.5-0.22-0.5-0.5C11.5 9.17 10.49 8 9.25 8z" />
</svg>