<svg id="square_poll_vertical_Layer_1" viewBox="0 0 24 24" fill="currentColor" width="32" height="32" data-name="Layer 1" xmlns="http://www.w3.org/2000/svg" xmlns:xlink="http://www.w3.org/1999/xlink">
    <title>square-poll-vertical</title>
    <path d="M10 8.5v10c0 0.28-0.22 0.5-0.5 0.5S9 18.78 9 18.5v-10C9 8.22 9.22 8 9.5 8S10 8.22 10 8.5zM5.5 11C5.22 11 5 11.22 5 11.5v7C5 18.78 5.22 19 5.5 19S6 18.78 6 18.5v-7C6 11.22 5.78 11 5.5 11zM24 4.5v15c0 2.48-2.02 4.5-4.5 4.5h-15C2.02 24 0 21.98 0 19.5v-15C0 2.02 2.02 0 4.5 0h15C21.98 0 24 2.02 24 4.5zM23 4.5C23 2.57 21.43 1 19.5 1h-15C2.57 1 1 2.57 1 4.5v15C1 21.43 2.57 23 4.5 23h15c1.93 0 3.5-1.57 3.5-3.5zM13.5 5C13.22 5 13 5.22 13 5.5v13c0 0.28 0.22 0.5 0.5 0.5s0.5-0.22 0.5-0.5v-13C14 5.22 13.78 5 13.5 5zM17.5 15c-0.28 0-0.5 0.22-0.5 0.5v3c0 0.28 0.22 0.5 0.5 0.5s0.5-0.22 0.5-0.5v-3c0-0.28-0.22-0.5-0.5-0.5z" />
</svg>