<svg id="square_m_Layer_1" viewBox="0 0 24 24" fill="currentColor" width="32" height="32" data-name="Layer 1" xmlns="http://www.w3.org/2000/svg" xmlns:xlink="http://www.w3.org/1999/xlink">
    <title>square-m</title>
    <path d="M19.5 0h-15C2.019 0 0 2.019 0 4.5v15C0 21.981 2.019 24 4.5 24h15c2.481 0 4.5-2.019 4.5-4.5v-15C24 2.019 21.981 0 19.5 0zM23 19.5c0 1.93-1.57 3.5-3.5 3.5h-15C2.57 23 1 21.43 1 19.5v-15C1 2.57 2.57 1 4.5 1h15C21.43 1 23 2.57 23 4.5zM20 5.514V19.5c0 0.276-0.224 0.5-0.5 0.5S19 19.776 19 19.5V5.514c0-0.256-0.107-0.432-0.303-0.493-0.16-0.051-0.409-0.023-0.58 0.221l-5.688 9.515c-0.181 0.301-0.678 0.301-0.858 0L5.863 5.212C5.712 4.996 5.461 4.97 5.303 5.021 5.108 5.083 5 5.258 5 5.514V19.5C5 19.776 4.776 20 4.5 20S4 19.776 4 19.5V5.514c0-0.698 0.384-1.252 1.002-1.447 0.625-0.196 1.31 0.044 1.7 0.602L12 13.526l5.279-8.828c0.41-0.587 1.092-0.827 1.719-0.631C19.616 4.262 20 4.816 20 5.514z" />
</svg>