<svg id="square_z_Layer_1" viewBox="0 0 24 24" fill="currentColor" width="32" height="32" data-name="Layer 1" xmlns="http://www.w3.org/2000/svg" xmlns:xlink="http://www.w3.org/1999/xlink">
    <title>square-z</title>
    <path d="M19.5 0h-15C2.019 0 0 2.019 0 4.5v15C0 21.981 2.019 24 4.5 24h15c2.481 0 4.5-2.019 4.5-4.5v-15C24 2.019 21.981 0 19.5 0zM23 19.5c0 1.93-1.57 3.5-3.5 3.5h-15C2.57 23 1 21.43 1 19.5v-15C1 2.57 2.57 1 4.5 1h15C21.43 1 23 2.57 23 4.5zM6.237 17.512c-0.234 0.233-0.308 0.59-0.169 0.929 0.111 0.271 0.392 0.56 0.847 0.56H18.5c0.276 0 0.5 0.224 0.5 0.5s-0.224 0.5-0.5 0.5H6.915c-0.794 0-1.474-0.452-1.772-1.181-0.293-0.716-0.132-1.5 0.421-2.046L17.763 6.489c0.234-0.233 0.308-0.59 0.169-0.929C17.821 5.289 17.54 5 17.085 5H5.5C5.224 5 5 4.776 5 4.5S5.224 4 5.5 4h11.585c0.794 0 1.474 0.452 1.772 1.181 0.293 0.716 0.132 1.5-0.421 2.046z" />
</svg>