<svg id="squirrel_Layer_1" viewBox="0 0 24 24" fill="currentColor" width="32" height="32" data-name="Layer 1" xmlns="http://www.w3.org/2000/svg" xmlns:xlink="http://www.w3.org/1999/xlink">
    <title>squirrel</title>
    <path d="M23.761 15.073c-0.636-0.389-1.312-0.704-2.01-0.937-1.047-0.35-1.75-1.308-1.75-2.384V9.951c2.114-0.22 4-1.195 4-3.077 0-1.988-1.926-4.875-4.944-4.875-0.019 0-0.037 0-0.056 0V0.711c0-0.487-0.48-0.826-0.942-0.674C16.864 0.432 16.001 1.672 16.001 3v0.373c-0.622 0.703-1 1.623-1 2.627 0 0.317 0.038 0.626 0.109 0.922-0.065 0.878-1.638 1.909-3.301 2.999-3.033 1.989-6.808 4.463-6.808 8.75 0 0.588 0.062 1.128 0.186 1.623-0.094-0.131-0.184-0.266-0.269-0.405C3.131 16.97 1.001 12.19 1.001 6 1 3.243 3.243 1 6 1s5 2.243 5 5c0 0.463-0.063 0.922-0.188 1.364-0.075 0.266 0.079 0.542 0.345 0.617 0.262 0.075 0.542-0.079 0.617-0.345C11.924 7.106 12 6.555 12 6c0-3.309-2.691-6-6-6S0 2.691 0 6c0 6.423 2.21 11.382 4.064 14.412C5.439 22.659 7.833 24 10.467 24h11.032c0.276 0 0.5-0.224 0.5-0.5s-0.224-0.5-0.5-0.5h-4.503c1.216-0.913 2.003-2.366 2.003-4 0-2.553-1.911-4.689-4.445-4.97-0.279-0.026-0.521 0.168-0.552 0.442-0.03 0.274 0.167 0.522 0.442 0.552 2.027 0.224 3.555 1.934 3.555 3.976 0 2.206-1.794 4-4 4h-3.532c-0.772 0-1.521-0.134-2.22-0.385-1.555-0.872-2.248-2.089-2.248-3.944 0-3.746 3.524-6.057 6.356-7.913 1.426-0.935 2.648-1.736 3.285-2.602 0.712 1.094 1.95 1.825 3.359 1.844v1.754c0 1.507 0.978 2.846 2.434 3.332 0.626 0.209 1.234 0.492 1.805 0.842 0.082 0.05 0.171 0.073 0.26 0.073 0.168 0 0.333-0.085 0.427-0.239 0.144-0.236 0.07-0.543-0.164-0.689zM16 6c0-1.654 1.371-3 3.056-3C21.344 3 23 5.314 23 6.875 23 8.556 20.42 9 19.056 9 17.64 9 16 7.5 16 6z" />
</svg>