<svg id="squid_Layer_1" viewBox="0 0 24 24" fill="currentColor" width="32" height="32" data-name="Layer 1" xmlns="http://www.w3.org/2000/svg" xmlns:xlink="http://www.w3.org/1999/xlink">
    <title>squid</title>
    <path d="M19.5 0h-6.578c-1.076 0-2.087 0.419-2.847 1.18C9.123 2.132 8.768 3.614 9.15 5.047l0.856 3.208C9.391 8.706 8.796 9.191 8.257 9.73l-4.204 4.26c-0.697 0.697-1.832 0.697-2.529 0-0.696-0.697-0.696-1.831 0-2.528l3.352-3.357c0.195-0.195 0.195-0.513 0-0.707-0.195-0.195-0.512-0.195-0.707 0l-3.352 3.357c-1.085 1.087-1.085 2.855 0 3.942 1.053 1.053 2.889 1.055 3.945-2e-3l0.385-0.39 1.944 1.944-3.942 3.942c-0.195 0.195-0.195 0.512 0 0.707 0.098 0.098 0.226 0.146 0.354 0.146s0.256-0.049 0.354-0.146l3.942-3.942 1.952 1.952-0.327 0.332c-0.526 0.526-0.816 1.227-0.816 1.972s0.29 1.445 0.816 1.972c0.543 0.544 1.257 0.815 1.972 0.815s1.427-0.271 1.97-0.814l3.297-3.291c0.195-0.194 0.195-0.512 0-0.707s-0.512-0.195-0.707 0l-3.297 3.291c-0.698 0.695-1.831 0.695-2.527 0s-0.697-1.832 3e-3-2.532l4.138-4.203c0.539-0.539 1.023-1.133 1.473-1.747l3.208 0.856c0.382 0.102 0.767 0.151 1.144 0.151 1.041 0 2.024-0.377 2.724-1.076 0.761-0.76 1.18-1.771 1.18-2.847V4.502c0-2.481-2.019-4.5-4.502-4.502zM13.562 15.037l-3.11 3.159-4.603-4.603 3.117-3.158c2.409-2.409 5.874-3.883 8.108-4.414 0.26-0.062 0.521 0.01 0.707 0.197 0.188 0.188 0.259 0.445 0.197 0.707-0.531 2.234-2.005 5.699-4.416 8.112zM23 11.078c0 0.809-0.314 1.568-0.887 2.14-0.701 0.701-1.811 0.954-2.902 0.665l-2.865-0.764c1.341-2.081 2.218-4.33 2.605-5.962 0.142-0.599-0.031-1.213-0.463-1.645s-1.044-0.603-1.645-0.463c-1.632 0.387-3.881 1.264-5.962 2.605l-0.764-2.865C9.826 3.7 10.081 2.588 10.782 1.887 11.353 1.315 12.113 1 12.922 1H19.5C21.43 1 23 2.57 23 4.5z" />
</svg>