<svg id="stadium_Layer_1" viewBox="0 0 24 24" fill="currentColor" width="32" height="32" data-name="Layer 1" xmlns="http://www.w3.org/2000/svg" xmlns:xlink="http://www.w3.org/1999/xlink">
    <title>stadium</title>
    <path d="M20.919 7H20V4.32l2.997-1.38C23.312 2.73 23.5 2.378 23.5 2.001s-0.188-0.729-0.559-0.972C22.315 0.719 20.8 1e-3 20.25 1e-3 19.561 1e-3 19 0.562 19 1.251V7h-6.5V4.32l2.997-1.38C15.812 2.73 16 2.378 16 2.001s-0.188-0.729-0.559-0.972C14.815 0.719 13.3 1e-3 12.75 1e-3c-0.689 0-1.25 0.561-1.25 1.25V7H5V4.32l2.997-1.38C8.312 2.73 8.5 2.378 8.5 2.001S8.312 1.272 7.941 1.029C7.315 0.719 5.8 1e-3 5.25 1e-3 4.561 1e-3 4 0.562 4 1.251V7H3.081C1.382 7 0 8.382 0 10.081c0 0.33 0.053 0.658 0.158 0.975L3 19.581V20.5C3 22.43 4.57 24 6.5 24h4c0.276 0 0.5-0.224 0.5-0.5V21c0-0.552 0.449-1 1-1s1 0.448 1 1v2.5c0 0.276 0.224 0.5 0.5 0.5h4c1.93 0 3.5-1.57 3.5-3.5v-0.919l2.842-8.526C23.946 10.74 24 10.411 24 10.081 24 8.382 22.618 7 20.919 7zM20 1.25C20 1.112 20.112 1 20.247 1c0.255 0.014 1.347 0.483 2.172 0.886 0.103 0.059 0.105 0.167-4e-3 0.232L20 3.221zM12.5 1.25C12.5 1.112 12.612 1 12.747 1c0.255 0.014 1.35 0.486 2.176 0.89 0.092 0.059 0.115 0.148-4e-3 0.221L12.5 3.221zM5 1.25C5 1.112 5.112 1 5.247 1c0.255 0.014 1.37 0.489 2.196 0.893 0.11 0.059 0.073 0.182-0.017 0.225L5.001 3.221zM17.404 8l-1.076 6H12.5V8zM11.5 14H7.672L6.596 8H11.5zM1 10.081C1 8.934 1.934 8 3.081 8H5.59l1.08 6H2.194l-1.087-3.26C1.036 10.526 1 10.304 1 10.081zM20.026 19.342C20.009 19.393 20 19.446 20 19.5v1c0 1.379-1.122 2.5-2.5 2.5H14v-2c0-1.103-0.897-2-2-2s-2 0.897-2 2v2H6.5C5.122 23 4 21.879 4 20.5v-1c0-0.054-9e-3-0.107-0.026-0.158L2.527 15h18.946zM22.894 10.739 21.807 14H17.33l1.08-6h2.509C22.066 8 23 8.934 23 10.081c0 0.224-0.036 0.445-0.106 0.658z" />
</svg>