<svg id="staff_wizard_Layer_1" viewBox="0 0 24 24" fill="currentColor" width="32" height="32" data-name="Layer 1" xmlns="http://www.w3.org/2000/svg" xmlns:xlink="http://www.w3.org/1999/xlink">
    <title>staff-wizard</title>
    <path d="M23.956 23.249l-0.707 0.707-12.603-12.602C8.222 8.978 9.162 6.016 9.469 5.242 8.605 2.467 6.717 1.001 4 1.001c-1.654 0-3 1.346-3 3 0 1.103 0.897 2 2 2 0.551 0 1-0.448 1-1v-0.5c0-0.276 0.224-0.5 0.5-0.5S5 4.225 5 4.501c-3e-3 0.228 8e-3 0.472-8e-3 0.579C4.95 6.145 4.076 7.001 3 7.001c-1.654 0-3-1.346-3-3C0 1.794 1.794 0 4 0c3.278-0.018 5.631 1.948 6.534 5.314-0.133 0.321-1.518 2.927 0.816 5.328zM16.195 5.787 13.594 4.486l2.601-1.3 1.3-2.601 1.3 2.601 2.601 1.3-2.601 1.301-1.3 2.6zM15.831 4.486 16.94 5.041 17.495 6.15 18.05 5.041l1.109-0.555-1.109-0.554-0.555-1.11-0.555 1.11zM5.141 12.832l2.246 1.123-2.246 1.123-1.123 2.245-1.123-2.245-2.246-1.123 2.246-1.123 1.123-2.245zM5.15 13.955 4.396 13.578 4.019 12.823 3.642 13.578 2.888 13.955l0.754 0.377 0.377 0.755 0.377-0.755z" />
</svg>