<svg id="stairs_Layer_1" viewBox="0 0 24 24" fill="currentColor" width="32" height="32" data-name="Layer 1" xmlns="http://www.w3.org/2000/svg" xmlns:xlink="http://www.w3.org/1999/xlink">
    <title>stairs</title>
    <path d="M24 0.499c0 0.276-0.223 0.5-0.498 0.501l-2.991 9e-3h-5e-3c-0.139 0-0.264 0.051-0.357 0.145-0.096 0.094-0.148 0.221-0.148 0.355V4.5c0 0.276-0.224 0.5-0.5 0.5h-3.5c-0.552 0-1 0.449-1 1v3.5c0 0.276-0.224 0.5-0.5 0.5h-3.5c-0.551 0-1 0.449-1 1v3.5c0 0.276-0.224 0.5-0.5 0.5h-3.5c-0.551 0-1 0.449-1 1v3.5c0 0.276-0.224 0.5-0.5 0.5h-2.5c-0.551 0-1 0.449-1 1v2.5c0 0.276-0.224 0.5-0.5 0.5s-0.5-0.224-0.5-0.5V21c0-1.103 0.897-2 2-2h2v-3c0-1.103 0.897-2 2-2h3v-3c0-1.103 0.897-2 2-2h3V6c0-1.103 0.897-2 2-2h3V1.509c0-0.403 0.157-0.781 0.444-1.065 0.286-0.283 0.662-0.401 1.068-0.435L23.498 0h2e-3c0.275 0 0.499 0.223 0.5 0.499z" />
</svg>