<svg id="standard_definition_Layer_1" viewBox="0 0 24 24" fill="currentColor" width="32" height="32" data-name="Layer 1" xmlns="http://www.w3.org/2000/svg" xmlns:xlink="http://www.w3.org/1999/xlink">
    <title>standard-definition</title>
    <path d="M19.5 2h-15C2.019 2 0 4.019 0 6.5v11C0 19.981 2.019 22 4.5 22h15c2.481 0 4.5-2.019 4.5-4.5v-11C24 4.019 21.981 2 19.5 2zM23 17.5c0 1.93-1.57 3.5-3.5 3.5h-15C2.57 21 1 19.43 1 17.5v-11C1 4.57 2.57 3 4.5 3h15C21.43 3 23 4.57 23 6.5zM16 7h-1c-1.103 0-2 0.897-2 2v6c0 1.103 0.897 2 2 2h1c2.206 0 4-1.794 4-4v-2c0-2.206-1.794-4-4-4zM19 13c0 1.654-1.346 3-3 3h-1c-0.552 0-1-0.449-1-1V9c0-0.551 0.448-1 1-1h1c1.654 0 3 1.346 3 3zM11 14.25C11 15.767 9.767 17 8.25 17H6.449c-0.979 0-1.892-0.526-2.382-1.375-0.139-0.239-0.057-0.545 0.183-0.683 0.235-0.138 0.544-0.057 0.683 0.183C5.245 15.665 5.827 16 6.45 16h1.801c0.965 0 1.75-0.785 1.75-1.75 0-0.732-0.524-1.351-1.246-1.472l-2.694-0.575c-1.184-0.197-2.06-1.23-2.06-2.454 0-1.517 1.233-2.75 2.75-2.75h1.801c0.979 0 1.892 0.526 2.382 1.375 0.139 0.239 0.057 0.545-0.183 0.683-0.236 0.136-0.545 0.056-0.683-0.183-0.312-0.54-0.894-0.875-1.517-0.875H6.75C5.785 7.999 5 8.784 5 9.749c0 0.732 0.524 1.351 1.246 1.472l2.694 0.575c1.184 0.197 2.06 1.23 2.06 2.454z" />
</svg>