<svg id="stapler_paper_Layer_1" viewBox="0 0 24 24" fill="currentColor" width="32" height="32" data-name="Layer 1" xmlns="http://www.w3.org/2000/svg" xmlns:xlink="http://www.w3.org/1999/xlink">
    <title>stapler-paper</title>
    <path d="M23.997 5.618c-5e-3-1.351-0.919-2.539-2.222-2.889L11.92 0.085c-0.621-0.16-1.27-0.066-1.826 0.266-0.537 0.322-0.883 0.84-1.084 1.43-0.277 0.815-0.07 1.655 0.992 1.858V4.51c0 0.827 0.673 1.5 1.5 1.5H18v2h-4.999l1 1h7.498c1.341 0.029 2.532-1.165 2.499-2.506zM11.002 4.51V3.906l4.124 1.104h-3.625c-0.275 0-0.5-0.224-0.499-0.5zM22.56 7.568C22.276 7.853 21.899 8.01 21.5 8.01h-2.499V5.291c-0.039-0.18-0.187-0.33-0.371-0.379l-8.498-2.274C9.921 2.576 9.854 2.417 9.967 2.077c0.239-0.715 0.982-1.226 1.7-1.024l9.849 2.643c0.87 0.233 1.479 1.025 1.482 1.926L23 6.507c0 0.399-0.155 0.776-0.44 1.061zM11.228 9.035C10.567 8.374 9.688 8.01 8.754 8.01H6.619c-0.922 0-1.824 0.374-2.475 1.025l-3.12 3.121c-1.365 1.365-1.365 3.585 0 4.95l5.859 5.86c0.66 0.661 1.539 1.025 2.474 1.025s1.813-0.364 2.474-1.025l4.188-4.189c0.661-0.661 1.025-1.54 1.025-2.475s-0.364-1.814-1.025-2.475zM8.754 9.01c0.353 0 0.693 0.077 1.006 0.215l-1.659 1.66c-0.195 0.195-0.513 0.196-0.708 0L5.699 9.19c0.291-0.115 0.603-0.18 0.92-0.18zM15.312 18.07l-4.188 4.189c-0.946 0.945-2.592 0.943-3.534 0l-5.859-5.86c-0.974-0.975-0.974-2.561 0-3.536l3.113-3.114 1.842 1.844c0.293 0.292 0.677 0.438 1.06 0.438s0.768-0.146 1.061-0.438l1.781-1.783 4.723 4.724c0.473 0.472 0.732 1.1 0.732 1.768s-0.26 1.296-0.731 1.768zM22 6.01c0 0.552-0.449 1-1 1s-1-0.448-1-1 0.449-1 1-1 1 0.448 1 1z" />
</svg>