<svg id="star_shooting_Layer_1" viewBox="0 0 24 24" fill="currentColor" width="32" height="32" data-name="Layer 1" xmlns="http://www.w3.org/2000/svg" xmlns:xlink="http://www.w3.org/1999/xlink">
    <title>star-shooting</title>
    <path d="M23.854 0.854l-11 11C12.756 11.952 12.628 12 12.5 12s-0.256-0.049-0.354-0.146c-0.195-0.195-0.195-0.512 0-0.707l11-11.001c0.195-0.195 0.512-0.195 0.707 0s0.195 0.512 1e-3 0.708zM7.5 9c0.128 0 0.256-0.049 0.354-0.146l6-6c0.195-0.195 0.195-0.512 0-0.707s-0.512-0.195-0.707 0l-6 6c-0.195 0.195-0.195 0.512 0 0.707C7.245 8.952 7.373 9 7.5 9zM21.146 10.146l-6 6c-0.195 0.195-0.195 0.512 0 0.707 0.098 0.098 0.226 0.146 0.354 0.146s0.256-0.049 0.354-0.146l6-6c0.195-0.195 0.195-0.512 0-0.707s-0.512-0.195-0.708 0zM11.939 16.644c0.143 0.393 0.027 0.835-0.289 1.102L9.277 19.68l0.979 2.981c0.133 0.401-2e-3 0.847-0.338 1.104-0.338 0.261-0.804 0.279-1.158 0.047l-2.753-1.794-2.708 1.812c-0.166 0.111-0.361 0.166-0.556 0.166-0.213 0-0.426-0.066-0.601-0.197-0.338-0.254-0.48-0.696-0.353-1.102l0.94-3.015-2.369-1.928c-0.327-0.278-0.444-0.724-0.299-1.114 0.144-0.391 0.521-0.654 0.938-0.654H4l1.062-2.853c0.14-0.374 0.507-0.617 0.937-0.617s0.797 0.243 0.937 0.618l1.062 2.852h3.001c0.418 0 0.796 0.265 0.94 0.658zM10.999 16.987H7.652c-0.209 0-0.396-0.13-0.469-0.325l-1.184-3.178-1.183 3.178c-0.073 0.195-0.26 0.325-0.469 0.325H1l2.624 2.135c0.159 0.129 0.223 0.342 0.162 0.536l-1.042 3.339 2.981-1.993c0.167-0.111 0.383-0.113 0.551-4e-3l3.031 1.975-1.086-3.31c-0.064-0.197 0-0.413 0.159-0.544z" />
</svg>