<svg id="star_and_crescent_Layer_1" viewBox="0 0 24 24" fill="currentColor" width="32" height="32" data-name="Layer 1" xmlns="http://www.w3.org/2000/svg" xmlns:xlink="http://www.w3.org/1999/xlink">
    <title>star-and-crescent</title>
    <path d="M23.949 10.573c-0.12-0.327-0.434-0.547-0.782-0.547h-2.501l-0.888-2.49C19.659 7.215 19.346 7 19 7s-0.659 0.217-0.783 0.549l-0.883 2.477h-2.501c-0.349 0-0.662 0.22-0.782 0.546-0.119 0.327-0.021 0.698 0.252 0.928l1.973 1.605-0.783 2.512c-0.106 0.337 0.011 0.706 0.294 0.918 0.146 0.109 0.318 0.167 0.5 0.167 0.166 0 0.326-0.049 0.464-0.141l2.257-1.511 2.294 1.494c0.287 0.188 0.684 0.177 0.965-0.038 0.28-0.215 0.394-0.586 0.281-0.92l-0.815-2.485 1.978-1.611c0.264-0.221 0.36-0.59 0.238-0.917zM20.567 12.762l0.882 2.688-2.45-1.596-2.425 1.652 0.857-2.748-2.128-1.732h2.735l0.961-2.696 0.961 2.696h2.737zM14.895 21.301c-3.334-1.91-6.896-5.356-6.896-9.3s3.561-7.388 6.893-9.298c0.566-0.325 0.845-0.931 0.709-1.544-0.135-0.612-0.645-1.044-1.298-1.101 0 0-0.108-9e-3-0.11-9e-3C7.654-0.465 1.834 3.327 0.372 9.078c-0.9 3.541-0.166 7.074 2.069 9.949 2.422 3.115 6.331 4.974 10.458 4.974 0.468 0 0.918-0.015 1.359-0.052 0.679-0.057 1.206-0.498 1.345-1.123 0.134-0.604-0.145-1.203-0.708-1.525zM14.627 22.61c-0.034 0.15-0.17 0.319-0.453 0.343-0.414 0.035-0.837 0.048-1.275 0.048-3.82 0-7.435-1.715-9.669-4.588-2.041-2.625-2.712-5.853-1.89-9.089C2.6 4.372 7.408 1 13.004 1c0.367 0 0.737 0.014 1.111 0.044l0.039-0.499 0.063 0.507c0.318 0.028 0.393 0.252 0.407 0.32 0.016 0.068 0.043 0.305-0.23 0.462-3.574 2.049-7.395 5.795-7.395 10.165s3.821 8.118 7.398 10.168c0.262 0.15 0.247 0.359 0.23 0.443z" />
</svg>