<svg id="star_christmas_Layer_1" viewBox="0 0 24 24" fill="currentColor" width="32" height="32" data-name="Layer 1" xmlns="http://www.w3.org/2000/svg" xmlns:xlink="http://www.w3.org/1999/xlink">
    <title>star-christmas</title>
    <path d="M23.278 10.922 18.555 8.977l3.206-4.808c0.376-0.568 0.305-1.273-0.177-1.754s-1.188-0.553-1.756-0.177l-4.812 3.194-1.94-4.71C12.895 0.284 12.472 0 11.999 0s-0.896 0.283-1.077 0.722l-1.94 4.71-4.813-3.194C3.601 1.863 2.895 1.935 2.414 2.416S1.861 3.603 2.238 4.172l3.205 4.807-4.723 1.945c-0.438 0.18-0.722 0.604-0.722 1.078s0.283 0.897 0.722 1.078l4.723 1.945-3.206 4.808c-0.376 0.568-0.305 1.273 0.177 1.754 0.275 0.276 0.624 0.417 0.979 0.417 0.266 0 0.534-0.079 0.777-0.24l4.812-3.194 1.94 4.71c0.181 0.438 0.604 0.722 1.077 0.722s0.896-0.283 1.077-0.722l1.94-4.71 4.813 3.194c0.243 0.161 0.511 0.239 0.775 0.239 0.354 0 0.704-0.141 0.979-0.417 0.481-0.481 0.553-1.187 0.176-1.756l-3.205-4.807 4.723-1.945c0.438-0.18 0.722-0.604 0.722-1.078s-0.283-0.897-0.721-1.078zM20.381 3.071c0.246-0.164 0.443-4e-3 0.497 0.051 0.053 0.053 0.215 0.247 0.051 0.494l-3.316 4.973-1.56-0.642-0.648-1.574zM3.072 3.618c-0.165-0.249-3e-3-0.442 0.05-0.496 0.053-0.055 0.248-0.213 0.496-0.051l4.977 3.303-0.648 1.574-1.56 0.642zM3.619 20.929c-0.248 0.162-0.444 3e-3-0.497-0.051-0.053-0.053-0.215-0.247-0.051-0.494l3.316-4.973 1.56 0.642 0.648 1.574zM20.928 20.383c0.165 0.249 3e-3 0.442-0.05 0.496-0.054 0.054-0.25 0.212-0.496 0.051l-4.977-3.303 0.648-1.574 1.56-0.642zM22.898 12.154 15.48 15.209c-0.123 0.051-0.221 0.149-0.271 0.272l-3.055 7.418c-0.07 0.169-0.236 0.169-0.307 0l-3.055-7.418c-0.051-0.123-0.148-0.221-0.271-0.272l-7.418-3.055C1.018 12.119 1 12.051 1 12.001s0.018-0.118 0.103-0.153l7.418-3.055c0.123-0.051 0.221-0.149 0.271-0.272l3.055-7.418C11.882 1.019 11.95 1 12 1s0.118 0.018 0.153 0.103l3.055 7.418c0.051 0.123 0.148 0.221 0.271 0.272l7.418 3.055C22.982 11.883 23 11.951 23 12.001s-0.018 0.118-0.102 0.153z" />
</svg>