<svg id="star_microphone_Layer_1" viewBox="0 0 24 24" fill="currentColor" width="32" height="32" data-name="Layer 1" xmlns="http://www.w3.org/2000/svg" xmlns:xlink="http://www.w3.org/1999/xlink">
    <title>star-microphone</title>
    <path d="M23.916 16.952C23.709 16.383 23.185 16 22.61 16h-2.319l-0.827-2.287c-0.201-0.541-0.724-0.905-1.302-0.905s-1.102 0.364-1.304 0.909L16.032 16h-2.319c-0.563 0-1.1 0.391-1.305 0.948-0.199 0.544-0.037 1.162 0.413 1.546l1.848 1.503-0.731 2.197c-0.175 0.562 0.023 1.175 0.494 1.528 0.242 0.182 0.53 0.277 0.833 0.277 0.277 0 0.544-0.081 0.772-0.235l2.136-1.429 2.175 1.417c0.492 0.318 1.137 0.294 1.605-0.065 0.467-0.36 0.656-0.979 0.468-1.545l-0.754-2.153 1.838-1.498c0.446-0.375 0.611-0.994 0.411-1.539zM22.868 17.721l-2.104 1.715c-0.164 0.133-0.227 0.354-0.156 0.553l0.867 2.478c0.052 0.156 0 0.329-0.131 0.429-0.131 0.104-0.314 0.109-0.451 0.02l-2.45-1.597c-0.167-0.107-0.386-0.107-0.552 4e-3l-2.411 1.613c-0.133 0.091-0.319 0.083-0.449-0.012-0.132-0.1-0.188-0.272-0.141-0.422l0.838-2.516c0.065-0.197 2e-3-0.415-0.159-0.546l-2.107-1.714c-0.124-0.105-0.17-0.279-0.113-0.433C13.41 17.126 13.567 17 13.714 17h2.67c0.211 0 0.398-0.132 0.47-0.33l0.944-2.609c0.113-0.303 0.617-0.299 0.729-4e-3l0.945 2.613c0.071 0.198 0.259 0.33 0.47 0.33h2.67c0.147 0 0.305 0.126 0.366 0.296 0.057 0.152 0.011 0.325-0.11 0.425zM12 1C8.836 1 6.158 3.112 5.295 6H9.5C9.776 6 10 6.224 10 6.5S9.776 7 9.5 7H5.08C5.033 7.328 5 7.66 5 8v1.5h4.5C9.776 9.5 10 9.724 10 10s-0.224 0.5-0.5 0.5H5V12c0 0.34 0.04 0.671 0.088 1H9.5c0.276 0 0.5 0.224 0.5 0.5S9.776 14 9.5 14H5.317c0.728 2.418 2.716 4.339 5.282 4.859 0.271 0.055 0.445 0.319 0.391 0.59-0.054 0.273-0.326 0.445-0.59 0.391C6.692 19.088 4 15.79 4 12V8c0-4.411 3.588-8 8-8s8 3.589 8 8v2.5c0 0.276-0.224 0.5-0.5 0.5S19 10.776 19 10.5h-4.5c-0.276 0-0.5-0.224-0.5-0.5s0.224-0.5 0.5-0.5H19V8c0-0.34-0.033-0.672-0.08-1H14.5C14.224 7 14 6.776 14 6.5S14.224 6 14.5 6h4.205C17.842 3.112 15.164 1 12 1zM12 23.5c0 0.276-0.224 0.5-0.5 0.5h-0.595C4.892 24 0 19.065 0 13c0-0.276 0.224-0.5 0.5-0.5S1 12.724 1 13c0 5.514 4.443 10 9.905 10H11.5c0.276 0 0.5 0.224 0.5 0.5z" />
</svg>