<svg id="star_octogram_Layer_1" viewBox="0 0 24 24" fill="currentColor" width="32" height="32" data-name="Layer 1" xmlns="http://www.w3.org/2000/svg" xmlns:xlink="http://www.w3.org/1999/xlink">
    <title>star-octogram</title>
    <path d="M22.955 10.246 21 8.291V5.516c0-1.379-1.121-2.5-2.5-2.5h-2.775l-1.963-1.963c-0.975-0.975-2.561-0.975-3.535 0L8.265 3.016H5.501c-1.378 0-2.5 1.121-2.5 2.5v2.765l-1.955 1.954c-0.472 0.473-0.732 1.101-0.732 1.768s0.26 1.296 0.732 1.768l1.955 1.955v2.775c0 1.379 1.122 2.5 2.5 2.5h2.775l1.962 1.963c0.487 0.487 1.127 0.73 1.768 0.73s1.281-0.243 1.768-0.73l1.962-1.963h2.765c1.379 0 2.5-1.121 2.5-2.5v-2.765l1.955-1.954c0.975-0.976 0.974-2.562-1e-3-3.536zM22.248 13.074l-2.102 2.101C20.052 15.269 20 15.396 20 15.529v2.972c0 0.827-0.673 1.5-1.5 1.5h-2.972c-0.133 0-0.26 0.053-0.354 0.146l-2.108 2.109c-0.584 0.583-1.536 0.585-2.122 0l-2.109-2.109c-0.094-0.094-0.221-0.146-0.354-0.146H5.499c-0.827 0-1.5-0.673-1.5-1.5v-2.982c0-0.133-0.053-0.26-0.146-0.354l-2.101-2.102c-0.284-0.283-0.439-0.659-0.439-1.061s0.156-0.777 0.439-1.061L3.853 8.84c0.094-0.094 0.146-0.221 0.146-0.354V5.514c0-0.827 0.673-1.5 1.5-1.5H8.47c0.133 0 0.26-0.053 0.354-0.146l2.109-2.109c0.585-0.585 1.537-0.583 2.121 0l2.109 2.109c0.094 0.094 0.221 0.146 0.354 0.146h2.982c0.827 0 1.5 0.673 1.5 1.5v2.982c0 0.133 0.053 0.26 0.146 0.354l2.102 2.102c0.584 0.584 0.584 1.536 1e-3 2.122z" />
</svg>