<svg id="star_Layer_1" viewBox="0 0 24 24" fill="currentColor" width="32" height="32" data-name="Layer 1" xmlns="http://www.w3.org/2000/svg" xmlns:xlink="http://www.w3.org/1999/xlink">
    <title>star</title>
    <path d="M23.855 8.951C23.468 7.766 22.414 7 21.167 7H16.36l-1.668-5.037C14.309 0.77 13.252 0 11.999 0s-2.31 0.771-2.691 1.959L7.638 7H2.833C1.587 7 0.531 7.766 0.144 8.951c-0.387 1.184 0.013 2.425 1.019 3.161l4.041 2.954-1.535 4.749c-0.385 1.191 0.022 2.433 1.038 3.164 0.996 0.719 2.333 0.713 3.33-0.016L12 20.049l3.963 2.914c0.509 0.373 1.093 0.559 1.677 0.559 0.575 0 1.15-0.181 1.653-0.543 1.015-0.73 1.422-1.973 1.037-3.164l-1.534-4.749 4.04-2.954c1.006-0.735 1.405-1.975 1.019-3.161zM22.247 11.304l-4.332 3.167c-0.175 0.127-0.247 0.352-0.181 0.558l1.646 5.093c0.248 0.771-0.015 1.573-0.67 2.045-0.656 0.472-1.501 0.467-2.154-0.01l-4.259-3.131c-0.177-0.13-0.416-0.13-0.593 0l-4.259 3.131c-0.645 0.471-1.509 0.475-2.153 0.011-0.656-0.473-0.919-1.275-0.671-2.045l1.646-5.093c0.066-0.206-6e-3-0.43-0.181-0.558l-4.332-3.168c-0.65-0.476-0.909-1.278-0.659-2.043C1.345 8.495 2.028 8 2.834 8h5.167c0.215 0 0.407-0.138 0.475-0.343l1.785-5.388C10.509 1.498 11.192 1 12.002 1s1.494 0.498 1.743 1.273l1.782 5.384C15.594 7.862 15.786 8 16.002 8h5.168c0.805 0 1.486 0.495 1.736 1.261s-8e-3 1.568-0.659 2.043z" />
</svg>