<svg id="stars_Layer_1" viewBox="0 0 24 24" fill="currentColor" width="32" height="32" data-name="Layer 1" xmlns="http://www.w3.org/2000/svg" xmlns:xlink="http://www.w3.org/1999/xlink">
    <title>stars</title>
    <path d="M13.908 24.003c-0.476 0-0.951-0.155-1.374-0.467l-3.036-2.398-3.022 2.389c-0.829 0.609-1.928 0.615-2.747 0.022-0.833-0.599-1.167-1.618-0.851-2.596l1.049-3.63-2.967-2.125c-0.842-0.616-1.163-1.61-0.84-2.597C0.443 11.613 1.288 11 2.327 11h3.801l1.159-3.747c0.321-0.999 1.168-1.616 2.212-1.616s1.892 0.618 2.21 1.611l1.16 3.751h3.801c1.039 0 1.885 0.614 2.207 1.601 0.322 0.986 2e-3 1.98-0.836 2.594l-2.959 2.127 1.042 3.646c0.311 0.962-0.023 1.98-0.856 2.58-0.42 0.303-0.89 0.454-1.36 0.456zM9.498 20c0.109 0 0.219 0.036 0.31 0.107l3.333 2.634c0.472 0.349 1.054 0.348 1.543-3e-3 0.488-0.353 0.669-0.904 0.484-1.479l-1.144-4c-0.059-0.203 0.018-0.421 0.188-0.544l3.24-2.33c0.481-0.353 0.659-0.904 0.473-1.474-0.186-0.571-0.655-0.912-1.256-0.912h-4.17c-0.219 0-0.413-0.143-0.478-0.352l-1.268-4.099C10.57 6.979 10.1 6.636 9.496 6.636S8.422 6.979 8.238 7.553l-1.266 4.094c-0.064 0.209-0.258 0.352-0.478 0.352H2.327c-0.6 0-1.07 0.341-1.257 0.912-0.186 0.57-8e-3 1.123 0.477 1.477l3.249 2.327c0.172 0.123 0.248 0.342 0.189 0.545l-1.152 3.984c-0.19 0.589-9e-3 1.141 0.48 1.492 0.474 0.344 1.084 0.34 1.556-6e-3l3.319-2.624c0.091-0.071 0.201-0.107 0.31-0.106zM21.278 8c-0.255 0-0.51-0.082-0.731-0.245L19.5 6.986l-1.048 0.77c-0.432 0.318-1.016 0.321-1.453 7e-3-0.442-0.319-0.62-0.861-0.452-1.381l0.408-1.262-1.074-0.785c-0.439-0.321-0.614-0.862-0.446-1.379 0.156-0.476 0.579-0.955 1.174-0.955h1.324l0.396-1.152c0.163-0.511 0.624-0.848 1.172-0.848s1.009 0.336 1.176 0.857l0.392 1.143h1.324c0.595 0 1.018 0.479 1.173 0.954 0.169 0.518-6e-3 1.059-0.443 1.379L22.047 5.12l0.408 1.262c0.168 0.519-0.01 1.061-0.453 1.381C21.782 7.921 21.531 8 21.278 8zM19.5 5.865c0.104 0 0.208 0.032 0.296 0.097l1.344 0.987c0.092 0.067 0.185 0.067 0.276 1e-3 0.092-0.066 0.121-0.154 0.086-0.261l-0.52-1.607c-0.066-0.206 6e-3-0.43 0.181-0.558l1.367-0.999c0.091-0.066 0.119-0.154 0.084-0.262-0.052-0.158-0.169-0.264-0.223-0.264h-1.682c-0.214 0-0.403-0.136-0.473-0.338l-0.511-1.49c-0.076-0.234-0.381-0.225-0.449-0.01l-0.515 1.5c-0.069 0.202-0.259 0.338-0.473 0.338h-1.682c-0.054 0-0.171 0.106-0.224 0.265-0.034 0.106-6e-3 0.194 0.086 0.261l1.366 0.999c0.175 0.127 0.247 0.353 0.181 0.558l-0.52 1.606c-0.035 0.107-6e-3 0.196 0.086 0.262 0.088 0.063 0.193 0.06 0.275 0l1.345-0.988c0.088-0.065 0.192-0.097 0.299-0.097z" />
</svg>