<svg id="state_country_Layer_1" viewBox="0 0 24 24" fill="currentColor" width="32" height="32" data-name="Layer 1" xmlns="http://www.w3.org/2000/svg" xmlns:xlink="http://www.w3.org/1999/xlink">
    <title>state-country</title>
    <path d="M12 16.859c0-0.491-0.313-0.926-0.762-1.076L6.866 14.14c-0.558-0.186-1.174-0.188-1.749 7e-3l-4.338 1.63C0.313 15.933 0 16.368 0 16.859c0 0.579 0.44 1.04 1 1.112v5.028H0.5c-0.276 0-0.5 0.224-0.5 0.5s0.224 0.5 0.5 0.5h11c0.276 0 0.5-0.224 0.5-0.5s-0.224-0.5-0.5-0.5H11v-5.028c0.56-0.072 1-0.533 1-1.112zM4 23H2v-5h2zM7 23H5v-5h2zM10 23H8v-5h2zM10.859 17H1.141C1.063 17 1 16.937 1 16.859c0-0.061 0.039-0.115 0.114-0.141l4.337-1.629c0.18-0.061 0.368-0.09 0.555-0.09 0.181 0 0.36 0.028 0.526 0.083l4.371 1.642C10.961 16.744 11 16.798 11 16.859 11 16.936 10.937 17 10.859 17zM23.853 22.146c0.195 0.195 0.195 0.512 0 0.707-0.098 0.098-0.226 0.146-0.354 0.146s-0.256-0.049-0.354-0.146l-1.707-1.707C21.345 21.053 21.216 21 21.084 21h-3.086c-1.103 0-2-0.897-2-2v-3.011c0-0.155-0.07-0.299-0.193-0.395l-8.228-6.4C7.209 8.908 6.998 8.476 6.998 8.01V4.999c0-0.551-0.449-1-1-1H2.912c-0.4 0-0.777-0.156-1.061-0.439L0.146 1.854c-0.195-0.196-0.195-0.512 0-0.708s0.512-0.195 0.707 0L2.56 2.853c0.093 0.093 0.222 0.146 0.354 0.146H6c1.103 0 2 0.897 2 2V8.01c0 0.153 0.072 0.301 0.193 0.395l8.228 6.4C16.789 15.091 17 15.523 17 15.989V19c0 0.552 0.448 1 1 1h3.086c0.395 0 0.781 0.16 1.061 0.439zM23.499 9h-0.5V3.972c0.56-0.072 1-0.533 1-1.112 0-0.492-0.313-0.927-0.763-1.076L18.865 0.14C18.3-0.048 17.7-0.049 17.116 0.146l-4.336 1.63C12.313 1.931 12 2.366 12 2.859c0 0.579 0.44 1.04 1 1.112v5.028h-0.5c-0.276 0-0.5 0.224-0.5 0.5s0.224 0.5 0.5 0.5h11c0.276 0 0.5-0.224 0.5-0.5S23.776 8.999 23.499 9zM15.999 9h-2V4h2zM18.999 9h-2V4h2zM21.999 9h-2V4h2zM22.858 3h-9.719c-0.077 0-0.141-0.063-0.141-0.141 0-0.061 0.038-0.114 0.114-0.14l4.335-1.63c0.183-0.061 0.371-0.091 0.556-0.091 0.181 0 0.358 0.028 0.527 0.084l4.372 1.643c0.057 0.019 0.096 0.073 0.096 0.133 0 0.078-0.063 0.141-0.14 0.142z" />
</svg>