<svg id="stationary_bike_Layer_1" viewBox="0 0 24 24" fill="currentColor" width="32" height="32" data-name="Layer 1" xmlns="http://www.w3.org/2000/svg" xmlns:xlink="http://www.w3.org/1999/xlink">
    <title>stationary-bike</title>
    <path d="M19.658 12.525c-0.944-0.314-1.772-0.599-2.536-0.865 0.753-2.541 1.251-5.079 1.539-6.806C18.84 3.78 19.762 3 20.853 3c1.313 0 2.483-0.785 2.982-2l0.127-0.311c0.105-0.255-0.017-0.547-0.272-0.652-0.253-0.104-0.548 0.019-0.652 0.273l-0.127 0.311C22.567 1.459 21.759 2 20.854 2c-1.583 0-2.919 1.132-3.179 2.69-0.281 1.688-0.766 4.163-1.497 6.638-0.615-0.217-1.19-0.423-1.7-0.605C11.077 9.504 9.669 8.999 7 8.999c-0.593 0-1.166 0.082-1.716 0.222L3.677 3.999H6.5c0.276 0 0.5-0.224 0.5-0.5s-0.224-0.5-0.5-0.5h-6c-0.276 0-0.5 0.224-0.5 0.5s0.224 0.5 0.5 0.5h2.13L4.332 9.53C1.792 10.581 0 13.084 0 15.999c0 3.164 2.112 5.842 5 6.705v0.795c0 0.276 0.224 0.5 0.5 0.5s0.5-0.224 0.5-0.5v-0.58c0.328 0.047 0.66 0.08 1 0.08h11v0.5c0 0.276 0.224 0.5 0.5 0.5s0.5-0.224 0.5-0.5v-0.534c2.786-0.177 5-2.249 5-4.799 0-2.665-1.371-4.454-4.342-5.641zM18.625 22H7c-3.309 0-6-2.691-6-6s2.691-6 6-6c2.495 0 3.76 0.453 7.14 1.665 0.615 0.22 4.118 1.447 5.174 1.799 3.267 1.307 3.686 3.2 3.686 4.703C23 20.534 20.729 22 18.625 22zM12.5 15.5H9.949C9.709 14.084 8.483 13 7 13c-1.654 0-3 1.346-3 3s1.346 3 3 3c1.483 0 2.71-1.084 2.949-2.5H12.5c0.276 0 0.5-0.224 0.5-0.5s-0.224-0.5-0.5-0.5zM7 18c-1.103 0-2-0.897-2-2s0.897-2 2-2 2 0.897 2 2-0.897 2-2 2z" />
</svg>