<svg id="steam_iron_Layer_1" viewBox="0 0 24 24" fill="currentColor" width="32" height="32" data-name="Layer 1" xmlns="http://www.w3.org/2000/svg" xmlns:xlink="http://www.w3.org/1999/xlink">
    <title>steam-iron</title>
    <path d="M17.5 4h-4C13.224 4 13 4.224 13 4.5S13.224 5 13.5 5h4c3.033 0 5.5 2.468 5.5 5.5V12H10c-4.949 0-9.102 3.542-9.884 8.473C-0.431 22.117 1.108 24.29 3.5 24h16c2.481 0 4.5-2.019 4.5-4.5v-9C24 6.916 21.084 4 17.5 4zM10 13h13v6.5c0 0.171-0.027 0.335-0.051 0.5H1.23c0.921-4.088 4.516-7 8.77-7zM19.5 23h-16c-1.025 0-1.737-0.227-2.115-0.674C1.05 21.931 1.023 21.405 1.057 21h21.592c-0.564 1.178-1.758 2-3.149 2zM3.143 8H3.49l1.186 1.589c0.388 0.544 1.264 0.544 1.652-5e-3L7.494 8h0.364c1.603 0 2.976-1.183 3.127-2.692 0.084-0.848-0.192-1.693-0.76-2.32-0.492-0.544-1.167-0.887-1.89-0.969C7.923 0.829 6.788 0 5.5 0S3.077 0.828 2.665 2.019c-0.722 0.082-1.397 0.425-1.89 0.969-0.567 0.626-0.844 1.472-0.76 2.32C0.166 6.818 1.54 8 3.143 8zM1.517 3.658c0.405-0.44 0.98-0.696 1.533-0.653 0.238 0 0.443-0.168 0.49-0.401C3.727 1.675 4.551 1 5.5 1s1.773 0.675 1.96 1.604c0.047 0.233 0.252 0.401 0.49 0.401 0.578-0.027 1.145 0.227 1.533 0.653 0.384 0.425 0.564 0.975 0.506 1.55C9.888 6.213 8.952 7 7.857 7H7.24C7.081 7 6.931 7.075 6.837 7.204L5.476 8.989 4.141 7.201C4.046 7.074 3.898 7 3.74 7H3.142C2.047 7 1.11 6.213 1.01 5.208 0.952 4.633 1.133 4.083 1.517 3.658z" />
</svg>