<svg id="stethoscope_Layer_1" viewBox="0 0 24 24" fill="currentColor" width="32" height="32" data-name="Layer 1" xmlns="http://www.w3.org/2000/svg" xmlns:xlink="http://www.w3.org/1999/xlink">
    <title>stethoscope</title>
    <path d="M24 8.5C24 7.122 22.879 6 21.5 6S19 7.122 19 8.5c0 1.207 0.86 2.217 2 2.449V16c0 3.86-3.141 7-7 7s-7-3.14-7-7v-1.025c3.351-0.257 6-3.059 6-6.475v-5C13 1.57 11.43 0 9.5 0h-1C8.224 0 8 0.224 8 0.5S8.224 1 8.5 1h1C10.879 1 12 2.122 12 3.5v5c0 3.033-2.468 5.5-5.5 5.5S1 11.533 1 8.5v-5C1 2.122 2.121 1 3.5 1h1C4.776 1 5 0.776 5 0.5S4.776 0 4.5 0h-1C1.57 0 0 1.57 0 3.5v5c0 3.415 2.649 6.218 6 6.475V16c0 4.411 3.589 8 8 8s8-3.589 8-8v-5.051c1.14-0.232 2-1.242 2-2.449zM21.5 10C20.673 10 20 9.327 20 8.5S20.673 7 21.5 7 23 7.673 23 8.5 22.327 10 21.5 10z" />
</svg>