<svg id="stomach_ache_Layer_1" viewBox="0 0 24 24" fill="currentColor" width="32" height="32" data-name="Layer 1" xmlns="http://www.w3.org/2000/svg" xmlns:xlink="http://www.w3.org/1999/xlink">
    <title>stomach-ache</title>
    <path d="M15.5 2.999h-6c-1.619 0-3.13-1.127-3.516-2.624-0.069-0.267-0.344-0.427-0.609-0.36-0.268 0.069-0.429 0.342-0.36 0.609 0.463 1.799 2.096 3.144 3.984 3.349v10.528c-0.036 2.666-3.04 3.444-3.219 3.572-2.139 0.347-3.781 2.192-3.781 4.427v1c0 0.276 0.224 0.5 0.5 0.5s0.5-0.224 0.5-0.5v-1c0-1.74 1.28-3.176 2.946-3.444 0.285 0.173 0.565 0.348 0.834 0.518C8.726 20.808 10.564 22 14.996 22c3.58 0 7.075-2.991 7.003-6.5V9.499c0-3.584-2.916-6.5-6.499-6.5zM15.5 3.999c3.033 0 5.5 2.467 5.5 5.5v2.48C20.31 11.522 19.257 11 18 11c-1.092 0-1.8 0.271-2.485 0.533-0.627 0.24-1.22 0.467-2.127 0.467-1.469 0-2.899-0.912-3.387-1.255V4zM19.381 19.152c-1.172 1.166-2.839 1.861-4.378 1.847-4.305-0.038-5.821-1.095-7.899-2.405C8.25 18.032 10 16.795 10 14.5v-2.564c0.786 0.467 2.05 1.063 3.387 1.063 1.092 0 1.8-0.271 2.485-0.533 0.627-0.24 1.22-0.467 2.127-0.467 1.443 0 2.613 0.892 3 1.224v2.276c0 1.318-0.575 2.615-1.618 3.653zM2.98 12.359c0.315 0.088 0.644 0.024 0.912-0.185l0.729-0.596 0.518 1.78C5.268 13.739 5.643 14.003 6.044 14c0.512 0.014 0.977-0.456 0.957-0.966V8.191c0-0.012 0-0.024-1e-3-0.037-0.027-0.373-0.256-0.699-0.598-0.851-0.34-0.152-0.737-0.104-1.02 0.115L4.501 8.059 4.113 6.714c-0.206-0.67-1.1-0.942-1.641-0.496L1.534 6.945C1.14 7.25 0.985 7.771 1.146 8.235l1.157 3.504c0.117 0.306 0.364 0.532 0.677 0.62zM2.144 7.736 3.157 7.012l0.58 2.009c0.085 0.326 0.507 0.47 0.774 0.266l1.49-1.066c0 0 0.09 4.833 0.09 4.833l-0.721-2.48c-0.047-0.161-0.171-0.288-0.332-0.338-0.159-0.05-0.335-0.016-0.465 0.09l-1.331 1.078L2.09 7.915c-0.022-0.065 0-0.136 0.054-0.179z" />
</svg>