<svg id="stomach_Layer_1" viewBox="0 0 24 24" fill="currentColor" width="32" height="32" data-name="Layer 1" xmlns="http://www.w3.org/2000/svg" xmlns:xlink="http://www.w3.org/1999/xlink">
    <title>stomach</title>
    <path d="M15.5 2.999h-6c-1.619 0-3.131-1.128-3.516-2.624-0.069-0.268-0.338-0.427-0.609-0.359-0.268 0.069-0.428 0.342-0.359 0.609C5.479 2.424 7.112 3.769 9 3.973v10.528c0 2.58-3.191 3.557-3.22 3.572C3.642 18.42 2 20.265 2 22.5v1C2 23.776 2.224 24 2.5 24S3 23.776 3 23.5v-1c0-1.74 1.28-3.176 2.946-3.444 0.285 0.173 0.565 0.348 0.834 0.518 1.946 1.234 3.785 2.4 8.217 2.426h0.037c1.845 0 3.685-0.778 5.053-2.138C21.32 18.635 22 17.086 22 15.5V9.499c0-3.584-2.916-6.5-6.5-6.5zM15.5 3.999c3.032 0 5.5 2.468 5.5 5.5v2.48C20.31 11.522 19.257 11 18 11c-1.093 0-1.801 0.271-2.485 0.533C14.887 11.773 14.294 12 13.387 12c-1.469 0-2.899-0.912-3.387-1.255V4zM19.382 19.152c-1.165 1.158-2.788 1.847-4.35 1.847h-0.029c-4.145-0.023-5.786-1.064-7.688-2.271-0.07-0.045-0.141-0.09-0.212-0.135 1.146-0.562 2.896-1.799 2.896-4.094v-2.564c0.786 0.467 2.05 1.063 3.387 1.063 1.093 0 1.801-0.271 2.485-0.533 0.628-0.24 1.221-0.467 2.128-0.467 1.443 0 2.613 0.892 3 1.224v2.276c0 1.318-0.575 2.615-1.617 3.654z" />
</svg>