<svg id="stop_circle_Layer_1" viewBox="0 0 24 24" fill="currentColor" width="32" height="32" data-name="Layer 1" xmlns="http://www.w3.org/2000/svg" xmlns:xlink="http://www.w3.org/1999/xlink">
    <title>stop-circle</title>
    <path d="M12 0C5.383 0 0 5.383 0 12s5.383 12 12 12 12-5.383 12-12S18.617 0 12 0zM12 23C5.935 23 1 18.065 1 12S5.935 1 12 1 23 5.935 23 12 18.065 23 12 23zM14.5 7h-5C8.122 7 7 8.122 7 9.5v5C7 15.878 8.122 17 9.5 17h5c1.378 0 2.5-1.122 2.5-2.5v-5C17 8.122 15.878 7 14.5 7zM16 14.5c0 0.827-0.673 1.5-1.5 1.5h-5C8.673 16 8 15.327 8 14.5v-5C8 8.673 8.673 8 9.5 8h5C15.327 8 16 8.673 16 9.5z" />
</svg>