<svg id="stopwatch_Layer_1" viewBox="0 0 24 24" fill="currentColor" width="32" height="32" data-name="Layer 1" xmlns="http://www.w3.org/2000/svg" xmlns:xlink="http://www.w3.org/1999/xlink">
    <title>stopwatch</title>
    <path d="M12.5 11.071V6.5C12.5 6.224 12.276 6 12 6s-0.5 0.224-0.5 0.5v4.571c-0.86 0.224-1.5 1-1.5 1.929 0 1.103 0.897 2 2 2s2-0.897 2-2c0-0.929-0.64-1.705-1.5-1.929zM12 14c-0.552 0-1-0.449-1-1s0.448-1 1-1 1 0.449 1 1-0.448 1-1 1zM23 3c-1.383 0-2-0.617-2-2 0-0.276-0.224-0.5-0.5-0.5S20 0.724 20 1c0 0.765 0.173 1.388 0.494 1.869l-1.513 1.637c-1.779-1.465-4.028-2.37-6.481-2.481V0.5C12.5 0.224 12.276 0 12 0s-0.5 0.224-0.5 0.5v1.525C9.047 2.136 6.798 3.041 5.019 4.506L3.506 2.869C3.827 2.388 4 1.765 4 1 4 0.724 3.776 0.5 3.5 0.5S3 0.724 3 1c0 1.383-0.617 2-2 2-0.276 0-0.5 0.224-0.5 0.5S0.724 4 1 4c0.721 0 1.32-0.149 1.789-0.434l1.489 1.612C2.257 7.174 1 9.942 1 13c0 6.065 4.935 11 11 11s11-4.935 11-11c0-3.058-1.257-5.827-3.278-7.822l1.489-1.612C21.68 3.851 22.279 4 23 4c0.276 0 0.5-0.224 0.5-0.5S23.276 3 23 3zM22 13c0 5.523-4.477 10-10 10S2 18.523 2 13 6.477 3 12 3 22 7.477 22 13z" />
</svg>