<svg id="story_book_Layer_1" viewBox="0 0 24 24" fill="currentColor" width="32" height="32" data-name="Layer 1" xmlns="http://www.w3.org/2000/svg" xmlns:xlink="http://www.w3.org/1999/xlink">
    <title>story-book</title>
    <path d="M19 3.461c3e-3-0.191 0.137-0.356 0.323-0.399l1.418-0.328 0.354-1.418c0.093-0.371 0.716-0.371 0.809 0L22.26 2.74l1.424 0.356C23.87 3.142 24 3.309 24 3.5s-0.13 0.358-0.316 0.404L22.26 4.26 21.904 5.684C21.858 5.87 21.691 6 21.5 6s-0.358-0.13-0.404-0.316l-0.357-1.429-1.43-0.385C19.124 3.82 18.997 3.652 19 3.461zM6.692 6.831l1.49-1.953-1.408-2.166c-0.186-0.295-0.168-0.67 0.039-0.94 0.203-0.268 0.556-0.386 0.879-0.289l2.477 0.792 1.491-1.953c0.21-0.275 0.571-0.391 0.898-0.284 0.323 0.1 0.554 0.395 0.571 0.731l0.079 2.507 2.428 0.844c0.328 0.113 0.549 0.422 0.55 0.77s-0.217 0.659-0.543 0.775l-1.912 0.68 10.048 6.739c0.229 0.153 0.291 0.464 0.137 0.693-0.096 0.144-0.254 0.222-0.416 0.222-0.096 0-0.192-0.027-0.278-0.085l-10.15-6.807-0.132 2.124c-0.01 0.161-0.067 0.315-0.166 0.444-0.108 0.143-0.256 0.244-0.429 0.292-0.073 0.021-0.147 0.031-0.222 0.031-0.262 0-0.515-0.126-0.671-0.348L9.957 7.541 7.525 8.125C7.184 8.198 6.834 8.055 6.65 7.767 6.466 7.478 6.483 7.101 6.692 6.831zM7.796 7.033l2.258-0.542c0.214-0.065 0.43 0.063 0.524 0.197l1.396 1.97 0.154-2.481c0.036-0.33 0.32-0.436 0.332-0.44l2.362-0.84-2.267-0.788c-0.196-0.068-0.329-0.25-0.335-0.457l-0.074-2.319-1.396 1.829c-0.128 0.168-0.349 0.237-0.55 0.173L7.891 2.597 9.212 4.628c0.115 0.177 0.107 0.408-0.021 0.576zM0.309 6.871l1.43 0.385 0.357 1.429C2.142 8.871 2.309 9.001 2.5 9.001s0.358-0.13 0.404-0.316L3.26 7.261 4.684 6.905C4.87 6.859 5 6.692 5 6.501S4.87 6.143 4.684 6.097L3.26 5.741 2.904 4.317c-0.093-0.371-0.716-0.371-0.809 0L1.741 5.735 0.323 6.063C0.137 6.105 3e-3 6.27 0 6.461s0.124 0.36 0.309 0.41zM17.001 20.001h6.5c0.276 0 0.5-0.224 0.5-0.5s-0.224-0.5-0.5-0.5h-6.5c-3.944 0-4.824 2.831-5 4-0.176-1.169-1.056-4-5-4H0.5c-0.276 0-0.5 0.224-0.5 0.5s0.224 0.5 0.5 0.5H7c2.584 0 3.495 1.448 3.819 2.484C10.111 21.7 8.937 21.001 7 21.001H0.5c-0.276 0-0.5 0.224-0.5 0.5s0.224 0.5 0.5 0.5H7c1.263 0 2.242 0.337 2.928 1H0.5c-0.276 0-0.5 0.224-0.5 0.5s0.224 0.5 0.5 0.5h23c0.276 0 0.5-0.224 0.5-0.5s-0.224-0.5-0.5-0.5h-9.428c0.685-0.663 1.664-1 2.928-1h6.5c0.276 0 0.5-0.224 0.5-0.5s-0.224-0.5-0.5-0.5H17c-1.937 0-3.11 0.699-3.819 1.484 0.324-1.035 1.235-2.484 3.82-2.484zM12.261 13.741l-0.356-1.424c-0.093-0.371-0.716-0.371-0.809 0l-0.354 1.418-1.418 0.328c-0.186 0.043-0.32 0.208-0.323 0.399s0.124 0.36 0.308 0.409l1.43 0.385 0.357 1.429c0.046 0.186 0.213 0.316 0.404 0.316s0.358-0.13 0.404-0.316l0.356-1.424 1.424-0.356C13.87 14.859 14 14.692 14 14.501s-0.13-0.358-0.316-0.404z" />
</svg>