<svg id="store_buyer_Layer_1" viewBox="0 0 24 24" fill="currentColor" width="32" height="32" data-name="Layer 1" xmlns="http://www.w3.org/2000/svg" xmlns:xlink="http://www.w3.org/1999/xlink">
    <title>store-buyer</title>
    <path d="M16 15c0 1.654 1.346 3 3 3s3-1.346 3-3-1.346-3-3-3-3 1.346-3 3zM21 15c0 1.103-0.897 2-2 2s-2-0.897-2-2 0.897-2 2-2 2 0.897 2 2zM23.997 23.444c0.031 0.274-0.166 0.522-0.44 0.553-0.02 2e-3-0.038 3e-3-0.058 3e-3-0.251 0-0.467-0.188-0.496-0.444C22.774 21.529 21.052 20 19 20s-3.773 1.529-4.003 3.556c-0.031 0.275-0.287 0.474-0.554 0.44-0.274-0.031-0.472-0.278-0.44-0.553 0.288-2.534 2.436-4.444 4.997-4.444s4.709 1.91 4.997 4.445zM2 11.649V19.5C2 21.43 3.57 23 5.5 23h6c0.276 0 0.5 0.224 0.5 0.5S11.776 24 11.5 24h-6C3.019 24 1 21.981 1 19.5V11c0-0.017 8e-3-0.031 9e-3-0.047C0.386 10.321 0 9.455 0 8.5 0 8.449 2.523 0.351 2.523 0.351 2.588 0.142 2.781 0 3 0h18c0.219 0 0.412 0.142 0.478 0.351 0 0 2.522 8.098 2.522 8.149 0 0.995-0.425 1.945-1.167 2.608-0.204 0.183-0.522 0.167-0.706-0.039s-0.166-0.522 0.04-0.706c0.511-0.458 0.812-1.106 0.832-1.791l-2.366-7.573H17v3.5c0 0.276-0.224 0.5-0.5 0.5S16 4.775 16 4.499V1H8v3.5C8 4.776 7.776 5 7.5 5S7 4.776 7 4.5V1H3.368L1.001 8.573C1.04 9.918 2.146 11 3.5 11h1C5.878 11 7 9.878 7 8.5 7 8.224 7.224 8 7.5 8S8 8.224 8 8.5C8 9.878 9.122 11 10.5 11h3c1.379 0 2.5-1.122 2.5-2.5 0-0.276 0.224-0.5 0.5-0.5S17 8.224 17 8.5c0 1.93-1.57 3.5-3.5 3.5h-3c-1.28 0-2.39-0.698-3-1.726C6.89 11.302 5.78 12 4.5 12h-1c-0.539 0-1.044-0.133-1.5-0.351z" />
</svg>