<svg id="store_alt_Layer_1" viewBox="0 0 24 24" fill="currentColor" width="32" height="32" data-name="Layer 1" xmlns="http://www.w3.org/2000/svg" xmlns:xlink="http://www.w3.org/1999/xlink">
    <title>store-alt</title>
    <path d="M24 8.5c0-0.041-5e-3-0.082-0.015-0.121l-2-8C21.929 0.156 21.729 0 21.5 0h-19C2.271 0 2.071 0.156 2.015 0.379l-2 8C5e-3 8.419 0 8.459 0 8.5c0 0.951 0.382 1.815 1 2.447V20.5C1 22.43 2.57 24 4.5 24h7c1.93 0 3.5-1.57 3.5-3.5v-8.838c0.623-0.297 1.146-0.773 1.5-1.361 0.613 1.017 1.728 1.699 3 1.699h1c0.536 0 1.045-0.122 1.5-0.338V23.5c0 0.276 0.224 0.5 0.5 0.5s0.5-0.224 0.5-0.5V10.987c0-0.013 0-0.026-2e-3-0.039C23.617 10.316 24 9.452 24 8.5zM11.5 23h-7C3.122 23 2 21.878 2 20.5V18h12v2.5c0 1.378-1.122 2.5-2.5 2.5zM14 17H2v-5.338C2.455 11.879 2.964 12 3.5 12h1c1.272 0 2.387-0.682 3-1.699C8.113 11.318 9.228 12 10.5 12h3c0.17 0 0.337-0.012 0.5-0.036zM19.5 11C18.121 11 17 9.878 17 8.5 17 8.224 16.776 8 16.5 8S16 8.224 16 8.5c0 1.378-1.121 2.5-2.5 2.5h-3C9.122 11 8 9.878 8 8.5 8 8.224 7.776 8 7.5 8S7 8.224 7 8.5C7 9.878 5.878 11 4.5 11h-1c-0.625 0-1.198-0.231-1.637-0.612-0.019-0.02-0.039-0.038-0.06-0.054C1.323 9.889 1.017 9.26 1 8.559L2.891 1H7v3.5C7 4.776 7.224 5 7.5 5S8 4.776 8 4.5V1h8v3.5C16 4.776 16.224 5 16.5 5S17 4.776 17 4.5V1h4.109l1.89 7.559C22.968 9.911 21.858 11 20.5 11z" />
</svg>