<svg id="store_slash_Layer_1" viewBox="0 0 24 24" fill="currentColor" width="32" height="32" data-name="Layer 1" xmlns="http://www.w3.org/2000/svg" xmlns:xlink="http://www.w3.org/1999/xlink">
    <title>store-slash</title>
    <path d="M23.85 23.15l-2.43-2.43c0.37-0.67 0.58-1.41 0.58-2.18v-5.97c0 0 0.08-0.08 0.12-0.12 0.76-0.99 1-2.25 0.68-3.45l-1.38-5.07c-0.28-1.69-1.73-2.92-3.45-2.92H6.04c-1.15 0-2.21 0.56-2.86 1.48L0.85 0.15c-0.19-0.2-0.51-0.2-0.7 0s-0.2 0.51 0 0.7l23 23c0.1 0.1 0.23 0.15 0.35 0.15s0.26-0.05 0.35-0.15c0.2-0.2 0.2-0.51 0-0.7zM14.1 13.4c0.58-0.36 1.06-0.86 1.39-1.45 0.68 1.22 1.98 2.05 3.47 2.05 0.74 0 1.43-0.22 2.03-0.59v5.12c0 0.5-0.11 1-0.32 1.45zM6.04 2H8v3.5C8 5.78 8.22 6 8.5 6S9 5.78 9 5.5V2h6v3.5C15 5.78 15.22 6 15.5 6S16 5.78 16 5.5V2h1.96c1.23 0 2.26 0.88 2.48 2.14l1.39 5.12c0.24 0.9 0.06 1.84-0.51 2.58S19.9 13 18.96 13c-1.64 0-2.97-1.33-2.97-2.99 0-0.28-0.22-0.5-0.5-0.5s-0.5 0.22-0.5 0.5c0 1.12-0.64 2.14-1.63 2.65L3.92 3.21C4.37 2.47 5.16 2 6.04 2z" />
    <path d="M17.53 22H6.47C4.56 22 3 20.44 3 18.53v-5.12C3.61 13.78 4.3 14 5.03 14c1.1 0 2.16-0.46 2.91-1.27 0.19-0.2 0.17-0.52-0.03-0.71s-0.52-0.18-0.71 0.03C6.64 12.65 5.85 13 5.02 13c-0.93 0-1.79-0.42-2.36-1.16s-0.75-1.68-0.51-2.58l0.72-2.64c0.07-0.27-0.08-0.54-0.35-0.61S1.98 6.1 1.91 6.36L1.19 9c-0.33 1.2-0.08 2.46 0.68 3.45 0.03 0.05 0.08 0.08 0.12 0.12v5.97c0 2.46 2 4.47 4.47 4.47h11.06c0.28 0 0.5-0.22 0.5-0.5s-0.22-0.5-0.49-0.51z" />
</svg>