<svg id="straightener_Layer_1" viewBox="0 0 24 24" fill="currentColor" width="32" height="32" data-name="Layer 1" xmlns="http://www.w3.org/2000/svg" xmlns:xlink="http://www.w3.org/1999/xlink">
    <title>straightener</title>
    <path d="M23.838 13.592c-0.199-0.636-0.635-1.153-1.228-1.457-0.513-0.262-1.085-0.324-1.639-0.205 0.027-0.092 0.036-0.19 4e-3-0.288-0.084-0.262-0.367-0.408-0.628-0.323l-7 2.243c-0.263 0.085-0.408 0.366-0.324 0.629 0.041 0.129 0.136 0.215 0.247 0.274l-5.559 1.849 1.848-5.564c0.06 0.103 0.153 0.187 0.275 0.226 0.256 0.084 0.545-0.058 0.629-0.323l2.244-7c0.084-0.263-0.061-0.545-0.323-0.629-0.098-0.031-0.196-0.022-0.289 5e-3 0.119-0.558 0.054-1.134-0.213-1.647-0.305-0.586-0.82-1.017-1.474-1.221C9.514-0.119 8.567-0.034 7.74 0.4 6.912 0.834 6.302 1.564 6.025 2.449L0.416 19.502C0.159 19.944 0 20.452 0 20.999c0 1.654 1.346 3 3 3 1.345 0 2.472-0.895 2.852-2.117 4e-3-0.01 0.014-0.014 0.018-0.024l1.448-4.36 13.707-4.56c0.377-0.125 0.778-0.094 1.13 0.086 0.353 0.181 0.612 0.488 0.73 0.866 0.199 0.638 0.139 1.314-0.171 1.906-0.31 0.591-0.831 1.026-1.481 1.23L7.839 21.603c-0.261 0.089-0.401 0.373-0.312 0.635 0.089 0.263 0.381 0.4 0.635 0.311l13.381-4.572c0.893-0.279 1.623-0.889 2.057-1.717s0.519-1.776 0.238-2.668zM6.977 2.755c0.412-1.316 1.813-2.051 3.156-1.633 0.374 0.117 0.68 0.374 0.861 0.721 0.182 0.349 0.216 0.747 0.098 1.115l-5.499 16.56C5.075 18.615 4.113 17.999 3 17.999c-0.392 0-0.765 0.081-1.109 0.218zM3 22.999c-1.103 0-2-0.897-2-2s0.897-2 2-2 2 0.897 2 2-0.897 2-2 2z" />
</svg>