<svg id="strategy_chess_risk_Layer_1" viewBox="0 0 24 24" fill="currentColor" width="32" height="32" data-name="Layer 1" xmlns="http://www.w3.org/2000/svg" xmlns:xlink="http://www.w3.org/1999/xlink">
    <title>strategy-chess-risk</title>
    <path d="M23.847 17.641c0.199 0.191 0.205 0.508 0.014 0.707-0.098 0.102-0.229 0.153-0.36 0.153-0.125 0-0.25-0.046-0.347-0.14l-2.153-2.07v3.708c0 2.206-1.794 4-4 4h-4.5c-0.276 0-0.5-0.224-0.5-0.5s0.224-0.5 0.5-0.5h4.5c1.654 0 3-1.346 3-3V16.29l-2.153 2.07c-0.2 0.191-0.516 0.186-0.707-0.014s-0.185-0.516 0.014-0.707l2.301-2.212c0.574-0.574 1.518-0.574 2.099 7e-3zM11.5 0H7C4.794 0 3 1.794 3 4v2.71L0.847 4.64c-0.2-0.192-0.516-0.185-0.707 0.014S-0.045 5.17 0.154 5.361l2.294 2.206c0.291 0.291 0.674 0.436 1.055 0.436 0.379 0 0.757-0.144 1.043-0.429l2.301-2.212c0.199-0.191 0.205-0.508 0.014-0.707-0.192-0.198-0.507-0.206-0.707-0.014l-2.153 2.07v-2.71c0-1.654 1.346-3 3-3h4.5c0.276 0 0.5-0.224 0.5-0.5S11.777 1e-3 11.5 0zM17 8.5V6h-1.487C14.679 6 14 5.321 14 4.487c0-0.596 0.359-1.139 0.914-1.384 0.948-0.418 1.72-1.236 2.233-2.365 0.242-0.532 0.847-0.841 1.409-0.717C21.505 0.667 23 2.51 23 5.5v5.268c-5e-3 0.466-9e-3 0.995 0.139 1.144C23.211 11.985 23.375 12 23.5 12c0.276 0 0.5 0.224 0.5 0.5S23.776 13 23.5 13h-9c-0.276 0-0.5-0.224-0.5-0.5s0.224-0.5 0.5-0.5c1.543 0 2.5-0.585 2.5-3.5zM17.5 5C17.776 5 18 5.224 18 5.5v3c0 1.616-0.291 2.767-0.91 3.5h5c-0.099-0.368-0.096-0.796-0.092-1.24V5.5c1e-3-2.49-1.195-3.963-3.656-4.502-0.097-0.021-0.238 0.053-0.285 0.154-0.778 1.714-1.92 2.504-2.74 2.866C15.121 4.104 15 4.284 15 4.487 15 4.77 15.23 5 15.513 5zM10 23.5c0 0.276-0.224 0.5-0.5 0.5h-9C0.224 24 0 23.776 0 23.5S0.224 23 0.5 23h0.702C1.638 22.171 3 19.39 3 17v-1.965l-0.463 4e-3h-4e-3c-0.274 0-0.498-0.221-0.5-0.496-2e-3-0.276 0.22-0.502 0.496-0.504l0.767-6e-3C3.112 13.731 3 13.38 3 13c0-0.639 0.546-1.562 1.154-2.532 0.367-0.586 1.325-0.586 1.692 0C6.454 11.438 7 12.362 7 13c0 0.368-0.107 0.709-0.281 1.006L7.496 14H7.5c0.274 0 0.498 0.221 0.5 0.496 2e-3 0.276-0.22 0.502-0.496 0.504L7 15.004V17c0 2.394 1.362 5.172 1.798 6H9.5c0.276 0 0.5 0.224 0.5 0.5zM4 13c0 0.551 0.449 1 1 1s1-0.449 1-1c0-0.404-0.702-1.523-1.001-2.001C4.702 11.477 4 12.596 4 13zM2.325 23h5.35C7.075 21.782 6 19.283 6 17v-1.988l-2 0.016v1.973C4 19.284 2.925 21.783 2.325 23z" />
</svg>