<svg id="strawberry_Layer_1" viewBox="0 0 24 24" fill="currentColor" width="32" height="32" data-name="Layer 1" xmlns="http://www.w3.org/2000/svg" xmlns:xlink="http://www.w3.org/1999/xlink">
    <title>strawberry</title>
    <path d="M23.5 7h-0.389c-1.7 3e-3-3.596 9e-3-4.701-0.704l3.443-3.443c0.195-0.195 0.195-0.512 0-0.707s-0.512-0.195-0.707 0l-3.431 3.431c-0.716-1.186-0.716-3.275-0.716-4.994V0.5c0-0.276-0.224-0.458-0.5-0.458s-0.5 0.266-0.5 0.542c0 1.297 0 2.693 0.258 3.899-4.03-3.149-8.021-3.347-10.948-0.432C2.746 6.606 0 12.562 0 17.354c0 2.183 0.567 3.854 1.685 4.968 1.201 1.197 2.987 1.687 5.002 1.687 4.734 0 10.727-2.706 13.33-5.299 1.366-1.361 2.059-2.95 2.059-4.722 0-1.964-0.88-4.116-2.514-6.208 0.989 0.202 2.096 0.222 3.156 0.222 0.133 0 0.265 0 0.396 0H23.5c0.276 0 0.5-0.224 0.5-0.5S23.776 7.002 23.5 7zM19.31 18.001c-3.682 3.669-13.623 6.897-16.919 3.613C1.468 20.695 1 19.261 1 17.354 1 12.877 3.644 7.124 6.016 4.759 7.3 3.48 8.683 3.001 10.032 3.001c3.183 0 6.183 2.66 7.278 3.75 2.428 2.419 3.765 4.989 3.765 7.235 0 1.497-0.594 2.847-1.765 4.015zM11.913 9.529c-0.117 0.117-0.472 0.473-0.884 2.204-0.084 0.351 0.018 0.711 0.272 0.966C11.497 12.894 11.756 13 12.024 13c0.081 0 0.162-9e-3 0.242-0.029 1.733-0.412 2.088-0.768 2.205-0.884 0.342-0.341 0.53-0.795 0.53-1.279s-0.188-0.937-0.53-1.278c-0.683-0.684-1.875-0.684-2.558-1e-3zM13.763 11.379c-0.028 0.028-0.312 0.281-1.762 0.586 0.337-1.417 0.591-1.701 0.619-1.729 0.153-0.153 0.355-0.237 0.572-0.237s0.418 0.084 0.571 0.237S14 10.591 14 10.807s-0.084 0.419-0.237 0.572zM15.913 13.529c-0.117 0.117-0.472 0.473-0.884 2.204-0.084 0.351 0.018 0.711 0.272 0.966C15.497 16.894 15.756 17 16.024 17c0.081 0 0.162-9e-3 0.242-0.029 1.733-0.412 2.088-0.768 2.205-0.884 0.342-0.341 0.53-0.795 0.53-1.279s-0.188-0.937-0.53-1.278c-0.683-0.684-1.875-0.683-2.558-1e-3zM17.763 14.236C17.916 14.389 18 14.591 18 14.807s-0.084 0.419-0.237 0.572c-0.028 0.028-0.312 0.281-1.762 0.586 0.337-1.417 0.591-1.701 0.619-1.729 0.153-0.153 0.355-0.237 0.572-0.237s0.418 0.084 0.571 0.237zM5.913 11.529c-0.117 0.117-0.472 0.473-0.884 2.204-0.084 0.351 0.018 0.711 0.272 0.966C5.497 14.894 5.756 15 6.024 15c0.081 0 0.162-9e-3 0.242-0.029 1.733-0.412 2.088-0.768 2.205-0.884 0.342-0.341 0.53-0.795 0.53-1.279s-0.188-0.937-0.53-1.278c-0.683-0.684-1.875-0.683-2.558-1e-3zM7.763 13.379c-0.028 0.028-0.312 0.281-1.762 0.586 0.337-1.417 0.591-1.701 0.619-1.729 0.153-0.153 0.355-0.237 0.572-0.237s0.418 0.084 0.571 0.237S8 12.591 8 12.807s-0.084 0.419-0.237 0.572zM3.913 17.529c-0.117 0.117-0.472 0.473-0.884 2.204-0.084 0.351 0.018 0.711 0.272 0.966C3.497 20.894 3.756 21 4.024 21c0.081 0 0.162-9e-3 0.242-0.029 1.733-0.412 2.088-0.768 2.205-0.884 0.342-0.341 0.53-0.795 0.53-1.279s-0.188-0.937-0.53-1.278c-0.683-0.684-1.875-0.683-2.558-1e-3zM5.763 19.379c-0.028 0.028-0.312 0.281-1.762 0.586 0.337-1.417 0.591-1.701 0.619-1.729 0.153-0.153 0.355-0.237 0.572-0.237s0.418 0.084 0.571 0.237S6 18.591 6 18.807s-0.084 0.419-0.237 0.572zM9.913 15.529c-0.117 0.117-0.472 0.473-0.884 2.204-0.084 0.351 0.018 0.711 0.272 0.966C9.497 18.894 9.756 19 10.024 19c0.081 0 0.162-9e-3 0.242-0.029 1.733-0.412 2.088-0.768 2.205-0.884 0.342-0.341 0.53-0.795 0.53-1.279s-0.188-0.937-0.53-1.278c-0.683-0.684-1.875-0.683-2.558-1e-3zM11.763 17.379c-0.028 0.028-0.312 0.281-1.762 0.586 0.337-1.417 0.591-1.701 0.619-1.729 0.153-0.153 0.355-0.237 0.572-0.237s0.418 0.084 0.571 0.237S12 16.591 12 16.807s-0.084 0.419-0.237 0.572zM8.023 8.999c0.081 0 0.162-9e-3 0.242-0.029 1.733-0.412 2.088-0.768 2.205-0.884C10.812 7.745 11 7.291 11 6.807s-0.188-0.937-0.53-1.278c-0.683-0.684-1.875-0.684-2.557 0-0.117 0.117-0.472 0.473-0.884 2.204-0.084 0.351 0.018 0.711 0.272 0.966C7.497 8.894 7.756 9 8.023 8.999zM8.62 6.236c0.153-0.153 0.355-0.237 0.572-0.237S9.61 6.083 9.763 6.236 10 6.591 10 6.807 9.916 7.226 9.763 7.379C9.735 7.407 9.451 7.66 8.001 7.965 8.338 6.548 8.592 6.264 8.62 6.236z" />
</svg>