<svg id="streamer_boy_Layer_1" viewBox="0 0 24 24" fill="currentColor" width="32" height="32" data-name="Layer 1" xmlns="http://www.w3.org/2000/svg" xmlns:xlink="http://www.w3.org/1999/xlink">
    <title>streamer-boy</title>
    <path d="M2.7 8h0.65c0.826 2.327 3.043 4 5.65 4s4.824-1.673 5.65-4h0.65C16.238 8 17 7.237 17 6.3V5.7C17 4.762 16.237 4 15.3 4h-0.65C13.824 1.673 11.607 0 9 0S4.176 1.673 3.35 4H2.7C1.762 4 1 4.763 1 5.7v0.6C1 7.238 1.763 8 2.7 8zM15.3 5C15.686 5 16 5.314 16 5.7v0.6C16 6.686 15.686 7 15.3 7h-0.39C14.965 6.674 15 6.341 15 6s-0.035-0.674-0.09-1zM14 6c0 2.757-2.243 5-5 5S4 8.757 4 6h1.5c2.723 0 5.095-1.769 5.938-4.338C12.959 2.521 14 4.133 14 6zM9 1c0.534 0 1.04 0.106 1.523 0.262C9.84 3.472 7.821 5 5.5 5H4.101C4.566 2.721 6.585 1 9 1zM2 5.7C2 5.314 2.314 5 2.7 5h0.39C3.012 5.333 3.003 5.657 3 6 3 6.341 3.035 6.674 3.09 7H2.7C2.314 7 2 6.686 2 6.3zM23.12 15.021l-2.391-2.034C20.897 12.695 21 12.361 21 12c0-1.103-0.897-2-2-2s-2 0.897-2 2 0.897 2 2 2c0.378 0 0.728-0.112 1.03-0.295l2.442 2.077C22.808 16.067 23 16.484 23 16.925V19.5c0 1.93-1.57 3.5-3.5 3.5h-2.007c0.454-0.607 0.611-1.379 0.433-2.126C16.939 16.763 13.351 14 9 14s-7.937 2.762-8.925 6.871c-0.185 0.771-0.013 1.565 0.473 2.183C1.022 23.656 1.734 24 2.5 24h17c2.481 0 4.5-2.019 4.5-4.5v-2.575c0-0.734-0.32-1.428-0.88-1.904zM18 12c0-0.551 0.448-1 1-1s1 0.449 1 1-0.448 1-1 1-1-0.449-1-1zM16.667 22.434C16.384 22.794 15.958 23 15.5 23h-13c-0.458 0-0.883-0.206-1.167-0.565-0.295-0.374-0.399-0.859-0.286-1.329 0.878-3.652 4.074-6.105 7.953-6.105s7.076 2.455 7.953 6.107c0.112 0.47 9e-3 0.953-0.286 1.326z" />
</svg>