<svg id="streamer_girl_Layer_1" viewBox="0 0 24 24" fill="currentColor" width="32" height="32" data-name="Layer 1" xmlns="http://www.w3.org/2000/svg" xmlns:xlink="http://www.w3.org/1999/xlink">
    <title>streamer-girl</title>
    <path d="M0.995 15.001c0.263 0.06 0.537-0.11 0.596-0.381 0.442-2.005 1.154-5.238 1.587-7.198C3.819 10.045 6.183 12 9.001 12c1.668 0 3.218-0.668 4.363-1.882 0.189-0.201 0.181-0.517-0.02-0.707-0.201-0.189-0.52-0.18-0.707 0.02-0.955 1.011-2.247 1.568-3.637 1.568-2.415 0-4.435-1.722-4.899-4.002h0.914c3.161-0.094 5.87-2.206 6.803-5.189 1.267 0.802 2.209 2.165 2.635 3.946 0.03 0.126 0.437 1.966 0.871 3.937 0.058 0.271 0.332 0.44 0.596 0.38 0.27-0.06 0.44-0.326 0.381-0.596-0.12-0.544-0.237-1.073-0.345-1.564 0.625-0.213 1.045-0.822 1.045-1.613v-0.6c0-0.938-0.763-1.7-1.7-1.7h-0.404C13.79 1.505 11.644 0 9 0 6.412 0.023 4.2 1.489 3.104 4H2.7C1.762 4 1 4.763 1 5.7v0.6c0 0.781 0.42 1.385 1.047 1.605-0.564 2.553-1.381 6.267-1.433 6.501-0.06 0.27 0.111 0.536 0.381 0.595zM4.999 5.997H4C4 3.242 6.244 1 9 1c0.682 0 1.325 0.123 1.918 0.35-0.756 2.666-3.142 4.565-5.919 4.647zM23.12 15.021l-2.391-2.034C20.897 12.695 21 12.361 21 12c0-1.103-0.897-2-2-2s-2 0.897-2 2 0.897 2 2 2c0.378 0 0.728-0.112 1.03-0.295l2.442 2.077C22.808 16.067 23 16.484 23 16.925V19.5c0 1.93-1.57 3.5-3.5 3.5h-2.007c0.454-0.607 0.611-1.379 0.433-2.126C16.939 16.763 13.351 14 9 14s-7.936 2.762-8.925 6.871c-0.185 0.771-0.013 1.565 0.473 2.183C1.023 23.656 1.734 24 2.5 24h17c2.481 0 4.5-2.019 4.5-4.5v-2.575c0-0.734-0.32-1.428-0.88-1.904zM18 12c0-0.551 0.448-1 1-1s1 0.449 1 1-0.448 1-1 1-1-0.449-1-1zM16.667 22.434C16.384 22.794 15.958 23 15.5 23h-13c-0.458 0-0.883-0.206-1.166-0.565-0.295-0.374-0.399-0.858-0.286-1.329 0.878-3.652 4.074-6.105 7.952-6.105s7.076 2.455 7.953 6.107c0.112 0.47 9e-3 0.953-0.286 1.326z" />
</svg>