<svg id="student_alt_Layer_1" viewBox="0 0 24 24" fill="currentColor" width="32" height="32" data-name="Layer 1" xmlns="http://www.w3.org/2000/svg" xmlns:xlink="http://www.w3.org/1999/xlink">
    <title>student-alt</title>
    <path d="M24.002 5.513c2e-3-0.822-0.492-1.546-1.258-1.845l-8.183-3.194c-1.615-0.63-3.396-0.633-5.013-7e-3v0L1.266 3.671C0.498 3.968 1e-3 4.692 2e-3 5.516s0.497 1.547 1.265 1.843L5 8.799V14.5C5 14.776 5.224 15 5.5 15S6 14.776 6 14.5V9.185l3.502 1.351c0.803 0.31 1.647 0.465 2.491 0.465s1.688-0.155 2.491-0.465L18 9.18v5.32c0 0.276 0.224 0.5 0.5 0.5s0.5-0.224 0.5-0.5V8.794l3.737-1.441c0.097-0.037 0.175-0.1 0.263-0.15V13.5c0 0.276 0.224 0.5 0.5 0.5s0.5-0.224 0.5-0.5V5.526c0 0 2e-3-8e-3 2e-3-0.013zM22.377 6.42 14.124 9.604c-1.374 0.53-2.887 0.53-4.261 0L1.627 6.426c-0.46-0.178-0.625-0.587-0.625-0.911s0.164-0.733 0.625-0.911l8.282-3.205v0c1.384-0.536 2.907-0.533 4.29 6e-3l8.183 3.194c0.453 0.177 0.616 0.578 0.62 0.899 0 0 0 1e-3 0 2e-3v0.026c-5e-3 0.321-0.17 0.719-0.625 0.894zM23.124 16.51c-0.578-0.455-1.322-0.617-2.044-0.442-2.177 0.527-6.251 1.411-9.079 1.411s-6.902-0.884-9.08-1.411c-0.723-0.177-1.467-0.013-2.044 0.442C0.32 16.948 1e-3 17.6 1e-3 18.299V21.7c0 0.699 0.319 1.351 0.876 1.789 0.578 0.455 1.322 0.615 2.044 0.442C5.098 23.404 9.172 22.52 12 22.52s6.902 0.884 9.08 1.411C21.27 23.977 21.462 24 21.652 24c0.53 0 1.046-0.176 1.472-0.511C23.681 23.051 24 22.399 24 21.7v-3.401c0-0.699-0.319-1.351-0.876-1.789zM2.686 22.96c-0.422 0.102-0.855 8e-3-1.191-0.256C1.181 22.456 1 22.091 1 21.701V18.3c0-0.39 0.181-0.756 0.495-1.003 0.335-0.264 0.769-0.358 1.19-0.256 2.556 0.619 6.084 1.342 8.814 1.423v3.073c-2.73 0.082-6.258 0.804-8.813 1.423zM23 21.701c0 0.39-0.181 0.756-0.495 1.003-0.335 0.264-0.769 0.358-1.19 0.256-2.556-0.619-6.084-1.342-8.814-1.423v-3.073c2.73-0.082 6.258-0.804 8.814-1.423 0.422-0.102 0.855-8e-3 1.191 0.256 0.314 0.248 0.495 0.613 0.495 1.003z" />
</svg>