<svg id="student_Layer_1" viewBox="0 0 24 24" fill="currentColor" width="32" height="32" data-name="Layer 1" xmlns="http://www.w3.org/2000/svg" xmlns:xlink="http://www.w3.org/1999/xlink">
    <title>student</title>
    <path d="M22 4.498c1e-3-0.735-0.428-1.37-1.094-1.618l-6.733-2.507c-1.369-0.509-2.876-0.511-4.247-6e-3L3.111 2.883C2.443 3.13 2.012 3.764 2.012 4.5s0.432 1.371 1.1 1.616L6 7.179v1.82c0 3.309 2.691 6 6 6s6-2.691 6-6V7.178c0 0 2.965-1.107 3-1.123v5.444c0 0.276 0.224 0.5 0.5 0.5s0.5-0.224 0.5-0.5v-7c0 0 0 0 0 0s0 0 0-1e-3zM17 9c0 2.757-2.243 5-5 5s-5-2.243-5-5V7.548l2.889 1.064c0.68 0.25 1.395 0.375 2.109 0.375s1.429-0.125 2.109-0.375l2.892-1.064zM20.555 5.173l-6.792 2.5c-1.138 0.419-2.391 0.419-3.527 0L3.459 5.178C3.13 5.057 3.013 4.748 3.013 4.5S3.13 3.943 3.458 3.822l6.816-2.516c0.57-0.211 1.169-0.316 1.769-0.316 0.604 0 1.208 0.107 1.782 0.321l6.733 2.507c0.327 0.122 0.443 0.431 0.443 0.679 0 0.249-0.118 0.557-0.446 0.676zM20.977 23.35c0.083 0.263-0.063 0.544-0.327 0.627C20.6 23.993 20.549 24 20.5 24c-0.213 0-0.41-0.136-0.477-0.35C18.977 20.323 15.677 18 12 18s-6.977 2.323-8.023 5.65c-0.083 0.264-0.363 0.41-0.627 0.327s-0.41-0.364-0.327-0.627C4.199 19.611 7.891 17 12 17s7.801 2.611 8.977 6.35z" />
</svg>