<svg id="subfolder_Layer_1" viewBox="0 0 24 24" fill="currentColor" width="32" height="32" data-name="Layer 1" xmlns="http://www.w3.org/2000/svg" xmlns:xlink="http://www.w3.org/1999/xlink">
    <title>subfolder</title>
    <path d="M20.5 10h-3.528c-0.231 0-0.464-0.055-0.671-0.158l-3.156-1.578C12.8 8.092 12.413 8 12.027 8h-1.528c-1.93 0-3.5 1.57-3.5 3.5v8c0 1.93 1.57 3.5 3.5 3.5h10c1.93 0 3.5-1.57 3.5-3.5v-6c0-1.93-1.57-3.5-3.499-3.5zM23 19.5c0 1.378-1.122 2.5-2.5 2.5h-10C9.122 22 8 20.878 8 19.5v-8C8 10.122 9.122 9 10.5 9h1.528c0.231 0 0.464 0.055 0.671 0.158l3.156 1.578C16.2 10.908 16.587 11 16.973 11h3.528c1.378 0 2.5 1.122 2.5 2.5zM24 7.5v1C24 8.776 23.776 9 23.5 9S23 8.776 23 8.5v-1C23 5.57 21.43 4 19.5 4h-7.028c-0.386 0-0.772-0.091-1.118-0.264L8.198 2.158C7.991 2.054 7.759 2 7.527 2H4.499c-1.93 0-3.5 1.57-3.5 3.5v13c0 1.93 1.57 3.5 3.5 3.5 0.276 0 0.5 0.224 0.5 0.5S4.775 23 4.499 23c-2.481 0-4.5-2.019-4.5-4.5v-13C0 3.019 2.019 1 4.5 1h3.028C7.914 1 8.3 1.091 8.646 1.264l3.156 1.578C12.009 2.946 12.241 3 12.473 3h7.028c2.481 0 4.5 2.019 4.499 4.5z" />
</svg>