<svg id="subscription_Layer_1" viewBox="0 0 24 24" fill="currentColor" width="32" height="32" data-name="Layer 1" xmlns="http://www.w3.org/2000/svg" xmlns:xlink="http://www.w3.org/1999/xlink">
    <title>subscription</title>
    <path d="M15.998 4.224C15.862 3.505 15.209 3 14.477 3h-0.939c-0.284 0-0.514 0.23-0.514 0.514v3.972C13.024 7.77 13.254 8 13.538 8h0.946c0.77 0 1.445-0.565 1.53-1.33 0.052-0.468-0.114-0.905-0.417-1.146 0.314-0.329 0.498-0.784 0.401-1.3zM14.524 7h-0.5V6h0.5c0.276 0 0.5 0.224 0.5 0.5S14.8 7 14.524 7zM14.524 5h-0.5V4h0.5c0.276 0 0.5 0.224 0.5 0.5S14.8 5 14.524 5zM17.65 4.375c-6e-3 0.049-0.01 0.17 0.108 0.25 0.013 0 0.509 0.218 1.055 0.42 1.013 0.374 1.267 1.107 1.167 1.669C19.847 7.459 19.136 8 18.289 8c-0.447 0-0.877-0.118-1.242-0.333-0.298-0.176-0.339-0.591-0.083-0.823 0.166-0.15 0.412-0.186 0.605-0.072 0.21 0.124 0.461 0.193 0.72 0.193 0.371 0 0.633-0.22 0.671-0.432 0.051-0.286-0.374-0.466-0.506-0.515-0.623-0.23-1.185-0.481-1.185-0.481-0.497-0.316-0.716-0.803-0.644-1.309 0.078-0.538 0.471-0.976 1.027-1.144 0.6-0.181 1.129-0.018 1.49 0.171 0.279 0.146 0.346 0.516 0.142 0.756-0.141 0.166-0.373 0.22-0.573 0.134-0.199-0.086-0.475-0.155-0.761-0.07-0.243 0.073-0.291 0.234-0.3 0.3zM9.999 3.5v2.978c0 0.261 0.191 0.494 0.45 0.52 0.298 0.029 0.55-0.205 0.55-0.498v-3c0-0.276 0.224-0.5 0.5-0.5s0.5 0.224 0.5 0.5v3c0 0.852-0.714 1.541-1.575 1.498-0.806-0.04-1.425-0.735-1.425-1.542V3.499c0-0.276 0.224-0.5 0.5-0.5s0.5 0.224 0.5 0.501zM6.959 6.532C7.01 6.246 6.585 6.066 6.453 6.017 5.83 5.787 5.268 5.536 5.268 5.536 4.771 5.22 4.552 4.733 4.624 4.227 4.702 3.689 5.095 3.251 5.651 3.083c0.6-0.181 1.129-0.018 1.49 0.171C7.42 3.4 7.487 3.77 7.283 4.01 7.142 4.176 6.91 4.23 6.71 4.144 6.511 4.058 6.235 3.989 5.949 4.074c-0.243 0.073-0.291 0.234-0.3 0.299-6e-3 0.049-0.01 0.17 0.108 0.25 0.013 0 0.509 0.218 1.055 0.42 1.013 0.374 1.267 1.107 1.167 1.669-0.133 0.745-0.844 1.286-1.691 1.286-0.447 0-0.877-0.118-1.242-0.333-0.298-0.176-0.339-0.591-0.083-0.823 0.166-0.15 0.412-0.186 0.605-0.072 0.21 0.124 0.461 0.193 0.72 0.193 0.371 0 0.633-0.22 0.671-0.431zM23.999 4.5v2c0 2.481-2.019 4.5-4.5 4.5h-4c-0.276 0-0.5-0.224-0.5-0.5s0.224-0.5 0.5-0.5h4c1.93 0 3.5-1.57 3.5-3.5v-2c0-1.93-1.57-3.5-3.5-3.5H4.5C2.57 1 1 2.57 1 4.5v2C1 8.43 2.57 10 4.5 10h1C5.776 10 6 10.224 6 10.5S5.776 11 5.5 11h-1C2.019 11 0 8.981 0 6.5v-2C0 2.019 2.019 0 4.5 0h15c2.481 0 4.5 2.019 4.499 4.5zM20.999 23.5c0 0.276-0.224 0.5-0.5 0.5s-0.5-0.224-0.5-0.5c0-1.637-0.994-3.026-2.596-3.627l-5.08-1.905c-0.195-0.073-0.324-0.26-0.324-0.468v-4.893c0-0.789-0.535-1.471-1.245-1.586-0.449-0.072-0.886 0.046-1.227 0.336-0.336 0.286-0.529 0.703-0.529 1.143v7.424c0 0.42-0.235 0.795-0.614 0.978s-0.818 0.133-1.147-0.128c0 0-1.715-1.367-1.727-1.379-0.606-0.554-1.547-0.519-2.106 0.08-0.565 0.604-0.534 1.557 0.064 2.118l1.633 1.551C5.426 23.453 5.208 24 4.759 24c-0.127 0-0.249-0.048-0.341-0.135l-1.64-1.548c-1-0.937-1.048-2.518-0.106-3.524 0.934-1.001 2.504-1.058 3.512-0.135l1.676 1.335 0.138-0.067v-7.424c0-0.734 0.321-1.429 0.881-1.905s1.303-0.677 2.035-0.562c1.188 0.194 2.084 1.3 2.084 2.573v4.546l4.756 1.783c2.001 0.751 3.244 2.5 3.245 4.563z" />
</svg>