<svg id="subscription_alt_Layer_1" viewBox="0 0 24 24" fill="currentColor" width="32" height="32" data-name="Layer 1" xmlns="http://www.w3.org/2000/svg" xmlns:xlink="http://www.w3.org/1999/xlink">
    <title>subscription-alt</title>
    <path d="M24 4.5v2c0 2.481-2.019 4.5-4.5 4.5h-4c-0.276 0-0.5-0.224-0.5-0.5s0.224-0.5 0.5-0.5h4c1.93 0 3.5-1.57 3.5-3.5v-2C23 2.57 21.43 1 19.5 1h-15C2.57 1 1 2.57 1 4.5v2C1 8.43 2.57 10 4.5 10h1C5.776 10 6 10.224 6 10.5S5.776 11 5.5 11h-1C2.019 11 0 8.981 0 6.5v-2C0 2.019 2.019 0 4.5 0h15C21.981 0 24 2.019 24 4.5zM17.756 18.937 13 17.154v-4.546c0-1.273-0.896-2.379-2.084-2.573-0.729-0.116-1.475 0.085-2.035 0.562C8.321 11.073 8 11.767 8 12.502v7.424l-0.138 0.067-1.672-1.331c-1.007-0.927-2.581-0.871-3.516 0.132-0.941 1.007-0.894 2.588 0.106 3.524l1.64 1.548c0.092 0.087 0.214 0.135 0.341 0.135 0.448 0 0.667-0.547 0.342-0.856L3.47 21.594c-0.599-0.562-0.629-1.514-0.064-2.118 0.558-0.599 1.497-0.634 2.104-0.083 0.013 0.013 1.73 1.381 1.73 1.381 0.327 0.26 0.767 0.311 1.146 0.128C8.765 20.72 9 20.345 9 19.924V12.5c0-0.44 0.192-0.857 0.528-1.143 0.341-0.29 0.776-0.409 1.228-0.336C11.465 11.136 12 11.818 12 12.607V17.5c0 0.208 0.129 0.395 0.324 0.468l5.08 1.905C19.006 20.474 20 21.863 20 23.5c0 0.276 0.224 0.5 0.5 0.5s0.5-0.224 0.5-0.5c0-2.064-1.243-3.812-3.244-4.563z" />
</svg>