<svg id="subscription_model_Layer_1" viewBox="0 0 24 24" fill="currentColor" width="32" height="32" data-name="Layer 1" xmlns="http://www.w3.org/2000/svg" xmlns:xlink="http://www.w3.org/1999/xlink">
    <title>subscription-model</title>
    <path d="M10.975 6h3.184l-1.527 1.662c-0.187 0.203-0.173 0.52 0.03 0.706s0.519 0.174 0.707-0.03l1.741-1.895c0.252-0.252 0.391-0.587 0.391-0.943s-0.139-0.691-0.376-0.927l-1.756-1.911c-0.187-0.203-0.502-0.216-0.707-0.03-0.203 0.187-0.217 0.503-0.03 0.706L14.159 5h-3.184C10.721 2.201 8.364 0 5.5 0 2.467 0 0 2.468 0 5.5S2.467 11 5.5 11c2.864 0 5.221-2.201 5.475-5zM1 5.5C1 3.019 3.019 1 5.5 1S10 3.019 10 5.5 7.981 10 5.5 10 1 7.981 1 5.5zM6.045 7.473c-0.653 0.643-1.717 0.645-2.372 2e-3l-1.14-1.117c-0.197-0.193-0.2-0.511-7e-3-0.707 0.193-0.199 0.51-0.2 0.707-8e-3l1.14 1.118c0.267 0.265 0.702 0.262 0.969 0l2.306-2.273c0.197-0.192 0.513-0.191 0.707 6e-3 0.194 0.196 0.192 0.513-5e-3 0.707zM24 7.757C24 8.994 22.994 10 21.756 10H21v0.5c0 0.276-0.224 0.5-0.5 0.5S20 10.776 20 10.5V10h-0.5C18.122 10 17 8.879 17 7.5 17 7.224 17.224 7 17.5 7S18 7.224 18 7.5C18 8.327 18.673 9 19.5 9h2.256C22.442 9 23 8.442 23 7.757c0-0.536-0.342-1.011-0.85-1.18l-3.616-1.205C17.617 5.066 17 4.211 17 3.243 17 2.006 18.006 1 19.244 1H20V0.5C20 0.224 20.224 0 20.5 0S21 0.224 21 0.5V1h0.5C22.878 1 24 2.121 24 3.5 24 3.776 23.776 4 23.5 4S23 3.776 23 3.5C23 2.673 22.327 2 21.5 2h-2.256C18.558 2 18 2.558 18 3.243c0 0.536 0.342 1.011 0.85 1.18l3.616 1.205C23.383 5.934 24 6.789 24 7.757zM23 23.5c0 0.276-0.224 0.5-0.5 0.5S22 23.776 22 23.5c0-1.637-0.995-3.026-2.595-3.627l-5.081-1.905C14.129 17.895 14 17.708 14 17.5v-4.893c0-0.789-0.535-1.471-1.245-1.587-0.45-0.071-0.886 0.046-1.226 0.336C11.193 11.642 11 12.059 11 12.5v7.424c0 0.421-0.235 0.796-0.615 0.979-0.38 0.181-0.819 0.132-1.146-0.13l-1.688-1.342c-8e-3-6e-3-0.011-0.015-0.018-0.021-4e-3-3e-3-0.01-4e-3-0.013-8e-3-0.606-0.562-1.553-0.529-2.115 0.073-0.565 0.604-0.534 1.557 0.064 2.118l1.633 1.551C7.427 23.453 7.209 24 6.76 24c-0.127 0-0.249-0.048-0.341-0.135l-1.64-1.548c-1-0.937-1.048-2.518-0.106-3.524 0.928-0.994 2.481-1.054 3.489-0.15 3e-3 3e-3 8e-3 3e-3 0.011 6e-3l1.688 1.343 0.138-0.066v-7.424c0-0.734 0.321-1.429 0.881-1.905s1.3-0.68 2.035-0.561c1.188 0.193 2.083 1.3 2.083 2.573v4.546l4.756 1.784c2.001 0.75 3.244 2.498 3.246 4.561z" />
</svg>