<svg id="subway_Layer_1" viewBox="0 0 24 24" fill="currentColor" width="32" height="32" data-name="Layer 1" xmlns="http://www.w3.org/2000/svg" xmlns:xlink="http://www.w3.org/1999/xlink">
    <title>subway</title>
    <path d="M17.5 0h-11C4.019 0 2 2.019 2 4.5v10C2 16.981 4.019 19 6.5 19h0.117l-2.546 4.243c-0.143 0.237-0.065 0.544 0.172 0.686C4.323 23.977 4.412 24 4.5 24c0.169 0 0.335-0.086 0.429-0.243L7.783 19h8.434l2.854 4.757C19.165 23.913 19.331 24 19.5 24c0.088 0 0.177-0.023 0.257-0.071 0.237-0.142 0.314-0.449 0.172-0.686L17.383 19H17.5c2.481 0 4.5-2.019 4.5-4.5v-10C22 2.019 19.981 0 17.5 0zM12.5 12V5H21v7zM3 12V5h8.5v7zM6.5 1h11c1.76 0 3.221 1.306 3.464 3H3.036C3.279 2.306 4.74 1 6.5 1zM17.5 18h-11C4.57 18 3 16.43 3 14.5V13h3v1.5C6 14.776 6.224 15 6.5 15S7 14.776 7 14.5V13h10v1.5c0 0.276 0.224 0.5 0.5 0.5s0.5-0.224 0.5-0.5V13h3v1.5c0 1.93-1.57 3.5-3.5 3.5z" />
</svg>