<svg id="sun_salutation_yoga_Layer_1" viewBox="0 0 24 24" fill="currentColor" width="32" height="32" data-name="Layer 1" xmlns="http://www.w3.org/2000/svg" xmlns:xlink="http://www.w3.org/1999/xlink">
    <title>sun-salutation-yoga</title>
    <path d="M17.242 7.062C17 6.928 16.697 7.015 16.562 7.257l-1.459 2.647c-0.062 0.08-0.143 0.094-0.187 0.095-0.041 5e-3-0.126-9e-3-0.165-0.051l-2.325-3.186c-0.524-0.492-1.208-0.763-1.927-0.763-1.379 0-2.5 1.122-2.5 2.5v5.146c0 1.335 0.741 2.534 1.935 3.13l1.065 0.533v6.191c0 0.276 0.224 0.5 0.5 0.5s0.5-0.224 0.5-0.5v-6.411c0.172-0.489 0.885-2.817 0.987-7.871l0.983 1.352c0.237 0.274 0.578 0.43 0.94 0.43 0.012 0 0.023 0 0.036 0 0.375-0.011 0.722-0.188 0.991-0.548l1.5-2.709c0.134-0.242 0.046-0.546-0.194-0.68zM11.196 16.288l-0.814-0.407C9.529 15.455 9 14.599 9 13.645V8.499c0-0.827 0.673-1.5 1.5-1.5 0.463 0 0.904 0.175 1.181 0.422l0.341 0.469c0 4.683-0.552 7.374-0.826 8.398zM11.5 4.999c1.379 0 2.5-1.122 2.5-2.5s-1.121-2.5-2.5-2.5S9 1.121 9 2.499s1.121 2.5 2.5 2.5zM11.5 0.999c0.827 0 1.5 0.673 1.5 1.5s-0.673 1.5-1.5 1.5-1.5-0.673-1.5-1.5 0.673-1.5 1.5-1.5z" />
</svg>