<svg id="sun_plant_wilt_Layer_1" viewBox="0 0 24 24" fill="currentColor" width="32" height="32" data-name="Layer 1" xmlns="http://www.w3.org/2000/svg" xmlns:xlink="http://www.w3.org/1999/xlink">
    <title>sun-plant-wilt</title>
    <path d="M6.902 14.999l-1.47 2.545c-0.092 0.16-0.261 0.25-0.433 0.25-0.085 0-0.171-0.021-0.25-0.067-0.239-0.138-0.321-0.443-0.183-0.683l1.47-2.546c0.162-0.28 0.088-0.641-0.179-0.877-0.321-0.284-0.604-0.602-0.847-0.945l-3.049 1.766c-0.079 0.046-0.165 0.067-0.251 0.067-0.172 0-0.34-0.09-0.433-0.25-0.139-0.238-0.057-0.544 0.183-0.683l3.049-1.765C4.246 11.243 4.08 10.631 4.022 10H0.5C0.224 10 0 9.776 0 9.5S0.224 9 0.5 9h3.523C4.08 8.373 4.242 7.776 4.492 7.227L1.43 5.485C1.19 5.348 1.106 5.044 1.242 4.803 1.378 4.563 1.683 4.48 1.924 4.615l3.064 1.743c0.366-0.524 0.82-0.982 1.342-1.351L4.568 1.955C4.429 1.716 4.511 1.41 4.751 1.272 4.989 1.133 5.296 1.214 5.434 1.455l1.762 3.051c0.558-0.259 1.166-0.427 1.806-0.484V0.5c0-0.276 0.224-0.5 0.5-0.5s0.5 0.224 0.5 0.5v3.523c0.61 0.055 1.201 0.211 1.751 0.458l1.728-3.07c0.136-0.242 0.443-0.325 0.681-0.19 0.241 0.135 0.326 0.44 0.19 0.681l-1.728 3.07c0.4 0.276 0.766 0.607 1.087 0.988 0.165 0.198 0.429 0.249 0.641 0.126l2.666-1.561c0.24-0.137 0.545-0.059 0.685 0.179s0.06 0.545-0.179 0.685L14.857 6.95c-0.632 0.367-1.435 0.221-1.911-0.345-0.349-0.415-0.765-0.759-1.225-1.019-4e-3-2e-3-8e-3-4e-3-0.011-6e-3-1e-3 0-2e-3-2e-3-4e-3-2e-3-0.665-0.374-1.421-0.576-2.203-0.576-2.481 0-4.5 2.019-4.5 4.5 0 1.289 0.555 2.519 1.521 3.372 0.628 0.557 0.785 1.431 0.378 2.125zM24 14c0 1.046-0.65 2.565-1.254 3.373C22.448 17.771 21.994 18 21.5 18s-0.948-0.229-1.246-0.626C19.65 16.565 19 15.046 19 14c0-1.19 0.836-2.188 1.951-2.439C20.855 9.26 20.022 8 18.583 8 17.807 8 16 8.392 16 12.022V23.5c0 0.276-0.224 0.5-0.5 0.5S15 23.776 15 23.5v-6.478C15 13.391 13.193 13 12.417 13c-1.44 0-2.272 1.26-2.368 3.561C11.165 16.812 12 17.809 12 19c0 1.046-0.65 2.565-1.254 3.373C10.448 22.771 9.994 23 9.5 23s-0.948-0.229-1.246-0.626C7.65 21.565 7 20.046 7 19c0-1.225 0.885-2.245 2.049-2.458C9.211 12.455 11.439 12 12.417 12c0.508 0 1.711 0.133 2.583 1.267v-1.244c0-4.66 2.742-5.022 3.583-5.022 0.978 0 3.206 0.455 3.368 4.542C23.115 11.756 24 12.777 24 14zM9.5 17.5c-1 0-1.5 0.705-1.5 1.5 0 0.779 0.557 2.107 1.055 2.775 0.215 0.285 0.676 0.286 0.891 0 0.498-0.667 1.055-1.995 1.055-2.774 0-0.774-0.5-1.5-1.501-1.501zM23 14c0-0.795-0.5-1.5-1.5-1.5S20 13.226 20 14c0 0.779 0.557 2.107 1.055 2.775 0.215 0.285 0.676 0.286 0.891 0C22.444 16.108 23.001 14.78 23 14z" />
</svg>