<svg id="sun_Layer_1" viewBox="0 0 24 24" fill="currentColor" width="32" height="32" data-name="Layer 1" xmlns="http://www.w3.org/2000/svg" xmlns:xlink="http://www.w3.org/1999/xlink">
    <title>sun</title>
    <path d="M23.5 11.5h-4.525c-0.062-0.865-0.28-1.686-0.629-2.436l3.961-2.19c0.241-0.134 0.329-0.438 0.195-0.68s-0.439-0.327-0.68-0.195l-3.959 2.19c-0.534-0.818-1.232-1.517-2.05-2.05l2.189-3.96c0.134-0.242 0.046-0.546-0.196-0.68-0.242-0.132-0.546-0.047-0.679 0.195l-2.19 3.961c-0.751-0.349-1.571-0.568-2.437-0.629V0.5C12.5 0.224 12.276 0 12 0s-0.5 0.224-0.5 0.5v4.525c-0.865 0.062-1.686 0.28-2.437 0.629l-2.19-3.961C6.74 1.452 6.437 1.364 6.194 1.498c-0.242 0.134-0.33 0.438-0.196 0.68l2.189 3.96C7.369 6.672 6.67 7.37 6.137 8.188l-3.959-2.19c-0.244-0.132-0.546-0.047-0.68 0.195s-0.046 0.546 0.195 0.68l3.961 2.19c-0.349 0.751-0.568 1.571-0.629 2.436H0.5c-0.276 0-0.5 0.224-0.5 0.5s0.224 0.5 0.5 0.5h4.525c0.062 0.865 0.28 1.686 0.629 2.436l-3.961 2.19c-0.241 0.134-0.329 0.438-0.195 0.68 0.091 0.165 0.262 0.258 0.438 0.258 0.082 0 0.165-0.021 0.242-0.062l3.959-2.19c0.534 0.818 1.232 1.517 2.05 2.05l-2.189 3.96c-0.134 0.242-0.046 0.546 0.196 0.68 0.077 0.042 0.159 0.062 0.241 0.062 0.176 0 0.347-0.093 0.438-0.258l2.19-3.961c0.751 0.349 1.571 0.568 2.437 0.629v4.525c0 0.276 0.224 0.5 0.5 0.5s0.5-0.224 0.5-0.5v-4.525c0.865-0.062 1.686-0.28 2.437-0.629l2.19 3.961c0.091 0.165 0.262 0.258 0.438 0.258 0.082 0 0.165-0.021 0.241-0.062 0.242-0.134 0.33-0.438 0.196-0.68l-2.189-3.96c0.818-0.534 1.516-1.232 2.05-2.05l3.959 2.19c0.077 0.042 0.16 0.062 0.242 0.062 0.176 0 0.347-0.093 0.438-0.258 0.134-0.242 0.046-0.546-0.195-0.68l-3.961-2.19c0.349-0.751 0.568-1.571 0.629-2.436H23.5c0.276 0 0.5-0.224 0.5-0.5s-0.224-0.5-0.5-0.499zM12 18c-3.309 0-6-2.691-6-6s2.691-6 6-6 6 2.691 6 6-2.691 6-6 6z" />
</svg>