<svg id="sunday_Layer_1" viewBox="0 0 24 24" fill="currentColor" width="32" height="32" data-name="Layer 1" xmlns="http://www.w3.org/2000/svg" xmlns:xlink="http://www.w3.org/1999/xlink">
    <title>sunday</title>
    <path d="M18 16.5v5c0 1.379-1.121 2.5-2.5 2.5S13 22.879 13 21.5v-5c0-0.276 0.224-0.5 0.5-0.5s0.5 0.224 0.5 0.5v5c0 0.827 0.673 1.5 1.5 1.5s1.5-0.673 1.5-1.5v-5c0-0.276 0.224-0.5 0.5-0.5s0.5 0.224 0.5 0.5zM10.373 19.532c-0.31-0.116-1.188-0.466-1.522-0.67-0.325-0.231-0.478-0.568-0.428-0.948 0.053-0.398 0.315-0.723 0.687-0.846 0.559-0.185 1.121-9e-3 1.769 0.553 0.209 0.181 0.525 0.158 0.705-0.051 0.181-0.208 0.158-0.524-0.051-0.705-0.914-0.792-1.833-1.045-2.736-0.746-0.738 0.244-1.262 0.882-1.365 1.665-0.098 0.754 0.209 1.444 0.88 1.917 0.491 0.306 1.588 0.721 1.699 0.763 1.052 0.425 1.013 1.203 0.976 1.432C10.883 22.536 10.318 23 9.645 23c-0.524 0-1.349-0.368-1.763-0.787-0.193-0.195-0.51-0.199-0.707-4e-3-0.196 0.194-0.198 0.511-4e-3 0.707C7.697 23.449 8.767 24 9.645 24c1.166 0 2.146-0.817 2.328-1.944 0.133-0.812-0.204-1.96-1.6-2.524zM24 6.5v7c0 0.276-0.224 0.5-0.5 0.5S23 13.776 23 13.5V9H1v10.5C1 21.43 2.57 23 4.5 23 4.776 23 5 23.224 5 23.5S4.776 24 4.5 24C2.019 24 0 21.981 0 19.5v-13C0 4.019 2.019 2 4.5 2H6V0.5C6 0.224 6.224 0 6.5 0S7 0.224 7 0.5V2h10V0.5C17 0.224 17.224 0 17.5 0S18 0.224 18 0.5V2h1.5C21.981 2 24 4.019 24 6.5zM23 8V6.5C23 4.57 21.43 3 19.5 3h-15C2.57 3 1 4.57 1 6.5V8zM23.5 16c-0.276 0-0.5 0.224-0.5 0.5v5.653l-2.521-5.682c-0.149-0.338-0.507-0.522-0.865-0.443-0.361 0.076-0.613 0.387-0.613 0.756V23.5c0 0.276 0.224 0.5 0.5 0.5s0.5-0.224 0.5-0.5v-5.642l2.521 5.683C22.649 23.826 22.923 24 23.224 24c0.054 0 0.109-6e-3 0.164-0.018 0.36-0.076 0.612-0.387 0.612-0.755v-6.728c0-0.276-0.224-0.5-0.5-0.499z" />
</svg>