<svg id="sunrise_alt_Layer_1" viewBox="0 0 24 24" fill="currentColor" width="32" height="32" data-name="Layer 1" xmlns="http://www.w3.org/2000/svg" xmlns:xlink="http://www.w3.org/1999/xlink">
    <title>sunrise-alt</title>
    <path d="M24 23.5c0 0.276-0.224 0.5-0.5 0.5h-4.578c-0.738 0-1.373-0.551-1.477-1.281C17.062 20.029 14.721 18 12 18s-5.062 2.028-5.445 4.719C6.451 23.449 5.817 24 5.078 24H0.5C0.224 24 0 23.776 0 23.5S0.224 23 0.5 23h4.579c0.243 0 0.452-0.182 0.486-0.422 0.096-0.674 0.295-1.312 0.581-1.899l-4.299-2.557c-0.237-0.141-0.315-0.448-0.174-0.686 0.141-0.237 0.449-0.314 0.685-0.174l4.293 2.553c0.452-0.651 1.02-1.216 1.67-1.664l-2.549-4.4c-0.139-0.239-0.057-0.545 0.182-0.684s0.545-0.057 0.683 0.182l2.547 4.398c0.713-0.346 1.496-0.564 2.315-0.628v-4.52c0-0.276 0.224-0.5 0.5-0.5s0.5 0.224 0.5 0.5v4.52c0.818 0.063 1.6 0.282 2.312 0.627l2.523-4.396c0.138-0.24 0.444-0.322 0.683-0.185 0.239 0.138 0.322 0.443 0.185 0.683l-2.526 4.4c0.653 0.45 1.223 1.017 1.676 1.671l4.346-2.51c0.238-0.14 0.545-0.057 0.683 0.183 0.139 0.239 0.057 0.545-0.183 0.683l-4.341 2.508c0.284 0.587 0.482 1.223 0.578 1.895C18.469 22.822 18.674 23 18.921 23h4.578c0.276 0 0.5 0.224 0.501 0.5zM11.966 2e-3c0.021-3e-3-0.022-3e-3 0 0zM8.862 3.847l2.452-2.562c0.057-0.058 0.12-0.105 0.187-0.146v7.362c0 0.276 0.224 0.5 0.5 0.5s0.5-0.224 0.5-0.5V1.137c0.064 0.038 0.124 0.085 0.179 0.14l2.46 2.57c0.191 0.199 0.508 0.207 0.707 0.016s0.206-0.508 0.016-0.707l-2.469-2.579C13.018 0.201 12.46 9e-3 11.966 2e-3c-0.494 0.01-0.987 0.203-1.367 0.583l-2.46 2.57C7.948 3.354 7.955 3.671 8.155 3.862c0.199 0.19 0.516 0.184 0.707-0.015z" />
</svg>