<svg id="sunrise_Layer_1" viewBox="0 0 24 24" fill="currentColor" width="32" height="32" data-name="Layer 1" xmlns="http://www.w3.org/2000/svg" xmlns:xlink="http://www.w3.org/1999/xlink">
    <title>sunrise</title>
    <path d="M0 11.5C0 11.224 0.224 11 0.5 11h4.156c0.234 0 0.436-0.161 0.48-0.383 0.15-0.749 0.431-1.444 0.796-2.081L1.749 6.101C1.51 5.962 1.429 5.657 1.568 5.417c0.139-0.238 0.445-0.321 0.684-0.18l4.247 2.472c0.503-0.643 1.109-1.191 1.799-1.624L5.776 1.751C5.637 1.513 5.718 1.207 5.957 1.067c0.237-0.14 0.544-0.058 0.684 0.182l2.543 4.372c0.722-0.32 1.501-0.517 2.317-0.577V0.5c0-0.276 0.224-0.5 0.5-0.5s0.5 0.224 0.5 0.5v4.544c0.821 0.06 1.603 0.259 2.329 0.582l2.546-4.377c0.139-0.241 0.445-0.32 0.684-0.182 0.239 0.14 0.32 0.445 0.182 0.684l-2.525 4.343c0.687 0.433 1.29 0.98 1.791 1.622l4.258-2.479c0.236-0.139 0.544-0.059 0.684 0.181s0.059 0.545-0.18 0.685l-4.196 2.443c0.363 0.635 0.642 1.327 0.791 2.073 0.044 0.222 0.246 0.383 0.48 0.383h4.156c0.276 0 0.5 0.224 0.5 0.5s-0.224 0.5-0.5 0.5h-4.156c-0.709 0-1.323-0.499-1.461-1.187-0.559-2.789-3.032-4.813-5.883-4.813s-5.324 2.024-5.883 4.814c-0.138 0.687-0.752 1.186-1.461 1.186H0.5c-0.276 0-0.5-0.224-0.5-0.502zM23.174 22.354C22.69 22.77 22.063 23 21.409 23c-1.168 0-2.315-0.72-2.668-1.674-0.145-0.393-0.793-0.393-0.938 0C17.45 22.28 16.304 23 15.136 23s-2.315-0.72-2.668-1.674c-0.145-0.393-0.793-0.393-0.938 0C11.177 22.28 10.03 23 8.863 23s-2.315-0.72-2.667-1.673C6.123 21.131 5.936 21 5.727 21s-0.396 0.13-0.469 0.326C4.905 22.28 3.758 23 2.591 23c-0.654 0-1.281-0.229-1.766-0.646-0.208-0.18-0.524-0.156-0.705 0.053-0.18 0.21-0.156 0.525 0.054 0.705C0.84 23.684 1.698 24 2.591 24c1.239 0 2.434-0.594 3.136-1.494C6.43 23.406 7.623 24 8.863 24s2.434-0.594 3.136-1.494c0.703 0.9 1.897 1.494 3.137 1.494s2.433-0.594 3.136-1.494c0.703 0.9 1.897 1.494 3.137 1.494 0.893 0 1.751-0.315 2.417-0.888 0.209-0.18 0.233-0.495 0.053-0.705-0.179-0.209-0.494-0.232-0.705-0.053zM23.174 16.354C22.69 16.77 22.063 17 21.409 17c-1.168 0-2.315-0.72-2.668-1.674-0.145-0.393-0.793-0.393-0.938 0C17.45 16.28 16.304 17 15.136 17s-2.315-0.72-2.668-1.674c-0.145-0.393-0.793-0.393-0.938 0C11.177 16.28 10.03 17 8.863 17s-2.315-0.72-2.667-1.673C6.123 15.131 5.936 15 5.727 15s-0.396 0.13-0.469 0.326C4.905 16.28 3.758 17 2.591 17c-0.654 0-1.281-0.229-1.766-0.646-0.208-0.179-0.524-0.157-0.705 0.053-0.18 0.21-0.156 0.525 0.054 0.705C0.84 17.684 1.698 18 2.591 18c1.239 0 2.434-0.594 3.136-1.494C6.43 17.406 7.623 18 8.863 18s2.434-0.594 3.136-1.494c0.703 0.9 1.897 1.494 3.137 1.494s2.433-0.594 3.136-1.494c0.703 0.9 1.897 1.494 3.137 1.494 0.893 0 1.751-0.315 2.417-0.888 0.209-0.18 0.233-0.495 0.053-0.705-0.179-0.209-0.494-0.231-0.705-0.053z" />
</svg>