<svg id="sunscreen_Layer_1" viewBox="0 0 24 24" fill="currentColor" width="32" height="32" data-name="Layer 1" xmlns="http://www.w3.org/2000/svg" xmlns:xlink="http://www.w3.org/1999/xlink">
    <title>sunscreen</title>
    <path d="M11.944 1.291C11.188 0.471 10.115 0 8.998 0H4.002c-1.117 0-2.19 0.471-2.946 1.291-0.754 0.818-1.134 1.923-1.042 3.032C0.498 10.164 1.915 18.073 2 18.546V21c0 1.654 1.346 3 3 3h3c1.654 0 3-1.346 3-3v-2.454c0.085-0.473 1.503-8.382 1.986-14.224 0.092-1.108-0.288-2.213-1.042-3.031zM1.791 1.969C2.366 1.344 3.151 1 4.002 1h4.996c0.851 0 1.636 0.344 2.211 0.969 0.573 0.622 0.851 1.429 0.781 2.271-0.429 5.179-1.604 12.029-1.909 13.76H2.919C2.613 16.269 1.439 9.419 1.01 4.24 0.941 3.397 1.218 2.591 1.791 1.969zM10 21c0 1.103-0.897 2-2 2H5c-1.103 0-2-0.897-2-2v-2h7zM24 8.5C24 8.776 23.776 9 23.5 9h-2.525c-0.059 0.648-0.233 1.261-0.498 1.825l2.134 1.243c0.238 0.139 0.319 0.445 0.18 0.684-0.093 0.16-0.26 0.249-0.432 0.249-0.086 0-0.173-0.022-0.252-0.068l-2.135-1.243c-0.359 0.502-0.799 0.94-1.302 1.297l1.262 2.17c0.139 0.239 0.058 0.545-0.182 0.684-0.079 0.046-0.165 0.068-0.251 0.068-0.172 0-0.34-0.089-0.433-0.249l-1.263-2.172c-0.558 0.259-1.164 0.429-1.804 0.487V16.5c0 0.276-0.224 0.5-0.5 0.5s-0.5-0.224-0.5-0.5v-2.538c-0.391-0.035-0.777-0.097-1.15-0.214-0.263-0.083-0.409-0.364-0.326-0.627 0.082-0.263 0.359-0.41 0.627-0.327C14.585 12.931 15.039 13 15.5 13c2.481 0 4.5-2.019 4.5-4.5S17.981 4 15.5 4C15.224 4 15 3.776 15 3.5v-3C15 0.224 15.224 0 15.5 0S16 0.224 16 0.5v2.522c0.647 0.059 1.256 0.24 1.819 0.504l1.248-2.146c0.141-0.239 0.445-0.318 0.684-0.181 0.239 0.139 0.32 0.445 0.182 0.684l-1.25 2.148c0.498 0.355 0.925 0.794 1.28 1.292l2.156-1.255c0.236-0.138 0.544-0.059 0.684 0.181 0.14 0.239 0.059 0.544-0.18 0.684l-2.155 1.255c0.262 0.561 0.425 1.169 0.485 1.813h2.548c0.276 0 0.5 0.224 0.499 0.499z" />
</svg>