<svg id="supply_chain_Layer_1" viewBox="0 0 24 24" fill="currentColor" width="32" height="32" data-name="Layer 1" xmlns="http://www.w3.org/2000/svg" xmlns:xlink="http://www.w3.org/1999/xlink">
    <title>supply-chain</title>
    <path d="M16.29 7.568c0.439-0.73 0.173-1.685-0.573-2.091 0.044-0.325 0.044-0.628 0-0.953 0.746-0.407 1.013-1.361 0.573-2.092-0.439-0.736-1.414-0.95-2.124-0.476-0.208-0.148-0.431-0.274-0.666-0.376 0.041-0.854-0.643-1.581-1.5-1.579-0.827 0-1.5 0.673-1.5 1.5V1.58c-0.235 0.103-0.458 0.229-0.666 0.376C9.123 1.483 8.148 1.697 7.71 2.433 7.271 3.163 7.537 4.118 8.283 4.524c-0.044 0.325-0.044 0.628 0 0.953C7.537 5.884 7.27 6.838 7.71 7.569 8.148 8.304 9.124 8.518 9.834 8.045c0.208 0.148 0.431 0.273 0.666 0.376C10.459 9.275 11.143 10.002 12 10c0.857 2e-3 1.541-0.725 1.5-1.579 0.235-0.103 0.458-0.229 0.666-0.376 0.711 0.473 1.685 0.26 2.124-0.477zM14.75 5c0 0.194-0.024 0.395-0.076 0.613-0.049 0.212 0.044 0.432 0.23 0.543l0.355 0.212c0.236 0.142 0.313 0.45 0.173 0.686-0.142 0.237-0.449 0.315-0.687 0.172l-0.362-0.217c-0.186-0.11-0.423-0.09-0.586 0.053C13.521 7.304 13.2 7.485 12.845 7.6c-0.206 0.067-0.346 0.259-0.346 0.476v0.423c0 0.276-0.225 0.5-0.5 0.5s-0.5-0.224-0.5-0.5V8.076c0-0.217-0.14-0.409-0.346-0.476-0.355-0.115-0.676-0.296-0.952-0.538C10.108 6.98 9.99 6.938 9.872 6.938c-0.089 0-0.177 0.023-0.257 0.071L9.253 7.226C9.016 7.367 8.709 7.29 8.566 7.053 8.425 6.817 8.503 6.509 8.739 6.367l0.355-0.212c0.187-0.111 0.279-0.331 0.23-0.543-0.102-0.439-0.102-0.787 0-1.227 0.049-0.212-0.044-0.432-0.23-0.543L8.739 3.63C8.503 3.488 8.426 3.18 8.566 2.944 8.709 2.707 9.015 2.629 9.253 2.772l0.362 0.217C9.803 3.1 10.039 3.08 10.201 2.936c0.276-0.241 0.597-0.423 0.953-0.539 0.205-0.067 0.345-0.259 0.345-0.476V1.498c0-0.276 0.225-0.5 0.5-0.5s0.5 0.224 0.5 0.5v0.423c0 0.216 0.14 0.408 0.345 0.476 0.356 0.116 0.677 0.297 0.953 0.539 0.162 0.144 0.399 0.164 0.586 0.053l0.362-0.217c0.237-0.142 0.545-0.064 0.687 0.173 0.141 0.236 0.063 0.544-0.173 0.686l-0.355 0.212c-0.187 0.111-0.279 0.331-0.23 0.543C14.726 4.604 14.75 4.805 14.75 5zM3.5 20c1.103 0 2-0.897 2-2s-0.897-2-2-2-2 0.897-2 2 0.897 2 2 2zM3.5 17c0.552 0 1 0.449 1 1s-0.448 1-1 1-1-0.449-1-1 0.448-1 1-1zM7.281 11.77c0.087 0.262-0.055 0.545-0.317 0.632-0.255 0.086-0.545-0.053-0.632-0.317l-0.673-2.024C5.234 10.977 5 11.982 5 13c0 0.157 6e-3 0.313 0.016 0.467 0.018 0.276-0.191 0.514-0.467 0.532-0.011 0-0.021 0-0.033 0-0.261 0-0.48-0.203-0.498-0.467C4.006 13.356 4 13.178 4 12.999c0-1.122 0.251-2.229 0.703-3.247l-1.78 0.821c-0.247 0.114-0.547 6e-3-0.663-0.245-0.115-0.251-6e-3-0.548 0.245-0.664L4.813 8.6c0.31-0.138 0.661-0.142 0.971-0.011 0.319 0.134 0.567 0.396 0.68 0.719zM16.669 11.762c0.151-0.232 0.461-0.295 0.692-0.144l1.616 1.061c-0.055-1.213-0.407-2.387-1.055-3.412-0.147-0.233-0.078-0.542 0.156-0.69 0.229-0.146 0.54-0.079 0.689 0.156 0.726 1.149 1.125 2.463 1.2 3.821l0.979-1.929c0.126-0.247 0.425-0.346 0.673-0.22 0.246 0.125 0.345 0.426 0.22 0.672l-1.168 2.302C20.362 14 19.517 14.23 18.939 13.85l-2.127-1.396c-0.23-0.151-0.295-0.461-0.143-0.692zM21.5 16h-3c-1.379 0-2.5 1.122-2.5 2.5v3c0 1.378 1.121 2.5 2.5 2.5h3c1.379 0 2.5-1.122 2.5-2.5v-3c0-1.378-1.121-2.5-2.5-2.5zM23 21.5c0 0.827-0.673 1.5-1.5 1.5h-3c-0.827 0-1.5-0.673-1.5-1.5v-3c0-0.827 0.673-1.5 1.5-1.5h3c0.827 0 1.5 0.673 1.5 1.5zM21.5 18.5c0 0.276-0.224 0.5-0.5 0.5h-2c-0.276 0-0.5-0.224-0.5-0.5S18.724 18 19 18h2c0.276 0 0.5 0.224 0.5 0.5zM6.968 23.325c0.098 0.258-0.034 0.546-0.292 0.644-0.252 0.096-0.547-0.031-0.644-0.293-0.376-1.002-1.394-1.675-2.532-1.675s-2.156 0.673-2.532 1.675c-0.097 0.259-0.383 0.388-0.644 0.293-0.258-0.097-0.39-0.385-0.292-0.644C0.553 21.934 1.946 21 3.5 21s2.947 0.934 3.468 2.325zM13.99 20.251c0.055 0.271-0.12 0.534-0.391 0.589-0.523 0.106-1.062 0.16-1.6 0.16-0.892 0-1.759-0.151-2.59-0.436l1.204 1.764c0.155 0.228 0.097 0.539-0.131 0.695-0.226 0.154-0.538 0.099-0.695-0.131L8.3 20.714c-0.187-0.282-0.248-0.627-0.173-0.954 0.08-0.338 0.297-0.626 0.596-0.792l2.312-1.227c0.244-0.129 0.546-0.037 0.676 0.208s0.037 0.547-0.207 0.676l-1.815 0.963c1.187 0.415 2.476 0.524 3.711 0.272 0.271-0.055 0.535 0.12 0.59 0.391zM13 5c0 0.552-0.448 1-1 1s-1-0.448-1-1 0.448-1 1-1 1 0.448 1 1z" />
</svg>