<svg id="supplier_alt_Layer_1" viewBox="0 0 24 24" fill="currentColor" width="32" height="32" data-name="Layer 1" xmlns="http://www.w3.org/2000/svg" xmlns:xlink="http://www.w3.org/1999/xlink">
    <title>supplier-alt</title>
    <path d="M4.5 5C5.878 5 7 3.879 7 2.5S5.878 0 4.5 0 2 1.121 2 2.5 3.122 5 4.5 5zM4.5 1C5.327 1 6 1.673 6 2.5S5.327 4 4.5 4 3 3.327 3 2.5 3.673 1 4.5 1zM7 9.5v14C7 23.776 6.776 24 6.5 24S6 23.776 6 23.5V17H3.5c-0.171 0-0.335-0.027-0.5-0.051V23.5C3 23.776 2.776 24 2.5 24S2 23.776 2 23.5v-6.851c-1.178-0.564-2-1.758-2-3.149v-4C0 7.57 1.57 6 3.5 6h11C14.776 6 15 6.224 15 6.5S14.776 7 14.5 7h-11C2.122 7 1 8.121 1 9.5v4C1 14.879 2.122 16 3.5 16H6V9.5C6 9.224 6.224 9 6.5 9S7 9.224 7 9.5zM21.5 16h-1.513c0.317-0.419 0.513-0.935 0.513-1.5v-3c0-1.379-1.122-2.5-2.5-2.5h-3c-1.378 0-2.5 1.121-2.5 2.5v3c0 0.565 0.195 1.081 0.513 1.5H11.5C10.122 16 9 17.121 9 18.5v3c0 1.379 1.122 2.5 2.5 2.5h3c0.821 0 1.544-0.403 2-1.015 0.456 0.613 1.179 1.015 2 1.015h3c1.378 0 2.5-1.121 2.5-2.5v-3c0-1.379-1.122-2.5-2.5-2.5zM13.5 11.5c0-0.827 0.673-1.5 1.5-1.5h3c0.827 0 1.5 0.673 1.5 1.5v3c0 0.827-0.673 1.5-1.5 1.5h-3c-0.827 0-1.5-0.673-1.5-1.5zM14.5 23h-3c-0.827 0-1.5-0.673-1.5-1.5v-3c0-0.827 0.673-1.5 1.5-1.5h3c0.827 0 1.5 0.673 1.5 1.5v3c0 0.827-0.673 1.5-1.5 1.5zM23 21.5c0 0.827-0.673 1.5-1.5 1.5h-3c-0.827 0-1.5-0.673-1.5-1.5v-3c0-0.827 0.673-1.5 1.5-1.5h3c0.827 0 1.5 0.673 1.5 1.5zM15.5 11.5c0-0.276 0.224-0.5 0.5-0.5h1c0.276 0 0.5 0.224 0.5 0.5S17.276 12 17 12h-1c-0.276 0-0.5-0.224-0.5-0.5zM21 18.5c0 0.276-0.224 0.5-0.5 0.5h-1c-0.276 0-0.5-0.224-0.5-0.5s0.224-0.5 0.5-0.5h1c0.276 0 0.5 0.224 0.5 0.5zM14 18.5c0 0.276-0.224 0.5-0.5 0.5h-1c-0.276 0-0.5-0.224-0.5-0.5s0.224-0.5 0.5-0.5h1c0.276 0 0.5 0.224 0.5 0.5z" />
</svg>