<svg id="surfing_Layer_1" viewBox="0 0 24 24" fill="currentColor" width="32" height="32" data-name="Layer 1" xmlns="http://www.w3.org/2000/svg" xmlns:xlink="http://www.w3.org/1999/xlink">
    <title>surfing</title>
    <path d="M20.372 0c-1.44 0-6.541 0.399-11.683 5.542-3.607 3.607-6.511 7.835-8.396 12.224-0.59 1.375-0.286 2.949 0.774 4.009l1.157 1.157c0.701 0.701 1.626 1.071 2.57 1.071 0.482 0 0.97-0.097 1.436-0.296 4.38-1.874 8.608-4.778 12.228-8.397C23.601 10.168 24 5.068 24 3.627 24 1.253 22.746-1e-3 20.372 0zM17.751 14.604c-3.53 3.53-7.65 6.36-11.914 8.185-0.98 0.42-2.148 0.194-2.905-0.563l-0.225-0.225 13.147-13.147c0.195-0.195 0.195-0.512 0-0.707s-0.512-0.195-0.707 0L2 21.293 1.775 21.068c-0.757-0.757-0.983-1.926-0.562-2.908 1.835-4.274 4.665-8.393 8.184-11.912 3.87-3.87 8.207-5.249 10.976-5.249 1.817 0 2.628 0.811 2.628 2.628 0 2.769-1.379 7.106-5.25 10.977z" />
</svg>