<svg id="surveillance_camera_Layer_1" viewBox="0 0 24 24" fill="currentColor" width="32" height="32" data-name="Layer 1" xmlns="http://www.w3.org/2000/svg" xmlns:xlink="http://www.w3.org/1999/xlink">
    <title>surveillance-camera</title>
    <path d="M17.5 9c1.207 0 2.217-0.86 2.449-2H21c0.551 0 1-0.448 1-1V3c0-0.503-0.38-0.903-0.864-0.972l0.24-0.345c0.182-0.363 0.163-0.786-0.051-1.131C21.112 0.206 20.742 0 20.337 0H5.5C3.57 0 2 1.57 2 3.5v2C2 7.43 3.57 9 5.5 9h4.778l-1.773 4.729C7.996 15.087 6.679 16 5.228 16H1v-4.5C1 11.224 0.776 11 0.5 11S0 11.224 0 11.5v10C0 21.776 0.224 22 0.5 22S1 21.776 1 21.5V17h4.228c1.865 0 3.559-1.174 4.213-2.92L11.346 9zM20.5 3H21v3h-1V3.657l0.463-0.665c0.013 0 0.024 7e-3 0.037 8e-3zM3 5.5v-2C3 2.121 4.122 1 5.5 1h14.837c0.079 0 0.12 0.048 0.138 0.077 0.018 0.028 0.042 0.088 0.045 0.095l-1.429 2.041c-0.059 0.084-0.09 0.185-0.09 0.287v3c0 0.827-0.673 1.5-1.5 1.5h-6.515c0 0-6e-3 0-9e-3 0H5.5C4.122 8 3 6.879 3 5.5zM23.575 18.28v0C22.644 17.055 20.553 15 17.001 15c-3.595 0-5.694 2.099-6.625 3.35-0.512 0.688-0.512 1.613 0 2.302 0.932 1.251 3.032 3.349 6.625 3.349 3.552 0 5.644-2.056 6.574-3.281 0.553-0.729 0.553-1.709 0-2.44zM22.778 20.113c-1 1.317-2.813 2.887-5.777 2.887-2.999 0-4.822-1.603-5.823-2.946-0.247-0.331-0.247-0.775 0-1.106 1.001-1.345 2.824-2.947 5.823-2.947 2.963 0 4.778 1.569 5.777 2.886 0.284 0.373 0.284 0.854 0 1.226zM17 17.5c-1.103 0-2 0.897-2 2s0.897 2 2 2 2-0.897 2-2-0.897-2-2-2zM17 20.5c-0.551 0-1-0.448-1-1s0.449-1 1-1 1 0.448 1 1-0.449 1-1 1z" />
</svg>