<svg id="survey_xmark_Layer_1" viewBox="0 0 24 24" fill="currentColor" width="32" height="32" data-name="Layer 1" xmlns="http://www.w3.org/2000/svg" xmlns:xlink="http://www.w3.org/1999/xlink">
    <title>survey-xmark</title>
    <path d="M10.854 7.854 9.208 9.5l1.646 1.646c0.195 0.195 0.195 0.512 0 0.707-0.098 0.098-0.226 0.146-0.354 0.146s-0.256-0.049-0.354-0.146L8.5 10.207 6.854 11.853c-0.098 0.098-0.226 0.146-0.354 0.146s-0.256-0.049-0.354-0.146c-0.195-0.195-0.195-0.512 0-0.707L7.792 9.5 6.146 7.854c-0.195-0.195-0.195-0.512 0-0.707s0.512-0.195 0.707 0l1.646 1.646 1.646-1.646c0.195-0.195 0.512-0.195 0.707 0s0.195 0.512 2e-3 0.707zM17.5 9h-4C13.224 9 13 9.224 13 9.5s0.224 0.5 0.5 0.5h4c0.276 0 0.5-0.224 0.5-0.5S17.776 9 17.5 9zM10.854 14.146c-0.195-0.195-0.512-0.195-0.707 0l-1.646 1.646-1.646-1.646c-0.195-0.195-0.512-0.195-0.707 0s-0.195 0.512 0 0.707l1.646 1.646-1.646 1.646c-0.195 0.195-0.195 0.512 0 0.707 0.098 0.098 0.226 0.146 0.354 0.146s0.256-0.049 0.354-0.146l1.646-1.646 1.646 1.646c0.098 0.098 0.226 0.146 0.354 0.146s0.256-0.049 0.354-0.146c0.195-0.195 0.195-0.512 0-0.707L9.21 16.499l1.646-1.646c0.195-0.195 0.195-0.512-2e-3-0.707zM17.5 16h-4c-0.276 0-0.5 0.224-0.5 0.5s0.224 0.5 0.5 0.5h4c0.276 0 0.5-0.224 0.5-0.5S17.776 16 17.5 16zM21 6.5v13c0 2.481-2.019 4.5-4.5 4.5h-9C5.019 24 3 21.981 3 19.5v-13C3 4.019 5.019 2 7.5 2h0.55c0.232-1.14 1.243-2 2.45-2h3c1.207 0 2.218 0.86 2.45 2h0.55C18.981 2 21 4.019 21 6.5zM20 6.5C20 4.57 18.43 3 16.5 3h-1C15.224 3 15 2.776 15 2.5 15 1.673 14.327 1 13.5 1h-3C9.673 1 9 1.673 9 2.5 9 2.776 8.776 3 8.5 3h-1C5.57 3 4 4.57 4 6.5v13C4 21.43 5.57 23 7.5 23h9c1.93 0 3.5-1.57 3.5-3.5z" />
</svg>