<svg id="sushi_alt_Layer_1" viewBox="0 0 24 24" fill="currentColor" width="32" height="32" data-name="Layer 1" xmlns="http://www.w3.org/2000/svg" xmlns:xlink="http://www.w3.org/1999/xlink">
    <title>sushi-alt</title>
    <path d="M23.998 11.396c-0.019-3.947-2.585-7.491-6.255-8.628C16.237 2.301 13.983 2 12 2S7.763 2.301 6.257 2.768C2.587 3.905 0.021 7.45 2e-3 11.396 2e-3 11.399 0 16.5 0 16.5 0 20.299 2.26 22 4.5 22c0.802 0 1.555-0.312 2.121-0.878 0.197-0.199 0.559-0.199 0.758 0 1.133 1.134 3.109 1.133 4.242 0 0.197-0.199 0.559-0.199 0.758 0 1.133 1.134 3.109 1.133 4.242 0 0.197-0.199 0.559-0.199 0.758 0 0.566 0.567 1.319 0.879 2.121 0.879 2.24 0 4.5-1.701 4.5-5.5 0 0-2e-3-5.1-2e-3-5.105zM6.554 3.723C7.117 3.549 7.811 3.399 8.558 3.28l3.593 5.717c0.095 0.151 0.257 0.234 0.423 0.234 0.092 0 0.184-0.025 0.266-0.077 0.234-0.147 0.305-0.456 0.157-0.689l-3.35-5.329C10.436 3.05 11.244 3 12 3c5e-3 0 0.011 0 0.016 0l4.205 6.691c0.095 0.151 0.257 0.234 0.423 0.234 0.092 0 0.184-0.025 0.266-0.077 0.234-0.147 0.305-0.456 0.157-0.689l-3.845-6.118c0.922 0.055 1.857 0.168 2.701 0.323 3e-3 6e-3 3e-3 0.012 7e-3 0.018l4.956 7.885c0.095 0.151 0.257 0.234 0.423 0.234 0.092 0 0.184-0.025 0.266-0.077 0.234-0.147 0.305-0.456 0.157-0.689l-4.433-7.052c0.048 0.014 0.102 0.027 0.148 0.041 3.271 1.014 5.554 4.187 5.554 7.717v0.25c0 0.669-0.296 1.222-0.832 1.554-0.597 0.37-1.363 0.387-2.048 0.046C18.142 12.308 15.147 11 12.001 11s-6.142 1.308-8.12 2.291C3.257 13.6 2.56 13.567 1.97 13.201c-0.606-0.376-0.969-1.034-0.969-1.76 0-0.631 0.097-1.244 0.235-1.842l1.29 2.052c0.095 0.151 0.257 0.234 0.423 0.234 0.092 0 0.184-0.025 0.266-0.077 0.234-0.147 0.305-0.456 0.157-0.689l-1.74-2.768c0.317-0.777 0.745-1.494 1.273-2.132l2.581 4.105c0.095 0.151 0.257 0.234 0.423 0.234 0.092 0 0.184-0.025 0.267-0.077 0.233-0.147 0.304-0.456 0.156-0.689L3.611 5.463c0.508-0.474 1.069-0.89 1.69-1.215l3.266 5.198C8.663 9.597 8.825 9.68 8.991 9.68c0.092 0 0.184-0.025 0.266-0.077 0.234-0.147 0.305-0.456 0.158-0.689l-3.18-5.06c0.109-0.039 0.209-0.096 0.319-0.131zM19.5 21c-0.534 0-1.036-0.208-1.414-0.586-0.588-0.587-1.584-0.587-2.172 0-0.756 0.756-2.072 0.756-2.828 0-0.588-0.587-1.584-0.587-2.172 0-0.756 0.756-2.072 0.756-2.828 0-0.588-0.587-1.584-0.587-2.172 0C5.536 20.792 5.034 21 4.5 21 2.886 21 1 19.821 1 16.5v-2.808c0.139 0.128 0.277 0.257 0.441 0.359 0.879 0.545 1.957 0.595 2.884 0.136C6.214 13.249 9.064 12 12 12s5.786 1.248 7.675 2.187c0.47 0.233 0.968 0.349 1.456 0.349 0.552 0 1.091-0.147 1.564-0.441 0.114-0.071 0.204-0.164 0.305-0.248V16.5c0 3.321-1.886 4.5-3.5 4.5z" />
</svg>