<svg id="sushi_Layer_1" viewBox="0 0 24 24" fill="currentColor" width="32" height="32" data-name="Layer 1" xmlns="http://www.w3.org/2000/svg" xmlns:xlink="http://www.w3.org/1999/xlink">
    <title>sushi</title>
    <path d="M8.5 12c1.671 0 4.5-0.316 4.5-1.5S10.171 9 8.5 9 4 9.316 4 10.5 6.829 12 8.5 12zM8.5 10c1.696 0 2.849 0.279 3.322 0.5C11.348 10.721 10.196 11 8.5 11s-2.849-0.279-3.322-0.5C5.652 10.279 6.804 10 8.5 10zM24 4.5C24 1.977 20.267 0 15.5 0S7 1.977 7 4.5v1.567C2.973 6.432 0 8.248 0 10.5v8.875C0 21.969 3.733 24 8.5 24s8.5-2.031 8.5-4.625V17.93c4.084-0.383 7-2.26 7-4.555zM15.5 1C19.565 1 23 2.603 23 4.5c0 1.881-3.375 3.471-7.393 3.499-1.462-1.177-3.949-1.952-6.841-1.997C8.258 5.522 8 5.017 8 4.5 8 2.603 11.435 1 15.5 1zM8.5 7c4.065 0 7.5 1.603 7.5 3.5S12.565 14 8.5 14 1 12.397 1 10.5 4.435 7 8.5 7zM8.5 23C4.435 23 1 21.34 1 19.375V12.65C2.419 14.06 5.214 15 8.5 15s6.081-0.939 7.5-2.35v6.725C16 21.34 12.565 23 8.5 23zM23 13.375c0 1.692-2.595 3.203-6 3.55V10.5c0-0.54-0.171-1.055-0.487-1.531C19.355 8.798 21.729 7.913 23 6.65zM15.5 6C17.171 6 20 5.684 20 4.5S17.171 3 15.5 3 11 3.316 11 4.5 13.829 6 15.5 6zM15.5 4c1.696 0 2.849 0.279 3.322 0.5C18.348 4.721 17.196 5 15.5 5s-2.849-0.279-3.322-0.5C12.652 4.279 13.804 4 15.5 4z" />
</svg>