<svg id="sushi_roll_Layer_1" viewBox="0 0 24 24" fill="currentColor" width="32" height="32" data-name="Layer 1" xmlns="http://www.w3.org/2000/svg" xmlns:xlink="http://www.w3.org/1999/xlink">
    <title>sushi-roll</title>
    <path d="M24 6c0-3.364-5.271-6-12-6S0 2.636 0 6v11.75C0 21.313 5.159 24 12 24s12-2.687 12-6.25zM12 1c5.963 0 11 2.29 11 5s-5.037 5-11 5S1 8.71 1 6 6.038 1 12 1zM23 17.75C23 20.694 18.168 23 12 23S1 20.694 1 17.75V8.432C2.833 10.551 7.013 12 12 12s9.167-1.449 11-3.568zM4.527 7.047C5.184 7.505 7.665 9 12 9s6.815-1.495 7.473-1.953C19.803 6.817 20 6.425 20 6s-0.197-0.816-0.527-1.047C18.816 4.495 16.335 3 12 3S5.185 4.495 4.527 4.953C4.197 5.183 4 5.575 4 6s0.197 0.816 0.527 1.047zM5.099 5.774c0.597-0.416 2.857-1.773 6.9-1.773s6.304 1.357 6.9 1.773c0.073 0.051 0.1 0.15 0.1 0.227s-0.026 0.175-0.1 0.227c-0.597 0.416-2.857 1.773-6.9 1.773s-6.304-1.357-6.9-1.773c-0.073-0.051-0.1-0.15-0.1-0.227s0.026-0.175 0.1-0.227z" />
</svg>