<svg id="svg_Layer_1" viewBox="0 0 24 24" fill="currentColor" width="32" height="32" data-name="Layer 1" xmlns="http://www.w3.org/2000/svg" xmlns:xlink="http://www.w3.org/1999/xlink">
    <title>svg</title>
    <path d="M13.5 9V6c0-1.103 0.897-2 2-2s2 0.897 2 2c0 0.276-0.224 0.5-0.5 0.5S16.5 6.276 16.5 6c0-0.551-0.448-1-1-1s-1 0.449-1 1v3c0 0.551 0.448 1 1 1s1-0.449 1-1V8.5h-1C15.224 8.5 15 8.276 15 8s0.224-0.5 0.5-0.5H17c0.276 0 0.5 0.224 0.5 0.5v1c0 1.103-0.897 2-2 2s-2-0.897-2-2zM12.402 4h-5e-3c-0.229 0-0.428 0.156-0.483 0.378l-1.346 5.43-1.401-5.435C9.11 4.154 8.912 4 8.685 4 8.358 4 8.12 4.309 8.204 4.625l1.511 5.741c0.054 0.24 0.224 0.458 0.462 0.579 0.236 0.122 0.518 0.132 0.771 0.024 0.261-0.109 0.451-0.345 0.521-0.645l1.415-5.708c0.078-0.314-0.16-0.617-0.482-0.616zM6.131 7.033c-0.264-0.1-1.012-0.396-1.289-0.565-0.256-0.182-0.375-0.447-0.336-0.745 0.041-0.314 0.248-0.569 0.539-0.666 0.451-0.149 0.912-3e-3 1.447 0.46C6.7 5.698 7.015 5.675 7.197 5.466 7.378 5.258 7.355 4.942 7.146 4.761 6.341 4.063 5.531 3.844 4.732 4.107 4.072 4.325 3.605 4.894 3.513 5.592 3.426 6.255 3.706 6.886 4.3 7.305 4.727 7.57 5.672 7.929 5.767 7.964 6.62 8.309 6.589 8.931 6.56 9.113 6.476 9.627 6.022 10 5.48 10 5.053 10 4.358 9.688 4.022 9.347 3.829 9.149 3.509 9.148 3.315 9.341c-0.197 0.194-0.199 0.511-6e-3 0.708C3.77 10.516 4.707 11 5.48 11c1.035 0 1.904-0.726 2.066-1.727 0.117-0.722-0.18-1.741-1.415-2.24zM23.999 4.5v9.515c0 1.736-0.677 3.369-1.904 4.597l-3.484 3.484C17.383 23.324 15.751 24 14.014 24H4.5C2.019 24 0 21.981 0 19.5v-15C0 2.019 2.019 0 4.5 0h15c2.481 0 4.5 2.019 4.499 4.5zM14.014 23c0.335 0 0.663-0.038 0.985-0.096V17.5c0-1.379 1.121-2.5 2.5-2.5h5.404c0.058-0.323 0.096-0.651 0.096-0.985V4.5c0-1.93-1.57-3.5-3.5-3.5H4.5C2.57 1 1 2.57 1 4.5v15C1 21.43 2.57 23 4.5 23zM22.62 16H17.5c-0.827 0-1.5 0.673-1.5 1.5v5.121c0.704-0.273 1.354-0.682 1.904-1.232l3.484-3.484c0.55-0.55 0.959-1.2 1.232-1.905z" />
</svg>