<svg id="swatchbook_Layer_1" viewBox="0 0 24 24" fill="currentColor" width="32" height="32" data-name="Layer 1" xmlns="http://www.w3.org/2000/svg" xmlns:xlink="http://www.w3.org/1999/xlink">
    <title>swatchbook</title>
    <path d="M20.5 14h-3.429l2.904-2.904C20.636 10.435 21 9.556 21 8.621s-0.364-1.814-1.025-2.475l-2.121-2.121c-1.322-1.323-3.629-1.322-4.95 0L10 6.929V3.5C10 1.57 8.43 0 6.5 0h-3C1.57 0 0 1.57 0 3.5V19c0 2.757 2.243 5 5 5h15.5c1.93 0 3.5-1.57 3.5-3.5v-3c0-1.93-1.57-3.5-3.5-3.5zM13.611 4.732c0.944-0.944 2.591-0.945 3.536 0l2.121 2.121C19.74 7.325 20 7.953 20 8.621s-0.26 1.296-0.732 1.768L9.95 19.707C9.983 19.476 10 19.24 10 19V8.343zM1 7h8v5H1zM3.5 1h3C7.878 1 9 2.122 9 3.5V6H1V3.5C1 2.122 2.122 1 3.5 1zM1 19v-6h8v6c0 2.102-1.798 3.999-3.899 3.999S1 21.206 1 19zM23 20.5c0 1.378-1.122 2.5-2.5 2.5H8.001c0.187-0.141 0.366-0.296 0.535-0.464L16.071 15H20.5c1.378 0 2.5 1.122 2.5 2.5zM5 20c-0.552 0-1-0.448-1-1s0.448-1 1-1 1 0.448 1 1-0.448 1-1 1z" />
</svg>