<svg id="sweep_Layer_1" viewBox="0 0 24 24" fill="currentColor" width="32" height="32" data-name="Layer 1" xmlns="http://www.w3.org/2000/svg" xmlns:xlink="http://www.w3.org/1999/xlink">
    <title>sweep</title>
    <path d="M16.5 10h-4V0.5C12.5 0.224 12.276 0 12 0s-0.5 0.224-0.5 0.5V10h-4C5.019 10 3 12.019 3 14.5v7C3 22.72 2.72 23 1.5 23 1.224 23 1 23.224 1 23.5S1.224 24 1.5 24h16c1.93 0 3.5-1.57 3.5-3.5v-6c0-2.481-2.019-4.5-4.5-4.5zM7.5 11h9c1.758 0 3.204 1.308 3.449 3H4.051c0.245-1.692 1.691-3 3.449-3zM17.5 23H3.716C3.91 22.621 4 22.126 4 21.5V15h3v4.5C7 19.776 7.224 20 7.5 20S8 19.776 8 19.5V15h2v4.5c0 0.276 0.224 0.5 0.5 0.5s0.5-0.224 0.5-0.5V15h2v4.5c0 0.276 0.224 0.5 0.5 0.5s0.5-0.224 0.5-0.5V15h2v4.5c0 0.276 0.224 0.5 0.5 0.5s0.5-0.224 0.5-0.5V15h3v5.5c0 1.378-1.121 2.5-2.5 2.5zM1.306 3.915 3.257 4.737 4.036 6.686C4.112 6.876 4.296 7 4.5 7s0.388-0.125 0.464-0.314l0.777-1.944 1.944-0.777c0.19-0.076 0.314-0.26 0.314-0.464S7.874 3.113 7.685 3.037L5.741 2.26 4.964 0.316c-0.152-0.38-0.776-0.38-0.929 0L3.26 2.255 1.323 2.988C1.132 3.061 1.004 3.242 1 3.446s0.117 0.391 0.306 0.469zM3.82 3.111c0.131-0.05 0.235-0.152 0.288-0.282l0.393-0.982 0.393 0.982c0.051 0.127 0.152 0.228 0.279 0.279l0.982 0.393-0.982 0.393C5.046 3.945 4.945 4.046 4.894 4.173L4.501 5.155 4.108 4.173c-0.05-0.124-0.147-0.223-0.27-0.275L2.847 3.481zM23.686 5.036 21.743 4.259 20.965 2.315c-0.15-0.38-0.777-0.38-0.928 0l-0.776 1.939-1.937 0.733c-0.191 0.073-0.319 0.254-0.323 0.458s0.117 0.391 0.306 0.47l1.95 0.822 0.78 1.949C20.112 8.876 20.297 9 20.501 9s0.389-0.125 0.464-0.314l0.778-1.944 1.943-0.777C23.876 5.889 24 5.705 24 5.501s-0.124-0.388-0.314-0.465zM21.172 5.893c-0.127 0.051-0.228 0.151-0.278 0.279L20.5 7.154 20.106 6.172c-0.049-0.125-0.146-0.223-0.27-0.275l-0.99-0.417 0.973-0.368c0.131-0.05 0.235-0.152 0.287-0.282L20.5 3.848 20.894 4.83c0.051 0.127 0.151 0.228 0.278 0.279l0.981 0.393z" />
</svg>