<svg id="swimmer_Layer_1" viewBox="0 0 24 24" fill="currentColor" width="32" height="32" data-name="Layer 1" xmlns="http://www.w3.org/2000/svg" xmlns:xlink="http://www.w3.org/1999/xlink">
    <title>swimmer</title>
    <path d="M3 2.5C3 2.224 3.224 2 3.5 2h4.915c1.468 0 2.848 0.718 3.689 1.922l5.113 7.317c0.158 0.227 0.103 0.538-0.124 0.696-0.087 0.061-0.187 0.09-0.286 0.09-0.157 0-0.312-0.074-0.41-0.213l-3.766-5.389-8.835 6.48C3.707 12.968 3.603 13 3.5 13c-0.153 0-0.306-0.071-0.403-0.204-0.163-0.223-0.115-0.536 0.107-0.699l8.855-6.494-0.774-1.108C10.631 3.559 9.557 3 8.416 3H3.5C3.224 3 3 2.776 3 2.5zM16 5.5C16 4.122 17.121 3 18.5 3S21 4.122 21 5.5 19.879 8 18.5 8 16 6.878 16 5.5zM17 5.5C17 6.327 17.673 7 18.5 7S20 6.327 20 5.5 19.327 4 18.5 4 17 4.673 17 5.5zM23.174 20.354C22.69 20.771 22.063 21 21.409 21c-1.168 0-2.315-0.719-2.668-1.673-0.145-0.393-0.793-0.393-0.938 0C17.45 20.281 16.304 21 15.136 21s-2.315-0.719-2.668-1.673c-0.145-0.393-0.793-0.393-0.938 0C11.177 20.281 10.03 21 8.862 21s-2.314-0.719-2.667-1.673c-0.145-0.393-0.793-0.393-0.938 0C4.904 20.281 3.757 21 2.589 21c-0.653 0-1.28-0.229-1.765-0.646-0.21-0.18-0.525-0.156-0.705 0.054-0.181 0.209-0.156 0.525 0.053 0.705C0.838 21.685 1.696 22 2.589 22c1.239 0 2.434-0.594 3.137-1.494C6.429 21.406 7.622 22 8.862 22s2.434-0.594 3.137-1.494c0.703 0.9 1.897 1.494 3.137 1.494s2.433-0.594 3.136-1.494c0.703 0.9 1.897 1.494 3.137 1.494 0.893 0 1.751-0.315 2.417-0.887 0.209-0.18 0.233-0.496 0.053-0.705-0.179-0.21-0.494-0.233-0.705-0.054zM0.174 16.113C0.84 16.685 1.698 17 2.591 17c1.239 0 2.434-0.594 3.137-1.494C6.431 16.406 7.624 17 8.864 17s2.434-0.594 3.137-1.494c0.703 0.9 1.897 1.494 3.137 1.494s2.433-0.594 3.136-1.494c0.703 0.9 1.897 1.494 3.137 1.494 0.893 0 1.751-0.315 2.417-0.887 0.209-0.18 0.233-0.496 0.053-0.705-0.179-0.21-0.494-0.233-0.705-0.054C22.692 15.771 22.065 16 21.411 16c-1.168 0-2.315-0.719-2.668-1.673-0.145-0.393-0.793-0.393-0.938 0C17.452 15.281 16.306 16 15.138 16s-2.315-0.719-2.668-1.673c-0.145-0.393-0.793-0.393-0.938 0C11.179 15.281 10.032 16 8.864 16s-2.314-0.719-2.667-1.673c-0.145-0.393-0.793-0.393-0.938 0C4.906 15.281 3.759 16 2.591 16c-0.653 0-1.28-0.229-1.765-0.646-0.21-0.18-0.525-0.156-0.705 0.054-0.181 0.209-0.156 0.525 0.053 0.705z" />
</svg>