<svg id="swimming_pool_Layer_1" viewBox="0 0 24 24" fill="currentColor" width="32" height="32" data-name="Layer 1" xmlns="http://www.w3.org/2000/svg" xmlns:xlink="http://www.w3.org/1999/xlink">
    <title>swimming-pool</title>
    <path d="M23.826 23.113C23.16 23.685 22.302 24 21.409 24c-1.24 0-2.434-0.594-3.137-1.494-0.703 0.9-1.896 1.494-3.136 1.494S12.702 23.406 12 22.506C11.297 23.406 10.103 24 8.864 24s-2.434-0.594-3.136-1.494C5.025 23.406 3.831 24 2.591 24c-0.893 0-1.75-0.315-2.417-0.887-0.209-0.18-0.233-0.496-0.054-0.705 0.181-0.21 0.497-0.233 0.705-0.054C1.31 22.771 1.937 23 2.59 23c1.168 0 2.315-0.719 2.668-1.673C5.33 21.131 5.517 21 5.727 21s0.396 0.13 0.469 0.327C6.548 22.281 7.695 23 8.863 23s2.314-0.719 2.667-1.673c0.145-0.393 0.793-0.393 0.938 0 0.353 0.954 1.5 1.673 2.667 1.673s2.315-0.719 2.667-1.673c0.146-0.392 0.794-0.393 0.938 0 0.353 0.954 1.5 1.673 2.668 1.673 0.653 0 1.28-0.229 1.765-0.646 0.209-0.179 0.525-0.156 0.705 0.054 0.18 0.209 0.156 0.525-0.052 0.705zM5 18.501 4.972 4.621C4.987 2.039 6.962 0.011 9.467 0v2e-3C9.478 2e-3 9.489 0 9.5 0 9.776 0 10 0.224 10 0.5S9.776 1 9.5 1c-1.979 8e-3-3.516 1.6-3.528 3.623l5e-3 2.382H18V4.501C18 2.029 20.01 0.01 22.481 0v0c6e-3 0 0.013 0 0.019 0 0.276 0 0.5 0.224 0.5 0.5 0 0.271-0.216 0.492-0.486 0.499v0C20.563 1.008 19 2.578 19 4.5v14c0 0.276-0.224 0.5-0.5 0.5S18 18.776 18 18.5v-4.496H5.991L6 18.499c0 0.276-0.223 0.5-0.499 0.501v0c-0.276 0-0.5-0.223-0.501-0.499zM5.979 8.004l0.01 5H18v-5z" />
</svg>