<svg id="swing_Layer_1" viewBox="0 0 24 24" fill="currentColor" width="32" height="32" data-name="Layer 1" xmlns="http://www.w3.org/2000/svg" xmlns:xlink="http://www.w3.org/1999/xlink">
    <title>swing</title>
    <path d="M6.5 5C7.878 5 9 3.878 9 2.5S7.878 0 6.5 0 4 1.122 4 2.5 5.122 5 6.5 5zM6.5 1C7.327 1 8 1.673 8 2.5S7.327 4 6.5 4 5 3.327 5 2.5 5.673 1 6.5 1zM17.5 5C18.878 5 20 3.878 20 2.5S18.878 0 17.5 0 15 1.122 15 2.5 16.122 5 17.5 5zM17.5 1C18.327 1 19 1.673 19 2.5S18.327 4 17.5 4 16 3.327 16 2.5 16.673 1 17.5 1zM23.5 2C23.224 2 23 2.224 23 2.5V6H1V2.5C1 2.224 0.776 2 0.5 2S0 2.224 0 2.5V6c0 0.551 0.449 1 1 1h2.492l-1.373 7.329c-0.196 1.047-0.13 2.138 0.19 3.153l1.958 6.17c0.067 0.213 0.264 0.349 0.477 0.349 0.05 0 0.101-8e-3 0.151-0.023 0.263-0.084 0.409-0.364 0.325-0.628l-1.958-6.169c-0.121-0.383-0.192-0.78-0.227-1.18h7.587c0.177 0 0.268 0.116 0.299 0.167 0.031 0.05 0.094 0.183 0.015 0.341l-1.884 3.769c-0.124 0.247-0.023 0.548 0.224 0.671 0.072 0.036 0.148 0.053 0.223 0.053 0.184 0 0.36-0.102 0.448-0.276l1.884-3.769c0.211-0.421 0.189-0.912-0.059-1.313-0.248-0.402-0.678-0.642-1.15-0.642H7.211l1.417-8h6.397l-2.004 8.703c-0.086 0.577 0.082 1.161 0.462 1.603s0.933 0.695 1.516 0.695h0.837l-1.623 5.355c-0.08 0.264 0.069 0.543 0.333 0.623 0.048 0.015 0.097 0.021 0.145 0.021 0.215 0 0.413-0.139 0.479-0.355l1.71-5.645h1.064l-0.299 1c-0.12 0.401-0.065 0.838 0.149 1.197l2.122 3.559c0.093 0.157 0.259 0.244 0.43 0.244 0.087 0 0.175-0.022 0.255-0.07 0.237-0.142 0.315-0.448 0.173-0.686l-2.122-3.56c-0.072-0.119-0.09-0.265-0.05-0.398l0.385-1.286h1.011c0.586 0 1.142-0.256 1.522-0.703 0.381-0.446 0.546-1.035 0.45-1.628l-1.638-8.669h2.666c0.551 0 1-0.449 1-1V2.5c0-0.276-0.224-0.5-0.498-0.5zM6.196 15H3.041c0.016-0.163 0.03-0.327 0.06-0.488L4.508 7h3.104zM20.987 15.841c0.046 0.29-0.036 0.584-0.227 0.808s-0.468 0.352-0.761 0.352h-5c-0.292 0-0.567-0.127-0.758-0.348-0.19-0.221-0.274-0.513-0.238-0.764L16.051 7h3.264z" />
</svg>