<svg id="swipe_left_Layer_1" viewBox="0 0 24 24" fill="currentColor" width="32" height="32" data-name="Layer 1" xmlns="http://www.w3.org/2000/svg" xmlns:xlink="http://www.w3.org/1999/xlink">
    <title>swipe-left</title>
    <path d="M17.475 10.534 11 9.098V2.607c0-1.273-0.896-2.38-2.084-2.573-0.729-0.12-1.476 0.085-2.034 0.561C6.321 1.072 6 1.766 6 2.5v12.602l-1.796-1.429c-0.487-0.454-1.101-0.692-1.79-0.671-0.666 0.022-1.284 0.303-1.739 0.79-0.941 1.007-0.89 2.593 0.113 3.532l4.84 4.607c1.401 1.334 3.238 2.068 5.172 2.068h5.7c2.481 0 4.5-2.019 4.5-4.5v-4.572c0-2.126-1.45-3.933-3.525-4.393zM20 19.5c0 1.93-1.57 3.5-3.5 3.5h-5.7c-1.676 0-3.268-0.637-4.482-1.793l-4.843-4.61c-0.604-0.565-0.635-1.517-0.069-2.121 0.291-0.312 0.685-0.471 1.085-0.471 0.374 0 0.755 0.14 1.061 0.425l2.638 2.1c0.15 0.118 0.357 0.142 0.528 0.059 0.173-0.083 0.283-0.258 0.283-0.45V2.5c0-0.44 0.192-0.857 0.529-1.144 0.341-0.29 0.776-0.407 1.227-0.336 0.709 0.116 1.244 0.798 1.244 1.587V9.5c0 0.234 0.163 0.438 0.392 0.488l6.866 1.522c1.614 0.358 2.742 1.764 2.742 3.417zM24 3.5C24 3.776 23.776 4 23.5 4h-8.307c0.032 0.044 0.054 0.093 0.095 0.132l2.14 2.003c0.201 0.188 0.212 0.505 0.023 0.707C17.352 6.947 17.22 7 17.086 7c-0.122 0-0.245-0.045-0.342-0.135l-2.14-2.003C14.251 4.532 14 4 14 3.5s0.265-1.006 0.593-1.318l2.148-2.044c0.199-0.189 0.516-0.184 0.707 0.018 0.19 0.2 0.183 0.517-0.018 0.707l-2.148 2.044c-0.029 0.027-0.042 0.064-0.066 0.094H23.5c0.276 0 0.5 0.224 0.5 0.499z" />
</svg>