<svg id="swipe_up_Layer_1" viewBox="0 0 24 24" fill="currentColor" width="32" height="32" data-name="Layer 1" xmlns="http://www.w3.org/2000/svg" xmlns:xlink="http://www.w3.org/1999/xlink">
    <title>swipe-up</title>
    <path d="M20.475 10.534 14 9.098V2.607c0-1.273-0.896-2.38-2.083-2.573-0.733-0.119-1.476 0.085-2.035 0.561C9.322 1.072 9.001 1.766 9.001 2.5v12.602l-1.796-1.429c-1.005-0.94-2.589-0.886-3.53 0.119-0.941 1.007-0.889 2.593 0.114 3.532l4.839 4.607c1.4 1.334 3.237 2.068 5.171 2.068H19.5c2.481 0 4.5-2.019 4.5-4.5v-4.572c0-2.126-1.45-3.933-3.525-4.393zM23 19.5c0 1.93-1.57 3.5-3.5 3.5h-5.701c-1.676 0-3.268-0.637-4.482-1.793l-4.842-4.61c-0.604-0.565-0.636-1.517-0.07-2.121 0.291-0.312 0.685-0.471 1.085-0.471 0.375 0 0.755 0.14 1.061 0.425l2.637 2.1c0.151 0.119 0.355 0.142 0.529 0.059C9.89 16.506 10 16.331 10 16.139V2.5c0-0.44 0.193-0.857 0.529-1.144 0.34-0.29 0.777-0.406 1.226-0.336C12.464 1.136 13 1.818 13 2.607V9.5c0 0.234 0.163 0.438 0.392 0.488l6.866 1.522C21.873 11.868 23 13.274 23 14.927zM3 9.5V1.195C2.956 1.227 2.906 1.248 2.869 1.288l-2.004 2.14C0.767 3.533 0.634 3.586 0.5 3.586c-0.123 0-0.245-0.045-0.342-0.135-0.202-0.189-0.212-0.506-0.023-0.707l2.004-2.14C2.468 0.252 3 0 3.5 0s1.006 0.265 1.318 0.593l2.044 2.148c0.19 0.2 0.183 0.517-0.018 0.707-0.2 0.19-0.518 0.184-0.707-0.018L4.093 1.282C4.066 1.253 4.029 1.24 3.999 1.216V9.5c0 0.276-0.224 0.5-0.5 0.5S2.999 9.776 3 9.5z" />
</svg>