<svg id="sword_Layer_1" viewBox="0 0 24 24" fill="currentColor" width="32" height="32" data-name="Layer 1" xmlns="http://www.w3.org/2000/svg" xmlns:xlink="http://www.w3.org/1999/xlink">
    <title>sword</title>
    <path d="M23.56 0.44c-0.364-0.365-0.882-0.515-1.432-0.392-2.355 0.773-4.527 2.108-6.28 3.861l-9.743 9.743c-2.266-1.303-4.413-1.629-4.535-1.647-0.269-0.036-0.526 0.15-0.565 0.424s0.15 0.526 0.424 0.566c0.035 5e-3 3.43 0.526 6.018 2.851L2.5 20.793 0.854 19.147c-0.195-0.195-0.512-0.195-0.707 0s-0.195 0.512 0 0.707l4 4C4.245 23.952 4.373 24 4.501 24s0.256-0.049 0.354-0.146c0.195-0.195 0.195-0.512 0-0.707l-1.646-1.646 4.947-4.947c2.325 2.588 2.846 5.983 2.851 6.018 0.036 0.249 0.25 0.429 0.494 0.429 0.024 0 0.048-2e-3 0.072-5e-3 0.273-0.04 0.463-0.293 0.424-0.565-0.017-0.122-0.343-2.269-1.647-4.535l9.741-9.742c1.753-1.753 3.088-3.925 3.874-6.329 0.11-0.502-0.04-1.02-0.405-1.385zM19.383 7.445 9.801 17.028c-0.367-0.531-0.788-1.056-1.28-1.549-0.493-0.493-1.018-0.914-1.549-1.28l9.583-9.582c1.643-1.643 3.678-2.894 5.837-3.604 0.176-0.036 0.339 0.013 0.461 0.135C22.976 1.271 23.025 1.439 23 1.56c-0.724 2.208-1.975 4.243-3.617 5.885z" />
</svg>