<svg id="synagogue_Layer_1" viewBox="0 0 24 24" fill="currentColor" width="32" height="32" data-name="Layer 1" xmlns="http://www.w3.org/2000/svg" xmlns:xlink="http://www.w3.org/1999/xlink">
    <title>synagogue</title>
    <path d="M9.317 10.582c0.156 0.273 0.448 0.443 0.762 0.443h0.861l0.314 0.517c0.161 0.265 0.441 0.422 0.75 0.422h5e-3c0.311-1e-3 0.591-0.163 0.749-0.429l0.303-0.51h0.869c0.316 0 0.608-0.171 0.764-0.446s0.15-0.615-0.013-0.886l-0.413-0.682 0.409-0.682c0.162-0.271 0.167-0.609 0.011-0.883-0.155-0.275-0.448-0.445-0.764-0.445h-0.865L12.75 6.486c-0.32-0.532-1.183-0.533-1.504 0L10.938 7h-0.86C9.764 7 9.472 7.17 9.316 7.443s-0.153 0.612 8e-3 0.883l0.408 0.686-0.408 0.687c-0.161 0.271-0.164 0.609-7e-3 0.883zM10.745 8.757l-0.45-0.756h0.927c0.176 0 0.338-0.092 0.429-0.243L12 7.177l0.349 0.581c0.09 0.151 0.253 0.243 0.429 0.243h0.931l-0.453 0.754c-0.095 0.159-0.095 0.358 0 0.516l0.456 0.753h-0.936c-0.176 0-0.34 0.093-0.43 0.245l-0.344 0.579-0.353-0.583c-0.091-0.149-0.253-0.241-0.428-0.241h-0.927l0.45-0.757c0.094-0.157 0.094-0.354 1e-3-0.51zM23 11.311 21.918 10.5c-0.865-0.648-2.043-0.67-2.93-0.051l-0.989 0.69V5.176c0-0.774-0.367-1.516-0.981-1.985l-3.5-2.677c-0.895-0.683-2.143-0.683-3.037 0l-3.5 2.676C6.367 3.66 6 4.402 6 5.176v5.963l-0.989-0.69C4.123 9.829 2.946 9.85 2.08 10.5l-1.081 0.811c-0.626 0.47-1 1.218-1 2V22c0 1.103 0.897 2 2 2h0.5c0.276 0 0.5-0.224 0.5-0.5v-3c0-0.276 0.224-0.5 0.5-0.5s0.5 0.224 0.5 0.5v3c0 0.276 0.224 0.5 0.5 0.5h15c0.276 0 0.5-0.224 0.5-0.5v-3c0-0.276 0.224-0.5 0.5-0.5s0.5 0.224 0.5 0.5v3c0 0.276 0.224 0.5 0.5 0.5h0.5c1.103 0 2-0.897 2-2v-8.689c0-0.782-0.374-1.53-0.999-2zM7.589 3.984l3.5-2.676c0.536-0.411 1.286-0.41 1.822 0l3.5 2.677C16.78 4.267 17 4.712 17 5.176V23h-2v-5c0-1.654-1.346-3-3-3s-3 1.346-3 3v5H7V5.176c0-0.464 0.22-0.909 0.589-1.192zM14 23h-4v-5c0-1.103 0.897-2 2-2s2 0.897 2 2zM3.5 19C2.673 19 2 19.673 2 20.5V23c-0.551 0-1-0.449-1-1v-8.689c0-0.47 0.224-0.918 0.6-1.2L2.681 11.3c0.52-0.391 1.225-0.401 1.758-0.03L6 12.359v10.642H5v-2.5c0-0.827-0.673-1.5-1.5-1.501zM23 22c0 0.551-0.449 1-1 1v-2.5c0-0.827-0.673-1.5-1.5-1.5S19 19.673 19 20.5V23h-1V12.358l1.561-1.089c0.532-0.372 1.239-0.359 1.758 0.03L22.4 12.11c0.376 0.282 0.6 0.73 0.6 1.2zM4.25 17.5h-1.5v-2.25c0-0.414 0.336-0.75 0.75-0.75s0.75 0.336 0.75 0.75zM21.25 17.5h-1.5v-2.25c0-0.414 0.336-0.75 0.75-0.75s0.75 0.336 0.75 0.75z" />
</svg>