<svg id="t_rex_Layer_1" viewBox="0 0 24 24" fill="currentColor" width="32" height="32" data-name="Layer 1" xmlns="http://www.w3.org/2000/svg" xmlns:xlink="http://www.w3.org/1999/xlink">
    <title>t-rex</title>
    <path d="M24 5.23C24 6.757 22.758 8 21.23 8H18.5C18.225 8 18 8.225 18 8.5v2.579c0.633 0.152 1.776 0.622 2.9 2.121 0.165 0.221 0.12 0.534-0.101 0.7-0.09 0.067-0.195 0.1-0.3 0.1-0.151 0-0.302-0.069-0.4-0.2-0.816-1.088-1.607-1.518-2.1-1.688v3.389c0 1.143-0.301 2.267-0.87 3.25-0.093 0.16-0.261 0.25-0.433 0.25-0.086 0-0.172-0.021-0.25-0.067-0.239-0.138-0.321-0.444-0.183-0.683 0.481-0.832 0.735-1.783 0.735-2.75v-7c0-0.827 0.673-1.5 1.5-1.5h2.73c0.976 0 1.77-0.794 1.77-1.77 0-2.077-1.54-3.864-3.583-4.157-2.335-0.339-4.693 0.513-6.301 2.271-2.98 3.261-5.741 7.547-7.385 11.466-0.387 0.923-1.397 1.369-2.573 1.129-0.619-0.124-1.251-0.455-1.79-0.964 0.96 3.136 3.717 5.564 7.06 5.911 0.4 0.042 1.437 0.08 3.083 0.114 0.884 0.021 1.726-0.181 2.488-0.561-0.015-0.578-0.291-5.439-5.499-5.439-0.276 0-0.5-0.224-0.5-0.5s0.224-0.5 0.5-0.5c6.426 0 6.5 6.435 6.5 6.5v2c0 0.275 0.225 0.5 0.5 0.5h2c0.276 0 0.5 0.224 0.5 0.5s-0.224 0.5-0.5 0.5h-2c-0.827 0-1.5-0.673-1.5-1.5v-0.956c-0.749 0.3-1.556 0.457-2.377 0.457-0.044 0-0.464-8e-3-0.623-0.012v0.511c0 0.275 0.224 0.5 0.5 0.5h1c0.276 0 0.5 0.224 0.5 0.5s-0.224 0.5-0.5 0.5h-1c-0.827 0-1.5-0.673-1.5-1.5v-0.537c-0.832-0.025-1.389-0.053-1.676-0.083C3.657 21.396 0 17.299 0 12.553V8.5C0 8.224 0.224 8 0.5 8S1 8.224 1 8.5v3.087c0 2.002 1.183 3.136 2.355 3.371 0.522 0.106 1.217 0.028 1.454-0.535 1.686-4.02 4.516-8.413 7.569-11.753 1.832-2.003 4.516-2.973 7.182-2.587C22.091 0.446 24 2.659 24 5.23z" />
</svg>