<svg id="t_square_Layer_1" viewBox="0 0 24 24" fill="currentColor" width="32" height="32" data-name="Layer 1" xmlns="http://www.w3.org/2000/svg" xmlns:xlink="http://www.w3.org/1999/xlink">
    <title>t-square</title>
    <path d="M22.797 4.52c-1.172-0.403-2.935-1.146-4.701-2.934-1.031-1.002-2.4-1.578-3.858-1.586H9.761C8.305 0 6.899 0.578 5.903 1.586 4.136 3.374 2.374 4.116 1.201 4.52 0.482 4.768-1e-3 5.448-1e-3 6.21-1e-3 7.197 0.802 8 1.79 8H7v12.5c0 1.93 1.57 3.5 3.5 3.5h3c1.93 0 3.5-1.57 3.5-3.5V8h5.209C23.196 8 24 7.197 24 6.21c0-0.763-0.483-1.442-1.203-1.69zM1.791 7C1.355 7 1 6.646 1 6.21 1 5.873 1.212 5.574 1.528 5.465 2.795 5.029 4.701 4.226 6.615 2.289 6.732 2.171 6.87 2.076 7 1.973V7zM16 11h-3.5c-0.276 0-0.5 0.224-0.5 0.5s0.224 0.5 0.5 0.5H16v3h-3.5c-0.276 0-0.5 0.224-0.5 0.5s0.224 0.5 0.5 0.5H16v3h-3.5c-0.276 0-0.5 0.224-0.5 0.5s0.224 0.5 0.5 0.5H16v0.5c0 1.379-1.122 2.5-2.5 2.5h-3C9.122 23 8 21.879 8 20.5V1.362C8.55 1.129 9.149 1 9.762 1h4.477c0.613 0 1.212 0.129 1.762 0.362V7h-3.5c-0.276 0-0.5 0.224-0.5 0.5s0.224 0.5 0.5 0.5h3.5zM22.209 7H17V1.973c0.13 0.104 0.268 0.198 0.385 0.316 1.914 1.937 3.82 2.74 5.086 3.176 0.316 0.109 0.528 0.408 0.528 0.745 0 0.436-0.354 0.79-0.79 0.79z" />
</svg>