<svg id="tab_folder_Layer_1" viewBox="0 0 24 24" fill="currentColor" width="32" height="32" data-name="Layer 1" xmlns="http://www.w3.org/2000/svg" xmlns:xlink="http://www.w3.org/1999/xlink">
    <title>tab-folder</title>
    <path d="M20.349 4.081 19.5 2.382C19.074 1.529 18.217 1 17.264 1H15.5C15.224 1 15 1.224 15 1.5S15.224 2 15.5 2h1.764c0.572 0 1.086 0.317 1.342 0.829L19.191 4h-4.882L13.5 2.382C13.074 1.529 12.217 1 11.264 1H9.5C9.224 1 9 1.224 9 1.5S9.224 2 9.5 2h1.764c0.572 0 1.085 0.317 1.341 0.829L13.19 4H8.308L7.223 1.829C6.967 1.317 6.453 1 5.881 1H4.499C2.019 1 0 3.019 0 5.5v13C0 20.981 2.019 23 4.5 23h15c2.481 0 4.5-2.019 4.5-4.5v-10c0-2.191-1.574-4.021-3.651-4.419zM4.5 2h1.382c0.191 0 0.362 0.105 0.447 0.276l1.224 2.447C7.638 4.892 7.811 4.999 8 4.999h11.5c1.76 0 3.221 1.306 3.464 3H1v-2.5C1 3.569 2.57 1.999 4.5 2zM19.5 22h-15C2.57 22 1 20.43 1 18.5V9h22v9.5c0 1.93-1.57 3.5-3.5 3.5z" />
</svg>