<svg id="table_tree_Layer_1" viewBox="0 0 24 24" fill="currentColor" width="32" height="32" data-name="Layer 1" xmlns="http://www.w3.org/2000/svg" xmlns:xlink="http://www.w3.org/1999/xlink">
    <title>table-tree</title>
    <path d="M19.5 2h-15C2.019 2 0 4.019 0 6.5v11C0 19.981 2.019 22 4.5 22h15c2.481 0 4.5-2.019 4.5-4.5v-11C24 4.019 21.981 2 19.5 2zM4.5 3h15C21.43 3 23 4.57 23 6.5V7H1V6.5C1 4.57 2.57 3 4.5 3zM19.5 21h-15C2.57 21 1 19.43 1 17.5V8h4v7.5C5 16.327 5.673 17 6.5 17h5c0.276 0 0.5-0.224 0.5-0.5S11.776 16 11.5 16h-5C6.225 16 6 15.775 6 15.5V13h3.5c0.276 0 0.5-0.224 0.5-0.5S9.776 12 9.5 12H6V8h17v9.5c0 1.93-1.57 3.5-3.5 3.5zM18 16.5c0 0.276-0.224 0.5-0.5 0.5h-3c-0.276 0-0.5-0.224-0.5-0.5s0.224-0.5 0.5-0.5h3c0.276 0 0.5 0.224 0.5 0.5zM15.5 13h-3c-0.276 0-0.5-0.224-0.5-0.5s0.224-0.5 0.5-0.5h3c0.276 0 0.5 0.224 0.5 0.5S15.776 13 15.5 13z" />
</svg>