<svg id="table_Layer_1" viewBox="0 0 24 24" fill="currentColor" width="32" height="32" data-name="Layer 1" xmlns="http://www.w3.org/2000/svg" xmlns:xlink="http://www.w3.org/1999/xlink">
    <title>table</title>
    <path d="M19.5 2h-15C2.019 2 0 4.019 0 6.5v11C0 19.981 2.019 22 4.5 22h15c2.481 0 4.5-2.019 4.5-4.5v-11C24 4.019 21.981 2 19.5 2zM1 7h10.5v6.5H1zM12.5 7H23v6.5H12.5zM4.5 3h15c1.76 0 3.221 1.306 3.464 3H1.036C1.279 4.306 2.74 3 4.5 3zM1 17.5v-3h10.5V21h-7C2.57 21 1 19.43 1 17.5zM19.5 21h-7v-6.5H23v3c0 1.93-1.57 3.5-3.5 3.5z" />
</svg>