<svg id="table_pivot_Layer_1" viewBox="0 0 24 24" fill="currentColor" width="32" height="32" data-name="Layer 1" xmlns="http://www.w3.org/2000/svg" xmlns:xlink="http://www.w3.org/1999/xlink">
    <title>table-pivot</title>
    <path d="M19.5 2h-15C2.019 2 0 4.019 0 6.5v11C0 19.981 2.019 22 4.5 22h6c0.276 0 0.5-0.224 0.5-0.5S10.776 21 10.5 21H6V8h17v9.5c0 1.93-1.57 3.5-3.5 3.5h-3c-0.276 0-0.5 0.224-0.5 0.5s0.224 0.5 0.5 0.5h3c2.481 0 4.5-2.019 4.5-4.5v-11C24 4.019 21.981 2 19.5 2zM4.5 3H5v4H1V6.5C1 4.57 2.57 3 4.5 3zM5 21H4.5C2.57 21 1 19.43 1 17.5V8h4zM6 7V3h13.5C21.43 3 23 4.57 23 6.5V7zM13.732 19.646c0.195 0.195 0.195 0.512 0 0.707-0.098 0.098-0.226 0.146-0.354 0.146s-0.256-0.049-0.354-0.146l-1.439-1.439c-0.378-0.378-0.586-0.88-0.586-1.414s0.208-1.036 0.586-1.414l1.439-1.439c0.195-0.195 0.512-0.195 0.707 0s0.195 0.512 0 0.707l-1.439 1.439c-0.063 0.063-0.116 0.133-0.159 0.207h4.366c0.827 0 1.5-0.673 1.5-1.5v-4.362c-0.075 0.042-0.145 0.093-0.207 0.155l-1.439 1.439c-0.195 0.195-0.512 0.195-0.707 0s-0.195-0.512 0-0.707l1.439-1.439C17.424 10.246 17.999 10 18.499 10s1.075 0.246 1.414 0.586l1.439 1.439c0.195 0.195 0.195 0.512 0 0.707-0.098 0.098-0.226 0.146-0.354 0.146s-0.256-0.049-0.354-0.146l-1.439-1.439c-0.062-0.062-0.132-0.114-0.207-0.155V15.5c0 1.379-1.122 2.5-2.5 2.5h-4.366c0.043 0.074 0.096 0.144 0.159 0.207z" />
</svg>