<svg id="tablet_rugged_Layer_1" viewBox="0 0 24 24" fill="currentColor" width="32" height="32" data-name="Layer 1" xmlns="http://www.w3.org/2000/svg" xmlns:xlink="http://www.w3.org/1999/xlink">
    <title>tablet-rugged</title>
    <path d="M21.414 5.586C21.789 5.211 22 4.702 22 4.172V2.5C22 1.119 20.881 0 19.5 0h-1.672c-0.53 0-1.039 0.211-1.414 0.586L16 1H8L7.586 0.586C7.211 0.211 6.702 0 6.172 0H4.5C3.119 0 2 1.119 2 2.5v1.672c0 0.53 0.211 1.039 0.586 1.414L3 6v2L2.586 8.414C2.211 8.789 2 9.298 2 9.828v4.343c0 0.53 0.211 1.039 0.586 1.414L3 15.999v2l-0.414 0.414C2.211 18.788 2 19.297 2 19.827v1.672c0 1.381 1.119 2.5 2.5 2.5h1.672c0.53 0 1.039-0.211 1.414-0.586L8 22.999h8l0.414 0.414c0.375 0.375 0.884 0.586 1.414 0.586H19.5c1.381 0 2.5-1.119 2.5-2.5v-1.672c0-0.53-0.211-1.039-0.586-1.414L21 17.999v-2l0.414-0.414C21.789 15.21 22 14.701 22 14.171V9.828c0-0.53-0.211-1.039-0.586-1.414L21 8V6zM20 22H4V2h16z" />
</svg>