<svg id="tablet_android_alt_Layer_1" viewBox="0 0 24 24" fill="currentColor" width="32" height="32" data-name="Layer 1" xmlns="http://www.w3.org/2000/svg" xmlns:xlink="http://www.w3.org/1999/xlink">
    <title>tablet-android-alt</title>
    <path d="M16.5 0h-9C5.019 0 3 2.019 3 4.5v15C3 21.981 5.019 24 7.5 24h9c2.481 0 4.5-2.019 4.5-4.5v-15C21 2.019 18.981 0 16.5 0zM7.5 1h9C18.43 1 20 2.57 20 4.5V17H4V4.5C4 2.57 5.57 1 7.5 1zM16.5 23h-9C5.57 23 4 21.43 4 19.5V18h16v1.5c0 1.93-1.57 3.5-3.5 3.5zM14 20.5c0 0.276-0.224 0.5-0.5 0.5h-3c-0.276 0-0.5-0.224-0.5-0.5s0.224-0.5 0.5-0.5h3c0.276 0 0.5 0.224 0.5 0.5z" />
</svg>