<svg id="table_picnic_Layer_1" viewBox="0 0 24 24" fill="currentColor" width="32" height="32" data-name="Layer 1" xmlns="http://www.w3.org/2000/svg" xmlns:xlink="http://www.w3.org/1999/xlink">
    <title>table-picnic</title>
    <path d="M21.179 14H23.5c0.276 0 0.5-0.224 0.5-0.5S23.776 13 23.5 13h-2.763l-3.971-9h3.733c0.276 0 0.5-0.224 0.5-0.5S20.775 3 20.499 3h-4.495c-7e-3 0-0.013 0-0.02 0H3.5C3.224 3 3 3.224 3 3.5S3.224 4 3.5 4h3.733l-3.97 9H0.5C0.224 13 0 13.224 0 13.5S0.224 14 0.5 14h2.321l-2.778 6.298c-0.112 0.253 3e-3 0.548 0.255 0.659C0.364 20.986 0.433 21 0.5 21c0.191 0 0.375-0.111 0.457-0.298L3.914 14h16.172l2.957 6.702C23.125 20.889 23.309 21 23.5 21c0.067 0 0.136-0.014 0.202-0.043 0.252-0.111 0.367-0.406 0.255-0.659zM4.355 13 8.326 4h7.349l3.971 9z" />
</svg>