<svg id="table_list_Layer_1" viewBox="0 0 24 24" fill="currentColor" width="32" height="32" data-name="Layer 1" xmlns="http://www.w3.org/2000/svg" xmlns:xlink="http://www.w3.org/1999/xlink">
    <title>table-list</title>
    <path d="M19.5 2h-15C2.019 2 0 4.019 0 6.5v10C0 18.981 2.019 21 4.5 21h15c2.481 0 4.5-2.019 4.5-4.5v-10C24 4.019 21.981 2 19.5 2zM1 9h5v5H1zM7 9h16v5H7zM23 6.5V8H7V3h12.5C21.43 3 23 4.57 23 6.5zM4.5 3H6v5H1V6.5C1 4.57 2.57 3 4.5 3zM1 16.5V15h5v5H4.5C2.57 20 1 18.43 1 16.5zM19.5 20H7v-5h16v1.5c0 1.93-1.57 3.5-3.5 3.5z" />
</svg>