<svg id="tachometer_alt_fastest_Layer_1" viewBox="0 0 24 24" fill="currentColor" width="32" height="32" data-name="Layer 1" xmlns="http://www.w3.org/2000/svg" xmlns:xlink="http://www.w3.org/1999/xlink">
    <title>tachometer-alt-fastest</title>
    <path d="M19.976 4.046c-2.577-2.302-5.898-3.356-9.362-2.968-5.408 0.61-9.83 4.983-10.514 10.4-0.481 3.806 0.799 7.516 3.512 10.178 0.883 0.867 2.05 1.345 3.286 1.345h10.211c1.204 0 2.317-0.427 3.135-1.203 2.423-2.3 3.757-5.406 3.757-8.747 0-3.436-1.467-6.718-4.025-9.005zM19.555 21.072C18.924 21.67 18.055 22 17.109 22H6.897c-0.973 0-1.891-0.376-2.585-1.058-2.489-2.442-3.663-5.846-3.22-9.339 0.628-4.964 4.679-8.973 9.634-9.531 0.433-0.049 0.862-0.073 1.289-0.073 2.701 0 5.254 0.97 7.294 2.793C21.655 6.889 23 9.898 23 13.05c0 3.063-1.224 5.913-3.445 8.022zM19.115 15.576l-5.14-2.256c0.017-0.104 0.026-0.211 0.026-0.32 0-1.103-0.897-2-2-2s-2 0.897-2 2 0.897 2 2 2c0.636 0 1.204-0.299 1.571-0.764l5.141 2.257c0.065 0.028 0.134 0.042 0.201 0.042 0.192 0 0.376-0.111 0.458-0.299 0.11-0.253-4e-3-0.548-0.257-0.66zM12.001 14c-0.552 0-1-0.448-1-1s0.448-1 1-1 1 0.448 1 1-0.448 1-1 1zM19.518 12.999c-0.269 0.024-0.514-0.19-0.532-0.466C18.746 8.869 15.677 6 12.002 6c-3.859 0-7 3.141-7 7 0 1.941 0.817 3.812 2.241 5.134 0.202 0.188 0.215 0.504 0.026 0.706C7.171 18.946 7.037 19 6.903 19c-0.122 0-0.244-0.044-0.34-0.134C4.935 17.357 4.001 15.219 4.001 13c0-4.411 3.589-8 8-8 4.201 0 7.707 3.28 7.982 7.467 0.018 0.276-0.19 0.514-0.465 0.532z" />
</svg>