<svg id="tachometer_alt_slowest_Layer_1" viewBox="0 0 24 24" fill="currentColor" width="32" height="32" data-name="Layer 1" xmlns="http://www.w3.org/2000/svg" xmlns:xlink="http://www.w3.org/1999/xlink">
    <title>tachometer-alt-slowest</title>
    <path d="M23.9 11.478c-0.685-5.417-5.107-9.79-10.515-10.399-3.456-0.386-6.783 0.665-9.361 2.968C1.467 6.332 0 9.614 0 13.05c0 3.341 1.334 6.447 3.758 8.747C4.575 22.573 5.688 23 6.892 23h10.21c1.237 0 2.404-0.478 3.287-1.345 2.713-2.662 3.993-6.371 3.511-10.177zM19.688 20.943c-0.695 0.682-1.613 1.058-2.586 1.058H6.892c-0.946 0-1.815-0.33-2.445-0.928-2.222-2.109-3.446-4.959-3.446-8.022 0-3.151 1.345-6.161 3.691-8.258C6.732 2.97 9.284 2 11.986 2c0.426 0 0.856 0.024 1.288 0.073 4.955 0.558 9.007 4.566 9.635 9.53 0.441 3.494-0.732 6.898-3.221 9.34zM12 11.001c-1.103 0-2 0.897-2 2 0 0.109 9e-3 0.216 0.026 0.32l-5.14 2.256c-0.252 0.111-0.368 0.406-0.257 0.659 0.083 0.188 0.266 0.299 0.458 0.299 0.067 0 0.135-0.014 0.201-0.042l5.141-2.257C10.796 14.701 11.363 15 12 15c1.103 0 2-0.897 2-2s-0.897-2-2-1.999zM12 14.001c-0.551 0-1-0.448-1-1s0.449-1 1-1 1 0.448 1 1-0.449 1-1 1zM20 13.001c0 2.22-0.934 4.357-2.562 5.866-0.096 0.09-0.218 0.134-0.34 0.134-0.134 0-0.268-0.054-0.367-0.16-0.188-0.202-0.176-0.519 0.027-0.706 1.424-1.32 2.241-3.191 2.241-5.134 0-3.859-3.14-7-7-7-3.675 0-6.743 2.869-6.984 6.533C4.996 12.809 4.757 13.028 4.483 13c-0.276-0.019-0.484-0.256-0.466-0.532 0.276-4.187 3.782-7.467 7.982-7.467 4.411 0 8 3.589 8.001 8z" />
</svg>