<svg id="tachometer_alt_average_Layer_1" viewBox="0 0 24 24" fill="currentColor" width="32" height="32" data-name="Layer 1" xmlns="http://www.w3.org/2000/svg" xmlns:xlink="http://www.w3.org/1999/xlink">
    <title>tachometer-alt-average</title>
    <path d="M19.976 4.046c-2.578-2.303-5.902-3.357-9.362-2.968-5.407 0.61-9.829 4.983-10.514 10.4-0.481 3.807 0.799 7.516 3.512 10.178 0.883 0.867 2.05 1.345 3.287 1.345h10.21c1.204 0 2.317-0.427 3.135-1.203 2.423-2.3 3.757-5.406 3.757-8.747 0-3.436-1.467-6.718-4.025-9.005zM19.555 21.072C18.924 21.67 18.055 22 17.109 22H6.898c-0.973 0-1.892-0.376-2.586-1.058-2.488-2.441-3.662-5.845-3.22-9.339 0.628-4.964 4.679-8.973 9.635-9.531 0.432-0.049 0.862-0.073 1.288-0.073 2.702 0 5.254 0.97 7.294 2.793C21.655 6.889 23 9.898 23 13.05c0 3.063-1.224 5.913-3.445 8.022zM12.5 11.063V5.5C12.5 5.224 12.276 5 12 5s-0.5 0.224-0.5 0.5v5.563C10.638 11.286 10 12.07 10 13c0 1.103 0.897 2 2 2s2-0.897 2-2c0-0.93-0.638-1.714-1.5-1.937zM12 14c-0.551 0-1-0.448-1-1s0.449-1 1-1 1 0.448 1 1-0.449 1-1 1zM8.941 6.132C9.07 6.376 8.977 6.678 8.733 6.808 6.43 8.026 5 10.399 5 13c0 1.942 0.817 3.813 2.241 5.134 0.203 0.188 0.214 0.504 0.027 0.706C7.169 18.946 7.036 19 6.901 19c-0.122 0-0.244-0.044-0.34-0.134C4.933 17.357 3.999 15.22 3.999 13c0-2.974 1.635-5.686 4.266-7.077 0.244-0.128 0.547-0.035 0.676 0.209zM20 13c0 2.219-0.934 4.357-2.562 5.866C17.342 18.956 17.22 19 17.098 19c-0.134 0-0.269-0.054-0.366-0.16-0.188-0.202-0.176-0.519 0.026-0.706 1.424-1.321 2.241-3.192 2.241-5.134 0-2.603-1.431-4.975-3.733-6.192-0.244-0.13-0.338-0.432-0.209-0.676 0.13-0.245 0.435-0.337 0.676-0.209C18.365 7.315 20 10.027 20 13z" />
</svg>