<svg id="tachometer_fastest_Layer_1" viewBox="0 0 24 24" fill="currentColor" width="32" height="32" data-name="Layer 1" xmlns="http://www.w3.org/2000/svg" xmlns:xlink="http://www.w3.org/1999/xlink">
    <title>tachometer-fastest</title>
    <path d="M21.011 20.915c-0.634 0.72-1.527 1.088-2.427 1.088-0.758 0-1.521-0.261-2.137-0.794l-0.593-0.513c-0.209-0.181-0.231-0.496-0.051-0.705 0.181-0.21 0.497-0.231 0.705-0.051l0.593 0.513c0.918 0.792 2.365 0.702 3.159-0.199 2.114-2.401 3.055-5.489 2.647-8.694-0.608-4.789-4.193-8.561-8.922-9.386-3.269-0.571-6.566 0.307-9.06 2.401C2.432 6.673 1 9.743 1 13c0 2.669 0.972 5.243 2.734 7.249 0.81 0.922 2.229 1.014 3.163 0.204l0.594-0.514c0.208-0.179 0.522-0.158 0.706 0.052 0.18 0.209 0.157 0.525-0.052 0.706L7.551 21.21c-1.348 1.165-3.396 1.031-4.568-0.301C1.059 18.721 0 15.912 0 13 0 9.447 1.562 6.098 4.283 3.81c2.72-2.286 6.317-3.245 9.875-2.621 5.163 0.899 9.078 5.017 9.742 10.244 0.443 3.494-0.583 6.861-2.889 9.482zM13.571 14.235C13.204 14.7 12.637 15 12 15c-1.103 0-2-0.897-2-2s0.897-2 2-2 2 0.897 2 2c0 0.109-9e-3 0.216-0.026 0.32l4.68 2.054c0.253 0.111 0.367 0.406 0.257 0.659-0.082 0.188-0.266 0.299-0.458 0.299-0.067 0-0.136-0.014-0.201-0.042zM13 13c0-0.552-0.448-1-1-1s-1 0.448-1 1 0.448 1 1 1 1-0.448 1-1z" />
</svg>