<svg id="tags_Layer_1" viewBox="0 0 24 24" fill="currentColor" width="32" height="32" data-name="Layer 1" xmlns="http://www.w3.org/2000/svg" xmlns:xlink="http://www.w3.org/1999/xlink">
    <title>tags</title>
    <path d="M21.68 9.108 13.204 0.723c-0.549-0.55-1.335-0.812-2.106-0.71L4.209 0.955c-0.274 0.038-0.466 0.29-0.428 0.563 0.037 0.273 0.293 0.461 0.562 0.428l6.889-0.942c0.46-0.066 0.934 0.095 1.267 0.427l8.476 8.385c1.356 1.356 1.363 3.569 0.01 4.94l-0.19 0.199c-0.209-0.677-0.58-1.314-1.114-1.848l-8.477-8.384c-0.549-0.55-1.337-0.812-2.106-0.709L2.209 4.956c-0.228 0.031-0.404 0.213-0.43 0.44l-0.765 6.916c-0.083 0.759 0.179 1.503 0.72 2.044l8.417 8.326C11.001 23.532 12.13 24 13.332 24h0.014c1.208-4e-3 2.341-0.479 3.189-1.339l3.167-3.208c0.886-0.898 1.317-2.081 1.292-3.257l0.708-0.743c1.732-1.754 1.724-4.6-0.022-6.345zM18.992 18.751l-3.167 3.208c-0.66 0.669-1.542 1.039-2.481 1.042h-0.011c-0.935 0-1.812-0.364-2.476-1.027l-8.418-8.328c-0.324-0.324-0.48-0.77-0.431-1.225L2.73 5.893 9.232 5.004c0.462-0.063 0.934 0.095 1.267 0.427l8.476 8.385c1.356 1.356 1.363 3.569 0.017 4.935zM8 10c0 0.552-0.448 1-1 1s-1-0.448-1-1 0.448-1 1-1 1 0.448 1 1z" />
</svg>