<svg id="talent_Layer_1" viewBox="0 0 24 24" fill="currentColor" width="32" height="32" data-name="Layer 1" xmlns="http://www.w3.org/2000/svg" xmlns:xlink="http://www.w3.org/1999/xlink">
    <title>talent</title>
    <path d="M12 12c-1.654 0-3 1.346-3 3s1.346 3 3 3 3-1.346 3-3-1.346-3-3-3zM12 17c-1.103 0-2-0.897-2-2s0.897-2 2-2 2 0.897 2 2-0.897 2-2 2zM21.854 13.854 16 19.708v3.793c0 0.276-0.224 0.5-0.5 0.5s-0.5-0.224-0.5-0.5v-3.5H9v3.5c0 0.276-0.224 0.5-0.5 0.5S8 23.777 8 23.501v-3.793l-5.854-5.854c-0.195-0.195-0.195-0.512 0-0.707s0.512-0.195 0.707 0l5.854 5.854h6.586l5.854-5.854c0.195-0.195 0.512-0.195 0.707 0s0.195 0.512 0 0.707zM8.698 6.781 8.015 8.971c-0.169 0.54 0.021 1.129 0.473 1.467 0.232 0.174 0.509 0.266 0.8 0.266 0.264 0 0.521-0.078 0.742-0.225l1.982-1.327 2.019 1.315c0.473 0.307 1.092 0.283 1.542-0.062 0.448-0.345 0.629-0.938 0.452-1.474l-0.708-2.157 1.711-1.394c0.427-0.359 0.585-0.953 0.395-1.478-0.191-0.523-0.695-0.875-1.253-0.875h-2.148L13.253 0.87c-0.193-0.52-0.695-0.869-1.25-0.869s-1.057 0.349-1.252 0.875L9.984 3.027H7.836c-0.557 0-1.06 0.351-1.251 0.873-0.192 0.523-0.036 1.116 0.397 1.483zM7.521 4.245c0.048-0.13 0.174-0.218 0.313-0.218h2.5c0.211 0 0.4-0.133 0.471-0.332l0.883-2.478c0.096-0.259 0.531-0.253 0.622-6e-3l0.885 2.483c0.071 0.199 0.26 0.332 0.471 0.332h2.5c0.14 0 0.266 0.088 0.313 0.218 0.048 0.131 8e-3 0.28-0.093 0.365l-1.971 1.606c-0.16 0.131-0.224 0.347-0.159 0.543l0.816 2.485c0.044 0.134 0 0.283-0.112 0.368-0.113 0.088-0.268 0.092-0.387 0.016l-2.295-1.495c-0.168-0.11-0.384-0.107-0.551 3e-3l-2.255 1.51c-0.118 0.079-0.275 0.073-0.387-0.01-0.112-0.084-0.16-0.232-0.117-0.368l0.784-2.514c0.061-0.195-3e-3-0.408-0.162-0.537L7.617 4.611c-0.106-0.09-0.145-0.238-0.096-0.366z" />
</svg>