<svg id="tally_4_Layer_1" viewBox="0 0 24 24" fill="currentColor" width="32" height="32" data-name="Layer 1" xmlns="http://www.w3.org/2000/svg" xmlns:xlink="http://www.w3.org/1999/xlink">
    <title>tally-4</title>
    <path d="M2 0.5v23C2 23.776 1.776 24 1.5 24S1 23.776 1 23.5v-23C1 0.224 1.224 0 1.5 0S2 0.224 2 0.5zM22.5 0C22.224 0 22 0.224 22 0.5v23c0 0.276 0.224 0.5 0.5 0.5s0.5-0.224 0.5-0.5v-23C23 0.224 22.776 0 22.5 0zM15.5 0C15.224 0 15 0.224 15 0.5v23c0 0.276 0.224 0.5 0.5 0.5s0.5-0.224 0.5-0.5v-23C16 0.224 15.776 0 15.5 0zM8.5 0C8.224 0 8 0.224 8 0.5v23C8 23.776 8.224 24 8.5 24S9 23.776 9 23.5v-23C9 0.224 8.776 0 8.5 0z" />
</svg>