<svg id="tape_Layer_1" viewBox="0 0 24 24" fill="currentColor" width="32" height="32" data-name="Layer 1" xmlns="http://www.w3.org/2000/svg" xmlns:xlink="http://www.w3.org/1999/xlink">
    <title>tape</title>
    <path d="M15 12c0-2.206-1.794-4-4-4s-4 1.794-4 4 1.794 4 4 4 4-1.794 4-4zM8 12c0-1.654 1.346-3 3-3s3 1.346 3 3-1.346 3-3 3-3-1.346-3-3zM23.5 22h-7.92C19.365 20.259 22 16.432 22 12 22 5.935 17.065 1 11 1S0 5.935 0 12 4.935 23 11 23h12.5c0.276 0 0.5-0.224 0.5-0.5S23.776 22 23.5 22zM1 12C1 6.486 5.486 2 11 2s10 4.486 10 10-4.486 10-10 10S1 17.514 1 12z" />
</svg>