<svg id="target_audience_Layer_1" viewBox="0 0 24 24" fill="currentColor" width="32" height="32" data-name="Layer 1" xmlns="http://www.w3.org/2000/svg" xmlns:xlink="http://www.w3.org/1999/xlink">
    <title>target-audience</title>
    <path d="M12 13c1.654 0 3-1.346 3-3s-1.346-3-3-3-3 1.346-3 3 1.346 3 3 3zM12 8c1.103 0 2 0.897 2 2s-0.897 2-2 2-2-0.897-2-2 0.897-2 2-2z" />
    <path d="M12 15c-1.967 0-3.663 1.474-3.944 3.429-0.04 0.273 0.15 0.526 0.423 0.566 0.274 0.039 0.527-0.15 0.566-0.424C9.257 17.105 10.527 16 12 16s2.743 1.105 2.955 2.571C14.991 18.82 15.205 19 15.449 19c0.023 0 0.048-2e-3 0.072-5e-3 0.273-0.04 0.463-0.293 0.423-0.566C15.662 16.474 13.966 15 12 15z" />
    <path d="M15.716 14.29C16.118 14.098 16.55 14 17 14c1.473 0 2.743 1.105 2.955 2.571C19.991 16.82 20.205 17 20.449 17c0.023 0 0.048-2e-3 0.072-5e-3 0.273-0.04 0.463-0.293 0.423-0.566C20.662 14.474 18.966 13 17 13c-0.6 0-1.177 0.131-1.716 0.388-0.249 0.119-0.354 0.418-0.235 0.667s0.417 0.353 0.667 0.235z" />
    <path d="M8.666 13.388C8.127 13.131 7.55 13 6.95 13c-1.967 0-3.663 1.474-3.944 3.429-0.04 0.273 0.15 0.526 0.423 0.566C3.453 16.998 3.477 17 3.501 17c0.245 0 0.458-0.18 0.494-0.429C4.207 15.105 5.477 14 6.95 14c0.45 0 0.882 0.098 1.284 0.29 0.25 0.118 0.548 0.014 0.667-0.235s0.014-0.548-0.235-0.667z" />
    <path d="M15.8 6.399C16.148 6.138 16.563 6 17 6c1.103 0 2 0.897 2 2 0 0.948-0.673 1.772-1.6 1.96-0.271 0.055-0.445 0.319-0.391 0.59 0.048 0.237 0.257 0.4 0.49 0.4 0.033 0 0.066-3e-3 0.1-0.01 1.391-0.282 2.4-1.519 2.4-2.94 0-1.654-1.346-3-3-3-0.655 0-1.277 0.208-1.8 0.601-0.221 0.165-0.265 0.479-0.1 0.699 0.167 0.222 0.481 0.269 0.701 0.099z" />
    <path d="M4 8c0 1.422 1.01 2.658 2.4 2.94 0.034 7e-3 0.067 0.01 0.1 0.01 0.233 0 0.441-0.163 0.49-0.4 0.055-0.271-0.12-0.535-0.391-0.59-0.927-0.188-1.6-1.012-1.6-1.96 0-1.103 0.897-2 2-2 0.437 0 0.852 0.139 1.2 0.399 0.221 0.168 0.535 0.122 0.7-0.1 0.166-0.221 0.121-0.534-0.1-0.699-0.523-0.393-1.146-0.601-1.8-0.601-1.654 0-3 1.346-2.999 3.001z" />
    <path d="M0.5 7C0.776 7 1 6.776 1 6.5v-2C1 2.57 2.57 1 4.5 1h2C6.776 1 7 0.776 7 0.5S6.776 0 6.5 0h-2C2.019 0 0 2.019 0 4.5v2C0 6.776 0.224 7 0.5 7z" />
    <path d="M6.5 23h-2C2.57 23 1 21.43 1 19.5v-2C1 17.224 0.776 17 0.5 17S0 17.224 0 17.5v2C0 21.981 2.019 24 4.5 24h2C6.776 24 7 23.776 7 23.5S6.776 23 6.5 23z" />
    <path d="M23.5 17c-0.276 0-0.5 0.224-0.5 0.5v2c0 1.93-1.57 3.5-3.5 3.5h-2c-0.276 0-0.5 0.224-0.5 0.5s0.224 0.5 0.5 0.5h2c2.481 0 4.5-2.019 4.5-4.5v-2c0-0.276-0.224-0.5-0.5-0.5z" />
    <path d="M19.5 0h-2C17.224 0 17 0.224 17 0.5S17.224 1 17.5 1h2C21.43 1 23 2.57 23 4.5v2C23 6.776 23.224 7 23.5 7S24 6.776 24 6.5v-2C24 2.019 21.981 0 19.5 0z" />
</svg>