<svg id="tasks_Layer_1" viewBox="0 0 24 24" fill="currentColor" width="32" height="32" data-name="Layer 1" xmlns="http://www.w3.org/2000/svg" xmlns:xlink="http://www.w3.org/1999/xlink">
    <title>tasks</title>
    <path d="M20 0H4C1.794 0 0 1.794 0 4v16c0 2.206 1.794 4 4 4h16c2.206 0 4-1.794 4-4V4c0-2.206-1.794-4-4-4zM17 6v5h-5V6zM23 6v5h-5V6zM11 11H6V6h5zM6 12h5v5H6zM6 18h5v5H6zM12 18h5v5h-5zM12 17v-5h5v5zM18 12h5v5h-5zM23 4v1H6V1h14c1.654 0 3 1.346 3 3zM4 1h1v4H1V4c0-1.654 1.346-3 3-3zM1 20V6h4v17H4c-1.654 0-3-1.346-3-3zM20 23h-2v-5h5v2c0 1.654-1.346 3-3 3zM6.608 8.186c0.189-0.202 0.507-0.21 0.707-0.021l0.853 0.804c0.038 0.038 0.084 0.037 0.112 0.01l1.381-1.332c0.199-0.192 0.516-0.186 0.707 0.013 0.192 0.199 0.186 0.516-0.013 0.707L8.98 9.692C8.775 9.897 8.503 10 8.231 10c-0.274 0-0.55-0.104-0.76-0.314L6.629 8.892c-0.201-0.189-0.21-0.506-0.021-0.706zM22.367 19.661c0.192 0.199 0.186 0.516-0.013 0.707l-1.375 1.325c-0.205 0.205-0.477 0.308-0.749 0.308-0.274 0-0.55-0.104-0.76-0.314l-0.842-0.794c-0.201-0.189-0.21-0.506-0.021-0.707s0.507-0.21 0.707-0.021l0.853 0.804c0.039 0.037 0.083 0.038 0.112 0.01l1.381-1.332c0.2-0.191 0.516-0.185 0.707 0.014zM16.354 14.368l-1.375 1.325c-0.205 0.205-0.477 0.308-0.749 0.308-0.274 0-0.55-0.104-0.76-0.314l-0.842-0.794c-0.201-0.189-0.21-0.506-0.021-0.707 0.188-0.201 0.506-0.211 0.707-0.021l0.853 0.804c0.039 0.038 0.083 0.037 0.112 0.01l1.381-1.332c0.199-0.191 0.516-0.186 0.707 0.013 0.192 0.199 0.186 0.516-0.013 0.708z" />
</svg>