<svg id="taxi_bus_Layer_1" viewBox="0 0 24 24" fill="currentColor" width="32" height="32" data-name="Layer 1" xmlns="http://www.w3.org/2000/svg" xmlns:xlink="http://www.w3.org/1999/xlink">
    <title>taxi-bus</title>
    <path d="M8.5 12H3V5.965C3 5.636 3.036 5.313 3.104 5H10v4.5c0 0.276 0.224 0.5 0.5 0.5S11 9.776 11 9.5V5h6.896c0.039 0.179 0.068 0.361 0.085 0.546 0.025 0.276 0.274 0.469 0.544 0.452 0.275-0.025 0.478-0.269 0.452-0.544-0.208-2.257-1.797-4.177-3.954-4.775C13.404 0.229 11.881 0 10.501 0S7.598 0.229 5.979 0.679c-2.342 0.65-3.978 2.824-3.978 5.286V8c-1.103 0-2 0.897-2 2v1c0 1.103 0.897 2 2 2v3.5c0 1.208 0.86 2.218 2 2.45V20c0 1.103 0.897 2 2 2 0.847 0 1.604-0.536 1.887-1.333 0.092-0.261-0.045-0.547-0.305-0.639-0.261-0.09-0.545 0.045-0.639 0.305C6.803 20.732 6.424 21 6.001 21c-0.552 0-1-0.448-1-1v-1h1.5c0.276 0 0.5-0.224 0.5-0.5S6.777 18 6.501 18h-2c-0.827 0-1.5-0.673-1.5-1.5V13h5.5c0.276 0 0.5-0.224 0.5-0.5S8.777 12 8.5 12zM6.245 1.642C7.777 1.216 9.209 1 10.5 1s2.723 0.216 4.255 0.642C15.993 1.986 17.002 2.866 17.55 4H3.449c0.545-1.131 1.548-2.011 2.796-2.358zM2 12c-0.552 0-1-0.448-1-1v-1c0-0.552 0.448-1 1-1zM23.33 15.538l-0.911-2.552c-0.455-1.275-1.454-2.251-2.678-2.706L19.55 9.515c-0.223-0.893-1.021-1.516-1.94-1.516h-2.219c-0.92 0-1.718 0.623-1.94 1.516L13.26 10.28c-1.224 0.454-2.223 1.43-2.678 2.706l-0.911 2.552c-0.444 1.244-0.67 2.545-0.67 3.962 0 1.208 0.86 2.218 2 2.45v0.55c0 0.827 0.673 1.5 1.5 1.5s1.5-0.673 1.5-1.5V22h5v0.5c0 0.827 0.673 1.5 1.5 1.5s1.5-0.673 1.5-1.5v-0.55c1.14-0.234 2-1.254 2-2.544 0-1.322-0.226-2.623-0.671-3.868zM14.421 9.758C14.532 9.312 14.931 9 15.391 9h2.219c0.46 0 0.858 0.312 0.97 0.758l0.067 0.267C18.493 10.009 18.338 10 18.182 10h-3.361c-0.157 0-0.312 9e-3-0.465 0.025zM11.523 13.322C12.019 11.933 13.344 11 14.82 11h3.361c1.476 0 2.801 0.934 3.297 2.322 0 0 0.94 2.636 0.955 2.678H10.568c0.014-0.042 0.955-2.678 0.955-2.678zM13.001 22.5c0 0.275-0.225 0.5-0.5 0.5s-0.5-0.225-0.5-0.5V22h1zM21.001 22.5c0 0.275-0.225 0.5-0.5 0.5s-0.5-0.225-0.5-0.5V22h1zM21.501 21H11.5c-0.827 0-1.5-0.673-1.5-1.595 0-0.814 0.094-1.619 0.279-2.405H13v1.5c0 0.276 0.224 0.5 0.5 0.5s0.5-0.224 0.5-0.5V17h5v1.5c0 0.276 0.224 0.5 0.5 0.5s0.5-0.224 0.5-0.5V17h2.72c0.186 0.794 0.28 1.621 0.28 2.5 0 0.827-0.673 1.5-1.499 1.5z" />
</svg>