<svg id="team_collaboration_Layer_1" viewBox="0 0 24 24" fill="currentColor" width="32" height="32" data-name="Layer 1" xmlns="http://www.w3.org/2000/svg" xmlns:xlink="http://www.w3.org/1999/xlink">
    <title>team-collaboration</title>
    <path d="M6.583 19.492c0.556 0.556 0.556 1.46 0 2.016l-2.346 2.346c-0.195 0.195-0.512 0.195-0.707 0s-0.195-0.512 0-0.707l2.146-2.146H3.5c-1.93 0-3.5-1.57-3.5-3.5v-3c0-0.276 0.224-0.5 0.5-0.5s0.5 0.224 0.5 0.5v3c0 1.378 1.122 2.5 2.5 2.5h2.176L3.53 17.855c-0.195-0.195-0.195-0.512 0-0.707s0.512-0.195 0.707 0zM23.5 14c-0.276 0-0.5 0.224-0.5 0.5v3c0 1.378-1.122 2.5-2.5 2.5h-2.176l2.146-2.146c0.195-0.195 0.195-0.512 0-0.707s-0.512-0.195-0.707 0l-2.346 2.346c-0.556 0.556-0.556 1.46 0 2.016l2.346 2.346c0.195 0.195 0.512 0.195 0.707 0s0.195-0.512 0-0.707l-2.146-2.146H20.5c1.93 0 3.5-1.57 3.5-3.5v-3c0-0.276-0.224-0.5-0.5-0.502zM14 14c0 1.103-0.897 2-2 2s-2-0.897-2-2 0.897-2 2-2 2 0.897 2 2zM13 14c0-0.551-0.449-1-1-1s-1 0.449-1 1 0.449 1 1 1 1-0.449 1-1zM17.172 17.041c-0.418 0.713-1.339 0.952-2.053 0.533l-0.223-0.131c-0.408 0.34-0.881 0.606-1.396 0.786V18.5c0 0.827-0.673 1.5-1.5 1.5s-1.5-0.673-1.5-1.5v-0.271c-0.515-0.18-0.988-0.446-1.396-0.786l-0.223 0.131c-0.714 0.419-1.634 0.179-2.053-0.533-0.203-0.345-0.26-0.749-0.159-1.137s0.347-0.713 0.692-0.917l0.234-0.137c-0.064-0.3-0.094-0.576-0.094-0.85s0.03-0.551 0.094-0.85l-0.234-0.137c-0.345-0.203-0.591-0.528-0.692-0.917-0.101-0.388-0.044-0.792 0.16-1.137 0.203-0.345 0.528-0.591 0.916-0.692 0.388-0.1 0.792-0.044 1.137 0.159l0.223 0.131c0.408-0.34 0.881-0.606 1.396-0.786V9.5c0-0.827 0.673-1.5 1.5-1.5s1.5 0.673 1.5 1.5v0.271c0.515 0.18 0.988 0.446 1.396 0.786l0.223-0.131c0.345-0.203 0.75-0.258 1.137-0.159 0.388 0.101 0.713 0.347 0.917 0.692 0.203 0.345 0.26 0.749 0.159 1.136-0.101 0.388-0.347 0.713-0.692 0.917l-0.234 0.137c0.064 0.3 0.094 0.576 0.094 0.85s-0.03 0.551-0.094 0.85l0.234 0.137c0.345 0.203 0.591 0.528 0.692 0.917 0.101 0.388 0.044 0.792-0.161 1.138zM15.577 12.477l0.556-0.327c0.235-0.131 0.318-0.455 0.178-0.684-0.132-0.235-0.456-0.32-0.685-0.178l-0.541 0.318c-0.196 0.116-0.446 0.083-0.607-0.078-0.43-0.43-0.984-0.743-1.603-0.903-0.221-0.057-0.375-0.256-0.375-0.484V9.499c0-0.276-0.224-0.5-0.5-0.5s-0.5 0.224-0.5 0.5v0.642c0 0.228-0.154 0.427-0.375 0.484-0.619 0.16-1.173 0.473-1.603 0.903-0.162 0.161-0.411 0.194-0.607 0.078l-0.541-0.318c-0.23-0.142-0.552-0.057-0.684 0.177-0.141 0.23-0.058 0.553 0.177 0.685l0.556 0.327c0.196 0.115 0.29 0.349 0.228 0.568C8.548 13.406 8.5 13.709 8.5 14s0.048 0.594 0.151 0.955c0.062 0.219-0.031 0.453-0.228 0.568L7.867 15.85c-0.235 0.131-0.318 0.455-0.178 0.684 0.131 0.235 0.456 0.32 0.685 0.178l0.541-0.318c0.195-0.115 0.446-0.084 0.607 0.078 0.429 0.43 0.983 0.742 1.603 0.903 0.221 0.057 0.375 0.256 0.375 0.484v0.642c0 0.276 0.224 0.5 0.5 0.5s0.5-0.224 0.5-0.5v-0.642c0-0.228 0.154-0.427 0.375-0.484 0.619-0.161 1.173-0.473 1.603-0.903 0.161-0.162 0.411-0.194 0.607-0.078l0.541 0.318c0.228 0.143 0.553 0.056 0.684-0.178 0.141-0.229 0.058-0.553-0.177-0.684l-0.556-0.327c-0.196-0.115-0.29-0.349-0.228-0.568C15.452 14.594 15.5 14.291 15.5 14s-0.048-0.594-0.151-0.955c-0.062-0.219 0.031-0.453 0.228-0.568zM2 3c0-1.654 1.346-3 3-3s3 1.346 3 3-1.346 3-3 3-3-1.346-3-3zM3 3c0 1.103 0.897 2 2 2s2-0.897 2-2-0.897-2-2-2-2 0.897-2 2zM16 3c0-1.654 1.346-3 3-3s3 1.346 3 3-1.346 3-3 3-3-1.346-3-3zM17 3c0 1.103 0.897 2 2 2s2-0.897 2-2-0.897-2-2-2-2 0.897-2 2zM17.261 8.414c-0.253 0.11-0.37 0.405-0.259 0.658s0.403 0.371 0.658 0.259C18.165 9.112 18.702 9 19.256 9c1.693 0 3.209 1.072 3.773 2.667 0.091 0.263 0.384 0.396 0.638 0.305 0.26-0.092 0.397-0.377 0.305-0.638-0.705-1.994-2.6-3.333-4.716-3.333-0.692 0-1.363 0.139-1.995 0.413zM0.334 11.971c0.254 0.092 0.546-0.042 0.638-0.305 0.564-1.595 2.08-2.667 3.773-2.667 0.555 0 1.091 0.111 1.595 0.331 0.254 0.11 0.547-7e-3 0.658-0.259 0.11-0.253-6e-3-0.548-0.259-0.658-0.631-0.275-1.302-0.414-1.995-0.414C2.628 8 0.733 9.339 0.029 11.333c-0.092 0.26 0.044 0.546 0.305 0.638z" />
</svg>