<svg id="team_Layer_1" viewBox="0 0 24 24" fill="currentColor" width="32" height="32" data-name="Layer 1" xmlns="http://www.w3.org/2000/svg" xmlns:xlink="http://www.w3.org/1999/xlink">
    <title>team</title>
    <path d="M12 5c1.378 0 2.5-1.121 2.5-2.5S13.378 0 12 0 9.5 1.121 9.5 2.5 10.622 5 12 5zM12 1c0.827 0 1.5 0.673 1.5 1.5S12.827 4 12 4s-1.5-0.673-1.5-1.5S11.173 1 12 1zM23 8.5C23 7.121 21.878 6 20.5 6h-3c-0.821 0-1.544 0.403-2 1.015C15.044 6.402 14.321 6 13.5 6h-3c-0.821 0-1.544 0.403-2 1.015C8.044 6.402 7.321 6 6.5 6h-3C2.122 6 1 7.121 1 8.5V17h2v7h1v-7h2v7h1v-7h3v7h1v-7h2v7h1v-7h3v7h1v-7h2v7h1v-7h2zM8 16H2V8.5C2 7.673 2.673 7 3.5 7h3C7.327 7 8 7.673 8 8.5zM15 16H9V8.5C9 7.673 9.673 7 10.5 7h3C14.327 7 15 7.673 15 8.5zM22 16h-6V8.5C16 7.673 16.673 7 17.5 7h3C21.327 7 22 7.673 22 8.5zM19 5c1.378 0 2.5-1.121 2.5-2.5S20.378 0 19 0s-2.5 1.121-2.5 2.5S17.622 5 19 5zM19 1c0.827 0 1.5 0.673 1.5 1.5S19.827 4 19 4s-1.5-0.673-1.5-1.5S18.173 1 19 1zM5 5c1.378 0 2.5-1.121 2.5-2.5S6.378 0 5 0 2.5 1.121 2.5 2.5 3.622 5 5 5zM5 1c0.827 0 1.5 0.673 1.5 1.5S5.827 4 5 4 3.5 3.327 3.5 2.5 4.173 1 5 1z" />
</svg>