<svg id="team_check_alt_Layer_1" viewBox="0 0 24 24" fill="currentColor" width="32" height="32" data-name="Layer 1" xmlns="http://www.w3.org/2000/svg" xmlns:xlink="http://www.w3.org/1999/xlink">
    <title>team-check-alt</title>
    <path d="M5 6c1.654 0 3-1.346 3-3S6.654 0 5 0 2 1.346 2 3 3.346 6 5 6zM5 1c1.103 0 2 0.897 2 2S6.103 5 5 5 3 4.103 3 3 3.897 1 5 1zM13 6c1.654 0 3-1.346 3-3s-1.346-3-3-3-3 1.346-3 3 1.346 3 3 3zM13 1c1.103 0 2 0.897 2 2s-0.897 2-2 2-2-0.897-2-2 0.897-2 2-2zM10.899 11.301c-0.166 0.221-0.479 0.267-0.7 0.099C9.852 11.138 9.437 11.001 9 11.001c-1.103 0-2 0.897-2 2 0 0.948 0.673 1.772 1.6 1.96 0.271 0.055 0.445 0.319 0.391 0.59-0.048 0.237-0.257 0.4-0.49 0.4-0.033 0-0.066-3e-3-0.1-0.01-1.391-0.282-2.4-1.519-2.4-2.94 0-1.654 1.346-3 3-3 0.656 0 1.278 0.208 1.801 0.601 0.221 0.166 0.265 0.479 0.097 0.699zM17.5 11c-3.584 0-6.5 2.916-6.5 6.5s2.916 6.5 6.5 6.5 6.5-2.916 6.5-6.5-2.916-6.5-6.5-6.5zM17.5 23c-3.033 0-5.5-2.468-5.5-5.5s2.467-5.5 5.5-5.5 5.5 2.468 5.5 5.5-2.467 5.5-5.5 5.5zM20.85 16.143c0.192 0.198 0.187 0.515-0.012 0.707l-2.703 2.614c-0.36 0.355-0.835 0.533-1.311 0.533s-0.949-0.177-1.312-0.531l-1.364-1.347c-0.197-0.193-0.199-0.51-5e-3-0.707 0.194-0.195 0.511-0.198 0.707-4e-3l1.363 1.345c0.337 0.329 0.886 0.327 1.223-4e-3l2.706-2.618c0.199-0.191 0.516-0.187 0.708 0.012zM5 9c-2.206 0-4 1.794-4 4v0.5C1 13.776 0.776 14 0.5 14S0 13.776 0 13.5V13c0-2.757 2.243-5 5-5 0.572 0 1.133 0.096 1.667 0.284 0.26 0.093 0.396 0.378 0.304 0.639-0.092 0.26-0.378 0.396-0.638 0.305C5.907 9.077 5.458 9 5 9zM15.916 9.536C15.819 9.68 15.661 9.758 15.5 9.758c-0.096 0-0.192-0.027-0.278-0.085-1.037-0.693-2.39-0.858-3.555-0.445-0.26 0.092-0.546-0.044-0.638-0.305s0.044-0.546 0.304-0.639c1.46-0.516 3.148-0.311 4.445 0.559 0.229 0.153 0.291 0.464 0.138 0.693zM8.998 18.473c0.03 0.274-0.167 0.521-0.442 0.552-2.027 0.225-3.555 1.934-3.555 3.976v0.5c0 0.276-0.224 0.5-0.5 0.5s-0.5-0.224-0.5-0.5v-0.5c0-2.553 1.911-4.689 4.445-4.97 0.286-0.026 0.522 0.169 0.552 0.442z" />
</svg>