<svg id="teddy_bear_Layer_1" viewBox="0 0 24 24" fill="currentColor" width="32" height="32" data-name="Layer 1" xmlns="http://www.w3.org/2000/svg" xmlns:xlink="http://www.w3.org/1999/xlink">
    <title>teddy-bear</title>
    <path d="M20.942 15.21l2.434-3.219c0.5-0.666 0.71-1.487 0.593-2.312-0.118-0.825-0.55-1.555-1.217-2.055-1.136-0.851-2.663-0.795-3.761 0.046C18.993 7.613 19 7.558 19 7.501c0-0.539-0.081-1.059-0.215-1.56 0.116-0.083 0.206-0.15 0.225-0.169 1.318-1.318 1.318-3.463 0-4.781s-3.463-1.318-4.782 0c-0.096 0.096-0.155 0.19-0.225 0.284C13.368 1.098 12.697 1.001 12 1.001s-1.368 0.098-2.003 0.274c-0.071-0.094-0.13-0.188-0.226-0.284-1.318-1.318-3.463-1.318-4.781 0s-1.318 3.463 0 4.781c0.019 0.019 0.109 0.086 0.225 0.169C5.081 6.442 5 6.962 5 7.501c0 0.052 7e-3 0.103 8e-3 0.154-1.081-0.826-2.618-0.886-3.76-0.031-0.667 0.5-1.099 1.229-1.217 2.055C-0.087 10.504 0.124 11.325 0.63 12L3 15.02c-0.75 0.021-1.476 0.296-2.035 0.81-1.162 1.067-1.288 2.947-0.3 4.264l0.845 1.229c1.275 1.699 3.304 2.714 5.428 2.714h10.145c2.125 0 4.154-1.015 5.42-2.702l0.82-1.033c1-1.332 0.873-3.211-0.288-4.277-0.574-0.528-1.327-0.808-2.093-0.815zM18.303 1.698c0.883 0.883 0.916 2.287 0.119 3.222-0.674-1.439-1.894-2.604-3.415-3.28 0.933-0.862 2.389-0.847 3.296 0.058zM12 2.001c3.309 0 6 2.468 6 5.5s-2.691 5.5-6 5.5-6-2.468-6-5.5 2.691-5.5 6-5.5zM5.697 1.698c0.908-0.906 2.365-0.92 3.296-0.058-1.52 0.676-2.741 1.841-3.414 3.28-0.797-0.935-0.764-2.338 0.118-3.222zM6.938 23.036c-1.811 0-3.542-0.865-4.616-2.297L1.477 19.51c-0.695-0.928-0.623-2.221 0.165-2.944 0.401-0.368 0.904-0.565 1.435-0.565 0.795 0 1.342 0.37 1.705 0.853l1.747 2.269c0.014 0.019 1.275 1.725 1.451 3.914zM8.982 23.036c-0.173-2.513-1.59-4.429-1.658-4.519l-1.747-2.269c-0.215-0.287-0.488-0.511-0.782-0.703l-3.372-4.154c-0.34-0.453-0.482-1.011-0.402-1.571s0.374-1.057 0.826-1.396c0.935-0.701 2.266-0.51 2.936 0.378l1.104 1.867 5e-3-3e-3C7.091 12.653 9.378 14 12 14s4.909-1.348 6.108-3.335l4e-3 3e-3 1.073-1.821c0.701-0.934 2.031-1.124 2.967-0.423 0.453 0.339 0.746 0.835 0.826 1.396s-0.062 1.118-0.401 1.569c0 0-4.011 4.863-4.12 5.009l-1.734 1.846c-0.067 0.053-1.59 1.283-1.715 4.792zM22.532 19.689l-0.82 1.033c-1.087 1.448-2.817 2.313-4.629 2.313h-1.074c0.116-2.971 1.325-3.999 1.386-4.055l1.826-1.94c0.359-0.478 0.906-0.783 1.501-0.838 0.604-0.063 1.185 0.142 1.636 0.557 0.787 0.724 0.86 2.015 0.174 2.93zM10.5 8.001c0-0.552 0.672-1 1.5-1s1.5 0.448 1.5 1-0.672 1-1.5 1-1.5-0.448-1.5-1z" />
</svg>