<svg id="telescope_Layer_1" viewBox="0 0 24 24" fill="currentColor" width="32" height="32" data-name="Layer 1" xmlns="http://www.w3.org/2000/svg" xmlns:xlink="http://www.w3.org/1999/xlink">
    <title>telescope</title>
    <path d="M23.953 9.174 19.771 0.287c-0.119-0.249-0.417-0.357-0.666-0.239-0.25 0.117-0.357 0.415-0.24 0.665l0.485 1.031L4.177 8.577c-1.699 0.734-2.551 2.64-2.018 4.374l-1.87 0.851c-0.251 0.114-0.362 0.411-0.248 0.662 0.084 0.185 0.265 0.293 0.456 0.293 0.069 0 0.14-0.015 0.207-0.045l1.88-0.855c0.401 0.62 0.981 1.101 1.681 1.382 0.435 0.175 0.889 0.262 1.344 0.262 0.487 0 0.976-0.101 1.44-0.301l5.596-2.521-5.587 10.587c-0.129 0.244-0.035 0.547 0.209 0.676 0.245 0.129 0.546 0.035 0.676-0.209l5.621-10.652 5.492 10.648C19.145 23.901 19.32 24 19.501 24c0.077 0 0.155-0.018 0.229-0.056 0.246-0.127 0.342-0.428 0.215-0.674l-5.809-11.262 8.289-3.733 0.623 1.325c0.085 0.181 0.265 0.287 0.453 0.287 0.071 0 0.144-0.016 0.212-0.048 0.25-0.117 0.357-0.415 0.24-0.665zM6.645 14.285c-0.644 0.278-1.357 0.287-2.007 0.026-0.651-0.262-1.159-0.761-1.432-1.407-0.555-1.314 0.06-2.844 1.375-3.412l15.195-6.843 2.221 4.72z" />
</svg>