<svg id="temperature_list_Layer_1" viewBox="0 0 24 24" fill="currentColor" width="32" height="32" data-name="Layer 1" xmlns="http://www.w3.org/2000/svg" xmlns:xlink="http://www.w3.org/1999/xlink">
    <title>temperature-list</title>
    <path d="M8 15.051V8.5C8 8.224 7.776 8 7.5 8S7 8.224 7 8.5v6.551c-1.14 0.232-2 1.242-2 2.449 0 1.379 1.121 2.5 2.5 2.5s2.5-1.121 2.5-2.5c0-1.208-0.86-2.217-2-2.449zM7.5 19C6.673 19 6 18.327 6 17.5S6.673 16 7.5 16 9 16.673 9 17.5 8.327 19 7.5 19zM12 4.5C12 2.019 9.981 0 7.5 0S3 2.019 3 4.5v8.319c-1.273 1.225-2 2.918-2 4.681 0 3.584 2.916 6.5 6.5 6.5s6.5-2.916 6.5-6.5c0-1.763-0.727-3.456-2-4.681zM13 17.5c0 3.032-2.468 5.5-5.5 5.5S2 20.532 2 17.5c0-1.554 0.668-3.045 1.834-4.091C3.939 13.314 4 13.179 4 13.037V4.5C4 2.57 5.57 1 7.5 1S11 2.57 11 4.5v8.537c0 0.142 0.061 0.277 0.166 0.372C12.332 14.455 13 15.946 13 17.5zM14 0.5C14 0.224 14.224 0 14.5 0h9C23.776 0 24 0.224 24 0.5S23.776 1 23.5 1h-9C14.224 1 14 0.776 14 0.5zM24 4.5C24 4.776 23.776 5 23.5 5h-9C14.224 5 14 4.776 14 4.5S14.224 4 14.5 4h9C23.776 4 24 4.224 24 4.5zM24 8.5C24 8.776 23.776 9 23.5 9h-9C14.224 9 14 8.776 14 8.5S14.224 8 14.5 8h9C23.776 8 24 8.224 24 8.5zM24 12.5c0 0.276-0.224 0.5-0.5 0.5h-7c-0.276 0-0.5-0.224-0.5-0.5s0.224-0.5 0.5-0.5h7c0.276 0 0.5 0.224 0.5 0.5z" />
</svg>