<svg id="temperature_down_Layer_1" viewBox="0 0 24 24" fill="currentColor" width="32" height="32" data-name="Layer 1" xmlns="http://www.w3.org/2000/svg" xmlns:xlink="http://www.w3.org/1999/xlink">
    <title>temperature-down</title>
    <path d="M23.86 11.346l-2.956 3.082c-0.376 0.376-0.913 0.581-1.405 0.585-0.468-0.022-0.993-0.229-1.349-0.585l-3.015-3.068c-0.193-0.197-0.191-0.514 6e-3-0.707 0.198-0.193 0.515-0.19 0.707 6e-3l3.012 3.065c0.044 0.043 0.091 0.082 0.14 0.115V0.5C19 0.224 19.224 0 19.5 0S20 0.224 20 0.5v13.375c0.068-0.04 0.132-0.088 0.19-0.146l2.949-3.074c0.189-0.199 0.507-0.206 0.706-0.015s0.206 0.508 0.015 0.706zM9 17.5C9 18.878 7.879 20 6.5 20S4 18.878 4 17.5c0-1.208 0.86-2.217 2-2.45V12.5C6 12.224 6.224 12 6.5 12S7 12.224 7 12.5v2.55c1.14 0.232 2 1.242 2 2.45zM8 17.5C8 16.673 7.327 16 6.5 16S5 16.673 5 17.5 5.673 19 6.5 19 8 18.327 8 17.5zM19.5 15.013c-0.015 1e-3 0.021 2e-3 0 0zM13 17.5c0 3.584-2.916 6.5-6.5 6.5S0 21.084 0 17.5c0-1.763 0.727-3.456 2-4.681V4.5C2 2.019 4.019 0 6.5 0S11 2.019 11 4.5v8.319c1.273 1.225 2 2.918 2 4.681zM12 17.5c0-1.554-0.668-3.045-1.834-4.091C10.061 13.314 10 13.179 10 13.037V4.5C10 2.57 8.43 1 6.5 1S3 2.57 3 4.5v8.537c0 0.142-0.061 0.277-0.166 0.372C1.668 14.455 1 15.946 1 17.5 1 20.533 3.468 23 6.5 23s5.5-2.467 5.5-5.5z" />
</svg>