<svg id="temperature_low_Layer_1" viewBox="0 0 24 24" fill="currentColor" width="32" height="32" data-name="Layer 1" xmlns="http://www.w3.org/2000/svg" xmlns:xlink="http://www.w3.org/1999/xlink">
    <title>temperature-low</title>
    <path d="M11.488 23.998c-0.456 0-0.917-0.047-1.376-0.142-2.466-0.512-4.464-2.517-4.972-4.988-0.461-2.245 0.232-4.489 1.859-6.049V4.5C7 2.019 9.019 0 11.5 0S16 2.019 16 4.5v8.319c1.273 1.225 2 2.918 2 4.681 0 1.964-0.875 3.803-2.4 5.044-1.168 0.951-2.616 1.454-4.112 1.454zM11.5 1C9.57 1 8 2.57 8 4.5v8.537c0 0.142-0.061 0.277-0.166 0.372-1.478 1.325-2.118 3.29-1.714 5.258 0.429 2.086 2.114 3.778 4.195 4.21 1.664 0.349 3.362-0.057 4.653-1.108s2.031-2.606 2.031-4.269c0-1.554-0.668-3.045-1.834-4.091-0.105-0.095-0.166-0.23-0.166-0.372V4.5c0-1.93-1.57-3.5-3.499-3.5zM11.5 20C10.121 20 9 18.878 9 17.5c0-1.208 0.86-2.217 2-2.45V11.5c0-0.276 0.224-0.5 0.5-0.5s0.5 0.224 0.5 0.5v3.55c1.14 0.232 2 1.242 2 2.45 0 1.378-1.121 2.5-2.5 2.5zM11.5 16c-0.827 0-1.5 0.673-1.5 1.5s0.673 1.5 1.5 1.5 1.5-0.673 1.5-1.5-0.673-1.5-1.5-1.5zM21.5 5C20.121 5 19 3.878 19 2.5S20.121 0 21.5 0 24 1.122 24 2.5 22.879 5 21.5 5zM21.5 1C20.673 1 20 1.673 20 2.5S20.673 4 21.5 4 23 3.327 23 2.5 22.327 1 21.5 1z" />
</svg>