<svg id="temperature_frigid_Layer_1" viewBox="0 0 24 24" fill="currentColor" width="32" height="32" data-name="Layer 1" xmlns="http://www.w3.org/2000/svg" xmlns:xlink="http://www.w3.org/1999/xlink">
    <title>temperature-frigid</title>
    <path d="M22 12.819V4.5C22 2.019 19.981 0 17.5 0S13 2.019 13 4.5v8.319c-1.273 1.225-2 2.918-2 4.681 0 3.584 2.916 6.5 6.5 6.5s6.5-2.916 6.5-6.5c0-1.763-0.727-3.456-2-4.681zM17.5 23c-3.032 0-5.5-2.468-5.5-5.5 0-1.554 0.668-3.045 1.834-4.091 0.105-0.095 0.166-0.23 0.166-0.372V4.5C14 2.57 15.57 1 17.5 1S21 2.57 21 4.5v8.537c0 0.142 0.061 0.277 0.166 0.372C22.332 14.455 23 15.946 23 17.5c0 3.032-2.468 5.5-5.5 5.5zM10 7.5c0-1.208-0.86-2.217-2-2.45V2.443c0.237-0.077 0.46-0.21 0.648-0.398l1.191-1.192c0.195-0.195 0.195-0.512 0-0.707s-0.512-0.195-0.707 0L7.941 1.337c-0.25 0.251-0.66 0.25-0.91 0L5.84 0.146c-0.195-0.195-0.512-0.195-0.707 0s-0.195 0.512 0 0.707l1.191 1.192C6.519 2.24 6.753 2.376 7 2.451v2.598C6.476 5.156 6.01 5.427 5.66 5.807L3.457 4.469c0.056-0.244 0.056-0.504-0.01-0.763L3.034 2.072C2.967 1.805 2.697 1.641 2.428 1.71 2.159 1.778 1.997 2.05 2.066 2.317l0.413 1.634c0.086 0.344-0.123 0.694-0.467 0.781L0.378 5.145C0.109 5.213-0.053 5.484 0.016 5.752 0.082 6.019 0.351 6.181 0.622 6.114l1.634-0.413c0.268-0.067 0.503-0.197 0.694-0.37l2.193 1.332C5.05 6.924 4.999 7.205 4.999 7.498c0 0.283 0.047 0.555 0.135 0.809L2.929 9.646C2.741 9.483 2.513 9.36 2.255 9.295L0.621 8.882C0.35 8.813 0.081 8.977 0.015 9.244c-0.068 0.268 0.094 0.54 0.362 0.607l1.634 0.413c0.344 0.087 0.553 0.437 0.467 0.78l-0.413 1.634c-0.068 0.268 0.094 0.54 0.362 0.607 0.27 0.07 0.539-0.095 0.606-0.362l0.413-1.635c0.068-0.268 0.065-0.538 3e-3-0.79L5.64 9.167c0.352 0.391 0.824 0.67 1.358 0.779v2.598c-0.247 0.076-0.48 0.212-0.676 0.407l-1.191 1.191c-0.195 0.195-0.195 0.512 0 0.707s0.512 0.195 0.707 0l1.191-1.191c0.25-0.25 0.66-0.25 0.91 0l1.191 1.191c0.098 0.098 0.226 0.146 0.354 0.146s0.256-0.049 0.354-0.146c0.195-0.195 0.195-0.512 0-0.707l-1.191-1.191c-0.189-0.188-0.411-0.321-0.648-0.398V9.946c1.14-0.232 2-1.242 2.001-2.446zM7.002 12.547zM7.5 9C6.673 9 6 8.327 6 7.5S6.673 6 7.5 6 9 6.673 9 7.5 8.327 9 7.5 9zM7.997 12.556zM18 15.05V7.5C18 7.224 17.776 7 17.5 7S17 7.224 17 7.5v7.55c-1.14 0.232-2 1.243-2 2.45 0 1.379 1.121 2.5 2.5 2.5s2.5-1.121 2.5-2.5c0-1.207-0.86-2.218-2-2.45zM17.5 19c-0.827 0-1.5-0.673-1.5-1.5s0.673-1.5 1.5-1.5 1.5 0.673 1.5 1.5-0.673 1.5-1.5 1.5z" />
</svg>