<svg id="template_alt_Layer_1" viewBox="0 0 24 24" fill="currentColor" width="32" height="32" data-name="Layer 1" xmlns="http://www.w3.org/2000/svg" xmlns:xlink="http://www.w3.org/1999/xlink">
    <title>template-alt</title>
    <path d="M18 13.5v1c0 0.28-0.22 0.5-0.5 0.5S17 14.78 17 14.5v-1c0-0.28-0.22-0.5-0.5-0.5h-1c-0.28 0-0.5-0.22-0.5-0.5s0.22-0.5 0.5-0.5h1c0.83 0 1.5 0.67 1.5 1.5zM8.5 12h-1C6.67 12 6 12.67 6 13.5v1C6 14.78 6.22 15 6.5 15S7 14.78 7 14.5v-1C7 13.22 7.22 13 7.5 13h1C8.78 13 9 12.78 9 12.5S8.78 12 8.5 12zM8.5 19h-1C7.22 19 7 18.78 7 18.5v-1C7 17.22 6.78 17 6.5 17S6 17.22 6 17.5v1C6 19.33 6.67 20 7.5 20h1C8.78 20 9 19.78 9 19.5S8.78 19 8.5 19zM17.5 17c-0.28 0-0.5 0.22-0.5 0.5v1c0 0.28-0.22 0.5-0.5 0.5h-1c-0.28 0-0.5 0.22-0.5 0.5s0.22 0.5 0.5 0.5h1c0.83 0 1.5-0.67 1.5-1.5v-1c0-0.28-0.22-0.5-0.5-0.5zM10.5 8h-4C6.22 8 6 8.22 6 8.5S6.22 9 6.5 9h4C10.78 9 11 8.78 11 8.5S10.78 8 10.5 8zM22 9.99v9.51c0 2.48-2.02 4.5-4.5 4.5h-11C4.02 24 2 21.98 2 19.5v-15C2 2.02 4.02 0 6.5 0h5.51c1.74 0 3.37 0.68 4.6 1.9l3.48 3.48c1.23 1.23 1.9 2.86 1.91 4.61zM15.9 2.61c-0.55-0.55-1.2-0.97-1.9-1.24V6.5C14 7.33 14.67 8 15.5 8h5.13c-0.27-0.71-0.69-1.35-1.24-1.9zM21 9.98c0-0.33-0.03-0.66-0.09-0.99H15.5c-1.38 0-2.5-1.12-2.5-2.5v-5.4C12.68 1.03 12.35 1 12.01 1H6.5C4.57 1 3 2.57 3 4.5v15C3 21.43 4.57 23 6.5 23h11c1.93 0 3.5-1.57 3.5-3.5z" />
</svg>