<svg id="tent_arrow_left_right_Layer_1" viewBox="0 0 24 24" fill="currentColor" width="32" height="32" data-name="Layer 1" xmlns="http://www.w3.org/2000/svg" xmlns:xlink="http://www.w3.org/1999/xlink">
    <title>tent-arrow-left-right</title>
    <path d="M23.999 4.5c0 0 0 3e-3 0 5e-3 0 0.503-0.193 1.006-0.576 1.389l-3.046 2.991c-0.098 0.095-0.225 0.143-0.351 0.143-0.13 0-0.259-0.05-0.356-0.15-0.193-0.197-0.19-0.514 6e-3-0.707l3.043-2.987c0.056-0.056 0.104-0.118 0.143-0.183H1.137c0.04 0.066 0.089 0.129 0.146 0.187l3.04 2.984c0.196 0.193 0.199 0.51 6e-3 0.707-0.098 0.1-0.227 0.15-0.356 0.15-0.126 0-0.253-0.048-0.351-0.143L0.579 5.897C0.194 5.512 2e-3 5.008 0 4.504c0-1e-3 0-3e-3 0-4e-3 0-2e-3 0-3e-3 0-5e-3 0-0.503 0.193-1.006 0.576-1.389l3.046-2.99c0.199-0.193 0.516-0.189 0.707 7e-3 0.193 0.197 0.19 0.514-6e-3 0.707L1.28 3.817C1.224 3.873 1.176 3.935 1.137 4h21.725c-0.04-0.066-0.089-0.129-0.146-0.187l-3.04-2.984c-0.196-0.193-0.199-0.51-6e-3-0.707 0.192-0.196 0.509-0.2 0.707-7e-3l3.043 2.987c0.385 0.385 0.578 0.889 0.579 1.393 0 1e-3 0 3e-3 0 5e-3zM21.591 18.315c0.608 1.297 0.514 2.715-0.216 3.858-0.73 1.144-1.977 1.826-3.333 1.826H5.958c-1.356 0-2.603-0.683-3.333-1.826-0.729-1.144-0.824-2.562-0.253-3.793 0.011-0.022 6.077-9.158 6.077-9.158 0.896-1.429 2.159-2.223 3.549-2.223 1.445 0 2.711 0.797 3.563 2.246zM15.714 23l-2.62-5.277c-0.207-0.447-0.614-0.708-1.095-0.708s-0.888 0.261-1.09 0.695L8.286 23zM20.722 18.803 14.715 9.777c-0.69-1.17-1.625-1.776-2.717-1.776-1.324 0-2.204 0.96-2.709 1.765l-6.025 9.071c-0.41 0.911-0.334 1.955 0.204 2.8 0.546 0.854 1.477 1.364 2.49 1.364h1.211l2.839-5.723c0.359-0.774 1.124-1.263 1.991-1.263s1.632 0.488 1.996 1.275L16.831 23h1.211c1.014 0 1.944-0.51 2.49-1.364 0.545-0.854 0.616-1.914 0.19-2.833z" />
</svg>