<svg id="terms_check_Layer_1" viewBox="0 0 24 24" fill="currentColor" width="32" height="32" data-name="Layer 1" xmlns="http://www.w3.org/2000/svg" xmlns:xlink="http://www.w3.org/1999/xlink">
    <title>terms-check</title>
    <path d="M12 23.5c0 0.276-0.224 0.5-0.5 0.5h-7C2.019 24 0 21.981 0 19.5v-15C0 2.019 2.019 0 4.5 0h9C15.981 0 18 2.019 18 4.5v13c0 0.276-0.224 0.5-0.5 0.5S17 17.776 17 17.5v-13C17 2.57 15.43 1 13.5 1h-9C2.57 1 1 2.57 1 4.5v15C1 21.43 2.57 23 4.5 23h7c0.276 0 0.5 0.224 0.5 0.5zM13.5 5h-9C4.224 5 4 5.224 4 5.5S4.224 6 4.5 6h9C13.776 6 14 5.776 14 5.5S13.776 5 13.5 5zM14 10.5c0-0.276-0.224-0.5-0.5-0.5h-9C4.224 10 4 10.224 4 10.5S4.224 11 4.5 11h9c0.276 0 0.5-0.224 0.5-0.5zM4.5 15C4.224 15 4 15.224 4 15.5S4.224 16 4.5 16h3C7.776 16 8 15.776 8 15.5S7.776 15 7.5 15zM23.854 16.431c-0.195-0.195-0.512-0.195-0.707 0l-6.16 6.16c-0.536 0.551-1.464 0.54-1.985-0.01l-2.92-2.978c-0.194-0.197-0.511-0.201-0.707-7e-3-0.197 0.193-0.2 0.51-7e-3 0.707l2.919 2.978c0.889 0.947 2.508 0.955 3.407 0.018l6.16-6.16c0.195-0.195 0.195-0.512 0-0.708z" />
</svg>