<svg id="terminal_Layer_1" viewBox="0 0 24 24" fill="currentColor" width="32" height="32" data-name="Layer 1" xmlns="http://www.w3.org/2000/svg" xmlns:xlink="http://www.w3.org/1999/xlink">
    <title>terminal</title>
    <path d="M9.26 10.23c0.98 0.98 0.98 2.57 0 3.54l-8.41 8.09C0.75 21.95 0.63 22 0.5 22s-0.26-0.05-0.36-0.15c-0.19-0.2-0.19-0.52 0.01-0.71l8.42-8.09c0.58-0.58 0.58-1.53 0-2.11L0.15 2.86c-0.2-0.19-0.21-0.51-0.01-0.71 0.19-0.2 0.51-0.21 0.71-0.01zM23.5 21h-13c-0.28 0-0.5 0.22-0.5 0.5s0.22 0.5 0.5 0.5h13c0.28 0 0.5-0.22 0.5-0.5S23.78 21 23.5 21z" />
</svg>