<svg id="terrace_Layer_1" viewBox="0 0 24 24" fill="currentColor" width="32" height="32" data-name="Layer 1" xmlns="http://www.w3.org/2000/svg" xmlns:xlink="http://www.w3.org/1999/xlink">
    <title>terrace</title>
    <path d="M24 9.5c0-1.4-0.688-2.71-1.843-3.503l-7.442-5.114C13.09-0.3 10.907-0.298 9.296 0.875L1.843 5.997C0.689 6.79 0 8.1 0 9.5 0 10.879 1.121 12 2.5 12h9v11.5c0 0.276 0.224 0.5 0.5 0.5s0.5-0.224 0.5-0.5V12h9c1.379 0 2.5-1.121 2.5-2.5zM6 9.31V11H2.5C1.673 11 1 10.327 1 9.5 1 8.429 1.526 7.428 2.409 6.821l7.464-5.13c0.315-0.229 0.657-0.401 1.012-0.517L6.871 6.648C6.309 7.414 6 8.359 6 9.31zM11.5 11H7V9.31c0-0.739 0.24-1.474 0.678-2.069L11.5 2.029zM17 11h-4.5V2.028l3.822 5.212C16.76 7.836 17 8.57 17 9.309zM17.129 6.648 13.116 1.176c0.358 0.117 0.703 0.291 1.021 0.523l7.453 5.122c0.883 0.606 1.409 1.607 1.409 2.679 0 0.827-0.673 1.5-1.5 1.5h-3.5V9.31c0-0.95-0.31-1.896-0.87-2.662zM6 21.5v2C6 23.776 5.776 24 5.5 24S5 23.776 5 23.5v-2C5 20.673 4.327 20 3.5 20H1v3.5C1 23.776 0.776 24 0.5 24S0 23.776 0 23.5v-8C0 15.224 0.224 15 0.5 15S1 15.224 1 15.5V19h2.5C4.879 19 6 20.121 6 21.5zM24 15.5v8c0 0.276-0.224 0.5-0.5 0.5S23 23.776 23 23.5V20h-2.5c-0.827 0-1.5 0.673-1.5 1.5v2c0 0.276-0.224 0.5-0.5 0.5S18 23.776 18 23.5v-2c0-1.379 1.121-2.5 2.5-2.5H23v-3.5c0-0.276 0.224-0.5 0.5-0.5s0.5 0.224 0.5 0.5z" />
</svg>