<svg id="text_slash_Layer_1" viewBox="0 0 24 24" fill="currentColor" width="32" height="32" data-name="Layer 1" xmlns="http://www.w3.org/2000/svg" xmlns:xlink="http://www.w3.org/1999/xlink">
    <title>text-slash</title>
    <path d="M12.5 15.5v6c0 0.276-0.224 0.5-0.5 0.5s-0.5-0.224-0.5-0.5v-6c0-0.276 0.224-0.5 0.5-0.5s0.5 0.224 0.5 0.5zM23.854 23.854C23.756 23.952 23.628 24 23.5 24s-0.256-0.049-0.354-0.146l-23-23c-0.195-0.196-0.195-0.512 0-0.708s0.512-0.195 0.708 0l2.847 2.848C4.496 2.359 5.476 2 6.5 2h11C19.981 2 22 4.019 22 6.5v2C22 8.776 21.776 9 21.5 9S21 8.776 21 8.5v-2C21 4.57 19.43 3 17.5 3h-5v8.793l11.354 11.354c0.195 0.195 0.195 0.512 0 0.707zM4.414 3.707 11.5 10.793V3h-5C5.742 3 5.016 3.257 4.414 3.707zM2.5 6C2.224 6 2 6.224 2 6.5v2C2 8.776 2.224 9 2.5 9S3 8.776 3 8.5v-2C3 6.224 2.776 6 2.5 6z" />
</svg>