<svg id="text_size_Layer_1" viewBox="0 0 24 24" fill="currentColor" width="32" height="32" data-name="Layer 1" xmlns="http://www.w3.org/2000/svg" xmlns:xlink="http://www.w3.org/1999/xlink">
    <title>text-size</title>
    <path d="M24 15v0.5c0 0.28-0.22 0.5-0.5 0.5S23 15.78 23 15.5V15c0-1.1-0.9-2-2-2h-2v9.5c0 0.28-0.22 0.5-0.5 0.5S18 22.78 18 22.5V13h-2c-1.1 0-2 0.9-2 2v0.5c0 0.28-0.22 0.5-0.5 0.5S13 15.78 13 15.5V15c0-1.65 1.35-3 3-3h5c1.65 0 3 1.35 3 3zM14.5 2C16.43 2 18 3.57 18 5.5v1C18 6.78 18.22 7 18.5 7S19 6.78 19 6.5v-1C19 3.02 16.98 1 14.5 1h-10C2.02 1 0 3.02 0 5.5v1C0 6.78 0.22 7 0.5 7S1 6.78 1 6.5v-1C1 3.57 2.57 2 4.5 2H9v20.5C9 22.78 9.22 23 9.5 23s0.5-0.22 0.5-0.5V2z" />
</svg>