<svg id="thermometer_empty_Layer_1" viewBox="0 0 24 24" fill="currentColor" width="32" height="32" data-name="Layer 1" xmlns="http://www.w3.org/2000/svg" xmlns:xlink="http://www.w3.org/1999/xlink">
    <title>thermometer-empty</title>
    <path d="M11.5 15C10.121 15 9 16.121 9 17.5s1.121 2.5 2.5 2.5 2.5-1.121 2.5-2.5-1.121-2.5-2.5-2.5zM11.5 19c-0.827 0-1.5-0.673-1.5-1.5s0.673-1.5 1.5-1.5 1.5 0.673 1.5 1.5-0.673 1.5-1.5 1.5zM16 12.819V4.5C16 2.019 13.981 0 11.5 0S7 2.019 7 4.5v8.319c-1.273 1.225-2 2.918-2 4.681 0 3.584 2.916 6.5 6.5 6.5s6.5-2.916 6.5-6.5c0-1.763-0.727-3.456-2-4.681zM11.5 23C8.468 23 6 20.532 6 17.5c0-1.554 0.668-3.045 1.834-4.091C7.939 13.314 8 13.179 8 13.037V4.5C8 2.57 9.57 1 11.5 1S15 2.57 15 4.5v8.537c0 0.142 0.061 0.277 0.166 0.372C16.332 14.455 17 15.946 17 17.5c0 3.032-2.468 5.5-5.5 5.5z" />
</svg>