<svg id="thermometer_alt_Layer_1" viewBox="0 0 24 24" fill="currentColor" width="32" height="32" data-name="Layer 1" xmlns="http://www.w3.org/2000/svg" xmlns:xlink="http://www.w3.org/1999/xlink">
    <title>thermometer-alt</title>
    <path d="M23.995 4.487c-0.063-1.342-0.673-2.555-1.715-3.416-1.846-1.522-4.677-1.331-6.446 0.438L4.136 13.206c-1.138 1.138-1.22 3.551-1.089 5.375 0.011 0.15-0.042 0.295-0.144 0.397l-2.461 2.461c-0.585 0.585-0.585 1.536 0 2.121 0.283 0.283 0.66 0.439 1.061 0.439s0.777-0.156 1.061-0.439l2.461-2.461c0.104-0.104 0.239-0.152 0.398-0.144 2.652 0.189 4.461-0.177 5.374-1.09L22.621 8.041c0.936-0.936 1.437-2.231 1.374-3.554zM21.914 7.335 10.09 19.159c-0.679 0.68-2.31 0.962-4.595 0.799-0.443-0.026-0.869 0.126-1.177 0.435l-2.461 2.461c-0.189 0.189-0.518 0.189-0.707 0-0.094-0.095-0.146-0.22-0.146-0.354s0.052-0.259 0.146-0.354l2.461-2.461c0.308-0.309 0.466-0.737 0.434-1.177-0.164-2.284 0.12-3.916 0.799-4.596l1.183-1.183 2.122 2.122c0.098 0.098 0.226 0.146 0.354 0.146s0.256-0.049 0.354-0.146c0.195-0.195 0.195-0.512 0-0.707l-2.122-2.122 2.293-2.293 2.122 2.122c0.098 0.098 0.226 0.146 0.354 0.146s0.256-0.049 0.354-0.146c0.195-0.195 0.195-0.512 0-0.707L9.736 9.022l2.293-2.293 2.122 2.122c0.098 0.098 0.226 0.146 0.354 0.146s0.256-0.049 0.354-0.146c0.195-0.195 0.195-0.512 0-0.707l-2.122-2.122 2.293-2.293 2.122 2.122c0.098 0.098 0.226 0.146 0.354 0.146s0.256-0.049 0.354-0.146c0.195-0.195 0.195-0.512 0-0.707l-2.122-2.122 0.807-0.807c0.777-0.777 1.807-1.176 2.818-1.176 0.822 0 1.633 0.264 2.284 0.802 0.822 0.68 1.303 1.636 1.353 2.692 0.05 1.042-0.345 2.062-1.086 2.802z" />
</svg>