<svg id="third_medal_Layer_1" viewBox="0 0 24 24" fill="currentColor" width="32" height="32" data-name="Layer 1" xmlns="http://www.w3.org/2000/svg" xmlns:xlink="http://www.w3.org/1999/xlink">
    <title>third-medal</title>
    <path d="M22.802 0.703C22.529 0.263 22.056 0 21.537 0h-4.026c-1.342 0-2.544 0.748-3.139 1.951L12.37 6.008C12.247 6.003 12.124 6 12 6s-0.247 3e-3-0.37 8e-3L9.628 1.951C9.033 0.748 7.831 0 6.489 0H2.463C1.944 0 1.472 0.263 1.198 0.703s-0.3 0.981-0.07 1.445l3.674 7.455C3.671 11.108 3 12.977 3 14.999c0 4.963 4.037 9 9 9s9-4.037 9-9c0-2.023-0.671-3.892-1.802-5.396l3.674-7.454c0.229-0.465 0.204-1.006-0.07-1.446zM2.024 1.706C1.915 1.485 2.003 1.301 2.046 1.23 2.09 1.161 2.216 1 2.462 1h4.026C7.446 1 8.305 1.534 8.73 2.395l1.835 3.72c-1.974 0.317-3.734 1.278-5.06 2.659zM20 15c0 4.411-3.589 8-8 8s-8-3.589-8-8c0-4.177 3.692-8 8-8s8 3.823 8 8zM21.976 1.707 18.493 8.774c-1.326-1.382-3.086-2.342-5.06-2.659l1.835-3.72C15.693 1.535 16.552 1 17.51 1h4.026c0.246 0 0.372 0.161 0.416 0.23 0.043 0.07 0.132 0.255 0.024 0.477zM15.49 17.25c0 1.517-1.233 2.75-2.75 2.75H9.501c-0.276 0-0.5-0.224-0.5-0.5s0.224-0.5 0.5-0.5h3.239c0.965 0 1.75-0.785 1.75-1.75s-0.785-1.75-1.75-1.75h-1.239c-0.276 0-0.5-0.224-0.5-0.5s0.224-0.5 0.5-0.5h0.75c0.965 0 1.75-0.785 1.75-1.75S13.216 11 12.251 11h-2.75c-0.276 0-0.5-0.224-0.5-0.5s0.224-0.5 0.5-0.5h2.75c1.517 0 2.75 1.233 2.75 2.75 0 0.831-0.371 1.576-0.954 2.08 0.859 0.466 1.444 1.375 1.443 2.42z" />
</svg>