<svg id="third_laurel_Layer_1" viewBox="0 0 24 24" fill="currentColor" width="32" height="32" data-name="Layer 1" xmlns="http://www.w3.org/2000/svg" xmlns:xlink="http://www.w3.org/1999/xlink">
    <title>third-laurel</title>
    <path d="M4.989 10.612v9e-3c-5e-3-9e-3-0.014-0.03 0-9e-3zM13 14H9.962c-0.276 0-0.5 0.224-0.5 0.5s0.224 0.5 0.5 0.5H13c1.379 0 2.5-1.121 2.5-2.5 0-0.995-0.584-1.856-1.427-2.258 0.438-0.451 0.709-1.065 0.709-1.742 0-1.379-1.121-2.5-2.5-2.5h-2.32c-0.276 0-0.5 0.224-0.5 0.5S9.686 7 9.962 7h2.32c0.827 0 1.5 0.673 1.5 1.5s-0.673 1.5-1.5 1.5h-0.82c-0.276 0-0.5 0.224-0.5 0.5s0.224 0.5 0.5 0.5H13c0.827 0 1.5 0.673 1.5 1.5S13.827 14 13 14zM3.268 12.501c5e-3 0 0.01 0 0.015 0-0.01-8e-3-0.044-0.024-0.015 0zM19.012 10.664v0c0 0 1e-3-3e-3 0 0zM23.854 13.562c0.191 0.394 0.193 0.846 6e-3 1.24-0.475 1-1.321 2.297-2.745 3.189 0.133 0.101 0.257 0.201 0.372 0.299 0.358 0.304 0.551 0.745 0.528 1.211-0.022 0.459-0.253 0.873-0.632 1.135-0.788 0.544-1.976 1.181-3.376 1.331 0.02 0.046 0.039 0.092 0.057 0.136 0.155 0.381 0.128 0.806-0.076 1.166-0.204 0.359-0.555 0.602-0.962 0.664-0.49 0.074-0.939 0.108-1.352 0.108-1.913 0-3.026-0.734-3.675-1.583-0.649 0.849-1.762 1.583-3.675 1.583-0.412 0-0.861-0.034-1.351-0.108-0.408-0.062-0.759-0.305-0.963-0.664-0.204-0.36-0.231-0.785-0.076-1.166 0.018-0.044 0.037-0.09 0.057-0.136-1.4-0.15-2.588-0.787-3.376-1.331-0.379-0.262-0.609-0.676-0.632-1.135-0.022-0.466 0.17-0.907 0.528-1.212 0.098-0.083 0.203-0.169 0.314-0.254-1.467-0.894-2.332-2.217-2.814-3.234-0.187-0.394-0.185-0.846 7e-3-1.239 0.204-0.419 0.589-0.72 1.057-0.825 0.126-0.029 0.259-0.056 0.397-0.082-0.456-0.348-0.851-0.795-1.06-1.334-0.609-1.57-0.433-3.521-0.179-4.882 0.08-0.424 0.36-0.779 0.752-0.952 0.36-0.158 0.769-0.145 1.117 0.03-0.168-0.632-0.15-1.293 0.188-1.935 0.783-1.486 2.308-2.655 3.448-3.374 0.381-0.238 0.83-0.272 1.239-0.099 0.427 0.184 0.738 0.576 0.832 1.049 0.539 2.705-0.039 5.216-1.674 7.314-0.933 7.465 2.922 11.546 5.879 11.991 2.947-0.444 6.787-4.528 5.848-12.003-2.228-2.914-1.926-6.035-1.672-7.302 0.094-0.473 0.405-0.865 0.832-1.049 0.411-0.174 0.86-0.14 1.239 0.099 1.141 0.719 2.665 1.888 3.448 3.374 0.338 0.642 0.355 1.303 0.188 1.935 0.349-0.175 0.758-0.188 1.117-0.03 0.392 0.173 0.672 0.528 0.752 0.951 0.255 1.361 0.431 3.312-0.178 4.882-0.214 0.551-0.62 1.004-1.085 1.354 0.102 0.02 0.2 0.041 0.295 0.062 0.467 0.105 0.852 0.406 1.056 0.826zM5.171 8.077c1.606-1.925 2.164-4.185 1.658-6.724-0.03-0.15-0.122-0.271-0.247-0.325C6.547 1.012 6.501 1 6.45 1 6.395 1 6.335 1.014 6.271 1.054 5.421 1.589 3.89 2.69 3.174 4.049c-0.759 1.44 1.17 3.316 1.997 4.028zM3.268 12.501c0.592 0.014 1.228 0.096 1.844 0.287-0.086-0.682-0.129-1.405-0.123-2.167 3e-3 6e-3 5e-3 7e-3 0-9e-3C4.23 8.43 2.743 7.079 1.679 6.424 1.549 6.345 1.433 6.383 1.39 6.403 1.336 6.426 1.243 6.487 1.216 6.625 1.028 7.634 0.792 9.539 1.343 10.96c0.279 0.719 1.283 1.319 1.925 1.541zM3.759 17.408c0.675-0.389 1.484-0.718 2.402-0.849-0.362-0.786-0.656-1.665-0.859-2.639-1.407-0.606-2.955-0.449-4.006-0.21-0.171 0.039-0.309 0.144-0.379 0.288-0.041 0.085-0.075 0.22-3e-3 0.373 0.465 0.979 1.331 2.284 2.845 3.037zM6.47 20.998c0.331-0.589 0.775-1.241 1.365-1.878-0.425-0.467-0.822-1.003-1.177-1.607-1.514 0.105-2.731 0.887-3.498 1.539-0.12 0.102-0.185 0.247-0.177 0.4 4e-3 0.086 0.036 0.247 0.201 0.361 0.758 0.524 1.935 1.146 3.286 1.185zM11.499 21.383c-0.978-0.221-2.006-0.742-2.949-1.563-0.886 0.963-1.404 1.961-1.689 2.661-0.054 0.132-0.01 0.241 0.021 0.296 0.052 0.092 0.141 0.153 0.244 0.169 2.202 0.329 3.672-0.194 4.373-1.563zM19.012 10.664c0 0 0 2e-3 0 0 4e-3 0.732-0.037 1.426-0.117 2.084 0.593-0.168 1.188-0.239 1.754-0.248-5e-3 2e-3-6e-3 4e-3 8e-3 0 0.743-0.224 1.72-0.817 2.001-1.541 0.551-1.421 0.315-3.326 0.127-4.336-0.026-0.137-0.12-0.197-0.174-0.221-0.043-0.02-0.159-0.058-0.289 0.021-1.097 0.675-2.567 1.974-3.31 4.241zM18.831 8.074c0.828-0.715 2.749-2.591 1.994-4.025-0.716-1.359-2.247-2.46-3.097-2.995C17.665 1.014 17.604 1 17.55 1c-0.052 0-0.097 0.013-0.133 0.028-0.125 0.054-0.217 0.175-0.247 0.325-0.231 1.16-0.51 4.064 1.661 6.721zM17.139 22.48c-0.285-0.698-0.801-1.691-1.681-2.652-0.945 0.824-1.975 1.343-2.954 1.56 0.703 1.366 2.173 1.889 4.372 1.557 0.103-0.016 0.191-0.077 0.243-0.169 0.03-0.055 0.074-0.164 0.02-0.296zM21.017 19.452c8e-3-0.153-0.057-0.299-0.176-0.399-0.247-0.21-0.976-0.694-1.017-0.729-0.68-0.403-1.517-0.742-2.472-0.811-0.356 0.608-0.754 1.147-1.18 1.616 0.586 0.635 1.028 1.284 1.358 1.87 1.351-0.039 2.528-0.661 3.286-1.185 0.165-0.114 0.197-0.275 0.201-0.362zM22.955 13.999c-0.07-0.145-0.208-0.249-0.378-0.288-1.016-0.229-2.495-0.385-3.863 0.151-0.203 0.997-0.5 1.897-0.868 2.699 0.887 0.127 1.672 0.441 2.333 0.813 1.471-0.756 2.32-2.036 2.779-3.002 0.072-0.153 0.038-0.288-3e-3-0.373zM20.648 12.5c0 0 5e-3 0 8e-3 0 0.02-0.011 0-4e-3-8e-3 0z" />
</svg>