<svg id="thought_bubble_Layer_1" viewBox="0 0 24 24" fill="currentColor" width="32" height="32" data-name="Layer 1" xmlns="http://www.w3.org/2000/svg" xmlns:xlink="http://www.w3.org/1999/xlink">
    <title>thought-bubble</title>
    <path d="M3 22c0 0.552-0.448 1-1 1s-1-0.448-1-1 0.448-1 1-1 1 0.448 1 1zM5.5 18C4.672 18 4 18.672 4 19.5S4.672 21 5.5 21 7 20.328 7 19.5 6.328 18 5.5 18zM23.999 10.083c-0.039 2.979-2.391 5.562-5.354 5.882-0.51 0.057-1.028 0.046-1.538-0.032-0.309-0.042-0.622 0.056-0.838 0.274C15.133 17.363 13.617 18 11.999 18c-1.95 0-3.786-0.957-4.909-2.56C6.948 15.239 6.732 15 6.499 15c-1.747 0-3.387-0.684-4.617-1.924C0.653 11.835-0.016 10.189 0 8.442 0.028 5.151 2.612 2.335 5.882 2.028 6.477 1.974 7.07 1.998 7.646 2.101 7.951 2.155 8.25 2.06 8.465 1.849 9.686 0.657 11.296-1e-3 13-1e-3c2.492 0 4.795 1.457 5.867 3.713 0.109 0.229 0.325 0.404 0.579 0.467 2.72 0.674 4.592 3.102 4.553 5.904zM19.206 5.15c-0.541-0.134-1.006-0.511-1.242-1.008C17.057 2.233 15.109 0.999 13 0.999c-1.441 0-2.804 0.556-3.836 1.564C8.719 3 8.085 3.199 7.471 3.084 7.152 3.026 6.825 2.998 6.497 2.998c-0.173 0-0.348 8e-3-0.522 0.024C3.21 3.281 1.025 5.665 1 8.448 0.987 9.927 1.553 11.32 2.594 12.37c1.04 1.05 2.428 1.628 3.906 1.628 0.365 0 0.906 0.15 1.409 0.866 0.937 1.336 2.466 2.134 4.091 2.134 1.347 0 2.609-0.53 3.557-1.494 0.438-0.447 1.068-0.66 1.7-0.562 0.427 0.064 0.857 0.073 1.28 0.026 2.47-0.267 4.429-2.42 4.462-4.901 0.032-2.335-1.527-4.357-3.793-4.917z" />
</svg>