<svg id="three_direction_Layer_1" viewBox="0 0 24 24" fill="currentColor" width="32" height="32" data-name="Layer 1" xmlns="http://www.w3.org/2000/svg" xmlns:xlink="http://www.w3.org/1999/xlink">
    <title>three-direction</title>
    <path d="M24 8.5v4c0 0.276-0.224 0.5-0.5 0.5S23 12.776 23 12.5V8.707l-4.389 4.389C17.572 14.135 17 15.517 17 16.986v6.515c0 0.276-0.224 0.5-0.5 0.5s-0.5-0.224-0.5-0.5v-6.515c0-1.736 0.677-3.369 1.904-4.597L22.293 8H18.5C18.224 8 18 7.776 18 7.5S18.224 7 18.5 7h4C23.327 7 24 7.673 24 8.5zM1.707 8H5.5C5.776 8 6 7.776 6 7.5S5.776 7 5.5 7h-4C0.673 7 0 7.673 0 8.5v4C0 12.776 0.224 13 0.5 13S1 12.776 1 12.5V8.707l4.389 4.389C6.428 14.136 7 15.517 7 16.986v6.515c0 0.276 0.224 0.5 0.5 0.5s0.5-0.224 0.5-0.5v-6.515c0-1.735-0.676-3.368-1.904-4.597zM15.856 3.247l-2.671-2.71c-0.612-0.684-1.803-0.673-2.395-0.011L8.138 3.313c-0.19 0.2-0.183 0.517 0.018 0.707 0.2 0.19 0.516 0.183 0.707-0.018l2.638-2.773V23.5c0 0.276 0.224 0.5 0.5 0.5s0.5-0.224 0.5-0.5V1.266l2.644 2.682c0.196 0.197 0.513 0.199 0.707 6e-3 0.197-0.194 0.199-0.511 4e-3-0.707z" />
</svg>