<svg id="three_leaf_clover_Layer_1" viewBox="0 0 24 24" fill="currentColor" width="32" height="32" data-name="Layer 1" xmlns="http://www.w3.org/2000/svg" xmlns:xlink="http://www.w3.org/1999/xlink">
    <title>three-leaf-clover</title>
    <path d="M22.496 13.344l-3e-3-3e-3c-0.07-0.053-0.224-0.212-0.224-0.341s0.152-0.287 0.227-0.343C23.452 11.938 24 10.878 24 9.749 24 7.647 22.243 6 20 6c-0.586 0-1.153 0.147-1.704 0.391C18.726 5.6 19 4.803 19 4c0-2.243-1.646-4-3.749-4-1.129 0-2.188 0.548-2.892 1.484-2e-3 1e-3-0.15 0.169-0.359 0.169-0.198 0-0.342-0.151-0.344-0.151C10.937 0.547 9.879 0 8.751 0 6.647 0 5 1.757 5 4 5 4.803 5.279 5.602 5.717 6.396 5.162 6.148 4.59 6 4 6 1.757 6 0 7.647 0 9.749c0 1.129 0.548 2.188 1.563 2.946 2e-3 0 0.219 0.13 0.219 0.304 0 0.175-0.218 0.305-0.278 0.344C0.548 14.062 0 15.121 0 16.249c0 2.103 1.757 3.75 4 3.75 2.842 0 4.749-2.365 6.432-4.453 0.347-0.43 0.684-0.846 1.019-1.234 0.032 2.331 0.644 7.047 4.785 9.612 0.082 0.051 0.174 0.075 0.264 0.075 0.167 0 0.33-0.084 0.425-0.236 0.146-0.235 0.073-0.543-0.161-0.688-3.739-2.316-4.273-6.76-4.304-8.863 0.365 0.417 0.731 0.866 1.109 1.334 1.683 2.088 3.59 4.453 6.432 4.453 2.243 0 4-1.647 4-3.75 0-1.128-0.548-2.188-1.505-2.905zM9.653 14.92C8.036 16.926 6.363 19 4 19c-1.683 0-3-1.208-3-2.75 0-0.811 0.403-1.579 1.041-2.066 0.275-0.147 0.741-0.562 0.741-1.184s-0.467-1.037-0.677-1.142C1.403 11.329 1 10.561 1 9.749 1 8.207 2.317 7 4 7 5.428 7 6.851 8.179 8.186 9.579c0.135 0.145 2.576 2.886 3.104 3.422-0.553 0.575-1.082 1.231-1.637 1.919zM12.007 12.209c-0.579-0.693-2.983-3.202-3.127-3.352C7.369 7.23 6 5.513 6 4.001c0-1.682 1.208-3 2.751-3 0.811 0 1.579 0.403 2.117 1.117 0.044 0.055 0.449 0.537 1.132 0.537s1.089-0.48 1.143-0.548c0.528-0.703 1.297-1.105 2.108-1.105 1.542 0 2.749 1.318 2.749 3 0 1.401-1.092 2.913-2.454 4.427-0.49 0.485-2.967 3.113-3.539 3.78zM20 19.001c-2.363 0-4.036-2.074-5.653-4.08-0.555-0.688-1.084-1.344-1.637-1.919 0.528-0.536 3.145-3.419 3.615-3.945 1.184-1.159 2.428-2.056 3.675-2.056 1.683 0 3 1.208 3 2.749 0 0.812-0.403 1.58-1.097 2.103-0.065 0.047-0.634 0.476-0.634 1.148 0 0.656 0.542 1.083 0.627 1.145C22.597 14.674 23 15.442 23 16.251c0 1.542-1.317 2.75-3 2.75z" />
</svg>