<svg id="throat_Layer_1" viewBox="0 0 24 24" fill="currentColor" width="32" height="32" data-name="Layer 1" xmlns="http://www.w3.org/2000/svg" xmlns:xlink="http://www.w3.org/1999/xlink">
    <title>throat</title>
    <path d="M19.774 4.401C17.347 1.16 13.345-0.476 9.318 0.127 4.5 0.853 0.439 5.29 0.074 10.229c-0.199 2.698 0.481 5.208 1.969 7.258C2.669 18.349 3 19.295 3 20.22v1.28C3 22.972 4.028 24 5.5 24h1C7.327 24 8 23.327 8 22.5v-9c0-1.897 1.495-3.466 3.332-3.499 1.309-0.026 2.604 0.221 3.824 0.726l2.98 1.235C18.197 11.987 18.262 12 18.327 12h4.172c0.013 0 0.024 0 0.036-1e-3 0.287 0.748 0.464 1.315 0.464 1.539C22.992 13.749 22.892 14 22.453 14H13.5c-1.93 0-3.5 1.57-3.5 3.5v5c0 0.827 0.673 1.5 1.5 1.5h2c1.379 0 2.5-1.122 2.5-2.5V21h0.986c2.113 0 3.965-1.5 4.402-3.566L21.905 15h0.549C23.588 15 24 14.13 24 13.545c0-1.283-2.852-7.446-4.226-9.144zM18.427 11 15.538 9.803c-1.347-0.558-2.764-0.825-4.225-0.802-2.379 0.042-4.314 2.06-4.314 4.499v9c0 0.276-0.225 0.5-0.5 0.5h-1c-0.692 0-1.5-0.393-1.5-1.5v-1.28c0-1.138-0.397-2.286-1.148-3.32-1.346-1.856-1.961-4.138-1.779-6.597 0.332-4.493 4.02-8.528 8.395-9.186 0.504-0.076 1.007-0.113 1.506-0.113 3.128 0 6.1 1.458 8.013 4.012 0.891 1.101 2.262 3.877 3.148 5.985zM20.409 17.227C20.068 18.834 18.629 20 16.985 20h-1.486c-0.276 0-0.5 0.224-0.5 0.5v1c0 0.827-0.673 1.5-1.5 1.5h-2c-0.275 0-0.5-0.224-0.5-0.5v-5c0-1.378 1.121-2.5 2.5-2.5h7.383z" />
</svg>