<svg id="thumbs_up_trust_Layer_1" viewBox="0 0 24 24" fill="currentColor" width="32" height="32" data-name="Layer 1" xmlns="http://www.w3.org/2000/svg" xmlns:xlink="http://www.w3.org/1999/xlink">
    <title>thumbs-up-trust</title>
    <path d="M7.982 19.299C7.921 19.522 7.72 19.668 7.5 19.668 3 18.5 0 14.502 0 10 0 4.486 4.486 0 10 0c4.949 0 9.103 3.542 9.876 8.422 0.043 0.272-0.144 0.529-0.416 0.572-0.268 0.041-0.528-0.142-0.572-0.416C18.193 4.187 14.454 1 10 1 5.037 1 1 5.038 1 10c0 4.052 2.727 7.623 6.631 8.686 0.267 0.072 0.424 0.348 0.351 0.613zM24 17.5v4c0 1.379-1.121 2.5-2.5 2.5h-6.879c-1.9 0-3.55-1.353-3.923-3.216l-0.63-2.154c-0.187-0.926 0.04-1.833 0.612-2.531v0C11.252 15.401 12.098 15 13 15h3.183l-0.58-3.265c-8e-3-0.065-0.019-0.556-7e-3-0.598 0.121-0.444 0.402-0.794 0.792-0.985 0.393-0.193 0.848-0.199 1.28-0.02 0.255 0.106 0.503 0.368 0.682 0.719l2.193 4.148h0.956c1.379 0 2.5 1.121 2.501 2.501zM20.042 15.863c-0.159-0.092-0.292-0.226-0.382-0.395l-2.197-4.155c-0.103-0.203-0.196-0.266-0.197-0.266-0.143-0.059-0.305-0.061-0.438 3e-3-0.11 0.054-0.195 0.154-0.246 0.285l0.014 0.291 0.572 3.2c0.053 0.291-0.026 0.589-0.217 0.816C16.758 15.871 16.479 16 16.183 16H13c-0.602 0-1.165 0.267-1.547 0.732s-0.533 1.071-0.415 1.66l0.63 2.154c0.289 1.438 1.527 2.453 2.952 2.453h5.382zM23 17.5c0-0.827-0.673-1.5-1.5-1.5h-0.459l-0.038 7H21.5c0.827 0 1.5-0.673 1.5-1.5zM15.045 7.5c0.196-0.194 0.198-0.511 4e-3-0.707-0.193-0.197-0.51-0.198-0.707-4e-3l-4.34 4.294c-0.559 0.553-1.466 0.552-2.022 0L5.852 8.98c-0.197-0.195-0.514-0.191-0.707 4e-3-0.194 0.197-0.192 0.513 4e-3 0.707l2.128 2.103c0.473 0.467 1.093 0.701 1.714 0.701s1.242-0.234 1.715-0.702z" />
</svg>