<svg id="thunderstorm_Layer_1" viewBox="0 0 24 24" fill="currentColor" width="32" height="32" data-name="Layer 1" xmlns="http://www.w3.org/2000/svg" xmlns:xlink="http://www.w3.org/1999/xlink">
    <title>thunderstorm</title>
    <path d="M11.388 24c-0.199 0-0.402-0.044-0.597-0.136-0.621-0.293-0.923-0.958-0.734-1.617L10.806 20H8.423c-0.451 0-0.866-0.21-1.138-0.575-0.274-0.369-0.356-0.833-0.224-1.271l2.126-6.155c0.205-0.597 0.775-0.998 1.417-0.998h1.895c0.497 0 0.961 0.243 1.24 0.649 0.276 0.403 0.337 0.918 0.16 1.376l-0.693 1.975h2.388c0.521 0 0.996 0.283 1.24 0.738 0.242 0.453 0.216 1.002-0.069 1.432l-4.258 6.23c-0.269 0.389-0.685 0.6-1.119 0.599zM10.605 12c-0.219 0-0.404 0.127-0.472 0.324l-2.12 6.137c-0.034 0.113-9e-3 0.255 0.075 0.367C8.169 18.937 8.291 19 8.423 19H11.5c0.161 0 0.312 0.077 0.405 0.208 0.095 0.13 0.12 0.298 0.069 0.45l-0.963 2.884c-0.074 0.261 0.139 0.386 0.205 0.417 0.068 0.032 0.3 0.118 0.466-0.125l4.252-6.223c0.116-0.174 0.051-0.338 0.018-0.4C15.918 16.148 15.815 16 15.594 16H12.5c-0.162 0-0.314-0.079-0.408-0.211s-0.117-0.302-0.063-0.455l0.933-2.654c0.064-0.167 0.045-0.331-0.046-0.464C12.821 12.079 12.67 12 12.5 12zM4.501 19.902c-0.032 0-3.501-0.402-4.38-4.237-0.431-1.881 0.198-3.805 1.576-5.123 0.328-0.313 0.469-0.819 0.386-1.387-0.134-0.921-0.106-1.862 0.083-2.796 0.639-3.137 3.173-5.636 6.308-6.217 3.575-0.664 7.06 1.058 8.674 4.279 0.194 0.389 0.56 0.668 1.001 0.767 3.521 0.79 5.98 3.984 5.847 7.597-0.13 3.478-2.824 6.461-6.408 7.093-0.268 0.054-0.531-0.134-0.579-0.405-0.048-0.272 0.134-0.531 0.405-0.579 3.123-0.551 5.471-3.136 5.582-6.146 0.116-3.131-2.015-5.899-5.065-6.584-0.735-0.165-1.347-0.636-1.677-1.294-1.414-2.82-4.468-4.325-7.598-3.744-2.738 0.507-4.952 2.69-5.51 5.433-0.167 0.82-0.191 1.646-0.073 2.452 0.13 0.893-0.119 1.715-0.685 2.255-1.128 1.078-1.609 2.646-1.289 4.196 0.356 1.724 1.762 3.109 3.496 3.45 0.271 0.053 0.448 0.315 0.395 0.586-0.046 0.239-0.256 0.404-0.489 0.404z" />
</svg>