<svg id="thunderstorm_moon_Layer_1" viewBox="0 0 24 24" fill="currentColor" width="32" height="32" data-name="Layer 1" xmlns="http://www.w3.org/2000/svg" xmlns:xlink="http://www.w3.org/1999/xlink">
    <title>thunderstorm-moon</title>
    <path d="M19 3c0-0.552 0.448-1 1-1s1 0.448 1 1-0.448 1-1 1-1-0.448-1-1zM16 7c0.552 0 1-0.448 1-1s-0.448-1-1-1-1 0.448-1 1 0.448 1 1 1zM22 10c0.552 0 1-0.448 1-1s-0.448-1-1-1-1 0.448-1 1 0.448 1 1 1zM15.896 19h-2.78c-0.048 0-0.076-0.025-0.092-0.047-0.012-0.015-0.022-0.035-0.023-0.062l1.926-3.13c0.145-0.234 0.071-0.543-0.164-0.688-0.231-0.146-0.542-0.072-0.688 0.164 0 0-2.014 3.283-2.026 3.324-0.104 0.341-0.04 0.701 0.172 0.987 0.213 0.286 0.539 0.45 0.896 0.45h2.78c0.041 0 0.071 0.019 0.091 0.055s0.018 0.072-0.013 0.119l-1.898 3.062c-0.146 0.235-0.073 0.543 0.161 0.688 0.082 0.051 0.173 0.075 0.264 0.075 0.167 0 0.33-0.084 0.425-0.236l1.891-3.05c0.225-0.34 0.245-0.774 0.052-1.133-0.192-0.358-0.564-0.581-0.974-0.578zM20.485 13.662c-0.409-0.109-0.722-0.382-0.857-0.747-0.914-2.466-3.286-4.031-5.926-3.907-3.051 0.147-5.552 2.654-5.694 5.705-0.024 0.518 0.018 1.035 0.124 1.539 0.05 0.232-0.051 0.458-0.244 0.548-1.464 0.678-2.202 2.314-1.753 3.892 0.297 1.045 1.13 1.878 2.175 2.176 0.287 0.08 0.575 0.125 0.858 0.132 0.332 9e-3 2.333 0 2.333 0 0.276 0 0.5-0.224 0.5-0.5s-0.224-0.5-0.5-0.5c-1.435 5e-3-1.79 0.014-2.308 0-0.2-5e-3-0.406-0.037-0.611-0.094-0.702-0.2-1.286-0.784-1.486-1.487-0.317-1.118 0.181-2.233 1.212-2.711 0.62-0.287 0.95-0.972 0.803-1.663-0.089-0.42-0.124-0.853-0.104-1.284 0.117-2.5 2.246-4.632 4.745-4.754 2.2-0.106 4.178 1.202 4.939 3.257 0.25 0.674 0.81 1.171 1.536 1.365 1.973 0.53 3.143 2.527 2.665 4.547-0.315 1.328-1.376 2.393-2.701 2.712-0.336 0.081-0.673 0.113-1.006 0.112l-0.684-6e-3c-0.274 0-0.498 0.221-0.5 0.496s0.22 0.502 0.496 0.504L19.171 23c0.415 0 0.834-0.04 1.253-0.14 1.688-0.406 3.039-1.763 3.44-3.454 0.604-2.549-0.88-5.071-3.379-5.744zM4.78 16.38c-2.588-1.741-4.054-4.868-3.733-7.966 0.377-3.658 3.29-6.731 6.926-7.308 1.129-0.182 2.438-0.127 3.502 0.141 0.249 0.062 0.437 0.251 0.502 0.504 0.064 0.247-6e-3 0.497-0.187 0.667-1.365 1.281-3.242 3.296-3.78 5.984C7.955 8.673 8.131 8.936 8.403 8.99 8.664 9.043 8.936 8.87 8.991 8.597c0.477-2.38 2.112-4.163 3.483-5.451 0.452-0.424 0.628-1.039 0.471-1.646-0.156-0.604-0.626-1.072-1.226-1.224-1.207-0.302-2.631-0.359-3.904-0.158-4.075 0.648-7.34 4.093-7.763 8.193-0.358 3.461 1.278 6.954 4.169 8.899 0.086 0.058 0.183 0.085 0.279 0.085 0.16 0 0.318-0.077 0.415-0.221 0.154-0.229 0.093-0.54-0.135-0.694z" />
</svg>