<svg id="thunderstorm_sun_Layer_1" viewBox="0 0 24 24" fill="currentColor" width="32" height="32" data-name="Layer 1" xmlns="http://www.w3.org/2000/svg" xmlns:xlink="http://www.w3.org/1999/xlink">
    <title>thunderstorm-sun</title>
    <path d="M16.87 19.581c0.193 0.358 0.173 0.793-0.052 1.133l-1.891 3.05C14.832 23.916 14.669 24 14.502 24c-0.091 0-0.182-0.024-0.264-0.075-0.234-0.146-0.307-0.453-0.161-0.688l1.898-3.062c0.03-0.047 0.032-0.083 0.013-0.119s-0.05-0.055-0.091-0.055h-2.78c-0.356 0-0.683-0.164-0.896-0.45-0.212-0.287-0.275-0.646-0.171-0.988 0.013-0.041 2.026-3.323 2.026-3.323 0.146-0.236 0.456-0.31 0.688-0.164 0.235 0.145 0.309 0.452 0.164 0.688l-1.926 3.13c2e-3 0.026 0.013 0.048 0.023 0.062 0.016 0.021 0.044 0.047 0.092 0.047h2.78c0.407 0 0.779 0.223 0.973 0.578zM6.046 12.382C5.282 11.18 4.795 9.744 5.087 8.613c0.584-2.26 2.375-3.331 3.49-3.521 1.094-0.187 3.115 0.062 4.371 1.514 0.626 0.724 1.277 0.712 1.909 0.343l2.667-1.561c0.238-0.14 0.318-0.446 0.179-0.685s-0.445-0.315-0.685-0.179l-2.666 1.561c-0.207 0.123-0.476 0.069-0.639-0.124-0.324-0.385-0.689-0.717-1.087-0.993l1.726-3.066c0.136-0.24 0.051-0.546-0.19-0.681-0.238-0.135-0.544-0.052-0.681 0.19l-1.725 3.064c-0.551-0.247-1.142-0.401-1.753-0.455V0.5c0-0.276-0.224-0.5-0.5-0.5s-0.5 0.224-0.5 0.5v3.522C8.797 4.041 8.59 4.07 8.383 4.111 7.968 4.193 7.569 4.324 7.192 4.498L5.436 1.456C5.297 1.217 4.991 1.133 4.753 1.273 4.514 1.411 4.432 1.716 4.57 1.956l1.756 3.042C5.803 5.367 5.347 5.827 4.98 6.352L1.926 4.616C1.686 4.48 1.381 4.562 1.244 4.804 1.107 5.044 1.191 5.349 1.432 5.486l3.054 1.737C4.314 7.604 4.184 8.007 4.105 8.426 4.069 8.617 4.043 8.809 4.026 9H0.502c-0.276 0-0.5 0.224-0.5 0.5s0.224 0.5 0.5 0.5h3.524c0.058 0.629 0.221 1.241 0.485 1.812l-3.049 1.765c-0.239 0.139-0.321 0.444-0.182 0.683 0.093 0.16 0.26 0.25 0.433 0.25 0.085 0 0.171-0.021 0.25-0.067l3.049-1.765c0.083 0.118 0.172 0.233 0.266 0.346 0.176 0.211 0.492 0.241 0.704 0.063 0.212-0.177 0.212-0.471 0.064-0.705zM20.487 13.662c-0.409-0.109-0.722-0.382-0.857-0.747-0.914-2.466-3.284-4.031-5.926-3.907-3.051 0.147-5.552 2.654-5.694 5.705-0.024 0.519 0.018 1.036 0.124 1.538 0.05 0.233-0.051 0.46-0.244 0.549-1.464 0.678-2.202 2.314-1.753 3.892 0.296 1.045 1.13 1.878 2.176 2.176 0.286 0.08 0.575 0.125 0.858 0.132 0.332 9e-3 0.572 0.012 1.072 0.012 0.29 0 1.259-0.011 1.259-0.011 0.276 0 0.5-0.224 0.5-0.5s-0.224-0.5-0.5-0.5c0 0-1.5 0-2.306 0-0.2 0-0.406-0.036-0.61-0.094-0.703-0.2-1.287-0.784-1.486-1.487-0.318-1.118 0.18-2.233 1.212-2.711 0.619-0.287 0.949-0.971 0.802-1.664-0.089-0.418-0.124-0.85-0.104-1.283 0.117-2.5 2.245-4.632 4.744-4.754 2.206-0.106 4.178 1.202 4.939 3.257 0.25 0.674 0.81 1.171 1.536 1.365 1.973 0.53 3.143 2.527 2.665 4.547-0.315 1.328-1.376 2.393-2.701 2.712-0.336 0.081-0.676 0.113-1.006 0.112l-0.68-6e-3h-4e-3c-0.274 0-0.498 0.221-0.5 0.496s0.22 0.502 0.496 0.504l0.674 6e-3c0.414 0 0.834-0.04 1.253-0.14 1.688-0.406 3.039-1.763 3.44-3.454 0.604-2.549-0.88-5.071-3.379-5.745z" />
</svg>