<svg id="ticket_airline_Layer_1" viewBox="0 0 24 24" fill="currentColor" width="32" height="32" data-name="Layer 1" xmlns="http://www.w3.org/2000/svg" xmlns:xlink="http://www.w3.org/1999/xlink">
    <title>ticket-airline</title>
    <path d="M23.5 9.5C23.776 9.5 24 9.276 24 9V7.5C24 5.019 21.981 3 19.5 3h-15C2.019 3 0 5.019 0 7.5v9C0 18.981 2.019 21 4.5 21h15c2.481 0 4.5-2.019 4.5-4.5V15c0-0.276-0.224-0.5-0.5-0.5-1.379 0-2.5-1.121-2.5-2.5s1.121-2.5 2.5-2.5zM20 12c0 1.76 1.306 3.221 3 3.465V16.5c0 1.93-1.57 3.5-3.5 3.5h-15C2.57 20 1 18.43 1 16.5v-9C1 5.57 2.57 4 4.5 4h15C21.43 4 23 5.57 23 7.5v1.035C21.306 8.779 20 10.24 20 12zM15.5 10.5h-1.26l-1.729-2.16c-0.282-0.518-0.824-0.84-1.415-0.84h-0.298c-0.346 0-0.668 0.171-0.862 0.456-0.194 0.286-0.234 0.648-0.107 0.97L10.45 10.5h-0.352L9.186 9.875C8.618 9.307 7.58 9.443 7.174 10.138c-0.231 0.398-0.233 0.876 0.048 1.352l1.097 1.3c0.381 0.452 0.938 0.711 1.528 0.711h0.59L9.823 15.08c-0.125 0.32-0.084 0.682 0.11 0.967 0.194 0.284 0.517 0.454 0.861 0.454h0.319c0.59 0 1.132-0.321 1.368-0.77l1.761-2.23H15.5c0.827 0 1.5-0.673 1.5-1.5s-0.673-1.5-1.5-1.501zM15.5 12.5H14c-0.153 0-0.298 0.07-0.393 0.19l-1.957 2.49c-0.107 0.197-0.313 0.319-0.537 0.319l-0.359-0.058 0.879-2.261c0.06-0.154 0.04-0.328-0.053-0.464-0.094-0.137-0.248-0.218-0.413-0.218h-1.32c-0.295 0-0.573-0.13-0.765-0.355l-1.044-1.226c-0.072-0.126-0.023-0.237 0-0.279s0.097-0.14 0.242-0.14c0.073 0 0.146 0.03 0.266 0.139l1.11 0.771c0.084 0.059 0.184 0.09 0.285 0.09h1.241c0.165 0 0.32-0.082 0.413-0.219 0.094-0.137 0.112-0.311 0.052-0.465l-0.851-2.316h0.298c0.225 0 0.43 0.122 0.585 0.391l1.929 2.421c0.095 0.119 0.238 0.188 0.391 0.188h1.5c0.275 0 0.5 0.225 0.5 0.5s-0.225 0.5-0.499 0.502zM5 5.5v1C5 6.776 4.776 7 4.5 7S4 6.776 4 6.5v-1C4 5.224 4.224 5 4.5 5S5 5.224 5 5.5zM5 9.5v1C5 10.776 4.776 11 4.5 11S4 10.776 4 10.5v-1C4 9.224 4.224 9 4.5 9S5 9.224 5 9.5zM5 13.5v1C5 14.776 4.776 15 4.5 15S4 14.776 4 14.5v-1C4 13.224 4.224 13 4.5 13S5 13.224 5 13.5zM5 17.5v1C5 18.776 4.776 19 4.5 19S4 18.776 4 18.5v-1C4 17.224 4.224 17 4.5 17S5 17.224 5 17.5z" />
</svg>