<svg id="tickets_airline_Layer_1" viewBox="0 0 24 24" fill="currentColor" width="32" height="32" data-name="Layer 1" xmlns="http://www.w3.org/2000/svg" xmlns:xlink="http://www.w3.org/1999/xlink">
    <title>tickets-airline</title>
    <path d="M23.5 7.981c0.276 0 0.5-0.224 0.5-0.5V6.5C24 4.019 21.981 2 19.5 2h-12C5.019 2 3 4.019 3 6.5v8C3 16.981 5.019 19 7.5 19h12c2.481 0 4.5-2.019 4.5-4.5v-1.019c0-0.276-0.224-0.5-0.5-0.5-1.378 0-2.5-1.121-2.5-2.5s1.122-2.5 2.5-2.5zM20 10.481c0 1.76 1.306 3.221 3 3.465V14.5c0 1.93-1.57 3.5-3.5 3.5h-12C5.57 18 4 16.43 4 14.5v-8C4 4.57 5.57 3 7.5 3h12C21.43 3 23 4.57 23 6.5v0.517c-1.694 0.244-3 1.705-3 3.464zM19 21.5c0 0.276-0.224 0.5-0.5 0.5h-11C3.364 22 0 18.636 0 14.5v-8C0 6.224 0.224 6 0.5 6S1 6.224 1 6.5v8C1 18.084 3.916 21 7.5 21h11c0.276 0 0.5 0.224 0.5 0.5zM15.5 9h-1.26l-1.729-2.16C12.229 6.322 11.687 6 11.096 6h-0.117c-0.346 0-0.668 0.171-0.862 0.456-0.194 0.286-0.234 0.648-0.108 0.97L10.63 9h-0.533L9.186 8.375C8.618 7.806 7.578 7.941 7.174 8.638 6.943 9.036 6.941 9.514 7.222 9.99l1.096 1.3c0.381 0.452 0.939 0.711 1.529 0.711h0.77l-0.614 1.579c-0.125 0.321-0.083 0.683 0.111 0.967s0.516 0.454 0.86 0.454h0.138c0.59 0 1.132-0.322 1.368-0.77l1.761-2.23h1.258c0.827 0 1.5-0.673 1.5-1.5S16.326 9.001 15.5 9zM15.5 11H14c-0.153 0-0.297 0.07-0.393 0.19l-1.958 2.491c-0.107 0.196-0.312 0.318-0.536 0.318l-0.178-0.058 0.879-2.261c0.06-0.154 0.04-0.328-0.053-0.464-0.093-0.137-0.248-0.218-0.413-0.218H9.847c-0.295 0-0.574-0.13-0.765-0.355L8.038 9.417c-0.072-0.127-0.023-0.238 0-0.279 0.024-0.042 0.096-0.14 0.242-0.14 0.075 0 0.146 0.029 0.267 0.139l1.11 0.771c0.083 0.059 0.183 0.09 0.285 0.09h1.423c0.166 0 0.32-0.082 0.414-0.219 0.093-0.137 0.112-0.311 0.052-0.465L10.98 6.998h0.117c0.224 0 0.429 0.122 0.584 0.391L13.61 9.81c0.095 0.119 0.239 0.188 0.391 0.188h1.5c0.276 0 0.5 0.225 0.5 0.5S15.777 10.998 15.5 11z" />
</svg>