<svg id="ticket_Outline" viewBox="0 0 24 24" fill="currentColor" width="32" height="32" xmlns="http://www.w3.org/2000/svg" xmlns:xlink="http://www.w3.org/1999/xlink">
    <title>ticket</title>
    <path d="M16.5 0H15c-0.276 0-0.5 0.224-0.5 0.5 0 1.378-1.122 2.5-2.5 2.5S9.5 1.878 9.5 0.5C9.5 0.224 9.276 0 9 0H7.5C5.019 0 3 2.019 3 4.5v15C3 21.981 5.019 24 7.5 24H9c0.276 0 0.5-0.224 0.5-0.5 0-1.378 1.122-2.5 2.5-2.5s2.5 1.122 2.5 2.5c0 0.276 0.224 0.5 0.5 0.5h1.5c2.481 0 4.5-2.019 4.5-4.5v-15C21 2.019 18.981 0 16.5 0zM20 19.5c0 1.93-1.57 3.5-3.5 3.5h-1.036c-0.243-1.694-1.704-3-3.464-3s-3.221 1.306-3.464 3H7.5C5.57 23 4 21.43 4 19.5v-15C4 2.57 5.57 1 7.5 1h1.036C8.779 2.694 10.24 4 12 4s3.221-1.306 3.464-3H16.5C18.43 1 20 2.57 20 4.5zM7 16.5C7 16.776 6.776 17 6.5 17h-1C5.224 17 5 16.776 5 16.5S5.224 16 5.5 16h1C6.776 16 7 16.224 7 16.5zM11 16.5c0 0.276-0.224 0.5-0.5 0.5h-1C9.224 17 9 16.776 9 16.5S9.224 16 9.5 16h1c0.276 0 0.5 0.224 0.5 0.5zM15 16.5c0 0.276-0.224 0.5-0.5 0.5h-1c-0.276 0-0.5-0.224-0.5-0.5s0.224-0.5 0.5-0.5h1c0.276 0 0.5 0.224 0.5 0.5zM19 16.5c0 0.276-0.224 0.5-0.5 0.5h-1c-0.276 0-0.5-0.224-0.5-0.5s0.224-0.5 0.5-0.5h1c0.276 0 0.5 0.224 0.5 0.5z" />
</svg>