<svg id="tie_Layer_1" viewBox="0 0 24 24" fill="currentColor" width="32" height="32" data-name="Layer 1" xmlns="http://www.w3.org/2000/svg" xmlns:xlink="http://www.w3.org/1999/xlink">
    <title>tie</title>
    <path d="M16.851 17.267 14.022 4.542 14.91 2.316C15.09 1.772 15 1.194 14.664 0.73 14.329 0.266 13.808 0 13.235 0h-2.471C10.191 0 9.67 0.266 9.335 0.73S8.91 1.772 9.1 2.345l0.878 2.197-2.815 12.675c-0.398 1.194-0.054 2.512 0.877 3.36l3.623 3.293c0.095 0.086 0.216 0.13 0.336 0.13s0.241-0.043 0.336-0.13l3.623-3.293c0.931-0.847 1.276-2.166 0.893-3.31zM10.146 1.316C10.292 1.115 10.517 1 10.765 1h2.471c0.248 0 0.474 0.115 0.619 0.316s0.184 0.451 0.117 0.657l-0.81 2.026h-2.323L10.04 2.001c-0.077-0.235-0.039-0.485 0.106-0.685zM15.287 19.837l-3.286 2.987-3.286-2.987c-0.639-0.581-0.875-1.485-0.588-2.354l2.775-12.484H13.1l2.789 12.534c0.273 0.818 0.037 1.723-0.602 2.304z" />
</svg>