<svg id="tiff_file_Layer_1" viewBox="0 0 24 24" fill="currentColor" width="32" height="32" data-name="Layer 1" xmlns="http://www.w3.org/2000/svg" xmlns:xlink="http://www.w3.org/1999/xlink">
    <title>tiff-file</title>
    <path d="M19 14v2.5h2.5c0.276 0 0.5 0.224 0.5 0.5s-0.224 0.5-0.5 0.5H19v3c0 0.276-0.224 0.5-0.5 0.5S18 20.776 18 20.5v-7c0-0.276 0.224-0.5 0.5-0.5h3c0.276 0 0.5 0.224 0.5 0.5S21.776 14 21.5 14zM16.5 14c0.276 0 0.5-0.224 0.5-0.5S16.776 13 16.5 13h-3c-0.276 0-0.5 0.224-0.5 0.5v7c0 0.276 0.224 0.5 0.5 0.5s0.5-0.224 0.5-0.5v-3h2.5c0.276 0 0.5-0.224 0.5-0.5s-0.224-0.5-0.5-0.5H14V14zM11 13.5v7c0 0.276 0.224 0.5 0.5 0.5s0.5-0.224 0.5-0.5v-7c0-0.276-0.224-0.5-0.5-0.5S11 13.224 11 13.5zM10 13.5c0-0.276-0.224-0.5-0.5-0.5h-4C5.224 13 5 13.224 5 13.5S5.224 14 5.5 14h1.501l0.016 6.501c0 0.276 0.225 0.499 0.5 0.499h1e-3c0.276 0 0.499-0.226 0.499-0.501L8.001 14H9.5c0.276 0 0.5-0.224 0.5-0.5zM22 9.985V10.5c0 0.276-0.224 0.5-0.5 0.5S21 10.776 21 10.5V9.985C21 9.65 20.962 9.322 20.904 9H15.5C14.122 9 13 7.879 13 6.5V1.096C12.677 1.038 12.349 1 12.015 1H6.5C4.57 1 3 2.57 3 4.5v15C3 21.43 4.57 23 6.5 23h11c0.616 0 1.221-0.162 1.75-0.468 0.238-0.138 0.545-0.057 0.683 0.182 0.139 0.239 0.057 0.545-0.182 0.684-0.68 0.395-1.458 0.603-2.25 0.603H6.5c-2.481 0-4.5-2.019-4.5-4.5V4.5C2 2.019 4.019 0 6.5 0h5.515c1.737 0 3.369 0.677 4.596 1.904l3.485 3.484C21.324 6.617 22 8.249 22 9.985zM20.62 8c-0.273-0.704-0.682-1.354-1.231-1.904l-3.485-3.484C15.354 2.062 14.705 1.653 14 1.38V6.5C14 7.327 14.673 8 15.5 8z" />
</svg>