<svg id="time_forward_ten_Layer_1" viewBox="0 0 24 24" fill="currentColor" width="32" height="32" data-name="Layer 1" xmlns="http://www.w3.org/2000/svg" xmlns:xlink="http://www.w3.org/1999/xlink">
    <title>time-forward-ten</title>
    <path d="M17 16.5v7c0 0.276-0.224 0.5-0.5 0.5S16 23.776 16 23.5v-5.793l-1.146 1.146c-0.195 0.195-0.512 0.195-0.707 0s-0.195-0.512 0-0.707l2-2c0.143-0.143 0.357-0.186 0.545-0.108 0.187 0.077 0.309 0.26 0.308 0.462zM23.5 2.5C23.224 2.5 23 2.724 23 3v4.216C21.109 2.876 16.773 0 12 0 5.383 0 0 5.383 0 12s5.357 11.974 11.952 12h0.058c0.563-2e-3 1.127-0.044 1.677-0.124 0.273-0.04 0.462-0.293 0.423-0.566s-0.291-0.472-0.566-0.423c-0.512 0.074-1.038 0.112-1.562 0.113-6.057-0.01-10.981-4.941-10.981-11S5.935 1 12 1c4.515 0 8.605 2.807 10.244 7H18c-0.276 0-0.5 0.224-0.5 0.5S17.724 9 18 9h4.5C23.327 9 24 8.327 24 7.5V3c0-0.276-0.224-0.5-0.5-0.5zM24 18.5v3c0 1.378-1.122 2.5-2.5 2.5S19 22.878 19 21.5v-3c0-1.378 1.122-2.5 2.5-2.5s2.5 1.122 2.5 2.5zM23 18.5c0-0.827-0.673-1.5-1.5-1.5S20 17.673 20 18.5v3c0 0.827 0.673 1.5 1.5 1.5s1.5-0.673 1.5-1.5zM12 5.5V12H6.5C6.224 12 6 12.224 6 12.5S6.224 13 6.5 13h6c0.276 0 0.5-0.224 0.5-0.5v-7C13 5.224 12.776 5 12.5 5S12 5.224 12 5.5z" />
</svg>