<svg id="time_watch_calendar_Layer_1" viewBox="0 0 24 24" fill="currentColor" width="32" height="32" data-name="Layer 1" xmlns="http://www.w3.org/2000/svg" xmlns:xlink="http://www.w3.org/1999/xlink">
    <title>time-watch-calendar</title>
    <path d="M9.992 22.409c-0.045 0.241-0.255 0.41-0.491 0.41-0.03 0-0.061-2e-3-0.092-8e-3C3.957 21.809 0 17.052 0 11.5 0 5.159 5.159 0 11.5 0c5.552 0 10.309 3.958 11.311 9.41 0.05 0.271-0.13 0.532-0.402 0.582-0.267 0.051-0.531-0.129-0.582-0.401-0.914-4.978-5.257-8.59-10.326-8.59C5.71 1 1 5.71 1 11.5c0 5.069 3.612 9.413 8.591 10.327 0.271 0.05 0.451 0.311 0.401 0.582zM12 5.5C12 5.224 11.776 5 11.5 5S11 5.224 11 5.5v5.706l-3.743 2.08c-0.241 0.134-0.328 0.438-0.194 0.68 0.092 0.165 0.263 0.257 0.438 0.257 0.083 0 0.166-0.02 0.243-0.063l4-2.222c0.158-0.088 0.257-0.255 0.257-0.437zM24 17v4c0 1.654-1.346 3-3 3h-6c-1.654 0-3-1.346-3-3v-4c0-1.302 0.839-2.402 2-2.816V12.5c0-0.276 0.224-0.5 0.5-0.5s0.5 0.224 0.5 0.5V14h6v-1.5c0-0.276 0.224-0.5 0.5-0.5s0.5 0.224 0.5 0.5v1.684c1.161 0.414 2 1.514 2 2.816zM23 18H13v3c0 1.103 0.897 2 2 2h6c1.103 0 2-0.897 2-2zM23 17c0-1.103-0.897-2-2-2h-6c-1.103 0-2 0.897-2 2z" />
</svg>