<svg id="time_delete_Layer_1" viewBox="0 0 24 24" fill="currentColor" width="32" height="32" data-name="Layer 1" xmlns="http://www.w3.org/2000/svg" xmlns:xlink="http://www.w3.org/1999/xlink">
    <title>time-delete</title>
    <path d="M23.854 16.854 20.708 20l3.146 3.146c0.195 0.195 0.195 0.512 0 0.707-0.098 0.098-0.226 0.146-0.354 0.146s-0.256-0.049-0.354-0.146L20 20.707l-3.146 3.146c-0.098 0.098-0.226 0.146-0.354 0.146s-0.256-0.049-0.354-0.146c-0.195-0.195-0.195-0.512 0-0.707L19.292 20l-3.146-3.146c-0.195-0.195-0.195-0.512 0-0.707s0.512-0.195 0.707 0l3.146 3.146 3.146-3.146c0.195-0.195 0.512-0.195 0.707 0s0.195 0.512 2e-3 0.707zM11 6.5v5.223l-3.765 2.354c-0.234 0.146-0.305 0.455-0.159 0.688C7.171 14.917 7.334 15 7.5 15c0.09 0 0.182-0.024 0.265-0.076l4-2.5C11.911 12.333 12 12.173 12 12V6.5C12 6.224 11.776 6 11.5 6S11 6.224 11 6.5zM13.436 22.907C12.961 22.969 12.478 23 12 23 5.935 23 1 18.065 1 12S5.935 1 12 1 23 5.935 23 12c0 0.479-0.031 0.962-0.093 1.436-0.036 0.273 0.157 0.524 0.431 0.561 0.271 0.037 0.524-0.158 0.56-0.432C23.965 13.048 24 12.522 24 12.001 24 5.383 18.617 0 12 0S0 5.383 0 12 5.383 24 12 24c0.521 0 1.047-0.034 1.564-0.101 0.274-0.036 0.467-0.286 0.432-0.561-0.036-0.273-0.286-0.473-0.56-0.431z" />
</svg>