<svg id="time_forward_sixty_Layer_1" viewBox="0 0 24 24" fill="currentColor" width="32" height="32" data-name="Layer 1" xmlns="http://www.w3.org/2000/svg" xmlns:xlink="http://www.w3.org/1999/xlink">
    <title>time-forward-sixty</title>
    <path d="M14.5 19c-0.565 0-1.081 0.195-1.5 0.513V18.5c0-0.827 0.673-1.5 1.5-1.5 0.431 0 0.841 0.186 1.125 0.509 0.183 0.207 0.499 0.227 0.706 0.044s0.227-0.498 0.044-0.706C15.9 16.309 15.217 16 14.5 16c-1.378 0-2.5 1.121-2.5 2.5v3c0 1.379 1.122 2.5 2.5 2.5s2.5-1.121 2.5-2.5-1.122-2.5-2.5-2.5zM14.5 23c-0.827 0-1.5-0.673-1.5-1.5s0.673-1.5 1.5-1.5 1.5 0.673 1.5 1.5-0.673 1.5-1.5 1.5zM21.5 16c-1.378 0-2.5 1.121-2.5 2.5v3c0 1.379 1.122 2.5 2.5 2.5s2.5-1.121 2.5-2.5v-3c0-1.379-1.122-2.5-2.5-2.5zM23 21.5c0 0.827-0.673 1.5-1.5 1.5S20 22.327 20 21.5v-3c0-0.827 0.673-1.5 1.5-1.5s1.5 0.673 1.5 1.5zM24 3v4.5C24 8.327 23.327 9 22.5 9H18c-0.276 0-0.5-0.224-0.5-0.5S17.724 8 18 8h4.244C20.605 3.807 16.515 1 12 1 5.935 1 1 5.935 1 12c0 5.117 3.62 9.634 8.608 10.739 0.27 0.06 0.439 0.327 0.38 0.597-0.052 0.233-0.258 0.392-0.488 0.392-0.036 0-0.072-4e-3-0.109-0.012C3.95 22.509 0 17.582 0 12 0 5.383 5.383 0 12 0c4.773 0 9.109 2.876 11 7.216V3c0-0.276 0.224-0.5 0.5-0.5S24 2.724 24 3zM12.5 13h-6C6.224 13 6 12.776 6 12.5S6.224 12 6.5 12H12V5.5C12 5.224 12.224 5 12.5 5S13 5.224 13 5.5v7c0 0.276-0.224 0.5-0.5 0.5z" />
</svg>