<svg id="time_add_Layer_1" viewBox="0 0 24 24" fill="currentColor" width="32" height="32" data-name="Layer 1" xmlns="http://www.w3.org/2000/svg" xmlns:xlink="http://www.w3.org/1999/xlink">
    <title>time-add</title>
    <path d="M24 19.5c0 0.276-0.224 0.5-0.5 0.5H20v3.5c0 0.276-0.224 0.5-0.5 0.5S19 23.776 19 23.5V20h-3.5c-0.276 0-0.5-0.224-0.5-0.5s0.224-0.5 0.5-0.5H19v-3.5c0-0.276 0.224-0.5 0.5-0.5s0.5 0.224 0.5 0.5V19h3.5c0.276 0 0.5 0.224 0.5 0.5zM15.348 22.481C14.268 22.825 13.142 23 12 23 5.935 23 1 18.065 1 12S5.935 1 12 1 23 5.935 23 12c0 1.144-0.174 2.271-0.519 3.348-0.084 0.264 0.061 0.545 0.324 0.629 0.265 0.081 0.544-0.062 0.628-0.324 0.376-1.176 0.566-2.405 0.566-3.652C24 5.383 18.617 0 12 0S0 5.383 0 12 5.383 24 12 24c1.245 0 2.474-0.19 3.652-0.565 0.263-0.084 0.408-0.365 0.325-0.628-0.084-0.264-0.366-0.408-0.629-0.326zM11 6.5v5.223l-3.765 2.354c-0.234 0.146-0.305 0.455-0.159 0.688C7.171 14.917 7.334 15 7.5 15c0.09 0 0.182-0.024 0.265-0.076l4-2.5C11.911 12.333 12 12.173 12 12V6.5C12 6.224 11.776 6 11.5 6S11 6.224 11 6.5z" />
</svg>