<svg id="time_past_Layer_1" viewBox="0 0 24 24" fill="currentColor" width="32" height="32" data-name="Layer 1" xmlns="http://www.w3.org/2000/svg" xmlns:xlink="http://www.w3.org/1999/xlink">
    <title>time-past</title>
    <path d="M12 0C7.96 0 4.211 2.066 2 5.413V0.5C2 0.224 1.776 0 1.5 0S1 0.224 1 0.5v5C1 6.327 1.673 7 2.5 7h5C7.776 7 8 6.776 8 6.5S7.776 6 7.5 6H2.808C4.831 2.909 8.282 1 12 1c6.065 0 11 4.935 11 11s-4.935 11-11 11C6.09 23 1.263 18.379 1.011 12.479c-0.013-0.276-0.21-0.502-0.521-0.478-0.275 0.012-0.49 0.245-0.479 0.521C0.286 18.959 5.553 24.001 12 24.001c6.617 0 12-5.383 12-12S18.617 0 12 0z" />
    <path d="M11.5 6C11.224 6 11 6.224 11 6.5V12c0 0.133 0.053 0.26 0.146 0.354l3 3c0.098 0.098 0.226 0.146 0.354 0.146s0.256-0.049 0.354-0.146c0.195-0.195 0.195-0.512 0-0.707L12 11.793V6.5C12 6.224 11.776 6 11.5 6z" />
</svg>