<svg id="timeline_Layer_1" viewBox="0 0 24 24" fill="currentColor" width="32" height="32" data-name="Layer 1" xmlns="http://www.w3.org/2000/svg" xmlns:xlink="http://www.w3.org/1999/xlink">
    <title>timeline</title>
    <path d="M23.5 11.5H19V6.949c1.692-0.245 3-1.691 3-3.449 0-1.93-1.57-3.5-3.5-3.5S15 1.57 15 3.5c0 1.758 1.308 3.204 3 3.449V11.5H6V6.949C7.692 6.704 9 5.258 9 3.5 9 1.57 7.43 0 5.5 0S2 1.57 2 3.5c0 1.758 1.308 3.204 3 3.449V11.5H0.5C0.224 11.5 0 11.724 0 12s0.224 0.5 0.5 0.5h11v4.551c-1.692 0.245-3 1.691-3 3.449 0 1.93 1.57 3.5 3.5 3.5s3.5-1.57 3.5-3.5c0-1.758-1.308-3.204-3-3.449V12.5h11c0.276 0 0.5-0.224 0.5-0.5s-0.224-0.5-0.5-0.5zM16 3.5C16 2.121 17.122 1 18.5 1S21 2.121 21 3.5 19.878 6 18.5 6 16 4.879 16 3.5zM3 3.5C3 2.121 4.122 1 5.5 1S8 2.121 8 3.5 6.878 6 5.5 6 3 4.879 3 3.5zM14.5 20.5c0 1.379-1.122 2.5-2.5 2.5s-2.5-1.121-2.5-2.5S10.622 18 12 18s2.5 1.121 2.5 2.5z" />
</svg>