<svg id="time_check_Layer_1" viewBox="0 0 24 24" fill="currentColor" width="32" height="32" data-name="Layer 1" xmlns="http://www.w3.org/2000/svg" xmlns:xlink="http://www.w3.org/1999/xlink">
    <title>time-check</title>
    <path d="M12 1C5.935 1 1 5.935 1 12c0 5.91 4.622 10.737 10.521 10.989 0.276 0.013 0.49 0.245 0.478 0.521-0.011 0.269-0.233 0.479-0.499 0.479h-0.022C5.041 23.714-1e-3 18.447-1e-3 12 0 5.383 5.383 0 12 0s12 5.383 12 12c0 0.881-0.096 1.759-0.284 2.608-0.06 0.27-0.324 0.439-0.597 0.38-0.27-0.06-0.439-0.327-0.38-0.597C22.912 13.613 23 12.808 23 11.999 23 5.934 18.065 0.999 12 1zM11.5 6.023c-0.276 0-0.5 0.224-0.5 0.5v5.199l-3.765 2.354c-0.234 0.146-0.305 0.455-0.159 0.688 0.095 0.152 0.258 0.235 0.424 0.235 0.09 0 0.182-0.024 0.265-0.076l4-2.5C11.911 12.332 12 12.172 12 11.999V6.522c0-0.276-0.224-0.5-0.5-0.499zM23.926 17.069c-0.199-0.193-0.517-0.186-0.706 0.015l-5.234 5.454c-0.28 0.292-0.658 0.456-1.062 0.462h-0.021c-0.396 0-0.771-0.153-1.053-0.432l-2.728-2.692c-0.197-0.194-0.513-0.192-0.708 4e-3-0.194 0.197-0.192 0.514 5e-3 0.707l2.727 2.692C15.618 23.745 16.24 24 16.902 24h0.035c0.674-0.01 1.303-0.282 1.77-0.77l5.234-5.455c0.191-0.199 0.186-0.516-0.015-0.706z" />
</svg>