<svg id="time_quarter_past_Layer_1" viewBox="0 0 24 24" fill="currentColor" width="32" height="32" data-name="Layer 1" xmlns="http://www.w3.org/2000/svg" xmlns:xlink="http://www.w3.org/1999/xlink">
    <title>time-quarter-past</title>
    <path d="M4.319 3.427c0.193 0.198 0.189 0.514-8e-3 0.707-0.448 0.438-0.862 0.917-1.229 1.425-0.098 0.135-0.25 0.207-0.406 0.207-0.102 0-0.204-0.031-0.292-0.095C2.16 5.509 2.11 5.196 2.272 4.973c0.4-0.553 0.851-1.076 1.34-1.554 0.199-0.193 0.516-0.188 0.707 8e-3zM0.624 10.231c0.033 7e-3 0.066 0.01 0.098 0.01 0.233 0 0.442-0.165 0.49-0.402 0.123-0.614 0.299-1.222 0.525-1.806 0.1-0.257-0.028-0.547-0.286-0.646-0.256-0.099-0.547 0.029-0.646 0.286-0.247 0.637-0.439 1.3-0.573 1.971-0.054 0.271 0.122 0.534 0.392 0.587zM6.873 21.734C6.32 21.442 5.788 21.1 5.29 20.717c-0.22-0.17-0.532-0.128-0.701 0.091-0.168 0.219-0.128 0.533 0.091 0.701 0.542 0.418 1.123 0.792 1.726 1.11 0.075 0.039 0.154 0.058 0.233 0.058 0.18 0 0.353-0.097 0.443-0.267 0.129-0.244 0.035-0.547-0.209-0.676zM1.019 12.65c-0.016-0.276-0.251-0.485-0.528-0.47-0.276 0.016-0.486 0.252-0.47 0.528 0.04 0.684 0.139 1.367 0.293 2.03 0.054 0.23 0.259 0.386 0.486 0.386 0.038 0 0.076-4e-3 0.114-0.013 0.269-0.062 0.436-0.332 0.373-0.601-0.142-0.607-0.232-1.233-0.268-1.86zM2.276 17.147c-0.13-0.244-0.433-0.337-0.676-0.208-0.244 0.129-0.337 0.432-0.208 0.676 0.319 0.602 0.694 1.182 1.113 1.723 0.099 0.127 0.247 0.194 0.396 0.194 0.107 0 0.214-0.034 0.306-0.104 0.218-0.169 0.258-0.483 0.089-0.702-0.384-0.496-0.728-1.028-1.02-1.579zM7.928 0.708C7.287 0.939 6.66 1.228 6.065 1.567 5.825 1.704 5.741 2.009 5.878 2.249 5.97 2.411 6.139 2.501 6.313 2.501c0.084 0 0.169-0.021 0.247-0.065 0.546-0.312 1.12-0.576 1.707-0.787 0.26-0.094 0.395-0.38 0.301-0.64s-0.38-0.395-0.64-0.301zM22.997 15.409c-0.26-0.094-0.545 0.043-0.639 0.302-0.211 0.588-0.475 1.164-0.784 1.708-0.137 0.24-0.053 0.545 0.188 0.682 0.078 0.044 0.163 0.065 0.247 0.065 0.174 0 0.343-0.091 0.435-0.253 0.339-0.595 0.627-1.223 0.856-1.866 0.093-0.26-0.042-0.546-0.303-0.638zM11.373 22.982c-0.628-0.035-1.254-0.125-1.861-0.265-0.268-0.061-0.537 0.106-0.6 0.375-0.062 0.269 0.105 0.538 0.375 0.6 0.663 0.153 1.346 0.25 2.031 0.289 9e-3 0 0.019 0 0.028 0 0.263 0 0.484-0.206 0.499-0.472 0.016-0.276-0.195-0.512-0.472-0.527zM19.882 19.673c-0.436 0.448-0.914 0.862-1.421 1.231-0.224 0.163-0.272 0.475-0.11 0.699 0.098 0.134 0.25 0.206 0.404 0.206 0.103 0 0.205-0.031 0.294-0.096 0.553-0.402 1.074-0.854 1.55-1.343 0.192-0.198 0.188-0.515-0.01-0.707-0.196-0.191-0.515-0.188-0.707 0.01zM23.968 11.841C23.637 5.439 18.547 0.311 12.08 0.016c-0.027-5e-3-0.779 0-1.122 0.029-0.275 0.023-0.479 0.266-0.455 0.541 0.022 0.26 0.241 0.457 0.498 0.457 0.014 0 0.029 0 0.043-2e-3 0.298-0.025 0.925-0.032 0.936-0.031 6.101 0.25 10.888 5.175 11.009 11.256-5e-3 0.231-0.01 0.463-0.03 0.691-0.023 0.275 0.18 0.518 0.455 0.541 0.015 1e-3 0.029 2e-3 0.044 2e-3 0.257 0 0.475-0.197 0.497-0.457 0.011-0.134 0.045-0.542 0.013-1.202zM18 12c0 0.276-0.224 0.5-0.5 0.5h-3.571c-0.224 0.86-1 1.5-1.929 1.5-1.103 0-2-0.897-2-2 0-0.929 0.64-1.705 1.5-1.929V5.5C11.5 5.224 11.724 5 12 5s0.5 0.224 0.5 0.5v4.571c0.699 0.182 1.247 0.73 1.429 1.429H17.5c0.276 0 0.5 0.224 0.5 0.5zM13 12c0-0.551-0.449-1-1-1s-1 0.449-1 1 0.449 1 1 1 1-0.449 1-1zM15.988 22.255c-0.583 0.227-1.19 0.405-1.805 0.529-0.271 0.055-0.446 0.318-0.392 0.589 0.048 0.238 0.257 0.401 0.489 0.401 0.033 0 0.066-3e-3 0.1-0.01 0.671-0.135 1.334-0.33 1.971-0.578 0.257-0.1 0.385-0.39 0.284-0.647-0.101-0.258-0.391-0.384-0.647-0.284z" />
</svg>