<svg id="time_twenty_four_Layer_1" viewBox="0 0 24 24" fill="currentColor" width="32" height="32" data-name="Layer 1" xmlns="http://www.w3.org/2000/svg" xmlns:xlink="http://www.w3.org/1999/xlink">
    <title>time-twenty-four</title>
    <path d="M17 23.5c0 0.276-0.224 0.5-0.5 0.5h-3.273c-0.475 0-0.898-0.268-1.106-0.699-0.201-0.417-0.147-0.899 0.138-1.257 0.444-0.555 1.134-1.029 1.802-1.487 0.941-0.646 1.914-1.314 1.914-2.031 0-0.827-0.673-1.5-1.5-1.5s-1.5 0.673-1.5 1.5c0 0.276-0.224 0.5-0.5 0.5s-0.5-0.224-0.5-0.5c0-1.378 1.122-2.5 2.5-2.5s2.5 1.122 2.5 2.5c0 1.243-1.193 2.062-2.347 2.855-0.607 0.417-1.235 0.848-1.587 1.288-0.059 0.073-0.042 0.148-0.018 0.199C13.038 22.899 13.097 23 13.228 23h3.273c0.276 0 0.5 0.224 0.499 0.5zM23.5 16c-0.276 0-0.5 0.224-0.5 0.5v3.523L20.994 20C20.446 19.997 20 19.558 20 19.01V16.5c0-0.276-0.224-0.5-0.5-0.5S19 16.224 19 16.5v2.51c0 1.096 0.891 1.983 1.987 1.99L23 21.023V23.5c0 0.276 0.224 0.5 0.5 0.5s0.5-0.224 0.5-0.5v-7c0-0.276-0.224-0.5-0.5-0.5zM23.974 7.526v-4.5c0-0.276-0.224-0.5-0.5-0.5s-0.5 0.224-0.5 0.5v4.215c-1.892-4.34-6.227-7.215-11-7.215-6.605 0-11.979 5.365-11.998 11.965 0 3e-3-2e-3 6e-3-2e-3 9e-3 0 5e-3 0 9e-3 0 0.014 0 4e-3 0 8e-3 0 0.012 0 3e-3 1e-3 5e-3 1e-3 7e-3 0.016 5.581 3.97 10.494 9.417 11.688 0.036 8e-3 0.072 0.012 0.107 0.012 0.23 0 0.437-0.159 0.488-0.393 0.059-0.27-0.111-0.536-0.381-0.595-4.997-1.096-8.625-5.608-8.631-10.731 7e-3-6.06 4.938-10.988 10.999-10.988 4.516 0 8.605 2.807 10.245 7h-4.245c-0.276 0-0.5 0.224-0.5 0.5s0.224 0.5 0.5 0.5h4.5c0.827 0 1.5-0.673 1.5-1.5zM12.974 12.526v-7c0-0.276-0.224-0.5-0.5-0.5s-0.5 0.224-0.5 0.5v6.5h-5.5c-0.276 0-0.5 0.224-0.5 0.5s0.224 0.5 0.5 0.5h6c0.276 0 0.5-0.224 0.5-0.5z" />
</svg>