<svg id="time_fast_Layer_1" viewBox="0 0 24 24" fill="currentColor" width="32" height="32" data-name="Layer 1" xmlns="http://www.w3.org/2000/svg" xmlns:xlink="http://www.w3.org/1999/xlink">
    <title>time-fast</title>
    <path d="M10 23.5c0 0.276-0.224 0.5-0.5 0.5h-9C0.224 24 0 23.776 0 23.5S0.224 23 0.5 23h9c0.276 0 0.5 0.224 0.5 0.5zM0.5 20h7C7.776 20 8 19.776 8 19.5S7.776 19 7.5 19h-7C0.224 19 0 19.224 0 19.5S0.224 20 0.5 20zM0.5 16h5C5.776 16 6 15.776 6 15.5S5.776 15 5.5 15h-5C0.224 15 0 15.224 0 15.5S0.224 16 0.5 16zM12 0C5.383 0 0 5.383 0 12c0 0.175 3e-3 0.349 0.011 0.522 0.012 0.276 0.252 0.494 0.521 0.478 0.276-0.012 0.49-0.246 0.478-0.521C1.003 12.32 1 12.161 1 12.001 1 5.935 5.935 1 12 1s11 4.935 11 11c0 5.91-4.621 10.737-10.521 10.99-0.276 0.012-0.49 0.245-0.478 0.521 0.011 0.269 0.233 0.479 0.499 0.479 7e-3 0 0.015 0 0.022 0 6.437-0.275 11.479-5.542 11.479-11.989C24 5.383 18.617 0 12 0zM12.5 6C12.224 6 12 6.224 12 6.5v5.495c0 0.172 0.089 0.333 0.234 0.424l4 2.505C16.317 14.976 16.409 15 16.5 15c0.166 0 0.329-0.083 0.424-0.234 0.146-0.234 0.075-0.543-0.158-0.689L13 11.719V6.501c0-0.276-0.224-0.5-0.5-0.501z" />
</svg>