<svg id="time_oclock_Layer_1" viewBox="0 0 24 24" fill="currentColor" width="32" height="32" data-name="Layer 1" xmlns="http://www.w3.org/2000/svg" xmlns:xlink="http://www.w3.org/1999/xlink">
    <title>time-oclock</title>
    <path d="M12 0C5.383 0 0 5.383 0 12s5.383 12 12 12 12-5.383 12-12S18.617 0 12 0zM12 23C5.935 23 1 18.065 1 12S5.935 1 12 1 23 5.935 23 12 18.065 23 12 23zM12.5 10.071V5.205c0-0.276-0.224-0.5-0.5-0.5s-0.5 0.224-0.5 0.5v4.866c-0.86 0.224-1.5 1-1.5 1.929 0 1.103 0.897 2 2 2s2-0.897 2-2c0-0.929-0.64-1.705-1.5-1.929zM12 13c-0.552 0-1-0.449-1-1s0.448-1 1-1 1 0.449 1 1-0.448 1-1 1z" />
</svg>