<svg id="tint_slash_Layer_1" viewBox="0 0 24 24" fill="currentColor" width="32" height="32" data-name="Layer 1" xmlns="http://www.w3.org/2000/svg" xmlns:xlink="http://www.w3.org/1999/xlink">
    <title>tint-slash</title>
    <path d="M18.229 21.253c0.158 0.227 0.103 0.538-0.124 0.696C16.209 23.271 14.04 24 12 24c-2.7 0-5.66-1.349-7.918-3.606-2.103-2.104-3.083-4.416-3.083-7.276 0-1.763 0.761-3.753 2.262-5.916 0.157-0.227 0.469-0.281 0.696-0.126 0.227 0.158 0.283 0.47 0.125 0.696-1.382 1.992-2.083 3.79-2.083 5.346 0 2.613 0.86 4.64 2.79 6.569C6.863 21.762 9.559 23 12 23c1.838 0 3.803-0.664 5.533-1.871 0.228-0.157 0.539-0.103 0.696 0.124zM23.853 23.854C23.755 23.952 23.627 24 23.499 24s-0.256-0.049-0.354-0.146l-22.999-23c-0.195-0.196-0.195-0.512 0-0.708s0.512-0.195 0.708 0L5.33 4.622c1.334-1.475 2.712-2.718 3.653-3.516 1.747-1.484 4.286-1.484 6.035 0C17.999 3.635 23 8.559 23 13.115c0 2.538-0.819 4.723-2.503 6.675l3.357 3.357c0.195 0.195 0.195 0.512-1e-3 0.707zM6.037 5.33 19.788 19.081c1.488-1.749 2.211-3.702 2.211-5.966 0-4.308-5.335-9.3-7.629-11.247-1.373-1.166-3.368-1.166-4.741 0C8.703 2.654 7.345 3.879 6.037 5.33z" />
</svg>