<svg id="tip_coin_Layer_1" viewBox="0 0 24 24" fill="currentColor" width="32" height="32" data-name="Layer 1" xmlns="http://www.w3.org/2000/svg" xmlns:xlink="http://www.w3.org/1999/xlink">
    <title>tip-coin</title>
    <path d="M10.5 23h-6C2.57 23 1 21.43 1 19.5v-4C1 13.57 2.57 12 4.5 12h6c1.246 0 2.408 0.671 3.032 1.75 0.092 0.16 0.26 0.25 0.433 0.25 0.085 0 0.171-0.021 0.25-0.067 0.239-0.138 0.321-0.444 0.182-0.683-0.349-0.604-0.834-1.101-1.397-1.478V10c0-0.835-0.516-1.551-1.245-1.85C11.91 7.786 12 7.399 12 7c0-1.654-1.346-3-3-3S6 5.346 6 7c0 0.344 0.064 0.68 0.18 1H4c-1.103 0-2 0.897-2 2v1.762C0.795 12.57 0 13.944 0 15.5v4C0 21.981 2.019 24 4.5 24h6c0.276 0 0.5-0.224 0.5-0.5S10.776 23 10.5 23zM7 7c0-1.103 0.897-2 2-2s2 0.897 2 2c0 0.352-0.095 0.692-0.277 1H7.277C7.095 7.692 7 7.352 7 7zM4 9h7c0.551 0 1 0.448 1 1v1H3v-1c0-0.552 0.449-1 1-1zM16 0c-1.654 0-3 1.346-3 3s1.346 3 3 3 3-1.346 3-3-1.346-3-3-3zM16 5c-1.103 0-2-0.897-2-2s0.897-2 2-2 2 0.897 2 2-0.897 2-2 2zM18 16.5v7c0 0.276-0.224 0.5-0.5 0.5S17 23.776 17 23.5v-7c0-0.276 0.224-0.5 0.5-0.5s0.5 0.224 0.5 0.5zM21.5 16H20c-0.551 0-1 0.448-1 1v6.5c0 0.276 0.224 0.5 0.5 0.5s0.5-0.224 0.5-0.5V21h1.5c1.378 0 2.5-1.121 2.5-2.5S22.878 16 21.5 16zM21.5 20H20v-3h1.5c0.827 0 1.5 0.673 1.5 1.5S22.327 20 21.5 20zM16 16.5c0 0.276-0.224 0.5-0.5 0.5H14v6.5c0 0.276-0.224 0.5-0.5 0.5S13 23.776 13 23.5V17h-1.5c-0.276 0-0.5-0.224-0.5-0.5s0.224-0.5 0.5-0.5h4c0.276 0 0.5 0.224 0.5 0.5z" />
</svg>