<svg id="tip_button_hand_Layer_1" viewBox="0 0 24 24" fill="currentColor" width="32" height="32" data-name="Layer 1" xmlns="http://www.w3.org/2000/svg" xmlns:xlink="http://www.w3.org/1999/xlink">
    <title>tip-button-hand</title>
    <path d="M24 4.5v4c0 2.481-2.019 4.5-4.5 4.5h-5c-0.276 0-0.5-0.224-0.5-0.5s0.224-0.5 0.5-0.5h5c1.93 0 3.5-1.57 3.5-3.5v-4C23 2.57 21.43 1 19.5 1h-15C2.57 1 1 2.57 1 4.5v4C1 10.43 2.57 12 4.5 12 4.776 12 5 12.224 5 12.5S4.776 13 4.5 13C2.019 13 0 10.981 0 8.5v-4C0 2.019 2.019 0 4.5 0h15C21.981 0 24 2.019 24 4.5zM18.5 3.846c0.476 0 1.002 0.379 1.165 0.525 0.206 0.185 0.521 0.167 0.705-0.036 0.185-0.205 0.17-0.52-0.034-0.705-0.088-0.08-0.89-0.784-1.836-0.784-1.006 0-2.075 0.672-2.075 1.917 0 1.197 1.112 1.713 2.007 2.128 0.901 0.418 1.448 0.712 1.448 1.253 0 0.792-0.776 1.003-1.234 1.003-0.776 0-1.286-0.494-1.288-0.496-0.193-0.198-0.51-0.2-0.707-8e-3-0.197 0.193-0.201 0.511-8e-3 0.707 0.032 0.033 0.795 0.797 2.003 0.797 1.11 0 2.234-0.688 2.234-2.003 0-1.219-1.124-1.74-2.027-2.16-0.889-0.412-1.428-0.7-1.428-1.221 0-0.726 0.703-0.917 1.075-0.917zM11 8.5V4c0-0.552 0.448-1 1-1h1.25c1.24 0 2.25 1.01 2.25 2.25S14.49 7.5 13.25 7.5H12v1C12 8.776 11.776 9 11.5 9S11 8.776 11 8.5zM12 6.5h1.25c0.689 0 1.25-0.561 1.25-1.25S13.939 4 13.25 4H12zM10 7.5v-4C10 3.224 9.776 3 9.5 3S9 3.224 9 3.5v4C9 7.776 9.224 8 9.5 8S10 7.776 10 7.5zM5.5 10C5.776 10 6 9.776 6 9.5V4h1.5C7.776 4 8 3.776 8 3.5S7.776 3 7.5 3h-4C3.224 3 3 3.224 3 3.5S3.224 4 3.5 4H5v5.5C5 9.776 5.224 10 5.5 10zM16.756 18.938 12 17.154v-4.546c0-1.273-0.896-2.38-2.084-2.573-0.73-0.117-1.476 0.085-2.035 0.561C7.321 11.073 7 11.767 7 12.501v7.424l-0.138 0.066-1.688-1.343c0 0-6e-3-3e-3-9e-3-5e-3-1.008-0.905-2.562-0.845-3.49 0.149-0.941 1.007-0.894 2.588 0.106 3.524l1.64 1.548c0.092 0.087 0.214 0.135 0.341 0.135 0.448 0 0.667-0.547 0.342-0.856l-1.633-1.551c-0.599-0.562-0.629-1.514-0.064-2.118 0.561-0.602 1.509-0.635 2.115-0.073 4e-3 3e-3 9e-3 4e-3 0.012 7e-3 7e-3 7e-3 0.011 0.016 0.018 0.022l1.688 1.342c0.668 0.573 1.793 0.033 1.761-0.849v-7.424c0-0.44 0.192-0.857 0.529-1.144 0.341-0.29 0.774-0.407 1.227-0.336 0.709 0.116 1.244 0.798 1.244 1.587v4.893c0 0.208 0.129 0.395 0.324 0.468l5.08 1.905c1.602 0.601 2.596 1.99 2.596 3.627 0 0.276 0.224 0.5 0.5 0.5s0.5-0.224 0.5-0.5c0-2.064-1.243-3.812-3.245-4.561z" />
</svg>