<svg id="tip_button_Layer_1" viewBox="0 0 24 24" fill="currentColor" width="32" height="32" data-name="Layer 1" xmlns="http://www.w3.org/2000/svg" xmlns:xlink="http://www.w3.org/1999/xlink">
    <title>tip-button</title>
    <path d="M19.5 5h-15C2.019 5 0 7.019 0 9.5v4C0 15.981 2.019 18 4.5 18h15c2.481 0 4.5-2.019 4.5-4.5v-4C24 7.019 21.981 5 19.5 5zM23 13.5c0 1.93-1.57 3.5-3.5 3.5h-15C2.57 17 1 15.43 1 13.5v-4C1 7.57 2.57 6 4.5 6h15C21.43 6 23 7.57 23 9.5zM20.88 13.144c0 1.314-1.124 2.003-2.234 2.003-1.208 0-1.971-0.764-2.003-0.797-0.193-0.196-0.189-0.514 8e-3-0.707 0.196-0.192 0.513-0.19 0.707 8e-3 2e-3 2e-3 0.512 0.496 1.288 0.496 0.458 0 1.234-0.211 1.234-1.003 0-0.541-0.547-0.835-1.448-1.253-0.895-0.415-2.007-0.931-2.007-2.128 0-1.245 1.069-1.917 2.075-1.917 0.946 0 1.748 0.704 1.836 0.784 0.204 0.186 0.219 0.5 0.034 0.705-0.184 0.204-0.499 0.221-0.705 0.036-0.163-0.146-0.689-0.525-1.165-0.525-0.372 0-1.075 0.191-1.075 0.917 0 0.521 0.539 0.809 1.428 1.221 0.903 0.42 2.027 0.941 2.027 2.16zM13.25 8H12c-0.552 0-1 0.448-1 1v5.5c0 0.276 0.224 0.5 0.5 0.5s0.5-0.224 0.5-0.5v-2h1.25c1.24 0 2.25-1.01 2.25-2.25S14.49 8 13.25 8zM13.25 11.5H12V9h1.25c0.689 0 1.25 0.561 1.25 1.25s-0.561 1.25-1.25 1.25zM10 8.5v6c0 0.276-0.224 0.5-0.5 0.5S9 14.776 9 14.5v-6C9 8.224 9.224 8 9.5 8S10 8.224 10 8.5zM8 8.5C8 8.776 7.776 9 7.5 9H6v5.5C6 14.776 5.776 15 5.5 15S5 14.776 5 14.5V9H3.5C3.224 9 3 8.776 3 8.5S3.224 8 3.5 8h4C7.776 8 8 8.224 8 8.5z" />
</svg>