<svg id="tired_Layer_1" viewBox="0 0 24 24" fill="currentColor" width="32" height="32" data-name="Layer 1" xmlns="http://www.w3.org/2000/svg" xmlns:xlink="http://www.w3.org/1999/xlink">
    <title>tired</title>
    <path d="M17.5 11c-0.095 0-0.191-0.027-0.277-0.084l-3-2C14.084 8.823 14 8.667 14 8.5s0.083-0.323 0.223-0.416l3-2c0.23-0.154 0.54-0.091 0.693 0.139s0.091 0.54-0.139 0.693L15.401 8.5l2.376 1.584c0.23 0.153 0.292 0.464 0.139 0.693C17.82 10.922 17.661 11 17.5 11zM6.778 10.916l3-2c0.139-0.093 0.223-0.249 0.223-0.416S9.918 8.177 9.778 8.084l-3-2C6.547 5.93 6.237 5.993 6.085 6.223 5.932 6.452 5.994 6.763 6.224 6.916L8.6 8.5 6.224 10.084c-0.23 0.153-0.292 0.464-0.139 0.693C6.181 10.922 6.34 11 6.502 11c0.095 0 0.191-0.027 0.276-0.084zM24.001 12C24 5.383 18.617 0 12 0S0 5.383 0 12 5.383 24 12 24s12-5.383 12.001-12zM23.001 12c0 6.065-4.935 11-11 11S1 18.065 1 12 5.935 1 12 1 23 5.935 23.001 12zM6.818 18.964c0.288-0.062 0.614-0.156 0.982-0.262 1.028-0.296 2.435-0.701 4.197-0.702 1.763 0 3.174 0.406 4.205 0.702 0.367 0.105 0.694 0.199 0.98 0.262 0.595 0.132 1.19-0.101 1.542-0.605 0.355-0.508 0.37-1.147 0.039-1.669v0c-1.169-1.836-3.714-3.689-6.764-3.689s-5.595 1.854-6.764 3.689c-0.331 0.521-0.316 1.161 0.039 1.669 0.288 0.411 0.734 0.642 1.213 0.642 0.108 0 0.219-0.012 0.331-0.037zM17.92 17.227v0c0.166 0.262 0.031 0.494-0.015 0.559-0.044 0.064-0.212 0.267-0.509 0.202-0.269-0.059-0.574-0.147-0.918-0.246-1.088-0.312-2.578-0.74-4.481-0.741-1.903 0-3.389 0.429-4.474 0.741-0.344 0.099-0.65 0.188-0.919 0.246-0.299 0.064-0.464-0.138-0.509-0.202s-0.181-0.297-0.015-0.559C7.102 15.621 9.329 14 12 14s4.898 1.62 5.92 3.227z" />
</svg>