<svg id="tire_rugged_Layer_1" viewBox="0 0 24 24" fill="currentColor" width="32" height="32" data-name="Layer 1" xmlns="http://www.w3.org/2000/svg" xmlns:xlink="http://www.w3.org/1999/xlink">
    <title>tire-rugged</title>
    <path d="M12 5c-3.859 0-7 3.141-7 7s3.141 7 7 7 7-3.141 7-7-3.141-7-7-7zM12 18c-3.309 0-6-2.691-6-6s2.691-6 6-6 6 2.691 6 6-2.691 6-6 6zM22.662 9.421c-0.016-0.035-0.034-0.086-0.053-0.157-0.254-0.973-0.628-1.886-1.109-2.714-0.073-0.126-0.113-0.215-0.134-0.272 0.457-0.605 0.409-1.473-0.142-2.023l-1.479-1.479c-0.556-0.557-1.435-0.599-2.036-0.133-0.047-0.019-0.116-0.053-0.212-0.114-0.745-0.482-1.648-0.854-2.761-1.137-0.072-0.019-0.124-0.036-0.16-0.051C14.475 0.585 13.827 0 13.045 0h-2.092c-0.779 0-1.425 0.58-1.53 1.34-0.036 0.015-0.088 0.033-0.161 0.052C8.15 1.674 7.246 2.046 6.501 2.529 6.405 2.591 6.335 2.626 6.288 2.644 5.684 2.176 4.808 2.22 4.253 2.776L2.774 4.255c-0.55 0.55-0.598 1.415-0.142 2.022-0.021 0.058-0.06 0.146-0.134 0.273-0.481 0.828-0.855 1.741-1.11 2.715-0.019 0.072-0.037 0.124-0.053 0.158-0.754 0.103-1.337 0.75-1.337 1.531v2.092c0 0.805 0.619 1.468 1.333 1.532 0.018 0.038 0.04 0.096 0.063 0.179 0.278 0.996 0.654 1.909 1.117 2.713 0.066 0.116 0.103 0.198 0.121 0.252-0.458 0.605-0.411 1.473 0.141 2.024l1.479 1.479c0.571 0.571 1.483 0.601 2.05 0.123 0.035 0.016 0.086 0.044 0.154 0.096 0.712 0.532 1.608 0.904 2.823 1.17 0.064 0.015 0.109 0.029 0.141 0.042 0.1 0.758 0.748 1.345 1.532 1.345h2.092c0.806 0 1.469-0.62 1.534-1.346 0.031-0.013 0.076-0.027 0.139-0.041 1.215-0.266 2.111-0.638 2.823-1.171 0.069-0.052 0.121-0.08 0.156-0.096 0.607 0.478 1.49 0.438 2.048-0.122l1.479-1.479c0.558-0.558 0.6-1.438 0.142-2.027 0.019-0.054 0.055-0.135 0.12-0.248 0.463-0.805 0.839-1.718 1.117-2.714 0.023-0.084 0.047-0.143 0.064-0.181 0.752-0.104 1.332-0.751 1.332-1.53v-2.092c0-0.803-0.616-1.465-1.336-1.533zM23 13.046c0 0.301-0.245 0.545-0.633 0.553-0.188 0.033-0.532 0.192-0.727 0.889-0.256 0.916-0.6 1.752-1.021 2.484-0.407 0.708-0.291 1.084-0.102 1.296 0.213 0.213 0.213 0.559 0 0.771l-1.479 1.479c-0.213 0.212-0.559 0.213-0.818-0.042-0.087-0.068-0.556-0.375-1.278 0.167-0.593 0.444-1.367 0.76-2.437 0.994-0.766 0.167-0.89 0.611-0.915 0.817 0 0.301-0.244 0.546-0.545 0.546h-2.092c-0.301 0-0.545-0.245-0.551-0.62-0.02-0.132-0.144-0.576-0.909-0.743-1.069-0.234-1.844-0.55-2.437-0.993-0.315-0.237-0.582-0.312-0.794-0.312-0.274 0-0.456 0.124-0.531 0.186-0.213 0.213-0.559 0.213-0.771 0l-1.479-1.479c-0.213-0.213-0.213-0.559 0.021-0.793 0.169-0.19 0.285-0.566-0.122-1.275-0.422-0.731-0.766-1.567-1.021-2.483-0.194-0.696-0.538-0.855-0.813-0.896C1.245 13.592 1 13.348 1 13.047v-2.092c0-0.301 0.245-0.545 0.62-0.551 0.159-0.023 0.548-0.158 0.737-0.886 0.232-0.886 0.57-1.715 1.008-2.466 0.438-0.756 0.304-1.137 0.117-1.319-0.213-0.213-0.213-0.559 0-0.771l1.479-1.479C5.174 3.269 5.52 3.27 5.74 3.491 5.874 3.62 6.271 3.869 7.045 3.369 7.697 2.946 8.504 2.616 9.509 2.361c0.826-0.209 0.904-0.647 0.9-0.814 0-0.301 0.244-0.546 0.545-0.546h2.092c0.301 0 0.545 0.245 0.545 0.533-4e-3 0.18 0.074 0.618 0.9 0.827 1.005 0.255 1.812 0.585 2.464 1.008 0.773 0.498 1.17 0.251 1.312 0.114 0.213-0.213 0.559-0.213 0.771 0l1.479 1.479c0.213 0.213 0.213 0.559 4e-3 0.768-0.19 0.187-0.325 0.567 0.113 1.323 0.438 0.751 0.775 1.58 1.007 2.465 0.19 0.729 0.579 0.863 0.812 0.893 0.301 0 0.546 0.244 0.546 0.545zM13 9c0 0.552-0.448 1-1 1s-1-0.448-1-1 0.448-1 1-1 1 0.448 1 1zM16 12c0 0.552-0.448 1-1 1s-1-0.448-1-1 0.448-1 1-1 1 0.448 1 1zM10 12c0 0.552-0.448 1-1 1s-1-0.448-1-1 0.448-1 1-1 1 0.448 1 1zM13 15c0 0.552-0.448 1-1 1s-1-0.448-1-1 0.448-1 1-1 1 0.448 1 1z" />
</svg>