<svg id="to_do_Layer_1" viewBox="0 0 24 24" fill="currentColor" width="32" height="32" data-name="Layer 1" xmlns="http://www.w3.org/2000/svg" xmlns:xlink="http://www.w3.org/1999/xlink">
    <title>to-do</title>
    <path d="M21.5 0C20.121 0 19 1.121 19 2.5v11.55c0 1.068 0.416 2.073 1.172 2.829l0.975 0.975C21.245 17.952 21.373 18 21.501 18s0.256-0.049 0.354-0.146l0.975-0.975c0.756-0.756 1.172-1.761 1.172-2.829V2.5c0-1.379-1.121-2.5-2.502-2.5zM23 14.05c0 0.802-0.313 1.556-0.879 2.122L21.5 16.793l-0.621-0.621C20.313 15.606 20 14.852 20 14.05V2.5C20 1.673 20.673 1 21.5 1S23 1.673 23 2.5zM3.146 5.21c-0.195-0.195-0.195-0.512 0-0.707s0.512-0.195 0.707 0L5.2 5.849C5.298 5.947 5.427 6 5.564 6s0.268-0.054 0.365-0.151l2.525-2.525c0.195-0.195 0.512-0.195 0.707 0s0.195 0.512 0 0.707L6.636 6.556C6.349 6.843 5.969 7 5.564 7v0C5.16 7 4.779 6.842 4.494 6.556zM6.636 12.556C6.349 12.843 5.969 13 5.564 13v0c-0.404 0-0.785-0.158-1.07-0.444L3.147 11.21c-0.195-0.195-0.195-0.512 0-0.707s0.512-0.195 0.707 0l1.347 1.346C5.299 11.947 5.428 12 5.565 12s0.268-0.054 0.365-0.151l2.525-2.525c0.195-0.195 0.512-0.195 0.707 0s0.195 0.512 0 0.707zM17.999 19h-1V4c0-2.206-1.794-4-4-4H4C1.794 0 0 1.794 0 4v17c0 1.654 1.346 3 3 3h14c1.654 0 3-1.346 3-3 0-1.103-0.897-2-2.001-2zM2.999 23c-1.103 0-2-0.897-2-2V4c0-1.654 1.346-3 3-3h9c1.654 0 3 1.346 3 3v15H7c-1.103 0-2 0.897-2 2s-0.897 2-2.001 2zM16.999 23H5.234C5.71 22.469 6 21.768 6 21c0-0.552 0.448-1 1-1h11c0.552 0 1 0.448 1 1 0 1.103-0.897 2-2.001 2z" />
</svg>