<svg id="together_people_Layer_1" viewBox="0 0 24 24" fill="currentColor" width="32" height="32" data-name="Layer 1" xmlns="http://www.w3.org/2000/svg" xmlns:xlink="http://www.w3.org/1999/xlink">
    <title>together-people</title>
    <path d="M4.5 5C5.879 5 7 3.878 7 2.5S5.879 0 4.5 0 2 1.122 2 2.5 3.121 5 4.5 5zM4.5 1C5.327 1 6 1.673 6 2.5S5.327 4 4.5 4 3 3.327 3 2.5 3.673 1 4.5 1z" />
    <path d="M10.14 12.347c0.099 0.102 0.229 0.153 0.36 0.153 0.125 0 0.25-0.046 0.347-0.14 0.199-0.191 0.205-0.508 0.014-0.707L9.268 10h6.233c0.276 0 0.5-0.224 0.5-0.5S15.777 9 15.501 9H9.269l1.593-1.653c0.191-0.199 0.186-0.515-0.014-0.707-0.197-0.192-0.513-0.186-0.707 0.013l-1.686 1.75c-0.604 0.605-0.604 1.588-7e-3 2.187z" />
    <path d="M13.86 11.653c-0.193-0.198-0.509-0.205-0.707-0.013-0.199 0.191-0.205 0.508-0.014 0.707L14.732 14H8.499c-0.276 0-0.5 0.224-0.5 0.5s0.224 0.5 0.5 0.5h6.232l-1.593 1.653c-0.191 0.199-0.186 0.515 0.014 0.707 0.097 0.094 0.222 0.14 0.347 0.14 0.131 0 0.262-0.051 0.36-0.153l1.686-1.75c0.604-0.605 0.604-1.588 7e-3-2.187z" />
    <path d="M19.5 5C20.879 5 22 3.878 22 2.5S20.879 0 19.5 0 17 1.122 17 2.5 18.121 5 19.5 5zM19.5 1C20.327 1 21 1.673 21 2.5S20.327 4 19.5 4 18 3.327 18 2.5 18.673 1 19.5 1z" />
    <path d="M7.25 6.469C6.721 6.162 6.115 6 5.5 6h-2C1.57 6 0 7.57 0 9.5v4c0 1.391 0.822 2.585 2 3.149V23.5C2 23.776 2.224 24 2.5 24S3 23.776 3 23.5v-6.551C3.165 16.973 3.329 17 3.5 17h2c0.168 0 0.335-0.012 0.5-0.036V23.5C6 23.776 6.224 24 6.5 24S7 23.776 7 23.5v-7.171c0-0.163-0.079-0.314-0.212-0.408-0.132-0.094-0.303-0.116-0.455-0.063C6.067 15.952 5.787 16 5.5 16h-2C2.121 16 1 14.878 1 13.5v-4C1 8.122 2.121 7 3.5 7h2c0.439 0 0.872 0.116 1.25 0.334 0.237 0.139 0.544 0.057 0.683-0.182S7.49 6.607 7.25 6.469z" />
    <path d="M20.5 6h-2c-0.692 0-1.361 0.202-1.936 0.584-0.229 0.153-0.292 0.463-0.139 0.693 0.152 0.23 0.462 0.292 0.693 0.139C17.527 7.144 18.005 7 18.499 7h2c1.379 0 2.5 1.122 2.5 2.5v4c0 1.378-1.121 2.5-2.5 2.5h-2c-0.287 0-0.567-0.048-0.833-0.142-0.152-0.053-0.322-0.031-0.455 0.063s-0.212 0.246-0.212 0.408V23.5c0 0.276 0.224 0.5 0.5 0.5s0.5-0.224 0.5-0.5v-6.536c0.165 0.024 0.332 0.036 0.5 0.036h2c0.171 0 0.335-0.027 0.5-0.051V23.5c0 0.276 0.224 0.5 0.5 0.5s0.5-0.224 0.5-0.5v-6.851c1.178-0.564 2-1.758 2-3.149v-4c0-1.93-1.57-3.5-3.499-3.5z" />
</svg>