<svg id="toilets_portable_Layer_1" viewBox="0 0 24 24" fill="currentColor" width="32" height="32" data-name="Layer 1" xmlns="http://www.w3.org/2000/svg" xmlns:xlink="http://www.w3.org/1999/xlink">
    <title>toilets-portable</title>
    <path d="M21.152 0.712c-2.381-0.928-4.424-0.928-6.805 0-1.045 0.407-1.861 1.172-2.348 2.124-0.487-0.952-1.303-1.717-2.348-2.124-2.38-0.928-4.422-0.928-6.803 0C1.118 1.386 0 3.03 0 4.901V23.5C0 23.776 0.224 24 0.5 24S1 23.776 1 23.5V22h10.5v1.5c0 0.276 0.224 0.5 0.5 0.5s0.5-0.224 0.5-0.5V22H23v1.5c0 0.276 0.224 0.5 0.5 0.5s0.5-0.224 0.5-0.5V4.901c0-1.871-1.118-3.515-2.848-4.189zM14.711 1.644c2.148-0.837 3.93-0.837 6.078 0C22.111 2.159 23 3.468 23 4.901V5H12.5V4.901c0-1.433 0.889-2.742 2.211-3.257zM3.211 1.644c2.148-0.837 3.93-0.837 6.078 0 1.322 0.515 2.211 1.824 2.211 3.257V5H1V4.901c0-1.433 0.889-2.742 2.211-3.257zM1 21V6h10.5v6h-2C9.224 12 9 12.224 9 12.5S9.224 13 9.5 13h2v8zM12.5 21V6H23v6h-2.5c-0.276 0-0.5 0.224-0.5 0.5s0.224 0.5 0.5 0.5H23v8z" />
</svg>