<svg id="toilet_paper_under_slash_Layer_1" viewBox="0 0 24 24" fill="currentColor" width="32" height="32" data-name="Layer 1" xmlns="http://www.w3.org/2000/svg" xmlns:xlink="http://www.w3.org/1999/xlink">
    <title>toilet-paper-under-slash</title>
    <path d="M23.682 22.975C23.889 22.639 24 22.252 24 21.846c0-0.709-0.375-1.428-1.146-2.2C22 18.792 22 18.23 22 17V8c0-4.486-1.757-8-4-8H4.5C3.592 0 2.739 0.448 2.009 1.302L0.854 0.146c-0.196-0.195-0.512-0.195-0.708 0s-0.195 0.512 0 0.708l23 23C23.244 23.952 23.372 24 23.5 24s0.256-0.049 0.354-0.146c0.195-0.195 0.195-0.512 0-0.707zM23 21.846c0 0.132-0.022 0.261-0.065 0.382L16.707 16H18c1.207 0 2.273-1.017 3-2.656V17c0 1.281 0 2.207 1.146 3.354C22.72 20.928 23 21.416 23 21.846zM18 1c1.419 0 3 2.875 3 7s-1.581 7-3 7-3-2.875-3-7 1.581-7 3-7zM4.5 1h11.535C14.811 2.353 14 4.952 14 8s0.811 5.647 2.035 7h-0.328L2.719 2.012C3.141 1.501 3.746 1 4.5 1zM20 23.5c0 0.276-0.224 0.5-0.5 0.5H11c-2.206 0-4-1.794-4-4v-4H4.5C1.977 16 0 12.486 0 8 0 6.736 0.166 5.479 0.48 4.364 0.555 4.099 0.834 3.946 1.097 4.018c0.266 0.075 0.42 0.351 0.346 0.617C1.153 5.663 1 6.826 1 7.999c0 3.794 1.603 7 3.5 7H12c0.276 0 0.5 0.224 0.5 0.5s-0.224 0.5-0.5 0.5H8v4c0 1.654 1.346 3 3 3h8.5c0.276 0 0.5 0.224 0.5 0.501zM17 8c0-0.828 0.448-1.5 1-1.5s1 0.672 1 1.5-0.448 1.5-1 1.5-1-0.672-1-1.5z" />
</svg>