<svg id="toilet_Layer_1" viewBox="0 0 24 24" fill="currentColor" width="32" height="32" data-name="Layer 1" xmlns="http://www.w3.org/2000/svg" xmlns:xlink="http://www.w3.org/1999/xlink">
    <title>toilet</title>
    <path d="M19 9.393V4h1.5C20.776 4 21 3.776 21 3.5S20.776 3 20.5 3h-1.536C18.721 1.306 17.26 0 15.5 0h-7C6.57 0 5 1.57 5 3.5v5.893c-1.17 0.64-2 1.68-2 2.607 0 2.346 2.178 6.076 6.961 6.843C9.688 19.976 8.073 20 8 20c-1.103 0-2 0.897-2 2s0.897 2 2 2h8c1.103 0 2-0.897 2-2s-0.897-2-2-2c-0.075 0-1.691-0.014-1.961-1.157C18.823 18.077 21 14.731 21 12c0-0.927-0.83-1.966-2-2.607zM6 3.5C6 2.121 7.121 1 8.5 1h7C16.879 1 18 2.121 18 3.5V9H6zM16 21c0.552 0 1 0.448 1 1s-0.448 1-1 1H8c-0.552 0-1-0.448-1-1s0.448-1 1-1c0.952 0 2.682-0.44 2.961-2.04C11.296 18.986 11.642 19 12 19s0.704-0.014 1.039-0.04C13.318 20.56 15.048 21 16 21zM12 18c-4.34 0-6.802-2.121-7.655-4.21C5.81 14.574 8.43 15 12 15c3.345 0 5.998-0.196 7.534-0.936C18.583 16.061 16.15 18 12 18zM12 14c-5.869 0-8-1.196-8-2 0-0.535 0.791-1.541 2.084-2h11.832C19.209 10.459 20 11.465 20 12c0 1.402-2.393 2-8 2z" />
</svg>