<svg id="toilet_paper_under_Layer_1" viewBox="0 0 24 24" fill="currentColor" width="32" height="32" data-name="Layer 1" xmlns="http://www.w3.org/2000/svg" xmlns:xlink="http://www.w3.org/1999/xlink">
    <title>toilet-paper-under</title>
    <path d="M18 6.5c0.552 0 1 0.672 1 1.5s-0.448 1.5-1 1.5-1-0.672-1-1.5 0.448-1.5 1-1.5zM24 21.846C24 23.034 23.034 24 21.847 24H11c-2.206 0-4-1.794-4-4v-4H4.5C1.977 16 0 12.486 0 8s2.092-8 4.5-8H18c2.243 0 4 3.514 4 8v9c0 1.231 0 1.793 0.854 2.646 0.771 0.771 1.146 1.491 1.146 2.2zM18 1c-1.419 0-3 2.875-3 7s1.581 7 3 7 3-2.875 3-7-1.581-7-3-7zM4.5 15h11.535C14.811 13.647 14 11.048 14 8h-1.5C12.224 8 12 7.776 12 7.5S12.224 7 12.5 7h1.53c0.156-2.611 0.918-4.797 2.005-6H4.5C2.772 1 1.289 3.659 1.038 7H2.5C2.776 7 3 7.224 3 7.5S2.776 8 2.5 8H1c0 3.794 1.603 7 3.5 7zM23 21.846c0-0.43-0.279-0.918-0.854-1.493C21 19.207 21 18.281 21 16.999v-3.656c-0.727 1.638-1.793 2.656-3 2.656H8v4c0 1.654 1.346 3 3 3h10.847c0.636 0 1.153-0.518 1.153-1.153zM6.5 7h-2C4.224 7 4 7.224 4 7.5S4.224 8 4.5 8h2C6.776 8 7 7.776 7 7.5S6.776 7 6.5 7zM8.5 8h2C10.776 8 11 7.776 11 7.5S10.776 7 10.5 7h-2C8.224 7 8 7.224 8 7.5S8.224 8 8.5 8z" />
</svg>