<svg id="toilet_paper_slash_Layer_1" viewBox="0 0 24 24" fill="currentColor" width="32" height="32" data-name="Layer 1" xmlns="http://www.w3.org/2000/svg" xmlns:xlink="http://www.w3.org/1999/xlink">
    <title>toilet-paper-slash</title>
    <path d="M20 5.5c0.552 0 1 1.119 1 2.5s-0.448 2.5-1 2.5-1-1.119-1-2.5 0.448-2.5 1-2.5zM16.499 20.016c-0.27-0.07-0.54 0.092-0.609 0.359C15.493 21.921 14.098 23 12.5 23H2.153C1.517 23 1 22.482 1 21.847c0-0.472 0.313-0.901 0.798-1.096C3.136 20.217 4 18.94 4 17.5v-10C4 7.224 3.776 7 3.5 7S3 7.224 3 7.5v10c0 1.029-0.617 1.94-1.573 2.322C0.561 20.169 0 20.963 0 21.846c0 1.188 0.966 2.153 2.153 2.153H12.5c2.055 0 3.847-1.388 4.358-3.375 0.068-0.268-0.092-0.54-0.359-0.608zM23.853 23.147c0.195 0.195 0.195 0.512 0 0.707C23.755 23.952 23.627 24 23.499 24s-0.256-0.049-0.354-0.146l-22.999-23c-0.195-0.196-0.195-0.512 0-0.708s0.512-0.195 0.708 0L3.77 3.062C4.596 1.157 5.986 0 7.501 0h12.5c2.243 0 4 3.514 4 8s-1.757 8-4 8h-3v0.293zM16.999 15.001h1.035c-0.391-0.433-0.741-0.993-1.035-1.655zM19.999 1.001c-1.419 0-3 2.875-3 7s1.581 7 3 7 3-2.875 3-7-1.581-7-3-7zM4.538 3.831 16 15.293V8c0-3.048 0.811-5.647 2.035-7H7.5C6.307 1 5.184 2.08 4.538 3.831z" />
</svg>