<svg id="toilet_paper_blank_under_Layer_1" viewBox="0 0 24 24" fill="currentColor" width="32" height="32" data-name="Layer 1" xmlns="http://www.w3.org/2000/svg" xmlns:xlink="http://www.w3.org/1999/xlink">
    <title>toilet-paper-blank-under</title>
    <path d="M18 6.5c0.552 0 1 0.672 1 1.5s-0.448 1.5-1 1.5-1-0.672-1-1.5 0.448-1.5 1-1.5zM24 21.846C24 23.034 23.034 24 21.847 24H11c-2.206 0-4-1.794-4-4v-4H4.5C1.977 16 0 12.486 0 8s1.977-8 4.5-8H18c2.243 0 4 3.514 4 8v9c0 1.231 0 1.793 0.854 2.646 0.771 0.771 1.146 1.491 1.146 2.2zM18 1c-1.419 0-3 2.875-3 7s1.581 7 3 7 3-2.875 3-7-1.581-7-3-7zM4.5 15h11.535C14.811 13.647 14 11.048 14 8s0.811-5.647 2.035-7H4.5C2.603 1 1 4.206 1 8s1.603 7 3.5 7zM23 21.846c0-0.43-0.279-0.918-0.854-1.493C21 19.207 21 18.281 21 16.999v-3.656c-0.727 1.638-1.793 2.656-3 2.656H8v4c0 1.654 1.346 3 3 3h10.847c0.636 0 1.153-0.518 1.153-1.153z" />
</svg>