<svg id="token_Layer_1" viewBox="0 0 24 24" fill="currentColor" width="32" height="32" data-name="Layer 1" xmlns="http://www.w3.org/2000/svg" xmlns:xlink="http://www.w3.org/1999/xlink">
    <title>token</title>
    <path d="M12 3c-4.962 0-9 4.037-9 9s4.038 9 9 9 9-4.037 9-9-4.038-9-9-9zM12 20c-4.411 0-8-3.589-8-8s3.589-8 8-8 8 3.589 8 8-3.589 8-8 8zM15.495 10h-1.75l-0.618-1.66c-0.169-0.472-0.623-0.789-1.126-0.789s-0.957 0.317-1.125 0.784L10.257 10h-1.75c-0.503 0-0.956 0.316-1.126 0.788-0.168 0.465-0.027 0.995 0.361 1.328l1.4 1.138-0.554 1.777c-0.158 0.488 0.012 1.021 0.42 1.324 0.173 0.131 0.5 0.225 0.72 0.245 0.242 0 0.472-0.068 0.667-0.198l1.618-1.084 1.651 1.074c0.431 0.273 0.988 0.25 1.375-0.051 0.407-0.302 0.574-0.835 0.414-1.328l-0.579-1.757 1.389-1.133c0 0 7e-3-6e-3 0.011-9e-3 0.378-0.327 0.519-0.859 0.35-1.327-0.17-0.472-0.623-0.788-1.129-0.787zM15.622 11.354l-1.648 1.345c-0.161 0.131-0.224 0.348-0.159 0.544l0.686 2.081c0.026 0.081 2e-3 0.169-0.068 0.222-0.067 0.051-0.156 0.053-0.229 6e-3l-1.923-1.251c-0.167-0.108-0.384-0.107-0.551 4e-3l-1.892 1.266c-0.017 0.012-0.039 0.02-0.062 0.025-0.059-5e-3-0.126-7e-3-0.172-0.041-0.064-0.048-0.092-0.137-0.065-0.221l0.656-2.106c0.061-0.195-3e-3-0.407-0.162-0.536L8.38 11.35c-0.065-0.057-0.09-0.144-0.062-0.222C8.345 11.054 8.423 11 8.504 11h2.098c0.209 0 0.396-0.13 0.469-0.326l0.742-1.996c0.055-0.148 0.316-0.153 0.374 5e-3l0.74 1.991C13 10.87 13.187 11 13.396 11h2.098c0.081 0 0.159 0.054 0.186 0.128 0.028 0.077 4e-3 0.17-0.058 0.226zM12 0C5.383 0 0 5.383 0 12s5.383 12 12 12 12-5.383 12-12S18.617 0 12 0zM12 23C5.935 23 1 18.065 1 12S5.935 1 12 1 23 5.935 23 12 18.065 23 12 23z" />
</svg>