<svg id="tools_Layer_1" viewBox="0 0 24 24" fill="currentColor" width="32" height="32" data-name="Layer 1" xmlns="http://www.w3.org/2000/svg" xmlns:xlink="http://www.w3.org/1999/xlink">
    <title>tools</title>
    <path d="M17.125 12.885c-1.048-1.044-2.682-1.148-3.855-0.322L8 7.293V4c0-0.834-0.449-1.611-1.172-2.028l-2.981-1.72C3.111-0.174 2.178-0.05 1.577 0.551L0.551 1.577c-0.601 0.601-0.724 1.533-0.3 2.27L1.97 6.828C2.387 7.551 3.164 8 3.999 8h3.293l5.267 5.267c-0.364 0.506-0.567 1.106-0.567 1.741 0 0.802 0.313 1.555 0.882 2.121l6.021 5.993C19.459 23.684 20.228 24 21.022 24c0.978 0 1.791-0.448 2.332-1.106 0.963-1.175 0.828-2.983-0.309-4.117zM2.836 6.328 1.117 3.347c-0.199-0.345-0.141-0.781 0.14-1.062l1.026-1.026c0.281-0.281 0.72-0.338 1.063-0.141l2.98 1.72c0.415 0.239 0.672 0.686 0.672 1.163v3h-3c-0.478 0-0.923-0.258-1.162-0.673zM22.58 22.259c-0.367 0.447-0.885 0.71-1.458 0.738-0.57 0.026-1.121-0.185-1.522-0.584l-6.021-5.993c-0.378-0.377-0.587-0.879-0.587-1.412 0-0.534 0.208-1.036 0.587-1.415 0.392-0.39 0.906-0.585 1.419-0.585s1.028 0.195 1.42 0.585q0 0 0 0l5.919 5.892c0.776 0.773 0.882 1.992 0.243 2.774zM9.278 5.396c0.785-2.702 3.075-4.771 5.833-5.272 1.095-0.198 2.187-0.159 3.244 0.116 0.498 0.13 0.876 0.503 1.012 0.999 0.134 0.491 0 1.001-0.358 1.362l-3.543 3.573C14.82 6.82 14.82 7.87 15.465 8.515s1.694 0.644 2.339 0l3.557-3.587c0.357-0.362 0.863-0.499 1.356-0.369 0.498 0.132 0.875 0.509 1.01 1.009 0.284 1.059 0.331 2.152 0.139 3.252-0.336 1.931-1.468 3.694-3.107 4.838-0.087 0.061-0.187 0.09-0.286 0.09-0.158 0-0.313-0.074-0.411-0.214-0.158-0.227-0.103-0.538 0.124-0.696 1.422-0.992 2.404-2.519 2.694-4.189 0.167-0.955 0.126-1.904-0.12-2.82-0.058-0.216-0.229-0.283-0.3-0.302-0.069-0.021-0.243-0.044-0.39 0.105l-3.559 3.589c-1.035 1.037-2.718 1.038-3.754 2e-3-0.501-0.501-0.777-1.167-0.777-1.877s0.276-1.375 0.777-1.876l3.542-3.572c0.149-0.151 0.122-0.326 0.103-0.395-0.019-0.07-0.087-0.24-0.299-0.296-0.917-0.237-1.862-0.271-2.813-0.099-2.388 0.434-4.371 2.226-5.051 4.566-0.077 0.265-0.351 0.418-0.62 0.341-0.265-0.077-0.417-0.354-0.341-0.619zM10.607 16.949c0.195 0.196 0.195 0.513 0 0.708l-5.482 5.466c-0.564 0.562-1.333 0.878-2.127 0.878-0.997 0-1.791-0.447-2.331-1.105-0.964-1.175-0.829-2.983 0.308-4.117l6.977-6.957c0.196-0.193 0.512-0.194 0.707 0 0.195 0.196 0.195 0.513 0 0.708l-6.977 6.957C0.906 20.26 0.8 21.479 1.441 22.26c0.367 0.447 0.885 0.709 1.458 0.737 0.579 0.04 1.121-0.185 1.521-0.584l5.482-5.466c0.195-0.193 0.512-0.194 0.705 2e-3z" />
</svg>