<svg id="toothbrush_Layer_1" viewBox="0 0 24 24" fill="currentColor" width="32" height="32" data-name="Layer 1" xmlns="http://www.w3.org/2000/svg" xmlns:xlink="http://www.w3.org/1999/xlink">
    <title>toothbrush</title>
    <path d="M24 1.546v-0.39c0-0.463-0.276-0.88-0.704-1.063-0.42-0.178-0.889-0.098-1.218 0.217C21.599 0.768 20.899 1 20 1H7.1C4.076 1 1.289 2.914 0.164 5.763-0.124 6.491-0.033 7.284 0.412 7.939 0.864 8.604 1.611 9.001 2.411 9.001H3v10H2.5c-1.379 0-2.5 1.121-2.5 2.5s1.121 2.5 2.5 2.5h21c0.276 0 0.5-0.224 0.5-0.5s-0.224-0.5-0.5-0.5h-21c-0.827 0-1.5-0.673-1.5-1.5s0.673-1.5 1.5-1.5h21c0.276 0 0.5-0.224 0.5-0.5s-0.224-0.5-0.5-0.5H20V8.147c2.375-1.248 4-3.736 4-6.601zM2.411 8C1.942 8 1.505 7.767 1.239 7.376 0.982 6.999 0.929 6.545 1.093 6.13 2.069 3.66 4.482 2 7.099 2h12.9c1.166 0 2.098-0.325 2.769-0.968 0.016-0.012 0.06-0.053 0.134-0.02C22.931 1.025 23 1.064 23 1.156v0.39C23 5.105 20.105 8 16.548 8zM15 19h-3V9h3zM11 19H8V9h3zM4 9h3v10H4zM19 19h-3V9h0.548c0.86 0 1.683-0.154 2.452-0.423z" />
</svg>