<svg id="toothpaste_Layer_1" viewBox="0 0 24 24" fill="currentColor" width="32" height="32" data-name="Layer 1" xmlns="http://www.w3.org/2000/svg" xmlns:xlink="http://www.w3.org/1999/xlink">
    <title>toothpaste</title>
    <path d="M23.5 23H14v-6.5c0-0.276-0.224-0.5-0.5-0.5S13 16.224 13 16.5V23h-2v-7c0 0 0-1e-3 0-2e-3 1.32-1.049 2-2.78 2-4.498v-1c2e-3-0.268-0.222-0.502-0.5-0.5-0.264 0.02-0.508 0.222-0.5 0.5 0 0.827-0.673 1.5-1.5 1.5H4c-1.654 0-3 1.346-3 3v8H0.5C0.224 23 0 23.224 0 23.5S0.224 24 0.5 24h23c0.276 0 0.5-0.224 0.5-0.5S23.776 23 23.5 23zM10 23H8v-6c0.75 0 1.415-0.15 2-0.406zM7 17v6H5v-6zM2 15c0-1.103 0.897-2 2-2h6.5c0.516 0 0.995-0.157 1.394-0.425C11.525 14.408 10.203 16 8 16H2zM2 17h2v6H2zM14.49 10.061c0.292 0.292 0.676 0.439 1.062 0.439 0.33 0 0.662-0.109 0.938-0.33l1.98-1.587c0.285 0.037 2.558 0.452 2.794 0.416 0.924 0 1.808-0.363 2.47-1.025l0.121-0.121c0.195-0.195 0.195-0.512 0-0.707s-0.512-0.195-0.707 0l-0.121 0.121c-0.54 0.541-1.284 0.798-2.019 0.721l-2.767-0.456-1.773-1.772-0.451-2.742c-0.084-0.759 0.177-1.504 0.717-2.044l0.121-0.121c0.195-0.195 0.195-0.512 0-0.707s-0.512-0.195-0.707 0l-0.121 0.121c-0.756 0.756-1.122 1.799-1 2.887l0.359 2.184c-0.019 0.019-1.607 2.242-1.607 2.242-0.425 0.598-0.356 1.409 0.162 1.928zM14.593 8.159l1.186-1.674 1.651 1.651-1.565 1.254c-0.2 0.16-0.486 0.143-0.667-0.036l-0.551-0.552c-0.173-0.173-0.195-0.443-0.054-0.643z" />
</svg>