<svg id="torch_inspiration_leader_Layer_1" viewBox="0 0 24 24" fill="currentColor" width="32" height="32" data-name="Layer 1" xmlns="http://www.w3.org/2000/svg" xmlns:xlink="http://www.w3.org/1999/xlink">
    <title>torch-inspiration-leader</title>
    <path d="M7.5 11C9.981 11 12 8.981 12 6.5S9.981 2 7.5 2 3 4.019 3 6.5 5.019 11 7.5 11zM7.5 3C9.43 3 11 4.57 11 6.5S9.43 10 7.5 10 4 8.43 4 6.5 5.57 3 7.5 3zM12.542 16.3C12.846 16.995 13 17.736 13 18.5v5c0 0.276-0.224 0.5-0.5 0.5S12 23.776 12 23.5v-5c0-0.626-0.126-1.231-0.374-1.8-0.11-0.253 5e-3-0.548 0.258-0.658 0.253-0.109 0.548 4e-3 0.658 0.258zM23.222 3.5c0-1.356-1.34-2.41-2.272-3.155-0.093-0.074-0.203-0.109-0.311-0.109-0.189 0-0.372 0.106-0.45 0.298-0.453 1.117 0.362 2.467-0.689 2.467-0.326 0-0.476-0.583-0.5-1.021-8e-3-0.152-0.133-0.246-0.262-0.246-0.071 0-0.143 0.029-0.198 0.092-0.329 0.379-0.763 0.972-0.763 1.675 0 1.071 0.645 1.879 1.016 2.258l0.65 5.306c0.015 0.126 0.055 0.243 0.11 0.35l-2.643 1.322c-0.346 0.173-0.732 0.264-1.118 0.264H7.5c-3.032 0-5.5 2.467-5.5 5.5v5c0 0.276 0.224 0.5 0.5 0.5s0.5-0.224 0.5-0.5v-5c0-2.481 2.019-4.5 4.5-4.5h8.292c0.54 0 1.082-0.128 1.565-0.37l3.331-1.665c0.45-0.083 0.812-0.433 0.869-0.901L22.2 5.811c0.346-0.356 1.022-1.194 1.022-2.311zM19.5 4c0.597 0 0.957-0.248 1.153-0.457 0.469-0.497 0.431-1.152 0.401-1.678-3e-3-0.048-6e-3-0.097-8e-3-0.146 0.611 0.535 1.176 1.158 1.176 1.781 0 0.663-0.381 1.209-0.634 1.5H19.45c-0.225-0.244-0.552-0.677-0.646-1.207C19.007 3.928 19.242 4 19.5 4zM20.564 10.943c0 0-0.08 0-0.113 0-0.01 0-0.016 0-0.016 0L19.831 6h1.338z" />
</svg>