<svg id="total_Layer_1" viewBox="0 0 24 24" fill="currentColor" width="32" height="32" data-name="Layer 1" xmlns="http://www.w3.org/2000/svg" xmlns:xlink="http://www.w3.org/1999/xlink">
    <title>total</title>
    <path d="M22 20.5c0 1.93-1.57 3.5-3.5 3.5H4.41c-0.99 0-1.856-0.599-2.207-1.524s-0.099-1.947 0.644-2.604L11.745 12 2.847 4.127C2.105 3.472 1.853 2.45 2.203 1.524S3.42 0 4.41 0H18.5C20.43 0 22 1.57 22 3.5 22 3.776 21.776 4 21.5 4S21 3.776 21 3.5C21 2.122 19.879 1 18.5 1H4.41C3.718 1 3.299 1.454 3.138 1.878c-0.16 0.425-0.147 1.042 0.371 1.5l9.322 8.247C12.938 11.72 13 11.856 13 12s-0.062 0.28-0.169 0.375l-9.322 8.246c-0.519 0.459-0.531 1.076-0.371 1.501C3.299 22.546 3.718 23 4.41 23H18.5c1.379 0 2.5-1.121 2.5-2.5 0-0.276 0.224-0.5 0.5-0.5s0.5 0.224 0.5 0.5z" />
</svg>