<svg id="tour_virtual_Layer_1" viewBox="0 0 24 24" fill="currentColor" width="32" height="32" data-name="Layer 1" xmlns="http://www.w3.org/2000/svg" xmlns:xlink="http://www.w3.org/1999/xlink">
    <title>tour-virtual</title>
    <path d="M12 0C4.935 0 0 2.262 0 5.5v14.359c0 1.517 1.055 2.868 3.05 3.908C3.349 23.922 3.672 24 3.993 24c0.363 0 0.725-0.1 1.049-0.296C5.642 23.34 6 22.703 6 22.001V11.805c0-1.384-0.831-2.644-2.116-3.21v0C2.569 8.017 1 7.01 1 5.499 1 2.935 5.729 1 12 1s11 1.935 11 4.5c0 1.511-1.568 2.518-2.884 3.096C18.831 9.162 18 10.422 18 11.806v10.196c0 0.702 0.358 1.339 0.958 1.703 0.324 0.196 0.686 0.296 1.049 0.296 0.321 0 0.644-0.078 0.943-0.233 1.995-1.04 3.05-2.392 3.05-3.908V5.5C24 2.262 19.065 0 12 0zM3.481 9.512C4.403 9.918 5 10.819 5 11.806v10.196c0 0.355-0.174 0.664-0.477 0.849-0.31 0.186-0.688 0.198-1.011 0.03C1.892 22.036 1 20.964 1 19.86V7.864c0.583 0.624 1.414 1.178 2.481 1.648zM23 19.86c0 1.104-0.892 2.177-2.512 3.021-0.325 0.168-0.704 0.155-1.011-0.03C19.174 22.666 19 22.358 19 22.002V11.806c0-0.987 0.596-1.888 1.519-2.294 1.067-0.47 1.899-1.023 2.481-1.647zM14.5 6.5C14.5 5.121 13.378 4 12 4S9.5 5.121 9.5 6.5 10.622 9 12 9s2.5-1.121 2.5-2.5zM10.5 6.5C10.5 5.673 11.173 5 12 5s1.5 0.673 1.5 1.5S12.827 8 12 8s-1.5-0.673-1.5-1.5zM12 10c-2.206 0-4 1.794-4 4v2.5c0 1.208 0.86 2.217 2 2.449V23.5c0 0.276 0.224 0.5 0.5 0.5s0.5-0.224 0.5-0.5V19h2v4.5c0 0.276 0.224 0.5 0.5 0.5s0.5-0.224 0.5-0.5v-4.551c1.14-0.232 2-1.242 2-2.449V14c0-2.206-1.794-4-4-4zM15 16.5c0 0.827-0.673 1.5-1.5 1.5h-3C9.673 18 9 17.327 9 16.5V14c0-1.654 1.346-3 3-3s3 1.346 3 3z" />
</svg>