<svg id="towel_Layer_1" viewBox="0 0 24 24" fill="currentColor" width="32" height="32" data-name="Layer 1" xmlns="http://www.w3.org/2000/svg" xmlns:xlink="http://www.w3.org/1999/xlink">
    <title>towel</title>
    <path d="M23.5 5H22V3c0-1.654-1.346-3-3-3H4.5C3.122 0 2 1.122 2 2.5V5H0.5C0.224 5 0 5.224 0 5.5S0.224 6 0.5 6H2v4c0 2.206 1.794 4 4 4h1v6c0 2.206 1.794 4 4 4h7c2.206 0 4-1.794 4-4V8.5C22 8.224 21.776 8 21.5 8S21 8.224 21 8.5V19H8v-5h5c2.206 0 4-1.794 4-4V6h6.5C23.776 6 24 5.776 24 5.5S23.776 5 23.5 5zM21 20c0 1.654-1.346 3-3 3h-7c-1.654 0-3-1.346-3-3zM16 10c0 1.654-1.346 3-3 3H6c-1.654 0-3-1.346-3-3V2.5C3 1.673 3.673 1 4.5 1h12.266C16.29 1.531 16 2.232 16 3zM17 3c0-1.103 0.897-2 2-2s2 0.897 2 2v2h-4z" />
</svg>