<svg id="tower_control_Layer_1" viewBox="0 0 24 24" fill="currentColor" width="32" height="32" data-name="Layer 1" xmlns="http://www.w3.org/2000/svg" xmlns:xlink="http://www.w3.org/1999/xlink">
    <title>tower-control</title>
    <path d="M23.201 6.276C22.534 5.464 21.549 5 20.499 5H16V4.5C16 3.121 14.879 2 13.5 2h-1V0.5C12.5 0.224 12.276 0 12 0s-0.5 0.224-0.5 0.5V2h-1C9.121 2 8 3.121 8 4.5V5H3.501c-1.05 0-2.035 0.465-2.702 1.276-0.668 0.811-0.935 1.867-0.732 2.898l0.902 4.596c0.367 1.871 2.018 3.229 3.925 3.229H8v4.5c0 1.379 1.121 2.5 2.5 2.5h3c1.379 0 2.5-1.121 2.5-2.5v-4.5h3.106c1.907 0 3.558-1.358 3.925-3.229l0.902-4.597c0.202-1.03-0.064-2.087-0.732-2.897zM9 4.5C9 3.673 9.673 3 10.5 3h3C14.327 3 15 3.673 15 4.5V5H9zM9 6h6v5H9zM1.047 8.982C0.903 8.245 1.094 7.491 1.57 6.911 2.047 6.332 2.751 6 3.501 6H8v5H1.443zM15 21.5c0 0.827-0.673 1.5-1.5 1.5h-3C9.673 23 9 22.327 9 21.5V17h6zM22.051 13.577C21.775 14.981 20.537 16 19.107 16H4.894c-1.431 0-2.668-1.019-2.944-2.423L1.64 12h20.72zM22.953 8.981 22.557 11H16V6h4.499c0.75 0 1.454 0.332 1.931 0.911 0.477 0.58 0.667 1.334 0.523 2.07z" />
</svg>