<svg id="tractor_Layer_1" viewBox="0 0 24 24" fill="currentColor" width="32" height="32" data-name="Layer 1" xmlns="http://www.w3.org/2000/svg" xmlns:xlink="http://www.w3.org/1999/xlink">
    <title>tractor</title>
    <path d="M24 11.5C24 9.57 22.43 8 20.5 8H20V4.5C20 4.224 19.776 4 19.5 4S19 4.224 19 4.5V8h-3.723l-3.678-5.885C10.771 0.791 9.345 0 7.784 0H5.501c-1.378 0-2.5 1.122-2.5 2.5V8h-0.5c-1.378 0-2.5 1.122-2.5 2.5v1c0 0.276 0.224 0.5 0.5 0.5s0.5-0.224 0.5-0.5v-1c0-0.827 0.673-1.5 1.5-1.5H20.5c1.378 0 2.5 1.122 2.5 2.5 0 0.538-0.178 1.07-0.501 1.502l-2.587 3.485C19.344 16.176 18.692 16 18 16c-2.206 0-4 1.794-4 4s1.794 4 4 4 4-1.794 4-4c0-1.155-0.492-2.197-1.278-2.928l2.577-3.472c0.452-0.602 0.7-1.347 0.701-2.1zM4 2.5C4 1.673 4.673 1 5.5 1h2.283c1.214 0 2.324 0.615 2.968 1.645L14.098 8H4zM21 20c0 1.654-1.346 3-3 3s-3-1.346-3-3 1.346-3 3-3 3 1.346 3 3zM11.5 17.5h-1.028c-0.096-0.867-0.44-1.66-0.958-2.307l0.728-0.728c0.195-0.195 0.195-0.512 0-0.707s-0.512-0.195-0.707 0l-0.728 0.728C8.16 13.968 7.366 13.624 6.5 13.528V12.5C6.5 12.224 6.276 12 6 12s-0.5 0.224-0.5 0.5v1.028c-0.867 0.096-1.66 0.44-2.307 0.958l-0.728-0.728c-0.195-0.195-0.512-0.195-0.707 0s-0.195 0.512 0 0.707l0.728 0.728C1.968 15.84 1.624 16.634 1.528 17.5H0.5C0.224 17.5 0 17.724 0 18s0.224 0.5 0.5 0.5h1.028c0.096 0.867 0.44 1.66 0.958 2.307l-0.728 0.728c-0.195 0.195-0.195 0.512 0 0.707 0.098 0.098 0.226 0.146 0.354 0.146s0.256-0.049 0.354-0.146l0.728-0.728c0.647 0.518 1.441 0.862 2.307 0.958V23.5c0 0.276 0.224 0.5 0.5 0.5s0.5-0.224 0.5-0.5v-1.028c0.867-0.096 1.66-0.44 2.307-0.958l0.728 0.728c0.098 0.098 0.226 0.146 0.354 0.146s0.256-0.049 0.354-0.146c0.195-0.195 0.195-0.512 0-0.707l-0.728-0.728c0.518-0.647 0.862-1.441 0.958-2.307h1.028c0.276 0 0.5-0.224 0.5-0.5s-0.224-0.5-0.502-0.5zM6 21.5c-1.93 0-3.5-1.57-3.5-3.5s1.57-3.5 3.5-3.5 3.5 1.57 3.5 3.5-1.57 3.5-3.5 3.5z" />
</svg>