<svg id="trading_Layer_1" viewBox="0 0 24 24" fill="currentColor" width="32" height="32" data-name="Layer 1" xmlns="http://www.w3.org/2000/svg" xmlns:xlink="http://www.w3.org/1999/xlink">
    <title>trading</title>
    <path d="M3 11.5v3C3 15.327 3.673 16 4.5 16S6 15.327 6 14.5v-3C6 10.673 5.327 10 4.5 10S3 10.673 3 11.5zM5 11.5v3C5 14.775 4.776 15 4.5 15S4 14.775 4 14.5v-3C4 11.225 4.224 11 4.5 11S5 11.225 5 11.5zM7 7.5v7C7 15.327 7.673 16 8.5 16s1.5-0.673 1.5-1.5v-7C10 6.673 9.327 6 8.5 6S7 6.673 7 7.5zM9 7.5v7C9 14.775 8.776 15 8.5 15S8 14.775 8 14.5v-7C8 7.225 8.224 7 8.5 7S9 7.225 9 7.5zM11 10.5v4c0 0.827 0.673 1.5 1.5 1.5s1.5-0.673 1.5-1.5v-4C14 9.673 13.327 9 12.5 9S11 9.673 11 10.5zM13 10.5v4c0 0.275-0.224 0.5-0.5 0.5S12 14.775 12 14.5v-4c0-0.275 0.224-0.5 0.5-0.5s0.5 0.225 0.5 0.5zM24 13.5v2c0 2.481-2.019 4.5-4.5 4.5h-7v3h5c0.276 0 0.5 0.224 0.5 0.5S17.776 24 17.5 24h-11C6.224 24 6 23.776 6 23.5S6.224 23 6.5 23h5v-3h-7C2.019 20 0 17.981 0 15.5v-9C0 4.019 2.019 2 4.5 2h10C14.776 2 15 2.224 15 2.5S14.776 3 14.5 3h-10C2.57 3 1 4.57 1 6.5v9C1 17.43 2.57 19 4.5 19h15c1.93 0 3.5-1.57 3.5-3.5v-2c0-0.276 0.224-0.5 0.5-0.5s0.5 0.224 0.5 0.5zM23 4.5V4.273C23 3.571 22.457 3 21.79 3h-2.58C18.543 3 18 3.571 18 4.273c0 0.567 0.363 1.071 0.883 1.226l3.519 1.043c0.941 0.279 1.599 1.178 1.599 2.185 0 1.254-0.991 2.273-2.21 2.273h-0.79v1.5c0 0.276-0.224 0.5-0.5 0.5s-0.5-0.224-0.5-0.5V11h-0.79c-1.219 0-2.21-1.02-2.21-2.273V8.5c0-0.276 0.224-0.5 0.5-0.5s0.5 0.224 0.5 0.5v0.227c0 0.702 0.543 1.273 1.21 1.273h2.58c0.667 0 1.21-0.571 1.21-1.273 0-0.567-0.363-1.071-0.883-1.226l-3.519-1.043C17.658 6.179 17 5.28 17 4.273 17 3.019 17.991 2 19.21 2H20V0.5C20 0.224 20.224 0 20.5 0S21 0.224 21 0.5V2h0.79C23.009 2 24 3.02 24 4.273V4.5C24 4.776 23.776 5 23.5 5S23 4.776 23 4.5z" />
</svg>