<svg id="traffic_cone_Layer_1" viewBox="0 0 24 24" fill="currentColor" width="32" height="32" data-name="Layer 1" xmlns="http://www.w3.org/2000/svg" xmlns:xlink="http://www.w3.org/1999/xlink">
    <title>traffic-cone</title>
    <path d="M23.5 23h-1.291L16.811 8.307c0 0 0-2e-3 0-3e-3l-2.422-6.593C14.016 0.699 13.079 0.045 12 0.045S9.984 0.699 9.612 1.711L7.189 8.305c0 0 0 0 0 0L1.791 23H0.5C0.224 23 0 23.224 0 23.5S0.224 24 0.5 24h23c0.276 0 0.5-0.224 0.5-0.5S23.776 23 23.5 23zM6.164 14h11.672l1.47 4H4.694zM8.001 9h7.998l1.47 4H6.531zM10.552 2.056C10.825 1.311 11.48 1.045 12 1.045s1.175 0.266 1.448 1.012L15.631 8H8.367zM4.327 19h15.346l1.47 4H2.858z" />
</svg>