<svg id="train_station_Layer_1" viewBox="0 0 24 24" fill="currentColor" width="32" height="32" data-name="Layer 1" xmlns="http://www.w3.org/2000/svg" xmlns:xlink="http://www.w3.org/1999/xlink">
    <title>train-station</title>
    <path d="M19.5 6h-6C11.019 6 9 8.019 9 10.5v7c0 1.391 0.822 2.585 2 3.149V23H9.5C9.224 23 9 23.224 9 23.5S9.224 24 9.5 24h14c0.276 0 0.5-0.224 0.5-0.5S23.776 23 23.5 23h-2v-2.163C22.941 20.403 24 19.08 24 17.5v-7C24 8.019 21.981 6 19.5 6zM17 14v-4h5.949C22.973 10.165 23 10.329 23 10.5V14zM10 14v-3.5c0-0.171 0.027-0.335 0.051-0.5H16v4zM13.5 7h6c1.391 0 2.585 0.822 3.149 2H10.351c0.564-1.178 1.758-2 3.149-2zM20.5 23H12v-2.051C12.165 20.973 12.329 21 12.5 21h8zM20.5 20h-8c-1.379 0-2.5-1.122-2.5-2.5V15h2v1.5c0 0.276 0.224 0.5 0.5 0.5s0.5-0.224 0.5-0.5V15h7v1.5c0 0.276 0.224 0.5 0.5 0.5s0.5-0.224 0.5-0.5V15h2v2.5c0 1.378-1.121 2.5-2.5 2.5zM6.5 18H1V3.5C1 2.122 2.121 1 3.5 1H5v1.5C5 3.327 5.673 4 6.5 4h5C12.327 4 13 3.327 13 2.5v-1C13 0.673 12.327 0 11.5 0h-8C1.57 0 0 1.57 0 3.5V22c0 1.103 0.897 2 2 2h2c1.103 0 2-0.897 2-2v-3h0.5C6.776 19 7 18.776 7 18.5S6.776 18 6.5 18zM6 1h5.5C11.775 1 12 1.224 12 1.5v1C12 2.776 11.775 3 11.5 3h-5C6.225 3 6 2.776 6 2.5zM5 22c0 0.551-0.448 1-1 1H2c-0.552 0-1-0.449-1-1v-3h4z" />
</svg>