<svg id="train_clock_Layer_1" viewBox="0 0 24 24" fill="currentColor" width="32" height="32" data-name="Layer 1" xmlns="http://www.w3.org/2000/svg" xmlns:xlink="http://www.w3.org/1999/xlink">
    <title>train-clock</title>
    <path d="M12 12c-3.309 0-6 2.691-6 6s2.691 6 6 6 6-2.691 6-6-2.691-6-6-6zM12 23c-2.757 0-5-2.243-5-5s2.243-5 5-5 5 2.243 5 5-2.243 5-5 5zM13.854 19.146c0.195 0.195 0.195 0.512 0 0.707s-0.512 0.195-0.707 0l-1.5-1.5c-0.094-0.094-0.146-0.221-0.146-0.354v-2.5c0-0.276 0.224-0.5 0.5-0.5s0.5 0.224 0.5 0.5v2.293zM23.829 11.157C22.137 5.763 17.614 0 9.989 0H0.5C0.224 0 0 0.224 0 0.5S0.224 1 0.5 1H4v6H0.5C0.224 7 0 7.224 0 7.5S0.224 8 0.5 8h20.861c0.642 1.125 1.15 2.298 1.512 3.456 0.262 0.833 0.113 1.717-0.405 2.424C21.945 14.592 21.14 15 20.259 15c-0.276 0-0.5 0.224-0.5 0.5s0.224 0.5 0.5 0.5c1.202 0 2.302-0.557 3.015-1.527 0.71-0.967 0.912-2.175 0.555-3.316zM5 1h4.989C10.335 1 10.668 1.023 11 1.048V7H5zM12 7V1.167C15.931 1.778 18.83 4.135 20.744 7zM4.5 15.5C4.5 15.776 4.276 16 4 16H0.5C0.224 16 0 15.776 0 15.5S0.224 15 0.5 15H4c0.276 0 0.5 0.224 0.5 0.5z" />
</svg>