<svg id="train_tram_Layer_1" viewBox="0 0 24 24" fill="currentColor" width="32" height="32" data-name="Layer 1" xmlns="http://www.w3.org/2000/svg" xmlns:xlink="http://www.w3.org/1999/xlink">
    <title>train-tram</title>
    <path d="M16.5 4h-4V1.005c3.806 0.074 6.826 0.964 6.856 0.973 0.048 0.015 0.096 0.021 0.144 0.021 0.215 0 0.414-0.14 0.479-0.356 0.08-0.265-0.07-0.543-0.335-0.622C19.505 0.979 16.193 0 12 0S4.495 0.979 4.356 1.021C4.091 1.1 3.941 1.378 4.021 1.643 4.1 1.909 4.379 2.058 4.643 1.978c0.031-9e-3 3.051-0.899 6.856-0.973V4H7.5C5.019 4 3 6.019 3 8.5v8C3 18.981 5.019 21 7.5 21h0.066l-1.482 2.223c-0.153 0.229-0.091 0.54 0.139 0.693C6.308 23.973 6.405 24 6.5 24c0.161 0 0.319-0.078 0.416-0.223L8.768 21h6.465l1.852 2.777C17.182 23.922 17.34 24 17.501 24c0.096 0 0.192-0.027 0.277-0.084 0.229-0.153 0.292-0.464 0.139-0.693L16.435 21h0.066c2.481 0 4.5-2.019 4.5-4.5v-8c0-2.481-2.019-4.5-4.501-4.5zM12.5 14V9H20v5zM4 14V9h7.5v5zM7.5 5h9c1.76 0 3.221 1.306 3.464 3H4.036C4.279 6.306 5.74 5 7.5 5zM16.5 20h-0.993c0 0-9e-3 0-0.013 0H7.5C5.57 20 4 18.43 4 16.5V15h3v1.5C7 16.776 7.224 17 7.5 17S8 16.776 8 16.5V15h8v1.5c0 0.276 0.224 0.5 0.5 0.5s0.5-0.224 0.5-0.5V15h3v1.5c0 1.93-1.57 3.5-3.5 3.5z" />
</svg>