<svg id="train_journey_Layer_1" viewBox="0 0 24 24" fill="currentColor" width="32" height="32" data-name="Layer 1" xmlns="http://www.w3.org/2000/svg" xmlns:xlink="http://www.w3.org/1999/xlink">
    <title>train-journey</title>
    <path d="M9.001 17.154C8.455 15.846 7.188 15 5.77 15H0.5C0.224 15 0 15.224 0 15.5S0.224 16 0.5 16H4v2H0.5C0.224 18 0 18.224 0 18.5S0.224 19 0.5 19H4v2H0.5C0.224 21 0 21.224 0 21.5S0.224 22 0.5 22H1c0 1.103 0.897 2 2 2 0.6 0 1.133-0.271 1.5-0.691C4.867 23.729 5.4 24 6 24c1.103 0 2-0.897 2-2 0-2e-3-1e-3-3e-3-1e-3-5e-3 0.668-0.014 1.285-0.347 1.656-0.904 0.38-0.569 0.449-1.287 0.187-1.919zM5 16h0.77c1.013 0 1.919 0.604 2.308 1.539L8.27 18H5.001zM3 23c-0.552 0-1-0.449-1-1h2c0 0.551-0.448 1-1 1zM6 23c-0.552 0-1-0.449-1-1h2c0 0.551-0.448 1-1 1zM8.823 20.536C8.626 20.831 8.31 21 7.956 21H5v-2h3.686l0.232 0.556c0.137 0.328 0.102 0.685-0.095 0.98zM17.337 10.367c0.458 0.449 1.061 0.673 1.663 0.673s1.204-0.224 1.663-0.673l1.872-1.831C23.479 7.592 24 6.336 24 5s-0.521-2.591-1.465-3.536S20.335 0 19 0s-2.592 0.52-3.535 1.464C14.521 2.408 14 3.664 14 5s0.521 2.591 1.469 3.54zM16.172 2.172c0.755-0.755 1.76-1.171 2.828-1.171s2.072 0.416 2.828 1.171S23 3.932 23 5.001s-0.416 2.073-1.168 2.825l-1.868 1.827c-0.531 0.522-1.396 0.52-1.928 0L16.172 7.83C15.416 7.075 15 6.07 15 5.001s0.416-2.073 1.172-2.829zM24 18.501c0 1.93-1.57 3.5-3.5 3.5h-8c-0.276 0-0.5-0.224-0.5-0.5s0.224-0.5 0.5-0.5h8c1.379 0 2.5-1.122 2.5-2.5s-1.121-2.5-2.5-2.5h-9c-1.93 0-3.5-1.57-3.5-3.5s1.57-3.5 3.5-3.5h2c0.276 0 0.5 0.224 0.5 0.5s-0.224 0.5-0.5 0.5h-2c-1.379 0-2.5 1.122-2.5 2.5s1.121 2.5 2.5 2.5h9c1.93 0 3.5 1.57 3.5 3.5zM20.001 4.788c0 0.552-0.448 1-1 1s-1-0.448-1-1 0.448-1 1-1 1 0.448 1 1z" />
</svg>