<svg id="train_track_Layer_1" viewBox="0 0 24 24" fill="currentColor" width="32" height="32" data-name="Layer 1" xmlns="http://www.w3.org/2000/svg" xmlns:xlink="http://www.w3.org/1999/xlink">
    <title>train-track</title>
    <path d="M23.991 21.34l-0.107-1C23.802 19.576 23.161 19 22.393 19H20.14l-0.217-2h1.578c0.425 0 0.832-0.181 1.116-0.498s0.421-0.74 0.375-1.162l-0.107-1C22.803 13.576 22.162 13 21.394 13h-1.905l-0.217-2h1.73c0.425 0 0.832-0.181 1.116-0.498 0.284-0.316 0.421-0.74 0.375-1.162l-0.107-1C22.304 7.576 21.662 7 20.894 7h-2.057L18.62 5h1.382c0.425 0 0.832-0.181 1.116-0.498s0.421-0.74 0.375-1.162l-0.107-1C21.304 1.576 20.663 1 19.895 1H18.12c-0.21-0.583-0.744-1-1.389-1-0.426 0-0.833 0.182-1.117 0.499C15.482 0.646 15.385 0.818 15.321 1H8.684C8.619 0.817 8.523 0.646 8.391 0.499 8.107 0.182 7.7 0 7.274 0 6.629 0 6.095 0.417 5.885 1H4.11C3.341 1 2.7 1.576 2.619 2.34l-0.107 1C2.467 3.762 2.603 4.186 2.887 4.502S3.578 5 4.003 5h1.382L5.168 7H3.111c-0.768 0-1.41 0.576-1.492 1.34l-0.107 1c-0.045 0.422 0.091 0.846 0.375 1.162S2.577 11 3.003 11h1.73l-0.217 2H2.611c-0.769 0-1.41 0.576-1.491 1.34l-0.107 1c-0.045 0.422 0.091 0.846 0.375 1.162S2.079 17 2.504 17h1.578l-0.217 2H1.607c-0.769 0-1.41 0.576-1.491 1.34l-0.107 1c-0.045 0.422 0.091 0.846 0.375 1.162S1.075 23 1.5 23h2.079c0.065 0.183 0.161 0.354 0.293 0.501C4.156 23.818 4.563 24 4.989 24c0.645 0 1.179-0.417 1.389-1h11.243c0.21 0.583 0.744 1 1.389 1 0.426 0 0.833-0.182 1.117-0.499 0.132-0.147 0.229-0.319 0.293-0.501h2.079c0.425 0 0.832-0.181 1.116-0.498s0.421-0.74 0.376-1.162zM21.392 14c0.256 0 0.47 0.192 0.497 0.447l0.107 1c0.015 0.143-0.029 0.28-0.125 0.387S21.642 16 21.499 16h-1.687l-0.217-2zM20.892 8c0.256 0 0.47 0.192 0.498 0.447l0.107 1c0.015 0.143-0.029 0.281-0.125 0.387C21.276 9.941 21.143 10 21 10h-1.838l-0.217-2zM20.39 2.447l0.107 1c0.015 0.143-0.029 0.28-0.125 0.387S20.143 4 20 4h-1.491l-0.217-2h1.601c0.256 0 0.47 0.192 0.497 0.447zM8.726 2h6.548l0.217 2H8.508zM7.422 14h9.156l0.217 2H7.204zM15.6 5l0.217 2H8.182l0.217-2zM8.074 8h7.852l0.217 2H7.857zM7.748 11h8.504l0.217 2H7.531zM7.096 17h9.808l0.217 2H6.878zM6.77 20h10.46l0.217 2H6.552zM4 4C3.856 4 3.724 3.941 3.628 3.834S3.488 3.59 3.503 3.447l0.107-1C3.637 2.192 3.851 2 4.107 2h1.601L5.491 4zM3 10c-0.144 0-0.276-0.059-0.372-0.166-0.096-0.106-0.14-0.244-0.125-0.387l0.107-1C2.637 8.192 2.851 8 3.108 8h1.948l-0.217 2zM2.5 16c-0.144 0-0.276-0.059-0.372-0.166s-0.14-0.244-0.125-0.387l0.107-1C2.137 14.192 2.351 14 2.607 14h1.797l-0.217 2zM1.128 21.834c-0.096-0.107-0.14-0.244-0.125-0.387l0.107-1C1.137 20.192 1.351 20 1.607 20h2.145l-0.217 2H1.5c-0.144 0-0.276-0.059-0.372-0.166zM4.617 22.834c-0.081-0.091-0.117-0.206-0.118-0.326 0-3e-3 2e-3-5e-3 2e-3-8e-3 0-9e-3-4e-3-0.016-5e-3-0.024 0-0.01-4e-3-0.019-3e-3-0.029L6.774 1.446C6.802 1.192 7.015 1 7.271 1 7.415 1 7.547 1.059 7.644 1.166 7.74 1.273 7.784 1.411 7.769 1.554l-2.282 21c-0.044 0.397-0.603 0.577-0.87 0.28zM18.514 22.554l-2.283-21c-0.016-0.143 0.029-0.28 0.125-0.388C16.452 1.059 16.585 1 16.729 1c0.256 0 0.469 0.192 0.497 0.446l2.282 21c1e-3 0.01-3e-3 0.019-3e-3 0.029 0 9e-3-5e-3 0.016-5e-3 0.024 0 3e-3 2e-3 5e-3 2e-3 8e-3-2e-3 0.12-0.037 0.234-0.118 0.326-0.267 0.297-0.827 0.117-0.87-0.279zM22.872 21.834C22.776 21.941 22.643 22 22.5 22h-2.035l-0.217-2h2.145c0.256 0 0.47 0.192 0.497 0.447l0.107 1c0.015 0.143-0.029 0.28-0.125 0.387z" />
</svg>