<svg id="trailer_Layer_1" viewBox="0 0 24 24" fill="currentColor" width="32" height="32" data-name="Layer 1" xmlns="http://www.w3.org/2000/svg" xmlns:xlink="http://www.w3.org/1999/xlink">
    <title>trailer</title>
    <path d="M23.5 20H21V4.5C21 2.019 18.981 0 16.5 0h-12C2.019 0 0 2.019 0 4.5v12c0 2.324 1.77 4.241 4.032 4.476C4.265 22.682 5.731 24 7.5 24s3.221-1.306 3.464-3H23.5c0.276 0 0.5-0.224 0.5-0.5S23.776 20 23.5 20zM4.5 1h12C18.43 1 20 2.57 20 4.5V13h-3V4.5C17 4.224 16.776 4 16.5 4S16 4.224 16 4.5V13h-3V4.5C13 4.224 12.776 4 12.5 4S12 4.224 12 4.5V13H9V4.5C9 4.224 8.776 4 8.5 4S8 4.224 8 4.5V13H5V4.5C5 4.224 4.776 4 4.5 4S4 4.224 4 4.5V13H1V4.5C1 2.57 2.57 1 4.5 1zM1 16.5V14h19v6h-9.036c-0.243-1.694-1.704-3-3.464-3-1.749 0-3.204 1.291-3.46 2.97C2.327 19.744 1 18.274 1 16.5zM7.5 23C6.122 23 5 21.879 5 20.5S6.122 18 7.5 18 10 19.121 10 20.5 8.878 23 7.5 23z" />
</svg>