<svg id="tram_Layer_1" viewBox="0 0 24 24" fill="currentColor" width="32" height="32" data-name="Layer 1" xmlns="http://www.w3.org/2000/svg" xmlns:xlink="http://www.w3.org/1999/xlink">
    <title>tram</title>
    <path d="M19.5 9H12V3c0-1.103-0.897-2-2-2S8 1.897 8 3s0.897 2 2 2c0.364 0 0.706-0.098 1-0.269V9H4.5C2.019 9 0 11.019 0 13.5v6C0 21.981 2.019 24 4.5 24h15c2.481 0 4.5-2.019 4.5-4.5v-6c0-2.481-2.019-4.5-4.5-4.5zM10 4C9.449 4 9 3.551 9 3s0.449-1 1-1 1 0.449 1 1-0.449 1-1 1zM23 13.5V16h-6v-6h2.5c1.93 0 3.5 1.57 3.5 3.5zM8 16v-6h8v6zM4.5 10H7v6H1v-2.5C1 11.57 2.57 10 4.5 10zM19.5 23h-15C2.57 23 1 21.43 1 19.5V17h22v2.5c0 1.93-1.57 3.5-3.5 3.5zM15 4c1.103 0 2-0.897 2-2s-0.897-2-2-2-2 0.897-2 2 0.897 2 2 2zM15 1c0.551 0 1 0.449 1 1s-0.449 1-1 1-1-0.449-1-1 0.449-1 1-1zM19.008 1.316c-0.05-0.271 0.13-0.532 0.402-0.581l4.001-0.727c0.27-0.053 0.532 0.13 0.581 0.402 0.05 0.271-0.13 0.532-0.402 0.581l-4 0.727c-0.03 6e-3-0.06 8e-3-0.09 8e-3-0.237 0-0.448-0.169-0.492-0.41zM8e-3 4.771C-0.042 4.5 0.138 4.239 0.41 4.19l5-0.909c0.273-0.051 0.532 0.13 0.581 0.402 0.05 0.271-0.13 0.532-0.402 0.581l-5 0.909c-0.03 6e-3-0.06 8e-3-0.09 8e-3-0.237 0-0.448-0.169-0.491-0.41z" />
</svg>