<svg id="transformation_circle_Layer_1" viewBox="0 0 24 24" fill="currentColor" width="32" height="32" data-name="Layer 1" xmlns="http://www.w3.org/2000/svg" xmlns:xlink="http://www.w3.org/1999/xlink">
    <title>transformation-circle</title>
    <path d="M24 8.5c0 3.025-1.628 5.847-4.25 7.362-0.078 0.046-0.165 0.067-0.25 0.067-0.172 0-0.34-0.09-0.433-0.25-0.139-0.239-0.057-0.545 0.183-0.683 2.312-1.338 3.75-3.827 3.75-6.497 0-4.136-3.364-7.5-7.5-7.5-2.669 0-5.159 1.438-6.497 3.75C8.865 4.987 8.559 5.07 8.32 4.932S7.999 4.488 8.138 4.249C9.654 1.628 12.475 0 15.5 0 20.187 0 24 3.813 24 8.5zM19 8.5V5.707l-4.156 4.156C16.18 11.365 17 13.336 17 15.5c0 4.687-3.813 8.5-8.5 8.5S0 20.187 0 15.5 3.813 7 8.5 7c2.164 0 4.135 0.82 5.637 2.156l4.161-4.161L15.501 5v0c-0.275 0-0.499-0.224-0.5-0.499 0-0.276 0.223-0.5 0.499-0.501l2.994-6e-3c0.831 0 1.507 0.676 1.507 1.506v3c0 0.276-0.224 0.5-0.5 0.5S19.001 8.776 19 8.5zM16 15.5C16 11.364 12.636 8 8.5 8S1 11.364 1 15.5 4.364 23 8.5 23 16 19.636 16 15.5z" />
</svg>