<svg id="transparency_Layer_1" viewBox="0 0 24 24" fill="currentColor" width="32" height="32" data-name="Layer 1" xmlns="http://www.w3.org/2000/svg" xmlns:xlink="http://www.w3.org/1999/xlink">
    <title>transparency</title>
    <path d="M21.702 11.282c-0.155-0.229-0.097-0.54 0.132-0.695 0.227-0.153 0.538-0.097 0.694 0.131 0.659 0.967 1.104 2.04 1.322 3.188 0.052 0.271-0.127 0.533-0.398 0.584-0.031 6e-3-0.062 9e-3-0.094 9e-3-0.235 0-0.444-0.167-0.49-0.407-0.192-1.013-0.585-1.958-1.166-2.81zM14.093 22.868c-1.012-0.192-1.958-0.584-2.811-1.166-0.229-0.154-0.538-0.097-0.695 0.131-0.155 0.228-0.097 0.539 0.131 0.695 0.968 0.66 2.051 1.215 3.283 1.331 0.235 0 0.445-0.167 0.49-0.407 0.052-0.271-0.127-0.533-0.398-0.584zM23.452 16.509c-0.269-0.052-0.532 0.126-0.584 0.398-0.192 1.013-0.585 1.959-1.166 2.812-0.155 0.228-0.097 0.54 0.132 0.695 0.086 0.059 0.184 0.087 0.281 0.087 0.159 0 0.316-0.076 0.413-0.218 0.659-0.967 1.104-2.04 1.322-3.189 0.052-0.271-0.127-0.533-0.398-0.585zM17 8.5c0 4.687-3.813 8.5-8.5 8.5-0.113 0-0.223-0.013-0.335-0.017 0.196 0.974 0.566 1.904 1.133 2.735 0.155 0.228 0.097 0.539-0.132 0.695C9.08 20.472 8.982 20.5 8.885 20.5c-0.159 0-0.316-0.076-0.413-0.218-0.702-1.029-1.155-2.188-1.353-3.404C3.088 16.214 0 12.716 0 8.5 0 3.813 3.813 0 8.5 0c4.215 0 7.714 3.088 8.377 7.118 1.216 0.198 2.375 0.652 3.404 1.353 0.229 0.155 0.287 0.466 0.132 0.695-0.155 0.23-0.468 0.286-0.694 0.131-0.831-0.566-1.762-0.937-2.736-1.133C16.987 8.276 17 8.386 17 8.5zM7 15.5C7 10.813 10.813 7 15.5 7c0.119 0 0.235 0.021 0.353 0.026C15.166 3.594 12.131 1 8.5 1 4.364 1 1 4.364 1 8.5c0 3.631 2.594 6.666 6.026 7.353C7.021 15.735 7 15.619 7 15.5zM16 8.5c0-0.157-0.014-0.31-0.024-0.465C15.817 8.025 15.66 8 15.5 8 11.364 8 8 11.364 8 15.5c0 0.161 0.025 0.317 0.035 0.476C8.189 15.986 8.343 16 8.5 16c4.136 0 7.5-3.364 7.5-7.5zM20.413 21.833c-0.155-0.229-0.467-0.285-0.695-0.131-0.853 0.582-1.799 0.974-2.811 1.166-0.271 0.051-0.45 0.313-0.398 0.584 0.045 0.24 0.255 0.407 0.49 0.407 1.36-0.141 2.315-0.671 3.283-1.331 0.228-0.156 0.286-0.467 0.131-0.695z" />
</svg>