<svg id="transaction_globe_Layer_1" viewBox="0 0 24 24" fill="currentColor" width="32" height="32" data-name="Layer 1" xmlns="http://www.w3.org/2000/svg" xmlns:xlink="http://www.w3.org/1999/xlink">
    <title>transaction-globe</title>
    <path d="M7.732 8h8.537c0.389 1.105 0.665 2.287 0.721 3.522C17.002 11.79 17.222 12 17.489 12c7e-3 0 0.015 0 0.022 0 0.275-0.012 0.489-0.246 0.477-0.522-0.055-1.22-0.298-2.386-0.651-3.478h4.907c0.426 1.098 0.693 2.279 0.746 3.521 0.012 0.275 0.198 0.494 0.521 0.478 0.275-0.012 0.49-0.245 0.479-0.521C23.714 5.042 18.447 0 12 0c-5e-3 0-9e-3 0-0.013 0-2e-3 0-4e-3 0-7e-3 0C5.373 0.012 0 5.39 0 12s5.383 12 12 12c1.245 0 2.474-0.19 3.651-0.565 0.264-0.084 0.409-0.365 0.325-0.628s-0.367-0.408-0.628-0.325c-1.017 0.324-2.077 0.492-3.151 0.511-0.556-0.557-2.719-2.853-4.077-5.992h6.379c0.276 0 0.5-0.224 0.5-0.5s-0.224-0.5-0.5-0.5H7.73c-0.438-1.246-0.73-2.593-0.73-4S7.292 9.248 7.732 8zM8.123 7c1.229-2.838 3.116-4.99 3.878-5.788C12.763 2.01 14.649 4.163 15.878 7zM21.796 7h-4.82c-1.066-2.668-2.716-4.78-3.735-5.925 3.745 0.418 6.914 2.703 8.555 5.925zM10.76 1.075C9.741 2.219 8.096 4.332 7.029 7H2.214c1.645-3.206 4.812-5.504 8.546-5.925zM10.76 22.925C7.026 22.504 3.859 20.206 2.214 17h4.815c1.067 2.669 2.712 4.781 3.731 5.925zM1.764 16C1.277 14.758 1 13.412 1 12s0.277-2.758 0.764-4h4.905C6.265 9.248 6 10.589 6 12s0.265 2.752 0.669 4zM24 20.605C24 21.925 22.926 23 21.605 23H21v0.5c0 0.276-0.224 0.5-0.5 0.5S20 23.776 20 23.5V23h-0.5c-1.379 0-2.5-1.121-2.5-2.5 0-0.276 0.224-0.5 0.5-0.5s0.5 0.224 0.5 0.5c0 0.827 0.673 1.5 1.5 1.5h2.105C22.374 22 23 21.374 23 20.605c0-0.685-0.49-1.264-1.165-1.376l-2.834-0.473C17.842 18.563 17 17.569 17 16.394c0-1.32 1.074-2.395 2.395-2.395H20v-0.5c0-0.276 0.224-0.5 0.5-0.5s0.5 0.224 0.5 0.5v0.5h0.5c1.379 0 2.5 1.121 2.5 2.5 0 0.276-0.224 0.5-0.5 0.5s-0.5-0.224-0.5-0.5c0-0.827-0.673-1.5-1.5-1.5h-2.105c-0.769 0-1.395 0.626-1.395 1.395 0 0.685 0.49 1.264 1.165 1.376l2.834 0.473C23.158 18.436 24 19.43 24 20.605z" />
</svg>