<svg id="transformer_bolt_Layer_1" viewBox="0 0 24 24" fill="currentColor" width="32" height="32" data-name="Layer 1" xmlns="http://www.w3.org/2000/svg" xmlns:xlink="http://www.w3.org/1999/xlink">
    <title>transformer-bolt</title>
    <path d="M22.5 23H21V6h1.5C22.776 6 23 5.776 23 5.5S22.776 5 22.5 5H19V3.5C19 2.673 18.327 2 17.5 2H17V0.5C17 0.224 16.776 0 16.5 0S16 0.224 16 0.5V2h-0.5C14.673 2 14 2.673 14 3.5V5h-4V3.5C10 2.673 9.327 2 8.5 2H8V0.5C8 0.224 7.776 0 7.5 0S7 0.224 7 0.5V2H6.5C5.673 2 5 2.673 5 3.5V5H1.5C1.224 5 1 5.224 1 5.5S1.224 6 1.5 6H3v17H1.5C1.224 23 1 23.224 1 23.5S1.224 24 1.5 24h21c0.276 0 0.5-0.224 0.5-0.5S22.776 23 22.5 23zM15 3.5C15 3.224 15.224 3 15.5 3h2C17.776 3 18 3.224 18 3.5V5h-3zM6 3.5C6 3.224 6.224 3 6.5 3h2C8.776 3 9 3.224 9 3.5V5H6zM4 6h16v17H4zM14.831 14.738c0.246 0.457 0.22 1.009-0.066 1.442l-2.759 4.579c-0.094 0.156-0.259 0.242-0.429 0.242-0.088 0-0.177-0.023-0.258-0.072-0.236-0.143-0.312-0.45-0.17-0.687l2.771-4.597c0.132-0.201 0.065-0.37 0.031-0.434-0.035-0.064-0.138-0.213-0.357-0.213h-3.17c-0.455 0-0.872-0.209-1.143-0.575s-0.351-0.825-0.219-1.26c0.013-0.043 3.093-4.93 3.093-4.93 0.147-0.233 0.458-0.303 0.69-0.156 0.233 0.147 0.303 0.457 0.156 0.69l-2.994 4.739c-0.019 0.112 8e-3 0.227 0.078 0.32 0.081 0.108 0.204 0.171 0.339 0.171h3.17c0.519 0 0.993 0.284 1.237 0.741z" />
</svg>