<svg id="transformation_shapes_Layer_1" viewBox="0 0 24 24" fill="currentColor" width="32" height="32" data-name="Layer 1" xmlns="http://www.w3.org/2000/svg" xmlns:xlink="http://www.w3.org/1999/xlink">
    <title>transformation-shapes</title>
    <path d="M6.5 0C2.916 0 0 2.916 0 6.5S2.916 13 6.5 13 13 10.084 13 6.5 10.084 0 6.5 0zM6.5 12C3.468 12 1 9.532 1 6.5S3.468 1 6.5 1 12 3.468 12 6.5 9.532 12 6.5 12zM20.5 12h-5c-1.93 0-3.5 1.57-3.5 3.5v5c0 1.93 1.57 3.5 3.5 3.5h5c1.93 0 3.5-1.57 3.5-3.5v-5c0-1.93-1.57-3.5-3.5-3.5zM23 20.5c0 1.379-1.121 2.5-2.5 2.5h-5c-1.379 0-2.5-1.121-2.5-2.5v-5c0-1.379 1.121-2.5 2.5-2.5h5c1.379 0 2.5 1.121 2.5 2.5zM24 6.5v3c0 0.276-0.224 0.5-0.5 0.5S23 9.776 23 9.5v-3C23 5.121 21.879 4 20.5 4h-4.199l2.06 2.154c0.19 0.2 0.184 0.517-0.016 0.707C18.248 6.954 18.123 7 17.999 7c-0.132 0-0.263-0.052-0.361-0.154l-2.219-2.32c-0.562-0.562-0.562-1.489 8e-3-2.059l2.212-2.313c0.192-0.199 0.509-0.206 0.707-0.016 0.199 0.19 0.206 0.507 0.016 0.707l-2.06 2.154h4.199c1.93 0 3.5 1.57 3.499 3.501zM8.58 19.475c0.562 0.562 0.562 1.489-8e-3 2.059l-2.211 2.312C6.262 23.949 6.132 24 6 24c-0.124 0-0.249-0.046-0.346-0.139-0.199-0.19-0.206-0.507-0.016-0.707L7.698 21H3.5C1.57 21 0 19.43 0 17.5v-3C0 14.224 0.224 14 0.5 14S1 14.224 1 14.5v3C1 18.879 2.121 20 3.5 20h4.199l-2.06-2.154c-0.19-0.2-0.184-0.517 0.016-0.707 0.2-0.191 0.516-0.184 0.707 0.016z" />
</svg>