<svg id="transaction_yen_Layer_1" viewBox="0 0 24 24" fill="currentColor" width="32" height="32" data-name="Layer 1" xmlns="http://www.w3.org/2000/svg" xmlns:xlink="http://www.w3.org/1999/xlink">
    <title>transaction-yen</title>
    <path d="M15.686 8.318 12.649 12h1.352c0.276 0 0.5 0.224 0.5 0.5s-0.224 0.5-0.5 0.5h-1.5v1h1.5c0.276 0 0.5 0.224 0.5 0.5s-0.224 0.5-0.5 0.5h-1.5v1.5c0 0.276-0.224 0.5-0.5 0.5s-0.5-0.224-0.5-0.5V15h-1.5c-0.276 0-0.5-0.224-0.5-0.5s0.224-0.5 0.5-0.5h1.5v-1h-1.5c-0.276 0-0.5-0.224-0.5-0.5s0.224-0.5 0.5-0.5h1.352L8.316 8.318C8.14 8.105 8.17 7.79 8.383 7.614 8.597 7.438 8.911 7.469 9.087 7.681l2.914 3.533 2.914-3.533c0.176-0.212 0.49-0.243 0.704-0.067 0.213 0.176 0.243 0.491 0.067 0.704zM23.635 2.555 21.226 0.146c-0.195-0.195-0.512-0.195-0.707 0s-0.195 0.512 0 0.707l2.146 2.146H12C7.038 3 3 7.038 3 12c0 2.133 0.759 4.201 2.139 5.824 0.179 0.211 0.496 0.235 0.705 0.057 0.21-0.179 0.236-0.494 0.057-0.705-1.226-1.441-1.9-3.28-1.9-5.176 0-4.411 3.589-8 8-8h10.666l-2.146 2.146c-0.195 0.195-0.195 0.512 0 0.707s0.512 0.195 0.707 0l2.409-2.409c0.519-0.497 0.519-1.392-2e-3-1.889zM18.178 6.14c-0.211 0.178-0.238 0.494-0.06 0.705C19.331 8.284 20 10.115 20 12c0 4.411-3.589 8-8 8H1.334l2.147-2.146c0.195-0.195 0.195-0.512 0-0.707s-0.512-0.195-0.707 0l-2.408 2.407c-0.522 0.521-0.522 1.371 0 1.893l2.408 2.407c0.195 0.195 0.512 0.195 0.707 0s0.195-0.512 0-0.707l-2.147-2.146H12c4.962 0 9-4.037 9-9 0-2.121-0.752-4.18-2.117-5.799-0.178-0.211-0.494-0.239-0.705-0.062z" />
</svg>