<svg id="transporter_2_Layer_1" viewBox="0 0 24 24" fill="currentColor" width="32" height="32" data-name="Layer 1" xmlns="http://www.w3.org/2000/svg" xmlns:xlink="http://www.w3.org/1999/xlink">
    <title>transporter-2</title>
    <path d="M6.093 10.209 7.754 7.884C8.597 6.704 9.965 6 11.416 6h1.168c1.451 0 2.819 0.704 3.662 1.885l1.661 2.324c0.16 0.225 0.108 0.537-0.116 0.698C17.702 10.969 17.601 11 17.5 11c-0.155 0-0.31-0.072-0.407-0.209l-1.661-2.325C14.778 7.548 13.712 7 12.584 7h-1.168c-1.128 0-2.193 0.548-2.848 1.465l-1.661 2.326c-0.161 0.224-0.473 0.275-0.698 0.116-0.225-0.161-0.276-0.474-0.116-0.698zM24 4c0 0.204-0.124 0.389-0.314 0.464l-2.301 0.921-0.921 2.301C20.389 7.876 20.204 8 20 8s-0.389-0.124-0.464-0.314L18.613 5.38 16.305 4.407c-0.188-0.08-0.31-0.266-0.306-0.47 4e-3-0.205 0.132-0.387 0.323-0.459l2.294-0.868 0.919-2.296c0.15-0.381 0.777-0.381 0.928 0l0.921 2.301 2.301 0.921C23.875 3.611 23.999 3.796 24 4zM22.153 4 20.814 3.464c-0.127-0.051-0.228-0.151-0.278-0.278L20 1.847 19.464 3.186c-0.052 0.13-0.156 0.232-0.287 0.282l-1.33 0.504 1.348 0.567c0.123 0.052 0.221 0.151 0.27 0.275l0.536 1.339 0.536-1.339c0.051-0.127 0.151-0.228 0.278-0.278zM9.5 2.5C9.5 1.121 10.621 0 12 0s2.5 1.121 2.5 2.5S13.379 5 12 5 9.5 3.879 9.5 2.5zM10.5 2.5C10.5 3.327 11.173 4 12 4s1.5-0.673 1.5-1.5S12.827 1 12 1s-1.5 0.673-1.5 1.5zM19.5 23h-15C4.224 23 4 23.224 4 23.5S4.224 24 4.5 24h15c0.276 0 0.5-0.224 0.5-0.5S19.776 23 19.5 23zM8.5 19C8.224 19 8 19.224 8 19.5S8.224 20 8.5 20h7c0.276 0 0.5-0.224 0.5-0.5S15.776 19 15.5 19zM17 14.5c0-0.276-0.224-0.5-0.5-0.5h-9C7.224 14 7 14.224 7 14.5S7.224 15 7.5 15h9c0.276 0 0.5-0.224 0.5-0.5zM5.63 17.444 3.914 17.906 3.485 19.621C3.429 19.844 3.229 20 3 20s-0.43-0.156-0.485-0.379l-0.427-1.709-1.709-0.427C0.156 17.429 0 17.229 0 17s0.156-0.43 0.379-0.485l1.709-0.427 0.427-1.709C2.571 14.156 2.771 14 3 14s0.43 0.156 0.485 0.379l0.425 1.703 1.702 0.393C5.836 16.527 5.996 16.724 6 16.954s-0.148 0.432-0.37 0.49z" />
</svg>