<svg id="transporter_7_Layer_1" viewBox="0 0 24 24" fill="currentColor" width="32" height="32" data-name="Layer 1" xmlns="http://www.w3.org/2000/svg" xmlns:xlink="http://www.w3.org/1999/xlink">
    <title>transporter-7</title>
    <path d="M20 23.5c0 0.276-0.224 0.5-0.5 0.5h-15C4.224 24 4 23.776 4 23.5S4.224 23 4.5 23h15c0.276 0 0.5 0.224 0.5 0.5zM4 8C3.796 8 3.611 7.876 3.536 7.686L2.613 5.38 0.305 4.407c-0.188-0.08-0.31-0.266-0.306-0.47 4e-3-0.205 0.132-0.387 0.323-0.459L2.616 2.61l0.92-2.296c0.15-0.381 0.777-0.381 0.928 0l0.921 2.301 2.301 0.921C7.876 3.611 8 3.796 8 4S7.876 4.389 7.686 4.464L5.385 5.385 4.464 7.686C4.389 7.876 4.204 8 4 8zM4 6.153 4.536 4.814c0.051-0.127 0.151-0.228 0.278-0.278L6.153 4 4.814 3.464C4.687 3.413 4.586 3.313 4.536 3.186L4 1.847 3.464 3.186c-0.052 0.13-0.156 0.232-0.287 0.282l-1.33 0.504 1.348 0.567c0.123 0.052 0.221 0.151 0.27 0.275zM24 16c0 0.229-0.156 0.43-0.379 0.485l-1.709 0.427-0.427 1.709C21.429 18.844 21.229 19 21 19s-0.43-0.156-0.485-0.379l-0.429-1.715-1.716-0.462c-0.222-0.06-0.374-0.262-0.37-0.491s0.164-0.427 0.388-0.479l1.702-0.394 0.425-1.702c0.111-0.445 0.859-0.445 0.971 0l0.427 1.709 1.709 0.427C23.845 15.57 24.001 15.77 24 16z" />
</svg>