<svg id="transporter_5_Layer_1" viewBox="0 0 24 24" fill="currentColor" width="32" height="32" data-name="Layer 1" xmlns="http://www.w3.org/2000/svg" xmlns:xlink="http://www.w3.org/1999/xlink">
    <title>transporter-5</title>
    <path d="M20 23.517C19.991 23.788 19.769 24 19.501 24H4.483C4.207 23.99 3.991 23.759 4 23.483S4.268 23.004 4.516 23h15c0.276 0.01 0.492 0.241 0.484 0.517zM7.5 14C7.224 14 7 14.224 7 14.5S7.224 15 7.5 15h9c0.276 0 0.5-0.224 0.5-0.5S16.776 14 16.5 14zM6.5 10h11c0.276 0 0.5-0.224 0.5-0.5S17.776 9 17.5 9h-11C6.224 9 6 9.224 6 9.5S6.224 10 6.5 10zM9.5 1h5C14.776 1 15 0.776 15 0.5S14.776 0 14.5 0h-5C9.224 0 9 0.224 9 0.5S9.224 1 9.5 1zM5.621 3.485 3.912 3.912 3.485 5.621C3.429 5.844 3.23 6 3 6S2.571 5.844 2.515 5.621L2.086 3.906 0.37 3.444C0.148 3.384-4e-3 3.182 0 2.953s0.164-0.427 0.387-0.479L2.089 2.08 2.515 0.378c0.11-0.445 0.858-0.445 0.97 0l0.427 1.709 1.709 0.427C5.844 2.57 6 2.77 6 2.999s-0.156 0.43-0.379 0.486zM24 17c0 0.204-0.125 0.389-0.314 0.464l-2.301 0.921-0.92 2.301C20.389 20.876 20.205 21 20.001 21s-0.388-0.124-0.464-0.314l-0.922-2.306-2.308-0.973c-0.188-0.08-0.31-0.266-0.306-0.47 4e-3-0.205 0.132-0.387 0.323-0.459l2.294-0.868 0.918-2.296c0.152-0.381 0.776-0.381 0.929 0l0.92 2.301 2.301 0.921C23.876 16.611 24 16.796 24 17zM22.154 17l-1.339-0.536c-0.127-0.051-0.228-0.151-0.279-0.278L20 14.847l-0.536 1.339c-0.052 0.13-0.156 0.232-0.288 0.282l-1.33 0.504 1.348 0.567c0.123 0.052 0.22 0.151 0.27 0.275L20 19.153l0.536-1.339c0.051-0.127 0.151-0.228 0.279-0.278z" />
</svg>