<svg id="transporter_4_Layer_1" viewBox="0 0 24 24" fill="currentColor" width="32" height="32" data-name="Layer 1" xmlns="http://www.w3.org/2000/svg" xmlns:xlink="http://www.w3.org/1999/xlink">
    <title>transporter-4</title>
    <path d="M20 23.5c0 0.276-0.224 0.5-0.5 0.5h-15C4.224 24 4 23.776 4 23.5S4.224 23 4.5 23h15c0.276 0 0.5 0.224 0.5 0.5zM8.5 19C8.224 19 8 19.224 8 19.5S8.224 20 8.5 20h7c0.276 0 0.5-0.224 0.5-0.5S15.776 19 15.5 19zM17 14.5c0-0.276-0.224-0.5-0.5-0.5h-9C7.224 14 7 14.224 7 14.5S7.224 15 7.5 15h9c0.276 0 0.5-0.224 0.5-0.5zM6.5 10h11c0.276 0 0.5-0.224 0.5-0.5S17.776 9 17.5 9h-11C6.224 9 6 9.224 6 9.5S6.224 10 6.5 10zM9.5 1h5C14.776 1 15 0.776 15 0.5S14.776 0 14.5 0h-5C9.224 0 9 0.224 9 0.5S9.224 1 9.5 1zM24 3c0 0.229-0.156 0.43-0.379 0.485l-1.709 0.427-0.427 1.709C21.429 5.844 21.23 6 21 6s-0.429-0.156-0.485-0.379l-0.429-1.715-1.716-0.462c-0.222-0.06-0.374-0.262-0.37-0.491s0.164-0.427 0.387-0.479l1.702-0.394 0.426-1.702c0.11-0.445 0.858-0.445 0.97 0l0.427 1.709 1.709 0.427C23.844 2.57 24 2.77 24 3zM4 21c-0.205 0-0.388-0.124-0.464-0.314L2.614 18.38 0.306 17.407c-0.188-0.08-0.31-0.266-0.306-0.47 4e-3-0.205 0.132-0.387 0.323-0.459l2.294-0.868 0.918-2.296c0.152-0.381 0.776-0.381 0.929 0l0.92 2.301 2.301 0.921c0.19 0.075 0.314 0.26 0.314 0.464s-0.125 0.389-0.314 0.464l-2.301 0.921-0.92 2.301C4.388 20.876 4.204 21 4 21zM4 19.153l0.536-1.339c0.051-0.127 0.151-0.228 0.279-0.278L6.154 17 4.815 16.464c-0.127-0.051-0.228-0.151-0.279-0.278L4 14.847 3.464 16.186c-0.052 0.13-0.156 0.232-0.288 0.282l-1.33 0.504 1.348 0.567c0.123 0.052 0.22 0.151 0.27 0.275zM8.5 5h7C15.776 5 16 4.776 16 4.5S15.776 4 15.5 4h-7C8.224 4 8 4.224 8 4.5S8.224 5 8.5 5z" />
</svg>