<svg id="transporter_1_Layer_1" viewBox="0 0 24 24" fill="currentColor" width="32" height="32" data-name="Layer 1" xmlns="http://www.w3.org/2000/svg" xmlns:xlink="http://www.w3.org/1999/xlink">
    <title>transporter-1</title>
    <path d="M23.612 4.475 21.91 4.081 21.485 2.379C21.429 2.156 21.229 2 21 2s-0.43 0.156-0.485 0.379l-0.427 1.709-1.709 0.427C18.156 4.571 18 4.771 18 5s0.156 0.43 0.379 0.485l1.709 0.427 0.427 1.709C20.571 7.844 20.771 8 21 8s0.43-0.156 0.485-0.379l0.429-1.715 1.716-0.462c0.222-0.06 0.374-0.262 0.37-0.491s-0.164-0.427-0.388-0.478zM12 5c1.379 0 2.5-1.121 2.5-2.5S13.379 0 12 0 9.5 1.121 9.5 2.5 10.621 5 12 5zM12 1c0.827 0 1.5 0.673 1.5 1.5S12.827 4 12 4s-1.5-0.673-1.5-1.5S11.173 1 12 1zM8.5 20C8.224 20 8 19.776 8 19.5S8.224 19 8.5 19h7c0.276 0 0.5 0.224 0.5 0.5S15.776 20 15.5 20zM4.464 7.686 5.387 5.38 7.695 4.407c0.188-0.08 0.31-0.266 0.306-0.47-4e-3-0.205-0.132-0.387-0.323-0.459L5.384 2.61 4.465 0.314c-0.15-0.381-0.777-0.381-0.928 0L2.616 2.615 0.314 3.536C0.124 3.611 0 3.796 0 4s0.124 0.389 0.314 0.464l2.301 0.921 0.921 2.301C3.611 7.876 3.796 8 4 8s0.389-0.124 0.464-0.314zM3.464 4.815C3.413 4.688 3.313 4.587 3.186 4.537L1.847 4.001 3.186 3.465c0.127-0.051 0.228-0.151 0.278-0.278L4 1.848 4.536 3.187c0.052 0.13 0.156 0.232 0.287 0.282l1.33 0.504L4.805 4.54c-0.123 0.052-0.221 0.151-0.27 0.275L3.999 6.154zM16.104 7.884C15.26 6.704 13.891 6 12.442 6h-0.883C10.11 6 8.741 6.704 7.897 7.884l-3.804 5.325c-0.16 0.226-0.108 0.537 0.116 0.698 0.227 0.159 0.537 0.107 0.698-0.116l3.804-5.325C8.8 8.341 8.897 8.224 9 8.113V13.5c0 0.827 0.673 1.5 1.5 1.5h3c0.827 0 1.5-0.673 1.5-1.5V8.113c0.103 0.111 0.2 0.228 0.289 0.353l3.804 5.325C19.191 13.928 19.345 14 19.5 14c0.101 0 0.202-0.03 0.291-0.093 0.225-0.161 0.276-0.473 0.116-0.698zM13.5 14h-3c-0.275 0-0.5-0.225-0.5-0.5V7.368C10.478 7.13 11.011 7 11.559 7h0.883c0.548 0 1.08 0.13 1.559 0.368V13.5c0 0.275-0.225 0.5-0.501 0.5zM20 23.5c0 0.276-0.224 0.5-0.5 0.5h-15C4.224 24 4 23.776 4 23.5S4.224 23 4.5 23h15c0.276 0 0.5 0.224 0.5 0.5z" />
</svg>