<svg id="translation_app_Layer_1" viewBox="0 0 24 24" fill="currentColor" width="32" height="32" data-name="Layer 1" xmlns="http://www.w3.org/2000/svg" xmlns:xlink="http://www.w3.org/1999/xlink">
    <title>translation-app</title>
    <path d="M8.5 20C8.776 20 9 20.224 9 20.5S8.776 21 8.5 21h-3C5.224 21 5 20.776 5 20.5S5.224 20 5.5 20zM10.5 17H1V4.5C1 2.57 2.57 1 4.5 1h4C8.776 1 9 0.776 9 0.5S8.776 0 8.5 0h-4C2.019 0 0 2.019 0 4.5v15C0 21.981 2.019 24 4.5 24h4C8.776 24 9 23.776 9 23.5S8.776 23 8.5 23h-4C2.57 23 1 21.43 1 19.5V18h9.5c0.276 0 0.5-0.224 0.5-0.5S10.776 17 10.5 17zM24 16.5v4c0 1.93-1.57 3.5-3.5 3.5h-8.214c-0.972 0.067-1.665-1.237-1.061-2.012L13 19.821V16.5c0-1.93 1.57-3.5 3.5-3.5h4c1.93 0 3.5 1.57 3.5 3.5zM23 16.5c0-1.379-1.121-2.5-2.5-2.5h-4c-1.379 0-2.5 1.121-2.5 2.5V20c0 0.115-0.04 0.228-0.113 0.317l-1.868 2.278c-0.053 0.194 4e-3 0.368 0.251 0.404h8.23c1.379 0 2.5-1.121 2.5-2.5zM24 3.5v4c0 1.93-1.57 3.5-3.5 3.5h-4C14.57 11 13 9.43 13 7.5V4.179l-1.755-2.141C10.624 1.236 11.28-0.074 12.302 0H20.5C22.43 0 24 1.569 24 3.5zM23 3.5C23 2.122 21.879 1 20.5 1h-8.214c-0.255 0.043-0.34 0.2-0.247 0.432l1.848 2.252C13.96 3.773 14 3.885 14 4.001v3.5c0 1.378 1.121 2.5 2.5 2.5h4c1.379 0 2.5-1.122 2.5-2.5zM21.5 17c0.276 0 0.5-0.224 0.5-0.5S21.776 16 21.5 16H19v-0.5c0-0.276-0.224-0.5-0.5-0.5S18 15.224 18 15.5V16h-2.5c-0.276 0-0.5 0.224-0.5 0.5s0.224 0.5 0.5 0.5h4.464c-0.089 0.725-0.397 2.073-1.461 3.003-0.483-0.426-0.863-0.984-1.13-1.682-0.099-0.259-0.389-0.387-0.646-0.288-0.258 0.099-0.387 0.388-0.288 0.646 0.24 0.629 0.626 1.302 1.204 1.881-0.568 0.27-1.268 0.44-2.142 0.44-0.276 0-0.5 0.224-0.5 0.5s0.224 0.5 0.5 0.5c1.277 0 2.248-0.307 3.001-0.767C19.255 21.691 20.224 22 21.501 22c0.276 0 0.5-0.224 0.5-0.5s-0.224-0.5-0.5-0.5c-0.826 0-1.538-0.152-2.146-0.44 1.169-1.176 1.512-2.763 1.607-3.56zM20.154 3.529l0.935 4.877c0.052 0.271-0.126 0.533-0.397 0.585-0.267 0.049-0.533-0.126-0.585-0.397L19.897 7.5h-2.851l-0.228 1.102c-0.055 0.272-0.328 0.444-0.591 0.388-0.271-0.056-0.444-0.321-0.388-0.591l1.016-4.907C16.975 2.876 17.566 2 18.501 2c0.891 0 1.506 0.769 1.653 1.529zM19.705 6.5 19.172 3.719C19.128 3.495 18.899 3 18.5 3c-0.378 0-0.626 0.486-0.665 0.689L17.253 6.5z" />
</svg>