<svg id="transgender_Layer_1" viewBox="0 0 24 24" fill="currentColor" width="32" height="32" data-name="Layer 1" xmlns="http://www.w3.org/2000/svg" xmlns:xlink="http://www.w3.org/1999/xlink">
    <title>transgender</title>
    <path d="M22 0h-3.5C18.224 0 18 0.224 18 0.5S18.224 1 18.5 1H22c0.089 0 0.176 0.012 0.259 0.034L15.873 7.42c-1.046-0.886-2.398-1.421-3.872-1.421S9.174 6.534 8.129 7.42L6.208 5.499 7.854 3.853c0.195-0.195 0.195-0.512 0-0.707s-0.512-0.195-0.707 0L5.501 4.792 1.741 1.034C1.824 1.012 1.91 1 2 1h3.5C5.776 1 6 0.776 6 0.5S5.776 0 5.5 0H2C0.897 0 0 0.897 0 2v3.5C0 5.776 0.224 6 0.5 6S1 5.776 1 5.5V2c0-0.089 0.012-0.176 0.034-0.259L4.793 5.5 3.147 7.146c-0.195 0.195-0.195 0.512 0 0.707 0.098 0.098 0.226 0.146 0.354 0.146S3.757 7.95 3.855 7.853l1.646-1.646 1.921 1.921C6.536 9.174 6.001 10.526 6.001 12c0 3.14 2.425 5.724 5.5 5.979V21h-2c-0.276 0-0.5 0.224-0.5 0.5s0.224 0.5 0.5 0.5h2v1.5c0 0.276 0.224 0.5 0.5 0.5s0.5-0.224 0.5-0.5V22h2c0.276 0 0.5-0.224 0.5-0.5s-0.224-0.5-0.5-0.5h-2v-3.021c3.075-0.255 5.5-2.839 5.5-5.979 0-1.475-0.535-2.827-1.421-3.872l6.386-6.386C22.988 1.825 23 1.911 23 2.001v3.5c0 0.276 0.224 0.5 0.5 0.5s0.5-0.224 0.5-0.5v-3.5c0-1.103-0.897-2-2-2.001zM12 17c-2.757 0-5-2.243-5-5s2.243-5 5-5 5 2.243 5 5-2.243 5-5 5z" />
</svg>