<svg id="trash_can_slash_Layer_1" viewBox="0 0 24 24" fill="currentColor" width="32" height="32" data-name="Layer 1" xmlns="http://www.w3.org/2000/svg" xmlns:xlink="http://www.w3.org/1999/xlink">
    <title>trash-can-slash</title>
    <path d="M23.854 23.146l-3.853-3.853L20.026 5h1.379c0.276 0 0.5-0.224 0.5-0.5S21.681 4 21.405 4h-4.028c-0.25-2.247-2.16-4-4.472-4h-2C8.593 0 6.682 1.753 6.433 4H4.708L0.854 0.146c-0.196-0.195-0.512-0.195-0.708 0s-0.195 0.512 0 0.708l23 23C23.244 23.952 23.372 24 23.5 24s0.256-0.049 0.354-0.146c0.195-0.195 0.195-0.512 0-0.708zM10.904 1h2c1.76 0 3.221 1.306 3.464 3H7.44c0.243-1.694 1.704-3 3.464-3zM19.025 5 19.002 18.295 5.707 5zM18.377 22.193c0.181 0.209 0.159 0.524-0.05 0.706C17.509 23.609 16.462 24 15.378 24h-7c-2.481 0-4.5-2.019-4.5-4.5L3.903 8.499C3.903 8.223 4.128 8 4.403 8v0c0.276 0 0.5 0.225 0.499 0.501l-0.025 11c0 1.929 1.57 3.499 3.5 3.499h7c0.843 0 1.658-0.304 2.294-0.856 0.208-0.181 0.525-0.158 0.706 0.049z" />
</svg>