<svg id="trash_can_list_Layer_1" viewBox="0 0 24 24" fill="currentColor" width="32" height="32" data-name="Layer 1" xmlns="http://www.w3.org/2000/svg" xmlns:xlink="http://www.w3.org/1999/xlink">
    <title>trash-can-list</title>
    <path d="M24 9.5c0 0.276-0.224 0.5-0.5 0.5h-7C16.224 10 16 9.776 16 9.5S16.224 9 16.5 9h7C23.776 9 24 9.224 24 9.5zM22.5 14h-6c-0.276 0-0.5 0.224-0.5 0.5s0.224 0.5 0.5 0.5h6c0.276 0 0.5-0.224 0.5-0.5S22.776 14 22.5 14zM21.5 19h-5c-0.276 0-0.5 0.224-0.5 0.5s0.224 0.5 0.5 0.5h5c0.276 0 0.5-0.224 0.5-0.5S21.776 19 21.5 19zM16.495 22.169c0.183 0.207 0.163 0.523-0.044 0.706C15.629 23.601 14.572 24 13.474 24h-7c-2.481 0-4.5-2.019-4.5-4.5L1.999 5H0.5C0.224 5 0 4.776 0 4.5S0.224 4 0.5 4h4.028C4.778 1.753 6.688 0 9 0h2c2.312 0 4.223 1.753 4.472 4H19.5C19.776 4 20 4.224 20 4.5S19.776 5 19.5 5h-1.501l-3e-3 1.501c0 0.275-0.224 0.499-0.5 0.499v0c-0.276 0-0.5-0.225-0.499-0.501L17 5H2.999L2.974 19.501c0 1.929 1.57 3.499 3.5 3.499h7c0.854 0 1.676-0.311 2.315-0.875 0.206-0.183 0.522-0.162 0.706 0.044zM5.536 4h8.928C14.221 2.306 12.76 1 11 1H9C7.24 1 5.779 2.306 5.536 4z" />
</svg>