<svg id="trash_can_plus_Layer_1" viewBox="0 0 24 24" fill="currentColor" width="32" height="32" data-name="Layer 1" xmlns="http://www.w3.org/2000/svg" xmlns:xlink="http://www.w3.org/1999/xlink">
    <title>trash-can-plus</title>
    <path d="M21.5 4h-4.028c-0.25-2.247-2.16-4-4.472-4h-2C8.688 0 6.777 1.753 6.528 4H2.5C2.224 4 2 4.224 2 4.5S2.224 5 2.5 5h1.499L3.974 19.5c0 2.481 2.019 4.5 4.5 4.5h7c2.481 0 4.5-2.019 4.5-4.499L19.999 5H21.5C21.776 5 22 4.776 22 4.5S21.776 4 21.5 4zM11 1h2c1.76 0 3.221 1.306 3.464 3H7.536C7.779 2.306 9.24 1 11 1zM18.974 19.5c0 1.93-1.57 3.5-3.5 3.5h-7c-1.93 0-3.5-1.57-3.5-3.499L4.999 5h14zM16 14c0 0.276-0.224 0.5-0.5 0.5h-3v3c0 0.276-0.224 0.5-0.5 0.5s-0.5-0.224-0.5-0.5v-3h-3C8.224 14.5 8 14.276 8 14s0.224-0.5 0.5-0.5h3v-3c0-0.276 0.224-0.5 0.5-0.5s0.5 0.224 0.5 0.5v3h3c0.276 0 0.5 0.224 0.5 0.5z" />
</svg>