<svg id="trash_list_Layer_1" viewBox="0 0 24 24" fill="currentColor" width="32" height="32" data-name="Layer 1" xmlns="http://www.w3.org/2000/svg" xmlns:xlink="http://www.w3.org/1999/xlink">
    <title>trash-list</title>
    <path d="M24 9.5c0 0.276-0.224 0.5-0.5 0.5h-7C16.224 10 16 9.776 16 9.5S16.224 9 16.5 9h7C23.776 9 24 9.224 24 9.5zM22.5 14h-6c-0.276 0-0.5 0.224-0.5 0.5s0.224 0.5 0.5 0.5h6c0.276 0 0.5-0.224 0.5-0.5S22.776 14 22.5 14zM21.5 19h-5c-0.276 0-0.5 0.224-0.5 0.5s0.224 0.5 0.5 0.5h5c0.276 0 0.5-0.224 0.5-0.5S21.776 19 21.5 19zM17.167 22.169c0.183 0.208 0.163 0.523-0.044 0.706C16.3 23.601 15.242 24 14.146 24H7.874c-2.337 0-4.263-1.754-4.48-4.08L2.002 5.047C2.001 5.031 2 5.016 2 5H0.5C0.224 5 0 4.776 0 4.5S0.224 4 0.5 4h5.028C5.778 1.753 7.688 0 10 0h2c2.312 0 4.223 1.753 4.472 4H21.5C21.776 4 22 4.224 22 4.5S21.776 5 21.5 5H20c0 0.015 0 0.03-2e-3 0.046l-0.139 1.5C19.835 6.806 19.617 7 19.362 7c-0.016 0-0.031 0-0.047-2e-3-0.275-0.025-0.478-0.27-0.452-0.544L18.997 5H3.002l1.387 14.826C4.558 21.636 6.056 23 7.873 23h6.272c0.853 0 1.675-0.311 2.314-0.875 0.208-0.184 0.524-0.161 0.708 0.044zM6.536 4h8.928C15.221 2.306 13.76 1 12 1h-2C8.24 1 6.779 2.306 6.536 4z" />
</svg>