<svg id="trash_restore_Layer_1" viewBox="0 0 24 24" fill="currentColor" width="32" height="32" data-name="Layer 1" xmlns="http://www.w3.org/2000/svg" xmlns:xlink="http://www.w3.org/1999/xlink">
    <title>trash-restore</title>
    <path d="M22.5 4h-5.028c-0.25-2.247-2.16-4-4.472-4h-2C8.688 0 6.777 1.753 6.528 4H1.5C1.224 4 1 4.224 1 4.5S1.224 5 1.5 5H3c0 0.015 0 0.031 2e-3 0.046l1.392 14.873C4.612 22.246 6.538 24 8.874 24h6.272c2.34 0 4.267-1.757 4.481-4.087l1.37-14.867c1e-3-0.015 2e-3-0.031 2e-3-0.046h1.5c0.276 0 0.5-0.224 0.5-0.5S22.775 4 22.5 4zM11 1h2c1.76 0 3.221 1.306 3.464 3H7.536C7.779 2.306 9.24 1 11 1zM18.632 19.821C18.465 21.633 16.967 23 15.147 23H8.875c-1.817 0-3.315-1.365-3.484-3.174L4.004 5h15.995zM15.912 13.15c0.193 0.197 0.189 0.514-8e-3 0.707C15.806 13.952 15.68 14 15.554 14c-0.13 0-0.26-0.05-0.357-0.15l-2.515-2.57c-0.056-0.056-0.117-0.103-0.183-0.143V18.5c0 0.276-0.224 0.5-0.5 0.5s-0.5-0.224-0.5-0.5v-7.363c-0.066 0.04-0.129 0.088-0.187 0.146l-2.511 2.566c-0.191 0.198-0.509 0.202-0.707 8e-3-0.197-0.193-0.201-0.51-8e-3-0.707l2.515-2.57c0.384-0.384 0.886-0.577 1.388-0.58 3e-3 0 6e-3 0 0.01 0 3e-3 0 6e-3 0 9e-3 0 0.502 2e-3 1.003 0.194 1.385 0.576z" />
</svg>