<svg id="trash_undo_alt_Layer_1" viewBox="0 0 24 24" fill="currentColor" width="32" height="32" data-name="Layer 1" xmlns="http://www.w3.org/2000/svg" xmlns:xlink="http://www.w3.org/1999/xlink">
    <title>trash-undo-alt</title>
    <path d="M21.5 4h-4.028c-0.25-2.247-2.16-4-4.472-4h-2C8.688 0 6.777 1.753 6.528 4H2.5C2.224 4 2 4.224 2 4.5S2.224 5 2.5 5h1.499L3.974 19.5c0 2.481 2.019 4.5 4.5 4.5h7c2.481 0 4.5-2.019 4.5-4.499L19.999 5H21.5C21.776 5 22 4.776 22 4.5S21.776 4 21.5 4zM11 1h2c1.76 0 3.221 1.306 3.464 3H7.536C7.779 2.306 9.24 1 11 1zM18.975 19.5c0 1.93-1.57 3.5-3.5 3.5h-7c-1.93 0-3.5-1.57-3.5-3.499L5 5h14zM16 15.5v3c0 0.276-0.224 0.5-0.5 0.5S15 18.776 15 18.5v-3c0-1.378-1.121-2.5-2.5-2.5H9.137c0.04 0.066 0.089 0.129 0.146 0.187l2.566 2.511c0.197 0.193 0.201 0.51 8e-3 0.707-0.098 0.1-0.228 0.15-0.357 0.15-0.126 0-0.252-0.047-0.35-0.143l-2.57-2.515C8.196 13.513 8.003 13.011 8 12.509c0-3e-3 0-6e-3 0-9e-3s0-6e-3 0-9e-3c2e-3-0.502 0.194-1.003 0.576-1.384l2.574-2.519c0.199-0.193 0.515-0.189 0.707 8e-3 0.193 0.197 0.189 0.514-8e-3 0.707l-2.57 2.515c-0.056 0.056-0.104 0.117-0.143 0.183H12.5c1.93 0 3.5 1.57 3.5 3.499z" />
</svg>