<svg id="trash_plus_Layer_1" viewBox="0 0 24 24" fill="currentColor" width="32" height="32" data-name="Layer 1" xmlns="http://www.w3.org/2000/svg" xmlns:xlink="http://www.w3.org/1999/xlink">
    <title>trash-plus</title>
    <path d="M16.5 13.5c0 0.276-0.224 0.5-0.5 0.5h-3.5v3.5c0 0.276-0.224 0.5-0.5 0.5s-0.5-0.224-0.5-0.5V14H8c-0.276 0-0.5-0.224-0.5-0.5S7.724 13 8 13h3.5V9.5C11.5 9.224 11.724 9 12 9s0.5 0.224 0.5 0.5V13H16c0.276 0 0.5 0.224 0.5 0.5zM23 4.5C23 4.776 22.776 5 22.5 5H21c0 0.015 0 0.03-2e-3 0.046l-1.37 14.867C19.413 22.243 17.486 24 15.147 24H8.875c-2.337 0-4.263-1.754-4.48-4.08L3.003 5.047C3.002 5.031 3.001 5.016 3.001 5h-1.5c-0.276 0-0.5-0.224-0.5-0.5S1.225 4 1.501 4h5.028c0.25-2.247 2.16-4 4.472-4h2c2.312 0 4.223 1.753 4.472 4h5.028c0.276 0 0.5 0.224 0.499 0.5zM7.536 4h8.928C16.221 2.306 14.76 1 13 1h-2C9.24 1 7.779 2.306 7.536 4zM19.998 5H4.002l1.387 14.826C5.558 21.636 7.056 23 8.873 23h6.272c1.82 0 3.318-1.366 3.485-3.179z" />
</svg>