<svg id="trash_empty_Layer_1" viewBox="0 0 24 24" fill="currentColor" width="32" height="32" data-name="Layer 1" xmlns="http://www.w3.org/2000/svg" xmlns:xlink="http://www.w3.org/1999/xlink">
    <title>trash-empty</title>
    <path d="M22.5 0h-21C1.224 0 1 0.224 1 0.5S1.224 1 1.5 1h0.664l1.859 18.939C4.251 22.254 6.176 24 8.502 24h7.049c2.326 0 4.251-1.746 4.479-4.061L21.889 1H22.5C22.776 1 23 0.776 23 0.5S22.776 0 22.5 0zM19.035 19.842c-2e-3 0.021-0.01 0.041-0.012 0.062l-2.727-2.727 2.842-2.842 0.399 0.399zM8.437 9.318 5.595 6.476 8.437 3.634l2.842 2.842zM11.986 7.183l2.875 2.875-2.842 2.842-2.875-2.875zM7.73 10.025 4.867 12.888 4.279 12.3 3.876 8.196 4.888 7.184zM3.749 6.908 3.655 5.951 4.181 6.477zM5.019 19.842 4.51 14.659l0.357-0.357 2.875 2.875-2.714 2.714c-2e-3-0.017-8e-3-0.032-9e-3-0.049zM5.574 13.595l2.863-2.863 2.875 2.875-2.863 2.863zM12.019 14.314l2.863 2.863-2.863 2.863-2.863-2.863zM12.726 13.607l2.842-2.842 2.863 2.863-2.842 2.842zM20.3 6.955 19.839 6.494l0.562-0.562zM20.174 8.243l-0.396 4.038-0.64 0.64-2.863-2.863 2.857-2.857zM15.568 9.351 12.693 6.476 15.55 3.619l2.875 2.875zM11.986 5.769 9.144 2.927 11.071 1h1.861l1.912 1.912zM8.437 2.22 7.217 1h2.44zM14.346 1h2.409L15.55 2.205zM5.803 1 7.73 2.927 4.888 5.769 3.501 4.382 3.169 1zM5.341 20.987c0 0 9e-3-5e-3 0.013-8e-3l3.095-3.095 2.863 2.863-2.254 2.254H8.502c-1.397 0-2.601-0.814-3.161-2.014zM12.019 21.453 13.566 23h-3.093zM15.552 23H14.98l-2.254-2.254 2.863-2.863 3.119 3.119C18.144 22.192 16.944 23 15.552 23zM20.554 4.364 19.131 5.787 16.256 2.912 18.168 1h2.716z" />
</svg>