<svg id="trash_clock_Layer_1" viewBox="0 0 24 24" fill="currentColor" width="32" height="32" data-name="Layer 1" xmlns="http://www.w3.org/2000/svg" xmlns:xlink="http://www.w3.org/1999/xlink">
    <title>trash-clock</title>
    <path d="M17.5 11c-3.584 0-6.5 2.916-6.5 6.5s2.916 6.5 6.5 6.5 6.5-2.916 6.5-6.5-2.916-6.5-6.5-6.5zM17.5 23c-3.032 0-5.5-2.468-5.5-5.5s2.468-5.5 5.5-5.5 5.5 2.468 5.5 5.5-2.468 5.5-5.5 5.5zM18.854 18.146c0.195 0.195 0.195 0.512 0 0.707-0.098 0.098-0.226 0.146-0.354 0.146s-0.256-0.049-0.354-0.146l-1-1C17.052 17.759 17 17.632 17 17.499v-2c0-0.276 0.224-0.5 0.5-0.5s0.5 0.224 0.5 0.5v1.793zM10.5 23H7.874c-1.817 0-3.315-1.364-3.484-3.174L3.003 5h15.995L18.68 8.454c-0.025 0.275 0.177 0.519 0.452 0.544 0.016 0 0.031 2e-3 0.047 2e-3 0.255 0 0.473-0.194 0.497-0.454l0.322-3.5C19.999 5.031 20 5.015 20 5h1.5C21.776 5 22 4.776 22 4.5S21.776 4 21.5 4h-5.028c-0.25-2.247-2.16-4-4.472-4h-2C7.688 0 5.777 1.753 5.528 4H0.5C0.224 4 0 4.224 0 4.5S0.224 5 0.5 5H2c0 0.016 0 0.031 2e-3 0.047L3.394 19.92C3.612 22.246 5.538 24 7.874 24H10.5c0.276 0 0.5-0.224 0.5-0.5S10.776 23 10.5 23zM10 1h2c1.76 0 3.221 1.306 3.464 3H6.536C6.779 2.306 8.24 1 10 1z" />
</svg>