<svg id="trash_bag_Layer_1" viewBox="0 0 24 24" fill="currentColor" width="32" height="32" data-name="Layer 1" xmlns="http://www.w3.org/2000/svg" xmlns:xlink="http://www.w3.org/1999/xlink">
    <title>trash-bag</title>
    <path d="M13.541 11.268c0.469-0.722 0.592-1.864 0.293-3.065-0.165-0.664-0.843-1.084-1.514-0.935l-1.838 0.409C10.089 7.764 9.768 8.026 9.6 8.394 9.433 8.762 9.448 9.175 9.642 9.529c0.378 0.69 0.814 1.381 1.333 1.858-3.015 1.414-5.974 6.477-5.974 9.277 0 0.899 0.271 1.625 0.805 2.158 1.195 1.192 3.479 1.185 5.692 1.178 0.468-2e-3 1.037 0 1.504 0 2.049 0 4.087-0.077 5.193-1.179C18.729 22.288 19 21.562 19 20.663c0-2.415-2.77-8.112-5.459-9.395zM10.518 9.048c-0.056-0.102-0.029-0.195-8e-3-0.242s0.074-0.128 0.188-0.153l1.839-0.409v0c0.02-5e-3 0.04-7e-3 0.059-7e-3 0.123 0 0.236 0.083 0.267 0.207 0.274 1.102 0.091 1.997-0.194 2.363-0.135 0.172-0.254 0.192-0.332 0.192-0.751 0-1.555-1.469-1.819-1.951zM17.488 22.113c-0.901 0.899-2.974 0.893-4.983 0.887-0.251 0-0.759 0-1.011 0-2.007 5e-3-4.082 0.013-4.983-0.887C6.167 21.77 6 21.296 6 20.663c0-2.719 3.709-8.665 6.5-8.665 1.991 0 5.5 5.98 5.5 8.665 0 0.633-0.167 1.107-0.512 1.45zM6.14 3.347C5.405 2.585 5 1.574 5 0.5 5 0.224 5.224 0 5.5 0S6 0.224 6 0.5c0 0.802 0.313 1.587 0.86 2.153C7.595 3.415 8 4.426 8 5.5 8 5.776 7.776 6 7.5 6S7 5.776 7 5.5c0-0.802-0.313-1.587-0.86-2.153zM16.14 3.347C15.405 2.585 15 1.574 15 0.5 15 0.224 15.224 0 15.5 0S16 0.224 16 0.5c0 0.802 0.313 1.587 0.86 2.153C17.595 3.415 18 4.426 18 5.5 18 5.776 17.776 6 17.5 6S17 5.776 17 5.5c0-0.802-0.313-1.587-0.86-2.153zM10 0.5C10 0.224 10.224 0 10.5 0S11 0.224 11 0.5c0 0.589 0.29 1.149 0.815 1.577C12.557 2.681 13 3.587 13 4.5 13 4.776 12.776 5 12.5 5S12 4.776 12 4.5c0-0.606-0.312-1.238-0.816-1.647C10.432 2.241 10 1.383 10 0.5zM3.572 23.005C1.266 22.667 1 21.413 1 20.5c0-2.95 1.932-7.498 4.498-7.5H6c0.133 0 0.26-0.053 0.354-0.146 0.673-0.673 1.011-1.588 1.033-2.798 6e-3-0.349-0.141-0.682-0.403-0.914C6.718 8.907 6.366 8.8 6.011 8.851L4.71 9.037C4.353 9.088 4.039 9.294 3.85 9.602c-0.188 0.306-0.229 0.676-0.113 1.017 0.188 0.547 0.456 1.059 0.802 1.53C1.775 13.01 0 17.456 0 20.5c0 1.365 0.595 3.08 3.428 3.495C3.452 23.999 3.477 24 3.501 24c0.244 0 0.458-0.179 0.494-0.428 0.04-0.273-0.149-0.527-0.423-0.567zM4.702 10.124c0.019-0.031 0.064-0.085 0.149-0.098L6.152 9.84c0.085-0.017 0.142 0.026 0.169 0.05 0.031 0.027 0.067 0.074 0.065 0.146-0.016 0.859-0.209 1.489-0.606 1.962H5.712c-0.469-0.506-0.815-1.08-1.03-1.705-0.026-0.078 0-0.14 0.02-0.169zM19.981 12.356c0.367-0.309 0.652-0.658 0.812-0.872 0.229-0.307 0.3-0.707 0.189-1.069-0.11-0.363-0.379-0.643-0.689-0.748l-1.272-0.601c-0.327-0.114-0.69-0.081-0.991 0.095-0.297 0.173-0.503 0.466-0.565 0.805-0.11 0.613-0.227 1.785 0.239 2.751C17.787 12.89 17.962 13 18.154 13H18.5c2.568 0 4.5 4.55 4.5 7.5 0 0.914-0.267 2.167-2.572 2.505-0.273 0.04-0.462 0.294-0.422 0.567C20.042 23.821 20.256 24 20.5 24c0.024 0 0.048-1e-3 0.073-5e-3 2.833-0.415 3.428-2.129 3.428-3.495 0-2.849-1.555-6.925-4.02-8.144zM18.5 11.999h-6e-3c-0.215-0.693-0.108-1.507-0.045-1.855 0.011-0.064 0.052-0.1 0.084-0.119 0.028-0.016 0.084-0.042 0.108-0.035l1.272 0.6c0.071 0.025 0.101 0.077 0.112 0.116 9e-3 0.029 0.023 0.104-0.033 0.179-0.506 0.677-1.091 1.114-1.492 1.114z" />
</svg>