<svg id="trauma_Layer_1" viewBox="0 0 24 24" fill="currentColor" width="32" height="32" data-name="Layer 1" xmlns="http://www.w3.org/2000/svg" xmlns:xlink="http://www.w3.org/1999/xlink">
    <title>trauma</title>
    <path d="M0.743 9.818C0.264 9.237 0 8.503 0 7.75 0 6.435 0.804 5.26 2 4.761V4.75C2 2.131 4.131 0 6.75 0c2.227 0 4.117 1.525 4.612 3.67C12.909 4.152 14 5.607 14 7.25c0 1.285-0.647 2.466-1.73 3.16-0.229 0.148-0.541 0.083-0.69-0.151-0.149-0.232-0.082-0.542 0.151-0.69 0.795-0.509 1.27-1.376 1.27-2.318 0-1.288-0.914-2.417-2.173-2.687-0.202-0.043-0.356-0.206-0.389-0.41-0.293-1.827-1.845-3.153-3.688-3.153-2.068 0-3.75 1.682-3.75 3.75 2e-3 0.092 0.026 0.223 0.034 0.314 0.02 0.241-0.135 0.461-0.368 0.524-0.981 0.265-1.666 1.154-1.666 2.162 0 0.521 0.183 1.03 0.514 1.432 0.176 0.213 0.146 0.528-0.067 0.704S0.92 10.033 0.743 9.818zM5.108 13.951 5.534 12H4.113c-0.351-1e-3-0.672-0.167-0.885-0.457-0.217-0.295-0.284-0.677-0.178-1.021l1.146-3.577c0.181-0.566 0.702-0.946 1.297-0.946h1.121c0.353 0 0.675 0.163 0.884 0.446s0.27 0.64 0.167 0.977L7.178 8.999h1.714C9.3 9 9.67 9.226 9.862 9.585c0.192 0.362 0.171 0.798-0.055 1.138-8e-3 0.012-0.017 0.024-0.026 0.036l-3.154 3.918c-0.166 0.205-0.411 0.322-0.673 0.322-0.535 0.014-0.972-0.529-0.846-1.048zM6.155 11c0.309-8e-3 0.563 0.306 0.488 0.606l-0.435 1.995 2.773-3.445c0.035-0.076-0.018-0.157-0.092-0.157H6.5c-0.326 9e-3-0.582-0.338-0.478-0.647l0.686-2.224L6.613 7H5.492C5.334 7 5.196 7.101 5.147 7.251l-1.145 3.571c-0.014 0.044-0.016 0.177 0.124 0.177zM19.775 4.401c-1.763-2.353-4.321-3.877-7.204-4.29-0.271-0.037-0.526 0.151-0.566 0.424-0.039 0.273 0.151 0.526 0.424 0.566 2.618 0.375 4.942 1.76 6.557 3.914C20.393 6.756 23 12.68 23 13.546 23 13.683 22.947 14 22.455 14h-0.957c-0.236 0-0.438 0.165-0.487 0.396l-0.6 2.83c-0.341 1.606-1.781 2.773-3.424 2.773H15.5c-0.276 0-0.5 0.224-0.5 0.5v1c0 0.827-0.673 1.5-1.5 1.5h-8c-0.692 0-1.5-0.393-1.5-1.5v-1.28c0-1.137-0.397-2.285-1.148-3.32-0.93-1.281-1.528-2.824-1.731-4.461-0.034-0.274-0.283-0.473-0.558-0.435-0.274 0.034-0.469 0.284-0.435 0.558 0.223 1.804 0.885 3.507 1.914 4.926C2.668 18.349 3 19.295 3 20.219v1.28c0 1.472 1.028 2.5 2.5 2.5h8c1.378 0 2.5-1.121 2.5-2.5v-0.5h0.987c2.112 0 3.964-1.5 4.402-3.566l0.516-2.434h0.549c1.134 0 1.545-0.869 1.545-1.454 0-1.282-2.851-7.445-4.224-9.144z" />
</svg>