<svg id="traveler_camera_Layer_1" viewBox="0 0 24 24" fill="currentColor" width="32" height="32" data-name="Layer 1" xmlns="http://www.w3.org/2000/svg" xmlns:xlink="http://www.w3.org/1999/xlink">
    <title>traveler-camera</title>
    <path d="M14.012 18.022 13.915 17.83C13.66 17.318 13.145 17 12.573 17h-1.146c-0.572 0-1.087 0.318-1.342 0.829l-0.097 0.193c-1.121 0.156-1.987 1.121-1.987 2.285v1.384c0 1.273 1.034 2.309 2.308 2.309h3.383c1.273 0 2.309-1.035 2.309-2.309v-1.384c0-1.164-0.867-2.129-1.989-2.285zM13.692 23h-3.383C9.587 23 9 22.413 9 21.691v-1.384c0-0.721 0.588-1.308 1.309-1.308 0.189 0 0.362-0.107 0.447-0.276l0.224-0.448C11.065 18.105 11.236 18 11.427 18h1.146c0.191 0 0.362 0.105 0.447 0.276l0.224 0.447c0.085 0.169 0.258 0.276 0.447 0.276 0.721 0 1.308 0.587 1.308 1.308v1.384c0 0.722-0.586 1.309-1.307 1.309zM21.001 23v0.5c0 0.276-0.224 0.5-0.5 0.5s-0.5-0.224-0.5-0.5V23c0-4.411-3.589-8-8-8s-8 3.589-8 8v0.5c0 0.276-0.224 0.5-0.5 0.5s-0.5-0.224-0.5-0.5V23c0-4.963 4.037-9 9-9s9 4.037 9 9zM13.001 21c0 0.552-0.448 1-1 1s-1-0.448-1-1 0.448-1 1-1 1 0.448 1 1zM4.5 5h1.597C6.039 5.333 6 5.667 6 6c0 3.309 2.691 6 6 6s6-2.691 6-6c0-0.333-0.039-0.667-0.097-1H19.5C19.776 5 20 4.776 20 4.5S19.776 4 19.5 4h-1.609l-0.148-0.591C17.241 1.401 15.445 0 13.377 0h-2.754C8.555 0 6.759 1.401 6.257 3.409L6.109 4H4.5C4.224 4 4 4.224 4 4.5S4.224 5 4.5 5zM12 11c-2.757 0-5-2.243-5-5 0-0.332 0.047-0.666 0.116-1h9.767c0.069 0.334 0.116 0.668 0.116 1 0 2.757-2.243 5-4.999 5zM7.228 3.651C7.618 2.09 9.014 1 10.624 1h2.754c1.609 0 3.006 1.091 3.396 2.651L16.861 4H7.14z" />
</svg>