<svg id="treatment_Layer_1" viewBox="0 0 24 24" fill="currentColor" width="32" height="32" data-name="Layer 1" xmlns="http://www.w3.org/2000/svg" xmlns:xlink="http://www.w3.org/1999/xlink">
    <title>treatment</title>
    <path d="M16.5 2h-0.55c-0.232-1.14-1.242-2-2.45-2h-3C9.292 0 8.283 0.86 8.05 2H7.5C5.019 2 3 4.019 3 6.5v13C3 21.981 5.019 24 7.5 24h9c2.481 0 4.5-2.019 4.5-4.5v-13C21 4.019 18.981 2 16.5 2zM20 19.5c0 1.93-1.57 3.5-3.5 3.5h-9C5.57 23 4 21.43 4 19.5v-13C4 4.57 5.57 3 7.5 3h1C8.776 3 9 2.776 9 2.5 9 1.673 9.673 1 10.5 1h3C14.327 1 15 1.673 15 2.5 15 2.776 15.224 3 15.5 3h1C18.43 3 20 4.57 20 6.5zM8 8.5C8 8.224 8.224 8 8.5 8h3V5c0-0.276 0.224-0.5 0.5-0.5s0.5 0.224 0.5 0.5v3h3C15.776 8 16 8.224 16 8.5S15.776 9 15.5 9h-3v3c0 0.276-0.224 0.5-0.5 0.5s-0.5-0.224-0.5-0.5V9h-3C8.224 9 8 8.776 8 8.5zM17 15.5c0 0.276-0.224 0.5-0.5 0.5h-9C7.224 16 7 15.776 7 15.5S7.224 15 7.5 15h9c0.276 0 0.5 0.224 0.5 0.5zM14 19.5c0 0.276-0.224 0.5-0.5 0.5h-6C7.224 20 7 19.776 7 19.5S7.224 19 7.5 19h6c0.276 0 0.5 0.224 0.5 0.5z" />
</svg>