<svg id="treasure_chest_Layer_1" viewBox="0 0 24 24" fill="currentColor" width="32" height="32" data-name="Layer 1" xmlns="http://www.w3.org/2000/svg" xmlns:xlink="http://www.w3.org/1999/xlink">
    <title>treasure-chest</title>
    <path d="M17.5 0h-11C2.916 0 0 2.916 0 6.5v13C0 21.981 2.019 24 4.5 24h15c2.481 0 4.5-2.019 4.5-4.5v-13C24 2.916 21.084 0 17.5 0zM23 6.5V9h-3V1.607c1.778 0.912 3 2.761 3 4.893zM17.5 1c0.521 0 1.022 0.077 1.5 0.213V9h-4c0-1.654-1.346-3-3-3S9 7.346 9 9H5V1.213C5.478 1.077 5.979 1 6.5 1zM10 9c0-1.103 0.897-2 2-2s2 0.897 2 2v2c0 1.103-0.897 2-2 2s-2-0.897-2-2zM4 1.607V9H1V6.5c0-2.132 1.222-3.98 3-4.893zM20 22.949V12.5c0-0.276-0.224-0.5-0.5-0.5S19 12.224 19 12.5V23H5V12.5C5 12.224 4.776 12 4.5 12S4 12.224 4 12.5v10.449c-1.692-0.245-3-1.691-3-3.449V10h8v1c0 1.654 1.346 3 3 3s3-1.346 3-3v-1h8v9.5c0 1.758-1.308 3.204-3 3.449z" />
</svg>