<svg id="treadmill_Layer_1" viewBox="0 0 24 24" fill="currentColor" width="32" height="32" data-name="Layer 1" xmlns="http://www.w3.org/2000/svg" xmlns:xlink="http://www.w3.org/1999/xlink">
    <title>treadmill</title>
    <path d="M10.592 5c1.378 0 2.5-1.121 2.5-2.5S11.971 0 10.592 0s-2.5 1.121-2.5 2.5 1.122 2.5 2.5 2.5zM10.592 1c0.827 0 1.5 0.673 1.5 1.5S11.419 4 10.592 4s-1.5-0.673-1.5-1.5 0.673-1.5 1.5-1.5zM23.675 8.031c-0.259-0.098-0.547 0.035-0.644 0.294l-1 2.681C22.02 11.006 22.011 11 22 11h-3.5c-0.276 0-0.5 0.224-0.5 0.5s0.224 0.5 0.5 0.5h3.161l-2.877 7.714C18.278 21.081 16.959 22 15.501 22h-4.5v-3.939c0-0.525-0.268-1.004-0.717-1.28l-2.381-1.457 2.772-6.772 1.424 2.657C12.36 11.697 12.867 12 13.421 12h2.08c0.276 0 0.5-0.224 0.5-0.5s-0.224-0.5-0.5-0.5h-2.08c-0.185 0-0.354-0.101-0.44-0.264 0 0-1.853-3.451-1.875-3.478-0.667-0.8-1.647-1.259-2.689-1.259H3.855c-0.604 0-1.146 0.359-1.381 0.915l-1.011 2.39C1.356 9.559 1.474 9.852 1.729 9.96 1.98 10.064 2.276 9.948 2.384 9.694l1.011-2.39c0.079-0.186 0.259-0.306 0.46-0.306h2.4L4.28 11.813c-0.461 1.124-0.05 2.412 0.983 3.065L9.76 17.63C9.91 17.723 10 17.882 10 18.058v3.939H0.5c-0.276 0-0.5 0.224-0.5 0.5s0.224 0.5 0.5 0.5H2v0.5c0 0.276 0.224 0.5 0.5 0.5s0.5-0.224 0.5-0.5v-0.5h12v0.5c0 0.276 0.224 0.5 0.5 0.5s0.5-0.224 0.5-0.5v-0.539c1.67-0.189 3.13-1.301 3.721-2.899l4.248-11.387c0.097-0.259-0.035-0.547-0.294-0.641zM5.791 14.031c-0.616-0.39-0.863-1.162-0.586-1.837L7.299 7h1.118c0.589 0 1.143 0.213 1.588 0.582C9.995 7.6 7.04 14.795 7.04 14.795zM0 18.5C0 18.224 0.224 18 0.5 18h2.341c0.2 0 0.38-0.119 0.459-0.304l0.383-0.894c0.109-0.254 0.403-0.37 0.657-0.263 0.253 0.109 0.371 0.403 0.262 0.657L4.219 18.09c-0.236 0.552-0.778 0.909-1.378 0.909H0.5c-0.276 0-0.5-0.224-0.5-0.499z" />
</svg>