<svg id="trees_alt_Layer_1" viewBox="0 0 24 24" fill="currentColor" width="32" height="32" data-name="Layer 1" xmlns="http://www.w3.org/2000/svg" xmlns:xlink="http://www.w3.org/1999/xlink">
    <title>trees-alt</title>
    <path d="M22.522 17.039l-1.891-2.192c0.473-0.188 0.871-0.539 1.117-1.006 0.375-0.715 0.324-1.572-0.176-2.289l-2.329-2.566c0.656-0.079 1.231-0.47 1.536-1.059 0.339-0.654 0.287-1.405-0.173-2.051l-4.595-5.199c-0.76-0.859-2.263-0.859-3.021 0L12 1.796 11.011 0.677c-0.76-0.859-2.262-0.859-3.021 0L3.359 5.919C2.932 6.522 2.88 7.273 3.219 7.927 3.525 8.516 4.1 8.906 4.756 8.986l-2.372 2.618c-0.458 0.665-0.509 1.522-0.134 2.237 0.246 0.467 0.645 0.818 1.117 1.006 0 0-1.913 2.22-1.924 2.235-0.528 0.768-0.588 1.757-0.154 2.581C1.723 20.488 2.57 21 3.502 21h5.497v2.5c0 0.276 0.224 0.5 0.5 0.5s0.5-0.224 0.5-0.5V21h4v2.5c0 0.276 0.224 0.5 0.5 0.5s0.5-0.224 0.5-0.5V21h5.497c0.932 0 1.779-0.512 2.213-1.337 0.434-0.824 0.374-1.813-0.187-2.624zM16.824 19.197C16.56 19.7 16.063 20 15.496 20H10v-9.5c0-0.276-0.224-0.5-0.5-0.5S9 10.224 9 10.5V20H3.503c-0.567 0-1.063-0.3-1.327-0.802-0.261-0.495-0.23-1.064 0.078-1.528l2.452-2.844c0.128-0.147 0.157-0.356 0.075-0.534C4.7 14.114 4.522 14 4.327 14H4.17c-0.441 0-0.828-0.233-1.033-0.624-0.205-0.392-0.179-0.842 0.03-1.152l3.074-3.388C6.374 8.69 6.408 8.479 6.328 8.298 6.248 8.116 6.069 8 5.871 8H5.003C4.615 8 4.28 7.801 4.107 7.467 3.944 7.151 3.969 6.788 4.142 6.538l4.597-5.199c0.379-0.43 1.143-0.43 1.521 0l4.563 5.156c0.206 0.293 0.231 0.655 0.068 0.972C14.718 7.801 14.383 8 13.995 8h-0.868c-0.198 0-0.377 0.116-0.457 0.298-0.08 0.181-0.046 0.392 0.087 0.538l3.032 3.336c0.251 0.362 0.277 0.812 0.072 1.204C15.656 13.767 15.269 14 14.828 14h-0.157c-0.195 0-0.373 0.114-0.454 0.292-0.082 0.178-0.053 0.387 0.075 0.534l2.438 2.822c0.322 0.468 0.356 1.047 0.094 1.549zM21.824 19.197c-0.264 0.502-0.76 0.802-1.327 0.802h-3.028c0.083-0.11 0.175-0.212 0.241-0.337 0.433-0.825 0.374-1.814-0.188-2.624l-1.891-2.192c0.473-0.188 0.871-0.539 1.117-1.006 0.375-0.715 0.324-1.572-0.176-2.289l-2.329-2.566c0.656-0.079 1.231-0.47 1.536-1.059 0.339-0.654 0.287-1.405-0.173-2.051l-2.941-3.326 1.073-1.211c0.379-0.43 1.143-0.43 1.521 0l4.563 5.156c0.206 0.293 0.231 0.655 0.068 0.972-0.173 0.334-0.508 0.533-0.896 0.533h-0.868c-0.198 0-0.377 0.116-0.457 0.298-0.08 0.181-0.046 0.392 0.087 0.538l3.032 3.336c0.251 0.362 0.277 0.812 0.072 1.204-0.205 0.391-0.592 0.624-1.033 0.624H19.67c-0.195 0-0.373 0.114-0.454 0.292-0.082 0.178-0.053 0.387 0.075 0.534l2.438 2.822c0.322 0.468 0.357 1.047 0.095 1.55z" />
</svg>