<svg id="tree_alt_Layer_1" viewBox="0 0 24 24" fill="currentColor" width="32" height="32" data-name="Layer 1" xmlns="http://www.w3.org/2000/svg" xmlns:xlink="http://www.w3.org/1999/xlink">
    <title>tree-alt</title>
    <path d="M20.022 17.039l-1.89-2.192c0.472-0.188 0.871-0.539 1.116-1.006 0.375-0.715 0.324-1.572-0.176-2.289l-2.328-2.566c0.656-0.079 1.231-0.47 1.536-1.06 0.338-0.653 0.286-1.404-0.174-2.05l-4.595-5.199c-0.761-0.859-2.261-0.859-3.021 0L5.86 5.918C5.434 6.522 5.381 7.272 5.72 7.926c0.306 0.59 0.881 0.981 1.538 1.06l-2.371 2.618c-0.458 0.665-0.51 1.522-0.134 2.237 0.245 0.467 0.644 0.818 1.116 1.006l-1.89 2.192c-0.012 0.014-0.022 0.027-0.033 0.043-0.529 0.767-0.588 1.756-0.154 2.581C4.225 20.487 5.073 21 6.005 21h5.497v2.5c0 0.276 0.224 0.5 0.5 0.5s0.5-0.224 0.5-0.5V21h5.497c0.932 0 1.78-0.513 2.213-1.337 0.434-0.825 0.375-1.814-0.19-2.624zM19.324 19.198C19.06 19.7 18.564 20 17.996 20h-5.497v-9.5c0-0.276-0.224-0.5-0.5-0.5s-0.5 0.224-0.5 0.5V20H6.002c-0.567 0-1.064-0.3-1.328-0.802-0.26-0.495-0.23-1.064 0.078-1.528l2.452-2.844c0.127-0.147 0.157-0.356 0.076-0.534S7.021 14 6.825 14H6.668c-0.441 0-0.828-0.233-1.033-0.624s-0.178-0.841 0.031-1.152l3.073-3.388C8.872 8.69 8.906 8.479 8.826 8.298 8.746 8.116 8.567 8 8.369 8H7.501C7.113 8 6.779 7.801 6.606 7.466 6.442 7.151 6.468 6.788 6.641 6.538l4.597-5.199c0.381-0.43 1.143-0.43 1.523 0l4.562 5.157c0.207 0.292 0.232 0.654 0.068 0.97C17.218 7.801 16.884 8 16.496 8h-0.868c-0.198 0-0.377 0.116-0.457 0.298-0.08 0.181-0.046 0.392 0.087 0.538l3.032 3.336c0.25 0.363 0.277 0.813 0.072 1.204S17.771 14 17.329 14h-0.157c-0.195 0-0.373 0.114-0.455 0.292s-0.052 0.387 0.076 0.534l2.438 2.822c0.322 0.468 0.356 1.047 0.093 1.55z" />
</svg>