<svg id="triangle_Layer_1" viewBox="0 0 24 24" fill="currentColor" width="32" height="32" data-name="Layer 1" xmlns="http://www.w3.org/2000/svg" xmlns:xlink="http://www.w3.org/1999/xlink">
    <title>triangle</title>
    <path d="M21.348 22.027H2.652c-0.768 0-1.459-0.396-1.851-1.06-0.393-0.668-0.404-1.471-0.028-2.148L9.948 2.264C10.374 1.49 11.141 1.028 12 1.028s1.627 0.463 2.053 1.237l9.174 16.555c0.375 0.678 0.365 1.48-0.028 2.148-0.391 0.663-1.083 1.06-1.851 1.059zM12 2.027c-0.489 0-0.929 0.269-1.177 0.72v0c0 0-9.175 16.557-9.175 16.557-0.202 0.365-0.197 0.797 0.015 1.156 0.209 0.355 0.579 0.567 0.989 0.567h18.695c0.41 0 0.78-0.212 0.989-0.567 0.212-0.359 0.217-0.791 0.015-1.156L13.177 2.748C12.929 2.296 12.489 2.027 12 2.027z" />
</svg>