<svg id="triangle_arrow_bolt_Layer_1" viewBox="0 0 24 24" fill="currentColor" width="32" height="32" data-name="Layer 1" xmlns="http://www.w3.org/2000/svg" xmlns:xlink="http://www.w3.org/1999/xlink">
    <title>triangle-arrow-bolt</title>
    <path d="M6.344 7.189 9.42 2.31C9.922 1.49 10.807 1 11.789 1h0.04c0.905 0 1.75 0.472 2.252 1.262l4.782 7.213c0.101-0.574 0.568-3.247 0.573-3.269 0.055-0.272 0.325-0.443 0.59-0.389 0.271 0.056 0.445 0.32 0.389 0.59-7e-3 0.04-0.669 3.817-0.684 3.866-0.156 0.584-0.784 0.927-1.355 0.766l-3.694-1.006c-0.266-0.073-0.423-0.347-0.351-0.614 0.073-0.266 0.347-0.424 0.614-0.351l2.986 0.813-4.69-7.075c-0.327-0.517-0.868-0.831-1.446-0.807-0.639 0-1.205 0.312-1.526 0.837L7.189 7.72C7.043 7.955 6.733 8.023 6.5 7.876S6.196 7.42 6.344 7.189zM23.549 16.724 20.94 12.726c-0.15-0.231-0.462-0.296-0.692-0.146-0.231 0.151-0.296 0.461-0.146 0.692l2.61 4c0.35 0.532 0.383 1.213 0.088 1.774-0.309 0.584-0.904 0.947-1.565 0.947l-6.796 5e-3 2.377-2.156c0.204-0.186 0.22-0.501 0.034-0.706s-0.501-0.219-0.706-0.034l-2.811 2.55c-0.449 0.408-0.482 1.105-0.081 1.547 0.032 0.037 2.827 2.597 2.86 2.628 0.197 0.194 0.513 0.193 0.707-4e-3 0.194-0.196 0.192-0.513-4e-3-0.707-0.018-0.018-1.922-1.76-2.312-2.118l6.742-5e-3c1.022 0 1.957-0.567 2.44-1.481 0.464-0.884 0.412-1.953-0.136-2.788zM10.507 20H2.758c-0.639 0-1.231-0.356-1.546-0.932-0.3-0.544-0.28-1.211 0.052-1.74l3.78-6.07 0.453 3.311c0.036 0.275 0.294 0.465 0.563 0.428 0.274-0.038 0.466-0.29 0.428-0.563l-0.52-3.795C5.885 10.035 5.33 9.618 4.73 9.694 4.681 9.7 0.959 10.567 0.913 10.577c-0.271 0.052-0.449 0.314-0.397 0.585s0.317 0.445 0.585 0.397c0.025-5e-3 2.506-0.584 3.015-0.702l-3.701 5.941c-0.523 0.835-0.554 1.89-0.08 2.751 0.489 0.896 1.418 1.452 2.431 1.452h7.741c0.276 0 0.5-0.225 0.5-0.501s-0.224-0.5-0.5-0.5zM9.613 17.109l0.729-2.11H9.21c0 0 0 1e-3-2e-3 1e-3-0.383 0-0.734-0.176-0.963-0.484s-0.297-0.695-0.186-1.063l1.507-4.505C9.756 8.381 10.288 8 10.887 8h1.23c0.396 0 0.768 0.194 0.992 0.52 0.226 0.325 0.276 0.74 0.137 1.11l-0.517 1.368h1.148c0.456 0 0.874 0.252 1.093 0.657 0.206 0.385 0.189 0.827-0.047 1.183-0.011 0.017-4.164 4.922-4.164 4.922-0.128 0.151-0.314 0.237-0.512 0.237-0.217 0-0.421-0.105-0.547-0.281s-0.159-0.403-0.087-0.607zM11.042 13.998c0.161 0 0.313 0.078 0.407 0.209 0.094 0.132 0.118 0.301 0.065 0.454l-0.385 1.114 2.922-3.428c0.145-0.174 0.029-0.349-0.174-0.349h-1.871c-0.164 0-0.318-0.081-0.411-0.216-0.094-0.135-0.114-0.307-0.057-0.461l0.772-2.044c0.053-0.149 0-0.276-0.193-0.276h-1.23c-0.17 0-0.319 0.107-0.373 0.266l-1.502 4.491c-0.037 0.163 0.036 0.244 0.195 0.244z" />
</svg>