<svg id="triangle_music_Layer_1" viewBox="0 0 24 24" fill="currentColor" width="32" height="32" data-name="Layer 1" xmlns="http://www.w3.org/2000/svg" xmlns:xlink="http://www.w3.org/1999/xlink">
    <title>triangle-music</title>
    <path d="M23.558 21.829C22.803 23.188 21.423 24 19.868 24H4.324c-1.555 0-2.935-0.812-3.69-2.171-0.756-1.358-0.717-2.959 0.104-4.279L8.875 4.87c0.608-0.921 1.56-1.526 2.625-1.691V0.5C11.5 0.224 11.724 0 12 0s0.5 0.224 0.5 0.5v2.654c1.142 0.119 2.173 0.739 2.814 1.711l0.876 1.364c0.149 0.232 0.082 0.542-0.151 0.691-0.233 0.148-0.542 0.08-0.691-0.15l-0.873-1.359c-0.526-0.798-1.417-1.278-2.379-1.278s-1.853 0.48-2.383 1.283l-8.13 12.668c-0.623 1.001-0.652 2.223-0.075 3.26S3.137 23 4.324 23h15.544c1.187 0 2.239-0.619 2.816-1.656s0.547-2.259-0.079-3.267l-4.026-6.272c-0.149-0.232-0.082-0.542 0.151-0.691 0.232-0.149 0.541-0.082 0.691 0.15l4.03 6.279c0.824 1.327 0.863 2.928 0.107 4.286zM14.286 13.29l6.29-10.056c0.146-0.233 0.455-0.306 0.689-0.158 0.234 0.146 0.305 0.455 0.159 0.689l-6.318 10.1c0.552 0.544 0.894 1.3 0.894 2.134 0 1.654-1.346 3-3 3s-3-1.346-3-3 1.346-3 3-3c0.46 0 0.896 0.104 1.286 0.291zM13 14c-1.103 0-2 0.897-2 2s0.897 2 2 2 2-0.897 2-2-0.897-2-2-2z" />
</svg>