<svg id="triangle_person_digging_Layer_1" viewBox="0 0 24 24" fill="currentColor" width="32" height="32" data-name="Layer 1" xmlns="http://www.w3.org/2000/svg" xmlns:xlink="http://www.w3.org/1999/xlink">
    <title>triangle-person-digging</title>
    <path d="M23.453 16.444 15.046 2.721C14.366 1.611 13.288 1 12.01 1 10.717 1 9.63 1.611 8.95 2.721L0.542 16.444c-0.704 1.149-0.73 2.537-0.072 3.713C1.116 21.311 2.285 22 3.597 22h16.8c1.312 0 2.48-0.689 3.127-1.843 0.659-1.176 0.632-2.564-0.071-3.713zM22.652 19.668C22.185 20.502 21.342 21 20.398 21h-16.8c-0.944 0-1.787-0.498-2.254-1.332-0.479-0.856-0.46-1.866 0.052-2.702l4.101-6.694 8.804 5.783-0.585 0.899c-0.265 0.407-0.286 0.926-0.054 1.353s0.678 0.692 1.164 0.692h3.856c0.462 0 0.883-0.235 1.126-0.628s0.265-0.875 0.058-1.288l-1.676-3.352c-0.215-0.43-0.63-0.703-1.11-0.73-0.478-0.031-0.922 0.197-1.184 0.601l-1.05 1.615-5.261-3.456 0.734-2.114c0.094-0.263 0.296-0.473 0.557-0.577 0.259-0.104 0.551-0.092 0.8 0.031l0.284 0.142c0.418 0.208 0.737 0.565 0.894 0.997l0.831 2.421c0.071 0.208 0.266 0.338 0.473 0.338 0.054 0 0.108-9e-3 0.162-0.027 0.261-0.09 0.4-0.375 0.311-0.635l-0.834-2.429c-0.248-0.683-0.742-1.236-1.391-1.56l-0.284-0.142c-0.507-0.252-1.097-0.275-1.619-0.064-0.525 0.21-0.935 0.636-1.127 1.173l-0.653 1.88-2.704-1.776 3.784-6.176c0.499-0.813 1.262-1.244 2.207-1.244s1.678 0.418 2.184 1.244l8.407 13.723c0.512 0.836 0.531 1.846 0.051 2.702zM14.553 17.5l2.18-3.352c0.083-0.129 0.207-0.147 0.271-0.147 7e-3 0 0.013 0 0.018 0 0.056 3e-3 0.196 0.027 0.271 0.179l1.676 3.352c0.073 0.146 0.015 0.269-0.014 0.315-0.028 0.046-0.112 0.154-0.275 0.154h-3.856c-0.174 0-0.257-0.119-0.285-0.169-0.027-0.051-0.082-0.185 0.014-0.332zM12.999 6c0 0.552-0.448 1-1 1s-1-0.448-1-1 0.448-1 1-1 1 0.448 1 1zM11.999 17v1.5c0 0.276-0.224 0.5-0.5 0.5s-0.5-0.224-0.5-0.5V17c0-0.276 0.224-0.5 0.5-0.5s0.5 0.224 0.5 0.5zM8.64 14.676l-1.5 4C7.065 18.877 6.874 19 6.672 19c-0.059 0-0.118-0.01-0.176-0.032-0.258-0.097-0.389-0.385-0.292-0.644l1.5-4c0.097-0.259 0.385-0.388 0.644-0.292 0.258 0.097 0.389 0.385 0.292 0.644z" />
</svg>