<svg id="triangle_warning_Layer_1" viewBox="0 0 24 24" fill="currentColor" width="32" height="32" data-name="Layer 1" xmlns="http://www.w3.org/2000/svg" xmlns:xlink="http://www.w3.org/1999/xlink">
    <title>triangle-warning</title>
    <path d="M11.5 14.5v-8C11.5 6.22 11.72 6 12 6s0.5 0.22 0.5 0.5v8c0 0.28-0.22 0.5-0.5 0.5s-0.5-0.22-0.5-0.5zM12 17c-0.55 0-1 0.45-1 1s0.45 1 1 1 1-0.45 1-1-0.45-1-1-1zM23.61 20.07C22.97 21.3 21.62 22 19.9 22H4.1c-1.71 0-3.07-0.7-3.71-1.93-0.65-1.24-0.47-2.87 0.48-4.24L9.3 2.43C9.92 1.53 10.93 1 12 1s2.08 0.53 2.69 1.41l8.44 13.43c0.95 1.37 1.13 2.99 0.48 4.23zM22.3 16.4c0 0 0-0.01-0.01-0.02L13.86 2.96C13.44 2.35 12.76 2 12 2s-1.44 0.36-1.87 0.98l-8.42 13.4c-0.75 1.08-0.91 2.31-0.43 3.23C1.75 20.51 2.75 21 4.1 21h15.81c1.35 0 2.35-0.49 2.82-1.39 0.48-0.91 0.32-2.14-0.43-3.21z" />
</svg>