<svg id="tricycle_Layer_1" viewBox="0 0 24 24" fill="currentColor" width="32" height="32" data-name="Layer 1" xmlns="http://www.w3.org/2000/svg" xmlns:xlink="http://www.w3.org/1999/xlink">
    <title>tricycle</title>
    <path d="M18.961 13.023c-0.3-3.718-1.007-7.234-1.563-9.563C16.913 1.423 15.112 0 13.019 0H11.5C11.224 0 11 0.224 11 0.5S11.224 1 11.5 1h1.519c1.628 0 3.029 1.107 3.407 2.691 0.335 1.403 0.725 3.248 1.046 5.3-1.509-1e-3-5.77 0.177-9.283 2.06L6.721 6.999h2.78c0.276 0 0.5-0.224 0.5-0.5s-0.224-0.5-0.5-0.5H3.5c-0.276 0-0.5 0.224-0.5 0.5s0.224 0.5 0.5 0.5h2.156l1.655 4.567c-1.58 1.028-2.922 2.467-3.67 4.469-2.036 0.185-3.642 1.881-3.642 3.964 0 2.206 1.794 4 4 4s4-1.794 4-4c0-1.966-1.429-3.597-3.301-3.929 2.462-5.78 11.064-6.081 12.92-6.077 0.137 0.981 0.253 1.997 0.339 3.033-2.779 0.273-4.958 2.623-4.958 5.473 0 3.033 2.467 5.5 5.5 5.5s5.5-2.467 5.5-5.5c0-2.877-2.222-5.241-5.038-5.476zM7 20c0 1.654-1.346 3-3 3s-3-1.346-3-3 1.346-3 3-3 3 1.346 3 3zM18.5 23c-2.481 0-4.5-2.019-4.5-4.5s2.019-4.5 4.5-4.5 4.5 2.019 4.5 4.5-2.019 4.5-4.5 4.5zM19.5 18.5c0 0.552-0.448 1-1 1s-1-0.448-1-1 0.448-1 1-1 1 0.448 1 1z" />
</svg>