<svg id="trillium_Layer_1" viewBox="0 0 24 24" fill="currentColor" width="32" height="32" data-name="Layer 1" xmlns="http://www.w3.org/2000/svg" xmlns:xlink="http://www.w3.org/1999/xlink">
    <title>trillium</title>
    <path d="M23.408 17.855c-0.551-1.861-1.602-4.858-3.042-6.495 0.635-0.772 1.163-1.803 1.497-2.561 0.191-0.432 0.184-0.903-0.021-1.328-0.224-0.464-0.657-0.81-1.189-0.948-0.958-0.252-2.283-0.522-3.378-0.517-0.821-1.976-2.788-4.187-4.08-5.504-0.637-0.646-1.752-0.646-2.389 0C9.513 1.82 7.546 4.03 6.725 6.007 5.627 6.005 4.306 6.272 3.347 6.524 2.815 6.663 2.382 7.008 2.159 7.472 1.954 7.897 1.946 8.368 2.137 8.8c0.335 0.758 0.862 1.789 1.497 2.56-1.44 1.637-2.491 4.635-3.041 6.495-0.128 0.435-0.078 0.891 0.142 1.284 0.221 0.395 0.584 0.678 1.024 0.796 1.872 0.506 4.953 1.161 7.105 0.805 0.39 0.949 1.221 1.984 1.89 2.71 0.32 0.349 0.775 0.549 1.247 0.549s0.927-0.2 1.247-0.548c0.665-0.724 1.491-1.753 1.884-2.697 0.417 0.069 0.866 0.104 1.339 0.104 1.963 0 4.265-0.517 5.771-0.924 0.44-0.118 0.804-0.401 1.025-0.796 0.22-0.394 0.271-0.85 0.141-1.283zM20.398 7.49c0.249 0.065 0.446 0.217 0.542 0.416 0.054 0.11 0.099 0.285 9e-3 0.489-0.303 0.687-0.772 1.607-1.32 2.286-0.096-0.069-0.193-0.137-0.292-0.192-0.645-0.36-1.369-0.587-2.129-0.672 0.297-0.702 0.451-1.442 0.451-2.179 0-0.202-0.029-0.413-0.072-0.628 0.928 0.043 2.002 0.267 2.811 0.48zM3.059 7.905c0.096-0.198 0.293-0.35 0.542-0.415 0.809-0.212 1.885-0.434 2.811-0.478C6.37 7.227 6.341 7.437 6.341 7.639c0 0.736 0.154 1.478 0.451 2.179-0.759 0.085-1.484 0.312-2.129 0.672-0.099 0.055-0.195 0.123-0.292 0.192-0.547-0.678-1.017-1.599-1.319-2.286-0.09-0.204-0.045-0.379 7e-3-0.491zM12.51 22.775c-0.267 0.289-0.754 0.29-1.022 0-0.808-0.877-1.374-1.674-1.657-2.301 0.116-0.047 0.249-0.079 0.354-0.137 0.711-0.396 1.328-0.943 1.814-1.604 0.486 0.66 1.103 1.207 1.814 1.604 0.106 0.059 0.229 0.103 0.347 0.151-0.285 0.624-0.848 1.415-1.65 2.287zM22.393 18.651c-0.089 0.158-0.234 0.271-0.412 0.319-3.669 0.987-6.467 1.166-7.681 0.492-0.781-0.436-1.425-1.093-1.861-1.9-0.087-0.162-0.256-0.263-0.44-0.263s-0.353 0.101-0.44 0.263c-0.436 0.808-1.08 1.465-1.861 1.9-1.212 0.675-4.011 0.497-7.68-0.492-0.178-0.048-0.324-0.161-0.413-0.319-0.087-0.156-0.107-0.339-0.056-0.513 1.073-3.63 2.384-6.1 3.599-6.776 0.725-0.404 1.535-0.611 2.424-0.58 0.188 5e-3 0.351-0.091 0.442-0.247s0.091-0.351 0-0.507C7.567 9.269 7.34 8.465 7.34 7.638c0-1.385 1.523-3.73 4.179-6.436 0.256-0.262 0.705-0.262 0.961 0 2.655 2.706 4.179 5.052 4.179 6.436 0 0.826-0.227 1.63-0.674 2.39-0.092 0.156-0.093 0.351 0 0.507s0.276 0.258 0.442 0.247c0.864-0.023 1.709 0.182 2.424 0.58 1.213 0.676 2.524 3.146 3.599 6.776 0.052 0.174 0.031 0.356-0.057 0.513zM12.999 12.5c0 0.552-0.448 1-1 1s-1-0.448-1-1 0.448-1 1-1 1 0.448 1 1z" />
</svg>