<svg id="trombone_Layer_1" viewBox="0 0 24 24" fill="currentColor" width="32" height="32" data-name="Layer 1" xmlns="http://www.w3.org/2000/svg" xmlns:xlink="http://www.w3.org/1999/xlink">
    <title>trombone</title>
    <path d="M23.5 1C23.224 1 23 1.224 23 1.5c0 1.53-0.536 2.841-1.593 3.894C19.718 7.077 16.767 8 13.089 8H12V7.5C12 7.224 11.776 7 11.5 7S11 7.224 11 7.5V8H8V7.5C8 7.224 7.776 7 7.5 7S7 7.224 7 7.5V8H4.491C2.074 7.951-0.05 10.088 0 12.505 0 14.983 2.017 17 4.495 17H7v2H2.677l-1.064-0.855C0.939 17.7-0.031 18.312 1e-3 19.102v2.797C-0.011 22.49 0.513 23.013 1.102 23c0.176-4e-3 0.368-0.032 0.512-0.144l1.064-0.855H15c2.206 0 4-1.794 4-4s-1.794-4-4-4h-3v-3h1.091c3.676 0 6.627 0.925 8.316 2.606C22.464 14.66 23 15.97 23 17.501c0 0.276 0.224 0.5 0.5 0.5s0.5-0.224 0.5-0.5V1.5C24 1.224 23.776 1 23.5 1zM8 17h3v2H8zM15 17c0.552 0 1 0.448 1 1s-0.448 1-1 1h-3v-2zM1.121 21.969c0 0-0.12 0.094-0.12-0.071v-2.797c0-0.151 0.109-0.078 0.109-0.078l0.891 0.716v1.521zM11 14H8v-3h3zM4.498 14C3.672 14 3 13.328 3 12.502 2.984 11.697 3.689 10.983 4.496 11H7v3zM22.112 12.898C20.234 11.027 17.033 10 13.092 10H4.494C3.152 9.973 1.972 11.16 2 12.502 2 13.879 3.121 15 4.498 15H15c1.654 0 3 1.346 3 3s-1.346 3-3 3H3v-1h12c1.102 0 2-0.897 2-2s-0.897-2-2-2H4.495C2.568 16 1 14.432 1 12.505 0.961 10.627 2.611 8.961 4.492 9h8.598c3.942 0 7.144-1.027 9.022-2.898 0.343-0.341 0.636-0.713 0.888-1.107v9.01c-0.252-0.393-0.545-0.765-0.888-1.107z" />
</svg>