<svg id="troph_cap_Layer_1" viewBox="0 0 24 24" fill="currentColor" width="32" height="32" data-name="Layer 1" xmlns="http://www.w3.org/2000/svg" xmlns:xlink="http://www.w3.org/1999/xlink">
    <title>troph-cap</title>
    <path d="M19.522 12.008c-0.259-0.048-0.531 0.13-0.581 0.403-0.4 2.207-2.669 4.458-6.821 4.578 0.211-0.913 0.7-1.74 1.421-2.352 0.436-0.37 0.884-0.813 1.332-1.315 0.184-0.206 0.166-0.522-0.04-0.706-0.206-0.183-0.521-0.167-0.706 0.04-0.418 0.468-0.833 0.878-1.234 1.219-1.062 0.904-1.723 2.183-1.863 3.571 0 2e-3-0.03 0.366-0.03 0.548v3.027c0 0.884 0.274 1.523 0.672 1.978H8.329c0.397-0.455 0.672-1.094 0.672-1.978V18c0-1.599-0.69-3.103-1.893-4.125-1.835-1.56-3.799-4.426-4.378-6.389C2.558 6.905 2.67 6.29 3.038 5.798 3.418 5.29 3.999 4.999 4.632 4.999h5.869c0.276 0 0.5-0.224 0.5-0.5s-0.224-0.5-0.5-0.5H4.632c-0.952 0-1.824 0.438-2.395 1.201-0.558 0.747-0.728 1.683-0.466 2.569C1.886 8.158 2.06 8.58 2.259 9.013 0.972 9.275 0 10.416 0 11.779c0 2.351 2.17 6.118 7.991 6.22H8c0 0 0 0 0 0v3.021c0 1.905-1.778 1.976-1.979 1.978H5.456c-0.276 0-0.5 0.224-0.5 0.5s0.224 0.5 0.5 0.5h9.088c0.276 0 0.5-0.224 0.5-0.5s-0.224-0.5-0.5-0.5h-0.563c-0.202-2e-3-1.98-0.073-1.98-1.978v-3.022h9e-3c4.806-0.084 7.438-2.778 7.917-5.411 0.049-0.272-0.131-0.532-0.405-0.579zM1 11.78c0-0.978 0.776-1.772 1.742-1.815 0.949 1.71 2.343 3.504 3.717 4.672 0.721 0.613 1.211 1.441 1.422 2.356C2.874 16.852 1 13.734 1 11.78zM23.741 6.351l-2.699-3.92C20.55 1.716 19.78 1.202 18.931 1.02l-4.629-0.986c-0.578-0.124-1.131 0.091-1.445 0.56-0.314 0.468-0.304 1.062 0.028 1.549l0.797 1.169c-0.06 0.042-0.113 0.094-0.151 0.162l-1.155 2.068c-0.487 0.729-0.508 1.682-0.052 2.427 0.464 0.759 1.112 1.42 1.926 1.965s1.673 0.892 2.551 1.031c0.116 0.019 0.233 0.028 0.35 0.028 0.743 0 1.453-0.371 1.875-1.001l1.304-1.949 2 0.424c0.106 0.022 0.213 0.034 0.316 0.034 0.122 0 0.24-0.017 0.354-0.047v3.047c0 0.276 0.224 0.5 0.5 0.5s0.5-0.224 0.5-0.5c0 0-0.014-4.26-0.012-4.321 8e-3-0.283-0.069-0.57-0.247-0.829zM18.193 9.436c-0.271 0.405-0.761 0.617-1.236 0.542-0.733-0.117-1.457-0.411-2.15-0.875s-1.241-1.021-1.629-1.656c-0.254-0.414-0.241-0.943 0.051-1.383l1.05-1.877 1.274 1.869c0.493 0.724 1.268 1.243 2.124 1.424l1.599 0.339zM22.943 7.347c-0.04 0.06-0.161 0.193-0.406 0.141l-4.653-0.986c-0.606-0.128-1.155-0.497-1.505-1.009L13.711 1.58c-0.142-0.208-0.064-0.369-0.024-0.429C13.72 1.101 13.81 1 13.985 1c0.033 0 4.737 0.998 4.737 0.998 0.603 0.128 1.147 0.493 1.496 1l2.699 3.92c0.144 0.208 0.066 0.37 0.026 0.429z" />
</svg>