<svg id="truck_container_Layer_1" viewBox="0 0 24 24" fill="currentColor" width="32" height="32" data-name="Layer 1" xmlns="http://www.w3.org/2000/svg" xmlns:xlink="http://www.w3.org/1999/xlink">
    <title>truck-container</title>
    <path d="M0.5 16h14c0.276 0 0.5-0.224 0.5-0.5V5c0-2.206-1.794-4-4-4H4C1.794 1 0 2.794 0 5v10.5C0 15.776 0.224 16 0.5 16zM1 5c0-1.654 1.346-3 3-3h7c1.654 0 3 1.346 3 3v10H1zM5 4.5v8C5 12.776 4.776 13 4.5 13S4 12.776 4 12.5v-8C4 4.224 4.224 4 4.5 4S5 4.224 5 4.5zM8 4.5v8C8 12.776 7.776 13 7.5 13S7 12.776 7 12.5v-8C7 4.224 7.224 4 7.5 4S8 4.224 8 4.5zM11 4.5v8c0 0.276-0.224 0.5-0.5 0.5S10 12.776 10 12.5v-8C10 4.224 10.224 4 10.5 4S11 4.224 11 4.5zM23.968 12.324c-0.048-0.478-0.148-0.949-0.301-1.406l-0.901-2.705C22.224 6.59 20.71 5.5 19 5.5c-1.103 0-2 0.897-2 2V18H0.5C0.224 18 0 18.224 0 18.5V20c0 0.846 0.36 1.657 0.988 2.225 0.553 0.5 1.275 0.774 2.019 0.774 0.1 0 0.201-5e-3 0.301-0.015 0.9-0.09 1.684-0.615 2.17-1.363C6.012 22.45 6.943 23 8 23c1.654 0 3-1.346 3-3v-1h6v1c0 1.654 1.346 3 3 3s3-1.346 3-3v-1.086c0.582-0.206 1-0.762 1-1.414v-4.526c0-0.124-0.017-0.398-0.032-0.65zM19 6.5c1.279 0 2.411 0.816 2.816 2.03l0.901 2.705c0.084 0.251 0.149 0.506 0.196 0.766H18V7.5c0-0.551 0.448-1 1-1zM3.208 21.989c-0.575 0.062-1.125-0.122-1.549-0.506C1.241 21.105 1 20.564 1 20v-1h4v0.857c0 1.095-0.787 2.032-1.792 2.132zM10 20c0 1.103-0.897 2-2 2s-2-0.897-2-2c0-0.015 0-0.03-2e-3-0.045 0-0.033 2e-3-0.065 2e-3-0.098V19h4zM20 22c-1.103 0-2-0.897-2-2v-1h4v1c0 1.103-0.897 2-2 2zM22.5 18H18v-5h5v4.5c0 0.276-0.225 0.5-0.5 0.5z" />
</svg>