<svg id="truck_loading_Layer_1" viewBox="0 0 24 24" fill="currentColor" width="32" height="32" data-name="Layer 1" xmlns="http://www.w3.org/2000/svg" xmlns:xlink="http://www.w3.org/1999/xlink">
    <title>truck-loading</title>
    <path d="M20.5 17c-0.17 0-0.337 0.012-0.5 0.036V4.5C20 2.57 21.57 1 23.5 1 23.776 1 24 0.776 24 0.5S23.776 0 23.5 0C21.019 0 19 2.019 19 4.5v12.634l-4.82 1.522c0.198-0.522 0.223-1.114 0.03-1.682l-1.63-5.231c-0.418-1.312-1.824-2.04-3.141-1.624l-6.696 2.13c-1.295 0.412-2.029 1.806-1.636 3.108l1.662 5.436c0.176 0.493 0.495 0.898 0.893 1.184l-3.313 1.046c-0.264 0.083-0.409 0.364-0.326 0.627C0.09 23.863 0.287 24 0.5 24c0.05 0 0.101-7e-3 0.15-0.023l16.883-5.331C17.195 19.184 17 19.82 17 20.501c0 1.93 1.57 3.5 3.5 3.5s3.5-1.57 3.5-3.5-1.57-3.5-3.5-3.501zM3.719 20.479 2.065 15.066c-0.236-0.781 0.204-1.618 0.981-1.865l6.696-2.13C9.893 11.023 10.046 11 10.196 11c0.636 0 1.228 0.407 1.43 1.042l1.631 5.234 4e-3 0.012c0.268 0.783-0.152 1.637-0.928 1.901l-5.542 1.798-1.38 0.436c-0.714 0.138-1.449-0.263-1.692-0.944zM20.5 23c-1.379 0-2.5-1.122-2.5-2.5s1.121-2.5 2.5-2.5 2.5 1.122 2.5 2.5-1.121 2.5-2.5 2.5zM6.148 15.748c-0.05 0.016-0.102 0.023-0.151 0.023-0.212 0-0.409-0.136-0.477-0.349-0.084-0.263 0.062-0.544 0.325-0.628L8.31 14.01c0.262-0.083 0.545 0.062 0.628 0.325 0.084 0.263-0.062 0.544-0.325 0.628z" />
</svg>