<svg id="truck_box_Layer_1" viewBox="0 0 24 24" fill="currentColor" width="32" height="32" data-name="Layer 1" xmlns="http://www.w3.org/2000/svg" xmlns:xlink="http://www.w3.org/1999/xlink">
    <title>truck-box</title>
    <path d="M19.5 7H17V6.5c0-2.054-1.388-3.847-3.375-4.358-0.264-0.068-0.54 0.092-0.609 0.359-0.069 0.268 0.092 0.54 0.36 0.609 1.545 0.397 2.625 1.792 2.625 3.39V19H3.5C2.122 19 1 17.879 1 16.5v-4C1 12.224 0.776 12 0.5 12S0 12.224 0 12.5v4c0 1.499 0.952 2.771 2.28 3.268C2.101 20.155 2 20.57 2 21c0 1.654 1.346 3 3 3s3-1.346 3-3c0-0.344-0.064-0.68-0.18-1h8.359c-0.116 0.32-0.18 0.656-0.18 1 0 1.654 1.346 3 3 3s3-1.346 3-3c0-0.429-0.101-0.844-0.28-1.232 1.328-0.498 2.28-1.769 2.28-3.268v-5c0-2.481-2.019-4.5-4.499-4.5zM19.5 8c1.93 0 3.5 1.57 3.5 3.5V13h-6V8zM7 21c0 1.103-0.897 2-2 2s-2-0.897-2-2c0-0.361 0.122-0.705 0.314-1.019C3.377 19.984 3.436 20 3.5 20h3.196C6.881 20.309 7 20.646 7 21zM21 21c0 1.103-0.897 2-2 2s-2-0.897-2-2c0-0.354 0.119-0.691 0.304-1H20.5c0.064 0 0.123-0.015 0.186-0.019C20.878 20.295 21 20.638 21 21zM20.5 19H17v-5h6v2.5c0 1.379-1.122 2.5-2.5 2.5zM2.5 10h6C9.878 10 11 8.879 11 7.5v-5C11 1.121 9.878 0 8.5 0h-6C1.122 0 0 1.121 0 2.5v5C0 8.879 1.122 10 2.5 10zM1 2.5C1 1.673 1.673 1 2.5 1h6C9.327 1 10 1.673 10 2.5v5C10 8.327 9.327 9 8.5 9h-6C1.673 9 1 8.327 1 7.5zM4 3.5C4 3.224 4.224 3 4.5 3h2C6.776 3 7 3.224 7 3.5S6.776 4 6.5 4h-2C4.224 4 4 3.776 4 3.5z" />
</svg>