<svg id="truck_container_empty_Layer_1" viewBox="0 0 24 24" fill="currentColor" width="32" height="32" data-name="Layer 1" xmlns="http://www.w3.org/2000/svg" xmlns:xlink="http://www.w3.org/1999/xlink">
    <title>truck-container-empty</title>
    <path d="M23.968 12.324c-0.048-0.477-0.148-0.945-0.297-1.393L22.84 8.194c-0.58-1.91-2.31-3.193-4.306-3.193H17c-1.103 0-2 0.897-2 2v11H0.5c-0.276 0-0.5 0.224-0.5 0.5v1.5c0 0.846 0.36 1.657 0.987 2.225 0.553 0.501 1.275 0.775 2.02 0.775 0.1 0 0.2-5e-3 0.3-0.016 0.9-0.09 1.684-0.615 2.17-1.364C6.011 22.45 6.942 23 8 23c1.654 0 3-1.346 3-3v-1h6v1c0 1.654 1.346 3 3 3s3-1.346 3-3v-1.086c0.582-0.206 1-0.762 1-1.414v-4.526c0-0.124-0.012-0.595-0.032-0.65zM3.208 21.99c-0.573 0.057-1.125-0.123-1.55-0.507C1.24 21.104 1 20.564 1 20v-1h4v0.857c0 1.095-0.787 2.031-1.792 2.133zM10 20c0 1.103-0.897 2-2 2s-2-0.897-2-2v-1h4zM17 6h1.534c1.552 0 2.898 0.998 3.349 2.484l0.835 2.75c0.083 0.251 0.149 0.507 0.195 0.766H16V7c0-0.552 0.449-1 1-1zM20 22c-1.103 0-2-0.897-2-2v-1h4v1c0 1.103-0.897 2-2 2zM22.5 18H16v-5h7v4.5c0 0.275-0.224 0.5-0.5 0.5z" />
</svg>