<svg id="truck_droplet_Layer_1" viewBox="0 0 24 24" fill="currentColor" width="32" height="32" data-name="Layer 1" xmlns="http://www.w3.org/2000/svg" xmlns:xlink="http://www.w3.org/1999/xlink">
    <title>truck-droplet</title>
    <path d="M6.641 13.497c0.558 0.356 1.209 0.535 1.86 0.535 0.663 0 1.327-0.185 1.89-0.555 1.007-0.661 1.608-1.763 1.608-2.948 0-0.934-0.364-1.813-0.997-2.443L9.625 6.46c-0.622-0.608-1.63-0.608-2.283 0.035L6.017 8.063c-0.656 0.656-1.018 1.532-1.018 2.466 0 1.202 0.613 2.311 1.642 2.968zM6.753 8.739 8.074 7.175c0.123-0.12 0.285-0.177 0.44-0.177 0.144 0 0.283 0.049 0.38 0.143l1.374 1.622C10.74 9.235 11 9.863 11 10.53c0 0.86-0.422 1.63-1.157 2.112-0.792 0.52-1.862 0.525-2.663 0.013C6.43 12.176 6 11.401 6 10.53 6 9.863 6.257 9.238 6.753 8.739zM19.5 6.001H17v-0.5c0-2.481-2.019-4.5-4.5-4.5h-8C2.019 1 0 3.019 0 5.5v10c0 1.499 0.953 2.771 2.28 3.268C2.101 19.155 2 19.571 2 20c0 1.654 1.346 3 3 3s3-1.346 3-3c0-0.344-0.064-0.68-0.18-1h8.36C16.064 19.32 16 19.656 16 20c0 1.654 1.346 3 3 3s3-1.346 3-3c0-0.429-0.101-0.844-0.28-1.232C23.048 18.271 24 16.999 24 15.5v-5c0-2.481-2.019-4.5-4.5-4.499zM19.5 7.001c1.93 0 3.5 1.57 3.5 3.5v1.5h-6v-5zM1 15.5v-10C1 3.57 2.57 2 4.5 2h8C14.43 2 16 3.57 16 5.5V18H3.5C2.122 18 1 16.878 1 15.5zM7 20c0 1.103-0.897 2-2 2s-2-0.897-2-2c0-0.361 0.122-0.705 0.314-1.019C3.377 18.984 3.436 19 3.5 19h3.196C6.881 19.31 7 19.646 7 20zM21 20c0 1.103-0.897 2-2 2s-2-0.897-2-2c0-0.354 0.119-0.69 0.304-1H20.5c0.064 0 0.123-0.015 0.186-0.019C20.878 19.295 21 19.639 21 20zM20.5 18H17v-5h6v2.5c0 1.378-1.122 2.5-2.5 2.5z" />
</svg>