<svg id="truck_fire_Layer_1" viewBox="0 0 24 24" fill="currentColor" width="32" height="32" data-name="Layer 1" xmlns="http://www.w3.org/2000/svg" xmlns:xlink="http://www.w3.org/1999/xlink">
    <title>truck-fire</title>
    <path d="M23.769 11.726 22.658 8.393C22.181 6.962 20.847 6 19.338 6H18V5c0-0.552-0.448-1-1-1s-1 0.448-1 1v1h-3V2h10.5C23.776 2 24 1.776 24 1.5S23.776 1 23.5 1h-23C0.224 1 0 1.224 0 1.5S0.224 2 0.5 2H3v4.276C1.258 6.897 0 8.547 0 10.5V20c0 1.654 1.346 3 3 3 1.044 0 1.962-0.537 2.5-1.348C6.038 22.463 6.956 23 8 23c1.654 0 3-1.346 3-3v-1h5v1c0 1.654 1.346 3 3 3s3-1.346 3-3v-1.351c1.178-0.564 2-1.758 2-3.149v-2.351c0-0.649-0.18-1.271-0.231-1.423zM21.709 8.709 22.806 12H17V7h2.338c1.078 0 2.031 0.687 2.371 1.709zM12 6h-2V2h2zM7 6V2h2v4zM4 2h2v4H4.5C4.329 6 4.166 6.032 4 6.051zM4.5 7H16v5H1v-1.5C1 8.57 2.57 7 4.5 7zM16 18H1v-5h15zM3 22c-1.103 0-2-0.897-2-2v-1h4v1c0 1.103-0.897 2-2 2zM10 20c0 1.103-0.897 2-2 2s-2-0.897-2-2v-1h4zM21 20c0 1.103-0.897 2-2 2s-2-0.897-2-2v-1h3.5c0.171 0 0.335-0.027 0.5-0.051zM23 15.5c0 1.379-1.122 2.5-2.5 2.5H17v-5h5.988C22.99 13.05 23 13.099 23 13.149z" />
</svg>