<svg id="truck_tow_Layer_1" viewBox="0 0 24 24" fill="currentColor" width="32" height="32" data-name="Layer 1" xmlns="http://www.w3.org/2000/svg" xmlns:xlink="http://www.w3.org/1999/xlink">
    <title>truck-tow</title>
    <path d="M19.5 5h-2C16.673 5 16 5.673 16 6.5V12h-1.273L4.376 0.171C4.281 0.062 4.144 0 4 0H3.5C3.224 0 3 0.224 3 0.5v5C3 6.327 2.327 7 1.5 7h-1C0.224 7 0 7.224 0 7.5S0.224 8 0.5 8h1C2.878 8 4 6.878 4 5.5V1.259L13.398 12H3c-1.654 0-3 1.346-3 3v2c0 1.383 0.941 2.55 2.216 2.895C2.074 20.245 2 20.618 2 21c0 1.654 1.346 3 3 3s3-1.346 3-3c0-0.344-0.06-0.68-0.176-1h8.352C16.06 20.32 16 20.656 16 21c0 1.654 1.346 3 3 3s3-1.346 3-3c0-0.425-0.092-0.84-0.268-1.224 1.324-0.5 2.268-1.78 2.268-3.276v-7C24 7.019 21.981 5 19.5 5zM5 23c-1.103 0-2-0.897-2-2 0-0.351 0.095-0.693 0.277-1h3.446C6.905 20.307 7 20.649 7 21c0 1.103-0.897 2-2 2zM16 19H7.01c0 0-8e-3 0-0.013 0H2.999c-1.103 0-2-0.897-2-2v-2c0-1.103 0.897-2 2-2h13zM19 23c-1.103 0-2-0.897-2-2 0-0.351 0.095-0.693 0.277-1h3.445c0.182 0.307 0.277 0.649 0.277 1 0 1.103-0.897 2-1.999 2zM20.719 19.993c0 0 0 0 0 0-5e-3 0-6e-3 0 0 0zM23 16.5c0 1.378-1.122 2.5-2.5 2.5H17v-6h6zM23 12h-6V6.5C17 6.224 17.224 6 17.5 6h2C21.43 6 23 7.57 23 9.5z" />
</svg>