<svg id="truck_ramp_Layer_1" viewBox="0 0 24 24" fill="currentColor" width="32" height="32" data-name="Layer 1" xmlns="http://www.w3.org/2000/svg" xmlns:xlink="http://www.w3.org/1999/xlink">
    <title>truck-ramp</title>
    <path d="M20.5 17c-0.17 0-0.337 0.012-0.5 0.036V4.5C20 2.57 21.57 1 23.5 1 23.776 1 24 0.776 24 0.5S23.776 0 23.5 0C21.019 0 19 2.019 19 4.5v12.634L0.35 23.023c-0.264 0.083-0.409 0.364-0.326 0.627C0.091 23.863 0.288 24 0.501 24c0.05 0 0.101-7e-3 0.15-0.023l16.883-5.331c-0.338 0.538-0.533 1.174-0.533 1.855 0 1.93 1.57 3.5 3.5 3.5s3.5-1.57 3.5-3.5-1.57-3.5-3.501-3.501zM20.5 23c-1.379 0-2.5-1.122-2.5-2.5s1.121-2.5 2.5-2.5 2.5 1.122 2.5 2.5-1.121 2.5-2.5 2.5z" />
</svg>