<svg id="truck_arrow_left_Layer_1" viewBox="0 0 24 24" fill="currentColor" width="32" height="32" data-name="Layer 1" xmlns="http://www.w3.org/2000/svg" xmlns:xlink="http://www.w3.org/1999/xlink">
    <title>truck-arrow-left</title>
    <path d="M4.392 5.851 1.291 9h9.244c0.276 0 0.5 0.224 0.5 0.5s-0.224 0.5-0.5 0.5H1.291l3.101 3.149c0.193 0.196 0.191 0.513-6e-3 0.707C4.288 13.952 4.162 14 4.035 14c-0.129 0-0.259-0.05-0.356-0.149l-3.242-3.293C-0.145 9.976-0.145 9.025 0.44 8.44l3.239-3.29c0.194-0.198 0.511-0.199 0.707-6e-3 0.197 0.194 0.199 0.51 6e-3 0.707zM24 10.5v5c0 1.499-0.952 2.771-2.28 3.268C21.899 19.155 22 19.57 22 20c0 1.654-1.346 3-3 3s-3-1.346-3-3c0-0.345 0.064-0.68 0.18-1H7.82C7.936 19.32 8 19.655 8 20c0 1.654-1.346 3-3 3s-3-1.346-3-3c0-0.43 0.101-0.845 0.28-1.232C0.952 18.27 0 16.999 0 15.5v-2C0 13.224 0.224 13 0.5 13S1 13.224 1 13.5v2C1 16.879 2.121 18 3.5 18H16V5.5C16 3.57 14.43 2 12.5 2h-8C2.57 2 1 3.57 1 5.5 1 5.776 0.776 6 0.5 6S0 5.776 0 5.5C0 3.019 2.019 1 4.5 1h8C14.981 1 17 3.019 17 5.5V6h2.5c2.481 0 4.5 2.019 4.5 4.5zM7 20c0-0.355-0.119-0.691-0.304-1H3.5c-0.064 0-0.123-0.015-0.186-0.019C3.122 19.295 3 19.638 3 20c0 1.103 0.897 2 2 2s2-0.897 2-2zM21 20c0-0.362-0.122-0.705-0.314-1.019C20.623 18.984 20.564 19 20.5 19h-3.196C17.119 19.309 17 19.645 17 20c0 1.103 0.897 2 2 2s2-0.897 2-2zM23 13h-6v5h3.5c1.379 0 2.5-1.121 2.5-2.5zM23 10.5C23 8.57 21.43 7 19.5 7H17v5h6z" />
</svg>