<svg id="truck_moving_Layer_1" viewBox="0 0 24 24" fill="currentColor" width="32" height="32" data-name="Layer 1" xmlns="http://www.w3.org/2000/svg" xmlns:xlink="http://www.w3.org/1999/xlink">
    <title>truck-moving</title>
    <path d="M23.666 10.418 22.658 7.393C22.181 5.962 20.847 5 19.338 5h-2.366c-0.25-2.247-2.16-4-4.472-4h-8C2.019 1 0 3.019 0 5.5V20c0 1.654 1.346 3 3 3 1.043 0 1.962-0.535 2.5-1.344C6.038 22.465 6.957 23 8 23c1.654 0 3-1.346 3-3v-1h5v1c0 1.654 1.346 3 3 3s3-1.346 3-3v-1.338c1.181-0.563 2-1.769 2-3.162v-3.026c0-0.7-0.112-1.392-0.334-2.056zM21.709 7.71l1.008 3.025c0.029 0.088 0.056 0.177 0.081 0.266h-5.799V6h2.338c1.078 0 2.031 0.687 2.372 1.71zM1 5.5C1 3.57 2.57 2 4.5 2h8C14.43 2 16 3.57 16 5.5V18H1zM3 22c-1.103 0-2-0.897-2-2v-1h4v1c0 1.103-0.897 2-2 2zM10 20c0 1.103-0.897 2-2 2s-2-0.897-2-2v-1h4zM21 20c0 1.103-0.897 2-2 2s-2-0.897-2-2v-1h3.5c0.17 0 0.337-0.012 0.5-0.036zM23 15.5c0 1.378-1.122 2.5-2.5 2.5H17v-6h5.979C22.993 12.157 23 12.315 23 12.474z" />
</svg>