<svg id="truck_flatbed_Layer_1" viewBox="0 0 24 24" fill="currentColor" width="32" height="32" data-name="Layer 1" xmlns="http://www.w3.org/2000/svg" xmlns:xlink="http://www.w3.org/1999/xlink">
    <title>truck-flatbed</title>
    <path d="M21.218 12.074l-1.56-4.681c-0.478-1.432-1.812-2.394-3.32-2.394H15.5c-1.379 0-2.5 1.121-2.5 2.5v10.5H0.5c-0.276 0-0.5 0.224-0.5 0.5s0.224 0.5 0.5 0.5H2v1c0 1.654 1.346 3 3 3s3-1.346 3-3v-1h8v1c0 1.654 1.346 3 3 3s3-1.346 3-3v-1h0.5c0.827 0 1.5-0.673 1.5-1.5v-2c0-1.683-1.195-3.093-2.782-3.425zM15.5 6h0.838c1.078 0 2.03 0.688 2.371 1.71l1.43 4.29H14V7.5C14 6.673 14.673 6 15.5 6zM7 20c0 1.103-0.897 2-2 2s-2-0.897-2-2v-1h4zM21 20c0 1.103-0.897 2-2 2s-2-0.897-2-2v-1h4zM23 17.5c0 0.275-0.225 0.5-0.5 0.5H14v-5h6.5c1.379 0 2.5 1.121 2.5 2.5z" />
</svg>