<svg id="truck_ladder_Layer_1" viewBox="0 0 24 24" fill="currentColor" width="32" height="32" data-name="Layer 1" xmlns="http://www.w3.org/2000/svg" xmlns:xlink="http://www.w3.org/1999/xlink">
    <title>truck-ladder</title>
    <path d="M0.5 8C0.224 8 0 8.224 0 8.5S0.224 9 0.5 9h13C13.776 9 14 8.776 14 8.5S13.776 8 13.5 8H12V3h1.5C13.776 3 14 2.776 14 2.5S13.776 2 13.5 2h-13C0.224 2 0 2.224 0 2.5S0.224 3 0.5 3H2v5zM6 8V3h2v5zM11 8H9V3h2zM3 3h2v5H3zM23.667 10.418 22.658 7.393C22.18 5.962 20.846 5 19.338 5H18.5C17.121 5 16 6.122 16 7.5V11H3.5C1.57 11 0 12.57 0 14.5V20c0 1.654 1.346 3 3 3 1.044 0 1.962-0.537 2.5-1.348C6.038 22.463 6.956 23 8 23c1.654 0 3-1.346 3-3v-1h5v1c0 1.654 1.346 3 3 3s3-1.346 3-3v-1.351c1.178-0.564 2-1.758 2-3.149v-3.026c0-0.701-0.112-1.393-0.333-2.056zM17 7.5C17 6.673 17.673 6 18.5 6h0.838c1.078 0 2.03 0.687 2.371 1.709l1.009 3.025c0.029 0.088 0.057 0.177 0.081 0.266H17zM1 14.5C1 13.121 2.122 12 3.5 12H16v6H1zM3 22c-1.103 0-2-0.897-2-2v-1h4v1c0 1.103-0.897 2-2 2zM10 20c0 1.103-0.897 2-2 2s-2-0.897-2-2v-1h4zM21 20c0 1.103-0.897 2-2 2s-2-0.897-2-2v-1h3.5c0.171 0 0.335-0.027 0.5-0.051zM23 15.5c0 1.379-1.121 2.5-2.5 2.5H17v-6h5.979C22.993 12.157 23 12.315 23 12.474z" />
</svg>