<svg id="truck_utensils_Layer_1" viewBox="0 0 24 24" fill="currentColor" width="32" height="32" data-name="Layer 1" xmlns="http://www.w3.org/2000/svg" xmlns:xlink="http://www.w3.org/1999/xlink">
    <title>truck-utensils</title>
    <path d="M23.667 10.418 22.658 7.393C22.18 5.962 20.846 5 19.338 5h-2.371c-0.159-1.407-0.975-2.68-2.217-3.397-0.235-0.137-0.544-0.057-0.683 0.182S14.01 2.33 14.25 2.468C15.329 3.093 16 4.255 16 5.5V18H1V9.5C1 9.224 0.776 9 0.5 9S0 9.224 0 9.5V20c0 1.654 1.346 3 3 3 1.044 0 1.962-0.537 2.5-1.348C6.038 22.463 6.956 23 8 23c1.654 0 3-1.346 3-3v-1h5v1c0 1.654 1.346 3 3 3s3-1.346 3-3v-1.351c1.178-0.564 2-1.758 2-3.149v-3.026c0-0.701-0.112-1.393-0.333-2.056zM21.709 7.71l1.009 3.025c0.029 0.087 0.041 0.178 0.065 0.266H17V6h2.338c1.078 0 2.03 0.687 2.371 1.71zM3 22c-1.103 0-2-0.897-2-2v-1h4v1c0 1.103-0.897 2-2 2zM10 20c0 1.103-0.897 2-2 2s-2-0.897-2-2v-1h4zM21 20c0 1.103-0.897 2-2 2s-2-0.897-2-2v-1h3.5c0.171 0 0.335-0.027 0.5-0.051zM23 15.5c0 1.379-1.121 2.5-2.5 2.5H17v-6h5.962C22.976 12.158 23 12.314 23 12.474zM0 5V0.5C0 0.224 0.224 0 0.5 0S1 0.224 1 0.5V5c0 0.551 0.448 1 1 1h1V0.5C3 0.224 3.224 0 3.5 0S4 0.224 4 0.5V6h1c0.552 0 1-0.449 1-1V0.5C6 0.224 6.224 0 6.5 0S7 0.224 7 0.5V5c0 1.103-0.897 2-2 2H4v5.5C4 12.776 3.776 13 3.5 13S3 12.776 3 12.5V7H2C0.897 7 0 6.103 0 5zM9.5 13c0.276 0 0.5-0.224 0.5-0.5v-2.258C10.704 9.664 13 7.584 13 5c0-1.397-0.663-2.898-2.027-4.587-0.296-0.368-0.8-0.508-1.256-0.346C9.281 0.221 9 0.609 9 1.055V12.5C9 12.776 9.224 13 9.5 13zM10.05 1.009C10.057 1.007 10.079 1 10.106 1c0.029 0 0.063 8e-3 0.09 0.041 1.214 1.504 1.805 2.8 1.805 3.959 0 1.61-1.167 3.058-1.994 3.883z" />
</svg>