<svg id="truck_bolt_Layer_1" viewBox="0 0 24 24" fill="currentColor" width="32" height="32" data-name="Layer 1" xmlns="http://www.w3.org/2000/svg" xmlns:xlink="http://www.w3.org/1999/xlink">
    <title>truck-bolt</title>
    <path d="M19.5 6H17V5.5C17 3.019 14.981 1 12.5 1h-8C2.019 1 0 3.019 0 5.5v10c0 1.499 0.952 2.771 2.28 3.268C2.101 19.155 2 19.57 2 20c0 1.654 1.346 3 3 3s3-1.346 3-3c0-0.345-0.064-0.68-0.18-1h8.359c-0.116 0.32-0.18 0.655-0.18 1 0 1.654 1.346 3 3 3s3-1.346 3-3c0-0.43-0.101-0.845-0.28-1.232 1.328-0.498 2.28-1.769 2.28-3.268v-5c0-2.481-2.019-4.5-4.499-4.5zM19.5 7c1.93 0 3.5 1.57 3.5 3.5V12h-6V7zM1 15.5v-10C1 3.57 2.57 2 4.5 2h8C14.43 2 16 3.57 16 5.5V18H3.5C2.121 18 1 16.879 1 15.5zM7 20c0 1.103-0.897 2-2 2s-2-0.897-2-2c0-0.362 0.122-0.705 0.314-1.019C3.377 18.984 3.436 19 3.5 19h3.196C6.881 19.309 7 19.645 7 20zM21 20c0 1.103-0.897 2-2 2s-2-0.897-2-2c0-0.355 0.119-0.691 0.304-1H20.5c0.064 0 0.123-0.015 0.186-0.019C20.878 19.295 21 19.638 21 20zM20.5 18H17v-5h6v2.5c0 1.379-1.121 2.5-2.5 2.5zM5.281 9.926c-0.271-0.365-0.352-0.824-0.22-1.26 0.015-0.05 3.026-4.449 3.026-4.449 0.157-0.227 0.467-0.285 0.695-0.129s0.285 0.468 0.129 0.695L6.004 9.016c-0.017 0.11 0.012 0.222 0.079 0.312 0.081 0.108 0.204 0.171 0.339 0.171h4.171c0.519 0 0.993 0.284 1.238 0.741s0.219 1.009-0.067 1.44L8.91 15.784c-0.097 0.14-0.252 0.215-0.41 0.215-0.099 0-0.198-0.029-0.285-0.09-0.227-0.157-0.283-0.469-0.125-0.695l2.848-4.095c0.114-0.174 0.048-0.343 0.013-0.406-0.034-0.064-0.138-0.214-0.356-0.214H6.424c-0.454 0-0.87-0.209-1.143-0.573z" />
</svg>