<svg id="trust_Layer_1" viewBox="0 0 24 24" fill="currentColor" width="32" height="32" data-name="Layer 1" xmlns="http://www.w3.org/2000/svg" xmlns:xlink="http://www.w3.org/1999/xlink">
    <title>trust</title>
    <path d="M11 12c0 1.379-1.122 2.5-2.5 2.5-1.402 0-2.5-1.148-2.5-2.615V7H5.726C4.387 7 3.218 7.905 2.883 9.202l-0.698 2.707c-0.233 0.904-0.691 1.744-1.324 2.43C0.762 14.446 0.628 14.5 0.493 14.5c-0.121 0-0.243-0.044-0.339-0.133-0.203-0.187-0.216-0.503-0.029-0.706 0.521-0.565 0.899-1.258 1.091-2.002l0.698-2.707C2.364 7.214 3.931 6 5.726 6H6V5.385c0-1.653 1.208-3.164 2.873-3.594l2.355-0.55c0.691-0.162 1.251-0.483 1.934-1.109 0.203-0.188 0.519-0.173 0.707 0.03 0.187 0.204 0.173 0.52-0.03 0.707-0.571 0.524-1.3 1.094-2.383 1.347L9.112 2.763C7.893 3.077 7.001 4.182 7.001 5.386v6.5c0 0.921 0.645 1.615 1.5 1.615 0.827 0 1.5-0.673 1.5-1.5v-5.5c0-0.276 0.224-0.5 0.5-0.5s0.5 0.224 0.5 0.5v2.5h7.208c0.383 0 0.748-0.145 1.026-0.407l0.906-0.94c0.193-0.199 0.508-0.204 0.707-0.013s0.205 0.508 0.013 0.707l-0.923 0.958c-0.482 0.455-1.09 0.695-1.729 0.695h-7.208zM24 17.5c0 3.584-2.916 6.5-6.5 6.5S11 21.084 11 17.5 13.916 11 17.5 11 24 13.916 24 17.5zM23 17.5c0-3.032-2.467-5.5-5.5-5.5S12 14.468 12 17.5 14.467 23 17.5 23 23 20.532 23 17.5zM20.143 16.131l-2.706 2.618c-0.336 0.33-0.885 0.334-1.223 4e-3l-1.363-1.345c-0.195-0.194-0.513-0.191-0.707 4e-3-0.194 0.197-0.192 0.514 5e-3 0.707l1.364 1.347c0.362 0.354 0.837 0.531 1.312 0.531s0.951-0.178 1.311-0.533l2.703-2.614c0.198-0.192 0.204-0.509 0.012-0.707s-0.508-0.203-0.708-0.012zM8.293 19.725c-0.273 0.125-0.52 0.296-0.732 0.508l-0.914 0.914c-0.195 0.195-0.195 0.512 0 0.707C6.745 21.952 6.873 22 7.001 22s0.256-0.049 0.354-0.146l0.914-0.914c0.127-0.127 0.275-0.229 0.44-0.305 0.251-0.114 0.362-0.411 0.248-0.662-0.115-0.253-0.412-0.362-0.664-0.248z" />
</svg>