<svg id="trust_alt_Layer_1" viewBox="0 0 24 24" fill="currentColor" width="32" height="32" data-name="Layer 1" xmlns="http://www.w3.org/2000/svg" xmlns:xlink="http://www.w3.org/1999/xlink">
    <title>trust-alt</title>
    <path d="M8.8 17.225c0.221 0.166 0.266 0.479 0.1 0.7-0.098 0.131-0.248 0.2-0.4 0.2-0.104 0-0.209-0.032-0.299-0.1L3.767 14.7C3.166 14.248 2.42 14 1.667 14H0.5C0.224 14 0 13.776 0 13.5S0.224 13 0.5 13h1.167c0.968 0 1.927 0.319 2.7 0.9zM10 10c-0.068 0 0.068 5e-3 0 0zM13.039 8.02 15.2 9.641c0.09 0.067 0.195 0.1 0.299 0.1 0.152 0 0.302-0.069 0.4-0.2 0.166-0.221 0.121-0.534-0.1-0.7L13.77 7.32l2.114-2.023c0.2-0.191 0.207-0.507 0.016-0.707s-0.508-0.206-0.707-0.016l-4.166 3.987c-0.312 0.312-0.745 0.462-1.182 0.435-0.446-0.036-0.838-0.26-1.105-0.63-0.42-0.583-0.316-1.444 0.231-1.991l4.705-4.429c1.037-0.978 2.661-1.217 3.94-0.579l2.315 1.158C20.553 2.836 21.249 3 21.944 3H23.5C23.776 3 24 2.776 24 2.5S23.776 2 23.5 2h-1.556c-0.541 0-1.082-0.128-1.565-0.37l-2.315-1.158c-1.646-0.821-3.736-0.513-5.073 0.745l-0.955 0.9-1.042-0.949C10.167 0.415 9.096 0 7.94 0 7.249 0 6.556 0.164 5.937 0.473L3.622 1.631c-0.483 0.242-1.025 0.37-1.565 0.37H0.5c-0.276 0-0.5 0.224-0.5 0.5s0.224 0.5 0.5 0.5h1.556c0.695 0 1.391-0.164 2.013-0.475l2.314-1.158c1.21-0.604 2.871-0.432 3.937 0.54l0.986 0.898-3.029 2.852c-0.901 0.9-1.049 2.315-0.346 3.292 0.434 0.604 1.07 1.051 2.07 1.051 0.5 0 1.264-0.26 1.728-0.725zM20.142 16.131l-2.706 2.618c-0.337 0.33-0.885 0.334-1.223 4e-3l-1.363-1.345c-0.196-0.194-0.514-0.191-0.707 4e-3-0.194 0.197-0.192 0.514 5e-3 0.707l1.364 1.347c0.362 0.354 0.837 0.531 1.312 0.531s0.951-0.178 1.311-0.533l2.703-2.614c0.198-0.192 0.204-0.509 0.012-0.707-0.191-0.198-0.508-0.203-0.708-0.012zM23.999 17.5c0 3.584-2.916 6.5-6.5 6.5s-6.5-2.916-6.5-6.5 2.916-6.5 6.5-6.5 6.5 2.916 6.5 6.5zM22.999 17.5c0-3.032-2.467-5.5-5.5-5.5s-5.5 2.468-5.5 5.5 2.467 5.5 5.5 5.5 5.5-2.468 5.5-5.5z" />
</svg>