<svg id="tshirt_Layer_1" viewBox="0 0 24 24" fill="currentColor" width="32" height="32" data-name="Layer 1" xmlns="http://www.w3.org/2000/svg" xmlns:xlink="http://www.w3.org/1999/xlink">
    <title>tshirt</title>
    <path d="M21.079 1.136C19.676 0.383 18.2 0 16.691 0H7.31C5.801 0 4.325 0.382 2.922 1.136 1.12 2.104 0 4.02 0 6.136v1.388c0 1.93 1.57 3.5 3.5 3.5H4V19.5C4 21.981 6.019 24 8.5 24h7c2.481 0 4.5-2.019 4.5-4.5V11h0.5c1.93 0 3.5-1.57 3.5-3.5V6.136c0-2.116-1.12-4.032-2.921-5zM15.464 1C15.221 2.694 13.76 4 12 4S8.779 2.694 8.536 1zM23 7.5c0 1.378-1.122 2.5-2.5 2.5H20V7c0-0.276-0.224-0.5-0.5-0.5S19 6.724 19 7v12.5c0 1.93-1.57 3.5-3.5 3.5h-7C6.57 23 5 21.43 5 19.5V7c0-0.276-0.224-0.5-0.5-0.5S4 6.724 4 7v3.024H3.5c-1.378 0-2.5-1.122-2.5-2.5V6.136C1 4.388 1.917 2.81 3.395 2.017 4.651 1.343 5.968 1 7.31 1h0.218C7.778 3.247 9.688 5 12 5s4.223-1.753 4.472-4h0.218c1.342 0 2.659 0.342 3.915 1.017C22.082 2.81 23 4.389 23 6.136z" />
</svg>