<svg id="tty_Layer_1" viewBox="0 0 24 24" fill="currentColor" width="32" height="32" data-name="Layer 1" xmlns="http://www.w3.org/2000/svg" xmlns:xlink="http://www.w3.org/1999/xlink">
    <title>tty</title>
    <path d="M19 21.5c0 0.276-0.224 0.5-0.5 0.5h-13C5.224 22 5 21.776 5 21.5S5.224 21 5.5 21h13c0.276 0 0.5 0.224 0.5 0.5zM6 18c0.552 0 1-0.448 1-1s-0.448-1-1-1-1 0.448-1 1 0.448 1 1 1zM11 17c0-0.552-0.448-1-1-1s-1 0.448-1 1 0.448 1 1 1 1-0.448 1-1zM2 20c-0.552 0-1 0.448-1 1s0.448 1 1 1 1-0.448 1-1-0.448-1-1-1zM2 16c-0.552 0-1 0.448-1 1s0.448 1 1 1 1-0.448 1-1-0.448-1-1-1zM18 16c-0.552 0-1 0.448-1 1s0.448 1 1 1 1-0.448 1-1-0.448-1-1-1zM22 16c-0.552 0-1 0.448-1 1s0.448 1 1 1 1-0.448 1-1-0.448-1-1-1zM15 17c0-0.552-0.448-1-1-1s-1 0.448-1 1 0.448 1 1 1 1-0.448 1-1zM24 8.854l-0.087 1.871c0 1.244-1.03 2.275-2.299 2.275l-2.627-0.34h-7e-3c-1.2 0-2.228-1.03-2.228-2.296l-0.215-2.423C15.011 7.324 13.484 7.007 11.996 7 10.512 6.989 8.953 7.307 7.461 7.936l-0.215 2.452c-0.013 1.257-1.039 2.276-2.299 2.276L2.45 12.996h-8e-3c-1.328 0-2.356-1.03-2.356-2.296L0 8.877c-1e-3-1.323 0.52-2.562 1.468-3.509 4.529-4.528 16.538-4.528 21.064 0 0.947 0.947 1.469 2.186 1.468 3.486zM23.001 8.831c0-1.01-0.417-1.996-1.176-2.755-4.132-4.133-15.518-4.135-19.65-1e-3C1.416 6.834 0.999 7.82 1 8.853l0.086 1.823c0 0.74 0.583 1.323 1.3 1.323l2.497-0.332c0.781-4e-3 1.364-0.587 1.364-1.304 0-0.015 0-0.029 2e-3-0.044L6.492 7.55C6.508 7.369 6.62 7.212 6.785 7.138c1.688-0.757 3.483-1.14 5.217-1.14 1.711 9e-3 3.462 0.392 5.204 1.136 0.17 0.072 0.286 0.232 0.302 0.416l0.243 2.769c2e-3 0.761 0.585 1.344 1.302 1.344l2.627 0.34c0.651-4e-3 1.234-0.587 1.234-1.303zM22 20.001c-0.552 0-1 0.448-1 1s0.448 1 1 1 1-0.448 1-1-0.448-1-1-1z" />
</svg>