<svg id="tubes_Layer_1" viewBox="0 0 24 24" fill="currentColor" width="32" height="32" data-name="Layer 1" xmlns="http://www.w3.org/2000/svg" xmlns:xlink="http://www.w3.org/1999/xlink">
    <title>tubes</title>
    <path d="M22.5 0h-9C13.224 0 13 0.224 13 0.5S13.224 1 13.5 1H14v19c0 2.206 1.794 4 4 4s4-1.794 4-4V1h0.5C22.776 1 23 0.776 23 0.5S22.776 0 22.5 0zM18 23c-1.654 0-3-1.346-3-3V10h6v10c0 1.654-1.346 3-3 3zM21 9h-6V1h6zM10.5 0h-9C1.224 0 1 0.224 1 0.5S1.224 1 1.5 1H2v19c0 2.206 1.794 4 4 4s4-1.794 4-4V1h0.5C10.776 1 11 0.776 11 0.5S10.776 0 10.5 0zM6 23c-1.654 0-3-1.346-3-3V10h6v10c0 1.654-1.346 3-3 3zM9 9H3V1h6z" />
</svg>