<svg id="turkey_Layer_1" viewBox="0 0 24 24" fill="currentColor" width="32" height="32" data-name="Layer 1" xmlns="http://www.w3.org/2000/svg" xmlns:xlink="http://www.w3.org/1999/xlink">
    <title>turkey</title>
    <path d="M11 3.5v-3C11 0.224 11.224 0 11.5 0S12 0.224 12 0.5v3C12 3.776 11.776 4 11.5 4S11 3.776 11 3.5zM7.5 4C7.776 4 8 3.776 8 3.5v-3C8 0.224 7.776 0 7.5 0S7 0.224 7 0.5v3C7 3.776 7.224 4 7.5 4zM3.5 4C3.776 4 4 3.776 4 3.5v-3C4 0.224 3.776 0 3.5 0S3 0.224 3 0.5v3C3 3.776 3.224 4 3.5 4zM12.239 7.346l8e-3-4e-3c-0.013-5e-3-0.033-0.01-8e-3 4e-3zM24 18.167C24 23.432 13.414 24 8.863 24c-0.877 0-2.505-0.171-4.837-0.508C1.73 23.161 0 21.132 0 18.772v-2.739c0-4.899 3.837-8.95 8.553-9.031 1.185-0.021 2.528 0.131 3.686 0.343 0.023 4e-3 0.018 0 8e-3-4e-3 2.199-1.118 4.983-1.889 6.566-0.862l1.642-1.642C20.181 4.659 20 4.35 20 3.999c0-0.552 0.448-1 1-1s1 0.448 1 1c0.552 0 1 0.448 1 1s-0.448 1-1 1c-0.351 0-0.66-0.181-0.838-0.455L19.52 7.186c0.532 0.831 0.621 2.075 0.259 3.608C22.426 12.952 24 15.696 24 18.167zM10.218 9.901C9.433 10.687 9 11.731 9 12.841s0.433 2.155 1.218 2.94c1.622 1.622 4.261 1.621 5.881 0 0.889-0.889 1.894-2.657 2.443-4.299 0.628-1.875 0.611-3.326-0.044-3.981-0.336-0.335-0.88-0.503-1.582-0.503-0.67 0-1.484 0.153-2.399 0.459-1.642 0.549-3.409 1.554-4.299 2.444zM23 18.166c0-2.072-1.307-4.402-3.525-6.32-0.605 1.787-1.675 3.649-2.669 4.643-1.006 1.005-2.326 1.508-3.647 1.508s-2.642-0.503-3.647-1.508c-2.012-2.011-2.012-5.284 0-7.295 0.331-0.332 0.808-0.703 1.377-1.072-0.768-0.091-1.546-0.131-2.318-0.12-4.175 0.071-7.57 3.674-7.57 8.031v2.739c0 1.866 1.362 3.47 3.169 3.73C6.423 22.828 8.046 23 8.864 23 15.698 23 23.001 21.73 23 18.166z" />
</svg>