<svg id="turn_left_Layer_1" viewBox="0 0 24 24" fill="currentColor" width="32" height="32" data-name="Layer 1" xmlns="http://www.w3.org/2000/svg" xmlns:xlink="http://www.w3.org/1999/xlink">
    <title>turn-left</title>
    <path d="M24 12.5v9c0 0.276-0.224 0.5-0.5 0.5S23 21.776 23 21.5v-9c0-1.93-1.57-3.5-3.5-3.5H1.25l6.104 6.147c0.195 0.196 0.193 0.513-2e-3 0.708C7.254 15.952 7.126 16 6.999 16c-0.129 0-0.257-0.049-0.354-0.147L0.469 9.631C0.167 9.33 0 8.928 0 8.5s0.167-0.831 0.47-1.133l6.176-6.22C6.84 0.952 7.157 0.95 7.353 1.145 7.548 1.34 7.55 1.656 7.355 1.853L1.25 8H19.5c2.481 0 4.5 2.019 4.5 4.5z" />
</svg>