<svg id="tv_music_Layer_1" viewBox="0 0 24 24" fill="currentColor" width="32" height="32" data-name="Layer 1" xmlns="http://www.w3.org/2000/svg" xmlns:xlink="http://www.w3.org/1999/xlink">
    <title>tv-music</title>
    <path d="M19.5 2h-15C2.019 2 0 4.019 0 6.5v8C0 16.981 2.019 19 4.5 19h7v2h-4C7.224 21 7 21.224 7 21.5S7.224 22 7.5 22h9c0.276 0 0.5-0.224 0.5-0.5S16.776 21 16.5 21h-4v-2h7c2.481 0 4.5-2.019 4.5-4.5v-8C24 4.019 21.981 2 19.5 2zM23 14.5c0 1.93-1.57 3.5-3.5 3.5h-15C2.57 18 1 16.43 1 14.5v-8C1 4.57 2.57 3 4.5 3h15C21.43 3 23 4.57 23 6.5zM16.5 6h-2C13.673 6 13 6.673 13 7.5v3.005C12.582 10.19 12.063 10 11.5 10 10.122 10 9 11.122 9 12.5s1.122 2.5 2.5 2.5 2.5-1.121 2.5-2.5v-5C14 7.224 14.225 7 14.5 7h2C16.776 7 17 6.776 17 6.5S16.776 6 16.5 6zM11.5 14c-0.827 0-1.5-0.673-1.5-1.5s0.673-1.5 1.5-1.5 1.5 0.673 1.5 1.5-0.673 1.5-1.5 1.5z" />
</svg>