<svg id="tv_retro_Layer_1" viewBox="0 0 24 24" fill="currentColor" width="32" height="32" data-name="Layer 1" xmlns="http://www.w3.org/2000/svg" xmlns:xlink="http://www.w3.org/1999/xlink">
    <title>tv-retro</title>
    <path d="M19.5 6h-6.363l4.732-5.162c0.187-0.204 0.173-0.52-0.031-0.707-0.204-0.186-0.52-0.173-0.707 0.031L12 5.76 6.869 0.162C6.683-0.042 6.366-0.055 6.162 0.131 5.958 0.318 5.945 0.634 6.131 0.838L10.863 6H4.5C2.019 6 0 8.019 0 10.5v9C0 21.981 2.019 24 4.5 24h15c2.481 0 4.5-2.019 4.5-4.5v-9C24 8.019 21.981 6 19.5 6zM23 19.5c0 1.93-1.57 3.5-3.5 3.5h-15C2.57 23 1 21.43 1 19.5v-9C1 8.57 2.57 7 4.5 7h15c1.93 0 3.5 1.57 3.5 3.5zM15.5 10h-10C4.673 10 4 10.673 4 11.5v7C4 19.327 4.673 20 5.5 20h10c0.827 0 1.5-0.673 1.5-1.5v-7c0-0.827-0.673-1.5-1.5-1.5zM16 18.5c0 0.276-0.224 0.5-0.5 0.5h-10C5.224 19 5 18.776 5 18.5v-7C5 11.224 5.224 11 5.5 11h10c0.276 0 0.5 0.224 0.5 0.5zM21 11c0 0.552-0.448 1-1 1s-1-0.448-1-1 0.448-1 1-1 1 0.448 1 1zM21 15c0 0.552-0.448 1-1 1s-1-0.448-1-1 0.448-1 1-1 1 0.448 1 1zM21 19c0 0.552-0.448 1-1 1s-1-0.448-1-1 0.448-1 1-1 1 0.448 1 1z" />
</svg>