<svg id="two_nails_Layer_1" viewBox="0 0 24 24" fill="currentColor" width="32" height="32" data-name="Layer 1" xmlns="http://www.w3.org/2000/svg" xmlns:xlink="http://www.w3.org/1999/xlink">
    <title>two-nails</title>
    <path d="M22 9.643V9.178c0-2.088-1.522-3.956-3.6-4.159-2.384-0.233-4.4 1.643-4.4 3.98v0.652c-0.385 0.332-0.72 0.707-1 1.117V8.999c0-1.677-0.729-3.262-2-4.357V4.505c0-1.893-1.162-3.643-2.956-4.247C4.914-0.795 2 1.518 2 4.5v0.152C0.73 5.747 0 7.314 0 9v14.5C0 23.776 0.224 24 0.5 24S1 23.776 1 23.5V9c0-1.073 0.358-2.088 1-2.912V8c0 2.209 1.791 4 4 4h1c2.209 0 4-1.791 4-4V6.089C11.642 6.915 12 7.935 12 9v14.5c0 0.276 0.224 0.5 0.5 0.5s0.5-0.224 0.5-0.5V14c0-1.073 0.358-2.088 1-2.912V13.5c7e-3 1.925 1.594 3.488 3.5 3.5h1c1.933 0 3.5-1.567 3.5-3.5v-2.411c0.642 0.826 1 1.846 1 2.911v9.5c0 0.276 0.224 0.5 0.5 0.5s0.5-0.224 0.5-0.5V14c0-1.677-0.729-3.262-2-4.357zM7 11H6c-0.426 0-0.829-0.092-1.196-0.252C5.27 10.281 5.894 10 6.558 10c0.645 0 1.254 0.263 1.716 0.706C7.886 10.889 7.458 11 7 11zM10 8c0 0.837-0.346 1.594-0.901 2.138C8.44 9.43 7.53 9 6.558 9c-0.997 0-1.929 0.451-2.59 1.192C3.377 9.644 3.001 8.867 3.001 8V4.5c0-1.93 1.57-3.5 3.5-3.5s3.5 1.57 3.5 3.5zM18.5 16h-1c-0.435 0-0.838-0.122-1.195-0.318C16.764 15.253 17.365 15 18 15s1.236 0.253 1.695 0.682C19.338 15.878 18.935 16 18.5 16zM21 13.5c0 0.584-0.21 1.115-0.547 1.541C19.802 14.391 18.929 14 18 14s-1.802 0.391-2.453 1.041C15.21 14.615 15 14.084 15 13.5V9c0-1.654 1.346-3 3-3s3 1.346 3 3z" />
</svg>