<svg id="typewriter_Layer_1" viewBox="0 0 24 24" fill="currentColor" width="32" height="32" data-name="Layer 1" xmlns="http://www.w3.org/2000/svg" xmlns:xlink="http://www.w3.org/1999/xlink">
    <title>typewriter</title>
    <path d="M17 19.5c0 0.276-0.224 0.5-0.5 0.5h-9C7.224 20 7 19.776 7 19.5S7.224 19 7.5 19h9c0.276 0 0.5 0.224 0.5 0.5zM24 9.5c0 0.276-0.224 0.5-0.5 0.5H22v9.5c0 2.481-2.019 4.5-4.5 4.5h-11C4.019 24 2 21.981 2 19.5V10H0.5C0.224 10 0 9.776 0 9.5S0.224 9 0.5 9h1.55C2.249 8.022 3.021 7.25 4 7.05V4c0-2.206 1.794-4 4-4h8c2.206 0 4 1.794 4 4v3.05c0.978 0.199 1.75 0.971 1.95 1.95h1.55C23.776 9 24 9.224 24 9.5zM5 4v3h4.5C9.776 7 10 7.224 10 7.5S9.776 8 9.5 8h-1C7.673 8 7 8.673 7 9.5S7.673 11 8.5 11h7c0.827 0 1.5-0.673 1.5-1.5S16.327 8 15.5 8h-1C14.224 8 14 7.776 14 7.5S14.224 7 14.5 7H19V4c0-1.654-1.346-3-3-3H8C6.346 1 5 2.346 5 4zM21 9.5C21 8.673 20.327 8 19.5 8h-2.005C17.81 8.418 18 8.937 18 9.5c0 1.379-1.121 2.5-2.5 2.5h-7C7.121 12 6 10.879 6 9.5 6 8.937 6.189 8.418 6.505 8H4.5C3.673 8 3 8.673 3 9.5v10C3 21.43 4.57 23 6.5 23h11c1.93 0 3.5-1.57 3.5-3.5zM8 16c0.552 0 1-0.448 1-1s-0.448-1-1-1-1 0.448-1 1 0.448 1 1 1zM12 16c0.552 0 1-0.448 1-1s-0.448-1-1-1-1 0.448-1 1 0.448 1 1 1zM16 14c-0.552 0-1 0.448-1 1s0.448 1 1 1 1-0.448 1-1-0.448-1-1-1z" />
</svg>