<svg id="ui_ux_Layer_1" viewBox="0 0 24 24" fill="currentColor" width="32" height="32" data-name="Layer 1" xmlns="http://www.w3.org/2000/svg" xmlns:xlink="http://www.w3.org/1999/xlink">
    <title>ui-ux</title>
    <path d="M24 12c0 0.276-0.224 0.5-0.5 0.5h-23C0.224 12.5 0 12.276 0 12s0.224-0.5 0.5-0.5h23c0.276 0 0.5 0.224 0.5 0.5zM16.5 15c-0.276 0-0.5 0.224-0.5 0.5v8c0 0.276 0.224 0.5 0.5 0.5s0.5-0.224 0.5-0.5v-8c0-0.276-0.224-0.5-0.5-0.5zM13.5 15c-0.276 0-0.5 0.224-0.5 0.5v5c0 1.379-1.121 2.5-2.5 2.5S8 21.879 8 20.5v-5C8 15.224 7.776 15 7.5 15S7 15.224 7 15.5v5c0 1.93 1.57 3.5 3.5 3.5s3.5-1.57 3.5-3.5v-5c0-0.276-0.224-0.5-0.5-0.5zM8.5 9C10.43 9 12 7.43 12 5.5v-5C12 0.224 11.776 0 11.5 0S11 0.224 11 0.5v5C11 6.879 9.879 8 8.5 8S6 6.879 6 5.5v-5C6 0.224 5.776 0 5.5 0S5 0.224 5 0.5v5C5 7.43 6.57 9 8.5 9zM14.235 8.924C14.317 8.976 14.409 9 14.5 9c0.166 0 0.329-0.083 0.424-0.235L17 5.443l2.076 3.322C19.171 8.917 19.334 9 19.5 9c0.091 0 0.183-0.024 0.265-0.076 0.234-0.146 0.306-0.455 0.159-0.688l-2.335-3.735 2.335-3.735c0.146-0.233 0.075-0.542-0.159-0.688-0.231-0.146-0.541-0.076-0.688 0.159l-2.076 3.322-2.077-3.324C14.778 0 14.468-0.071 14.236 0.076c-0.234 0.146-0.306 0.455-0.159 0.688l2.335 3.735-2.335 3.735c-0.146 0.233-0.075 0.542 0.158 0.69z" />
</svg>