<svg id="uk_country_code_Layer_1" viewBox="0 0 24 24" fill="currentColor" width="32" height="32" data-name="Layer 1" xmlns="http://www.w3.org/2000/svg" xmlns:xlink="http://www.w3.org/1999/xlink">
    <title>uk-country-code</title>
    <path d="M19.5 3h-15C2.019 3 0 5.019 0 7.5v9C0 18.981 2.019 21 4.5 21h15c2.481 0 4.5-2.019 4.5-4.5v-9C24 5.019 21.981 3 19.5 3zM23 16.5c0 1.93-1.57 3.5-3.5 3.5h-15C2.57 20 1 18.43 1 16.5v-9C1 5.57 2.57 4 4.5 4h15C21.43 4 23 5.57 23 7.5zM12 8.5v5c0 1.378-1.121 2.5-2.5 2.5S7 14.878 7 13.5v-5C7 8.224 7.224 8 7.5 8S8 8.224 8 8.5v5C8 14.327 8.673 15 9.5 15s1.5-0.673 1.5-1.5v-5C11 8.224 11.224 8 11.5 8S12 8.224 12 8.5zM17.166 8.661 16.028 12l1.138 3.339c0.089 0.261-0.051 0.545-0.312 0.634C16.8 15.992 16.747 16 16.693 16c-0.208 0-0.402-0.131-0.474-0.339L15.142 12.5H14v3c0 0.276-0.224 0.5-0.5 0.5S13 15.776 13 15.5v-7C13 8.224 13.224 8 13.5 8S14 8.224 14 8.5v3h1.142l1.077-3.161c0.09-0.262 0.374-0.402 0.635-0.312 0.262 0.089 0.401 0.373 0.312 0.634z" />
</svg>