<svg id="umbrella_Layer_1" viewBox="0 0 24 24" fill="currentColor" width="32" height="32" data-name="Layer 1" xmlns="http://www.w3.org/2000/svg" xmlns:xlink="http://www.w3.org/1999/xlink">
    <title>umbrella</title>
    <path d="M23.727 10.044C22.04 5.822 17.373 2.72 12.5 2.519V0.5C12.5 0.224 12.276 0 12 0s-0.5 0.224-0.5 0.5v2.019C6.616 2.72 1.938 5.826 0.249 10.053c-0.44 1.102-0.303 2.35 0.368 3.339C1.3 14.399 2.43 15 3.642 15l7.857-4e-3v6.254c0 0.965-0.785 1.75-1.75 1.75-0.985 0-1.75-0.807-1.75-1.5 0-0.276-0.224-0.5-0.5-0.5s-0.5 0.224-0.5 0.5c0 1.332 1.285 2.5 2.75 2.5 1.517 0 2.75-1.233 2.75-2.75v-6.254l7.833-4e-3c1.213 0 2.344-0.602 3.026-1.608 0.67-0.99 0.808-2.238 0.369-3.34zM22.532 12.822c-0.496 0.732-1.317 1.17-2.198 1.17L3.644 14c-0.88 0-1.701-0.438-2.197-1.169-0.491-0.726-0.589-1.603-0.269-2.407C2.779 6.417 7.33 3.509 12 3.509s9.199 2.904 10.799 6.906c0.321 0.805 0.224 1.682-0.267 2.407z" />
</svg>