<svg id="umbrella_beach_Layer_1" viewBox="0 0 24 24" fill="currentColor" width="32" height="32" data-name="Layer 1" xmlns="http://www.w3.org/2000/svg" xmlns:xlink="http://www.w3.org/1999/xlink">
    <title>umbrella-beach</title>
    <path d="M23.5 23c-0.544 0-1.123-0.226-1.734-0.466C21.095 22.271 20.4 22 19.667 22s-1.427 0.271-2.099 0.534C16.956 22.774 16.378 23 15.834 23s-1.123-0.226-1.734-0.466C13.429 22.271 12.734 22 12.001 22s-1.428 0.271-2.099 0.534C9.29 22.774 8.712 23 8.168 23c-0.151 0-0.304-0.018-0.46-0.048l4.397-9.928 8.072 3.741C20.515 16.922 20.875 17 21.236 17c0.395 0 0.79-0.094 1.155-0.281 0.714-0.366 1.212-1.035 1.365-1.835 1.113-5.815-1.601-11.495-6.598-13.811-5.072-2.35-11.366-0.664-14.644 3.921-0.48 0.671-0.634 1.518-0.421 2.322 0.204 0.773 0.726 1.404 1.431 1.731l7.673 3.556-4.452 10.052c-0.103-0.039-0.207-0.08-0.313-0.121C5.761 22.271 5.067 22 4.333 22s-1.428 0.271-2.099 0.534C1.622 22.774 1.044 23 0.5 23 0.224 23 0 23.224 0 23.5S0.224 24 0.5 24c0.733 0 1.428-0.271 2.099-0.534C3.211 23.226 3.789 23 4.333 23s1.123 0.226 1.734 0.466C6.738 23.729 7.432 24 8.166 24s1.428-0.271 2.099-0.534c0.612-0.24 1.19-0.466 1.734-0.466s1.123 0.226 1.734 0.466C14.404 23.729 15.099 24 15.832 24s1.427-0.271 2.099-0.534c0.612-0.24 1.19-0.466 1.734-0.466s1.123 0.226 1.734 0.466C22.07 23.729 22.765 24 23.498 24c0.276 0 0.5-0.224 0.5-0.5S23.774 23 23.5 23zM3.945 8.14C3.51 7.938 3.188 7.545 3.06 7.06 2.924 6.545 3.021 6.003 3.328 5.575c2.09-2.924 5.518-4.561 8.974-4.561 1.509 0 3.024 0.312 4.435 0.966 4.581 2.123 7.062 7.352 6.036 12.715-0.095 0.496-0.4 0.909-0.839 1.133-0.423 0.216-0.911 0.227-1.336 0.029z" />
</svg>