<svg id="under_construction_Layer_1" viewBox="0 0 24 24" fill="currentColor" width="32" height="32" data-name="Layer 1" xmlns="http://www.w3.org/2000/svg" xmlns:xlink="http://www.w3.org/1999/xlink">
    <title>under-construction</title>
    <path d="M22.695 8.848 15.148 1.301c-1.737-1.737-4.563-1.737-6.301 0L1.302 8.848c-1.737 1.737-1.737 4.563 0 6.3l7.546 7.548c0.841 0.842 1.96 1.305 3.15 1.305s2.309-0.463 3.15-1.305l7.546-7.548c1.736-1.737 1.736-4.563 1e-3-6.3zM21.988 14.441l-7.546 7.548c-1.307 1.305-3.582 1.305-4.887 0l-7.546-7.548c-1.347-1.347-1.347-3.539 0-4.886l7.546-7.547c1.347-1.347 3.54-1.348 4.887 0l7.547 7.547c1.347 1.347 1.347 3.539-1e-3 4.886zM17.5 16h-1.108L13.701 5.093C13.393 4.419 12.742 4 12 4s-1.393 0.418-1.731 1.181L7.608 16H6.5C6.224 16 6 16.224 6 16.5S6.224 17 6.5 17h11c0.276 0 0.5-0.224 0.5-0.5S17.776 16 17.5 16zM9.863 11h4.27l0.492 2H9.373zM10.598 8h2.796l0.492 2h-3.779zM11.999 5c0.35 0 0.646 0.19 0.76 0.42L13.148 7h-2.305l0.366-1.492C11.354 5.19 11.649 5 11.999 5zM8.636 16l0.49-2h5.743l0.492 2z" />
</svg>