<svg id="unicorn_Layer_1" viewBox="0 0 24 24" fill="currentColor" width="32" height="32" data-name="Layer 1" xmlns="http://www.w3.org/2000/svg" xmlns:xlink="http://www.w3.org/1999/xlink">
    <title>unicorn</title>
    <path d="M23.02 5.779v0c-1.04-0.466-2.062-1.047-2.851-1.999l3.679-3.033c0.161-0.133 0.201-0.363 0.094-0.542-0.103-0.171-0.311-0.247-0.5-0.182l-4.401 1.522c-0.012-0.042-0.028-0.078-0.039-0.121V0.491c0-0.314-0.3-0.565-0.6-0.471-0.517 0.162-0.922 0.569-1.164 1.066-1.544 0.204-2.783 0.793-3.683 1.77-1.761 1.914-1.562 4.573-1.554 4.644 0 0.827-0.673 1.5-1.5 1.5H7.495C6.298 9 5.24 9.606 4.608 10.527 1.594 11.523 1e-3 14.279 1e-3 18.5c0 0.276 0.224 0.5 0.5 0.5s0.5-0.224 0.5-0.5c0-2.539 0.602-4.421 1.768-5.657-0.512 1.345-0.768 3.197-0.768 5.657 0 0.276 0.224 0.5 0.5 0.5s0.5-0.224 0.5-0.5c0-2.802 0.333-4.758 0.997-5.95 0.015 1.668 0.714 3.864 1.228 5.474 0.119 0.372 0.229 0.716 0.319 1.019l-0.27 2.192c-0.086 0.7 0.132 1.405 0.6 1.934s1.141 0.832 1.847 0.832c1.272 0 2.327-0.954 2.453-2.22l0.278-2.78H13v2.5c0 1.379 1.121 2.5 2.5 2.5s2.5-1.121 2.5-2.5v-2.947l0.403-1.896C18.807 15.243 19 14.32 19 12.9V9.501c0-0.276 0.225-0.5 0.5-0.5h2.811C23.243 9.001 24 8.243 24 7.312c0-0.663-0.385-1.264-0.98-1.533zM22.311 8H19.5C18.673 8 18 8.673 18 9.5v3.399c0 1.31-0.172 2.133-0.566 3.516l-0.423 1.98C17.004 18.429 17 21.499 17 21.499c0 0.827-0.673 1.5-1.5 1.5s-1.5-0.673-1.5-1.5v-3c0-0.276-0.224-0.5-0.5-0.5H10c-0.257 0-0.472 0.194-0.498 0.45l-0.323 3.23c-0.075 0.752-0.702 1.319-1.458 1.319-0.419 0-0.82-0.181-1.098-0.494-0.278-0.314-0.408-0.733-0.357-1.15l0.282-2.295c8e-3-0.067 3e-3-0.136-0.016-0.201-0.098-0.333-0.221-0.719-0.355-1.14-0.5-1.564-1.184-3.707-1.184-5.225 3e-3-1.376 1.125-2.495 2.5-2.495h3.006c1.378 0 2.5-1.122 2.499-2.541-2e-3-0.023-0.167-2.347 1.297-3.932 0.871-0.943 2.157-1.454 3.825-1.52 0.816 2.711 2.718 3.89 4.488 4.684 0.237 0.106 0.391 0.35 0.391 0.619 0 0.38-0.31 0.689-0.688 0.692z" />
</svg>