<svg id="uniform_martial_arts_Layer_1" viewBox="0 0 24 24" fill="currentColor" width="32" height="32" data-name="Layer 1" xmlns="http://www.w3.org/2000/svg" xmlns:xlink="http://www.w3.org/1999/xlink">
    <title>uniform-martial-arts</title>
    <path d="M20.044 0.869C18.646 0.292 17.285 0 16 0H8C6.715 0 5.354 0.292 3.956 0.869 1.553 1.859 0 4.209 0 6.853V19.5C0 20.327 0.673 21 1.5 21h2.536c0.243 1.694 1.704 3 3.464 3h9c1.76 0 3.221-1.306 3.464-3H22.5c0.827 0 1.5-0.673 1.5-1.5V6.853c0-2.644-1.553-4.993-3.956-5.984zM12.028 6.541 8.862 1h6.283zM1 19.5V6.853c0-2.237 1.31-4.224 3.337-5.06 1.172-0.482 2.306-0.747 3.376-0.787l3.744 6.552L7.271 15h-2.27V6c0-0.276-0.224-0.5-0.5-0.5s-0.5 0.224-0.5 0.5v14H1.5C1.225 20 1 19.775 1 19.5zM16.5 23h-9C6.121 23 5 21.879 5 20.5V16h5.903C10.119 16.993 9 18.723 9 20.5 9 20.776 9.224 21 9.5 21s0.5-0.224 0.5-0.5c0-1.716 1.344-3.492 2-4.257 0.657 0.764 2 2.536 2 4.257 0 0.276 0.224 0.5 0.5 0.5s0.5-0.224 0.5-0.5c0-1.777-1.119-3.507-1.903-4.5H19v4.5c0 1.379-1.121 2.5-2.5 2.5zM23 19.5c0 0.275-0.225 0.5-0.5 0.5H20V6.5C20 6.224 19.776 6 19.5 6S19 6.224 19 6.5V15H8.417l7.872-13.994c1.07 0.04 2.203 0.305 3.374 0.787C21.69 2.629 23 4.615 23 6.853z" />
</svg>