<svg id="united_kingdom_Layer_1" viewBox="0 0 24 24" fill="currentColor" width="32" height="32" data-name="Layer 1" xmlns="http://www.w3.org/2000/svg" xmlns:xlink="http://www.w3.org/1999/xlink">
    <title>united-kingdom</title>
    <path d="M20.492 19.66l-0.671-0.489 0.701-1.022c0.258-0.376 0.264-0.87 0.016-1.253l-0.248-0.383c-0.208-0.321-0.565-0.515-0.948-0.515h-0.886l-1.37-3.692c-0.092-0.249-0.269-0.457-0.499-0.59l-0.14-0.081c-0.219-0.126-0.389-0.321-0.485-0.555l-0.123-0.3c-0.085-0.208-0.231-0.387-0.417-0.513-0.215-0.145-0.375-0.359-0.451-0.607l-0.267-0.863c-0.147-0.476-0.588-0.801-1.086-0.801h-0.756c-0.428 0-0.6-0.553-0.247-0.796 0.204-0.14 0.251-0.422 0.102-0.621l-0.01-0.014c-0.149-0.2-0.101-0.483 0.105-0.623l1.713-1.156c0.27-0.182 0.432-0.486 0.432-0.812 0-0.541-0.439-0.979-0.979-0.979h-3.687c-0.184 0-0.333-0.149-0.333-0.333 0-0.105 0.049-0.204 0.133-0.267l1.6-1.2c0.168-0.126 0.267-0.323 0.267-0.533-1e-3-0.365-0.3-0.664-0.668-0.664-0.473 0-0.94 0.105-1.367 0.307L9.062 0.712C8.67 0.897 8.351 1.209 8.157 1.597L7.956 1.998 7.369 2.306C7.003 2.498 6.697 2.785 6.481 3.137 6.173 3.642 6.25 4.293 6.669 4.711l0.287 0.287-0.293 0.293C6.21 5.744 5.956 6.358 5.956 6.998c0 0.552 0.448 1 1 1v1l0.928 1.237c0.36 0.48 0.926 0.763 1.526 0.763h0.461c0.599 0 1.085 0.486 1.085 1.085v0.415l0.871 1.307c0.084 0.126 0.129 0.274 0.129 0.426 0 0.424-0.344 0.768-0.768 0.768h-1.5c-0.405 0-0.733 0.328-0.733 0.733-6e-3 0.144 9e-3 0.293 0.077 0.422l0.423 0.845-1.174 0.782c-0.204 0.136-0.326 0.365-0.326 0.61 0 0.352 0.251 0.655 0.597 0.72l0.188 0.035c0.597 0.112 1.132 0.441 1.502 0.923l0.165 0.216c0.222 0.29 0.015 0.708-0.349 0.708h-0.18c0 0-7e-3-1e-3-0.01-1e-3-0.551 0-1.057 0.309-1.308 0.8l-0.106 0.207H7.572c-0.341 0-0.618 0.277-0.618 0.618 0 0.234 0.132 0.448 0.342 0.553l1.136 0.568c0.344 0.172 0.723 0.261 1.107 0.261h0.492c0.592 0 1.159-0.235 1.577-0.653l0.347-0.347h0.882c0.685 0 1.312-0.387 1.618-1h4l1.592-0.318c0.528-0.106 0.908-0.569 0.908-1.107 0-0.361-0.172-0.7-0.463-0.914zM19.852 20.699l-1.495 0.299h-3.901c-0.379 0-0.725 0.214-0.894 0.553-0.138 0.276-0.415 0.447-0.724 0.447h-0.882c-0.265 0-0.52 0.105-0.707 0.293l-0.347 0.347c-0.232 0.232-0.541 0.36-0.87 0.36H9.54c-0.205 0-0.41-0.044-0.598-0.126 0.17-0.095 0.311-0.238 0.403-0.418l0.106-0.207c0.081-0.158 0.241-0.256 0.421-0.256h0.186c0.552 1e-3 1.047-0.307 1.291-0.802s0.187-1.075-0.149-1.513l-0.165-0.216c-0.431-0.562-1.02-0.975-1.687-1.19l0.661-0.441c0.42-0.28 0.565-0.828 0.34-1.279l-0.276-0.553h1.114c0.975 0 1.768-0.793 1.768-1.768 0-0.35-0.103-0.689-0.297-0.98l-0.703-1.055c0.058-1.187-0.892-2.201-2.085-2.197H9.409c-0.284 0-0.556-0.136-0.726-0.363l-0.728-0.97V7.997c0-0.552-0.448-1-1-1 0-0.378 0.147-0.733 0.414-1l0.293-0.293c0.391-0.391 0.391-1.024 0-1.414L7.375 4.003C7.283 3.911 7.266 3.768 7.334 3.657 7.455 3.459 7.627 3.298 7.832 3.19l0.587-0.308c0.186-0.097 0.336-0.251 0.43-0.439L9.05 2.042c0.083-0.166 0.215-0.304 0.375-0.396-0.296 0.252-0.47 0.626-0.47 1.016 0 0.735 0.598 1.333 1.333 1.333l3.676-0.038-1.713 1.156c-0.324 0.219-0.547 0.565-0.613 0.951-0.038 0.223-0.021 0.451 0.047 0.667-0.252 0.356-0.332 0.816-0.197 1.253 0.188 0.604 0.739 1.01 1.372 1.01h0.756c0.06 0 0.113 0.039 0.131 0.096l0.267 0.863c0.144 0.464 0.445 0.869 0.848 1.141 0.023 0.015 0.04 0.037 0.05 0.062l0.123 0.3c0.179 0.437 0.502 0.807 0.911 1.042 0.051 0.035 0.183 0.083 0.2 0.151l1.37 3.692c0.145 0.392 0.519 0.652 0.938 0.652h0.886c0.044 0 0.085 0.022 0.108 0.059l0.248 0.383c0.029 0.044 0.028 0.1-2e-3 0.143L18.993 18.6c-0.306 0.446-0.202 1.055 0.236 1.374l0.671 0.489c0.033 0.024 0.053 0.063 0.053 0.104 0 0.061-0.044 0.115-0.101 0.132zM6.61 11.305c0.198 0.396 0.07 0.877-0.298 1.123L5.88 12.716c-0.262 0.175-0.598 0.196-0.879 0.055l-0.219-0.11c-0.208-0.104-0.449-0.121-0.67-0.048-0.568 0.189-1.155-0.234-1.155-0.833v-0.05c0-0.303 0.156-0.585 0.414-0.745l1.373-0.855c0.139-0.087 0.3-0.133 0.464-0.133h0.207c0.332 0 0.636 0.188 0.785 0.485zM3.253 3.942C3.081 3.684 3.115 3.34 3.334 3.12l0.432-0.432C3.888 2.566 3.957 2.4 3.957 2.227v-0.96c0-0.173 0.069-0.338 0.191-0.461l0.618-0.618C4.888 0.066 5.054-3e-3 5.227-3e-3h1.079c0.36 0 0.651 0.292 0.651 0.651v0.079c0 0.173-0.069 0.338-0.191 0.461L5.148 2.806C5.026 2.928 4.957 3.094 4.957 3.267v1.079c0 0.36-0.292 0.651-0.651 0.651-0.218 0-0.421-0.109-0.542-0.29z" />
</svg>