<svg id="universal_access_Layer_1" viewBox="0 0 24 24" fill="currentColor" width="32" height="32" data-name="Layer 1" xmlns="http://www.w3.org/2000/svg" xmlns:xlink="http://www.w3.org/1999/xlink">
    <title>universal-access</title>
    <path d="M12 0C5.38 0 0 5.38 0 12s5.38 12 12 12 12-5.38 12-12S18.62 0 12 0zM12 23C5.93 23 1 18.07 1 12S5.93 1 12 1 23 5.93 23 12 18.07 23 12 23zM12 8c1.1 0 2-0.9 2-2s-0.9-2-2-2-2 0.9-2 2 0.9 2 2 2zM12 5c0.55 0 1 0.45 1 1s-0.45 1-1 1-1-0.45-1-1 0.45-1 1-1zM17.3 7.04 12.9 9h-1.79l-4.4-1.96c-0.25-0.11-0.55 0-0.66 0.25s0 0.55 0.25 0.66L10 9.6v4.69l-1.95 3.98c-0.12 0.25-0.02 0.55 0.23 0.67 0.07 0.03 0.15 0.05 0.22 0.05 0.18 0 0.36-0.1 0.45-0.28l1.82-3.72h2.46l1.82 3.72c0.09 0.18 0.26 0.28 0.45 0.28 0.07 0 0.15-0.02 0.22-0.05 0.25-0.12 0.35-0.42 0.23-0.67L14 14.29V9.6l3.7-1.65c0.25-0.11 0.37-0.41 0.25-0.66-0.11-0.25-0.41-0.37-0.65-0.25zM13 10v4h-2v-4z" />
</svg>