<svg id="up_from_bracket_Layer_1" viewBox="0 0 24 24" fill="currentColor" width="32" height="32" data-name="Layer 1" xmlns="http://www.w3.org/2000/svg" xmlns:xlink="http://www.w3.org/1999/xlink">
    <title>up-from-bracket</title>
    <path d="M4.659 12.974h2.34L6.991 16.5c0 1.915 1.574 3.474 3.509 3.474h2.992c1.935 0 3.508-1.559 3.508-3.474v-3.526h2.345c1.096-5e-3 2.035-0.638 2.451-1.65 0.414-1.008 0.195-2.112-0.57-2.886l-6.58-7.369c-1.458-1.457-3.831-1.457-5.311 0.021L2.786 8.428c-0.775 0.775-0.998 1.885-0.581 2.898s1.357 1.644 2.454 1.648zM3.513 9.116l6.549-7.339c1.07-1.067 2.81-1.068 3.857-0.022 0 0 6.581 7.373 6.588 7.379 0.578 0.578 0.566 1.313 0.363 1.809-0.204 0.496-0.713 1.027-1.528 1.031h-2.843c-0.276 0-0.5 0.224-0.5 0.5V16.5c0 1.364-1.125 2.474-2.508 2.474h-2.992c-1.384 0-2.509-1.109-2.509-2.473l9e-3-4.026c0-0.133-0.052-0.26-0.146-0.354s-0.221-0.147-0.354-0.147h-2.84c-0.817-3e-3-1.327-0.533-1.531-1.028s-0.216-1.231 0.385-1.83zM24.001 15.501v4c0 2.481-2.019 4.5-4.5 4.5H4.5c-2.481 0-4.5-2.019-4.5-4.5v-4c0-0.276 0.224-0.5 0.5-0.5s0.5 0.224 0.5 0.5v4c0 1.93 1.57 3.5 3.5 3.5h15c1.93 0 3.5-1.57 3.5-3.5v-4c0-0.276 0.224-0.5 0.5-0.5s0.5 0.224 0.501 0.5z" />
</svg>