<svg id="up_right_from_square_Layer_1" viewBox="0 0 24 24" fill="currentColor" width="32" height="32" data-name="Layer 1" xmlns="http://www.w3.org/2000/svg" xmlns:xlink="http://www.w3.org/1999/xlink">
    <title>up-right-from-square</title>
    <path d="M24 2v8.5c0 0.276-0.224 0.5-0.5 0.5S23 10.776 23 10.5V2c0-0.09-0.012-0.177-0.034-0.259L7.854 16.854C7.756 16.952 7.628 17 7.5 17s-0.256-0.049-0.354-0.146c-0.195-0.195-0.195-0.512 0-0.707L22.258 1.034C22.176 1.012 22.089 1 22 1h-8.5C13.224 1 13 0.776 13 0.5S13.224 0 13.5 0H22c1.103 0 2 0.897 2 2zM23.5 14c-0.276 0-0.5 0.224-0.5 0.5v5c0 1.93-1.57 3.5-3.5 3.5h-15C2.57 23 1 21.43 1 19.5v-15C1 2.57 2.57 1 4.5 1h5C9.776 1 10 0.776 10 0.5S9.776 0 9.5 0h-5C2.019 0 0 2.019 0 4.5v15C0 21.981 2.019 24 4.5 24h15c2.481 0 4.5-2.019 4.5-4.5v-5c0-0.276-0.224-0.5-0.5-0.5z" />
</svg>