<svg id="up_right_Layer_1" viewBox="0 0 24 24" fill="currentColor" width="32" height="32" data-name="Layer 1" xmlns="http://www.w3.org/2000/svg" xmlns:xlink="http://www.w3.org/1999/xlink">
    <title>up-right</title>
    <path d="M5.91 23c-0.94 0-1.81-0.36-2.48-1.03l-1.41-1.41C1.36 19.9 1 19.02 1 18.09s0.36-1.81 1.02-2.47l7.93-7.93-2.18-2.18C7 4.74 6.79 3.64 7.2 2.63c0.42-1 1.35-1.62 2.44-1.62h9.85c1.93 0 3.5 1.58 3.5 3.5v9.84c0 1.09-0.62 2.02-1.62 2.44s-2.1 0.2-2.88-0.56l-2.18-2.18-7.93 7.93C7.72 22.64 6.84 23.01 5.91 23zM9.65 2C8.84 2 8.34 2.52 8.13 3.01 7.93 3.5 7.91 4.22 8.48 4.8l2.53 2.53c0.2 0.2 0.2 0.51 0 0.71l-8.28 8.28v0C2.26 16.79 2 17.42 2 18.09s0.26 1.29 0.73 1.77l1.41 1.41c0.94 0.94 2.59 0.95 3.54 0l8.28-8.29c0.09-0.09 0.22-0.15 0.35-0.15v0c0.13 0 0.26 0.05 0.35 0.15l2.53 2.54c0.57 0.57 1.3 0.55 1.79 0.35s1.01-0.71 1.01-1.52V4.5c0-1.38-1.12-2.5-2.5-2.5H9.65c0 0 0 0 0 0zM2.38 15.96z" />
</svg>