<svg id="up_Layer_1" viewBox="0 0 24 24" fill="currentColor" width="32" height="32" data-name="Layer 1" xmlns="http://www.w3.org/2000/svg" xmlns:xlink="http://www.w3.org/1999/xlink">
    <title>up</title>
    <path d="M13.49 24H10.5c-1.94 0-3.51-1.56-3.51-3.47V13c0 0-2.33 0-2.33 0-1.1 0-2.04-0.63-2.45-1.65s-0.19-2.12 0.58-2.9l6.55-7.33c1.48-1.48 3.85-1.48 5.31-0.02l6.58 7.37c0.77 0.77 0.98 1.88 0.57 2.89-0.42 1.01-1.35 1.64-2.45 1.65H17v7.53c0 1.92-1.57 3.47-3.51 3.46zM7.5 12c0.13 0 0.26 0.05 0.35 0.15C7.94 12.24 8 12.37 8 12.5v8.03C8 21.89 9.12 23 10.5 23h2.99c1.38 0 2.51-1.11 2.51-2.47V12.5c0-0.28 0.22-0.5 0.5-0.5h2.84c0.81 0 1.32-0.53 1.53-1.03 0.2-0.5 0.22-1.23-0.36-1.81 0 0-0.01-0.01-0.02-0.02l-6.57-7.36c-1.05-1.05-2.79-1.04-3.86 0.02L3.51 9.14c-0.6 0.6-0.59 1.33-0.38 1.83 0.2 0.5 0.71 1.03 1.53 1.03z" />
</svg>