<svg id="urban_planning_Layer_1" viewBox="0 0 24 24" fill="currentColor" width="32" height="32" data-name="Layer 1" xmlns="http://www.w3.org/2000/svg" xmlns:xlink="http://www.w3.org/1999/xlink">
    <title>urban-planning</title>
    <path d="M7.001 8.5c0 0.276-0.224 0.5-0.5 0.5h-1c-0.276 0-0.5-0.224-0.5-0.5S5.225 8 5.501 8h1c0.276 0 0.5 0.224 0.5 0.5zM6.501 11h-1c-0.276 0-0.5 0.224-0.5 0.5s0.224 0.5 0.5 0.5h1c0.276 0 0.5-0.224 0.5-0.5S6.777 11 6.501 11zM6.501 14h-1c-0.276 0-0.5 0.224-0.5 0.5s0.224 0.5 0.5 0.5h1c0.276 0 0.5-0.224 0.5-0.5S6.777 14 6.501 14zM10.501 14c-0.276 0-0.5 0.224-0.5 0.5s0.224 0.5 0.5 0.5h1c0.276 0 0.5-0.224 0.5-0.5s-0.224-0.5-0.5-0.5zM9.001 23.5c0 0.276-0.224 0.5-0.5 0.5h-4C2.019 24 0 21.981 0 19.5v-15C0 2.019 2.019 0 4.501 0h5.515c1.736 0 3.369 0.677 4.597 1.904l3.484 3.484c1.089 1.089 1.758 2.535 1.883 4.07 0.022 0.275-0.183 0.517-0.457 0.539-0.286 0.021-0.517-0.183-0.539-0.457-0.015-0.184-0.06-0.361-0.093-0.541h-5.39c-1.379 0-2.5-1.121-2.5-2.5V1.096C10.678 1.038 10.35 1 10.016 1H4.501c-1.93 0-3.5 1.57-3.5 3.5v15c0 1.93 1.57 3.5 3.5 3.5h4c0.276 0 0.5 0.224 0.5 0.5zM13.905 2.611c-0.55-0.55-1.2-0.959-1.904-1.232V6.5c0 0.827 0.673 1.5 1.5 1.5h5.108c-0.275-0.706-0.676-1.361-1.219-1.904zM23.268 15.267l-7.707 7.707c-0.661 0.661-1.54 1.025-2.475 1.025H11.5c-0.276 0-0.5-0.224-0.5-0.5v-1.586c0-0.935 0.364-1.813 1.025-2.475l7.707-7.707c0.975-0.975 2.561-0.975 3.535 0s0.975 2.561 1e-3 3.536zM22.561 12.439c-0.584-0.584-1.537-0.584-2.121 0l-7.707 7.707c-0.473 0.473-0.732 1.101-0.732 1.768V23h1.086c0.667 0 1.295-0.26 1.768-0.732l7.707-7.707c0.585-0.585 0.585-1.536-1e-3-2.122zM13 14.5V13c0-0.552-0.448-1-1-1H9v5h2c0.276 0 0.5 0.224 0.5 0.5S11.276 18 11 18H5.001c-1.103 0-2-0.897-2-2V7c0-1.103 0.897-2 2-2h2c1.103 0 2 0.897 2 2v4h3c1.103 0 2 0.897 2 2v1.5c0 0.276-0.224 0.5-0.5 0.5s-0.5-0.224-0.501-0.5zM8 7c0-0.552-0.448-1-1-1H5C4.448 6 4 6.448 4 7v9c0 0.552 0.448 1 1 1h3z" />
</svg>