<svg id="url_Layer_1" viewBox="0 0 24 24" fill="currentColor" width="32" height="32" data-name="Layer 1" xmlns="http://www.w3.org/2000/svg" xmlns:xlink="http://www.w3.org/1999/xlink">
    <title>url</title>
    <path d="M24 4.5v6c0 2.481-2.019 4.5-4.5 4.5-0.276 0-0.5-0.224-0.5-0.5s0.224-0.5 0.5-0.5c1.93 0 3.5-1.57 3.5-3.5v-6C23 2.57 21.43 1 19.5 1h-15C2.57 1 1 2.57 1 4.5v6C1 12.43 2.57 14 4.5 14 4.776 14 5 14.224 5 14.5S4.776 15 4.5 15C2.019 15 0 12.981 0 10.5v-6C0 2.019 2.019 0 4.5 0h15C21.981 0 24 2.019 24 4.5zM18.854 23.146c0.195 0.195 0.195 0.512 0 0.707-0.098 0.098-0.226 0.146-0.354 0.146s-0.256-0.049-0.354-0.146l-2.984-2.984c-0.862 0.706-1.964 1.13-3.162 1.13-2.757 0-5-2.243-5-5s2.243-5 5-5 5 2.243 5 5c0 1.199-0.424 2.3-1.131 3.163zM12 21c2.206 0 4-1.794 4-4s-1.794-4-4-4-4 1.794-4 4 1.794 4 4 4zM16.614 10c0.244 0 0.471-0.151 0.601-0.4L18.046 8l0.831 1.6c0.129 0.249 0.356 0.4 0.601 0.4 0.368 0 0.675-0.339 0.706-0.779l0.314-3.659C20.524 5.26 20.286 5 19.983 5h-2e-3c-0.27 0-0.495 0.208-0.516 0.477l-0.21 2.681-0.75-1.443c-0.193-0.372-0.725-0.372-0.918 0l-0.75 1.443-0.212-2.681C16.604 5.208 16.379 5 16.109 5c-0.303 0-0.541 0.26-0.515 0.562l0.314 3.659C15.939 9.661 16.245 10 16.614 10zM10.614 10c0.244 0 0.471-0.151 0.601-0.4L12.046 8l0.831 1.6c0.129 0.249 0.356 0.4 0.601 0.4 0.368 0 0.675-0.339 0.706-0.779l0.314-3.659C14.524 5.26 14.286 5 13.983 5h-2e-3c-0.27 0-0.495 0.208-0.516 0.477l-0.21 2.681-0.75-1.443c-0.193-0.372-0.725-0.372-0.918 0l-0.75 1.443-0.212-2.681C10.604 5.208 10.379 5 10.109 5 9.806 5 9.568 5.26 9.594 5.562l0.314 3.659C9.939 9.661 10.245 10 10.614 10zM7.478 10c0.368 0 0.675-0.339 0.706-0.779l0.314-3.659C8.524 5.26 8.286 5 7.983 5h-2e-3c-0.27 0-0.495 0.208-0.516 0.477l-0.21 2.681-0.75-1.443c-0.193-0.372-0.725-0.372-0.918 0l-0.75 1.443-0.212-2.681C4.604 5.208 4.379 5 4.109 5 3.806 5 3.568 5.26 3.594 5.562l0.314 3.659C3.939 9.661 4.245 10 4.614 10c0.244 0 0.471-0.151 0.601-0.4L6.046 8 6.877 9.6C7.006 9.849 7.233 10 7.478 10z" />
</svg>