<svg id="usa_map_pin_Layer_1" viewBox="0 0 24 24" fill="currentColor" width="32" height="32" data-name="Layer 1" xmlns="http://www.w3.org/2000/svg" xmlns:xlink="http://www.w3.org/1999/xlink">
    <title>usa-map-pin</title>
    <path d="M6.286 10.316c0.945 0.924 2.483 0.924 3.429 0l1.821-1.78c1.94-1.861 1.94-5.211 0-7.072-1.863-1.939-5.211-1.939-7.071 0-1.945 1.87-1.94 5.213 0.013 7.084zM5.172 2.171c1.488-1.551 4.167-1.551 5.656 0 1.551 1.487 1.552 4.169 4e-3 5.654L9.015 9.601c-0.56 0.547-1.471 0.547-2.03 0L5.181 7.836c-1.56-1.495-1.565-4.171-9e-3-5.665zM8 7c1.103 0 2-0.897 2-2S9.103 3 8 3 6 3.897 6 5 6.897 7 8 7zM8 4c0.551 0 1 0.448 1 1S8.551 6 8 6 7 5.552 7 5 7.449 4 8 4zM24 6.997c0 0-2.007 4.037-2 4.5 9e-3 0.575 0 1.5 0 2.5 0 0.5-0.34 0.805-0.55 1.171-0.378 0.657-1.004 1.39-1.355 2.059-0.155 0.301-0.17 0.741-0.056 1.037 0.257 0.656 0.58 1.265 0.915 1.89 0.14 0.261 0.251 0.528 0.309 0.813 0.209 0.894-1.041 1.412-1.552 0.677C19.366 21.175 19 20.503 19 19.997c0-1-1.383-1-2-1-0.419 0-0.662 0.175-0.804 0.379-0.274 0.394-0.73 0.621-1.21 0.621h-0.987c-0.331 0.24-0.907 1.978-1.356 3-0.328 0.745-1.319 0.872-1.828 0.255-0.324-0.391-0.635-1.355-0.816-1.716-0.169-0.339-0.731-0.469-1.217-0.517-0.601-0.048-1.047-0.492-1.283-1.021-0.508-0.896-2.423-1.821-4-2-0.699-0.038-1.545 0.549-1.989-0.31-0.813-1.482-1.511-3.467-1.511-5.171v-1.256c0-0.823 0.246-2.261 0.588-3.655 0.177-0.65 1.087-0.307 0.943 0.295C1.191 9.315 1 10.511 1 11.261v1.256c0 1.578 0.704 3.433 1.37 4.656 0.422-0.156 0.82-0.215 1.243-0.169 1.716 0.195 4.023 1.206 4.757 2.5 0.117 0.215 0.235 0.504 0.512 0.519 1.033 0.102 1.71 0.46 2.013 1.065 0.066 0.131 0.569 1.378 0.692 1.526 0.031 0.06 0.144 0.018 0.142-0.019 0.134-0.306 1.262-3.106 1.692-3.413 0.172-0.123 0.381-0.185 0.592-0.185h0.974c0.16 0 0.305-0.072 0.388-0.191 0.362-0.521 0.939-0.809 1.625-0.809 0.924 0 1.576 0.151 2.031 0.388-0.128-0.51-0.072-1.146 0.179-1.623C19.431 16.34 21 14.05 21 13.997c0 0 6e-3-2.118 0-2.485-4e-3-0.243-0.01-0.691 2-4.75v-0.45c-7e-3-0.017-0.015-0.036-0.023-0.055-0.11 0.763-0.548 1.337-1.225 1.593-0.126 0.048-0.239 0.135-0.327 0.253-0.746 1.001-1.276 1.668-1.574 1.984-0.818 0.952-2.845 0.952-2.852-0.59V8.359c0-0.353-0.239-0.663-0.581-0.752-0.463-0.121-0.884-0.228-1.266-0.321-0.266-0.065-0.428-0.332-0.363-0.598 0-3e-3 2e-3-6e-3 2e-3-0.01 0.065-0.266 0.332-0.428 0.597-0.364 0.443 0.108 0.889 0.222 1.286 0.326 0.781 0.205 1.324 0.912 1.324 1.719v1.138c0.068 0.559 0.911 0.128 1.125-0.096 0.35-0.371 1.061-1.307 1.499-1.895 0.198-0.266 0.465-0.473 0.775-0.59 0.365-0.138 0.568-0.442 0.601-0.918 0.015-0.217-6e-3-0.842-0.013-1.35-0.028-0.659 0.927-0.892 1.217-0.31 0.344 0.649 0.795 1.78 0.795 1.78z" />
</svg>