<svg id="usb_wifi_Layer_1" viewBox="0 0 24 24" fill="currentColor" width="32" height="32" data-name="Layer 1" xmlns="http://www.w3.org/2000/svg" xmlns:xlink="http://www.w3.org/1999/xlink">
    <title>usb-wifi</title>
    <path d="M6 5.5v-1C6 4.224 6.224 4 6.5 4S7 4.224 7 4.5v1C7 5.776 6.776 6 6.5 6S6 5.776 6 5.5zM11.5 6C11.776 6 12 5.776 12 5.5v-1C12 4.224 11.776 4 11.5 4S11 4.224 11 4.5v1C11 5.776 11.224 6 11.5 6zM12.956 22.542c0.114 0.251 2e-3 0.548-0.25 0.661C11.539 23.732 10.292 24 9 24c-4.962 0-9-4.037-9-9v-3.5c0-1.391 0.822-2.585 2-3.149V2.5C2 1.121 3.122 0 4.5 0h9C14.878 0 16 1.121 16 2.5v5.851c1.178 0.564 2 1.758 2 3.149v1c0 0.276-0.224 0.5-0.5 0.5S17 12.776 17 12.5v-1c0-1.379-1.122-2.5-2.5-2.5h-11C2.122 9 1 10.121 1 11.5V15c0 4.411 3.589 8 8 8 1.149 0 2.257-0.238 3.294-0.707 0.251-0.113 0.548-2e-3 0.662 0.249zM3 8.051C3.165 8.027 3.329 8 3.5 8h11c0.171 0 0.335 0.027 0.5 0.051V2.5C15 1.673 14.327 1 13.5 1h-9C3.673 1 3 1.673 3 2.5zM18 22c-0.552 0-1 0.448-1 1s0.448 1 1 1 1-0.448 1-1-0.448-1-1-1zM15.171 20.172c-0.195 0.195-0.195 0.512 0 0.707s0.512 0.195 0.707 0c1.17-1.17 3.073-1.17 4.243 0 0.195 0.195 0.512 0.195 0.707 0s0.195-0.512 0-0.707c-1.56-1.561-4.098-1.561-5.657 0zM23.656 17.343c-3.119-3.119-8.194-3.119-11.313 0-0.195 0.195-0.195 0.512 0 0.707s0.512 0.195 0.707 0c2.729-2.729 7.17-2.729 9.899 0 0.195 0.195 0.512 0.195 0.707 0s0.195-0.512 0-0.707z" />
</svg>