<svg id="usb_pendrive_Layer_1" viewBox="0 0 24 24" fill="currentColor" width="32" height="32" data-name="Layer 1" xmlns="http://www.w3.org/2000/svg" xmlns:xlink="http://www.w3.org/1999/xlink">
    <title>usb-pendrive</title>
    <path d="M14 5.5v-1C14 4.224 14.224 4 14.5 4S15 4.224 15 4.5v1C15 5.776 14.776 6 14.5 6S14 5.776 14 5.5zM9.5 6C9.776 6 10 5.776 10 5.5v-1C10 4.224 9.776 4 9.5 4S9 4.224 9 4.5v1C9 5.776 9.224 6 9.5 6zM21 11.5V15c0 4.962-4.037 9-9 9s-9-4.038-9-9v-3.5c0-1.391 0.822-2.585 2-3.149V2.5C5 1.122 6.121 0 7.5 0h9C17.879 0 19 1.122 19 2.5v5.851c1.178 0.564 2 1.758 2 3.149zM6 8.051C6.165 8.027 6.329 8 6.5 8h11c0.171 0 0.335 0.027 0.5 0.051V2.5C18 1.673 17.327 1 16.5 1h-9C6.673 1 6 1.673 6 2.5zM20 11.5c0-1.378-1.121-2.5-2.5-2.5h-11C5.121 9 4 10.122 4 11.5V15c0 4.411 3.589 8 8 8s8-3.589 8-8z" />
</svg>