<svg id="usd_square_Layer_1" viewBox="0 0 24 24" fill="currentColor" width="32" height="32" data-name="Layer 1" xmlns="http://www.w3.org/2000/svg" xmlns:xlink="http://www.w3.org/1999/xlink">
    <title>usd-square</title>
    <path d="M19.5 0h-15C2.019 0 0 2.019 0 4.5v15C0 21.981 2.019 24 4.5 24h15c2.481 0 4.5-2.019 4.5-4.5v-15C24 2.019 21.981 0 19.5 0zM23 19.5c0 1.93-1.57 3.5-3.5 3.5h-15C2.57 23 1 21.43 1 19.5v-15C1 2.57 2.57 1 4.5 1h15C21.43 1 23 2.57 23 4.5zM16 14.374C16 15.822 14.822 17 13.374 17H12.5v1.5c0 0.276-0.224 0.5-0.5 0.5s-0.5-0.224-0.5-0.5V17h-0.926c-0.979 0-1.893-0.526-2.382-1.375-0.139-0.239-0.057-0.545 0.183-0.683 0.238-0.14 0.544-0.057 0.683 0.183C9.37 15.665 9.952 16 10.575 16h2.8c0.896 0 1.626-0.729 1.626-1.626 0-0.803-0.575-1.478-1.368-1.605l-3.422-0.55c-1.28-0.206-2.21-1.296-2.21-2.593C8.001 8.178 9.179 7 10.627 7h0.874V5.5c0-0.276 0.224-0.5 0.5-0.5s0.5 0.224 0.5 0.5V7h0.926c0.979 0 1.892 0.527 2.382 1.375 0.139 0.239 0.057 0.545-0.183 0.683-0.236 0.136-0.545 0.057-0.683-0.183C14.631 8.335 14.049 8 13.426 8h-2.8C9.73 8 9 8.729 9 9.626c0 0.803 0.575 1.478 1.368 1.605l3.422 0.55c1.28 0.206 2.21 1.297 2.21 2.593z" />
</svg>