<svg id="usd_circle_Layer_1" viewBox="0 0 24 24" fill="currentColor" width="32" height="32" data-name="Layer 1" xmlns="http://www.w3.org/2000/svg" xmlns:xlink="http://www.w3.org/1999/xlink">
    <title>usd-circle</title>
    <path d="M12 0C5.383 0 0 5.383 0 12s5.383 12 12 12 12-5.383 12-12S18.617 0 12 0zM12 23C5.935 23 1 18.065 1 12S5.935 1 12 1 23 5.935 23 12 18.065 23 12 23zM16 14.374C16 15.822 14.822 17 13.374 17H12.5v1.5c0 0.276-0.224 0.5-0.5 0.5s-0.5-0.224-0.5-0.5V17h-0.926c-0.979 0-1.893-0.526-2.382-1.375-0.139-0.239-0.057-0.545 0.183-0.683 0.238-0.14 0.544-0.057 0.683 0.183C9.37 15.665 9.952 16 10.575 16h2.8c0.896 0 1.626-0.729 1.626-1.626 0-0.803-0.575-1.478-1.368-1.605l-3.422-0.55c-1.28-0.206-2.21-1.296-2.21-2.593C8.001 8.178 9.179 7 10.627 7h0.874V5.5c0-0.276 0.224-0.5 0.5-0.5s0.5 0.224 0.5 0.5V7h0.926c0.979 0 1.892 0.527 2.382 1.375 0.139 0.239 0.057 0.545-0.183 0.683-0.236 0.136-0.545 0.057-0.683-0.183C14.631 8.335 14.049 8 13.426 8h-2.8C9.73 8 9 8.729 9 9.626c0 0.803 0.575 1.478 1.368 1.605l3.422 0.55c1.28 0.206 2.21 1.297 2.21 2.593z" />
</svg>