<svg id="user_gear_Layer_1" viewBox="0 0 24 24" fill="currentColor" width="32" height="32" data-name="Layer 1" xmlns="http://www.w3.org/2000/svg" xmlns:xlink="http://www.w3.org/1999/xlink">
    <title>user-gear</title>
    <path d="M23.393 19.789l-1.325-0.756C22.346 18.412 22.5 17.724 22.5 17s-0.155-1.411-0.432-2.033l1.325-0.756c0.24-0.137 0.323-0.442 0.186-0.682s-0.443-0.324-0.682-0.186L21.571 14.1c-0.816-1.142-2.101-1.928-3.571-2.075V10.5c0-0.276-0.224-0.5-0.5-0.5S17 10.224 17 10.5v1.525c-1.47 0.147-2.754 0.933-3.571 2.075l-1.326-0.757c-0.241-0.138-0.546-0.054-0.682 0.186-0.137 0.24-0.054 0.545 0.186 0.682l1.325 0.756C12.654 15.588 12.5 16.276 12.5 17s0.155 1.411 0.432 2.033l-1.325 0.756c-0.24 0.137-0.323 0.442-0.186 0.682 0.092 0.162 0.261 0.252 0.435 0.252 0.084 0 0.169-0.021 0.248-0.066L13.43 19.9c0.816 1.142 2.101 1.928 3.571 2.075V23.5c0 0.276 0.224 0.5 0.5 0.5s0.5-0.224 0.5-0.5v-1.525c1.47-0.147 2.754-0.933 3.571-2.075l1.326 0.757c0.078 0.045 0.164 0.066 0.248 0.066 0.174 0 0.342-0.09 0.435-0.252 0.137-0.24 0.054-0.545-0.188-0.682zM17.5 21c-2.206 0-4-1.794-4-4s1.794-4 4-4 4 1.794 4 4-1.794 4-4 4zM9 12c3.309 0 6-2.691 6-6s-2.691-6-6-6-6 2.691-6 6 2.691 6 6 6zM9 1c2.757 0 5 2.243 5 5s-2.243 5-5 5-5-2.243-5-5 2.243-5 5-5zM9.088 14.486c0.013 0.276-0.2 0.51-0.476 0.523C4.343 15.213 1 18.722 1 23v0.5C1 23.776 0.776 24 0.5 24S0 23.776 0 23.5V23c0-4.812 3.762-8.761 8.564-8.99 0.26-0.015 0.51 0.199 0.524 0.476z" />
</svg>