<svg id="user_experience_Layer_1" viewBox="0 0 24 24" fill="currentColor" width="32" height="32" data-name="Layer 1" xmlns="http://www.w3.org/2000/svg" xmlns:xlink="http://www.w3.org/1999/xlink">
    <title>user-experience</title>
    <path d="M17.976 23.455c0.025 0.275-0.178 0.519-0.453 0.543-0.015 0-0.03 2e-3-0.045 2e-3-0.256 0-0.474-0.195-0.498-0.455C16.747 20.954 14.606 19 12.001 19s-4.746 1.954-4.979 4.545c-0.025 0.275-0.267 0.473-0.543 0.453-0.275-0.024-0.478-0.268-0.453-0.543C6.306 20.345 8.875 18 12.002 18s5.695 2.345 5.974 5.455zM15.5 13.5c0 1.93-1.57 3.5-3.5 3.5s-3.5-1.57-3.5-3.5S10.07 10 12 10s3.5 1.57 3.5 3.5zM14.5 13.5c0-1.379-1.122-2.5-2.5-2.5s-2.5 1.121-2.5 2.5S10.622 16 12 16s2.5-1.121 2.5-2.5zM8.391 4.033C7.615 3.418 8.1 2.09 9.084 2.118h1.398l0.501-1.406c0.309-0.931 1.722-0.932 2.033-6e-3l0.503 1.412h1.398c0.981-0.032 1.468 1.306 0.698 1.912l-1.114 0.907 0.455 1.298c0.351 0.941-0.799 1.824-1.616 1.256l-1.33-0.866-1.306 0.874C9.9 8.079 8.737 7.21 9.068 6.273L9.51 4.944zM9.022 3.258l1.387 1.129c0.162 0.131 0.225 0.349 0.159 0.546l-0.549 1.648 0.082 0.101c0.012 0 0.028-2e-3 0.044-0.013l1.582-1.059c0.167-0.11 0.382-0.111 0.551-3e-3l1.606 1.046 0.127-0.088-0.571-1.629c-0.07-0.198-7e-3-0.42 0.156-0.553l1.38-1.124-0.06-0.142h-1.75c-0.211 0-0.4-0.133-0.471-0.332l-0.62-1.738h-0.15l-0.62 1.738c-0.071 0.199-0.26 0.332-0.471 0.332h-1.75zM23.615 6.922 22.501 7.829l0.455 1.298c0.351 0.942-0.8 1.824-1.616 1.256l-1.33-0.866-1.306 0.874c-0.804 0.58-1.967-0.289-1.636-1.226l0.442-1.329-1.119-0.911C15.615 6.31 16.1 4.982 17.084 5.01h1.398l0.501-1.406c0.309-0.931 1.722-0.932 2.033-6e-3l0.503 1.412h1.398c0.981-0.032 1.468 1.306 0.698 1.912zM22.977 6.151l-0.06-0.142h-1.75c-0.211 0-0.4-0.133-0.471-0.332l-0.62-1.738h-0.15l-0.62 1.738c-0.071 0.199-0.26 0.332-0.471 0.332h-1.75l-0.062 0.14 1.387 1.129c0.162 0.131 0.225 0.349 0.159 0.546L18.02 9.473l0.082 0.1c0.012 0 0.028-2e-3 0.044-0.013l1.582-1.059c0.166-0.109 0.382-0.112 0.551-3e-3l1.606 1.046 0.127-0.088-0.571-1.629c-0.07-0.198-7e-3-0.42 0.156-0.553zM6.591 10.333c-0.366 0.28-0.869 0.3-1.252 0.05l-1.33-0.866-1.306 0.874c-0.804 0.58-1.967-0.289-1.636-1.226l0.442-1.329L0.39 6.925C-0.386 6.31 0.099 4.982 1.083 5.01h1.398l0.501-1.406c0.309-0.931 1.722-0.932 2.033-6e-3L5.518 5.01h1.398c0.981-0.032 1.468 1.306 0.698 1.912L6.5 7.829 6.955 9.127c0.148 0.444 0 0.926-0.364 1.206zM6.011 9.457 5.44 7.828c-0.07-0.198-7e-3-0.42 0.156-0.553l1.38-1.124-0.06-0.142h-1.75c-0.211 0-0.4-0.133-0.471-0.332l-0.62-1.738h-0.15l-0.62 1.738c-0.071 0.199-0.26 0.332-0.471 0.332H1.083l-0.062 0.14 1.387 1.129C2.57 7.409 2.633 7.627 2.567 7.824L2.018 9.473 2.1 9.573c0.012 0 0.028-2e-3 0.044-0.013l1.582-1.059c0.166-0.109 0.383-0.112 0.551-3e-3l1.606 1.046z" />
</svg>