<svg id="user_fast_running_Layer_1" viewBox="0 0 24 24" fill="currentColor" width="32" height="32" data-name="Layer 1" xmlns="http://www.w3.org/2000/svg" xmlns:xlink="http://www.w3.org/1999/xlink">
    <title>user-fast-running</title>
    <path d="M24 11.5c0 0.276-0.224 0.5-0.5 0.5h-2.869c-0.872 0-1.693-0.464-2.143-1.211l-1.33-2.209-2.367 5.129C14.706 13.892 14.525 14 14.337 14c-0.07 0-0.142-0.015-0.21-0.046-0.25-0.116-0.359-0.413-0.244-0.664l2.639-5.718C16.24 7.22 15.816 7 15.36 7h-1.592l-2.674 5.849c-0.269 0.656-0.022 1.429 0.594 1.818l4.056 2.323c0.775 0.445 1.257 1.276 1.257 2.169V23.5c0 0.276-0.224 0.5-0.5 0.5s-0.5-0.224-0.5-0.5v-4.341c0-0.536-0.289-1.035-0.755-1.302l-4.073-2.334c-1.046-0.66-1.457-1.948-0.996-3.072L12.668 7h-1.931c-0.571 0-1.085 0.318-1.341 0.829l-1.447 2.895c-0.124 0.247-0.424 0.346-0.671 0.224-0.247-0.124-0.347-0.424-0.224-0.671l1.447-2.895C8.928 6.529 9.784 6 10.737 6h4.624c0.871 0 1.692 0.464 2.143 1.21l1.844 3.063C19.618 10.721 20.11 11 20.633 11h2.869c0.276 0 0.5 0.224 0.498 0.5zM10.112 16.476c-0.262-0.09-0.545 0.049-0.636 0.31l-0.438 1.271C8.809 18.63 8.262 19 7.645 19H4.499c-0.276 0-0.5 0.224-0.5 0.5s0.224 0.5 0.5 0.5h3.146c1.028 0 1.939-0.617 2.33-1.594l0.446-1.294c0.09-0.261-0.049-0.546-0.309-0.636zM13 2.5C13 1.122 14.121 0 15.5 0S18 1.122 18 2.5 16.879 5 15.5 5 13 3.878 13 2.5zM14 2.5C14 3.327 14.673 4 15.5 4S17 3.327 17 2.5 16.327 1 15.5 1 14 1.673 14 2.5zM2.5 4h8C10.776 4 11 3.776 11 3.5S10.776 3 10.5 3h-8C2.224 3 2 3.224 2 3.5S2.224 4 2.5 4zM1.5 7h5C6.776 7 7 6.776 7 6.5S6.776 6 6.5 6h-5C1.224 6 1 6.224 1 6.5S1.224 7 1.5 7zM5 9.5C5 9.224 4.776 9 4.5 9h-4C0.224 9 0 9.224 0 9.5S0.224 10 0.5 10h4C4.776 10 5 9.776 5 9.5z" />
</svg>