<svg id="user_circle_down_Layer_1" viewBox="0 0 24 24" fill="currentColor" width="32" height="32" data-name="Layer 1" xmlns="http://www.w3.org/2000/svg" xmlns:xlink="http://www.w3.org/1999/xlink">
    <title>user-circle-down</title>
    <path d="M11.998 23.455c0.025 0.274-0.178 0.518-0.453 0.543-0.015 0-0.03 2e-3-0.045 2e-3-0.256 0-0.474-0.195-0.498-0.455C10.768 20.954 8.617 19 6 19s-4.768 1.954-5.002 4.545c-0.025 0.275-0.268 0.471-0.543 0.453-0.275-0.025-0.478-0.269-0.453-0.543C0.284 20.345 2.862 18 6 18s5.716 2.345 5.998 5.455zM2 12c0-2.206 1.794-4 4-4s4 1.794 4 4-1.794 4-4 4-4-1.794-4-4zM3 12c0 1.654 1.346 3 3 3s3-1.346 3-3-1.346-3-3-3-3 1.346-3 3zM24 6.5c0 3.584-2.916 6.5-6.5 6.5S11 10.084 11 6.5 13.916 0 17.5 0 24 2.916 24 6.5zM23 6.5C23 3.467 20.533 1 17.5 1S12 3.467 12 6.5 14.467 12 17.5 12 23 9.533 23 6.5zM20.523 7.119c0.176 0.382 0.115 0.817-0.158 1.136l-1.854 1.831c-0.266 0.267-0.621 0.414-0.999 0.415h-2e-3c-0.378 0-0.733-0.146-1-0.413l-1.836-1.8c-0.304-0.349-0.366-0.785-0.19-1.167S15.03 6.5 15.451 6.5h1.551v-3c0-0.276 0.224-0.5 0.5-0.5s0.5 0.224 0.5 0.5v3h1.558c0.42 0 0.79 0.237 0.963 0.619zM19.634 7.574 19.557 7.5h-4.109l-0.075 0.076 1.838 1.801c0.081 0.081 0.185 0.124 0.297 0.124s0.216-0.043 0.293-0.121l3e-3-3e-3z" />
</svg>