<svg id="user_logout_Layer_1" viewBox="0 0 24 24" fill="currentColor" width="32" height="32" data-name="Layer 1" xmlns="http://www.w3.org/2000/svg" xmlns:xlink="http://www.w3.org/1999/xlink">
    <title>user-logout</title>
    <path d="M8 0C4.691 0 2 2.691 2 6s2.691 6 6 6 6-2.691 6-6-2.691-6-6-6zM8 11c-2.757 0-5-2.243-5-5s2.243-5 5-5 5 2.243 5 5-2.243 5-5 5zM11.964 15.269c-0.104 0.255-0.396 0.378-0.651 0.276C10.419 15.184 9.473 15 8.501 15c-4.136 0-7.5 3.364-7.5 7.5v1c0 0.276-0.224 0.5-0.5 0.5s-0.5-0.224-0.5-0.5v-1c0-4.687 3.813-8.5 8.5-8.5 1.102 0 2.174 0.208 3.187 0.618 0.256 0.104 0.38 0.395 0.276 0.651zM19 23.5c0 0.276-0.224 0.5-0.5 0.5h-2c-1.379 0-2.5-1.122-2.5-2.5v-6c0-1.378 1.121-2.5 2.5-2.5h2c0.276 0 0.5 0.224 0.5 0.5S18.776 14 18.5 14h-2c-0.827 0-1.5 0.673-1.5 1.5v6c0 0.827 0.673 1.5 1.5 1.5h2c0.276 0 0.5 0.224 0.5 0.5zM23.996 18.521c0 0.402-0.166 0.818-0.481 1.092l-2.684 2.366c-0.207 0.182-0.523 0.164-0.706-0.044-0.183-0.207-0.163-0.523 0.044-0.706L22.697 19H17.5c-0.276 0-0.5-0.224-0.5-0.5s0.224-0.5 0.5-0.5h5.062l-2.393-2.11c-0.207-0.183-0.227-0.499-0.044-0.706 0.183-0.208 0.498-0.227 0.706-0.044l2.688 2.37c0.296 0.254 0.477 0.619 0.477 1.011z" />
</svg>