<svg id="user_crown_Layer_1" viewBox="0 0 24 24" fill="currentColor" width="32" height="32" data-name="Layer 1" xmlns="http://www.w3.org/2000/svg" xmlns:xlink="http://www.w3.org/1999/xlink">
    <title>user-crown</title>
    <path d="M20 23.5c0 0.276-0.224 0.5-0.5 0.5S19 23.776 19 23.5c0-3.584-2.916-6.5-6.5-6.5h-1C7.916 17 5 19.916 5 23.5 5 23.776 4.776 24 4.5 24S4 23.776 4 23.5c0-4.136 3.364-7.5 7.5-7.5h1c4.136 0 7.5 3.364 7.5 7.5zM6 8V1.002C6 0.607 6.223 0.26 6.581 0.094 6.939-0.07 7.348-0.015 7.649 0.24l1.627 1.999 1.673-1.797c0.586-0.585 1.518-0.583 2.091-0.014l1.682 1.807 1.502-1.884c0.277-0.337 0.712-0.455 1.115-0.312 0.402 0.145 0.662 0.514 0.662 0.941V8c0 3.309-2.691 6-6 6s-6-2.691-6.001-6zM6.936 0.936 7 6h10V0.98l-1.859 2.331c-0.091 0.114-0.227 0.183-0.372 0.188-0.146-5e-3-0.286-0.053-0.385-0.159L12.32 1.123c-0.172-0.17-0.472-0.17-0.653 0.014L9.616 3.34C9.517 3.445 9.355 3.497 9.233 3.499c-0.145-5e-3-0.28-0.073-0.372-0.186zM7 8c0 2.757 2.243 5 5 5s5-2.243 5-5V7H7z" />
</svg>