<svg id="user_pen_Layer_1" viewBox="0 0 24 24" fill="currentColor" width="32" height="32" data-name="Layer 1" xmlns="http://www.w3.org/2000/svg" xmlns:xlink="http://www.w3.org/1999/xlink">
    <title>user-pen</title>
    <path d="M9 12c3.309 0 6-2.691 6-6s-2.691-6-6-6-6 2.691-6 6 2.691 6 6 6zM9 1c2.757 0 5 2.243 5 5s-2.243 5-5 5-5-2.243-5-5 2.243-5 5-5zM12.767 15.94C11.616 15.325 10.313 15 9 15c-4.411 0-8 3.589-8 8v0.5C1 23.776 0.776 24 0.5 24S0 23.776 0 23.5V23c0-4.962 4.038-9 9-9 1.478 0 2.943 0.366 4.239 1.059 0.244 0.13 0.335 0.433 0.205 0.677s-0.433 0.334-0.677 0.204zM23.267 11.732c-0.943-0.944-2.592-0.944-3.535 0l-7.707 7.707C11.364 20.1 11 20.979 11 21.914V23.5c0 0.276 0.224 0.5 0.5 0.5h1.586c0.935 0 1.814-0.364 2.475-1.025l7.707-7.707C23.74 14.796 24 14.168 24 13.5s-0.26-1.296-0.733-1.768zM22.56 14.56l-7.707 7.707c-0.472 0.472-1.1 0.732-1.768 0.732h-1.086v-1.086c0-0.668 0.26-1.295 0.732-1.768l7.707-7.707c0.566-0.566 1.555-0.566 2.121 0 0.283 0.283 0.439 0.66 0.439 1.061s-0.156 0.777-0.438 1.061z" />
</svg>