<svg id="user_up_Layer_1" viewBox="0 0 24 24" fill="currentColor" width="32" height="32" data-name="Layer 1" xmlns="http://www.w3.org/2000/svg" xmlns:xlink="http://www.w3.org/1999/xlink">
    <title>user-up</title>
    <path d="M15.982 23.467c0.018 0.275-0.19 0.514-0.466 0.532-0.011 0-0.022 0-0.033 0-0.261 0-0.481-0.203-0.499-0.467-0.241-3.663-3.309-6.533-6.984-6.533s-6.743 2.87-6.984 6.533c-0.018 0.276-0.264 0.473-0.532 0.466C0.208 23.98 0 23.742 0.018 23.466 0.294 19.278 3.8 15.999 8 15.999s7.707 3.28 7.982 7.468zM3 9c0-2.757 2.243-5 5-5s5 2.243 5 5-2.243 5-5 5-5-2.243-5-5zM4 9c0 2.206 1.794 4 4 4s4-1.794 4-4-1.794-4-4-4-4 1.794-4 4zM23.889 3.667 20.774 0.552c-0.661-0.662-1.816-0.662-2.478 0l-3.115 3.115c-0.195 0.195-0.195 0.512 0 0.707s0.512 0.195 0.707 0l3.111-3.111V9.5c0 0.276 0.224 0.5 0.5 0.5s0.5-0.224 0.5-0.5V1.215c0.021 0.017 3.182 3.159 3.182 3.159 0.195 0.195 0.512 0.195 0.707 0s0.195-0.512 1e-3-0.707z" />
</svg>