<svg id="user_helmet_safety_Layer_1" viewBox="0 0 24 24" fill="currentColor" width="32" height="32" data-name="Layer 1" xmlns="http://www.w3.org/2000/svg" xmlns:xlink="http://www.w3.org/1999/xlink">
    <title>user-helmet-safety</title>
    <path d="M20.529 23.999c-0.01 0-0.02 0-0.029 0-0.263 0-0.483-0.205-0.499-0.471-0.245-4.222-3.753-7.529-7.986-7.529s-7.742 3.307-7.987 7.529c-0.016 0.276-0.255 0.484-0.528 0.47-0.276-0.016-0.486-0.252-0.47-0.528 0.275-4.75 4.222-8.471 8.985-8.471s8.709 3.721 8.984 8.471c0.016 0.275-0.194 0.512-0.47 0.529zM4.5 6.5C4.5 6.224 4.724 6 5 6h1.01V5.509c-3e-3-1.471 0.568-2.854 1.607-3.895S10.038 0 11.51 0h1c3.028 0 5.495 2.463 5.5 5.491V6h0.992c0.276 0 0.5 0.224 0.5 0.5S19.278 7 19.002 7h-0.989l2e-3 0.999c0 3.31-2.691 6.001-6 6.001s-6-2.691-6-6l-2e-3-1H5.002C4.726 7 4.502 6.776 4.5 6.5zM17.011 7h-10l2e-3 0.999c0 2.758 2.243 5.001 5 5.001s5-2.243 5-5zM7.009 5.507V6h10V5.493C17.005 3.538 15.747 1.871 14 1.255V4c0 0.276-0.224 0.5-0.5 0.5S13 4.276 13 4V1.027C12.838 1.009 12.674 1 12.508 1h-1c-0.171 0-0.341 0.01-0.509 0.029V4c0 0.276-0.224 0.5-0.5 0.5s-0.5-0.224-0.5-0.5V1.258C9.375 1.479 8.804 1.839 8.323 2.321 7.473 3.173 7.006 4.304 7.009 5.507z" />
</svg>