<svg id="user_police_Layer_1" viewBox="0 0 24 24" fill="currentColor" width="32" height="32" data-name="Layer 1" xmlns="http://www.w3.org/2000/svg" xmlns:xlink="http://www.w3.org/1999/xlink">
    <title>user-police</title>
    <path d="M11.774 6.746c0.076 0.044 0.162 0.065 0.247 0.065 0.074 0 0.149-0.017 0.218-0.05C12.768 6.504 14 5.764 14 4.432v-1.45c0-0.22-0.144-0.414-0.354-0.479l-1.494-0.458c-0.099-0.029-0.205-0.027-0.304 4e-3l-1.544 0.513C10.094 2.631 9.955 2.83 9.961 3.05l0.038 1.382c0 1.137 1.112 1.938 1.775 2.314zM12.011 3.049l0.988 0.304v1.08c0 0.628-0.562 1.068-0.962 1.304-0.4-0.26-1.038-0.762-1.038-1.317l-0.028-1.024zM20.529 23.999c-0.01 0-0.02 0-0.029 0-0.264 0-0.483-0.205-0.499-0.471-0.119-2.053-1.073-4.987-2.606-6.381-0.225-0.205-0.569-0.197-0.782 0.016l-4.226 5.153c-0.095 0.115-0.237 0.183-0.387 0.183s-0.292-0.067-0.387-0.183L7.368 17.14c-0.182-0.18-0.525-0.186-0.749 0.021-1.524 1.395-2.473 4.321-2.591 6.366-0.016 0.276-0.213 0.509-0.527 0.471-0.276-0.016-0.486-0.252-0.471-0.528 0.133-2.299 1.176-5.457 2.914-7.046 0.62-0.569 1.572-0.548 2.164 0.046L12 21.211l3.872-4.719c0.626-0.628 1.576-0.647 2.194-0.085 1.749 1.589 2.799 4.756 2.933 7.062 0.017 0.276-0.194 0.513-0.47 0.53zM5.222 5.604 6.015 6v3c0 3.309 2.691 6 6 6s6-2.691 6-6V6l0.791-0.396c0.746-0.371 1.209-1.12 1.209-1.953 0-0.971-0.652-1.835-1.587-2.103L13.68 0.2c-1.093-0.271-2.26-0.269-3.394 0.018L5.6 1.55C4.666 1.816 4.014 2.68 4.014 3.651c0 0.834 0.463 1.582 1.208 1.953zM12.015 14c-2.757 0-5-2.243-5-5V7.569C8.343 8.477 10.135 9 12.015 9c2.395 0 4.03-0.775 5-1.451V9c0 2.757-2.243 5-5 5zM5.874 2.511l4.67-1.327c0.958-0.24 1.96-0.244 2.879-0.017l4.73 1.343c0.507 0.146 0.861 0.614 0.861 1.141 0 0.451-0.251 0.857-0.655 1.059l-1.068 0.534c0 0-0.276 0.102-0.276 0.447v0.582c-0.584 0.532-2.208 1.728-5 1.728-2.772 0-4.392-1.157-5-1.702 0 0-1e-3-0.54-3e-3-0.558 0.02-0.201-0.082-0.402-0.273-0.497L5.669 4.71C5.266 4.509 5.016 4.104 5.016 3.651c0-0.526 0.354-0.995 0.858-1.14z" />
</svg>