<svg id="users_medical_Layer_1" viewBox="0 0 24 24" fill="currentColor" width="32" height="32" data-name="Layer 1" xmlns="http://www.w3.org/2000/svg" xmlns:xlink="http://www.w3.org/1999/xlink">
    <title>users-medical</title>
    <path d="M5 6c1.654 0 3-1.346 3-3S6.654 0 5 0 2 1.346 2 3 3.346 6 5 6zM5 1c1.103 0 2 0.897 2 2S6.103 5 5 5 3 4.103 3 3 3.897 1 5 1zM5.5 9C3.019 9 1 11.019 1 13.5 1 13.776 0.776 14 0.5 14S0 13.776 0 13.5C0 10.468 2.467 8 5.5 8 5.87 8 6.24 8.037 6.599 8.109 6.87 8.164 7.045 8.427 6.99 8.699 6.935 8.969 6.667 9.145 6.401 9.09 6.107 9.03 5.804 9 5.5 9zM14 6c1.654 0 3-1.346 3-3s-1.346-3-3-3-3 1.346-3 3 1.346 3 3 3zM14 1c1.103 0 2 0.897 2 2s-0.897 2-2 2-2-0.897-2-2 0.897-2 2-2zM13.5 8c3.033 0 5.5 2.468 5.5 5.5 0 0.276-0.224 0.5-0.5 0.5S18 13.776 18 13.5c0-2.481-2.019-4.5-4.5-4.5-0.304 0-0.607 0.03-0.901 0.09-0.267 0.059-0.534-0.121-0.589-0.391-0.055-0.271 0.121-0.535 0.391-0.59C12.76 8.037 13.13 8 13.5 8zM6.5 13c0 1.654 1.346 3 3 3s3-1.346 3-3-1.346-3-3-3-3 1.346-3 3zM9.5 11c1.103 0 2 0.897 2 2s-0.897 2-2 2-2-0.897-2-2 0.897-2 2-2zM15 23.5c0 0.276-0.224 0.5-0.5 0.5S14 23.776 14 23.5c0-2.481-2.019-4.5-4.5-4.5S5 21.019 5 23.5C5 23.776 4.776 24 4.5 24S4 23.776 4 23.5C4 20.468 6.467 18 9.5 18s5.5 2.468 5.5 5.5zM24 19.5c0 0.276-0.224 0.5-0.5 0.5H20v3.5c0 0.276-0.224 0.5-0.5 0.5S19 23.776 19 23.5V20h-3.5c-0.276 0-0.5-0.224-0.5-0.5s0.224-0.5 0.5-0.5H19v-3.5c0-0.276 0.224-0.5 0.5-0.5s0.5 0.224 0.5 0.5V19h3.5c0.276 0 0.5 0.224 0.5 0.5z" />
</svg>