<svg id="user_md_chat_Layer_1" viewBox="0 0 24 24" fill="currentColor" width="32" height="32" data-name="Layer 1" xmlns="http://www.w3.org/2000/svg" xmlns:xlink="http://www.w3.org/1999/xlink">
    <title>user-md-chat</title>
    <path d="M3 6c0-3.309 2.691-6 6-6 1.391 0 2.747 0.487 3.818 1.371 0.213 0.176 0.243 0.491 0.067 0.704-0.176 0.214-0.493 0.243-0.704 0.067-0.893-0.737-2.022-1.143-3.182-1.143-2.757 0-5 2.243-5 5s2.243 5 5 5c0.973 0 1.916-0.279 2.727-0.809 0.233-0.149 0.542-0.085 0.692 0.146s0.086 0.541-0.146 0.692c-0.974 0.635-2.105 0.971-3.273 0.971-3.309 0-6-2.691-5.999-5.999zM18 23v0.5c0 0.276-0.224 0.5-0.5 0.5S17 23.776 17 23.5V23c0-2.953-1.613-5.532-4-6.918v2.968c1.14 0.232 2 1.242 2 2.449v2c0 0.276-0.224 0.5-0.5 0.5s-0.5-0.224-0.5-0.5v-2c0-0.827-0.673-1.5-1.5-1.5s-1.5 0.673-1.5 1.5v2c0 0.276-0.224 0.5-0.5 0.5s-0.5-0.224-0.5-0.5v-2c0-1.208 0.86-2.217 2-2.449v-3.462c-0.927-0.377-1.939-0.589-3-0.589s-2.073 0.212-3 0.589v3.482c0.86 0.224 1.5 1 1.5 1.929 0 1.103-0.897 2-2 2s-2-0.897-2-2c0-0.929 0.64-1.705 1.5-1.929v-2.989c-2.387 1.386-4 3.964-4 6.918v0.5c0 0.276-0.224 0.5-0.5 0.5S0 23.775 0 23.499v-0.5c0-4.963 4.037-9 9-9s9 4.037 9 9.001zM5.5 20c-0.552 0-1 0.448-1 1s0.448 1 1 1 1-0.448 1-1-0.448-1-1-1zM23.994 4.752c0.064 1.324-0.419 2.599-1.361 3.589C21.628 9.396 20.215 10 18.755 10H16c-0.962 0-2-0.763-2-1.994V5.241c0-1.458 0.604-2.87 1.657-3.873 0.99-0.944 2.268-1.431 3.591-1.362 2.579 0.126 4.62 2.167 4.746 4.746zM22.996 4.801c-0.102-2.063-1.733-3.695-3.797-3.797C19.137 1.001 19.076 1 19.014 1c-0.982 0-1.924 0.384-2.668 1.092-0.855 0.815-1.347 1.964-1.347 3.149v2.765c0 0.702 0.651 0.994 1 0.994h2.755c1.188 0 2.337-0.491 3.153-1.349 0.752-0.79 1.139-1.803 1.089-2.85z" />
</svg>