<svg id="user_pilot_tie_Layer_1" viewBox="0 0 24 24" fill="currentColor" width="32" height="32" data-name="Layer 1" xmlns="http://www.w3.org/2000/svg" xmlns:xlink="http://www.w3.org/1999/xlink">
    <title>user-pilot-tie</title>
    <path d="M5.208 5.604 6 6v2.001c0 3.309 2.691 6 6 6s6-2.691 6-6V6l0.791-0.396C19.537 5.233 20 4.484 20 3.651c0-0.971-0.652-1.835-1.587-2.103L13.665 0.2c-1.093-0.271-2.26-0.269-3.394 0.018L5.585 1.55C4.651 1.816 3.999 2.68 3.999 3.651c0 0.833 0.463 1.582 1.209 1.953zM12 13c-2.757 0-5-2.243-5-5V7.361C7.928 7.636 9.611 8 12 8s4.072-0.365 5-0.639V8c0 2.757-2.243 5-5 5zM5.859 2.511l4.67-1.327c0.958-0.24 1.959-0.244 2.879-0.017l4.73 1.343c0.507 0.146 0.861 0.614 0.861 1.141 0 0.451-0.251 0.857-0.655 1.059l-1.068 0.534C17.107 5.329 17 5.502 17 5.691v0.624c-0.776 0.256-2.457 0.686-5 0.686s-4.224-0.43-5-0.686V5.691c0-0.189-0.107-0.362-0.276-0.447L5.655 4.71C5.252 4.509 5.001 4.103 5.001 3.651c0-0.526 0.354-0.995 0.858-1.14zM9.071 3.743C9.214 3.506 9.523 3.43 9.757 3.571L12 4.917l2.243-1.346c0.234-0.142 0.544-0.065 0.686 0.172 0.143 0.236 0.065 0.544-0.172 0.686l-2.5 1.5C12.178 5.977 12.089 6 12 6s-0.178-0.023-0.257-0.071l-2.5-1.5C9.006 4.287 8.929 3.98 9.071 3.743zM15.024 15.525c-0.633-0.224-1.336 0.022-1.674 0.586l-1.279 2.132C12.024 18.321 12 18.409 12 18.499c0-0.09-0.024-0.178-0.071-0.256l-1.274-2.125c-0.341-0.564-1.049-0.809-1.678-0.583-3.403 1.221-5.737 4.336-5.946 7.936-0.017 0.276 0.194 0.513 0.47 0.528 0.276 0.027 0.513-0.194 0.528-0.47 0.186-3.199 2.261-5.968 5.286-7.053 0.189-0.066 0.387-3e-3 0.482 0.156l1.153 1.922-1.365 3.838c-0.146 0.361-0.102 0.77 0.117 1.092C9.921 23.807 10.283 24 10.673 24h2.654c0.39 0 0.752-0.192 0.971-0.516 0.219-0.322 0.263-0.73 0.124-1.074l-1.372-3.855 1.158-1.929c0.096-0.161 0.293-0.224 0.482-0.157 3.039 1.078 5.124 3.85 5.311 7.061 0.016 0.266 0.235 0.471 0.499 0.471 0.01 0 0.02 0 0.029 0 0.275-0.016 0.486-0.252 0.47-0.528-0.21-3.613-2.555-6.731-5.975-7.948zM13.487 22.763c0.029 0.074 2e-3 0.133-0.018 0.16-0.02 0.028-0.063 0.076-0.143 0.076h-2.654c-0.079 0-0.123-0.048-0.143-0.076-0.02-0.027-0.047-0.086-0.011-0.178l1.451-4.078c0.02-0.055 0.029-0.11 0.029-0.167 0 0.057 0.01 0.112 0.029 0.167z" />
</svg>