<svg id="user_link_Layer_1" viewBox="0 0 24 24" fill="currentColor" width="32" height="32" data-name="Layer 1" xmlns="http://www.w3.org/2000/svg" xmlns:xlink="http://www.w3.org/1999/xlink">
    <title>user-link</title>
    <path d="M18.213 21.788c0.195 0.195 0.195 0.512 0 0.708l-0.334 0.334c-0.779 0.779-1.805 1.169-2.829 1.169s-2.048-0.39-2.828-1.169c-1.56-1.56-1.56-4.097 0-5.657l1.414-1.414c1.56-1.559 4.096-1.56 5.657 0 0.297 0.298 0.543 0.636 0.732 1.005 0.126 0.246 0.028 0.547-0.218 0.673-0.241 0.125-0.546 0.03-0.673-0.218-0.142-0.276-0.326-0.53-0.549-0.753-1.171-1.169-3.074-1.169-4.243 0l-1.414 1.414c-1.169 1.17-1.169 3.073 0 4.243 1.171 1.169 3.074 1.168 4.243 0l0.334-0.334c0.195-0.195 0.512-0.195 0.708-1e-3zM22.828 12.171c-1.51-1.511-4.146-1.511-5.656 0l-0.335 0.335c-0.195 0.195-0.195 0.512 0 0.707s0.512 0.195 0.707 0l0.335-0.335c1.133-1.133 3.109-1.133 4.242 0 1.17 1.17 1.17 3.073 0 4.243l-1.414 1.414c-1.134 1.133-3.11 1.133-4.242 0-0.223-0.222-0.408-0.476-0.55-0.753-0.127-0.246-0.43-0.342-0.673-0.217-0.246 0.126-0.344 0.427-0.218 0.673 0.19 0.371 0.437 0.708 0.733 1.004 0.755 0.755 1.76 1.171 2.828 1.171s2.072-0.416 2.828-1.171l1.414-1.414c0.756-0.756 1.172-1.76 1.172-2.829s-0.416-2.073-1.171-2.828zM3 6c0-3.309 2.691-6 6-6s6 2.691 6 6-2.691 6-6 6-6-2.691-6-6zM4 6c0 2.757 2.243 5 5 5s5-2.243 5-5-2.243-5-5-5-5 2.243-5 5zM11.978 15.021c0.081-0.264-0.066-0.544-0.331-0.625C10.793 14.134 9.902 14 9.001 14 4.037 14 0 18.038 0 23v0.5C0 23.776 0.224 24 0.5 24S1 23.776 1 23.5V23c0-4.411 3.589-8 8-8 0.802 0 1.594 0.118 2.354 0.352 0.262 0.081 0.543-0.067 0.624-0.331z" />
</svg>