<svg id="users_class_Layer_1" viewBox="0 0 24 24" fill="currentColor" width="32" height="32" data-name="Layer 1" xmlns="http://www.w3.org/2000/svg" xmlns:xlink="http://www.w3.org/1999/xlink">
    <title>users-class</title>
    <path d="M24 4.5v8c0 0.276-0.224 0.5-0.5 0.5S23 12.776 23 12.5v-8C23 2.57 21.43 1 19.5 1h-15C2.57 1 1 2.57 1 4.5v8C1 12.776 0.776 13 0.5 13S0 12.776 0 12.5v-8C0 2.019 2.019 0 4.5 0h15C21.981 0 24 2.019 24 4.5zM19.75 19c-1.634 0-3.039 0.937-3.75 2.293C15.289 19.937 13.884 19 12.25 19h-0.5c-1.634 0-3.039 0.937-3.75 2.293C7.289 19.937 5.884 19 4.25 19 1.907 19 0 20.906 0 23.25v0.25C0 23.776 0.224 24 0.5 24S1 23.776 1 23.5v-0.25C1 21.458 2.458 20 4.25 20s3.25 1.458 3.25 3.25v0.25C7.5 23.776 7.724 24 8 24s0.5-0.224 0.5-0.5v-0.25c0-1.792 1.458-3.25 3.25-3.25h0.5c1.792 0 3.25 1.458 3.25 3.25v0.25c0 0.276 0.224 0.5 0.5 0.5s0.5-0.224 0.5-0.5v-0.25c0-1.792 1.458-3.25 3.25-3.25S23 21.458 23 23.25v0.25c0 0.276 0.224 0.5 0.5 0.5s0.5-0.224 0.5-0.5v-0.25c0-2.344-1.907-4.25-4.25-4.25zM19.75 18c-1.378 0-2.5-1.121-2.5-2.5s1.122-2.5 2.5-2.5 2.5 1.121 2.5 2.5-1.122 2.5-2.5 2.5zM19.75 17c0.827 0 1.5-0.673 1.5-1.5s-0.673-1.5-1.5-1.5-1.5 0.673-1.5 1.5 0.673 1.5 1.5 1.5zM12 18c-1.378 0-2.5-1.121-2.5-2.5S10.622 13 12 13s2.5 1.121 2.5 2.5S13.378 18 12 18zM12 17c0.827 0 1.5-0.673 1.5-1.5S12.827 14 12 14s-1.5 0.673-1.5 1.5S11.173 17 12 17zM4.25 18c-1.378 0-2.5-1.121-2.5-2.5S2.872 13 4.25 13s2.5 1.121 2.5 2.5S5.628 18 4.25 18zM4.25 17c0.827 0 1.5-0.673 1.5-1.5S5.077 14 4.25 14s-1.5 0.673-1.5 1.5 0.673 1.5 1.5 1.5z" />
</svg>