<svg id="user_alien_Layer_1" viewBox="0 0 24 24" fill="currentColor" width="32" height="32" data-name="Layer 1" xmlns="http://www.w3.org/2000/svg" xmlns:xlink="http://www.w3.org/1999/xlink">
    <title>user-alien</title>
    <path d="M10.049 6.951c-0.71-0.709-1.861-0.908-2.701-0.949-0.362-0.016-0.717 0.117-0.973 0.373s-0.392 0.61-0.373 0.972c0.041 0.841 0.24 1.992 0.949 2.702 0.71 0.709 1.926 0.91 2.766 0.951 0.34 0 0.667-0.135 0.908-0.375 0.256-0.256 0.392-0.61 0.373-0.972-0.041-0.841-0.24-1.992-0.949-2.702zM9.918 9.918C9.884 9.95 9.826 9.994 9.702 10 8.763 9.953 8.036 9.719 7.658 9.342 7.281 8.964 7.047 8.238 7 7.297 6.995 7.188 7.05 7.115 7.082 7.082 7.114 7.051 7.181 7 7.281 7 8.22 7.047 8.964 7.281 9.342 7.658 9.719 8.036 9.953 8.762 10 9.703c5e-3 0.109-0.05 0.182-0.082 0.215zM17.625 6.375c-0.256-0.255-0.606-0.389-0.972-0.373-0.841 0.041-1.992 0.24-2.702 0.949-0.709 0.71-0.908 1.861-0.949 2.701-0.019 0.362 0.117 0.717 0.373 0.973 0.241 0.24 0.568 0.375 0.907 0.375 0.841-0.041 2.057-0.242 2.767-0.951 0.709-0.71 0.908-1.861 0.949-2.701 0.019-0.362-0.117-0.717-0.373-0.973zM17 7.298c-0.047 0.939-0.281 1.666-0.658 2.044-0.378 0.377-1.104 0.611-2.045 0.658-0.089-5e-3-0.181-0.049-0.215-0.082C14.05 9.885 13.995 9.813 14 9.702c0.047-0.939 0.281-1.666 0.658-2.044 0.378-0.377 1.12-0.611 2.061-0.658 0.101 0 0.167 0.051 0.199 0.082C16.95 7.115 17.005 7.187 17 7.297zM9.717 11.001c0.021 0-0.021 0 0 0zM14.282 11.001c0.021 0-0.021 0 0 0zM16.745 15.405C18.448 13.242 20 10.535 20 7.852 20 3.523 16.411 0 12 0S4 3.522 4 7.852c0 2.683 1.552 5.39 3.255 7.553C4.652 16.768 3 19.467 3 22.438V23.5C3 23.776 3.224 24 3.5 24S4 23.776 4 23.5v-1.062c0-2.667 1.522-5.082 3.904-6.241 0.738 0.865 1.47 1.617 2.088 2.211 0.563 0.541 1.285 0.812 2.008 0.812s1.444-0.271 2.008-0.812c0.617-0.593 1.35-1.346 2.088-2.211C18.478 17.355 20 19.77 20 22.438V23.5c0 0.276 0.224 0.5 0.5 0.5s0.5-0.224 0.5-0.5v-1.062c0-2.972-1.651-5.671-4.255-7.033zM13.314 17.687c-0.736 0.709-1.893 0.709-2.629 0-2.123-2.041-5.686-6.032-5.686-9.835 0-3.778 3.141-6.852 7-6.852s7 3.073 7 6.852c0 3.803-3.563 7.794-5.685 9.835z" />
</svg>