<svg id="user_hair_mullet_Layer_1" viewBox="0 0 24 24" fill="currentColor" width="32" height="32" data-name="Layer 1" xmlns="http://www.w3.org/2000/svg" xmlns:xlink="http://www.w3.org/1999/xlink">
    <title>user-hair-mullet</title>
    <path d="M7.5 12c0.822-0.014 1.599-0.113 2.26-0.438C10.453 11.842 11.208 12 12 12s1.547-0.158 2.24-0.438c0.661 0.325 1.439 0.424 2.26 0.438 1.254 0 2.61-0.664 3.196-1.306 0.526-0.545 0.335-1.539-0.375-1.821C18.733 8.619 18 8.302 18 6c0-3.309-2.691-6-6-6S6 2.691 6 6c0 2.302-0.733 2.619-1.321 2.873-0.71 0.282-0.901 1.277-0.375 1.822C4.89 11.337 6.246 12 7.5 12zM18.925 9.791c0.083 0.045 0.107 0.132 0.033 0.229C18.535 10.483 17.421 11 16.5 11c-0.368 0-0.713-0.04-1.043-0.104 0.865-0.612 1.559-1.447 2.003-2.421 0.376 0.752 0.928 1.083 1.465 1.316zM17 6c0 2.757-2.243 5-5 5S7 8.757 7 6h1.5c2.723 0 5.095-1.769 5.938-4.338C15.959 2.521 17 4.133 17 6zM12 1c0.534 0 1.04 0.106 1.523 0.262C12.84 3.472 10.821 5 8.5 5H7.101C7.566 2.721 9.585 1 12 1zM5.003 9.88c9e-3-0.042 0.033-0.073 0.072-0.089 0.537-0.232 1.09-0.564 1.466-1.316 0.443 0.974 1.138 1.808 2.003 2.421C8.214 10.96 7.868 11 7.501 11c-0.921 0-2.035-0.517-2.458-0.979C4.993 9.966 5 9.905 5.003 9.88zM21 23v0.5c0 0.276-0.224 0.5-0.5 0.5S20 23.776 20 23.5V23c0-4.411-3.589-8-8-8s-8 3.589-8 8v0.5C4 23.776 3.776 24 3.5 24S3 23.776 3 23.5V23c0-4.962 4.038-9 9-9s9 4.038 9 9z" />
</svg>