<svg id="user_vneck_hair_Layer_1" viewBox="0 0 24 24" fill="currentColor" width="32" height="32" data-name="Layer 1" xmlns="http://www.w3.org/2000/svg" xmlns:xlink="http://www.w3.org/1999/xlink">
    <title>user-vneck-hair</title>
    <path d="M12 12c3.309 0 6-2.691 6-6s-2.691-6-6-6C8.679-0.019 5.982 2.765 6 6c0 3.309 2.691 6 6 6zM12 1c0.534 0 1.04 0.106 1.523 0.262C12.84 3.472 10.821 5 8.5 5H7.101C7.566 2.721 9.585 1 12 1zM8.5 6c2.723 0 5.095-1.769 5.939-4.338C15.96 2.521 17 4.133 17 6c0 2.757-2.243 5-5 5S7 8.757 7 6zM21 20.875V23.5c0 0.276-0.224 0.5-0.5 0.5S20 23.776 20 23.5v-2.625c0-2.114-0.87-4.35-2.164-5.562-0.462-0.456-1.273-0.382-1.689 0.101l-3.767 4.411c-0.189 0.231-0.573 0.231-0.761 0l-3.764-4.423c-0.406-0.482-1.223-0.534-1.683-0.097C4.873 16.518 4 18.757 4 20.875V23.5C4 23.776 3.776 24 3.5 24S3 23.776 3 23.5v-2.625c0-2.379 1-4.911 2.49-6.301 0.851-0.84 2.351-0.728 3.12 0.171l3.391 3.984 3.393-3.973c0.774-0.908 2.285-1.013 3.127-0.173 1.483 1.39 2.479 3.918 2.479 6.292z" />
</svg>