<svg id="user_visor_Layer_1" viewBox="0 0 24 24" fill="currentColor" width="32" height="32" data-name="Layer 1" xmlns="http://www.w3.org/2000/svg" xmlns:xlink="http://www.w3.org/1999/xlink">
    <title>user-visor</title>
    <path d="M21 23v0.5c0 0.276-0.224 0.5-0.5 0.5S20 23.776 20 23.5V23c0-4.411-3.589-8-8-8s-8 3.589-8 8v0.5C4 23.776 3.776 24 3.5 24S3 23.776 3 23.5V23c0-4.963 4.037-9 9-9s9 4.037 9 9zM4 6.5c0-1.199 0.848-2.203 1.976-2.444C6.965 1.618 9.348 0 12 0s5.035 1.618 6.024 4.056C19.152 4.298 20 5.301 20 6.5s-0.848 2.203-1.976 2.444C17.035 11.382 14.651 13 12 13s-5.035-1.618-6.024-4.056C4.848 8.702 4 7.699 4 6.5zM16.9 9H7.1c0.929 1.82 2.817 3 4.9 3s3.971-1.18 4.9-3zM7.1 4h9.8c-0.929-1.82-2.817-3-4.9-3S8.029 2.18 7.1 4zM5 6.5C5 7.327 5.673 8 6.5 8h11C18.327 8 19 7.327 19 6.5S18.327 5 17.5 5h-11C5.673 5 5 5.673 5 6.5zM16.52 21.073c-0.272-0.666-0.66-1.321-1.132-1.887-0.216-0.26-0.61-0.258-0.825 2e-3-0.479 0.579-0.873 1.268-1.146 2.075-0.168 0.529-0.315 1.133-0.414 1.818-0.048 0.332 0.338 0.548 0.595 0.332 0.532-0.446 1.251-0.97 1.726-0.97 0.361 0 0.785 0.205 1.15 0.462 0.248 0.175 0.58-0.046 0.518-0.343-0.105-0.503-0.253-0.97-0.472-1.489z" />
</svg>