<svg id="user_chef_Layer_1" viewBox="0 0 24 24" fill="currentColor" width="32" height="32" data-name="Layer 1" xmlns="http://www.w3.org/2000/svg" xmlns:xlink="http://www.w3.org/1999/xlink">
    <title>user-chef</title>
    <path d="M20.999 23.467c0.018 0.276-0.19 0.514-0.466 0.532-0.264 0.022-0.514-0.19-0.532-0.466C19.761 19.869 16.686 17 13 17h-2c-0.34 0-0.672 0.032-1 0.079V23.5c0 0.276-0.224 0.5-0.5 0.5S9 23.776 9 23.5v-6.209c-2.741 0.817-4.805 3.267-5.001 6.242C3.981 23.797 3.762 24 3.5 24c-0.011 0-0.022 0-0.033 0-0.276-0.019-0.484-0.256-0.466-0.532 0.276-4.187 3.789-7.467 7.999-7.467h2c4.21 0 7.724 3.28 7.999 7.466zM13 18c-0.552 0-1 0.448-1 1s0.448 1 1 1 1-0.448 1-1-0.448-1-1-1zM13 22c-0.552 0-1 0.448-1 1s0.448 1 1 1 1-0.448 1-1-0.448-1-1-1zM4 2.643C4 1.186 5.186 0 6.643 0 7.301 0 8.14 0.249 8.845 0.646 9.372 0.442 10.669 0 12 0s2.628 0.442 3.155 0.646C15.86 0.249 16.699 0 17.357 0 18.814 0 20 1.186 20 2.643c0 0.979-0.541 1.873-1.411 2.33C18.22 5.166 18 5.506 18 5.88V9c0 3.309-2.691 6-6 6s-6-2.691-6-6V5.88c0-0.374-0.22-0.714-0.589-0.907C4.54 4.516 4 3.622 4 2.643zM17 9V8H7v1c0 2.757 2.243 5 5 5s5-2.243 5-5zM5 2.643C5 3.25 5.336 3.804 5.876 4.088 6.569 4.451 7 5.139 7 5.88V7h10V5.88c0-0.741 0.431-1.429 1.124-1.792C18.664 3.804 19 3.25 19 2.643 19 1.738 18.263 1 17.357 1c-0.545 0-1.305 0.251-1.892 0.625-0.14 0.09-0.317 0.105-0.471 0.035C14.979 1.654 13.476 1 11.999 1s-2.98 0.654-2.996 0.66C8.85 1.73 8.674 1.715 8.533 1.625 7.946 1.251 7.186 1 6.642 1 5.736 1 4.999 1.737 5 2.643z" />
</svg>