<svg id="user_check_Layer_1" viewBox="0 0 24 24" fill="currentColor" width="32" height="32" data-name="Layer 1" xmlns="http://www.w3.org/2000/svg" xmlns:xlink="http://www.w3.org/1999/xlink">
    <title>user-check</title>
    <path d="M8 12c3.309 0 6-2.691 6-6s-2.691-6-6-6-6 2.691-6 6 2.691 6 6 6zM8 1c2.757 0 5 2.243 5 5s-2.243 5-5 5-5-2.243-5-5 2.243-5 5-5z" />
    <path d="M8 14c-4.411 0-8 3.589-8 8v1.5C0 23.776 0.224 24 0.5 24S1 23.776 1 23.5V22c0-3.86 3.14-7 7-7s7 3.14 7 7v1.5c0 0.276 0.224 0.5 0.5 0.5s0.5-0.224 0.5-0.5V22c0-4.411-3.589-8-8-8z" />
    <path d="M23.841 8.635c-0.202-0.188-0.518-0.178-0.707 0.024l-4.574 4.9C18.277 13.843 17.9 14 17.498 14v0c-0.4 0-0.777-0.156-1.073-0.451l-2.583-2.414c-0.201-0.188-0.519-0.178-0.707 0.024s-0.178 0.518 0.024 0.707l2.571 2.402C16.202 14.741 16.83 15 17.498 15h2e-3c0.668 0 1.296-0.261 1.78-0.747l4.586-4.912c0.188-0.202 0.177-0.519-0.025-0.706z" />
</svg>