<svg id="user_permissions_Layer_1" viewBox="0 0 24 24" fill="currentColor" width="32" height="32" data-name="Layer 1" xmlns="http://www.w3.org/2000/svg" xmlns:xlink="http://www.w3.org/1999/xlink">
    <title>user-permissions</title>
    <path d="M24 13.5v1c0 2.481-2.019 4.5-4.5 4.5h-7v4h5c0.276 0 0.5 0.224 0.5 0.5S17.776 24 17.5 24h-11C6.224 24 6 23.776 6 23.5S6.224 23 6.5 23h5v-4h-7C2.019 19 0 16.981 0 14.5v-10C0 2.019 2.019 0 4.5 0H12c0.276 0 0.5 0.224 0.5 0.5S12.276 1 12 1H4.5C2.57 1 1 2.57 1 4.5v10C1 16.43 2.57 18 4.5 18h15c1.93 0 3.5-1.57 3.5-3.5v-1c0-0.276 0.224-0.5 0.5-0.5s0.5 0.224 0.5 0.5zM24 3.879V7c-0.175 3.704-2.659 5.235-4.513 6.066-0.307 0.138-0.631 0.206-0.954 0.206-0.378 0-0.756-0.094-1.102-0.281-1.821-0.985-4.262-2.676-4.431-5.966V3.879c0-1.296 0.825-2.44 2.055-2.848l2.796-0.926c0.418-0.139 0.881-0.139 1.299 0l2.795 0.926C23.174 1.439 24.001 2.583 24 3.879zM23.001 6.977V3.879c0-0.864-0.552-1.627-1.371-1.898l-2.795-0.926c-0.217-0.072-0.453-0.072-0.67 0L15.37 1.981C14.551 2.252 14 3.016 14 3.879V7c0.141 2.731 2.162 4.168 3.908 5.112 0.363 0.196 0.788 0.213 1.169 0.042 1.75-0.785 3.777-2.083 3.924-5.177zM8 10c-1.103 0-2-0.897-2-2s0.897-2 2-2 2 0.897 2 2-0.897 2-2 2zM8 9c0.552 0 1-0.449 1-1S8.552 7 8 7 7 7.449 7 8 7.448 9 8 9zM4.04 14.429c-0.039 0.273 0.15 0.527 0.424 0.566 0.266 0.027 0.526-0.15 0.566-0.424C5.24 13.105 6.516 12 8 12s2.76 1.105 2.97 2.571c0.039 0.275 0.299 0.463 0.566 0.424 0.273-0.039 0.463-0.293 0.424-0.566C11.68 12.474 9.978 11 8 11s-3.68 1.474-3.96 3.429zM21 4.5c0 1.103-0.897 2-2 2v3h0.5c0.276 0 0.5 0.224 0.5 0.5s-0.224 0.5-0.5 0.5H19c-0.552 0-1-0.449-1-1v-3c-1.103 0-2-0.897-2-2s0.897-2 2-2h1c1.103 0 2 0.897 2 2zM20 4.5c0-0.551-0.448-1-1-1h-1c-0.552 0-1 0.449-1 1s0.448 1 1 1h1c0.552 0 1-0.449 1-1z" />
</svg>