<svg id="user_forbidden_Layer_1" viewBox="0 0 24 24" fill="currentColor" width="32" height="32" data-name="Layer 1" xmlns="http://www.w3.org/2000/svg" xmlns:xlink="http://www.w3.org/1999/xlink">
    <title>user-forbidden</title>
    <path d="M12 0C5.383 0 0 5.383 0 12s5.383 12 12 12 12-5.383 12-12S18.617 0 12 0zM23 12c0 2.853-1.101 5.447-2.889 7.404l-6.681-6.681C14.939 12.139 16 10.673 16 9c0-2.206-1.794-4-4-4-1.673 0-3.139 1.061-3.723 2.57L4.596 3.889C6.553 2.101 9.147 1 12 1c6.065 0 11 4.935 11 11zM9.078 8.371C9.372 7.008 10.586 6 12 6c1.654 0 3 1.346 3 3 0 1.414-1.008 2.628-2.371 2.922zM7 21.786V21c0-2.605 1.954-4.746 4.545-4.979 0.275-0.025 0.478-0.268 0.453-0.543s-0.277-0.479-0.543-0.453C8.345 15.305 6 17.874 6 21.001v0.208c-3.006-1.966-5-5.356-5-9.208 0-2.853 1.101-5.447 2.889-7.404l15.515 15.515C17.447 21.9 14.853 23.001 12 23.001c-1.801 0-3.498-0.444-5-1.215z" />
</svg>