<svg id="user_hoodie_Layer_1" viewBox="0 0 24 24" fill="currentColor" width="32" height="32" data-name="Layer 1" xmlns="http://www.w3.org/2000/svg" xmlns:xlink="http://www.w3.org/1999/xlink">
    <title>user-hoodie</title>
    <path d="M17.004 13.537C18.121 11.32 19 8.955 19 7c0-3.86-3.14-7-7-7S5 3.14 5 7c0 1.956 0.88 4.322 1.996 6.539C4.519 15.201 3.002 17.977 3.002 21l-3e-3 2.5c0 0.276 0.223 0.5 0.5 0.5v0c0.276 0 0.5-0.224 0.5-0.5l3e-3-2.5c0-2.651 1.31-5.091 3.459-6.575 1.049 2.08 3.648 5.798 4.038 6.245v2.83c0 0.276 0.224 0.5 0.5 0.5s0.5-0.224 0.5-0.5v-2.83c0.378-0.431 2.963-4.127 4.039-6.246 2.151 1.484 3.461 3.925 3.461 6.577v2.5c0 0.276 0.224 0.5 0.5 0.5s0.5-0.224 0.5-0.5v-2.5c0-3.024-1.517-5.8-3.995-7.464zM12 19.666c-0.61-0.83-1.835-2.556-3.019-4.587C8.352 13.199 8.027 11.53 8 9.991 7.969 8.224 8.386 6.851 9.204 6.018 9.868 5.342 10.809 4.999 12 4.999s2.132 0.343 2.796 1.019C15.614 6.851 16.03 8.224 16 9.991c-0.027 1.54-0.352 3.209-0.981 5.088-1.185 2.031-2.41 3.757-3.019 4.587zM12 1c3.309 0 6 2.691 6 6 0 1.296-0.443 2.822-1.093 4.367 0.053-0.462 0.086-0.915 0.093-1.358 0.036-2.07-0.466-3.648-1.49-4.691C14.651 4.443 13.469 4 12 4S9.35 4.443 8.49 5.318C7.466 6.36 6.964 7.939 7 10.009c8e-3 0.443 0.041 0.896 0.093 1.358C6.442 9.822 6 8.296 6 7c0-3.309 2.691-6 6-6z" />
</svg>