<svg id="user_beard_Layer_1" viewBox="0 0 24 24" fill="currentColor" width="32" height="32" data-name="Layer 1" xmlns="http://www.w3.org/2000/svg" xmlns:xlink="http://www.w3.org/1999/xlink">
    <title>user-beard</title>
    <path d="M21.326 8.036C20.615 3.426 16.652 0 11.941 0 4.681 0 2.897 5.417 1.717 9.002c-0.479 1.455-0.893 2.712-1.479 3.071-0.186 0.114-0.276 0.335-0.224 0.547 0.053 0.211 0.237 0.364 0.455 0.378 0.049 2e-3 3.621 0.163 7.496-2.12-5e-3 0.041-0.024 0.078-0.024 0.121 0 0.552 0.448 1 1 1s1-0.448 1-1c0-0.455-0.31-0.823-0.725-0.945 1.662-1.209 3.317-2.897 4.716-5.304 0.139-0.239 0.058-0.545-0.181-0.684-0.239-0.138-0.544-0.059-0.684 0.181-3.709 6.382-9.138 7.533-11.445 7.725 0.393-0.678 0.696-1.599 1.044-2.657C3.822 5.806 5.404 1 11.941 1c4.34 0 7.971 3.25 8.445 7.561 0.028 0.258 0.288 0.423 0.555 0.439 1.103 0 2 0.897 2 2s-0.897 2-2 2H20c-0.189 0.012-0.352 0.113-0.447 0.276-0.456 0.913-1.398 1.798-2.52 2.369-0.132 0.07-0.283-0.028-0.326-0.165-0.562-1.713-2.04-2.48-3.254-2.48h-2.906c-1.197 0-2.662 0.751-3.236 2.428-0.048 0.144-0.207 0.245-0.343 0.16-0.713-0.432-1.556-1.058-2.209-1.459-0.676-0.441-1.59 0.303-1.314 1.056 0.787 2.445 2.379 4.555 4.556 6.122V23.5c0 0.276 0.224 0.5 0.5 0.5s0.5-0.224 0.5-0.5v-1.53c0.33 0.197 0.666 0.387 1.018 0.56 1.235 0.607 2.658 0.627 3.904 0.048 0.384-0.178 0.733-0.363 1.078-0.549V23.5c0 0.276 0.224 0.5 0.5 0.5s0.5-0.224 0.5-0.5v-2.066c2.413-1.552 3.72-3.46 4.398-6.344l0.198-1.089h0.346c1.654 0 3-1.346 3-3 0-1.506-1.115-2.756-2.617-2.965zM13.502 21.67c-0.968 0.451-2.077 0.437-3.042-0.039-2.89-1.42-5.003-3.72-5.977-6.495 0.193 0.126 0.415 0.278 0.652 0.439 0.413 0.282 0.87 0.594 1.31 0.864 0.658 0.424 1.579 0.052 1.812-0.688 0.415-1.21 1.449-1.752 2.291-1.752h2.906c0.854 0 1.898 0.554 2.304 1.792 0.213 0.709 1.071 1.097 1.729 0.745 0.699-0.356 1.33-0.809 1.851-1.322-0.806 3.099-2.419 4.869-5.836 6.456zM14.942 12c-0.552 0-1-0.448-1-1s0.448-1 1-1 1 0.448 1 1-0.448 1-1 1zM13.001 15h-2c-0.555 0-1.86 0.213-1.998 2.183-0.018 0.248 0.15 0.471 0.393 0.523 0.886 0.192 1.788 0.293 2.605 0.293s1.719-0.102 2.605-0.293c0.243-0.053 0.41-0.276 0.393-0.523C14.861 15.213 13.556 15 13.001 15zM10.063 16.819C10.232 16.095 10.667 16 11.001 16h2c0.334 0 0.769 0.095 0.938 0.819-1.333 0.238-2.544 0.238-3.876 0z" />
</svg>