<svg id="user_vneck_hair_long_Layer_1" viewBox="0 0 24 24" fill="currentColor" width="32" height="32" data-name="Layer 1" xmlns="http://www.w3.org/2000/svg" xmlns:xlink="http://www.w3.org/1999/xlink">
    <title>user-vneck-hair-long</title>
    <path d="M4.218 13.988c0.263 0.06 0.537-0.11 0.596-0.381 0 0 0.999-4.532 1.364-6.185 0.641 2.623 3.005 4.577 5.823 4.577 1.668 0 3.218-0.668 4.363-1.882 0.189-0.201 0.181-0.517-0.02-0.707-0.2-0.19-0.519-0.181-0.707 0.02-0.955 1.011-2.247 1.568-3.637 1.568-2.415 0-4.435-1.722-4.899-4.002h0.914c3.161-0.094 5.87-2.206 6.803-5.189 1.267 0.802 2.21 2.165 2.635 3.945 0.049 0.204 1.734 7.853 1.734 7.853 0.052 0.233 0.258 0.393 0.488 0.393 0.314 3e-3 0.56-0.301 0.488-0.607 0 0-1.689-7.666-1.738-7.87C17.612 2.115 15.15-1e-3 12-1e-3 8.872 0.036 6.385 2.103 5.575 5.522c-0.049 0.204-1.738 7.87-1.738 7.87-0.06 0.27 0.111 0.536 0.381 0.596zM7.999 5.997H7C7 3.242 9.244 1 12 1c0.682 0 1.325 0.123 1.918 0.35-0.756 2.666-3.142 4.565-5.919 4.647zM21 21.875V23.5c0 0.276-0.224 0.5-0.5 0.5S20 23.776 20 23.5v-1.625c0-2.114-0.869-4.349-2.163-5.562-0.464-0.45-1.273-0.384-1.688 0.102l-3.769 4.41c-0.188 0.232-0.573 0.231-0.761 0l-3.765-4.423c-0.407-0.477-1.227-0.546-1.683-0.097-1.299 1.214-2.172 3.453-2.172 5.571v1.625c0 0.276-0.224 0.5-0.5 0.5s-0.5-0.224-0.5-0.5v-1.625c0-2.378 1.001-4.91 2.489-6.301 0.854-0.831 2.351-0.731 3.12 0.171L12 19.73l3.394-3.972c0.777-0.909 2.266-1.009 3.126-0.174 1.483 1.39 2.479 3.918 2.48 6.291z" />
</svg>