<svg id="user_language_Layer_1" viewBox="0 0 24 24" fill="currentColor" width="32" height="32" data-name="Layer 1" xmlns="http://www.w3.org/2000/svg" xmlns:xlink="http://www.w3.org/1999/xlink">
    <title>user-language</title>
    <path d="M20.5 13h-4c-1.93 0-3.5 1.57-3.5 3.5v3.321l-1.775 2.167c-0.274 0.386-0.3 0.896-0.066 1.331 0.227 0.423 0.647 0.682 1.09 0.682 0.012 0 0.025 0 0.037 0H20.5c1.93 0 3.5-1.57 3.5-3.5v-4c0-1.93-1.57-3.5-3.5-3.501zM23 20.5c0 1.379-1.121 2.5-2.5 2.5h-8.23c-0.154 6e-3-0.21-0.116-0.23-0.153s-0.079-0.167-0.021-0.251l1.868-2.278C13.96 20.228 14 20.116 14 20.001v-3.5c0-1.379 1.121-2.5 2.5-2.5h4c1.379 0 2.5 1.121 2.5 2.5zM20.5 0h-8.199c-0.477-0.013-0.911 0.247-1.144 0.682-0.232 0.436-0.207 0.944 0.088 1.357L13 4.179V7.5c0 1.93 1.57 3.5 3.5 3.5h4c1.93 0 3.5-1.57 3.5-3.5v-4C24 1.57 22.43 0 20.5 0zM23 7.5c0 1.379-1.121 2.5-2.5 2.5h-4C15.121 10 14 8.879 14 7.5V4c0-0.115-0.04-0.228-0.113-0.317l-1.848-2.251c-0.079-0.11-0.02-0.24 0-0.277s0.093-0.154 0.239-0.154H20.5c1.379 0 2.5 1.121 2.5 2.5zM20.961 17c-0.095 0.797-0.438 2.384-1.607 3.56 0.608 0.288 1.32 0.44 2.146 0.44 0.276 0 0.5 0.224 0.5 0.5S21.776 22 21.5 22c-1.278 0-2.246-0.308-2.999-0.767C17.748 21.693 16.777 22 15.5 22c-0.276 0-0.5-0.224-0.5-0.5s0.224-0.5 0.5-0.5c0.875 0 1.575-0.171 2.142-0.44-0.578-0.579-0.964-1.252-1.204-1.881-0.099-0.258 0.03-0.547 0.288-0.646 0.257-0.098 0.547 0.029 0.646 0.288 0.267 0.698 0.647 1.256 1.13 1.682 1.065-0.93 1.373-2.278 1.461-3.003h-4.464c-0.276 0-0.5-0.224-0.5-0.5s0.224-0.5 0.5-0.5h2.5v-0.5c0-0.276 0.224-0.5 0.5-0.5s0.5 0.224 0.5 0.5V16h2.5c0.276 0 0.5 0.224 0.5 0.5s-0.224 0.5-0.5 0.5zM6.775 4.401C8.149 6.099 11 12.262 11 13.546 11 14.131 10.588 15 9.455 15H8.906L8.39 17.434C7.952 19.5 6.1 21 3.988 21H3.001v0.5c0 1.379-1.122 2.5-2.5 2.5-0.276 0-0.5-0.224-0.5-0.5s0.224-0.5 0.5-0.5c0.827 0 1.5-0.673 1.5-1.5v-1c0-0.276 0.224-0.5 0.5-0.5h1.487c1.643 0 3.083-1.167 3.424-2.773l0.6-2.83c0.049-0.231 0.251-0.396 0.487-0.396h0.957c0.492 0 0.545-0.317 0.545-0.454 0-0.866-2.607-6.791-4.014-8.53-0.918-1.225-2.849-3.354-5.606-4.032C0.112 0.92-0.051 0.648 0.015 0.381 0.08 0.112 0.354-0.05 0.619 0.015c3.06 0.752 5.17 3.071 6.156 4.386zM18.5 2c-0.935 0-1.526 0.876-1.646 1.492l-1.016 4.906c-0.057 0.271 0.117 0.535 0.388 0.591C16.26 8.997 16.294 9 16.329 9c0.231 0 0.439-0.162 0.488-0.398L17.045 7.5h2.851l0.21 1.094c0.052 0.272 0.318 0.446 0.585 0.397 0.271-0.052 0.449-0.314 0.397-0.585l-0.935-4.877C20.005 2.769 19.389 2 18.5 2zM17.253 6.5l0.582-2.811C17.874 3.486 18.121 3 18.5 3c0.398 0 0.628 0.495 0.672 0.719L19.705 6.5z" />
</svg>