<svg id="user_left_Layer_1" viewBox="0 0 24 24" fill="currentColor" width="32" height="32" data-name="Layer 1" xmlns="http://www.w3.org/2000/svg" xmlns:xlink="http://www.w3.org/1999/xlink">
    <title>user-left</title>
    <path d="M15.966 23.467c0.018 0.275-0.19 0.514-0.466 0.532-0.272 0.019-0.515-0.189-0.532-0.466C14.728 19.87 11.659 17 7.984 17s-6.745 2.87-6.985 6.533c-0.019 0.276-0.256 0.48-0.532 0.466-0.275-0.018-0.483-0.256-0.466-0.532C0.276 19.279 3.782 16 7.983 16s7.707 3.28 7.983 7.467zM2.983 9c0-2.757 2.243-5 5-5s5 2.243 5 5-2.243 5-5 5-5-2.243-5-5zM3.983 9c0 2.206 1.794 4 4 4s4-1.794 4-4-1.794-4-4-4-4 1.794-4 4zM23.5 4h-8.286c0.017-0.021 3.16-3.182 3.16-3.182 0.195-0.195 0.195-0.512 0-0.707s-0.512-0.195-0.707 0l-3.114 3.115c-0.331 0.331-0.514 0.771-0.514 1.239s0.183 0.908 0.514 1.239l3.114 3.115c0.195 0.195 0.512 0.195 0.707 0s0.195-0.512 0-0.707l-3.11-3.111h8.237c0.276 0 0.5-0.224 0.5-0.5S23.777 4.001 23.5 4z" />
</svg>