<svg id="user_coach_Layer_1" viewBox="0 0 24 24" fill="currentColor" width="32" height="32" data-name="Layer 1" xmlns="http://www.w3.org/2000/svg" xmlns:xlink="http://www.w3.org/1999/xlink">
    <title>user-coach</title>
    <path d="M12 12c3.309 0 6-2.691 6-6 0-0.341-0.035-0.674-0.09-1h1.59C19.776 5 20 4.776 20 4.5S19.776 4 19.5 4h-1.85C16.824 1.673 14.607 0 12 0 8.691 0 6 2.691 6 6s2.691 6 6 6zM12 1c2.045 0 3.802 1.237 4.576 3H7.424C8.198 2.237 9.955 1 12 1zM7.101 5h9.798C16.965 5.323 17 5.658 17 6c0 2.757-2.243 5-5 5S7 8.757 7 6c0-0.342 0.035-0.677 0.101-1zM12 14c-4.962 0-9 4.038-9 9v0.5C3 23.776 3.224 24 3.5 24S4 23.776 4 23.5V23c0-2.507 1.162-4.747 2.973-6.215l1.397 2.561c0.245 0.385 0.646 0.622 1.102 0.651 0.446 0.023 0.883-0.155 1.174-0.505l1.316-1.58 1.316 1.58C13.55 19.818 13.94 20 14.36 20c0.031 0 0.062 0 0.093-3e-3 0.455-0.029 0.856-0.267 1.118-0.68l1.402-2.572C18.814 18.212 20 20.469 20 23v0.5c0 0.276 0.224 0.5 0.5 0.5s0.5-0.224 0.5-0.5V23c0-4.962-4.038-9-9-9zM14.71 18.809c-0.071 0.112-0.188 0.182-0.321 0.19-0.127 0.01-0.257-0.045-0.342-0.147l-1.701-2.041c-0.19-0.228-0.578-0.228-0.769 0l-1.701 2.042C9.791 18.955 9.665 19.011 9.534 19c-0.133-8e-3-0.25-0.078-0.304-0.161l-1.434-2.632C9.019 15.447 10.457 15 12 15c1.519 0 2.935 0.433 4.146 1.172z" />
</svg>