<svg id="user_bag_Layer_1" viewBox="0 0 24 24" fill="currentColor" width="32" height="32" data-name="Layer 1" xmlns="http://www.w3.org/2000/svg" xmlns:xlink="http://www.w3.org/1999/xlink">
    <title>user-bag</title>
    <path d="M22 14h-1v-1c0-1.654-1.346-3-3-3s-3 1.346-3 3v1h-1c-1.103 0-2 0.897-2 2v4.5c0 1.93 1.57 3.5 3.5 3.5h5c1.93 0 3.5-1.57 3.5-3.5V16c0-1.103-0.897-2-2-2zM16 13c0-1.103 0.897-2 2-2s2 0.897 2 2v1h-4zM23 20.5c0 1.378-1.122 2.5-2.5 2.5h-5c-1.378 0-2.5-1.122-2.5-2.5V16c0-0.551 0.449-1 1-1h1v1.5c0 0.276 0.224 0.5 0.5 0.5s0.5-0.224 0.5-0.5V15h4v1.5c0 0.276 0.224 0.5 0.5 0.5s0.5-0.224 0.5-0.5V15h1c0.551 0 1 0.449 1 1zM9 12c3.309 0 6-2.691 6-6s-2.691-6-6-6-6 2.691-6 6 2.691 6 6 6zM9 1c2.757 0 5 2.243 5 5s-2.243 5-5 5-5-2.243-5-5 2.243-5 5-5zM9.999 14.544c-0.016 0.275-0.26 0.482-0.528 0.47C9.315 15.005 9.159 15 9 15c-4.411 0-8 3.589-8 8v0.5C1 23.776 0.776 24 0.5 24S0 23.776 0 23.5V23c0-4.962 4.038-9 9-9 0.178 0 0.354 5e-3 0.529 0.016 0.276 0.016 0.486 0.253 0.47 0.528z" />
</svg>