<svg id="user_doctor_hair_long_Layer_1" viewBox="0 0 24 24" fill="currentColor" width="32" height="32" data-name="Layer 1" xmlns="http://www.w3.org/2000/svg" xmlns:xlink="http://www.w3.org/1999/xlink">
    <title>user-doctor-hair-long</title>
    <path d="M3.995 15.001c0.263 0.06 0.537-0.11 0.596-0.381 0.442-2.005 1.154-5.238 1.587-7.198C6.819 10.045 9.183 12 12.001 12c1.668 0 3.218-0.668 4.363-1.882 0.189-0.201 0.181-0.517-0.02-0.707s-0.519-0.181-0.707 0.02c-0.955 1.011-2.247 1.568-3.637 1.568-2.415 0-4.435-1.722-4.899-4.002h0.914c3.161-0.094 5.87-2.206 6.803-5.189 1.267 0.802 2.209 2.165 2.635 3.946 0.052 0.215 1.303 5.893 1.957 8.865 0.059 0.271 0.332 0.441 0.596 0.381 0.27-0.06 0.44-0.326 0.381-0.596-0.077-0.351-1.895-8.605-1.961-8.883-0.813-3.406-3.275-5.522-6.425-5.522-0.315 0-0.621 0.032-0.923 0.079-2.699 0.375-4.77 2.38-5.502 5.443-0.066 0.278-1.884 8.532-1.961 8.883-0.06 0.27 0.111 0.536 0.38 0.597zM7.999 5.997H7C7 3.242 9.244 1 12 1c0.682 0 1.325 0.123 1.918 0.35-0.756 2.666-3.142 4.565-5.919 4.647zM12 14c-4.963 0-9 4.038-9 9v0.5C3 23.776 3.224 24 3.5 24S4 23.776 4 23.5V23c0-2.953 1.613-5.532 4-6.918v2.989c-0.86 0.224-1.5 1-1.5 1.929 0 1.103 0.897 2 2 2s2-0.897 2-2c0-0.929-0.64-1.705-1.5-1.929v-3.482C9.927 15.212 10.939 15 12 15s2.073 0.212 3 0.589v3.462c-1.14 0.232-2 1.242-2 2.449v2c0 0.276 0.224 0.5 0.5 0.5s0.5-0.224 0.5-0.5v-2c0-0.827 0.673-1.5 1.5-1.5s1.5 0.673 1.5 1.5v2c0 0.276 0.224 0.5 0.5 0.5s0.5-0.224 0.5-0.5v-2c0-1.207-0.86-2.217-2-2.449v-2.968c2.387 1.386 4 3.964 4 6.918v0.5c0 0.276 0.224 0.5 0.5 0.5s0.5-0.224 0.5-0.5v-0.5c0-4.962-4.037-9-9-9.001zM9.5 21c0 0.551-0.448 1-1 1s-1-0.449-1-1 0.448-1 1-1 1 0.449 1 1z" />
</svg>