<svg id="user_minus_Layer_1" viewBox="0 0 24 24" fill="currentColor" width="32" height="32" data-name="Layer 1" xmlns="http://www.w3.org/2000/svg" xmlns:xlink="http://www.w3.org/1999/xlink">
    <title>user-minus</title>
    <path d="M8 12c3.309 0 6-2.691 6-6s-2.691-6-6-6-6 2.691-6 6 2.691 6 6 6zM8 1c2.757 0 5 2.243 5 5s-2.243 5-5 5-5-2.243-5-5 2.243-5 5-5zM16 22v1.5c0 0.276-0.224 0.5-0.5 0.5S15 23.776 15 23.5V22c0-3.86-3.141-7-7-7s-7 3.14-7 7v1.5C1 23.776 0.776 24 0.5 24S0 23.776 0 23.5V22c0-4.411 3.589-8 8-8s8 3.589 8 8zM24 12.5c0 0.276-0.224 0.5-0.5 0.5h-8c-0.276 0-0.5-0.224-0.5-0.5s0.224-0.5 0.5-0.5h8c0.276 0 0.5 0.224 0.5 0.5z" />
</svg>