<svg id="user_group_crown_Layer_1" viewBox="0 0 24 24" fill="currentColor" width="32" height="32" data-name="Layer 1" xmlns="http://www.w3.org/2000/svg" xmlns:xlink="http://www.w3.org/1999/xlink">
    <title>user-group-crown</title>
    <path d="M17.5 9C19.981 9 22 6.981 22 4.5S19.981 0 17.5 0 13 2.019 13 4.5 15.019 9 17.5 9zM17.5 1C19.43 1 21 2.57 21 4.5S19.43 8 17.5 8 14 6.43 14 4.5 15.57 1 17.5 1zM7.5 13c2.481 0 4.5-2.019 4.5-4.5v-1l-2e-3-4.7c0.088-0.614-0.818-1.092-1.23-0.6-0.166 0.212-0.813 1.011-1.232 1.528L8.309 2.354C7.854 1.885 7.131 1.888 6.672 2.375L5.465 3.728C5.046 3.211 4.399 2.412 4.233 2.2 3.842 1.711 2.931 2.185 3.001 2.756V8.5c0 2.481 2.019 4.5 4.499 4.5zM5.06 4.815c0.182 0.238 0.568 0.242 0.761 0.018l1.578-1.771c0.07-0.065 0.118-0.077 0.184-0.021l1.598 1.791c0.185 0.222 0.582 0.221 0.761-0.018 0 0 0.585-0.72 1.06-1.307v3.492H4l-2e-3-3.494C4.473 4.092 5.06 4.814 5.06 4.815zM4 8h7v0.5c0 1.93-1.57 3.5-3.5 3.5S4 10.43 4 8.5zM15 22.5v1c0 0.276-0.224 0.5-0.5 0.5S14 23.776 14 23.5v-1c0-3.584-2.916-6.5-6.5-6.5S1 18.916 1 22.5v1C1 23.776 0.776 24 0.5 24S0 23.776 0 23.5v-1C0 18.364 3.364 15 7.5 15s7.5 3.364 7.5 7.5zM24 18v0.5c0 0.276-0.224 0.5-0.5 0.5S23 18.776 23 18.5V18c0-3.309-2.691-6-6-6-1.556 0-3.031 0.593-4.154 1.67-0.198 0.19-0.516 0.185-0.706-0.015-0.191-0.199-0.186-0.516 0.015-0.707 1.31-1.257 3.03-1.949 4.846-1.949 3.859 0 7 3.14 6.999 7.001z" />
</svg>