<svg id="user_forbidden_alt_Layer_1" viewBox="0 0 24 24" fill="currentColor" width="32" height="32" data-name="Layer 1" xmlns="http://www.w3.org/2000/svg" xmlns:xlink="http://www.w3.org/1999/xlink">
    <title>user-forbidden-alt</title>
    <path d="M22.251 22.229C23.331 21.143 24 19.648 24 18c0-3.309-2.691-6-6-6-3.308 0-5.999 2.692-6 6 0 3.309 2.691 6 6 6 1.66 0 3.165-0.679 4.251-1.771zM23 18c0 1.198-0.441 2.285-1.147 3.147l-7-7c0.862-0.705 1.948-1.146 3.146-1.146 2.757 0 5 2.243 5.001 4.999zM13 18c0-1.198 0.441-2.285 1.147-3.147l7 7c-0.862 0.705-1.948 1.146-3.146 1.146-2.757 0-5-2.243-5.001-4.999zM9 12c3.309 0 6-2.691 6-6s-2.691-6-6-6-6 2.691-6 6 2.691 6 6 6zM9 1c2.757 0 5 2.243 5 5s-2.243 5-5 5-5-2.243-5-5 2.243-5 5-5zM10.992 14.719c-0.049 0.272-0.311 0.453-0.579 0.405C9.948 15.042 9.473 15 9 15c-4.411 0-8 3.589-8 8v0.5C1 23.776 0.776 24 0.5 24S0 23.776 0 23.5V23c0-4.962 4.037-9 9-9 0.531 0 1.065 0.047 1.587 0.14 0.272 0.048 0.454 0.308 0.405 0.579z" />
</svg>