<svg id="user_eating_Layer_1" viewBox="0 0 24 24" fill="currentColor" width="32" height="32" data-name="Layer 1" xmlns="http://www.w3.org/2000/svg" xmlns:xlink="http://www.w3.org/1999/xlink">
    <title>user-eating</title>
    <path d="M2 5.949C0.86 5.717 0 4.707 0 3.5v-3C0 0.224 0.224 0 0.5 0S1 0.224 1 0.5v3c0 0.651 0.419 1.201 1 1.408V0.5C2 0.224 2.224 0 2.5 0S3 0.224 3 0.5v4.408C3.581 4.701 4 4.151 4 3.5v-3C4 0.224 4.224 0 4.5 0S5 0.224 5 0.5v3c0 1.207-0.86 2.217-2 2.449V11.5C3 11.776 2.776 12 2.5 12S2 11.776 2 11.5zM24 0.597V11.5c0 0.276-0.224 0.5-0.5 0.5S23 11.776 23 11.5v-1.193c-1.7-1.535-2.545-3.274-2.498-5.177 0.094-2.356 1.337-4.163 2.277-4.942 0.229-0.198 0.56-0.244 0.844-0.114C23.858 0.18 24 0.376 24 0.597zM23 8.903V1.364c-0.592 0.686-1.457 2.138-1.498 3.79-0.033 1.337 0.47 2.593 1.498 3.749zM23.5 14.001c-0.276 0-0.5 0.224-0.5 0.5v5.419l-0.149 0.055-2.042-2.383c-1.957-2.282-4.803-3.591-7.809-3.591s-5.852 1.309-7.809 3.591l-2.042 2.383L3 19.92v-5.419c0-0.276-0.224-0.5-0.5-0.5S2 14.225 2 14.501v5.419c-0.034 0.977 1.294 1.474 1.909 0.706l2.042-2.382c0.322-0.375 0.678-0.71 1.049-1.026v6.283c0 0.276 0.224 0.5 0.5 0.5s0.5-0.224 0.5-0.5c0 0-4e-3-7.015-5e-3-7.023 1.479-0.949 3.208-1.477 5.005-1.477s3.525 0.528 5.005 1.477c0 8e-3-5e-3 7.023-5e-3 7.023 0 0.276 0.224 0.5 0.5 0.5s0.5-0.224 0.5-0.5v-6.284c0.371 0.315 0.727 0.65 1.049 1.025l2.042 2.383c0.611 0.768 1.945 0.272 1.909-0.706V14.5c0-0.276-0.224-0.5-0.5-0.499zM8.5 7.5C8.5 5.019 10.519 3 13 3s4.5 2.019 4.5 4.5S15.481 12 13 12 8.5 9.981 8.5 7.5zM9.5 7.5c0 1.93 1.57 3.5 3.5 3.5s3.5-1.57 3.5-3.5S14.93 4 13 4 9.5 5.57 9.5 7.5z" />
</svg>