<svg id="user_interface_ui_Layer_1" viewBox="0 0 24 24" fill="currentColor" width="32" height="32" data-name="Layer 1" xmlns="http://www.w3.org/2000/svg" xmlns:xlink="http://www.w3.org/1999/xlink">
    <title>user-interface-ui</title>
    <path d="M19.5 0h-15C2.019 0 0 2.019 0 4.5v15C0 21.981 2.019 24 4.5 24h15c2.481 0 4.5-2.019 4.5-4.5v-15C24 2.019 21.981 0 19.5 0zM23 19.5c0 1.93-1.57 3.5-3.5 3.5h-15C2.57 23 1 21.43 1 19.5v-15C1 2.57 2.57 1 4.5 1h15C21.43 1 23 2.57 23 4.5zM18 7.5v9c0 0.276-0.224 0.5-0.5 0.5S17 16.776 17 16.5v-9C17 7.224 17.224 7 17.5 7S18 7.224 18 7.5zM14 7.5V13c0 2.206-1.794 4-4 4s-4-1.794-4-4V7.5C6 7.224 6.224 7 6.5 7S7 7.224 7 7.5V13c0 1.654 1.346 3 3 3s3-1.346 3-3V7.5C13 7.224 13.224 7 13.5 7S14 7.224 14 7.5z" />
</svg>