<svg id="user_xmark_Layer_1" viewBox="0 0 24 24" fill="currentColor" width="32" height="32" data-name="Layer 1" xmlns="http://www.w3.org/2000/svg" xmlns:xlink="http://www.w3.org/1999/xlink">
    <title>user-xmark</title>
    <path d="M8 12c3.309 0 6-2.691 6-6s-2.691-6-6-6-6 2.691-6 6 2.691 6 6 6zM8 1c2.757 0 5 2.243 5 5s-2.243 5-5 5-5-2.243-5-5 2.243-5 5-5zM16 22v1.5c0 0.276-0.224 0.5-0.5 0.5S15 23.776 15 23.5V22c0-3.859-3.14-7-7-7s-7 3.141-7 7v1.5C1 23.776 0.776 24 0.5 24S0 23.776 0 23.5V22c0-4.411 3.589-8 8-8s8 3.589 8 8zM23.854 15.146c0.195 0.195 0.195 0.512 0 0.707-0.098 0.098-0.226 0.146-0.354 0.146s-0.256-0.049-0.354-0.146L20 12.707l-3.146 3.146c-0.098 0.098-0.226 0.146-0.354 0.146s-0.256-0.049-0.354-0.146c-0.195-0.195-0.195-0.512 0-0.707L19.292 12 16.146 8.854c-0.195-0.195-0.195-0.512 0-0.707s0.512-0.195 0.707 0l3.146 3.146 3.146-3.146c0.195-0.195 0.512-0.195 0.707 0s0.195 0.512 0 0.707L20.706 12z" />
</svg>