<svg id="user_pilot_Layer_1" viewBox="0 0 24 24" fill="currentColor" width="32" height="32" data-name="Layer 1" xmlns="http://www.w3.org/2000/svg" xmlns:xlink="http://www.w3.org/1999/xlink">
    <title>user-pilot</title>
    <path d="M5.208 5.604 6 6v2c0 3.309 2.691 6 6 6s6-2.691 6-6V5.999l0.791-0.396C19.537 5.232 20 4.484 20 3.65c0-0.971-0.652-1.835-1.587-2.103L13.666 0.2c-1.094-0.271-2.262-0.269-3.394 0.018L5.587 1.55C4.653 1.816 4.001 2.68 4.001 3.651c0 0.834 0.463 1.582 1.207 1.953zM12 13c-2.757 0-5-2.243-5-5V7.361C7.929 7.636 9.612 8 12 8s4.07-0.365 5-0.639V8c0 2.757-2.243 5-5 5zM5.86 2.511l4.67-1.327c0.958-0.24 1.96-0.244 2.878-0.017l4.731 1.343C18.646 2.656 19 3.124 19 3.651c0 0.452-0.251 0.857-0.655 1.059l-1.068 0.534c-0.169 0.085-0.276 0.258-0.276 0.447v0.624c-0.776 0.256-2.458 0.686-5 0.686s-4.223-0.43-5-0.686V5.691c0-0.189-0.107-0.362-0.276-0.447L5.656 4.71C5.252 4.509 5.002 4.104 5.002 3.651c0-0.526 0.354-0.995 0.858-1.14zM9.071 3.743c0.142-0.236 0.448-0.315 0.686-0.172L12 4.917l2.243-1.346c0.237-0.144 0.544-0.064 0.686 0.172s0.065 0.544-0.171 0.686l-2.5 1.5C12.179 5.977 12.09 6 12.001 6s-0.178-0.023-0.257-0.071l-2.5-1.5C9.007 4.287 8.931 3.98 9.071 3.743zM20.985 23.471c0.016 0.276-0.194 0.513-0.47 0.528-0.01 0-0.02 0-0.029 0-0.263 0-0.483-0.205-0.499-0.471-0.235-4.055-3.481-7.256-7.486-7.505v7.476c0 0.276-0.224 0.5-0.5 0.5s-0.5-0.224-0.5-0.5v-7.476c-4.005 0.249-7.251 3.451-7.486 7.505-0.016 0.275-0.253 0.495-0.528 0.47-0.276-0.016-0.486-0.252-0.47-0.528 0.275-4.75 4.222-8.471 8.984-8.471s8.709 3.721 8.984 8.472z" />
</svg>