<svg id="user_basket_Layer_1" viewBox="0 0 24 24" fill="currentColor" width="32" height="32" data-name="Layer 1" xmlns="http://www.w3.org/2000/svg" xmlns:xlink="http://www.w3.org/1999/xlink">
    <title>user-basket</title>
    <path d="M23.513 15.692C23.133 15.252 22.581 15 21.999 15h-3.668l2.117-4.278c0.123-0.248 0.021-0.547-0.227-0.67-0.249-0.123-0.547-0.021-0.67 0.227l-2.336 4.722H12.97c-1.185-0.028-2.178 1.122-1.979 2.291l0.545 3.718c0.25 1.706 1.739 2.992 3.463 2.992h4.969c1.724 0 3.212-1.286 3.462-2.991l0.547-3.718c0.084-0.576-0.085-1.159-0.464-1.601zM22.442 20.863c-0.179 1.218-1.242 2.136-2.473 2.136H15c-1.231 0-2.294-0.919-2.474-2.137l-0.545-3.718c-0.1-0.584 0.397-1.159 0.989-1.145h9.029c0.593-0.014 1.089 0.562 0.99 1.146zM9 12c3.309 0 6-2.691 6-6s-2.691-6-6-6-6 2.691-6 6 2.691 6 6 6zM9 1c2.757 0 5 2.243 5 5s-2.243 5-5 5-5-2.243-5-5 2.243-5 5-5zM9.999 14.544c-0.016 0.275-0.263 0.482-0.528 0.47C9.315 15.005 9.159 15 9 15c-4.411 0-8 3.589-8 8v0.5C1 23.776 0.776 24 0.5 24S0 23.776 0 23.5V23c0-4.962 4.038-9 9-9 0.178 0 0.354 5e-3 0.529 0.016 0.276 0.016 0.486 0.253 0.47 0.528z" />
</svg>