<svg id="user_question_Layer_1" viewBox="0 0 24 24" fill="currentColor" width="32" height="32" data-name="Layer 1" xmlns="http://www.w3.org/2000/svg" xmlns:xlink="http://www.w3.org/1999/xlink">
    <title>user-question</title>
    <path d="M6 14c2.206 0 4-1.794 4-4S8.206 6 6 6 2 7.794 2 10s1.794 4 4 4zM6 7c1.654 0 3 1.346 3 3s-1.346 3-3 3-3-1.346-3-3 1.346-3 3-3zM12 22v1.5c0 0.276-0.224 0.5-0.5 0.5S11 23.776 11 23.5V22c0-2.757-2.243-5-5-5s-5 2.243-5 5v1.5C1 23.776 0.776 24 0.5 24S0 23.776 0 23.5V22c0-3.309 2.691-6 6-6s6 2.691 6 6zM20.5 4.5c0 0.939-0.519 1.791-1.354 2.223C18.608 7 18.5 7.226 18.5 7.5 18.5 7.776 18.276 8 18 8s-0.5-0.224-0.5-0.5c0-0.944 0.677-1.403 1.187-1.666C19.189 5.575 19.5 5.064 19.5 4.5 19.5 3.673 18.827 3 18 3s-1.5 0.673-1.5 1.5C16.5 4.776 16.276 5 16 5s-0.5-0.224-0.5-0.5C15.5 3.122 16.622 2 18 2s2.5 1.122 2.5 2.5zM19 10c0 0.552-0.448 1-1 1s-1-0.448-1-1 0.448-1 1-1 1 0.448 1 1zM24 2.5v6c0 1.378-1.122 2.5-2.5 2.5h-1c-0.276 0-0.5-0.224-0.5-0.5s0.224-0.5 0.5-0.5h1c0.827 0 1.5-0.673 1.5-1.5v-6c0-0.401-0.156-0.777-0.439-1.061C22.278 1.156 21.901 1 21.501 1H14.5C13.673 1.002 13 1.675 13 2.502v9.359c0.012 0.129 0.123 0.182 0.23 0.113l1.965-1.509c0.22-0.168 0.534-0.125 0.701 0.092 0.168 0.219 0.127 0.533-0.092 0.701l-1.965 1.509c-0.349 0.268-0.81 0.311-1.201 0.119-0.393-0.194-0.637-0.586-0.637-1.024v-9.36C12 1.124 13.121 2e-3 14.5 1e-3h7c0 0 0-1e-3 0-1e-3 0.667 0 1.295 0.26 1.767 0.732S23.999 1.832 24 2.5z" />
</svg>