<svg id="user_doctor_hair_Layer_1" viewBox="0 0 24 24" fill="currentColor" width="32" height="32" data-name="Layer 1" xmlns="http://www.w3.org/2000/svg" xmlns:xlink="http://www.w3.org/1999/xlink">
    <title>user-doctor-hair</title>
    <path d="M12 12c3.309 0 6-2.691 6-6s-2.691-6-6-6C8.679-0.019 5.982 2.765 6 6c0 3.309 2.691 6 6 6zM17 6c0 2.757-2.243 5-5 5S7 8.757 7 6h1.5c2.724 0 5.095-1.769 5.939-4.338C15.96 2.521 17 4.133 17 6zM12 1c0.534 0 1.04 0.106 1.523 0.262C12.84 3.472 10.821 5 8.5 5H7.101C7.566 2.721 9.585 1 12 1zM12 14c-4.963 0-9 4.037-9 9v0.5C3 23.776 3.224 24 3.5 24S4 23.776 4 23.5V23c0-2.953 1.613-5.532 4-6.918v2.989c-0.86 0.224-1.5 1-1.5 1.929 0 1.103 0.897 2 2 2s2-0.897 2-2c0-0.929-0.64-1.705-1.5-1.929v-3.482C9.927 15.212 10.939 15 12 15s2.073 0.212 3 0.589v3.462c-1.14 0.232-2 1.242-2 2.449v2c0 0.276 0.224 0.5 0.5 0.5s0.5-0.224 0.5-0.5v-2c0-0.827 0.673-1.5 1.5-1.5s1.5 0.673 1.5 1.5v2c0 0.276 0.224 0.5 0.5 0.5s0.5-0.224 0.5-0.5v-2c0-1.208-0.86-2.217-2-2.449v-2.968c2.387 1.386 4 3.964 4 6.918v0.5c0 0.276 0.224 0.5 0.5 0.5s0.5-0.224 0.5-0.5v-0.5c0-4.963-4.037-9-9-9.001zM9.5 21c0 0.552-0.448 1-1 1s-1-0.448-1-1 0.448-1 1-1 1 0.448 1 1z" />
</svg>