<svg id="user_writer_Layer_1" viewBox="0 0 24 24" fill="currentColor" width="32" height="32" data-name="Layer 1" xmlns="http://www.w3.org/2000/svg" xmlns:xlink="http://www.w3.org/1999/xlink">
    <title>user-writer</title>
    <path d="M23.684 11.52c-0.301-0.363-0.76-0.555-1.229-0.514-1.489 0.135-4.333 0.639-6.643 2.504C13.023 15.762 11 19.964 11 23.5c0 0.276 0.224 0.5 0.5 0.5s0.5-0.224 0.5-0.5c0-0.486 0.044-0.989 0.127-1.5 3.037-0.022 5.4-0.838 7.647-2.635 2.206-1.765 3.607-4.533 4.183-6.535 0.131-0.455 0.029-0.944-0.273-1.31zM22.996 12.553c-0.534 1.855-1.824 4.413-3.847 6.031-1.841 1.473-3.703 2.205-6.06 2.373 3.27-3.832 7.113-5.997 7.154-6.02 0.241-0.134 0.328-0.438 0.194-0.68-0.134-0.24-0.439-0.327-0.68-0.194-0.169 0.094-3.796 2.14-7.09 5.86 0.769-2.198 2.14-4.316 3.773-5.636 2.183-1.762 4.997-2.185 6.104-2.285 0.29-0.037 0.542 0.274 0.452 0.551zM9 12c3.309 0 6-2.691 6-6s-2.691-6-6-6-6 2.691-6 6 2.691 6 6 6zM9 1c2.757 0 5 2.243 5 5s-2.243 5-5 5-5-2.243-5-5 2.243-5 5-5zM11.353 15.352C10.594 15.119 9.802 15 9 15c-4.411 0-8 3.589-8 8v0.5C1 23.776 0.776 24 0.5 24S0 23.776 0 23.5V23c0-4.963 4.038-9 9-9 0.902 0 1.792 0.133 2.647 0.396 0.264 0.081 0.412 0.36 0.331 0.625-0.081 0.264-0.358 0.415-0.625 0.331z" />
</svg>