<svg id="user_suitcase_Layer_1" viewBox="0 0 24 24" fill="currentColor" width="32" height="32" data-name="Layer 1" xmlns="http://www.w3.org/2000/svg" xmlns:xlink="http://www.w3.org/1999/xlink">
    <title>user-suitcase</title>
    <path d="M16.5 5C17.878 5 19 3.878 19 2.5S17.878 0 16.5 0 14 1.122 14 2.5 15.122 5 16.5 5zM16.5 1C17.327 1 18 1.673 18 2.5S17.327 4 16.5 4 15 3.327 15 2.5 15.673 1 16.5 1zM23.724 12.099l-2.592-1.296c-0.245-0.123-0.453-0.31-0.599-0.542l-2.151-3.407C17.907 6.311 17.221 6 16.5 6h-1.424c-1.108 0-2.217 0.262-3.208 0.757L9.525 7.928C9.04 8.171 8.641 8.573 8.401 9.058l-0.849 1.72c-0.123 0.248-0.021 0.547 0.227 0.669 0.249 0.124 0.548 0.021 0.669-0.227L9.297 9.5C9.441 9.208 9.68 8.968 9.971 8.822l2.343-1.171c0.356-0.178 0.731-0.312 1.115-0.418l-1.35 5.612c-0.26 1.077 0.231 2.213 1.195 2.761l3.967 2.253C17.709 18.125 18 18.625 18 19.164V23.5c0 0.276 0.224 0.5 0.5 0.5s0.5-0.224 0.5-0.5v-4.336c0-0.897-0.485-1.73-1.265-2.174l-1.528-0.868 2.03-7.633 1.45 2.304c0.244 0.387 0.589 0.699 0.998 0.904l2.592 1.296c0.242 0.122 0.547 0.026 0.671-0.224 0.124-0.247 0.023-0.547-0.224-0.67zM13.768 14.737c-0.579-0.329-0.874-1.01-0.717-1.657 0 0 1.436-6.018 1.438-6.046C14.684 7.015 14.88 7 15.075 7h1.424c0.398 0 0.773 0.162 1.016 0.392l-2.167 8.243zM13.361 17.671l-0.5 1.953-1.909 4.088c-0.118 0.252-0.42 0.356-0.665 0.24-0.25-0.117-0.357-0.415-0.24-0.665l1.877-4 0.468-1.865c0.068-0.268 0.343-0.431 0.608-0.36 0.268 0.068 0.429 0.341 0.361 0.609zM8.63 14.869l0.146-0.314c0.333-0.714 0.024-1.569-0.687-1.907l-0.99-0.47c-0.694-0.348-1.608-0.019-1.921 0.692l-0.125 0.269c-0.622-0.257-1.305-0.284-1.943-0.054-0.685 0.246-1.231 0.745-1.533 1.394l-0.821 1.659c-0.622 1.337-0.045 2.943 1.284 3.58l3.161 1.516c1.303 0.662 3.032 0.042 3.618-1.288l0.823-1.662c0.576-1.239 0.115-2.698-1.012-3.415zM6.085 13.292c0.096-0.217 0.374-0.317 0.586-0.211l0.99 0.47c0.217 0.103 0.311 0.364 0.209 0.581l-0.129 0.276-1.78-0.851zM3.449 14.025c0.431-0.155 0.898-0.132 1.312 0.066l3.163 1.513c0.721 0.345 1.088 1.141 0.932 1.887l-6.14-2.944c0.192-0.234 0.44-0.417 0.733-0.522zM7.917 19.513c-0.371 0.846-1.459 1.236-2.283 0.819l-3.161-1.516v0c-0.838-0.402-1.201-1.414-0.814-2.246l0.568-1.148 2.728 1.308-0.385 0.785c-0.122 0.248-0.02 0.547 0.229 0.669 0.243 0.121 0.547 0.022 0.669-0.229l0.389-0.793 2.607 1.25z" />
</svg>