<svg id="user_circle_right_Layer_1" viewBox="0 0 24 24" fill="currentColor" width="32" height="32" data-name="Layer 1" xmlns="http://www.w3.org/2000/svg" xmlns:xlink="http://www.w3.org/1999/xlink">
    <title>user-circle-right</title>
    <path d="M11.976 23.455c0.024 0.275-0.178 0.519-0.453 0.543-0.271 0.026-0.519-0.177-0.543-0.453C10.747 20.954 8.606 19 6.001 19s-4.746 1.954-4.979 4.545c-0.025 0.275-0.271 0.464-0.543 0.453-0.275-0.024-0.478-0.268-0.453-0.543C0.306 20.345 2.876 18 6.002 18s5.695 2.345 5.974 5.455zM2 12c0-2.206 1.794-4 4-4s4 1.794 4 4-1.794 4-4 4-4-1.794-4-4zM3 12c0 1.654 1.346 3 3 3s3-1.346 3-3-1.346-3-3-3-3 1.346-3 3zM24 6.5c0 3.584-2.916 6.5-6.5 6.5S11 10.084 11 6.5 13.916 0 17.5 0 24 2.916 24 6.5zM23 6.5C23 3.467 20.532 1 17.5 1S12 3.467 12 6.5 14.468 12 17.5 12 23 9.533 23 6.5zM21.501 6.486c0 0.38-0.146 0.736-0.412 1.004l-1.801 1.837c-0.344 0.297-0.771 0.37-1.167 0.19C17.738 9.342 17.5 8.972 17.5 8.55V6.999h-3c-0.276 0-0.5-0.224-0.5-0.5s0.224-0.5 0.5-0.5h3V4.441c0-0.42 0.237-0.79 0.619-0.966 0.383-0.175 0.817-0.114 1.136 0.158l1.831 1.854c0.267 0.266 0.413 0.62 0.415 0.999zM20.501 6.489c0-0.111-0.044-0.215-0.122-0.292 0-1e-3-2e-3-2e-3-4e-3-4e-3l-1.802-1.828L18.5 4.442v4.109l0.075 0.075 1.802-1.838c0.081-0.081 0.124-0.186 0.124-0.299z" />
</svg>