<svg id="user_salary_Layer_1" viewBox="0 0 24 24" fill="currentColor" width="32" height="32" data-name="Layer 1" xmlns="http://www.w3.org/2000/svg" xmlns:xlink="http://www.w3.org/1999/xlink">
    <title>user-salary</title>
    <path d="M24 20.605C24 21.926 22.926 23 21.605 23H21v0.5c0 0.276-0.224 0.5-0.5 0.5S20 23.776 20 23.5V23h-0.5c-1.379 0-2.5-1.122-2.5-2.5 0-0.276 0.224-0.5 0.5-0.5s0.5 0.224 0.5 0.5c0 0.827 0.673 1.5 1.5 1.5h2.105C22.374 22 23 21.374 23 20.605c0-0.685-0.49-1.263-1.165-1.375l-2.834-0.473C17.842 18.564 17 17.571 17 16.395 17 15.074 18.074 14 19.395 14H20v-0.5c0-0.276 0.224-0.5 0.5-0.5s0.5 0.224 0.5 0.5V14h0.5c1.379 0 2.5 1.122 2.5 2.5 0 0.276-0.224 0.5-0.5 0.5S23 16.776 23 16.5c0-0.827-0.673-1.5-1.5-1.5h-2.105C18.626 15 18 15.626 18 16.395c0 0.685 0.49 1.263 1.165 1.375l2.834 0.473C23.158 18.436 24 19.429 24 20.605zM18 6c0 3.309-2.691 6-6 6S6 9.309 6 6s2.691-6 6-6 6 2.691 6 6zM17 6c0-2.757-2.243-5-5-5S7 3.243 7 6s2.243 5 5 5 5-2.243 5-5zM14.646 14.396C13.792 14.134 12.901 14 12 14c-4.963 0-9 4.038-9 9v0.5C3 23.776 3.224 24 3.5 24S4 23.776 4 23.5V23c0-4.411 3.589-8 8-8 0.802 0 1.594 0.118 2.354 0.352 0.262 0.081 0.543-0.067 0.624-0.331s-0.066-0.544-0.332-0.625z" />
</svg>