<svg id="user_unlock_Layer_1" viewBox="0 0 24 24" fill="currentColor" width="32" height="32" data-name="Layer 1" xmlns="http://www.w3.org/2000/svg" xmlns:xlink="http://www.w3.org/1999/xlink">
    <title>user-unlock</title>
    <path d="M8 0C4.691 0 2 2.691 2 6s2.691 6 6 6 6-2.691 6-6-2.691-6-6-6zM8 11c-2.757 0-5-2.243-5-5s2.243-5 5-5 5 2.243 5 5-2.243 5-5 5zM11.942 15.599c-0.13 0.245-0.435 0.337-0.676 0.208-1-0.528-2.129-0.807-3.267-0.807-3.859 0-7 3.14-7 7v1.5c0 0.276-0.224 0.5-0.5 0.5s-0.5-0.224-0.5-0.5V22c0-4.411 3.589-8 8-8 1.3 0 2.591 0.319 3.733 0.923 0.244 0.129 0.338 0.431 0.21 0.676zM20.5 15h-4c-0.17 0-0.337 0.012-0.5 0.036V13.5c0-1.378 1.121-2.5 2.5-2.5 1.058 0 2.005 0.67 2.357 1.667 0.093 0.261 0.375 0.396 0.639 0.305 0.26-0.092 0.396-0.377 0.305-0.638-0.494-1.396-1.82-2.333-3.301-2.333-1.93 0-3.5 1.57-3.5 3.5v1.838c-1.181 0.563-2 1.769-2 3.162v2c0 1.93 1.57 3.5 3.5 3.5h4c1.93 0 3.5-1.57 3.5-3.5v-2c0-1.93-1.57-3.5-3.5-3.501zM23 20.5c0 1.378-1.121 2.5-2.5 2.5h-4c-1.379 0-2.5-1.122-2.5-2.5v-2c0-1.378 1.121-2.5 2.5-2.5h4c1.379 0 2.5 1.122 2.5 2.5zM19.5 19.5c0 0.552-0.448 1-1 1s-1-0.448-1-1 0.448-1 1-1 1 0.448 1 1z" />
</svg>