<svg id="user_nurse_hair_Layer_1" viewBox="0 0 24 24" fill="currentColor" width="32" height="32" data-name="Layer 1" xmlns="http://www.w3.org/2000/svg" xmlns:xlink="http://www.w3.org/1999/xlink">
    <title>user-nurse-hair</title>
    <path d="M14 4c0 0.276-0.224 0.5-0.5 0.5h-1v1C12.5 5.776 12.276 6 12 6s-0.5-0.224-0.5-0.5v-1h-1C10.224 4.5 10 4.276 10 4s0.224-0.5 0.5-0.5h1v-1C11.5 2.224 11.724 2 12 2s0.5 0.224 0.5 0.5v1h1C13.776 3.5 14 3.724 14 4zM18.521 17.584c-0.841-0.837-2.353-0.736-3.127 0.173l-3.393 3.973-3.391-3.984c-0.77-0.899-2.266-1.01-3.12-0.171C3.978 18.987 3 21.313 3 23.501c0 0.276 0.224 0.5 0.5 0.5s0.5-0.224 0.5-0.5c0-1.895 0.873-3.982 2.172-5.195 0.461-0.434 1.276-0.386 1.683 0.097l3.764 4.423c0.189 0.232 0.572 0.232 0.761 0l3.767-4.411c0.415-0.483 1.23-0.555 1.689-0.101C19.15 19.545 20 21.582 20 23.501c0 0.276 0.224 0.5 0.5 0.5s0.5-0.224 0.5-0.5c0-2.183-0.974-4.505-2.479-5.917zM6 10V2.5C6 1.121 7.122 0 8.5 0h7C16.878 0 18 1.121 18 2.5V10c0 3.309-2.691 6-6 6s-6-2.691-6-6zM17 10V8h-3.173c-1.14 1.853-3.147 3-5.327 3H7.101c0.465 2.279 2.484 4 4.899 4 2.757 0 5-2.243 5-5zM7 10h1.5c1.616 0 3.121-0.752 4.113-2H7zM7 7h10V2.5C17 1.673 16.327 1 15.5 1h-7C7.673 1 7 1.673 7 2.5z" />
</svg>