<svg id="user_hard_work_Layer_1" viewBox="0 0 24 24" fill="currentColor" width="32" height="32" data-name="Layer 1" xmlns="http://www.w3.org/2000/svg" xmlns:xlink="http://www.w3.org/1999/xlink">
    <title>user-hard-work</title>
    <path d="M3.5 7C4.879 7 6 5.879 6 4.5S4.879 2 3.5 2 1 3.121 1 4.5 2.121 7 3.5 7zM3.5 3C4.327 3 5 3.673 5 4.5S4.327 6 3.5 6 2 5.327 2 4.5 2.673 3 3.5 3zM8.5 17C8.775 17 9 17.225 9 17.5v2C9 19.776 9.224 20 9.5 20s0.5-0.224 0.5-0.5v-2c0-0.827-0.673-1.5-1.5-1.5H6V9h1.672C8.34 9 8.967 8.74 9.44 8.268l1.571-1.571c0.109 3.485 2.971 6.29 6.483 6.29 3.58 0 6.493-2.913 6.493-6.493S21.073 0 17.493 0c-3.12 0-5.732 2.213-6.352 5.152L8.732 7.561C8.453 7.84 8.066 8 7.671 8H3.5C2.121 8 1 9.121 1 10.5v9.676c0 0.162-0.025 0.321-0.077 0.474l-0.898 2.692c-0.087 0.262 0.055 0.545 0.316 0.633 0.255 0.086 0.545-0.052 0.633-0.316l0.896-2.691c0.086-0.255 0.129-0.521 0.129-0.791v-3.176zM17.493 1c3.029 0 5.493 2.464 5.493 5.493s-2.464 5.493-5.493 5.493S12 9.522 12 6.493 14.464 1 17.493 1zM2 10.5C2 9.673 2.673 9 3.5 9H5v7H2zM23.787 13.409l-15 10.5c-0.223 0.158-0.537 0.106-0.696-0.122-0.159-0.227-0.104-0.538 0.122-0.696l15-10.5c0.226-0.158 0.538-0.104 0.696 0.122 0.159 0.227 0.104 0.538-0.122 0.696z" />
</svg>