<svg id="user_ninja_Layer_1" viewBox="0 0 24 24" fill="currentColor" width="32" height="32" data-name="Layer 1" xmlns="http://www.w3.org/2000/svg" xmlns:xlink="http://www.w3.org/1999/xlink">
    <title>user-ninja</title>
    <path d="M14 4h-4C8.897 4 8 4.897 8 6s0.897 2 2 2h4c1.103 0 2-0.897 2-2s-0.897-2-2-2zM14 7h-4C9.448 7 9 6.552 9 6s0.448-1 1-1h4c0.552 0 1 0.448 1 1s-0.448 1-1 1zM20.642 5.58c-0.041-0.028-0.083-0.055-0.125-0.08 0.042-0.025 0.084-0.052 0.124-0.08 0.536-0.366 0.967-0.972 1.282-1.799 0.14-0.369 0.087-0.783-0.141-1.107-0.229-0.327-0.602-0.518-1.003-0.513-0.926 0.012-1.67 0.207-2.212 0.579-0.441 0.302-0.765 0.741-1.001 1.182C16.677 1.559 14.517 0 11.999 0c-3.309 0-6 2.691-6 6s2.691 6 6 6c2.755 0 5.081-1.866 5.783-4.4 0.208 0.311 0.466 0.601 0.784 0.82 0.542 0.372 1.286 0.567 2.212 0.579h0.017c0.393 0 0.761-0.19 0.986-0.513 0.228-0.324 0.28-0.738 0.14-1.108-0.313-0.826-0.745-1.431-1.279-1.798zM19.134 3.404c0.469-0.321 1.161-0.396 1.659-0.403 0.11-4e-3 0.147 0.055 0.171 0.087 0.022 0.032 0.055 0.098 0.024 0.179-0.166 0.435-0.458 1.018-0.913 1.329-0.521 0.358-1.359 0.417-1.945 0.401 0.173-0.535 0.496-1.244 1.004-1.593zM12 11c-2.757 0-5-2.243-5-5s2.243-5 5-5 5 2.243 5 5-2.243 5-5 5zM20.964 7.912c-0.023 0.032-0.058 0.104-0.171 0.087-0.498-7e-3-1.19-0.082-1.659-0.403-0.508-0.349-0.832-1.059-1.004-1.594C18.167 6.001 18.37 6 18.391 6c0.554 7e-3 1.235 0.096 1.685 0.405v0c0.454 0.312 0.746 0.895 0.911 1.328 0.031 0.082 0 0.147-0.023 0.179zM12 14c-4.411 0-8 3.589-8 8v1.5C4 23.776 4.224 24 4.5 24S5 23.776 5 23.5V22c0-2.145 0.971-4.068 2.496-5.353 0.688 1.361 2.201 4.095 4.611 7.162C12.206 23.935 12.353 24 12.501 24c0.108 0 0.218-0.035 0.309-0.106 0.218-0.171 0.255-0.485 0.085-0.702-0.129-0.164-0.255-0.327-0.378-0.488 1.873-2.402 3.193-4.535 4.026-6.025 1.503 1.285 2.458 3.194 2.458 5.322v1.5c0 0.276 0.224 0.5 0.5 0.5s0.5-0.224 0.5-0.5v-1.5c0-4.411-3.589-8-8.001-8.001zM11.895 21.871c-1.863-2.559-3.038-4.736-3.579-5.82C9.387 15.385 10.649 15 12 15c1.37 0 2.65 0.396 3.731 1.08-0.786 1.417-2.043 3.466-3.836 5.791z" />
</svg>