<svg id="user_injured_Layer_1" viewBox="0 0 24 24" fill="currentColor" width="32" height="32" data-name="Layer 1" xmlns="http://www.w3.org/2000/svg" xmlns:xlink="http://www.w3.org/1999/xlink">
    <title>user-injured</title>
    <path d="M12 12c3.309 0 6-2.691 6-6 0-3.5-2.927-6-6-6S6 2.5 6 6c0 3.309 2.691 6 6 6zM12 11c-2.757 0-5-2.243-5-5h10c0 2.757-2.243 5-5 5zM16.899 5h-5.862l4.04-2.938c0.919 0.72 1.581 1.753 1.822 2.938zM12 1c0.774 0 1.507 0.177 2.161 0.492L9.337 5H7.1C7.565 2.721 9.585 1 12 1zM12 14c-4.411 0-8 3.589-8 8 0 1.103 0.897 2 2 2h9c0.276 0 0.5-0.224 0.5-0.5S15.276 23 15 23h-2.12l-2.188-7.877C11.116 15.042 11.553 15 12 15c3.859 0 7 3.141 7 7v1.5c0 0.276 0.224 0.5 0.5 0.5s0.5-0.224 0.5-0.5V22c0-4.411-3.589-8-8-8zM11.842 23H6c-0.552 0-1-0.448-1-1 0-3.064 1.979-5.674 4.726-6.62z" />
</svg>