<svg id="user_cowboy_Layer_1" viewBox="0 0 24 24" fill="currentColor" width="32" height="32" data-name="Layer 1" xmlns="http://www.w3.org/2000/svg" xmlns:xlink="http://www.w3.org/1999/xlink">
    <title>user-cowboy</title>
    <path d="M23.784 2.089c-0.229-0.156-0.539-0.1-0.695 0.127-0.023 0.033-1.654 2.319-5.209 3.719-0.513-2.8-2.479-5.934-3.379-5.934-0.651 0-1.117 0.311-1.527 0.584-0.335 0.224-0.624 0.416-0.973 0.416-0.36 0-0.668-0.2-1.024-0.433-0.408-0.266-0.871-0.567-1.476-0.567-0.9 0-2.867 3.134-3.379 5.935-3.557-1.401-5.188-3.687-5.211-3.72-0.158-0.227-0.468-0.283-0.695-0.127-0.227 0.157-0.284 0.468-0.128 0.694C0.192 2.934 2.008 5.503 6 6.978V8c0 3.309 2.691 6 6 6s6-2.691 6-6V6.978c3.992-1.475 5.808-4.044 5.912-4.195 0.156-0.227 0.099-0.537-0.128-0.694zM9.586 1.005c0.276 0.03 0.541 0.203 0.843 0.4C10.857 1.683 11.342 2 11.999 2c0.651 0 1.117-0.311 1.527-0.584 0.307-0.204 0.575-0.383 0.885-0.412 0.525 0.393 2.138 2.871 2.513 5.268C15.536 6.71 13.899 7 11.997 7S8.46 6.71 7.071 6.272C7.446 3.876 9.057 1.4 9.586 1.005zM12 13c-2.757 0-5-2.243-5-5V7.31C8.423 7.729 10.084 8 12 8s3.577-0.271 5-0.69V8c0 2.757-2.243 5-5 5zM19.974 23.467c0.018 0.275-0.19 0.514-0.466 0.532-0.011 0-0.022 0-0.034 0-0.261 0-0.481-0.203-0.499-0.467-0.242-3.664-3.306-6.533-6.976-6.533s-6.733 2.869-6.976 6.533c-0.019 0.275-0.257 0.494-0.532 0.466-0.275-0.019-0.484-0.257-0.466-0.532 0.277-4.187 3.779-7.467 7.974-7.467s7.697 3.28 7.975 7.468z" />
</svg>