<svg id="user_sitting_toilet_Layer_1" viewBox="0 0 24 24" fill="currentColor" width="32" height="32" data-name="Layer 1" xmlns="http://www.w3.org/2000/svg" xmlns:xlink="http://www.w3.org/1999/xlink">
    <title>user-sitting-toilet</title>
    <path d="M15.501 5c1.379 0 2.5-1.122 2.5-2.5S16.88 0 15.501 0s-2.5 1.122-2.5 2.5 1.121 2.5 2.5 2.5zM15.501 1c0.827 0 1.5 0.673 1.5 1.5S16.328 4 15.501 4s-1.5-0.673-1.5-1.5 0.673-1.5 1.5-1.5zM15.382 17H5.001V8.5C5.001 8.224 4.776 8 4.5 8S4 8.224 4 8.5v14C4 23.327 4.674 24 5.501 24h3.175c0.649 0 1.222-0.416 1.424-1.035C10.312 22.316 10.77 22 11.501 22h0.754c2.878 0 4.102-1.505 4.621-2.767 0.457-1.02-0.378-2.266-1.494-2.233zM15.952 18.852C15.364 20.278 14.121 21 12.255 21h-0.754c-1.577 0-2.15 1.037-2.353 1.655C9.081 22.861 8.891 23 8.675 23H5.5C5.225 23 5 22.776 5 22.5V18h10.382c0.427-0.014 0.745 0.463 0.57 0.852zM19.549 15.787c-0.396-0.5-0.987-0.786-1.625-0.786h-4.07l1.753-5.646 3.473 5.416c0.15 0.234 0.462 0.299 0.69 0.151 0.232-0.149 0.301-0.458 0.151-0.691l-4.575-7.136c0 0 0 0 0 0s0-1e-3-1e-3-2e-3c-0.373-0.553-0.94-0.928-1.597-1.055-1.263-0.294-2.704 0.662-2.91 1.907l-1.791 5.084c-0.326 1.489 0.931 3.01 2.455 2.972h6.423c0.671-0.018 1.216 0.669 1.045 1.316l-1.455 6.067c-0.064 0.269 0.102 0.539 0.37 0.603 0.262 0.064 0.54-0.1 0.603-0.37l1.455-6.069c0.146-0.62 3e-3-1.262-0.394-1.761zM12.807 15.001h-1.306c-0.449 0-0.871-0.198-1.156-0.544-0.286-0.346-0.401-0.798-0.336-1.167L11.8 8.207c0.136-0.795 0.973-1.358 1.758-1.188 0.767 0.118 1.349 0.975 1.2 1.705z" />
</svg>