<svg id="users_Layer_1" viewBox="0 0 24 24" fill="currentColor" width="32" height="32" data-name="Layer 1" xmlns="http://www.w3.org/2000/svg" xmlns:xlink="http://www.w3.org/1999/xlink">
    <title>users</title>
    <path d="M7.5 13c2.481 0 4.5-2.019 4.5-4.5S9.981 4 7.5 4 3 6.019 3 8.5 5.019 13 7.5 13zM7.5 5C9.43 5 11 6.57 11 8.5S9.43 12 7.5 12 4 10.43 4 8.5 5.57 5 7.5 5zM15 22.5v1c0 0.276-0.224 0.5-0.5 0.5S14 23.776 14 23.5v-1c0-3.584-2.916-6.5-6.5-6.5S1 18.916 1 22.5v1C1 23.776 0.776 24 0.5 24S0 23.776 0 23.5v-1C0 18.364 3.364 15 7.5 15s7.5 3.364 7.5 7.5zM24 17.863V18.5c0 0.276-0.224 0.5-0.5 0.5S23 18.776 23 18.5v-0.637C23 14.63 20.37 12 17.137 12c-1.357 0-2.485 0.307-3.351 0.91-0.228 0.158-0.539 0.103-0.696-0.124s-0.103-0.538 0.124-0.696c1.037-0.724 2.357-1.09 3.923-1.09C20.921 11 24 14.079 24 17.863zM17.5 9C19.981 9 22 6.981 22 4.5S19.981 0 17.5 0 13 2.019 13 4.5 15.019 9 17.5 9zM17.5 1C19.43 1 21 2.57 21 4.5S19.43 8 17.5 8 14 6.43 14 4.5 15.57 1 17.5 1z" />
</svg>