<svg id="user_down_Layer_1" viewBox="0 0 24 24" fill="currentColor" width="32" height="32" data-name="Layer 1" xmlns="http://www.w3.org/2000/svg" xmlns:xlink="http://www.w3.org/1999/xlink">
    <title>user-down</title>
    <path d="M15.966 23.467c0.018 0.275-0.19 0.514-0.466 0.532-0.271 0.016-0.514-0.19-0.532-0.466C14.728 19.87 11.659 17 7.984 17s-6.744 2.87-6.985 6.533c-0.017 0.276-0.259 0.485-0.532 0.466-0.276-0.018-0.484-0.256-0.466-0.532C0.277 19.279 3.783 16 7.983 16s7.707 3.28 7.983 7.467zM2.983 9c0-2.757 2.243-5 5-5s5 2.243 5 5-2.243 5-5 5-5-2.243-5-5zM3.983 9c0 2.206 1.794 4 4 4s4-1.794 4-4-1.794-4-4-4-4 1.794-4 4zM23.874 5.659c-0.195-0.194-0.513-0.195-0.708 0 0 0-3.156 3.147-3.177 3.164l-0.012-8.285c0-0.276-0.225-0.5-0.5-0.5-0.276 0-0.499 0.225-0.499 0.5l0.012 8.238-3.115-3.107c-0.195-0.194-0.513-0.195-0.708 0-0.194 0.195-0.194 0.512 0 0.707l3.119 3.11c0.331 0.33 0.77 0.511 1.237 0.511h3e-3c0.468 0 0.907-0.184 1.238-0.515l3.11-3.119c0.194-0.195 0.194-0.512 0-0.704z" />
</svg>