<svg id="user_robot_xmarks_Layer_1" viewBox="0 0 24 24" fill="currentColor" width="32" height="32" data-name="Layer 1" xmlns="http://www.w3.org/2000/svg" xmlns:xlink="http://www.w3.org/1999/xlink">
    <title>user-robot-xmarks</title>
    <path d="M21 22.5v1c0 0.276-0.224 0.5-0.5 0.5S20 23.776 20 23.5v-1c0-2.481-2.019-4.5-4.5-4.5h-7C6.019 18 4 20.019 4 22.5v1C4 23.776 3.776 24 3.5 24S3 23.776 3 23.5v-1C3 19.467 5.468 17 8.5 17h7c3.032 0 5.5 2.467 5.5 5.5zM22 7.5v3c0 0.827-0.673 1.5-1.5 1.5h-0.536c-0.243 1.694-1.704 3-3.464 3h-9c-1.76 0-3.221-1.306-3.464-3H3.5C2.673 12 2 11.327 2 10.5v-3C2 6.673 2.673 6 3.5 6H4V5.5C4 3.57 5.57 2 7.5 2h4V0.5C11.5 0.224 11.724 0 12 0s0.5 0.224 0.5 0.5V2h4C18.43 2 20 3.57 20 5.5V6h0.5C21.327 6 22 6.673 22 7.5zM3.5 11H4V7H3.5C3.225 7 3 7.224 3 7.5v3C3 10.776 3.225 11 3.5 11zM19 11.5v-6C19 4.122 17.879 3 16.5 3h-9C6.121 3 5 4.122 5 5.5v6C5 12.878 6.121 14 7.5 14h9c1.379 0 2.5-1.122 2.5-2.5zM21 7.5C21 7.224 20.775 7 20.5 7H20v4h0.5c0.275 0 0.5-0.224 0.5-0.5zM10.854 7.146c-0.195-0.195-0.512-0.195-0.707 0L9.001 8.292 7.855 7.146c-0.195-0.195-0.512-0.195-0.707 0s-0.195 0.512 0 0.707l1.146 1.146-1.146 1.146c-0.195 0.195-0.195 0.512 0 0.707 0.098 0.098 0.226 0.146 0.354 0.146s0.256-0.049 0.354-0.146l1.146-1.146 1.146 1.146c0.098 0.098 0.226 0.146 0.354 0.146s0.256-0.049 0.354-0.146c0.195-0.195 0.195-0.512 0-0.707L9.71 8.999l1.146-1.146c0.195-0.195 0.195-0.512-2e-3-0.707zM16.854 7.185c-0.195-0.195-0.512-0.195-0.707 0l-1.146 1.146-1.146-1.146c-0.195-0.195-0.512-0.195-0.707 0s-0.195 0.512 0 0.707l1.146 1.146-1.146 1.146c-0.195 0.195-0.195 0.512 0 0.707 0.098 0.098 0.226 0.146 0.354 0.146s0.256-0.049 0.354-0.146l1.146-1.146 1.146 1.146c0.098 0.098 0.226 0.146 0.354 0.146s0.256-0.049 0.354-0.146c0.195-0.195 0.195-0.512 0-0.707L15.71 9.038l1.146-1.146c0.195-0.195 0.195-0.512-2e-3-0.707z" />
</svg>