<svg id="user_circle_up_Layer_1" viewBox="0 0 24 24" fill="currentColor" width="32" height="32" data-name="Layer 1" xmlns="http://www.w3.org/2000/svg" xmlns:xlink="http://www.w3.org/1999/xlink">
    <title>user-circle-up</title>
    <path d="M11.998 23.455c0.025 0.274-0.178 0.518-0.453 0.543-0.271 0.025-0.519-0.177-0.543-0.453C10.768 20.954 8.617 19 6 19s-4.768 1.954-5.002 4.545c-0.024 0.275-0.273 0.471-0.543 0.453-0.275-0.025-0.478-0.269-0.453-0.543C0.284 20.345 2.862 18 6 18s5.716 2.345 5.998 5.455zM2 12c0-2.206 1.794-4 4-4s4 1.794 4 4-1.794 4-4 4-4-1.794-4-4zM3 12c0 1.654 1.346 3 3 3s3-1.346 3-3-1.346-3-3-3-3 1.346-3 3zM24 6.5c0 3.584-2.916 6.5-6.5 6.5S11 10.084 11 6.5 13.916 0 17.5 0 24 2.916 24 6.5zM23 6.5C23 3.467 20.533 1 17.5 1S12 3.467 12 6.5 14.467 12 17.5 12 23 9.533 23 6.5zM20.328 4.712c0.304 0.349 0.366 0.785 0.19 1.167S19.972 6.5 19.551 6.5H18v3c0 0.276-0.224 0.5-0.5 0.5S17 9.776 17 9.5v-3h-1.558c-0.42 0-0.79-0.237-0.966-0.619s-0.115-0.817 0.158-1.136l1.854-1.831c0.266-0.267 0.621-0.414 0.999-0.415h2e-3c0.378 0 0.733 0.146 1 0.413zM19.626 5.424 17.788 3.623c-0.081-0.081-0.185-0.124-0.297-0.124s-0.216 0.043-0.293 0.121l-3e-3 3e-3-1.828 1.802 0.077 0.074h4.109z" />
</svg>