<svg id="user_plumber_Layer_1" viewBox="0 0 24 24" fill="currentColor" width="32" height="32" data-name="Layer 1" xmlns="http://www.w3.org/2000/svg" xmlns:xlink="http://www.w3.org/1999/xlink">
    <title>user-plumber</title>
    <path d="M24 16.508c0 2.071-1.167 3.958-3 4.894V23.5c0 0.276-0.224 0.5-0.5 0.5S20 23.776 20 23.5v-2.414c0-0.199 0.118-0.378 0.299-0.458C21.94 19.91 23 18.293 23 16.508c0-1.338-0.592-2.598-1.625-3.455-0.195-0.113-0.337-0.047-0.375 0.176v2.172c0 1.274-0.896 2.38-2.084 2.573-1.481 0.278-2.95-0.962-2.916-2.466v-2.279c-0.038-0.223-0.18-0.289-0.375-0.176C14.593 13.91 14 15.17 14 16.508c0 1.785 1.06 3.402 2.701 4.12 0.182 0.08 0.299 0.259 0.299 0.458V23.5c0 0.276-0.224 0.5-0.5 0.5S16 23.776 16 23.5v-2.098c-1.833-0.937-3-2.823-3-4.894 0-1.636 0.724-3.176 1.986-4.225 0.751-0.672 2.051-0.062 2.014 0.946v2.279c-0.018 0.905 0.86 1.65 1.755 1.479C19.465 16.872 20 16.19 20 15.401v-2.172c-0.037-1.008 1.263-1.617 2.014-0.946C23.276 13.332 24 14.871 24 16.508zM14.013 7.999c0 3.31-2.691 6.001-6 6.001s-6-2.691-6-6l-2e-3-1H1C0.724 7 0.5 6.776 0.5 6.5S0.724 6 1 6h1.01V5.509C1.943 2.55 4.549-0.061 7.509 0h1c3.028 0 5.495 2.463 5.5 5.491V6h0.992c0.276 0 0.5 0.224 0.5 0.5S15.277 7 15.001 7h-0.989zM3.01 6h9.999V5.493c-4e-3-1.952-1.266-3.6-3.009-4.219V3.5C10 3.776 9.776 4 9.5 4S9 3.776 9 3.5V1.05C8.836 1.032 8.677 1 8.508 1h-1c-0.173 0-0.34 0.031-0.509 0.05V3.5c0 0.276-0.224 0.5-0.5 0.5s-0.5-0.224-0.5-0.5V1.275C5.378 1.496 4.803 1.84 4.323 2.32 3.473 3.172 3.006 4.303 3.008 5.507zM13.014 8l-2e-3-1H3.011l2e-3 0.999c0 2.758 2.243 5.001 5 5.001s5-2.243 5.001-5zM10.667 15.451C9.816 15.152 8.923 15 8.014 15c-4.412 0-8.001 3.589-8.001 7.987L0 23.487C-7e-3 23.763 0.211 23.992 0.487 24H0.5c0.27 0 0.493-0.216 0.5-0.487L1.013 23c0-3.86 3.14-7 7-7 0.796 0 1.577 0.133 2.322 0.394 0.257 0.09 0.545-0.045 0.637-0.306 0.092-0.26-0.045-0.546-0.305-0.637z" />
</svg>