<svg id="user_time_Layer_1" viewBox="0 0 24 24" fill="currentColor" width="32" height="32" data-name="Layer 1" xmlns="http://www.w3.org/2000/svg" xmlns:xlink="http://www.w3.org/1999/xlink">
    <title>user-time</title>
    <path d="M17.5 11c-3.584 0-6.5 2.916-6.5 6.5s2.916 6.5 6.5 6.5 6.5-2.916 6.5-6.5-2.916-6.5-6.5-6.5zM17.5 23c-3.033 0-5.5-2.468-5.5-5.5s2.467-5.5 5.5-5.5 5.5 2.468 5.5 5.5-2.467 5.5-5.5 5.5zM18.854 18.146c0.195 0.195 0.195 0.512 0 0.707-0.098 0.098-0.226 0.146-0.354 0.146s-0.256-0.049-0.354-0.146l-1-1C17.052 17.759 17 17.632 17 17.499v-2c0-0.276 0.224-0.5 0.5-0.5s0.5 0.224 0.5 0.5v1.793zM9 12c3.309 0 6-2.691 6-6s-2.691-6-6-6-6 2.691-6 6 2.691 6 6 6zM9 1c2.757 0 5 2.243 5 5s-2.243 5-5 5-5-2.243-5-5 2.243-5 5-5zM10 14.521c-0.01 0.276-0.264 0.483-0.517 0.482l-0.232-4e-3c-4.549 0-8.25 3.701-8.25 8.25v0.25c0 0.276-0.224 0.5-0.5 0.5s-0.5-0.224-0.5-0.5v-0.25c0-5.101 4.149-9.25 9.25-9.25l0.268 4e-3c0.276 0.01 0.492 0.241 0.481 0.518z" />
</svg>