<svg id="user_speaking_Layer_1" viewBox="0 0 24 24" fill="currentColor" width="32" height="32" data-name="Layer 1" xmlns="http://www.w3.org/2000/svg" xmlns:xlink="http://www.w3.org/1999/xlink">
    <title>user-speaking</title>
    <path d="M21.226 24.021c-0.452 0.466-1.172-0.255-0.707-0.707 3.317-3.318 3.317-8.719 0-12.037-0.195-0.195-0.195-0.512 0-0.707s0.512-0.195 0.707 0c3.708 3.709 3.708 9.742 0 13.451zM19.111 12.685c-0.195-0.195-0.512-0.195-0.707 0s-0.195 0.512 0 0.707c2.151 2.152 2.151 5.654 0 7.807-0.466 0.452 0.255 1.172 0.707 0.707 2.541-2.542 2.541-6.679 0-9.221zM16.275 14.814c-0.195 0.195-0.195 0.512 0 0.707 0.475 0.474 0.735 1.104 0.735 1.774s-0.261 1.301-0.735 1.774c-0.466 0.452 0.255 1.172 0.707 0.707 0.663-0.662 1.028-1.544 1.028-2.481s-0.365-1.819-1.028-2.481c-0.195-0.195-0.512-0.195-0.707 0zM0.43 0.111C0.157 0.149-0.034 0.402 5e-3 0.676 0.043 0.949 0.29 1.134 0.57 1.102 4.246 0.588 7.759 2.043 9.986 5.016 11.393 6.755 14 12.68 14 13.546 14 13.683 13.947 14 13.454 14h-0.956c-0.236 0-0.438 0.165-0.487 0.396l-0.6 2.83c-0.341 1.606-1.781 2.773-3.424 2.773H6.5c-0.276 0-0.5 0.224-0.5 0.5v1c0 0.827-0.673 1.5-1.5 1.5h-4c-0.276 0-0.5 0.224-0.5 0.5s0.224 0.5 0.5 0.5h4c1.378 0 2.5-1.121 2.5-2.5v-0.5h0.987c2.112 0 3.964-1.5 4.402-3.566l0.516-2.434h0.549c1.134 0 1.546-0.869 1.546-1.454 0-1.283-2.851-7.446-4.225-9.145C8.337 1.146 4.472-0.455 0.43 0.111z" />
</svg>