<svg id="user_pen_head_Layer_1" viewBox="0 0 24 24" fill="currentColor" width="32" height="32" data-name="Layer 1" xmlns="http://www.w3.org/2000/svg" xmlns:xlink="http://www.w3.org/1999/xlink">
    <title>user-pen-head</title>
    <path d="M9 14c0.552 0 1 0.448 1 1s-0.448 1-1 1-1-0.448-1-1 0.448-1 1-1zM14 15c0 0.552 0.448 1 1 1s1-0.448 1-1-0.448-1-1-1-1 0.448-1 1zM22 12.172V10.5C22 9.121 20.879 8 19.5 8H19c-0.276 0-0.5 0.224-0.5 0.5S18.724 9 19 9h0.5c0.827 0 1.5 0.673 1.5 1.5v2.051c0 0.238 0.168 0.442 0.4 0.49C22.327 13.229 23 14.053 23 15c0 1.101-0.893 1.996-2.024 1.996-0.247-0.054-0.514 0.056-0.608 0.304-1.367 3.463-4.652 5.7-8.367 5.7s-7-2.237-8.367-5.7c-0.099-0.263-0.379-0.363-0.633-0.3-1.103 0-2-0.897-2-2 0-0.947 0.673-1.771 1.6-1.959 0.233-0.048 0.4-0.252 0.4-0.49V10.5c0-0.827 0.673-1.5 1.5-1.5h1c0.276 0 0.5-0.224 0.5-0.5S5.777 8 5.501 8h-1c-1.378 0-2.5 1.121-2.5 2.5v1.672c-1.18 0.417-2 1.548-2 2.828 0 1.601 1.259 2.912 2.839 2.996C4.433 21.655 7.99 24 12.001 24s7.567-2.345 9.161-6.004c1.579-0.084 2.839-1.396 2.839-2.996 0-1.28-0.82-2.411-2.001-2.828zM7.834 8.598c-0.48-1.111-0.379-2.323 0.245-3.294l2.698-4.623c0.554-0.865 1.904-0.848 2.435-0.018l2.747 4.657c0.614 0.954 0.715 2.166 0.261 3.227l-1.288 2.206C14.842 10.906 14.678 11 14.5 11h-5c-0.179 0-0.345-0.096-0.434-0.252zM8.728 8.153 9.79 10.001h4.424l1.114-1.903c0.296-0.698 0.224-1.562-0.221-2.252L12.5 1.423v5.423c0 0.276-0.224 0.5-0.5 0.5s-0.5-0.224-0.5-0.5V1.424L8.932 5.826C8.477 6.535 8.405 7.398 8.728 8.153z" />
</svg>