<svg id="user_stress_Layer_1" viewBox="0 0 24 24" fill="currentColor" width="32" height="32" data-name="Layer 1" xmlns="http://www.w3.org/2000/svg" xmlns:xlink="http://www.w3.org/1999/xlink">
    <title>user-stress</title>
    <path d="M21.823 15.51l-3.354 5.812C18.162 21.853 18 22.458 18 23.072V23.5c0 0.276-0.224 0.5-0.5 0.5S17 23.776 17 23.5v-0.428c0-0.79 0.209-1.568 0.604-2.25l2.896-5.018-2.734 3.038c-0.662 0.736-1.61 1.159-2.602 1.159H8.836c-0.991 0-1.939-0.422-2.602-1.159l-2.733-3.037 2.895 5.017C6.791 21.504 7 22.282 7 23.072V23.5C7 23.776 6.776 24 6.5 24S6 23.776 6 23.5v-0.428c0-0.614-0.162-1.219-0.469-1.75l-3.346-5.797c-0.361-0.677-0.168-1.505 0.442-1.941l4.599-3.002c0.23-0.15 0.542-0.086 0.692 0.145s0.086 0.541-0.146 0.692l-4.33 2.826 3.535 3.928c0.473 0.526 1.149 0.828 1.857 0.828h6.328c0.708 0 1.385-0.302 1.857-0.828l3.535-3.928-4.33-2.826c-0.231-0.151-0.296-0.46-0.146-0.692 0.151-0.231 0.461-0.295 0.692-0.145l4.581 2.99c0.628 0.448 0.821 1.276 0.472 1.938zM2.66 2.984C2.437 2.536 2.525 2 2.878 1.648l0.84-0.839c0.486-0.51 1.403-0.354 1.69 0.286l0.545 1.264 0.704-0.704c0.545-0.58 1.602-0.246 1.712 0.541l0.625 4.208c0.095 0.558-0.381 1.111-0.945 1.097-0.361 2e-3-0.699-0.206-0.858-0.53L6.528 5.624 5.853 6.335C5.389 6.832 4.524 6.703 4.22 6.105zM3.555 2.538 5.108 5.643 6.296 4.414c0.095-0.1 0.227-0.156 0.362-0.156 0.024 0 0.05 2e-3 0.075 6e-3 0.161 0.024 0.301 0.126 0.373 0.273l0.979 1.988-0.701-4.16c0 0-2e-3-4e-3-2e-3-4e-3L6.139 3.585C6.022 3.702 5.854 3.753 5.692 3.723 5.529 3.692 5.392 3.582 5.327 3.43L4.499 1.51 3.585 2.356c-0.049 0.048-0.061 0.122-0.03 0.182zM15.217 6.679c-0.173-0.209-0.25-0.482-0.212-0.75l0.626-4.21c0.108-0.788 1.171-1.121 1.712-0.541l0.704 0.703 0.536-1.244c0.295-0.662 1.202-0.819 1.699-0.306l0.84 0.839c0.353 0.353 0.44 0.889 0.218 1.335l-1.553 3.107c-0.304 0.61-1.165 0.737-1.631 0.252l-0.684-0.72-0.662 1.345c-0.282 0.61-1.177 0.716-1.593 0.19zM15.994 6.074l0.899-2.013c0.072-0.146 0.212-0.249 0.373-0.273 0.164-0.026 0.325 0.031 0.438 0.15l1.168 1.231 1.573-3.109c0.03-0.06 0.018-0.134-0.03-0.182l-0.84-0.839-0.902 1.915c-0.065 0.152-0.202 0.262-0.365 0.293s-0.33-0.02-0.447-0.138l-1.243-1.228zM12 16.001c-1.692 0-3.209-1.072-3.772-2.667-0.093-0.262-0.377-0.397-0.639-0.305-0.26 0.092-0.396 0.377-0.305 0.638C7.989 15.661 9.885 17 12 17s4.011-1.339 4.716-3.333c0.092-0.26-0.045-0.546-0.305-0.638-0.262-0.09-0.546 0.044-0.639 0.305-0.563 1.595-2.08 2.667-3.772 2.667zM8.273 8.668c-0.184 0.206-0.166 0.521 0.04 0.706 0.204 0.185 0.521 0.168 0.706-0.04 0.757-0.847 1.844-1.333 2.98-1.333s2.224 0.486 2.98 1.333c0.184 0.207 0.502 0.224 0.706 0.04 0.206-0.184 0.224-0.5 0.04-0.706-0.947-1.06-2.306-1.667-3.727-1.667S9.219 7.608 8.273 8.668z" />
</svg>