<svg id="user_hair_buns_Layer_1" viewBox="0 0 24 24" fill="currentColor" width="32" height="32" data-name="Layer 1" xmlns="http://www.w3.org/2000/svg" xmlns:xlink="http://www.w3.org/1999/xlink">
    <title>user-hair-buns</title>
    <path d="M5.5 9c0.421 0 0.801-0.176 1.074-0.456C7.534 10.583 9.602 12 12 12s4.467-1.418 5.426-3.456C17.699 8.825 18.079 9 18.5 9 19.327 9 20 8.327 20 7.5v-3C20 3.673 19.327 3 18.5 3c-0.421 0-0.801 0.176-1.074 0.456C16.466 1.417 14.398 0 12 0S7.533 1.418 6.574 3.456C6.301 3.175 5.921 3 5.5 3 4.673 3 4 3.673 4 4.5v3C4 8.327 4.673 9 5.5 9zM12 11c-2.757 0-5-2.243-5-5 0-0.342 0.035-0.677 0.101-1H10c0.817 0 1.543-0.394 2-1.002C12.457 4.606 13.184 5 14 5h2.899C16.965 5.323 17 5.658 17 6c0 2.757-2.243 5-5 5zM18.5 4C18.775 4 19 4.225 19 4.5v3C19 7.775 18.775 8 18.5 8S18 7.775 18 7.5v-3C18 4.225 18.225 4 18.5 4zM12 1c2.045 0 3.802 1.237 4.576 3H14c-0.827 0-1.5-0.673-1.5-1.5 0-0.276-0.224-0.5-0.5-0.5s-0.5 0.224-0.5 0.5C11.5 3.327 10.827 4 10 4H7.424C8.198 2.237 9.955 1 12 1zM5 4.5C5 4.225 5.224 4 5.5 4S6 4.225 6 4.5v3C6 7.775 5.776 8 5.5 8S5 7.775 5 7.5zM21 23v0.5c0 0.276-0.224 0.5-0.5 0.5S20 23.776 20 23.5V23c0-4.411-3.589-8-8-8s-8 3.589-8 8v0.5C4 23.776 3.776 24 3.5 24S3 23.776 3 23.5V23c0-4.963 4.038-9 9-9s9 4.037 9 9z" />
</svg>