<svg id="user_mask_Layer_1" viewBox="0 0 24 24" fill="currentColor" width="32" height="32" data-name="Layer 1" xmlns="http://www.w3.org/2000/svg" xmlns:xlink="http://www.w3.org/1999/xlink">
    <title>user-mask</title>
    <path d="M20 22v1.5c0 0.276-0.224 0.5-0.5 0.5S19 23.776 19 23.5V22c0-3.859-3.14-7-7-7s-7 3.141-7 7v1.5C5 23.776 4.776 24 4.5 24S4 23.776 4 23.5V22c0-4.411 3.589-8 8-8s8 3.589 8 8zM6 6c0-3.309 2.691-6 6-6s6 2.691 6 6c0 2.49-1.499 4.685-3.818 5.591-7e-3 3e-3-0.013 1e-3-0.02 3e-3-0.336 0.252-0.75 0.405-1.202 0.405h-1.92c-0.452 0-0.866-0.152-1.202-0.404-7e-3-2e-3-0.013-1e-3-0.02-4e-3C7.498 10.686 6 8.491 6 6zM9.037 10.019c-0.109-0.682 0.04-1.678 0.217-2.117C8.551 7.734 7.821 7.33 7.05 6.683c0.183 1.352 0.903 2.543 1.987 3.336zM12.96 10.999c0.502 0 0.92-0.361 0.994-0.858 0.142-0.628-0.057-1.865-0.247-2.142h-3.416c-0.188 0.273-0.389 1.515-0.246 2.141 0.074 0.499 0.492 0.859 0.994 0.859zM16.949 6.675c-0.773 0.651-1.503 1.058-2.204 1.227 0.177 0.439 0.327 1.436 0.218 2.118 1.085-0.795 1.806-1.99 1.986-3.345zM7.067 5.336C8.17 6.43 9.158 6.999 10 6.999h4c0.838 0 1.826-0.572 2.932-1.672C16.6 2.89 14.527 0.999 12 0.999S7.396 2.894 7.067 5.336z" />
</svg>