<svg id="user_tag_Layer_1" viewBox="0 0 24 24" fill="currentColor" width="32" height="32" data-name="Layer 1" xmlns="http://www.w3.org/2000/svg" xmlns:xlink="http://www.w3.org/1999/xlink">
    <title>user-tag</title>
    <path d="M23.287 16.673l-3.83-3.791c-0.655-0.657-1.595-0.974-2.518-0.856l-2.567 0.339c-1.161 0.154-2.071 1.113-2.164 2.28l-0.198 2.479c-0.07 0.876 0.246 1.734 0.868 2.359l3.848 3.809c0.457 0.455 1.062 0.705 1.707 0.705h0.011c0.648-3e-3 1.255-0.259 1.711-0.72l3.148-3.188c0.933-0.945 0.926-2.477-0.016-3.416zM22.591 19.385l-3.148 3.188c-0.267 0.271-0.624 0.421-1.003 0.423-0.359 9e-3-0.738-0.146-1.009-0.415l-3.847-3.807c-0.413-0.415-0.624-0.988-0.577-1.571l0.198-2.479c0.056-0.701 0.602-1.276 1.298-1.368 0 0 2.738-0.356 2.823-0.356 0.529 0 1.046 0.212 1.425 0.591l3.832 3.792c0.552 0.55 0.556 1.447 8e-3 2.002zM17 16c0 0.552-0.448 1-1 1s-1-0.448-1-1 0.448-1 1-1 1 0.448 1 1zM9 12c3.309 0 6-2.691 6-6s-2.691-6-6-6-6 2.691-6 6 2.691 6 6 6zM9 1c2.757 0 5 2.243 5 5s-2.243 5-5 5-5-2.243-5-5 2.243-5 5-5zM10 14.5c0 0.276-0.224 0.5-0.5 0.5C4.813 15 1 18.813 1 23.5 1 23.776 0.776 24 0.5 24S0 23.776 0 23.5C0 18.262 4.262 14 9.5 14c0.276 0 0.5 0.224 0.5 0.5z" />
</svg>