<svg id="user_volunteer_Layer_1" viewBox="0 0 24 24" fill="currentColor" width="32" height="32" data-name="Layer 1" xmlns="http://www.w3.org/2000/svg" xmlns:xlink="http://www.w3.org/1999/xlink">
    <title>user-volunteer</title>
    <path d="M13.614 17c-0.604 0-1.211 0.227-1.619 0.669C11.578 17.227 10.957 17 10.34 17c-1.178 0-2.137 1.032-2.137 2.301 0 1.622 1.913 3.644 2.839 4.369 0.566 0.443 1.352 0.441 1.915-6e-3 0.911-0.725 2.794-2.745 2.794-4.363 0-1.269-0.959-2.301-2.137-2.301zM12.334 22.881c-0.199 0.158-0.476 0.157-0.675 2e-3-1.004-0.786-2.456-2.514-2.456-3.582 0-0.717 0.51-1.301 1.137-1.301 0.401 0 1.16 0.209 1.16 1v2e-3c0 0.276 0.224 0.5 0.5 0.5s0.5-0.224 0.5-0.5c0-0.74 0.601-1.002 1.114-1.002 0.627 0 1.137 0.583 1.137 1.301 0 1.068-1.429 2.794-2.417 3.58zM12 12c3.309 0 6-2.691 6-6s-2.691-6-6-6-6 2.691-6 6 2.691 6 6 6zM12 1c2.757 0 5 2.243 5 5s-2.243 5-5 5-5-2.243-5-5 2.243-5 5-5zM21 23v0.5c0 0.276-0.224 0.5-0.5 0.5S20 23.776 20 23.5V23c0-4.411-3.589-8-8-8s-8 3.589-8 8v0.5C4 23.776 3.776 24 3.5 24S3 23.776 3 23.5V23c0-4.962 4.037-9 9-9s9 4.038 9 9z" />
</svg>