<svg id="user_roadmap_Layer_1" viewBox="0 0 24 24" fill="currentColor" width="32" height="32" data-name="Layer 1" xmlns="http://www.w3.org/2000/svg" xmlns:xlink="http://www.w3.org/1999/xlink">
    <title>user-roadmap</title>
    <path d="M24 18.5c0 1.93-1.57 3.5-3.5 3.5h-11C9.224 22 9 21.776 9 21.5S9.224 21 9.5 21h11c1.379 0 2.5-1.121 2.5-2.5S21.879 16 20.5 16h-8C10.57 16 9 14.43 9 12.5S10.57 9 12.5 9h3C15.776 9 16 9.224 16 9.5S15.776 10 15.5 10h-3c-1.379 0-2.5 1.122-2.5 2.5s1.121 2.5 2.5 2.5h8c1.93 0 3.5 1.57 3.5 3.5zM18 9.5V1.484c0-0.469 0.226-0.916 0.604-1.197 0.552-0.441 1.266-0.298 1.852-9e-3l2.813 1.258c0.955 0.589 0.959 2.001 0.079 2.597L19 6.308v3.191c0 0.276-0.224 0.5-0.5 0.5S18 9.775 18 9.5zM19 5.191l3.841-1.917c0.212-0.157 0.215-0.72-0.06-0.869l-2.734-1.214c-0.251-0.103-0.617-0.299-0.848-0.101C19.074 1.183 19 1.33 19 1.484zM1 16.5C1 15.121 2.121 14 3.5 14S6 15.121 6 16.5 4.879 19 3.5 19 1 17.879 1 16.5zM2 16.5C2 17.327 2.673 18 3.5 18S5 17.327 5 16.5 4.327 15 3.5 15 2 15.673 2 16.5zM3.5 20C1.57 20 0 21.57 0 23.5 0 23.776 0.224 24 0.5 24S1 23.776 1 23.5C1 22.121 2.121 21 3.5 21S6 22.121 6 23.5C6 23.776 6.224 24 6.5 24S7 23.776 7 23.5C7 21.57 5.43 20 3.5 20z" />
</svg>