<svg id="utensils_slash_Layer_1" viewBox="0 0 24 24" fill="currentColor" width="32" height="32" data-name="Layer 1" xmlns="http://www.w3.org/2000/svg" xmlns:xlink="http://www.w3.org/1999/xlink">
    <title>utensils-slash</title>
    <path d="M8 11.5v12C8 23.776 7.776 24 7.5 24S7 23.776 7 23.5V11.972c-2.247-0.25-4-2.16-4-4.472v-1C3 6.224 3.224 6 3.5 6S4 6.224 4 6.5v1C4 9.43 5.57 11 7.5 11 7.776 11 8 11.224 8 11.5zM15.5 19c-0.276 0-0.5 0.224-0.5 0.5v4c0 0.276 0.224 0.5 0.5 0.5s0.5-0.224 0.5-0.5v-4c0-0.276-0.224-0.5-0.5-0.5zM23.854 23.854C23.756 23.952 23.628 24 23.5 24s-0.256-0.049-0.354-0.146l-23-23c-0.195-0.196-0.195-0.512 0-0.708s0.512-0.195 0.708 0L3 2.292V0.5C3 0.224 3.224 0 3.5 0S4 0.224 4 0.5v2.793l3 3V0.5C7 0.224 7.224 0 7.5 0S8 0.224 8 0.5v6.793l2.293 2.293C10.743 8.984 11 8.258 11 7.5v-7C11 0.224 11.224 0 11.5 0S12 0.224 12 0.5v7c0 1.023-0.36 2.003-0.995 2.798L15 14.293V1.875c0-0.843 0.523-1.546 1.333-1.792 0.8-0.244 1.614 0.048 2.075 0.738 1.288 1.929 2.591 5.277 2.591 7.945 0 3.457-1.713 6.374-3.235 8.292l6.089 6.089c0.195 0.195 0.195 0.512 1e-3 0.707zM16 15.293l1.053 1.053C18.456 14.555 20 11.885 20 8.766c0-2.442-1.249-5.63-2.423-7.389-0.256-0.384-0.659-0.425-0.953-0.337C16.323 1.132 16 1.399 16 1.875z" />
</svg>