<svg id="utility_pole_double_Layer_1" viewBox="0 0 24 24" fill="currentColor" width="32" height="32" data-name="Layer 1" xmlns="http://www.w3.org/2000/svg" xmlns:xlink="http://www.w3.org/1999/xlink">
    <title>utility-pole-double</title>
    <path d="M12.5 3H22c1.103 0 2-0.897 2-2V0.5C24 0.224 23.776 0 23.5 0S23 0.224 23 0.5V1c0 0.551-0.448 1-1 1h-2V0.5C20 0.224 19.776 0 19.5 0S19 0.224 19 0.5V2h-6.5V0.5C12.5 0.224 12.276 0 12 0s-0.5 0.224-0.5 0.5V2H5V0.5C5 0.224 4.776 0 4.5 0S4 0.224 4 0.5V2H2C1.449 2 1 1.551 1 1V0.5C1 0.224 0.776 0 0.5 0S0 0.224 0 0.5V1c0 1.103 0.897 2 2 2h9.5v4H5V5.5C5 5.224 4.776 5 4.5 5S4 5.224 4 5.5V7H2C1.449 7 1 6.551 1 6V5.5C1 5.224 0.776 5 0.5 5S0 5.224 0 5.5V6c0 1.103 0.897 2 2 2h2.293l7.207 7.207V23.5c0 0.276 0.224 0.5 0.5 0.5s0.5-0.224 0.5-0.5v-8.293L19.707 8H22c1.103 0 2-0.897 2-2V5.5C24 5.224 23.776 5 23.5 5S23 5.224 23 5.5V6c0 0.551-0.448 1-1 1h-2V5.5C20 5.224 19.776 5 19.5 5S19 5.224 19 5.5V7h-6.5zM5.707 8H11.5v5.793zM18.293 8 12.5 13.793V8z" />
</svg>