<svg id="ux_browser_Layer_1" viewBox="0 0 24 24" fill="currentColor" width="32" height="32" data-name="Layer 1" xmlns="http://www.w3.org/2000/svg" xmlns:xlink="http://www.w3.org/1999/xlink">
    <title>ux-browser</title>
    <path d="M19.5 1h-15C2.019 1 0 3.019 0 5.5v13C0 20.981 2.019 23 4.5 23h15c2.481 0 4.5-2.019 4.5-4.5v-13C24 3.019 21.981 1 19.5 1zM4.5 2h15C21.43 2 23 3.57 23 5.5V8H1V5.5C1 3.57 2.57 2 4.5 2zM19.5 22h-15C2.57 22 1 20.43 1 18.5V9h22v9.5c0 1.93-1.57 3.5-3.5 3.5zM3 5c0-0.552 0.448-1 1-1s1 0.448 1 1-0.448 1-1 1-1-0.448-1-1zM6 5c0-0.552 0.448-1 1-1s1 0.448 1 1-0.448 1-1 1-1-0.448-1-1zM9 5c0-0.552 0.448-1 1-1s1 0.448 1 1-0.448 1-1 1-1-0.448-1-1zM17 12.5v7c0 0.276-0.224 0.5-0.5 0.5S16 19.776 16 19.5v-7c0-0.276 0.224-0.5 0.5-0.5s0.5 0.224 0.5 0.5zM13 12.5V17c0 1.654-1.346 3-3 3s-3-1.346-3-3v-4.5C7 12.224 7.224 12 7.5 12S8 12.224 8 12.5V17c0 1.103 0.897 2 2 2s2-0.897 2-2v-4.5c0-0.276 0.224-0.5 0.5-0.5s0.5 0.224 0.5 0.5z" />
</svg>