<svg id="vacuum_Layer_1" viewBox="0 0 24 24" fill="currentColor" width="32" height="32" data-name="Layer 1" xmlns="http://www.w3.org/2000/svg" xmlns:xlink="http://www.w3.org/1999/xlink">
    <title>vacuum</title>
    <path d="M23.5 16c0.276 0 0.5-0.224 0.5-0.5v-1.75c0-3.468-2.63-6.331-6-6.706V5.341C18 2.396 15.604 0 12.659 0 10.001 0 7.78 1.908 7.38 4.537L4.7 22.149C4.625 22.642 4.209 23 3.711 23H0.5C0.224 23 0 23.224 0 23.5S0.224 24 0.5 24h3.211c0.995 0 1.827-0.715 1.978-1.699l2.68-17.613C8.695 2.551 10.499 1 12.66 1c2.394 0 4.341 1.947 4.341 4.341V7h-1.5c-1.379 0-2.5 1.121-2.5 2.5v12c0 1.379 1.121 2.5 2.5 2.5h5.423c1.729-0.211 3.077-1.715 3.077-3.5 0-1.93-1.57-3.5-3.5-3.5s-3.5 1.57-3.5 3.5c0 0.98 0.407 1.864 1.058 2.5h-2.558c-0.827 0-1.5-0.673-1.5-1.5v-12c0-0.827 0.673-1.5 1.5-1.5h1.75c3.171 0 5.75 2.579 5.75 5.75v1.75c0 0.276 0.224 0.5 0.499 0.5zM18 20.5c0-1.379 1.121-2.5 2.5-2.5s2.5 1.121 2.5 2.5-1.121 2.5-2.5 2.5-2.5-1.121-2.5-2.5z" />
</svg>