<svg id="vacuum_cleaner_Layer_1" viewBox="0 0 24 24" fill="currentColor" width="32" height="32" data-name="Layer 1" xmlns="http://www.w3.org/2000/svg" xmlns:xlink="http://www.w3.org/1999/xlink">
    <title>vacuum-cleaner</title>
    <path d="M23.5 0h-0.201c-1.731 0-3.328 1.011-4.068 2.576l-1.139 2.409-1.281-0.627c-0.848-0.415-1.808-0.472-2.699-0.159-0.892 0.313-1.604 0.957-2.006 1.811l-1.771 3.759c-0.805 1.706-0.086 3.779 1.601 4.623l1.38 0.69-1.384 2.926c-0.855 0.02-1.617 0.4-2.152 0.993H3.5c-1.93 0-3.5 1.57-3.5 3.5 0 0.603 0.399 1.5 1.5 1.5h6.037C7.795 23.981 8 23.764 8 23.501c0-0.276-0.224-0.5-0.5-0.5h-6c-0.402 0-0.494-0.275-0.5-0.5 0-1.378 1.121-2.5 2.5-2.5h5.684C9.072 20.315 9 20.649 9 21.001c0 1.654 1.346 3 3 3s3-1.346 3-3c0-1.317-0.858-2.425-2.04-2.828l7.174-15.169c0.575-1.217 1.817-2.003 3.164-2.003h0.201c0.276 0 0.5-0.224 0.5-0.5S23.775 1e-3 23.5 0zM14 21c0 1.103-0.897 2-2 2s-2-0.897-2-2 0.897-2 2-2 2 0.897 2 2zM13.744 14.176l-1.361-0.68c-1.205-0.603-1.718-2.083-1.144-3.302l1.771-3.759c0.287-0.61 0.796-1.069 1.433-1.293 0.639-0.224 1.322-0.184 1.929 0.113l1.293 0.633z" />
</svg>