<svg id="vacuum_robot_Layer_1" viewBox="0 0 24 24" fill="currentColor" width="32" height="32" data-name="Layer 1" xmlns="http://www.w3.org/2000/svg" xmlns:xlink="http://www.w3.org/1999/xlink">
    <title>vacuum-robot</title>
    <path d="M23.854 0.854c0.195-0.195 0.195-0.512 0-0.707s-0.512-0.195-0.707 0l-3.035 3.035C17.974 1.213 15.13 0 12.001 0S6.028 1.214 3.889 3.182L0.854 0.146c-0.196-0.195-0.512-0.195-0.708 0s-0.195 0.512 0 0.708L3.182 3.89C1.214 6.028 0 8.871 0 12c0 6.617 5.383 12 12 12s12-5.383 12-12c0-3.129-1.213-5.973-3.182-8.111zM16 1.764v5.267C15.088 5.806 13.641 5 12 5S8.912 5.806 8 7.031V1.764C9.242 1.277 10.588 1 12 1s2.758 0.277 4 0.764zM16 10c0 2.206-1.794 4-4 4s-4-1.794-4-4 1.794-4 4-4 4 1.794 4 4zM12 23C5.935 23 1 18.065 1 12 1 7.736 3.444 4.039 7 2.214V10c0 2.757 2.243 5 5 5s5-2.243 5-5V2.214c3.556 1.825 6 5.521 6 9.786 0 6.065-4.935 11-11 11z" />
</svg>