<svg id="value_absolute_Layer_1" viewBox="0 0 24 24" fill="currentColor" width="32" height="32" data-name="Layer 1" xmlns="http://www.w3.org/2000/svg" xmlns:xlink="http://www.w3.org/1999/xlink">
    <title>value-absolute</title>
    <path d="M17.854 6.854 12.708 12l5.146 5.146c0.195 0.195 0.195 0.512 0 0.707-0.098 0.098-0.226 0.146-0.354 0.146s-0.256-0.049-0.354-0.146L12 12.707 6.854 17.853c-0.098 0.098-0.226 0.146-0.354 0.146s-0.256-0.049-0.354-0.146c-0.195-0.195-0.195-0.512 0-0.707L11.292 12 6.146 6.854c-0.195-0.195-0.195-0.512 0-0.707s0.512-0.195 0.707 0l5.146 5.146 5.146-5.146c0.195-0.195 0.512-0.195 0.707 0s0.195 0.512 2e-3 0.707zM0.5 0C0.224 0 0 0.224 0 0.5v23C0 23.776 0.224 24 0.5 24S1 23.776 1 23.5v-23C1 0.224 0.776 0 0.5 0zM23.5 0C23.224 0 23 0.224 23 0.5v23c0 0.276 0.224 0.5 0.5 0.5s0.5-0.224 0.5-0.5v-23C24 0.224 23.776 0 23.5 0z" />
</svg>