<svg id="van_front_Layer_1" viewBox="0 0 24 24" fill="currentColor" width="32" height="32" data-name="Layer 1" xmlns="http://www.w3.org/2000/svg" xmlns:xlink="http://www.w3.org/1999/xlink">
    <title>van-front</title>
    <path d="M22.5 10h-0.819l-0.447-5.583c-0.167-2.104-1.811-3.83-3.905-4.105C15.75 0.105 13.957 0 12 0S8.247 0.105 6.661 0.312C4.539 0.591 2.933 2.274 2.757 4.403L2.29 10H1.5C0.673 10 0 10.673 0 11.5V12c0 1.103 0.897 2 2 2v7.5C2 22.879 3.121 24 4.5 24S7 22.879 7 21.5V21h10v0.5c0 1.379 1.121 2.5 2.5 2.5s2.5-1.121 2.5-2.5V14c1.103 0 2-0.897 2-2v-0.5c0-0.827-0.673-1.5-1.5-1.5zM6.791 1.305C8.334 1.103 10.086 1 12 1s3.662 0.103 5.198 0.304c1.631 0.214 2.909 1.557 3.04 3.193L20.918 13H3.043l0.71-8.514C3.891 2.83 5.141 1.521 6.791 1.305zM1 12v-0.5C1 11.225 1.225 11 1.5 11h0.707L2.04 13H2c-0.552 0-1-0.448-1-1zM6 14v1.5C6 15.776 6.224 16 6.5 16S7 15.776 7 15.5V14h10v1.5c0 0.276 0.224 0.5 0.5 0.5s0.5-0.224 0.5-0.5V14h2.999v0.016c0 0 1e-3 5.984 1e-3 5.984H3v-6zM6 21.5C6 22.327 5.327 23 4.5 23S3 22.327 3 21.5V21h3zM19.5 23c-0.827 0-1.5-0.673-1.5-1.5V21h3v0.5c0 0.827-0.673 1.5-1.5 1.5zM23 12c0 0.552-0.448 1-1 1h-0.079l-0.16-2H22.5c0.275 0 0.5 0.225 0.5 0.5z" />
</svg>