<svg id="vector_polygon_Layer_1" viewBox="0 0 24 24" fill="currentColor" width="32" height="32" data-name="Layer 1" xmlns="http://www.w3.org/2000/svg" xmlns:xlink="http://www.w3.org/1999/xlink">
    <title>vector-polygon</title>
    <path d="M20 6h2c1.103 0 2-0.897 2-2V2c0-1.103-0.897-2-2-2h-2c-1.103 0-2 0.897-2 2H6c0-1.103-0.897-2-2-2H2C0.897 0 0 0.897 0 2v2c0 1.103 0.897 2 2 2v12c-1.103 0-2 0.897-2 2v2c0 1.103 0.897 2 2 2h2c1.103 0 2-0.897 2-2h12c0 1.103 0.897 2 2 2h2c1.103 0 2-0.897 2-2v-2c0-1.103-0.897-2-2-2h-2c-0.237 0-0.464 0.042-0.675 0.118l-3.812-3.812C15.816 13.955 16 13.499 16 13v-2c0-0.499-0.184-0.955-0.487-1.306l3.812-3.812C19.536 5.958 19.763 6 20 6zM19 2c0-0.551 0.449-1 1-1h2c0.551 0 1 0.449 1 1v2c0 0.551-0.449 1-1 1h-2c-0.551 0-1-0.449-1-1zM1 4V2c0-0.551 0.449-1 1-1h2c0.551 0 1 0.449 1 1v2c0 0.551-0.449 1-1 1H2C1.449 5 1 4.551 1 4zM5 22c0 0.551-0.449 1-1 1H2c-0.551 0-1-0.449-1-1v-2c0-0.551 0.449-1 1-1h2c0.551 0 1 0.449 1 1zM6 21v-1c0-1.103-0.897-2-2-2H3V6h1c1.103 0 2-0.897 2-2V3h12v1c0 0.499 0.184 0.955 0.487 1.306l-3.812 3.812C14.464 9.042 14.237 9 14 9h-2c-1.103 0-2 0.897-2 2v2c0 1.103 0.897 2 2 2h2c0.237 0 0.464-0.042 0.675-0.118l3.812 3.812C18.184 19.045 18 19.501 18 20v1zM15 11v2c0 0.551-0.449 1-1 1h-2c-0.551 0-1-0.449-1-1v-2c0-0.551 0.449-1 1-1h2c0.551 0 1 0.449 1 1zM22 19c0.551 0 1 0.449 1 1v2c0 0.551-0.449 1-1 1h-2c-0.551 0-1-0.449-1-1v-2c0-0.551 0.449-1 1-1z" />
</svg>