<svg id="vector_circle_Layer_1" viewBox="0 0 24 24" fill="currentColor" width="32" height="32" data-name="Layer 1" xmlns="http://www.w3.org/2000/svg" xmlns:xlink="http://www.w3.org/1999/xlink">
    <title>vector-circle</title>
    <path d="M22.053 9.001c-1.011-3.396-3.666-6.055-7.054-7.065-0.034-1.074-0.917-1.937-1.998-1.937h-2c-1.082 0-1.965 0.863-1.998 1.937-3.388 1.01-6.044 3.669-7.054 7.065C0.87 9.029 2e-3 9.914 2e-3 11v2c0 1.085 0.869 1.971 1.947 1.999 1.011 3.396 3.666 6.055 7.054 7.065 0.034 1.074 0.917 1.937 1.998 1.937h2c1.082 0 1.965-0.863 1.998-1.937 3.388-1.01 6.044-3.669 7.054-7.065C23.132 14.971 24 14.086 24 13v-2c0-1.085-0.869-1.971-1.947-1.999zM10 2c0-0.551 0.449-1 1-1h2c0.551 0 1 0.449 1 1v2c0 0.551-0.449 1-1 1h-2c-0.551 0-1-0.449-1-1zM1 13v-2c0-0.551 0.449-1 1-1h2c0.551 0 1 0.449 1 1v2c0 0.551-0.449 1-1 1H2c-0.551 0-1-0.449-1-1zM14 22c0 0.551-0.449 1-1 1h-2c-0.551 0-1-0.449-1-1v-2c0-0.551 0.449-1 1-1h2c0.551 0 1 0.449 1 1zM15 21.015V20c0-1.103-0.897-2-2-2h-2c-1.103 0-2 0.897-2 2v1.015C6.167 20.071 3.94 17.84 2.996 15H4c1.103 0 2-0.897 2-2v-2c0-1.103-0.897-2-2-2H2.996C3.939 6.16 6.167 3.929 9 2.985V4c0 1.103 0.897 2 2 2h2c1.103 0 2-0.897 2-2V2.985C17.833 3.929 20.06 6.16 21.004 9H20c-1.103 0-2 0.897-2 2v2c0 1.103 0.897 2 2 2h1.004c-0.943 2.84-3.171 5.071-6.004 6.015zM23 13c0 0.551-0.449 1-1 1h-2c-0.551 0-1-0.449-1-1v-2c0-0.551 0.449-1 1-1h2c0.551 0 1 0.449 1 1z" />
</svg>