<svg id="venus_double_Layer_1" viewBox="0 0 24 24" fill="currentColor" width="32" height="32" data-name="Layer 1" xmlns="http://www.w3.org/2000/svg" xmlns:xlink="http://www.w3.org/1999/xlink">
    <title>venus-double</title>
    <path d="M21.5 19H18v-5.072c3.387-0.487 6-3.408 6-6.928 0-3.86-3.141-7-7-7-1.955 0-3.726 0.806-4.997 2.104C10.69 0.76 8.896 0 7 0 3.14 0 0 3.14 0 7c0 3.52 2.612 6.442 6 6.928V19H2.5C2.224 19 2 19.224 2 19.5S2.224 20 2.5 20H6v3.5C6 23.776 6.224 24 6.5 24S7 23.776 7 23.5V20h3.5c0.276 0 0.5-0.224 0.5-0.5S10.776 19 10.5 19H7v-5c1.896 0 3.69-0.76 5.003-2.104C13.274 13.193 15.045 14 17 14v5h-3.5c-0.276 0-0.5 0.224-0.5 0.5s0.224 0.5 0.5 0.5H17v3.5c0 0.276 0.224 0.5 0.5 0.5s0.5-0.224 0.5-0.5V20h3.5c0.276 0 0.5-0.224 0.5-0.5S21.776 19 21.5 19zM7 13c-3.309 0-6-2.691-6-6s2.691-6 6-6c1.656 0 3.22 0.677 4.352 1.87C10.503 4.029 10 5.456 10 7s0.502 2.971 1.352 4.13C10.221 12.323 8.657 13 7 13zM11 7c0-3.309 2.691-6 6-6s6 2.691 6 6-2.691 6-6 6-6-2.691-6-6z" />
</svg>