<svg id="venus_Layer_1" viewBox="0 0 24 24" fill="currentColor" width="32" height="32" data-name="Layer 1" xmlns="http://www.w3.org/2000/svg" xmlns:xlink="http://www.w3.org/1999/xlink">
    <title>venus</title>
    <path d="M20 8c0-4.411-3.589-8-8-8S4 3.589 4 8c0 4.243 3.321 7.725 7.5 7.984V20h-3C8.224 20 8 20.224 8 20.5S8.224 21 8.5 21h3v2.5c0 0.276 0.224 0.5 0.5 0.5s0.5-0.224 0.5-0.5V21h3c0.276 0 0.5-0.224 0.5-0.5S15.776 20 15.5 20h-3v-4.016C16.679 15.725 20 12.243 20 8zM5 8c0-3.859 3.14-7 7-7s7 3.141 7 7-3.14 7-7 7-7-3.141-7-7z" />
</svg>