<svg id="vest_patches_Layer_1" viewBox="0 0 24 24" fill="currentColor" width="32" height="32" data-name="Layer 1" xmlns="http://www.w3.org/2000/svg" xmlns:xlink="http://www.w3.org/1999/xlink">
    <title>vest-patches</title>
    <path d="M22.209 10.788C21.43 9.659 21 8.669 21 8V4.565c0-2.307-1.718-4.229-3.997-4.472C16.917 0.084 16.256 0 15.5 0h-7C7.897 0 7.083 0.084 6.997 0.093 4.718 0.336 3 2.259 3 4.565V8c0 0.669-0.43 1.659-1.209 2.788C1.273 11.537 1 12.417 1 13.334V19.5C1 21.981 3.019 24 5.5 24h13c2.481 0 4.5-2.019 4.5-4.5v-6.166c0-0.917-0.273-1.797-0.791-2.546zM11.5 23h-6C3.57 23 2 21.43 2 19.5v-6.166c0-0.713 0.212-1.397 0.613-1.978C3.246 10.44 4 9.115 4 8V4.565c0-1.794 1.334-3.289 3.103-3.478l0.087-9e-3 4.311 11.016zM8.235 1.006C8.401 1 8.498 1 8.5 1h7c0 0 0.099 0 0.265 6e-3L12 10.628zM22 19.5c0 1.93-1.57 3.5-3.5 3.5h-6V12.095l4.311-11.017 0.087 9e-3c1.769 0.189 3.103 1.684 3.103 3.478V8c0 1.115 0.754 2.441 1.387 3.356 0.401 0.581 0.613 1.265 0.613 1.978zM5 12.2v1.6C5 14.462 5.538 15 6.2 15h1.6C8.462 15 9 14.461 9 13.8v-1.6C9 11.538 8.462 11 7.8 11H6.2C5.538 11 5 11.539 5 12.2zM8 12.2v1.6C8 13.91 7.91 14 7.8 14H6.2C6.09 14 6 13.91 6 13.8v-1.6C6 12.09 6.09 12 6.2 12h1.6C7.91 12 8 12.09 8 12.2zM18.611 11.595c-0.498-0.745-1.725-0.745-2.223 0l-1.17 1.755c-0.218 0.326-0.238 0.744-0.053 1.089C15.35 14.785 15.709 15 16.102 15h2.795c0.393 0 0.752-0.215 0.937-0.561 0.186-0.346 0.165-0.763-0.053-1.089zM18.897 14l-2.85-0.033c-0.018-0.032-3e-3-0.054 3e-3-0.062l1.17-1.755c0.09-0.135 0.226-0.149 0.279-0.149s0.189 0.015 0.279 0.149l1.17 1.755zM7 17c-1.103 0-2 0.897-2 2s0.897 2 2 2 2-0.897 2-2-0.897-2-2-2zM7 20c-0.552 0-1-0.449-1-1s0.448-1 1-1 1 0.449 1 1-0.448 1-1 1z" />
</svg>