<svg id="vest_Layer_1" viewBox="0 0 24 24" fill="currentColor" width="32" height="32" data-name="Layer 1" xmlns="http://www.w3.org/2000/svg" xmlns:xlink="http://www.w3.org/1999/xlink">
    <title>vest</title>
    <path d="M22.209 10.788C21.43 9.659 21 8.669 21 8V4.565c0-2.307-1.718-4.229-3.997-4.472C16.14 1e-3 15.525 0 15.5 0h-7C8.475 0 7.86 0 6.997 0.093 4.718 0.336 3 2.259 3 4.565V8c0 0.669-0.43 1.659-1.209 2.788C1.273 11.537 1 12.417 1 13.334V19.5C1 21.981 3.019 24 5.5 24h13c2.481 0 4.5-2.019 4.5-4.5v-6.166c0-0.917-0.273-1.797-0.791-2.546zM8.5 1h7c0 0 0.173 0 0.454 0.014l-3.959 9.676-3.949-9.676C8.327 1 8.497 1 8.5 1zM11.5 23h-6C3.57 23 2 21.43 2 19.5V17h4.5C6.776 17 7 16.776 7 16.5S6.776 16 6.5 16H2v-2.666c0-0.713 0.212-1.397 0.613-1.978C3.246 10.44 4 9.115 4 8V4.565C4 2.803 5.288 1.33 7.01 1.099c6e-3 0.03 4.49 10.999 4.49 10.999zM22 16h-4.5c-0.276 0-0.5 0.224-0.5 0.5s0.224 0.5 0.5 0.5H22v2.5c0 1.93-1.57 3.5-3.5 3.5h-6V12.099c0 0 4.484-10.969 4.49-11C18.712 1.329 20 2.802 20 4.565V8c0 1.115 0.754 2.441 1.387 3.356C21.788 11.937 22 12.621 22 13.334z" />
</svg>