<svg id="video_camera_Layer_1" viewBox="0 0 24 24" fill="currentColor" width="32" height="32" data-name="Layer 1" xmlns="http://www.w3.org/2000/svg" xmlns:xlink="http://www.w3.org/1999/xlink">
    <title>video-camera</title>
    <path d="M23.085 8.683c-0.579-0.291-1.262-0.23-1.806 0.174l-1.333 1.117C19.682 7.743 17.8 6 15.499 6h-0.793l-3.682-3.682C10.174 1.468 9.045 1 7.842 1H0.5C0.224 1 0 1.224 0 1.5S0.224 2 0.5 2h7.343c0.935 0 1.813 0.364 2.475 1.025L13.293 6H4.5C2.019 6 0 8.019 0 10.5v9C0 21.981 2.019 24 4.5 24h11c2.301 0 4.182-1.742 4.447-3.974l1.356 1.135c0.298 0.221 0.649 0.338 1.017 0.338 0.264 0 0.529-0.063 0.766-0.182 0.58-0.291 0.939-0.874 0.939-1.523v-9.589c0-0.649-0.36-1.232-0.94-1.522zM19 19.5c0 1.93-1.57 3.5-3.5 3.5h-11C2.57 23 1 21.43 1 19.5v-9C1 8.57 2.57 7 4.5 7h11c1.93 0 3.5 1.57 3.5 3.5zM23.024 19.795c0 0.268-0.148 0.509-0.388 0.629-0.234 0.118-0.54 0.081-0.714-0.047L20 18.766v-7.533l1.9-1.592c0.214-0.161 0.496-0.186 0.737-0.064 0.239 0.12 0.387 0.36 0.387 0.628z" />
</svg>