<svg id="video_slash_Layer_1" viewBox="0 0 24 24" fill="currentColor" width="32" height="32" data-name="Layer 1" xmlns="http://www.w3.org/2000/svg" xmlns:xlink="http://www.w3.org/1999/xlink">
    <title>video-slash</title>
    <path d="M15.984 19.25c0.068 0.268-0.093 0.54-0.36 0.609-0.365 0.094-0.744 0.142-1.124 0.142h-10c-2.481 0-4.5-2.019-4.5-4.5v-7c0-1.098 0.399-2.155 1.125-2.977 0.184-0.207 0.5-0.226 0.706-0.044 0.207 0.183 0.227 0.499 0.044 0.706C1.311 6.825 1 7.647 1 8.5v7C1 17.43 2.57 19 4.5 19h10c0.296 0 0.591-0.037 0.876-0.11 0.264-0.07 0.54 0.093 0.608 0.36zM19 15.5c0 0.777-0.203 1.539-0.583 2.21l5.436 5.436c0.195 0.195 0.195 0.512 0 0.707-0.098 0.098-0.226 0.146-0.354 0.146s-0.256-0.049-0.354-0.146L0.146 0.854c-0.195-0.196-0.195-0.512 0-0.708s0.512-0.195 0.708 0L4.708 4H14.5C16.981 4 19 6.019 19 8.5v0.156l2.28-2.301c0.562-0.428 1.232-0.489 1.799-0.205C23.647 6.434 24 7.004 24 7.639v8.666c0 0.635-0.353 1.206-0.921 1.489-0.237 0.119-0.493 0.177-0.746 0.177-0.353 0-0.702-0.113-0.997-0.334L19 15.31zM19 10.077v3.82l2.989 2.986c0.152 0.109 0.414 0.133 0.643 0.017 0.23-0.115 0.368-0.337 0.368-0.595V7.64c0-0.257-0.138-0.48-0.368-0.595-0.229-0.116-0.49-0.091-0.696 0.062zM17.672 16.965C17.883 16.508 18 16.009 18 15.5v-7C18 6.57 16.43 5 14.5 5H5.707z" />
</svg>