<svg id="video_arrow_up_right_Layer_1" viewBox="0 0 24 24" fill="currentColor" width="32" height="32" data-name="Layer 1" xmlns="http://www.w3.org/2000/svg" xmlns:xlink="http://www.w3.org/1999/xlink">
    <title>video-arrow-up-right</title>
    <path d="M15 10.5v4c0 0.276-0.224 0.5-0.5 0.5S14 14.776 14 14.5v-4c0-0.231-0.057-0.447-0.15-0.643l-5.996 5.996c-0.098 0.098-0.226 0.146-0.354 0.146s-0.256-0.049-0.354-0.146c-0.195-0.195-0.195-0.512 0-0.707l5.996-5.996C12.946 9.056 12.73 9 12.499 9h-4c-0.276 0-0.5-0.224-0.5-0.5S8.223 8 8.499 8h4c1.378 0 2.5 1.122 2.501 2.5zM24 7.64v8.666c0 0.635-0.353 1.206-0.92 1.489-0.238 0.119-0.493 0.177-0.747 0.177-0.353 0-0.702-0.113-0.997-0.334L19 15.311v0.19c0 2.481-2.019 4.5-4.5 4.5h-10c-2.481 0-4.5-2.019-4.5-4.5v-7c0-2.481 2.019-4.5 4.5-4.5h10c2.481 0 4.5 2.019 4.5 4.5v0.157l2.281-2.301c0.563-0.428 1.23-0.489 1.799-0.205C23.648 6.436 24 7.006 24 7.64zM18 8.5C18 6.57 16.43 5 14.5 5h-10C2.57 5 1 6.57 1 8.5v7C1 17.43 2.57 19 4.5 19h10c1.93 0 3.5-1.57 3.5-3.5zM23 7.64c0-0.257-0.138-0.48-0.368-0.595s-0.491-0.091-0.697 0.062l-2.936 2.97v3.821l2.989 2.986c0.152 0.108 0.412 0.133 0.643 0.017 0.23-0.115 0.368-0.337 0.368-0.595z" />
</svg>