<svg id="videoconference_Layer_1" viewBox="0 0 24 24" fill="currentColor" width="32" height="32" data-name="Layer 1" xmlns="http://www.w3.org/2000/svg" xmlns:xlink="http://www.w3.org/1999/xlink">
    <title>videoconference</title>
    <path d="M13.01 17.398C13.298 16.008 14.555 15 16 15s2.702 1.009 2.99 2.398c0.056 0.271-0.22 0.545-0.49 0.602-0.232 0-0.441-0.163-0.49-0.398C17.818 16.674 16.972 16 16 16s-1.818 0.673-2.01 1.602c-0.056 0.27-0.322 0.439-0.591 0.388-0.27-0.056-0.444-0.321-0.389-0.592zM8 14c-1.103 0-2-0.897-2-2s0.897-2 2-2 2 0.897 2 2-0.897 2-2 2zM8 13c0.551 0 1-0.449 1-1s-0.449-1-1-1-1 0.449-1 1 0.449 1 1 1zM16 14c-1.103 0-2-0.897-2-2s0.897-2 2-2 2 0.897 2 2-0.897 2-2 2zM16 13c0.551 0 1-0.449 1-1s-0.449-1-1-1-1 0.449-1 1 0.449 1 1 1zM18.5 18c-0.034 7e-3 0.034 0 0 0zM10.99 17.398C10.702 16.008 9.445 15 8 15s-2.702 1.009-2.99 2.398c-0.056 0.271 0.118 0.535 0.388 0.591 0.266 0.051 0.535-0.119 0.591-0.388 0.192-0.928 1.038-1.602 2.01-1.602s1.818 0.673 2.01 1.602c0.049 0.236 0.258 0.398 0.49 0.398 0.27-0.056 0.545-0.331 0.491-0.601zM10.5 18c-0.034 7e-3 0.034 0 0 0zM24 2.592v2.815c0 1.429-1.071 2.592-2.5 2.592-0.116 0-0.417 0.041-0.506 0.115l-1.375 1.138c-0.186 0.165-0.423 0.249-0.662 0.249-0.244 0-0.489-0.086-0.685-0.26l-1.361-1.126C16.822 8.041 16.708 8 16.592 8 15.163 8 14 6.837 14 5.408V2.593c0-1.429 1.163-2.592 2.592-2.592h4.815c1.429 0 2.592 1.163 2.593 2.591zM23 2.592C23 1.714 22.286 1 21.408 1h-4.815c-0.878 0-1.592 0.714-1.592 1.592v2.815c0 0.878 0.714 1.592 1.592 1.592 0.348 0 0.688 0.122 0.956 0.344l1.375 1.138 1.433-1.138c0.268-0.222 0.795-0.344 1.144-0.344 0.878 0 1.5-0.714 1.5-1.592zM24 21.5c0 1.378-1.122 2.5-2.5 2.5h-19C1.122 24 0 22.878 0 21.5c0-1.207 0.86-2.217 2-2.45V10.5C2 8.019 4.019 6 6.5 6h5C11.776 6 12 6.224 12 6.5S11.776 7 11.5 7h-5C4.57 7 3 8.57 3 10.5V19h5.5c0.133 0 0.26 0.053 0.354 0.146L9.708 20h4.586l0.854-0.854C15.242 19.052 15.369 19 15.502 19h5.5v-7.5c0-0.276 0.224-0.5 0.5-0.5s0.5 0.224 0.5 0.5v7.55c1.14 0.232 2 1.242 1.998 2.45zM23 21.5c0-0.827-0.673-1.5-1.5-1.5h-5.793l-0.854 0.854C14.759 20.948 14.632 21 14.499 21h-5c-0.133 0-0.26-0.053-0.354-0.146L8.291 20H2.5C1.673 20 1 20.673 1 21.5S1.673 23 2.5 23h19c0.827 0 1.5-0.673 1.5-1.5z" />
</svg>