<svg id="video_arrow_down_left_Layer_1" viewBox="0 0 24 24" fill="currentColor" width="32" height="32" data-name="Layer 1" xmlns="http://www.w3.org/2000/svg" xmlns:xlink="http://www.w3.org/1999/xlink">
    <title>video-arrow-down-left</title>
    <path d="M11.854 8.146c0.195 0.195 0.195 0.512 0 0.707l-5.996 5.996c0.196 0.094 0.412 0.15 0.643 0.15h4c0.276 0 0.5 0.224 0.5 0.5s-0.224 0.5-0.5 0.5H6.5c-1.378 0-2.5-1.122-2.5-2.5v-4c0-0.276 0.224-0.5 0.5-0.5S5 9.223 5 9.499v4c0 0.231 0.057 0.447 0.15 0.643l5.996-5.996c0.195-0.195 0.512-0.195 0.708 0zM24 7.639v8.666c0 0.635-0.353 1.206-0.92 1.489-0.238 0.119-0.493 0.177-0.747 0.177-0.353 0-0.702-0.113-0.997-0.334L19 15.31v0.19c0 2.481-2.019 4.5-4.5 4.5h-10C2.019 20 0 17.981 0 15.5v-7C0 6.019 2.019 4 4.5 4h10C16.981 4 19 6.019 19 8.5v0.157l2.281-2.301c0.563-0.428 1.23-0.489 1.799-0.205C23.648 6.435 24 7.005 24 7.639zM18 8.499c0-1.93-1.57-3.5-3.5-3.5h-10c-1.93 0-3.5 1.57-3.5 3.5v7c0 1.93 1.57 3.5 3.5 3.5h10c1.93 0 3.5-1.57 3.5-3.5zM23 7.639c0-0.257-0.138-0.48-0.368-0.595s-0.491-0.091-0.697 0.062l-2.936 2.97v3.821l2.989 2.986c0.152 0.108 0.412 0.133 0.643 0.017 0.23-0.115 0.368-0.337 0.368-0.595z" />
</svg>