<svg id="video_folder_Layer_1" viewBox="0 0 24 24" fill="currentColor" width="32" height="32" data-name="Layer 1" xmlns="http://www.w3.org/2000/svg" xmlns:xlink="http://www.w3.org/1999/xlink">
    <title>video-folder</title>
    <path d="M15.923 9.743c0.582 0.341 1.275 0.341 1.864 9e-3l5.263-3.128C23.645 6.29 24 5.682 24 5s-0.355-1.289-0.939-1.618l-5.285-3.139c-0.586-0.33-1.278-0.322-1.854 0.015-0.578 0.338-0.923 0.939-0.923 1.608v6.269c0 0.669 0.345 1.27 0.924 1.608zM16 1.866c-0.012-0.467 0.405-0.873 0.866-0.865 0.143 0 0.283 0.036 0.409 0.107l5.284 3.141c0.275 0.155 0.44 0.436 0.44 0.752s-0.165 0.597-0.451 0.758l-5.263 3.129c-0.271 0.152-0.593 0.149-0.858-7e-3-0.268-0.157-0.428-0.435-0.428-0.745zM11.778 14.482C11.387 13.611 10.515 13 9.5 13h-4C4.122 13 3 14.122 3 15.5v3C3 19.878 4.122 21 5.5 21h4c1.015 0 1.888-0.611 2.279-1.482l0.949 0.702c0.251 0.186 0.548 0.28 0.846 0.28 0.765 0.013 1.444-0.656 1.427-1.427v-4.146c0-0.541-0.3-1.028-0.783-1.272-0.482-0.244-1.054-0.196-1.49 0.126zM9.5 20h-4C4.673 20 4 19.327 4 18.5v-3C4 14.673 4.673 14 5.5 14h4c0.827 0 1.5 0.673 1.5 1.5v3c0 0.827-0.673 1.5-1.5 1.5zM13.767 14.547C13.837 14.582 14 14.69 14 14.926v4.146c0 0.236-0.163 0.344-0.233 0.38-0.071 0.035-0.257 0.101-0.445-0.038l-1.321-0.977v-2.876l1.321-0.977c0.191-0.142 0.375-0.073 0.445-0.037zM24 8.5v11c0 2.481-2.019 4.5-4.5 4.5h-15C2.019 24 0 21.981 0 19.5v-13C0 4.019 2.019 2 4.5 2h3.028C7.914 2 8.3 2.091 8.646 2.264l3.156 1.578C12.009 3.946 12.241 4 12.473 4c0.276 0 0.5 0.224 0.5 0.5S12.749 5 12.473 5c-0.386 0-0.772-0.091-1.118-0.264L8.199 3.158C7.992 3.054 7.76 3 7.528 3H4.5C2.57 3 1 4.57 1 6.5V8h11.5C12.776 8 13 8.224 13 8.5S12.776 9 12.5 9H1v10.5C1 21.43 2.57 23 4.5 23h15c1.93 0 3.5-1.57 3.5-3.5v-11C23 8.224 23.224 8 23.5 8S24 8.224 24 8.5z" />
</svg>