<svg id="video_duration_Layer_1" viewBox="0 0 24 24" fill="currentColor" width="32" height="32" data-name="Layer 1" xmlns="http://www.w3.org/2000/svg" xmlns:xlink="http://www.w3.org/1999/xlink">
    <title>video-duration</title>
    <path d="M9 18.5C9 18.776 8.776 19 8.5 19h-4C2.019 19 0 16.981 0 14.5v-10C0 2.019 2.019 0 4.5 0h14C20.981 0 23 2.019 23 4.5V10c0 0.276-0.224 0.5-0.5 0.5S22 10.276 22 10V4.5C22 2.57 20.43 1 18.5 1h-14C2.57 1 1 2.57 1 4.5v10C1 16.43 2.57 18 4.5 18h4C8.776 18 9 18.224 9 18.5zM24 17.5c0 3.584-2.916 6.5-6.5 6.5S11 21.084 11 17.5 13.916 11 17.5 11 24 13.916 24 17.5zM23 17.5c0-3.033-2.468-5.5-5.5-5.5S12 14.467 12 17.5 14.468 23 17.5 23 23 20.533 23 17.5zM18 17.293V14.5c0-0.276-0.224-0.5-0.5-0.5S17 14.224 17 14.5v3c0 0.133 0.053 0.26 0.146 0.354l2 2C19.244 19.952 19.372 20 19.5 20s0.256-0.049 0.354-0.146c0.195-0.195 0.195-0.512 0-0.707zM14.636 10.488l-4.138 2.298C10.241 12.929 9.961 13 9.681 13c-0.293 0-0.586-0.078-0.852-0.234C8.309 12.461 8 11.919 8 11.317V6.72c0-0.602 0.31-1.144 0.829-1.449 0.521-0.305 1.145-0.312 1.669-0.021l4.138 2.298c0.541 0.301 0.864 0.851 0.864 1.47s-0.323 1.169-0.864 1.47zM14.5 9.018c0-0.251-0.131-0.474-0.351-0.596l-4.138-2.298C9.906 6.065 9.793 6.036 9.68 6.036c-0.118 0-0.235 0.032-0.345 0.096-0.214 0.125-0.336 0.339-0.336 0.587v4.597c0 0.248 0.122 0.462 0.336 0.587s0.46 0.128 0.676 8e-3l4.138-2.298c0.22-0.122 0.351-0.345 0.351-0.595z" />
</svg>