<svg id="video_plus_Layer_1" viewBox="0 0 24 24" fill="currentColor" width="32" height="32" data-name="Layer 1" xmlns="http://www.w3.org/2000/svg" xmlns:xlink="http://www.w3.org/1999/xlink">
    <title>video-plus</title>
    <path d="M23.08 6.15c-0.568-0.285-1.236-0.223-1.799 0.205L19 8.656V8.499c0-2.481-2.019-4.5-4.5-4.5h-10C2.019 4 0 6.019 0 8.5v7C0 17.981 2.019 20 4.5 20h10c2.481 0 4.5-2.019 4.5-4.5v-0.19l2.336 2.327c0.295 0.222 0.645 0.334 0.997 0.334 0.253 0 0.509-0.058 0.747-0.177C23.648 17.51 24 16.94 24 16.305V7.64c0-0.635-0.353-1.206-0.92-1.49zM14.5 19h-10C2.57 19 1 17.43 1 15.5v-7C1 6.57 2.57 5 4.5 5h10C16.43 5 18 6.57 18 8.5v7c0 1.93-1.57 3.5-3.5 3.5zM23 16.305c0 0.257-0.138 0.48-0.368 0.595-0.231 0.117-0.491 0.092-0.643-0.017L19 13.897v-3.821l2.936-2.97c0.206-0.154 0.466-0.177 0.697-0.062 0.23 0.115 0.368 0.337 0.368 0.595zM13.5 12c0 0.276-0.224 0.5-0.5 0.5h-3v3c0 0.276-0.224 0.5-0.5 0.5S9 15.776 9 15.5v-3H6c-0.276 0-0.5-0.224-0.5-0.5s0.224-0.5 0.5-0.5h3v-3C9 8.224 9.224 8 9.5 8S10 8.224 10 8.5v3h3c0.276 0 0.5 0.224 0.5 0.5z" />
</svg>