<svg id="video_recording_Layer_1" viewBox="0 0 24 24" fill="currentColor" width="32" height="32" data-name="Layer 1" xmlns="http://www.w3.org/2000/svg" xmlns:xlink="http://www.w3.org/1999/xlink">
    <title>video-recording</title>
    <path d="M24 7.5v9c0 2.481-2.019 4.5-4.5 4.5h-15C2.019 21 0 18.981 0 16.5 0 16.224 0.224 16 0.5 16S1 16.224 1 16.5C1 18.43 2.57 20 4.5 20h15c1.93 0 3.5-1.57 3.5-3.5v-9C23 5.57 21.43 4 19.5 4h-15C2.57 4 1 5.57 1 7.5 1 7.776 0.776 8 0.5 8S0 7.776 0 7.5C0 5.019 2.019 3 4.5 3h15C21.981 3 24 5.019 24 7.5zM0 12c0-1.103 0.897-2 2-2s2 0.897 2 2-0.897 2-2 2-2-0.897-2-2zM1 12c0 0.551 0.449 1 1 1s1-0.449 1-1-0.449-1-1-1-1 0.449-1 1zM8.669 12.696l0.809 2.658c0.08 0.264-0.069 0.543-0.333 0.624-0.257 0.08-0.544-0.066-0.624-0.333l-0.812-2.667c-0.07 6e-3-0.138 0.021-0.21 0.021h-1.5v2.5c0 0.276-0.224 0.5-0.5 0.5s-0.5-0.224-0.5-0.5v-6c0-0.827 0.673-1.5 1.5-1.5h1c1.378 0 2.5 1.122 2.5 2.5 0 0.954-0.543 1.775-1.33 2.197zM9 10.5C9 9.673 8.327 9 7.5 9h-1C6.224 9 6 9.224 6 9.5V12h1.5C8.327 12 9 11.327 9 10.5zM12.5 9h2C14.776 9 15 8.776 15 8.5S14.776 8 14.5 8h-2C11.673 8 11 8.673 11 9.5v5c0 0.827 0.673 1.5 1.5 1.5h2c0.276 0 0.5-0.224 0.5-0.5S14.776 15 14.5 15h-2c-0.276 0-0.5-0.225-0.5-0.5v-2h2.5c0.276 0 0.5-0.224 0.5-0.5s-0.224-0.5-0.5-0.5H12v-2C12 9.224 12.224 9 12.5 9zM18.5 9c0.685 0 1.282 0.462 1.453 1.125 0.069 0.268 0.347 0.431 0.609 0.36 0.268-0.069 0.429-0.342 0.36-0.609-0.285-1.104-1.28-1.875-2.421-1.875-1.378 0-2.5 1.122-2.5 2.5v3c0 1.379 1.122 2.5 2.5 2.5 1.141 0 2.137-0.771 2.421-1.875 0.069-0.268-0.092-0.54-0.36-0.609-0.263-0.067-0.54 0.092-0.609 0.359-0.17 0.662-0.768 1.125-1.453 1.125-0.827 0-1.5-0.673-1.5-1.5v-3c0-0.827 0.673-1.5 1.5-1.501z" />
</svg>