<svg id="violin_Layer_1" viewBox="0 0 24 24" fill="currentColor" width="32" height="32" data-name="Layer 1" xmlns="http://www.w3.org/2000/svg" xmlns:xlink="http://www.w3.org/1999/xlink">
    <title>violin</title>
    <path d="M19 1c0-0.552 0.448-1 1-1s1 0.448 1 1-0.448 1-1 1-1-0.448-1-1zM18 4c0.552 0 1-0.448 1-1s-0.448-1-1-1-1 0.448-1 1 0.448 1 1 1zM23 3c-0.552 0-1 0.448-1 1s0.448 1 1 1 1-0.448 1-1-0.448-1-1-1zM21 5c-0.552 0-1 0.448-1 1s0.448 1 1 1 1-0.448 1-1-0.448-1-1-1zM17.481 7.229c1.866 2.19 2.041 5.367 0.334 7.76-0.453 0.666-1.128 1.057-1.844 1.011-0.922-0.045-1.688 0.411-2.348 1.417-0.791 1.208-0.665 2.004-0.411 2.686 0.331 0.888 0.024 1.891-0.747 2.439-1.383 0.981-2.981 1.462-4.57 1.462-2.032 0-4.048-0.786-5.581-2.319-5e-3-4e-3-9e-3-9e-3-0.014-0.014-2.719-2.733-3.072-6.992-0.84-10.136 0.562-0.789 1.593-1.101 2.454-0.742 0.647 0.27 1.206 0.504 2.67-0.426C7.588 9.729 8.051 8.964 8 8.028 7.962 7.34 8.346 6.637 9.001 6.193c2.4-1.714 5.58-1.54 7.772 0.33l6.373-6.377c0.195-0.195 0.512-0.195 0.707 0s0.195 0.512 0 0.707zM16.774 7.937l-5.915 5.917C10.761 13.952 10.633 14 10.505 14s-0.256-0.049-0.354-0.146c-0.195-0.195-0.195-0.512 0-0.707l5.915-5.918c-1.841-1.524-4.482-1.654-6.475-0.23C9.206 7.261 8.98 7.644 8.997 7.973c0.072 1.311-0.56 2.4-1.878 3.238-1.601 1.016-2.497 0.961-3.591 0.504-0.435-0.179-0.961-0.014-1.255 0.398-1.855 2.612-1.641 6.094 0.428 8.483l1.449-1.449c0.195-0.195 0.512-0.195 0.707 0s0.195 0.512 0 0.707l-1.449 1.449c2.388 2.063 5.865 2.275 8.476 0.422 0.402-0.286 0.562-0.81 0.389-1.274-0.31-0.832-0.532-1.99 0.513-3.583 0.859-1.312 1.956-1.944 3.24-1.867 0.331 9e-3 0.708-0.205 0.955-0.567 1.439-2.017 1.312-4.656-0.207-6.497zM6.859 15.147c-0.195-0.195-0.512-0.195-0.707 0s-0.195 0.512 0 0.707l2 2C8.25 17.952 8.378 18 8.506 18s0.256-0.049 0.354-0.146c0.195-0.195 0.195-0.512 0-0.707z" />
</svg>