<svg id="vision_sense_Layer_1" viewBox="0 0 24 24" fill="currentColor" width="32" height="32" data-name="Layer 1" xmlns="http://www.w3.org/2000/svg" xmlns:xlink="http://www.w3.org/1999/xlink">
    <title>vision-sense</title>
    <path d="M14.296 4.783c-0.642-1.331-2.109-2.047-3.571-1.742-5.328 1.114-8.631 4.895-10.126 7.048-0.794 1.143-0.794 2.679 0 3.821 1.434 2.16 5.472 6.533 10.8 7.119 1.221 0 2.355-0.686 2.898-1.812C15.427 16.869 16 14.441 16 12s-0.573-4.869-1.704-7.217zM15 12c0 0.586-0.034 1.165-0.102 1.739C13.916 13.817 13 13.014 13 12s0.917-1.812 1.898-1.739C14.965 10.835 15 11.414 15 12zM14.721 9.253C13.218 9.269 12 10.493 12 12s1.218 2.731 2.721 2.747c-0.132 0.701-0.305 1.398-0.541 2.093C11.812 16.479 10 14.432 10 12s1.812-4.479 4.18-4.84c0.236 0.694 0.409 1.392 0.541 2.093zM13.396 18.783c-0.442 0.917-1.455 1.41-2.465 1.198-4.99-1.044-8.101-4.609-9.511-6.641-0.557-0.802-0.557-1.879 0-2.681 1.367-2.029 4.987-6.024 9.978-6.689 0.843 0 1.625 0.472 1.998 1.246 0.16 0.333 0.283 0.665 0.419 0.997C11.073 6.738 9 9.148 9 12s2.072 5.262 4.815 5.787c-0.136 0.332-0.259 0.664-0.419 0.996zM23.703 11.21c0.436 0.436 0.436 1.145 0 1.581l-2.063 2.063c-0.195 0.195-0.512 0.195-0.707 0s-0.195-0.512 0-0.707l1.646-1.646H18.5c-0.276 0-0.5-0.224-0.5-0.5s0.224-0.5 0.5-0.5h4.079l-1.646-1.646c-0.195-0.195-0.195-0.512 0-0.707s0.512-0.195 0.707 0zM23.703 18.71c0.436 0.436 0.436 1.145 0 1.581l-2.063 2.063c-0.195 0.195-0.512 0.195-0.707 0s-0.195-0.512 0-0.707l1.646-1.646H16.5c-0.276 0-0.5-0.224-0.5-0.5s0.224-0.5 0.5-0.5h6.079l-1.646-1.646c-0.195-0.195-0.195-0.512 0-0.707s0.512-0.195 0.707 0zM16 4.501c0-0.276 0.224-0.5 0.5-0.5h6.079l-1.646-1.646c-0.195-0.195-0.195-0.512 0-0.707s0.512-0.195 0.707 0l2.063 2.063c0.436 0.436 0.436 1.145 0 1.581L21.64 7.355c-0.195 0.195-0.512 0.195-0.707 0s-0.195-0.512 0-0.707l1.646-1.646H16.5c-0.276 0-0.5-0.224-0.5-0.501z" />
</svg>