<svg id="visit_Layer_1" viewBox="0 0 24 24" fill="currentColor" width="32" height="32" data-name="Layer 1" xmlns="http://www.w3.org/2000/svg" xmlns:xlink="http://www.w3.org/1999/xlink">
    <title>visit</title>
    <path d="M18.5 15.5c-1.103 0-2 0.897-2 2s0.897 2 2 2 2-0.897 2-2-0.897-2-2-2zM18.5 18.5c-0.551 0-1-0.449-1-1s0.449-1 1-1 1 0.449 1 1-0.449 1-1 1zM22.388 13.604C21.349 12.57 19.969 12 18.5 12s-2.85 0.569-3.889 1.604S13 16.015 13 17.479s0.572 2.839 1.626 3.888l1.971 1.813c0.512 0.498 1.188 0.772 1.903 0.772s1.391-0.274 1.892-0.762l1.996-1.837c1.039-1.035 1.611-2.411 1.611-3.875s-0.572-2.84-1.611-3.874zM21.697 20.631l-1.992 1.833c-0.647 0.631-1.752 0.641-2.421-0.01l-1.967-1.81C14.467 19.798 14 18.674 14 17.478s0.468-2.32 1.317-3.166C16.167 13.466 17.297 13 18.5 13s2.333 0.466 3.182 1.312c0.85 0.846 1.317 1.97 1.317 3.166s-0.468 2.32-1.302 3.153zM13 23.501c0 0.276-0.224 0.5-0.5 0.5h-8c-2.481 0-4.5-2.019-4.5-4.5V4.5C0 2.019 2.019 0 4.5 0h7C13.981 0 16 2.019 16 4.5v6c0 0.276-0.224 0.5-0.5 0.5S15 10.776 15 10.5v-6C15 2.57 13.43 1 11.5 1h-7C2.57 1 1 2.57 1 4.5v15C1 21.43 2.57 23 4.5 23h8c0.276 0 0.5 0.224 0.5 0.501zM7 13.501c0 0.276-0.224 0.5-0.5 0.5h-2c-0.276 0-0.5-0.224-0.5-0.5s0.224-0.5 0.5-0.5h2c0.276 0 0.5 0.224 0.5 0.5zM12 13.501c0 0.276-0.224 0.5-0.5 0.5h-2c-0.276 0-0.5-0.224-0.5-0.5s0.224-0.5 0.5-0.5h2c0.276 0 0.5 0.224 0.5 0.5zM7 17.501c0 0.276-0.224 0.5-0.5 0.5h-2c-0.276 0-0.5-0.224-0.5-0.5s0.224-0.5 0.5-0.5h2c0.276 0 0.5 0.224 0.5 0.5zM12 17.501c0 0.276-0.224 0.5-0.5 0.5h-2c-0.276 0-0.5-0.224-0.5-0.5s0.224-0.5 0.5-0.5h2c0.276 0 0.5 0.224 0.5 0.5zM7 5.5C7 5.776 6.776 6 6.5 6h-2C4.224 6 4 5.776 4 5.5S4.224 5 4.5 5h2C6.776 5 7 5.224 7 5.5zM12 5.5C12 5.776 11.776 6 11.5 6h-2C9.224 6 9 5.776 9 5.5S9.224 5 9.5 5h2C11.776 5 12 5.224 12 5.5zM7 9.5C7 9.776 6.776 10 6.5 10h-2C4.224 10 4 9.776 4 9.5S4.224 9 4.5 9h2C6.776 9 7 9.224 7 9.5zM12 9.5c0 0.276-0.224 0.5-0.5 0.5h-2C9.224 10 9 9.776 9 9.5S9.224 9 9.5 9h2C11.776 9 12 9.224 12 9.5z" />
</svg>