<svg id="vision_target_Layer_1" viewBox="0 0 24 24" fill="currentColor" width="32" height="32" data-name="Layer 1" xmlns="http://www.w3.org/2000/svg" xmlns:xlink="http://www.w3.org/1999/xlink">
    <title>vision-target</title>
    <path d="M21.206 14.116c1.052-1.207 1.052-3.026 0-4.232C20.206 8.738 16.587 5 12.001 5S3.795 8.738 2.795 9.883c-1.054 1.207-1.054 3.026 0 4.232 1 1.146 4.619 4.884 9.205 4.884s8.206-3.738 9.206-4.883zM12 18c-3.309 0-6.535-2.346-8.452-4.542-0.726-0.831-0.726-2.085 0-2.917C5.464 8.346 8.69 6 11.999 6s6.536 2.346 8.452 4.541c0.726 0.832 0.726 2.086 0 2.918C18.534 15.654 15.308 18 12 18zM12 9c-1.654 0-3 1.346-3 3s1.346 3 3 3 3-1.346 3-3-1.346-3-3-3zM12 14c-1.103 0-2-0.897-2-2s0.897-2 2-2 2 0.897 2 2-0.897 2-2 2zM0 6.5v-2C0 2.019 2.019 0 4.5 0h2C6.776 0 7 0.224 7 0.5S6.776 1 6.5 1h-2C2.57 1 1 2.57 1 4.5v2C1 6.776 0.776 7 0.5 7S0 6.776 0 6.5zM7 23.5C7 23.776 6.776 24 6.5 24h-2C2.019 24 0 21.981 0 19.5v-2C0 17.224 0.224 17 0.5 17S1 17.224 1 17.5v2C1 21.43 2.57 23 4.5 23h2C6.776 23 7 23.224 7 23.5zM24 17.5v2c0 2.481-2.019 4.5-4.5 4.5h-2c-0.276 0-0.5-0.224-0.5-0.5s0.224-0.5 0.5-0.5h2c1.93 0 3.5-1.57 3.5-3.5v-2c0-0.276 0.224-0.5 0.5-0.5s0.5 0.224 0.5 0.5zM24 4.5v2C24 6.776 23.776 7 23.5 7S23 6.776 23 6.5v-2C23 2.57 21.43 1 19.5 1h-2C17.224 1 17 0.776 17 0.5S17.224 0 17.5 0h2C21.981 0 24 2.019 24 4.5z" />
</svg>