<svg id="vision_Layer_1" viewBox="0 0 24 24" fill="currentColor" width="32" height="32" data-name="Layer 1" xmlns="http://www.w3.org/2000/svg" xmlns:xlink="http://www.w3.org/1999/xlink">
    <title>vision</title>
    <path d="M4.121 2.312C3.98 2.075 4.059 1.768 4.296 1.627 4.533 1.485 4.839 1.564 4.981 1.802l1.186 2c0.141 0.237 0.062 0.544-0.175 0.685-0.234 0.139-0.543 0.064-0.685-0.175zM21.271 14.1C19.854 15.92 16.306 19 12 19c-3.917 0-7.619-2.505-9.4-4.833-0.964-1.26-0.962-3.009 5e-3-4.254C3.926 8.214 7.589 5 12 5c4.375 0 7.889 3.044 9.275 4.843 0.97 1.258 0.968 3.008-4e-3 4.257zM20.483 10.454C19.208 8.8 15.987 6 12 6 7.977 6 4.612 8.96 3.395 10.526c-0.688 0.886-0.689 2.133 0 3.033C4.571 15.095 7.882 18 12.001 18c3.92 0 7.176-2.837 8.482-4.514 0.692-0.889 0.692-2.135 0-3.032zM16 12c0 2.206-1.794 4-4 4s-4-1.794-4-4 1.794-4 4-4 4 1.794 4 4zM15 12c0-1.654-1.346-3-3-3s-3 1.346-3 3 1.346 3 3 3 3-1.346 3-3zM12 3c0.276 0 0.5-0.224 0.5-0.5v-2C12.5 0.224 12.276 0 12 0s-0.5 0.224-0.5 0.5v2C11.5 2.776 11.724 3 12 3zM18.008 4.487c0.234 0.139 0.543 0.064 0.685-0.175l1.186-2c0.141-0.237 0.062-0.544-0.175-0.685-0.238-0.141-0.544-0.063-0.685 0.175l-1.186 2c-0.141 0.237-0.062 0.544 0.175 0.685zM18.693 19.689c-0.142-0.238-0.448-0.316-0.685-0.175-0.238 0.141-0.316 0.448-0.175 0.685l1.186 2c0.142 0.24 0.451 0.315 0.685 0.175 0.238-0.141 0.316-0.448 0.175-0.685zM12 21.001c-0.276 0-0.5 0.224-0.5 0.5v2c0 0.276 0.224 0.5 0.5 0.5s0.5-0.224 0.5-0.5v-2c0-0.276-0.224-0.5-0.5-0.5zM5.992 19.514c-0.237-0.14-0.544-0.062-0.685 0.175l-1.186 2c-0.141 0.237-0.062 0.544 0.175 0.685 0.234 0.139 0.543 0.064 0.685-0.175l1.186-2c0.141-0.237 0.062-0.544-0.175-0.685z" />
</svg>