<svg id="voice_command_Layer_1" viewBox="0 0 24 24" fill="currentColor" width="32" height="32" data-name="Layer 1" xmlns="http://www.w3.org/2000/svg" xmlns:xlink="http://www.w3.org/1999/xlink">
    <title>voice-command</title>
    <path d="M23.982 13.522C23.71 19.397 18.925 24 13.089 24h-2.19C5.064 24 0.279 19.398 6e-3 13.523c-0.013-0.276 0.201-0.51 0.477-0.522 0.274-0.027 0.509 0.2 0.522 0.476C1.253 18.818 5.599 23 10.899 23h2.19c5.3 0 9.646-4.184 9.894-9.524 0.013-0.275 0.25-0.516 0.522-0.476 0.276 0.013 0.489 0.246 0.477 0.522zM15.202 10.206c0.39-0.39 0.39-1.024 0-1.414s-1.024-0.39-1.414 0-0.39 1.024 0 1.414 1.024 0.39 1.414 0zM15.495 0.999c4.136 0 7.5 3.364 7.5 7.5 0 0.276 0.224 0.5 0.5 0.5s0.5-0.224 0.5-0.5C23.994 3.813 20.181 0 15.494 0c-0.276 0-0.5 0.224-0.5 0.5s0.224 0.5 0.501 0.499zM15.495 3.999c2.481 0 4.5 2.019 4.5 4.5 0 0.276 0.224 0.5 0.5 0.5s0.5-0.224 0.5-0.5c0-3.032-2.467-5.5-5.5-5.5-0.276 0-0.5 0.224-0.5 0.5s0.224 0.5 0.5 0.5zM15.495 6.999c0.827 0 1.5 0.673 1.5 1.5 0 0.276 0.224 0.5 0.5 0.5s0.5-0.224 0.5-0.5c0-1.379-1.122-2.5-2.5-2.5-0.276 0-0.5 0.224-0.5 0.5s0.224 0.5 0.5 0.5zM11.995 19.999c4.411 0 8-3.589 8-8v-0.5c0-0.276-0.224-0.5-0.5-0.5s-0.5 0.224-0.5 0.5v0.5c0 3.859-3.14 7-7 7-3.165 0-5.842-2.113-6.705-5h4.205c0.276 0 0.5-0.224 0.5-0.5s-0.224-0.5-0.5-0.5H5.074c-0.047-0.328-0.08-0.66-0.08-1v-1.5h4.5c0.276 0 0.5-0.224 0.5-0.5s-0.224-0.5-0.5-0.5h-4.5v-1.5c0-0.34 0.033-0.672 0.08-1h4.42c0.276 0 0.5-0.224 0.5-0.5s-0.224-0.5-0.5-0.5H5.289c0.863-2.888 3.541-5 6.705-5 0.157 0 0.313 6e-3 0.467 0.016 0.272 0.019 0.515-0.19 0.532-0.467 0.018-0.275-0.191-0.514-0.466-0.531-0.176-0.012-0.354-0.018-0.533-0.018-4.411 1e-3-8 3.59-8 8.001v4c0 4.411 3.589 8 8.001 7.999z" />
</svg>