<svg id="volcano_Layer_1" viewBox="0 0 24 24" fill="currentColor" width="32" height="32" data-name="Layer 1" xmlns="http://www.w3.org/2000/svg" xmlns:xlink="http://www.w3.org/1999/xlink">
    <title>volcano</title>
    <path d="M21.376 24H2.624c-1.027 0-1.937-0.578-2.373-1.509s-0.298-1.999 0.36-2.789l8.006-9.524C8.712 10.065 8.852 10 9 10h5.902c0.146 0 0.286 0.064 0.381 0.176l8.103 9.522c0.661 0.794 0.799 1.862 0.363 2.793C23.312 23.422 22.403 24 21.376 24zM5.882 14.986 1.378 20.344c-0.411 0.494-0.495 1.139-0.221 1.723C1.43 22.651 1.978 23 2.624 23h18.752c0.646 0 1.193-0.349 1.467-0.933s0.19-1.229-0.222-1.725l-4.551-5.347C18.048 14.998 17 15 17 15c-1.103 0-2 0.897-2 2v3.5c0 0.276-0.224 0.5-0.5 0.5S14 20.776 14 20.5V17c0-1.103-0.897-2-2-2s-2 0.897-2 2v1.5c0 0.276-0.224 0.5-0.5 0.5S9 18.776 9 18.5V17c0-1.103-0.897-2-2-2 0 0-1.08-5e-3-1.118-0.014zM12 14c1.042 0 1.962 0.534 2.5 1.343C15.038 14.534 15.958 14 17 14h0.224l-2.553-3H9.233l-2.521 3h0.289c1.042 0 1.962 0.534 2.5 1.343C10.039 14.534 10.959 14 12 14zM19.5 8c-0.585 0-1.145-0.208-1.59-0.581C17.339 7.796 16.676 8 16 8h-1.5C14.224 8 14 7.776 14 7.5S14.224 7 14.5 7H16c0.598 0 1.16-0.214 1.629-0.621 0.102-0.089 0.233-0.133 0.37-0.12 0.135 0.011 0.259 0.077 0.345 0.182C18.634 6.796 19.055 7 19.5 7 20.327 7 21 6.327 21 5.5S20.327 4 19.5 4c-0.151 0-0.31 0.029-0.484 0.089-0.127 0.045-0.269 0.036-0.39-0.027-0.12-0.061-0.211-0.168-0.251-0.298-0.453-1.461-2.186-2.23-3.6-1.43-0.23 0.13-0.524 0.059-0.669-0.167C13.643 1.436 12.856 1 12 1s-1.644 0.437-2.106 1.167C9.749 2.393 9.456 2.465 9.225 2.334c-1.415-0.801-3.147-0.031-3.6 1.43-0.04 0.129-0.131 0.237-0.251 0.298-0.121 0.062-0.263 0.07-0.39 0.027C4.809 4.029 4.651 4 4.5 4 3.673 4 3 4.673 3 5.5S3.673 7 4.5 7c0.445 0 0.866-0.204 1.156-0.559 0.086-0.104 0.21-0.17 0.345-0.182 0.131-0.014 0.269 0.031 0.37 0.12C6.84 6.785 7.402 7 8 7h1.5C9.776 7 10 7.224 10 7.5S9.776 8 9.5 8H8C7.324 8 6.661 7.796 6.09 7.419 5.645 7.793 5.085 8 4.5 8 3.121 8 2 6.878 2 5.5 2 4.009 3.325 2.796 4.84 3.026 5.407 1.797 6.625 1 8 1 8.45 1 8.89 1.089 9.313 1.267 9.974 0.467 10.95 0 12 0s2.025 0.466 2.687 1.267C15.111 1.09 15.55 1 16 1c1.375 0 2.593 0.797 3.16 2.026C20.676 2.797 22 4.009 22 5.5 22 6.878 20.879 8 19.5 8z" />
</svg>