<svg id="volleyball_player_Layer_1" viewBox="0 0 24 24" fill="currentColor" width="32" height="32" data-name="Layer 1" xmlns="http://www.w3.org/2000/svg" xmlns:xlink="http://www.w3.org/1999/xlink">
    <title>volleyball-player</title>
    <path d="M11.5 5C12.878 5 14 3.878 14 2.5S12.878 0 11.5 0 9 1.122 9 2.5 10.122 5 11.5 5zM11.5 1C12.327 1 13 1.673 13 2.5S12.327 4 11.5 4 10 3.327 10 2.5 10.673 1 11.5 1zM22.445 5.003 13.5 6H9.521L5.313 4.29C5.124 4.213 5.001 4.031 5.001 3.827V0.5c0-0.276-0.224-0.5-0.5-0.5s-0.5 0.224-0.5 0.5v3.327c0 0.613 0.367 1.159 0.936 1.39l4.064 1.651v7.499l-2.085 3.625c-0.168 0.292-0.434 0.522-0.749 0.647l-4.863 1.923c-0.256 0.102-0.382 0.392-0.281 0.649 0.101 0.259 0.399 0.382 0.649 0.281l4.863-1.923c0.524-0.208 0.967-0.59 1.248-1.078l2.007-3.49h3.211v3.385c0 0.378-0.141 0.739-0.397 1.017l-3.47 3.759c-0.188 0.203-0.175 0.52 0.028 0.707 0.202 0.187 0.519 0.175 0.707-0.028l3.47-3.759c0.427-0.463 0.663-1.065 0.663-1.695V6.948l8.555-0.951c0.274-0.031 0.472-0.278 0.442-0.552s-0.275-0.466-0.554-0.442zM10 14V7l3-2e-3v7.003zM21 4c1.103 0 2-0.897 2-2s-0.897-2-2-2-2 0.897-2 2 0.897 2 2 2zM21 1c0.551 0 1 0.449 1 1s-0.449 1-1 1-1-0.449-1-1 0.449-1 1-1z" />
</svg>