<svg id="volume_off_Layer_1" viewBox="0 0 24 24" fill="currentColor" width="32" height="32" data-name="Layer 1" xmlns="http://www.w3.org/2000/svg" xmlns:xlink="http://www.w3.org/1999/xlink">
    <title>volume-off</title>
    <path d="M13.298 23.999c-0.196 0-0.395-0.034-0.583-0.104-2.163-0.794-4.591-2.677-6.04-4.685l-0.15-0.208-2.025-3e-3c-2.48-4e-3-4.499-2.025-4.499-4.506V9.499c0-1.204 0.469-2.334 1.32-3.185C2.171 5.465 3.3 4.999 4.5 4.999h8e-3l2.018 3e-3 0.149-0.207c1.518-2.104 3.85-3.905 6.086-4.699 0.512-0.182 1.062-0.104 1.512 0.212 0.455 0.322 0.728 0.845 0.728 1.401v20.585c0 0.557-0.272 1.079-0.729 1.398-0.289 0.202-0.629 0.306-0.974 0.307zM4.5 6C3.565 6 2.687 6.363 2.027 7.023 1.364 7.684 1 8.564 1 9.5v4.994c0 1.93 1.57 3.503 3.501 3.506l2.28 3e-3c0.16 0 0.311 0.077 0.404 0.207l0.3 0.415c1.321 1.831 3.613 3.612 5.573 4.332 0.218 0.079 0.449 0.05 0.64-0.083C13.889 22.74 14 22.529 14 22.296V1.709c0-0.231-0.114-0.45-0.305-0.584-0.179-0.126-0.398-0.159-0.6-0.087-2.022 0.718-4.226 2.423-5.611 4.343L7.185 5.796C7.091 5.926 6.941 6.004 6.78 6.004v0l-2.274-3e-3z" />
</svg>