<svg id="volume_slash_Layer_1" viewBox="0 0 24 24" fill="currentColor" width="32" height="32" data-name="Layer 1" xmlns="http://www.w3.org/2000/svg" xmlns:xlink="http://www.w3.org/1999/xlink">
    <title>volume-slash</title>
    <path d="M15 18.5v3.795c0 0.557-0.272 1.079-0.729 1.398-0.289 0.202-0.629 0.306-0.973 0.306-0.196 0-0.395-0.034-0.583-0.104-2.163-0.794-4.591-2.677-6.04-4.685l-0.15-0.208-2.025-3e-3c-2.48-4e-3-4.499-2.025-4.499-4.506V9.499c0-1.602 0.862-3.095 2.25-3.897 0.236-0.14 0.544-0.058 0.683 0.182 0.139 0.239 0.057 0.545-0.183 0.683-1.079 0.625-1.75 1.787-1.75 3.032v4.994c0 1.93 1.57 3.503 3.501 3.506l2.28 3e-3c0.16 0 0.311 0.077 0.404 0.207l0.3 0.415c1.321 1.831 3.613 3.612 5.573 4.332 0.218 0.079 0.45 0.05 0.64-0.083 0.191-0.134 0.302-0.345 0.302-0.578V18.5c0-0.276 0.224-0.5 0.5-0.5s0.5 0.224 0.499 0.5zM23.854 23.146c0.195 0.195 0.195 0.512 0 0.707-0.098 0.098-0.226 0.146-0.354 0.146s-0.256-0.049-0.354-0.146l-23-22.999c-0.195-0.196-0.195-0.512 0-0.708s0.512-0.195 0.708 0l4.855 4.855h0.816c0 0 0.149-0.205 0.149-0.205 1.519-2.105 3.851-3.906 6.087-4.7 0.511-0.182 1.062-0.104 1.512 0.212 0.455 0.322 0.728 0.845 0.728 1.401v12.583l2.03 2.03c0.024-0.066 0.062-0.129 0.116-0.182 1.178-1.178 1.854-2.689 1.854-4.146s-0.676-2.968-1.854-4.146c-0.195-0.195-0.195-0.512 0-0.707s0.512-0.195 0.707 0C19.218 8.505 20 10.274 20 11.995s-0.782 3.489-2.146 4.854c-0.053 0.053-0.116 0.091-0.182 0.116l2.358 2.358c1.868-2.025 2.971-4.73 2.971-7.322 0-2.733-1.227-5.591-3.282-7.646-0.195-0.195-0.195-0.512 0-0.707s0.512-0.195 0.707 0c2.238 2.239 3.575 5.361 3.575 8.354 0 2.85-1.214 5.819-3.264 8.029zM6.71 6.003 14 13.293V1.709c0-0.231-0.114-0.45-0.305-0.584-0.179-0.126-0.399-0.159-0.6-0.087-2.022 0.718-4.226 2.423-5.611 4.343L7.185 5.796C7.091 5.926 6.941 6.004 6.78 6.004z" />
</svg>