<svg id="volunteer_vest_Layer_1" viewBox="0 0 24 24" fill="currentColor" width="32" height="32" data-name="Layer 1" xmlns="http://www.w3.org/2000/svg" xmlns:xlink="http://www.w3.org/1999/xlink">
    <title>volunteer-vest</title>
    <path d="M22.337 10.954C21.352 9.588 21 8.79 21 8.5V3.938c0-1.727-1.239-3.181-2.947-3.457-3.937-0.639-8.165-0.639-12.106 0C4.239 0.757 3 2.211 3 3.938V8.5c0 0.291-0.351 1.088-1.337 2.454C1.229 11.555 1 12.263 1 13.003v6.498c0 2.481 2.019 4.5 4.5 4.5h13c2.481 0 4.5-2.019 4.5-4.5v-6.498c0-0.74-0.229-1.448-0.663-2.049zM15.876 1.204 12 10.679 8.126 1.209C9.409 1.076 10.719 1 12 1c1.454 0 2.768 0.088 3.876 0.204zM2 19.5V19h4.5C6.776 19 7 18.776 7 18.5S6.776 18 6.5 18H2v-4.998c0-0.528 0.164-1.034 0.474-1.464C4 9.425 4 8.728 4 8.499V3.938c0-1.233 0.886-2.272 2.107-2.47 0.324-0.052 0.656-0.095 0.988-0.139L11.5 12.098v10.901h-6c-1.93 0-3.5-1.57-3.5-3.499zM18.5 23h-6V12.098l4.408-10.773c0.361 0.048 0.695 0.097 0.985 0.144C19.115 1.666 20 2.705 20 3.939v4.562c0 0.229 0 0.923 1.526 3.039 0.31 0.43 0.474 0.936 0.474 1.464v4.998h-4.5c-0.276 0-0.5 0.224-0.5 0.5s0.224 0.5 0.5 0.5H22v0.5c0 1.93-1.57 3.5-3.5 3.498zM17.938 16.16C18.704 15.52 20 14.081 20 12.75 20 11.785 19.215 11 18.25 11c-0.479 0-0.927 0.185-1.25 0.473C16.677 11.185 16.229 11 15.75 11 14.785 11 14 11.785 14 12.75c0 1.307 1.297 2.754 2.063 3.403 0.541 0.459 1.331 0.462 1.875 7e-3zM16.709 15.391c-0.829-0.702-1.71-1.866-1.71-2.641 0-0.414 0.337-0.75 0.75-0.75 0.436 0 0.75 0.299 0.75 0.5 0 0.276 0.224 0.5 0.5 0.5s0.5-0.224 0.5-0.5c0-0.201 0.314-0.5 0.75-0.5 0.413 0 0.75 0.336 0.75 0.75 0 0.894-1.019 2.07-1.702 2.643-0.175 0.144-0.415 0.144-0.588-2e-3z" />
</svg>