<svg id="vote_yea_Layer_1" viewBox="0 0 24 24" fill="currentColor" width="32" height="32" data-name="Layer 1" xmlns="http://www.w3.org/2000/svg" xmlns:xlink="http://www.w3.org/1999/xlink">
    <title>vote-yea</title>
    <path d="M20.5 12H20V5.5C20 3.57 18.43 2 16.5 2h-9C5.57 2 4 3.57 4 5.5V12H3.5C1.57 12 0 13.57 0 15.5v3C0 20.43 1.57 22 3.5 22h17c1.93 0 3.5-1.57 3.5-3.5v-3c0-1.93-1.57-3.5-3.5-3.5zM5 5.5C5 4.12 6.12 3 7.5 3h9C17.88 3 19 4.12 19 5.5V17H5zM23 18.5c0 1.38-1.12 2.5-2.5 2.5h-17C2.12 21 1 19.88 1 18.5v-3C1 14.12 2.12 13 3.5 13H4v4.5C4 17.78 4.22 18 4.5 18h15c0.28 0 0.5-0.22 0.5-0.5V13h0.5c1.38 0 2.5 1.12 2.5 2.5zM8.2 10.8c-0.2-0.2-0.2-0.51 0-0.71s0.51-0.2 0.71 0l1.62 1.62c0.39 0.39 1.03 0.39 1.41 0l3.63-3.63c0.2-0.2 0.51-0.2 0.71 0s0.2 0.51 0 0.71l-3.63 3.63c-0.38 0.38-0.88 0.59-1.41 0.59s-1.04-0.21-1.41-0.59z" />
</svg>