<svg id="vpn_shield_Layer_1" viewBox="0 0 24 24" fill="currentColor" width="32" height="32" data-name="Layer 1" xmlns="http://www.w3.org/2000/svg" xmlns:xlink="http://www.w3.org/1999/xlink">
    <title>vpn-shield</title>
    <path d="M18.916 2.266 12.157 0.025c-0.102-0.034-0.213-0.034-0.314 0L5.084 2.267C3.239 2.878 2 4.595 2 6.538l-2e-3 5.397c0 6.609 7.159 10.703 9.354 11.8 0.393 0.291 0.862 0.31 1.276 0.052 2.198-0.885 9.37-4.354 9.37-11.852l3e-3-5.397c0-1.943-1.239-3.66-3.085-4.272zM20.997 11.934c0 6.872-6.691 10.099-8.743 10.924l-0.232 0.093-0.224-0.112c-2.064-1.032-8.801-4.871-8.801-10.906l2e-3-5.397c0-1.511 0.964-2.846 2.398-3.322L12 1.027l6.602 2.188C20.037 3.691 21 5.026 21 6.537zM8.904 8.603 8.046 12.818c-0.094 0.485-0.471 1.181-1.221 1.181s-1.132-0.727-1.214-1.148L4.705 8.607C4.638 8.294 4.877 7.999 5.197 7.999c0.238 0 0.443 0.166 0.492 0.399l0.9 4.244c0.025 0.131 0.146 0.357 0.236 0.357 0.101 0 0.211-0.224 0.239-0.372L7.9 8.404c0.047-0.236 0.253-0.405 0.494-0.405H8.41c0.318 0 0.557 0.292 0.494 0.604zM12 7.999h-1c-0.551 0-1 0.449-1 1v4.5c0 0.276 0.224 0.5 0.5 0.5s0.5-0.224 0.5-0.5v-1.5h1c1.103 0 2-0.897 2-2s-0.897-2-2-2zM12 10.999h-1v-2h1c0.551 0 1 0.449 1 1s-0.449 1-1 1zM19 8.499v4.73c0 0.365-0.25 0.672-0.608 0.745-0.357 0.071-0.708-0.11-0.852-0.446L16 9.935v3.564c0 0.276-0.224 0.5-0.5 0.5s-0.5-0.224-0.5-0.5V8.744c0-0.363 0.248-0.667 0.604-0.74 0.355-0.072 0.703 0.109 0.847 0.443l1.55 3.617V8.5c0-0.276 0.224-0.5 0.5-0.5s0.5 0.224 0.499 0.499z" />
</svg>