<svg id="vpn_network_Layer_1" viewBox="0 0 24 24" fill="currentColor" width="32" height="32" data-name="Layer 1" xmlns="http://www.w3.org/2000/svg" xmlns:xlink="http://www.w3.org/1999/xlink">
    <title>vpn-network</title>
    <path d="M23.5 21h-9.051c-0.199-0.978-0.971-1.75-1.949-1.949V16H17c3.309 0 6-2.691 6-6 0-3.009-2.25-5.564-5.234-5.946-0.163-0.021-0.296-0.117-0.364-0.266C16.344 1.487 14.028 0 11.501 0 8.69 0 6.21 1.796 5.331 4.469 5.284 4.614 5.175 4.72 5.026 4.767 2.618 5.523 1.001 7.727 1.001 10.25c0 3.171 2.58 5.75 5.75 5.75h4.75v3.051C10.523 19.25 9.751 20.022 9.552 21H0.5C0.224 21 0 21.224 0 21.5S0.224 22 0.5 22h9.051c0.232 1.14 1.242 2 2.449 2s2.217-0.86 2.449-2H23.5c0.276 0 0.5-0.224 0.5-0.5S23.776 21 23.5 21zM2 10.25c0-2.085 1.336-3.905 3.326-4.53 0.458-0.144 0.806-0.486 0.955-0.938 0.744-2.262 2.841-3.781 5.22-3.781 2.138 0 4.098 1.259 4.993 3.205 0.212 0.463 0.641 0.777 1.146 0.841C20.126 5.364 22 7.494 22 10.001c0 2.757-2.243 5-5 5H6.75C4.131 15.001 2 12.87 2 10.25zM12 23c-0.827 0-1.5-0.673-1.5-1.5S11.173 20 12 20s1.5 0.673 1.5 1.5S12.827 23 12 23zM8.891 7.614 7.719 13.176C7.611 13.66 7.175 14.005 6.692 14c-0.468 9e-3-0.924-0.348-1.019-0.798L4.455 7.618C4.386 7.301 4.628 7 4.952 7h0.02C5.212 7 5.42 7.168 5.47 7.403l1.188 5.568c0.011 0.042 0.054 0.04 0.065 0 0 0 0.888-4.224 1.169-5.566 0.05-0.236 0.257-0.404 0.498-0.404 0.323 0 0.565 0.298 0.501 0.613zM14 9.25C14 8.01 12.991 7 11.75 7H11c-0.551 0-1 0.448-1 1v5.5c0 0.276 0.224 0.5 0.5 0.5s0.5-0.224 0.5-0.5v-2h0.75c1.241 0 2.25-1.01 2.25-2.25zM11.75 10.5H11V8h0.75C12.439 8 13 8.561 13 9.25s-0.561 1.25-1.25 1.25zM15 13.5V7.688c0-0.32 0.218-0.595 0.528-0.669 0.315-0.073 0.63 0.075 0.772 0.36l1.699 4.292V7.5c0-0.276 0.224-0.5 0.5-0.5s0.5 0.224 0.5 0.5v5.812c0 0.32-0.218 0.595-0.528 0.669-0.305 0.074-0.63-0.073-0.772-0.36L16 9.329V13.5c0 0.276-0.224 0.5-0.5 0.5S15 13.776 15 13.5z" />
</svg>