<svg id="vpn_Layer_1" viewBox="0 0 24 24" fill="currentColor" width="32" height="32" data-name="Layer 1" xmlns="http://www.w3.org/2000/svg" xmlns:xlink="http://www.w3.org/1999/xlink">
    <title>vpn</title>
    <path d="M20.006 3.497C18.067 3.27 15.103 3 12 3S5.933 3.271 3.994 3.497C1.717 3.764 0 5.686 0 7.969v8.062c0 2.283 1.717 4.205 3.994 4.472C5.933 20.73 8.897 21 12 21s6.067-0.271 8.006-0.497C22.283 20.236 24 18.315 24 16.031V7.969c0-2.283-1.717-4.205-3.994-4.472zM23 16.031c0 1.775-1.337 3.271-3.11 3.478C17.977 19.734 15.055 20 12 20s-5.977-0.267-7.89-0.491C2.337 19.302 1 17.807 1 16.031V7.969c0-1.775 1.337-3.271 3.11-3.478C6.023 4.266 8.945 4 12 4s5.977 0.267 7.89 0.491C21.663 4.698 23 6.193 23 7.969zM8.84 8.604 7.655 14.425C7.529 15.072 6.968 16 6.027 16s-1.51-0.97-1.618-1.531l-1.251-5.86C3.091 8.296 3.33 8 3.651 8 3.889 8 4.094 8.166 4.144 8.399l1.244 5.861C5.432 14.488 5.705 15 6.028 15c0.331 0 0.593-0.491 0.646-0.765l1.171-5.83C7.892 8.17 8.099 8 8.339 8h8e-3C8.666 8 8.904 8.292 8.84 8.604zM12.5 8h-1C10.673 8 10 8.673 10 9.5v6c0 0.276 0.224 0.5 0.5 0.5s0.5-0.224 0.5-0.5V13h1.5c1.378 0 2.5-1.121 2.5-2.5S13.878 8 12.5 8zM12.5 12H11V9.5C11 9.225 11.224 9 11.5 9h1c0.827 0 1.5 0.673 1.5 1.5S13.327 12 12.5 12zM21 8.5v6.746c0.027 0.804-1.159 1.061-1.466 0.312L17 9.857v5.644c0 0.276-0.224 0.5-0.5 0.5s-0.5-0.224-0.5-0.5V8.785c-0.028-0.813 1.176-1.066 1.479-0.313L20 14.146V8.501c0-0.276 0.224-0.5 0.5-0.5S21 8.225 21 8.5z" />
</svg>