<svg id="w_Layer_1" viewBox="0 0 24 24" fill="currentColor" width="32" height="32" data-name="Layer 1" xmlns="http://www.w3.org/2000/svg" xmlns:xlink="http://www.w3.org/1999/xlink">
    <title>w</title>
    <path d="M17.159 24.013c-1.316 0-2.453-0.812-2.877-2.084L12 15.081 9.717 21.929c-0.451 1.353-1.713 2.187-3.129 2.074-1.421-0.111-2.533-1.131-2.767-2.537L8e-3 0.59C-0.042 0.318 0.139 0.058 0.41 8e-3 0.681-0.035 0.942 0.139 0.992 0.41l3.814 20.884c0.196 1.173 1.125 1.654 1.86 1.712 0.741 0.051 1.729-0.272 2.103-1.394l2.757-8.271c0.136-0.408 0.812-0.408 0.948 0l2.757 8.271c0.374 1.122 1.36 1.448 2.103 1.394 0.735-0.058 1.664-0.539 1.858-1.704L23.008 0.41c0.049-0.272 0.314-0.449 0.582-0.402 0.271 0.05 0.451 0.311 0.402 0.582l-3.814 20.884c-0.233 1.398-1.345 2.418-2.766 2.529-0.085 7e-3-0.17 0.01-0.253 0.01z" />
</svg>