<svg id="waffle_Layer_1" viewBox="0 0 24 24" fill="currentColor" width="32" height="32" data-name="Layer 1" xmlns="http://www.w3.org/2000/svg" xmlns:xlink="http://www.w3.org/1999/xlink">
    <title>waffle</title>
    <path d="M12 0C5.383 0 0 5.383 0 12s5.383 12 12 12 12-5.383 12-12S18.617 0 12 0zM12 23C5.935 23 1 18.065 1 12S5.935 1 12 1 23 5.935 23 12 18.065 23 12 23z" />
    <path d="M19.5 12.5c0.276 0 0.5-0.224 0.5-0.5s-0.224-0.5-0.5-0.5H17V8h2.5C19.776 8 20 7.776 20 7.5S19.776 7 19.5 7H17V4.5C17 4.224 16.776 4 16.5 4S16 4.224 16 4.5V7h-3.5V4.5C12.5 4.224 12.276 4 12 4s-0.5 0.224-0.5 0.5V7H8V4.5C8 4.224 7.776 4 7.5 4S7 4.224 7 4.5V7H4.5C4.224 7 4 7.224 4 7.5S4.224 8 4.5 8H7v3.5H4.5C4.224 11.5 4 11.724 4 12s0.224 0.5 0.5 0.5H7V16H4.5C4.224 16 4 16.224 4 16.5S4.224 17 4.5 17H7v2.5C7 19.776 7.224 20 7.5 20S8 19.776 8 19.5V17h3.5v2.5c0 0.276 0.224 0.5 0.5 0.5s0.5-0.224 0.5-0.5V17H16v2.5c0 0.276 0.224 0.5 0.5 0.5s0.5-0.224 0.5-0.5V17h2.5c0.276 0 0.5-0.224 0.5-0.5S19.776 16 19.5 16H17v-3.5zM16 8v3.5h-3.5V8zM8 8h3.5v3.5H8zM8 16v-3.5h3.5V16zM16 16h-3.5v-3.5H16z" />
</svg>