<svg id="wagon_covered_Layer_1" viewBox="0 0 24 24" fill="currentColor" width="32" height="32" data-name="Layer 1" xmlns="http://www.w3.org/2000/svg" xmlns:xlink="http://www.w3.org/1999/xlink">
    <title>wagon-covered</title>
    <path d="M23.583 1.743C23.208 1.27 22.609 1 21.94 1c-0.621 0-1.169 0.282-1.699 0.556C19.798 1.785 19.379 2 19 2c-0.557 0-1.021-0.494-1.469-0.972-0.317-0.338-0.617-0.657-0.969-0.808C16.224 0.076 15.85 2e-3 15.5-1e-3c-0.301 2e-3-0.616 0.057-0.899 0.165-0.412 0.157-0.745 0.505-1.097 0.872C13.05 1.51 12.581 1.999 12 1.999c-0.57 0-0.991-0.46-1.437-0.947-0.343-0.374-0.666-0.728-1.087-0.888C9.167 0.046 8.829-9e-3 8.5-1e-3 8-1e-3 7.816 0.091 7.515 0.22 7.17 0.367 6.863 0.68 6.538 1.011 6.083 1.474 5.567 1.999 4.999 1.999c-0.379 0-0.797-0.216-1.241-0.444-0.53-0.273-1.078-0.556-1.699-0.556-0.669 0-1.268 0.271-1.643 0.743C0.029 2.23-0.093 2.895 0.069 3.596L2 13.548V20.5C2 22.43 3.57 24 5.5 24c1.76 0 3.221-1.306 3.464-3h6.072c0.243 1.694 1.704 3 3.464 3 1.93 0 3.5-1.57 3.5-3.5v-6.952l1.927-9.936c0.166-0.718 0.043-1.382-0.344-1.869zM5.5 23C4.122 23 3 21.879 3 20.5S4.122 18 5.5 18 8 19.121 8 20.5 6.878 23 5.5 23zM18.5 23c-1.378 0-2.5-1.121-2.5-2.5s1.122-2.5 2.5-2.5 2.5 1.121 2.5 2.5-1.122 2.5-2.5 2.5zM21 18.053C20.364 17.403 19.478 17 18.5 17c-1.76 0-3.221 1.306-3.464 3H8.964C8.721 18.306 7.26 17 5.5 17 4.522 17 3.636 17.404 3 18.053V14h18zM22.949 3.404 21.087 13H2.912L1.047 3.388C0.95 2.967 1.002 2.614 1.199 2.366 1.384 2.134 1.698 2.001 2.06 2.001c0.379 0 0.797 0.216 1.241 0.444C3.831 2.718 4.379 3.001 5 3.001c0.987 0 1.688-0.714 2.252-1.288C7.494 1.466 7.775 1.155 8 1.105V9.5C8 9.776 8.224 10 8.5 10S9 9.776 9 9.5V1.059c0.223 0.046 0.576 0.397 0.825 0.669C10.344 2.294 10.99 2.999 12 2.999s1.683-0.705 2.226-1.271c0.26-0.271 0.545-0.582 0.774-0.645V9.5c0 0.276 0.224 0.5 0.5 0.5S16 9.776 16 9.5V1.078c0.255 0.037 0.569 0.387 0.802 0.635C17.34 2.286 18.01 3 19 3c0.621 0 1.169-0.282 1.699-0.556C21.142 2.215 21.561 2 21.94 2c0.362 0 0.676 0.133 0.861 0.365 0.197 0.248 0.249 0.602 0.148 1.039z" />
</svg>