<svg id="walkie_talkie_Layer_1" viewBox="0 0 24 24" fill="currentColor" width="32" height="32" data-name="Layer 1" xmlns="http://www.w3.org/2000/svg" xmlns:xlink="http://www.w3.org/1999/xlink">
    <title>walkie-talkie</title>
    <path d="M16.5 3H11V1.5C11 1.224 10.776 1 10.5 1S10 1.224 10 1.5V3H7.5C7.331 3 7.164 3.01 7 3.028V0.5C7 0.224 6.776 0 6.5 0S6 0.224 6 0.5v2.757C4.254 3.876 3 5.544 3 7.5v4.037c0 0.702 0.132 1.389 0.393 2.042L4 15.096V19.5C4 21.981 6.019 24 8.5 24h7c2.481 0 4.5-2.019 4.5-4.5v-4.404l0.607-1.517C20.868 12.926 21 12.238 21 11.537V7.5C21 5.019 18.981 3 16.5 3zM20 11.537c0 0.574-0.108 1.137-0.322 1.671l-0.643 1.606c-0.023 0.059-0.036 0.122-0.036 0.186v4.5c0 1.93-1.57 3.5-3.5 3.5h-7c-1.93 0-3.5-1.57-3.5-3.5V15c0-0.063-0.012-0.126-0.036-0.186L4.32 13.208c-0.213-0.535-0.322-1.097-0.322-1.671V7.5c0-1.93 1.57-3.5 3.5-3.5h9c1.93 0 3.5 1.57 3.5 3.5zM16.5 6h-9C6.673 6 6 6.673 6 7.5v3C6 11.327 6.673 12 7.5 12h9c0.827 0 1.5-0.673 1.5-1.5v-3C18 6.673 17.327 6 16.5 6zM17 10.5c0 0.276-0.224 0.5-0.5 0.5h-9C7.224 11 7 10.776 7 10.5v-3C7 7.224 7.224 7 7.5 7h9C16.776 7 17 7.224 17 7.5z" />
</svg>