<svg id="walker_Layer_1" viewBox="0 0 24 24" fill="currentColor" width="32" height="32" data-name="Layer 1" xmlns="http://www.w3.org/2000/svg" xmlns:xlink="http://www.w3.org/1999/xlink">
    <title>walker</title>
    <path d="M22 19.051V4c0-2.206-1.794-4-4-4h-6.214C9.911 0 8.215 1.182 7.565 2.94L0.031 23.327c-0.096 0.259 0.036 0.546 0.296 0.642C0.384 23.99 0.442 24 0.5 24c0.203 0 0.395-0.125 0.469-0.327L5.652 11H21v8.051c-1.14 0.232-2 1.242-2 2.449 0 1.379 1.121 2.5 2.5 2.5s2.5-1.121 2.5-2.5c0-1.208-0.86-2.217-2-2.449zM6.022 10 8.503 3.286C9.009 1.919 10.328 1 11.786 1H18c1.654 0 3 1.346 3 3v6zM21.5 23c-0.827 0-1.5-0.673-1.5-1.5s0.673-1.5 1.5-1.5 1.5 0.673 1.5 1.5-0.673 1.5-1.5 1.5z" />
</svg>