<svg id="wallet_income_Layer_1" viewBox="0 0 24 24" fill="currentColor" width="32" height="32" data-name="Layer 1" xmlns="http://www.w3.org/2000/svg" xmlns:xlink="http://www.w3.org/1999/xlink">
    <title>wallet-income</title>
    <path d="M20 15c0.552 0 1 0.448 1 1s-0.448 1-1 1-1-0.448-1-1 0.448-1 1-1zM23.665 9.25c-0.139-0.24-0.447-0.322-0.683-0.183-0.239 0.138-0.321 0.444-0.183 0.683 0.131 0.227 0.2 0.486 0.2 0.75v11c0 0.827-0.673 1.5-1.5 1.5H4.5C2.57 23 1 21.43 1 19.5v-11c0-0.349 0.067-0.679 0.162-0.997C2.007 8.438 3.215 9 4.5 9H15c0.276 0 0.5-0.224 0.5-0.5S15.276 8 15 8H4.5C3.355 8 2.286 7.429 1.636 6.5 2.269 5.596 3.315 5 4.5 5h9C13.776 5 14 4.776 14 4.5S13.776 4 13.5 4h-9C2.002 3.996 0.018 6.074 0 8.5v11C0 21.981 2.019 24 4.5 24h17c1.379 0 2.5-1.121 2.5-2.5v-11c0-0.439-0.116-0.872-0.335-1.25zM18.42 8.555c0.585 0.563 1.528 0.562 2.114 7e-3l2.812-2.701c0.199-0.191 0.205-0.508 0.014-0.707-0.191-0.2-0.507-0.204-0.707-0.015L20 7.688V0.5C20 0.224 19.776 0 19.5 0S19 0.224 19 0.5v7.224l-2.651-2.582c-0.195-0.191-0.512-0.188-0.707 0.01-0.192 0.198-0.188 0.514 0.01 0.707z" />
</svg>