<svg id="wallet_Layer_1" viewBox="0 0 24 24" fill="currentColor" width="32" height="32" data-name="Layer 1" xmlns="http://www.w3.org/2000/svg" xmlns:xlink="http://www.w3.org/1999/xlink">
    <title>wallet</title>
    <path d="M21.5 6h-17C3.354 6 2.279 5.433 1.628 4.501 2.262 3.594 3.313 3 4.5 3h19C23.776 3 24 2.776 24 2.5S23.776 2 23.5 2h-19C2.015 2 0 4.015 0 6.5v11C0 19.985 2.015 22 4.5 22h17c1.381 0 2.5-1.119 2.5-2.5v-11C24 7.119 22.881 6 21.5 6zM23 19.5c0 0.827-0.673 1.5-1.5 1.5h-17C2.57 21 1 19.43 1 17.5v-11c0-0.348 0.051-0.684 0.146-1.001C1.992 6.441 3.21 7 4.5 7h17C22.327 7 23 7.673 23 8.5zM21 14c0 0.552-0.448 1-1 1s-1-0.448-1-1 0.448-1 1-1 1 0.448 1 1z" />
</svg>