<svg id="wallet_change_Layer_1" viewBox="0 0 24 24" fill="currentColor" width="32" height="32" data-name="Layer 1" xmlns="http://www.w3.org/2000/svg" xmlns:xlink="http://www.w3.org/1999/xlink">
    <title>wallet-change</title>
    <path d="M11.976 18.545C11.696 21.655 9.127 24 6 24c-2.039 0-3.895-1.022-5-2.698V23.5C1 23.776 0.776 24 0.5 24S0 23.776 0 23.5V21c0-0.552 0.449-1 1-1h2.5C3.776 20 4 20.224 4 20.5S3.776 21 3.5 21H2.009C2.944 22.247 4.405 23 6 23c2.605 0 4.746-1.954 4.979-4.545 0.025-0.275 0.27-0.467 0.543-0.453 0.275 0.024 0.478 0.268 0.454 0.543zM11.5 12c-0.276 0-0.5 0.224-0.5 0.5v2.198C9.895 13.023 8.039 12 6 12c-3.126 0-5.695 2.345-5.976 5.455-0.025 0.275 0.178 0.519 0.453 0.543 0.015 0 0.03 2e-3 0.045 2e-3 0.256 0 0.474-0.195 0.498-0.455C1.253 14.954 3.394 13 5.999 13c1.596 0 3.056 0.753 3.991 2H8.499c-0.276 0-0.5 0.224-0.5 0.5s0.224 0.5 0.5 0.5h2.5c0.551 0 1-0.448 1-1v-2.5c0-0.276-0.224-0.5-0.499-0.5zM21 12c0-0.552-0.448-1-1-1s-1 0.448-1 1 0.448 1 1 1 1-0.448 1-1zM21.5 4h-17C3.356 4 2.287 3.429 1.636 2.5 2.269 1.596 3.315 1 4.5 1h19C23.776 1 24 0.776 24 0.5S23.776 0 23.5 0h-19C2.002-4e-3 0.018 2.074 0 4.5v7C0 11.776 0.224 12 0.5 12S1 11.776 1 11.5v-7c0-0.349 0.067-0.679 0.162-0.997C2.007 4.439 3.215 5 4.5 5h17C22.327 5 23 5.673 23 6.5v11c0 0.827-0.673 1.5-1.5 1.5h-7c-0.276 0-0.5 0.224-0.5 0.5s0.224 0.5 0.5 0.5h7c1.378 0 2.5-1.121 2.5-2.5v-11C24 5.121 22.878 4 21.5 4z" />
</svg>