<svg id="wallet_buyer_Layer_1" viewBox="0 0 24 24" fill="currentColor" width="32" height="32" data-name="Layer 1" xmlns="http://www.w3.org/2000/svg" xmlns:xlink="http://www.w3.org/1999/xlink">
    <title>wallet-buyer</title>
    <path d="M24 6.5v6c0 0.276-0.224 0.5-0.5 0.5S23 12.776 23 12.5v-6C23 5.672 22.328 5 21.5 5h-17C3.215 5 2.007 4.439 1.162 3.503 1.067 3.821 1 4.151 1 4.5v11C1 17.433 2.567 19 4.5 19h9c0.276 0 0.5 0.224 0.5 0.5S13.776 20 13.5 20h-9C2.015 20 0 17.985 0 15.5v-11C0 2.015 2.015 0 4.5 0h19C23.776 0 24 0.224 24 0.5S23.776 1 23.5 1h-19C3.315 1 2.269 1.596 1.636 2.5 2.287 3.429 3.355 4 4.5 4h17C22.881 4 24 5.119 24 6.5zM19 18c-1.654 0-3-1.346-3-3s1.346-3 3-3 3 1.346 3 3-1.346 3-3 3zM19 17c1.103 0 2-0.897 2-2s-0.897-2-2-2-2 0.897-2 2 0.897 2 2 2zM19 19c-2.562 0-4.71 1.91-4.997 4.444-0.031 0.274 0.166 0.522 0.44 0.553 0.273 0.03 0.522-0.167 0.553-0.44 0.23-2.027 1.951-3.556 4.003-3.556s3.773 1.529 4.003 3.556c0.029 0.255 0.245 0.444 0.496 0.444 0.019 0 0.038 0 0.057-3e-3 0.274-0.031 0.472-0.278 0.44-0.553C23.708 20.911 21.56 19.001 19 19z" />
</svg>