<svg id="warehouse_alt_Layer_1" viewBox="0 0 24 24" fill="currentColor" width="32" height="32" data-name="Layer 1" xmlns="http://www.w3.org/2000/svg" xmlns:xlink="http://www.w3.org/1999/xlink">
    <title>warehouse-alt</title>
    <path d="M21.5 24c-1.379 0-2.5-1.122-2.5-2.5v-8c0-0.827-0.673-1.5-1.5-1.5h-11C5.673 12 5 12.673 5 13.5v8C5 22.878 3.879 24 2.5 24S0 22.878 0 21.5V9.561c0-1.499 0.741-2.893 1.983-3.73l7.5-5.061c1.527-1.031 3.504-1.032 5.033 0l7.5 5.061c1.242 0.837 1.983 2.232 1.983 3.73V21.5c0 1.378-1.121 2.5-2.499 2.5zM6.5 11h11c1.379 0 2.5 1.122 2.5 2.5v8c0 0.827 0.673 1.5 1.5 1.5s1.5-0.673 1.5-1.5V9.561c0-1.166-0.576-2.25-1.542-2.901l-7.5-5.061c-1.189-0.803-2.727-0.803-3.916 0l-7.5 5.061C1.576 7.311 1 8.396 1 9.561V21.5C1 22.327 1.673 23 2.5 23S4 22.327 4 21.5v-8C4 12.122 5.121 11 6.5 11zM9.8 24H8.2C7.538 24 7 23.461 7 22.8v-1.6C7 20.538 7.538 20 8.2 20h1.6c0.662 0 1.2 0.539 1.2 1.2v1.6c0 0.662-0.538 1.2-1.2 1.2zM8.2 21C8.09 21 8 21.09 8 21.2v1.6C8 22.91 8.09 23 8.2 23h1.6c0.11 0 0.2-0.09 0.2-0.2v-1.6c0-0.11-0.09-0.2-0.2-0.2zM9.8 18H8.2C7.538 18 7 17.461 7 16.8v-1.6C7 14.538 7.538 14 8.2 14h1.6c0.662 0 1.2 0.539 1.2 1.2v1.6c0 0.662-0.538 1.2-1.2 1.2zM8.2 15C8.09 15 8 15.09 8 15.2v1.6C8 16.91 8.09 17 8.2 17h1.6c0.11 0 0.2-0.09 0.2-0.2v-1.6c0-0.11-0.09-0.2-0.2-0.2zM15.8 24h-1.6c-0.662 0-1.2-0.539-1.2-1.2v-1.6c0-0.662 0.538-1.2 1.2-1.2h1.6c0.662 0 1.2 0.539 1.2 1.2v1.6c0 0.662-0.538 1.2-1.2 1.2zM14.2 21c-0.11 0-0.2 0.09-0.2 0.2v1.6c0 0.11 0.09 0.2 0.2 0.2h1.6c0.11 0 0.2-0.09 0.2-0.2v-1.6c0-0.11-0.09-0.2-0.2-0.2z" />
</svg>