<svg id="warranty_Layer_1" viewBox="0 0 24 24" fill="currentColor" width="32" height="32" data-name="Layer 1" xmlns="http://www.w3.org/2000/svg" xmlns:xlink="http://www.w3.org/1999/xlink">
    <title>warranty</title>
    <path d="M6.723 3.269c-0.193-0.197-0.19-0.514 8e-3-0.707 0.197-0.193 0.514-0.19 0.707 8e-3l2.998 3.062c0.492 0.492 1.3 0.492 1.796-4e-3l5.413-5.48c0.194-0.196 0.51-0.199 0.707-4e-3 0.196 0.194 0.198 0.51 4e-3 0.707l-5.415 5.481c-0.444 0.444-1.027 0.666-1.609 0.666s-1.164-0.221-1.606-0.664zM21.5 3C20.121 3 19 4.122 19 5.5v5.997c-0.391-0.294-0.86-0.466-1.359-0.494-0.664-0.042-1.306 0.188-1.808 0.637l-2.734 2.516c-0.43 0.396-0.793 0.847-1.1 1.336-0.305-0.488-0.669-0.941-1.098-1.336l-2.739-2.521C7.262 10.83 5.933 10.799 5 11.498V5.499c0-1.378-1.122-2.5-2.5-2.5S0 4.122 0 5.5v10.101c0 2.003 0.78 3.887 2.197 5.303l2.95 2.95C5.245 23.952 5.373 24 5.501 24s0.256-0.049 0.354-0.146c0.195-0.195 0.195-0.512 0-0.707l-2.95-2.95c-1.228-1.228-1.904-2.86-1.904-4.596V5.5c0-0.827 0.673-1.5 1.5-1.5s1.5 0.673 1.5 1.5c0 0-5e-3 8.054 0 8.082 0.021 0.547 0.227 1.093 0.607 1.544l2.616 2.721c0.191 0.199 0.508 0.206 0.707 0.014 0.199-0.191 0.205-0.508 0.014-0.707l-2.593-2.695c-0.476-0.567-0.462-1.409 0.032-1.96 0.55-0.614 1.499-0.666 2.108-0.12l2.734 2.516c1.128 1.039 1.776 2.514 1.776 4.047v4.559c0 0.276 0.224 0.5 0.5 0.5s0.5-0.224 0.5-0.5v-4.559c0-0.814-0.162-1.61-0.452-2.356 0.303-0.638 0.707-1.212 1.229-1.692l2.729-2.512c0.298-0.267 0.688-0.398 1.08-0.38 0.398 0.022 0.766 0.198 1.032 0.496 0.246 0.275 0.372 0.622 0.382 0.968v9e-3c7e-3 0.346-0.102 0.69-0.327 0.959l-2.616 2.721c-0.191 0.199-0.186 0.516 0.014 0.707 0.097 0.093 0.222 0.14 0.347 0.14 0.131 0 0.263-0.051 0.36-0.153l2.639-2.746c0.375-0.446 0.561-0.995 0.573-1.546 2e-3-0.019 0.011-8.054 0.011-8.054 0-0.827 0.673-1.5 1.5-1.5s1.5 0.673 1.5 1.5v10.101c0 1.736-0.676 3.368-1.903 4.596l-2.95 2.95c-0.195 0.195-0.195 0.512 0 0.707 0.098 0.098 0.226 0.146 0.354 0.146s0.256-0.049 0.354-0.146l2.95-2.95c1.416-1.417 2.196-3.3 2.196-5.303V5.5c0-1.378-1.121-2.5-2.504-2.5z" />
</svg>