<svg id="washer_Layer_1" viewBox="0 0 24 24" fill="currentColor" width="32" height="32" data-name="Layer 1" xmlns="http://www.w3.org/2000/svg" xmlns:xlink="http://www.w3.org/1999/xlink">
    <title>washer</title>
    <path d="M17.5 0h-11C4.019 0 2 2.019 2 4.5v15C2 21.981 4.019 24 6.5 24h11c2.481 0 4.5-2.019 4.5-4.5v-15C22 2.019 19.981 0 17.5 0zM21 19.5c0 1.93-1.57 3.5-3.5 3.5h-11C4.57 23 3 21.43 3 19.5v-15C3 2.57 4.57 1 6.5 1h11C19.43 1 21 2.57 21 4.5zM6 5C5.448 5 5 4.552 5 4s0.448-1 1-1 1 0.448 1 1-0.448 1-1 1zM9 4c0-0.552 0.448-1 1-1s1 0.448 1 1-0.448 1-1 1-1-0.448-1-1zM12 8c-3.309 0-6 2.691-6 6s2.691 6 6 6 6-2.691 6-6-2.691-6-6-6zM12 9c2.684 0 4.865 2.131 4.979 4.788C16.666 14.031 15.941 14.5 15 14.5c-1.326 0-2.709-0.907-2.723-0.916C12.211 13.54 10.632 12.5 9 12.5c-0.768 0-1.41 0.229-1.895 0.482C7.577 10.712 9.592 9 12 9zM12 19c-2.684 0-4.865-2.131-4.979-4.788C7.334 13.969 8.059 13.5 9 13.5c1.326 0 2.709 0.907 2.723 0.916C11.789 14.46 13.368 15.5 15 15.5c0.768 0 1.41-0.229 1.895-0.482C16.423 17.288 14.408 19 12 19z" />
</svg>