<svg id="waste_Layer_1" viewBox="0 0 24 24" fill="currentColor" width="32" height="32" data-name="Layer 1" xmlns="http://www.w3.org/2000/svg" xmlns:xlink="http://www.w3.org/1999/xlink">
    <title>waste</title>
    <path d="M13.055 1.871c0.126-0.246 0.43-0.342 0.673-0.218C14.171 1.88 14.659 2 15.137 2c1.168 0 2.314-0.72 2.667-1.674 0.145-0.393 0.793-0.393 0.938 0C19.095 1.28 20.242 2 21.41 2c0.653 0 1.28-0.229 1.765-0.646 0.211-0.18 0.526-0.156 0.705 0.053 0.181 0.21 0.156 0.525-0.053 0.705C23.161 2.684 22.303 3 21.41 3c-1.239 0-2.434-0.594-3.137-1.494-1.064 1.363-3.282 1.916-5 1.038-0.246-0.126-0.344-0.428-0.218-0.673zM2.591 3c1.591 0 3.107-0.979 3.605-2.326 0.096-0.26-0.036-0.547-0.295-0.643C5.64-0.067 5.354 0.068 5.258 0.326 4.905 1.28 3.758 2 2.59 2 1.937 2 1.31 1.771 0.825 1.354 0.615 1.174 0.3 1.198 0.12 1.407c-0.181 0.21-0.156 0.525 0.053 0.705C0.839 2.684 1.697 3 2.591 3zM19.487 14.026c-6e-3 0-0.013 0-0.019 0-0.016 0-0.03 0.011-0.046 9e-3zM23.879 22.408c0.181 0.21 0.156 0.525-0.053 0.705-0.666 0.572-1.524 0.888-2.417 0.888-1.239 0-2.434-0.594-3.137-1.494-0.703 0.9-1.896 1.494-3.136 1.494s-2.434-0.594-3.137-1.494c-0.703 0.9-1.897 1.494-3.137 1.494s-2.433-0.594-3.136-1.494c-0.703 0.9-1.897 1.494-3.137 1.494-0.893 0-1.751-0.315-2.417-0.888-0.209-0.18-0.233-0.495-0.053-0.705 0.18-0.209 0.495-0.232 0.705-0.053 0.484 0.416 1.111 0.646 1.765 0.646 1.168 0 2.315-0.72 2.668-1.674 0.145-0.393 0.793-0.393 0.938 0 0.353 0.954 1.499 1.674 2.667 1.674s2.315-0.72 2.668-1.674c0.143-0.387 0.771-0.389 0.927-0.012l2.804-5.958c0.71-1.522 2.274-2.452 3.921-2.349l1.604-3.253c0.157-0.323 0.433-0.568 0.775-0.688 0.344-0.116 0.712-0.098 1.038 0.062l0.255 0.123c0.674 0.328 0.956 1.142 0.628 1.815l-1.583 3.21c1.133 1.213 1.424 2.996 0.715 4.518l-2 4.093C20.871 22.958 21.138 23 21.407 23c0.653 0 1.28-0.229 1.765-0.646 0.211-0.18 0.526-0.156 0.707 0.054zM19.705 22.475l2.009-4.11c0.56-1.2 0.205-2.707-0.765-3.623-0.158-0.151-0.2-0.388-0.104-0.583l1.741-3.53c0.085-0.176 0.011-0.39-0.167-0.477l-0.255-0.123c-0.088-0.043-0.185-0.048-0.273-0.017-0.091 0.031-0.164 0.096-0.205 0.182l-1.759 3.565c-0.086 0.175-0.271 0.266-0.46 0.266-1.323-0.148-2.739 0.552-3.3 1.754l-3.042 6.463C13.653 22.704 14.389 23 15.135 23c1.168 0 2.314-0.72 2.667-1.674 0.145-0.393 0.793-0.393 0.938 0 0.168 0.454 0.519 0.852 0.965 1.149zM0.174 13.112c-0.209-0.18-0.233-0.495-0.053-0.705 0.18-0.209 0.495-0.232 0.705-0.053C1.31 12.77 1.937 13 2.591 13c0.264 0 0.526-0.041 0.779-0.109l-2.255-4.11C0.92 8.426 0.877 8.015 0.994 7.627s0.379-0.706 0.737-0.895l5.837-3.069C7.712 2.697 8.374 0.442 11.43 5e-3c0.265-0.036 0.525 0.15 0.565 0.425 0.039 0.273-0.151 0.526-0.425 0.565-2.631 0.375-2.989 2.351-3.037 2.94l4.398 8.115c0.237 0.255 0.532 0.478 0.878 0.643 0.249 0.119 0.354 0.417 0.235 0.667-0.119 0.249-0.415 0.354-0.667 0.235-0.437-0.208-0.802-0.502-1.117-0.829-0.064-0.041-0.232-0.225-0.26-0.261-0.703 0.9-1.897 1.494-3.137 1.494s-2.433-0.594-3.136-1.494c-0.703 0.9-1.897 1.494-3.137 1.494-0.893 0-1.751-0.315-2.416-0.887zM2.576 9.365 8.618 6.188 7.796 4.671l-5.6 2.944C2.077 7.678 1.99 7.784 1.951 7.914 1.912 8.043 1.926 8.18 1.991 8.299zM4.285 12.48c0.449-0.296 0.804-0.697 0.973-1.155 0.145-0.393 0.793-0.393 0.938 0 0.353 0.954 1.499 1.674 2.667 1.674 1.115 0 2.203-0.658 2.607-1.548L9.094 7.066 3.057 10.241z" />
</svg>