<svg id="watch_smart_Layer_1" viewBox="0 0 24 24" fill="currentColor" width="32" height="32" data-name="Layer 1" xmlns="http://www.w3.org/2000/svg" xmlns:xlink="http://www.w3.org/1999/xlink">
    <title>watch-smart</title>
    <path d="M18 3.76V0.5C18 0.224 17.776 0 17.5 0S17 0.224 17 0.5v2.757C16.531 3.091 16.026 3 15.5 3h-7C7.974 3 7.469 3.091 7 3.257V0.5C7 0.224 6.776 0 6.5 0S6 0.224 6 0.5v3.26C4.795 4.568 4 5.943 4 7.5v9c0 1.557 0.795 2.932 2 3.74v3.26C6 23.776 6.224 24 6.5 24S7 23.776 7 23.5v-2.757C7.469 20.909 7.974 21 8.5 21h7c0.526 0 1.031-0.091 1.5-0.257V23.5c0 0.276 0.224 0.5 0.5 0.5s0.5-0.224 0.5-0.5v-3.26c1.205-0.808 2-2.183 2-3.74v-9c0-1.557-0.795-2.932-2-3.74zM19 16.5c0 1.93-1.57 3.5-3.5 3.5h-7C6.57 20 5 18.43 5 16.5v-9C5 5.57 6.57 4 8.5 4h7c0.642 0 1.243 0.174 1.761 0.477 0 0 0 0 0 0 1.039 0.608 1.738 1.735 1.738 3.023zM14.854 14.146c0.195 0.195 0.195 0.512 0 0.707-0.098 0.098-0.226 0.146-0.354 0.146s-0.256-0.049-0.354-0.146l-2.5-2.5c-0.094-0.094-0.146-0.221-0.146-0.354v-4.5c0-0.276 0.224-0.5 0.5-0.5s0.5 0.224 0.5 0.5v4.293z" />
</svg>