<svg id="watch_calculator_Layer_1" viewBox="0 0 24 24" fill="currentColor" width="32" height="32" data-name="Layer 1" xmlns="http://www.w3.org/2000/svg" xmlns:xlink="http://www.w3.org/1999/xlink">
    <title>watch-calculator</title>
    <path d="M18 3.76V0.5C18 0.224 17.776 0 17.5 0S17 0.224 17 0.5v2.757C16.531 3.091 16.026 3 15.5 3h-7C7.974 3 7.469 3.09 7 3.256V0.499C7 0.223 6.776 0 6.5 0S6 0.224 6 0.5v3.26C4.795 4.568 4 5.943 4 7.5v9c0 1.557 0.795 2.932 2 3.74v3.26C6 23.776 6.224 24 6.5 24S7 23.776 7 23.5v-2.757C7.469 20.909 7.974 21 8.5 21h7c0.526 0 1.031-0.09 1.5-0.256v2.757c0 0.276 0.224 0.5 0.5 0.5s0.5-0.224 0.5-0.5v-3.26c1.205-0.808 2-2.183 2-3.74V7.5c0-1.557-0.795-2.932-2-3.74zM19 16.5c0 1.93-1.57 3.5-3.5 3.5h-7C6.57 20 5 18.429 5 16.499v-9c0-1.93 1.57-3.5 3.5-3.5h7c1.93 0 3.5 1.571 3.5 3.501zM8 12.5v1C8 13.776 7.776 14 7.5 14S7 13.776 7 13.5v-1C7 12.224 7.224 12 7.5 12S8 12.224 8 12.5zM11 12.5v1c0 0.276-0.224 0.5-0.5 0.5S10 13.776 10 13.5v-1c0-0.276 0.224-0.5 0.5-0.5s0.5 0.224 0.5 0.5zM14 12.5v1c0 0.276-0.224 0.5-0.5 0.5S13 13.776 13 13.5v-1c0-0.276 0.224-0.5 0.5-0.5s0.5 0.224 0.5 0.5zM8 16.5v1C8 17.776 7.776 18 7.5 18S7 17.776 7 17.5v-1C7 16.224 7.224 16 7.5 16S8 16.224 8 16.5zM11 16.5v1c0 0.276-0.224 0.5-0.5 0.5S10 17.776 10 17.5v-1c0-0.276 0.224-0.5 0.5-0.5s0.5 0.224 0.5 0.5zM14 16.5v1c0 0.276-0.224 0.5-0.5 0.5S13 17.776 13 17.5v-1c0-0.276 0.224-0.5 0.5-0.5s0.5 0.224 0.5 0.5zM17 12.5v1c0 0.276-0.224 0.5-0.5 0.5S16 13.776 16 13.5v-1c0-0.276 0.224-0.5 0.5-0.5s0.5 0.224 0.5 0.5zM17 16.5v1c0 0.276-0.224 0.5-0.5 0.5S16 17.776 16 17.5v-1c0-0.276 0.224-0.5 0.5-0.5s0.5 0.224 0.5 0.5zM15.5 6h-7C7.673 6 7 6.673 7 7.5v1C7 9.327 7.673 10 8.5 10h7c0.827 0 1.5-0.673 1.5-1.5v-1C17 6.673 16.327 6 15.5 6zM16 8.5C16 8.776 15.775 9 15.5 9h-7C8.225 9 8 8.776 8 8.5v-1C8 7.224 8.225 7 8.5 7h7C15.775 7 16 7.224 16 7.5z" />
</svg>