<svg id="watch_Layer_1" viewBox="0 0 24 24" fill="currentColor" width="32" height="32" data-name="Layer 1" xmlns="http://www.w3.org/2000/svg" xmlns:xlink="http://www.w3.org/1999/xlink">
    <title>watch</title>
    <path d="M14.854 14.146c0.195 0.195 0.195 0.512 0 0.707-0.098 0.098-0.226 0.146-0.354 0.146s-0.256-0.049-0.354-0.146l-2.5-2.5c-0.094-0.094-0.146-0.221-0.146-0.354v-5.5c0-0.276 0.224-0.5 0.5-0.5s0.5 0.224 0.5 0.5v5.293zM18 19.995c0 0 0 3e-3 0 5e-3v3.5c0 0.276-0.224 0.5-0.5 0.5S17 23.776 17 23.5v-2.842C15.528 21.511 13.82 22 12 22s-3.528-0.489-5-1.342V23.5C7 23.776 6.776 24 6.5 24S6 23.776 6 23.5V20c0 0 0-3e-3 0-5e-3-2.427-1.826-4-4.73-4-7.995s1.573-6.169 4-7.995C6 4.003 6 4.002 6 4V0.5C6 0.224 6.224 0 6.5 0S7 0.224 7 0.5v2.842C8.472 2.489 10.18 2 12 2s3.528 0.489 5 1.342V0.5C17 0.224 17.224 0 17.5 0S18 0.224 18 0.5V4c0 0 0 3e-3 0 5e-3 2.427 1.826 4 4.73 4 7.995s-1.573 6.169-4 7.995zM21 12c0-4.962-4.038-9-9-9s-9 4.038-9 9 4.038 9 9 9 9-4.037 9-9z" />
</svg>