<svg id="watch_fitness_Layer_1" viewBox="0 0 24 24" fill="currentColor" width="32" height="32" data-name="Layer 1" xmlns="http://www.w3.org/2000/svg" xmlns:xlink="http://www.w3.org/1999/xlink">
    <title>watch-fitness</title>
    <path d="M18 3.762V0.5C18 0.224 17.776 0 17.5 0S17 0.224 17 0.5v2.776C16.529 3.108 16.029 3 15.5 3h-7C7.971 3 7.471 3.108 7 3.276V0.5C7 0.224 6.776 0 6.5 0S6 0.224 6 0.5v3.262C4.795 4.57 4 5.944 4 7.5v9c0 1.557 0.795 2.93 2 3.738V23.5C6 23.776 6.224 24 6.5 24S7 23.776 7 23.5v-2.776C7.471 20.892 7.971 21 8.5 21h7c0.529 0 1.029-0.108 1.5-0.276V23.5c0 0.276 0.224 0.5 0.5 0.5s0.5-0.224 0.5-0.5v-3.262c1.205-0.808 2-2.182 2-3.738v-9c0-1.557-0.795-2.93-2-3.738zM19 16.5c0 1.93-1.57 3.5-3.5 3.5h-7C6.57 20 5 18.43 5 16.5v-9C5 5.57 6.57 4 8.5 4h7C17.43 4 19 5.57 19 7.5zM13.75 9C13.028 9 12.406 9.307 12 9.803 11.594 9.307 10.972 9 10.25 9 9.01 9 8 10.072 8 11.39c0 1.52 1.604 3.143 2.949 4.237 0.31 0.25 0.68 0.376 1.051 0.376s0.742-0.126 1.052-0.377C14.397 14.532 16 12.909 16 11.39 16 10.073 14.99 9 13.75 9zM12.422 14.85c-0.248 0.201-0.595 0.2-0.843 0C9.94 13.516 9 12.255 9 11.389c0-0.767 0.561-1.39 1.25-1.39 0.725 0 1.25 0.525 1.25 1.25 0 0.276 0.224 0.5 0.5 0.5s0.5-0.224 0.5-0.5c0-0.725 0.525-1.25 1.25-1.25 0.689 0 1.25 0.623 1.25 1.39 0 0.866-0.94 2.127-2.578 3.461z" />
</svg>