<svg id="water_rise_Layer_1" viewBox="0 0 24 24" fill="currentColor" width="32" height="32" data-name="Layer 1" xmlns="http://www.w3.org/2000/svg" xmlns:xlink="http://www.w3.org/1999/xlink">
    <title>water-rise</title>
    <path d="M7.122 4.829c-0.197-0.193-0.2-0.511-6e-3-0.707l3.488-3.543C10.986 0.197 11.515 4e-3 12.015 0c0.5 4e-3 0.999 0.195 1.379 0.576l3.49 3.546c0.194 0.196 0.191 0.514-6e-3 0.707s-0.514 0.191-0.707-6e-3L12.684 1.28c-0.056-0.057-0.118-0.104-0.184-0.144V12.5c0 0.276-0.224 0.5-0.5 0.5s-0.5-0.224-0.5-0.5V1.138c-0.066 0.04-0.129 0.088-0.187 0.146l-3.484 3.54c-0.195 0.197-0.511 0.199-0.707 5e-3zM23.174 22.354C22.69 22.77 22.063 23 21.409 23c-1.168 0-2.315-0.719-2.667-1.673C18.669 21.131 18.482 21 18.273 21s-0.396 0.13-0.469 0.327C17.452 22.281 16.305 23 15.137 23s-2.315-0.719-2.667-1.673c-0.146-0.393-0.793-0.393-0.938 0C11.18 22.281 10.033 23 8.865 23s-2.315-0.719-2.667-1.673c-0.146-0.393-0.793-0.393-0.938 0C4.908 22.281 3.761 23 2.593 23c-0.654 0-1.281-0.229-1.766-0.646-0.208-0.179-0.524-0.156-0.705 0.054-0.18 0.209-0.156 0.525 0.054 0.705C0.842 23.685 1.7 24 2.593 24c1.239 0 2.434-0.594 3.136-1.494C6.432 23.406 7.626 24 8.865 24s2.434-0.594 3.136-1.494c0.703 0.9 1.897 1.494 3.137 1.494s2.434-0.594 3.136-1.494C18.976 23.406 20.17 24 21.41 24c0.893 0 1.751-0.315 2.417-0.888 0.209-0.18 0.233-0.496 0.053-0.705-0.179-0.209-0.495-0.233-0.706-0.053zM0.174 17.113C0.84 17.685 1.698 18 2.591 18c1.239 0 2.434-0.594 3.136-1.494C6.43 17.406 7.624 18 8.863 18s2.434-0.594 3.136-1.494c0.703 0.9 1.897 1.494 3.137 1.494s2.434-0.594 3.136-1.494c0.702 0.9 1.896 1.494 3.136 1.494 0.893 0 1.751-0.315 2.417-0.888 0.209-0.18 0.233-0.496 0.053-0.705-0.179-0.208-0.495-0.233-0.705-0.053C22.689 16.77 22.062 17 21.408 17c-1.168 0-2.315-0.719-2.667-1.673C18.668 15.131 18.481 15 18.272 15s-0.396 0.13-0.469 0.327C17.451 16.281 16.304 17 15.136 17s-2.315-0.719-2.667-1.673c-0.146-0.393-0.793-0.393-0.938 0C11.179 16.281 10.032 17 8.864 17s-2.315-0.719-2.667-1.673c-0.146-0.393-0.793-0.393-0.938 0C4.907 16.281 3.76 17 2.592 17c-0.654 0-1.281-0.229-1.766-0.646-0.208-0.179-0.524-0.156-0.705 0.054-0.18 0.209-0.156 0.525 0.053 0.705z" />
</svg>