<svg id="water_ski_Layer_1" viewBox="0 0 24 24" fill="currentColor" width="32" height="32" data-name="Layer 1" xmlns="http://www.w3.org/2000/svg" xmlns:xlink="http://www.w3.org/1999/xlink">
    <title>water-ski</title>
    <path d="M5.5 5C6.879 5 8 3.878 8 2.5S6.879 0 5.5 0 3 1.122 3 2.5 4.121 5 5.5 5zM5.5 1C6.327 1 7 1.673 7 2.5S6.327 4 5.5 4 4 3.327 4 2.5 4.673 1 5.5 1zM3.581 13.874l4.121 1.82C7.883 15.774 8 15.953 8 16.151V19.5C8 19.776 8.224 20 8.5 20S9 19.776 9 19.5v-3.349c0-0.593-0.351-1.132-0.894-1.372L6 13.849V7.904l1.276 0.751C7.66 8.881 8.098 9.001 8.545 9.001H11.5c0.276 0 0.5-0.224 0.5-0.5s-0.224-0.5-0.5-0.5H8.545c-0.268 0-0.53-0.072-0.761-0.208 0 0-2.051-1.236-2.134-1.262-0.498-0.305-0.949-0.53-1.567-0.53h-5e-3c-1.146 2e-3-2.079 0.966-2.079 2.148v2.852c0 1.035 0.413 2.333 1.582 2.873zM3 8.148C3 7.526 3.495 7.001 4.081 7h3e-3C4.402 7 4.642 7.095 5 7.304v6.103l-1.007-0.445C3.26 12.622 3 11.692 3 10.999zM15.207 12c0.321 0 0.625-0.125 0.854-0.354L18.707 9H23.5C23.776 9 24 8.776 24 8.5S23.776 8 23.5 8h-4.793L16.06 5.353C15.832 5.125 15.529 5 15.207 5 14.541 5 14 5.542 14 6.207v4.586C14 11.459 14.541 12 15.207 12zM15 6.207c-6e-3-0.18 0.231-0.276 0.354-0.146L17.793 8.5l-2.438 2.439c-0.122 0.12-0.354 0.025-0.354-0.146zM23.879 22.408c0.181 0.209 0.156 0.525-0.053 0.705C23.16 23.685 22.302 24 21.409 24c-1.239 0-2.434-0.594-3.137-1.494-0.703 0.9-1.896 1.494-3.136 1.494s-2.434-0.594-3.137-1.494C11.296 23.406 10.102 24 8.862 24s-2.433-0.594-3.136-1.494C5.023 23.406 3.829 24 2.589 24c-0.893 0-1.751-0.315-2.417-0.887-0.209-0.18-0.233-0.496-0.053-0.705s0.495-0.234 0.705-0.054C1.308 22.771 1.935 23 2.589 23c1.168 0 2.315-0.719 2.668-1.673 0.145-0.393 0.793-0.393 0.938 0C6.548 22.281 7.694 23 8.862 23s2.315-0.719 2.668-1.673c0.145-0.393 0.793-0.393 0.938 0 0.353 0.954 1.5 1.673 2.668 1.673s2.314-0.719 2.667-1.673c0.145-0.393 0.793-0.393 0.938 0 0.353 0.954 1.5 1.673 2.668 1.673 0.653 0 1.28-0.229 1.765-0.646 0.211-0.18 0.526-0.155 0.705 0.054z" />
</svg>