<svg id="water_lower_Layer_1" viewBox="0 0 24 24" fill="currentColor" width="32" height="32" data-name="Layer 1" xmlns="http://www.w3.org/2000/svg" xmlns:xlink="http://www.w3.org/1999/xlink">
    <title>water-lower</title>
    <path d="M10.606 12.424C10.986 12.805 11.5 12.996 12 13c0.5-4e-3 1.015-0.197 1.396-0.579l3.487-3.543c0.194-0.196 0.191-0.514-6e-3-0.707-0.197-0.194-0.514-0.191-0.707 6e-3l-3.484 3.54c-0.057 0.058-0.12 0.105-0.187 0.146V0.5c0-0.276-0.224-0.5-0.5-0.5s-0.5 0.224-0.5 0.5v11.363c-0.065-0.039-0.127-0.087-0.184-0.144L7.828 8.176c-0.195-0.197-0.511-0.2-0.707-6e-3-0.197 0.193-0.2 0.511-6e-3 0.707zM21.409 24c-1.24 0-2.434-0.594-3.136-1.494C17.57 23.406 16.376 24 15.137 24S12.703 23.406 12 22.506C11.298 23.406 10.104 24 8.864 24s-2.434-0.594-3.136-1.494C5.025 23.406 3.831 24 2.592 24c-0.893 0-1.751-0.315-2.417-0.887-0.209-0.18-0.233-0.496-0.054-0.705 0.181-0.209 0.497-0.232 0.705-0.054C1.311 22.771 1.938 23 2.592 23c1.168 0 2.315-0.719 2.667-1.673 0.146-0.393 0.793-0.393 0.938 0C6.549 22.281 7.696 23 8.864 23s2.315-0.719 2.667-1.673c0.146-0.393 0.793-0.393 0.938 0C12.821 22.281 13.968 23 15.136 23s2.315-0.719 2.667-1.673C17.876 21.131 18.063 21 18.272 21v0c0.209 0 0.396 0.13 0.469 0.327C19.093 22.281 20.24 23 21.408 23c0.654 0 1.281-0.229 1.765-0.646 0.21-0.18 0.526-0.156 0.705 0.053 0.18 0.209 0.156 0.525-0.053 0.705C23.159 23.685 22.301 24 21.409 24zM23.826 17.112c0.209-0.18 0.233-0.496 0.053-0.705-0.179-0.208-0.495-0.233-0.705-0.053C22.69 16.77 22.063 17 21.409 17c-1.168 0-2.315-0.719-2.667-1.673C18.669 15.131 18.482 15 18.273 15v0c-0.209 0-0.396 0.13-0.469 0.327C17.452 16.281 16.305 17 15.137 17s-2.315-0.719-2.667-1.673c-0.146-0.393-0.793-0.393-0.938 0C11.18 16.281 10.033 17 8.865 17s-2.315-0.719-2.667-1.673c-0.146-0.393-0.793-0.393-0.938 0C4.908 16.281 3.761 17 2.593 17c-0.654 0-1.281-0.229-1.766-0.646-0.208-0.179-0.524-0.156-0.705 0.054-0.18 0.209-0.156 0.525 0.054 0.705C0.842 17.685 1.7 18 2.593 18c1.239 0 2.434-0.594 3.136-1.494C6.432 17.406 7.626 18 8.865 18s2.434-0.594 3.136-1.494c0.703 0.9 1.897 1.494 3.137 1.494s2.434-0.594 3.136-1.494C18.976 17.406 20.17 18 21.41 18c0.893 0 1.751-0.315 2.416-0.888z" />
</svg>