<svg id="water_bottle_Layer_1" viewBox="0 0 24 24" fill="currentColor" width="32" height="32" data-name="Layer 1" xmlns="http://www.w3.org/2000/svg" xmlns:xlink="http://www.w3.org/1999/xlink">
    <title>water-bottle</title>
    <path d="M20 14.5c0-1.272-0.682-2.387-1.7-3 1.009-0.608 1.688-1.711 1.698-2.972V8.5c1e-3-0.013 0-0.026 0-0.038-0.021-1.417-0.879-2.668-2.198-3.196L15 4.146V1h0.5C15.776 1 16 0.776 16 0.5S15.776 0 15.5 0h-7C8.224 0 8 0.224 8 0.5S8.224 1 8.5 1H9v3.146l-2.8 1.12C4.882 5.794 4.024 7.043 4.002 8.461 4.001 8.474 4 8.487 4 8.501v0.017c0 0.013 0 0.026 2e-3 0.039 0.019 1.248 0.696 2.34 1.698 2.944-1.017 0.613-1.7 1.728-1.7 3s0.682 2.387 1.699 3C4.682 18.114 4 19.229 4 20.501c0 1.93 1.57 3.5 3.5 3.5h9c1.93 0 3.5-1.57 3.5-3.5 0-1.272-0.682-2.387-1.699-3C19.318 16.888 20 15.773 20 14.5zM5.001 8.508c3e-3-1.024 0.619-1.933 1.57-2.313l3.114-1.246c0.19-0.076 0.314-0.26 0.314-0.464V1h4v3.484c0 0.205 0.124 0.388 0.314 0.464l3.114 1.246c0.951 0.381 1.567 1.289 1.57 2.312C18.995 9.881 17.874 11 16.498 11H7.5c-1.376 0-2.497-1.119-2.499-2.492zM19 20.5c0 1.378-1.121 2.5-2.5 2.5h-9C6.121 23 5 21.878 5 20.5S6.121 18 7.5 18h9c1.379 0 2.5 1.122 2.5 2.5zM7.5 17C6.121 17 5 15.878 5 14.5S6.121 12 7.5 12h9c1.379 0 2.5 1.122 2.5 2.5S17.879 17 16.5 17z" />
</svg>