<svg id="water_Layer_1" viewBox="0 0 24 24" fill="currentColor" width="32" height="32" data-name="Layer 1" xmlns="http://www.w3.org/2000/svg" xmlns:xlink="http://www.w3.org/1999/xlink">
    <title>water</title>
    <path d="M21.409 22c-1.24 0-2.434-0.594-3.136-1.494C17.57 21.406 16.376 22 15.137 22S12.703 21.406 12 20.506C11.298 21.406 10.104 22 8.864 22s-2.434-0.594-3.136-1.494C5.025 21.406 3.831 22 2.592 22c-0.893 0-1.751-0.315-2.417-0.887-0.209-0.18-0.233-0.496-0.054-0.705 0.181-0.209 0.497-0.232 0.705-0.054C1.311 20.771 1.938 21 2.592 21c1.168 0 2.315-0.719 2.667-1.673 0.146-0.393 0.793-0.393 0.938 0C6.549 20.281 7.696 21 8.864 21s2.315-0.719 2.667-1.673c0.146-0.393 0.793-0.393 0.938 0C12.821 20.281 13.968 21 15.136 21s2.315-0.719 2.667-1.673C17.876 19.131 18.063 19 18.272 19v0c0.209 0 0.396 0.13 0.469 0.327C19.093 20.281 20.24 21 21.408 21c0.654 0 1.281-0.229 1.765-0.646 0.21-0.18 0.526-0.156 0.705 0.053 0.18 0.209 0.156 0.525-0.053 0.705C23.159 21.685 22.301 22 21.409 22zM23.826 15.112c0.209-0.18 0.233-0.496 0.053-0.705-0.179-0.208-0.495-0.233-0.705-0.053C22.69 14.77 22.063 15 21.409 15c-1.168 0-2.315-0.719-2.667-1.673C18.669 13.131 18.482 13 18.273 13v0c-0.209 0-0.396 0.13-0.469 0.327C17.452 14.281 16.305 15 15.137 15s-2.315-0.719-2.667-1.673c-0.146-0.393-0.793-0.393-0.938 0C11.18 14.281 10.033 15 8.865 15s-2.315-0.719-2.667-1.673c-0.146-0.393-0.793-0.393-0.938 0C4.908 14.281 3.761 15 2.593 15c-0.654 0-1.281-0.229-1.766-0.646-0.208-0.179-0.524-0.156-0.705 0.054-0.18 0.209-0.156 0.525 0.054 0.705C0.842 15.685 1.7 16 2.593 16c1.239 0 2.434-0.594 3.136-1.494C6.432 15.406 7.626 16 8.865 16s2.434-0.594 3.136-1.494c0.703 0.9 1.897 1.494 3.137 1.494s2.434-0.594 3.136-1.494C18.976 15.406 20.17 16 21.41 16c0.893 0 1.751-0.315 2.416-0.888zM23.826 9.112c0.209-0.18 0.233-0.496 0.053-0.705-0.179-0.208-0.495-0.233-0.705-0.053C22.69 8.77 22.063 9 21.409 9c-1.168 0-2.315-0.719-2.667-1.673C18.669 7.131 18.482 7 18.273 7v0c-0.209 0-0.396 0.13-0.469 0.327C17.452 8.281 16.305 9 15.137 9s-2.315-0.719-2.667-1.673c-0.146-0.393-0.793-0.393-0.938 0C11.18 8.281 10.033 9 8.865 9S6.55 8.281 6.198 7.327c-0.146-0.393-0.793-0.393-0.938 0C4.908 8.281 3.761 9 2.593 9 1.939 9 1.312 8.771 0.827 8.354 0.619 8.175 0.303 8.198 0.122 8.408c-0.18 0.209-0.156 0.525 0.054 0.705C0.842 9.685 1.7 10 2.593 10c1.239 0 2.434-0.594 3.136-1.494C6.432 9.406 7.626 10 8.865 10s2.434-0.594 3.136-1.494C12.704 9.406 13.898 10 15.138 10s2.434-0.594 3.136-1.494C18.976 9.406 20.17 10 21.41 10c0.893 0 1.751-0.315 2.416-0.888zM23.826 3.112c0.209-0.18 0.233-0.496 0.053-0.705-0.179-0.208-0.495-0.232-0.705-0.053C22.69 2.77 22.063 3 21.409 3c-1.168 0-2.315-0.719-2.667-1.673C18.669 1.131 18.482 1 18.273 1v0c-0.209 0-0.396 0.13-0.469 0.327C17.452 2.281 16.305 3 15.137 3s-2.315-0.719-2.667-1.673c-0.146-0.393-0.793-0.393-0.938 0C11.18 2.281 10.033 3 8.865 3S6.55 2.281 6.198 1.327c-0.146-0.393-0.793-0.393-0.938 0C4.908 2.281 3.761 3 2.593 3 1.939 3 1.312 2.771 0.827 2.354 0.619 2.175 0.303 2.199 0.122 2.408c-0.18 0.209-0.156 0.525 0.054 0.705C0.842 3.685 1.7 4 2.593 4 3.832 4 5.027 3.406 5.729 2.506 6.432 3.406 7.626 4 8.865 4s2.434-0.594 3.136-1.494C12.704 3.406 13.898 4 15.138 4s2.434-0.594 3.136-1.494C18.976 3.406 20.17 4 21.41 4c0.893 0 1.751-0.315 2.416-0.888z" />
</svg>