<svg id="waterpolo_player_Layer_1" viewBox="0 0 24 24" fill="currentColor" width="32" height="32" data-name="Layer 1" xmlns="http://www.w3.org/2000/svg" xmlns:xlink="http://www.w3.org/1999/xlink">
    <title>waterpolo-player</title>
    <path d="M18 13c2.206 0 4-1.794 4-4s-1.794-4-4-4-4 1.794-4 4 1.794 4 4 4zM18 6c1.654 0 3 1.346 3 3s-1.346 3-3 3-3-1.346-3-3 1.346-3 3-3zM10.5 5C11.878 5 13 3.878 13 2.5S11.878 0 10.5 0 8 1.122 8 2.5 9.122 5 10.5 5zM10.5 1C11.327 1 12 1.673 12 2.5S11.327 4 10.5 4 9 3.327 9 2.5 9.673 1 10.5 1zM23.826 23.113C23.16 23.685 22.302 24 21.409 24c-1.239 0-2.434-0.594-3.137-1.494-0.703 0.9-1.896 1.494-3.136 1.494s-2.434-0.594-3.137-1.494C11.296 23.406 10.102 24 8.863 24s-2.434-0.594-3.136-1.494C5.024 23.406 3.83 24 2.59 24c-0.893 0-1.75-0.315-2.417-0.887-0.209-0.18-0.233-0.496-0.054-0.705 0.181-0.209 0.498-0.233 0.705-0.054C1.309 22.771 1.936 23 2.589 23c1.168 0 2.315-0.719 2.668-1.673C5.329 21.131 5.516 21 5.726 21s0.396 0.13 0.469 0.327C6.547 22.281 7.694 23 8.862 23s2.314-0.719 2.667-1.673c0.145-0.393 0.793-0.393 0.938 0 0.353 0.954 1.5 1.673 2.668 1.673s2.314-0.719 2.667-1.673c0.145-0.393 0.793-0.393 0.938 0 0.353 0.954 1.5 1.673 2.668 1.673 0.653 0 1.28-0.229 1.765-0.646 0.211-0.18 0.526-0.156 0.705 0.054 0.181 0.209 0.156 0.525-0.052 0.705zM4.177 18.95c-0.227-0.158-0.284-0.469-0.126-0.696l4.533-6.54-2.076-1.405C5.562 9.652 5 8.578 5 7.432V0.5C5 0.224 5.224 0 5.5 0S6 0.224 6 0.5v6.932C6 8.25 6.401 9.018 7.073 9.485l12.707 8.602c0.229 0.155 0.289 0.466 0.134 0.694-0.156 0.23-0.468 0.287-0.694 0.134l-9.808-6.639-4.539 6.548c-0.158 0.228-0.471 0.282-0.696 0.126z" />
</svg>