<svg id="waterpolo_hand_Layer_1" viewBox="0 0 24 24" fill="currentColor" width="32" height="32" data-name="Layer 1" xmlns="http://www.w3.org/2000/svg" xmlns:xlink="http://www.w3.org/1999/xlink">
    <title>waterpolo-hand</title>
    <path d="M24 14.5v8.999c0 0.276-0.224 0.5-0.5 0.5s-0.5-0.224-0.5-0.5V14.5c0-0.551-0.449-1-1-1s-1 0.449-1 1v2c0 0.276-0.224 0.5-0.5 0.5S20 16.776 20 16.5v-4.499c0-0.551-0.449-1-1-1s-1 0.449-1 1V16.5c0 0.276-0.224 0.5-0.5 0.5S17 16.776 17 16.5v-5.499c0-0.551-0.449-1-1-1s-1 0.449-1 1V16.5c0 0.276-0.224 0.5-0.5 0.5S14 16.776 14 16.5v-4.499c0-0.551-0.449-1-1-1s-1 0.449-1 1v6.312c0 0.628-0.759 0.942-1.203 0.498l-0.347-0.347c-0.519-0.518-1.32-0.616-1.86-0.226-0.701 0.475-0.788 1.542-0.182 2.124s3e-3 2e-3 4e-3 3e-3l2.668 2.779c0.308 0.321 0.081 0.854-0.364 0.854-0.138 0-0.27-0.056-0.365-0.156l-2.654-2.777c-1.033-0.999-0.884-2.823 0.308-3.639 0.88-0.633 2.132-0.545 2.995 0.186V12c0-1.103 0.897-2 2-2 0.415 0 0.8 0.127 1.12 0.344C14.393 9.564 15.128 9 16 9s1.607 0.564 1.88 1.344C18.2 10.127 18.585 10 19 10c1.103 0 2 0.897 2 2v0.778c0.295-0.172 0.634-0.278 1-0.278 1.103 0 2 0.897 2 2zM17.937 3.813c-0.273-0.371-0.304-0.852-0.079-1.256 0.957-1.715 2.451-2.622 4.183-2.555 1.071 0 1.958 0.887 1.958 1.978s-0.888 1.978-1.979 1.978c-1.081-2e-3-1.983 0.082-2.95 0.287-0.426 0.092-0.872-0.071-1.133-0.432zM18.741 3.219c0.047 0.063 0.103 0.051 0.124 0.047 1.039-0.22 2.011-0.311 3.16-0.308 0.537 0 0.976-0.439 0.976-0.978s-0.439-0.978-0.979-0.978c-1.667-0.09-2.771 1.07-3.29 2.042-0.046 0.083-9e-3 0.15 9e-3 0.175zM4.8 18.1c0.221 0.166 0.265 0.479 0.1 0.7-0.167 0.222-0.481 0.264-0.7 0.1-2.666-2.004-4.188-5.074-4.2-8.4C-7e-3 4.672 4.808-8e-3 10.5 2e-3c1.834 0.025 3.662 0.479 5.25 1.405 0.239 0.138 0.321 0.444 0.182 0.683s-0.444 0.32-0.683 0.182c-0.73-0.422-1.513-0.741-2.325-0.954 1.243 1.534 2.228 3.24 2.856 5.017 0.092 0.26-0.045 0.546-0.305 0.638-0.254 0.091-0.546-0.042-0.638-0.305-0.713-2.019-1.909-3.95-3.451-5.608-0.294-0.028-0.588-0.058-0.885-0.058-1.43 0-2.781 0.326-3.999 0.894 2.204 1.538 3.751 3.861 4.289 6.505 0.055 0.271-0.12 0.535-0.391 0.59C10.136 9.046 9.864 8.873 9.81 8.6 9.606 7.593 9.239 6.637 8.735 5.762 5.299 8.08 3.041 11.116 2.02 14.794c0.648 1.278 1.587 2.41 2.78 3.306zM1.436 13.318C2.655 9.94 4.923 7.122 8.189 4.923 7.472 3.936 6.56 3.094 5.503 2.437 2.805 4.114 1 7.097 1 10.5c0 0.975 0.159 1.918 0.436 2.818zM8.895 11.647c-0.195-0.195-0.512-0.197-0.707 0-1.307 1.303-2.27 2.983-2.711 4.731-0.067 0.268 0.095 0.539 0.363 0.607 0.261 0.067 0.54-0.093 0.607-0.363 0.397-1.575 1.266-3.091 2.447-4.268 0.195-0.195 0.196-0.511 1e-3-0.707zM23.455 6.816c0.721 0.674 0.715 1.988-0.012 2.655-0.668 0.698-1.976 0.697-2.645-7e-3-0.717-0.727-1.376-1.265-2.207-1.802-0.344-0.222-0.529-0.628-0.472-1.035 0.055-0.398 0.326-0.718 0.707-0.834 1.852-0.565 3.493-0.202 4.629 1.023zM20.47 6.532c-0.484 0-0.95 0.094-1.351 0.217 0.899 0.643 1.631 1.241 2.389 2.01 0.303 0.303 0.928 0.305 1.236-2e-3 0.344-0.313 0.333-0.952-0.014-1.252-0.677-0.735-1.492-0.972-2.26-0.973z" />
</svg>