<svg id="waterpolo_goal_Layer_1" viewBox="0 0 24 24" fill="currentColor" width="32" height="32" data-name="Layer 1" xmlns="http://www.w3.org/2000/svg" xmlns:xlink="http://www.w3.org/1999/xlink">
    <title>waterpolo-goal</title>
    <path d="M9.468 17.123c0 0 0 0 0 0v2e-3c-0.209 0.401-0.389 0.818-0.514 1.253-0.077 0.265 0.077 0.542 0.342 0.619 0.258 0.076 0.543-0.075 0.619-0.342 0.055-0.192 0.142-0.373 0.217-0.559 1.109 0.586 2.509 0.905 3.803 0.905 1.038-0.01 2.065-0.135 3.056-0.434 0.019 0.141 0.091 0.273 0.22 0.355 0.233 0.147 0.542 0.081 0.69-0.152 0.867-1.353 1.253-3.007 1.046-4.607-0.405-3.481-3.411-6.148-6.945-6.163-3.86 0-7 3.14-7 7-7e-3 1.344 0.423 2.643 1.101 3.77 0.15 0.235 0.461 0.299 0.69 0.151 0.232-0.149 0.3-0.458 0.151-0.69-0.03-0.046-0.05-0.097-0.079-0.144 0.503-2.288 1.763-4.243 3.745-5.82 0.467 0.757 0.765 1.616 0.86 2.522-0.826 0.607-1.518 1.41-2.002 2.334zM14.183 18c-1.189 0.054-2.563-0.246-3.6-0.797 0.396-0.64 0.903-1.199 1.501-1.633 0.78 0.319 1.784 0.677 2.821 0.598 1.183-0.074 2.164-0.366 3.077-0.915-0.03 0.715-0.183 1.413-0.457 2.066-1.071 0.427-2.193 0.632-3.342 0.681zM9.412 9.595c0.813-0.388 1.742-0.621 2.699-0.59 1.783 1.708 2.862 3.865 3.065 6.122-0.968 0.178-1.913-0.158-2.719-0.486-0.227-2.051-1.345-3.903-3.045-5.046zM17.922 14.083c-0.556 0.408-1.129 0.688-1.762 0.861-0.205-2.054-1.061-4.023-2.461-5.695 2.197 0.65 3.867 2.527 4.223 4.834zM6.234 16.655C6.081 16.121 6 15.565 6 15c0-1.974 0.963-3.723 2.438-4.818 0.601 0.338 1.139 0.765 1.584 1.273-1.828 1.445-3.096 3.188-3.788 5.2zM23.879 22.408c0.181 0.209 0.156 0.525-0.053 0.705C23.16 23.685 22.302 24 21.409 24c-1.239 0-2.434-0.594-3.137-1.494-0.703 0.9-1.896 1.494-3.136 1.494s-2.434-0.594-3.137-1.494C11.296 23.406 10.102 24 8.863 24s-2.434-0.594-3.136-1.494C5.024 23.406 3.83 24 2.59 24c-0.893 0-1.75-0.315-2.416-0.887-0.209-0.18-0.233-0.496-0.054-0.705 0.181-0.209 0.498-0.233 0.705-0.054C1.31 22.771 1.937 23 2.59 23c1.168 0 2.315-0.719 2.668-1.673C5.33 21.131 5.517 21 5.727 21s0.396 0.13 0.469 0.327C6.548 22.281 7.695 23 8.863 23s2.314-0.719 2.667-1.673c0.145-0.393 0.793-0.393 0.937 0 0.353 0.954 1.5 1.673 2.668 1.673s2.314-0.719 2.667-1.673c0.145-0.393 0.793-0.393 0.937 0 0.353 0.954 1.5 1.673 2.668 1.673 0.653 0 1.28-0.229 1.765-0.646 0.211-0.18 0.526-0.155 0.707 0.054zM19.5 0h-15C2.019 0 0 2.019 0 4.5v13c0 0.201 0.121 0.383 0.306 0.461 0.183 0.078 0.399 0.038 0.543-0.103l2.187-2.136C3.017 15.483 3 15.244 3 15c0-0.227 0.017-0.45 0.034-0.673L1 16.313v-4.908l2.13 2.13c0.065-0.393 0.147-0.78 0.26-1.154l-2.045-2.045 3.098-3.098 1.3 1.301c0.24-0.233 0.495-0.449 0.76-0.654L5.15 6.531 8.311 3.37l2.741 2.68C11.364 6.017 11.68 5.999 12 5.999c0.318 0 0.633 0.018 0.942 0.05l2.784-2.719 3.155 3.155-1.385 1.398c0.265 0.205 0.52 0.421 0.76 0.654l1.333-1.345 3.143 3.143-2.106 2.106c0.111 0.376 0.193 0.764 0.255 1.159L23 11.48v4.865l-2.032-1.989C20.983 14.569 21 14.781 21 14.998c0 0.25-0.017 0.497-0.037 0.742l2.144 2.096c0.176 0.144 0.419 0.223 0.629 0.103 0.163-0.087 0.265-0.256 0.265-0.441V4.5c0-2.481-2.019-4.5-4.501-4.5zM1 9.267V4.5c0-0.22 0.026-0.434 0.065-0.643l2.671 2.674zM4.443 5.824l-2.996-3C2.043 1.743 3.181 1 4.5 1h1.387l1.709 1.671zM8.302 1.965 7.316 1h1.951zM11.994 5.578 9.017 2.665l1.664-1.664h2.714l1.624 1.624zM14.809 1h1.873l-0.948 0.926zM19.585 5.776 16.442 2.633 18.114 1h1.387c1.308 0 2.437 0.73 3.038 1.796zM23 9.19 20.292 6.483 22.931 3.82C22.975 4.04 23 4.267 23 4.5z" />
</svg>