<svg id="wave_sine_Layer_1" viewBox="0 0 24 24" fill="currentColor" width="32" height="32" data-name="Layer 1" xmlns="http://www.w3.org/2000/svg" xmlns:xlink="http://www.w3.org/1999/xlink">
    <title>wave-sine</title>
    <path d="M17.75 21c-3.854 0-5.401-5.771-6.233-8.871C10.385 7.907 8.963 4 6.25 4 4.135 4 1.525 7.649 0.998 13.544c-0.025 0.275-0.276 0.472-0.543 0.454-0.274-0.024-0.478-0.268-0.453-0.542C0.535 7.495 3.221 3 6.25 3c3.854 0 5.401 5.771 6.233 8.871C13.615 16.093 15.037 20 17.75 20c2.115 0 4.725-3.649 5.252-9.544 0.024-0.276 0.271-0.486 0.543-0.454 0.274 0.024 0.478 0.268 0.453 0.542C23.465 16.504 20.779 21 17.75 21z" />
</svg>