<svg id="waveform_Layer_1" viewBox="0 0 24 24" fill="currentColor" width="32" height="32" data-name="Layer 1" xmlns="http://www.w3.org/2000/svg" xmlns:xlink="http://www.w3.org/1999/xlink">
    <title>waveform</title>
    <path d="M15.309 24.02h-5e-3c-0.498-2e-3-0.897-0.355-0.95-0.841L12 1.468 9.646 23.179c-0.053 0.485-0.452 0.839-0.95 0.841h-5e-3c-0.496 0-0.896-0.35-0.954-0.832L5.41 4.37 3.5 19.187c-0.061 0.456-0.429 0.788-0.896 0.812-0.462 0-0.868-0.273-0.973-0.722l-1.62-7.673c-0.057-0.271 0.116-0.535 0.386-0.593 0.268-0.05 0.535 0.114 0.593 0.386l1.557 7.369 1.928-14.955C4.534 3.341 4.928 3 5.413 3h3e-3c0.485 0 0.879 0.345 0.935 0.816l2.382 19.251 2.329-22.22C11.114 0.368 11.508 0.02 12 0.02s0.887 0.348 0.938 0.827l2.409 22.225 2.304-19.257c0.056-0.47 0.449-0.813 0.935-0.814 0.475-7e-3 0.882 0.34 0.94 0.812l1.928 14.955 1.568-7.371c0.058-0.271 0.33-0.435 0.594-0.385 0.27 0.058 0.442 0.323 0.385 0.594L22.37 19.27c-0.106 0.456-0.515 0.729-0.975 0.73-0.467-0.023-0.835-0.355-0.896-0.81l-1.91-14.819-2.328 18.82c-0.057 0.479-0.457 0.829-0.952 0.829z" />
</svg>