<svg id="wave_square_Layer_1" viewBox="0 0 24 24" fill="currentColor" width="32" height="32" data-name="Layer 1" xmlns="http://www.w3.org/2000/svg" xmlns:xlink="http://www.w3.org/1999/xlink">
    <title>wave-square</title>
    <path d="M18 22h-3.5c-1.654 0-3-1.346-3-3V5c0-1.103-0.897-2-2-2H6C4.897 3 4 3.897 4 5v7.5C4 12.776 3.776 13 3.5 13h-3C0.224 13 0 12.776 0 12.5S0.224 12 0.5 12H3V5c0-1.654 1.346-3 3-3h3.5c1.654 0 3 1.346 3 3v14c0 1.103 0.897 2 2 2H18c1.103 0 2-0.897 2-2v-7.5c0-0.276 0.224-0.5 0.5-0.5h3c0.276 0 0.5 0.224 0.5 0.5S23.776 12 23.5 12H21v7c0 1.654-1.346 3-3 3z" />
</svg>