<svg id="wave_triangle_Layer_1" viewBox="0 0 24 24" fill="currentColor" width="32" height="32" data-name="Layer 1" xmlns="http://www.w3.org/2000/svg" xmlns:xlink="http://www.w3.org/1999/xlink">
    <title>wave-triangle</title>
    <path d="M17 22h-0.012c-0.181-4e-3-0.346-0.107-0.43-0.267L6.975 3.525 0.931 13.754C0.79 13.992 0.485 14.07 0.246 13.93 8e-3 13.789-0.07 13.483 0.07 13.245L6.569 2.246C6.661 2.09 6.845 2.001 7.012 2c0.181 4e-3 0.346 0.107 0.43 0.267l9.583 18.208 6.044-10.229c0.142-0.237 0.448-0.315 0.685-0.176 0.238 0.141 0.316 0.447 0.176 0.685l-6.5 11C17.34 21.907 17.176 22.001 17 22z" />
</svg>