<svg id="wave_Layer_1" viewBox="0 0 24 24" fill="currentColor" width="32" height="32" data-name="Layer 1" xmlns="http://www.w3.org/2000/svg" xmlns:xlink="http://www.w3.org/1999/xlink">
    <title>wave</title>
    <path d="M23.879 22.407c0.181 0.21 0.156 0.525-0.053 0.705C23.16 23.684 22.302 24 21.409 24c-1.239 0-2.434-0.594-3.137-1.494-0.703 0.9-1.896 1.494-3.136 1.494s-2.434-0.594-3.137-1.494C11.296 23.406 10.102 24 8.863 24s-2.434-0.594-3.136-1.494C5.024 23.406 3.83 24 2.59 24c-0.893 0-1.75-0.315-2.417-0.888-0.209-0.18-0.233-0.495-0.054-0.705 0.181-0.21 0.498-0.232 0.705-0.053C1.309 22.77 1.936 23 2.589 23c1.168 0 2.315-0.72 2.668-1.674C5.329 21.13 5.516 21 5.726 21s0.396 0.131 0.469 0.327C6.547 22.28 7.694 23 8.862 23s2.314-0.72 2.667-1.674c0.145-0.393 0.793-0.393 0.938 0C12.82 22.28 13.967 23 15.135 23s2.314-0.72 2.667-1.674c0.145-0.393 0.793-0.393 0.938 0C19.093 22.28 20.24 23 21.408 23c0.653 0 1.28-0.229 1.765-0.646 0.211-0.18 0.526-0.157 0.706 0.053zM0.358 17.835C2.843 18.569 6 16.81 6 13.5v-3C6 5.262 10.262 1 15.5 1c0.547 0 1.093 0.048 1.63 0.142C13.411 1.926 11 5.829 11 9.5c0 5.005 2.561 8.5 6.228 8.5 1.24 0 2.434-0.594 3.136-1.494 0.703 0.9 1.897 1.494 3.137 1.494 0.276 0 0.5-0.224 0.5-0.5s-0.224-0.5-0.5-0.5c-1.168 0-2.315-0.72-2.668-1.674-0.146-0.395-0.794-0.392-0.938 0-0.353 0.953-1.498 1.673-2.667 1.673-3.078 0-5.228-3.084-5.228-7.5 0-3.547 2.67-7.5 6.5-7.5 0.562 0 1.139 0.079 1.711 0.236 0.244 0.065 0.499-0.059 0.595-0.294 0.096-0.234 0-0.503-0.22-0.625C19.034 0.455 17.275 0 15.5 0 9.71 0 5 4.71 5 10.5v3c0 2.663-2.462 3.935-4.358 3.376-0.261-0.077-0.542 0.073-0.621 0.338-0.078 0.265 0.073 0.543 0.337 0.621z" />
</svg>