<svg id="web_browser_bomb_Layer_1" viewBox="0 0 24 24" fill="currentColor" width="32" height="32" data-name="Layer 1" xmlns="http://www.w3.org/2000/svg" xmlns:xlink="http://www.w3.org/1999/xlink">
    <title>web-browser-bomb</title>
    <path d="M6.756 13.976c-0.256 0.085-0.545-0.056-0.63-0.322-0.106-0.328-0.117-0.655-0.125-0.894-0.021-0.654 0.305-1.405 0.811-1.869C7.628 10.142 8.427 10 9.617 10c1.37 4e-3 2.869 0.254 3.963 0.429 0.272 0.043 0.458 0.3 0.415 0.572-0.045 0.273-0.297 0.459-0.573 0.415-1.108-0.177-2.523-0.413-3.805-0.416-1.12 0-1.598 0.141-2.129 0.628-0.33 0.302-0.497 0.792-0.486 1.099 6e-3 0.199 0.014 0.425 0.076 0.619 0.085 0.263-0.059 0.544-0.322 0.63zM17 19c0 2.757-2.243 5-5 5s-5-2.243-5-5c0-0.726 0.163-1.412 0.443-2.035l-0.352-0.352c-0.29-0.29-0.29-0.759 0-1.048L8.456 14.2c0.289-0.29 0.759-0.29 1.048 0l0.32 0.32c0.66-0.322 1.392-0.519 2.175-0.519 2.757 0 5 2.243 5.001 4.999zM16 19c0-2.206-1.794-4-4-4s-4 1.794-4 4 1.794 4 4 4 4-1.794 4-4zM24 4.5v13c0 2.481-2.019 4.5-4.5 4.5H19c-0.276 0-0.5-0.224-0.5-0.5S18.724 21 19 21h0.5c1.93 0 3.5-1.57 3.5-3.5V8H1v9.5C1 19.43 2.57 21 4.5 21H5c0.276 0 0.5 0.224 0.5 0.5S5.276 22 5 22H4.5C2.019 22 0 19.981 0 17.5v-13C0 2.019 2.019 0 4.5 0h15C21.981 0 24 2.019 24 4.5zM23 7V4.5C23 2.57 21.43 1 19.5 1h-15C2.57 1 1 2.57 1 4.5V7zM4 3C3.448 3 3 3.448 3 4s0.448 1 1 1 1-0.448 1-1-0.448-1-1-1zM7 3C6.448 3 6 3.448 6 4s0.448 1 1 1 1-0.448 1-1-0.448-1-1-1zM10 3C9.448 3 9 3.448 9 4s0.448 1 1 1 1-0.448 1-1-0.448-1-1-1zM19 11c0-0.205-0.125-0.388-0.314-0.464l-0.872-0.349-0.349-0.872c-0.076-0.19-0.26-0.314-0.464-0.314s-0.388 0.125-0.464 0.314l-0.347 0.867-0.866 0.328c-0.191 0.072-0.319 0.254-0.323 0.458-4e-3 0.205 0.117 0.391 0.306 0.47l0.879 0.37 0.351 0.877c0.076 0.19 0.26 0.314 0.464 0.314s0.388-0.125 0.464-0.314l0.349-0.872 0.872-0.349C18.876 11.388 19 11.204 19 11z" />
</svg>