<svg id="webcam_Layer_1" viewBox="0 0 24 24" fill="currentColor" width="32" height="32" data-name="Layer 1" xmlns="http://www.w3.org/2000/svg" xmlns:xlink="http://www.w3.org/1999/xlink">
    <title>webcam</title>
    <path d="M22 10c0-5.514-4.486-10-10-10S2 4.486 2 10c0 3.94 2.29 7.354 5.609 8.983-0.715 0.524-1.33 1.184-1.8 1.939-0.395 0.634-0.415 1.401-0.054 2.052C6.112 23.617 6.764 24 7.5 24h8.982c0.726 0 1.4-0.396 1.759-1.032 0.353-0.625 0.345-1.358-0.02-1.963-0.474-0.786-1.104-1.473-1.843-2.016C19.703 17.362 21.999 13.945 22 10zM15.295 19.469c0.846 0.501 1.562 1.21 2.07 2.053 0.179 0.296 0.181 0.644 5e-3 0.955-0.186 0.328-0.518 0.524-0.889 0.524H7.5c-0.367 0-0.692-0.191-0.87-0.511-0.183-0.329-0.172-0.717 0.028-1.038 0.514-0.824 1.227-1.516 2.064-2.003 1.027 0.357 2.13 0.552 3.278 0.552s2.244-0.194 3.268-0.549c9e-3 6e-3 0.018 0.012 0.027 0.017zM12 19c-4.962 0-9-4.038-9-9s4.038-9 9-9 9 4.038 9 9-4.038 9-9 9zM12 5c-2.757 0-5 2.243-5 5s2.243 5 5 5 5-2.243 5-5-2.243-5-5-5zM12 14c-2.206 0-4-1.794-4-4s1.794-4 4-4 4 1.794 4 4-1.794 4-4 4z" />
</svg>