<svg id="webinar_Layer_1" viewBox="0 0 24 24" fill="currentColor" width="32" height="32" data-name="Layer 1" xmlns="http://www.w3.org/2000/svg" xmlns:xlink="http://www.w3.org/1999/xlink">
    <title>webinar</title>
    <path d="M9.5 8.5C9.5 7.122 8.378 6 7 6S4.5 7.122 4.5 8.5 5.622 11 7 11 9.5 9.878 9.5 8.5zM5.5 8.5C5.5 7.673 6.173 7 7 7s1.5 0.673 1.5 1.5S7.827 10 7 10 5.5 9.327 5.5 8.5zM24 11.5v4c0 2.481-2.019 4.5-4.5 4.5h-7v3h5c0.276 0 0.5 0.224 0.5 0.5S17.776 24 17.5 24h-11C6.224 24 6 23.776 6 23.5S6.224 23 6.5 23h5v-3h-7C2.019 20 0 17.981 0 15.5v-9C0 4.019 2.019 2 4.5 2h7C11.776 2 12 2.224 12 2.5S11.776 3 11.5 3h-7C2.57 3 1 4.57 1 6.5v9C1 17.43 2.57 19 4.5 19h15c1.93 0 3.5-1.57 3.5-3.5v-4c0-0.276 0.224-0.5 0.5-0.5s0.5 0.224 0.5 0.5zM7 12c1.995 0 3.712 1.474 3.995 3.429 0.04 0.273-0.15 0.526-0.423 0.566-0.268 0.039-0.528-0.149-0.566-0.424C9.794 14.105 8.502 13 7.001 13s-2.793 1.105-3.005 2.571c-0.039 0.273-0.291 0.458-0.566 0.424-0.273-0.04-0.463-0.293-0.423-0.566C3.289 13.474 5.007 12 7 12zM23.268 0.732C22.796 0.26 22.168 0 21.5 0h-5.001C15.121 2e-3 14 1.124 14 2.502l2e-3 7.359c0 0.438 0.244 0.831 0.637 1.024 0.391 0.193 0.852 0.149 1.201-0.119l2.302-1.767H21.5c1.379 0 2.5-1.122 2.5-2.5V2.5c0-0.668-0.26-1.296-0.732-1.768zM23 6.5C23 7.327 22.327 8 21.5 8h-3.528c-0.11 0-0.217 0.036-0.305 0.104l-2.437 1.87c-0.108 0.071-0.218 0.017-0.229-0.112l-2e-3-7.359c0-0.827 0.673-1.5 1.499-1.5h5c0 0 0-1e-3 0-1e-3 0.4 0 0.777 0.156 1.061 0.439s0.439 0.66 0.439 1.061z" />
</svg>