<svg id="website_design_Layer_1" viewBox="0 0 24 24" fill="currentColor" width="32" height="32" data-name="Layer 1" xmlns="http://www.w3.org/2000/svg" xmlns:xlink="http://www.w3.org/1999/xlink">
    <title>website-design</title>
    <path d="M24 7.5v12c0 2.481-2.019 4.5-4.5 4.5h-15C2.019 24 0 21.981 0 19.5v-13C0 4.019 2.019 2 4.5 2h10C14.776 2 15 2.224 15 2.5S14.776 3 14.5 3h-10C2.57 3 1 4.57 1 6.5V9h6.5C7.776 9 8 9.224 8 9.5S7.776 10 7.5 10H1v9.5C1 21.43 2.57 23 4.5 23h15c1.93 0 3.5-1.57 3.5-3.5V10h-1.5C21.224 10 21 9.776 21 9.5S21.224 9 21.5 9H23V7.5C23 7.224 23.224 7 23.5 7S24 7.224 24 7.5zM3 6c0 0.552 0.448 1 1 1s1-0.448 1-1-0.448-1-1-1-1 0.448-1 1zM5.5 19C5.224 19 5 19.224 5 19.5S5.224 20 5.5 20h13c0.276 0 0.5-0.224 0.5-0.5S18.776 19 18.5 19zM6 6c0 0.552 0.448 1 1 1s1-0.448 1-1-0.448-1-1-1-1 0.448-1 1zM11 6c0-0.552-0.448-1-1-1S9 5.448 9 6s0.448 1 1 1 1-0.448 1-1zM11.253 10.019c7.125-8.332 7.8-9.118 7.837-9.16 1.141-1.137 2.958-1.137 4.074-0.022 1.115 1.118 1.109 2.941-0.012 4.065l-8.172 8.815c0 0-5e-3 3e-3-8e-3 5e-3-0.01 0.157-9e-3 0.314-0.039 0.471C14.617 15.819 13.123 17 11.382 17h-3.95c-0.458 0-0.877-0.21-1.15-0.578-0.271-0.365-0.352-0.825-0.221-1.261 0.444-1.472 1.832-4.856 5.19-5.138 1e-3-1e-3 1e-3-3e-3 2e-3-4e-3zM12.455 10.151c0.678 0.193 1.289 0.57 1.746 1.125 0.283 0.343 0.477 0.737 0.611 1.151l2.104-2.269c-0.388-1.142-1.369-1.933-2.635-2.141-0.549 0.643-1.162 1.359-1.826 2.134zM13.43 11.913C12.952 11.333 12.249 11 11.5 11c-2.866 0.114-4.089 3.15-4.481 4.45-0.088 0.265 0.135 0.558 0.414 0.55h3.95c1.264 0 2.344-0.84 2.569-1.997 0.146-0.75-0.044-1.512-0.522-2.09zM15.015 7.158c1.187 0.346 2.129 1.124 2.647 2.195l4.769-5.144c0.746-0.748 0.751-1.938 0.025-2.666-0.725-0.724-1.909-0.725-2.638 0-6e-3 8e-3-0.387 0.45-4.803 5.615z" />
</svg>