<svg id="website_structure_Layer_1" viewBox="0 0 24 24" fill="currentColor" width="32" height="32" data-name="Layer 1" xmlns="http://www.w3.org/2000/svg" xmlns:xlink="http://www.w3.org/1999/xlink">
    <title>website-structure</title>
    <path d="M17.5 19H17v-0.5c0-1.103-0.897-2-2-2h-2.5V15H13c0.827 0 1.5-0.673 1.5-1.5v-2c0-0.827-0.673-1.5-1.5-1.5h-2c-0.827 0-1.5 0.673-1.5 1.5v2c0 0.827 0.673 1.5 1.5 1.5h0.5v1.5H9c-1.103 0-2 0.897-2 2V19H6.5C5.673 19 5 19.673 5 20.5v2C5 23.327 5.673 24 6.5 24h2c0.827 0 1.5-0.673 1.5-1.5v-2c0-0.827-0.673-1.5-1.5-1.5H8v-0.5c0-0.551 0.448-1 1-1h6c0.552 0 1 0.449 1 1V19h-0.5c-0.827 0-1.5 0.673-1.5 1.5v2c0 0.827 0.673 1.5 1.5 1.5h2c0.827 0 1.5-0.673 1.5-1.5v-2c0-0.827-0.673-1.5-1.5-1.5zM10.5 13.5v-2c0-0.276 0.225-0.5 0.5-0.5h2c0.275 0 0.5 0.224 0.5 0.5v2c0 0.276-0.225 0.5-0.5 0.5h-2c-0.275 0-0.5-0.224-0.5-0.5zM9 20.5v2C9 22.776 8.775 23 8.5 23h-2C6.225 23 6 22.776 6 22.5v-2C6 20.224 6.225 20 6.5 20h2C8.775 20 9 20.224 9 20.5zM18 22.5c0 0.276-0.225 0.5-0.5 0.5h-2c-0.275 0-0.5-0.224-0.5-0.5v-2c0-0.276 0.225-0.5 0.5-0.5h2c0.275 0 0.5 0.224 0.5 0.5zM19.5 0h-15C2.019 0 0 2.019 0 4.5v13c0 1.593 0.854 3.082 2.231 3.887 0.236 0.138 0.544 0.06 0.684-0.179 0.14-0.238 0.06-0.544-0.18-0.684C1.665 19.898 1 18.739 1 17.501v-9.5h22v9.5c0 1.239-0.665 2.397-1.735 3.023-0.239 0.14-0.319 0.446-0.18 0.684 0.14 0.241 0.45 0.317 0.684 0.179C23.146 20.582 24 19.093 24 17.5v-13C24 2.019 21.981 0 19.5 0zM1 7V4.5C1 2.57 2.57 1 4.5 1h15C21.43 1 23 2.57 23 4.5V7zM5 4c0 0.552-0.448 1-1 1S3 4.552 3 4 3.448 3 4 3 5 3.448 5 4zM8 4c0 0.552-0.448 1-1 1S6 4.552 6 4 6.448 3 7 3 8 3.448 8 4zM11 4c0 0.552-0.448 1-1 1S9 4.552 9 4s0.448-1 1-1 1 0.448 1 1z" />
</svg>