<svg id="wednesday_Layer_1" viewBox="0 0 24 24" fill="currentColor" width="32" height="32" data-name="Layer 1" xmlns="http://www.w3.org/2000/svg" xmlns:xlink="http://www.w3.org/1999/xlink">
    <title>wednesday</title>
    <path d="M12.961 16.536 12.492 23c-0.043 0.705-0.472 1-0.988 1-0.342 0-0.66-0.242-0.841-0.64L9.499 20.8 8.335 23.36C8.154 23.758 7.836 24 7.494 24c-0.516 0-0.945-0.295-0.988-1l-0.469-6.464C6.016 16.246 6.245 16 6.536 16c0.262 0 0.48 0.202 0.499 0.464l0.459 6.33 1.41-3.103c0.232-0.51 0.957-0.51 1.189 0l1.41 3.102 0.459-6.33c0.019-0.261 0.237-0.464 0.499-0.464v0c0.29 0 0.52 0.247 0.5 0.537zM17.5 17c0.276 0 0.5-0.224 0.5-0.5S17.776 16 17.5 16H15c-0.552 0-1 0.448-1 1v6c0 0.552 0.448 1 1 1h2.5c0.276 0 0.5-0.224 0.5-0.5S17.776 23 17.5 23H15v-2.5h2.5c0.276 0 0.5-0.224 0.5-0.5s-0.224-0.5-0.5-0.5H15V17zM24 18.5v3c0 1.379-1.121 2.5-2.5 2.5H20c-0.552 0-1-0.448-1-1v-6c0-0.552 0.448-1 1-1h1.5c1.379 0 2.5 1.121 2.5 2.5zM23 18.5c0-0.827-0.673-1.5-1.5-1.5H20v6h1.5c0.827 0 1.5-0.673 1.5-1.5zM24 6.5v7.038c0 0.276-0.224 0.5-0.5 0.5s-0.5-0.224-0.5-0.5V9H1v10.5c0 1.636 1.158 3.074 2.755 3.421 0.27 0.059 0.44 0.324 0.382 0.595-0.051 0.233-0.258 0.394-0.487 0.394-0.035 0-0.071-4e-3-0.107-0.012-2.052-0.445-3.542-2.295-3.542-4.397V6.5C0 4.019 2.019 2 4.5 2H6V0.5C6 0.224 6.224 0 6.5 0S7 0.224 7 0.5V2h10V0.5C17 0.224 17.224 0 17.5 0S18 0.224 18 0.5V2h1.5C21.981 2 24 4.019 24 6.5zM23 8V6.5C23 4.57 21.43 3 19.5 3h-15C2.57 3 1 4.57 1 6.5V8z" />
</svg>