<svg id="weight_gain_Layer_1" viewBox="0 0 24 24" fill="currentColor" width="32" height="32" data-name="Layer 1" xmlns="http://www.w3.org/2000/svg" xmlns:xlink="http://www.w3.org/1999/xlink">
    <title>weight-gain</title>
    <path d="M18.49 13.911c-0.555-0.551-1.451-0.548-2.002 3e-3l-1.854 1.831c-0.273 0.319-0.334 0.755-0.158 1.137 0.176 0.381 0.546 0.618 0.966 0.618H17v3c0 0.276 0.224 0.5 0.5 0.5s0.5-0.224 0.5-0.5v-3h1.552c0.421 0 0.792-0.238 0.967-0.621s0.112-0.818-0.191-1.167zM15.32 16.5l1.872-1.875 4e-3-4e-3c0.081-0.081 0.187-0.122 0.294-0.122 0.106 0 0.215 0.041 0.298 0.124L19.7 16.5zM17.5 11c-3.584 0-6.5 2.916-6.5 6.5s2.916 6.5 6.5 6.5 6.5-2.916 6.5-6.5-2.916-6.5-6.5-6.5zM17.5 23c-3.032 0-5.5-2.468-5.5-5.5s2.468-5.5 5.5-5.5 5.5 2.468 5.5 5.5-2.468 5.5-5.5 5.5zM19.5 2h-3c-0.012 0-0.022 6e-3-0.034 7e-3C15.367 0.779 13.775 0 12 0S8.634 0.779 7.534 2.007C7.522 2.007 7.512 2 7.5 2h-3C2.019 2 0 4.019 0 6.5v13C0 21.981 2.019 24 4.5 24h6c0.276 0 0.5-0.224 0.5-0.5S10.776 23 10.5 23h-6C2.57 23 1 21.43 1 19.5v-13C1 4.57 2.57 3 4.5 3h2.312C6.299 3.884 6 4.907 6 6 6 7.103 6.897 8 8 8h8c1.103 0 2-0.897 2-2 0-1.093-0.299-2.116-0.812-3H19.5C21.43 3 23 4.57 23 6.5v4c0 0.276 0.224 0.5 0.5 0.5s0.5-0.224 0.5-0.5v-4C24 4.019 21.981 2 19.5 2zM16 7h-3.762l1.325-3.314c0.103-0.256-0.021-0.547-0.278-0.65-0.256-0.103-0.547 0.022-0.649 0.279l-1.474 3.686H8c-0.552 0-1-0.449-1-1 0-2.757 2.243-5 5-5s5 2.243 5 5c0 0.551-0.448 1-1 0.999z" />
</svg>