<svg id="weight_loss_Layer_1" viewBox="0 0 24 24" fill="currentColor" width="32" height="32" data-name="Layer 1" xmlns="http://www.w3.org/2000/svg" xmlns:xlink="http://www.w3.org/1999/xlink">
    <title>weight-loss</title>
    <path d="M19.552 17.5H18v-3c0-0.276-0.224-0.5-0.5-0.5S17 14.224 17 14.5v3h-1.558c-0.42 0-0.79 0.237-0.966 0.618-0.176 0.382-0.115 0.817 0.188 1.168l1.825 1.8c0.276 0.276 0.64 0.415 1.003 0.415 0.36 0 0.721-0.137 0.995-0.409l1.868-1.834c0.275-0.318 0.338-0.754 0.163-1.137S19.972 17.5 19.552 17.5zM17.785 20.38c-0.162 0.162-0.427 0.16-0.589 0l-4e-3-4e-3-1.895-1.875h4.426zM17.5 11c-3.584 0-6.5 2.916-6.5 6.5s2.916 6.5 6.5 6.5 6.5-2.916 6.5-6.5-2.916-6.5-6.5-6.5zM17.5 23c-3.032 0-5.5-2.468-5.5-5.5s2.468-5.5 5.5-5.5 5.5 2.468 5.5 5.5-2.468 5.5-5.5 5.5zM19.5 2h-3c-0.012 0-0.022 6e-3-0.034 7e-3C15.367 0.779 13.775 0 12 0S8.634 0.779 7.534 2.007C7.522 2.007 7.512 2 7.5 2h-3C2.019 2 0 4.019 0 6.5v13C0 21.981 2.019 24 4.5 24h6c0.276 0 0.5-0.224 0.5-0.5S10.776 23 10.5 23h-6C2.57 23 1 21.43 1 19.5v-13C1 4.57 2.57 3 4.5 3h2.312C6.299 3.884 6 4.907 6 6 6 7.103 6.897 8 8 8h8c1.103 0 2-0.897 2-2 0-1.093-0.299-2.116-0.812-3H19.5C21.43 3 23 4.57 23 6.5v4c0 0.276 0.224 0.5 0.5 0.5s0.5-0.224 0.5-0.5v-4C24 4.019 21.981 2 19.5 2zM16 7h-3.762l1.325-3.314c0.103-0.256-0.021-0.547-0.278-0.65-0.256-0.103-0.547 0.022-0.649 0.279l-1.474 3.686H8c-0.552 0-1-0.449-1-1 0-2.757 2.243-5 5-5s5 2.243 5 5c0 0.551-0.448 1-1 0.999z" />
</svg>