<svg id="welding_Layer_1" viewBox="0 0 24 24" fill="currentColor" width="32" height="32" data-name="Layer 1" xmlns="http://www.w3.org/2000/svg" xmlns:xlink="http://www.w3.org/1999/xlink">
    <title>welding</title>
    <path d="M5.964 19.105c-0.104 0.259-0.402 0.378-0.651 0.276-3.228-1.307-5.312-4.4-5.312-7.882v-7C0 2.019 2.019 0 4.5 0h8C14.981 0 17 2.019 17 4.5v6c0 0.276-0.224 0.5-0.5 0.5S16 10.776 16 10.5v-6C16 2.57 14.43 1 12.5 1h-8C2.57 1 1 2.57 1 4.5v7c0 3.072 1.84 5.802 4.687 6.954 0.256 0.104 0.38 0.396 0.277 0.651zM11.5 4C12.327 4 13 4.673 13 5.5v3c0 0.827-0.673 1.5-1.5 1.5h-6C4.673 10 4 9.327 4 8.5v-3C4 4.673 4.673 4 5.5 4zM11.5 5h-6C5.225 5 5 5.225 5 5.5v3C5 8.775 5.225 9 5.5 9h6C11.775 9 12 8.775 12 8.5v-3C12 5.225 11.775 5 11.5 5zM24 12.5c0 0.276-0.224 0.5-0.5 0.5h-3.758c-0.658 0-1.302 0.267-1.768 0.732l-2.411 2.411C15.847 16.564 16 17.06 16 17.578c0 0.688-0.269 1.337-0.756 1.823l-3.841 3.842c-0.487 0.487-1.135 0.756-1.824 0.756-0.754 0-1.469-0.329-1.962-0.904-0.869-1.015-0.769-2.591 0.229-3.588l3.752-3.752c0.854-0.854 2.265-0.959 3.255-0.316l2.415-2.415c0.651-0.651 1.554-1.025 2.475-1.025h3.758c0.276 0 0.5 0.224 0.499 0.501zM15 17.579c0-0.422-0.164-0.818-0.463-1.116-0.587-0.613-1.646-0.613-2.232 0l-3.752 3.752c-0.63 0.63-0.707 1.609-0.176 2.23 0.578 0.676 1.694 0.719 2.319 0.092l3.841-3.842C14.836 18.397 15 18.001 15 17.579z" />
</svg>