<svg id="wellbeing_Layer_1" viewBox="0 0 24 24" fill="currentColor" width="32" height="32" data-name="Layer 1" xmlns="http://www.w3.org/2000/svg" xmlns:xlink="http://www.w3.org/1999/xlink">
    <title>wellbeing</title>
    <path d="M16 11c0 0.276-0.224 0.5-0.5 0.5h-2v2c0 0.276-0.224 0.5-0.5 0.5s-0.5-0.224-0.5-0.5v-2h-2c-0.276 0-0.5-0.224-0.5-0.5s0.224-0.5 0.5-0.5h2v-2C12.5 8.224 12.724 8 13 8s0.5 0.224 0.5 0.5v2h2c0.276 0 0.5 0.224 0.5 0.5zM20 9.06c0 2.529-2.667 5.307-4.904 7.192-0.607 0.511-1.352 0.767-2.096 0.767s-1.488-0.256-2.096-0.767C8.667 14.367 6 11.589 6 9.06 6 6.849 7.682 5.05 9.75 5.05c1.463 0 2.703 0.646 3.25 0.984 0.548-0.338 1.787-0.984 3.25-0.984 2.067 0 3.75 1.799 3.75 4.01zM19 9.06c0-1.66-1.233-3.01-2.75-3.01-1.61 0-2.938 0.975-2.951 0.984-0.178 0.131-0.419 0.132-0.597 0-0.013-0.01-1.353-0.985-2.952-0.985C8.233 6.049 7 7.4 7 9.059c0 2.258 2.85 4.996 4.549 6.427 0.841 0.708 2.062 0.708 2.902 0C16.15 14.055 19 11.317 19 9.06zM21.957 17.486C21.331 18.349 21 19.294 21 20.219v1.28c0 1.472-1.028 2.5-2.5 2.5h-8c-1.378 0-2.5-1.122-2.5-2.5v-0.5H7.013c-2.112 0-3.964-1.5-4.402-3.566l-0.516-2.434H1.546c-1.134 0-1.545-0.87-1.545-1.455 0-1.28 2.843-7.428 4.23-9.152 2.429-3.236 6.436-4.867 10.451-4.265 4.818 0.726 8.879 5.163 9.244 10.101 0.199 2.698-0.481 5.208-1.969 7.258zM22.928 10.302c-0.332-4.492-4.02-8.527-8.395-9.186-0.504-0.076-1.008-0.113-1.507-0.113-3.127 0-6.098 1.457-8 3.997L5.014 5.015C3.607 6.756 1 12.68 1 13.545 1.007 13.748 1.107 14 1.545 14h0.957c0.236 0 0.438 0.165 0.487 0.396l0.6 2.83c0.341 1.607 1.781 2.773 3.424 2.773H8.5c0.276 0 0.5 0.224 0.5 0.5v1c0 0.827 0.673 1.5 1.5 1.5h8c0.692 0 1.5-0.393 1.5-1.5v-1.28c0-1.138 0.397-2.286 1.148-3.321 1.346-1.856 1.961-4.137 1.78-6.596z" />
</svg>