<svg id="wheat_slash_Layer_1" viewBox="0 0 24 24" fill="currentColor" width="32" height="32" data-name="Layer 1" xmlns="http://www.w3.org/2000/svg" xmlns:xlink="http://www.w3.org/1999/xlink">
    <title>wheat-slash</title>
    <path d="M10.002 15c-0.109 0-0.203 4e-3-0.301 8e-3l0.154-0.154c0.195-0.195 0.195-0.512 0-0.707s-0.512-0.195-0.707 0l-0.154 0.154c3e-3-0.097 8e-3-0.192 8e-3-0.301 0-1.813-1.174-3.67-1.868-4.48-0.566-0.66-1.697-0.66-2.264 0-0.694 0.811-1.868 2.667-1.868 4.48 0 2.059 1.211 3.76 1.813 4.48l-4.666 4.666c-0.195 0.195-0.195 0.512 0 0.707 0.098 0.098 0.226 0.146 0.354 0.146s0.256-0.049 0.354-0.146l4.667-4.667c0.72 0.602 2.421 1.813 4.48 1.813 1.814 0 3.669-1.175 4.479-1.868 0.331-0.282 0.521-0.695 0.521-1.132s-0.189-0.85-0.52-1.132c-0.811-0.693-2.666-1.868-4.482-1.867zM4.002 14c0-1.324 0.844-2.914 1.628-3.83 0.188-0.219 0.557-0.219 0.744 0 0.784 0.916 1.628 2.506 1.628 3.83 0 1.061-0.597 1.857-0.671 1.964l-1.804 1.804C4.995 17.111 4.002 15.663 4.002 14zM13.832 18.372C12.916 19.156 11.328 20 10.002 20c-1.662 0-3.11-0.993-3.768-1.525l1.804-1.804C8.145 16.597 8.941 16 10.002 16c1.325 0 2.914 0.844 3.83 1.628 0.148 0.127 0.17 0.287 0.17 0.372s-0.022 0.245-0.17 0.372zM23.853 23.146l-6.957-6.957c0.579-0.303 1.137-0.673 1.585-1.058 0.331-0.282 0.521-0.695 0.521-1.132 0-0.395-0.162-0.766-0.436-1.043 1.624-0.202 3.19-1.204 3.916-1.825 0.331-0.282 0.521-0.695 0.521-1.132s-0.189-0.85-0.52-1.132c-0.398-0.341-1.052-0.798-1.827-1.175 0.506-0.164 0.971-0.402 1.323-0.755 1.196-1.195 1.748-3.459 2.001-5.147 0.074-0.495-0.085-0.981-0.438-1.335-0.353-0.353-0.841-0.511-1.336-0.438-1.688 0.253-3.953 0.806-5.147 2.001-0.351 0.351-0.589 0.816-0.751 1.324-0.376-0.773-0.832-1.425-1.173-1.823-0.566-0.66-1.697-0.66-2.264 0-0.622 0.727-1.624 2.295-1.825 3.919-0.588-0.57-1.635-0.548-2.175 0.081-0.386 0.452-0.756 1.009-1.058 1.586L0.854 0.146c-0.196-0.195-0.512-0.195-0.708 0s-0.195 0.512 0 0.708l23 23C23.244 23.952 23.372 24 23.5 24s0.256-0.049 0.354-0.146c0.195-0.195 0.195-0.512-1e-3-0.708zM17.832 14.372c-0.459 0.394-1.076 0.78-1.685 1.068l-3.33-3.33c0.236-0.073 0.574-0.111 1.185-0.111 1.325 0 2.914 0.844 3.83 1.628 0.148 0.127 0.17 0.287 0.17 0.372s-0.022 0.245-0.17 0.373zM22.002 10c0 0.085-0.022 0.245-0.17 0.372C20.916 11.156 19.328 12 18.002 12c-0.15 0-0.62-6e-3-0.804-0.021C16.295 11.463 15.141 11 14.002 11c-0.109 0-0.202 3e-3-0.299 6e-3l2.333-2.334C16.144 8.598 16.941 8 18.001 8c1.325 0 2.914 0.844 3.83 1.628 0.148 0.127 0.17 0.287 0.171 0.372zM17.765 2.726c0.782-0.782 2.412-1.393 4.588-1.72 0.179-0.024 0.354 0.031 0.48 0.157s0.183 0.301 0.156 0.479c-0.326 2.177-0.936 3.807-1.719 4.589-0.871 0.871-3.068 0.825-4.205 0.7-0.123-1.14-0.163-3.345 0.7-4.205zM13.63 2.17c0.188-0.219 0.557-0.219 0.744 0 0.778 0.909 1.613 2.481 1.626 3.799 0 0.017 1e-3 0.033 2e-3 0.05-2e-3 1.043-0.596 1.838-0.669 1.944l-2.336 2.336c2e-3-0.097 6e-3-0.19 6e-3-0.298 0-1.141-0.465-2.297-0.982-3.201 0-0.019-0.018-0.641-0.018-0.799 0-1.324 0.844-2.914 1.627-3.831zM9.63 6.17c0.188-0.219 0.557-0.219 0.744 0 0.784 0.916 1.628 2.506 1.628 3.83 0 0.611-0.037 0.949-0.11 1.185l-3.33-3.33C8.849 7.249 9.235 6.633 9.63 6.17z" />
</svg>