<svg id="wheat_awn_slash_Layer_1" viewBox="0 0 24 24" fill="currentColor" width="32" height="32" data-name="Layer 1" xmlns="http://www.w3.org/2000/svg" xmlns:xlink="http://www.w3.org/1999/xlink">
    <title>wheat-awn-slash</title>
    <path d="M13.346 17.766C12.867 17.921 12.413 18 12 18c0 0-0.648 0.012-0.763 4e-3C10.328 17.478 9.157 17 8 17c-0.109 0-0.203 4e-3-0.301 8e-3l2.154-2.154c0.195-0.195 0.195-0.512 0-0.707s-0.512-0.195-0.707 0l-2.154 2.154C6.995 16.204 7 16.109 7 16c0-1.142-0.466-2.3-0.984-3.204C6.018 12.769 6 12.158 6 12c0-0.413 0.079-0.866 0.234-1.346 0.085-0.263-0.059-0.545-0.321-0.63-0.267-0.085-0.545 0.06-0.63 0.321-0.123 0.379-0.191 0.743-0.234 1.098-0.585-0.576-1.641-0.556-2.181 0.076C2.174 12.33 1 14.186 1 15.999c0 2.059 1.211 3.76 1.813 4.48l-2.667 2.667c-0.195 0.195-0.195 0.512 0 0.707 0.098 0.098 0.226 0.146 0.354 0.146s0.256-0.049 0.354-0.146l2.667-2.667c0.72 0.602 2.421 1.813 4.48 1.813 1.813 0 3.67-1.174 4.48-1.868 0.33-0.282 0.52-0.695 0.52-1.132 0-0.398-0.164-0.772-0.442-1.049 0.354-0.043 0.718-0.111 1.096-0.234 0.263-0.085 0.406-0.367 0.321-0.63-0.085-0.262-0.362-0.406-0.63-0.32zM2 16c0-1.324 0.844-2.914 1.628-3.83C3.755 12.022 3.915 12 4 12s0.245 0.021 0.372 0.17C5.156 13.086 6 14.676 6 16c0 1.061-0.597 1.857-0.671 1.964l-1.803 1.803C2.994 19.11 2 17.662 2 16zM11.83 20.372C10.914 21.156 9.324 22 8 22c-1.662 0-3.11-0.994-3.767-1.526l1.803-1.803C6.143 18.597 6.939 18 8 18c1.324 0 2.914 0.844 3.83 1.628C11.978 19.755 12 19.915 12 20s-0.021 0.245-0.17 0.372zM23.854 6.147c-0.195-0.197-0.512-0.195-0.707-2e-3l-3.89 3.871C18.345 9.485 17.165 9 15.999 9c-0.109 0-0.203 4e-3-0.301 8e-3l8.156-8.154c0.195-0.195 0.195-0.512 0-0.707s-0.512-0.195-0.707 0l-8.154 8.154c3e-3-0.097 8e-3-0.192 8e-3-0.301 0-1.176-0.494-2.366-1.031-3.281l3.883-3.864c0.196-0.195 0.196-0.512 2e-3-0.707-0.195-0.197-0.512-0.195-0.707-2e-3l-3.739 3.721c-0.097-0.13-0.191-0.247-0.276-0.347-0.564-0.66-1.699-0.66-2.264 0-0.623 0.728-1.626 2.299-1.826 3.925-0.344-0.342-0.826-0.488-1.298-0.407L0.854 0.146c-0.196-0.195-0.512-0.195-0.708 0s-0.195 0.512 0 0.708l23 23C23.244 23.952 23.372 24 23.5 24s0.256-0.049 0.354-0.146c0.195-0.195 0.195-0.512 0-0.707l-6.89-6.89c0.081-0.471-0.066-0.954-0.408-1.299 1.626-0.2 3.197-1.202 3.925-1.826 0.33-0.282 0.52-0.695 0.52-1.132s-0.189-0.85-0.52-1.132c-0.105-0.09-0.23-0.189-0.368-0.292l3.74-3.722c0.196-0.195 0.196-0.512 1e-3-0.707zM11.627 4.169c0.127-0.148 0.287-0.17 0.372-0.17s0.245 0.021 0.372 0.17c0.784 0.916 1.628 2.506 1.628 3.83 0 1.061-0.597 1.857-0.671 1.964l-1.329 1.329-1.518-1.518c-7e-3-0.037-0.302-0.689-0.464-0.973 0-0.021 8e-3-0.04 6e-3-0.061C10.006 8.588 10 8.156 10 7.999c0-1.324 0.844-2.914 1.627-3.83zM19.829 12.371c-0.916 0.784-2.506 1.628-3.83 1.628-0.151 0-1.128-0.103-1.776-0.483l-1.517-1.517 1.329-1.329c0.107-0.074 0.903-0.671 1.964-0.671 1.324 0 2.914 0.844 3.83 1.628 0.148 0.127 0.17 0.287 0.17 0.372s-0.021 0.245-0.17 0.372z" />
</svg>