<svg id="wheat_Layer_1" viewBox="0 0 24 24" fill="currentColor" width="32" height="32" data-name="Layer 1" xmlns="http://www.w3.org/2000/svg" xmlns:xlink="http://www.w3.org/1999/xlink">
    <title>wheat</title>
    <path d="M23.977 1.791c0.075-0.495-0.085-0.982-0.438-1.334-0.353-0.354-0.841-0.511-1.335-0.439-1.688 0.253-3.952 0.805-5.147 2.001-0.35 0.35-0.591 0.811-0.754 1.318-0.376-0.771-0.831-1.419-1.171-1.816-0.564-0.662-1.699-0.662-2.264 0-0.62 0.724-1.624 2.284-1.83 3.902-0.589-0.562-1.635-0.529-2.17 0.098-0.62 0.724-1.624 2.284-1.83 3.902-0.589-0.562-1.635-0.529-2.17 0.098C4.175 10.332 3 12.187 3 14.001c0 2.05 1.207 3.755 1.812 4.481l-4.666 4.664c-0.195 0.195-0.195 0.512 0 0.707 0.098 0.098 0.226 0.146 0.354 0.146s0.256-0.049 0.354-0.146l4.666-4.666c0.726 0.605 2.431 1.812 4.481 1.812 1.813 0 3.67-1.174 4.48-1.868 0.33-0.283 0.52-0.696 0.52-1.132 0-0.39-0.152-0.762-0.421-1.039 1.618-0.207 3.177-1.21 3.902-1.83 0.33-0.283 0.52-0.696 0.52-1.132 0-0.39-0.152-0.762-0.421-1.039 1.618-0.207 3.177-1.21 3.902-1.83 0.33-0.283 0.52-0.696 0.52-1.132s-0.189-0.849-0.52-1.132c-0.398-0.34-1.047-0.796-1.82-1.173 0.504-0.163 0.965-0.405 1.316-0.757 1.196-1.196 1.748-3.46 1.998-5.144zM13.628 2.17C13.755 2.022 13.915 2 14 2s0.245 0.022 0.372 0.17c0.747 0.872 1.547 2.354 1.622 3.638 1e-3 0.087 3e-3 0.173 6e-3 0.256-7e-3 1.005-0.168 1.22-0.458 1.604-0.069 0.092-2.547 2.63-2.547 2.63C12.998 10.204 13 10.105 13 10c0-1.136-0.46-2.287-0.975-3.189 0-0.023 0-0.046-2e-3-0.07C12.006 6.588 12 6.157 12 5.999c0-1.325 0.844-2.914 1.628-3.829zM9.628 6.17C9.755 6.022 9.915 6 10 6s0.245 0.022 0.372 0.17C11.156 7.086 12 8.674 12 10c0 1.061-0.162 1.276-0.458 1.668-0.069 0.092-2.547 2.63-2.547 2.63C8.998 14.204 9 14.105 9 14c0-1.136-0.461-2.289-0.976-3.19 3e-3-0.031 3e-3-0.062 0-0.094C8.007 10.563 8.001 10.157 8.001 10c0-1.325 0.844-2.914 1.627-3.83zM4 14c0-1.325 0.844-2.914 1.628-3.83C5.755 10.022 5.915 10 6 10s0.245 0.022 0.372 0.17C7.156 11.086 8 12.674 8 14c0 1.061-0.162 1.276-0.458 1.668-0.069 0.091-2.017 2.1-2.017 2.1C4.992 17.108 4 15.657 4 14zM13.83 18.372C12.914 19.156 11.324 20 10 20c-1.658 0-3.109-0.991-3.768-1.524 0 0 2.007-1.948 2.1-2.017 0.392-0.296 0.607-0.458 1.669-0.458 1.324 0 2.914 0.844 3.83 1.628 0.109 0.094 0.17 0.226 0.17 0.372s-0.061 0.278-0.171 0.371zM17.83 14.372C16.914 15.156 15.324 16 14 16c0 0-0.64 0.013-0.759 5e-3C12.332 15.478 11.157 15 10 15c-0.105 0-0.204 2e-3-0.298 5e-3 0 0 2.536-2.477 2.629-2.547C12.723 12.162 12.938 12 14 12c1.324 0 2.914 0.844 3.83 1.628C17.939 13.722 18 13.854 18 14s-0.061 0.278-0.17 0.372zM22 10c0 0.146-0.061 0.278-0.17 0.372C20.914 11.156 19.324 12 18 12c-0.146 0-0.608-7e-3-0.801-0.02C16.296 11.463 15.14 11 14 11c-0.105 0-0.204 2e-3-0.298 5e-3 0 0 2.534-2.481 2.629-2.547C17 8 18.105 8.004 18.179 8.005c1.286 0.07 2.776 0.873 3.651 1.622C21.939 9.721 22 9.853 22 10zM17.064 6.932c-0.122-1.139-0.162-3.345 0.699-4.206 0.782-0.783 2.412-1.393 4.589-1.719 0.177-0.027 0.354 0.03 0.479 0.156 0.126 0.126 0.183 0.301 0.156 0.48-0.188 1.26-0.662 3.532-1.719 4.589-0.872 0.871-3.067 0.827-4.204 0.7z" />
</svg>