<svg id="wheat_awn_Layer_1" viewBox="0 0 24 24" fill="currentColor" width="32" height="32" data-name="Layer 1" xmlns="http://www.w3.org/2000/svg" xmlns:xlink="http://www.w3.org/1999/xlink">
    <title>wheat-awn</title>
    <path d="M23.147 6.146l-3.89 3.871c-0.912-0.531-2.092-1.016-3.258-1.016-0.109 0-0.203 4e-3-0.301 8e-3l8.156-8.155c0.195-0.195 0.195-0.512 0-0.707s-0.512-0.195-0.707 0l-8.154 8.154c3e-3-0.097 8e-3-0.192 8e-3-0.301 0-1.176-0.494-2.366-1.031-3.281l3.883-3.864c0.196-0.195 0.196-0.512 2e-3-0.707-0.195-0.197-0.512-0.195-0.707-2e-3l-3.739 3.721c-0.097-0.13-0.191-0.247-0.276-0.347-0.564-0.66-1.699-0.66-2.264 0-0.623 0.727-1.624 2.295-1.825 3.918-0.587-0.57-1.637-0.547-2.175 0.082-0.623 0.727-1.624 2.295-1.825 3.918-0.587-0.57-1.637-0.547-2.175 0.082-0.694 0.811-1.868 2.667-1.868 4.48 0 2.059 1.211 3.76 1.813 4.48l-2.668 2.666c-0.195 0.195-0.195 0.512 0 0.707 0.098 0.098 0.226 0.146 0.354 0.146s0.256-0.049 0.354-0.146l2.667-2.667c0.72 0.602 2.421 1.813 4.48 1.813 1.813 0 3.67-1.174 4.48-1.868 0.33-0.282 0.52-0.695 0.52-1.132 0-0.395-0.162-0.766-0.436-1.043 1.623-0.202 3.19-1.203 3.916-1.825 0.33-0.282 0.52-0.695 0.52-1.132 0-0.395-0.162-0.766-0.436-1.043 1.623-0.202 3.19-1.203 3.916-1.825 0.33-0.282 0.52-0.695 0.52-1.132s-0.189-0.85-0.52-1.132c-0.105-0.09-0.23-0.189-0.368-0.292l3.74-3.722c0.196-0.195 0.196-0.512 2e-3-0.707-0.195-0.197-0.512-0.195-0.708 0zM11.627 4.17C11.754 4.022 11.914 4 11.999 4s0.245 0.021 0.372 0.17c0.784 0.916 1.628 2.506 1.628 3.83 0 1.061-0.597 1.857-0.671 1.964l-2.337 2.337c3e-3-0.097 8e-3-0.192 8e-3-0.301 0-1.141-0.464-2.297-0.982-3.201 0-0.02-0.018-0.642-0.018-0.799 0-1.324 0.844-2.914 1.628-3.83zM7.627 8.17C7.754 8.022 7.914 8 7.999 8s0.245 0.021 0.372 0.17C9.155 9.086 9.999 10.676 9.999 12c0 1.061-0.597 1.857-0.671 1.964l-2.337 2.337c3e-3-0.097 8e-3-0.192 8e-3-0.301 0-1.142-0.466-2.3-0.984-3.204 2e-3-0.027-0.016-0.638-0.016-0.796 0-1.324 0.844-2.914 1.628-3.83zM1.999 16c0-1.324 0.844-2.914 1.628-3.83C3.754 12.022 3.914 12 3.999 12s0.245 0.021 0.372 0.17c0.784 0.916 1.628 2.506 1.628 3.83 0 1.061-0.597 1.857-0.671 1.964l-1.803 1.803C2.993 19.11 1.999 17.662 1.999 16zM11.829 20.372C10.913 21.156 9.323 22 7.999 22c-1.662 0-3.11-0.994-3.767-1.526l1.803-1.803C6.142 18.597 6.938 18 7.999 18c1.324 0 2.914 0.844 3.83 1.628 0.148 0.127 0.17 0.287 0.17 0.372s-0.021 0.245-0.17 0.372zM15.829 16.372C14.913 17.156 13.323 18 11.999 18c0 0-0.648 0.012-0.763 4e-3C10.327 17.478 9.156 17 7.999 17c-0.109 0-0.203 4e-3-0.301 8e-3l2.337-2.337C10.142 14.597 10.938 14 11.999 14c1.324 0 2.914 0.844 3.83 1.628 0.148 0.127 0.17 0.287 0.17 0.372s-0.021 0.245-0.17 0.372zM19.829 12.372C18.913 13.156 17.323 14 15.999 14c-0.15 0-0.62-6e-3-0.804-0.021C14.292 13.463 13.137 13 11.999 13c-0.109 0-0.203 4e-3-0.301 8e-3l2.337-2.337C14.142 10.597 14.938 10 15.999 10c1.324 0 2.914 0.844 3.83 1.628 0.148 0.127 0.17 0.287 0.17 0.372s-0.021 0.245-0.17 0.372z" />
</svg>