<svg id="wheelchair_Layer_1" viewBox="0 0 24 24" fill="currentColor" width="32" height="32" data-name="Layer 1" xmlns="http://www.w3.org/2000/svg" xmlns:xlink="http://www.w3.org/1999/xlink">
    <title>wheelchair</title>
    <path d="M23.5 22h-2.14l-1.43-4.291C19.588 16.687 18.635 16 17.558 16h-4.059c-1.379 0-2.5-1.121-2.5-2.5V12h6.5c0.276 0 0.5-0.224 0.5-0.5s-0.224-0.5-0.5-0.5h-6.5V5.958c1.417-0.239 2.5-1.474 2.5-2.958 0-1.654-1.346-3-3-3s-3 1.346-3 3c0 1.484 1.083 2.719 2.5 2.958V13.5c0 1.93 1.57 3.5 3.5 3.5h1.429c-0.487 3.405-3.433 6-6.929 6-3.859 0-7-3.141-7-7 0-3.676 2.869-6.744 6.533-6.984 0.275-0.019 0.483-0.256 0.466-0.532C7.979 8.21 7.76 7.993 7.466 8.018 3.279 8.293-1e-3 11.799-1e-3 16c0 4.411 3.589 8 8 8 4.044 0 7.443-3.039 7.937-7h1.621c0.646 0 1.219 0.412 1.423 1.025l1.544 4.633C20.592 22.862 20.784 23 20.999 23h2.5c0.276 0 0.5-0.224 0.5-0.5S23.775 22 23.5 22zM8.5 3c0-1.103 0.897-2 2-2s2 0.897 2 2-0.897 2-2 2-2-0.897-2-2z" />
</svg>