<svg id="wheelchair_move_Layer_1" viewBox="0 0 24 24" fill="currentColor" width="32" height="32" data-name="Layer 1" xmlns="http://www.w3.org/2000/svg" xmlns:xlink="http://www.w3.org/1999/xlink">
    <title>wheelchair-move</title>
    <path d="M19.5 5C20.88 5 22 3.88 22 2.5S20.88 0 19.5 0 17 1.12 17 2.5 18.12 5 19.5 5zM19.5 1C20.33 1 21 1.67 21 2.5S20.33 4 19.5 4 18 3.33 18 2.5 18.67 1 19.5 1zM21.77 15.71C21.49 15.26 21.02 15 20.49 15h-4.73l2.98-6.68c0.34-0.73 0.28-1.57-0.15-2.24S17.42 5 16.62 5h-4.43c-0.96 0-1.82 0.54-2.25 1.4l-1.9 3.88c-0.12 0.25-0.02 0.55 0.23 0.67s0.55 0.02 0.67-0.23l1.9-3.88C11.09 6.32 11.61 6 12.19 6h2.16l-3.16 6.81c-0.33 0.7-0.27 1.5 0.14 2.15 0.42 0.65 1.12 1.04 1.89 1.04h3.76c0 3.86-3.14 7-7 7s-7-3.14-7-7c0-2.6 1.43-4.98 3.73-6.19 0.24-0.13 0.34-0.43 0.21-0.68S6.49 8.79 6.24 8.92c-2.63 1.39-4.27 4.1-4.27 7.08 0 4.41 3.59 8 8 8s8-3.59 8-8h2.5c0.25 0 0.38 0.17 0.42 0.24s0.13 0.26 0.03 0.48l-2.89 5.55c-0.13 0.24-0.03 0.55 0.21 0.67 0.07 0.04 0.15 0.06 0.23 0.06 0.18 0 0.35-0.1 0.44-0.27l2.9-5.56c0.23-0.47 0.21-1.01-0.07-1.46zM12.18 14.42c-0.23-0.37-0.26-0.8-0.08-1.2l3.36-7.23h1.16c0.47 0 0.88 0.23 1.13 0.62s0.28 0.86 0.08 1.29l-3.16 7.09h-1.44c-0.43 0-0.82-0.21-1.05-0.57z" />
</svg>