<svg id="whistle_Layer_1" viewBox="0 0 24 24" fill="currentColor" width="32" height="32" data-name="Layer 1" xmlns="http://www.w3.org/2000/svg" xmlns:xlink="http://www.w3.org/1999/xlink">
    <title>whistle</title>
    <path d="M8 12c-2.206 0-4 1.794-4 4s1.794 4 4 4 4-1.794 4-4-1.794-4-4-4zM8 19c-1.654 0-3-1.346-3-3s1.346-3 3-3 3 1.346 3 3-1.346 3-3 3zM21.5 8H8.245c-4.304 0-7.916 3.247-8.223 7.393-0.182 2.46 0.75 4.826 2.557 6.492 1.492 1.374 3.418 2.114 5.428 2.114 0.425 0 0.853-0.032 1.281-0.1 2.506-0.393 4.768-2.102 5.904-4.462 0.53-1.103 0.802-2.247 0.808-3.401 3e-3-0.756 0.5-1.38 1.208-1.517l4.277-0.832C23.06 13.38 24 12.427 24 11.137V10.5C24 9.122 22.878 8 21.5 8zM23 11.137c0 0.797-0.606 1.354-1.706 1.568l-4.276 0.832c-1.182 0.229-2.012 1.256-2.018 2.495-5e-3 1.004-0.243 2.004-0.709 2.972-0.995 2.068-2.971 3.565-5.157 3.907-2.157 0.335-4.296-0.306-5.877-1.762-1.581-1.458-2.397-3.529-2.238-5.683 0.268-3.626 3.442-6.467 7.226-6.467H21.5c0.827 0 1.5 0.673 1.5 1.5zM9 4.5v-4C9 0.224 9.224 0 9.5 0S10 0.224 10 0.5v4C10 4.776 9.776 5 9.5 5S9 4.776 9 4.5zM12.053 5.276l2-4c0.124-0.248 0.423-0.347 0.671-0.224 0.247 0.124 0.347 0.424 0.224 0.671l-2 4C12.86 5.898 12.684 5.999 12.5 5.999c-0.075 0-0.151-0.017-0.223-0.053-0.247-0.124-0.347-0.424-0.224-0.67zM4.053 1.724C3.929 1.477 4.03 1.177 4.277 1.053s0.547-0.024 0.671 0.224l2 4c0.124 0.247 0.023 0.547-0.224 0.671-0.072 0.036-0.148 0.053-0.223 0.053-0.184 0-0.36-0.101-0.448-0.276z" />
</svg>