<svg id="white_space_Layer_1" viewBox="0 0 24 24" fill="currentColor" width="32" height="32" data-name="Layer 1" xmlns="http://www.w3.org/2000/svg" xmlns:xlink="http://www.w3.org/1999/xlink">
    <title>white-space</title>
    <path d="M24 0.5v23c0 0.276-0.224 0.5-0.5 0.5S23 23.776 23 23.5V11.994c0 0 0 2e-3 0 3e-3s0 2e-3 0 3e-3c0 0.069-0.014 0.134-0.039 0.193-0.045 0.309-0.16 0.609-0.398 0.847l-3.204 3.308C19.26 16.45 19.13 16.5 19 16.5c-0.125 0-0.251-0.047-0.348-0.141-0.198-0.192-0.203-0.509-0.012-0.707l3.054-3.152H2.305l3.054 3.152c0.191 0.198 0.187 0.515-0.012 0.707C5.25 16.453 5.124 16.5 4.999 16.5c-0.131 0-0.261-0.051-0.359-0.152l-3.21-3.313c-0.254-0.254-0.376-0.582-0.407-0.917-0.01-0.039-0.024-0.076-0.024-0.117 0-1e-3 0-2e-3 0-3e-3s0-2e-3 0-3e-3v11.506c0 0.276-0.224 0.5-0.5 0.5s-0.5-0.224-0.5-0.5V0.5C0 0.224 0.224 0 0.5 0S1 0.224 1 0.5v11.464c5e-3-0.378 0.148-0.756 0.437-1.045l3.206-3.27c0.195-0.195 0.51-0.199 0.708-7e-3 0.196 0.193 0.2 0.511 7e-3 0.708l-3.089 3.149h19.464l-3.09-3.149c-0.193-0.197-0.189-0.515 7e-3-0.708 0.198-0.192 0.515-0.188 0.708 7e-3l3.21 3.272c0.287 0.287 0.43 0.665 0.433 1.044V0.5c0-0.276 0.224-0.5 0.5-0.5s0.5 0.224 0.499 0.5z" />
</svg>