<svg id="wifi_exclamation_Layer_1" viewBox="0 0 24 24" fill="currentColor" width="32" height="32" data-name="Layer 1" xmlns="http://www.w3.org/2000/svg" xmlns:xlink="http://www.w3.org/1999/xlink">
    <title>wifi-exclamation</title>
    <path d="M12 17c-1.1 0-2 0.9-2 2s0.9 2 2 2 2-0.9 2-2-0.9-2-2-2zM12 20c-0.55 0-1-0.45-1-1s0.45-1 1-1 1 0.45 1 1-0.45 1-1 1zM18.86 13.18c0.18 0.21 0.15 0.53-0.06 0.7-0.09 0.08-0.21 0.12-0.32 0.12-0.14 0-0.28-0.06-0.38-0.18-0.14-0.17-0.29-0.33-0.44-0.48-0.69-0.69-1.48-1.24-2.36-1.64-0.25-0.11-0.36-0.41-0.25-0.66s0.41-0.36 0.66-0.25c0.99 0.45 1.88 1.07 2.66 1.84 0.17 0.17 0.34 0.35 0.49 0.55zM8.95 11.05c0.11 0.25 0 0.55-0.25 0.66-0.88 0.4-1.67 0.95-2.36 1.64-0.16 0.16-0.3 0.32-0.44 0.48-0.1 0.12-0.24 0.18-0.38 0.18-0.11 0-0.23-0.04-0.32-0.12-0.21-0.18-0.24-0.49-0.06-0.7 0.16-0.19 0.32-0.36 0.5-0.54 0.77-0.77 1.67-1.39 2.66-1.84 0.25-0.11 0.55 0 0.65 0.24zM23.83 8.98c-0.1 0.09-0.22 0.13-0.34 0.13-0.14 0-0.27-0.06-0.37-0.16-0.17-0.19-0.34-0.37-0.52-0.55-1.99-1.99-4.49-3.38-7.22-4.01-0.27-0.06-0.44-0.33-0.38-0.6s0.33-0.44 0.6-0.38c2.91 0.67 5.58 2.15 7.7 4.28 0.19 0.19 0.38 0.39 0.56 0.59 0.19 0.21 0.17 0.52-0.03 0.7zM8.99 3.79c0.06 0.27-0.11 0.54-0.38 0.6C5.88 5.02 3.38 6.41 1.39 8.4 1.21 8.58 1.04 8.76 0.87 8.95 0.77 9.06 0.64 9.12 0.5 9.12c-0.12 0-0.24-0.04-0.33-0.13-0.21-0.19-0.22-0.5-0.04-0.71 0.18-0.2 0.37-0.39 0.56-0.59 2.12-2.12 4.79-3.6 7.7-4.28 0.27-0.06 0.54 0.11 0.6 0.38zM11.5 14.5v-11C11.5 3.22 11.72 3 12 3s0.5 0.22 0.5 0.5v11c0 0.28-0.22 0.5-0.5 0.5s-0.5-0.22-0.5-0.5z" />
</svg>