<svg id="wifi_alt_Layer_1" viewBox="0 0 24 24" fill="currentColor" width="32" height="32" data-name="Layer 1" xmlns="http://www.w3.org/2000/svg" xmlns:xlink="http://www.w3.org/1999/xlink">
    <title>wifi-alt</title>
    <path d="M13 23c0 0.552-0.448 1-1 1s-1-0.448-1-1 0.448-1 1-1 1 0.448 1 1zM9.172 20.171c-0.195 0.195-0.195 0.512 0 0.707s0.512 0.195 0.707 0c1.133-1.133 3.109-1.133 4.242 0 0.098 0.098 0.226 0.146 0.354 0.146s0.256-0.049 0.354-0.146c0.195-0.195 0.195-0.512 0-0.707-1.51-1.511-4.146-1.511-5.657 0zM17.657 18.05c0.195-0.195 0.195-0.512 0-0.707-3.119-3.119-8.195-3.119-11.314 0-0.195 0.195-0.195 0.512 0 0.707s0.512 0.195 0.707 0c2.73-2.729 7.17-2.729 9.9 0 0.098 0.098 0.226 0.146 0.354 0.146s0.256-0.049 0.353-0.146zM18.148 7.187c-0.441-0.099-0.807-0.378-1.001-0.767-1.614-3.221-5.099-4.942-8.674-4.279-3.135 0.582-5.669 3.081-6.308 6.218-0.189 0.934-0.217 1.875-0.083 2.796 0.083 0.568-0.058 1.074-0.386 1.387C0.601 13.587-1e-3 14.993-1e-3 16.5c0 3.033 2.468 5.5 5.5 5.5h1c0.276 0 0.5-0.224 0.5-0.5S6.775 21 6.499 21h-1c-2.481 0-4.5-2.019-4.5-4.5 0-1.23 0.493-2.379 1.389-3.234 0.565-0.54 0.814-1.362 0.685-2.255-0.118-0.807-0.094-1.632 0.073-2.452 0.558-2.742 2.771-4.926 5.509-5.434 3.13-0.58 6.184 0.924 7.598 3.744 0.33 0.658 0.941 1.13 1.677 1.294C20.868 8.822 23 11.487 23 14.5c0 3.214-2.395 5.98-5.571 6.434-0.272 0.039-0.463 0.292-0.424 0.566s0.285 0.461 0.566 0.424C21.236 21.4 24 18.208 24 14.5c0-3.533-2.406-6.54-5.852-7.313z" />
</svg>