<svg id="wifi_lock_Layer_1" viewBox="0 0 24 24" fill="currentColor" width="32" height="32" data-name="Layer 1" xmlns="http://www.w3.org/2000/svg" xmlns:xlink="http://www.w3.org/1999/xlink">
    <title>wifi-lock</title>
    <path d="M22 15.351V13.5c0-1.93-1.57-3.5-3.5-3.5S15 11.57 15 13.5v1.851c-1.178 0.564-2 1.758-2 3.149v2c0 1.93 1.57 3.5 3.5 3.5h4c1.93 0 3.5-1.57 3.5-3.5v-2c0-1.391-0.822-2.585-2-3.149zM16 13.5c0-1.378 1.121-2.5 2.5-2.5s2.5 1.122 2.5 2.5v1.551C20.835 15.027 20.671 15 20.5 15h-4c-0.171 0-0.335 0.027-0.5 0.051zM23 20.5c0 1.378-1.121 2.5-2.5 2.5h-4c-1.379 0-2.5-1.122-2.5-2.5v-2c0-1.378 1.121-2.5 2.5-2.5h4c1.379 0 2.5 1.122 2.5 2.5zM19.5 19.5c0 0.552-0.448 1-1 1s-1-0.448-1-1 0.448-1 1-1 1 0.448 1 1zM13.412 10.125c-2.58-0.458-5.22 0.369-7.069 2.218-0.155 0.155-0.303 0.315-0.443 0.48-0.18 0.211-0.495 0.236-0.705 0.058-0.21-0.179-0.236-0.495-0.058-0.705 0.157-0.185 0.324-0.365 0.499-0.54 2.079-2.08 5.051-3.016 7.952-2.496 0.271 0.048 0.453 0.308 0.404 0.58-0.048 0.272-0.312 0.453-0.58 0.405zM12 3C7.993 3 4.227 4.561 1.394 7.394 1.214 7.574 1.04 7.757 0.872 7.943 0.686 8.148 0.37 8.163 0.165 7.979-0.04 7.793-0.056 7.478 0.129 7.272c0.18-0.199 0.366-0.394 0.558-0.586C3.708 3.665 7.726 2 12 2s8.292 1.665 11.313 4.687c0.191 0.192 0.378 0.387 0.558 0.586 0.186 0.206 0.169 0.521-0.036 0.707-0.206 0.185-0.522 0.168-0.706-0.037-0.168-0.187-0.343-0.37-0.522-0.549C19.774 4.561 16.007 3 12 3zM11.293 17.293C11.104 17.482 11 17.733 11 18s0.104 0.518 0.293 0.707c0.195 0.195 0.195 0.512 0 0.707s-0.512 0.195-0.707 0C10.208 19.037 10 18.534 10 18s0.208-1.037 0.586-1.414c0.195-0.195 0.512-0.195 0.707 0s0.195 0.512 0 0.707z" />
</svg>