<svg id="wifi_password_Layer_1" viewBox="0 0 24 24" fill="currentColor" width="32" height="32" data-name="Layer 1" xmlns="http://www.w3.org/2000/svg" xmlns:xlink="http://www.w3.org/1999/xlink">
    <title>wifi-password</title>
    <path d="M5.283 3.49c-0.195-0.195-0.195-0.512 0-0.707C7.077 0.988 9.462 0 12 0s4.924 0.988 6.718 2.783c0.195 0.195 0.195 0.512 0 0.707s-0.512 0.195-0.707 0C16.406 1.885 14.271 1 12 1S7.595 1.884 5.99 3.49c-0.195 0.195-0.512 0.195-0.707 0zM15.889 6.318c0.195-0.195 0.195-0.512 0-0.707C14.851 4.572 13.469 4 12 4S9.149 4.572 8.111 5.611c-0.195 0.195-0.195 0.512 0 0.707s0.512 0.195 0.707 0C9.668 5.468 10.798 5 12 5s2.332 0.468 3.182 1.318c0.195 0.195 0.512 0.195 0.707 0zM24 15.5v4c0 2.481-2.019 4.5-4.5 4.5h-15C2.019 24 0 21.981 0 19.5v-4C0 13.019 2.019 11 4.5 11h15c2.481 0 4.5 2.019 4.5 4.5zM23 15.5c0-1.93-1.57-3.5-3.5-3.5h-15C2.57 12 1 13.57 1 15.5v4C1 21.43 2.57 23 4.5 23h15c1.93 0 3.5-1.57 3.5-3.5zM14.104 15.396c-0.195-0.195-0.512-0.195-0.707 0l-1.396 1.396-1.396-1.396c-0.195-0.195-0.512-0.195-0.707 0s-0.195 0.512 0 0.707l1.396 1.396-1.396 1.396c-0.195 0.195-0.195 0.512 0 0.707s0.512 0.195 0.707 0l1.396-1.396 1.396 1.396c0.195 0.195 0.512 0.195 0.707 0s0.195-0.512 0-0.707l-1.396-1.396 1.396-1.396c0.195-0.195 0.195-0.512 0-0.707zM8.002 15.396c-0.195-0.195-0.512-0.195-0.707 0l-1.396 1.396-1.396-1.396c-0.195-0.195-0.512-0.195-0.707 0s-0.195 0.512 0 0.707l1.396 1.396-1.396 1.396c-0.195 0.195-0.195 0.512 0 0.707s0.512 0.195 0.707 0l1.396-1.396 1.396 1.396c0.195 0.195 0.512 0.195 0.707 0s0.195-0.512 0-0.707l-1.396-1.396 1.396-1.396c0.195-0.195 0.195-0.512 0-0.707zM20.206 15.396c-0.195-0.195-0.512-0.195-0.707 0l-1.396 1.396-1.396-1.396c-0.195-0.195-0.512-0.195-0.707 0s-0.195 0.512 0 0.707l1.396 1.396L16 18.895c-0.195 0.195-0.195 0.512 0 0.707s0.512 0.195 0.707 0l1.396-1.396 1.396 1.396c0.195 0.195 0.512 0.195 0.707 0s0.195-0.512 0-0.707l-1.396-1.396 1.396-1.396c0.195-0.195 0.195-0.512 0-0.707zM11.001 9c0 0.552 0.448 1 1 1s1-0.448 1-1-0.448-1-1-1-1 0.448-1 1z" />
</svg>