<svg id="wifi_slash_Layer_1" viewBox="0 0 24 24" fill="currentColor" width="32" height="32" data-name="Layer 1" xmlns="http://www.w3.org/2000/svg" xmlns:xlink="http://www.w3.org/1999/xlink">
    <title>wifi-slash</title>
    <path d="M23.85 23.85c-0.1 0.1-0.23 0.15-0.35 0.15s-0.26-0.05-0.35-0.15l-23-23c-0.2-0.19-0.2-0.51 0-0.7s0.51-0.2 0.7 0l4.36 4.36c6.08-2.85 13.34-1.58 18.1 3.18 0.19 0.19 0.38 0.39 0.56 0.58 0.19 0.21 0.17 0.52-0.03 0.71-0.1 0.09-0.22 0.13-0.34 0.13-0.14 0-0.27-0.06-0.37-0.16-0.17-0.19-0.34-0.37-0.52-0.55C18.23 4.02 11.6 2.79 5.97 5.26l4.84 4.84c0 0 0.09-0.03 0.14-0.04 2.75-0.33 5.46 0.61 7.42 2.57 0.17 0.17 0.34 0.36 0.5 0.54 0.18 0.21 0.15 0.53-0.06 0.7-0.09 0.08-0.21 0.12-0.32 0.12-0.14 0-0.28-0.06-0.38-0.18-0.14-0.16-0.29-0.33-0.44-0.48-1.59-1.59-3.73-2.42-5.94-2.34l12.14 12.14c0.2 0.2 0.2 0.51-0.02 0.72zM14 19c0 1.1-0.9 2-2 2s-2-0.9-2-2 0.9-2 2-2 2 0.9 2 2zM13 19c0-0.55-0.45-1-1-1s-1 0.45-1 1 0.45 1 1 1 1-0.45 1-1zM7.76 11.06c-0.78 0.42-1.49 0.95-2.12 1.58-0.17 0.17-0.34 0.36-0.5 0.54-0.18 0.21-0.15 0.53 0.06 0.7C5.29 13.96 5.41 14 5.52 14c0.14 0 0.28-0.06 0.38-0.18 0.14-0.16 0.29-0.33 0.44-0.48 0.56-0.56 1.2-1.03 1.89-1.4 0.24-0.13 0.34-0.43 0.21-0.68-0.13-0.24-0.43-0.34-0.68-0.2zM2.71 5.97c-0.72 0.51-1.4 1.09-2.02 1.71C0.5 7.87 0.31 8.07 0.13 8.27-0.06 8.48-0.04 8.79 0.16 8.98 0.26 9.07 0.38 9.11 0.5 9.11c0.14 0 0.27-0.06 0.37-0.16 0.17-0.19 0.34-0.37 0.52-0.55 0.59-0.59 1.22-1.13 1.9-1.61 0.22-0.16 0.28-0.47 0.12-0.7-0.16-0.22-0.47-0.28-0.7-0.12z" />
</svg>