<svg id="wifi_2_Layer_1" viewBox="0 0 24 24" fill="currentColor" width="32" height="32" data-name="Layer 1" xmlns="http://www.w3.org/2000/svg" xmlns:xlink="http://www.w3.org/1999/xlink">
    <title>wifi-2</title>
    <path d="M12 21c-1.1 0-2-0.9-2-2s0.9-2 2-2 2 0.9 2 2-0.9 2-2 2zM12 18c-0.55 0-1 0.45-1 1s0.45 1 1 1 1-0.45 1-1-0.45-1-1-1zM18.8 13.88c0.21-0.18 0.24-0.49 0.06-0.7-0.16-0.19-0.32-0.37-0.5-0.54-3.51-3.51-9.22-3.51-12.73 0-0.17 0.17-0.34 0.36-0.5 0.54-0.18 0.21-0.15 0.53 0.06 0.7 0.21 0.18 0.53 0.15 0.71-0.06 0.14-0.16 0.29-0.33 0.44-0.48 3.12-3.12 8.19-3.12 11.31 0 0.16 0.16 0.3 0.32 0.44 0.48 0.1 0.12 0.24 0.18 0.38 0.18 0.11 0 0.23-0.04 0.33-0.12z" />
</svg>