<svg id="wifi_Layer_1" viewBox="0 0 24 24" fill="currentColor" width="32" height="32" data-name="Layer 1" xmlns="http://www.w3.org/2000/svg" xmlns:xlink="http://www.w3.org/1999/xlink">
    <title>wifi</title>
    <path d="M12 21c-1.1 0-2-0.9-2-2s0.9-2 2-2 2 0.9 2 2-0.9 2-2 2zM12 18c-0.55 0-1 0.45-1 1s0.45 1 1 1 1-0.45 1-1-0.45-1-1-1zM18.81 13.88c0.21-0.18 0.23-0.5 0.05-0.71-0.16-0.18-0.32-0.37-0.5-0.54-1.7-1.7-3.96-2.64-6.36-2.64s-4.66 0.94-6.36 2.64c-0.17 0.17-0.34 0.35-0.5 0.54-0.18 0.21-0.16 0.53 0.05 0.71s0.53 0.16 0.71-0.05c0.14-0.17 0.29-0.33 0.44-0.48 1.51-1.51 3.52-2.34 5.66-2.34s4.15 0.83 5.66 2.34c0.16 0.16 0.3 0.32 0.44 0.48 0.1 0.12 0.24 0.17 0.38 0.17 0.12 0 0.23-0.04 0.33-0.12zM23.84 8.98c0.21-0.19 0.22-0.5 0.04-0.71-0.18-0.2-0.37-0.39-0.56-0.59-3.02-3.02-7.04-4.69-11.31-4.69s-8.3 1.67-11.32 4.7C0.5 7.88 0.31 8.08 0.13 8.28-0.06 8.49-0.04 8.8 0.17 8.99 0.38 9.17 0.69 9.16 0.88 8.95 1.05 8.76 1.22 8.58 1.4 8.4 4.23 5.57 8 4.01 12.01 4.01s7.77 1.56 10.61 4.39c0.18 0.18 0.35 0.36 0.52 0.55 0.1 0.11 0.23 0.17 0.37 0.17 0.12 0 0.24-0.04 0.33-0.14z" />
</svg>