<svg id="wildfire_Layer_1" viewBox="0 0 24 24" fill="currentColor" width="32" height="32" data-name="Layer 1" xmlns="http://www.w3.org/2000/svg" xmlns:xlink="http://www.w3.org/1999/xlink">
    <title>wildfire</title>
    <path d="M12 23.5c0 0.276-0.224 0.5-0.5 0.5H8.631C6.629 24 5 22.372 5 20.37v-7.778c0-1.209 0.599-2.334 1.601-3.01l5.869-3.96c1.232-0.832 2.828-0.832 4.061 0l5.869 3.96c0.968 0.652 1.565 1.738 1.6 2.904 8e-3 0.276-0.209 0.506-0.485 0.515-0.277-0.013-0.507-0.209-0.515-0.485-0.024-0.845-0.458-1.631-1.158-2.104l-5.869-3.96c-0.895-0.604-2.049-0.604-2.943 0l-5.869 3.96c-0.726 0.489-1.159 1.305-1.159 2.181v7.778c0 1.45 1.181 2.63 2.631 2.63h2.869c0.276 0 0.5 0.224 0.498 0.499zM24 18.125c0 3.309-2.691 6-6 6s-6-2.691-6-6c0-2.284 1.164-3.965 2.141-4.973 0.29-0.322 0.873-0.089 0.859 0.348 2e-3 0.675 0.215 1.5 0.462 1.5 0.402 0 0.524-0.271 0.799-1.347 0.228-0.89 0.51-1.998 1.361-2.98 0.183-0.215 0.53-0.235 0.731-0.026 0.383 0.383 0.884 0.802 1.413 1.246 1.886 1.58 4.233 3.545 4.234 6.232zM17.612 23.086c0.654 0.103 1.319-0.055 1.802-0.546 0.78-0.78 0.779-2.049 0-2.83L18 18.295 16.585 19.71c-0.779 0.78-0.779 2.05 0 2.831 0.291 0.291 0.65 0.472 1.027 0.545zM23 18.125c0-2.221-2.148-4.02-3.875-5.466-0.377-0.315-0.739-0.619-1.063-0.912-0.461 0.7-0.655 1.465-0.831 2.154-0.264 1.032-0.536 2.1-1.769 2.1-0.708 0-1.116-0.579-1.313-1.303-0.616 0.86-1.148 2.014-1.148 3.428 0 1.736 0.891 3.265 2.238 4.162-0.457-1.091-0.246-2.398 0.64-3.284l1.769-1.768c0.186-0.194 0.521-0.194 0.707 0l1.768 1.768c0.886 0.887 1.098 2.194 0.641 3.284 1.347-0.897 2.238-2.426 2.236-4.163zM6.532 3.229C6.63 4.018 6.752 5 8 5 8.716 5 9.126 4.407 9.32 3.67c0.244 0.309 0.508 0.676 0.754 1.087 0.144 0.238 0.452 0.313 0.686 0.171 0.237-0.142 0.314-0.449 0.172-0.686-0.586-0.977-1.261-1.729-1.61-2.09-0.144-0.147-0.36-0.193-0.547-0.116-0.188 0.076-0.312 0.26-0.312 0.463 0 0.675-0.213 1.5-0.462 1.5-0.316 0-0.364 0-0.476-0.894-0.098-0.792-0.232-1.878-1.146-2.933C6.198-0.045 5.845-0.06 5.648 0.146 5.265 0.529 4.764 0.948 4.235 1.392 2.348 2.972 0 4.938 0 7.625c0 2.036 1.02 3.916 2.727 5.029 0.229 0.149 0.54 0.088 0.692-0.146 0.15-0.231 0.086-0.541-0.146-0.692C1.849 10.888 1 9.321 1 7.625c0-2.221 2.148-4.02 3.875-5.466 0.376-0.314 0.737-0.617 1.062-0.91 0.436 0.686 0.52 1.367 0.595 1.98zM18.405 4.292c0.545-0.755 1.158-1.52 1.97-2.08 0.225 0.424 0.493 0.873 0.773 1.339 0.745 1.242 1.589 2.651 1.86 4.044 0.052 0.273 0.323 0.449 0.587 0.395 0.271-0.053 0.448-0.315 0.396-0.586-0.306-1.566-1.198-3.054-1.985-4.367-0.378-0.631-0.735-1.228-0.972-1.745-0.111-0.259-0.452-0.373-0.694-0.231-1.381 0.754-2.303 2.032-2.745 2.646-0.162 0.224-0.111 0.537 0.113 0.698 0.222 0.16 0.535 0.11 0.697-0.113zM3.658 23.026C2.118 22.51 1 20.87 1 19.125c0-1.015 0.283-1.779 0.636-2.358 0.093 0.411 0.249 0.825 0.511 1.087 0.195 0.195 0.512 0.195 0.707 0s0.195-0.512 0-0.707C2.625 16.918 2.501 16.043 2.5 15.5c0-0.204-0.124-0.387-0.312-0.463-0.19-0.077-0.405-0.03-0.547 0.115C0.537 16.292 0 17.591 0 19.125c0 2.162 1.405 4.201 3.342 4.849 0.254 0.087 0.546-0.052 0.633-0.315 0.087-0.262-0.054-0.545-0.317-0.633z" />
</svg>