<svg id="window_frame_Layer_1" viewBox="0 0 24 24" fill="currentColor" width="32" height="32" data-name="Layer 1" xmlns="http://www.w3.org/2000/svg" xmlns:xlink="http://www.w3.org/1999/xlink">
    <title>window-frame</title>
    <path d="M23.5 23H22V4.5C22 2.019 19.981 0 17.5 0h-11C4.019 0 2 2.019 2 4.5V23H0.5C0.224 23 0 23.224 0 23.5S0.224 24 0.5 24h23c0.276 0 0.5-0.224 0.5-0.5S23.776 23 23.5 23zM21 23h-8.5V13H21zM21 4.5V12h-8.5V1h5C19.43 1 21 2.57 21 4.5zM6.5 1h5v11H3V4.5C3 2.57 4.57 1 6.5 1zM3 13h8.5v10H3z" />
</svg>