<svg id="wind_Layer_1" viewBox="0 0 24 24" fill="currentColor" width="32" height="32" data-name="Layer 1" xmlns="http://www.w3.org/2000/svg" xmlns:xlink="http://www.w3.org/1999/xlink">
    <title>wind</title>
    <path d="M0 11.5C0 11.224 0.224 11 0.5 11h7C7.776 11 8 11.224 8 11.5S7.776 12 7.5 12h-7C0.224 12 0 11.776 0 11.5zM20.5 11h-0.206C21.326 10.175 22 8.921 22 7.5 22 5.019 19.981 3 17.5 3S13 5.019 13 7.5C13 7.776 13.224 8 13.5 8S14 7.776 14 7.5C14 5.57 15.57 4 17.5 4S21 5.57 21 7.5 19.43 11 17.5 11h-7c-0.276 0-0.5 0.224-0.5 0.5s0.224 0.5 0.5 0.5h10c1.378 0 2.5 1.121 2.5 2.5S21.878 17 20.5 17 18 15.879 18 14.5c0-0.276-0.224-0.5-0.5-0.5S17 14.224 17 14.5c0 1.93 1.57 3.5 3.5 3.5s3.5-1.57 3.5-3.5-1.57-3.5-3.5-3.5zM11 16H0.5C0.224 16 0 16.224 0 16.5S0.224 17 0.5 17H11c1.654 0 3 1.346 3 3s-1.346 3-3 3-3-1.346-3-3v-0.5C8 19.224 7.776 19 7.5 19S7 19.224 7 19.5V20c0 2.206 1.794 4 4 4s4-1.794 4-4-1.794-4-4-4zM0.5 7h7C9.43 7 11 5.43 11 3.5S9.43 0 7.5 0 4 1.57 4 3.5C4 3.776 4.224 4 4.5 4S5 3.776 5 3.5C5 2.121 6.122 1 7.5 1S10 2.121 10 3.5 8.878 6 7.5 6h-7C0.224 6 0 6.224 0 6.5S0.224 7 0.5 7z" />
</svg>