<svg id="window_alt_Layer_1" viewBox="0 0 24 24" fill="currentColor" width="32" height="32" data-name="Layer 1" xmlns="http://www.w3.org/2000/svg" xmlns:xlink="http://www.w3.org/1999/xlink">
    <title>window-alt</title>
    <path d="M19.5 1h-15C2.02 1 0 3.02 0 5.5v13C0 20.98 2.02 23 4.5 23h15c2.48 0 4.5-2.02 4.5-4.5v-13C24 3.02 21.98 1 19.5 1zM4.5 2h15C21.43 2 23 3.57 23 5.5V8H1V5.5C1 3.57 2.57 2 4.5 2zM19.5 22h-15C2.57 22 1 20.43 1 18.5V9h22v9.5c0 1.93-1.57 3.5-3.5 3.5zM19 5c0-0.55 0.45-1 1-1s1 0.45 1 1-0.45 1-1 1-1-0.45-1-1zM16 5c0-0.55 0.45-1 1-1s1 0.45 1 1-0.45 1-1 1-1-0.45-1-1zM13 5c0-0.55 0.45-1 1-1s1 0.45 1 1-0.45 1-1 1-1-0.45-1-1z" />
</svg>