<svg id="windsurf_Layer_1" viewBox="0 0 24 24" fill="currentColor" width="32" height="32" data-name="Layer 1" xmlns="http://www.w3.org/2000/svg" xmlns:xlink="http://www.w3.org/1999/xlink">
    <title>windsurf</title>
    <path d="M2 6c1.103 0 2-0.898 2-2S3.103 2 2 2 0 2.897 0 3.999 0.897 5.999 2 6zM2 2.999c0.551 0 1 0.448 1 1s-0.449 1-1 1-1-0.448-1-1 0.449-1 1-1zM13.267 16.079c0.126 0.64 0.495 1.187 1.038 1.54 0.537 0.349 1.179 0.463 1.797 0.322l6.041-1.366c1.177-0.265 1.985-1.406 1.84-2.599-0.87-7.14-6.943-12.177-10.813-13.821-0.658-0.279-1.41-0.175-1.962 0.274-0.561 0.455-0.812 1.155-0.67 1.87zM11.839 1.205c0.269-0.22 0.625-0.265 0.94-0.13 3.657 1.553 9.393 6.302 10.211 13.023 0.084 0.689-0.386 1.349-1.068 1.503l-6.041 1.366c-0.356 0.08-0.723 0.014-1.031-0.187-0.314-0.204-0.528-0.523-0.603-0.895L11.519 2.106c-0.068-0.347 0.051-0.683 0.32-0.901zM3.435 7.24C2.859 7.035 2.35 6.901 1.718 7.035 0.554 7.282-0.186 8.46 0.067 9.661l0.616 2.929c0.222 1.056 0.921 2.29 2.229 2.592l3.587 0.733c0.594 0.121 1.054 0.584 1.171 1.179l0.59 2.989c0.053 0.272 0.323 0.448 0.587 0.394 0.271-0.053 0.447-0.316 0.394-0.587l-0.59-2.989c-0.196-0.992-0.962-1.764-1.953-1.966l-1.342-0.274L4.068 8.54 5.816 9.195C6.263 9.363 6.746 9.399 7.21 9.3l2.892-0.61c0.271-0.057 0.443-0.322 0.386-0.593s-0.324-0.44-0.592-0.386l-2.893 0.61c-0.28 0.062-0.569 0.038-0.836-0.063 0 0-2.645-1.011-2.732-1.018zM3.125 14.205c-0.838-0.193-1.312-1.101-1.463-1.819l-0.616-2.93c-0.137-0.65 0.266-1.312 0.881-1.442 0.338-0.073 0.614-0.024 1.036 0.118l1.328 6.311zM23.826 23.113c-0.666 0.572-1.524 0.888-2.417 0.888-1.239 0-2.434-0.594-3.137-1.494-0.703 0.9-1.896 1.494-3.136 1.494s-2.434-0.594-3.137-1.494c-0.703 0.9-1.897 1.494-3.136 1.494s-2.434-0.594-3.136-1.494c-0.703 0.9-1.897 1.494-3.137 1.494-0.893 0-1.75-0.315-2.416-0.888-0.209-0.18-0.233-0.495-0.054-0.705 0.181-0.209 0.498-0.232 0.705-0.053 0.485 0.416 1.112 0.646 1.765 0.646 1.168 0 2.315-0.72 2.668-1.674 0.072-0.196 0.259-0.326 0.469-0.326s0.396 0.131 0.469 0.327c0.352 0.953 1.499 1.673 2.667 1.673s2.314-0.72 2.667-1.674c0.145-0.393 0.793-0.393 0.937 0 0.353 0.954 1.5 1.674 2.668 1.674s2.314-0.72 2.667-1.674c0.145-0.393 0.793-0.393 0.937 0 0.353 0.954 1.5 1.674 2.668 1.674 0.653 0 1.28-0.23 1.765-0.646 0.211-0.18 0.526-0.156 0.705 0.053 0.181 0.21 0.156 0.525-0.051 0.705z" />
</svg>