<svg id="window_restore_Layer_1" viewBox="0 0 24 24" fill="currentColor" width="32" height="32" data-name="Layer 1" xmlns="http://www.w3.org/2000/svg" xmlns:xlink="http://www.w3.org/1999/xlink">
    <title>window-restore</title>
    <path d="M13.5 6h-9C2.02 6 0 8.02 0 10.5v9C0 21.98 2.02 24 4.5 24h9c2.48 0 4.5-2.02 4.5-4.5v-9C18 8.02 15.98 6 13.5 6zM13.5 23h-9C2.57 23 1 21.43 1 19.5V12h16v7.5c0 1.93-1.57 3.5-3.5 3.5zM17 11H1v-0.5C1 8.57 2.57 7 4.5 7h9c1.93 0 3.5 1.57 3.5 3.5zM24 4.5v9c0 2.05-1.39 3.85-3.38 4.36-0.04 0.01-0.08 0.02-0.12 0.02-0.22 0-0.43-0.15-0.48-0.38-0.07-0.27 0.09-0.54 0.36-0.61 1.55-0.4 2.62-1.79 2.62-3.39v-9C23 2.57 21.43 1 19.5 1h-9C8.9 1 7.51 2.08 7.11 3.62 7.04 3.89 6.77 4.05 6.5 3.98S6.07 3.64 6.14 3.37c0.51-1.99 2.3-3.38 4.36-3.38h9c2.48 0 4.5 2.02 4.5 4.51z" />
</svg>