<svg id="wind_turbine_Layer_1" viewBox="0 0 24 24" fill="currentColor" width="32" height="32" data-name="Layer 1" xmlns="http://www.w3.org/2000/svg" xmlns:xlink="http://www.w3.org/1999/xlink">
    <title>wind-turbine</title>
    <path d="M21.372 13.653c-1.325-1.059-3.87-3.044-6.028-4.441-0.127-0.083-0.204-0.206-0.221-0.357-0.288-2.554-0.93-5.717-1.286-7.375C13.65 0.609 12.895 1e-3 12 1e-3s-1.65 0.608-1.837 1.479C9.807 3.138 9.165 6.302 8.877 8.855 8.86 9.006 8.784 9.129 8.656 9.212c-2.157 1.397-4.702 3.382-6.027 4.441-0.696 0.556-0.903 1.503-0.504 2.304 0.326 0.654 0.975 1.044 1.672 1.044 0.156 0 0.313-0.02 0.471-0.06 1.7-0.435 4.827-1.279 7.232-2.162L11.479 23H7.5C7.224 23 7 23.224 7 23.5S7.224 24 7.5 24h9c0.276 0 0.5-0.224 0.5-0.5S16.776 23 16.5 23h-4.021l0.021-8.222c2.404 0.883 5.533 1.728 7.234 2.163 0.862 0.22 1.744-0.184 2.143-0.985s0.192-1.748-0.505-2.303zM20.981 15.511c-0.186 0.375-0.597 0.564-1 0.462-1.757-0.45-5.063-1.34-7.456-2.249-0.172-0.065-0.349-0.098-0.525-0.098s-0.353 0.033-0.524 0.098c-2.394 0.909-5.7 1.799-7.457 2.249-0.402 0.101-0.813-0.087-1-0.462s-0.091-0.817 0.233-1.076c1.311-1.047 3.826-3.009 5.947-4.383 0.376-0.244 0.622-0.639 0.672-1.084 0.283-2.511 0.917-5.637 1.27-7.278 0.087-0.406 0.44-0.689 0.859-0.689s0.772 0.283 0.859 0.689c0.353 1.641 0.987 4.767 1.27 7.278 0.05 0.445 0.295 0.841 0.671 1.084 2.121 1.374 4.637 3.336 5.947 4.383 0.324 0.259 0.42 0.702 0.234 1.076zM13.001 11c0 0.552-0.448 1-1 1s-1-0.448-1-1 0.448-1 1-1 1 0.448 1 1z" />
</svg>