<svg id="windsock_Layer_1" viewBox="0 0 24 24" fill="currentColor" width="32" height="32" data-name="Layer 1" xmlns="http://www.w3.org/2000/svg" xmlns:xlink="http://www.w3.org/1999/xlink">
    <title>windsock</title>
    <path d="M21.968 8.507 3.132 4.919C4.205 4.638 5 3.66 5 2.5 5 1.122 3.878 0 2.5 0S0 1.122 0 2.5c0 1.208 0.86 2.217 2 2.45V23.5C2 23.776 2.224 24 2.5 24S3 23.776 3 23.5v-4.586l18.968-3.613C23.145 15.077 24 14.044 24 12.845v-1.882c0-1.199-0.855-2.232-2.032-2.456zM2.5 4C1.673 4 1 3.327 1 2.5S1.673 1 2.5 1 4 1.673 4 2.5 3.327 4 2.5 4zM6 17.324 3 17.896V5.912l3 0.572zM7 6.674l3 0.572v9.317l-3 0.572zM10.004 16.562zM14 15.801l-3 0.572V7.436l3 0.572zM14.987 15.613zM14.987 8.196zM18 15.039 15 15.61V8.198l3 0.571zM23 12.846c0 0.719-0.513 1.338-1.22 1.473L19 14.849V8.96l2.78 0.53C22.487 9.625 23 10.244 23 10.964z" />
</svg>