<svg id="window_frame_open_Layer_1" viewBox="0 0 24 24" fill="currentColor" width="32" height="32" data-name="Layer 1" xmlns="http://www.w3.org/2000/svg" xmlns:xlink="http://www.w3.org/1999/xlink">
    <title>window-frame-open</title>
    <path d="M24 23.5c0 0.276-0.224 0.5-0.5 0.5h-23C0.224 24 0 23.776 0 23.5S0.224 23 0.5 23H2v-7.5C2 15.224 2.224 15 2.5 15S3 15.224 3 15.5V23h18v-7.5c0-0.276 0.224-0.5 0.5-0.5s0.5 0.224 0.5 0.5V23h1.5c0.276 0 0.5 0.224 0.5 0.5zM2 12.5v-8C2 2.019 4.019 0 6.5 0h11C19.981 0 22 2.019 22 4.5v8c0 0.276-0.224 0.5-0.5 0.5h-19C2.224 13 2 12.776 2 12.5zM17.5 1h-5v11H21V4.5C21 2.57 19.43 1 17.5 1zM3 12h8.5V1h-5C4.57 1 3 2.57 3 4.5z" />
</svg>