<svg id="wine_glass_empty_Layer_1" viewBox="0 0 24 24" fill="currentColor" width="32" height="32" data-name="Layer 1" xmlns="http://www.w3.org/2000/svg" xmlns:xlink="http://www.w3.org/1999/xlink">
    <title>wine-glass-empty</title>
    <path d="M17.5 0h-11C5.122 0 4 1.121 4 2.5v7.186c0 4.365 3.343 8.024 7.5 8.29v5.025h-4c-0.276 0-0.5 0.224-0.5 0.5s0.224 0.5 0.5 0.5h9c0.276 0 0.5-0.224 0.5-0.5s-0.224-0.5-0.5-0.5h-4v-5.024c1.905-0.116 3.685-0.89 5.071-2.235 1.566-1.52 2.429-3.559 2.429-5.741V2.5C20 1.121 18.878 0 17.5 0zM19 10c0 1.909-0.755 3.693-2.125 5.024-1.371 1.329-3.186 2.02-5.09 1.972-3.741-0.112-6.784-3.392-6.784-7.311V2.5c0-0.827 0.673-1.5 1.5-1.5h11c0.827 0 1.5 0.673 1.5 1.5z" />
</svg>