<svg id="wine_glass_crack_Layer_1" viewBox="0 0 24 24" fill="currentColor" width="32" height="32" data-name="Layer 1" xmlns="http://www.w3.org/2000/svg" xmlns:xlink="http://www.w3.org/1999/xlink">
    <title>wine-glass-crack</title>
    <path d="M19 9V2.5C19 1.121 17.878 0 16.5 0h-3.979c-0.013 0-0.025 0-0.038 0H7.5C6.122 0 5 1.121 5 2.5V9c0 3.691 2.873 6.725 6.5 6.982V23h-4C7.224 23 7 23.224 7 23.5S7.224 24 7.5 24h9c0.276 0 0.5-0.224 0.5-0.5S16.776 23 16.5 23h-4v-7.018C16.127 15.725 19 12.691 19 9zM6 9V2.5C6 1.673 6.673 1 7.5 1h4.035c0 0-2.471 3.511-2.487 3.562C8.944 4.904 9.007 5.263 9.219 5.55 9.431 5.836 9.758 6 10.115 6h3.78c0.041 0 0.072 0.019 0.091 0.055s0.018 0.072 4e-3 0.093l-2.898 4.062c-0.16 0.225-0.108 0.537 0.117 0.697 0.088 0.062 0.189 0.093 0.29 0.093 0.156 0 0.31-0.073 0.408-0.21l2.908-4.076c0.225-0.34 0.246-0.773 0.053-1.132C14.676 5.223 14.303 5 13.896 5h-3.78c-0.048 0-0.077-0.025-0.092-0.047-9e-3-0.012-0.019-0.029-0.022-0.051L12.76 1h3.742c0.827 0 1.5 0.673 1.5 1.5V9c0 3.309-2.691 6-6 6s-6-2.691-6.002-6z" />
</svg>