<svg id="wine_bottle_Layer_1" viewBox="0 0 24 24" fill="currentColor" width="32" height="32" data-name="Layer 1" xmlns="http://www.w3.org/2000/svg" xmlns:xlink="http://www.w3.org/1999/xlink">
    <title>wine-bottle</title>
    <path d="M19.006 9.401 15.01 6.737V1.506c0-0.827-0.673-1.5-1.5-1.5h-3c-0.827 0-1.5 0.673-1.5 1.5v5.231L5.014 9.401c-1.255 0.837-2.004 2.237-2.004 3.745v6.36c0 2.481 2.019 4.5 4.5 4.5h9c2.481 0 4.5-2.019 4.5-4.5v-6.36c0-1.508-0.749-2.908-2.004-3.745zM10.51 1.006h3c0.275 0 0.5 0.224 0.5 0.5v1.499h-4V1.506c0-0.276 0.225-0.5 0.5-0.5zM20.01 19.506c0 1.93-1.57 3.5-3.5 3.5h-9c-1.93 0-3.5-1.57-3.5-3.5v-4.5h13.5c0.276 0 0.5-0.225 0.5-0.501s-0.224-0.5-0.5-0.5H4.01c0 0 0-0.859 0-0.859 0-1.172 0.583-2.261 1.559-2.913l4.219-2.812c0.139-0.093 0.223-0.249 0.223-0.416v-3h4v3c0 0.167 0.084 0.323 0.223 0.416l4.219 2.812c0.976 0.651 1.559 1.739 1.559 2.913z" />
</svg>