<svg id="wings_box_Layer_1" viewBox="0 0 24 24" fill="currentColor" width="32" height="32" data-name="Layer 1" xmlns="http://www.w3.org/2000/svg" xmlns:xlink="http://www.w3.org/1999/xlink">
    <title>wings-box</title>
    <path d="M22.656 3.88C22.873 4.2 23 4.585 23 5c0 0.872-0.564 1.607-1.344 1.88C21.873 7.2 22 7.585 22 8c0 1.103-0.897 2-2 2h-3.5C16.224 10 16 9.776 16 9.5S16.224 9 16.5 9H20c0.551 0 1-0.449 1-1s-0.449-1-1-1h-2.5C17.224 7 17 6.776 17 6.5S17.224 6 17.5 6H21c0.551 0 1-0.449 1-1s-0.449-1-1-1h-2.5C18.224 4 18 3.776 18 3.5S18.224 3 18.5 3H22c0.551 0 1-0.449 1-1s-0.449-1-1-1h-3.5c-2.144 0-2.95 2.01-3.215 2.671-0.586 1.463-1.219 3.247-2.284 4.806C12.773 8.805 12.399 9 12 9s-0.773-0.196-1.001-0.523c-1.061-1.553-1.695-3.334-2.277-4.79C8.451 3.011 7.644 1 5.501 1H2C1.449 1 1 1.449 1 2s0.449 1 1 1h3.5C5.776 3 6 3.224 6 3.5S5.776 4 5.5 4H3C2.449 4 2 4.449 2 5s0.449 1 1 1h3.5C6.776 6 7 6.224 7 6.5S6.776 7 6.5 7H4C3.449 7 3 7.449 3 8s0.449 1 1 1h3.5C7.776 9 8 9.224 8 9.5S7.776 10 7.5 10H4c-1.103 0-2-0.897-2-2 0-0.415 0.127-0.8 0.344-1.12C1.564 6.607 1 5.872 1 5 1 4.585 1.127 4.2 1.344 3.88 0.564 3.607 0 2.872 0 2 0 0.897 0.897 0 2 0h3.5c1.871 0 3.265 1.11 4.143 3.299 0.564 1.409 1.182 3.15 2.176 4.606 0.115 0.165 0.247 0.165 0.361 0 0.992-1.452 1.609-3.189 2.171-4.592C15.235 1.109 16.629 0 18.5 0H22c1.103 0 2 0.897 2 2 0 0.872-0.564 1.607-1.344 1.88zM19 15.5v5c0 1.93-1.57 3.5-3.5 3.5h-7C6.57 24 5 22.43 5 20.5v-5C5 13.57 6.57 12 8.5 12h7c1.93 0 3.5 1.57 3.5 3.5zM18 15.5c0-1.379-1.122-2.5-2.5-2.5h-7C7.122 13 6 14.121 6 15.5v5C6 21.879 7.122 23 8.5 23h7c1.378 0 2.5-1.121 2.5-2.5zM13.5 16h-3c-0.276 0-0.5 0.224-0.5 0.5s0.224 0.5 0.5 0.5h3c0.276 0 0.5-0.224 0.5-0.5S13.776 16 13.5 16z" />
</svg>