<svg id="wisdom_Layer_1" viewBox="0 0 24 24" fill="currentColor" width="32" height="32" data-name="Layer 1" xmlns="http://www.w3.org/2000/svg" xmlns:xlink="http://www.w3.org/1999/xlink">
    <title>wisdom</title>
    <path d="M24 16.745c0 0.519-0.364 1.29-1.365 1.29H22.25l-0.413 1.945C21.465 21.73 19.898 23 18.109 23h-1.11v0.5c0 0.276-0.224 0.5-0.5 0.5s-0.5-0.224-0.5-0.5v-1c0-0.276 0.224-0.5 0.5-0.5h1.61c1.319 0 2.475-0.937 2.749-2.228l0.497-2.341c0.049-0.231 0.251-0.396 0.488-0.396h0.792c0.105 0 0.353 0 0.365-0.3 0-0.673-2.152-6.021-3.303-7.444-1.891-2.524-4.992-3.725-8.099-3.145C8.003 6.815 5.3 9.888 5.025 13.619c-0.149 2.024 0.559 4.204 1.941 5.982C7.642 20.47 8 21.462 8 22.47v1.03C8 23.776 7.776 24 7.5 24S7 23.776 7 23.5v-1.03c0-0.783-0.285-1.562-0.823-2.254-1.533-1.971-2.317-4.402-2.149-6.669 0.308-4.184 3.346-7.631 7.387-8.383 3.487-0.648 6.961 0.697 9.071 3.514C21.65 10.117 24 15.695 24 16.745zM10.78 3c0.023 0 0.046-1e-3 0.07-5e-3 0.273-0.039 0.464-0.292 0.425-0.565l-0.281-2c-0.038-0.273-0.29-0.465-0.564-0.426-0.273 0.038-0.464 0.291-0.426 0.564l0.281 2C10.32 2.818 10.534 2.998 10.78 3zM5.596 4.986c0.097 0.138 0.252 0.212 0.409 0.212 0.1 0 0.2-0.03 0.288-0.091 0.226-0.159 0.28-0.471 0.121-0.697L5.25 2.76C5.09 2.534 4.778 2.481 4.553 2.639 4.327 2.798 4.273 3.11 4.432 3.336zM3.054 8.281 1.274 7.325c-0.244-0.13-0.546-0.04-0.677 0.204-0.131 0.243-0.04 0.546 0.204 0.677l1.78 0.956c0.076 0.041 0.157 0.06 0.236 0.06 0.178 0 0.351-0.095 0.441-0.263 0.131-0.244 0.04-0.547-0.204-0.678zM16.025 3.266c0.057 0.021 0.114 0.03 0.171 0.03 0.204 0 0.396-0.126 0.47-0.329l0.692-1.898c0.095-0.259-0.039-0.546-0.299-0.641-0.258-0.093-0.546 0.04-0.641 0.299l-0.692 1.897c-0.095 0.26 0.039 0.546 0.299 0.642zM20.781 6.046c0.121 0 0.241-0.043 0.337-0.13l1.493-1.36c0.204-0.187 0.219-0.502 0.033-0.707-0.187-0.205-0.503-0.218-0.707-0.033l-1.493 1.36c-0.204 0.186-0.219 0.502-0.033 0.707 0.099 0.108 0.234 0.163 0.37 0.163zM15.413 14.999h-1.195c-0.139 0-0.27 0.058-0.358 0.158-0.474 0.534-1.164 0.831-1.861 0.83v5.512c0 0.276-0.224 0.5-0.5 0.5s-0.5-0.224-0.5-0.5v-4.807C10.618 16.888 10.196 17 9.754 17c-0.241 0-0.486-0.031-0.731-0.095-0.937-0.243-1.696-1.007-1.935-1.947-0.272-1.074 0.104-2.173 0.941-2.845-0.02-0.125-0.03-0.247-0.03-0.366 0-1.358 1.053-2.474 2.386-2.575 0.454-0.722 1.251-1.173 2.114-1.173 0.784 0 1.52 0.376 1.989 1h0.011c0.916 0 1.758 0.507 2.193 1.307 0.965 0.524 1.478 1.612 1.255 2.71-0.234 1.149-1.299 1.983-2.534 1.983zM16.113 11.134c-0.111-0.05-0.2-0.139-0.25-0.25-0.263-0.582-0.899-0.957-1.506-0.871-0.205 0.027-0.457-0.064-0.558-0.244-0.267-0.476-0.766-0.771-1.301-0.771-0.584 0-1.119 0.346-1.363 0.882-0.084 0.187-0.285 0.305-0.477 0.292-0.013 0-0.09-9e-3-0.103-0.01-0.848 0-1.558 0.711-1.558 1.583 0 0.133 0.023 0.272 0.072 0.44 0.064 0.218-0.026 0.452-0.221 0.569-0.679 0.41-0.99 1.178-0.792 1.956 0.147 0.582 0.636 1.075 1.216 1.225 0.66 0.171 1.304-0.041 1.741-0.516 0.035-0.214 0.199-0.376 0.413-0.408 0.093-0.044 0.196-0.063 0.301-0.042 0.495 0.092 1.032-0.081 1.382-0.477 0.278-0.315 0.682-0.496 1.107-0.496h1.195c0.761 0 1.415-0.497 1.554-1.182 0.142-0.7-0.209-1.392-0.852-1.68z" />
</svg>