<svg id="wishlist_heart_Layer_1" viewBox="0 0 24 24" fill="currentColor" width="32" height="32" data-name="Layer 1" xmlns="http://www.w3.org/2000/svg" xmlns:xlink="http://www.w3.org/1999/xlink">
    <title>wishlist-heart</title>
    <path d="M15 5.5C15 5.776 14.776 6 14.5 6h-6C8.224 6 8 5.776 8 5.5S8.224 5 8.5 5h6C14.776 5 15 5.224 15 5.5zM15 10.5c0-0.276-0.224-0.5-0.5-0.5h-6C8.224 10 8 10.224 8 10.5S8.224 11 8.5 11h6c0.276 0 0.5-0.224 0.5-0.5zM5 14.5c-0.552 0-1 0.448-1 1s0.448 1 1 1 1-0.448 1-1-0.448-1-1-1zM5 4.5c-0.552 0-1 0.448-1 1s0.448 1 1 1 1-0.448 1-1-0.448-1-1-1zM5 9.5c-0.552 0-1 0.448-1 1s0.448 1 1 1 1-0.448 1-1-0.448-1-1-1zM13.5 23h-9C2.57 23 1 21.43 1 19.5v-15C1 2.57 2.57 1 4.5 1h10C16.43 1 18 2.57 18 4.5v6c0 0.276 0.224 0.5 0.5 0.5s0.5-0.224 0.5-0.5v-6C19 2.019 16.981 0 14.5 0h-10C2.019 0 0 2.019 0 4.5v15C0 21.981 2.019 24 4.5 24h9c0.276 0 0.5-0.224 0.5-0.5S13.776 23 13.5 23zM8.5 15C8.224 15 8 15.224 8 15.5S8.224 16 8.5 16h1c0.276 0 0.5-0.224 0.5-0.5S9.776 15 9.5 15zM23.983 16.451c0 2.562-3.148 5.378-5.025 6.828-0.287 0.223-0.63 0.333-0.975 0.333s-0.688-0.11-0.975-0.333c-1.876-1.45-5.025-4.266-5.025-6.828 0-1.913 1.458-3.47 3.25-3.47 1.145 0 2.161 0.516 2.761 1.334 0.589-0.826 1.586-1.334 2.739-1.334 1.792 0 3.25 1.557 3.25 3.47zM22.983 16.451c0-1.361-1.009-2.47-2.25-2.47-1.116 0-2.019 0.656-2.246 1.632-0.104 0.453-0.869 0.453-0.974 0-0.224-0.961-1.161-1.632-2.28-1.632-1.241 0-2.25 1.108-2.25 2.47 0 2.276 3.549 5.196 4.637 6.037 0.214 0.166 0.512 0.166 0.726 0 1.088-0.841 4.637-3.761 4.637-6.037z" />
</svg>