<svg id="wishlist_star_Layer_1" viewBox="0 0 24 24" fill="currentColor" width="32" height="32" data-name="Layer 1" xmlns="http://www.w3.org/2000/svg" xmlns:xlink="http://www.w3.org/1999/xlink">
    <title>wishlist-star</title>
    <path d="M16.5 0h-9C5.019 0 3 2.019 3 4.5v17.162c0 0.977 0.589 1.832 1.501 2.181 0.911 0.347 1.922 0.104 2.585-0.639L12 17.283l4.926 5.935c0.454 0.508 1.083 0.781 1.732 0.781 0.281 0 0.565-0.052 0.841-0.156C20.411 23.494 21 22.639 21 21.662V4.5C21 2.019 18.981 0 16.5 0zM20 21.662c0 0.677-0.443 1.088-0.858 1.246s-1.02 0.148-1.459-0.343l-5.298-6.385c-0.095-0.114-0.236-0.181-0.385-0.181s-0.29 0.066-0.385 0.181l-5.286 6.371c-0.453 0.503-1.057 0.515-1.471 0.356S4 22.338 4 21.661V4.5C4 2.57 5.57 1 7.5 1h9C18.43 1 20 2.57 20 4.5zM15.75 6h-1.898l-0.68-1.909c-0.181-0.486-0.651-0.813-1.171-0.813s-0.991 0.327-1.174 0.819L10.149 6H8.251C7.73 6 7.258 6.329 7.078 6.818 6.897 7.308 7.043 7.865 7.45 8.209l1.521 1.237-0.604 1.935c-0.159 0.506 0.02 1.059 0.443 1.375 0.218 0.163 0.477 0.249 0.749 0.249 0.248 0 0.488-0.072 0.714-0.224l1.738-1.281 1.79 1.284c0.443 0.287 1.023 0.263 1.444-0.058 0.42-0.324 0.591-0.88 0.424-1.383L15.043 9.44l1.514-1.233c0.4-0.337 0.548-0.894 0.369-1.385C16.747 6.33 16.275 6 15.75 6zM15.917 7.437 14.143 8.882c-0.161 0.131-0.224 0.348-0.159 0.544l0.734 2.231c0.034 0.101 0 0.212-0.083 0.275-0.086 0.064-0.202 0.07-0.272 0.025l-2.065-1.482c-0.176-0.127-0.414-0.125-0.588 4e-3L9.7 11.961c-0.075 0.05-0.164 0.088-0.292-7e-3-0.084-0.063-0.12-0.174-0.088-0.275l0.706-2.258c0.061-0.195-3e-3-0.408-0.162-0.537L8.089 7.439c-0.08-0.066-0.108-0.178-0.072-0.275C8.053 7.065 8.147 7 8.251 7h2.251c0.211 0 0.4-0.133 0.471-0.332l0.794-2.229c0.071-0.193 0.399-0.188 0.465-6e-3l0.796 2.235C13.099 6.867 13.288 7 13.499 7h2.251c0.104 0 0.199 0.066 0.235 0.164 0.036 0.099 6e-3 0.21-0.068 0.273z" />
</svg>