<svg id="witness_Layer_1" viewBox="0 0 24 24" fill="currentColor" width="32" height="32" data-name="Layer 1" xmlns="http://www.w3.org/2000/svg" xmlns:xlink="http://www.w3.org/1999/xlink">
    <title>witness</title>
    <path d="M21.499 0 17.527 2e-3c-1.378 0-2.499 1.122-2.499 2.5l2e-3 6.358c-0.014 0.618 0.531 1.153 1.144 1.143 0.246 0 0.489-0.08 0.694-0.237l2.302-1.767h2.33c1.379 0 2.5-1.122 2.5-2.5v-3C24 1.122 22.878 0 21.499 0zM23 5.5C23 6.327 22.327 7 21.5 7H19c-0.11 0-0.217 0.036-0.305 0.104l-2.437 1.87c-0.057 0.044-0.112 0.033-0.149 0.015-0.036-0.018-0.079-0.055-0.079-0.127l-2e-3-6.358c0-0.827 0.673-1.5 1.499-1.5l3.972-2e-3c0.828 0 1.501 0.673 1.501 1.5zM16.5 17h-1.525c-0.257-3.351-3.059-6-6.475-6s-6.218 2.649-6.475 6H0.5C0.224 17 0 17.224 0 17.5S0.224 18 0.5 18H1v5.5C1 23.776 1.224 24 1.5 24S2 23.776 2 23.5V18h13v5.5c0 0.276 0.224 0.5 0.5 0.5s0.5-0.224 0.5-0.5V18h0.5c0.276 0 0.5-0.224 0.5-0.5S16.776 17 16.5 17zM3.025 17c0.254-2.799 2.611-5 5.475-5s5.221 2.201 5.475 5zM8.5 9C10.981 9 13 6.981 13 4.5S10.981 0 8.5 0 4 2.019 4 4.5 6.019 9 8.5 9zM8.5 1C10.43 1 12 2.57 12 4.5S10.43 8 8.5 8 5 6.43 5 4.5 6.57 1 8.5 1z" />
</svg>