<svg id="woman_head_Layer_1" viewBox="0 0 24 24" fill="currentColor" width="32" height="32" data-name="Layer 1" xmlns="http://www.w3.org/2000/svg" xmlns:xlink="http://www.w3.org/1999/xlink">
    <title>woman-head</title>
    <path d="M23.927 18.7l-1.314-5.585c0 0 3e-3-3e-3 5e-3-5e-3 0.569-0.561 0.883-1.311 0.882-2.113 0-1.321-0.864-2.468-2.098-2.855C20.737 3.475 16.757 0 12.002 0h-3e-3C5.425 0 3.297 4.959 1.889 8.241 1.315 9.579 0.82 10.735 0.248 11.068c-0.195 0.113-0.29 0.344-0.231 0.562C0.076 11.849 0.274 12 0.5 12c0.22 0 3.697-0.035 7.501-2.042C8.001 9.972 8 9.985 8 9.999c0 0.552 0.448 1 1 1s1-0.448 1-1c0-0.392-0.226-0.731-0.554-0.895 1.559-1.029 3.112-2.423 4.461-4.312 0.161-0.226 0.108-0.537-0.116-0.698-0.224-0.159-0.536-0.106-0.697 0.116-3.64 5.096-8.986 6.368-11.37 6.686 0.373-0.6 0.707-1.377 1.085-2.259 1.381-3.224 3.274-7.638 9.19-7.638 0 0 0 0 3e-3 0 4.36 0 7.992 3.266 8.449 7.598 0.023 0.221 0.189 0.399 0.408 0.439 0.95 0.173 1.64 0.997 1.641 1.965 0 0.529-0.5 1.961-1.99 1.961l-0.429-6e-3c-0.205 0.031-0.407 0.132-0.479 0.334-0.969 2.745-4.15 5.708-7.599 5.708H12c-2.433 0-5.051-1.514-6.669-3.857C4.838 14.427 4.037 14 3.188 14c-1.211 0-2.278 0.859-2.536 2.043l-0.584 2.686c-0.228 1.312 0.133 2.649 0.991 3.669C1.916 23.416 3.17 24 4.5 24h4c0.133 0 0.26-0.052 0.354-0.146S9 23.633 9 23.5v-4.127c0.982 0.405 2.003 0.626 3 0.627 1.036 0 2.05-0.235 3-0.638V23.5c0 0.276 0.224 0.5 0.5 0.5h4c1.331 0 2.585-0.584 3.442-1.602 0.857-1.019 1.219-2.356 0.985-3.698zM8 19v3.999H4.5c-1.035 0-2.01-0.454-2.676-1.246-0.667-0.792-0.948-1.832-0.775-2.832l0.58-2.665C1.788 15.528 2.443 15 3.188 15c0.521 0 1.014 0.265 1.32 0.709 0.926 1.341 2.154 2.438 3.503 3.187C8.004 18.929 8 18.964 8 19zM22.177 21.754c-0.667 0.791-1.642 1.245-2.677 1.245H16c0 0 0-3.999 0-3.999 0-0.044-6e-3-0.086-0.017-0.126 2.035-1.161 3.672-3.057 4.433-4.913h0.08c0.44 5e-3 0.854-0.079 1.231-0.244l1.22 5.183c0.177 1.021-0.104 2.061-0.77 2.854zM15 10.999c-0.552 0-1-0.448-1-1s0.448-1 1-1 1 0.448 1 1-0.448 1-1 1z" />
</svg>