<svg id="woman_scientist_Layer_1" viewBox="0 0 24 24" fill="currentColor" width="32" height="32" data-name="Layer 1" xmlns="http://www.w3.org/2000/svg" xmlns:xlink="http://www.w3.org/1999/xlink">
    <title>woman-scientist</title>
    <path d="M12.834 15.248l-2.326 3.043C10.128 18.747 9.59 19 9.017 19s-1.111-0.252-1.478-0.691l-2.365-3.091C4.98 14.984 4.614 14.926 4.34 15.1c-0.341 0.216-0.675 0.475-0.994 0.769C1.856 17.248 1 19.326 1 21.572v1.929c0 0.276-0.224 0.5-0.5 0.5S0 23.777 0 23.501v-1.929c0-2.523 0.973-4.87 2.667-6.438 0.363-0.335 0.746-0.631 1.138-0.879 0.696-0.443 1.622-0.295 2.15 0.339l2.365 3.091C8.482 17.879 8.741 18 9.016 18s0.533-0.121 0.71-0.333l2.326-3.043c0.544-0.654 1.47-0.797 2.168-0.354 0.201 0.129 0.397 0.268 0.587 0.415 0.218 0.17 0.257 0.484 0.087 0.702-0.17 0.217-0.484 0.256-0.702 0.087-0.164-0.128-0.335-0.249-0.51-0.361-0.275-0.175-0.641-0.117-0.848 0.135zM23.821 22.791C23.489 23.536 22.776 24 21.96 24h-6.92c-0.796 0-1.501-0.447-1.842-1.166-0.34-0.72-0.237-1.55 0.268-2.165L17 16.996V13h-0.5c-0.276 0-0.5-0.224-0.5-0.5s0.224-0.5 0.5-0.5h4c0.276 0 0.5 0.224 0.5 0.5S20.776 13 20.5 13H20v3.995l3.461 3.59c0.559 0.618 0.692 1.459 0.36 2.206zM22.729 21.267l-3.59-3.723c-0.09-0.093-0.14-0.217-0.14-0.347V13h-1v4.197c0 0.129-0.05 0.254-0.14 0.347l-3.647 3.789c-0.235 0.289-0.286 0.701-0.11 1.073S14.628 23 15.04 23h6.92c0.422 0 0.776-0.23 0.947-0.615 0.172-0.387 0.105-0.805-0.178-1.118zM0.837 13.393c0.504-2.285 1.687-7.651 1.738-7.869 0.732-3.065 2.803-5.07 5.502-5.445C8.379 0.032 8.685 0 9 0c3.149 0 5.611 2.116 6.425 5.522 0.029 0.126 0.427 1.923 0.856 3.87 0.06 0.27-0.111 0.536-0.381 0.596-0.272 0.062-0.536-0.111-0.596-0.381-0.428-1.939-0.823-3.73-0.853-3.854-0.425-1.78-1.368-3.142-2.635-3.945-0.933 2.983-3.642 5.095-6.803 5.188H4.099c0.464 2.281 2.484 4.003 4.899 4.003 1.39 0 2.682-0.558 3.637-1.568 0.188-0.201 0.507-0.211 0.706-0.021 0.201 0.189 0.21 0.506 0.021 0.706-1.146 1.214-2.695 1.883-4.363 1.883-2.818 0-5.181-1.955-5.823-4.577-0.403 1.822-1.032 4.675-1.364 6.185C1.76 13.84 1.554 14 1.324 14c-0.035 0-0.071-4e-3-0.107-0.012-0.27-0.06-0.44-0.326-0.38-0.595zM10.918 1.35C10.325 1.123 9.682 1 9 1 6.244 1 4.001 3.242 4 5.999h0.999c2.777-0.083 5.163-1.983 5.919-4.649z" />
</svg>