<svg id="won_sign_Layer_1" viewBox="0 0 24 24" fill="currentColor" width="32" height="32" data-name="Layer 1" xmlns="http://www.w3.org/2000/svg" xmlns:xlink="http://www.w3.org/1999/xlink">
    <title>won-sign</title>
    <path d="M23.5 14h-1.75l2.24-13.42c0.05-0.27-0.14-0.53-0.41-0.58S23.05 0.14 23 0.41L20.73 14h-7.16l-1.09-4.62c-0.11-0.45-0.87-0.45-0.97 0L10.42 14H3.26L0.99 0.42C0.95 0.14 0.68-0.04 0.42 0 0.15 0.05-0.04 0.31 0 0.58L2.25 14H0.5C0.22 14 0 14.22 0 14.5S0.22 15 0.5 15h1.91l1.06 6.35c0.24 1.46 1.4 2.52 2.87 2.63 1.22 0.09 2.71-0.53 3.26-2.2l1.61-6.79h1.58l1.62 6.83c0.5 1.51 1.83 2.16 3 2.16 0.08 0 0.17 0 0.25 0 1.48-0.12 2.63-1.17 2.87-2.63L21.59 15h1.91c0.28 0 0.5-0.22 0.5-0.5S23.78 14 23.5 14zM8.64 21.51c-0.39 1.18-1.45 1.54-2.22 1.47-0.78-0.06-1.76-0.57-1.96-1.8l-1.03-6.19h6.76zM11.44 14l0.55-2.33 0.55 2.33zM19.53 21.19c-0.21 1.23-1.19 1.74-1.96 1.8-0.77 0.07-1.83-0.29-2.21-1.43L13.81 15h6.76z" />
</svg>