<svg id="work_in_progress_Layer_1" viewBox="0 0 24 24" fill="currentColor" width="32" height="32" data-name="Layer 1" xmlns="http://www.w3.org/2000/svg" xmlns:xlink="http://www.w3.org/1999/xlink">
    <title>work-in-progress</title>
    <path d="M11.929 8.5 11.458 15c-0.043 0.705-0.472 1-0.988 1-0.342 0-0.66-0.242-0.841-0.64L8.465 12.8 7.301 15.36C7.12 15.758 6.802 16 6.46 16c-0.516 0-0.945-0.295-0.988-1L5.001 8.5C4.981 8.23 5.229 8 5.5 8 5.745 8 6.008 8.19 6.025 8.434l0.435 6.36 1.581-3.478c0.166-0.364 0.683-0.364 0.848 0l1.581 3.477L11 8.426c0.02-0.241 0.222-0.427 0.464-0.427 0.271 0 0.484 0.23 0.465 0.501zM13.5 8C13.224 8 13 8.224 13 8.5v7c0 0.276 0.224 0.5 0.5 0.5s0.5-0.224 0.5-0.5v-7C14 8.224 13.776 8 13.5 8zM20 10.5c0 1.378-1.121 2.5-2.5 2.5H16v2.5c0 0.276-0.224 0.5-0.5 0.5S15 15.776 15 15.5v-6C15 8.673 15.673 8 16.5 8h1c1.379 0 2.5 1.122 2.5 2.5zM19 10.5C19 9.673 18.327 9 17.5 9h-1C16.225 9 16 9.224 16 9.5V12h1.5c0.827 0 1.5-0.673 1.5-1.5zM24 12c0 1.207-0.47 2.341-1.323 3.194l-7.483 7.483C14.341 23.53 13.207 24 12.001 24s-2.341-0.47-3.193-1.323l-7.485-7.483C0.469 14.341 0 13.207 0 12s0.47-2.341 1.323-3.194l7.484-7.483c1.762-1.761 4.625-1.761 6.387 0l7.483 7.483C23.531 9.659 24 10.793 24 12zM23 12c0-0.939-0.366-1.822-1.03-2.487L14.487 2.03c-0.686-0.686-1.586-1.028-2.486-1.028S10.2 1.345 9.515 2.03L2.032 9.513C1.368 10.178 1.002 11.06 1.002 12s0.366 1.822 1.03 2.487l7.483 7.483c1.328 1.329 3.645 1.329 4.973 0l7.483-7.483C22.635 13.822 23.001 12.94 23 12z" />
</svg>