<svg id="workwear_Layer_1" viewBox="0 0 24 24" fill="currentColor" width="32" height="32" data-name="Layer 1" xmlns="http://www.w3.org/2000/svg" xmlns:xlink="http://www.w3.org/1999/xlink">
    <title>workwear</title>
    <path d="M19.078 1.136C17.675 0.383 16.198 0 14.69 0H9.309C7.801 0 6.325 0.382 4.921 1.136c-1.803 0.968-2.922 2.884-2.922 5V12.5c0 1.93 1.57 3.5 3.5 3.5h0.5v4.5c0 1.93 1.57 3.5 3.5 3.5h5c1.93 0 3.5-1.57 3.5-3.5V16h0.5c1.93 0 3.5-1.57 3.5-3.5V6.136c0-2.116-1.119-4.032-2.921-5zM9.31 1h5.381c0.334 0 0.667 0.021 0.998 0.064-0.199 0.607-0.438 1.255-0.636 1.769-0.112 0.199-0.237 0.234-0.436 0.118l-2.304-1.842c-8e-3-7e-3-0.02-4e-3-0.028-0.01C12.203 1.041 12.109 1 12.001 1s-0.202 0.041-0.284 0.099c-9e-3 6e-3-0.02 3e-3-0.029 0.01L9.384 2.951C9.185 3.066 9.04 3.06 8.948 2.834 8.741 2.322 8.511 1.67 8.312 1.064 8.643 1.022 8.975 1 9.31 1zM17 20.5c0 1.378-1.121 2.5-2.5 2.5h-2v-6.5c0-0.276-0.224-0.5-0.5-0.5s-0.5 0.224-0.5 0.5V23h-2C8.121 23 7 21.878 7 20.5V13h10zM21 12.5c0 1.378-1.121 2.5-2.5 2.5H18V7.5C18 7.224 17.776 7 17.5 7S17 7.224 17 7.5V12H7V7.5C7 7.224 6.776 7 6.5 7S6 7.224 6 7.5V15H5.5C4.121 15 3 13.878 3 12.5V6.136C3 4.388 3.918 2.81 5.395 2.017 6.024 1.68 6.668 1.425 7.323 1.255 7.534 1.911 7.799 2.629 8.015 3.193c0.184 0.493 0.676 0.824 1.199 0.82 0.285 0 0.563-0.096 0.795-0.281L11.5 2.54V8.5C11.5 8.776 11.724 9 12 9s0.5-0.224 0.5-0.5V2.54l1.491 1.192c0.323 0.258 0.735 0.343 1.133 0.236s0.712-0.39 0.861-0.776c0.216-0.563 0.481-1.282 0.692-1.937 0.655 0.17 1.299 0.424 1.928 0.762C20.082 2.81 21 4.389 21 6.136z" />
</svg>