<svg id="workshop_Layer_1" viewBox="0 0 24 24" fill="currentColor" width="32" height="32" data-name="Layer 1" xmlns="http://www.w3.org/2000/svg" xmlns:xlink="http://www.w3.org/1999/xlink">
    <title>workshop</title>
    <path d="M20 0H9.5C9.224 0 9 0.224 9 0.5S9.224 1 9.5 1H20c1.654 0 3 1.346 3 3v6c0 1.654-1.346 3-3 3v-1c0-0.552-0.449-1-1-1h-3c-0.551 0-1 0.448-1 1v1H9.5C9.224 13 9 13.224 9 13.5S9.224 14 9.5 14H20c2.206 0 4-1.794 4-4V4c0-2.206-1.794-4-4-4zM16 12h3v1h-3zM4.5 5C5.878 5 7 3.879 7 2.5S5.878 0 4.5 0 2 1.121 2 2.5 3.122 5 4.5 5zM4.5 1C5.327 1 6 1.673 6 2.5S5.327 4 4.5 4 3 3.327 3 2.5 3.673 1 4.5 1zM7 7v6.5C7 13.776 6.776 14 6.5 14S6 13.776 6 13.5V7H3.5C2.122 7 1 8.121 1 9.5v4C1 13.776 0.776 14 0.5 14S0 13.776 0 13.5v-4C0 7.57 1.57 6 3.5 6h11C14.776 6 15 6.224 15 6.5S14.776 7 14.5 7zM2 18c0-0.828 0.673-1.5 1.5-1.5S5 17.172 5 18s-0.673 1.5-1.5 1.5S2 18.828 2 18zM10.5 18c0-0.828 0.673-1.5 1.5-1.5s1.5 0.672 1.5 1.5-0.673 1.5-1.5 1.5-1.5-0.672-1.5-1.5zM19 18c0-0.828 0.673-1.5 1.5-1.5S22 17.172 22 18s-0.673 1.5-1.5 1.5S19 18.828 19 18zM15.468 23.323c0.098 0.258-0.032 0.547-0.291 0.645C15.118 23.989 15.059 24 15 24c-0.202 0-0.392-0.123-0.468-0.323C14.152 22.674 13.135 22 12 22s-2.152 0.674-2.532 1.677c-0.099 0.259-0.387 0.387-0.645 0.291-0.258-0.098-0.388-0.387-0.291-0.645C9.059 21.933 10.452 21 12 21s2.941 0.934 3.468 2.323zM23.968 23.323c0.098 0.258-0.032 0.547-0.291 0.645C23.618 23.989 23.559 24 23.5 24c-0.202 0-0.392-0.123-0.468-0.323C22.652 22.674 21.635 22 20.5 22s-2.152 0.674-2.532 1.677c-0.098 0.259-0.386 0.387-0.645 0.291-0.258-0.098-0.388-0.387-0.291-0.645C17.559 21.933 18.952 21 20.5 21s2.941 0.934 3.468 2.323zM6.968 23.323c0.098 0.258-0.032 0.547-0.291 0.645C6.618 23.989 6.559 24 6.5 24c-0.202 0-0.392-0.123-0.468-0.323C5.652 22.674 4.635 22 3.5 22s-2.152 0.674-2.532 1.677c-0.098 0.259-0.386 0.387-0.645 0.291-0.258-0.098-0.388-0.387-0.291-0.645C0.559 21.933 1.952 21 3.5 21s2.941 0.934 3.468 2.323z" />
</svg>