<svg id="world_Layer_1" viewBox="0 0 24 24" fill="currentColor" width="32" height="32" data-name="Layer 1" xmlns="http://www.w3.org/2000/svg" xmlns:xlink="http://www.w3.org/1999/xlink">
    <title>world</title>
    <path d="M12.5 24c0.135 0-0.053 0.019 0 0zM12.5 24C5 24 0 18.617 0 12S5.383 0 12 0 24 5.383 24 12c0 7-5.5 12-11.5 12zM16.43 4H15.5C14.673 4 14 4.673 14 5.5v1C14 7.327 13.327 8 12.5 8S11 8.673 11 9.5v1c0 0.827 0.673 1.5 1.5 1.5h3c1.379 0 2.5 1.121 2.5 2.5V15c0 0.106 0.055 2.576 2.524 3.941C22.07 17.046 23 14.631 23 12c0-3.691-1.833-6.955-4.63-8.951C17.898 3.64 17.195 4 16.43 4zM12 17.5c0-0.827-0.673-1.5-1.5-1.5H7.242c-0.921 0-1.823-0.374-2.475-1.025l-3.729-3.729C1.021 11.496 1 11.746 1 12.001c0 6.065 4.935 11 11 11zM19.84 19.702C17.04 18.026 17 15.128 17 15v-0.5c0-0.827-0.673-1.5-1.5-1.5h-3c-1.379 0-2.5-1.122-2.5-2.5v-1C10 8.122 11.121 7 12.5 7 12.775 7 13 6.776 13 6.5v-1C13 4.122 14.121 3 15.5 3h0.93c0.425 0 0.817-0.186 1.099-0.495C15.902 1.554 14.017 1 12.001 1 6.623 1 2.143 4.88 1.193 9.986l4.281 4.281c0.466 0.466 1.109 0.732 1.768 0.732H10.5c1.379 0 2.5 1.121 2.5 2.5v5.449c2.668-0.242 5.063-1.438 6.84-3.246z" />
</svg>