<svg id="wrap_Layer_1" viewBox="0 0 24 24" fill="currentColor" width="32" height="32" data-name="Layer 1" xmlns="http://www.w3.org/2000/svg" xmlns:xlink="http://www.w3.org/1999/xlink">
    <title>wrap</title>
    <path d="M20.967 8.355C20.634 3.693 16.745 0 12 0S3.386 3.673 3.035 8.346c-0.069 0.219 2e-3 0.457-0.034 0.688l0.743 10.775c0.162 2.35 2.134 4.19 4.489 4.19h7.533c2.355 0 4.327-1.841 4.489-4.19l0.743-10.775c5e-3-0.142 7e-3-0.6-0.031-0.679zM12 1c4.096 0 7.48 3.096 7.942 7.071-0.316 0.05-0.766 0.135-1.314 0.271C17.982 6.935 16.563 6 15 6c-0.247 0-0.487 0.03-0.722 0.073C13.453 4.791 12.036 4 10.5 4 8.019 4 6 6.019 6 8.5c0 0.016 3e-3 0.031 3e-3 0.047-0.834-0.249-1.516-0.393-1.945-0.468C4.517 4.101 7.902 1 12 1zM7.023 8.881C7.01 8.755 7 8.629 7 8.5 7 6.57 8.57 5 10.5 5c1.107 0 2.14 0.525 2.796 1.396C11.944 7.038 11 8.406 11 10c0 0.317 0.044 0.63 0.118 0.936C9.682 9.978 8.25 9.321 7.023 8.881zM12.279 11.201c-0.167-0.38-0.28-0.781-0.28-1.2 0-1.654 1.346-3 3-3 1.118 0 2.14 0.637 2.653 1.611-1.5 0.457-3.431 1.246-5.373 2.589zM4.005 9.09c1.211 0.229 4.205 0.972 7.059 3.029-2.365 1.945-4.603 4.8-5.937 8.976-0.213-0.411-0.352-0.866-0.385-1.353zM15.765 23H8.232c-0.906 0-1.737-0.352-2.362-0.926C8.894 11.439 17.692 9.417 19.993 9.067l-0.736 10.675c-0.126 1.827-1.659 3.259-3.492 3.258z" />
</svg>