<svg id="wreath_Layer_1" viewBox="0 0 24 24" fill="currentColor" width="32" height="32" data-name="Layer 1" xmlns="http://www.w3.org/2000/svg" xmlns:xlink="http://www.w3.org/1999/xlink">
    <title>wreath</title>
    <path d="M12 17c2.757 0 5-2.243 5-5s-2.243-5-5-5-5 2.243-5 5 2.243 5 5 5zM12 8c2.206 0 4 1.794 4 4s-1.794 4-4 4-4-1.794-4-4 1.794-4 4-4zM24 12c0 0.632-0.158 1.25-0.456 1.788-0.319 0.577-0.75 1.043-1.279 1.384-0.616 0.397-0.927 1.123-0.772 1.804 0.143 0.631 0.12 1.278-0.065 1.924-0.109 0.383-0.284 0.746-0.518 1.08-0.097 0.139-0.252 0.213-0.409 0.213-0.1 0-0.199-0.029-0.287-0.091-0.226-0.158-0.281-0.47-0.122-0.696 0.169-0.242 0.296-0.505 0.375-0.782 0.139-0.482 0.156-0.962 0.052-1.426-0.248-1.089 0.236-2.24 1.205-2.866 0.39-0.251 0.708-0.597 0.946-1.027 0.217-0.391 0.331-0.841 0.331-1.304s-0.114-0.913-0.331-1.304c-0.238-0.431-0.557-0.776-0.945-1.026-0.97-0.627-1.454-1.778-1.206-2.868 0.104-0.463 0.087-0.942-0.052-1.424-0.249-0.871-0.973-1.595-1.844-1.845-0.481-0.137-0.961-0.155-1.425-0.051-1.086 0.252-2.24-0.236-2.866-1.205-0.252-0.39-0.597-0.708-1.026-0.946-0.793-0.439-1.816-0.439-2.608 0-0.43 0.237-0.775 0.556-1.027 0.946-0.625 0.969-1.775 1.454-2.867 1.205-0.463-0.104-0.942-0.087-1.423 0.051-0.871 0.25-1.595 0.974-1.845 1.844-0.138 0.484-0.155 0.964-0.051 1.425 0.248 1.09-0.237 2.242-1.206 2.867-0.39 0.251-0.708 0.597-0.946 1.027-0.217 0.392-0.331 0.842-0.331 1.304s0.114 0.912 0.331 1.304c0.238 0.431 0.556 0.776 0.946 1.027 0.969 0.625 1.454 1.777 1.207 2.866-0.105 0.462-0.088 0.941 0.05 1.426 0.08 0.275 0.206 0.54 0.376 0.783 0.158 0.227 0.102 0.539-0.125 0.696-0.226 0.158-0.538 0.103-0.696-0.124-0.233-0.334-0.407-0.697-0.517-1.079-0.186-0.649-0.208-1.296-0.064-1.924 0.154-0.681-0.156-1.406-0.773-1.805-0.529-0.341-0.96-0.807-1.279-1.383C0.16 13.249 2e-3 12.631 2e-3 12s0.158-1.249 0.456-1.788c0.319-0.576 0.75-1.042 1.279-1.383 0.617-0.398 0.928-1.124 0.773-1.806C2.367 6.396 2.389 5.75 2.575 5.101c0.348-1.212 1.317-2.182 2.53-2.529 0.646-0.184 1.292-0.208 1.92-0.064 0.68 0.153 1.407-0.155 1.806-0.773 0.342-0.53 0.808-0.96 1.382-1.278 1.103-0.611 2.474-0.611 3.578 0 0.575 0.319 1.041 0.749 1.382 1.278 0.398 0.617 1.125 0.928 1.805 0.773 0.631-0.143 1.276-0.12 1.922 0.064 1.214 0.349 2.183 1.317 2.529 2.529 0.186 0.645 0.208 1.292 0.065 1.922-0.154 0.682 0.156 1.407 0.773 1.806 0.528 0.34 0.959 0.806 1.278 1.383C23.843 10.75 24.001 11.368 24 12zM17.429 17.501C17.094 17.164 16.627 17 16 17c-1.47 0-3.217 1.81-4 2.717C11.217 18.811 9.47 17 8 17c-0.626 0-1.094 0.164-1.429 0.501-0.589 0.594-0.582 1.526-0.573 2.606v0.785c-8e-3 1.08-0.016 2.013 0.573 2.606 0.335 0.337 0.802 0.501 1.429 0.501 1.47 0 3.217-1.81 4-2.717 0.783 0.906 2.53 2.717 4 2.717 0.627 0 1.094-0.164 1.429-0.501 0.589-0.594 0.582-1.526 0.573-2.605v-0.787c9e-3-1.079 0.016-2.012-0.573-2.605zM8 23c-0.346 0-0.582-0.067-0.719-0.205-0.296-0.299-0.29-1.074-0.283-1.895v-0.801c-6e-3-0.82-0.013-1.596 0.283-1.895 0.137-0.138 0.373-0.205 0.719-0.205 0.935 0 2.45 1.426 3.355 2.5C10.45 21.573 8.934 22.999 8 23zM17.002 20.901c7e-3 0.82 0.013 1.595-0.283 1.893C16.582 22.933 16.347 23 16 23c-0.935 0-2.45-1.426-3.356-2.5C13.55 19.426 15.065 18 16 18c0.347 0 0.582 0.067 0.719 0.206 0.296 0.298 0.29 1.072 0.283 1.893z" />
</svg>