<svg id="wrench_alt_Layer_1" viewBox="0 0 24 24" fill="currentColor" width="32" height="32" data-name="Layer 1" xmlns="http://www.w3.org/2000/svg" xmlns:xlink="http://www.w3.org/1999/xlink">
    <title>wrench-alt</title>
    <path d="M23.707 5.568c-0.134-0.499-0.511-0.877-1.009-1.009-0.491-0.131-1 6e-3-1.357 0.369l-3.556 3.587c-0.645 0.646-1.695 0.644-2.339 0-0.312-0.312-0.484-0.728-0.484-1.17s0.172-0.856 0.486-1.171l3.543-3.573c0.358-0.361 0.492-0.871 0.358-1.362-0.136-0.496-0.514-0.869-1.012-0.999-1.058-0.275-2.149-0.314-3.244-0.116-2.927 0.532-5.32 2.843-5.954 5.751C8.882 7.052 8.91 8.234 9.221 9.387c0.153 0.566 0.016 1.133-0.368 1.515l-7.899 7.875c-1.136 1.134-1.271 2.942-0.307 4.117 0.54 0.658 1.353 1.105 2.331 1.105 0.794 0 1.563-0.315 2.127-0.878l8.021-8c0.379-0.378 0.939-0.516 1.5-0.368 1.16 0.306 2.347 0.323 3.524 0.054 2.899-0.659 5.188-3.066 5.695-5.987 0.191-1.1 0.145-2.193-0.138-3.252zM22.861 8.648c-0.439 2.529-2.421 4.613-4.932 5.185-1.021 0.23-2.046 0.218-3.048-0.046-0.907-0.237-1.827-4e-3-2.46 0.627L4.4 22.413c-0.4 0.399-0.954 0.613-1.521 0.584-0.573-0.028-1.091-0.29-1.458-0.737-0.641-0.781-0.535-2 0.241-2.774l7.897-7.875c0.64-0.639 0.875-1.567 0.627-2.483-0.27-0.997-0.293-2.02-0.07-3.039 0.549-2.519 2.621-4.52 5.155-4.979 0.399-0.072 0.797-0.108 1.192-0.108 0.547 0 1.09 0.069 1.622 0.207 0.212 0.056 0.28 0.226 0.299 0.296 0.019 0.068 0.046 0.243-0.103 0.395l-3.542 3.572c-0.501 0.501-0.777 1.167-0.777 1.876s0.276 1.376 0.777 1.877c1.035 1.036 2.719 1.035 3.754-2e-3l3.558-3.589c0.149-0.149 0.322-0.124 0.39-0.105 0.071 0.019 0.242 0.086 0.3 0.302 0.246 0.916 0.286 1.865 0.12 2.817z" />
</svg>