<svg id="x_Layer_1" viewBox="0 0 24 24" fill="currentColor" width="32" height="32" data-name="Layer 1" xmlns="http://www.w3.org/2000/svg" xmlns:xlink="http://www.w3.org/1999/xlink">
    <title>x</title>
    <path d="M12.649 12 21.886 0.818c0.176-0.213 0.146-0.528-0.067-0.704-0.211-0.176-0.526-0.147-0.704 0.067L12 11.215 2.886 0.182C2.708-0.033 2.393-0.061 2.182 0.115 1.969 0.291 1.939 0.606 2.115 0.819L11.351 12 2.114 23.182c-0.176 0.213-0.146 0.528 0.067 0.704 0.212 0.175 0.527 0.147 0.704-0.067L12 12.785l9.114 11.033c0.177 0.214 0.493 0.242 0.704 0.067 0.213-0.176 0.243-0.491 0.067-0.704z" />
</svg>