<svg id="yin_yang_Layer_1" viewBox="0 0 24 24" fill="currentColor" width="32" height="32" data-name="Layer 1" xmlns="http://www.w3.org/2000/svg" xmlns:xlink="http://www.w3.org/1999/xlink">
    <title>yin-yang</title>
    <path d="M12 0v0C5.37 0 0 5.37 0 12v0c0 6.63 5.37 12 12 12v0c6.63 0 12-5.37 12-12v0c0-6.63-5.37-12-12-12zM1 12C1 5.98 5.87 1.07 11.88 1 14.72 1.07 17 3.4 17 6.25c0 2.65-2.26 5-5.04 5.25C8.68 11.8 6 14.6 6 17.75c0 1.73 0.71 3.3 1.85 4.44C3.83 20.55 1 16.6 1 12zM12.12 23C9.28 22.93 7 20.6 7 17.75c0-2.65 2.26-5 5.04-5.25C15.32 12.2 18 9.4 18 6.25c0-1.73-0.71-3.3-1.85-4.44C20.17 3.45 23 7.4 23 12c0 6.02-4.87 10.93-10.88 11zM11 6c0-0.55 0.45-1 1-1s1 0.45 1 1-0.45 1-1 1-1-0.45-1-1zM13 18c0 0.55-0.45 1-1 1s-1-0.45-1-1 0.45-1 1-1 1 0.45 1 1z" />
</svg>