<svg id="yoga_ball_mat_Layer_1" viewBox="0 0 24 24" fill="currentColor" width="32" height="32" data-name="Layer 1" xmlns="http://www.w3.org/2000/svg" xmlns:xlink="http://www.w3.org/1999/xlink">
    <title>yoga-ball-mat</title>
    <path d="M19.5 15h-15C2.019 15 0 17.019 0 19.5S2.019 24 4.5 24h15c2.481 0 4.5-2.019 4.5-4.5S21.981 15 19.5 15zM1 19.5C1 17.57 2.57 16 4.5 16S8 17.57 8 19.5 6.43 23 4.5 23 1 21.43 1 19.5zM9 19.5c0-1.421-0.675-2.675-1.706-3.5H11.5c1.93 0 3.5 1.57 3.5 3.5S13.43 23 11.5 23H7.294C8.326 22.175 9 20.921 9 19.5zM19.5 23h-5.206C15.326 22.175 16 20.921 16 19.5s-0.675-2.675-1.706-3.5H19.5c1.93 0 3.5 1.57 3.5 3.5S21.43 23 19.5 23zM2.964 12.982c0.267-0.072 0.424-0.348 0.351-0.613C3.106 11.6 3 10.804 3 10 3 7.71 3.867 5.624 5.28 4.034 5.101 4.849 5 5.683 5 6.531c0 2.219 0.628 4.376 1.816 6.238 0.149 0.235 0.46 0.3 0.69 0.153 0.232-0.148 0.301-0.458 0.152-0.69-1.085-1.702-1.659-3.674-1.659-5.701 0-1.306 0.237-2.579 0.698-3.787 0.868-0.636 1.851-1.118 2.914-1.412C9.209 2.334 8.998 3.412 8.998 4.5c0 4.686 3.813 8.5 8.5 8.5 1.095 0 2.178-0.214 3.184-0.62-0.065 0.262 0.089 0.531 0.352 0.602 0.259 0.072 0.542-0.082 0.614-0.352 0.397-1.568 0.483-3.278 0.095-4.844C20.761 3.3 16.596-0.028 12 0 6.607-6e-3 1.97 4.454 2 10c0 0.893 0.118 1.777 0.35 2.631 0.072 0.267 0.346 0.423 0.614 0.351zM20.691 7.702C20.151 7.897 19.585 8 19 8c-2.757 0-5-2.243-5-5 0-0.585 0.103-1.151 0.298-1.691 3.116 0.825 5.569 3.277 6.393 6.393zM13.305 1.106C13.102 1.714 13 2.348 13 3c0 3.309 2.691 6 6 6 0.653 0 1.287-0.103 1.894-0.305C20.957 9.122 21 9.556 21 10c0 0.39-0.027 0.778-0.077 1.162C19.87 11.704 18.694 12 17.5 12 13.364 12 10 8.636 10 4.5c0-1.192 0.294-2.364 0.834-3.416C11.217 1.034 11.604 1 12 1c0.444 0 0.878 0.043 1.305 0.106z" />
</svg>