<svg id="yoga_ball_Layer_1" viewBox="0 0 24 24" fill="currentColor" width="32" height="32" data-name="Layer 1" xmlns="http://www.w3.org/2000/svg" xmlns:xlink="http://www.w3.org/1999/xlink">
    <title>yoga-ball</title>
    <path d="M12 0C5.383 0 0 5.383 0 12s5.383 12 12 12 12-5.383 12-12S18.617 0 12 0zM20.029 19.495C18.889 19.83 17.701 20 16.5 20 9.607 20 4 14.393 4 7.5 4 6.331 4.162 5.171 4.48 4.055c6e-3-0.022 2e-3-0.044 5e-3-0.066 1.154-1.083 2.538-1.922 4.074-2.43C8.194 2.666 7.999 3.818 7.999 5c0 6.065 4.935 11 11 11 1.182 0 2.335-0.194 3.441-0.559-0.505 1.528-1.338 2.904-2.411 4.054zM22.519 8.789C22.024 8.918 21.517 9 21 9c-3.309 0-6-2.691-6-6 0-0.517 0.082-1.024 0.211-1.519 3.487 1.067 6.241 3.821 7.308 7.308zM14.246 1.232C14.095 1.809 14 2.399 14 3c0 3.86 3.141 7 7 7 0.602 0 1.192-0.095 1.768-0.246C22.919 10.479 23 11.23 23 12c0 0.777-0.083 1.534-0.237 2.266C21.569 14.752 20.303 15 19 15 13.486 15 9 10.514 9 5 9 3.697 9.249 2.432 9.734 1.237 10.466 1.083 11.223 1 12 1c0.77 0 1.521 0.081 2.246 0.232zM1 12c0-2.437 0.806-4.684 2.153-6.509C3.054 6.154 3 6.825 3 7.5 3 14.944 9.056 21 16.5 21c0.674 0 1.344-0.052 2.006-0.151C16.681 22.194 14.436 23 12 23 5.935 23 1 18.065 1 12z" />
</svg>